<svg id="Layer_1" data-name="Layer 1" xmlns="http://www.w3.org/2000/svg" width="520" height="520" viewBox="0 0 520 520"><defs><style>.cls-1,.cls-2{fill:#221f1f;}.cls-2{stroke:#221f1f;stroke-miterlimit:10;stroke-width:2px;}</style></defs><title>Notioly v2</title><g id="_10.E-scooter" data-name="10.E-scooter"><path class="cls-1" d="M224.3,457a8.67,8.67,0,0,1-3.14-.39c-.29-.07-.48-.35,0-.51.76-.17,1.42-.28,2.14-.38.44-.11,7.23-.29,9.53-.34s4.46-.06,6.69-.05c4.55,0,9,.08,13.54-.15,1,0,2-.06,3-.06,3.45,0,6.9-.14,10.35-.32a16.39,16.39,0,0,0,1.72-.14c.9-.15,10.27-.54,11.49-.54l9.06,0a7.71,7.71,0,0,1,1.28,0,15.18,15.18,0,0,0,2.78.09c1.3,0,2.6,0,3.89,0a12.91,12.91,0,0,1,2,.27c.64.13.18.38,0,.4-.59.05-.13.23-.12.35a.15.15,0,0,1,0,.13l-3.76.33c-2,.18-4,.36-4.42.38l-5.74.27-6.52.36c-.64.05-1.29,0-1.94,0l-9.32.53c-1.79.05-3.59.19-5.39.1a9.78,9.78,0,0,0-1.08,0c-3.09.15-6.17.22-9.28.27-1.58,0-3.19.07-4.77.07l-.86,0-1.08-.05c-3.74,0-7.48-.18-11.22-.17-.86,0-5-.26-6-.24C226.61,457.3,224.79,457,224.3,457Z"/><path class="cls-1" d="M227.58,458.32a5.66,5.66,0,0,1-1.58-.19,7.36,7.36,0,0,1-1.31-.55c-.25-.14-.17-.45.16-.47.64-.05,1.28-.1,1.92-.12.2,0,1.84.07,3.71,0s3.94-.16,5-.25q3.06-.24,6.16-.43c2.1-.12,4.21-.24,6.33-.3l6.3-.1c.93,0,1.86,0,2.79,0,3.19.08,6.39,0,9.59-.07a12,12,0,0,0,1.59-.09c.84-.13,9.52-.27,10.65-.23l8.39.28a6.62,6.62,0,0,1,1.19.07,12.92,12.92,0,0,0,2.57.2c1.2,0,2.41.1,3.61.24a7.5,7.5,0,0,1,1.8.44c.68.35.09.42,0,.41-.54,0-.14.2-.13.32s0,.1,0,.13-.39,0-1.05,0-1.53,0-2.43.06c-1.81.07-3.71.18-4.08.17H287l-3.63.06-6,.16c-.59,0-1.19,0-1.79,0l-8.63.27c-1.66,0-3.33.11-5,0-.33,0-.66,0-1,0-2.86.08-5.72.06-8.59.05l-4.37,0-.79,0c-.33,0-.66,0-1,0q-5.15.17-10.36.45c-.8.06-4.65-.07-5.58-.11C229.73,458.66,228,458.31,227.58,458.32Z"/><path class="cls-1" d="M229.26,459.54a5.52,5.52,0,0,1-1.51-.2,7.51,7.51,0,0,1-1.25-.56c-.24-.13-.16-.44.15-.46.62-.05,1.23-.1,1.86-.12.18,0,1.77.08,3.56.08s3.78,0,4.8-.11l5.91-.23,6.05-.19c2,0,4-.06,6-.12q1.34,0,2.67,0c3.06,0,6.12-.09,9.19-.26a15.08,15.08,0,0,0,1.52-.12c.8-.15,9.12-.51,10.2-.49l8.06,0a6.1,6.1,0,0,1,1.14.05,12.71,12.71,0,0,0,2.47.13c1.16,0,2.31,0,3.48.15a6.74,6.74,0,0,1,1.74.41c.66.33.08.41,0,.4-.52,0-.14.21-.13.33s0,.09,0,.12-.37,0-1,0-1.46.06-2.33.12c-1.73.11-3.55.27-3.91.27l-1.62.06-3.47.15-5.78.32c-.57,0-1.15,0-1.72,0l-8.27.47c-1.6,0-3.19.18-4.79.08a7.71,7.71,0,0,0-1,0c-2.74.13-5.49.16-8.25.18l-4.22,0-.75,0c-.32,0-.63,0-.95,0l-10,.17c-.77,0-4.45-.21-5.34-.27C231.31,459.92,229.7,459.54,229.26,459.54Z"/><path class="cls-1" d="M233.15,460.6a3.81,3.81,0,0,1-2.54-.86c-.21-.14-.08-.45.21-.47.57,0,1.09-.06,1.66-.12.18,0,1.62,0,3.28,0s3.5-.06,4.45-.12c1.82-.06,3.64-.09,5.47-.11,3.71,0,7.42-.14,11.14-.24.82,0,1.65,0,2.47,0,2.83.06,5.67,0,8.5-.14a9.46,9.46,0,0,0,1.41-.11c.74-.14,8.43-.4,9.42-.38l7.44.09a4.55,4.55,0,0,1,1.05,0,10.24,10.24,0,0,0,2.28.12c1.07,0,2.14,0,3.2,0a10.94,10.94,0,0,1,1.59.25c.48.09.19.38,0,.41-.48.08-.1.23-.07.35a.15.15,0,0,1,0,.13,7.11,7.11,0,0,1-1,.1l-2.17.24c-1.61.17-3.29.35-3.62.36l-10.07.51c-.52,0-1.06,0-1.59,0l-7.65.39c-1.48,0-3,.13-4.43,0a6.46,6.46,0,0,0-.88,0c-2.54.09-5.08.1-7.62.1l-3.89.08c-.24,0-.47,0-.71,0s-.59,0-.88,0c-3.07.07-6.15,0-9.23.05-.71,0-4.1-.24-4.92-.27C235.06,461,233.56,460.58,233.15,460.6Z"/><path class="cls-1" d="M300.77,135.69a10.71,10.71,0,0,1-4.86,2,11.9,11.9,0,0,1-5.09-.41,16.3,16.3,0,0,1-3.34-1.34,39.34,39.34,0,0,1-9.26-7.79c-1.2-1.28-2.41-2.56-3.6-3.84l-2.3-2.41c-.72-.77-1.44-1.54-2.16-2.33-.36-.34-.12-.92.78-1a3.93,3.93,0,0,1,3,1.29c3.13,3.39,5.93,6.82,9.08,10a22.59,22.59,0,0,0,6.58,4.54,9.62,9.62,0,0,0,8.11.38,7.83,7.83,0,0,0,3.67-3.46,15,15,0,0,0,1.43-3.83,27.36,27.36,0,0,0,.64-4.15c.18-2.18.07-4.34.05-6.53,0-.49,0-1,0-1.46.06-1.82.3-2.41,1-2.73a3.13,3.13,0,0,1,.46-.21c.51-.11.83.65.89,1.94a56.43,56.43,0,0,1-.41,12.35,19.06,19.06,0,0,1-1.42,4.8,11.34,11.34,0,0,1-3.2,4.26Z"/><path class="cls-1" d="M302.73,108.84a2.77,2.77,0,0,0,2-.58,1,1,0,0,0,.23-.39.41.41,0,0,0,0-.31,2,2,0,0,0-.42-.58,16.64,16.64,0,0,0-1.54-1.34c-.5-.41-1.06-.79-1.6-1.31a3.74,3.74,0,0,1-.92-1.29,2.13,2.13,0,0,1,.05-1.7c.16-.32.72,0,1.27.29a5.44,5.44,0,0,0,.77.38c.22.08.38.09.39.13a3.49,3.49,0,0,0,.9,1.08c.51.48,1.15,1,1.78,1.69a10.83,10.83,0,0,1,1.25,1.45,2.55,2.55,0,0,1,.25,2.42,3.68,3.68,0,0,1-.65,1,4.81,4.81,0,0,1-.88.71,4.06,4.06,0,0,1-1,.43,4.32,4.32,0,0,1-1,.22,7.13,7.13,0,0,1-2.31-.07,7.78,7.78,0,0,1-3.18-1.35,4.09,4.09,0,0,1-1.8-2.37,2.91,2.91,0,0,1-.1-.72,1.12,1.12,0,0,1,.28-.88.84.84,0,0,1,.71-.15,3.11,3.11,0,0,1,.44.07,1.21,1.21,0,0,1,.84.84,2.31,2.31,0,0,0,.57,1,5,5,0,0,0,1.14.76,5.89,5.89,0,0,0,2.44.55Z"/><path class="cls-1" d="M258.5,111.68a8.67,8.67,0,0,1-1.44-4.54,6.62,6.62,0,0,1,.11-1.77,5.54,5.54,0,0,1,1.58-2.82,5,5,0,0,1,2.89-1.28,9.05,9.05,0,0,1,2.61.08,6,6,0,0,1,3,1.1c.49.41-1.29,2.11-2.16,1.78-1.65-.57-3.16-.87-4.38-.32a1.78,1.78,0,0,0-.89.92,4.51,4.51,0,0,0-.37,1.4,6.19,6.19,0,0,0,4.91,6.71,6.57,6.57,0,0,0,2.65-.14c.19,0,.38-.1.57-.13.71-.16,1,0,1.27.55.07.13.15.26.21.4.19.47,0,.93-.65,1.19a7.81,7.81,0,0,1-2.93.59,8.87,8.87,0,0,1-3.17-.61,8.65,8.65,0,0,1-3.83-3.07Z"/><path class="cls-1" d="M269.7,63.94c4.23-10.11,15.47-20.65,26.7-22.58,30.47-5.21,36,18.48,30.29,30.43C315.65,95,284,82.21,283,82.49c-11.93,3.39-15.09,16.91-14.33,21,.37,2-4.59-.77-7.56-1.59-10.49-2.9-23.62-11-18.29-29C247.91,55.73,270.33,60.63,269.7,63.94Z"/><path class="cls-1" d="M272.21,88.12a20.31,20.31,0,0,1,4.55-4.27l1.32-.85c.46-.25.94-.47,1.41-.7a8.3,8.3,0,0,1,1.44-.61l1.63-.56c.12,0,.24-.08.37,0a1.53,1.53,0,0,1,.37,0,5.16,5.16,0,0,1,.67.11l.82.23,1.58.45c1,.29,2.09.57,3.13.82A62.71,62.71,0,0,0,295.84,84a41.73,41.73,0,0,0,12.72,0,23,23,0,0,0,11.75-5.5A21.22,21.22,0,0,0,324,74.07a26.28,26.28,0,0,0,1.45-2.53,17,17,0,0,0,1.09-2.65,22.82,22.82,0,0,0,.47-11.49,19.5,19.5,0,0,0-5.53-10,21.29,21.29,0,0,0-10.31-5.21,34.75,34.75,0,0,0-10.54-.48l-1.33.12L298,42l-1.32.19c-.44.07-.85.19-1.28.27a28.65,28.65,0,0,0-4.94,1.65,38.83,38.83,0,0,0-5.83,3.36,47.62,47.62,0,0,0-5.18,4.34,52.41,52.41,0,0,0-4.5,5,48.19,48.19,0,0,0-3.67,5.64c-1.23,2.49-1.68,2-1.19-.53a24.48,24.48,0,0,1,6.31-10.81,42.8,42.8,0,0,1,5.46-4.86,37,37,0,0,1,6.25-3.86,27.93,27.93,0,0,1,7-2.46l.92-.19.9-.13,1.8-.26c1.21-.11,2.41-.25,3.63-.28a31.93,31.93,0,0,1,14.51,2.42,21,21,0,0,1,10.6,10.36,25.14,25.14,0,0,1,1.21,17.71,21.92,21.92,0,0,1-1.84,4.2,25.94,25.94,0,0,1-2.54,3.8,22.78,22.78,0,0,1-7,5.82c-11,5.79-24.27,3-34.39,0l-1.42.49a9.94,9.94,0,0,0-1.45.66A18,18,0,0,0,277.75,86l-1.07.86a8.91,8.91,0,0,0-1,.93,19.71,19.71,0,0,0-3.35,4.39,22.16,22.16,0,0,0-2.18,5.11,21.2,21.2,0,0,0-.61,2.71c-.09.46-.11.91-.16,1.37a5,5,0,0,0,0,.67,6.89,6.89,0,0,0,0,.94v.63a2,2,0,0,1-.08.69.92.92,0,0,1-.47.52,2.53,2.53,0,0,1-1.43.13,7.55,7.55,0,0,1-.79-.19,6.4,6.4,0,0,1-.69-.22l-1.07-.39c-1.41-.55-2.76-1.14-4.12-1.53a38.21,38.21,0,0,1-8.39-3.48,25.33,25.33,0,0,1-7-5.79,18.6,18.6,0,0,1-4-8.21,14.66,14.66,0,0,1-.28-1.76,13.08,13.08,0,0,1-.16-1.76,22.88,22.88,0,0,1,.13-3.52l.2-1.74c.08-.59.25-1.14.37-1.71L242,73c.14-.57.35-1.12.53-1.68a17.4,17.4,0,0,1,3.68-6.07,17.09,17.09,0,0,1,5.9-4,21.54,21.54,0,0,1,6.07-1.51,19.62,19.62,0,0,1,8.21.81,5.34,5.34,0,0,1,3.12,2.21c.2.38.35,1,.12,1.14s-.24,0-.35-.07a3.85,3.85,0,0,0-.85-.54A16.9,16.9,0,0,0,262.81,62a20.36,20.36,0,0,0-11.2,2.11,14.63,14.63,0,0,0-7.06,8.6,24.64,24.64,0,0,0-1,11.74,17.46,17.46,0,0,0,6,9.86,29.5,29.5,0,0,0,9.67,5.36c.44.17.89.29,1.34.43l1.42.44c1,.32,2,.7,2.87,1.06l1.34.53.74.26s.05,0,0,0h0v-.53c0-.35,0-.68.06-1,.05-.69.18-1.33.29-2a27,27,0,0,1,1.06-3.8,25.62,25.62,0,0,1,3.79-6.89Z"/><path class="cls-1" d="M264.28,247c-1.76-1.87-3.5-3.78-5.19-5.74a75.13,75.13,0,0,1-4.84-6.14,26.64,26.64,0,0,1-1.58-2.5,8.79,8.79,0,0,1-.65-1.48,6.21,6.21,0,0,1-.21-.88l-.07-.72c-.66-6.88.79-13.49,2.42-19.89.74-2.85,1.56-5.68,2.4-8.47a96.5,96.5,0,0,1,3.64-10.59c.91-2.15,2.14,1.4.74,5.45a179,179,0,0,0-6.27,21.69c-.1.55-.21,1.11-.31,1.67s-.15,1.12-.22,1.69c-.17,1.13-.2,2.27-.26,3.42,0,.57,0,1.14,0,1.71s0,1.14.07,1.7l.17,1.69c0,.14,0,.29,0,.41l.08.3a3.73,3.73,0,0,0,.25.67,32.49,32.49,0,0,0,4.18,6.13c1.6,2,3.3,3.91,5,5.8q3.21,3.48,6.57,6.83c3.4,3.38,6.88,6.71,10.46,9.84,2.79,2.43,5.66,4.65,8.58,6.82l1.94,1.39c2.41,1.73,3.1,2.33,3.32,3.21a3.93,3.93,0,0,1,.14.6c0,.58-1.32.32-3.25-.87a117.3,117.3,0,0,1-16.09-12.8c-3.82-3.49-7.53-7.15-11.13-10.89Z"/><path class="cls-1" d="M276.86,230.1a19,19,0,0,1-2.71-5.15c-.09-.23-.13-.51-.2-.76a4,4,0,0,1-.13-.83,9.54,9.54,0,0,1,.05-1.64,28.12,28.12,0,0,1,.55-2.79c.89-3.57,2-7,3.11-10.39l2.33-7.47c1.4-4.38,2.76-8.76,3.94-13.18a110.68,110.68,0,0,0,2.86-13.38,48.83,48.83,0,0,0,.48-6,26.23,26.23,0,0,0-.47-5.9,15.26,15.26,0,0,0-1.1-3.51,5.11,5.11,0,0,0-2.25-2.35,9.22,9.22,0,0,0-6.77-.8c-.67.2-1,.23-1.12,0s.07-.69.66-1.22a5.76,5.76,0,0,1,2.92-1.33,8.58,8.58,0,0,1,8.41,3.65,12.1,12.1,0,0,1,1,2.15c.26.69.41,1.4.61,2.1a31.28,31.28,0,0,1,.55,8.37,81.19,81.19,0,0,1-2.84,16c-1.68,6.24-3.5,12.69-5.5,18.94-1.09,3.44-2.22,6.87-3.26,10.3-.51,1.72-1,3.44-1.4,5.15a15.54,15.54,0,0,0-.4,2.51,5.4,5.4,0,0,0,.44,2.26,22.17,22.17,0,0,0,3.34,5.42,57.72,57.72,0,0,0,4.41,4.86,142,142,0,0,0,15.26,13c.92.68,1.84,1.35,2.77,2l3.34,2.3a26.52,26.52,0,0,1-2.33,4.54c-.78,1.24-1.62,2.41-2.44,3.58-.65.91-1.26,1.82-1.85,2.75-2.18,3.46-2.58,4.63-3.5,5.26a3.85,3.85,0,0,1-.61.43c-.3.12-.42-.25-.33-1.07a11.32,11.32,0,0,1,1.13-3.5,45,45,0,0,1,3.91-6.28c.69-1,1.38-2,2-3,.3-.51.6-1,.85-1.52l.17-.33s0,0,0,0v0l-.05,0h0l-.28-.2-1.43-1c-.94-.69-1.88-1.38-2.83-2.06q-2.81-2.1-5.57-4.31c-2.82-2.29-5.6-4.66-8.26-7.2a62,62,0,0,1-7.46-8.26Z"/><path class="cls-1" d="M316.55,270.5a.85.85,0,0,0,.09.29c.1.08.13-.07.21-.13l.06-.08,0,0,.11-.21a7.43,7.43,0,0,0,.43-1,7,7,0,0,0,.35-1,6.71,6.71,0,0,0,.25-1,7,7,0,0,0,0-2.82,6.28,6.28,0,0,0-.88-2.31,9.17,9.17,0,0,0-1.67-2,23.13,23.13,0,0,0-4.58-3.24c-1.49-.84-3.07-1.55-4.65-2.28-1-.46-2-.92-3-1.49a8.24,8.24,0,0,1-2.76-2.31c-.47-.69.18-.88,1-.86a5.59,5.59,0,0,1,2.81.71c3.6,2.13,8.1,3.72,11.78,6.93a16.6,16.6,0,0,1,3,3.34,8.84,8.84,0,0,1,1.47,4.49,11.44,11.44,0,0,1-1,4.9,9.26,9.26,0,0,1-.51,1.11,5.76,5.76,0,0,1-.87,1.47l-.94,1.13a.65.65,0,0,1-.55.31,1,1,0,0,1-.6-.24,3.78,3.78,0,0,1-1.09-1.44c-.29-.61-.64-1.42-.78-1.74a18,18,0,0,0-1.24-2.4c-.7-1.12-1.65-2-2.66-1.85a3.84,3.84,0,0,0-1.6.77,19.87,19.87,0,0,1-1.87,1.2,6.52,6.52,0,0,1-3.54,1.07,4.58,4.58,0,0,1-1.06-.23,3.87,3.87,0,0,1-.93-.59l-.39-.38c-.11-.13-.21-.27-.31-.41a5.19,5.19,0,0,1-.49-.85,8.08,8.08,0,0,1-.55-1.51c-.43-1.9-.25-2.47.32-2.92a2.76,2.76,0,0,1,.41-.31c.48-.24.95.49,1.27,1.7a9.45,9.45,0,0,0,.91,2.37c.09.16.21.25.29.39s.2.17.29.23a1,1,0,0,0,.58.12,3.23,3.23,0,0,0,.91-.18,7.21,7.21,0,0,0,1.13-.54l.57-.33.58-.4.58-.4.8-.53a4.55,4.55,0,0,1,3.46-.53,5.32,5.32,0,0,1,2.64,1.87,12.16,12.16,0,0,1,1.42,2.22c.19.37.37.74.53,1.1s.4.87.34.74Z"/><path class="cls-1" d="M285.42,218.69c.05-.43.1-.87.17-1.3l.24-1.06c.16-.71.34-1.38.52-2.05l1.1-4c.75-2.65,1.47-5.31,2.18-8q.72-2.93,1.39-5.85A179.43,179.43,0,0,0,295,175.67l.26-2.34c.07-.77.11-1.56.15-2.34.09-1.56.2-3.11.15-4.66l0-3c0-1-.15-2-.21-3-.08-2-.4-3.93-.56-5.9-.09-1.23.53-1.2,1.28-.25a8.39,8.39,0,0,1,1.14,2.07,12.65,12.65,0,0,1,.49,1.47,10.81,10.81,0,0,1,.23,1.68,90.6,90.6,0,0,1-1.9,24.88c-1,4.88-2,10-3.16,14.89-1.31,5.42-2.87,10.79-4.29,16.13-.23.83-.4,1.64-.59,2.44,0,.38-.12.69-.13,1.11v1.26a13.7,13.7,0,0,0,1,4.7c1.94,4.59,5.63,8.4,9.48,11.67,1.54,1.24,3.09,2.45,4.73,3.52.82.54,1.61,1.11,2.44,1.62l1.25.76,1.6,1c.31.19.59.38.88.57l.43.29.22.15s.11,0,.07.07l-.07.11c-.42.54-.81,1.09-1.28,1.64l-.61.7-.37.41-.67.68a10.59,10.59,0,0,1-1.07.93,2.55,2.55,0,0,1-1.56.63,2.25,2.25,0,0,1-.64,0c-.55-.17.14-1.3,1.65-3.1l.84-1a1.5,1.5,0,0,0,.24-.37l.05-.11s-.09,0-.12-.06-.12,0-.26-.11l-2.35-1.45-2.31-1.57a59.15,59.15,0,0,1-8.75-7.33,31.51,31.51,0,0,1-5.25-7,17.16,17.16,0,0,1-1.63-4.27,17.67,17.67,0,0,1-.41-4.5Z"/><path class="cls-1" d="M306.5,244.51c5.08,3.3,14.71,5.4,12,13.58-.25.76,2.2.44,2.45-.34,1.3-3.95-.4-7.22-3.61-9.6-2.65-2-5.85-2.8-8.57-4.57-.68-.44-2.88.55-2.29.93Z"/><path class="cls-2" d="M315.54,272c0,2.53-3.84,4.58-6.11,4.58a4.36,4.36,0,0,1-4.1-4.58c0-2.52,1.84-5.57,4.1-5.57S315.54,269.47,315.54,272Z"/><path class="cls-1" d="M353.05,442.63a22.42,22.42,0,0,0-22.42,22.42c0,12.38,11,21.42,23.42,21.42s21.42-9,21.42-21.42A22.42,22.42,0,0,0,353.05,442.63Zm1,32.18c-5.8,0-11.5-4.23-11.5-10a10.5,10.5,0,0,1,21,0C363.55,470.58,359.85,474.81,354.05,474.81Z"/><path class="cls-1" d="M358.43,457.37a9.05,9.05,0,0,0-11.21.05,10.6,10.6,0,0,0-2,2.05,10.18,10.18,0,0,0-1.31,2.59,8.57,8.57,0,0,0,0,5.72,8.4,8.4,0,0,0,1.33,2.25,10,10,0,0,0,2,1.77,14.73,14.73,0,0,0,6.34,2.22c.69.1.64.65,0,1.16a4.08,4.08,0,0,1-3.56.45,12.61,12.61,0,0,1-6.72-4.68,10.23,10.23,0,0,1-1.71-3.87,10,10,0,0,1,.08-4.18,12.89,12.89,0,0,1,1.93-4.57,11.17,11.17,0,0,1,3.64-3.4,11.33,11.33,0,0,1,16.95,8.59,13.16,13.16,0,0,1-.46,4.88,10,10,0,0,1-4.49,6.08,7.9,7.9,0,0,1-2.88,1.09,7.82,7.82,0,0,1-.92,0,1.37,1.37,0,0,1-1-.51,1.39,1.39,0,0,1-.29-.37c-.09-.22.06-.43.39-.6a2.84,2.84,0,0,1,.62-.25,8.26,8.26,0,0,1,.83-.26,8.46,8.46,0,0,0,4.53-3.17,9.93,9.93,0,0,0,1.63-5.5,9.19,9.19,0,0,0-3.68-7.53Z"/><path class="cls-1" d="M368.67,482.85a22.63,22.63,0,0,1-10.25,4.46,27,27,0,0,1-11.06-.59,26.05,26.05,0,0,1-7.4-3.26,22.59,22.59,0,0,1-5.32-4.77,20.86,20.86,0,0,1-4.83-13.19,23.27,23.27,0,0,1,1-7,23.74,23.74,0,0,1,2.59-5.71l.41-.68.47-.63c.31-.42.61-.85.94-1.26a24.14,24.14,0,0,1,2.15-2.26,23.4,23.4,0,0,1,6.68-4.42,20.6,20.6,0,0,1,7.83-1.63c1.68,0,1.41.55.09,1.16a11.84,11.84,0,0,1-1.16.45c-.44.19-.93.39-1.46.57s-1.09.41-1.69.62l-.93.31c-.3.14-.62.26-1,.38a21.42,21.42,0,0,0-13.57,23.83,18.16,18.16,0,0,0,4,8.17,22.66,22.66,0,0,0,7.36,5.7c6.16,2.95,13.75,3.41,20,.43a19.81,19.81,0,0,0,5.21-3.58,20.29,20.29,0,0,0,3.75-5.11,22.18,22.18,0,0,0,2.28-9.35,20.82,20.82,0,0,0-1.91-9.41,21.19,21.19,0,0,0-10.2-10.26c-.5-.21-1-.46-1.47-.64l-1.52-.52c-.95-.29-1.76-.47-2.44-.66s-1.23-.23-1.69-.36a5,5,0,0,1-1.88-.69,4.16,4.16,0,0,1-.58-.42c-.2-.23.12-.41.91-.54a13.61,13.61,0,0,1,1.52-.12c.61,0,1.32.09,2.11.18a23.94,23.94,0,0,1,6.87,2.28,23.38,23.38,0,0,1,12.27,18.09,24.72,24.72,0,0,1-1.42,11.23,21.78,21.78,0,0,1-6.66,9.22Z"/><path class="cls-1" d="M339.39,435c16.61-8.18,35.3,9.61,32.17,11.7-1.13.75-16.8-18.21-36.19,0-3.54,3.33-5.74,7.89-7.33,13.66C327.34,462.93,322.3,443.44,339.39,435Z"/><path class="cls-1" d="M335.94,444.22a31,31,0,0,1,8.58-5.17,22.19,22.19,0,0,1,10-1.44,23.88,23.88,0,0,1,7.14,1.75,32.69,32.69,0,0,1,5.59,3.1c.87.59,1.72,1.22,2.54,1.86l1.21.93c.2.14.4.29.56.39l.09.06h0v0a.89.89,0,0,1-.05.13,1.43,1.43,0,0,0-.08.22,1,1,0,0,0-.05.23.32.32,0,0,0,0,.14c0,.12,0,.13,0,.17l-.4-.6h0l0,0s0,0,0,0,0,0-.19-.06l-.11,0h0s0,0,0-.05a1.54,1.54,0,0,0-.12-.44,5.44,5.44,0,0,0-.63-1.14,16.73,16.73,0,0,0-1.88-2.2,30.21,30.21,0,0,0-4.67-3.73,29.42,29.42,0,0,0-9.75-4.09,23.59,23.59,0,0,0-13.16,1c-1.28.5-1.44-.11-.54-1.19a9.51,9.51,0,0,1,5.92-2.81,27.05,27.05,0,0,1,14.7,2.73,34.49,34.49,0,0,1,6.34,3.92,22,22,0,0,1,5.22,5.55,6.92,6.92,0,0,1,.57,1.19,3,3,0,0,1,.16,1.78,2,2,0,0,1-.77,1.11,1.38,1.38,0,0,1-.45.2,1.28,1.28,0,0,1-.44,0,1.69,1.69,0,0,1-.46-.11,3.16,3.16,0,0,1-.41-.2,12,12,0,0,1-1-.71c-1.18-.9-2.3-1.76-3.5-2.54a28.47,28.47,0,0,0-7.63-3.65,19.76,19.76,0,0,0-9.07-.57,23.19,23.19,0,0,0-8.54,3.48,34.64,34.64,0,0,0-4.58,3.55,19.69,19.69,0,0,0-3.65,4.38,25,25,0,0,0-1.55,2.89l-.17.37-.2.46c-.16.38-.32.76-.46,1.16-.3.76-.58,1.61-.85,2.44a7.83,7.83,0,0,1-.35.71l-.18.33a2.21,2.21,0,0,1-.14.24c-.2.3-.37.59-.5.82a1.38,1.38,0,0,1-.24.37c-.26,0-.39-.19-.51-.32a4.26,4.26,0,0,1-.57-1.06,12.31,12.31,0,0,1-.63-3.19c-.05-.62-.07-1.27-.07-1.93,0-.32,0-.7,0-1l0-.72a23.36,23.36,0,0,1,5-13.14,19.63,19.63,0,0,1,2.17-2.3,14.2,14.2,0,0,1,3.44-2.37,3.14,3.14,0,0,1,1.9-.34,3.52,3.52,0,0,1,.67.15c.55.31-.69,1.24-2.76,2.85a21,21,0,0,0-6.83,9.37,22.22,22.22,0,0,0-1.26,5.84l0,.75c0,.19,0,.07,0,.11h0s0,0,0,0h0v0c.11-.26.25-.57.39-.85a27.49,27.49,0,0,1,1.85-3.35,22.38,22.38,0,0,1,2.36-3.07,29.36,29.36,0,0,1,2.79-2.6Z"/><path class="cls-1" d="M185.19,441.54A22.42,22.42,0,0,0,162.77,464c0,12.38,11,21.42,23.42,21.42s21.42-9,21.42-21.42A22.41,22.41,0,0,0,185.19,441.54Zm1,32.18c-5.79,0-11.49-4.23-11.49-10a10.5,10.5,0,1,1,21,0C195.69,469.49,192,473.72,186.19,473.72Z"/><path class="cls-1" d="M200.92,481.89a22.78,22.78,0,0,1-10.33,4.48,27.06,27.06,0,0,1-11.12-.61,26.09,26.09,0,0,1-7.45-3.27,22.81,22.81,0,0,1-5.34-4.8,21.07,21.07,0,0,1-4.84-13.27,23.86,23.86,0,0,1,1-7,24.59,24.59,0,0,1,2.61-5.74l.41-.67.47-.64c.31-.42.61-.85.94-1.26a25.87,25.87,0,0,1,2.16-2.28,23.68,23.68,0,0,1,6.71-4.44,20.19,20.19,0,0,1,7.87-1.62c1.69,0,1.4.63.1,1.3-.33.16-.72.33-1.16.5a15.51,15.51,0,0,1-1.45.6c-.53.17-1.08.44-1.67.65l-.91.33-1,.37a21.3,21.3,0,0,0-11,9.31,21.52,21.52,0,0,0-2.53,14.32,18,18,0,0,0,4,8.12,22.53,22.53,0,0,0,7.32,5.67c6.13,2.94,13.68,3.4,19.9.45a19.64,19.64,0,0,0,5.19-3.56,20.07,20.07,0,0,0,3.73-5.08,22,22,0,0,0,2.28-9.31A20.68,20.68,0,0,0,205,455a21,21,0,0,0-10.18-10.19c-.49-.21-1-.45-1.46-.63l-1.51-.52c-.95-.28-1.76-.47-2.43-.65a16.51,16.51,0,0,1-1.68-.37,4.46,4.46,0,0,1-1.87-.76,5.11,5.11,0,0,1-.58-.47c-.2-.26.12-.47.92-.61a9.35,9.35,0,0,1,1.52-.15c.61,0,1.33.08,2.13.17a24,24,0,0,1,6.92,2.26,23.47,23.47,0,0,1,12.37,18.21,24.85,24.85,0,0,1-1.43,11.32,22,22,0,0,1-6.71,9.29Z"/><path class="cls-1" d="M190.47,456.42a8.83,8.83,0,0,0-11,0,10.29,10.29,0,0,0-2,2,10.43,10.43,0,0,0-1.31,2.55,9.78,9.78,0,0,0-.48,2.84,7.93,7.93,0,0,0,.5,2.81,8.38,8.38,0,0,0,1.31,2.23,10,10,0,0,0,1.94,1.74,15.11,15.11,0,0,0,6.28,2.21c.69.12.64.73,0,1.31a4,4,0,0,1-3.62.58,12.73,12.73,0,0,1-6.79-4.76,10.42,10.42,0,0,1-1.73-3.94,10.07,10.07,0,0,1,.1-4.24,13.53,13.53,0,0,1,2-4.61,11.36,11.36,0,0,1,14.28-3.89,11.41,11.41,0,0,1,6.49,9.14,13.32,13.32,0,0,1-.46,4.91,10.19,10.19,0,0,1-4.52,6.16,8.85,8.85,0,0,1-1.58.76,7.65,7.65,0,0,1-1.33.34,4.26,4.26,0,0,1-.93,0,1.32,1.32,0,0,1-1-.57,1.76,1.76,0,0,1-.29-.42c-.09-.25.06-.48.38-.68a4,4,0,0,1,.61-.27,6.23,6.23,0,0,1,.83-.27,8.41,8.41,0,0,0,4.41-3.16,9.84,9.84,0,0,0,1.59-5.39,9,9,0,0,0-3.6-7.38Z"/><path class="cls-1" d="M174.42,432.23c21.27-6.87,34.5,13.18,31.22,15-1.18.67-16.35-20.24-37.09-2.66-3.71,3.14-6.3,7.45-8.32,13.08C159.34,460.16,154.69,438.59,174.42,432.23Z"/><path class="cls-1" d="M169,442.29a31.13,31.13,0,0,1,9.14-4.91,22.35,22.35,0,0,1,10.43-.84,24.41,24.41,0,0,1,7.23,2.34,33.83,33.83,0,0,1,5.55,3.6c.43.34.85.69,1.27,1l.46.39.2.19.42.4c.15.11.29.32.49.32.33-.24.17-.7.06-1.05a4.8,4.8,0,0,0-.26-.57s-.18-.33-.31-.52-.27-.43-.42-.63a23.37,23.37,0,0,0-4.15-4.52,24.54,24.54,0,0,0-9.65-5,29.11,29.11,0,0,0-13.82.22c-1.41.33-1.45-.31-.38-1.24a10.88,10.88,0,0,1,6.31-2.31,26.51,26.51,0,0,1,15,3.61,27.88,27.88,0,0,1,6.11,4.86,23.54,23.54,0,0,1,2.46,3.06l.54.84.12.22.16.28c.14.25.28.5.39.74.22.48.4,1,.6,1.43a8.88,8.88,0,0,1,.27,1.3,2.78,2.78,0,0,1-.64,2.37,3,3,0,0,1-.26.23c-.08.07-.18.17-.29.17a2.28,2.28,0,0,1-.46,0,2.24,2.24,0,0,1-1-.28,24,24,0,0,1-2.82-2.27l-.95-.8-.88-.68a29.7,29.7,0,0,0-7.63-4.34,20.11,20.11,0,0,0-9.34-1.23,23.11,23.11,0,0,0-9,3.11,36.23,36.23,0,0,0-4.91,3.46,22.22,22.22,0,0,0-4,4.38c-.43.62-.84,1.26-1.22,1.91-.19.33-.39.65-.56,1l-.27.51-.35.71c-.48,1-.93,2.17-1.39,3.05l-.17.36-.15.2-.3.38c-.2.27-.31.43-.47.66a.39.39,0,0,1-.12.14c0,.06-.19,0-.26,0a1.52,1.52,0,0,1-.35-.37,4.49,4.49,0,0,1-.47-.93,10.77,10.77,0,0,1-.52-2.72c0-.52-.07-1.06-.07-1.61,0-.28,0-.55,0-.83l0-.61c.05-.8.14-1.59.26-2.37a22,22,0,0,1,6.6-13,21,21,0,0,1,2.56-2,14.59,14.59,0,0,1,3.88-1.91,3.29,3.29,0,0,1,2-.09,3.55,3.55,0,0,1,.66.24c.52.38-.91,1.14-3.28,2.48a19.9,19.9,0,0,0-8.24,8.65,21.18,21.18,0,0,0-1.83,5.88c-.08.51-.15,1-.19,1.55l-.06.78,0,.39v.08h0s0,0,0,0h0l0-.06.45-.85.65-1.14a28.44,28.44,0,0,1,3.13-4.3,27.37,27.37,0,0,1,3.93-3.56Z"/><path class="cls-1" d="M260.11,436.63c-11.37,23,32.52,11.47,30.47,7.21-1.55-3.23-22.71,0-23.66-1s.17-6-.52-5.85A35.42,35.42,0,0,1,260.11,436.63Z"/><path class="cls-1" d="M286.32,441a18.21,18.21,0,0,1,2.44.36l.32.08.5.14a7.72,7.72,0,0,1,.93.41,3.68,3.68,0,0,1,.79.54,7.87,7.87,0,0,1,.53.72,1.23,1.23,0,0,1,.12.37,1.29,1.29,0,0,1,.08.38,1.8,1.8,0,0,1-.09.77,3,3,0,0,1-.87,1.35,4.67,4.67,0,0,1-.68.57,2.7,2.7,0,0,1-.36.26l-.25.15c-.32.2-.64.37-1,.53a28,28,0,0,1-3.86,1.54c-1.48.48-3,.95-4.48,1.28a50.33,50.33,0,0,1-8.11,1.08,28.05,28.05,0,0,1-8.24-.7,12.19,12.19,0,0,1-3.52-1.49,6.91,6.91,0,0,1-2.66-3,8.52,8.52,0,0,1-.54-5,14.13,14.13,0,0,1,1.63-4.48c.49-.85,1-.43,1.19.54a10,10,0,0,1-.12,3.93,6.81,6.81,0,0,0,0,3.65,4.62,4.62,0,0,0,2.22,2.52c2.24,1.28,5.29,1.66,8.25,1.75a39.76,39.76,0,0,0,11-1.56,37.69,37.69,0,0,0,4.95-1.62,15.72,15.72,0,0,0,2.21-1.12,1.83,1.83,0,0,0,.44-.35.39.39,0,0,0,.09-.51,1.26,1.26,0,0,0-.67-.39,11.56,11.56,0,0,0-1.7-.31c-.61-.07-1.24-.12-1.86-.15-1.26-.07-2.54-.08-3.81-.06-3.87.06-7.76.34-11.66.52-.47,0-.94,0-1.43,0a2.88,2.88,0,0,1-1.82-.46,2.34,2.34,0,0,1-.46-1,8.28,8.28,0,0,1-.14-1.05c0-.56,0-1.09,0-1.61v-1.2c0-.1,0-.2,0-.3a.29.29,0,0,0-.05-.13c0-.05-.11,0-.15,0l-.25,0-.13,0h-.89c-2.52-.11-3.26-.4-3.72-1.08a2.82,2.82,0,0,1-.3-.47c-.18-.52.86-.81,2.63-.8h1.39l.68,0,.51,0c.22,0,.44,0,.68-.05a2.17,2.17,0,0,1,1.25.21,1.7,1.7,0,0,1,.7,1,5.65,5.65,0,0,1,.12,1.51v1.06c0,.56,0,1.11,0,1.61l0,.33h0l0,0h.35c.52,0,1.08,0,1.64-.05l3.41-.21a101.85,101.85,0,0,1,12.76-.23Z"/><path class="cls-1" d="M222.85,436.2c0,3.76-1.75,11.32,2.73,12.38,10.57,2.5,28.45-7.43,23-9.95-4.23-1.95-18.11,4.94-18.91,4.11-1.16-1.19,1.38-6.62.16-6.63C228.27,436.09,225,437.23,222.85,436.2Z"/><path class="cls-1" d="M244.27,437a11.63,11.63,0,0,1,3.3-.07,4.61,4.61,0,0,1,2,.7,2.7,2.7,0,0,1,1.34,2.11,3.68,3.68,0,0,1-.77,2.28,9,9,0,0,1-1.18,1.26,17.92,17.92,0,0,1-2.55,1.83,32.19,32.19,0,0,1-3.9,2,38,38,0,0,1-7.36,2.22,25.83,25.83,0,0,1-7.71.41,16.84,16.84,0,0,1-1.73-.28,4.83,4.83,0,0,1-.93-.28,3.31,3.31,0,0,1-.91-.48,5.32,5.32,0,0,1-2-3.29,25.23,25.23,0,0,1,.08-8.64c.1-.82.72-.75,1.3,0a6.18,6.18,0,0,1,.95,3.8,19.4,19.4,0,0,0,.09,3.92,5,5,0,0,0,.45,1.53,2,2,0,0,0,.79.82,6.73,6.73,0,0,0,1.62.42,15.87,15.87,0,0,0,2,.21,25.71,25.71,0,0,0,4.1-.14,30.7,30.7,0,0,0,9.74-3.07,19.79,19.79,0,0,0,4.64-3,4.94,4.94,0,0,0,.75-.87.69.69,0,0,0,.15-.6.74.74,0,0,0-.45-.43,3.75,3.75,0,0,0-1.09-.24,13.82,13.82,0,0,0-3.34.29c-1.15.22-2.29.51-3.42.84-1.72.5-3.44,1.07-5.16,1.66l-2.58.89-.66.21c-.26.09-.61.18-.91.26a4.16,4.16,0,0,1-.9.13,1.78,1.78,0,0,1-.8-.17l-.14-.13a3.59,3.59,0,0,1-.4-2.68c.09-.73.22-1.41.34-2.07.07-.41.07-.46.09-.64a1.54,1.54,0,0,0,0-.43.21.21,0,0,0-.1-.17.45.45,0,0,0-.23,0l-.41.09-.22.06-.42.09-.93.17c-2.41.35-3.46-.2-3.71-1a1.4,1.4,0,0,1-.14-.53c0-.26.27-.39.64-.45s.89-.11,1.62-.19,1.63-.29,2.6-.5a7.36,7.36,0,0,1,2.41-.22,1.57,1.57,0,0,1,.9.46,2,2,0,0,1,.48.93,6.7,6.7,0,0,1-.18,2.53l-.27,1.4-.11.66c0,.14,0,.11,0,.11h0l0,0,0,0,1.71-.58a69.6,69.6,0,0,1,11.5-3.36Z"/><path class="cls-1" d="M265,453.32l11-.12c3.65-.07,7.32-.21,11-.32l8-.33,14.15-.41h.51l.37-.33,1.32-1.18,2.61-2.37,2.59-2.4,2.12-2c.17-.18.36-.35.52-.55a.88.88,0,0,0,.12-.15c0-.07-.07-.09-.12-.11l-.36-.07-.76-.07-1.25-.07c-2.08-.09-4.17-.13-6.24-.14-5.33,0-10.68.12-16-.13-3.33-.15.88-2.49,7-2.5q4.1,0,8.19.07l4.11.11,2.06.09,2.2.13c.66.05,1.33.11,2,.19a4.18,4.18,0,0,1,1.59.45,1.69,1.69,0,0,1,.72.81,1.84,1.84,0,0,1,0,1l-.42.67-.2.33a3.33,3.33,0,0,1-.32.34c-.45.47-.88.93-1.35,1.39l-1.62,1.53c-2,1.87-4.08,3.69-6.15,5.5l-.94.82-.7.63-.2.17a2.28,2.28,0,0,1-.26,0l-.54,0-2.6.07-5,.18L292,455c-7.38.25-14.79.55-22.19.61l-13.66.12-20.65.12c-5.32.07-10.53.27-15.78.4l-3.46.1c-4.33.06-5.71-.1-6.64-.74a3.09,3.09,0,0,1-.61-.43c-.42-.49,1.34-.91,4.51-1.07,9.39-.47,19.3-.59,29.24-.69l22.2-.19Z"/><path class="cls-1" d="M209.91,444c-1.08.31.33,0,.7,0,2.33-.1,4.67-.14,7-.19.81,0,2.09-.22,2.48-1.07s-.3-1.31-1.07-1.29c-2.66,0-5.31.09-8,.21a7.66,7.66,0,0,0-1.72.17c-.62.18-1.82.74-1.6,1.58s1.58.75,2.18.57Z"/><path class="cls-1" d="M334.25,401.78l-24.87,42.39H302.7s28.4-47.09,29.72-49.12Z"/><path class="cls-1" d="M313.11,429.86l-4.86,7.79-2.42,3.89-.53.84-.14.21-.15.23c-.11.11,0,.09.09.09h3.56l.1-.15,12.18-20c1.81-3,3.57-6,5.28-9,2.21-3.87,4.33-7.81,6.8-11.52,1.54-2.31,1.76,1.9-.81,6.34-4.57,7.86-9.26,15.64-14.18,23.38-1.31,2.06-2.6,4.2-3.87,6.35l-4.14,7h-2.47l-6.36,0h-.35s0-.06,0-.08l.25-.41.5-.82,1-1.61,1.49-2.42L309,432q3-4.84,6-9.68c3-4.9,6.06-9.8,9-14.7,1.13-1.91,2.23-3.81,3.32-5.72l1.62-2.86.87-1.53,1.33-2.28,1.21-2.08.31-.54.15-.26s0,0,0,0l0,.07,0,.14.33,1.13c.4,1.43.73,2.65,1,3.67l.18.72c0,.19.09.37.12.55s.09.48.12.69a3.12,3.12,0,0,1-.17,1.81,2.66,2.66,0,0,1-.29.61c-.19.23-.48,0-.83-.56a11.39,11.39,0,0,1-.56-1.15l-.3-.77-.08-.21a.29.29,0,0,0,0-.08l-.06-.13c-.13-.24-.22-.41-.29-.51s-.06.09-.08.13l-.07.18-.12.3,0,.12v0l0,.08-.19.33-.75,1.31-1.52,2.65c-2,3.52-4.18,7.07-6.33,10.62l-9.65,15.79Z"/><path class="cls-1" d="M269.21,462.17l-13.49,0-4.92.05-17.33-.09c-2.56,0-5.14.06-7.68.13l-2.07.06-3.19-3c-1-.94-1.91-1.9-2.81-2.91-1.36-1.52,1.93-1.2,4.64,1.41l2.28,2.21,3.46,0h4.06q4.08,0,8.17.15c4,.12,8.21,0,12.33,0l13.58,0h8.36c4.22,0,8.46,0,12.64-.11,1.54,0,3.06-.09,4.58-.16l2.27-.1,1.13-.06h.42l.22,0,.1-.2,0-.09.12-.23.25-.47.52-.92c1.31-2.3,1.86-3,2.64-3.16a3,3,0,0,1,.53-.12c.51,0,.27,1.12-.6,2.85-.33.63-.65,1.27-1,1.91l-.51,1-.37.67-.51.91-4,.16-3.38.11-6.86.14-13.61.11Z"/><path class="cls-1" d="M299.42,249.88a9.27,9.27,0,0,0-3.15,2.76,74.75,74.75,0,0,0-5.52,8.34c-.58,1,1.88.71,2.29,0,1.52-2.5,3-5,4.79-7.38.66-.9,1.5-2.27,2.55-2.78,1.54-.74.12-1.49-1-1Z"/><path class="cls-1" d="M250.92,344.2c1.78,5.64-5.66,76.91-15,88.64-.41,4.19-18.62,3.85-20.39,2.31-1-13.89,21.14-79.89,17-102.95-2.25-12.38-11-66.73-6.22-84.67,8.13,2.11,30.53,18.89,40.95,19.73,1.09,21.38,11.19,76.57,11.19,89.29,0,8.9-3.64,67.61-2.53,75.82-7.14,5.53-18.81,4.14-21.44,1.83C250.52,430.28,256,350.79,250.92,344.2Z"/><path class="cls-1" d="M269.85,302.46c-1.11-7.91-2.19-15.82-3.07-23.78-.24-2-.4-4-.59-6-.11-1-.16-2-.23-3l-.07-1.09v-.11s-.07,0-.1,0l-1-.17-1.52-.44c-1-.26-2-.68-2.94-1-1.9-.76-3.74-1.62-5.55-2.53-7.2-3.65-14-7.94-20.88-11.8-1.73-.95-3.47-1.89-5.22-2.67l-1.08-.47-.31-.1c-.06,0-.06.19-.09.28l-.2,1a22.92,22.92,0,0,0-.39,2.88c-.09,1-.23,1.94-.27,2.92,0,2-.22,3.93-.18,5.91,0,11.55,1.13,23.14,2.42,34.66,1.16,10.16,2.61,20.31,4.25,30.41l.64,3.78c.12.62.21,1.27.3,1.94s.19,1.32.22,2a60.21,60.21,0,0,1,0,7.83,151.35,151.35,0,0,1-1.83,15.39c-3.42,20.32-8.91,40.13-13.34,60.12-.68,3.15-1.34,6.31-1.85,9.48-.24,1.58-.47,3.17-.57,4.74l-.07,1.15v.72c0,.14.11.16.18.2a1.57,1.57,0,0,0,.28.1l.14,0a1.18,1.18,0,0,0,.27.06l.56.11a44,44,0,0,0,9.47.25,29.31,29.31,0,0,0,4.64-.68,10,10,0,0,0,2.08-.74,3.65,3.65,0,0,0,.78-.52,1.1,1.1,0,0,0,.29-.52l.06-.28.13-.18a27.38,27.38,0,0,0,3.3-6.86c.84-2.45,1.55-4.95,2.21-7.46a316.24,316.24,0,0,0,6.17-34.17q1.16-8.62,2-17.28c.58-5.76,1.12-11.54,1.35-17.29,0-1.78.09-3.06.08-3.84,0-.41,0-.65,0-.82s.06-.26.13-.25.38.38.57,1.22a22.63,22.63,0,0,1,.5,3.58c.47,6.17.15,17.52-1.53,30.83-1.15,9.1-2.52,18.17-4.3,27.19-.89,4.52-1.89,9-3.12,13.49-.63,2.23-1.3,4.46-2.14,6.67a25,25,0,0,1-3.34,6.54l.35-.85a3.46,3.46,0,0,1-1.21,2.2,5.89,5.89,0,0,1-1.56,1,14.12,14.12,0,0,1-2.94.91,37.2,37.2,0,0,1-5.68.66,53.08,53.08,0,0,1-5.64-.05c-.94-.06-1.88-.15-2.86-.3-.24,0-.48-.07-.73-.13a9.72,9.72,0,0,1-.95-.22,6.37,6.37,0,0,1-.61-.23,2,2,0,0,1-.56-.28l-.51-.35-.13-.09a.59.59,0,0,1,0-.14l0-.29-.09-1.15,0-.57,0-.29v-.18L214,432c.1-.94.19-1.88.33-2.8q.39-2.78.92-5.47c.7-3.62,1.5-7.2,2.32-10.76,3.32-14.26,7-28.41,10-42.73,1.46-7,2.77-14,3.61-21.21a90.13,90.13,0,0,0,.63-10.75l0-1.35-.09-1.33c0-.89-.17-1.76-.29-2.63-.26-1.76-.63-3.6-.91-5.4-2.4-14.5-4.41-29.13-5.7-43.73a219.25,219.25,0,0,1-1-24.2c.09-2,.11-4.05.38-6.09.13-1,.15-2,.37-3.05l.8-4,.06-.29c0-.08.06,0,.11,0l.14,0,.58.19,1.16.39a10.09,10.09,0,0,1,1.11.4l.71.31c1,.39,1.87.86,2.79,1.32,1.81.93,3.57,1.92,5.33,2.91,7,4,13.8,8.28,21,11.66a43.75,43.75,0,0,0,5.48,2.14l1.39.4,1.78.3.59.1.29.05.14,0c.05,0,0,.09,0,.13l.08,1.18.12,1.77c.26,4,.71,8,1.16,12,2.34,19.62,5.54,39.16,8.14,58.78.47,3.72.95,7.44,1.27,11.2.18,1.87.28,3.78.28,5.68s-.11,3.77-.18,5.65l-1.08,22.47c-.37,7.48-.73,15-1,22.42s-.6,14.93-.45,22.3c0,.74.09,1.26.17,2.46v.19s0,.07,0,.1l-.08,0-.32.23-.64.44a9.94,9.94,0,0,1-1,.63,17.24,17.24,0,0,1-2,1,17.51,17.51,0,0,1-2.09.78,25.8,25.8,0,0,1-8.77,1.07,22.88,22.88,0,0,1-4.4-.63,11.31,11.31,0,0,1-2.16-.75l-.54-.26-.55-.39a2.33,2.33,0,0,1-.81-1.22,21,21,0,0,1-.75-4.41c-.13-1.44-.21-2.88-.28-4.31-.43-11.46-.21-22.83-.16-34.26,0-5,0-10,0-15,0-18.79-.43-24.69-.55-28.7a10.74,10.74,0,0,0-.43-2.63c-.17-.46,0-.46.5.18a10.77,10.77,0,0,1,1.25,3.55,97.8,97.8,0,0,1,1.4,15.71c.29,10.25.22,20.61.17,31.07,0,5.22,0,10.48-.06,15.75s0,10.57.31,15.81c.07,1.31.17,2.62.32,3.88.08.63.16,1.27.28,1.84a5.45,5.45,0,0,0,.21.76.87.87,0,0,0,.06.16l0,0a3.63,3.63,0,0,0,.51.29,4,4,0,0,0,.75.31,5.36,5.36,0,0,0,.83.26,8.7,8.7,0,0,0,.88.22,21.49,21.49,0,0,0,3.7.42,23.1,23.1,0,0,0,7.42-.93c.59-.21,1.19-.37,1.74-.63l.85-.37.79-.43a5.93,5.93,0,0,0,.78-.46l.32-.22h0l0-.21,0-.54c-.13-2.8-.09-5.49-.06-8.2s.12-5.41.21-8.12q.27-8.1.64-16.21.57-12,1.14-24.1l.56-12c.07-2,.17-4,.15-6-.05-1-.05-1.92-.13-2.91l-.26-3c-.82-7.94-2-15.92-3.11-23.89s-2.31-15.94-3.47-23.91Z"/><path class="cls-1" d="M241.54,193l10.25-22.89c1.25-2.79,2.47-5.59,3.78-8.35,1.16-2.43,2.33-4.86,3.58-7.26a72.11,72.11,0,0,1,4.06-7.11l.62-.86.32-.43c.1-.14.11-.19.18-.29a5.93,5.93,0,0,0,.31-.73l.24-.89a36.35,36.35,0,0,0,.6-3.87c.14-1.31.24-2.64.34-4l.32-4.74c0-.66.14-1.23.21-1.84l.12-.89c0-.3.08-.69.2-.71,1,1.12,2,2.28,3.07,3.35.6.6.86.88,1.22,1.21s.69.67,1.05,1a50.72,50.72,0,0,0,4.44,3.61,42.65,42.65,0,0,0,16.13,7.24c1.79.38,1.52,1-.18,1.3a15.16,15.16,0,0,1-8.28-1.18,46.12,46.12,0,0,1-9.76-5.75c-1.49-1.15-2.92-2.38-4.29-3.66l-1-1-.48-.49,0,0-.11-.16s-.05.1-.08.21l-.28,3.72c-.11,1.29-.24,2.59-.42,3.9a24.89,24.89,0,0,1-.79,4,7.77,7.77,0,0,1-.26.77l-.16.39c-.07.14-.17.29-.25.44l-.27.41-.2.27-.39.53c-.53.71-1,1.51-1.49,2.3-.95,1.61-1.84,3.29-2.69,5-1.71,3.41-3.32,6.91-4.92,10.38-3.51,7.63-6.91,15.34-10.33,23l-6.33,14.2c-3.21,7.16-6.53,14.32-9.9,21.36-2.63,5.47-5.15,10.86-8.12,16.12-.64,1.16-1.28,2.29-2,3.43a27.21,27.21,0,0,1-3.16,4.29,4.59,4.59,0,0,1-2,1.41,3.76,3.76,0,0,1-.78.22c-.34,0-.24-.44.2-1.21s1.18-1.92,2.15-3.39a158.68,158.68,0,0,0,7.85-14.21c2.48-4.95,4.9-10,7.28-15.16,3.53-7.62,7-15.32,10.38-23Z"/><path class="cls-1" d="M249.27,260.09c-3.54-2-7-4-10.54-5.93-1.29-.69-2.61-1.31-3.9-2a59.69,59.69,0,0,0-7-3.09,18,18,0,0,0-7.21-1.29l-1,.15c-.33.06-.63.21-1,.3a3.4,3.4,0,0,0-.72.35,1.71,1.71,0,0,0-.42.3l-.21.2-.1.1a.21.21,0,0,0,0,.13.76.76,0,0,0,.4.39,1.22,1.22,0,0,0,.48.15,2.61,2.61,0,0,0,.62,0,6.74,6.74,0,0,0,1-.09,9.23,9.23,0,0,0,1-.19c1.33-.31,2.68-.73,4-1.19.85-.26,1,.34.52,1.2a5.64,5.64,0,0,1-3.45,2.45,14.71,14.71,0,0,1-2,.36,7.4,7.4,0,0,1-2.68-.14,4.09,4.09,0,0,1-2.58-1.7,2.43,2.43,0,0,1-.4-1.36c.13-.4.32-.77.48-1.16a9.84,9.84,0,0,1,2-1.54l.48-.27a1.76,1.76,0,0,1,.37-.17l.76-.25a6.47,6.47,0,0,1,1.53-.34l.77-.1h.75a17.05,17.05,0,0,1,5.64,1,76.07,76.07,0,0,1,10.39,4.38c3.64,1.88,7.17,3.91,10.71,5.89,2.18,1.22,4.36,2.44,6.57,3.58a69.72,69.72,0,0,0,10.27,4.53,22.55,22.55,0,0,0,8.24,1.22L274,266l.22,0,.11,0,.18-.05.31-.05c.07,0,.05-.05.06-.08v-.11a1.16,1.16,0,0,1,0-.18l0-.09a1.49,1.49,0,0,0,0-.19,1.77,1.77,0,0,1,.64-1.12,2.26,2.26,0,0,1,.44-.34c.24-.11.47.07.65.5a7,7,0,0,1,.4,2.57l0,.86v.11l-.1,0-.19,0-.38.08-1.61.34-.41.09-.27,0-.53.06-1.08.09c-.71,0-1.43,0-2.14-.07s-1.43-.15-2.12-.29a39.7,39.7,0,0,1-8.06-2.51c-3.83-1.61-7.48-3.53-11.08-5.48Z"/><path class="cls-1" d="M238.64,275.42c5.61,12.23,10,59.54,13.23,73"/><path class="cls-1" d="M245.88,320.08c-.45-3.75-.89-7.51-1.39-11.25l-.6-4.08c-.63-4.82-1.29-9.62-2.1-14.4-.42-2.1-.82-4.23-1.39-6.27-.35-1.32-.72-2.63-1.15-3.92l-.58-1.94c-.22-.62-.42-1.25-.6-1.9s.37-1,1.19-.53a5.36,5.36,0,0,1,2.37,3.13,96.52,96.52,0,0,1,3.29,16.75c.39,3.38,1.05,6.85,1.53,10.28.52,3.78,1,7.56,1.47,11.35.29,2.32.59,4.65.88,7,.46,3.52.88,7.06,1.43,10.54.43,2.7,1,5.33,1.58,8,.12.58.27,1.14.39,1.72.44,2.16.46,2.86-.07,3.48a2.93,2.93,0,0,1-.36.41c-.44.32-1-.48-1.52-2.07a113.37,113.37,0,0,1-2.9-14.87c-.55-3.77-1-7.57-1.53-11.35Z"/><path class="cls-1" d="M356.38,452.7,306.43,275.89c-4.05,0-1.73-5.84-1.73-5.84-2.11,2.21-6.49-6.11-6.49-6.11l-1.81,3.74c0,.73,52.42,185.45,52.42,185.45Z"/><path class="cls-1" d="M306.48,309.2l-6.28-22.62-3.13-11.32-1.57-5.77-.42-1.75c0-.08-.09-.21,0-.3l.13-.3.28-.57.4-.81c.77-1.57,1.55-3.21,2.31-4.69.59,1.1,1.2,2.28,1.8,3.32.28.5.64,1.07.9,1.46l.53.77a13.62,13.62,0,0,0,1.12,1.43c.2.22.4.41.59.6s.2.17.29.23l.14.1.07,0,0,0h0l-.26.14a7.8,7.8,0,0,0,1.3.72c.21.1.13-.14.31.13a2.48,2.48,0,0,0,.29.31l.2.19.29.24c-.11.31-.18.6-.26.9a5.64,5.64,0,0,0-.16.72,6.2,6.2,0,0,0-.07.83,1.88,1.88,0,0,0,.25,1.11c0,.07.11.1.17.15s.09,0,.14.05l.07,0h0l.12,0,.21,0,.61.09.3,0,.15,0,.08,0,0,.07.33,1.2.83,2.93,1.54,5.43,3.06,10.87q10.64,38.34,21.28,76.68c3.15,11.34,6.39,22.73,9.61,33.95,4.13,14.43,8.39,28.89,12.22,43.39,2.39,9-3.07-1.74-7.79-18.38-8.38-29.48-16.6-59-24.68-88.8-4.83-17.84-10.16-36.32-15.25-54.52l-2.42-8.67-.53-1.9c0-.45-.12.1-1.4-.75a3.11,3.11,0,0,1-1-1.37,6.21,6.21,0,0,1-.2-.74c0-.23-.06-.47-.06-.7a9.19,9.19,0,0,1,.07-1.3l.05-.31,0-.11,0-.2c0-.2.27-.55-.05-.31a.51.51,0,0,1-.4-.07l-.17-.08h0l0,0-.06,0-.14-.09a2.33,2.33,0,0,1-.26-.17c-.17-.12-.31-.25-.46-.37s-.54-.51-.78-.78a18,18,0,0,1-1.3-1.64l-.58-.85-.22-.35c-.13-.22-.26-.44-.38-.66,0-.06,0,0,0,0l0,.09-.09.17-.17.36-.51,1,1,3.58,2.23,8.07,4.48,16.12q5.16,18.48,10.33,37c5.25,18.65,10.53,37.38,15.74,55.89,4.1,14.37,8.26,28.42,12.4,42.61.91,3.12,1.8,6.18,2.73,9.33.83,2.95,1.52,5.39,2.09,7.43.28,1,.53,1.95.75,2.79.05.21.11.42.16.62s.11.43.11.46.06.31.09.45c.25.05,1.81,0,2.63.1a17.77,17.77,0,0,1,2.3.26c.6.12,1.4.22,1.75.34s0,.38-1.27.61c-.63.11-1.46.23-2.48.35s-1.83.23-4.41.42c-.52-1.71-1.13-3.67-1.79-5.84-7.63-25.29-15.29-52.08-22.92-79-5.62-20-11.28-40.09-16.92-60.13Z"/><path class="cls-1" d="M304.17,98.13a2.47,2.47,0,0,1-1.28,1.6,2.51,2.51,0,0,1-1.69,0,4.79,4.79,0,0,1-.6-.3,2.09,2.09,0,0,1-.4-.3,10.25,10.25,0,0,1-1.78-2.47,12.21,12.21,0,0,0-.68-1.08,3.1,3.1,0,0,1-.72-1.5c0-.19.46-.33.94-.38s1,0,1.11.19c.47.86.93,1.74,1.33,2.68a3.56,3.56,0,0,0,1.11,1.27c.19.15.32.25.55.21a.44.44,0,0,0,.23-.18,1.48,1.48,0,0,0,.08-.13.83.83,0,0,0,.06-.19,3.39,3.39,0,0,0,.1-.57,9.87,9.87,0,0,0,0-2c-.06-.51-.22-1-.32-1.57,0-.12,0-.24-.06-.37,0-.49.17-.69.67-.68a1.94,1.94,0,0,1,.34,0,1,1,0,0,1,.75.49,9.35,9.35,0,0,1,.5,2.72,8,8,0,0,1-.2,2.54Z"/><path class="cls-1" d="M294.71,101.8a3.16,3.16,0,0,1-1.34,1.27,3.26,3.26,0,0,1-1.74.31,2.59,2.59,0,0,1-.63-.1,1.77,1.77,0,0,1-.57-.21,6.53,6.53,0,0,1-2.38-2.65c-.25-.43-.51-.83-.76-1.24a3.72,3.72,0,0,1-.77-1.66c0-.39,1.81-.65,2.09-.1.48,1,1,1.91,1.48,3a2.45,2.45,0,0,0,1.31,1.11,1.46,1.46,0,0,0,.75.09,1.29,1.29,0,0,0,.69-.34,1.91,1.91,0,0,0,.52-1,6.82,6.82,0,0,0,.1-2.13c-.07-.57-.26-1.13-.38-1.72,0-.14-.07-.26-.09-.4-.05-.52.1-.73.6-.79a2.09,2.09,0,0,1,.34,0,.83.83,0,0,1,.81.49,10.06,10.06,0,0,1,.6,3.19,6.22,6.22,0,0,1-.58,3Z"/><path class="cls-1" d="M282.2,93.27c0,.24-.33.24-.89.13a1.61,1.61,0,0,1-.68-.37,2.71,2.71,0,0,1-.18-.55,5,5,0,0,1,.18-.82,7,7,0,0,1,.38-1,4.33,4.33,0,0,1,.75-1.14,12,12,0,0,1,2.15-2,2.12,2.12,0,0,1,.63-.28,5.4,5.4,0,0,0,.57-.18l.59-.16a8.27,8.27,0,0,1,1.19-.31.81.81,0,0,0,.4-.14,3.43,3.43,0,0,1,1.41,0,4.15,4.15,0,0,1,1.36.44l.84.64q.36.36.69.72c.06.07.16.1.16.23A.72.72,0,0,0,292,89a3.45,3.45,0,0,1,.45.63,1.12,1.12,0,0,1,0,.46c0,.15-.31.35-.36.36s-.23.18-.33.29l-.12.11a8.57,8.57,0,0,1-1.49-.38l-.75-.39a4.89,4.89,0,0,0-.84-.22c-.08,0-.14-.06-.2-.12a2.67,2.67,0,0,0-1.06.13c-.21,0-.37.12-.64,0a.16.16,0,0,0-.14,0c-.34.18-.75.32-1.14.55a2.58,2.58,0,0,0-.55.45.39.39,0,0,1-.13.06.41.41,0,0,0-.15.07,6.64,6.64,0,0,0-1.15,1.37c-.07.12-.65.54-.75.68S282.19,93.16,282.2,93.27Z"/><path class="cls-1" d="M299.31,89.61c.13.12-.17,0-.75,0a3.89,3.89,0,0,1-.79-.25,1.38,1.38,0,0,1-.32-.32,1.22,1.22,0,0,1,0-.49,3.29,3.29,0,0,1,.13-.68,1.49,1.49,0,0,1,.49-.74,4.06,4.06,0,0,1,1.58-.88.65.65,0,0,1,.39,0,5.53,5.53,0,0,0,1.24.12.23.23,0,0,0,.21-.06c.07-.07.37,0,.67,0a1.61,1.61,0,0,1,.61.29,9.08,9.08,0,0,1,.64.86c0,.05.08.05,0,.16s0,.27.07.35a.83.83,0,0,1,.16.37.87.87,0,0,1-.11.32,1.43,1.43,0,0,1-.39.33,1.62,1.62,0,0,0-.34.28l-.12.11s-.26.06-.45.1a3.53,3.53,0,0,1-.39.1,1.3,1.3,0,0,0-.57-.07s0,0-.05-.09a1.18,1.18,0,0,0-.38.1c-.06,0-.11,0-.17-.16,0,0,0,0,0,0s-.2,0-.3,0-.08,0-.13,0l0,0s0,0-.05,0-.23.06-.22.23c0,0-.29,0-.29.08S299.26,89.56,299.31,89.61Z"/><path class="cls-1" d="M297.18,120.92c1.05-.32,1.36-.32,1.5-.21s.53.26.71.43a6.24,6.24,0,0,0,.58.37,3.23,3.23,0,0,0,1,.54,2.59,2.59,0,0,0,1,0,3.13,3.13,0,0,0,.94-.35,2.15,2.15,0,0,0,.46-.33,1.25,1.25,0,0,0,.22-.45s0-.08,0-.07a3.48,3.48,0,0,1,1.11.58c.08.06.22.17.21.19-.08.18.47.83.24,1.05-.37.38-.66.84-1.08,1.21a2.22,2.22,0,0,1-.58.28,8,8,0,0,1-.83.07,8.58,8.58,0,0,1-1.35.1,5.08,5.08,0,0,1-2.23-.6,4.37,4.37,0,0,1-1.61-1.41,5.78,5.78,0,0,1-.41-.9A2,2,0,0,1,297.18,120.92Z"/><path class="cls-1" d="M154.57,433.35c-3.7.17-4.94,4.16-5,7.27,0,1.12,2.16.8,2.2-.17.06-1.63.4-5.42,2.66-5.53,1.22-.05,1.68-1.64.19-1.57Z"/><path class="cls-1" d="M152,427.9c-4.77,1.1-8.4,5.93-8.56,10.75,0,1,2.15.56,2.18-.24.13-3.87,2.71-8.37,6.7-9.3,1.34-.3,1-1.52-.32-1.21Z"/><path class="cls-1" d="M336,40.23c1.75.49,3.78,1.27,4.57,3.06a5.71,5.71,0,0,1-.19,4.16c-.27.77,1.91.5,2.18-.26a6,6,0,0,0,0-4.94c-1.05-1.88-3.23-2.7-5.19-3.24-.73-.21-2.55.88-1.32,1.22Z"/><path class="cls-1" d="M336.62,34.3c5.86-1.53,10.34,3.94,9.77,9.46,0,.31,2.1.09,2.17-.58a9.39,9.39,0,0,0-3.33-8.29c-2.54-2-5.77-2.09-8.8-1.3-1.26.33-1.09,1,.19.71Z"/></g></svg>