<svg id="Layer_1" data-name="Layer 1" xmlns="http://www.w3.org/2000/svg" width="520" height="520" viewBox="0 0 520 520"><defs><style>.cls-1{fill:#221f1f;}.cls-2{fill:#232020;}.cls-3{fill:#060606;}</style></defs><title>Notioly v2</title><g id="_101.Thinking" data-name="101.Thinking"><path class="cls-1" d="M321.29,174.8a30.4,30.4,0,0,1-5.55,7.92c-.89.94.8,1,1.38,1a6.41,6.41,0,0,0,3.88-1.39,32.83,32.83,0,0,0,6-8.53c.47-1-2-.65-2.33-.6-1,.17-2.89.58-3.39,1.61Z"/><path class="cls-1" d="M267.8,248.83a62.11,62.11,0,0,0-5,5.87l-.57.77-.25.36s0,0-.11.2c-.27.57-.55,1.15-.81,1.73-.52,1.17-1,2.36-1.41,3.56a48.84,48.84,0,0,0-2.76,15.06c0,3.75.22,7.69.31,11.55.36,13.66.79,27.34,1.4,41,.28,6.06.66,12.15,1.13,18.15.6,7.71,1.4,15.44,1.89,23.11.16,2.39-.76,2.2-1.86.27a26.27,26.27,0,0,1-2.72-10.09c-1.34-15.82-2-31.61-2.35-47.57-.18-9.54-.77-19.44-1-29.21-.06-2.69-.18-5.34-.09-8.13a52.83,52.83,0,0,1,1-8.22,52.05,52.05,0,0,1,2.25-7.94c.47-1.3,1-2.56,1.59-3.82l.44-.93a4,4,0,0,1,.34-.6l.3-.44q.6-.84,1.23-1.65a60.81,60.81,0,0,1,6.77-7.49,35.56,35.56,0,0,1,8.32-5.94,25.15,25.15,0,0,0,5.94-4,29.33,29.33,0,0,0,2.54-2.57c.39-.46.77-.93,1.12-1.4s.67-1,1-1.51c1.39-2.09,2.68-4.19,4.13-6.27s2.87-4.1,4.34-6.11l1.78-2.38.23-.3.31-.39.64-.81c.43-.56.88-1,1.32-1.56a14.32,14.32,0,0,1,1.31-1.36,10.69,10.69,0,0,1,1.24-1,3.87,3.87,0,0,1,2.39-.89,1,1,0,0,1,.63.4,2.45,2.45,0,0,1,.27.57,5,5,0,0,1,.18,1.18,10,10,0,0,1-.44,3.17,27.21,27.21,0,0,1-1.5,3.94L302,220c-.67,1.54-1.32,3-2,4.58-2.54,5.72-3.4,7.42-4.71,8.36a7.36,7.36,0,0,1-.86.66c-.42.22-.63-.38-.49-1.59a23.64,23.64,0,0,1,1.48-5.14c1.23-3.21,2.6-6.41,4-9.6l.42-1,0-.15a.9.9,0,0,0,0-.21.17.17,0,0,0,0-.12s-.05-.07-.13,0a1.15,1.15,0,0,0-.2.29l0,0v0s0,0,0,0l-.18.23-1.5,2c-2.08,2.85-4.17,5.79-6.09,8.75l-2.18,3.37-.54.85c-.18.27-.36.55-.61.91-.45.62-.9,1.19-1.38,1.74a31.13,31.13,0,0,1-6.51,5.76c-.61.4-1.25.78-1.89,1.14l-1.82.94-.81.42-.78.49c-.53.31-1,.67-1.55,1a42.48,42.48,0,0,0-5.71,5.06Z"/><path class="cls-1" d="M291.89,322.57c-.77-4.29-1.44-8.59-2-12.89-.2-1.57-.52-3.13-.71-4.7-.65-5.55-1.1-11.11-1.49-16.68-.18-2.46-.41-4.94-.65-7.39a52.59,52.59,0,0,1-.43-9.47c.17-2,3.58.43,3.78,4,.37,6.34.77,12.68,1,19.12.15,3.86.85,7.81,1.37,11.71.58,4.29,1.22,8.58,2,12.84.46,2.63,1,5.25,1.52,7.85.87,3.92,1.85,7.92,2.68,11.88.67,3.08,1.44,6.08,2.05,9.14.14.68.29,1.33.4,2,.41,2.54.25,3.38-.6,4a3.84,3.84,0,0,1-.59.43c-.68.32-1.38-.64-1.82-2.45-1.31-5.35-2.38-11-3.7-16.6-.5-2.11-1-4.23-1.51-6.34s-.94-4.31-1.36-6.47Z"/><path class="cls-1" d="M368.73,243.33c-19.3,16.41-39.86,11.44-68.38,17.6,0,0,15.2-9.79,21.25-24.34,2.68-6.45,3.55-15.93,1.93-16.56-2.55-1-6.59,10.5-8.53,13.91-2.68,4.72-6.13,9.25-10.81,12.1-.7.42,12.26-25.9,6.54-34.77,0-.82,3.52-5.4,3.52-5.4,35-5.77,25-27.48,22.23-29.77-4.13-3.49-9.31-2.78-13.72-1,6.6-10.83,4.22-24.27,3.43-26.6-4.94-14.52-24.06-9.85-35.05-7.61-18,3.66-29,7.27-49.57-.15-2.69,4-6.83,9.95-9,14.47-7,2.58-8.64,15.87-7.54,20.4-8.28,30.18,1,63.08,39.12,72.5.12,0-.26,3.58-9.75,1.85-32-10.32-82.77-21.59-76.27-61.14,3.08-18.71,9.81-29.3,20.28-45,3.23-4.85,22.43-29,40-37.78,37.15-18.47,70.3.56,70.3.56,14.18-4.24,30.47-5.25,42.1,5.48C361.87,122.32,409.57,208.58,368.73,243.33Z"/><path class="cls-1" d="M181.74,208.06a34.76,34.76,0,0,0,6.59,9.95,53.43,53.43,0,0,0,9.29,7.84,111.75,111.75,0,0,0,22.1,11.09c7.74,3,15.71,5.53,23.7,8l6,1.87,3,.94,1.5.48.75.24a1,1,0,0,0,.18,0l.37.05a23.19,23.19,0,0,0,3,.34,4.8,4.8,0,0,0,1.36,0,.77.77,0,0,0,.51-.26s.07-.1,0-.13l-.14,0-.28-.08a2.46,2.46,0,0,1-.29-.09L258.3,248l-1.55-.51-1.53-.59-1.53-.59-1.5-.67-1.5-.67c-.49-.23-1-.5-1.46-.74a54.41,54.41,0,0,1-10.91-7.33,49.47,49.47,0,0,1-14.42-21.72,60.48,60.48,0,0,1-2.82-13.87,73,73,0,0,1,.27-14.1c.29-2.33.65-4.65,1.14-7,.25-1.14.49-2.29.8-3.42.12-.52.36-1.33.31-1.27v0l0-.22a4.17,4.17,0,0,1-.08-.49l-.09-.94a29.08,29.08,0,0,1,.52-7.24,25.63,25.63,0,0,1,2.31-6.92,14.38,14.38,0,0,1,2.95-3.93,11.52,11.52,0,0,1,1-.79,5.45,5.45,0,0,1,1.13-.65l.14-.06.06,0c.05,0,.06-.06.09-.1l.17-.35.27-.51c1.43-2.69,3-5.21,4.68-7.7l2.49-3.7,1.8-2.67c.58.12,1.21.39,1.81.57l1.26.43a77,77,0,0,0,8.4,2.35,61.05,61.05,0,0,0,8.6,1.16,59.92,59.92,0,0,0,8.68-.19,164.75,164.75,0,0,0,17.36-3c5.81-1.15,11.59-2.56,17.63-3.1a37.93,37.93,0,0,1,9.15.17,17.72,17.72,0,0,1,8.66,3.6,14.19,14.19,0,0,1,3.14,3.64,15.11,15.11,0,0,1,1.85,4.41,40.07,40.07,0,0,1,.81,9.11,38.41,38.41,0,0,1-1.21,9c-.22.74-.39,1.48-.66,2.2l-.39,1.09c-.12.33-.28.8-.34.9-.16.35-.34.77-.49,1.07l-.23.4-.11.2-.06.1,0,.05,0,0a8.3,8.3,0,0,1,1.31-.41l.45-.1c.29-.06.58-.09.87-.13a15.07,15.07,0,0,1,1.78-.14,11.68,11.68,0,0,1,6.87,2,7.71,7.71,0,0,1,1.47,1.25,11,11,0,0,1,1,1.54,18.78,18.78,0,0,1,1.38,3.24,18.42,18.42,0,0,1,.81,6.93,15.57,15.57,0,0,1-2.13,6.69,18.68,18.68,0,0,1-4.63,5.18,35.31,35.31,0,0,1-12.26,5.79c-1.15.35-2.32.6-3.49.87-.58.15-1.17.26-1.76.36l-1.61.3-.2,0-.13.16-.44.59-1,1.42c-.34.47-.66,1-1,1.42l-.22.36-.11.2c-.05.11-.17.26-.09.38s.1.17.15.27.18.39.26.59a10.13,10.13,0,0,1,.43,1.28,14.42,14.42,0,0,1,.41,2.58,25.91,25.91,0,0,1-.17,5.07,60.53,60.53,0,0,1-2.15,9.7c-.47,1.57-1,3.13-1.53,4.68l-.83,2.31-.8,2.11-.88,2.18-.21.54a2.31,2.31,0,0,0-.1.28c0,.08,0,0,.08,0l.13-.08a10.42,10.42,0,0,0,.95-.69,12.65,12.65,0,0,0,1.46-1.37l.57-.64.65-.78c.42-.53.83-1.08,1.23-1.63.79-1.1,1.53-2.25,2.22-3.43.35-.6.67-1.15,1-1.76s.58-1.23.87-1.86c1.14-2.52,2.22-5.08,3.59-7.58a19.36,19.36,0,0,1,1.16-1.89,5.41,5.41,0,0,1,2.14-2,2,2,0,0,1,1.29-.12,1.66,1.66,0,0,1,1,.81,6,6,0,0,1,.64,2.86,33.89,33.89,0,0,1-.71,7.11,38.26,38.26,0,0,1-1.95,6.81,47.32,47.32,0,0,1-7.32,12,62.85,62.85,0,0,1-4.74,5.18c-.83.83-1.68,1.62-2.55,2.41l-.66.58-.49.42-.54.45c-.37.3-.73.59-1.11.86l-.56.4-.07,0h.07l.17,0,.35-.07,1.37-.27,1.85-.31c9.16-1.53,18.41-2,27.49-3.18a89.33,89.33,0,0,0,13.38-2.58,52.78,52.78,0,0,0,12.39-5.34c1.18-.76,2.22-1.38,3.07-1.94s1.49-1.09,2-1.45c1.08-.73,1.61-1,1.63-.84s-.46.72-1.41,1.66c-.48.47-1.07,1-1.77,1.69l-2.61,2a31.06,31.06,0,0,1-3.41,2.21,43.34,43.34,0,0,1-4.27,2.21,23.86,23.86,0,0,1-2.46,1c-.85.31-1.72.7-2.64,1l-2.85.86c-1,.31-2,.5-3,.76-8.28,2-18.11,2.64-28.54,3.92-1.94.28-3.9.49-5.83.82l-1.46.23-1.4.23c-.49.08-1,.16-1.49.26L299.37,263l-5.85,1.12-.37.07c-.1,0,0,0,0,0l.11-.09.47-.35,1-.79,2.31-1.76,5.14-3.86c.86-.64,1.68-1.27,2.42-1.91l1.34-1.16c5.74-5.14,10.86-11.17,13.83-18.13a37.65,37.65,0,0,0,2.61-11c0-.47.07-.93.08-1.39v-.81s0,0,0,0h0l-.09.13a24.77,24.77,0,0,0-1.38,2.4c-.88,1.7-1.68,3.49-2.49,5.3-.41.91-.82,1.82-1.26,2.75-.23.47-.47.95-.75,1.44l-.78,1.32a40.89,40.89,0,0,1-3.58,5.08c-.34.43-.63.76-1.06,1.24-.66.68-1.35,1.41-2,2a27,27,0,0,1-3.9,3l-.68.36a1.42,1.42,0,0,1-.32.14l-.21,0-.43,0c-.12-.05-.15-.18-.23-.26l-.11-.13-.05-.07h0l.21-.3h-.1l-.24-.07-.26-.07a.84.84,0,0,1-.21-.21,1.25,1.25,0,0,1-.14-1,6,6,0,0,1,.22-.89l.43-1.1,1.81-4.49,1-2.58.82-2.26q.79-2.26,1.49-4.56a57.08,57.08,0,0,0,2.08-9.23,23.19,23.19,0,0,0,.16-4.54,11.66,11.66,0,0,0-.33-2.1,8.81,8.81,0,0,0-.31-.95l-.09-.23a.37.37,0,0,1-.05-.11l-.09-.16c-.17-.33-.4-.68-.59-1a5.27,5.27,0,0,1,.53-1.85l.24-.42.16-.25.3-.48c.41-.62.82-1.21,1.24-1.79l.63-.86.84-1.12c.3-.72,1.09-.61,1.75-.79l1-.19a54.75,54.75,0,0,0,7.88-2,32.63,32.63,0,0,0,7.23-3.35,17.63,17.63,0,0,0,5.48-5.28,13,13,0,0,0,2.07-7.09,16,16,0,0,0-1.8-7.34,7.38,7.38,0,0,0-.93-1.43,5.81,5.81,0,0,0-.58-.48,8.73,8.73,0,0,0-.74-.5,8.48,8.48,0,0,0-3.36-1.17,12,12,0,0,0-3.72.12l-.72.14c-.31.07-.63.17-1,.27l-1,.3c-.32.1-.68.26-1,.38L319.47,178c.81-1.57,1.95-3.44,2.68-5l1.15-2.32.14-.29c0-.08.05-.12.08-.18l.12-.34.25-.69c.36-.9.58-1.85.86-2.79s.46-1.9.59-2.88a39.82,39.82,0,0,0,.12-11.79c-.09-.67-.21-1.34-.35-2-.08-.33-.15-.6-.24-.89l-.35-.91a13.23,13.23,0,0,0-1.95-3.31,12.71,12.71,0,0,0-6.46-4.08,26.26,26.26,0,0,0-8.1-.91,59.84,59.84,0,0,0-8.39.87c-2.81.46-5.61,1.05-8.45,1.63L282.68,144a97.2,97.2,0,0,1-17.45,2.35,60.06,60.06,0,0,1-17.6-2.33c-1.42-.41-2.85-.8-4.24-1.29l-1.27-.43c-.1,0-.14.16-.22.23l-.44.65c-1.63,2.41-3.24,4.82-4.76,7.27-.75,1.22-1.48,2.46-2.16,3.71l-.49.94-.34.68-.2.41c-.13.08-.28.14-.41.21l-1.11.53-.75.55a10.16,10.16,0,0,0-2.44,3,19.3,19.3,0,0,0-1.59,3.76,28.62,28.62,0,0,0-1.25,8.21l0,1,.09,1c0,.17.06.32.08.47l.07.38a2.32,2.32,0,0,1,.06.44L226,177c-.38,1.37-.68,2.77-1,4.16a70.12,70.12,0,0,0-1.2,20.88,52.64,52.64,0,0,0,5.89,19.9,46.08,46.08,0,0,0,13.62,15.56,54.78,54.78,0,0,0,9,5.28l2.39,1.07,2.45,1c.81.33,1.66.56,2.49.84.3.1,1.1.38,1.79.57l2.09.57,1.54,1.07.19.13c0,.07.07.2,0,.29a1.91,1.91,0,0,1-.16.59,2.92,2.92,0,0,1-.67,1,4.94,4.94,0,0,1-2.22,1.26,10.49,10.49,0,0,1-3.11.44,25.21,25.21,0,0,1-4.38-.41c-.2,0-.32,0-.61-.1l-.57-.18-1-.32-2-.64c-5.36-1.68-10.74-3.31-16.11-5s-10.7-3.56-16-5.61A132.73,132.73,0,0,1,203,232.18c-6.93-3.78-13.6-8.44-18.64-14.74a35.25,35.25,0,0,1-5.86-10.51,34.83,34.83,0,0,1-1.86-11.88c0-1,0-2,.14-3l.37-3c.32-2,.68-3.9,1.12-5.83a81.89,81.89,0,0,1,3.39-11.39,110.85,110.85,0,0,1,11.05-20.92c1.55-2.42,3.15-4.81,4.74-7.19s3.44-4.67,5.26-6.91q5.49-6.67,11.56-12.84a132.11,132.11,0,0,1,12.89-11.55,78.22,78.22,0,0,1,7.14-5c1.24-.75,2.55-1.42,3.82-2.12s2.61-1.25,3.94-1.81a76.2,76.2,0,0,1,33.85-6.22A82.63,82.63,0,0,1,293,99.88a80.87,80.87,0,0,1,8.23,2.57c1.35.5,2.69,1,4,1.62.66.29,1.32.59,2,.9s1.42.71,1.65.84l2.12-.59c.81-.22,1.63-.41,2.45-.61a61.3,61.3,0,0,1,13.76-1.74,39,39,0,0,1,13.69,2.23,30.76,30.76,0,0,1,11.69,7.53,54.78,54.78,0,0,1,4.21,5.49q1.94,2.82,3.7,5.75a197.65,197.65,0,0,1,12.41,24.24,185,185,0,0,1,9,25.73,123.4,123.4,0,0,1,4.1,23.67,74.39,74.39,0,0,1-1,19.05A50,50,0,0,1,380.93,229a38.31,38.31,0,0,1-4.57,7.28c-.72.91-1.43,1.65-2.07,2.35s-1.3,1.26-1.93,1.78-1.22,1-1.83,1.49-1.2.86-1.57,1.08c-.62.38-.54.12.17-.68.35-.41.9-.92,1.5-1.64l1-1.17,1.17-1.43a45.84,45.84,0,0,0,5.4-8.53,52.78,52.78,0,0,0,2.47-6.11,58.23,58.23,0,0,0,1.83-7.31,73.75,73.75,0,0,0,.83-18.62,118.93,118.93,0,0,0-3-18.72,188.19,188.19,0,0,0-13-36.24,193.9,193.9,0,0,0-9.17-17.19c-1.69-2.78-3.45-5.52-5.36-8.1a32.66,32.66,0,0,0-3-3.57,31.25,31.25,0,0,0-3.65-2.88,32.5,32.5,0,0,0-17.84-5.28,54.5,54.5,0,0,0-9.61.72c-1.6.24-3.19.58-4.78.94-.79.2-1.59.38-2.37.6l-3.11.87c-.4-.22-.81-.46-1.22-.67l-.6-.31-1.22-.59c-.82-.38-1.65-.75-2.49-1.1-1.68-.69-3.4-1.34-5.14-1.92a84,84,0,0,0-10.67-2.77,78.08,78.08,0,0,0-22.06-1,81.66,81.66,0,0,0-9.2,1.51,76.89,76.89,0,0,0-8.92,2.68c-1.48.5-2.89,1.16-4.34,1.73l-2.12,1c-.7.32-1.41.65-2.07,1l-2,1.11c-.67.36-1.31.82-2,1.22s-1.32.82-2,1.27l-1.9,1.37a118.7,118.7,0,0,0-14.16,12.41,186,186,0,0,0-12.63,14.14c-1,1.23-2,2.47-2.89,3.72s-1.76,2.56-2.65,3.89c-1.76,2.65-3.52,5.3-5.18,8s-3.27,5.41-4.73,8.18a85.12,85.12,0,0,0-3.91,8.53,74.58,74.58,0,0,0-2.87,8.91,80.81,80.81,0,0,0-1.85,9.19l-.29,2.28c-.06.76-.06,1.52-.09,2.29l-.05,1.14c0,.38,0,.76.06,1.14,0,.75.07,1.51.14,2.27a32.92,32.92,0,0,0,2.27,8.74Z"/><path class="cls-1" d="M304.74,269a8,8,0,0,1-1.72-2.11,8.33,8.33,0,0,1-.92-2.35.67.67,0,0,1,1-.72,32.25,32.25,0,0,1,2.75,2.1c.27.22,2.32,2.35,4.5,4.86s4.53,5.37,5.71,6.83c2.28,2.84,4.38,5.82,6.39,8.86s4,6.24,5.85,9.47a90.16,90.16,0,0,1,5,10.07c.64,1.49,1.23,3,1.79,4.52,1.94,5.22,4.14,10.35,6.35,15.49a26.56,26.56,0,0,0,1.18,2.53c.38.64,2,4.48,3.55,8.43s3,8,3.25,9c1.4,4.71,2.72,9.46,3.81,14.27a11.15,11.15,0,0,1,.42,2.05,23.42,23.42,0,0,0,.73,4.47c.41,2.07.78,4.15,1,6.24.11,1,.08,2.09.09,3.12s-.59.51-.7.2c-.31-.91-.43-.12-.63,0s-.15.09-.22.05-.23-.76-.52-1.88c-.13-.56-.3-1.21-.47-1.91l-.62-2.21-.62-2.26c-.23-.73-.44-1.42-.63-2-.38-1.25-.65-2.19-.73-2.5,0-.08-.34-1.18-.8-2.81s-1.16-3.79-1.84-6c-1.47-4.38-3.16-8.91-3.54-9.82s-.67-2-1-2.94c-.09-.24-1.41-3.58-2.83-6.91s-2.88-6.65-3-6.91c-1.08-2.68-2.34-5.3-3.19-8.07a15.93,15.93,0,0,0-.65-1.61c-1-2.29-2-4.59-2.93-6.9s-1.86-4.66-2.82-6.84-2.24-4.45-3.5-6.62c-.22-.39-.4-.81-.61-1.22s-.52-1-.82-1.5a162.91,162.91,0,0,0-9.95-14.9c-.82-1.1-4.51-6.56-5.59-7.72C306.78,272.14,305.33,269.57,304.74,269Z"/><path class="cls-1" d="M262.24,249.87c-.27.75-4.37,9.74-5.45,13.43a69,69,0,0,0-2.47,15.32c-19.5-3.33-25.8-9.53-28.3-16.65,9.19-6,17.54-11.09,27.27-12A58.06,58.06,0,0,1,262.24,249.87Z"/><path class="cls-2" d="M261.16,247.37a.58.58,0,0,0-.19,0,3.46,3.46,0,0,1-1,.12c-1.54,0-3.09,0-4.63.07-.77,0-1.54.09-2.31.17s-1.57.16-2.35.3a42.16,42.16,0,0,0-9,2.57,69.56,69.56,0,0,0-8.25,4.09c-1.31.76-2.61,1.54-3.88,2.34l-1.91,1.2-.94.61L225,260l-1.76,1.18.77,2,.39,1a3.06,3.06,0,0,0,.22.49l.2.43a10.69,10.69,0,0,0,.58,1.11,19.49,19.49,0,0,0,3,4,27.21,27.21,0,0,0,7.91,5.57,52.67,52.67,0,0,0,8.74,3.18l2.22.58,2.23.5.55.13.28.06.45.09,1.88.35,3.76.71.22-3.36.12-1.67.09-.92c.11-1.12.24-2.23.4-3.34a57.64,57.64,0,0,1,1.3-6.56c.14-.53.29-1.07.44-1.59s.32-1,.51-1.52c.37-1,.8-2.1,1.22-3.15.87-2.11,1.78-4.22,2.7-6.33a2.75,2.75,0,0,1,.5-.77.54.54,0,0,0,.1-.16,1.06,1.06,0,0,0-.31-1.08,3.08,3.08,0,0,0-1.46-1,5.54,5.54,0,0,0-1.72-.34c-.48,0-.85.16-1,.47a.47.47,0,0,0,0,.17,3.19,3.19,0,0,1-.25.93l-1.6,3.72c-.77,1.83-1.54,3.67-2.26,5.59-.18.47-.35,1-.52,1.47s-.32,1-.45,1.52c-.28,1-.53,2-.75,3-.44,2-.78,4-1,6-.13,1-.24,2-.34,3l0,.48-.61-.11-.3-.06-.9-.2-2.12-.48-2.09-.55a48.22,48.22,0,0,1-8-2.89,22.83,22.83,0,0,1-6.59-4.62,14.78,14.78,0,0,1-2.3-3.12,8,8,0,0,1-.45-.87c0-.11,0-.07-.06-.12s0-.05,0-.07l.07,0,3-1.93q1.86-1.16,3.75-2.25a64.07,64.07,0,0,1,7.7-3.82,37.31,37.31,0,0,1,8.06-2.29c.69-.12,1.38-.17,2.06-.26s1.43-.12,2.14-.16c1.42-.07,2.85-.09,4.28-.05a2.35,2.35,0,0,1,.86.17.34.34,0,0,0,.18,0c.62,0,1.2-1,1.29-2.37S261.84,247.4,261.16,247.37Z"/><path class="cls-1" d="M143.73,370.36a13.74,13.74,0,0,1-5,5.07c-.6.36-1.19-.23-.82-.92.73-1.36,1.47-2.71,2.27-4.05.22-.42,2.49-3.7,4.91-7.51,1.22-1.89,2.46-3.93,3.59-5.74l2.74-4.55c2.5-4.27,5.06-8.49,7.62-12.74,5.21-8.64,10.31-17.38,15.72-26,1.19-1.92,2.47-3.79,3.75-5.64l3.34-4.75,3.45-4.72c2.35-3.11,4.75-6.17,7.24-9.16.84-1,1.72-2,2.45-3a125.35,125.35,0,0,1,8.59-9.37c4.18-4.15,8.69-8.08,9.78-8.92a133.62,133.62,0,0,1,16.87-11.58,17.3,17.3,0,0,1,2.56-1.38,21.56,21.56,0,0,0,2.89-1.22c.94-.46,1.86-1,2.85-1.36,1.36-.57,2.69-1.18,4.07-1.68l4.21-1.31a43.23,43.23,0,0,1,4.3-.62c1.28-.16.68.51.26.67-1.22.46-.15.45,0,.64s.12.14.07.21a4.66,4.66,0,0,1-.7.25l-1.81.57-1.2.37-1.32.54-2.88,1.18c-1,.44-1.93,1-2.85,1.42s-1.83.87-2.58,1.36c-1.52.9-2.68,1.58-3.07,1.78-.05,0-.42.22-1,.57l-2.39,1.5c-2,1.19-4.51,3-7.08,4.86l-3.72,2.9c-1.21.95-2.3,1.93-3.31,2.77-2,1.67-3.44,3.08-3.95,3.53-1,1-2.16,1.84-3.21,2.8l-2.41,2.36c-1.37,1.32-3,3.16-4.75,4.94s-3.32,3.68-4.56,5.13l-2.21,2.63c-2.6,3-4.94,6.17-7.54,9.13a19.48,19.48,0,0,0-1.41,1.9c-3.87,5.56-7.65,11.31-11.33,17.08-1.88,3-3.66,6-5.48,9-.32.54-.69,1.06-1,1.59s-.89,1.33-1.29,2c-4.24,7.16-8.66,14.24-13,21.4-.49.83-2.07,3.12-3.66,5.44s-3.27,4.64-3.89,5.57c-.33.52-1.2,1.54-2,2.55A26.07,26.07,0,0,0,143.73,370.36Z"/><path class="cls-1" d="M303.79,357.13c-.53-.1-.66-.63-.63-1.47,0-.27.37-.88.56-.88a4.69,4.69,0,0,1,1.06.07,19.12,19.12,0,0,1,3.77,2.29,12.87,12.87,0,0,1,2.23,2.13,36.27,36.27,0,0,1,3.58,5.07,6.69,6.69,0,0,1,.58,1.24c.53,1.48,1.16,2.89,1.77,4.33a2.07,2.07,0,0,0,.36.69A9.79,9.79,0,0,1,318,373a15.15,15.15,0,0,1,.58,2.61,38.67,38.67,0,0,1,0,4.17,1.06,1.06,0,0,1-.08.58,2.24,2.24,0,0,0-.29,1.26c0,.29,0,.59-.09.88s-.14.57-.22.86a3.32,3.32,0,0,1-.46.79c-.15.23-.57,0-.6-.08-.11-.27-.34-.1-.53-.11a.58.58,0,0,1-.19,0,9.45,9.45,0,0,1-.28-1.61,17.68,17.68,0,0,1-.36-1.78s0-.3-.08-.72-.09-1-.23-1.56-.23-1.15-.35-1.61l-.28-.94a3.27,3.27,0,0,1-.09-.78c0-.06-.32-.92-.63-1.77s-.73-1.68-.74-1.75a9.05,9.05,0,0,1-.68-2.08,1.11,1.11,0,0,0-.14-.41c-.31-.55-.58-1.12-.84-1.69l-.86-1.69a18.57,18.57,0,0,0-1.07-1.6,3.09,3.09,0,0,1-.14-.32,1.62,1.62,0,0,0-.21-.39,20.15,20.15,0,0,0-3-3.38,8.63,8.63,0,0,1-.77-.9,6.18,6.18,0,0,0-.87-.84C304.32,358,304,357.15,303.79,357.13Z"/><path class="cls-1" d="M310.67,360.83c-.3.1-.44-.25-.51-.89a1.55,1.55,0,0,1,.2-.85,3.65,3.65,0,0,1,.59-.3,19.61,19.61,0,0,1,2.33.2,6.17,6.17,0,0,1,1.58.43,23.71,23.71,0,0,1,3.07,1.44,3,3,0,0,1,.61.46c.64.63,1.34,1.16,2,1.75a1,1,0,0,0,.38.27,3.78,3.78,0,0,1,1.09,1.1,5.09,5.09,0,0,1,.8,1.47,8.52,8.52,0,0,1,.26,2.59c0,.12,0,.25-.07.36-.25.25-.19.49-.23.74a3.27,3.27,0,0,1-.28,1,1.43,1.43,0,0,1-.38.4c-.13.12-.47-.05-.5-.11s-.28-.09-.43-.11l-.15,0a5.34,5.34,0,0,1-.26-.85c-.11-.41-.28-.78-.29-.85a1,1,0,0,0,0-.33,3,3,0,0,0-.2-.66,3.82,3.82,0,0,0-.54-1,.87.87,0,0,1-.12-.33,3.81,3.81,0,0,0-.57-.63c-.31-.29-.66-.54-.68-.57-.23-.25-.56-.4-.71-.79,0-.08-.09-.11-.16-.15-.53-.34-1-.74-1.58-1.1a6.87,6.87,0,0,0-.9-.45c-.06,0-.09-.09-.15-.12a.85.85,0,0,0-.19-.14,11.77,11.77,0,0,0-2.28-.86,12,12,0,0,0-1.19-.58C311.08,361.28,310.8,360.79,310.67,360.83Z"/><path class="cls-1" d="M235.79,378.18q3.68-.49,7.27-1.25a67,67,0,0,0,7-1.95,47.33,47.33,0,0,0,6.65-2.88c.54-.27,1.05-.58,1.57-.89l.77-.46c.26-.15.56-.33.63-.39.79-.65,1.73-1.58,2.59-2.43,1.28-1.28,2.52-2.62,3.74-4l1.8-2,.86-1c.29-.37.66-.78,1-1.12.54-.56,1.09-1.1,1.68-1.62.22-.2.78-.67,1.27-1a8.06,8.06,0,0,1,1.54-.89,3.37,3.37,0,0,1,2.95-.1,2.64,2.64,0,0,1,1.06,1.06,3.84,3.84,0,0,1,.44,1.39,12.92,12.92,0,0,1-.2,2.8l-.06.34,0,.22-.09.45c-.07.3-.13.6-.21.9-.16.6-.35,1.19-.56,1.78l-.3.78-.13.26a3.86,3.86,0,0,1-.76,1l-.12.12a.07.07,0,0,0,.07.1l.29,0,.59-.09.77-.13.62-.12,1-.21c1.33-.28,2.65-.58,4-.91s2.61-.69,3.87-1.1c.63-.21,1.25-.43,1.85-.67a15.63,15.63,0,0,0,1.69-.84,17.27,17.27,0,0,0,3.21-2.41c.5-.47,1-1,1.43-1.47.23-.26.44-.53.66-.79l.34-.43.49-.65c.31-.47.63-.91.94-1.4l.46-.75a3.64,3.64,0,0,1,.45-.68,19,19,0,0,1,1.54-1.67,4.11,4.11,0,0,1,.3-.29,3.38,3.38,0,0,1,.41-.24,2.05,2.05,0,0,1,1-.24.81.81,0,0,1,.54.21,1.31,1.31,0,0,1,.29.36l.45.89c.12.37.21.8.31,1.21a13.39,13.39,0,0,1,.06,3.31,7.66,7.66,0,0,1-.13.91c-.07.32-.1.62-.2.94a14.56,14.56,0,0,1-.62,1.9,16.51,16.51,0,0,1-1.27,2.52c-.24.4-.51.8-.75,1.15l-.08.12s0,0,0,0h0l-.09,0-.54-.27-.27-.13.9.45h0l0,.05-.06.1-.11.18a4.14,4.14,0,0,1-.46.69,13.31,13.31,0,0,1-2,2.07c-.7.61-1.43,1.14-2.16,1.66a38.24,38.24,0,0,1-4.59,2.76,3.68,3.68,0,0,1-1.25.43c-.34,0-.54-.05-.58-.22a3.44,3.44,0,0,1,.86-1.83,28.75,28.75,0,0,1,2.67-3.07c.57-.58,1.19-1.19,1.83-1.81s1.31-1.27,1.87-1.89a2.58,2.58,0,0,0,.32-.38l.15-.19.08-.14,0-.06,0,0h0l0-.1.13-.22.09-.14.12-.16.36-.54a14.09,14.09,0,0,0,1.17-2.1c.23-.52.13-.31.15-.35h0v0s0-.1,0-.06h0l-.14.17c-.48.59-1,1.16-1.52,1.72a22.38,22.38,0,0,1-3.53,3,18.53,18.53,0,0,1-4.21,2.19c-1.43.52-2.83.92-4.23,1.29s-2.81.68-4.22,1l-2.1.42-3.31.62-1.75.31a4,4,0,0,1-1.85-.29l-.54-.27a.61.61,0,0,1-.27-.34.66.66,0,0,1,0-.21,2.44,2.44,0,0,0,.09-.47l0-.33a1.47,1.47,0,0,1,.08-.41l.17-.55.09-.27a.51.51,0,0,1,.16-.31l1.12-1.43.71-1.32c.15-.31.15-.35.21-.49l.13-.36a14.32,14.32,0,0,0,.46-1.49c.07-.25.11-.51.17-.77l.13-.68a5.52,5.52,0,0,0,.07-.55.67.67,0,0,0-.09-.5.37.37,0,0,0-.46-.11,2.05,2.05,0,0,0-.46.25l-.2.15-.34.3a23.43,23.43,0,0,0-2.09,2.14c-.68.83-1.43,1.68-2.15,2.47-1.73,1.89-3.48,3.74-5.31,5.55-.46.46-.93.91-1.42,1.36-.24.22-.5.45-.78.68a5.65,5.65,0,0,1-.51.39l-.42.25-1.69,1c-.57.33-1.16.61-1.74.92a46.64,46.64,0,0,1-7.21,3,62.37,62.37,0,0,1-7.5,2,153.49,153.49,0,0,1-18.72,2.36c-2.36.2-4.71.35-7,.63s-4.65.62-7,1c-4.64.78-9.25,1.71-13.78,2.82q-2.94.72-5.78,1.61a31,31,0,0,0-5.39,2.1c.05,0,.06,0,0,0h0l0,0-.06,0-.13.07a74.49,74.49,0,0,0-8.22,4.29c-1.34.8-2.6,1.66-3.92,2.52-4.82,3.26-6.33,4.33-7.92,4.37a4.82,4.82,0,0,1-1.05,0c-.89-.17.57-2.25,4.05-5a72.36,72.36,0,0,1,15.73-9.43l0,0h0l.1,0a22.45,22.45,0,0,1,2.71-1.21c.9-.32,1.81-.64,2.7-.91,1.8-.57,3.6-1.05,5.41-1.52,3.62-.92,7.27-1.71,10.94-2.42a139.84,139.84,0,0,1,15.3-2.22c5.07-.41,10.09-.8,15-1.5Z"/><path class="cls-1" d="M295.38,375c1-.73,2.05-1.45,3-2.26.35-.28.59-.67.93-1l.87-.82a8.63,8.63,0,0,0,.75-.84,5.85,5.85,0,0,0,1.05-2,3.52,3.52,0,0,0,0-1.93,6.06,6.06,0,0,0-1.47-2.34c-.22-.23-.23-.14,0-.07a7,7,0,0,1,1.49.32,4.42,4.42,0,0,1,2.4,3,5.51,5.51,0,0,1-.46,3.77c-.34.65-.66,1.3-1.05,1.93a11.89,11.89,0,0,1-1.2,1.68,17.22,17.22,0,0,1-3.38,2.85c-.75.5-1.53.92-2.29,1.35-1.17.63-2.39,1.15-3.55,1.7a23.35,23.35,0,0,1-2.7,1.23l-.62.19c-.8.21-1.11.18-1.27.24l-.11,0a3.78,3.78,0,0,0,.62-.63l1.91-2.11c.65-.69,1.32-1.33,2-1.93,1-.9,2-1.67,3-2.47Z"/><path class="cls-1" d="M296.61,380.48l1.14-.69a4.73,4.73,0,0,0,.44-.29l.52-.44c.26-.22.43-.51.69-.73a12.34,12.34,0,0,0,2.5-2.61,3.64,3.64,0,0,0,.5-1.4,3.38,3.38,0,0,0-.34-2c-.1-.23-.13-.15.05-.06a4,4,0,0,1,1.17.48,3.67,3.67,0,0,1,1.18,2.81,4.73,4.73,0,0,1-.83,2.64c-.61.86-1,1.84-1.69,2.64a11.52,11.52,0,0,1-1.21,1.21,8.42,8.42,0,0,1-1.52,1c-.6.33-1.21.6-1.81.88-.9.41-1.83.75-2.71,1.16a15.53,15.53,0,0,1-2,.92l-.48.13a9.71,9.71,0,0,1-1,.12l-.08,0a4,4,0,0,0,.41-.55L292.8,384a14.17,14.17,0,0,1,1.42-1.64,19.29,19.29,0,0,1,2.34-1.9Z"/><path class="cls-1" d="M301.78,383.17a2.58,2.58,0,0,0,0-1.07,2.22,2.22,0,0,0-.94-1.09.57.57,0,0,1,.26-1,3.94,3.94,0,0,1,1.91.26,2.43,2.43,0,0,1,1.35,1.52,3.47,3.47,0,0,1,.09.89,4.84,4.84,0,0,1-.1.85,8.23,8.23,0,0,1-.3.95,10.62,10.62,0,0,1-.84,1.69l-1.15,1.7a27.08,27.08,0,0,1-5.32,5.42,36,36,0,0,1-7.94,4.56,145.62,145.62,0,0,1-17.16,5.55c-1.25.36-2.53.67-3.77,1a112.41,112.41,0,0,0-12.75,4.19,14,14,0,0,0-2.06.87c-1.06.55-12.43,5-13.94,5.55l-11.21,3.85a9,9,0,0,1-1.61.5,17.3,17.3,0,0,0-3.5,1c-1.6.56-3.22,1.08-4.84,1.55a23.4,23.4,0,0,1-2.47.48c-.75.13-.5-.42-.27-.55.67-.38,0-.38-.1-.53s-.1-.12-.08-.18a15.09,15.09,0,0,1,1.43-.69L219.6,419c2.34-1.06,4.78-2.19,5.28-2.38l2.21-.88,4.73-1.95,7.86-3.31c.77-.34,1.59-.59,2.39-.86.36-.15,10.87-4.51,11.33-4.63a56.47,56.47,0,0,1,6.73-2.24,11.71,11.71,0,0,0,1.35-.43c3.82-1.37,7.83-2.45,11.72-3.44,2-.53,4-1.12,5.9-1.72.36-.11.72-.17,1.08-.27s.89-.23,1.33-.37c2.28-.77,4.52-1.58,6.68-2.54a30.84,30.84,0,0,0,6.1-3.44c.21-.16.64-.46,1.17-.81s1.11-.87,1.72-1.34a15.12,15.12,0,0,0,2.57-2.65c.18-.28.74-.79,1.21-1.32a6.1,6.1,0,0,0,.59-.77A1.36,1.36,0,0,0,301.78,383.17Z"/><path class="cls-1" d="M164.37,386.36c-.3.26-.64-.05-1.07-.7a1.85,1.85,0,0,1-.22-1,3.84,3.84,0,0,1,.53-.64,21.68,21.68,0,0,1,2.85-1,8.13,8.13,0,0,1,2.08-.27,30.66,30.66,0,0,1,4.28.13,5.19,5.19,0,0,1,.94.24c.52.17,1.05.34,1.57.49s1.07.24,1.6.4a1.13,1.13,0,0,0,.55.07,9.6,9.6,0,0,1,3.45,1.34l1.15.95c.36.33.71.68,1,1,.1.1.24.15.27.33.06.39.31.53.51.75a6.32,6.32,0,0,1,.77.94,1.84,1.84,0,0,1,.19.64c0,.2-.35.45-.43.45s-.27.22-.39.36a.89.89,0,0,1-.13.14,6.07,6.07,0,0,1-1.13-.37l-1.16-.47-1.33-.77c-.7-.31-1.44-.62-1.59-.68a1.44,1.44,0,0,1-.43-.28l-1.18-.37-1.22-.26c-.44-.19-.93-.17-1.34-.53a.55.55,0,0,0-.28-.09L173,387c-.41-.08-.81-.2-1.24-.25a11,11,0,0,0-1.29-.08,1,1,0,0,1-.23-.07,1.59,1.59,0,0,0-.3-.06,14.55,14.55,0,0,0-3.09.14,15.11,15.11,0,0,0-1.66-.05C165.07,386.64,164.49,386.25,164.37,386.36Z"/><path class="cls-1" d="M308.34,271.93c-6.8,2.27-11.9,1.78-19.57,3.52,0-1.39-.5-2.79-.42-4.18a21.43,21.43,0,0,1,.12-2.27c.18-1-.06-.77.81-1.25,1.3-.72,2.93-1,4.28-1.69a48,48,0,0,0,5.74-3.42C303,264.92,305.33,268.82,308.34,271.93Z"/><path class="cls-2" d="M309.71,269.83a.14.14,0,0,0-.08-.05.79.79,0,0,1-.42-.23c-1.25-1.38-2.46-2.95-3.84-4.51-.69-.78-1.43-1.55-2.24-2.3-.21-.18-.41-.37-.63-.54l-.36-.3c-.16-.14-.37-.28-.56-.42-.76-.54-1.55-1.07-2.33-1.58l-1.91,1.35-.79.52-.48.3c-.64.39-1.31.77-2,1.14l-1.05.57-.52.28-.39.18c-.55.25-1.27.46-2.1.75a11.2,11.2,0,0,0-1.48.61,4.23,4.23,0,0,0-1.79,1.3,4.92,4.92,0,0,0-.56,2.15c0,.39-.05.58-.06.83l0,.64v.54l0,.35v.41c0,.27,0,.52.05.77l0,.35.06.43a18.57,18.57,0,0,1,.28,2.33l.13,2.51,4.31-.9,1-.2.56-.09,1.13-.18c1.51-.23,3-.42,4.61-.6a54.94,54.94,0,0,0,9.64-1.81,1.05,1.05,0,0,1,.5,0h.11c.34-.11.27-1.23-.16-2.5s-1-2.24-1.31-2.15a.13.13,0,0,0-.07.06.86.86,0,0,1-.39.28c-.61.17-1.22.35-1.84.49a68.22,68.22,0,0,1-8,1.27c-1.4.17-2.82.35-4.25.57l-1.5.26-.17,0s-.06,0-.07,0a.68.68,0,0,0,0-.19l0-.41a3.49,3.49,0,0,1,0-.44v-.44l0-.66v-.56l0-.37s0-.06,0-.09l.07,0,.75-.29c.68-.24,1.51-.47,2.43-.87.23-.1.47-.22.7-.34l.54-.28,1.07-.59c.72-.39,1.46-.8,2.18-1.25a6.45,6.45,0,0,0,.84-.53.47.47,0,0,1,.09.06l.25.2c.17.14.33.29.49.44a22.23,22.23,0,0,1,1.91,2c1.25,1.41,2.47,3,3.88,4.55a1,1,0,0,1,.22.45.15.15,0,0,0,0,.1c.25.27,1.24-.28,2.2-1.22S309.92,270,309.71,269.83Z"/><path class="cls-1" d="M246.81,293.29c.13-.46.68-.44,1.38-.11a1.86,1.86,0,0,1,.69.79,5.69,5.69,0,0,1-.08.78c0,.08-.29.51-.55,1a10.65,10.65,0,0,0-.63,1.41c-.21.59-.46,1.15-.72,1.71a14.21,14.21,0,0,0-1,3.62,4.67,4.67,0,0,1-.2.82,5.52,5.52,0,0,0-.11,2.82.66.66,0,0,0,.18.43,13.4,13.4,0,0,1,.53,1.35c.24.59.54,1.13.59,1.25a4.23,4.23,0,0,0,1.17,1.81c.07.08.19.1.22.25.07.37.32.44.55.53s.64.27,1,.44a2.29,2.29,0,0,1,.49.42c.15.15,0,.58,0,.62s-.08.34-.07.53a.58.58,0,0,1,0,.19,3.89,3.89,0,0,1-1.44.23A4.77,4.77,0,0,1,247,314a4.1,4.1,0,0,1-.66-.32,7.5,7.5,0,0,1-1.31-.88,9.7,9.7,0,0,1-1.76-1.93,1.94,1.94,0,0,1-.28-.7,14.39,14.39,0,0,1-.75-1.62,9.94,9.94,0,0,1-.51-1.69,3.91,3.91,0,0,1,0-2,.86.86,0,0,0,0-.39,11.45,11.45,0,0,1,.43-3.26c.13-.54.23-1.09.38-1.62a1.43,1.43,0,0,1,.15-.27c.05-.12.12-.23.16-.35a25.52,25.52,0,0,1,1.62-3.58,20.18,20.18,0,0,1,1.4-1.59C246,293.62,246.76,293.47,246.81,293.29Z"/><path class="cls-1" d="M248,326c.19-.45.72-.41,1.4,0a1.72,1.72,0,0,1,.61.84,5.74,5.74,0,0,1-.15.82c0,.08-.38.5-.73,1s-.66,1.09-.82,1.39c-.22.63-.63,1.12-.89,1.69l-.43.86a7.48,7.48,0,0,0-.33.9,12.72,12.72,0,0,0-.47,1.84c-.07.27-.09.54-.19.82a5.75,5.75,0,0,0-.2.71q0,.36,0,.72A4.61,4.61,0,0,0,246,339c0,.15,0,.32.18.43a1.73,1.73,0,0,1,.27.48,4.83,4.83,0,0,0,.38.86,12.78,12.78,0,0,0,.73,1.27,4.93,4.93,0,0,0,1.42,1.86c.08.09.19.13.24.27.11.35.38.4.62.52a10.82,10.82,0,0,0,1,.44,2.32,2.32,0,0,1,.52.45c.16.15,0,.58,0,.61s-.08.34-.07.53a.55.55,0,0,1,0,.19,5.46,5.46,0,0,1-1.49.23,6.87,6.87,0,0,1-1.76-.21,9.68,9.68,0,0,1-2-1.12,11.2,11.2,0,0,1-1.27-1.11l-.65-.74a1.69,1.69,0,0,1-.37-.7c0-.06-.54-.81-.89-1.63l-.47-1.16a3.08,3.08,0,0,1-.17-.59,4.09,4.09,0,0,1-.09-2.11.94.94,0,0,0,0-.41,6.56,6.56,0,0,1,.09-1.77,8.2,8.2,0,0,1,.38-1.7c.08-.29.14-.58.2-.87l.28-.84a2.54,2.54,0,0,1,.16-.28,1.78,1.78,0,0,0,.19-.36,16.06,16.06,0,0,1,.92-1.86c.36-.59.77-1.14,1.1-1.76.16-.29,1.42-1.19,1.61-1.49S248,326.14,248,326Z"/><path class="cls-1" d="M251.77,171.75c-1.22,2.43-5.45,4.43-6.81,1.53-1.73-3.69,2.5-6.3,5.29-6.11C252.09,167.3,253.31,168.67,251.77,171.75Z"/><path class="cls-1" d="M248.33,170.82c.12.23-.27.17-1,0a3.59,3.59,0,0,1-.94-.45,2.66,2.66,0,0,1-.32-.51,7,7,0,0,1,.34-1.66,2.71,2.71,0,0,1,.62-1A8.87,8.87,0,0,1,249,165.5a1.8,1.8,0,0,1,.56-.21c.72-.09,1.35-.3,2.06-.45a.54.54,0,0,0,.35-.13,2.3,2.3,0,0,1,1.25-.11,3.47,3.47,0,0,1,1.23.41,6.63,6.63,0,0,1,1.3,1.37c.05.07.14.1.11.24-.08.33.07.4.17.53a1.86,1.86,0,0,1,.29.6,1.12,1.12,0,0,1-.09.45c0,.14-.43.37-.49.38s-.29.19-.43.31l-.15.11a2.79,2.79,0,0,1-.68-.05c-.29-.06-.58,0-.61,0l-.15-.09a2.23,2.23,0,0,0-.34-.12,1.14,1.14,0,0,0-.51-.05s-.07,0-.1-.11-.61.19-.62.21-.21.14-.41-.09c-.05-.05-.07,0-.1,0a5.23,5.23,0,0,1-.8.29,2.11,2.11,0,0,0-.37.3s-.07,0-.11,0-.09,0-.12,0c-.27.29-.65.52-.79.94,0,.08-.55.33-.58.45S248.29,170.73,248.33,170.82Z"/><path class="cls-1" d="M285.76,180.57c-.88,2.56-4.81,5.1-6.54,2.41C275.56,177.29,288.58,172.36,285.76,180.57Z"/><path class="cls-1" d="M282.16,180.1c.14.22-.25.2-1,.11a3.5,3.5,0,0,1-1-.31,2.25,2.25,0,0,1-.37-.49,6.13,6.13,0,0,1,.2-1.77,2.67,2.67,0,0,1,.58-1.12,7.67,7.67,0,0,1,1.93-1.83,1.39,1.39,0,0,1,.56-.23c.73-.12,1.36-.36,2.06-.52a.51.51,0,0,0,.34-.16,2.32,2.32,0,0,1,1.2-.17,3.4,3.4,0,0,1,1.23.29,7.52,7.52,0,0,1,1.44,1.2c.06.06.15.08.14.22,0,.34.12.39.25.51a1.87,1.87,0,0,1,.37.57,1,1,0,0,1,0,.46c0,.15-.38.42-.43.44s-.26.23-.39.36a.92.92,0,0,1-.14.14,3.43,3.43,0,0,1-.68,0c-.3,0-.6,0-.63,0a1.8,1.8,0,0,0-.54-.17,2.05,2.05,0,0,0-.59,0c-.05,0-.09,0-.13-.09s-.72.21-.73.24-.23.15-.46-.06c-.05,0-.07,0-.1,0a.91.91,0,0,1-.39.17c-.13.06-.28.11-.42.16s-.24.22-.37.31-.07,0-.1,0-.09,0-.11,0c-.26.3-.62.55-.72,1,0,.08-.51.36-.52.49S282.11,180,282.16,180.1Z"/><path class="cls-1" d="M240.64,186.75a11.15,11.15,0,0,1,4.58,1.62.56.56,0,0,1-.23,1,19,19,0,0,1-3.38.08,28.91,28.91,0,0,1-6.36-1.66,23.76,23.76,0,0,1-4.51-2.33,16.11,16.11,0,0,1-3.17-2.71,14.19,14.19,0,0,1-1.16-1.52,16.81,16.81,0,0,1-.92-1.59c-.27-.54-.52-1.1-.74-1.67-.11-.28-.22-.57-.31-.86l-.14-.43-.15-.5a3.69,3.69,0,0,1-.08-.46l0-.29,0-.52c0-.34-.05-.68-.06-1,0-.68,0-1.34,0-2a27.19,27.19,0,0,1,2.5-11,18.07,18.07,0,0,1,3.4-4.83,17.08,17.08,0,0,1,4.89-3.41,18.28,18.28,0,0,1,5-1.43A31.3,31.3,0,0,1,244,151a25.11,25.11,0,0,1,4.3.35,23.55,23.55,0,0,1,8.12,3c.85.48,1.63,1.09,2.45,1.59a15.59,15.59,0,0,1,2.55,2.33,16.12,16.12,0,0,1,3.2,5.48,12.28,12.28,0,0,1,.46,1.68,11,11,0,0,1,.26,1.68l.08.82c0,.28,0,.55,0,.79,0,.5,0,1-.05,1.4a26.81,26.81,0,0,1-.42,3.56,31,31,0,0,1-2.3,7.08,22.23,22.23,0,0,1-1.91,3.26,15.35,15.35,0,0,1-1.19,1.5l-.63.71-.62.63a9.43,9.43,0,0,1-1.53,1.39c-1.25.8-2.34,1.79-3.56,2.67a23.8,23.8,0,0,1-5.45,3,12.87,12.87,0,0,1-3,.68c-.9.14-.53-.43-.25-.56.82-.38.06-.38-.06-.54s-.1-.12-.07-.18.69-.26,1.64-.73a22.81,22.81,0,0,0,3.4-2,36.45,36.45,0,0,0,5-4.26c.05,0,.81-.77,1.86-1.95.3-.32.52-.62.79-.95a9.07,9.07,0,0,0,.78-1.08,16.91,16.91,0,0,0,1.42-2.6,27.15,27.15,0,0,0,2.08-9.14c0-.91.16-1.89.13-2.71a11.69,11.69,0,0,0-2.11-5.73,15.86,15.86,0,0,0-4.67-4.27,24.68,24.68,0,0,0-6.91-2.81,6.23,6.23,0,0,0-1.49-.21c-4.39-.26-9,.34-12.37,2.85a13.39,13.39,0,0,0-4,5c-.16.37-.38.7-.54,1.07a10.22,10.22,0,0,0-.56,1.42,25.84,25.84,0,0,0-1,5.14c-.08.88-.13,1.76-.13,2.64,0,.44,0,.89,0,1.32l0,.65a4.13,4.13,0,0,0,0,.45,13.88,13.88,0,0,0,2.35,4.82,14.85,14.85,0,0,0,2.85,2.78,17.21,17.21,0,0,0,3.78,2.15A22,22,0,0,0,240.64,186.75Z"/><path class="cls-1" d="M265.79,173.09a18.72,18.72,0,0,1-4.31.55.63.63,0,0,1-.56-.31.55.55,0,0,1,.14-.66,9.4,9.4,0,0,1,2.87-1.73,10.25,10.25,0,0,1,2.14-.44,13,13,0,0,1,4.38.27c.41.07.8.22,1.2.33a10.79,10.79,0,0,1,1.17.42c.38.17.77.31,1.13.49l.54.29.87.48a1.59,1.59,0,0,1,.34.28l.16.15c0,.09.09.12.12.19a1.73,1.73,0,0,1,.42.76,3.86,3.86,0,0,1,.12,1.65,5.05,5.05,0,0,1-.12.76,4.11,4.11,0,0,1-.11.47c-.07.3-.15.55-.21.77-.27.86-.58,1.65-.89,2.41l-.23.55a2.16,2.16,0,0,0-.15.45l-.29,1a12.06,12.06,0,0,0-.4,2,4.94,4.94,0,0,0-.06,1,8.49,8.49,0,0,0,0,1,10.48,10.48,0,0,0,1.1,3.88,12.13,12.13,0,0,0,2.59,3.24,18.38,18.38,0,0,0,7.75,3.92l1.95.41c.65.08,1.31.23,2,.28a17.06,17.06,0,0,0,12.76-3.45,9.16,9.16,0,0,0,1.56-1.55c.08-.13.26-.39.52-.74l.46-.59c.17-.22.3-.5.48-.77l.53-.88.48-1a15.32,15.32,0,0,0,.84-2.31,7.13,7.13,0,0,0,.3-1.23l.25-1.22c.12-.82.16-1.61.24-2.31.07-1.41,0-2.52.06-2.92a14,14,0,0,0-.93-5.68,9.7,9.7,0,0,0-3.55-4.24c-.48-.27-1-.59-1.41-.88a6.61,6.61,0,0,0-1.63-.89c-.6-.2-1.21-.37-1.82-.55-.88-.16-1.75-.37-2.64-.51l-2.7-.34c-.9-.06-1.79-.23-2.69-.37s-.38-.57-.09-.62c.84-.13.15-.35.07-.53s-.06-.14,0-.19a2.16,2.16,0,0,1,.5-.07l1.27-.1a33.52,33.52,0,0,1,4-.05,22.13,22.13,0,0,1,6.67,1.32l.78.31c.45.25,1.08.59,1.83,1a13.61,13.61,0,0,1,4.39,4.71,16.29,16.29,0,0,1,1.82,6.37c.16,1.8.12,3.21.16,3.68a23.16,23.16,0,0,1-.31,3c0,.11-.18,1-.42,2.36a22.08,22.08,0,0,1-1.6,4.66,7.57,7.57,0,0,1-.64,1.19l-.68,1.13c-.48.71-1,1.33-1.44,1.88-1,1-1.69,1.7-1.8,1.79a17.12,17.12,0,0,1-7.7,3.77c-.55.08-1.11.22-1.66.35a24.49,24.49,0,0,1-14.16-1.4,21.6,21.6,0,0,1-6.36-3.86c-.33-.32-.64-.66-.95-1s-.7-.93-1.07-1.38a13.5,13.5,0,0,1-2.76-8.58c0-.38,0-.76,0-1.14l.18-1.11c.07-.37.12-.75.2-1.11l.32-1.07.32-1.06c.15-.42.29-.72.42-1,.26-.61.51-1.21.71-1.79l.2-.56.13-.38.11-.36c.07-.12.12-.4-.1-.49l-.39-.25a4.63,4.63,0,0,0-.53-.29c-.36-.17-.69-.37-1-.49a8.3,8.3,0,0,0-1.5-.48c-.35-.09-1.06-.33-1.81-.49A5.64,5.64,0,0,0,265.79,173.09Z"/><path class="cls-1" d="M242.19,211.43c-.3-.13-.07-.5.5-1a3.11,3.11,0,0,1,.94-.44,4.8,4.8,0,0,1,.64.1,6.05,6.05,0,0,1,.56.51c.29.24.58.51.75.63a4.25,4.25,0,0,1,.78.74,5.6,5.6,0,0,0,1.52,1.23,1,1,0,0,1,.32.28,1.79,1.79,0,0,0,1.34.58c.09,0,.17,0,.27-.06a2.21,2.21,0,0,1,.84-.11c.39,0,.81,0,.91,0a6.43,6.43,0,0,0,1.6.2c.08,0,.14-.06.25,0a.46.46,0,0,0,.55.12,3,3,0,0,1,.74-.06,1.23,1.23,0,0,1,.46.21.9.9,0,0,1,.22.57c0,.17.11.33.18.5a.83.83,0,0,1,.07.18,5.25,5.25,0,0,1-1.34,1.37l-.37.15c-.21.09-.51.18-.81.28-.59.22-1.28.36-1.41.42a.89.89,0,0,1-.45-.05s-.54.11-1.09.13a5.9,5.9,0,0,1-1.15,0,2,2,0,0,1-1.27-.46.46.46,0,0,0-.25-.1,6.08,6.08,0,0,1-1.06-.44c-.32-.21-.64-.42-.94-.65s-.64-.42-.91-.68a.62.62,0,0,1-.11-.17.87.87,0,0,0-.15-.21c-.68-.57-1.1-1.32-1.69-1.91-.15-.14-.33-1.07-.49-1.22S242.31,211.48,242.19,211.43Z"/><path class="cls-2" d="M281.51,153.79a14.67,14.67,0,0,1,1.73-.38c.52-.08,1.16-.21,1.88-.29s1.53-.15,2.4-.2a41.78,41.78,0,0,1,12.66,1.44,30.36,30.36,0,0,1,11.75,6.06c.71.64,1.31,1.33,1.88,1.92s.93,1.27,1.29,1.8a7.58,7.58,0,0,1,.75,1.47,4.57,4.57,0,0,1,.3.95.7.7,0,0,1-1,.64c-.73-.42-2.27-2.47-5.15-4.19a31.21,31.21,0,0,0-10.88-3.89,39.89,39.89,0,0,0-11.08-.24c-.73.1-1.39.23-2,.32s-1.06.26-1.48.35a12.43,12.43,0,0,0-1.3.38C282.07,160.28,279.72,154.32,281.51,153.79Z"/><path class="cls-2" d="M263.54,154.55l-.08-.15a3.73,3.73,0,0,0-.37-.4,3.38,3.38,0,0,0-.66-.61,7.79,7.79,0,0,0-1.05-.75,27,27,0,0,0-7.31-2.94,47.88,47.88,0,0,0-8.53-1.37c-2.5-.19-4.33,0-4.94-.18-.32-.1-.62-.71-.32-1a11.66,11.66,0,0,1,5.13-1.61,36.82,36.82,0,0,1,9.44,0,28.77,28.77,0,0,1,9,2.57,11.78,11.78,0,0,1,4,3C268.94,152.69,263.8,154.88,263.54,154.55Z"/><path class="cls-2" d="M323.36,172.37a0,0,0,0,0,0,0c0,.1-.06.15-.11.17l-14.71,4.53a.21.21,0,0,1-.17-.08l0,0a6.09,6.09,0,0,0,.43,2,5.92,5.92,0,0,0,.79,1.92s0,0,0,0a.23.23,0,0,1,.1-.17l.6-.18,14.12-4.35s.1,0,.17.08a0,0,0,0,0,0,0,5.73,5.73,0,0,0-.43-2A5.67,5.67,0,0,0,323.36,172.37Z"/><path class="cls-1" d="M246.42,298.77c.16-.2.41-.28.51-.42s0-.05,0,0a1.49,1.49,0,0,0-.05.43,2.24,2.24,0,0,0,0,.8,2.51,2.51,0,0,0,.32.93,3.33,3.33,0,0,0,.28.48,4.09,4.09,0,0,0,.25.46c.32.62.75,1.27,1.12,2a1.38,1.38,0,0,1,.17.53,6.1,6.1,0,0,0,.65,1.88c0,.1.07.22.21.28a2.66,2.66,0,0,1,.46,1.06,5.68,5.68,0,0,1,.19,1.26l-.11,1.05c-.05.36-.11.71-.17,1a.57.57,0,0,1-.09.29,1.15,1.15,0,0,0-.21.6,3.25,3.25,0,0,1-.26.78,3.19,3.19,0,0,0-.14.35c0,.11,0,.05,0,0s0,0,0,0h0a5.79,5.79,0,0,0-.22-.75,6,6,0,0,0-.48-.76,1.14,1.14,0,0,0-.18-.3l-.41-.6c-.35-.43-.68-.85-.77-.94a.66.66,0,0,1-.14-.32s-1.08-1.31-1.1-1.38c-.14-.31-.41-.56-.33-1,0-.08,0-.14-.06-.2a5.82,5.82,0,0,1-.6-1.82c-.07-.33-.2-.64-.26-1a.71.71,0,0,1,0-.2,1,1,0,0,0,0-.25,6.14,6.14,0,0,1-.06-1.29,9.7,9.7,0,0,1,.21-1.33,4.54,4.54,0,0,1,.32-.65c.19-.25.39-.48.44-.58S246.36,298.84,246.42,298.77Z"/><path class="cls-1" d="M247.11,333.92c.13-.19.37-.27.45-.41s0,0,0,0a1.4,1.4,0,0,0,0,.41,2.05,2.05,0,0,0,.05.73,2.17,2.17,0,0,0,.18.49l.22.31a1.77,1.77,0,0,0,.33.34,3.84,3.84,0,0,0,.28.3c.4.39.9.85,1.43,1.42a1.52,1.52,0,0,1,.26.45,7.54,7.54,0,0,0,1,1.71c.06.09.1.21.25.25a2.23,2.23,0,0,1,.58,1,3.86,3.86,0,0,1,.25,1.25,10.6,10.6,0,0,1-.27,2,.6.6,0,0,1-.1.27,1.07,1.07,0,0,0-.19.55l-.23.72a1.74,1.74,0,0,0-.12.34c0,.1,0,.05,0,0s0,0,0,0h0a1.72,1.72,0,0,0-.07-.22l-.2-.46a3,3,0,0,0-.47-.71s-.1-.12-.19-.27a2.75,2.75,0,0,0-.4-.54,5.05,5.05,0,0,0-.74-.77.37.37,0,0,1-.12-.26c0-.05-1.08-1-1.11-1-.14-.24-.44-.4-.4-.79a.25.25,0,0,0-.08-.17,5.53,5.53,0,0,1-.86-1.47c-.13-.29-.32-.55-.45-.84a.71.71,0,0,1,0-.21.64.64,0,0,0-.05-.24,5.14,5.14,0,0,1-.3-2.58,4,4,0,0,1,.27-.66,6.44,6.44,0,0,0,.42-.56C246.71,334.23,247.06,334,247.11,333.92Z"/><path class="cls-1" d="M300.18,238.11c4.08-8.21,9.07-17.64,10-27,.19-1.84.16-3.45-2.05-3.49-3.42-.05-6.57,5.48-8,7.85-.81,1.35,2.13,1.35,2.77.3.09-.15,4-6.29,4.77-5.81-.59-.37-.45,1.56-.55,2.26a49.08,49.08,0,0,1-1.81,7,125.66,125.66,0,0,1-7.89,18.6c-.71,1.45,2.21,1.42,2.76.3Z"/><path class="cls-1" d="M138,382.89a3.12,3.12,0,0,1-2.71.83c-.33,0-.76-.6-.56-.88a13.2,13.2,0,0,1,1.18-1.5c.13-.14,1.38-1.13,2.86-2.16s3.19-2.07,4.07-2.59a37.12,37.12,0,0,1,5.36-2.56,52.08,52.08,0,0,1,11.71-3.15,18.89,18.89,0,0,1,2.71-.19c1.55-.08,3.1,0,4.65.05.77,0,1.55.1,2.32.15l2.32.19a8,8,0,0,0,1.54.16,22.76,22.76,0,0,1,5,1,26.07,26.07,0,0,1,5,2,28.2,28.2,0,0,1,6.53,5.12,4.32,4.32,0,0,1,.74.93,7.48,7.48,0,0,0,.64,1.11c.25.35.52.67.75,1a12.53,12.53,0,0,1,1.57,3.2,6,6,0,0,1,.17,1.79c0,.53-.5.32-.58.17-.26-.45-.37,0-.54.07a.41.41,0,0,1-.18.05c-.05,0-.15-.36-.43-.86a12.33,12.33,0,0,0-1.12-1.78,23.57,23.57,0,0,0-2.36-2.59s-.42-.44-1-1c-.32-.26-.69-.59-1.1-.92s-.88-.66-1.37-1-1-.62-1.47-.89l-1.4-.72-1.78-.76a13,13,0,0,1-1.43-.64,25.24,25.24,0,0,0-3.64-1c-1.79-.41-3.64-.55-3.77-.61-.72-.12-1.46-.13-2.18-.21s-1.45-.22-2.18-.32a4.32,4.32,0,0,0-.88,0h-1.9l-1.9.14a34.56,34.56,0,0,0-3.79.41,13.9,13.9,0,0,0-1.92.39l-1.91.47-.69.14a6.48,6.48,0,0,0-.87.21,44.67,44.67,0,0,0-8.66,3.48l-2.23,1a22.89,22.89,0,0,0-2.25,1.17C139.83,382.18,138.27,382.58,138,382.89Z"/><path class="cls-1" d="M279.52,362.2c-1.74,3.5,3.4,2.81,4.05,2.67,4.15-.85,5.37-1.16,8.83-3.29.66-.41,3.12-1.39,3.44-.75s-9.74,7.67-18.83,8.06c-.69,0-2.59.84.45-8.24C278.16,358.55,280.28,360.67,279.52,362.2Z"/><path class="cls-2" d="M279.83,361.9a2.11,2.11,0,0,0-.44-1.73,1.58,1.58,0,0,0-.76-.55.93.93,0,0,0-.95.27,4.55,4.55,0,0,0-.69,1.6c-.18.53-.34,1.07-.5,1.6a27.94,27.94,0,0,0-.78,3.28,6.22,6.22,0,0,0-.07,1.73,1.18,1.18,0,0,0,.43.86,1.29,1.29,0,0,0,.92.12,32.5,32.5,0,0,0,12.83-3.81,29.5,29.5,0,0,0,5.67-3.63,3,3,0,0,0,.31-.31,1.24,1.24,0,0,0,.14-.18.46.46,0,0,0,.08-.34.55.55,0,0,0-.48-.36,1.42,1.42,0,0,0-.46,0,6.63,6.63,0,0,0-1.67.44,8.34,8.34,0,0,0-1.52.77c-.47.29-.95.57-1.44.83a20.53,20.53,0,0,1-6.28,2.07,8.57,8.57,0,0,1-3.26.19,2.05,2.05,0,0,1-1.34-.64,1.48,1.48,0,0,1,0-1.42c.22-.53-.11-.73-.36-.13a1.84,1.84,0,0,0,.1,1.77,2.36,2.36,0,0,0,1.58.79,9,9,0,0,0,3.39-.19c1.1-.23,2.2-.46,3.28-.79a16,16,0,0,0,3.11-1.31c.49-.27,1-.55,1.46-.85a6.87,6.87,0,0,1,1.46-.73,6.37,6.37,0,0,1,1.56-.43.87.87,0,0,1,.54.07s0,.11-.13.2a3.9,3.9,0,0,1-.29.28,29.43,29.43,0,0,1-5.58,3.57A32.33,32.33,0,0,1,277,368.71c-.29,0-.54.06-.69-.06A.87.87,0,0,1,276,368a5.5,5.5,0,0,1,.08-1.61,24.44,24.44,0,0,1,.77-3.23c.15-.53.31-1.07.49-1.6a4.69,4.69,0,0,1,.6-1.45c.31-.37.85-.14,1.15.25a1.73,1.73,0,0,1,.36,1.41C279.33,362.2,279.65,362.44,279.83,361.9Z"/><path class="cls-1" d="M190.79,377.78c1.61,1.25,3.2,2.73,5.22,3.07,1.72.28,5.49-.66,7.19-1.05A35.44,35.44,0,0,1,214,378.68c.69,0,3.2.86,2.95,1.51-.12.31-20.21,5.55-21.89,5.23s-9.42-7.77-11.69-10.76C185.85,374.23,188.81,376.23,190.79,377.78Z"/><path class="cls-2" d="M190.51,377.32a17.68,17.68,0,0,0-4-2.37,6.89,6.89,0,0,0-2.29-.53,4.65,4.65,0,0,0-.63,0l-.57.07c-.09,0,0,.05,0,.08l.09.12.17.22.41.51.38.44a79.73,79.73,0,0,0,6.48,6.52,27.46,27.46,0,0,0,3.64,2.86,2,2,0,0,0,1.18.35,10.81,10.81,0,0,0,1.16-.14c.76-.13,1.51-.28,2.26-.43,3-.64,6-1.36,8.95-2.11s5.93-1.5,8.87-2.42a1.74,1.74,0,0,0,.31-.13c.06-.06.15-.1.15-.2a.3.3,0,0,0,0-.25,1.08,1.08,0,0,0-.46-.5,5.54,5.54,0,0,0-1.07-.52,7.35,7.35,0,0,0-1.13-.34,6.8,6.8,0,0,0-1.17-.11,32.25,32.25,0,0,0-4.61.16c-3.07.31-6,1.19-9,1.76a21.34,21.34,0,0,1-2.25.31,5.22,5.22,0,0,1-2.19-.24,13.45,13.45,0,0,1-3.79-2.43c-.67-.52-.9-.22-.24.3a13.47,13.47,0,0,0,3.91,2.48,5.33,5.33,0,0,0,2.34.26,19.39,19.39,0,0,0,2.29-.31c3-.58,6-1.45,9-1.75a31.42,31.42,0,0,1,4.55-.16,6.57,6.57,0,0,1,1.11.09,10.16,10.16,0,0,1,1.07.33,4.86,4.86,0,0,1,1,.48.82.82,0,0,1,.31.31v0l-.22.08c-2.9.91-5.88,1.65-8.84,2.41s-5.94,1.48-8.93,2.11c-.75.15-1.5.3-2.25.43-.37,0-.75.11-1.12.13a1.56,1.56,0,0,1-1-.3,25.79,25.79,0,0,1-3.57-2.81,77.57,77.57,0,0,1-6.46-6.49l-.37-.43-.31-.39h0a4.28,4.28,0,0,1,.52,0,6.59,6.59,0,0,1,2.16.5,17.42,17.42,0,0,1,3.88,2.32C190.81,378,191,377.73,190.51,377.32Z"/><path class="cls-3" d="M221,274.69c.55.23-1,1.32-1,.82s-1.5-.47-1-.77.39-1,1-1S220.23,274.37,221,274.69Z"/><path class="cls-3" d="M222,284.14c-.58-.12.72-1.48.82-1s1.56.17,1.11.57-.19,1.09-.77,1.2S222.76,284.3,222,284.14Z"/><path class="cls-3" d="M224.52,270.74c.55.22-1,1.31-1,.81s-1.5-.46-1-.77.39-1,1-1S223.76,270.42,224.52,270.74Z"/><path class="cls-3" d="M224,279.25c.11.46-1.29,0-1-.25s-.39-1.17,0-1,.84-.23,1.11.15S223.83,278.62,224,279.25Z"/><path class="cls-3" d="M216.91,280.5c.32-.35.71,1.08.34.95s-.75,1-.83.53-.67-.57-.51-1S216.47,281,216.91,280.5Z"/><path class="cls-3" d="M214,278.48c.1.46-1.29-.06-1-.28s-.36-1.19.06-1,.85-.2,1.11.19S213.88,277.84,214,278.48Z"/><path class="cls-3" d="M228.15,283.6c.44.18-.78,1-.78.64s-1.18-.36-.77-.6.3-.82.77-.82S227.55,283.35,228.15,283.6Z"/><path class="cls-3" d="M221.35,289.85c.43.18-.78,1-.78.65s-1.18-.37-.78-.61.31-.81.78-.81S220.75,289.6,221.35,289.85Z"/><path class="cls-3" d="M215.12,288.17c-.06.47-1.21-.47-.83-.58s0-1.23.38-.91.87.09,1,.54S215.2,287.53,215.12,288.17Z"/><path class="cls-3" d="M204.19,272.49c.3.52,1.18-1.15.68-1.09s-.66-1.42-.89-.87c-.3.7-1,.52-.9,1.11S203.78,271.77,204.19,272.49Z"/><path class="cls-3" d="M205.63,276c.47.05-.19-1.28-.38-.93s-1.21-.25-1,.16-.12.86.3,1.08S205,275.88,205.63,276Z"/><path class="cls-3" d="M209.42,267.68c-.3.36,1.17.56,1,.21s.88-.87.42-.89-.65-.59-1.07-.37S209.84,267.18,209.42,267.68Z"/><path class="cls-3" d="M227.28,291.7c.44.18-.77,1-.77.65s-1.18-.37-.78-.61.31-.81.78-.81S226.68,291.46,227.28,291.7Z"/><path class="cls-3" d="M242.4,286.27c.46-.08-.12,1.29-.32,1s-1.2.31-1-.11-.16-.85.23-1.1S241.75,286.38,242.4,286.27Z"/><path class="cls-3" d="M248.48,285.61c.47-.08-.11,1.29-.32,1s-1.19.31-1-.11-.16-.85.23-1.1S247.84,285.72,248.48,285.61Z"/><path class="cls-3" d="M229.53,280.87c.34.14-.61.82-.61.51s-.93-.29-.61-.48.24-.64.61-.64S229.06,280.68,229.53,280.87Z"/><path class="cls-3" d="M238.34,293.89c.34.14-.61.81-.61.51s-.93-.29-.61-.48.24-.64.61-.64S237.87,293.7,238.34,293.89Z"/><path class="cls-3" d="M233.1,288.49c.34.14-.61.81-.61.51s-.93-.29-.61-.48.24-.64.61-.64S232.63,288.3,233.1,288.49Z"/><path class="cls-3" d="M231.52,297c.12.35-1,.07-.78-.13s-.38-.89,0-.78.64-.23.88.05S231.36,296.48,231.52,297Z"/><path class="cls-3" d="M221,297c.11.35-1,.07-.78-.13s-.38-.89,0-.78.64-.23.88.05S220.81,296.48,221,297Z"/><path class="cls-3" d="M208.6,284.74c.12.35-1,.07-.78-.13s-.38-.89,0-.77.64-.23.88.05S208.44,284.26,208.6,284.74Z"/><path class="cls-3" d="M229.75,277.78c-.22.29-.63-.79-.33-.71s.51-.83.61-.48.56.4.46.75S230.06,277.37,229.75,277.78Z"/><path class="cls-3" d="M234.92,277.78c-.22.29-.63-.79-.33-.71s.51-.83.61-.48.56.4.46.75S235.23,277.37,234.92,277.78Z"/><path class="cls-3" d="M227.31,273.41c.34.14-.61.81-.61.51s-.93-.29-.61-.48.24-.64.61-.64S226.83,273.22,227.31,273.41Z"/><path class="cls-3" d="M235.54,282.8c0,.37-1-.29-.68-.4s-.05-1,.24-.73.68,0,.8.35S235.56,282.29,235.54,282.8Z"/><path class="cls-3" d="M242.34,281.64c.34.14-.61.82-.61.51s-.93-.29-.61-.48.24-.64.61-.64S241.87,281.45,242.34,281.64Z"/><path class="cls-3" d="M306.62,281.85c-.59.09.66,1.51.77,1s1.57-.11,1.14-.52-.14-1.1-.72-1.23S307.44,281.72,306.62,281.85Z"/><path class="cls-3" d="M303.5,290.82c.6,0-.36-1.61-.56-1.15s-1.56-.2-1.22.29-.07,1.1.47,1.35S302.67,290.79,303.5,290.82Z"/><path class="cls-3" d="M304.11,277.18c-.59.1.65,1.51.77,1s1.57-.11,1.14-.52-.14-1.1-.72-1.24S304.92,277.05,304.11,277.18Z"/><path class="cls-3" d="M302.66,285.59c-.21.42,1.26.28,1,0s.66-1.05.19-1-.76-.42-1.12-.11S303,285,302.66,285.59Z"/><path class="cls-3" d="M309.25,288.45c-.23-.41-.94.89-.55.84s.5,1.14.69.71.77-.4.72-.87S309.56,289,309.25,288.45Z"/><path class="cls-3" d="M312.53,287.15c-.2.43,1.28.24,1,0s.62-1.07.16-1-.77-.39-1.12-.08S312.81,286.56,312.53,287.15Z"/><path class="cls-3" d="M297.59,288.86c-.46.07.52,1.18.61.8s1.24-.08.9-.41-.11-.86-.57-1S298.24,288.75,297.59,288.86Z"/><path class="cls-3" d="M302.76,296.52c-.46.07.52,1.18.61.8s1.24-.08.9-.41-.11-.86-.57-1S303.41,296.41,302.76,296.52Z"/><path class="cls-3" d="M309.21,296.33c0,.46,1.28-.19.94-.38s.25-1.21-.16-1-.86-.12-1.09.29S309.28,295.68,309.21,296.33Z"/><path class="cls-3" d="M323.48,283.6c-.41.44-.88-1.39-.41-1.21s1-1.23,1.07-.65c.13.76.82.74.61,1.29S324,283,323.48,283.6Z"/><path class="cls-3" d="M321.27,286.64c-.46-.06.48-1.21.59-.83s1.23.05.91.39-.09.86-.54,1S321.92,286.72,321.27,286.64Z"/><path class="cls-3" d="M319.51,277.71c.21.42-1.27.28-1,0s-.66-1.05-.19-1,.76-.41,1.12-.11S319.22,277.13,319.51,277.71Z"/><path class="cls-3" d="M322.43,275.73c-.46-.08.52-1.19.61-.8s1.24.09.9.41-.12.86-.58,1S323.07,275.83,322.43,275.73Z"/><path class="cls-3" d="M313,273.3c-.41-.22.88-1,.84-.57s1.14.48.71.68-.38.78-.85.74S313.56,273.6,313,273.3Z"/><path class="cls-3" d="M296.56,296.94c-.47.07.51,1.19.61.81s1.23-.09.89-.41-.11-.87-.57-1S297.2,296.84,296.56,296.94Z"/><path class="cls-3" d="M296.89,285.88c-.37.06.4.93.47.63s1-.06.7-.32-.08-.67-.44-.76S297.39,285.8,296.89,285.88Z"/><path class="cls-3" d="M291.65,292.47c-.37,0,.4.93.47.63s1-.07.7-.32-.08-.68-.44-.76S292.15,292.39,291.65,292.47Z"/><path class="cls-3" d="M291.35,300.22c-.29.21.14.42-.13.85s1,.3.79.05"/><path class="cls-3" d="M301.48,303.52c-.19.31,1,.3.79.05s.58-.78.22-.74-.57-.38-.87-.16S301.75,303.08,301.48,303.52Z"/><path class="cls-3" d="M316.35,294.5c-.2.31,1,.3.79.05s.58-.77.21-.74-.57-.37-.87-.16S316.61,294.07,316.35,294.5Z"/><path class="cls-3" d="M297.39,282.82c.14.34.8-.62.49-.61s-.31-.92-.49-.6-.63.25-.62.62S297.18,282.36,297.39,282.82Z"/><path class="cls-3" d="M292.36,281.62c.14.34.8-.62.49-.61s-.31-.92-.49-.6-.63.25-.62.62S292.15,281.16,292.36,281.62Z"/><path class="cls-3" d="M300.78,279.14c-.36.06.4.93.47.63s1-.06.71-.32-.09-.67-.45-.76S301.28,279.06,300.78,279.14Z"/><path class="cls-3" d="M290.59,286.36c-.07.36,1-.06.76-.23s.27-.93-.06-.77-.67-.15-.87.16S290.69,285.86,290.59,286.36Z"/></g></svg>