<svg xmlns="http://www.w3.org/2000/svg" width="520" height="520" viewBox="0 0 520 520"><defs><style>.cls-1{fill:#231f20;}</style></defs><title>108 Share</title><g id="n.108_Share" data-name="n.108 Share"><path class="cls-1" d="M373.8,169.05S356.12,198,362.91,221.39c0,0-31.17,21-37.14-14.93a17.6,17.6,0,0,1,0-1.78c-.59-11.89,4.46-62.07,44.26-85.68,0,0,26.91-22.5,58.46,1,0,0,37.31-21.77,70.35,37.49,0,0,15.07,38.16-3,67.42s-44.44,46.68-67.8,13.73c0,0,12.6-20.25,17.34-21.52s11.7.93,16.9-13.38c0,0,3.31-16.61-14.53-12.38a62.86,62.86,0,0,0-6.69,9.91c-3.23,6.08-11.39,4.27-8.59-4.1l5.89-12.93S392.4,190.09,373.8,169.05Z"/><path class="cls-1" d="M164.51,415.64a27.68,27.68,0,0,0,.81-7.61c0-.94-.18-1.88-.29-2.83a84.42,84.42,0,0,0-1.72-10.13c-.34-1.5-.73-3-1.12-4.49a24.59,24.59,0,0,1-1-5.86c0-.63.33-.59.78-.14a6.24,6.24,0,0,1,1.43,2.35c.33.93.57,1.89.82,2.84l.76,2.89c.51,1.93,1,3.89,1.36,5.9.42,2.41,1.15,4.87,1.39,7.42a31.69,31.69,0,0,1-.23,8.42,31.14,31.14,0,0,1-1.31,5,26.12,26.12,0,0,1-3.73,6.89,22.24,22.24,0,0,1-4.19,4.43,7.86,7.86,0,0,1-1.1.79c-.37.21-.68.38-.95.51a3.76,3.76,0,0,1-.72.18,1.22,1.22,0,0,1-1-.33,2.55,2.55,0,0,1-.38-.35c-.32-.44.1-1.1,1-1.68a23,23,0,0,0,6.52-7.23,26.1,26.1,0,0,0,2.77-7Z"/><path class="cls-1" d="M86.16,313.52a14.27,14.27,0,0,1-1.87.5,4.34,4.34,0,0,1-.72.13,3.79,3.79,0,0,1-2.57-.54,4.11,4.11,0,0,1-.45-.38,1.59,1.59,0,0,1-.39-.43,2.8,2.8,0,0,1-.61-1.29c0-.15.11-.17.3-.12a1.1,1.1,0,0,1,.59.35,4.16,4.16,0,0,0,1.72,1.4,2.79,2.79,0,0,0,1.49,0,14.38,14.38,0,0,0,1.73-.47c.35-.12.71-.26,1.06-.4.53-.22,1.08-.43,1.61-.67s.79-.44,1.21-.63c.1,0,.18-.1.28-.13.38-.11.52-.07.66.2a1.51,1.51,0,0,1,.09.18.48.48,0,0,1-.24.57,17.46,17.46,0,0,1-2.12,1.06c-.57.25-1.16.48-1.76.7Z"/><path class="cls-1" d="M154.28,329.63a2.31,2.31,0,0,0,.45-.54,4,4,0,0,0,.36-.58,4.54,4.54,0,0,0,.21-.45,3.71,3.71,0,0,0,.45-1.7,1.93,1.93,0,0,0-.18-.76c-.14-.29-.36-.59-.46-.76a.41.41,0,0,1,.16-.4.7.7,0,0,1,.4-.09.67.67,0,0,1,.4.18,3.19,3.19,0,0,1,.72,2.6,9.28,9.28,0,0,1-.36,1.56,5.47,5.47,0,0,1-.92,1.43c-.23.26-.43.53-.67.77s-.73.7-1.11,1-.52.58-.8.84l-.18.19c-.25.2-.38.19-.63-.08l-.17-.17a.58.58,0,0,1-.08-.67,3.94,3.94,0,0,1,.65-.75,7.5,7.5,0,0,1,.71-.67,13.8,13.8,0,0,0,1-1Z"/><path class="cls-1" d="M117.18,350.51a10.52,10.52,0,0,1-2.06,1.21,5.13,5.13,0,0,1-.89.28,3.57,3.57,0,0,1-.86,0,6.88,6.88,0,0,1-.77-.13,4.47,4.47,0,0,1-1.45-.64,3.18,3.18,0,0,1-1-1.05,2.09,2.09,0,0,1-.19-1.77c.07-.18.26-.1.43.07a1.52,1.52,0,0,1,.43.62,2.16,2.16,0,0,0,1.68,1.58,2.8,2.8,0,0,0,.88.13,2.67,2.67,0,0,0,.79-.13,7.46,7.46,0,0,0,1.82-.89,9.53,9.53,0,0,0,1-.81,8.73,8.73,0,0,0,1.3-1.48,4,4,0,0,0,.51-1.35,2.7,2.7,0,0,0,0-.28c.08-.35.1-.41.49-.51l.24-.07c.25-.06.51.12.56.55a4.77,4.77,0,0,1-1.23,3.05,10.35,10.35,0,0,1-1.74,1.63Z"/><path class="cls-1" d="M49.83,377a14.28,14.28,0,0,1-1.47.88,3.91,3.91,0,0,1-.57.31,4.14,4.14,0,0,1-2.35.44,4.59,4.59,0,0,1-.56-.18l-.49-.32a4.63,4.63,0,0,1-.43-.56,3.78,3.78,0,0,1-.19-.63c0-.14.15-.18.36-.15a1.1,1.1,0,0,1,.62.21,1.72,1.72,0,0,0,1.42.55,2.69,2.69,0,0,0,1.22-.51q.68-.39,1.35-.84c.27-.2.55-.38.81-.59.41-.32.82-.62,1.2-1s.53-.6.8-.9c.06-.06.11-.14.18-.2.26-.21.4-.2.67,0a1.29,1.29,0,0,1,.17.16.55.55,0,0,1,.1.67A7.16,7.16,0,0,1,51.19,376c-.42.35-.88.68-1.34,1Z"/><path class="cls-1" d="M115.6,406.35a14.32,14.32,0,0,1-1.21-1.13,4.51,4.51,0,0,1-.4-.47,5.06,5.06,0,0,1-.82-2c-.08-.31-.1-.64-.15-.95s0-.41,0-.62a2,2,0,0,1,.21-.57c.06-.12.24,0,.42.11s.36.36.35.53a5.31,5.31,0,0,0,.36,1.82,2.58,2.58,0,0,0,.29.54l.41.47c.33.34.62.73,1,1.05s.48.37.72.54a7.15,7.15,0,0,0,1.21.67,4.6,4.6,0,0,0,1,.23l.22,0c.28.06.34.17.31.54l0,.24a.52.52,0,0,1-.47.47,4.12,4.12,0,0,1-2.11-.54,9.84,9.84,0,0,1-1.39-.92Z"/><path class="cls-1" d="M101.59,227.64a55.28,55.28,0,0,0,13.88,6.87,49.93,49.93,0,0,0,15.24,2.66,38.13,38.13,0,0,0,11.07-1.51c6.29-1.78,12.13-5.5,15.58-11s4.6-12.39,4.6-19.12a91.67,91.67,0,0,0-2.19-18c-.8-3.8-1.7-7.59-2.53-11.43-.41-1.92-.79-3.85-1.08-5.82a20.89,20.89,0,0,1-.24-6.09c.06-.34.13-.62.19-.86a4.73,4.73,0,0,1,.3-.57c.19-.28.32-.37.42-.3s.16.29.2.61l.06.53.13.69c.35,2,1.64,5.44,2.69,9.78,1.93,7.66,3.92,15.5,4.82,23.62a66.77,66.77,0,0,1,.33,12.34,36.51,36.51,0,0,1-2.92,12.24l-.81,1.73-1,1.68a13.19,13.19,0,0,1-1.05,1.62c-.39.52-.73,1.08-1.16,1.57a25.67,25.67,0,0,1-2.68,2.84,28.54,28.54,0,0,1-3,2.47,34.24,34.24,0,0,1-14.27,5.72,46.79,46.79,0,0,1-16.65-.43A58.66,58.66,0,0,1,105.92,234a52.21,52.21,0,0,1-16-12.48c-.41-.5-.85-1-1.22-1.51l-.58-.78-.28-.39-.15-.2-.08-.13c-.23-.33-.45-.71-.68-1l-.49.13-.65.16a38,38,0,0,1-7.68,1.14,21.23,21.23,0,0,1-7.79-1.13,15.48,15.48,0,0,1-6.45-4.6,15.18,15.18,0,0,1-3.45-11.55,17,17,0,0,1,1.81-5.89,13.54,13.54,0,0,1,1.79-2.6l.54-.62c.2-.19.42-.36.63-.54s.43-.36.66-.52l.73-.43a9.91,9.91,0,0,1,5.67-1.17,13.79,13.79,0,0,1,6.8,2.48,5.78,5.78,0,0,1,2.14,2.4,5.07,5.07,0,0,1,.36,1c0,.43-.51.32-1.54-.13s-2.59-1.19-4.6-1.86A11.68,11.68,0,0,0,71,193a6.22,6.22,0,0,0-3.73,1.45,10.54,10.54,0,0,0-2.54,3.56,13.31,13.31,0,0,0-1.16,4.46,11.86,11.86,0,0,0,2.59,8.56A12.45,12.45,0,0,0,74,215.53a23.74,23.74,0,0,0,7.37-.12c1.26-.19,2.52-.47,3.77-.78l1.79-.48,1-.27.24-.06c.07,0,.19-.1.21,0l.24.37,1,1.46.48.73.24.36.15.21a43.55,43.55,0,0,0,11.15,10.62Z"/><path class="cls-1" d="M148.27,152.79a56,56,0,0,1-12.86.21c-1.06-.09-2.11-.21-3.16-.35l-1.58-.23-.79-.13c-.4-.07-.59-.12-.87-.18-2-.48-4-1-6-1.38-.92-.2-1.91-.39-2.74-.52-.21,0-.53-.12-.53.2a1,1,0,0,1-.07.21q-.14.4-.3.81c-.21.54-.45,1.06-.69,1.58a28.2,28.2,0,0,1-4.74,7,30.32,30.32,0,0,1-6.52,5.24A43.85,43.85,0,0,1,92,170.6c-1.09.18-2.19.33-3.27.46l-.78.1c-.39,0-.17.36-.16.58L88,173.1l.33,1.91c.21,1.28.39,2.56.52,3.85a28.69,28.69,0,0,1-.34,9.36,14.7,14.7,0,0,1-.75,2.3,10.7,10.7,0,0,1-1.12,2.18,6.46,6.46,0,0,1-.74,1c-.28.31-.52.64-.81.93l-.93.8a4,4,0,0,1-1,.7c-1.8,1-1.69.37-.83-1.05l.36-.56.35-.68.41-.72c.13-.25.23-.55.36-.83s.28-.55.38-.86.2-.64.34-.95a8.83,8.83,0,0,0,.34-1,10.75,10.75,0,0,0,.34-1.05,23,23,0,0,0,.66-8.09c-.11-1.41-.26-2.82-.48-4.25-.1-.71-.23-1.43-.35-2.14l-.58-3.17.18-.87.09-.44,0-.22h0l.19.13v0l0,0,0-.1a1.59,1.59,0,0,1,.18-.37,1.12,1.12,0,0,1,.38-.24,3.45,3.45,0,0,1,1-.28l3.13-.41c1.53-.21,3-.48,4.55-.81a43.49,43.49,0,0,0,8.72-2.88,25.89,25.89,0,0,0,8.5-6.19,23.94,23.94,0,0,0,3.09-4.32,23.12,23.12,0,0,0,1.19-2.39c.18-.4.35-.82.5-1.23.1-.23.14-.36.25-.68s.24-.75.37-1.12l.16-.26.29-.48.15-.24.07-.12v0h0s0-.08,0,.06l0,0,.05-.06a1.7,1.7,0,0,1,1.08-.31,7.83,7.83,0,0,1,1.26.08l.64.09.4.07c1.06.18,2.09.4,3.12.61l6,1.36a63.46,63.46,0,0,0,12.16.85,35.64,35.64,0,0,0,14.42-3.18,29,29,0,0,0,15-15.92c.24-.67.46-1.37.66-2a15.31,15.31,0,0,0,.39-2,22.88,22.88,0,0,0,.08-4.22,24.83,24.83,0,0,0-1.94-8.1,16.52,16.52,0,0,0-1.78-3,15.07,15.07,0,0,0-3.12-3.08,7.35,7.35,0,0,1-1.56-1.66,7.76,7.76,0,0,1-.54-.76c-.18-.39.25-.68,1.29-.72a7.27,7.27,0,0,1,4.4,1.6,16.55,16.55,0,0,1,5.19,7.35,27.48,27.48,0,0,1,1.73,8.71,25,25,0,0,1-.22,4.55,18,18,0,0,1-.48,2.34c-.22.77-.46,1.45-.71,2.18a32,32,0,0,1-4.34,7.95,33,33,0,0,1-10.08,8.82,35,35,0,0,1-6.12,2.74,37.89,37.89,0,0,1-6.48,1.54Z"/><path class="cls-1" d="M115.54,90.17A71.55,71.55,0,0,1,131.65,85a57.37,57.37,0,0,1,6.13-.93,50,50,0,0,1,10.94.35l2.69.48c.46.08.94.22,1.4.33s.92.28,1.37.44a19.06,19.06,0,0,1,5,2.73,20.5,20.5,0,0,1,6.3,7.71,11.89,11.89,0,0,1,.61,1.53,6.83,6.83,0,0,1,.29,1.81,11.51,11.51,0,0,1-.43,3.31,19.24,19.24,0,0,1-2.78,5.59c-.76,1-1,.68-.93-.47s.19-3.18.43-5.24a12,12,0,0,0,.19-2.54,3.82,3.82,0,0,0-.17-1,2.77,2.77,0,0,0-.14-.38c-.07-.14-.19-.38-.26-.57a16,16,0,0,0-2.8-4.44,16.81,16.81,0,0,0-4.1-3.35,16.1,16.1,0,0,0-5-2A40.44,40.44,0,0,0,136,88c-1.33.14-2.64.41-4,.63s-2.63.56-3.92.94a61.2,61.2,0,0,0-7.67,2.59,74.07,74.07,0,0,0-9,4.37A75.54,75.54,0,0,0,99,105.28a55.58,55.58,0,0,0-7.7,8.58c-.51.66-.94,1.35-1.42,2-1.75,2.52-2.38,3.21-3.42,3.51a4.43,4.43,0,0,1-.69.21c-.36,0-.52-.29-.53-1a4.4,4.4,0,0,1,.18-1.24,8.79,8.79,0,0,1,.55-1.61,33.49,33.49,0,0,1,6.43-9.22,69.45,69.45,0,0,1,8.5-7.63,82.94,82.94,0,0,1,14.6-8.83Z"/><path class="cls-1" d="M20.69,229.11a41.58,41.58,0,0,1,2.57-10.3l.47-1.23.55-1.2c.37-.81.74-1.61,1.11-2.32.72-1.48,1.41-3,2-4.45a28,28,0,0,0,2.25-9.07,18.74,18.74,0,0,0-.3-4.55c-.3-1.44-.81-3.1-1.27-4.66-1.4-4.62-3.19-9.24-4.31-14.16a50.43,50.43,0,0,1-1.06-6.62,62.24,62.24,0,0,1-.15-6.68,61.37,61.37,0,0,1,1.9-13.13,54.4,54.4,0,0,1,12.38-23.21,55.71,55.71,0,0,1,8.73-7.86c.77-.61,1.6-1.12,2.42-1.66a27.52,27.52,0,0,1,2.5-1.55c.87-.47,1.73-1,2.62-1.4l2.71-1.16A44.41,44.41,0,0,1,70.62,111c1.26-.08,2.52,0,3.77.08s2.51.2,3.75.42,2.47.42,3.7.7a28.08,28.08,0,0,1,3.6,1.19,6.27,6.27,0,0,1,1.58.85c.4.34.47.55.36.64a1.86,1.86,0,0,1-.8.06c-.4,0-.92,0-1.58,0-1.32,0-3.17.08-5.31.07s-4.64,0-7.31,0a42.79,42.79,0,0,0-13.86,2,35.58,35.58,0,0,0-6.35,2.79c-1,.56-2,1.26-3,1.88s-1.93,1.4-2.9,2.08a52.12,52.12,0,0,0-16.92,22.78A54.36,54.36,0,0,0,26,164c0,1.49,0,3,.06,4.48a41.36,41.36,0,0,0,.48,4.43,69.63,69.63,0,0,0,2.12,8.75c1,3.19,2.06,6.39,3,9.68.25.81.47,1.65.7,2.47a26.81,26.81,0,0,1,.53,2.67,23.89,23.89,0,0,1,.1,5.41,34.26,34.26,0,0,1-2.81,10.15c-.67,1.6-1.42,3.15-2.15,4.67L27,219l-.86,2.29a37.12,37.12,0,0,0-2,11.79A30.33,30.33,0,0,0,24.7,239a26.74,26.74,0,0,0,1.89,5.62,24,24,0,0,0,5.25,7.25,28.23,28.23,0,0,0,7.56,5,35.39,35.39,0,0,0,17.92,2.55,46.1,46.1,0,0,0,13.62-3.61,49,49,0,0,0,11.9-7.28,46,46,0,0,0,4.39-4.22,58,58,0,0,0,4.92-6.35c.53-.7.9-1.29,1.31-1.73a11.19,11.19,0,0,1,1.14-1.09,7.53,7.53,0,0,1,1-.8c.45-.24.49.43.19,1.92a19.47,19.47,0,0,1-2.9,6.21c-5,7.5-12.68,13.22-21.28,16.75A52.12,52.12,0,0,1,58,262.62a42.61,42.61,0,0,1-7.15.24,37.21,37.21,0,0,1-7.17-1,30.57,30.57,0,0,1-18-11.75A28,28,0,0,1,21.17,240a34,34,0,0,1-.57-10.87Z"/><path class="cls-1" d="M184.71,199.15c-1.51-3.4-4.24-6.44-7-9.54-1-1.14-2.11-2.24-3.09-3.47a47.61,47.61,0,0,1-4.46-6.95,55,55,0,0,1-3.38-7.46c-.42-1.14-.81-2.29-1.16-3.45s-.62-2.35-.9-3.48a35.21,35.21,0,0,1-.9-4.55,10.12,10.12,0,0,1,0-2.4,6.36,6.36,0,0,1,.65-2.38c.56-.93.7-.56.74.26s.48,2.17.75,3.74a33.4,33.4,0,0,0,1,4.31c.43,1.5.82,2.93,1.31,4.32a60.91,60.91,0,0,0,3.48,8.29,35,35,0,0,0,2.89,4.71,43.85,43.85,0,0,0,3.47,4.33c2.71,3.07,5.83,6,8.22,9.74a21.58,21.58,0,0,1,1.9,3.63,19,19,0,0,1,.63,2.06A17.1,17.1,0,0,1,189,203a14.36,14.36,0,0,1-1.28,6.16,17.58,17.58,0,0,1-3.41,5.18,16.31,16.31,0,0,1-8.21,5,11.91,11.91,0,0,1-2.13.39,15.94,15.94,0,0,1-1.7,0,3.71,3.71,0,0,1-1.12-.29,1.78,1.78,0,0,1-1.1-1.06,3.09,3.09,0,0,1-.25-.65c-.1-.72,1-1.18,2.57-1.32A16.16,16.16,0,0,0,179,214.1a13.75,13.75,0,0,0,4.85-5,12.76,12.76,0,0,0,1.67-5l.05-1.27-.12-1.24-.3-1.16c-.16-.41-.34-.85-.53-1.27Z"/><path class="cls-1" d="M131.34,239.9c3.53-.94,3.88,8.61,2.86,10.09-4.55,6.55-14.93,2.44-20-1-10.27-7-14.76-18.62-14.22-18.39C100,230.63,125.43,241.47,131.34,239.9Z"/><path class="cls-1" d="M31.25,334.88c3.48-7.36,7.32-14.53,11.43-21.53,1.49-2.56,3-5.13,4.54-7.64q8.43-13.21,18-25.54c2.87-3.63,5.79-7.25,8.84-10.7,2-2.18,3.8-4.46,5.82-6.65a37.52,37.52,0,0,1,6.75-5.93c1.61-1,1.69-.35.81,1a50,50,0,0,1-4.7,6.12c-2,2.15-3.9,4.43-5.92,6.71s-3.91,4.45-5.79,6.76c-3.77,4.59-7.37,9.36-11,14.2-4.29,5.79-8.24,12.16-12,18.46q-6.26,10.4-11.65,21.3c-1.06,2.25-2.16,4.49-3.19,6.76s-2.06,4.54-3,6.85a200.56,200.56,0,0,0-7.66,21.26c-.87,2.78-1.49,5.6-2.17,8.39-.33,1.39-.58,2.81-.88,4.21s-.59,2.8-.81,4.22c-.21,1.25-.38,2.47-.65,3.72-.9,4.63-1.26,6.09-2.29,7a8.44,8.44,0,0,1-.6.6c-.53.39-.94-1.64-.6-5.15.19-2.61.6-5.22,1-7.87s1-5.28,1.66-7.92,1.3-5.31,2.12-7.93c.39-1.32.79-2.64,1.18-4l1.32-3.92a224.6,224.6,0,0,1,9.27-22.84Z"/><path class="cls-1" d="M130.74,281.58a47.29,47.29,0,0,1-11.66-2.95c-.67-.27-1.35-.51-2-.77s-1.34-.55-2-.86a79,79,0,0,1-12.82-8c-1.76-1.35-3.52-2.72-5.21-4.14a31,31,0,0,1-6-6.13c-.5-.76,0-1,.92-.78a8,8,0,0,1,3.38,1.78,155.66,155.66,0,0,0,13.31,10.16,48.19,48.19,0,0,0,9.16,4.68,48.75,48.75,0,0,0,10.78,3.27,31.69,31.69,0,0,0,6.87.47c.87,0,1.74-.12,2.6-.2s1.73-.24,2.57-.46l1.27-.31,1.23-.4a9.78,9.78,0,0,0,2.27-1,3,3,0,0,0,1.09-1,1.22,1.22,0,0,0,0-1.07,9,9,0,0,0-2.21-2.66c-.42-.39-.87-.75-1.32-1.15-1.64-1.5-2-2.2-1.74-3.2a3.38,3.38,0,0,1,.2-.68c.34-.66,1.4-.46,2.78.49a25.42,25.42,0,0,1,3.06,2.43,13.18,13.18,0,0,1,1.5,1.62,7.2,7.2,0,0,1,1.27,2.45,4.65,4.65,0,0,1-.53,3.63,6.44,6.44,0,0,1-2.2,2.13,12.78,12.78,0,0,1-2.15,1c-.68.26-1.34.46-2,.68a32.59,32.59,0,0,1-12.4,1.05Z"/><path class="cls-1" d="M126.72,295a20.54,20.54,0,0,1-2.29-.65l-2.26-.71c-1.48-.56-2.94-1.16-4.39-1.78-1-.51-2.08-1-3.11-1.48a71.63,71.63,0,0,1-9.93-6.79c-1.38-1.11-2.78-2.2-4.13-3.32-1.72-1.44-3.43-2.91-5-4.44-.49-.48-.23-.68.44-.59a6.76,6.76,0,0,1,2.84,1.24c3.73,2.7,7.12,5.63,10.79,8.3.56.39,1.12.77,1.7,1.15a16.85,16.85,0,0,0,1.79,1.06c1.22.66,2.43,1.36,3.69,1.92l2,1,2.12.84a36.42,36.42,0,0,0,4.31,1.46c.45.13.9.29,1.35.39l1.38.28c.92.18,1.83.38,2.75.54l4.25.42c1.42,0,2.84,0,4.25-.05a26.88,26.88,0,0,0,3.24-.46,28.77,28.77,0,0,0,3.17-.66c.46-.13.9-.27,1.37-.38,1.73-.4,2.32-.36,2.86.15a2,2,0,0,1,.36.35c.3.41-.32,1-1.61,1.42-1,.33-1.92.68-2.92,1a26.31,26.31,0,0,1-3.09.58,30.48,30.48,0,0,1-3.17.39l-3.24.07a44.53,44.53,0,0,1-9.54-1.16Z"/><path class="cls-1" d="M127.6,293.78a51.84,51.84,0,0,1-10.26-3.54c-.61-.26-1.2-.55-1.79-.83a17.07,17.07,0,0,1-1.76-.89,70.68,70.68,0,0,1-11.12-8l-4.59-3.88-2.88-2.46A18.23,18.23,0,0,0,92.38,272c-.43-.16-.62-.63.27-1a5,5,0,0,1,3.67.91,70.55,70.55,0,0,1,6.2,4.78c2,1.65,3.93,3.27,5.94,4.86a48.59,48.59,0,0,0,8,4.81,49.57,49.57,0,0,0,9.57,3.69,43.64,43.64,0,0,0,6.21,1.2,41.57,41.57,0,0,0,9.59,0,27.74,27.74,0,0,0,3.63-.72l1.77-.47,1.74-.57c.51-.17,1-.33,1.53-.48,1.91-.63,2.59-.6,3.28.06.15.16.34.3.46.46.4.55-.23,1.31-1.63,2a36.24,36.24,0,0,1-14,3.22,46.21,46.21,0,0,1-11-1Z"/><path class="cls-1" d="M70.55,357.05c.67-2.09,1.43-4.14,2.23-6.16.28-.74.51-1.5.82-2.22,1.09-2.57,2.31-5.08,3.52-7.57.52-1.11,1-2.24,1.47-3.37a19,19,0,0,1,2.15-4.18c.3-.39.76-.11,1.09.5a3.21,3.21,0,0,1,.3,2.41,28.45,28.45,0,0,1-1.84,4.37c-.68,1.43-1.41,2.84-2.17,4.24a43.06,43.06,0,0,0-2.21,5.38c-.77,2-1.51,4-2.16,6-.4,1.25-.79,2.51-1.1,3.78a43.42,43.42,0,0,0-1.16,5.82,29.62,29.62,0,0,0,0,4.52c0,.33.06.65,0,1,0,1.22-.22,1.61-1,1.91a3.47,3.47,0,0,1-.5.2c-.56.15-1.05-.35-1.3-1.3l-.26-1.08a7.89,7.89,0,0,1-.11-1.09,20.51,20.51,0,0,1,0-2.22c0-.74.08-1.49.16-2.24l.33-2.23A59.42,59.42,0,0,1,70.48,357Z"/><path class="cls-1" d="M153.91,375a114.87,114.87,0,0,1-16.3,2.6c-2,.2-4,.45-5.93.58-7,.47-14,.65-20.88,1-3.08.14-6.17.38-9.2.7-3.9.41-7.77,1-11.6,1.52-1.2.16-1.2-.47-.3-1.28a10,10,0,0,1,5-2.15,198.76,198.76,0,0,1,24.2-1.83c4.84-.14,9.84-.66,14.74-1.16a144.93,144.93,0,0,0,16-2.34,58.38,58.38,0,0,0,9.45-2.79,29.3,29.3,0,0,0,6.47-3.45,15.54,15.54,0,0,0,1.42-1.12,6.92,6.92,0,0,0,1.21-1.21,11.5,11.5,0,0,0,1.69-3c1.38-3.49,1.61-7.32,2.72-11.25a15.11,15.11,0,0,1,1-2.65,5.33,5.33,0,0,1,3.09-2.89,2,2,0,0,1,2,.38,2.52,2.52,0,0,1,.5.56c.16.31-.1.63-.51.95a7,7,0,0,0-1.29,1.38,11.28,11.28,0,0,0-1.57,4c-.37,1.61-.68,3.35-1.06,5.15a34.89,34.89,0,0,1-1.57,5.56,15.75,15.75,0,0,1-1.43,2.84,11.33,11.33,0,0,1-2.2,2.59,29.1,29.1,0,0,1-7.53,4.69,54,54,0,0,1-8.1,2.73Z"/><path class="cls-1" d="M195,334.14a5.87,5.87,0,0,1-.85-2.54v-.11l-.19,0-.42,0a3.32,3.32,0,0,0-.5.05l-.63.09a5.83,5.83,0,0,0-1.25.21l-1.21.35a8.39,8.39,0,0,0-1.16.49,6.27,6.27,0,0,0-.82.41l-.76.53a9.94,9.94,0,0,0-1.43,1.16,14.16,14.16,0,0,0-2.58,17.8c1.13,2.2,3.61,2.94,6,4.7.73.59.16,1.12-.82,1.37a5.09,5.09,0,0,1-3.95-.57,10.48,10.48,0,0,1-3.69-3.55c-.37-.7-.71-1.4-1.06-2.11s-.52-1.49-.77-2.23a16.86,16.86,0,0,1,.08-9.29,21.26,21.26,0,0,1,2.31-5.13,15.16,15.16,0,0,1,1.71-2.29,9.63,9.63,0,0,1,1-1,8.79,8.79,0,0,1,1.1-.92,15.87,15.87,0,0,1,5.66-2.57c.5-.1,1-.16,1.53-.23l.77-.1a5.66,5.66,0,0,1,.94,0,15.08,15.08,0,0,1,2,.21l.23,0,.12,0h.07c.08-.1-.11.12-.09.1h0l.26.32a1.8,1.8,0,0,1,.26,1,6.53,6.53,0,0,0,.35,1.83,2.63,2.63,0,0,0,.69,1,2.42,2.42,0,0,0,1.09.53,5.35,5.35,0,0,0,.7.07H200l.59-.07h0l.46.11a.73.73,0,0,1,.4.17,6.41,6.41,0,0,0,.77.54,2.64,2.64,0,0,0,1.54.39,5.72,5.72,0,0,0,2-.42,5.82,5.82,0,0,0,.68-.27l.75-.34.37-.16c.07-.07.11,0,.16.07l.15.15.6.56c.19.19.41.37.59.57l.42.51.4.48.35.51a16.25,16.25,0,0,1,2.77,8.2,11.8,11.8,0,0,1,0,2c-.34,2.51-1.44,3.45-2.38,3.21a1.41,1.41,0,0,1-.57-.21,1.07,1.07,0,0,1-.23-.85,3.07,3.07,0,0,1,.06-.57c0-.26.1-.48.13-.83a13.79,13.79,0,0,0-.69-6.36,11.59,11.59,0,0,0-1.43-2.91,4.35,4.35,0,0,0-.46-.64l-.39-.47h0s0,0,0,0c-.26.1-.5.2-.77.28a9.83,9.83,0,0,1-1.7.38,5.43,5.43,0,0,1-4.15-1.07v0h-.3a6.59,6.59,0,0,1-2.38-.3,5.15,5.15,0,0,1-2.78-2.19Z"/><path class="cls-1" d="M208.61,353.64a2.59,2.59,0,0,1,.18-.39l.07-.11a1.65,1.65,0,0,0,.12-.34,1.34,1.34,0,0,0,.06-.47c0-.13-.06,0-.08,0l-.12.1a1.3,1.3,0,0,0-.21.16,1.68,1.68,0,0,1-.43.34l-1.75,1c-.73.38-1.45.78-2.18,1.12-1.46.73-2.93,1.36-4.4,2-1.29.57-2.57,1.19-3.78,1.84-.78.41-1.54.88-2.26,1.32a11.6,11.6,0,0,0-2,1.33c-.3.26-.77.13-.9-.58a3,3,0,0,1,1.23-2.65,33,33,0,0,1,5-2.78c1.66-.79,3.32-1.52,5-2.25a21.08,21.08,0,0,0,2.87-1.58c.47-.32.87-.59,1.38-1l2.05-1.72.64-.65,1-.58.25-.14a.43.43,0,0,1,.14,0l.25-.05.52-.12s.1,0,.17.05a.78.78,0,0,1,.16.15,1.81,1.81,0,0,1,.24.37,4.44,4.44,0,0,1,.41,2,13.12,13.12,0,0,1-.2,2.45,12.53,12.53,0,0,1-.37,1.66c-.16.49-.28.81-.44,1.21a18.47,18.47,0,0,1-1.09,2.18,21.12,21.12,0,0,1-2.12,3,29.87,29.87,0,0,1-2.53,2.65,35.43,35.43,0,0,1-4.62,3.12l-.93.61c-1.17.64-1.57.64-2.33.19-.17-.11-.36-.19-.51-.31a.77.77,0,0,1-.28-.85,2.55,2.55,0,0,1,.78-1.26,23.66,23.66,0,0,1,4.13-2.77,14,14,0,0,0,1.68-1.17c.13-.1.23-.21.34-.31l.39-.39c.28-.27.53-.56.79-.83a18.52,18.52,0,0,0,3.58-5.54Z"/><path class="cls-1" d="M205,367.91a9.13,9.13,0,0,0,2.48-3.11,1.67,1.67,0,0,0,.18-.59l.12-.76.18-1,.09-.51c0-.11,0-.12,0-.14l0-.09c.08-.24.13-.51.22-.9s.11-.65.16-1v-.15l0,0-.11.1-.22.24c-.15.17-.3.37-.44.55s-.34.51-.48.7a2.55,2.55,0,0,1-.26.3l-.58.58c-.23.21-.61,0-.82-.51a2.45,2.45,0,0,1-.14-1.19,1,1,0,0,1,.09-.31,5.19,5.19,0,0,1,.47-.9c.33-.5.69-1,1.06-1.45a17.91,17.91,0,0,1,1.15-1.45c.43-.6.66-.31.86-.22l.46.29a2.21,2.21,0,0,0,.32.18l.08,0,0,0h0c.78-1.6.22-.44.39-.8h0l0,0a.5.5,0,0,1,.33-.1c.4,0,.37,1.09.24,2.09,0,.31,0,.6,0,.92-.06.61-.09,1.2-.1,1.79l0,.9c0,.27,0,.68,0,.8a20.65,20.65,0,0,1-.23,2.29,10.15,10.15,0,0,1-2.61,4.76,20.74,20.74,0,0,1-2.34,2.08c-1.24.95-2.56,1.73-3.81,2.55-1,.65-1.85,1.4-2.77,2.08-.2.15-.38.32-.59.45-.85.4-1.18.4-1.75-.16-.12-.1-.24-.18-.32-.26a1.33,1.33,0,0,1,.21-1.57,6.71,6.71,0,0,1,1.13-1.13c.41-.33.82-.65,1.24-1,.83-.62,1.71-1.19,2.54-1.77a33.21,33.21,0,0,0,3.47-2.69Z"/><path class="cls-1" d="M191.36,384.38c1.6-.6,3.21-1.15,4.76-1.77.57-.22,1.09-.53,1.64-.76s.94-.42,1.37-.63a1.49,1.49,0,0,0,.41-.26,3.79,3.79,0,0,0,.44-.45,11.87,11.87,0,0,0,1.58-2.56,12.4,12.4,0,0,0,.87-2.62,17.2,17.2,0,0,0,.25-1.71,8.66,8.66,0,0,1,.25-1.66c.09-.35.51-.43,1.08-.17a2.92,2.92,0,0,1,.9.67,1.8,1.8,0,0,1,.43,1.13,13.62,13.62,0,0,1-.63,4.17,12.93,12.93,0,0,1-2,3.7c-.27.34-.54.69-.85,1.05-.16.19-.35.38-.53.56a6.2,6.2,0,0,1-.68.52,20.72,20.72,0,0,1-2.18,1.21c-1.61.73-3.22,1.37-4.82,2l-3,1.15c-1.48.6-3,1.16-4.39,1.88a31.89,31.89,0,0,0-3,1.93l-.63.43a1.58,1.58,0,0,1-.94.33,2.37,2.37,0,0,1-.82-.36c-.13-.08-.27-.15-.38-.23a.67.67,0,0,1-.23-.63,1.66,1.66,0,0,1,.39-1.05,16.09,16.09,0,0,1,5.89-3.93c1.58-.73,3.19-1.35,4.78-2Z"/><path class="cls-1" d="M161.65,414.54c.1-.78.21-1.55.25-2.34s.1-1.57.1-2.37,0-1.56,0-2.34-.13-1.57-.23-2.36c-.15-1.15-.43-2.29-.64-3.45-.73-4.11-1.64-8.25-2.6-12.4q-.67-2.76-1.34-5.51a24.5,24.5,0,0,1-.92-7.25c0-.77.42-.68.91-.08a6.52,6.52,0,0,1,.78,1.21,7,7,0,0,1,.71,1.73c.36,1.15.61,2.31.89,3.48l.9,3.51c.6,2.35,1.21,4.72,1.73,7.15.6,2.9,1.6,5.85,2.15,8.88a42.66,42.66,0,0,1,.67,5.09c.06.87.09,1.74.07,2.58s0,1.71-.08,2.56a34.31,34.31,0,0,1-.95,6.27,24.49,24.49,0,0,1-4.19,8.67,28.28,28.28,0,0,1-5.16,5.32,14.16,14.16,0,0,1-1.3,1,5.43,5.43,0,0,1-1.94.93,1.48,1.48,0,0,1-1.2-.26,3.64,3.64,0,0,1-.49-.36c-.43-.46,0-1.29,1.12-2.1,3.18-2.55,6.24-5.29,8.08-8.86a24.72,24.72,0,0,0,2.63-8.68Z"/><path class="cls-1" d="M173.06,292.44c1,1.62,2,3.27,3,4.95.34.61.76,1.17,1.08,1.8,1.15,2.2,2.1,4.5,3.06,6.71a31.82,31.82,0,0,0,1.47,2.85,22,22,0,0,1,1.93,3.57c.14.41-.43.71-1.17.73a2.32,2.32,0,0,1-2-.95,45,45,0,0,1-3.64-7.66,29.55,29.55,0,0,0-2.4-4.46c-1-1.61-1.93-3.2-3-4.76-.64-1-1.3-1.91-2-2.84-1.05-1.41-2.09-2.84-3.25-4.15-.9-1-1.92-1.9-2.9-2.84-.21-.21-.45-.39-.65-.61-.76-.81-.83-1.22-.34-1.94a3.23,3.23,0,0,1,.33-.49,1.25,1.25,0,0,1,1.79,0,27,27,0,0,1,5.36,5.36c1.2,1.51,2.31,3.1,3.41,4.69Z"/><path class="cls-1" d="M244,296.75a61.18,61.18,0,0,1-8.76,7.55,35,35,0,0,1-3.62,2.29,36.43,36.43,0,0,1-3.46,1.53l-3.41,1.25-6.85,2.39c-2,.7-4,1.46-6,2.23a72.56,72.56,0,0,1-7.68,2.78c-1.65.44-.54-2.68,2.39-3.85,5.19-2,10.43-3.86,15.74-5.58,1.59-.51,3.17-1.13,4.74-1.81a36.34,36.34,0,0,0,4.38-2.28,46.54,46.54,0,0,0,8.52-6.92c1.62-1.62,3.19-3.31,4.76-5l1.79-1.93a24.57,24.57,0,0,0,1.59-2c1-1.4,2-2.87,3.1-4.29a34,34,0,0,1,2.69-3.24,14.88,14.88,0,0,1,3.38-2.73l.85-.48c.3-.15.61-.26.92-.39a6,6,0,0,1,1.52-.39,3.23,3.23,0,0,1,1.08,0,2.11,2.11,0,0,1,.71.29,3.3,3.3,0,0,1,.47.54c.11.17.26.31.32.42s-.07.41-.43.81a1.44,1.44,0,0,1-.66.46c-.27.09-.56.28-.89.4-4,1.31-6.71,5-9.55,9.18-.54.78-1.08,1.56-1.71,2.38-.29.4-.66.81-1,1.21l-1,1.06c-1.27,1.39-2.56,2.79-3.89,4.16Z"/><path class="cls-1" d="M270.23,292.74a51.65,51.65,0,0,0,3.74-3.63,10.57,10.57,0,0,0,1.39-1.86,3,3,0,0,0,.33-.79c0-.17.05-.25,0-.36a.43.43,0,0,0-.17-.2,3.24,3.24,0,0,0-.55-.25,1.11,1.11,0,0,0-.5-.12.91.91,0,0,0-.29,0,1.48,1.48,0,0,0-.34,0,10.06,10.06,0,0,0-2.87,1c-1,.49-2,1.07-2.95,1.66-2,1.2-3.87,2.55-5.78,3.93L259.68,294c-.43.31-.87.62-1.35.92a7.22,7.22,0,0,1-1.55.77c-2.5,1-5,1.79-6.9,3.22-.53.45-.92.14-.8-.77a4.8,4.8,0,0,1,2.53-3.08,34.48,34.48,0,0,1,3.85-1.71l.89-.35c.12-.06.39-.22.63-.37.49-.32,1-.71,1.56-1.1,2.13-1.58,4.32-3.28,6.68-4.78,1.41-.91,2.84-1.86,4.41-2.71a16.7,16.7,0,0,1,2.53-1.13,5.77,5.77,0,0,1,3.26-.25,7.63,7.63,0,0,1,.85.3,7.34,7.34,0,0,1,.82.44,3.54,3.54,0,0,1,1.38,1.71,3.22,3.22,0,0,1,.19,1.1v.54l-.09.47a6.58,6.58,0,0,1-.61,1.62,15,15,0,0,1-1.73,2.49,24.56,24.56,0,0,1-2,2.1c-1.68,1.63-3.43,3.11-5.18,4.58l-4,3.28-.95.83a10.21,10.21,0,0,0-.78.84,9.62,9.62,0,0,0-1.2,2c-.54,1.14-.9,2.4-1.43,3.7a9.76,9.76,0,0,1-2.44,3.68,6.21,6.21,0,0,1-.79.65l-.41.31-.44.24-.78.38c-.24.09-.47.15-.67.21a3,3,0,0,1-1,.14,1.76,1.76,0,0,1-1.24-.66,3.78,3.78,0,0,1-.39-.45c-.28-.48.5-1.3,1.72-1.87a7.09,7.09,0,0,0,3.78-4.12c.44-1,.84-2.15,1.36-3.41a11.55,11.55,0,0,1,2.42-3.74c1.44-1.43,2.82-2.58,4.22-3.8s2.8-2.36,4.11-3.57Z"/><path class="cls-1" d="M290.15,291.33a12.16,12.16,0,0,0,3.91-3.46,17.78,17.78,0,0,0,1-1.69,16,16,0,0,0,1.92-6.8,12.18,12.18,0,0,0-.26-3.19,22.43,22.43,0,0,1-.78-4.06c0-.47.39-.56,1-.38a3.85,3.85,0,0,1,1.05.48,2,2,0,0,1,.85,1,8.46,8.46,0,0,1,.6,2.31,17.1,17.1,0,0,1,.19,2.38,15.42,15.42,0,0,1-.65,4.72,26.52,26.52,0,0,1-2,5.43,15.34,15.34,0,0,1-4.19,4.81,15.57,15.57,0,0,1-3.44,1.89,17.77,17.77,0,0,1-5.74,1.11,32,32,0,0,1-4.49-.05c-.32-.05-.65-.06-1-.14a2.2,2.2,0,0,1-1.19-.54,1.42,1.42,0,0,1-.29-.95c0-.17,0-.34,0-.49a.89.89,0,0,1,.47-.62,1.6,1.6,0,0,1,1.05-.29,40.09,40.09,0,0,0,7.09.07,12.33,12.33,0,0,0,4.86-1.59Z"/><path class="cls-1" d="M266.82,270.68a13.82,13.82,0,0,0-1.61,3.87c-.13.5-.14,1-.23,1.54a14.51,14.51,0,0,0,.16,5.53,7.27,7.27,0,0,0,1,2.2c.61.83,1.22,1.41,1.81,2.16.17.26.09.63-.41,1a2.12,2.12,0,0,1-1,.39,1.64,1.64,0,0,1-1.25-.3,5.13,5.13,0,0,1-1.41-1.65,10.08,10.08,0,0,1-.84-1.84,11.44,11.44,0,0,1-.59-3.81,40.65,40.65,0,0,1,.1-4.55,17.36,17.36,0,0,1,1.4-4.79,17.09,17.09,0,0,1,1.54-2.65,18.22,18.22,0,0,1,3.14-3.36,25.05,25.05,0,0,1,2.77-2.26,7.65,7.65,0,0,1,.67-.43,1.57,1.57,0,0,1,1-.22,1.45,1.45,0,0,1,.71.61c.09.14.2.26.27.39a1.06,1.06,0,0,1,.07.76,1.21,1.21,0,0,1-.45.8c-.72.64-1.46,1.16-2.18,1.7a24.85,24.85,0,0,0-2.07,1.75,13.52,13.52,0,0,0-2.5,3.2Z"/><path class="cls-1" d="M272.94,262.73a10.59,10.59,0,0,1-3.47-6.63,15.31,15.31,0,0,1-.21-2.61,17.44,17.44,0,0,1,.77-4.44,11.58,11.58,0,0,1,2.11-4.11,2.79,2.79,0,0,1,2-1.07c.3,0,.49,0,.68,0a5.59,5.59,0,0,1,.59.08,8.88,8.88,0,0,1,1.13.28,7,7,0,0,1,4.15,3.13c.26.51-.3.72-1,.74a3.63,3.63,0,0,1-2.12-.48,7.46,7.46,0,0,0-1.65-.87,8.79,8.79,0,0,0-.88-.24l-.44-.07a2,2,0,0,1-.26,0s0-.05-.1,0a3.4,3.4,0,0,0-.53.6,10.45,10.45,0,0,0-1.84,7.25,9.18,9.18,0,0,0,1.84,5.43,6.18,6.18,0,0,0,1.29,1.21,4.55,4.55,0,0,0,.75.48,1.2,1.2,0,0,0,.64.24,2.38,2.38,0,0,0,1,0,.86.86,0,0,0,.61-.53,2.06,2.06,0,0,0,0-.42A5.42,5.42,0,0,0,278,260a8.56,8.56,0,0,0-.8-2.37c-.16-.32-.34-.61-.62-1.06a4.41,4.41,0,0,1-.41-.77A2.43,2.43,0,0,1,276,255a1.94,1.94,0,0,1,.42-1.58,2.87,2.87,0,0,1,1.23-.85,3.16,3.16,0,0,1,2-.1,1.12,1.12,0,0,1,.62.79,2.64,2.64,0,0,1,.13.52.89.89,0,0,1-.32.74,1.84,1.84,0,0,1-.41.28l-.25.11-.13.08c-.2.14-.26.27-.24.41s.17.18.24.24.11.18.22.4.19.36.27.55c.17.38.32.76.46,1.16a9.93,9.93,0,0,1,.58,2.6,3.59,3.59,0,0,1-.94,2.93,3.75,3.75,0,0,1-1.35.86,4.59,4.59,0,0,1-1.47.29,5.93,5.93,0,0,1-1.21-.1,5.26,5.26,0,0,1-.71-.18,4.38,4.38,0,0,1-.58-.29,6.27,6.27,0,0,1-.86-.51,5.76,5.76,0,0,1-.8-.6Z"/><path class="cls-1" d="M264.2,267.17a7.65,7.65,0,0,1-4-5.51,9.92,9.92,0,0,1-.3-2.29,11.21,11.21,0,0,1,2.71-7.28,7.71,7.71,0,0,1,2.9-2.1,5.58,5.58,0,0,1,4.48,0c.42.2.16.71-.32,1.17a4.36,4.36,0,0,1-.81.6,1.8,1.8,0,0,1-.87.31,4.78,4.78,0,0,0-1.44.27,5.25,5.25,0,0,0-1.25.72,7.48,7.48,0,0,0-2.08,2.53,7.61,7.61,0,0,0-.63,4.33,6.08,6.08,0,0,0,1.88,4.12,3.47,3.47,0,0,0,1.53.8l.29,0c.11,0,.26.06.3-.07a.72.72,0,0,0,.08-.32,4,4,0,0,0,0-.69c0-.14,0-.19,0-.41l-.1-.62c-.07-.41-.16-.83-.25-1.24-.06-.23-.12-.46-.19-.69l-.3-1a2.27,2.27,0,0,1,0-1.72,2.85,2.85,0,0,1,1.4-1.09,4,4,0,0,1,1.32-.3,3.17,3.17,0,0,1,1.09.15,1.48,1.48,0,0,1,.52.29,1.07,1.07,0,0,1,.29.94,4.18,4.18,0,0,1-.06.51,1.5,1.5,0,0,1-1.31.9c-.53.2-.39.53-.26.58h0l.05.17.2.83c.12.55.24,1.12.33,1.7l.1.74c0,.32.07.64.09.95a5.1,5.1,0,0,1-.15,1.74,2.34,2.34,0,0,1-.81,1.22c-.19.18-.45.17-.68.25l-.71.19-1.52-.19c-.51-.17-1-.29-1.53-.49Z"/><path class="cls-1" d="M281,313.83c1.73-.53,3.45-1.16,5.14-1.85.85-.35,1.68-.72,2.5-1.1a24.58,24.58,0,0,0,2.32-1.3c1.13-.69,2.2-1.51,3.3-2.28a57.94,57.94,0,0,0,10.66-9.24,12,12,0,0,0,1.66-2.49,4.86,4.86,0,0,0,.41-1.28,1.74,1.74,0,0,0-.15-1c-.07-.08-.11-.16-.18-.24l-.27-.23c-.09-.06-.19-.1-.27-.16l-.3-.1a2.74,2.74,0,0,0-1.48.22,36.65,36.65,0,0,0-3.46,1.87c-.85.41-.88-.06-.54-.8a6.51,6.51,0,0,1,2.59-2.93,5.61,5.61,0,0,1,2.65-.81,4.19,4.19,0,0,1,1.68.35,4.48,4.48,0,0,1,1.32,1,3.85,3.85,0,0,1,.81,1.63,4.73,4.73,0,0,1,0,1.63,7.86,7.86,0,0,1-.9,2.45,25,25,0,0,1-5.86,6.6c-2.64,2.19-5.3,4.51-8.16,6.5a37.54,37.54,0,0,1-5,3c-1.75.83-3.51,1.56-5.31,2.22a51.23,51.23,0,0,1-6.81,2,22.56,22.56,0,0,1-3.61.48,13.16,13.16,0,0,1-1.88-.05l-1-.17a9.86,9.86,0,0,1-1.05-.35,2.77,2.77,0,0,1-1-.74,2.14,2.14,0,0,1-.39-1.14,3.66,3.66,0,0,1,.17-1.23,7.65,7.65,0,0,1,.38-.94,24.33,24.33,0,0,1,2.3-3.55c.82-1.09,1.67-2.14,2.53-3.18.38-.45.73-.91,1.14-1.34,1.51-1.6,2-1.95,2.74-2,.18,0,.35-.07.5-.08a.25.25,0,0,1,.28.17,1.14,1.14,0,0,1,0,.59,5.16,5.16,0,0,1-.86,1.81c-1.32,2.06-2.94,3.86-4.35,5.76a20.16,20.16,0,0,0-1.84,2.82,3.7,3.7,0,0,0-.26.61c0,.11,0,0,0,.06h0l.11,0a1,1,0,0,0,.22.07l.51.08a10.45,10.45,0,0,0,1.15.07,17.41,17.41,0,0,0,2.53-.24,34.42,34.42,0,0,0,5.22-1.32Z"/><path class="cls-1" d="M290.94,395.19a33.65,33.65,0,0,1-7.52-6.89,47.67,47.67,0,0,1-5.48-8.42,42.78,42.78,0,0,1-2.85-6.76,79.52,79.52,0,0,1-2.65-12.43,115.83,115.83,0,0,1-.9-12.58c-.1-3.71-.23-7.42-.39-11.07l-.18-3.51c-.08-1.11-.23-2.27-.38-3.43s-.3-2.34-.36-3.54a22.13,22.13,0,0,1,0-3.64c.19-1.56.66-1.24,1.21,0a24.62,24.62,0,0,1,2,6c.19,1.18.38,2.39.51,3.66s.17,2.45.25,3.69c.15,2.41.15,4.83.2,7.23.06,4.81.1,9.58.47,14.33a57.77,57.77,0,0,0,1.34,8.57c.34,1.42.7,2.85,1.12,4.25a35.84,35.84,0,0,0,1.37,4.1,41.82,41.82,0,0,0,10.53,15.61,21.15,21.15,0,0,0,10,5.36,15.15,15.15,0,0,0,8.47-.76,22.2,22.2,0,0,0,7.33-4.69c3.3-3.15,5.09-7.36,7.15-11.53.45-.92.89-1.84,1.41-2.76,1.92-3.4,3-4.25,4-4.46a3.5,3.5,0,0,1,.73-.11c.34,0,.37.44.14,1.11a9.76,9.76,0,0,1-.55,1.2c-.22.47-.51,1-.85,1.59-1,1.76-1.88,3.6-2.8,5.5s-1.85,3.87-3,5.81a27.49,27.49,0,0,1-4.26,5.51,24.47,24.47,0,0,1-5.68,4.19,18.75,18.75,0,0,1-10.42,2.5,21.19,21.19,0,0,1-10.07-3.5Z"/><path class="cls-1" d="M391.51,250.62a34.33,34.33,0,0,1-12.07-4.53,38.16,38.16,0,0,1-9.83-8.21,34.39,34.39,0,0,1-5.14-7.83,42.33,42.33,0,0,1-3.83-15.83,56.13,56.13,0,0,1,.12-8.1c.08-1.34.28-2.67.43-4s.4-2.66.69-4a98.51,98.51,0,0,1,3.73-13.72c1-2.86,2.14-5.67,3.4-8.42q1-2.07,2.05-4.06c.77-1.3,1.54-2.6,2.39-3.85,1.06-1.56,1.39-1.06,1.13.61a31.62,31.62,0,0,1-2.39,7.6c-4.9,10.9-8.62,22.51-8.93,34.54a38.67,38.67,0,0,0,5.36,20.86,32.7,32.7,0,0,0,7.88,8.91,42,42,0,0,0,5,3.36,32.26,32.26,0,0,0,5.44,2.52,35.63,35.63,0,0,0,14.66,1.65,38.36,38.36,0,0,0,10.95-2.69,37.29,37.29,0,0,0,9.54-5.94c4.5-3.79,8.14-8.32,11.75-12.93l2.36-3.06c3-3.82,4.2-4.86,5.47-5.15a3.94,3.94,0,0,1,.85-.18c.77.05-.12,1.86-2.18,4.75a152.43,152.43,0,0,1-10.13,12.76,51.65,51.65,0,0,1-13.29,10.89,40,40,0,0,1-25.41,4.09Z"/><path class="cls-1" d="M461.41,194.15a16.53,16.53,0,0,1,1.28,11.06,18.37,18.37,0,0,1-1.19,3.84,17.19,17.19,0,0,1-10.18,9,26.06,26.06,0,0,1-5.85,1.33,21.75,21.75,0,0,1-7.55-.23c-.77-.15-.61-.54.08-.92a8.68,8.68,0,0,1,3.27-.81c4.83,0,9.62-1,13.46-3.71a11.46,11.46,0,0,0,3-3,16.6,16.6,0,0,0,1.87-3.89,15.35,15.35,0,0,0,.16-9.36,7.4,7.4,0,0,0-3.19-4.34,11.74,11.74,0,0,0-2.05-.67c-.37-.1-.74-.14-1.11-.21a6,6,0,0,0-1.11-.12,8.7,8.7,0,0,0-4.26.73,12.87,12.87,0,0,0-4.84,4.69l-.84,1.3c-1.11,1.61-1.64,2-2.41,2.06a3,3,0,0,1-.52,0c-.5-.09-.44-1,.16-2.39a19.33,19.33,0,0,1,4-5.87,12.34,12.34,0,0,1,3.25-2.29,11.24,11.24,0,0,1,4-1.05,15.51,15.51,0,0,1,5.77.71,7.69,7.69,0,0,1,3,1.63,10.37,10.37,0,0,1,1.12,1.18,8.86,8.86,0,0,1,.86,1.3Z"/><path class="cls-1" d="M403.94,182.6c2.57.52,5.17.91,7.78,1.18s5.25.44,7.89.5c1.93.05,3.85-.05,5.78-.09,3.39-.1,6.79-.29,10.17-.68l1-.13c.36,0,.68-.08,1-.11l.5-.06a1.43,1.43,0,0,1,.38.07l.35.08.27.1c.1,0,.2.18.23.28a1.23,1.23,0,0,1,.08.33,2.52,2.52,0,0,1,0,.78,9,9,0,0,1-.54,1.89l-.31.82-.25.6-.5,1.2-1,2.38L434.93,196a13.16,13.16,0,0,0-.93,4.16,8,8,0,0,0,.2,2.61,2.35,2.35,0,0,0,.44.94.7.7,0,0,0,.56.25,4.35,4.35,0,0,0,2-1,25,25,0,0,0,2.08-1.83c.83-.83,1.18-.37.9.78a6.67,6.67,0,0,1-1,2.12,5.8,5.8,0,0,1-2.86,2.24,3.5,3.5,0,0,1-2.62-.13,3.72,3.72,0,0,1-1.69-1.9,8.77,8.77,0,0,1-.56-3.59,16.17,16.17,0,0,1,.42-3.27,15.36,15.36,0,0,1,.47-1.6c.09-.26.2-.53.31-.79l.3-.69,2.37-5.45.57-1.36.28-.68.13-.3,0-.05a2.57,2.57,0,0,0,.15-.29.62.62,0,0,0,.07-.19c0-.09-.07,0-.1-.06h-.44l-1.67.2-3.69.38c-2.47.24-5,.42-7.44.45a99.86,99.86,0,0,1-16.3-1,78.83,78.83,0,0,1-9.85-2.11,61.3,61.3,0,0,1-14.05-5.89,49,49,0,0,1-9.49-6.89,18.7,18.7,0,0,1-1.83-1.84c-.54-.61-1-1.12-1.32-1.56a9.2,9.2,0,0,1-.72-1.2,2.42,2.42,0,0,1-.31-1.65,2.76,2.76,0,0,1,.14-.64c.29-.56,1.42.21,2.89,1.89A53.32,53.32,0,0,0,389,177.87a66.06,66.06,0,0,0,15,4.66Z"/><path class="cls-1" d="M496.64,218.19a62.39,62.39,0,0,0,3-8.71c.21-.74.4-1.48.54-2.22s.34-1.48.45-2.26c.26-1.54.53-3.08.72-4.62a101.22,101.22,0,0,0,.9-18.65,83.13,83.13,0,0,0-1.87-13.44,68.45,68.45,0,0,0-8.92-22,63.89,63.89,0,0,0-16.29-17.42,62.37,62.37,0,0,0-19-9.41,52.35,52.35,0,0,0-13.34-2.15,35.18,35.18,0,0,0-6.66.44,18,18,0,0,0-6.14,2.15c-1.12.72-1.6,1.05-1.76.85s.13-.91,1-1.89a12.3,12.3,0,0,1,4.45-3,21.76,21.76,0,0,1,7.42-1.58,39.13,39.13,0,0,1,7.35.37,57.12,57.12,0,0,1,7.16,1.46,64.64,64.64,0,0,1,13.5,5.4A65.74,65.74,0,0,1,491,140.4a72.35,72.35,0,0,1,8.7,15.35,75.79,75.79,0,0,1,2.92,8.44,79.25,79.25,0,0,1,1.86,8.7,93.38,93.38,0,0,1,.83,19.4c-.19,3.23-.53,6.45-1,9.64-.24,1.6-.49,3.18-.79,4.78l-.51,2.41-.63,2.36a83.87,83.87,0,0,1-10.08,21.61A76.41,76.41,0,0,1,480.82,247a45.38,45.38,0,0,1-15.24,9.72,29.2,29.2,0,0,1-13.95,1.64,31.41,31.41,0,0,1-13.06-5.17c-.86-.58-1.66-1.22-2.48-1.82-.41-.31-.84-.61-1.23-.94l-1.14-1c-5.61-5.28-6.63-7.61-7-9.34a6.79,6.79,0,0,1-.19-1.18c.05-.48.65-.2,1.67.71s2.41,2.48,4.33,4.33a57.19,57.19,0,0,0,4.37,4c.78.61,1.59,1.16,2.39,1.75a20.16,20.16,0,0,0,2.48,1.6,28,28,0,0,0,10.94,3.89,25.54,25.54,0,0,0,11.55-1.37,38,38,0,0,0,10.53-5.91,64.89,64.89,0,0,0,12.66-13.42,83.48,83.48,0,0,0,9.11-16.3Z"/><path class="cls-1" d="M329.82,170.82a131.16,131.16,0,0,1,14.79-29.49,92.5,92.5,0,0,1,7.35-9.61,77.81,77.81,0,0,1,16.1-14,65.81,65.81,0,0,1,19.55-8.4c1.54-.35,3.06-.78,4.63-1l2.34-.39,1.16-.19,1.2-.12a45.55,45.55,0,0,1,9.49.16,42.92,42.92,0,0,1,11.79,3c1,.36,1.85.9,2.77,1.35l1.32.83.65.41.62.49a15.57,15.57,0,0,1,4.22,4.59c1.21,2.36.54,2.14-1,.74a39.33,39.33,0,0,0-3.41-2.4,45.43,45.43,0,0,0-5.12-2.65,39.49,39.49,0,0,0-11-3.17c-1-.16-1.93-.22-2.89-.33s-1.93-.15-2.9-.14a33.33,33.33,0,0,0-5.74.33A69.66,69.66,0,0,0,373.26,118c-8.39,4.52-15.87,11.39-21.9,19.12a117.39,117.39,0,0,0-16.18,28.09,146,146,0,0,0-6.37,19c-.63,2.45-1.21,4.93-1.68,7.42a56.82,56.82,0,0,0-1,7.44A48.78,48.78,0,0,0,327.71,214a18.93,18.93,0,0,0,5.77,9.4,15.72,15.72,0,0,0,10.15,3.27c.81,0,1.62-.07,2.43-.12s1.61-.2,2.43-.35l2.09-.4,1.74-.42c1.06-.22,1.9-.5,2.62-.63a8.36,8.36,0,0,1,3.07-.27,6.17,6.17,0,0,1,1,.18c.4.17,0,.6-1,1.22a23.44,23.44,0,0,1-5,2.13,32.15,32.15,0,0,1-11,1.56,19.77,19.77,0,0,1-5.76-1.18,17.23,17.23,0,0,1-5.19-3.16A22,22,0,0,1,325,215.05a46,46,0,0,1-1.82-11.38c-.07-1.41-.08-2.82-.06-4.23a37.43,37.43,0,0,1,.39-4.34c.4-2.8.95-5.54,1.56-8.26a153.2,153.2,0,0,1,4.68-16Z"/><path class="cls-1" d="M455.49,301.41c-2.74-4.25-5.61-8.43-8.61-12.5a146,146,0,0,0-9.53-11.73c-1.24-1.35-2.53-2.64-3.86-3.84a19.1,19.1,0,0,0-4.13-3,2.43,2.43,0,0,0-.66-.21.31.31,0,0,0-.26,0C417.79,276.34,406,281.49,393.5,283a49.65,49.65,0,0,1-8.88.3,31.84,31.84,0,0,1-4.45-.56,22.12,22.12,0,0,1-4.33-1.27,12.18,12.18,0,0,1-4.94-3.4,5.52,5.52,0,0,1-1.25-3.1,7.74,7.74,0,0,1,.55-3.14,10.84,10.84,0,0,1,3.82-4.63,26.81,26.81,0,0,1,5-2.72c2.17-.89,2-.43.47.84-.76.65-1.86,1.53-3,2.64-.59.56-1.18,1.19-1.75,1.84a11.81,11.81,0,0,0-1.6,2.07,5.67,5.67,0,0,0-.75,2,3.17,3.17,0,0,0-.05.53,1.73,1.73,0,0,0,0,.47,1.06,1.06,0,0,0,.07.38,1.45,1.45,0,0,0,.16.4,7.18,7.18,0,0,0,3.38,2.85,26.32,26.32,0,0,0,10.3,2.17c7.28.21,14.66-1.39,21.77-3.75a86.79,86.79,0,0,0,9.72-4c1.58-.8,3.18-1.59,4.73-2.47.79-.42,1.57-.84,2.34-1.3l2.36-1.39.63-.26a3.12,3.12,0,0,1,.67-.11,4.88,4.88,0,0,1,.68,0c.21,0,.36.09.55.13a7.94,7.94,0,0,1,1.76.8,21,21,0,0,1,2.79,2,88.73,88.73,0,0,1,10.62,11.44c3.24,4,6.28,8.2,9.21,12.44,3.6,5.23,7,10.59,10.23,16a282,282,0,0,1,13.37,25.46,207.79,207.79,0,0,1,8.38,20.38c.52,1.53,1,3,1.49,4.61a40.42,40.42,0,0,1,1.42,6.28,6.12,6.12,0,0,1-.17,3,4.55,4.55,0,0,1-.35.94c-.49.67-1.36-1.64-2.59-5.8A223.56,223.56,0,0,0,470.75,328a284.19,284.19,0,0,0-15.31-26.51Z"/><path class="cls-1" d="M355.42,276.68a11.34,11.34,0,0,0-3.1,4.18,7.9,7.9,0,0,0-.4,1.78,7.08,7.08,0,0,0,2.24,6.07l.58.55a3.63,3.63,0,0,0,.59.41,4.77,4.77,0,0,0,1.4.5,12.31,12.31,0,0,0,4-.05c.4-.07.49.27.22.73a2.61,2.61,0,0,1-1.86,1.11,7.9,7.9,0,0,1-4.9-.88,5.81,5.81,0,0,1-.57-.4l-.45-.4a6.74,6.74,0,0,1-.85-.84,8.53,8.53,0,0,1-1.41-2,10.87,10.87,0,0,1-1.06-2.82,8.14,8.14,0,0,1-.08-3.07,12.11,12.11,0,0,1,3-5.65,20.22,20.22,0,0,1,2.83-2.57,28.53,28.53,0,0,1,4.92-2.86,33.69,33.69,0,0,1,4-1.67c.31-.09.6-.2.92-.26a2.54,2.54,0,0,1,1.29-.06,1.08,1.08,0,0,1,.64.46c.07.11.16.21.21.31.15.34-.26.76-1,1.13-1.13.48-2.24,1-3.36,1.5s-2.21,1.08-3.29,1.68a24.92,24.92,0,0,0-4.42,3.15Z"/><path class="cls-1" d="M419.3,290.67a11.57,11.57,0,0,0,3.93-.35c.47-.13.91-.34,1.36-.51s.83-.33,1.16-.51a12.23,12.23,0,0,0,1.09-.69A21.31,21.31,0,0,0,429,286.9a13.32,13.32,0,0,0,1.58-1.79,10.77,10.77,0,0,0,1.3-2.43c.08-.21.49-.31.89,0a1.69,1.69,0,0,1,.38,1.84,12.75,12.75,0,0,1-4.54,5.2c-.57.39-1.11.81-1.74,1.23a9.41,9.41,0,0,1-.95.54,5.4,5.4,0,0,1-1,.45,13.62,13.62,0,0,1-4.57,1,17.77,17.77,0,0,1-2.83-.14,25.77,25.77,0,0,1-4.13-.93c-1-.33-2.11-.55-3.12-.95-.23-.09-.45-.17-.67-.28-.8-.41-.94-.73-.78-1.35a3.31,3.31,0,0,1,.12-.42,1,1,0,0,1,1.27-.44c1.8.38,3.43,1.12,5.18,1.57a18.22,18.22,0,0,0,3.94.65Z"/><path class="cls-1" d="M400.81,297.61a13.52,13.52,0,0,0,3.7.36l.66-.09c.22-.05.43-.1.65-.13a9.8,9.8,0,0,0,4.33-2,6.47,6.47,0,0,0,1.44-1.57,9.64,9.64,0,0,0,1-2.31c.09-.24.61-.28,1.12,0a1.57,1.57,0,0,1,.75,1.75,7.2,7.2,0,0,1-1.92,3.11,10,10,0,0,1-2.82,1.91c-.61.28-1.21.59-1.86.86l-1,.37c-.33.1-.67.17-1,.24a14.9,14.9,0,0,1-4.42.05,19.49,19.49,0,0,1-2.63-.55,17.49,17.49,0,0,1-3.75-1.62,12.38,12.38,0,0,1-2.69-1.91,5.73,5.73,0,0,1-.48-.6,1.45,1.45,0,0,1-.31-1,1,1,0,0,1,.48-.65,4.4,4.4,0,0,1,.39-.26,1.25,1.25,0,0,1,1.37.24,18.91,18.91,0,0,0,3.61,2.5,13.48,13.48,0,0,0,3.45,1.16Z"/><path class="cls-1" d="M381.33,302.56a13.42,13.42,0,0,1-5.83-.39,7.87,7.87,0,0,1-1-.36,4.72,4.72,0,0,1-1-.45,11.48,11.48,0,0,1-4.58-5.69,16.24,16.24,0,0,0-1.46-2.56,9.79,9.79,0,0,0-2.47-2.5c-.3-.21-.18-.48.27-.65a2.37,2.37,0,0,1,2.07.28,8.83,8.83,0,0,1,2.81,3.32c.66,1.2,1.2,2.37,1.76,3.43a6.78,6.78,0,0,0,3.2,2.73,10,10,0,0,0,4.78.77,16.46,16.46,0,0,0,3.08-.55,17.46,17.46,0,0,0,4.41-1.92,20.22,20.22,0,0,0,2.87-2.32c.2-.18.38-.38.59-.55.72-.69,1.06-.8,1.61-.56a3.34,3.34,0,0,1,.38.17c.38.23.32.78-.16,1.44a11.89,11.89,0,0,1-1.17,1.4,8.68,8.68,0,0,1-1.38,1.26,19.06,19.06,0,0,1-3.24,2,20.3,20.3,0,0,1-5.5,1.75Z"/><path class="cls-1" d="M379.69,318a21.24,21.24,0,0,0,8.33.45,13.31,13.31,0,0,0,3.86-1.13,5,5,0,0,0,2.45-2.37l.18-.57c.05-.19.05-.41.09-.61a1.66,1.66,0,0,0-.1-.93,2.57,2.57,0,0,0-1.59-1.25,15.15,15.15,0,0,0-5.21-.71,36.64,36.64,0,0,0-5.61.49c-.92.15-1.85.33-2.74.56s-1.86.5-2.77.78c-1.85.52-3.67,1.12-5.48,1.77a42.94,42.94,0,0,0-9,4.57,27.9,27.9,0,0,0-8.57,9.32c-.65,1.15-1,.85-.89-.4,0-.32.08-.69.16-1.12a11.93,11.93,0,0,1,.45-1.36c.09-.25.19-.51.31-.77L354,324a10.31,10.31,0,0,1,1.08-1.58,25.39,25.39,0,0,1,5.12-4.87,39.89,39.89,0,0,1,6-3.6,63.65,63.65,0,0,1,13-4.55,48.58,48.58,0,0,1,8.47-1.08,21.47,21.47,0,0,1,4.42.27,10.06,10.06,0,0,1,2.29.67,5.38,5.38,0,0,1,2.16,1.62,4.27,4.27,0,0,1,.83,3,6.84,6.84,0,0,1-.77,2.67,7.87,7.87,0,0,1-4,3.44,16.11,16.11,0,0,1-4.73,1.22,24.42,24.42,0,0,1-4.76.1,21.68,21.68,0,0,1-10.94-3.9A15.91,15.91,0,0,1,368.7,314l0,0c-1.36-1.59-2.54-3.31-3.83-4.81a8.25,8.25,0,0,0-4.69-2.94,10.3,10.3,0,0,0-3-.06c-1,.06-1.84.42-2,.95a2.36,2.36,0,0,0,.57,2.12,7.62,7.62,0,0,0,2.1,1.88,11.32,11.32,0,0,0,2.34,1.08,29.15,29.15,0,0,0,3.37.88,3.7,3.7,0,0,1,1.58.7,4.1,4.1,0,0,1,.52.43c.19.25-.07.49-.75.69a8.15,8.15,0,0,1-3.17.15,12.8,12.8,0,0,1-6-2.33,8.82,8.82,0,0,1-2.43-2.63,5.25,5.25,0,0,1-.68-2,3.65,3.65,0,0,1,.59-2.54,4.1,4.1,0,0,1,2-1.5,7.19,7.19,0,0,1,1.91-.36,13.19,13.19,0,0,1,3.48.09,9.77,9.77,0,0,1,3.46,1.3,12.4,12.4,0,0,1,2.69,2.3c1.54,1.71,2.69,3.39,4,4.91l.06.08s.06.07,0,0a16,16,0,0,0,9,5.57Z"/><path class="cls-1" d="M370.59,322.13c-.1.77-.24,1.51-.36,2.24-.05.27,0,.53-.05.8a11.41,11.41,0,0,0-.18,2.71,3,3,0,0,0,.33,1.09c.12.2.28.37.39.56a1.43,1.43,0,0,1,.31.6c0,.16-.33.55-.81.8s-1.11.33-1.4,0a5.31,5.31,0,0,1-.94-3.91c.1-.75,0-1.49,0-2.21s.15-1.55.27-2.3c.06-.47.14-.93.18-1.38a9.27,9.27,0,0,0,.05-2,2.14,2.14,0,0,0-.2-.72,2.71,2.71,0,0,0-.28-.62,1.51,1.51,0,0,1-.12-.26c-.17-.27-.09-.43.25-.81l.23-.26a.67.67,0,0,1,1,0,2.65,2.65,0,0,1,.66.72,3.37,3.37,0,0,1,.47.84,4.55,4.55,0,0,1,.24.89,4.41,4.41,0,0,1,.11.86,17.46,17.46,0,0,1-.11,2.43Z"/><path class="cls-1" d="M338.67,314.24c1.19-2.06,2.33-4.18,3.42-6.34.4-.78.73-1.6,1.14-2.39,1.43-2.78,2.92-5.55,4.55-8.26.71-1.21,1.47-2.41,2.21-3.6.48-.77,1-1.5,1.55-2.24a11.93,11.93,0,0,1,1.95-1.94c.45-.37.78.12.87.86a3.31,3.31,0,0,1-.63,2.44c-2.05,2.7-3.74,5.77-5.68,8.81-1.14,1.83-2,3.92-3,5.91-1.08,2.19-2.19,4.38-3.37,6.55l-1.1,2-1.17,2a56.09,56.09,0,0,1-4,5.67l-1.72,2.06a18.13,18.13,0,0,1-1.91,1.91,5.49,5.49,0,0,1-.9.76c-1.32.74-1.81.83-2.28.65a3.24,3.24,0,0,1-.31-.13c-.26-.18.08-.76.77-1.52a51.51,51.51,0,0,0,5.81-7.11c.33-.48.62-1,.94-1.49s.66-1,1-1.49c.59-1,1.25-2,1.8-3.09Z"/><path class="cls-1" d="M308.76,324.94c-.23-1.38-.35-2.79-.49-4.19,0-.51-.13-1-.16-1.53a32.32,32.32,0,0,1,.24-5.47c.06-.8.22-1.62.3-2.42.1-.52.2-1.05.32-1.57a5.25,5.25,0,0,1,.72-1.44c.2-.28.66,0,1,.49s.71,1.07.53,1.52a39.19,39.19,0,0,0-1,5.56,7.72,7.72,0,0,0,0,1.8c0,.61.13,1.22.19,1.83.12,1.34.3,2.69.51,4,.12.83.27,1.66.43,2.48.26,1.25.52,2.51.9,3.72a29.43,29.43,0,0,0,1.11,2.73c.09.2.19.39.26.59.28.76.2,1.06-.36,1.41-.12.08-.25.17-.38.24a1,1,0,0,1-1.24-.5,20.68,20.68,0,0,1-2.05-5.14c-.38-1.35-.67-2.74-.94-4.13Z"/><path class="cls-1" d="M250.44,328.7c-.11-1-.17-2-.35-3l-.25-1.49-.34-1.46c-.14-.72-.45-1.39-.65-2.09a33.51,33.51,0,0,0-3-7.18,12.58,12.58,0,0,0-1-1.46,17.3,17.3,0,0,0-1-1.38L242.4,309a10.7,10.7,0,0,1-1.4-1.73c-.26-.39.22-.79.93-.92a2.61,2.61,0,0,1,2.31.66,25.89,25.89,0,0,1,5.23,8.12l1.15,2.71a27.42,27.42,0,0,1,1.06,2.78c.33,1,.56,2.09.82,3.14s.43,2.12.53,3.19c.07.66.17,1.31.23,2l.13,2c.06,1,.05,2,.08,3s0,2-.05,3c0,.76,0,1.52,0,2.28s0,1.52,0,2.28a8.24,8.24,0,0,1-.07,1c-.22,1.24-.59,1.58-1.17,1.76a3.57,3.57,0,0,1-.4.12c-.42,0-.73-.51-.92-1.42a28.79,28.79,0,0,1-.21-4c-.06-1.36,0-2.71,0-4.07a55.52,55.52,0,0,0-.23-6.05Z"/><path class="cls-1" d="M392.89,250.58s16.19.06,26.91-7.59c0,0-2.42,10.56-12.69,14.92-12.74,5.42-21,1.52-18-5.3.82-1.86,1.1-2.72,1.64-3.12C391.92,248.62,392.89,250.58,392.89,250.58Z"/><path class="cls-1" d="M126.13,191.1c1.64.4,3.09.27,4.11-.84a3.93,3.93,0,0,0,.5-.69,8.08,8.08,0,0,1,.37-.79,6.91,6.91,0,0,0,.49-3.28,19.76,19.76,0,0,0-.72-3.78c-.3-1.14-.73-2.28-1.09-3.45a9.53,9.53,0,0,1-.52-4.82c.12-.52.61-.36,1.12.06a4.86,4.86,0,0,1,.74.76,2.42,2.42,0,0,1,.53,1c.18.66.4,1.33.65,2l.71,2.14a24.27,24.27,0,0,1,1.17,4.75,20.87,20.87,0,0,1,.21,3.23,8,8,0,0,1-.87,3.34,6.89,6.89,0,0,1-2.66,2.83,7.07,7.07,0,0,1-3.73.84,12.4,12.4,0,0,1-4.18-1,25.22,25.22,0,0,1-5.29-3.21,29.25,29.25,0,0,1-3.69-3,6.31,6.31,0,0,1-.72-.82c-.81-1.12-.62-1.79-.11-2.32a3.83,3.83,0,0,1,.34-.35.91.91,0,0,1,.77-.08,2.48,2.48,0,0,1,1,.48c1,.76,1.91,1.56,2.89,2.36s2,1.55,3.07,2.28a15.3,15.3,0,0,0,4.92,2.32Z"/><path class="cls-1" d="M148.57,181.09a5.27,5.27,0,0,0,1.67,1.25c.51.16.68.21,1.14-.16a3.73,3.73,0,0,0,.79-1.27,15.65,15.65,0,0,0,.91-6.65,20.71,20.71,0,0,0-.38-3.14,26,26,0,0,1-.59-4.05c0-.43.5-.48,1.07-.23a2.59,2.59,0,0,1,1.45,1.59c.18.69.36,1.39.49,2.09s.21,1.43.28,2.15a21.77,21.77,0,0,1,0,4.42c-.11.89-.16,1.8-.32,2.74a8.4,8.4,0,0,1-.89,2.85,5,5,0,0,1-1.09,1.44,3.66,3.66,0,0,1-1.84.92,3.86,3.86,0,0,1-2-.23,6.23,6.23,0,0,1-1.48-.85,10.58,10.58,0,0,1-2.61-2.82,22.36,22.36,0,0,1-2.24-5.08c-.44-1.33-.94-2.63-1.28-4-.07-.3-.17-.58-.23-.88-.15-1.11,0-1.5.53-1.84a2.67,2.67,0,0,1,.36-.22c.41-.18.86.2,1.24,1a16.63,16.63,0,0,1,.72,1.7c.2.58.44,1.14.61,1.72.37,1.15.73,2.29,1.17,3.37a15.37,15.37,0,0,0,1.1,2.27,8,8,0,0,0,1.44,1.87Z"/><path class="cls-1" d="M136.17,175.68a26.3,26.3,0,0,1-1.14-4.27c-.12-.73-.25-1.46-.36-2.2l-.1-2.27c0-.54.05-1.12.07-1.68a6.48,6.48,0,0,1,.23-1.68l.4-1.46c.2-.47.42-.94.64-1.4a12,12,0,0,1,1.76-2.49,12,12,0,0,1,5-3.16,19.57,19.57,0,0,1,2.45-.72c.41-.12.83-.14,1.24-.22a10.79,10.79,0,0,1,1.24-.16,13.09,13.09,0,0,1,6.33.66c.62.25.33.89-.34,1.45a4.35,4.35,0,0,1-1.22.73,3.29,3.29,0,0,1-1.49.3,21.71,21.71,0,0,0-5.43.46,12.6,12.6,0,0,0-4.85,2,7.93,7.93,0,0,0-2.84,5.66l-.09.93,0,.48,0,.48c0,.64,0,1.28.11,1.93a29.66,29.66,0,0,0,.8,3.9,32.59,32.59,0,0,0,1.76,4.67,43.62,43.62,0,0,0,3.74,6.67,50,50,0,0,0,3.74,4.55c.28.33.58.63.85,1,1,1.26,1.12,1.83.77,2.57a4.85,4.85,0,0,1-.25.51c-.33.48-1.14.28-2.11-.49a25.49,25.49,0,0,1-3.84-4.05,48.24,48.24,0,0,1-3.26-4.73,46.82,46.82,0,0,1-3.82-7.86Z"/><path class="cls-1" d="M127.91,162c.54.17.62.83.27,1.5a1.62,1.62,0,0,1-.79.58,5.78,5.78,0,0,0-.73,0,4.33,4.33,0,0,0-.94-.19,4.61,4.61,0,0,0-1.37.12c-.56.12-1.15.17-1.76.26a14.46,14.46,0,0,0-3.74,1.14,4.17,4.17,0,0,1-.87.26,7.06,7.06,0,0,0-2.84,1.36.81.81,0,0,0-.36.41,6.39,6.39,0,0,1-1.28,1.15c-.63.48-1.25,1-1.42,1.06a24,24,0,0,0-2.47,1.47c-.11.08-.18.21-.37.2-.47,0-.62.25-.83.46s-.29.29-.45.43-.35.26-.53.39a3.79,3.79,0,0,1-.7.27c-.22.08-.51-.22-.51-.3,0-.24-.27-.22-.43-.3l-.16-.09a10.91,10.91,0,0,1,.2-1.52,8.89,8.89,0,0,1,.56-1.59s.15-.24.37-.56.52-.76.84-1.19c.67-.83,1.44-1.64,1.59-1.82a1.66,1.66,0,0,1,.61-.38l1.26-1.17c.62-.55,1.31-1,1.36-1.08a4.17,4.17,0,0,1,1.86-.77.75.75,0,0,0,.37-.14,13.58,13.58,0,0,1,3.23-1.18c.57-.14,1.12-.36,1.7-.49a1.82,1.82,0,0,1,.33,0,3,3,0,0,0,.42,0,17.78,17.78,0,0,1,4.36-.26,5.15,5.15,0,0,1,1.18.41c.5.22,1,.52,1.18.59a2.11,2.11,0,0,1,.46.5C127.67,161.72,127.8,161.94,127.91,162Z"/><path class="cls-1" d="M152,207.72c-2.24,3.73-5.51,3.23-9,1.36-2-1.06-3.75,2-1.76,3,5.2,2.79,10.5,2.84,13.77-2.62,1.17-1.94-1.86-3.7-3-1.77Z"/><path class="cls-1" d="M81.71,196.26s9.58-6.54,4.74-25.34c0,0,25.24-2.88,33.11-23.2-.21.54,19.15,2.4,20.42,2.48,14.12.85,25-4.43,29.84-15.67,3.47-8.06-1.83-22.93-11.37-25.35,0,0,6.05-28.23-38.89-17.69-21.23,5-27.86,17.14-31.66,24.21,0,0-34.28-9.33-52.28,15.39-14.4,19.77-12.41,30.27-9.77,47.29s10,20.24,3.42,32.69c-5.21,9.88-10.08,23.29-4,33.39,18.67,30.86,70.48,5.77,64.19-23.28-.12-.55-1-4.69-2.08-4.33,0,0-26,8.37-25.24-17.27C62.17,199.58,68.29,184.52,81.71,196.26Z"/><path class="cls-1" d="M164.5,158.53s3,16.95,9.71,24.51,17.3,18.77,13.62,24.16a22.23,22.23,0,0,1-12.5,8.49s9.48-6.83,2.85-16.43c-3.54-5.12-8.52-8.89-11.76-14.3C161.39,176.55,162.5,167.58,164.5,158.53Z"/><path class="cls-1" d="M78.58,310.89a3.48,3.48,0,0,1-.09-1,2.94,2.94,0,0,1,.24-1,4,4,0,0,1,1-1.39,7.15,7.15,0,0,1,1.18-.87,7.7,7.7,0,0,1,.89-.48c.16-.06.24-.13.42-.19l.2-.08c.11,0,.06-.08,0-.09l-.27-.12-.29-.11-.66-.25A4.19,4.19,0,0,1,79.33,304a2.88,2.88,0,0,1-.5-1.73,2.72,2.72,0,0,1,.57-1.69,3.88,3.88,0,0,1,1.72-1.23,5.63,5.63,0,0,1,1.94-.35c.41,0,.36.26.08.58a5.46,5.46,0,0,1-1.28,1,3.55,3.55,0,0,0-1.08.88,1.19,1.19,0,0,0-.26.92,1.33,1.33,0,0,0,.44.86,2.77,2.77,0,0,0,.58.38,3,3,0,0,0,.36.17,3.39,3.39,0,0,0,.51.19c.77.24,1.56.42,2.29.63a2.16,2.16,0,0,1,1.12.87c0,.29-.12.37-.23.56a2.26,2.26,0,0,1-.67.59c-.53.32-1.25.61-1.85.94l-.7.39-.5.31a3.33,3.33,0,0,0-1.4,1.43,1,1,0,0,0-.06.46,3.77,3.77,0,0,0,.14.58,1.22,1.22,0,0,0,.69.73,3.77,3.77,0,0,0,2,0,12.64,12.64,0,0,0,2.17-.68c1.11-.46,2.13-1.08,3.23-1.64.25-.12.48-.26.74-.37,1-.38,1.38-.33,1.71.13a2,2,0,0,1,.22.32c.16.38-.12.76-.7,1.11a28.12,28.12,0,0,1-6.18,2.88,7.09,7.09,0,0,1-3.1.31,3.44,3.44,0,0,1-1.85-.91,3.54,3.54,0,0,1-.92-1.73Z"/><path class="cls-1" d="M43.55,376.38a3.58,3.58,0,0,1-.17-.34,3.81,3.81,0,0,1-.15-.44,2.57,2.57,0,0,1,0-.91,3.62,3.62,0,0,1,.54-1.41,6.73,6.73,0,0,1,.79-1q.21-.23.42-.42a.53.53,0,0,1,.14-.1,2.67,2.67,0,0,1,.3-.26c.09,0,.29-.21.14-.19l-.26,0-.78-.08a3.56,3.56,0,0,1-1.87-.64,2.5,2.5,0,0,1-.85-1.31,2.42,2.42,0,0,1,.08-1.55,4.06,4.06,0,0,1,2.69-2.14c.34-.09.36.14.21.47a4.58,4.58,0,0,1-.81,1.17,3.08,3.08,0,0,0-.69,1,.88.88,0,0,0,0,.76c.26.5.5.77,2,.83h1.88a1.83,1.83,0,0,1,1.15.45c.09.09,0,.21,0,.27s0,.16-.07.25a1.92,1.92,0,0,1-.39.63c-2,1.84-2.87,2.58-3,3.59a.93.93,0,0,0,.06.37,2.05,2.05,0,0,0,.26.43,1,1,0,0,0,.73.41,3.33,3.33,0,0,0,1.64-.46,11.15,11.15,0,0,0,1.63-1.07c.82-.63,1.52-1.38,2.3-2.09.18-.16.34-.33.53-.48.71-.54,1.07-.59,1.46-.27a1.88,1.88,0,0,1,.26.22c.22.29.09.68-.31,1.11a24.43,24.43,0,0,1-4.45,3.8,6.38,6.38,0,0,1-2.48,1,3,3,0,0,1-1.75-.27,3,3,0,0,1-1.23-1.21Z"/><path class="cls-1" d="M154.23,325.25a1.24,1.24,0,0,0-.82.1l-.32.14-.62.39a10.83,10.83,0,0,0-1.28,1c-.21.12-.38.19-.57.28l-.27.14c-.1.05-.11,0-.16,0l-.44-.08c-.06,0-.09,0-.19-.05l-.1-.16a1,1,0,0,1-.18-.51,3,3,0,0,1,.19-1.13c.18-.5.41-1,.52-1.44.07-.23.12-.44.17-.65s0-.24.06-.36a2.84,2.84,0,0,0,0-.58,1,1,0,0,0-.38-.81.7.7,0,0,0-.81-.09,3.9,3.9,0,0,0-1.29,1.91c-.36,1-.62,2.1-.93,3.16-.09.33-.36.27-.6-.07a2.31,2.31,0,0,1-.34-1.66,9.37,9.37,0,0,1,1.33-3.55,3.69,3.69,0,0,1,.76-.84,2.41,2.41,0,0,1,1.3-.55,3.11,3.11,0,0,1,.76.08c.21.09.42.18.62.29a2.35,2.35,0,0,1,.89,1,3.47,3.47,0,0,1,.29,1.39c0,.22,0,.43,0,.64l0,.16,0,.09a3.29,3.29,0,0,1-.21.68.84.84,0,0,0-.09.25l.15-.11c.1-.08.22-.15.36-.25l.35-.17.42-.17c.18-.07.38-.12.57-.18a2.39,2.39,0,0,1,1.92.24,2.36,2.36,0,0,1,.92,1.66,6.4,6.4,0,0,1,0,1.23,4.34,4.34,0,0,1-.31,1.24,10.56,10.56,0,0,1-1.15,2,12.1,12.1,0,0,1-2.38,2.69,6,6,0,0,1-.69.48c-1,.51-1.53.34-1.73-.15a1.66,1.66,0,0,1-.13-.32.71.71,0,0,1,.17-.52,1.45,1.45,0,0,1,.49-.4,11.77,11.77,0,0,0,3.48-4,5.4,5.4,0,0,0,.34-.83,2.46,2.46,0,0,0,.07-.33l0-.47c0-.15,0-.28,0-.42s0-.22-.06-.28,0-.07-.07-.12Z"/><path class="cls-1" d="M110,349.65a2.52,2.52,0,0,1-.19-.74,4.82,4.82,0,0,1,0-.66l.13-.57.18-.51c.06-.16.14-.3.21-.45l.05-.09s0,0,0,0l0,0,.12-.13.26-.25c0-.06.13-.11.11-.14a1,1,0,0,1-.17.05l-.31,0h-.51l-.43,0a2.86,2.86,0,0,1-1.76-.72,2.05,2.05,0,0,1-.54-.83,2.56,2.56,0,0,1-.2-.91,3.55,3.55,0,0,1,1.39-2.65,5.5,5.5,0,0,1,3.23-1.44c.4,0,.34.28.11.6a3.56,3.56,0,0,1-1.08,1,5,5,0,0,0-2,1.8,1,1,0,0,0-.07.89.83.83,0,0,0,.58.58,2.2,2.2,0,0,0,.76.09H110l.21,0,.45-.09c.3-.07.61-.17.94-.28a5.15,5.15,0,0,1,1-.29,2.72,2.72,0,0,1,.65,0,2,2,0,0,1,.6.19s.08,0,.12.09l0,.14c0,.1,0,.14-.06.3a1.12,1.12,0,0,1-.12.45l-.45.73-.75.85c-.19.28-.37.53-.56.83a3.25,3.25,0,0,0-.37.88.82.82,0,0,0,.12.76,1.54,1.54,0,0,0,.92.36,3.34,3.34,0,0,0,1.82-.21,7.26,7.26,0,0,0,1.73-1,7.58,7.58,0,0,0,2-2.31c.11-.18.16-.37.26-.55.3-.68.33-.77.88-.94.11,0,.22-.09.33-.12a.41.41,0,0,1,.5.22,1.38,1.38,0,0,1,.13,1,6.48,6.48,0,0,1-1.69,3,10.51,10.51,0,0,1-2.75,2.07,7.2,7.2,0,0,1-1.3.52,4.79,4.79,0,0,1-1.53.15,5,5,0,0,1-.72-.08,3.14,3.14,0,0,1-.78-.21,3,3,0,0,1-.84-.45,2.61,2.61,0,0,1-.68-.89Z"/><path class="cls-1" d="M114.1,398.89a2.2,2.2,0,0,1,.65-.4,3.58,3.58,0,0,1,.64-.18l.58-.06.53,0c.18,0,.33.05.5.07l.1,0h0l0,0,.16.07.32.17c.07,0,.14.09.17.07s-.09-.11-.11-.15l-.11-.28-.07-.21s0,0,0-.08l-.07-.2c0-.14-.08-.28-.11-.42a2.85,2.85,0,0,1,.17-1.89,2,2,0,0,1,.63-.76,2.5,2.5,0,0,1,.81-.46,3.52,3.52,0,0,1,2.94.54,5.51,5.51,0,0,1,2.33,2.67c.13.37-.16.4-.54.27a3.35,3.35,0,0,1-1.29-.73,5.11,5.11,0,0,0-2.32-1.4,1,1,0,0,0-.87.2.78.78,0,0,0-.38.72,2,2,0,0,0,.14.75l0,.11a2.05,2.05,0,0,0,.08.19l.22.4a9.55,9.55,0,0,0,.54.82,5.64,5.64,0,0,1,.57.83,2.71,2.71,0,0,1,.23.62,2.07,2.07,0,0,1,0,.62s0,.08,0,.15h-.14a2.24,2.24,0,0,0-.31,0,1.41,1.41,0,0,1-.47,0l-.82-.21-1-.46c-.32-.1-.61-.2-1-.29a3.3,3.3,0,0,0-1-.1.81.81,0,0,0-.68.34,1.52,1.52,0,0,0-.08,1,3.44,3.44,0,0,0,.73,1.68,7.32,7.32,0,0,0,1.46,1.37,7.68,7.68,0,0,0,2.78,1.21c.21.06.41,0,.61.08.73.09.83.1,1.15.56.07.1.16.19.22.29a.42.42,0,0,1-.06.54,1.37,1.37,0,0,1-.91.42,6.45,6.45,0,0,1-3.39-.73,10.46,10.46,0,0,1-2.8-2,6.49,6.49,0,0,1-.87-1.1,4.29,4.29,0,0,1-.59-1.41,3,3,0,0,1-.14-.71,3,3,0,0,1,0-.81,3.42,3.42,0,0,1,.19-.93,2.42,2.42,0,0,1,.65-.91Z"/><path class="cls-1" d="M190.21,340c0,1.59-2.17,2-3,.7C185.89,338.65,190.21,337.33,190.21,340Z"/><path class="cls-1" d="M197.24,348.38a1.36,1.36,0,0,1-2.51.58C193.63,347.26,197.24,346.15,197.24,348.38Z"/><path class="cls-1" d="M189.08,348.58a1.1,1.1,0,0,1-2,.47C186.13,347.66,189.08,346.75,189.08,348.58Z"/><path class="cls-1" d="M207,342.26c0,1.58-2.17,2-3,.69C202.65,340.91,207,339.59,207,342.26Z"/><path class="cls-1" d="M287.58,284c0,1.58-2.17,2-3,.69C283.26,282.61,287.58,281.29,287.58,284Z"/><path class="cls-1" d="M284.33,274.07a1.35,1.35,0,0,1-2.5.58C280.72,272.94,284.33,271.84,284.33,274.07Z"/><path class="cls-1" d="M273.53,279a1.11,1.11,0,0,1-2,.47C270.57,278,273.53,277.13,273.53,279Z"/><path class="cls-1" d="M277.33,270.13c0,1.59-2.17,2-3,.7C273,268.79,277.33,267.46,277.33,270.13Z"/><path class="cls-1" d="M285,241.63a9.67,9.67,0,0,1,4.87.55,16.8,16.8,0,0,1,4,2.31c2.37,1.8,4.3,3.89,6.46,5.46a13.13,13.13,0,0,1,2.48,2.35,9.48,9.48,0,0,1,1.65,3,27.43,27.43,0,0,1,1.77,11.11,65.16,65.16,0,0,1-1.48,10.94c-.66,3.17-1.35,6.33-1.91,9.46a78.77,78.77,0,0,0-1.35,12.09c-.05,1.25-.43,1.13-.87.06a10.84,10.84,0,0,1-.64-2.27,15,15,0,0,1-.16-3.3,84.12,84.12,0,0,1,2-12.56A116.46,116.46,0,0,0,304,268.53a35.2,35.2,0,0,0,.12-3.71c0-.62,0-1.25-.09-1.87l-.25-1.85a14.39,14.39,0,0,0-.39-1.82,12.24,12.24,0,0,0-.52-1.79l-.65-1.74a7.52,7.52,0,0,0-.81-1.54,10.59,10.59,0,0,0-2.77-2.73c-1.2-.9-2.26-1.87-3.32-2.81-2.11-1.86-4.24-3.72-6.72-4.51a6.59,6.59,0,0,0-1.15-.26c-.19,0-.38-.07-.58-.08h-.58a6.42,6.42,0,0,0-1.16.11.94.94,0,0,0-.64.39,7.64,7.64,0,0,0-1.18,2,21.18,21.18,0,0,0-.86,2.39,38.26,38.26,0,0,0-1.45,7.65,23.59,23.59,0,0,0,0,3.85,10.64,10.64,0,0,0,.32,1.82,3.31,3.31,0,0,0,.73,1.4,1,1,0,0,0,.84.24l.26-.05.27-.11a2.33,2.33,0,0,0,.53-.3,5.52,5.52,0,0,0,1.63-2.06,12.12,12.12,0,0,0,.95-2.65c.11-.46.19-.93.27-1.39l.07-.7c0-.29,0-.72,0-1.07s-.05-.78-.08-1.17l0-.3,0-.2.1-.4.05-.2L287,253l.14-.17,0,0h0c.06.08-.12-.2.13.19h0l0,0,.1-.07a2.32,2.32,0,0,1,.23-.14,2.41,2.41,0,0,1,1.46.43c.53.29,1,.54,1.44.74l1.12.51c.57.25.76.41,1.14.54a1.46,1.46,0,0,0,.59,0c.14,0,.23.06.22.25a1.13,1.13,0,0,1-.56.81,2.65,2.65,0,0,1-1.57.39,5.45,5.45,0,0,1-1.84-.4c-.26,0-.46-.14-.56-.1a1.81,1.81,0,0,1,.08.34,1.77,1.77,0,0,1,0,.47,14.93,14.93,0,0,1-1.75,5.93,7.6,7.6,0,0,1-2.36,2.64,3.91,3.91,0,0,1-.91.47l-.49.19-.59.11-.3,0-.34,0a3.85,3.85,0,0,1-.68-.1,5.32,5.32,0,0,1-.66-.26,3.07,3.07,0,0,1-.56-.38,4.41,4.41,0,0,1-1.27-1.79,4.92,4.92,0,0,1-.3-.86,7.11,7.11,0,0,1-.2-.83,17.33,17.33,0,0,1-.28-3.16,37.85,37.85,0,0,1,1.15-8.84,29.45,29.45,0,0,1,1.39-4.3,13.37,13.37,0,0,1,1.15-2.16,5.25,5.25,0,0,1,1-1.13,5.09,5.09,0,0,1,.42-.29l.48-.19a2.32,2.32,0,0,1,.78-.19Z"/><path class="cls-1" d="M285.63,268.59a4.43,4.43,0,0,1-1.39-1.43,3.61,3.61,0,0,1-.47-2.18,5.88,5.88,0,0,1,1.45-3,11.19,11.19,0,0,1,1.33-1.48,7.23,7.23,0,0,1,.69-.58,4.91,4.91,0,0,1,.81-.53,5.15,5.15,0,0,1,.89-.42,4.6,4.6,0,0,1,.94-.28,9.13,9.13,0,0,1,3.58,0l2.84.54a23.29,23.29,0,0,1,3.36.59c.33.12.29.8-.07,1.44a2,2,0,0,1-1.84,1.13c-2.62-.37-4.8-1.28-6.69-1.34a2.68,2.68,0,0,0-1.6.47,4.5,4.5,0,0,0-.69.55l-.74.74a7.53,7.53,0,0,0-1.3,1.64,1.93,1.93,0,0,0-.24.7.71.71,0,0,0,.11.52,3.92,3.92,0,0,0,2,1.16,18,18,0,0,0,4.37.68,25.39,25.39,0,0,0,3.48-.29,6.73,6.73,0,0,1,.77-.09c1,0,1.27.18,1.47,1,.05.19.11.37.14.55a1.2,1.2,0,0,1-1,1.31,18.13,18.13,0,0,1-6.72.26,20.14,20.14,0,0,1-2.67-.5,10.45,10.45,0,0,1-2.85-1.15Z"/><path class="cls-1" d="M285.69,269.46a12.6,12.6,0,0,1-1.26-.66c-.21-.13-.41-.25-.61-.4l-.3-.21-.14-.12h0v0l-.05-.06-.07,0h-.1a4.54,4.54,0,0,1-1.55-.24,5,5,0,0,1-1.19-.68c-.18-.13-.34-.28-.5-.42l-.23-.24a.46.46,0,0,1-.07-.1l-.12-.2a1.3,1.3,0,0,1-.22,0s-.3.06-.5,0a4.4,4.4,0,0,1-.64,0,9.38,9.38,0,0,1-2.13-.58,4.82,4.82,0,0,1-2.24-1.45c-.19-.24.23-.62.73-.9s1.09-.48,1.43-.27a11.14,11.14,0,0,0,1.6.83,4,4,0,0,0,.74.24,2.29,2.29,0,0,0,.34.07.94.94,0,0,0,.55-.05l.84.24a.84.84,0,0,1,.14.06,6.25,6.25,0,0,0,.62.29,4.31,4.31,0,0,0,.32.38,1.62,1.62,0,0,0,.19.18,2,2,0,0,0,.42.3,3.23,3.23,0,0,0,.91.37,2.5,2.5,0,0,0,.8.07l.53.13.49.22.4.31.32.23c.23.15.46.29.71.42a10.18,10.18,0,0,0,1.83.75,11.65,11.65,0,0,0,3,.52,11.45,11.45,0,0,0,2.34-.3c.17,0,.33-.08.5-.11.64-.11.85,0,1.07.56.05.13.11.25.15.38a.8.8,0,0,1-.59,1,10.12,10.12,0,0,1-4.8.47,13.94,13.94,0,0,1-3.65-.95Z"/><path class="cls-1" d="M270.38,315.32c10.59,4.57,34.87-12.69,35.05-18.74.1-3.34-4.93-1.05-4.93-1.05l.84,2.21a48.18,48.18,0,0,1-12.44,10.71C281.62,312.53,269.76,315.05,270.38,315.32Z"/><path class="cls-1" d="M291.1,319.85c-1.1.51-2.23,1-3.36,1.44-.41.17-.81.37-1.22.54-1.46.57-2.94,1.1-4.42,1.61-.65.24-1.3.49-1.94.75a13.74,13.74,0,0,1-2.51.85c-.54.11-.22-1.1.71-1.47,1.66-.66,3.31-1.3,5-1.87a30.62,30.62,0,0,0,3-1.31l3.31-1.52c.68-.31,1.36-.63,2-1,1-.5,2-1,3-1.55.77-.42,1.48-.9,2.22-1.35.17-.1.32-.21.49-.3.62-.35.86-.38,1.15-.17a1.73,1.73,0,0,1,.2.14c.18.18,0,.51-.38.85a26,26,0,0,1-4,2.69c-1.08.58-2.19,1.12-3.29,1.66Z"/><path class="cls-1" d="M287,327.31c-.39.07-.78.14-1.17.19-.14,0-.28.06-.42.07-.51,0-1,0-1.51,0-.22,0-.44,0-.65,0a1.28,1.28,0,0,1-.84-.06c-.08,0-.06-.24,0-.46s.21-.5.35-.5a9.26,9.26,0,0,1,1.58,0,3.54,3.54,0,0,0,1-.13c.35-.07.7-.14,1.05-.23s.44-.11.65-.18a6.42,6.42,0,0,0,.94-.39,3.19,3.19,0,0,0,.6-.5,1.42,1.42,0,0,1,.13-.12c.17-.13.27-.09.49.18l.15.18a.54.54,0,0,1,.09.59,2.93,2.93,0,0,1-1.27,1,9.07,9.07,0,0,1-1.15.37Z"/><path class="cls-1" d="M420.56,292.18a16.7,16.7,0,0,0,2.89-.53c.35-.09.67-.24,1-.36a7.23,7.23,0,0,0,1.66-.8c.57-.34,1.13-.69,1.67-1.05a16,16,0,0,0,1.36-1.07c.56-.48,1.05-1,1.63-1.45.19-.14.38.06.46.4a1.33,1.33,0,0,1-.27,1.17,13.82,13.82,0,0,1-3.73,2.88,16.24,16.24,0,0,1-2.61,1.43,17.23,17.23,0,0,1-3.12.8,18.69,18.69,0,0,1-2,.23,15.16,15.16,0,0,1-3-.1,8.76,8.76,0,0,1-2.37-.48c-.16-.09-.33-.16-.5-.26-.6-.38-.66-.69-.46-1.06a1.35,1.35,0,0,1,.15-.26.76.76,0,0,1,.9-.15,13.64,13.64,0,0,0,3.42.69,15.6,15.6,0,0,0,2.89-.07Z"/><path class="cls-1" d="M401.82,300.13a12.3,12.3,0,0,0,3.53.09,9.6,9.6,0,0,0,1.23-.3,11,11,0,0,0,4-2.18,6.25,6.25,0,0,0,1.32-1.55,7.43,7.43,0,0,0,.86-2.29c.07-.24.42-.25.77,0a1.43,1.43,0,0,1,.49,1.51,8.13,8.13,0,0,1-4.08,4.65,14.35,14.35,0,0,1-3.39,1.56,12.92,12.92,0,0,1-4.05.3,16.6,16.6,0,0,1-2.43-.38,16.3,16.3,0,0,1-3.5-1.27,13.35,13.35,0,0,1-2.52-1.51,5.22,5.22,0,0,1-.48-.46c-.55-.63-.55-1-.25-1.34a1.83,1.83,0,0,1,.21-.26.84.84,0,0,1,1.08.15,17.74,17.74,0,0,0,3.82,2.31,13.69,13.69,0,0,0,3.39.92Z"/><path class="cls-1" d="M385,303.1a16.73,16.73,0,0,1-4,.79l-.75.07h-.76a10.92,10.92,0,0,1-5-1.5c-.35-.17-.65-.43-1-.63a5.72,5.72,0,0,1-.94-.67,10.05,10.05,0,0,1-1.08-1,13.63,13.63,0,0,1-.86-1.18c-.16-.26,0-.36.37-.32a2.47,2.47,0,0,1,1.26.5c.32.33.77.49,1.09.81a8.08,8.08,0,0,0,1.08.76l.56.36.59.3.59.31.62.25a6.39,6.39,0,0,0,.77.28l.82.13a13.35,13.35,0,0,0,1.67.09,13.64,13.64,0,0,0,3.68-.57,16.53,16.53,0,0,0,2.2-.79c.52-.27,1.07-.51,1.58-.81s1-.6,1.5-1,.71-.57,1.05-.88.64-.64,1-.95c.15-.13.27-.29.42-.43.53-.52.78-.6,1.17-.44a1,1,0,0,1,.26.11c.27.15.22.54-.12,1a12.61,12.61,0,0,1-1.76,2,16.93,16.93,0,0,1-2.22,1.6,19.57,19.57,0,0,1-3.71,1.8Z"/><path class="cls-1" d="M358,292.88a9,9,0,0,1-1.19.19,2.22,2.22,0,0,1-.45.06,3.48,3.48,0,0,1-1.64-.38,3.86,3.86,0,0,1-.66-.42,1.08,1.08,0,0,1-.52-.85c0-.12.33-.19.67-.25a2.22,2.22,0,0,1,.69-.06,2.27,2.27,0,0,0,.63.56c.22.15.51.06.79,0a5.72,5.72,0,0,0,1-.15c.2-.06.41-.11.61-.18a5,5,0,0,0,.89-.39,3.86,3.86,0,0,0,.58-.49.68.68,0,0,1,.12-.12c.17-.12.27-.07.5.21l.15.19a.58.58,0,0,1,.12.62,2.52,2.52,0,0,1-1.13,1,10.51,10.51,0,0,1-1.11.41Z"/><path class="cls-1" d="M391.45,192.56a14,14,0,0,1,.65,8.24l-.31,1.43c-.11.47-.25.93-.39,1.39a33.94,33.94,0,0,1-4.78,8.76c-.87,1.18-1.77,2.34-2.71,3.45a14.72,14.72,0,0,1-4.24,3.76c-.54.28-.73-.23-.62-.92a4.05,4.05,0,0,1,1.17-2.23,46.57,46.57,0,0,0,6.72-8.35,21.45,21.45,0,0,0,2.53-6.09,17,17,0,0,0,.58-3.52,10.55,10.55,0,0,0-.31-3.46,8.41,8.41,0,0,0-2-3.69,12.28,12.28,0,0,0-5.7-3.27,14.12,14.12,0,0,0-2.57-.45c-.44,0-.87-.09-1.3-.11l-1.31,0H375.7c-1.44,0-1.89-.2-2.19-.95a3.33,3.33,0,0,1-.21-.52c-.14-.57.48-1,1.6-1.14a20.45,20.45,0,0,1,10.44,1.69,12.33,12.33,0,0,1,6.17,6Z"/><path class="cls-1" d="M381.75,208c-1.45,1.46-3.52.11-4.05-1.75-.6-2.09,0-7.16,3.34-4.92a4.77,4.77,0,0,1,1,6.29A3.05,3.05,0,0,1,381.75,208Z"/><path class="cls-1" d="M398.69,212.76c-1.45,1.46-3.52.11-4.05-1.75-.6-2.09,0-7.16,3.34-4.92a4.77,4.77,0,0,1,1,6.29A3.05,3.05,0,0,1,398.69,212.76Z"/><path class="cls-1" d="M404.33,190.63a24,24,0,0,1,3.13.25,9.21,9.21,0,0,1,1.16.15,11,11,0,0,1,3.76,1.82c.51.34,1,.72,1.46,1.08.29.25.59.48.87.74a3.24,3.24,0,0,1,.64,1c.09.23-.35.53-.88.72s-1.14.3-1.39,0a27.22,27.22,0,0,0-2.93-2.33,6.08,6.08,0,0,0-2.28-.64,17.54,17.54,0,0,0-2.77-.29c-.58,0-1.18,0-1.77,0a20.5,20.5,0,0,0-2.71.23c-.7.09-1.37.31-2.06.45-.15,0-.29.08-.45.1-.57.08-.77,0-1-.56,0-.12-.1-.23-.13-.35a.85.85,0,0,1,.47-1,13.16,13.16,0,0,1,1.84-.81,9.75,9.75,0,0,1,1-.3l1-.14c1-.12,2-.17,3.05-.2Z"/><path class="cls-1" d="M381.18,231.4c2.5,1.46,5.71.27,7.41-1.88,1-1.25-.77-3-1.77-1.77s-2.82,2.4-4.38,1.49a1.25,1.25,0,0,0-1.26,2.16Z"/><path class="cls-1" d="M243.11,258.76a9,9,0,0,1,6.3,5.26c.89,1.88,3.7.24,2.8-1.64a12,12,0,0,0-8.23-6.75,1.63,1.63,0,0,0-.87,3.13Z"/><path class="cls-1" d="M255.18,232.56a19.89,19.89,0,0,0,2.12,10.3c.89,1.89,3.69.24,2.81-1.64a16.55,16.55,0,0,1-1.68-8.66c.19-2.08-3.06-2.07-3.25,0Z"/><path class="cls-1" d="M188.08,317.71a15.48,15.48,0,0,1,2.74,4.34,1.67,1.67,0,0,0,2,1.13,1.64,1.64,0,0,0,1.14-2,20.65,20.65,0,0,0-3.58-5.77c-1.39-1.56-3.68.74-2.3,2.3Z"/><path class="cls-1" d="M201.53,305.63c.57-2.55,1.12-5.09,1.9-7.58.63-2-2.51-2.86-3.14-.87-.77,2.49-1.33,5-1.89,7.58-.45,2,2.68,2.91,3.13.87Z"/><path class="cls-1" d="M214.38,325.29a11,11,0,0,1,5.6-4c2-.59,1.15-3.72-.87-3.14a13.89,13.89,0,0,0-7,4.84c-1.28,1.63,1,3.94,2.3,2.3Z"/><path class="cls-1" d="M445.59,369.82c-.55-1.65-1.11-3.29-1.73-4.91-.21-.59-.51-1.15-.74-1.74-.8-2.07-1.62-4.14-2.61-6.13a22.9,22.9,0,0,0-1.48-2.55L438,352.94a11.33,11.33,0,0,1-1-1.62c-.33-.72,1.82-1.06,2.73.17a32.09,32.09,0,0,1,3.77,7c.57,1.49,1.37,2.93,2,4.41.69,1.63,1.33,3.28,1.95,4.94l1.14,3.05c.58,1.54,1.11,3.1,1.75,4.59.49,1.16,1.13,2.24,1.72,3.35.13.24.28.47.4.72.44.92.39,1.29-.21,1.78a3.29,3.29,0,0,1-.41.33c-.49.31-1.08.1-1.52-.54a29.8,29.8,0,0,1-3-6.31c-.6-1.65-1.19-3.3-1.79-5Z"/></g></svg>