<svg xmlns="http://www.w3.org/2000/svg" width="520" height="520" viewBox="0 0 520 520"><defs><style>.cls-1,.cls-3{fill:#231f20;}.cls-2{opacity:0.3;}.cls-3{opacity:0.2;}</style></defs><title>notioly upgrade</title><g id="n.114_Tools" data-name="n.114 Tools"><path class="cls-1" d="M196.66,414.31q-15.76-4-31.44-8.38c-3.82-1.05-7.65-2-11.45-3.14l-5-1.47-5-1.56c-3.33-1.05-6.68-2.05-10-3.13-6.62-2.22-13.26-4.37-19.81-6.8-5.86-2-11.67-4.29-17.45-6.42-3.69-1.43-7.34-3-11-4.52-.91-.4-1.83-.76-2.71-1.23l-2.64-1.41c-1.74-1-3.49-1.9-5.18-3-2-1.43-1.44-1.79.87-1.72A29.27,29.27,0,0,1,86,374.28c14.47,6.58,29.56,11.93,44.79,17.32,4.55,1.66,9.28,3.06,14,4.46s9.58,2.72,14.34,4.09c10.47,3,21,5.84,31.54,8.6q9.73,2.56,19.51,5c9.86,2.46,19.77,4.94,29.6,7.25,7.64,1.8,15.17,3.36,22.74,5.16,1.66.4,3.3.75,5,1.17a41,41,0,0,1,6.49,2.06,6.36,6.36,0,0,1,2.62,1.8,6.57,6.57,0,0,1,.7.83c.41.74-2.31.78-6.86-.21-13.49-3-27.73-6.22-42-9.63-10.6-2.51-21.25-5.12-31.86-7.76Z"/><g class="cls-2"><path class="cls-1" d="M135.14,142.68c-2.3-1.42-4.91-1.88-7.29-3.07-4-2-5.86-7.65-5-12,.45-2.28,2.56-6.94,5-7.57.73-.18,2.11.36,3,.59,5.76,1.47,11.49,3.09,17.21,4.72,17.16,4.88,34.25,10,51.32,15.23q56.4,17.15,112.56,35.11c10.72,3.43,21.55,6.65,32.12,10.52,3,1.11,4.33-3.72,1.33-4.82C317,171,287.71,162.73,258.84,153.72c-38.69-12.08-77.4-24.29-116.46-35.14C136.92,117.07,129,113,124,116.89a16.7,16.7,0,0,0-5.79,17.31c.77,3,2.45,6.57,4.9,8.51,2.74,2.16,6.56,2.47,9.51,4.29,2.75,1.69,5.26-2.64,2.52-4.32Z"/></g><path class="cls-1" d="M95.91,213c.39-7.29,1.41-12.7,7.34-17.46,2.71-2.18,5.31-4.09,7.51-6.83,2.06-2.56,3.7-5.41,5.66-8,5.62-7.51,15.14-9.85,23.6-12.92q14.5-5.25,29.34-9.51c3.09-.9,1.78-5.72-1.33-4.83q-16.58,4.8-32.77,10.78c-8.4,3.13-16.77,5.64-22.42,13-2.37,3.07-4.24,6.53-6.81,9.44-2.71,3.07-6.4,5-9.2,8-4.88,5.17-5.56,11.58-5.92,18.4-.17,3.21,4.83,3.2,5,0Z"/><path class="cls-1" d="M132.91,208.15l9.15-4.18s12.15,19.56,13.79,20.78,1.27,6.31,0,8.31c0,0,16.49,41.14,17.79,41.8s-10-2.49-10-2.49L144.56,224S133.7,210.65,132.91,208.15Z"/><path class="cls-1" d="M187.25,157.86l-.7-11.56,2.74-.26,4.57,25.45-3.76,1.67-3.15-7s-8.14,1.6-9,3.48c-.46,1-1.42-1.71-1.5-3.38-.06-1.3,5.62-3.74,8.61-5.66C187.43,159,187.25,157.86,187.25,157.86Z"/><path class="cls-1" d="M151.87,202.28c-1.83.28-3.66.55-5.46.93-.66.13-1.25.45-1.9.58-1.16.22-2.32.45-3.47.7s-2.34.44-3.46.77a13.33,13.33,0,0,0-2.84,1.23,9.63,9.63,0,0,1-3.5,1.72c-.44,0-1.08-1-1.44-2.2s-.4-2.65.29-3.19a18.56,18.56,0,0,1,8.08-3.55,37,37,0,0,0,5.05-1.58c1.87-.51,3.75-.92,5.62-1.32l3.45-.72c1.73-.4,3.49-.67,5.16-1.23a24.93,24.93,0,0,0,3.67-1.88,7.67,7.67,0,0,1,.79-.45c1-.38,1.51,0,2.19,1.7.15.38.32.75.46,1.13a3.11,3.11,0,0,1-.35,3.18c-2,1.83-4.42,2.54-6.85,3.17-1.79.46-3.64.76-5.45,1.17Z"/><path class="cls-1" d="M199.89,207.38c-2.43-.76-4.86-1.54-7.3-2.27-.9-.26-1.81-.45-2.7-.72l-9.46-2.77c-1.4-.41-2.82-.77-4.23-1.12a51.27,51.27,0,0,1-5.38-1.52c-.54-.2-.4-.46.16-.64a5.54,5.54,0,0,1,2.56-.12c1.87.34,3.73.7,5.59,1.11s3.71.86,5.53,1.45c2.19.68,4.54,1.13,6.81,1.73,2.49.65,5,1.35,7.46,2.07l4.56,1.37,6.89,2.13c1.78.52,3.57.92,5.34,1.43l1.16.33c1.42.53,1.78,1,1.91,1.55a2.27,2.27,0,0,1,.08.41c0,.41-.69.55-1.82.45a72.54,72.54,0,0,1-9.82-2.56c-2.44-.75-4.89-1.53-7.35-2.25Z"/><path class="cls-1" d="M256.9,223.37c-1.31-.42-2.62-.88-3.95-1.28-.48-.15-1-.23-1.46-.38l-5.14-1.59c-.76-.23-1.54-.42-2.31-.6a16.86,16.86,0,0,1-2.92-.87c-.29-.14-.18-.41.15-.65a2.18,2.18,0,0,1,1.47-.41c1,.12,2,.26,3.06.45a18.84,18.84,0,0,1,3,.77c1.18.41,2.48.58,3.72.88s2.73.7,4.08,1.09l2.5.76c1.26.37,2.5.83,3.76,1.18,1,.3,2,.45,3,.74a4.81,4.81,0,0,1,.65.18c.77.33.9.7.87,1.24a2.33,2.33,0,0,1,0,.38c-.08.39-.53.59-1.17.63a22.42,22.42,0,0,1-5.32-1.22c-1.3-.41-2.61-.85-3.95-1.24Z"/><path class="cls-1" d="M338,246.1c-.65-.22-1.31-.43-2-.62-.24-.07-.49-.08-.74-.16l-2.57-.86c-.38-.12-.77-.22-1.15-.31a3.55,3.55,0,0,1-1.43-.5c-.14-.1,0-.43.2-.75s.56-.63.84-.6a14.2,14.2,0,0,1,1.46.18,8,8,0,0,1,1.42.44,7.69,7.69,0,0,0,1.81.29c.67.11,1.34.24,2,.37l1.26.24c.64.11,1.27.28,1.91.33a13.28,13.28,0,0,0,1.53-.11c.11,0,.23,0,.34,0,.41,0,.5.25.43,1,0,.18,0,.36,0,.53a1.39,1.39,0,0,1-.67,1.16,4.13,4.13,0,0,1-1.37.22,7.61,7.61,0,0,1-1.32-.23c-.65-.15-1.3-.36-2-.53Z"/><path class="cls-1" d="M225.54,257.56c-2.22,9.24-8.27,16.95-10.79,26.11-.86,3.11,4,4.44,4.82,1.33,2.52-9.15,8.56-16.85,10.79-26.11.75-3.13-4.07-4.47-4.82-1.33Z"/><path class="cls-1" d="M226.4,261.81a32,32,0,0,0,16.74-2.08c2.94-1.29.4-5.6-2.52-4.32-4.44,1.93-9.5,2-14.22,1.4-3.19-.39-3.16,4.62,0,5Z"/><path class="cls-1" d="M218.41,156.64c-2.56,5.89-6.8,13.35-4.72,19.92,1.26,4,4.35,7.05,5.93,10.88,1.07,2.61,1.27,5.55,1.64,8.33,1.61,12,3.07,24.07,4,36.13.24,3.19,5.24,3.22,5,0-.84-11.32-2.23-22.64-3.67-33.9-.68-5.31-1-10.59-3.74-15.31-2.15-3.73-5.2-6.94-4.47-11.51.66-4.12,2.74-8.23,4.39-12,1.27-2.92-3-5.47-4.32-2.53Z"/><path class="cls-1" d="M272.78,237.24a35.7,35.7,0,0,1-4.19-8l-.67-2.15-.34-1.07-.23-1.1-.44-2.19c-.12-.73-.16-1.48-.24-2.22l-.17-1.62,0-1.63a19.51,19.51,0,0,1,.12-3.24,38,38,0,0,1,8.81-20.44,40.22,40.22,0,0,1,7.23-6.81,26.14,26.14,0,0,1,5.61-3.16,11.67,11.67,0,0,1,1.55-.5l1.61-.32c.54-.09,1.09-.1,1.63-.15a9.11,9.11,0,0,1,1.64.16c1.35.13,1.1.58.08,1.25-.25.16-.55.37-.88.61a6.27,6.27,0,0,1-1.07.76c-.39.21-.8.48-1.22.74s-.89.46-1.36.72a29,29,0,0,0-9.49,6.25,43.06,43.06,0,0,0-3.94,4.36,40.59,40.59,0,0,0-3.27,5,29,29,0,0,0-3.45,14A30.35,30.35,0,0,0,274,232l.63,1.07a7.19,7.19,0,0,0,.67,1l1.46,2a32.61,32.61,0,0,0,3.46,3.59,29.57,29.57,0,0,0,13.28,7,26.34,26.34,0,0,0,11.38.1c.81-.15,1.59-.39,2.4-.6a15.09,15.09,0,0,1,3.26-.66,3,3,0,0,1,1.85.67,5.17,5.17,0,0,1,.7.55c.31.34.21.79-.25,1.35a6,6,0,0,1-2.46,1.69,26.32,26.32,0,0,1-11.73,2,32.87,32.87,0,0,1-6.05-.94c-1-.21-2-.6-2.94-.9l-1.47-.49-1.42-.64c-.7-.32-1.41-.62-2.09-1l-2-1.17-1-.59-.93-.69L279,244a35.82,35.82,0,0,1-6.25-6.71Z"/><path class="cls-1" d="M277.83,251c-6.46,15.18-12.64,30.48-18.87,45.76-1.21,3,3.62,4.27,4.82,1.33,6.07-14.88,12.08-29.78,18.37-44.57,1.25-2.93-3.06-5.48-4.32-2.52Z"/><path class="cls-1" d="M278.3,252.56c4.15,2.25,9,2.38,13.61,2.34,3.22,0,3.22-5,0-5-3.68,0-7.76.14-11.09-1.66-2.83-1.54-5.35,2.78-2.52,4.32Z"/><path class="cls-1" d="M249.38,251.4a27.29,27.29,0,0,0-7.21-8c-4.58-3.27-15.78-8.36-23.76-2.31s-3.72,14.45,8.2,13.7A179.26,179.26,0,0,0,249.38,251.4Z"/><g class="cls-2"><path class="cls-1" d="M162.83,307.61c6.66,2.48,13.8,3.9,20.73,5.41,6.47,1.4,13.11,3,19.73,3.42,3.22.2,3.2-4.8,0-5-6.57-.42-13.2-2.1-19.61-3.51s-13.24-2.81-19.52-5.14c-3-1.12-4.33,3.71-1.33,4.82Z"/></g><g class="cls-2"><path class="cls-1" d="M347.12,299c.12-.15.37-.32.45-.48-.38.28-.44.34-.19.18s.17-.1-.28.1l.29-.08c.3-.06.19-.05-.34,0,.72-.07-.51-.14-.08,0,.28.09.18.05-.31-.14.25.15.16.08-.25-.22.2.21.15.12-.17-.27.14.26.12.16-.09-.28a1.58,1.58,0,0,1,.09.31c-.05-.48-.06-.55,0-.23,0,.14,0,.28,0,.41.06-.43.06-.49,0-.2s-.06.22.11-.25c-.16.25-.09.16.22-.27a1.64,1.64,0,0,1,1.31-.55c-.42,0,.82.24.16,0,.48.22.59.26.32.13-.08-.05-.16-.09-.24-.15.38.31.46.37.23.18l-.22-.21c-.55-.5.23.36,0,0-.41-.62.08.42,0,0-.21-.76,0,.52,0,0a2.89,2.89,0,0,0-5.77,0,6.36,6.36,0,0,0,3.32,5.24,4.22,4.22,0,0,0,6.16-2.41,5.2,5.2,0,0,0-2.23-6.24,5.27,5.27,0,0,0-6.4,1.37,3,3,0,0,0,0,4.08c1,1,3.07,1.26,4.07,0Z"/></g><g class="cls-2"><path class="cls-1" d="M385.7,287.64c0-.11.06-.23.08-.34.07-.38-.07.14-.11.25,0-.08.32-.51,0-.07s.19-.07-.24.24-.14.09,0,0c.31-.14-.67.25-.36.14s.07.17-.36,0c.06,0,.17,0,.24,0,.34,0-.77-.22-.18,0,.35.13-.35-.15-.36-.15s.41.28,0,0c-.59-.47.37.48-.1-.1-.31-.37-.13-.15-.07,0s-.26-.75-.14-.29c0-.05,0-.76-.05-.38s0-.33.06-.35-.3.78,0,.09c-.21.44.32-.36.11-.15s.51-.35.24-.19a1.54,1.54,0,0,1,.68-.2c-.29,0,.8.15.31,0s.27.11.31.14c-.32-.18.2.18.25.22l-.2-.2c.05.05.4.56.21.23.09.16.24.66.11.2s.09.65.06.28-.15.74,0,.15a2.88,2.88,0,1,0-5.56-1.54,4.91,4.91,0,0,0,3.56,6.13,4.76,4.76,0,0,0,5.61-4.84,4.87,4.87,0,0,0-9.65-.8,2.88,2.88,0,1,0,5.56,1.53Z"/></g><path class="cls-1" d="M376.58,306.64q-4.26,1.17-8.55,2.11c-1,.23-2,.59-3.1.78-3.69.75-7.42,1.21-11.11,1.73-1.64.24-3.26.56-4.86.91a32.8,32.8,0,0,1-6.2,1.05c-.66,0-.75-.82-.37-1.73a3.78,3.78,0,0,1,2.4-2.24,106.45,106.45,0,0,1,12.62-2.32,34.42,34.42,0,0,0,3.83-.73c1.27-.31,2.53-.68,3.81-1,2.79-.68,5.58-1.36,8.33-2.17,1.7-.49,3.4-1,5.06-1.6,1.27-.42,2.52-.89,3.77-1.38a37.18,37.18,0,0,0,3.66-1.6,51.82,51.82,0,0,0,5.19-3.23c.37-.26.71-.55,1.09-.79,1.41-.87,2-.86,3,0a7.33,7.33,0,0,1,.64.59c.63.72.42,1.74-.54,2.62-2.81,2.73-6.46,4.51-10.14,6.1-2.76,1.13-5.61,2.08-8.45,3Z"/><path class="cls-1" d="M356.85,186c-6.29,6.52-3.29,19-1.37,26.82.77,3.12,5.59,1.8,4.82-1.33-1.4-5.69-4.57-17.12.09-22,2.23-2.32-1.3-5.86-3.54-3.53Z"/><path class="cls-3" d="M60.09,234.79s61-20.89,64.48-23.06,15.87,13.46,15.87,13.46l18,45.18S68.43,241.17,60.09,234.79Z"/><path class="cls-3" d="M164.5,199.93h6l51.11,13L225,234.26s-12.42,4-13.41,12.27c-1,8.84,5.59,10.38,11,11l-.9,6.25s-6.8,8.89-7.94,14.92l-1.14,6-27.18-9.06-21.9-59.43Z"/><path class="cls-3" d="M234.66,216.74l27.34,8s3.62,15,11.82,21.78L260,280.73a77.48,77.48,0,0,0-5.27-8.84c-2.37-3.42-5.82-8.07-5.82-8.07L247,256.41s8-.61,8.66-6c1.14-9.48-8.59-17.49-17.87-18.5Z"/><path class="cls-3" d="M282.3,300.11s15.58-43.58,16.51-44.2,15.54.75,26.53-14.29L339,246.53l-7.52,45.82s-26.21,14.1-31.55,12.85S282.3,300.11,282.3,300.11Z"/><polygon class="cls-3" points="390.9 259.39 393.67 272.07 410.52 265.25 390.9 259.39"/><path class="cls-1" d="M48.29,310.59l.3-8.88c.1-3,.22-5.92.39-8.88.1-2.16.11-4.32.25-6.48Q50,274.92,51,263.53c.29-3.37.54-6.76.77-10.11.38-4.29.36-8.66,1.54-12.87.34-1.31.92-1.06,1.55.15a15.25,15.25,0,0,1,1,2.46,10.58,10.58,0,0,1,.23,3.38c-.71,8.72-1.36,17.43-2.24,26.23-.54,5.26-.52,10.77-.72,16.17q-.34,8.93-.68,17.85l-.38,11c-.15,5.56-.36,11.14-.42,16.65,0,4.29.12,8.5.15,12.75,0,.93,0,1.84,0,2.79-.16,3.49-.47,4.59-1.35,5.31a4,4,0,0,1-.6.47c-.66.31-1.17-1.13-1.39-3.69-.13-1.89-.32-3.81-.38-5.75s-.1-3.9-.12-5.87c-.06-3.94,0-7.93,0-11.94.05-5.95.18-11.93.28-17.9Z"/><path class="cls-1" d="M197.94,411q-18.81-4.8-37.56-9.86c-4.56-1.23-9.14-2.36-13.68-3.66-16-4.57-31.95-9.46-47.69-15-7-2.45-14-4.94-20.83-7.69-4.39-1.77-8.77-3.62-13-5.79a49.46,49.46,0,0,1-12-8.09c-2-2.36-1.2-2.41,1.22-1.49a20.52,20.52,0,0,1,2.14.8c.82.3,1.68.69,2.66,1.08,1.91.84,4.19,1.71,6.49,3a236.1,236.1,0,0,0,26.08,11.26c8.95,3.34,18,6.47,27.18,9.54,10.95,3.68,22.6,6.76,34,9.91q18.79,5.21,37.72,10.08,11.64,3,23.31,5.91c11.78,2.93,23.61,5.88,35.34,8.68,9.11,2.18,18.09,4.11,27.11,6.35,2,.49,3.93.95,5.93,1.5a49.94,49.94,0,0,1,7.73,2.6,7.87,7.87,0,0,1,3.09,2.18,6.87,6.87,0,0,1,.78,1c.41.83-2.62.31-8-1-7.95-2.05-16.23-3.93-24.61-5.91l-25.4-6c-12.66-3-25.37-6.13-38-9.28Z"/><path class="cls-1" d="M301.2,359.31q0,9.42.2,18.85c0,2.3.25,4.58.3,6.88.15,8.08.2,16.19.45,24.29.1,3.59.33,7.2.57,10.76.3,4.58.83,9.16.42,13.82-.12,1.45-1.15,1.24-2.19,0a10.47,10.47,0,0,1-2.28-5.95c-.61-9.27-1.2-18.62-1.17-28.07,0-5.66-.58-11.51-.75-17.29-.2-6.35-.31-12.71-.4-19.07,0-3.91,0-7.83-.07-11.74,0-5.93.09-11.88.09-17.77,0-2.29,0-4.56-.11-6.82s0-4.53.05-6.8c0-1,0-2,.09-3,.44-3.73.84-4.89,2-5.59a7.79,7.79,0,0,1,.64-.47c.52-.31,1.44,1.3,1.59,4,.32,4,.47,8.14.59,12.31s0,8.39,0,12.63c0,3.15,0,6.31,0,9.47s0,6.34.08,9.5Z"/><path class="cls-1" d="M202.63,286l-37.52-9.9c-4.56-1.22-9.16-2.29-13.71-3.53-16.05-4.41-32.05-9-48-14-7-2.24-14.18-4.36-21.14-6.71-4.47-1.53-9-3.06-13.38-4.92-1.1-.45-2.2-1-3.29-1.46s-2.13-1.14-3.17-1.8a22,22,0,0,1-5.84-4.82,4.07,4.07,0,0,1-.8-1.74c-.06-.43,0-.63.17-.66.36-.06,1,.56,2,1.11a29.33,29.33,0,0,0,4.66,1.7c1,.3,2.07.58,3.2.91.58.15,1.15.35,1.76.5s1.19.45,1.79.7c4.3,1.76,8.79,3.31,13.29,4.82s9,3.08,13.58,4.53l6.81,2.25,6.86,2.18c4.57,1.5,9.18,2.89,13.78,4.38,11,3.48,22.72,6.33,34.16,9.36l37.78,9.93L219,284.87c11.76,3,23.55,6.15,35.24,9.09,9.09,2.3,18.06,4.3,27.06,6.58,2,.5,3.93.95,5.92,1.49a44.73,44.73,0,0,1,7.69,2.59,11.36,11.36,0,0,1,1.92,1.12A6.77,6.77,0,0,1,298,307a10.78,10.78,0,0,1,.81,1.05c.48.9-2.83,1.12-8.26-.1-16.09-3.72-33-7.92-50-12.19l-37.93-9.59Z"/><path class="cls-1" d="M118,214.63l-14.59,5.57c-1.77.69-3.49,1.49-5.27,2.16-6.26,2.35-12.57,4.6-18.87,6.9-2.79,1-5.55,2.17-8.29,3.25a62.67,62.67,0,0,1-10.83,3.64c-1.18.24-1.31-.72-.67-2a8.25,8.25,0,0,1,4-3.59c7-3,14.24-5.66,21.63-8.09,4.43-1.45,8.8-3.52,13.21-5.31l14.57-5.85,9-3.61c4.52-1.84,9.08-3.64,13.51-5.6,3.45-1.52,6.74-3.22,10.12-4.8a20.47,20.47,0,0,1,2.25-1c2.92-1,4-1,4.93-.39a3.83,3.83,0,0,1,.63.42c.52.51-.41,1.56-2.3,2.82l-2.12,1.41c-.71.47-1.47.83-2.22,1.25-1.5.81-3,1.61-4.58,2.38-3.08,1.6-6.29,3-9.52,4.41-4.8,2.09-9.66,4.09-14.51,6.09Z"/><path class="cls-1" d="M408.23,269.93c-1.31.44-2.63.89-3.94,1.37-.48.18-.91.45-1.4.62-1.71.57-3.44,1.12-5.17,1.66a18.84,18.84,0,0,0-2.22.92,7,7,0,0,1-2.91,1c-.67,0-1-3.19,0-3.68a25.16,25.16,0,0,1,5.73-2,20,20,0,0,0,3.5-1.44l3.91-1.56,2.43-.94c1.22-.49,2.49-.91,3.68-1.47.93-.42,1.76-1.06,2.68-1.58a4.05,4.05,0,0,1,.59-.36c.79-.34,1.14-.16,1.62.86.11.23.24.45.33.69a1.76,1.76,0,0,1-.27,2,16.52,16.52,0,0,1-4.71,2.55c-1.25.52-2.55,1-3.84,1.49Z"/><path class="cls-1" d="M322.15,300.89,316.49,303c-.69.26-1.32.64-2,.88-2.45.88-4.92,1.7-7.4,2.51-1.1.36-2.16.83-3.22,1.28a11.45,11.45,0,0,1-4.27,1.37c-.49,0-.67-.89-.57-1.88s.46-2,1.2-2.35a58.16,58.16,0,0,1,8.25-2.92,34.87,34.87,0,0,0,5-2.08l5.61-2.27,3.46-1.42c1.73-.73,3.51-1.41,5.2-2.23,1.31-.64,2.49-1.52,3.77-2.27.28-.16.54-.37.83-.51,1.11-.52,1.58-.37,2.24.71.15.25.32.48.45.74a1.85,1.85,0,0,1-.43,2.33,31,31,0,0,1-6.88,3.81c-1.83.8-3.71,1.53-5.58,2.31Z"/><path class="cls-1" d="M417.23,341.59c0-9.1-.16-18.2-.31-27.3-.07-3.32-.28-6.63-.33-10-.21-11.69-.45-23.4-.9-35.07l-.07-1.94c0-.4,0-.49,0-.65a3.85,3.85,0,0,1,0-.48c.06-.21-.19-.18-.31-.25l-.45-.15-1.63-.56c-2.45-.84-4.91-1.66-7.36-2.44-6.3-2-12.67-3.81-18.93-5.91-2-.66-1.52-1.27.36-1.54a25.24,25.24,0,0,1,8.95.69q9.9,2.5,19.62,5.58l.17.05.29.11.57.21,1.14.43,1.13.43.57.21c0,.18,0,.39.07.59.09.79.16,1.6.21,2.42l.11,1.56c.12,1.7.27,3.4.3,5.1.12,3.41.19,6.81.22,10.23.07,8.17.71,16.65,1,25,.32,9.17.52,18.35.7,27.53.09,5.65.18,11.31.27,16.95.1,8.56.21,17.16.31,25.65.12,6.61.5,13.09.66,19.65,0,1.44.08,2.86.07,4.32a21.2,21.2,0,0,1-.55,5.74,4.41,4.41,0,0,1-1.68,2.45,5.91,5.91,0,0,1-1,.68c-.55.22-1-.24-1.39-1.23a12.7,12.7,0,0,1-.76-4.46c-.51-11.56-.68-23.81-.79-36.11-.12-9.15-.14-18.34-.32-27.52Z"/><path class="cls-1" d="M342.64,225.26l.68-3.74c.05-.29.13-.66.16-.9l.06-.62a14.54,14.54,0,0,0,0-1.59c-.16-2.28-.62-4.79-1-7.29a109.76,109.76,0,0,1-1.88-15.51,57.83,57.83,0,0,1,.1-5.88,34.07,34.07,0,0,1,1-5.89,24.84,24.84,0,0,1,4.8-9.64,17.14,17.14,0,0,1,4.29-3.65,15.29,15.29,0,0,1,5.3-2,16.79,16.79,0,0,1,5.57-.07,14.78,14.78,0,0,1,5.27,1.95,18.83,18.83,0,0,1,7,8.1,41.67,41.67,0,0,1,3.64,17.65,55.28,55.28,0,0,1-4.44,22.18c-1,2.15-1.59,1.54-1.73-.57a47.28,47.28,0,0,1,.69-9.77A62.21,62.21,0,0,0,373,197.3a49.87,49.87,0,0,0-.22-5.34,37.18,37.18,0,0,0-.84-5.19,24,24,0,0,0-4-9.19,11.26,11.26,0,0,0-7.63-4.72,12.07,12.07,0,0,0-5.67.72,11.56,11.56,0,0,0-4.63,3.53c-2.57,3.17-3.91,7.5-4.5,11.81a53.45,53.45,0,0,0,.38,14.75c.35,2.5.77,5,1.2,7.55a63.93,63.93,0,0,1,1,7.89c0,.45,0,.87,0,1.35s-.09,1-.17,1.35l-.43,2.33-.87,4.67-1.78,9.31c-1.8,9.39-3.73,18.8-5.36,28.14-1.26,7.27-2.2,14.44-3.13,21.65-.19,1.58-.35,3.14-.58,4.74-.79,5.92-1.3,7.77-2.61,8.9a4.82,4.82,0,0,1-.88.75c-.94.48-1.4-2.05-1.09-6.47.94-13.11,3.27-26.72,5.74-40.31,1.84-10.09,3.85-20.18,5.64-30.26Z"/><path class="cls-1" d="M386.65,259.19c-1-2.87-2-5.73-3-8.58-.39-1-.89-2-1.28-3.07-1.38-3.67-2.77-7.34-4.23-11-.67-1.61-1.37-3.22-2.09-4.79a37.57,37.57,0,0,1-2.53-6.19c-.18-.68.47-.85,1.32-.59a4.45,4.45,0,0,1,2.53,2.1c1,2,2,4,3,6.1s1.71,4.22,2.46,6.39c.89,2.61,2.2,5.14,3.28,7.74,1.18,2.85,2.29,5.73,3.38,8.63.66,1.78,1.32,3.57,1.95,5.37,1,2.72,1.8,5.5,2.72,8.22.37,1.05.72,2.1,1.12,3.14s.77,2.09,1.08,3.16c.14.47.33.93.44,1.41.29,1.84.12,2.47-.67,3a3.55,3.55,0,0,1-.54.35c-.62.26-1.31-.36-1.85-1.56-1.58-3.53-2.74-7.34-4.08-11.18q-1.52-4.3-3-8.61Z"/><path class="cls-1" d="M259.12,185.49q-2.56-.84-5.16-1.62c-.63-.18-1.28-.29-1.91-.48l-6.67-2.13c-1-.31-2-.55-3-.78-1.27-.34-2.65-.37-3.75-1.32-.33-.33-.18-.66.32-1.12a2.49,2.49,0,0,1,2.07-.92,54.17,54.17,0,0,1,7.66,2.39,46,46,0,0,0,4.77,1.36c1.75.5,3.5,1,5.25,1.57l3.23,1c1.63.5,3.25,1.07,4.88,1.55,1.26.38,2.55.61,3.83,1,.28.08.57.12.84.22a2,2,0,0,1,1,.58,1.51,1.51,0,0,1,.18.91c0,.16,0,.32,0,.47a.82.82,0,0,1-.48.56,1.55,1.55,0,0,1-1,.18,53.47,53.47,0,0,1-6.85-1.76c-1.72-.5-3.44-1.06-5.18-1.56Z"/><path class="cls-1" d="M175.35,126.81l42.65,13,15.58,4.65,54.75,16.94c8.1,2.5,16.27,4.95,24.33,7.35l15.56,4.62c2.59.78,5.18,1.58,7.74,2.45l3.85,1.3c1.28.45,2.52,1,3.81,1.49,3.17,1.35,2.51,1.56-.39,1.32a55.71,55.71,0,0,1-6-.71,71.8,71.8,0,0,1-8.21-1.93c-21.11-6.38-42.22-12.77-63.39-19.61-12.66-4.09-26-7.92-39-11.86l-43-13-26.48-7.92c-6.68-2-13.39-4-20.09-5.86l-5-1.42c-1.61-.33-3.25-1-4.7-.69a8.69,8.69,0,0,0-4.15,2,13.05,13.05,0,0,0-3,3.77,14.82,14.82,0,0,0-1.24,3.51,12.09,12.09,0,0,0-.09,3.65,22.35,22.35,0,0,0,2.32,7.2,9.26,9.26,0,0,0,5,4.7l7.63,2.28,6.7,2c4.18,1.3,6.92,2.19,8.79,3a14.32,14.32,0,0,1,3.67,2.12,10.42,10.42,0,0,1,1,.88c.32.4-.41.45-2,.23a50.85,50.85,0,0,1-7.15-1.58q-6.88-1.94-13.91-4l-3.52-1-1.77-.53a10.92,10.92,0,0,1-2-.8,13.78,13.78,0,0,1-5.73-6.41,26.28,26.28,0,0,1-2.28-7.81,14.87,14.87,0,0,1,.15-4.42,16.93,16.93,0,0,1,1.41-4.11,16.16,16.16,0,0,1,2.43-3.6,14,14,0,0,1,3.42-2.85,10.83,10.83,0,0,1,4.48-1.51,12.6,12.6,0,0,1,4.42.62c1.07.24,1.87.5,2.8.75l2.72.75q2.72.75,5.42,1.54l10.81,3.14,21.58,6.38Z"/><path class="cls-1" d="M109.4,143.82a77.9,77.9,0,0,0-2.69-7.51,42.2,42.2,0,0,1-1.31-4.17c-.35-1.51-.57-2.79-.83-4.18-.37-2-.81-4-1-6.11a37.57,37.57,0,0,1-.1-5.62,22.43,22.43,0,0,1,1.16-5.67,16,16,0,0,1,7.57-8.72,11.94,11.94,0,0,1,10.36-.77,17.42,17.42,0,0,1,5.51,3.56A17.09,17.09,0,0,1,130.2,107a21.13,21.13,0,0,1,1.61,2.7c.54,1.2-.16,1.41-1.46,1a15.49,15.49,0,0,1-2.31-.88,11.5,11.5,0,0,1-1.3-.68,12.65,12.65,0,0,1-1.18-.93,15.81,15.81,0,0,0-4.24-2.87,9.46,9.46,0,0,0-2.17-.66c-.35-.06-.71-.09-1.06-.14s-.72,0-1.08,0a9.46,9.46,0,0,0-4.38,1.79,12.46,12.46,0,0,0-3.58,3.65,13.45,13.45,0,0,0-1.81,6.36,34.85,34.85,0,0,0,.47,7.16c.21,1.33.44,2.65.71,4l.41,2c.15.65.26,1.27.45,1.9a80.41,80.41,0,0,0,2.8,7.64,28.78,28.78,0,0,1,1.53,5.15,16.67,16.67,0,0,1,.11,5.55,35.15,35.15,0,0,1-1,3.92l-1.07,3.73c-.72,2.49-1.44,5-2.12,7.43-1,3.85-1.87,7.68-2.81,11.51-.21.84-.39,1.67-.63,2.51-.88,3.12-1.58,4-2.72,4.37a4.39,4.39,0,0,1-.78.25c-.81.08-1.06-1.38-.72-3.75a217.58,217.58,0,0,1,5.26-21.23c.74-2.64,1.52-5.33,2.2-7.9a12.79,12.79,0,0,0-.07-6.86Z"/><path class="cls-1" d="M255.81,221.45c-1.42-.47-2.84-1-4.29-1.47-.52-.17-1.07-.25-1.6-.42-1.85-.64-3.73-1.23-5.59-1.89-.82-.28-1.67-.5-2.51-.71a13.29,13.29,0,0,1-3.17-1.06c-.32-.17-.16-.56.23-.91a2.39,2.39,0,0,1,1.67-.65c1.13.11,2.24.24,3.34.45a15.25,15.25,0,0,1,3.27.89,33.64,33.64,0,0,0,4.05,1q2.23.56,4.47,1.2l2.72.84c1.38.42,2.75.93,4.13,1.3,1.08.3,2.2.4,3.29.7.24.06.48.09.72.17a1,1,0,0,1,.5.31,1.17,1.17,0,0,1,.28.37,1.59,1.59,0,0,1,.07.94c0,.17,0,.35-.08.51a1.56,1.56,0,0,1-1.41,1,12,12,0,0,1-3-.29c-1-.23-1.91-.52-2.86-.81-1.42-.43-2.84-.92-4.29-1.35Z"/><path class="cls-1" d="M199,205.5c-2.51-.82-5-1.68-7.54-2.46-.93-.28-1.87-.47-2.8-.76l-9.78-3c-1.44-.45-2.92-.82-4.38-1.19a39.06,39.06,0,0,1-5.56-1.68c-.56-.23-.38-.61.23-.91a4.78,4.78,0,0,1,2.73-.37c1.94.32,3.88.66,5.8,1.08a45.07,45.07,0,0,1,5.74,1.54c2.26.76,4.7,1.18,7.06,1.8q3.88,1,7.74,2.18l4.73,1.46c2.39.73,4.77,1.54,7.16,2.23,1.85.52,3.73.87,5.58,1.37.41.11.81.19,1.22.32a3.09,3.09,0,0,1,.91.41,3.53,3.53,0,0,1,.56.45,1.6,1.6,0,0,1,.41,1,3.69,3.69,0,0,1,0,.56c0,.56-.82.84-2,.83a17.24,17.24,0,0,1-2.58-.37c-.85-.17-1.71-.32-2.56-.56-1.69-.44-3.39-1-5.1-1.49-2.53-.77-5.06-1.61-7.61-2.36Z"/><path class="cls-1" d="M360.53,190.07a5.43,5.43,0,0,0-2-3,2,2,0,0,0-.66-.25,2.78,2.78,0,0,0-.8.06,1.63,1.63,0,0,0-.66.19,2.09,2.09,0,0,0-.54.48,7.67,7.67,0,0,0-1.15,2.86,29.06,29.06,0,0,0-.74,6.35,33,33,0,0,0,.44,6.52,27.22,27.22,0,0,0,1.59,5.59,17.29,17.29,0,0,0,1.68,3.16,14,14,0,0,0,2.09,2.57c.49.43.25,1-.73,1.26a4.07,4.07,0,0,1-3.88-1.54,22.48,22.48,0,0,1-3.33-7.86c-.32-1.35-.55-2.64-.75-4a30.65,30.65,0,0,1-.17-4.15c0-1.63.06-3.29.18-5a20.05,20.05,0,0,1,.93-5.14,8.58,8.58,0,0,1,1.56-2.79,5.16,5.16,0,0,1,1.45-1.14,6.18,6.18,0,0,1,1.69-.51,6.07,6.07,0,0,1,3.42.52,7.4,7.4,0,0,1,2.42,2.17A16.92,16.92,0,0,1,365.1,193a43.07,43.07,0,0,1,.44,10.19,29.2,29.2,0,0,1-1.2,7.88,11.51,11.51,0,0,1-.7,1.74,4.29,4.29,0,0,1-1.81,2,1.83,1.83,0,0,1-.81.19,1.91,1.91,0,0,1-.74-.25,2.6,2.6,0,0,1-.55-.35c-.23-.23-.21-.58-.17-1a4.51,4.51,0,0,1,.13-.66c.08-.2.15-.48.26-.75a22.14,22.14,0,0,0,1.31-5.78,48.26,48.26,0,0,0,.49-6.54,30.34,30.34,0,0,0-1.31-9.47Z"/><path class="cls-1" d="M378,302.89c-3.32.94-6.64,1.8-10,2.62-1.21.3-2.38.73-3.6,1-4.28,1-8.61,1.77-12.91,2.6-1.91.37-3.8.83-5.68,1.29a32.59,32.59,0,0,1-7.4,1.35c-.87,0-.75-.84-.24-1.75a4.69,4.69,0,0,1,2.82-2.28c4.82-1.22,9.68-2.42,14.68-3.26,1.49-.26,3-.65,4.48-1s3-.88,4.48-1.26c3.28-.89,6.56-1.76,9.81-2.73l3-.91,3-1a71,71,0,0,0,8.73-3.5c.53-.29,1-.59,1.55-.9a13.13,13.13,0,0,0,1.43-.94A6.59,6.59,0,0,0,394,290a6.92,6.92,0,0,0,.38-1.08c.39-1.36.59-1.91,1.85-2.29.28-.09.56-.21.84-.27.9-.2,1.81.59,1.79,2.49a8.77,8.77,0,0,1-1.26,4.21,10,10,0,0,1-3.15,3.17c-.32.22-.58.36-.84.51l-.79.44-1.59.85c-1.08.54-2.17,1-3.26,1.48-1.63.69-3.28,1.27-4.93,1.87s-3.31,1.11-5,1.61Z"/><path class="cls-1" d="M384,419.71c-5.13,1.41-10.25,2.91-15.39,4.45-1.87.57-3.7,1.27-5.58,1.81-6.64,1.91-13.32,3.74-20.07,5.35l-9,2.24c-1.92.43-3.83.9-5.76,1.31a43.3,43.3,0,0,1-5.9.66c-1.23,0-1.2-1-.33-2.22a7.84,7.84,0,0,1,4.68-2.95l5.7-1.3c1.9-.42,3.79-1,5.7-1.38L349.66,425c4.66-1,9.31-2.83,14-4.31q7.69-2.46,15.47-4.83l4.79-1.43,4.81-1.37c2.42-.73,4.9-1.31,7.34-2s4.93-1.18,7.36-1.83c1.91-.43,3.78-.94,5.66-1.47s3.78-.92,5.68-1.36a21.46,21.46,0,0,1,2.53-.54,20.18,20.18,0,0,1,2-.19,5.11,5.11,0,0,1,1.41.19,2.59,2.59,0,0,1,1.62,1.31,5.87,5.87,0,0,1,.52.89c.37,1-.83,2.08-3,2.78-6.54,1.67-13.4,3-20.32,4.81-2.57.62-5.14,1.33-7.72,2s-5.16,1.4-7.73,2.18Z"/><path class="cls-1" d="M422.88,388s34.71,1.42,45,12c10.67,11-18.45,21.06-58.62,29.49-71.18,15-85.73,4-85.73,4L420.78,408Z"/><path class="cls-1" d="M303.7,252.71a31.1,31.1,0,0,1-3.71.58,31.72,31.72,0,0,1-3.77.18,30.37,30.37,0,0,1-20.39-8.32,34.92,34.92,0,0,1-6.75-8.34,39.7,39.7,0,0,1-5-17.89,38.43,38.43,0,0,1,.77-9.27,37.92,37.92,0,0,1,2.9-8.81,41.29,41.29,0,0,1,4.34-7,47.77,47.77,0,0,1,5.58-6,40.62,40.62,0,0,1,8.62-6,23.67,23.67,0,0,1,2.43-1c.83-.3,1.69-.53,2.54-.79s1.73-.38,2.61-.51a12,12,0,0,1,1.34-.05h.67c.22,0,.44,0,.67,0,2.22.09,1.83.58.13,1.31s-4.45,2.42-7.6,4.13a40.07,40.07,0,0,0-14.75,12.24,32.46,32.46,0,0,0-4.55,8.46,37.29,37.29,0,0,0-2.1,9.56,33.31,33.31,0,0,0,6.74,22.69,29.56,29.56,0,0,0,4.5,4.85,26.85,26.85,0,0,0,5.45,3.7,25,25,0,0,0,6.17,2.27l.8.19.81.12c.55.08,1.09.18,1.64.24a28,28,0,0,0,3.3.09,33.09,33.09,0,0,0,15.62-4.68,30.83,30.83,0,0,0,9-8.57,37,37,0,0,0,5.44-30.26c-.17-.67-.4-1.31-.59-2s-.47-1.27-.7-1.92c-.91-2.38-1.71-3.83-2.09-5a6,6,0,0,1-.32-1.52,4,4,0,0,1,0-1.25,7.73,7.73,0,0,1,.19-1.11c.2-.49.77-.4,1.7.22a11.21,11.21,0,0,1,3.24,3.7A34.7,34.7,0,0,1,333,216a43.17,43.17,0,0,1-5.48,19.21,36.55,36.55,0,0,1-9.94,11.45,33.37,33.37,0,0,1-6.64,3.8c-1.12.54-2.34.91-3.5,1.37s-2.42.76-3.66,1Z"/><path class="cls-1" d="M314.84,211.36l-1.34,3.17-1.73,3.89-.57.71-.32.4c-.13,0-.13.12-.22.14l-.24.11a3.48,3.48,0,0,1-1,.19,7.29,7.29,0,0,1-2.26-.38l-.47-.15-.3-.11-.58-.22-1.14-.47-2.22-1c-1.46-.68-2.92-1.34-4.35-2-1.27-.63-2.58-1.17-3.87-1.7a24.16,24.16,0,0,1-4.89-2.28c-.46-.32-.12-1,.6-1.44a3.37,3.37,0,0,1,2.8-.54,55.66,55.66,0,0,1,10.08,4.22,19.86,19.86,0,0,0,3,1.3c.52.18,1,.35,1.56.5l.77.23a.92.92,0,0,0,.4.07c.11-.06.13-.2.21-.31l.11-.2a2.56,2.56,0,0,0,.17-.36l.5-1.17c.33-.79.65-1.58,1-2.38.56-1.41,1.11-2.83,1.64-4.27.82-2.17,1.68-4.36,2.56-6.51.33-.85.64-1.7.94-2.55a17.82,17.82,0,0,1,1-2.52,9.91,9.91,0,0,1,.57-1.06,5.74,5.74,0,0,1,.56-.77,2.38,2.38,0,0,1,.61-.39,2,2,0,0,1,1-.18c.16,0,.32,0,.45.05s.32.26.38.61a6.09,6.09,0,0,1,0,1.39c-.18.78-.39,1.53-.55,2.31a8.18,8.18,0,0,1-.32,1.13l-.37,1.12-1.52,4.56-2.64,6.9Z"/><path class="cls-1" d="M290.92,198.87c.73-1.25,1.45-2.52,2.13-3.81.25-.46.39-1,.64-1.45q1.37-2.49,2.72-5a17.47,17.47,0,0,0,1-2.29,8.66,8.66,0,0,1,1.42-2.89c.24-.26.88.06,1.45.61s1.07,1.31.92,1.9a17.86,17.86,0,0,1-2.56,6,23.56,23.56,0,0,0-1.7,3.67c-.64,1.34-1.32,2.67-2,4l-1.28,2.44c-.64,1.24-1.34,2.46-2,3.69-.24.49-.45,1-.64,1.49a7.64,7.64,0,0,1-.67,1.49,5.41,5.41,0,0,1-.36.61,2.75,2.75,0,0,1-.41.42,1,1,0,0,1-.47.15,1.79,1.79,0,0,1-.88-.09c-.14,0-.28-.08-.39-.13a.85.85,0,0,1-.43-.52,3.94,3.94,0,0,1-.25-1,15.59,15.59,0,0,1,1.59-5.52l2-3.82Z"/><path class="cls-1" d="M264.1,275.58l3.57-8.2c.43-1,.74-2,1.17-3l4.63-10.53c.68-1.56,1.25-3.17,1.8-4.76a23,23,0,0,1,2.65-5.94c.35-.59.78-.36,1.15.36a13.11,13.11,0,0,1,.55,1.44,5.75,5.75,0,0,1,.23.93,3.26,3.26,0,0,1-.08.93c-.25,1.09-.49,2.19-.79,3.26s-.72,2.1-1.11,3.14a49.56,49.56,0,0,1-2.67,6.14c-1.22,2.39-2,5.06-3,7.6l-3.45,8.33-2.13,5.12c-1.05,2.6-2.18,5.18-3.12,7.79-.72,2-1.22,4.11-1.81,6.17-.14.45-.23.91-.38,1.36a4,4,0,0,1-.88,1.66,1.83,1.83,0,0,1-1.34.37,6.27,6.27,0,0,1-.76,0,1.15,1.15,0,0,1-.89-.74,2.71,2.71,0,0,1-.15-1.62,64.24,64.24,0,0,1,3.4-11.4c1-2.81,2.22-5.59,3.35-8.37Z"/><path class="cls-1" d="M282.62,280.74c1-2.59,2.05-5.19,3-7.81.35-1,.6-1.95,1-2.9,1.29-3.36,2.51-6.74,3.84-10.11.58-1.49,1.06-3,1.55-4.54a19.35,19.35,0,0,1,2.5-5.7c.38-.55.75-.25,1,.46a6.36,6.36,0,0,1,.34,1.31,4.57,4.57,0,0,1,0,1.65c-.11.49-.16,1-.31,1.51l-.43,1.48-.88,3a49.91,49.91,0,0,1-2.13,5.88c-1,2.31-1.63,4.86-2.47,7.29-.92,2.67-1.89,5.33-2.88,8l-1.83,4.9c-.93,2.47-1.95,4.91-2.84,7.38-.67,1.92-1.2,3.86-1.8,5.8-.14.42-.25.85-.41,1.27-.63,1.54-1.15,1.89-2.1,1.87a4.33,4.33,0,0,1-.63,0c-.61-.09-1-1-.78-2.2a76.21,76.21,0,0,1,3.23-10.61c.91-2.64,1.94-5.25,2.92-7.88Z"/><path class="cls-1" d="M216.2,272.79l2.6-4.66c.3-.56.51-1.17.81-1.72.52-1,1.06-1.91,1.51-2.83.09-.22.2-.45.29-.67l.21-.65.36-1.7c.2-1,.4-2,.49-3,.06-.59.05-1.2.08-1.83a9.59,9.59,0,0,1,.47-1.9c.15-.39.63-.33,1.2,0a3.52,3.52,0,0,1,1.54,1.76,17,17,0,0,1-.14,4.17c-.08.63-.21,1.25-.34,1.88l-.21,1c-.11.39-.23.83-.37,1.21-.72,1.72-1.25,3.3-2,4.77l-2.59,4.68c-.52.95-1,1.91-1.49,2.88a33.73,33.73,0,0,0-1.88,4.5,20,20,0,0,0-.61,3.66l-.08.8c-.15,1-.42,1.25-1.49,1.28-.22,0-.44,0-.64,0a1.46,1.46,0,0,1-1.37-1.41,17.73,17.73,0,0,1,1.35-7.26c.65-1.73,1.46-3.39,2.25-5Z"/><path class="cls-1" d="M337.43,244.31c-.7-.28-1.42-.55-2.15-.79-.27-.09-.55-.09-.82-.19-.94-.36-1.88-.76-2.8-1.13a11.34,11.34,0,0,0-1.25-.4,3.24,3.24,0,0,1-1.55-.63c-.14-.13,0-.58.32-1s.69-.86,1-.84a13.64,13.64,0,0,1,1.58.2,7.39,7.39,0,0,1,1.5.56,6.61,6.61,0,0,0,1.94.37c.72.12,1.46.28,2.2.42l1.37.29a18.22,18.22,0,0,0,2.09.35,11.35,11.35,0,0,0,1.7-.23,2.71,2.71,0,0,1,.38-.06c.46,0,.55.3.42,1.36,0,.24-.05.48-.08.72a2.24,2.24,0,0,1-.79,1.61,3.84,3.84,0,0,1-1.52.37,6.48,6.48,0,0,1-1.43-.24c-.7-.17-1.4-.43-2.12-.64Z"/><path class="cls-1" d="M220.28,201.7l-.78-6.83-.41-3.41a.68.68,0,0,1,0-.21.15.15,0,0,0,0-.09s-.15-.32-.27-.56l-.78-1.53c-.76-1.5-1.63-2.93-2.38-4.43l-3.94-7.93-.69-1.37a7.24,7.24,0,0,1-.38-.8l.27-.86.81-2.47,1.37-4.21c.81-2.49,1.5-5,2.15-7.55l.79-3,.26-1c0-.22.23-.15.37-.2l.47-.07c.32-.05.63-.11,1-.14l1-.06,1.52-.07,1.28,0a13.64,13.64,0,0,1,2.55.21c1.05.41.89.9,0,2a6.69,6.69,0,0,1-4.27,2.42c-.3,0-.21,0-.22,0a.31.31,0,0,0,0-.16.08.08,0,0,0,0,0h0l-.07.26-.19.61q-.74,2.45-1.52,4.89T216.55,170l-.88,2.42-.45,1.21c0,.08-.09.25-.1.26l-.05.06-.1.14c-.06.06,0,.12,0,.19l0,.1s0,0,.08.2l.68,1.41c.47.93,1,1.87,1.45,2.8,1,1.86,2,3.71,3,5.59l1.57,3.09.79,1.54.27.53.16.31a2,2,0,0,1,.06.35l.14,1.06.81,6.9c.32,2.84.65,5.67,1,8.5.5,4.29.91,8.61,1.43,12.87.42,3.31,1,6.54,1.43,9.84.09.73.22,1.44.28,2.18a9.13,9.13,0,0,1,0,1.75,4.24,4.24,0,0,1-.24,1.21,2.45,2.45,0,0,1-1,1.3,2.87,2.87,0,0,1-.58.36c-.31.12-.59-.11-.89-.59a7.07,7.07,0,0,1-.83-2.17c-1.06-5.67-1.85-11.79-2.62-17.93l-1.71-13.74Z"/><path class="cls-1" d="M230.72,204.35,229.56,192l-.13-1.12-.18-1.27a1.81,1.81,0,0,1,0-1l.21-.78.3-1.09,4-12.9-.13-.46-.32-.92c-.76-2.23-1.69-4.41-2.5-6.6-.53-1.4-1.14-2.77-1.63-4.19s-.88-2.88-1.28-4.31c-.24-.85.23-1,1.14-.55a9,9,0,0,1,3.16,3,30.38,30.38,0,0,1,1.62,3.16q.75,1.61,1.47,3.21c.47,1.08.83,2.21,1.23,3.31l.57,1.68.29.85.55,1.57-.54,1.8-.36,1-.74,2.08c-.64,1.74-1.17,3.56-1.66,5.39l-.74,2.76-.37,1.37-.19.69-.1.34,0,.11,1.15,12q.36,3.84.73,7.66c.38,3.87.71,7.76,1.16,11.59.36,3,.92,5.87,1.33,8.83.09.66.22,1.29.28,1.95.23,2.46,0,3.32-1.06,3.86a4.7,4.7,0,0,1-.67.34c-.74.2-1.47-.73-1.78-2.44-1-5.13-1.74-10.65-2.37-16.2q-.66-6.19-1.33-12.41Z"/><path class="cls-1" d="M217.12,256.23a10,10,0,0,1-4-3.06,8.09,8.09,0,0,1-1.67-5.1,11.47,11.47,0,0,1,1.12-4.56,16.65,16.65,0,0,1,2.31-3.6,19.38,19.38,0,0,1,2.13-2.22,10.65,10.65,0,0,1,1.18-.93l1.2-.84a25.79,25.79,0,0,1,9.48-3.4,25.47,25.47,0,0,1,9.92.52,28.29,28.29,0,0,1,8,3.45,26.8,26.8,0,0,1,2.26,1.66c.67.65,1.36,1.28,2,2l.85,1.1.77,1.15a27,27,0,0,1,1.19,2.49c.43,1.05-.2,1.2-1.36.87a12.68,12.68,0,0,1-2-.81,8.55,8.55,0,0,1-2.27-1.33,34.38,34.38,0,0,0-3.69-2.82,14.13,14.13,0,0,0-1.94-1.18,15.24,15.24,0,0,0-2-1,22.55,22.55,0,0,0-9.08-1.59,18.19,18.19,0,0,0-5.71,1.18,24.32,24.32,0,0,0-5.13,2.88,12,12,0,0,0-3.77,4.64,6.13,6.13,0,0,0-.58,2.61,3.36,3.36,0,0,0,.8,2.14,6.14,6.14,0,0,0,2.92,1.78,17.79,17.79,0,0,0,4,.71A56.76,56.76,0,0,0,237,252c3.38-.59,6.64-1.53,10.06-2.23.75-.15,1.49-.34,2.27-.45a7.53,7.53,0,0,1,3.17,0,2.48,2.48,0,0,1,1.4,1.33,4.44,4.44,0,0,1,.33.72c.1.36-.17.67-.65,1.06a4.31,4.31,0,0,1-2.12,1c-2.8.61-5.81,1.38-8.91,2s-6.32,1.26-9.62,1.68a58.34,58.34,0,0,1-7.58.58,22.6,22.6,0,0,1-8.3-1.36Z"/><path class="cls-1" d="M251.57,276.55c-1.15-1.81-2.42-3.58-3.74-5.36-.48-.65-1.05-1.22-1.53-1.9a31.69,31.69,0,0,1-2.4-3.81l-.51-1.12a10.94,10.94,0,0,1-.41-1.26c-.13-.45-.14-.73-.22-1.11l-.18-1.06c-.24-1.25-.52-2.52-.77-3.78-.17-.81-.34-1.62-.46-2.42a12.76,12.76,0,0,1,0-2.47c.06-.52.55-.53,1.19-.2a4.39,4.39,0,0,1,1.88,1.87c.42,1.6.76,3.1,1.16,4.66.19.78.34,1.59.49,2.4l.1.61c0,.21.07.43.1.52a4.53,4.53,0,0,0,.22.86,5.29,5.29,0,0,0,.58,1.17,11.88,11.88,0,0,0,.82,1.17l1.83,2.36c1.33,1.78,2.68,3.62,4,5.5.8,1.16,1.54,2.36,2.28,3.56.54.93,1.09,1.85,1.55,2.82s.94,1.93,1.4,2.9a46.37,46.37,0,0,1,2,4.6,5.52,5.52,0,0,1,.36,1.06c.27,1.38.12,1.86-.87,2.25a5.77,5.77,0,0,1-.59.25,1.64,1.64,0,0,1-1.81-1.1c-1.06-2.47-2-5-3.33-7.45a53.53,53.53,0,0,0-3.23-5.46Z"/><path class="cls-1" d="M141.21,221.9c-1.38-1.41-2.76-2.83-4.17-4.23-.52-.51-1.1-.94-1.61-1.46-1.78-1.84-3.45-3.8-5.19-5.69-.78-.84-1.6-1.63-2.4-2.43A15.82,15.82,0,0,1,125,204.8c-.23-.41.25-.76,1-.91a2.84,2.84,0,0,1,2.31.4c1.11.93,2.26,1.82,3.29,2.84s2,2.06,3,3.19c1.14,1.35,2.67,2.4,4,3.66l4.31,4.14,2.66,2.57c1.35,1.28,2.66,2.64,4.05,3.86,1.07,1,2.31,1.73,3.43,2.65.24.21.51.38.74.61.82.85.86,1.34.29,2.21-.12.19-.23.39-.36.56a1.66,1.66,0,0,1-2.07.3,28.55,28.55,0,0,1-6.14-4.79L141.14,222Z"/><path class="cls-1" d="M137.93,196.43c5.65-1.8,11.32-3.38,16.93-5.13,2-.63,4-1.37,6.08-2,3.57-1.17,7.13-2.38,10.6-3.76.88-.33,1.72-.71,2.58-1.07s1.91-.89,2.07-.94l.14-.06v-.17l0-.33c0-.12,0-.74,0-1.16,0-.92,0-1.85-.08-2.78a84.19,84.19,0,0,0-1.27-9.88c-.85-4.15-1.57-8.41-2.76-12.38-.43-1.11-.07-1.27.87-.4a13.8,13.8,0,0,1,2.84,5.18,80.38,80.38,0,0,1,2.79,13c.3,2.21.53,4.43.62,6.71v.86a9.47,9.47,0,0,1,0,1l-.06,1.45,0,.72a3.63,3.63,0,0,1-.65.35l-1.35.66-.81.37c-.51.24-1,.44-1.56.65-5,2-10.1,4.07-15.23,5.82-5.64,1.89-11.33,3.62-17,5.41-3.49,1.08-6.9,2.21-10.36,3.44a113.33,113.33,0,0,0-15.23,6.11,44.75,44.75,0,0,0-10,7.19c-.66.6-1.23,1.28-1.88,1.91s-1,1.11-1.46,1.51-.83.67-1.15.91a3,3,0,0,1-1.76.63,5,5,0,0,1-.76,0c-.36-.07-.42-.46-.22-1.12a8.81,8.81,0,0,1,.48-1.21,8.12,8.12,0,0,1,.91-1.52,39.33,39.33,0,0,1,8.81-8.23A59.64,59.64,0,0,1,121,202.45c2.8-1.17,5.63-2.2,8.45-3.19l4.2-1.47,4.27-1.44Z"/><path class="cls-1" d="M108.73,182.19a58.7,58.7,0,0,1,4.67-7.65l.39-.47c.15-.17.36-.37.54-.54a4.12,4.12,0,0,1,.53-.46l.52-.38c.66-.46,1.32-.87,2-1.25,1.31-.75,2.62-1.42,3.94-2.07,1.92-.94,3.8-1.92,5.74-2.76,6.86-3,13.8-5.6,20.81-8.07l9.32-3.3c2-.69,4-1.39,6-2a28.28,28.28,0,0,1,6.34-1.26c.73,0,1.07.19,1,.44s-.39.56-.86.93a17.09,17.09,0,0,1-4.94,2.57c-8,2.59-15.87,5.88-24,8.63-4.84,1.71-9.69,4-14.42,6.19-2.59,1.22-5.2,2.47-7.58,3.9-.31.17-.59.36-.86.54a7.29,7.29,0,0,0-.79.56,5.8,5.8,0,0,0-.61.53c-.21.25-.42.51-.62.78a31.3,31.3,0,0,0-2.22,3.51c-.85,1.54-1.67,3.14-2.64,4.72-.28.65-1,1-1.25,1.28s-.75.56-1.14.82c-.77.53-1.57,1-2.36,1.46-2.41,1.38-4.83,2.5-6.94,4a8.55,8.55,0,0,0-2.55,2.53,13.11,13.11,0,0,0-1.38,3.45c-1,3.86-.86,7.95-.84,12,0,.91.06,1.8,0,2.72,0,3.42-.45,4.56-1.46,5.19a3.92,3.92,0,0,1-.68.42c-.76.21-1.18-1.16-1.33-3.6A94.12,94.12,0,0,1,91,204.16a32.85,32.85,0,0,1,.92-6.13,14.27,14.27,0,0,1,3.12-6.23c.34-.34.7-.7,1-1s.63-.5,1-.73c.65-.46,1.3-.9,2-1.3,1.32-.82,2.65-1.51,3.91-2.19a38.44,38.44,0,0,0,3.54-2.1c.28-.18.54-.37.8-.57a4,4,0,0,0,.39-.29l.19-.15h0v0l.24-.39.51-.9Z"/><path class="cls-1" d="M160.49,212.5l.37-5.93c0-.72,0-1.44,0-2.16.2-2.55.35-5.11.61-7.67.1-1.14.11-2.28.12-3.41a17.78,17.78,0,0,1,.32-4.36c.11-.45.65-.36,1.2,0a2.86,2.86,0,0,1,1.2,1.94,49.44,49.44,0,0,1,.13,8.78,44.88,44.88,0,0,0,0,5.44c0,2-.07,4-.15,6l-.15,3.71c-.06,1.87-.21,3.75-.22,5.61,0,1.46.19,2.9.13,4.35,0,.32,0,.63-.08,1a4.7,4.7,0,0,1-.2.75,1.62,1.62,0,0,1-.36.47,1.73,1.73,0,0,1-.88.45,2.84,2.84,0,0,1-.45.1c-.45.06-.88-.49-1.31-1.37a21.68,21.68,0,0,1-.65-7.77l.24-5.93Z"/><path class="cls-1" d="M154.91,255c-1-2.79-2-5.58-3.12-8.35-.4-1-.88-2-1.26-3-1.35-3.57-2.74-7.13-4.13-10.69-.63-1.57-1.34-3.12-2.08-4.62a48.77,48.77,0,0,1-2.56-5.94c-.21-.64.13-.74.79-.46a6.14,6.14,0,0,1,2.46,2q.48.71.93,1.41l.46.71.39.74c.51,1,1,2,1.49,3a50,50,0,0,1,2.53,6.2c.86,2.54,2.12,5,3.15,7.56,1.13,2.78,2.22,5.58,3.31,8.38l2,5.17c1,2.6,2,5.23,3.1,7.78.85,2,1.89,3.85,2.81,5.78.18.43.39.84.56,1.29a4.47,4.47,0,0,1,.42,1.84,1.5,1.5,0,0,1-.14.58,2.78,2.78,0,0,1-.37.51c-.13.14-.22.3-.31.39-.22.27-1.31-.07-2-1.16-.53-.82-1.07-1.64-1.57-2.49s-.88-1.76-1.29-2.66c-.82-1.8-1.6-3.66-2.35-5.52-1.12-2.78-2.17-5.59-3.27-8.38Z"/><path class="cls-1" d="M172.57,239.61l3.47,9.67c.43,1.17,1,2.31,1.37,3.48l2.17,6.26,2.08,6.29c.6,1.86,1.38,3.67,2,5.51a52.17,52.17,0,0,1,2.25,7.16c.16.76-.33.83-1.06.39a6.52,6.52,0,0,1-2.36-2.65c-1-2.31-2.24-4.56-3.08-7s-1.75-4.77-2.53-7.22c-.92-2.92-2.23-5.83-3.36-8.75l-3.65-9.68-2.24-6-3.35-9.07c-.44-1.17-.95-2.29-1.41-3.44a32.63,32.63,0,0,1-1.34-3.49,14.05,14.05,0,0,1-.47-1.6c-.5-2-.21-2.9.49-3.38a3.34,3.34,0,0,1,.48-.32c.54-.18,1.14.53,1.68,1.78,1.9,3.78,3.55,8,5.29,12.29,1.29,3.16,2.41,6.43,3.66,9.65Z"/><path class="cls-1" d="M191.24,145.65c.1.45.15.95.23,1.42l.16,1.07.21,1.5.41,3,.84,6c.21,1.46.51,2.91.71,4.37l1.11,8.22a8.53,8.53,0,0,1,0,.89c0,.14,0,.29,0,.43a1.23,1.23,0,0,1-.25.36,3.42,3.42,0,0,1-1.63.83c-1.62.43-1.56.29-3.18.71l-.53.12h-.49l-.2,0h-.11c0-.1-.1.21.09-.22h0l-.05,0-.35-.23a1.51,1.51,0,0,1-.62-.78l-.47-1-1.48-3.15-.76-1.56-.34-.69-.18-.34-.23-.42-.76.41-.1.05-.22.1-.43.21-.88.41a32,32,0,0,1-3.6,1.41c-1.76.55-.9-3.22,2.18-4.63l5.48-2.46,2,4.42,1.11,2.48,1,2.4c0,.08,0,.28.14.25h.06l.2,0,.82-.13c.17,0,.17,0,.2,0h.32c.21,0,.18-.16.18-.3a17.63,17.63,0,0,0-.23-1.79l-.38-2.34c-.26-1.57-.53-3.14-.76-4.71l-1.75-12.1-.24-1.68-.05-.45,0-.23v-.12s-.07,0-.09,0a4.09,4.09,0,0,0-.92.05,7.25,7.25,0,0,0-1.42.42c-.2.1-.5.18-.57.43l-.18,1L184.7,152l-.46,2.81c-.14,1-.28,1.92-.43,2.88l-.24,1.73-1.29.42-1.08.37-1.77.64-3.51,1.28c-.6.21-1.18.45-1.79.65-2.27.75-3.06.76-3.8.09a3.09,3.09,0,0,1-.49-.46c-.41-.57.36-1.37,2-2.06s3.31-1.35,5-2l2.59-.9,1.32-.44s0,0,0,0l0,0,.17-1.2.39-2.59.47-3,.24-1.52.15-.94a4.26,4.26,0,0,1,.43-1.39,3.21,3.21,0,0,1,1-1,7.56,7.56,0,0,1,1.27-.64,8.06,8.06,0,0,1,.91-.3l.45-.12.25-.06.37-.08a11.72,11.72,0,0,1,2.87-.16l.7,0h.36c.07,0,.07.06.09.11l0,.17.36,1.32Z"/><path class="cls-1" d="M131.45,200.83c3.8-1.27,7.74-2.41,11.58-3.54,1.41-.41,2.79-.91,4.2-1.31,5-1.4,9.93-2.82,14.85-4.32,2.17-.69,4.33-1.47,6.42-2.32,2.68-1.13,5.38-2.18,8.08-3.24.85-.31.93.09.45.84a9,9,0,0,1-3,2.78,61.17,61.17,0,0,1-8.26,3.74,85.45,85.45,0,0,1-8.6,2.8c-3.49.93-7,2.25-10.51,3.35-3.86,1.21-7.72,2.39-11.52,3.69-2.36.79-4.73,1.57-7.06,2.4a82.46,82.46,0,0,0-10.35,4.22,42.41,42.41,0,0,0-7,4.67l-1.41,1.18a13.36,13.36,0,0,1-1.13.88,4.68,4.68,0,0,1-.92.44,2.07,2.07,0,0,1-1.45,0,4.83,4.83,0,0,1-.64-.2c-.58-.3-.27-1.4.86-2.87,3.72-3.92,8.75-6.82,13.86-9,3.82-1.64,7.72-2.94,11.54-4.26Z"/><path class="cls-1" d="M404.35,264l-3.43-1c-.42-.12-.85-.18-1.26-.32l-4.35-1.53c-.65-.21-1.31-.38-2-.56a7.43,7.43,0,0,1-2.47-.95c-.24-.16-.06-.51.3-.84a1.89,1.89,0,0,1,1.34-.63,25.37,25.37,0,0,1,2.57.4,23.67,23.67,0,0,1,2.49.86,20.46,20.46,0,0,0,3.13.78c1.15.3,2.29.64,3.44,1,.71.19,1.41.39,2.12.56,1.08.26,2.15.55,3.24.71a17.82,17.82,0,0,0,2.53.07,5,5,0,0,1,.55,0c.66.08.83.27.92,1,0,.17.05.33.06.49a1.06,1.06,0,0,1-.87,1.11,12.36,12.36,0,0,1-4.85-.21c-1.18-.22-2.35-.53-3.51-.81Z"/><path class="cls-1" d="M208,306.23h0l.74-.56h0v0l0,0,0,.06.08.11.15.23.3.46c0,.5.06,1.05.07,1.58-.42,1.33-.84,2.69-1.1,3.84l-.32,1.42a9.28,9.28,0,0,1-.31,1.1,10.6,10.6,0,0,1-1.25,2.76c-.2.25-.37.51-.6.75s-.48.46-.73.68a7.47,7.47,0,0,1-1.64.91,4,4,0,0,1-.78.26,7.47,7.47,0,0,1-.76.17l-.69.09a7.37,7.37,0,0,1-.75.06,18,18,0,0,1-2.39-.18c-.72-.09-1.42-.2-2.11-.31-2-.33-4-.58-6-1-6.9-1.45-13.7-3.17-20.48-5.05L165,312.42c-1.53-.44-3-.85-4.6-1.45a7.65,7.65,0,0,1-2-1.08,2.1,2.1,0,0,1-.64-.87,3.9,3.9,0,0,1-.21-1.09,21.21,21.21,0,0,1,.07-3.53,48.88,48.88,0,0,1,1-5.87c.14-.59.4-.76.77-.76a1.91,1.91,0,0,1,1.22.91,9.37,9.37,0,0,1,1.64,5.39v1.46l-.05,1.15c0,.11,0,0,0,.06h0l.08,0,.62.24,1.32.45c.91.29,1.84.58,2.78.85l11.54,3.27A132.84,132.84,0,0,0,193,314.44c1.33.21,2.66.42,4,.59.66.09,1.31.16,1.94.22a8.36,8.36,0,0,0,1.62,0,3.55,3.55,0,0,0,1.14-.29,1.16,1.16,0,0,0,.45-.62,7,7,0,0,0,.39-1.5l.19-.92.13-.54c.09-.37.2-.75.33-1.15l.11-.3c0-.1.11-.22,0-.22l-.56-.17-1.21-.32c-.83-.15-1.65-.33-2.47-.52-5-1.11-10-2.37-14.94-3.41-3.88-.81-7.77-1.22-11.68-2.07-.86-.18-1.73-.31-2.6-.56a7.46,7.46,0,0,1-3.28-1.62,2.92,2.92,0,0,1-.69-2.45,6.08,6.08,0,0,1,.19-1.31,2.3,2.3,0,0,1,1.43-1.38,4.88,4.88,0,0,1,2.66-.23c3.23.51,6.71,1,10.17,1.73s7,1.51,10.56,2.32l7.93,1.87,2,.47,1,.23,1,.31.84.24c.31.08.64.17.94.28l.91.31a3.06,3.06,0,0,1,.84.37l.36.25.4.17c.16,0,.2.18.26.3l.18.37.61,1.23Z"/><path class="cls-1" d="M347.82,296.59l-.63.88c-.08.11-.13.23-.21.34l-.85,1.13a4.32,4.32,0,0,0-.34.53,1.67,1.67,0,0,1-.47.65c-.14.1-.72-.57-.57-.82a7.37,7.37,0,0,1,.93-1.27,4.15,4.15,0,0,0,.52-.83l.58-.92.37-.57c.17-.29.37-.57.54-.87s.2-.49.3-.74a1.11,1.11,0,0,1,.07-.16c.11-.19.22-.2.47-.08l.17.08a.47.47,0,0,1,.27.45,3.67,3.67,0,0,1-.54,1.31c-.18.3-.39.6-.58.9Z"/><path class="cls-1" d="M349.11,297.81l-.47.53-.16.21c-.2.23-.4.47-.59.71a2.5,2.5,0,0,0-.21.35,1.34,1.34,0,0,1-.27.44c-.08.07-.5-.31-.41-.5a3.54,3.54,0,0,1,.64-.89,4.91,4.91,0,0,0,.4-.53l.46-.57.29-.35c.14-.18.29-.35.42-.53s.16-.31.24-.47a.42.42,0,0,1,0-.1c.08-.12.14-.13.3-.05l.12.06a.25.25,0,0,1,.14.29,2.4,2.4,0,0,1-.47.84l-.46.56Z"/><path class="cls-1" d="M385.1,287.31c-.14.14-.29.28-.43.44s-.07.13-.12.19-.4.4-.58.61a1,1,0,0,0-.18.32c-.07.15-.08.34-.28.4s-1-.71-.94-.85a1.76,1.76,0,0,1,.64-.7c.18-.11.24-.31.36-.47s.29-.35.45-.52l.28-.3c.14-.17.31-.3.44-.46s.17-.3.27-.43a.31.31,0,0,1,.07-.09c.1-.09.19-.06.38.12l.13.13a.63.63,0,0,1,.19.42,1.45,1.45,0,0,1-.28.77,4.8,4.8,0,0,1-.37.44Z"/><path class="cls-1" d="M386.61,287.69l-.4.43a.7.7,0,0,1-.13.17l-.56.53a1,1,0,0,0-.19.27c-.07.12-.12.27-.27.34s-.6-.45-.52-.6a1.9,1.9,0,0,1,.56-.67,1.92,1.92,0,0,0,.32-.43c.13-.15.27-.29.41-.44l.24-.27a4.7,4.7,0,0,0,.35-.43c.07-.12.11-.27.17-.4l0-.09c.06-.09.13-.09.3,0l.12.07a.35.35,0,0,1,.2.29,1.61,1.61,0,0,1-.27.76c-.11.17-.23.32-.35.48Z"/><path class="cls-1" d="M141.35,186.59c3.39-1,6.8-2,10.21-2.92l3.72-1.07c4.37-1.21,8.74-2.43,13-3.92,1.91-.63,3.77-1.42,5.62-2.17l3.48-1.62c1.15-.57,2.28-1.17,3.45-1.71.72-.34.72-.13.21.36a12.85,12.85,0,0,1-2.8,2,87.6,87.6,0,0,1-14.8,5.72c-3,.9-6.19,1.87-9.31,2.76-3.42,1-6.86,1.91-10.26,2.94-2.1.61-4.18,1.29-6.26,2-1.56.56-3.13,1.09-4.68,1.67s-3.09,1.18-4.58,1.87c-1.16.53-2.31,1.06-3.44,1.62l-3.32,1.79c-.49.25-.94.55-1.43.83-1.78,1.06-2.39,1.32-2.93,1.29a1.37,1.37,0,0,1-.36,0c-.29-.08.35-.67,1.63-1.52a59.5,59.5,0,0,1,6.06-3.5c2.16-1,4.34-2,6.6-2.88,3.32-1.34,6.74-2.44,10.15-3.53Z"/><path class="cls-1" d="M234.67,272.81l-1,.76c-.12.1-.22.22-.35.31l-1.31,1c-.19.15-.37.31-.55.48a2.3,2.3,0,0,1-.74.57c-.19.07-.5-.75-.25-1a11.85,11.85,0,0,1,1.47-1.12,6.89,6.89,0,0,0,.87-.75l1-.82.62-.5c.31-.25.65-.48,1-.73s.45-.42.7-.61l.16-.13c.21-.14.31-.13.47,0l.1.1a.34.34,0,0,1,0,.44,7.48,7.48,0,0,1-1.13,1.19c-.31.27-.63.54-1,.8Z"/><path class="cls-1" d="M238.85,274.15c-.51.38-1,.77-1.53,1.17-.18.15-.34.32-.52.47a22.22,22.22,0,0,0-1.83,1.67,9.16,9.16,0,0,0-.7.84,9,9,0,0,1-.83,1.12c-.21.21-.64-.5-.34-1a10.72,10.72,0,0,1,2-2.23c.45-.39.86-.85,1.31-1.25s1-.87,1.52-1.28l1-.74c.48-.38,1-.74,1.46-1.12s.69-.64,1-.95c.08-.07.15-.15.23-.21.29-.25.43-.27.66-.11l.15.11c.15.14.13.37-.06.59a13.83,13.83,0,0,1-1.92,1.73l-1.54,1.19Z"/><path class="cls-1" d="M302.79,107.58a26.82,26.82,0,0,0,23.72-4c6.7-5.18,7.16-16.57-1.33-20.68-7.77-3.77-14.36,5.65-11.49,12.62,2.64,6.38,10.44,8.23,16.66,7.39a20.42,20.42,0,0,0,17.9-17.4c.24-1.41-4.24-.63-4.46.67-1.13,6.68-5,13.43-12.27,14.59-5.57.89-12.22-1.89-13.76-7.69a9.44,9.44,0,0,1,.23-5.71c1.32-3.55,4.58-2.19,6.46.25,2.2,2.88,3.54,6.76,2.36,10.32-2.67,8-13.28,9.92-20.39,7.67-1.18-.37-5.22,1.46-3.63,2Z"/><path class="cls-1" d="M194.43,99.33c-4.55,1.53-7.09-1-7.3-5.55a16.21,16.21,0,0,1,.92-6,15.94,15.94,0,0,1,1-2.22c.08-.16.52-.57.53-.75,0-.93.08.68-.51-.12s.12.49.09.4a7.34,7.34,0,0,0,.76,1.08,3,3,0,0,1,.69,2.21c-.4,1.49-2.25,1.84-3.56,2-5.14.44-7.9-3.15-6.15-8,.54-1.47-3.68-1-4.21.5-2.06,5.66,1.46,9.52,7.14,9.93,3.44.25,10.72-.83,11-5.41.3-4.34-4.68-6.33-7.88-4.06-3.43,2.44-4.41,8.1-4,12,.61,6.69,6.36,8.11,12.07,6.2,2.45-.82,1.92-3.07-.6-2.23Z"/></g></svg>