<svg xmlns="http://www.w3.org/2000/svg" width="520" height="520" viewBox="0 0 520 520"><defs><style>.cls-1,.cls-2,.cls-4{fill:#231f20;}.cls-1{opacity:0.15;}.cls-3,.cls-4{opacity:0.3;}</style></defs><title>notioly upgrade</title><g id="n.111_Connection" data-name="n.111 Connection"><path class="cls-1" d="M270.91,145.66s9.37,8.35,6.21,16.64c-.91,2.4-1.78,6.94-4.61,10-6.95,7.4-20.71,9.24-32-4,0,0-7.24-10,.46-25.11C241,143.13,256.75,137.64,270.91,145.66Z"/><path class="cls-1" d="M286.86,150.42s-9.89,20.69,3.45,29.88,29.63,3.94,33.17-10.91-4.92-21.09-9.47-22.14S292.38,144.24,286.86,150.42Z"/><path class="cls-2" d="M169.33,340.24c-8.68-.79-18.84,1.26-18.84,1.26s-3.57,14.9,3.16,14.84S168.6,349.24,169.33,340.24Z"/><path class="cls-2" d="M381.29,374.73s6.87,26.14,13.91,20.12c5.2-4.43,0-15.77,0-15.77S388.1,374.74,381.29,374.73Z"/><path class="cls-2" d="M275.76,134.53c.25-.06.4.13.46.49a3.53,3.53,0,0,1-.06,1.53,5.88,5.88,0,0,1-.8,1.55c-.31.27-.53.57-.84.79-.09.06-.65.22-1.36.47s-1.42.33-1.8.46a6,6,0,0,1-2.1.24c-1.31-.24-2.65-.35-4-.5a1.62,1.62,0,0,1-.83-.34,4.48,4.48,0,0,0-2.92-.74c-.16,0-.33,0-.51.22-.31.42-2.86.27-3.14.12a12.5,12.5,0,0,0-2.42-1.17c-.11-.06-.21,0-.36-.27-.35-.74-.58-.59-.84-.63l-.53-.09a4.11,4.11,0,0,1-.59-.26,8.56,8.56,0,0,1-.8-.71,2.54,2.54,0,0,1-.49-1.2c.07-.34-.23-.71-.39-1.06-.05-.12-.12-.28-.15-.38a7.47,7.47,0,0,1,1-1.8,7.25,7.25,0,0,1,1.45-1.5s.29-.15.69-.29l1.47-.4c1.09-.28,2.19-.46,2.43-.56s.47.1.7.22c.06,0,.87-.12,1.69-.25s1.63-.21,1.69-.2c.63.13,1.29-.1,1.83.68.1.16.23.14.36.14a10.1,10.1,0,0,1,3.07.89,14.17,14.17,0,0,0,1.57.34c.09,0,.17.14.25.21s.21.2.33.22a7.67,7.67,0,0,1,1.8.56,7.38,7.38,0,0,0,1.8.62,3.51,3.51,0,0,1,.84.67,5.28,5.28,0,0,0,.87.7C275.3,133.38,275.55,134.6,275.76,134.53Z"/><path class="cls-2" d="M319.94,64.29c-2-5-37.5-33.42-80.61-6.1-38.4,24.34-41.84,52.85-32.69,67.71,25.36,41.2,78.9-5.24,83.67-12.24.66-1,4.68,3.26,15.38,5,4.77.76,10.8-1.79,19.52-2.13,0,0,11.57,52.87,40,34.06,0,0,25.83-15.7,12.06-55.77S319.94,64.29,319.94,64.29Z"/><path class="cls-2" d="M305.32,223.27a37.94,37.94,0,0,1-11.52,5.2,35.88,35.88,0,0,1-12.54.94,19,19,0,0,1-2.27-.25l-2.26-.32c-1.49-.31-3-.63-4.43-1a34.56,34.56,0,0,1-14-8,46.64,46.64,0,0,1-9.46-12.75,85.53,85.53,0,0,1-5.29-12.9,65.41,65.41,0,0,1-3.36-17.37c-.11-1.84.54-1.66,1.43-.23a22.85,22.85,0,0,1,1.48,3,24.47,24.47,0,0,1,1.44,4.29,117.64,117.64,0,0,0,5,16.65,62.51,62.51,0,0,0,3.76,7.77c.7,1.26,1.54,2.42,2.31,3.64l1.31,1.71a19.7,19.7,0,0,0,1.35,1.67,32.14,32.14,0,0,0,8.05,6.58l2.38,1.14a13,13,0,0,0,1.2.55l1.25.42c.84.27,1.66.6,2.51.83l2.61.62a39.06,39.06,0,0,0,11.6.82,31.93,31.93,0,0,0,11.18-3.09,41.47,41.47,0,0,0,11.51-8.71A73.26,73.26,0,0,0,322.86,196a127.89,127.89,0,0,0,6.07-16l1.13-3.59c1.45-4.49,2.22-5.84,3.53-6.46a5.33,5.33,0,0,1,.79-.43c.38-.1.53.34.58,1.26a13.49,13.49,0,0,1-.62,3.94,116.15,116.15,0,0,1-12.2,30c-4.26,7.08-9.67,13.82-16.76,18.64Z"/><path class="cls-2" d="M352.33,169.53a12,12,0,0,0,1.43-6.85,8.92,8.92,0,0,0-.71-2.37,7.34,7.34,0,0,0-2.7-3.25,9.61,9.61,0,0,0-4.44-1.56,9.17,9.17,0,0,0-4.22.66l-.63.27-.58.35c-.19.12-.39.23-.57.36l-.53.42a16.6,16.6,0,0,0-2,1.87c-.41.41-.83.15-1-.6a3.93,3.93,0,0,1,0-1.47,5.6,5.6,0,0,1,.32-.85,2.13,2.13,0,0,1,.57-.83,11.58,11.58,0,0,1,6.46-3.13,12.21,12.21,0,0,1,7,1,15.39,15.39,0,0,1,3.68,2.51,6.37,6.37,0,0,1,.77.86,5.8,5.8,0,0,1,.67.95l.56,1c.15.34.28.69.4,1a14.5,14.5,0,0,1-.32,9.24,18.77,18.77,0,0,1-2.6,4.91,18.41,18.41,0,0,1-6.31,5.45,14.39,14.39,0,0,1-6.37,1.86,7,7,0,0,1-1.51-.06,3.62,3.62,0,0,1-1.87-.71,1.62,1.62,0,0,1-.42-1.27c0-.23,0-.45,0-.65.11-.62,1-1.09,2-1.06a13.8,13.8,0,0,0,4.34-.59,13,13,0,0,0,4-2.12,15.72,15.72,0,0,0,4.44-5.49Z"/><path class="cls-2" d="M384.29,112.12a65.27,65.27,0,0,1-3.28,18,49.08,49.08,0,0,1-8.78,16.15,27.32,27.32,0,0,1-11,8.17,20.81,20.81,0,0,1-6,1.28,24.63,24.63,0,0,1-6.07-.42,23.22,23.22,0,0,1-10.8-5.34,32.43,32.43,0,0,1-7.2-9.4,54.83,54.83,0,0,1-4.25-10.87c-.67-2.35-1.22-4.73-1.67-7.12-.23-1.2-.43-2.4-.61-3.6l-.14-.94c0-.46-.37-.1-.61-.08l-.34.11-.66.16c-.49.13-1,.24-1.47.34-1,.23-2,.38-2.94.55a52,52,0,0,1-13.19.44,28.43,28.43,0,0,1-12.61-4c-2.31-1.59-1.64-1.73.53-1,.27.09.55.22.88.31l1.06.29,1.18.35,1.33.29a59.17,59.17,0,0,0,6.37,1,48.39,48.39,0,0,0,9.85,0c1.64-.19,3.29-.37,4.91-.66.82-.13,1.62-.29,2.42-.46.41-.08.79-.19,1.19-.28l.29-.08.25-.06.3-.1,1.23-.4.49-.13c.16,0,.33-.11.41,0l.6.22.15.05.08,0-.29.47H326l.26.12a3.57,3.57,0,0,1,.62.31c.05,0,.14,0,.15.12l0,.23c0,.16.07.31.1.48l.14,1,.2,1.34q.3,2,.69,3.93a75.45,75.45,0,0,0,1.95,7.7,43.76,43.76,0,0,0,7,14,22.69,22.69,0,0,0,5.57,5.09,19.53,19.53,0,0,0,7.05,2.74,21.42,21.42,0,0,0,3.84.34c.65,0,1.27,0,1.9-.08s1.26-.14,1.87-.3a19.84,19.84,0,0,0,7-3c4.7-3.16,8.24-8,10.87-13.14a57.77,57.77,0,0,0,5.25-16.69A61.12,61.12,0,0,0,380,98a48.88,48.88,0,0,0-5.83-15.25,39.36,39.36,0,0,0-10.94-11.92,40.31,40.31,0,0,0-11.14-5.59,59.18,59.18,0,0,0-12.17-2.54c-1.83-.16-3.62-.27-5.48-.31-1.71-.09-3.14,0-4.34-.09s-2.16,0-3,0a9.15,9.15,0,0,1-3.32-.57,5.43,5.43,0,0,1-1-.46c-.37-.28.14-.6,1.4-.94.63-.16,1.45-.35,2.43-.51s2.14-.26,3.44-.36c7.71-.46,15.92.08,23.74,2.89a43.61,43.61,0,0,1,20.25,14.51,48.42,48.42,0,0,1,8.24,16.8,61.66,61.66,0,0,1,2.08,18.46Z"/><path class="cls-2" d="M300.28,225.29c-4.21,18.22-40.21,11.17-32.74-2.51C267.54,222.78,285.33,232.66,300.28,225.29Z"/><path class="cls-2" d="M381.84,273.7c8,6.54,15.73,13.47,23.12,20.71,2.69,2.64,5.43,5.24,8,8a242.21,242.21,0,0,1,25.17,30.94,112.26,112.26,0,0,1,8.92,15.41,34,34,0,0,1,3.3,11.18,13.85,13.85,0,0,1-.76,6.11,9.49,9.49,0,0,1-4,4.79c-1.1.66-1.7.67-1.77.43s.3-.82.86-1.65a10.19,10.19,0,0,0,1.59-3.34,16.4,16.4,0,0,0,.25-4.81,21.08,21.08,0,0,0-1-5c-.53-1.67-1.11-3.37-1.82-5a84.7,84.7,0,0,0-5.1-9.81,197.62,197.62,0,0,0-12.82-18.67,221.08,221.08,0,0,0-18.69-20.82c-7.23-7.33-14.77-14.36-22.64-21-4.85-4.09-9.81-8-14.92-11.78A180.59,180.59,0,0,0,345.29,254a208.75,208.75,0,0,0-20.1-8.86c-1.5-.57-3-1.07-4.5-1.62-5.64-2-7.25-2.51-8.28-3.87a9.74,9.74,0,0,1-.78-.82c-.31-.43.18-.8,1.49-1a15.41,15.41,0,0,1,5.27.72c3.26.9,6.44,2,9.63,3.25s6.36,2.55,9.51,4a183.63,183.63,0,0,1,18.67,9.66,234.79,234.79,0,0,1,25.69,18.13Z"/><path class="cls-2" d="M98.44,302c3.12-6.7,8-12.1,13.06-16.89A132.19,132.19,0,0,1,128,272.19c4.2-2.83,8.47-5.56,12.85-8.07,7.74-4.42,15.67-8.43,23.74-12.15a259.45,259.45,0,0,1,24.83-9.71c7.48-2.48,15-4.79,22.61-6.79a206.19,206.19,0,0,1,29.53-5.95c3.11-.36,2.76.2.25,1.21-1.25.49-3,1.13-5.2,1.84-1.08.33-2.25.72-3.51,1.07s-2.6.66-4,1c-5,1.11-9.88,2.35-14.77,3.68s-9.78,2.71-14.64,4.2-9.67,3.11-14.47,4.8-9.55,3.54-14.26,5.53a257.3,257.3,0,0,0-33.23,17.29,172,172,0,0,0-17,11.65A81.77,81.77,0,0,0,106.25,296l-.93,1.24-.86,1.29c-.6.85-1.1,1.75-1.61,2.64s-.91,1.84-1.38,2.75l-.55,1.42a12.86,12.86,0,0,0-.49,1.44l-.41,1.46c-.13.49-.19,1-.29,1.49a21.5,21.5,0,0,0-.31,3,15.76,15.76,0,0,0,1.06,5.82,34.28,34.28,0,0,0,4.56,8.14,59.09,59.09,0,0,0,6.28,7.15,85.31,85.31,0,0,0,15.05,11.69A73.88,73.88,0,0,0,139.49,352a39.46,39.46,0,0,0,13.91,2.79,16.27,16.27,0,0,0,5.79-1.15,15.12,15.12,0,0,0,3.92-2.44c1-.82,1.77-1.6,2.43-2.22a12.77,12.77,0,0,1,3-2.41,8.44,8.44,0,0,1,1.15-.59c.49-.12.37.57-.32,1.91a21,21,0,0,1-4.3,5.58,16.48,16.48,0,0,1-6.28,3.7,21.48,21.48,0,0,1-7.27.83,45.79,45.79,0,0,1-13.85-3.23,89.35,89.35,0,0,1-24.31-14.64c-5.42-4.57-10.52-9.71-14.23-16.16a23.32,23.32,0,0,1-3.33-11,26.64,26.64,0,0,1,2.56-11Z"/><path class="cls-2" d="M414.89,385.4c1-.11,2-.24,2.93-.38s2-.28,2.94-.47c.71-.12,1.39-.36,2.1-.51a56.65,56.65,0,0,0,7.41-2c1.09-.34,2.09-.89,3.13-1.33.65-.32,1.28-.67,1.94-1s1.29-.66,2-.93c.43-.17.56.13.42.64a3.71,3.71,0,0,1-1.21,1.81,25.19,25.19,0,0,1-8.25,4.13c-1.78.49-3.55,1.25-5.36,1.77a57.68,57.68,0,0,1-6.06,1.38c-1.25.21-2.51.39-3.77.56-1.9.27-3.83.39-5.73.62-1.48.12-2.92.49-4.4.57-.32,0-.64.09-1,.08-1.22-.17-1.6-.5-1.84-1.17-.05-.15-.13-.3-.16-.44-.1-.45.4-.94,1.25-1.31a11.69,11.69,0,0,1,1.91-.6c.63-.19,1.27-.26,1.92-.39A39.22,39.22,0,0,1,409,386c1.95-.2,3.93-.36,5.89-.67Z"/><path class="cls-2" d="M394.63,389a49.58,49.58,0,0,0,.36-12.44c-.13-1.53-.43-3-.67-4.55-.87-5.31-2.35-10.67-5.32-15.09a14.11,14.11,0,0,0-5-4.63,11.42,11.42,0,0,0-4.07-1.18,20.3,20.3,0,0,0-4.33.07c-.91.09-1-.68-.38-1.62a5.19,5.19,0,0,1,4.43-2,14.85,14.85,0,0,1,10,4.68,25.13,25.13,0,0,1,5.38,9,68.29,68.29,0,0,1,3.32,11.87,58.83,58.83,0,0,1,.63,13.46,28.31,28.31,0,0,1-1.71,8.35,8.31,8.31,0,0,1-1.43,2.38,3.8,3.8,0,0,1-2.9,1.35l-.69-.07-.67-.18a5.48,5.48,0,0,1-1.12-.49,10.51,10.51,0,0,1-1.77-1.3,24.67,24.67,0,0,1-2.73-3,71,71,0,0,1-5.44-7.92c-.35-.61-.7-1.2-1-1.83-1.13-2.36-1.17-3.27-.45-4.18a3.84,3.84,0,0,1,.49-.61c.63-.53,1.62.16,2.69,1.69,1.61,2.25,3.11,4.61,4.66,6.9.79,1.14,1.54,2.29,2.35,3.34a17.76,17.76,0,0,0,2.48,2.74,5.66,5.66,0,0,0,.85.6c.29.13.18.1.2.11s0,0,0,0a4.61,4.61,0,0,0,.74-1.33,18.29,18.29,0,0,0,1.06-4.14Z"/><path class="cls-2" d="M285.88,252.94a32.89,32.89,0,0,1-10.29-1.06,35.15,35.15,0,0,1-3.59-1.21,53.23,53.23,0,0,1-10.93-6.75c-1.5-1.15-3-2.32-4.41-3.51a30.86,30.86,0,0,1-5.16-5c-.45-.6.09-1,1-1a4.84,4.84,0,0,1,3.15,1.19,139.68,139.68,0,0,0,11,8.77,32.31,32.31,0,0,0,7.7,3.75,25.87,25.87,0,0,0,9.13,1.41c1-.05,1.94-.07,2.91-.17s1.95-.19,2.91-.39a47.32,47.32,0,0,0,8.65-2.28,68.14,68.14,0,0,0,6.21-3,10,10,0,0,1,1.35-.68,9.46,9.46,0,0,1,1.14-.38,3.43,3.43,0,0,1,.88,0,2.15,2.15,0,0,1,1.19.42,3.12,3.12,0,0,1,.44.32c.2.19.16.46,0,.84a6.18,6.18,0,0,1-1.11,1.43c-3.36,2.73-7.62,4.38-12,5.64A49.7,49.7,0,0,1,285.89,253Z"/><path class="cls-2" d="M227.12,256c-1.16-.18-2.31-.35-3.44-.59s-2.3-.45-3.46-.76a22,22,0,0,1-3.47-1.26,11.28,11.28,0,0,1-3.28-2.26,7.1,7.1,0,0,1-2-5.94,8.59,8.59,0,0,1,2.57-4.61,19.44,19.44,0,0,1,3.74-2.84,50.5,50.5,0,0,1,8.09-3.76c2.41-.91,4.82-1.92,7.32-2.68,3.17-1,6.6-1.85,10.07-1.25,1.09.22.8.81-.09,1.34a12.59,12.59,0,0,1-4,1.52A55.94,55.94,0,0,0,230,235.7c-3.12,1.18-6.18,2.29-9.08,3.72a15.94,15.94,0,0,0-4.59,3.27,6.61,6.61,0,0,0-1.37,2.09,3.58,3.58,0,0,0-.19,2.14c.27,1.58,1.76,2.88,3.65,3.74a26.37,26.37,0,0,0,6.23,1.74,60.42,60.42,0,0,0,8.18.8c4.17.13,8.41,0,12.64-.07,3.28-.07,6.54-.25,9.87,0,.73.07,1.45.09,2.19.19,2.73.43,3.52,1,3.81,2.11a3.51,3.51,0,0,1,.17.75c0,.81-1.17,1.11-3,.95a159.49,159.49,0,0,0-17.44-.47,105.17,105.17,0,0,1-13.88-.61Z"/><path class="cls-2" d="M340.16,270.67a8.53,8.53,0,0,1-3.32,2,13.79,13.79,0,0,1-3.35.69,27.83,27.83,0,0,1-6.28-.2c-1.47-.19-2.94-.36-4.38-.69a56,56,0,0,1-7.41-2.25,72.27,72.27,0,0,1-7-3.1,58,58,0,0,1-5.94-3.39,20.72,20.72,0,0,1-6.29-6.08c-.5-.77-.11-.89.71-.6a14.64,14.64,0,0,1,3.38,1.79,74.24,74.24,0,0,0,14.67,8.07A42.5,42.5,0,0,0,325,269.56a38.84,38.84,0,0,0,5.64.54,13.81,13.81,0,0,0,5.26-.77,4.46,4.46,0,0,0,2.19-1.7,4.37,4.37,0,0,0,.31-.61,3.85,3.85,0,0,0,.18-.63,2.67,2.67,0,0,0-.1-1.26,12.91,12.91,0,0,0-2.58-4.26,41.14,41.14,0,0,0-3.76-3.83c-2.08-1.87-4.34-3.48-6.56-5.24-.49-.39-1-.75-1.47-1.17-1.78-1.57-2.09-2.51-1.67-3.49a2.78,2.78,0,0,1,.31-.65c.48-.57,1.4-.29,2.74.61,3.9,2.86,8.27,6,12.06,10.07a22.19,22.19,0,0,1,3.88,5.42,7.58,7.58,0,0,1,.76,4.24,5.67,5.67,0,0,1-.12.62l-.16.51a5.35,5.35,0,0,1-.42,1,7,7,0,0,1-1.25,1.78Z"/><path class="cls-2" d="M342.26,346a76.72,76.72,0,0,0-9.38-3.28,15.43,15.43,0,0,0-1.72-.35,6.1,6.1,0,0,0-.77-.09,4.09,4.09,0,0,0-.79,0,24.62,24.62,0,0,0-6,1.07,46.66,46.66,0,0,0-6,2.2,38,38,0,0,0-5,2.7c-1,.62-2,1.3-3,2s-1.94,1.38-2.79,2.11c-.54.44-.94.07-.91-.8a3.16,3.16,0,0,1,.11-.75,4.21,4.21,0,0,1,.33-.83,5.27,5.27,0,0,1,1.28-1.65,39,39,0,0,1,3.16-2.34,36.33,36.33,0,0,1,3.41-1.87,43.8,43.8,0,0,1,7.24-2.82c1.52-.4,3-.89,4.63-1.21a14.26,14.26,0,0,1,5.06-.38,67.72,67.72,0,0,1,10,2.94c2,.75,3.95,1.53,5.89,2.36,3,1.24,5.82,2.71,8.63,4.21a73,73,0,0,1,6.46,3.69c.45.32.9.63,1.35,1a5.19,5.19,0,0,1,1.44,1.71,1.56,1.56,0,0,1,.1,1.24,3.79,3.79,0,0,1-.2.54c-.3.49-1.23.24-2.33-.55a101.79,101.79,0,0,0-11.11-6.6c-3-1.49-6-2.9-9.12-4.13Z"/><path class="cls-2" d="M327.82,349.87a12.8,12.8,0,0,0-4.18.72c-.53.16-1,.43-1.57.62-1.9.66-3.8,1.45-5.68,2.3-.84.37-1.64.82-2.44,1.27a12,12,0,0,1-3.2,1.54c-.38.09-.56-.45-.53-1.09a2.15,2.15,0,0,1,.83-1.73,32.84,32.84,0,0,1,6.44-3.22c1.39-.48,2.7-1.27,4.12-1.82a21.26,21.26,0,0,1,4.95-1.38,28.06,28.06,0,0,1,3.16,0,30,30,0,0,1,4.69.52,22.08,22.08,0,0,1,3.64.85,5.24,5.24,0,0,1,.78.3c.87.57,1,1,.75,1.7a3.86,3.86,0,0,1-.16.48,1.34,1.34,0,0,1-1.51.58,19.76,19.76,0,0,1-2.77-.64,23.64,23.64,0,0,0-2.76-.58,34.29,34.29,0,0,0-4.56-.31Z"/><path class="cls-2" d="M328.35,355.89a10.57,10.57,0,0,0-3.24.13,11.11,11.11,0,0,0-1.11.37,17.8,17.8,0,0,0-4,1.82,20,20,0,0,0-1.72,1.17,5.83,5.83,0,0,1-2.44,1.24c-.29.05-.44-.36-.45-.87a2.15,2.15,0,0,1,.44-1.49,13.39,13.39,0,0,1,2.13-1.52,17.32,17.32,0,0,1,2.46-1.3,29.5,29.5,0,0,1,3.26-1.47,11.89,11.89,0,0,1,3.95-.39c.79,0,1.57.09,2.35.19,1.17.14,2.31.41,3.45.65.89.17,1.8.27,2.69.53a4.31,4.31,0,0,1,.59.16,1,1,0,0,1,.67,1.27c0,.13-.06.27-.1.39a1.15,1.15,0,0,1-1.12.66,18.28,18.28,0,0,1-2.24-.29l-2.19-.57a25.48,25.48,0,0,0-3.34-.62Z"/><path class="cls-2" d="M350.51,372.1a23.83,23.83,0,0,0,5.21,2.35c.45.15.91.24,1.37.36s.91.19,1.4.25a28.75,28.75,0,0,0,2.93.28,27.5,27.5,0,0,0,4.26-.17,28.71,28.71,0,0,0,7.37-1.73l1.86-.7a12.73,12.73,0,0,1,2.12-.63,7.93,7.93,0,0,1,2.29,0c.7.08,1.38.19,2,.32a69.71,69.71,0,0,1,7,1.65,43.88,43.88,0,0,1,4.36,1.48,13.31,13.31,0,0,1,4,2.49c.75.76.21,1-.71.92a13.71,13.71,0,0,1-3.87-.71,64.86,64.86,0,0,0-8.5-2.45c-1.44-.34-2.91-.65-4.31-.86-.36-.06-.68-.07-1-.11a4,4,0,0,0-.78,0,12.58,12.58,0,0,0-1.93.55c-1.73.61-3.57,1.35-5.48,1.88a27.41,27.41,0,0,1-5.88,1,34.94,34.94,0,0,1-6.47-.28,23.47,23.47,0,0,1-6.3-1.86,38.56,38.56,0,0,1-6.74-4.12c-1.58-1.18-3.09-2.43-4.58-3.66a22.84,22.84,0,0,0-4.81-2.74,23.11,23.11,0,0,0-8.22-1.89c-.61-.05-1.18.06-1.77,0-2.15.19-2.69.39-3.52-.28a6.31,6.31,0,0,1-.54-.39c-.24-.23-.18-.54.17-1a2.79,2.79,0,0,1,.78-.66,9.62,9.62,0,0,1,1.27-.5,17.53,17.53,0,0,1,8.84.31,31.64,31.64,0,0,1,8.16,3.49c.48.31,1,.62,1.49,1l1.22,1c.8.65,1.59,1.29,2.39,1.91a43.08,43.08,0,0,0,4.92,3.34Z"/><path class="cls-2" d="M238,333.89a16.61,16.61,0,0,0-3.37-2.27,39.25,39.25,0,0,0-4-1.62c-2.77-1-5.61-1.86-8.48-2.67-2.09-.59-4.21-1.08-6.31-1.62-3.71-1-7.45-1.87-11.19-2.7s-7.51-1.63-11.29-2.3c-3.35-.6-6.74-1-10.1-1.36-2.15-.19-4.32-.32-6.46-.36a47.5,47.5,0,0,0-6.34.17c-1.21.21-1.29-.24-.26-1.05a10.72,10.72,0,0,1,5.84-1.69,97.56,97.56,0,0,1,13.51,1.12c4.45.64,8.87,1.48,13.27,2.48,5.25,1.23,10.75,2.33,16.09,3.71,2.93.77,5.85,1.59,8.76,2.49a60.35,60.35,0,0,1,8.65,3.26,25.76,25.76,0,0,1,8.4,7.87,27.48,27.48,0,0,1,3.93,7.75,21.33,21.33,0,0,1,.52,2.22c0,.2.08.38.1.6l0,.74a5.15,5.15,0,0,1-.07,1.43,2.64,2.64,0,0,1-.51,1.17,1.56,1.56,0,0,1-1.14.58,4.07,4.07,0,0,1-2.46-1,15.81,15.81,0,0,1-2.52-2.72l-2-2.53a41.27,41.27,0,0,0-4.15-4.64,18.18,18.18,0,0,0-2-1.59,20.22,20.22,0,0,0-2.66-1.52,7.39,7.39,0,0,1-1.41-.83c-.19-.13-.45-.23-.59-.35s-.07-.52.63-.93a4.73,4.73,0,0,1,3.6-.21,9.52,9.52,0,0,1,3,1.54,20.63,20.63,0,0,1,2.44,2.09,43.12,43.12,0,0,1,4,4.73c.58.81,1.15,1.63,1.74,2.44.28.39.56.78.83,1.13s.49.56.43.5h0s0,0,0-.09l-.11-.79-.25-1a18,18,0,0,0-.69-1.94,25.14,25.14,0,0,0-2-3.74,28.2,28.2,0,0,0-5.49-6.46Z"/><path class="cls-2" d="M236.48,348.46a22.4,22.4,0,0,0-1.75-2.82,6.56,6.56,0,0,0-.76-.72,14.53,14.53,0,0,0-3.49-2.37c-.59-.31-1.25-.49-1.87-.76a6.59,6.59,0,0,1-2.37-1.24c-.22-.21,0-.62.48-1a2,2,0,0,1,1.47-.62,12.07,12.07,0,0,1,4.95,2.08,22.63,22.63,0,0,1,3,2.06,7.45,7.45,0,0,1,.71.77c.21.26.4.51.58.78.36.51.7,1,1,1.57s.76,1.32,1.13,2c.55,1,1,2.05,1.56,3.05.43.77.92,1.5,1.32,2.31a3.32,3.32,0,0,1,.25.54,1.07,1.07,0,0,1,0,.84,1.25,1.25,0,0,1-.53.51c-.12.07-.22.14-.31.18a1.34,1.34,0,0,1-1.27-.36,14.13,14.13,0,0,1-2.51-3.76c-.53-1-1.05-2-1.64-3Z"/><path class="cls-2" d="M232.26,350.75a13.08,13.08,0,0,0-1.48-2.23,5.21,5.21,0,0,0-.73-.68,13.25,13.25,0,0,0-2.91-2.22,6.83,6.83,0,0,0-1.56-.64,13,13,0,0,1-2.06-.67c-.21-.11-.12-.42.13-.7a1.52,1.52,0,0,1,1.14-.52,10,10,0,0,1,4.56,1.46c.81.57,1.73,1,2.51,1.69a10.48,10.48,0,0,1,2.16,2.54,7.65,7.65,0,0,1,.5.88c.16.3.32.6.45.9.43.92.71,1.88,1.06,2.79.25.71.66,1.37.89,2.08a2.79,2.79,0,0,1,.14.47,1,1,0,0,1-.57,1.09l-.28.15c-.3.13-.67,0-1.06-.39a5.42,5.42,0,0,1-1.07-1.71c-.25-.6-.48-1.19-.71-1.78a18,18,0,0,0-1.16-2.47Z"/><path class="cls-2" d="M301.45,349.24c-.1,3.72-.11,7.47,0,11.21,0,1.37.18,2.72.24,4.08.08,2,.17,3.89.34,5.81.07,1,.19,1.91.31,2.83.06.46.13.92.22,1.34.06.25.07.3.1.41a.74.74,0,0,0,.16.27,1.69,1.69,0,0,0,.27.13l.14.05.27.07c.4.11.83.19,1.26.27a21.26,21.26,0,0,0,3.08.29,14.38,14.38,0,0,0,1.49-.06l.25,0,.18-.05a.54.54,0,0,0,.32-.18,5.2,5.2,0,0,0,.16-1.25c.06-.64.09-1.31.11-2,0-1.34.14-2.71.15-4,0-.4.1-.52.28-.58s.44.08.74.43A7.15,7.15,0,0,1,313,372c0,.59.1,1.19.12,1.81,0,.3,0,.62,0,.93l0,.48v.25l-.06.42a5.79,5.79,0,0,1-.16.83,2.34,2.34,0,0,1-.27.77,2.42,2.42,0,0,1-1.16,1.07,5.28,5.28,0,0,1-1.6.46,8.15,8.15,0,0,1-1.05.08,24,24,0,0,1-3.73-.2c-.62-.08-1.23-.18-1.86-.32l-.48-.11-.64-.18a3.69,3.69,0,0,1-1.42-.69,3.41,3.41,0,0,1-.77-1.1,4.9,4.9,0,0,1-.25-.65c-.07-.21-.09-.31-.13-.47-.14-.58-.22-1.12-.3-1.65-.37-3.53-.76-7-.93-10.5-.17-3.82-.22-7.64-.19-11.46q0-3.53.18-7.05c.08-1.79.18-3.57.42-5.39.06-.46.14-.91.25-1.41a2.7,2.7,0,0,1,.83-1.63,4.52,4.52,0,0,1,1.64-.79,7.31,7.31,0,0,1,1.52-.21,16,16,0,0,1,2.62.17l2.82.38.6.14.48.22.06,0,0,0c-.15.13-.05,0-.08.06h0l.1.1a1.62,1.62,0,0,1,.18.19,2.38,2.38,0,0,1,.19.55,9.44,9.44,0,0,1,.2,1.24l.11.95c.06.61.15,1.2.18,1.82a5.71,5.71,0,0,1-.24,2.45,1.67,1.67,0,0,1-1,1,1.74,1.74,0,0,1-.61.2c-.3,0-.51-.2-.76-.56a4.53,4.53,0,0,1-.53-1.74c-.1-1-.21-2-.31-3.07l-.05-.38,0-.19v0a.35.35,0,0,1-.06-.09c0-.06-.11,0-.16,0s0,0,0,0,0,0-.07,0l-.26-.05c-.34-.07-.68-.12-1-.16a13.91,13.91,0,0,0-1.84-.15,4.12,4.12,0,0,0-1.33.17s0,0,0,0a2.07,2.07,0,0,0-.06.36l-.09.61-.13,1.32c-.08.9-.14,1.82-.19,2.75-.09,1.85-.14,3.73-.16,5.61Z"/><path class="cls-2" d="M318.23,339.17c-2.72-.29-5.43.19-8.1-.52a3,3,0,0,0-2.81.75.92.92,0,0,0,.44,1.64c3,.8,5.95.34,9,.66,1.72.18,4.15-2.25,1.47-2.53Z"/><path class="cls-2" d="M326,373.9l-3.65,0c-.45,0-.88.08-1.33.07l-4.69-.16a17.82,17.82,0,0,0-2.07.1,6.85,6.85,0,0,1-2.67,0c-.55-.17.15-2.62,1.12-2.69a26.39,26.39,0,0,1,5.32.11,20.15,20.15,0,0,0,3.29-.11l3.63-.1c.74,0,1.49-.05,2.23-.1l1.68-.11.49,0,.24,0c.07,0,.17,0,.19-.1a1.62,1.62,0,0,0,0-.76,1.18,1.18,0,0,1,0-.19l0-.34c0-.23,0-.47,0-.71a3.53,3.53,0,0,1,0-.65c.09-.85.54-1.08,1.29-.94a4.87,4.87,0,0,1,.52.12,1.69,1.69,0,0,1,1.05,1c.06.31.11.65.15,1l0,.54,0,.3,0,.58a3.52,3.52,0,0,1-.58,2.11c-.19.33-.56.41-.89.54a6.67,6.67,0,0,1-1,.34l-.91.09-.5,0-.92.05L326,374Z"/><path class="cls-2" d="M264.59,332.31c.12,4.63-.06,9.17-.29,13.72-.09,1.66-.09,3.32-.22,5-.22,2.85-.5,5.71-.87,8.56-.18,1.43-.42,2.86-.71,4.29-.14.72-.3,1.44-.5,2.17-.11.39-.2.71-.37,1.17a3.12,3.12,0,0,1-.87,1.34,2.31,2.31,0,0,1-.48.28,10.17,10.17,0,0,1-2.29.58c-.67.1-1.34.18-2,.23a19.67,19.67,0,0,1-2,.07,8,8,0,0,1-1.12-.09,4.13,4.13,0,0,1-1.37-.42,1.53,1.53,0,0,1-.46-.38,3.15,3.15,0,0,1-.28-.51c-.09-.27-.16-.56-.23-.84l-.11-.76c0-.4-.07-.8-.09-1.19,0-.78,0-1.55,0-2.32a26.85,26.85,0,0,1,.55-4.61c.12-.52.35-.81.51-.72s.32.39.52.82A14.93,14.93,0,0,1,253,363c0,.77.12,1.52.21,2.26l.13,1.08,0,.24h0l.21,0a18.25,18.25,0,0,0,1.94,0c.67,0,1.35-.11,2-.21.32-.05.65-.11.93-.18l.1,0h.1a.13.13,0,0,0,.07,0s0,0,0-.08l.1-.3c.14-.44.25-.94.36-1.44.21-1,.39-2.06.57-3.12A101.61,101.61,0,0,0,260.91,349c.26-4.51.46-9,.45-13.56,0-1.39,0-2.77-.1-4.14,0-.68-.09-1.36-.18-2l-.07-.48-.06-.36a.89.89,0,0,0-.22-.48l-.07-.05a1.65,1.65,0,0,0-.46-.23,3.44,3.44,0,0,0-.72-.18,7.76,7.76,0,0,0-1.68,0c-.59.05-1.19.14-1.81.25l-1.55.28-.35.05a.42.42,0,0,0-.16,0,.47.47,0,0,0,0,.17q0,.34-.06.69l-.12,2.29c-.14,3.26,0,6.47.13,9.69,0,.71.08,1.41.1,2.12a8.78,8.78,0,0,1-.18,2.78,2.08,2.08,0,0,1-.85,1.25c-.18.14-.34.32-.48.45a.33.33,0,0,1-.43,0,2.38,2.38,0,0,1-.51-.56,5.62,5.62,0,0,1-.71-2.28,83,83,0,0,1-.29-9c0-1.51,0-3,.05-4.58l.08-2.35.08-1.15c0-.36,0-.79.28-1a4.36,4.36,0,0,1,.63-.65l0,0,0,0h0c.26.24-.35-.33-.28-.28h0l.09-.07.17-.15c.12-.08.22-.19.36-.27l.69-.21c.32,0,.63-.11,1-.17l.73-.15,1-.2c.66-.12,1.37-.23,2.12-.3a10.5,10.5,0,0,1,2.43,0,7.54,7.54,0,0,1,1.37.33,7.46,7.46,0,0,1,1.65.87,4,4,0,0,1,1.26,2.33c.14.69.19,1.13.25,1.65.11,1,.17,2,.21,2.95Z"/><path class="cls-2" d="M241.32,330.71c3.22-.33,6.42.55,9.64.67.85,0,2.22-.27,2.61-1.15s-.32-1.36-1.14-1.39c-3.58-.13-7.06-1-10.65-.65-2.07.21-3.2,2.8-.46,2.52Z"/><path class="cls-2" d="M227,358.64a27.77,27.77,0,0,0,5.27,1.06c.68.09,1.37.07,2.05.15,2.4.27,4.84.51,7.28.73,1.09.09,2.19.11,3.28.16a10.15,10.15,0,0,1,4.29.67c.45.21.13.8-.38,1.32a4.57,4.57,0,0,1-.86.69,1.66,1.66,0,0,1-1,.25c-2.63-.25-5.45-.38-8.27-.82-1.7-.27-3.48-.19-5.24-.34a46,46,0,0,1-5.84-.8,14.89,14.89,0,0,1-1.83-.52,6.28,6.28,0,0,1-1.86-1,4.52,4.52,0,0,1-1.43-3,17.23,17.23,0,0,1,0-2.87c.1-1.44.16-2.84.34-4.23,0-.3,0-.61.1-.9.18-1.12.55-1.34,1.32-1.41.18,0,.36-.07.54-.1.61-.12,1,.62,1.07,1.47,0,1.27-.17,2.47-.29,3.65a23.93,23.93,0,0,0-.21,3.38,3.59,3.59,0,0,0,.33,1.61c0,.08.07.06.08.13s.23.12.34.2.1.07.19.11l.26.09.54.2Z"/><path class="cls-2" d="M289.45,350.62c2.74.17,5.48-.15,8.22.06s2.87-4.28,0-4.49-5.48.11-8.22-.06-2.87,4.31,0,4.49Z"/><path class="cls-2" d="M289.86,368.29c2.74.17,5.48-.15,8.22,0s2.87-4.27,0-4.48-5.48.11-8.22-.06-2.87,4.31,0,4.49Z"/><path class="cls-2" d="M178.61,412.84a45.08,45.08,0,0,0-.55-14.15c-.83-4.78-2.16-9.56-3.38-14.46-.44-1.78-.91-3.57-1.33-5.39-.22-.9-.39-1.83-.58-2.74l-.5-2.71a96.73,96.73,0,0,1-1.27-9.78,36,36,0,0,1,.63-10.16,20.42,20.42,0,0,1,4.7-9.3,19.94,19.94,0,0,1,8.68-5.78,14,14,0,0,1,4.82-.47,16.13,16.13,0,0,1,4.6,1.24,33.32,33.32,0,0,1,7.43,5,90.15,90.15,0,0,0,8.34,6.69,14.23,14.23,0,0,0,2.13,1.08,6.26,6.26,0,0,0,1.06.35c.17,0,.35.1.52.13l.52,0a5.27,5.27,0,0,0,1,0c.35,0,.69-.16,1.05-.23s.69-.29,1-.46l1-.63c1.59-1.25,2.12-.63,1.23,1.41a7.1,7.1,0,0,1-3.45,3.26,8.56,8.56,0,0,1-7.17-.44,27.53,27.53,0,0,1-5.08-3.5c-1.49-1.24-2.88-2.49-4.25-3.68-2.73-2.36-5.48-4.55-8.31-5.52a8.79,8.79,0,0,0-4.2-.42,11.78,11.78,0,0,0-4.18,1.64,16.63,16.63,0,0,0-6.51,7.11,18,18,0,0,0-1.61,5.91,30.55,30.55,0,0,0-.06,6.49,130.84,130.84,0,0,0,2.12,13.38c1,4.84,2.35,9.67,3.55,14.62a73.69,73.69,0,0,1,2.39,15.25,43,43,0,0,1-3.7,18.76,51.77,51.77,0,0,1-18.19,22,48.43,48.43,0,0,1-20.47,8.18l-2.43.31c-.81.09-1.62.12-2.45.17-1.53.07-2.8,0-3.86-.08a23.25,23.25,0,0,1-2.6-.42,4.8,4.8,0,0,1-2.68-1.48,4.49,4.49,0,0,1-.71-.88c-.21-.46.32-.79,1.4-1a19.29,19.29,0,0,1,2-.16c.81-.05,1.74-.07,2.78-.05a50.48,50.48,0,0,0,18.19-3.51A45.51,45.51,0,0,0,166,437.86a46.8,46.8,0,0,0,4.55-5.47,44.38,44.38,0,0,0,3.71-6.09,41.21,41.21,0,0,0,4.29-13.46Z"/><path class="cls-2" d="M368.47,467.32a41.73,41.73,0,0,1-7.58-9.22,40.34,40.34,0,0,1-4.68-10.89,36.52,36.52,0,0,1-1.33-8.55c-.06-1.27,0-2.54.07-3.8s.21-2.51.43-3.74a50.73,50.73,0,0,1,1.65-7.27,102.09,102.09,0,0,1,5.5-13.51,58.18,58.18,0,0,0,4.19-11.73,24,24,0,0,0,.57-7.66,19.46,19.46,0,0,0-2.21-7.24c-.73-1.42-.22-1.63,1.1-.75a10.87,10.87,0,0,1,1.14.87c.37.39.78.86,1.2,1.4a8.54,8.54,0,0,1,1.1,1.91,9.75,9.75,0,0,1,.77,2.36,25.1,25.1,0,0,1,.08,9,45.5,45.5,0,0,1-2.34,8.38c-1,2.67-2.12,5.25-3.23,7.77s-2.14,5-3.06,7.53a44,44,0,0,0-2.3,9.46,40.44,40.44,0,0,0,0,9.71,37,37,0,0,0,8.64,19.2,32.91,32.91,0,0,0,10.31,8.13A38.47,38.47,0,0,0,388,472a45.61,45.61,0,0,0,10.1.86,62,62,0,0,0,15.35-2.71c1.1-.33,2.16-.71,3.26-1.06,4-1.38,5.46-1.48,6.71-.88a4.38,4.38,0,0,1,.84.42c.35.28.17.73-.46,1.33a13.55,13.55,0,0,1-3.2,2.08,63.08,63.08,0,0,1-14.43,4.52,51.9,51.9,0,0,1-15.81.44,40.72,40.72,0,0,1-22-9.58Z"/><path class="cls-2" d="M149.27,334.09a50.66,50.66,0,0,1,6.13-10.31c.42-.59.88-1.16,1.33-1.73a20.38,20.38,0,0,1,1.42-1.66,36.22,36.22,0,0,1,12.57-8.73l1.58-.65,1.64-.51a27.2,27.2,0,0,1,3.31-.84c.71-.19,1.45-.2,2.17-.32l1.09-.13c.37,0,.74,0,1.1,0a20.13,20.13,0,0,1,2.2.1c.72.12,1.44.27,2.15.45.88.24.58,1-.26,1.67a6.43,6.43,0,0,1-3.61,1.29,27.78,27.78,0,0,0-3.87.3l-1.9.4c-.64.1-1.25.37-1.88.53a32.37,32.37,0,0,0-7.28,3.21,29.78,29.78,0,0,0-7.4,6.71,45.13,45.13,0,0,0-6.09,9.35,29.6,29.6,0,0,0-2.4,6.4,32.62,32.62,0,0,0-1,10.34,12.59,12.59,0,0,0,2.48,6.9,4.14,4.14,0,0,0,1,.79c.61.38,1,.46,1.36.7a1.58,1.58,0,0,1,.46.4,3.19,3.19,0,0,1,.41.59c.12.23.3.44.4.67s.06.75-.41,1.09a3.22,3.22,0,0,1-2.48.36,6.29,6.29,0,0,1-2.4-1.05,8.25,8.25,0,0,1-1.77-1.77,12.46,12.46,0,0,1-1.95-4.11,25.93,25.93,0,0,1-.82-8.4,38,38,0,0,1,2.63-12.06Z"/><path class="cls-2" d="M195.35,390.25l1.38-7.55c.17-.92.26-1.85.44-2.77.63-3.23,1.35-6.46,2.07-9.68.32-1.43.6-2.87.89-4.3a23.68,23.68,0,0,1,1.52-5.44c.25-.54.75-.28,1.14.36a3.63,3.63,0,0,1,.42,2.63c-.83,3.6-1.53,7.28-2.44,11-.54,2.21-.75,4.58-1.09,6.88L198.52,389l-.7,4.69c-.34,2.37-.73,4.75-1,7.12-.2,1.84-.23,3.67-.41,5.51,0,.4,0,.8-.1,1.21-.23,1.5-.52,1.95-1.36,2.12a4.21,4.21,0,0,1-.58.11c-.63,0-1-.67-1-1.77,0-1.64,0-3.3.17-5s.38-3.39.62-5.1c.35-2.53.77-5.08,1.15-7.63Z"/><path class="cls-2" d="M277.28,423.4c-.78,1.53-1.62,3-2.37,4.41l-.27.53a.57.57,0,0,1-.07.12l0,.05a1.93,1.93,0,0,0-.13.21,1.45,1.45,0,0,0-.12.25.83.83,0,0,0,0,.15s0,.06,0,.07h.06l.26,0a2.85,2.85,0,0,0,.53-.08l1.9-.41c4.57-.93,9.24-2.69,14.33-3a9.81,9.81,0,0,1,6.76,2.17,14.73,14.73,0,0,1,5,7c.27.87-.3.94-1.13.54a9.38,9.38,0,0,1-2.85-2.31,15.19,15.19,0,0,0-2.62-2.58,7.66,7.66,0,0,0-2.91-1.53,4,4,0,0,0-.75-.14l-.37-.05h-.38a7.78,7.78,0,0,0-.88.06q-.48,0-1,.12c-1.3.16-2.62.45-4,.69-3.25.61-6.55,1.95-10.08,2.63l-.52.1-.76.11c-.52.06-1,.17-1.53.19-1,.08-2,.15-3,.2a8.62,8.62,0,0,1,.95-5.15l.32-.67.23-.44.46-.85.93-1.66a27.66,27.66,0,0,0,2.84-6.07,5.11,5.11,0,0,0,.18-1.06,1.52,1.52,0,0,0-.09-.69.86.86,0,0,0-.46-.53,1.36,1.36,0,0,0-.35-.07,3.76,3.76,0,0,0-.44,0,32.64,32.64,0,0,0-5.09.57c-2.66.48-5.23,1.23-7.89,1.84-.58.13-1.16.29-1.76.4-2.23.39-3.16.14-3.64-.88a2.33,2.33,0,0,1-.27-.59c-.05-.3.15-.53.48-.88a3.22,3.22,0,0,1,1.62-.76c2.24-.58,4.63-1.21,7.08-1.74a68.06,68.06,0,0,1,7.69-1.3c.51-.05,1-.09,1.6-.1h.46a4.08,4.08,0,0,1,.69.05,4,4,0,0,1,1.34.33,3.46,3.46,0,0,1,1.8,2,5.76,5.76,0,0,1,.46,2.7,11.5,11.5,0,0,1-.89,3.37c-.4,1-.83,1.89-1.26,2.77Z"/><path class="cls-2" d="M308,435.57a10.53,10.53,0,0,1-.42,2.34,4.78,4.78,0,0,1-.27.72,5,5,0,0,1-.4.76,3.79,3.79,0,0,1-1.2,1.16,6.28,6.28,0,0,1-1.12.42,4.53,4.53,0,0,1-1.22.07,5.08,5.08,0,0,1-.88-.17l-.71-.23c-.44-.17-.87-.35-1.27-.55a24.91,24.91,0,0,1-2.27-1.31c-.65-.4-1.32-.74-2-1.08a7.62,7.62,0,0,1-2.39-1.55c-.21-.23.12-.69.62-1a1.94,1.94,0,0,1,1.68-.45,37.51,37.51,0,0,1,4.91,2.46,4.77,4.77,0,0,0,1.44.61,6.7,6.7,0,0,0,.71.13.53.53,0,0,1,.18,0h.15c.5,0,.8-.25,1-1.53a12.39,12.39,0,0,0,.1-2.22,23.76,23.76,0,0,0-.32-3.54c-.16-.92-.56-1.79-.76-2.73a2,2,0,0,1-.12-.63c0-.81.21-1.12,1.05-1.29a4.64,4.64,0,0,1,.51-.11,1.51,1.51,0,0,1,1.41.7,10.56,10.56,0,0,1,1.51,4.87,28.07,28.07,0,0,1,.19,4.17Z"/><path class="cls-2" d="M163.5,208.1a12.27,12.27,0,0,0-1.5-.1h-.31a.46.46,0,0,0-.21.08.09.09,0,0,0,0,.07c0,.08,0,.18,0,.25a1.25,1.25,0,0,0,0,.35c0,.17,0,.33,0,.51a8.91,8.91,0,0,0,.19,1.09,22.54,22.54,0,0,0,.63,2.3,11.48,11.48,0,0,0,.92,1.94,9.93,9.93,0,0,1,1.24,2.48c.07.29-.43.55-1,.64a1.88,1.88,0,0,1-1.71-.45,14.69,14.69,0,0,1-2.65-5.37c-.12-.61-.31-1.23-.49-1.88a10.37,10.37,0,0,1-.23-1l-.07-.7a5.82,5.82,0,0,1,.07-.73,5.39,5.39,0,0,1,.21-.86,3.24,3.24,0,0,1,2-1.69,4.44,4.44,0,0,1,1.13-.27,8.2,8.2,0,0,1,1-.07,20.8,20.8,0,0,1,2.56.19c1.25.14,2.45.41,3.65.51a24.93,24.93,0,0,0,2.75-.07,1.89,1.89,0,0,1,.58,0c.7.13.88.32,1,1.16,0,.18.09.35.11.52a1.28,1.28,0,0,1-.87,1.37c-1.87.8-3.62.47-5.31.29-1.24-.16-2.47-.38-3.58-.44Z"/><path class="cls-2" d="M180.54,217.83a5.47,5.47,0,0,1-.92,2l-.64.92-.41.52-.42.51a.82.82,0,0,1-.11.1l-.23.2-.15.12c-.13.14-.29.3-.07.29a2.5,2.5,0,0,0,.36.12l.26.07.14,0h.16l.23,0c1.24.15,2.47.33,3.7.52s2.2.29,3.3.45a10.36,10.36,0,0,1,4.15,1.26c.4.27.09.78-.45,1.22a2.9,2.9,0,0,1-2.05.75c-.64-.11-1.3-.18-2-.27l-2-.36c-1.34-.23-2.71-.46-4.09-.73l-.63-.11a6.84,6.84,0,0,0-.77-.07c-.73-.06-1.47-.08-2.21-.1a4.05,4.05,0,0,1-1.86-.31.64.64,0,0,1-.4-.37l-.11-.19-.05-.1v0h0l-.24.11h0v-.06a2.06,2.06,0,0,1,0-.76,3.48,3.48,0,0,1,.73-1.17c.69-.81,1.38-1.64,2-2.39l1-1.21a2.89,2.89,0,0,0,.46-.74c0-.09,0-.11-.1-.15l-.18-.11-.39-.21-.33-.16-.6-.26c-.4-.17-.81-.33-1.22-.48-.82-.3-1.66-.59-2.51-.83-1.33-.39-2.72-.61-4.1-1-.31-.1-.61-.17-.91-.29-1.11-.45-1.34-.86-1.12-1.74a4,4,0,0,1,.15-.6,1.34,1.34,0,0,1,1.67-.73,68.23,68.23,0,0,1,7.1,2,28.63,28.63,0,0,1,2.82,1.17c.43.18.83.43,1.25.62s.9.39,1.06.69l.71.81a2.19,2.19,0,0,1,.12,1.07Z"/><path class="cls-2" d="M437.85,274.74a12.81,12.81,0,0,1-4.41-1.09,10.07,10.07,0,0,1-3.6-2.94,10.34,10.34,0,0,1-.92-1.44,6.48,6.48,0,0,1-.64-1.57,9.06,9.06,0,0,1,.35-5.78,9.37,9.37,0,0,1,3.56-4.35,13.78,13.78,0,0,1,4.41-1.94,9.2,9.2,0,0,1,3.15-.26,5.28,5.28,0,0,1,3.05,1.27c.53.5-.06.9-.81,1.19a6,6,0,0,1-2.31.55,10.42,10.42,0,0,0-6.5,2,6,6,0,0,0-.82.77,5.82,5.82,0,0,0-.73.91,5.18,5.18,0,0,0-.82,2.73,7,7,0,0,0,.6,2.83,6.78,6.78,0,0,0,5,3.84,4.68,4.68,0,0,0,1.06.16,6.58,6.58,0,0,0,1.06.07,5.74,5.74,0,0,0,2-.4,6.22,6.22,0,0,0,3.92-4.6,5.66,5.66,0,0,0-1.29-4.39c-.22-.26-.47-.47-.7-.71a4.15,4.15,0,0,1-.88-1,1.79,1.79,0,0,1-.07-1.07c0-.21,0-.42.09-.61a.79.79,0,0,1,.72-.57,2.27,2.27,0,0,1,1.53.4,8.19,8.19,0,0,1,3.57,5.08,8.68,8.68,0,0,1-1.12,6.55,9.59,9.59,0,0,1-3.64,3.35,9,9,0,0,1-4.83,1.05Z"/><path class="cls-2" d="M84,356.53a7.22,7.22,0,0,1-3.24.46,7.47,7.47,0,0,1-3.05-1.07c-.31-.25-.64-.46-.94-.72a6.53,6.53,0,0,1-.79-.87,7.28,7.28,0,0,1-.55-7.52,7.1,7.1,0,0,1,2.21-2.63,5,5,0,0,1,4.26-.83c.45.13.25.57-.15,1a4.14,4.14,0,0,1-.68.56,2,2,0,0,1-.78.37,5.13,5.13,0,0,0-3.71,4.52,4.33,4.33,0,0,0,.29,2,5.81,5.81,0,0,0,.5.92l.29.43.35.37a4.74,4.74,0,0,0,4.18,1.34,4.35,4.35,0,0,0,2.48-1.3,4.55,4.55,0,0,0,1-4.11A4.22,4.22,0,0,0,83.63,347c-.21-.12-.43-.19-.64-.29a3,3,0,0,1-.83-.42,1.3,1.3,0,0,1-.31-.68,3.38,3.38,0,0,1-.09-.41.53.53,0,0,1,.32-.55,1.61,1.61,0,0,1,1.09-.12,5.83,5.83,0,0,1,3.6,2.32,6.23,6.23,0,0,1,1.16,4.38,6.34,6.34,0,0,1-3.9,5.37Z"/><path class="cls-2" d="M82.47,340.05a38.83,38.83,0,0,1,1.89-7.79c.32-1-2.58-.6-2.9.37a38.67,38.67,0,0,0-1.89,7.79c-.13,1.14,2.79.61,2.9-.37Z"/><path class="cls-2" d="M72.93,346c-2.77-.4-5.49-1-8.26-1.34a3.45,3.45,0,0,0-2.67.72c-.47.49-.54,1.13.33,1.22,2.78.3,5.5.94,8.26,1.34a3.33,3.33,0,0,0,2.66-.71c.5-.52.53-1.1-.32-1.23Z"/><path class="cls-2" d="M86.85,326.68a4.09,4.09,0,0,1,.42.41,2.23,2.23,0,0,1,.26.48,2.35,2.35,0,0,1,.15.87,6.53,6.53,0,0,1-.1.66l-.19.54a2.66,2.66,0,0,1-3.16,1.8,2.58,2.58,0,0,1-1.22-.52,1.5,1.5,0,0,1-.61-1.51c0-.17.41-.13.79-.05a4.92,4.92,0,0,1,.8.21.6.6,0,0,0,.23.22,1.77,1.77,0,0,0,.62.11.85.85,0,0,0,.67-.55,3.15,3.15,0,0,0,.19-.55,2.32,2.32,0,0,0,0-.35s0-.05-.16-.06a1.45,1.45,0,0,0-1,.48,1.68,1.68,0,0,0-.29.89.59.59,0,0,1,0,.19.89.89,0,0,1-.05.13.61.61,0,0,1-.18.07,2.47,2.47,0,0,1-.55.06l-.32,0a.93.93,0,0,1-.84-.55,2.36,2.36,0,0,1,.22-1.62,3.64,3.64,0,0,1,1.15-1.26,3.44,3.44,0,0,1,1.31-.53,2.55,2.55,0,0,1,1.87.37Z"/><path class="cls-2" d="M339.38,406.1l.48-3.89c.06-.47.06-.95.13-1.42.26-1.66.57-3.32.94-5,.14-.74.26-1.47.36-2.21a9.83,9.83,0,0,1,.62-2.78c.23-.55,1.67.52,1.56,1.57a51.76,51.76,0,0,1-.9,5.6,22.35,22.35,0,0,0-.41,3.48c-.13,1.29-.26,2.57-.37,3.87-.06.79-.13,1.59-.17,2.38-.07,1.21-.16,2.42-.15,3.63,0,.93.19,1.85.3,2.78,0,.2.07.4.08.61,0,.76-.14,1-.83,1.15a4.1,4.1,0,0,1-.48.1,1,1,0,0,1-1.11-.81,18.48,18.48,0,0,1-.37-5.16c0-1.31.16-2.62.26-3.94Z"/><path class="cls-2" d="M430.73,244.94c0,4.16,6.72,2.49,6.69-1a2.42,2.42,0,0,0-1.83-2.23c-1.27-.31-3.48.23-3.8,1.7-.15.72,2.7.28,2.87-.49,0-.14.11-.28.14-.42s0,0,.05-.07a2.17,2.17,0,0,1-1.56.46c-.18-.1.1,0,.11,0a2.56,2.56,0,0,1,.35.22,2,2,0,0,1,.77,1.51,2,2,0,0,1-.25,1,6.13,6.13,0,0,1-.42.58c-.47.63.36-.68.85-.1-.08-.1-.31-.18-.43-.28a2,2,0,0,1-.36-.5,2.63,2.63,0,0,1-.29-1.21c0-.54-2.9-.1-2.89.78Z"/><path class="cls-2" d="M450.23,251.72c-1,1.87.5,3.41,2.17,4.11a2.78,2.78,0,0,0,2.31-.49,3,3,0,0,0,1.37-2.25,2.06,2.06,0,0,0-.91-1.72c-1.73-1.14-4.33.1-4.94,1.93-.27.77,2.58.41,2.87-.44.08-.24.22-.44.31-.67,0,0,.12-.18.13-.14s-1.12.25-1.2.33.14.07.25.15a1.33,1.33,0,0,1,.35.36,1.61,1.61,0,0,1-.5,2.17l2.3-.49c-1.37-.58-2.4-1.81-1.64-3.29.28-.54-1-.48-1.2-.45a2.24,2.24,0,0,0-1.67.89Z"/><path class="cls-2" d="M416.28,259.94c-1.23,1.6-.41,4.19,1.84,4a3.1,3.1,0,0,0,1.84-.82c.32-.31.86-1.06.73-1.53a2.08,2.08,0,0,0-1.34-1.13,4,4,0,0,0-1.85-.09c-.58.09-1.51.38-1.62,1.07s.82.84,1.29.77l.39,0c-.16,0-.17,0,0,0-.11,0-.13,0,0,0s-.12-.14.1.07a1.59,1.59,0,0,1,.29.35l-.12-.45a1.76,1.76,0,0,1-.09.2l-.09.15,0-.07-.06.07a.74.74,0,0,1,.37-.22,1.93,1.93,0,0,1,1-.14l.07,0c-.16,0,0,.05,0,0l-.23-.29a1.61,1.61,0,0,1,.25-1.73c.44-.57-.37-1-.82-1a2.22,2.22,0,0,0-1.91.84Z"/><path class="cls-2" d="M437.1,256.8a17.5,17.5,0,0,1-.93-8.24c.19-1.54-2.77-1.19-2.94.19a18.89,18.89,0,0,0,1,8.82c.5,1.38,3.39.58,2.9-.77Z"/><path class="cls-2" d="M449.89,266.68c2,.22,4.08.45,6.13.66a1.82,1.82,0,0,0,1.88-.91,1,1,0,0,0-.92-1.33l-6.13-.67a1.82,1.82,0,0,0-1.88.92,1,1,0,0,0,.92,1.33Z"/><path class="cls-2" d="M431.46,277c-1.24,2.22-2.57,4.35-4,6.43-.39.57.34.83.79.86a2.34,2.34,0,0,0,1.91-.8c1.45-2.08,2.78-4.21,4-6.42.66-1.19-2.23-.91-2.7-.07Z"/><path class="cls-2" d="M245.71,177.75a19,19,0,0,1-4.57-3.51,19.23,19.23,0,0,1-3.28-4.67,26.19,26.19,0,0,1-2.65-10.64,33.18,33.18,0,0,1,.46-7.84,30.49,30.49,0,0,1,1.13-4.21c.26-.69.53-1.38.87-2.07l.12-.24,0-.06.09-.13a1.56,1.56,0,0,1,.2-.27c-.05-.18-.29-.35-.45-.51l-.28-.21a4.56,4.56,0,0,0-.39-.27,7.19,7.19,0,0,0-.81-.45,5.48,5.48,0,0,0-3.42-.56,7,7,0,0,0-3.32,1.59c-.24.23-.5.43-.74.67l-.71.73c-.39.54-.84,1-1.18,1.61a11.83,11.83,0,0,0-1.59,4.93,14.73,14.73,0,0,0,.57,5.24,15,15,0,0,0,8.46,9.69c1.22.44,1.08,1.35-.49,1.89a3.66,3.66,0,0,1-1.42.22,6.35,6.35,0,0,1-1.82-.23,8.57,8.57,0,0,1-3.83-2.34,19,19,0,0,1-4.36-7.38,18.1,18.1,0,0,1-.65-8.6,15.2,15.2,0,0,1,4-7.84,13.41,13.41,0,0,1,3.57-2.71,9.15,9.15,0,0,1,4.66-1,10.12,10.12,0,0,1,4.42,1.34,9,9,0,0,1,.95.59,8.27,8.27,0,0,1,1.11.86,29.49,29.49,0,0,1,2.28,2.16c-.45.64-.89,1.31-1.32,2-.2.33-.39.75-.44.85a5.62,5.62,0,0,0-.25.56,18.73,18.73,0,0,0-.79,2.4,31.28,31.28,0,0,0-.89,5.1,27.89,27.89,0,0,0,.7,9.56,17.07,17.07,0,0,0,4.57,8.08,18.33,18.33,0,0,0,10.56,4.66,27.83,27.83,0,0,0,4.55.3,18.89,18.89,0,0,0,4.45-.55,14.25,14.25,0,0,0,7.45-4.48,18.15,18.15,0,0,0,3.34-5.94,32.76,32.76,0,0,0,1.53-6.77c.14-1.31.28-2.6.42-3.92l.2-.13.27-.1a6.64,6.64,0,0,1,4-.09,8.58,8.58,0,0,1,1.8.64,2.82,2.82,0,0,1,1.63,1.67c.09.28.1.69-.08.78s-.28,0-.41,0a.7.7,0,0,1-.48.08c-.54,0-1.59-.14-2.92-.13a1.89,1.89,0,0,0-.41.06c-.1,0-.24,0-.25.16a3.35,3.35,0,0,1,0,.4v.13a2.26,2.26,0,0,1,0,.33l-.08.77c-.1,1-.25,2.06-.45,3.1a28.72,28.72,0,0,1-1.92,6.22,19.55,19.55,0,0,1-3.78,5.75,17.67,17.67,0,0,1-5.82,4.1,20.58,20.58,0,0,1-5.64,1.55,28.9,28.9,0,0,1-5.65.11c-.91-.1-1.84-.16-2.74-.33l-1.35-.23-1.39-.32a21.54,21.54,0,0,1-5.37-2Z"/><path class="cls-2" d="M335.53,157.63c-.86.05-1.72.09-2.57.16-.31,0-.6.15-.92.17-1.09.08-2.2.11-3.28.26a5.42,5.42,0,0,0-1.37.41c-.56.24-1,.64-1.71.54-.21,0-.49-.78-.62-1.57s-.09-1.61.28-1.77a9.05,9.05,0,0,1,4-.64,11.32,11.32,0,0,0,2.39-.36c.87-.12,1.75-.19,2.62-.28l1.61-.16a18.86,18.86,0,0,0,2.39-.36,10.58,10.58,0,0,0,1.72-.76c.13-.05.24-.14.37-.18.47-.14.66,0,1,.85.07.19.14.37.2.56a1.42,1.42,0,0,1-.2,1.51,6.5,6.5,0,0,1-3.29,1.36c-.86.16-1.73.23-2.58.34Z"/><path class="cls-2" d="M270.57,165.57A3.52,3.52,0,0,1,272,167.7a1.63,1.63,0,0,1,.08.5l.05.56a8,8,0,0,1,.05,1.1A5.32,5.32,0,0,1,272,171c0,.16-.07.35-.11.49l-.15.42a3.72,3.72,0,0,1-.94,1.57,2.82,2.82,0,0,1-.74.42,2,2,0,0,1-1.9-.24,2.19,2.19,0,0,1-.77-.79,3.34,3.34,0,0,1-.25-.4,5.33,5.33,0,0,1-.39-1,4.61,4.61,0,0,1-.15-.53l-.08-.55a6.14,6.14,0,0,1-.07-.7,2.82,2.82,0,0,1,0-.58,1.89,1.89,0,0,1,.54-1.2c.25-.25.73.23,1.26.63s1.17.65,1.21.81l.08.36s0,0,0,0-.08.06-.15.24a1.16,1.16,0,0,0,0,.42c.05.22.21.2.25.09a1.66,1.66,0,0,0,.13-.35,2.62,2.62,0,0,0,.07-1,1,1,0,0,0-.12-.4.31.31,0,0,0-.15-.15s-.09,0-.06,0h0c0,.07-.15-.63-.08-.33h0v.05l0,.09c.11.23.05.14,0,.15s-.07,0-.12.07a1.39,1.39,0,0,0-.3.26,2,2,0,0,0-.45.81,1.13,1.13,0,0,0,0,.66.45.45,0,0,0,.21.28.67.67,0,0,0-.19.1l.05-.06a.7.7,0,0,1,.06-.09.44.44,0,0,0-.05.09,5,5,0,0,0-.18.84c0,.16,0,.32-.06.47a1,1,0,0,1-.32.67,1.4,1.4,0,0,1-.4.27,1,1,0,0,1-.57,0,2,2,0,0,1-.91-.49,3.25,3.25,0,0,1-.58-.84,3.78,3.78,0,0,1-.32-1.66,5,5,0,0,1,.8-2.5,4.85,4.85,0,0,1,1.56-1.67l.39-.21a4.4,4.4,0,0,1,.51-.18,3.35,3.35,0,0,1,.54-.08,2.33,2.33,0,0,1,.36,0,2.92,2.92,0,0,1,1,.31Z"/><path class="cls-2" d="M298,171.37a5.26,5.26,0,0,1,.14,2.15,9.32,9.32,0,0,1-.43,1.73,6.74,6.74,0,0,1-.46,1.22,4.61,4.61,0,0,1-.81,1,3.6,3.6,0,0,1-1.29.83,2.38,2.38,0,0,1-1.94-.12,3.14,3.14,0,0,1-1-.94,3.83,3.83,0,0,1-.85-2.06,2.83,2.83,0,0,1,.79-2.33c.18-.16.63.1,1.06.48s.86.9.87,1.16a.68.68,0,0,0,.11.45c.07.05.1,0,.15.07s0,.06.07.13a.89.89,0,0,1,.1.19v0h0l0,.06a3.08,3.08,0,0,0-.23.42.8.8,0,0,0-.08.3A1.53,1.53,0,0,0,294,176a.61.61,0,0,0-.09-.2l-.07-.13h0s.1-.06.18-.15l.12-.15.07-.12c.06-.1.12-.24.19-.38a5.08,5.08,0,0,0,.54-2,1.75,1.75,0,0,0-.05-.45.4.4,0,0,0,0-.13s0,0,0-.05l-.09-.06c-.09-.1-.14-.1-.16-.15h0a.38.38,0,0,0,0-.08c0,.08,0,0,0,0s-.29.2-.4.51a3.58,3.58,0,0,0-.08,1.67c0,.13.05.25.05.37,0,.44-.23.5-1.05.66l-.56.11a1.16,1.16,0,0,1-1.39-.65,4.56,4.56,0,0,1-.21-2.29,6,6,0,0,1,.35-1.24,5.35,5.35,0,0,1,.37-.7c.08-.12.15-.23.25-.36l.35-.39a3.52,3.52,0,0,1,1.8-.9,4.12,4.12,0,0,1,1.11,0,4.59,4.59,0,0,1,.86.3,4.14,4.14,0,0,1,.6.38l.29.22c.1.1.21.2.31.31a4.1,4.1,0,0,1,.79,1.34Z"/><path class="cls-2" d="M266.73,185.53a7.29,7.29,0,0,1,0-2.94,14.29,14.29,0,0,1,.72-2.5c.22-.58.39-1.16.65-1.7a45.48,45.48,0,0,1,3.25-5.26c.52-.74.94-1.53,1.44-2.27a15,15,0,0,1,2-2.75c.25-.25.62,0,.87.51a2.24,2.24,0,0,1,.1,1.85,32.68,32.68,0,0,1-3.63,5.82,19.14,19.14,0,0,0-1.87,3.66,10.93,10.93,0,0,0-1.08,4.09,2.83,2.83,0,0,0,.71,2c.08.1.16.11.24.19s.17.06.26.12l.37,0,.42,0a5.84,5.84,0,0,0,1.82-.7,15.16,15.16,0,0,0,2.53-2c.17-.16.34-.34.53-.49a1.85,1.85,0,0,1,.89-.45,1.23,1.23,0,0,1,.77.3,3,3,0,0,1,.34.26.82.82,0,0,1,.21.62,1.33,1.33,0,0,1-.31.84,11.84,11.84,0,0,1-2.29,2.23,11.59,11.59,0,0,1-3.14,1.73l-.75.2a8.28,8.28,0,0,1-.87.12,5.92,5.92,0,0,1-1-.08,3.57,3.57,0,0,1-1.08-.42,3.31,3.31,0,0,1-.84-.68,3.4,3.4,0,0,1-.55-.7,5.17,5.17,0,0,1-.7-1.58Z"/><path class="cls-2" d="M297.63,186.23a22.72,22.72,0,0,1-4.81-1.81,20.86,20.86,0,0,1-4.31-2.81,19.44,19.44,0,0,1-5.81-8.44,24,24,0,0,1-1.43-7.18,30.23,30.23,0,0,1,.45-6.32,31.57,31.57,0,0,1,1.66-6.07,18.47,18.47,0,0,1,1.43-2.94,8.45,8.45,0,0,1,.52-.75,4.83,4.83,0,0,1,.7-.72l1.32-1a20.87,20.87,0,0,1,5.88-2.55,41.46,41.46,0,0,1,10.87-1.18,43.64,43.64,0,0,1,6.93.7,22.11,22.11,0,0,1,6.63,2.37c1.3.77.68,1.33-.7,1.52a19.44,19.44,0,0,1-5.87-.26,41.2,41.2,0,0,0-12.92-.46,29.93,29.93,0,0,0-6.13,1.43c-.46.2-.94.38-1.4.59l-1.29.71-1.12.84a4.49,4.49,0,0,0-.7.92,21,21,0,0,0-2.38,7.42,27.36,27.36,0,0,0,0,8,17.84,17.84,0,0,0,3.1,7.88,17.08,17.08,0,0,0,3,3,20,20,0,0,0,3.69,2.24A19.41,19.41,0,0,0,305.41,183a19,19,0,0,0,13.76-8,24.5,24.5,0,0,0,4.2-11.78c0-.46.07-.92.11-1.38s0-.92,0-1.38c.1-3.48.22-4.63,1-5.48a4.24,4.24,0,0,1,.53-.57c.58-.42,1.37,1,1.78,3.77a28.78,28.78,0,0,1,.16,6.38,26.85,26.85,0,0,1-6.84,15.24,20.9,20.9,0,0,1-2.66,2.41,23.53,23.53,0,0,1-9.52,4.23,24.08,24.08,0,0,1-10.38-.12Z"/><path class="cls-2" d="M262,143.84a38.75,38.75,0,0,0-5.2-1c-.64-.06-1.29,0-1.94-.07a51.63,51.63,0,0,0-6.93-.14,16,16,0,0,0-3,.49c-1.24.32-2.5.83-3.52,1-.24,0-.8-.52-.83-1.39a2.29,2.29,0,0,1,1.31-2.18,21.76,21.76,0,0,1,8.6-1.08c1.71.15,3.47,0,5.22.07a43.85,43.85,0,0,1,5.7.77c1.16.25,2.31.53,3.45.88a32.86,32.86,0,0,1,5,2,25.36,25.36,0,0,1,3.76,2,4.3,4.3,0,0,1,.76.59A2,2,0,0,1,275,147a1.61,1.61,0,0,1-.32,1,4.85,4.85,0,0,1-.28.41,1,1,0,0,1-.74.3,1.77,1.77,0,0,1-1-.2c-1.05-.46-1.87-1.06-2.84-1.55a31.3,31.3,0,0,0-3-1.41,29.37,29.37,0,0,0-4.89-1.55Z"/><path class="cls-2" d="M295.11,140.7c-.05.09,0,.12-.08.11a.35.35,0,0,1-.21-.14,1.38,1.38,0,0,0-.38-.25l-.64-.13c-.31,0-1.17-.45-1.21-.69a1.15,1.15,0,0,1,0-.76,2.41,2.41,0,0,1,.16-.42,2.85,2.85,0,0,1,.17-.35,6.91,6.91,0,0,1,1.75-1.4c.84-.52,1.71-.94,2.16-1.19a7.72,7.72,0,0,1,2.65-.75c1.79-.24,3.54-.44,5.29-.53a3.52,3.52,0,0,1,1.16.14,13.32,13.32,0,0,0,4,.41c.23,0,.45.06.68-.14.38-.36,4,0,4.5.32,1.11.61,2.24,1.1,3.35,1.76.16.09.38.07.45.37.17.71.55.77.9,1a5.43,5.43,0,0,1,1.38,1.11,2.42,2.42,0,0,1,.34,1.09c.06.34-.56.91-.67,1-.33.1-.42.52-.62.81a2.6,2.6,0,0,1-.22.3,9.64,9.64,0,0,1-1.4.42,11.74,11.74,0,0,1-1.53.44l-.55-.09c-.34,0-.78-.11-1.25-.15a21.2,21.2,0,0,0-2.17-.12c-.22,0-.41-.15-.61-.27s-3.08,0-3.2,0c-.6-.14-1.23,0-1.81-.56-.11-.12-.24-.1-.36-.11a23.24,23.24,0,0,1-3.19-.5,11.18,11.18,0,0,0-1.63-.07c-.1,0-.2-.08-.3-.11a1.3,1.3,0,0,0-.37-.11,18.57,18.57,0,0,0-3.75.13c-.27,0-1.64-.33-1.87-.19S295.15,140.55,295.11,140.7Z"/><path class="cls-2" d="M277.12,206.78c2.74,0,2.74-4.25,0-4.25s-2.74,4.25,0,4.25Z"/><path class="cls-2" d="M203.58,118.89a43.45,43.45,0,0,1-.65-10.66,55.43,55.43,0,0,1,1.58-10.44,59.58,59.58,0,0,1,3.37-10l1.1-2.41c.4-.79.84-1.55,1.26-2.32.8-1.57,1.84-3,2.77-4.48a68.38,68.38,0,0,1,10-11.53,78.77,78.77,0,0,1,10.58-8.2,89.39,89.39,0,0,1,37.21-13.81,74.32,74.32,0,0,1,11.84-.56c2,0,3.94.27,5.91.43,1,.13,1.95.31,2.93.46l1.46.23,1.44.34a52.41,52.41,0,0,1,14.25,5.32c1.09.66,2.15,1.37,3.22,2.07s2,1.56,3,2.34l.74.59.69.67,1.37,1.32a24.21,24.21,0,0,1,2.47,2.88c1.94,2.49,1.28,2.42-1,1l-2-1.28c-.84-.41-1.66-1-2.59-1.56s-1.95-1.17-3-1.82c-.54-.31-1-.68-1.62-1s-1.16-.63-1.75-1a54.17,54.17,0,0,0-27.64-7.37,83,83,0,0,0-28.95,5.28,79.59,79.59,0,0,0-30.11,20.11,55.15,55.15,0,0,0-15.22,36.09,37.85,37.85,0,0,0,1.51,12.09,25.3,25.3,0,0,0,6,10.37c4.23,4.42,10.27,6.87,16.38,7.75a48.17,48.17,0,0,0,18.5-1.8,89.9,89.9,0,0,0,25.94-12.39c1.73-1.21,3.39-2.44,5.05-3.75,3.09-2.43,4.95-4.2,6.36-5.34.69-.58,1.29-1,1.79-1.34a14.88,14.88,0,0,1,1.4-.77c.38-.19.83-.49,1.08-.59.43-.16.23.46-.43,1.85a20.8,20.8,0,0,1-4.29,5.38,86,86,0,0,1-22.62,15.09,85,85,0,0,1-13.13,4.91,58.4,58.4,0,0,1-14.13,2.26,34.35,34.35,0,0,1-20.82-5.92,28,28,0,0,1-4.19-3.72,29.09,29.09,0,0,1-3.32-4.51,32.57,32.57,0,0,1-3.83-10.31Z"/><g class="cls-3"><path class="cls-2" d="M237.92,259c-2.39-.08-4.8,0-7.23-.12-.88,0-1.78,0-2.66-.08a40.41,40.41,0,0,1-4.69-.82,26.31,26.31,0,0,1-4.56-1.62,16.66,16.66,0,0,1-3.73-2.26,9.12,9.12,0,0,1-2-2.19,5.4,5.4,0,0,1-.8-2.86c0-.63.63-.54,1.32-.21a11,11,0,0,1,1,.59,2.34,2.34,0,0,1,.45.35,1.45,1.45,0,0,1,.39.39,9.58,9.58,0,0,0,3.19,2.63,26.39,26.39,0,0,0,4.36,2c1.84.67,4.06.63,6.13.84,2.32.19,4.67.29,7,.27,1.45,0,2.92-.07,4.38-.14,2.22-.1,4.46-.14,6.69-.27,1.73-.1,3.43-.37,5.19-.48.38,0,.76-.08,1.15-.08,1.45,0,1.89.4,2.08,1.4a5.65,5.65,0,0,1,.11.7c0,.77-.6,1.35-1.59,1.51a82,82,0,0,1-9.16.48l-7.15.09Z"/></g><g class="cls-3"><path class="cls-2" d="M326,275.19a53.29,53.29,0,0,1-7.83-1.71,27.21,27.21,0,0,1-2.82-.9,54.26,54.26,0,0,1-8.92-4.92c-1.24-.82-2.5-1.63-3.7-2.51a17.51,17.51,0,0,1-4.17-3.89c-.36-.48,0-.7.63-.69a5.66,5.66,0,0,1,2.61.68c3.21,1.87,6.14,4,9.34,6a28.13,28.13,0,0,0,6.24,2.62,50.49,50.49,0,0,0,7.29,1.63,37.62,37.62,0,0,0,4.6.42A17.8,17.8,0,0,0,336,271a5.75,5.75,0,0,0,3.31-3,8.47,8.47,0,0,0,.25-.86l.21-.69a1.54,1.54,0,0,1,.28-.47,1.84,1.84,0,0,1,1-.57c.22-.06.44-.15.66-.2a1,1,0,0,1,1,.36,2.4,2.4,0,0,1,.48,1.55,7.53,7.53,0,0,1-3,5.77,12.45,12.45,0,0,1-5.77,2.34,30.88,30.88,0,0,1-8.37,0Z"/></g><path class="cls-2" d="M248.83,339.82l-.12-2.44c0-.3-.09-.58-.1-.88,0-1.06,0-2.12.09-3.17,0-.46,0-.93,0-1.39a5.09,5.09,0,0,1,.1-1.78c.1-.36,1.34.15,1.42.78a22.1,22.1,0,0,1,.18,3.46,13.19,13.19,0,0,0,.27,2.14c.08.79.17,1.59.26,2.38l.18,1.48c.11.74.19,1.5.35,2.23a15.79,15.79,0,0,0,.6,1.66c0,.12.11.24.14.36.09.48-.1.66-.68.84-.13,0-.26.09-.4.12a1.05,1.05,0,0,1-1.1-.35,7.15,7.15,0,0,1-.93-3c-.12-.79-.18-1.6-.27-2.4Z"/><path class="cls-2" d="M235.78,361.58l-4-.63c-.49-.07-1-.06-1.47-.14a14.49,14.49,0,0,1-2.79-.67,5.83,5.83,0,0,1-2.61-1.78,4.92,4.92,0,0,1-1-2.63,5.19,5.19,0,0,1,.56-3.18c.16-.3.54-.14.91.22a2.73,2.73,0,0,1,.83,1.39,6.91,6.91,0,0,0,.39,2.12,2.52,2.52,0,0,0,1.18,1.41,8.24,8.24,0,0,0,3.3.69c1.37.16,2.73.36,4.09.55l2.51.33c1.27.15,2.53.33,3.8.37,1,0,1.95-.08,2.91-.13.22,0,.43-.05.64-.05.8,0,1,.18,1.19.85a2.52,2.52,0,0,1,.1.46,1,1,0,0,1-.87,1.07,16.93,16.93,0,0,1-5.51.27c-1.37-.1-2.75-.29-4.12-.46Z"/><path class="cls-2" d="M323.36,372.7l-2.91-.06c-.36,0-.71.06-1.07,0a28.17,28.17,0,0,1-3.81-.54c-.57-.13-1.16-.17-1.75-.35a4.19,4.19,0,0,1-1.19-.51,1.92,1.92,0,0,1-.87-1.24c-.07-.36.51-.37,1-.44a2.6,2.6,0,0,0,.73-.22,1.38,1.38,0,0,1,.38-.2,13.82,13.82,0,0,1,1.38.26c.57.13,1.21.27,1.87.45a10.39,10.39,0,0,0,2.5.07c.93,0,1.87,0,2.82,0,.58,0,1.17,0,1.75-.06a26.24,26.24,0,0,0,2.66-.21,19.78,19.78,0,0,0,2-.57,3.47,3.47,0,0,1,.46-.13c.58-.1.81.14.94.91,0,.17.06.33.08.48a1.45,1.45,0,0,1-.52,1.3,9.62,9.62,0,0,1-3.61.92c-.94.1-1.91.13-2.88.18Z"/><path class="cls-4" d="M306.33,338.43H301.5s-3,35.54.37,37.68,9.13,0,9.13,0v-7.2s-1.28,7-3.61,4.07c-1.55-2-2.66-15.91-2.15-25.49C305.5,342.63,305.91,338.9,306.33,338.43Z"/><path class="cls-4" d="M253.62,330.11s4.89-2.38,5.11,0-.12,31.64-3.78,32.78-3.25-2.29-3.25-2.29l1,6.56h6.89l3-39.78L253,327.2Z"/><path class="cls-2" d="M166.07,340.29c-1.51,0-3,.09-4.54.22-.55.05-1.09.2-1.64.25-1.95.17-3.9.38-5.83.72a13.86,13.86,0,0,0-2.48.72,17.92,17.92,0,0,1-2.92,1.1c-.28.05-.72-.58-.82-1.39a2,2,0,0,1,.86-2.07,20.72,20.72,0,0,1,7.05-1.53c1.43-.06,2.84-.47,4.27-.65s3.15-.32,4.73-.42c1-.06,1.95-.08,2.92-.12,1.48,0,3,0,4.46,0a25.83,25.83,0,0,1,3.59.11,7.09,7.09,0,0,1,.87.18,1.71,1.71,0,0,1,1,.82,1,1,0,0,1-.1,1,2,2,0,0,1-.3.44,1.94,1.94,0,0,1-.69.43c-.13,0-.22.1-.33.13a1.65,1.65,0,0,1-.34.08l-5.31,0c-1.47,0-3,0-4.48.09Z"/><path class="cls-4" d="M439,258.13s-11.18.52-8.22,8.68,12.8,6.27,14.4.9-7.87-.53-6.39-7.68S439,258.13,439,258.13Z"/><path class="cls-4" d="M78.81,345.92c0-.89-4.45,5.67-1.06,8.27s8.58,1.8,8.5-5.13S79,353.08,78.81,345.92Z"/><path class="cls-2" d="M252.52,306.19c2.7,4.51,6.92,7.89,9.43,12.52.75,1.4,4.06.08,3.17-1.55-2.5-4.63-6.72-8-9.42-12.51-.82-1.38-4.13,0-3.18,1.54Z"/><path class="cls-2" d="M282.54,299.81c-.6,4.11.32,8.31-.47,12.37-.27,1.4,3.24.85,3.49-.41.79-4.06-.14-8.25.46-12.37.21-1.44-3.3-.85-3.48.41Z"/><path class="cls-2" d="M304.18,317.77c3.16-4.59,6.11-9.33,9.25-13.93.51-.75-1.79-.52-2-.49a4.48,4.48,0,0,0-2.89,1.35c-3.14,4.61-6.09,9.35-9.25,13.94-.51.74,1.79.52,2,.48a4.41,4.41,0,0,0,2.88-1.35Z"/><path class="cls-2" d="M283.91,271.25a7,7,0,0,1-2.33,3.52,6,6,0,0,1-4,1.21,9.46,9.46,0,0,1-2.73-.55,6.83,6.83,0,0,1-3.76-3.18,7.42,7.42,0,0,1-.67-4.71A8.62,8.62,0,0,1,272,263.7a4.2,4.2,0,0,1,2.37-1.65,3.29,3.29,0,0,1,1.56,0,3.45,3.45,0,0,1,1.29.67c.45.39.06.68-.52.89-.29.09-.63.21-.92.33s-.5.28-.7.33a3,3,0,0,0-1.09.82,5.29,5.29,0,0,0-.93,1.56,6.44,6.44,0,0,0-.28,3.83,4.25,4.25,0,0,0,3.59,2.86,4.77,4.77,0,0,0,2.63,0,3.34,3.34,0,0,0,1.83-1.61,6,6,0,0,0,.59-3.39,7,7,0,0,0-.74-2.56,3.53,3.53,0,0,0-1.69-1.68,2.27,2.27,0,0,0-1.66-.07,6.73,6.73,0,0,0-1.62.83c-.24.17-.45.32-.69.52-.9.63-1.3.77-2.12.26-.19-.11-.39-.21-.56-.33-.57-.41-.56-1.2.08-2.08.27-.3.55-.61.84-.91s.67-.57,1-.84a7.26,7.26,0,0,1,1.26-.69,6.72,6.72,0,0,1,1.53-.38,6.12,6.12,0,0,1,1.71,0,5.92,5.92,0,0,1,1.7.54,6.4,6.4,0,0,1,2.48,2.22,9.08,9.08,0,0,1,1.41,4.05,10.59,10.59,0,0,1-.36,4.07Z"/><path class="cls-2" d="M282,270.25c0,3.18-2.15,3.75-4.8,3.75s-4.8-2.57-4.8-5.75,2.15-2.75,4.8-2.75A4.46,4.46,0,0,1,282,270.25Z"/><path class="cls-2" d="M191.31,62.28a32.68,32.68,0,0,1,4.87,5.88c.57.88,4-.22,3.24-1.32A32.68,32.68,0,0,0,194.55,61c-.82-.78-4.08.52-3.24,1.32Z"/><path class="cls-2" d="M402.21,92.89l5.41-4.17c.76-.58.4-1.34-.41-1.54a3.83,3.83,0,0,0-3.07.82l-5.41,4.17c-.76.58-.4,1.35.41,1.55a3.88,3.88,0,0,0,3.07-.83Z"/><path class="cls-2" d="M224.35,250.07c-.56-.58-1.09-1.18-1.62-1.77l-.58-.65-2-2.36q-.44-.53-.9-1c-.39-.43-.8-.83-1.15-1.29-.22-.29.44-.28.91.2.82.85,1.59,1.74,2.34,2.67.44.56,1,1.09,1.45,1.62s1.08,1.17,1.63,1.74c.35.34.69.7,1,1a17.51,17.51,0,0,0,1.69,1.43,11.09,11.09,0,0,0,1.44.85l.32.18c.4.2.52.3.55.49a.5.5,0,0,1,0,.12c0,.12-.21.13-.56,0a8.17,8.17,0,0,1-2.83-1.61,21.73,21.73,0,0,1-1.8-1.65Z"/><path class="cls-2" d="M230.58,246.65l-1.41-1.6-.54-.56-1.85-2c-.28-.3-.58-.58-.87-.85a8.17,8.17,0,0,1-1.1-1.1c-.2-.26.6-.49,1-.09a25.41,25.41,0,0,1,2.22,2.3c.41.49.91.93,1.36,1.4l1.48,1.59.89,1,1.33,1.52c.34.38.73.72,1.07,1.11.07.08.15.16.22.25.26.34.3.48.22.66a1.34,1.34,0,0,1-.06.12c-.08.12-.28.06-.52-.13a15.7,15.7,0,0,1-2-2l-1.45-1.59Z"/><path class="cls-2" d="M228.24,243.6c-.94,0-1.89-.06-2.83,0-.35,0-.69,0-1,.05-1.21,0-2.43.13-3.64.28a13.9,13.9,0,0,0-1.59.28c-.68.15-1.34.35-2,.46-.43.08-.09-.68.7-.92a21.88,21.88,0,0,1,4.26-.69c.86-.05,1.75-.17,2.63-.22s1.93-.08,2.9-.06c.6,0,1.19,0,1.79.06.9,0,1.8.14,2.69.24.7.08,1.38.14,2.07.28l.45.09c.56.16.71.28.77.5a.7.7,0,0,1,0,.14c0,.15-.26.21-.65.15-1.18-.18-2.43-.27-3.69-.42-.94-.07-1.89-.15-2.84-.16Z"/><path class="cls-2" d="M237.09,249.71c-1.27.13-2.54.22-3.81.26-.47,0-.93.05-1.4.05a40.22,40.22,0,0,1-4.9-.26c-.72-.06-1.44-.17-2.16-.24a14.15,14.15,0,0,1-2.72-.57c-.55-.17.34-.67,1.34-.48,1.81.32,3.65.48,5.51.63a27.87,27.87,0,0,0,3.42,0c1.26,0,2.52-.13,3.78-.26.77-.08,1.54-.16,2.31-.28,1.16-.18,2.33-.38,3.47-.65.88-.21,1.73-.5,2.58-.78l.56-.18c.7-.21.94-.22,1.17,0a.83.83,0,0,1,.15.11c.12.14-.12.37-.62.61a21.52,21.52,0,0,1-4.86,1.53c-1.26.26-2.54.44-3.82.58Z"/><path class="cls-2" d="M324.49,262c-.81.34-1.61.7-2.42,1.08l-.87.42c-1,.47-2.09.93-3.15,1.36l-1.4.59a10.06,10.06,0,0,1-1.84.65c-.4.08-.11-.71.56-1l3.63-1.47c.74-.28,1.46-.68,2.19-1l2.43-1.13,1.51-.67c.77-.34,1.55-.64,2.32-1,.6-.23,1.18-.5,1.79-.72l.4-.14c.51-.15.69-.13.85,0a.69.69,0,0,1,.11.13c.08.15-.09.34-.44.49-1,.44-2.12.83-3.22,1.28-.81.33-1.63.67-2.44,1Z"/><path class="cls-2" d="M331.45,264.1c-.51.21-1,.42-1.51.66-.19.09-.36.2-.54.29-.63.32-1.27.64-1.88,1a8.33,8.33,0,0,0-.78.54,7,7,0,0,1-1,.71c-.22.12-.37-.59,0-.89a11.58,11.58,0,0,1,2.14-1.36c.45-.23.89-.53,1.35-.77s1-.52,1.53-.75l1-.42,1.47-.58c.38-.16.74-.35,1.12-.51l.24-.11c.32-.11.44-.09.57.11a.57.57,0,0,1,.08.13c.08.15,0,.33-.22.44a16.5,16.5,0,0,1-2,.88c-.51.2-1,.4-1.54.63Z"/><path class="cls-2" d="M326.09,264.88l-2.42-1.19c-.29-.15-.59-.27-.88-.43-1-.53-2-1.1-3-1.66-.45-.25-.9-.49-1.36-.71a11.5,11.5,0,0,1-1.71-1c-.32-.25.51-.68,1.17-.33,1.17.61,2.32,1.25,3.46,1.94.68.42,1.45.74,2.18,1.1s1.61.79,2.43,1.17c.5.23,1,.46,1.51.67.77.33,1.54.67,2.32.95.61.21,1.23.36,1.84.54l.41.1c.5.16.64.27.66.54a.62.62,0,0,1,0,.19c0,.2-.26.28-.65.21a17,17,0,0,1-3.44-1c-.84-.33-1.67-.7-2.5-1.07Z"/><path class="cls-2" d="M333.94,262.64c-.58-.22-1.15-.46-1.72-.72-.2-.09-.42-.17-.62-.27a20.4,20.4,0,0,1-2.08-1.2l-.91-.56a4,4,0,0,1-1.08-.84c-.18-.21.62-.61,1-.32.71.5,1.44,1,2.18,1.48a10,10,0,0,0,1.47.72c.55.24,1.11.48,1.68.7.35.14.7.27,1.06.39.54.18,1.08.37,1.63.51s.86.16,1.29.24l.29,0c.35.08.44.17.45.44a1.08,1.08,0,0,1,0,.18c0,.2-.2.32-.47.31a11.34,11.34,0,0,1-2.4-.48c-.6-.18-1.19-.38-1.78-.59Z"/></g></svg>