<svg xmlns="http://www.w3.org/2000/svg" width="520" height="520" viewBox="0 0 520 520"><defs><style>.cls-1{fill:#231f20;}</style></defs><title>102. Increase</title><g id="n.102_Increase" data-name="n.102 Increase"><path class="cls-1" d="M145.15,183.46A20.48,20.48,0,0,1,144,172.34a19,19,0,0,1,1.06-4,18.38,18.38,0,0,1,4-5.94c.4-.44.88-.8,1.32-1.2a16.09,16.09,0,0,1,1.49-1.07,12.2,12.2,0,0,1,3.42-1.42,14.24,14.24,0,0,1,6.43.05,16.14,16.14,0,0,1,3.78,1.38,9.72,9.72,0,0,1,1.68,1.06,12.6,12.6,0,0,1,1.38,1.45c.51.65-.06,1.11-1.07,1.34a10.68,10.68,0,0,1-1.77.24,6,6,0,0,1-.95,0,3.6,3.6,0,0,1-.85-.31,15.46,15.46,0,0,0-2.93-1.23,11.78,11.78,0,0,0-2.94-.54,8.81,8.81,0,0,0-5.58,1.83,10.45,10.45,0,0,0-2.77,3,15.88,15.88,0,0,0-1.74,3.82,15.74,15.74,0,0,0-.2,9.22,14.87,14.87,0,0,0,2.54,5.17,14.25,14.25,0,0,0,3.21,3,21.14,21.14,0,0,0,4,2.22c2.19,1,4.51,1.53,6.86,2.3.52.16,1,.3,1.56.51,1.92.79,2.4,1.44,2.31,2.48a3.84,3.84,0,0,1-.08.7c-.23.74-1.19.86-2.54.51-4-1.12-8.5-2.24-12.86-4.86a20.09,20.09,0,0,1-4.5-3.64,18.76,18.76,0,0,1-3.15-5Z"/><path class="cls-1" d="M237.18,140c-1.37-.16-2.72-.27-4.08-.31-.49,0-1,.13-1.46.11a28.51,28.51,0,0,0-5.15.3,9.54,9.54,0,0,0-2.13.72c-.43.22-.83.49-1.25.69a2.89,2.89,0,0,1-1.36.45c-.33,0-.85-.82-1.12-1.8s-.28-2.12.3-2.51a13.66,13.66,0,0,1,3.24-1.46,7.86,7.86,0,0,1,1.73-.31,9.32,9.32,0,0,1,1.75-.06,12.81,12.81,0,0,0,2.06-.15,15.42,15.42,0,0,1,2-.25,43.35,43.35,0,0,1,4.42.05l2.68.16c1.35.07,2.69.26,4,.25a21.66,21.66,0,0,0,3-.42,5.09,5.09,0,0,1,.66-.12c.8-.06,1.05.24,1.24,1.38,0,.25.1.51.13.77a1.72,1.72,0,0,1-.87,1.88,14.37,14.37,0,0,1-5.69.94c-1.4,0-2.79-.17-4.16-.2Z"/><path class="cls-1" d="M182,139.13c.88-.25,1.81-.42,2.71-.63s1.83-.34,2.75-.45c.68-.08,1.33-.3,2-.34a31.9,31.9,0,0,1,7.18.37c1.05.13,2.1.3,3.15.4.66.12,1.35.17,2,.34a5.55,5.55,0,0,1,1.8,1c.34.29,0,1-.65,1.76s-1.48,1.51-2.13,1.42c-.15,0-.3,0-.44,0l-.43-.1-.83-.22c-.57-.12-1.14-.23-1.71-.38l-3.53-.73a8.31,8.31,0,0,0-2.23-.07c-.75.11-1.51.19-2.26.31a39.6,39.6,0,0,0-5,.93q-1.53.38-3,.9a29.89,29.89,0,0,0-4.46,1.84,28.32,28.32,0,0,0-3,2.16,7.91,7.91,0,0,1-.63.52c-.85.55-1.27.47-2-.35-.17-.18-.36-.36-.51-.55a1.58,1.58,0,0,1,0-2.09,17.27,17.27,0,0,1,6-4.16,37.1,37.1,0,0,1,5.22-2Z"/><path class="cls-1" d="M189.15,119.16c1.83,4.78-6,29.23-27.35,41.47a19.23,19.23,0,0,1-21.47-2c-9.14-7.91-9.72-19.87-3.2-29.85C146.48,114.49,177.49,108.36,189.15,119.16Z"/><path class="cls-1" d="M193.86,111.71c-1.22,3.23,11,25.76,53.91,27.6,13.23.57,27.39-2.44,37.15-12,10.84-10.56,15.13-27.84,8.3-41.69C272.44,43.51,205.88,80.09,193.86,111.71Z"/><path class="cls-1" d="M374,210.22c-1.69-.13-3.37-.24-5-.29a11.56,11.56,0,0,1-1.85-.16l-3.26-.05c-1.09,0-2.18,0-3.26.07s-1.93.18-2.87.33a14.17,14.17,0,0,1-3.67.42c-.79,0-.21-2.55,1.21-2.87a29,29,0,0,1,7.67-.66,31.27,31.27,0,0,0,4.72-.31,5.12,5.12,0,0,1,1.29-.11h1.31l2.59.05,3.18.09c1.6,0,3.21.14,4.75,0A11.38,11.38,0,0,0,384,206a5.82,5.82,0,0,0,.61-.28,1.35,1.35,0,0,1,.84-.15,2.14,2.14,0,0,1,.81.59c.15.15.32.29.46.45.49.5.43,1.25-.33,1.88a9.4,9.4,0,0,1-3.67,1.57,22.85,22.85,0,0,1-3.62.42c-1.76.06-3.47-.1-5.18-.15Z"/><path class="cls-1" d="M243.81,254.57a20.51,20.51,0,0,1-3,1.29,24.53,24.53,0,0,1-3.12.78c-.52.08-1.05.18-1.57.25l-1.58.11a11.62,11.62,0,0,1-1.56.05c-.52,0-1,0-1.56,0a33.8,33.8,0,0,1-12-2.89,44.4,44.4,0,0,1-7.74-4.34c-8.45-6.08-14.9-14.12-20.83-22.25l-7.8-10.89c-1.66-2.3-3.36-4.57-5.11-6.75-.87-1.08-1.73-2.17-2.65-3.14a8.76,8.76,0,0,0-2.8-2.26c-.53-.18-.83-.21-.91-.46s.17-.72,1.12-1a5.78,5.78,0,0,1,3.63.77,13.32,13.32,0,0,1,3.69,3c1.93,2.32,3.62,4.72,5.3,7.1s3.29,4.77,4.94,7.16c3.29,4.76,6.63,9.45,10.26,13.93a61.56,61.56,0,0,0,15.62,13.82,34.88,34.88,0,0,0,10.44,4.31,27.09,27.09,0,0,0,11.16.18A17.83,17.83,0,0,0,244,250.7a18.73,18.73,0,0,0,4.78-4.86,25.37,25.37,0,0,0,2.55-4.63,38.43,38.43,0,0,0,1.79-5.06A60.49,60.49,0,0,0,255,225.52c.26-2.78.33-5.56.33-8.34s-.13-5.54-.1-8.39l.06-3.71c.16-4.57.37-6,1.32-7a6.78,6.78,0,0,1,.56-.65c.51-.43,1.23,1.46,1.27,4.86.09,2.51.13,5.14.17,7.58s.11,5.14.08,7.78a84.29,84.29,0,0,1-1.6,16.08,41.57,41.57,0,0,1-4.19,11.72,24.6,24.6,0,0,1-3.82,5.2,19.56,19.56,0,0,1-5.22,4Z"/><path class="cls-1" d="M343.25,110.78c-2.9,5.09-5.8,10.18-8.63,15.3-1,1.87-2,3.78-3,5.65-1.76,3.24-3.51,6.49-5.13,9.78-.82,1.64-1.6,3.3-2.3,5-.35.84-.67,1.68-.93,2.51a4.86,4.86,0,0,0-.35,2l.09.17a1.2,1.2,0,0,0,.21.19,2.84,2.84,0,0,0,.4.23,6.9,6.9,0,0,0,1,.36,18.83,18.83,0,0,0,2.35.43c1.61.2,3.27.3,4.92.38,2.12.11,4.27.17,6.44.39a23.56,23.56,0,0,1,3.28.53,8.79,8.79,0,0,1,3.28,1.42,1.68,1.68,0,0,1,.58.78c.06.21,0,.34-.1.4s-.72,0-1.31,0a42,42,0,0,1-5.32-.14c-2.78-.34-5.7-.45-8.66-.7-1.48-.12-3-.27-4.53-.54a15.2,15.2,0,0,1-2.42-.63,6.67,6.67,0,0,1-1.35-.66c-.12-.09-.3-.21-.43-.32s-.24-.26-.36-.39a4.14,4.14,0,0,1-.57-.86l-.13-.49-.06-.5a2.15,2.15,0,0,1,0-.51,3.63,3.63,0,0,1,0-.39,9.79,9.79,0,0,1,.26-1.25,18.57,18.57,0,0,1,.75-2.18c.55-1.39,1.17-2.72,1.81-4,2.38-4.75,4.79-9.66,7.34-14.4,2.82-5.2,5.72-10.35,8.62-15.49q2.69-4.75,5.36-9.5c2.68-4.8,5.41-9.61,8-14.43,2-3.75,3.77-7.51,5.57-11.29l1.16-2.49c1.5-3.1,2.13-4,3.09-4.37a3.4,3.4,0,0,1,.65-.23c.64-.07.45,1.41-.53,3.76-2.91,7-6.6,14-10.39,21-2.82,5.19-5.74,10.35-8.61,15.51Z"/><path class="cls-1" d="M266.34,152l.22.77a1.17,1.17,0,0,1,.07.29l0,.23.15.94c.1.63.13,1.21.2,1.81.08,1.19.15,2.36.16,3.52.06,2.32,0,4.61-.1,6.91-.08,1.67-.09,3.35-.27,5a56.77,56.77,0,0,1-1.53,8.82c-.25.75-.41,1.47-.73,2.22l-.46,1.12c-.2.38-.45.78-.68,1.15a13.31,13.31,0,0,1-3.52,3.31,16.5,16.5,0,0,1-7.81,2.63,13.91,13.91,0,0,1-10-2.65c-.85-.72-.34-1,.68-1a31.29,31.29,0,0,1,4.17.31,16.22,16.22,0,0,0,8.56-1,12.28,12.28,0,0,0,3.6-2.08,5.7,5.7,0,0,0,.76-.71l.36-.38a1.17,1.17,0,0,0,.29-.37l.24-.35a1.53,1.53,0,0,0,.24-.41l.45-1a25.59,25.59,0,0,0,1.29-5.66c.23-2,.4-4,.52-6.06a83.41,83.41,0,0,0,0-13.32,17,17,0,0,0-.27-2,6,6,0,0,0-.13-.64c0-.08,0-.18-.09-.23l-.18-.14a3.31,3.31,0,0,0-.63-.37l-.84-.39c-.6-.23-1.21-.45-1.85-.63a41.11,41.11,0,0,0-12.2-1.23,36.8,36.8,0,0,0-9.2,1.72c-.66.17-1.24.48-1.88.68-2.31.86-3,1.1-4,.51a6.68,6.68,0,0,1-.7-.39c-.32-.26-.34-.65,0-1.15a4.74,4.74,0,0,1,1.86-1.64,26.71,26.71,0,0,1,8.94-3,46,46,0,0,1,9.53-.57,42.44,42.44,0,0,1,7.18.94l1.81.47,1.84.63a20.57,20.57,0,0,1,1.89.93l1.4.94.35.23c.05.12.08.26.12.39l.24.79Z"/><path class="cls-1" d="M183.71,188.52a17.05,17.05,0,0,0,5.56,3.07,20,20,0,0,0,6.49.85c4.51,0,9.11-.83,12.37-3.5a13.89,13.89,0,0,0,4.43-8,42.82,42.82,0,0,0,.78-8.85l0-.68.06-1,.08-1c0-.1.05-.13.13-.16l.22-.12.42-.22c.29-.15.57-.31.86-.44s.63-.26.79-.33c.41-.17.84-.25,1.25-.38a14.31,14.31,0,0,1,5.08-.29,14.67,14.67,0,0,1,8.95,4.3,32,32,0,0,1,2.87,3.85c.86,1.32,1.64,2.68,2.38,4.06a47.77,47.77,0,0,1,3.31,7.7,20.67,20.67,0,0,1,1.12,8.45,9.92,9.92,0,0,1-.73,2.79,7.32,7.32,0,0,1-.7,1.32,4.53,4.53,0,0,1-1.17,1.18,6.12,6.12,0,0,1-2.92,1,11.73,11.73,0,0,1-2.85-.09,23.41,23.41,0,0,1-9.94-4.1c-.92-.67-1.19-1.23-1-1.3s.66.19,1.54.47,2.12.67,3.62,1c.74.18,1.56.35,2.41.54s1.72.39,2.63.56a9.15,9.15,0,0,0,4.38,0,2.11,2.11,0,0,0,1.13-.89,6.69,6.69,0,0,0,.75-1.93,12.32,12.32,0,0,0,0-4.61,26.34,26.34,0,0,0-1.31-4.8,49.08,49.08,0,0,0-4.61-9.19,31.81,31.81,0,0,0-3-4.07,10,10,0,0,0-1.74-1.45,13,13,0,0,0-2.1-1.09,12.18,12.18,0,0,0-5.67-.84,9.53,9.53,0,0,0-2.76.67,1.22,1.22,0,0,0-.24.1c-.05.05-.2.05-.18.15l0,.26v.58c0,4.33.09,9.17-1.9,13.59a15.25,15.25,0,0,1-4.92,6.19,18.65,18.65,0,0,1-7.14,3.1,32.4,32.4,0,0,1-7.51.67,21.72,21.72,0,0,1-7.52-1.29,18.64,18.64,0,0,1-4.21-2.17,21.39,21.39,0,0,1-3.59-3,31,31,0,0,1-5.22-7.59,52.87,52.87,0,0,1-4.33-13c-.46-2.24-.79-4.5-1-6.76-.05-.57-.1-1.14-.14-1.71L168.8,159l0-.6a.94.94,0,0,1,0-.29L169,158l.93-.8a5,5,0,0,1,.74-.58c.5-.31,1-.67,1.5-.95a43.53,43.53,0,0,1,9.91-3.74,61.13,61.13,0,0,1,10.33-1.77c1.54-.14,3.06-.2,4.63-.2a29.65,29.65,0,0,1,3.69.28c.5.07,1,.16,1.37.24s.77.23,1.1.34a6,6,0,0,1,1.55.69,5.79,5.79,0,0,1,.9.87,8.25,8.25,0,0,1,.62.7c.17.31-.33.4-1.37.47a18.4,18.4,0,0,1-1.92,0l-1.21-.09c-.44,0-.92,0-1.41,0a59.72,59.72,0,0,0-18,1.94,38.74,38.74,0,0,0-8.45,3.15,7.18,7.18,0,0,0-.9.55,7.7,7.7,0,0,0-.84.57c-.17.15-.11.09-.1.08s0,0,0,0h0l.08,1.06.11,1.16c.09.77.19,1.55.3,2.32a57.84,57.84,0,0,0,3.56,13.4c1.77,4.2,4.18,8.17,7.56,10.89Z"/><path class="cls-1" d="M131.76,135.12a25.89,25.89,0,0,0-.88,6.49,23.1,23.1,0,0,0,1,6.45,23.42,23.42,0,0,0,7.33,10.78,15,15,0,0,0,4,2.4,20,20,0,0,0,4.58,1.3,20.61,20.61,0,0,0,4.23.27c.71,0,1.41-.1,2.12-.16s1.41-.2,2.09-.4a19.34,19.34,0,0,0,4-1.39l.95-.48,1-.56c.64-.38,1.28-.74,1.89-1.16a49.43,49.43,0,0,0,12.81-12.26,61.31,61.31,0,0,0,7.54-14,67.24,67.24,0,0,0,2.89-9.74,47.36,47.36,0,0,0,1.37-9.93c0-1-.06-1.38.14-1.45s.6.36,1,1.27a18.13,18.13,0,0,1,.8,9.5,65.25,65.25,0,0,1-7.36,20.4,54.43,54.43,0,0,1-14.34,16.44c-.89.64-1.77,1.31-2.71,1.9s-1.86,1.2-2.83,1.76A23.59,23.59,0,0,1,157,165.2a23.92,23.92,0,0,1-13.74-.59,19.66,19.66,0,0,1-6.6-3.88,30.74,30.74,0,0,1-4.91-5.7,26.72,26.72,0,0,1-3.07-6.88,25,25,0,0,1-.89-7.45A29.62,29.62,0,0,1,134,123.76a42.52,42.52,0,0,1,10.12-9.15,61.1,61.1,0,0,1,12-6.14c6.52-2.44,13.33-4.08,20.42-3.66a27.25,27.25,0,0,1,4.63.69A15.74,15.74,0,0,1,187,108a7.49,7.49,0,0,1,1.2,1.22,4.28,4.28,0,0,1,.54,1.1c.1.31.28.66.31.86.09.66-1.94-.47-5.43-1.83a24.93,24.93,0,0,0-8.44-1.5,40.35,40.35,0,0,0-8.91.86,57.56,57.56,0,0,0-17.17,6.49,45.12,45.12,0,0,0-10.75,8.36,27.94,27.94,0,0,0-6.46,11.54Z"/><path class="cls-1" d="M288,63.09a40.64,40.64,0,0,1,8.94,8.28,36.36,36.36,0,0,1,5.64,10.81,37,37,0,0,1,1.83,12A46.45,46.45,0,0,1,302.74,106a47.35,47.35,0,0,1-7.6,15.62,42.93,42.93,0,0,1-11.3,10.29,52.38,52.38,0,0,1-13.9,6.07c-9.73,2.75-19.95,2.88-29.81,1.89a98.57,98.57,0,0,1-25.84-5.67,55.54,55.54,0,0,1-14.86-8.33,35.29,35.29,0,0,1-6-6.18,25.92,25.92,0,0,1-2.32-3.68,16,16,0,0,1-1.52-4.15,5.19,5.19,0,0,1,0-2.14c.14-.49.34-.69.42-.61s.09.36.23.77a8.21,8.21,0,0,0,.64,1.6,27.81,27.81,0,0,0,3.23,4.88,55.91,55.91,0,0,0,5.75,5.95,49.78,49.78,0,0,0,14,8.58,80.53,80.53,0,0,0,16,4.75,123.25,123.25,0,0,0,16.77,2,73.14,73.14,0,0,0,16.78-1l2.48-.47,2.46-.63,1.23-.32,1.2-.4c.81-.27,1.62-.53,2.42-.82a49.84,49.84,0,0,0,4.67-2.07c.75-.4,1.53-.75,2.26-1.2l2.17-1.35a39.28,39.28,0,0,0,7.74-6.63l.87-.94c.29-.32.52-.67.79-1l1.54-2c.47-.71.9-1.44,1.35-2.16l.68-1.08c.21-.36.38-.75.57-1.13l1.25-2.5,1-2.61a27.73,27.73,0,0,0,.9-2.66l.42-1.34c.13-.45.21-.91.32-1.36.19-.91.46-1.81.58-2.74l.4-2.77a43.14,43.14,0,0,0,.18-5.57A35.81,35.81,0,0,0,298.82,82a32.42,32.42,0,0,0-5.62-9.51,34.92,34.92,0,0,0-23.93-12.15,52.45,52.45,0,0,0-10.55.19,71.79,71.79,0,0,0-10.42,2.11A90.29,90.29,0,0,0,228.73,71a97.5,97.5,0,0,0-25.17,20.48c-1.56,1.79-3,3.62-4.4,5.55-2.6,3.57-4.07,6.06-5.26,7.74a21.84,21.84,0,0,1-1.48,2.06,10,10,0,0,1-1.17,1.33,12.77,12.77,0,0,1-1,1c-.43.3-.4-.44,0-2.11a17.42,17.42,0,0,1,1-3.09,39,39,0,0,1,1.89-4.12c5.08-8.77,12.28-16.43,20.46-22.94A102.24,102.24,0,0,1,241.1,61.17a76.18,76.18,0,0,1,11.49-3.36,60.15,60.15,0,0,1,12-1.38,45.67,45.67,0,0,1,12.17,1.47A37.7,37.7,0,0,1,288,63Z"/><path class="cls-1" d="M207.91,180.29a7.94,7.94,0,0,1-1.1,1.88,5.7,5.7,0,0,1-1.93,1.51,5.46,5.46,0,0,1-2.32.46,9.45,9.45,0,0,1-1.94-.26l-.68-.16-.64-.2a6.34,6.34,0,0,1-1.23-.5,15.88,15.88,0,0,1-3.58-2.62,26.53,26.53,0,0,1-2.89-3.13c-.79-1-1.57-1.94-2.29-3a11.67,11.67,0,0,1-2.19-4.26c-.11-.5.48-.63,1.2-.5a3.64,3.64,0,0,1,1.09.38,2.14,2.14,0,0,1,.91.77,64.22,64.22,0,0,0,5.41,6.89,11.55,11.55,0,0,0,4.35,2.81,6.86,6.86,0,0,0,2.51.55,2,2,0,0,0,1.71-.86,6.74,6.74,0,0,0,1.06-3.11,21.64,21.64,0,0,0-.06-5.68,29.3,29.3,0,0,0-1.14-4.3c-.1-.31-.22-.61-.31-.93-.31-1.17-.17-1.6.7-2.08.19-.1.35-.23.52-.3a1.46,1.46,0,0,1,1.79.93,23.18,23.18,0,0,1,2,8.5,18.19,18.19,0,0,1-.85,7.18Z"/><path class="cls-1" d="M246.58,174.48l-.52.85c-.21.29-.45.56-.68.83a9,9,0,0,1-.89.74,5.07,5.07,0,0,1-1.09.55,4.94,4.94,0,0,1-2.32.25,10.39,10.39,0,0,1-1-.22l-.92-.35a11.39,11.39,0,0,1-2.24-1.32,24.81,24.81,0,0,1-5.27-6.39c-.6-1-1.25-2-1.81-3.08a12.25,12.25,0,0,1-1.57-4.33c-.05-.49.44-.54,1-.33a3.53,3.53,0,0,1,1.79,1.31c1.5,2.41,3.05,4.76,4.57,7.22a12.46,12.46,0,0,0,3.67,3.5,5.25,5.25,0,0,0,2.15.9,1.78,1.78,0,0,0,1.68-.66,6.94,6.94,0,0,0,1.36-2.89,18.52,18.52,0,0,0,.47-2.66,12.76,12.76,0,0,0-.05-2.69,34.51,34.51,0,0,0-1-4.2c-.08-.32-.19-.63-.25-.95-.21-1.22-.07-1.66.83-2a4,4,0,0,1,.51-.21,1.43,1.43,0,0,1,1.54,1.06,24.15,24.15,0,0,1,1.62,8.21,12.9,12.9,0,0,1-.11,1.76c-.09.56-.14,1.11-.27,1.67a14.78,14.78,0,0,1-1.13,3.45Z"/><path class="cls-1" d="M115.15,387.07c3.93-8.83,8.29-17.42,12.94-25.83s9.57-16.69,14.72-24.8c3.77-5.91,7.56-11.81,11.63-17.53,3.57-5,7.25-10,11.1-14.85s7.82-9.61,12.05-14.14A136.69,136.69,0,0,1,191.06,277c1.25-1,2.43-2,3.72-2.86l1.94-1.33,1-.67,1-.6,2.05-1.18a22.44,22.44,0,0,1,2.15-1c.73-.31,1.43-.71,2.19-.95l2.24-.78a40.31,40.31,0,0,1,8.3-1.59,33.3,33.3,0,0,1,8.46.49,40.62,40.62,0,0,1,15.36,6.53A77,77,0,0,1,255,287.47a101.46,101.46,0,0,1,6.37,8.41c2,2.89,3.89,5.83,5.66,8.85,2.09,3.83,1.47,3.51-1.08.79-1.29-1.35-3-3.34-5-5.74l-3.27-3.88c-.58-.69-1.16-1.41-1.79-2.12L254,291.52A82.32,82.32,0,0,0,239.29,277c-5.49-4.06-11.8-7-18.45-7.61a30.91,30.91,0,0,0-10,.64l-2.44.65-2.41.82c-.79.3-1.53.68-2.3,1-.38.18-.77.33-1.15.53l-1.11.64A83.68,83.68,0,0,0,185,286.54,195.91,195.91,0,0,0,167.89,306c-5.39,6.9-10.5,14.08-15.39,21.33a440.31,440.31,0,0,0-29.16,49.74c-2.62,5.3-5.13,10.66-7.36,16.13-1.11,2.73-2.16,5.48-3.1,8.27-.49,1.38-.87,2.79-1.31,4.19l-.53,2.12a17.85,17.85,0,0,0-.46,2.12,36,36,0,0,0-.2,13,19,19,0,0,0,2.39,5.88,20.12,20.12,0,0,0,4.4,4.63,50,50,0,0,0,11.69,6.06l3.13,1.18,3.16,1.08c2.11.71,4.2,1.47,6.34,2a134.47,134.47,0,0,0,20,4.46,156.42,156.42,0,0,0,20.31,1.54l9,.13a61,61,0,0,1,12.08,1.23c1.3.34,2.31.66,3.13,1a11.83,11.83,0,0,1,2,1,12.26,12.26,0,0,1,1.39.93c.43.41-.5.4-2.48.05a76.73,76.73,0,0,0-9.14-1c-6-.31-12.22-.16-18.55-.31a139.9,139.9,0,0,1-19.15-1.67c-1.61-.21-3.2-.53-4.8-.84s-3.2-.59-4.77-1l-4.76-1.15c-1.57-.43-3.14-.9-4.71-1.35l-2.35-.68c-.79-.24-1.55-.52-2.33-.77l-4.65-1.58c-3.09-1.08-6.18-2.24-9.23-3.65a42.17,42.17,0,0,1-6.62-3.78,23.56,23.56,0,0,1-5.63-5.64,21.46,21.46,0,0,1-3-7.45l-.31-1.95c-.11-.65-.1-1.29-.16-1.94a35.34,35.34,0,0,1,0-3.85c0-1.28.22-2.51.32-3.77s.41-2.54.66-3.77.58-2.45.94-3.64.7-2.38,1.09-3.55c1.55-4.69,3.42-9.2,5.35-13.68Z"/><path class="cls-1" d="M162.48,383.37a21.6,21.6,0,0,1-5.7,10.29c-1.53,1.49,1.85,1.89,2.87.89a24.18,24.18,0,0,0,6.34-11.5c.4-1.54-3.14-1.1-3.51.32Z"/><path class="cls-1" d="M158.79,398.73c.13,0,.3.1.42,0a.35.35,0,0,0,.06-.23c0-.12,0-.07-.19-.53a11.63,11.63,0,0,0-.94-1.46,15,15,0,0,0-4.6-4.51,12.62,12.62,0,0,0-2.66-1.18c-1.19-.37-2.41-.52-3.64-.82-.39-.11-.36-.61,0-1.12a2.47,2.47,0,0,1,2-1,12.86,12.86,0,0,1,4.41.95,13.6,13.6,0,0,1,3.71,2.5,29.14,29.14,0,0,1,3.76,3.92c.28.42.56.85.81,1.31a4.11,4.11,0,0,1,.19.37l.22.51a5.86,5.86,0,0,1,.33,1,3.17,3.17,0,0,1-.14,2,2.74,2.74,0,0,1-1.46,1.32,5.73,5.73,0,0,1-1.23.33c-.42,0-.86.08-1.12.08-.62,0-1.2,0-1.78-.05a35.45,35.45,0,0,0-5-.08,9.53,9.53,0,0,0-3.37,1.07l-.59.36a1.76,1.76,0,0,1-.93.2,3.33,3.33,0,0,1-.89-.36l-.41-.21a.73.73,0,0,1-.3-.67,3.77,3.77,0,0,1,.06-.6,1.59,1.59,0,0,1,.34-.62,6.77,6.77,0,0,1,3.76-2.21,17.87,17.87,0,0,1,4-.45c1,0,1.91,0,2.81.08l1.31,0h1.07Z"/><path class="cls-1" d="M178.44,409.25a.18.18,0,0,0-.05-.11l-.07-.06-.18-.09c-.74-.23-1.72-.48-2.62-.7-.68-.17-1.39-.27-2.1-.5-.32-.1-.64-.22-1-.34l-.86-.37-1.68-.74c-1.13-.51-2.25-1-3.36-1.57l-3-1.48a10.18,10.18,0,0,1-3.44-2.51c-.29-.35,0-.58.52-.69a3.93,3.93,0,0,1,2,.1,79.73,79.73,0,0,1,7.41,3.39,18.14,18.14,0,0,0,2.35,1,20.41,20.41,0,0,0,2.35.67l2.76.64.71.17.83.22a15.42,15.42,0,0,1,2,.67,8.19,8.19,0,0,1,2.6,1.65,1.32,1.32,0,0,1,.38.41,2.45,2.45,0,0,1,.29.45,4.06,4.06,0,0,1,.25.58.83.83,0,0,1-.33.55,8.24,8.24,0,0,1-1.09.7c-.88.46-2.19.79-3.34,1.25l-.63.25-.44.21c-.28.15-.56.32-.82.49a12.87,12.87,0,0,0-1.45,1.11c-.2.17-.35.36-.54.52a1.58,1.58,0,0,1-1.91.17c-.18-.08-.37-.13-.53-.21-.54-.24-.73-1-.28-2a7.71,7.71,0,0,1,3.28-3c.32-.16.64-.32,1-.46l.49-.2.12-.06s0,0,0,0,.15,0,.16,0,0,0,0,0Z"/><path class="cls-1" d="M233.75,418.75l-1.42,1.56-.8.93c-.45.54-.9,1.08-1.33,1.64-.88,1.1-1.71,2.25-2.54,3.41q-2.44,3.49-4.54,7.23c-1,1.81-1.87,3.7-2.74,5.58a45.5,45.5,0,0,0-3.5,10.23,18.73,18.73,0,0,0-.34,5.2,8.73,8.73,0,0,0,1.65,4.58c.23.24.5.56.7.74l.13.11a.09.09,0,0,1,.07,0s0-.06,0,.06,0,0,0,0a.1.1,0,0,0,0,0,1.31,1.31,0,0,0,.4-.37,5.92,5.92,0,0,0,.55-.91,46,46,0,0,0,1.81-4.48,44.48,44.48,0,0,1,2.52-6,13.63,13.63,0,0,1,4.36-5.12c1.29-.74,1.32-.05.81,1.05l-.92,2.09c-.36.82-.77,1.75-1.28,2.75-.89,1.78-1.66,3.7-2.42,5.68l-1.16,3.05a18.2,18.2,0,0,1-1.58,3.26l-.33.46c-.13.16-.29.33-.44.49a5.31,5.31,0,0,1-.61.51,3.81,3.81,0,0,1-1,.41,3,3,0,0,1-2.13-.26,2.78,2.78,0,0,1-.67-.44,3.59,3.59,0,0,1-.43-.4,10,10,0,0,1-2.21-3.31,14.8,14.8,0,0,1-.74-7.24,42.13,42.13,0,0,1,1.86-8.06,59.17,59.17,0,0,1,3.07-7.6,86.55,86.55,0,0,1,9.47-15.07c.41-.52.82-1,1.25-1.54l.5-.59.32-.34.29-.31.16-.15c0-.05.14-.12,0-.16a4.26,4.26,0,0,0-.74-.37c-.29-.12-.42-.18-1-.37s-1.06-.35-1.6-.51a34.11,34.11,0,0,0-7.8-1.42c-2.6-.08-5.39.08-8.09.14a68.8,68.8,0,0,1-12.73-.41,25.6,25.6,0,0,1-2.81-.6,10.21,10.21,0,0,1-3.51-1.62,2.56,2.56,0,0,1-1.06-1.57,2.82,2.82,0,0,1-.13-.71c0-.34.41-.43,1-.34a25.56,25.56,0,0,1,2.64.66,42.24,42.24,0,0,0,10.67,1.41c3.75.09,7.61-.09,11.58-.19.71,0,1.51,0,2.31,0s1.57.1,2.34.19a36.28,36.28,0,0,1,4.56.84c.75.18,1.49.39,2.22.61l1.1.35.55.19.89.33c1.28.51,2.79,1.05,3.19,1.9.08.21,0,.44,0,.66v.1h0l.34-.07h0v.06l0,.16-.05.33-.11.65a1.39,1.39,0,0,1-.07.33l-.33.41-.13.15Z"/><path class="cls-1" d="M255,400.89a67.84,67.84,0,0,1-4.56,6.67c-.61.78-1.17,1.61-1.85,2.35a24.63,24.63,0,0,1-8.7,6.14,17.33,17.33,0,0,1-4.64,1.2,14.24,14.24,0,0,1-3.06.06,5.89,5.89,0,0,1-1.5-.31,13.32,13.32,0,0,1-1.42-.52c-.58-.25-.32-.75.3-1.18a4.26,4.26,0,0,1,1.15-.57c.22-.08.46-.19.69-.26l.37-.11h.35a14.77,14.77,0,0,0,5-.7,19.58,19.58,0,0,0,4.77-2.05,20,20,0,0,0,4.87-4.65,52.71,52.71,0,0,0,4.48-6.25c.85-1.35,1.65-2.74,2.48-4.16a16.86,16.86,0,0,1,5.36-5.65,30.69,30.69,0,0,1,5.17-2.9,10.22,10.22,0,0,1,1.21-.43,4,4,0,0,1,1.69-.19,1.36,1.36,0,0,1,.51.2,3.51,3.51,0,0,1,.42.44,4.34,4.34,0,0,1,.31.37c.23.29-.18,1.23-1.18,1.74l-1.09.62a9.37,9.37,0,0,1-1.08.58c-.73.35-1.43.72-2.13,1.09a18.3,18.3,0,0,0-3.75,2.61c-.4.38-.78.79-1.15,1.21l-.53.66-.2.28-.23.36c-.63,1-1.29,2.22-2,3.37Z"/><path class="cls-1" d="M252.51,433.91a34.58,34.58,0,0,1-8,4c-.51.17-1,.38-1.53.55s-1,.31-1.57.44c-3.79.86-7.36.93-10.92,1.55a33,33,0,0,0-4.63,1.17,28.25,28.25,0,0,0-5.55,2c-.47.29-.77,0-.62-.76a3.83,3.83,0,0,1,2.1-2.35c1-.48,2.07-.85,3.05-1.2a27,27,0,0,1,3.07-1,42.92,42.92,0,0,1,6.38-1.07c1.27-.14,2.56-.3,3.8-.56l1.83-.42c.6-.15,1.19-.35,1.79-.51a31.08,31.08,0,0,0,7.46-3.37,34.06,34.06,0,0,0,4.11-3,36.18,36.18,0,0,0,5.33-5.66,37.78,37.78,0,0,0,3.08-5.14c.2-.39.37-.78.59-1.17.81-1.42,1.27-1.76,2.19-1.65a4,4,0,0,1,.62.08c.65.18.78,1,.35,2.23a33.84,33.84,0,0,1-6.16,9.89,37.1,37.1,0,0,1-6.69,6.05Z"/><path class="cls-1" d="M261.15,404.11a38.07,38.07,0,0,1,3.1-5.63,12.42,12.42,0,0,1,4-3.54c2-1.28-1-1.88-2.18-1.12a16.16,16.16,0,0,0-4.86,4.18,41.56,41.56,0,0,0-3.55,6.52c-.5,1.14,3,.77,3.48-.41Z"/><path class="cls-1" d="M290.11,457.54a36,36,0,0,1-11.19-1.76c-1.3-.4-2.59-.75-3.84-1.22s-2.18-.83-3.28-1.29-2.2-1-3.25-1.54a70.33,70.33,0,0,1-6.05-3.65c-1.73-1.14-3.47-2.25-5.21-3.31-2.23-1.35-4.48-2.62-6.65-4-.67-.44-.35-.89.52-1.1a5.84,5.84,0,0,1,3.72.54,67.66,67.66,0,0,1,7,4.11c2.24,1.46,4.43,2.9,6.67,4.26a24.66,24.66,0,0,0,4.27,2.05c1.52.56,3.1,1.08,4.63,1.59a39.68,39.68,0,0,0,10.27,2.19,26.44,26.44,0,0,0,6.4-.45,30.67,30.67,0,0,0,9.18-3.41,52.91,52.91,0,0,0,6.22-4.4c.44-.35.86-.71,1.31-1.05,1.72-1.21,2.4-1.43,3.26-1a3.33,3.33,0,0,1,.57.27c.53.38.15,1.32-1,2.45A39.79,39.79,0,0,1,301.44,455a33.55,33.55,0,0,1-5.51,1.82,31.56,31.56,0,0,1-5.81.76Z"/><path class="cls-1" d="M270.39,387.91c.15,3.25.29,6.51.37,9.79,0,1.19.15,2.38.15,3.58a116.5,116.5,0,0,1-.65,12.65c-.15,1.86-.41,3.73-.59,5.59-.18,1.18-.34,2.38-.57,3.56a26,26,0,0,1-1.11,3.44c-.28.7-.71.46-1.06-.28a6,6,0,0,1-.46-3.27c.74-4.62,1.13-9.31,1.49-14.1a83.77,83.77,0,0,0-.1-8.81q-.18-4.87-.49-9.76l-.41-6c-.23-3-.41-6.1-.69-9.13-.21-2.35-.6-4.64-.84-7a13.3,13.3,0,0,1-.11-1.55c0-1.94.31-2.56,1-3a2.33,2.33,0,0,1,.48-.27c.53-.19,1,.59,1.36,2,.13.51.22,1,.31,1.54s.22,1,.28,1.56c.14,1,.23,2.1.36,3.16.23,2.14.42,4.31.61,6.49.27,3.24.52,6.51.73,9.8Z"/><path class="cls-1" d="M309.15,424.21c.34-2.59.54-5.26.82-8,.1-1,.14-2,.29-3,.54-3.34.88-6.8,1.44-10.24.25-1.53.47-3.07.79-4.59a12.14,12.14,0,0,1,2.32-5.61c.42-.51.71-.15.84.52a6.42,6.42,0,0,1-.06,2.64,85.52,85.52,0,0,0-2,11.33c-.17,1.17-.26,2.39-.34,3.63l-.12,1.87-.15,1.81c-.23,2.64-.38,5.32-.59,8-.14,1.67-.3,3.35-.55,5A43,43,0,0,1,310,435.2c-.28,1-.66,1.89-1,2.84s-.7,1.88-1.18,2.76c-.19.39-.36.79-.58,1.19-.88,1.39-1.4,1.68-2.29,1.44a3.8,3.8,0,0,1-.6-.18c-.63-.28-.71-1.14-.26-2.15.67-1.52,1.32-3,1.95-4.56a47.3,47.3,0,0,0,1.56-4.76,46.16,46.16,0,0,0,1.39-7.58Z"/><path class="cls-1" d="M314.38,390.32a16.61,16.61,0,0,1-7.61.43,30.67,30.67,0,0,1-6.93-2.05,45.36,45.36,0,0,1-4.68-2.19,72.73,72.73,0,0,1-14.27-10.81c-1.91-1.82-3.82-3.67-5.54-5.65a41.9,41.9,0,0,1-3.17-4,21.13,21.13,0,0,1-2.28-4.62c-.33-1,.08-1,.84-.4a29.31,29.31,0,0,1,3.23,3c.25.32.54.61.81.92s.5.64.77.95c.53.62,1.06,1.24,1.62,1.84,1.11,1.22,2.28,2.38,3.42,3.58q3.48,3.54,7.31,6.81a51.77,51.77,0,0,0,10.28,6.6,37.33,37.33,0,0,0,6.17,2.44,18.77,18.77,0,0,0,6.4.8,10.1,10.1,0,0,0,3.72-.93,9,9,0,0,0,1.65-.95,3.57,3.57,0,0,0,1.11-1.22c.81-1.44.31-3.52-.52-5.34a34.2,34.2,0,0,0-3.24-5.35l-.72-1.06c-.12-.19-.24-.4-.35-.6l-.29-.53c-.4-.71-.82-1.41-1.23-2.11a45.29,45.29,0,0,1-2.41-4.41,13.32,13.32,0,0,1-.85-2.13,7.2,7.2,0,0,1-.31-3.09,2,2,0,0,1,.7-1.37,2.1,2.1,0,0,1,.47-.37c.53-.22.84.87,1.47,2.54a34.59,34.59,0,0,0,1.64,3.74c.64,1.25,1.37,2.52,2.12,3.84.37.66.75,1.33,1.12,2l.28.53.21.35.58.88c.85,1.24,1.78,2.58,2.59,4A19.62,19.62,0,0,1,320.1,380a9.15,9.15,0,0,1,.47,4.38,6.33,6.33,0,0,1-.88,2.36A7.1,7.1,0,0,1,318,388.5a18.69,18.69,0,0,1-1.74,1.09,11.93,11.93,0,0,1-1.88.8Z"/><path class="cls-1" d="M279.57,313a10.35,10.35,0,0,0-3,1.75,6.72,6.72,0,0,0-1.8,2.67,14.81,14.81,0,0,0-.22,7.32c.33,1.91.85,3.88,1.28,5.81l2.42,10.36c.78,3.5,1.46,7,2,10.56a71.32,71.32,0,0,1,.84,9.58c0,2,0,4-.07,6s-.23,4-.46,6c-.15,1.25-.69,1.08-1.26,0a13.21,13.21,0,0,1-1.31-5.34c-.11-2,0-4.11,0-6.16a55.91,55.91,0,0,0-.3-5.9c-.43-3.94-1.1-8-1.81-12-.86-4.82-2.44-9.73-3.52-14.73a36,36,0,0,1-1.13-8.58,12.37,12.37,0,0,1,.93-4.51,9.21,9.21,0,0,1,2.87-3.74,16.57,16.57,0,0,1,4.91-2.44c1.65-.57,3.28-1,4.75-1.71a33.52,33.52,0,0,0,3.32-1.82,14.93,14.93,0,0,1,3.82-1.68,4.07,4.07,0,0,1,2.53.17l.6.36.47.5a1.92,1.92,0,0,1,.36.53l.28.55.33,1.09.15,1.06a9.48,9.48,0,0,1,0,1.07,5.31,5.31,0,0,1-.05,1.06,12.81,12.81,0,0,1-2.35,6,13.86,13.86,0,0,1-4.86,4.28,10.79,10.79,0,0,1-2.78,1.05,6.28,6.28,0,0,1-1.3.17,4.09,4.09,0,0,1-1.11,0c-.34,0-.64-.08-.92-.13a4.2,4.2,0,0,1-.71-.27,2.18,2.18,0,0,1-.92-.62,2.28,2.28,0,0,1-.39-.82,2.76,2.76,0,0,1-.16-.73c0-.34.4-.5,1-.57.29,0,.61,0,1,0,.19,0,.39,0,.59,0s.45,0,.68,0a10.27,10.27,0,0,0,7.37-4.53,9.47,9.47,0,0,0,1.66-4.06,7.39,7.39,0,0,0,0-2.1,1.74,1.74,0,0,0-.11-.45c0-.12-.05-.31-.11-.35s-.06-.19-.09-.18,0,0,0,0,0,0,0,0a.92.92,0,0,0-.38,0,6.06,6.06,0,0,0-1.43.49c-1.1.49-2.24,1.19-3.53,1.9-2.79,1.58-5.71,2.09-8,3.11Z"/><path class="cls-1" d="M289.64,319.74c1.08-2.71,2.26-5.38,3.51-8,.46-1,.84-2,1.33-2.9.86-1.67,1.77-3.32,2.78-4.93a19.63,19.63,0,0,1,3.68-4.66,3.19,3.19,0,0,1,1.68-.73c.31,0,.62.06.93.08a3.93,3.93,0,0,1,.84.27,4.89,4.89,0,0,1,2.2,2.21,15.08,15.08,0,0,1,1.18,3.15c.32,1,.37,2,.69,2.73.14.32,0,.86-.92.75a4.1,4.1,0,0,1-2.57-2.25,27.14,27.14,0,0,0-1.1-2.7c-.09-.18-.18-.32-.26-.48s-.17-.28-.25-.33a.63.63,0,0,1-.1-.12s-.07,0-.09-.06-.12,0-.16-.1-.06-.06-.11-.07.05,0,0,0a2.12,2.12,0,0,0-.21.15,4.86,4.86,0,0,0-.48.39,20.83,20.83,0,0,0-2,2.21,40.62,40.62,0,0,0-3.86,6.7c-1.3,2.55-2.5,5.17-3.6,7.83-.68,1.63-1.33,3.28-1.9,4.95-.43,1.26-.84,2.53-1.14,3.81a6.53,6.53,0,0,0-.11,3.57,1.66,1.66,0,0,0,.67.84,2,2,0,0,0,1,.3,3,3,0,0,0,1.95-1.2c.27-.29.5-.63.76-1,1-1.21,1.46-1.63,2.2-1.53.16,0,.32,0,.43,0,.33.07.43.93-.2,2.06a9.21,9.21,0,0,1-1.81,2.5,6.49,6.49,0,0,1-1.5,1.08,4.53,4.53,0,0,1-2.18.44,4.67,4.67,0,0,1-2.13-.76,4.22,4.22,0,0,1-1.47-1.84,7.34,7.34,0,0,1-.32-3.75,31.22,31.22,0,0,1,1.1-4.48c.45-1.43.95-2.82,1.46-4.2Z"/><path class="cls-1" d="M305,320.11c-1.25,2.12-2.4,4.34-3.5,6.58-.4.82-.7,1.69-1.07,2.51-.67,1.47-1.31,2.94-1.88,4.43a25.12,25.12,0,0,0-1.33,4.49,5.28,5.28,0,0,0-.07.94.9.9,0,0,0,.15.57l.08.09.12.15a1.59,1.59,0,0,1,.24.2,1.47,1.47,0,0,1,.22.1c.07,0,.12,0,.2,0a3.39,3.39,0,0,0,1.69-1,16.16,16.16,0,0,1,2.16-1.73c.59-.35.79.17.83.9a4.58,4.58,0,0,1-.08,1.3,2.69,2.69,0,0,1-.72,1.41,6.81,6.81,0,0,1-2.92,1.94,4,4,0,0,1-1.27.13,3.63,3.63,0,0,1-1.3-.36,4,4,0,0,1-1-.69,1.75,1.75,0,0,1-.35-.38l-.4-.49-.32-.67c-.07-.24-.12-.48-.18-.72a5.09,5.09,0,0,1,0-1.14,10.37,10.37,0,0,1,.27-1.79,21.35,21.35,0,0,1,1-3.11c.88-2.19,1.57-4.49,2.51-6.66a73.09,73.09,0,0,1,3.45-7c.78-1.4,1.62-2.77,2.55-4.12a16.26,16.26,0,0,1,1.18-1.51c.23-.24.47-.46.71-.68l.36-.34.41-.3a5.68,5.68,0,0,1,1.89-.94,3.25,3.25,0,0,1,1.12-.13,3.5,3.5,0,0,1,1.12.17,7,7,0,0,1,2.69,1.74,14.34,14.34,0,0,1,1.87,2.28c.22.36.49.69.68,1.06.72,1.4.6,2,.12,2.54a3.16,3.16,0,0,1-.34.38c-.42.34-1.06-.06-1.76-.89a34,34,0,0,0-2.78-3.55A3.73,3.73,0,0,0,310,315a1.16,1.16,0,0,0-1,.18,7,7,0,0,0-2,1.93,29.77,29.77,0,0,0-1.91,3Z"/><path class="cls-1" d="M307.69,331.6c-1.12,1.81-2.19,3.66-3.12,5.54-.33.68-.57,1.41-.82,2.05l-.17.43-.12.34c0,.13,0,.16-.07.21a.78.78,0,0,0,0,.16.57.57,0,0,0,.32.58,1.58,1.58,0,0,0,1.07,0,8.23,8.23,0,0,0,1.72-.66A7,7,0,0,0,309,338a18.09,18.09,0,0,1,3-3.75c.42-.33.82.18,1,.91a3.09,3.09,0,0,1-.15,2.4,15.58,15.58,0,0,1-3.3,4.14A9.75,9.75,0,0,1,307,343.2a9.32,9.32,0,0,1-1.38.47,6.9,6.9,0,0,1-1.79.23,3.9,3.9,0,0,1-2.29-.75,3.45,3.45,0,0,1-1.16-2.07,4.49,4.49,0,0,1-.09-.61l0-.63a9.11,9.11,0,0,1,.16-1,12.79,12.79,0,0,1,.55-1.55,56.25,56.25,0,0,1,3.09-6c.68-1.18,1.39-2.34,2.12-3.5a18.19,18.19,0,0,1,1.9-2.65,7.14,7.14,0,0,1,2.95-1.95,7.26,7.26,0,0,1,5.57.49,4.8,4.8,0,0,1,1.05.67c1.13,1.05,1.16,1.65.55,2.43a3.67,3.67,0,0,1-.34.46,1.78,1.78,0,0,1-2,0,9.06,9.06,0,0,0-2.73-1.14,2.71,2.71,0,0,0-2.25.74l-.39.37a5.54,5.54,0,0,1-.37.45c-.25.35-.54.77-.82,1.21-.56.88-1.12,1.8-1.65,2.73Z"/><path class="cls-1" d="M314.12,345.85c-.91.94-1.86,1.83-2.82,2.69-.34.32-.65.68-1,1-1.28,1.07-2.61,2-4,3-.58.44-1.16.88-1.72,1.34a8.08,8.08,0,0,1-2.31,1.55c-.28.11-.55-.35-.66-.92a1.76,1.76,0,0,1,.31-1.61c.69-.61,1.39-1.19,2.1-1.76s1.52-1,2.31-1.52a17.28,17.28,0,0,0,2.56-2.21c.91-.84,1.81-1.69,2.67-2.59.54-.55,1.06-1.11,1.55-1.7a28.25,28.25,0,0,0,2.1-2.76,16.8,16.8,0,0,0,1.11-2.4l.21-.54c.3-.65.57-.77,1.21-.63.15,0,.3.05.44.09a1,1,0,0,1,.6,1.18,13.33,13.33,0,0,1-2.15,4.79,32.18,32.18,0,0,1-2.5,3.07Z"/><path class="cls-1" d="M300.83,370.61c.13-1.18.28-2.36.46-3.53.06-.43.06-.86.14-1.29.31-1.5.71-3,1.15-4.43.17-.65.36-1.3.51-1.94.12-.42.22-.83.36-1.24A5.28,5.28,0,0,1,304,357c.15-.23.48-.05.76.3a1.57,1.57,0,0,1,.41,1.29c-.38,1.59-.67,3.19-1.12,4.8a17.06,17.06,0,0,0-.34,3.06c-.1,1.12-.19,2.25-.25,3.39,0,.71-.06,1.41-.06,2.11,0,1.07,0,2.15.07,3.2.07.83.36,1.62.45,2.43,0,.18.05.35.05.53a1,1,0,0,1-.73,1.11,2.26,2.26,0,0,1-.33.13,1,1,0,0,1-1.05-.61,8.53,8.53,0,0,1-1.2-4.57,26.64,26.64,0,0,1,.08-3.57Z"/><path class="cls-1" d="M290.34,275.44a42.39,42.39,0,0,1,1.12-5.29c.13-.45.28-.91.46-1.37.09-.24.19-.47.3-.71s.15-.3.24-.46a4,4,0,0,1,.28-.5,4.39,4.39,0,0,1,1.53-1.53,3,3,0,0,1,2-.28,4,4,0,0,1,2.46,1.79l.4.72c.09.22.22.6.27.75a7.9,7.9,0,0,1,.22,1.12,20.71,20.71,0,0,1,0,3.61c-.1,1.15-.18,2.17-.22,3.28a59.36,59.36,0,0,0,.14,6.53,53.26,53.26,0,0,0,.83,5.76c.24,1.21.53,2.42.8,3.64a32.4,32.4,0,0,1,.59,3.7c.09.78-.26.77-.85.24a7.3,7.3,0,0,1-1-1.15,7.79,7.79,0,0,1-.55-.82l-.25-.46c-.06-.17-.12-.34-.17-.51a50.59,50.59,0,0,1-2.1-15.52c0-1.57.09-3.17.14-4.78a16.21,16.21,0,0,0-.07-2.22,7.33,7.33,0,0,0-.17-1,6,6,0,0,0-.2-.71.9.9,0,0,0-.61-.62c-.34-.06-.57.25-.73.52,0,0-.11.22-.19.39l-.21.54c-.13.37-.25.76-.36,1.15-.21.79-.4,1.61-.55,2.44-.2,1-.36,2.06-.52,3.12s-.44,2.12-.61,3.18a53.32,53.32,0,0,0-.92,9.48,45.79,45.79,0,0,0,.95,7.22c.1.53.18,1.06.24,1.61a5.09,5.09,0,0,1-.08,2.19,2.61,2.61,0,0,1-.72,1c-.14.11-.26.25-.37.32s-.41,0-.67-.37a5.22,5.22,0,0,1-.89-1.59c-.28-1.07-.65-2.14-.85-3.26s-.41-2.27-.56-3.45a37.67,37.67,0,0,1-.14-7.28c.11-1.79.32-3.57.6-5.34.14-.89.3-1.77.48-2.65l.13-.66,0-.26.05-.28.19-1.27Z"/><path class="cls-1" d="M235.22,322.1A29.66,29.66,0,0,1,227.5,321a45.26,45.26,0,0,1-7.13-2.62,49.51,49.51,0,0,1-4.89-2.44,81.47,81.47,0,0,1-15-11.66c-2-1.94-4-4-5.88-6-1.22-1.29-2.46-2.57-3.6-3.92s-2.21-2.78-3.22-4.24c-.62-.92-.14-1.13.89-.79a11.82,11.82,0,0,1,4.13,2.58c5,5.14,9.86,10.2,15.22,14.86a55.82,55.82,0,0,0,10.86,7.07,39.54,39.54,0,0,0,13.29,4.53,22.73,22.73,0,0,0,8.47-.52A12.06,12.06,0,0,0,246,315a9.58,9.58,0,0,0,2.64-5.45c.54-3.29,0-6.69-.17-10.2,0-.78-.11-1.55-.1-2.36a7.52,7.52,0,0,1,.52-3.17,2.17,2.17,0,0,1,.52-.78,2.8,2.8,0,0,1,.72-.43,4.24,4.24,0,0,1,.63-.26c.31-.06.52.23.76.78a7.51,7.51,0,0,1,.37,2.29c0,2.9.47,6,.54,9.37a27.23,27.23,0,0,1-.3,5.26,14.15,14.15,0,0,1-2,5.5,12.35,12.35,0,0,1-3.1,3.26,15.19,15.19,0,0,1-3.8,2,23.88,23.88,0,0,1-8,1.38Z"/><path class="cls-1" d="M238.18,348.46a4.78,4.78,0,0,1-4.66-.22,4.17,4.17,0,0,1-1.94-3.64A3.38,3.38,0,0,1,233,342a4.26,4.26,0,0,1,2.81-.71,5.19,5.19,0,0,1,3,1.43,4.35,4.35,0,0,1,.93,1.22,3.29,3.29,0,0,1,.31,1.3,2.29,2.29,0,0,1-.38,1.24,2.81,2.81,0,0,1-1,.85,4.21,4.21,0,0,1-2.29.47,3.78,3.78,0,0,1-2.09-.92,3.09,3.09,0,0,1-1.19-2.7,2.44,2.44,0,0,1,.78-1.5,2.2,2.2,0,0,1,.63-.41,1.93,1.93,0,0,1,.64-.21c.54-.11.56.51.51,1.19l0,.51c0,.17,0,.34.05.47s.15.27.14.28a.28.28,0,0,0-.08-.06l0,0h.23s.12,0,.19,0,0,0,.07,0,.06.08.14.14l.19.16,0,.05a.26.26,0,0,0,.23.07.23.23,0,0,0,.19-.29.71.71,0,0,0-.55-.45,1,1,0,0,0-.78.2c-.6.44-.06,1.53.8,1.45a1.33,1.33,0,0,0,.38-.07,1.56,1.56,0,0,0,.44-.2,3.78,3.78,0,0,0,1-.89,5.74,5.74,0,0,0,1.08-4.21,4.68,4.68,0,0,0-1.53-2.87,4,4,0,0,0-.52-.35c-.61-.4-.73-.6-.67-1.5,0-.2,0-.41,0-.61a.9.9,0,0,1,.5-.75,1.61,1.61,0,0,1,1.28,0,5.43,5.43,0,0,1,2.06,1.35,7.15,7.15,0,0,1,1.33,2.05,9,9,0,0,1,.64,4.66,7.7,7.7,0,0,1-4.18,6.19Z"/><path class="cls-1" d="M238.23,371.08l-.4.24a5.24,5.24,0,0,1-.53.27,6.25,6.25,0,0,1-1.2.39,3.63,3.63,0,0,1-2.41-.31,4.71,4.71,0,0,1-2-4,3.33,3.33,0,0,1,.66-2,2.91,2.91,0,0,1,1.86-1,5.15,5.15,0,0,1,2.51.33,7.51,7.51,0,0,1,2,1.08,5.46,5.46,0,0,1,.88.86,2.88,2.88,0,0,1,.66,1.46,2.37,2.37,0,0,1-.14,1.05,2.31,2.31,0,0,1-.52.76,3.2,3.2,0,0,1-1.15.7,4.93,4.93,0,0,1-1,.29,3.71,3.71,0,0,1-1.15.05,3.86,3.86,0,0,1-2-.9,3.14,3.14,0,0,1-1.22-2.71,2.46,2.46,0,0,1,.78-1.5,2,2,0,0,1,.63-.42,2.09,2.09,0,0,1,.64-.21c.55-.11.57.5.52,1.19l0,.51c0,.17,0,.34,0,.47s.16.27.14.27l-.07-.05h.18s.14,0,.2,0h.06s.06.09.15.15a.87.87,0,0,0,.43.23h.07s.13,0,.23,0l.25-.08h.07s0-.05.16.15c.51.59.83.47.49.5a.85.85,0,0,0-.32.09l-.22.1-.11.06s0,0,0,0a.33.33,0,0,0,0-.17,3.14,3.14,0,0,0-2.29-1.12l-.27,0s0,0,0,0a.68.68,0,0,0-.14-.23c0-.06-.08,0,.23.08,0,0,0,0,0,0s0,.07,0,.13a3.18,3.18,0,0,0,0,.4,2.14,2.14,0,0,0,.06.27.71.71,0,0,0,.34.45.8.8,0,0,0,.59,0,1.6,1.6,0,0,0,.42-.16,6.79,6.79,0,0,0,.6-.39,7.11,7.11,0,0,0,1.1-1,6.72,6.72,0,0,0,1.81-4.13,2.69,2.69,0,0,0-1.53-2.38c-.17-.12-.42-.16-.61-.27-.78-.33-1-.57-1-1.47,0-.21,0-.42,0-.61.06-.66.67-1.09,1.65-.91a5.13,5.13,0,0,1,1.08.33,5.48,5.48,0,0,1,1.09.58,5.38,5.38,0,0,1,1.78,2,6.16,6.16,0,0,1,.63,2.69,8.39,8.39,0,0,1-.4,2.5,10.47,10.47,0,0,1-1.62,3.07,10.27,10.27,0,0,1-2.51,2.45Z"/><path class="cls-1" d="M309.43,388.12a21.11,21.11,0,0,1-5.53-1,39.38,39.38,0,0,1-4.94-1.88c-1.16-.52-2.34-1-3.44-1.59a74.52,74.52,0,0,1-10.92-7.4c-1.51-1.22-3.07-2.41-4.5-3.71a28.81,28.81,0,0,1-2.7-2.6,18.2,18.2,0,0,1-2.12-3.14c-.37-.71.07-.87.89-.71a9.28,9.28,0,0,1,3.23,1.32l.73.53.67.59c.46.38.9.78,1.37,1.15.92.75,1.87,1.48,2.78,2.27,1.83,1.55,3.72,3.07,5.66,4.58a43.47,43.47,0,0,0,7.72,4.49,34.8,34.8,0,0,0,9.07,3.23c1.86.3,3.83.3,5.13-.54l.16-.1a1.21,1.21,0,0,0,.45-1.09,8.71,8.71,0,0,0-.31-2,36.48,36.48,0,0,0-1.4-4.17c-.87-2.26-2-4.44-2.76-6.82a9.4,9.4,0,0,1-.47-1.59,4.68,4.68,0,0,1,0-2.25,1.74,1.74,0,0,1,.83-1.05,2.88,2.88,0,0,1,.55-.32c.6-.22,1.19.53,1.8,1.78.85,1.87,1.49,3.81,2.31,5.82s1.63,4.08,2.37,6.39a18.51,18.51,0,0,1,.76,3.23,7.94,7.94,0,0,1,.05,1,6.11,6.11,0,0,1-.15,1.37,4.63,4.63,0,0,1-.51,1.29,6.1,6.1,0,0,1-.89,1.07,7.89,7.89,0,0,1-1.6,1,7.79,7.79,0,0,1-1.46.53,12.78,12.78,0,0,1-1.43.27c-.46,0-.92.06-1.37.07Z"/><path class="cls-1" d="M280,459.36a34.45,34.45,0,0,1-7.32-2.15c-.83-.39-1.72-.65-2.52-1.09a52.29,52.29,0,0,1-7.92-5.25l-3.32-2.48a26.87,26.87,0,0,1-4.08-3.37c-.37-.4,0-.78.77-.94a3.64,3.64,0,0,1,2.62.4,47,47,0,0,1,4.28,3.09c.71.51,1.41,1,2.1,1.58s1.41,1,2.1,1.58a19.09,19.09,0,0,0,2.69,1.7c1,.47,1.92.95,2.89,1.37a29.46,29.46,0,0,0,6.59,2.18,16.88,16.88,0,0,0,2.11.35l1.07.14,1.08,0a31.55,31.55,0,0,0,6.58-.34,44.47,44.47,0,0,0,5-1.26c.36-.1.71-.22,1.08-.31,1.38-.28,1.87-.13,2.33.61a4.76,4.76,0,0,1,.32.51c.26.58-.2,1.22-1.17,1.68a28.38,28.38,0,0,1-9.55,2.25,33.71,33.71,0,0,1-7.7-.22Z"/><path class="cls-1" d="M224.42,450.73c-4.89.16-6.15-8.64-6.15-8.64s-4.52,11.9,0,16.63C221.4,462,224.42,450.73,224.42,450.73Z"/><path class="cls-1" d="M230.12,226a7.88,7.88,0,0,1-3.42-.79,4.85,4.85,0,0,1-1.13-.52,8.67,8.67,0,0,1-1.55-1.47,12.27,12.27,0,0,1-1.12-1.68c-.14-.25-.29-.49-.44-.72s-.27-.49-.38-.74a4.43,4.43,0,0,1-.54-2c0-.23-.07-.16.08-.05a8.05,8.05,0,0,0,1,.35,7.86,7.86,0,0,1,3.16,1.86c.42.53,1.13.64,1.68.92a10.71,10.71,0,0,0,2,.74,5.61,5.61,0,0,0,1.34.2,5,5,0,0,0,2.14-.37c.51-.26.95-.6,1.47-.92a3.35,3.35,0,0,0,.37-.2c.46-.26.72-.29.81-.36l.06,0a2.06,2.06,0,0,0-.08.62A6.89,6.89,0,0,1,235,223a5.47,5.47,0,0,1-1.48,1.88,6.49,6.49,0,0,1-3.4,1.27Z"/><path class="cls-1" d="M389,188.23l-.55,13.62,0,1.54a1.71,1.71,0,0,1,0,.39l0,.65a9.12,9.12,0,0,0-.15,1.28l-.25.62-.13.31-.06.15,0,.08,0,0h0l-.2-.19h0v0l-.41.35-.23.21a1.28,1.28,0,0,1-.35.08c-.62,0-1.28-.07-1.91-.1l-1.26-.09-2.17-.15c-1.44-.08-2.88-.15-4.33-.19-2.89-.08-5.79-.07-8.68,0-2.57.11-5.15.34-7.68.67-3.25.43-6.46,1.08-9.73,1.43-1,.11-1-.54-.28-1.33a7.71,7.71,0,0,1,4.11-2.06A91.91,91.91,0,0,1,375,204.09l6.25.16,3.09.09.5,0H385s.1,0,.08,0v-.27h0l.05-.11a.76.76,0,0,1,0-.15s0-.41,0-.67l.06-1.69.09-3.42.16-6.84c.07-2.82.15-5.63.22-8.45.13-4.26.26-8.55.39-12.78.07-3.3,0-6.54.06-9.81,0-.72,0-1.43.06-2.16.15-2.69.52-3.54,1.46-4a3.47,3.47,0,0,1,.65-.31c.72-.18,1.2,1,1.23,2.9.18,5.78.13,11.86.05,18-.09,4.55-.31,9.12-.41,13.7Z"/><path class="cls-1" d="M348.75,177.15v7.09c0,.86.09,1.72.09,2.58,0,3-.06,6.06,0,9.09,0,1.34.12,2.68.25,4,.13,1.67.33,3.48.31,5,0,.44-.49.67-1.13.35a3.12,3.12,0,0,1-1-.87,3.27,3.27,0,0,1-.59-1.34c-.14-.88-.27-1.76-.38-2.64s-.11-1.76-.14-2.64c-.05-1.76,0-3.53,0-5.3.11-2.12-.13-4.31-.19-6.46l-.17-7.12c0-1.46-.06-2.92-.12-4.37-.09-2.21-.16-4.43-.37-6.61-.18-1.69-.55-3.32-.85-5a6.51,6.51,0,0,1-.21-1c-.08-1.37,0-1.63.59-2.17.12-.12.24-.25.36-.35a.57.57,0,0,1,.72.07,3,3,0,0,1,.84,1.13c1.37,3,1.5,6.24,1.73,9.44.15,2.38.19,4.77.26,7.16Z"/><path class="cls-1" d="M390.4,100.58l8.27,16.51c1,2,2.12,4,3.11,6q2.64,5.33,5.16,10.73c1.67,3.62,3.35,7.2,4.74,11l.33,1,.15.51.18.71a6,6,0,0,1,.12.72,3.41,3.41,0,0,1,0,.71,2.18,2.18,0,0,1-.15.67,1.2,1.2,0,0,0-.13.33l-.21.28a5.51,5.51,0,0,1-2.05,1.29l-.53.18-.44.12c-.3.09-.58.15-.88.22-1.15.24-2.27.39-3.39.52-2.27.26-4.52.44-6.74.61l-3.28.24a21.28,21.28,0,0,0-3,.39c-.47.13-.61,0-.9-.31s-.35-.87.14-1.57c1-1.4,3.32-2.61,5.93-2.79,2.39-.18,4.73-.27,7-.45,1.13-.1,2.24-.21,3.25-.39a11,11,0,0,0,1.33-.3h.07a.1.1,0,0,0,.05-.06s0,0,0-.1-.12-.46-.2-.71c-.31-1-.68-2-1.07-3-.78-2-1.64-4.06-2.49-6.1-2.13-5.06-4.92-10.07-7.46-15.09L389,105.89l-5.16-10.23c-2.6-5.17-5.14-10.4-7.69-15.55-2-4-4.07-7.88-5.9-12-.41-.9-.82-1.78-1.18-2.72-1.3-3.49-1.23-5-.33-5.9a3,3,0,0,1,.65-.56c.79-.25,1.31.85,2.29,3.19,1.43,3.48,3.21,7.08,5,10.72L382.1,84c2.76,5.51,5.54,11.07,8.38,16.58Z"/><path class="cls-1" d="M348.14,105.94l-8.8,16.2-3.07,6c-1.87,3.48-3.73,7-5.51,10.45-.88,1.75-1.75,3.51-2.56,5.28-.41.88-.8,1.77-1.15,2.65-.18.44-.34.88-.49,1.32l-.16.48-.09.34c0,.2-.08.46.1.6a1.61,1.61,0,0,0,.47.29,2,2,0,0,0,.26.09l.13,0a1.83,1.83,0,0,0,.25.06,15.08,15.08,0,0,0,2.1.35c1.46.16,3,.23,4.48.29,2.22.08,4.47.08,6.77.28a23.93,23.93,0,0,1,3.49.52,9.24,9.24,0,0,1,3.58,1.57,1.75,1.75,0,0,1,.62.91.43.43,0,0,1-.19.52,7.55,7.55,0,0,1-1.59.23,18.71,18.71,0,0,1-5.55.41c-2.6-.28-5.35-.37-8.17-.56-1.41-.1-2.84-.21-4.33-.43a20.45,20.45,0,0,1-2.35-.48l-.42-.13c-.17-.05-.33-.11-.48-.17l-.91-.41a9.31,9.31,0,0,1-.8-.54c-.23-.22-.45-.42-.67-.65l-.16-.25s-.09-.06,0-.15l-.07-.13c-.09-.18-.16-.36-.23-.54a1.62,1.62,0,0,1-.11-.58,2.39,2.39,0,0,1,0-.6,5.84,5.84,0,0,1,.2-1.23,7.53,7.53,0,0,1,.29-1.07c.33-1,.69-1.83,1.07-2.68.76-1.71,1.58-3.33,2.43-4.94,2.62-4.91,5.07-10.1,7.7-15.09L343,107.78q2.7-5,5.39-10.07c2.67-5.11,5.39-10.23,7.82-15.39,1.89-4,3.5-8.08,5-12.15.33-.9.6-1.79.92-2.69,1.14-3.35,1.48-4.21,2.57-4.8.23-.14.47-.35.7-.46.39-.19.76.12.95.91a7.74,7.74,0,0,1-.17,3.31,73.48,73.48,0,0,1-4.05,11.66c-1.62,3.8-3.43,7.57-5.28,11.32-2.76,5.56-5.69,11.06-8.58,16.55Z"/><path class="cls-1" d="M108.81,421.62s-16.44,3.18-19.25,9.68c-4.68,10.79,39.4,16.39,50,12.87,0,0-12.38-2.08-22.59-8.59C112.58,432.78,108.92,425.92,108.81,421.62Z"/></g></svg>