<svg id="Layer_1" data-name="Layer 1" xmlns="http://www.w3.org/2000/svg" width="520" height="520" viewBox="0 0 520 520"><defs><style>.cls-1{fill:#221f1f;}.cls-2{fill:#232020;}</style></defs><title>Notioly v2</title><g id="_11.Wine_tasting" data-name="11.Wine tasting"><path class="cls-1" d="M273.72,396a13.46,13.46,0,0,1-1.61.48,15.33,15.33,0,0,1-1.6.36c-.4.07-.76.24-1.16.27a31.69,31.69,0,0,1-4.12.11,15.48,15.48,0,0,0-1.8.07,4.06,4.06,0,0,1-2.31-.15c-.26-.12-.1-.87.16-1.58s.63-1.4,1-1.4a27,27,0,0,1,4.23.34,8.79,8.79,0,0,0,2.6-.28l1.41-.27,1.39-.37a15.53,15.53,0,0,0,1.64-.65c.39-.21.8-.39,1.19-.62s.72-.52,1.06-.8a4.1,4.1,0,0,0,.63-.81,6.83,6.83,0,0,0,.51-.87,2.87,2.87,0,0,1,.18-.4c.28-.46.54-.47,1.27-.14l.5.23a1.08,1.08,0,0,1,.66,1.26,8.78,8.78,0,0,1-.42,1.07,5.28,5.28,0,0,1-.66,1,8.16,8.16,0,0,1-.79.87c-.29.25-.6.5-.91.74a9.5,9.5,0,0,1-1.48.91,11,11,0,0,1-1.56.73Z"/><path class="cls-1" d="M255.43,295.05c-.37-.84-.77-1.68-1.2-2.5-.16-.29-.38-.55-.54-.85-.55-1.06-1.08-2.14-1.69-3.17a7.51,7.51,0,0,0-1-1.25c-.46-.5-1.05-.89-1.23-1.6-.12-.44,2.39-1.87,2.94-1.23a11.83,11.83,0,0,1,2.22,3.72,14.36,14.36,0,0,0,1.35,2.26c.48.85.91,1.71,1.35,2.58l.78,1.61c.4.81.74,1.65,1.17,2.43.34.61.81,1.15,1.21,1.74.08.13.19.25.26.39.26.51.15.76-.54,1.15a5.22,5.22,0,0,1-.47.26,1.26,1.26,0,0,1-1.41-.06,11,11,0,0,1-2-3c-.42-.8-.8-1.64-1.23-2.45Z"/><path class="cls-2" d="M439.13,431.94l0,0-.16-.08a16,16,0,0,0-4.27-1.41,23.33,23.33,0,0,0-8.55,0,16,16,0,0,0-4.27,1.41l-.15.08h0c-.12.08-.21.14-.21.12l.21.12,0,0,.16.08a6.36,6.36,0,0,0,.7.33,20.26,20.26,0,0,0,8.19,1.48,22,22,0,0,0,4.1-.43,15.74,15.74,0,0,0,4.1-1.38l.15-.08,0,0,.21-.12S439.25,432,439.13,431.94Z"/><path class="cls-1" d="M202.24,146.05c-.16-.25.16-.42.77-.62a1.64,1.64,0,0,1,.86,0,2.42,2.42,0,0,1,.42.51,9.7,9.7,0,0,1,.13,2.36,4.54,4.54,0,0,1-.48,1.72,6.56,6.56,0,0,1-1.1,1.66,5.45,5.45,0,0,1-1.76,1.26,2.69,2.69,0,0,1-.92.22,15.75,15.75,0,0,1-2.9-.14.85.85,0,0,0-.45,0,3.62,3.62,0,0,1-1.38-.31,5.67,5.67,0,0,1-1.29-.6c-.57-.46-1.12-.9-1.63-1.37-.07-.07-.18-.1-.2-.23,0-.32-.24-.39-.41-.52a4.47,4.47,0,0,1-.62-.61,1.32,1.32,0,0,1-.18-.47c0-.16.22-.42.28-.43s.19-.22.27-.35a.48.48,0,0,1,.09-.14,10.31,10.31,0,0,1,1.85.35,16,16,0,0,0,2.28.94.9.9,0,0,1,.31.21,6.43,6.43,0,0,0,.85.21c.41.09.79.09.81.11.3.08.58,0,.84.24,0,.05.1,0,.16,0a4.67,4.67,0,0,0,1.19-.22,1.68,1.68,0,0,0,.46-.39s.08,0,.11-.05a.48.48,0,0,0,.14-.09,3.63,3.63,0,0,0,.73-1.69,6.2,6.2,0,0,0,.41-1C201.87,146.48,202.3,146.16,202.24,146.05Z"/><path class="cls-1" d="M218.46,143c-.19-.21.11-.41.69-.65a1.79,1.79,0,0,1,.86-.09,2.65,2.65,0,0,1,.47.37,10.22,10.22,0,0,1,.52,1.95,4.09,4.09,0,0,1,0,1.48,7.19,7.19,0,0,1-.42,1.62,4.28,4.28,0,0,1-1.18,1.74,2.38,2.38,0,0,1-1,.5,5.81,5.81,0,0,1-3-.18.83.83,0,0,0-.42-.07,3.25,3.25,0,0,1-1.2-.47,5.16,5.16,0,0,1-1-.73c-.41-.51-.83-1-1.19-1.46-.05-.07-.14-.11-.13-.24,0-.3-.14-.38-.26-.52a3.07,3.07,0,0,1-.45-.62,1.11,1.11,0,0,1-.07-.46c0-.15.29-.38.35-.38s.21-.2.31-.32l.11-.11a8.16,8.16,0,0,1,1.62.47,13.55,13.55,0,0,0,1.84,1.11c.11,0,.17.16.24.24a4.63,4.63,0,0,0,.68.28,4.72,4.72,0,0,0,.64.17c.21.11.4,0,.51.27,0,.05.07.05.09,0,.19-.07.16,0,.37-.08a1.22,1.22,0,0,0,.21-.4s0-.06.08-.08a.54.54,0,0,0,.09-.12,4.47,4.47,0,0,0,.22-1.72c0-.14.26-.84.2-1S218.54,143.06,218.46,143Z"/><path class="cls-1" d="M162.08,128.44c-12.66,12.32,0,34.85-2.74,32.36-20.89-18.7-27.61,10.37-13.88,14.47-22.83-6.82-36.23-26.38-34.65-46.08,1.58-31.58,30.53-27.79,30.53-27.79,30.11-45.16,73-17.92,85.22-1.21,7.14,9.76,20.6,7,20.81,5.44C241.69,148.5,188.88,102.35,162.08,128.44Z"/><path class="cls-1" d="M195.59,81a46.21,46.21,0,0,0-14.8-2.37,39.49,39.49,0,0,0-14.59,3,45.69,45.69,0,0,0-12.63,8.13,63.36,63.36,0,0,0-10,11.5l-1.42,2c-.77-.09-1.67-.18-2.23-.21l-1.26,0c-.85,0-1.7,0-2.55.1a30.28,30.28,0,0,0-5,.79A24.71,24.71,0,0,0,122,108c-5.07,3.73-8,9.78-9.09,16.13l-.36,2.4-.21,2.46c-.06.81-.07,1.63-.11,2.44a17.92,17.92,0,0,0,0,2.43l.13,2.43c.1.8.23,1.6.34,2.41l.18,1.2.28,1.19.58,2.36a42.85,42.85,0,0,0,9.61,16.84c.56.6,1.11,1.21,1.68,1.79l1.82,1.65.91.83,1,.75,1.95,1.5c.66.48,1.37.9,2.05,1.36s1.36.93,2.1,1.29l1.83,1a9.62,9.62,0,0,0,1.07.52l1.23.55,2,.71a4.61,4.61,0,0,1-2.3-1.57,5.2,5.2,0,0,1-.45-.7,3.83,3.83,0,0,1-.27-.58l-.12-.31a2.09,2.09,0,0,1-.09-.29l-.09-.35a9.45,9.45,0,0,1-.31-1.4,9.64,9.64,0,0,1-.16-1.42A13.72,13.72,0,0,1,138,160a10.61,10.61,0,0,1,3.37-4.73,9,9,0,0,1,5.58-1.82,14.7,14.7,0,0,1,5.8,1.37,28.17,28.17,0,0,1,2.54,1.38l.37.23.25.16.47.34a7.87,7.87,0,0,1,.71.55l.34.28c0,.05.16.09.14,0a.93.93,0,0,0,0-.23c-.17-.6-.37-1.17-.54-1.73l-.12-.42-.26-1c-.19-.71-.37-1.43-.53-2.16-.32-1.45-.57-2.92-.75-4.4a30.4,30.4,0,0,1,.15-9,20,20,0,0,1,3.53-8.43c1.54-2,2.58-2.52,2.72-2.26s-.44,1.38-1.25,3.19a24,24,0,0,0-2,7.58,39.65,39.65,0,0,0,.73,11.08c.21,1.15.47,2.29.76,3.43l.23.86.46,1.62c.34,1.17.73,2.38,1.05,3.53a3.66,3.66,0,0,1,.08,2.43,2.85,2.85,0,0,1-.32.58,2.43,2.43,0,0,1-.46.4,2.07,2.07,0,0,1-.29.18l-.31,0-.64.05-.64.06H159l-.36-.22-.72-.44c-1.12-.88-2.24-1.85-3.35-2.65a7.7,7.7,0,0,0-.85-.55l-.41-.26a6.92,6.92,0,0,0-.78-.46,15,15,0,0,0-3.2-1.35,6.56,6.56,0,0,0-5.78.63,8.05,8.05,0,0,0-2.94,5.33,11.54,11.54,0,0,0,0,3.32,7.43,7.43,0,0,0,.16.82l.1.4.06.2a.75.75,0,0,0,.1.28l.89,1.84.06.11s0,.07.13.15l.54.4,1.08.81,2.15,1.61c-.19.69-.39,1.38-.58,2.07a4.16,4.16,0,0,0-.14.59s0,.11,0,.11l0,0a3.42,3.42,0,0,0,.31-.54c-.28.63-.57,1.25-.89,1.85l-6.83-2.63a19.41,19.41,0,0,1-1.8-.85l-1.48-.79c-.66-.36-1.33-.7-2-1.09-1.26-.84-2.55-1.62-3.77-2.5l-1.79-1.39a19.72,19.72,0,0,1-1.74-1.43,48.13,48.13,0,0,1-11.13-14.18,44.41,44.41,0,0,1-4.43-14c-.08-.61-.2-1.22-.25-1.84l-.11-1.85c0-.62-.08-1.24-.09-1.86l.07-1.85a55.62,55.62,0,0,1,.68-7.38,38.93,38.93,0,0,1,2-7.25,27.2,27.2,0,0,1,3.83-6.59,25.36,25.36,0,0,1,12.54-8.38,34.8,34.8,0,0,1,9.8-1.48l1.66,0,.56,0,.29,0c.06-.06.11-.15.16-.21l.27-.38L142,98c.61-.87,1.24-1.74,1.94-2.56L146,93l2.19-2.37a54,54,0,0,1,9.93-8.27A44.36,44.36,0,0,1,169.94,77a42.43,42.43,0,0,1,12.87-1.52c1.67,0,3.32.24,5,.41s3.28.55,4.88,1a55,55,0,0,1,9.39,3.2,68.42,68.42,0,0,1,16.7,10.47,58.19,58.19,0,0,1,6.39,6.27c.48.57,1,1.13,1.43,1.74l1.34,1.73a15.68,15.68,0,0,0,3,2.83,17.19,17.19,0,0,0,7.67,3,19.4,19.4,0,0,0,4.17.12l1-.11.66-.12.78-.21c.08,0,.12,0,.16,0l.12.11.25.22a2.51,2.51,0,0,0,.55,0,3.64,3.64,0,0,0,.88-.22c.12-.06.23-.14.2-.25l.79,1.19-.35,1.86a15.66,15.66,0,0,1-.37,1.67c-.21.9-.5,1.77-.78,2.64a22.19,22.19,0,0,1-2.44,5,16.47,16.47,0,0,1-3.82,4.08,16.92,16.92,0,0,1-5,2.55,32.54,32.54,0,0,1-11.56,1.16,110.25,110.25,0,0,1-11.28-1.32c-7.42-1.17-14.73-2.6-22.09-3a56.94,56.94,0,0,0-9.6.2,35.49,35.49,0,0,0-12,3.37c-2.45,1.19-3.83,2-5.12,2.5a18.31,18.31,0,0,1-1.68.73c-.33.09-.38-.09-.14-.5a9.36,9.36,0,0,1,1.57-1.9,24.5,24.5,0,0,1,9.13-5.53c6.67-2.35,13.88-2.47,20.81-1.87s13.84,2,20.67,3a94,94,0,0,0,10.2,1.17,29.46,29.46,0,0,0,9.73-.88,13.24,13.24,0,0,0,7.31-5.18,18.22,18.22,0,0,0,2.15-4.22c.28-.76.53-1.54.74-2.34l.21-.84h0l-.27,0-.53.07a21.77,21.77,0,0,1-4.19.08,21.23,21.23,0,0,1-8.05-2.21,18.55,18.55,0,0,1-6.47-5.46,49.34,49.34,0,0,0-4.74-5.46A63.82,63.82,0,0,0,195.59,81Z"/><path class="cls-1" d="M228.46,161.79a7.4,7.4,0,0,1,.77,2.85,4.11,4.11,0,0,1-.34,1.82,3.73,3.73,0,0,1-1.15,1.47,5.54,5.54,0,0,1-2,1,7.07,7.07,0,0,1-3.55-.08,15.09,15.09,0,0,1-2.92-1.18c-.79-.4-1.59-.76-2.37-1.08a11.42,11.42,0,0,1-2.89-1.35c-.27-.21,0-.91.57-1.48s1.35-1,2-.77c2.16.92,4,2.11,5.69,3a3.58,3.58,0,0,0,1.6.36,4.48,4.48,0,0,0,1.49-.33,1.52,1.52,0,0,0,.94-.69,2.08,2.08,0,0,0-.05-1.43,9.13,9.13,0,0,0-1.13-2.22,18.32,18.32,0,0,0-2.63-3.09,16.88,16.88,0,0,0-2.58-1.81c-.19-.13-.4-.22-.59-.35-.69-.47-.78-.76-.49-1.52.07-.17.12-.35.19-.51a1.1,1.1,0,0,1,1.53-.49,15,15,0,0,1,5.06,3.73,18.57,18.57,0,0,1,2.95,4.08Z"/><path class="cls-1" d="M218.1,342.64A267.37,267.37,0,0,1,184,359.31a157.18,157.18,0,0,1-18.09,6,77.28,77.28,0,0,1-19,2.75,31.9,31.9,0,0,1-14.12-2.85,19.22,19.22,0,0,1-5.95-4.51,20.21,20.21,0,0,1-3.77-6.41,25.68,25.68,0,0,1-1-3.09c-.2-1-.45-2.11-.57-3.12q-.45-3-.69-6.12a102.91,102.91,0,0,1-.26-12.29,129.38,129.38,0,0,1,3.33-24.26A189.25,189.25,0,0,1,141.37,260c3.39-6.36,7.07-12.59,11-18.61a166.72,166.72,0,0,1,12.91-17.32c1.36-1.56,2.76-3.08,4.28-4.54a26.76,26.76,0,0,1,2.46-2.09c.66-.49,2.68-1.9,4-.79l2.39,1.61,2.23,1.4c1.49.9,3,1.78,4.55,2.59a54.55,54.55,0,0,0,9.58,4,28.32,28.32,0,0,0,10,1.39,13.91,13.91,0,0,0,4.73-1.09,7.4,7.4,0,0,0,3.46-2.86,4.36,4.36,0,0,0,.66-2.26c0-.49,0-.75.19-.8s.49.17.77.81a4.12,4.12,0,0,1,0,3,8.11,8.11,0,0,1-3,3.76,14.07,14.07,0,0,1-5.73,2.34c-4.48.87-9.78.06-14.92-1.84a63.45,63.45,0,0,1-8.67-4.06c-1.38-.78-2.76-1.56-4.08-2.43-.67-.42-1.35-.83-2-1.28l-1.6-1.09h0a4.56,4.56,0,0,0-.44.29,18.31,18.31,0,0,0-2,1.67c-1.35,1.24-2.65,2.63-3.92,4-2.53,2.84-4.91,5.86-7.22,8.94a211.35,211.35,0,0,0-12.72,19.34,204.34,204.34,0,0,0-18.92,42.41,127.19,127.19,0,0,0-5.78,33.3,98.22,98.22,0,0,0,.91,17.05,25.55,25.55,0,0,0,2.17,7.87,16.38,16.38,0,0,0,5,6.09,20.51,20.51,0,0,0,8.09,3.43,38.84,38.84,0,0,0,9.1.64,82.55,82.55,0,0,0,18.35-3.18,199,199,0,0,0,34.95-14.09,291.52,291.52,0,0,0,39.74-24.18c3.79-2.78,7.51-5.67,11-8.76,1.77-1.53,3.48-3.13,5.09-4.81.41-.41.79-.85,1.19-1.27l.22-.25.17-.2c.09-.13.25-.25.3-.39l-1.19-2.68c-1.94-4.29-4-8.54-6.15-12.69-1.09-2.08-2.21-4.13-3.43-6.11-.59-1-1.24-1.95-1.88-2.9l-.95-1.25c-.22-.25-.44-.52-.67-.74L240.46,285l-5.83,3.91c-7.59,5.05-15.17,10-22.84,14.69s-15.42,9.29-23.45,13.45c-3.55,1.83-7.05,3.57-10.78,5.15-6.9,2.91-11.85,4.2-15.58,4.19a8.39,8.39,0,0,1-4.56-1.1,4,4,0,0,1-1.9-2.64,4.41,4.41,0,0,1,0-2.22c.13-.36.3-.24.5.23a2.34,2.34,0,0,1,.16.41l.25.5a2.49,2.49,0,0,0,.33.56,2.64,2.64,0,0,0,.46.55,5.22,5.22,0,0,0,3.91,1.09,26.33,26.33,0,0,0,6.64-1.26,81.59,81.59,0,0,0,9.9-3.81c3.27-1.48,6.51-3.1,9.74-4.79,6.45-3.39,12.84-7.07,19.21-10.91s12.71-7.84,19-11.94c3.15-2.06,6.31-4.14,9.45-6.24l4.71-3.18,2.34-1.6,3.93-2.74,1.79,2c.29.34.63.66.86,1l.5.66c.62.78,1.11,1.57,1.64,2.35,1,1.59,2,3.2,2.88,4.81,3.11,5.64,5.85,11.39,8.47,17.22l.7,1.59.47,1.09.12.27.06.14s0,.07-.07.11l-.37.44-1.46,1.72-.84.92q-1.69,1.81-3.48,3.46c-2.38,2.22-4.84,4.29-7.35,6.3a269.48,269.48,0,0,1-31.85,21.37Z"/><path class="cls-1" d="M267.59,290.81a23,23,0,0,0-2.1-5.89c-.33-.69-.83-1.29-1.21-2a33.27,33.27,0,0,0-2.39-3.33c-.44-.52-.9-1-1.38-1.53l-.63-.63a1.44,1.44,0,0,0-.37-.33,11.35,11.35,0,0,0-2.66,1.47,35.91,35.91,0,0,1-3.91,2.73c-.9.47-1.7-2.56-.11-3.75a26.79,26.79,0,0,1,4.49-2.75l.32-.14.55-.23c.37-.15.73-.3,1.1-.42l.55-.19.14,0s.08.06.12.08l.23.19c.31.24.62.49.91.75a10.3,10.3,0,0,1,1.2,1.18c.29.34.59.66.86,1a52.79,52.79,0,0,1,3.88,5.11A27.33,27.33,0,0,1,270,288.6c.17.7.39,1.39.51,2.1s.27,1.42.35,2.14l.18,2c0,.19.05.39,0,.56l-.48.33-.94.64c-.87.59-1.73,1.18-2.57,1.8-1.3,1-2.48,2-3.71,3.07-.27.23-.52.48-.8.69-1,.8-1.5.88-2.19.41-.15-.11-.32-.21-.46-.33-.45-.42-.3-1.14.38-1.84a49.15,49.15,0,0,1,6.92-5.64l.69-.49.06,0h0s0,0,0-.07a11.18,11.18,0,0,0-.2-1.54c-.1-.51-.16-1-.3-1.53Z"/><path class="cls-1" d="M298,257.47a29.79,29.79,0,0,1-7,7.8l-.51.41-.44.34a1.62,1.62,0,0,1-.51.21l-.73.23a6.56,6.56,0,0,1-.67.17,9.49,9.49,0,0,1-2.93.31,5.2,5.2,0,0,1-3.23-1.3,5.35,5.35,0,0,1-1.54-3,11.49,11.49,0,0,1,.14-4.16,15.25,15.25,0,0,1,1.25-3.76,10.74,10.74,0,0,1,.84-1.44,7.27,7.27,0,0,1,.59-.73c.12-.12.28-.26.44-.4l.52-.32a9.82,9.82,0,0,0,3.64-2.72,2.65,2.65,0,0,0,.47-.84,2.46,2.46,0,0,0,.1-.47,2.18,2.18,0,0,0,0-.25v-.2h-.05a4.7,4.7,0,0,0-.91.35l-.54.26-1.2.63-2.39,1.29-2.27,1.28a.38.38,0,0,0-.19.16l-.07.11-.12.21c-1.75,3.2-3.34,6.69-5.05,10-1.09,2.14-2.19,4.29-3.46,6.38a21.74,21.74,0,0,1-4.71,5.83c-.66.51-1.16.51-1.26.25s0-.77.2-1.44A24.74,24.74,0,0,1,269,267c1.74-2.77,3.32-5.73,4.88-8.7l2.33-4.51,1.18-2.28.65-1.17c.13-.22.18-.34.45-.75a3.76,3.76,0,0,1,.85-.84l2.13-1.17,2-1.06,2-1,1.65-.82c.29-.15.58-.27.87-.4a4.92,4.92,0,0,1,.84-.32l.66-.19.59-.1,1.19-.2a8.37,8.37,0,0,1,.31,3.42,8.56,8.56,0,0,1-1.5,3.77,12.55,12.55,0,0,1-4.57,3.64.8.8,0,0,0-.19.16,2.8,2.8,0,0,0-.3.39,6.77,6.77,0,0,0-.59,1,13,13,0,0,0-.88,2.38,8.5,8.5,0,0,0-.26,4.2,2,2,0,0,0,.83,1.26,2.9,2.9,0,0,0,1.67.37,8.29,8.29,0,0,0,2.13-.37l.51-.15a.47.47,0,0,0,.22-.12c.3-.23.62-.5.92-.75a33.93,33.93,0,0,0,3.43-3.35,20.09,20.09,0,0,0,2.47-3.41L296,255l.35-.94.21-.93.05-.76-.61-1.3-.68-1.53-.72-1.71-.34-.87-.43-1.14a21.23,21.23,0,0,1-1.22-4.66,7.75,7.75,0,0,1,0-1.79,3,3,0,0,1,.52-1.55,1.48,1.48,0,0,1,.82-.51c.4-.13.47.1.67.2l1.08.8a30.35,30.35,0,0,1,2.75,4.06c1.2,2.06,1.75,3.12,2.47,4.49l1,2,.94,1.91a.24.24,0,0,0,.06.08l.07.08a4.07,4.07,0,0,1,.49.75,4.4,4.4,0,0,1,.3.72,5.68,5.68,0,0,1,.29,1.43,9.55,9.55,0,0,1-.16,2.74,13.87,13.87,0,0,1-.41,1.63,12.2,12.2,0,0,1-.56,1.57,20.37,20.37,0,0,1-1.15,2.3,16.53,16.53,0,0,1-1,1.41,3.11,3.11,0,0,1-1.68,1.13,3.38,3.38,0,0,1-.75.16c-.35,0-.41-.44-.21-1.13a8.11,8.11,0,0,1,.49-1.25c.2-.49.45-1.05.76-1.65a21.25,21.25,0,0,0,1.57-4.44,7,7,0,0,0,.17-2.1,3.64,3.64,0,0,0-.16-.87,1.42,1.42,0,0,0-.14-.33.5.5,0,0,0-.07-.13l0-.05,0,0-.26-.34-.26-.34-.73-1.53-.69-1.39q-.68-1.39-1.41-2.76c-.22-.43-.59-1.1-.49-.9h0s0,0,0,0,0,0,0,0l.2.52.71,1.72.75,1.71.39.85.62,1.27,0,1.09c0,.25,0,.51-.06.75-.1.47-.18,1-.31,1.41s-.31.87-.48,1.29l-.59,1.19Z"/><path class="cls-1" d="M320.41,253.62l.48-.27c.12-.06.07,0,.1,0h0l.13,0a1.32,1.32,0,0,0,.33-.15,1,1,0,0,0,.32-.32c0-.06.08-.17.05-.21l-.15-.05a1.14,1.14,0,0,0-.28,0,1.53,1.53,0,0,0-.4.09l-.21.06-.11,0-.38.13a57.8,57.8,0,0,0-10.94,5.08,53.06,53.06,0,0,0-4.54,3,60.94,60.94,0,0,1-5.66,4c-1.25.72-1.55-2.66.66-4.3a68.59,68.59,0,0,1,12.48-7.44l4.07-1.87c.69-.31,1.39-.61,2.11-.89l1.09-.4c.13-.05.48-.15.76-.23l.87-.24a14.11,14.11,0,0,1,2.71-.42,6.63,6.63,0,0,1,1.18,0c.37,0,.75,0,1.14.07l.42.41a2.08,2.08,0,0,1,.21.21,2.35,2.35,0,0,1,.13.43,3,3,0,0,1-.19,1.67,6.25,6.25,0,0,1-2.44,2.78c-.63.4-1.28.78-2,1.13-.42.21-.83.48-1.25.72-.82.51-1.65,1.05-2.46,1.6-2.46,1.68-4.92,3.43-7.22,5.31-1.8,1.46-3.42,3.05-5,4.64-.36.35-.67.72-1,1.06a7.77,7.77,0,0,1-1.45,1.23,1.59,1.59,0,0,1-.54.16,2.88,2.88,0,0,1-.55-.06c-.2,0-.42,0-.61,0s-.52-.27-.44-.8a2.89,2.89,0,0,1,.27-.78,4.29,4.29,0,0,1,.55-.86,56,56,0,0,1,9.57-8.79,93.68,93.68,0,0,1,8.14-5.64Z"/><path class="cls-1" d="M306.8,276.38c2.14-.72,4.26-1.47,6.32-2.31,1-.43,2-.86,3-1.36a12.74,12.74,0,0,0,2.54-1.6,1.68,1.68,0,0,0,.3-.3l.14-.15s0-.07,0-.1l.06-.08h0l1.18.4h0l.06,0h.05a.48.48,0,0,0-.16.17,1.76,1.76,0,0,0-.23.51,2.47,2.47,0,0,0-.11.36l-.05.18h-.13a15.5,15.5,0,0,0-2.2.07l-1.61.13-.81.08-1.3.16-2.78.38-1.36.18a4.65,4.65,0,0,1-1.14,0,2.85,2.85,0,0,1-1.31-.31l-.36-.21-.17-.09s-.07,0-.09-.08l0-.1a6.09,6.09,0,0,1,.4-.92l.29-.56c.23-.24.55-.52.81-.78l5-4c2-1.62,4-3.34,5.83-5.1a47.45,47.45,0,0,0,3.35-3.49c.26-.3.46-.59.66-.86s.1-.2.18-.3.09-.28.12-.39l0-.16s0-.07,0-.1.19-.08.18-.1a.59.59,0,0,0-.1.11s0,0,0,0a.79.79,0,0,0-.28-.1c-.33-.06-.54-.22-.57-.52a1.13,1.13,0,0,1,.63-1.07,1.67,1.67,0,0,1,1.21-.26,1.9,1.9,0,0,1,.94.44,2.39,2.39,0,0,1,.42.47,3.66,3.66,0,0,1,.28.56,4.06,4.06,0,0,1,.12,2.05,5.13,5.13,0,0,1-.42,1.08c-.15.25-.31.5-.49.75a30.53,30.53,0,0,1-3.26,3.41c-1.11,1-2.24,2-3.38,3s-2.29,1.89-3.46,2.81l-.44.35-.22.17-.07.05-.14.05-.4.21-.79.47c-.3.62.9-.16,6.29-.36a6.09,6.09,0,0,1,1.11.11,2.55,2.55,0,0,1,.42.12,1.7,1.7,0,0,1,.74.52,1.55,1.55,0,0,1,.33.83,1.34,1.34,0,0,1,0,.41,1.21,1.21,0,0,1,0,.18l0,.06-.15.31a4,4,0,0,1-.33.58l-.37.43a5.11,5.11,0,0,1-.77.72,17.61,17.61,0,0,1-3.17,2,66.94,66.94,0,0,1-6.49,2.7c-2.68,1-5.38,1.86-8.07,2.73-4.09,1.33-8.21,2.55-12.23,3.93-3.12,1.07-6.12,2.29-9.08,3.58-.65.28-1.26.6-1.92.88-2.38,1.09-3.11,1.31-4,.94a4.3,4.3,0,0,1-.61-.25c-.58-.33.13-1.48,1.93-2.51a59.41,59.41,0,0,1,8.32-3.78c2.87-1.08,5.81-2.06,8.75-3,4.36-1.43,8.76-2.78,13.06-4.29Z"/><path class="cls-1" d="M204.21,212.32a31.56,31.56,0,0,1-10.24-.7,30.63,30.63,0,0,1-9.4-4.06,40.21,40.21,0,0,1-5.82-4.54,74.28,74.28,0,0,1-8.25-9.73c-2.49-3.39-4.79-6.88-7.43-10a18.4,18.4,0,0,0-3.87-3.54c-.36-.21-.73-.4-1.1-.58a7.85,7.85,0,0,0-1.13-.37l-.51-.09a.29.29,0,0,0-.16,0l-.07,0-.18,0-1.44.25a15.42,15.42,0,0,1-7.53-.79,12.51,12.51,0,0,1-6-4.7c-.44-.67-.44-1.13-.18-1.25a2.41,2.41,0,0,1,1.43.27c1.32.52,3.19,1.46,5.25,2.4a12.38,12.38,0,0,0,6.06,1,11,11,0,0,0,1.6-.18l.4-.07.46-.07c.15,0,.29-.08.44,0,.6.11.91.17,1.31.26a11.19,11.19,0,0,1,3.87,2,30.5,30.5,0,0,1,5.26,5.64c1.49,2,2.85,4,4.22,6a63.42,63.42,0,0,0,11.49,13.11,31.1,31.1,0,0,0,8,4.91,26.48,26.48,0,0,0,9.14,2c1,.05,2,0,2.92,0s1.95-.16,2.91-.3a18.88,18.88,0,0,0,5.49-1.61,16.29,16.29,0,0,0,6.49-5.59A25,25,0,0,0,221.1,194a55.35,55.35,0,0,0,1.28-13.65c0-1,0-2-.06-3-.08-3.79,0-5,.8-5.85a3.16,3.16,0,0,1,.52-.56c.58-.4,1.16,1.14,1.4,4a73.18,73.18,0,0,1,0,13,37.4,37.4,0,0,1-3.52,13.3,20.15,20.15,0,0,1-7.14,8,22.13,22.13,0,0,1-10.15,3.19Z"/><path class="cls-1" d="M212.58,208.56c-3,17.92-34.14,6.86-28.34-3.14C197.8,215.51,210.59,209.71,212.58,208.56Z"/><path class="cls-1" d="M185.78,208.48l-.27-.23-.16-.12s-.11-.11-.11-.06a.49.49,0,0,0-.15.33,2.8,2.8,0,0,0,.14.72,4.89,4.89,0,0,0,.4,1,8.5,8.5,0,0,0,1.42,1.81A13.88,13.88,0,0,0,190,214a21.25,21.25,0,0,0,6.08,2.45,18.64,18.64,0,0,0,6.56.49,10.56,10.56,0,0,0,5.25-2,9.69,9.69,0,0,0,2.28-2.67,15.69,15.69,0,0,0,.75-1.61l.35-.83c.08-.3.18-.59.28-.88.25-.71.92-.55,1.42.28a4.17,4.17,0,0,1,0,4,11.65,11.65,0,0,1-7.14,5.77,17.64,17.64,0,0,1-8.74.21,26.51,26.51,0,0,1-9.71-3.78,12.1,12.1,0,0,1-4.08-4.37,6.24,6.24,0,0,1-.58-1.49,5,5,0,0,1-.15-.85,3.08,3.08,0,0,1,0-1c.05-.34.07-.69.14-1l.32-.9a7.06,7.06,0,0,1,.39-.89l.21-.44.11-.22,0-.1.1.06,2,1.22,1,.6.47.3.36.21a27.36,27.36,0,0,0,2.87,1.54,24.21,24.21,0,0,0,9.5,2.37,23.28,23.28,0,0,0,7.4-1.09c.52-.16,1-.37,1.53-.54,1.91-.69,2.5-.85,3.22-.41a3.88,3.88,0,0,1,.5.29c.48.35-.12,1.27-1.61,2a24.26,24.26,0,0,1-15,1.95c-.95-.22-1.91-.39-2.84-.69a26.25,26.25,0,0,1-2.74-1,24.31,24.31,0,0,1-2.63-1.24l-1.26-.71-.63-.36-.08,0h0l0,0-.06-.05Z"/><path class="cls-1" d="M223.9,247.32c-1.25,14.59-11.74-.6-13.22,1.35-2.62,3.45-5.75,1.71-6,2.35-2,5.88-7,19.93-16.33,6-3.05-4.57-4.45-16.21.15-20.23,4.81-4.2,12.15,3.16,14.63,7.35,1,1.78,1.76-3.49,6.32-1.39.77.36,3.74-10.67,8-9.19S224.26,243.19,223.9,247.32Z"/><path class="cls-1" d="M192.77,237.63a3.21,3.21,0,0,0-2.92.52,6.26,6.26,0,0,0-1.91,3.17,20.26,20.26,0,0,0-.27,8.86,17,17,0,0,0,2.17,6,17.67,17.67,0,0,0,3.69,4.32,4.46,4.46,0,0,0,2.1,1,2.85,2.85,0,0,0,2-.54,11.81,11.81,0,0,0,3.43-4.34c.46-.89.89-1.81,1.28-2.75l.58-1.42.32-.87a4.83,4.83,0,0,1,.47-1.05c.11-.14.16-.34.32-.43s.31-.21.47-.26a3.55,3.55,0,0,1,1.14-.08,8.5,8.5,0,0,0,1,0,4.19,4.19,0,0,0,.63-.07,3.31,3.31,0,0,0,1.13-.43,4.2,4.2,0,0,0,.51-.35c.08-.06.15-.15.23-.22a3.38,3.38,0,0,0,.41-.43c.44-.34.78-.87,1.38-.9a3,3,0,0,1,1.62.47c.26.14.5.31.74.47s.36.26.55.39l1,.73a33.36,33.36,0,0,0,2.81,2,5.85,5.85,0,0,0,2.63,1,1.15,1.15,0,0,0,.81-.26,2.8,2.8,0,0,0,.69-.93,13.39,13.39,0,0,0,.93-3c.26-1.36,1.07-1.17,1.73.2a6.2,6.2,0,0,1,.49,3,5.53,5.53,0,0,1-.64,2.2,4.82,4.82,0,0,1-.94,1.22,4.08,4.08,0,0,1-1.61.92,5.37,5.37,0,0,1-2.69.06,8.59,8.59,0,0,1-2-.73,19,19,0,0,1-3-1.93l-2.49-1.94c-.15-.11-.07-.07-.1-.09s0,0,0,0h0v0l-.12.11a5.89,5.89,0,0,1-.55.44,6.49,6.49,0,0,1-1.25.73,6.89,6.89,0,0,1-2.79.61h-.41s-.07,0-.08,0l0,.06,0,0-.08.21-.19.48a28.64,28.64,0,0,1-4.23,7.62,13.22,13.22,0,0,1-1.86,1.79,7.1,7.1,0,0,1-2.6,1.22,5.89,5.89,0,0,1-3-.13,8.81,8.81,0,0,1-2.42-1.26,16.72,16.72,0,0,1-3.43-3.51A23.26,23.26,0,0,1,187,257.5a14,14,0,0,1-1.1-2.24A26.38,26.38,0,0,1,184.22,245a17.81,17.81,0,0,1,.93-5.2,8.68,8.68,0,0,1,3.33-4.54l.39-.26.43-.18a5.45,5.45,0,0,1,2.73-.51,7.71,7.71,0,0,1,1.76.28,11.62,11.62,0,0,1,1.59.61,19,19,0,0,1,5.13,3.83c.54.56,1.06,1.14,1.55,1.73l.72.92.43.62.25.41c.08.12.17.31.35.27s.45-.42.7-.62l.2-.17.41-.29a4.5,4.5,0,0,1,1-.49,4.31,4.31,0,0,1,2.19-.11,4,4,0,0,1,.46.13c.15,0,.34.22.44,0a6,6,0,0,0,.46-.88c.49-1,1-2.11,1.52-3.15a18.17,18.17,0,0,1,2-3.16,6.64,6.64,0,0,1,1.52-1.4,3.67,3.67,0,0,1,2.35-.6,3.45,3.45,0,0,1,1.15.32,4.26,4.26,0,0,1,.95.49,4.76,4.76,0,0,1,.84.61,6.82,6.82,0,0,1,.73.68,14.12,14.12,0,0,1,2.22,3.12,19.4,19.4,0,0,1,1.34,3,12.28,12.28,0,0,1,.81,4.26,2.7,2.7,0,0,1-.73,2,2.85,2.85,0,0,1-.61.53c-.71.25-1-1.15-1.73-3.65a21.8,21.8,0,0,0-2.32-5.29,10.66,10.66,0,0,0-1.68-2.06c-.15-.11-.3-.26-.45-.36l-.44-.27a3.7,3.7,0,0,1-.4-.16h-.1a1.19,1.19,0,0,0-.36.2,4.05,4.05,0,0,0-.75.75,14.46,14.46,0,0,0-1.51,2.39c-.47.9-.91,1.85-1.37,2.85l-.21.45-.36.74a5.54,5.54,0,0,1-.86,1.3,2.48,2.48,0,0,1-.54.44,1.64,1.64,0,0,1-.63.24,2,2,0,0,1-.63.08,5.69,5.69,0,0,1-.78-.16,5.74,5.74,0,0,0-.91-.31l-.2,0a1,1,0,0,0-.31,0,1.12,1.12,0,0,0-.27.1l-.16.1-.11.09-.3.27a7.55,7.55,0,0,1-1.33,1.23,2.69,2.69,0,0,1-1.32.44,3.11,3.11,0,0,1-.74-.08,1.29,1.29,0,0,1-.6-.29c-.37-.36-.76-.68-1.13-1.09a21.81,21.81,0,0,0-2.17-2.94,23,23,0,0,0-2-2,11.24,11.24,0,0,0-4.38-2.57Z"/><path class="cls-1" d="M194.13,387q.38-3.36.61-6.72c0-.82,0-1.64.08-2.46.19-2.89.38-5.79.46-8.69,0-1.29,0-2.59-.11-3.86a23.3,23.3,0,0,1-.13-4.94c.16-1,3,.15,3.14,2.06a62.09,62.09,0,0,1-.27,10.19c-.24,2-.13,4.16-.24,6.25-.11,2.29-.31,4.58-.51,6.87l-.41,4.21c-.2,2.13-.49,4.25-.65,6.37-.14,1.64-.11,3.26-.16,4.9,0,.35,0,.71,0,1.07-.11,1.34-.36,1.74-1.17,1.92a3.78,3.78,0,0,1-.56.13c-.61.05-1-.55-1.1-1.54a60.6,60.6,0,0,1,.35-9c.2-2.26.45-4.51.63-6.77Z"/><path class="cls-1" d="M189.61,292.22c-.2-2.12-.54-4.23-.92-6.34-.13-.77-.38-1.51-.53-2.28q-.78-4.08-1.71-8.18c-.27-1.22-.62-2.42-1-3.61a17,17,0,0,1-1-4.69c0-1,3-.31,3.42,1.4a95.7,95.7,0,0,1,2,9.42c.28,1.95.94,3.88,1.34,5.86.46,2.16.82,4.35,1.13,6.55.17,1.35.34,2.71.45,4.06.12,1,.18,2.06.23,3.1s.12,2.05.17,3.08l.42,4.73c0,.35.06.69.06,1,0,1.3-.22,1.71-1,1.94a5.44,5.44,0,0,1-.54.15c-.61.08-1.08-.47-1.22-1.39-.37-2.75-.53-5.59-.69-8.45-.17-2.12-.31-4.26-.62-6.38Z"/><path class="cls-1" d="M156.25,400.07c.46-2.47.91-4.95,1.3-7.43.14-.91.21-1.82.35-2.73.52-3.19,1-6.39,1.46-9.59.18-1.43.29-2.87.35-4.29a28.81,28.81,0,0,1,.44-5.48c.27-1.12,3,.5,2.88,2.63a75.35,75.35,0,0,1-1.46,11.24c-.47,2.23-.61,4.59-.94,6.88q-.57,3.78-1.23,7.55l-.82,4.64c-.42,2.34-.89,4.68-1.28,7-.3,1.81-.44,3.61-.69,5.42-.06.4-.09.8-.16,1.2-.28,1.47-.59,1.9-1.43,2a3.78,3.78,0,0,1-.56.08c-.62,0-1-.71-.9-1.8a95,95,0,0,1,1.32-9.89c.44-2.48.87-5,1.3-7.47Z"/><path class="cls-1" d="M270.12,415.38c-27.25,1.41-53.16,3.58-78.92,4.89a120.29,120.29,0,0,0,3.11-16c50.3-.84,57.76-11.73,61.62-18.06C260.63,399.74,264.34,409,270.12,415.38Z"/><path class="cls-1" d="M218.11,404.9c-2.49.2-5,.44-7.48.6l-7.48.37-7,.13h-.19s-.08,0-.09,0v.09l0,.19-.1.62q-.28,1.86-.63,3.72c-.32,1.69-.66,3.38-1,5.05l-.51,2.2-.16.6h.81l2.39-.1,4.76-.2,9.54-.46,19.09-1c5.64-.33,11.31-.74,16.91-1.15,7.19-.53,14.41-1.2,21.63-1.24,4.5,0-1,3.35-9.31,3.86-14.67.92-29.35,1.84-44.2,2.36-3.87.13-7.81.35-11.78.57l-13.93.75c.44-1.78.89-3.55,1.33-5.31q.89-3.6,1.54-7.24l.31-1.82.31-2L193,404c.13-.44-.06-1.22.64-1l2.85-.07c2.49-.07,5-.09,7.46-.18l7.44-.4a159.36,159.36,0,0,0,18.14-2.26,70.55,70.55,0,0,0,13.18-3.86,31.85,31.85,0,0,0,5.93-3.26,22.63,22.63,0,0,0,2.59-2.1l1.14-1.2c.2-.21.34-.41.54-.65s.51-.64.76-1c.88-1.29,1.72-2.63,2.52-3.94l.08.05.07.2.14.38.28.78.56,1.55,1.13,3.06q.81,2.13,1.65,4.23c1.13,2.79,2.32,5.55,3.62,8.24.67,1.39,1.39,2.7,2.14,4,1.39,2.48,2.39,4,3,5.18a6.72,6.72,0,0,1,1,2.63,4.78,4.78,0,0,1,.1,1c-.06.44-.58.3-1.48-.37a17.54,17.54,0,0,1-3.39-3.75,67,67,0,0,1-6.36-11.81c-.9-2.06-1.73-4.16-2.54-6.27l-.6-1.59-.24-.65,0,0,0,0,0,.08,0,0c-.19.22-.37.46-.57.68L253.45,393c-.41.42-.88.78-1.32,1.18l-.67.58-.72.51-1.43,1c-.49.32-1,.59-1.5.88a54.26,54.26,0,0,1-14.61,5.34c-2.5.64-5,1-7.52,1.47s-5,.7-7.55,1Z"/><path class="cls-1" d="M248.79,355.52c.65,2.94,1.29,5.88,2,8.8.25,1.07.58,2.12.84,3.18.88,3.77,1.77,7.53,2.78,11.27.44,1.66,1,3.29,1.55,4.9a44,44,0,0,1,2,6.23c.26,1.36-3,.66-3.83-1.75a97.39,97.39,0,0,1-3.56-13.07c-.52-2.67-1.4-5.35-2.07-8-.73-3-1.42-5.92-2.1-8.89l-1.23-5.48c-.63-2.76-1.22-5.55-1.9-8.28-.54-2.12-1.22-4.16-1.83-6.24-.14-.46-.3-.9-.41-1.36-.45-1.73-.38-2.32.3-2.87a3.25,3.25,0,0,1,.47-.36c.55-.3,1.2.3,1.66,1.52a99.86,99.86,0,0,1,3.32,11.55c.68,2.95,1.37,5.91,2.06,8.86Z"/><path class="cls-1" d="M226.7,274.82c-.19-1.27-.39-2.55-.62-3.81-.09-.46-.25-.9-.33-1.37-.28-1.62-.54-3.26-.91-4.87a13.67,13.67,0,0,0-.68-2.08,7.61,7.61,0,0,1-.86-2.67c0-.62,2.92-.85,3.3.18a20.93,20.93,0,0,1,1.3,5.74,28.94,28.94,0,0,0,.76,3.51c.27,1.28.49,2.58.72,3.87l.41,2.38c.23,1.2.41,2.41.72,3.57a24.46,24.46,0,0,0,1,2.64c.07.2.17.38.23.58.21.73.07,1-.66,1.34-.17.07-.33.16-.5.22a1.13,1.13,0,0,1-1.42-.5,17,17,0,0,1-1.72-4.89c-.29-1.26-.51-2.55-.77-3.82Z"/><path class="cls-1" d="M215.62,277.12c-.31,1.38-1.53,2.53-2.66,1.51s-.19-5.06,1.67-4.06A2.19,2.19,0,0,1,215.62,277.12Z"/><path class="cls-1" d="M227.5,354.3c-.31,1.38-1.53,2.52-2.65,1.51s-.19-5.07,1.67-4.06A2.18,2.18,0,0,1,227.5,354.3Z"/><path class="cls-1" d="M232.82,385.94c-.32,1.37-1.54,2.52-2.66,1.51s-.19-5.07,1.67-4.07A2.2,2.2,0,0,1,232.82,385.94Z"/><path class="cls-1" d="M279.09,414q-105.27,5.61-210.54,11.63c-5.19.3-10.58.24-15.74.95-3.11.43-4.52,4.59-.57,4s8.28-.52,12.36-.76q16.4-1,32.78-1.88,54-3.06,107.92-6,36.62-2,73.23-3.95c3.2-.17,4.53-4.24.56-4Z"/><path class="cls-1" d="M350.64,409.88c-13,.72-26,1.77-39,2.47-3,.16-4.74,3.65-.74,3.43,13-.7,26-1.75,39-2.47,3-.16,4.74-3.65.73-3.43Z"/><path class="cls-1" d="M469.39,404.37c-21.08,1.77-42.21,3-63.33,4.15-2.19.12-9.5,3.56-3.83,3.25,21.12-1.17,42.25-2.39,63.33-4.16,2.16-.18,9.48-3.72,3.83-3.24Z"/><path class="cls-1" d="M391.74,393.5c-12.59-1.26-30.7,0-30.7,0l.07-16.61c-.14-3.67,2.75-7.4,5.55-10.37a65.09,65.09,0,0,1,19.7.27c2.73,2.92,5.45,6.53,5.31,10.1Z"/><path class="cls-1" d="M376.84,405.87a6.11,6.11,0,0,1-1,0,3.11,3.11,0,0,1-.74-.13,3.17,3.17,0,0,1-.55-.24,2.15,2.15,0,0,1-.61-.56,1.71,1.71,0,0,1-.3-.6c0-.07,0-.16,0-.14a.22.22,0,0,1,.05-.08l.13-.18a2.14,2.14,0,0,0,.13-.22.17.17,0,0,0,0-.24.32.32,0,0,0-.17-.1,1.4,1.4,0,0,0-.6,0l-.17,0-.09,0-.16.07c-.22.1-.44.21-.65.33a3.31,3.31,0,0,1-1.72.75c-.43,0-1.23-2.78-.54-3.13a11,11,0,0,1,1.88-.75,8.87,8.87,0,0,1,3.26-.63,6.92,6.92,0,0,1,1.39.24,1.35,1.35,0,0,1,.61.36.6.6,0,0,1,.14.46c0,.29,0,.62-.17,1.38a1.74,1.74,0,0,1-.23.63l-.23.15-.11.08,0,0h0l-.75.28h0l0,0a2.44,2.44,0,0,0,.12-.24c.05-.12.05-.23.11-.45,0,0,0,0,.1,0a6.16,6.16,0,0,0,1.42-.09l2.51-.39a8,8,0,0,1,2.27-.3,2.46,2.46,0,0,1,.64.11c.83.34.92.86.4,1.43a3.46,3.46,0,0,1-.37.39c-.48.38-.95.58-1.08.73a1.83,1.83,0,0,1-.84.36c-.39.09-.88.17-1.4.27-.79.15-1.61.3-2.67.44Z"/><path class="cls-1" d="M236.09,238.29c1,3,1.92,6,2.75,9,.3,1.09.69,2.16,1,3.25,1,3.86,1.84,7.74,2.75,11.59.4,1.72.89,3.41,1.39,5.08a41.77,41.77,0,0,1,1.72,6.5c.18,1.4-3,.44-3.73-2.05-1.25-4.41-2.3-8.85-3.12-13.4-.5-2.72-1.39-5.44-2.13-8.14-.82-3-1.66-5.94-2.63-8.85-.61-1.79-1.24-3.58-2-5.3a33.11,33.11,0,0,0-4.09-7.38,14.72,14.72,0,0,0-4.74-4A10.74,10.74,0,0,0,222,224c-1.49-.63-1.95-.86-2.13-1.73a4.49,4.49,0,0,1-.13-.59c0-.32.17-.55.56-.68a3.12,3.12,0,0,1,1.72,0,13.3,13.3,0,0,1,5.87,3.23,23.28,23.28,0,0,1,4.18,5.24,51.62,51.62,0,0,1,4,8.76Z"/><path class="cls-1" d="M272.72,366q3,9.43,6.78,18.61l1.43,3.31,1.52,3.27c1.72,3.87,3.66,7.62,5.73,11.3.5.92,1.09,1.8,1.64,2.7s1.07,1.81,1.71,2.65l1.83,2.56c.37.53.24.4.83.74s.89.47,1.35.67c.82.37,1.68.68,2.57,1l1.36.45.69.24.34.12.44.17a15.85,15.85,0,0,1,3.57,1.77,4.28,4.28,0,0,1,1.06,1.07,2,2,0,0,1,.3.64,1.09,1.09,0,0,1-.11.79,2.92,2.92,0,0,1-1.44,1.1,8.47,8.47,0,0,1-2.31.53c-.45,0-.91.07-1.38.08s-1,0-1.31,0a13.61,13.61,0,0,1-2-.18c-.16,0-.36-.07-.53-.11l-.45-.12-.9-.25a16.69,16.69,0,0,1-1.83-.65,33.86,33.86,0,0,1-3.26-1.78c-1.28-.74-.79-1.35.69-1.44a11.6,11.6,0,0,1,2.79.3c1,.21,2.06.37,3.37.72l.43.11.3.05.76.1.82,0c.16,0,.13,0,.13,0s0,0,0,0l0,0a0,0,0,0,0,0,0c.06,0-.15-.07-.81-.31-1.12-.41-2.32-.79-3.55-1.29-.61-.25-1.23-.52-1.84-.84-.3-.15-.6-.32-.89-.48l-.58-.35a3.32,3.32,0,0,1-.37-.23l-.25-.35-2.24-3.22c-.74-1-1.33-2.16-2-3.24a167.1,167.1,0,0,1-8.53-16.32c-2.72-6.17-5.09-12.47-7.29-18.81l-2-5.88-1.88-5.9c-1.83-6-3.58-12-5.28-18l-4.11-13.71c-.29-1-.61-2-.89-3-1-3.79-1.13-5-.58-6.06a3.27,3.27,0,0,1,.38-.67c.49-.51,1.37.92,2.26,3.65,2.62,8.09,5,16.71,7.55,25.32,1.86,6.4,3.82,12.79,5.94,19.12Z"/><path class="cls-1" d="M272.8,381.06a30.63,30.63,0,0,1-2.83,1.23c-.34.14-.66.33-1,.44a23,23,0,0,1-3.83.77c-.56.09-1.12.22-1.67.36a3.65,3.65,0,0,1-2.22.16c-.28-.1-.18-.86,0-1.6s.41-1.46.75-1.51a31.4,31.4,0,0,1,3.88-.29,7,7,0,0,0,2.34-.69,21.92,21.92,0,0,0,2.52-1,15.36,15.36,0,0,0,1.48-.82c.37-.21.71-.47,1.07-.72a6.36,6.36,0,0,0,1-.82,7.72,7.72,0,0,0,1.13-1.64c.08-.12.13-.26.21-.38.32-.43.58-.42,1.26,0,.16.09.32.18.47.28a1.14,1.14,0,0,1,.57,1.28,7.71,7.71,0,0,1-2.46,3.28c-.41.32-.82.65-1.25.94l-1.32.83Z"/><path class="cls-1" d="M268.51,392.4a23.65,23.65,0,0,0,3.05-.5c.37-.08.69-.26,1.05-.35a12.32,12.32,0,0,0,3.55-1.44,3.91,3.91,0,0,0,1.11-1.15,10.91,10.91,0,0,1,.92-1.72c.15-.16.89,0,1.53.42s1.19,1.13.92,1.7a6.91,6.91,0,0,1-1.89,2.48,8,8,0,0,1-2.53,1.36c-1.06.34-2,.89-3,1.2a27.06,27.06,0,0,1-3.37.73c-.69.11-1.39.18-2.07.27-1,.13-2.09.18-3.11.33-.8.11-1.57.38-2.36.55a5,5,0,0,1-.53.12c-.66.08-.88-.12-1-.9,0-.18-.08-.35-.1-.53a1.21,1.21,0,0,1,.63-1.3,15,15,0,0,1,4.12-.94c1-.13,2.09-.23,3.11-.4Z"/><path class="cls-1" d="M423.71,371a29.92,29.92,0,0,0,1.7,7.56,10.65,10.65,0,0,0,4.31,5.55,9,9,0,0,0,4.94,1,8.74,8.74,0,0,0,4.3-1.27,9.82,9.82,0,0,0,3.17-3.38,25.21,25.21,0,0,0,3-9.59,50.71,50.71,0,0,0,.25-9.22c-.21-3.94-.83-7.86-1.17-11.79-.11-1.21.66-1.21,1.57-.29a9.12,9.12,0,0,1,2.19,5.11,72.59,72.59,0,0,1,.44,12.52,34.71,34.71,0,0,1-2.76,12.54,15.65,15.65,0,0,1-5.13,6.42,11.28,11.28,0,0,1-4,1.61,13.17,13.17,0,0,1-4.2.16,10.8,10.8,0,0,1-4.4-1.58,11.3,11.3,0,0,1-3.3-3.23,16.62,16.62,0,0,1-2-3.95A29.31,29.31,0,0,1,421.4,375a54.31,54.31,0,0,1-.91-10.37c0-2.62.13-5.22.36-7.82.11-1.29.25-2.59.4-3.87l.25-2c.11-.85.25-1.77.4-2.67L422,348c0-.11,0-.27.08-.29.66.22,1.33.45,2,.64.33.09.66.2,1,.28l.71.18c.91.2,1.81.38,2.72.53a37.25,37.25,0,0,0,5.45.47c.83,0,1.64,0,2.46-.11,1.52-.11,2.48-.28,3.19-.3a2.84,2.84,0,0,1,1.6.33,3.61,3.61,0,0,1,.62.36c.26.23.13.56-.39,1a7,7,0,0,1-2.7,1.15,25.68,25.68,0,0,1-8.3.34c-1.39-.15-2.77-.38-4.15-.67l-1-.23-.85-.22,0,0v0a.37.37,0,0,1,0,.08l-.05.43c-.12,1-.23,1.93-.33,2.9a78.61,78.61,0,0,0-.16,16.15Z"/><path class="cls-1" d="M441.72,356.78s5.12,26.41-7.81,26.41c-12.49,0-7.8-26.41-7.8-26.41A26.58,26.58,0,0,0,441.72,356.78Z"/><path class="cls-2" d="M432.15,386.61a.13.13,0,0,0,0,.08,1,1,0,0,1,.11.43v44.42a.86.86,0,0,1-.11.4.16.16,0,0,0,0,.09c0,.29.82.53,1.83.53s1.83-.24,1.83-.53a.19.19,0,0,0,0-.08.86.86,0,0,1-.11-.43V387.1a.77.77,0,0,1,.11-.41.24.24,0,0,0,0-.08c0-.3-.82-.54-1.83-.54S432.15,386.31,432.15,386.61Z"/><path class="cls-2" d="M441.56,430.41l0,0a1.27,1.27,0,0,1-.14-.21,4.46,4.46,0,0,0-.44-.68l-.44-.61-.44-.62a2.73,2.73,0,0,0-.43-.53l-.88-.88a9.6,9.6,0,0,0-.88-.66,6,6,0,0,0-7,0,7.59,7.59,0,0,0-.88.67l-.88.88c-.07.08-.15.14-.22.23l-.22.31-.44.61-.44.62a5.56,5.56,0,0,0-.44.69,1.76,1.76,0,0,1-.12.2l0,0a2.41,2.41,0,0,0-.17.71c0,.2.08.37.17.39h.16l.57.06c2.25.19,4.49.25,6.74.24s4.49-.07,6.74-.3h.15c.1,0,.17-.19.17-.39A2.13,2.13,0,0,0,441.56,430.41Z"/><path class="cls-1" d="M262.16,220.46a41.34,41.34,0,0,0,5.77,9.08,20,20,0,0,0,3.85,3.46,13.92,13.92,0,0,0,4.57,2.09,12.51,12.51,0,0,0,1.81.33c.61.07,1.23.05,1.85.08l1.86-.15a10.07,10.07,0,0,0,1.72-.4,23.57,23.57,0,0,0,6.07-2.91,8.65,8.65,0,0,0,1.23-1c.38-.4.8-.77,1.15-1.2a13.7,13.7,0,0,0,1.84-2.72,13.53,13.53,0,0,0,1.49-6.38,23,23,0,0,0-1.16-6.76,49.93,49.93,0,0,0-5.6-11.26c-2.89-4.59-6.4-8.79-9-13.76-.79-1.6.08-1.74,1.48-.91a17.93,17.93,0,0,1,5.28,5.12,100.73,100.73,0,0,1,8.87,14.61,36.62,36.62,0,0,1,2.84,8.4,19.56,19.56,0,0,1-.25,9.18,17.52,17.52,0,0,1-2.44,5.08,19.54,19.54,0,0,1-1.79,2.16,13.11,13.11,0,0,1-2.15,1.91,26.56,26.56,0,0,1-4.82,2.68,22.11,22.11,0,0,1-2.63.94,12,12,0,0,1-1.43.32c-.51.08-.94.08-1.42.12a17.38,17.38,0,0,1-11.61-3.36,26.59,26.59,0,0,1-4.36-4.11,43.93,43.93,0,0,1-3.4-4.8,86.58,86.58,0,0,1-6.05-12.83l-3.07-8c-.52-1.31-1.05-2.63-1.64-3.88-.15-.32-.31-.62-.46-.93l-.12-.23,0,0-.06-.11-.11-.16-.43-.66a11.31,11.31,0,0,0-1-1.33c-.36-.46-.72-.85-1.07-1.26,0-.12.33-.13.56-.18l.74-.13,1.46-.27c.91-.2,2-.44,2.55-.59a53.9,53.9,0,0,0,7.57-2.56,43.76,43.76,0,0,0,7-3.63c1-.58,1.82-1.32,2.76-2,3.28-2.66,4-3.7,5.31-3.9a4.94,4.94,0,0,1,.86-.16c.4,0,.44.46.12,1.27a10.55,10.55,0,0,1-.76,1.49c-.39.53-.88,1.12-1.46,1.77A36,36,0,0,1,263,195.57,63.21,63.21,0,0,1,256.5,198c-1.11.33-2.25.65-3.34.92,0,0,0,0,0,0h0v0l0,.1.21.41c1.82,3.64,3,7.21,4.42,10.74s2.74,7,4.4,10.29Z"/><path class="cls-2" d="M318.41,290.54s0,0,0,0-.14,0-.16-.07l-6.65-12.7a.17.17,0,0,1,0-.17,0,0,0,0,0,0,0,4.68,4.68,0,0,0-1.7.69,5,5,0,0,0-1.54,1l0,0c.09,0,.14,0,.16.07l.27.51L315.22,292a.17.17,0,0,1,0,.17,0,0,0,0,0,0,0,4.68,4.68,0,0,0,1.7-.69A5,5,0,0,0,318.41,290.54Z"/><path class="cls-2" d="M299,253.43s0,0,0,0a.27.27,0,0,1-.2-.13l-9.66-18.46a.28.28,0,0,1,0-.22,0,0,0,0,0,0,0c-.06-.12-.84.16-1.73.63s-1.57.94-1.51,1.07l0,0a.27.27,0,0,1,.19.12l.4.75,9.27,17.72a.29.29,0,0,1,0,.22s0,0,0,0,.84-.16,1.74-.63S299.07,253.56,299,253.43Z"/><path class="cls-2" d="M321.89,286.85s0,0,0,0,0,.14-.06.16L310.45,293a.18.18,0,0,1-.15-.05h0a5.92,5.92,0,0,0,.71,1.69,5.34,5.34,0,0,0,1,1.55s0,0,0,0,0-.14.06-.16l.46-.24,10.9-5.7s.09,0,.16,0,0,0,0,0a5.39,5.39,0,0,0-.71-1.69A5.92,5.92,0,0,0,321.89,286.85Z"/><path class="cls-1" d="M289.45,209.6c9.15,14.22-3.43,21.71-3.43,21.71-13.73,5.87-20.63-10.58-20.63-10.58S283.62,217.58,289.45,209.6Z"/><rect class="cls-1" x="369.92" y="324.66" width="12.79" height="8.9"/><path class="cls-1" d="M374.74,326.66l-2.41-.12c-.27,0-.23,0-.27,0l-.11,0-.27-.06a2,2,0,0,0-.08.35s0,.54,0,.9,0,.81,0,1.21l-.14,2.34v.19l0,.1,0,.2-.07.47.7.12h.32l.48,0,1,0c1.26.06,2.52,0,3.77,0a19,19,0,0,1,4.83,0c1,.22-.27,3.31-2.12,3.34-1.64,0-3.28,0-4.93-.07-.82-.05-1.64-.1-2.46-.18l-.62-.05-1-.07-2.14-.15-.74-.05c0-.85.07-1.65.09-2.44s0-1.31,0-2c0-.94,0-1.88,0-2.81l.12-4.65,2.74.07,2,.07,4.11.15,2.65.08,1.71,0h1.89c0,.44,0,.87,0,1.3s0,1.14.05,1.72.07.81.11,1.23l.24,2.36c0,.35.09.69.1,1,.06,1.31-.16,1.72-1,2a4.43,4.43,0,0,1-.59.18c-.66.13-1.2-.4-1.4-1.35a32.75,32.75,0,0,1-.5-3.71l-.06-1,0-.47a.87.87,0,0,0,0-.2h0a0,0,0,0,0,0,0h0l-5.77-.12Z"/><path class="cls-1" d="M263.62,296.37a1.59,1.59,0,0,1-1.23-1.75C263.13,290.08,267.91,297.12,263.62,296.37Z"/><path class="cls-1" d="M360,421.74l-.05,10.12,0,5.05v.6c0,.07.07.1.12.14l.07,0,.21.11.48.2q.5.19,1.05.36a47,47,0,0,0,9.62,1.26,79.91,79.91,0,0,0,9.91,0c1.93-.14,3.86-.36,5.76-.68.95-.16,1.89-.34,2.83-.56.47-.09.94-.21,1.4-.33s1.07-.28,1-.26c.13,0,.19-.12.21-.23s.1-.55.16-1c.48-4.14.6-8.52.75-12.81s.2-8.64.25-13q.15-13,.06-26l-.06-5.76-.05-2.9a8.46,8.46,0,0,0-.32-2.58,15.87,15.87,0,0,0-2.43-4.8,38.11,38.11,0,0,0-3.59-4.27c-1.66-1.77-3.44-3.36-5.21-5.25-.22-.25-.43-.49-.67-.81a3,3,0,0,1-.57-1.3c0-.21,0-.55,0-.66V355.1l0-3.68c0-4.91,0-9.82.16-14.71.19-6.11,3,1.64,3.06,12.93v7l.09.11c.13.18.31.38.49.59.38.42.8.85,1.24,1.28l2.66,2.68a45.63,45.63,0,0,1,5.05,6,16.11,16.11,0,0,1,3,7.91l.06,7.6v7.54q0,7.55-.15,15.12c-.09,5.59-.18,11.29-.27,17-.05,2.87-.12,5.75-.25,8.64-.07,1.45-.15,2.89-.28,4.36-.07.73-.15,1.46-.27,2.23l-.05.32-.1.43a6,6,0,0,1-.27.85l-.2.37a1.72,1.72,0,0,1-.31.29s-.09,0-.06.09l-.09,0-.19.09-.38.18-1,.28-.69.17c-.46.11-.92.23-1.38.32a74.5,74.5,0,0,1-20.62,1.27c-1.71-.11-3.42-.25-5.16-.49a24.25,24.25,0,0,1-5.21-1.22l-.66-.28c-.21-.11-.42-.21-.74-.4a5.08,5.08,0,0,1-.79-.59,3.57,3.57,0,0,1-.31-.37,1.37,1.37,0,0,1-.13-.2,1.85,1.85,0,0,1,0-.23l-.07-.47v-7.59l.09-25.05q0-9.5,0-19,0-4.75,0-9.48a17.73,17.73,0,0,1,.08-2.49,11.9,11.9,0,0,1,.61-2.47,20.12,20.12,0,0,1,2.32-4.35,49.06,49.06,0,0,1,5-5.94l2.64-2.71c.43-.45.86-.9,1.23-1.34a6.78,6.78,0,0,0,.47-.62.66.66,0,0,0,.13-.43c-.07-4.6-.14-9.14-.21-13.71,0-2.12-.07-4.2-.1-6.34,0-1.25,0-2.41,0-3.43h3.54l1.85,0c1.12,0,2,.08,2.81.16a9.72,9.72,0,0,1,3.25.73,7.54,7.54,0,0,1,1.13.54c.76.6-2.48,1.1-8.29,1.28l-.73,0h-.34l-.38,0,0,.37,0,.18,0,.69.06,2.74c0,1.83.08,3.68.11,5.53.05,3.76.11,7.56.16,11.39a3.53,3.53,0,0,1-.5,1.6,8.81,8.81,0,0,1-.73,1c-.44.52-.87,1-1.29,1.41l-2.49,2.53a51.43,51.43,0,0,0-4.52,5.15,15.87,15.87,0,0,0-2.85,5.59,7.54,7.54,0,0,0-.17,1.4v5.29c0,13.57,0,27.21,0,40.82Z"/><path class="cls-1" d="M379.57,441.22c-18.28,5-30.61.11-29.29-3.39.61-1.65,4.31-4.71,7.9-5.27v5.78S361,441.33,379.57,441.22Z"/><path class="cls-1" d="M391.83,412.4c0,11.89-.26,23.32-1.14,23.58-5.92,1.72-13.53,2.26-21.57,1.55-6.5-.57-7.78-2.19-7.78-2.19l0-22C367.71,415.24,380.71,416.87,391.83,412.4Z"/><path class="cls-1" d="M184.41,137.34c0,.19-.12.28-.32.35a1.65,1.65,0,0,1-.34,0c-.1,0-.36.07-.51,0a.32.32,0,0,1-.12-.15l0-.05,0,.06h0a2.82,2.82,0,0,0-.19-.47c-.06-.11-.1-.12-.16-.12-.26.12-.18-.07-.21-.18a1.94,1.94,0,0,1,0-.34,14.79,14.79,0,0,1,1.33-2.54,7.42,7.42,0,0,1,1.36-1.55,15.3,15.3,0,0,1,1.69-1.28l.9-.57,1-.47a2.79,2.79,0,0,1,.9-.29c.55-.07,1.06-.22,1.59-.32s1-.19,1.56-.31c.18,0,.36,0,.52-.13a7.89,7.89,0,0,1,1.73-.2,16,16,0,0,1,1.77.18c.89.25,1.73.61,2.57.9.12,0,.26,0,.34.17.18.32.45.36.7.46a7.64,7.64,0,0,1,1,.48,1.73,1.73,0,0,1,.41.44c.12.15-.09.47-.16.49s-.13.26-.17.41a.66.66,0,0,1-.05.15,12.69,12.69,0,0,1-2.32,0,16.93,16.93,0,0,0-3.11-.28,1.34,1.34,0,0,1-.47-.11,17,17,0,0,0-2.27.25,2.84,2.84,0,0,1-1.3.1.39.39,0,0,0-.26,0,7.7,7.7,0,0,1-1.06.34c-.36.1-.7.26-1.05.39a5.46,5.46,0,0,0-1,.58,1.18,1.18,0,0,1-.2.07.77.77,0,0,0-.25.1,9.28,9.28,0,0,0-2,1.88,10.64,10.64,0,0,0-1.1,1C185,137,184.43,137.19,184.41,137.34Z"/><path class="cls-1" d="M209.88,132.65c0,.13-.17.15-.3.07l-.11-.08a.59.59,0,0,1-.17-.1.79.79,0,0,1-.24-.35c-.07-.18,0-.78-.07-.87a.57.57,0,0,0-.19-.19l0-.21c-.08,0,.49-.71.72-1a2.06,2.06,0,0,1,.76-.58,11,11,0,0,1,1.88-.81,1.47,1.47,0,0,1,.47,0,7.16,7.16,0,0,0,1.61-.08.37.37,0,0,0,.27-.09,3.17,3.17,0,0,1,1.8.11,10.92,10.92,0,0,1,1.2.81s.13,0,.14.15c0,.27.16.29.27.37a1.84,1.84,0,0,1,.41.38.78.78,0,0,1,.08.37c0,.12-.2.42-.25.45s-.15.24-.22.38a1,1,0,0,0-.08.14,5.62,5.62,0,0,1-1.15.24l-.59-.09a5,5,0,0,0-.65,0c-.07,0-.12-.06-.17-.1l-.45.06c-.21,0-.42.12-.44.11s-.31.09-.51-.1c0,0-.08,0-.11,0a8.66,8.66,0,0,1-.91.13,1.83,1.83,0,0,0-.46.18s-.07,0-.1,0a.57.57,0,0,0-.13,0,3.85,3.85,0,0,0-1.08.6c-.06.07-.63.1-.71.21S209.9,132.56,209.88,132.65Z"/><path class="cls-1" d="M222.52,181.51c-.05-.25.29-.22.91-.12.2,0,.75.24.79.36a2.62,2.62,0,0,1,.17.6,6.92,6.92,0,0,1-.86,2,3.73,3.73,0,0,1-1,1.11,9.81,9.81,0,0,1-2.7,1.5,3,3,0,0,1-.67.11l-1.14.07c-.37,0-.74.12-1.11.13a.61.61,0,0,0-.36.09,2.72,2.72,0,0,1-1.2.1,6.83,6.83,0,0,1-1.22-.17c-.58-.29-1.15-.53-1.71-.78-.08,0-.17,0-.22-.17-.1-.29-.28-.3-.45-.37a4.38,4.38,0,0,1-.67-.37,1.09,1.09,0,0,1-.25-.39c-.07-.13.11-.46.16-.48s.12-.27.16-.42a.66.66,0,0,1,.05-.15,7,7,0,0,1,1.62-.26,7.62,7.62,0,0,0,1,.12,5.62,5.62,0,0,0,1.09,0,.59.59,0,0,1,.31.09,4.69,4.69,0,0,0,.76,0l.73-.12c.29,0,.53-.12.84.06a.22.22,0,0,0,.16,0l.69-.15a4,4,0,0,0,.69-.14,2.88,2.88,0,0,0,.64-.3s.09,0,.13,0a.47.47,0,0,0,.17,0,3.91,3.91,0,0,0,1.29-1.07c.08-.1.68-.42.74-.58S222.54,181.62,222.52,181.51Z"/></g></svg>