<svg xmlns="http://www.w3.org/2000/svg" width="520" height="520" viewBox="0 0 520 520"><defs><style>.cls-1{fill:#231f20;}</style></defs><title>109 Personal finances</title><g id="n.109_Personal_finances" data-name="n.109 Personal finances"><path class="cls-1" d="M240.9,176.87a16.48,16.48,0,0,1-1.87-9.26,9.89,9.89,0,0,1,.93-3.55,9.5,9.5,0,0,1,4.68-4.37,12.61,12.61,0,0,1,6-.79,19.62,19.62,0,0,1,5,1.19,11.28,11.28,0,0,1,5.34,3.73c.41.57-.12.85-.92.89a5.64,5.64,0,0,1-2.75-.56,15.93,15.93,0,0,0-5.15-1.78,13,13,0,0,0-5.26-.08,5.43,5.43,0,0,0-2.68,1.43l-.51.58a5.54,5.54,0,0,0-.42.65,3.27,3.27,0,0,0-.38.68,4.25,4.25,0,0,0-.28.73,11.2,11.2,0,0,0,.44,7.36,13,13,0,0,0,2.42,4.11,13.18,13.18,0,0,0,6,4.15,13.65,13.65,0,0,0,5.62,0c.42-.06.84-.17,1.27-.22,1.62-.22,2.18-.07,2.62.73a3.29,3.29,0,0,1,.3.55c.23.62-.37,1.24-1.56,1.57a21,21,0,0,1-5.79.88,12.83,12.83,0,0,1-6.42-1.72,18.49,18.49,0,0,1-3.75-3,15.35,15.35,0,0,1-1.61-1.83,16,16,0,0,1-1.33-2.05Z"/><path class="cls-1" d="M116.07,449.73c-1.58,0-3.15-.11-4.72-.25-.58,0-1.15,0-1.72-.1-2-.19-4-.48-6-.84-.89-.14-1.78-.27-2.67-.38-.57-.1-1.14-.14-1.71-.27a16.79,16.79,0,0,1-1.65-.55c-.33-.13-.22-.4.14-.65a3.17,3.17,0,0,1,1.62-.49c2.28.24,4.53.63,6.82,1a39.27,39.27,0,0,0,4.24.43l4.7.37c1,.08,1.94.15,2.9.2,1.47.07,2.94.14,4.4.15,1.14,0,2.25-.05,3.37-.06h.74c.92,0,1.21.08,1.41.32a.64.64,0,0,1,.13.17c.09.18-.29.33-1,.42-2,.23-4.12.41-6.25.47-1.58.06-3.16.08-4.75.08Z"/><path class="cls-1" d="M185.62,351.59c1.6-1.24,3.23-2.38,4.81-3.55.57-.43,1.1-.91,1.67-1.34a55.23,55.23,0,0,0,5.77-4.78A21.37,21.37,0,0,0,200,339.4c.86-1.12,1.61-2.3,2.52-3.4.29-.34.6-.1.76.43a2.89,2.89,0,0,1-.23,2.15c-.37.68-.77,1.33-1.19,2a20.72,20.72,0,0,1-1.44,1.78,25.77,25.77,0,0,1-3.3,3.14c-1.42,1.13-2.75,2.45-4.2,3.56l-4.77,3.6c-1,.74-1.91,1.49-2.8,2.3a28.84,28.84,0,0,0-3.7,4,22.47,22.47,0,0,0-2.07,3.58,6.76,6.76,0,0,1-.4.81c-.59,1-.88,1.24-1.36,1.3a1.22,1.22,0,0,1-.32,0c-.32,0-.38-.56-.21-1.44a13,13,0,0,1,1.42-3.82,19.27,19.27,0,0,1,2.33-3.51,35.14,35.14,0,0,1,4.52-4.29Z"/><path class="cls-1" d="M264.57,225.18l2.63-.46c.88-.12,1.76-.26,2.64-.37.65-.07,1.29-.2,1.94-.26a44,44,0,0,1,6.89,0c1,.13,2,.15,3.06.34l1,.18,1,.3a5.87,5.87,0,0,1,1.81.93c.35.25.09.52-.39.72a4.13,4.13,0,0,1-.84.21,4.3,4.3,0,0,1-.94,0,55.33,55.33,0,0,0-7.32-.88,27.47,27.47,0,0,0-4.68.31c-.87.09-1.73.19-2.59.33s-1.72.26-2.57.43c-1.06.18-2.1.43-3.15.67a43.86,43.86,0,0,0-4.66,1.4c-1.16.47-2.27,1-3.36,1.56l-.73.36c-.9.43-1.25.45-1.66.16a1.65,1.65,0,0,1-.27-.19c-.24-.24,0-.68.62-1.16a17,17,0,0,1,3-1.89,26.55,26.55,0,0,1,3.38-1.31c1.71-.57,3.46-1,5.21-1.4Z"/><path class="cls-1" d="M265.68,246.26c-1.29.8-2.58,1.58-3.89,2.36-.47.28-.93.6-1.42.87a23.69,23.69,0,0,1-5.52,2.34,4.51,4.51,0,0,1-1.54.1,1.84,1.84,0,0,1-1.46-1.13l0-.06a4.25,4.25,0,0,1,.54-3.59c.2-.31.54-.1.82.31a2.46,2.46,0,0,1,.47,1.54,5.63,5.63,0,0,0-.08.66,2.33,2.33,0,0,0,0,.42s0,0,0,0a.6.6,0,0,0,.25,0,1.72,1.72,0,0,0,.43,0,13.81,13.81,0,0,0,2.13-.59,21.59,21.59,0,0,0,3.53-1.9c1.28-.76,2.56-1.55,3.82-2.38l2.32-1.53c1.16-.79,2.35-1.57,3.47-2.41.88-.64,1.66-1.39,2.54-2.05.2-.14.37-.3.58-.43a1.79,1.79,0,0,1,.95-.34,1.1,1.1,0,0,1,.63.27c.08.07.17.13.23.19a.52.52,0,0,1,0,.48,1.74,1.74,0,0,1-.39.71,31.19,31.19,0,0,1-4.62,3.67c-1.24.86-2.51,1.69-3.78,2.52Z"/><path class="cls-1" d="M298.7,252.36a16,16,0,0,1-3.58-1.86c-.41-.26-.82-.52-1.21-.8a44.48,44.48,0,0,1-3.72-3.37c-.51-.53-1.06-1-1.58-1.53a12.31,12.31,0,0,1-1.92-2c-.16-.25.1-.45.51-.52a1.82,1.82,0,0,1,1.4.31,40.88,40.88,0,0,1,4.15,3.73,15.85,15.85,0,0,0,2.69,2.06,29,29,0,0,0,3.16,1.89,13.53,13.53,0,0,0,2.1.84,9.57,9.57,0,0,0,1.67.29c.28,0,.56,0,.84,0l.84-.08a5.07,5.07,0,0,0,1.23-.33l.29-.1a.56.56,0,0,0,.14-.09.36.36,0,0,0,.13-.24.49.49,0,0,0-.09-.22l-.08-.14a2.5,2.5,0,0,1-.08-.25.76.76,0,0,1,.05-.49,1.45,1.45,0,0,1,.09-.22c.14-.19.45-.18,1,.28a1.73,1.73,0,0,1,.55,2,2.21,2.21,0,0,1-.78.8,4,4,0,0,1-.82.34,7.79,7.79,0,0,1-2.86.49l-1.08,0-1-.18a13.85,13.85,0,0,1-2-.52Z"/><path class="cls-1" d="M124.74,451.18q-4,.1-8,.08c-1,0-1.94.07-2.92,0-3.42-.05-6.86-.27-10.28-.55l-2.28-.2c-.76-.06-1.52-.17-2.28-.25A19,19,0,0,1,93.25,449c-.58-.24-.33-.63.29-.91a4.79,4.79,0,0,1,2.64-.31c1.86.29,3.76.46,5.68.6l5.82.54c1.18.08,2.38.1,3.58.1s2.43-.07,3.63-.08l8-.17c1.63-.06,3.27-.1,4.91-.17,2.48-.11,5-.2,7.44-.39,1.92-.16,3.79-.41,5.69-.56a10.51,10.51,0,0,1,1.25-.09c1.58,0,2.09.24,2.43.74a1.53,1.53,0,0,1,.22.32c.08.18,0,.34-.32.52a3.79,3.79,0,0,1-1.28.47,68.94,68.94,0,0,1-10.45,1.28c-2.66.17-5.34.28-8,.4Z"/><path class="cls-1" d="M99,447.76c-3.06-2.4-17.52-2.43-16.94-.39.45,1.61,3.63,1.63,4.86,1.68A43.55,43.55,0,0,0,99,447.76Z"/><path class="cls-1" d="M85.25,450.28l-.53-.08c-.27-.06-.56-.09-.81-.17a5,5,0,0,1-1.41-.53A3,3,0,0,1,81,447.75a1.63,1.63,0,0,1,.13-1.16,2.23,2.23,0,0,1,.8-.75,7.46,7.46,0,0,1,3-.8,39.25,39.25,0,0,1,7.15.32c1,.14,2.08.24,3.11.42a8.5,8.5,0,0,1,3.89,1.4c.37.33,0,.53-.4.64a3.76,3.76,0,0,1-1.77.1c-2.42-.47-5-.75-7.66-1a15.86,15.86,0,0,0-2.39,0c-.74,0-1.81.17-1.94.18a4.06,4.06,0,0,0-.56.09c-.2,0-.45.21-.34.41a1.11,1.11,0,0,0,.75.52l.38.09c.26,0,.52.07.79.09.53.05,1.1.08,1.65.11a30.7,30.7,0,0,0,5-.14,25.94,25.94,0,0,0,3.72-.81c.27-.07.53-.17.8-.24,1-.24,1.37-.15,1.72.34.08.12.18.23.24.34.21.4-.13.86-.87,1.2a22.27,22.27,0,0,1-7.25,1.44c-.93.05-1.88.06-2.82,0s-1.83-.08-2.84-.18Z"/><path class="cls-1" d="M380.71,375.21s23-4.46,31.53-12.82c0,0,2.54,54.88-12.65,77.21-17.73,26-39.64,25.19-73.18,26S158.68,463.48,153,460.7c0,0-14.21-31.2,0-48.57,0,0,5.79-7.23,21.26-7.23s114.84,4.69,128.43,4.38c0,0,22.62-.08,32.39-1.23a18.11,18.11,0,0,0,5.29-9.67S371.59,390.09,380.71,375.21Z"/><path class="cls-1" d="M272.8,140s13.64,1.45,37.81-21.39c0,0,9.86-13.78,21.64-12a42.59,42.59,0,0,1,12.1,15.06c6.47,13.31,16.6,27.39,18,27.39,0,0-3.82,7.64-3.82,10.9,0,0,.63,8.55-5.47,18.23,0,0-2.72,3.76-2.72,6.37,0,0-3.6,10.18-5.7,14.49s28.1,18.14,46,11.41S407.83,188,401.1,170c0,0-3.35-6.16,1.31-15.24s19.55-28,5.12-57.46-46.8-34.2-69-25.32c0,0-20.35-25.37-57.33-12.56s-48.25,56-45.55,83.16c0,0-18.12,11.82-17.49,23.86,0,0-4.58,36,34.9,23.45,0,0,.33-1.59,5.32.94s8.59,5.78,10.27,4.84,4.58-9.12,8.62-10.17c0,0-6.61-10.43-4.51-22.85,0,0-18.65.53-17.6-18.42C255.2,144.23,257.52,133.61,272.8,140Z"/><path class="cls-1" d="M274.37,171.62a34.34,34.34,0,0,0,.34,3.49c.06.43.2.83.28,1.25a31.94,31.94,0,0,0,1,4.44,10.41,10.41,0,0,0,.79,1.84,10.2,10.2,0,0,1,1.12,2.27c.07.27-.41.55-1,.64a1.64,1.64,0,0,1-1.6-.48,13.86,13.86,0,0,1-1.91-5.31c-.17-1.12-.59-2.2-.82-3.31s-.42-2.46-.55-3.69c-.07-.77-.14-1.53-.19-2.29-.09-1.15-.05-2.32-.1-3.47,0-.89-.18-1.78-.17-2.69a4.14,4.14,0,0,1,0-.61c.09-.75.3-1,.94-1a3.24,3.24,0,0,1,.44,0,1,1,0,0,1,.93.89,33.91,33.91,0,0,1,.38,4.55c.08,1.15.1,2.32.22,3.49Z"/><path class="cls-1" d="M327.53,216.88l1.06-.86,1.06-1c.72-.62,1.37-1.3,2.06-1.95a51.75,51.75,0,0,0,3.76-4.22c.86-1.08,1.61-2.24,2.38-3.38a86.54,86.54,0,0,0,7.1-12.94c.91-2,1.73-4.07,2.48-6.12a57.21,57.21,0,0,1,3.11-7.87c.42-.79.87-.5,1.17.4a6.9,6.9,0,0,1,.31,1.75,5.28,5.28,0,0,1-.29,2.25,98.26,98.26,0,0,1-7,16,103.8,103.8,0,0,1-5.49,9.36,54.75,54.75,0,0,1-8,8.95c-.87.84-1.88,1.62-2.85,2.4l-1.56,1.05c-.52.35-1.09.62-1.63.93a27.69,27.69,0,0,1-2.6,1.19,24.44,24.44,0,0,1-2.74.8,22.49,22.49,0,0,1-5.65.6,27,27,0,0,1-8.63-1.5,17.54,17.54,0,0,1-1.8-.75,6.55,6.55,0,0,1-2.1-1.49,2.25,2.25,0,0,1-.34-.7,2.52,2.52,0,0,1,0-.72,5.12,5.12,0,0,1,0-.57c.05-.41,1.35-.62,2.75.06a37.42,37.42,0,0,0,6.68,2.15,21.15,21.15,0,0,0,7,.3,18.88,18.88,0,0,0,9.65-4.28Z"/><path class="cls-1" d="M288.35,166a16.81,16.81,0,0,0,3.47,5.76,11.63,11.63,0,0,0,1.21,1.12,9.91,9.91,0,0,0,1.35,1,13.14,13.14,0,0,0,1.49.87,11.44,11.44,0,0,0,1.56.7,13.65,13.65,0,0,0,4.81,1,15.26,15.26,0,0,0,2.14-.08,13.34,13.34,0,0,0,2.07-.52,11.83,11.83,0,0,0,2-.85,12.85,12.85,0,0,0,1.77-1.25,14.56,14.56,0,0,0,2.9-3.34c.35-.67.77-1.3,1.07-2s.62-1.39.85-2.12a28.89,28.89,0,0,0,1.39-8.13c0-.47,0-.86,0-1.4,0-.74-.09-1.49-.16-2.24a9.35,9.35,0,0,1,2.95-.66,17.14,17.14,0,0,1,2.15,0,10.12,10.12,0,0,1,4.29,1.08,1.42,1.42,0,0,1,.59.58.32.32,0,0,1,0,.4,3.58,3.58,0,0,1-1.18.32,19.43,19.43,0,0,1-4.5.57l-.73,0-.36,0h-.07v1c0,.84-.09,1.68-.17,2.51a35.38,35.38,0,0,1-.91,4.91,20.5,20.5,0,0,1-4.71,9.05,16.05,16.05,0,0,1-6.14,4.19,14.67,14.67,0,0,1-7.44.71,19.2,19.2,0,0,1-7.45-3,16.72,16.72,0,0,1-5.42-5.93,21,21,0,0,1-2.74-9.28,15.71,15.71,0,0,1,1.25-7.3,9.83,9.83,0,0,1,.89-1.66l.52-.79c.18-.26.41-.47.61-.71l.63-.71a5.46,5.46,0,0,1,.76-.66,7.08,7.08,0,0,1,1.77-.91,15.23,15.23,0,0,1,5.71-.6,48.22,48.22,0,0,1,5.43.64c.78.13,1.55.24,2.31.38,2.87.53,3.54.68,4.17,1.4.15.17.36.3.48.45s0,.6-.58.86a6,6,0,0,1-2.71.29c-3.33-.26-6.5-1-9.59-1.13a11.63,11.63,0,0,0-4.2.4,3.85,3.85,0,0,0-1.42.82l-.67.77c-.11.13-.24.25-.34.39l-.28.45c-2.3,3.47-2.29,8.46-.67,12.7Z"/><path class="cls-1" d="M329.78,144.2a25.64,25.64,0,0,0-4.28,9.29c-.14.62-.3,1.24-.39,1.87s-.14,1.27-.24,1.91a43,43,0,0,0-.41,6.84c0,2.3.14,4.63.4,6.93a47.15,47.15,0,0,0,1.09,6.08c.3,1.28.68,2.54,1.05,3.79l1.07,3.77c.21.79-.26.89-1,.43a6.34,6.34,0,0,1-2.35-3,54.28,54.28,0,0,1-2.83-16.41,61.68,61.68,0,0,1,.41-10.3,31.13,31.13,0,0,1,3.76-10.79,25.11,25.11,0,0,1,4.42-5.54,21.12,21.12,0,0,1,9.45-4.94,24.64,24.64,0,0,1,8.21-.57c.59.09,1.19.16,1.8.27l.76.17c.23.08.43.15.61.23a4.46,4.46,0,0,1,.88.45,1.51,1.51,0,0,1,.73,1.06,2.51,2.51,0,0,1,.1.59c0,.61-1,.81-2.49.53a13.08,13.08,0,0,0-1.65-.22l-1.66-.19-1.66,0c-.27,0-.55,0-.83,0l-.82.07A18.44,18.44,0,0,0,337.5,138a18.8,18.8,0,0,0-7.65,6.24Z"/><path class="cls-1" d="M358.45,167.14a22.44,22.44,0,0,1-4.6,10.56,15.43,15.43,0,0,1-3.18,3,16.69,16.69,0,0,1-3.42,1.68,18.61,18.61,0,0,1-3.63.81,23.29,23.29,0,0,1-7.26-.21,14.12,14.12,0,0,1-6-2.63,11.86,11.86,0,0,1-4.46-6.9c-.17-.84.34-.88,1.13-.47a11.79,11.79,0,0,1,1.4.88,7,7,0,0,1,1.31,1.39,12.19,12.19,0,0,0,2.27,2.51,9.66,9.66,0,0,0,2.82,1.72,17.39,17.39,0,0,0,7.06,1.08,12.55,12.55,0,0,0,8.19-3.09,16.32,16.32,0,0,0,4.94-8.54,27.46,27.46,0,0,0,.88-6.34c0-.4,0-.81,0-1.22l0-1c0-.25-.17-.41-.34-.56s-.24-.18-.4-.28-.33-.21-.49-.32a26,26,0,0,0-4.42-2,32.07,32.07,0,0,0-7.31-1.54l-1.62-.11a7.92,7.92,0,0,1-2.11-.35,1.85,1.85,0,0,1-.94-.91,3.83,3.83,0,0,1-.29-.57c-.11-.31.06-.59.46-.84a3.62,3.62,0,0,1,1.85-.5,27.09,27.09,0,0,1,7.35.77,33.08,33.08,0,0,1,7.18,2.59c.43.22.86.45,1.3.72.22.13.44.26.66.41l.34.23a4.51,4.51,0,0,1,.44.34,3.19,3.19,0,0,1,1.37,2.16c.11,1.07.07,1.3.1,1.84a35.66,35.66,0,0,1-.44,5.75Z"/><path class="cls-1" d="M296.46,128.07c2.86-2,5.6-4.43,8.36-6.86,1-.89,1.94-1.87,3-2.75l1.39-1.15c.41-.33.81-.69,1.25-1.09l2.65-2.39c1.79-1.59,3.63-3.15,5.57-4.61a44.09,44.09,0,0,1,5.45-3.69,10.21,10.21,0,0,1,4.43-1.34,6.06,6.06,0,0,1,1.33.13,5.08,5.08,0,0,1,1.3.53,3.8,3.8,0,0,1,1.05.9,5.27,5.27,0,0,1,.65,1.11c.38,1-.38,1-1.39.94a4.16,4.16,0,0,0-.8,0h-.4l-.39.09a6.79,6.79,0,0,1-1.05.27,6.82,6.82,0,0,0-2.61.86,29.63,29.63,0,0,0-3.15,1.81c-2.12,1.4-4.23,3-6.36,4.7a40.78,40.78,0,0,0-3.69,3.33c-.57.59-1.33,1.29-1.91,1.8l-1.87,1.68c-2.74,2.43-5.5,5-8.45,7.32a63.91,63.91,0,0,1-5.69,4.05,91.31,91.31,0,0,1-9.15,5.19,47,47,0,0,1-7.57,3.22,18.15,18.15,0,0,1-1.79.48,5.42,5.42,0,0,1-2.47,0,2.06,2.06,0,0,1-1.11-1.06,3.84,3.84,0,0,1-.31-.65c-.11-.36.06-.69.43-1a3.91,3.91,0,0,1,1.63-.86,56,56,0,0,0,12.59-5.27q2.31-1.31,4.6-2.76c.76-.47,1.56-1,2.28-1.47s1.45-1,2.16-1.53Z"/><path class="cls-1" d="M352.53,138.52c-1.89-2.89-3.56-5.86-5.18-8.82-.59-1.08-1.26-2.11-1.85-3.17a94.49,94.49,0,0,0-6.8-10.86,52.58,52.58,0,0,0-3.67-4.34,24.82,24.82,0,0,0-5.22-4.41c-.58-.3-.49-.74.32-1.07a4.28,4.28,0,0,1,3.78.56,22.49,22.49,0,0,1,3.06,2.65c.91,1,1.69,1.91,2.5,2.9a55,55,0,0,1,4.4,6.3c1.58,2.62,3.41,5.22,5,7.91,1.7,2.94,3.33,5.88,5.1,8.73,1.11,1.73,2.23,3.46,3.49,5.07a31.92,31.92,0,0,0,6.41,6.56,18.53,18.53,0,0,0,6.23,2.73c.49.06,1,.1,1.45.19a12.16,12.16,0,0,1,1.89.42,1.65,1.65,0,0,1,.86.88,3.18,3.18,0,0,1,.28.55c.22.57-.61,1.13-2.22,1.26a15.46,15.46,0,0,1-7.06-1.62,22.62,22.62,0,0,1-3.2-1.86c-.5-.36-1-.76-1.45-1.14a14.29,14.29,0,0,1-1.38-1.2,47.87,47.87,0,0,1-6.76-8.17Z"/><path class="cls-1" d="M249.79,81.49a75.88,75.88,0,0,1,19.14-17.87A65.63,65.63,0,0,1,277.35,59a64.74,64.74,0,0,1,16.25-4.53,54.59,54.59,0,0,1,16.83.21,58.87,58.87,0,0,1,7.27,1.79,52.7,52.7,0,0,1,6.92,2.8,47.59,47.59,0,0,1,15.07,11.39,2.76,2.76,0,0,1,.56.79c.05.1,0,.1,0,.18l-.06.15,0,.16c0,.08,0,.11,0,.08s0,0-.07,0a.47.47,0,0,1-.32.08,3.6,3.6,0,0,1-1.1-.23,27.88,27.88,0,0,1-7.14-4.09,51.87,51.87,0,0,0-16-8.28,51,51,0,0,0-18-2,49.26,49.26,0,0,0-11.08,2.07,61.41,61.41,0,0,0-10.56,4.31,67.53,67.53,0,0,0-19.62,15.56A79.43,79.43,0,0,0,247,92.05a88.08,88.08,0,0,0-5.26,10.62,77.88,77.88,0,0,0-3.63,11.24,70.1,70.1,0,0,0-1.84,17.9c.07,1.31.09,2.6.23,3.91.41,4.89.48,6.44-.24,7.66a5,5,0,0,1-.45.81c-.27.3-.62,0-1.06-.89a13.8,13.8,0,0,1-.69-1.69,18.85,18.85,0,0,1-.55-2.45,62.06,62.06,0,0,1-.34-17.19,80.47,80.47,0,0,1,4-17.24,88,88,0,0,1,12.49-23.29Z"/><path class="cls-1" d="M220.06,184.9a31.54,31.54,0,0,1-4.45-13.62,23.15,23.15,0,0,1,0-5.33,28.17,28.17,0,0,1,3.13-8.69A37.4,37.4,0,0,1,224,150a40.84,40.84,0,0,1,5.88-5.36,28.17,28.17,0,0,1,4.36-2.68,15.84,15.84,0,0,1,2.4-.92c.42-.12.82-.26,1.24-.35l1.27-.23c1.06-.16,1,.45.36,1.29a13.55,13.55,0,0,1-3.34,2.86,36.16,36.16,0,0,0-7.46,5.55,39.08,39.08,0,0,0-6.19,7.17,20.88,20.88,0,0,0-2.55,5.19c-.14.47-.3.93-.43,1.4l-.32,1.41a14.26,14.26,0,0,0-.31,2.78,28.2,28.2,0,0,0,2.75,12.48,22.12,22.12,0,0,0,4.53,6.48,18.15,18.15,0,0,0,10.61,5.1,25,25,0,0,0,9.17-1c.66-.17,1.29-.38,2-.6s1.13-.29,1.57-.37a6.29,6.29,0,0,1,1.11-.19,2.08,2.08,0,0,1,1.45.4,3.54,3.54,0,0,1,.55.39c.46.46-.36,1.37-2.18,2.3-.68.3-1.37.63-2.09.89s-1.47.46-2.22.69a21.36,21.36,0,0,1-2.3.52,18.83,18.83,0,0,1-2.39.33,22.91,22.91,0,0,1-9.89-1.14,21,21,0,0,1-6.59-3.76A25,25,0,0,1,220,185Z"/><path class="cls-1" d="M400.45,170.65c-1-3.06-2.18-6.48-1.79-10.35s2.11-6.84,3.66-9.75l2.33-4.23c.72-1.36,1.39-2.81,2.05-4.25a68.15,68.15,0,0,0,3.26-8.85,35.41,35.41,0,0,0,1.29-13.4c-.19-2-.33-4.07-.69-6.08-.16-1-.28-2-.47-3l-.65-3c-.12-.5-.21-1-.34-1.49l-.43-1.46c-.29-1-.55-2-.87-2.92a59.81,59.81,0,0,0-2.27-5.64,46.49,46.49,0,0,0-15.19-18.61,52.68,52.68,0,0,0-19.82-8.46,71.82,71.82,0,0,0-13.81-1.42A68.23,68.23,0,0,0,342.92,69c-1.39.3-2,.38-2.05.14s.54-.72,1.69-1.31A30.47,30.47,0,0,1,355,65a68.56,68.56,0,0,1,14.71,1.14,60.63,60.63,0,0,1,14.15,4.41,50.07,50.07,0,0,1,12.49,8.18,47.88,47.88,0,0,1,9.4,11.62,64.76,64.76,0,0,1,6.63,16.76A85.12,85.12,0,0,1,414,116l.46,4.51a28.85,28.85,0,0,1,.06,4.65c-.43,6.8-2.65,13.21-5.35,19.22-.67,1.49-1.41,3-2.2,4.47s-1.58,2.85-2.32,4.27a35.93,35.93,0,0,0-1.91,4.28,17.9,17.9,0,0,0-.61,2.19,9.76,9.76,0,0,0-.23,2.15c0,3.62,1.69,7.38,2.83,11.24a66,66,0,0,1,2.91,11.87A26.93,26.93,0,0,1,403.83,203a24.27,24.27,0,0,1-6.66,6.7,30,30,0,0,1-8.47,4,42,42,0,0,1-7.06,1.39,51.52,51.52,0,0,1-7.13.2,55.27,55.27,0,0,1-14-2.56l-1.49-.47-1.46-.53c-1-.34-2-.74-2.91-1.16a36.15,36.15,0,0,1-7.22-4,7.21,7.21,0,0,1-2.53-2.81,5.9,5.9,0,0,1-.52-1.16c-.09-.5.6-.45,1.9.06.64.26,1.43.64,2.38,1.08l1.51.76,1.74.84a60.11,60.11,0,0,0,23.41,6.39,46.44,46.44,0,0,0,6.13-.15,38.91,38.91,0,0,0,6-1.12,29.91,29.91,0,0,0,5.58-2.22,22.49,22.49,0,0,0,4.81-3.43A21.43,21.43,0,0,0,404.49,189c0-6-2.09-12.12-4.11-18.29Z"/><path class="cls-1" d="M319.16,132.29c-6.94-5.22-16.53-5.38-24.33-2.28-2.37.94-1.34,4.81,1.06,3.85,6.94-2.75,15.07-2.77,21.25,1.89,2.06,1.55,4.05-1.92,2-3.46Z"/><path class="cls-1" d="M274.14,143.52a85.83,85.83,0,0,0,15.23,7.66c1.95.78,2.79-2.37.87-3.13a81.53,81.53,0,0,1-14.46-7.34c-1.76-1.14-3.39,1.67-1.64,2.81Z"/><path class="cls-1" d="M235.94,328.59a2.56,2.56,0,0,1,1.42-.22l.36.09.38.18a4.11,4.11,0,0,1,.74.44,8,8,0,0,1,.7.52l.33.25.15.13.1.08.76.66,2.92,2.61c.71.63,1.47,1.19,2.18,1.8a80.35,80.35,0,0,0,7.81,6.1,29.93,29.93,0,0,0,3.83,2.12c.42.2.85.39,1.28.56l1.28.55c.42.2.85.35,1.26.58l1.23.71c.51.31.36.59-.25.84a6.59,6.59,0,0,1-1.24.35,4,4,0,0,1-.79.08,3.42,3.42,0,0,1-.81-.16,28.39,28.39,0,0,1-5.46-2.5,38.8,38.8,0,0,1-4.93-3.39c-1.85-1.49-3.88-2.89-5.72-4.45-1-.86-2-1.73-3-2.6L239,332.63l-1.07-.91a2,2,0,0,0-.49-.31c-.2-.05-.34.15-.47.27a1.47,1.47,0,0,0-.17,1.15,10.49,10.49,0,0,0,1.34,3.05,20.71,20.71,0,0,0,2.1,2.85,25.47,25.47,0,0,0,4.05,3.6c.32.22.65.42,1,.63,1.18.8,1.36,1,1.37,1.87,0,.18.05.38.05.57s-.18.54-.61.63a2.62,2.62,0,0,1-1.54-.27,18.19,18.19,0,0,1-4.53-3.15,23,23,0,0,1-3.59-4.28,17.79,17.79,0,0,1-2-3.94A7.76,7.76,0,0,1,234,333L234,332l.08-.91a3.79,3.79,0,0,1,1.86-2.6Z"/><path class="cls-1" d="M375.23,377.92c7.87-6.61,14.45-14.91,17.84-24.57A42.71,42.71,0,0,0,395,346a74.94,74.94,0,0,0,.62-7.7c.18-5.2.05-10.43-.23-15.66-.42-7.63-1.25-15.24-2.26-22.82a268.63,268.63,0,0,0-8.19-39.54,144.92,144.92,0,0,0-7-18.9,68.58,68.58,0,0,0-10.52-16.95,32.18,32.18,0,0,0-6.59-5.75,20.61,20.61,0,0,0-8-3.17,20.84,20.84,0,0,0-8.57.44,26.24,26.24,0,0,0-4.11,1.41,17.69,17.69,0,0,0-3.71,2.08,16.93,16.93,0,0,0-5.95,8.93,31.31,31.31,0,0,0-1,11.06,53.84,53.84,0,0,0,2.07,11.08,47.91,47.91,0,0,0,4.3,10.45c1.18,2,1.77,2.85,1.6,2.9s-1.05-.74-2.3-2.37a38.45,38.45,0,0,1-4.32-7.31,46.18,46.18,0,0,1-2.08-5.36,44.89,44.89,0,0,1-1.4-6.35,38.07,38.07,0,0,1,.08-12.19A20.8,20.8,0,0,1,333,219.1a18.41,18.41,0,0,1,5.25-3.67,30.21,30.21,0,0,1,5.85-2,22.4,22.4,0,0,1,12.46.47,28.18,28.18,0,0,1,10.48,6.56,51.94,51.94,0,0,1,7.58,9.46,106,106,0,0,1,10.05,21.67,230.15,230.15,0,0,1,7.58,27.88c2,9.51,3.51,19.18,4.55,28.81.56,5.29,1,10.6,1.25,15.93s.35,10.66.09,16a56.94,56.94,0,0,1-.9,8.07,49.69,49.69,0,0,1-2.37,7.79,54,54,0,0,1-3.56,7.29,62.64,62.64,0,0,1-4.6,6.67,74.18,74.18,0,0,1-14.39,13.6,106,106,0,0,1-17,10,132.4,132.4,0,0,1-28.25,9.6,102,102,0,0,1-14.76,2.18,65.34,65.34,0,0,1-14.92-.51,40.09,40.09,0,0,1-11.12-3.33,19.23,19.23,0,0,1-2.58-1.36c-.82-.53-1.68-1-2.46-1.58a27,27,0,0,1-4.33-3.94,32.91,32.91,0,0,1-3.49-4.66,41.57,41.57,0,0,1-2.72-5.1,60.47,60.47,0,0,1-3.66-10.9,87,87,0,0,1-1.8-9.9,84.62,84.62,0,0,1-.66-13.29,21.44,21.44,0,0,1,.85-5.88,13.9,13.9,0,0,1,.59-1.74c.71-1.15.7,3.91,1.28,12.88A97.94,97.94,0,0,0,270.59,376c1.85,6.43,4.66,12.77,9.2,17.54a26,26,0,0,0,3.71,3.17l2.1,1.3a8.26,8.26,0,0,0,1.1.59l1.12.53a36.16,36.16,0,0,0,9.62,2.94,68.93,68.93,0,0,0,20.68,0,115.07,115.07,0,0,0,15.32-3.17,125.66,125.66,0,0,0,14.86-5.07,101.64,101.64,0,0,0,26.86-15.89Z"/><path class="cls-1" d="M216,339.81a5.43,5.43,0,0,1-.51-.63,2,2,0,0,1-.22-.31l-.11-.27a5.74,5.74,0,0,1-.29-1,5,5,0,0,1,0-.74,2.94,2.94,0,0,1,.44-1,2.88,2.88,0,0,1,1.56-.95,5.85,5.85,0,0,1,2.2-.06,16.94,16.94,0,0,1,2.76.7l2,.69c.52.19,1,.37,1.53.59,1.76.75,3.46,1.59,5.15,2.43s3.39,1.64,5.1,2.41a45.74,45.74,0,0,0,4.64,1.74,29.28,29.28,0,0,0,5.86,1.29c.51,0,.7.4.19,1a4,4,0,0,1-3.15,1,16.25,16.25,0,0,1-3.4-.66c-1.09-.31-2.15-.67-3.19-1.05a63,63,0,0,1-6.08-2.64c-1.18-.58-2.42-1.1-3.67-1.58l-3.71-1.47-1.48-.58c-.25-.1-.51-.2-.81-.29a2.33,2.33,0,0,0-1-.13.41.41,0,0,0-.37.28c-.05.15.06.26.14.38l0,.05a7.93,7.93,0,0,0,.81.86l.49.44,1,.81c2.12,1.72,4.3,3.41,6.57,4.91,1.75,1.16,3.6,2.12,5.43,3.09.39.22.79.41,1.19.64a5.77,5.77,0,0,1,1.45,1,2,2,0,0,1,.41,1,4.55,4.55,0,0,1,.07.45c0,.22-.2.33-.59.39a3.17,3.17,0,0,1-1.59-.14,28.23,28.23,0,0,1-2.76-1.09c-.88-.43-1.75-.91-2.61-1.41-1.72-1-3.4-2.11-5-3.27q-1.83-1.29-3.61-2.69l-1.85-1.48a40.23,40.23,0,0,1-3.17-2.8Z"/><path class="cls-1" d="M212.86,349.78a22.42,22.42,0,0,1-2.55-2.27l-.35-.39c-.17-.19-.32-.37-.46-.56-.26-.38-.54-.76-.76-1.14a6,6,0,0,1-.64-2.28,3.14,3.14,0,0,1,.1-.74,1.58,1.58,0,0,1,.32-.7,2.25,2.25,0,0,1,1.23-.8,5.49,5.49,0,0,1,2.34,0,12.42,12.42,0,0,1,1.32.28l.33.09.21.07.4.12a48.8,48.8,0,0,1,5.18,2.2l5,2.41c1.47.7,3,1.37,4.44,2l2.85,1.16c.94.38,1.9.84,2.73,1.15.24.08.25.21.29.4s-.1.45-.45.65a4.23,4.23,0,0,1-3.1.21c-2.07-.68-4-1.47-6-2.3s-3.85-1.78-5.74-2.73a32.52,32.52,0,0,0-3.53-1.5c-.6-.23-1.2-.44-1.8-.64l-1.41-.45a3.34,3.34,0,0,0-.74-.16.44.44,0,0,0-.37.12.58.58,0,0,0,0,.37,2,2,0,0,0,.36.76c0,.06.1.12.14.17a4.18,4.18,0,0,0,.31.34,10.24,10.24,0,0,0,.75.72,31.79,31.79,0,0,0,4.11,3.06,66.93,66.93,0,0,0,6.92,3.88c1.85.9,3.75,1.58,5.65,2.34.42.16.84.3,1.26.49,1.54.68,2,1.13,1.92,2a3.68,3.68,0,0,1-.06.59c-.17.6-.95.72-2.12.36a64,64,0,0,1-10.51-4.48,59,59,0,0,1-7.56-4.69Z"/><path class="cls-1" d="M212.28,359a16.64,16.64,0,0,1-4-3,3.3,3.3,0,0,1-.9-2.95,4,4,0,0,1,1.2-.78,4.49,4.49,0,0,1,1.49-.26,11.15,11.15,0,0,1,2.17.22c.68.12,1.4.31,2.08.47l1.35.38,2.36.71,4.66,1.47c1.38.43,2.78.79,4.16,1.12,1.76.44,3.58.9,5.22,1.28.43.07.52.47,0,.91a3.84,3.84,0,0,1-2.66.63c-1-.13-1.91-.29-2.84-.46s-1.84-.45-2.75-.7c-1.82-.51-3.61-1.07-5.4-1.68a30.82,30.82,0,0,0-3.29-.92l-1.75-.39-.62-.12a1.1,1.1,0,0,0-.67.05c-.12.25.11.46.27.65a4.69,4.69,0,0,0,.66.55,28.2,28.2,0,0,0,3.27,1.86,67.2,67.2,0,0,0,6.43,2.89c1.7.65,3.46,1,5.17,1.54.37.11.75.19,1.12.31a3.68,3.68,0,0,1,1.4.68,1.92,1.92,0,0,1,.47.9,2.72,2.72,0,0,1,.11.43c0,.22-.13.38-.46.52a2.61,2.61,0,0,1-1.4.24,32.68,32.68,0,0,1-9.83-2.93,67.52,67.52,0,0,1-7-3.52Z"/><path class="cls-1" d="M225.88,368.39l8.6-1c1.05-.11,2.11-.3,3.18-.37a28,28,0,0,1,3-.07c.52,0,1,.12,1.55.18s1,.21,1.48.36c1.91.57,3.56,1.39,5.23,1.79a9.75,9.75,0,0,0,4.46.07,16.46,16.46,0,0,0,2.78-.92l.69-.3c.23-.08.48-.15.71-.24.48-.18,1-.36,1.45-.52s.79.22.57.95a5.38,5.38,0,0,1-.63,1.29,4,4,0,0,1-.55.69l-.35.32-.42.24a13.79,13.79,0,0,1-7,1.6,21.13,21.13,0,0,1-6.57-2,9.34,9.34,0,0,0-3.43-.75l-.87,0-1,.09-1.94.21c-2.84.29-5.7.7-8.57,1.1-1.78.24-3.56.48-5.39.64-1,.07-3.54.34-4.79-.58a2.22,2.22,0,0,1-.9-2.29,3.77,3.77,0,0,1,1.67-2,17.61,17.61,0,0,1,1.81-1c.49-.23,1-.44,1.47-.65,1-.4,2-.75,3-1.05.45-.13.88-.28,1.35-.38,1.72-.29,2.37-.14,2.79.47a1.85,1.85,0,0,1,.25.37c.14.36-.42.87-1.56,1.27-1.67.65-3.42,1.2-5.07,1.92-.41.17-.81.36-1.2.55-.55.29-.31.18-.36.22h0v0h.15l.84,0c1.16-.08,2.36-.22,3.56-.38Z"/><path class="cls-1" d="M281.37,187.87a4,4,0,0,0-2.59-.81l-.78.05c-.2,0-.43.07-.63.14a3.44,3.44,0,0,0-1.17.66,7.52,7.52,0,0,0-1.39,1.81c-.77,1.24-1.42,2.69-2.15,4.15a21.49,21.49,0,0,1-1.25,2.22,7.68,7.68,0,0,1-.86,1.08,8.26,8.26,0,0,1-1,.88,16.43,16.43,0,0,1-4,2.18,8,8,0,0,1-2.94.59,4.38,4.38,0,0,1-3-1.07c-.51-.49-.05-.7.58-.83s1.36-.35,2.11-.41a11.74,11.74,0,0,0,4.41-1.48,11.24,11.24,0,0,0,1.93-1.36,8.05,8.05,0,0,0,1.39-1.89c1.08-1.83,1.66-4.19,3.15-6.28a6.77,6.77,0,0,1,3.52-2.67,8,8,0,0,1,2.17-.26,6.89,6.89,0,0,1,2.15.33,6.8,6.8,0,0,1,2.35,1.32,8.57,8.57,0,0,1,1.66,2,36.75,36.75,0,0,1,2.81,6.65,17.86,17.86,0,0,0,2.42,4.46,9.07,9.07,0,0,0,.66.71c.72.84.87,1.11.82,2,0,.19,0,.39,0,.56s-.23.5-.62.59a2.41,2.41,0,0,1-1.6-.34,6.66,6.66,0,0,1-2.21-2,13,13,0,0,1-1.36-2.42,50,50,0,0,1-1.68-4.84c-.74-2.28-1.55-4.51-3-5.58Z"/><path class="cls-1" d="M251,209.21a29.26,29.26,0,0,1-1.81-8.6,18.82,18.82,0,0,1,.06-3.27c.07-.48.1-1,.21-1.43l.38-1.41.2-.7.29-.67.6-1.33a5.74,5.74,0,0,1,2.23-2.5,4.47,4.47,0,0,1,3.42-.34,17.53,17.53,0,0,1,4.54,2.27l2.52,1.62a24.89,24.89,0,0,0,2.22,1.45c.29.15.47.77-.26,1.3a3.51,3.51,0,0,1-3.29,0c-1.86-1.12-3.43-2.34-5-3.16a5.36,5.36,0,0,0-2-.7,1.31,1.31,0,0,0-.63.09,1.88,1.88,0,0,0-.68.53,4.27,4.27,0,0,0-.41.56l-.33.76a6.93,6.93,0,0,0-.57,1.6,13.64,13.64,0,0,0-.33,1.69l-.16,1.73a22.39,22.39,0,0,0,1.11,7.73,21.52,21.52,0,0,0,.83,2.33c.27.77.67,1.5,1,2.25a29.86,29.86,0,0,0,4.15,6.26,24.33,24.33,0,0,0,2.07,2c.77.57,1.49,1.19,2.28,1.7.35.22.71.42,1,.66a5.13,5.13,0,0,1,1.26,1,1.59,1.59,0,0,1,.17,1.13,4,4,0,0,1-.1.62c-.17.62-1,.76-2.21.24a23.34,23.34,0,0,1-8.67-7.65,33,33,0,0,1-4.21-7.74Z"/><path class="cls-1" d="M209.12,277.74a171.65,171.65,0,0,1,14-21.81l2.94-3.71c1-1.22,1.91-2.51,3-3.65l2.81-3.08c.95-1,1.85-2.08,2.87-3l3-2.91c1-1,2-1.95,3.07-2.87a76.45,76.45,0,0,1,14-9.16,60.89,60.89,0,0,1,13.89-5.33,27.75,27.75,0,0,1,9.68-.7,14.2,14.2,0,0,1,8.78,4.37c1.34,1.59.72,1.64-.83.95-.78-.34-1.9-.69-3.12-1.09-.65-.14-1.29-.37-2-.48-.36-.07-.71-.17-1.09-.21s-.75-.17-1.14-.23a23.67,23.67,0,0,0-8.7.25,51.54,51.54,0,0,0-8.72,2.69,81.35,81.35,0,0,0-16.31,9,37,37,0,0,0-4.35,3.59l-4.14,4.08c-.7.67-1.36,1.4-2,2.13l-1.94,2.19-1.95,2.18c-.66.72-1.23,1.51-1.85,2.25a147.71,147.71,0,0,0-14.61,21.05l-2,3.42-1.81,3.51c-.6,1.18-1.22,2.34-1.8,3.52l-1.63,3.6a133.55,133.55,0,0,0-8,22.53c-.41,1.49-.66,3-1,4.49s-.61,3-.78,4.49l-.6,4.5c-.11,1.51-.22,3-.32,4.52-.14,1.33-.08,2.63-.1,4s0,2.26-.09,3.12a21,21,0,0,1,0,2.13,5.23,5.23,0,0,1-.63,2.4,4.35,4.35,0,0,1-.46.76c-.51.55-1.17-1.47-1.58-5.24-.55-11.19,1.51-23,5.17-34.12a146.92,146.92,0,0,1,10.22-24.12Z"/><path class="cls-1" d="M172.65,376a41.73,41.73,0,0,1,3.71-13.54c.17-.38.31-.78.5-1.17l.57-1.14c.39-.75.75-1.53,1.19-2.26a38.32,38.32,0,0,1,5.58-7.09,53.68,53.68,0,0,1,6.94-5.56,61.39,61.39,0,0,0,6.11-4.61,28.15,28.15,0,0,0,5.83-7.43c.52-.85,1-.52,1.14.51a6.81,6.81,0,0,1-.13,2,8.94,8.94,0,0,1-1.15,2.51,30.69,30.69,0,0,1-7.66,7.24c-2.78,2-5.55,3.73-8,5.85a30.73,30.73,0,0,0-7.22,9.47l-.77,1.47c-.25.49-.44,1-.66,1.53l-.65,1.53-.33.77-.27.79-.53,1.57c-.17.53-.28,1.07-.43,1.6a33.05,33.05,0,0,0-.67,3.26,36.05,36.05,0,0,0-.41,8.17,31.4,31.4,0,0,0,3,12,25.3,25.3,0,0,0,5.57,7.5,16.3,16.3,0,0,0,1.53,1.34c.49.4.87.77,1.2,1.06a6.9,6.9,0,0,1,.81.75,2,2,0,0,1,.55,1.35,3,3,0,0,1,0,.66c-.1.66-1.28.43-3.06-.62a27.13,27.13,0,0,1-6.74-6.54A31.45,31.45,0,0,1,174,390.2,37.75,37.75,0,0,1,172.59,376Z"/><path class="cls-1" d="M327.07,265.47a49,49,0,0,0-11-20.15,54.85,54.85,0,0,0-6.22-5.77,67.36,67.36,0,0,0-8-5.54c-1.39-.85-2.81-1.65-4.25-2.47-.73-.41-1.45-.82-2.19-1.27a11.84,11.84,0,0,1-1.12-.77,5.74,5.74,0,0,1-.64-.57,5.5,5.5,0,0,1-.52-.83,12.35,12.35,0,0,1-.41-6,22.21,22.21,0,0,1,1.72-5.43c1.88-4.23,4.34-8.14,5.27-12.3a10.7,10.7,0,0,0,.11-3.94,6.23,6.23,0,0,0-1.64-3.31,4.49,4.49,0,0,0-3.22-1.36,7.21,7.21,0,0,0-3.63,1.13c-1.37.93-1.62.48-.67-.91a8.6,8.6,0,0,1,1.05-1.09,7.23,7.23,0,0,1,1.78-1,4.43,4.43,0,0,1,1.19-.32,5.14,5.14,0,0,1,1.37-.08,7.1,7.1,0,0,1,1.47.26,6.89,6.89,0,0,1,1.42.69,8.05,8.05,0,0,1,3.18,4.19,11.69,11.69,0,0,1,.51,5,19.83,19.83,0,0,1-1.1,4.57,43,43,0,0,1-1.83,4.06,73.91,73.91,0,0,0-3.57,7.54,14.65,14.65,0,0,0-.9,3.74l-.06.93c0,.31.05.61.07.92a3.13,3.13,0,0,0,.13.91l.1.45.06.22,0,.14c.05.11,0,.12.35.39a17.8,17.8,0,0,0,2.1,1.35l2.34,1.34c1.59.9,3.2,1.82,4.77,2.81a64.11,64.11,0,0,1,9,6.66,54.74,54.74,0,0,1,8.12,9.21A52.06,52.06,0,0,1,328,259.69a61.93,61.93,0,0,1,3.58,14.58c.27,1.88.35,3.77.48,5.66,0,.94,0,1.89.06,2.84l0,1.41.08,1.33c.22,3.54,2,6.81,4,9.88,1.55,2.39,3.25,4.71,4.81,7.13a43.25,43.25,0,0,1,4.06,7.75l.69,1.82c.2.61.36,1.24.53,1.88,1.11,4.77.7,6.4,0,7.42a3.43,3.43,0,0,1-.5.67c-.29.23-.58-.14-.85-1s-.41-2.11-.8-3.71a34,34,0,0,0-2.18-7,53.57,53.57,0,0,0-3.63-6.67L333.93,297a30.45,30.45,0,0,1-3.82-7.68c-.19-.52-.26-1.09-.4-1.63a8.54,8.54,0,0,1-.26-1.67l-.11-1.7,0-1.49c0-1,0-2-.05-2.93l-.2-2.93A63,63,0,0,0,327,265.5Z"/><path class="cls-1" d="M261.48,247.38c-1,.59-2.1,1.16-3.21,1.69a15.34,15.34,0,0,1-3.63,1.29,4.44,4.44,0,0,1-.86.09,3.26,3.26,0,0,1-1-.16,4,4,0,0,1-.47-.21c-.14-.1-.27-.22-.4-.33a4.08,4.08,0,0,1-.52-.88l-.05-.23a4,4,0,0,1-.09-.95,5.29,5.29,0,0,1,.09-.71,7.07,7.07,0,0,1,.35-1.26,13.76,13.76,0,0,1,1-2.19,29.79,29.79,0,0,1,2.63-3.86c.84-1.08,1.7-2.14,2.62-3.16a21.1,21.1,0,0,1,1.9-1.88,5.72,5.72,0,0,1,1.18-.77,3.45,3.45,0,0,1,1.53-.42c.4,0,.57.21.51.38a7.33,7.33,0,0,1-.4.65,5.4,5.4,0,0,1-1.16,1.8,26.76,26.76,0,0,0-3.45,3.45,44.4,44.4,0,0,0-3.08,4,11,11,0,0,0-1.21,2.3,7,7,0,0,0-.33,1.18,3.49,3.49,0,0,0-.05.53.86.86,0,0,0,0,.25.35.35,0,0,0,.14.23c.11.25,1.35,0,2.36-.46a32.52,32.52,0,0,0,3.08-1.52c1.25-.7,2.48-1.44,3.7-2.22,1.84-1.19,3.68-2.4,5.45-3.69,1.37-1,2.62-2.12,4-3.14.3-.23.59-.46.9-.67a3.42,3.42,0,0,1,1.41-.62,1.49,1.49,0,0,1,.9.23,1.52,1.52,0,0,1,.31.21c.13.12.1.31,0,.58a2.79,2.79,0,0,1-.68,1,58.15,58.15,0,0,1-7.35,5.69q-2.94,2-6.06,3.86Z"/><path class="cls-1" d="M306.43,251.69l-1.07.32-.53.17a2.35,2.35,0,0,1-.42.06,11.64,11.64,0,0,1-1.56.07,10.67,10.67,0,0,1-3-.53c-.34-.12-.69-.21-1-.32s-.67-.26-1-.41a26.44,26.44,0,0,1-6-4.18l-2.35-2.11a19.48,19.48,0,0,1-2.8-2.87c-.24-.34.07-.57.6-.61a2.77,2.77,0,0,1,1.87.57c2,1.74,4.11,3.33,6.08,5.06a14,14,0,0,0,4.13,2.25,11.18,11.18,0,0,0,4.89.81c.23,0,.34-.06.52-.08a2.63,2.63,0,0,0,.48-.11c.13-.05.27-.14.28-.29a.61.61,0,0,0-.11-.39,4.22,4.22,0,0,0-.47-.6c-.28-.31-.58-.61-.88-.91-.6-.62-1.21-1.23-1.82-1.83a16.07,16.07,0,0,1-2.62-3.15,5.08,5.08,0,0,1-.4-.85c-.37-1.14-.22-1.58.11-1.86a1.28,1.28,0,0,1,.23-.19c.27-.12.54.27.91.88a11.84,11.84,0,0,0,1,1.27,15.22,15.22,0,0,0,1.08,1.22c.74.83,1.58,1.65,2.46,2.49l1,1,.52.53.35.37.43.51a2.76,2.76,0,0,1,.67,2.21,2.09,2.09,0,0,1-1.49,1.58Z"/><path class="cls-1" d="M298.43,338.39a106,106,0,0,0,10.39-2.48c1.25-.35,2.45-.83,3.69-1.24,2.14-.72,4.32-1.55,6.52-2.33s4.38-1.54,6.54-2.35c1.92-.73,3.81-1.55,5.63-2.43,1.17-.55,2.3-1.19,3.45-1.78l3.46-1.75c.73-.35.92.11.61.92a6.19,6.19,0,0,1-2.46,2.81,79.63,79.63,0,0,1-15,6.27c-1.54.5-3.08,1.07-4.61,1.69s-3.12,1.25-4.71,1.77a106.15,106.15,0,0,1-10.62,2.89c-2.2.49-4.42.88-6.64,1.26-3.37.56-6.77.94-10.13,1.3-2.62.3-5.18.61-7.79.82-.57,0-1.13.1-1.71.12-2.15.09-2.84-.18-3.28-.87a3,3,0,0,1-.3-.46c-.19-.5.69-1,2.22-1.15,4.56-.45,9.34-.83,14.12-1.39,3.55-.44,7.11-1,10.63-1.68Z"/><path class="cls-1" d="M396.79,368.91c1.91-.67,3.87-1.46,5.72-2.3.67-.32,1.31-.72,2-1.06,2.38-1.2,4.79-2.43,7.18-3.71,1.07-.56,2.09-1.22,3.15-1.78a19.37,19.37,0,0,1,4.24-1.93c.47-.13.57.28.39.84a3.59,3.59,0,0,1-1.35,1.77c-1.3.8-2.53,1.73-3.9,2.46s-2.73,1.5-4.15,2.19c-1.71.82-3.33,1.94-5.07,2.85-1.92,1-3.9,1.85-5.88,2.66-1.23.49-2.47,1-3.73,1.37-1.9.65-3.87,1.13-5.81,1.59-1.51.36-3,.8-4.5,1.07-.34.07-.66.14-1,.18-1.26.13-1.68-.18-2-.77a4,4,0,0,1-.21-.41c-.14-.46.33-.93,1.19-1.28,2.57-.85,5.23-1.29,7.87-2a50.94,50.94,0,0,0,5.83-1.83Z"/><path class="cls-1" d="M319,468.52c-35.2.09-70.34-.65-105.49-1.76-12.83-.44-25.65-.87-38.47-1.61l-8.48-.59c-2.82-.16-5.66-.51-8.49-.77-1.4-.09-2.86-.38-4.3-.6l-3-.47c-.2,0-.16-.21-.22-.33l-.12-.44-.25-.87-.36-1.29c-.76-2.73-1.49-5.48-2.15-8.26a100.33,100.33,0,0,1-2.66-17c-.33-5.74,0-11.68,2.1-17.28a21.09,21.09,0,0,1,4.93-7.52,13.82,13.82,0,0,1,3.92-2.49,28.52,28.52,0,0,1,4.18-1.48,85.47,85.47,0,0,1,17-2.31c11.37-.58,22.69-.22,34,.24,20.05.88,40.16,2.27,60,3.21,12.76.6,25.54,1,38.32,1,6.39,0,12.77-.15,19.13-.47a171.48,171.48,0,0,0,19-1.83c3.9-.65,5.59-1,5.53-.72s-1.9.93-5.18,1.81c-6.54,1.75-19,3.85-33.79,4-13.1.2-26.18-.19-39.24-.76s-26.1-1.35-39.15-2.08-26.09-1.44-39.14-1.68c-6.53-.1-13.06-.12-19.54.22-3.25.18-6.48.44-9.66.88a43.43,43.43,0,0,0-9.23,2.15,12.13,12.13,0,0,0-4.48,2.67,16.5,16.5,0,0,0-3.15,4.43,28.71,28.71,0,0,0-2.69,11,59.93,59.93,0,0,0,.47,11.72A110.83,110.83,0,0,0,150.55,451q.7,2.91,1.52,5.81l.8,2.87.06.23c0,.07,0,.2.12.18l.78.12,2.9.45c1,.12,2,.19,3,.29,2,.18,4,.4,6,.53,8.05.57,16.11,1,24.14,1.34,17.66.79,35.35,1.3,53,1.7s35.39.68,53.09.82c10.89.05,21.78.11,32.66-.06,2.72,0,5.44-.1,8.15-.19,1.35-.05,2.72-.06,4.06-.14l4-.28c5.39-.57,10.78-1.25,16.08-2.25a90.24,90.24,0,0,0,11.86-3,56.12,56.12,0,0,0,11.12-4.91c.85-.52,1.73-1,2.57-1.57l2.42-1.82a26.72,26.72,0,0,0,2.28-2l1.12-1c.37-.35.68-.74,1-1.11a46.83,46.83,0,0,0,7.08-9.82c1-1.75,1.84-3.61,2.71-5.45s1.56-3.76,2.17-5.71,1.23-3.89,1.81-5.84,1-3.95,1.41-6c.87-4,1.53-8,2.07-12.08.29-2,.48-4.05.71-6.07s.35-4.06.43-6.09a230.78,230.78,0,0,0-1.53-37.67c-.7-6.23-1.56-12.43-2.49-18.63s-2.21-12.24-3.66-18.37c-1.28-5.38-2.65-10.61-4.07-16-5.3-20-7.35-26.19-8.28-30.56a25.88,25.88,0,0,0-.9-2.82c-.14-.5,0-.41.45.22a13,13,0,0,1,.86,1.36c.32.6.69,1.33,1.13,2.18a130,130,0,0,1,5.89,16.3c1.69,5.39,3.2,10.86,4.69,16.37s2.9,11.08,4.2,16.72c.65,2.83,1.27,5.66,1.81,8.56.27,1.46.51,2.91.72,4.34l.65,4.31c.85,5.77,1.63,11.59,2.26,17.44a233.25,233.25,0,0,1,1.44,35.63,161.17,161.17,0,0,1-1.9,17.94,125.64,125.64,0,0,1-4,17.7,79.49,79.49,0,0,1-5.19,12.63,51,51,0,0,1-7.91,11.32A44.14,44.14,0,0,1,385,457.6a64.06,64.06,0,0,1-12.66,5.34c-8.73,2.68-17.7,3.85-26.53,4.86l-3.41.25c-1.14.08-2.28.16-3.38.18l-6.7.21c-4.44.05-8.89.16-13.33.16Z"/><path class="cls-1" d="M338.49,404.91a15.06,15.06,0,0,1-1.34,1.73,6.23,6.23,0,0,1-.51.62,11.08,11.08,0,0,1-2.32,1.61c-.38.17-.7.42-1.07.61a2.36,2.36,0,0,1-1.49.51c-.18,0-.28-.56-.3-1.11s0-1.12.22-1.19c.73-.32,1.44-.62,2.29-.94a3.78,3.78,0,0,0,1.19-1.07,10.64,10.64,0,0,0,1.15-1.42,10.93,10.93,0,0,0,.61-1,7.58,7.58,0,0,0,.71-1.62c.1-.44.12-.89.19-1.33a.93.93,0,0,1,.05-.29.63.63,0,0,1,.63-.49,1.6,1.6,0,0,1,.23,0c.24,0,.45.16.58.48a4.09,4.09,0,0,1,.31,1.48,5.43,5.43,0,0,1-.24,1.44,8.14,8.14,0,0,1-.84,2Z"/><path class="cls-1" d="M128.18,442.25c-2.2.09-4.41.13-6.62.18-.8,0-1.61.1-2.41.11-2.85,0-5.69,0-8.54-.07h-3.79a23.82,23.82,0,0,1-4.84-.31c-.5-.1-.39-.54.06-1a3.26,3.26,0,0,1,2.14-.86l4.84-.13c1.62,0,3.25.06,4.89.13,2,.1,4-.14,6-.23l6.64-.3,4.08-.19c2.07-.12,4.14-.2,6.19-.38l4.73-.54a7.28,7.28,0,0,1,1-.08c1.32,0,1.75.24,2,.74.06.11.15.22.19.32s0,.35-.27.52a2.84,2.84,0,0,1-1.06.47,47.58,47.58,0,0,1-8.65,1.24c-2.21.16-4.43.28-6.65.41Z"/><path class="cls-1" d="M115,460.32c3.77.14,7.53.25,11.3.34l4.13,0,14.54.38c2.15.05,4.31,0,6.45.05a60.37,60.37,0,0,1,8.27.36c.87.12.7.54,0,.92a6,6,0,0,1-1.51.52,9.2,9.2,0,0,1-2.13.26q-8.35.1-16.82-.35c-3.37-.18-6.89-.1-10.34-.16l-11.41-.28-7-.22-10.62-.42c-2.74-.1-5.43-.12-8.15-.3l-1.78-.18c-2.25-.25-2.93-.75-3.31-1.2a2.83,2.83,0,0,1-.25-.31c-.07-.15.13-.24.55-.32a6.35,6.35,0,0,1,1.85-.09c2.39.05,4.84.1,7.33.23l7.58.3c3.78.14,7.58.28,11.38.37Z"/><path class="cls-1" d="M87.73,460.55c-7.11-2.24-29.42-49.47-15.11-44.53C81.86,419.21,90.77,463.62,87.73,460.55Z"/><path class="cls-1" d="M76.93,423.44a26.78,26.78,0,0,0-1.82-3.24,9.71,9.71,0,0,0-2.25-2.51,3.7,3.7,0,0,0-2.58-.63,1.07,1.07,0,0,0-.64.59,4,4,0,0,0-.36,1.41,19,19,0,0,0,.54,5.26,68,68,0,0,0,2.82,9.48c1.15,3.12,2.47,6.18,3.88,9.21a82.24,82.24,0,0,0,4.22,7.79c1,1.6,2.05,3.16,3.16,4.65a28.34,28.34,0,0,0,3.51,4.06c.37.31.49.49.43.7s-.42.37-1,.33a4.94,4.94,0,0,1-2.27-.8,9.09,9.09,0,0,1-2.33-2.14,68.42,68.42,0,0,1-6.31-10.11,85.31,85.31,0,0,1-4.76-10.85c-1.57-4.47-3.4-9.07-4.13-14a14.83,14.83,0,0,1-.06-4.27,5.35,5.35,0,0,1,.88-2.29,3.42,3.42,0,0,1,2.37-1.39,5.65,5.65,0,0,1,2.37.3,5.35,5.35,0,0,1,1.09.43,7.4,7.4,0,0,1,1,.64,13.66,13.66,0,0,1,2.77,3.21,48.46,48.46,0,0,1,4.29,8.93,145,145,0,0,1,4.38,14.14c1,3.68,2,7.28,2.71,11,.17.82.35,1.62.47,2.46.43,3.1.3,4.29-.84,5.06-.14.09-.45.09-.5,0a.33.33,0,0,1-.06-.29c0-.13.15-.18.25-.24l0,0,0,.06,0,0a.33.33,0,0,0,0,.12.17.17,0,0,0,0,.07h0s0,0,0,0a.24.24,0,0,0-.13-.11s-.18-.13-.28-.16,0,0-.07,0A11.09,11.09,0,0,1,87,458c-.55-3.18-1.35-6.51-2.16-9.86S83.11,441.4,82.15,438a90.74,90.74,0,0,0-5.27-14.56Z"/><path class="cls-1" d="M97.56,448.37c-6.33-2-27.08-46.46-14.32-42.06C91.46,409.15,100.27,451.11,97.56,448.37Z"/><path class="cls-1" d="M87.27,413.48a31.41,31.41,0,0,0-1.66-3.09,10.16,10.16,0,0,0-2-2.46,3.08,3.08,0,0,0-2.33-.64,1,1,0,0,0-.54.59,4.08,4.08,0,0,0-.3,1.38,19.79,19.79,0,0,0,.58,5,89.93,89.93,0,0,0,6.27,17.55,78,78,0,0,0,3.89,7.35c.91,1.51,1.89,3,2.91,4.41a28.05,28.05,0,0,0,3.23,3.87c.35.29.45.45.39.65s-.39.34-1,.28a6.67,6.67,0,0,1-4.23-2.84,67.46,67.46,0,0,1-5.8-9.54,84.38,84.38,0,0,1-4.4-10.19c-1.47-4.19-3.16-8.5-3.89-13.13a15.33,15.33,0,0,1-.14-4,5.17,5.17,0,0,1,.7-2.15,3,3,0,0,1,2.19-1.41,5,5,0,0,1,2.23.29,5.21,5.21,0,0,1,1.9,1.11,14,14,0,0,1,2.48,3.07A50,50,0,0,1,91.63,418c1.63,4.35,2.92,8.82,4.11,13.25.93,3.45,1.87,6.82,2.61,10.29.17.77.34,1.52.47,2.3.45,2.9.3,4-.62,4.72a.94.94,0,0,1-.23.1c-.11,0-.2,0-.24-.06a.29.29,0,0,1-.08-.26c0-.12.14-.17.23-.23s0,.08-.07.12a.2.2,0,0,0,0,.11c0,.05,0,0,0,0h0l-.06-.07a.61.61,0,0,0-.18-.1l-.17-.09h0s0,0,0,0a10.84,10.84,0,0,1-.5-2.11c-.57-3-1.34-6.11-2.12-9.24s-1.66-6.31-2.57-9.47a92.48,92.48,0,0,0-4.9-13.7Z"/><path class="cls-1" d="M89.1,459.28c-4.17-3.27-23.8-3.3-23-.53C66.7,460.93,71,461,72.69,461A59,59,0,0,0,89.1,459.28Z"/><path class="cls-1" d="M70.42,462.5a15.33,15.33,0,0,1-2-.4l-.27-.07-.39-.14a4.79,4.79,0,0,1-.77-.32,4.89,4.89,0,0,1-1.27-.86,3,3,0,0,1-1-2.39,2.59,2.59,0,0,1,1.76-1.81c.34-.13.72-.25,1.07-.35l1-.23a13.63,13.63,0,0,1,1.41-.19,53.17,53.17,0,0,1,9.63.39c1.41.17,2.82.31,4.22.56a11.85,11.85,0,0,1,5.25,1.87c.49.43.11.66-.48.77a5.83,5.83,0,0,1-2.37,0A97.37,97.37,0,0,0,75.81,458a29.29,29.29,0,0,0-6.49.31l-.59.09a2.05,2.05,0,0,0-.34.07c-.19.06-.53.14-.53.4a.8.8,0,0,0,.4.57,2.15,2.15,0,0,0,.34.17l.19.08.39.1a24.16,24.16,0,0,0,4.35.46,43.83,43.83,0,0,0,6.78-.19A37.53,37.53,0,0,0,85.39,459c.37-.1.72-.22,1.09-.31,1.37-.33,1.85-.23,2.31.35a2.7,2.7,0,0,1,.31.4c.27.47-.2,1.05-1.21,1.47a31.77,31.77,0,0,1-9.82,1.9c-1.27.06-2.54.07-3.82,0s-2.48-.1-3.84-.24Z"/><path class="cls-1" d="M394.78,449.07s21.9-1.89,37.47,6.32c0,0,9.27,9.26-28.63,9.26s-48.63,1-48.63,1S389.42,458.45,394.78,449.07Z"/><path class="cls-1" d="M259.94,293.6a25.21,25.21,0,0,0,6.77.21c1.25-.05,2.55-.1,3.92,0a11.32,11.32,0,0,1,4.28,1A11.46,11.46,0,0,1,279.7,299a14.45,14.45,0,0,1,2,10.33,11.24,11.24,0,0,1-2.2,4.89,10.7,10.7,0,0,1-4.23,3.16,19.17,19.17,0,0,1-19-3.27c-.85-.82-.45-1,.55-.74s2.67.68,4.49,1.26a28.41,28.41,0,0,0,5,1.11,17.35,17.35,0,0,0,4.94-.11,10.58,10.58,0,0,0,4.31-1.7,7.67,7.67,0,0,0,2.72-3.47,8.61,8.61,0,0,0,.57-2.78,11.8,11.8,0,0,0-.32-2.95,11.09,11.09,0,0,0-2.76-5.13,7.3,7.3,0,0,0-2.49-1.71,10.18,10.18,0,0,0-3.12-.6c-2.33-.12-4.83.14-7.44,0a13.22,13.22,0,0,1-4.94-1,8.4,8.4,0,0,1-2.25-1.47,8.16,8.16,0,0,1-1.6-2.12,10.67,10.67,0,0,1-.78-7.49,12.26,12.26,0,0,1,3.77-6.35,16.37,16.37,0,0,1,4.87-2.91,19.24,19.24,0,0,1,5.43-1.26,20,20,0,0,1,2.45-.13c3.08.16,4,.79,4.45,1.54a3.32,3.32,0,0,1,.31.51c.15.53-1.09.67-3.11.68a23.46,23.46,0,0,0-8.76,1.52,13.3,13.3,0,0,0-3.61,2.21,8.82,8.82,0,0,0-2.29,3.29l-.28.69-.16.75a6.35,6.35,0,0,0-.24,1.47,7.67,7.67,0,0,0,.37,2.88,5.37,5.37,0,0,0,1.37,2.22,5.27,5.27,0,0,0,2.31,1.13Z"/><path class="cls-1" d="M265.57,303.72l-3.09-8.53c-.38-1-.83-2.05-1.19-3.1-1.28-3.7-2.37-7.43-3.69-11.07-.59-1.61-1.25-3.2-2-4.75-.9-2-1.87-3.95-2.79-5.93-.28-.62,0-.69.57-.34a6.79,6.79,0,0,1,2.09,2.21c.58,1,1.14,2,1.65,3s1,2.06,1.4,3.11c.89,2.09,1.68,4.22,2.38,6.37.84,2.59,2,5.15,3,7.73l3.31,8.51,2,5.26c1,2.66,2,5.36,2.94,8,.76,2.06,1.61,4.06,2.31,6.14.15.46.33.9.46,1.37.46,1.75.37,2.37-.2,2.9a2.57,2.57,0,0,1-.4.35c-.46.28-1.07-.32-1.59-1.51-.39-.88-.77-1.78-1.11-2.7s-.72-1.83-1-2.76c-.66-1.88-1.32-3.79-2-5.7-1-2.84-2-5.7-3.09-8.55Z"/><path class="cls-1" d="M271,302.5,268.69,294c-.27-1-.62-2-.89-3.07q-1.37-5.49-2.57-11c-.37-1.63-.74-3.27-1.1-4.89-.22-1-.46-2.09-.59-3.16-.07-.53-.14-1.07-.19-1.6s0-1.1,0-1.64.3-.58.66,0a8.89,8.89,0,0,1,1.08,2.65c.22,1,.5,2.06.77,3.1s.5,2.08.76,3.13c.5,2.08,1,4.18,1.53,6.3.57,2.54,1.5,5.09,2.24,7.65l2.51,8.44,1.6,5.18c.83,2.6,1.63,5.23,2.55,7.79.72,2,1.59,3.88,2.35,5.82.17.43.36.84.52,1.28.54,1.63.52,2.22,0,2.79a3.28,3.28,0,0,1-.36.38c-.44.32-1.09-.2-1.7-1.32a46.36,46.36,0,0,1-2.38-5.25c-.68-1.82-1.3-3.69-1.91-5.58-.9-2.8-1.73-5.64-2.57-8.46Z"/><path class="cls-1" d="M292.66,172.07a3.08,3.08,0,0,0,.38,3.27,2.91,2.91,0,0,0,2.81.69c1.77-.42,3.65-2.05,3.63-4a4.2,4.2,0,0,0-5.06-3.66c-2,.55-2.79,2.83-2.67,4.69.15,2.54,2,4.63,4.63,3.46a1.77,1.77,0,0,0,.63-2.4,1.79,1.79,0,0,0-2.4-.62.74.74,0,0,1,.66,0c-.21-.09.23.15.15.16.1.13.1.13,0,0l-.1-.18c-.11-.22.06.37,0-.09,0-.15-.07-.3-.09-.46.08.5,0-.33,0-.52s-.11.33,0-.15l.09-.35a2.09,2.09,0,0,1,.08-.23c-.11.24-.12.28,0,.11l.12-.19c-.17.2-.2.24-.08.1l.15-.15-.19.15c.26,0-.38.15.05,0-.69.26.41-.08-.24,0l.26.07c-.16-.08-.19-.09-.07,0a4.4,4.4,0,0,1,.52.3c-.13-.1-.12-.09,0,0s.14.14,0,0a2.39,2.39,0,0,1,.13.21c-.09-.22-.12-.27-.08-.15s-.08-.42,0,0c-.08-.61-.07.27.06-.27,0,.13-.37.48,0,.11l-.24.26c-.33.34.12,0-.12.1l-.4.24c-.33.18.34-.09,0,0l-.4.1c.3,0,.36,0,.18,0s-.12,0,.2,0c-.29-.11.36.22.13.06a1.1,1.1,0,0,1,.41.42q.17.45.09.18c0,.31,0,.37,0,.17s0-.15,0,.1A6.17,6.17,0,0,1,296,173a1.76,1.76,0,0,0-1.22-2.15,1.78,1.78,0,0,0-2.15,1.22Z"/><path class="cls-1" d="M330.42,176.19a3.1,3.1,0,0,0,.39,3.27,2.87,2.87,0,0,0,2.8.68c1.78-.42,3.66-2,3.64-4a4.22,4.22,0,0,0-5.06-3.66c-2,.56-2.79,2.83-2.67,4.7.15,2.54,2,4.63,4.63,3.46a1.77,1.77,0,0,0,.62-2.4,1.79,1.79,0,0,0-2.39-.63.75.75,0,0,1,.65,0c-.21-.1.24.15.16.15.09.13.1.14,0,0l-.1-.18c-.11-.23.05.37,0-.09,0-.15-.07-.31-.1-.46.09.5,0-.34,0-.52s-.1.33,0-.15l.09-.36a2,2,0,0,1,.08-.22c-.11.24-.12.27,0,.1l.12-.19-.08.1.15-.14-.19.15c.26,0-.39.15.05,0-.7.26.41-.08-.24,0a1.11,1.11,0,0,1,.26.07l-.07,0a2.7,2.7,0,0,1,.52.3c-.13-.1-.13-.09,0,0s.14.14,0,0a2.25,2.25,0,0,1,.12.21c-.08-.22-.11-.27-.07-.15s-.08-.43,0,0c-.08-.61-.07.27.06-.27,0,.12-.37.48,0,.11l-.24.26c-.34.33.12,0-.12.1l-.41.23c-.32.19.35-.09,0,0l-.41.11c.31,0,.37,0,.18,0s-.12,0,.21,0c-.3-.1.36.23.12.07a1.1,1.1,0,0,1,.42.41c.11.31.14.37.08.19,0,.31,0,.37,0,.17s0-.15,0,.1a4.31,4.31,0,0,1,.19-.61,1.76,1.76,0,0,0-1.22-2.15,1.79,1.79,0,0,0-2.16,1.22Z"/><path class="cls-1" d="M310.13,200c1.71,2.24,3.62,4.53,6.36,5.5s5.3.27,7.82-.84c2.05-.91.27-3.92-1.77-3-4.11,1.81-6.86-.1-9.39-3.41-1.35-1.76-4.39,0-3,1.77Z"/><path class="cls-1" d="M227.22,276.64c.9-1.13,1.8-2.27,2.79-3.33.35-.39.66-.82,1-1.19,1.29-1.35,2.64-2.63,4-3.87.61-.56,1.21-1.12,1.79-1.7a11.7,11.7,0,0,1,2.41-2c.58-.32,1,1.52.13,2.28-1.55,1.38-3.08,2.77-4.71,4.13a29.61,29.61,0,0,0-2.65,2.82c-.93,1.07-1.88,2.13-2.79,3.23-.56.67-1.11,1.36-1.64,2.06-.8,1.07-1.59,2.15-2.29,3.27-.55.87-1,1.76-1.5,2.65l-.32.59c-.42.72-.65.9-1,.9a1.09,1.09,0,0,1-.25,0c-.24,0-.26-.44-.06-1a23.46,23.46,0,0,1,2.51-5.2c.78-1.23,1.63-2.42,2.5-3.6Z"/><path class="cls-1" d="M304.33,279.85c-.05-.59-.1-1.18-.18-1.77,0-.21-.1-.42-.13-.63a16.85,16.85,0,0,0-.42-2.23,5,5,0,0,0-.36-.93,5.21,5.21,0,0,1-.55-1.14c-.06-.27,1-.54,1.33-.06a7.35,7.35,0,0,1,.9,2.67c.07.56.27,1.1.38,1.65s.2,1.21.29,1.82c0,.37.09.75.14,1.12.07.56.12,1.13.22,1.68s.23.83.34,1.24c0,.09,0,.18.07.27.07.35,0,.47-.28.61l-.19.09a.46.46,0,0,1-.57-.27,6.85,6.85,0,0,1-.78-2.32c-.1-.59-.18-1.19-.24-1.79Z"/><path class="cls-1" d="M270.35,381.54a36.05,36.05,0,0,0,6,11.4,29.35,29.35,0,0,0,3.35,3.25,33,33,0,0,0,15.06,6.95,46.28,46.28,0,0,0,7.51.83c1.61,0,3.22,0,4.84,0,.8,0,1.61-.05,2.42,0l2.44,0c1,0,.91.31.09.76a14.94,14.94,0,0,1-1.74.77,7.72,7.72,0,0,1-2.55.56,46.1,46.1,0,0,1-20.18-2.76,33.28,33.28,0,0,1-10.83-6.57,33.89,33.89,0,0,1-7.58-11.6c-.49-1.33-1.06-2.63-1.43-4l-.62-2-.51-2a100.1,100.1,0,0,1-2.07-12.55c-.34-3.25-.66-6.44-.84-9.67,0-.72-.09-1.41-.1-2.13-.06-2.66.15-3.5.81-4.06a2.87,2.87,0,0,1,.46-.37c.52-.24.94.84,1.07,2.76.46,5.7.81,11.66,1.55,17.58a64.24,64.24,0,0,0,2.88,12.9Z"/><path class="cls-1" d="M325.53,238.24a33.31,33.31,0,0,1,.12-6.77c.12-.82.19-1.65.38-2.46a18.39,18.39,0,0,1,3.94-7.8,21.24,21.24,0,0,1,2.76-2.69,13.22,13.22,0,0,1,4.2-2.47c.48-.16.58.25.4.82a3.72,3.72,0,0,1-1.34,1.76,21.38,21.38,0,0,0-6.15,6.38,14.8,14.8,0,0,0-1.73,5.28,28,28,0,0,0-.32,6.29c.08,1.3.2,2.61.41,3.91a40.3,40.3,0,0,0,1.34,5.85,44.25,44.25,0,0,0,1.72,4.27c.13.32.28.61.4.93.46,1.17.47,1.6,0,2.08-.11.1-.2.23-.31.32-.37.28-.92-.06-1.42-.88a30.24,30.24,0,0,1-3.27-8.16,45,45,0,0,1-1.21-6.65Z"/><path class="cls-1" d="M219.3,325.1a9.17,9.17,0,0,0,1,1c.44.42.92.78,1,.85s.7.58.78.61l.5.41c.27.2.55.42.65.47s.68.49,1.38.93a16,16,0,0,0,1.62.95c.25.09,1.45.86,1.71,1,.09.05-.22.65-.29.62a5.08,5.08,0,0,1-.93-.39c-.46-.24-2.06-1-2.13-1l-1-.4-.45-.21c-.42-.21-.84-.42-1.25-.64a11.82,11.82,0,0,1-1.15-.66,15,15,0,0,1-1.54-1.22c-.28-.25-.56-.5-.82-.78s-.25-.36-.39-.54.06-.39.3-.67A1.12,1.12,0,0,1,219.3,325.1Z"/><path class="cls-1" d="M206.73,369.22c.42-.22.84-.41,1.27-.6.15-.07.29-.17.45-.24.55-.22,1.13-.4,1.69-.58a5.92,5.92,0,0,0,.73-.31,1.86,1.86,0,0,1,1-.32c.23,0,.35,1.32,0,1.44a9.49,9.49,0,0,1-1.85.55,4.13,4.13,0,0,0-1.1.48c-.4.18-.8.37-1.2.58l-.72.39a8,8,0,0,0-1,.67,7.28,7.28,0,0,0-.67.69l-.13.15c-.19.18-.31.17-.55,0l-.16-.13a.44.44,0,0,1-.13-.55,4.41,4.41,0,0,1,1.22-1.46c.37-.28.78-.53,1.18-.78Z"/><path class="cls-1" d="M195.27,55.92c2.42,5.52,4.53,11.19,7.58,16.42,1.21,2.08,4.45.2,3.23-1.9-3-5.23-5.15-10.89-7.57-16.42-1-2.2-4.2-.3-3.24,1.9Z"/><path class="cls-1" d="M180.47,83.37c5.72.6,11.28,2.2,17.05,2.53,2.41.13,2.4-3.62,0-3.75-5.76-.33-11.33-1.93-17.05-2.53-2.4-.25-2.38,3.5,0,3.75Z"/><path class="cls-1" d="M431.76,61.83a51.14,51.14,0,0,1,5.82-7.06c1.69-1.72-1-4.38-2.65-2.65a56.5,56.5,0,0,0-6.41,7.82c-1.37,2,1.87,3.87,3.24,1.89Z"/><path class="cls-1" d="M443.52,73a41.94,41.94,0,0,1,10.92-4.86c2.33-.61,1.34-4.23-1-3.62a45.66,45.66,0,0,0-11.82,5.24c-2.08,1.22-.19,4.47,1.9,3.24Z"/></g></svg>