<svg xmlns="http://www.w3.org/2000/svg" width="520" height="520" viewBox="0 0 520 520"><defs><style>.cls-1{fill:#231f20;}</style></defs><title>104 Attatched file</title><g id="n.104_Attached_file" data-name="n.104 Attached file"><path class="cls-1" d="M422.22,267.83c0-.21.3-.11.69.17a1.85,1.85,0,0,1,.42.51,3.92,3.92,0,0,1,.06.4c0,.07-.31.76-.22.91s0,.08,0,.1.08.06-.1,0a2.59,2.59,0,0,0-.35-.09c-.1,0-.19,0-.21,0-.19.05.18,0,.55-.67,0-.09,0-.07,0-.08h.06c.08-.2-.11.29-.09.24h0v0s0,.17,0,.06a.07.07,0,0,0,0-.05,1.54,1.54,0,0,0,0-.19s.07.07.14,0a.73.73,0,0,0,.26-.22.13.13,0,0,0,0-.16c-.06-.12.53-.81.67-.89a8.05,8.05,0,0,0,1-.55c.05,0,.06-.1.18-.06a.32.32,0,0,0,.41-.12,1.12,1.12,0,0,1,.48-.27.69.69,0,0,1,.45.06.84.84,0,0,1,.33.37c0,.14.19.23.29.33l.1.12a2.78,2.78,0,0,1,.09,1.2l-.75,1.32c0,.08-.14.1-.23.14s-.18.27-.38.54a4.13,4.13,0,0,1-.46.55c-.25.17-.45.44-.87.41a.36.36,0,0,0-.2.08,2.73,2.73,0,0,1-2.11.18,3,3,0,0,1-1-.43.7.7,0,0,1-.14-.16c-.06-.06-.1-.14-.18-.21a2,2,0,0,1-.62-1.62,3,3,0,0,1,.43-1.2c.09-.17.67-.51.75-.6S422.21,267.9,422.22,267.83Z"/><path class="cls-1" d="M407.35,232.56c-.12-.12.13-.23.59-.26a3.12,3.12,0,0,1,.65,0l.33.14s.32.4.47.52a1,1,0,0,1,.24.36,3.8,3.8,0,0,0,.39.72.22.22,0,0,1,0,.18.37.37,0,0,0,.13.46s0,0,.09,0l.08,0s0,0,0,0-.08.11-.1.13a.74.74,0,0,0-.16.19,1.52,1.52,0,0,0-.11.23.2.2,0,0,0,0,.08.28.28,0,0,0,0,.09h0c0-.08,0,0-.08-.26a.71.71,0,0,0-.15-.22l.06,0s0,0,.1,0,.2.11.25.08a.48.48,0,0,1,.31-.06c.07,0,.2,0,.31.05a.82.82,0,0,1,.31.18c0,.08.17.12.26.17l.09,0a2.4,2.4,0,0,1,.19.56,1.16,1.16,0,0,1-.05.62l-.14.21a1.37,1.37,0,0,1-.17.19l-.32.23a1.84,1.84,0,0,1-.37.19,2.57,2.57,0,0,1-.44.11,2,2,0,0,1-.56,0,.94.94,0,0,1-.41-.18,4,4,0,0,1-.77-.37,3.49,3.49,0,0,1-.52-.42c-.1-.18-.33-.33-.24-.6,0-.05,0-.08,0-.11a2,2,0,0,1-.29-.88,2.7,2.7,0,0,0-.13-.43.32.32,0,0,1,0-.09s0-.08,0-.11c-.1-.33-.06-.68-.18-1,0-.08.16-.49.14-.58S407.4,232.61,407.35,232.56Z"/><path class="cls-1" d="M391,256.46c0-.14.19,0,.39.37a3,3,0,0,1,.2.52c0,.12,0,.23,0,.31s-.22.36-.26.49a.57.57,0,0,1-.2.25,3,3,0,0,0-.43.44.17.17,0,0,1-.12.06.33.33,0,0,0-.29.28s0,0,0,.07,0,.25,0,.25a.47.47,0,0,0-.15.06l-.13.11s0,0,0,.06-.11.11-.12.15,0,.11-.06.23l-.12.22a.42.42,0,0,1-.18.16c-.07,0-.11.09-.16.14l-.06.05a1.49,1.49,0,0,1-.48,0,.81.81,0,0,1-.44-.22,1.92,1.92,0,0,1-.27-.55,2.76,2.76,0,0,1-.1-.69.37.37,0,0,1,.07-.2s0-.23.07-.46a2.15,2.15,0,0,1,.12-.42c.09-.14.12-.31.33-.35a.09.09,0,0,0,.07-.06,1.84,1.84,0,0,1,.53-.51,2,2,0,0,0,.26-.24h.07s.06,0,.08,0c.2-.19.47-.28.66-.48s.39,0,.45-.09S391,256.51,391,256.46Z"/><path class="cls-1" d="M383.22,209.36c.16,0,.18.21,0,.53a1.36,1.36,0,0,1-.3.38l-.24.14a1.68,1.68,0,0,0-.61.11.65.65,0,0,0-.24.16s0,0,0,0l0,0,0-.06a1.1,1.1,0,0,0-.06-.12s0,0,.07.06l.12.05-.26-.11h.06c.11,0,.45-.14.34-.07s0,.08.13.13,0,.05.11,0,.56.32.62.42a3.36,3.36,0,0,0,.37.7s.07,0,0,.13,0,.25.08.31a1.32,1.32,0,0,1,.2.33.8.8,0,0,1,0,.31,1,1,0,0,1-.25.35c-.1.05-.15.19-.22.3l-.08.11a3.41,3.41,0,0,1-1,.18l-.49-.24-.58-.3c-.07,0-.09-.11-.12-.18l-.42-.28a3.17,3.17,0,0,1-.44-.38c-.12-.19-.35-.38-.31-.72a.26.26,0,0,0-.06-.18,1.9,1.9,0,0,1,.17-1.78,2.62,2.62,0,0,1,.58-.67.39.39,0,0,1,.15-.06l.19-.07a2.76,2.76,0,0,1,1.59-.15,3.83,3.83,0,0,1,.63.34C383.08,209.06,383.16,209.37,383.22,209.36Z"/><path class="cls-1" d="M339.09,220.73c-.15,0,0-.16.26-.55a2.58,2.58,0,0,1,.46-.47,1.3,1.3,0,0,1,.36-.1,3.65,3.65,0,0,1,.84.48,1.31,1.31,0,0,1,.41.5,6.63,6.63,0,0,1,.5,1.19.51.51,0,0,1,0,.3,3.36,3.36,0,0,0,0,1c0,.06,0,.12.06.19a1,1,0,0,1,0,.66,1.72,1.72,0,0,1-.28.69c-.16.14-.31.28-.46.4a4.4,4.4,0,0,1-.51.29c-.05,0-.08.07-.17,0a.32.32,0,0,0-.35,0,.82.82,0,0,1-.41,0c-.07,0-.16-.1-.24-.16a.94.94,0,0,1-.13-.39,1,1,0,0,0-.1-.34l0-.12s0-.22.06-.38a1.18,1.18,0,0,0,0-.32c.06,0,0-.27,0-.31s0,0,.07,0-.11-.3-.11-.32-.06-.14.12-.23,0,0,0-.05a2,2,0,0,1,0-.49.75.75,0,0,0-.09-.25s0,0,0-.06,0-.06,0-.07c-.1-.19-.11-.43-.3-.57s0-.34-.06-.36S339.15,220.72,339.09,220.73Z"/><path class="cls-1" d="M321.26,185.59c-.05-.16.2,0,.59.29a5.63,5.63,0,0,1,.5.53l.21.31c0,.06.08.37.17.44a.41.41,0,0,1,.09.12s0,0,.06.05l-.06,0c-.15.06-.13.13-.05.16s0,0,.08,0a.14.14,0,0,1,.2.16,1.09,1.09,0,0,0-.06.5s0,0,0,.1-.05.19,0,.23a.47.47,0,0,1,.07.2,2.33,2.33,0,0,1,0,.27,1.68,1.68,0,0,1-.19.38,1.44,1.44,0,0,0-.18.33l-.06.12a1.94,1.94,0,0,1-.81.27,6.12,6.12,0,0,1-.9-.39c-.06,0-.06-.09-.07-.15a3.55,3.55,0,0,1-.6-.57c-.06-.15-.21-.28-.08-.51a.13.13,0,0,0,0-.11,1.57,1.57,0,0,1-.07-.89c0-.15,0-.3,0-.46s0-.05.06-.07a.33.33,0,0,0,.06-.1,5.63,5.63,0,0,1,.35-.95c0-.09.41-.22.43-.3S321.28,185.65,321.26,185.59Z"/><path class="cls-1" d="M359.77,130c-9.83-1.66-21,2.21-21,2.21-1.9-3.92-1.32-7.61-1-7.82,0,0,3.17-.46,12.08.27C349.88,124.61,358.61,127.23,359.77,130Z"/><path class="cls-1" d="M263.75,137.12l.13-10.92c0-1.33,0-2.66,0-4l.3-14c.06-2.07,0-4.16,0-6.22a47.25,47.25,0,0,1,.32-8c.13-.82.54-.69,1,0a7.08,7.08,0,0,1,1,3.52c0,5.38,0,10.77-.34,16.22-.17,3.25-.05,6.64-.06,10l-.08,11c0,2.25,0,4.51,0,6.76,0,3.42,0,6.85,0,10.24.06,2.64.24,5.22.36,7.82,0,.58.08,1.14.09,1.72.08,2.15-.14,2.83-.74,3.29a2.12,2.12,0,0,1-.39.31c-.42.2-.88-.67-1-2.24-.43-4.65-.55-9.55-.6-14.48l0-11Z"/><path class="cls-1" d="M285.81,172.17l-4.53,0c-.55,0-1.1.07-1.65.07-1.95,0-3.89,0-5.84,0-.86,0-1.72.07-2.57.15a13.59,13.59,0,0,1-3.31.13c-.69-.1.1-2,1.35-2.13a48.8,48.8,0,0,1,6.74-.1c1.36.08,2.76-.1,4.15-.13l4.57-.09,2.81,0c1.42,0,2.85,0,4.26-.09,1.1-.07,2.17-.25,3.26-.32.24,0,.48-.06.72-.07.9,0,1.19.15,1.37.71,0,.13.09.26.12.39.07.43-.3.79-.94.93-.95.21-1.93.36-2.93.48s-2,.12-3,.14l-4.56.07Z"/><path class="cls-1" d="M107.45,197a10.78,10.78,0,0,0-2-1.09c-.26-.09-.54-.17-.81-.24a9.89,9.89,0,0,0-3-.5,5,5,0,0,0-1.33.23,7.77,7.77,0,0,1-1.66.5c-.19,0-.36-.4-.37-.86a1.14,1.14,0,0,1,.49-1.13,7.6,7.6,0,0,1,4.14-.38,8.52,8.52,0,0,0,1.23.2c.41.09.83.13,1.23.25a12.89,12.89,0,0,1,2.5,1.07c.49.26.94.59,1.4.89a19.57,19.57,0,0,1,1.9,1.62l.73.64a5.06,5.06,0,0,1,.71.68,4.38,4.38,0,0,1,.29.34c.29.48.25.71-.15,1-.1.07-.18.15-.28.21a.87.87,0,0,1-1,0c-.84-.59-1.44-1.32-2.23-2a13.78,13.78,0,0,0-1.81-1.39Z"/><path class="cls-1" d="M107.83,317.46c-1.18,0-2.36.14-3.54.08l-1.77,0-1.76-.13c-.42,0-.85-.05-1.28-.07s-.85-.09-1.28-.16a41.47,41.47,0,0,1-4.43-.93,40.05,40.05,0,0,1-4.27-1.51c-1.25-.46-2.43-1.12-3.64-1.66l-2.22-1.28a16.32,16.32,0,0,1-1.92-1.7c-.37-.39-.06-.63.55-.69a3.94,3.94,0,0,1,2.3.48,47.05,47.05,0,0,0,8.84,4,26.24,26.24,0,0,0,6,1.09c1.11.09,2.23.16,3.35.2s2.25.05,3.37-.06l2.08-.15,2.06-.28c1-.13,2.06-.39,3.1-.58s2-.55,3-.85c.75-.3,1.49-.62,2.21-.95s1.41-.77,2.11-1.13c.31-.17.6-.35.91-.51,1.17-.58,1.63-.6,2.19-.21.12.09.27.17.37.26.34.32.06.94-.74,1.61l-.9.75a9.7,9.7,0,0,1-1,.61,21.85,21.85,0,0,1-2.1,1.08c-.73.3-1.47.6-2.22.89s-1.53.47-2.3.7c-1.15.34-2.33.54-3.5.78s-2.37.34-3.56.43Z"/><path class="cls-1" d="M66.91,128a10.64,10.64,0,0,1-3.46-2.64,11.16,11.16,0,0,1-2.06-3.71,15.16,15.16,0,0,1-.7-2.92,10.93,10.93,0,0,1,.67-5.25,11.19,11.19,0,0,1,3-4.25,12.19,12.19,0,0,1,3.91-2.34,8.26,8.26,0,0,1,5.77-.33c.58.21.36.58-.19.95a6.28,6.28,0,0,1-1,.54,3.3,3.3,0,0,1-1.25.32,10.32,10.32,0,0,0-7.85,5,8.19,8.19,0,0,0-.62,5.94A9,9,0,0,0,66.62,125a9.93,9.93,0,0,0,3.95,1.56,20.73,20.73,0,0,0,6.76,0,44.87,44.87,0,0,0,5.13-1.32c.38-.11.74-.24,1.12-.34,1.44-.29,2-.22,2.4.27a2.21,2.21,0,0,1,.29.33c.24.38-.24.89-1.23,1.38a16.51,16.51,0,0,1-2.29,1,21.58,21.58,0,0,1-2.44.75,30.51,30.51,0,0,1-5.23.79,17.66,17.66,0,0,1-8.2-1.28Z"/><path class="cls-1" d="M113.25,144.47a36.21,36.21,0,0,0,3-12.93c.12-1.65,0-3.31,0-5a140.55,140.55,0,0,0-1.49-17.66c-.35-2.61-.81-5.23-1.25-7.83-.27-1.67-.59-3.34-.72-5a16.27,16.27,0,0,1,.17-5.24c.4-1.16.67-.74.85.14a42.12,42.12,0,0,1,1,4.27c1.07,6.64,2.48,13.46,3.1,20.43.36,4.16.88,8.51.89,12.83a44.94,44.94,0,0,1-2,14.15,29.89,29.89,0,0,1-4,8,26.53,26.53,0,0,1-10.31,8.49,44.55,44.55,0,0,1-9.68,3.34c-.73.16-1.46.32-2.22.42a9.16,9.16,0,0,1-3,0,2.17,2.17,0,0,1-1.32-.86,3.2,3.2,0,0,1-.37-.53c-.12-.28.11-.54.59-.78a6.86,6.86,0,0,1,2.17-.62,53.62,53.62,0,0,0,8.46-2,29.77,29.77,0,0,0,7.87-3.71,22.73,22.73,0,0,0,8.1-9.93Z"/><path class="cls-1" d="M123,114.24a12.29,12.29,0,0,0-.78-3.18c-.15-.39-.37-.75-.54-1.14a37.33,37.33,0,0,0-2-4.14,16.48,16.48,0,0,0-1.15-1.71,7.69,7.69,0,0,1-1.45-2.31c-.09-.34.41-.48,1-.54a1.68,1.68,0,0,1,1.49.36,22.22,22.22,0,0,1,2.92,4.6c.46,1,1.17,1.95,1.69,3a18.61,18.61,0,0,1,1.42,3.6,9.69,9.69,0,0,1,.36,2.51,4.5,4.5,0,0,1-1.81,3.73,8.54,8.54,0,0,1-2.76,1.42c-.21.07-.42.15-.64.2-.79.11-1.05-.1-1.22-.94,0-.19-.08-.38-.1-.58a1.34,1.34,0,0,1,.66-1.4c.67-.3,1.28-.57,1.76-.8a2.4,2.4,0,0,0,.84-.64,2,2,0,0,0,.27-.71,4,4,0,0,0,0-1.29Z"/><path class="cls-1" d="M84.72,94.35c-.72,5.5,6,16.41-1.73,20.12-5.88,2.8-11.76-4.19-14.07-7-5,1.61-8.91,7-6.34,13.76a11,11,0,0,0,10.12,7.35c-.13.38-1.48,18.46-12.77,22.93-7.18,2.85-15.76-.75-18.82-7.24-8.69-18.41,7-35.76,4-40.37-3.67-5.65-7.4-11.65-9.47-18.1-1.5-4.69-2.08-10-.64-14.84,1.57-5.26,9.64-18.34,34.27-11.24,5.17-9.87,12.28-18.26,23-22.87,13.4-5.73,29.21-2.79,32.37,14C127.74,67.45,107.43,88.61,84.72,94.35Z"/><path class="cls-1" d="M61.71,60a31.19,31.19,0,0,0-13.38.53,20.82,20.82,0,0,0-5.84,2.89,17.57,17.57,0,0,0-4.4,4.74c-2.33,3.6-2.72,8.26-2,12.69A41.54,41.54,0,0,0,40.7,93.7c1.59,3,3.42,5.93,5.3,8.83l.36.56a4.07,4.07,0,0,1,.44,1,4.37,4.37,0,0,1,.16,1,4.93,4.93,0,0,1,0,.86,12.81,12.81,0,0,1-.6,2.9c-.55,1.76-1.23,3.37-1.87,5-2.31,5.63-4.32,11.32-4.6,17.2a26.84,26.84,0,0,0,.93,8.66,27.23,27.23,0,0,0,1.51,4.1,12.12,12.12,0,0,0,2.39,3.36c3.91,4,10.51,5.41,15.57,2.91a15.4,15.4,0,0,0,6.21-5.71,30.54,30.54,0,0,0,3.59-8.07l.45-1.63.38-1.65.32-1.66.2-1.24.07-.55c-.12-.07-.36,0-.54-.08l-.34-.05c-.23,0-.51-.1-.76-.17a12.91,12.91,0,0,1-1.52-.51,11.46,11.46,0,0,1-2.77-1.61,12.28,12.28,0,0,1-3.79-5,12.59,12.59,0,0,1-1-6.2A10.82,10.82,0,0,1,63.23,110a12.65,12.65,0,0,1,2.44-2.18l.69-.43.36-.2.43-.21a22.47,22.47,0,0,1,2.14-.83A42.65,42.65,0,0,0,72.73,110a19.18,19.18,0,0,0,3.29,2.6,8.49,8.49,0,0,0,3.65,1.31,5.55,5.55,0,0,0,3.49-.9,4.82,4.82,0,0,0,2.11-2.78,10.37,10.37,0,0,0,.19-4c-.3-2.8-1.18-5.64-1.64-8.7-.33-2.26.15-3.39.41-3.25s.49,1.23,1.15,2.92A74.16,74.16,0,0,1,88,104.42a14.49,14.49,0,0,1,.52,5.65,8.21,8.21,0,0,1-1.24,3.37A8.13,8.13,0,0,1,84.4,116,8.82,8.82,0,0,1,79,117a12,12,0,0,1-4.83-1.86,23,23,0,0,1-3.71-3q-.83-.82-1.59-1.68l-.48-.54c-.06-.08,0,0,0-.06h0l-.15.06a9.13,9.13,0,0,0-1.25.8,8.06,8.06,0,0,0-2,2.14,7.93,7.93,0,0,0-1.08,5.62,10.57,10.57,0,0,0,2.65,5.43,8.73,8.73,0,0,0,2.4,1.77,9.85,9.85,0,0,0,1.39.56c.25.07.49.14.74.19a5.92,5.92,0,0,0,.73.12l.91.08.93,1.28.86,1.33-.13,1.07a4.81,4.81,0,0,1-.07.53l-.05.32c-.07.39-.13.77-.21,1.15-.15.77-.31,1.53-.49,2.29-.36,1.52-.82,3-1.32,4.51a29.32,29.32,0,0,1-4.51,8.44,17.12,17.12,0,0,1-8,5.75,16.45,16.45,0,0,1-9.87,0,17.69,17.69,0,0,1-6.11-3.4,16.61,16.61,0,0,1-1.29-1.23c-.39-.44-.78-.9-1.14-1.37a15.41,15.41,0,0,1-1.73-3.11,29.5,29.5,0,0,1-2.43-13.38A46.12,46.12,0,0,1,40,117.59c.73-2.1,1.57-4.16,2.37-6.18.39-1,.79-2,1.11-3a12.1,12.1,0,0,0,.65-2.81,1.88,1.88,0,0,0-.16-1l-1-1.52c-.65-1-1.29-2-1.92-3.07-1.26-2.07-2.46-4.19-3.56-6.38A40.4,40.4,0,0,1,33,79.56,24.24,24.24,0,0,1,33.43,72,17.82,17.82,0,0,1,36.7,65.1a21.35,21.35,0,0,1,12.66-7.82L50.49,57l1.14-.14c.76-.08,1.52-.22,2.28-.25a38.66,38.66,0,0,1,4.57.06l2.27.18c.74.11,1.49.25,2.23.37s1.49.24,2.23.4l2.19.55.81.21c.16,0,.37.13.5.09l.72-1.29c.75-1.3,1.52-2.59,2.35-3.84a54.3,54.3,0,0,1,5.57-7.09,43,43,0,0,1,10.76-8.43,42.43,42.43,0,0,1,6.28-2.79,33.86,33.86,0,0,1,6.72-1.52,27.16,27.16,0,0,1,6.92,0,22.74,22.74,0,0,1,6.67,2A19.1,19.1,0,0,1,124,45.54a26.11,26.11,0,0,1,.9,2.52l.65,2.59a21.44,21.44,0,0,1,.3,5.36A28.88,28.88,0,0,1,123,66.17,45,45,0,0,1,117.35,75a58.31,58.31,0,0,1-7.27,7.47,62.58,62.58,0,0,1-7.32,5.48,49.59,49.59,0,0,1-10.9,5.36,15.49,15.49,0,0,1-5.34,1,11.38,11.38,0,0,1-1.68-.09c-.59-.16.19-.64,2-1.41s4.77-2,8.34-3.8A65,65,0,0,0,110,78.6a53.52,53.52,0,0,0,6.1-6.76,39.8,39.8,0,0,0,4.65-7.76,25.18,25.18,0,0,0,2.23-8.53,19.28,19.28,0,0,0-.25-4.3A26.66,26.66,0,0,0,121.43,47a16.83,16.83,0,0,0-4.93-7,17.07,17.07,0,0,0-7.82-3.49,27.07,27.07,0,0,0-13.19,1.2A38.54,38.54,0,0,0,83.6,44.42a46.17,46.17,0,0,0-9.18,10.31c-.66,1-1.27,2-1.86,3-.29.51-.6,1-.88,1.52l-.8,1.49-.42.77-.21.39s0,.08-.06.07l-.11,0-.22-.06-4.73-1.18a14.24,14.24,0,0,0-1.7-.35L61.72,60Z"/><path class="cls-1" d="M167.32,142.49c-4.75,2.94-9.48,5.89-14,9.09-1.66,1.16-3.24,2.42-4.84,3.65a171.76,171.76,0,0,0-16,14.29l-6.8,6.76a75.77,75.77,0,0,1-9.22,8.12c-1,.74-1.26.19-.78-.93a14.15,14.15,0,0,1,3.3-4.36c6-5.58,11.79-11.54,18-17.2,3.71-3.38,7.6-7,11.73-10.09,4.54-3.43,9.28-6.54,14-9.56,1.44-.93,3-1.85,4.35-2.78a33.39,33.39,0,0,0,3.93-3.19c3.73-3.53,6.68-7.91,9.86-12.08,2.46-3.2,4.79-6.57,8.06-9.22.35-.3.71-.58,1.09-.85a10.27,10.27,0,0,1,1.17-.77,8.65,8.65,0,0,1,3.57-1.29,3.77,3.77,0,0,1,1.05,0,3.22,3.22,0,0,1,1.18.76c.15.24-.12.48-.64.69-.13.06-.28.1-.45.16a5.27,5.27,0,0,1-.53.23c-.39.13-.82.36-1.32.57-2.92,1.42-5.35,4.06-7.64,6.81-.57.68-1.13,1.4-1.7,2.13l-1.71,2.22-3.37,4.53a68.2,68.2,0,0,1-5.51,6.68,36,36,0,0,1-6.85,5.63Z"/><path class="cls-1" d="M192.84,116.42c.83-.77,1.68-1.52,2.59-2.23.33-.25.63-.55,1-.79a11.09,11.09,0,0,1,4.22-1.8,7.43,7.43,0,0,1,2.16,0,3.61,3.61,0,0,1,2.4,1.28c.18.23-.17.53-.62.76a2,2,0,0,1-1.27.31,5.11,5.11,0,0,0-1.67-.33,6.52,6.52,0,0,0-2,.26,7.42,7.42,0,0,0-2.39,1.41,29.61,29.61,0,0,0-2.48,2.05c-.5.45-1,.92-1.46,1.4-.71.73-1.43,1.47-2.09,2.25-.52.62-.93,1.29-1.44,1.94a3.29,3.29,0,0,1-.34.42,1.22,1.22,0,0,1-.62.39.93.93,0,0,1-.6-.19l-.24-.15a.72.72,0,0,1-.18-.43.92.92,0,0,1,.11-.63,20.64,20.64,0,0,1,2.56-3.45c.73-.84,1.52-1.65,2.32-2.46Z"/><path class="cls-1" d="M206.65,115.76a6.94,6.94,0,0,0,1.32-2.07l0-.1v0s0,0,0-.07a.38.38,0,0,0,0-.15.23.23,0,0,0-.26-.14,2.33,2.33,0,0,0-.65.2l-.87.42a34,34,0,0,0-6.19,4.06c-.86.71-1.72,1.44-2.51,2.21-1,1-2,2-2.87,3-.21.27-.49.2-.58-.32a3.08,3.08,0,0,1,.64-2,30.3,30.3,0,0,1,3-3.38,27.44,27.44,0,0,1,3.56-2.78,31.89,31.89,0,0,1,4.79-3,6.14,6.14,0,0,1,.79-.29,4.07,4.07,0,0,1,1.1-.18,2.27,2.27,0,0,1,1.12.24,1.64,1.64,0,0,1,.73.85,3.42,3.42,0,0,1,.18.54l.05.58a2,2,0,0,1-.07.59,2.12,2.12,0,0,1-.12.45,6.63,6.63,0,0,1-.74,1.51,18.81,18.81,0,0,1-2.45,3c-1.32,1.37-2.8,2.54-4.11,3.81a37.5,37.5,0,0,0-2.8,3.13c-.2.24-.37.49-.57.72a2.9,2.9,0,0,1-.89.81,1.24,1.24,0,0,1-.83,0c-.14,0-.29-.07-.4-.12a.55.55,0,0,1-.29-.57,1.73,1.73,0,0,1,.32-1,29.38,29.38,0,0,1,5.41-5.92,34.3,34.3,0,0,0,4.09-4Z"/><path class="cls-1" d="M203.68,135a28.39,28.39,0,0,1-5.18,3c-.63.3-1.25.63-1.89.9-2.25.92-4.45,1.89-6.61,3a30.3,30.3,0,0,0-2.76,1.63c-1.13.75-2.19,1.61-3.22,2.35-.3.24-.52.07-.52-.43a2.59,2.59,0,0,1,.9-1.87,34.15,34.15,0,0,1,7.38-4.46c1.55-.71,3.12-1.6,4.67-2.35a35.79,35.79,0,0,0,4.88-2.68,13,13,0,0,0,2.47-2.15l.19-.21.11-.14a3.06,3.06,0,0,0,.21-.29c.13-.19.25-.49.07-.69a1.11,1.11,0,0,0-.69-.24h-.38l-.59.05a16,16,0,0,0-3.75,1.11l-.79.33c-1,.37-1.25.34-1.76-.14-.11-.11-.25-.19-.37-.29-.44-.31-.11-1.1.67-1.55a12.22,12.22,0,0,1,3.7-1.46,14.62,14.62,0,0,1,2.05-.33,9,9,0,0,1,1.38,0,5,5,0,0,1,1.73.38,2.3,2.3,0,0,1,1.39,1.78,1.88,1.88,0,0,1,0,.58,2.1,2.1,0,0,1-.13.58,1.66,1.66,0,0,1-.29.58l-.38.59a3.86,3.86,0,0,1-.35.52l-.31.35c-.21.24-.42.46-.6.63a14.78,14.78,0,0,1-1.2,1.05Z"/><path class="cls-1" d="M158.32,189.14q5.63-5.13,10.92-10.61c1.28-1.34,2.48-2.74,3.69-4.11,1-1.19,2.1-2.48,3.08-3.73a17.47,17.47,0,0,0,2.4-3.9,9.68,9.68,0,0,0,.73-4.33,27,27,0,0,0-.74-4.67,23,23,0,0,0-3.45-7.63,53.36,53.36,0,0,0-3.43-4.21,19.15,19.15,0,0,0-1.88-1.84,9.19,9.19,0,0,0-2.09-1.42c-.93-.33-.92-.63.21-.86a5.7,5.7,0,0,1,2.33.24,7.9,7.9,0,0,1,2.75,1.63,28,28,0,0,1,3.95,4.45,25.2,25.2,0,0,1,3,5.3,27.1,27.1,0,0,1,1.63,5.82,24.22,24.22,0,0,1,.33,3,12.57,12.57,0,0,1-.27,3.23,18.19,18.19,0,0,1-3.37,6.72c-.72,1-1.43,1.9-2.17,2.84s-1.53,1.85-2.32,2.74c-3.49,3.86-7.16,7.5-10.9,11.07q-3.47,3.28-7,6.45c-3.6,3.2-7.34,6.28-11.14,9.21A82.68,82.68,0,0,1,135.4,211c-.72.43-1.45.81-2.22,1.18a7.89,7.89,0,0,1-3.32.87,2.73,2.73,0,0,1-1-.14,2.53,2.53,0,0,1-.66-.44,3.7,3.7,0,0,1-.44-.4c-.15-.22.1-.45.56-.77a9.06,9.06,0,0,1,.88-.49l.56-.25a6.54,6.54,0,0,1,.65-.32,30,30,0,0,0,4.14-2.18c1.37-.83,2.73-1.74,4.09-2.7,2.71-1.92,5.41-4,8.06-6.16,3.92-3.22,7.8-6.58,11.53-10.08Z"/><path class="cls-1" d="M51.56,225c2.7-8.86,5.4-17.74,8.29-26.57,1.06-3.22,2.08-6.46,3.26-9.65,1-2.82,2.13-5.62,3.48-8.38.35-.7.71-1.38,1.13-2.07a10,10,0,0,1,1.58-2.05,4.08,4.08,0,0,1,.65-.5,5,5,0,0,1,.6-.31,10.07,10.07,0,0,1,1.13-.48,17.5,17.5,0,0,1,2.28-.69,39.68,39.68,0,0,1,9.16-.92,62.41,62.41,0,0,1,9.06.72,52.74,52.74,0,0,1,7.89,1.83,26.13,26.13,0,0,1,3.82,1.55,11,11,0,0,1,3.47,2.57,10.72,10.72,0,0,1,.81,1.14c.23.38.47.74.68,1.12.43.76.84,1.52,1.22,2.29a35.86,35.86,0,0,1,2,4.79,24.85,24.85,0,0,1,1.38,10.31c-.33,2.18-.73,1.75-1.11,0-.13-.44-.26-1-.41-1.55s-.34-1.24-.59-2c-.44-1.4-1-3-1.58-4.76a44.11,44.11,0,0,0-4.16-8.87,5.88,5.88,0,0,0-.57-.79,6.73,6.73,0,0,0-.73-.65,11.17,11.17,0,0,0-1.89-1.15,25.57,25.57,0,0,0-4.49-1.7,58.06,58.06,0,0,0-9.82-1.81,53.48,53.48,0,0,0-10-.13,21,21,0,0,0-5.74,1.25,6.22,6.22,0,0,0-.64.29l-.31.14-.14.1a4.43,4.43,0,0,0-.78.91A19.17,19.17,0,0,0,69,181.54a111.33,111.33,0,0,0-4.61,11.74c-3,8.78-5.75,17.71-8.47,26.64l-5,16.49c-2.5,8.34-5.09,16.69-7.7,24.93-2.05,6.4-4,12.71-6.34,19-.52,1.38-1,2.73-1.63,4.1-2.2,5.08-3.56,6.48-4.79,7.07a8,8,0,0,1-.79.39c-.33.08-.22-.38.1-1.31s.92-2.33,1.7-4.12c2.35-5.32,4.31-11.06,6.27-16.88s3.82-11.79,5.67-17.78c2.73-8.9,5.42-17.87,8.09-26.83Z"/><path class="cls-1" d="M123.7,259.57c-.47-6.42-1.11-12.83-2-19.2-.34-2.32-.77-4.63-1.16-6.94-1.4-8.13-3-16.29-6-23.93-.34-.84-.71-1.66-1.07-2.5s-.83-1.6-1.25-2.39-.91-1.54-1.46-2.22l-.81-1a6.21,6.21,0,0,0-.86-.84,16.47,16.47,0,0,0-2.82-1.75,24.33,24.33,0,0,0-3.11-1.31,34.23,34.23,0,0,0-6.6-1.45c-1.41-.17-1.28-.55,0-1.1a10.08,10.08,0,0,1,6.62-.3,21.24,21.24,0,0,1,7,3.27,12.17,12.17,0,0,1,1.61,1.43c.46.54.82,1.05,1.23,1.58a17.86,17.86,0,0,1,1,1.62l.5.82.43.84a62.44,62.44,0,0,1,4.93,14c1.37,5.7,2.75,11.61,3.71,17.49,1,6.47,1.8,13,2.39,19.48.37,4,.65,8,.87,12,.34,6.08.49,12.2.52,18.24,0,4.71.1,9.32-.17,14-.08,1-.09,2-.22,3.08-.4,3.85-1,5.05-1.87,5.69-.19.15-.38.36-.52.44s-.38-.21-.52-.94a4.29,4.29,0,0,1-.07-1.33,17.41,17.41,0,0,1,.08-1.82,254.75,254.75,0,0,0,.47-25.49c-.15-6.46-.46-13-1-19.43Z"/><path class="cls-1" d="M79.45,301a158,158,0,0,1-1.79-22c0-2.67-.12-5.34-.09-8,.15-9.42.77-18.8,1.69-28.15.42-4.15.86-8.32,1.38-12.42.33-2.64.68-5.28,1.14-7.91.23-1.32.51-2.63.83-3.93a25.65,25.65,0,0,1,1.21-3.89,2.62,2.62,0,0,1,.5-.85c.15-.16.25-.2.31-.14s.08.2.07.42,0,.49,0,.86c-.09,1.41-.2,4-.64,7-1.69,10.59-2.61,21.35-3.54,32.18-.54,6.49-.59,13.27-.55,19.92a187.45,187.45,0,0,0,1.29,21.85l.47,3.33.58,3.3c.25,1.09.46,2.19.73,3.27l.43,1.62a2.91,2.91,0,0,0,.13.47l.45.29a33,33,0,0,0,19,5.21,42.27,42.27,0,0,0,14.87-3.48c1-.44,2-.9,3-1.4,3.79-1.81,5-2.47,6.07-2.44a4.44,4.44,0,0,1,.74,0c.3.08.13.43-.43,1a15.79,15.79,0,0,1-2.9,2.26,41,41,0,0,1-13.6,5.59,39.22,39.22,0,0,1-15.28.46,34.88,34.88,0,0,1-10.91-3.79l-2.7-1.68-.57-.35a3.2,3.2,0,0,1-.21-.64l-.27-1-.35-1.38c-.44-1.83-.83-3.67-1.14-5.52Z"/><path class="cls-1" d="M96.94,332.78a17.7,17.7,0,0,0-1.21-3.3c-.17-.42-.4-.83-.57-1.26a14.56,14.56,0,0,1-1-5,9.42,9.42,0,0,1,.31-2.35A4.42,4.42,0,0,1,96,318.31c.26-.19.59.23.82.75A1.89,1.89,0,0,1,97,320.5a6.71,6.71,0,0,0-.74,4.28,10.17,10.17,0,0,0,1,3c.48,1.13,1,2.21,1.5,3.46a7.06,7.06,0,0,1,.56,2.54,3.48,3.48,0,0,1-.64,2.09A3.41,3.41,0,0,1,97,337.26a5,5,0,0,1-3.36-.22,5,5,0,0,1-.63-.28c-.73-.42-.78-.79-.41-1.47.09-.15.16-.31.26-.45a1.25,1.25,0,0,1,1.34-.53,13,13,0,0,0,1.72.42,1.1,1.1,0,0,0,.35,0,.32.32,0,0,0,.24-.11,1.22,1.22,0,0,0,.43-.6,2.48,2.48,0,0,0,0-1.21Z"/><path class="cls-1" d="M117,335a20.26,20.26,0,0,1-.41,4.86,9.32,9.32,0,0,1-.53,1.81,6.55,6.55,0,0,1-2.15,2.66,7.17,7.17,0,0,1-1.51.77,5,5,0,0,1-1.69.27,9.61,9.61,0,0,1-2.77-.43,7.69,7.69,0,0,1-3.09-1.54c-.28-.24,0-.52.42-.7a2.41,2.41,0,0,1,1.62-.07,12.94,12.94,0,0,0,2.87.81,5.92,5.92,0,0,0,1.32,0,5.61,5.61,0,0,0,.59-.13c.2-.07.43-.16.63-.25a4,4,0,0,0,1.91-2.71,14.06,14.06,0,0,0,.4-4.21c0-.91-.08-1.83-.17-2.75-.15-1.4-.3-2.82-.52-4.23-.17-1.09-.49-2.16-.6-3.33a4.82,4.82,0,0,1,0-.77c0-1,.32-1.34,1-1.38a2.3,2.3,0,0,1,.45,0,1.1,1.1,0,0,1,.91,1c.38,1.68.69,3.6,1,5.63.2,1.5.37,3,.47,4.64Z"/><path class="cls-1" d="M97.64,340.87a10.08,10.08,0,0,1-2.61-.21,5.27,5.27,0,0,1-1-.26,3.79,3.79,0,0,1-2.32-2.79,2.66,2.66,0,0,1,.21-1.74,1.83,1.83,0,0,1,1.9-1c.22,0,.17.41.08.8,0,.2-.1.4-.15.56s-.06.31-.11.34-.09.15-.06.2a.85.85,0,0,0,0,.17,1.7,1.7,0,0,0,.16.82c.18.43.7.62,1.2.77a6.13,6.13,0,0,0,2,.24,8.15,8.15,0,0,0,1.29-.12,7.34,7.34,0,0,0,1.9-.58,4.89,4.89,0,0,0,1.16-.87l.21-.21c.28-.2.49-.11.88.06l.26.11c.27.13.39.46.27.94a3.79,3.79,0,0,1-1.13,1.47,4.34,4.34,0,0,1-1.55.84,10.82,10.82,0,0,1-2.53.51Z"/><path class="cls-1" d="M104.58,343.29a14.16,14.16,0,0,1-2.69.22,7,7,0,0,1-1-.05,4.59,4.59,0,0,1-.88-.24,4.74,4.74,0,0,1-.83-.38,3.49,3.49,0,0,1-1.45-1.25,1.54,1.54,0,0,1-.21-1,1.87,1.87,0,0,1,.4-.81,4.12,4.12,0,0,1,1.52-1.14c.18-.08.22,0,.17.24a2.3,2.3,0,0,1-.33.79,2.16,2.16,0,0,0-.38.69.47.47,0,0,0,0,.41,2,2,0,0,0,.61.54,4.27,4.27,0,0,0,1.84.39,9.08,9.08,0,0,0,2.25-.14,11.53,11.53,0,0,0,1.41-.33,12,12,0,0,0,2.09-.8,12.85,12.85,0,0,0,1.45-.94,3.62,3.62,0,0,1,.33-.2.65.65,0,0,1,.93.19c.07.08.14.15.2.23a.72.72,0,0,1-.08.91,4.92,4.92,0,0,1-1.25,1.16,6.36,6.36,0,0,1-1.53.8,17.65,17.65,0,0,1-2.53.77Z"/><path class="cls-1" d="M72.23,306c.36,4,.75,8,1.2,11.94l.54,4.34c.29,2.55.58,5.11.91,7.65.16,1.28.34,2.55.53,3.82l.26,1.69.07.44,0,.12.1,0,.21-.07.39-.12.85-.25c.56-.16,1.14-.29,1.71-.41a26.89,26.89,0,0,1,3.49-.49c1.52-.07,3,0,4.44.09s2.87.2,4.31.26c.89,0,.81.3.06.7a8.71,8.71,0,0,1-1.59.63,6.85,6.85,0,0,1-2.33.31c-1.51,0-3-.1-4.38-.05a26.35,26.35,0,0,0-4.15.62l-1,.26-.51.14-.25.07-.49.17c-.34.1-.69.25-1,.33l-.64-.36-.12-.07,0,0h0c-.39.66-.11.18-.2.32h0l-.06-.08-.21-.32-.21-.32-.1-.17,0-.26-.29-1.68c-.06-.38-.1-.75-.16-1.12l-.29-2.25c-.42-3.58-1-7.26-1.51-10.91-.5-4-.94-8-1.35-12l-.72-7.42c-.37-3.75-.64-7.53-1-11.25-.24-2.9-.6-5.74-.7-8.64,0-.64-.07-1.26,0-1.92l0-.84,0-.36,0-.17s0,0,0-.07c0-.29,0-.62,0-.88a4.12,4.12,0,0,1,.24-1.15c0-.08,0-.11.09-.21s-.08.07-.09.11-.13.05-.19-.07-.06,0,0-.23l.07-.08a.39.39,0,0,1,.24-.06.47.47,0,0,1,.2.09l.1.1a2.11,2.11,0,0,1,.25.27,4.06,4.06,0,0,1,.89,2c.11,1.29.21,2.59.32,3.9s.27,2.6.38,3.92c.22,2.65.45,5.33.67,8,.36,4,.7,8,1.11,12Z"/><path class="cls-1" d="M139.84,325l0-12.41,0-4.52.13-16c0-2.36,0-4.73-.06-7.07a62.58,62.58,0,0,1,.21-9.07c.17-1,.41-.76.71,0a15.44,15.44,0,0,1,.54,1.63c.08.33.19.7.26,1.09a12.21,12.21,0,0,1,.1,1.24c.09,3.07.2,6.13.23,9.21s0,6.15-.1,9.25c-.1,3.7.07,7.56.11,11.34l.05,12.5c0,2.57,0,5.14,0,7.7v1.76c0,.75,0,1.54,0,2.25-.52-.07-1-.12-1.56-.16l-.76,0-.51,0c-.69,0-1.39,0-2.08,0-1.39,0-2.78.09-4.17.17-3,.19-5.9.52-8.85.77-.64.06-1.28.13-1.93.18a14.9,14.9,0,0,1-2.59,0,3,3,0,0,1-1.19-.47,3.62,3.62,0,0,1-.37-.22c-.12-.12.06-.25.49-.46a7.33,7.33,0,0,1,2-.62c2.62-.49,5.33-.79,8.08-1.09s5.56-.39,8.4-.46c.72,0,1.45,0,2.18,0h.64V325Z"/><path class="cls-1" d="M132.69,271.86l1.72.19c.21,0,.42,0,.63,0,.73.12,1.46.24,2.19.33a6.31,6.31,0,0,0,1,0,3.24,3.24,0,0,1,1.24.07c.26.08-.07,1.21-.54,1.27a9.41,9.41,0,0,1-2.54-.08,9,9,0,0,0-1.56,0c-.57,0-1.14-.05-1.71-.08l-1.05,0a14.06,14.06,0,0,0-1.59,0c-.41.05-.8.17-1.2.24a.78.78,0,0,1-.26,0c-.34,0-.45-.14-.55-.51a1.83,1.83,0,0,1-.06-.25.65.65,0,0,1,.3-.69,3.38,3.38,0,0,1,1.1-.5,7.72,7.72,0,0,1,1.17-.11c.58,0,1.16,0,1.74.05Z"/><path class="cls-1" d="M74.27,273.08c-.57,0-1.13,0-1.7,0-.21,0-.41,0-.62,0L69.74,273a7.87,7.87,0,0,0-1,0,2.69,2.69,0,0,1-1.26,0c-.26-.09.11-1.37.55-1.4a12,12,0,0,1,2.46.05,8,8,0,0,0,1.54-.06c.56,0,1.13,0,1.7,0h1.06c.53,0,1.07,0,1.6-.06a10.19,10.19,0,0,1,1.22-.16l.27,0c.34,0,.45.13.52.42a1.6,1.6,0,0,1,0,.21.52.52,0,0,1-.35.53c-.35.16-.7.32-1.06.45s-.74.1-1.11.13c-.56.05-1.12.06-1.69.09Z"/><path class="cls-1" d="M67.24,315.78c-.36-3.48-.64-7-1-10.44-.12-1.27-.31-2.53-.43-3.8l-1.17-13.42c-.2-2-.43-4-.69-5.93a62.31,62.31,0,0,1-.79-7.56c0-.79.41-.77,1-.17a6.63,6.63,0,0,1,1.57,3.2c.38,2.58.71,5.15,1,7.74s.45,5.18.6,7.8c.17,3.13.65,6.35,1,9.53l1,10.51.61,6.47c.33,3.26.64,6.54,1.06,9.76.32,2.51.77,4.95,1.2,7.41.1.54.2,1.06.3,1.61.34,2,.33,2.62-.07,3.17a2.37,2.37,0,0,1-.26.37c-.16.15-.35,0-.58-.3a5.58,5.58,0,0,1-.66-1.67c-.54-2.21-1-4.47-1.33-6.78s-.74-4.65-1.07-7c-.48-3.49-.9-7-1.33-10.5Z"/><path class="cls-1" d="M82.51,336.92l2.23-.13c.27,0,.54-.06.81-.07a21.71,21.71,0,0,1,2.9.12l1.3.08a3.27,3.27,0,0,1,1.66.39c.16.1,0,.38-.22.63a1.07,1.07,0,0,1-.79.46c-.94-.12-2-.14-3-.27a10,10,0,0,0-2,.07l-2.2.14-1.35.13c-.68.08-1.37.14-2,.27-.52.11-1,.27-1.53.4a1.41,1.41,0,0,1-.35.05c-.43,0-.59-.1-.72-.35a1.4,1.4,0,0,1-.09-.17c-.07-.17.07-.4.36-.59a6.2,6.2,0,0,1,2.81-.93c.74-.12,1.48-.19,2.22-.27Z"/><path class="cls-1" d="M126,335.51c1.08,0,2.16-.08,3.26-.15.39,0,.78-.11,1.18-.13,1.42-.07,2.84-.12,4.26-.13l1.9-.07a8.6,8.6,0,0,1,2.42.18c.24.07.19.37,0,.67a1.64,1.64,0,0,1-1.06.67,33.72,33.72,0,0,1-4.74.2,21.16,21.16,0,0,0-2.94.33c-1.09.12-2.19.24-3.29.34l-2,.16-3.11.16-2.41.23c-.18,0-.35,0-.53,0-.66-.13-.86-.29-.94-.84,0-.11-.05-.21-.06-.3a1,1,0,0,1,.75-.84,4.35,4.35,0,0,1,1-.23c.35-.06.69-.09,1-.12.7-.09,1.4-.06,2.11-.09,1.05,0,2.13-.05,3.21-.11Z"/><path class="cls-1" d="M43.44,294.25c-1.6-.62-3.23-1.19-4.86-1.67a27.35,27.35,0,0,0-4.89-1,7.48,7.48,0,0,0-1.65,0,2.64,2.64,0,0,0-.62.16.54.54,0,0,0-.25.14.32.32,0,0,0-.1.18.45.45,0,0,0,0,.11s0,.15,0,.23c.15.46.26.94.45,1.41a15.19,15.19,0,0,0,1.54,2.73,30.09,30.09,0,0,0,4.39,4.88,53.17,53.17,0,0,0,4.65,3.67c1,.72,2.1,1.4,3.17,2.08s2.11,1.42,3.11,2.2c.63.49.37.77-.45.82a6.79,6.79,0,0,1-3.51-.8,56.55,56.55,0,0,1-6.62-4.48,35.69,35.69,0,0,1-5.71-5.81,26,26,0,0,1-2.69-4.36c-.19-.39-.31-.84-.47-1.27a3.85,3.85,0,0,1-.28-1.63,2.59,2.59,0,0,1,.86-1.78,3.62,3.62,0,0,1,1.59-.8,9.35,9.35,0,0,1,3-.14,24.26,24.26,0,0,1,2.75.41A47.52,47.52,0,0,1,42.11,291c2.11.68,4.17,1.46,6.21,2.29,3.09,1.25,6.09,2.73,9,4.23,2.29,1.17,4.59,2.27,6.78,3.67.49.3,1,.6,1.44.95a5.11,5.11,0,0,1,1.62,1.7,1.58,1.58,0,0,1,.13,1.29,3.54,3.54,0,0,1-.15.51c-.22.39-1.16.16-2.36-.58A97.9,97.9,0,0,0,53,298.46c-3.13-1.47-6.31-2.94-9.57-4.14Z"/><path class="cls-1" d="M63.74,373.19c-1.14,3.54-7,57.89-1.36,101.49,27.52,7.08,49-2.39,49.87-5,4.36-12.85-10.35-116.26-9.31-126.26,0,0-4.13.66-5.51-1.58a5.15,5.15,0,0,1-5.5-1.42S79.14,339,72.24,342c-.36.16-.7.32-1,.5,0,0-3.22-25-4.84-36.1-.79-5.42-15.53-9.63-15.53-9.63-5.3,13.15-13,125.85-8.21,178,1.16,1.62,13.32,1.83,19.74-.08C62.38,474.68,59.17,395.45,63.74,373.19Z"/><path class="cls-1" d="M43.84,336.4c.71-7.95,1.49-15.89,2.53-23.82.52-4,1.1-7.92,1.93-11.9.09-.5.22-1,.35-1.5l.19-.75.1-.41c.05-.2.14-.43.21-.64l.44-1.3.22-.64.11-.32c0-.09.07-.06.12,0l.17.05c.87.25,1.74.5,2.61.79a60.66,60.66,0,0,1,5.75,2.23A31,31,0,0,1,64,301.21a12.27,12.27,0,0,1,2.46,2.29,6.31,6.31,0,0,1,1,1.62,4.61,4.61,0,0,1,.28,1c.06.31.08.51.11.77l1.56,11.85,2.9,21.92a3.49,3.49,0,0,1,.34-.15l.51-.19.85-.24a14.49,14.49,0,0,1,1.7-.41c.56-.13,1.13-.22,1.69-.31a58.34,58.34,0,0,1,10.12-.47c.84,0,1.68.07,2.52.13l1.25.1,1,.09a1.17,1.17,0,0,1,.27,0l.17.17.36.35.17.18.1.07.18.15c.12.1.26.16.38.25a3.58,3.58,0,0,0,.84.33,4,4,0,0,0,.92.13l.48,0a4.16,4.16,0,0,0,.73-.14l.91.23c.29.13.48.23.86.37l.26.28.17.11a2.84,2.84,0,0,0,.39.21,5.72,5.72,0,0,0,1,.27c.19,0,.37.05.56.06l.28,0h.52c.78,0,1.65-.18,2.47-.28a50.77,50.77,0,0,0,.06,6.75c.12,1.8.26,3.6.41,5.4,1.72,19.21,4,38.42,5.83,57.66,1,9.62,1.84,19.25,2.54,28.9.33,4.82.63,9.66.78,14.5.07,2.43.13,4.86.06,7.3,0,1.22-.1,2.45-.18,3.67-.06.62-.15,1.24-.23,1.86a6.65,6.65,0,0,1-.19,1l-.25,1a2.82,2.82,0,0,1-.81,1.1,8.18,8.18,0,0,1-.87.65,15.61,15.61,0,0,1-1.76,1,33.82,33.82,0,0,1-3.63,1.55,58,58,0,0,1-7.52,2.14,78.47,78.47,0,0,1-29.3.52c-1.21-.2-2.42-.43-3.62-.69-.6-.12-1.19-.26-1.79-.4l-1.07-.26-.67-.16-.34-.08c-.08,0-.07-.07-.08-.13v-.17l-.87-7.71c-.45-4.83-.85-9.67-1.08-14.49-.65-12.4-.72-24.84-.32-37.26s1.22-24.83,2.79-37.15a38.59,38.59,0,0,1,.73-4.17c.27-.91.44-1.28.53-1.19a4.13,4.13,0,0,1,.06,1.53c0,.91-.08,2.19-.13,3.83-.27,6.56-.78,18.54-1.38,32.74a408.84,408.84,0,0,0,1.28,57.3l.39,3.56.15,1.39s0,0,.07,0c2.29.58,4.61,1,6.94,1.38a78.35,78.35,0,0,0,14.11.89,71,71,0,0,0,14-1.75,52.36,52.36,0,0,0,6.74-2,29.2,29.2,0,0,0,3.17-1.39,12.72,12.72,0,0,0,1.41-.82,4.77,4.77,0,0,0,.56-.43,2.09,2.09,0,0,0,.18-.18,15.17,15.17,0,0,0,.38-1.94l.14-1.07.07-1.11c.12-1.47.12-3,.15-4.49,0-3-.08-6.06-.22-9.11-.27-6.1-.71-12.22-1.19-18.34-1.17-14.63-2.75-29.54-4.37-44.52q-1.22-11.25-2.43-22.54c-.38-3.76-.77-7.52-1.1-11.29-.16-1.88-.32-3.77-.44-5.67-.07-.94-.11-1.9-.15-2.85l0-1.18a2,2,0,0,0,0-.43l-.28,0h-.36a8.67,8.67,0,0,1-1.91-.29,4.93,4.93,0,0,1-1.11-.44,3.87,3.87,0,0,1-.93-.65,1,1,0,0,1-.13-.16l-.2.05h-.07l-.21,0-.48,0a6.54,6.54,0,0,1-1,0,6,6,0,0,1-1.94-.52,5.46,5.46,0,0,1-.89-.49l-.4-.31-.19-.16-.1-.08-.13-.14s-.1,0-.14,0l-.65-.06c-2.16-.17-4.33-.25-6.5-.22a47.37,47.37,0,0,0-6.43.48c-.53.08-1,.16-1.56.28a14.87,14.87,0,0,0-1.53.38l-.76.21-1,.38c-.86.38-1.69.8-2.52,1.21q-2.5-18.84-5-37.69a5.79,5.79,0,0,0-2.31-3,22.52,22.52,0,0,0-3.72-2.3c-1.33-.68-2.7-1.28-4.1-1.83-.7-.27-1.41-.53-2.12-.78l-1-.34-.46-.15c-.21-.14-.22.1-.27.25l-.08.23c0,.09,0,.11-.09.3-.17.73-.38,1.44-.52,2.18l-.45,2.22-.39,2.24c-.5,3-.91,6-1.29,9-2.54,20.91-4,42-5.09,63.05-.8,16-1.36,32-1.52,47.94s0,31.95,1.31,47.72l.08.9c-.06.26.23.35.4.44l.34.11c.17,0,.34.09.52.12.35.08.71.14,1.08.19a37.23,37.23,0,0,0,4.5.29,53.07,53.07,0,0,0,9-.69l1.1-.21.53-.12.3-.08.3-.08s.11,0,.13-.05v-.15l0-.65-.18-4.58c-.11-3.05-.22-6.09-.32-9.14-.4-12.17-.71-24.32-.79-36.52,0-2.69,0-5.35,0-8s.06-5.33.09-8c.46-20.1,1.5-26.53,2.66-30.73.28-1,.61-2.21.83-2.74.36-.91.3.68-.1,4.26-.12,1.81-.27,4.13-.46,6.91s-.3,6-.37,9.7c-.32,10.87-.18,21.9-.07,33s.4,22.41.76,33.75l.3,8.52.18,4.94,0,1v.26c0,.06-.15.06-.23.09l-.5.14c-.66.18-1.36.38-2,.53s-1.47.3-2.21.43a55.64,55.64,0,0,1-8.83.63,42.67,42.67,0,0,1-4.48-.26,15.55,15.55,0,0,1-2.36-.43l-.43-.13c-.17-.06-.32-.14-.49-.21a2.73,2.73,0,0,1-.86-.54c-.23-.23-.53-.45-.57-.79l-.15-.46,0-.53-.37-4.5-.28-4.33c-.16-2.88-.31-5.77-.41-8.66-.23-5.77-.31-11.55-.38-17.34-.13-17.18.3-34.38,1-51.58s1.8-34.38,3.27-51.53Z"/><path class="cls-1" d="M131.91,270l1.42.15.51,0c.6.1,1.2.2,1.8.28a5.38,5.38,0,0,0,.8,0,2.7,2.7,0,0,1,1,.05c.21.07-.06,1-.45,1.08a7.26,7.26,0,0,1-2.08-.07,6.84,6.84,0,0,0-1.28,0c-.46,0-.93-.05-1.4-.07l-.86,0a9.52,9.52,0,0,0-1.31,0c-.33,0-.65.15-1,.21a1.43,1.43,0,0,1-.22,0c-.27,0-.37-.12-.45-.44a1.6,1.6,0,0,1-.05-.21.58.58,0,0,1,.24-.59,3.05,3.05,0,0,1,1.85-.52c.48,0,1,0,1.44,0Z"/><path class="cls-1" d="M96,484.05a64.39,64.39,0,0,0,10-.87c1.21-.2,2.38-.54,3.55-.82a26.5,26.5,0,0,0,3.41-1.05,11,11,0,0,0,3-1.53l-.26.44a.73.73,0,0,0,0-.6c-.11-.16-.23-.25-.63-.41a10.07,10.07,0,0,0-2.58-.44c-1.9-.11-3.87-.07-5.82,0a23.69,23.69,0,0,1-7.57-.57c-.78-.29-.56-.47.12-.54s1.87-.25,3.26-.29c2.48-.06,5-.39,7.57-.61a18.69,18.69,0,0,1,4,0,7,7,0,0,1,2.28.61l.35.18.34.27a2.8,2.8,0,0,1,.57.62,2.65,2.65,0,0,1,.36,1.62,5,5,0,0,1-.14.77l0,.29-.26.23a13.33,13.33,0,0,1-4.22,2.49,33,33,0,0,1-4.44,1.38,62.7,62.7,0,0,1-10.44,1.43c-2.16.12-4.31.14-6.47.08a50.14,50.14,0,0,1-9.75-1.24c-.63-.14-1.24-.34-1.86-.49s-1.24-.38-1.84-.66A9.88,9.88,0,0,1,75,482.17a8.83,8.83,0,0,1-.65-.71c-.19-.28-.37-.56-.55-.85a5.75,5.75,0,0,1-.49-1.52,4.23,4.23,0,0,1,0-1.08,1.42,1.42,0,0,1,.83-1,2.13,2.13,0,0,1,.53-.22c.29,0,.54.16.73.5a2.14,2.14,0,0,1,.24.59,3.25,3.25,0,0,1,.27.72,4.92,4.92,0,0,0,1.43,1.92,10.67,10.67,0,0,0,2.45,1.37A26.91,26.91,0,0,0,86,483.44,59.2,59.2,0,0,0,96,484Z"/><path class="cls-1" d="M59.93,481.65c.6.13,1.21.25,1.84.36s1.16.17,1.75.22c.43,0,.87,0,1.31,0a37.45,37.45,0,0,0,4.8-.24c.73-.08,1.45-.24,2.17-.37a7.91,7.91,0,0,1,2.83-.26c.31,0,.3.58.11,1.13s-.56,1.13-1.06,1.24a25.85,25.85,0,0,1-5.61.73c-1.18,0-2.39.28-3.63.3a19.49,19.49,0,0,1-4-.38c-.8-.13-1.6-.29-2.42-.49a8.13,8.13,0,0,1-1.89-.72,4.36,4.36,0,0,1-1.6-1.54,6.54,6.54,0,0,1-.74-3.11,4.78,4.78,0,0,1,.07-.65c.18-.79.41-1,.91-1.07l.31-.06c.31,0,.63.36.76.9.25.8.38,1.58.62,2.12a5.31,5.31,0,0,0,.34.6,1.53,1.53,0,0,0,.33.35,7.69,7.69,0,0,0,2.82.89Z"/><path class="cls-1" d="M100.78,102.06c1.22-2,4.14-4.49,6.69-4,2,.4,2.92-2.73.86-3.14C104.26,94.13,100,97,98,100.42c-1.08,1.79,1.73,3.43,2.81,1.64Z"/><path class="cls-1" d="M105.82,103.26c-.63,2.14-.2,10.33,3.84,8.08,1.76-1,1.5-3.4,1.08-5-.36-1.39-1.18-4-2.86-4.3-1.89-.37-2.69,2.52-.8,2.9-.23-.05-.31-.26-.21-.1a5.74,5.74,0,0,1,.32.53,8,8,0,0,1,.58,1.52,5.66,5.66,0,0,1,.27,1.36s-.05.62,0,.65.67-.17.33-.21c.83.08.74.35.53-.33a6.51,6.51,0,0,1-.24-1.52,8.52,8.52,0,0,1,.08-2.74c.55-1.86-2.35-2.65-2.9-.8Z"/><path class="cls-1" d="M81,239.09c-.4,2.8-.75,5.62-1,8.45-.1,1-.11,2.07-.21,3.1q-.5,5.46-.8,10.95c-.09,1.62-.11,3.25-.11,4.87a27.59,27.59,0,0,1-.36,6.27c-.14.65-.53.51-.94-.06a5.52,5.52,0,0,1-.61-1.15,4.23,4.23,0,0,1-.36-1.62,124.37,124.37,0,0,1,.53-12.75c.27-2.55.3-5.23.53-7.84.23-2.88.55-5.76.92-8.62.2-1.77.51-3.52.74-5.28.42-2.66.9-5.32,1.37-7.95.34-2.05.67-4.07,1-6.1.09-.45.18-.88.3-1.33.42-1.64.8-2.1,1.34-2.33a2.22,2.22,0,0,1,.38-.14c.38-.06.53.69.45,1.93-.41,3.63-1.18,7.35-1.81,11.13-.47,2.81-.92,5.63-1.29,8.47Z"/><path class="cls-1" d="M114.37,135.87a6.19,6.19,0,0,1-2-.36,5.38,5.38,0,0,1-.69-.18,7.66,7.66,0,0,1-2.07-1.6,6.32,6.32,0,0,1-.74-.9,1.51,1.51,0,0,1-.14-1.45c.07-.13,0-.11.07,0s.37.24.59.3a6.33,6.33,0,0,0,1.06.1,1.65,1.65,0,0,1,.84.32c.33.25.8.19,1.21.29l1.41.39a7.17,7.17,0,0,0,.9.18,3.87,3.87,0,0,0,1.36,0,1.58,1.58,0,0,0,.44-.19l.41-.21a1.56,1.56,0,0,1,.19-.13,3.73,3.73,0,0,0,.42-.33s0,0,0-.05a1.87,1.87,0,0,0,.14.41,2.63,2.63,0,0,1-.24,1.63,3.4,3.4,0,0,1-1.15,1.2,4.32,4.32,0,0,1-2.06.67Z"/><path class="cls-1" d="M167.13,96.84l-.34-11.45c0-1.4-.16-2.79-.18-4.18-.08-4.91-.1-9.83-.1-14.76,0-2.18,0-4.38,0-6.55,0-1.4,0-2.8.12-4.2a18,18,0,0,1,.72-4.24c.34-.9.65-.57.85.21a13.39,13.39,0,0,1,.44,3.65c-.09,5.55,0,11.22,0,16.92,0,3.42.27,7,.42,10.45l.42,11.53.27,7.1c.14,3.58.28,7.19.42,10.75.13,2.76.38,5.47.51,8.23,0,.6.07,1.2.07,1.81,0,2.28-.24,3-.93,3.46a2.39,2.39,0,0,1-.47.29c-.51.16-.86-.76-1-2.38-.34-4.81-.62-9.94-.84-15.1-.15-3.83-.3-7.68-.45-11.53Z"/><path class="cls-1" d="M234,47c1.52,0,3,0,4.57.06.77,0,1.54.06,2.35.13l.3,0,.52.07a4.55,4.55,0,0,1,1,.22,1.37,1.37,0,0,1,.77.53l0,.05,0,0h0l.06,0h0l.05.11.1.2c.07.14.15.28.21.42l.48,2.46a17.63,17.63,0,0,1,.31,2l.44,4c.16,2.63.38,5.27.44,7.89.13,3,.24,6,.28,9.06.07,10.64-.21,21.24-.58,31.84-.16,4.71-.26,9.44-.37,14.1-.12,6-.16,12-.52,18-.08,1.84-.46,1.63-.92.05a24,24,0,0,1-.68-3.29,26.8,26.8,0,0,1-.33-4.69c.13-12.26.42-24.48.83-36.81.27-7.37.15-15,0-22.57,0-1.76-.1-3.53-.17-5.29L243,62.89l-.18-2.63-.18-2.63c-.08-.88-.2-1.74-.29-2.61s-.17-1.75-.34-2.59l-.42-2.24c0-.34-.35-.34-.58-.37l-.8-.06-.88,0c-5-.15-10.18,0-15.28.07l-23.21.46c-6,.12-11.84.33-17.77.28-1.31,0-2.58,0-3.9-.06a26.33,26.33,0,0,1-5.18-.52,5.25,5.25,0,0,1-2.23-.92,4.21,4.21,0,0,1-.64-.5c-.4-.52,1.59-.68,5.12-.74,5.24.07,10.63,0,16.11-.12L209,47.37c8.29-.15,16.61-.36,25-.43Z"/><path class="cls-1" d="M226.73,144.86l-6.78.24c-.82,0-1.64.13-2.47.15-2.9.08-5.84.1-8.73.13a34.33,34.33,0,0,0-3.81.29c-.8.1-1.6.24-2.4.37s-1.61.18-2.42.23c-.51,0-.54-.37-.21-.88a3.76,3.76,0,0,1,2-1.44,44.48,44.48,0,0,1,10.2-.67c2,.06,4.11-.17,6.17-.28l6.82-.35,4.2-.21c2.12-.11,4.25-.17,6.36-.32,1.64-.11,3.24-.34,4.86-.46.36,0,.71-.07,1.07-.09,1.34,0,1.77.12,2.06.72a3,3,0,0,1,.19.41c.13.47-.41.86-1.37,1-1.44.24-2.9.43-4.39.58s-3,.2-4.53.28l-6.8.33Z"/><path class="cls-1" d="M226.64,146.38l-6.24.46c-.76.06-1.51.17-2.27.22-2.69.15-5.39.25-8.09.25a34.12,34.12,0,0,0-3.52.21c-.75.07-1.49.19-2.23.28s-1.49.1-2.25.1c-.47,0-.49-.4-.16-.89a3.33,3.33,0,0,1,1.87-1.32,50.88,50.88,0,0,1,9.35-.49,54.83,54.83,0,0,0,5.67-.41l6.26-.55,3.86-.35c2-.19,3.91-.32,5.85-.53,1.5-.17,3-.44,4.47-.6.33,0,.66-.09,1-.11,1.24-.07,1.64.08,1.92.68a3.52,3.52,0,0,1,.18.4c.13.46-.36.87-1.24,1.05-1.31.26-2.65.49-4,.68s-2.75.29-4.15.42l-6.25.56Z"/><path class="cls-1" d="M166,97l-.25-10.51c0-1.28-.14-2.56-.15-3.84l0-13.53c0-2-.06-4-.08-6,0-1.27,0-2.56,0-3.84a29.4,29.4,0,0,1,.32-3.85c.11-.79.5-.65.87.05a8,8,0,0,1,.8,3.38c.16,5.15.22,10.33.18,15.57,0,3.13.24,6.39.36,9.59l.33,10.58q.1,3.26.22,6.51c.12,3.29.21,6.59.38,9.86.13,2.53.41,5,.59,7.52.05.56.11,1.1.14,1.66.09,2.07-.1,2.73-.75,3.19a2.78,2.78,0,0,1-.44.29c-.49.2-1-.63-1.14-2.13-.54-4.45-.8-9.16-1-13.9q-.2-5.28-.4-10.59Z"/><path class="cls-1" d="M202,105a13.8,13.8,0,0,0,2.63-2.62c.89-1.08,1.75-2.21,2.59-3.35,1.7-2.29,3.31-4.66,4.9-7,1.16-1.74,2.19-3.56,3.28-5.33,1.28-2.1,2.51-4.24,3.59-6.41A28,28,0,0,0,220.43,77a8.81,8.81,0,0,0,.42-1.55,2.38,2.38,0,0,0,0-.34v-.2a.64.64,0,0,0-.14-.34l0-.06-.13-.15-.28-.31c-.19-.2-.4-.4-.6-.6-.42-.39-.85-.77-1.3-1.13a18.75,18.75,0,0,0-2.86-1.91c-1.33-.7-2.88-1.18-3.74-.62a9.32,9.32,0,0,0-1.69,1.38c-.56.55-1.1,1.14-1.62,1.75-1.34,1.55-2.57,3.24-3.81,4.92s-2.54,3.32-3.85,5c-.82,1-1.2.56-1.1-.71a12.49,12.49,0,0,1,2-5.43c1.18-1.67,2.41-3.32,3.74-4.93.66-.81,1.37-1.6,2.13-2.38.4-.39.76-.77,1.23-1.15a9.05,9.05,0,0,1,.72-.57,5.2,5.2,0,0,1,.9-.55l.55-.26a6.48,6.48,0,0,1,.63-.17,5.06,5.06,0,0,1,1.2-.11,7.46,7.46,0,0,1,1.07.11l.94.23a13.86,13.86,0,0,1,3.17,1.5,21.52,21.52,0,0,1,2.68,1.94c.42.35.82.72,1.22,1.11.2.2.4.4.59.61s.32.36.69.79A4,4,0,0,1,223.8,74a4.15,4.15,0,0,1,.08,1.29,16,16,0,0,1-1.22,4.25c-.52,1.28-1.09,2.52-1.69,3.74-1.19,2.44-2.48,4.82-3.86,7.12A128,128,0,0,1,207,105a12,12,0,0,1-4.64,3.76,6.16,6.16,0,0,1-3.29.3,8.56,8.56,0,0,1-2.87-1.12,14.85,14.85,0,0,1-1.8-1.27l-.83-.69a6,6,0,0,1-.84-.91,6.39,6.39,0,0,1-1.25-4.61,6.82,6.82,0,0,1,.74-2.22c.29-.63.61-1.25.92-1.86.63-1.23,1.29-2.43,2-3.61a62.72,62.72,0,0,1,3.43-5.39A11.54,11.54,0,0,1,201,84.75a5.7,5.7,0,0,1,4-.89,6.78,6.78,0,0,1,3.26,1.45,5.44,5.44,0,0,1,1.72,2.48,4,4,0,0,1,.15,1.25,9.27,9.27,0,0,1-.26,1,4.24,4.24,0,0,1-.4.74,1.66,1.66,0,0,1-.5.43,1.47,1.47,0,0,1-1,.26,2.15,2.15,0,0,1-.8-.11c-.33-.17-.35-.63-.28-1.12a2.17,2.17,0,0,0-.11-.74,2.88,2.88,0,0,0-.13-.31,1.42,1.42,0,0,1-.19-.32,2.9,2.9,0,0,0-1-1.14,2.74,2.74,0,0,0-1.52-.49,1.8,1.8,0,0,0-1.24.52,14.32,14.32,0,0,0-1.55,1.85,66.45,66.45,0,0,0-5.64,9.65l-.22.47c-.06.15-.16.35-.18.41a2,2,0,0,0-.16.56,2.26,2.26,0,0,0,.06,1.12,3.22,3.22,0,0,0,.57,1.14,1.45,1.45,0,0,0,.19.23l.08.09.17.14.75.62a7.16,7.16,0,0,0,2.9,1.47,2.29,2.29,0,0,0,1.17,0,3.45,3.45,0,0,0,1.21-.59Z"/><path class="cls-1" d="M370,141.66a24.32,24.32,0,0,1-.26-7,31.65,31.65,0,0,1,1.43-6.77c.57-1.58,1.15-3.1,1.83-4.58,2.42-5.2,5.08-10.2,7.69-15.25,1.15-2.23,2.26-4.51,3.31-6.76,1.35-2.91,2.62-5.86,4-8.69.43-.88.82-.61,1,.35a8.78,8.78,0,0,1-.7,4.37c-2.67,6.05-5.66,11.87-8.79,17.68-1.87,3.47-3.57,7.21-5.13,10.88-.22.5-.42,1-.61,1.51s-.4,1-.55,1.51a12.27,12.27,0,0,0-.42,1.53c-.12.53-.26,1-.35,1.58a25.52,25.52,0,0,0-.43,6.4,18.28,18.28,0,0,0,2.07,7.49,20.53,20.53,0,0,0,8.45,8.22,31.42,31.42,0,0,0,8.7,3c.67.13,1.32.23,2,.35,2.48.42,3.25.62,3.75,1.36a2.93,2.93,0,0,1,.33.51c.23.54-.89,1-2.87.86a30.23,30.23,0,0,1-17.05-6.42,21.26,21.26,0,0,1-4.78-5.39,20.68,20.68,0,0,1-2.66-6.73Z"/><path class="cls-1" d="M370.11,113.58a16.32,16.32,0,0,1,2.82-2c.35-.2.67-.46,1-.64,1.25-.65,2.54-1.16,3.78-1.72a12,12,0,0,0,1.58-.86,7.9,7.9,0,0,1,1.95-1.11c.23-.06.53.42.66,1a1.45,1.45,0,0,1-.33,1.5,19.49,19.49,0,0,1-4.34,2,13,13,0,0,0-2.5,1.33,17.71,17.71,0,0,0-2.51,1.68A8.25,8.25,0,0,0,371,116a3.29,3.29,0,0,0-.74,2.33,3.6,3.6,0,0,0,.86,1.72,3,3,0,0,1,.29.33c.33.44.34.66,0,1.14-.08.1-.16.22-.25.32a.83.83,0,0,1-1.17.05,4.79,4.79,0,0,1-1.53-2,5.06,5.06,0,0,1-.34-2.85,6.61,6.61,0,0,1,2-3.51Z"/><path class="cls-1" d="M415.53,69.4c-1.34-1.23-16.42-27.21-43.87-18.26-12.55,4.1-17.82,17.82-11.47,28.94,8.28,14.49,24,12.11,37,8.47,14-3.94,21.24,23.31,21.65,23.08,5.39-4.14,14.32-2.6,16.44,3.71,3.31,9.82-5.73,14.37-12.73,14.64-3.16,2.28-13.9,58.52,1.45,79.38,8.79,11.94,20.63,15.07,32,6.35,8.78-6.74,13.51-20.73,13.52-31.52,0-19.58-15-55.72-14.51-66,.49-10,2.32-20.89-.62-30.63-3.65-12.12-14.11-20.79-27.18-19.45C423.64,68.5,419,68.64,415.53,69.4Z"/><path class="cls-1" d="M442.23,222.55a21.21,21.21,0,0,1-10.05-3,31.15,31.15,0,0,1-7.71-6.72,38.16,38.16,0,0,1-3-4.11,35.23,35.23,0,0,1-2.31-4.54,50.7,50.7,0,0,1-2.88-9.56,100.75,100.75,0,0,1-1.8-19.55,168.39,168.39,0,0,1,1.13-19.46c.53-4.71,1.21-9.41,2.12-14.07.46-2.33,1-4.65,1.6-7a36.49,36.49,0,0,1,1.14-3.5l.19-.45c.06-.14.14-.29.27-.56s.28-.43.42-.64a6.38,6.38,0,0,1,.52-.52,4.29,4.29,0,0,1,1.45-.27,5.43,5.43,0,0,0,.82-.08,16.79,16.79,0,0,0,5.49-1.65,9.75,9.75,0,0,0,4.09-3.59,7.94,7.94,0,0,0,1-5.19l-.08-.7-.18-.69a7.64,7.64,0,0,0-.4-1.33l-.25-.61-.35-.57a7.37,7.37,0,0,0-.8-1.06c-2.51-2.61-6.84-3.33-10.36-2.09a8.2,8.2,0,0,0-1.29.55c-.06,0-.33.16-.5.26a2.14,2.14,0,0,1-.54.3l-1,.35-.24.08-.12,0-.07,0c0-.09-.08.2,0-.19h0l-.38-.16c-.27-.1-.45-.49-.61-.88l-.71-2c-.7-1.93-1.45-3.83-2.29-5.7a39.63,39.63,0,0,0-6.31-10.28,14.49,14.49,0,0,0-4.59-3.55,8.8,8.8,0,0,0-5.51-.69l-.69.17-.76.19-1.51.4c-1,.25-2,.5-3.05.73-2.05.43-4.11.83-6.21,1.06a33.62,33.62,0,0,1-12.63-.56,21.26,21.26,0,0,1-9.84-5.57A24.76,24.76,0,0,1,360,81.16a20.85,20.85,0,0,1-1.35-2.51c-.41-.85-.68-1.78-1-2.67a20.3,20.3,0,0,1,5.75-20.86,22.11,22.11,0,0,1,6.09-3.92l1.69-.66c.57-.21,1.15-.35,1.72-.53,1.14-.37,2.32-.58,3.48-.85a38.14,38.14,0,0,1,7.16-.64,33.76,33.76,0,0,1,7.14.94,35.69,35.69,0,0,1,12.86,6.2,50.63,50.63,0,0,1,10,10.09c.89,1.17,1.47,2.06,1.82,2.62s.44.77.36.81-1.19-1-2.84-2.77a69.49,69.49,0,0,0-7.32-7,41.92,41.92,0,0,0-12.23-7.08,30.87,30.87,0,0,0-13.58-1.6A35,35,0,0,0,373,52.13l-.83.25c-.27.09-.53.2-.79.3-.52.21-1.06.39-1.57.63l-1.49.78a14.75,14.75,0,0,0-1.41.91,18.38,18.38,0,0,0-4.74,4.69,19,19,0,0,0-2.74,6,17.68,17.68,0,0,0-.37,6.64,18.13,18.13,0,0,0,2,6.35A20.4,20.4,0,0,0,370.48,88,24.64,24.64,0,0,0,377,89.77a36.43,36.43,0,0,0,6.93.07,55.92,55.92,0,0,0,7-1.06c1.16-.22,2.31-.52,3.46-.79l1.73-.46.87-.23c.33-.08.65-.17,1-.22a11.15,11.15,0,0,1,7.79,1.49,20,20,0,0,1,5.6,5.22,44.45,44.45,0,0,1,4.56,7.67c.64,1.34,1.24,2.7,1.8,4.07l.81,2.07.7,1.89.11.31a1.11,1.11,0,0,0,.07.16s.09,0,.14-.08a1.61,1.61,0,0,1,.28-.17l.4-.21a4.64,4.64,0,0,1,.55-.26,12.67,12.67,0,0,1,4.69-1,11.72,11.72,0,0,1,8.91,3.4c.27.32.55.64.81,1l.66,1.08c.17.38.33.78.5,1.16s.22.78.34,1.16a12,12,0,0,1,.36,4.86,9.48,9.48,0,0,1-1.92,4.58,12,12,0,0,1-3.66,3.21,18.06,18.06,0,0,1-4.39,1.83,20.14,20.14,0,0,1-2.31.48,11.66,11.66,0,0,1-1.17.14l-.23,0c-.06,0-.13,0-.16,0l-.1.15-.13.26c-.13.3-.25.62-.37,1-.24.66-.45,1.35-.65,2q-.58,2.08-1.05,4.23a170.34,170.34,0,0,0-3.68,38.4,88.48,88.48,0,0,0,2.33,19,42,42,0,0,0,3.24,8.89,25.73,25.73,0,0,0,2.49,3.95c.49.61,1,1.25,1.47,1.85l1.58,1.74a23.66,23.66,0,0,0,9.51,6.13,17.13,17.13,0,0,0,5.55.78,18.72,18.72,0,0,0,5.52-1.09,12.6,12.6,0,0,0,1.32-.54c.43-.21.88-.36,1.29-.61a24.67,24.67,0,0,0,2.46-1.48,25.09,25.09,0,0,0,4.38-3.71,35.87,35.87,0,0,0,6.21-9.78,47.43,47.43,0,0,0,3.94-17.22c.13-5.91-.95-11.89-2.22-17.76-2.61-11.77-6.33-23.26-9.54-34.87-.62-2.26-1.21-4.53-1.72-6.83-.23-1.15-.52-2.29-.66-3.48-.09-.59-.19-1.18-.26-1.78l-.08-1.85c.14-4.71.62-9.28.78-13.86A57.63,57.63,0,0,0,454,91.23a30.13,30.13,0,0,0-2-6.32,26.71,26.71,0,0,0-3.3-5.7,24.71,24.71,0,0,0-8.69-7.34,23.76,23.76,0,0,0-8.63-2.36l-1.78-.09-1.62.06c-.49,0-1,0-1.52.08l-1.4.06a47.73,47.73,0,0,1-7.18-.18c-.76-.09-1.75-.12-2.22-.22-.79-.15.32-.79,3.09-1.36,1.37-.29,3.16-.54,5.26-.79l3.41-.4,2-.16c.69,0,1.41,0,2.15,0a24.51,24.51,0,0,1,6.49,1.19,25.57,25.57,0,0,1,3.11,1.2c.5.24,1,.52,1.48.78l.73.4.7.47a28.87,28.87,0,0,1,9.17,9.67A35.25,35.25,0,0,1,457.59,93a70.51,70.51,0,0,1,.35,13.21c-.11,2.18-.27,4.34-.42,6.49l-.22,3.21-.09,1.59,0,.8c0,.25,0,.47,0,.7,0,.47,0,.92.07,1.41l.23,1.5c.11,1,.38,2,.58,3.07s.48,2.06.73,3.09.53,2.08.82,3.12c2.27,8.31,4.89,16.67,7.15,25.15a170.86,170.86,0,0,1,4.2,19.29c.2,1.66.41,3.31.54,5s.21,3.39.1,5.11a47.3,47.3,0,0,1-1.51,10.07,43.76,43.76,0,0,1-9.18,18.14c-.57.66-1.23,1.25-1.84,1.87s-1.34,1.16-2,1.69l-2.15,1.49-2.29,1.3a21.57,21.57,0,0,1-10.36,2.39Z"/><path class="cls-1" d="M395,166.1a30.62,30.62,0,0,0-4,.8c-.63.19-1.27.39-1.88.63a11.75,11.75,0,0,0-1.7.8,7.72,7.72,0,0,0-1.88,1.82,8.6,8.6,0,0,0-1.77,4.37,7,7,0,0,0,.19,2.36,11.3,11.3,0,0,0,.95,2.33,15.08,15.08,0,0,0,2.92,3.56,32.36,32.36,0,0,0,4.82,3.45c.52.32.28.78-.44,1a3.81,3.81,0,0,1-3.07-.43,18.59,18.59,0,0,1-5.1-4.51,12,12,0,0,1-2.69-6.58,11.48,11.48,0,0,1,3-8.11,10.16,10.16,0,0,1,1.9-1.54,19.27,19.27,0,0,1,2.12-1,28,28,0,0,1,4.3-1.24A49.5,49.5,0,0,1,398,163c2.7-.27,5.4-.36,8.05-.54,2.07-.14,4.08-.42,6.09-.67.45-.05.88-.14,1.32-.18,1.66-.12,2.19,0,2.62.7a2.91,2.91,0,0,1,.28.47c.22.54-.42,1.07-1.65,1.37a70.51,70.51,0,0,1-11.31,1.19,81.56,81.56,0,0,0-8.37.78Z"/><path class="cls-1" d="M383.79,192.25c-2.71,1.41-5.36,3-8,4.7-.95.62-1.85,1.31-2.79,1.94l-10,6.8c-1.49,1-3,2.05-4.48,3-1,.62-2,1.23-3,1.77a15.84,15.84,0,0,1-1.64.7l-.87.26a4.53,4.53,0,0,1-.91.09c-.78,0-.69-.34-.22-.93a7.8,7.8,0,0,1,.91-1,7.22,7.22,0,0,1,1.4-.92,53.69,53.69,0,0,0,5.77-3.49l5.77-3.87c2.34-1.54,4.61-3.39,7-5,2.59-1.82,5.25-3.56,8-5.16,1.71-1,3.44-1.91,5.23-2.73a40.77,40.77,0,0,1,8.49-2.92,24.28,24.28,0,0,1,7-.65A9.21,9.21,0,0,1,403,185c.49.1.89.2,1.21.3a3.65,3.65,0,0,1,.77.39,1.32,1.32,0,0,1,.6,1,2.58,2.58,0,0,1,.07.54c-.06.56-.92.72-2.13.47a24.64,24.64,0,0,0-11.37,1.06,48.32,48.32,0,0,0-8.35,3.59Z"/><path class="cls-1" d="M319.26,226.14A115.49,115.49,0,0,1,308,198.72a82.45,82.45,0,0,1-2.33-10.63,34.54,34.54,0,0,1-.34-4.92,12,12,0,0,1,.29-2.65,5,5,0,0,1,.63-1.56c.28-.39.51-.69.77-1a27.09,27.09,0,0,1,7.44-6.51,21.38,21.38,0,0,1,4.59-2,14.59,14.59,0,0,1,5.07-.65,12.22,12.22,0,0,1,5,1.39,12.74,12.74,0,0,1,3.93,3.28,23.42,23.42,0,0,1,3.86,7.84c.84,2.74,1.39,5.47,2.11,8.1a27.18,27.18,0,0,0,4.21,9.3q1.53,2.13,3.12,4.22L348,205c.54.69,1,1.44,1.57,2.15,1.29,1.8.82,1.83-.88.83a23.83,23.83,0,0,1-7.23-6.41c-.56-.76-1.09-1.48-1.63-2.32a24.27,24.27,0,0,1-1.45-2.58,33.44,33.44,0,0,1-2-5.41c-1-3.63-1.63-7.2-2.74-10.42s-2.76-6.14-5.34-7.76a9.26,9.26,0,0,0-4.31-1.36,12.5,12.5,0,0,0-4.75.7,22.15,22.15,0,0,0-9.94,7.29l-.47.63a1.18,1.18,0,0,0-.25.43,4.63,4.63,0,0,0-.27,1.27,20.41,20.41,0,0,0,0,3.13,55.81,55.81,0,0,0,.91,6.5A101.86,101.86,0,0,0,313,205.71a112.78,112.78,0,0,0,5.61,13.49,73.57,73.57,0,0,0,9.67,15.05,33.78,33.78,0,0,0,10.33,8.43,19.16,19.16,0,0,0,6.29,1.9,25.66,25.66,0,0,0,6.61-.12,30.49,30.49,0,0,0,9.65-3.34,48.47,48.47,0,0,0,8.45-5.79c1.14-1,2.25-2,3.34-3,2.06-1.94,3.35-3.3,4.34-4.17a14.45,14.45,0,0,1,1.28-1,5.92,5.92,0,0,1,1.07-.5,8.14,8.14,0,0,1,.9-.31c.69-.14-.27,2.14-3.18,5.31a55.41,55.41,0,0,1-15.44,12.12,33.77,33.77,0,0,1-9.79,3.3,25.39,25.39,0,0,1-10.61-.4c-5.23-1.42-9.59-4.66-13.17-8.29a63.66,63.66,0,0,1-9.12-12.16Z"/><path class="cls-1" d="M446.59,263.81c-.56-1.74-1.08-3.49-1.58-5.25s-1-3.51-1.48-5.28c-.35-1.28-.79-2.54-1.09-3.84-1.15-4.56-1.95-9.2-2.68-13.84-.32-2.06-.64-4.14-.95-6.18-.15-1.33-.31-2.66-.46-4a31.92,31.92,0,0,1,.12-4c.08-.83.59-.71,1.17,0a7.14,7.14,0,0,1,1.49,3.37c.69,5.21,1.58,10.41,2.42,15.73.29,1.58.63,3.19,1,4.79s.88,3.2,1.28,4.8l1.44,5.25,1.55,5.22c.7,2.12,1.33,4.27,2.1,6.37,1.12,3.19,2.26,6.41,3.64,9.47q.78,1.8,1.71,3.48l.92,1.69,1,1.65c.28.48.57,1,.87,1.41,1.05,1.81,1.22,2.27.83,3.19a5.76,5.76,0,0,1-.26.62c-.18.3-.49.36-.93.17a3.08,3.08,0,0,1-.74-.47,4.46,4.46,0,0,1-.8-.82c-3-3.9-5-8.44-6.87-13-.69-1.71-1.36-3.43-2-5.18s-1.23-3.48-1.8-5.23Z"/><path class="cls-1" d="M369.66,283.64c.25-3.23.38-6.48.43-9.75,0-1.2,0-2.39,0-3.58.06-4.2,0-8.4-.14-12.62-.06-1.91-.1-3.79-.19-5.62a35.56,35.56,0,0,0-1-6.86c-.19-.68.21-.79.85-.35a5,5,0,0,1,1.78,2.95,40.88,40.88,0,0,1,.77,7.45c0,1.23.09,2.35.16,3.61s.1,2.46.11,3.69c0,3,.31,6,.38,9,.07,3.32.07,6.63,0,10-.06,2.05-.19,4.1-.31,6.13-.18,3.08-.42,6.15-.39,9.19a53,53,0,0,0,.66,6.93c.08.5.17,1,.25,1.5.23,1.88.11,2.51-.64,3a3.79,3.79,0,0,1-.5.35c-.59.28-1.21-.43-1.63-1.84a46.93,46.93,0,0,1-1.14-13.3c.11-3.34.37-6.64.52-9.92Z"/><path class="cls-1" d="M440.37,289.37a121.44,121.44,0,0,0-16.73,4.92c-2,.72-4,1.57-6,2.36-7,2.76-13.94,5.82-20.74,9.13-3,1.48-6,3.09-8.9,4.71-3.74,2.06-7.39,4.36-11.12,6.34-1.1.63-1.28.22-.65-.89a13.2,13.2,0,0,1,1.54-2,14.23,14.23,0,0,1,2.67-2.12A178.59,178.59,0,0,1,404,299.58c4.87-2.11,9.86-4.49,14.92-6.5a150,150,0,0,1,17-5.72,73.08,73.08,0,0,1,10.94-2.08,27.31,27.31,0,0,1,8.59.3,14.86,14.86,0,0,1,4.14,1.57,7,7,0,0,1,3.22,3.39,5.64,5.64,0,0,1,.05,3.78,10.75,10.75,0,0,1-1.65,3.11,22.49,22.49,0,0,1-4.81,4.64,21.37,21.37,0,0,1-2.44,1.6,10.88,10.88,0,0,1-3.68,1.42,3.2,3.2,0,0,1-1.13,0,2.23,2.23,0,0,1-.8-.4,2.82,2.82,0,0,1-.56-.5c-.29-.59.82-1.16,2.91-2.24a29.19,29.19,0,0,0,4.47-2.94,19.65,19.65,0,0,0,3.68-3.73,7.49,7.49,0,0,0,1-2,2.4,2.4,0,0,0,0-1.56,3.15,3.15,0,0,0-1.08-1.33,9.69,9.69,0,0,0-2.1-1.18,19.46,19.46,0,0,0-7.84-1,53.24,53.24,0,0,0-8.5,1.22Z"/><path class="cls-1" d="M448.06,287.55c-.51,16.9,33.48,120.57,42.05,151.79-10.26,12.53-25,16.35-39.21,15.58-2.24-4.21-23.26-51.89-24.52-74.94,2,12.87,5.61,74.36,5.61,79.57-5.52,6.48-37.14,12.95-47.6,5.6-5.28-20.21-7.07-125.49-2.33-151.39C382.06,313.76,424.38,288.18,448.06,287.55Z"/><path class="cls-1" d="M406.68,466.05a78.81,78.81,0,0,0,11.61-2.14,57.65,57.65,0,0,0,5.59-1.76,27.19,27.19,0,0,0,5.09-2.43,9.48,9.48,0,0,0,1-.76.6.6,0,0,0,.13-.11.07.07,0,0,0,0-.08l0-1-.06-1.5-.27-6-.64-12.07c-.92-16.09-1.89-32.2-3.27-48.23-.29-3.25-.61-6.51-1.06-9.68l3.09-.32.31,3.08c.05.51.09,1,.16,1.54l.27,1.54.52,3.09.68,3.07c.43,2,1,4.08,1.51,6.11s1.13,4.06,1.71,6.08c2.92,9.88,6.47,19.61,10.22,29.24,1.89,4.81,3.84,9.6,5.89,14.34l1.57,3.54.74,1.63.19.38a.25.25,0,0,0,0,.09H452l1.61.06h1.9c1.27,0,2.54-.09,3.8-.18a54,54,0,0,0,7.49-1.16A47.9,47.9,0,0,0,474,450a42.31,42.31,0,0,0,6.62-3.59,39.34,39.34,0,0,0,5.83-4.78c.45-.45.91-.88,1.31-1.36l1-1.12c.14-.09.05-.24,0-.37l-.19-.69-.52-1.87-2.14-7.46-4.42-14.91-16-52.79c-3.39-11.24-6.74-22.51-9.88-33.85-1.56-5.67-3.09-11.36-4.48-17.08s-2.7-11.46-3.52-17.34c-.5-3.68-.18-5.39.05-5.25s.54,1.93,1.32,4.91c1.49,6,4.79,16.85,8.39,29.85,3.18,11.53,6.61,23,10,34.48l10.35,34.43c3.47,11.49,7,23,10.34,34.55l2.49,8.69,1.43,5.19a.61.61,0,0,1,0,.13l-.09.09-.17.2-.35.39-.67.76-.79.89c-.51.6-1.08,1.13-1.64,1.68a42.61,42.61,0,0,1-15.86,9.79A51,51,0,0,1,461.48,456c-.93.08-1.86.19-2.79.25s-1.87.11-2.81.12-1.87,0-2.81,0l-1.67-.06-1.16,0h-.15s-.1,0-.11-.06l-.12-.24-.24-.5-.49-1-.19-.42-.15-.31-.58-1.27L447.08,450l-2.19-5.1q-2.16-5.13-4.22-10.31c-2.73-6.91-5.35-13.89-7.72-21a208.64,208.64,0,0,1-6.11-21.53,84,84,0,0,1-1.81-12l2.68-.28c1,7.18,1.46,14.26,2,21.39s1,14.23,1.46,21.35l1.25,21.36.54,10.7.12,2.68,0,1.35,0,1V460l-.09.09-.37.37a9.32,9.32,0,0,1-.72.7l-.58.47c-.4.28-.8.57-1.2.81a23.58,23.58,0,0,1-2.48,1.31,63,63,0,0,1-14.62,4.36A75.2,75.2,0,0,1,398,469.48a41.36,41.36,0,0,1-7.65-.83,22.05,22.05,0,0,1-3.76-1.16,13.12,13.12,0,0,1-1.81-.88l-1.17-.73s-.12-.05-.13-.1l0-.18-.07-.34-.13-.65-.75-3.79c-.2-1.25-.34-2.49-.51-3.74-.36-2.5-.59-5-.82-7.49-1.37-15.13-1.94-30.32-2.34-45.48s-.49-30.3-.32-45.34c.18-11.7.39-23.28,1.27-34.84l.36-4.34.57-4.34.18-1.29.11-.82,0-.1.09-.05.17-.11.36-.22,2.13-1.27,3.76-2.17q7.53-4.29,15.32-8.18c4.56-2.3,9.1-4.41,13.85-6.45,8.84-3.69,14.94-5.52,19.33-6.4a35.13,35.13,0,0,1,5.4-.82c.73-.06,1.38-.1,2-.11s1.17.08,1.69.14c.95.1,2.19.17,2.73.3.92.21-.56.61-3.89,1.15a121.45,121.45,0,0,0-15,4.28,234.65,234.65,0,0,0-28.4,12.65q-7,3.63-13.9,7.61l-1.72,1-.85.5-.1.07,0,0-.39,2.89-.26,1.94-.17,2-.34,4c-1.42,21.33-1.39,43.17-1.15,65,.26,16.2.74,32.46,1.82,48.65l.43,6.06.56,6c.16,2,.45,4,.71,6,.14,1,.23,2,.41,3l.57,2.88.09.49c0,.07,0,.05,0,.06h0a4.4,4.4,0,0,0,.57.31,8.87,8.87,0,0,0,1.21.54,10.31,10.31,0,0,0,1.29.45,28.78,28.78,0,0,0,5.59,1,59.61,59.61,0,0,0,11.78-.24Z"/><path class="cls-1" d="M483.74,449.76s-21.55,11.52-26.84,20.53c-5.73,9.76,26.84-15.16,26.84-15.16s4.85,7.26,6.37,6.31S483.74,449.76,483.74,449.76Z"/><path class="cls-1" d="M474.15,463.85c-3.88,2.65-7.78,5.27-11.93,7.62-.77.43-1.52.84-2.34,1.25l-.32.15-.52.22a9,9,0,0,1-1,.37,3.31,3.31,0,0,1-1.77.09,1.62,1.62,0,0,1-.6-.33,1.33,1.33,0,0,1-.39-.62,2.41,2.41,0,0,1,.08-1.44,4.53,4.53,0,0,1,.34-.81,4.1,4.1,0,0,1,.4-.65l.82-1.2.4-.58.39-.44.78-.87a23.21,23.21,0,0,1,1.64-1.65,70.56,70.56,0,0,1,7.12-5.73c2.2-1.54,4.42-3.09,6.65-4.55a72,72,0,0,1,8.84-5.23c1.94-.88.53,2.17-2.79,4.16a147.94,147.94,0,0,0-17.07,11.58,28.08,28.08,0,0,0-2.29,2.08c-.38.35-.69.76-1,1.14a10,10,0,0,0-.9,1.1l-.64.94a1.44,1.44,0,0,0-.2.48.17.17,0,0,0,.1.21.43.43,0,0,0,.25,0,2.16,2.16,0,0,0,.49-.16l.59-.27.76-.38,1.52-.83c1-.58,2-1.18,3-1.8,2-1.23,4-2.53,5.89-3.84q3.6-2.44,7.13-5l2.92-2.12,3.44-2.55c.4.61.81,1.21,1.22,1.78l.87,1.18a14.75,14.75,0,0,0,1.08,1.27,3.09,3.09,0,0,0,1,.78.44.44,0,0,0,.3,0,.29.29,0,0,0,.14-.3,2.14,2.14,0,0,0-.23-.7,8.68,8.68,0,0,0-.68-1.16l-.78-1.15-1.25-1.78c-1.56-2.25-2-3-1.85-3.84a2.74,2.74,0,0,1,.09-.55c.2-.47,1.17.22,2.43,1.82.47.6.94,1.2,1.39,1.82l.68.94.33.48c.12.17.2.28.4.6a27.08,27.08,0,0,1,2,3.57,4.35,4.35,0,0,1,.51,2.55,1.29,1.29,0,0,1-.42.79,1.4,1.4,0,0,1-.53.43,2.31,2.31,0,0,1-.52.18,2.82,2.82,0,0,1-2.05-.56,15,15,0,0,1-2.88-2.82l-.74-.92L484,458l-.6-.82h0l-.06,0-1.29,1-2.61,1.9-5.26,3.76Z"/><path class="cls-1" d="M411.87,470.38s-26.6,5.56-33.1,12.21c-6.82,7,31.77-8,31.77-8s.88,8.23,2.6,7.69S411.87,470.38,411.87,470.38Z"/><path class="cls-1" d="M396.77,481c-4.5,1.45-9,2.89-13.67,3.94l-1.3.26-.75.14c-.27,0-.71.1-1.06.13a4.91,4.91,0,0,1-1.93-.14,1.63,1.63,0,0,1-1.12-1,1.83,1.83,0,0,1,.2-1.33,2.58,2.58,0,0,1,.45-.66l.64-.58,1.25-1.15a11.34,11.34,0,0,1,1-.68l1-.63,1-.53c.69-.36,1.38-.72,2.09-1a80.68,80.68,0,0,1,8.59-3.17c2.57-.82,5.17-1.6,7.73-2.35a77.77,77.77,0,0,1,10-2.46c2.12-.31-.11,2.24-3.88,3.19-6.71,1.72-13.42,3.51-19.92,5.89a30.32,30.32,0,0,0-5.56,2.76l-.65.42-.16.11-.08.06-.14.12c-.17.16-.43.35-.53.47s-.28.31-.13.45a.93.93,0,0,0,.5.07,5.62,5.62,0,0,0,.87-.11c.57-.1,1.13-.22,1.7-.35,1.13-.25,2.27-.54,3.4-.85q3.39-.94,6.77-2c2.77-.89,5.52-1.81,8.27-2.78l4.46-1.59,5.18-1.92c.1.9.21,1.85.34,2.66.09.61.2,1.21.33,1.81a17.27,17.27,0,0,0,.67,2.35,3.66,3.66,0,0,0,.49.93.66.66,0,0,0,.12.12l0,0s-.06.09-.07.15a.07.07,0,0,0,0,.05.2.2,0,0,0,0-.09c.1.33,0,0-.17-.05a4.94,4.94,0,0,0,.09-.82,9.43,9.43,0,0,0-.08-1.16c-.08-.79-.22-1.6-.38-2.41s-.3-1.41-.46-2.13c-.59-2.67-.69-3.55-.27-4.26a2.17,2.17,0,0,1,.28-.48c.35-.37,1,.64,1.58,2.61.41,1.4.77,2.82,1.06,4.3.14.74.26,1.5.34,2.29a10,10,0,0,1,.06,1.25,4.3,4.3,0,0,1-.25,1.58,2,2,0,0,1-1.3,1.2,1.92,1.92,0,0,1-1,0,2.11,2.11,0,0,1-.72-.38,2.72,2.72,0,0,1-.69-.78,5.49,5.49,0,0,1-.36-.66,14.28,14.28,0,0,1-.79-2.4c-.19-.77-.34-1.54-.47-2.31l-.08-.48h0l-2.44.91-3.35,1.22q-3.37,1.2-6.75,2.34Z"/><path class="cls-1" d="M304.94,119.59a3,3,0,0,1,.65.46,10.34,10.34,0,0,1,1.92,3.22c.28.73.52,1.45.75,2.17s.43,1.17.6,1.77c.59,2.11,1,4.24,1.57,6.31.26.92.57,1.82.88,2.7.21.56.46,1.1.68,1.64a9.55,9.55,0,0,0,.68,1.51c.16.23,0,.48-.44.49a2.53,2.53,0,0,1-1.75-1,9.22,9.22,0,0,1-1-1.74,18.17,18.17,0,0,1-.73-1.79,36.94,36.94,0,0,1-.94-3.69,45.19,45.19,0,0,0-1.29-4.4c-.25-.8-.5-1.59-.78-2.36l-.33-.91a4.85,4.85,0,0,0-.23-.54,1.24,1.24,0,0,0-.1-.2,1.79,1.79,0,0,0-.43-.56c-.25-.16-.39.14-.43.32a5.44,5.44,0,0,0-.16,1.2c0,.15,0,.61,0,1s0,.77,0,1.16a35.3,35.3,0,0,0,.52,3.55c0,.26.11.52.14.78.11,1,0,1.3-.51,1.58a3,3,0,0,1-.28.17c-.25.13-.77-.22-1-.93a29.85,29.85,0,0,1-1-6.76l0-.36c0-.21,0-.43,0-.64,0-.43,0-.86,0-1.28a5.59,5.59,0,0,1,.5-2,2.12,2.12,0,0,1,1-1,1.78,1.78,0,0,1,.81-.14,2,2,0,0,1,.68.18Z"/><path class="cls-1" d="M297.25,119.52a2.26,2.26,0,0,1,1.92.64,5.64,5.64,0,0,1,.84.85,3.47,3.47,0,0,1,.3.38l.25.35a25.36,25.36,0,0,1,1.41,2.43c.31.59.65,1.15.93,1.75.48,1.06.92,2.13,1.34,3.2s.75,2.18,1.11,3.28.66,1.93,1,2.89a12.22,12.22,0,0,1,.83,3.86c0,.43-.29.39-.64.1a3.59,3.59,0,0,1-1.08-1.45c-.89-2.38-1.84-4.78-2.73-7.23a34.51,34.51,0,0,0-2-4.33c-.4-.78-.81-1.54-1.25-2.28-.21-.35-.47-.75-.67-1l-.25-.35c-.06-.08-.13-.15-.2-.23s-.46-.42-.67-.2a1.56,1.56,0,0,0-.26.76l0,.39v.58a9.2,9.2,0,0,0,.09,1.16,13.89,13.89,0,0,0,.57,2.33c.41,1.19,1,2.29,1.53,3.45.11.27.23.52.33.79.35,1,.29,1.46-.11,1.77a2.34,2.34,0,0,1-.27.2c-.31.14-.67-.18-1-.82a29.19,29.19,0,0,1-2.84-6.59,11.61,11.61,0,0,1-.38-3l.11-1.16c.09-.39.24-.78.35-1.16a2,2,0,0,1,1.5-1.33Z"/><path class="cls-1" d="M291.47,126.9a3.62,3.62,0,0,1,0-1.77,1.9,1.9,0,0,1,.78-1.07,1.7,1.7,0,0,1,1.4-.11,4.64,4.64,0,0,1,1.46.91c.18.16.36.28.54.46l.52.57.53.58c.12.16.21.28.31.43.37.52.66,1,.94,1.45s.55,1,.8,1.43c.51,1,1,1.93,1.47,2.89s.89,1.69,1.35,2.52a17.37,17.37,0,0,1,1.49,3.32c.11.36-.17.46-.62.33a3,3,0,0,1-1.47-1,25.18,25.18,0,0,1-1.91-3.13c-.59-1.07-1.16-2.15-1.7-3.25a15.38,15.38,0,0,0-1.15-1.89c-.2-.29-.43-.62-.63-.89l-.51-.68a4.1,4.1,0,0,0-.64-.74c-.13-.11-.36-.27-.49-.13a.79.79,0,0,0-.08.46,4.35,4.35,0,0,0,.1.67l.09.36.21.69a29.41,29.41,0,0,0,1.76,4.24c.54,1.06,1.2,2.05,1.81,3.08.14.23.29.45.41.68.47.88.4,1.26,0,1.66a3.63,3.63,0,0,1-.27.28c-.33.24-.81,0-1.26-.54a36.36,36.36,0,0,1-3.3-5.77c-.36-.78-.69-1.58-1-2.41l-.45-1.28a19.25,19.25,0,0,1-.63-2.33Z"/><path class="cls-1" d="M294.15,144.19a62.19,62.19,0,0,0,4.43,5c.58.59,1.2,1.14,1.76,1.76,2,2.15,4,4.33,5.91,6.62.84,1,1.71,2,2.51,3a16,16,0,0,1,2.53,4.43c.17.52-.16.57-.66.32a5.11,5.11,0,0,1-1.72-1.49c-1.94-2.59-4.11-5.08-6.35-7.63-1.33-1.53-2.94-2.91-4.44-4.37-1.63-1.63-3.26-3.28-4.79-5.06a24,24,0,0,1-2.6-3.55,6.55,6.55,0,0,1-1-3.45,4.45,4.45,0,0,1,.05-.5,2.59,2.59,0,0,1,.13-.55,1.85,1.85,0,0,1,2.71-1.12,13.26,13.26,0,0,1,2.38,1.26c.72.46,1.41.94,2.07,1.46.29.22.59.43.87.68,1,.92,1.16,1.4,1,2a2.35,2.35,0,0,1-.14.4c-.22.39-.86.25-1.68-.29-1.18-.83-2.29-1.78-3.45-2.57a6.85,6.85,0,0,0-1.63-.86h0c0-.12,0,.29.05.62a5,5,0,0,0,.44,1.18,13.85,13.85,0,0,0,1.69,2.6Z"/><path class="cls-1" d="M316.49,146.46a33,33,0,0,1,1.87-7.84c.29-.91.54-1.83.84-2.72s.54-1.55.78-2.32.45-1.7.46-1.8a.91.91,0,0,0,0-.49.39.39,0,0,0-.08-.1.22.22,0,0,0-.11,0,1,1,0,0,0-.24.05,1.82,1.82,0,0,0-.47.22,6.19,6.19,0,0,0-.87.68,9.23,9.23,0,0,0-2.15,3.51,15.67,15.67,0,0,0-.64,2.6,12.51,12.51,0,0,0-.21,2.66c0,.55-.29.57-.7.12a4,4,0,0,1-.89-2.64,10.58,10.58,0,0,1,.55-3.1,12.15,12.15,0,0,1,1.31-2.9,9.12,9.12,0,0,1,2.22-2.48c.17-.1.71-.49,1.05-.65s.79-.27,1.18-.41c.2-.1.35,0,.52,0l.49,0a1,1,0,0,1,.24,0l.2.19a1.61,1.61,0,0,1,.34.4,4,4,0,0,1,.3,2.71l-.05.31-.05.24-.11.46-.23.91c-.33,1.18-.68,2.34-1.08,3.46a55.72,55.72,0,0,0-2.28,7.37,12.65,12.65,0,0,0-.26,2.28,23.14,23.14,0,0,0,.07,2.35,32.6,32.6,0,0,0,1.42,7c.54,1.78,1.3,3.45,2,5.17.15.38.31.75.45,1.13.49,1.45.53,2,.28,2.41-.05.09-.07.21-.11.27s-.69-.24-1.24-1.23a40,40,0,0,1-3.83-9.76,29.7,29.7,0,0,1-1-8.15Z"/><path class="cls-1" d="M264.76,138.07l.12-11.8c0-1.43-.05-2.87,0-4.3l.3-15.18c.06-2.24.07-4.5.07-6.73a46.41,46.41,0,0,1,.46-8.63c.16-.89.57-.71,1,.08a8.2,8.2,0,0,1,.58,1.58,7,7,0,0,1,.29,2.22c-.08,5.79-.07,11.63-.4,17.51-.17,3.52-.05,7.18-.07,10.78L267,135.48c0,2.44,0,4.87,0,7.31,0,3.69,0,7.4.05,11.06.06,2.85.24,5.64.36,8.46,0,.62.07,1.23.08,1.86.07,2.32-.18,3.08-.78,3.56a2.55,2.55,0,0,1-.4.31c-.42.21-.86-.74-1-2.42-.39-5-.51-10.32-.57-15.64,0-4,0-7.94,0-11.9Z"/><path class="cls-1" d="M325.62,95.08l0-3v-.72s0-.08,0-.11h-.1l-4.43-.13-5.05-.21c-2-.08-3.93-.1-5.9-.2l-20.75-1.15c-3.07-.17-6.16-.28-9.2-.38-3.92-.07-7.85-.26-11.74-.6-1.21-.11-1.06-.46,0-.85a17.25,17.25,0,0,1,5.23-.84c2,0,4,0,6,.07l6,.22c4,.17,8,.36,12,.68,4.81.36,9.83.44,14.76.64l6.86.28,3.42.11,1.71,0h2.14l.79.21.2,0h0l-.16.16h0l0,0,0,.07.19.3a1.29,1.29,0,0,1,.19.86v.92c0,3.34,0,6.69-.07,10,0,5.06-.12,10.14-.09,15.16,0,3.9.18,7.73.29,11.58,0,.85.05,1.68.08,2.54,0,3.17-.22,4.18-.79,4.86a3.22,3.22,0,0,1-.4.46c-.44.3-.83-1-1-3.32-.47-6.9-.48-14.17-.48-21.47q0-8.13.1-16.3Z"/><path class="cls-1" d="M287.06,171.12c-1.69,0-3.38,0-5.08,0-.61,0-1.23.08-1.85.08-2.18,0-4.36,0-6.54,0-1,0-1.93.08-2.89.17a16.5,16.5,0,0,1-3.72.13c-.77-.11.15-2,1.54-2.12a63.34,63.34,0,0,1,7.56-.15c1.52.08,3.1-.11,4.65-.16l5.13-.1,3.16,0c1.59,0,3.19,0,4.78-.08,1.23-.06,2.44-.21,3.68-.26.27,0,.54,0,.82,0,1,0,1.39.26,1.52.82a3,3,0,0,1,.08.39c0,.44-.42.76-1.1.84-1,.15-2.13.28-3.24.37s-2.25.09-3.39.12l-5.1.06Z"/><path class="cls-1" d="M292.22,103.29c-1.49-.09-3-.18-4.47-.24-.54,0-1.08,0-1.63,0-1.91-.09-3.82-.18-5.74-.21a23.5,23.5,0,0,0-2.52.13c-1.05.11-2.18.31-3.05.36a.8.8,0,0,1-.36-.92,1.81,1.81,0,0,1,1.37-1.24,27.23,27.23,0,0,1,6.8-.15c1.35.14,2.75,0,4.12.08s3,.11,4.53.19l2.78.14c1.41.06,2.82.17,4.22.19,1.08,0,2.15-.06,3.23-.08l.71,0c.89,0,1.17.19,1.32.7a2.37,2.37,0,0,1,.09.36c.05.39-.33.68-1,.76a40.12,40.12,0,0,1-5.93.17l-4.5-.17Z"/><path class="cls-1" d="M284.18,115.71l-2.46-.14c-.3,0-.6,0-.9,0l-3.18-.24a13.14,13.14,0,0,0-1.4,0,5.21,5.21,0,0,1-1.8-.1c-.37-.11.13-1.46.8-1.55a11.88,11.88,0,0,1,3.62,0,13.93,13.93,0,0,0,2.24,0l2.47,0,1.53,0c.77,0,1.54,0,2.31,0,.59,0,1.17-.18,1.77-.22.13,0,.25,0,.39,0,.49,0,.64.14.74.59,0,.11.05.21.06.31a.72.72,0,0,1-.5.77,9.19,9.19,0,0,1-1.58.47,12.79,12.79,0,0,1-1.64.12c-.82,0-1.64,0-2.47,0Z"/><path class="cls-1" d="M281.59,125.41l-1.55-.19c-.19,0-.38,0-.56,0-.67-.09-1.33-.2-2-.27a3.62,3.62,0,0,0-.87,0,2.14,2.14,0,0,1-1.12-.08c-.23-.1.08-1.46.51-1.57a4.37,4.37,0,0,1,2.27,0,6,6,0,0,0,1.4,0l1.54.1.95.06a11.4,11.4,0,0,0,1.43,0c.37,0,.73-.17,1.09-.21a2,2,0,0,1,.24,0c.3,0,.4.13.49.58l.05.31a.81.81,0,0,1-.28.78,3.82,3.82,0,0,1-1,.48,4.53,4.53,0,0,1-1,.1c-.52,0-1,0-1.56-.07Z"/><path class="cls-1" d="M362.53,168.77c-.2-1.8-.31-3.56-.51-5.28-.07-.63-.22-1.24-.31-1.85-.17-1.08-.37-2.15-.63-3.2a8.25,8.25,0,0,0-1.34-2.77,7.48,7.48,0,0,0-2-1.94,3.16,3.16,0,0,0-1.44-.52,1.75,1.75,0,0,0-1.29.38c-.27.16-.58-.05-.6-.58a1.43,1.43,0,0,1,.32-1,1.88,1.88,0,0,1,1.3-.73,4.29,4.29,0,0,1,2.58.63,8.54,8.54,0,0,1,1.82,1.38,10,10,0,0,1,2.44,3.67,32.57,32.57,0,0,1,1.26,4.94c.28,1.81.41,3.59.59,5.35.12,1.08.24,2.15.43,3.21a24.67,24.67,0,0,0,1.17,4.7,11.85,11.85,0,0,0,1.83,3.09c.17.19.35.36.51.55.62.67.72,1,.51,1.55,0,.13-.08.28-.13.41-.18.41-.79.45-1.53-.06a12.56,12.56,0,0,1-3.95-6.51,35.56,35.56,0,0,1-1.1-5.43Z"/><path class="cls-1" d="M346.18,160.69a17.49,17.49,0,0,1-1-2.51,3.41,3.41,0,0,1,0-2,2.21,2.21,0,0,1,.9-1.14,2.51,2.51,0,0,1,1.08-.38,3.93,3.93,0,0,1,.63,0,3.61,3.61,0,0,1,1.9.69,19.31,19.31,0,0,1,2.43,2.18c.73.74,1.44,1.48,2.17,2.18a18.21,18.21,0,0,0,2.06,1.7c.92.63,1.89,1.14,2.7,1.61.24.14.23.58-.18,1a1.93,1.93,0,0,1-2,.34,21.49,21.49,0,0,1-5.72-4.68,12.36,12.36,0,0,0-1.57-1.42,10.23,10.23,0,0,0-1.56-1,.65.65,0,0,0-.24-.09,2.15,2.15,0,0,0-.23,0h-.09a.9.9,0,0,1-.05-.09.2.2,0,0,0-.08-.08,0,0,0,0,1,0,0,.21.21,0,0,0,.11.05c.09,0,0,0,0,0s0,.06,0,.08a3.92,3.92,0,0,0,.41,1.59,16.61,16.61,0,0,0,1.33,2.5,15.55,15.55,0,0,0,2.77,3.28,13.54,13.54,0,0,0,2.79,1.74,6.36,6.36,0,0,1,.64.32c.78.43.95.7.82,1.37,0,.16,0,.32-.08.46-.15.49-.69.69-1.41.48a13,13,0,0,1-5.62-3.78,19.58,19.58,0,0,1-3-4.3Z"/><path class="cls-1" d="M355.62,175a.21.21,0,0,0,.22.05.25.25,0,0,0,.08-.25,1.19,1.19,0,0,0-.08-.22,2.87,2.87,0,0,1-.18-.4,9,9,0,0,0-1.8-2.77,12.46,12.46,0,0,0-1.17-1c-.53-.41-1.09-.77-1.59-1.23-.16-.15-.05-.3.21-.39a1.67,1.67,0,0,1,1.06,0,9.18,9.18,0,0,1,1.94,1,8.09,8.09,0,0,1,1.6,1.55,11.43,11.43,0,0,1,1.6,2.33,2.82,2.82,0,0,1,.18.44c.05.16.12.31.16.49a3.37,3.37,0,0,1,.11,1.08,1.6,1.6,0,0,1-.37.91,1.52,1.52,0,0,1-.85.5,4.29,4.29,0,0,1-2.29-.31c-.88-.34-1.67-.79-2.47-1.19-.62-.32-1.27-.55-1.91-.89a3.36,3.36,0,0,1-.42-.22.81.81,0,0,1-.42-.54.87.87,0,0,1,.17-.6,2,2,0,0,1,.2-.28,1.16,1.16,0,0,1,1-.31,30.87,30.87,0,0,1,3.15,1.39c.39.19.78.36,1.16.51l.55.21.12,0h0Z"/><path class="cls-1" d="M354.22,178a.78.78,0,0,0,.42-.08,1,1,0,0,0,.16-.14s0,0,0,0l.22.1.13,0c.06,0,.09,0,.07,0h0a.37.37,0,0,0-.14,0,1,1,0,0,0-.24.19c-.08,0,0,0-.1-.09a4.6,4.6,0,0,0-1-.75c-.4-.25-.84-.5-1.28-.74l-1.18-.67a3,3,0,0,1-1.28-1.25c-.09-.17,0-.25.29-.29a3.32,3.32,0,0,1,.91-.06,8.7,8.7,0,0,1,3,1.18,7.59,7.59,0,0,0,1,.48,3.44,3.44,0,0,1,1.17.76,1.42,1.42,0,0,1,.3.48,1.37,1.37,0,0,1,.14.66,1.11,1.11,0,0,1-.13.6,1.18,1.18,0,0,1-.25.44,2.56,2.56,0,0,1-1.36.93,3.86,3.86,0,0,1-1.73,0c-.78-.16-1.46-.43-2.15-.63-.54-.15-1.1-.2-1.64-.3-.12,0-.24,0-.36-.08-.42-.14-.51-.31-.45-.79,0-.1,0-.21.05-.32a.73.73,0,0,1,.71-.59,9.76,9.76,0,0,1,2.93.55,5.4,5.4,0,0,0,1.77.28Z"/><path class="cls-1" d="M347.17,147.17c0-1.19,0-2.39,0-3.59,0-.43-.07-.87-.08-1.3,0-1.54-.05-3.09-.13-4.62q-.06-1-.18-2a15.24,15.24,0,0,1-.22-2.61c0-.27.28-.27.58-.08a1.76,1.76,0,0,1,.78,1.06c.18.88.35,1.76.48,2.65a21.94,21.94,0,0,1,.15,2.69c0,1.09.2,2.19.28,3.29s.16,2.42.21,3.63l.09,2.24c.05,1.13.05,2.27.13,3.39.06.87.23,1.72.34,2.58a2.76,2.76,0,0,1,.06.57,2.46,2.46,0,0,1-.06.45,1,1,0,0,1-.18.31,1.12,1.12,0,0,1-.47.34c-.09,0-.16.08-.24.1-.23.07-.52-.22-.84-.73a8.47,8.47,0,0,1-.47-2.32c-.08-.79-.12-1.59-.16-2.4-.05-1.19-.08-2.4-.1-3.6Z"/><path class="cls-1" d="M354.9,143.22l.14,4c0,.48.1,1,.12,1.45.07,1.71,0,3.43.09,5.14,0,.77.12,1.52.13,2.28a13.81,13.81,0,0,1-.06,2.94c-.05.31-.3.26-.59,0a2.4,2.4,0,0,1-.75-1.23,18,18,0,0,1-.47-2.91c-.06-1-.08-2-.06-3,0-1.2-.17-2.42-.23-3.64l-.2-4-.12-2.48c-.08-1.24-.12-2.5-.23-3.74-.1-1-.27-1.9-.36-2.87,0-.21-.06-.41-.07-.64a2.25,2.25,0,0,1,.19-.87.77.77,0,0,1,.48-.39,1.38,1.38,0,0,1,.25,0c.14,0,.24.1.36.24a1.29,1.29,0,0,1,.33.57,22.89,22.89,0,0,1,.84,5.18c.09,1.33.17,2.67.26,4Z"/><path class="cls-1" d="M339.63,133.57l-.92.18a1.91,1.91,0,0,1-.88-.11h0c0-.09-.1.2.09-.21h0l-.05,0-.09-.05-.18-.09-.37-.25a8.76,8.76,0,0,1-.71-1.62,14.67,14.67,0,0,1-.59-2.37,7.71,7.71,0,0,1,.76-5.16l.2-.34c.09-.07.12-.2.26-.22a2.75,2.75,0,0,1,.28-.19,5.11,5.11,0,0,1,.63-.29c.34-.09.59-.16.87-.22.55-.13,1.09-.23,1.63-.32a60.65,60.65,0,0,1,6.15-.6c1,0,2.06-.07,3.11,0a12.18,12.18,0,0,1,3.18.47,34,34,0,0,1,5.12,2.06,17.2,17.2,0,0,1,3,1.88,6.51,6.51,0,0,1,2.22,3c.2.83-.26.71-.83.33s-1.43-.84-2.36-1.54a25.63,25.63,0,0,0-5.75-3.14,15.57,15.57,0,0,0-3-1,23.63,23.63,0,0,0-3.32-.22,43.8,43.8,0,0,0-8.4,1c-.29.06-.6.12-.87.2l-.22.06a.16.16,0,0,0-.13.09l-.11.18c-.06.11-.1.24-.15.35a5.92,5.92,0,0,0-.22.75,7.09,7.09,0,0,0-.08,1.67,9.34,9.34,0,0,0,.28,1.72,8.42,8.42,0,0,0,.24.86c.08.25.22.65.25.71a2.33,2.33,0,0,0,.14.33.14.14,0,0,0,.05.08.12.12,0,0,0,.08,0l.18,0,3.93-.74c2.92-.53,5.87-1,8.82-1.27a43.93,43.93,0,0,1,6.91-.41c.52,0,1,.07,1.57.16a4.18,4.18,0,0,1,2,.83,1.3,1.3,0,0,1,.53,1,1.58,1.58,0,0,1,0,.44c-.17.37-.82.15-2,0a23.38,23.38,0,0,0-5.73-.19c-2,.13-4.09.35-6.16.64-1.54.22-3.09.46-4.64.73l-2.32.42-2.39.48Z"/><path class="cls-1" d="M389,119.43a13.15,13.15,0,0,1-1.8,1.07,5.52,5.52,0,0,1-2.38.63,2.68,2.68,0,0,1-2.1-.93,3.69,3.69,0,0,1-.68-1.54,5.25,5.25,0,0,1-.1-1.48,10.74,10.74,0,0,1,.61-2.57c.24-.7.48-1.41.74-2.09a6.56,6.56,0,0,1,1.39-2.51c.23-.23.54.08.76.51a1.76,1.76,0,0,1,.2,1.42,32,32,0,0,0-1.7,4.83,2.79,2.79,0,0,0-.07.69l0,.29.09.33a1.44,1.44,0,0,0,.49.78c.09.12.5.13,1,0a7.11,7.11,0,0,0,1.48-.75,18.53,18.53,0,0,0,1.79-1.34,25.62,25.62,0,0,0,2.48-2.41,21.14,21.14,0,0,0,1.57-2.18,3.91,3.91,0,0,1,.34-.49c.47-.57.78-.65,1.34-.35a2.26,2.26,0,0,1,.37.22,1,1,0,0,1,.24,1.23,15,15,0,0,1-3,4.11,28.58,28.58,0,0,1-3,2.61Z"/><path class="cls-1" d="M395.58,101.27A13.67,13.67,0,0,1,399,103a4.48,4.48,0,0,1,1.4,3.63,1.38,1.38,0,0,0,2.75,0,7.45,7.45,0,0,0-1.85-5.24A12.61,12.61,0,0,0,397,98.89c-1.61-.68-3,1.69-1.38,2.38Z"/><path class="cls-1" d="M371.37,136.22c2.67,1.67,5.52,1.56,8.42.55,1.67-.57.95-3.23-.73-2.65-2.23.77-4.23,1-6.31-.28-1.5-.94-2.88,1.44-1.38,2.38Z"/><path class="cls-1" d="M426.64,271.93a6.72,6.72,0,0,1-4.14,1.23,3.75,3.75,0,0,1-1.83-.38,2.08,2.08,0,0,1-1.06-1.56,3.22,3.22,0,0,1,0-.94,3.81,3.81,0,0,1,.22-.7,7.64,7.64,0,0,1,1.44-2.11,19.94,19.94,0,0,1,1.53-1.52,4.79,4.79,0,0,1,2.48-1.34c.32,0,.32.32.21.71a2.15,2.15,0,0,1-.61,1.09,13.22,13.22,0,0,0-3.12,3.43c-.54.89-.38,1.16.05,1.28a5,5,0,0,0,2.89-.44,3.11,3.11,0,0,0,1.33-1.21,3.56,3.56,0,0,0,.42-2.74,1.8,1.8,0,0,0-.49-.83.59.59,0,0,0-.54-.12.52.52,0,0,0-.19.12c-.14.12-.44.13-.93-.14a3.36,3.36,0,0,1-.33-.16.57.57,0,0,1-.3-.48,1.38,1.38,0,0,1,0-.39,2.22,2.22,0,0,1,.28-.47,2.42,2.42,0,0,1,1.88-.76,2.72,2.72,0,0,1,1.89,1.07,4.84,4.84,0,0,1,1,3.21,5.67,5.67,0,0,1-2.08,4.19Z"/><path class="cls-1" d="M413.24,235.18a4.56,4.56,0,0,1-.73,2.16,3.43,3.43,0,0,1-2,1.38,5.69,5.69,0,0,1-.78.16,3.93,3.93,0,0,1-.84,0,3.11,3.11,0,0,1-2.34-1.74,5.7,5.7,0,0,1-.49-2.35,14.3,14.3,0,0,1,.08-2,3.72,3.72,0,0,1,.93-2.41c.22-.22.49.12.72.51s.5.78.43,1.12a9.91,9.91,0,0,0,0,3.76,1.2,1.2,0,0,0,.44.71,1.28,1.28,0,0,0,.72.16,1.37,1.37,0,0,0,1.47-1,3.75,3.75,0,0,0,0-1.61,5.63,5.63,0,0,0-1-2.47,1.89,1.89,0,0,0-.68-.6c-.12-.06-.23-.09-.27-.06s0,0,0,0a.47.47,0,0,0,0-.17c0-.08,0,0,0-.07s0-.08,0,0,0,0,0,.06l0,0,.05.08a.49.49,0,0,0,.12.13s0,0,0,0,0,.05-.1.12-.15.05-.22.09a1.74,1.74,0,0,1-.64.06h-.37a.63.63,0,0,1-.49-.27,1.1,1.1,0,0,1-.23-.79,2,2,0,0,1,.35-.85,2,2,0,0,1,1.16-.77,2.17,2.17,0,0,1,1.35.12,3.36,3.36,0,0,1,.83.48,5.9,5.9,0,0,1,1.68,2.22,8.19,8.19,0,0,1,.77,3.83Z"/><path class="cls-1" d="M392.93,260.62a4,4,0,0,1-2.81,1.42,3.49,3.49,0,0,1-.65,0,3,3,0,0,1-.53-.16,2.51,2.51,0,0,1-1.49-1.56,2.94,2.94,0,0,1,.18-1.87,8.61,8.61,0,0,1,.64-1.29,2.85,2.85,0,0,1,1.28-1.29c.19-.08.36.26.47.64s.21.79.07,1a5.83,5.83,0,0,0-1.06,2.1c-.08.33.2.43.69.55a1.32,1.32,0,0,0,1.24-.45,3.55,3.55,0,0,0,.7-.91,4.09,4.09,0,0,0,.34-.81,1.2,1.2,0,0,0,.05-.61.48.48,0,0,0-.69-.28c-.05,0-.1.07-.14.09s-.22-.07-.47-.65l-.19-.39a.79.79,0,0,1,.37-1.14,2.34,2.34,0,0,1,2.48.3,2.93,2.93,0,0,1,.84,2.61c0,.16-.06.37-.1.5s-.06.25-.1.37a5.28,5.28,0,0,1-.29.69,6.5,6.5,0,0,1-.79,1.24Z"/><path class="cls-1" d="M343.71,221.89a4.38,4.38,0,0,1-.73,3.44,3.28,3.28,0,0,1-.41.53,1.82,1.82,0,0,1-.55.47,2.87,2.87,0,0,1-2.44.24,4.09,4.09,0,0,1-1.67-1.19,7.34,7.34,0,0,1-1-1.37,2.55,2.55,0,0,1-.33-2.19c.09-.24.51-.09.93.12s.85.38.92.56a5,5,0,0,0,1.47,2,.67.67,0,0,0,.57.18c.09,0,.14-.06.23-.07s.14-.08.21-.17a2,2,0,0,0,.47-.68,1.11,1.11,0,0,0,.14-.41,2.22,2.22,0,0,0,0-.45,2.58,2.58,0,0,0-.31-1.16,2.07,2.07,0,0,0-1.34-1.15,1.07,1.07,0,0,0-1,.4,1,1,0,0,1-.18.18,1,1,0,0,1-1,0l-.28-.1c-.27-.11-.4-.43-.34-1a1.16,1.16,0,0,1,.21-.56,2.66,2.66,0,0,1,.37-.53c.18-.14.37-.28.57-.41a4.71,4.71,0,0,1,.69-.27,3.27,3.27,0,0,1,1.49,0,2.48,2.48,0,0,1,.68.23,2.58,2.58,0,0,1,.59.33,4.91,4.91,0,0,1,2,3Z"/><path class="cls-1" d="M379.59,213.3a4.42,4.42,0,0,1-.6-3.47,3.25,3.25,0,0,1,.18-.64,1.66,1.66,0,0,1,.34-.64,2.83,2.83,0,0,1,2.17-1.13,4,4,0,0,1,2,.48,7.15,7.15,0,0,1,1.44.91,2.54,2.54,0,0,1,1.12,1.9c0,.26-.44.27-.91.24s-.93,0-1.06-.19a5,5,0,0,0-2.12-1.31.69.69,0,0,0-.59,0c-.09,0-.11.12-.18.15s-.11.13-.14.24a2.15,2.15,0,0,0-.19.81,1.25,1.25,0,0,0,0,.43,1.64,1.64,0,0,0,.13.43,2.49,2.49,0,0,0,.72,1,2.15,2.15,0,0,0,1.68.58,1.08,1.08,0,0,0,.77-.75.94.94,0,0,1,.1-.23,1,1,0,0,1,.91-.38h.29c.3,0,.54.25.69.78a1.22,1.22,0,0,1,0,.6,2.47,2.47,0,0,1-.14.63,2.84,2.84,0,0,1-.91,1.1,3.44,3.44,0,0,1-1.38.59,2.86,2.86,0,0,1-.71,0,2.49,2.49,0,0,1-.68-.08,4.91,4.91,0,0,1-3-2Z"/><path class="cls-1" d="M325.58,187.19a3.25,3.25,0,0,1-.9,2.88,3.67,3.67,0,0,1-.85.63,2.86,2.86,0,0,1-1.79.15,3.43,3.43,0,0,1-1.42-.73,4.13,4.13,0,0,1-.93-1,1.68,1.68,0,0,1-.11-1.86c.13-.18.48.06.84.3a4.59,4.59,0,0,0,.78.43,2.5,2.5,0,0,0,.9,1,.72.72,0,0,0,.88-.13.94.94,0,0,0,.5-.83,1.58,1.58,0,0,0-.18-.76c-.15-.29-.41-.6-.77-.56s-.4.32-.44.58a1.28,1.28,0,0,1,0,.17c-.08.26-.27.24-.92,0l-.45-.16c-.5-.19-.81-.53-.75-.93a3.34,3.34,0,0,1,.1-.43c.08-.15.18-.3.28-.45a2.58,2.58,0,0,1,.84-.8,2.61,2.61,0,0,1,2.39-.19,4.13,4.13,0,0,1,.8.5,3.18,3.18,0,0,1,.64.69,3.89,3.89,0,0,1,.64,1.49Z"/></g></svg>