<svg xmlns="http://www.w3.org/2000/svg" width="520" height="520" viewBox="0 0 520 520"><defs><style>.cls-1{fill:#231f20;}</style></defs><title>Notioly New upgrade</title><g id="n.128_Delivery" data-name="n.128 Delivery"><path class="cls-1" d="M231.51,248.16a35.17,35.17,0,0,1-4.44-3.17c-.51-.43-1-.86-1.5-1.34a16.66,16.66,0,0,1-2.24-2.77,11.25,11.25,0,0,1-1.37-3.3,8.63,8.63,0,0,1-.16-3.16,8.36,8.36,0,0,1,1.44-3.72c.22-.35.32-.22.29.16a8.24,8.24,0,0,1-.39,1.67,8.83,8.83,0,0,0-.44,3.66,9.49,9.49,0,0,0,1.14,3.54,14.47,14.47,0,0,0,3,3.64,30.43,30.43,0,0,0,4.23,3.22c.92.6,1.88,1.14,2.85,1.67a47.79,47.79,0,0,0,4.52,2.14c1.19.5,2.39.89,3.61,1.29l.79.25c1,.32,1.3.49,1.43.81a1.2,1.2,0,0,1,.09.21c0,.22-.42.27-1.18.09a36.66,36.66,0,0,1-6.83-2.31,51.28,51.28,0,0,1-4.87-2.55Z"/><path class="cls-1" d="M371.33,312a20.45,20.45,0,0,0,2.06-.18l.74-.14c.89-.14,1.77-.31,2.64-.53a10.71,10.71,0,0,0,1.13-.38,8.19,8.19,0,0,1,1.43-.53c.32-.06.3.94-.26,1.18a13.16,13.16,0,0,1-3.09.88c-.64.1-1.28.31-1.92.42s-1.43.23-2.16.29c-.44,0-.89.05-1.33.08-.68,0-1.36,0-2-.06a11.84,11.84,0,0,1-1.57-.11l-.34-.07c-.42-.13-.54-.25-.54-.49a1,1,0,0,1,0-.17c0-.17.24-.26.53-.25.88,0,1.75.08,2.67.08.67,0,1.36,0,2.05-.05Z"/><path class="cls-1" d="M279.52,407.64c-.87,1.66-1.73,3.32-2.54,5-.3.62-.54,1.25-.83,1.87-1,2.17-2,4.37-3.13,6.55L271.64,424a19.14,19.14,0,0,1-2,3.62c-.27.35-.53.12-.65-.37a3.06,3.06,0,0,1,.22-1.92c1.17-2.47,2.22-5,3.47-7.53.77-1.5,1.35-3.15,2.06-4.73.79-1.74,1.63-3.45,2.48-5.15l1.58-3.12c.78-1.58,1.63-3.14,2.37-4.72.58-1.23,1-2.49,1.57-3.72.12-.27.22-.54.34-.81.47-1,.72-1.27,1.19-1.32a1.82,1.82,0,0,1,.32,0c.33,0,.39.54.17,1.34a35,35,0,0,1-1.14,3.56c-.47,1.17-1,2.34-1.52,3.49-.77,1.74-1.68,3.4-2.51,5.09Z"/><path class="cls-1" d="M282.21,398.17q-1.12-.37-2.28-.72c-.28-.08-.57-.11-.85-.2-1-.31-2-.64-3-1-.43-.15-.88-.28-1.33-.39a5.09,5.09,0,0,1-1.67-.61c-.32-.19.51-1.2,1.15-1.1a17.28,17.28,0,0,1,3.4.91,14.53,14.53,0,0,0,2.11.56l2.34.67,1.44.42c.73.21,1.44.51,2.17.73.55.18,1.14.25,1.69.45a2.75,2.75,0,0,1,.36.15c.43.22.53.37.51.68a1.27,1.27,0,0,1,0,.2c0,.21-.29.32-.65.32a14.38,14.38,0,0,1-3.14-.42c-.77-.14-1.52-.38-2.29-.6Z"/><path class="cls-1" d="M90.94,436.31c-.21.67-1.69,51.47,52,55.33,0,0,42.8,6,56.35-43.29V435.68l-32.66.63s1.3,8.68-3.89,16.09c-5.5,7.85-32.07,13.14-38.38-4.93,0,0-3.89-10.36-3.07-11.79Z"/><path class="cls-1" d="M363.57,435.31c-.21.67-1.69,51.47,52,55.33,0,0,42.8,6,56.35-43.29V434.68l-32.66.63s1.3,8.68-3.89,16.09c-5.5,7.85-32.07,13.15-38.38-4.93,0,0-3.89-10.36-3.07-11.79Z"/><path class="cls-1" d="M178.88,313.43s-35.25-2.53-41.42,2.5-7.55,7.45-6.1,13.26.62,6.92,13.89,7,71.22,3.85,91.32-2.31c0,0-41.85-11.34-52-16.45Z"/><path class="cls-1" d="M378.31,284.89c-3.2,3.41-.76,28.87,5.52,27,3.61-1.08,2.62-7.72,2.58-10.52C386.33,296,384.23,278.57,378.31,284.89Z"/><path class="cls-1" d="M174.79,278.09c-5.22-2.51-20.22-12.64-15.64-18.84,2.7-3.66,19.61,9.37,20.69,9.37C180.52,268.62,174.79,278.09,174.79,278.09Z"/><path class="cls-1" d="M134.88,195.62s6.9,3.46,16.21-1.56c0,0,3.17-.52,4.42-2.67,0,0-10.1-1-12.78-4A37.11,37.11,0,0,0,134.88,195.62Z"/><path class="cls-1" d="M308.89,276.38s-.84,3.15,3.76,3.15,6.49-5.72,5.81-7S310.65,270.22,308.89,276.38Z"/><path class="cls-1" d="M338.64,247s.91,4.39,3.66,2.21,4.47-6,2.64-6.55S338.67,244.14,338.64,247Z"/><path class="cls-1" d="M181.46,271.08s-3.74,9.28-5.8,12-11.53,21.16,7.56,32.9c0,0,31.22,13.79,65.05,19.39,0,0,27.22,4.35,32.58,10,0,0-4.23,20.69-9.07,32.9s-5.82,14.5-5.82,14.5,2.45-3.21,26.77,5.41c0,0,6.91,1.24,7.71-1.18s13.19-46.75,11.11-57.48c0,0,.55-15.24-29.79-29.12,0,0-35.94-16.45-40.12-20.9,0,0-23.24,5.5-40-8.4Z"/><path class="cls-1" d="M254.52,94.93c.15.63,2.32,6.46-.2,11s-10.38,10-18.28,3.18c0,0-8.68-3.59-1.58-15.77A15.29,15.29,0,0,1,243,88S243.85,94.28,254.52,94.93Z"/><path class="cls-1" d="M241.88,83.57s-8.84.86-16.58-9.27c0,0-8-13.67,2.14-24.38,6.26-6.63,16.38-2.84,16.38-2.84s.67-8,12.31-17.28c0,0,15.14-9.33,28.47,7.84l1.08,2.87.73,1.84c-.49-1.24,4-4.52,4.64-5,9-6.16,26.62-5,33.73,7.2,0,0,5.55,7.46,3.21,15s-6.28,10.28-14,11-23.81-6.44-28.39-15.4a8.45,8.45,0,0,0-8.68-1.9c-5.37,1.74-7.22,8.27-7.85,11.22s-2,16.29-4.32,17.9-4,4.29-14.23-6c0,0-5.07-1.85-6.94,2.29S241.88,83.57,241.88,83.57Z"/><path class="cls-1" d="M305.69,124.42a21,21,0,0,1-5.47,6.21l-1.2.9c-.41.28-.82.56-1.24.83a22.25,22.25,0,0,1-10,3,20.51,20.51,0,0,1-4.63-.33,11,11,0,0,1-5.34-2.53c-.47-.41-.15-.65.49-.71a4.54,4.54,0,0,1,1.14,0,5,5,0,0,1,1.37.33,15.51,15.51,0,0,0,5.12,1,23.92,23.92,0,0,0,5.35-.53,18.34,18.34,0,0,0,6.11-2.86,19.06,19.06,0,0,0,5.33-5.18,19.55,19.55,0,0,0,2.16-4.1,30.69,30.69,0,0,0,1.76-6.92c.26-1.85.3-3.68.38-5.54,0-.4,0-.81.05-1.22.14-1.52.43-2,1-2.27a2.58,2.58,0,0,1,.38-.18c.41-.11.71.55.83,1.68a38.65,38.65,0,0,1,0,5.16,34.39,34.39,0,0,1-.7,5.36,27.5,27.5,0,0,1-2.85,7.79Z"/><path class="cls-1" d="M312.45,100.21a8.11,8.11,0,0,0-1.27-4.41c-.3-.55-.69-1-1-1.59-1.24-1.91-2.64-3.8-4-5.73-.6-.86-1.3-1.68-1.84-2.62a8.51,8.51,0,0,1-.92-1.92,3.47,3.47,0,0,1,0-2.25c.19-.45.36-.26.55.12a13.12,13.12,0,0,0,.92,1.37c.53,1,1.43,1.93,2.16,3s1.61,2.11,2.39,3.25c.94,1.35,2.11,2.62,3.09,4.06a14.08,14.08,0,0,1,2.36,5.41,6.43,6.43,0,0,1,0,2l-.12.59a1.92,1.92,0,0,1-.24.57,2.4,2.4,0,0,1-.94.82,4.79,4.79,0,0,1-1.53.44,9.52,9.52,0,0,1-1.4.07,18.29,18.29,0,0,1-2.7-.29,22.6,22.6,0,0,1-4.06-1,6.08,6.08,0,0,1-.89-.35c-1.07-.54-1.25-1-1-1.72a4,4,0,0,1,.19-.48,1.25,1.25,0,0,1,1.56-.36A27.23,27.23,0,0,0,310,100.7a7.83,7.83,0,0,0,2.12,0l.16,0h0s0,0,0,0a2.59,2.59,0,0,0,.06-.45Z"/><path class="cls-1" d="M276.77,138.4c.47-.5,1-1,1.44-1.48.17-.18.31-.39.49-.57.65-.6,1.32-1.18,2-1.72a7.21,7.21,0,0,0,.86-.8,2.9,2.9,0,0,1,1.17-.93c.31-.11,1.05,1.41.71,1.8a10.68,10.68,0,0,1-2.17,1.89,6.88,6.88,0,0,0-1.28,1.25c-.46.47-.92.95-1.37,1.44-.28.3-.55.6-.81.92a17.54,17.54,0,0,0-1.14,1.47c-.27.4-.4.87-.63,1.28-.06.09-.1.18-.16.27-.24.31-.42.34-.8.2l-.26-.09a.7.7,0,0,1-.39-.73,5.15,5.15,0,0,1,1-2.6c.4-.56.84-1.1,1.28-1.63Z"/><path class="cls-1" d="M225,56.25l-.51,1.08c-.17.37-.28.74-.42,1.11l-.41,1.1-.27,1.15a14.23,14.23,0,0,0-.36,2.34,17,17,0,0,0,0,2.37,12.28,12.28,0,0,0,.24,1.72c.06.28.09.57.16.85l.24.84a18.79,18.79,0,0,0,1,2.9c.2.48.49.91.72,1.37l.37.68c.14.22.3.42.45.64a19.44,19.44,0,0,0,4.3,4.53,26.46,26.46,0,0,0,2.39,1.48l1.27.59.64.3.66.23,1.71.58c.58.16,1.17.26,1.76.41,1.16.32,2.36.46,3.56.78.74.19.63.55-.06.91a6.75,6.75,0,0,1-1.45.52,4.53,4.53,0,0,1-2.06.1l-2-.36c-.65-.13-1.29-.37-1.94-.56a19.37,19.37,0,0,1-3.73-1.59A21.4,21.4,0,0,1,225.15,77,22.18,22.18,0,0,1,220.9,68a19.74,19.74,0,0,1,.94-10.74A23.41,23.41,0,0,1,225,51.51a19,19,0,0,1,3.52-3.59A16.9,16.9,0,0,1,233,45.54a18,18,0,0,1,7.65-.86c.57,0,1.11.14,1.67.24a4.37,4.37,0,0,1,2.1.78,2.35,2.35,0,0,1,.72.92,2.3,2.3,0,0,1,.16.39c0,.19-.17.29-.57.37a5.1,5.1,0,0,1-1.72.07,24,24,0,0,0-6.21-.26,13.39,13.39,0,0,0-5.68,2,17.84,17.84,0,0,0-6,7.08Z"/><path class="cls-1" d="M242,113.51a18.39,18.39,0,0,1-4.81-1.33,12.64,12.64,0,0,1-4.22-2.88,8.92,8.92,0,0,1-2-3.23,13.87,13.87,0,0,1,1.28-12.23,16,16,0,0,1,3.71-4.1,10.59,10.59,0,0,1,6.61-2.24c.74,0,.62.35.07.77a19.3,19.3,0,0,1-2.52,1.45,15,15,0,0,0-2.64,1.57c-.43.27-.79.65-1.19,1s-.72.73-1.07,1.1a13.15,13.15,0,0,0-2.8,5.47,9,9,0,0,0-.26,1.88,10.84,10.84,0,0,0,.63,3.83l.33.92c.12.31.26.56.39.84,1.32,2.34,4.06,3.84,6.89,4.51a15.23,15.23,0,0,0,5.37.35,10.92,10.92,0,0,0,3.82-1.24,9.82,9.82,0,0,0,3-2.64,11.81,11.81,0,0,0,1.55-2.72,22.48,22.48,0,0,0,.93-3c.11-.45.18-.9.26-1.35s.15-.78.21-1.07a3.55,3.55,0,0,1,.24-.72,1.56,1.56,0,0,1,.64-.79,2.58,2.58,0,0,1,.37-.24c.38-.16.74.61.79,2a16.19,16.19,0,0,1-1.34,6.31,14.08,14.08,0,0,1-4.24,5.48,12.45,12.45,0,0,1-4.84,2.2l-1.3.21c-.44,0-.87,0-1.31.07a15.46,15.46,0,0,1-2.55-.12Z"/><path class="cls-1" d="M326.55,46.48a20.78,20.78,0,0,0-7.72-9.64A27.16,27.16,0,0,0,307,32.29a23.94,23.94,0,0,0-9.24.61,18.58,18.58,0,0,0-6.93,3.41,14.59,14.59,0,0,0-1.44,1.29l-.69.68-.62.75A14.73,14.73,0,0,0,287,40.61l-.28.4-.11.17-.06.08a1.19,1.19,0,0,1-.19.2,1.07,1.07,0,0,1-.33.19,1.12,1.12,0,0,1-1.34-.45,2,2,0,0,1-.12-.26.72.72,0,0,1,0-.09,1.76,1.76,0,0,1,0-.42v-.15c0-.4,0-.42,0-.55a24.32,24.32,0,0,0-2.08-3.7,19.89,19.89,0,0,0-2.81-3.2,17.64,17.64,0,0,0-7.47-4,22.92,22.92,0,0,0-7.35-.55,18.56,18.56,0,0,0-7.1,1.71,21.76,21.76,0,0,0-7.33,5.74,28.89,28.89,0,0,0-2.74,3.85c-.39.69-.78,1.38-1.12,2.09s-.72,1.41-1,2.14c-.76,1.82-1.06,1.5-1-.31a14.27,14.27,0,0,1,.73-3.65,18.37,18.37,0,0,1,2.52-4.69,28,28,0,0,1,3.58-3.89,23.35,23.35,0,0,1,4.4-3,22.7,22.7,0,0,1,5.06-1.84,30.65,30.65,0,0,1,5.26-.57,23.12,23.12,0,0,1,10.38,2.05,20,20,0,0,1,8,7c.41.62.8,1.25,1.16,1.9.19.32.34.66.52,1,.09.17.17.34.25.51l.27.56a2.65,2.65,0,0,1,.2,1c0,.14,0,.27,0,.38v.21h0c-.18,0-.45,0-.67,0a1.06,1.06,0,0,0-.49.07s0,0,0,0a.28.28,0,0,0-.09-.1c-.07-.07-.13-.08-.29-.21s-.28-.2-.42-.28l-.1-.06h0s0,0,0,0l0-.07.19-.27.36-.56a20.73,20.73,0,0,1,1.62-2.14A20.4,20.4,0,0,1,291,33.35,22.19,22.19,0,0,1,301,29.91a28.89,28.89,0,0,1,13.77,2,26.51,26.51,0,0,1,11.12,8.32A21.76,21.76,0,0,1,329.66,48c.2.7.29,1.42.44,2.13s.14,1.44.21,2.16a32.21,32.21,0,0,1-.07,4.28A19.28,19.28,0,0,1,328.67,63a13.65,13.65,0,0,1-4.09,5.22,21.38,21.38,0,0,1-12.26,3.95,32,32,0,0,1-18.64-5.9,36.54,36.54,0,0,1-3.44-2.68l-1.35-1.31c-.41-.41-.73-.82-1.05-1.18a11.75,11.75,0,0,1-1.39-1.89,5.08,5.08,0,0,1-.87-2.51,5.28,5.28,0,0,1,0-.86c.17-.69,1.6.94,4.17,3.6a35,35,0,0,0,14.09,8.79,26.29,26.29,0,0,0,8.28,1.3,22,22,0,0,0,4.13-.46c.69-.1,1.35-.35,2-.51a20.07,20.07,0,0,0,1.92-.74,12.52,12.52,0,0,0,4.68-3.5,13.33,13.33,0,0,0,2.44-5.39,23.91,23.91,0,0,0,.46-6.3,19.39,19.39,0,0,0-1.26-6.08Z"/><path class="cls-1" d="M252.52,75.85c2,1.67,3.46,3.52,5.09,5a6.15,6.15,0,0,0,2.32,1.55h.1l.22,0a3.68,3.68,0,0,1,.68.14,3.42,3.42,0,0,0,.65.16,2,2,0,0,0,1.11-.1c1-.38,1.73-1.89,2.24-3.38a64.55,64.55,0,0,0,2-8.67,66.06,66.06,0,0,1,2.16-8.94,21.32,21.32,0,0,1,1.7-3.83,9.54,9.54,0,0,1,2.91-3.16,7.92,7.92,0,0,1,5.38-1.18,15.26,15.26,0,0,1,5,1.77c1,.52.7.67-.24.57s-2.6-.34-4.4-.47a12.25,12.25,0,0,0-2.28.06,5.47,5.47,0,0,0-2,.7,8,8,0,0,0-2.91,3.32,39,39,0,0,0-3,9.66c-.44,2-.77,4.18-1.17,6.33a24.82,24.82,0,0,1-1.88,6.5,7.22,7.22,0,0,1-1.18,1.7,4.37,4.37,0,0,1-1.94,1.21,4.49,4.49,0,0,1-2.24,0,4.23,4.23,0,0,1-.51-.13l-.23-.07h-.21l-.31,0a2.07,2.07,0,0,1-.57-.14,9.67,9.67,0,0,1-3.27-2.22c-.89-.84-1.71-1.71-2.53-2.55a15.58,15.58,0,0,0-3.14-2.66,3.73,3.73,0,0,0-.8-.36,2.55,2.55,0,0,0-.81,0,6.35,6.35,0,0,0-1.9.38,4.85,4.85,0,0,0-2.18,1.74,6.1,6.1,0,0,0-.94,2.77,8.39,8.39,0,0,0,.23,3.06l.16.77.26.73.25.73c.11.24.24.46.35.69A9.39,9.39,0,0,0,247.8,91a12.91,12.91,0,0,0,4.3,1.79,15.6,15.6,0,0,0,2.05.31c2.58.18,3.4.23,4.07.62a3.28,3.28,0,0,1,.46.26c.36.25-.69,1-2.88,1.34a14.27,14.27,0,0,1-9.66-2.51,11.78,11.78,0,0,1-3.51-4.1,14.72,14.72,0,0,1-1-2.51c-.14-.42-.2-.86-.3-1.29a11,11,0,0,1-.24-1.34,10.09,10.09,0,0,1,.38-4.2,7.44,7.44,0,0,1,2.59-3.7,8.08,8.08,0,0,1,4.16-1.46c.18,0,.33,0,.55,0l.72.07a2.48,2.48,0,0,1,.65.15l.6.21c.35.17.67.36,1,.55l.85.6Z"/><path class="cls-1" d="M258.55,110.64a16.22,16.22,0,0,0,.81-2.5c.09-.31.09-.63.16-1a21.5,21.5,0,0,0,.51-3.39,7.57,7.57,0,0,0-.07-1.51,9.36,9.36,0,0,1-.27-1.89c0-.2.41-.3.85-.24a1.23,1.23,0,0,1,1,.73,9.38,9.38,0,0,1,.1,4.34c-.18.84-.16,1.73-.31,2.59a24.14,24.14,0,0,1-.68,2.79c-.2.56-.37,1.12-.61,1.67a11.26,11.26,0,0,1-.55,1.23c-.18.41-.41.81-.63,1.21s-.33.62-.49.94a5.32,5.32,0,0,1-.59,1c-.1.13-.18.28-.29.41-.49.42-.76.43-1.17,0a3.71,3.71,0,0,1-.27-.29,1,1,0,0,1-.14-1.09c.49-.87,1-1.7,1.55-2.69a17.59,17.59,0,0,0,1-2.33Z"/><path class="cls-1" d="M268.39,148.23c3.33,1,6.74,1.73,10.17,2.66,1.25.33,2.52.64,3.76,1.1a24.57,24.57,0,0,1,3.25,1.44,13.6,13.6,0,0,1,1.55,1,8,8,0,0,1,.72.61,6.12,6.12,0,0,1,.86.93l.43.52c0,.18-.21.38-.3.57a12,12,0,0,1-.71,1.12q-.51.7-1.05,1.38c-.71.9-1.45,1.76-2.18,2.62a55.28,55.28,0,0,0-3.65,4.69,27.42,27.42,0,0,0-1.88,3.21,33.46,33.46,0,0,0-1.52,3.35c-.28.72-.61.57-.83-.19a4.42,4.42,0,0,1-.16-1.56,5.18,5.18,0,0,1,.46-2.09,33.35,33.35,0,0,1,4.52-6.7c.84-1,1.71-2,2.56-3,.41-.49.84-1,1.24-1.47.2-.25.41-.5.59-.75l.47-.61.1-.12s.09-.09,0-.13l-.09-.14a2.63,2.63,0,0,0-.28-.24,8,8,0,0,0-1.83-1.15,26.54,26.54,0,0,0-4.37-1.54c-3.32-1-6.78-1.71-10.23-2.59-2.12-.53-4.23-1.12-6.33-1.8a43.28,43.28,0,0,1-9.17-4.1,24,24,0,0,1-6.05-5c-.36-.46-.72-.92-1.07-1.4-1.14-1.89-1.13-2.67-.76-3.31a2.46,2.46,0,0,1,.28-.43c.38-.36,1.05.27,1.88,1.43a25.31,25.31,0,0,0,9.93,8.13,56.86,56.86,0,0,0,9.67,3.46Z"/><path class="cls-1" d="M192.63,224.52q6.51-7.67,12.61-15.7c1.46-2,2.89-3.95,4.32-5.93,5.1-7,10-14.08,14.54-21.43q1.53-2.43,2.94-4.94c1-1.65,1.87-3.34,2.77-5,2.31-4.31,4.42-8.72,6.75-13,.73-1.34,1-1,.91.38a19.12,19.12,0,0,1-1.81,6.37c-1.07,2.28-2.24,4.5-3.41,6.73s-2.45,4.4-3.74,6.56c-2.58,4.33-5.29,8.58-8.18,12.74-3.44,5-6.92,10.22-10.57,15.22q-6,8.22-12.52,16.1c-2.66,3.24-5.38,6.42-8.13,9.57-4.18,4.77-8.53,9.42-13,13.88-3.46,3.47-6.86,6.87-10.64,10-.84.67-1.67,1.34-2.57,2a14.16,14.16,0,0,1-3.86,2.07,6.11,6.11,0,0,1-1.19.23,2.57,2.57,0,0,1-.88-.15,2.79,2.79,0,0,1-.64-.27c-.39-.42,1-.92,3.25-2.49a48.19,48.19,0,0,0,5.06-3.84c.83-.69,1.65-1.41,2.46-2.15s1.63-1.48,2.44-2.24c3.23-3,6.41-6.25,9.53-9.54,4.63-4.89,9.14-9.95,13.48-15.14Z"/><path class="cls-1" d="M209.78,287.67a108.5,108.5,0,0,1-13.72-7c-1.6-1-3.23-1.87-4.79-2.88-5.52-3.53-10.8-7.38-16.28-10.83a71.25,71.25,0,0,0-7.51-4.09c-.83-.35-1.66-.73-2.51-1l-1.27-.44c-.43-.1-.86-.22-1.28-.35a7.56,7.56,0,0,0-1.29-.31c-.43-.08-.87-.2-1.3-.25a13.73,13.73,0,0,0-2.64-.11c-1.09,0-1.06-.28-.12-.78a9.49,9.49,0,0,1,.87-.4,6.76,6.76,0,0,1,1.18-.3,9.81,9.81,0,0,1,3.11-.13,16.82,16.82,0,0,1,2.91.66l1.41.46c.47.17.91.36,1.37.54a41.36,41.36,0,0,1,5.23,2.53c3.33,1.92,6.47,4.07,9.57,6.27,3.71,2.63,7.71,5.12,11.64,7.54a127.42,127.42,0,0,0,13.32,7.28c1.4.68,2.85,1.23,4.28,1.84s2.91,1.11,4.4,1.54a54.44,54.44,0,0,0,13.8,2.6,49.43,49.43,0,0,0,10.68-.74c.77-.16,1.52-.33,2.3-.45,2.86-.6,3.86-.52,4.59-.29a3.52,3.52,0,0,1,.48.14c.18.09,0,.26-.5.55a15.71,15.71,0,0,1-2.31,1.12,42.61,42.61,0,0,1-4.88,1.3l-2.54.39-1.29.18-1.29.09c-.87.06-1.75.12-2.62.15l-2.64-.07a23.41,23.41,0,0,1-2.64-.18c-.87-.1-1.76-.15-2.63-.3a66.26,66.26,0,0,1-15.11-4.23Z"/><path class="cls-1" d="M165,273.89c-1.18-1.09-2.32-2.23-3.43-3.4-.41-.43-.85-.82-1.23-1.28a19.62,19.62,0,0,1-3.38-5.44,6,6,0,0,1-.38-3.1,3.51,3.51,0,0,1,1-1.89,4.17,4.17,0,0,1,1.69-1c.38-.13.5.32.46.87a3.38,3.38,0,0,1-.16.84,1.81,1.81,0,0,1-.3.7,2.29,2.29,0,0,0-.42,1.92,10,10,0,0,0,1.09,2.73,15.45,15.45,0,0,0,2.63,3.14c1.06,1.1,2.17,2.19,3.33,3.23.71.64,1.44,1.28,2.18,1.89,1.14.92,2.27,1.85,3.48,2.66.94.63,2,1.12,2.93,1.67.22.12.43.24.64.38.74.55.9.87.69,1.52a2.48,2.48,0,0,1-.15.41,1.11,1.11,0,0,1-1.4.34,12.71,12.71,0,0,1-2.87-1.28,22.21,22.21,0,0,1-2.67-1.79c-1.29-1-2.52-2-3.74-3.06Z"/><path class="cls-1" d="M269.57,198.41a50.35,50.35,0,0,0,2.78-6.48,22.43,22.43,0,0,0,1.35-6.69,12.15,12.15,0,0,0-.84-4.69,10.84,10.84,0,0,0-2.24-3.54,11.79,11.79,0,0,0-1.61-1.46c-.29-.22-.57-.47-.88-.67l-.93-.59a18.88,18.88,0,0,0-8.46-2.6,23.06,23.06,0,0,0-8,.88c-.82.24-1.63.53-2.44.83s-1.6.63-2.36,1-1.56.74-2.32,1.16-1.51.84-2.25,1.29c-.94.54-1,.16-.51-.69a10.15,10.15,0,0,1,3.63-3.24,27.73,27.73,0,0,1,10.72-3.28,21.21,21.21,0,0,1,11.19,1.84,20.33,20.33,0,0,1,5.76,4,12.89,12.89,0,0,1,3.51,6.27,17.92,17.92,0,0,1-.11,7.72,36.56,36.56,0,0,1-2.39,7.12c-1.22,2.8-2.66,5.48-4.1,8.12-2.11,4-4.55,8-6.86,11.83-1.81,3-3.47,6-5.28,9-.4.65-.76,1.31-1.21,1.95a11.62,11.62,0,0,1-2,2.37,3.55,3.55,0,0,1-.69.5,3.25,3.25,0,0,1-.64.22c-.18,0-.37.12-.49.12-.36.05-.07-1.16.86-3,2.93-5.42,6.4-10.95,9.71-16.58l1.83-3.13c.61-1.05,1.15-2.08,1.75-3.17,1.17-2.16,2.33-4.28,3.38-6.43Z"/><path class="cls-1" d="M238,248.69c7.52,3.49,15.77,5.58,24,7.2,3,.58,6.08,1,9.14,1.45q8.07,1.19,16.22,1.85,4.08.35,8.15.53c1.36,0,2.72.1,4.07.1s2.75,0,4.12,0a53.05,53.05,0,0,1,14.64,2.07,19.63,19.63,0,0,1,8.33,4.89,20.32,20.32,0,0,1,4.76,8.31c.45,1.93.11,1.73-.92.39s-2.76-3.77-4.93-6.17a17.06,17.06,0,0,0-7.23-4.58,39.24,39.24,0,0,0-8.84-2,71.35,71.35,0,0,0-9.28-.4c-3.28,0-6.44-.2-9.65-.45-7.64-.61-15.59-1.27-23.35-2.5a135.75,135.75,0,0,1-25.16-6.18,62.23,62.23,0,0,1-7.36-3.23,35.1,35.1,0,0,1-6.74-4.51,19,19,0,0,1-4-4.79,13.15,13.15,0,0,1-1.75-6.12,16.59,16.59,0,0,1,1.5-6.09,49.94,49.94,0,0,1,2.73-5.42,182.66,182.66,0,0,1,10.14-15.35l2.34-3.26c3-4,4-5.16,5-5.82.23-.14.47-.37.65-.45.58-.28-.09,1.84-2.09,5-3,4.61-6.29,9.11-9.36,13.83-1.55,2.35-3.05,4.74-4.42,7.18a38.4,38.4,0,0,0-3.36,7.48,13.19,13.19,0,0,0-.49,2.7,9.84,9.84,0,0,0,.38,2.59A12.79,12.79,0,0,0,228,241.8a30.82,30.82,0,0,0,10,6.82Z"/><path class="cls-1" d="M292.91,242.65l15.12,4c1.84.49,3.7.94,5.54,1.49,3.23,1,6.45,2,9.6,3.34a40.71,40.71,0,0,1,9,4.91,15.22,15.22,0,0,1,5.62,7.41l.39,1.48a12.81,12.81,0,0,1,.14,1.52l0,.76a5.69,5.69,0,0,1-.08.83,8.32,8.32,0,0,1-.43,1.52,54.21,54.21,0,0,1-2.76,5.05c-.51,1-.71.83-.67-.26a22.43,22.43,0,0,1,1.31-4.89,5.45,5.45,0,0,0,.36-2.32l-.2-1.26a5.53,5.53,0,0,0-.27-1.22,10.77,10.77,0,0,0-.94-2.31,14.1,14.1,0,0,0-1.53-2,29.32,29.32,0,0,0-9-6.15A81.4,81.4,0,0,0,310.8,250c-5-1.41-10.12-2.69-15.21-4-3.13-.83-6.26-1.67-9.38-2.56-4.72-1.36-9.42-2.89-14-4.64a85.74,85.74,0,0,1-10.37-4.62,24.87,24.87,0,0,1-2.18-1.24c-.66-.44-1.2-.8-1.64-1.13a6.66,6.66,0,0,1-1-.93,2.49,2.49,0,0,1-.74-1.44,2.77,2.77,0,0,1,0-.62c.11-.58,1.35-.13,3.19,1a93,93,0,0,0,18.51,8.31c4.9,1.66,9.92,3.12,15,4.45Z"/><path class="cls-1" d="M300.35,256.23c-.67.63-1.38,1.21-2.11,1.78-.25.21-.47.46-.75.66a19.88,19.88,0,0,1-3.1,1.8c-.47.23-.95.47-1.41.72s-.62.29-.94.41a2.62,2.62,0,0,1-1,.14c-.23,0-.27-.43-.21-.9s.19-1,.47-1.11c1-.51,1.9-1.22,3.05-1.7a7.68,7.68,0,0,0,1.78-1.41c.63-.55,1.25-1.13,1.88-1.72.38-.37.77-.73,1.12-1.13a15.9,15.9,0,0,0,1.54-1.85,12,12,0,0,0,.8-1.7c.06-.12.1-.26.17-.37.26-.43.5-.46,1.14-.18l.43.19a1.08,1.08,0,0,1,.66,1.08,6.89,6.89,0,0,1-1.6,3.27,27.23,27.23,0,0,1-1.83,2.06Z"/><path class="cls-1" d="M309,240.43c-4.86-1.21-9.78-2.32-14.67-3.6-1.78-.46-3.58-.9-5.35-1.44a67.83,67.83,0,0,1-9.21-3.46,25.83,25.83,0,0,1-8.13-5.73,12.34,12.34,0,0,1-.93-1.09l.28-1.42a22.14,22.14,0,0,1,.67-2.14,28.52,28.52,0,0,1,1.92-4,57.55,57.55,0,0,1,6.54-8.93c1.52-1.72.92,1.52-1.53,4.9a36.31,36.31,0,0,0-5.29,9.36c-.15.41-.23.83-.36,1.24l-.07.31c0,.12,0,0,0,.07a0,0,0,0,0,0,0l0,0,.19.22.43.49a10.11,10.11,0,0,0,.95.9,25.62,25.62,0,0,0,4.38,3.11,57.47,57.47,0,0,0,12.71,4.73c4.85,1.35,9.78,2.48,14.72,3.65,3,.73,6.08,1.46,9.1,2.29a74.6,74.6,0,0,1,13.41,4.85c.82.44,1.65.83,2.43,1.34.39.24.8.47,1.18.72l1.13.82.57.42.52.47,1,.94.93,1.08.47.54.38.61.68,1.06c.2.38.35.77.53,1.17,1.07,3,.68,4.12.28,4.76a2.67,2.67,0,0,1-.32.43c-.18.14-.38-.09-.56-.6s-.31-1.3-.67-2.25a13.76,13.76,0,0,0-2-4A17.3,17.3,0,0,0,332,249.2a35.94,35.94,0,0,0-8.62-4.49A124.21,124.21,0,0,0,309,240.48Z"/><path class="cls-1" d="M243.53,275c.25-1.3.55-2.58.87-3.85.11-.46.16-.94.29-1.4.48-1.61,1.05-3.18,1.58-4.76.23-.7.41-1.41.59-2.12.14-.44.27-.89.42-1.33l.13-.33a3.07,3.07,0,0,1,.24-.29,4.08,4.08,0,0,0,.39-.6s.06-.09.11,0,0,0,0,0,.05-.06.11-.07.08.09.12.16.17.35.28.61.17.27.24.42.07.15.13.23v.21l-.14,1.44a13.23,13.23,0,0,1-.34,1.38c-.26.91-.55,1.81-.89,2.7a23.73,23.73,0,0,0-.79,3.38c-.29,1.24-.57,2.48-.79,3.73-.13.77-.26,1.54-.34,2.31a18.8,18.8,0,0,0-.15,3.51,13.47,13.47,0,0,0,.53,2.57,5.52,5.52,0,0,1,.16.54c.14.68,0,.92-.44,1.26l-.33.23c-.38.21-.85,0-1.2-.5a9.42,9.42,0,0,1-1.26-5.36,31.43,31.43,0,0,1,.4-4Z"/><path class="cls-1" d="M223.43,331c-7.82-2-15.62-4.21-23.32-6.78-2.81-.94-5.62-1.89-8.37-3a61.39,61.39,0,0,1-13.92-7.48,22.69,22.69,0,0,1-3-2.73,14,14,0,0,1-2.35-3.38,21.92,21.92,0,0,1-2.41-7.69,27,27,0,0,1,2.5-13.85,68.5,68.5,0,0,1,4.13-7.88,58.93,58.93,0,0,0,4.17-7.56c.31-.8.47-1.14.67-1.09s.35.54.33,1.37c0,1.69-1,4.61-2.62,7.54-1.46,2.62-2.93,5.16-4.15,7.79a30.61,30.61,0,0,0-2.57,8.13,19.94,19.94,0,0,0,.44,8.28,21.27,21.27,0,0,0,1.53,3.94,13.35,13.35,0,0,0,2.38,3.38,32.52,32.52,0,0,0,8.72,6,100.36,100.36,0,0,0,10.11,4.32c7.55,2.83,15.35,5.08,23.18,7.17q7.25,1.9,14.53,3.65l22.09,5.21c5.7,1.35,11.31,2.56,16.89,4.24,1.23.37,2.44.75,3.67,1.21,4.52,1.71,5.89,3.15,6.13,4.39a1.94,1.94,0,0,1,0,.82c-.05.15-.18.16-.35.1s-.38-.23-.71-.43a22.37,22.37,0,0,0-3.24-1.65A111.08,111.08,0,0,0,263,340.53c-5.19-1.29-10.49-2.52-15.81-3.76-7.9-1.84-15.85-3.71-23.76-5.7Z"/><path class="cls-1" d="M313.14,342.67a126.42,126.42,0,0,1-2.25,17.39q-1.61,8.56-3.66,17c-1,4.11-2,8.22-3.12,12.29-.51,1.78-1,3.55-1.61,5.31-.28.89-.58,1.77-.91,2.66l-.41,1.06-.21.54c0,.12-.12.12-.22.13l-.29,0-1.16.14-.44,0-.37,0a45.48,45.48,0,0,1-11.19-1.35c-3.62-.79-7.17-1.76-10.72-2.64-1.77-.44-3.55-.86-5.32-1.19-.89-.15-1.77-.3-2.65-.38-.44-.06-.88-.07-1.31-.09h-.74l-1.09.13a2.53,2.53,0,0,1-.67,0h-.39l-.24-.06a2,2,0,0,1-.24-.05.76.76,0,0,1-.1-.3,3.06,3.06,0,0,1,.2-1.5l.31-.89.28-.76.45-1.17,1.8-4.61,3.59-9.17c1.52-3.91,3-7.85,4.41-11.8.71-2,1.41-3.95,2.05-5.93a47.14,47.14,0,0,0,1.63-6c.22-1.26.19-1.73.34-1.73s.42.63.44,1.78a38.35,38.35,0,0,1-2.1,11.07c-1.77,5.48-3.73,10.87-5.76,16.24l-3.15,8-1.56,4c-.18.48-.11.29-.14.36l0,.08c-.05.09,0,0,.08.05H267c.4,0,.78,0,1.16,0,.77.05,1.51.15,2.25.26,1.46.22,2.89.52,4.31.85,2.82.66,5.6,1.41,8.37,2.12,2.5.64,5,1.24,7.57,1.69a34.66,34.66,0,0,0,7.63.64l.72-.05.16,0h.08l0-.07.15-.43.32-.93c.41-1.24.78-2.5,1.15-3.77.74-2.54,1.43-5.09,2.1-7.64q2.21-8.4,4-16.92c1.21-5.68,2.28-11.38,3-17.11.23-1.76.43-3.53.55-5.29a36.76,36.76,0,0,0,.08-5.24c0-.43-.09-.84-.13-1.26a9.94,9.94,0,0,0-.28-1.2,16,16,0,0,0-.93-2.37c-.19-.39-.36-.78-.56-1.16l-.68-1.1a25.6,25.6,0,0,0-1.5-2.13,58.17,58.17,0,0,0-11.79-10.82,141.4,141.4,0,0,0-13.65-8.59c-7.29-4.05-14.69-7.55-22.17-11.05l-4.92-2.33c-6.12-3-7.95-4.3-9-5.44a8,8,0,0,1-.64-.79c-.16-.32.34-.11,1.45.38l5.16,2.24c13.53,5.84,27.93,12.18,41.21,20.87,2.45,1.62,4.88,3.31,7.21,5.16a59.94,59.94,0,0,1,6.66,6,31.33,31.33,0,0,1,5.36,7.48l.52,1.07.39,1.14c.13.38.28.74.38,1.15s.2.85.25,1.24a28.27,28.27,0,0,1,.19,4.65Z"/><path class="cls-1" d="M134.74,334.2a15.09,15.09,0,0,0,2.87.28l3.32.14c2.22.09,4.45.14,6.67.2l13.37.24,9.76,0c11.46.13,22.92.22,34.38.13,5.09-.05,10.2-.18,15.24-.38,6.46-.27,13-.61,19.34-1.1,1.88-.24,1.84.16.22,1a23.93,23.93,0,0,1-8.53,1.94c-6.65.47-13.28.68-19.92.78s-13.3.11-20,0c-8-.11-16.31,0-24.49,0-9-.06-18-.17-27-.4-1.39,0-2.76-.07-4.18-.15l-.53,0-.62-.07a5.54,5.54,0,0,1-1.18-.36,5.48,5.48,0,0,1-2-1.46,8.77,8.77,0,0,1-1.88-4.18,16.87,16.87,0,0,1-.24-4.36,23.1,23.1,0,0,1,1.28-6.4,12.45,12.45,0,0,1,.69-1.55,13.73,13.73,0,0,1,1-1.43,10.81,10.81,0,0,1,2.51-2.27,19.11,19.11,0,0,1,6-2.51,42.87,42.87,0,0,1,6.29-1,153.43,153.43,0,0,1,19.3,0l4.19.16,5.46.2a12.41,12.41,0,0,1,2.4.32,7.2,7.2,0,0,0,.84.11c.18.05.22.16.07.35a2,2,0,0,1-.36.36,4.15,4.15,0,0,1-.62.35,12.36,12.36,0,0,1-4.55.78c-5.82.11-11.64-.37-17.53-.42-2.94,0-5.88.05-8.78.32a32.85,32.85,0,0,0-8.35,1.72,11.07,11.07,0,0,0-4.71,3.17,13.1,13.1,0,0,0-.73,1.1,9.24,9.24,0,0,0-.55,1.3,20.82,20.82,0,0,0-.88,9.06,7.42,7.42,0,0,0,.81,2.55,3.1,3.1,0,0,0,1.62,1.39Z"/><path class="cls-1" d="M102.3,363.81c2-3.13,4.22-6.1,6.51-9,.85-1.05,1.68-2.11,2.56-3.14a93.35,93.35,0,0,1,10.26-9.92l2.48-2c.82-.66,1.69-1.26,2.53-1.89a28.64,28.64,0,0,1,7-4.1c.79-.31.89.17.51,1a7.47,7.47,0,0,1-2.45,2.71A112.23,112.23,0,0,0,119,347.11a39.36,39.36,0,0,0-3.5,3.46l-1.67,1.85-1.6,1.91a106.38,106.38,0,0,0-6.64,8.71c-.64.92-1.22,1.88-1.84,2.83s-1.22,1.89-1.76,2.88c-.84,1.48-1.73,2.94-2.48,4.48s-1.58,3-2.22,4.59c-.51,1.22-1.06,2.41-1.46,3.64s-.86,2.45-1.31,3.67c-.2.54-.34,1.08-.53,1.62a11.86,11.86,0,0,1-1,2.07,2.65,2.65,0,0,1-.8.81c-.12.07-.24.18-.33.22s-.22-.14-.23-.56a7.56,7.56,0,0,1,.16-1.84,41.16,41.16,0,0,1,2-7c.41-1.16.94-2.29,1.42-3.45s1-2.3,1.58-3.41c.82-1.68,1.66-3.35,2.61-5l1.39-2.44,1.49-2.38Z"/><path class="cls-1" d="M126.51,488.4a24.32,24.32,0,0,0,3.16.91c1.07.25,2.13.56,3.21.76l3.27.49c.55.08,1.09.18,1.64.24l1.65.09a60.24,60.24,0,0,0,13.28-.41,60.85,60.85,0,0,0,9.46-2.15,51.61,51.61,0,0,0,15.27-7.46,47.61,47.61,0,0,0,6.43-5.61,44.11,44.11,0,0,0,5.32-6.7,50.07,50.07,0,0,0,6.22-13.86,92.37,92.37,0,0,0,2.79-19.32c.14-2,.89-1.78,1.59,0a14.16,14.16,0,0,1,.88,3.69c.08.77.15,1.61.17,2.5s-.07,1.82-.17,2.79a62.25,62.25,0,0,1-5.71,20A48.7,48.7,0,0,1,182,480.79a56.88,56.88,0,0,1-22.72,11.35,65.7,65.7,0,0,1-27.81.58,54.35,54.35,0,0,1-16.06-6.08c-.93-.56-1.88-1.1-2.8-1.67L110,483l-1.31-1c-.42-.34-.81-.73-1.22-1.09l-2.41-2.2c-.79-.75-1.46-1.61-2.2-2.4l-1.08-1.22-.54-.6-.48-.66a50.53,50.53,0,0,1-3.64-5.36,40.58,40.58,0,0,1-2.4-4.38l-1.06-2.26a17.53,17.53,0,0,1-1-2.28c-.55-1.56-1.14-3.11-1.66-4.69s-.81-3.21-1.22-4.82A17.19,17.19,0,0,1,89.4,448l-.33-2.16a24.3,24.3,0,0,1-.34-5.78,5.37,5.37,0,0,1,.67-2.57,4.28,4.28,0,0,1,.5-.77c.59-.51,1.18,1.66,1.52,5.48A73,73,0,0,0,95.57,459a53.52,53.52,0,0,0,9.1,15.05c.74.81,1.46,1.65,2.21,2.45l2.44,2.21c.41.36.8.76,1.23,1.1l1.34,1c.89.64,1.75,1.34,2.67,1.94a51,51,0,0,0,5.8,3.18c1,.45,2,1,3,1.36l3.14,1.08Z"/><path class="cls-1" d="M120.29,375a66.1,66.1,0,0,1,31.35-4.56,68.16,68.16,0,0,1,11.44,2,74.16,74.16,0,0,1,34.19,21.26,76.41,76.41,0,0,1,5.75,6.94,70.83,70.83,0,0,1,4.9,7.53,62.67,62.67,0,0,1,4.75,10.49c.3.92.62,1.83.85,2.76s.52,1.86.7,2.81a29.6,29.6,0,0,1,.77,5.71c.08,2.4-.3,2.08-1.07.18s-2-5.31-3.4-9.3A65,65,0,0,0,206,410.52a72.23,72.23,0,0,0-6.1-9.49,78,78,0,0,0-16.21-15.83,65,65,0,0,0-25.47-11,63.68,63.68,0,0,0-30.48,1.28,68.19,68.19,0,0,0-17.28,7.84,83.21,83.21,0,0,0-21.21,19.47A79.06,79.06,0,0,0,78.32,421.9c-.58,1.49-1.06,3-1.5,4.52a29.48,29.48,0,0,0-1.16,6,13,13,0,0,0,0,2.5,2.41,2.41,0,0,0,.39.84c.1.19,0,.3-.28.3a2,2,0,0,1-1.35-.78c-1-1.18-1.28-3.28-1-5.63a39.3,39.3,0,0,1,2.8-10.08,72.21,72.21,0,0,1,4.69-9.45,89.7,89.7,0,0,1,13-17,79.23,79.23,0,0,1,26.36-18.2Z"/><path class="cls-1" d="M439,379.68a65.45,65.45,0,0,0-7.09-1.89,13.73,13.73,0,0,0-1.81-.33l-1.82-.26-1.82-.26a12.49,12.49,0,0,0-1.83-.2c-2.45-.1-4.91-.37-7.37-.25a64.92,64.92,0,0,0-7.36.56,68.35,68.35,0,0,0-10.49,2.38,69.53,69.53,0,0,0-31.62,20.49,66.45,66.45,0,0,0-5.24,6.71,69.81,69.81,0,0,0-4.38,7.25,77.62,77.62,0,0,0-4.38,9.92c-.6,1.7-1.19,3.41-1.69,5.15-.28.86-.5,1.74-.73,2.61-.11.44-.27.87-.39,1.3l-.36,1.31c-.61,2.18-.87,1.85-1-.15a25.73,25.73,0,0,1,1.35-9.79,72.46,72.46,0,0,1,26.55-36.49,73.66,73.66,0,0,1,25.22-12,69.91,69.91,0,0,1,15.31-1.92c1.29-.06,2.57,0,3.86.1l3.85.21,3.83.53,1.91.27c.63.11,1.25.28,1.88.42A62.34,62.34,0,0,1,451.13,382c1,.6,2.13,1.1,3.12,1.78l3,2c.49.34,1,.66,1.48,1l1.39,1.13,2.78,2.27c.9.79,1.73,1.65,2.59,2.48l1.29,1.24.64.63.58.67,2.34,2.7c.38.46.79.89,1.15,1.36l1,1.44a75.29,75.29,0,0,1,10.59,19.08l.46,1.11c.14.37.25.75.38,1.13.24.76.49,1.52.73,2.29a36.81,36.81,0,0,1,1,3.65c.2,1,.34,1.86.42,2.56a7.28,7.28,0,0,1-.06,2.89,5.54,5.54,0,0,1-.26.9c-.36.64-1.32-1.63-2.42-5.76A97.54,97.54,0,0,0,476,410.66,73,73,0,0,0,464,395l-2.65-2.57-2.88-2.31-1.44-1.16c-.5-.36-1-.69-1.53-1l-3.07-2.05c-1.06-.62-2.16-1.19-3.24-1.79l-1.62-.88c-.55-.29-1.13-.5-1.69-.76l-3.4-1.46c-1.15-.44-2.34-.78-3.5-1.18Z"/><path class="cls-1" d="M136.76,456.35a24.77,24.77,0,0,0,10.79,1.16,12.07,12.07,0,0,0,2-.28c.65-.15,1.32-.23,2-.43a16.69,16.69,0,0,0,6.3-2.81,16.48,16.48,0,0,0,4.55-5.25l.71-1.42c.21-.48.37-1,.56-1.49a27.54,27.54,0,0,0,.85-3.08c.5-2.71.62-5.46,1-8.22.15-.86.9-.74,1.59,0a4.87,4.87,0,0,1,.93,1.62,6.68,6.68,0,0,1,.27,1.09,5.54,5.54,0,0,1,0,1.22,30.83,30.83,0,0,1-2.06,8.91,19.21,19.21,0,0,1-5.41,7.68,22.7,22.7,0,0,1-4.8,3.14,22.44,22.44,0,0,1-5.41,1.73c-.51.09-1,.19-1.52.27l-1.52.14c-1,.12-2,.09-3,.11s-2-.09-3.06-.13c-.51,0-1-.15-1.52-.22a13.14,13.14,0,0,1-1.52-.29,21.35,21.35,0,0,1-7-2.9,20.69,20.69,0,0,1-4.35-3.73,22.16,22.16,0,0,1-1.73-2.26l-.79-1.18-.68-1.24a34,34,0,0,1-3.14-8.06c-.14-.61-.28-1.22-.39-1.85a7.29,7.29,0,0,1-.11-2.52,1.66,1.66,0,0,1,.69-1.15,3.87,3.87,0,0,1,.51-.35c.59-.24,1.16.66,1.46,2.25,1,4.71,2.51,9.49,5.42,13.3a19.61,19.61,0,0,0,3.76,3.69,17.8,17.8,0,0,0,4.7,2.44Z"/><path class="cls-1" d="M262.89,414.39l2.38-5.49c.29-.67.52-1.36.81-2l3.21-7c.46-1,.88-2.1,1.28-3.16.27-.67.5-1.37.79-2a11.45,11.45,0,0,1,1.09-1.95c.28-.39.63-.1.88.45a3.09,3.09,0,0,1,.19,2.14,81.85,81.85,0,0,1-3.6,8.11c-.82,1.59-1.41,3.35-2.11,5L265.43,414,264,417.4c-.71,1.73-1.45,3.46-2.09,5.2-.5,1.35-.84,2.73-1.27,4.09-.11.3-.19.59-.31.89-.44,1.08-.71,1.37-1.26,1.44a2.71,2.71,0,0,1-.37.05c-.39,0-.53-.58-.4-1.46.11-.64.22-1.29.36-1.94s.37-1.27.57-1.9c.41-1.27.88-2.53,1.36-3.8.72-1.87,1.5-3.73,2.25-5.6Z"/><path class="cls-1" d="M272.58,415.38l2.43-4.93c.29-.6.54-1.23.84-1.82,1-2.11,2.11-4.22,3.16-6.32.47-.94.87-1.91,1.31-2.85a27.37,27.37,0,0,1,1.82-3.58c.23-.35.46-.17.58.27a3.42,3.42,0,0,1-.12,1.89,55,55,0,0,1-3.35,7.44c-.77,1.45-1.37,3-2.06,4.58l-2.33,5-1.44,3.09c-.72,1.56-1.46,3.12-2.13,4.69-.51,1.23-.91,2.48-1.36,3.72-.1.27-.18.54-.3.81a2,2,0,0,1-.63,1,1,1,0,0,1-.75.2h-.34c-.28,0-.56-.65-.39-1.43a49.92,49.92,0,0,1,2.66-6.77q1.17-2.5,2.35-5Z"/><path class="cls-1" d="M280.26,415.64c.79-1.56,1.57-3.11,2.33-4.68.27-.58.5-1.17.78-1.74q1.47-3,3-6.05c.43-.9.82-1.82,1.2-2.74a21.35,21.35,0,0,1,1.62-3.46c.44-.67,1.44.91.87,2.24-1,2.37-2.07,4.72-3.31,7-.74,1.38-1.3,2.91-2,4.37s-1.47,3.19-2.22,4.79l-1.41,2.93c-.7,1.49-1.45,3-2.13,4.44-.55,1.15-1,2.32-1.5,3.47-.12.26-.21.51-.34.76-.47.93-.78,1.14-1.34,1.07a1.52,1.52,0,0,1-.38-.05c-.38-.11-.5-.65-.25-1.36a57.55,57.55,0,0,1,2.73-6.33l2.31-4.71Z"/><path class="cls-1" d="M259,427.06s-2.37,1-2.37,6.72c0,4,38.09,3,45.35,1.07s-7.37-7.51-21.3-7.51S259,427.06,259,427.06Z"/><path class="cls-1" d="M357.27,366.29a37.93,37.93,0,0,0-1-6.14c-.46-2.06-1-4.1-1.66-6.14-1.25-4.07-2.69-8.1-4.2-12.11-1.1-2.93-2.32-5.81-3.48-8.72-4.12-10.24-8.5-20.39-12.82-30.57-1.93-4.52-3.86-9.07-5.76-13.55-1.19-2.9-2.43-5.8-3.45-8.78-.51-1.49-1-3-1.43-4.52-.23-.76-.39-1.55-.57-2.32a23.37,23.37,0,0,1-.37-2.37c-.11-2.05.26-1.72.88-.18s1.95,4.25,3.19,7.59c4.43,11.85,9.65,23.53,14.53,35.44,2.93,7.13,6.21,14.45,9.15,21.78q2.43,6,4.6,12.2a119.31,119.31,0,0,1,3.72,12.56,30.68,30.68,0,0,1,.88,8.16,54.93,54.93,0,0,1-1.56,8,154,154,0,0,1-8.22,22.86A144.18,144.18,0,0,1,341.18,416c-.71,1.17-1.38,2.33-2.19,3.45s-1.37,1.91-1.9,2.62a19.49,19.49,0,0,1-1.51,1.61,9,9,0,0,1-2,1.52,6.17,6.17,0,0,1-.68.37c-.27.09-.13-.31.3-1.14s1.15-2.08,2.15-3.62a155.91,155.91,0,0,0,15.52-30.07c1.52-4,2.92-8.06,4.12-12.18.58-2.06,1.13-4.13,1.56-6.2.24-1,.4-2.07.55-3.09.08-.51.08-1,.13-1.47s0-1-.06-1.5Z"/><path class="cls-1" d="M363.4,285.07a65.77,65.77,0,0,0-5.24,5.7c-.3.37-.57.75-.85,1.13l-.39.58c0,.06-.21.28-.32.45l-.34.53c-.16.25-.33.48-.47.74l-.61.64-.52.23c-.43.05-.78-.22-1.2-.62a11.42,11.42,0,0,1-1.08-1.67c-.38-.66-.49-.88-.7-1.28-.77-1.44-1.47-2.92-2.15-4.4s-1.31-2.75-1.95-4.11a27.76,27.76,0,0,1-2.1-5.46c-.13-.6.23-.62.74-.26a5.59,5.59,0,0,1,1.66,2.05c1.66,3.49,3.58,6.88,5.3,10.39.2.41.41.82.64,1.22l.3.56a2.45,2.45,0,0,0,.26.37c.11,0,.16-.23.24-.34l.5-.72a51.27,51.27,0,0,1,5.19-6.27c1.15-1.21,2.36-2.36,3.61-3.47a36.69,36.69,0,0,1,6.2-4.46,11.48,11.48,0,0,1,5.91-1.82,5.11,5.11,0,0,1,1.49.25,6,6,0,0,1,1.08.54,3.74,3.74,0,0,1,.6.57,1.17,1.17,0,0,1,.18,1,2.76,2.76,0,0,1-.15.46.67.67,0,0,1-.7.26,2.06,2.06,0,0,1-.5-.11,3.42,3.42,0,0,1-.6-.18,5.64,5.64,0,0,0-1.91-.18,8.8,8.8,0,0,0-2,.46,19.27,19.27,0,0,0-4.2,2.28,43.55,43.55,0,0,0-5.84,4.94Z"/><path class="cls-1" d="M374.74,314.36c-1.07.05-2.16.07-3.25.09-.4,0-.79.05-1.19,0a24.14,24.14,0,0,1-4.23-.55c-.31-.05-.62-.14-.93-.2a7.43,7.43,0,0,1-.93-.23c-.39-.13-.78-.24-1.17-.39a5,5,0,0,1-1-.69c-.2-.17,0-.48.41-.75a1.65,1.65,0,0,1,1.25-.39c1.37.3,2.7.67,4.19,1a10.8,10.8,0,0,0,2.79.1c1,0,2.08-.06,3.14-.13.65,0,1.3-.09,2-.16,1-.09,2-.16,3-.29.77-.1,1.53-.32,2.35-.37.18,0,.36-.05.54-.05.68.14.88.39.93.86a1.87,1.87,0,0,1,0,.32c0,.34-.31.62-.73.81a15.62,15.62,0,0,1-3.94.72l-3.18.28Z"/><path class="cls-1" d="M387.5,304.42a19.06,19.06,0,0,1-1.22,5.19,7,7,0,0,1-1.73,2.52l-.72.49a8.33,8.33,0,0,1-.82.34,4.18,4.18,0,0,1-1.81.13,4.75,4.75,0,0,1-2.14-1.08,7.85,7.85,0,0,1-1.4-1.5,21.26,21.26,0,0,1-2.82-6,43.78,43.78,0,0,1-1.5-6.23,42.79,42.79,0,0,1-.64-5.62,23,23,0,0,1,.61-7.2c.2-.72.41-.56.56.1a16.69,16.69,0,0,1,.35,3.13,44.52,44.52,0,0,0,.7,7,55.27,55.27,0,0,0,1.49,6.91,20.76,20.76,0,0,0,1.57,4,14.34,14.34,0,0,0,2.31,3.39,2.56,2.56,0,0,0,1.43.85,1.82,1.82,0,0,0,1.4-.6,4.5,4.5,0,0,0,1-1.75,12.76,12.76,0,0,0,.56-2.21,30.68,30.68,0,0,0,.3-5.85,54.84,54.84,0,0,0-1.08-8.95,37.12,37.12,0,0,0-2.13-6.52c-.18-.46-.42-.88-.61-1.33-.74-1.64-.79-2.16-.44-2.89a3.43,3.43,0,0,1,.24-.51c.27-.51,1.26-.11,2.17,1.17a23.2,23.2,0,0,1,2.7,6.17,46,46,0,0,1,1.44,6.63,47.68,47.68,0,0,1,.29,10.22Z"/><path class="cls-1" d="M384.93,352.87c-1.68-2.79-3.28-5.61-4.75-8.49-.55-1.05-1.16-2.06-1.66-3.13q-2.73-5.61-5-11.4c-.7-1.7-1.41-3.4-2.11-5.09a53.67,53.67,0,0,1-2.29-6.64c-.19-.71.12-.72.65-.27a8.68,8.68,0,0,1,2,2.56c.52,1.07,1,2.13,1.55,3.21l1.41,3.26c.48,1.09.95,2.18,1.4,3.27s.92,2.2,1.35,3.32c.51,1.33,1.15,2.65,1.78,4l2,3.91c1.48,2.84,3,5.68,4.65,8.43.51.84,1,1.7,1.54,2.53l1.62,2.48c.83,1.25,1.73,2.44,2.59,3.66s1.85,2.35,2.8,3.49c.78.85,1.57,1.66,2.37,2.47s1.69,1.51,2.49,2.31c.36.34.73.66,1.11,1a8.37,8.37,0,0,1,1.37,1.43,1.73,1.73,0,0,1,.26,1.05,3.23,3.23,0,0,1,0,.46c-.06.22-.29.26-.67.17a4.41,4.41,0,0,1-1.48-.73,40.57,40.57,0,0,1-9.32-9.1c-1-1.27-2-2.64-2.94-4s-1.83-2.73-2.7-4.12Z"/><path class="cls-1" d="M316.75,279.71a5.77,5.77,0,0,1-3.31,1.33,6.26,6.26,0,0,1-3.31-.82,8.42,8.42,0,0,1-2-1.36,4.68,4.68,0,0,1-1.17-1.95,4.63,4.63,0,0,1-.13-2.24,7.69,7.69,0,0,1,1.88-3.61,10.79,10.79,0,0,1,2.7-2.24,5.8,5.8,0,0,1,2.24-.79,2.57,2.57,0,0,1,2.37,1c.31.48-.09.56-.6.6a2.7,2.7,0,0,0-.78.19c-.11,0-.25.12-.34.15a.59.59,0,0,1-.32.11,5.75,5.75,0,0,0-2.91,1.44,7.84,7.84,0,0,0-2.23,2.81,2.7,2.7,0,0,0-.12,1.95,3.43,3.43,0,0,0,1.26,1.6,6.55,6.55,0,0,0,2.22,1.12,3.36,3.36,0,0,0,2.29-.25,5.33,5.33,0,0,0,2.18-2.16,7.53,7.53,0,0,0,1-4.72,2.85,2.85,0,0,0-.68-1.51,1.79,1.79,0,0,0-1.18-.52h-.31l-.34.06a5.92,5.92,0,0,1-1,0,1.58,1.58,0,0,1-.67-.34c-.09-.08-.2-.14-.26-.21s-.1-.28,0-.51a1.79,1.79,0,0,1,.82-.79,4,4,0,0,1,2.38-.46,4.74,4.74,0,0,1,.71.15,7,7,0,0,1,.69.31,5.3,5.3,0,0,1,.6.46,4.29,4.29,0,0,1,.48.56,6.57,6.57,0,0,1,.9,4.77,9.69,9.69,0,0,1-3.12,5.87Z"/><path class="cls-1" d="M342.63,248.73a12.39,12.39,0,0,0,1.88-3.25,6.39,6.39,0,0,0,.28-1.24.74.74,0,0,0-.08-.61,1.67,1.67,0,0,0-.7-.54,4.45,4.45,0,0,0-2.27-.27,5.43,5.43,0,0,0-2.05.7,7.06,7.06,0,0,0-1.93,1.84c-.17.22-.51.08-.7-.33a1.57,1.57,0,0,1,.23-1.69,6.69,6.69,0,0,1,3-2,6.12,6.12,0,0,1,3.6-.13,4.18,4.18,0,0,1,2.15,1.22,6,6,0,0,1,.39.59,2.21,2.21,0,0,1,.2.75,3.91,3.91,0,0,1-.06,1.21,12.09,12.09,0,0,1-1.78,4.14,9.2,9.2,0,0,1-.88,1.12,4,4,0,0,1-1.26,1,4.58,4.58,0,0,1-2.29.27,3.83,3.83,0,0,1-2-1.1,7.45,7.45,0,0,1-1.72-2.85,5.49,5.49,0,0,1-.21-.69c-.19-.9.05-1.22.51-1.4a1.39,1.39,0,0,1,.32-.12c.37-.08.67.24.9.75.49,1.51,1.33,3.1,2.24,3.37a2,2,0,0,0,1.22,0l.18,0c.05,0,0,0,.06,0s.12-.08.19-.12a3.51,3.51,0,0,0,.53-.55Z"/><path class="cls-1" d="M131.43,198.46a126.8,126.8,0,0,1,26.73-26.12c3.68-2.68,7.45-5.23,11.35-7.57,3.47-2,7-3.93,10.59-5.67a111.6,111.6,0,0,1,11.06-4.76,86.62,86.62,0,0,1,23.48-5.15,60.55,60.55,0,0,1,21.27,1.95,45.72,45.72,0,0,1,6.45,2.45,30.74,30.74,0,0,1,5.89,3.68,22.94,22.94,0,0,1,4.79,5.09,17.79,17.79,0,0,1,2.72,6.44c.25,1.43.19,2.07,0,2s-.46-.69-.94-1.77A22.2,22.2,0,0,0,252.4,165a29.83,29.83,0,0,0-4.56-4.74,34.67,34.67,0,0,0-11.46-6.11,53.08,53.08,0,0,0-13-2.37,78.1,78.1,0,0,0-26.73,3.35,91.34,91.34,0,0,0-15.43,6.21,159.55,159.55,0,0,0-14.69,8.34,130.74,130.74,0,0,0-28,24.06,106.35,106.35,0,0,0-13,18.65,68.58,68.58,0,0,0-6.38,15.92,27.32,27.32,0,0,0-.68,4.16,8.44,8.44,0,0,0,.48,4,9.61,9.61,0,0,0,2.25,3.29,17.92,17.92,0,0,0,3.34,2.42,40.15,40.15,0,0,0,12.42,3.9,84.87,84.87,0,0,0,13,1.09c1.93,0,3.82,0,5.75-.13,3.6-.11,5.95-.34,7.61-.46a17.36,17.36,0,0,1,3.44,0c.37,0,.86.05,1.09.11.8.18-2,1.53-7.4,2.27a73.37,73.37,0,0,1-12.17.63,82.1,82.1,0,0,1-12.41-1.21,43.16,43.16,0,0,1-12.26-4,16.8,16.8,0,0,1-5.39-4.3,9.51,9.51,0,0,1-1-1.54l-.43-.83c-.12-.29-.22-.59-.32-.89a10.53,10.53,0,0,1-.52-3.64,35.55,35.55,0,0,1,1.9-9.63,67.25,67.25,0,0,1,3.61-8.87,101.2,101.2,0,0,1,9.92-16.21Z"/><path class="cls-1" d="M156.47,188.36a52.59,52.59,0,0,0,5.65.78c.69.07,1.39,0,2.08.1,2.46.15,4.93.24,7.41.16a29.86,29.86,0,0,0,3.27-.29,36.69,36.69,0,0,1,4.14-.47c.42,0,.49.41.21.92a2.75,2.75,0,0,1-1.72,1.3,26,26,0,0,1-4.37.55,38.15,38.15,0,0,1-4.41,0c-1.76-.1-3.58,0-5.38-.05-2-.09-4-.27-5.92-.55-1.21-.16-2.42-.38-3.61-.64a43.09,43.09,0,0,1-5.36-1.52,21.6,21.6,0,0,1-4-1.67,6,6,0,0,1-.83-.51,2.2,2.2,0,0,1-.87-1,1,1,0,0,1-.05-.78,1.91,1.91,0,0,1,.1-.34c.16-.31.73-.23,1.47.07,1.08.48,2.15.95,3.26,1.38a36.33,36.33,0,0,0,3.47,1.22,46.15,46.15,0,0,0,5.49,1.25Z"/><path class="cls-1" d="M144,196.24a26.89,26.89,0,0,0,3.78-.82c.45-.13.87-.36,1.33-.51a23.28,23.28,0,0,0,4.62-2.06,10.41,10.41,0,0,0,1.76-1.38c.69-.67,1.21-1.43,1.94-2,.23-.18.68.15,1,.69a1.69,1.69,0,0,1,0,1.81,14.06,14.06,0,0,1-5.26,3.83c-1.19.49-2.31,1.2-3.52,1.68a23.68,23.68,0,0,1-4.11,1.23,25.93,25.93,0,0,1-2.62.41,21.8,21.8,0,0,1-4,0,12.1,12.1,0,0,1-3.22-.49,6.81,6.81,0,0,1-.7-.28c-.81-.5-.92-.89-.62-1.53a2.84,2.84,0,0,1,.18-.39,1.35,1.35,0,0,1,1.31-.47c.75.13,1.46.19,2.19.32a21.07,21.07,0,0,0,2.31.17,19,19,0,0,0,3.71-.29Z"/><path class="cls-1" d="M221.73,374.5a51.72,51.72,0,0,0-4.6,10.45,35.44,35.44,0,0,0-.9,4,15.68,15.68,0,0,0,0,6.92,5.26,5.26,0,0,0,.28.73c.11.26.27.53.41.8.27.54.61,1.05.92,1.58.67,1,1.33,2.06,2.09,3a32.62,32.62,0,0,0,4.48,4.76,26.36,26.36,0,0,0,6.88,4.36c.77.28.64.7-.23,1a5.72,5.72,0,0,1-4.08-.62,20.1,20.1,0,0,1-3.8-2.6,34.91,34.91,0,0,1-3.28-3.15,31.3,31.3,0,0,1-5.18-7.46,14.21,14.21,0,0,1-.6-1.38,11.44,11.44,0,0,1-.37-1.48,15.93,15.93,0,0,1-.25-2.9,25.83,25.83,0,0,1,.66-5.59,48.88,48.88,0,0,1,4.25-11.29,66.14,66.14,0,0,1,3.75-6.35,73.17,73.17,0,0,1,6.89-8.74,71.5,71.5,0,0,1,6-6.06c.47-.42.92-.84,1.42-1.22,1.83-1.47,2.6-1.69,3.3-1.55a2.71,2.71,0,0,1,.47.11c.4.19-.13,1.06-1.38,2.16a109.32,109.32,0,0,0-10.59,11,67.4,67.4,0,0,0-6.5,9.54Z"/><path class="cls-1" d="M296.23,89.9a10.8,10.8,0,0,1-.37,2.44,4.92,4.92,0,0,1-.29.72,3,3,0,0,1-.57.78,2.15,2.15,0,0,1-1.75.55,4.19,4.19,0,0,1-2-.87,12.56,12.56,0,0,1-3.41-4.93c-.33-.79-.66-1.58-1-2.36a9.66,9.66,0,0,1-.82-3.13c0-.34.25-.36.62-.17a2.76,2.76,0,0,1,1.14,1.1c.49.94.81,1.93,1.25,2.86s.85,1.87,1.3,2.79a6.38,6.38,0,0,0,2.42,2.54,1.76,1.76,0,0,0,.55.24.4.4,0,0,0,.37-.12,1.3,1.3,0,0,0,.26-.6,6.59,6.59,0,0,0,.17-1c.07-.84.09-1.75.08-2.63,0-1.34-.07-2.71-.14-4.1a26.85,26.85,0,0,1-.1-3.24c0-.24,0-.48.06-.72a1.55,1.55,0,0,1,.35-.91,1,1,0,0,1,.6-.29c.11,0,.22,0,.33,0,.34,0,.57.42.67,1,.11,1.81.17,3.56.26,5.51.08,1.44.1,3,0,4.5Z"/><path class="cls-1" d="M310.66,84.69a9.83,9.83,0,0,1-.43,2,3.05,3.05,0,0,1-.65,1.14,2,2,0,0,1-1.6.62,2.54,2.54,0,0,1-1.75-.94,8.83,8.83,0,0,1-1.16-2.23c-.28-.74-.51-1.49-.72-2.23s-.43-1.31-.57-2a6.74,6.74,0,0,1-.29-2.66c.05-.29.35-.23.69,0a2,2,0,0,1,.86,1c.54,1.55.95,3.18,1.41,4.8a6,6,0,0,0,.59,1.38,5.25,5.25,0,0,0,.76,1c.05,0,.07.07.14.08a.58.58,0,0,0,.17.05c.06,0,0,0,.14-.06a2.92,2.92,0,0,0,.45-1.29,14.2,14.2,0,0,0,.14-2.09,29.88,29.88,0,0,0-.12-3.27c-.08-.84-.3-1.67-.38-2.53a3.66,3.66,0,0,1,0-.57,1.37,1.37,0,0,1,.2-.77,1,1,0,0,1,.53-.31,1.92,1.92,0,0,1,.3-.08.55.55,0,0,1,.44.17,1.31,1.31,0,0,1,.39.56,10.3,10.3,0,0,1,.55,2.22c.08.76.12,1.56.14,2.36a33.34,33.34,0,0,1-.13,3.7Z"/><path class="cls-1" d="M274.17,70.69c-.12-.66-.05-.93.13-1s.18-.19.27-.28.13-.19.22-.19c.27,0,.45-.19.63-.45a2.91,2.91,0,0,1,1.48-.56c.64-.1,1.26-.16,1.37-.17.34,0,1.36-.14,1.48-.37s1-.22,1.17-.45a.26.26,0,0,1,.26-.08c.4,0,.63-.79,1-.77a2.78,2.78,0,0,0,.71-.12c.06,0,.11-.07.17,0,.65.16,1.19-.33,1.81-.33h.38c.08,0,.17,0,.24,0,.38-.35.84-.17,1.29-.06.06,0,.13.09.18,0,.25-.43.62-.1.91-.25a.65.65,0,0,1,.31,0c.08,0,.17.07.24,0,.32-.25.69-.15,1-.28,0,0,0,0,.06,0,.32-.42.75,0,1.16.24.25.16.49.28.67-.1,0-.07.08-.13.13-.08.26.24.48.18.72.24,0,0,0,0,0,.06a16.32,16.32,0,0,1,.27,1.69c0,.29.28,3.8.26,3.91a1.53,1.53,0,0,1-.06.25c-.09.1-.15.31-.15.91,0,.31-.05.4-.1.35-.47-.33-.85,0-1.29-.06-.19,0-.35.11-.53.14l-2.72.29a.7.7,0,0,1-.51-.14.64.64,0,0,0-.47-.13c-.26,0-.5.14-.76.18l-1.08.12-1.82.18s-.05,0-.07,0c-.25.58-1.4.53-1.47.56a5.26,5.26,0,0,1-.95.23,4.24,4.24,0,0,1-.94.19,2,2,0,0,0-.8.2s-.07,0-.12,0a8.36,8.36,0,0,0-2.4.29c-.05,0-.13-.08-.25-.27s-.19-.25-.3-.43-.27-.47-.37-.6a1.3,1.3,0,0,0-.26-.23,3.14,3.14,0,0,1-.4-.75C274.81,72.2,274.31,71,274.17,70.69Z"/><path class="cls-1" d="M296.18,115a4,4,0,0,0,2.42,3,2.87,2.87,0,0,0,2.84-.81,2.35,2.35,0,0,0,.22-3.28c-1-1-2.39-.58-3.4.1a1.88,1.88,0,0,0,1.89,3.24,3.37,3.37,0,0,1,.35-.22l.15-.08c.2-.13-.24.09-.26.1.35-.11-.17,0-.23,0a1.79,1.79,0,0,1-1.52-1.06,1.59,1.59,0,0,1-.09-1c-.06.24.25-.51.12-.27s.18-.21.17-.2a.77.77,0,0,0-.16.15c.06-.13.47-.28.18-.15s.53-.17.21-.1.59,0,.24,0c0,0,.56.11.34,0s.31.14.29.13c-.32-.18.29.26.11.1s.18.34,0,0l-.1-.17c-.07-.12,0-.21,0,0s0,0,0-.07-.07-.22-.1-.34a1.88,1.88,0,0,0-3.62,1Z"/><path class="cls-1" d="M300.44,67.43c-.19-.65-.17-.91-.05-.93s.1-.16.15-.24.07-.16.14-.15.3-.12.41-.35.58-.3,1-.3a5.33,5.33,0,0,1,.87.11c.2,0,.79.17.87,0s.55,0,.67-.17.1-.05.14,0c.2.14.45-.65.63-.53s.24,0,.35,0,.05,0,.08,0c.26.31.57-.07.8.11l.15.12s.05.09.09,0c.18-.25.34,0,.47.26,0,0,0,.11.06,0,.13-.36.23,0,.33,0s.06,0,.09.05.05.11.08.07c.12-.2.21,0,.31,0a0,0,0,0,0,0,0c.1-.3.19.13.32.44s.17.38.19.16c0,0,0-.06,0,0a1.48,1.48,0,0,0,.27.49l0,.07s.23,1,.28,1.23.5,2.75.49,2.87a1.18,1.18,0,0,1,0,.22,2.19,2.19,0,0,0,0,.82c0,.26,0,.37-.05.36s-.3.12-.44.19a.82.82,0,0,1-.43.09c-.13,0-.24.1-.35.14a4.58,4.58,0,0,1-1.65.14c-.09,0-.18-.06-.25-.21s-.14-.19-.22-.2-.27.06-.39.06a1.49,1.49,0,0,1-.52-.08l-.78-.24s0,0,0,0a.38.38,0,0,1-.61.2.56.56,0,0,1-.34,0c-.09,0-.19.08-.29,0s-.14,0-.21,0,0,0,0,0a1.17,1.17,0,0,0-.57-.38s-.05-.11-.15-.32l-.22-.48-.3-.65c-.09-.16-.11-.17-.18-.28s-.22-.44-.38-.79Z"/><path class="cls-1" d="M46.93,408.72a1.43,1.43,0,0,0,.48.91,4.92,4.92,0,0,0,1.5,1,10.19,10.19,0,0,0,4.12.86,11.35,11.35,0,0,0,3.12-.54,9.43,9.43,0,0,0,4.63-3,10,10,0,0,0,.85-1.17,5.84,5.84,0,0,0,.6-1.23,9.61,9.61,0,0,0,.55-2.86,9.36,9.36,0,0,0-1.09-5,2.27,2.27,0,0,0-2-1.37,5,5,0,0,0-2.54,1.35c-.53.44-.95,0-.93-.88a3.08,3.08,0,0,1,.53-1.6,3.39,3.39,0,0,1,2.09-1.49,4.2,4.2,0,0,1,3,.38,5.61,5.61,0,0,1,2,1.83A10.48,10.48,0,0,1,65.37,400a13.7,13.7,0,0,1,0,4.24,9.67,9.67,0,0,1-1.53,4.11,15,15,0,0,1-3.48,3.78,12.25,12.25,0,0,1-4.69,2.2,13.9,13.9,0,0,1-5.6.16,10.36,10.36,0,0,1-5.29-2.43,5.3,5.3,0,0,1-1.21-1.69,4.21,4.21,0,0,1-.37-2.19,5.82,5.82,0,0,1,1.8-3.51l.06-.07.59-.66.9.38a4.15,4.15,0,0,1,2.25,2.42,5,5,0,0,1-.11,3.1,10.38,10.38,0,0,1-3.11,4.28,12.18,12.18,0,0,1-3.5,2.12,8.19,8.19,0,0,1-4.3.46,7.34,7.34,0,0,1-1.89-.56,4.27,4.27,0,0,1-2-1.6,1.47,1.47,0,0,1-.06-1.42,4.24,4.24,0,0,1,.28-.65c.45-.64,1.4-.4,2.45.05a5.28,5.28,0,0,0,2.28.44,5.68,5.68,0,0,0,2.15-.48,7.77,7.77,0,0,0,3.52-3.15,2.81,2.81,0,0,0,.39-1.24s0,0,.12-.06l.07,0s0,0,0,0-.11.09-.07.06,0,0,0,0-.1-.06-.13-.12l3-.56a4.9,4.9,0,0,0-.74.83,1.42,1.42,0,0,0-.18.44Z"/><path class="cls-1" d="M326.63,436.27,265,436.19l-22.49.07-79.26,0c-11.72,0-23.51.12-35.14.26-14.94.18-30,.46-44.86.45-1.16,0-2,0-2.43-.06s-.71-.07-.76-.28a3.92,3.92,0,0,1,.77-.36,17.59,17.59,0,0,1,2.28-.53A126.45,126.45,0,0,1,102.9,434c30.53-.46,61-.48,91.8-.3,18.41.12,37.56-.08,56.39-.11l62.11,0h38.22l57.83-.07c14.88-.07,29.48-.3,44.19-.45l9.68-.12c12.11-.07,16,.1,18.57.86a15.18,15.18,0,0,1,1.72.5c1.16.53-3.77,1.07-12.64,1.24-26.31.53-54,.66-81.91.72l-62.21,0Z"/><path class="cls-1" d="M244.42,140.43c.21-.28.43-.57.62-.88.08-.11.1-.24.17-.35A11.1,11.1,0,0,0,246,138a2,2,0,0,0,.18-.58c0-.26,0-.53.23-.74s1.61.4,1.56.75a3.26,3.26,0,0,1-.73,1.59,4.38,4.38,0,0,0-.46,1c-.18.35-.38.68-.58,1s-.25.39-.38.59a8.42,8.42,0,0,0-.56.9c-.11.25-.17.52-.3.76a1.11,1.11,0,0,1-.07.16c-.13.18-.26.19-.58.05l-.21-.09a.66.66,0,0,1-.4-.5,4.54,4.54,0,0,1,0-.82,2.71,2.71,0,0,1,.25-.69c.15-.32.33-.63.49-1Z"/><path class="cls-1" d="M399.14,487.4a24.78,24.78,0,0,0,3.16.91c1.07.25,2.13.56,3.21.76l3.27.49c.55.08,1.09.18,1.64.24l1.66.09a60.27,60.27,0,0,0,13.28-.41,61,61,0,0,0,9.45-2.15,51.61,51.61,0,0,0,15.27-7.46,47,47,0,0,0,6.43-5.61,43.5,43.5,0,0,0,5.32-6.7,50.07,50.07,0,0,0,6.22-13.86,92.37,92.37,0,0,0,2.79-19.32c.14-2,.89-1.78,1.59,0a14.16,14.16,0,0,1,.88,3.69c.09.77.15,1.61.17,2.5s-.07,1.82-.17,2.79a62.18,62.18,0,0,1-5.71,20,48.74,48.74,0,0,1-13,16.43,57,57,0,0,1-22.72,11.34,65.7,65.7,0,0,1-27.81.58,54.08,54.08,0,0,1-16.06-6.08c-.93-.56-1.87-1.1-2.8-1.67l-2.63-2-1.31-1c-.42-.34-.81-.73-1.22-1.09l-2.41-2.2c-.79-.75-1.46-1.61-2.2-2.4l-1.08-1.22-.54-.6-.48-.66a50.53,50.53,0,0,1-3.64-5.36,40.58,40.58,0,0,1-2.4-4.38l-1.06-2.26a17.53,17.53,0,0,1-1-2.28c-.55-1.56-1.14-3.11-1.66-4.69s-.81-3.21-1.22-4.82A19.51,19.51,0,0,1,362,447l-.33-2.17a24.3,24.3,0,0,1-.34-5.78,5.37,5.37,0,0,1,.67-2.57,3.8,3.8,0,0,1,.51-.77c.58-.51,1.17,1.66,1.51,5.49A72.58,72.58,0,0,0,368.21,458,53.26,53.26,0,0,0,377.3,473c.74.81,1.46,1.65,2.21,2.45L382,477.7c.42.36.8.76,1.24,1.1l1.33,1c.89.65,1.75,1.34,2.67,1.94a51,51,0,0,0,5.8,3.18c1,.45,2,1,3,1.36l3.14,1.08Z"/><path class="cls-1" d="M409.39,455.35a24.77,24.77,0,0,0,10.79,1.16,12.07,12.07,0,0,0,2-.28c.65-.15,1.33-.23,1.95-.43A16,16,0,0,0,435,447.74l.71-1.42c.21-.48.37-1,.56-1.49a27.54,27.54,0,0,0,.85-3.08c.5-2.71.62-5.46,1-8.22.15-.86.9-.74,1.6,0a5,5,0,0,1,.92,1.62,7,7,0,0,1,.27,1.09,6.21,6.21,0,0,1,0,1.22,31.18,31.18,0,0,1-2.07,8.91,19.21,19.21,0,0,1-5.41,7.68,22.89,22.89,0,0,1-4.79,3.14,22.65,22.65,0,0,1-5.42,1.73c-.51.09-1,.19-1.52.27l-1.52.14c-1,.12-2,.09-3,.11s-2-.09-3.06-.13c-.51,0-1-.15-1.52-.22a12.58,12.58,0,0,1-1.51-.29,21.1,21.1,0,0,1-7-2.9,20.4,20.4,0,0,1-4.35-3.73A23.7,23.7,0,0,1,398,450l-.79-1.18-.68-1.24a34.49,34.49,0,0,1-3.14-8c-.14-.62-.27-1.23-.39-1.86a7.29,7.29,0,0,1-.11-2.52,1.64,1.64,0,0,1,.7-1.15,2.89,2.89,0,0,1,.51-.35c.58-.24,1.15.66,1.45,2.26,1,4.7,2.51,9.48,5.42,13.29a19.61,19.61,0,0,0,3.76,3.69,17.8,17.8,0,0,0,4.7,2.44Z"/><path class="cls-1" d="M297.5,257.74c.29-.32.59-.64.85-1,.11-.12.17-.26.27-.38a10.49,10.49,0,0,0,1-1.32,3.23,3.23,0,0,0,.31-.65,2.39,2.39,0,0,1,.33-.85c.13-.16,1,.35.91.75a4.76,4.76,0,0,1-1,1.81,12.4,12.4,0,0,0-.68,1c-.26.36-.53.72-.81,1.06s-.35.43-.52.64a11.56,11.56,0,0,0-.76,1,5.59,5.59,0,0,0-.42.85,1.63,1.63,0,0,1-.09.19c-.13.22-.25.24-.57.07l-.22-.11a.53.53,0,0,1-.31-.56,4,4,0,0,1,.84-1.55c.27-.35.57-.67.84-1Z"/><path class="cls-1" d="M251.47,169.08l1-.3,1.07-.23c.7-.17,1.43-.26,2.15-.37a11.76,11.76,0,0,1,1.58-.19,14.94,14.94,0,0,1,5.59.74,8.38,8.38,0,0,1,1.18.44,9.08,9.08,0,0,1,1.15.5c.46.28.95.53,1.4.83a7.23,7.23,0,0,1,1.12,1.16c.21.27-.16.54-.67.68a1.82,1.82,0,0,1-1.54-.12,15.89,15.89,0,0,0-5-2.16,5.73,5.73,0,0,0-1.76-.18c-.59,0-1.2.09-1.8.13s-1.32.19-2,.27-1.31.29-2,.46-1.61.47-2.39.79a23.63,23.63,0,0,0-3.46,1.6c-.86.49-1.62,1.1-2.41,1.65-.18.12-.34.25-.53.36-.65.45-.93.5-1.31.3a1.19,1.19,0,0,1-.25-.13c-.24-.17-.13-.56.27-1.06a13.26,13.26,0,0,1,4.49-3.58,27.9,27.9,0,0,1,4-1.64Z"/><path class="cls-1" d="M282.29,158.76l1.52-1.69c.12-.14.26-.27.37-.39l.09-.09.05,0c.05-.05.15-.11.15-.2a.2.2,0,0,0,0-.11.51.51,0,0,0-.18-.14l-.53-.26a52.51,52.51,0,0,0-6-2.2c-.93-.29-1.88-.54-2.82-.8a9.11,9.11,0,0,1-3.59-1.52c-.33-.29,0-.68.57-1a2.31,2.31,0,0,1,1.81-.3c2.21.76,4.67,1.35,7.07,2.3.72.28,1.48.51,2.25.75q.58.18,1.17.39l.6.24c.22.09.34.16.65.31a3,3,0,0,1,1.7,1.93,2,2,0,0,1-.32,1.2,7.68,7.68,0,0,1-.79,1c-.4.46-.83.84-1.23,1.25-.75.74-1.49,1.48-2.19,2.25a24.65,24.65,0,0,0-2.85,3.72,14.1,14.1,0,0,0-1.36,3.25l-.18.73c-.21.91-.38,1.17-.82,1.34-.09,0-.19.09-.28.11s-.28-.06-.39-.27a1.7,1.7,0,0,1-.15-.92,14.18,14.18,0,0,1,2.5-6.71,45.23,45.23,0,0,1,3.2-4.24Z"/><path class="cls-1" d="M167.77,192.79l-2.84.06c-.34,0-.68.08-1,.08-1.22,0-2.45-.07-3.68-.13l-1.65-.06a8.33,8.33,0,0,1-1.1-.07,2.18,2.18,0,0,1-1.21-.57c-.3-.34.21-.48.56-.75s.57-.69.88-.67c.54,0,1.2,0,1.85,0a16,16,0,0,1,2,.2,13.53,13.53,0,0,0,2.54-.07l2.81-.11,1.73-.09c.88-.06,1.76-.12,2.63-.23.67-.08,1.32-.27,2-.39.15,0,.29-.07.44-.09.55-.06.75.05.91.51a1.6,1.6,0,0,1,.1.31.73.73,0,0,1-.49.84,13.83,13.83,0,0,1-3.62,1c-.94.11-1.89.16-2.83.23Z"/><path class="cls-1" d="M135.08,386.63a55.61,55.61,0,0,0-11.63,3.76c-1.37.6-2.67,1.34-4,2a57.49,57.49,0,0,0-12.8,9.23,40.49,40.49,0,0,0-4.58,5.31,65.48,65.48,0,0,0-4.56,7.7c-.45.81-.84.53-.94-.4a7,7,0,0,1,.11-1.8,10.16,10.16,0,0,1,.86-2.31,44.15,44.15,0,0,1,12.59-14.22,74.65,74.65,0,0,1,9.82-6.25,58.7,58.7,0,0,1,11.94-4.56,54.85,54.85,0,0,1,7.72-1.51,53.65,53.65,0,0,1,11.88-.16,44.68,44.68,0,0,1,9,1.76,16.47,16.47,0,0,1,1.91.64c.58.24,1.06.45,1.46.63a8.46,8.46,0,0,1,.92.58,2.06,2.06,0,0,1,.82,1,2.45,2.45,0,0,1,.15.46c0,.44-1,.29-2.66-.32a50.15,50.15,0,0,0-15.79-2.75,51.6,51.6,0,0,0-12.17,1.24Z"/><path class="cls-1" d="M407.9,259.79a10.91,10.91,0,0,1,4.19-5.19c2-1.33.13-4.57-1.89-3.24a15.17,15.17,0,0,0-5.91,7.44c-.88,2.25,2.75,3.22,3.61,1Z"/><path class="cls-1" d="M435.64,287.63a87.25,87.25,0,0,1,13.4-2.46c2.38-.24,2.4-4,0-3.75A94.76,94.76,0,0,0,434.65,284c-2.33.62-1.34,4.24,1,3.62Z"/></g></svg>