<svg xmlns="http://www.w3.org/2000/svg" width="520" height="520" viewBox="0 0 520 520"><defs><style>.cls-1,.cls-2{fill:#231f20;}.cls-2,.cls-3{opacity:0.3;}.cls-4{opacity:0.52;}</style></defs><title>Notioly New upgrade</title><g id="n.127_Achievement" data-name="n.127 Achievement"><path class="cls-1" d="M289,416.07a69.35,69.35,0,0,1-10.76-9.52c-1.19-1.26-2.39-2.51-3.5-3.85q-2.85-3.58-5.35-7.41c-1.62-2.56-3.17-5.17-4.54-7.88-1.19-2.41-2.4-4.82-3.43-7.28a41.79,41.79,0,0,1-1.62-4.89,43.56,43.56,0,0,1-.94-5.05c-.13-1.06.1-.95.6-.16.26.4.58,1,.95,1.65a23.89,23.89,0,0,1,1.29,2.31l4.53,9c.79,1.48,1.59,3,2.44,4.42.39.74.82,1.47,1.24,2.2s.85,1.47,1.29,2.19a61.71,61.71,0,0,0,7.71,9.76,79.35,79.35,0,0,0,10,9.31,52.48,52.48,0,0,0,7,4.65A40.28,40.28,0,0,0,307.64,420a31.61,31.61,0,0,0,9.51.07c.69-.07,1.35-.2,2-.3s1.18-.13,1.63-.15a5.65,5.65,0,0,1,1.14,0,2.58,2.58,0,0,1,1.48.64,6.75,6.75,0,0,1,.54.47c.22.27.1.61-.31,1a7.11,7.11,0,0,1-2.11,1.34l-2.28.79a21.19,21.19,0,0,1-2.39.53,20.17,20.17,0,0,1-2.46.31,16.05,16.05,0,0,1-2.5,0A34.77,34.77,0,0,1,302,422.9a51.51,51.51,0,0,1-13.14-6.74Z"/><path class="cls-2" d="M313.07,317.78C267.26,319.51,261,331,254.38,328.87c12.61,4.09,31.79,14.07,58.89,9.39,0,0,26.15-4.52,43.6-15.31C357.61,322.5,330.84,317.11,313.07,317.78Z"/><g class="cls-3"><path class="cls-1" d="M250.27,253.53a30,30,0,0,1-6.71-1.43c-.77-.29-1.56-.5-2.32-.8a51.59,51.59,0,0,1-7.51-4.07c-1-.67-2.12-1.3-3.18-1.86-1.38-.72-2.71-1.46-4-2.25-.42-.26-.24-.59.3-.84a3.51,3.51,0,0,1,2.4-.13c.4.13.8.27,1.19.42a5.5,5.5,0,0,1,1.13.51q1.09.58,2.13,1.2l4.05,2.5c.4.26.81.5,1.23.73s.88.4,1.32.59c.89.38,1.79.73,2.69,1,.5.18,1,.37,1.49.53l1.52.42.76.2.76.15c.52.09,1,.2,1.55.27l1.92.18h1.92a17.4,17.4,0,0,0,5.66-1.24,17.8,17.8,0,0,0,3.77-2.35l.76-.61a1.92,1.92,0,0,1,.67-.4,4.36,4.36,0,0,1,.54-.16,1.35,1.35,0,0,1,.88.16,2,2,0,0,1,.39.19c.36.25.22.89-.34,1.75a9.2,9.2,0,0,1-1.58,1.6,14.24,14.24,0,0,1-1.88,1.35,18.75,18.75,0,0,1-4.4,1.83,22.27,22.27,0,0,1-7.07.62Z"/></g><path class="cls-1" d="M230.83,343.37A11.32,11.32,0,0,1,235.1,340a8.77,8.77,0,0,1,1.85-.69,13.45,13.45,0,0,1,6.53.5c.44.15.88.29,1.33.42l1.3.44a9.65,9.65,0,0,1,3.14,1.53c.28.24,0,.7-.55,1.05a2,2,0,0,1-1.8.38,40.37,40.37,0,0,0-6.06-1.91,7,7,0,0,0-3.65.42,7.92,7.92,0,0,0-3.36,2.18,9.25,9.25,0,0,0-1.5,2.14,11.32,11.32,0,0,0-1.3,3.85,9,9,0,0,0,.24,3.08l.18.61c.18.76.1,1-.51,1.43-.14.1-.27.22-.42.32a.8.8,0,0,1-.76.1,1.41,1.41,0,0,1-.72-.71,10.33,10.33,0,0,1-.53-6.95,13.78,13.78,0,0,1,.85-2.54,14.6,14.6,0,0,1,1.41-2.33Z"/><path class="cls-1" d="M180.34,348.68c1,.84,1.93,1.68,2.94,2.48.36.29.77.53,1.13.84l3.85,3.21c.57.47,1.18.9,1.8,1.32a8.78,8.78,0,0,1,2.16,1.88c.18.25-.12.54-.59.73a1.93,1.93,0,0,1-1.58,0,17.64,17.64,0,0,1-2.33-1.62c-.75-.58-1.49-1.2-2.2-1.87a32.06,32.06,0,0,0-2.86-2.12c-1-.8-2.06-1.63-3.08-2.47-.62-.52-1.23-1.06-1.85-1.59-.94-.8-1.82-1.66-2.75-2.47-.72-.63-1.46-1.21-2.14-1.89a6.25,6.25,0,0,1-.45-.44c-.51-.61-.52-.93-.24-1.36.07-.1.13-.21.2-.29.25-.29.71-.26,1.19,0,.67.48,1.37.94,2,1.44a7.4,7.4,0,0,1,1,.8l.95.84c1,.83,1.9,1.68,2.89,2.49Z"/><path class="cls-1" d="M190.48,359s13.42,9.8,17.13,5.72-15.52-23.19-15.52-23.19Z"/><path class="cls-1" d="M376.3,302.41c.86-.61,1.72-1.22,2.54-1.87.31-.24.56-.53.86-.77,1.09-.82,2.2-1.63,3.25-2.51a15.51,15.51,0,0,0,1.3-1.26,7.78,7.78,0,0,1,1.7-1.59c.43-.25,1.2,1.37.63,2.06a20.78,20.78,0,0,1-3.46,3.29c-.78.56-1.4,1.36-2.14,2s-1.66,1.4-2.51,2.07l-1.58,1.23c-.8.63-1.65,1.19-2.43,1.81-.61.49-1.14,1.08-1.72,1.6a3.15,3.15,0,0,1-.38.35c-.51.39-.77.36-1.24-.11-.11-.11-.22-.21-.32-.33a1,1,0,0,1-.05-1.26,17.87,17.87,0,0,1,3-2.88c.8-.66,1.68-1.24,2.5-1.89Z"/><path class="cls-1" d="M375.93,307.14s-5,5.32-12.17,5.7c-1.77.1-5.07-.38-4.46-2,1.26-3.43,6.1-10.53,12.78-16.1Z"/><g class="cls-3"><path class="cls-1" d="M310.91,472.07a3.56,3.56,0,0,1-2.13.28c-.27,0-.61-.41-.42-.64a5.39,5.39,0,0,1,1.23-1.2c.07-.05.42-.21.94-.45a18.4,18.4,0,0,1,1.94-.64,29,29,0,0,1,3.95-.78,23.68,23.68,0,0,1,4.91,0c.84.07,1.68.19,2.55.35.45.1.88.19,1.35.34l.72.25.6.25a20.07,20.07,0,0,1,4.51,2.67,10.74,10.74,0,0,1,1.7,1.67,20.77,20.77,0,0,1,2.28,3.42l.58,1.11a11.6,11.6,0,0,1,.66,1.5,4.85,4.85,0,0,1,.29,2.75,3.72,3.72,0,0,1-.8,1.5,3.34,3.34,0,0,1-.5.38,2.22,2.22,0,0,1-1.23.39,14.53,14.53,0,0,1-2.14-.05L330,485c-1.79-.16-3.53-.25-3.92-.39a30.35,30.35,0,0,0-5.86-.9c-.28,0-.56.06-.83-.1a2.66,2.66,0,0,0-1.81-.15c-.83.12-1.65.19-2.49.29a12.1,12.1,0,0,1-1.33,0c-.41,0-.46-.61-.35-.72.31-.32-.1-.45-.24-.65a.58.58,0,0,1-.1-.23,10.8,10.8,0,0,1,2.53-1.61,14.35,14.35,0,0,1,3.24-1.09s.57-.07,1.37-.14,1.86-.11,2.93-.11a42.77,42.77,0,0,1,4.77.24,5.94,5.94,0,0,1,1.35.39l1.08.2,1,.18c.26.05.2,0,.22,0l0,0c.09-.06,0-.18,0-.16s0,0,0,0a0,0,0,0,0,0,0l.05,0-.13-.45a2.7,2.7,0,0,0-.28-.59,15.27,15.27,0,0,0-3.74-4.15,15,15,0,0,0-2.58-1.5c-.16-.08-.31-.19-.47-.28a3.54,3.54,0,0,0-.52-.25,22.67,22.67,0,0,0-7.21-.8c-.28,0-1.11,0-2-.05a10.14,10.14,0,0,0-2,.1C312.44,472,311.19,471.88,310.91,472.07Z"/></g><path class="cls-1" d="M331.29,339.43c-1.79.56-3.6,1-5.41,1.47s-3.64.85-5.47,1.25c-1.32.32-2.66.58-4,.82-2.35.45-4.75.67-7.13,1s-4.78.42-7.18.41c-2.13.1-4.27,0-6.38,0-1.36-.06-2.72-.24-4.07-.37a10,10,0,0,1-2-.41l-2-.54c-.81-.23-.65-.38.1-.49a17.33,17.33,0,0,1,3.59-.11,100.23,100.23,0,0,0,16.24-.22,74.64,74.64,0,0,0,9.92-1.58c1.81-.33,3.6-.82,5.41-1.21s3.57-1,5.35-1.45c2.17-.7,4.37-1.31,6.49-2.13l2.44-.88c.81-.29,1.6-.64,2.4-1l2.39-1,2.32-1.11c.59-.3,1.19-.58,1.76-.91l1.69-1,1.68-1,1.61-1.1c.48-.32.93-.65,1.42-1,1.71-1.25,2.35-1.52,3.1-1.32a3.43,3.43,0,0,1,.51.14c.46.24,0,1.08-1.25,2.18A50,50,0,0,1,342,335.6c-1.75.73-3.48,1.49-5.28,2.1l-2.67.94-2.71.85Z"/><path class="cls-1" d="M316.55,427.92a21,21,0,0,1-3.14.5,7.49,7.49,0,0,1-1.17.15,12.43,12.43,0,0,1-4-.86c-.55-.17-1.07-.37-1.6-.51a3.07,3.07,0,0,1-1.87-1c-.15-.19.22-.86.69-1.5s1.06-1.28,1.39-1.23a15.65,15.65,0,0,1,1.65.3,6.21,6.21,0,0,1,1.5.64,1.52,1.52,0,0,0,1,.18c.33,0,.65-.11,1-.13a10.83,10.83,0,0,0,2.27-.42c.48-.13,1-.27,1.49-.46a19.49,19.49,0,0,0,2.34-1c.6-.31,1.1-.91,1.77-1.27a2.76,2.76,0,0,1,.44-.25c.62-.16.89.1,1.2,1.17.08.24.15.48.21.73a3,3,0,0,1-.09,1.94,4.5,4.5,0,0,1-2.42,2c-.75.36-1.67.69-2.6,1Z"/><path class="cls-1" d="M306.2,365a3.43,3.43,0,0,1,1.14-2.55.38.38,0,0,1,.6.27c0,.54,0,1.12.05,1.68,0,.21,0,1.7,0,3.39a14.44,14.44,0,0,1-.82,5,3.66,3.66,0,0,1-.46.87,4.17,4.17,0,0,1-.71.84,2.41,2.41,0,0,1-.46.37l-.41.26-.1.06s0,0,0,0h.09s-.06,0,.13.07l.85.41c.34.23.65.49,1,.73s.29.27.44.39a4.3,4.3,0,0,1,.5.78,2.64,2.64,0,0,1,.22.89l-.1.93-.28.95c-.15.44-.11.31-.13.35l0,.06-.07.14a1.06,1.06,0,0,0-.12.52s0,.17.17-.13c.09-.15.12-.14.22-.32s.08-.17.17-.17h0l.08-.09,0-.05.12-.13a1.84,1.84,0,0,1,.2-.19,2.09,2.09,0,0,1,.47-.3,1.79,1.79,0,0,1,.52-.18l.11,0H310l.28,0,.15,0,.24.06a7.15,7.15,0,0,1,1.16.44c.64.29,1.21.58,1.79.88l3.38,1.75a3.44,3.44,0,0,1,.94.52,5.73,5.73,0,0,0,2,1.13l2.88,1.18c.23.09.44.2.65.29a3,3,0,0,1,.54.27,2.28,2.28,0,0,1,.26.18.19.19,0,0,1,0,.25c-.46.27,0,.34.1.41s.1.08.08.14a1.62,1.62,0,0,1-.42.24,1.23,1.23,0,0,1-.43.1c-.16,0-.33,0-.5,0a11.47,11.47,0,0,1-2.44-.26,34.1,34.1,0,0,1-3.71-1l-4.51-1.77c-.55-.22-1.12-.43-1.63-.61-.26-.09-.51-.18-.71-.23a2.15,2.15,0,0,0-.25-.06h0l0-.27.05-.43a1.4,1.4,0,0,1,.06-.32,2.46,2.46,0,0,0,0-.26,1.22,1.22,0,0,0,0-.27l0-.13a.09.09,0,0,0,0-.05.13.13,0,0,0,0-.1l0,0h0l1.5,1.15h0l0,0-.05.07-.15.22-.37.52-.65.93c-.39.56-.67,1-.82,1.17a17.47,17.47,0,0,1-1.83,2.21,13.92,13.92,0,0,1-1.86,1.92l-2.83,2.34c-.43-2-.71-3.25-.73-3.37-.07-.37-.12-.76-.16-1.15a10.34,10.34,0,0,1,.05-1.44,17.33,17.33,0,0,1,1-3.78c.22-.55.36-1.07.53-1.62l.52-1.7a.09.09,0,0,0,0-.13s-.08-.07,0-.07a.36.36,0,0,0-.13,0l-.45-.11c-.16,0-.3-.07-.47-.09h-.65a14.18,14.18,0,0,1-4.31-.58,11.22,11.22,0,0,1-1.86-.83,17.5,17.5,0,0,1-1.67-1l-.25-.19c0-.1.11-.22.14-.33l.09-.19.17-.25.31-.45a4.19,4.19,0,0,1,1.2-1.37l.32-.23.44-.22.44-.24.66-.24a24.72,24.72,0,0,1,4.78-.58,7.17,7.17,0,0,0,1-.22c.06-.06.15-.07.21-.14a1.82,1.82,0,0,0,.4-.5,7.29,7.29,0,0,0,.79-1.83,14.91,14.91,0,0,0,.5-2.37C305.63,366.91,306.2,365.43,306.2,365Z"/><path class="cls-1" d="M434.2,383.72a21.13,21.13,0,0,0,.52-2.21c.15-.77.27-1.54.37-2.31a38.76,38.76,0,0,0,.29-4.7c0-1.16-.11-2.31-.18-3.47a81.84,81.84,0,0,0-1.6-12.25,49.65,49.65,0,0,0-1.47-5.28c-.75-2.21-1.68-4.35-2.51-6.52-.26-.68.13-.77.75-.38a5.9,5.9,0,0,1,2,2.56,54.67,54.67,0,0,1,3.87,14.13c.39,2.91.91,5.91,1.14,8.91a41.13,41.13,0,0,1-.44,10,18.43,18.43,0,0,1-.75,3.06,19,19,0,0,1-1.29,2.87,32.08,32.08,0,0,1-5.86,7.26,56.52,56.52,0,0,1-5.34,4.69c-.42.31-.83.62-1.27.91-1.66,1.05-2.33,1.16-3,.77a2.86,2.86,0,0,1-.45-.28c-.4-.38.09-1.11,1.17-1.93a73.81,73.81,0,0,0,9.31-8.17,20,20,0,0,0,4.65-7.64Z"/><path class="cls-1" d="M181.8,427.88a39.53,39.53,0,0,0,4.76-9.82c.43-1.29.77-2.6,1.16-3.91,1.36-4.61,2.43-9.36,3.68-14.09.57-2.09,1.06-4.22,1.73-6.28a35,35,0,0,1,3.21-7.72c.45-.75.75-.45.82.39a7.12,7.12,0,0,1-.09,1.59,8.71,8.71,0,0,1-.51,2.06c-1.77,5.19-3,10.57-4.52,16-.89,3.27-1.54,6.76-2.51,10.14a49.94,49.94,0,0,1-4.41,10.76,26,26,0,0,1-4.44,5.75,20.12,20.12,0,0,1-9.69,5.05,45.59,45.59,0,0,1-8.24,1.18c-.6,0-1.2.06-1.81.06-2.26,0-3-.3-3.41-1a2.13,2.13,0,0,1-.29-.47c-.19-.52.74-.93,2.36-1.06,4.78-.34,9.74-.61,14.12-2.25a17.58,17.58,0,0,0,8-6.48Z"/><path class="cls-1" d="M272.45,122.45c.11.73,2,25.63.11,37.87s-7,31.08-7,31.08a32.43,32.43,0,0,0,29.79,17.88c21.91-.16,36.16-9.34,33.38-23.83,0,0-4.11-15.71-12.71-16.71,0,0,5.66-1,10.58-9.38s9-13.07-1.62-24.77-17-19.23-16.75-25.89c0,0-10.94,14.74-24,15.79S272.45,122.45,272.45,122.45Z"/><path class="cls-1" d="M182.13,164s13.91,27.1,17.92,31.45c0,0-5.88,20.23-20.3,28.06s-52.88,27.25-70-9c0,0-6.86-15.82,11.93-29.92,0,0-19.09-9.74-14.08-29.39s22.27-30.67,39.32-40.38c0,0,3.12-34.79,11.74-43,0,0,7.73-24,47.35-19.81a36.44,36.44,0,0,1,18,7.89S228,37.77,246.29,36.48s23.52,2.78,28.33,19.43c0,0,15.55-10.63,25.32-4.08s19.52,17,16.41,37.31S296,124.08,284.26,124.49s-24.22-3.41-26.77-20.35c0,0,.41,4.84-5.6,6.1-7.3,1.53-13.44,1.83-16.73-15.86,0,0-21.27-10.23-36.73,9.26,0,0-8.06,9.07-10.15,24.26s-3.37,18-7.48,17.37a9.68,9.68,0,0,1-5.66-5.62c-2-4.61-9.35-9.27-14-4.2s-5.24,8.71-1.27,17.68,10.26,10.53,17.67,10.39Z"/><path class="cls-1" d="M262.88,196.27A37.84,37.84,0,0,1,252.48,208a32.41,32.41,0,0,1-14.55,5.81,40.24,40.24,0,0,1-11.39,0c-.82-.16-1.66-.26-2.47-.48l-2.43-.65a40.17,40.17,0,0,1-4.68-1.83,44.49,44.49,0,0,1-8.48-5.19,66.77,66.77,0,0,1-13.26-14.39,120.82,120.82,0,0,1-8.85-14.78c-1.67-3.26-3.25-6.57-4.67-9.94-.72-1.69-1.32-3.42-1.92-5.14s-1-3.51-1.51-5.27c-.56-2.2-.12-2,1.09-.45.61.8,1.43,1.94,2.39,3.33a42,42,0,0,1,2.72,5,161.35,161.35,0,0,0,9.76,19.56,78.67,78.67,0,0,0,13.24,17.14,38.16,38.16,0,0,0,10.81,7.33,34.59,34.59,0,0,0,12.73,3,33.19,33.19,0,0,0,14.09-2.45,29.34,29.34,0,0,0,11.39-8.64,45.78,45.78,0,0,0,5-7.53,64.5,64.5,0,0,0,3.57-8.38,121.22,121.22,0,0,0,5.56-27.21c.71-7.17.85-14.23,1-21.36,0-1.57,0-3.11.07-4.69.14-5.88.51-7.76,1.44-9a5.72,5.72,0,0,1,.62-.8c.66-.52,1.12,1.89,1.15,6.19.1,12.75-.22,26.35-2.4,39.9a112.22,112.22,0,0,1-3.4,15A68,68,0,0,1,263,196.3Z"/><path class="cls-1" d="M190.7,121.73c-1,3.79-1.67,7.7-2.32,11.67-.34,2-.66,4-1.12,6a24.11,24.11,0,0,1-.89,3.12,8.1,8.1,0,0,1-2,3.23,4.41,4.41,0,0,1-3.2,1.16,6.32,6.32,0,0,1-1.47-.26,6.87,6.87,0,0,1-1.35-.56,7.31,7.31,0,0,1-2.12-1.87,18.15,18.15,0,0,1-1.3-2c-.33-.55-.64-1.06-1-1.51s-.75-.9-1.12-1.36-.83-.81-1.25-1.22-.92-.68-1.4-1a8.9,8.9,0,0,0-6.39-1.23,6.51,6.51,0,0,0-4.88,3.72,5.84,5.84,0,0,0-.37,1.57,12.86,12.86,0,0,0-.1,1.77,19.54,19.54,0,0,0,.38,3.63A19.85,19.85,0,0,0,165,157.77a16.86,16.86,0,0,0,3.34,2.28,19.29,19.29,0,0,0,3.78,1.41,45,45,0,0,0,8.25.89c1.77,0,1.68.51.21,1.42a12.79,12.79,0,0,1-1.35.76,7.91,7.91,0,0,1-1.87.71,10.44,10.44,0,0,1-2.35.43,7.21,7.21,0,0,1-1.31,0,9.29,9.29,0,0,1-1.37-.16,19.82,19.82,0,0,1-9.16-4.21,22.16,22.16,0,0,1-5.89-8,25.08,25.08,0,0,1-2.14-9.55,18.1,18.1,0,0,1,.13-2.53,10.08,10.08,0,0,1,.67-2.69,8.79,8.79,0,0,1,3.71-4.14,11.09,11.09,0,0,1,6.14-1.51,12.48,12.48,0,0,1,5.94,1.84,18.81,18.81,0,0,1,4.49,4.07c1.29,1.64,2,3.43,3,4.3a3.28,3.28,0,0,0,.89.59,3.57,3.57,0,0,0,1,.28,1.35,1.35,0,0,0,1.39-.64,7.56,7.56,0,0,0,1.07-2.3,26.22,26.22,0,0,0,.71-2.81c.77-3.88,1.27-8,2.05-12a64.93,64.93,0,0,1,4.33-14.58,35.84,35.84,0,0,1,6.38-9.73A31.77,31.77,0,0,1,206.5,95a42.19,42.19,0,0,1,8.38-3,25.15,25.15,0,0,1,9-.68,27.75,27.75,0,0,1,3.92.61,16.53,16.53,0,0,1,4.93,1.87,3.74,3.74,0,0,1,1.69,1.8,3.83,3.83,0,0,1,.3.83c0,.81-1.78.13-4.92-.82a30.53,30.53,0,0,0-7.26-1.2,23.72,23.72,0,0,0-3.68.1,17.13,17.13,0,0,0-1.79.26c-.58.11-1.23.28-1.85.42a32.09,32.09,0,0,0-13.48,6.74,30.35,30.35,0,0,0-6.92,8.89,50.11,50.11,0,0,0-4,10.93Z"/><path class="cls-1" d="M248.42,113.44a15.64,15.64,0,0,1-1.93.13,17,17,0,0,1-1.9-.19,12.64,12.64,0,0,1-1.84-.45c-.3-.11-.61-.2-.9-.32l-.86-.41a10,10,0,0,1-1.2-.67,5.9,5.9,0,0,1-1.12-.78,14.35,14.35,0,0,1-3-3.54,20,20,0,0,1-2-4.07,25.83,25.83,0,0,1-1.07-3.82,11.37,11.37,0,0,1-.12-5.06c.12-.52.59-.37,1.06.09a3.57,3.57,0,0,1,.64.88,2.69,2.69,0,0,1,.41,1.15,23.6,23.6,0,0,0,1.05,4.41,27.93,27.93,0,0,0,1.64,4.26,10.93,10.93,0,0,0,3.7,4,8.53,8.53,0,0,0,1.28.74,7.36,7.36,0,0,0,1.37.54,11.63,11.63,0,0,0,1.47.33,12.76,12.76,0,0,0,1.51.1,9.17,9.17,0,0,0,3.63-.77,11.94,11.94,0,0,0,4.57-3.56,16.62,16.62,0,0,0,2.19-4c.13-.3.25-.61.4-.92a3.62,3.62,0,0,1,.75-1.12,1.47,1.47,0,0,1,.92-.27,2.39,2.39,0,0,1,.46,0c.24,0,.4.19.51.5a2.31,2.31,0,0,1,.06,1.25,13.3,13.3,0,0,1-1.7,4.33,17.54,17.54,0,0,1-3.1,3.84,14.65,14.65,0,0,1-3.14,2.21,12.78,12.78,0,0,1-3.73,1.23Z"/><path class="cls-1" d="M318.29,77.93a48.7,48.7,0,0,1-10.44,32.64A42.88,42.88,0,0,1,295.3,121a39.88,39.88,0,0,1-7.57,3.1,32.25,32.25,0,0,1-8.08,1.38,24,24,0,0,1-7.29-.88,20.78,20.78,0,0,1-6.57-3.28,21.85,21.85,0,0,1-8.93-15.85c0-1,.22-1.48.36-1.41s.28.56.59,1.28a25.42,25.42,0,0,0,1.44,2.88l2.3,3.78c.37.62.77,1.2,1.18,1.78s.81,1.16,1.25,1.7a21.17,21.17,0,0,0,2.94,3,17.75,17.75,0,0,0,7.34,3.65,21.2,21.2,0,0,0,4.14.5,26.55,26.55,0,0,0,4.25-.33,36.91,36.91,0,0,0,8.41-2.44,33,33,0,0,0,9.06-5.75,41.71,41.71,0,0,0,7.2-8.2A44.15,44.15,0,0,0,315,83.43a36.88,36.88,0,0,0-2.1-14.55,31.87,31.87,0,0,0-5.57-9.65,26.21,26.21,0,0,0-8.65-6.83,16.54,16.54,0,0,0-8.11-1.3,26.47,26.47,0,0,0-8.06,2.12c-.57.23-1.12.51-1.66.79s-1.08.57-1.62.88C277.22,56,276,56.8,275,57.3a6.12,6.12,0,0,1-2.29.71,8,8,0,0,1-.85.09c-.36,0-.25-.46.23-1.29a8.39,8.39,0,0,1,1.07-1.44A13.4,13.4,0,0,1,275,53.69a28.27,28.27,0,0,1,7.31-4.21,26.9,26.9,0,0,1,8.59-1.93A19.83,19.83,0,0,1,300,49.17a27.84,27.84,0,0,1,7.48,5.15,34.57,34.57,0,0,1,7.65,10.83,39,39,0,0,1,3.22,12.76Z"/><path class="cls-1" d="M240.38,35.45a28.15,28.15,0,0,1,12.27-2.09,25.28,25.28,0,0,1,4.51.47,24.39,24.39,0,0,1,13.63,7.81,21.91,21.91,0,0,1,3.7,6c.24.71.46,1.44.7,2.16s.3,1.48.43,2.23.1,1.51.11,2.26a11.87,11.87,0,0,1-.31,2.22c-.2.92-.75.7-1.35-.09a7.5,7.5,0,0,1-1.49-3.54A18.75,18.75,0,0,0,270,45.65,20,20,0,0,0,264.52,40l-1-.68c-.35-.21-.73-.39-1.1-.58a20.13,20.13,0,0,0-2.34-1,27.42,27.42,0,0,0-5-1.1,26.71,26.71,0,0,0-11.13.87,25.31,25.31,0,0,0-6.31,2.93,28.65,28.65,0,0,0-7.77,7.24,31.36,31.36,0,0,0-3.76,7.24c-.23.55-.35,1.13-.56,1.69a16.27,16.27,0,0,1-1,2.17,1.83,1.83,0,0,1-1.05.81,3.49,3.49,0,0,1-.58.18c-.61.08-.81-1-.53-2.72a31.46,31.46,0,0,1,17.91-21.67Z"/><path class="cls-1" d="M138,118l3.68-2.09a32.69,32.69,0,0,0,3.32-2,2.59,2.59,0,0,0,.75-.93,5.26,5.26,0,0,0,.41-1.52c.06-.3.09-.62.13-.94l.11-1,.23-2.09c.61-5.59,1.26-11.24,2.37-16.84a78.25,78.25,0,0,1,3.28-12.13,58.85,58.85,0,0,1,4.93-10,45.09,45.09,0,0,1,7.15-8.62,40,40,0,0,1,9.15-6.42A50.42,50.42,0,0,1,178.6,51c.87-.31,1.75-.59,2.63-.88l1.32-.42,1.35-.34A37.13,37.13,0,0,1,193.7,48a52.11,52.11,0,0,1,9.77.81,57.39,57.39,0,0,1,12.06,3.44,31.6,31.6,0,0,1,5.6,3,20.92,20.92,0,0,1,2.56,2,13.48,13.48,0,0,1,2.23,2.46c.79,1.19.78,1.93.53,2s-.84-.41-1.74-1a30.93,30.93,0,0,0-3.77-2c-.8-.36-1.67-.74-2.6-1.12-.47-.2-1-.4-1.45-.59l-1.49-.67A54.92,54.92,0,0,0,204,52.6a50.62,50.62,0,0,0-11.86-1,29.32,29.32,0,0,0-5.8.79l-2.93.7-2.86.91a43,43,0,0,0-10.67,5.44A37.13,37.13,0,0,0,160,70.12a57.06,57.06,0,0,0-6,13.78,104.06,104.06,0,0,0-3.27,16.39c-.36,2.78-.67,5.59-1,8.4l-.23,2.11a18.46,18.46,0,0,1-.39,2.28,6.38,6.38,0,0,1-1.12,2.38,7.55,7.55,0,0,1-1.91,1.65c-1.58,1-3.05,1.78-4.56,2.67l-4.48,2.65c-3,1.79-5.87,3.66-8.66,5.66a69,69,0,0,0-11.7,10.24,35.79,35.79,0,0,0-4.49,6.23,24.63,24.63,0,0,0-2.73,7,35.1,35.1,0,0,0-.56,11.69,27.89,27.89,0,0,0,3.34,10.93,21.29,21.29,0,0,0,3,3.88,42.63,42.63,0,0,0,5.11,4.27,9.55,9.55,0,0,1,2.25,2.24,5.7,5.7,0,0,1,.59.9c.15.42-.42.43-1.63.09a19,19,0,0,1-5.14-2.52,23.42,23.42,0,0,1-7.78-8.65A32.23,32.23,0,0,1,105.57,163a39,39,0,0,1,.61-11.92,29.74,29.74,0,0,1,1.88-5.85c.21-.48.45-.95.68-1.42l.75-1.32a27.31,27.31,0,0,1,1.64-2.57,58.26,58.26,0,0,1,12.4-12.53,139.64,139.64,0,0,1,14.41-9.53Z"/><path class="cls-1" d="M151.87,237.05a60.07,60.07,0,0,1-12.79.5,43.33,43.33,0,0,1-12.62-2.64,30.84,30.84,0,0,1-8.36-4.58,26.84,26.84,0,0,1-5.69-6.25,32.29,32.29,0,0,1-2.09-3.66,32.92,32.92,0,0,1-1.49-3.9,35.37,35.37,0,0,1-1-4,20,20,0,0,1-.3-2.06c-.08-.69-.2-1.37-.24-2.07l0-2.08c0-.35,0-.7,0-1l.1-1c.07-.7.11-1.39.22-2.08l.43-2.05a27.73,27.73,0,0,1,7.13-12.81c4.41-4.41,10-7.95,16.2-8.8,1.89-.39,1.75.26.43,1.36-.32.27-.72.59-1.17.94L129.09,182a29,29,0,0,1-3.72,2.51,28.62,28.62,0,0,0-12,11.48,22.55,22.55,0,0,0-2.5,7.94l-.12,1.05-.07.53V206l0,2.14c0,.72.13,1.44.19,2.16l.1,1.09.2,1.08a25,25,0,0,0,3.92,9.81,24.14,24.14,0,0,0,7.79,7.22l1.27.74,1.34.64c.87.46,1.83.76,2.74,1.14a37.2,37.2,0,0,0,5.8,1.52,48.94,48.94,0,0,0,12.1.65,66.22,66.22,0,0,0,14.82-2.63,67.18,67.18,0,0,0,10.65-4.16,60.15,60.15,0,0,0,9.63-6.1,57.06,57.06,0,0,0,12.06-12.44c.38-.51.72-1,1-1.57s.67-1,1-1.6c2.32-4.06,3-5.35,4.31-6,.27-.15.55-.39.74-.47s.41.29.44,1.28a4.86,4.86,0,0,1-.24,1.79,15.88,15.88,0,0,1-.8,2.34,45.29,45.29,0,0,1-9.8,13.67,68.17,68.17,0,0,1-6.49,5.61,76.84,76.84,0,0,1-7.16,4.86,69.59,69.59,0,0,1-24.36,8.3Z"/><path class="cls-1" d="M328.78,152.57a14.2,14.2,0,0,0-.85-11,16.58,16.58,0,0,0-1.09-1.85c-.45-.57-.85-1.15-1.32-1.74-3.24-4.19-7.61-7.89-10.94-12.65-.75-1.06-1.41-2.17-2.06-3.2s-1.32-2.1-1.94-3.16a50.32,50.32,0,0,1-4.44-8.41c-.34-1,.13-1,1-.55a10.54,10.54,0,0,1,3.28,2.9l2.7,4c.45.66.91,1.31,1.35,2l1.25,2.05c.42.71.81,1.33,1.22,1.95s.85,1.23,1.31,1.83c.93,1.21,1.94,2.4,3,3.6,2.5,2.89,5.72,5.47,8.2,8.93a20.88,20.88,0,0,1,3.07,6.35,17.77,17.77,0,0,1,.51,7.07,19.3,19.3,0,0,1-3.08,8,25.51,25.51,0,0,1-9.5,8.38,28.78,28.78,0,0,1-9.24,3.22,13.08,13.08,0,0,1-2.17.22,7.71,7.71,0,0,1-2.88-.42A2.12,2.12,0,0,1,305,168.9a4.28,4.28,0,0,1-.26-.66c-.11-.69,1-1.12,2.73-1.32a34.29,34.29,0,0,0,7.55-1.65,25.44,25.44,0,0,0,6.87-3.68,18.68,18.68,0,0,0,6.77-9Z"/><path class="cls-1" d="M304,207.9a35.31,35.31,0,0,0,7.67-1.42,27.11,27.11,0,0,0,7-3.16,15.85,15.85,0,0,0,2.22-1.69l1-.92c.34-.31.63-.67,1-1a16.66,16.66,0,0,0,4.46-8.41,18.72,18.72,0,0,0-1-9.7,22.27,22.27,0,0,0-4.8-7.51,20.93,20.93,0,0,0-4.42-3.52,15.21,15.21,0,0,0-2.46-1.22,11.16,11.16,0,0,0-2.59-.59c-1,0-1.18-.41-.13-1.16a6.72,6.72,0,0,1,1-.49,5.53,5.53,0,0,1,1.44-.25,7.73,7.73,0,0,1,3.51.67,14.34,14.34,0,0,1,2.94,1.72,25.08,25.08,0,0,1,2.55,2.16,26,26,0,0,1,4.1,5.19,24.57,24.57,0,0,1,2.65,6.1,19.94,19.94,0,0,1,.64,6.71,20.72,20.72,0,0,1-7.1,14.3,26.73,26.73,0,0,1-7.4,4.67,35.61,35.61,0,0,1-8.26,2.45,46.61,46.61,0,0,1-10.47.62,49.43,49.43,0,0,1-7.85-1,51,51,0,0,1-7.59-2.16,34.62,34.62,0,0,1-10.71-5.91,23.19,23.19,0,0,1-2-1.86,11.35,11.35,0,0,1-2.11-2.95,2.39,2.39,0,0,1-.14-1.81,2.92,2.92,0,0,1,.25-.69c.43-.61,1.5.26,3.06,1.86a31.24,31.24,0,0,0,3.8,3.26,33.57,33.57,0,0,0,4.25,2.75,41.19,41.19,0,0,0,9.74,3.65,48.59,48.59,0,0,0,7.8,1.26c1.32.15,2.64.12,4,.17s2.65-.05,3.95-.22Z"/><path class="cls-1" d="M249.58,206.44c-1.76,7-.63,13.24-9.62,15.33-18.77,4.37-26-10.38-27.36-14.43,0,0,12.6,7.61,26.62,5.14S249.58,206.44,249.58,206.44Z"/><path class="cls-1" d="M176.73,248.26c-2.92,2.17-5.5,4.87-6.51,8.09a10.19,10.19,0,0,0-.37,3.6,13.2,13.2,0,0,0,.6,3.24c.38,1.13.82,2.31,1.25,3.47l2.68,7c.8,2.07,1.69,4.11,2.57,6.14a42.06,42.06,0,0,1,2.91,8c.18.92-.36.91-1.11.38a8.34,8.34,0,0,1-2.55-3c-.65-1.27-1.23-2.59-1.8-3.9l-1.71-4c-1.12-2.66-2.2-5.35-3.16-8.12-.57-1.66-1.25-3.28-1.92-5a13.51,13.51,0,0,1-.93-5.86,13.92,13.92,0,0,1,2.06-6.14,21,21,0,0,1,4.06-4.72,38.38,38.38,0,0,1,6.06-4.31,80.42,80.42,0,0,1,10-4.8,18,18,0,0,1,4.27-1.26,8.32,8.32,0,0,1,2.39,0,7.08,7.08,0,0,1,2.37.84c.31.18.61.4.91.6a9.12,9.12,0,0,1,.8.72c1.76,2,1.68,2.91,1.24,3.69-.1.17-.17.37-.26.49-.27.37-1.33-.19-2.26-1.33a6.49,6.49,0,0,0-2.34-1.82,5,5,0,0,0-2.75-.23,14.55,14.55,0,0,0-3.24,1c-1.12.47-2.34,1-3.48,1.56a51.57,51.57,0,0,0-9.73,5.69Z"/><path class="cls-1" d="M201.39,245.1a10.45,10.45,0,0,0-3.68.33c-.48.11-.93.32-1.4.45a35.9,35.9,0,0,0-5,1.86,16.13,16.13,0,0,0-2.06,1.18,15.36,15.36,0,0,1-2.53,1.63c-.3.12-.64-.37-.78-1a1.82,1.82,0,0,1,.44-1.81,20.45,20.45,0,0,1,2.78-1.78,18.56,18.56,0,0,1,3.07-1.23c1.27-.38,2.48-1,3.79-1.41a17,17,0,0,1,4.5-.81,6.88,6.88,0,0,1,6.3,3.51,15.93,15.93,0,0,1,1.61,2.95,5.19,5.19,0,0,1,.22.7,3.25,3.25,0,0,1,.06.57.9.9,0,0,1-.18.41,1.41,1.41,0,0,1-.64.5,3.76,3.76,0,0,1-.37.16c-.38.12-.85-.18-1.33-.67l-.63-1.12-.5-1.09a9.15,9.15,0,0,0-1.12-1.9,3.81,3.81,0,0,0-2.55-1.37Z"/><path class="cls-1" d="M209.35,256.84a6.3,6.3,0,0,0-.59-2,4,4,0,0,0-1.21-1.53,2.85,2.85,0,0,0-1.23-.42,8.27,8.27,0,0,0-3,.22,22.73,22.73,0,0,0-3.22,1,25.65,25.65,0,0,0-2.77,1.29,13.19,13.19,0,0,1-3.72,1.44c-.43.08-.53-.34-.39-.9a3.08,3.08,0,0,1,1.12-1.71,24.85,24.85,0,0,1,7.53-3.28c.85-.18,1.66-.42,2.59-.58a6.76,6.76,0,0,1,3,0,5.5,5.5,0,0,1,2.86,1.87,6.39,6.39,0,0,1,.88,1.33,8.28,8.28,0,0,1,.63,1.43,11.18,11.18,0,0,1,.47,3.69,22,22,0,0,1-1,5.25c-.4,1.3-.71,2.62-1.19,3.89-.11.28-.18.58-.31.84-.51,1-1,1.14-1.74.94a4.1,4.1,0,0,1-.53-.15c-.55-.22-.75-.85-.62-1.63.54-2.21,1.45-4.26,2-6.38a12,12,0,0,0,.41-4.56Z"/><path class="cls-1" d="M207.25,289a17.42,17.42,0,0,0,.56-3.33,13.4,13.4,0,0,0-.11-3.35,15,15,0,0,0-.66-2.36,22,22,0,0,0-1.9-4.07c-.77-1.36-1.65-2.7-2.38-4.24a8.56,8.56,0,0,1-1-4.59,8.08,8.08,0,0,1,2.79-5.08c.89-.78,1.12,1.5.46,3.13a6.49,6.49,0,0,0-.58,2.07,4.48,4.48,0,0,0,.11,1.95,23.38,23.38,0,0,0,2.18,4.54,32.83,32.83,0,0,1,3.17,6.36,16.66,16.66,0,0,1,.67,4,16.32,16.32,0,0,1,0,2,15.91,15.91,0,0,1-.2,1.95,20.65,20.65,0,0,1-1.27,4.65,37.26,37.26,0,0,1-3.46,6.24,33.64,33.64,0,0,0-2.45,4.6,8.68,8.68,0,0,1-.4,1c-.52,1.2-.78,1.52-1.62,1.62-.19,0-.39.06-.57.06-.6,0-.95-.72-.76-1.92a14.14,14.14,0,0,1,2-4.83c.87-1.46,1.81-2.79,2.63-4.14a20.93,20.93,0,0,0,2.75-6.21Z"/><path class="cls-1" d="M161.58,334.42c1.67-4,3.3-8,4.84-12.05.55-1.48,1-3,1.57-4.46,2-5.21,3.81-10.46,5.46-15.76A69.42,69.42,0,0,0,175.2,295c.17-.76.3-1.53.45-2.29s.25-1.53.35-2.29a23.68,23.68,0,0,0,.27-4.48c-.07-.86.39-1,1.08-.23a5,5,0,0,1,1,1.75,8,8,0,0,1,.37,2.63,45.93,45.93,0,0,1-.4,5c-.25,1.64-.64,3.24-1,4.83a85,85,0,0,1-2.94,9.38c-1.39,3.67-2.52,7.58-3.89,11.34-1.5,4.12-3.1,8.22-4.73,12.29q-1.55,3.75-3.07,7.5l-4.74,11.29c-1.21,2.92-2.21,5.86-3.42,8.75-.26.64-.5,1.27-.78,1.91-1.07,2.35-1.66,3-2.67,3.09a4.29,4.29,0,0,1-.69.06c-.7-.09-.71-1.25-.1-3,1.79-5.25,4-10.63,6.29-16,1.66-4,3.37-8.05,5-12.11Z"/><path class="cls-1" d="M190.07,342.5l1.38-7.21c.17-.87.26-1.76.44-2.64.64-3.08,1.3-6.16,2-9.24.3-1.36.61-2.74.89-4.11a14.72,14.72,0,0,1,2-5.16c.35-.5.65-.15.85.48a4.59,4.59,0,0,1,.2,1.09,4.15,4.15,0,0,1-.06,1.35c-.23.8-.35,1.71-.53,2.56l-.58,2.59c-.39,1.74-.8,3.5-1.24,5.26-.54,2.11-.75,4.38-1.1,6.57l-1.18,7.27-.73,4.48c-.35,2.26-.75,4.53-1,6.79-.21,1.76-.3,3.5-.54,5.26-.06.38-.1.76-.18,1.15-.4,1.42-.78,1.83-1.38,2a2.22,2.22,0,0,1-.41.1c-.42,0-.65-.64-.7-1.68a28.27,28.27,0,0,1,.12-4.77c.12-1.61.38-3.22.6-4.86.37-2.42.75-4.85,1.12-7.28Z"/><path class="cls-1" d="M206.42,368.43a16.84,16.84,0,0,1-6.66-.86A30.86,30.86,0,0,1,194,365c-1.32-.76-2.64-1.5-3.86-2.37a87.29,87.29,0,0,1-11.69-10.4c-1.6-1.65-3.21-3.31-4.73-5-1-1.09-2-2.18-2.87-3.36A20.33,20.33,0,0,1,168.5,340c-.38-1,.18-1,1-.59a11.08,11.08,0,0,1,3.27,2.24c.51.52,1,1.05,1.47,1.6l1.47,1.6,3,3.18q3,3.21,6.09,6.33a50.86,50.86,0,0,0,8.46,6.53c3.27,2.07,6.79,3.94,10.47,4.41.31.05.61.05.91.07a4.62,4.62,0,0,0,.91,0l.9-.06.43-.08.27,0a.74.74,0,0,0,.64-.49,1.16,1.16,0,0,0,.06-.42,4.45,4.45,0,0,0-.07-.53,12.46,12.46,0,0,0-.82-2.46c-.35-.84-.75-1.66-1.18-2.48-.85-1.63-1.8-3.23-2.78-4.8-1.53-2.45-3.24-4.71-4.83-7.15-.35-.54-.71-1.06-1-1.63a6.77,6.77,0,0,1-1-2.5,1.72,1.72,0,0,1,.49-1.45,2,2,0,0,1,.51-.41,1,1,0,0,1,.91.28,5.07,5.07,0,0,1,1.14,1.4c1.27,2,2.79,4.15,4.24,6.37s2.91,4.51,4.27,6.93a41.6,41.6,0,0,1,2.48,5.05c.18.46.35.95.5,1.45l.2.82c0,.15,0,.28.07.48a5.37,5.37,0,0,1,.06.67,4.46,4.46,0,0,1-.62,2.42,1.61,1.61,0,0,1-.38.48,2.27,2.27,0,0,1-.48.4,6.46,6.46,0,0,1-1.12.55l-1.14.24a4,4,0,0,1-.83.12Z"/><path class="cls-1" d="M173.76,436.8c.66-.24,1.27-.58,1.9-.87s1.22-.68,1.78-1.09a18.75,18.75,0,0,0,3.19-2.71,26.58,26.58,0,0,0,4.69-7.19,56.44,56.44,0,0,0,2.33-6.05c2.48-7.29,4.07-15,5.84-22.62.79-3.39,1.54-6.83,2.5-10.19a36.76,36.76,0,0,1,2.31-6.39,15,15,0,0,1,4.27-5.51c1.26-.84,1.28-.27.71.81s-1.33,2.95-2.26,5.14c-.2.5-.42,1-.6,1.48s-.36,1-.55,1.52c-.38,1-.72,2.06-1,3.11-.64,2.1-1.18,4.27-1.71,6.44-1.05,4.36-2,8.8-3.12,13.25-1.34,5.31-2.49,10.93-4.46,16.29a42.72,42.72,0,0,1-4.13,8.53,24.8,24.8,0,0,1-3,3.79,25.62,25.62,0,0,1-3.74,3.08,23.11,23.11,0,0,1-20,2.55,35.28,35.28,0,0,1-7.91-3.83,66.32,66.32,0,0,1-10.46-8.25c-.7-.68-1.38-1.34-2-2.06a19,19,0,0,1-2.42-3,4.22,4.22,0,0,1-.54-1.79,4,4,0,0,1,0-.65c0-.27.37-.19,1,.14a10.92,10.92,0,0,1,2.46,1.78c2.89,2.61,5.84,5.22,8.91,7.67a43.32,43.32,0,0,0,9.85,6.19,21.61,21.61,0,0,0,8.12,1.87,19.36,19.36,0,0,0,4.16-.32,18.88,18.88,0,0,0,4-1.2Z"/><path class="cls-1" d="M136.06,355.7c1.78-4.88,3.75-9.67,5.72-14.46.72-1.75,1.38-3.51,2.12-5.25,2.63-6.11,5.38-12.15,8.08-18.22,1.19-2.69,2.33-5.42,3.42-8.12l4.09-10.4c.38-1,.84-.83,1.09.28a10.07,10.07,0,0,1-.56,5.15c-2.72,7.24-5.78,14.24-9,21.26-1.94,4.19-3.62,8.7-5.36,13.08-1.93,4.81-3.81,9.64-5.59,14.5-1.11,3-2.18,6-3.18,9-1.5,4.58-2.94,9.22-4,13.88a86.73,86.73,0,0,0-1.64,10.85c-.06.8-.14,1.58-.17,2.38-.24,3-.39,3.88-1.26,4.52a3.61,3.61,0,0,1-.58.43c-.63.3-1.16-1-1.25-3.27-.15-6.82,1.29-13.85,3.16-20.65,1.39-5.07,3.06-10.06,4.81-15Z"/><path class="cls-1" d="M368.05,196.9a15.78,15.78,0,0,1,6.49,2.55c.25.2.5.45.75.68a7.29,7.29,0,0,1,.64.81,11.17,11.17,0,0,1,.87,1.58,15.61,15.61,0,0,1,1.08,3.24,26.62,26.62,0,0,1,.69,4.72A69.15,69.15,0,0,1,377,226.66c-.47,2.34-.94,4.69-1.47,7a40.68,40.68,0,0,1-2.75,8.74c-.45.88-.81.54-1-.36a10.66,10.66,0,0,1,.26-4.06,169.43,169.43,0,0,0,3.55-17.89,42.15,42.15,0,0,0,.13-11.05,16.92,16.92,0,0,0-1.51-5.61,4.3,4.3,0,0,0-.34-.59,3.61,3.61,0,0,0-.36-.54,2.7,2.7,0,0,0-.41-.42,2.79,2.79,0,0,0-.5-.39,9.42,9.42,0,0,0-2.55-1.14,31.14,31.14,0,0,0-7.35-1.11,65.91,65.91,0,0,0-11.5.41c-.74.09-1.46.21-2.17.36a7.75,7.75,0,0,0-1.91.56,6.48,6.48,0,0,0-2.52,2.72c-.29.51-.51,1.06-.76,1.62-.92,2.07-1.22,2.75-2.11,3a3.38,3.38,0,0,1-.58.21c-.59.11-.89-1-.44-2.9a14,14,0,0,1,1.68-4.1,9.4,9.4,0,0,1,1.53-1.93,7,7,0,0,1,2.3-1.52,12.19,12.19,0,0,1,2.38-.62c.72-.14,1.44-.25,2.15-.35,1.43-.19,2.86-.33,4.3-.42a53,53,0,0,1,13,.51Z"/><path class="cls-1" d="M341.62,205.78a12.63,12.63,0,0,1,4.08-1.59c.47-.11.92-.31,1.4-.38.84-.13,1.67-.21,2.5-.27s1.66,0,2.48-.07,1.45-.12,2.18-.15a5.94,5.94,0,0,1,2.85.2c.3.12.17.68-.11,1.25s-.67,1.2-1.14,1.28a20.71,20.71,0,0,1-5.25.43,12.87,12.87,0,0,0-3.21.5,15.73,15.73,0,0,0-3.26,1,5.06,5.06,0,0,0-.8.45c-.14.08-.17.17-.27.25a1,1,0,0,0-.27.32,8.69,8.69,0,0,0-1.11,3,12.27,12.27,0,0,0,0,2.57,5.29,5.29,0,0,1,.05.56,1,1,0,0,1-.25.71,2.16,2.16,0,0,1-.82.31l-.46.11a1.11,1.11,0,0,1-.72-.16,1.19,1.19,0,0,1-.58-.67A10.08,10.08,0,0,1,339,210a10.84,10.84,0,0,1,.77-2.11,6.38,6.38,0,0,1,.31-.56l.17-.28.26-.32a6.22,6.22,0,0,1,.54-.6l.54-.42Z"/><path class="cls-1" d="M336.45,220.1a9.1,9.1,0,0,1,1-2.71,3.79,3.79,0,0,1,.47-.68,3.27,3.27,0,0,1,.63-.6,5.21,5.21,0,0,1,.61-.42l.59-.34c.56-.31,1.08-.62,1.63-.87,2-.86,3.95-1.5,5.9-2.22.87-.32,1.71-.69,2.54-1.08l1.59-.76a9.41,9.41,0,0,1,1.66-.52c.35-.07.54.38.48,1a2.29,2.29,0,0,1-1,1.69,46.76,46.76,0,0,1-6.71,2.6,30,30,0,0,0-4,1.75A11.59,11.59,0,0,0,340,218a3.45,3.45,0,0,0-1,1.61,9.64,9.64,0,0,0-.51,2.71,11.83,11.83,0,0,0,.59,4.25,10,10,0,0,0,1.62,2.86c.15.18.31.35.45.55.56.69.63,1,.27,1.54-.08.12-.15.26-.24.37-.31.39-.86.32-1.41-.2a12.23,12.23,0,0,1-3.25-6.15,14.94,14.94,0,0,1-.12-5.42Z"/><path class="cls-1" d="M347.53,241.64a13.19,13.19,0,0,0-.08,2.9,11.35,11.35,0,0,0,.36,1.35,12,12,0,0,0,.62,1.31,10.05,10.05,0,0,0,.6.9c.23.28.47.56.68.86a28.41,28.41,0,0,0,6.23,5.27c1,.7,2.14,1.3,3.23,1.93.7.4,1.41.8,2.1,1.23a9.55,9.55,0,0,1,1.88,1.61c.35.38.06.63-.53.73a4.62,4.62,0,0,1-1.09.06,2.68,2.68,0,0,1-1.26-.29,50.34,50.34,0,0,1-8.31-5.37,29.1,29.1,0,0,1-4.66-4.33,14,14,0,0,1-1-1.5,14.75,14.75,0,0,1-.78-1.66,9.68,9.68,0,0,1-.5-1.8,5.26,5.26,0,0,1-.08-.94,6.79,6.79,0,0,1,0-.9c0-1.44.21-2.8.32-4.15a30.83,30.83,0,0,0,.12-6.06,9.08,9.08,0,0,0-1.52-4,4.09,4.09,0,0,0-.55-.68,3.44,3.44,0,0,1-.42-.53,1.22,1.22,0,0,1-.25-.39,1.79,1.79,0,0,1,0-.94c0-.17.07-.35.12-.49a.63.63,0,0,1,.63-.39,2.21,2.21,0,0,1,1.3.42,8.46,8.46,0,0,1,2.76,4.27,16.24,16.24,0,0,1,.61,4.84c0,2.35-.32,4.62-.49,6.76Z"/><path class="cls-1" d="M366.64,275.4l3.05,7.92c.36,1,.8,1.91,1.16,2.87,1.25,3.43,2.46,6.87,3.52,10.38.26.77.47,1.56.72,2.34s.52,1.54.7,2.33a25.82,25.82,0,0,1,.7,3.07,13.79,13.79,0,0,1,.22,1.57c0,.54,0,1.08,0,1.61s-.43.56-.89,0a6.63,6.63,0,0,1-1.26-2.49c-1.05-3.88-2.35-7.81-3.59-11.82-.73-2.41-1.83-4.8-2.8-7.19l-3.19-7.9-2-4.87c-1-2.45-2-4.95-3-7.38-.78-1.9-1.7-3.7-2.49-5.59-.18-.41-.39-.8-.54-1.23-.55-1.6-.49-2.19,0-2.72a3.06,3.06,0,0,1,.36-.36c.42-.29,1.05.22,1.63,1.29,1.63,3.2,3,6.69,4.53,10.2,1.1,2.6,2.13,5.26,3.2,7.9Z"/><path class="cls-1" d="M435.76,365.41c-.65-2.69-1.42-5.36-2.28-8-.43-1.33-.88-2.66-1.34-4-.23-.66-.45-1.35-.7-2s-.46-1.24-.76-1.87c-1.09-2.51-2.39-5-3.71-7.47s-2.71-4.92-4.1-7.37c-2.05-3.57-4.2-7.08-6.29-10.62-7.38-12.52-14.86-25-22-37.67-3.18-5.62-6.38-11.27-9.37-17-1.92-3.65-3.81-7.34-5.45-11.16a39.84,39.84,0,0,1-3.45-12c0-2.72.32-2.23.93-.17l.74,1.8c.3.68.71,1.44,1.09,2.26s.84,1.72,1.27,2.67.93,2,1.4,3c3.39,7.53,7.3,14.93,11.37,22.24s8.27,14.62,12.48,21.95c5,8.79,10.65,17.7,15.93,26.62,2.9,4.91,5.77,9.84,8.49,14.89,1.33,2.54,2.66,5.08,3.79,7.79.57,1.39,1,2.72,1.49,4.07s.92,2.72,1.36,4.08a99.64,99.64,0,0,1,2.73,10.28c.35,1.74.64,3.51.82,5.29a32.32,32.32,0,0,1,.2,5.4,25.53,25.53,0,0,1-19.68,23.67,24.79,24.79,0,0,1-12.57-.17,31,31,0,0,1-11-5.91c-.7-.58-1.43-1.14-2.09-1.76s-1.35-1.22-2-1.89a36.38,36.38,0,0,1-4.61-5.54,6.73,6.73,0,0,1-1.26-3,5,5,0,0,1-.1-1.1c.17-.92,2.14,1,5.35,4.56a53.13,53.13,0,0,0,7.82,7.18,28.32,28.32,0,0,0,9.3,4.65A22.5,22.5,0,0,0,437,381.52a26.55,26.55,0,0,0,.21-7.93,59.36,59.36,0,0,0-1.47-8.15Z"/><path class="cls-1" d="M362.15,312.83a9.58,9.58,0,0,0,4.05-.65,23,23,0,0,0,4.05-2c1-.61,1.86-1.3,2.77-2a71.22,71.22,0,0,0,9.1-8.13,53.74,53.74,0,0,0,3.51-4.17c1.4-1.84,2.67-3.79,4.12-5.58.46-.56.87-.2,1,.61a4.83,4.83,0,0,1-.87,3.21,61.78,61.78,0,0,1-9.6,11,84.44,84.44,0,0,1-6.82,5.85,23,23,0,0,1-9.13,4.34,8.44,8.44,0,0,1-3.32,0,4,4,0,0,1-.82-.23,4,4,0,0,1-.8-.33,6.46,6.46,0,0,1-.78-.44,2.65,2.65,0,0,1-.73-.8,4.48,4.48,0,0,1-.48-2.72,12.09,12.09,0,0,1,.48-2.38,34.76,34.76,0,0,1,1.7-4.33,60.89,60.89,0,0,1,3.24-6.27c.28-.44.53-.89.85-1.31,1.2-1.56,1.84-1.9,2.59-1.75a1.93,1.93,0,0,1,.5.12c.46.24.22,1-.43,2.17a94.4,94.4,0,0,0-5.5,11,17.42,17.42,0,0,0-.65,2.06,5.5,5.5,0,0,0-.17,1.74.92.92,0,0,0,.09.35s0,0,0,0l.35.19a4.44,4.44,0,0,0,.81.33,6.12,6.12,0,0,0,.89.15Z"/><path class="cls-1" d="M254,246.34l-1.29.21c-.43.06-.88.06-1.32.09-.87,0-1.75.13-2.62.12l-2.64-.14c-.87-.05-1.73-.26-2.6-.38l-.94-.15-.93-.22c-.62-.15-1.24-.29-1.85-.47a55.45,55.45,0,0,1-11.47-6.23c-1.59-1-3.19-2-4.82-2.87a32.82,32.82,0,0,0-3.19-1.48l-1.66-.54c-.55-.18-1.12-.24-1.69-.39s-.61-.48.07-.73a5.23,5.23,0,0,1,1.42-.29,6.85,6.85,0,0,1,2,.23,34.31,34.31,0,0,1,7,3c2.16,1.22,4.24,2.49,6.33,3.71a29.47,29.47,0,0,0,8.13,3.09l1.15.29c.39.09.79.12,1.18.19a16.93,16.93,0,0,0,2.35.28l2.38.09,2.39-.18.74-.05.73-.14,1.46-.27c.48-.09,1-.16,1.44-.28a7.24,7.24,0,0,0,1.23-.46,4.52,4.52,0,0,0,2.33-2.89,16,16,0,0,0,.51-4.35c.07-2.36-.24-4.84.62-7.5a7.53,7.53,0,0,1,.75-1.7,4.14,4.14,0,0,1,1.79-1.73,1.37,1.37,0,0,1,1.36.11,3,3,0,0,1,.57.37c.52.52.12,1.35-.47,2.27a9.73,9.73,0,0,0-1.26,5,64.56,64.56,0,0,1-.35,6.82,11.14,11.14,0,0,1-.93,3,7.4,7.4,0,0,1-2.22,2.7,8.32,8.32,0,0,1-3,1.41c-1,.25-1.77.35-2.66.53Z"/><path class="cls-1" d="M251.89,255.19a26.86,26.86,0,0,1-7.76-1.24c-.91-.27-1.82-.53-2.69-.87a50.8,50.8,0,0,1-8.69-4.63c-1.22-.76-2.46-1.46-3.71-2.08a50.4,50.4,0,0,0-4.92-2.09c-.53-.2-.41-.46.14-.67a4.59,4.59,0,0,1,2.63-.06,20.88,20.88,0,0,1,5.27,2.35c1.65.95,3.2,2,4.78,2.9a29.68,29.68,0,0,0,6.14,2.73,27.24,27.24,0,0,0,7.17,1.53,18.82,18.82,0,0,0,4.5-.18,18.16,18.16,0,0,0,6.42-2.25,24.84,24.84,0,0,0,4.14-3.24c.29-.26.56-.54.86-.8,1.14-1,1.87-1.08,2.37-.81a1.06,1.06,0,0,1,.3.22c.1.31-.09.6-.73,1.48a24.58,24.58,0,0,1-3.61,3.5,20.7,20.7,0,0,1-12.6,4.26Z"/><path class="cls-1" d="M288.73,411.9a56,56,0,0,0,15.6,6.89,35.42,35.42,0,0,0,16.75.33l3-.81,2.86-1.18a20.93,20.93,0,0,0,2.74-1.42L331,415a13.87,13.87,0,0,0,1.29-.87,51.05,51.05,0,0,0,14.89-16.26c.91-1.64,1.85-3.27,2.73-4.93s1.66-3.37,2.37-5.12,1.4-3.5,2.08-5.26,1.24-3.57,1.75-5.39a129.42,129.42,0,0,0,4.13-19.72c1.24-8.52,1.59-17.16,2.84-25.72.34-2.67.71-2.3,1.16,0a42.65,42.65,0,0,1,.92,11.59,174.06,174.06,0,0,1-3.78,26.49,100,100,0,0,1-9.2,25.4,77.46,77.46,0,0,1-9.29,13.73,43.52,43.52,0,0,1-13.17,10.57l-.51.28-.54.23-1.08.45-2.16.91c-1.49.47-3,.88-4.51,1.29-1.55.22-3.09.54-4.64.66l-2.34.09a15.23,15.23,0,0,1-2.34,0,47.36,47.36,0,0,1-17.82-4.64,60.31,60.31,0,0,1-18.24-13.1,66.84,66.84,0,0,1-10.05-13.72c-2.7-5-5.07-10-7.24-15.18a152.79,152.79,0,0,1-8.09-24.47c-.4-1.86-.81-3.67-1.12-5.56-1.18-7-.89-9.31-.21-10.88a8.76,8.76,0,0,1,.48-1c.57-.71,1.35,2.09,2.25,7.08q1,5.55,2.47,11.13c.92,3.72,2,7.44,3.25,11.13a159.74,159.74,0,0,0,9.1,21.8,69.16,69.16,0,0,0,9.4,14.57,56.52,56.52,0,0,0,13,11.31Z"/><path class="cls-1" d="M381.31,357.71a34.17,34.17,0,0,0,3.59-9.95,20.39,20.39,0,0,0,.17-3.73,10.92,10.92,0,0,0-1.73-6,8.95,8.95,0,0,0-10.76-3.66,12.3,12.3,0,0,0-3.33,1.78,16.74,16.74,0,0,0-2.86,2.54c-.56.59-.89.29-.85-.59a4.38,4.38,0,0,1,.41-1.68,5.82,5.82,0,0,1,1.36-2,13.71,13.71,0,0,1,4-2.47,14,14,0,0,1,4.69-.92,11.82,11.82,0,0,1,4.75,1,11.29,11.29,0,0,1,3.88,2.87,14.19,14.19,0,0,1,2.95,4.93,16.17,16.17,0,0,1,.89,5.6A31.59,31.59,0,0,1,385.56,357a36.48,36.48,0,0,1-3.5,6.31,44.73,44.73,0,0,1-7.37,7.91c-2.07,1.85-4.12,3.64-6.3,5.27-.48.36-.93.73-1.43,1.07-1.88,1.21-2.68,1.26-3.51.84a3.69,3.69,0,0,1-.56-.3c-.5-.39,0-1.33,1.12-2.5,1.76-1.66,3.66-3.15,5.49-4.75s3.72-3.09,5.42-4.77a39.75,39.75,0,0,0,3.53-3.94,28.45,28.45,0,0,0,2.78-4.41Z"/><path class="cls-1" d="M231.4,364.78a39.44,39.44,0,0,1-4.27-11.06,19.27,19.27,0,0,1-.53-4.44,14,14,0,0,1,2.28-7.69,12.19,12.19,0,0,1,6.24-4.83,13,13,0,0,1,6.89-.3,12.7,12.7,0,0,1,4.06,1.64,11.27,11.27,0,0,1,3.15,3c.52.73.07.89-.77.69a16.17,16.17,0,0,1-3.3-1.32,15.57,15.57,0,0,0-3.39-1.35,11.71,11.71,0,0,0-3.53-.24,9.48,9.48,0,0,0-6.08,3.19,8.24,8.24,0,0,0-2,3.94,14.85,14.85,0,0,0-.14,4.62,29.91,29.91,0,0,0,3.25,10.24,35.33,35.33,0,0,0,3.56,5.72,34.31,34.31,0,0,0,3.42,3.82,30.92,30.92,0,0,0,4,3.25,44.16,44.16,0,0,0,7,3.7c.53.23,1.07.42,1.59.67a6.56,6.56,0,0,1,2,1.21,1.86,1.86,0,0,1,.61,1.21,3.82,3.82,0,0,1,.09.63c0,.64-1.07.82-2.75.49a33.09,33.09,0,0,1-7.14-2.81,36.37,36.37,0,0,1-6.55-4.6,36.81,36.81,0,0,1-7.68-9.33Z"/><path class="cls-1" d="M310.36,468.6a28.44,28.44,0,0,1,4.2-1.33,23.43,23.43,0,0,1,4.42-.65,17.85,17.85,0,0,1,8.81,1.91,20.93,20.93,0,0,1,5.3,3.75,22,22,0,0,1,3.7,4.84c.27.43.48.89.71,1.35a10.92,10.92,0,0,1,.63,1.39,13.67,13.67,0,0,1,.52,1.44l.16.49c.06.19.12.38.16.56l.25,1.1-.05.81c0,.26,0,.54-.2.76a2.85,2.85,0,0,1-1.47.73,11.18,11.18,0,0,1-1.93.13h-.7l-.62,0c-1.66-.08-3.28-.18-4.91-.29-3.12-.22-6.25-.4-9.34-.49-2-.07-4-.07-5.93-.07a34.29,34.29,0,0,0-5.73.37c-.53.12-.74.11-.84-.06s0-.55.49-1a9.43,9.43,0,0,1,5.3-1.77c4.16-.25,8.24-.1,12.32.05l6.08.28c1,0,2,.07,3,.07h.37a2.12,2.12,0,0,1,.27,0l.16,0a1.34,1.34,0,0,0,.4,0,.08.08,0,0,0,.08-.11v-.17a.89.89,0,0,0,0-.22l0-.11-.1-.34c-.15-.49-.39-1-.58-1.45s-.49-.94-.73-1.41-.57-.9-.85-1.35a22,22,0,0,0-4.37-4.62,15.62,15.62,0,0,0-6.8-3.19,17.34,17.34,0,0,0-7.62.4,26.83,26.83,0,0,0-4.57,1.65,29.25,29.25,0,0,0-4.2,2.5,33,33,0,0,0-4.57,4c-.69.75-1.36,1.52-2,2.32l-.93,1.22c-.15.2-.29.42-.43.63l-.49.71a2.75,2.75,0,0,1-1.63,1,12.21,12.21,0,0,1-1.49.34,65.58,65.58,0,0,1-12,.7c-.88,0-1.74,0-2.62-.12-3.28-.3-4.3-.75-4.84-1.68a3.13,3.13,0,0,1-.34-.65c-.18-.69,1.18-.93,3.49-.83,3,.12,6.13.13,9.26,0,1.55,0,3.12-.11,4.66-.25.76-.07,1.52-.17,2.21-.29.34-.07.68-.15.91-.22,0,0,0,0,0,0h0s.06-.07.08-.11l.19-.27.39-.56.81-1.1a37.63,37.63,0,0,1,6-6.34,31.73,31.73,0,0,1,7.56-4.62Z"/><path class="cls-1" d="M322.82,452.4l-.31,7.72-.16,3.86-.19,5.28-4.26.78-7.74,1.51-1.49.27-.44-4.64-.25-2.84-.49-5.67-1-11.34c-.32-3.48-.73-7-1.16-10.41-.55-4.42-1.27-8.85-1.4-13.31-.09-2.79,3.42.37,4,5.48,1,9,1.88,18.1,2.43,27.27.13,2.18.33,4.39.56,6.62.18,1.67.36,3.36.54,5l1.75-.32,3.48-.64,1.71-.31.65-.1,0-.53,0-1.21.1-2.86.22-5.73c.13-3.79.27-7.59.4-11.39.18-5.75.41-11.52.49-17.23,0-1,0-1.91,0-2.86,0-.57,0-.7,0-1l0-.69-1,.09-.23,0-.46,0-.94.06-3.74.24c-1,.06-1.9.15-2.88.19-3.61.16-4.76,0-5.56-.87a3.53,3.53,0,0,1-.53-.58c-.37-.66,1.09-1.26,3.73-1.53,2.05-.21,4.14-.39,6.25-.54l3.18-.21.8,0,1.5-.06,3.15-.13q0,4-.09,8.09-.06,3-.11,5.91c-.14,6.16-.36,12.36-.54,18.54Z"/><path class="cls-1" d="M346.08,483.39c.38,0,1.88.06,3.36,0s2.93-.11,3.2-.13,2.2,0,2.4-.05h3.47c.26,0,7.52.13,8.38.06.6-.09,3.92.15,4.6.2.23,0,.2,1.16,0,1.19a16.72,16.72,0,0,1-2.34.15c-1.2-.05-5.27.16-5.45.19l-2.42.3-1.14.12-3.16.31c-1,.09-2,.23-3,.28-1.46.07-2.93.07-4.4.08-.83,0-1.67,0-2.52,0-.49,0-1-.13-1.48-.18s-.56-.5-.69-1.08S345.82,483.38,346.08,483.39Z"/><path class="cls-1" d="M306.25,392.43a4.52,4.52,0,0,1-2.3,1.47,2.24,2.24,0,0,1-1.19-.09l-.31-.14c-.12,0-.2-.09-.29-.13s-.27-.28-.39-.41a3.68,3.68,0,0,1-.68-2.53,12.72,12.72,0,0,1,.11-1.72c0-.27.07-.65.1-.81l.07-.49c.21-1.3.47-2.57.75-3.83l.44-1.88.05-.21v-.05l0-.09.07-.2c0-.1-.18-.1-.28-.13l-.08,0-.23-.05-.79-.14a18.41,18.41,0,0,1-6.83-2.32c-.29-.21-.49-.34-.91-.68l-1-1a8.15,8.15,0,0,1-.64-1.09,1.23,1.23,0,0,1,0-1.18,3.71,3.71,0,0,1,2-1.68,15.12,15.12,0,0,1,2.05-.74c1.16-.34,2.31-.6,3.47-.83q.87-.17,1.74-.3l.43-.07.21,0,.33,0c.05-.13.09-.29.14-.44l.3-1.16.65-2.39c.45-1.59.9-3.17,1.46-4.77l.18-.51c.07-.21.2-.47.3-.69a3.43,3.43,0,0,1,.81-1.21,2.58,2.58,0,0,1,2.83.27,5.76,5.76,0,0,1,.61.43l.44.37c.27.26.55.51.8.77,1,1,1.95,2.09,2.89,3.11.59.64,1.17,1.27,1.77,1.89l.89.91c.19.18.34.33.51.48l.45-.1,1.05-.16c.7-.09,1.41-.15,2.12-.18a13.53,13.53,0,0,1,4.35.45c.75.23,1,.57.87.8s-.57.44-1.19.64a31,31,0,0,1-5.54,1.23l-1.07.15-.91.16-1.14.24-1.08-1.1-.53-.54-.3-.32c-.4-.42-.8-.85-1.18-1.28l-2.27-2.56c-.74-.84-1.47-1.68-2.19-2.37a6.9,6.9,0,0,0-.52-.47c-.06-.06,0,0-.05-.06a.08.08,0,0,0-.09,0s0,0-.07.06c-.11.28-.29.79-.43,1.2-.3.87-.58,1.76-.85,2.66l-.8,2.72-.39,1.37-.22.78-.32,1.22-.19.76-1.76.17-1.15.16c-.64.09-1.29.22-1.93.35a26.54,26.54,0,0,0-3.72,1.05,1.71,1.71,0,0,0-.58.31.19.19,0,0,0,0,.29,2.61,2.61,0,0,0,.23.24,1.83,1.83,0,0,0,.3.25,6.26,6.26,0,0,0,.74.48,10.17,10.17,0,0,0,1.67.77,21.31,21.31,0,0,0,3.3.9l2,.36a7.59,7.59,0,0,1,2.56.9l-.56,2.23-.37,1.53c-.21.9-.4,1.81-.58,2.71l-.25,1.36-.19,1.21a5.21,5.21,0,0,0-.08,1.26.66.66,0,0,0,.09.31.36.36,0,0,0,.29.12,1.07,1.07,0,0,0,.54-.32,4.25,4.25,0,0,0,.44-.5c.15-.19.21-.27.53-.73,1-1.54,2-3.16,3-4.78l1.53-2.57,1.26.62,1.16.55,1.71.76q1.71.75,3.45,1.38a28.68,28.68,0,0,0,3.51,1.05,11.92,11.92,0,0,0,1.73.27,2.32,2.32,0,0,0,1.06-.12c.14-.06.29-.15.31-.31a1.14,1.14,0,0,0-.06-.45c-.05-.15-.11-.29-.17-.43l-.11-.2-.17-.32a17.09,17.09,0,0,0-1.79-2.5,22.81,22.81,0,0,0-2.15-2.25l-.28-.26-.36-.32-1-.84c-.65-.57-1.4-1.13-2-1.69l.31-.17c.7-.39,1.43-.77,2.1-1.19.35-.2.65-.41,1-.61l.35-.25.29-.19c2.81-2,3.43-2.77,4.49-2.89a3.81,3.81,0,0,1,.7-.12c.33,0,.39.38.13,1.08a8.1,8.1,0,0,1-2,2.6,26.67,26.67,0,0,1-2.17,1.78,1.44,1.44,0,0,0-.28.22l-.1.1-.13.13a2.6,2.6,0,0,0,.32.19s0,0,.07.05l.22.21.46.42c.3.28.58.59.87.89a21.67,21.67,0,0,1,3.13,4.06l.33.6.45,1c.12.36.22.73.31,1.09a3.23,3.23,0,0,1,0,1l0,.25c0,.07-.08.14-.11.21l-.25.44a1.65,1.65,0,0,1-.68.73,4.22,4.22,0,0,1-2.08.65,8.83,8.83,0,0,1-1.15,0l-.72-.07c-.46-.06-.91-.14-1.34-.23-.87-.18-1.69-.41-2.5-.66-1.5-.48-2.94-1-4.36-1.61-.71-.3-1.41-.6-2.11-.92l-.52-.24h0l0,0h0l0,.06-.3.52-1.25,2.06c-.42.69-.85,1.38-1.3,2.07-.24.35-.44.68-.71,1.05a18.56,18.56,0,0,1-1.41,1.79Z"/><path class="cls-1" d="M319.5,338.85a138.17,138.17,0,0,1-16.84,1.9l-3.09.18c-1,0-2.06.07-3.09.08-3.63,0-7.26-.13-10.87-.49-1.81-.13-3.61-.4-5.41-.6s-3.59-.51-5.36-.89l-2.37-.46-2.36-.53c-1.57-.32-3.12-.74-4.67-1.14a59.41,59.41,0,0,1-11.57-4.17c-1.15-.56-.77-1,.42-1.05a16.36,16.36,0,0,1,5.38.85,102,102,0,0,0,11.81,3.1c4,.78,8,1.55,12.13,2.05a93.84,93.84,0,0,0,15.12.44,134.6,134.6,0,0,0,16.63-1.57c3.4-.51,6.77-1.2,10.11-2A117.15,117.15,0,0,0,340.38,330,77.29,77.29,0,0,0,351,324.82l2.2-1.34c2.76-1.65,3.65-2.1,4.72-1.81a4.14,4.14,0,0,1,.72.2c.33.18.29.56-.07,1.11a8.37,8.37,0,0,1-2,2,53.87,53.87,0,0,1-9.7,5.66,96.06,96.06,0,0,1-10.71,4.15,133.8,133.8,0,0,1-16.63,4.14Z"/><path class="cls-1" d="M318.75,256.59c-1.15-1.1-2.34-2.15-3.54-3.19s-2.44-2-3.68-3c-.9-.74-1.89-1.35-2.82-2.05-1.61-1.26-3.31-2.41-5-3.59s-3.43-2.26-5.22-3.25c-1.57-.94-3.24-1.68-4.86-2.46-1.07-.46-2.15-.86-3.22-1.31s-2.17-.81-3.22-1.3c-.66-.29-.46-.66.26-.85a6.18,6.18,0,0,1,3.26.19,59.68,59.68,0,0,1,13,6.51c2.43,1.6,5,3.12,7.46,4.86,1.35.93,2.61,2,3.91,2.95s2.53,2.08,3.79,3.12c1.49,1.34,3,2.64,4.46,4.05l1.65,1.58,1.59,1.64c1.08,1.08,2.09,2.22,3.12,3.33.82.84,1.58,1.73,2.38,2.59s1.56,1.74,2.3,2.66c.32.4.67.78,1,1.2,1.08,1.63,1.24,2.27.78,3a2.84,2.84,0,0,1-.32.5c-.43.44-1.26,0-2.11-1-2.57-3.08-5.31-6.27-8.22-9.38-2.19-2.29-4.4-4.6-6.79-6.72Z"/><path class="cls-1" d="M213.79,156.45a7.69,7.69,0,0,0,1.32,1,5.62,5.62,0,0,0,1.34.5,3.77,3.77,0,0,0,2.72-.63,5.12,5.12,0,0,0,1.41-1.81,14.12,14.12,0,0,0,1.32-4.63,39.55,39.55,0,0,0,.29-5.14c0-1.55-.14-3.11-.29-4.65a23.86,23.86,0,0,1-.27-6c.11-.65.5-.52,1,0a7.35,7.35,0,0,1,.72,1,3.66,3.66,0,0,1,.5,1.48c.52,4,1.13,8.13.68,12.4-.15,1.27-.28,2.58-.55,3.92a11.43,11.43,0,0,1-1.49,4,7.31,7.31,0,0,1-1.73,1.83,6.65,6.65,0,0,1-7.16.32,13.87,13.87,0,0,1-4-3.76,46.83,46.83,0,0,1-4.07-6.78c-.93-1.78-1.93-3.49-2.8-5.28-.19-.39-.4-.76-.57-1.16-.65-1.49-.66-2-.11-2.64a2.92,2.92,0,0,1,.37-.41c.46-.38,1.18,0,1.81,1.07,1.89,3,3.39,6.32,5.16,9.41a23.22,23.22,0,0,0,4.52,6Z"/><path class="cls-1" d="M252.64,151.33l-.53,1a4.93,4.93,0,0,1-.33.54,4.44,4.44,0,0,1-.42.55,5.47,5.47,0,0,1-2.27,1.64,6,6,0,0,1-2.69.39,7.24,7.24,0,0,1-2.45-.72,7.56,7.56,0,0,1-2.74-2.26,41,41,0,0,1-4.52-9.46c-.51-1.45-1-2.91-1.39-4.37a21.64,21.64,0,0,1-1-5.76c0-.61.5-.58,1.07-.16a4.46,4.46,0,0,1,1.51,2.26c.48,1.83,1.06,3.62,1.69,5.39s1.21,3.57,1.92,5.34a17.94,17.94,0,0,0,1.6,3.07c.31.49.63,1,1,1.44l.25.36.23.28a6,6,0,0,0,.49.52c1.49,1.47,4,1.74,5.17.08a5.39,5.39,0,0,0,.51-.88,7.09,7.09,0,0,0,.43-1,7.57,7.57,0,0,0,.35-1.08,10.12,10.12,0,0,0,.25-1.12,30.57,30.57,0,0,0,.41-7.18c-.08-1.89-.45-3.73-.61-5.64,0-.42-.09-.83-.11-1.26,0-1.6.31-2.13,1.07-2.41a2.73,2.73,0,0,1,.52-.19c.58-.1,1,.55,1.25,1.63a48.53,48.53,0,0,1,1,10.47,23.6,23.6,0,0,1-1.51,8.54Z"/><path class="cls-1" d="M230.84,142.08A47.72,47.72,0,0,1,230,130l.15-2.23c.07-.74.2-1.49.32-2.22a12.16,12.16,0,0,1,.51-2,9.87,9.87,0,0,1,.93-2,12.2,12.2,0,0,1,2.8-3.17,20.61,20.61,0,0,1,7.14-3.55,15.76,15.76,0,0,1,3.63-.42,26.4,26.4,0,0,1,3.45.14,22.16,22.16,0,0,1,4.38.85,6,6,0,0,1,1.07.41,6.87,6.87,0,0,1,1,.54,5.68,5.68,0,0,1,1.82,1.62c.55,1,0,.91-.78.66s-2-.25-3.47-.53a37.29,37.29,0,0,0-8-.74,15.08,15.08,0,0,0-1.87.15l-.36.07-.48.15c-.32.09-.64.2-1,.31a19.12,19.12,0,0,0-3.65,1.65,8.83,8.83,0,0,0-3.29,3.27,8.13,8.13,0,0,0-.83,2.13c-.17.78-.27,1.68-.43,2.51a41,41,0,0,0,.13,11.44,50.14,50.14,0,0,0,1.54,6.95,43.32,43.32,0,0,0,4.25,9.91,34.94,34.94,0,0,0,5.17,6.32c.41.43.89.76,1.32,1.17a21.79,21.79,0,0,1,1.69,1.63,2,2,0,0,1,.46,1.18,3.57,3.57,0,0,1,0,.55c-.07.53-1.07.32-2.67-.54-4.48-2.86-8-7.49-10.32-12.45a50.83,50.83,0,0,1-3.92-11.62Z"/><path class="cls-1" d="M219.91,123.17c.53.16.62.76.46,1.43-.05.22-.48.63-.64.62s-.59-.06-.84-.12c-.09,0-.63-.31-1.28-.5a6.72,6.72,0,0,0-1.74-.35c-.73,0-1.41-.15-2.13-.21a14.7,14.7,0,0,0-4.5.35,6,6,0,0,1-1,.12,9.48,9.48,0,0,0-3.52,1,1.06,1.06,0,0,0-.53.34,27,27,0,0,1-3.64,1.86,21.87,21.87,0,0,0-3.06,1.21c-.14.07-.26.2-.45.17a1.26,1.26,0,0,0-1,.35c-.39.25-.78.5-1.19.74a3.7,3.7,0,0,1-.75.21c-.23.06-.49-.32-.47-.41.05-.26-.24-.28-.39-.39a1,1,0,0,1-.15-.13,5.65,5.65,0,0,1,.77-1.48,9.69,9.69,0,0,1,1.1-1.52l.57-.47c.33-.28.78-.63,1.25-1,.93-.71,2-1.37,2.16-1.53a2.32,2.32,0,0,1,.73-.29c.06,0,.82-.52,1.64-.93s1.64-.82,1.71-.84a5.48,5.48,0,0,1,2.16-.51.92.92,0,0,0,.43-.09,16.37,16.37,0,0,1,3.76-.66c.66,0,1.31-.15,2-.18a2.25,2.25,0,0,1,.36.06,3.47,3.47,0,0,0,.45.06,15.65,15.65,0,0,1,4.75.75,14.62,14.62,0,0,1,2.23,1.38C219.34,122.28,219.72,123.1,219.91,123.17Z"/><path class="cls-1" d="M241.64,176c-1.18.21-7.52,3-14,1.72,0,0,4.08,14.6,8.37,14.17C236,191.89,242.82,193.18,241.64,176Z"/><path class="cls-1" d="M306.27,285.57c-1-3.16-.85-6.84-1.14-10.15s-.55-6.71-.79-10.07c0-.6-3.84,0-3.77,1q.36,5,.79,10.07c.29,3.31.16,7,1.14,10.15.25.79,4-.28,3.77-1Z"/><path class="cls-1" d="M256,298.43c5.4,5.66,12.31,9.63,19.21,13.18,1.14.58,4.67-1.2,4.09-1.5-6.9-3.55-13.81-7.52-19.21-13.19-.78-.82-4.81.75-4.09,1.51Z"/><path class="cls-1" d="M337.65,299.05c2.29-5,4.2-10.09,7.18-14.69,1.23-1.9-3.18-1.8-4.11-.35-3,4.6-4.89,9.73-7.19,14.69-1,2.13,3.38,1.93,4.12.35Z"/><path class="cls-1" d="M413.21,136.36c-3.93,4.4-6.68,12.1-.23,15.69,6.14,3.42,14.53-2,12.2-9.15a1.4,1.4,0,0,0-1.32-1,7.5,7.5,0,0,0-6.81,7.21c-.27,4.26,3,6.75,6.2,8.94,1.46,1,2.83-1.37,1.39-2.37a14.09,14.09,0,0,1-4.1-3.54c-1.68-2.62-.32-7.17,3.32-7.49l-1.33-1c1.92,5.87-7,9.42-10.14,4.28-1.89-3.16.68-7.28,2.77-9.61,1.17-1.32-.77-3.27-2-1.95Z"/><g class="cls-4"><path class="cls-1" d="M87.67,269c1.67-1.09,4.37.69,5.26,2a10,10,0,0,1,1.49,3.25c.57,2.53-.58,4.88-2.2,6.77-1.81,2.09-5.88,5.59-9,3.64-2.13-1.33-.21-5.42,1.82-4.61,1,.41,1.71,2.3,2.1,3.24a18.78,18.78,0,0,1,1.63,6.62c0,1.77,2.8,1.78,2.75,0-.12-3.72-1.92-12.4-6.69-12.9s-7.68,7.27-3.5,9.84c5.76,3.53,12.86-2.32,15.13-7.35,2.63-5.83-3.1-17.55-10.2-12.91-1.47,1-.1,3.35,1.39,2.38Z"/></g><path class="cls-1" d="M211,405.11c0-1.43-.09-2.87-.24-4.3,0-.52-.18-1-.24-1.54a41.9,41.9,0,0,0-.86-5.46,17,17,0,0,0-.77-2.32,14.06,14.06,0,0,1-1.17-2.87c-.06-.33.48-.57,1.13-.57a1.89,1.89,0,0,1,1.7.82,20.29,20.29,0,0,1,1.87,6.5c.15,1.34.56,2.67.77,4s.38,3,.5,4.46c.07.92.11,1.83.15,2.75.08,1.38.07,2.78.17,4.15.06,1.06.29,2.1.42,3.16,0,.24.09.47.1.7,0,.88-.16,1.15-.92,1.32a5,5,0,0,1-.53.11,1.12,1.12,0,0,1-1.24-.91,26.93,26.93,0,0,1-.69-5.7c-.08-1.43-.11-2.88-.22-4.31Z"/><path class="cls-1" d="M301.66,319.48q-6.42.57-12.81,1.6c-1.56.24-3.09.6-4.64.86-5.45,1-10.89,2.13-16.25,3.57-2.38.64-4.75,1.37-7,2.2-1.48.52-2.93,1.1-4.37,1.7s-2.88,1.2-4.15,1.87c-.64.41-1.07.07-.67-.92a6.78,6.78,0,0,1,3.38-2.91,83.4,83.4,0,0,1,9.24-3.29c3.12-.93,6.29-1.7,9.49-2.35,3.83-.78,7.77-1.78,11.69-2.51q6.48-1.2,13-1.95c2.68-.33,5.38-.55,8.07-.75,4.08-.29,8.2-.38,12.27-.34,3.16,0,6.28,0,9.43.35.7,0,1.38.12,2.07.22s1.18.19,1.62.29a6.87,6.87,0,0,1,1.07.37,1.87,1.87,0,0,1,1,1,2.81,2.81,0,0,1,.23.55c.1.59-1,.8-2.82.55a139.41,139.41,0,0,0-16.92-.76c-4.3.07-8.63.32-12.95.75Z"/><path class="cls-1" d="M336.82,69.85a42.85,42.85,0,0,1,8.32-6.4,1.42,1.42,0,0,0,.21-2.32c-.9-.71-2.27-.31-3.12.24a47.4,47.4,0,0,0-9.07,7.12,1.34,1.34,0,0,0,.59,2.19,2.92,2.92,0,0,0,3.07-.83Z"/><path class="cls-1" d="M126.37,73.16a20.38,20.38,0,0,0-8-6,3.54,3.54,0,0,0-3.08.41c-.53.34-1.37,1.28-.38,1.69a18.82,18.82,0,0,1,7.44,5.59c.94,1.15,5.11-.37,4-1.69Z"/></g></svg>