<svg xmlns="http://www.w3.org/2000/svg" width="520" height="520" viewBox="0 0 520 520"><defs><style>.cls-1{fill:#231f20;}</style></defs><title>Notioly New upgrade</title><g id="n.126_Leadership" data-name="n.126 Leadership"><path class="cls-1" d="M207,475.31a18,18,0,0,1-.13-3.77c0-1.2.13-2.38.22-3.56l.14-2.57c.23-3,.5-6,.51-9a21.09,21.09,0,0,0-.36-3.92,11.27,11.27,0,0,0-.28-1.18,1.4,1.4,0,0,0-.39-.77,1.19,1.19,0,0,0-.81,0c-.4.07-.84.17-1.3.21s-.5-.27-.12-.63a5.76,5.76,0,0,1,.77-.64A2.25,2.25,0,0,1,207,449a1.84,1.84,0,0,1,1.07.64,3.12,3.12,0,0,1,.5.86,10.84,10.84,0,0,1,.42,1.38,20,20,0,0,1,.35,2.73,38.27,38.27,0,0,1-.08,5.36c-.18,2.12-.22,4.32-.37,6.47-.14,2.36-.36,4.73-.32,7a10.67,10.67,0,0,0,.11,1.3,2.72,2.72,0,0,0,.12.48.34.34,0,0,0,.22.23l.28.11.37.12.74.22c2.1.57,4.28,1,6.43,1.44,1.67.32,3.34.48,5,.75.37.07.73.11,1.1.19,1.37.29,1.78.54,2,1a2.3,2.3,0,0,1,.12.34c0,.37-.57.51-1.58.43a66,66,0,0,1-9.25-1.52l-2.89-.67c-.49-.12-1-.24-1.46-.38-.25-.06-.5-.14-.75-.22l-.37-.12-.53-.19a5.22,5.22,0,0,1-.48-.34,2.69,2.69,0,0,1-.37-.45c-.09-.18-.17-.37-.24-.55a4,4,0,0,1-.1-.41Z"/><path class="cls-1" d="M254.82,463.83l-1.23-5.47c-.15-.67-.37-1.31-.51-2-.49-2.36-.94-4.72-1.34-7.12l-.22-1.3-.06-.34-.05-.48a2.9,2.9,0,0,1,.05-.93c0-.14.14-.27.2-.4a3.28,3.28,0,0,1,.31-.34,3.55,3.55,0,0,1,2.67-.56c.72.1,1.38.31,1.94.44.29.07.42.46,0,.93a3.12,3.12,0,0,1-1.94,1c-.22,0-.44,0-.62,0s-.22,0-.17,0,0,0,0,0h0s0,0,0,.05l0,.3.19,1.28c.13.88.24,1.77.35,2.67a49.24,49.24,0,0,0,1.11,5l1.26,5.48.81,3.37c.43,1.69.83,3.4,1.33,5.06.4,1.29.9,2.53,1.3,3.79.09.28.19.55.27.84a2.51,2.51,0,0,1,.13,1.17,1.09,1.09,0,0,1-.35.64,2.49,2.49,0,0,1-.22.23c-.21.18-.7-.15-1.17-.85a30.52,30.52,0,0,1-2.69-7c-.51-1.81-1-3.64-1.43-5.46Z"/><path class="cls-1" d="M373,226.65q3.61-3.42,7.14-7l2.54-2.62c3-3,6.11-6.05,9.33-8.93,1.42-1.28,2.85-2.57,4.32-3.8,1.89-1.54,3.89-3.16,6.44-3.77.8-.18.74.2.26.75a15.77,15.77,0,0,1-2.36,2.12c-3.86,2.72-7.35,6.25-11,9.58-2.21,2-4.29,4.31-6.43,6.49q-3.53,3.6-7.14,7.14c-1.48,1.45-3,2.87-4.51,4.3-2.3,2.14-4.68,4.22-7.1,6.21-1.89,1.54-3.73,3.08-5.74,4.46-.45.29-.86.63-1.34.88-1.74,1-2.43,1.11-3,.83a1.66,1.66,0,0,1-.4-.2c-.33-.29.25-.93,1.41-1.7a105.84,105.84,0,0,0,10.23-8c2.51-2.17,5-4.44,7.37-6.77Z"/><path class="cls-1" d="M150.15,428.47s-18.62,15.74-29.83,5.08c0,0-6.23-14.22-13.14-76.83l-.63,9.66s-8.72,61.95-13.14,63.8-27.86-2.59-32.51-10.37c0,0,28-105.55,24.29-138.07,0,0,32.92,8.51,45.18-6.51C130.37,275.23,140.43,405.94,150.15,428.47Z"/><path class="cls-1" d="M76.83,135.19s3.33-7.85,9.12-5,5.56,2.19,5.56,2.19-4.83-11.09,1.07-18.68,15.78-9.09,26.73-3.18,18.29,5.77,26-1,13-19.75,2.85-30.11-17.87-4.1-20-2.46c0,0-7.61-9.75-17.07-8.4C92.58,71.2,96.58,87.43,97.84,88,91.13,85.2,80,85.93,74,91.41c-6.56,6.08-6.5,15.66-.41,22.28l-5-4s-4.68.21-7.38,5.55a13.94,13.94,0,0,0,8.36,19.21Z"/><path class="cls-1" d="M206.94,280.63S184.45,407,189.67,444.54c0,0,11.71,6.45,28,1.77,0,0,2.5-46.14,6.26-59.3,0,0,15.29,57.31,21.53,57s14.23.76,23.71-6.29c0,0-24.85-100.74-20.11-154.32C249.1,283.42,224.32,294.12,206.94,280.63Z"/><path class="cls-1" d="M209.18,133.4s3.9-5.3,9.87-1.18,6.74,1,6.74,1-.69-20.5,12-25.3c0,0,15.81-11.36,36.47,5.69,0,0,2,4.71,9.29-1.81,0,0,10.6-11.44,7.45-21.51-3.45-11-16.55-19.09-32.16-17.26-16.56,1.94-28.5,19.37-28.5,19.37S221.79,88.1,213.15,89c-6.91.67-16.73,4.48-18.84,14.19,0,0-2.61,12.51,8.76,24.83Z"/><path class="cls-1" d="M340.74,281.74s-24.54,139.72-21.51,166.8a46.71,46.71,0,0,0,15.36,4.91c5.41.65,11.38,1.48,16.35-.82L362.1,386s23.95,69.23,36.58,73.28c0,0,13.31-.94,26.24-18.05,0,0-41-116-36.92-152C388,289.25,358.21,292.94,340.74,281.74Z"/><path class="cls-1" d="M366.34,141c-.64,1.3-4.41,7.36-10.38,7s-20.23-4.51-20-31.76c0,0-.08-31,21.57-33.41,0,0,13.5-3.18,21.65,3.38,0,0,14.52-21.9,38.38-20.9S446.58,80,448.1,89s-8.25,27.14-19.76,27.56c0,0-21.47,1-37-9.65,0,0-6.17-1.62-10.62,4.75s-7.16,17.46-7.16,17.46-4-7-10.58-5-7.55,6.84-5.38,11.21S366.34,141,366.34,141Z"/><path class="cls-1" d="M413.52,160c-2.4,4.06-5.46,8-9.69,10.59a20,20,0,0,1-2.38,1.27,11.48,11.48,0,0,1-1.27.49,7.44,7.44,0,0,1-1.3.38,18.63,18.63,0,0,1-9.33-.34,24,24,0,0,1-8.16-4.16,34.34,34.34,0,0,1-5.8-5.56,25.28,25.28,0,0,1-4.82-9c-.28-1,.05-1,.67-.26A35.76,35.76,0,0,1,374,157a40,40,0,0,0,6.31,7.48,27.07,27.07,0,0,0,8.15,5.24,20,20,0,0,0,2.82.84c.49.09,1,.14,1.47.21a8.08,8.08,0,0,0,1.47.1,14.31,14.31,0,0,0,5.76-1c4-1.57,7.25-4.91,9.77-8.62a50.76,50.76,0,0,0,4-7.35,92.19,92.19,0,0,0,4.42-12c.95-3.18,1.62-6.37,2.38-9.58.17-.7.31-1.4.5-2.11.68-2.64,1.24-3.41,2.07-3.75a3.08,3.08,0,0,1,.57-.21c.59-.07.67,1.1.32,3A133.37,133.37,0,0,1,419.37,147a75.12,75.12,0,0,1-5.79,13Z"/><path class="cls-1" d="M427.67,147a5.74,5.74,0,0,1-.28,1.83,3.66,3.66,0,0,1-.43.89l-.28.41c-.11.12-.22.23-.34.34a4.28,4.28,0,0,1-1,.82,7.14,7.14,0,0,1-1.85.59c-.58.12-1.15.21-1.72.3s-1,.21-1.52.32a3.06,3.06,0,0,1-2.17,0c-.28-.15,0-.57.25-1s.41-.94.66-1c1-.19,2.19-.52,3.41-.66a4.28,4.28,0,0,0,1.81-.76,1.79,1.79,0,0,0,.85-1.35,4.39,4.39,0,0,0-.11-1.32,10.47,10.47,0,0,0-.7-2.21c-.25-.57-.69-1.06-1-1.67a3,3,0,0,1-.19-.41c-.17-.54,0-.82.58-1,.13-.05.26-.11.39-.15a1.24,1.24,0,0,1,1.15.24,6.33,6.33,0,0,1,1.05,1.25A11.61,11.61,0,0,1,427,144a8.88,8.88,0,0,1,.7,3Z"/><path class="cls-1" d="M449.42,93.05a34.28,34.28,0,0,1-2.77,9.27,28.43,28.43,0,0,1-5.58,7.94,27.61,27.61,0,0,1-7.95,5.52c-.74.32-1.47.67-2.23.93a20.33,20.33,0,0,1-2.32.76,23,23,0,0,1-4.85.7A41.61,41.61,0,0,1,410,116a92.72,92.72,0,0,1-11.17-4.5c-1.81-.85-3.6-1.75-5.37-2.62a11.33,11.33,0,0,0-2.52-1,8.94,8.94,0,0,0-2.67-.19,8.12,8.12,0,0,0-4.8,2.15,16.51,16.51,0,0,0-3.41,4.47,59.62,59.62,0,0,0-4.25,10.92c-.32,1-.63,2-1,3.09a3.89,3.89,0,0,1-1.23,1.86,1,1,0,0,1-1,.14,2.61,2.61,0,0,1-.87-.62l-1.5-1.46-1.38-1.11c-.47-.35-1-.62-1.48-.94s-1-.48-1.56-.73a11.65,11.65,0,0,0-1.62-.41,5.87,5.87,0,0,0-1.62,0,5.4,5.4,0,0,0-1.53.4l-.67.39a4.09,4.09,0,0,0-.61.49l-.27.24-.22.29a6.36,6.36,0,0,0-.43.59,6,6,0,0,0-.59,1.35,7.92,7.92,0,0,0-.31,3,8.77,8.77,0,0,0,2.58,5.4,10.78,10.78,0,0,0,2.53,1.78,14.17,14.17,0,0,0,1.42.67c.51.15,1,.35,1.52.47a14.5,14.5,0,0,0,3.15.44c.53,0,1.07,0,1.6,0a14.1,14.1,0,0,0,1.59-.2c.67-.1,1.13-.24,1.44-.3s.46,0,.47,0-.13.19-.4.39a6.7,6.7,0,0,1-1.24.7,11.73,11.73,0,0,1-5,1.11,11.31,11.31,0,0,1-1.71-.11,11.58,11.58,0,0,1-8.53-5.11,11.28,11.28,0,0,1-1-1.91c-.12-.34-.22-.69-.33-1l-.15-.52-.09-.53-.16-1.06c0-.36,0-.72,0-1.08v-.55l.08-.54c.06-.37.09-.73.18-1.09a8.5,8.5,0,0,1,2.18-4,7.07,7.07,0,0,1,4.15-2,9.54,9.54,0,0,1,4.38.55c.63.29,1.3.55,1.9.89s1.17.72,1.71,1.12l1.56,1.27c.24.22.47.46.7.69l.29.3s0,0,0,0,.1,0,.12,0c.36-.88.69-1.88,1-2.87.64-2,1.27-4,2-6.06a37.37,37.37,0,0,1,2.77-5.92,16.65,16.65,0,0,1,4.44-5.13,10,10,0,0,1,4.26-1.82,11.23,11.23,0,0,1,4.62.25,17.15,17.15,0,0,1,2.13.89l1.91.93c1.27.62,2.54,1.22,3.82,1.81a77.69,77.69,0,0,0,15.82,5.55,31,31,0,0,0,9,.74,18.46,18.46,0,0,0,4.32-.84c.71-.27,1.42-.51,2.12-.79s1.38-.6,2-1a26,26,0,0,0,7.11-5.42,26.52,26.52,0,0,0,4.79-7.58,30.3,30.3,0,0,0,1.66-5.31,22.78,22.78,0,0,0,.58-5.49c0-.46,0-.92,0-1.38L447,86.71l-.1-.68-.16-.67L446.36,84a23.41,23.41,0,0,0-2.24-5,26.26,26.26,0,0,0-12.6-10.77l-2-.72-2-.52c-.69-.15-1.4-.25-2.1-.37a18.8,18.8,0,0,0-2.11-.3,37.84,37.84,0,0,0-4.25-.24c-.71,0-1.42,0-2.12,0l-2.12.17c-8.79.83-16.93,4.46-24.05,9.41-.77.57-1.54,1.12-2.31,1.68l-2.24,1.8c-1.39,1.12-2.49,2.13-3.45,2.92s-1.67,1.52-2.32,2a11.43,11.43,0,0,1-2.85,2,7.42,7.42,0,0,1-1,.44c-.42.09-.2-.48.58-1.58.39-.54.91-1.23,1.59-2s1.53-1.63,2.48-2.59a62.82,62.82,0,0,1,20.63-13.51,45.89,45.89,0,0,1,25.44-2.47,28.37,28.37,0,0,1,16.74,10,26.15,26.15,0,0,1,4.72,8.75,22.73,22.73,0,0,1,.78,10Z"/><path class="cls-1" d="M335,121.62a59.81,59.81,0,0,1-.48-9.39,43.43,43.43,0,0,1,1.43-9.34,38.77,38.77,0,0,1,2.31-6.51,39.47,39.47,0,0,1,3.09-5.25,38.89,38.89,0,0,1,4-4.62A22.32,22.32,0,0,1,356,80.6a25.63,25.63,0,0,1,10.75,0,32,32,0,0,1,6.55,2.07,21.19,21.19,0,0,1,3,1.65A13.19,13.19,0,0,1,379,86.51c.5.55.6.93.45,1s-.53,0-1.12-.23a40.74,40.74,0,0,1-5.41-2,27.87,27.87,0,0,0-12.42-2.86,19.52,19.52,0,0,0-11.82,4.15,26.46,26.46,0,0,0-5.43,5.86,34.7,34.7,0,0,0-3.77,7.22,38.67,38.67,0,0,0-2.23,8.69,43.12,43.12,0,0,0-.24,9,57.92,57.92,0,0,0,1.74,11.06,37.92,37.92,0,0,0,3,7.88,25.05,25.05,0,0,0,5,6.65,16.48,16.48,0,0,0,5.25,3.43,9.77,9.77,0,0,0,5.92.36,7.79,7.79,0,0,0,1.24-.4l.61-.25.6-.3a35,35,0,0,0,3-1.88,4.57,4.57,0,0,1,1.63-.66,4.73,4.73,0,0,1,.6-.13c.26,0,.19.3-.12,1a7.32,7.32,0,0,1-2.11,2.38,13,13,0,0,1-5.86,2.72,12.19,12.19,0,0,1-6.72-.79,18.59,18.59,0,0,1-5.55-3.68,27.4,27.4,0,0,1-4.23-5A35.14,35.14,0,0,1,337,131a54.69,54.69,0,0,1-2-9.31Z"/><path class="cls-1" d="M351.14,274.06a58.59,58.59,0,0,1-9.56,4.91,20.53,20.53,0,0,1-11.09,1.48,10.81,10.81,0,0,1-5.37-2.6,12.28,12.28,0,0,1-3.22-4.92,24.32,24.32,0,0,1-1-11,79.81,79.81,0,0,1,3.32-15.17,132.34,132.34,0,0,1,10.95-24.84,102.77,102.77,0,0,1,7.46-11.39,64.85,64.85,0,0,1,9.4-9.91c6.13-5.22,13.32-9.6,21.33-11.3a29.59,29.59,0,0,1,15.61.76,27.86,27.86,0,0,1,7.08,3.46,36.44,36.44,0,0,1,3.12,2.36c.51.41.95.89,1.42,1.34s.93.9,1.36,1.38c2.2,2.36,1.53,2.34-.74.87a84.27,84.27,0,0,0-11.55-6,27.07,27.07,0,0,0-14.28-1.56,39,39,0,0,0-13.77,5.24,60.55,60.55,0,0,0-11.87,9.34,73.46,73.46,0,0,0-9.48,12,114,114,0,0,0-8.85,16.62,120.73,120.73,0,0,0-6.25,18,71.33,71.33,0,0,0-1.81,10.17,19.76,19.76,0,0,0,1.35,9.76,8.81,8.81,0,0,0,2.95,3.57,9.09,9.09,0,0,0,4.44,1.47,20.63,20.63,0,0,0,9.73-2A74.49,74.49,0,0,0,353,269.78a99.61,99.61,0,0,0,10.18-7.85,335,335,0,0,0,27.59-27.8c3.38-3.75,6.67-7.53,9.94-11.3,1.64-1.89,3.28-3.77,5-5.64.84-.94,1.69-1.86,2.59-2.78a12.61,12.61,0,0,1,1.57-1.39,5.56,5.56,0,0,1,1-.51c.31-.13.61-.26.92-.37a24.65,24.65,0,0,1,6.73-1.48,17.82,17.82,0,0,1,9.06,1.44,9.57,9.57,0,0,1,2.09,1.35,6.49,6.49,0,0,1,1.08,1.3,6.08,6.08,0,0,1,.55,1.15c.09.46-.52.15-1.73-.54a17.44,17.44,0,0,0-6-2,22.71,22.71,0,0,0-6.32.1,22.21,22.21,0,0,0-3.11.71,15.57,15.57,0,0,0-1.5.51,5.88,5.88,0,0,0-.73.3l-.36.16-.09,0,0,0h0c-.12-.26.25.57-.28-.57l.05.11.18.42c0,.1,0,0,0,.06h0l0,0a4.72,4.72,0,0,0-.43.37c-.18.15-.38.36-.57.54-.38.38-.76.8-1.15,1.2-.76.84-1.53,1.68-2.29,2.53l-4.59,5.2c-6.13,7-12.43,14.09-19,21-4.87,5.11-9.85,10.14-15.11,14.93-2.63,2.39-5.33,4.73-8.15,6.94a87.19,87.19,0,0,1-8.84,6.14Z"/><path class="cls-1" d="M399.69,205.73c-2.06,1.68-4.08,3.77-6.13,5.72l-6.14,5.93c-1.51,1.43-3,2.92-4.49,4.33-5.39,5-10.92,9.82-16.74,14.32-2.59,2-5.21,4-7.94,5.77a41.44,41.44,0,0,1-5.53,3.12,11.14,11.14,0,0,1-6.48,1.17c-1.46-.36-1-.74.09-1.13a9.68,9.68,0,0,0,.9-.42l.52-.24.56-.32a4.11,4.11,0,0,1,.6-.28,6.42,6.42,0,0,1,.64-.33l1.43-.65a39.63,39.63,0,0,0,5.3-2.87c1.74-1.09,3.46-2.23,5.15-3.46,3.38-2.42,6.68-5,10-7.69,3.94-3.18,7.72-6.88,11.49-10.45,4.15-3.93,8.22-7.94,12.35-11.94a30.15,30.15,0,0,1,8.82-6.28,19.85,19.85,0,0,1,8.1-1.77,24.45,24.45,0,0,1,8.1,1.39,23,23,0,0,1,10.39,7.13,22.15,22.15,0,0,1,1.63,2.3,17.3,17.3,0,0,1,1,2,9.61,9.61,0,0,1,.39,1.47,2.78,2.78,0,0,1-.15,1.77,4,4,0,0,1-.23.56c-.14.21-.39,0-.8-.49a8.3,8.3,0,0,1-.65-1c-.25-.39-.53-.83-.8-1.34a21.07,21.07,0,0,0-16.73-11.15,17.55,17.55,0,0,0-7.71.85,22.46,22.46,0,0,0-6.89,4Z"/><path class="cls-1" d="M465,119.34c-2.51,7.18-4.87,14.42-7.52,21.61-1,2.62-1.91,5.26-3.06,7.84-.51,1.14-1.05,2.27-1.66,3.39s-1.2,2.16-1.81,3.23c-1.23,2.13-2.49,4.25-3.79,6.34q-3.89,6.27-8.1,12.32c-2.5,3.58-5,7.15-7.69,10.59-1.72,2.19-3.49,4.36-5.39,6.43a24.78,24.78,0,0,1-6.59,5.4,3,3,0,0,1-1,.32c-.23,0-.33,0-.35-.09s.35-.46.84-1,1.15-1.34,1.89-2.32c.37-.49.76-1,1.2-1.59s.94-1.1,1.46-1.69a258.61,258.61,0,0,0,20-27.09c1.86-2.84,3.62-5.82,5.31-8.86.84-1.52,1.69-3.06,2.4-4.58s1.38-3.15,2-4.75c2.77-7.08,5.21-14.36,7.72-21.61,1.54-4.47,3.11-8.94,4.76-13.37,1.26-3.36,2.58-6.71,4.09-10,.74-1.65,1.56-3.26,2.45-4.85l.7-1.17.77-1.15c.26-.38.57-.73.85-1.1a7.73,7.73,0,0,1,.58-.61l.65-.63c.36-.27.76-.5,1.14-.75a6.13,6.13,0,0,1,1.16-.34,1,1,0,0,1,1,.56,2.93,2.93,0,0,1,.34,1.13,7.24,7.24,0,0,1,0,1.39c0,.25-.06.5-.11.74l-.11.63c-.13.7-.29,1.38-.45,2.05-.68,2.68-1.49,5.3-2.35,7.9-.38,1.15-.74,2.27-1.16,3.42-1.53,4.24-2.27,5.47-3.25,6.13a4.83,4.83,0,0,1-.65.43c-.64.25-.44-1.69.61-4.79,1.52-4.61,3.22-9.33,4.45-14.11.15-.59.28-1.18.39-1.76,0-.06,0,0,0-.07s-.06,0-.06,0a18.41,18.41,0,0,0-1.47,2c-.33.5-.63,1-.94,1.57l-.87,1.64c-1.66,3.33-3.1,6.85-4.45,10.41s-2.64,7.18-3.87,10.81Z"/><path class="cls-1" d="M479.13,108.57a68.22,68.22,0,0,0,4-8.24,21.12,21.12,0,0,0,.88-3.08c0-.22.08-.45.1-.65l0-.34a.57.57,0,0,0-.12-.43c-.19-.2-.44,0-.62.15l-.09.08-.18.19c-.11.11-.22.26-.34.39s-.45.55-.67.84c-.86,1.16-1.69,2.39-2.46,3.66-.92,1.51-1.75,3.09-2.54,4.66-1,2-1.92,4.11-3,6.09-.31.61-.61.42-.72-.28a6.41,6.41,0,0,1,.5-3.1c.9-2.16,1.87-4.28,3-6.37a36.74,36.74,0,0,1,3.76-6.07c.23-.29.46-.57.71-.85a9,9,0,0,1,.95-1l.33-.29.35-.23a2.48,2.48,0,0,1,.72-.34,1.93,1.93,0,0,1,1.48.23,2.62,2.62,0,0,1,.92,1.31,4.11,4.11,0,0,1,.18.86c0,.28,0,.67,0,.84a11.52,11.52,0,0,1-.41,2.35,49.58,49.58,0,0,1-3.77,8.86l-1,1.85-.5.92-.4.71-.11.18c0,.07,0,.13.06.19l.11.17.16.23.62.9.16.24a1.55,1.55,0,0,1,.18.32l.24.54.24.55.16.58a5.9,5.9,0,0,1,.25,1.18,8.78,8.78,0,0,1-.69,4.65,13.27,13.27,0,0,1-4.48,5.48,11.29,11.29,0,0,1-1.31.85c-1.75.92-2.46.85-3,.49a2.65,2.65,0,0,1-.35-.26c-.27-.36.36-.83,1.43-1.5a15.15,15.15,0,0,0,4.21-3.63,8.09,8.09,0,0,0,1.95-4.75,5.89,5.89,0,0,0-.61-2.8l-.15-.34c0-.07,0,0,0-.06l-.12-.17-.52-.75-.34-.49a8.63,8.63,0,0,1-.48-.75,1.14,1.14,0,0,1-.08-.4v-.37h0c-.06,0,.14,0-.14,0h0v0a3.28,3.28,0,0,1,.19-.78l1.21-2.24Z"/><path class="cls-1" d="M464.77,162.08c-.79,1.93-1.59,3.85-2.48,5.74-.44.94-.85,1.9-1.31,2.83l-1.4,2.8-1,2.06c-.35.67-.7,1.34-1.08,2-1.27,2.36-2.72,4.62-4.13,6.89-.7,1.14-1.5,2.22-2.24,3.33s-1.49,2.22-2.31,3.28c-1.43,1.89-2.77,3.86-4.26,5.69a44.6,44.6,0,0,1-6,6.8c-.72.62-.94.24-.78-.69a8.68,8.68,0,0,1,.52-1.73,7.85,7.85,0,0,1,1.25-2c3.82-4.69,7.44-9.52,10.89-14.57,1.06-1.49,2-3.14,2.9-4.75s1.74-3.35,2.64-5c1-1.82,1.83-3.69,2.76-5.53s1.72-3.75,2.52-5.66l1.44-3.52c.47-1.19.9-2.39,1.34-3.58,1.32-3.62,2.53-7.3,3.52-11,.76-2.88,1.3-5.75,1.84-8.64.12-.64.21-1.27.34-1.91.47-2.38.84-3.08,1.65-3.45a2.73,2.73,0,0,1,.54-.23c.55-.13.84.95.63,2.73A98.21,98.21,0,0,1,469,150.18c-.59,2-1.28,4-1.95,6s-1.4,4-2.21,5.92Z"/><path class="cls-1" d="M473.83,120.39a15.34,15.34,0,0,0,1.41-1.23,5.73,5.73,0,0,0,.59-.64.77.77,0,0,0,.17-.19c.08-.12,0-.23-.11-.29a.48.48,0,0,0-.32-.12s-.06,0-.17,0l-.27,0-.57.11a14.47,14.47,0,0,0-2.32.85c-.67.31-1.34.74-2,1.11-.42.24-.81.52-1.21.74l-1.18.65c-.22.13-.49-.09-.57-.55a1.88,1.88,0,0,1,.55-1.62,6.5,6.5,0,0,1,1.35-.88l1.29-.7a14.78,14.78,0,0,1,2.94-1.22l1-.26a3.81,3.81,0,0,1,.51-.12,3.62,3.62,0,0,1,.63-.1,3.53,3.53,0,0,1,1.49.15l.33.14.28.21a2,2,0,0,1,.47.5c.61.88,0,2.08-.57,2.84a12.08,12.08,0,0,1-1.48,1.61,24,24,0,0,1-2,1.67c-1,.79-2.14,1.48-3.22,2.18-.85.53-1.64,1.14-2.55,1.61-.21.09-.4.21-.62.28a1.36,1.36,0,0,1-.93.08.94.94,0,0,1-.51-.38,1.77,1.77,0,0,1-.17-.24c-.14-.26.1-.61.51-1.05.34-.24.67-.5,1-.76l1-.68q1.06-.69,2.13-1.44c1-.74,2.07-1.54,3.06-2.34Z"/><path class="cls-1" d="M460.37,148.53a27.52,27.52,0,0,0,3-.22c.37,0,.71-.17,1.08-.22a31.86,31.86,0,0,0,3.84-.78,9.23,9.23,0,0,0,1.61-.62,9.17,9.17,0,0,1,2-.93c.22-.06.46.37.54.89A1.41,1.41,0,0,1,472,148a11.88,11.88,0,0,1-4.58,1.63c-1,.12-1.9.48-2.87.66a28.74,28.74,0,0,1-3.21.41c-.67,0-1.33.08-2,.09a24.33,24.33,0,0,1-3.06-.16,9.74,9.74,0,0,1-2.48-.39,2.6,2.6,0,0,1-.56-.22c-.69-.4-.76-.79-.41-1.29.09-.12.16-.23.26-.34a1.27,1.27,0,0,1,1.07-.37c.48.1,1,.16,1.54.22s1.16.14,1.79.18a23.34,23.34,0,0,0,2.9,0Z"/><path class="cls-1" d="M387,232.43c-.33-.59-.61-1.21-.88-1.82s-.54-1.24-.79-1.86c-.19-.44-.42-.87-.57-1.34a27.2,27.2,0,0,1-1.17-5c0-.39-.1-.76-.17-1.14l-.11-1.16a5.21,5.21,0,0,1,.42-3c.14-.29.6-.05,1,.33a1.87,1.87,0,0,1,.77,1.26,25.44,25.44,0,0,0,.48,5.12,8.57,8.57,0,0,0,.47,1.6c.21.52.48,1,.69,1.55s.53,1.13.78,1.7l.88,1.66c.41.65.76,1.34,1.22,2,.34.47.66,1,1,1.41a8.83,8.83,0,0,0,1.15,1.29,4.73,4.73,0,0,0,1,.8,10.18,10.18,0,0,0,1.11.61,4.23,4.23,0,0,1,.48.23c.56.26.63.5.5,1.27,0,.17-.05.35-.09.52a1,1,0,0,1-1.29.74,9,9,0,0,1-4.74-3.19,13.42,13.42,0,0,1-1.22-1.69c-.39-.57-.74-1.16-1.07-1.76Z"/><path class="cls-1" d="M404.69,387.26c-1.7-5.9-3.52-11.77-5.05-17.73-.78-3-1.62-5.93-2.35-8.91l-2.17-9c-.56-2.17-1-4.38-1.5-6.56s-1-4.37-1.42-6.58c-1.47-7.77-2.8-15.58-3.66-23.45a179.22,179.22,0,0,1-1.09-23.73c0-1.75,0-3.47.13-5.29s.35-3.55.63-5.29c.58-3.49,1.34-6.93,2.21-10.31A159.08,159.08,0,0,1,399.16,245c1.23-2.53,1.52-1.94,1,.39a106.81,106.81,0,0,1-3.2,11.36c-1.44,4.29-2.76,8.62-3.93,13a118.73,118.73,0,0,0-2.83,13.16c-.14,1.1-.28,2.21-.35,3.3l-.08,1.63,0,1.71c0,2.3-.09,4.56-.07,6.83,0,4.53.2,9.07.58,13.62a252.24,252.24,0,0,0,5.3,33.06c1.25,6,2.78,12,4.24,18l2.41,8.93,1.21,4.46,1.31,4.44c1.08,3.64,2.13,7.29,3.24,10.92l3.47,10.85,1.32,4.11,1.39,4.09L417,417c1.82,5.46,3.86,10.83,5.82,16.19l2.33,6.21.7,1.87-.82,1.84a12.91,12.91,0,0,1-.81,1.51,12,12,0,0,1-.91,1.44,33.27,33.27,0,0,1-9.9,9.12,43.49,43.49,0,0,1-5.23,2.77,33,33,0,0,1-7.48,2.38,8.33,8.33,0,0,1-3.54,0A7.76,7.76,0,0,1,396,460c-.37-.21.16-.53,1.4-.9.62-.17,1.4-.46,2.35-.72s2-.62,3.24-1.08a44.32,44.32,0,0,0,10.28-5.19,29.93,29.93,0,0,0,8.21-8,20.53,20.53,0,0,0,1.36-2.47c.27-.59.22-.47.22-.5h0l-.11-.32-.27-.72-2.16-5.81-4.28-11.7q-3-8.79-6-17.59c-1.86-5.91-3.81-11.81-5.61-17.74Z"/><path class="cls-1" d="M368.59,409.26l-1.92-5.16c-.63-1.72-1.21-3.46-1.81-5.19l-1.8-5.2-1.69-5.23c-.82-2.54-1.76-5.05-2.51-7.61-2.77-9-5.23-18.09-7.63-27.18-1.07-4-2.15-8.09-3.22-12.09-.68-2.58-1.33-5.17-2-7.75s-1-5.24-1.41-7.89c-.23-1.64.2-1.51,1-.25a32.28,32.28,0,0,1,3,6.52c2.92,10.43,5.43,20.94,8.13,31.53.83,3.15,1.73,6.36,2.71,9.56s2,6.41,3,9.6c1.15,3.48,2.25,7,3.42,10.47s2.37,6.95,3.63,10.4c1.6,4.22,3.08,8.5,4.84,12.66,1.31,3.16,2.54,6.36,4,9.46s2.75,6.27,4.36,9.25c1.22,2.34,2.42,4.66,3.7,6.92s2.73,4.42,4,6.68c.56,1,1.2,1.92,1.83,2.88a39.17,39.17,0,0,1,2.33,3.89,6,6,0,0,1,.58,2.07,4.66,4.66,0,0,1,0,.71c0,.28-.36.1-.95-.44a17.69,17.69,0,0,1-2.41-2.72c-1.41-1.9-2.92-3.78-4.18-5.84s-2.55-4.14-3.82-6.25-2.3-4.36-3.45-6.56c-.56-1.11-1.16-2.2-1.69-3.33l-1.57-3.39-2.32-5c-.77-1.68-1.44-3.41-2.16-5.12l-2.13-5.14c-.69-1.72-1.33-3.45-2-5.18Z"/><path class="cls-1" d="M320.19,402.48c1.34-10.59,2.86-21.14,4.44-31.67.59-3.85,1.09-7.7,1.7-11.53,2.14-13.54,4.55-27,6.94-40.5,1-6,2.09-12,3.12-17.94,1.39-7.62,2.76-15.27,4.56-22.82.61-2.36.87-1.95.8.12a87.07,87.07,0,0,1-1,10.24l-1.83,11.7c-.63,3.91-1.31,7.8-2,11.7q-2,11.7-4.05,23.46c-1.64,9.38-3,19.21-4.46,28.84-1.58,10.6-3.11,21.21-4.47,31.84-.84,6.54-1.63,13.09-2.29,19.64-.5,5-1,9.94-1.3,14.91a147.8,147.8,0,0,0-.39,14.85c0,1,.11,1.9.18,2.84l0,.42c0,.13,0,.29.15.32s.38.18.88.41a48,48,0,0,0,5.3,1.82,58.94,58.94,0,0,0,11,2c.82.06,1.62.07,2.43.1s1.6,0,2.42,0,1.43-.12,2.06-.16a12.83,12.83,0,0,0,1.7-.22l1.41-.21,1.12-.24a13.77,13.77,0,0,1,2.92-.35,7.42,7.42,0,0,1,1,.07c.4.11.08.53-.92,1.22-.25.17-.54.35-.87.55s-.74.34-1.16.52l-1.4.54c-.52.15-1.07.28-1.66.42a35.78,35.78,0,0,1-10.74.57,51.81,51.81,0,0,1-10.69-2.08,50.17,50.17,0,0,1-5.25-1.89l-.36-.17a6.36,6.36,0,0,1-.59-.28l-1.15-.63-.29-.16c-.1-.05-.05-.2-.08-.29l-.07-.65-.1-1.3c-.06-.94-.17-1.87-.18-2.78l-.07-2.76,0-2.74c0-1.83.1-3.64.16-5.47.5-10.79,1.67-21.53,3-32.22Z"/><path class="cls-1" d="M358.35,417.49l-1.26,8.39c-.14,1-.24,2.06-.41,3.08l-1.8,10.79c-.27,1.6-.49,3.21-.73,4.81-.16,1-.28,2.06-.51,3.08a14.73,14.73,0,0,1-1.05,3c-.38.64-.58.33-.71-.28a9.27,9.27,0,0,1-.23-2.78c.6-4.06,1.18-8.23,1.93-12.4.46-2.49.65-5.13,1-7.7.37-2.83.79-5.65,1.19-8.48l.75-5.22c.4-2.63.8-5.28,1.19-7.9.31-2,.5-4.05.95-6.06.1-.44.18-.88.3-1.33s.23-.75.34-1a4.36,4.36,0,0,1,.37-.67,1.47,1.47,0,0,1,.72-.61,1.74,1.74,0,0,1,.32-.11c.29,0,.23.66.15,1.85-.26,1.74-.34,3.59-.53,5.45s-.38,3.75-.68,5.63q-.6,4.23-1.21,8.46Z"/><path class="cls-1" d="M372.81,291.87c-1.41,0-2.82,0-4.22-.17l-2.1-.17-2.09-.3-1.52-.19c-.5-.09-1-.18-1.5-.29a55.93,55.93,0,0,1-10.25-3.29c-1.45-.64-2.94-1.19-4.35-1.89a25.35,25.35,0,0,1-5.23-3.05c-.5-.38-.18-.72.52-.86a4.5,4.5,0,0,1,2.78.39c.87.47,1.8.82,2.7,1.23s1.77.9,2.69,1.25l2.73,1.18c.94.34,1.87.7,2.8,1.08a26.6,26.6,0,0,0,3.5,1c1.2.28,2.43.42,3.64.66s2.67.37,4,.54l2,.14a19.5,19.5,0,0,0,2,.09c.84,0,1.67,0,2.5,0l2.5-.14c1.26-.09,2.52-.26,3.77-.42a35.21,35.21,0,0,0,3.7-.78,25.34,25.34,0,0,0,2.76-.88c.91-.34,1.79-.69,2.67-1.08.39-.16.76-.33,1.16-.47,1.45-.61,2-.66,2.54-.29a2.81,2.81,0,0,1,.38.26c.34.32-.1.93-1.12,1.62a27.49,27.49,0,0,1-10.49,4c-1.4.3-2.82.43-4.24.61s-2.85.2-4.27.23Z"/><path class="cls-1" d="M332.05,454.52s-2.53,23.64,0,26.79,34.24,8.19,35.17,4.74c1.46-5.37-27-9.79-29.17-9.47s1.26-22.1,1.26-22.1Z"/><path class="cls-1" d="M406.59,458.31s7.56,23,12.3,20.79,22.42-20.43,21.47-24.58-14.21,5.54-20.52,16.32c0,0-6.72-8.07-7.47-16.32Z"/><path class="cls-1" d="M255.46,180.9a11.23,11.23,0,0,0,7.14-2.75,19.51,19.51,0,0,0,4.85-6.63,39.14,39.14,0,0,0,2.18-5.86,74.46,74.46,0,0,0,2.43-10.95c.58-3.72.95-7.49,1.19-11.26.2-3.35.29-6.73.32-10.07.05-4.29-.13-8.6.13-12.91.11-1.35.37-1.16.73,0a21.4,21.4,0,0,1,1,5.68c.2,4.4.33,8.81.27,13.24a124.17,124.17,0,0,1-1.08,13.29,85.77,85.77,0,0,1-3.36,16.1A31.46,31.46,0,0,1,267.1,177a15.82,15.82,0,0,1-7.44,5.78,17.41,17.41,0,0,1-11.41-.46,28.84,28.84,0,0,1-7.52-4.09,39.1,39.1,0,0,1-6.22-5.76,43,43,0,0,1-7.09-10.87c-.4-.87-.75-1.75-1.09-2.66-1.12-3.43-1-4.65-.49-5.5a3,3,0,0,1,.38-.57c.24-.21.53,0,.85.59a8.57,8.57,0,0,1,.49,1.1c.18.44.38,1,.57,1.55a42.22,42.22,0,0,0,12.42,18.47,30.09,30.09,0,0,0,7,4.52,17.86,17.86,0,0,0,7.87,1.73Z"/><path class="cls-1" d="M209.81,146.82l-.64-.92-.51-1a9.89,9.89,0,0,1-.83-2,14.21,14.21,0,0,1-.6-4.29,11.35,11.35,0,0,1,.42-3.2,7.67,7.67,0,0,1,3.66-4.54,8.07,8.07,0,0,1,5.57-.64,20.15,20.15,0,0,1,4.38,1.57,21.05,21.05,0,0,1,2.53,1.46,12.66,12.66,0,0,1,2.13,2c.38.47,0,.72-.65.75a5.68,5.68,0,0,1-2.59-.55,27.15,27.15,0,0,0-4.73-2.25,8.19,8.19,0,0,0-4.59-.4,3.75,3.75,0,0,0-2.16,1.53,7.06,7.06,0,0,0-1,2.72,10.71,10.71,0,0,0,1,6.74,10,10,0,0,0,2.75,3.33,13.66,13.66,0,0,0,6.26,2.51,22.71,22.71,0,0,0,5.34,0,11.31,11.31,0,0,1,1.17-.12,4.64,4.64,0,0,1,1.58.11,1.68,1.68,0,0,1,.77.66,3.07,3.07,0,0,1,.25.38c.1.21,0,.42-.26.66a2.68,2.68,0,0,1-1.23.67,18.06,18.06,0,0,1-5.24.61,20,20,0,0,1-5.56-.82A18,18,0,0,1,215,151a15.52,15.52,0,0,1-1.95-1.08,12.89,12.89,0,0,1-3.31-3.07Z"/><path class="cls-1" d="M234.57,109.06a27.2,27.2,0,0,1,10.83-4.64c.7-.14,1.41-.25,2.11-.38s1.41-.16,2.12-.23a28.75,28.75,0,0,1,14.52,3.12,57.94,57.94,0,0,1,5.61,3.33c1.14.76,2.29,1.52,3.37,2.34a33.92,33.92,0,0,1,3.11,2.62c.6.59.23.94-.69,1a6.39,6.39,0,0,1-3.7-1c-2.3-1.54-4.45-3.17-6.73-4.51a34.65,34.65,0,0,0-7.12-3.31,23.49,23.49,0,0,0-9.65-.66,27.79,27.79,0,0,0-5.26,1.1,25.74,25.74,0,0,0-2.54.93,24.42,24.42,0,0,0-2.39,1.22,20,20,0,0,0-5.13,4.14,24.92,24.92,0,0,0-4.86,8.84,31,31,0,0,0-1.09,7.72c0,.57,0,1.14,0,1.72a10.1,10.1,0,0,1-.29,2.29,2.19,2.19,0,0,1-.7,1,3,3,0,0,1-.36.31c-.2.1-.38-.07-.58-.47a5,5,0,0,1-.51-1.86,29.63,29.63,0,0,1,2.46-15.19,26.89,26.89,0,0,1,3.1-5.15,21.83,21.83,0,0,1,4.34-4.3Z"/><path class="cls-1" d="M266.24,67.44A28.3,28.3,0,0,1,275,69.57a38.5,38.5,0,0,1,12.44,8.75,26.39,26.39,0,0,1,5.75,9.81,19.28,19.28,0,0,1,.89,5.7,19,19,0,0,1-.86,5.64,27.36,27.36,0,0,1-1.82,4.65,28.47,28.47,0,0,1-2.55,4.25,22.76,22.76,0,0,1-4.35,4.64,13.17,13.17,0,0,1-5.76,2.75c-1.33.22-1.16-.12-.24-.77s2.4-1.88,4.07-3.27a25.75,25.75,0,0,0,6.91-9.41,23.88,23.88,0,0,0,1.68-5.6,18.92,18.92,0,0,0,0-5.72,17.65,17.65,0,0,0-2.64-6.63,32.8,32.8,0,0,0-18.9-13.51,26,26,0,0,0-10-.24,37.26,37.26,0,0,0-14.24,5.81,52.3,52.3,0,0,0-9,7.78c-.6.63-1.17,1.26-1.76,1.91-2.18,2.4-2.85,3.14-3.81,3.33a3.35,3.35,0,0,1-.63.15c-.58,0-.24-1.45,1.2-3.51a47.23,47.23,0,0,1,3.51-4.42,52.32,52.32,0,0,1,4.17-4,48.91,48.91,0,0,1,9.82-6.53,34.08,34.08,0,0,1,17.45-3.79Z"/><path class="cls-1" d="M198.1,93.82a20.73,20.73,0,0,0-4.6,10.63,20.23,20.23,0,0,0,.06,4.26,29.24,29.24,0,0,0,6.07,14.12,34.27,34.27,0,0,0,4.82,5.1,31.67,31.67,0,0,0,3.57,2.68c.62.39,1.23.77,1.85,1.14a6,6,0,0,0,1.83.77l.22,0,.13.05a.33.33,0,0,1,.18.19.37.37,0,0,1,0,.31,1.05,1.05,0,0,1-.47.39,5.59,5.59,0,0,1-4.57-.41,31.1,31.1,0,0,1-7.63-6.2,34,34,0,0,1-5.53-8.09,28.31,28.31,0,0,1-3.33-11.62,23.08,23.08,0,0,1,3.64-12.72,21.53,21.53,0,0,1,5.55-6,20.5,20.5,0,0,1,5.48-2.82,29.66,29.66,0,0,1,5.92-1.41,28.22,28.22,0,0,1,9.35.2c.69.12,1.35.3,2,.48a8.12,8.12,0,0,1,2.49,1.18,2.51,2.51,0,0,1,.77,1.16,2.35,2.35,0,0,1,.15.48c0,.22-.24.29-.72.29a7.5,7.5,0,0,1-2.05-.3,27.75,27.75,0,0,0-15.49-.08,25,25,0,0,0-2.79,1A17.49,17.49,0,0,0,202.44,90a18.09,18.09,0,0,0-4.29,3.86Z"/><path class="cls-1" d="M213.73,260.33a61.45,61.45,0,0,1-7.67,4.91,21.11,21.11,0,0,1-4.4,1.78c-.78.17-1.54.41-2.34.51l-1.21.14a6.16,6.16,0,0,1-1.22.06,12.11,12.11,0,0,1-2.47-.2c-.41-.08-.83-.12-1.23-.24l-1.2-.41a6,6,0,0,1-1.15-.53,10.8,10.8,0,0,1-1.1-.63,12.55,12.55,0,0,1-1.93-1.62,16.48,16.48,0,0,1-4.2-8.59,31.09,31.09,0,0,1,.57-13.42,48.57,48.57,0,0,1,4.28-10.89,72.93,72.93,0,0,1,6.37-9.69,109.76,109.76,0,0,1,7.63-8.62c2.7-2.73,5.53-5.3,8.43-7.79,1.29-1.1,2.59-2.19,3.92-3.25.64-.55,1.35-1,2.05-1.55l2.11-1.51,2.26-1.29,1.14-.64c.39-.18.79-.34,1.19-.51.8-.34,1.59-.7,2.4-1l2.49-.74a29.12,29.12,0,0,1,13.26-.42A25.57,25.57,0,0,1,248,196.3a20.69,20.69,0,0,1,5.53,3.79c.25.26.45.49.61.69a4.89,4.89,0,0,1,.33.6c.14.32.15.48.05.51s-.3-.07-.58-.25-.29-.21-.48-.33l-.67-.38a37.19,37.19,0,0,0-10.26-3.55,27.77,27.77,0,0,0-12.17-.11,30.4,30.4,0,0,0-11.22,5,63.49,63.49,0,0,0-5.08,3.92c-1.68,1.38-3.32,2.8-4.94,4.25a116,116,0,0,0-9.21,9.21,65.86,65.86,0,0,0-9.1,12.87A42.78,42.78,0,0,0,186,247.43a24.56,24.56,0,0,0,.36,8.43,13.22,13.22,0,0,0,3.94,7l.79.61a6.47,6.47,0,0,0,.85.49,9.23,9.23,0,0,0,1.84.75,8.1,8.1,0,0,0,1,.2,6.87,6.87,0,0,0,1,.14,12.76,12.76,0,0,0,2.05,0,11.17,11.17,0,0,0,2.06-.32,14.77,14.77,0,0,0,2-.55,25,25,0,0,0,3.87-1.8,77.87,77.87,0,0,0,8.9-6.14c2.86-2.24,5.63-4.61,8.35-7,8.23-7.37,16.11-15.22,23.68-23.18,3.38-3.55,6.59-7.11,9.9-10.66a4.26,4.26,0,0,1,.67-.54l.6-.41c.39-.26.79-.5,1.19-.74.8-.48,1.62-.92,2.44-1.34a41.59,41.59,0,0,1,5.12-2.21,30.57,30.57,0,0,1,5.59-1.44,15.13,15.13,0,0,1,7.81.63,6.07,6.07,0,0,1,2.84,2.14,5.46,5.46,0,0,1,.54.95c.16.9-2.08-1-6.75-1.28a24.45,24.45,0,0,0-9.46,1.75,42.44,42.44,0,0,0-4.59,2c-.75.39-1.49.8-2.22,1.22l-1.06.66-.49.34a1.75,1.75,0,0,0-.28.21l-8.87,9.48q-4.53,4.78-9.2,9.5c-4.2,4.24-8.49,8.41-12.91,12.46a177.6,177.6,0,0,1-13.82,11.62Z"/><path class="cls-1" d="M252.25,204.15a79.06,79.06,0,0,0-10.82,8.8c-1.24,1.18-2.41,2.45-3.64,3.67-4.35,4.29-8.78,8.57-13.51,12.52-2.11,1.74-4.24,3.5-6.51,5a25.65,25.65,0,0,1-4.66,2.65,9.84,9.84,0,0,1-5.53.83c-1.22-.33-.77-.8.14-1.19s2.21-1.08,3.85-1.82a42.94,42.94,0,0,0,8.52-5.34c2.74-2.1,5.4-4.39,8.06-6.71,3.19-2.79,6.17-6,9.25-9.14,1.67-1.71,3.47-3.39,5.26-5s3.62-3.2,5.58-4.66a33.27,33.27,0,0,1,7.87-4.5c.53-.22,1.09-.37,1.64-.56s1.13-.31,1.69-.42c1.12-.22,2.24-.43,3.38-.55a27.24,27.24,0,0,1,6.87,0,22.36,22.36,0,0,1,9.85,3.82,23.16,23.16,0,0,1,1.88,1.37c2.19,1.9,2.57,2.8,2.56,3.65a2.64,2.64,0,0,1,0,.58c-.16.53-1.23,0-2.85-1.22a31,31,0,0,0-7.5-4.54,20,20,0,0,0-8.63-1.28c-1.12,0-2.24.21-3.36.37l-1.68.32c-.55.13-1.07.25-1.6.41a24.3,24.3,0,0,0-6,2.9Z"/><path class="cls-1" d="M235.37,228.39a12.05,12.05,0,0,0,1.16,1.58c.16.18.38.3.54.49a25.49,25.49,0,0,0,1.87,1.88,4.51,4.51,0,0,0,1,.62,3.43,3.43,0,0,1,1.3.76c.23.27-.9,1.82-1.54,1.62a7.11,7.11,0,0,1-2.84-1.82,20.35,20.35,0,0,0-1.59-1.33,15.63,15.63,0,0,1-1.55-1.7c-.29-.37-.57-.76-.83-1.15a20.71,20.71,0,0,1-1.1-1.89,8.11,8.11,0,0,1-.87-1.53,2.43,2.43,0,0,1-.13-.38c-.06-.5.11-.69.73-.82l.42-.09a1.42,1.42,0,0,1,1.12.28,6.35,6.35,0,0,1,.85.9c.18.31.36.64.54,1a13.16,13.16,0,0,0,1,1.55Z"/><path class="cls-1" d="M269.59,271.18a16.29,16.29,0,0,0,3.24,2,6.73,6.73,0,0,0,1.57.47,1.9,1.9,0,0,0,1.11-.14,2.19,2.19,0,0,0,.84-1,4.75,4.75,0,0,0,.42-.81,7.71,7.71,0,0,0,.36-.88,20,20,0,0,0,.93-3.86,51.16,51.16,0,0,0,.38-6,110.21,110.21,0,0,0-2-21.38c-.59-3.14-1.4-6.25-2.28-9.28-.58-2-1.23-3.88-2-5.75a21,21,0,0,0-2.72-5.22c-.74-.74-.56-1.07.6-.61a9.48,9.48,0,0,1,3.66,4.37,56,56,0,0,1,2.35,6,59.35,59.35,0,0,1,1.73,6.13A102.18,102.18,0,0,1,280,247.77a104.89,104.89,0,0,1,.84,15.63,31.68,31.68,0,0,1-1.52,8.68l-.45,1.07c-.17.35-.37.69-.56,1A4.08,4.08,0,0,1,276.2,276a4.92,4.92,0,0,1-2.67.15,9.89,9.89,0,0,1-2.24-.79,22.55,22.55,0,0,1-4.52-3.09A28.4,28.4,0,0,1,263,268.4a75.4,75.4,0,0,1-8-13.86,83.57,83.57,0,0,1-4.33-11.47c-.24-.87-.51-1.72-.7-2.61-.7-3.31-.53-4.43,0-5.22a3.34,3.34,0,0,1,.37-.52c.45-.38,1,.91,1.64,3.22a89.17,89.17,0,0,0,7.84,20.42,70.54,70.54,0,0,0,4.36,7c.41.55.81,1.16,1.19,1.61s.86,1,1.33,1.46a28,28,0,0,0,3,2.65Z"/><path class="cls-1" d="M187.39,423.69c.46-13.29,1.6-26.5,2.92-39.68.49-4.8.94-9.62,1.5-14.41,2-16.91,4.38-33.76,7-50.57,1.16-7.46,2.36-15,3.68-22.34.83-4.74,1.69-9.48,2.66-14.21a125.26,125.26,0,0,1,3.52-14.07c.54-1.43.92-2,1-1.91a8.05,8.05,0,0,1-.34,2.06c-.47,2.61-1.29,7.15-2.25,12.52-1.85,9.62-3.27,19.33-4.76,29s-2.95,19.46-4.36,29.25c-1.68,11.71-3.05,24-4.32,36-.7,6.62-1.36,13.24-1.91,19.87s-1.06,13.27-1.4,19.91c-.21,4.08-.36,8.17-.42,12.26-.06,2,0,4.08,0,6.12s.07,4.08.23,6.1c.1,1.54.2,3.08.41,4.59l.09.81,0,.15c0,.05,0,.11.07.11l.29.1.83.2,1.12.21a87.45,87.45,0,0,0,9.17,1,72.27,72.27,0,0,0,9.19,0,25.69,25.69,0,0,0,4.44-.67c.17-.05.36-.08.53-.14l.39-.15.29-.11c.07,0,.08-.07.09-.13l0-.17c.1-.34.21-1.26.31-2,.57-4.71.86-9.46,1.19-14.17s.62-9.43,1-14.16c.18-2.08.31-4.13.56-6.22.89-7.78,1.65-10.26,2.65-11.76a7.15,7.15,0,0,1,.68-1c.65-.56.12,2.48-.37,8.13-.71,8.39-1.29,17.05-1.91,25.85-.33,4.41-.64,8.83-1.15,13.34l-.25,1.74c0,.08,0,.12,0,.24l-.09.38-.17.77c-.17.47,0,1.16-.75,1.22l-1.52.58a7,7,0,0,1-.91.26,18.12,18.12,0,0,1-1.8.38,45,45,0,0,1-7,.51,90.84,90.84,0,0,1-10.18-.51c-1.7-.16-3.38-.39-5.1-.69-.43-.09-.85-.14-1.3-.26l-.4-.09a5.66,5.66,0,0,1-.59-.15l-1.16-.39c-.19-.07-.4-.12-.57-.2l-.1-.6c-.07-.4-.12-.8-.17-1.2L187.8,444a154.44,154.44,0,0,1-.48-20.26Z"/><path class="cls-1" d="M259.34,388.73a409,409,0,0,0,10.55,46.83l.4,1.38.27.93.07.23,0,.12s0,.08,0,.09l-.41.26-1.53,1c-.31.21-.64.39-1,.59-1.28.79-2.61,1.49-3.95,2.16a35.64,35.64,0,0,1-8.59,3,25.06,25.06,0,0,1-8.11.25c-.67-.07-1.34-.25-2-.38-.33-.06-.65-.18-1-.27l-.64-.19c-.26-.08-.54-.15-.79-.24l-1.06-2.21c-.29-.6-.59-1.2-.82-1.8-2.06-4.81-3.75-9.69-5.49-14.57-3.39-9.77-6.49-19.64-9.41-29.55-2.56-8.81-5.12-17.67-7.31-26.51-1.43-5.68-2.76-11.39-3.91-17.15-.55-2.88-1-5.79-1.46-8.69a83.32,83.32,0,0,1-.75-8.8c-.12-3.69.38-3.16,1-.11.16.76.32,1.67.49,2.72s.46,2.23.72,3.52c.44,2.58,1.13,5.59,1.71,8.88,2.19,11.65,5.22,23.17,8.42,34.65s6.72,22.91,10.48,34.31c2.25,6.81,4.72,13.73,7.59,20.44.34.86.77,1.63,1.15,2.45l.2.42.05.1.11,0,1,.3a21.21,21.21,0,0,0,5.21.54,28.33,28.33,0,0,0,10.31-2.4,44.22,44.22,0,0,0,5.27-2.68c.43-.26.86-.5,1.27-.77l.29-.18c.05-.06.2-.07.17-.16l-.64-2.23c-1.15-3.89-2.19-7.82-3.2-11.74-2-7.86-3.75-15.79-5.29-23.75-1.9-9.8-3.46-19.66-4.78-29.54-2-15-3.38-30.08-4.46-45-.77-11.64-1.29-23.06-1.13-34.6.06-2.54.12-5,.26-7.59a97.7,97.7,0,0,1,1-10.06,16.79,16.79,0,0,1,1.15-4.38c.2-.44.41-1,.57-1.27.6-.82.28,3-.08,9.89a487,487,0,0,0,2,63.68c1.44,16.07,3.34,32.17,6,48.09Z"/><path class="cls-1" d="M234.33,289.05c-1.29.05-2.59,0-3.87,0s-2.58-.14-3.85-.34c-.93-.15-1.87-.22-2.79-.38l-2.4-.62-1.2-.32-1.16-.42-2.31-.86c-.75-.34-1.48-.71-2.22-1.06-1.34-.57-2.6-1.3-3.86-2l-1.23-.64c-.4-.24-.77-.52-1.14-.79a24.16,24.16,0,0,1-2.16-1.74c-.42-.39-.1-.67.55-.75a4.31,4.31,0,0,1,2.54.49c1.54.92,3.15,1.69,4.69,2.59l2.43,1.13c.41.19.8.41,1.22.58l1.25.5a14.67,14.67,0,0,0,3.13,1c1.09.22,2.17.51,3.27.63a34.07,34.07,0,0,0,3.64.42l1.83.12,1.83,0a19.16,19.16,0,0,0,2.27-.1c.75-.08,1.51-.12,2.25-.23a36.43,36.43,0,0,0,6.7-1.56,37.33,37.33,0,0,0,4.76-2.18c.34-.17.65-.39,1-.54,1.29-.59,1.73-.72,2.3-.39a2.7,2.7,0,0,1,.38.21c.35.27,0,.89-.84,1.65a19.58,19.58,0,0,1-4.33,2.7,32.1,32.1,0,0,1-4.95,1.7l-1.9.46-1.93.33c-1.28.26-2.6.3-3.89.45Z"/><path class="cls-1" d="M223.14,477.31c1.55.4,3.09.83,4.63,1.31l1.16.37,1.29.44a22.11,22.11,0,0,1,3.77,1.63,3.73,3.73,0,0,1,1.74,1.92,1.74,1.74,0,0,1,.11.6,1.38,1.38,0,0,1-.17.67,2.55,2.55,0,0,1-.74.86,7.12,7.12,0,0,1-3,1c-.66.09-1.33.18-2,.22-.33,0-.75.06-1,.06l-.61,0c-2.37.07-4.7.1-7,0-2.84-.16-5.66-.42-8.48-.81-1.41-.2-2.82-.43-4.23-.74-.71-.15-1.42-.33-2.14-.55-.37-.12-.73-.24-1.11-.4a6.34,6.34,0,0,1-.59-.29,5.43,5.43,0,0,1-.68-.46c-.16-.19-.32-.38-.46-.58s-.23-.46-.32-.64a8.27,8.27,0,0,1-.31-1.06,16.17,16.17,0,0,1-.35-2c-.16-1.3-.25-2.58-.31-3.85-.17-3.64-.22-7.28-.25-10.86a116.06,116.06,0,0,1,.42-13.83c.34-2.85,3,.92,2.83,6.17-.1,4.31-.19,8.62-.18,12.91,0,2.15,0,4.29.13,6.41.06,1.05.13,2.1.26,3.11.07.49.14,1,.24,1.42.06.17.11.43.16.54a.48.48,0,0,0,.07.16.22.22,0,0,0,.1.08,1.43,1.43,0,0,0,.31.17,8.68,8.68,0,0,0,.84.33,39.64,39.64,0,0,0,8.19,1.47c2.84.27,5.73.41,8.58.48,1.56,0,3.13,0,4.68,0l.53,0,.45,0a4.42,4.42,0,0,0,.93-.16c.14-.06.36-.11.36-.29s-.18-.24-.29-.33a5.38,5.38,0,0,0-.83-.42l-.46-.19-.7-.25c-.73-.25-1.48-.48-2.23-.71a107.24,107.24,0,0,0-11.3-2.69c-.68-.12-1.35-.23-2-.32l-1-.13-.5-.05-.27,0H211s0,.07,0-.12a8.79,8.79,0,0,0-1.41-.34.73.73,0,0,0-.3,0c-.07,0-.1-.16-.17-.25l-.48-.62c0-3.82-.09-7.63-.13-11.41-.05-4.58-.3-9-.18-13.66l0-.93a1.56,1.56,0,0,1,0-.31c0-.08.07-.2-.05-.26a3.14,3.14,0,0,0-.78-.05c-.54,0-1.09.08-1.49.09a3.17,3.17,0,0,1-1.84-.43,3.51,3.51,0,0,1-.64-.4c-.24-.25,0-.6.6-1a9.74,9.74,0,0,1,3.13-1,5.54,5.54,0,0,1,3.26.23,1.6,1.6,0,0,1,.85,1.09l.1.76c0,.31-.15.66-.23,1l0,.92v1.85c0,.85,0,1.69,0,2.55,0,1.71,0,3.44.07,5.19.05,3.49.1,7,.15,10.58l.06,3.58h0l.53.05.78.08c.52.06,1,.14,1.52.21,1,.16,2,.34,3,.53,2,.38,3.91.82,5.85,1.3Z"/><path class="cls-1" d="M274.57,466c1.09-.2,2.18-.37,3.28-.53l2.22-.28c1-.11,2-.19,2.89-.2a7.77,7.77,0,0,1,2.27.22,3.11,3.11,0,0,1,1.27.7,1.68,1.68,0,0,1,.44.59,1.3,1.3,0,0,1,.09.82,3.07,3.07,0,0,1-.59,1.3,10.55,10.55,0,0,1-2.75,2.16c-.61.36-1.21.71-1.86,1l-.91.47-.56.28c-2,1-4,1.92-6.07,2.72-1.82.7-3.66,1.35-5.54,1.93a36,36,0,0,1-5.84,1.36,12.26,12.26,0,0,1-1.64.08,4.71,4.71,0,0,1-1-.13,2.54,2.54,0,0,1-1-.5,3.22,3.22,0,0,1-.77-.8c-.15-.24-.32-.49-.45-.72-.25-.48-.47-.95-.67-1.41a54.89,54.89,0,0,1-1.89-5.59c-1-3.3-1.85-6.63-2.71-9.91a109.6,109.6,0,0,1-2.84-12.78c-.35-2.7,3.09.12,4.2,5,1,4.3,2,8.6,3.07,12.86.55,2.13,1.11,4.25,1.74,6.32.32,1,.66,2.06,1,3a12.63,12.63,0,0,0,.6,1.32c.28.48.23.43.38.54s0,0,.11,0l.34,0a6,6,0,0,0,.84,0,16,16,0,0,0,1.85-.28,34.69,34.69,0,0,0,3.83-1.05c2.55-.83,5.08-1.85,7.56-2.91,1.35-.57,2.69-1.17,4-1.82l.89-.43c.25-.13.51-.28.77-.44s.59-.34.69-.65c-.05-.15-.23-.17-.36-.2l-.44,0-.92,0-.49.05-.67.08a93.73,93.73,0,0,0-10.78,2.11c-.7.19-1.4.38-2.09.6l-.58.2-.38.14c-.13.05-.26.13-.38.06a1.36,1.36,0,0,0-.66,0,3.71,3.71,0,0,0-.53.08c-.12,0-.2.1-.27.08a1.44,1.44,0,0,0-.25-.24c-.21-.17-.36-.32-.61-.5-1-3.67-2-7.34-3.06-11-1.16-4.19-2.49-8.19-3.48-12.47a4.28,4.28,0,0,1-.12-.54,2.72,2.72,0,0,0-.08-.41,1.6,1.6,0,0,1,0-.29.18.18,0,0,0-.14-.22,1.09,1.09,0,0,0-.4,0l-.18,0h-.09l-.21,0c-.55.09-1,.18-1.41.22a3,3,0,0,1-1.78-.23,3.3,3.3,0,0,1-.65-.34c-.51-.42.6-1.5,3.26-2.33l.26-.07.4-.09c.28-.05.56-.1.83-.13a4,4,0,0,1,1.59.13c1.08.35,1.46,1.26,1.38,2.6.2.79.39,1.59.59,2.39s.41,1.54.62,2.31c.44,1.56.88,3.14,1.32,4.72l2.72,9.63.66,2.35.34,1.18c0,.07,0,0,0,0v0h0l.35-.12.74-.22c1-.29,1.93-.55,2.9-.78q2.89-.71,5.8-1.24Z"/><path class="cls-1" d="M123.38,179.06a7.13,7.13,0,0,1-1.54.51,10.92,10.92,0,0,1-1.6.37c-.55.05-1.12.12-1.67.14L117,180c-.54,0-1-.19-1.57-.28l-.78-.16-.75-.24c-.49-.16-1-.3-1.48-.49l-1.42-.62a21,21,0,0,1-2-1A13.69,13.69,0,0,1,107,176a33.14,33.14,0,0,1-10.18-11.6c-.6-1-1-2-1.53-3.06a28.61,28.61,0,0,1-1.3-3.15,25.31,25.31,0,0,1-1.28-4.16,14,14,0,0,1-.37-2.15c-.08-.72-.16-1.44-.22-2.15-.07-.9.29-.82.81-.14a11.7,11.7,0,0,1,1.67,3.46,46.31,46.31,0,0,0,7.22,15.13A26,26,0,0,0,109.6,175a22.94,22.94,0,0,0,2.52,1.28c.44.18.86.4,1.31.55l1.34.42a12.37,12.37,0,0,0,5.42.4,11.5,11.5,0,0,0,5.92-3.13l.47-.44.41-.51c.27-.35.56-.67.81-1a18,18,0,0,0,1.33-2.29,24.8,24.8,0,0,0,1.83-5,45.49,45.49,0,0,0,1.09-8.22c0-.61,0-1.21.1-1.83.13-2.28.43-3,1.11-3.44a2.39,2.39,0,0,1,.47-.29c.51-.18.87.79.91,2.5A42.28,42.28,0,0,1,132,169.69a20,20,0,0,1-3.28,5.51,15.51,15.51,0,0,1-2.41,2.26l-1.38.94-1.52.71Z"/><path class="cls-1" d="M134.57,125.3c0,1.07,0,2.14,0,3.2,0,.39,0,.78,0,1.17l-.3,4.07c0,.6,0,1.2,0,1.8a11,11,0,0,1-.13,2.29c-.05.24-.32.21-.59,0a1.58,1.58,0,0,1-.65-1c-.08-.78-.17-1.56-.18-2.34s.06-1.56.15-2.34a22.92,22.92,0,0,0,0-2.87l-.05-3.14c0-.64,0-1.29-.08-1.93-.07-1-.17-2-.31-2.91-.13-.74-.37-1.45-.56-2.17a3.59,3.59,0,0,1-.12-.47c-.08-.61,0-.83.34-1a1.35,1.35,0,0,1,.22-.14c.26-.12.55.07.8.49a8.21,8.21,0,0,1,.85,2,16.73,16.73,0,0,1,.49,2.12c.15,1.07.21,2.16.27,3.24Z"/><path class="cls-1" d="M78.47,143.89a11.76,11.76,0,0,1-2.25-3.07,8.15,8.15,0,0,1-.88-3.84,7.59,7.59,0,0,1,.53-2.81,8,8,0,0,1,.54-1.1,8.77,8.77,0,0,1,.66-1,6.52,6.52,0,0,1,.84-1,6.73,6.73,0,0,1,1-.77,9.36,9.36,0,0,1,4.6-1.18,10.14,10.14,0,0,1,4.07.71,6.38,6.38,0,0,1,3.78,3.66c.19.52-.25.6-.85.44a6.34,6.34,0,0,1-1.9-.91l-.39-.31-.43-.25a6.13,6.13,0,0,0-.9-.42,15.36,15.36,0,0,0-2-.51,8.77,8.77,0,0,0-4.16.3,3.61,3.61,0,0,0-1.06.57,2,2,0,0,0-.43.38,2.71,2.71,0,0,0-.38.51,7.36,7.36,0,0,0-1.1,2.41,6.12,6.12,0,0,0,1.4,5.41,12.75,12.75,0,0,0,2.86,2.6,18.23,18.23,0,0,0,5.46,2.48,18.73,18.73,0,0,0,4.56.49c.34,0,.66,0,1,0,1.23,0,1.62.13,2,.63a3.64,3.64,0,0,1,.24.35c.19.37-.29.85-1.31,1.14a14.46,14.46,0,0,1-4.7.28,18.7,18.7,0,0,1-4.67-1.22,19,19,0,0,1-6.2-3.9Z"/><path class="cls-1" d="M136.84,146.62a15,15,0,0,0,1.51-.24.31.31,0,0,0,.25-.34,6.16,6.16,0,0,0-.38-1.06,16,16,0,0,0-2.76-4.42,11,11,0,0,0-1.75-1.59c-.82-.59-1.69-1-2.49-1.61-.25-.19-.11-.54.3-.82a1.93,1.93,0,0,1,1.76-.22,13,13,0,0,1,5.22,4.47,24.64,24.64,0,0,1,2.29,3.63,5.26,5.26,0,0,1,.42,1.42,2.86,2.86,0,0,1-.26,1.71,2.93,2.93,0,0,1-1.2,1.19,5.23,5.23,0,0,1-1.29.49,19.74,19.74,0,0,1-2.79.45c-1.4.16-2.8.16-4.16.25-1.06.07-2.09.29-3.12.43-.22,0-.45.09-.67.11-.85,0-1.12-.18-1.32-.92,0-.17-.1-.34-.13-.51a1.14,1.14,0,0,1,.86-1.28,23,23,0,0,1,5.65-.78,32.86,32.86,0,0,0,4-.43Z"/><path class="cls-1" d="M152.58,103.56a22.31,22.31,0,0,1-7.72,8.13,11.4,11.4,0,0,1-1.22.71c-.41.21-.81.45-1.24.64a26.22,26.22,0,0,1-2.58,1,23.36,23.36,0,0,1-5.42,1.25,21.85,21.85,0,0,1-8.08-.74c-4.52-1.29-8.52-3.41-12.69-4.68a20.55,20.55,0,0,0-6.32-1.07,17.59,17.59,0,0,0-6.26,1.08,15.25,15.25,0,0,0-4.82,2.89A12.45,12.45,0,0,0,93,117.27a23.72,23.72,0,0,0-1.27,7.16,32.23,32.23,0,0,0,0,3.68,26.9,26.9,0,0,0,.39,3.62c.33,1.42-.18,1.52-1.19.37a9.74,9.74,0,0,1-1.45-2.67,12.29,12.29,0,0,1-.63-4.16,27.46,27.46,0,0,1,1.29-8.2,14.54,14.54,0,0,1,.88-2,15.78,15.78,0,0,1,1.23-1.86,17.72,17.72,0,0,1,3.07-3,19.6,19.6,0,0,1,16.14-3.29c6.45,1.45,12.17,4.94,18.2,5.87a16.38,16.38,0,0,0,7.36-.44,22.56,22.56,0,0,0,2.41-.78,20.55,20.55,0,0,0,8.19-5.63,20.34,20.34,0,0,0,4.82-11.24,20.65,20.65,0,0,0,.18-2.37,9,9,0,0,0-.13-2.27,18.55,18.55,0,0,0-1.43-4.46,20.24,20.24,0,0,0-5.67-7.4,13,13,0,0,0-3-1.83,11.34,11.34,0,0,0-3.34-.94,13.62,13.62,0,0,0-6.78,1,29.37,29.37,0,0,0-2.78,1.33c-.88.42-1.55.89-2.17,1.2a14.54,14.54,0,0,1-1.48.86,5,5,0,0,1-1.95.63,5.27,5.27,0,0,1-.71.07c-.29,0-.17-.38.26-1.05a9.49,9.49,0,0,1,.91-1.2c.42-.44.94-.9,1.53-1.42l1.42-1.07c.48-.36,1-.66,1.51-1a19.24,19.24,0,0,1,3.38-1.55,15.34,15.34,0,0,1,15,2.59,22.11,22.11,0,0,1,5.13,5.84,25,25,0,0,1,2.43,5.21,20.38,20.38,0,0,1,.7,2.87,13,13,0,0,1,.12,3,26.94,26.94,0,0,1-.82,5.63,25.93,25.93,0,0,1-2.08,5.34Z"/><path class="cls-1" d="M100.16,68.29a22.61,22.61,0,0,1,8.17-3.39,20.44,20.44,0,0,1,3.22-.44,20.19,20.19,0,0,1,10.82,2.88,19.76,19.76,0,0,1,4,3,11.07,11.07,0,0,1,2,2.61,5.85,5.85,0,0,1,.62,3.39c-.14.76-.65.5-1.2,0a11.42,11.42,0,0,1-1.8-1.81,13.58,13.58,0,0,0-3.56-3.76A20.47,20.47,0,0,0,117.57,68a14.74,14.74,0,0,0-6.93-.72,16.84,16.84,0,0,0-3.82.78,18,18,0,0,0-3.61,1.56,20.84,20.84,0,0,0-4,2.81,10.86,10.86,0,0,0-3.41,6.22A10.26,10.26,0,0,0,96.52,84c.13.38.31.72.47,1.08.59,1.35.75,1.8.36,2.47a3.78,3.78,0,0,1-.24.45c-.28.41-1.11.15-1.9-.92-2.46-3.12-2.9-8-1.22-11.94a13.35,13.35,0,0,1,2.6-4,11.1,11.1,0,0,1,.84-.84c.3-.26.59-.55.89-.76.58-.46,1.16-.92,1.79-1.33Z"/><path class="cls-1" d="M76.1,87.12a14.26,14.26,0,0,0-6,5.46,16.52,16.52,0,0,0-1.25,2.78,13.18,13.18,0,0,0-.89,5.24,17.58,17.58,0,0,0,1.12,5.4,15,15,0,0,0,2.52,4.28c.33.41.72.77,1.07,1.16l1.16,1.06c.4.33.78.71,1.2,1l.62.5.64.45c.53.4.28.83-.5,1a4.25,4.25,0,0,1-3.35-.63,16.75,16.75,0,0,1-4.92-5.61,17.37,17.37,0,0,1-2.23-7.1,23.42,23.42,0,0,1,.06-4.58,15.72,15.72,0,0,1,1.22-4.43,17.68,17.68,0,0,1,6.3-7.57,18.57,18.57,0,0,1,5.52-2.46,23,23,0,0,1,9-.46,25.21,25.21,0,0,1,6.73,1.7,14.78,14.78,0,0,1,1.39.67c1.65,1,2,1.69,1.79,2.5a3,3,0,0,1-.13.55c-.26.55-1.11.44-2.23-.07a33.64,33.64,0,0,0-5.18-1.86,22.88,22.88,0,0,0-5.54-.73,18.44,18.44,0,0,0-4.13.42,14.74,14.74,0,0,0-3.89,1.36Z"/><path class="cls-1" d="M60.72,129.67a14.85,14.85,0,0,1-2.15-6.52,17,17,0,0,1-.13-2.47,12.61,12.61,0,0,1,1.09-4.27,18.67,18.67,0,0,1,2.11-3.71,14,14,0,0,1,2.63-2.83,9,9,0,0,1,1.11-.69,4.85,4.85,0,0,1,1.29-.41l.69-.09c.23,0,.46,0,.69.06a3.34,3.34,0,0,1,1.27.42c.51.25.19.62-.33,1-.26.18-.56.31-.85.47a4.14,4.14,0,0,1-.85.37,6.7,6.7,0,0,0-3,2,18.34,18.34,0,0,0-2.49,3.52,10.4,10.4,0,0,0-1,2.5,9.48,9.48,0,0,0-.25,2.62,12.55,12.55,0,0,0,1.34,5.74,13.3,13.3,0,0,0,.94,1.57,14.51,14.51,0,0,0,1.21,1.39,13.09,13.09,0,0,0,4.7,3,14.17,14.17,0,0,0,4.25.78c.32,0,.63,0,.95,0,1.17,0,1.54.2,1.79.91a4.68,4.68,0,0,1,.18.48c.12.53-.4,1-1.37,1.06a15.19,15.19,0,0,1-8.76-2,15,15,0,0,1-5.12-4.82Z"/><path class="cls-1" d="M84.51,271.54a35.58,35.58,0,0,1-3.42,5.2,19.71,19.71,0,0,1-4.71,4.38,13.47,13.47,0,0,1-6.28,2.15,8.49,8.49,0,0,1-1.67,0l-.84,0-.86-.13a9.38,9.38,0,0,1-3.32-1.31,10.84,10.84,0,0,1-4-5.52,23.56,23.56,0,0,1-1.15-6.23,54,54,0,0,1,.87-12.16,111.86,111.86,0,0,1,4.37-17,138.48,138.48,0,0,1,13.15-27.85A82.59,82.59,0,0,1,86,200.7a43.22,43.22,0,0,1,5.79-5.26,28.24,28.24,0,0,1,3.33-2.15c1.18-.64,2.4-1.09,3.61-1.61a31.69,31.69,0,0,1,13.74-1.92c1.17.06,2.31.3,3.46.47a34.76,34.76,0,0,1,3.37.89,33.85,33.85,0,0,1,6.36,2.75,37.29,37.29,0,0,1,7.15,5.21,49.81,49.81,0,0,1,5.94,6.47,73.47,73.47,0,0,1,8.86,15c1.46,3.31.94,3-.74.45s-4.69-7.28-8.7-12.38a66,66,0,0,0-5.75-6.39,39.15,39.15,0,0,0-6.6-5.27,29.15,29.15,0,0,0-24.05-3.53l-2,.66c-.66.25-1.3.53-2,.8a21.3,21.3,0,0,0-3.61,2,39.79,39.79,0,0,0-6.39,5.62,70.35,70.35,0,0,0-5.51,6.72,109.68,109.68,0,0,0-10.64,18.51,142.55,142.55,0,0,0-7.53,20.29,95.9,95.9,0,0,0-2.59,11.53A47.4,47.4,0,0,0,61,271.21a17.22,17.22,0,0,0,1.37,5.41,6.5,6.5,0,0,0,6.13,4.09,7.82,7.82,0,0,0,1.37,0,7.7,7.7,0,0,0,1.35-.19,11.91,11.91,0,0,0,4.91-2.39,22.66,22.66,0,0,0,4.6-5.31,45.6,45.6,0,0,0,3.41-6.36,119,119,0,0,0,5-13.74c2.17-7.09,4-14.31,6.22-21.45.56-1.79,1.13-3.57,1.76-5.33a23.87,23.87,0,0,1,2.46-5.18c1-1.62,2.17-3.1,3.06-4.61.78-1.25.15-2.91-1-4.12a10.68,10.68,0,0,0-7.09-3.16,8,8,0,0,0-3.74.76,7.72,7.72,0,0,0-2.83,2.5,9.34,9.34,0,0,0-1,1.69,5.85,5.85,0,0,0-.56,1.78,18.47,18.47,0,0,0-.08,4c.08,1.39.22,2.81.26,4.28a19.34,19.34,0,0,1-.08,2.26c-.1.81-.28,1.5-.43,2.2-.58,2.47-1.24,4.85-2,7.27a60.77,60.77,0,0,1-3.92,9.23,15.51,15.51,0,0,1-2.57,3.68,10.19,10.19,0,0,1-1,.95c-.85.52,1.05-2.75,3.42-9.08.88-2.35,1.66-4.75,2.36-7.18.36-1.22.68-2.45,1-3.68l.43-1.86c.13-.62.26-1.26.32-1.76.2-2.27-.25-4.87-.34-7.61a13.87,13.87,0,0,1,.44-4.43,7.93,7.93,0,0,1,.44-1.12,10.46,10.46,0,0,1,.51-1,12.39,12.39,0,0,1,1.29-1.89,9.93,9.93,0,0,1,3.82-2.81,10.3,10.3,0,0,1,4.66-.74,13.19,13.19,0,0,1,8.29,3.67,8.9,8.9,0,0,1,1.52,2,6,6,0,0,1,.82,2.68,5.14,5.14,0,0,1-.18,1.55,3,3,0,0,1-.26.73,5.72,5.72,0,0,1-.32.62c-.38.65-.78,1.23-1.16,1.79a28.13,28.13,0,0,0-3.76,6.59C97.22,233.25,95.27,241,93,248.74s-4.57,15.5-8.47,22.82Z"/><path class="cls-1" d="M123.12,222.68l1.58,3.43c.56,1.17,1,2.4,1.47,3.6q1.33,3.64,2.39,7.33c1.43,4.9,2.63,9.81,4.13,14.58a87.85,87.85,0,0,0,3.88,10.18,68.8,68.8,0,0,0,4.61,8.37,70.18,70.18,0,0,0,5.62,7.76,15.69,15.69,0,0,0,3.4,3.05,4.14,4.14,0,0,0,1.85.62,2.12,2.12,0,0,0,1.55-.63,9.33,9.33,0,0,0,2.22-3.79,20.43,20.43,0,0,0,.91-4.58c.52-5.61-.29-11.38-1.31-17-.67-3.59-1.53-7.15-2.46-10.7s-1.84-7.1-2.84-10.62c-.57-2.22-.19-2,.89-.35a32.81,32.81,0,0,1,1.94,3.61c.36.77.72,1.61,1.09,2.51.17.46.35.92.54,1.4s.3,1,.45,1.51a103.66,103.66,0,0,1,4.21,22.44,35,35,0,0,1-1,11.72,12.1,12.1,0,0,1-3.19,5.46,4.37,4.37,0,0,1-1.71,1,4.27,4.27,0,0,1-2,.09,7.71,7.71,0,0,1-3-1.41,27,27,0,0,1-5-5.11c-1.47-1.84-2.8-3.78-4.1-5.72a65.85,65.85,0,0,1-6.62-12.53c-3.9-9.6-5.6-19.78-9.33-29.11-.55-1.44-1.21-2.83-1.84-4.24a43.58,43.58,0,0,1-1.85-4.46,26.61,26.61,0,0,1-1.18-4.73,14.26,14.26,0,0,1,.06-5,7.83,7.83,0,0,1,1.7-3.57,7.15,7.15,0,0,1,3.35-2.17,13.87,13.87,0,0,1,7.49.23,12.64,12.64,0,0,1,3.49,1.48,10.2,10.2,0,0,1,2.69,2.75,17.56,17.56,0,0,1,2.31,7c.27,1.85.4,3.7.57,5.48s.41,3.58.68,5.35a51.85,51.85,0,0,0,2.66,10.29,38.5,38.5,0,0,0,1.93,4.18,45.59,45.59,0,0,0,3.32,5.07,12.58,12.58,0,0,1,.9,1.38,4.85,4.85,0,0,1,.51,1.06,5.81,5.81,0,0,1,.3.93c0,.4-.46.27-1.42-.35a15.81,15.81,0,0,1-3.71-3.61,33.12,33.12,0,0,1-4.72-9.06,55.61,55.61,0,0,1-2.32-10c-.24-1.71-.42-3.42-.58-5.13s-.24-3.39-.47-5c-.44-3.18-1.46-6.27-3.65-7.89a6.79,6.79,0,0,0-1.3-.78,11.49,11.49,0,0,0-1.54-.53,16.2,16.2,0,0,0-3.38-.59c-2.22-.14-4.25.45-5.27,1.93s-1.26,3.78-.91,6a26.71,26.71,0,0,0,2.11,6.82Z"/><path class="cls-1" d="M73,366.84q2.13-10.77,4-21.62c.45-2.63.79-5.29,1.23-7.92,1.52-9.3,3-18.62,4.21-28,.57-4.14,1-8.32,1.43-12.45.54-5.29.92-10.67,1.58-15.88a4.46,4.46,0,0,1,.14-.79c.07-.15.09-.22.24-.27a.41.41,0,0,1,.26.21,3.05,3.05,0,0,1,.36.82,16,16,0,0,1,.63,3,19.61,19.61,0,0,1,.2,2c0,.7,0,1.45-.06,2.22-.8,10.92-2.24,21.74-4,32.6-1.07,6.5-1.92,13.29-3,19.94q-1.74,11-3.78,21.88c-.84,4.48-1.7,9-2.62,13.42-1.37,6.76-2.9,13.52-4.47,20.19-1.21,5.19-2.4,10.29-3.83,15.38-.33,1.12-.59,2.23-1,3.34-1.33,4.16-2.08,5.38-3.07,6a3.46,3.46,0,0,1-.67.39c-.68.17-.46-1.63.46-4.62,2.63-8.93,5-18.49,7.18-28.15,1.61-7.18,3.13-14.43,4.51-21.69Z"/><path class="cls-1" d="M103,400.26c-1,5.25-2,10.5-3.23,15.74-.44,1.91-.84,3.84-1.38,5.74-.49,1.68-1,3.35-1.69,5a22,22,0,0,1-1.15,2.48,8.71,8.71,0,0,1-1.82,2.4,4.3,4.3,0,0,1-1.54.8,4.48,4.48,0,0,1-.74.19l-.71.12a16.93,16.93,0,0,1-2.74.11,39.71,39.71,0,0,1-5.25-.5,67.57,67.57,0,0,1-9-2,32.14,32.14,0,0,1-5.55-2.22,13.29,13.29,0,0,1-2.56-1.68,8.91,8.91,0,0,1-2.07-2.4c-.31-.61-.29-.94-.13-1s.51.15,1,.42a18.91,18.91,0,0,0,1.85.91c.39.16.78.34,1.22.51.22.08.43.19.67.27l.68.34a35.27,35.27,0,0,0,5.23,2A56.29,56.29,0,0,0,79.49,429a54.62,54.62,0,0,0,5.67,1,23.48,23.48,0,0,0,5.53.13,3.25,3.25,0,0,0,1.17-.35,3.3,3.3,0,0,0,.87-.93,15.86,15.86,0,0,0,1.46-3,70.34,70.34,0,0,0,2-6.9c1.27-5.16,2.26-10.42,3.2-15.69.57-3.25,1.12-6.51,1.65-9.76.8-4.94,1.63-9.9,2.37-14.82.57-3.82,1-7.6,1.72-11.39.16-.84.3-1.66.51-2.5a13,13,0,0,1,1.26-3.22,3.41,3.41,0,0,1,1.25-1.16,2.69,2.69,0,0,1,.52-.23c.24,0,.25.26.21.82a17.85,17.85,0,0,1-.24,2.55c-.23,1.66-.47,3.34-.71,5s-.45,3.45-.68,5.2c-.53,3.5-1.07,7-1.6,10.6-.82,5.3-1.68,10.62-2.62,15.93Z"/><path class="cls-1" d="M113.27,415.79c-1.2-6.71-2.08-13.43-2.91-20.16-.3-2.45-.67-4.9-.93-7.35-1-8.66-1.74-17.32-2.54-26-.36-3.84-.81-7.69-1.29-11.48-.29-2.44-.61-4.88-.93-7.31s-.48-4.9-1-7.24c-.14-.72-.18-1,0-1.07s.44.23.82.82a16.14,16.14,0,0,1,1.25,2.51c.23.54.44,1.12.65,1.75.1.31.2.64.31,1s.14.68.21,1c.44,2.49.82,5,1.18,7.48s.6,5,.87,7.5q.8,7.51,1.39,15.08c.44,6,1.25,12.29,2,18.44.77,6.75,1.6,13.51,2.64,20.22.65,4.12,1.37,8.24,2.33,12.29a37.8,37.8,0,0,0,3,8.81,5.94,5.94,0,0,0,1.27,1.68,7,7,0,0,0,1.84,1.09,13.43,13.43,0,0,0,4.39.91,30.83,30.83,0,0,0,13.7-3c.94-.42,1.83-.91,2.73-1.41,1.66-.94,2.67-1.66,3.44-2.09a8.42,8.42,0,0,1,1-.47,4,4,0,0,1,.84-.17,5.58,5.58,0,0,1,.7-.1c.31,0,.24.38-.12,1.1a8.52,8.52,0,0,1-2.43,2.54,32.31,32.31,0,0,1-12.69,5.39,28.77,28.77,0,0,1-7.16.6,18,18,0,0,1-3.73-.56,10.79,10.79,0,0,1-3.66-1.71,6.59,6.59,0,0,1-1.22-1.15,9.77,9.77,0,0,1-.88-1.28A19.11,19.11,0,0,1,117.1,431a50.25,50.25,0,0,1-1.64-5.05c-.91-3.37-1.61-6.75-2.25-10.13Z"/><path class="cls-1" d="M137.54,364.46Q136,352.24,134.65,340c-.33-3-.69-6-1-8.94q-1.54-15.78-2.45-31.61c-.25-4.68-.53-9.39-.62-14.05-.13-6-.27-12.05,1.11-18,.48-1.85.71-1.48.76.12s.24,4.47.25,7.86l0,2.26c0,.75,0,1.51,0,2.27,0,1.51,0,3,.11,4.53.08,3,.27,6.06.38,9.1.26,6.08.62,12.17,1,18.29.43,7.33,1.32,14.92,2.11,22.39q1.32,12.32,2.87,24.62c.65,5,1.31,10.09,2,15.12,1.11,7.61,2.26,15.27,3.64,22.78,1.08,5.84,2.34,11.53,3.77,17.2.33,1.24.64,2.46,1,3.7,1.28,4.62,1.66,6,1.53,7.15a6.44,6.44,0,0,1,0,.81c-.07.34-.41.14-1.07-.62a13.46,13.46,0,0,1-1.84-3.76,134.47,134.47,0,0,1-4.09-15.74c-1.12-5.38-2.11-10.86-3-16.36-1.35-8.17-2.53-16.4-3.64-24.62Z"/><path class="cls-1" d="M106.31,283.51a37.25,37.25,0,0,0,7.88-.62c1-.18,1.86-.47,2.8-.71a30.6,30.6,0,0,0,9.3-4.1,20,20,0,0,0,3.39-3,23.15,23.15,0,0,0,3.14-4.69c.27-.51.72-.32,1,.35a3.58,3.58,0,0,1-.28,3,19,19,0,0,1-4.2,5,23.47,23.47,0,0,1-5.5,3.33,50.65,50.65,0,0,1-7.26,2.74,39.22,39.22,0,0,1-8.4,1.2,47.5,47.5,0,0,1-5.2-.1,55.53,55.53,0,0,1-7.73-1.22,56.73,56.73,0,0,1-5.81-1.46c-.42-.14-.84-.25-1.25-.41-1.54-.59-1.94-1-2-1.66a2.37,2.37,0,0,1,0-.44c0-.46.79-.56,1.93-.29,3.36.85,6.84,1.6,10.35,2.24a49.92,49.92,0,0,0,7.91.72Z"/><path class="cls-1" d="M74.79,425.31c-.53,1.21-13,29.27-11.27,33.9s19.89,23,22.66,21.47c4.08-2.31-9.82-17.14-15.71-22.73l10-29.59Z"/><path class="cls-1" d="M127.62,436.4c.1,1.32-.05,35.5,3.6,38.81s29.39,1.62,31.11-1c2.53-4-17.93-1.8-25.75-4l-2.5-33.72Z"/><path class="cls-1" d="M411.54,125.68a8.11,8.11,0,0,1,4.14-.34c1.8.43,2.08,2,1.69,3.6a10.46,10.46,0,0,1-.45,1.37c0,.06-.23.32-.21.36.07.19-.21-.42.09,0,0,0,.39,0,.35,0s-.23-.46-.23-.48c-.27-.8-.21-1.6.78-1.4,1.42.3,2-1.87.6-2.17a2.93,2.93,0,0,0-3.68,3.6c.31,1.85,2.22,3.73,3.83,1.82s2-6.09-.15-7.9c-2-1.66-5.08-1.36-7.36-.65-1.38.43-.79,2.6.6,2.17Z"/><path class="cls-1" d="M418.3,116.15c-4.39-2.46-10.06-3-14.22.2-1.38,1.07,0,3.46,1.39,2.37,3.41-2.63,7.82-2.22,11.44-.19a1.38,1.38,0,0,0,1.39-2.38Z"/><path class="cls-1" d="M405.66,151.72a7.3,7.3,0,0,0,3.42,4.2,8.31,8.31,0,0,0,5.08.26c1.58-.3.91-2.71-.67-2.41-2.61.48-4.36-.14-5.42-2.71-.61-1.47-3-.82-2.41.66Z"/><path class="cls-1" d="M254.45,139.46a7.7,7.7,0,0,1-1.68,3.09,4.21,4.21,0,0,1-1.8,1.12,4.38,4.38,0,0,1-2.09.07,6,6,0,0,1-2.37-1.09A9.78,9.78,0,0,1,244,139.5a17.58,17.58,0,0,1-1.36-3.53c-.3-1-.59-2.06-.89-3.08a35.83,35.83,0,0,1-.92-3.85c-.05-.4.4-.53,1-.37a2.55,2.55,0,0,1,1.65,1.38c.27.66.52,1.32.75,2s.35,1.31.52,2a35.36,35.36,0,0,0,1.09,3.65,6.7,6.7,0,0,0,2.75,3.22,2.09,2.09,0,0,0,1.66.33,2.43,2.43,0,0,0,1.27-1.37,9.93,9.93,0,0,0,.77-3,23.48,23.48,0,0,0,0-5c-.13-1.31-.48-2.58-.72-3.88,0-.29-.1-.58-.13-.87-.09-1.1.12-1.49.75-1.75.14-.06.27-.14.39-.18.4-.12.93.29,1.2,1,.18.56.38,1.13.55,1.71s.25,1.19.35,1.81a30.71,30.71,0,0,1,.4,3.8,20.17,20.17,0,0,1-.55,6.05Z"/><path class="cls-1" d="M259.11,133.21a45,45,0,0,1-1.43-7.58,23.39,23.39,0,0,1-.17-2.9,16.06,16.06,0,0,1,.94-5.07,11.48,11.48,0,0,1,2.8-4.44,8.61,8.61,0,0,1,4.16-2.29c.49-.12,1-.15,1.51-.23s1,0,1.52,0a7.23,7.23,0,0,1,1.44.36,10.11,10.11,0,0,1,1.32.65c.53.3.23.72-.4,1.07a5.33,5.33,0,0,1-1.13.46,3,3,0,0,1-1.3.22,6.28,6.28,0,0,0-4.13.8,8.43,8.43,0,0,0-3.06,3.31,12.06,12.06,0,0,0-1.08,6.1c0,.59.06,1.18.12,1.78s.13,1.21.23,1.82c.18,1.21.4,2.41.69,3.6a36,36,0,0,0,4.31,10.49,37.22,37.22,0,0,0,3.22,4.16c.25.3.53.56.77.86.87,1.16,1,1.62.76,2.25a3.48,3.48,0,0,1-.18.43c-.26.4-.95.19-1.8-.52a30.48,30.48,0,0,1-6.19-8.1,39.2,39.2,0,0,1-3-7.25Z"/><path class="cls-1" d="M272.62,136.19c-.08.46-.16.88-.3,1.4a7,7,0,0,1-.31.9c-.07.17-.13.36-.21.52l-.29.47a2.21,2.21,0,0,1-3.5.44,7.16,7.16,0,0,1-1.07-1.06,9.1,9.1,0,0,1-.6-.86,22.69,22.69,0,0,1-2.27-6.43l-.66-2.84a26,26,0,0,1-.73-3.59c0-.38.35-.44.82-.22a2.36,2.36,0,0,1,1.23,1.38l1,3.59c.29,1.17.58,2.34.88,3.53a11.13,11.13,0,0,0,2,3.81,4.26,4.26,0,0,0,.37.49c.11.1.26.24.43.21a.57.57,0,0,0,.36-.32c0-.08.07-.16.11-.25s.09-.31.13-.46a18.67,18.67,0,0,0,.43-3,36.55,36.55,0,0,0,.05-4.68,32.51,32.51,0,0,0-.54-3.56c0-.26-.12-.5-.16-.77-.11-1,0-1.27.62-1.57.14-.07.28-.15.42-.21.46-.19,1,.19,1.2.92a23.58,23.58,0,0,1,.95,6.8,35.7,35.7,0,0,1-.31,5.32Z"/><path class="cls-1" d="M253.17,114c.43.08.47.58.18,1.29a2.21,2.21,0,0,1-.72.76c-.26,0-.51.08-.72.09a8.12,8.12,0,0,0-2.1-.53,1.93,1.93,0,0,1-.36-.06,2.22,2.22,0,0,1-.37,0c-.25,0-.48-.1-.72-.13a11,11,0,0,0-3.07.1,2.84,2.84,0,0,1-.72.06,4.73,4.73,0,0,0-2.4.63c-.13.07-.27.1-.34.26a5.13,5.13,0,0,1-1.12.78c-.52.35-1.06.68-1.19.76a10.65,10.65,0,0,0-2,1.09c-.09.07-.13.18-.29.17-.37,0-.49.19-.66.36s-.45.48-.73.69a1.88,1.88,0,0,1-.57.22c-.19.06-.52-.24-.53-.31s-.28-.21-.45-.3a.86.86,0,0,1-.16-.1,5,5,0,0,1,.25-1.21,5.79,5.79,0,0,1,.54-1.29l.34-.46.8-.9c.61-.66,1.31-1.28,1.45-1.42a1.61,1.61,0,0,1,.54-.27,20.28,20.28,0,0,1,2.41-1.62,3.18,3.18,0,0,1,1.63-.46.69.69,0,0,0,.32-.08,6.15,6.15,0,0,1,1.4-.37,8.8,8.8,0,0,1,1.45-.15c.5,0,1-.13,1.49-.12a2.56,2.56,0,0,1,.27,0,1.4,1.4,0,0,0,.34.05,11.68,11.68,0,0,1,1.78.19c.59.17,1.19.24,1.78.42a6,6,0,0,1,.85.46,6.34,6.34,0,0,0,.82.58C252.79,113.22,253,113.92,253.17,114Z"/><path class="cls-1" d="M255.41,159.64c3.82,3.74,9.9,3.67,11.8-1.89.6-1.74-2.15-2.49-2.75-.76-1.2,3.51-4.85,2.78-7,.63-1.31-1.28-3.32.73-2,2Z"/><path class="cls-1" d="M117.19,125.87a5,5,0,0,0-.48-.74,2.32,2.32,0,0,0-.24-.28l-.09-.11c-.11-.1-.25-.16-.44.06a1.68,1.68,0,0,0-.33.48c-.11.17-.16.36-.27.54a13.25,13.25,0,0,0-1,5.05,12.67,12.67,0,0,0,.25,2.39c.18,1,.49,2,.69,2.9.06.3-.3.48-.8.4a1.87,1.87,0,0,1-1.41-1.08,16.53,16.53,0,0,1,.4-11.16l.35-.55c.14-.18.3-.36.45-.54a2.78,2.78,0,0,1,1.51-.86,2.44,2.44,0,0,1,1.64.38,4.15,4.15,0,0,1,1,1,13.48,13.48,0,0,1,1.47,2.5c.61,1.28,1.07,2.6,1.58,3.87.4,1,.9,1.92,1.34,2.89a3.65,3.65,0,0,1,.28.64c.26.82.08,1.16-.46,1.51-.12.08-.22.17-.32.23-.31.19-.93,0-1.33-.53a12,12,0,0,1-1.29-2.55c-.35-.88-.67-1.78-1-2.66a25.09,25.09,0,0,0-1.63-3.74Z"/><path class="cls-1" d="M126.63,124.62c-.06-.12-.12-.25-.19-.36l-.16-.26c-.09-.14-.06-.13-.11-.2a.23.23,0,0,0-.36,0s-.12.18-.19.31l-.21.49a13.24,13.24,0,0,0-.85,4.58,11.75,11.75,0,0,0,.2,2.14c.16.91.43,1.77.57,2.63,0,.27-.33.45-.81.38a1.71,1.71,0,0,1-1.34-1,11.63,11.63,0,0,1-.58-6.2,13.33,13.33,0,0,1,.9-3.91c.33-.64,1.07-1.77,2.07-1.94a2,2,0,0,1,1.44.28,4.28,4.28,0,0,1,1.06,1,13.29,13.29,0,0,1,1.25,2.33c.52,1.18.89,2.38,1.33,3.54.34.9.8,1.74,1.19,2.62a2.45,2.45,0,0,1,.24.58,1,1,0,0,1-.52,1.38c-.12.07-.22.16-.33.21a1.16,1.16,0,0,1-1.29-.47,9.27,9.27,0,0,1-1.16-2.31c-.31-.8-.58-1.61-.85-2.42a25.23,25.23,0,0,0-1.35-3.41Z"/><path class="cls-1" d="M116.49,114c-3.95-2.27-8.64.8-10.89,4.11-1.09,1.6,1.51,3.11,2.59,1.52,1.29-1.91,4.41-4.41,6.79-3a1.5,1.5,0,0,0,1.51-2.59Z"/><path class="cls-1" d="M122.92,116.34c1.48-2.08,5-.85,6.58.38s3-1.45,1.52-2.59c-3.15-2.38-8.22-2.78-10.69.69-1.12,1.58,1.48,3.08,2.59,1.52Z"/><path class="cls-1" d="M124.12,160.34c1.39,3.13,6.4,4.4,9.16,2.43,1.56-1.11.06-3.72-1.51-2.59a3.66,3.66,0,0,1-5.06-1.36c-.78-1.76-3.37-.24-2.59,1.52Z"/><path class="cls-1" d="M45.42,239.91a86.22,86.22,0,0,0,8.43-7.33c1-1,1.93-2,2.93-3a74.88,74.88,0,0,1,11.49-9.42A42.25,42.25,0,0,1,74.16,217a17,17,0,0,1,8.37-1.72c.9.07.78.58.1,1.23a7.43,7.43,0,0,1-3.27,1.88A34.45,34.45,0,0,0,72,221.24a52.58,52.58,0,0,0-6.86,4.43,76,76,0,0,0-7.55,7c-2.73,2.68-5.5,5.37-8.51,7.85a50,50,0,0,1-5.9,4.15,31,31,0,0,1-10.26,3.79,34.94,34.94,0,0,1-8.41.48c-.62-.07-1.23-.11-1.85-.19-2.29-.35-2.93-.84-3.23-1.61a3.32,3.32,0,0,1-.18-.53c-.07-.54.94-.84,2.52-.64.58.09,1.17.11,1.76.15s1.18.11,1.77.12c1.19,0,2.37.07,3.56,0a26.22,26.22,0,0,0,7-1.25,32.44,32.44,0,0,0,9.51-5.09Z"/><path class="cls-1" d="M114.17,216.35c-.78-.23-1.56-.42-2.34-.58-.29-.06-.58,0-.87-.08a20.74,20.74,0,0,0-3-.43,4.58,4.58,0,0,0-1.33.17,8.28,8.28,0,0,1-.81.24,1.23,1.23,0,0,1-.89-.09c-.21-.1-.34-.58-.35-1.18a4.89,4.89,0,0,1,.1-1,.86.86,0,0,1,.4-.6,7.14,7.14,0,0,1,4.07,0,19.35,19.35,0,0,0,2.39.24c.86.12,1.72.31,2.56.5l1.54.38c.78.18,1.54.44,2.32.58a16.11,16.11,0,0,0,1.85.13c.13,0,.28,0,.41,0,.5.08.59.36.49,1.07,0,.16,0,.32-.07.47a1.24,1.24,0,0,1-.82,1,8.46,8.46,0,0,1-3.26-.21c-.79-.15-1.57-.38-2.35-.53Z"/><path class="cls-1" d="M176,230.17a83.18,83.18,0,0,0,13.75-.49c1.67-.23,3.31-.56,5-.87a105.43,105.43,0,0,0,17.2-4.77c2.5-.91,5-2,7.4-3,1.56-.68,3.1-1.43,4.69-2.07a28.27,28.27,0,0,1,4.88-1.64c1.05-.25,1.13.34.56,1.32a9.66,9.66,0,0,1-1.31,1.71,7.93,7.93,0,0,1-2.23,1.54c-1.57.75-3.18,1.42-4.8,2.08s-3.25,1.31-4.89,1.93c-3.3,1.24-6.66,2.37-10.11,3.29-4.11,1.1-8.39,2.41-12.71,3.13a86.42,86.42,0,0,1-14.35,1.14c-3,0-5.91-.17-8.83-.48a113.17,113.17,0,0,1-13.16-2.16c-3.35-.69-6.69-1.44-9.94-2.44-.72-.21-1.43-.41-2.14-.66-2.64-.92-3.36-1.52-3.6-2.51a3.51,3.51,0,0,1-.16-.66c0-.65,1.25-.78,3.19-.24,2.88.8,5.79,1.65,8.75,2.39s6,1.36,9.06,1.91a98.09,98.09,0,0,0,13.78,1.5Z"/><path class="cls-1" d="M329.84,184.13c1.73-.12,3.45-.14,5.18-.2s3.46,0,5.16,0c3.41,0,6.83.13,10.25.29,2.5.1,5,.15,7.49.35A159.16,159.16,0,0,1,384,188.74c3.78,1,7.6,2,11.28,3.29l1.78.59,1.76.66c1.17.46,2.36.87,3.49,1.42s2.27,1.08,3.39,1.64,2.14,1.34,3.19,2c1.3.88.81,1.28-.67,1.28a18.41,18.41,0,0,1-2.86-.3,20.59,20.59,0,0,1-3.65-1.13,131.93,131.93,0,0,0-13.91-5.08c-4.76-1.41-9.62-2.57-14.55-3.57a137,137,0,0,0-18.38-2q-5.1-.3-10.21-.41c-3.42-.09-6.83-.12-10.21,0-4.18.1-8.36.43-12.51.94a140,140,0,0,0-18.67,3.54c-4.74,1.25-9.28,2.84-13.83,4.49l-3,1.12a27.91,27.91,0,0,1-4,1.25,3.46,3.46,0,0,1-2.07-.16,4.19,4.19,0,0,1-.73-.32c-.29-.23-.09-.6.51-1.08a12.79,12.79,0,0,1,3-1.67A141.55,141.55,0,0,1,309.16,187c3.39-.76,6.83-1.33,10.27-1.84s6.92-.85,10.4-1.06Z"/><path class="cls-1" d="M443.73,231.83c2.09,2.86,4.2,5.69,6.51,8.32.84,1,1.77,1.83,2.65,2.74a33.25,33.25,0,0,0,10.65,7.73,20.26,20.26,0,0,0,5.65,1.35c.62,0,1.24.07,1.86.06s1.24,0,1.86,0c1.24-.09,2.47-.15,3.76-.12.8,0,.82.57.26,1.31a6.71,6.71,0,0,1-1.29,1.23,4.81,4.81,0,0,1-2.08.73,22.16,22.16,0,0,1-8.52-.83,24.48,24.48,0,0,1-7.58-3.82,57.41,57.41,0,0,1-7.69-6.56,92.33,92.33,0,0,1-7-8.41c-1.35-1.77-2.65-3.57-4-5.35-2-2.7-3.94-5.44-6-8-1.64-2-3.4-3.8-5.19-5.58-.39-.4-.81-.75-1.2-1.15a8.74,8.74,0,0,1-1.4-1.69,1.7,1.7,0,0,1-.13-1.26,3.07,3.07,0,0,1,.15-.58c.24-.54,1.24-.33,2.48.65a66,66,0,0,1,9.8,10.58c2.23,2.85,4.32,5.79,6.48,8.64Z"/><path class="cls-1" d="M386,233.4c-.47-1-.9-2-1.27-3-.14-.37-.34-.72-.45-1.1a26.26,26.26,0,0,1-.92-4.09c-.11-.61-.22-1.21-.37-1.8a5.34,5.34,0,0,1-.23-2.35c0-.25.59-.25,1.13-.11s1.12.44,1.2.84a33.61,33.61,0,0,1,.8,4.34,10.32,10.32,0,0,0,.84,2.61c.35,1,.73,1.9,1.17,2.81.27.57.55,1.13.87,1.67a17.46,17.46,0,0,0,1.6,2.36A13.11,13.11,0,0,0,392,237l.38.29a1,1,0,0,1,.07,1.24,2.25,2.25,0,0,1-.16.31c-.21.31-.62.39-1.14.25a2.65,2.65,0,0,1-1-.48,8.4,8.4,0,0,1-.9-.67c-.28-.25-.55-.51-.82-.77s-.47-.58-.7-.88a24.58,24.58,0,0,1-1.75-2.86Z"/><path class="cls-1" d="M463.42,152.19c-.87.14-1.74.25-2.62.34-.31,0-.62.13-.94.15a27.71,27.71,0,0,1-3.41,0c-.5,0-1,0-1.51,0a3.91,3.91,0,0,1-1.93-.31c-.19-.1-.06-.56.18-1s.58-.9.89-.89.58,0,.86,0a5.06,5.06,0,0,1,.87,0c.59,0,1.18.11,1.8.2a8.85,8.85,0,0,0,2.23-.18c.83-.1,1.66-.21,2.48-.36.51-.09,1-.18,1.52-.3a19,19,0,0,0,2.27-.62,12.37,12.37,0,0,0,1.62-.83,3.72,3.72,0,0,1,.34-.19c.45-.19.66-.1,1,.36.07.11.14.21.2.32a.85.85,0,0,1-.15,1A8.35,8.35,0,0,1,466,151.6c-.84.26-1.7.46-2.57.64Z"/><path class="cls-1" d="M218.76,268.09a3.09,3.09,0,0,0-.52,2.88,4.11,4.11,0,0,0,2.27,2.16,1.41,1.41,0,0,0,1.88-.49,1.38,1.38,0,0,0-.49-1.88,4.19,4.19,0,0,1-.83-.46c-.15-.11-.17-.21-.25-.27s.05.11,0,0c.07.17,0,0,0,0s.18-.34.32-.53a1.39,1.39,0,0,0-.49-1.88,1.41,1.41,0,0,0-1.88.49Z"/><path class="cls-1" d="M242,252.92c2,1.26,1.23,3.43.13,5.07-1,1.47,1.4,2.85,2.38,1.39,2-3,2.17-6.75-1.13-8.83-1.5-1-2.88,1.43-1.38,2.37Z"/><path class="cls-1" d="M215,211.25a5.68,5.68,0,0,0-.82,2.59,1.39,1.39,0,0,0,1.37,1.38,1.41,1.41,0,0,0,1.38-1.38,2.79,2.79,0,0,1,.44-1.2,1.37,1.37,0,0,0-2.37-1.39Z"/><path class="cls-1" d="M191.6,249.15a4.26,4.26,0,0,0-.54,3.9,5.09,5.09,0,0,0,3.25,2.54c1.68.58,2.4-2.08.74-2.65-.5-.18-1.23-.44-1.46-.95s.13-1,.38-1.46a1.37,1.37,0,0,0-2.37-1.38Z"/><path class="cls-1" d="M265.94,230.89a7.92,7.92,0,0,0,1.45,3.86,1.42,1.42,0,0,0,1.88.49,1.38,1.38,0,0,0,.49-1.88,5.37,5.37,0,0,1-1.07-2.47,1.42,1.42,0,0,0-1.38-1.37c-.66,0-1.47.63-1.37,1.37Z"/><path class="cls-1" d="M129,197.51a36.83,36.83,0,0,1-9.34,4.39c-15.24,5.11-24-8.29-24-8.29S107,188,115.73,191.13,129,197.51,129,197.51Z"/><path class="cls-1" d="M110.34,226.62a4,4,0,0,0,2.51,5.7,1.38,1.38,0,0,0,1.55-.63c1.33-2,2-5.38-.75-6.55a2.84,2.84,0,0,0-2.71.21,2.77,2.77,0,0,0-1,3.13c.24.89.78,2.1,1.76,2.28a2,2,0,0,0,1.71-.48,1.71,1.71,0,0,0,.41-.76,1.44,1.44,0,0,0,0-.41c0-.07,0-.06,0,0a.74.74,0,0,1-.16.4c1.32-1.18-.63-3.12-2-1.94a1.8,1.8,0,0,0-.54.84c0,.12,0,.22-.06.34-.09.65,0-.21.24-.4l.6-.36h-.12l1.19.68a4.57,4.57,0,0,1-.4-.72c-.07-.15,0,.16,0-.08l-.09-.32c-.07-.24.09.14,0,0a.54.54,0,0,1,0-.22c-.14.45.23-.22,0,.16.13-.19,0,.05-.09.08.23-.16-.08,0-.09,0s.11-.06.14-.08-.31.16-.12.05a1.46,1.46,0,0,1,.2-.05c-.06,0-.37.06-.13,0,.39,0-.25-.06.08,0s-.2-.14.08,0-.11-.22.11.09,0,0,0-.06c0,.08.09.14.13.22s-.06-.21,0-.05.05.15.06.23c0,.33,0-.32,0,0a2.44,2.44,0,0,0,0,.27c0,.16.06-.21,0,.05l-.09.38a5.34,5.34,0,0,1-.75,1.46l1.55-.63a1.2,1.2,0,0,1-.87-1.66,1.42,1.42,0,0,0-.49-1.88,1.39,1.39,0,0,0-1.88.49Z"/><path class="cls-1" d="M111.41,240a4.71,4.71,0,0,0,2,4.45,1.34,1.34,0,0,0,1.39,0,5.12,5.12,0,0,0,.6-8,1.4,1.4,0,0,0-1.67-.21,4.62,4.62,0,0,0-2.36,4.55c.06,1.76,2.81,1.77,2.75,0,0-1,.08-1.69,1-2.18l-1.66-.21a2.32,2.32,0,0,1,0,3.62h1.39a2.06,2.06,0,0,1-.68-2.07c.15-1.77-2.61-1.76-2.75,0Z"/><path class="cls-1" d="M94.89,239.1c-4.53,1.88-9-1-11.37-4.73l-2.35,5.95s5,8.2,11.41,5.07Z"/><path class="cls-1" d="M143,240.23a12.57,12.57,0,0,1-13.23,6.58l-2.23-7.69c5,1.71,9.84-2.12,12.83-5.7Z"/><path class="cls-1" d="M470.51,57.56c1.33,3.34,2.64,6.68,3.77,10.08.76,2.28,4.39,1.3,3.62-1-1.14-3.41-2.44-6.75-3.77-10.09-.88-2.21-4.51-1.25-3.62,1Z"/><path class="cls-1" d="M498.69,65a79,79,0,0,1,3.74-7.12c1.23-2.09-2-4-3.24-1.9a79.22,79.22,0,0,0-3.74,7.13c-1,2.17,2.24,4.08,3.24,1.89Z"/><path class="cls-1" d="M281,39.53c.38,3.12.88,6.22,1.33,9.34.33,2.38,3.95,1.36,3.61-1-.39-2.78-.85-5.56-1.19-8.34-.3-2.37-4-2.4-3.75,0Z"/><path class="cls-1" d="M307.8,58.69a59.88,59.88,0,0,0,8.71-8.8C318,48,314.72,46.1,313.27,48a55.18,55.18,0,0,1-8.13,8c-1.82,1.59.84,4.23,2.66,2.65Z"/><path class="cls-1" d="M84.81,32.79a39.13,39.13,0,0,1-1.2,11.71c-.67,2.32,2.94,3.31,3.62,1a42.81,42.81,0,0,0,1.33-12.71c0-2.41-3.79-2.42-3.75,0Z"/><path class="cls-1" d="M48.3,46.75c3,3,5.91,6.16,8.84,9.26,1.66,1.76,4.31-.9,2.66-2.65C56.87,50.25,54,47.12,51,44.09c-1.7-1.71-4.36.95-2.65,2.66Z"/></g></svg>