<svg xmlns="http://www.w3.org/2000/svg" width="520" height="520" viewBox="0 0 520 520"><defs><style>.cls-1{fill:#231f20;}</style></defs><title>Notioly New upgrade</title><g id="n.124_International" data-name="n.124 International"><path class="cls-1" d="M414.24,139c0-4.14,4.15-7.87,7.83-9,1.68-.54,1-3.2-.73-2.66-4.85,1.55-9.85,6.29-9.85,11.7a1.38,1.38,0,0,0,2.75,0Z"/><path class="cls-1" d="M306.14,88.38c-.64,7.2-2.1,13.86-5.93,19.49A47.93,47.93,0,0,0,301.83,99C304.21,72,282.2,48.36,255.36,47.49a40.65,40.65,0,0,0-4.4.11,39.92,39.92,0,0,1,16.35-3.22A40.53,40.53,0,0,1,306.14,88.38Z"/><path class="cls-1" d="M264.09,197.25a19.14,19.14,0,0,0-2-2c-.27-.22-.57-.39-.84-.59a9.25,9.25,0,0,0-3.14-1.63,3.8,3.8,0,0,0-1.5,0,13.37,13.37,0,0,0-1.75.67c-.2.05-.45-.28-.52-.73a1.17,1.17,0,0,1,.55-1.27,5.23,5.23,0,0,1,2.68-.49,6.21,6.21,0,0,1,2.44.74c.87.47,1.77.86,2.57,1.4a19.4,19.4,0,0,1,2.42,2c.45.44.9.89,1.33,1.35.67.69,1.27,1.43,1.9,2.14.48.55,1.06,1,1.53,1.6a2.85,2.85,0,0,1,.31.38c.31.53.28.8,0,1.14a2.28,2.28,0,0,1-.22.22.81.81,0,0,1-1-.08,13.91,13.91,0,0,1-2.77-2.65c-.63-.72-1.25-1.46-1.92-2.14Z"/><path class="cls-1" d="M239.23,238.43a14.44,14.44,0,0,1,.27-2.53,5.76,5.76,0,0,1,1.3-2.68,4.53,4.53,0,0,1,1.92-1.3,7.37,7.37,0,0,1,1.76-.25l1.42,0,2.9-.16c.86-.06,1.72-.16,2.58-.26a9,9,0,0,1,3.39,0c.38.1.25.62-.05,1.14a2.1,2.1,0,0,1-1.36,1.11,47.76,47.76,0,0,1-6.56.52,16.52,16.52,0,0,0-2.08.14,4.09,4.09,0,0,0-1.48.41,2.09,2.09,0,0,0-.94,1.09,6.12,6.12,0,0,0-.42,1.89,26.64,26.64,0,0,0,0,2.7c0,1.4.08,2.85,0,4.32a8.52,8.52,0,0,1-.65,3.57,3.9,3.9,0,0,1-.45.76c-.73.86-1.21.87-1.7.47a2.22,2.22,0,0,1-.33-.28,1.19,1.19,0,0,1,0-1.32,6.49,6.49,0,0,0,.53-2.1,18.06,18.06,0,0,0,.09-2.61c0-1.4-.14-2.91-.15-4.53Z"/><path class="cls-1" d="M115.32,478.79c2.57.08,5.16,0,7.74,0,1,0,1.88-.16,2.83-.19,3.32-.14,6.65-.34,10-.7.73-.09,1.46-.19,2.14-.32a9.53,9.53,0,0,0,1.93-.7,26,26,0,0,0,4.42-3c.4-.36.66-.15.66.51a3.7,3.7,0,0,1-1.2,2.63,11.2,11.2,0,0,1-2.62,1.8,11,11,0,0,1-3.11,1.06,44.52,44.52,0,0,1-5.92.56c-2.35.08-4.77.43-7.17.56-2.63.16-5.28.2-7.92.23-1.62,0-3.25,0-4.88-.08-1.23,0-2.46-.1-3.69-.18s-2.46-.19-3.68-.28a39.85,39.85,0,0,1-5.66-.63c-.42-.08-.83-.13-1.24-.23-1.52-.47-2-.76-2.11-1.35a2,2,0,0,1-.1-.4c0-.41.7-.56,1.78-.43.8.13,1.63.17,2.46.22l1.25.1,1.26,0c1.67.2,3.39.31,5.11.45,2.57.15,5.16.3,7.76.29Z"/><path class="cls-1" d="M64.73,460.83c.89,1.66,1.81,3.3,2.79,4.9.36.58.79,1.12,1.15,1.69a55.93,55.93,0,0,0,4.1,5.91A12.14,12.14,0,0,0,75,475.45a5.24,5.24,0,0,0,2.77,1.35c.23,0,.65.29.52,1a1.52,1.52,0,0,1-.83,1,2.4,2.4,0,0,1-.81.25,2.26,2.26,0,0,1-.86-.05,8.31,8.31,0,0,1-2.42-1.1,16.51,16.51,0,0,1-1.72-1.6A22.8,22.8,0,0,1,69,472.72c-.92-1.5-2.08-2.88-3-4.38s-2-3.31-3-5l-1.71-3.13c-.86-1.58-1.65-3.2-2.51-4.76-.67-1.22-1.42-2.37-2.09-3.58a5.52,5.52,0,0,1-.42-.8c-.44-1.05-.4-1.47,0-1.92a2.83,2.83,0,0,1,.3-.3c.35-.27.89,0,1.41.64a28.31,28.31,0,0,1,2.13,3.06c.69,1.05,1.29,2.17,1.9,3.28.92,1.65,1.81,3.33,2.76,5Z"/><path class="cls-1" d="M302.65,468.13c.22-.13-11.79-6.52-22.11-16.42-6.17-5.91-12.87-11.86-16.94-16-1.31-1.33-26.1,22.19-61.75,36.71-2.38,1,3.3,2.53,4.87,2.62s30.32.31,55.85-1.29C282.92,472.49,301.41,468.93,302.65,468.13Z"/><path class="cls-1" d="M160.23,441.22c-4.56,2.74-12.53,9.19-21,13.85s-21.27,13-24.27,9.67c-1.57-1.75-10.74-9.23-14.37-20.76,0,0,41.67-1.19,48.89-3.17C153.8,439.61,161.84,440.25,160.23,441.22Z"/><path class="cls-1" d="M364,420.34s9.24,4.68,18.45,3c0,0-8.18,35.05-24.59,44.91S320.74,480,287.38,452.85l-24.81-23.1s-6.35,4.3-16.85,11.45c-19.82,13.48-54.11,34.24-62.28,35.3a97.5,97.5,0,0,1-20.1,0c-12.81-1.41-27.45-5.6-32.53-11.31,0,0,113.33-73,121.21-77.16s19.84-8.94,30.12-4,55.26,36.91,68.58,36.64,7.51,2.74,13.32-.28"/><path class="cls-1" d="M410.36,186.71c-.23.06-1.07,6.47-4.65,11.47s-1.27,16.39,11.66,11.8c0,0,5.39-8.33,12.55-3.88s1.5,13-2.53,16-14.93,5.91-20.19,3c0,0-5.91,14.44,7.14,18s22.82-15.68,25.83-22.32c0,0,21.54-4.11,34-20,0,0,13.5-18.75,4.84-36.68-18.11-37.49-60.21-30.21-69.25-21.37,1.18-.93-6.7-33.47-22.28-40.84-8.31-3.93-23.85-4.45-30.55,8-6.41,11.84-2.07,31.55,16.64,39.26a173.66,173.66,0,0,0,21,5.51c7.59,1.43,17.75,13.92,15.81,26.12S410.36,186.71,410.36,186.71Z"/><path class="cls-1" d="M409.71,193.36c-.64,1.82-1.33,3.48-1.91,5.14a25.15,25.15,0,0,0-1.31,4.86,6.8,6.8,0,0,0,.51,4.12,3.38,3.38,0,0,0,.24.41l.3.36a3.61,3.61,0,0,0,.73.67,4.79,4.79,0,0,0,.9.58,4.18,4.18,0,0,0,.95.42,5,5,0,0,0,2.93.05,13.92,13.92,0,0,0,3.19-1.41,52.86,52.86,0,0,1,6.37-3.44l.93-.34,1-.25a7.52,7.52,0,0,1,2.14-.21,7.7,7.7,0,0,1,4.12,1.36,7.11,7.11,0,0,1,2.64,3.46,8.57,8.57,0,0,1,.44,4.14,13.3,13.3,0,0,1-3.62,6.8c-.74.81-1.53,1.56-2.33,2.28-.41.35-.85.7-1.27,1s-.9.64-1.34,1a22.07,22.07,0,0,1-6,2.79,18.87,18.87,0,0,1-8.46.61,15.39,15.39,0,0,1-7.72-3.56c-1.34-1.18-.49-1.65,1.11-1.52a56.06,56.06,0,0,1,6.45,1.17,17,17,0,0,0,13.44-3c.49-.35.95-.72,1.43-1.11s.95-.84,1.38-1.27a16.3,16.3,0,0,0,2.32-2.74,7.92,7.92,0,0,0,1.24-2.93,5.53,5.53,0,0,0-.33-2.93,3.86,3.86,0,0,0-2.55-2.17,4.68,4.68,0,0,0-1.83-.13,9,9,0,0,0-2,.58,27.49,27.49,0,0,0-4.15,2.3A24.79,24.79,0,0,1,415,213a9.67,9.67,0,0,1-3.21.58,5.89,5.89,0,0,1-.84,0l-.84-.14a7.7,7.7,0,0,1-1.59-.48,10.32,10.32,0,0,1-2.76-1.71,9,9,0,0,1-1.14-1.24,12,12,0,0,1-.86-1.47,11.14,11.14,0,0,1-.46-6.21,31.77,31.77,0,0,1,1.56-5.52c.79-2.18,1.65-4.19,2.21-6.3a47.1,47.1,0,0,0,1.39-6.46,27.16,27.16,0,0,0-.3-9.81,32.36,32.36,0,0,0-3.85-9.07,23.39,23.39,0,0,0-11.09-9.6,9.34,9.34,0,0,0-1.51-.53c-.51-.14-1-.35-1.54-.45-1.94-.51-3.26-.65-4.17-1a3.34,3.34,0,0,1-1.9-1,5.05,5.05,0,0,1-.6-.66c-.21-.37.13-.68.94-.91a10.85,10.85,0,0,1,1.58-.27,17.21,17.21,0,0,1,2.21.06,23.12,23.12,0,0,1,7.35,2,25.1,25.1,0,0,1,6.53,4.36,33.77,33.77,0,0,1,8.45,13.14A28,28,0,0,1,412.1,182a42.21,42.21,0,0,1-.84,5.77c-.19.94-.42,1.87-.66,2.79s-.49,1.81-.81,2.79Z"/><path class="cls-1" d="M485.13,165.23a38.73,38.73,0,0,1,1.09,18.31,36.44,36.44,0,0,1-2.94,8.76,47.37,47.37,0,0,1-4.85,7.73,57.78,57.78,0,0,1-9.17,9.45,67.85,67.85,0,0,1-20,11.26,55.24,55.24,0,0,1-5.56,1.59l-.71.17-.56.14a2.61,2.61,0,0,0-.8.37,5.16,5.16,0,0,0-1.13,1.84,59.69,59.69,0,0,1-6.06,9.78,39,39,0,0,1-7.2,7.39,21.5,21.5,0,0,1-2.2,1.46l-1.15.67-1.23.54a18.29,18.29,0,0,1-2.56.85c-.44.1-.9.15-1.34.22a6.88,6.88,0,0,1-1.36.12,12.61,12.61,0,0,1-6.83-1.63,14.31,14.31,0,0,1-5-4.86,13.81,13.81,0,0,1-2.14-6.68,11.38,11.38,0,0,1,1.83-6.83c.88-1.19,1.48-1.5,1.7-1.25s.17,1.09-.07,2.18a18.51,18.51,0,0,0-.18,4.22,15.82,15.82,0,0,0,1.49,5.24,10.17,10.17,0,0,0,8.1,5.93c3.49.29,7.08-1.42,10.11-4a43.06,43.06,0,0,0,8-9.39c1.13-1.77,2.2-3.61,3.14-5.46a17.22,17.22,0,0,1,.9-1.65,5,5,0,0,1,1.9-1.75,7.92,7.92,0,0,1,2-.67l1.53-.35a51.88,51.88,0,0,0,14.28-5.82,64.45,64.45,0,0,0,12.51-9.43,46,46,0,0,0,10-13.68,32.67,32.67,0,0,0,2.66-16.52,42.39,42.39,0,0,0-7.4-19.54,46.59,46.59,0,0,0-11.12-11.51,40,40,0,0,0-14.34-6.86,50.94,50.94,0,0,0-24.28-.46,20.79,20.79,0,0,0-2.51.75c-.85.24-1.63.62-2.45.94a21.5,21.5,0,0,0-2,1l-.87.44c-.27.14-.51.31-.76.45q-.71.44-1.32.78c-.4.23-.72.49-1,.69a11.08,11.08,0,0,1-2.92,1.42,6.59,6.59,0,0,1-1.15.26c-.5,0-.37-.59.36-1.71.18-.28.4-.6.66-.94s.6-.64,1-1,.76-.74,1.21-1.13l1.54-1.11a31.57,31.57,0,0,1,11.07-4.54,46.76,46.76,0,0,1,12.05-.91,61.73,61.73,0,0,1,12,1.77,42.32,42.32,0,0,1,11.56,4.67,50.15,50.15,0,0,1,13.94,12.06,54,54,0,0,1,5.08,7.71,50.57,50.57,0,0,1,3.6,8.55Z"/><path class="cls-1" d="M336.57,230.59a33.14,33.14,0,0,1,.07-11.92,58.61,58.61,0,0,1,3.2-11.22,77.36,77.36,0,0,1,3.44-7.73A127.7,127.7,0,0,1,360,175.45c2.87-3.27,5.88-6.47,9-9.45,2-1.91,4.08-3.8,6.27-5.53a46.22,46.22,0,0,1,6.89-4.73c1.52-.87,1.6-.28.73,1a24.88,24.88,0,0,1-5.09,5.31,130.5,130.5,0,0,0-23,24.05,106.37,106.37,0,0,0-10.46,17.66,66.63,66.63,0,0,0-3.93,10.52,41.3,41.3,0,0,0-1.62,11,23.84,23.84,0,0,0,.93,6.68,17.9,17.9,0,0,0,3,5.93,16.72,16.72,0,0,0,3.69,3.48,16.22,16.22,0,0,0,2.16,1.39,17.07,17.07,0,0,0,2.31,1.14A30.24,30.24,0,0,0,361,246.19a42.66,42.66,0,0,0,8-.36,58.8,58.8,0,0,0,7.79-1.72c1.12-.33,2.2-.73,3.33-1.07,2.07-.69,3.41-1.23,4.41-1.48a6.81,6.81,0,0,1,2.16-.29,6.94,6.94,0,0,1,.73,0c.28.07.05.37-.6.91-.33.27-.76.6-1.29,1a18.61,18.61,0,0,1-1.95,1.07,42.24,42.24,0,0,1-7.07,2.68,51.21,51.21,0,0,1-7.58,1.58,39.74,39.74,0,0,1-15.9-1,26,26,0,0,1-10.69-6,20.87,20.87,0,0,1-5.83-10.93Z"/><path class="cls-1" d="M376.45,99.07a28.35,28.35,0,0,0-11-.15,19.76,19.76,0,0,0-5.1,1.82,13.87,13.87,0,0,0-6.41,6.41,21.59,21.59,0,0,0-1.34,3.74,27.36,27.36,0,0,0,.27,14.25,29.56,29.56,0,0,0,2.95,6.67,37.86,37.86,0,0,0,4.32,6,38.71,38.71,0,0,0,10.15,8.28,38.26,38.26,0,0,0,7.7,3.3l2,.54a16.08,16.08,0,0,0,2.05.49l2.07.43,2.1.27c1.74.24,1.52.59,0,.92-.39.09-.86.17-1.41.25a9.39,9.39,0,0,1-1.83.14,16.78,16.78,0,0,1-4.62-.43,39.42,39.42,0,0,1-4.39-1.29c-.72-.27-1.42-.58-2.12-.87l-1.06-.45-1-.53a36.4,36.4,0,0,1-7.62-5.08,39.69,39.69,0,0,1-6.22-6.73,37.2,37.2,0,0,1-4.56-8,32.45,32.45,0,0,1-2.41-11,25.36,25.36,0,0,1,1.86-11.25,17.27,17.27,0,0,1,3.53-5.36,15.59,15.59,0,0,1,2.48-2.06c.44-.29.87-.62,1.33-.88l1.41-.73a9.72,9.72,0,0,1,1.44-.64c.5-.18,1-.39,1.48-.56a27.56,27.56,0,0,1,3-.73l1.54-.26,1.56-.12c1-.12,2.06,0,3.1-.06a37.69,37.69,0,0,1,7.48,1.15,39.78,39.78,0,0,1,7.06,2.65,35.19,35.19,0,0,1,9.22,6.66,50.84,50.84,0,0,1,7.06,8.8,61.93,61.93,0,0,1,7.17,15.68c.19.61.36,1.21.52,1.82s.31,1.19.46,1.79a25.22,25.22,0,0,1,1,4.84,4.83,4.83,0,0,1-.26,2.33,3.54,3.54,0,0,1-.34.75c-.23.24-.51,0-.94-.78a29.34,29.34,0,0,1-1.55-3.58c-.43-1.21-.79-2.38-1.16-3.7l-.5-1.81-.55-1.79a68.82,68.82,0,0,0-2.73-7.05,51.48,51.48,0,0,0-8.17-12.83,35.49,35.49,0,0,0-8.55-7.24,33.89,33.89,0,0,0-10.47-4Z"/><path class="cls-1" d="M336.62,182a5.38,5.38,0,0,1-.26-1.88,4.48,4.48,0,0,1,.57-2,5.56,5.56,0,0,1,2.67-2.26,9.46,9.46,0,0,1,2-.73,19.54,19.54,0,0,1,6.77-.11c1,.13,1.94.24,2.91.39a6.77,6.77,0,0,1,3.54,1.36c.32.27,0,.76-.54,1.2a2.91,2.91,0,0,1-1.86.8c-1.07-.1-2.11-.4-3.21-.54s-2.19-.32-3.33-.46a10.06,10.06,0,0,0-4,.54,5.38,5.38,0,0,0-1.72.79,1.45,1.45,0,0,0-.64,1.14,3.76,3.76,0,0,0,.81,2.17,11.33,11.33,0,0,0,3.06,3,16.36,16.36,0,0,0,3,1.34l.68.21c.82.31,1,.55,1,1.29,0,.17,0,.34,0,.51,0,.54-.55.9-1.35.85a11.75,11.75,0,0,1-3.48-.81,14.67,14.67,0,0,1-3.11-1.94,11.33,11.33,0,0,1-3.66-4.77Z"/><path class="cls-1" d="M278.27,380.6a57,57,0,0,1,16.3,7.12c5,3,9.68,6.41,14.36,9.68,2.35,1.63,4.69,3.24,7.07,4.76s4.84,3,7.29,4.42a154.91,154.91,0,0,0,15,7.9,68.56,68.56,0,0,0,11.51,4.07,27,27,0,0,0,11.6.68,12.32,12.32,0,0,0,4.46-1.85l2.21-1.51c.73-.51,1.41-1.09,2.12-1.63a59.86,59.86,0,0,0,7.76-7.43,88.09,88.09,0,0,0,12-18c6.67-12.95,11-27.06,14.29-41.33,1.46-6.35,2.64-12.78,3.72-19.22.52-3.21,1.09-6.47,1.5-9.63a58.55,58.55,0,0,0,.39-9.53,36.52,36.52,0,0,0-2.33-11.8,24.92,24.92,0,0,0-6.57-9.74,21.47,21.47,0,0,0-10.37-5.12,17.85,17.85,0,0,0-11.32,1.37l-.73.37-.6.37c-.38.2-.68.39-.91.54q-.72.4-.87.18c-.17-.25.32-1.55,2.12-3.07a15.82,15.82,0,0,1,9.08-3.31A21.68,21.68,0,0,1,401,282.67a25.55,25.55,0,0,1,5.18,4.72,30.3,30.3,0,0,1,2.08,2.8,33.18,33.18,0,0,1,1.69,3,37.14,37.14,0,0,1,3.5,13.09,60,60,0,0,1-.37,13.27c-.16,1.08-.31,2.19-.48,3.24L412,326l-1.09,6.32c-3,16.85-7.1,33.74-14.05,49.7-4.17,9.5-9.38,18.92-16.48,27a63.08,63.08,0,0,1-12.08,10.79l-.84.58c-.28.19-.63.37-1,.55a15.16,15.16,0,0,1-2,.94,18.45,18.45,0,0,1-4.22,1,28.49,28.49,0,0,1-8.32-.38,70.39,70.39,0,0,1-16.72-5.71,174.42,174.42,0,0,1-15.37-8.29c-2.48-1.48-5-3-7.42-4.59s-4.82-3.26-7.18-4.92c-4.74-3.3-9.43-6.62-14.36-9.45-6-3.46-12.62-6.2-19.47-6.4a28.74,28.74,0,0,0-10.07,1.5,39.86,39.86,0,0,0-9.2,4.67c-18,11.87-36.18,23.52-54.17,35.06-14,8.95-27.63,17.85-41.55,26.57-3.07,1.92-6,3.83-9.17,5.72-11.56,7-15.47,8.93-18.47,9.52a14.56,14.56,0,0,1-2,.38c-1.47,0,3.09-3.1,11.47-8.31,12.43-7.74,25.14-15.84,38-24.05l39-25q14.53-9.39,29.05-18.9l3.61-2.38,1.81-1.2c.59-.39,1.21-.79,1.87-1.2a38.75,38.75,0,0,1,8.25-4,32.46,32.46,0,0,1,9.12-1.81,33.87,33.87,0,0,1,9.22.84Z"/><path class="cls-1" d="M358.5,367.4c1.16-2.51,2.34-5,3.57-7.49.44-.91.82-1.85,1.29-2.75,1.67-3.15,3.49-6.23,5.39-9.24.86-1.33,1.62-2.72,2.42-4.07.51-.87,1-1.77,1.51-2.62a14.88,14.88,0,0,1,1.87-2.4c.89-.89,2.73,2.35,1.51,4.21-2.17,3.35-4.33,6.68-6.64,10a51.3,51.3,0,0,0-3.47,6.57c-1.22,2.44-2.41,4.92-3.54,7.42-.7,1.54-1.4,3.09-2.06,4.65-1,2.36-2.06,4.73-3,7.12-.7,1.86-1.21,3.76-1.82,5.64-.13.41-.24.83-.39,1.24-.58,1.52-1,1.9-2,1.86a4.83,4.83,0,0,1-.67,0c-.72-.14-1-1-.75-2.14A72.91,72.91,0,0,1,355.21,375c1-2.56,2.12-5.12,3.21-7.67Z"/><path class="cls-1" d="M281.79,362.85a50.36,50.36,0,0,1,17,2.85l1.49.49c.49.17,1,.38,1.46.56,1,.39,1.95.74,2.89,1.19,3.34,1.62,6.39,3.35,9.54,5s6.31,3.3,9.49,4.9c2.82,1.43,5.71,2.76,8.57,4.06a99.79,99.79,0,0,1,10.91,5.3c2.16,1.31-2.17,2.91-6.36.94-7.44-3.51-14.84-7.14-22.11-11.25-2.17-1.22-4.43-2.39-6.7-3.55-1.15-.61-2.27-1.13-3.4-1.66l-1.69-.8-1.72-.7a49.61,49.61,0,0,0-15.74-3.84,21.06,21.06,0,0,0-2.51-.09c-.83,0-1.67,0-2.5,0l-2.5.23c-.42,0-.84.07-1.25.13l-1.24.23a47.09,47.09,0,0,0-14.37,5,59.22,59.22,0,0,0-9.52,6.81c-.66.56-1.28,1.13-1.95,1.67-2.37,2.18-3.28,2.68-4.43,2.46a3.48,3.48,0,0,1-.78-.15c-.73-.31-.13-1.63,1.56-3.41a46.79,46.79,0,0,1,4-3.79,51.84,51.84,0,0,1,4.49-3.46,24.29,24.29,0,0,1,2.41-1.57l2.49-1.49c.86-.46,1.75-.87,2.62-1.31a29.28,29.28,0,0,1,2.68-1.21,47.65,47.65,0,0,1,17.14-3.63Z"/><path class="cls-1" d="M307.9,378.85a24.18,24.18,0,0,0-2.62,3.46c-.28.45-.46,1-.72,1.42a21.89,21.89,0,0,0-2.25,5.16,7,7,0,0,0-.2,2.4c.09,1,.46,1.83.53,2.61,0,.25-.68.83-1.6,1a2.43,2.43,0,0,1-1.41-.16,1.57,1.57,0,0,1-.91-1,9.78,9.78,0,0,1-.09-4.26,13.07,13.07,0,0,1,1.28-3.65c.7-1.34,1.13-2.81,1.85-4.13a29,29,0,0,1,2.74-4.1c.62-.8,1.3-1.54,2-2.28a34.31,34.31,0,0,1,3.45-3,24.1,24.1,0,0,1,2.92-2.18,4.3,4.3,0,0,1,.73-.41c1-.42,1.38-.2,1.77.63a6,6,0,0,1,.26.58,1.48,1.48,0,0,1-.47,1.69c-1.42,1.1-2.82,2.06-4.23,3.29a24,24,0,0,0-2.95,3Z"/><path class="cls-1" d="M334.33,301.05a3.17,3.17,0,0,0,1.53.73,6.31,6.31,0,0,0,1.07.17l1.14.12c.76,0,1.53,0,2.3,0s1.54-.2,2.3-.39l1.65-.48,1.63-.62a52.66,52.66,0,0,0,10.9-6.24c1.54-1.1,3-2.28,4.53-3.44a33,33,0,0,1,6.05-4.17c.69-.34.83.11.55.86a5.5,5.5,0,0,1-.72,1.28,5.77,5.77,0,0,1-1.31,1.36c-3.89,2.91-7.71,6.13-12.09,8.74a49,49,0,0,1-8.35,4.3,19.09,19.09,0,0,1-10.5.84,5,5,0,0,1-3-2.07,5.16,5.16,0,0,1-.58-3.6,11.11,11.11,0,0,1,2.08-4.57c.94-1.29,1.94-2.51,2.94-3.72,1.54-1.87,2.95-3.76,4.25-5.68.3-.42.53-.86.82-1.28,1-1.6,1.4-2.07,2.14-2.16a3,3,0,0,1,.49-.06c.49,0,.51.95-.11,2.33a29,29,0,0,1-3.56,5.75c-1.38,1.79-2.84,3.48-4.14,5.22-.48.63-1,1.32-1.34,1.89a8.83,8.83,0,0,0-.89,1.9,4.52,4.52,0,0,0-.25,1.79,1.82,1.82,0,0,0,.55,1.19Z"/><path class="cls-1" d="M289.38,297.41c3.89-1.25,7.77-2.6,11.62-4,1.4-.53,2.77-1.15,4.17-1.68Q312.6,288.92,320,286c2.19-.86,4.34-1.83,6.5-2.77a76.88,76.88,0,0,1,8.3-3.38c.86-.27,1.17.57.81,1.71a5.49,5.49,0,0,1-3,3.17c-2.87,1.19-5.65,2.26-8.5,3.4s-5.75,2.19-8.68,3.18c-3.52,1.19-7,2.83-10.55,4.2-3.88,1.51-7.82,2.92-11.78,4.27-2.43.83-4.89,1.59-7.34,2.37-3.73,1.11-7.5,2.17-11.25,3.13-2.91.78-5.74,1.66-8.65,2.35-.64.16-1.26.36-1.91.48-2.42.44-3.24.33-3.89-.5a4.48,4.48,0,0,1-.43-.57c-.32-.68.57-1.42,2.27-1.9,5-1.44,10.35-2.72,15.67-4.21,3.94-1.08,7.88-2.3,11.8-3.6Z"/><path class="cls-1" d="M269.45,173.16a16.47,16.47,0,0,0-.5-2.81.65.65,0,0,0-.27-.47c-.1,0-.16.08-.21.15l-.07.13,0,.07a1,1,0,0,0-.07.17c-.32,1-.59,2-.83,3-.36,1.51-.59,3.06-.87,4.6s-.59,3.29-.84,4.94l-.36,2.49-.17,1.24L265,188.4a2,2,0,0,1-.18.55,4.67,4.67,0,0,1-.23.51,2,2,0,0,1-1.08.36c-.42,0-.87,0-1.3,0l-.85,0a12.73,12.73,0,0,0-3.06.28,4.18,4.18,0,0,0-2.56,1.55,4.56,4.56,0,0,0-.63,2.94,14.67,14.67,0,0,0,1.15,4.27l.89,2.12c.29.72.57,1.44.86,2.17.36.9-.12,1-1,.58a7.09,7.09,0,0,1-1.57-1.16,6.35,6.35,0,0,1-.84-.93,6.9,6.9,0,0,1-.67-1.2,19.1,19.1,0,0,1-1.5-5.11,9,9,0,0,1,.1-3,6.21,6.21,0,0,1,1.6-3,6.89,6.89,0,0,1,2.74-1.64,11.47,11.47,0,0,1,2.79-.52c.45,0,.89,0,1.33,0h1.16c.13,0,.42.15.42-.1h0l.05-.17.1-.71.21-1.48.39-3c.26-2,.55-4,.92-6,.21-1.09.44-2.18.7-3.27.13-.54.27-1.08.42-1.63l.24-.82.13-.41.18-.53a7,7,0,0,1,1.14-2.17,2.45,2.45,0,0,1,.83-.61,1.37,1.37,0,0,1,1.05,0,3.27,3.27,0,0,1,.95.52l.4.41.2.21.17.26a5.3,5.3,0,0,1,.57,1.08l.24.57a3.67,3.67,0,0,1,.13.46,20.12,20.12,0,0,1,.62,4.2c.09,1.39.1,2.76.08,4.12-.07,4.13-.46,8.23-.74,12.28-.23,3.14-.33,6.23-.46,9.33,0,.68,0,1.35-.06,2-.11,2.53-.33,3.32-1,3.86a2.69,2.69,0,0,1-.42.36c-.44.25-.93-.81-1-2.73a166.72,166.72,0,0,1,.61-17.35c.13-2.17.26-4.33.31-6.48a47.3,47.3,0,0,0-.17-6.33Z"/><path class="cls-1" d="M259.91,255.06c.66-7.45,1.45-14.89,2.3-22.31.31-2.71.53-5.43.86-8.12l.23-1.78c.1-.62.19-1.34.35-2a26,26,0,0,1,1.22-3.65c.95-2.3,2-4.41,2.67-6.53a8.37,8.37,0,0,0,0-6,7.09,7.09,0,0,0-.32-.69l-.43-.65a4.05,4.05,0,0,0-.44-.62c-.17-.2-.36-.42-.56-.63-.78-.84-1.62-1.67-2.48-2.46a31.83,31.83,0,0,0-3.79-3c-.33-.22-.66-.43-1-.61a4.28,4.28,0,0,0-.6-.28,1.33,1.33,0,0,0-.59-.09.56.56,0,0,0-.42.38,1.75,1.75,0,0,0-.1,1.26,11.87,11.87,0,0,0,1.6,3.24c.71,1.1,1.5,2.22,2.24,3.42a15.93,15.93,0,0,1,1.88,4,8.3,8.3,0,0,1,.3,2.41,6.14,6.14,0,0,1-.6,2.45,2,2,0,0,1-.69.88.44.44,0,0,1-.53,0c-.29-.22-.36-.83-.53-1.59a8.48,8.48,0,0,0-.88-2.4c-.44-.84-1.05-1.8-1.75-3-.88-1.56-2-3.13-3.1-5a13.75,13.75,0,0,1-1.42-3.27,6.73,6.73,0,0,1-.22-1.19,6.9,6.9,0,0,1,0-1.44,6,6,0,0,1,1-2.55,5.36,5.36,0,0,1,.83-.82,3.39,3.39,0,0,1,1.07-.47,4.52,4.52,0,0,1,2.38.13,7.7,7.7,0,0,1,1.2.48,5.38,5.38,0,0,1,.55.29,2.77,2.77,0,0,1,.34.2c.46.27.87.55,1.27.83a41,41,0,0,1,4.33,3.67c.67.65,1.32,1.31,2,2,.32.36.63.7,1,1.13s.61.91.91,1.37a10.34,10.34,0,0,1,1.4,6.29,20.09,20.09,0,0,1-1.43,5.37c-.65,1.65-1.36,3.21-2,4.75a17.61,17.61,0,0,0-1.24,4.54l-.57,5.11c-.86,7.45-1.68,14.91-2.37,22.37-.42,4.6-.81,9.2-1.12,13.8-.45,7-.84,14-.81,20.91a127.73,127.73,0,0,0,1.1,15.86c.17,1.14.36,2.25.57,3.38.35,2.11.65,3.45.75,4.43A4,4,0,0,1,264,311a5.77,5.77,0,0,1-.35.82c-.25.35-.68.17-1.24-.53a10.91,10.91,0,0,1-1.62-3.54,70.76,70.76,0,0,1-2.15-14.83c-.29-5-.26-10.13-.14-15.22.21-7.55.72-15.11,1.31-22.64Z"/><path class="cls-1" d="M248.93,199.75a22.17,22.17,0,0,0,.65,4.41c.13.54.35,1.06.49,1.61.25,1,.48,2,.72,3a11.39,11.39,0,0,0,.85,2.7,3.39,3.39,0,0,0,.27.44.89.89,0,0,0,.25.23.43.43,0,0,0,.57-.06,14.62,14.62,0,0,0,1-2.51c.14-.31.58-.2,1,.19a1.94,1.94,0,0,1,.55,1.8l-.16.49a2.55,2.55,0,0,1-.23.56,5.37,5.37,0,0,1-.36.66c-.18.21-.36.43-.56.63a2.31,2.31,0,0,1-3,0,5,5,0,0,1-1.47-2,9.58,9.58,0,0,1-.6-1.86c-.28-1.39-.9-2.7-1.31-4.11a30.14,30.14,0,0,1-1.07-4.78,18.54,18.54,0,0,1-.17-3.08,9.7,9.7,0,0,1,.36-2.41,4.5,4.5,0,0,1,1.41-2.27,3.18,3.18,0,0,1,1-.58,5.09,5.09,0,0,1,1.09-.26,9.2,9.2,0,0,1,1,0c.32,0,.66.09,1,.16s.55.13.82.23c1,.4,1.12.77.93,1.5a4.13,4.13,0,0,1-.15.5,1.16,1.16,0,0,1-1.4.63,8.48,8.48,0,0,0-2.28-.26c-.21.08-.33.09-.4.19s-.2.25-.35.49a6.81,6.81,0,0,0-.39,1.69,12.13,12.13,0,0,0,0,2.09Z"/><path class="cls-1" d="M242.8,205.39a20.28,20.28,0,0,0,.63,3.71c.12.45.32.87.46,1.32a18.09,18.09,0,0,0,1.87,4.52,2.7,2.7,0,0,0,.23.31,1,1,0,0,0,.22.19.36.36,0,0,0,.47,0,1.12,1.12,0,0,0,.23-.6l.12-.57c0-.21.1-.43.16-.65s.53-.26,1,0a1.58,1.58,0,0,1,.8,1.53,5.85,5.85,0,0,1-.37,1.27,3.2,3.2,0,0,1-.75,1,2,2,0,0,1-1.07.43,2.37,2.37,0,0,1-1.15-.19l-.62-.42a3.5,3.5,0,0,1-.55-.54c-.08-.08-.18-.22-.25-.25l-.14-.19a4.4,4.4,0,0,1-.26-.39,9.9,9.9,0,0,1-.82-1.58c-.48-1.18-1.14-2.29-1.55-3.5a24.91,24.91,0,0,1-1-4.08,19,19,0,0,1-.24-2.63,6.33,6.33,0,0,1,1.22-4.14,4.58,4.58,0,0,1,3.36-1.43,3.13,3.13,0,0,1,.75,0c.92.13,1.11.45,1,1.2a4.4,4.4,0,0,1,0,.51,1.19,1.19,0,0,1-1.08,1,5.67,5.67,0,0,0-1.75.33c-.29.18-.37.21-.58.72a7.5,7.5,0,0,0-.21,3.14Z"/><path class="cls-1" d="M239.77,330.15a31.58,31.58,0,0,1-3.48-7.75,56.22,56.22,0,0,1-1.84-8.09A112.06,112.06,0,0,1,233.23,298c0-4,0-7.93.2-11.87a379.4,379.4,0,0,1,4.95-41.39c.24-1.51.5-3,.7-4.53,0-.18,0-.36.06-.52v-.07h0s-.08,0,.22,0h.15c-.73,0-.2,0-.37,0h0v0l0-.26-.12-1.12c-.09-.76-.18-1.54-.23-2.36a10.67,10.67,0,0,1,0-1.27,5.71,5.71,0,0,1,.29-1.41,5,5,0,0,1,1.78-2.22,12,12,0,0,1,4.7-1.77,40.11,40.11,0,0,1,12.08,0,47.2,47.2,0,0,1,5.9,1.12c1,.26,1.93.53,2.89.85a26.48,26.48,0,0,1,2.79,1.22c1.16.56,1.57,1,1.41,1.22s-.83.16-1.88.1a81,81,0,0,1-10.22-.84q-2.87-.47-5.75-.65a38.16,38.16,0,0,0-5.65-.07,14.49,14.49,0,0,0-2.63.38,5.8,5.8,0,0,0-2.08.91,1.78,1.78,0,0,0-.77,1.23,14.28,14.28,0,0,0,.11,2.6l.15,1.51c0,.29.05.48.06.91s0,.41,0,.58l-.06.42c-.15,1-.32,2-.48,3l-1,5.93q-1,5.92-1.91,11.89a252.9,252.9,0,0,0-2.58,29.31,152.38,152.38,0,0,0,.31,16.14,65.91,65.91,0,0,0,2.9,15.72,24.32,24.32,0,0,0,4.6,8.39,13.21,13.21,0,0,0,3.66,2.88,17.15,17.15,0,0,0,4.5,1.44,29.65,29.65,0,0,0,7.36.29,60.44,60.44,0,0,0,7.42-1,111,111,0,0,0,14.44-4.1c7.34-2.57,14.32-5.69,21.35-8.85l4.63-2.08c5.84-2.53,7.91-3,9.43-2.76a8.94,8.94,0,0,1,1,.12c.35.12-.07.45-1.06,1.05a51.11,51.11,0,0,1-4.68,2.39c-12.46,5.78-25.78,12-40.17,15.77a76.06,76.06,0,0,1-8.16,1.66,44.8,44.8,0,0,1-8.46.51,21.86,21.86,0,0,1-8.6-2,15.72,15.72,0,0,1-3.75-2.63,20.93,20.93,0,0,1-2.83-3.45Z"/><path class="cls-1" d="M312.67,348.28q.85-2.55,1.55-5.13c.16-.63.21-1.28.37-1.9a48.36,48.36,0,0,0,1.27-6.71,15.8,15.8,0,0,0-.05-3c-.09-.63-.22-1.26-.29-1.88a5.74,5.74,0,0,1-.1-1.9c.05-.41.94-.55,1.85-.36s1.85.74,2,1.57a21.43,21.43,0,0,1-.53,8.56c-.45,1.65-.55,3.39-.93,5.06-.4,1.83-.94,3.62-1.46,5.4l-1,3.26c-.5,1.64-1.08,3.26-1.49,4.9a32.52,32.52,0,0,0-.6,3.86c0,.29,0,.57-.1.85-.18,1-.48,1.29-1.44,1.32-.21,0-.44,0-.65,0a1.34,1.34,0,0,1-1.22-1.45,25,25,0,0,1,1.21-7.26l1.56-5.23Z"/><path class="cls-1" d="M310.72,466.93a64.76,64.76,0,0,0,12.82,5.67,42.76,42.76,0,0,0,13.65,2,30.9,30.9,0,0,0,9.75-1.93,33.92,33.92,0,0,0,7.82-4.09,43.92,43.92,0,0,0,6.73-5.93,67.92,67.92,0,0,0,10.35-15,99.13,99.13,0,0,0,6.26-15.07c2.18-6.62,3.71-13.44,5.45-20.19.54-2.11,1.37-1.66,1.86.33a21.08,21.08,0,0,1-.41,9.54A130.18,130.18,0,0,1,378,443a79.53,79.53,0,0,1-11.44,18.89,57.76,57.76,0,0,1-9.85,9.38,36,36,0,0,1-12.57,5.85,38.79,38.79,0,0,1-15.1.25,57.73,57.73,0,0,1-14.2-4.56,95.85,95.85,0,0,1-15.64-9.27A216.77,216.77,0,0,1,278.24,446c-5.15-4.75-10.19-9.44-15.3-14l-3.4-3c-4.27-3.65-5.56-4.62-6.13-6A6.11,6.11,0,0,1,253,422c-.09-.45.43-.54,1.54-.24a12.48,12.48,0,0,1,1.94.84,23.41,23.41,0,0,1,2.41,1.56,174.39,174.39,0,0,1,14.44,12.57c4.69,4.4,9.41,8.85,14.29,13.12,7.24,6.32,14.82,12.32,23.13,17Z"/><path class="cls-1" d="M185.24,474.2q10.13-5.08,20.12-10.46c2.43-1.32,4.8-2.73,7.22-4.05,8.52-4.68,17-9.45,25.26-14.56,3.66-2.28,7.29-4.65,10.76-7.15,1.12-.79,2.24-1.58,3.34-2.4l3.29-2.48c2.23-1.6,4.36-3.31,6.64-4.84,1.41-1,1.81-.13,1.21,1.44a11.33,11.33,0,0,1-1.65,2.8,14.93,14.93,0,0,1-3.12,3.07,250,250,0,0,1-28.72,18.29c-6,3.29-12,7-18.1,10.34q-10,5.55-20.25,10.78l-6.3,3.2-1.73.87a4.31,4.31,0,0,1-1.17.16l-.9.05c-1.19.07-2.38.09-3.57.11a97,97,0,0,1-10.78-.47c-1.79-.13-3.57-.41-5.35-.61s-3.55-.52-5.3-.88a91.37,91.37,0,0,1-16-4.25,36.22,36.22,0,0,1-3.38-1.37c-1-.48-1.91-.86-2.59-1.26a18.19,18.19,0,0,1-1.64-1.11,3.55,3.55,0,0,1-1.4-1.84,3.45,3.45,0,0,1-.23-.86c0-.81,1.89-.43,4.76.94a107.11,107.11,0,0,0,13.68,4.77,109.11,109.11,0,0,0,14.67,2.74,103.87,103.87,0,0,0,11.17.73c1.86,0,3.74,0,5.58-.1l1.24-.08h0l.58-.29,2.54-1.3Z"/><path class="cls-1" d="M84.82,474.49l-.35.05a.53.53,0,0,0-.29.12c-.05.21.2.29.4.4l0,0,0,0,.11,0,.43.14,1,.31c.71.2,1.43.38,2.16.55,1.45.34,2.93.63,4.41.89,2.18.38,4.38.6,6.57.88a171.25,171.25,0,0,0,23.43,1.37,96.94,96.94,0,0,0,10.38-.73c2.19-.28,4.37-.65,6.54-1a6.59,6.59,0,0,0,2.36-1.18,5.15,5.15,0,0,0,1.68-1.8.81.81,0,0,1,.68-.56c.32,0,.88.17,1.15,1a4.11,4.11,0,0,1-.67,3.18,6.5,6.5,0,0,1-4.6,3.11l-.87.15-1.73.26c-1.15.17-2.31.32-3.46.44-2.32.25-4.63.41-6.95.51a122,122,0,0,1-13.92-.24c-5.54-.41-11.31-.64-17-1.4-3.1-.43-6.19-1-9.27-1.68-.77-.18-1.54-.39-2.31-.6l-1.21-.37-.8-.28q-.44-.15-.84-.33A6.94,6.94,0,0,1,79.37,476a2.51,2.51,0,0,1-.65-1.13,1.64,1.64,0,0,1,.28-1.34,3.51,3.51,0,0,1,1.27-1.08,5.08,5.08,0,0,1,.84-.44l1-.36c.66-.23,1.35-.36,2-.55l1.46-.27c1.94-.32,3.86-.51,5.78-.68,2.89-.24,5.8-.35,8.65-.55l8.61-.71c4.45-.34,8.83-.76,13.28-.9,1,0,1.93-.08,2.92-.07,3.67.05,4.84.41,5.54,1.39a3.6,3.6,0,0,1,.46.66c.28.75-1.22,1.19-3.83,1.28-7.76.28-15.93.78-24.15,1.55-3.12.33-6.27.45-9.3.67-1.52.11-3,.23-4.53.41-.74.08-1.49.17-2.21.29l-1.08.19-.86.17Z"/><path class="cls-1" d="M127.22,444.25l-13.9.29c-1.69,0-3.37.18-5,.23-1.49.05-3,.09-4.42.18h-.5l-.38,0c-.12,0-.32,0-.36.12l.08.36a2.83,2.83,0,0,0,.13.42l.08.23s0,.06,0,.12l.12.24c.31.63.59,1.27,1,1.89a43.2,43.2,0,0,0,2.27,3.7,62.27,62.27,0,0,0,4.83,6.13c1.12,1.23,2.28,2.44,3.44,3.62l3.36,3.54c.59.58.15,1.37-1.16,1.47a6.19,6.19,0,0,1-4.54-1.94,78.23,78.23,0,0,1-6.82-8.07c-1-1.43-2.05-2.88-3-4.43-.47-.75-.91-1.54-1.33-2.35-.21-.4-.42-.81-.6-1.24l-.29-.63-.14-.31a3.69,3.69,0,0,1-.16-.39c-.31-.94-.67-1.8-1-2.78l0-.87,0-.43a1.64,1.64,0,0,1,0-.22.71.71,0,0,1,.12-.2,3.09,3.09,0,0,1,1.58-.89,15.67,15.67,0,0,1,2.21-.35l1.54-.13c1.85-.15,3.68-.26,5.51-.32l14-.36c2.87-.08,5.74-.15,8.6-.28,4.33-.19,8.69-.37,13-.83a83.2,83.2,0,0,0,9.72-1.68c.69-.16,1.36-.36,2.05-.53,2.55-.65,3.23-.76,4.13-.14a7.36,7.36,0,0,1,.62.4c.62.47-.26,1.7-2.28,2.47a44.94,44.94,0,0,1-9.13,2.24c-3.1.49-6.25.8-9.4,1-4.69.37-9.39.54-14.07.73Z"/><path class="cls-1" d="M52,441.6a21.56,21.56,0,0,1-.27-5.42,12.27,12.27,0,0,1,.24-1.53,10.65,10.65,0,0,1,.63-1.89,4.55,4.55,0,0,1,.21-.51l.29-.42a3.14,3.14,0,0,1,.72-.69,3,3,0,0,1,1.89-.58,4.34,4.34,0,0,1,2,.58,6.51,6.51,0,0,1,.92.59c.31.21.48.37.73.57a21.11,21.11,0,0,1,1.87,1.94c1.13,1.3,2.13,2.64,3.11,4,1.41,2,2.82,3.91,4.11,5.93,2.2,3.42,4.29,6.89,6.42,10.31,1.07,1.71,2.14,3.41,3.25,5.06.56.82,1.13,1.62,1.72,2.37l.44.53c.15.17.32.34.38.4a.66.66,0,0,0,.61.26c.06,0,.49,0,.76,0,3.82,0,7.52.15,11.21.19l14.06,0c1.33-.05,1.41.84.22,1.87a10.47,10.47,0,0,1-6.35,1.93c-3.38,0-6.71-.11-10-.25l-5-.21-2.46-.09-1.2,0h-.6l-.82,0h-.65s-.09,0-.13,0a2,2,0,0,1-.26-.05,3.45,3.45,0,0,1-.94-.47,7.38,7.38,0,0,1-.81-.67c-.24-.24-.35-.37-.51-.55a24.72,24.72,0,0,1-1.51-2c-.9-1.31-1.72-2.62-2.52-3.94-3-5-6.35-10.11-9.64-15a72.44,72.44,0,0,0-5.74-7.71c-.26-.28-.52-.56-.79-.82l-.4-.38-.3-.26a1.26,1.26,0,0,0-.91-.39c-.37.09-.47.49-.57.81a3.13,3.13,0,0,0-.09.4l-.09.48c-.05.34-.07.72-.1,1.08a21.35,21.35,0,0,0,.63,5.67,46.35,46.35,0,0,0,1.71,5.65,107.17,107.17,0,0,0,7.86,16.34c1.19,2,2.44,4,3.73,5.92L71,473.48a22.37,22.37,0,0,0,2,2.66,8.78,8.78,0,0,0,2,1.65,2.33,2.33,0,0,0,1.27.4,1.48,1.48,0,0,1,.21,0,.76.76,0,0,1,.2-.06A1.73,1.73,0,0,0,77,478a5.88,5.88,0,0,1,1.66-.5c.27,0,.58-.11.83-.1.41,0,.53.44.3,1.25a2.1,2.1,0,0,1-.3.66,3.75,3.75,0,0,1-.54.77,4.5,4.5,0,0,1-.94.79c-.21.12-.43.23-.66.34a4.34,4.34,0,0,1-.79.2,4,4,0,0,1-1.24.05,7.13,7.13,0,0,1-1.15-.26,7.73,7.73,0,0,1-1.85-1,13.33,13.33,0,0,1-2.66-2.58c-.38-.46-.72-.95-1.06-1.44l-.88-1.32-1.8-2.73c-2.38-3.68-4.65-7.53-6.73-11.5-1.54-3-3-6-4.24-9.13a52.19,52.19,0,0,1-3-9.88Z"/><path class="cls-1" d="M378.69,425c-1.31-.09-2.6-.25-3.87-.45-.47-.07-.94,0-1.4-.14-1.62-.34-3.2-.82-4.77-1.31-.7-.23-1.41-.37-2.13-.53a4.63,4.63,0,0,1-2.73-1.15c-.24-.27.31-1,.92-1.65s1.25-1.27,1.65-1.13a47.15,47.15,0,0,1,4.72,1.81,11.8,11.8,0,0,0,3.19.63c1.18.19,2.37.36,3.56.45.73.06,1.47.09,2.2.08a12.42,12.42,0,0,0,3.25-.38,5.61,5.61,0,0,0,2-1.2,3.34,3.34,0,0,1,.32-.33c.4-.35.61-.27,1.38.28l.53.36a1.19,1.19,0,0,1,.36,1.72,6.09,6.09,0,0,1-2.39,1.94,10.94,10.94,0,0,1-2.76.84,22.37,22.37,0,0,1-4.06.25Z"/><path class="cls-1" d="M239.93,472.47c5.39,0,10.78-.06,16.17-.23,2-.05,3.92-.24,5.88-.31,6.93-.25,13.84-.6,20.75-1.25,3.06-.29,6.12-.72,9.12-1.21,1.93-.32,3.86-.71,5.78-1.06a25.7,25.7,0,0,1,3-.43,9.72,9.72,0,0,1,3.34.26c.76.23,1,.68.81,1a4.19,4.19,0,0,1-1.19.88,12.62,12.62,0,0,1-4.65,2,167,167,0,0,1-24.18,2.54c-4.87.15-9.9.68-14.86.88-5.46.22-10.93.34-16.39.41l-10.07,0c-5.09,0-10.2-.12-15.25-.18-3.93,0-7.78.08-11.68,0-.85,0-1.7,0-2.56,0-3.2-.14-4.21-.48-4.82-1.44a4,4,0,0,1-.4-.67c-.24-.73,1.1-1.23,3.42-1.27,6.9-.14,14.15,0,21.44,0,5.42.05,10.87.07,16.3,0Z"/><path class="cls-1" d="M389.22,475.25l-9.57-.23c-1.16,0-2.33.06-3.49,0l-12.3-.32c-1.82,0-3.65,0-5.46.07a42.7,42.7,0,0,1-7-.09c-.73-.1-.63-.76,0-1.43a4.64,4.64,0,0,1,3-1.45c2.36-.13,4.72-.28,7.08-.27s4.75.07,7.13.22c2.86.17,5.83-.06,8.75-.09l9.63,0H393c3,0,6,0,9-.07,1.16,0,2.3-.14,3.44-.25s2.28-.29,3.42-.27c.51,0,1,0,1.51,0,1.88.07,2.48.34,2.89,1.14a3.33,3.33,0,0,1,.26.54c.18.6-.59,1.13-2,1.43l-3.08.65a27.55,27.55,0,0,1-3.15.32c-2.11.12-4.27.18-6.42.21-3.2.07-6.42,0-9.64,0Z"/><path class="cls-1" d="M60.78,481l-6.4-.23c-.78,0-1.56.06-2.34,0-2.75-.12-5.51-.32-8.26-.52-1.22-.08-2.46-.09-3.68-.11a14.27,14.27,0,0,1-4.72-.48c-.49-.16-.3-.89.2-1.59a2.82,2.82,0,0,1,2.13-1.32c3,.08,6.15.12,9.31.47a44.9,44.9,0,0,0,5.8,0H63.2c2,0,4,0,6-.07,1.55-.07,3.07-.36,4.64-.51.35,0,.69-.09,1-.1,1.31,0,1.75.33,1.9,1.4,0,.25.08.5.09.74a1.64,1.64,0,0,1-1.41,1.64,45.11,45.11,0,0,1-8.27.74c-2.12,0-4.27,0-6.41,0Z"/><path class="cls-1" d="M301.54,60.17a49.47,49.47,0,0,1,4.11,43.59A48.94,48.94,0,0,1,297.41,118a48.24,48.24,0,0,1-24,15.45,47.63,47.63,0,0,1-7.08,1.39c-1.19.18-2.4.21-3.59.31s-2.4.09-3.6,0a51.81,51.81,0,0,1-7.15-.68l-3.53-.77c-1.17-.31-2.3-.71-3.45-1.06a56.26,56.26,0,0,1-11.4-5.64,59.17,59.17,0,0,1-9.69-8.16,45.68,45.68,0,0,1-8.9-13.59,37.49,37.49,0,0,1-2.92-16c.15-3.42,1-2.81,1.89,0,.22.68.39,1.5.64,2.43s.59,1.94.87,3.05l.21.85c.09.28.19.57.29.86.2.59.39,1.2.58,1.82.3,1.27.89,2.53,1.32,3.89,3.47,9.57,10.67,17.67,19.44,23.05a44.83,44.83,0,0,0,14.24,5.74,47,47,0,0,0,15.52.54,42.84,42.84,0,0,0,17.71-6.67,46.17,46.17,0,0,0,17.92-54.47,49.76,49.76,0,0,0-6.25-11.51,50.28,50.28,0,0,0-9.29-9.26,44.64,44.64,0,0,0-18.06-8.14,49.28,49.28,0,0,0-9.91-.92,42.1,42.1,0,0,0-9.79,1.5,48.86,48.86,0,0,0-13.88,6.35,45.76,45.76,0,0,0-11.09,10.17A35.89,35.89,0,0,0,220.91,64a44.69,44.69,0,0,0-3.17,8c-.13.45-.26.86-.4,1.22s-.22.7-.33,1a12.56,12.56,0,0,1-.74,1.51,7.5,7.5,0,0,1-.71,1.17c-.38.4-.66-.27-.82-1.9a22,22,0,0,1,1-7.38A37,37,0,0,1,223,54.75,48.91,48.91,0,0,1,234.3,45a53.24,53.24,0,0,1,13.89-6.2,48.28,48.28,0,0,1,7.59-1.49c.64-.08,1.29-.13,1.94-.17S259,37,259.67,37h1l1,0,1.94.12a47.51,47.51,0,0,1,21.78,6.9,50.91,50.91,0,0,1,16.26,16Z"/><path class="cls-1" d="M340.75,208.07c3.1,5.42,10.19,5.51,15.57,4.29,2-.47,1.18-3.6-.86-3.14-3.89.89-9.59,1.26-11.91-2.79-1-1.82-3.84-.18-2.8,1.64Z"/><path class="cls-1" d="M372.35,185a13.3,13.3,0,0,1-2.84.75,6.51,6.51,0,0,1-3.31-.3,4.53,4.53,0,0,1-2.11-1.61,4.07,4.07,0,0,1-.73-2.24,5.24,5.24,0,0,1,.39-2.05,13.6,13.6,0,0,1,1.82-3.1c.61-.82,1.22-1.63,1.84-2.41a12.81,12.81,0,0,1,2.65-2.75c.33-.23.65.17.77.76a2.33,2.33,0,0,1-.35,1.9,44.91,44.91,0,0,0-4.21,5.77,3.1,3.1,0,0,0-.44,1.69,1.49,1.49,0,0,0,.17.61l.23.33c.09.09.16.2.25.28a2.35,2.35,0,0,0,1.58.57,6.53,6.53,0,0,0,2.2-.36,17.21,17.21,0,0,0,2.79-1.17,28.21,28.21,0,0,0,4-2.51,17.82,17.82,0,0,0,1.38-1.21l1.36-1.22a6.1,6.1,0,0,1,.62-.52c.85-.56,1.26-.61,1.78-.28.11.08.24.15.33.23.3.31.22.81-.2,1.45a16.48,16.48,0,0,1-2.21,2.68,29.2,29.2,0,0,1-2.85,2.16,28.36,28.36,0,0,1-4.88,2.61Z"/><path class="cls-1" d="M303.23,384.48a35.23,35.23,0,0,1,1.76-3.12c.23-.36.41-.76.65-1.12a32.67,32.67,0,0,1,2.89-3.51c.47-.48.88-1,1.32-1.51a7.88,7.88,0,0,1,1.83-1.77c.24-.15.49.18.62.63a1.58,1.58,0,0,1-.13,1.38c-1,1.28-2,2.56-3.16,3.79a13.71,13.71,0,0,0-1.71,2.51c-.59.95-1.16,1.92-1.66,2.92-.32.62-.6,1.25-.86,1.89a18.84,18.84,0,0,0-1,3,13.59,13.59,0,0,0-.18,2.37c0,.17,0,.34,0,.51,0,.64-.19.83-.69,1l-.34.09c-.38.07-.69-.21-.82-.74a10.13,10.13,0,0,1,.16-4.86,18.75,18.75,0,0,1,1.25-3.43Z"/><path class="cls-1" d="M331.48,306.8a14.57,14.57,0,0,0,6.2.74,23.47,23.47,0,0,0,2.34-.32,44.74,44.74,0,0,0,8.22-2.24c1.2-.42,2.38-.91,3.56-1.39a28.12,28.12,0,0,1,4.65-1.63c.51-.11.48.08.12.39a9,9,0,0,1-1.86,1.13,69.19,69.19,0,0,1-9.27,3.85,48.21,48.21,0,0,1-6,1.62,19.09,19.09,0,0,1-7,0,12.52,12.52,0,0,1-4.12-1.64,5.47,5.47,0,0,1-2-2.86,8.79,8.79,0,0,1-.3-3.36,13.7,13.7,0,0,1,1.26-4.92,6.92,6.92,0,0,1,.54-1c.8-1.18,1.34-1.35,1.84-1.26a1.6,1.6,0,0,1,.33.07c.32.15.12.7-.23,1.53a21.77,21.77,0,0,0-1.37,3.77,9.75,9.75,0,0,0-.29,3.84,4,4,0,0,0,1,2.22,1.76,1.76,0,0,0,.45.41,3,3,0,0,0,.57.35c.46.2.9.43,1.38.62Z"/><path class="cls-1" d="M241.27,108.4q-3.51-2.54-6.94-5.21c-.82-.65-1.72-1.22-2.53-1.89-2.87-2.38-5.62-4.91-8.28-7.53-.58-.59-1.18-1.16-1.79-1.73L220,90.31a19.63,19.63,0,0,1-4.12-4.9c-.32-.6.47-1,1.5-1.13a3.6,3.6,0,0,1,3,1c2.66,3,5.57,6,8.48,9.06a55,55,0,0,0,6,4.94c2.25,1.76,4.52,3.51,6.85,5.17,1.42,1.05,2.88,2,4.34,3,2.22,1.48,4.45,3,6.76,4.31,1.79,1,3.66,1.84,5.5,2.72.41.2.82.36,1.23.57,1.49.77,1.84,1.24,1.7,2.23a4.55,4.55,0,0,1-.1.66c-.21.71-1.09.89-2.28.46a57.83,57.83,0,0,1-10.26-5.19c-2.48-1.5-4.89-3.15-7.31-4.78Z"/><path class="cls-1" d="M230.6,98.09c-4.45-3.57-8.8-7.25-13-11.1-1.54-1.41-3.13-2.76-4.61-4.23a100.58,100.58,0,0,1-7.49-8.2,53.73,53.73,0,0,1-3.3-4.54,24.82,24.82,0,0,1-2.61-5.14,9.54,9.54,0,0,1-.5-5.5,6,6,0,0,1,1.42-2.63,11.1,11.1,0,0,1,1.07-1A10.52,10.52,0,0,1,202.8,55a9.56,9.56,0,0,1,3.5-.85,13.83,13.83,0,0,1,3.42.29,15.39,15.39,0,0,1,6.05,2.74c.57.45.65.87.41,1.11a2.56,2.56,0,0,1-1.43.48,14.78,14.78,0,0,1-5.24-.46,8.68,8.68,0,0,0-4.8-.12,3.72,3.72,0,0,0-1.62,1,2.76,2.76,0,0,0-.71,1.54,9.52,9.52,0,0,0,1.18,4.82,39.37,39.37,0,0,0,3.07,5.14c2.83,4,6.66,7.64,10.38,11.16,4.1,3.88,8.4,7.59,12.8,11.18q4.06,3.32,8.26,6.48c4.23,3.19,8.52,6.34,12.91,9.24,3.42,2.26,6.91,4.24,10.42,6.23l2.32,1.27c2.87,1.65,3.67,2.34,3.85,3.49a3.84,3.84,0,0,1,.11.79c-.05.78-1.55.66-3.8-.41a142.65,142.65,0,0,1-19.47-11.72c-4.71-3.27-9.32-6.74-13.86-10.28Z"/><path class="cls-1" d="M299.5,134.75a26.25,26.25,0,0,1-6.75-1c-.78-.2-1.58-.33-2.33-.59a57.37,57.37,0,0,1-7.64-3.35c-1.09-.55-2.21-1.05-3.32-1.57a12.18,12.18,0,0,1-4-2.4c-.35-.36.21-1.06,1-1.58a2.73,2.73,0,0,1,2.57-.45c2.59,1.44,5.23,2.86,7.9,4.39a23.89,23.89,0,0,0,5.23,1.91,29.13,29.13,0,0,0,5.9,1.19,9.3,9.3,0,0,0,3.39-.26,1.91,1.91,0,0,0,1.35-1.24,3.76,3.76,0,0,0-.27-2.28,11.93,11.93,0,0,0-2.43-3.4c-.21-.23-.45-.43-.66-.66-.78-.86-.86-1.27-.36-2.09a6.59,6.59,0,0,1,.34-.57c.43-.58,1.23-.62,2,0a13.66,13.66,0,0,1,3.1,3.31,9.79,9.79,0,0,1,1.76,5.08,5.4,5.4,0,0,1-.65,2.69,5.15,5.15,0,0,1-2,2,9.2,9.2,0,0,1-4.11,1Z"/><path class="cls-1" d="M350.41,302.73c-1.78.74-3.59,1.4-5.45,2-.67.21-1.34.46-2,.63a16.68,16.68,0,0,1-7.69.33,5.48,5.48,0,0,1-3.17-2.06,5.31,5.31,0,0,1-.81-4.54c.11-.45.72-.28,1.29.12a2.77,2.77,0,0,1,1.18,1.6,5.25,5.25,0,0,0,.14.73c.07.22.16.41.24.6a2.3,2.3,0,0,0,.83.84,7,7,0,0,0,3.27.77,16.18,16.18,0,0,0,4.81-.87,48.72,48.72,0,0,0,5.26-1.8c1.07-.42,2.13-.89,3.17-1.38a47.45,47.45,0,0,0,4.62-2.47,29.25,29.25,0,0,0,3.18-2.42c.22-.19.42-.39.65-.57.83-.67,1.16-.76,1.76-.43a4,4,0,0,1,.41.23c.41.29.33.92-.25,1.56a25,25,0,0,1-6.17,4.62c-1.69,1-3.44,1.8-5.21,2.6Z"/><path class="cls-1" d="M183.41,81a42.83,42.83,0,0,1,6,5.43,1.63,1.63,0,0,0,2.3-2.3,46.76,46.76,0,0,0-6.65-5.93c-1.74-1.17-3.37,1.64-1.64,2.8Z"/><path class="cls-1" d="M184.42,103.12a16.94,16.94,0,0,1,5.3-2.36c2-.52,1.16-3.66-.87-3.14a19.91,19.91,0,0,0-6.07,2.69c-1.73,1.15-.11,4,1.64,2.81Z"/></g></svg>