<svg xmlns="http://www.w3.org/2000/svg" width="520" height="520" viewBox="0 0 520 520"><defs><style>.cls-1{fill:#231f20;}</style></defs><title>Notioly New upgrade</title><g id="n.125_Advertise" data-name="n.125 Advertise"><path class="cls-1" d="M32.1,224l.21-13.77v-5l.32-17.71c0-2.62,0-5.25,0-7.85-.05-1.67,0-3.34,0-5,0-.84,0-1.68.09-2.51s.2-1.67.29-2.51c.15-1.05.34-.91.7,0,.18.43.41,1,.66,1.81a11.1,11.1,0,0,1,.36,1.22,11.44,11.44,0,0,1,.16,1.37l.14,2.56.06,1.28v1.27l0,5.12c0,3.42-.13,6.84-.27,10.28-.18,4.12-.05,8.39-.08,12.6L34.53,221l-.09,8.54c0,4.31-.1,8.64-.06,12.92,0,3.32.21,6.58.24,9.87,0,.72,0,1.43,0,2.16,0,2.71-.17,3.57-.65,4.15a2.79,2.79,0,0,1-.32.39c-.34.26-.7-.84-.87-2.82-.23-2.94-.49-6-.57-9s-.14-6.16-.17-9.27c0-4.62,0-9.26,0-13.89Z"/><path class="cls-1" d="M32.66,391.2,32.84,371v-7.35l.28-25.92c0-3.84,0-7.69-.06-11.5,0-2.44,0-4.89,0-7.34,0-1.22,0-2.44.09-3.67l.29-3.67c.14-1.52.33-1.32.69,0,.18.64.41,1.56.67,2.66.12.56.27,1.16.36,1.79s.13,1.32.16,2l.15,3.74.06,1.87v1.88c0,2.49,0,5,0,7.49q0,7.5-.25,15c-.16,6,0,12.28,0,18.44q0,10.14-.09,20.31,0,6.24-.08,12.5c0,6.3-.08,12.64,0,18.91,0,4.86.23,9.63.27,14.45,0,1.06,0,2.09,0,3.16,0,4-.17,5.22-.65,6.08a3.51,3.51,0,0,1-.31.56c-.34.39-.7-1.22-.88-4.12-.23-4.3-.5-8.72-.58-13.2s-.16-9-.2-13.58q0-10.16-.07-20.35Z"/><path class="cls-1" d="M125.41,85.31a8.62,8.62,0,0,1-2.12,3.2c-.3.32-1.05.23-1.09-.27a9.3,9.3,0,0,1,.15-3,19,19,0,0,1,2.49-5,41.09,41.09,0,0,1,4.57-5.58,84.72,84.72,0,0,1,6.3-5.69,79.48,79.48,0,0,1,7-5.37,42.66,42.66,0,0,1,3.88-2.37,25.37,25.37,0,0,1,4.45-1.91,9.88,9.88,0,0,1,5.14-.26,10.32,10.32,0,0,1,1.22.39l1,.47a10,10,0,0,1,1.84,1.28,8.42,8.42,0,0,1,2.59,3.94,9.32,9.32,0,0,1,.16,4.53,10.55,10.55,0,0,1-1.71,4l-.47.6-.4.47a6.59,6.59,0,0,0-.72,1,15.86,15.86,0,0,1-1.87,2c-.51.47-1.11,1-1.74,1.51s-1.33,1-2,1.57a46.68,46.68,0,0,1-6.58,4.06,67.5,67.5,0,0,1-11.18,3.95,5.35,5.35,0,0,1-1.66.31,12.47,12.47,0,0,0-3.62.42c-.83.15-1.68.23-2.51.33S126.8,90,126,90a11.82,11.82,0,0,1-2.5-.45c-.73-.17-.33-.81-.08-.89.72-.24.12-.52.06-.78a.4.4,0,0,1,0-.28c0-.09,2.28-.53,4.53-1.25,1.13-.38,2.27-.78,3.17-1.17s1.59-.65,1.82-.72c.05,0,.87-.26,2.06-.7l2-.79,2.31-1,2.32-1.13,2.09-1.09c1.24-.7,2.18-1.25,2.49-1.45a15.94,15.94,0,0,1,2.06-1A47.65,47.65,0,0,0,152.72,74c1-.84,1.95-1.74,2.64-2.43s1.15-1.22,1.1-1.21a4.34,4.34,0,0,0,.92-1.74,9,9,0,0,0,.27-1.82,1,1,0,0,0-.21-.63,3.25,3.25,0,0,0-1.13-1.07,5.8,5.8,0,0,0-.86-.46c-.17-.09-.21,0-.32-.09a.72.72,0,0,0-.32-.08,9.81,9.81,0,0,0-4.33,1,30.9,30.9,0,0,0-4.83,2.7c-.29.19-.61.33-.9.5s-.76.43-1.12.68c-1.84,1.33-3.63,2.7-5.43,4.17s-3.65,2.94-5.28,4.52c-.39.35-1.55,1.31-2.71,2.28a19.33,19.33,0,0,0-2.55,2.52C127.24,83.3,125.58,84.73,125.41,85.31Z"/><path class="cls-1" d="M115.79,75.46c-.67.1-1.14-.52-1.43-1.28a1.11,1.11,0,0,1,.26-1c.36-.15.71-.32,1-.44.11-.07.94-.14,1.85-.41s1.86-.67,2.34-.79c.92-.33,1.85-.56,2.77-.84a24.9,24.9,0,0,0,2.77-1c.91-.4,1.82-.8,2.7-1.29a7.17,7.17,0,0,1,1.24-.51,10.66,10.66,0,0,0,3.93-2.42,1.17,1.17,0,0,0,.49-.62A14.76,14.76,0,0,1,135.39,63c.77-.82,1.48-1.7,1.69-1.86a14.27,14.27,0,0,0,2.64-2.86c.12-.15.14-.34.4-.41.62-.18.67-.59.85-1a15.46,15.46,0,0,1,.73-1.55c.11-.27.48-.52.71-.81a.44.44,0,0,1,.65,0c.14.29.38.06.56,0a.45.45,0,0,1,.2,0,4,4,0,0,1,.4.67,10.6,10.6,0,0,1,.37,1.56,10.2,10.2,0,0,1,0,2.65s-.09.44-.3,1c-.11.28-.25.61-.39,1s-.34.7-.51,1.07a34.47,34.47,0,0,1-1.88,3.14,2.86,2.86,0,0,1-.78.73c-.07.06-.81,1-1.63,2a22.28,22.28,0,0,1-1.78,1.84,6.45,6.45,0,0,1-2.5,1.54,1.2,1.2,0,0,0-.5.29,20.41,20.41,0,0,1-4.42,2.3c-.79.33-1.55.71-2.34,1a2.52,2.52,0,0,1-.47.06,2.7,2.7,0,0,0-.58.1,37.27,37.27,0,0,1-6,1.22,3.52,3.52,0,0,1-.64,0,3.77,3.77,0,0,1-1-.16c-.69-.15-1.38-.33-1.64-.36S116,75.43,115.79,75.46Z"/><path class="cls-1" d="M417.49,126c-6.57,7.14-5.81,16-4.37,24.93,1.66,10.37,6.84,20.52,13.31,28.7.89,1.14,2.47-.47,1.59-1.59-5.78-7.32-10.47-16.37-12.36-25.55-1.75-8.48-2.91-18,3.42-24.9,1-1.07-.61-2.66-1.59-1.59Z"/><path class="cls-1" d="M440,156.4c-.95-2.17-1.43-4.51-2.34-6.71a1.92,1.92,0,0,0-2.3-1.3,1.87,1.87,0,0,0-1.31,2.3c1,2.5,1.62,5.13,2.71,7.61,1,2.2,4.2.3,3.24-1.9Z"/><path class="cls-1" d="M353,198.21c-.82,2-.39,10.52-3.38,10.59a1.13,1.13,0,0,0,0,2.25c5.47-.13,4.18-8.84,5.55-12.24.55-1.34-1.63-1.93-2.17-.6Z"/><path class="cls-1" d="M353.65,201c2,2.75,6.26,4.83,8.43.94,1.77-3.15.67-7.19,2.14-10.41.6-1.31-1.34-2.45-1.94-1.14-.92,2-1,4.34-1.27,6.5a13.84,13.84,0,0,1-.69,3.5c-1.11,2.61-3.52,1.11-4.73-.52-.85-1.16-2.8,0-1.94,1.13Z"/><path class="cls-1" d="M362.28,189.81c1.53,2.38,3.22,7.55,7,6,3.27-1.33,3.94-6.14,4.42-9.16.23-1.42-1.94-2-2.17-.6-.36,2.26-.68,5.65-2.48,7.26-2.19,2-3.95-3.25-4.85-4.63-.78-1.21-2.73-.09-1.94,1.13Z"/><path class="cls-1" d="M336.88,372.35a3.23,3.23,0,0,0,3.86-1c1.78-2.05,6.3-14.56,8.41-17,2.4-2.72,16.37,5.19,21.65,2.39,3.93-2.08-23.76-10.6-23.76-10.6Z"/><path class="cls-1" d="M324.52,474.61s10.54,1.21,13.84-1.52,7.1-5.63,7.1-5.63,17.32.84,17.32,3.73C362.78,475,335.25,477.14,324.52,474.61Z"/><path class="cls-1" d="M315.54,474.18c-1-.17-2-.34-3.06-.55s-2-.42-3.05-.66c-.74-.16-1.49-.25-2.22-.47a59.73,59.73,0,0,1-7.58-2.66c-1.08-.52-2.22-.87-3.29-1.38-.69-.31-1.43-.55-2.1-.91a9.54,9.54,0,0,1-1.9-1.3c-.7-.64,1.87-2.42,3.22-1.66,2.53,1.32,5.13,2.53,7.84,3.79a20.29,20.29,0,0,0,2.56.87c.89.22,1.8.4,2.68.63l2.95.66c1,.19,2,.4,3,.56,1.24.2,2.47.4,3.71.54,1.88.23,3.78.43,5.67.5,1.47,0,2.92-.09,4.39-.15.32,0,.64-.05,1-.05,1.21,0,1.6.26,1.79,1.05a3.65,3.65,0,0,1,.13.55c.06.61-.47,1.07-1.33,1.19a39.94,39.94,0,0,1-8.14.18c-2.07-.14-4.15-.37-6.22-.65Z"/><path class="cls-1" d="M366,354.34q-2.72-.85-5.39-1.86c-.64-.24-1.32-.41-2-.68a71.78,71.78,0,0,1-6.63-3.16c-.94-.56-1.94-1-2.87-1.59l-.93-.53c-.3-.19-.6-.41-.89-.62a5.64,5.64,0,0,1-.83-.72,8.28,8.28,0,0,1-.69-.9c-.27-.4.29-.71,1-.84a3.88,3.88,0,0,1,1.07-.07,1.79,1.79,0,0,1,.47.11,1.56,1.56,0,0,1,.47.22,63.16,63.16,0,0,0,6.7,4.2,31.51,31.51,0,0,0,4.66,1.94c1.74.66,3.5,1.29,5.28,1.85,1.1.35,2.2.69,3.31,1a48.44,48.44,0,0,0,5.09,1.15,16.77,16.77,0,0,0,2,.2c.66,0,1.32.06,2,.06.29,0,.57,0,.86,0,1.06,0,1.38.18,1.61.84a3.26,3.26,0,0,1,.15.44c.11.5-.35.89-1.2,1a25,25,0,0,1-7.65-.55c-1.88-.39-3.75-.88-5.59-1.41Z"/><path class="cls-1" d="M229.64,310.26a33.62,33.62,0,0,0-7.53-4.08,26.32,26.32,0,0,0-3-1l-2.68-.79c-.91-.21-1.83-.38-2.75-.58a52.25,52.25,0,0,0-5.59-.81,46.87,46.87,0,0,0-5-.12c-1.07,0-2.14.12-3.21.18a24.71,24.71,0,0,1-3.22,0c-1.35-.09.17-2.49,2.72-2.63a52.43,52.43,0,0,1,13.5.9c1.33.33,2.7.56,4.07.83s2.73.67,4.06,1.08a39.24,39.24,0,0,1,8.33,3.95l1.2.75,1.13.85a25.18,25.18,0,0,1,2.21,1.77l1.6,1.43,1.48,1.54c.5.5,1,1,1.42,1.58s.93,1.06,1.37,1.61c1.37,1.69,2.77,3.32,4.05,5,.29.38.58.74.86,1.13,1,1.43,1.18,2,.86,2.66a3.77,3.77,0,0,1-.23.45c-.32.41-1,0-1.89-.94-2.46-2.93-4.73-6.15-7.35-9a39.69,39.69,0,0,0-6.41-5.74Z"/><path class="cls-1" d="M166.12,217a2.41,2.41,0,0,1-1.25-1.69c-.08-.26.19-.75.43-.72.48.06,1,.12,1.47.23a14.73,14.73,0,0,1,2.52,1.4,13,13,0,0,1,2.94,2.91,9.86,9.86,0,0,1,1.6,5,15.48,15.48,0,0,1-3,9.75,9.28,9.28,0,0,1-1.54,1.65,23.11,23.11,0,0,1-6.54,4.07,5,5,0,0,0-1.23.5,7.1,7.1,0,0,1-1.52.43c-.4,0-.86.1-1.34.14s-1,0-1.53,0l-1.52-.22c-.48-.12-.94-.25-1.34-.37a13.23,13.23,0,0,1-1.57-.66c-.5-.31-1-.65-1.45-1s-.82-.63-1.24-1a12.57,12.57,0,0,1-2.31-2.55,2.18,2.18,0,0,1-.47-.87,8,8,0,0,0-.67-2,7,7,0,0,1-.42-2.77,4.67,4.67,0,0,1,.34-1.32c.13-.39.59-.17.65-.05.16.36.37.06.56,0a.76.76,0,0,1,.21,0,13,13,0,0,0,.93,2.08,10.18,10.18,0,0,0,1.42,1.8,5.87,5.87,0,0,0,.61.65,8.86,8.86,0,0,0,1.6,1.17,11.52,11.52,0,0,0,3.14,1.42,4,4,0,0,1,.89.36,7.57,7.57,0,0,0,2.25,0,9.57,9.57,0,0,0,1.47-.32c.4-.16.68-.26.72-.27.85-.27,1.58-.76,2.53-1a1.06,1.06,0,0,0,.48-.3,16.34,16.34,0,0,0,3.4-3.54,11.51,11.51,0,0,0,1.1-2.26c.06-.14.15-.27.22-.4a3.54,3.54,0,0,0,.23-.53,12.33,12.33,0,0,0,.36-2.87,6.69,6.69,0,0,0-.71-2.72c-.1-.18-.24-.81-.55-1.42a5,5,0,0,0-.49-.85,2.19,2.19,0,0,0-.42-.53,3.61,3.61,0,0,1-.46-.73A2,2,0,0,0,166.12,217Z"/><path class="cls-1" d="M133.33,187.35s3.62-7.69,14-2.24,18.59,9.45,20.69,5.4-7.07-19.76-7.32-28.37,2-27.67,20.1-32c0,0,65.87,19.51,84.3,0,0,0,33.6-22.63,7.07-57.54,0,0-20.86-26.07-65.43-2,0,0-25.36,16.35-34.28,31.51,0,0-4.64,7.35-9.18,9.2-3.87,1.58-20.58-8.57-35.77-1,0,0-19.9,14.84-19.57,30.94S119.36,178.19,133.33,187.35Z"/><path class="cls-1" d="M224.81,254.41A36.52,36.52,0,0,0,240.69,253a30.29,30.29,0,0,0,13.37-8.43,29,29,0,0,0,5.7-10.08c2.25-6.57,2.53-13.82,2.1-20.95a210.81,210.81,0,0,0-2.79-21.52c-1.09-6.35-2.37-12.73-3.47-19.08-.7-4.08-1.37-8.18-1.82-12.32-.21-2.07-.43-4.16-.46-6.27s0-4.1-.21-6c-.12-1.19,0-1.73.31-1.79s1,.42,1.55,1.47a15.7,15.7,0,0,1,1.53,4.51c.2.94.35,2,.5,3s.33,2.14.42,3.29c1.58,16.49,5.83,32.87,7.33,50a101.7,101.7,0,0,1,.34,15.75,53.35,53.35,0,0,1-1.2,8,38.43,38.43,0,0,1-2.77,7.67,30.73,30.73,0,0,1-12.23,12.85,38,38,0,0,1-16.87,5,40.09,40.09,0,0,1-10.82-.85,37,37,0,0,1-5.19-1.53l-2.52-.89c-.84-.32-1.65-.69-2.47-1a84.63,84.63,0,0,1-14.19-7.71,110.54,110.54,0,0,1-12.67-9.87A112.84,112.84,0,0,1,167.66,218c-1.09-1.45-2-2.94-3-4.49-3.52-5.81-4.08-8-3.89-9.65a5.41,5.41,0,0,1,.17-1.12c.19-.43.71-.09,1.47.87s1.68,2.6,3,4.63A112.42,112.42,0,0,0,195,240.6a87,87,0,0,0,14.28,8.59,20.07,20.07,0,0,0,1.89.87l1.92.82c1.26.58,2.58,1,3.88,1.47l2,.69,1.94.54,2,.43c.66.13,1.33.21,2,.31Z"/><path class="cls-1" d="M282,114.83a39.7,39.7,0,0,1-11.28,13.85l-3.6,2.61-3.81,2.25a20.06,20.06,0,0,1-2,1l-2,.94c-.67.3-1.31.65-2,.92l-2.08.8A61.85,61.85,0,0,1,238,140.39a108.73,108.73,0,0,1-17.32-.59A194.81,194.81,0,0,1,196,135.38c-3.57-.87-7.12-1.82-10.63-2.72-.88-.22-1.76-.44-2.6-.62-.44-.1-.83-.16-1.22-.23-.21,0-.22-.05-.44.07L178.74,133l-1.2.57c-.4.2-.76.44-1.14.66l-2.27,1.35c-.74.47-1.41,1-2.12,1.53l-1.06.78-.95.88-1,.88a7.91,7.91,0,0,0-.91.92,22.9,22.9,0,0,0-5.23,8.75A23.64,23.64,0,0,0,162,159.5a25.69,25.69,0,0,0,1.16,5.05c.58,1.68,1.23,3.37,1.9,5.06,1.35,3.37,2.79,6.72,4.21,10.09l1.06,2.55a14.91,14.91,0,0,1,.91,2.83,7,7,0,0,1,0,3.29,5.13,5.13,0,0,1-2,2.91,9.61,9.61,0,0,1-5.35,1.41,20.46,20.46,0,0,1-5.13-.6,18,18,0,0,1-2.5-.77,10.91,10.91,0,0,1-1.25-.6c-.48-.29-.77-.5-1.1-.72a35.41,35.41,0,0,0-4-2.44,19.19,19.19,0,0,0-8.69-2.42,8.81,8.81,0,0,0-7.31,3.65A13.9,13.9,0,0,0,132,199.63a16.67,16.67,0,0,0,5.86,9.57,18.79,18.79,0,0,0,10.66,3.89,35.11,35.11,0,0,0,11.77-1.45c2.41-.68,3.51-.89,3.57-.52s-.94,1.24-2.93,2.29a27.13,27.13,0,0,1-8.91,2.9,23.87,23.87,0,0,1-6.52.09,19.94,19.94,0,0,1-7.21-2.33c-8.48-4.63-12.82-15.59-8.94-24.83a12.58,12.58,0,0,1,12.3-7.7,20.81,20.81,0,0,1,6.94,1.56,33.56,33.56,0,0,1,6,3.16c.47.29.91.62,1.38.93l.34.24.26.18.44.24a13.38,13.38,0,0,0,2.53.86,16.14,16.14,0,0,0,5.48.44,5.16,5.16,0,0,0,2.09-.64,1.71,1.71,0,0,0,.82-1.13,5.05,5.05,0,0,0-.18-2.14,29,29,0,0,0-1-2.73c-1.61-3.88-3.29-7.8-4.85-11.79-.78-2-1.55-4-2.21-6.15a29,29,0,0,1-1.11-6.71,25.72,25.72,0,0,1,.85-8.13,27.33,27.33,0,0,1,1.34-3.91,28.83,28.83,0,0,1,2-3.61,34.3,34.3,0,0,1,12.05-10.87,34.77,34.77,0,0,1,3.59-1.85l.91-.44.47-.23a2,2,0,0,1,.73-.25,5.31,5.31,0,0,1,.8-.11l.43,0,.32,0c.35.06.73.11,1.06.18,2.67.56,5.16,1.25,7.71,1.88,5.05,1.28,10.11,2.49,15.17,3.5,11.12,2.21,22.48,3.64,33.7,2.82a70.13,70.13,0,0,0,8.31-1.18,48.81,48.81,0,0,0,8-2.44,53.19,53.19,0,0,0,14.21-8.66l1.9-1.71,1.7-1.9.86-1c.28-.32.5-.69.75-1l1.48-2.07a32.57,32.57,0,0,0,4-9.3l.34-1.23c.09-.41.14-.84.21-1.25l.4-2.52.11-2.56.06-1.27L282,97.56,281.8,95l-.4-2.54-.2-1.26L280.88,90l-.63-2.5c-.4-1.23-.85-2.46-1.27-3.69s-1.05-2.4-1.56-3.6a13.81,13.81,0,0,0-.89-1.71l-.95-1.67-1.14-1.55a12.31,12.31,0,0,0-1.21-1.49,33.58,33.58,0,0,0-12.69-8.68,53.84,53.84,0,0,0-30.78-2.36,72.65,72.65,0,0,0-11.61,3.42l-2.78,1.17-1.39.58-1.36.66-2.7,1.33c-.9.45-1.76,1-2.64,1.45A108.91,108.91,0,0,0,187.8,85.38c-1.3,1.21-2.61,2.37-3.86,3.6l-3.74,3.76c-1.13,1.21-2.17,2.31-3.13,3.32s-1.76,2-2.54,2.83c-1.56,1.7-2.75,3.13-3.79,4.27a30.44,30.44,0,0,1-4.58,4.4,16.26,16.26,0,0,1-1.65,1.14c-.68.3-.31-.73,1-2.84.64-1,1.47-2.4,2.6-3.91s2.42-3.31,4-5.18C181.51,85.5,193,75.14,206.63,67.71c1.67-1,3.47-1.74,5.21-2.61s3.6-1.53,5.4-2.3,3.7-1.33,5.59-1.87,3.79-1.12,5.74-1.45a54.88,54.88,0,0,1,11.88-1.39,61.68,61.68,0,0,1,12,1l2.19.49,1.09.25,1.08.31,2.16.64c.71.23,1.41.52,2.12.77,1.43.49,2.78,1.19,4.16,1.82.68.32,1.33.74,2,1.1a21.76,21.76,0,0,1,2,1.19L271,67c.63.44,1.18,1,1.78,1.48a32.65,32.65,0,0,1,3.29,3.26c.53.57.95,1.23,1.43,1.85a16.67,16.67,0,0,1,1.31,1.92l1.16,2c.39.67.63,1.36.95,2A48.65,48.65,0,0,1,285.41,97a37.31,37.31,0,0,1-3.33,17.83Z"/><path class="cls-1" d="M105.84,143.46a37.08,37.08,0,0,1,5.06-19.68c.59-1.1,1.32-2.1,2-3.16a36.3,36.3,0,0,1,2.3-2.91A32.75,32.75,0,0,1,138,106.26a53.55,53.55,0,0,1,11.4.34,49.41,49.41,0,0,1,13.92,3.76c1.37.62.84,1.38-.62,1.77a13.1,13.1,0,0,1-6.38-.26,59.26,59.26,0,0,0-13.65-2.25,36.92,36.92,0,0,0-13.48,1.92c-.64.24-1.26.54-1.89.81-.32.15-.64.28-.95.44l-.9.53c-.59.37-1.21.7-1.79,1.11l-1.67,1.3a14.16,14.16,0,0,0-1.59,1.42c-.5.5-1,1-1.52,1.49l-1.42,1.62c-.47.55-.88,1.13-1.33,1.69a33.35,33.35,0,0,0-6.75,17.3,39.14,39.14,0,0,0,.73,11.66,55.94,55.94,0,0,0,6.51,16.64,68.67,68.67,0,0,0,8.25,11l2.06,2.18c2.59,2.72,3.32,3.66,3.27,4.91a3.67,3.67,0,0,1-.05.83c-.2.77-1.79.16-3.94-1.76a65.75,65.75,0,0,1-15.61-21.38,51.92,51.92,0,0,1-4.87-19.85Z"/><path class="cls-1" d="M173.05,233.23a15.44,15.44,0,0,1-3.79,4.8,17.38,17.38,0,0,1-5.26,2.88,17.18,17.18,0,0,1-4.24.92,14.49,14.49,0,0,1-3.83-.26,13.11,13.11,0,0,1-3.64-1.26,12.62,12.62,0,0,1-3.1-2.23,14.36,14.36,0,0,1-2.39-2.88,14.92,14.92,0,0,1-2.29-6.22,12.75,12.75,0,0,1,.16-4.31,8.94,8.94,0,0,1,1.91-3.86c.6-.7,1.21,0,1.58,1a6.06,6.06,0,0,1,.31,3.4c-1.19,4,.61,8.62,4.19,11.51,2.14,1.7,5.28,2,8.11,1.53a12.67,12.67,0,0,0,8.09-4.73,13.36,13.36,0,0,0,2.37-5.5,13.92,13.92,0,0,0,.07-4.6,11.42,11.42,0,0,0-1.61-4.25,11,11,0,0,0-5.44-4.12c-.49-.16-.95-.32-1.45-.45-1.82-.53-2.39-.78-2.67-1.78a3.66,3.66,0,0,1-.19-.68c-.11-.72.85-1.23,2.53-1a14.22,14.22,0,0,1,7.21,3,14,14,0,0,1,4.6,7,16.81,16.81,0,0,1-1.15,12.1Z"/><path class="cls-1" d="M224.29,279.65c4.27.51,8.59.87,13,1.78a17.92,17.92,0,0,1,5,1.56,7.74,7.74,0,0,1,1.11.72l.54.44c.17.18.34.38.5.57a7,7,0,0,1,1.23,2.38,16.15,16.15,0,0,1,.63,4.56,73.21,73.21,0,0,1-.56,8.49c-.25,2.46-.43,4.92-.48,7.32a69.11,69.11,0,0,0,.55,9c.13.88-.74,1.1-1.81.49a5.31,5.31,0,0,1-2.38-4.11c-.44-6.85.88-13.2,1.4-19.41a13.81,13.81,0,0,0-.46-5.28,4.49,4.49,0,0,0-.47-1,1.38,1.38,0,0,0-.29-.36,1.15,1.15,0,0,0-.34-.31,7.44,7.44,0,0,0-2.17-1.06,34.3,34.3,0,0,0-6.07-1.3c-2.12-.31-4.27-.54-6.43-.77-2.66-.29-5.34-.58-8-.9a108.29,108.29,0,0,1-12.1-2.14,47.13,47.13,0,0,1-9.13-2.87,16.37,16.37,0,0,1-1.92-1c-2.33-1.41-2.81-2.27-2.62-3.31a3,3,0,0,1,.15-.7c.15-.34.53-.45,1-.37a7.67,7.67,0,0,1,1.91.79,51.69,51.69,0,0,0,15.45,5c4.14.76,8.41,1.27,12.73,1.69Z"/><path class="cls-1" d="M140.5,383.92l4.71-12.49c1.67-4.12,3.29-8.26,5-12.37l3.69-9c4.56-10.47,9.36-20.83,14.12-31.18,2.11-4.59,4.12-9.26,6.05-13.87,2.4-6,4.75-12,6.89-17.93.71-1.84,1.5-1.38,1.82.5a14.68,14.68,0,0,1,0,3.76,21,21,0,0,1-1.25,5c-.57,1.58-1.19,3.12-1.83,4.64l-1.92,4.6c-1.33,3-2.65,6.05-4,9.05q-4.12,9-8.47,17.94c-3.44,7.15-6.58,14.78-9.69,22.26L153,361l-2.48,6.2-2.47,6.21-2.34,6.26c-2,5.11-3.71,10.32-5.49,15.5-2.56,7.89-5,15.86-7,23.86-.4,1.55-.81,3.09-1.15,4.64l-.93,4.66c-.59,3.1-1.24,6.18-1.78,9.3-.22,1.37-.39,2.72-.63,4.11-.86,5.12-1.39,6.71-2.5,7.66a4.51,4.51,0,0,1-.76.63c-.8.39-1-1.81-.52-5.63.36-2.83.74-5.7,1.18-8.6s1.13-5.76,1.73-8.68c.3-1.45.61-2.92.92-4.38s.73-2.91,1.1-4.37c.76-2.9,1.52-5.83,2.28-8.75,1.26-4.31,2.6-8.6,3.91-12.9l4.32-12.78Z"/><path class="cls-1" d="M267.82,365.49c-2.48-3.72-4.92-7.42-7.35-11.2s-4.66-7.66-6.93-11.47c-1.67-2.78-3.42-5.48-5.17-8.16A85.38,85.38,0,0,0,238,321.38a79.22,79.22,0,0,0-6.06-5.83,48.83,48.83,0,0,0-6.82-4.78A43.6,43.6,0,0,0,211.21,306c-6.25-1.08-12.65-1-19-.93-2,0-1.82-.92-.16-1.88a15.08,15.08,0,0,1,3.51-1.37,22.77,22.77,0,0,1,5.16-.56,59.9,59.9,0,0,1,20.19,3.66,47.1,47.1,0,0,1,9.18,4.91,53.07,53.07,0,0,1,7.81,6.72c1.43,1.46,2.81,3,4.2,4.45s2.77,3.11,4.05,4.76a109.7,109.7,0,0,1,7.14,10.18c2.4,3.82,4.65,7.7,7,11.53s4.73,7.53,7.21,11.27c3,4.6,6.11,9.17,9.27,13.68,4.77,6.83,9.67,13.63,14.84,20.08,4,5,8.25,9.7,12.59,14.31l2.89,3c3.59,3.77,4.63,5.06,4.75,6.53a5,5,0,0,1,.08,1c-.15.86-2.09-.23-4.93-2.87-8.39-7.87-16.17-17.19-23.5-26.85-5.43-7.17-10.6-14.58-15.66-22Z"/><path class="cls-1" d="M354.09,324.42c-1.46,7.8-3.43,15.43-5.62,23l-1.18,4.15c-.4,1.38-.83,2.75-1.27,4.11a259.34,259.34,0,0,1-11.11,28.24c-1,2-1.85,4.1-2.89,6.1l-1.5,3-.74,1.51L329,396c-1.39,2.51-2.69,5.09-4.32,7.48-.81,1.21-1.53,2.46-2.44,3.59s-1.84,2.25-2.8,3.34c-1.2,1.36-1.72.56-1.48-1.17a12.82,12.82,0,0,1,.94-3.15c.25-.59.57-1.19.91-1.84a18.7,18.7,0,0,1,1.13-2l2.31-3.56,2.12-3.72,1.07-1.85c.36-.62.66-1.27,1-1.9l2-3.81c1.31-2.56,2.49-5.19,3.77-7.78s2.39-5.27,3.54-7.95a207.63,207.63,0,0,0,7.05-20.12c2.28-7.5,4.35-15.08,6-22.73l.73-3.54.63-3.56c.21-1.18.41-2.37.54-3.55s.33-2.38.41-3.57a39.84,39.84,0,0,0,.15-5.34c-.11-1.79-.33-3.59-.58-5.4-.5-3.61-1.15-7.21-1.77-10.82-.24-1.41-.48-2.8-.68-4.23-.11-.7-.15-1.49-.2-2.23a17.18,17.18,0,0,1,.13-2.27,15.48,15.48,0,0,1,1.2-4.38,20.63,20.63,0,0,1,2.2-3.89,31.88,31.88,0,0,1,2.36-3c3.22-3.48,4.47-4.23,5.8-4.3a4,4,0,0,1,.91,0c.84.19-.12,2-2.34,4.46-3.24,3.68-6.38,7.6-6.75,12a13,13,0,0,0-.06,1.65c.06.57,0,1.07.15,1.72.17,1.23.38,2.51.6,3.8l1.35,7.82c.32,2,.63,3.93.86,6,.12,1,.22,2,.28,3.08a24.11,24.11,0,0,1,0,3.18l-.19,3.09-.37,3c-.21,2-.61,4-.92,6Z"/><path class="cls-1" d="M359.72,450a103.71,103.71,0,0,1-11.11,15.43,47.22,47.22,0,0,1-7.26,6.53,21.56,21.56,0,0,1-9.69,3,53.82,53.82,0,0,1-14-.56,99.69,99.69,0,0,1-23.24-7.22,148.77,148.77,0,0,1-21.22-11.59c-6-3.92-11.78-8.15-17.29-12.61A158.44,158.44,0,0,1,236,424.27c-1.87-2.13-.94-2.46,1.33-1.33a29.85,29.85,0,0,1,4.25,2.72,57.14,57.14,0,0,1,5.36,4.51c13.26,12.53,27.88,23.7,44.29,32a98.42,98.42,0,0,0,15.49,6.22,79.83,79.83,0,0,0,16.44,3.28,42.63,42.63,0,0,0,9-.12,23.15,23.15,0,0,0,4.28-1,14.77,14.77,0,0,0,1.95-.81l.88-.52c.3-.2.59-.45.89-.66a41.19,41.19,0,0,0,6.58-6.24l1.49-1.75c.48-.59.94-1.22,1.41-1.82,1-1.21,1.83-2.49,2.72-3.75a167.59,167.59,0,0,0,11.5-19.84,317.42,317.42,0,0,0,13.73-32c3.08-8.45,5.67-16.88,8-25.42.52-1.88,1-3.73,1.46-5.63,1.82-7.06,2.32-9.22,3.47-10.62a7.48,7.48,0,0,1,.74-1c.38-.34.67.26.76,1.68a29.53,29.53,0,0,1-.67,6.21,224.93,224.93,0,0,1-6.4,23.75c-2.57,7.93-5.45,15.89-8.64,23.74A257.49,257.49,0,0,1,359.81,450Z"/><path class="cls-1" d="M377.7,262.78a54.79,54.79,0,0,0-5.11,4.67c-.58.61-1.07,1.3-1.66,1.92a50.14,50.14,0,0,0-5.43,7.12,18.33,18.33,0,0,0-1,1.74c-.25.6-.51,1.21-.77,1.81-.3.78-.49,1.6-.77,2.39a14.55,14.55,0,0,1-.84,2.34c-.24.47-1,.25-1.7-.38a2.94,2.94,0,0,1-.91-2.76,28.07,28.07,0,0,1,5.42-9.76c1.46-1.67,2.68-3.59,4.19-5.26a55.59,55.59,0,0,1,5.24-5.17,45.48,45.48,0,0,1,3.57-2.85c.49-.33,1-.66,1.5-1l.83-.44a5.79,5.79,0,0,1,1.08-.31,7.85,7.85,0,0,1,3.79.37,7.3,7.3,0,0,1,4.16,4.24,9.34,9.34,0,0,1,.41,1.23c.32,1.56.05,2.08-.78,2.41a4.43,4.43,0,0,1-.58.2c-.67.13-1.19-.43-1.48-1.29a7.65,7.65,0,0,0-1.7-3.14,3.39,3.39,0,0,0-2.64-.94,5,5,0,0,0-.65.05l-.16,0h0a9.61,9.61,0,1,1-.17-1v.19l.05.34.06.33,0,.17h0s0,0-.06,0a10.28,10.28,0,0,0-1.22.72,30,30,0,0,0-2.68,2Z"/><path class="cls-1" d="M393.36,281.16a.34.34,0,0,0,.07-.19c0-.06.06-.07,0-.22a5.42,5.42,0,0,0-.07-.86,12.38,12.38,0,0,0-.44-1.82,9.49,9.49,0,0,0-.58-1.15,3.83,3.83,0,0,0-.47-.74.63.63,0,0,0-.38-.26.83.83,0,0,0-.27,0,2.63,2.63,0,0,0-.45.15,5.76,5.76,0,0,0-1,.6,9.23,9.23,0,0,0-1.64,1.61,8.11,8.11,0,0,1-2.23,2.26c-.33.18-.77-.45-1.08-1.17s-.52-1.52-.14-1.95a22.15,22.15,0,0,1,2.33-2.31,11.58,11.58,0,0,1,1.49-1.06,6.28,6.28,0,0,1,2-.79,3.6,3.6,0,0,1,3.09.71,5.8,5.8,0,0,1,1.54,2,13.15,13.15,0,0,1,1.2,4.62,4.84,4.84,0,0,1-1.17,3.12,17.62,17.62,0,0,1-3.22,2.83c-.85.64-1.64,1.36-2.51,2-.19.14-.37.29-.57.41-.76.45-1.12.38-1.6-.26a3.61,3.61,0,0,1-.33-.44,1.18,1.18,0,0,1,.23-1.52c1.3-1.23,2.81-2.22,4.12-3.3a11.62,11.62,0,0,0,1.29-1.2,3,3,0,0,0,.7-1.07Z"/><path class="cls-1" d="M377.42,319.59a79.43,79.43,0,0,1,4.14-8.64,27.9,27.9,0,0,1,1.9-3.11c.18-.22.4-.45.59-.68l.31-.33.26-.26,1.05-1c.68-.69,1.35-1.4,2-2.12,1.3-1.46,2.52-3,3.7-4.6a23.85,23.85,0,0,0,1.42-2.13,8.55,8.55,0,0,0,.81-2.2,8,8,0,0,0,.08-2.92,7.67,7.67,0,0,0-.85-2.55c-.26-.48.31-1.09,1.35-1.1a2.35,2.35,0,0,1,.84.16,2.65,2.65,0,0,1,.87.5,3.48,3.48,0,0,1,1.2,2,10.74,10.74,0,0,1-.11,4.31,11.72,11.72,0,0,1-1.64,3.86c-.21.32-.36.52-.54.77l-.53.7-1.08,1.4c-.74.93-1.52,1.84-2.35,2.72l-2.94,3.23-.75.81c-.23.25-.56.56-.71.76a16.46,16.46,0,0,0-1.11,1.51,58.44,58.44,0,0,0-4.17,8.16c-.76,1.74-1.45,3.53-2.09,5.32a75.25,75.25,0,0,0-2.45,8.32,50.71,50.71,0,0,0-.83,6.56c0,.48,0,.95-.1,1.43-.14,1.79-.39,2.33-1.28,2.66a5.53,5.53,0,0,1-.61.21c-.68.13-1.15-.66-1.21-2a43.43,43.43,0,0,1,1.72-12.59,91.29,91.29,0,0,1,3-9.13Z"/><path class="cls-1" d="M383.94,264.63c.37-.17.76-.32,1.15-.46l.6-.2.78-.22a3.34,3.34,0,0,1,2.44.34,7.61,7.61,0,0,1,.94.6,4,4,0,0,1,.62.61,11.58,11.58,0,0,1,2.08,4.86,22.73,22.73,0,0,1,.4,2.29,5.87,5.87,0,0,1,0,1.62,2.55,2.55,0,0,1-.84,1.56c-.32.27-.88-.36-1.44-1s-1.2-1.06-1.17-1.26a13.33,13.33,0,0,0-.21-3.93,4.57,4.57,0,0,0-1.34-2.26l-.13-.13-.06-.06-.16-.13a.67.67,0,0,0-.42-.08,3,3,0,0,0-.47.13c-.19.06-.39.12-.59.2a12.24,12.24,0,0,0-1.87.89,14.1,14.1,0,0,0-2.61,1.89,11.68,11.68,0,0,0-1.49,2c-.1.16-.17.32-.28.47-.41.53-.7.56-1.45.12-.18-.1-.35-.19-.52-.3a1.23,1.23,0,0,1-.57-1.48,10.18,10.18,0,0,1,3.2-4,18.85,18.85,0,0,1,3.38-2.15Z"/><path class="cls-1" d="M368.68,356.66c-2.08-.53-4.14-1.12-6.19-1.74-.74-.23-1.51-.37-2.25-.62-2.62-.88-5.18-1.89-7.72-3-1.13-.49-2.29-.91-3.43-1.38a24,24,0,0,1-2.22-1,5.59,5.59,0,0,1-2-1.72c-.38-.61.46-.9,1.27-1.19s1.66-.63,2.31-.25c2.41,1.33,5.3,2.53,8.07,3.92a36.25,36.25,0,0,0,5.42,1.8c2,.61,4,1.2,6.07,1.72,1.26.32,2.52.64,3.79.9a57.71,57.71,0,0,0,5.8,1,39.84,39.84,0,0,0,4.5.08c.33,0,.66,0,1,0,1.22,0,1.59.26,1.82,1.13a4.56,4.56,0,0,1,.14.59c.09.67-.44,1.19-1.38,1.33a30.29,30.29,0,0,1-8.59-.26c-2.14-.32-4.27-.78-6.38-1.25Z"/><path class="cls-1" d="M297.33,353.5c-2.05-2.17-4.06-4.38-6.05-6.6-.74-.8-1.52-1.56-2.23-2.38-2.52-2.89-4.93-5.86-7.35-8.82-1.08-1.31-2.21-2.59-3.34-3.84a26.07,26.07,0,0,1-4.08-5.15c-.33-.63.42-1,1.41-1a3.78,3.78,0,0,1,3,1.23c2.77,3.33,5.55,6.71,8.17,10.29,1.58,2.13,3.54,4.06,5.35,6.07,2,2.21,4,4.41,6,6.57,1.25,1.34,2.54,2.63,3.82,3.94l3,2.88c1,.94,2.05,1.86,3.09,2.74a49.21,49.21,0,0,0,5.17,3.58l1.16.72c1.45.86,1.78,1.33,1.65,2.27a4.17,4.17,0,0,1-.08.63c-.19.67-1.08.75-2.3.19a42.26,42.26,0,0,1-9.9-6.95c-2.26-2-4.41-4.15-6.53-6.29Z"/><path class="cls-1" d="M318.47,317.17c-.71,2.45-1.49,4.89-2.3,7.31-.31.88-.5,1.8-.83,2.67-1.13,3.09-2.41,6.12-3.78,9.12q-.48,1-.9,2l-.91,2c-.37.86-.83,1.72-1.28,2.58a7.54,7.54,0,0,1-2.06,2.29c-.55.41-.94-.35-1.18-1.27a6.84,6.84,0,0,1-.21-1.35,2.16,2.16,0,0,1,.31-1.32,11.21,11.21,0,0,0,.65-1.09c.21-.38.44-.73.64-1.14.39-.81.84-1.56,1.22-2.4l2.47-5a49.34,49.34,0,0,0,2.35-6.44c.8-2.39,1.59-4.79,2.29-7.22.44-1.5.87-3,1.24-4.5.3-1.15.58-2.29.84-3.44s.51-2.31.68-3.46c.31-1.8.35-3.59.48-5.38,0-.4,0-.79,0-1.18.13-1.47.4-1.9,1.29-2.13.2,0,.4-.12.6-.15.68-.07,1.15.59,1.2,1.72a41.23,41.23,0,0,1-1,10.18c-.5,2.53-1.14,5-1.8,7.53Z"/><path class="cls-1" d="M324.24,229.7a17.31,17.31,0,0,0,1.72,7.13c.26.56.6,1.08.89,1.63s.71,1,1.08,1.53a15.29,15.29,0,0,0,2.61,2.6,18.09,18.09,0,0,0,4.82,2.55,22.94,22.94,0,0,0,2.86.84c.48.1,1,.2,1.47.27l.73.09.26,0,.34,0,.68,0,1.08,1,.68.63,1.34,1.27,2.66,2.57q2.63,2.59,5.21,5.23c2.19,2.26,4.41,4.51,6.54,6.81,1.37,1.48,2.74,3,4,4.61a23.88,23.88,0,0,1,1.74,2.59,10.63,10.63,0,0,1,1.25,3.06c.14.75-.08,1.13-.39,1.12a2.92,2.92,0,0,1-1.28-.63,14.61,14.61,0,0,1-3.74-3.49,109,109,0,0,0-7.73-9c-2.74-2.94-5.56-5.86-8.39-8.79-.72-.74-1.46-1.47-2.22-2.2l-1.15-1.07-.58-.53a1.54,1.54,0,0,0-.19-.17c-.13,0-.13,0-.64,0s-.77-.09-1.16-.14c-.76-.12-1.52-.26-2.28-.45a21.61,21.61,0,0,1-4.38-1.57,18.7,18.7,0,0,1-6.84-5.61,20.85,20.85,0,0,1-3.67-7.95,22.08,22.08,0,0,1-.46-5.37,24.56,24.56,0,0,1,.84-5.26,26.1,26.1,0,0,1,2.4-5.9l.29,1.28,0,0-.81-.6.59-.78c1.87-2.51,3.84-4.92,5.83-7.27,2.58-3,5.09-6.05,7.7-9,.57-.65,1.11-1.3,1.71-1.94,2.19-2.37,3.06-3,4.15-2.87a4.14,4.14,0,0,1,.74.07c.69.24.18,1.57-1.32,3.41-4.44,5.46-9.48,10.8-14,16.51-.76,1-1.51,2-2.25,2.95l-.49-3.06,0,0,1.56,1.14-.93,1.69a21.69,21.69,0,0,0-2.8,11.07Z"/><path class="cls-1" d="M405.74,210.71c-4.53,1.91-9,3.95-13.43,6.12-1.62.79-3.17,1.7-4.77,2.51-5.63,2.89-11.2,5.92-16.55,9.3-2.37,1.51-4.68,3.14-6.86,4.85-2.81,2.21-5.41,4.64-8.13,6.87-.85.69-1.36,0-1.25-1.21a7.12,7.12,0,0,1,2.5-4.48,100.28,100.28,0,0,1,18.64-12.48c4-2.09,7.93-4.5,12-6.59,4.46-2.3,9-4.44,13.59-6.47,2.82-1.26,5.67-2.44,8.53-3.6,4.33-1.76,8.75-3.34,13.15-4.83,3.43-1.16,6.78-2.36,10.31-3.23.77-.2,1.53-.4,2.33-.53a11.42,11.42,0,0,1,3.21-.23,2.09,2.09,0,0,1,1.46.79,3.16,3.16,0,0,1,.43.57c.13.32-.09.63-.59.9a11.44,11.44,0,0,1-2.29.69,153,153,0,0,0-18.45,5.62c-4.62,1.69-9.24,3.52-13.78,5.5Z"/><path class="cls-1" d="M457.09,180.8a39.64,39.64,0,0,1,.11,6.73,18.9,18.9,0,0,1-.6,3.53,8.66,8.66,0,0,1-.75,1.85,6.46,6.46,0,0,1-.62.92,5.72,5.72,0,0,1-.84.8,6,6,0,0,1-4.09,1.2,10.46,10.46,0,0,1-3.61-1,27.45,27.45,0,0,1-5.67-3.74,54.06,54.06,0,0,1-6.79-6.74,87.08,87.08,0,0,1-9.64-13.62,77.36,77.36,0,0,1-6.79-15.28,54.32,54.32,0,0,1-1.8-7.24,51.47,51.47,0,0,1-.89-7.42,34.8,34.8,0,0,1,.8-9.67,16.9,16.9,0,0,1,1.95-4.63,9.71,9.71,0,0,1,3.7-3.66,2.71,2.71,0,0,1,1.17-.36c.27,0,.41.06.45.2.07.29-.31.77-.73,1.5a25.87,25.87,0,0,0-2.37,7,31.67,31.67,0,0,0-.83,4.21,35.78,35.78,0,0,0-.23,4.41,49.62,49.62,0,0,0,.92,9,85.77,85.77,0,0,0,2.23,8.9,72.64,72.64,0,0,0,3.39,8.69,79.53,79.53,0,0,0,13.15,18.78,49.93,49.93,0,0,0,4.55,4.31,19.53,19.53,0,0,0,5.13,3.21,6.11,6.11,0,0,0,2.63.45,3,3,0,0,0,1.12-.31,3.11,3.11,0,0,0,.89-.69,5.7,5.7,0,0,0,1-2.44,16.49,16.49,0,0,0,.21-3,72,72,0,0,0-2.4-15.33A138.91,138.91,0,0,0,444,148.83a80.56,80.56,0,0,0-9.15-15.54c-.81-1-1.64-2-2.52-2.91a34.72,34.72,0,0,0-3.59-3.28,7,7,0,0,1-1.61-1.62c-.17-.26-.46-.49-.59-.73s-.06-.35.15-.49a2.23,2.23,0,0,1,1.17-.22,6.11,6.11,0,0,1,2,.43,11.78,11.78,0,0,1,2.39,1.35,30.88,30.88,0,0,1,6.11,6.3,66.72,66.72,0,0,1,4.76,7.3,119.22,119.22,0,0,1,7.4,15.91,130.63,130.63,0,0,1,4,12.48,99.19,99.19,0,0,1,2.65,13Z"/><path class="cls-1" d="M363.35,249.31c.56.81,1.11,1.63,1.72,2.41.21.29.49.53.71.82.76,1,1.52,2.06,2.35,3a12.34,12.34,0,0,0,1.17,1.23,5.94,5.94,0,0,1,1.49,1.59c.11.22-.26.56-.74.8a1.58,1.58,0,0,1-1.45.11,12,12,0,0,1-3.11-3.28,20.09,20.09,0,0,0-1.84-2.09c-.65-.78-1.29-1.59-1.91-2.4L360.61,250c-.57-.76-1.08-1.57-1.68-2.31a7.1,7.1,0,0,0-.75-.8c-.24-.27-.49-.54-.73-.82a3.79,3.79,0,0,1-.31-.37.92.92,0,0,1,.16-1.21c.08-.09.15-.18.23-.26a1,1,0,0,1,1.14,0,3.86,3.86,0,0,1,.88.55c.26.21.53.41.77.64.46.47.88,1,1.3,1.49.62.75,1.2,1.56,1.78,2.35Z"/><path class="cls-1" d="M338.5,218.13a32.32,32.32,0,0,1-1.17-5c-.09-.62-.23-1.23-.29-1.86a25.65,25.65,0,0,1,.45-6.61c.05-.48.2-1,.28-1.44a14.38,14.38,0,0,1,.27-1.43c.15-.61.25-1.23.43-1.84a6.25,6.25,0,0,1,.91-1.66c.25-.31,1,.12,1.57.74s1.12,1.42.9,2a55,55,0,0,0-1.72,6.32,6.82,6.82,0,0,0-.11,2.07l.08,1.05c0,.34.11.69.14,1a29.16,29.16,0,0,0,.89,4.58,26.13,26.13,0,0,0,1,2.74,20.3,20.3,0,0,0,.92,2,14,14,0,0,0,1.13,1.9,15.26,15.26,0,0,0,2.32,2.43l.55.47c.66.61.7,1,.24,1.72a5.48,5.48,0,0,1-.31.52,1.2,1.2,0,0,1-1.71.24,14.77,14.77,0,0,1-4.65-5.11,29.38,29.38,0,0,1-2.16-4.78Z"/><path class="cls-1" d="M353.92,198.29a26.56,26.56,0,0,1-1.57-7.91c-.06-.94-.2-1.88-.2-2.82a41.13,41.13,0,0,1,.29-5,23.89,23.89,0,0,1,1.06-5,5.73,5.73,0,0,1,1.42-2.35,15.16,15.16,0,0,1,7.51-3c.67,0,.59.87.26,1.72a3.25,3.25,0,0,1-1.76,2.06c-.73.24-1.46.52-2.15.82a11,11,0,0,0-1.75.93c0-.06-.14.12-.3.41a7.54,7.54,0,0,0-.44,1.08,25.22,25.22,0,0,0-.71,2.64,26,26,0,0,0-.24,6.55,32.67,32.67,0,0,0,1,7.12,9.88,9.88,0,0,0,.73,1.94,3.71,3.71,0,0,0,.49.73,1.3,1.3,0,0,0,.53.38,1.27,1.27,0,0,0,.37.1s0,0,.12-.06a2.69,2.69,0,0,0,.48-1.13,20.36,20.36,0,0,0,.4-3.34,33.68,33.68,0,0,1,.45-5.61,7.84,7.84,0,0,1,.42-1.33,3.06,3.06,0,0,1,1.33-1.55,1.11,1.11,0,0,1,1.21.15,2.67,2.67,0,0,1,.47.4,1.3,1.3,0,0,1,.22.89,2.87,2.87,0,0,1-.22.91,14.91,14.91,0,0,0-.62,3.93c-.1,1.55-.13,3.19-.36,5a10.28,10.28,0,0,1-.53,2.31,7.34,7.34,0,0,1-.33.71,4.81,4.81,0,0,1-.27.41,2.29,2.29,0,0,1-.34.41,3.22,3.22,0,0,1-2.29,1,4.07,4.07,0,0,1-1.86-.38,5.8,5.8,0,0,1-.8-.45,6.84,6.84,0,0,1-.64-.55,7.94,7.94,0,0,1-1.41-2.18Z"/><path class="cls-1" d="M344,206.17a13.46,13.46,0,0,1-.44-2c-.1-.63-.16-1.24-.21-1.85-.09-1.22-.12-2.41-.11-3.6,0-.86-.05-1.72,0-2.58.11-1.52.29-3,.55-4.52.13-.75.29-1.51.47-2.26.09-.38.19-.76.32-1.15a6.55,6.55,0,0,1,.48-1.23,5.49,5.49,0,0,1,1.65-1.87,9.68,9.68,0,0,1,1.92-1.12,11.19,11.19,0,0,1,5.13-1.23c1.08.08.12,3.28-1.53,3.66a11.3,11.3,0,0,0-3.75,1.43,2.5,2.5,0,0,0-.47.41c-.06.06-.08.12-.15.18s-.13.28-.19.45c-.26.66-.49,1.44-.72,2.22a26.09,26.09,0,0,0-.59,6,33.67,33.67,0,0,0,.29,6.61,12,12,0,0,0,.37,1.57,1.49,1.49,0,0,0,.63.87.92.92,0,0,0,.27.08c.56.07.94-.45,1.09-1a2.64,2.64,0,0,0,.12-.4c.05-.22.1-.45.14-.68.08-.46.15-.94.21-1.42a27.64,27.64,0,0,1,.72-5.17,6.42,6.42,0,0,1,.48-1.22,2.81,2.81,0,0,1,1.33-1.31,1.08,1.08,0,0,1,1.13.24,3,3,0,0,1,.46.41,1.78,1.78,0,0,1,0,1.76,12.66,12.66,0,0,0-.75,3.48l-.24,2.2a24.48,24.48,0,0,1-.41,2.51,6.38,6.38,0,0,1-1.47,3,3.81,3.81,0,0,1-2.76,1.14,4.73,4.73,0,0,1-1.35-.3,2.34,2.34,0,0,1-.6-.33,2.87,2.87,0,0,1-.54-.45,6.52,6.52,0,0,1-1.55-2.64Z"/><path class="cls-1" d="M400.53,142.82c-1.84,1.61-3.68,3.24-5.5,4.89-.66.6-1.26,1.27-1.93,1.87L386,155.87c-1,.93-2,1.94-3,2.95a21.77,21.77,0,0,1-3.93,3.68c-1,.61-2-2.62-.58-4a90.78,90.78,0,0,1,8.22-7.25c1.75-1.35,3.29-3.06,4.94-4.59l5.5-5,3.41-3.07c1.71-1.56,3.47-3.07,5.14-4.66,1.29-1.23,2.45-2.57,3.71-3.83.27-.28.52-.58.81-.85,1.1-1,1.6-1.11,2.38-.64a3.46,3.46,0,0,1,.52.32c.52.43.41,1.23-.27,2a76.38,76.38,0,0,1-6.8,6.93l-5.45,5Z"/><path class="cls-1" d="M373.08,167c-.63.06-1.25.14-1.85.22l-1.48.23c-.59.1-1.17.21-1.72.35a11.62,11.62,0,0,0-1.54.49,3.91,3.91,0,0,0-.58.29l-.19.12s-.05,0-.06.06a.22.22,0,0,0-.08.13,3.7,3.7,0,0,0-.14.49c-.09.39-.16.81-.22,1.25-.11.88-.18,1.8-.22,2.72-.06,1.57,0,3.16.08,4.75a54.41,54.41,0,0,0,.82,8.3,16,16,0,0,0,1.11,3.75,1.43,1.43,0,0,0,.61.7.8.8,0,0,0,.87-.29,2,2,0,0,0,.27-.38,6.36,6.36,0,0,0,.36-.74,12.56,12.56,0,0,0,.55-1.67,25.59,25.59,0,0,0,.64-3.6,79.84,79.84,0,0,0,.21-9.37c-.06-.85.75-1.05,1.71-.3a5.79,5.79,0,0,1,1.84,4.41,42.94,42.94,0,0,1-.34,5.19,27.85,27.85,0,0,1-1.13,5.23,13.05,13.05,0,0,1-.51,1.34c-.09.23-.22.46-.32.69s-.14.23-.2.35a4.51,4.51,0,0,1-.3.47,5.52,5.52,0,0,1-1.62,1.61,4.83,4.83,0,0,1-1,.4,5.57,5.57,0,0,1-1.07.08,3.75,3.75,0,0,1-1.95-.86c-.25-.29-.52-.53-.74-.84s-.43-.65-.59-1a13.43,13.43,0,0,1-.92-2.72,66.84,66.84,0,0,1-1.5-12.53c0-1.49,0-3,.11-4.49.06-.76.12-1.52.25-2.3.07-.39.14-.78.25-1.21a4.45,4.45,0,0,1,.64-1.45,3.69,3.69,0,0,1,.66-.65,5.21,5.21,0,0,1,.64-.44,9.27,9.27,0,0,1,1.25-.58,16.72,16.72,0,0,1,2.45-.69l1.06-.2.41-.07.24,0,1-.11,1.09-.08a1.68,1.68,0,0,0,.53-.09l-.43-.25c-.3-.18-.6-.37-.91-.58s-.73-.51-1.12-.82a20.32,20.32,0,0,1-2.05-1.8,8.84,8.84,0,0,1-1.75-2.32,3.77,3.77,0,0,1-.42-1.66,3,3,0,0,1,.53-1.74,4.47,4.47,0,0,1,1.12-1.1,6.24,6.24,0,0,1,.73-.38,4.1,4.1,0,0,1,.73-.23,8.76,8.76,0,0,1,2.73-.11,22.85,22.85,0,0,1,4.93,1c.7.22,1.39.43,2.07.71,2.52,1.07,3.2,1.8,3.23,2.82a2.26,2.26,0,0,1,0,.69c-.2.68-1.25.54-3-.09a34.21,34.21,0,0,0-7.84-2,8.61,8.61,0,0,0-.87,0l-.36,0a.92.92,0,0,0-.3.06c-.06,0-.21,0-.2.06s0,0-.1,0a2.32,2.32,0,0,0-.28.25s0,0,0,0,0-.05,0,.1a4.24,4.24,0,0,0,.79,1.17,16.19,16.19,0,0,0,1.9,1.73l.27.21.58.43c.41.28.8.57,1.24.85.84.56,1.78,1.1,2.75,1.64l.69.53c.12.16.19.32.29.47l.23.42a.91.91,0,0,1,.09.34c0,.42-.23.57-.24,1a1,1,0,0,1-.34.48,2.19,2.19,0,0,1-.67.56c-.6.41-2.18.45-3.38.61Z"/><path class="cls-1" d="M432.43,146.39c-1.71,2.83.39,7.37,1.59,10,.94,2,3.16,7,6.21,5.87,3.42-1.22,1.39-6.86.52-9.08-1-2.68-2.89-7.62-6.1-8.41-2-.5-2.9,2.63-.87,3.13,1.59.39,3,4.11,3.54,5.42a22.12,22.12,0,0,1,1.2,3.46,11.72,11.72,0,0,0,.32,1.94v.4q-.22.7.78.06c0-.28-1.21-1.47-1.41-1.79a22.42,22.42,0,0,1-1.67-3.32c-.55-1.31-2.15-4.66-1.31-6.05a1.62,1.62,0,0,0-2.8-1.64Z"/><path class="cls-1" d="M177.64,466H141.37l-13.22.11-46.63-.14c-6.9,0-13.83.07-20.68.15-8.8.09-17.6.43-26.45-.14a5.29,5.29,0,0,1-1.65-.33c-.41-.17-.52-.35-.44-.5a1.85,1.85,0,0,1,.73-.48,10.07,10.07,0,0,1,1.38-.58A39.47,39.47,0,0,1,46,462.44c17.93,0,35.88-.06,54,.28,10.83.19,22.09-.06,33.17-.1l36.53-.08,22.48-.06c11.35-.06,22.75-.06,34-.22,8.75-.11,17.34-.43,26-.64l5.7-.15c7.13-.1,9.4.14,10.93,1.07a5.93,5.93,0,0,1,1,.63c.68.72-2.22,1.3-7.43,1.53-15.47.69-31.78.94-48.16,1.1l-36.59.23Z"/><path class="cls-1" d="M399,465.32l-8.65-.13c-1,0-2.1.08-3.15.06L376.06,465c-1.65,0-3.31,0-4.94.1a28.33,28.33,0,0,1-6.31,0c-1.31-.24.38-3.58,2.77-3.61a125.59,125.59,0,0,1,12.83.4c2.58.23,5.26,0,7.9,0l8.71.05,5.37,0c2.7,0,5.43.05,8.12,0,2.09-.06,4.13-.31,6.21-.46.45,0,.9-.1,1.36-.11,1.71-.05,2.25.19,2.6,1.12a3.77,3.77,0,0,1,.23.64c.15.71-.55,1.3-1.78,1.5a82.17,82.17,0,0,1-11.43.77c-2.89,0-5.8,0-8.71,0Z"/><path class="cls-1" d="M30,394.28l.28-22.67c0-2.76-.05-5.51,0-8.27l.44-29.14c.05-4.31,0-8.64-.08-12.92-.08-2.74-.07-5.5,0-8.25,0-1.37,0-2.75.14-4.13l.43-4.12c.21-1.71.5-1.49,1,0,.27.72.61,1.75,1,3,.18.62.4,1.29.54,2A22.57,22.57,0,0,1,34,312l.21,4.2.1,2.1v2.11l0,8.42q-.08,8.42-.39,16.9c-.25,6.76-.05,13.8-.08,20.72q-.09,11.4-.16,22.82l-.12,14.05c-.05,7.09-.13,14.22-.07,21.25,0,5.48.34,10.83.39,16.24,0,1.19.07,2.35.06,3.55,0,4.46-.25,5.88-1,6.85a3.94,3.94,0,0,1-.48.64c-.5.44-1.05-1.36-1.31-4.62-.17-2.41-.34-4.86-.51-7.33s-.3-5-.35-7.49c-.15-5-.23-10.15-.28-15.26-.08-7.61-.07-15.25-.1-22.87Z"/><path class="cls-1" d="M29.37,225.91,29.74,210c0-1.94,0-3.88,0-5.81.17-6.83.39-13.66.51-20.49.05-3,0-6.07-.09-9.07-.08-1.93-.08-3.87-.07-5.8,0-1,0-1.93.1-2.89s.23-1.92.35-2.89c.16-1.19.46-1.07,1-.08A23.09,23.09,0,0,1,32.66,165a7.06,7.06,0,0,1,.83,3l.24,3,.11,1.48V174c0,2,0,3.95,0,5.93q-.07,5.94-.41,11.9c-.27,4.76-.1,9.71-.15,14.58L33,222.43c-.06,3.29-.12,6.59-.17,9.88-.07,5-.18,10-.13,14.95,0,3.84.32,7.61.36,11.42,0,.83.07,1.65.06,2.5,0,3.13-.25,4.12-1,4.8a3.26,3.26,0,0,1-.48.45c-.51.3-1.05-1-1.31-3.26-.35-3.4-.74-6.89-.85-10.44s-.21-7.13-.24-10.73c-.06-5.35,0-10.72,0-16.09Z"/><path class="cls-1" d="M168.75,79.22a12.6,12.6,0,0,0,2.49-6.41,5,5,0,0,0-.72-2.79,2.44,2.44,0,0,0-2.36-1.22c-.6.11-1,.22-1.08,0s0-.32.21-.57a2,2,0,0,1,1.15-.64,3.92,3.92,0,0,1,3.08.81,6,6,0,0,1,1.85,2.39,9.06,9.06,0,0,1,.36,5.78,16.91,16.91,0,0,1-3.23,6.21,34.35,34.35,0,0,1-4.33,4.41c-1.67,1.48-3.54,3-5.52,4.41A84.63,84.63,0,0,1,148,99.23a49.45,49.45,0,0,1-11.18,4,23.72,23.72,0,0,1-8.89.33,16,16,0,0,1-4.6-1.57c-.37-.18-.71-.43-1.07-.65a8.21,8.21,0,0,1-1-.73l-1-.82c-.31-.3-.62-.68-.92-1a10.89,10.89,0,0,1-2.24-5,14.79,14.79,0,0,1,0-5,27.51,27.51,0,0,1,3-8.32,18.87,18.87,0,0,1,1.17-1.94c.23-.33.45-.67.69-1l.71-.87a21.54,21.54,0,0,1,1.47-1.65c.5-.53,1-1,1.52-1.51a62.11,62.11,0,0,1,6.46-5.33,75.74,75.74,0,0,1,6.93-4.54,59.63,59.63,0,0,1,7.5-3.75,31.86,31.86,0,0,1,8.56-2.34,17.76,17.76,0,0,1,4.8.14,10.46,10.46,0,0,1,2.65.79,8.73,8.73,0,0,1,2.61,1.83,8.08,8.08,0,0,1,1.7,2.86,10.38,10.38,0,0,1,.37,1.51c0,.48.1,1,.12,1.43a12.94,12.94,0,0,1-1.18,5.23,23.54,23.54,0,0,1-5.7,7.25,48.48,48.48,0,0,1-6.05,4.54,67.3,67.3,0,0,1-6.41,3.67,74.85,74.85,0,0,1-11.74,4.69,44.07,44.07,0,0,1-12.8,2.16,20.66,20.66,0,0,1-7-1.17A13.54,13.54,0,0,1,110.51,88a14.86,14.86,0,0,1-2.81-6.91,15.73,15.73,0,0,1,.84-7.31,22.75,22.75,0,0,1,2.06-4.2c.81-1.29,1.68-2.49,2.54-3.63a44.73,44.73,0,0,1,10.54-9.1,59.91,59.91,0,0,1,10.09-5.3,28.83,28.83,0,0,1,6.16-1.71,12.59,12.59,0,0,1,3.75,0,8.16,8.16,0,0,1,2.32.75,9.82,9.82,0,0,1,1.14.76,12.38,12.38,0,0,1,.93,1,7.3,7.3,0,0,1,.8,1.39,6.51,6.51,0,0,1,.46,1.5,7.24,7.24,0,0,1-.07,2.84A11.48,11.48,0,0,1,147.5,62a27.32,27.32,0,0,1-4.19,4.68,53,53,0,0,1-5.71,4.45,55.84,55.84,0,0,1-9.78,5.38A46.76,46.76,0,0,1,117,79.7a25.79,25.79,0,0,1-5.92.26A14.54,14.54,0,0,1,105,78.14a9.3,9.3,0,0,1-4.43-5.34,13.4,13.4,0,0,1-.34-6.37,18.35,18.35,0,0,1,2.16-6.3,32.87,32.87,0,0,1,4.28-5.55A36.38,36.38,0,0,1,111.76,50,39.34,39.34,0,0,1,120,45.38,31.3,31.3,0,0,1,129.2,43a17,17,0,0,1,9.2,1.69c2.47,1.39.79,1.18-.05.85-2.6-.78-.62.26-.51.56,0,.1.1.23,0,.25s-.54-.19-1.44-.37a15.6,15.6,0,0,0-3.75-.33,27,27,0,0,0-11.3,2.88,36.6,36.6,0,0,0-10.09,7.13A24.66,24.66,0,0,0,107,61.19a16.39,16.39,0,0,0-.92,2A16.56,16.56,0,0,0,105,68.24a7.73,7.73,0,0,0,.39,2.94,4,4,0,0,0,1.72,2.14,8.45,8.45,0,0,0,3.4,1.19,17.66,17.66,0,0,0,4.29,0,36.61,36.61,0,0,0,9-2.53,47.55,47.55,0,0,0,7.69-4,52.18,52.18,0,0,0,8.41-6.56,23.16,23.16,0,0,0,2.56-2.92,4.43,4.43,0,0,0,1-2.17,1.26,1.26,0,0,0-.1-.3s0,0-.09-.07-.05,0-.06,0-.17,0-.3-.09a9.42,9.42,0,0,0-3.68.36,40.08,40.08,0,0,0-11.67,5.52A44.26,44.26,0,0,0,117.83,70,20,20,0,0,0,114.71,75a9,9,0,0,0,.48,8.91,7.18,7.18,0,0,0,3.26,2.76,14.81,14.81,0,0,0,4.93,1.1,20,20,0,0,0,4.52-.31,52.24,52.24,0,0,0,9.85-2.74,72.43,72.43,0,0,0,9.43-4.3,59.31,59.31,0,0,0,8.62-5.7,24.33,24.33,0,0,0,3.47-3.4,10.36,10.36,0,0,0,2-3.69l.13-.46a3.73,3.73,0,0,0,0-.46l0-.45c0-.15,0-.29,0-.43a2.69,2.69,0,0,0-.39-1.28,2.36,2.36,0,0,0-1-.78,6.18,6.18,0,0,0-1.91-.44,14.89,14.89,0,0,0-2.32,0,10.86,10.86,0,0,0-1.18.15c-.4.08-.77.09-1.18.21a24.29,24.29,0,0,0-2.4.72l-1.21.42-1.2.51c-1.16.46-2.32,1-3.48,1.53l-2.15,1.11L141,69.14a74.89,74.89,0,0,0-10.16,7.54,36.44,36.44,0,0,0-4.17,4.4l-.76,1.13c-.25.43-.51.87-.74,1.32a25.55,25.55,0,0,0-1.24,2.72,15,15,0,0,0-1.14,5.41,6.92,6.92,0,0,0,.41,2.3,4.91,4.91,0,0,0,1.21,1.78c2.4,2.35,6.26,2.92,10.19,2.31a38.42,38.42,0,0,0,4.89-1,54.06,54.06,0,0,0,7.45-2.77,72.7,72.7,0,0,0,12-6.87c1-.75,3.31-2.22,5.4-3.85A23,23,0,0,0,168.75,79.22Z"/><path class="cls-1" d="M223,186.41a9.83,9.83,0,0,1-1.31,3,7.57,7.57,0,0,1-1.11,1.29l-.65.57c-.24.17-.49.31-.73.46a8.92,8.92,0,0,1-6.22.88c-.72-.11-1.38-.33-2.07-.5a17.6,17.6,0,0,1-1.9-.78,29.21,29.21,0,0,1-10-9.24c-1.17-1.6-2.31-3.21-3.38-4.84a30,30,0,0,1-3.65-6.5c-.51-1.48,3.35-1.29,4.72,1.1a84.67,84.67,0,0,0,8,12,16.84,16.84,0,0,0,3.2,2.87,16.58,16.58,0,0,0,1.85,1.09l.95.49,1,.39a8.6,8.6,0,0,0,4.2.65,4.3,4.3,0,0,0,3.17-2,8.91,8.91,0,0,0,.9-5.32,23.42,23.42,0,0,0-.94-4.45c-.43-1.49-1-3-1.54-4.41-.9-2.26-2-4.44-2.88-6.79-.18-.51-.4-1-.55-1.55-.57-2-.42-2.7.4-3.29a4.12,4.12,0,0,1,.57-.39c.68-.3,1.38.38,1.89,1.69.76,2,1.58,3.91,2.43,5.93s1.74,4.15,2.51,6.4a35.39,35.39,0,0,1,1.41,5.28,15.73,15.73,0,0,1-.09,6Z"/><path class="cls-1" d="M249.15,178.8a7.71,7.71,0,0,1-1.51,2.51,5.74,5.74,0,0,1-2.79,1.72,7.59,7.59,0,0,1-5.58-.86,15.38,15.38,0,0,1-3-2,49.3,49.3,0,0,1-7.32-8.92c-.95-1.39-1.94-2.74-2.91-4.08a26.69,26.69,0,0,1-3.42-5.35c-.52-1.23,3.21-1.63,4.54.38,2.36,3.54,4.6,7.09,6.92,10.63a23.27,23.27,0,0,0,5.22,5.39,7.8,7.8,0,0,0,3.19,1.6,2.67,2.67,0,0,0,2.66-.89,8.59,8.59,0,0,0,1.43-4.38,29.73,29.73,0,0,0-.37-7.86,37.69,37.69,0,0,0-1.67-5.88c-.14-.42-.32-.83-.46-1.25-.52-1.57-.49-2.07.25-2.74.16-.15.32-.33.49-.46.58-.47,1.46,0,2,1.23A34,34,0,0,1,250,169.15a31.69,31.69,0,0,1,.13,4.69,17.38,17.38,0,0,1-.92,5Z"/><path class="cls-1" d="M226.83,171a80.77,80.77,0,0,1-5.9-11,19.88,19.88,0,0,1-1.64-4.63,9.62,9.62,0,0,1,.31-4.83,7.43,7.43,0,0,1,.46-1.13c.18-.34.37-.65.55-1a15,15,0,0,1,1.23-1.8,19.66,19.66,0,0,1,6.52-5.34,25.42,25.42,0,0,1,6.95-2.53,18.59,18.59,0,0,1,4.79-.41,11.17,11.17,0,0,1,4.68,1.34c.91.5.27,1.36-.8,2a9.3,9.3,0,0,1-1.8.83,3.91,3.91,0,0,1-1,.21,3.24,3.24,0,0,1-1,0,19.27,19.27,0,0,0-14.34,5c-.28.28-.59.55-.85.86l-.73,1a9.48,9.48,0,0,0-1,2,7.23,7.23,0,0,0,.29,4.34,44.43,44.43,0,0,0,2.33,5.36c.87,1.79,1.84,3.53,2.85,5.25a70.32,70.32,0,0,0,4.16,6.09,58.43,58.43,0,0,0,7.58,8.21,52.44,52.44,0,0,0,7,5c.53.35,1.08.62,1.61,1,2,1.27,2.47,1.85,2.32,3a5,5,0,0,1-.1.8c-.24.83-1.43.88-3.07.12a44.4,44.4,0,0,1-7-4.26,58.63,58.63,0,0,1-6.38-5.57,68.93,68.93,0,0,1-8-9.84Z"/><path class="cls-1" d="M182.81,164.27c5.38-6.45,15.19-16.21,24.51-13.24,2.61.83,3.73-3.27,1.13-4.1-11-3.49-22.23,6.64-28.65,14.34-1.74,2.09,1.25,5.11,3,3Z"/><path class="cls-1" d="M250.34,205.46c-4.62-.49-13.69,3.53-13.69,3.53s3.62,13.74,9.43,16.06a3,3,0,0,0,3.79-1.47C251,221.25,252.42,217.83,250.34,205.46Z"/><path class="cls-1" d="M192.31,343.3c3,2.15,5.93,4.46,9.16,6.31,2.79,1.61,5.31-2.71,2.52-4.31-3.23-1.86-6.13-4.17-9.16-6.32-2.63-1.87-5.13,2.47-2.52,4.32Z"/><path class="cls-1" d="M247.88,374.34c2.54-1.4,4.87-3.12,7.27-4.74,2-1.34.11-4.59-1.9-3.24-2.4,1.62-4.72,3.34-7.26,4.74-2.11,1.17-.22,4.41,1.89,3.24Z"/><path class="cls-1" d="M172.16,408.15c2.48-2.21,5.52-3.65,7.89-6,1.72-1.7-.93-4.35-2.65-2.65-2.36,2.34-5.41,3.79-7.89,6-1.81,1.61.85,4.25,2.65,2.65Z"/><path class="cls-1" d="M208.41,433.39c3.58,2.43,7.24,4.73,10.74,7.26,2,1.42,3.83-1.83,1.89-3.23-3.5-2.54-7.16-4.84-10.73-7.27-2-1.36-3.88,1.89-1.9,3.24Z"/><path class="cls-1" d="M310.79,443.83a40.93,40.93,0,0,1,5.62-5.07c2-1.35.11-4.6-1.89-3.24a45.72,45.72,0,0,0-6.38,5.66,1.87,1.87,0,0,0,2.65,2.65Z"/><path class="cls-1" d="M356.45,412.45a38.89,38.89,0,0,0-3.45,4.8c-1.24,2.07,2,4,3.24,1.89a31.77,31.77,0,0,1,2.87-4,1.93,1.93,0,0,0,0-2.65,1.89,1.89,0,0,0-2.66,0Z"/><path class="cls-1" d="M358.81,374.16a67.09,67.09,0,0,0,4.3,8.66c1.23,2.07,4.48.19,3.24-1.89a60.65,60.65,0,0,1-3.92-7.76c-.92-2.2-4.55-1.23-3.62,1Z"/><path class="cls-1" d="M175.56,467.31l-33.64.17-12.27.17-43.25.08c-6.4,0-12.83.13-19.17.24-8.16.14-16.35.48-24.51.08-5.08-.26,1.38-3.56,10.75-3.64,16.64-.15,33.28-.23,50.07,0,10,.15,20.48-.16,30.75-.24l33.89-.24,20.85-.16c10.53-.11,21.11-.16,31.55-.35,8.12-.15,16.08-.5,24.11-.73l5.28-.18c6.61-.11,8.72.12,10.15,1a5.89,5.89,0,0,1,.94.62c.63.72-2.06,1.33-6.89,1.57-14.34.74-29.47,1-44.66,1.27l-33.94.38Z"/><path class="cls-1" d="M396,466.38l-6.65-.56c-.81-.06-1.62,0-2.43-.11-2.84-.26-5.69-.55-8.53-.75-1.27-.09-2.54-.08-3.79-.06a22.28,22.28,0,0,1-4.83-.07c-1-.19.25-3,2.14-3.06a62.87,62.87,0,0,1,10,.7c2,.31,4.06.26,6.1.4l6.7.51,4.12.29c2.08.13,4.17.28,6.23.28,1.61,0,3.19-.17,4.77-.29.35,0,.69-.08,1-.09,1.3-.06,1.72.14,2,.92a3.86,3.86,0,0,1,.19.54c.13.61-.4,1.11-1.36,1.28a43.17,43.17,0,0,1-8.92.48c-2.24-.06-4.49-.21-6.74-.33Z"/><path class="cls-1" d="M335.44,214.65a22.34,22.34,0,0,1-.45-3,7.59,7.59,0,0,1-.14-1.08,14.89,14.89,0,0,1,.43-3.86c.11-.56.27-1.13.4-1.7.11-.36.23-.73.38-1.1a2.59,2.59,0,0,1,.74-.91c.21-.15.65.29,1,.8s.73,1,.58,1.27a20.21,20.21,0,0,0-1.17,3.25,6.67,6.67,0,0,0,0,2.36c0,.44.09.88.12,1.33s.14.89.22,1.33.23,1.09.41,1.62a11.39,11.39,0,0,0,.93,2.35,7.31,7.31,0,0,0,1.21,1.49c.09.1.2.18.29.29.34.36.3.57-.11,1.08-.1.12-.19.24-.29.35a.86.86,0,0,1-1.18.19,7.57,7.57,0,0,1-2.47-3.23,18.91,18.91,0,0,1-1-2.86Z"/><path class="cls-1" d="M288.16,341.14c-.79.47-.17,3.16,1.09,6.16s15.95,19.95,21.63,19.21-1.52-4.54-5.52-8.22S288.16,341.14,288.16,341.14Z"/><path class="cls-1" d="M307.36,342.15c.05-.09,4-2.85,5.63-5.8s7.58-18,6.95-20.7-2.27-1.68-2.27-1.68Z"/><path class="cls-1" d="M370.41,269.25c-1.39.29-5.71,4.17-5.71,4.17s-19.34-24.28-23.58-25.52a98.06,98.06,0,0,1-9.66-3.6c-8.84-5.26-8.28-16.55-7.52-21.26.47-2.94,3-6.61,4.78-9,1.23-1.67,5.48-5.07,6.9-5.07-4.21,6.51-7.74,13.61-5.58,20.93,1.19,4,6.66,10.17,11.7,10.1Z"/><path class="cls-1" d="M423.46,79.35c2.1,4.67,1.65,10.12,1.34,15.09-.2,3.22,4.8,3.21,5,0,.37-6,.49-12-2-17.61-1.32-2.93-5.63-.39-4.32,2.52Z"/><path class="cls-1" d="M463.45,123.51c3.87-3.17,8.6-5.11,13.21-6.94,3-1.17,1.67-6-1.33-4.82-5.47,2.17-10.82,4.47-15.42,8.22-2.49,2,1.06,5.56,3.54,3.54Z"/><path class="cls-1" d="M473,158.64c5.11-.18,10.12,1.62,14.53,4.08,2.81,1.57,5.34-2.75,2.52-4.31-5.15-2.88-11.08-5-17.05-4.77-3.2.12-3.22,5.12,0,5Z"/></g></svg>