<svg id="Layer_1" data-name="Layer 1" xmlns="http://www.w3.org/2000/svg" width="520" height="520" viewBox="0 0 520 520"><defs><style>.cls-1{fill:#221f1f;}.cls-2{fill:none;stroke:#000;stroke-linecap:round;stroke-linejoin:round;stroke-width:1.44px;}.cls-3{fill:#232020;}</style></defs><title>Notioly v2</title><g id="_12.Travel" data-name="12.Travel"><path class="cls-1" d="M289.37,460.16c.81-2,3.93-24.42,3.93-24.42l-4.9,1s-7.13,13.48-7.34,13.63c-2.56,1.91-15.27,9.47-15.56,11.43-.48,3.21,22.08-5.65,21.87-7.26a30.2,30.2,0,0,1-.52,5.24Z"/><path class="cls-1" d="M268.76,456.78c1.9-1.32,3.83-2.54,5.75-3.75l2.88-1.8,1.43-.9,1.26-.82c.05,0,0,0,.11-.14l.28-.47c.88-1.54,1.68-3.15,2.56-4.71l4.67-8.39,6.61-1.25.12,0s0,.07,0,.11l0,.24-.08.49-.14,1-.29,1.89-.39,2.43c-.45,2.77-.84,5.56-1.22,8.32a76.84,76.84,0,0,1-1.86,10.63c-.43,1.25-.92.71-1.27-.28a10.1,10.1,0,0,1-.32-4.82q.87-5.38,1.73-10.78c.31-1.8.61-3.6.92-5.4.1-.63.09-.49.12-.59l.09-.26s-.12,0-.2,0h-.23l-.34.05-1.13.18a5.72,5.72,0,0,1-.6.09l-.11.17-.3.55-.67,1.22-1.32,2.47-2.66,4.94L283,449.07l-.56,1-.29.5a1.56,1.56,0,0,1-.25.36.83.83,0,0,0-.13.18l-.16.15-.65.45-.55.36-1.1.71-2.2,1.38c-1.47.92-2.92,1.84-4.36,2.79-1.27.83-2.53,1.67-3.74,2.55l-.7.52-.45.37a3.24,3.24,0,0,0-.43.4c-.12.15-.29.32-.25.53s.52.23.79.24a5.53,5.53,0,0,0,.9-.11l.56-.11.82-.2,1.65-.45c2.19-.63,4.35-1.4,6.46-2.24,1.47-.59,2.91-1.23,4.3-1.93l1-.54,1.27-.7c.26-.15.54-.34.81-.52.09.11.18.24.27.37s.19,0,.28,0a5.2,5.2,0,0,0,.91-.38c.07,0,.15-.1.09-.15a2,2,0,0,0,1,.4,12.2,12.2,0,0,1-.07,2.22c-.05.41-.1.79-.14,1.15l0,.21a2.24,2.24,0,0,1-.1.37,1,1,0,0,1,.39.3c.08.13.38.33.53.57a2.72,2.72,0,0,1,.34.49c.05.47-.32.8-3.73.46,0-.26.06-.54.09-.83l.15-1.36,0-.35,0-.18v-.14c0-.13,0-.22-.06-.3a.46.46,0,0,0-.07-.14.19.19,0,0,1-.05.09,1.37,1.37,0,0,1-.21.21l-.06.07h0l-.18.11-.41.21c-1.09.57-2.2,1.08-3.32,1.57q-3.36,1.47-6.89,2.65c-1.2.4-2.41.77-3.66,1.09l-.95.23-.7.15-.9.17a6.45,6.45,0,0,1-3.05-.07,2.35,2.35,0,0,1-.88-.57,1.94,1.94,0,0,1-.53-1.07,2,2,0,0,1,.1-1,3.42,3.42,0,0,1,.65-1.13,5.12,5.12,0,0,1,.56-.6,7.45,7.45,0,0,1,.64-.59c.23-.19.44-.39.68-.57l.62-.49c.51-.39,1-.76,1.54-1.13Z"/><path class="cls-1" d="M260.26,461.82c.86-2,2-21.76,2-21.76s-6.18,2.82-6.27,2.75c1,.72-6.5,11.9-6.84,12.14-2.61,1.85-12.75,5.69-13.09,7.64-.56,3.2,22-5.11,22-6.72a39.14,39.14,0,0,1-.35,5.95Z"/><path class="cls-1" d="M236,460.41a15.13,15.13,0,0,1,2.31-1.5l.64-.35.51-.26.71-.36,2.85-1.33,2.8-1.3,1.36-.66.65-.35.3-.17.2-.12.06-.06.17-.21.39-.55c1-1.34,1.83-2.77,2.74-4.16.7-1.07,1.38-2.15,2-3.24.32-.55.62-1.09.89-1.63.13-.27.26-.54.35-.78l0-.09,0,0s0,0,.09,0l.83,0c.07-.14.18-.32.14-.37l.14-.12s.06,0,.06-.08l-.07-.3-.15-.58c.05-.1.19-.1.28-.15l.9-.37,1.57-.65,4.56-2-.35,4.72c-.21,2.63-.38,5.27-.54,7.88a58.48,58.48,0,0,1-1.12,10.12c-.18.59-.46.81-.66.69A2.19,2.19,0,0,1,260,461a9.34,9.34,0,0,1-.62-4.48l.72-8.27c.22-2.5.55-6.58.61-6l-.25,0-.1,0a1.11,1.11,0,0,0-.22.07l-.91.36-1.37.54-.35.14-.17.06-.23.07c0,.05,0,.1,0,.18v.06l-.06.18-.13.33c-.17.43-.36.81-.55,1.19-.38.75-.78,1.47-1.19,2.19-.83,1.42-1.69,2.82-2.59,4.17l-1.28,1.89-.66.94-.34.47c-.06.07-.12.17-.24.3a2,2,0,0,1-.33.32l-.2.13-.14.09-.28.17-.54.3-1.08.55-2.15,1c-1.43.66-2.85,1.31-4.25,2l-1.29.65a8.81,8.81,0,0,0-.91.55,2.1,2.1,0,0,0-.41.38c-.12.13-.16.38,0,.47a1.88,1.88,0,0,0,1,.08,8.11,8.11,0,0,0,.82-.12l.42-.08.68-.16c1-.25,2.07-.53,3.1-.84,2.05-.61,4.08-1.32,6.07-2.1.94-.37,1.87-.77,2.77-1.19l1.34-.65.7-.37.51-.28.26-.15.12-.06.12.26A8,8,0,0,0,258,456c.09,0,.16-.12.14-.15a1.3,1.3,0,0,0,.23.18,2.25,2.25,0,0,0,.75.32l0,.37c0,.54,0,1.11,0,1.7l-.06,1.42,0,.41,0,.18a2,2,0,0,1-.08.33c.31.11.42.3.87.74a3,3,0,0,1,.39.44c.12.23-.06.45-.49.62a14.06,14.06,0,0,1-3.26.39l0-.57c.06-.57.13-1.17.16-1.75l0-.45,0-.36V459l0-.09a.72.72,0,0,0,0-.14.29.29,0,0,0,0-.08l0,0-.05.07a1.19,1.19,0,0,1-.16.16,13.77,13.77,0,0,1-1.69.85q-1.23.57-2.49,1.08-2.52,1-5.11,1.88c-1.12.38-2.25.73-3.4,1.05q-.85.24-1.74.45l-.44.11-.77.17c-.56.12-1.13.23-1.66.3a7.56,7.56,0,0,1-2.77,0,2.41,2.41,0,0,1-1.45-.9,1.94,1.94,0,0,1-.36-1,1.79,1.79,0,0,1,.11-.84,3.52,3.52,0,0,1,1.24-1.68Z"/><path class="cls-1" d="M417.72,435c11.4,17.76-14.11,17.58-11.94,6Z"/><path class="cls-1" d="M376.48,454.09c9,19.08-16.25,15.61-12.61,4.41Z"/><path class="cls-1" d="M308.91,199.72c-4.19-9.95-14.39-24.33-21.94-32.55.54-1.24,1.64-10.9-.41-13.72-5.12-7-11-1.15-15.82.83a24.88,24.88,0,0,1-18.69-.2c-18.6-7.55-25,7.21-23.38,13.46,2.46,9.25,17.47,16.44,31.51,13.78,14.37,1.47,22,28.08,23.72,35,.55,2.18,4.66-4.77,8-5.19,2-.25,5,3.54,7,2.52,2.48-1.29,2.26-8.51,4.29-10.31C305.78,201,308.36,202.94,308.91,199.72Z"/><path class="cls-1" d="M246.67,182.77a34.54,34.54,0,0,1-9.08-3.33,24.1,24.1,0,0,1-7.62-6.19l-.74-1-.36-.52-.3-.57L228,170c-.18-.39-.3-.82-.45-1.23a9.39,9.39,0,0,1-.54-2.63V164.8l.16-1.28a15.88,15.88,0,0,1,4.65-8.87,15.2,15.2,0,0,1,6.47-3.52l1.81-.38c.61-.06,1.21-.08,1.82-.12l.91,0c.3,0,.6,0,.9.07l1.79.17c1,.14,2,.44,3.06.66a29.8,29.8,0,0,1,2.94,1c1,.33,1.85.71,2.74,1a25.62,25.62,0,0,0,2.73.75,23.62,23.62,0,0,0,11.18-.27,22.83,22.83,0,0,0,5.21-2.24,22.6,22.6,0,0,1,5.72-2.46,7.18,7.18,0,0,1,6.44,1.56,9.06,9.06,0,0,1,1.15,1.17,7.71,7.71,0,0,1,1,1.37,9.52,9.52,0,0,1,.89,3.2,33.05,33.05,0,0,1,.1,5.44c-.06.9-.13,1.8-.24,2.7a16.49,16.49,0,0,1-.38,2.22l1.42,1.6c.58.67,1.17,1.33,1.73,2q1.69,2,3.32,4.11c2.78,3.55,5.44,7.2,7.92,11a81.45,81.45,0,0,1,6.57,11.9c1.08,2.64.27,2.52-1.29.66a94.47,94.47,0,0,1-6.88-9.61c-2.41-3.82-5-7.53-7.73-11.15-1.37-1.8-2.76-3.59-4.2-5.33q-1.08-1.31-2.19-2.58l-.74-.83q-.29-.31-.54-.63c-.16-.22-.46-.41-.28-.7l.19-.8c.07-.27.15-.61.16-.68,0-.26.1-.52.14-.79a37.57,37.57,0,0,0,.4-6.53,14.31,14.31,0,0,0-.36-3,4.72,4.72,0,0,0-.41-1.08c-.28-.35-.6-.78-.92-1.13a6,6,0,0,0-2.17-1.48,5.21,5.21,0,0,0-2.61,0,11.94,11.94,0,0,0-2.9,1.07c-1,.47-2,1-3,1.56a25.79,25.79,0,0,1-17.22,2.27,27.41,27.41,0,0,1-4.26-1.26c-.72-.28-1.32-.46-2-.7s-1.28-.46-1.93-.65a21.53,21.53,0,0,0-7.9-.71,12,12,0,0,0-7.37,3.81,12.76,12.76,0,0,0-2.33,3.55,13.59,13.59,0,0,0-1.05,4.12,9.05,9.05,0,0,0,.12,2,3.69,3.69,0,0,0,.27,1c.12.33.22.67.35,1a14.49,14.49,0,0,0,2.39,3.57,23.15,23.15,0,0,0,7.15,5.22,32.24,32.24,0,0,0,10.64,3.07c.92.08,1.85.21,2.78.2a23.42,23.42,0,0,0,2.78,0l1.39-.08,1.38-.2.69-.1.43-.06.26,0,.25,0c.55.1,1,.14,1.53.28a14.42,14.42,0,0,1,4.23,1.79,19.45,19.45,0,0,1,3.56,2.8,35.25,35.25,0,0,1,5.45,7,81.33,81.33,0,0,1,7.14,15.93c.39,1.13.75,2.26,1.1,3.39l.87,2.92a2.36,2.36,0,0,0,.24.69c.1.09.24,0,.35,0a3,3,0,0,0,.3-.23c.18-.16.35-.34.52-.51l.94-1a24.37,24.37,0,0,1,2.16-2,6.48,6.48,0,0,1,3-1.45,4.34,4.34,0,0,1,2.44.6c.63.34,1.18.7,1.71,1a8.65,8.65,0,0,0,1.52.8,1.94,1.94,0,0,0,.59.15.76.76,0,0,0,.36-.08l.15-.12a5,5,0,0,0,1-2c.25-.86.44-1.78.66-2.75a12.57,12.57,0,0,1,1.73-4.76c.15-.17.31-.34.47-.5l.43-.33a6,6,0,0,1,.86-.52,6.24,6.24,0,0,1,1.6-.51,17.29,17.29,0,0,1,2-.14,1.76,1.76,0,0,0,1-.29,2.13,2.13,0,0,0,.43-.38,2.79,2.79,0,0,1,.34-.39c.17-.15.29-.08.35.23a1.67,1.67,0,0,1,0,.66,2.27,2.27,0,0,1-.47,1.06,2.81,2.81,0,0,1-1.3.89c-.49.18-1,.29-1.42.42a5.09,5.09,0,0,0-1.25.49,4.12,4.12,0,0,0-.57.39l-.28.24a1,1,0,0,1-.15.2,6.65,6.65,0,0,0-.75,2.05c-.2.82-.37,1.69-.56,2.59a22.16,22.16,0,0,1-.73,2.82,5.78,5.78,0,0,1-.29.75,5,5,0,0,1-1.95,2.34,5,5,0,0,1-.82.29,3.69,3.69,0,0,1-.88.06,3.9,3.9,0,0,1-.77-.12,4.4,4.4,0,0,1-.64-.2,12.81,12.81,0,0,1-2-1c-.56-.35-1.09-.68-1.56-.93a2.14,2.14,0,0,0-.86-.31,4.3,4.3,0,0,0-1.64.91,21.78,21.78,0,0,0-1.92,1.76l-1.07,1.08a8.76,8.76,0,0,1-2,1.66,2.29,2.29,0,0,1-2,.12A2.66,2.66,0,0,1,283,218c-.11-.11-.21-.25-.32-.37l-.32-.38c-.08-.18-.15-.4-.23-.6l-.57-2.1-.33-1.13-.69-2.26q-.72-2.25-1.53-4.47a81.47,81.47,0,0,0-3.71-8.7,47.23,47.23,0,0,0-4.66-7.64,21.64,21.64,0,0,0-6.25-5.81,11.79,11.79,0,0,0-3.78-1.37l-.44-.07h0l-.13,0-1.22.17-1.22.17-1.22.08a37,37,0,0,1-9.75-.71Z"/><path class="cls-1" d="M213.25,198.57a51.14,51.14,0,0,1-6,10.66c-.86,1.2-1.66,2.42-2.58,3.56-3.18,4.05-6.62,7.8-9.79,11.74A63.81,63.81,0,0,0,191,230c-1.49,2.42-2.79,4.92-4.15,7.37-.46.76-1.05.4-1.34-.57a5.55,5.55,0,0,1,.56-4.09c.69-1.36,1.53-2.62,2.33-3.9s1.7-2.49,2.63-3.65c1.82-2.39,3.78-4.62,5.78-6.82,2.39-2.63,4.63-5.54,6.77-8.41a58,58,0,0,0,6.2-9.93c.48-1.1,1-2.18,1.39-3.32l1.27-3.46a62.67,62.67,0,0,1,4.62-10.29,30.29,30.29,0,0,1,5.44-6.89c.49-.43.93-.89,1.45-1.29,1.9-1.49,2.68-1.69,3.47-1.38a2,2,0,0,1,.54.23c.48.35-.08,1.23-1.35,2.3a37.25,37.25,0,0,0-5.17,5.26,31.44,31.44,0,0,0-3.86,6.42c-1.59,3.48-2.84,7.24-4.28,11Z"/><path class="cls-1" d="M349.12,219.81c-3.08-6.08-7.47-11.55-12-16.9-1.65-1.95-3.39-3.85-5-5.83a115.91,115.91,0,0,1-8.29-10.94c-2.58-3.85-4.45-8-6.81-11.79a28.43,28.43,0,0,0-3.54-4.64,13.26,13.26,0,0,0-2.11-1.85,9.41,9.41,0,0,0-1.17-.64,13.1,13.1,0,0,0-1.29-.46,29.93,29.93,0,0,0-7.36-.8,44.14,44.14,0,0,1-7.78-.61c-1.67-.41-1.2-1,.2-1.43a21.7,21.7,0,0,1,6.74-.91,38.44,38.44,0,0,1,8.18.81,13,13,0,0,1,4.18,1.85,14.27,14.27,0,0,1,1.7,1.46c.49.51,1,1,1.43,1.55,3.65,4.29,5.72,9.27,8.26,13.74,3.07,5.37,7.37,10.3,11.56,15.18,4.6,5.38,9.34,10.79,13.15,16.92l.87,1.42.81,1.46c.56.95,1,2,1.49,3a19.74,19.74,0,0,1,1.63,6.65,12.51,12.51,0,0,1-1,5.22,14.38,14.38,0,0,1-3.12,4.22,34,34,0,0,1-8.5,5.47l-3.45,1.64-3.4,1.67a38.36,38.36,0,0,1-7.23,2.82,19.32,19.32,0,0,1-3.5.53A11,11,0,0,1,319,248a3.12,3.12,0,0,1-1.72-1.31A3.46,3.46,0,0,1,317,246c-.07-.32.33-.43,1.07-.37.37.05.83.12,1.37.17s1.16.15,1.85.22c4.15.37,8.25-1.29,12.41-3.3l3.18-1.53,3.2-1.5a40,40,0,0,0,5.89-3.4,15.54,15.54,0,0,0,3.44-3.26,9.19,9.19,0,0,0,.64-.94l.53-1,.36-1a7.69,7.69,0,0,0,.24-1.08,10.78,10.78,0,0,0-.29-4.56,22.19,22.19,0,0,0-1.77-4.58Z"/><path class="cls-1" d="M208.37,251.59c-.42.79-.86,1.62-1.32,2.47-4.65-3.43-11.22-7.69-13.93-10.64a.66.66,0,0,1,.74-1c3.29,1.41,9.68,3.62,13.37,5.53A2.71,2.71,0,0,1,208.37,251.59Z"/><path class="cls-1" d="M199.7,246.47A8.45,8.45,0,0,0,199,246c-.17-.07-.34,0-.33.06a.22.22,0,0,0,0,.15,1.65,1.65,0,0,0,.3.26l.08.08a3.6,3.6,0,0,0,.25.33l.2.22a2.36,2.36,0,0,0,.4.36c1,.85,2.08,1.68,3.14,2.49.47.37,1,.72,1.45,1.06l1.41,1,.49.27.19.11c.06,0,.12.12.17,0a3.16,3.16,0,0,1,.7-1c.19-.16.86,0,1.19.85a3.34,3.34,0,0,1,.14,1.68,6.82,6.82,0,0,1-.7,2.19l-.24.46-.12.22s0,0,0,0l-.06,0-.11-.08-.94-.68-1.79-1.31-1.21-.89-.92-.71c-1.22-.95-2.42-1.94-3.59-3l-.51-.45c-.2-.17-.28-.24-.64-.52l-1.79-1.4c-.59-.46-1.14-.92-1.7-1.38s-1-.91-1.42-1.33l-.16-.2a5.57,5.57,0,0,1-.93-2,1.13,1.13,0,0,1,.25-.74.86.86,0,0,1,.6-.39l1,.12a8.47,8.47,0,0,1,1.85.37c.86.3,1.82.73,2.72,1.08,3.1,1.25,4.39,1.84,6.31,2.62.71.29,1.42.55,2.14.82.37.15.68.25,1.11.45a3.57,3.57,0,0,1,1.22,1,3.51,3.51,0,0,1,.69,1.22,2.38,2.38,0,0,1-.08,1.83.91.91,0,0,1-.89.48,2.2,2.2,0,0,1-.52,0c-.53-.19-.7-.75-.87-1.2a1.52,1.52,0,0,0-.58-.79,1.3,1.3,0,0,0-.41-.18l-.91-.38-3.81-1.54-1.44-.59-.24-.1s0,0,0,0a.8.8,0,0,0-.18-.14Z"/><path class="cls-1" d="M329,306.49h.06l0,0,.14-.08.33-.22a8.87,8.87,0,0,0,.71-.54c.24-.19.48-.4.7-.59a3.62,3.62,0,0,1,1.42-.82,5.79,5.79,0,0,1,2.52,0,2.12,2.12,0,0,0,.6,0,.48.48,0,0,0,.18,0l.08,0a.34.34,0,0,0,.08-.09c0-.09.14-.31.21-.5a7.83,7.83,0,0,1,.73-1.47,2.09,2.09,0,0,1,.25-.3l.23-.19.12-.08a.88.88,0,0,1,.22-.1,1.53,1.53,0,0,1,.4-.11h.2a1.64,1.64,0,0,1,.39,0,2.88,2.88,0,0,1,.64.19l.1.05,0,0a.43.43,0,0,0,.28.13c.22-.05.23-.32.21-.52a11.58,11.58,0,0,0-.42-2.18,13.3,13.3,0,0,0-1.65-3.73,8.16,8.16,0,0,0-1.25-1.48c-.24-.19-.48-.38-.73-.55l-.4-.2-.2-.11a2.51,2.51,0,0,0-.38-.11l-.79-.23-.2,0c0-.06-.05-.15-.08-.21l-.14-.44-.26-.82-.15-.55c-.21-.72-.41-1.45-.59-2.18-.38-1.46-.72-2.93-1-4.39-.56-2.61-1.11-5.23-1.58-7.84A58.53,58.53,0,0,1,328.81,266c0-2.11,2.47.39,2.94,4.17a164.65,164.65,0,0,0,3.77,20.08l0,.19,0,.07,0,.1s0,.08,0,.11l.16.05a8.54,8.54,0,0,1,1.36.67,9.45,9.45,0,0,1,2.56,2.56,14.73,14.73,0,0,1,1.6,3.07,13.93,13.93,0,0,1,.88,3.34c0,.19,0,.39.05.59a4,4,0,0,1,0,.85,3.12,3.12,0,0,1-.44,1.54,1.94,1.94,0,0,1-2.69.7c-.24-.12-.51-.3-.74-.42-.08,0-.07,0-.06-.14h0l-.09-.68v0c0,.07,0,.06.11.19a2.62,2.62,0,0,0,.3.31l.09.08h0a1.42,1.42,0,0,0-.17.3c-.12.27-.25.59-.39.94a3,3,0,0,1-.83,1.26,3.24,3.24,0,0,1-1.93.63,9.32,9.32,0,0,1-1.51-.16,1.79,1.79,0,0,0-.9.05,1.17,1.17,0,0,0-.33.2l-.54.47c-.31.26-.63.52-1,.77a6.39,6.39,0,0,1-1.21.74,2.6,2.6,0,0,1-2.24-.21,5.36,5.36,0,0,1-1.4-1.2,12.92,12.92,0,0,1-1.8-2.82,19.19,19.19,0,0,1-1.61-4.83,13.07,13.07,0,0,1-.23-2.59,6.85,6.85,0,0,1,.14-1.34l.08-.34,0-.09,0-.09a1.73,1.73,0,0,1,.14-.31,11.63,11.63,0,0,1-1.77-2.35,50.62,50.62,0,0,1-4.33-9.19c-.25-.7-.49-1.4-.71-2.12-.74-2.7-.68-3.64-.16-4.32a2.56,2.56,0,0,1,.37-.46c.46-.33,1,.7,1.56,2.56a67.19,67.19,0,0,0,2.89,7.7c.56,1.27,1.19,2.52,1.86,3.72.34.6.69,1.18,1.06,1.72l.28.38.15.19a.75.75,0,0,0,.19.22l.66.64.83.72-.61,1.24c-.05.12-.09.18-.16.36s0,.09,0,.15,0,.14-.05.22a8.42,8.42,0,0,0,.13,2.88,16.7,16.7,0,0,0,.89,3.06,14.71,14.71,0,0,0,1.45,2.79,6.16,6.16,0,0,0,.89,1.07,2,2,0,0,0,.55.38Z"/><path class="cls-1" d="M352.84,328.94l-3.22-9.61c-.39-1.17-.93-2.28-1.32-3.45-1.35-4.13-2.63-8.29-4-12.41-.61-1.82-1.36-3.61-2.14-5.36l-.38-.83a5.91,5.91,0,0,0-.36-.72,3.94,3.94,0,0,0-.73-.89,7.61,7.61,0,0,0-2-1.27c-.44-.21-.57-1.54.33-2.73a3.29,3.29,0,0,1,2.14-1.24,3.71,3.71,0,0,1,2.95.86,8.69,8.69,0,0,1,1.94,2.36c.12.22.24.45.34.68s.21.5.25.61l.34.87c.44,1.18.85,2.36,1.25,3.55.8,2.39,1.5,4.81,2.1,7.29a90,90,0,0,0,3.09,8.74l3.33,9.64,2.07,5.93c1.08,3,2.1,6,3.31,8.91.94,2.25,2.15,4.36,3.24,6.53.24.47.52.92.73,1.41.81,1.82.72,2.54-.38,3.43a8.7,8.7,0,0,1-.76.6c-.9.56-2,.12-2.82-1.13a65.88,65.88,0,0,1-5.89-12.14c-1.24-3.16-2.37-6.38-3.55-9.58Z"/><path class="cls-1" d="M331.08,337.48,328,327.77c-.38-1.17-.9-2.29-1.27-3.48-1.29-4.17-2.51-8.37-3.83-12.52-.59-1.85-1.32-3.65-2.08-5.41l-.37-.85c-.13-.27-.25-.53-.42-1a7,7,0,0,1-.45-2.53,6,6,0,0,1,2.08-4.55c.88-.68,1.56.6,2.2,1.88a17.49,17.49,0,0,0,1,1.74c.32.47.58.76.57,1a2.07,2.07,0,0,0,.05.61c0,.05,0,.11,0,.16l.09.26.32.89c.43,1.18.83,2.37,1.21,3.58q1.14,3.6,2,7.36a87.72,87.72,0,0,0,3,8.81l3.2,9.74c.65,2,1.3,4,2,6,1,3,2,6.06,3.19,9,.92,2.27,2.11,4.39,3.18,6.57.24.48.52.94.73,1.43.79,1.84.67,2.56-.5,3.48a9.17,9.17,0,0,1-.81.62c-1,.58-2.09.14-2.91-1.11a62.8,62.8,0,0,1-5.78-12.24c-1.21-3.19-2.29-6.44-3.43-9.67Z"/><path class="cls-1" d="M365.39,352.79l-22.68,8.6L337,363.54l-2.83,1.08c-.94.35-1.95.72-2.68,1.06a11.37,11.37,0,0,0-6.24,7.89,10.74,10.74,0,0,0-.15,3.79,5,5,0,0,0,.17.94,6,6,0,0,0,.24.93c.11.31.19.59.31.92l.4,1,3.19,8.25,11,29.18L346,433.2l2.75,7.29,1.38,3.65c.24.59.46,1.23.7,1.79a11.65,11.65,0,0,0,.77,1.59A11.82,11.82,0,0,0,362,453.43a12.53,12.53,0,0,0,3.1-.43c.95-.3,2.05-.74,3.12-1.16l6.41-2.52c10.93-4.32,21.85-8.82,32.95-12.72,6.91-2.44-.54,4-13.17,9l-16.79,6.52-8.41,3.23-1.06.4c-.34.13-.69.27-1.13.41a17.46,17.46,0,0,1-2.56.65,15.6,15.6,0,0,1-5.28-.07,15.27,15.27,0,0,1-9-5.17,15.59,15.59,0,0,1-2.67-4.51l-1.59-4.24q-3.12-8.49-6.27-17c-5-13.61-10.55-27.61-15.84-41.44l-1.09-2.86c-.18-.47-.35-1.06-.53-1.59s-.26-1.11-.36-1.66a15.11,15.11,0,0,1,.52-6.75,14.84,14.84,0,0,1,9.08-9.43l22.84-8.7,14-5.35c2.36-.89,4.65-1.79,7.07-2.67a14.36,14.36,0,0,1,4-.8,15.71,15.71,0,0,1,4,.36,14.5,14.5,0,0,1,9.46,7.37c.24.46.43.94.64,1.4l.51,1.34,1,2.66,2,5.32q4.11,10.63,8.19,21.18c4.27,10.91,8.64,21.53,13,32.27l.72,1.77.36.88.35,1a13.75,13.75,0,0,1,.72,4.19,14,14,0,0,1-1.42,6.52,12.08,12.08,0,0,1-2.68,3.66,7.3,7.3,0,0,1-4.36,2.2,6.22,6.22,0,0,1-1.51,0c-.27-.07-.26-.26,0-.54a16.31,16.31,0,0,1,1.33-1.16,14.42,14.42,0,0,0,4.31-5.53,11.6,11.6,0,0,0,.77-6.63,8.09,8.09,0,0,0-.19-.82,5,5,0,0,0-.24-.81l-.28-.8-.38-.91-1.51-3.67-6-14.88c-4-10-8-20.21-11.93-30.43q-2.19-5.7-4.4-11.4l-1.1-2.86c-.18-.45-.37-1-.55-1.38a9.74,9.74,0,0,0-.54-1.13,11,11,0,0,0-3.32-3.72,11.25,11.25,0,0,0-4.65-1.84,10.69,10.69,0,0,0-5,.43l-.62.2-.71.28-1.43.55-2.86,1.09-5.72,2.2Z"/><path class="cls-1" d="M202.63,266.8c-.92,1.39-1.85,2.78-2.8,4.15-.35.5-.63,1-1,1.53-1.25,1.75-2.59,3.44-4,5.12-.59.74-1.19,1.51-1.77,2.27a8.19,8.19,0,0,1-2.75,2.64c-.38.2-.66-.37-.77-1.05a2.21,2.21,0,0,1,.32-1.86c1.55-1.59,3.07-3.49,4.73-5.3a33.39,33.39,0,0,0,2.59-3.66c.93-1.37,1.87-2.75,2.78-4.14.55-.86,1.11-1.71,1.65-2.59.81-1.31,1.64-2.63,2.36-4,.57-1.06,1-2.16,1.46-3.25.11-.24.19-.49.3-.72.43-.88.72-1.07,1.38-.95a3.4,3.4,0,0,1,.46.09c.48.15.65.69.43,1.39a30.27,30.27,0,0,1-2.77,6c-.82,1.46-1.71,2.89-2.6,4.32Z"/><path class="cls-1" d="M204.15,285c-3.18,2.7-6.43,5.33-9.78,7.83-1.25.89-2.41,1.87-3.7,2.7a57.12,57.12,0,0,1-7,4.14l-2.23,1a12.28,12.28,0,0,1-2.74.78,3.54,3.54,0,0,1-2-.24,1.16,1.16,0,0,1-.62-.86c0-.17-.05-.4,0-.51s.12-.23.17-.35a6.24,6.24,0,0,1,1.15-1.54c.63-.59,1.29-1.19,2-1.8l2.66-2.46c2.19-2.06,4.3-4.22,6.53-6.17.68-.61,1.07-.12,1,.88a6.58,6.58,0,0,1-2,3.7q-1.68,1.62-3.41,3.16l-1.73,1.54-.87.76-.22.19c-.05.05-.05.05-.05,0h0l-.18.1c-.08,0-.24.13-.22.25s.2.15.58.07l.13,0,.31-.12.61-.26a9.84,9.84,0,0,0,1.22-.6,26.6,26.6,0,0,0,2.41-1.38c1.59-1,3.12-2.09,4.66-3.16,3.38-2.39,6.62-5,9.81-7.65,2-1.64,3.89-3.33,5.78-5.05,2.86-2.62,5.66-5.32,8.31-8.11,2-2.2,3.89-4.47,5.71-6.79.4-.51.77-1,1.18-1.53,1.49-1.9,2.05-2.43,2.9-2.45a3.55,3.55,0,0,1,.56,0c.54.11.25,1.15-.75,2.67a88.14,88.14,0,0,1-10.78,12.71c-3,3-6.08,5.84-9.23,8.63Z"/><path class="cls-1" d="M296.1,437.09a.12.12,0,0,1-.08.06c-.88.13-12.25,1.8-13,2-7.77,1.79-9.39-107.79-12.85-108.18-1.5-.17.43,94.89-4.76,109.82a.14.14,0,0,1-.09.08L250.33,444a.12.12,0,0,1-.14-.08c-18-44.79-14.54-141.83-12.23-178.74A.13.13,0,0,1,238,265c19.94-7.33,41.47,7.61,64.39,4.9a.11.11,0,0,1,.13.11C304.13,308.34,307.25,417.82,296.1,437.09Z"/><path class="cls-1" d="M238.77,289.35c-.68,16.83-1,33.67-.76,50.5s.93,33.66,2.6,50.38a277.75,277.75,0,0,0,5.87,36.18c.64,2.74,1.4,5.44,2.17,8.14l1.28,4c.2.67.47,1.32.71,2l.5,1.38c.05.08.05.21.13.25l.28-.05,1.58-.32,4.17-.86,4.17-.85,2.08-.42.45-.09s.12,0,.14-.06l.05-.15.07-.23.16-.67c.11-.46.21-.93.29-1.41.18-.95.33-1.92.47-2.9.27-1.94.49-3.92.67-5.89.37-4,.63-7.94.85-11.93.42-8,.68-16,.88-24,.4-16,.51-32,.75-48l.16-7.24c0-1.21.07-2.42.14-3.64,0-.62.07-1.22.15-1.88a4.33,4.33,0,0,1,.09-.54l0-.18,0-.1.06-.16,0-.08.11-.18.15-.18a2.21,2.21,0,0,1,.23-.17,1.74,1.74,0,0,1,.38-.14,1.41,1.41,0,0,1,.35,0l.09,0,.19.05a1,1,0,0,1,.3.15,1.88,1.88,0,0,1,.67.85c.09.21.14.38.2.55a25.68,25.68,0,0,1,.7,3.74c.17,1.21.3,2.42.42,3.62.25,2.42.45,4.82.64,7.23.74,9.62,1.31,19.22,1.94,28.74.73,11,1.5,22,2.48,33,.5,5.48,1,11,1.77,16.4.36,2.71.77,5.42,1.32,8.06a32,32,0,0,0,1,3.83c.1.3.21.6.33.87l.19.38a1.8,1.8,0,0,0,.11.2.87.87,0,0,0,.31.32c.13.08.29,0,.44,0l7.24-1a30,30,0,0,1,4.87-.43,2.55,2.55,0,0,1,.43.07h0l.08.55h0l0,0,.05,0s0,0,0,0l0-.29h0l0,0a2.62,2.62,0,0,1-.41.24,31.21,31.21,0,0,1-4.17,1.42c-1,.28-2.14.59-3.42.91l-2,.5-1.07.25-.55.13-.28.07-.54.1a2.37,2.37,0,0,1-1.91-.21,4.18,4.18,0,0,1-1.43-1.54,15.69,15.69,0,0,1-1.26-2.8,50,50,0,0,1-1.6-6,135.67,135.67,0,0,1-2.06-13.6c-2.57-25-3.4-50.13-5.38-75-.13-1.54-.28-3.09-.46-4.62q-.13-1.14-.3-2.25a19.32,19.32,0,0,0-.41-2l-.05-.13v0a7.9,7.9,0,0,0,.71-.36,2.16,2.16,0,0,0,.8-.65.05.05,0,0,0,0,0c0-.06,0,.09,0-.16,0,0,0,0,0,.05a.27.27,0,0,0,.12.09,4.08,4.08,0,0,0,.44.19l.62.19a4.86,4.86,0,0,0,.67.16v.09l0,.21-.06.5c-.06.72-.1,1.5-.14,2.26-.07,1.55-.11,3.11-.15,4.67-.15,6.25-.23,12.54-.32,18.83-.19,12.58-.39,25.19-.8,37.83-.24,7.29-.51,14.66-.93,22.08-.21,3.71-.46,7.44-.81,11.18-.18,1.87-.39,3.74-.65,5.62-.14.94-.29,1.89-.47,2.84-.09.47-.18,1-.29,1.43l-.19.75c-.11.38-.21.76-.33,1.13a2,2,0,0,1-.27.52,1.08,1.08,0,0,1-.37.42,3.09,3.09,0,0,1-1.12.39l-1.76.36-2.94.62-5.9,1.23-3.53.74a1.69,1.69,0,0,1-1.9-.59,3.74,3.74,0,0,1-.52-1.08l-.41-1.09c-.35-1-.73-1.91-1.06-2.87l-.94-2.9a177.3,177.3,0,0,1-5.56-23.61,422.18,422.18,0,0,1-5-50.88c-.76-17-.87-34.05-.56-51.06q.28-15.71,1.06-31.4l.41-7.84.24-3.92.13-2.14a4.19,4.19,0,0,1,.21-1.37.66.66,0,0,1,.16-.28l.26-.17a3,3,0,0,1,.63-.28l2.26-.67a12.22,12.22,0,0,1,2-.49l2-.34a13.69,13.69,0,0,1,2-.26,47.73,47.73,0,0,1,8,0c8.11.69,15.85,2.9,23.59,4.62,3.87.87,7.75,1.61,11.65,2.1,1,.11,1.95.17,2.92.26l1.47.12,1.46,0c1,0,1.95,0,2.92,0l3.38-.25a3.31,3.31,0,0,1,1,.07l.4.1a.27.27,0,0,1,.17.13l.08.18a4,4,0,0,1,.23.88c0,.35,0,.71,0,1.07l.12,3.18.21,5.92q.18,5.91.37,11.81.34,11.79.57,23.5c.45,24.45.75,48.43-.16,72.63-.2,5.33-.47,10.54-.87,15.92a150.46,150.46,0,0,1-2.78,21.05c-.23,1.14-.54,2.15-.79,3.06a18.72,18.72,0,0,1-.8,2.43c-.28.72-.51,1.37-.8,1.94s-.58,1.08-.87,1.55c-.12.22-.26.45-.4.68l-.48.67a8.66,8.66,0,0,1-.81,1c-.35.35-.41.13-.24-.57a12.73,12.73,0,0,1,.44-1.38c.16-.6.36-1.33.59-2.17a122.56,122.56,0,0,0,2.69-16.08c.62-5.32,1-10.72,1.34-16.16s.55-10.91.73-16.43c.33-11,.45-22.17.44-33.4,0-22.47-.49-45.27-1.26-68.1-.13-3.39-.25-6.78-.38-10.2h0l-.36,0-1.44.1c-1,.06-1.91,0-2.87,0-1.92,0-3.8-.18-5.7-.33A107.44,107.44,0,0,1,279,270.24c-7.29-1.56-14.37-3.54-21.47-4.55-.89-.15-1.77-.19-2.66-.29a23.6,23.6,0,0,0-2.64-.19l-2.64-.07-2.61.16c-.44,0-.88,0-1.3.11l-1.28.22-1.28.22a6.58,6.58,0,0,0-1.26.28l-1.24.37-.5.14,0,0s0,0,0,0l0,.58c-.46,7.34-.81,14.69-1.1,22.05Z"/><path class="cls-1" d="M289,270.27a166.22,166.22,0,0,1-18.65-3.69c-2.25-.57-4.41-1-6.65-1.35A88.37,88.37,0,0,0,239.9,264a32.94,32.94,0,0,0-10.07,2.61,16.93,16.93,0,0,0-5.26,3.67,14.1,14.1,0,0,0-3.16,5.39c-.39,1.24-1,1-1.41-.33a6.2,6.2,0,0,1,0-2.82,8.38,8.38,0,0,1,1.82-3.57,18.5,18.5,0,0,1,6.16-4.6,30.33,30.33,0,0,1,7-2.29,57.47,57.47,0,0,1,14.37-.89,126.42,126.42,0,0,1,17.32,1.93c3.18.65,6.19,1.47,9.27,2.14s6.15,1.33,9.24,1.83a76.58,76.58,0,0,0,11.48,1.06,55.46,55.46,0,0,0,17.17-2.53,39.75,39.75,0,0,0,11.79-5.79l1.11-.87,1-.95c.66-.56,1.11-1.13,1.56-1.53s.72-.81,1-1.08a3.6,3.6,0,0,1,1.5-1,4.43,4.43,0,0,1,.69-.21c.34,0,.41.33.22,1.05a5.49,5.49,0,0,1-.51,1.29,14.23,14.23,0,0,1-1.06,1.62,28.4,28.4,0,0,1-10.38,7.62,57.13,57.13,0,0,1-12.43,3.95,54.62,54.62,0,0,1-9.73,1.11,71.58,71.58,0,0,1-9.73-.47Z"/><polygon class="cls-2" points="289.57 438 289.56 438.02 289.56 438 289.57 438"/><path class="cls-1" d="M193.45,292.67c.22.48,2.12,3.65,2.31,4s.68,1.37.77,1.48.82,1.87,1,2.19c.09.16,2.09,4.77,2.44,5.24s1.11,2.46,1.34,2.87c.08.14-1,.73-1.06.63a8.57,8.57,0,0,1-.9-1.35c-.38-.74-1.84-3.16-1.91-3.26l-1-1.36-.45-.64c-.42-.6-.83-1.2-1.26-1.8s-.85-1.08-1.23-1.65c-.55-.83-1.06-1.69-1.6-2.54-.3-.48-.64-.94-.93-1.43-.17-.29-.26-.63-.42-.93s.32-.64.88-1.1A2.32,2.32,0,0,1,193.45,292.67Z"/><path class="cls-1" d="M112.76,294.59c-2.2.27-4.42.47-6.64.62l-1.66.1-.84,0h-.25l-.48,0a4,4,0,0,0,.21.37l.07.1.37.56.9,1.33L108,303q3.54,5.36,7,10.75c2.54,4,5.13,7.93,7.56,12,1.94,3.26,3.84,6.56,5.63,9.94.9,1.69,1.75,3.41,2.54,5.19.4.89.76,1.8,1.1,2.75l.23.74.05.17s0,0,0,0l0,.12a2.07,2.07,0,0,1,.06.5c0,.08.06,0,.1,0l.14,0,.29-.07.3-.07.82-.21,3.25-.88c2.17-.59,4.34-1.2,6.49-1.85,4.32-1.28,8.6-2.64,12.85-4.12a183.07,183.07,0,0,0,20.29-8.35,101.78,101.78,0,0,0,12.06-6.92,61,61,0,0,0,5.48-4.14,33.19,33.19,0,0,0,4.62-4.88c1.46-2.25,2.11-1.72,1.48.92a19,19,0,0,1-.92,2.21,22.29,22.29,0,0,1-1.68,2.57,27.37,27.37,0,0,1-5.56,5.24,94.45,94.45,0,0,1-12.71,7.4c-4.38,2.15-8.84,4.06-13.36,5.82a263.68,263.68,0,0,1-27.68,8.86l-3.53.92-2.25.57-1.52.38-.76.19a2.74,2.74,0,0,1-.72.14c0-1-.18-2.06-.32-3.11a2.9,2.9,0,0,0-.1-.4l-.06-.2-.12-.38c-.08-.25-.17-.5-.27-.76-.39-1-.85-2.06-1.34-3.09-1-2.06-2.08-4.11-3.23-6.13-2.28-4.06-4.74-8.07-7.2-12-3-4.84-6.1-9.64-9.23-14.41l-4.74-7.14-6.12-9c1.28,0,2.6,0,3.84,0s2.67-.07,3.24-.1a126.83,126.83,0,0,0,23.49-3.54,107.2,107.2,0,0,0,33-14,83.84,83.84,0,0,0,10.86-8.44l3.34-3.2.49-.47c.09-.15.14,0,.19.09l.17.28.69,1.13,1.33,2.2,3.61,5.9,3.18,5.19c3.91,6.52,5,8.72,5.05,10.56a7.77,7.77,0,0,1,0,1.23c-.2,1-2.25-1.43-5.24-6.13q-3.35-5.24-6.67-10.64c-.56-.9-1.12-1.8-1.67-2.71l-.84-1.36-.36-.59,0-.06-.08-.09s-.06.07-.09.09l0,.06-.22.21c-.4.38-.79.77-1.21,1.12a95,95,0,0,1-22.17,14.69,124.32,124.32,0,0,1-38,10.93Z"/><path class="cls-1" d="M296.78,148.23a51.6,51.6,0,0,1-25-7.34c-.5-.32,13.83-9.65,13.75-24.88a10,10,0,0,0,12.16-9.74c-.29-7.72-5.89-9.23-11.7-5.06-25.66-5.5-23.53-30.61-23.53-30.61-3.33,10.62-23.23,23.13-24.49,23.64-2,.81-.43,25.22,0,27.5,2.2,10.63,8.42,16,7.86,17.6-1.8,5.3-20.5,6.39-25,1-8.44-10.21,9.21-43.26,6.71-43-4.18.36-21-11.35-2-32.66,9.14-10.3,31.26-16.27,40.92-9.25.37.27,23.66-8.75,36.7,3.87,9.93,9.61,8.76,18.1,9.52,30.44.41,6.6,5.12,11.94,8.35,17.4C332.77,126.91,314.14,148.62,296.78,148.23Z"/><path class="cls-1" d="M221.63,72.77a25.5,25.5,0,0,0-2.75,6.5,15.32,15.32,0,0,0-.23,6.76,13.55,13.55,0,0,0,5.44,8.25,10.85,10.85,0,0,0,1.41.86c.24.11.48.22.72.31l.36.13.74.15a2.18,2.18,0,0,1,.7.12l.33.09a.75.75,0,0,1,.22.13,1.78,1.78,0,0,1,.38.28,1.44,1.44,0,0,1,.3.52,4.34,4.34,0,0,1-.16,2.54c-.15.53-.21.7-.29,1l-.26.75-.52,1.48-2.15,5.78c-1.41,3.83-2.74,7.68-3.81,11.58a50.09,50.09,0,0,0-2,11.75,15.52,15.52,0,0,0,.75,5.55A7.24,7.24,0,0,0,222,139.5a6.2,6.2,0,0,0,2,1.43,17.58,17.58,0,0,0,5.31,1.37,30.14,30.14,0,0,0,5.7.11,25.42,25.42,0,0,0,5.54-1,11.33,11.33,0,0,0,2.43-1,5.35,5.35,0,0,0,.93-.69,3.36,3.36,0,0,0,.32-.37.57.57,0,0,0,.11-.19.33.33,0,0,0,0-.3,9.18,9.18,0,0,0-.54-1l-1.37-2.15a41.58,41.58,0,0,1-4.76-9.86c-.27-.87-.52-1.76-.74-2.65-.1-.47-.19-.85-.3-1.4s-.12-.94-.16-1.4c-.17-1.8-.29-3.57-.39-5.35-.21-3.56-.35-7.11-.39-10.68,0-1.79,0-3.58.08-5.38,0-.91.1-1.82.22-2.76a10.54,10.54,0,0,1,.3-1.51,2.26,2.26,0,0,1,1.29-1.65c2.21-1.27,4.25-2.67,6.31-4.13s4-3,6-4.6a61.71,61.71,0,0,0,5.49-5.1l1.27-1.36,1.18-1.42a6.53,6.53,0,0,0,.57-.73l.74-1a15,15,0,0,0,1.63-3l.63-.24c.18-.09.49-.15.52-.27l.56-.67a2.84,2.84,0,0,0,1,1.73c0,.91,0,1.61.07,2.41s.13,1.47.24,2.13c.12.87.28,1.74.48,2.59a30.23,30.23,0,0,0,1.6,5A25.75,25.75,0,0,0,271.72,93,26.86,26.86,0,0,0,281,98.75c.84.36,1.74.6,2.61.88.44.15.9.24,1.34.35a3.35,3.35,0,0,0,.91.19l.31-.2a6.89,6.89,0,0,1,.64-.4,14.43,14.43,0,0,1,1.36-.69,10.29,10.29,0,0,1,3-.84,7,7,0,0,1,3.25.43,5.75,5.75,0,0,1,2.57,2.09,8.62,8.62,0,0,1,1.3,2.89c.09.5.21,1,.27,1.51s.11,1,.1,1.53a11.45,11.45,0,0,1-1.88,5.83,10.37,10.37,0,0,1-4.64,4,13.49,13.49,0,0,1-1.66.56c-.57.11-1.14.21-1.71.27l-.86,0h-.7l-.7-.06c0,.3,0,.54,0,.88-.05.66-.12,1.32-.22,2a24.65,24.65,0,0,1-.89,3.87A30.06,30.06,0,0,1,282,131a40.1,40.1,0,0,1-4.83,6.16c-.9,1-1.83,1.86-2.79,2.72l-.63.57-.14.13a.35.35,0,0,0-.05.08s.05,0,.07.05l.32.2.46.26c.37.21.74.41,1.13.6.75.4,1.53.75,2.31,1.1,1.57.69,3.17,1.29,4.8,1.83a55.5,55.5,0,0,0,10,2.28c2.72.34,4,.49,4.1.75s-1,.55-3.16.67a37.3,37.3,0,0,1-9-.73,44.13,44.13,0,0,1-6.11-1.64c-1.07-.38-2.17-.81-3.28-1.3-.55-.26-1.12-.52-1.68-.8l-1.14-.61-1.55-.91-.81-1.22a1.11,1.11,0,0,1,0-.67,1.73,1.73,0,0,1,.3-.72,9.78,9.78,0,0,1,1.51-1.51l1.08-1a38.11,38.11,0,0,0,7.74-9.67,25.65,25.65,0,0,0,2.28-5.64,22.8,22.8,0,0,0,.59-3l.09-.75,0-.37,0-.61c0-1.1,0-2.22.05-3.32l2.29.23,1.14.11.18,0h.45c.33,0,.66,0,1,0l.93-.15a7.38,7.38,0,0,0,3.25-1.61,8.76,8.76,0,0,0,2.21-3,10.2,10.2,0,0,0,.6-1.82,6,6,0,0,0,.14-.9l0-.39c0-.13,0-.32,0-.48a7.69,7.69,0,0,0-1-3.54,3.17,3.17,0,0,0-2.4-1.61,6.43,6.43,0,0,0-3.47.69c-.29.13-.58.31-.88.46a4.92,4.92,0,0,0-.43.26l-.79.52c-.58.68-1.38.13-2.07,0l-1.18-.3a33.47,33.47,0,0,1-8.89-3.74,27.83,27.83,0,0,1-7.29-6.44,29.16,29.16,0,0,1-4.64-8.51,34.58,34.58,0,0,1-1.28-4.66l-.21-1.18c-.06-.35-.15-1-.13-.85l0-.37c0-.2,0-.44,0-.66a3.8,3.8,0,0,1-.27.53c-.05.07-.09.14-.15.21l-.35.48c-.6.8-1.26,1.53-1.88,2.29l-2,2.14-2.11,2c-2.36,2.15-4.85,4.15-7.43,6.07a89.52,89.52,0,0,1-8.08,5.41c-.16,0-.22.18-.26.36a11.22,11.22,0,0,0-.21,1.29c-.11.92-.16,1.88-.2,2.85-.06,1.93-.05,3.89,0,5.86.08,3.93.28,7.89.56,11.83.08,1,.16,2,.26,2.94a9.54,9.54,0,0,0,.19,1.35c.1.47.2.94.33,1.4a32.77,32.77,0,0,0,1.9,5.44,41.28,41.28,0,0,0,2.75,5.11l1.6,2.51a16,16,0,0,1,.82,1.39,5.11,5.11,0,0,1,.41,1.07,2.36,2.36,0,0,1-.06,1.21l-.25.57a4.17,4.17,0,0,1-.32.49,4.55,4.55,0,0,1-.63.74,8.19,8.19,0,0,1-1.42,1.06,13.93,13.93,0,0,1-3,1.29,30.06,30.06,0,0,1-8.65,1.16,26,26,0,0,1-8.67-1.36,9.57,9.57,0,0,1-4-2.56A10.58,10.58,0,0,1,218,137a24.33,24.33,0,0,1-.28-8.78,84,84,0,0,1,4.22-16.47c.92-2.66,1.9-5.29,2.88-7.91.48-1.31,1-2.62,1.41-3.92l.28-.87c0-.15.08-.29.11-.44s.09-.35-.07-.39a1.61,1.61,0,0,1-.44,0l-.23-.06-.41-.14c-.29-.1-.56-.23-.83-.35a12,12,0,0,1-1.54-.84,16.5,16.5,0,0,1-2.67-2.18,16,16,0,0,1-3.68-5.76,18.11,18.11,0,0,1,.41-12.73A30.1,30.1,0,0,1,220,70.42a44.2,44.2,0,0,1,3.72-5.06,32.11,32.11,0,0,1,9.73-8,48,48,0,0,1,11.64-4.59A41,41,0,0,1,256,51.49a25.61,25.61,0,0,1,5.49.73,19.31,19.31,0,0,1,2.66.89,12.48,12.48,0,0,1,1.28.61l.62.34.45.3.19.13a.78.78,0,0,0,.22,0l.59-.16,1.62-.45c1.09-.28,2.18-.55,3.28-.79A59.23,59.23,0,0,1,279,52a39.71,39.71,0,0,1,13.48.69,24.1,24.1,0,0,1,11.79,6.59,27.86,27.86,0,0,1,7.17,11.39c1.5,4.74,1.63,9.65,1.87,14.38l.18,3.55a20.53,20.53,0,0,0,.42,3.39,23.43,23.43,0,0,0,2.64,6.28c2.3,4,5.44,7.69,7.33,12.3a25.57,25.57,0,0,1,1.44,14.55,29.1,29.1,0,0,1-5.2,11.79,30.48,30.48,0,0,1-3.68,4.19c-.59.61-1.24,1.11-1.81,1.62s-1.19,1-1.77,1.34a28,28,0,0,1-6.13,3.29,16.12,16.12,0,0,1-7.5,1.17,11,11,0,0,1-2.25-.38c-.37-.13-.24-.27.31-.4.27-.07.66-.13,1.14-.2l1.72-.34A29.52,29.52,0,0,0,311.42,142a31,31,0,0,0,8.14-9,25.75,25.75,0,0,0,3.53-11.59,23.33,23.33,0,0,0-2.59-11.81c-1.89-3.65-4.75-7.12-6.92-11.22a22.88,22.88,0,0,1-2.42-6.73c-.13-.6-.15-1.23-.22-1.84l-.1-1.68-.17-3.34c-.2-4.44-.38-8.8-1.54-12.81a24.88,24.88,0,0,0-6.45-10.59A21.35,21.35,0,0,0,292,55.27a36.72,36.72,0,0,0-12.66-.67,58.2,58.2,0,0,0-6.41,1c-1.07.23-2.13.49-3.18.77l-1.6.44-.46.13a5.42,5.42,0,0,1-.8.17.74.74,0,0,1-.39,0l-.19,0-.09,0h-.07s-.06.26,0,.14h0l-.73-.3-.6-.4a3,3,0,0,0-.3-.18l-.64-.35a13.21,13.21,0,0,0-1.34-.58,16.43,16.43,0,0,0-2.91-.8,26.77,26.77,0,0,0-6.22-.35,42.81,42.81,0,0,0-12.47,2.68A39.93,39.93,0,0,0,229.8,63a28.55,28.55,0,0,0-4.42,4.5,42.54,42.54,0,0,0-3.67,5.24Z"/><path class="cls-1" d="M362.43,363.65l-6.59,2.21c-.8.27-1.58.62-2.38.88-2.83.94-5.67,1.83-8.5,2.78-1.25.42-2.48.92-3.69,1.42a25.09,25.09,0,0,1-4.75,1.76c-1,.21-.71-2.68,1.1-3.39a86.19,86.19,0,0,1,9.82-3.25c2-.53,4-1.4,6-2.1l6.63-2.28c1.35-.46,2.72-.92,4.07-1.4,2.05-.73,4.12-1.43,6.12-2.23,1.56-.62,3-1.38,4.54-2.07.34-.16.65-.33,1-.47,1.26-.53,1.73-.51,2.26.05a4,4,0,0,1,.35.38c.32.47,0,1.09-.92,1.6a59.17,59.17,0,0,1-8.43,3.79c-2.18.82-4.4,1.59-6.6,2.39Z"/><path class="cls-1" d="M129.85,301.48c-4.56,2.51-4.22,6.92-.63,10.13,4.51,4.05,12.32,4.93,18.79,6-.71-.12-2.2-10.32-2.7-11.35A11.1,11.1,0,0,0,131,300.92C130.62,301.1,130.22,301.28,129.85,301.48Zm8.74,8a5.23,5.23,0,0,1-5.65-.56,2.34,2.34,0,0,1,.48-4,5.23,5.23,0,0,1,5.65.56A2.34,2.34,0,0,1,138.59,309.52Z"/><path class="cls-1" d="M167.12,291.43c-1.37.58-2.76,1.08-4.15,1.54-.51.17-1,.38-1.51.53-1.81.54-3.64,1-5.47,1.38-.81.18-1.61.41-2.4.63a11.84,11.84,0,0,1-3.11.67c-.68,0-.19-1.92,1-2.19,2-.49,4.12-.94,6.24-1.3a28.18,28.18,0,0,0,3.75-1.11c1.37-.45,2.73-.92,4.05-1.45.83-.33,1.63-.69,2.42-1.08a20.07,20.07,0,0,0,3.4-2.05,10,10,0,0,0,2-2.15,4.41,4.41,0,0,0,.35-.53c.46-.63.63-.79,1.18-.69l.36.06c.38.11.48.57.2,1.23a11.47,11.47,0,0,1-4.26,4.43,29,29,0,0,1-4,2.12Z"/><path class="cls-1" d="M169,300.21q-1.58.63-3.15,1.17c-.39.14-.75.32-1.14.43-1.37.44-2.76.77-4.14,1.12-.62.16-1.22.36-1.81.56a7.65,7.65,0,0,1-2.36.59c-.51,0-.3-1.9.55-2.14a42.8,42.8,0,0,1,4.7-1.09,19.36,19.36,0,0,0,2.83-.9c1-.36,2.06-.73,3.07-1.14.63-.23,1.23-.52,1.84-.79a20.69,20.69,0,0,0,2.66-1.46,14.84,14.84,0,0,0,1.74-1.51c.12-.12.22-.25.34-.37.44-.42.67-.45,1.12-.18.1.07.21.12.3.19.31.24.33.65,0,1.06a11.63,11.63,0,0,1-3.49,3c-1,.57-2,1.07-3.06,1.54Z"/><path class="cls-1" d="M243.23,115.52c1.19-.3,2.29-1.61,3-3.12a16.65,16.65,0,0,0,.67-1.75c.1-.26.19-.53.28-.8l.13-.4c0-.14.08-.29.09-.3l.11-.28.05-.16c0-.06,0-.13-.05-.12l-.3-.06-.53-.07-1.76-.17c-1-.09-2.09-.13-3.13-.15h-1.55l-.52-.05c-.63-.07-1.28-.15-1.64-.16-.09,0-.17-.13-.3-.31a.84.84,0,0,1-.06-.79,2.1,2.1,0,0,1,2.05-1.09c.36,0,.7.08.92.09l1,.06c.68,0,1.36.1,2,.17s1.36.14,2,.22l1,.14.25,0,.43,0,.89.1a4,4,0,0,1,.78.32c.11.06.26.08.35.18a1.56,1.56,0,0,1,.13.4c0,.3,0,.57,0,.9l-.22,1-.19.73-.17.64c-.13.42-.26.84-.42,1.25a10.12,10.12,0,0,1-3.49,4.88,5.71,5.71,0,0,1-3.8.79,5.31,5.31,0,0,1-2.67-1.21,5.39,5.39,0,0,1-1.6-2.41,9.32,9.32,0,0,1-.46-2.13c-.06-.69-.11-1.35-.13-2,0-.3,0-.58,0-.88,0-1.09.2-1.46.79-1.64.13,0,.3-.14.39-.05s0,0,0-.06,0,0,0,0a.37.37,0,0,0,.35.17c.05-.07.07,0,.09,0l.06,0s.08.07.12.12a1.79,1.79,0,0,1,.28.88c.13,1.14.18,2.39.27,3.49a4.53,4.53,0,0,0,.92,2.53,3,3,0,0,0,1.54,1,3.63,3.63,0,0,0,2,0Z"/><path class="cls-1" d="M257.08,110.11a10.89,10.89,0,0,0,1.44,4.79c.17.22.36.41.54.61s.41.32.63.46a3.77,3.77,0,0,0,2.77.43,4.69,4.69,0,0,0,2.75-1.32,5.14,5.14,0,0,0,1.25-2.52,27.83,27.83,0,0,0,.27-3.79c0-.38.58-.45,1.15-.14a2.17,2.17,0,0,1,1.13,1.91,9.49,9.49,0,0,1-1.24,4.66,6.36,6.36,0,0,1-4,3c-.48.11-1,.16-1.44.25s-1,0-1.53,0a5.15,5.15,0,0,1-1.53-.39c-.25-.11-.5-.21-.73-.34l-.62-.48a7.05,7.05,0,0,1-1.85-2.65,13.18,13.18,0,0,1-.85-2.91c-.11-.6-.18-1.21-.23-1.81,0-.24-.06-.79-.08-1.19s0-.84,0-1.26v-.23c0-.08.14,0,.2,0l.48,0c.31,0,.63,0,1,0l1.55.1c.88.06,1.76.1,2.64.13,1.36,0,2.7,0,4.05-.08.3,0,.59,0,.89,0,1.11,0,1.46.17,1.67.75a2.7,2.7,0,0,1,.14.4c.08.44-.38.78-1.2.88a49.33,49.33,0,0,1-7.51.1l-1.42-.07h-.21s0,0,0,0,0,0,0,.08l.07.65Z"/><path class="cls-1" d="M244.45,107.81c-2.21,0-1.26-3-.76-3.77C246.32,100,247.23,107.81,244.45,107.81Z"/><path class="cls-1" d="M261.14,108.29c-2.2,0-1.25-3-.76-3.77C263,100.45,263.93,108.29,261.14,108.29Z"/><path class="cls-1" d="M252.19,104a27,27,0,0,0,.34-5.37,4.18,4.18,0,0,0-.12-.91,5.49,5.49,0,0,0-1.85-3.25,7.16,7.16,0,0,0-3-1.29,10.67,10.67,0,0,0-3-.19c-1.31.09-2.59.41-3.92.47-.41,0-.5-.53-.26-1.13A2.24,2.24,0,0,1,242.05,91a16.83,16.83,0,0,1,4.49-.12,10.21,10.21,0,0,1,4.44,1.5,9.14,9.14,0,0,1,2.22,2,8.23,8.23,0,0,1,.78,1.31,6.84,6.84,0,0,1,.44,1.42,9.73,9.73,0,0,1,.18,1.54c0,.5,0,1,0,1.48,0,1-.09,2-.19,2.92-.13,1.18-.32,2.35-.55,3.52a46.23,46.23,0,0,1-1.37,5.2,32.54,32.54,0,0,1-1.41,3.94c-.14.28-.24.58-.41.85-.63,1-1.07,1.22-1.63,1a2.62,2.62,0,0,1-.39-.15c-.38-.24-.36-.79,0-1.43a40.76,40.76,0,0,0,2.39-6.61,41.94,41.94,0,0,0,1.1-5.35Z"/><path class="cls-1" d="M259.08,95.48c.76.58.89.29,1.14.1a4.94,4.94,0,0,1,2.2-.33c.48.1,1.19-.61,1.22-.63a11.28,11.28,0,0,1,1.1-.55,5.74,5.74,0,0,1,1.13-.37,4.44,4.44,0,0,1,1.09-.12,3.69,3.69,0,0,1,1.36.13c.66.21,1.22.79,1.93.22.44-.36.78.07,1.16.14a11.23,11.23,0,0,1,1.84.66s0,.06.11,0,.17-.4.26-.61a8.53,8.53,0,0,0,.23-.85c-.11-.61-.32-1-.67-.92s-.4.14-.56,0c-.66-.41-1.5.2-2.12-.54-.05-.05-.11,0-.15,0-.57-.08-1.13-.11-1.7-.21s-1.23-.67-1.87-.72a3.39,3.39,0,0,0-2,.55c-.31.2-.71,0-1.08,0-.21,0-.45-.12-.64,0-.74.35-1.12,1.51-2,1.2-.58-.18-1.19-.29-1.33.5,0,.19-.1.32-.28.23-.63-.31-.77.33-.9.88A1.65,1.65,0,0,0,259.08,95.48Z"/><path class="cls-3" d="M256.52,107.19h0a.1.1,0,0,1-.07.06l-7.49-.54s0,0-.06-.07a0,0,0,0,0,0,0,3.28,3.28,0,0,0-.17,1.09,3.21,3.21,0,0,0,0,1.1h0s.06-.07.08-.07l.3,0,7.18.52s.05,0,.06.07l0,0a3.7,3.7,0,0,0,.17-1.09A3.52,3.52,0,0,0,256.52,107.19Z"/><path class="cls-1" d="M251.9,129.45c-.16.05-.22-.19-.12-.55a1.85,1.85,0,0,1,.25-.45l.23-.18s.54,0,.73-.1a1.53,1.53,0,0,1,.52,0,5,5,0,0,0,1-.06,1,1,0,0,1,.24,0,1.1,1.1,0,0,0,.76-.11s.08,0,.09-.09a3.79,3.79,0,0,1,.65-.42,1.49,1.49,0,0,0,.6-.24s0,0,.1,0,.18,0,.23-.09a1,1,0,0,1,.2-.22.69.69,0,0,1,.23-.07.48.48,0,0,1,.29.11c0,.07.16.07.24.1l.1,0a2.11,2.11,0,0,1,0,1l-.11.18a1.94,1.94,0,0,1-.26.37,5.58,5.58,0,0,1-.52.56.38.38,0,0,1-.21.1l-.43.31c-.21.13-.44.25-.46.26a.92.92,0,0,1-.59.09.2.2,0,0,0-.11,0,2.92,2.92,0,0,1-1,.1l-.49,0-.09,0-.11,0c-.38,0-.75-.08-1.15-.08-.09,0-.48-.24-.59-.24S252,129.42,251.9,129.45Z"/><path class="cls-1" d="M260.12,145.5a16.61,16.61,0,0,1-6.2-.7l-1.08-.36c-.36-.13-.7-.3-1-.46a20.58,20.58,0,0,1-6.05-4.91c-.76-.84-1.48-1.73-2.19-2.6a11.64,11.64,0,0,1-2.24-3.77c-.14-.48.42-.59,1.05-.48a2.55,2.55,0,0,1,1.77,1.05,37.54,37.54,0,0,0,5.05,6.43,13,13,0,0,0,4.18,2.69,13.21,13.21,0,0,0,5.33,1.06,19.11,19.11,0,0,0,3.45-.33,19.62,19.62,0,0,0,5-1.64,20.3,20.3,0,0,0,3.39-2.24c.23-.17.44-.38.68-.56.88-.67,1.23-.79,1.78-.49a3.25,3.25,0,0,1,.37.21c.36.28.22.85-.39,1.48a19.26,19.26,0,0,1-6.8,4.3,22,22,0,0,1-6.06,1.37Z"/></g></svg>