<svg xmlns="http://www.w3.org/2000/svg" width="520" height="520" viewBox="0 0 520 520"><defs><style>.cls-1{fill:#231f20;}</style></defs><title>Notioly New upgrade</title><g id="n.117_Scan" data-name="n.117 Scan"><path class="cls-1" d="M142.35,352.75s-4.13,81-10.06,88.18a33.3,33.3,0,0,0,22.6,2.66c12.74-3,7.69.68,13.58,3.46s21,.83,24.6-3.46,22.63,5.83,25.54,2,21.74,1.42,26.92-9.81c3.65-7.94,14.73-4.57,13.89-8.88s-22.68-89.35-23.61-93S210.33,366.89,142.35,352.75Z"/><path class="cls-1" d="M191.48,285.66c.2.07-.26.06-1,.12a7.59,7.59,0,0,1-1.11,0,3.15,3.15,0,0,1-.58-.26,8.37,8.37,0,0,1-.77-1.35,1.46,1.46,0,0,1,0-.88,6.83,6.83,0,0,1,.51-1.39.38.38,0,0,1,.27-.17.91.91,0,0,0,.72-.63c0-.05.07-.07,0-.2s.27-.82.42-.81a8.53,8.53,0,0,0,1-.09s0-.07.19,0c.41.2.4.11.48.09a.74.74,0,0,1,.44,0c.12,0,.35.1.53.15a2.54,2.54,0,0,1,.61.34,2.63,2.63,0,0,0,.53.29l.19.11a1.07,1.07,0,0,1,.2.23,3.91,3.91,0,0,1,.34.49,4,4,0,0,1,.35.71c0,.06-.26,1-.23,1.14s-.11.05-.19.06a7.11,7.11,0,0,0-.13.76c-.12.08,0,.28-.43.16-.07,0-.07,0-.07,0-.06.2-.28.28-.45.39s-.1.14-.15.21-.07,0-.11,0-.1,0-.1,0-.37.24-.27.41c0,0-.59,0-.56.07S191.39,285.62,191.48,285.66Z"/><path class="cls-1" d="M189.86,263.68c.29,0-.17.08-1,.35a10.09,10.09,0,0,1-1.37.34,3.09,3.09,0,0,1-.78-.05c-.14,0-.87-.79-1.05-1.25a2,2,0,0,1-.07-.73,3.06,3.06,0,0,1,.1-.57c.1-.4.19-.62.29-.93a4.27,4.27,0,0,1,.35-.71.43.43,0,0,1,.29-.18,1,1,0,0,0,.78-.65c0-.05.07-.07,0-.21s.33-.85.48-.84l.52,0a3.17,3.17,0,0,1,.53,0c.05,0,0-.05.2,0,.38.2.38.12.44.11a.56.56,0,0,1,.34,0c.07,0,.28.11.46.16a4.43,4.43,0,0,1,.73.31,2.56,2.56,0,0,0,.62.28l.23.1a6.55,6.55,0,0,1,.61,1.51s-.05.34-.07.62a3.61,3.61,0,0,0-.14.59c0,.07-.11,0-.19,0a1.31,1.31,0,0,0-.09.38c0,.19-.05.37-.06.38s-.05.27-.43.13c-.07,0-.07,0-.07,0-.07.21-.28.27-.45.36s-.06.15-.11.19-.07,0-.1,0-.09,0-.09,0a.13.13,0,0,1-.14.08c-.06,0-.07,0,0-.09s-.4.06-.32.08S189.73,263.68,189.86,263.68Z"/><path class="cls-1" d="M164.24,194.76a23,23,0,0,0,5.67.77,30.26,30.26,0,0,0,5.81-.5,16.18,16.18,0,0,0,9.75-5.32,20.1,20.1,0,0,0,3.68-7.52,47.32,47.32,0,0,0,1.19-15.39,128.71,128.71,0,0,0-2-15.67c-.84-4.62-1.91-9.23-2.95-13.79-.67-2.93-1.36-5.88-1.83-8.89a40.34,40.34,0,0,1-.51-4.58,10.36,10.36,0,0,1,.62-4.77c.47-1,1.06-1.25,1.11-1.1s-.11.66-.09,1.43c.05,1.55.8,4.19,1.39,7.52,2.28,11.82,5.52,23.86,6.52,36.36a90.66,90.66,0,0,1,.29,11.46,34.25,34.25,0,0,1-2.29,11.54,19.69,19.69,0,0,1-3.5,5.62,18.44,18.44,0,0,1-5.26,4.07,22,22,0,0,1-6.24,2.07,35.09,35.09,0,0,1-6.46.44c-5.43-.23-10.44-2.17-15.07-4.5a82.09,82.09,0,0,1-18.94-13.85,80.31,80.31,0,0,1-11.69-13.68c-.74-1.11-1.43-2.22-2.08-3.4a22,22,0,0,1-2.06-4.91,4.54,4.54,0,0,1,.28-3.3c.49-.61,1.43,1.14,3,4.2a66.78,66.78,0,0,0,9,12.92,91.28,91.28,0,0,0,11.72,11.27,76.38,76.38,0,0,0,10,6.84,44.84,44.84,0,0,0,11,4.59Z"/><path class="cls-1" d="M145.27,89.26a12.33,12.33,0,0,1,7.17,0,17.38,17.38,0,0,1,6,3.33,63,63,0,0,1,8.5,9.28,105.13,105.13,0,0,0,7.76,9.12,28.63,28.63,0,0,0,4.43,3.65,17.13,17.13,0,0,0,5.08,2.23,17.83,17.83,0,0,0,8.12.28,22,22,0,0,0,7.62-3.14,36.24,36.24,0,0,0,10.49-10.65,41.69,41.69,0,0,0,6.05-13.87,44,44,0,0,0,.79-15.18,31.72,31.72,0,0,0-5.08-14.18,22.1,22.1,0,0,0-10.35-8.19,28.35,28.35,0,0,0-13.23-1.52,38.93,38.93,0,0,0-8.41,2A45.91,45.91,0,0,0,159.56,68c-2.08,3-2.12,2.43-.75-.43a33.63,33.63,0,0,1,10.52-11.95,43.2,43.2,0,0,1,17.12-7.28,29.49,29.49,0,0,1,18.66,2.39,24.55,24.55,0,0,1,7.57,6,29.13,29.13,0,0,1,4.85,8.25,37.48,37.48,0,0,1,2.26,9.18,45.36,45.36,0,0,1,.17,9.39,45.4,45.4,0,0,1-7.31,21.4,42.2,42.2,0,0,1-7.5,8.8A27.59,27.59,0,0,1,195,119.51a21.35,21.35,0,0,1-12.9-.16,20.36,20.36,0,0,1-5.81-3,35.77,35.77,0,0,1-4.77-4.23c-2.9-3-5.42-6.31-8-9.46s-5.18-6.27-8.33-8.49a15.18,15.18,0,0,0-3-1.64,10,10,0,0,0-3.27-.57,12,12,0,0,0-6.4,2.24,17.47,17.47,0,0,0-5,5A34.14,34.14,0,0,0,134,105.6c-2.86,6.91-4.36,14.42-6.14,21.86a62.75,62.75,0,0,1-3.46,11.11,11,11,0,0,1-3.86,4.89,5.82,5.82,0,0,1-3.32.83,8.77,8.77,0,0,1-3.11-.83l-2-1c-.65-.3-1.31-.59-2-.86a24.22,24.22,0,0,0-4-1.26,8.86,8.86,0,0,0-3.83-.05,4.52,4.52,0,0,0-2.78,2,10,10,0,0,0-1.35,3.57,12.94,12.94,0,0,0-.11,3.93,15,15,0,0,0,3,7.26,12.39,12.39,0,0,0,5.41,4,13.19,13.19,0,0,0,5.3.73,18,18,0,0,0,3.77-.63c2-.54,3.22-1,4.28-1.17a12.77,12.77,0,0,1,1.39-.33c.52,0,0,.56-1.4,1.66a17.4,17.4,0,0,1-3,1.78,16.37,16.37,0,0,1-4.76,1.5,13.94,13.94,0,0,1-8.59-1.29,16,16,0,0,1-6.5-6.09,17.54,17.54,0,0,1-2.53-8.66,15.71,15.71,0,0,1,.59-4.65,10.9,10.9,0,0,1,2.31-4.47,8.07,8.07,0,0,1,4.86-2.65,13.42,13.42,0,0,1,4.94.25,37,37,0,0,1,8.16,3.16,7.34,7.34,0,0,0,1.41.54,3.37,3.37,0,0,0,1.15.08,3,3,0,0,0,1.89-1.24,20.21,20.21,0,0,0,3-6.59c2.24-7.56,3.6-15.8,6.25-23.8a46.46,46.46,0,0,1,5.49-11.7,23.11,23.11,0,0,1,4.61-5,19.77,19.77,0,0,1,6.11-3.29Z"/><path class="cls-1" d="M90.06,71.56c1-1.24,2-2.53,3.09-3.68.55-.58,1.06-1.2,1.66-1.75l1.76-1.65A42.77,42.77,0,0,1,104.5,59,35.06,35.06,0,0,1,111,56.27,37.26,37.26,0,0,1,123.3,55a48.7,48.7,0,0,1,12,2.3,64.31,64.31,0,0,1,9.91,4.13A42.14,42.14,0,0,1,151,65a28.25,28.25,0,0,1,5.09,4.62c.92,1.11.45,1.25-.76.81A26.78,26.78,0,0,1,150,67.71a74.74,74.74,0,0,0-11.71-6.17,59.34,59.34,0,0,0-6.27-2.14,52.7,52.7,0,0,0-6.5-1.32,32.16,32.16,0,0,0-15.89,2.07A36.58,36.58,0,0,0,95.19,70.46a55,55,0,0,0-6.48,9.13,47,47,0,0,0-5.58,16,64.49,64.49,0,0,0-.57,13c0,1,.12,1.89.19,2.85.21,3.56.1,4.71-.66,5.57a3.68,3.68,0,0,1-.52.57c-.59.42-1.33-1-1.78-3.68a60.23,60.23,0,0,1-.59-12.37,57.58,57.58,0,0,1,2.09-12.7,47.84,47.84,0,0,1,3.56-9.07l.57-1.09.61-1,1.24-2.07c.86-1.36,1.78-2.69,2.72-4Z"/><path class="cls-1" d="M53,134.83a28.83,28.83,0,0,1,2.53-10.19c.27-.58.51-1.17.81-1.74a13.77,13.77,0,0,1,.93-1.68,23.94,23.94,0,0,1,10-8.81,24.62,24.62,0,0,1,5.57-2c2.44-.51,5.05-1,7.66.46a.86.86,0,0,1,.39.43c0,.13,0,.22-.05.28a3.69,3.69,0,0,1-.84.28,22.94,22.94,0,0,1-2.93.88,22.08,22.08,0,0,0-6.42,1.6,24.75,24.75,0,0,0-6,3.09,18.34,18.34,0,0,0-5.32,6.48,27,27,0,0,0-3,8.93,26.69,26.69,0,0,0-.12,5.86,20.54,20.54,0,0,0,2.65,8.4,13.86,13.86,0,0,0,4.72,4.55l.61.37.65.29c.39.2.71.38,1,.54a2.76,2.76,0,0,1,.67.41,1.53,1.53,0,0,1,.55,1.05,4.55,4.55,0,0,1,.1.61c0,.66-.92.87-2.46.5a14.85,14.85,0,0,1-6.08-3.78,18.35,18.35,0,0,1-3.95-6.22,26.52,26.52,0,0,1-1.69-10.62Z"/><path class="cls-1" d="M179.31,225.1a26.41,26.41,0,0,1-6.74-.36,40.57,40.57,0,0,1-12.42-4.31,30.6,30.6,0,0,1-2.83-1.73c-.46-.31-.92-.63-1.36-1l-.66-.52-.4-.33c-.06,0-.12-.18-.2-.09l-.64.43c-.89.63-1.83,1.15-2.74,1.73-1.84,1.1-3.73,2.13-5.64,3.09a100.9,100.9,0,0,1-11.83,5,104.59,104.59,0,0,1-18.08,4.66,94,94,0,0,1-16.42,1.24,72.39,72.39,0,0,1-16.37-2,55.92,55.92,0,0,1-15.32-6.16A47.65,47.65,0,0,1,55.09,214l-2.24-2.92-2-3.07c-.64-1-1.18-2.18-1.77-3.26s-1-2.28-1.38-3.44a37.38,37.38,0,0,1-1.83-14.52A39.57,39.57,0,0,1,51.5,169a42.39,42.39,0,0,1,13-13.28c3.27-2.11,3-1.37.69.87-.29.28-.62.58-1,.91l-.55.5-.56.59c-.77.81-1.65,1.69-2.6,2.65l-2.85,3.33-1.43,1.9c-.26.32-.51.65-.76,1l-.69,1.06-1.23,1.89c-.42.63-.71,1.33-1.08,2s-.72,1.32-1,2l-.84,2.09c-.14.35-.29.69-.41,1.05l-.32,1.08-.63,2.15c-.16.74-.29,1.48-.43,2.21a16.77,16.77,0,0,0-.34,2.22l-.21,2.24c-.06.74,0,1.49,0,2.24a35.35,35.35,0,0,0,.29,4.48c.08.74.27,1.47.39,2.2a16.05,16.05,0,0,0,.51,2.18l.63,2.15.84,2.07c.15.34.27.69.43,1l.53,1c.36.65.66,1.32,1.08,2l1.25,1.9.62,1,.69.9,1.4,1.8c.46.6,1,1.13,1.5,1.7a40.76,40.76,0,0,0,3.23,3.21,49.38,49.38,0,0,0,15.63,9.35,62.78,62.78,0,0,0,10.8,2.83,72.24,72.24,0,0,0,11.32.93,86,86,0,0,0,11.45-.68,97.58,97.58,0,0,0,11.28-2A101.11,101.11,0,0,0,145.73,219c1.85-1,3.67-2,5.44-3.13.44-.26.88-.55,1.31-.85l1.76-1.19.52-.36c.08,0,.17-.18.25-.12l.24.21.94.85c.16.14.32.28.49.41l.29.25.6.47a34.84,34.84,0,0,0,11,5.43,34.11,34.11,0,0,0,7.45,1.4,18.19,18.19,0,0,0,3.7-.11,5.88,5.88,0,0,0,3.05-1.17,7.59,7.59,0,0,0,1.71-2.94,19.18,19.18,0,0,0,.8-3.63c.17-1.26.26-2.54.39-3.86.06-.66.13-1.33.24-2a7.93,7.93,0,0,1,.62-2.15,3.22,3.22,0,0,1,.89-1.11,2.55,2.55,0,0,1,1.33-.47,42.9,42.9,0,0,0,5.58-.74,27.28,27.28,0,0,0,5.25-1.62,22.28,22.28,0,0,0,4.65-2.82,20.27,20.27,0,0,0,3.69-4c.56-.72,1-1.55,1.46-2.32s.82-1.64,1.18-2.49.68-1.72.93-2.59l.33-1.32.17-.65.08-.68A22.63,22.63,0,0,0,210.87,175c-2-5.64-5.32-10.69-8.45-15.85a84.64,84.64,0,0,1-4.44-8,75.69,75.69,0,0,1-3.39-8.53,57.26,57.26,0,0,1-2-7.86,26.3,26.3,0,0,1,0-10.89,9.23,9.23,0,0,1,2.17-4.41,8.84,8.84,0,0,1,1-1.06c.94-.56-1.52,2.9-1.18,9.91a50.14,50.14,0,0,0,3.5,15.42,76.53,76.53,0,0,0,3.19,7.47c1.21,2.39,2.61,4.76,4.06,7.15s3,4.82,4.35,7.35a53,53,0,0,1,3.71,8,28.12,28.12,0,0,1,1.71,9,21,21,0,0,1-.45,4.68l-.59,2.28-.79,2.14a27.13,27.13,0,0,1-3.83,6.7,22.87,22.87,0,0,1-5.85,5.2,25.79,25.79,0,0,1-7.16,3c-.62.15-1.24.31-1.86.42s-1.25.23-1.87.31-1.24.17-1.86.24l-.93.09-.82.07h0s0,0,0,.06a2.86,2.86,0,0,0-.15.4,15.72,15.72,0,0,0-.38,2.4c-.18,1.79-.29,3.71-.65,5.68a14.1,14.1,0,0,1-2.34,5.93,6.85,6.85,0,0,1-.58.69,5,5,0,0,1-.79.69,7.37,7.37,0,0,1-1.66.87,12.28,12.28,0,0,1-3.19.69Z"/><path class="cls-1" d="M93,328.25q5.35-15.42,11.46-30.55c1.51-3.67,2.92-7.38,4.51-11a381.73,381.73,0,0,1,18.62-37.6c3.13-5.37,6.3-10.76,9.82-15.84l1.67-2.47,1.78-2.39,1.8-2.39c.62-.78,1.28-1.53,1.92-2.3l1.95-2.27c.69-.73,1.4-1.43,2.11-2.14s1.39-1.43,2.14-2.09,1.59-1.23,2.38-1.84c2-1.5,1.94-1,.72.77s-3.5,4.79-6.37,8.2c-10.15,12.19-18.09,26.24-25.53,40.57-4.45,8.6-8.41,17.89-12.26,27Q103.39,307,97.86,322.43c-2.24,6.33-4.46,12.68-6.51,19.07-3.14,9.68-6.12,19.46-8.7,29.22-2,7.59-3.67,15.11-5.13,22.71-.34,1.67-.57,3.32-.88,5-1.06,6.27-1.29,8.21-2.08,9.53a8.47,8.47,0,0,1-.49.89c-.41.63-1-2.09-.43-6.81,1.69-14,5.35-28.21,9.35-42.4,3-10.54,6.37-21,9.92-31.4Z"/><path class="cls-1" d="M151.54,247.61a13.88,13.88,0,0,0,1.14,4.52,2.76,2.76,0,0,0,.88,1.14,4.87,4.87,0,0,0,1.94.34,6.64,6.64,0,0,0,3-1,20,20,0,0,0,4.84-4.16,59.44,59.44,0,0,0,4.14-5.35c1.16-1.65,2.25-3.38,3.32-5.1,1.39-2.2,2.67-4.54,5-6.24.85-.49.86,0,.63.73a14.54,14.54,0,0,1-1.22,3.23c-2.65,4.38-5.17,9.2-8.85,13.33-1.08,1.24-2.19,2.52-3.44,3.73a14.55,14.55,0,0,1-4.42,3.09,8,8,0,0,1-4.73.54l-.78-.21-.39-.12-.47-.22a4.62,4.62,0,0,1-.8-.57,6.06,6.06,0,0,1-.59-.66,6.72,6.72,0,0,1-.83-1.39,12.74,12.74,0,0,1-.88-2.82,30.16,30.16,0,0,1-.48-6.87A49.63,49.63,0,0,1,150,233.41a44.57,44.57,0,0,1,2.38-7.48c.24-.52.44-1.06.72-1.57,1-1.92,1.63-2.37,2.32-2.46a2.82,2.82,0,0,1,.48,0c.46.08.27,1-.3,2.36a47.23,47.23,0,0,0-2.23,6.39,58.45,58.45,0,0,0-1.47,6.76,39.07,39.07,0,0,0-.3,10.23Z"/><path class="cls-1" d="M210.62,226.11a16.32,16.32,0,0,1,2,4.15,6.07,6.07,0,0,1,.21,2.92,2.93,2.93,0,0,1-.3.84l-.21.41-.29.35a4.13,4.13,0,0,1-1.3,1,8.89,8.89,0,0,1-3.53.76,25.92,25.92,0,0,1-10.7-2.41,32.3,32.3,0,0,1-4.25-2.31,11.88,11.88,0,0,1-4.3-4.46c-.31-.58.12-.73.8-.58a5.89,5.89,0,0,1,1.17.41,5.1,5.1,0,0,1,1.28.75,28.14,28.14,0,0,0,10,5.08,17.43,17.43,0,0,0,6.9.58l.82-.15.34-.13.18,0,.11-.08c.37-.2.45-.31.5-.67a2.84,2.84,0,0,0-.3-1.41,11.17,11.17,0,0,0-.86-1.63,35.82,35.82,0,0,0-2.84-4c-1.6-1.95-3.26-3.9-5-5.75-1.35-1.45-2.83-2.74-4.18-4.29a10.52,10.52,0,0,1-.89-1.07c-1-1.48-1-2.47-.12-3a1.92,1.92,0,0,1,.56-.3,1.56,1.56,0,0,1,.95.14,2.24,2.24,0,0,1,.47.23,2.85,2.85,0,0,1,.47.42c1,1.07,2.25,2.29,3.47,3.55s2.49,2.59,3.7,4a74.55,74.55,0,0,1,5.26,6.66Z"/><path class="cls-1" d="M122.26,372.32l-3.16,18.8c-.43,2.3-.75,4.61-1.25,6.89-.43,2-.87,4-1.41,6s-1.12,4-1.74,6l-.23.74a5,5,0,0,1-.45.94,5.79,5.79,0,0,1-1.27,1.37,13.32,13.32,0,0,1-2.85,1.73,31.13,31.13,0,0,1-6,1.94,48.28,48.28,0,0,1-11,1.16,32.21,32.21,0,0,1-7.09-.82,16.57,16.57,0,0,1-6.53-3.11c-1.15-1-.61-1.22.63-.91l2.44.57,3.31.72a38.79,38.79,0,0,0,13.4.52,42.82,42.82,0,0,0,6.68-1.28,28.38,28.38,0,0,0,3.14-1.11,9.87,9.87,0,0,0,2.63-1.58c.09-.09.2-.18.28-.27l.21-.27c0-.09.08-.17.13-.25s.11-.32.16-.47c.21-.68.43-1.35.64-2s.42-1.37.61-2.06l.52-2.1c.35-1.4.68-2.81.94-4.24s.6-2.84.85-4.27C117,388.66,118,382.33,119,376l1-5.84,1.07-5.83c1.14-5.88,2.56-11.74,4.19-17.47a128.35,128.35,0,0,1,4.39-13.06l1.13-2.81a21.75,21.75,0,0,1,2-3.5,3.29,3.29,0,0,1,1.43-1.25,4.6,4.6,0,0,1,.61-.26c.53-.12.31,1.5-.76,4a156.53,156.53,0,0,0-7.94,23.64c-1.5,6.14-2.73,12.4-3.78,18.7Z"/><path class="cls-1" d="M137.83,400.21q1-9.3,1.75-18.66c.18-2.27.26-4.55.43-6.82.56-8,1-16.06,1.31-24.1.14-3.57.16-7.16.21-10.7.06-4.55.05-9.12.26-13.67.07-1.42.43-1.23.83,0a23.35,23.35,0,0,1,.92,6c.32,9.32,0,18.63-.53,28-.35,5.61-.48,11.45-.82,17.19-.38,6.3-.85,12.61-1.47,18.9q-.57,5.81-1.28,11.6c-.72,5.85-1.61,11.71-2.63,17.48-.79,4.49-1.55,8.9-2.74,13.28-.27,1-.53,1.91-.83,2.88-1.19,3.56-1.92,4.59-2.81,5.05a2.58,2.58,0,0,1-.6.3c-.29.06-.38-.3-.28-1a26.37,26.37,0,0,1,.76-2.94c1.15-3.76,2.06-7.72,2.87-11.77s1.55-8.18,2.2-12.35c.94-6.19,1.74-12.44,2.38-18.71Z"/><path class="cls-1" d="M242.32,365.26l-6.58-25.85c-.79-3.15-1.66-6.28-2.42-9.43q-2-8.34-3.87-16.74c-.6-2.8-1.21-5.6-1.72-8.43s-1-5.68-1.4-8.52c-.7-5-1.51-10-2.28-15l-.74-4.78c-.27-1.6-.55-3.22-.78-4.81s-.52-3.17-.8-4.73a30.21,30.21,0,0,0-1.13-4.57c-.68-1.8-.23-1.83,1-.44a18.34,18.34,0,0,1,3.41,8.15c1.18,6.46,2.24,13,3.15,19.6.46,3.26.92,6.52,1.38,9.8.21,1.61.52,3.23.81,4.85s.56,3.25.91,4.88c1.49,7.79,3.68,15.78,5.63,23.68q3.33,13,6.65,26,2.08,8,4.15,16c2.08,8.09,4.17,16.21,6.24,24.24,1.62,6.23,3.29,12.33,4.83,18.53.34,1.36.66,2.71.94,4.1,1.13,5.14,1,6.9.59,8.09a4.22,4.22,0,0,1-.3.8c-.18.28-.46-.09-.83-1a27.47,27.47,0,0,1-1.24-4.18c-2.84-11-5.82-22.58-8.82-34.22l-6.8-26Z"/><path class="cls-1" d="M238.27,256.67c-1.22-1.7-2.49-3.36-3.87-4.94-.51-.58-1.06-1.12-1.58-1.68q-2.72-3-5.72-5.82c-.89-.82-1.85-1.57-2.8-2.31a29.57,29.57,0,0,1-3.62-2.91c-.68-.7,1.49-1.55,3-.51a51,51,0,0,1,7.3,6.28c1.33,1.41,2.88,2.69,4.27,4.11,1.5,1.58,3,3.2,4.32,4.92.86,1,1.63,2.14,2.44,3.2,1.19,1.66,2.28,3.39,3.36,5.08.42.67.89,1.29,1.33,1.94L248,266a8.54,8.54,0,0,1,.55.87c.61,1.13.59,1.6,0,2.18a5.11,5.11,0,0,1-.42.39c-.52.36-1.21.11-1.77-.61-1.62-2.18-3-4.56-4.57-6.91-.56-.88-1.15-1.74-1.74-2.6s-1.21-1.72-1.81-2.58Z"/><path class="cls-1" d="M297.73,164.73c-2.2.84-4.38,1.72-6.5,2.69a39.25,39.25,0,0,0-6,3.25,6.8,6.8,0,0,0-1.16,1,7.93,7.93,0,0,0-1,1.17c-.33.41-.61.93-.91,1.39s-.58,1-.85,1.49c-1.12,2-2.1,4.15-3.06,6.29-1.39,3.14-2.59,6.38-3.84,9.59-4.38,11.36-8.34,22.92-12.1,34.54-1.67,5.16-3.23,10.38-4.73,15.54l-2.94,10c-1,3.32-2,6.63-3.21,9.88-.76,2-1.09,1.62-1.08-.28a37.62,37.62,0,0,1,.24-3.86,40.23,40.23,0,0,1,1.07-5.31l2.85-10.21c1-3.39,2.05-6.77,3.11-10.15q3.19-10.12,6.76-20.21c2.89-8,5.6-16.48,8.86-24.61a113.54,113.54,0,0,1,6.07-13.2,26.65,26.65,0,0,1,2.07-3.15,6.75,6.75,0,0,1,.68-.76,5.94,5.94,0,0,1,.74-.69A15.93,15.93,0,0,1,284.4,168a48.22,48.22,0,0,1,6.52-3.4c5.46-2.41,11.05-4.35,16.64-6.26,4.23-1.41,8.49-2.87,12.89-3.91a67.34,67.34,0,0,1,6.65-1.3c1.13-.15,2.26-.26,3.41-.3.58,0,1.16,0,1.76,0,.3,0,.59.06.9.11a5.31,5.31,0,0,1,1.07.3,2.6,2.6,0,0,1,1.49,1.26,2.86,2.86,0,0,1-.81,3,10.28,10.28,0,0,1-2,1.66,27.81,27.81,0,0,1-4.37,2.25A46.66,46.66,0,0,1,324,163.1c-.78.23-1.55.45-2.34.65s-1.48.4-2.22.63c-1.39.43-2.73.94-4.11,1.48-5.09,2.06-6.62,2.82-8,2.74a7.16,7.16,0,0,1-.94,0c-.41-.06-.2-.59.6-1.32a19,19,0,0,1,4.06-2.59,51.77,51.77,0,0,1,6.25-2.63c1.08-.36,2.19-.71,3.32-1s2.11-.54,3.16-.87a40,40,0,0,0,6-2.37,15.31,15.31,0,0,0,2.58-1.6c.18-.15.34-.29.48-.43l.07-.08h0s0,0,0,0h0l-.49-.08a14.24,14.24,0,0,0-2.37,0,41.09,41.09,0,0,0-5.16.69,104.77,104.77,0,0,0-13.6,3.77c-4.53,1.51-9.05,3.06-13.48,4.78Z"/><path class="cls-1" d="M322.52,173.81a4.06,4.06,0,0,0,.27-2.5.64.64,0,0,0-.18-.31,1.5,1.5,0,0,0-.24-.3,8.71,8.71,0,0,0-1.57-1.25c-.61-.39-1.23-.79-1.88-1.15a13.59,13.59,0,0,0-1.8-.78,11.45,11.45,0,0,1-2.33-.93c-.22-.14-.08-.56.27-.92a1.56,1.56,0,0,1,1.4-.55,15.88,15.88,0,0,1,4.94,2.13,15.41,15.41,0,0,1,3,2.1,4.12,4.12,0,0,1,.91,2.15,6.54,6.54,0,0,1,0,1.08c0,.34-.07.67-.13,1a12.66,12.66,0,0,1-.71,2.26,29.52,29.52,0,0,1-1.57,3.07c-.45.75-.75,1.6-1.27,2.34a3.36,3.36,0,0,1-.35.49c-.49.56-.84.59-1.38.22a3.41,3.41,0,0,1-.37-.25,1.11,1.11,0,0,1-.31-1.27,20.82,20.82,0,0,1,1.93-3.83,14.81,14.81,0,0,0,1.31-2.81Z"/><path class="cls-1" d="M316.49,175a.2.2,0,0,0,0-.18,3.82,3.82,0,0,0-.8-.51c-.23-.12-.5-.16-.75-.27a16.14,16.14,0,0,0-2.82-1,6,6,0,0,0-1.33-.13,5,5,0,0,1-1.57-.06,1.7,1.7,0,0,1-.2-1c.1-.53.46-1,.84-1.06a8.91,8.91,0,0,1,3.77.61c.71.29,1.5.35,2.26.61a9.51,9.51,0,0,1,1.24.54c.22.12.38.22.65.4a4.24,4.24,0,0,1,.7.63,2.2,2.2,0,0,1,.46,1,2.07,2.07,0,0,1-.17,1.07l-.09.21-.55,1a10.33,10.33,0,0,0-.45.95c-.22.54-.32,1.13-.51,1.69a2.91,2.91,0,0,1-.12.39c-.17.47-.55.49-1.08.28l-.34-.14a1.59,1.59,0,0,1-.43-.39.93.93,0,0,1-.25-.53,7.68,7.68,0,0,1,.26-1.57,10.78,10.78,0,0,1,.64-1.49l.3-.59.16-.29.07-.11h0s0,0,.06,0Z"/><path class="cls-1" d="M319,184a3.19,3.19,0,0,1-.22,3.42,5.54,5.54,0,0,1-2.09,1.66,18,18,0,0,1-4,1.27,25.08,25.08,0,0,1-2.94.5,42.26,42.26,0,0,1-10.21-.67c-1.47-.28-3-.55-4.41-.92a11.57,11.57,0,0,1-5.34-2.45c-.46-.48-.09-.64.51-.63a9,9,0,0,1,2.42.39c3.4,1.12,7.23,1.42,10.93,2a25.27,25.27,0,0,0,6.84-.2,21.44,21.44,0,0,0,3.62-.87,9.85,9.85,0,0,0,1.61-.67,3.16,3.16,0,0,0,1-.86.75.75,0,0,0-.22-1,4.14,4.14,0,0,0-1.78-.82A2,2,0,0,0,314,184h-.88l-1.83,0a36.15,36.15,0,0,1-3.74-.18,18.08,18.08,0,0,1-5.79-1.29c-.41-.21-.82-.39-1.22-.62-1.37-1.08-1.52-1.73-1.25-2.41a2.13,2.13,0,0,1,.2-.46c.31-.44,1-.26,1.9.18.67.31,1.31.61,2,.87a17.19,17.19,0,0,0,2.14.61,25.4,25.4,0,0,0,4.72.49l1.87,0c.66,0,1.25,0,2.06,0a7.8,7.8,0,0,1,.78.09c.25.06.4.11.6.17a9,9,0,0,1,1.15.43,5.11,5.11,0,0,1,2.32,2Z"/><path class="cls-1" d="M288.93,196c.27-.84.59-1.67.9-2.51.13-.3.19-.62.32-.92a26.13,26.13,0,0,1,1.66-3c.3-.42.52-.88.78-1.31a4,4,0,0,1,1.17-1.54c.17-.12.52.18.81.59s.51.93.36,1.22a16,16,0,0,1-1.82,3.07,7.79,7.79,0,0,0-.88,2c-.3.77-.57,1.56-.82,2.37-.15.49-.31,1-.43,1.5a21,21,0,0,0-.5,2.33,5.79,5.79,0,0,0,0,.93c0,.31,0,.62-.06.93a1.4,1.4,0,0,1-.05.41.63.63,0,0,1-.35.48,1.23,1.23,0,0,1-.57.13h-.3c-.29,0-.57-.28-.81-.7a6.67,6.67,0,0,1-.29-1.74,14.32,14.32,0,0,1,.23-1.71c.17-.85.4-1.71.63-2.57Z"/><path class="cls-1" d="M284.72,202.12c-1.23-.3-2.49-.55-3.76-.74-.46-.06-.93,0-1.39-.1a32.33,32.33,0,0,0-4.9-.31,8.48,8.48,0,0,0-2.09.37c-.86.27-1.55.72-2.25,1-.22.07-.68-.35-.87-1a1.87,1.87,0,0,1,0-1,1.36,1.36,0,0,1,.64-.82,9.62,9.62,0,0,1,3.26-1,12.45,12.45,0,0,1,3.17,0c1.24.18,2.5.09,3.74.22s2.71.38,4,.65c.82.18,1.63.36,2.44.57,1.23.3,2.44.69,3.66,1a20,20,0,0,1,2.88.86,6,6,0,0,1,.61.32c.7.54.8,1,.57,1.45a1.59,1.59,0,0,1-.16.32c-.23.32-.65.36-1.18.3a27.15,27.15,0,0,1-4.7-1.13c-1.21-.33-2.45-.66-3.71-.91Z"/><path class="cls-1" d="M291.07,268.18c-2.07,7.44-4.38,14.83-7.14,22.07-1,2.65-2,5.3-3.21,7.88a73.54,73.54,0,0,1-7.5,13.09,29.14,29.14,0,0,1-5.34,5.6,15.84,15.84,0,0,1-3.45,2l-1,.35-1,.25a19,19,0,0,1-1.94.3,17.89,17.89,0,0,1-6.94-.6,19.91,19.91,0,0,1-6.13-3.15,48.44,48.44,0,0,1-6.29-5.8c-1.9-2-3.71-4.15-6-5.07a6.68,6.68,0,0,1-.77-.33c-.16-.1-.23-.21-.21-.32s.13-.23.35-.33a2.29,2.29,0,0,1,1-.23,6.94,6.94,0,0,1,3.33.79,15.31,15.31,0,0,1,3.78,2.65c1.08,1,2.07,2,3,3a37.75,37.75,0,0,0,3,2.71,16.61,16.61,0,0,0,6.74,3.45,15.51,15.51,0,0,0,3.74.34,14.81,14.81,0,0,0,3.66-.61,16.17,16.17,0,0,0,6.16-4.49,41,41,0,0,0,5.66-8.37c1.61-3.06,3-6.26,4.36-9.47a220.81,220.81,0,0,0,7.55-21.75q2-6.82,3.69-13.74c1.7-7,3.24-14,4.49-21.07,1-5.46,1.62-10.86,2.21-16.3.11-1.19.22-2.36.33-3.57a44.32,44.32,0,0,1,.64-4.7,6.42,6.42,0,0,1,.81-2.06c.15-.23.23-.52.33-.67.23-.53,1.25,1.46,1.18,4.83A135.73,135.73,0,0,1,299,230c-.68,5.11-1.53,10.26-2.51,15.4-1.5,7.62-3.29,15.22-5.3,22.75Z"/><path class="cls-1" d="M208.21,351a121.7,121.7,0,0,1-16.35,4c-2,.37-4,.71-6.05,1a130.13,130.13,0,0,1-21.52.79c-3.19-.17-6.39-.35-9.52-.79a52.67,52.67,0,0,1-11.91-2.6c-1.2-.42-1-.64.17-.7a21.67,21.67,0,0,1,2.25,0l1.49.08c.52.05,1.06.12,1.63.22a108.75,108.75,0,0,0,12.1,1.39c4.06.28,8.14.42,12.26.38a103.5,103.5,0,0,0,15-1.47A130.34,130.34,0,0,0,204,349.72a98.21,98.21,0,0,0,9.64-3.38,59.1,59.1,0,0,0,13.46-7.41,23.93,23.93,0,0,0,2.25-1.89,24.79,24.79,0,0,0,2-2.06c.67-.69,1.19-1.49,1.79-2.23.26-.39.49-.8.74-1.2a7.77,7.77,0,0,0,.69-1.22,14.82,14.82,0,0,0,.91-2.24c.13-.36.24-.68.34-1a8.07,8.07,0,0,0,.2-.82,11.65,11.65,0,0,1,.37-1.25,2.78,2.78,0,0,1,.76-1.42,4.31,4.31,0,0,1,.47-.48c.25-.17.48.07.68.7a8.37,8.37,0,0,1,.27,1.23,8.14,8.14,0,0,1-.08,1.73,14.05,14.05,0,0,1-.67,2.85,24.94,24.94,0,0,1-1.22,2.69,25.24,25.24,0,0,1-3.51,4.7,42.26,42.26,0,0,1-9.2,7.13,82,82,0,0,1-15.66,6.91Z"/><path class="cls-1" d="M79.4,446.65a49.89,49.89,0,0,1,1.2-8.24c.19-1,.39-2,.63-2.93.88-3.41,2-6.73,3-10.06a44.44,44.44,0,0,0,1.1-4.45c.09-.48.19-1,.26-1.43s.1-1,.19-1.42.11-.93.19-1.4a9.07,9.07,0,0,0,.13-1.37c0-.57.36-.61.8-.14a4.52,4.52,0,0,1,.73,1.11,5.22,5.22,0,0,1,.33,1.68,18.9,18.9,0,0,1-.43,3.12c-.2,1-.45,2-.71,3-.52,2-1.13,3.9-1.78,5.82a73.27,73.27,0,0,0-1.91,7.13A56.67,56.67,0,0,0,81.68,445a22.37,22.37,0,0,0-.15,2.45c0,.41,0,.82,0,1.22l.09,1.22.07.92a8.91,8.91,0,0,0,.16.9c.13.6.21,1.2.39,1.8.35,1.22.72,2.42,1.16,3.58a27.42,27.42,0,0,0,2.64,5c.22.35.47.67.7,1,.88,1.27,1.11,1.73,1.06,2.23a1.69,1.69,0,0,1,0,.33c-.08.29-.72,0-1.63-.83a17.25,17.25,0,0,1-3.4-4.4,33.33,33.33,0,0,1-2.14-5.24,26.32,26.32,0,0,1-1-4.2l-.2-2.17c0-.72,0-1.44,0-2.15Z"/><path class="cls-1" d="M87.12,462.48c-.42-1.26-.76-2.53-1.06-3.81-.11-.46-.28-.91-.37-1.38-.33-1.65-.53-3.31-.71-5-.07-.74-.2-1.47-.3-2.2a9.79,9.79,0,0,1,0-2.86c0-.3.31-.25.6,0a2.36,2.36,0,0,1,.8,1.16c.11.45.22.9.34,1.35s.14.92.21,1.38c.12.92.24,1.85.33,2.8a23.68,23.68,0,0,0,.72,3.38c.3,1.23.61,2.46,1,3.66a21.23,21.23,0,0,0,.8,2.19,15.15,15.15,0,0,0,1.62,3.09,5.81,5.81,0,0,0,.87,1,6.13,6.13,0,0,0,1,.79l.44.31c.57.29.63.56.53,1.12,0,.12,0,.26-.07.38-.11.41-.54.55-1.18.34a8.89,8.89,0,0,1-4-4,25.56,25.56,0,0,1-1.65-3.72Z"/><path class="cls-1" d="M99.38,466.29l.08.45c0,.16,0,.26.09.6.09.56.1,1.07.14,1.58a3.7,3.7,0,0,1-.55,2.32,1.38,1.38,0,0,1-.4.35,1.18,1.18,0,0,1-.53.25,1.77,1.77,0,0,1-1-.07,5,5,0,0,1-2.07-1.61c-.25-.28-.47-.59-.71-.88l-.43-.6c-.26-.38-.5-.76-.72-1.16a32.62,32.62,0,0,1-3.12-8.86c-.28-1.36-.56-2.72-.7-4.08-.09-.87-.19-1.75-.21-2.63a13.78,13.78,0,0,1,.23-2.64c.09-.54.36-.45.68,0a8.11,8.11,0,0,1,.51.93,3.63,3.63,0,0,1,.43,1.3c.17,1.7.54,3.36.79,5s.63,3.34,1.07,5a21,21,0,0,0,2.62,5.66c.15.24.31.48.46.7l.19.27a2.58,2.58,0,0,0,.48.52.47.47,0,0,0,.35.13.32.32,0,0,0,.19-.27,2.23,2.23,0,0,0,0-.73l0-.24,0-.13-.05-.27-.21-1.06L96.47,464c-.48-2.18-.88-4.42-1.15-6.67a20.72,20.72,0,0,1-.14-5.35,8.94,8.94,0,0,1,.25-1.23c.46-1.53,1.11-1.83,1.79-1.71a3.42,3.42,0,0,1,.39.05c.18.05.24.24.32.58a2.06,2.06,0,0,1-.08,1.11c-.66,2.49-.35,5.49.15,8.53.39,2.27.92,4.56,1.44,6.95Z"/><path class="cls-1" d="M107.66,447.46c-.79-1.95-2.25-3.89-3.16-6.19a25.62,25.62,0,0,1-1-2.43,30,30,0,0,1-1.39-9c0-1.35,0-2.7.15-4a20.17,20.17,0,0,1,1-5c.18-.5.44-.38.66.12a5.53,5.53,0,0,1,.39,2.31c-.07,1.69-.21,3.33-.24,5s0,3.29.13,5a21.6,21.6,0,0,0,1.54,5.9,27.5,27.5,0,0,0,1.37,3.07c.54,1,1.16,2,1.76,3a20.9,20.9,0,0,1,1,2c.14.36.27.73.38,1.1a7.71,7.71,0,0,1,.25,1.3c0,.14,0,.29,0,.43a2.25,2.25,0,0,1-.2,1,1.54,1.54,0,0,1-.77.72,3.21,3.21,0,0,1-2.12,0,10.63,10.63,0,0,1-3-1.48,18.61,18.61,0,0,1-3.92-3.49,10.66,10.66,0,0,1-.69-.93c-.76-1.24-.74-1.78-.35-2.29a2.38,2.38,0,0,1,.27-.34c.34-.29.92,0,1.54.75.46.53,1,1,1.45,1.53a20.26,20.26,0,0,0,1.49,1.44,15.07,15.07,0,0,0,1.62,1.27,10.92,10.92,0,0,0,1.67,1,3.49,3.49,0,0,0,.34.15l.26.09h0v-.11c0-.19-.06-.39-.13-.59a10,10,0,0,0-.45-1.25Z"/><path class="cls-1" d="M157.31,140.58a9.86,9.86,0,0,1-.67,3.32,5.44,5.44,0,0,1-1.09,1.65,4.57,4.57,0,0,1-1.67,1.08,6.84,6.84,0,0,1-1.3.37,5,5,0,0,1-1.34,0,7.45,7.45,0,0,1-3.85-1.78,17.73,17.73,0,0,1-2.62-2.81c-.69-.87-1.34-1.76-2-2.66a13,13,0,0,1-1.95-3.73c-.12-.43.28-.52.81-.37a3,3,0,0,1,1.59,1.15A36.69,36.69,0,0,0,148.2,143a5,5,0,0,0,3.77,1.52,2.44,2.44,0,0,0,1.73-.75,3.65,3.65,0,0,0,.79-2,14.19,14.19,0,0,0,0-3.26c-.17-1.71-.42-3.46-.73-5.2a42.31,42.31,0,0,1-.75-4.19,4.83,4.83,0,0,1,0-1c.17-1.29.65-1.71,1.45-1.62a2.43,2.43,0,0,1,.55.07,1.51,1.51,0,0,1,.94,1.35l1,6.79a38.56,38.56,0,0,1,.45,6Z"/><path class="cls-1" d="M175.67,136.53a5.28,5.28,0,0,0,1.39,1.28c.4.15.37.24.79,0s.38-.6.58-1a9.37,9.37,0,0,0,.36-3c0-1.1-.09-2.24-.2-3.38s-.23-2-.36-3.06a16.68,16.68,0,0,1-.18-2,7.94,7.94,0,0,1,.31-2c.13-.42.49-.3.88.08a4.28,4.28,0,0,1,.6.7,2.63,2.63,0,0,1,.45.94,49.25,49.25,0,0,1,.94,7.81c0,1.67.34,3.46-.46,5.51-.15.27-.31.54-.47.8a5.77,5.77,0,0,1-.62.69,3.32,3.32,0,0,1-1.86.89,3.49,3.49,0,0,1-1.95-.34,6.38,6.38,0,0,1-1.38-.92,13.81,13.81,0,0,1-2.3-2.78,29.17,29.17,0,0,1-2.35-4.67,26.18,26.18,0,0,1-1.43-3.84,4.19,4.19,0,0,1-.13-1,2.22,2.22,0,0,1,.26-1.31,1.26,1.26,0,0,1,.83-.44,2.1,2.1,0,0,1,.41,0,.85.85,0,0,1,.57.35,2,2,0,0,1,.48.75c.13.46.4.93.55,1.4s.35,1,.55,1.47c.39,1,.85,2,1.3,3a18.44,18.44,0,0,0,2.49,4.09Z"/><path class="cls-1" d="M164.45,133.06a47.26,47.26,0,0,1-2.78-7.61,27.73,27.73,0,0,1-.73-2.89l-.22-1.34c0-.45,0-.91-.06-1.37a16.14,16.14,0,0,1,.15-2.77,11.49,11.49,0,0,1,2.25-5.14,11,11,0,0,1,3.81-3.14,7.74,7.74,0,0,1,6.14-.71c.66.25.36.69-.19,1.16a9.4,9.4,0,0,1-2.13,1.47l-.55.22a4.25,4.25,0,0,1-.54.24,10,10,0,0,0-1.06.46c-.34.17-.66.39-1,.58s-.62.43-.87.69a8.28,8.28,0,0,0-2.62,3.69c-.69,1.88-.32,4.15.15,6.3a44.07,44.07,0,0,0,2.31,7.23,32.79,32.79,0,0,0,2.1,4.19,25.73,25.73,0,0,0,4.3,5.57,18.53,18.53,0,0,0,4.41,3c.34.19.69.33,1,.52,1.23.73,1.59,1,1.57,1.94,0,.18,0,.35,0,.48,0,.35-.86.88-2.05.57a13.54,13.54,0,0,1-5-2.39,22.82,22.82,0,0,1-4.1-3.88,35.35,35.35,0,0,1-4.47-7Z"/><path class="cls-1" d="M136.68,120.5c3.62-3.58,9.24-5.66,14.09-3.3,2,1,3.79-2,1.76-3-6.29-3.06-13.5-.91-18.33,3.86-1.6,1.58.87,4,2.48,2.47Z"/><path class="cls-1" d="M165.94,169.34c3.8,1.47,9.25.9,11.37-3,.93-1.7-1.66-3.22-2.59-1.52-1.48,2.73-5.46,2.6-8,1.63-1.8-.7-2.58,2.2-.79,2.89Z"/><path class="cls-1" d="M193.45,260.65a12.25,12.25,0,0,1-.58,2.65,7,7,0,0,1-.63,1.39,4.14,4.14,0,0,1-1.39,1.4,3.41,3.41,0,0,1-2.8.2,3.62,3.62,0,0,1-1.86-1.53,4.63,4.63,0,0,1-.61-1.89,10.29,10.29,0,0,1,.24-3.28c.19-.9.37-1.79.59-2.65a9.09,9.09,0,0,1,1.28-3.21c.23-.3.62,0,.94.42a2.3,2.3,0,0,1,.47,1.68,38.94,38.94,0,0,0-1,6.06,2,2,0,0,0,.3,1.34,1,1,0,0,0,.63.38.62.62,0,0,0,.71-.38,5.46,5.46,0,0,0,.57-1.79,10.55,10.55,0,0,0,.12-2.58,7.06,7.06,0,0,0-1.09-3.59,2,2,0,0,0-.95-.7,1.54,1.54,0,0,0-1,0,4.34,4.34,0,0,0-.4.17c-.54.19-.86.05-1.43-.67-.12-.15-.25-.28-.35-.4a1.14,1.14,0,0,1-.2-.83,1.21,1.21,0,0,1,.16-.53,1.15,1.15,0,0,1,.42-.43,2.86,2.86,0,0,1,.94-.47,4,4,0,0,1,1.14-.23,4.7,4.7,0,0,1,2.48.6,6,6,0,0,1,1.75,1.62,8.48,8.48,0,0,1,.95,1.84,13.09,13.09,0,0,1,.65,5.39Z"/><path class="cls-1" d="M194.94,282.51a10.64,10.64,0,0,1-.51,2.43,6.94,6.94,0,0,1-.57,1.26c-.06.1-.14.21-.22.33a1.6,1.6,0,0,1-.31.37l-.33.32-.38.26a3.22,3.22,0,0,1-2.58.14,2.67,2.67,0,0,1-.93-.55,2.59,2.59,0,0,1-.69-.8c-.08-.14-.17-.29-.24-.43l-.15-.44a3.84,3.84,0,0,1-.18-.84,9.55,9.55,0,0,1,.2-3c.18-.83.33-1.65.55-2.45a8.49,8.49,0,0,1,1.17-3c.2-.28.54-.05.81.36A2.12,2.12,0,0,1,191,278a33.23,33.23,0,0,0-.94,5.63,3.59,3.59,0,0,0,.05.74,1.87,1.87,0,0,0,.25.53c.05.07.09.15.16.17s.09.1.17.11l.2.08a1.24,1.24,0,0,0,.16,0,.42.42,0,0,0,.36,0,.72.72,0,0,0,.31-.36,5.53,5.53,0,0,0,.54-1.68,10.68,10.68,0,0,0,.1-2.4,6.71,6.71,0,0,0-1-3.35,2,2,0,0,0-.9-.67,1.49,1.49,0,0,0-.91,0,2.14,2.14,0,0,0-.39.16c-.52.17-.81.06-1.31-.56-.11-.13-.23-.24-.32-.34a1,1,0,0,1-.16-.73,1.14,1.14,0,0,1,.55-.85,3.62,3.62,0,0,1,1.88-.61,4.14,4.14,0,0,1,2.23.54,5.33,5.33,0,0,1,1.58,1.47,7.41,7.41,0,0,1,.87,1.67,12.07,12.07,0,0,1,.6,4.94Z"/><path class="cls-1" d="M157.67,73c11.86-20,30.56-23.12,30.56-23.12,24.42-4.38,31,18.49,30.35,33.22s-11.4,33.27-27.82,35.16S168,102.42,156.28,93.41s-19.63,2.7-19.63,2.7c-7,8.42-11.58,35.18-11.58,35.18-2.17,7.46-3.37,9.76-8.28,10.92s-7.51-6.32-17.19-1.81,0,17.39,0,17.39c11.79,10.77,21.93,2.3,21.93,2.3s21,34.12,44.8,37.28,25.46-14.14,25.37-18.25.79-14.73-3-30.94c0,0-6.68-27.65-3.73-30,0,0,7.35,2,10.84,0,0,0-4.35,4.82-2.49,10.73s2.62,18.58,11,31.3,11.78,18.81,7.65,29.55-14.14,15.27-21.84,16c-1.32.11-1.24-1.63-1.87,3.42s-.22,9.89-4.74,12.63-22.42,1.27-29.58-7c0,0-33.3,23.36-63.81,16.26,0,0-41-2.47-42.29-45.21,0,0-1.05-15.79,19.37-30.95a18.68,18.68,0,0,1-9.27-9.12c-5-11.51-1.89-28.88,22.7-32.56,0,0-4.93-31.47,20.72-50.47C101.33,62.69,125.28,42.63,157.67,73Z"/><path class="cls-1" d="M161,253.45c1.28-1.08,2.49-2.28,3.69-3.51.44-.45.84-.91,1.26-1.37a52.44,52.44,0,0,0,4.15-5.1c.57-.79,1.09-1.62,1.6-2.44.67-1.06,1.28-2.15,2-3.16.44-.64.66.62,0,1.91a36.33,36.33,0,0,1-4.33,6.42c-1,1.2-2,2.5-3,3.67s-2.4,2.52-3.69,3.72a27.7,27.7,0,0,1-2.49,2.08,9.38,9.38,0,0,1-4.61,1.94,5.13,5.13,0,0,1-3.76-1.34c-.21-.21-.42-.41-.62-.63a2.29,2.29,0,0,1-.54-1,.81.81,0,0,1,.08-.62,1.56,1.56,0,0,1,.1-.22c.08-.15.64,0,1.11.52a13.25,13.25,0,0,0,1.06,1.06,5,5,0,0,0,1.18.71,3.86,3.86,0,0,0,2.74,0,14.19,14.19,0,0,0,4.08-2.63Z"/><path class="cls-1" d="M276.69,204.43a17.68,17.68,0,0,0-2.06,0c-.25,0-.5.07-.75.09a20,20,0,0,0-2.68.32,6.33,6.33,0,0,0-1.15.33,6.67,6.67,0,0,1-1.45.48c-.33,0-.39-1.19.2-1.44a10.57,10.57,0,0,1,3.2-.73c.66-.05,1.32-.23,2-.3s1.47-.11,2.21-.12c.45,0,.91,0,1.36.06a20.1,20.1,0,0,1,2.05.24,13,13,0,0,1,1.61.24,1.59,1.59,0,0,1,.35.08c.43.17.52.32.45.67a2.1,2.1,0,0,1-.06.24.58.58,0,0,1-.63.36c-.86-.09-1.7-.22-2.6-.33a19.2,19.2,0,0,0-2-.14Z"/><path class="cls-1" d="M108.78,405.88a13.91,13.91,0,0,0,1.68-.46c.21-.06.39-.17.59-.24a11.07,11.07,0,0,0,2-.94,5.18,5.18,0,0,0,.78-.62,4.8,4.8,0,0,1,.91-.89c.24-.14.93.86.55,1.32a6.5,6.5,0,0,1-2.37,1.68c-.54.21-1,.54-1.57.77a13.31,13.31,0,0,1-1.82.59c-.38.09-.76.18-1.14.25-.58.12-1.17.18-1.74.29s-.88.21-1.33.29a1.47,1.47,0,0,1-.29.05c-.38,0-.5-.06-.58-.42a2,2,0,0,1,0-.24.53.53,0,0,1,.36-.59,14.49,14.49,0,0,1,2.26-.51c.57-.11,1.14-.21,1.7-.36Z"/><path class="cls-1" d="M96.84,419l-2.53.07c-.31,0-.61.1-.92.1-1.09,0-2.19,0-3.28.1a13.64,13.64,0,0,0-1.43.19,4.87,4.87,0,0,1-1.87.16c-.2,0-.22-.44-.12-.87s.32-.91.66-1c.6-.17,1.21-.33,1.83-.45a10.9,10.9,0,0,1,1.9-.09,15.35,15.35,0,0,0,2.32-.3c.85-.1,1.7-.18,2.56-.23l1.58-.1c.8-.06,1.61-.09,2.4-.2.62-.07,1.21-.28,1.83-.39a1.43,1.43,0,0,1,.41,0c.52,0,.69.21.8.72,0,.12.06.23.08.35a1,1,0,0,1-.49.93,4.55,4.55,0,0,1-.78.42c-.26.09-.52.16-.79.23a9.09,9.09,0,0,1-1.64.29l-2.51.19Z"/><path class="cls-1" d="M280,199.53a14.26,14.26,0,0,0-2.16-.44c-.27,0-.54,0-.81,0a16.51,16.51,0,0,0-2.9-.06,5.19,5.19,0,0,0-1.24.28,5.6,5.6,0,0,1-1.53.5c-.18,0-.36-.4-.41-.86s.06-1,.4-1.15a7.64,7.64,0,0,1,3.72-.66c.76.07,1.52-.06,2.27,0a18.56,18.56,0,0,1,2.47.33c.5.09,1,.23,1.49.36a21.1,21.1,0,0,1,2.19.78,16.05,16.05,0,0,1,1.68.69,2,2,0,0,1,.35.21.65.65,0,0,1,.21,1c0,.08-.08.17-.13.25a.84.84,0,0,1-.85.31,17.8,17.8,0,0,1-2.72-.75,16.16,16.16,0,0,0-2-.63Z"/><path class="cls-1" d="M201.89,237.37a20.82,20.82,0,0,1-3.35-1.09c-.4-.15-.79-.3-1.17-.48a34.34,34.34,0,0,1-3.75-2.28c-.53-.37-1.08-.7-1.62-1a8.45,8.45,0,0,1-2-1.44c-.34-.38,1.09-1.24,1.84-.75,1.35.88,2.67,1.76,4,2.71a11.6,11.6,0,0,0,2.62,1.29,18.62,18.62,0,0,0,3,1l1,.2,1,.12c.49.06,1,.05,1.49.08a12,12,0,0,0,1.48-.14c.38-.09.74-.19,1.1-.31l1.05-.45c.15-.06.29-.16.44-.23.56-.25.79-.19,1.13.26a3.55,3.55,0,0,1,.23.31.77.77,0,0,1-.33,1.07,9,9,0,0,1-4.52,1.44,15.77,15.77,0,0,1-1.82,0,17.71,17.71,0,0,1-1.8-.25Z"/><path class="cls-1" d="M356.37,134.75a77.76,77.76,0,0,1-9.37-.51c-.8-.11-1.58-.21-2.41-.4a17.71,17.71,0,0,1-1.91-.57c-.21,0-.23-.2-.28-.36l-.15-.49c-.09-.32-.19-.64-.26-1l-.12-.72-.1-.59-.15-1.17-.25-2.32c-.22-2.25-.47-4.48-.6-6.72-.24-4-.41-7.89-.46-11.86a51.81,51.81,0,0,1,.2-6,2.28,2.28,0,0,1,.63-1.54c.14-.13.29-.24.44-.36a2.48,2.48,0,0,1,.51-.28,4.31,4.31,0,0,1,.44-.17,6.45,6.45,0,0,1,.81-.21,20.8,20.8,0,0,1,3.07-.39c3.56-.18,7.08-.12,10.55-.1l6.67,0a58,58,0,0,0,6.52-.21c.62-.1.85-.09.94.1s-.13.56-.69.94a12,12,0,0,1-5.94,1.54c-4.6.15-9.14,0-13.64,0a44.53,44.53,0,0,0-6.54.4c-.23,0-.48.09-.69.15l-.31.09a.61.61,0,0,1-.12,0s0,0,0,0l-.12.06,0,.06a.61.61,0,0,0,0,.15c-.13,1-.15,2.14-.18,3.25-.12,5.41.37,11.11.81,16.67.12,1.53.26,3,.42,4.57.07.76.16,1.52.26,2.27l.16,1.11.09.48,0,.22c0,.06,0,.16.07.2l.22.07a1.2,1.2,0,0,0,.24.06l.52.11c.73.13,1.46.24,2.21.31,1.5.17,3,.26,4.54.32a94,94,0,0,0,11.26-.27c1.65-.14,3.3-.32,4.93-.57.82-.12,1.63-.26,2.44-.42.4-.08.81-.15,1.2-.25l1-.24c.41,0,.49-.44.56-.74a13.52,13.52,0,0,0,.22-1.67c.1-1.16.14-2.34.15-3.52.05-4.4-.27-8.74-.51-13.12-.05-1-.13-1.9-.16-2.88-.12-3.61.19-4.8.82-5.57a2.83,2.83,0,0,1,.43-.5c.44-.3.84,1.11,1.18,3.73.42,3.89.68,7.92.87,12,.09,2.06.14,4.13.13,6.23,0,1.05,0,2.11-.11,3.2,0,.54-.08,1.09-.15,1.66,0,.29-.08.58-.14.89a6.1,6.1,0,0,1-.45,1.45,3.13,3.13,0,0,1-.63.85,3.35,3.35,0,0,1-.91.5l-1.52.37-1.1.24c-.74.13-1.48.3-2.22.41-1.47.24-2.95.42-4.43.57-2.95.3-5.91.44-8.86.47Z"/><path class="cls-1" d="M444.32,131.31a76.44,76.44,0,0,0,9-.17c.73-.07,1.47-.15,2.13-.28l.28-.05c.05,0,.06-.13.08-.2l.09-.41.1-.53.18-1.11.31-2.24c.27-2.19.43-4.41.64-6.62.3-3,.56-6.1.76-9.15.1-1.52.18-3,.23-4.57,0-.76.05-1.52.05-2.26,0-.38,0-.74,0-1.1l0-.47a2,2,0,0,0,0-.24.84.84,0,0,0-.45-.36,8.52,8.52,0,0,0-1.07-.32,23.46,23.46,0,0,0-2.44-.37,97,97,0,0,0-10.38-.18c-2.22,0-4.46.13-6.7.11a30.56,30.56,0,0,1-6.81-.62c-.74-.21-1-.54-.92-.69s.53-.24,1.12-.37a32.19,32.19,0,0,1,5.82-.69c3.79-.08,7.64-.21,11.52-.23,1.95,0,3.9,0,5.89.17a25.84,25.84,0,0,1,3.05.37,9.66,9.66,0,0,1,1.64.45,2.48,2.48,0,0,1,.48.2,2.25,2.25,0,0,1,.59.35c.16.15.34.28.49.44l.39.52a5.62,5.62,0,0,1,.33,1.62c0,.39,0,.77,0,1.13,0,.74,0,1.45,0,2.17-.28,5.55-.55,11.25-1.08,16.87-.15,1.54-.32,3.08-.51,4.63-.1.77-.2,1.54-.32,2.32l-.2,1.17-.13.66a8.29,8.29,0,0,1-.24.89c0,.15-.09.29-.14.44l-.07.21c0,.08,0,.15-.13.15l-.88.27a7.39,7.39,0,0,1-.87.22l-.61.11c-.8.12-1.6.22-2.38.28-1.58.14-3.14.19-4.7.22a102.51,102.51,0,0,1-11.49-.5c-1.68-.18-3.36-.38-5-.68-.84-.13-1.67-.29-2.5-.47-.42-.09-.83-.16-1.25-.28l-1.41-.35a5.83,5.83,0,0,1-.58-.23,1.55,1.55,0,0,1-.41-.47,4.06,4.06,0,0,1-.41-1.2A15.53,15.53,0,0,1,425,128c-.1-1.23-.15-2.44-.18-3.64-.09-4.47-.14-8.83-.12-13.21,0-1,0-1.92,0-2.89.1-3.6.4-4.71,1-5.49a5,5,0,0,1,.39-.52c.42-.39,1,1.14,1.15,3.8.23,3.94.18,8,.22,12,0,2,0,4.07.09,6.09,0,1,.07,2,.13,3,0,.49.08,1,.14,1.43,0,.22.06.45.1.64v0h0a0,0,0,0,0,0,0l.08,0,.51.13,1,.23c.69.13,1.37.3,2.06.4,1.39.25,2.79.45,4.2.62,2.82.34,5.67.53,8.52.6Z"/><path class="cls-1" d="M358.07,208.06a77.37,77.37,0,0,1-9.22-.52c-.78-.11-1.55-.21-2.37-.4a18.51,18.51,0,0,1-1.9-.57c-.2,0-.2-.22-.26-.37l-.15-.48c-.09-.32-.19-.63-.25-1l-.13-.71-.09-.59-.16-1.15-.25-2.28c-.22-2.21-.47-4.4-.61-6.6-.25-3.89-.41-7.77-.46-11.67,0-1,0-2,0-2.94,0-.5,0-1,.07-1.5a8.35,8.35,0,0,1,.26-1.76,1.94,1.94,0,0,1,.62-.92c.15-.11.29-.24.45-.34l.51-.24a9.64,9.64,0,0,1,1.59-.42,24.38,24.38,0,0,1,3-.3c3.5-.16,7-.09,10.37-.07l6.56,0a55.82,55.82,0,0,0,6.4-.22c.61-.1.84-.08.93.11s-.12.55-.67.93a11.59,11.59,0,0,1-5.84,1.54c-4.53.16-9,0-13.42,0a52.27,52.27,0,0,0-6.47.33,10.1,10.1,0,0,0-1.37.3c-.24.09-.15,0-.23.08a.16.16,0,0,0-.09.09.41.41,0,0,0,0,.1l-.05.34-.06.78c0,.53-.06,1.08-.07,1.64a153.82,153.82,0,0,0,.8,16.37q.18,2.26.42,4.5.12,1.13.27,2.22l.16,1.09.09.48,0,.21c0,.07,0,.16.07.2l.21.07a1.28,1.28,0,0,0,.23.06l.51.11c.71.12,1.43.24,2.17.31,1.47.17,3,.25,4.46.32a95.26,95.26,0,0,0,11.08-.23,67.72,67.72,0,0,0,8.29-1.14c.64-.13,1.49-.35,1.76-.41s.3-.24.36-.42.06-.19.08-.29l.08-.46a34.29,34.29,0,0,0,.27-4.1c.06-4.32-.26-8.59-.5-12.89-.05-1-.13-1.87-.17-2.83-.12-3.55.19-4.72.82-5.48a3.9,3.9,0,0,1,.43-.5c.44-.29.84,1.09,1.18,3.67.42,3.83.69,7.79.88,11.83.08,2,.14,4.06.12,6.13,0,1-.05,2.09-.14,3.17,0,.54-.1,1.09-.2,1.68a8.13,8.13,0,0,1-.33,1.29,3.14,3.14,0,0,1-.77,1.23,2.78,2.78,0,0,1-.92.52c-.17.06-.36.09-.54.14l-.46.11-1.15.28L372,207c-1.54.26-3.09.46-4.63.63-3.1.31-6.19.46-9.28.48Z"/><path class="cls-1" d="M442.85,204.62a85.38,85.38,0,0,0,8.92-.14c.74,0,1.46-.14,2.15-.24l.61-.1.11,0a.16.16,0,0,0,.05-.09l0-.11s.07-.31.1-.46l.19-1.08c.12-.73.23-1.47.33-2.21.29-2.17.44-4.37.67-6.56.3-3,.56-6,.76-8.95.1-1.49.19-3,.24-4.47,0-.74.05-1.48.05-2.21,0-.36,0-.72,0-1.07l0-.45a1.57,1.57,0,0,0,0-.23.55.55,0,0,0-.19-.21,1,1,0,0,0-.29-.16,8.37,8.37,0,0,0-1.13-.33,22.67,22.67,0,0,0-2.55-.37,98,98,0,0,0-10.29-.16c-2.21,0-4.43.13-6.65.11a30.14,30.14,0,0,1-6.76-.63c-.73-.2-1-.54-.91-.68s.53-.24,1.12-.38a31.5,31.5,0,0,1,5.76-.69c3.81-.07,7.67-.2,11.56-.22,1.95,0,3.9,0,5.9.16a25.91,25.91,0,0,1,3.05.38,10.41,10.41,0,0,1,1.65.44,3.52,3.52,0,0,1,.48.21,2.3,2.3,0,0,1,.59.35c.16.15.34.28.49.44l.39.52a5.41,5.41,0,0,1,.32,1.54c0,.36,0,.72,0,1.06,0,.69,0,1.36,0,2-.28,5.51-.56,11.16-1.11,16.73-.16,1.53-.33,3.06-.54,4.59-.1.77-.21,1.54-.34,2.31-.07.4-.13.76-.23,1.19a12.74,12.74,0,0,1-.51,1.76,12.6,12.6,0,0,1-1.72.51c-.48.08-.83.17-1.24.21-.79.1-1.57.18-2.35.24-1.56.12-3.1.17-4.65.19a113.91,113.91,0,0,1-11.39-.47c-1.79-.17-3.59-.38-5.37-.67-.9-.14-1.79-.3-2.67-.49-.45-.1-.89-.17-1.33-.29l-1.5-.37-.51-.19a1.15,1.15,0,0,1-.4-.39,3.26,3.26,0,0,1-.43-1c-.1-.41-.13-.66-.18-.94l-.1-.83c-.11-1.09-.16-2.16-.19-3.23-.13-4.44-.16-8.76-.14-13.12,0-1,0-1.89,0-2.86.1-3.57.4-4.67,1-5.44a4,4,0,0,1,.4-.51c.41-.39,1,1.13,1.15,3.77.22,3.91.17,7.89.21,11.92,0,2,0,4,.11,6,0,1,.08,2,.17,2.94a12.21,12.21,0,0,0,.17,1.34s0,0,0,0,0,0,0,0h0l.11,0,.52.13q.51.13,1,.24c.71.13,1.41.3,2.14.41,1.43.25,2.88.44,4.35.61,2.92.34,5.87.53,8.83.6Z"/><rect class="cls-1" x="376.75" y="111.75" width="15.14" height="8.74"/><path class="cls-1" d="M386.58,119.32l2.66.07,1.32,0,.31,0,0-.19v-3.42l.07-2V113l0-.36-.48,0-1.32,0-2.64-.07c-1.39,0-2.78,0-4.16,0a39.21,39.21,0,0,1-5.31,0c-1.1-.13.3-1.93,2.33-2,3.62,0,7.23,0,10.87.31l1.13,0,1.32,0c0,2,0,4,0,6l-.07,4.42-4.51-.08-4.52-.09-3.43,0-1.71,0H376.2c0-.62,0-1.24,0-1.86l-.06-1.3-.14-2.58c0-.38,0-.76-.06-1.14,0-1.44.09-1.89.59-2.2a2.49,2.49,0,0,1,.34-.2c.39-.14.71.44.82,1.49s.21,2.36.27,3.57c0,.6,0,1.21.07,1.82v.56h1.22l7.36.07Z"/><rect class="cls-1" x="392.69" y="121.49" width="15.14" height="8.74"/><path class="cls-1" d="M402.52,129.07l2.65.07,1.33,0,.3,0,0-.2v-3.42l.06-2,0-.51v-.34l0-.36-.48,0-1.32,0-2.64-.08c-1.39,0-2.79,0-4.16,0a39.2,39.2,0,0,1-5.31,0c-1.11-.12.29-1.93,2.33-2,3.61,0,7.22.05,10.86.31.18,0,.7,0,1.13,0l1.32,0c0,2,0,4,0,6l-.08,4.41-4.5-.08-4.53-.08-3.42-.06h-4l0-1.86-.06-1.29-.14-2.58c0-.39-.06-.76-.07-1.15,0-1.43.1-1.89.6-2.2a1.68,1.68,0,0,1,.34-.2c.38-.14.7.45.81,1.5s.22,2.35.27,3.56c0,.61,0,1.21.07,1.82V129h0a0,0,0,0,0,0,0h1.18l7.36.07Z"/><rect class="cls-1" x="377.93" y="131.23" width="15.14" height="8.74"/><path class="cls-1" d="M387.76,138.81l2.65.07,1.33,0,.3,0,0-.19v-3.43l.06-2.05,0-.51v-.33l0-.37-.48,0-1.32,0-2.64-.07c-1.39,0-2.79,0-4.16,0a39.2,39.2,0,0,1-5.31,0c-1.11-.13.29-1.93,2.33-1.95,3.61,0,7.22,0,10.86.3.18,0,.7,0,1.13.05l1.33,0c0,2,0,4,0,6l-.07,4.42-4.51-.08-4.53-.09-3.42,0-1.71,0h-2.32c0-.63,0-1.24,0-1.86l-.06-1.3-.14-2.58c0-.38-.06-.76-.06-1.14,0-1.44.09-1.89.59-2.2a2.39,2.39,0,0,1,.34-.21c.38-.13.7.45.82,1.5s.21,2.36.27,3.56l.06,1.83v.56h1.21l7.36.07Z"/><rect class="cls-1" x="407.83" y="131.13" width="15.14" height="8.74"/><path class="cls-1" d="M417.65,138.71l2.66.07,1.33,0,.3,0,0-.2v-.27l0-.49v-2.66l.06-2,0-.51v-.34l0-.36-.49,0-1.32-.05-2.64-.07c-1.38,0-2.78,0-4.15,0a41.06,41.06,0,0,1-5.32,0c-1.1-.13.3-1.93,2.34-2,3.61,0,7.22.05,10.86.31.17,0,.7,0,1.13,0l1.32,0c0,2,0,4,0,6l-.07,4.41-4.51-.08-4.52-.09-3.43-.05h-4c0-.62,0-1.24,0-1.86l-.06-1.29L407,134.7c0-.39-.06-.76-.07-1.15,0-1.43.1-1.89.6-2.2a1.68,1.68,0,0,1,.34-.2c.38-.14.7.45.81,1.5s.21,2.35.27,3.56c0,.6.05,1.21.07,1.82v.56h1.22l7.36.07Z"/><rect class="cls-1" x="424.1" y="141.79" width="15.14" height="7.74"/><path class="cls-1" d="M429.19,150.7l-2.55-.07-1.28,0-2.29,0,.05-2.93c0-.85,0-1.7,0-2.55l.11-4.15,2.28,0L427,141l2.84.09c1.33,0,2.67,0,4,0a36,36,0,0,1,5.09,0c1.05.12-.29,1.93-2.24,1.94-3.46,0-6.92,0-10.41-.3l-.52,0h-.38a3.31,3.31,0,0,0-.34,0v1.25c0,.71,0,1.42,0,2.13l0,1.74v.61l0,.34.34,0,.65,0,1.79,0,4.33.09,3.28.05,1.64,0h1.75c-.08-1.26-.15-2.51-.22-3.76,0-.36-.06-.72-.07-1.09,0-1.38.1-1.81.6-2.11a1.28,1.28,0,0,1,.34-.19c.38-.14.7.42.81,1.43s.2,2,.26,3.1c0,.53,0,1.06.07,1.59,0,.95,0,1.9,0,2.86l-4.26,0-7.05-.07Z"/><polygon class="cls-1" points="361.7 133.68 361.03 148.83 355.28 148.95 354.96 133.82 361.7 133.68"/><path class="cls-1" d="M356.34,143.69l0,2.62v1.31l0,.3.29,0c.79,0,1.59,0,2.38,0h.91l.32,0,0-.23,0-.12,0-.39.13-1.58.24-3.16c.09-1.24.13-2.49.15-3.73A31.44,31.44,0,0,1,361,134c.17-1,1.91.35,1.85,2.18-.11,3.23-.34,6.46-.74,9.71-.06.49-.11,1-.14,1.48,0,.77-.09,1.55-.13,2.32l-3.79.07-3.57,0V138l0-1.54,0-1.59-.06-1.66,1.29-.07.63,0,.44,0,1.77-.14c.34,0,.68-.07,1-.08,1.28-.06,1.69,0,2,.55a2.79,2.79,0,0,1,.19.33c.13.39-.39.72-1.33.85s-1.75.22-2.65.29l-1.35.1h-.12v0s0,0,0,0h0v.36l0,1.66c0,2.19.05,4.4.07,6.6Z"/><polygon class="cls-1" points="361.7 158.98 361.03 174.14 355.28 174.26 354.96 159.13 361.7 158.98"/><path class="cls-1" d="M356.34,169l0,2.62v1.31l0,.3.29,0c.79,0,1.59,0,2.38,0h.52a3.26,3.26,0,0,1,.39,0l.32,0,0-.23,0-.12,0-.39.13-1.58.24-3.16c.09-1.24.13-2.49.15-3.73a31.44,31.44,0,0,1,.24-4.75c.17-1,1.91.35,1.85,2.18-.11,3.23-.34,6.46-.74,9.71-.06.49-.11,1-.14,1.48,0,.77-.09,1.55-.13,2.32l-3.79.07-3.57,0V163.34l0-1.54,0-1.59-.06-1.66,1.29-.07.63,0,.44,0,1.77-.14c.34,0,.68-.07,1-.08,1.28-.06,1.69,0,2,.55a2.79,2.79,0,0,1,.19.33c.13.39-.39.72-1.33.85s-1.75.22-2.65.29l-1.35.1h-.12v0s0,0,0,0h0v.36l0,1.66c0,2.19.05,4.4.07,6.6Z"/><rect class="cls-1" x="362.09" y="159.18" width="15.14" height="7.74"/><path class="cls-1" d="M372.14,165.76l2.54.07,1.27,0,.25,0a4.36,4.36,0,0,0,.05-.88c0-.85,0-1.7,0-2.55l.05-1.64v-.38l0-.13,0-.28-.23,0H376l-.22,0-1.42,0-2.85-.09c-1.33,0-2.66,0-4,0a36,36,0,0,1-5.09,0c-1.06-.12.28-1.93,2.24-1.94,3.46,0,6.91,0,10.4.3l.53,0,.68,0,1.8,0c0,1.7,0,3.43,0,5.15l-.07,4.26-4.36-.08-4.33-.08-3.29-.06h-3.53l-1,0,0-1.57-.06-1.17-.12-2.16c0-.37-.06-.73-.06-1.1,0-1.37.09-1.81.59-2.1a1.68,1.68,0,0,1,.34-.2c.38-.13.7.43.82,1.43s.19,2.06.25,3.11c0,.52.05,1,.07,1.58v.2c0,.07,0,.15,0,.13h1.76l7.06.07Z"/><rect class="cls-1" x="362.28" y="141.31" width="15.14" height="7.74"/><path class="cls-1" d="M372.33,147.89l2.54.07,1.26,0,.26,0a5.75,5.75,0,0,0,.05-.87c0-.86,0-1.71,0-2.55l.05-1.65v-.38l0-.12,0-.29-.22,0H376l-1.42,0-2.85-.09c-1.33,0-2.66,0-4,0a36,36,0,0,1-5.09,0c-1.06-.12.28-1.93,2.23-1.94,3.46,0,6.92,0,10.41.3l.53,0,.68,0,1.8,0c0,1.7,0,3.44,0,5.15l-.07,4.26-4.35-.08-4.33-.08-3.29-.05-1.64,0H361.7l0-1.57-.05-1.17-.12-2.16c0-.37-.06-.73-.07-1.1,0-1.37.1-1.81.6-2.1a1.68,1.68,0,0,1,.34-.2c.38-.13.7.43.81,1.44s.2,2,.26,3.1c0,.53,0,1,.07,1.58v.2a.5.5,0,0,0,0,.13h1.76l7.05.07Z"/><rect class="cls-1" x="424.1" y="158.18" width="15.14" height="7.74"/><path class="cls-1" d="M434.15,164.76l2.54.07,1.27,0,.25,0a4.36,4.36,0,0,0,.05-.88c0-.85,0-1.7,0-2.55l.05-1.64,0-.38v-.13l0-.28-.23,0H438l-.22,0-1.42,0-2.85-.09c-1.32,0-2.66,0-4,0a36,36,0,0,1-5.09,0c-1.05-.12.28-1.93,2.24-1.94,3.46,0,6.92,0,10.4.3l.53,0,.68,0,1.8,0c0,1.7,0,3.43,0,5.15l-.07,4.26-4.36-.08-4.33-.08-3.28-.06h-3.54l-1,0,0-1.57-.06-1.17-.12-2.16c0-.37-.05-.73-.06-1.1,0-1.37.09-1.81.59-2.1a2,2,0,0,1,.34-.2c.38-.13.7.43.82,1.43s.19,2.06.25,3.11c0,.52.05,1,.07,1.58v.33h1.77l7,.07Z"/><rect class="cls-1" x="378.67" y="149.5" width="15.14" height="8.74"/><path class="cls-1" d="M388.5,157.07l2.65.07,1.33,0,.3,0,0-.19V153.6l.06-2,0-.52v-.33l0-.36-.48-.05-1.32,0-2.64-.07c-1.39,0-2.79,0-4.16,0a39.2,39.2,0,0,1-5.31,0c-1.11-.13.29-1.93,2.33-1.95,3.61,0,7.22.05,10.86.31l1.13,0,1.32,0c0,2,0,4,0,6l-.08,4.42-4.5-.08-4.53-.09-3.42-.05-1.72,0h-2.31l0-1.86-.06-1.29-.14-2.59c0-.38-.06-.76-.06-1.14,0-1.44.09-1.89.59-2.2a1.68,1.68,0,0,1,.34-.2c.38-.14.7.44.81,1.49s.22,2.36.27,3.57c0,.6.05,1.21.07,1.82V157h1.21l7.36.07Z"/><rect class="cls-1" x="407.83" y="149.39" width="15.14" height="7.74"/><path class="cls-1" d="M417.88,156l2.54.07,1.26,0,.26,0a5.84,5.84,0,0,0,.05-.88c0-.85,0-1.7,0-2.55l.05-1.64v-.38l0-.13,0-.28-.22,0h-.12l-.22,0-1.42,0-2.85-.09c-1.33,0-2.66,0-4,0a36,36,0,0,1-5.09,0c-1.06-.12.28-1.93,2.23-1.94,3.46,0,6.92,0,10.41.3l.53,0,.68,0,1.8,0c0,1.7,0,3.43,0,5.15l-.07,4.26-4.35-.08-4.33-.08-3.29-.06h-3.53l-1,0,0-1.57,0-1.17-.12-2.16c0-.37-.06-.73-.07-1.1,0-1.37.1-1.81.6-2.1a1.68,1.68,0,0,1,.34-.2c.38-.13.7.43.81,1.44s.2,2.05.26,3.1c0,.52,0,1.05.07,1.58v.2a.6.6,0,0,0,0,.13h1.76l7.05.07Z"/><rect class="cls-1" x="407.83" y="167.62" width="15.14" height="7.74"/><path class="cls-1" d="M417.88,174.2l2.54.07,1.26,0,.26,0a5.75,5.75,0,0,0,.05-.87c0-.86,0-1.71,0-2.55l.05-1.65v-.38l0-.12,0-.29-.22,0h-.34l-1.42-.05-2.85-.09c-1.33,0-2.66,0-4,0a36,36,0,0,1-5.09,0c-1.06-.12.28-1.93,2.23-1.94,3.46,0,6.92,0,10.41.3l.53,0,.68,0,1.8,0c0,1.7,0,3.44,0,5.15l-.07,4.26-4.35-.08-4.33-.08-3.29-.05-1.64,0h-2.89l0-1.57,0-1.17L407,171c0-.37-.06-.73-.07-1.1,0-1.37.1-1.81.6-2.1a1.68,1.68,0,0,1,.34-.2c.38-.13.7.43.81,1.44s.2,2,.26,3.1c0,.53,0,1,.07,1.58v.2a.6.6,0,0,0,0,.13h1.76l7.05.07Z"/><rect class="cls-1" x="377.93" y="167.62" width="15.14" height="7.74"/><path class="cls-1" d="M388,174.2l2.54.07,1.27,0,.25,0a4.29,4.29,0,0,0,0-.87c0-.86,0-1.71,0-2.55l0-1.65v-.38l0-.12,0-.29-.23,0h-.34l-1.42-.05-2.85-.09c-1.33,0-2.66,0-4,0a36,36,0,0,1-5.09,0c-1.06-.12.28-1.93,2.24-1.94,3.46,0,6.92,0,10.4.3l.53,0,.68,0,1.8,0c0,1.7,0,3.44,0,5.15l-.07,4.26-4.36-.08-4.33-.08-3.29-.05-1.63,0h-2.89l0-1.57-.06-1.17-.12-2.16c0-.37-.06-.73-.06-1.1,0-1.37.09-1.81.59-2.1a1.68,1.68,0,0,1,.34-.2c.38-.13.7.43.82,1.44s.19,2,.25,3.1c0,.53,0,1,.07,1.58v.2c0,.07,0,.15,0,.13h1.76l7.06.07Z"/><rect class="cls-1" x="392.69" y="158.18" width="15.14" height="8.74"/><path class="cls-1" d="M402.52,165.76l2.65.07,1.33,0,.3,0,0-.19v-3.43l.06-2.05,0-.51v-.34l0-.36-.48,0-1.32,0-2.64-.08c-1.39,0-2.79,0-4.16,0a39.2,39.2,0,0,1-5.31,0c-1.11-.12.29-1.93,2.33-1.94,3.61,0,7.22,0,10.86.3.18,0,.7,0,1.13,0l1.32,0c0,2,0,4,0,6l-.08,4.41-4.5-.08-4.53-.08-3.42-.06h-4l0-1.86-.06-1.29-.14-2.58c0-.39-.06-.76-.07-1.15,0-1.43.1-1.89.6-2.19a1.73,1.73,0,0,1,.34-.21c.38-.14.7.45.81,1.5s.22,2.35.27,3.56c0,.61,0,1.21.07,1.82v.56h1.21l7.36.07Z"/><rect class="cls-1" x="392.75" y="176.03" width="15.14" height="8.74"/><path class="cls-1" d="M402.58,183.6l2.65.08,1.33,0,.3,0,0-.2v-3.42l.06-2,0-.51v-.34l0-.36-.48-.05-1.32,0-2.64-.07c-1.39,0-2.79,0-4.16,0a39.2,39.2,0,0,1-5.31,0c-1.1-.13.29-1.93,2.33-1.95,3.61,0,7.22.05,10.86.31l1.13,0,1.33,0c0,2,0,4,0,6l-.07,4.42-4.51-.08-4.53-.09-3.42,0-1.71,0h-2.32l0-1.86-.06-1.29-.14-2.59c0-.38-.06-.75-.06-1.14,0-1.43.09-1.89.59-2.2a2,2,0,0,1,.34-.2c.38-.14.7.45.82,1.49s.21,2.36.27,3.57l.06,1.82v.56h1.21l7.37.07Z"/><rect class="cls-1" x="378.67" y="184.43" width="15.14" height="8.74"/><path class="cls-1" d="M388.5,192l2.65.07,1.33,0,.3,0,0-.19v-3.43l.06-2.05,0-.51v-.34l0-.36-.48,0-1.32,0-2.64-.08c-1.39,0-2.79,0-4.16,0a39.2,39.2,0,0,1-5.31,0c-1.11-.12.29-1.93,2.33-1.94,3.61,0,7.22,0,10.86.3.18,0,.7,0,1.13,0l1.32,0c0,2,0,4,0,6l-.08,4.41-4.5-.08-4.53-.08-3.42-.05-1.72,0h-2.31l0-1.87-.06-1.29-.14-2.58c0-.38-.06-.76-.06-1.15,0-1.43.09-1.89.59-2.19a1.73,1.73,0,0,1,.34-.21c.38-.13.7.45.81,1.5s.22,2.36.27,3.56c0,.61.05,1.21.07,1.82v.56h1.21l7.36.07Z"/><rect class="cls-1" x="407.83" y="185.43" width="15.14" height="8.74"/><path class="cls-1" d="M417.65,193l2.66.07,1.33,0,.3,0,0-.19v-.27l0-.5v-2.66l.06-2.05,0-.51v-.34l0-.36-.49,0-1.32,0-2.64-.08c-1.38,0-2.78,0-4.15,0a39.36,39.36,0,0,1-5.32,0c-1.1-.12.3-1.93,2.34-1.94,3.61,0,7.22,0,10.86.3.17,0,.7,0,1.13,0l1.32,0c0,2,0,4,0,6l-.07,4.41-4.51-.08-4.52-.08-3.43-.05-1.71,0h-2.31c0-.63,0-1.25,0-1.87l-.06-1.29L407,189c0-.38-.06-.76-.07-1.15,0-1.43.1-1.89.6-2.19a1.73,1.73,0,0,1,.34-.21c.38-.13.7.45.81,1.5s.21,2.36.27,3.56c0,.61.05,1.21.07,1.82v.56h1.22l7.36.07Z"/><rect class="cls-1" x="440.37" y="132.65" width="7.74" height="17.14"/><path class="cls-1" d="M447,138.18l.07-2.76,0-1.39c0-.16,0-.1,0-.14v-.07l0-.14-.2,0h-3.61l-1.45,0h-.23l-.11,0-.23,0,0,.26v.15l0,.43-.05,1.71-.1,3.44c0,1.44,0,2.9,0,4.33a42.52,42.52,0,0,1,0,5.53c-.12,1.15-1.92-.3-1.94-2.43,0-3.76,0-7.52.3-11.31,0-.49.06-1,.07-1.49,0-.78,0-1.58,0-2.38l4.84,0,4.57.07-.08,4.67-.09,4.71c0,2.38-.09,4.77-.06,7.13q0,1,0,2c-2.24.05-3.19.14-4.62.2-.4,0-.79,0-1.19.06-1.5,0-2-.09-2.29-.59a1.57,1.57,0,0,1-.21-.34c-.15-.39.46-.71,1.55-.82s2-.18,3.05-.23l1.55-.07h.31s0,0,0,0c0,.52,0-1.52,0-2.69q0-3.82.07-7.67Z"/><rect class="cls-1" x="392.69" y="140.81" width="15.14" height="7.74"/><path class="cls-1" d="M402.74,147.39l2.54.07,1.27,0,.25,0a4.29,4.29,0,0,0,.05-.87c0-.86,0-1.71,0-2.55l.05-1.65v-.38l0-.12,0-.29-.23,0h-.34l-1.42,0-2.85-.09c-1.33,0-2.66,0-4,0a36,36,0,0,1-5.09,0c-1.06-.12.28-1.93,2.24-1.94,3.46,0,6.91,0,10.4.3l.53,0,.68,0,1.8,0c0,1.7,0,3.44,0,5.15l-.08,4.26-4.35-.08-4.33-.08-3.29-.05-1.64,0h-2.88l-.05-1.57-.05-1.17-.12-2.16c0-.37-.06-.73-.07-1.1,0-1.37.1-1.81.6-2.1a1.68,1.68,0,0,1,.34-.2c.38-.13.7.43.81,1.44s.2,2,.26,3.1c0,.53,0,1,.07,1.58v.2c0,.08,0,.15,0,.13h1.76l7.06.07Z"/><rect class="cls-1" x="440.37" y="158.14" width="7.74" height="15.14"/><path class="cls-1" d="M441.54,168.19l-.07,2.54,0,1.26,0,.26a5.84,5.84,0,0,0,.88.05c.85,0,1.7,0,2.55,0l1.64.05h.38l.13,0,.28,0,0-.22v-.12a1.41,1.41,0,0,0,0-.22l0-1.42.09-2.85c0-1.33,0-2.67,0-4a36,36,0,0,1,0-5.09c.12-1.06,1.93.28,1.95,2.23,0,3.46,0,6.92-.31,10.41l0,.52,0,.68,0,1.81-5.15,0-4.26-.07.08-4.35.08-4.33.06-3.29v-3.53c0-.34,0-.67,0-1l1.57,0,1.17-.05,2.16-.13c.37,0,.73-.05,1.1-.06,1.37,0,1.81.1,2.1.59a2.08,2.08,0,0,1,.2.35c.13.38-.43.7-1.43.81s-2.06.2-3.11.26l-1.58.06h-.34v0h0v1.71c0,2.35-.05,4.7-.07,7.05Z"/><rect class="cls-1" x="408.83" y="111.75" width="15.14" height="8.74"/><path class="cls-1" d="M418.65,119.32l2.66.07,1.33,0,.3,0,0-.19V119l0-.49v-2.66l.06-2,0-.52V113l0-.36-.49,0-1.32,0-2.64-.07c-1.38,0-2.78,0-4.15,0a39.35,39.35,0,0,1-5.32,0c-1.1-.13.3-1.93,2.34-2,3.61,0,7.22,0,10.86.31l1.13,0,1.32,0c0,2,0,4,0,6l-.07,4.42-4.51-.08-4.52-.09-3.43,0-1.71,0h-2.31c0-.62,0-1.24,0-1.86l-.06-1.3-.13-2.58c0-.38-.06-.76-.07-1.14,0-1.44.1-1.89.6-2.2a1.68,1.68,0,0,1,.34-.2c.38-.14.7.44.81,1.49s.21,2.36.27,3.57c0,.6.05,1.21.07,1.82v.56h0a0,0,0,0,0,0,0h1.18l7.36.07Z"/><path class="cls-1" d="M356.17,123.16l-1.47-.09-.37,0h-.69a4,4,0,0,1-1.26-.28,2.24,2.24,0,0,1-1.42-1.87,7,7,0,0,1,0-1.29l.05-.76c0-.68,0-1.36,0-2.07l0-2.39v-1.23c0-.31,0-1.12,0-1.7a1.31,1.31,0,0,1,.1-.48l.08-.21,0-.1,0,0v0h0s.18.15.09.08v0a2.81,2.81,0,0,1,.31-.29,1.24,1.24,0,0,1,.46-.14,15.14,15.14,0,0,1,1.94,0c1.14,0,2.28,0,3.39,0,1.43,0,2.9,0,4.26,0a.3.3,0,0,1,.3.23.61.61,0,0,1-.18.56,3.23,3.23,0,0,1-1.91,1c-1.45.21-2.88.28-4.31.35-.36,0-.71,0-1.07,0h-.79c-.12,0-.05,0-.08,0s-.34-.17-.36,0l0,0a.52.52,0,0,0,0,.21c0,.21,0,.43,0,.65,0,.44.06.88.1,1.33.09.9.21,1.83.25,2.76a19.47,19.47,0,0,1,0,2.5.38.38,0,0,0,.34.42l.31,0,.65,0,3.7.12,1.82,0,.9,0h.31c.08,0,.19,0,.25,0l.29,0c.08,0,.22.06.24-.06a2.11,2.11,0,0,0,.09-.55c0-.27,0-1.16,0-1.82l-.05-2.1c0-.31,0-.61,0-.93,0-1.15.49-1.51,1-1.75a3.23,3.23,0,0,1,.34-.15c.18-.06.34,0,.53.26a2.61,2.61,0,0,1,.57,1,19.75,19.75,0,0,1,.46,4c0,.34,0,.68,0,1l0,.62c0,.33-.07.66-.12,1a3,3,0,0,1-.65,1.63.38.38,0,0,1-.18.12l-.1,0h0s.1.14.05.07h0l-.05,0-.38.16-.77.31,0-.07h0l-2.25,0-1.48,0-3-.1Z"/><path class="cls-1" d="M358.55,197.5l-1.47-.08-.37,0-.69,0a4.22,4.22,0,0,1-1.26-.27,2.26,2.26,0,0,1-1.42-1.88,6.19,6.19,0,0,1,0-1.29l.05-.76c0-.67,0-1.36,0-2.06,0-1.24-.07-2.53-.06-3.84v-.67c0-.25,0-.51,0-.74l0-.36a1.24,1.24,0,0,1,.1-.29l.11-.28v0h0c-.09-.07.11.1.09.08h0l0,0,.05,0,.11-.1c.24-.29.81-.28,1.29-.31h1.24c1.14,0,2.27,0,3.39,0,1.43,0,2.9,0,4.26.06a.28.28,0,0,1,.3.23.58.58,0,0,1-.19.55,3.12,3.12,0,0,1-1.9,1c-1.48.21-3,.29-4.42.36-.36,0-.73,0-1.09,0a3.74,3.74,0,0,1-.76,0,1.15,1.15,0,0,0-.22-.07c-.1,0-.09.07-.15.13a.57.57,0,0,0,0,.21c0,.22,0,.43,0,.65,0,.44.06.89.1,1.34.09.9.21,1.82.25,2.76a19.3,19.3,0,0,1,0,2.49.37.37,0,0,0,.34.42l.31,0,.65,0,3.69.12,3.3.09c.07-.05.19,0,.28,0s.22.06.24-.06a2.43,2.43,0,0,0,.09-.55c0-.27,0-1.16,0-1.81l-.05-2.11c0-.31,0-.61,0-.92.05-1.16.5-1.51,1-1.75a2.06,2.06,0,0,1,.34-.16c.18-.05.34,0,.53.26a2.78,2.78,0,0,1,.57,1,19.84,19.84,0,0,1,.46,3.95c0,.34,0,.68,0,1l0,.63c0,.32-.07.65-.13,1a2.84,2.84,0,0,1-.65,1.63.31.31,0,0,1-.17.12l-.1.05h0l.06.07h0l0,0-.38.15-.39.16-.19.07-.09,0-.05,0h-.05s0,.06,0-.06h0l-2.25,0-1.48,0-3-.09Z"/><path class="cls-1" d="M444.1,119.73l1.5.08.37,0,0,0,.13,0a.18.18,0,0,0,.2-.16,1.09,1.09,0,0,0,0-.17l0-.72c0-.77.05-1.52.15-2.26l.65-4.25a2.91,2.91,0,0,0,0-.31,1,1,0,0,0-.26-.08c-.23,0-.28-.05-.85-.09-1.12-.09-2.25-.13-3.37-.15a18.28,18.28,0,0,1-4.38-.4c-.25-.07-.38-.23-.31-.36a1.59,1.59,0,0,1,.41-.43,3.71,3.71,0,0,1,1.9-.8c1.42-.12,2.85-.17,4.29-.2.36,0,.72,0,1.09,0l1.28.08a3.91,3.91,0,0,1,1.81.39l.2.31.05.08,0,0v0l.13-.11h0l.06.18.13.36a2.06,2.06,0,0,1,0,.44l0,.38-.09,1.12-.07.69c0,.45-.08.91-.13,1.37-.06.89-.13,1.79-.19,2.68,0,.47-.06,1-.07,1.42v.85a4.43,4.43,0,0,1-.12,1.17,1.89,1.89,0,0,1-.54.95,2.27,2.27,0,0,1-1,.47,4.88,4.88,0,0,1-1.15.07l-.84,0-3.66-.1-2.78-.07h-1a4.9,4.9,0,0,1-.88-.14.67.67,0,0,1-.61-.52,4.1,4.1,0,0,1-.25-.9l-.36-2.43c-.1-.71-.2-1.42-.27-2.13,0-.31-.09-.62-.1-.93,0-1.18.4-1.56.9-1.82.12-.06.23-.14.33-.18s.34,0,.54.24a2.6,2.6,0,0,1,.62.94,27.78,27.78,0,0,1,.81,3.81c.06.31.09.63.12,1l0,.23,0,.12h0s0,0,0,0h.75l1.51,0,3,.08Z"/><path class="cls-1" d="M443,194.07l1.49.08.37,0,.06,0a.28.28,0,0,0,.13,0,.16.16,0,0,0,.19-.15.61.61,0,0,0,0-.17l0-.73c0-.77.05-1.52.15-2.25l.66-4.26a2.77,2.77,0,0,0,0-.3.57.57,0,0,0-.26-.08,5.62,5.62,0,0,0-.85-.1c-1.12-.08-2.25-.13-3.37-.15a17.78,17.78,0,0,1-4.38-.4c-.24-.07-.37-.23-.31-.36a1.5,1.5,0,0,1,.42-.43,3.64,3.64,0,0,1,1.9-.8c1.41-.11,2.84-.16,4.28-.19.36,0,.73,0,1.09,0l1.28.09a3.79,3.79,0,0,1,1.81.38l.2.32.05.08,0,0v0l.13-.1h0l.07.18.13.36a2,2,0,0,1,0,.44l0,.37-.08,1.12-.08.69-.12,1.37c-.07.89-.13,1.79-.2,2.68,0,.48-.05,1-.07,1.42v.86a4.4,4.4,0,0,1-.11,1.16,2,2,0,0,1-.55,1,2.07,2.07,0,0,1-1,.47,4.84,4.84,0,0,1-1.15.07l-.84,0-3.66-.11-2.78-.07h-1a4.89,4.89,0,0,1-.89-.13c-.32,0-.51-.26-.61-.53a3.49,3.49,0,0,1-.24-.9c-.13-.81-.25-1.61-.37-2.42s-.2-1.42-.27-2.13c0-.32-.09-.62-.1-.94,0-1.17.4-1.56.9-1.82a2.62,2.62,0,0,1,.33-.17c.18-.06.34,0,.54.23a2.74,2.74,0,0,1,.62,1,26.23,26.23,0,0,1,.81,3.8c.06.32.09.64.13,1l0,.23v.12h.78l1.51,0,3,.09Z"/><path class="cls-1" d="M355.31,122.44l-1.72-.19-1.76-.09.34-1.42c.06-.3.12-.6.15-.88s0-.56.06-.81l.21-1.6c.09-.54.18-1.09.24-1.64s0-1,0-1.46a5.78,5.78,0,0,1,.18-1.88c.07-.2.4-.17.75,0a1.55,1.55,0,0,1,.87.79,7.74,7.74,0,0,1,.28,3.82,7.62,7.62,0,0,0-.09,1.18v.87l0,.11a3.57,3.57,0,0,1-.14.5,1,1,0,0,0,.47.1c.12,0,.82.09,1.3.12a21.12,21.12,0,0,0,2.37.16c.62,0,1.22-.16,1.83-.21a2.58,2.58,0,0,1,.39,0c.5.1.66.42.77.93,0,.13.05.24.07.36a1.19,1.19,0,0,1-.53,1,2.44,2.44,0,0,1-.84.39c-.29.08-.57.15-.86.21a10.34,10.34,0,0,1-1.76,0c-.87-.06-1.74-.19-2.61-.28Z"/><path class="cls-1" d="M443.87,118a11.69,11.69,0,0,0,1.65.35.2.2,0,0,0,.12-.12l0,0s.13-.14.21-.31a3.79,3.79,0,0,0,.2-.57,8.21,8.21,0,0,0,.2-1.37,9.54,9.54,0,0,0,0-1.31,3.26,3.26,0,0,1,.18-1.78c.09-.19.47-.06.84.14s.75.44.79.72a8.7,8.7,0,0,1,0,3.42c-.07.34-.13.7-.19,1.09a4.87,4.87,0,0,1-.16.6,3.24,3.24,0,0,1-.32.72l-.2.24a2.58,2.58,0,0,1-1.59.78,6.08,6.08,0,0,1-1.34,0l-.69,0c-.21,0-.4,0-.63,0a10.66,10.66,0,0,0-2.08.19c-.55.12-1.08.39-1.68.56a2.91,2.91,0,0,1-.39.12c-.52,0-.68-.29-.75-1l0-.38a2,2,0,0,1,.12-.65,1.17,1.17,0,0,1,.35-.59,3.06,3.06,0,0,1,1.28-.6,8.94,8.94,0,0,1,1.47-.27,9.23,9.23,0,0,1,2.62,0Z"/><path class="cls-1" d="M442.87,192.37l.5.07a2.86,2.86,0,0,0,.34,0l.1,0s.08.06.12.06a.18.18,0,0,0,.11,0c.06,0,0-.12.1-.17a8.54,8.54,0,0,0,.87-2.46,5.78,5.78,0,0,0,.11-1.24,5.42,5.42,0,0,1,.11-1.6c.06-.16.42-.16.8,0s.8.38.86.71a6.83,6.83,0,0,1-.12,3.5,7.54,7.54,0,0,0-.26,1.09,4.49,4.49,0,0,1-.41,1.32,2.48,2.48,0,0,1-1.15,1.3,2.24,2.24,0,0,1-.86,0h-.62c-.5,0-1,0-1.46-.05a15.22,15.22,0,0,0-2.1-.14,8.86,8.86,0,0,0-1.5.32,2.82,2.82,0,0,1-.31.07c-.39,0-.55-.2-.75-.72,0-.12-.09-.23-.13-.35a1,1,0,0,1,.3-1.09,3.61,3.61,0,0,1,1.58-.78,7.41,7.41,0,0,1,1.61-.1c.77,0,1.49.11,2.16.18Z"/><path class="cls-1" d="M359.58,196.21a7.6,7.6,0,0,1-3.21-1.05,3.17,3.17,0,0,1-.6-.47,2,2,0,0,1-.51-.69,2.37,2.37,0,0,1-.19-.74,5.53,5.53,0,0,1,0-.56c0-.34,0-.66.06-1,.07-.62.17-1.22.22-1.76a7.59,7.59,0,0,0-.15-1.49,3.31,3.31,0,0,1,.25-2.24c.16-.23.49,0,.82.26s.72.55.78.82.1.54.17.84a8.85,8.85,0,0,1,.12,1,6,6,0,0,1,0,1.2,10.33,10.33,0,0,1-.17,1,3.71,3.71,0,0,0-.06,1.14c.07.41.05.44.17.57a3.06,3.06,0,0,0,1.86.73,12.06,12.06,0,0,0,1.6.1,19.47,19.47,0,0,0,2.52-.15c.65-.09,1.27-.36,1.93-.51a2.85,2.85,0,0,1,.44-.09c.56,0,.8.14.92.71a2.57,2.57,0,0,1,.08.38,1,1,0,0,1-.48,1c-.26.16-.52.31-.8.45a6.41,6.41,0,0,1-.88.27,10.29,10.29,0,0,1-1.87.32,19.89,19.89,0,0,1-3,0Z"/><path class="cls-1" d="M463.65,219.15a52.88,52.88,0,0,1,9.1,4.83c.5.33,1.59,1,2.11.33s-.37-1.65-.85-2a62.91,62.91,0,0,0-10.76-5.77c-.7-.29-1.38-.09-1.4.7s1.15,1.6,1.8,1.87Z"/><path class="cls-1" d="M454.76,220.48c1.09,2.61,2.16,5.24,3.21,7.87.23.56,1.35,1.08,1.85,1.39.17.1,1.31.7,1.23.51-1.05-2.63-2.12-5.26-3.21-7.87-.24-.57-1.35-1.09-1.85-1.39-.17-.11-1.31-.7-1.23-.51Z"/><path class="cls-1" d="M334.16,228.77c2.21-2.55,4.24-5.31,7.14-7.13.47-.29,1-.79.31-1.09s-1.95.34-2.48.67c-3.34,2.09-5.7,5.12-8.24,8.06-.55.64.61.66,1,.62a3.84,3.84,0,0,0,2.31-1.13Z"/><path class="cls-1" d="M323.38,85.52a19.55,19.55,0,0,1,3.48,2.36c.6.51,1.21.05,1.22-.64a3.24,3.24,0,0,0-1.24-2.35,22.64,22.64,0,0,0-4.1-2.69c-.79-.41-1,.72-.87,1.22a3,3,0,0,0,1.51,2.1Z"/></g></svg>