<svg xmlns="http://www.w3.org/2000/svg" width="520" height="520" viewBox="0 0 520 520"><defs><style>.cls-1,.cls-2{fill:#231f20;}.cls-2{opacity:0.7;}</style></defs><title>Notioly New upgrade</title><g id="n.122_Components" data-name="n.122 Components"><path class="cls-1" d="M438.9,306.22c-.22,1.6-1.77,3.31-3.47,1.9-1.38-1.15.25-4.11,1.89-4A1.66,1.66,0,0,1,438.9,306.22Z"/><path class="cls-1" d="M128.71,382.8c-.23,1.6-1.77,3.3-3.47,1.9-1.38-1.15.25-4.11,1.89-4C128.44,380.73,128.86,381.74,128.71,382.8Z"/><path class="cls-2" d="M408.46,333.78c-.15,1-1.12,2.09-2.2,1.2-.87-.72.16-2.6,1.19-2.55C408.29,332.47,408.55,333.11,408.46,333.78Z"/><path class="cls-2" d="M376,300.73c-.14,1-1.12,2.09-2.19,1.2-.88-.73.15-2.6,1.19-2.55A1,1,0,0,1,376,300.73Z"/><path class="cls-2" d="M73.62,358.91c-.14,1-1.12,2.09-2.19,1.2-.88-.72.15-2.6,1.19-2.55A1,1,0,0,1,73.62,358.91Z"/><path class="cls-1" d="M173.83,416.84s1.74,14.7-1.69,27.63c-3.83,14.45-12,27.36-13.68,28.47,0,0-3.32,3.9,27.16-15.13s42.25-23.55,45.31-22.45c0,0-3.1-37.63-1.21-42.92,0,0-16.21-16.6-18-23.55C211.7,368.89,198.46,403.21,173.83,416.84Z"/><path class="cls-1" d="M400.87,456c-3.46-1.69-76.09-30.24-76.09-30.24l.63-3.06s-.05-33.36-6.16-32.31c0,0-8.27-2.4-9.27-5.13s10.3-13.5,16.64-25.18c0,0,24.37,28.55,34.74,33.74s37.68,25.74,42.27,26.57C403.63,420.36,396.25,441.81,400.87,456Z"/><path class="cls-1" d="M318.76,159.57S308.79,63,261,47c0,0-21.78-14.25-35.7,13,0,0-18.51-15.44-32.47-1.89,0,0-24.08,9.66-29,41.77s-7,57.76-2.19,72.4,7.58,12.87,14,15.48,32.76,2.08,42.29-6.52c0,0-14.93-23.38-16.14-25.31s-14.15,2.7-18.86-12c0,0,1-13.33,11.31-4.94,0,0-3.77-10.34-6.37-13.18,0,0,37.69,7.47,75.79-10.13,0,0,9.87-2.54,10.69-5.47,0,0,5.88,55.9-1.59,66,0,0,17.24,8.55,46.07-15.19"/><path class="cls-1" d="M268.24,185.91a31.72,31.72,0,0,1-12.49,9.2,27.09,27.09,0,0,1-15.39,1.5,37.73,37.73,0,0,1-10.49-3.85,53.45,53.45,0,0,1-14.67-12.6,98.87,98.87,0,0,1-10.64-15.9c-2.71-4.95-5.22-10-7.46-15.14-1.45-3.28-2.85-6.59-4.15-9.93-.65-1.67-1.21-3.37-1.78-5.06s-1.11-3.39-1.62-5.08c-.68-2.05-.22-2,1.12-.51a33.39,33.39,0,0,1,5,8.23c2.67,6.74,5.44,13.39,8.56,19.87a122,122,0,0,0,10.86,18.63c5,6.94,11.79,13.25,19.79,16.58a33.4,33.4,0,0,0,3.35,1.2l1.71.49,1.71.35a23.4,23.4,0,0,0,7,0,26.47,26.47,0,0,0,12.75-5.7,30,30,0,0,0,5.88-6.45,33.22,33.22,0,0,0,3.84-7.9,62.81,62.81,0,0,0,2.68-13.28c.46-4.55.75-9.13.77-13.66.05-7.06-.53-14-1.08-21-.12-1.54-.28-3-.37-4.61a46.25,46.25,0,0,1-.11-6.14,6.4,6.4,0,0,1,.8-2.77,5.55,5.55,0,0,1,.52-.85c.3-.29.6.15.92,1.18a24.75,24.75,0,0,1,.91,4.76c.75,6.23,1.29,12.67,1.61,19.26a160,160,0,0,1-.23,20.05,81.31,81.31,0,0,1-2.28,15.06,36.38,36.38,0,0,1-6.91,14Z"/><path class="cls-1" d="M185.45,151.86a15.77,15.77,0,0,1-3.66-6.26c-.17-.41-.22-.85-.35-1.28a5.84,5.84,0,0,1-.24-1.3l0-1.16a5.71,5.71,0,0,1,0-.59l.08-.69a6.36,6.36,0,0,1,.95-2.53,7.07,7.07,0,0,1,4.06-2.85,8.36,8.36,0,0,1,4.24-.11,6.42,6.42,0,0,1,4.18,3c.27.47-.25.74-1,.84a4.89,4.89,0,0,1-1.15,0,2.21,2.21,0,0,1-1.06-.23,6.38,6.38,0,0,0-3.19-.62,5.46,5.46,0,0,0-2.94,1.11,2.44,2.44,0,0,0-.88,1.64,2.75,2.75,0,0,0,0,.52l.06.64a7.63,7.63,0,0,0,.17,1.26,10.78,10.78,0,0,0,2.29,5.13,12.83,12.83,0,0,0,1.23,1.33c.23.2.44.42.67.62l.74.55a16.9,16.9,0,0,0,5,2.58,17.18,17.18,0,0,0,4.31.57c.32,0,.63,0,.94,0a2.67,2.67,0,0,1,1.22.31,1.74,1.74,0,0,1,.53,1c.06.21.13.41.17.62.11.66-.42,1.29-1.43,1.48a15.2,15.2,0,0,1-2.26.18,14.89,14.89,0,0,1-2.28-.26,19.73,19.73,0,0,1-4.48-1.41,20,20,0,0,1-5.91-4.09Z"/><path class="cls-1" d="M243.19,124.37q-7,1.6-14,2.6c-1.71.25-3.43.55-5.15.72a131.85,131.85,0,0,1-18.32.43c-2.71-.13-5.43-.27-8.11-.52a44.28,44.28,0,0,1-10.21-1.81c-1-.34-.75-.87.25-1.26a10.51,10.51,0,0,1,4.65-.48c3.4.4,6.8.82,10.23,1s6.87.36,10.36.39a91.39,91.39,0,0,0,12.7-1c4.66-.58,9.3-1.37,13.89-2.37,2.83-.61,5.65-1.3,8.44-2.08a131.24,131.24,0,0,0,12.5-4.08,89.55,89.55,0,0,0,9.06-4.29l1.89-1.07a14.77,14.77,0,0,1,2.57-1.19,2.7,2.7,0,0,1,.78-.13,5,5,0,0,1,.69.13,1.18,1.18,0,0,0,.59,0c.16,0,.27,0,.28.24a2.07,2.07,0,0,1-.21.83,5.18,5.18,0,0,1-1.75,1.88,50.73,50.73,0,0,1-8.27,4.58c-2.9,1.32-5.91,2.48-9,3.54-4.53,1.58-9.17,2.88-13.83,4Z"/><path class="cls-1" d="M156.35,149a188.91,188.91,0,0,1,2.81-35.58c.77-4.28,1.49-8.56,2.56-12.77A109.45,109.45,0,0,1,165,89.57,88.18,88.18,0,0,1,169.62,79,63,63,0,0,1,183.55,60.5a52.23,52.23,0,0,1,8.36-6.11c.73-.46,1.52-.82,2.28-1.24l1.14-.6,1.19-.53c.8-.33,1.53-.73,2.4-1l1.29-.41.65-.21.67-.11,1.71-.29c.58-.05,1.16-.06,1.73-.09a9.87,9.87,0,0,1,1.72,0c.57.05,1.15.05,1.71.15A29.19,29.19,0,0,1,215,51.85,33.57,33.57,0,0,1,220.87,55l1.35,1c.44.34.87.71,1.3,1.06a22.69,22.69,0,0,1,2.3,2.49,4.82,4.82,0,0,1,.82,1.4c.12.35.1.52,0,.57-.27.07-.85-.37-1.87-.89-2.11-1-5.87-2.55-10-4.49A22.12,22.12,0,0,0,203.38,54l-1.37.23c-.46.07-.89.27-1.33.38a22.4,22.4,0,0,0-2.8,1.1c-1,.37-1.87.89-2.8,1.34s-1.8,1-2.7,1.54a54.46,54.46,0,0,0-17.47,18,74.67,74.67,0,0,0-6.68,14.22,128.09,128.09,0,0,0-4.14,15.47c-1.22,5.75-2.23,11.56-2.92,17.41-.42,2.92-.62,5.86-.92,8.79l-.26,4.41-.13,2.21-.05,2.2a123.36,123.36,0,0,0,1.1,21.66,71.82,71.82,0,0,0,4,15.82l.71,1.91c.13.3.28.53.41.79a7.54,7.54,0,0,0,.53.73,10.56,10.56,0,0,0,2.92,2.34A26.67,26.67,0,0,0,177,187a53.51,53.51,0,0,0,12.44.74,71.45,71.45,0,0,0,12.29-1.62c1.78-.38,3.49-.88,5.23-1.4,6.39-2.14,8.17-3.1,9.88-3.2.38,0,.83-.18,1.08-.18.43,0,.14.5-.76,1.53a17.67,17.67,0,0,1-5,3.38,52.35,52.35,0,0,1-11.29,3.47A71.64,71.64,0,0,1,188.9,191a62,62,0,0,1-12.26-.81,34.22,34.22,0,0,1-6.17-1.66,16.68,16.68,0,0,1-5.88-3.61,8,8,0,0,1-.93-1.07,7.61,7.61,0,0,1-.8-1.25c-.1-.21-.26-.46-.32-.64l-.21-.54-.42-1.08c-.53-1.45-1.16-2.87-1.6-4.34l-1.24-4.44a21.94,21.94,0,0,1-.51-2.24l-.44-2.24-.44-2.25c-.13-.75-.21-1.51-.31-2.26-.19-1.51-.41-3-.57-4.52-.21-3-.52-6-.54-9.07Z"/><path class="cls-1" d="M311.47,126.31q-1.1-4.19-2.34-8.31c-.82-2.73-1.75-5.46-2.7-8.18-1.92-5.42-4-10.77-6.46-16-1.76-3.81-3.78-7.47-5.86-11.08a120.87,120.87,0,0,0-12.56-18.12,78.85,78.85,0,0,0-7.7-7.81A53.09,53.09,0,0,0,265,50.47a38.28,38.28,0,0,0-18.22-5.36,18,18,0,0,0-11.12,3.21A38.07,38.07,0,0,0,227.13,57c-1.46,2.09-1.95,1.49-1.42-.85a17.18,17.18,0,0,1,1.9-4.5,20.18,20.18,0,0,1,4.53-5.35,20.83,20.83,0,0,1,6.2-3.73,23.13,23.13,0,0,1,7.09-1.4A37,37,0,0,1,259,43.51c8.63,3.13,16,8.75,22,15.28a117.82,117.82,0,0,1,10.13,12.56,133.6,133.6,0,0,1,8.57,13.79,186.28,186.28,0,0,1,13.3,32.8q3.1,10.44,5.34,21.07a94.49,94.49,0,0,1,2.19,16.45,22.66,22.66,0,0,1-.3,4.31,9.23,9.23,0,0,1-.7,2.25,6,6,0,0,1-.7,1.07l-.71.82a44.19,44.19,0,0,1-6.3,5.5,55.39,55.39,0,0,1-23.3,10.22l-2.81.37c-.47.05-.94.13-1.41.16l-1.43,0-2.45,0c-.75,0-1.42-.11-2-.17a20.69,20.69,0,0,1-3-.48,7,7,0,0,1-3.08-1.61,4.81,4.81,0,0,1-.81-.85c-.24-.44.37-.69,1.62-.77a20.23,20.23,0,0,1,2.33,0c.93.09,2,0,3.21,0a48.16,48.16,0,0,0,5.37-.15c.9-.08,1.79-.24,2.68-.35l1.34-.18,1.33-.29a47.58,47.58,0,0,0,10.4-3.4,54,54,0,0,0,9.61-5.57c.74-.57,1.5-1.1,2.2-1.71l1.07-.88,1-.93c.35-.31.66-.63,1-.95s.64-.64.9-1l.41-.48a.51.51,0,0,1,.12-.18l.14-.35c.05-.12.09-.31.14-.46a15.82,15.82,0,0,0,.33-3.68c0-1.34-.09-2.73-.23-4.13-.26-2.8-.71-5.64-1.23-8.47-1.05-5.67-2.4-11.33-3.91-16.94Z"/><path class="cls-1" d="M261.56,189.64c1.75,8.64.56,14.31-7.88,15.57-9.17,1.36-16.9-2.66-20-11.39,0,0,9.63,3.46,17.92,1.41S261.56,189.64,261.56,189.64Z"/><path class="cls-1" d="M182.38,303.2c.75-4.76,1.76-9.42,2.75-14.1s2.05-9.35,3.3-14c.95-3.36,1.81-6.75,2.92-10.07,1.93-5.85,4.14-11.62,6.64-17.25,1.23-2.83,2.57-5.6,4-8.36s3-5.43,4.57-8.06a145.66,145.66,0,0,1,9.24-13.59,44.59,44.59,0,0,1,7.41-7.72,12.13,12.13,0,0,1,5.21-2.47l.79-.07.4,0,.41,0,.81.1a7,7,0,0,1,.78.24,5.59,5.59,0,0,1,2.51,1.86c.67,1,.74,1.58.55,1.67s-.77-.21-1.62-.57a5.29,5.29,0,0,0-3.06-.28,12.39,12.39,0,0,0-3.68,1.84,23.92,23.92,0,0,0-3.72,3.08,47,47,0,0,0-3.42,3.73,102.94,102.94,0,0,0-6.22,8.29c-2,2.88-3.85,5.83-5.64,8.84-.9,1.51-1.78,3-2.57,4.54s-1.63,3.12-2.4,4.71a163.15,163.15,0,0,0-9.23,24.18A262.47,262.47,0,0,0,186,297.5a144.09,144.09,0,0,0-2.44,17.41,56.44,56.44,0,0,0-.22,6.61,35.78,35.78,0,0,0,.88,6.49,56,56,0,0,0,4.5,12.35,101.14,101.14,0,0,0,11,17l2.79,3.46c3.52,4.32,4.58,5.74,4.78,7.16a4.39,4.39,0,0,1,.12.94c-.07.79-2-.59-4.73-3.69a122.44,122.44,0,0,1-11.45-15,76.7,76.7,0,0,1-8.51-17.7c-.32-1.2-.72-2.37-1-3.59l-.37-1.84a16.21,16.21,0,0,1-.3-1.85l-.21-1.88-.1-.94v-.95c0-1.26-.05-2.55,0-3.74.25-4.86.76-9.71,1.48-14.51Z"/><path class="cls-1" d="M332.78,300.51c-2.48-10-5.14-20-8.51-29.71-1.23-3.55-2.64-7-4-10.48-5.09-12.2-10.74-24.27-18.28-35.1A85,85,0,0,0,290.58,212a31.77,31.77,0,0,0-8.94-6.08,14.86,14.86,0,0,0-5-1.27,13.44,13.44,0,0,0-5.05.7c-2,.8-2.23.07-.67-1.5a9.21,9.21,0,0,1,1.62-1.14,6.53,6.53,0,0,1,1.13-.5,7.29,7.29,0,0,1,1.32-.42,12,12,0,0,1,6.6.38A30,30,0,0,1,292,208.69a57.78,57.78,0,0,1,4.21,4.22c1.34,1.44,2.62,3,3.86,4.47a117.59,117.59,0,0,1,12.69,19.79c2.15,4.16,4.26,8.43,6.29,12.77s4,8.72,5.73,13.19a276.53,276.53,0,0,1,9.43,30l2.38,9.35c.77,3.13,1.5,6.3,2,9.52a46.88,46.88,0,0,1,.09,14.86,95.94,95.94,0,0,1-3.38,14.3c-.57,1.81-1.17,3.59-1.8,5.36s-1.36,3.54-2.16,5.25c-1.57,3.42-3.37,6.7-5.25,9.92-.83,1.42-1.63,2.81-2.48,4.22-1.59,2.6-2.63,4.29-3.5,5.41a10.26,10.26,0,0,1-1.2,1.28,7,7,0,0,1-1.07.71c-.32.17-.66.43-.88.51-.37.13-.34-.4-.12-1.55a17.62,17.62,0,0,1,2-4.78c3.22-5.87,6.9-11.57,9.71-17.64.72-1.52,1.34-3.06,1.93-4.62s1.15-3.21,1.67-4.84a97,97,0,0,0,2.59-9.92,67.48,67.48,0,0,0,1.1-7.46,42.93,42.93,0,0,0-.1-7.43,102.06,102.06,0,0,0-3.05-15Z"/><path class="cls-1" d="M262.67,235.3a15,15,0,0,1-5.61,1,20,20,0,0,1-5.4-.87,27.49,27.49,0,0,1-3.63-1.32,44.42,44.42,0,0,1-10.74-7.62c-1.42-1.3-2.83-2.62-4.17-4a31.58,31.58,0,0,1-4.69-5.67c-.39-.66,0-.81.75-.57a7.44,7.44,0,0,1,2.74,1.85,93.09,93.09,0,0,0,10.77,9.65,30.61,30.61,0,0,0,7.71,4.12,16.06,16.06,0,0,0,9.09,1,11.7,11.7,0,0,0,5-2.49,20,20,0,0,0,2.94-3.31,30.12,30.12,0,0,0,2.42-3.86,40,40,0,0,0,2.63-6.5l.45-1.46c.6-1.81,1.07-2.27,2.07-2.39a4.18,4.18,0,0,1,.68-.08c.73,0,1.09,1,.84,2.48A37.48,37.48,0,0,1,271,227.87a28.21,28.21,0,0,1-3.42,4.27c-.36.33-.69.66-1.08,1a14.44,14.44,0,0,1-1.21.89,16.91,16.91,0,0,1-2.6,1.36Z"/><path class="cls-1" d="M263.19,249.16a11.33,11.33,0,0,1-3.89.12c-.46-.09-.92-.11-1.37-.22a11.29,11.29,0,0,1-2.19-.94c-.34-.19-.69-.36-1-.57l-.94-.65c-.57-.35-1.08-.77-1.63-1.11a6.24,6.24,0,0,1-1.88-1.66c-.15-.22.2-.55.69-.77a1.61,1.61,0,0,1,1.45-.1c1.27.92,2.53,1.7,3.8,2.54a3.55,3.55,0,0,0,1.25.53,10.76,10.76,0,0,0,1.33.26,8.73,8.73,0,0,0,2.93,0l.9-.2c.3-.09.58-.21.87-.32a7.81,7.81,0,0,0,2.42-1.53,3.67,3.67,0,0,0,.7-.87,9.38,9.38,0,0,0,.56-1c.08-.14.14-.3.23-.43.32-.51.61-.53,1.36-.18.17.08.34.15.51.24a1.17,1.17,0,0,1,.67,1.36,7.27,7.27,0,0,1-3.1,3.91,11,11,0,0,1-3.63,1.59Z"/><path class="cls-1" d="M261.83,247.25a4,4,0,0,0-.1,7.45C267.76,257.29,267.72,246.24,261.83,247.25Z"/><path class="cls-1" d="M267.47,254.3a4.58,4.58,0,0,1-2.09,2,4.3,4.3,0,0,1-2.73.23A5.86,5.86,0,0,1,261,256a5.47,5.47,0,0,1-2.15-2.09,5,5,0,0,1-.62-2.86,5.9,5.9,0,0,1,.72-2.38,4.21,4.21,0,0,1,.44-.66,3,3,0,0,1,.54-.58,2.27,2.27,0,0,1,.69-.4,4.84,4.84,0,0,1,.73-.25c.32-.08.42.38.42.89a4.47,4.47,0,0,1-.06.75,2.41,2.41,0,0,1-.11.68,3.55,3.55,0,0,0-.63,1.5,4,4,0,0,0-.1,1.59c.1.74.86,1.16,1.62,1.47s1.53.37,2.05-.14a2.63,2.63,0,0,0,.68-1.45,3.8,3.8,0,0,0-.49-2.67,2,2,0,0,0-1.55-.82c-.12,0-.24,0-.36,0a2,2,0,0,1-.29,0,1.08,1.08,0,0,1-.22-.21,2.43,2.43,0,0,1-.36-.71c-.05-.15-.12-.29-.16-.44a.86.86,0,0,1,.06-.7,1.4,1.4,0,0,1,.69-.64,3.94,3.94,0,0,1,3.43.65,5.51,5.51,0,0,1,2,2.93,6.81,6.81,0,0,1-.44,5Z"/><path class="cls-1" d="M277.49,430.47l.22,6.54c0,.8.14,1.59.15,2.39.06,2.81.07,5.63.09,8.45,0,1.25,0,2.5.11,3.74l.1,2.39a13.93,13.93,0,0,1-.23,2.4c-.09.5-.54.43-1,0a3.62,3.62,0,0,1-1.23-2.07,66,66,0,0,1-.38-9.66c.08-1.95-.22-4-.34-6-.13-2.18-.22-4.38-.32-6.58l-.18-4.06c-.1-2.05-.14-4.11-.3-6.15-.11-1.58-.39-3.12-.57-4.69,0-.35-.11-.69-.12-1a2.55,2.55,0,0,1,.21-1.37,1.13,1.13,0,0,1,.31-.37,2.82,2.82,0,0,1,.49-.25c.15-.07.28-.15.4-.19.3-.12,1.11.4,1.33,1.32a54.4,54.4,0,0,1,1,8.58l.36,6.55Z"/><path class="cls-1" d="M304.29,402.6l-7.11,3.15c-.87.38-1.7.83-2.57,1.2-3.09,1.3-6.2,2.52-9.35,3.69-1.4.5-2.78,1.09-4.19,1.58a27.55,27.55,0,0,1-2.8.84,8.31,8.31,0,0,1-1.52.2A4,4,0,0,1,275,413c-.4-.16-.51-.46-.36-.61a7.09,7.09,0,0,1,.69-.53,5.49,5.49,0,0,1,2-1.32c1.66-.47,3.39-1.23,5.17-1.81s3.57-1.28,5.4-1.89c2.18-.74,4.3-1.88,6.45-2.86l7.08-3.25,4.35-2.05c2.18-1.06,4.39-2.08,6.53-3.21,1.66-.87,3.21-1.89,4.85-2.8.36-.21.7-.43,1.08-.61,1.4-.68,2.06-.69,2.63,0a2,2,0,0,1,.34.48c.17.58,0,1.16-1,1.75a83.61,83.61,0,0,1-8.91,5c-2.33,1.16-4.7,2.26-7.06,3.38Z"/><path class="cls-1" d="M247.87,446.6c2.12.88,4.28,1.74,6.44,2.56.79.29,1.61.52,2.4.82,2.78,1,5.58,2.1,8.4,3.12,1.25.44,2.51.89,3.76,1.3a34.17,34.17,0,0,1,4.75,1.82c.48.25.27.59-.28.83a3.93,3.93,0,0,1-2.41.14c-1.66-.45-3.32-.9-5-1.4s-3.25-1.15-4.87-1.8c-1.93-.8-4-1.34-6-2-2.22-.77-4.42-1.58-6.62-2.41l-4-1.59c-2-.82-4-1.74-6-2.64-1.56-.69-3.14-1.29-4.67-2.08-.33-.18-.67-.33-1-.54a3,3,0,0,1-1.13-1,1.24,1.24,0,0,1-.12-1,3.23,3.23,0,0,1,.12-.47c.2-.46.91-.48,1.82-.13l2,.86,2,.95c1.34.65,2.73,1.29,4.13,1.92,2.09.93,4.21,1.85,6.37,2.7Z"/><path class="cls-1" d="M325.51,431.1l-.05,3.27,0,2.09v.75a.25.25,0,0,1,0,.09l-.08.05-.16.1-.32.19-1.18.68c-1.9,1.1-3.84,2.13-5.79,3.14-1.42.73-2.81,1.53-4.25,2.21-5.08,2.46-10.25,4.66-15.43,6.81l-6.88,2.87a76.52,76.52,0,0,1-8.92,3.34c-.95.28-.94-.06-.31-.72a13.69,13.69,0,0,1,3.51-2.5c5.85-2.76,11.78-5.25,17.81-7.66,3.6-1.46,7.19-3.33,10.72-5.13,1.94-1,3.87-2,5.77-3.07l1.43-.8,1.3-.75a1.46,1.46,0,0,0,.3-.17V434q0-4.05,0-8.09c0-4.08-.06-8.19-.24-12.23-.15-3.15-.47-6.22-.8-9.3-.08-.68-.18-1.34-.23-2-.18-2.53-.17-3.26.31-3.92a3.33,3.33,0,0,1,.3-.46c.18-.18.42-.05.72.4a7.15,7.15,0,0,1,.8,2.13,54.16,54.16,0,0,1,1.15,8.58c.23,2.91.35,5.87.44,8.82.14,4.4.17,8.81.17,13.21Z"/><path class="cls-1" d="M237.15,396.64l-5.79-2.78a2.41,2.41,0,0,1-1.2-1,.4.4,0,0,1,0-.41l.1-.34v0h0c-.15,0,.36,0-.35,0h0v0l0,0,.06-.09.14-.18.27-.36.28-.35c.06-.06.06-.12.18-.17l.56-.17,2.49-.77,1.23-.38.69-.25c.91-.34,1.81-.65,2.72-1,1.73-.66,3.42-1.41,5.14-2.11,6.07-2.45,12.13-5,18.2-7.54l8.06-3.41a51.92,51.92,0,0,1,10.67-3.59c1.17-.21,1.07.26.23.92a19.1,19.1,0,0,1-4.34,2.37c-7,2.71-13.9,5.82-21,8.67-4.24,1.72-8.53,3.78-12.87,5.6-1.43.59-2.88,1.18-4.33,1.75l-2.2.82-1.1.35-.64.16-.34.09a1.25,1.25,0,0,0,.24.15l1.15.58,8.31,3.89c4.36,2,8.72,4,13.08,6,3.39,1.49,6.77,2.81,10.15,4.22.74.31,1.48.6,2.22.93,2.75,1.23,3.55,1.79,3.86,2.66a2.74,2.74,0,0,1,.2.59c.06.57-1.23.45-3.31-.31-6.18-2.19-12.46-5-18.78-7.86-4.69-2.11-9.37-4.3-14.05-6.47Z"/><path class="cls-1" d="M307.79,386.24l-5-3.05c-.61-.36-1.26-.68-1.86-1.05-2.16-1.29-4.27-2.68-6.39-4-1-.6-1.91-1.17-2.86-1.73a42.24,42.24,0,0,1-3.62-2.27c-.72-.53.75-.77,2.19,0,2.53,1.38,5.14,2.62,7.63,4.13,1.5.89,3.13,1.69,4.71,2.52l5.17,2.84,3.17,1.77c1.61.88,3.2,1.83,4.81,2.69,1.25.66,2.54,1.2,3.82,1.8a9.12,9.12,0,0,1,.83.41c1,.59,1.22.93,1.09,1.62a2.34,2.34,0,0,1-.09.46c-.16.48-.78.6-1.59.32a45.94,45.94,0,0,1-7-3.38c-1.71-.95-3.37-2-5.07-3Z"/><path class="cls-1" d="M228.2,408.22l.16-13v-2.33c0-.25,0-.13-.7-.91A145.4,145.4,0,0,1,216.78,379a75.32,75.32,0,0,1-4.19-6.28,24.6,24.6,0,0,1-3.51-9c-.16-1,.42-1,1.17-.3a8.08,8.08,0,0,1,1.21,1.4,10.67,10.67,0,0,1,1.22,2.06,75.67,75.67,0,0,0,10.22,15.72c1.19,1.5,2.52,2.95,3.9,4.38l2.09,2.14,1.05,1.06.64.67.43.45.21.22v.31l-.09,13.53q0,4,0,8.07c0,4.07.06,8.16.24,12.2.13,3.14.51,6.2.79,9.29.07.67.16,1.33.21,2,.22,2.53.12,3.3-.58,3.95a3.3,3.3,0,0,1-.49.44c-.54.35-1.22-.66-1.58-2.55a108.39,108.39,0,0,1-1.47-17.35c-.12-4.38-.13-8.78-.16-13.17Z"/><path class="cls-1" d="M240.89,343.51c-2.48,1.25-5,2.51-7.43,3.8-.91.47-1.77,1-2.67,1.47l-9.59,4.89c-1.41.73-2.81,1.52-4.18,2.31l-2.63,1.53a23.41,23.41,0,0,1-2.8,1.25c-.6.22-.75-.25-.52-.95a4.66,4.66,0,0,1,1.81-2.29c3.59-2,7.24-4,11-5.77,2.27-1.05,4.47-2.43,6.73-3.63,2.48-1.32,5-2.61,7.49-3.89l4.63-2.36,7-3.52c1.8-.93,3.52-1.94,5.32-2.83.4-.2.77-.42,1.18-.6,1.5-.69,2.07-.71,2.61-.34a2,2,0,0,1,.36.24c.3.29-.15.94-1.17,1.58-1.53.92-3.1,1.86-4.72,2.76s-3.3,1.71-5,2.57l-7.48,3.83Z"/><path class="cls-1" d="M268.51,349.29c.8,1.76,1.68,3.5,2.63,5.2.34.63.77,1.21,1.13,1.82,1.23,2.19,2.6,4.3,4,6.39a27.67,27.67,0,0,0,2.08,2.61c.94,1,1.87,2.14,2.8,3.09.28.32.11.56-.4.62a3,3,0,0,1-1-.07,3.56,3.56,0,0,1-1.12-.53c-.63-.47-1.21-1-1.78-1.48s-1-1.1-1.51-1.68a26.94,26.94,0,0,1-2.61-3.68c-.9-1.57-2.06-3-3-4.6-.53-.85-1-1.74-1.53-2.61l-1.43-2.67c-.55-1.11-1.1-2.22-1.62-3.35-.8-1.71-1.45-3.5-2.12-5.25-.24-.69-.52-1.36-.8-2s-.49-1.38-.7-2.09a5.72,5.72,0,0,1-.22-1,2.92,2.92,0,0,1,.07-1.32,1.51,1.51,0,0,1,.54-.62,2.78,2.78,0,0,1,.27-.19c.15-.07.3,0,.51.2a2.43,2.43,0,0,1,.67.86,7.72,7.72,0,0,1,.36.85c.11.29.27.57.39.86.24.57.41,1.16.65,1.74.49,1.17.91,2.36,1.45,3.54.77,1.75,1.5,3.56,2.37,5.31Z"/><path class="cls-1" d="M188.21,403.05c2.3-2.38,4.48-4.9,6.55-7.52.75-1,1.43-2,2.16-2.95a72.58,72.58,0,0,0,7-10.73,44.59,44.59,0,0,0,2.34-5.19c.44-1.13.8-2.29,1.22-3.43s.89-2.26,1.38-3.38c.32-.7.72-.49,1,.27a6.49,6.49,0,0,1,.22,3.52,44.89,44.89,0,0,1-6.4,14c-1.74,2.56-3.43,5.28-5.3,7.77q-3.07,4.13-6.53,8c-1.41,1.57-2.89,3.1-4.41,4.57-2.33,2.25-4.85,4.22-7.29,6.24-1.91,1.55-3.71,3.17-5.67,4.67-.42.33-.84.67-1.29,1-1.7,1.16-2.51,1.15-3.22.7-.15-.09-.33-.15-.42-.22s-.11-.36.06-.79a3.63,3.63,0,0,1,1.08-1.32c3.23-2.68,6.76-5.48,10.2-8.38,1.27-1.07,2.55-2.17,3.74-3.27s2.38-2.3,3.52-3.52Z"/><path class="cls-1" d="M198,452.48q-6.19,3.42-12.31,7l-4.42,2.7-15.75,9.28-3.48,2.1-.86.53a3.89,3.89,0,0,1-.47.28,4.9,4.9,0,0,1-.58.27,14.83,14.83,0,0,1-2.08.58,45.27,45.27,0,0,1-10.43,1c-1.12-.06-.94-.48-.06-1a14.66,14.66,0,0,1,4.4-1.52c1.71-.27,3.41-.67,5.06-1a14.42,14.42,0,0,0,2.24-.59l.13-.06.06,0,.14-.08.56-.35,1.13-.69c3-1.82,6-3.65,9.12-5.39,3.71-2.07,7.39-4.52,11.11-6.77q6.13-3.69,12.37-7.26,3.84-2.19,7.71-4.32c3.9-2.16,7.89-4.21,11.86-6.21,3.09-1.54,6.08-3.16,9.33-4.41.71-.27,1.42-.54,2.18-.75a8.83,8.83,0,0,1,3.09-.4,2.21,2.21,0,0,1,1.45.55,3.09,3.09,0,0,1,.41.37c.24.41-.83.82-2.62,1.52a178.17,178.17,0,0,0-16.73,7.8c-4.19,2.19-8.38,4.45-12.52,6.81Z"/><path class="cls-1" d="M373.72,403.9q-6.39-4.42-12.6-9.11c-1.5-1.15-3.07-2.21-4.55-3.39-5.22-4.15-10.27-8.52-15.1-13.15-2.15-2.05-4.25-4.18-6.27-6.35a34.33,34.33,0,0,1-3.59-4.51,15.82,15.82,0,0,1-2.47-5.36c-.26-1.26.32-1.13,1.17-.4a31.76,31.76,0,0,1,3.45,3.46c4.7,5.51,10.17,10.74,15.68,16a137.66,137.66,0,0,0,10.9,8.84c4.1,3.14,8.26,6.21,12.5,9.17,2.62,1.82,5.24,3.63,7.91,5.36,4,2.62,8.14,5.22,12.32,7.54,3.25,1.8,6.57,3.33,9.91,4.81.74.32,1.47.6,2.21.93,2.75,1.19,3.5,1.8,3.79,2.83a4.11,4.11,0,0,1,.18.71c0,.7-1.33.78-3.52.11a103.6,103.6,0,0,1-18.7-9c-4.51-2.65-8.91-5.51-13.26-8.42Z"/><path class="cls-1" d="M373.74,446.89q-6.44-2.75-12.92-5.41c-1.58-.65-3.19-1.21-4.77-1.86l-16.65-6.94c-2.46-1.07-4.93-1.93-7.46-2.81a38.92,38.92,0,0,1-4.81-2,12.62,12.62,0,0,1-4.25-3.32c-.69-1-.15-1.08.81-.78a40.71,40.71,0,0,1,4.11,1.44,44.4,44.4,0,0,0,4.68,1.7c1.61.57,3.26,1.13,4.91,1.75,3.32,1.24,6.46,2.62,9.67,4.08,3.81,1.74,7.93,3.18,11.91,4.78l13.08,5.36,8,3.36,12.12,5.18c3.13,1.34,6.26,2.5,9.35,3.92.68.32,1.36.61,2,1a9,9,0,0,1,2.49,1.77,2.93,2.93,0,0,1,.49.76,2,2,0,0,1,.1.76,2.79,2.79,0,0,1,0,.61c-.18.44-1.27.27-3-.53-5.27-2.38-11.1-4.79-16.89-7.26-4.31-1.83-8.65-3.66-13-5.45Z"/><path class="cls-1" d="M167.1,419.56a21.36,21.36,0,0,0-1.5-5.54,10.47,10.47,0,0,0-3.24-4.23,7.93,7.93,0,0,0-2.33-1.25,9.3,9.3,0,0,0-1.33-.38L158,408c-.22,0-.45-.05-.68-.07a8.75,8.75,0,0,0-5.21,1c-2.35,1.24-4.07,3.65-5.49,6.16a53.3,53.3,0,0,0-4.89,15,147.53,147.53,0,0,0-2.05,16c-.19,2.4-.31,4.8-.46,7.22a55.74,55.74,0,0,0,0,7.08,43.93,43.93,0,0,0,1.41,8.85,13.59,13.59,0,0,0,1.69,3.85,4.75,4.75,0,0,0,1.31,1.33,3.45,3.45,0,0,0,1.66.66c.4,0,.71,0,.92,0s.32.09.34.19-.07.23-.26.39a2.62,2.62,0,0,1-.92.53,4.35,4.35,0,0,1-1.73.29,4.07,4.07,0,0,1-2.27-.8,9.17,9.17,0,0,1-3.24-4.48,29.28,29.28,0,0,1-1.27-4.86,40.28,40.28,0,0,1-.59-4.86c-.1-1.61-.15-3.23-.14-4.84s.12-3.31.24-4.82a170.12,170.12,0,0,1,2.09-18.93,109.22,109.22,0,0,1,2.54-11.43,34.73,34.73,0,0,1,5-11,14.35,14.35,0,0,1,5.3-4.5,12.17,12.17,0,0,1,7-.93,18.45,18.45,0,0,1,3.37.9,11.86,11.86,0,0,1,3.06,1.82,14.19,14.19,0,0,1,4,5.61,26.5,26.5,0,0,1,1.84,8,49,49,0,0,1,0,8,91.86,91.86,0,0,1-5.36,23.39,77.22,77.22,0,0,1-7.91,16.65,32.74,32.74,0,0,1-2.52,3.3,11.46,11.46,0,0,1-4.64,3.42,3.13,3.13,0,0,1-2.77-.14,3.91,3.91,0,0,1-.55-.44.58.58,0,0,1-.14-.12h0a.22.22,0,0,1,0-.35s.17-.07.18-.1a13.66,13.66,0,0,0,3.71-2.21,25.33,25.33,0,0,0,4.75-6,66,66,0,0,0,3.71-7.21,102.46,102.46,0,0,0,5.43-15.73A86.24,86.24,0,0,0,167,431.72a47.46,47.46,0,0,0,.06-12.14Z"/><path class="cls-1" d="M434.85,409.2c-.11-3.67-.91-7.4-3.31-9.66a8.29,8.29,0,0,0-2-1.36,6.33,6.33,0,0,0-1.17-.43l-.6-.18c-.2-.05-.4,0-.6-.07a7,7,0,0,0-4.67,1.19,18.88,18.88,0,0,0-5.24,6,64.91,64.91,0,0,0-6,13.74,137.86,137.86,0,0,0-3.74,14.75c-.44,2.22-.81,4.44-1.11,6.68s-.56,4.47-.66,6.68a33,33,0,0,0,.49,8.35,9.64,9.64,0,0,0,1.47,3.56,5.52,5.52,0,0,0,2.94,1.94c.78.15,1.17.23,1.16.43s-.41.48-1.24.68a5.52,5.52,0,0,1-1.59.16c-.16,0-.33,0-.51,0a2.35,2.35,0,0,1-.52-.14,4.74,4.74,0,0,1-1.08-.5,7.74,7.74,0,0,1-3.14-4.32,21.85,21.85,0,0,1-.87-4.75,34.44,34.44,0,0,1-.05-4.65,84.92,84.92,0,0,1,1-9,132.61,132.61,0,0,1,4.05-17.54c1.06-3.45,2.19-6.95,3.58-10.41a54.34,54.34,0,0,1,2.33-5.11,30.89,30.89,0,0,1,3-4.83,16.79,16.79,0,0,1,4.76-4.37,9.52,9.52,0,0,1,6.61-1.23,10.94,10.94,0,0,1,5.89,3.1,12.73,12.73,0,0,1,2,2.7,16.81,16.81,0,0,1,1.2,3,26.18,26.18,0,0,1,.85,7.68,49.67,49.67,0,0,1-.79,7.53,92.74,92.74,0,0,1-7.07,21.47,75.8,75.8,0,0,1-8.67,15,28.54,28.54,0,0,1-2.6,2.93,10.5,10.5,0,0,1-4.37,2.77,3.17,3.17,0,0,1-2.69-.3l.67-.49a2.61,2.61,0,0,1-.22.24,4.67,4.67,0,0,1-.6.59c-.31.18-.51-.19-.63-1l-.06-.41,1.07-.34a8.58,8.58,0,0,0,1.2-.39,9.44,9.44,0,0,0,1.66-1,23.12,23.12,0,0,0,4.86-5.28,65.13,65.13,0,0,0,4-6.51,104.26,104.26,0,0,0,6.36-14.34,87.34,87.34,0,0,0,3.32-11.22,47.79,47.79,0,0,0,1.25-11.39Z"/><path class="cls-1" d="M329.6,246.72c-5.67,11-10.77,22.35-15.45,33.85-1.71,4.2-3.27,8.45-4.85,12.69a464.65,464.65,0,0,0-14.57,45.64c-1.78,6.87-3.31,13.83-4.57,20.75-.8,4.44-1.47,8.91-2,13.38-.24,2.24-.46,4.48-.59,6.71a45.89,45.89,0,0,0,0,6.63c0,.33.07.62.08.87a4.45,4.45,0,0,1,0,.58c0,.32-.06.48-.17.49s-.71-.53-1.16-1.71a20.72,20.72,0,0,1-1.13-5,37.58,37.58,0,0,1,0-7.21,204.52,204.52,0,0,1,4.66-27.59q3.17-13.6,7.44-27c3.39-10.66,6.94-21.76,11-32.46q6.68-17.67,14.91-34.69,5.06-10.47,10.79-20.59a274.7,274.7,0,0,1,19.18-29.48A182.49,182.49,0,0,1,370.7,182.1c1.4-1.41,2.81-2.74,4.3-4.09s2.59-2.19,3.6-3,1.88-1.38,2.61-1.84a8.24,8.24,0,0,1,3.3-1.4,5.66,5.66,0,0,1,1.17-.15c.47,0,.17.62-.76,1.59-.46.49-1.1,1.05-1.86,1.73s-1.63,1.47-2.65,2.33c-11.91,10.33-22.54,23.26-31.88,37.15a308.54,308.54,0,0,0-18.85,32.34Z"/><path class="cls-1" d="M358.23,280.59a312,312,0,0,0-19.9,24.77c-2.3,3.12-4.39,6.38-6.58,9.56-3.82,5.66-7.45,11.43-11,17.28S314,344.05,311,350.15c-2.68,5.43-5.12,11-7.28,16.61a180.17,180.17,0,0,0-6.85,22.05c-.57,2.33-.88,2-1-.13a30.09,30.09,0,0,1,.09-4.33c.08-.89.17-1.86.32-2.88s.43-2.08.7-3.18c.48-2,1.07-3.86,1.66-5.77s1.24-3.81,1.91-5.7q2.1-5.62,4.57-11.08a226.3,226.3,0,0,1,11-21.32c4.84-8.28,10-16.83,15.54-24.91q9.16-13.33,19.62-25.7c4.32-5,8.72-10,13.37-14.74A235.44,235.44,0,0,1,387,248.85a158.52,158.52,0,0,1,19-13.15l2.2-1.27,1.1-.63,1.15-.56a35.25,35.25,0,0,1,6.24-2.6,6.71,6.71,0,0,1,3.09-.31,5.83,5.83,0,0,1,1,.19c.76.36-1.43,1.79-5.5,3.74a138,138,0,0,0-17.67,10.6A181.85,181.85,0,0,0,380.87,258a247.22,247.22,0,0,0-22.58,22.62Z"/><path class="cls-1" d="M199.39,276.11A197,197,0,0,1,220.8,303c2.34,3.46,4.64,7,6.8,10.51,3.8,6.29,7.4,12.71,10.74,19.25s6.47,13.17,9.53,19.83c2.73,5.9,5.46,11.83,8.21,17.65.88,1.87,1.8,3.72,2.65,5.65s1.63,3.85,2.41,5.76a99.8,99.8,0,0,0,5.07,11.15c1.28,2.14.69,2.24-1,.72a20.28,20.28,0,0,1-3-3.59,34.19,34.19,0,0,1-3-5.82l-2.41-5.85c-.8-1.92-1.69-3.76-2.6-5.7l-5.33-11.52c-3.52-7.7-7-15.41-10.71-23.05a266.35,266.35,0,0,0-15.33-27,212.55,212.55,0,0,0-20.36-27.44c-2.31-2.64-4.74-5.17-7.21-7.67s-5.06-4.87-7.65-7.25a229.81,229.81,0,0,0-24.71-20.15c-3.37-2.33-6.86-4.4-10.36-6.51s-7-4.12-10.55-6c-1.59-.79-3.15-1.52-4.78-2.22-3-1.31-5-2-6.43-2.59a8.81,8.81,0,0,1-2.8-1.57,6.25,6.25,0,0,1-.82-.74c-.26-.38.3-.56,1.58-.55a20.84,20.84,0,0,1,5.65,1.14c7.15,2.34,13.77,6.23,20.25,10.2,3.22,2,6.53,4,9.72,6.23s6.33,4.53,9.39,6.94c4.54,3.58,8.93,7.35,13.22,11.22s8.52,7.79,12.58,12Z"/><path class="cls-1" d="M194.78,325.21a106.39,106.39,0,0,1,12.83,11.61c.74.75,1.45,1.52,2.16,2.29s1.44,1.52,2.1,2.34c2.4,2.81,4.63,5.76,6.8,8.73s4.19,6.05,6.16,9.15c1.74,2.76,3.49,5.53,5.13,8.32,2.1,3.57,4.23,7.2,5.93,10.9.52,1,.25,1.21-.77.52a12.42,12.42,0,0,1-1.78-1.61,15.82,15.82,0,0,1-1.91-2.63c-2.13-3.63-4.35-7.19-6.54-10.77s-4.47-7.12-6.83-10.62a112.57,112.57,0,0,0-9.7-12,110,110,0,0,0-12.25-11.79,85.87,85.87,0,0,0-8.47-6.12,66.73,66.73,0,0,0-14.24-6.81,52.59,52.59,0,0,0-5.85-1.56c-1-.21-2-.32-3-.48a29.77,29.77,0,0,0-3-.38c-.88-.07-1.74-.12-2.62-.21a31.15,31.15,0,0,1-3.47-.34,3.11,3.11,0,0,1-1.55-.85,5.42,5.42,0,0,1-.47-.42c-.16-.22.1-.39.71-.65a8.17,8.17,0,0,1,2.86-.45,54.87,54.87,0,0,1,22.59,4.89,77.75,77.75,0,0,1,15.14,8.93Z"/><path class="cls-1" d="M216.82,327.09a22.9,22.9,0,0,1-1.47-4.86c-.08-.61-.25-1.21-.29-1.83a19.58,19.58,0,0,1,.68-6.4c.23-.87.39-1.77.54-2.66a17.33,17.33,0,0,1,.88-3.36c.15-.33.5-.21.84.16a2.5,2.5,0,0,1,.64,1.69c0,.59-.07,1.19-.14,1.78s-.22,1.16-.35,1.74-.25,1.12-.38,1.69-.27,1.08-.37,1.63a11.65,11.65,0,0,0,0,4.08,17.51,17.51,0,0,0,1.11,4.41,13.31,13.31,0,0,0,.55,1.3,12.82,12.82,0,0,0,.65,1.28,18.74,18.74,0,0,0,4.83,6c.18.16.36.33.53.51.64.66.73,1,.48,1.51a4,4,0,0,1-.17.36c-.23.36-.74.33-1.35-.05a17.92,17.92,0,0,1-4.67-4.57,25.37,25.37,0,0,1-2.6-4.36Z"/><path class="cls-1" d="M303.54,340.14a38.89,38.89,0,0,0,1.91-5.92c.2-.73.22-1.49.4-2.22a25.34,25.34,0,0,0,.33-8,25,25,0,0,0-.65-3.54c-.38-1.5-.87-3-1.18-4.49-.1-.48.25-.53.74-.27a3.55,3.55,0,0,1,1.46,1.73,24.39,24.39,0,0,1,1.94,9.65,41.6,41.6,0,0,1-.35,6.1,39,39,0,0,1-1.69,6.43c-.45,1.28-1,2.54-1.48,3.78-.81,1.88-1.73,3.72-2.62,5.53-.72,1.39-1.28,2.84-2,4.21-.16.3-.3.61-.48.9a5.91,5.91,0,0,1-.45.67,2.27,2.27,0,0,1-.47.36,1.32,1.32,0,0,1-.82.19c-.13,0-.27,0-.38,0-.34-.08-.39-.72-.2-1.67,1-2.6,2.2-5.14,3.42-7.7.93-1.89,1.8-3.81,2.54-5.77Z"/><path class="cls-1" d="M310.37,370.58a36.61,36.61,0,0,1-3.19-1.85A11.91,11.91,0,0,1,306,368a15.31,15.31,0,0,1-1.78-1.64,10.61,10.61,0,0,1-1.5-1.94l-1.09-1.75a20.7,20.7,0,0,1-1.3-2.14c-.11-.24.15-.43.57-.48a1.68,1.68,0,0,1,1.37.45c.62.7,1.13,1.43,1.62,2.1s.87,1.36,1.34,2a9.68,9.68,0,0,0,2.37,1.85,29.78,29.78,0,0,0,3,1.71q1,.5,1.95.93c1,.44,2,.89,3.06,1.26.82.28,1.66.45,2.48.73.19.06.37.1.55.17.66.28.78.57.65,1.16,0,.13-.05.27-.09.4a1,1,0,0,1-1.09.6,19.39,19.39,0,0,1-2.24-.47c-.74-.21-1.47-.51-2.21-.8-1.1-.43-2.2-.93-3.31-1.45Z"/><path class="cls-1" d="M311.57,379.39c.55-.6,1.09-1.22,1.61-1.86.19-.23.33-.5.53-.73.7-.8,1.4-1.61,2-2.47a8.74,8.74,0,0,0,.73-1.2,5.81,5.81,0,0,1,.93-1.55c.28-.28,1.43.86,1.13,1.53a13,13,0,0,1-2.08,3.18,20.09,20.09,0,0,0-1.33,1.9c-.52.68-1.07,1.34-1.62,2l-1,1.19c-.51.61-1.1,1.16-1.62,1.76s-.73,1-1.15,1.46a4,4,0,0,1-.29.29c-.41.32-.62.33-1,.08a2,2,0,0,1-.23-.18.71.71,0,0,1-.08-.88l.37-.72.46-.66c.31-.42.64-.86,1-1.28.48-.64,1.05-1.24,1.57-1.88Z"/><path class="cls-1" d="M435.4,212.05l-1-3.8-.25-.95a1.37,1.37,0,0,1-.05-.19V207l-.06-.34-.08-.41-.05-.23c0-.06,0,0,0,0l0,.07c-.09.19-.18.42-.29.7l-.06.16-.11.33-.43,1.37-.87,2.73-1.24,3.76-6.32,1.5-2.79.66-1.4.33-.7.17-.34.09-.17,0-.07,0h0l-.05-.16a.89.89,0,0,1-.07-.23c0-.12-.08-.24-.13-.36l-.07-.17s0,0,0-.07,0,0,0,0l.15-1.06,5.44.87,2.84.42,3.47.48c.34,1.26.69,2.5,1,3.73,1,3.68,2.19,7.33,2.89,11.09.44,2.35-2.82.09-4-4.15l-1.25-4.67-.6-2.34-.3-1.16v0h0l-.18,0-1.38-.22-2.78-.45-5.55-1-.12,0h0a1.26,1.26,0,0,1-.4-.15,1.61,1.61,0,0,1-.44-.38,1.5,1.5,0,0,1-.31-1,1.55,1.55,0,0,1,.3-.85,1.61,1.61,0,0,1,.32-.3,2.78,2.78,0,0,1,.29-.17h0l.07,0,.07,0,.06,0,.09,0,.17,0,.32-.07.62-.14,1.25-.26c1.44-.31,2.89-.65,4.35-1l3.71-.94c.47-1.5.95-3,1.43-4.51l1.57-4.75.51-1.51a4.13,4.13,0,0,1,.55-1.22,4.82,4.82,0,0,0,1-.52l.1-.07,0,0h0c0-.23,0,.53,0-.52h0l.06.08.22.33.46.67.44.67.12.17s0,0,.05.1l0,.19.22.77L437,208l1.44,5.3,3.1.87,3.76,1.06,1.94.58a7.07,7.07,0,0,1,1.31.62c.31.19.54.37.78.53a1.12,1.12,0,0,1,.33.28l-.52.23-2.1.95-4.59,1-2.36.56-1.11.28-.58.16c-.06.34-.42,1.74-.67,2.76l-.81,3.25c-.2.8-.38,1.6-.59,2.4-.81,3-1.26,3.88-2.13,4.33a2.79,2.79,0,0,1-.58.28c-.61.14-.7-1.2-.24-3.42q.57-2.67,1.23-5.38c.22-.9.45-1.81.68-2.72l.35-1.37c.22-.79.43-1.58.65-2.37l4.82-1.13.24-.05.11,0h0s0,0,0,0h0l-.2-.06-.8-.22-4.16-1.14-1-3.44Z"/><path class="cls-1" d="M409.56,159.7c-5-.33-10-.9-14.9-1.5-1.8-.22-3.6-.33-5.39-.54l-2.63-.28-1.14-.59-.29-.15a.3.3,0,0,1-.22-.23,1.71,1.71,0,0,1-.08-.63,7.48,7.48,0,0,1,1.22-3c.35-.63.48-.82.7-1.16l.61-.93,1.24-1.83c1.67-2.43,3.34-4.84,5-7.23s3.22-4.66,4.76-7c2-3,3.94-6,6.14-8.84.63-.88.89-.64.85.44a14,14,0,0,1-.7,3.46,13,13,0,0,1-.65,1.37c-.91,1.62-1.82,3.23-2.79,4.8s-2,3.1-3,4.63-2.06,3.05-3.14,4.55-2.19,3-3.29,4.46c-1,1.31-1.9,2.67-2.77,4.06l-.3.49c-.07.12-.14.23-.2.35l-.07.19s0,.07,0,.1.06,0,.09,0l.41,0,2.59.28c5,.54,9.91,1.07,14.85,1.41,3.05.2,6.09.33,9.13.31l2.82,0,.72,0c.05,0,.14,0,.16,0a.86.86,0,0,0,0-.17l-.11-.33-.26-.67-.34-.81c-.68-1.58-1.4-3.14-2.14-4.68-1.54-3.23-3.33-6.27-5-9.39l-1.12-2c-1.32-2.59-1.55-3.44-1.14-4.4.08-.22.11-.46.18-.63.21-.56,1.62.16,2.82,2a102.77,102.77,0,0,1,9.33,17.58l.3.7c.18.41.35.83.51,1.25a8.51,8.51,0,0,1,.73,2.39,2,2,0,0,1,0,.49c0,.14,0,.31-.15.39a3.82,3.82,0,0,1-.32.27l-.09.07-.05,0h0l.25.16h0l-.2.11-1.56.88-2.37.09-1.64,0c-.82,0-1.63,0-2.44,0-1.62,0-3.24-.09-4.85-.17Z"/><path class="cls-1" d="M401.8,147.29a2.81,2.81,0,0,0,2.63,2.44A3.07,3.07,0,0,0,407,148a3.2,3.2,0,0,0,.12-3.13c-.77-1.32-2.31-1.45-3.66-1.16a1.89,1.89,0,0,0-1.31,2.31,1.93,1.93,0,0,0,2.31,1.31c.06,0,.42-.07.06,0s-.05,0,0,0h.21c.15,0-.51-.09-.26,0s-.43-.23-.14-.06c0,0-.42-.34-.26-.19-.35-.33-.28-.4-.19-.23s-.21-.52-.14-.31,0,.3,0-.11-.08.33,0-.19,0-.05,0,.05c-.05.3.27-.48.05-.13a1.59,1.59,0,0,0-.13.22c-.09.17.24-.26.17-.23s-.06.08-.1.1c-.27.23.44-.27.15-.1s.5-.16.19-.09a1.31,1.31,0,0,1,.58,0c.38.06.22,0,.13,0s.51.23.33.13c.37.21.38.32.23.16s.33.42.19.23-.14-.3,0,0,0,.07,0,0l-.06-.28a1.89,1.89,0,0,0-2.31-1.31,1.93,1.93,0,0,0-1.31,2.31Z"/><path class="cls-1" d="M358.52,112.4a27.44,27.44,0,0,0-2.35,3.41c-.25.44-.44.91-.68,1.36l-.34.6-.5,1a3.06,3.06,0,0,1-.61.87c-.25.17-.4.44-.78.45a2.36,2.36,0,0,1-1.83-.66,8.12,8.12,0,0,1-1.29-1.43l-1.43-2.12a9.64,9.64,0,0,1-1.41-2.9c-.09-.33.25-.45.72-.39a2.6,2.6,0,0,1,1.52.71,29.66,29.66,0,0,1,1.89,2.44l.45.6.2.29a1.65,1.65,0,0,1,.16.23.71.71,0,0,0,.15.4c.06.1.21.19.26.1a1,1,0,0,0,.16-.25l.26-.58c.14-.31.29-.62.45-.91a31.65,31.65,0,0,1,2.39-3.82c.54-.75,1.12-1.47,1.73-2.17a33.4,33.4,0,0,1,3-3,23,23,0,0,1,2.51-2.09,2.4,2.4,0,0,1,.61-.38,1.62,1.62,0,0,1,1-.22,1.55,1.55,0,0,1,.62.38c.08.08.17.14.23.21a.58.58,0,0,1,0,.51,1.43,1.43,0,0,1-.4.74c-1.24,1.37-2.64,2.35-3.93,3.63a25.29,25.29,0,0,0-2.69,3Z"/><path class="cls-1" d="M120.25,210.89,108.9,221.26c-1.55,1.42.75,3.71,2.3,2.3l11.35-10.37c1.55-1.41-.76-3.71-2.3-2.3Z"/><path class="cls-1" d="M108.61,238.89l-12.39,3.67c-2,.6-1.15,3.73.86,3.14l12.4-3.68c2-.59,1.14-3.73-.87-3.13Z"/><path class="cls-1" d="M109.26,213.14l9.67,10.6c1.42,1.54,3.71-.76,2.3-2.3l-9.68-10.6c-1.41-1.55-3.7.76-2.29,2.3Z"/><path class="cls-1" d="M99.07,298.44c.48-.87,1-1.74,1.41-2.62.16-.32.26-.67.43-1,.6-1.13,1.22-2.25,1.77-3.39a10.3,10.3,0,0,0,.57-1.58,5.9,5.9,0,0,1,.7-2c.14-.18.72,0,1.24.34s1,.89.84,1.3a15.24,15.24,0,0,1-1.94,4.12,18.21,18.21,0,0,0-1.16,2.49c-.44.91-.9,1.8-1.36,2.7l-.85,1.66c-.41.84-.86,1.66-1.22,2.52a21,21,0,0,0-.63,2.09c-.05.15-.08.31-.14.46a.71.71,0,0,1-.42.5,1.27,1.27,0,0,1-.73-.05l-.38-.11a1.16,1.16,0,0,1-.7-1,12.69,12.69,0,0,1,1.21-3.74c.41-.91.87-1.79,1.31-2.69Z"/><path class="cls-1" d="M110.3,303.45l-2.88.74c-.35.09-.68.24-1,.32-1.27.29-2.55.53-3.84.77-.57.11-1.13.26-1.69.42a4.9,4.9,0,0,1-2.22.32c-.25,0-.26-.58-.14-1.13s.37-1.13.74-1.21a34.21,34.21,0,0,1,4.15-.84,13.52,13.52,0,0,0,2.56-.8c.94-.31,1.91-.56,2.88-.84l1.79-.51c.91-.26,1.84-.47,2.73-.76.71-.22,1.36-.58,2.08-.83a2.64,2.64,0,0,1,.47-.17c.61-.12.84,0,1,.71a4,4,0,0,1,.14.46,1.12,1.12,0,0,1-.44,1.23,13.31,13.31,0,0,1-3.5,1.38l-2.8.8Z"/><path class="cls-1" d="M121.45,285.91l.23-.64.06-.16,0-.08v0l0-.05a1.6,1.6,0,0,0,.13-.21c0-.07.14-.24.1-.27l-.23,0h0l-.32.1-.2.06-.49.13c-2.35.55-4.7,1-7,1.48-1,.22-2,.51-3,.82a33.77,33.77,0,0,1-3.8,1.16c-.41.08-.57-.44-.43-1.07a2.28,2.28,0,0,1,1.37-1.64,44.84,44.84,0,0,1,8.14-2,21.32,21.32,0,0,0,2.47-.53l2.59-.72c.65-.19,1.27-.36,2-.61l.76-.14a2.43,2.43,0,0,1,.43.12l.21.06.11,0h0l-.12.13h0a.08.08,0,0,1,0,0c.07.12.18.19.22.36a2.84,2.84,0,0,1-.14,1.35c-.15.53-.32,1.07-.49,1.6l-1.16,3.41c-.56,1.65-1.16,3.3-1.66,5-.39,1.28-.65,2.59-1,3.89-.07.28-.12.57-.2.85-.31,1.06-.58,1.34-1.25,1.35a2.36,2.36,0,0,1-.46,0c-.49-.06-.73-.61-.61-1.41a46.28,46.28,0,0,1,1.85-7.16l1.77-5.3Z"/><path class="cls-1" d="M113.6,301.7c1-.31,1.9-.63,2.82-1l.7-.28.34-.14.24-.1s.11,0,.13-.08l0-.1.15-.34c.28-.68.49-1.4.76-2.09q1.47-3.66,2.93-7.32c.42-1.09.78-2.21,1.11-3.32a30.39,30.39,0,0,1,1.39-4.2c0-.09.11-.16.18-.15h.08l.15,0-.19,0h0a.14.14,0,0,0,.06.07s.09,0,.14,0c.23-.11.48.07.68.35a2.63,2.63,0,0,1,.46,2.24,65.39,65.39,0,0,1-3.17,8.61c-.78,1.68-1.3,3.51-2,5.27l-.58,1.46a6.13,6.13,0,0,1-.46,1c-.2.35-.65.48-1,.65-1,.43-2,.8-2.94,1.17-1.21.43-2.44.82-3.66,1.2-1.86.57-3.75,1-5.61,1.54-1.44.39-2.84.86-4.3,1.23-.32.08-.62.18-1,.24-1.21.24-1.64.11-2-.48a3.17,3.17,0,0,1-.21-.41c-.17-.47.27-.92,1.09-1.18,2.47-.79,5.08-1.43,7.71-2.16,1.94-.53,3.89-1.09,5.8-1.75Z"/><path class="cls-1" d="M118.52,310l2.9-.85,1.46-.41.17,0h.09s.06-.09.1-.13c.26-.55.52-1.32.81-2,1-2.34,2.1-4.7,3.11-7.07.45-1.05.84-2.13,1.2-3.21a28.45,28.45,0,0,1,1.5-4.06c.09-.2.24-.14.44-.14a1,1,0,0,1,.67.46,2.54,2.54,0,0,1,.39,2.21,61.88,61.88,0,0,1-3.39,8.33c-.82,1.62-1.39,3.4-2.12,5.1l-.69,1.54a1.6,1.6,0,0,1-.31.52c0,.08-.16.09-.19.21l-.26.13a3.49,3.49,0,0,1-.57.2l-.42.12-2.89.86-3.57,1.1-5.43,1.66c-1.39.44-2.74,1-4.16,1.38a9.29,9.29,0,0,1-.94.27c-1.19.27-1.62.13-2-.45a3.17,3.17,0,0,1-.21-.41c-.17-.47.26-.92,1-1.19,2.36-.82,4.87-1.59,7.43-2.39L118.5,310Z"/><path class="cls-1" d="M123.69,316.84l2.79-.75,1.4-.38.7-.19.23,0,.16,0h0l.12,0a1.17,1.17,0,0,0,0-.11l0-.12.17-.43c.95-2.24,1.89-4.54,2.79-6.83.39-1,.7-2.07,1-3.12a18.76,18.76,0,0,1,1.24-3.93.15.15,0,0,1,.2-.09c.1,0,.21,0,.34,0a1.29,1.29,0,0,1,.93.42,2.42,2.42,0,0,1,.85,2.22,45.43,45.43,0,0,1-2.93,8.11,20,20,0,0,0-1,2.44l-.43,1.27-.23.63-.32.84a2,2,0,0,1-1.29,1.33l-4.68,1.33-3.44,1c-1.73.51-3.5,1-5.23,1.5-1.34.41-2.62,1-4,1.39-.3.09-.59.21-.9.28-1.15.27-1.58.08-1.92-.7a3.6,3.6,0,0,1-.22-.54,1.27,1.27,0,0,1,1-1.49c2.21-.92,4.59-1.64,7-2.38l5.52-1.64Z"/><path class="cls-1" d="M102.14,310.23c.27-.45.54-.89.78-1.35.09-.17.11-.37.21-.53.33-.59.7-1.17,1-1.78a3.26,3.26,0,0,0,.25-.86c.07-.38,0-.8.38-1.08s2.43.82,2.32,1.25A4.86,4.86,0,0,1,106,308a4.83,4.83,0,0,0-.61,1.35c-.23.49-.48,1-.74,1.45-.15.3-.31.6-.47.89a14.19,14.19,0,0,0-.66,1.36,6.54,6.54,0,0,0-.2,1.2c0,.08,0,.18,0,.27a.27.27,0,0,1-.3.22,2,2,0,0,1-.7-.19l-.37-.15a1.72,1.72,0,0,1-.88-.81,3.52,3.52,0,0,1,.37-2c.2-.47.46-.91.68-1.38Z"/><path class="cls-1" d="M115.65,311.86c-1,.25-2,.5-3,.77-.37.1-.72.26-1.1.35-1.32.29-2.67.55-4,.8-.6.12-1.19.27-1.77.44a5.32,5.32,0,0,1-2.34.34c-.25-.05-.27-.61-.14-1.19s.38-1.18.77-1.27a35.76,35.76,0,0,1,4.36-.88,14.82,14.82,0,0,0,2.68-.84c1-.32,2-.59,3-.89L116,309c1-.28,1.92-.5,2.86-.81.74-.22,1.43-.61,2.18-.87a4.2,4.2,0,0,1,.5-.17c.64-.13.88,0,1.09.74a3.94,3.94,0,0,1,.14.49,1.19,1.19,0,0,1-.45,1.29,14.33,14.33,0,0,1-3.68,1.45l-2.94.84Z"/><path class="cls-1" d="M126.39,296.54l1.52-4.05c.07-.14,0-.25.13-.4l.1-.21c0-.07.1-.22,0-.18l-.34,0-.26,0-.15,0a1.26,1.26,0,0,0-.22,0l-1.53.33c-.86.18-1.7.42-2.53.67a12.37,12.37,0,0,1-3.24.78c-.7,0-.4-2.27.83-2.64,1.08-.32,2.17-.61,3.26-.86.55-.13,1.1-.24,1.65-.35l.83-.16a1,1,0,0,0,.22,0l.38-.09.73-.16c.42-.11.83-.21,1.26-.34l.63-.13a1.68,1.68,0,0,1,.46,0l.21,0,.13.07.13.07.07,0h0s-.26.29-.14.15h0l0,0,0,0c.4.18.45.92.17,1.85-.18.61-.38,1.23-.57,1.82l-.41,1.2-.78,2.18-1,2.67c-.47,1.35-1,2.69-1.39,4.05-.32,1.06-.49,2.14-.73,3.22-.06.23-.09.47-.15.71-.25.86-.5,1.08-1.19,1a3.59,3.59,0,0,1-.47,0c-.51-.08-.79-.57-.72-1.23a28.31,28.31,0,0,1,1.42-5.9c.47-1.46,1-2.9,1.49-4.35Z"/><path class="cls-1" d="M107.92,317.07c.27-.44.54-.89.79-1.35.09-.17.1-.36.2-.53.33-.58.7-1.17,1-1.78a2.78,2.78,0,0,0,.25-.85c.07-.38,0-.8.39-1.09s2.42.83,2.32,1.26a4.93,4.93,0,0,1-1.1,2.14,4.75,4.75,0,0,0-.6,1.34c-.23.49-.49,1-.74,1.46-.16.29-.32.59-.47.89a11.43,11.43,0,0,0-.67,1.36,7.39,7.39,0,0,0-.2,1.19,1.17,1.17,0,0,1,0,.27.27.27,0,0,1-.3.23,1.94,1.94,0,0,1-.69-.19l-.38-.15a1.73,1.73,0,0,1-.88-.82,3.53,3.53,0,0,1,.38-2c.2-.46.45-.91.67-1.37Z"/><path class="cls-1" d="M121.44,318.71c-1,.24-2,.5-3,.77-.37.09-.72.26-1.09.34-1.33.3-2.68.55-4,.8-.59.12-1.19.27-1.77.45a5.15,5.15,0,0,1-2.34.33c-.25,0-.27-.61-.14-1.19s.39-1.18.78-1.26a35.2,35.2,0,0,1,4.35-.89,14.13,14.13,0,0,0,2.69-.83c1-.33,2-.59,3-.89l1.88-.53c.95-.28,1.93-.49,2.87-.8.73-.23,1.42-.61,2.17-.87a3,3,0,0,1,.5-.18c.64-.12.88,0,1.09.75.05.16.11.32.15.48a1.21,1.21,0,0,1-.46,1.29,14.26,14.26,0,0,1-3.67,1.45l-3,.84Z"/><path class="cls-1" d="M132.17,303.38l1.52-4.05c.07-.13.06-.24.13-.39l.11-.22c0-.06.1-.21,0-.17l-.34,0-.26,0h-.14l-.23,0-1.53.33c-.86.19-1.7.43-2.53.68a12.81,12.81,0,0,1-3.23.78c-.71,0-.4-2.27.82-2.65s2.17-.61,3.27-.86l1.64-.35.83-.15.23,0,.37-.09.73-.17c.42-.1.83-.21,1.26-.34l.63-.13a2.09,2.09,0,0,1,.46,0l.21,0,.14.07.13.07.06,0h0l-.14.15h0l0,0,0,0c.4.17.45.92.17,1.85-.17.6-.37,1.23-.56,1.82l-.42,1.2-.78,2.17-1,2.67c-.48,1.36-1,2.7-1.4,4.06-.31,1.06-.49,2.14-.73,3.21,0,.24-.08.48-.15.71-.25.87-.5,1.09-1.19,1.05a3.7,3.7,0,0,1-.47,0c-.51-.09-.79-.57-.72-1.24a28.46,28.46,0,0,1,1.42-5.9c.47-1.45,1-2.89,1.5-4.34Z"/><path class="cls-1" d="M239.78,396.88l-2.61-1.17-1.66-.77c-.28-.12-.5-.26-.74-.39s-.11-.15-.17-.22-.09-.14-.06-.21a5.38,5.38,0,0,0,.07-.68v-.31l-.73,0h0v0l0-.07.08-.15.35-.59.17-.29s.09,0,.17-.07l.25-.07.48-.15,2.62-.8.65-.2.33-.1.18-.06.66-.25c.89-.33,1.78-.65,2.67-1,1.54-.6,3-1.31,4.58-1.95,5.4-2.27,10.76-4.71,16.08-7.21,2.36-1.11,4.71-2.29,7-3.46a84.53,84.53,0,0,1,9.1-4.23c1-.36,1,.1.41.87a12.05,12.05,0,0,1-3.56,2.77c-6,3.11-12.11,6.14-18.4,8.91-3.76,1.65-7.57,3.6-11.44,5.29-1.36.6-2.74,1.16-4.12,1.72l-2.1.79a1.86,1.86,0,0,1-.33.11l-.21.07-.43.13c-.32.11-.76.17-1,.29.28.15.59.3.91.45l.94.44,1.95.87,3.9,1.71c3.94,1.72,7.88,3.48,11.82,5.13,3.06,1.28,6.12,2.4,9.17,3.63.67.27,1.33.52,2,.81,2.48,1.09,3.19,1.62,3.44,2.45a2.74,2.74,0,0,1,.16.57c0,.57-1.15.49-3-.16-5.57-1.88-11.23-4.34-16.93-6.77l-12.71-5.54Z"/><path class="cls-1" d="M248.29,447.87c1.92.79,3.88,1.57,5.82,2.31.71.26,1.45.46,2.16.72,2.51.92,5.06,1.79,7.63,2.65l3.43,1.11a25.7,25.7,0,0,1,4.31,1.61c.43.22.24.55-.26.77a3.49,3.49,0,0,1-2.18.17L264.71,456c-1.49-.41-2.95-1-4.43-1.52-1.76-.68-3.68-1.12-5.52-1.74-2-.68-4-1.43-6-2.17l-3.66-1.43c-1.84-.73-3.66-1.54-5.48-2.31-1.41-.6-2.85-1.08-4.26-1.72-.3-.15-.61-.27-.91-.45-1.12-.6-1.31-1.08-1.21-1.72a2,2,0,0,1,.08-.44c.15-.44.79-.52,1.65-.26l1.89.68,1.86.8,3.79,1.66c1.9.82,3.83,1.64,5.78,2.4Z"/><path class="cls-1" d="M305.42,446.26s21.11-3,25.79-7.92c1.93-2-2.46-5-7.28-4.08v2.21Z"/><path class="cls-1" d="M208.85,261.83l3.16.63a1.67,1.67,0,0,0,2-1.14,1.65,1.65,0,0,0-1.13-2l-3.16-.63a1.67,1.67,0,0,0-2,1.14,1.65,1.65,0,0,0,1.13,2Z"/><path class="cls-1" d="M295.14,259.2l2.52-2.53a1.65,1.65,0,0,0,0-2.3,1.66,1.66,0,0,0-2.3,0l-2.52,2.53a1.65,1.65,0,0,0,0,2.3,1.66,1.66,0,0,0,2.3,0Z"/><path class="cls-1" d="M275.31,280.79v2.84a1.63,1.63,0,0,0,3.25,0v-2.84a1.63,1.63,0,1,0-3.25,0Z"/><path class="cls-1" d="M243.35,293.62a6.41,6.41,0,0,1,1.88-1.64,1.63,1.63,0,0,0-1.64-2.81,9.71,9.71,0,0,0-2.54,2.15,1.66,1.66,0,0,0,0,2.3,1.64,1.64,0,0,0,2.3,0Z"/><path class="cls-1" d="M241.36,261.41l.32.31a1.62,1.62,0,1,0,2.3-2.29l-.32-.32a1.65,1.65,0,0,0-2.3,0,1.66,1.66,0,0,0,0,2.3Z"/><path class="cls-1" d="M222.42,233.15l.31.31a1.63,1.63,0,0,0,2.3-2.3l-.32-.31a1.62,1.62,0,1,0-2.29,2.3Z"/><path class="cls-1" d="M279.35,316.36a5.72,5.72,0,0,0,1.36-2.3,1.64,1.64,0,0,0-1.13-2,1.66,1.66,0,0,0-2,1.14c0,.06-.07.24,0,.08a2.64,2.64,0,0,1-.2.37s-.17.26-.11.19-.21.21-.21.22a1.65,1.65,0,0,0,0,2.3,1.66,1.66,0,0,0,2.3,0Z"/><path class="cls-1" d="M196.84,305.22l-1.27,1.26a1.63,1.63,0,0,0,2.3,2.3l1.27-1.27a1.62,1.62,0,1,0-2.3-2.29Z"/><path class="cls-1" d="M319.74,302.76l1.26,1.9a1.67,1.67,0,0,0,2.23.58,1.64,1.64,0,0,0,.58-2.22l-1.26-1.9a1.67,1.67,0,0,0-2.23-.58,1.65,1.65,0,0,0-.58,2.22Z"/><path class="cls-1" d="M262.24,237.25a16.72,16.72,0,0,1-9.26-.19,22.89,22.89,0,0,1-3.12-1.06,40.61,40.61,0,0,1-9.5-6.14c-1.28-1.06-2.55-2.14-3.76-3.25a34.42,34.42,0,0,1-4.36-4.59c-.79-1.05,1.18-.55,2.91,1a85.42,85.42,0,0,0,9.75,8,29.18,29.18,0,0,0,6.83,3.38,16.55,16.55,0,0,0,8.06,1,11.72,11.72,0,0,0,4.61-1.78,18.25,18.25,0,0,0,5.16-5.72,36.7,36.7,0,0,0,2.66-5.46c.16-.42.33-.83.49-1.24.64-1.54,1.05-1.93,1.81-2a2.32,2.32,0,0,1,.52,0c.53,0,.69.86.36,2.09A33.89,33.89,0,0,1,270,231.69a18.46,18.46,0,0,1-3.33,3.41,14.52,14.52,0,0,1-4.37,2.21Z"/><path class="cls-1" d="M392.28,160.05l-3.51-.44-1.75-.22-2.56-.3-1-.52c-.19,0-.26-.28-.3-.43a1.61,1.61,0,0,1,0-.54,7.6,7.6,0,0,1,1.18-2.56c.7-1.12,1.36-2.23,2.09-3.3,2.51-3.8,5.18-7.47,7.81-11.16,1.18-1.63,2.3-3.31,3.39-5,1.42-2.13,2.79-4.3,4.34-6.31.45-.63.63-.45.62.32a8.7,8.7,0,0,1-.2,1.52,6.33,6.33,0,0,1-.7,1.94c-.64,1.16-1.28,2.32-2,3.44s-1.43,2.21-2.16,3.3c-1.46,2.18-3,4.3-4.64,6.39-1.9,2.52-3.76,5.23-5.51,7.92l-.79,1.22-.62,1a4.49,4.49,0,0,0-.27.49.32.32,0,0,0,0,.14s.08,0,.12,0l.27,0,.57.07,1.19.13,2.37.25c2.17.23,4.34.47,6.51.67,3.29.31,6.59.6,9.86.69,2.55.08,5-.09,7.54-.18l1.64-.1c2.06,0,2.72.08,3.2.69a3,3,0,0,1,.31.36c.23.34-.59.92-2.12,1.16a48.71,48.71,0,0,1-7,.6c-2.38,0-4.79-.09-7.19-.26-3.57-.25-7.14-.65-10.68-1Z"/><path class="cls-1" d="M431.75,226.11c0-.62-.06-1.24-.12-1.84,0-.23-.09-.44-.11-.66a16.42,16.42,0,0,0-.24-2.34,4.14,4.14,0,0,0-.31-1,5.09,5.09,0,0,1-.48-1.21c-.05-.28,1.12-.54,1.44,0a6.62,6.62,0,0,1,.91,2.77c.05.59.28,1.14.37,1.71s.17,1.26.24,1.89l.12,1.15a16.21,16.21,0,0,0,.27,1.72,6.26,6.26,0,0,0,.51,1.23c0,.09.1.17.13.26.1.33,0,.48-.47.68l-.31.14a.78.78,0,0,1-.91-.16,5.18,5.18,0,0,1-.87-2.43c-.1-.62-.15-1.26-.22-1.88Z"/><path class="cls-1" d="M428.32,218.15a11.14,11.14,0,0,0-1.2-.35c-.15,0-.31,0-.46,0-.53-.12-1.08-.29-1.64-.4a3.14,3.14,0,0,0-.75,0,1.55,1.55,0,0,1-1-.08c-.19-.12.1-1.62.46-1.67a4.4,4.4,0,0,1,2,.17,6.34,6.34,0,0,0,1.23.13c.46.07.91.16,1.36.27l.84.22c.42.11.83.27,1.25.37s.69.07,1,.16c.08,0,.17,0,.23.07.24.17.23.37.07.77l-.1.26a1.2,1.2,0,0,1-.61.57,2.28,2.28,0,0,1-1.58,0c-.37-.1-.74-.23-1.14-.32Z"/><path class="cls-1" d="M404.29,452c-.1-2.43-.11-4.84,0-7.28a25.86,25.86,0,0,1,.15-2.74c.08-.44.16-.82.24-1.19l.25-1.12.51-2.26c.35-1.5.71-3,1.09-4.49.35-1.32.62-2.67,1-4A25.83,25.83,0,0,1,409.3,424c.25-.49.52-.3.68.25a5,5,0,0,1,0,2.39c-.71,3.39-1.41,6.78-2.24,10.22a29.11,29.11,0,0,0-.57,3.17l-.22,1.62c0,.5-.09,1-.11,1.51a66.21,66.21,0,0,0,.11,7c.1,1.43.2,3,.41,4.27a3.45,3.45,0,0,0,1.42,2.17,5.69,5.69,0,0,0,2.71,1,8.22,8.22,0,0,0,4.42-1c.29-.16.55-.36.85-.49,1.06-.61,1.44-.73,2.15-.35a5.42,5.42,0,0,1,.48.26c.47.31.35,1.08-.49,1.92a9.09,9.09,0,0,1-4.83,2.37,9.52,9.52,0,0,1-5.8-.7,6.68,6.68,0,0,1-3.45-3.54,9,9,0,0,1-.34-1.26c-.06-.36-.09-.65-.13-1l-.14-1.86Z"/><path class="cls-1" d="M160.82,457.25c-.86,1.93-1.77,3.84-2.77,5.72-.37.69-.68,1.4-1.09,2.06a54.51,54.51,0,0,1-4.57,6.79,22.44,22.44,0,0,1-2.55,2.71c-.29.27-.64.5-1,.76a10.58,10.58,0,0,1-1.09.62,4.59,4.59,0,0,1-1.25.36l-.66.07-.65-.08c-.56-.1-.36-.51.05-.94a6.22,6.22,0,0,1,1.49-1.15,9.55,9.55,0,0,0,3.08-2.55c.94-1.08,1.82-2.29,2.75-3.5a44.06,44.06,0,0,0,2.83-4.88c1-1.81,1.88-3.68,2.71-5.59.51-1.18,1-2.36,1.5-3.56.73-1.81,1.46-3.63,2.11-5.47.53-1.42.9-2.86,1.44-4.27.12-.31.22-.62.36-.92a2.91,2.91,0,0,1,.69-1.14,1.14,1.14,0,0,1,.65-.35,1.77,1.77,0,0,1,.3-.06c.28,0,.35.57.25,1.49a59.91,59.91,0,0,1-2.29,8c-.7,2-1.47,4-2.27,5.93Z"/><path class="cls-1" d="M157.45,476.71c-1.44.05-2.88.13-4.33.23-.53,0-1.05.15-1.59.18-1.87.1-3.77.17-5.66.23-.84,0-1.69.1-2.53.14a8.72,8.72,0,0,1-3.29-.19c-.33-.1-.21-.56.12-1a2,2,0,0,1,1.41-.87c2-.05,4.14-.21,6.31-.19a38.53,38.53,0,0,0,4-.41c1.47-.15,2.94-.27,4.41-.37.91-.06,1.83-.11,2.74-.15,1.38-.07,2.78-.05,4.17-.07,1.08,0,2.15-.12,3.27,0a5.94,5.94,0,0,1,.73,0,1.49,1.49,0,0,1,.92.4.92.92,0,0,1,.18.32,2.12,2.12,0,0,1,0,.44c0,.14,0,.26,0,.37a1.3,1.3,0,0,1-1.13.86c-1.74,0-3.55,0-5.45,0-1.41,0-2.84.05-4.28.16Z"/><path class="cls-1" d="M416.69,459.36c-.41.31-.84.66-1.32,1a5.84,5.84,0,0,1-1.86.93,2.69,2.69,0,0,1-1.17,0,4.61,4.61,0,0,1-.82-.28c-.48-.22-.88-.45-1.28-.66a8,8,0,0,0-1.66-.75c-.09,0-.14-.05-.19,0-2.28.49-4.64.77-6.92,1.08-1.1.15-2.21.35-3.28.58-1.39.28-2.74.65-4.12.87-.43.06-.49-.29-.24-.75a2.88,2.88,0,0,1,1.65-1.28,48.26,48.26,0,0,1,8.64-1.55,22.56,22.56,0,0,0,3.81-.82,2.59,2.59,0,0,1,1.11,0,4.15,4.15,0,0,1,.84.27c.69.29,1.26.63,1.83.91a3.31,3.31,0,0,0,1.32.46,4.5,4.5,0,0,0,1.34-.78,16.6,16.6,0,0,1,3.14-2.19,3.09,3.09,0,0,1,.43-.14l.34-.08.66-.14,1.33-.32q1.32-.35,2.64-.75c1.35-.41,2.66-1,4.07-1.29a8.82,8.82,0,0,1,.92-.22c1.17-.17,1.59.06,1.88.43a1.56,1.56,0,0,1,.2.27c.14.29-.29.63-1.06,1-2.31.91-4.7,1.65-7.3,2.39-1,.26-1.94.51-2.93.72a1.84,1.84,0,0,0-.44.12,2.92,2.92,0,0,0-.45.24c-.33.22-.7.5-1.07.8Z"/><path class="cls-1" d="M236.94,154a4.43,4.43,0,0,1-1.23,1.84,4.32,4.32,0,0,1-1.86.94,7.94,7.94,0,0,1-3.25,0,8,8,0,0,1-2.19-.62,15.06,15.06,0,0,1-5.41-4.77c-.62-.82-1.25-1.62-1.8-2.48a10.71,10.71,0,0,1-1.73-3.52c-.09-.4.31-.49.83-.35a3,3,0,0,1,1.58,1c.69,1,1.48,1.92,2.25,2.84s1.56,1.82,2.37,2.69a7.91,7.91,0,0,0,3.52,2.2c1.24.45,3.17.47,3.74-.14a2.7,2.7,0,0,0,.49-2.17,17,17,0,0,0-1.16-4.48c-.45-1.16-1.13-2.21-1.66-3.4a6.44,6.44,0,0,1-.35-.8,1.63,1.63,0,0,1-.08-1.23,1.23,1.23,0,0,1,.74-.66,3.63,3.63,0,0,1,.52-.19,1.58,1.58,0,0,1,1.53.7,25.83,25.83,0,0,1,2.79,6.23,18.07,18.07,0,0,1,.64,2.85A7.85,7.85,0,0,1,237,154Z"/><path class="cls-1" d="M256.4,147.59a6.29,6.29,0,0,1-2.48,2.45,6,6,0,0,1-1.6.57,5.83,5.83,0,0,1-.79.12l-.39,0a3.37,3.37,0,0,1-.54,0,4.79,4.79,0,0,1-2.4-.88,15.06,15.06,0,0,1-4.17-5.45c-.44-.87-.89-1.73-1.27-2.61a10.17,10.17,0,0,1-1.07-3.54c0-.39.36-.42.84-.22a2.68,2.68,0,0,1,1.33,1.18,50.57,50.57,0,0,0,3.45,5.88,7.88,7.88,0,0,0,2.84,2.55l.19.1.16,0a.62.62,0,0,0,.25.06h.17l.24,0a3.12,3.12,0,0,0,.46-.09,2.8,2.8,0,0,0,1.48-.87,4.72,4.72,0,0,0,1-2.22,13.12,13.12,0,0,0,.12-4.3,26.72,26.72,0,0,0-.83-3.37,4,4,0,0,1-.19-.76c-.11-1,.09-1.37.84-1.65a3.45,3.45,0,0,1,.51-.18,1.34,1.34,0,0,1,1.43.81,11.29,11.29,0,0,1,1.17,3.08,14.3,14.3,0,0,1,.45,3.51,12.25,12.25,0,0,1-1.15,5.84Z"/><path class="cls-1" d="M240.45,143.43a20,20,0,0,1-1.7-9.17,15.15,15.15,0,0,1,.28-1.77,8.56,8.56,0,0,1,.53-1.72,12.35,12.35,0,0,1,1.58-2.68,12.7,12.7,0,0,1,1-1.19c.38-.35.75-.71,1.15-1a17.71,17.71,0,0,1,5.23-2.82,23.8,23.8,0,0,1,5.06-1.16,16.37,16.37,0,0,1,3.36-.07,9,9,0,0,1,3.23,1.06c.63.36.27.83-.45,1.21a6.48,6.48,0,0,1-2.79.73,17.41,17.41,0,0,0-5.64.41,20,20,0,0,0-5.41,2.08,8.24,8.24,0,0,0-2.55,2.33,10.37,10.37,0,0,0-1.52,3.14,13,13,0,0,0,.54,7.83,40.18,40.18,0,0,0,2,4.83,52.1,52.1,0,0,0,3.91,7,35.73,35.73,0,0,0,4,4.6l.9,1a5.74,5.74,0,0,1,1,1.45,2,2,0,0,1,.09,1.05,3.86,3.86,0,0,1-.07.41c-.06.19-.27.22-.64.15a3.46,3.46,0,0,1-1.43-.61,22.82,22.82,0,0,1-2.31-1.8,26.11,26.11,0,0,1-2-2.19,38.88,38.88,0,0,1-3.44-5c-.77-1.29-1.46-2.64-2.1-3.94s-1.31-2.67-1.9-4.08Z"/><path class="cls-1" d="M213,139.37c3.14-3.77,7.65-6.22,12.65-5.26,2,.39,2.92-2.74.87-3.13-6.14-1.19-11.88,1.38-15.82,6.09-1.33,1.6,1,3.91,2.3,2.3Z"/><path class="cls-1" d="M251.4,171.83a4.67,4.67,0,0,0,1.49,4,1.65,1.65,0,0,0,2.78-1.15,12.16,12.16,0,0,0,0-1.91,1.68,1.68,0,0,0-1.62-1.63,1.64,1.64,0,0,0-1.63,1.63,12.16,12.16,0,0,1,0,1.91l2.77-1.15c-.05-.05-.43-.47-.29-.27-.05-.08-.26-.57-.18-.33a1.81,1.81,0,0,1-.07-1.07,1.64,1.64,0,0,0-1.63-1.62,1.66,1.66,0,0,0-1.62,1.62Z"/><path class="cls-1" d="M315.93,438.46a17.15,17.15,0,0,0,3.66-2.35,4,4,0,0,0,1.06-1.4,8.58,8.58,0,0,0,.31-2c.09-1.13.08-2.27.14-3.41.18-4,.33-8.11.37-12.17,0-1.8-.05-3.61-.09-5.39-.05-2.3-.15-4.6-.07-6.9,0-.71.36-.64.74,0a7,7,0,0,1,1,3,94.19,94.19,0,0,1,.33,14.16c-.12,2.83,0,5.79-.1,8.71,0,.8-.08,1.61-.13,2.42,0,.41-.07.81-.12,1.25l-.12.69c-.07.24-.16.49-.25.73a6.59,6.59,0,0,1-1.7,2.18,16,16,0,0,1-2,1.51,44.83,44.83,0,0,1-5.34,2.73c-2.72,1.24-5.5,2.33-8.14,3.6a56.84,56.84,0,0,0-5.84,3.29l-1.19.82c-1.48,1-2,1.23-2.7,1a3.51,3.51,0,0,1-.49-.15c-.45-.23-.15-1.1.91-2.09,3.21-2.86,7.21-4.76,11.16-6.41,2.94-1.24,5.9-2.42,8.63-3.82Z"/></g></svg>