<svg xmlns="http://www.w3.org/2000/svg" width="520" height="520" viewBox="0 0 520 520"><defs><style>.cls-1,.cls-2{fill:#231f20;}.cls-2{opacity:0.4;}.cls-3{fill:#221f1f;}</style></defs><title>Notioly New</title><g id="n.135_Ecology" data-name="n.135 Ecology"><path class="cls-1" d="M158.48,266.66c4.15-1,8.27-2.2,12.33-3.56,1.48-.5,2.94-1.05,4.39-1.6.64-.25,1.28-.5,1.9-.76.3-.14.63-.27.89-.42a1.13,1.13,0,0,0,.34-.23l.37-.31a20.92,20.92,0,0,0,2.68-3c1.65-2.17,3.14-4.5,4.59-6.84,1.28-2.09,2.5-4.23,3.69-6.35,1.51-2.74,3-5.49,4.75-8.11.53-.82.63-.61.4.21a21.94,21.94,0,0,1-1.55,3.89q-2.23,4.23-4.68,8.37c-1.63,2.76-3.32,5.51-5.23,8.15a31.52,31.52,0,0,1-3.85,4.6l-.62.53c-.29.16-.5.28-.74.39-.46.22-.92.42-1.38.61-.93.38-1.86.75-2.79,1.08-4.09,1.48-8.25,2.77-12.45,3.9-2.58.68-5.19,1.31-7.82,1.8a114.66,114.66,0,0,1-12,1.52c-3.12.24-6.18.44-9.28.48-.68,0-1.34,0-2,0-2.55-.06-3.36-.24-3.88-.62a3.42,3.42,0,0,1-.34-.22c-.23-.19.82-.42,2.66-.43a168,168,0,0,0,17-.89,94.55,94.55,0,0,0,12.7-2.23Z"/><path class="cls-1" d="M182.43,296c-.18-1.5-.36-3-.52-4.5l-.2-1.64q-.26-2.91-.36-5.82c0-.87-.08-1.73-.09-2.6a13.73,13.73,0,0,1,.2-3.32c.07-.34.29-.26.5.05a2.81,2.81,0,0,1,.41,1.45c0,1.09.06,2.19.13,3.29s.08,2.2.12,3.33c0,1.34.27,2.72.44,4.08s.37,3,.59,4.48l.42,2.76c.22,1.39.45,2.79.74,4.16.23,1.06.54,2.08.82,3.12.07.23.14.45.19.68.2.86.13,1.17-.16,1.43a1.51,1.51,0,0,1-.2.17c-.21.13-.54-.16-.79-.77a33,33,0,0,1-1.52-5.83c-.29-1.49-.53-3-.75-4.51Z"/><path class="cls-1" d="M223,268c1.11-.41,2.21-.81,3.34-1.19.4-.14.8-.32,1.21-.45a39.77,39.77,0,0,1,4.46-1.1c.66-.15,1.34-.26,2-.39l1.29-.2a6.38,6.38,0,0,1,1.31,0c.53.05-.11,1.29-1,1.43l-5,.92a19.65,19.65,0,0,0-3,1c-1.09.4-2.18.81-3.27,1.24l-2,.81c-1,.44-2.06.8-3.06,1.24-.78.33-1.52.73-2.29,1.08a3,3,0,0,1-.52.22c-.67.19-.91.16-1.16-.11a1.45,1.45,0,0,1-.17-.19c-.14-.21.05-.52.47-.81a31.73,31.73,0,0,1,4.09-2.16c1.05-.51,2.16-.92,3.25-1.36Z"/><path class="cls-1" d="M231.47,464.29a1.08,1.08,0,0,1-1.22-.22.42.42,0,0,1,0-.5l.59-.4c.06,0,.6-.25,1.18-.59s1.21-.76,1.54-1c.61-.42,1.25-.79,1.89-1.19a44.06,44.06,0,0,0,3.73-2.64,9.75,9.75,0,0,1,.84-.59,15.86,15.86,0,0,0,2.72-2.18,1.85,1.85,0,0,0,.38-.45c.07-.14.66-.76,1.25-1.4l1.28-1.43a11.73,11.73,0,0,0,1.86-2.22c.07-.11.1-.25.23-.32a1.14,1.14,0,0,0,.44-.73,4.62,4.62,0,0,0,.21-1.06c0-.09,0-.19,0-.28a1.36,1.36,0,0,1,.1-.31.23.23,0,0,1,.34-.15c.14.16.22,0,.3-.1a.18.18,0,0,1,.1,0,.76.76,0,0,1,.33.43,3.78,3.78,0,0,1,.25,1.12,4.94,4.94,0,0,1-.21,1.82s-.11.28-.27.66-.43.85-.71,1.32a23.77,23.77,0,0,1-1.37,2,2.58,2.58,0,0,1-.5.49s-.55.67-1.1,1.27-1.11,1.18-1.16,1.22A6.74,6.74,0,0,1,243,458a1.14,1.14,0,0,0-.31.23,22.78,22.78,0,0,1-2.65,1.94l-1.38.95c-.09.06-.19.09-.28.14a3.47,3.47,0,0,0-.33.18c-1.11.73-2.3,1.33-3.46,2a20.48,20.48,0,0,1-2.05.7C232.35,464.25,231.62,464.2,231.47,464.29Z"/><path class="cls-2" d="M337.29,417.63a6,6,0,0,1-8.82,6.88,5.91,5.91,0,0,1,2.55-11A6.12,6.12,0,0,1,337.29,417.63Z"/><path class="cls-1" d="M236.81,317.43c-.21.48-7.18-2.09-6.48-4.82,0,0,.09-1.8,3.22,0l3.13,1.8Z"/><path class="cls-1" d="M313.9,361.5l-57.23-35.11.31,4.26,54.63,32.49a9.07,9.07,0,0,0,2.33-1A.39.39,0,0,0,313.9,361.5Z"/><path class="cls-1" d="M385.84,404c-.58,0,.13,3.36.13,3.36L418,426.65s2.69,0,2.2-.57S387.44,404,385.84,404Z"/><path class="cls-1" d="M281,416.92a47.71,47.71,0,0,0,7.8,27.56l.72,1.11c.26.36.54.71.81,1.06l1.64,2.1,1.79,1.95a22.37,22.37,0,0,0,1.87,1.9A52.13,52.13,0,0,0,311.19,463l1.07.47,1.12.39,2.22.76c1.5.48,3,.81,4.55,1.21s3.09.6,4.66.77l2.34.24,1.18.11,1.18,0a55,55,0,0,0,16.58-1.9l2.57-.74,2.5-.92,1.26-.47,1.21-.55,2.43-1.11L358.4,460l1.17-.64c.38-.22.74-.48,1.12-.72l2.23-1.45c.72-.51,1.41-1.07,2.13-1.6,1.76-1.33,1.87-.8.67.76a16.55,16.55,0,0,1-2.8,2.9c-.64.54-1.36,1.1-2.14,1.68s-1.7,1-2.63,1.55c-.41.23-.82.47-1.24.68l-1.29.58c-.86.38-1.71.79-2.58,1.15l-2.66,1c-.45.15-.89.33-1.34.46l-1.36.38c-.91.24-1.81.51-2.73.73l-2.77.55-1.39.26-1.4.17-2.8.33-2.83.13-1.41.05-1.41,0-2.83-.09-2.81-.29-1.41-.15-1.39-.25-2.78-.51-2.74-.73-1.37-.36-1.34-.48c-1.06-.4-2.16-.7-3.2-1.18l-3.14-1.38-3.05-1.64a12.89,12.89,0,0,1-1.48-.89l-1.46-.95a50.41,50.41,0,0,1-10.5-9,49.2,49.2,0,0,1-12-27.45,51.64,51.64,0,0,1,1.44-18.53,50.67,50.67,0,0,1,14.14-24,49.44,49.44,0,0,1,18.33-11.12c.38-.13.74-.28,1.12-.4l1.14-.32,2.29-.62c5.81-1.25,7.76-1,9-.7a4.69,4.69,0,0,1,.84.26c.29.17-.16.39-1.19.62q-.78.18-2,.36l-1.29.19-1.46.3a52.83,52.83,0,0,0-17.74,6.69,49.06,49.06,0,0,0-14.1,13.3,49.84,49.84,0,0,0-9,27.43Z"/><path class="cls-2" d="M359.35,329c-.43-.56-5-5-1.76-5.17S360.31,327.35,359.35,329Z"/><path class="cls-2" d="M326.33,311.76s-8-10.7-6-11.36C323,299.52,328.41,303.88,326.33,311.76Z"/><path class="cls-1" d="M102.22,454.28a1.5,1.5,0,0,1-.55-.87c0-.11.11-.22.2-.16l.57.37,2.3,1.94c.55.44,1.07.91,1.61,1.35,1.08.94,2.22,1.79,3.36,2.62.26.18.51.37.75.56a15.06,15.06,0,0,0,2.71,1.71,1.77,1.77,0,0,0,.49.21c.14,0,.85.36,1.59.61l1,.37.61.16a5.88,5.88,0,0,0,1.28.33,5.29,5.29,0,0,0,1.31.12,1.23,1.23,0,0,1,.38,0,1.6,1.6,0,0,0,.81-.05l.43-.07-.25.17a.73.73,0,0,0,.19-.37.86.86,0,0,0,0-.44.16.16,0,0,1,.23-.16c.15.13.16-.05.22-.12l.07-.05a1.22,1.22,0,0,1,.32.48,1.52,1.52,0,0,1-.19,1.35l-.09.13-.2.07a13.53,13.53,0,0,1-1.32.44,6.22,6.22,0,0,1-.63.05,6.9,6.9,0,0,1-1.36,0,12.4,12.4,0,0,1-2.19-.37,2.5,2.5,0,0,1-.61-.24s-.77-.24-1.45-.55-1.35-.63-1.39-.67a8.23,8.23,0,0,1-1.47-1,2,2,0,0,0-.28-.21,22.25,22.25,0,0,1-2.38-1.81c-.39-.33-.8-.64-1.18-1a1.8,1.8,0,0,1-.19-.2l-.25-.24c-.91-.78-1.75-1.63-2.64-2.43L102.8,455C102.67,454.87,102.35,454.38,102.22,454.28Z"/><path class="cls-1" d="M140.37,351.4a78.43,78.43,0,0,1-4.13,25.22s-4,11.69-4.9,12.26-18.17,10.46-24.49,20.51a47,47,0,0,1,6,9.73c2.8,5.74,11.81,17.67,20.81,14.94,0,0,23.77-18.69,29.23-30.95l2.09-4.56Z"/><path class="cls-1" d="M176.25,315.62c2.25,19.39,19.11,55.88,19.11,55.88,12.17,30.8,31.87,62.88,31.87,62.88l-7.49,5c-10.42,10.11-25.34,4.88-25.34,4.88-5.24-4-48.4-82.46-48.4-82.46-15.69-25.7-15.75-48.14-15.75-48.14S159.54,319.94,176.25,315.62Z"/><path class="cls-1" d="M200.65,120.16s5.91-8.58,12.33-4.53,9,12.56,11.1,10.72,1.16-22.84,7.88-27.44c0,0,3.4-6,7.63-5.38,0,0,24.84,16.86,43.29,11.47,0,0,20.73-3.79,22.57-23.39,0,0,2.05-24.72-23.92-28.5,0,0-21.37-3.06-35,7.74s-18.17,18.73-18.17,18.73-14.93-9.89-25.66-2.31c0,0-14.68,7.31-15.13,18.76S193.57,115.46,200.65,120.16Z"/><path class="cls-1" d="M243.1,173.94a24.34,24.34,0,0,1-5.8-1.21,25.41,25.41,0,0,1-5.29-2.58,29,29,0,0,1-3.45-2.49,39.47,39.47,0,0,1-8.84-11.75,56.14,56.14,0,0,1-2.66-5.94,21.38,21.38,0,0,1-1.72-8.16c.06-.9.41-.74.83-.05a13.79,13.79,0,0,1,1.5,3.29,55.16,55.16,0,0,0,6.62,14.73,29.14,29.14,0,0,0,6.8,7.22,23.41,23.41,0,0,0,9.81,4.48,17.42,17.42,0,0,0,6.63.11,18,18,0,0,0,4.78-1.66,22.33,22.33,0,0,0,4.2-2.88,28.64,28.64,0,0,0,5-6c.32-.48.61-1,.9-1.46,1.15-1.82,1.53-2.4,2.32-2.5a3.31,3.31,0,0,1,.5-.09c.47,0,.41,1-.31,2.51A28.9,28.9,0,0,1,254.76,171a20.82,20.82,0,0,1-5.57,2.42,17.24,17.24,0,0,1-6.09.53Z"/><path class="cls-1" d="M272.37,149.85a1.4,1.4,0,0,0,.29-.16c.07-.08.21-.18.24-.23a1.72,1.72,0,0,0,.33-.68,6.62,6.62,0,0,0,.18-2.13,9.94,9.94,0,0,0-.29-1.63,29.08,29.08,0,0,0-2.15-5.91c-.42-.87-.83-1.75-1.24-2.62a10.19,10.19,0,0,1-1.1-3.6c0-.4.25-.41.65-.18a3.75,3.75,0,0,1,1.27,1.23,47,47,0,0,1,3.17,6.69,34.19,34.19,0,0,1,1.56,4.58,11.47,11.47,0,0,1,.19,2.75,5,5,0,0,1-1,2.89,3.82,3.82,0,0,1-1.63,1.12,4.1,4.1,0,0,1-1.89.16,11.81,11.81,0,0,1-4.6-2.08c-1-.7-2.1-1.33-3.06-2.1-.21-.18-.43-.33-.63-.52a1.75,1.75,0,0,1-.64-.87,1.05,1.05,0,0,1,.05-.74c.05-.11.08-.24.13-.34.18-.33.72-.3,1.42,0,1.92,1,3.63,2.38,5.37,3.42,1.25.78,2.65,1.28,3.3.9Z"/><path class="cls-1" d="M226,125.59a4.71,4.71,0,0,1-.57,1.19,2.53,2.53,0,0,1-.7.68,2.19,2.19,0,0,1-1.11.34,2.55,2.55,0,0,1-.94-.17,3.65,3.65,0,0,1-.71-.36c-.11-.09-.26-.13-.34-.25l-.26-.34-.28-.39c-.73-1-1.41-2-2.1-3a21.71,21.71,0,0,0-4.55-5.16,7.6,7.6,0,0,0-4.34-1.51,8.4,8.4,0,0,0-4.07.74A7.4,7.4,0,0,0,202.9,120a10.3,10.3,0,0,0-1,8.36,9.32,9.32,0,0,0,4.71,5.93,18.14,18.14,0,0,0,9.88,1.7c1.05-.09,1,.36.15.92a7.94,7.94,0,0,1-4.86.94,16.16,16.16,0,0,1-5.6-1.59,11.75,11.75,0,0,1-4.55-3.89,13.14,13.14,0,0,1-2-5.59,12,12,0,0,1,.69-5.89,10.38,10.38,0,0,1,1.89-3.11,10.91,10.91,0,0,1,1.34-1.29c.25-.18.52-.34.78-.51a4.67,4.67,0,0,1,.81-.46l.86-.38.89-.27a10.91,10.91,0,0,1,1.81-.34c.61,0,1.21,0,1.83,0l.92.11a9.24,9.24,0,0,1,.91.21,12.93,12.93,0,0,1,6.32,4.56c1.61,1.94,2.93,4.07,4.34,6a.41.41,0,0,0,.19.18l.14.07s.09,0,.12,0,0,.07.17-.09a5.45,5.45,0,0,0,.56-1.81c.24-1.43.36-2.94.51-4.43a54.1,54.1,0,0,1,2.65-13.57A23.61,23.61,0,0,1,233,96.6a15.24,15.24,0,0,1,1.84-1.55,10.28,10.28,0,0,1,2.8-1.5,2.38,2.38,0,0,1,1.49-.09,2.79,2.79,0,0,1,.51.16c.4.28-.58,1-2.22,2.1a20.89,20.89,0,0,0-6,6.53,30.19,30.19,0,0,0-3.23,8.69A65.45,65.45,0,0,0,227,118l-.37,3.66a22.34,22.34,0,0,1-.66,3.91Z"/><path class="cls-1" d="M291.38,55A31.26,31.26,0,0,1,302,65a30,30,0,0,1,3.23,6.58,31.05,31.05,0,0,1,1,3.54l.28,1.83.13.91.05.92a24.48,24.48,0,0,1-1.61,10.58,25.49,25.49,0,0,1-5.06,7.93l-1.68,1.67-1.85,1.45a17,17,0,0,1-1.95,1.3,17.57,17.57,0,0,1-2,1.14,39.55,39.55,0,0,1-17.86,3.88,55.54,55.54,0,0,1-16-2.43,58.9,58.9,0,0,1-18.25-9.35c-1.67-1.32-1.25-1.43.51-.84a54.5,54.5,0,0,1,8.25,3.51,56,56,0,0,0,19.08,6.27,43.63,43.63,0,0,0,19.89-1.74,24.74,24.74,0,0,0,10.08-6.53,8.35,8.35,0,0,0,1-1.16l.92-1.22a8.31,8.31,0,0,0,.81-1.3l.76-1.32c.49-.9.82-1.87,1.24-2.79l.42-1.46a9.63,9.63,0,0,0,.38-1.47l.28-1.64c.1-.55.09-1.11.14-1.67a23.3,23.3,0,0,0,0-3.34c-.05-.56-.16-1.11-.23-1.66l-.13-.83c-.06-.28-.14-.55-.21-.82l-.42-1.63-.57-1.58a12,12,0,0,0-.66-1.56c-.25-.51-.47-1-.73-1.53a32.83,32.83,0,0,0-1.8-2.87,28.52,28.52,0,0,0-4.51-5.06,30.07,30.07,0,0,0-15.06-7,44.63,44.63,0,0,0-25.12,3.66,53.35,53.35,0,0,0-16.08,11.21c-1,1-1.94,2.08-2.9,3.17-3.44,4.12-4.53,5.44-5.71,6.08a7.77,7.77,0,0,1-.75.45c-.32.11-.25-.34.1-1.32a12,12,0,0,1,.83-1.78,22.28,22.28,0,0,1,1.41-2.33,54.4,54.4,0,0,1,31.08-21,44.56,44.56,0,0,1,14.57-1.17A35,35,0,0,1,291.4,54.9Z"/><path class="cls-1" d="M199.26,79.46A24.33,24.33,0,0,0,189.46,93a23.31,23.31,0,0,0-1,7.92,20.5,20.5,0,0,0,2.26,7.66,26.94,26.94,0,0,0,4,6c.49.6,1.08,1.09,1.6,1.65s1.13,1,1.75,1.46A17,17,0,0,0,202,120c.85.36.72.71-.23.9a6.1,6.1,0,0,1-4.49-1l-1.09-.74-1-.82a17.62,17.62,0,0,1-1.87-1.79,30.47,30.47,0,0,1-3.09-4.09,25.69,25.69,0,0,1-3.77-9.52c-.07-.53-.12-1.07-.16-1.6s0-1,0-1.56a29.88,29.88,0,0,1,.17-3.14,25.55,25.55,0,0,1,1.45-6.11,27.8,27.8,0,0,1,7.81-11.06,27,27,0,0,1,7.09-4.41,25,25,0,0,1,12.39-1.73A27.86,27.86,0,0,1,224.4,76c.63.33,1.29.59,1.89,1a9.1,9.1,0,0,1,2.26,1.69,2.11,2.11,0,0,1,.63,1.22,2.55,2.55,0,0,1,0,.53c-.09.49-1.15.15-2.73-.75A33.42,33.42,0,0,0,219,76.32a24,24,0,0,0-8.18-.92,22.52,22.52,0,0,0-11.53,4.11Z"/><path class="cls-1" d="M199,174.72a25.77,25.77,0,0,1,10.53-3.22,13.41,13.41,0,0,1,5.73.9,15.49,15.49,0,0,1,4.76,3.17,33.89,33.89,0,0,1,6.33,8.8,79.43,79.43,0,0,1,4.24,9.72,150.18,150.18,0,0,1,4.55,14.65c2.22,8.72,3.92,17.54,5.37,26.39s2.64,17.73,3.67,26.62c.92,7.9,1.78,15.84,2.54,23.68q.69,7.56,1.4,15.14a37.52,37.52,0,0,0,1.08,7.27A5.33,5.33,0,0,0,251,310.5a7.32,7.32,0,0,0,3.13,1.22c.73.15,1.27.21,1.62.3s.51.18.48.27-.22.19-.59.29a7,7,0,0,1-1.6.27c-.18,0-.36,0-.56,0l-.61,0c-.22,0-.44,0-.68-.05l-.73-.16a6.16,6.16,0,0,1-3.12-1.89,9.21,9.21,0,0,1-1.83-3.83,28.86,28.86,0,0,1-.7-4.29c-1.8-20.62-3.66-41.11-6.62-61.7a276.88,276.88,0,0,0-7.87-37.16,96.46,96.46,0,0,0-7.59-19.3,28.09,28.09,0,0,0-6.21-7.93,11.17,11.17,0,0,0-4.23-2.27,12.71,12.71,0,0,0-4.85-.24,30.16,30.16,0,0,0-11.51,4.74,79.16,79.16,0,0,0-10.14,7.79c-9.66,8.67-18.21,18.67-26.2,28.83-6.2,7.93-11.89,16-17.54,24.19L139.33,245c-2.35,3.36-3.91,5.56-5.1,7.05a16.64,16.64,0,0,1-2.74,2.81,11,11,0,0,1-1,.74c-.4.21-.19-.42.49-1.76a63.17,63.17,0,0,1,3.46-5.91c4.81-7.51,10-15.05,15.49-22.58s11.27-15,17.42-22.21a203.4,203.4,0,0,1,14.5-15.48c2.58-2.45,5.25-4.81,8.07-7a60.75,60.75,0,0,1,9-6Z"/><path class="cls-1" d="M209.81,273.11,209.3,272c-.1-.28-.16-.51-.25-.77l-.47-1.5c-.27-1-.49-2-.73-3l-.57-3-.48-3c-.21-1.47-.47-2.92-.65-4.38-.61-5.15-.93-10.32-1.31-15.47-.16-2.28-.38-4.57-.62-6.83-.16-1.45-.31-2.9-.47-4.35s-.25-2.9-.36-4.34c0-.9.31-.85.8-.15a10,10,0,0,1,1.41,3.75c.81,5.94,1.27,11.87,1.7,17.85.24,3.58.76,7.28,1.25,10.9a83.23,83.23,0,0,0,2.26,11.75l.46,1.45a5.21,5.21,0,0,0,.2.54l.19.44.1.25s0,.1.07.11l.12-.05.46-.25,1.74-1c3.28-1.88,6.64-3.68,10.08-5.25a46,46,0,0,1,8.24-3.16,15.8,15.8,0,0,1,2-.39,6.23,6.23,0,0,1,2.71.1,1.69,1.69,0,0,1,1.09.84,2.12,2.12,0,0,1,.24.51c.07.55-.87.65-2.42.88a31.58,31.58,0,0,0-7.14,1.91,74.72,74.72,0,0,0-7.24,3.14c-1.71.84-3.42,1.7-5.09,2.65l-2.51,1.43-.89.52a7.39,7.39,0,0,1-1.23.61.61.61,0,0,1-.53,0l-.22-.11-.1-.05-.06,0c0-.05-.14.4-.08.21h0l0,0-.79-.69-.36-.8Z"/><path class="cls-1" d="M191.74,268.63q1.23-1.92,2.32-3.95c.27-.49.46-1,.73-1.51.93-1.74,1.84-3.51,2.66-5.33.36-.8.68-1.63,1-2.44a22.44,22.44,0,0,1,1.32-3.12c.18-.31.46-.15.66.24a2.32,2.32,0,0,1,.15,1.66c-.35,1.1-.71,2.2-1.13,3.28s-.94,2.13-1.5,3.17c-.66,1.24-1.17,2.6-1.81,3.89s-1.48,2.79-2.3,4.15c-.5.83-1,1.65-1.57,2.46-.81,1.24-1.71,2.41-2.58,3.59-.35.45-.67.91-1,1.38s-.7.88-1.06,1.32a6.68,6.68,0,0,1-.49.57c-.71.61-1,.71-1.41.6a1.47,1.47,0,0,1-.25-.08c-.24-.12-.14-.56.19-1.15.49-.88,1.09-1.67,1.66-2.51s1.22-1.61,1.81-2.44c.89-1.23,1.75-2.49,2.54-3.81Z"/><path class="cls-1" d="M158,264c4.54-1,9-2.29,13.49-3.75,1.62-.54,3.21-1.16,4.78-1.77.68-.27,1.4-.56,2-.85.09,0,.16-.12.31-.24l.38-.32a7.46,7.46,0,0,0,.75-.74,33.69,33.69,0,0,0,2.75-3.44c1.72-2.43,3.31-5,4.85-7.6,1.37-2.31,2.66-4.68,3.94-7a61.91,61.91,0,0,1,5.4-8.81c.67-.86.84-.55.65.4a19.24,19.24,0,0,1-1.53,4.35q-2.42,4.6-5,9.19c-1.74,3-3.54,6.1-5.58,9a51.09,51.09,0,0,1-4,5.26c-.19.21-.38.43-.58.64l-.68.59-.35.32a4.38,4.38,0,0,1-.46.27c-.29.16-.53.26-.79.39-1,.46-2.05.86-3.08,1.24-4.5,1.63-9.07,3-13.7,4.19-2.84.72-5.73,1.36-8.64,1.81-4.41.71-8.87,1-13.26,1.34-3.42.22-6.77.47-10.15.62-.75,0-1.48.08-2.23.1-2.78,0-3.66-.14-4.26-.72-.14-.12-.32-.23-.4-.32-.27-.28.86-.84,2.9-1,6-.46,12.33-.62,18.63-1.18A96.52,96.52,0,0,0,158,263.92Z"/><path class="cls-1" d="M183.4,296.6l-.31-5.41c0-.66-.13-1.31-.15-2-.06-2.32-.08-4.64,0-7,0-1,0-2.08.07-3.11a19.54,19.54,0,0,1,.13-2c0-.33.1-.67.16-1s.21-.67.34-1,.51-.21.81.22a3.07,3.07,0,0,1,.55,1.76c-.09,1.24-.06,2.55-.05,3.84s-.06,2.62-.1,3.95a39.94,39.94,0,0,0,.28,4.86q.19,2.69.45,5.37l.33,3.3c.2,1.66.37,3.34.66,5,.24,1.27.61,2.49.94,3.73.07.27.16.53.21.81.21,1,.06,1.4-.46,1.73a2.25,2.25,0,0,1-.35.22c-.37.18-.87-.16-1.2-.89a29.5,29.5,0,0,1-1.71-7c-.27-1.8-.48-3.61-.65-5.42Z"/><path class="cls-1" d="M109.18,291.72c.81-1.71,1.66-3.4,2.51-5.07.31-.61.56-1.25.89-1.85,1.15-2.12,2.33-4.22,3.44-6.35.5-.94.94-1.92,1.37-2.88a28.09,28.09,0,0,1,1.74-3.68c.23-.36.51-.18.69.28a3,3,0,0,1,0,2,52,52,0,0,1-3.63,7.56c-.84,1.46-1.5,3.07-2.25,4.61s-1.68,3.36-2.47,5.06c-.49,1-1,2.09-1.42,3.15-.68,1.61-1.32,3.23-1.84,4.88-.19.65-.34,1.29-.49,1.94s-.22,1.31-.38,1.95l-.16.85c-.23,1.05-.44,1.36-1,1.5a2.37,2.37,0,0,1-.36.09c-.39,0-.6-.47-.57-1.31A24.19,24.19,0,0,1,107,297c.64-1.8,1.4-3.57,2.18-5.31Z"/><path class="cls-1" d="M155.45,317.19q-6.3-.15-12.58-.68c-1.53-.14-3.06-.2-4.58-.39a109.47,109.47,0,0,1-15.95-2.95c-2.33-.6-4.65-1.27-6.92-2a27.34,27.34,0,0,1-8.27-4.1c-.78-.58-.49-.78.41-.71a10.87,10.87,0,0,1,1.71.28,9.45,9.45,0,0,1,2.25.63A104.32,104.32,0,0,0,129,312.3a89.37,89.37,0,0,0,11.22,1.53q6.24.6,12.51.8c2.57.09,5.15.12,7.72.11,3.9,0,7.83-.12,11.69-.43,3-.23,5.92-.66,8.85-1.12.64-.11,1.27-.23,1.92-.32,2.4-.37,3.18-.22,3.8.22a3.2,3.2,0,0,1,.43.31c.34.36-.58,1-2.36,1.55a87.66,87.66,0,0,1-16.63,2.1c-4.23.21-8.48.25-12.71.2Z"/><path class="cls-1" d="M201.32,389.77q-4.09-9.06-7.91-18.23c-.94-2.23-1.91-4.45-2.82-6.69-3.17-7.9-6.15-15.89-8.87-24-1.18-3.59-2.4-7.2-3.44-10.81a70.72,70.72,0,0,1-1.81-7.05,30.19,30.19,0,0,1-.73-7.31c.1-1.57.45-1.28.83,0s1.08,3.43,1.68,6.07c1.2,4.67,2.53,9.36,4.05,14s3.12,9.29,4.72,14c1.92,5.59,4.32,11.26,6.62,16.85q3.81,9.23,7.86,18.35,2.5,5.61,5.12,11.17c2.65,5.6,5.37,11.21,8.27,16.64,2.26,4.21,4.64,8.26,7.19,12.21.56.86,1.13,1.7,1.72,2.55s1,1.45,1.38,2l.9,1.34a5.77,5.77,0,0,1,.51,1,4,4,0,0,1,.27.72,5.5,5.5,0,0,1,.19.64c0,.28-.28.23-1-.15a4.89,4.89,0,0,1-1.17-.87,9.46,9.46,0,0,1-1.34-1.44,88.92,88.92,0,0,1-7.24-11c-2.21-3.85-4.32-7.81-6.36-11.82-3-6-5.89-12-8.68-18.1Z"/><path class="cls-1" d="M174.35,415.2q-7.24-11.93-14.08-24.08c-1.66-3-3.36-5.9-5-8.89-2.83-5.26-5.58-10.58-8.2-16S142,355.47,139.64,350c-2-4.9-4.1-9.84-5.76-14.85-2.14-6.42-4.06-13.08-4.15-20,0-2.14.39-1.83.9-.08.26.88.49,2.11.9,3.57.19.74.35,1.53.55,2.38s.44,1.73.64,2.67A136.59,136.59,0,0,0,139,343.12c2.51,6.38,5.32,12.67,8.27,18.95,3.51,7.51,7.68,15.08,11.81,22.49q6.82,12.22,14.06,24.24,4.44,7.4,9,14.71,3.5,5.52,7,11.06l3.51,5.52,1.73,2.77.31.54c0,.06.06.16.13.17l.23,0,1.46.14a47.07,47.07,0,0,0,9.85.11,22.26,22.26,0,0,0,9.09-2.72A35.53,35.53,0,0,0,219,438.7a34.49,34.49,0,0,1,4.82-3.38,11.08,11.08,0,0,1,1.47-.63,7.09,7.09,0,0,1,1.95-.2c.32.06,0,.42-.78,1s-2,1.46-3.52,2.69l-3.44,2.9a23.37,23.37,0,0,1-4,2.63,24.24,24.24,0,0,1-9.36,2.54,53,53,0,0,1-9.6-.18l-1.19-.12-.86-.09-.58-.06-.29,0c-.1,0-.21,0-.23-.11l-1-1.65-.61-1-2.51-4c-5-7.86-10.07-15.81-15-23.81Z"/><path class="cls-1" d="M109.15,404.4a95.37,95.37,0,0,1,12.52-11,50.69,50.69,0,0,1,5.14-3.39c.58-.32,1.17-.62,1.77-.91l.9-.42.46-.2.35-.13a.27.27,0,0,0,.12-.09l.05-.06.11-.19c.16-.28.32-.58.48-.89.31-.62.6-1.27.89-1.92.58-1.3,1.11-2.63,1.62-4,1-2.67,1.95-5.39,2.79-8.14.91-3,1.66-6,2.27-9.05.78-3.89,1.26-7.83,1.74-11.76.15-1.22.61-1,1,0a12.66,12.66,0,0,1,.44,5.42,94.66,94.66,0,0,1-2.33,12.17,97.16,97.16,0,0,1-3.82,11.8c-.55,1.38-1.1,2.77-1.69,4.16-.3.7-.59,1.4-.93,2.1-.17.35-.34.7-.54,1.07a2.71,2.71,0,0,1-.16.27,1.89,1.89,0,0,1-.26.39,2.18,2.18,0,0,1-.7.58l-.79.35-.67.32-1.32.69c-.87.48-1.72,1-2.56,1.53a81.08,81.08,0,0,0-12.64,10.37c-1.2,1.19-2.38,2.4-3.52,3.64-.57.62-1.13,1.25-1.67,1.88l-.6.74-.2.26c0,.08-.18.22,0,.26l.28.21a1.33,1.33,0,0,1,.19.14l.29.24a8.87,8.87,0,0,1,.72.64c.48.43.92.9,1.35,1.37a32.92,32.92,0,0,1,2.34,3c1.45,2,2.71,4.18,4,6.24,2.11,3.33,4.35,6.55,7.34,8.77a14.19,14.19,0,0,0,2.06,1.23,18.33,18.33,0,0,0,3,1.16,6.18,6.18,0,0,1,1.42.62,3.89,3.89,0,0,1,.45.3c.15.16-.1.29-.71.41a8.24,8.24,0,0,1-2.87-.06,12.74,12.74,0,0,1-5.24-2.39,21.54,21.54,0,0,1-4.07-4.08c-2.38-3-4.2-6.27-6.22-9.29a40.6,40.6,0,0,0-2.65-3.59q-.71-.84-1.47-1.59l-.79-.72-.47-.38c-.3-.26-.64-.46-1-.69-.55-.76-1.12-1.59-.34-2.6.16-.24.34-.48.51-.72l.48-.6.61-.73c.81-1,1.64-1.87,2.48-2.78Z"/><path class="cls-1" d="M156.23,414.46q-2.59,3.17-5.39,6.15c-.67.73-1.32,1.49-2,2.2a76.91,76.91,0,0,1-7.93,6.92c-1.26.93-2.51,1.88-3.84,2.71a11.81,11.81,0,0,1-5.71,2.16c-.67,0-.57-.37-.12-.83a10.9,10.9,0,0,1,.87-.74,7.06,7.06,0,0,1,1.22-.75,54.82,54.82,0,0,0,9.48-6.65,60,60,0,0,0,5.2-5.14q2.77-2.92,5.37-6c1.06-1.27,2.09-2.58,3.09-3.9,1.51-2,3-4.08,4.27-6.21a42.11,42.11,0,0,0,2.57-5.11c.17-.38.29-.77.47-1.14.56-1.43,1.1-1.74,1.55-2,.11,0,.23-.12.31-.14s.23.12.29.45a3.69,3.69,0,0,1,0,1.45,24.26,24.26,0,0,1-2,5.11,52.62,52.62,0,0,1-2.77,4.82c-1.52,2.3-3.18,4.51-4.89,6.67Z"/><path class="cls-1" d="M102,453.15a52.56,52.56,0,0,0,6.45,6,28.93,28.93,0,0,0,7.46,4.38c.48.2,1,.33,1.47.48l1.62.48a7,7,0,0,0,1.34.28c.4,0,.42,0,.55-.11a1.4,1.4,0,0,0,0-1.44,10.26,10.26,0,0,0-1.37-2.23c-1.18-1.59-2.29-3.07-3.57-4.51-2.52-2.91-5.4-5.49-8.06-8.46a25,25,0,0,1-1.67-2.11,7.94,7.94,0,0,1-.47-.73l-.26-.41-.12-.2a2,2,0,0,1,.09-.22l.43-.9a5.81,5.81,0,0,1,.31-.61,26.89,26.89,0,0,1,3-4.39,35.56,35.56,0,0,1,10.33-8.58c1.26-.64,1.32-.08.58.93A25.68,25.68,0,0,1,116,435a38.41,38.41,0,0,0-4.69,4.5,29.6,29.6,0,0,0-2,2.51c-.3.44-.59.88-.86,1.33l-.39.68c-.12.2-.27.56-.23.45s0,0,0,0l0,0s0,0,0,0l.11.16c.29.42.61.84.94,1.25.68.82,1.43,1.62,2.2,2.42,1.55,1.6,3.18,3.2,4.73,4.9.93,1,1.85,2.06,2.77,3.13s1.78,2.23,2.62,3.29a16.14,16.14,0,0,1,1.28,1.84,5.47,5.47,0,0,1,.82,2.46,3.34,3.34,0,0,1-.28,1.52,2.75,2.75,0,0,1-1.11,1.28,3.18,3.18,0,0,1-1.58.39,6.73,6.73,0,0,1-1.26-.17c-.83-.2-1.57-.47-2.23-.65a21.94,21.94,0,0,1-2.29-.76,28.52,28.52,0,0,1-4.23-2.16,45,45,0,0,1-7.35-5.78A62.07,62.07,0,0,1,95.53,449a35.82,35.82,0,0,1-2.34-3.68,12.73,12.73,0,0,1-.93-2.08,5,5,0,0,1-.17-.67,2.15,2.15,0,0,1,0-.76,2.18,2.18,0,0,1,.29-.68l.27-.47a56.59,56.59,0,0,1,4.8-7.16,100,100,0,0,1,8.72-9.82l2-2c2.65-2.39,3.46-3.06,4.3-3.36.19-.07.4-.2.54-.23.46-.16-.07,1.44-1.83,3.44-1.25,1.54-2.62,2.95-4,4.39s-2.69,2.91-4,4.41A67.76,67.76,0,0,0,96,439.8c-.41.61-.77,1.25-1.13,1.89l-.37.66h0v0a.9.9,0,0,0,0,.16,11.23,11.23,0,0,0,.81,1.78c.35.62.72,1.24,1.12,1.85a55.58,55.58,0,0,0,5.51,7Z"/><path class="cls-1" d="M233.15,461.83a51.16,51.16,0,0,0,7.24-3.85,28.54,28.54,0,0,0,6.14-5.2c.32-.36.6-.75.89-1.14l.93-1.27a9.28,9.28,0,0,0,.74-1.11,2.46,2.46,0,0,0,.19-.45c0-.11,0-.15,0-.22s-.05-.17-.24-.34a1.27,1.27,0,0,0-.67-.25,6.55,6.55,0,0,0-2.26.28c-.41.11-.82.24-1.26.38l-1.3.39c-.85.25-1.69.55-2.52.85-3.36,1.2-6.57,2.81-9.91,4.32A32.88,32.88,0,0,1,226.5,456l-.85.19-.43.09-.11,0-.08-.08-.16-.15-.62-.62a6.47,6.47,0,0,1-.47-.5,22.06,22.06,0,0,1-1.57-1.93A32.37,32.37,0,0,1,217,441.63c-.28-1.28.27-1.22,1.05-.33a19.59,19.59,0,0,1,2.78,4.65,33.76,33.76,0,0,0,2.89,5.25,20.65,20.65,0,0,0,1.8,2.31l.25.29s.05.06.07,0h0l.14,0,.69-.2a49.63,49.63,0,0,0,5.62-2.33c1.9-.88,3.84-1.77,5.84-2.56,2.37-1,4.9-1.79,7.39-2.56a10.71,10.71,0,0,1,2.13-.43,4.22,4.22,0,0,1,2.53.51,3.17,3.17,0,0,1,1.08,1.05,2.63,2.63,0,0,1,.37,1.55,4.9,4.9,0,0,1-1,2.31c-.45.65-.89,1.18-1.27,1.72a19.91,19.91,0,0,1-1.39,1.76,27.87,27.87,0,0,1-3.2,3.05,43.68,43.68,0,0,1-7.32,4.72,62.57,62.57,0,0,1-9.81,4.06A46.92,46.92,0,0,1,223,467.7a24.27,24.27,0,0,1-2.46.37,11.31,11.31,0,0,1-1.31,0,2.3,2.3,0,0,1-1.52-.61l-1.1-1.27-1-1.24c-.65-.83-1.29-1.67-1.89-2.53a78.71,78.71,0,0,1-6.29-10.51c-.4-.8-.8-1.58-1.17-2.4-1.28-3.08-1.52-4.12-1.38-5a3.43,3.43,0,0,1,.08-.55c.13-.42,1,.66,2.25,2.79.93,1.55,1.77,3.16,2.65,4.76s1.81,3.19,2.77,4.76a59.82,59.82,0,0,0,6.4,9l.31.36h0a4.07,4.07,0,0,0,.72,0,15.89,15.89,0,0,0,1.82-.23c1.26-.23,2.54-.55,3.81-.91a59.22,59.22,0,0,0,7.47-2.75Z"/><path class="cls-1" d="M235.54,315.25c-.87-3-1.74-6.05-2.66-9.05l-1.07-3.27c-1.18-3.86-2.39-7.72-3.73-11.54-.61-1.68-1.24-3.37-1.91-5a66.19,66.19,0,0,1-2.38-6.44c-.2-.69,0-.7.55-.26a10.28,10.28,0,0,1,2,2.47,75.64,75.64,0,0,1,5.12,13.17c.81,2.71,1.88,5.46,2.75,8.21,1,3,1.89,6.08,2.79,9.13l1.65,5.62c.85,2.83,1.64,5.72,2.55,8.48a17.9,17.9,0,0,0,1.32,3,7.42,7.42,0,0,0,.86,1.25,1.74,1.74,0,0,0,.84.6c.21,0,.32-.06.57-.23.46-.39.85-.83,1.16-1.07a1.48,1.48,0,0,1,1-.37,2.58,2.58,0,0,1,.47,0c.42,0,.57.95-.29,2.29a3.89,3.89,0,0,1-1.47,1.39,3.07,3.07,0,0,1-1.3.36,3,3,0,0,1-1.36-.33,4.84,4.84,0,0,1-1.63-1.47,9.7,9.7,0,0,1-.92-1.55,45.35,45.35,0,0,1-2.2-6.21c-.9-3-1.81-6.08-2.71-9.13Z"/><path class="cls-1" d="M250.38,337.58a2.47,2.47,0,0,1-.69-.41,4.17,4.17,0,0,1-.47-.41,5.88,5.88,0,0,1-.79-.92,6,6,0,0,1-.46-.7,11.82,11.82,0,0,1-.85-2.67c-.09-.39-.18-.78-.26-1.17a4,4,0,0,1-.14-1.53c0-.17.25-.15.49,0a1,1,0,0,1,.56.58c.2.93.46,1.84.7,2.77a4.76,4.76,0,0,0,.8,1.53,5.37,5.37,0,0,0,.56.67,8.09,8.09,0,0,0,.69.56l.19.12.14.08a.5.5,0,0,0,.32,0,.62.62,0,0,0,.36-.35,3.51,3.51,0,0,0,.24-.81c.08-.47,0-1,.06-1.48a1.94,1.94,0,0,1,.07-.33.59.59,0,0,1,.72-.48l.26,0a.76.76,0,0,1,.55.57l.19.67c0,.22,0,.44,0,.67a6.21,6.21,0,0,1-.29,1.52,3.26,3.26,0,0,1-1.08,1.44,1.55,1.55,0,0,1-.91.28c-.17,0-.33,0-.49,0l-.47-.16Z"/><path class="cls-1" d="M257.23,327.73a35.39,35.39,0,0,0,1.11,4.68c.18.57.42,1.19.56,1.82a11.14,11.14,0,0,1,.24,1.76,4.43,4.43,0,0,1-.28,2,3,3,0,0,1-.31.54,5.13,5.13,0,0,1-.47.46,4.3,4.3,0,0,1-.57.28,5.72,5.72,0,0,1-.57.11,3.19,3.19,0,0,1-2-.5,6.71,6.71,0,0,1-2-2.47,5.86,5.86,0,0,1-.78-3.8c.11-.44.42-.28.76,0a3.62,3.62,0,0,1,1,1.31,9.13,9.13,0,0,0,1.43,2.76,2.16,2.16,0,0,0,.86.69,1.43,1.43,0,0,0,.47.08c.13,0,.21,0,.26,0s.33-.64.24-1.27a11.18,11.18,0,0,0-.49-2c-.23-.73-.53-1.58-.75-2.41s-.42-1.65-.6-2.49c-.22-1-.39-2.07-.52-3.12a12.52,12.52,0,0,1,.22-4.93,3.38,3.38,0,0,1,1.24-1.84,3.3,3.3,0,0,1,2.21-.52,3,3,0,0,1,.91.15,2,2,0,0,1,1,.61,1.09,1.09,0,0,1,.25.62,1.52,1.52,0,0,1,0,.29c0,.27-.52.34-1.22.37a4.42,4.42,0,0,0-.72,0c-.23,0-.44,0-.63,0a1.08,1.08,0,0,0-.72.29,3.38,3.38,0,0,0-.51,1.94,20.09,20.09,0,0,0,.42,4.6Z"/><path class="cls-1" d="M254.86,282.65c-.44-3.3-.81-6.6-1.17-9.89l-.44-3.6c-.45-4.23-.8-8.47-1.31-12.69-.21-1.87-.54-3.73-.87-5.57a63.53,63.53,0,0,0-1.64-6.93c-.2-.71.06-.74.55-.24a6.66,6.66,0,0,1,.85,1.11,8.56,8.56,0,0,1,.78,1.77c.41,1.2.66,2.41,1,3.63s.49,2.43.7,3.65q.58,3.67.94,7.38c.3,3,.74,6,1.1,9,.39,3.31.77,6.62,1.21,9.91.27,2,.56,4.06.9,6.07a82,82,0,0,0,1.95,9c.34,1.12.78,2.23,1.21,3.28a4.26,4.26,0,0,0,2,2.12,4.36,4.36,0,0,0,1.21.36c.79.19,1.38.22,1.79.35a1.68,1.68,0,0,1,.91.61,4.09,4.09,0,0,1,.3.33c.11.18,0,.35-.38.6a3.25,3.25,0,0,1-1.74.46,6.09,6.09,0,0,1-3.73-1,6.68,6.68,0,0,1-2.47-3.22c-.36-1.09-.74-2.18-1.05-3.28s-.6-2.21-.85-3.32c-.74-3.31-1.28-6.64-1.76-10Z"/><path class="cls-1" d="M230.93,312.23a1.78,1.78,0,0,0,0,1.68,2.83,2.83,0,0,0,.47.59,8.69,8.69,0,0,0,2.89,1.86,17.15,17.15,0,0,0,1.65.65,4,4,0,0,1,2.05,1.25c.16.22-.28.67-.8,1s-1.08.68-1.37.51a39.17,39.17,0,0,1-3.77-2,11.29,11.29,0,0,1-2.61-1.9,4.43,4.43,0,0,1-.95-3.69,4.26,4.26,0,0,1,1.08-2,4.58,4.58,0,0,1,3-1.45,4.64,4.64,0,0,1,2.65.54,4.87,4.87,0,0,1,.52.32c.54.5.54.81.12,1.28-.1.11-.2.23-.3.32a1.15,1.15,0,0,1-1.17.25,5.25,5.25,0,0,0-.66-.26c-.11,0-.21,0-.3-.06a.59.59,0,0,0-.26,0,2,2,0,0,0-1,.12,2.12,2.12,0,0,0-1.21,1.09Z"/><path class="cls-1" d="M280.48,342.88l8.93,5.59c1.09.68,2.21,1.29,3.3,2,3.82,2.4,7.62,4.84,11.45,7.24,1.69,1.06,3.44,2.07,5.17,3.05a62.48,62.48,0,0,1,6.57,3.95c1.29.95-1.63,1.91-4.17.43-4.51-2.63-8.93-5.38-13.28-8.36-2.6-1.77-5.47-3.36-8.21-5.05-3-1.85-6-3.73-9-5.59-1.85-1.15-3.7-2.3-5.56-3.43-2.81-1.72-5.62-3.48-8.45-5.12-2.2-1.28-4.42-2.41-6.64-3.61-.49-.26-1-.5-1.46-.77-1.8-1-2.29-1.5-2.34-2.28a3.26,3.26,0,0,1,0-.53c.08-.52,1-.44,2.4.21,4.08,1.92,8.19,4.29,12.28,6.72,3,1.81,6.06,3.67,9.09,5.51Z"/><path class="cls-1" d="M284.07,338.45c3.26,2,6.51,4.06,9.78,6.07,1.19.74,2.41,1.42,3.6,2.16,4.18,2.61,8.35,5.25,12.54,7.84,1.86,1.16,3.77,2.26,5.65,3.34,2.42,1.39,4.91,2.69,7.19,4.31,1.42,1-1.53,1.65-4.31,0-4.91-2.88-9.76-5.87-14.54-9.06-2.86-1.91-6-3.65-9-5.49-3.3-2-6.58-4-9.87-6.07l-6.08-3.74c-3.08-1.87-6.16-3.77-9.24-5.57-2.4-1.4-4.82-2.67-7.23-4-.53-.29-1.06-.56-1.59-.86-2-1.13-2.5-1.62-2.63-2.36a2.36,2.36,0,0,1-.08-.5c0-.48,1-.33,2.51.41,4.42,2.18,8.89,4.78,13.36,7.43,3.32,2,6.63,4,9.94,6Z"/><path class="cls-1" d="M399.79,413.93c1.79,1.18,3.58,2.36,5.37,3.52.66.42,1.35.79,2,1.22,2.3,1.51,4.58,3.06,6.88,4.56,1,.67,2.09,1.28,3.14,1.87a23.94,23.94,0,0,1,4,2.44c.75.63-1.5,2-3.05,1.09a84.48,84.48,0,0,1-8-5.26c-1.54-1.16-3.3-2.1-5-3.15l-5.43-3.5c-1.12-.72-2.23-1.44-3.36-2.15-1.7-1.06-3.39-2.17-5.11-3.16-1.34-.78-2.73-1.42-4.1-2.12-.3-.15-.61-.28-.9-.45-1.1-.61-1.36-1-1.27-1.65a3.4,3.4,0,0,1,.08-.46c.15-.49.8-.58,1.67-.23a56.47,56.47,0,0,1,7.56,4c1.84,1.11,3.67,2.27,5.5,3.41Z"/><path class="cls-1" d="M399.33,407c1.91,1.26,3.82,2.52,5.73,3.76.7.46,1.44.86,2.13,1.32,2.45,1.62,4.89,3.27,7.35,4.88,1.09.71,2.22,1.38,3.34,2a31,31,0,0,1,4.25,2.63c.8.67-1.39,1.74-3,.76-2.91-1.74-5.76-3.59-8.52-5.63-1.66-1.21-3.52-2.25-5.29-3.38l-5.8-3.75-3.57-2.3c-1.81-1.15-3.62-2.33-5.45-3.42-1.43-.84-2.89-1.56-4.33-2.34-.32-.17-.64-.32-1-.5-1.17-.67-1.46-1-1.41-1.65,0-.15,0-.3,0-.43.12-.45.78-.47,1.69-.07a69.87,69.87,0,0,1,8,4.38c2,1.2,3.91,2.45,5.86,3.68Z"/><path class="cls-1" d="M288.38,399.31a49.49,49.49,0,0,0-3.09,11,51.05,51.05,0,0,0-.43,11.39,46.34,46.34,0,0,0,2.31,11.17c.33.89.59,1.82,1,2.68l1.16,2.62a46.07,46.07,0,0,0,2.83,5,47.57,47.57,0,0,0,11.46,12A49.77,49.77,0,0,0,331,465a48.08,48.08,0,0,0,28.3-7.19A46.56,46.56,0,0,0,376.22,438c.65-1.24,1.08-2.58,1.61-3.88s.87-2.67,1.28-4a52.92,52.92,0,0,0,1.49-8.27,50.35,50.35,0,0,0-1.05-16.69c-.83-3.37-.07-3.19,1.39-.43.18.35.38.73.56,1.17s.35.9.52,1.41.36,1.07.55,1.64.29,1.21.44,1.86.28,1.35.41,2.06.15,1.47.23,2.24a37.55,37.55,0,0,1,.07,4.89,53.72,53.72,0,0,1-4.2,17.57,52.16,52.16,0,0,1-9.91,15.11c-1,1.15-2.17,2.11-3.26,3.17s-2.37,1.9-3.56,2.86-2.52,1.7-3.85,2.44l-2,1.08-1,.53-1.05.45a51.1,51.1,0,0,1-17.56,4.26,56.9,56.9,0,0,1-10.9-.42l-1.37-.17-1.35-.26c-.9-.18-1.81-.34-2.71-.54-1.77-.51-3.58-.91-5.31-1.58a51.65,51.65,0,0,1-18.78-11.57,49.63,49.63,0,0,1-7.61-9.48A49,49,0,0,1,283,408.35a49.92,49.92,0,0,1,13.57-26.05c.68-.64,1.3-1.36,2-1.95l2.16-1.82c.73-.59,1.52-1.11,2.28-1.66l1.15-.82,1.21-.73a49.81,49.81,0,0,1,10.2-4.75,53.68,53.68,0,0,1,5.43-1.46c.91-.19,1.82-.4,2.75-.56l2.77-.37,1.39-.18c.47,0,.94-.05,1.4-.07l2.81-.13c.93,0,1.86.07,2.79.1l1.4.06c.47,0,.93.1,1.39.15a53.35,53.35,0,0,1,30.71,14.24,37.47,37.47,0,0,1,2.65,2.7l1.25,1.42.63.71.57.77,1.92,2.65,1.39,2.36a23.44,23.44,0,0,1,1.78,3.67q.31.76.54,1.38a11.68,11.68,0,0,1,.29,1.17,10.47,10.47,0,0,1,.21,1.83,8.94,8.94,0,0,1,0,1.39c-.1.5-.6-.1-1.36-1.58-.4-.73-.77-1.72-1.43-2.81s-1.23-2.44-2.17-3.81a50.75,50.75,0,0,0-36.92-23.45,48.56,48.56,0,0,0-15.29.74A47,47,0,0,0,301.92,381a43.25,43.25,0,0,0-7.87,8.29,44.14,44.14,0,0,0-5.6,10Z"/><path class="cls-1" d="M327.46,414.89a7.36,7.36,0,0,0-.6,3.12,6.76,6.76,0,0,0,.94,3.05,4.78,4.78,0,0,0,.75.93,6.13,6.13,0,0,0,.89.79,7.26,7.26,0,0,0,8.16.66,6.37,6.37,0,0,0,2.51-3,10,10,0,0,0,.53-4.92c-.06-.51.53-.69,1.25-.34a2.85,2.85,0,0,1,1.45,2.69,9.59,9.59,0,0,1-2.71,6.17,8.57,8.57,0,0,1-6.18,2.57,11.79,11.79,0,0,1-3.94-.64,8.87,8.87,0,0,1-3.4-2.13,8.33,8.33,0,0,1-2.24-3.77,9.06,9.06,0,0,1,2.34-8.93,8.29,8.29,0,0,1,3.4-2,9.83,9.83,0,0,1,1.92-.42,8.12,8.12,0,0,1,2,0,9.93,9.93,0,0,1,5.57,2.33,6.84,6.84,0,0,1,1,1c1,1.4,1,2.08.56,2.6a3.8,3.8,0,0,1-.34.35c-.45.28-1-.17-1.56-.9a7.69,7.69,0,0,0-7.5-2.88,6.34,6.34,0,0,0-4.69,3.73Z"/><path class="cls-1" d="M332.43,402.29c.19.21-.05.47-.53.75a1.4,1.4,0,0,1-.75.12,3.25,3.25,0,0,1-.45-.32c-.07-.08-.62-1.31-.85-1.72a6.44,6.44,0,0,1-.47-1.24l-.78-2.59a2.35,2.35,0,0,1-.1-.6,6.52,6.52,0,0,0-.37-2.06.49.49,0,0,0-.16-.32,7.42,7.42,0,0,1-.59-2.29c.06-.64.06-1.28.11-1.91,0-.09-.05-.18.05-.28s.16-.41.16-.6a3.2,3.2,0,0,1,.06-.81A1.31,1.31,0,0,1,328,388c.09-.13.49-.1.53-.06s.31,0,.47,0l.17,0a7.92,7.92,0,0,1,.94,1.51l.09.34.19.73c.16.54.33,1.1.38,1.21a.81.81,0,0,1,0,.38c0,.06.57,1.67.58,1.73a2.13,2.13,0,0,1,.1,1.07.3.3,0,0,0,0,.21,10.82,10.82,0,0,1,.32,1.82c0,.31.15.61.21.92a.54.54,0,0,1,0,.18.54.54,0,0,0,0,.22c.19.73.25,1.49.5,2.21.06.16,0,1,0,1.23S332.35,402.2,332.43,402.29Z"/><path class="cls-1" d="M348.86,414.6c-.16.24-.47.07-.86-.33a1.43,1.43,0,0,1-.29-.69,3.13,3.13,0,0,1,.2-.52c.06-.09,1.13-.92,1.47-1.24a6.21,6.21,0,0,1,1.09-.75l2.32-1.39a2.28,2.28,0,0,1,.56-.23,6.93,6.93,0,0,0,1.92-.86c.1-.06.21-.1.27-.23a7,7,0,0,1,2.08-1.12c.64-.1,1.25-.25,1.88-.36.09,0,.16-.08.28,0,.27.17.43.06.62,0a3,3,0,0,1,.8-.14,1.64,1.64,0,0,1,.47.16c.14.07.21.46.18.51s.08.3.14.45a.52.52,0,0,1,.06.16,8.59,8.59,0,0,1-1.23,1.27l-.31.17-.67.36c-.48.28-1,.58-1.08.66a.88.88,0,0,1-.37.1c-.06,0-1.48.95-1.54,1-.33.13-.6.39-1,.35a.35.35,0,0,0-.2.07,10.22,10.22,0,0,1-1.69.75c-.29.12-.56.29-.85.43a.86.86,0,0,1-.17,0,1.8,1.8,0,0,0-.22.06c-.65.36-1.38.6-2,1-.15.1-1,.23-1.18.35S348.93,414.51,348.86,414.6Z"/><path class="cls-1" d="M346.77,432c-.29,0-.26-.4,0-.92a1.54,1.54,0,0,1,.52-.55,2.69,2.69,0,0,1,.56,0c.1,0,1.29.66,1.72.84a5.93,5.93,0,0,1,1.13.7l2.2,1.56a2.19,2.19,0,0,1,.44.42,7.2,7.2,0,0,0,1.56,1.41.59.59,0,0,0,.33.15A7.44,7.44,0,0,1,357,437c.34.55.73,1.05,1.08,1.58.05.07.15.12.13.25-.05.32.12.42.24.57a3.17,3.17,0,0,1,.44.68,1.48,1.48,0,0,1,.05.49c0,.16-.33.38-.39.38s-.24.19-.35.3a.71.71,0,0,1-.13.12,8,8,0,0,1-1.66-.61l-.28-.22-.6-.46c-.45-.33-.93-.67-1-.73s-.16-.19-.24-.3-1.47-1-1.52-1c-.25-.24-.59-.39-.72-.78a.39.39,0,0,0-.15-.16,10.66,10.66,0,0,1-1.37-1.24c-.22-.22-.49-.4-.73-.6a.78.78,0,0,1-.1-.15.79.79,0,0,0-.14-.17c-.6-.46-1.11-1-1.74-1.45-.15-.09-.62-.83-.8-.93S346.88,432,346.77,432Z"/><path class="cls-1" d="M323.84,433.08c0-.28.37-.29.91-.14a1.48,1.48,0,0,1,.61.44,2.9,2.9,0,0,1,.08.56c0,.11-.56,1.4-.75,1.85A5.71,5.71,0,0,1,324,437l-1.55,2.25a2.43,2.43,0,0,1-.41.44,5.92,5.92,0,0,0-1.33,1.55.52.52,0,0,0-.13.33,8.23,8.23,0,0,1-1.22,1.87c-.47.38-.88.81-1.31,1.23-.06.06-.07.15-.21.16-.31,0-.36.19-.47.34a4.61,4.61,0,0,1-.51.58,1.37,1.37,0,0,1-.45.17c-.15.05-.46-.19-.48-.24s-.26-.17-.4-.23l-.16-.08a6.5,6.5,0,0,1,.19-1.86l.54-1.07c.28-.53.56-1.08.63-1.2s.18-.2.29-.29.9-1.61.95-1.66c.24-.28.38-.63.78-.78.08,0,.11-.1.15-.16a10.27,10.27,0,0,1,1.24-1.4c.22-.23.39-.49.59-.73,0-.05.1-.07.14-.11a.58.58,0,0,0,.17-.14,17.35,17.35,0,0,0,1.36-1.74c.09-.15.78-.65.87-.82S323.84,433.2,323.84,433.08Z"/><path class="cls-1" d="M317.55,416.54c.24-.14.44.14.64.66a1.48,1.48,0,0,1,0,.76,3.61,3.61,0,0,1-.42.38c-.08.07-1.46.35-1.93.45a5.75,5.75,0,0,1-1.36.13l-2.73,0a2.08,2.08,0,0,1-.6-.09,6.15,6.15,0,0,0-2-.19.44.44,0,0,0-.34.08,8.27,8.27,0,0,1-2.23.08c-.58-.17-1.17-.26-1.75-.37-.09,0-.17,0-.26-.08s-.37-.19-.55-.19a4,4,0,0,1-.76-.08,1.34,1.34,0,0,1-.4-.27c-.13-.09-.11-.49-.08-.53s0-.31,0-.47a1,1,0,0,1,0-.17,6.25,6.25,0,0,1,1.64-.91l1.18-.18,1.34-.17a.79.79,0,0,1,.4.07c.07,0,1.84-.19,1.91-.18.37,0,.74-.05,1.09.19a.34.34,0,0,0,.22,0,8.89,8.89,0,0,1,1.85.21c.31,0,.63,0,.94.06.06,0,.11,0,.17.05a.56.56,0,0,0,.21.06,18.27,18.27,0,0,0,2.21.11c.17,0,1,.27,1.17.24S317.45,416.61,317.55,416.54Z"/><path class="cls-1" d="M296,327.2c.19-2.19.43-4.37.69-6.55.08-.8.14-1.6.25-2.39q.58-4.18,1.47-8.34c.23-1.23.5-2.46.77-3.68a13,13,0,0,1,1.72-4.55c.27-.44.46-.25.58.26a6.67,6.67,0,0,1,.06,2.2c-.66,3.09-1.31,6.17-2,9.33a56.21,56.21,0,0,0-.75,5.88q-.36,3.25-.6,6.52c-.09,1.34-.19,2.68-.24,4-.08,2-.16,4.08-.1,6.1.05,1.57.24,3.1.41,4.64,0,.34.1.67.11,1a4.07,4.07,0,0,1-.08,1.36,1.29,1.29,0,0,1-.55.64,2,2,0,0,1-.32.21c-.18.08-.36,0-.54-.23a2.35,2.35,0,0,1-.5-1,33,33,0,0,1-.77-8.75c0-2.22.17-4.44.32-6.65Z"/><path class="cls-1" d="M417.93,391.87q-2.21,1.59-4.46,3.12c-.55.37-1.06.79-1.62,1.15-2,1.24-4,2.48-6,3.65-.88.53-1.76,1.09-2.61,1.66a21.13,21.13,0,0,1-3.42,2c-.39.16-.53-.2-.43-.71a2.62,2.62,0,0,1,1-1.61c2.17-1.53,4.3-3.08,6.63-4.43a46.8,46.8,0,0,0,4-2.84l4.39-3.17c.9-.66,1.79-1.32,2.66-2,1.32-1,2.66-2.07,3.87-3.21,1-.88,1.76-1.88,2.61-2.82.19-.21.36-.43.56-.62a2.41,2.41,0,0,1,.88-.68,1.37,1.37,0,0,1,.82.09c.13.06.27.09.38.15a.58.58,0,0,1,.26.56,1.69,1.69,0,0,1-.28,1,23,23,0,0,1-5,5.38c-1.39,1.2-2.86,2.31-4.31,3.43Z"/><path class="cls-1" d="M380.62,344.16q-9-5.21-18.11-10.25l-6.68-3.63c-7.8-4.34-15.61-8.67-23.36-13.12l-10.33-5.91c-2.19-1.27-4.37-2.58-6.49-4a43.34,43.34,0,0,1-6.1-4.68c-1.16-1.14-.67-1.27.62-.74a47.46,47.46,0,0,1,5.91,3.09c8.71,5.32,17.72,10.32,26.69,15.57,5.37,3.13,11.12,6.11,16.69,9.18q9.19,5.06,18.34,10.25c3.74,2.12,7.47,4.29,11.19,6.47,5.62,3.31,11.21,6.75,16.67,10.26,4.24,2.74,8.41,5.42,12.39,8.49l1.31,1,1.28,1.08a21.22,21.22,0,0,1,3.11,3.16,4.11,4.11,0,0,1,.83,1.89,3,3,0,0,1,.06.7c-.05.29-.43.17-1-.27-.3-.22-.66-.52-1.07-.89s-.94-.77-1.48-1.27a110.7,110.7,0,0,0-10.71-8.09c-3.79-2.59-7.72-5.11-11.71-7.57-5.93-3.65-12-7.21-18-10.67Z"/><path class="cls-3" d="M323.77,299.65a3.91,3.91,0,0,0-1.41-1.62,1.72,1.72,0,0,0-.8-.2.82.82,0,0,0-.55.21,2.49,2.49,0,0,0-.54,1.31,5,5,0,0,0-.06,1.55,3.76,3.76,0,0,0,.17.79,8.45,8.45,0,0,0,.28.85,16.85,16.85,0,0,0,1.7,3.29,20.63,20.63,0,0,0,2.1,2.66,23.06,23.06,0,0,1,2.87,3.34c.49.79-2,1.45-3.16.2a25.57,25.57,0,0,1-5.25-7.78c-.18-.46-.35-.93-.52-1.4a11,11,0,0,1-.43-1.54,6.56,6.56,0,0,1,.21-3.31,4,4,0,0,1,1.12-1.73,3.15,3.15,0,0,1,2.07-.77,4.49,4.49,0,0,1,1,.12,4.36,4.36,0,0,1,.95.37,5.31,5.31,0,0,1,1.43,1.2,12.15,12.15,0,0,1,1.91,3.57,39.82,39.82,0,0,1,1.47,5.65c.31,1.45.68,2.87.94,4.34.06.32.13.63.17,1,.13,1.22,0,1.64-.67,1.91a2.56,2.56,0,0,1-.43.17c-.5.11-.9-.34-1.09-1.17-.6-2.47-1-5.1-1.65-7.65a20.17,20.17,0,0,0-1.88-5.29Z"/><path class="cls-3" d="M339.86,307.68a5.26,5.26,0,0,0,1-1.95,1.53,1.53,0,0,0,0-.74c0-.14-.1-.21-.29-.31a1.8,1.8,0,0,0-1.2.13,10.4,10.4,0,0,0-2.81,1.59,29.6,29.6,0,0,0-2.65,2.26,23.13,23.13,0,0,0-2.1,2.33,24.41,24.41,0,0,1-2.6,3.07c-.64.57-1.58-1.55-.6-2.79a32,32,0,0,1,6.06-5.95c.71-.5,1.41-1,2.19-1.55a7.29,7.29,0,0,1,2.68-1.18,3.32,3.32,0,0,1,1.94.23,2.59,2.59,0,0,1,1.37,1.6,4.65,4.65,0,0,1-.56,3.34,10.83,10.83,0,0,1-2.34,2.88,15.55,15.55,0,0,1-4.7,2.76,20.94,20.94,0,0,1-4,1.21c-.31.05-.6.12-.91.15-1.15.1-1.53-.08-1.75-.65a3,3,0,0,1-.14-.39c-.09-.44.36-.79,1.11-.93a23.6,23.6,0,0,0,6.46-2,11,11,0,0,0,3.78-3.11Z"/><path class="cls-3" d="M331.05,302.19a7.22,7.22,0,0,0,0-.82,2,2,0,0,1,0-.34.22.22,0,0,0-.33-.16l-.07,0-.18.17c-.13.11-.23.27-.37.39a8.16,8.16,0,0,0-1.62,4.31,8.37,8.37,0,0,0,.08,2.18c.14.93.48,1.78.6,2.65,0,.27-.46.51-1.06.47a1.57,1.57,0,0,1-1.46-1,11.28,11.28,0,0,1,.26-6.61,9.4,9.4,0,0,1,2-3.75c.16-.15.32-.28.49-.42a4.08,4.08,0,0,1,.72-.42,2,2,0,0,1,1.53-.13,2.05,2.05,0,0,1,1.11,1,3.92,3.92,0,0,1,.29.74,5.59,5.59,0,0,1,.12.62,9.92,9.92,0,0,1-.07,2.73,22.26,22.26,0,0,1-1,3.84,28.48,28.48,0,0,1-1,2.9,6,6,0,0,1-.3.63c-.44.75-.78.88-1.32.65a2.37,2.37,0,0,1-.36-.17.91.91,0,0,1-.25-1.19c.57-1.48,1.17-3.06,1.62-4.7a14.11,14.11,0,0,0,.57-3.61Z"/><path class="cls-3" d="M358.19,319.65a3.84,3.84,0,0,0-1.1-1.59,1.34,1.34,0,0,0-.31-.17,1.59,1.59,0,0,0-.37-.1.77.77,0,0,0-.53.09,2.1,2.1,0,0,0-.59,1,4.28,4.28,0,0,0-.22,1.34,5.84,5.84,0,0,0,.24,1.45,12.29,12.29,0,0,0,1.25,3,16.9,16.9,0,0,0,1.71,2.43,18.58,18.58,0,0,1,2.35,3.1c.36.74-1.89,1.14-2.8,0a21.13,21.13,0,0,1-4.2-7.13,13.71,13.71,0,0,1-.57-2.69,5.75,5.75,0,0,1,.55-2.88,3.36,3.36,0,0,1,1.23-1.38,2.87,2.87,0,0,1,1.9-.37,3.84,3.84,0,0,1,1.62.66,5.16,5.16,0,0,1,1.11,1.19,11.45,11.45,0,0,1,1.37,3.28,39,39,0,0,1,.87,5.05c.16,1.29.38,2.56.5,3.87,0,.28.07.56.08.85,0,1.08-.15,1.44-.73,1.63a2.64,2.64,0,0,1-.4.12c-.44.05-.77-.37-.88-1.11-.34-2.21-.54-4.54-.89-6.82a18.92,18.92,0,0,0-1.23-4.78Z"/><path class="cls-3" d="M371.88,327.68a4,4,0,0,0,1-1.53,1.37,1.37,0,0,0,.05-.61.51.51,0,0,0-.25-.33,1.59,1.59,0,0,0-1,0,8,8,0,0,0-2.51,1.06,20.76,20.76,0,0,0-2.44,1.68,19.74,19.74,0,0,0-2,1.8,20.58,20.58,0,0,1-2.44,2.41c-.59.43-1.27-1.47-.33-2.45a25.49,25.49,0,0,1,5.65-4.57c.65-.36,1.3-.76,2-1.11a5.63,5.63,0,0,1,2.43-.71,2.83,2.83,0,0,1,1.61.43,2.3,2.3,0,0,1,1,1.44A3.85,3.85,0,0,1,374,328a8.48,8.48,0,0,1-2.26,2.25,13.38,13.38,0,0,1-4.27,1.86,20,20,0,0,1-3.5.67c-.26,0-.52.06-.78.05-1,0-1.29-.19-1.43-.7a2,2,0,0,1-.1-.35c0-.39.37-.66,1-.72a22.82,22.82,0,0,0,5.7-1.16,8.84,8.84,0,0,0,3.48-2.23Z"/><path class="cls-3" d="M364.41,322.33a8,8,0,0,0,0-1.06.19.19,0,0,0-.28-.16l-.07,0-.18.14c-.13.1-.23.23-.37.33a7.22,7.22,0,0,0-1.73,3.7,7.42,7.42,0,0,0-.1,1.94c.06.83.3,1.6.34,2.38,0,.25-.43.41-1,.34a1.41,1.41,0,0,1-1.21-1,10,10,0,0,1,.71-5.82,8.44,8.44,0,0,1,2-3.17l.46-.32a3.35,3.35,0,0,1,.66-.32,1.76,1.76,0,0,1,1.37,0,1.83,1.83,0,0,1,.9,1,3.13,3.13,0,0,1,.2.68c0,.19.05.36.06.53a9,9,0,0,1-.26,2.41,20.63,20.63,0,0,1-1.14,3.32,24.83,24.83,0,0,1-1.1,2.49,5.64,5.64,0,0,1-.31.53c-.45.63-.75.72-1.21.48a2.38,2.38,0,0,1-.31-.17.8.8,0,0,1-.12-1.06,42.76,42.76,0,0,0,1.78-4,12.38,12.38,0,0,0,.77-3.15Z"/><path class="cls-1" d="M255.12,156.83a7.26,7.26,0,0,0,8,3.66c1.57-.38.9-2.79-.66-2.41a4.78,4.78,0,0,1-5.21-2.51c-.66-1.46-2.82-.19-2.15,1.26Z"/><path class="cls-1" d="M259.83,129.61a6.87,6.87,0,0,1-2.43,2l-.86.26a6,6,0,0,1-.83.08,4.61,4.61,0,0,1-1.65-.27,5.35,5.35,0,0,1-1.95-1.17,9.91,9.91,0,0,1-2-3,18.51,18.51,0,0,1-1.1-3.16c-.24-.94-.49-1.88-.7-2.82a10.72,10.72,0,0,1-.23-3.71c.07-.4.34-.33.67,0a3.6,3.6,0,0,1,1,1.45c.16.57.36,1.13.53,1.69l.45,1.7c.31,1.13.68,2.22,1,3.33a6.64,6.64,0,0,0,2.27,3.2,2.61,2.61,0,0,0,1.7.55,2.36,2.36,0,0,0,.85-.21l.41-.23.39-.33a8.68,8.68,0,0,0,1.59-2.27,18.24,18.24,0,0,0,1.42-4.26,22.34,22.34,0,0,0,.25-3.45v-.75c.1-.92.3-1.2.8-1.43a2.84,2.84,0,0,1,.32-.14c.33-.11.72.28.94,1a14.06,14.06,0,0,1-.48,6.91,16.56,16.56,0,0,1-2.32,5Z"/><path class="cls-1" d="M273.17,127.48a6.06,6.06,0,0,1-1.54,2,2.59,2.59,0,0,1-1.6.55,2.84,2.84,0,0,1-1.51-.53,4.7,4.7,0,0,1-1.25-1.37,10.51,10.51,0,0,1-1-2.63c-.24-.88-.4-1.75-.56-2.62s-.31-1.54-.43-2.31a10.58,10.58,0,0,1-.27-3c.07-.62,1.59,0,1.81,1.1.4,1.92.66,3.83,1,5.75a7.29,7.29,0,0,0,1.33,3c.75.91,1.17,1,2-.11a9.52,9.52,0,0,0,1-2.1,21.56,21.56,0,0,0,1-3.59,22.77,22.77,0,0,0,.21-2.85c0-.21,0-.42.05-.62a1.81,1.81,0,0,1,.24-.81,1.64,1.64,0,0,1,.51-.33,1.86,1.86,0,0,1,.24-.09c.13,0,.23,0,.36.19a1.39,1.39,0,0,1,.34.71,9.6,9.6,0,0,1,0,2.73,22.15,22.15,0,0,1-.44,2.77,19.1,19.1,0,0,1-1.38,4.13Z"/><path class="cls-1" d="M245.34,108.63c-.13.31-.48.33-1,.22-.16,0-.48-.32-.46-.44a3.66,3.66,0,0,1,.17-.65,11.81,11.81,0,0,1,1.84-2.14,6.62,6.62,0,0,1,1.62-1.15,19.09,19.09,0,0,1,3.7-1.49,3.17,3.17,0,0,1,.87-.15c1-.07,2-.21,3-.32a1.1,1.1,0,0,0,.5-.11,5.44,5.44,0,0,1,1.66-.12,9.78,9.78,0,0,1,1.72.22,21.26,21.26,0,0,1,2.51,1c.12.06.26.06.33.2a1.21,1.21,0,0,0,.67.51,3.91,3.91,0,0,1,.94.64,2.17,2.17,0,0,1,.33.5c.09.16-.17.39-.24.4s-.16.2-.23.33a.47.47,0,0,1-.07.12,6.1,6.1,0,0,1-1-.15,10.51,10.51,0,0,1-1.12-.15s-.68-.17-1.36-.31l-1-.12h-.59a1.63,1.63,0,0,1-.47-.12s-.59,0-1.15,0-1.11.12-1.15.11a5,5,0,0,1-1.34,0,.61.61,0,0,0-.27,0,11,11,0,0,1-1.15.19l-1.14.21a9.32,9.32,0,0,0-1.13.37,1.46,1.46,0,0,1-.22,0,.76.76,0,0,0-.26.06,11.23,11.23,0,0,0-2.48,1.29c-.08.06-.37.18-.66.32a4.13,4.13,0,0,0-.64.4C245.93,108.42,245.38,108.49,245.34,108.63Z"/><path class="cls-1" d="M267.65,106.13c-.1.1-.22-.06-.39-.34a1,1,0,0,1-.08-.44,1.06,1.06,0,0,1,.18-.27,5.82,5.82,0,0,1,1.09-.43,2.08,2.08,0,0,1,.82-.1,6.33,6.33,0,0,1,1.63.28,1,1,0,0,1,.33.16,5.3,5.3,0,0,0,1.07.58.33.33,0,0,0,.2,0,2.74,2.74,0,0,1,1.16.65c.2.31.41.58.6.87,0,0,.08.06.07.14s.05.24.12.32a1.16,1.16,0,0,1,.23.37.82.82,0,0,1,0,.28c0,.09-.19.24-.22.24s-.13.13-.2.2a.27.27,0,0,1-.07.08,4.27,4.27,0,0,1-1-.16,8.14,8.14,0,0,0-1.07-.55c-.06,0-.09-.09-.12-.14a8.16,8.16,0,0,0-.8-.36c-.13-.11-.3-.12-.38-.33a.12.12,0,0,0-.08-.06c-.27-.1-.5-.26-.75-.38a2.12,2.12,0,0,0-.41-.12s0,0-.07,0-.05,0-.09,0a3.59,3.59,0,0,0-1-.16c-.07,0-.46-.16-.55-.13S267.69,106.08,267.65,106.13Z"/><path class="cls-1" d="M315.27,52.8c-.07-.19.23-.19.76,0a2.39,2.39,0,0,1,.68.35,3,3,0,0,1,.25.36c0,.07,0,.81,0,1.07a2,2,0,0,1-.12.7c-.15.45-.26.91-.37,1.38a.8.8,0,0,1-.16.3,2,2,0,0,0-.4,1.06c0,.07,0,.13,0,.21a2.7,2.7,0,0,1-.23,1.27c-.24.3-.44.6-.66.9,0,0,0,.11-.12.12-.26,0-.25.16-.3.25a1.21,1.21,0,0,1-.26.39.88.88,0,0,1-.32.13.75.75,0,0,1-.45-.13c-.08-.09-.25-.09-.39-.12l-.14,0a4.31,4.31,0,0,1-.41-1.07s0-.31.05-.63,0-.66,0-.74.06-.13.11-.19.07-1,.09-1.06c.08-.19,0-.42.29-.57,0,0,0-.07.06-.11a4.27,4.27,0,0,1,.38-1,3.35,3.35,0,0,0,.16-.54s.05,0,.07-.08a.28.28,0,0,0,.08-.11c.12-.43.37-.81.45-1.26,0-.11.43-.47.45-.59S315.3,52.88,315.27,52.8Z"/><path class="cls-1" d="M319.38,75.2c-.08.24-.36,0-.8-.42a2.4,2.4,0,0,1-.43-.76,2.19,2.19,0,0,1,.08-.54,9.83,9.83,0,0,1,1.24-1.17,3.17,3.17,0,0,1,1-.57c.72-.28,1.44-.56,2.15-.77a1.38,1.38,0,0,1,.5-.06,3.87,3.87,0,0,0,1.63-.28c.09,0,.18,0,.24-.16a3.85,3.85,0,0,1,1.7-.49c.5.09,1,.06,1.45.13.07,0,.13,0,.22.06a.46.46,0,0,0,.48.12c.2,0,.4,0,.62,0a1.59,1.59,0,0,1,.37.16c.11,0,.18.35.16.39s.08.24.13.35a.69.69,0,0,1,.05.13,8.67,8.67,0,0,1-1,1.22l-.27.17a5.93,5.93,0,0,1-.58.31c-.43.2-.89.42-1,.47a.5.5,0,0,1-.32,0c-.05,0-1.34.55-1.39.56-.28,0-.52.2-.85,0a.2.2,0,0,0-.17,0,8,8,0,0,1-1.38.25,6.55,6.55,0,0,0-.67.2s-.09,0-.14,0a.85.85,0,0,0-.16,0,6.46,6.46,0,0,0-1.52.58c-.11.06-.75.07-.87.17S319.41,75.1,319.38,75.2Z"/></g></svg>