<svg xmlns="http://www.w3.org/2000/svg" width="520" height="520" viewBox="0 0 520 520"><defs><style>.cls-1{fill:#231f20;}.cls-2{fill:#242021;}</style></defs><title>Notioly New</title><g id="n.137_Election" data-name="n.137 Election"><path class="cls-1" d="M279.77,121c-.22.32-.62.25-1.13,0-.16-.09-.43-.51-.39-.63a4.8,4.8,0,0,1,.3-.65c.06-.12,1.59-1.45,2.13-1.9a10.25,10.25,0,0,1,1.7-1.13,21.13,21.13,0,0,1,3.91-1.71,4,4,0,0,1,1-.19c1.14,0,2.24-.22,3.39-.23a1.48,1.48,0,0,0,.58-.08,5.64,5.64,0,0,1,1.89.09c.42.09.85.2,1.2.29a3.77,3.77,0,0,1,.67.27,20.5,20.5,0,0,1,2.4,1.69c.11.09.25.13.29.3.1.38.36.48.58.67a7.48,7.48,0,0,1,.82.87,2.16,2.16,0,0,1,.28.57c.07.18-.2.39-.27.39s-.19.2-.27.32a.5.5,0,0,1-.08.12,10.42,10.42,0,0,1-1.16-.24,7.21,7.21,0,0,0-.81-.16,3.43,3.43,0,0,1-.44-.12l-.44-.21c-.26-.14-.62-.23-1-.37a6,6,0,0,0-1-.3l-.58-.16a1.27,1.27,0,0,1-.44-.21,10.2,10.2,0,0,0-2.27-.2,4.42,4.42,0,0,1-1.33-.17.5.5,0,0,0-.27,0c-.39.08-.78.11-1.17.16s-.79.12-1.19.2-.8.26-1.2.41a.85.85,0,0,1-.23,0,1.53,1.53,0,0,0-.29.07,17.32,17.32,0,0,0-2.77,1.36c-.2.12-1.32.52-1.55.69S279.85,120.84,279.77,121Z"/><path class="cls-1" d="M245.61,166.74a24.55,24.55,0,0,1-6.36-2.23l-1.09-.59c-.36-.21-.71-.45-1-.69a15.28,15.28,0,0,1-1.68-1.43q-.75-.77-1.44-1.59a24.25,24.25,0,0,1-2.45-3.51,34.47,34.47,0,0,1-1.72-3.37,11.11,11.11,0,0,1-1.15-4.69c0-.51.32-.48.76-.14a4.21,4.21,0,0,1,1.33,1.76c.29.7.52,1.41.79,2.12s.59,1.38.91,2.07a31.77,31.77,0,0,0,2.34,4,15.43,15.43,0,0,0,1.84,2.14c.35.31.71.6,1.06.9s.77.53,1.14.81a18.72,18.72,0,0,0,5.74,2.42c.63.17,1.27.27,1.91.41l1.94.25a23.86,23.86,0,0,0,5.91-.18,18.43,18.43,0,0,0,4.3-1.29c.3-.14.58-.29.88-.42,1.11-.48,1.49-.56,2-.22a2.79,2.79,0,0,1,.31.2c.28.24,0,.8-.84,1.36a18.62,18.62,0,0,1-8.59,2.45,27.47,27.47,0,0,1-6.77-.45Z"/><path class="cls-1" d="M291.49,163.87a21.68,21.68,0,0,1-5.87-2.11,15.66,15.66,0,0,1-2-1.13,18.86,18.86,0,0,1-1.59-1.24c-.51-.44-1-1-1.43-1.43s-.84-1.07-1.22-1.61-.69-1.12-1-1.7a31.35,31.35,0,0,1-1.49-3.16,8.07,8.07,0,0,1-.86-4.35c.07-.47.33-.43.76-.12.22.16.5.38.81.63a2.46,2.46,0,0,1,.61.95A26.92,26.92,0,0,0,281.6,156a11.86,11.86,0,0,0,3.8,3.28,20.62,20.62,0,0,0,5.22,2.22l1.73.36c.58.07,1.16.15,1.75.21a17.14,17.14,0,0,0,5.3-.47,12.32,12.32,0,0,0,3.59-1.79c.24-.17.46-.35.7-.51.83-.68,1.18-.78,1.77-.48a3.54,3.54,0,0,1,.39.19c.38.24.28.86-.37,1.53a13.21,13.21,0,0,1-7.62,3.55,21,21,0,0,1-6.38-.21Z"/><path class="cls-1" d="M210.43,447.76c-.07-2.94-.08-5.89-.13-8.83l-.08-3.22-.06-11.36c0-1.68,0-3.37,0-5,0-2.15-.09-4.3.06-6.44.09-1.34,1,.37,1.14,2.82.13,4.36.29,8.72.19,13.13,0,2.64.1,5.38.16,8.07l.17,8.89.08,5.48c.05,2.76.1,5.54.15,8.28.09,2.13.17,4.22.25,6.33,0,.46,0,.92.05,1.39,0,1.73-.11,2.29-.37,2.66a1.35,1.35,0,0,1-.17.25c-.16.17-.4-.54-.52-1.81-.31-3.75-.5-7.72-.63-11.7l-.27-8.9Z"/><path class="cls-1" d="M308.17,397.54l-32.58.55-11.88.23c-14,.19-27.92.38-41.89.42-1.55,0-3.1,0-4.66,0l-2.34,0h-.29a.89.89,0,0,1-.4-.06l-.57-.18c-.38-.1-.75-.24-1.12-.37-2.95-1.07-5.78-2.34-8.58-3.63a181.69,181.69,0,0,1-21-11.21c-2.06-1.37-1.59-1.46.34-.62s5.38,2.48,9.38,4.6q5.32,2.82,10.78,5.4c1.81.86,3.64,1.69,5.47,2.49a58.12,58.12,0,0,0,5.54,2.12c.16.05.13,0,.16,0h1.12l1.5,0c1,0,2,0,3,0h6.06l12.17-.07c9.72,0,19.84-.32,29.79-.49l32.81-.6,20.2-.39,30.55-.66,23.35-.74,5.11-.17c6.4-.16,8.44-.11,9.82.3.32.09.73.17.92.25.61.26-2,.67-6.67.84-13.89.6-28.55,1-43.27,1.3l-32.86.68Z"/><path class="cls-1" d="M292.58,261.46c-.13-.23-.3-.46-.47-.7-.07-.09-.17-.14-.24-.22-.23-.32-.48-.65-.75-1a2,2,0,0,0-.41-.35c-.18-.14-.42-.24-.48-.51s1-.9,1.14-.77a3.08,3.08,0,0,1,.91.95c.14.25.42.37.63.57a6.56,6.56,0,0,1,.67.72c.13.16.26.33.38.5s.34.54.52.8.36.38.53.6a.78.78,0,0,1,.1.15c.07.2,0,.3-.43.44l-.29.1a1.15,1.15,0,0,1-.75,0,1.47,1.47,0,0,1-.69-.69,6.53,6.53,0,0,0-.4-.63Z"/><path class="cls-1" d="M260,262l-1.7,1.44c-.21.18-.4.38-.61.55q-1.14.9-2.34,1.71l-1.05.75a4.07,4.07,0,0,1-1.49.77c-.18,0-.25-.22-.22-.51a1,1,0,0,1,.37-.77c.87-.51,1.71-1.15,2.62-1.74a11.45,11.45,0,0,0,1.5-1.3l1.63-1.5,1-.94c.49-.49,1-1,1.47-1.46s.65-.86,1-1.24c.08-.09.15-.18.24-.27.35-.28.57-.26.82-.11.05,0,.12.07.16.11s.15.41,0,.71a8.83,8.83,0,0,1-1.8,2.27c-.51.53-1.06,1-1.62,1.55Z"/><path class="cls-1" d="M147,328.19s-4.84,5.38-3.26,10.44,7.09-1.72,7.09-1.72Z"/><path class="cls-1" d="M390.79,294.15s8.88,5.59,11.67,4.32-6.52-17.53-9.65-18.79Z"/><path class="cls-1" d="M366.87,342.84s-17.56-1.36-20.53-9c0,0-2.54-4.21-1.13-6.9,1.81-3.47,10.28-.88,14.38,4.8S366.87,342.84,366.87,342.84Z"/><path class="cls-1" d="M332.84,347.66s-15.7-.67-18.67-8.35c0,0-2.53-4.2-1.13-6.89,1.82-3.48,8.42-1.58,12.53,4.1S332.84,347.66,332.84,347.66Z"/><path class="cls-1" d="M269.25,267.89s3.8,37,4.27,39.3c0,0,16.5,42.2,19.49,38.32s6.12-28.09,6.12-28.09-3-40.91-12.25-51.93a6.57,6.57,0,0,1-2.06,3.23,10,10,0,0,1-13.6.22C270.88,268.62,269.55,268.27,269.25,267.89Z"/><path class="cls-1" d="M262.2,258.05s7.75,12.07,17.53,12c0,0,7.74-2.48,10-13.85,0,0-9.14-10.59-20-7.63C269.69,248.57,265.5,255.55,262.2,258.05Z"/><path class="cls-1" d="M199.21,143.94s6.16-2.82,10.63-.1,6.83,10.68,8.39,5.54-.95-13.63-.95-13.63,12.45-18.8,11-28.86c-2.12-15.18-10.09-17-21.69-14.53,0,0-19,3.58-25.77,16.32s-4.89,25.24,1.75,30.52S199.21,143.94,199.21,143.94Z"/><path class="cls-1" d="M229.24,94.8s19.84-45,51.35-48.17,32.92-5.42,51.63,13.84c0,0,8.44,19.66,4.07,29S323.68,117.63,272.1,117C272.1,117,237.25,112.57,229.24,94.8Z"/><path class="cls-1" d="M282.83,219.87a30.61,30.61,0,0,1-5.38,1.63,28.51,28.51,0,0,1-5.6.63,25,25,0,0,1-5.61-.5c-.91-.19-1.82-.35-2.71-.62s-1.79-.48-2.65-.81a37.42,37.42,0,0,1-7.34-3.34,49.2,49.2,0,0,1-10.83-9,72.71,72.71,0,0,1-8.33-11.17,114.34,114.34,0,0,1-5.82-10.84,69,69,0,0,1-5.31-14.76c-.31-1.61.19-1.5,1.05-.33a28.41,28.41,0,0,1,3.25,6.1c3.81,9.69,8.57,19.07,15.11,27.23A44.12,44.12,0,0,0,257.38,216a35.87,35.87,0,0,0,9.88,3.22,25.24,25.24,0,0,0,5.14.32,29.86,29.86,0,0,0,5.14-.72,28.24,28.24,0,0,0,11.41-5.6,27.85,27.85,0,0,0,6.18-7.48,44.76,44.76,0,0,0,4-9,82.13,82.13,0,0,0,3-14.86c.12-1.11.24-2.2.36-3.32.48-4.15.86-5.46,1.67-6.27a3.43,3.43,0,0,1,.54-.54c.55-.34.85,1.42.67,4.5a104.28,104.28,0,0,1-1.79,14.05c-.48,2.37-1.1,4.75-1.83,7.11a53.06,53.06,0,0,1-2.79,7c-.38.85-.88,1.66-1.32,2.49s-1,1.59-1.5,2.39-1.12,1.53-1.68,2.29a27.13,27.13,0,0,1-6.44,5.74,29,29,0,0,1-5.06,2.64Z"/><path class="cls-1" d="M196.24,148.39c-1.66,2.6-1.75,6.21-.88,9.47a19.79,19.79,0,0,0,1.35,3.47,18.5,18.5,0,0,0,9.19,9.16,13.06,13.06,0,0,0,5.76.95,24.62,24.62,0,0,0,7.37-1.76c.77-.26.88.14.44.84a6.37,6.37,0,0,1-1.07,1.24,8,8,0,0,1-1.91,1.14c-.69.22-1.39.44-2.1.64a14.67,14.67,0,0,1-2.19.34,16.74,16.74,0,0,1-2.24,0l-1.11-.1-1.11-.21a16.37,16.37,0,0,1-7.79-4,24.26,24.26,0,0,1-6.09-8.55,17.14,17.14,0,0,1-.77-11.48,10.21,10.21,0,0,1,4.54-5.64,15.15,15.15,0,0,1,10.51-1.25,16.51,16.51,0,0,1,3.91,1.31,16.34,16.34,0,0,1,1.82,1c.29.2.56.42.84.64a4.84,4.84,0,0,1,.8.7l.67.65a7.13,7.13,0,0,1,.58.75,5.89,5.89,0,0,1,.74,1.28,3,3,0,0,1,.33,1,2.18,2.18,0,0,1-.23,1.24,2.11,2.11,0,0,1-.23.4c-.25.29-1-.4-1.82-1.53a13.61,13.61,0,0,0-11.14-5.52c-3.28,0-6.57,1.26-8.12,3.9Z"/><path class="cls-1" d="M205.1,143.77a13.65,13.65,0,0,0-3.06.1c-.48.08-1,.19-1.62.31l-1.72.32a20.24,20.24,0,0,1-7.35.26,22.57,22.57,0,0,1-6.85-2.61,19.78,19.78,0,0,1-5.63-4.73,18.73,18.73,0,0,1-4-9.86,23.42,23.42,0,0,1,0-4.66,29,29,0,0,1,.76-4.55,36.7,36.7,0,0,1,3.29-8.5,37.93,37.93,0,0,1,5.2-7.44,29.88,29.88,0,0,1,3.29-3.17A43.48,43.48,0,0,1,191,96.6a42,42,0,0,1,14.64-6.31,22.87,22.87,0,0,1,10.34.22,19.92,19.92,0,0,1,4.82,2,22.91,22.91,0,0,1,4.1,3.13c1.52,1.51,1,1.58-.61.78-.81-.39-1.94-.92-3.28-1.49s-2.92-1.08-4.61-1.6a19.52,19.52,0,0,0-4.62-.79,26.75,26.75,0,0,0-4.72.26,32.66,32.66,0,0,0-9.19,2.91,48.92,48.92,0,0,0-8.41,5.14,31.61,31.61,0,0,0-6.61,7.16A33.27,33.27,0,0,0,178,119a22.59,22.59,0,0,0,.12,11.83,16.2,16.2,0,0,0,8.25,9.53,17.44,17.44,0,0,0,6.14,2.1,21.17,21.17,0,0,0,6.57-.53l2.1-.42a16.87,16.87,0,0,1,2.24-.25,15.42,15.42,0,0,1,4.49.46,15,15,0,0,1,4.16,1.76c.33.19.63.41.94.62a7.94,7.94,0,0,1,.91.79,20,20,0,0,1,1.43,1.66l.54.69a1.72,1.72,0,0,0,.64.56c.15,0,.27-.09.32-.21a1.93,1.93,0,0,0,.12-.41,6,6,0,0,0,.08-.85,4.25,4.25,0,0,0,0-.53c0-.25,0-.5,0-.75a13.38,13.38,0,0,0-.18-1.52c-.16-1-.41-2.08-.58-3.18a11.36,11.36,0,0,1-.08-3.45,10.17,10.17,0,0,1,1.16-3.27c1-1.94,2.1-3.77,3.12-5.63,3.17-5.76,5.8-11.78,6.46-18.06a25.4,25.4,0,0,0,0-4.09,23.85,23.85,0,0,0-.47-3.14c-.1-.43-.16-.82-.25-1.17s-.17-.66-.23-.95a8.15,8.15,0,0,1-.35-2.53,6.09,6.09,0,0,1,.05-.9c.1-.37.51-.13,1.21.66A11.72,11.72,0,0,1,229.1,102a23,23,0,0,1,.49,9.43,39.94,39.94,0,0,1-2.56,9.11A77.84,77.84,0,0,1,222.9,129q-1.14,2-2.29,4.05a16.76,16.76,0,0,0-1.74,3.72c-.41,1.69.13,3.72.57,6.15a19,19,0,0,1,.22,1.9c0,.33,0,.67,0,1s0,1.06-.08,1.59a5.42,5.42,0,0,1-.78,2.76,2.44,2.44,0,0,1-.83.69,2.09,2.09,0,0,1-1.14.22,3.42,3.42,0,0,1-2.15-1.3c-.36-.41-.72-.86-1.07-1.31l-.66-.84a11.44,11.44,0,0,0-1-1.12,4.37,4.37,0,0,0-.48-.41c-.22-.14-.42-.3-.63-.43a12.47,12.47,0,0,0-5.75-1.88Z"/><path class="cls-1" d="M328.17,100.85a28.13,28.13,0,0,0,5.64-8.67c.28-.82.63-1.62.87-2.45s.51-1.67.66-2.54.37-1.72.47-2.57.17-1.73.2-2.6a42.06,42.06,0,0,0-4.61-20.51,30.23,30.23,0,0,0-10.21-11.29,32.1,32.1,0,0,0-6.05-3.06,36.28,36.28,0,0,0-6.6-1.76,52,52,0,0,0-13.77-.4,78.53,78.53,0,0,0-13.69,2.42,71.18,71.18,0,0,0-13,5,76.81,76.81,0,0,0-19.91,14.5,88.09,88.09,0,0,0-10.05,12.16,75.19,75.19,0,0,0-7.69,13.7c-.29.75-.48,1.27-.62,1.6s-.2.44-.29.42-.17-.21-.22-.61a8,8,0,0,1,.11-1.7A37.18,37.18,0,0,1,235,79.33a88,88,0,0,1,10.35-12.9,80.36,80.36,0,0,1,12.66-10.68,73.82,73.82,0,0,1,30.69-12.16c1.64-.24,3.3-.42,5-.62s3.34-.27,5-.3A50.14,50.14,0,0,1,309,43.3a36.76,36.76,0,0,1,9.88,3.06,31.49,31.49,0,0,1,8.5,5.94,38.19,38.19,0,0,1,10.18,19.91,43.64,43.64,0,0,1,.8,11.24,33.29,33.29,0,0,1-2.84,11,30.51,30.51,0,0,1-1.63,3.1c-.3.5-.64,1-1,1.46l-.49.73-.55.69a31.87,31.87,0,0,1-4.84,5,40.7,40.7,0,0,1-5.7,4,53.1,53.1,0,0,1-6.21,3,77.47,77.47,0,0,1-20.18,4.88,128.33,128.33,0,0,1-20.63.63,69.22,69.22,0,0,1-15.73-2.43A82.67,82.67,0,0,1,243.7,110a61.27,61.27,0,0,1-6.13-3.39c-7.37-4.81-8.76-8.32-8.55-10.36a5.84,5.84,0,0,1,.11-.73,2.44,2.44,0,0,1,.21-.55c.12-.2.23-.11.35.17a8.54,8.54,0,0,0,.58,1.36,17.18,17.18,0,0,0,4.42,4.9,57.25,57.25,0,0,0,11.89,7A85.87,85.87,0,0,0,260,113.12a64.67,64.67,0,0,0,14.14,2.18,129.5,129.5,0,0,0,14.61-.09A89.78,89.78,0,0,0,310,111.45c6.8-2.17,13.36-5.48,18.15-10.63Z"/><path class="cls-1" d="M258.09,165.55a26.14,26.14,0,0,1-10.59.66c-.88-.11-1.75-.32-2.62-.5a26.07,26.07,0,0,1-2.55-.82,19.34,19.34,0,0,1-4.74-2.58c-.5-.43-1.05-.85-1.52-1.3l-1.35-1.37-1.25-1.48-1.11-1.59a22.89,22.89,0,0,1-3.6-13A21.84,21.84,0,0,1,233.27,131a22.35,22.35,0,0,1,4.25-4.22,23.54,23.54,0,0,1,5.19-2.93,23.21,23.21,0,0,1,7.42-1.69l1.9,0c.63,0,1.26.08,1.89.12s1.25.17,1.87.26c.31,0,.61.11.92.17a6.87,6.87,0,0,1,1,.29c.79.31,1,.64.93.78s-.55.17-1.2.24-1.55.32-2.64.41c-.54,0-1.12.15-1.73.2s-1.25.11-1.91.17a28.29,28.29,0,0,0-6.8,1.36,19.92,19.92,0,0,0-6,3.31,19.69,19.69,0,0,0-6.93,11.71A19.89,19.89,0,0,0,236,157.37a21.1,21.1,0,0,0,1.62,1.79,7.22,7.22,0,0,0,.88.79,7.1,7.1,0,0,0,.91.73l1,.66c.33.21.7.37,1.05.56a16.53,16.53,0,0,0,2.2.94,23.88,23.88,0,0,0,9.59,1.11,19.53,19.53,0,0,0,10.92-4.32,20.29,20.29,0,0,0,5.17-7.36,19.26,19.26,0,0,0,1.32-8.91,20.14,20.14,0,0,0-1.73-6.72l-.34-.8c-.12-.25-.28-.5-.41-.75l-.85-1.5-1-1.4c-.17-.23-.32-.47-.51-.69l-.57-.64-1-1.11-1.12-1a20.88,20.88,0,0,0-1.81-1.52c-.51-.4-.88-.8-1.24-1.06a3.45,3.45,0,0,1-1.21-1.51,3.87,3.87,0,0,1-.28-.67c-.06-.32.3-.36,1.05-.19a9.38,9.38,0,0,1,3.15,1.46c7.7,4.86,12.28,15.41,9.85,25.09a21.94,21.94,0,0,1-5.16,9.59,16.07,16.07,0,0,1-2,1.95,10.25,10.25,0,0,1-1.13.83,11.15,11.15,0,0,1-1.17.76,19.52,19.52,0,0,1-2.47,1.22,20.34,20.34,0,0,1-2.58.92Z"/><path class="cls-2" d="M217.68,145.58s0,0,0,0a.2.2,0,0,1,.18,0,12.78,12.78,0,0,0,1.53.37l1.37.21c.9.13,1.78.22,2.67.32,1.77.18,3.52.32,5.29.44t.09.12l0,0a12.93,12.93,0,0,0,.24-3.65l0,0c0,.07-.07.11-.1.1l-.42,0c-1.66-.12-3.32-.26-5-.42-.82-.09-1.64-.18-2.44-.3-.4,0-.8-.12-1.17-.19a7.06,7.06,0,0,1-1-.22s0,0,0-.12v0a4,4,0,0,0-.25.48c-.13.3-.32.72-.53,1.18A3.91,3.91,0,0,0,217.68,145.58Z"/><path class="cls-1" d="M303.45,161.58a19.36,19.36,0,0,1-9.67,1.73,22.48,22.48,0,0,1-9.25-2.8,16.55,16.55,0,0,1-5.43-4.68,21.68,21.68,0,0,1-3.89-11.6,24.25,24.25,0,0,1,2.53-11.83,20.73,20.73,0,0,1,7.05-8.12,17.91,17.91,0,0,1,6.42-2.71,14.39,14.39,0,0,1,3.53-.21,11,11,0,0,1,3.4.91c1.33.61,1,.82-.26.93a7,7,0,0,0-1.07.14,10.78,10.78,0,0,0-1.32.25c-.93.17-2,.32-3.06.54a17.22,17.22,0,0,0-10.25,6.11,21,21,0,0,0-3.05,5.4,23.21,23.21,0,0,0-1.46,6.18,18.49,18.49,0,0,0,1,7.67,16.62,16.62,0,0,0,4.07,6.55,17.19,17.19,0,0,0,7.45,4.06,18.46,18.46,0,0,0,8.58.32,14.51,14.51,0,0,0,4.88-2,15.78,15.78,0,0,0,3.83-3.65,21.38,21.38,0,0,0,3.87-15.54,18.37,18.37,0,0,0-1.9-5.94,17.24,17.24,0,0,0-3.76-4.79,17.57,17.57,0,0,0-2.14-1.57c-.68-.47-1.3-.78-1.8-1.08a13.87,13.87,0,0,1-1.26-.73,4,4,0,0,1-1.51-2.07c-.06-.33.28-.44,1-.37a12,12,0,0,1,3,.87,18.29,18.29,0,0,1,9.13,8.84,23.12,23.12,0,0,1,2,13,23.71,23.71,0,0,1-3.24,9.31,20.61,20.61,0,0,1-3.11,3.93,16.44,16.44,0,0,1-2,1.65,8.37,8.37,0,0,1-1.08.71c-.38.21-.74.44-1.12.63Z"/><path class="cls-1" d="M290.36,173.22a2.6,2.6,0,0,0,.31-1.32,6.84,6.84,0,0,0-.32-1.7,16.42,16.42,0,0,0-1.69-3.52c-.51-.84-1.13-1.62-1.71-2.43q-1.56-2.13-3.32-4.17c-1.16-1.35-2.38-2.73-3.53-4.14a23.78,23.78,0,0,1-2.84-4.08,11.16,11.16,0,0,1-1.32-6.21c.05-.65.3-.56.65,0a15.24,15.24,0,0,1,1.24,2.43c.38.9.73,1.76,1.18,2.6a23.41,23.41,0,0,0,1.53,2.43c.57.79,1.21,1.56,1.87,2.36l2,2.41c1.61,1.95,3.47,3.86,5,6a27.81,27.81,0,0,1,2.31,3.74A10.87,10.87,0,0,1,293,172a4.75,4.75,0,0,1-.89,3,4.91,4.91,0,0,1-1.13,1.1,7.12,7.12,0,0,1-1.38.69,9,9,0,0,1-4.31.22,20.81,20.81,0,0,1-4-1,33.55,33.55,0,0,1-5.75-2.47c-.39-.26-.79-.48-1.16-.77-1.4-1.08-1.66-1.76-1.43-2.43a2,2,0,0,1,.16-.42c.13-.2.38-.22.7-.14a4.31,4.31,0,0,1,1.18.56,39.07,39.07,0,0,0,9.6,3.95,10,10,0,0,0,3.52.22c.23-.08.48-.12.71-.19s.4-.17.58-.3a2.13,2.13,0,0,0,.86-.85Z"/><path class="cls-1" d="M279.9,195.76a3,3,0,0,1,.74-1.36s-.34.16-.18.07-.12-.07.06,0c-.22-.13.09.1,0,0s.17.17.2.2a3.69,3.69,0,0,1,.72,3,4.11,4.11,0,0,1-.74,1.66,1.26,1.26,0,0,1-.45.38c-.16.09-.07,0-.09,0s-.14,0-.09,0,.07.11-.07-.08c.13.17-.06-.12-.07-.15a4.55,4.55,0,0,1-.23-2c.09-1.93-2.91-1.93-3,0-.11,2.21.69,5.21,3.4,5.24,2.36,0,3.88-2.47,4.28-4.51a6.3,6.3,0,0,0-2.2-6.26,2.9,2.9,0,0,0-3.05-.24A5,5,0,0,0,277,195c-.55,1.86,2.34,2.65,2.9.8Z"/><path class="cls-1" d="M240.38,256a30.57,30.57,0,0,1-.63-5.48c0-.67-.08-1.34,0-2a26.67,26.67,0,0,1,1.51-6.84c.34-1,.65-2,1.07-2.91a11,11,0,0,1,1-1.82,4.11,4.11,0,0,1,1.67-1.43c.46-.2.56.31.55.89,0,.29,0,.57,0,.88a1.88,1.88,0,0,1-.25.8,13.91,13.91,0,0,0-1.39,3.11c-.39,1.14-.73,2.33-1.08,3.53a12,12,0,0,0-.41,2.24,21.06,21.06,0,0,0-.06,2.25,26.67,26.67,0,0,0,.48,5c.2,1,.45,2,.75,3a35.11,35.11,0,0,0,1.66,4.53c.53,1.13,1.22,2.17,1.85,3.24.14.24.3.46.43.7.48.91.44,1.29-.11,1.79a2.43,2.43,0,0,1-.38.34c-.45.32-1,.14-1.52-.47a27.34,27.34,0,0,1-3.41-6.16,35.47,35.47,0,0,1-1.69-5.23Z"/><path class="cls-1" d="M264.07,256.81c-1.13,1.09-2.29,2.16-3.47,3.19-.43.38-.82.8-1.26,1.17-1.56,1.28-3.15,2.52-4.79,3.7-.71.54-1.43,1.08-2.12,1.66a11,11,0,0,1-2.9,1.88c-.35.13-.57-.37-.58-1a1.88,1.88,0,0,1,.67-1.65c1.81-1.27,3.6-2.63,5.52-3.9a29.42,29.42,0,0,0,3.2-2.73c1.15-1,2.3-2.07,3.42-3.14.69-.66,1.38-1.32,2-2a39.68,39.68,0,0,0,2.89-3.21c.68-.88,1.21-1.83,1.78-2.74.14-.19.22-.4.35-.59a3.67,3.67,0,0,1,.56-.71,1.06,1.06,0,0,1,.6-.18l.33,0c.32,0,.48.48.3,1.25a15.41,15.41,0,0,1-3.26,5.54c-1,1.22-2.13,2.37-3.24,3.51Z"/><path class="cls-1" d="M286.64,253.52c-.7-.55-1.42-1.11-2.17-1.61a21.14,21.14,0,0,0-2.37-1.33,18.36,18.36,0,0,0-1.84-.77,22,22,0,0,0-6.87-1.61,15.9,15.9,0,0,0-3.16.12,19.8,19.8,0,0,0-2,.32,14.64,14.64,0,0,1-2,.33c-.42,0-.48-.34-.22-.78a2.79,2.79,0,0,1,1.66-1.18,20.74,20.74,0,0,1,8.77-.13c.86.21,1.74.41,2.63.58s1.75.49,2.59.81l1.36.6.68.31.64.36,1.29.74c.42.26.81.56,1.22.84a12.86,12.86,0,0,1,1.45,1.1c.45.4.94.77,1.37,1.19a23.78,23.78,0,0,1,1.89,2l.89,1,.81,1.1c.44.55.83,1.14,1.23,1.72a12.52,12.52,0,0,1,1.12,1.82,9.32,9.32,0,0,1,.45.83c.37,1.12.33,1.54-.15,1.92a2.69,2.69,0,0,1-.33.26c-.39.21-.89-.12-1.29-.79a50.54,50.54,0,0,0-3.88-5.92l-.86-1c-.3-.34-.62-.65-.93-1a21.71,21.71,0,0,0-2-1.82Z"/><path class="cls-1" d="M301.45,240.15a24.16,24.16,0,0,1,2,2.33l.89,1.24.76,1.33c.17.33.39.63.56,1s.31.68.44,1a20,20,0,0,1,1,3.77,22.54,22.54,0,0,1,.14,3.84c0,.56,0,1.12-.06,1.68l-.21,1.66-.12,1.06a9,9,0,0,1-.23,1,14.06,14.06,0,0,1-.67,2c-.18.4-.59.21-.95-.27a2.7,2.7,0,0,1-.53-2,34.06,34.06,0,0,0,.44-7.86,12.17,12.17,0,0,0-1.43-4.58,8.73,8.73,0,0,0-.62-1.17c-.24-.38-.43-.79-.69-1.16a20.06,20.06,0,0,0-1.67-2.13,24.65,24.65,0,0,0-2.43-2.36,27.14,27.14,0,0,0-4.29-2.9,29.66,29.66,0,0,0-3.7-1.52c-.28-.1-.56-.17-.83-.29-1-.47-1.23-.79-1.22-1.46a3.31,3.31,0,0,1,0-.45c.07-.47.65-.67,1.5-.56a19.92,19.92,0,0,1,7.23,2.93,29.47,29.47,0,0,1,4.76,3.76Z"/><path class="cls-1" d="M283.19,270.28l-.82.47c-.28.13-.58.24-.88.36a9.37,9.37,0,0,1-.89.31l-.94.2a10.21,10.21,0,0,1-3.7-.05,7.68,7.68,0,0,1-1.28-.29c-.41-.12-.84-.22-1.24-.38a20.55,20.55,0,0,1-6.86-5.26c-.84-.94-1.63-1.91-2.36-2.91a15.43,15.43,0,0,1-2.33-4.15c-.16-.48.19-.56.69-.35a4,4,0,0,1,1.7,1.34,34.7,34.7,0,0,0,2.87,3.5,43.37,43.37,0,0,0,3.18,3.18,12,12,0,0,0,4.76,2.47,7.74,7.74,0,0,0,5.51-.11l.41-.16.38-.23.77-.46a12.78,12.78,0,0,0,1.38-1.19,18,18,0,0,0,3.31-4.67,28.94,28.94,0,0,0,1.55-4.23c.1-.32.16-.64.29-.95.45-1.15.76-1.46,1.52-1.46a4.34,4.34,0,0,1,.51,0c.54.07.78.71.64,1.65a18.54,18.54,0,0,1-1.17,4.15,24,24,0,0,1-2,4.06,16.16,16.16,0,0,1-4.93,5.21Z"/><path class="cls-1" d="M270.52,291.79c-.07-2-.18-4.05-.35-6.07-.06-.74-.21-1.47-.25-2.21-.17-2.61-.38-5.22-.69-7.83-.13-1.15-.33-2.3-.52-3.44a29.78,29.78,0,0,1-.63-4.42c0-.46.37-.47.83-.15a3.18,3.18,0,0,1,1.2,1.78,56.65,56.65,0,0,1,1.56,9c.15,1.84.58,3.7.82,5.57q.36,3.08.58,6.18c.11,1.27.16,2.54.25,3.81.09,1.93.17,3.86.26,5.77.1,1.49.32,3,.46,4.43,0,.32.09.64.1,1,0,1.22-.16,1.6-1,1.84-.19.05-.37.12-.55.15-.62.1-1.12-.4-1.27-1.28a61.39,61.39,0,0,1-.64-8c-.07-2-.14-4.06-.27-6.1Z"/><path class="cls-1" d="M296,299.05l-.33-2.36-.41-2.36c-.24-1.58-.57-3.14-.91-4.7-.22-1.14-.57-2.25-.85-3.39-1-4-2.08-8-3.38-11.9-.57-1.74-1.18-3.49-1.81-5.21a30.72,30.72,0,0,1-1.85-6.89c-.1-.74.27-.7.79-.19a9.21,9.21,0,0,1,1.77,2.68,94,94,0,0,1,4.76,13.59c.75,2.81,1.72,5.69,2.45,8.58.41,1.59.73,3.2,1.1,4.8s.6,3.23.87,4.85c.24,2,.59,4,.76,6,.13,1.52.33,3,.41,4.56s.18,3,.31,4.55c0,1.18.11,2.34.2,3.5a31.18,31.18,0,0,1,.16,3.48c0,.52,0,1,0,1.53,0,1.92-.25,2.53-.77,2.91a2,2,0,0,1-.36.26c-.37.17-.73-.62-.88-2-.2-2.06-.39-4.15-.54-6.28l-.18-3.2-.27-3.22c-.07-.79-.11-1.6-.19-2.39l-.27-2.4-.27-2.39-.37-2.38Z"/><path class="cls-1" d="M195.66,281.89c2.61-4.76,5.3-9.48,8.13-14.12,1-1.69,2-3.41,3.09-5.08a138.65,138.65,0,0,1,12.61-16.82,61.73,61.73,0,0,1,6.74-6.59,22.68,22.68,0,0,1,5.23-3.32,12.81,12.81,0,0,1,3.1-.86,8,8,0,0,1,3.27.23c1.32.46.87.93-.21,1.37s-2.6,1.23-4.37,1.94c-3.23,1.28-6.26,3.77-9,6.46a104.81,104.81,0,0,0-7.89,8.83,121.78,121.78,0,0,0-8.26,12.16q-4.31,6.89-8.28,14-2.45,4.38-4.79,8.82c-2.35,4.48-4.68,9-6.83,13.56-1.67,3.53-3.15,7.07-4.74,10.6-.34.78-.65,1.56-1.05,2.32a17.17,17.17,0,0,1-1.71,2.93,3.78,3.78,0,0,1-1.15,1.12,4.2,4.2,0,0,1-.48.27c-.42.14-.16-1.17.53-3.42a187.45,187.45,0,0,1,8.56-19.81c2.37-4.91,4.89-9.78,7.46-14.62Z"/><path class="cls-1" d="M186.59,368.65a24.17,24.17,0,0,0,6.79-4.65,54.11,54.11,0,0,0,5.73-6.42c1.29-1.68,2.46-3.45,3.65-5.22,4.2-6.22,8-12.8,11.69-19.4l4.89-8.84a67.86,67.86,0,0,1,7.1-10.87c.89-1,1.15-.56.86.63a21,21,0,0,1-2.26,5.25c-4.34,7.48-8.36,15.27-13,22.85-2.77,4.52-5.43,9.37-8.56,13.86A77.19,77.19,0,0,1,198,363a38.58,38.58,0,0,1-6.78,6.15,21.24,21.24,0,0,1-5.16,2.56l-1.44.32c-.24.05-.48.11-.73.15l-.73,0c-.49,0-1,.06-1.46.07l-1.45-.13a24,24,0,0,1-8.16-2.68,43.75,43.75,0,0,1-7-4.68,69.43,69.43,0,0,1-9.3-8.91c-.6-.73-1.26-1.39-1.8-2.18-2.1-2.85-2.46-4-2.32-4.95a3.11,3.11,0,0,1,.12-.66c.26-.55,1.4.4,3,2.34,4.76,5.68,10.12,11.44,16.63,15.43a26.62,26.62,0,0,0,7.57,3.25l1,.23,1,.1c.33,0,.66.07,1,.09l1,0a7.92,7.92,0,0,0,1.89-.28l.46-.09.47-.17.93-.34Z"/><path class="cls-1" d="M111,272.42c.22,1.62.46,3.23.72,4.85l.39,2.45.09.63.11.5a5.11,5.11,0,0,0,.29,1,15.58,15.58,0,0,0,2.35,3.83,46.71,46.71,0,0,0,3.21,3.58c1.66,1.69,3.45,3.29,5.18,4.95,6.13,5.84,12.19,12,17.14,18.95a81.91,81.91,0,0,1,6,9.68,49.61,49.61,0,0,1,4.91,13.66c.28,1.48-.14,1.36-.86.24a34.71,34.71,0,0,1-2.79-5.7,75.33,75.33,0,0,0-6.47-12.8,95.08,95.08,0,0,0-8.71-11.59c-3.81-4.44-8.41-8.48-12.82-12.61a73.4,73.4,0,0,1-7-7.3,15.63,15.63,0,0,1-2.6-4.63c-.13-.44-.21-.93-.3-1.37l-.18-1.21-.39-2.46c-.62-4.05-1.15-8.14-1.38-12.26a39.49,39.49,0,0,1,.2-7.52,12.48,12.48,0,0,1,1.06-3.75,4.2,4.2,0,0,1,3.45-2.59,1.41,1.41,0,0,1,1.17.41,2.49,2.49,0,0,1,.62,1.14,3.68,3.68,0,0,1,.15.56,4.63,4.63,0,0,1,.09.49c.06.33.1.65.13,1,.24,2.44.31,4.79.53,7.11a46,46,0,0,0,1.09,6.81,21.73,21.73,0,0,0,.93,2.79,18.22,18.22,0,0,0,1.82,3.3c.21.36.39.64.53.89s.24.49.33.7a5.28,5.28,0,0,1,.25.61c0,.27-.28.26-1,0a6.9,6.9,0,0,1-2.68-2.31,17.69,17.69,0,0,1-2.53-5.58,34.81,34.81,0,0,1-1-6c-.19-2-.27-4-.35-6,0-1-.1-1.95-.21-2.83,0-.22-.07-.43-.11-.61l0-.13h0l-.1,0a1.21,1.21,0,0,0-.14.1l-.14.08-.14.15a1.51,1.51,0,0,0-.27.32,5.62,5.62,0,0,0-.77,1.76,13.82,13.82,0,0,0-.41,2.2,33.9,33.9,0,0,0-.17,4.75,85.32,85.32,0,0,0,.89,9.75Z"/><path class="cls-1" d="M126.17,254a6.07,6.07,0,0,0,.57-1.64,1.87,1.87,0,0,0-.14-1.2c0-.07-.07-.08-.18-.11a1.61,1.61,0,0,0-.59.08,5.84,5.84,0,0,0-1.58.85,15.25,15.25,0,0,0-2.13,2,18.86,18.86,0,0,0-4.89,9.11,20.68,20.68,0,0,0,.06,4.71c.26,2,.51,4.06.88,6,.13.59-.2.67-.74.26a4.86,4.86,0,0,1-1.56-2.54,19,19,0,0,1-.55-3.23c-.1-1.09-.17-2.17-.18-3.27a14.72,14.72,0,0,1,.07-1.73,12.29,12.29,0,0,1,.33-1.73,14.61,14.61,0,0,1,1.25-3.18,26.18,26.18,0,0,1,4.74-6.61,14.77,14.77,0,0,1,1.77-1.46,7.39,7.39,0,0,1,2.2-1.07,2.87,2.87,0,0,1,1.49,0,2.24,2.24,0,0,1,.76.37,2.36,2.36,0,0,1,.52.64,3.73,3.73,0,0,1,.43,1.31,5.06,5.06,0,0,1,0,1.29,16.11,16.11,0,0,1-2.18,5.1,29.29,29.29,0,0,0-1.75,3.5,15,15,0,0,0-.82,3.75,33.51,33.51,0,0,0,0,6l.13,1.31a7.91,7.91,0,0,1,0,1.75,1.48,1.48,0,0,1-.45.84,3.75,3.75,0,0,1-.27.28c-.15.1-.32,0-.54-.29a3.15,3.15,0,0,1-.56-1.37,29.84,29.84,0,0,1-.61-5.73,23.39,23.39,0,0,1,.61-6,19,19,0,0,1,1.85-4.27c.71-1.28,1.41-2.51,2-3.68Z"/><path class="cls-1" d="M132.64,258.23a5.94,5.94,0,0,0,.52-1.6,2.22,2.22,0,0,0-.16-1.22.23.23,0,0,0-.15-.1,1.16,1.16,0,0,0-.52.08,5.4,5.4,0,0,0-1.47.89,14.85,14.85,0,0,0-2,2,20.06,20.06,0,0,0-4.48,9,11.76,11.76,0,0,0-.15,2.25c0,.79,0,1.56,0,2.33a15.39,15.39,0,0,0,1,5.52c.25.48,0,.68-.63.43a3.71,3.71,0,0,1-1.84-2.36,11.83,11.83,0,0,1-.45-3.24c0-1.06,0-2.1,0-3.1a14.5,14.5,0,0,1,1.57-6.35,27,27,0,0,1,4.29-6.56,12.8,12.8,0,0,1,1.63-1.48,6.48,6.48,0,0,1,2.08-1.13,2.43,2.43,0,0,1,1.47,0,2,2,0,0,1,.72.38,2.56,2.56,0,0,1,.49.63,3.7,3.7,0,0,1,.39,1.24,4.61,4.61,0,0,1,0,1.23,14.6,14.6,0,0,1-2,5,37.32,37.32,0,0,0-1.75,3.37,10.58,10.58,0,0,0-.87,3.54,25.78,25.78,0,0,0,.42,5.74c.08.42.15.84.22,1.26a7.28,7.28,0,0,1,.12,1.71,1.4,1.4,0,0,1-.42.84,3.45,3.45,0,0,1-.25.27c-.15.1-.31,0-.52-.27a3.19,3.19,0,0,1-.58-1.28,32,32,0,0,1-1-5.44,15.47,15.47,0,0,1,.49-6,22.39,22.39,0,0,1,1.87-4c.68-1.23,1.35-2.41,1.84-3.54Z"/><path class="cls-1" d="M138.62,270.56a30,30,0,0,0-1,3.57,15.75,15.75,0,0,0-.26,1.77,8.29,8.29,0,0,0,0,.86c0,.14,0,.28,0,.42s0,.32,0,.31a.29.29,0,0,0,0,.09l.06.07.21.22.52.48c.37.32.74.65,1.11,1a35.89,35.89,0,0,1,6.81,8.34,24.74,24.74,0,0,1,2,4.38,14.34,14.34,0,0,1,.8,6.08c-.07.64-.38.53-.73,0a7.84,7.84,0,0,1-1-2.47,26.57,26.57,0,0,0-5-10.3,36.85,36.85,0,0,0-5.2-5.17c-.28-.25-.57-.51-.86-.79a3,3,0,0,1-.89-1.38l-.07-.51,0-.41a7.73,7.73,0,0,1,0-.83,12.33,12.33,0,0,1,.12-1.61,21.84,21.84,0,0,1,.64-3.06c.23-.84.49-1.66.76-2.47l.35-1.05c.07-.2.14-.41.2-.62a2.33,2.33,0,0,0,.11-.51.38.38,0,0,0-.05-.26c-.06-.07-.15,0-.23,0a2.09,2.09,0,0,0-1,.26,3.11,3.11,0,0,0-.44.3,5.63,5.63,0,0,0-.55.55,7.42,7.42,0,0,0-1,1.45,14.79,14.79,0,0,0-1.42,5.37c-.07.41-.05.82-.1,1.23-.13,1.54-.3,2-.91,2.35a3.46,3.46,0,0,1-.41.23c-.45.16-.86-.51-1-1.75a17.35,17.35,0,0,1,.56-5.68,13.89,13.89,0,0,1,1.11-2.85,9.51,9.51,0,0,1,2-2.71,4.22,4.22,0,0,1,.81-.57l.84-.51.86-.29c.14,0,.29-.1.43-.13l.41,0a5.43,5.43,0,0,1,.8,0l.67.19a1.22,1.22,0,0,1,.62.35,2.13,2.13,0,0,1,.37.53c.4.69.16,2-.29,3.34l-.76,2.31Z"/><path class="cls-1" d="M156.37,311.65c-.55-.82-1.13-1.63-1.73-2.42-.22-.29-.49-.54-.71-.83-.76-1-1.54-2.07-2.38-3a15.23,15.23,0,0,0-1.2-1.21,8.63,8.63,0,0,1-1.54-1.54c-.27-.38,1.1-1,1.78-.51a19.19,19.19,0,0,1,3.16,3.27c.54.74,1.26,1.36,1.88,2.06s1.3,1.58,1.93,2.39l1.14,1.51,1.69,2.33c.45.59,1,1.12,1.45,1.73a3.12,3.12,0,0,1,.32.4c.33.55.22.84-.26,1.19a4,4,0,0,1-.34.23,1,1,0,0,1-1.17-.11,19.54,19.54,0,0,1-2.35-3c-.56-.8-1.11-1.63-1.71-2.43Z"/><path class="cls-1" d="M148.75,338.34a45.33,45.33,0,0,0,5-5.82c.59-.76,1.1-1.57,1.67-2.34,2-2.71,4-5.49,5.81-8.32.82-1.26,1.62-2.55,2.36-3.84,1-1.66,1.87-3.36,2.93-4.95.34-.49.61-.27.7.35a4.86,4.86,0,0,1-.48,2.66c-.87,1.77-1.78,3.53-2.76,5.25a59,59,0,0,1-3.25,5c-1.4,1.93-2.63,4.08-4,6.08a64.18,64.18,0,0,1-5,6.38,16.78,16.78,0,0,1-1.85,1.82,7.94,7.94,0,0,1-2.39,1.34,4.24,4.24,0,0,1-2.23.23,3.3,3.3,0,0,1-2-1.23,7.61,7.61,0,0,1-1.38-3.85,19.77,19.77,0,0,1,.17-5.95,11.9,11.9,0,0,1,.28-1.29c.5-1.59.95-2,1.63-2a1.85,1.85,0,0,1,.47,0c.48.11.5.8.27,1.82a23,23,0,0,0-.55,4.78,11.23,11.23,0,0,0,.64,4.42,2.08,2.08,0,0,0,.6.82,1.06,1.06,0,0,0,.77.12,4,4,0,0,0,1.34-.5,3.4,3.4,0,0,0,.64-.43l.3-.22.32-.31Z"/><path class="cls-1" d="M277.52,320.11q-1.14-2.52-2.34-5t-2.44-5c-.61-1.2-1.26-2.38-1.88-3.57-2.15-4.23-4.39-8.41-6.79-12.51-.53-.91-1.1-1.79-1.66-2.68s-1.15-1.76-1.77-2.59c-.77-1.09-1.55-2.18-2.4-3.2L257,284c-.44-.48-.86-1-1.27-1.5s-.17-.89.64-.69a6.39,6.39,0,0,1,3.16,2.07l1.38,1.61,1.26,1.67c.86,1.11,1.66,2.26,2.42,3.42a70.05,70.05,0,0,1,4.26,7.19c1.55,3,3.36,5.91,5,8.91,1.76,3.31,3.42,6.67,5.05,10,1,2.09,2,4.16,2.93,6.26,1.47,3.17,2.85,6.39,4.23,9.57,1.09,2.47,2.25,4.86,3.26,7.36.22.55.46,1.09.65,1.66.7,2.12.59,2.93,0,3.54a4.74,4.74,0,0,1-.35.39c-.33.28-1.23-.42-1.78-1.85l-5.78-13.36c-.75-1.69-1.48-3.39-2.26-5.08s-1.53-3.39-2.35-5.06Z"/><path class="cls-1" d="M297.51,323c.62-3.22,1.17-6.46,1.63-9.72.16-1.19.25-2.38.42-3.57.5-4.2,1.08-8.4,1.35-12.62.15-1.87.15-3.76.15-5.61,0-1.19,0-2.39-.09-3.57,0-.59-.05-1.18-.06-1.78s-.08-1.16-.13-1.75.35-.73.83-.16a6,6,0,0,1,1.24,3.13,66.93,66.93,0,0,1-.27,14.91c-.17,1.48-.27,3-.42,4.51s-.25,3.05-.45,4.55c-.39,3.32-.88,6.63-1.44,9.93l-.52,3-.59,3c-.27,1.54-.63,3.06-1,4.58s-.72,3-1.08,4.54c-.25,1.18-.56,2.34-.84,3.5l-.42,1.75-.54,1.73c-.16.5-.3,1-.47,1.52a6.32,6.32,0,0,1-1,1.88,1.48,1.48,0,0,1-1,.55,2.86,2.86,0,0,1-.48.06c-.47,0-.5-1-.12-2.28,1.23-3.9,2.28-8.15,3.27-12.45.34-1.61.69-3.22,1-4.83s.66-3.24.93-4.88Z"/><path class="cls-1" d="M331.21,278.58c-1.38-2.56-2.75-5.12-4.24-7.59-.54-.91-1.15-1.76-1.72-2.64a72.86,72.86,0,0,0-6.4-9.06,36.72,36.72,0,0,0-3.42-3.52l-2.43-2c-.82-.63-1.66-1.23-2.43-2-.48-.44-.13-.85.63-1a4.39,4.39,0,0,1,3,.75,40.23,40.23,0,0,1,9.28,9.59c1.54,2.18,3.23,4.35,4.71,6.61,1.6,2.5,3.12,5.05,4.57,7.62l2.65,4.75c1.34,2.39,2.64,4.81,4,7.14,1.09,1.8,2.32,3.47,3.52,5.16.26.38.55.73.79,1.12.9,1.44,1,2,.6,2.73a3.18,3.18,0,0,1-.28.48c-.36.44-1.14.11-2-.83a33.53,33.53,0,0,1-3.57-4.59q-1.65-2.46-3.1-5.06c-1.45-2.57-2.82-5.17-4.25-7.73Z"/><path class="cls-1" d="M386,221.8a7.86,7.86,0,0,0-2.51.78,5,5,0,0,0-1.75,1.67,11.11,11.11,0,0,0-1.37,5.33c-.07,1.45,0,3,0,4.46l.08,8c0,2.68-.08,5.36-.27,8a55.62,55.62,0,0,1-.95,7.14c-.34,1.49-.66,3-1,4.41s-.83,2.9-1.32,4.33c-.31.89-.68.68-.92-.19a10,10,0,0,1-.08-4.11c.27-1.52.68-3,1-4.51a39.45,39.45,0,0,0,.74-4.37c.34-3,.51-6,.65-9.07.15-3.67-.2-7.53-.17-11.37a27.06,27.06,0,0,1,.57-6.45,9.39,9.39,0,0,1,1.42-3.15,6.83,6.83,0,0,1,2.71-2.26,12.24,12.24,0,0,1,4-1c1.31-.15,2.58-.24,3.77-.47,1.77-.34,3.56-1.32,5.79-1.4a3.09,3.09,0,0,1,1.82.54l.38.36.26.44a3.15,3.15,0,0,1,.29.9,7.12,7.12,0,0,1-.36,3.2,9.49,9.49,0,0,1-2.7,4,10.37,10.37,0,0,1-4.25,2.34,8.43,8.43,0,0,1-2.21.32,5.94,5.94,0,0,1-1-.09,3.21,3.21,0,0,1-.81-.19l-.64-.25a4,4,0,0,1-.48-.31,1.48,1.48,0,0,1-.73-1.26,2.09,2.09,0,0,1,0-.56c.07-.25.38-.29.82-.25.22,0,.44.1.73.14l.44.12a4.71,4.71,0,0,1,.5.08,7.69,7.69,0,0,0,6.15-2.11,7.1,7.1,0,0,0,1.88-2.71,5.28,5.28,0,0,0,.32-1.54,2.29,2.29,0,0,0-.07-.79,2.62,2.62,0,0,0-1.41.07c-.89.19-1.84.51-2.9.82-2.29.7-4.51.6-6.37,1Z"/><path class="cls-1" d="M392.26,228.41c1.23-1.81,2.53-3.56,3.87-5.28.49-.63.94-1.29,1.45-1.91.9-1.08,1.84-2.13,2.84-3.15a15,15,0,0,1,3.45-2.81,2.32,2.32,0,0,1,1.35-.25c.22.05.44.14.66.21a2.92,2.92,0,0,1,.57.33,3.7,3.7,0,0,1,1.25,2A10.77,10.77,0,0,1,408,220c.08.77-.05,1.54.07,2.11.05.26-.16.63-.79.4a3.07,3.07,0,0,1-1.51-2.07,18.42,18.42,0,0,0-.36-2.15c0-.15-.08-.27-.11-.4a2.73,2.73,0,0,0-.13-.29.75.75,0,0,0-.22-.26c0-.05,0-.06-.07-.07s0,0,0,0l-.18.07a4,4,0,0,0-.41.21,14.28,14.28,0,0,0-1.81,1.3,29.66,29.66,0,0,0-3.92,4.27c-1.37,1.66-2.68,3.38-3.92,5.14-.77,1.09-1.51,2.19-2.2,3.31-.52.86-1,1.73-1.45,2.61a4.84,4.84,0,0,0-.67,2.59,1.26,1.26,0,0,0,.35.74,1.62,1.62,0,0,0,.71.39,2.3,2.3,0,0,0,1.63-.56c.25-.17.48-.38.72-.58.95-.73,1.34-1,1.86-.77l.31.08c.23.1.16.75-.49,1.47a7,7,0,0,1-1.73,1.53,4.72,4.72,0,0,1-1.27.54,3.27,3.27,0,0,1-1.67,0,3.36,3.36,0,0,1-1.42-.9,3.23,3.23,0,0,1-.78-1.58,5.55,5.55,0,0,1,.38-2.79,36,36,0,0,1,3.29-5.94Z"/><path class="cls-1" d="M403.45,231.19c-1.26,1.34-2.47,2.78-3.64,4.24-.43.54-.79,1.12-1.2,1.67a31.49,31.49,0,0,0-3.8,6,4,4,0,0,0-.2.66.72.72,0,0,0,0,.44,1.78,1.78,0,0,1,.11.21c0,.08.1.13.15.2s.1.07.14.12.09,0,.16.05a2.54,2.54,0,0,0,1.4-.47,12.4,12.4,0,0,1,1.86-.92c.49-.16.55.26.46.79a2.59,2.59,0,0,1-1,1.84,6.87,6.87,0,0,1-1.12.62,3.61,3.61,0,0,1-1.63.32,2.73,2.73,0,0,1-1.88-.91,3.05,3.05,0,0,1-.49-.74,2.66,2.66,0,0,1-.31-1,3.76,3.76,0,0,1,.25-1.6,7.7,7.7,0,0,1,.48-1.12,14.92,14.92,0,0,1,1.15-1.95c1-1.46,1.89-3,2.93-4.46a53.66,53.66,0,0,1,3.67-4.55c.8-.9,1.64-1.77,2.54-2.6a8.41,8.41,0,0,1,2.41-1.64,3.83,3.83,0,0,1,1.53-.37,2.4,2.4,0,0,1,.84.08,2.71,2.71,0,0,1,.79.31,5.26,5.26,0,0,1,1.68,1.71,10.69,10.69,0,0,1,1,2c.11.3.25.59.33.89.29,1.15.12,1.55-.32,1.88a2.58,2.58,0,0,1-.31.22c-.36.18-.76-.22-1.14-.94a23.63,23.63,0,0,0-1.44-3.06,2.8,2.8,0,0,0-.84-.83.88.88,0,0,0-.76,0,5.43,5.43,0,0,0-1.81,1.09,24.49,24.49,0,0,0-1.9,1.91Z"/><path class="cls-1" d="M399.18,198a25.58,25.58,0,0,1,1.81-3.2,10.86,10.86,0,0,1,1.28-1.56,3.15,3.15,0,0,1,2.63-1,2.36,2.36,0,0,1,.9.47,1.54,1.54,0,0,1,.37.35,1.48,1.48,0,0,1,.31.43,4,4,0,0,1,.55,1.9,15.54,15.54,0,0,1-.94,4.68,31.24,31.24,0,0,0-.95,4.24,24.76,24.76,0,0,0-.17,3.85l.12,2.5a16.4,16.4,0,0,1-.1,2.52c-.06.53-.32.47-.66.05a5.16,5.16,0,0,1-1-2.17,35,35,0,0,1-.22-5.25,22.9,22.9,0,0,1,.91-5.28c.29-1,.6-2.05.78-3a7.85,7.85,0,0,0,.14-1.42,4.94,4.94,0,0,0-.12-1c-.05-.17-.17-.39-.39-.41a.54.54,0,0,0-.3.08l-.13.09-.18.17a12.9,12.9,0,0,0-1.8,2.66,33.52,33.52,0,0,0-1.74,3.8,40.3,40.3,0,0,0-1.89,6.11,25.61,25.61,0,0,0-.5,4.82c0,.35,0,.68,0,1a3.59,3.59,0,0,1-.23,1.36,2.12,2.12,0,0,1-.55.65,2.56,2.56,0,0,1-.27.23c-.15.09-.3,0-.5-.24a2.83,2.83,0,0,1-.6-1.17,14.53,14.53,0,0,1-.05-4.79,36.13,36.13,0,0,1,1-4.71,46.22,46.22,0,0,1,2.49-6.77Z"/><path class="cls-1" d="M411.94,243.39c-1.47,4.94-4.72,8.83-8.27,12.07a44.38,44.38,0,0,1-4.07,3.35l-1,.65-.47.33c-.21.13-.16.15-.25.21a5.67,5.67,0,0,0-.89,1.66,32.89,32.89,0,0,0-1.22,4.23c-.67,2.92-1.18,5.9-1.64,8.88-.43,2.65-.73,5.34-1.1,8A53.45,53.45,0,0,1,391,292.9c-.41,1-.56.78-.53-.14v-1.89a23,23,0,0,1,.1-2.66,193.81,193.81,0,0,1,3-20.85,57,57,0,0,1,1.64-6.38,10.19,10.19,0,0,1,.73-1.64,4.07,4.07,0,0,1,.67-.87l.23-.21.17-.12.33-.24c.89-.61,1.74-1.26,2.57-1.91a31.21,31.21,0,0,0,8.95-10.4,15.55,15.55,0,0,0,1.34-3.94,7.64,7.64,0,0,0-.2-3.93,2.57,2.57,0,0,0-1.79-1.76,3.54,3.54,0,0,0-2.63.71,13.91,13.91,0,0,0-2.28,2.16c-.73.81-1.44,1.65-2.11,2.5-.52.66-1,1.34-1.48,2a10.93,10.93,0,0,0-1.14,2.06c-.17.5,0,.94.41,1a3.07,3.07,0,0,0,.87,0,6.28,6.28,0,0,0,2.81-1.1c1-.71,1.67-1.37,2.25-1.71a2.38,2.38,0,0,1,1.37-.46,2.07,2.07,0,0,1,.52,0c.21.07.13.33-.16.74a17.33,17.33,0,0,1-1.45,1.78,11,11,0,0,1-1.91,1.61,8.15,8.15,0,0,1-2.45,1,6.23,6.23,0,0,1-1.41.2,1.92,1.92,0,0,1-.41,0,1.89,1.89,0,0,1-.48-.06,2.78,2.78,0,0,1-1-.4,2.49,2.49,0,0,1-1.13-1.8,4,4,0,0,1,0-1,4.77,4.77,0,0,1,.13-.51,3,3,0,0,1,.15-.38,14.75,14.75,0,0,1,1.34-2.28c.47-.67,1-1.33,1.46-2a45,45,0,0,1,3.23-3.72,11.06,11.06,0,0,1,1.53-1.36,7.14,7.14,0,0,1,2-1,4.84,4.84,0,0,1,2.52-.13,4.4,4.4,0,0,1,2.24,1.37,6.78,6.78,0,0,1,1.49,4.18,12.59,12.59,0,0,1-.5,4Z"/><path class="cls-1" d="M398.46,300a31.57,31.57,0,0,1-9.34-4.72c-1-.69-2.06-1.39-3-2.13a93.59,93.59,0,0,1-9.56-8.77c-1.32-1.38-2.67-2.75-3.94-4.15a32.53,32.53,0,0,1-4.53-5.78c-.39-.67,0-.78.68-.49a5.61,5.61,0,0,1,1.21.72,7.66,7.66,0,0,1,1.4,1.26c3.23,3.61,6.77,7,10.29,10.39a58,58,0,0,0,7,5.6,41.77,41.77,0,0,0,8.45,4.85,10.21,10.21,0,0,0,1.38.47,12,12,0,0,0,1.4.36,3.85,3.85,0,0,0,2.3-.07.82.82,0,0,0,.35-.48,2.49,2.49,0,0,0,0-.8,9.51,9.51,0,0,0-.52-2.07,41.84,41.84,0,0,0-1.86-4.19c-1.08-2.15-2.32-4.19-3.31-6.45-.22-.5-.44-1-.62-1.53a5.19,5.19,0,0,1-.35-2.23,1.36,1.36,0,0,1,.64-1.07,2,2,0,0,1,.48-.29c.57-.16,1,.54,1.45,1.74a52.31,52.31,0,0,0,2.59,5.63c1,1.94,2,3.92,3,6.09a19.64,19.64,0,0,1,.94,2.59,9.34,9.34,0,0,1,.3,1.54,6.84,6.84,0,0,1,0,.92,5.51,5.51,0,0,1-.26,1.19,4.75,4.75,0,0,1-.25.56c-.11.17-.24.34-.36.5a2.55,2.55,0,0,1-.46.41,2.49,2.49,0,0,1-.5.35,4.11,4.11,0,0,1-1.09.39l-.52.09-.43,0a10,10,0,0,1-3-.38Z"/><path class="cls-1" d="M363.28,293.05c.26-1.41.48-2.86.66-4.32.06-.53.05-1.07.12-1.6.24-1.88.53-3.78.82-5.68.13-.85.21-1.7.31-2.56a7.27,7.27,0,0,1,.9-3.29c.22-.33.66,0,1,.44a2.09,2.09,0,0,1,.63,1.55c-.37,2-.57,4.12-1,6.28-.26,1.3-.25,2.68-.38,4s-.34,3-.56,4.47q-.21,1.38-.48,2.76a29.69,29.69,0,0,1-1.1,4.16,8.32,8.32,0,0,1-1.67,3.15,2.78,2.78,0,0,1-.68.59c-1,.56-1.52.24-1.76-.21a2.49,2.49,0,0,1-.16-.33c-.1-.39.22-.74.52-1.11a5.27,5.27,0,0,0,1.08-1.73c.29-.73.55-1.58.8-2.45a37.11,37.11,0,0,0,.86-4.15Z"/><path class="cls-1" d="M223.28,369.27l0-9.57c0-1.16-.1-2.33-.1-3.49,0-4.1.05-8.2,0-12.3,0-1.82-.14-3.64-.22-5.44-.14-2.31-.3-4.64-.38-6.91,0-.72.33-.69.78-.13a6.52,6.52,0,0,1,1.2,3c.31,2.37.61,4.74.74,7.11s.18,4.76.16,7.15c0,2.87.24,5.83.32,8.75l.22,9.64.14,5.94c.07,3,.11,6,.28,9,.13,2.31.43,4.56.68,6.83.06.49.14,1,.17,1.49.12,1.86,0,2.47-.7,2.92a3.58,3.58,0,0,1-.46.3c-.52.22-1-.51-1.31-1.88a84.58,84.58,0,0,1-1.28-12.7c-.14-3.21-.21-6.44-.26-9.66Z"/><path class="cls-1" d="M331.65,354.44v-3.77c0-.56,0-1.49,0-1.34v-.14s-.08,0-.12,0l-2-.16c-.87-.12-1.74-.2-2.61-.37a31.08,31.08,0,0,1-5.15-1.3,20.26,20.26,0,0,1-6.12-3.16,12.91,12.91,0,0,1-3.85-4.89,7.68,7.68,0,0,1-.56-1.47,7.24,7.24,0,0,1-.37-1.51,11.58,11.58,0,0,1-.22-3.12,8.37,8.37,0,0,1,.83-3.13,5.82,5.82,0,0,1,2.29-2.48,6.09,6.09,0,0,1,3.25-.74,11.1,11.1,0,0,1,3,.64,22.06,22.06,0,0,1,8.77,5.59,26.76,26.76,0,0,1,4,5.26,25.35,25.35,0,0,1,2.42,6.12c.27,1.34,0,1.2-.66.24s-1.86-2.69-3.17-4.66a24.09,24.09,0,0,0-8.61-8.75c-.44-.25-.88-.49-1.35-.7a10.6,10.6,0,0,0-1.39-.6,12,12,0,0,0-2.79-.78,4.1,4.1,0,0,0-2.37.39,3.86,3.86,0,0,0-1.56,1.82,8.91,8.91,0,0,0,.58,6.87,12,12,0,0,0,5.17,5.16,23.75,23.75,0,0,0,6.29,2.34,31.83,31.83,0,0,0,3.38.59q.85.12,1.71.18l.86.07,1.32,0,.58.17.3.08.14,0h0c.1-.1-.14.15-.11.13h0v0l0,0,0,.05a1.54,1.54,0,0,1,.31.47,2.36,2.36,0,0,1,.11.68l0,.72v.57l0,.93c0,3.67,0,7.35,0,11,0,5.55,0,11.12.12,16.63.11,4.27.38,8.46.63,12.68.06.92.12,1.83.19,2.76.22,3.47,0,4.57-.51,5.36a3.47,3.47,0,0,1-.38.53c-.42.37-1-1-1.35-3.57a218.25,218.25,0,0,1-1.26-23.59c-.07-6,0-11.94-.07-17.89Z"/><path class="cls-1" d="M364.9,352.6l-.07-4.61-.05-2.29,0-1.1v-.19c0-.09-.07-.09-.16-.1l-.43,0c-.79-.07-1.58-.12-2.38-.23a38.25,38.25,0,0,1-4.71-.88,24,24,0,0,1-6.61-2.62,15,15,0,0,1-4.65-4.45,13.19,13.19,0,0,1-2.05-6.1,9.74,9.74,0,0,1,.27-3.3,6.59,6.59,0,0,1,1.65-3,5.52,5.52,0,0,1,3.13-1.57,7.9,7.9,0,0,1,3.3.25,21.71,21.71,0,0,1,9.35,5.46,26.73,26.73,0,0,1,4.3,5.41,25.49,25.49,0,0,1,2.57,6.35c.29,1.39.06,1.25-.66.25L364.38,335a24,24,0,0,0-9.13-8.89,19.58,19.58,0,0,0-2.92-1.22,7.47,7.47,0,0,0-2.81-.5,3.4,3.4,0,0,0-2.18.94,4.75,4.75,0,0,0-1.18,2.37,8.7,8.7,0,0,0,.12,3.65,13,13,0,0,0,.58,1.8,9.57,9.57,0,0,0,.93,1.65,11.84,11.84,0,0,0,2.68,2.75,18.69,18.69,0,0,0,3.45,1.92,29.3,29.3,0,0,0,8.65,2.16c.37.05.75.06,1.12.1l1.29.09a11.79,11.79,0,0,1,1.63.27l.1,0h.09c-.25.26-.07.07-.12.13l.12.13.22.27a1.51,1.51,0,0,1,.15.37l.05.45.06.91,0,.62,0,1.18.05,2.33q.11,5.73.19,11.45c.1,5.78.17,11.59.38,17.32.18,4.45.49,8.81.78,13.2.08,1,.15,1.91.22,2.88.24,3.61.05,4.77-.48,5.59a3.74,3.74,0,0,1-.38.55c-.42.38-1-1.06-1.36-3.72-1-7.87-1.33-16.19-1.54-24.54-.17-6.2-.24-12.42-.37-18.63Z"/><path class="cls-1" d="M309.94,399.82l-34.85.24-12.71.15c-14.93,0-29.86.06-44.81,0l-5-.08a2.35,2.35,0,0,1-.8-.16l-.62-.2c-.42-.12-.81-.27-1.21-.42-.79-.29-1.57-.6-2.35-.92-3.09-1.28-6.1-2.68-9.08-4.1-3.82-1.83-7.62-3.74-11.34-5.79a76.53,76.53,0,0,1-10.79-6.92c-2.07-1.88-1.28-2,.73-1s5.77,2.57,10,4.9c3.74,2.08,7.55,4,11.4,5.93s7.73,3.73,11.64,5.29l1.46.55.71.22.33.11h.07l3.18.07,6.47.06,13,.11c10.4.09,21.22-.17,31.86-.27l35.1-.33,21.6-.24c10.91-.14,21.86-.25,32.68-.49,8.42-.19,16.66-.54,25-.83l5.47-.21c6.84-.18,9-.07,10.5.67a7.9,7.9,0,0,1,1,.46c.69.46-2.11,1.18-7.12,1.41-14.86.83-30.54,1.16-46.28,1.43l-35.16.46Z"/><path class="cls-1" d="M392.28,390.58c-.66-.56-1.37-1.1-2.08-1.63-.26-.19-.56-.34-.82-.54-.92-.7-1.83-1.45-2.72-2.22-.39-.34-.81-.65-1.23-1l-.79-.62a3.74,3.74,0,0,1-.66-.77c-.23-.35,1.17-1,1.71-.59,1,.76,2,1.49,3,2.39a16,16,0,0,0,2,1.36c.75.49,1.49,1,2.23,1.55l1.35,1c.69.52,1.32,1.12,2,1.67.51.44,1.07.82,1.55,1.32a2,2,0,0,1,.31.34A.79.79,0,0,1,398,394a1.42,1.42,0,0,1-.2.22,1,1,0,0,1-1,0,11.19,11.19,0,0,1-2.62-2c-.63-.54-1.27-1.1-2-1.62Z"/><path class="cls-1" d="M174,435l.33-11.91,0-4.34c.14-5.11.3-10.21.37-15.31,0-2.26,0-4.54-.09-6.78-.08-2.88-.24-5.78-.17-8.62,0-.89.6-.84,1.21-.12a6.74,6.74,0,0,1,1.38,3.8,148.72,148.72,0,0,1-.05,17.79c-.2,3.56-.09,7.27-.15,10.91l-.25,12c-.06,2.46-.11,4.93-.17,7.39-.07,3.73-.17,7.47-.17,11.17,0,2.88.12,5.7.17,8.55,0,.62,0,1.24,0,1.87-.09,2.34-.26,3.08-.83,3.58-.12.11-.24.26-.34.33-.33.22-.79-.73-1-2.45-.32-2.55-.4-5.16-.52-7.81s-.1-5.34-.07-8c.06-4,.13-8,.19-12Z"/><path class="cls-1" d="M211.08,449.86c0-3.46.13-6.93.18-10.4,0-1.26,0-2.52,0-3.79l.36-13.37c.07-2,.08-4,.08-5.93a64,64,0,0,1,.25-7.58c.09-.79.55-.66,1,0a6.77,6.77,0,0,1,1,3.35c.06,2.56.13,5.13.15,7.71s-.12,5.15-.25,7.74c-.18,3.1,0,6.33-.06,9.51l-.1,10.47-.11,6.44c0,3.25-.08,6.52,0,9.75,0,2.51.19,5,.26,7.45,0,.55,0,1.09,0,1.64a9,9,0,0,1-.16,2.17,1.94,1.94,0,0,1-.54,1,2.65,2.65,0,0,1-.3.29c-.17.1-.32-.06-.48-.43a5.63,5.63,0,0,1-.42-1.7c-.49-4.43-.7-9.1-.78-13.8-.07-3.48-.08-7-.12-10.48Z"/><path class="cls-1" d="M396.16,445.92l.52-11.39c.06-1.39,0-2.77.1-4.16.23-4.88.52-9.76.79-14.63.12-2.17.13-4.34.2-6.49.07-2.76.1-5.53.35-8.28.08-.86.42-.75.78,0a9.9,9.9,0,0,1,.88,3.67,139.46,139.46,0,0,1-.1,17c-.25,3.39-.2,6.93-.3,10.41L399,443.48q-.11,3.52-.2,7c-.08,3.57-.2,7.15-.16,10.68,0,2.75.25,5.44.38,8.15,0,.6.09,1.18.11,1.78a9.48,9.48,0,0,1-.12,2.36,1.83,1.83,0,0,1-.76,1.08,3.43,3.43,0,0,1-.48.33c-.27.12-.53,0-.77-.44a5,5,0,0,1-.57-1.86,100.09,100.09,0,0,1-.65-15.19c0-3.82.19-7.67.3-11.5Z"/><path class="cls-1" d="M389,338.79a92.39,92.39,0,0,0,4.34-8.54c.46-1.07.86-2.18,1.3-3.27,1.56-3.83,2.95-7.77,4.15-11.75.52-1.78,1-3.58,1.38-5.37.52-2.3.91-4.63,1.58-6.9.41-1.43,1.74.74,1.25,3.45a95.07,95.07,0,0,1-3.74,14.14c-1,2.76-1.81,5.71-2.88,8.52a78.35,78.35,0,0,1-4.06,9.08,61.26,61.26,0,0,1-3.15,5.28A34.76,34.76,0,0,1,383,350.5a16.38,16.38,0,0,1-6.44,3.57,7.06,7.06,0,0,1-1.64.29c-.53,0-1,0-1.33,0a3.55,3.55,0,0,1-.88-.21,1.4,1.4,0,0,1-.86-.71,1.65,1.65,0,0,1-.21-.42c-.09-.46.73-.73,2-.81a13.37,13.37,0,0,0,5.3-1.94,23.08,23.08,0,0,0,4.55-3.85,41.75,41.75,0,0,0,5.43-7.68Z"/><path class="cls-1" d="M289.52,363.73c-.2,2.32,1.87,4.8,4.29,4.6a3.92,3.92,0,0,0-.09-7.79c-2.29-.12-3.19,2.14-3.35,4A1.63,1.63,0,0,0,292,366.2a1.67,1.67,0,0,0,1.63-1.63,3.13,3.13,0,0,1,.11-.62c0-.11.1-.35,0-.11,0-.09.11-.15.13-.24-.12.15-.14.19-.06.1s.05-.06-.05,0,.08,0,.1,0-.33.16-.12.07l-.24,0c.14,0,.13,0,0,0s-.13,0,.07,0a.91.91,0,1,0-.1-.05,1.76,1.76,0,0,1,.23.14c.17.14-.24-.2-.07-.05l.2.2c-.08-.08-.15-.23-.05,0l.15.25c.11.18-.14-.37,0,0l.06.23c-.09-.29.08-.1,0,0s0,.35,0,.09,0,.1-.05.16-.06.1,0,0c0,0-.13.23-.14.23s-.37.29-.26.21,0,0,0,0-.26-.15,0,0c-.25-.17-.29-.15-.45-.37a1.32,1.32,0,0,1-.25-1,1.63,1.63,0,0,0-1.62-1.62,1.66,1.66,0,0,0-1.63,1.62Z"/><path class="cls-1" d="M250.11,144.65c3.25-.87,6.66-3.09,9.86-1.12,1.79,1.09,3.43-1.72,1.64-2.81-4.23-2.6-8.05-.36-12.36.79a1.63,1.63,0,0,0,.86,3.14Z"/><path class="cls-1" d="M254.91,142.74A1.72,1.72,0,0,0,253.7,144c-.67,2.85.19,8.52,4.21,7.67C261.78,150.85,262.17,140.58,254.91,142.74Z"/><path class="cls-1" d="M282,142.36c3.25-.87,6.66-3.09,9.86-1.12,1.79,1.09,3.42-1.72,1.64-2.81-4.24-2.6-8.05-.36-12.36.79a1.63,1.63,0,0,0,.86,3.14Z"/><path class="cls-1" d="M286.79,140.45a1.73,1.73,0,0,0-1.22,1.25c-.66,2.85.19,8.52,4.21,7.67S294.05,138.29,286.79,140.45Z"/><path class="cls-2" d="M278.08,146.79h0c-.05,0-.08,0-.08,0a1.75,1.75,0,0,0-.5-.7,3.2,3.2,0,0,0-.82-.62,2.92,2.92,0,0,0-1.21-.3,3.06,3.06,0,0,0-1.1.17,7.65,7.65,0,0,0-1.43.69l-1.13.7s0,0-.07,0h0a6.47,6.47,0,0,0,.5,1.12,5.53,5.53,0,0,0,.62,1.07v0a.11.11,0,0,1,0-.09l.21-.09c.41-.18.82-.36,1.18-.54a4.9,4.9,0,0,1,.94-.36c.23,0,.16,0,.27,0l.24.2a1.27,1.27,0,0,0,.39.29s0,0,0,.07v0a10.9,10.9,0,0,0,1.07-.74A5.71,5.71,0,0,0,278.08,146.79Z"/><path class="cls-1" d="M235.56,124.06c-.31.42-.83.37-1.51.08-.22-.09-.56-.59-.49-.74a5.66,5.66,0,0,1,.46-.88,27.6,27.6,0,0,1,3.23-2.61,14.82,14.82,0,0,1,2.54-1.44,41.2,41.2,0,0,1,5.58-2,5.2,5.2,0,0,1,1.31-.21c.76,0,1.5-.16,2.26-.22s1.5-.22,2.26-.27a1.82,1.82,0,0,0,.76-.16,8.29,8.29,0,0,1,2.53-.18,15.63,15.63,0,0,1,2.64.3c.66.25,1.31.48,2,.71s1.27.57,1.89.86c.18.08.39.11.5.33.24.5.63.61,1,.8a4.86,4.86,0,0,1,1.39,1,3.12,3.12,0,0,1,.47.8c.12.24-.28.59-.38.6-.29,0-.26.31-.36.49a1,1,0,0,1-.12.19,10.88,10.88,0,0,1-1.6-.2,13.68,13.68,0,0,1-1.69-.25,19.2,19.2,0,0,0-2-.54,17.42,17.42,0,0,0-2.4-.25,2,2,0,0,1-.7-.18,23.07,23.07,0,0,0-3.51.18,6.83,6.83,0,0,1-2.06-.07.81.81,0,0,0-.41,0c-1.17.2-2.37.27-3.56.48a13.45,13.45,0,0,0-1.79.47,2,2,0,0,1-.34,0,3.18,3.18,0,0,0-.43.06,24.72,24.72,0,0,0-4.08,1.61,9.66,9.66,0,0,1-1.09.4,6.72,6.72,0,0,0-1.1.48C236.52,123.88,235.67,123.88,235.56,124.06Z"/><path class="cls-1" d="M360.13,48.93c.07-.33.47-.29,1.07,0a1.75,1.75,0,0,1,.64.63,2.82,2.82,0,0,1,0,.65c0,.12-.86,1.48-1.11,2a8.17,8.17,0,0,1-.91,1.25c-.68.8-1.32,1.62-2,2.43a2.91,2.91,0,0,1-.5.49,7.28,7.28,0,0,0-1.6,1.77.67.67,0,0,0-.17.37,10.78,10.78,0,0,1-1.52,2.17c-.56.44-1.05.95-1.62,1.4-.08.06-.12.17-.26.17-.34,0-.44.22-.59.38a5,5,0,0,1-.66.63,1.63,1.63,0,0,1-.5.2c-.16.05-.4-.2-.41-.27s-.21-.17-.34-.24l-.13-.08a10.58,10.58,0,0,1,.44-2.09l.2-.39c.12-.22.26-.53.44-.82.35-.59.72-1.21.79-1.34a1.16,1.16,0,0,1,.34-.32c0-.08,1.14-1.82,1.18-1.88.29-.32.47-.72.92-.9a.47.47,0,0,0,.18-.19,15.13,15.13,0,0,1,1.48-1.63c.26-.27.47-.57.71-.86a1.77,1.77,0,0,1,.17-.12,1.66,1.66,0,0,0,.21-.16c.55-.69,1.22-1.28,1.73-2,.11-.17,1-.7,1.1-.9S360.1,49.06,360.13,48.93Z"/><path class="cls-1" d="M357.7,72.5c-.26.25-.6,0-1-.61a1.75,1.75,0,0,1-.2-.92,3.35,3.35,0,0,1,.39-.59c.09-.1,1.67-.84,2.19-1.12a7.86,7.86,0,0,1,1.59-.6c1.1-.32,2.18-.67,3.27-1a3.17,3.17,0,0,1,.75-.12,8.14,8.14,0,0,0,2.54-.61.67.67,0,0,0,.38-.23,11.28,11.28,0,0,1,2.7-1c.78,0,1.54-.15,2.32-.22.11,0,.21-.08.34,0,.32.21.52.08.76,0a6.22,6.22,0,0,1,1-.13,2.86,2.86,0,0,1,.58.2c.18.07.23.43.2.49s.08.29.15.43a.94.94,0,0,1,.06.15,8.19,8.19,0,0,1-1.66,1.67l-1.34.65c-.68.31-1.4.61-1.55.69a1.17,1.17,0,0,1-.5.07c-.08,0-2.14.9-2.23.91a2.77,2.77,0,0,1-1.38.21.5.5,0,0,0-.27,0,15.26,15.26,0,0,1-2.32.52c-.4.08-.78.22-1.17.32a.88.88,0,0,1-.23,0,.88.88,0,0,0-.28,0c-.91.27-1.87.38-2.77.73-.2.08-1.29,0-1.53.14S357.8,72.4,357.7,72.5Z"/><path class="cls-1" d="M148.34,73c-.32.05-.34-.36-.21-1a2.44,2.44,0,0,1,.46-.84,4.18,4.18,0,0,1,.61-.22c.12,0,1.54.35,2,.46a5.38,5.38,0,0,1,1.34.54c.86.46,1.75.91,2.61,1.42a2,2,0,0,1,.51.42,8.27,8.27,0,0,0,1.82,1.42.57.57,0,0,0,.37.15,3.47,3.47,0,0,1,1.1.65,6.45,6.45,0,0,1,.95.92c.38.59.72,1.22,1,1.84,0,.09.13.15.1.3a.73.73,0,0,0,.21.63,3.8,3.8,0,0,1,.41.77,1.51,1.51,0,0,1,.05.49c0,.16-.3.32-.35.31s-.22.16-.32.25a.5.5,0,0,1-.11.1,5.13,5.13,0,0,1-.85-.32c-.41-.17-.86-.31-.91-.36l-.31-.21-.68-.42c-.51-.3-1-.66-1.1-.7s-.18-.18-.25-.3-1.53-.91-1.59-.95c-.26-.24-.62-.35-.76-.76a.26.26,0,0,0-.16-.15,14.63,14.63,0,0,1-1.51-1.11,6.24,6.24,0,0,0-.83-.49c-.05,0-.08-.1-.12-.14a.65.65,0,0,0-.17-.16,15.87,15.87,0,0,0-2-1.11c-.17-.06-.78-.73-1-.79S148.47,72.94,148.34,73Z"/><path class="cls-1" d="M336.22,413.36l-15.2,0-5.55.08-19.54,0c-2.88,0-5.79.12-8.65.24-3.67.16-7.37.4-11,.52-1.14,0-1.06-.47-.13-1a8.4,8.4,0,0,1,2-.82A14.45,14.45,0,0,1,281,412c7.56-.38,15.08-.43,22.67-.31,4.54.07,9.26-.09,13.9-.13l15.32-.1,9.42-.09c4.75-.06,9.53-.11,14.25-.27,3.66-.13,7.25-.38,10.87-.61l2.38-.17c3-.17,3.93-.08,4.6.44a2.82,2.82,0,0,1,.44.35c.31.41-.89.81-3.08,1-6.47.66-13.32.91-20.19,1.07-5.1.13-10.23.17-15.34.24Z"/><path class="cls-1" d="M347.57,429.77l-6.66.18c-.81,0-1.62.11-2.43.13-2.86.06-5.72.08-8.58.1-1.27,0-2.55.05-3.8.11a30.46,30.46,0,0,1-4.87,0c-1-.1.27-1.71,2.12-1.76,3.28-.1,6.56-.18,9.88-.11,2,.05,4-.14,6.08-.22L346,428l4.13-.14c2.09-.09,4.18-.13,6.25-.24,1.61-.09,3.19-.26,4.78-.35.36,0,.7-.06,1.05-.07,1.32,0,1.74.1,2,.56a1.79,1.79,0,0,1,.19.32c.12.36-.41.66-1.36.79-1.41.18-2.86.34-4.33.46s-3,.17-4.47.24l-6.7.27Z"/></g></svg>