<svg id="Layer_1" data-name="Layer 1" xmlns="http://www.w3.org/2000/svg" width="520" height="520" viewBox="0 0 520 520"><defs><style>.cls-1{fill:#221f1f;}</style></defs><title>Notioly v2</title><g id="_13.Influencer" data-name="13.Influencer"><path class="cls-1" d="M341.78,205.36c-.67-1.57-1.3-3.14-1.93-4.72-.23-.57-.51-1.13-.73-1.71-.77-2-1.48-4.09-2.22-6.14-.32-.91-.69-1.8-1.07-2.69a17.54,17.54,0,0,1-1.29-3.46c-.15-.76,1.88-.47,2.39.83.92,2.32,1.76,4.67,2.47,7.1.43,1.45,1.11,2.87,1.68,4.29q.94,2.37,1.93,4.7c.41,1,.82,1.92,1.27,2.86a43.39,43.39,0,0,0,2.14,4.19,19,19,0,0,0,2.11,2.86c.16.2.34.36.51.55.62.69.72.89.57,1.42,0,.12-.05.25-.09.36a.43.43,0,0,1-.48.26,1.65,1.65,0,0,1-.89-.4A18.84,18.84,0,0,1,344,210c-.82-1.53-1.54-3.1-2.25-4.66Z"/><path class="cls-1" d="M306.89,428.67c-1.08,0-2.15-.06-3.23-.15-.39,0-.78,0-1.18-.06a23.62,23.62,0,0,1-4.11-.91c-.3-.09-.6-.18-.9-.29a7.62,7.62,0,0,1-.91-.33,3.27,3.27,0,0,1-2.05-1.68c-.12-.31.37-.43.87-.52s.94-.25,1.18-.08a15.56,15.56,0,0,0,3.71,1.62,12.49,12.49,0,0,0,2.75.39c1,.09,2.07.14,3.11.17h1.93c1-.06,2-.06,2.92-.21a17.83,17.83,0,0,0,2.19-.5c.16,0,.32-.1.48-.13.6-.12.81,0,1,.45,0,.11.1.22.14.33a.74.74,0,0,1-.53.9,15.06,15.06,0,0,1-4.15.9q-1.62.14-3.24.15Z"/><path class="cls-1" d="M324,427.6q2.2.07,4.44,0c.54,0,1.08-.09,1.63-.11,1.91-.07,3.84-.14,5.76-.28.85-.06,1.7-.18,2.54-.31a15.42,15.42,0,0,1,3.25-.37c.69,0,.06,1.93-1.19,2.11a44,44,0,0,1-6.71.46c-1.36,0-2.75.19-4.14.26s-3,.11-4.57.1c-.94,0-1.88,0-2.83-.08a28.86,28.86,0,0,1-4.3-.53,7,7,0,0,1-3.31-1.36,3.07,3.07,0,0,1-.6-.69,1.78,1.78,0,0,1-.32-1.17.71.71,0,0,1,.44-.54,2,2,0,0,1,.34-.14c.39-.08.68.27.91.64.62,1,2.42,1.44,4.3,1.7a38.66,38.66,0,0,0,4.36.27Z"/><path class="cls-1" d="M356.23,430.92c2-.21,4-.26,6-.32l2.15-.13a24.51,24.51,0,0,0,7.3-1.06,10.05,10.05,0,0,0,2.77-1.56,23.1,23.1,0,0,0,2.74-3c.29-.32.68,0,.86.54a2.36,2.36,0,0,1-.46,2.18,11.76,11.76,0,0,1-3.82,3,13.65,13.65,0,0,1-4.56,1.27c-1.84.21-3.7.44-5.53.52-2,.08-4,.12-5.95.27-1.2.11-2.4.24-3.58.46a21.32,21.32,0,0,0-5.2,1.6,17.67,17.67,0,0,0-3.46,2.24c-.23.2-.45.4-.69.59-.86.71-1.19.87-1.72.65a1.84,1.84,0,0,1-.35-.15c-.35-.21-.19-.76.41-1.42a17.51,17.51,0,0,1,7-4.36,29.41,29.41,0,0,1,6.09-1.36Z"/><path class="cls-1" d="M331.35,133.66a8,8,0,0,1-2,0,5.4,5.4,0,0,1-.7,0,11.76,11.76,0,0,1-2.37-.78c-.33-.16-.67-.27-1-.45a2.65,2.65,0,0,1-1-.9c-.08-.12-.09-.07,0,0a2.67,2.67,0,0,0,.64,0,7.59,7.59,0,0,1,2.49.09,6.7,6.7,0,0,0,1.49.05c.56,0,1.12,0,1.68,0a9.05,9.05,0,0,0,1-.05,6.19,6.19,0,0,0,1.54-.31c.38-.15.72-.34,1.08-.51l.24-.12a4.72,4.72,0,0,1,.51-.24l0,0a1.46,1.46,0,0,0-.13.37,3.32,3.32,0,0,1-.29.6,3.42,3.42,0,0,1-.37.61,4.46,4.46,0,0,1-1,1,5.53,5.53,0,0,1-1.88.75Z"/><path class="cls-1" d="M364.05,116.68c-3.12-7.11-5.5-13.82-11.71-14.1-11.26-.51-19.37,23-20.18,21.46-1.29-2.39-4.24-3.18-7-1.64-3.47,1.95-2.14,12.1,8.74,10,.81-.16,4.77,5.17,4,5.39-21,5.67-29.85-13-30.95-21.49-1.27-9.84,1.32-22.61,13.7-30.88,3.57-2.39,18.32-10.11,31.26,1.68.47.42,13.16-12.15,24.44,1.13C384.45,97.84,380.84,116.62,364.05,116.68Z"/><path class="cls-1" d="M319.88,87.47A29.17,29.17,0,0,0,308.94,103a32.57,32.57,0,0,0-.81,14.42,25.49,25.49,0,0,0,1.35,4.63,27.76,27.76,0,0,0,8,11.42,20,20,0,0,0,9.23,4.23,22,22,0,0,0,5.14.29,24.81,24.81,0,0,0,2.58-.28l1.29-.21.83-.19.17,0c.06,0,.11,0,.09-.1a1.24,1.24,0,0,0-.12-.32l-.09-.15-.25-.39c-.17-.26-.35-.52-.53-.77-.37-.51-.77-1-1.18-1.47a7.24,7.24,0,0,0-.62-.62c-.12-.1-.21-.18-.34-.14l-1.33.16a9,9,0,0,1-1.47,0h-.74l-.74-.12-.74-.12A6.18,6.18,0,0,1,328,133a7.38,7.38,0,0,1-4.53-3.91,6.62,6.62,0,0,1,.11-6l.52-.67c.21-.19.45-.36.69-.54a6.11,6.11,0,0,1,1.41-.62,5.83,5.83,0,0,1,3.1-.15,5.64,5.64,0,0,1,1.59.64,5.93,5.93,0,0,1,.69.52l.16.14.08.08.14.16a2.07,2.07,0,0,1,.17.24c0,.08.11.23.2.12a2.38,2.38,0,0,0,.34-.49l.49-.89.58-1.1c.78-1.47,1.56-2.94,2.39-4.39a52.21,52.21,0,0,1,5.64-8.29,19.81,19.81,0,0,1,5.77-4.85,10.27,10.27,0,0,1,3.75-1.12,8.81,8.81,0,0,1,3.93.59,9.06,9.06,0,0,1,3.24,2.26,18,18,0,0,1,2.26,3.08,56.15,56.15,0,0,1,3.12,6.69c1.14,2.8.54,2.63-.91.46-.73-1.08-1.64-2.68-2.77-4.52a18.36,18.36,0,0,0-4.42-5.37,6.24,6.24,0,0,0-3.53-1.17,7.83,7.83,0,0,0-3.74.89,20.14,20.14,0,0,0-6.27,5.63,60.24,60.24,0,0,0-4.84,7.42c-.74,1.3-1.44,2.63-2.16,4l-.54,1-.34.6c-.16.28-.35.61-.55.9a2,2,0,0,1-1.34,1h-.22a.43.43,0,0,1-.14,0l-.3-.1-.14,0-.18-.19-.36-.38a6.57,6.57,0,0,0-.42-.55l-.2-.27-.11-.09a4.23,4.23,0,0,0-.42-.32,3.63,3.63,0,0,0-1-.43,4.12,4.12,0,0,0-2.25.1c-.19.06-.37.14-.56.22a2,2,0,0,0-.47.27,2,2,0,0,0-.61.68,4.08,4.08,0,0,0-.42,2.23,5.5,5.5,0,0,0,2.31,4.14,8.36,8.36,0,0,0,5,1.2l1.77-.21a1.81,1.81,0,0,1,1.49.56,8.13,8.13,0,0,1,.78.77c.46.52.88,1.05,1.29,1.6.2.27.39.55.58.84l.28.44c.13.22.29.48.41.72a2.53,2.53,0,0,1,.34,1.42.79.79,0,0,1-.1.33,1.11,1.11,0,0,1-.21.22,6,6,0,0,1-.62.33l-1.3.31c-.28.06-.56.13-.85.17-.56.09-1.13.2-1.7.28l-1.73.19-1.74.07a22.78,22.78,0,0,1-6.94-1,21.57,21.57,0,0,1-6.31-3.15,25.21,25.21,0,0,1-5-4.87,31.6,31.6,0,0,1-4.93-9.09,26.18,26.18,0,0,1-1.25-5.06,37,37,0,0,1-.28-5.15,32,32,0,0,1,6.51-19.26A33.09,33.09,0,0,1,322,83.92a31,31,0,0,1,5.85-2.46,27.38,27.38,0,0,1,6.22-1.2,23.42,23.42,0,0,1,9.61,1.23l1.15.4,1.1.53A14.14,14.14,0,0,1,348,83.56c.67.45,1.39.85,2,1.34l1.72,1.41c.09,0,.16.19.27.16a2.61,2.61,0,0,0,.28-.17l.87-.58c.65-.44,1.32-.87,2-1.26a23,23,0,0,1,4.34-2,14.83,14.83,0,0,1,9.47-.16,16.78,16.78,0,0,1,6.29,4,18.71,18.71,0,0,1,4.27,6,19.82,19.82,0,0,1,.52,14.53,16.38,16.38,0,0,1-3.39,5.64,15,15,0,0,1-4.2,3.14,14.36,14.36,0,0,1-3.35,1.17,8.93,8.93,0,0,1-3.85.12,9.75,9.75,0,0,1-1.13-.3c-.38-.19.24-.36,1.61-.59a20.18,20.18,0,0,0,5.93-2,14.58,14.58,0,0,0,7.11-9.43,18.36,18.36,0,0,0-1.22-12.16,17,17,0,0,0-3.72-5,14.92,14.92,0,0,0-5.2-3.33,12.16,12.16,0,0,0-6.05-.53,18.27,18.27,0,0,0-5.94,2.13c-.75.4-1.48.85-2.2,1.33l-1.2.81a3.13,3.13,0,0,1-1.14.54A2,2,0,0,1,351,88.1l-2-1.6a15.23,15.23,0,0,0-1.72-1.16l-.88-.56c-.3-.18-.62-.31-.93-.46a18.73,18.73,0,0,0-1.88-.86,20.78,20.78,0,0,0-8.12-1.4,27.62,27.62,0,0,0-15.62,5.43Z"/><path class="cls-1" d="M367.6,140.41a25.53,25.53,0,0,1-1.5,5.88,15.61,15.61,0,0,1-1.44,2.78,9.6,9.6,0,0,1-2.24,2.35,7.79,7.79,0,0,1-2.15,1.09,10.61,10.61,0,0,1-2.24.54,12.94,12.94,0,0,1-7.75-1.51,24.28,24.28,0,0,1-6.12-4.67,57.21,57.21,0,0,1-4.41-5.09,40.16,40.16,0,0,1-4.59-7.23c-.72-1.63,1.87-.46,3.56,2.21a60.65,60.65,0,0,0,5,6.82,30.28,30.28,0,0,0,6.1,5.66,12.63,12.63,0,0,0,4.55,1.92,10.63,10.63,0,0,0,4.89-.24,6.47,6.47,0,0,0,2.33-1.12,7.48,7.48,0,0,0,1.75-2,16.7,16.7,0,0,0,2-5.2,35.16,35.16,0,0,0,.82-7,53.91,53.91,0,0,0-.82-10.77,51.9,51.9,0,0,0-2.16-8c-.22-.56-.43-1.12-.64-1.68-.8-2.1-1-2.78-.75-3.44a1.92,1.92,0,0,1,.18-.43c.24-.37,1,.35,1.7,1.9a48.89,48.89,0,0,1,4,15.19,50.36,50.36,0,0,1,0,12Z"/><path class="cls-1" d="M302.12,98.27a8.36,8.36,0,0,1,1.41-3.35l.4-.54c.15-.17.3-.34.46-.5a5.94,5.94,0,0,1,4.35-1.6,3.73,3.73,0,0,1,2.07.83A3.07,3.07,0,0,1,312,95.54c0,.28-.5.28-1,.18a1.78,1.78,0,0,1-1.12-.54,1.69,1.69,0,0,0-.83-.92,2.67,2.67,0,0,0-1.59-.12,3.94,3.94,0,0,0-2,1.31,6,6,0,0,0-1.34,2.45,5.48,5.48,0,0,0-.24,1.75,4.26,4.26,0,0,0,.78,2.49,3.26,3.26,0,0,0,1.63,1c.14,0,.28,0,.42.09.5.13.65.25.69.78,0,.12,0,.24,0,.36,0,.39-.31.65-.85.65a4.74,4.74,0,0,1-4.07-3,6.87,6.87,0,0,1-.4-3.8Z"/><path class="cls-1" d="M305.64,92.94c-.51-2.94-3.88-10.71-13.13-8.75-21.51,4.55-7.55,29.76-9,34.39a4.88,4.88,0,0,1-4.35,3.13c-.57,0,2.86,7.11,11.2,6.08,17.44-2.17,7.55-21.56,13.15-24.88C303.51,102.91,301.2,98.84,305.64,92.94Z"/><path class="cls-1" d="M285.44,128.63a11.68,11.68,0,0,1-4.83-2.7,13,13,0,0,1-1-1c-.15-.18-.3-.36-.44-.55a6.69,6.69,0,0,1-.48-.72,3.61,3.61,0,0,1-.69-1.93,1.23,1.23,0,0,1,.1-.42c.07-.16.14-.18.21-.27a1.47,1.47,0,0,1,.34-.24,2.74,2.74,0,0,1,.53-.16l.5-.08.41-.11a3.21,3.21,0,0,0,.45-.16,3.93,3.93,0,0,0,.73-.39,3.1,3.1,0,0,0,1-1.15,2.13,2.13,0,0,0,.23-.67,3.66,3.66,0,0,0,0-.82,15.76,15.76,0,0,0-.28-1.93c-.44-2.14-1.08-4.3-1.55-6.51a38.66,38.66,0,0,1-1.1-12,16.24,16.24,0,0,1,1.72-5.93,12.7,12.7,0,0,1,4.17-4.59,19.81,19.81,0,0,1,5-2.26,18.26,18.26,0,0,1,5.38-.81,10.35,10.35,0,0,1,6.57,2.58,12,12,0,0,1,3.6,6c.29,1.49-.25,1.28-1,.3a47,47,0,0,0-3.49-4.31,8.32,8.32,0,0,0-5.21-2.57,15.21,15.21,0,0,0-6.17.88,13.82,13.82,0,0,0-5.39,3.14,11.71,11.71,0,0,0-3,5.44,18,18,0,0,0-.52,3.92,31.27,31.27,0,0,0,.22,4.08,73.88,73.88,0,0,0,1.64,8.2,49,49,0,0,1,1.26,6.23,6.57,6.57,0,0,1,0,.89,3.56,3.56,0,0,1-.2,1,4.92,4.92,0,0,1-.94,1.59,5.54,5.54,0,0,1-1.44,1.12,5.87,5.87,0,0,1-.81.36l-.2.08-.11,0-.17,0-.32.05c-.07,0-.08.06-.06.1a.66.66,0,0,0,0,.15,1.92,1.92,0,0,0,.14.29,4,4,0,0,0,.26.39,10.19,10.19,0,0,0,2,2,10,10,0,0,0,4.9,2,14.68,14.68,0,0,0,5.41-.51,11.69,11.69,0,0,0,3.71-1.69,8.78,8.78,0,0,0,2.65-3,17.9,17.9,0,0,0,1.65-8.11c0-1.83-.05-3.65,0-5.5a16.19,16.19,0,0,1,.26-2.83,7.33,7.33,0,0,1,.45-1.45,6.89,6.89,0,0,1,.39-.7,2.78,2.78,0,0,1,.27-.33l.16-.18.17-.15a1.33,1.33,0,0,1-.09-.21.49.49,0,0,1-.06-.14l-.08-.29c-.05-.19-.1-.41-.14-.61a9.07,9.07,0,0,1,0-3.16,9.64,9.64,0,0,1,1.51-3.79,3.14,3.14,0,0,1,1.36-1.23,3.26,3.26,0,0,1,.57-.22c.26,0,.24.31,0,.91s-.67,1.5-1.11,2.64a9.6,9.6,0,0,0-.59,2.76,7.16,7.16,0,0,0,.05,1.39,5.28,5.28,0,0,0,.13.67,2.9,2.9,0,0,0,.09.34c0,.07,0,.09.07.2l.14.36c-.05.26-.11.54-.16.81s-.17.54-.25.81l-.2.16s-.12.12-.1.11l0,0-.1.12a2.32,2.32,0,0,0-.19.31,3.27,3.27,0,0,0-.29.73,9.09,9.09,0,0,0-.31,1.82c-.1,1.31-.08,2.71-.07,4.13a31.71,31.71,0,0,1-.8,8.88,12.11,12.11,0,0,1-2.38,4.56,11.23,11.23,0,0,1-4.21,3,19.06,19.06,0,0,1-4.83,1.23,13.44,13.44,0,0,1-5.08-.33Z"/><path class="cls-1" d="M363.36,242q-4.11-7.12-8.14-14.29l-3-5.21q-5.1-9.27-9.87-18.72c-1.39-2.8-2.83-5.6-4.17-8.41a63.63,63.63,0,0,1-4.49-11.19c-.31-1.22.21-1.17,1-.31a18.38,18.38,0,0,1,2.64,4.58c3.09,7.42,6.79,14.65,10.44,22,2.19,4.38,4.75,8.78,7.2,13.16q4,7.2,8.18,14.38l5.12,8.8c2.61,4.43,5.22,8.89,7.86,13.25,2.06,3.4,4.17,6.67,6.22,10,.45.74.91,1.46,1.35,2.21,1.63,2.8,2,3.85,1.81,4.7a1.61,1.61,0,0,1-.18.54c-.16.15-.38,0-.69-.41a25,25,0,0,1-1.48-2.2c-3.69-5.91-7.6-12.2-11.4-18.57-2.84-4.73-5.64-9.51-8.44-14.28Z"/><path class="cls-1" d="M416.69,310.17c-.23,5.18-4.54,24.65-8.68,45.83-5.49,2.89-12.92,2.28-18.62.08.93-19.45,3-38.07,5.87-47.29-35.42-2.21-77.06-23.49-77.53-22.29-5.82,14.62-25,47.85-28.05,53.34a50.49,50.49,0,0,1-15.37,17.52c-1.81,1.28-6.55,5.2-12.65,10.49-7.38-.35-13.31-4.22-18.87-9.43a233.57,233.57,0,0,1,17.13-19.63c12.92-13,25.11-51.9,26.4-64.27,1.57-14.94,11.68-26.9,12-27.74,5.91,2.76,22.68,9.58,37.78,2.56a61.25,61.25,0,0,0-2.9,9.4c4.5.38,69,23.85,76.91,31.84C416.78,297.26,417,302.57,416.69,310.17Z"/><path class="cls-1" d="M404.17,275.06a13.29,13.29,0,0,0-4.82-1.33,7.33,7.33,0,0,1-2.07-.42,9,9,0,0,1-3-2,19.76,19.76,0,0,1-2.29-2.66c-.61-.83-1.21-1.67-1.77-2.51-.74-1.05-1.48-2.18-2.1-3.16-.17-.26,0-.54.53-.49a2.35,2.35,0,0,1,1.58,1.06,54.17,54.17,0,0,0,4.41,6.35,7.53,7.53,0,0,0,3.75,2.39c.72.16,1.71.19,2.61.37a10.15,10.15,0,0,1,1.35.3c.46.11.89.28,1.33.43a11.61,11.61,0,0,1,3,1.7,10.22,10.22,0,0,1,3.05,4.14,14.46,14.46,0,0,1,1.06,3.79l.11.86c.05,1.08-.07,1.43-.42,1.64a1.57,1.57,0,0,1-.25.14c-.27.08-.5-.35-.57-1.09a14.76,14.76,0,0,0-1.87-6.26,8.76,8.76,0,0,0-3.58-3.21Z"/><path class="cls-1" d="M358.73,172.28c-.1-1.33-.24-2.66-.43-4a10.93,10.93,0,0,0-.32-1.34,5.88,5.88,0,0,0-2.64-3.75,4.25,4.25,0,0,0-2-.57,15.68,15.68,0,0,0-2.69.33c-.29,0-.41-.36-.28-.82a1.55,1.55,0,0,1,1.19-1.12,6.76,6.76,0,0,1,3.5.28,6.08,6.08,0,0,1,2.8,2.1,9.67,9.67,0,0,1,1.78,3.66c.3,1.45.42,2.76.58,4.16.08.85.15,1.7.2,2.55.07,1.29.07,2.6,0,3.89,0,1,0,2-.12,3,0,.23,0,.45-.08.67-.14.82-.36,1.05-.8,1.1a1.67,1.67,0,0,1-.31,0c-.34,0-.51-.41-.46-1,.12-1.67.23-3.4.21-5.18,0-1.32-.07-2.66-.21-4Z"/><path class="cls-1" d="M351.46,300.43c-5.87-2-11.68-4.12-17.43-6.4-2.87-1.13-5.74-2.3-8.59-3.48l-4.27-1.76c-.71-.28-1.42-.57-2.12-.82l-.56-.2a.08.08,0,0,0-.07,0l0,.06-.6,1.43c-.25.61-.53,1.21-.81,1.82-.55,1.2-1.1,2.41-1.68,3.6-1.14,2.39-2.33,4.74-3.53,7.09-2.4,4.71-4.88,9.35-7.41,14s-5.08,9.24-7.66,13.83l-3.89,6.87c-1.32,2.28-2.53,4.6-4,6.88a51.2,51.2,0,0,1-10.45,12.19c-1,.86-2.09,1.69-3.18,2.47s-2.06,1.53-3.08,2.37c-2,1.64-4.05,3.33-6.05,5q-12,10.25-23.56,21c-3.63,3.38-7.23,6.79-10.76,10.27s-7,7-10.31,10.66c-.83.92-1.67,1.83-2.44,2.78l-1.4,1.68-.53.63-.26.32-.13.16s0,.06-.07.06l-.08-.06-1.23-1.08-3-2.61-.57-.5-.28-.28c0-.05-.11-.09-.13-.14l0-.2.11-.8a1.51,1.51,0,0,1,.09-.38l.07-.28c.21-.66.44-1.25.69-1.84a129.66,129.66,0,0,1,7.11-13.22q6.78-11.29,14.38-22c5.06-7.16,10.35-14.17,16-20.89,2.84-3.35,5.77-6.63,8.86-9.77a52.71,52.71,0,0,0,7.68-10.33,154.31,154.31,0,0,0,10.7-23.77,211.54,211.54,0,0,0,7.49-25c.22-1.07.47-2.13.65-3.19l.53-3.23a48.13,48.13,0,0,1,1.56-6.48,59.47,59.47,0,0,1,5.46-12.08c1.1-1.91,2.28-3.78,3.5-5.61l.46-.68c.14-.23.24-.45.37-.67a10.79,10.79,0,0,0,.66-1.41c.42-1,.77-2,1.12-3,1.38-4.12,2.53-8.34,3.66-12.56,2.21-8.43,4.28-17,6.27-25.44,1.52-7.57,2.53-15.32,4.37-22.92a81,81,0,0,1,3.45-11.24,46.55,46.55,0,0,1,2.52-5.35,28.64,28.64,0,0,1,3.36-4.91,19.39,19.39,0,0,1,9.91-6.51,20.64,20.64,0,0,1,3-.51,9.8,9.8,0,0,1,3.1.37,13.41,13.41,0,0,1,5.2,3.11,27.93,27.93,0,0,1,2.08,2.14c.32.37.64.75.95,1.13s.63.83.87,1.26a49,49,0,0,1,2.68,5.25c1.59,3.55,3,7.15,4.38,10.75,3.52,9.28,6.75,18.65,10,28l4.8,14.08c1.61,4.68,3.19,9.39,4.95,14,3.5,9.32,6.71,18.68,10.72,27.7,1,2.25,2.05,4.49,3.22,6.64a23.9,23.9,0,0,0,4.07,5.86,6.64,6.64,0,0,0,.62.49,5.54,5.54,0,0,0,.73.3c.54.19,1.13.35,1.72.51,1.2.31,2.42.65,3.62,1.09a18.46,18.46,0,0,1,3.46,1.69,13.3,13.3,0,0,1,2.93,2.57,14,14,0,0,1,3,6.24c.24,1.44.29,2.07.18,2a11.15,11.15,0,0,1-.79-2.23,16.25,16.25,0,0,0-3-5.18,15.13,15.13,0,0,0-7.86-4.31l-2.72-.66c-.24-.05-.48-.12-.73-.19a5.58,5.58,0,0,1-.78-.27,3,3,0,0,1-.79-.41,4.19,4.19,0,0,1-.69-.53,14.45,14.45,0,0,1-2.2-2.5c-.66-.9-1.25-1.85-1.84-2.83a116,116,0,0,1-6.36-13.2c-2-4.8-4-9.94-5.92-15.3-.87-2.38-1.71-4.75-2.63-7.09s-1.75-4.78-2.58-7.17l-4.9-14.36c-3.25-9.57-6.49-19.14-9.94-28.63-1.73-4.73-3.51-9.46-5.46-14.08a66.65,66.65,0,0,0-3.19-6.7l-.46-.76c-.16-.25-.32-.45-.48-.68-.35-.47-.77-1-1.16-1.4a21.5,21.5,0,0,0-2.57-2.49,9,9,0,0,0-6.1-2.31l-.82.09-.86.17-.87.17-.84.27c-.28.09-.56.16-.84.27l-.8.35a11.53,11.53,0,0,0-1.57.79c-4.11,2.36-7,6.48-9.17,10.88A70.43,70.43,0,0,0,315,182.9c-1.17,4.88-2,9.85-2.9,14.84-.43,2.5-.86,5-1.37,7.52s-1.18,5-1.76,7.44c-1.2,4.93-2.4,9.87-3.67,14.79s-2.58,9.85-4.13,14.73c-.4,1.22-.8,2.44-1.26,3.66-.21.61-.5,1.22-.75,1.83a16.16,16.16,0,0,1-1,1.83c-1.41,2.09-2.77,4.21-4,6.39a55.47,55.47,0,0,0-5.82,13.76c-.66,2.42-1,4.83-1.42,7.43s-1.08,5-1.72,7.51a220.27,220.27,0,0,1-12.29,34.92,89.76,89.76,0,0,1-9.33,16.32,17.78,17.78,0,0,1-1.52,1.85l-1.59,1.79c-1.08,1.11-2.17,2.22-3.22,3.36q-3.17,3.4-6.17,7A328.8,328.8,0,0,0,228.83,380c-3.43,5.23-6.75,10.53-9.85,15.93-1.54,2.71-3.06,5.43-4.37,8.22-.33.69-.64,1.39-.9,2.09a7.72,7.72,0,0,0-.35,1,.51.51,0,0,0,0,.2.14.14,0,0,0,0,.09l.07.06,2.92,2.56s.11.14.15.08l.14-.16.57-.69c.56-.65,1.09-1.33,1.67-2,1.15-1.26,2.28-2.55,3.45-3.78,2.34-2.49,4.74-4.91,7.15-7.31,4.85-4.79,9.81-9.45,14.81-14.05s10.08-9.15,15.21-13.61q3.85-3.36,7.75-6.65c1.32-1.08,2.61-2.19,3.95-3.25s2.76-2.12,4.08-3.09c11.08-7.94,16.15-21.24,23.1-32.8Q303.28,314,308,305q2.35-4.51,4.62-9.07c.72-1.53,1.49-3,2.18-4.58l1.05-2.31,1.09-2.6.28-.4.07-.1,0-.05,0,0h0c.06.11,0,0,0,.05h0a.45.45,0,0,1,.21-.12,2.31,2.31,0,0,1,1,.11l.55.18.39.14.75.28,1.48.59,2.93,1.2,5.86,2.4c3.9,1.58,7.83,3.12,11.78,4.59,7.89,2.92,15.9,5.58,24,7.76a159.37,159.37,0,0,0,24.74,4.77l1.56.15,1.88.15,1.15.08.29,0c.06,0,0,.17,0,.25l-.16.57-.56,2c-.5,2-1,4.07-1.33,6.14-.76,4.13-1.34,8.29-1.84,12.47-1.47,12.67-2.23,25.44-2.54,38.21-.15,6.39-.16,12.78,0,19.17s.53,12.76,1.33,19.07a57.89,57.89,0,0,0,1.86,9.29c.09.38.26.73.38,1.1l.12.33s0,.12.08.13h.17l2.17.13,2.39.15.81,0,.34,0s.15,0,.13,0l-.05-.17-.16-.67c0-.07-.05-.36-.08-.54l-.08-.61a19.9,19.9,0,0,1-.2-2.43c-.06-.81-.06-1.61-.05-2.42s0-1.61.05-2.41c.11-3.21.43-6.4.79-9.57,1.52-12.7,3.94-25.21,6.43-37.65,1.94-9.67,4-19.27,6-28.84,1-4.78,2-9.56,2.9-14.34.43-2.39.89-4.8,1.08-7.15a46.59,46.59,0,0,0-.06-7.19,17.78,17.78,0,0,0-2-6.69,24.57,24.57,0,0,0-4.34-5.58,31.85,31.85,0,0,0-5.93-3.86c-2.12-1.15-4.3-2.21-6.49-3.24-8.79-4.1-17.8-7.75-26.87-11.29-8-3.1-15.87-6-24-8.87-2.48-.87-4.83-1.68-7-2.4-1.1-.35-2.16-.7-3.19-1l-1.5-.44-.42-.1-.63-.15-1.26-.22q.16-.78.33-1.53l.16-.76c.06-.25.1-.34.15-.52.19-.63.35-1.27.57-1.85.4-1.2.82-2.32,1.23-3.39.84-2.14,1.65-4.08,2.39-5.86,1.49-3.56,2.74-6.5,3.74-9,2-5,3.13-8.26,4-11,.22-.75.47-1.62.7-2.42s.35-1.53.48-2c.21-.75.27-.5.18.67a21.53,21.53,0,0,1-.32,2.43c-.09.51-.19,1.08-.32,1.69s-.3,1.28-.47,2a104.78,104.78,0,0,1-3.48,10.64c-1.57,4.22-3.66,9-5.7,14.49-.36,1-.67,1.91-1,2.89-.14.49-.28,1-.43,1.48-.06.26-.09.42-.13.62l.22,0,.49.12,1.55.44,3.07.95c2,.66,4.05,1.34,6.07,2q6,2.08,12.09,4.31c8.06,3,16.12,6.05,24.16,9.34,4,1.65,8,3.34,12,5.13s8,3.64,11.84,5.82c1,.54,1.93,1.13,2.88,1.75.47.35.95.66,1.41,1a12.83,12.83,0,0,1,1.3,1.22,25.92,25.92,0,0,1,4.14,5.5,19.44,19.44,0,0,1,2.15,6.65,41,41,0,0,1,.21,6.8,30.33,30.33,0,0,1-.28,3.41c-.15,1.13-.34,2.22-.53,3.32-.38,2.19-.81,4.36-1.24,6.54-.87,4.35-1.79,8.68-2.71,13-1.84,8.68-3.7,17.37-5.45,26.09s-3.43,17.49-4.82,26.28c-.69,4.4-1.31,8.81-1.76,13.23a76.46,76.46,0,0,0-.43,13.15l.16,1.2.08.62.3,1.22.3,1.23.15.61,0,.16c0,.05-.08,0-.12,0l-.32,0-2.57-.15-5.67-.33-.64,0-.32,0c-.07,0-.09,0-.1-.09l-.06-.15-.45-1.2-.26-.7a5.31,5.31,0,0,1-.21-.64c-.24-.86-.52-1.72-.69-2.57-.41-1.72-.72-3.44-1-5.16a179.62,179.62,0,0,1-1.61-20.67c-.21-6.89-.19-13.77,0-20.66s.49-13.77,1-20.64,1.12-13.75,2-20.6c.47-3.42,1-6.84,1.66-10.25.34-1.7.72-3.41,1.17-5.1l.09-.34s0,0-.06,0l-1.71-.15c-13.85-1.34-27.29-4.93-40.37-9.27Z"/><path class="cls-1" d="M392.41,417.89c-4,3-.69,7.55,2.85,8.73,4.57,1.52,28.1,4.06,32,.91C432.43,423.32,395.12,418,392.41,417.89Z"/><path class="cls-1" d="M424,422.88a17.48,17.48,0,0,1,3,1.41,6.31,6.31,0,0,1,.81.58,3.06,3.06,0,0,1,.82,1.11,2,2,0,0,1-.8,2.39l-.54.38-.44.2a8,8,0,0,1-.86.3,14.83,14.83,0,0,1-1.65.36c-1.09.17-2.16.25-3.22.31-1.56.07-3.1.12-4.64.07a131.28,131.28,0,0,1-16.09-1.63c-1.18-.2-2.37-.4-3.56-.64-.59-.14-1.18-.26-1.8-.45a8.47,8.47,0,0,1-1.75-.82,8.21,8.21,0,0,1-1.91-1.57,6.15,6.15,0,0,1-1.34-2.18,4.25,4.25,0,0,1,1.38-4.86c.86-.66,1-.11.71.73a10.09,10.09,0,0,0-.35,1.48,5,5,0,0,0,.1,1.62,5.24,5.24,0,0,0,2.13,2.9,7.3,7.3,0,0,0,1.71.88c.64.2,1.38.38,2.12.53,3,.61,6,1.07,9.09,1.51a86.78,86.78,0,0,0,11.32.68,35.37,35.37,0,0,0,6.12-.41,8.55,8.55,0,0,0,1.41-.35,5.17,5.17,0,0,0,.63-.25,1.55,1.55,0,0,0,.3-.21.4.4,0,0,0,0-.6,3.79,3.79,0,0,0-1-.68,35.53,35.53,0,0,0-7.14-2.53c-3.76-1-7.6-1.83-11.42-2.5-3-.51-5.9-.86-8.86-1.21l-1.94-.22c-2.43-.3-3.17-.49-3.65-1-.1-.13-.25-.25-.32-.36-.24-.41.86-.67,2.66-.55a134.1,134.1,0,0,1,16.53,2.34A94,94,0,0,1,424,422.83Z"/><path class="cls-1" d="M211.51,406.91c-8.46,3.4,2.62,13.14,4.84,16.29,3.05,4.33,4.07,6.41,9.11,8.55,4.87,2.08,20.86.67,17.21-3.08C241,427,231.14,427,227,423.37S215.12,408.46,211.51,406.91Z"/><path class="cls-1" d="M239.72,426.35c.59.14,1.18.29,1.8.49a4.73,4.73,0,0,1,2,1.15,3.56,3.56,0,0,1,.42.56,2.41,2.41,0,0,1,.28.76,2,2,0,0,1-.29,1.54,2.63,2.63,0,0,1-.49.58,3,3,0,0,1-.51.39,5.73,5.73,0,0,1-1,.49,15.69,15.69,0,0,1-3.66.95,33.94,33.94,0,0,1-3.61.36,35.93,35.93,0,0,1-5.29-.06,14.44,14.44,0,0,1-4.69-1.14,17.19,17.19,0,0,1-4-2.49c-2.49-2.14-3.84-5-5.65-7.26-1.7-2-3.6-4-5.16-6.28a11.89,11.89,0,0,1-2.25-4.95,4.36,4.36,0,0,1,.6-3,5.2,5.2,0,0,1,2.27-1.84c1.09-.44,1.06.11.48.89a12.36,12.36,0,0,0-.94,1.46,3.58,3.58,0,0,0-.4,1.77,8.44,8.44,0,0,0,1.61,4.13,40.5,40.5,0,0,0,3.06,4l1.69,2c.29.34.58.69.86,1.06.14.18.29.39.43.59l.37.55c1,1.47,1.88,3,2.93,4.23a12.47,12.47,0,0,0,4.88,3.46,16.94,16.94,0,0,0,6,1,35.57,35.57,0,0,0,6.92-.43c2.07-.33,5.24-1.34,3.53-2.37a7.13,7.13,0,0,0-1.81-.69c-.68-.18-1.39-.33-2.1-.48-1.42-.3-2.87-.59-4.3-.94a20.56,20.56,0,0,1-6.34-2.5,31.59,31.59,0,0,1-4.75-4.79c-2.23-2.59-4.41-5.14-6.67-7.59-.5-.54-1-1.05-1.52-1.57-1.91-2-2.49-2.43-2.72-3.13a4.44,4.44,0,0,1-.19-.49c0-.24.22-.31.79-.15a6.76,6.76,0,0,1,2.11,1.28,64.94,64.94,0,0,1,6.47,6.79c2,2.37,4.05,4.88,6.2,7l.6.56.6.45a4.88,4.88,0,0,0,.66.41,4.24,4.24,0,0,0,.7.37,19.17,19.17,0,0,0,3.14,1.16c2.2.63,4.51,1,6.88,1.55Z"/><path class="cls-1" d="M354.26,197a19.7,19.7,0,0,1-3.11,1.64c-.4.15-.76.38-1.16.51a27.09,27.09,0,0,1-4.3,1l-1.91.35a6.33,6.33,0,0,1-2.49.17c-.51-.11.13-1.92,1-2,1.53-.15,3.08-.35,4.68-.53a12.06,12.06,0,0,0,2.77-.88,16.57,16.57,0,0,0,2.87-1.4,13.63,13.63,0,0,0,1.61-1.12c.35-.35.74-.67,1.06-1a7.7,7.7,0,0,0,.88-1.18,5.54,5.54,0,0,0,.47-1l.29-1.07A2.53,2.53,0,0,0,357,190c.12-.58.29-.73.81-.78.12,0,.24,0,.36,0,.39,0,.64.32.63.86a7,7,0,0,1-.5,2.36,9.71,9.71,0,0,1-1.28,2.14,13.21,13.21,0,0,1-2.68,2.5Z"/><path class="cls-1" d="M362.2,218.65a17,17,0,0,1-2.71.79,8.74,8.74,0,0,1-1,.24,24.61,24.61,0,0,1-3.52.25c-.52,0-1,0-1.54.11a4.33,4.33,0,0,1-2-.1c-.21-.08-.1-.56.11-1s.51-.87.86-.87c1.21,0,2.46,0,3.74.09a9.46,9.46,0,0,0,2.3-.33,19.06,19.06,0,0,0,2.47-.64,10.52,10.52,0,0,0,1.42-.62,6.53,6.53,0,0,0,1.88-1.35,2.9,2.9,0,0,0,.51-.71l.37-.78c.05-.11.05-.24.1-.36.16-.42.33-.5.85-.43l.35,0a.66.66,0,0,1,.52.83,5.5,5.5,0,0,1-2.14,3.37,6.82,6.82,0,0,1-1.24.85,9.45,9.45,0,0,1-1.31.66Z"/><path class="cls-1" d="M364.63,225.14a23.33,23.33,0,0,1-2.35,1c-.3.11-.57.26-.87.36a14.56,14.56,0,0,1-3.29.59c-.49.06-1,.05-1.5.1l-1,0a2.49,2.49,0,0,1-.94-.38c-.19-.12,0-.55.35-.95s.66-.77.89-.7a19.06,19.06,0,0,0,3.1.11,3,3,0,0,0,1-.2l1-.36c.37-.13.74-.27,1.1-.43a11.4,11.4,0,0,0,1.07-.49,14.52,14.52,0,0,0,1.29-.7,11.58,11.58,0,0,0,1.77-1.31,6.29,6.29,0,0,0,.53-.65c.14-.24.29-.47.41-.69s.08-.21.13-.3c.2-.34.28-.35.81-.27l.35,0a.64.64,0,0,1,.51.86,6,6,0,0,1-2.16,2.94,19.27,19.27,0,0,1-2.18,1.46Z"/><path class="cls-1" d="M304,384.17c.6.28-1.35,1.49-2.26,1.53a1.7,1.7,0,0,1-1.85-1.85S300.37,382.46,304,384.17Z"/><path class="cls-1" d="M300.78,384.19c-.09,0-.16.06,0,.42.05.1.14.15.22.23a1.16,1.16,0,0,0,.6.28,1.56,1.56,0,0,0,.8-.09,2.32,2.32,0,0,0,.73-.38,2.35,2.35,0,0,0,.36-.33l.11-.1.12,0c.07,0,.08.05.14.05h.07s.05,0,0,0-.08.18,0,0a.44.44,0,0,1,.32-.3c.09,0,.22,0,.33.16a.83.83,0,0,1,.14.45.87.87,0,0,1-.05.35.56.56,0,0,1-.13.24,3.77,3.77,0,0,1-1.21.81,3.33,3.33,0,0,1-1.44.29,2.81,2.81,0,0,1-1.82-.62,2.13,2.13,0,0,1-.56-.94,2.26,2.26,0,0,1-.05-1.18,1.61,1.61,0,0,1,1.22-.71,4.86,4.86,0,0,1,1.65.19c.39.09.79.14,1.19.23l.26.06c.3.12.36.24.27.59a2.1,2.1,0,0,1-.06.24.55.55,0,0,1-.54.4c-.68-.05-1.31-.25-1.89-.34a3.17,3.17,0,0,0-.58-.06h-.14Z"/><path class="cls-1" d="M336.2,405.06c3.6-5.63,10.23.49,6.58,4.58C339.85,412.93,334,408.58,336.2,405.06Z"/><path class="cls-1" d="M302,410.27c1.75-4.08,8.72-2.84,9.32,1.49.41,3.05-4.78,6.19-7.26,3.08Z"/><path class="cls-1" d="M337.14,386s1.68,5.48,6.84,4.84c4.07-.5,5-3.84,4.1-5.84C348.08,385,340.4,385.17,337.14,386Z"/><path class="cls-1" d="M372.3,429.05c-.83-2.17-2.05-2.54-4.05-2.25a5.07,5.07,0,0,0-4.05,3.79Z"/><path class="cls-1" d="M370,402.46c-2.93.65-6.16.77-7.56-2.45-.87-2-.63-4.74,2.41-5.67Z"/><path class="cls-1" d="M358.32,218.57c-.25-.15.18-.35,1-.45a8,8,0,0,1,1.22,0l.61.1a6.49,6.49,0,0,1,.74.49.73.73,0,0,1,.32.44c.11.35.3.71.46,1.08a.47.47,0,0,1,0,.29,1,1,0,0,0,.2.95c0,.05,0,.11.18.1s.6.77.57.92a7.77,7.77,0,0,0-.13,1c0,.05.06.07,0,.17-.26.24-.17.29-.15.39a.85.85,0,0,1,0,.42,1.59,1.59,0,0,1-.26.37,2.57,2.57,0,0,1-.62.36,2,2,0,0,0-.54.31l-.19.11a4,4,0,0,1-1.32-.25s-.21-.22-.42-.45-.44-.47-.5-.51,0-.14,0-.22-.69-.72-.69-.77-.26-.3-.06-.6c0-.06,0-.09,0-.12a2.43,2.43,0,0,1-.28-1,3.26,3.26,0,0,0-.2-.48s0-.08,0-.11,0-.1,0-.14a8.63,8.63,0,0,0-.43-1.23c-.07-.09.19-.69.12-.81S358.42,218.63,358.32,218.57Z"/><path class="cls-1" d="M323.92,380.9a16.57,16.57,0,0,1-.13,4.82,11.18,11.18,0,0,1-.36,1.72,12.81,12.81,0,0,1-3.1,5.34,11.41,11.41,0,0,1-2.17,1.72,5.53,5.53,0,0,1-1.73.71,3,3,0,0,1-1.95-.25c-.38-.2-.1-.53.3-.82a3.34,3.34,0,0,1,1.21-.65,5.39,5.39,0,0,0,2.46-1.19,11,11,0,0,0,1.14-1,9.34,9.34,0,0,0,1-1.21,10,10,0,0,0,1.5-3.62,15.66,15.66,0,0,0,.39-4.38l-.13-1.36-.25-1.35a17,17,0,0,0-1.42-3.92,11.21,11.21,0,0,0-1.91-2.48,4.15,4.15,0,0,0-.5-.45,4.8,4.8,0,0,1-.59-.63.76.76,0,0,1-.07-.58,1.53,1.53,0,0,1,.05-.32c.09-.34.56-.35,1.22,0a11.6,11.6,0,0,1,3.88,5.16,18.69,18.69,0,0,1,1.23,4.71Z"/><path class="cls-1" d="M318.9,365a4.56,4.56,0,0,0-.26-.79l-.25-.56c0-.1-.11-.12-.19-.1s-.17.06-.31.13l-.43.25a11.53,11.53,0,0,0-2.91,2.34,7.31,7.31,0,0,0-1,1.38c-.34.63-.54,1.3-.92,1.9-.12.19-.51.05-.83-.27a1.21,1.21,0,0,1-.34-1.29,9.81,9.81,0,0,1,3.09-3.85A19,19,0,0,1,317,362.4l.49-.22a3,3,0,0,1,.72-.2,1.16,1.16,0,0,1,1.24.52,8.06,8.06,0,0,1,.7,1.36,7.74,7.74,0,0,1,.47,2,12.3,12.3,0,0,1-.12,3c-.11.76-.18,1.52-.31,2.26a3.85,3.85,0,0,1-.08.49c-.14.6-.3.76-.75.76h-.3c-.33,0-.52-.35-.49-.8.08-1.34.39-2.63.47-3.89a7.25,7.25,0,0,0-.21-2.68Z"/><path class="cls-1" d="M289.78,380.93a19.62,19.62,0,0,1,1.35-4.87,9.91,9.91,0,0,1,1.35-2.28c.29-.33.23,0-.23-1.08a23.72,23.72,0,0,1-1.24-3.42,19.1,19.1,0,0,1-.59-3.17,5.46,5.46,0,0,1,0-1.14,1.27,1.27,0,0,1,.55-1,11.22,11.22,0,0,1,1.18-.12l.47,0,.4,0a11.9,11.9,0,0,1,6,2.29,8.14,8.14,0,0,1,1.25,1.24,3.24,3.24,0,0,1,.27.35l.18.27c.08.11.13.23.2.34a3.87,3.87,0,0,1,.56-.3c.38-.15.75-.27,1.13-.38a13.52,13.52,0,0,1,3.63-.49,8.33,8.33,0,0,1,3.64.76c.73.41.35.69-.33.81a13.39,13.39,0,0,1-3,.2,13.2,13.2,0,0,0-2.81.19,8.58,8.58,0,0,0-3.51,1.44c-.32-.58-.64-1.26-1-1.75a5.68,5.68,0,0,0-.51-.7,7.38,7.38,0,0,0-1.33-1.15,10.65,10.65,0,0,0-3.44-1.43c-.33-.07-.67-.14-1-.18l-.51-.06-.36,0c-.1,0-.27-.05-.28.1a.47.47,0,0,0,0,.17v.09l0,.25a21.16,21.16,0,0,0,1,4.13,22.71,22.71,0,0,0,.85,2.17l.13.26.16.32.49.85.07.11s-.05.06-.07.09l-.18.17-.36.35a2.36,2.36,0,0,0-.29.32l-.17.21a12.32,12.32,0,0,0-1.8,4.19,20.23,20.23,0,0,0-.59,5.75,13.89,13.89,0,0,0,2.73,8.13,10,10,0,0,0,5.49,3.37c.45.15.93.17,1.4.28,1.79.26,2.37.3,2.76.76a1.74,1.74,0,0,1,.26.3c.19.32-.59.62-2.05.59a12.59,12.59,0,0,1-6.4-1.91,11.81,11.81,0,0,1-4.47-5.38,19.24,19.24,0,0,1-1.13-10.1Z"/><path class="cls-1" d="M356.8,427.07a22.51,22.51,0,0,0,9.75-3.09,8.92,8.92,0,0,0,3.24-3.63,15.67,15.67,0,0,0,1.46-4.88,23.09,23.09,0,0,0-.23-7.55,27.73,27.73,0,0,0-5.49-12.16,26.55,26.55,0,0,0-10.64-8.12,30.45,30.45,0,0,0-11.77-2.24A54.5,54.5,0,0,0,327.91,388c-1.56.43-1.5,0-.3-.82a15.57,15.57,0,0,1,2.59-1.37c.56-.22,1.18-.44,1.84-.65l1-.31,1.11-.23,2-.38,2-.25c1.35-.2,2.73-.19,4.1-.28a38.46,38.46,0,0,1,8.2.86,28.42,28.42,0,0,1,14.26,8.06A29.67,29.67,0,0,1,373,410.7a20.3,20.3,0,0,1-2.06,10.91,11.07,11.07,0,0,1-4,4,20,20,0,0,1-5.17,2.12,40.21,40.21,0,0,1-13.46,1,27.15,27.15,0,0,1-5.09-.89,8.05,8.05,0,0,1-1.26-.47c-.36-.17-1.1-.61-1.1-1.22l0-.45,0-.35c0-.22.09-.44.14-.67a6.07,6.07,0,0,1,.5-1.28,5.12,5.12,0,0,1,1.91-2,7.69,7.69,0,0,1,2.52-.93,15.11,15.11,0,0,1,2.59-.23q.64,0,1.29,0l.93.06a4.24,4.24,0,0,0,.71,0c.08,0,0-.09,0-.13l-.11-.14-.2-.29c-.09-.12-.17-.25-.25-.37l-.41-.68c-.26-.48-.51-1-.75-1.48a16,16,0,0,1-1.06-3.17,11.51,11.51,0,0,1,.44-6.69,12.25,12.25,0,0,1,1.8-3.09,12.87,12.87,0,0,1,3.52-3.08,4.68,4.68,0,0,1,2-.71,4.28,4.28,0,0,1,.66-.05c.25.05,0,.35-.55.83-.29.26-.7.51-1.14.88s-1,.77-1.51,1.27a13.52,13.52,0,0,0-2.72,3.37A10,10,0,0,0,350,411a11.08,11.08,0,0,0,.64,4.31,15.07,15.07,0,0,0,.88,2.08,10.9,10.9,0,0,0,.55,1l.46.76.71,1,.08.68.05.33,0,.17a.56.56,0,0,1-.08.15A1.37,1.37,0,0,1,352,422l-1.19-.08-.88-.06c-.38,0-.77,0-1.15,0a9.24,9.24,0,0,0-4.21.77A3.63,3.63,0,0,0,343,424a4.08,4.08,0,0,0-.42,1,3.39,3.39,0,0,0-.13.55l-.05.32h0l.21.1a7.43,7.43,0,0,0,1.1.4,20.23,20.23,0,0,0,2.53.53,41.46,41.46,0,0,0,10.56.16Z"/><path class="cls-1" d="M304.92,417.76a22.59,22.59,0,0,1-1.36-2c-.39-.72-.78-1.44-1.11-2.18-.21-.55-.48-1.09-.69-1.64s-.27-1-.41-1.51l-.19-.76-.12-.77-.23-1.54-.08-1.54c-.08-.91,0-1.82-.06-2.73l0-.87.07-.87a11,11,0,0,1,.29-1.72c.19-.69,1.61.46,1.49,1.69s-.12,2.22-.2,3.33c0,.56,0,1.11,0,1.67v.84l.09.84a8.7,8.7,0,0,0,.38,2,16.76,16.76,0,0,0,.67,2l.42,1.06c.15.34.34.67.51,1a16.15,16.15,0,0,0,1.16,2,11.4,11.4,0,0,0,.84,1.13,10.6,10.6,0,0,0,.91,1.08,19.33,19.33,0,0,0,3.22,2.84c.46.3.94.57,1.42.83s1,.48,1.48.69c.23.09.45.16.67.26.81.36,1,.54,1.06,1,0,.11,0,.22,0,.33,0,.34-.49.45-1.17.26a16.45,16.45,0,0,1-5.68-3.08,21.81,21.81,0,0,1-3.44-3.55Z"/><path class="cls-1" d="M302.8,427.34a15.42,15.42,0,0,1-5.33-1.53,4.57,4.57,0,0,1-1.75-1.53,2.83,2.83,0,0,1-.27-2.22,4.4,4.4,0,0,1,1-1.75,8.82,8.82,0,0,1,3-2,13.78,13.78,0,0,1,3-.92,8.82,8.82,0,0,1,4,0c.41.11.27.5-.11.86a2.59,2.59,0,0,1-1.64.68,11.38,11.38,0,0,0-6.63,2,2.68,2.68,0,0,0-1.07,1.53,1.38,1.38,0,0,0,.46,1.45,5.76,5.76,0,0,0,2,1.13,14.76,14.76,0,0,0,2.44.61,25.28,25.28,0,0,0,3.15.33,35.52,35.52,0,0,0,4.84-.07c1.25-.11,2.46-.36,3.68-.57l.8-.16c1-.17,1.34-.11,1.62.29a2.48,2.48,0,0,1,.19.26c.14.32-.23.64-1,.85a30.83,30.83,0,0,1-7,1,35,35,0,0,1-5.41-.15Z"/><path class="cls-1" d="M316.71,423.63c0,.09,0,.16,0,.26l0,.32a1.58,1.58,0,0,0,0,.32l.09.28a2,2,0,0,0,.73.93,7.52,7.52,0,0,0,2.9,1l1.22.11,1.24.05a76.07,76.07,0,0,0,8.91-.25c1.32-.11,2.65-.27,3.95-.45a47.82,47.82,0,0,1,5.06-.6c1.06,0-.07,1.68-2,1.94a90.15,90.15,0,0,1-10.44.83c-2.1,0-4.29.21-6.49.07a15.11,15.11,0,0,1-3.64-.63,4,4,0,0,1-.9-.36,3.26,3.26,0,0,1-.86-.54l-.4-.33a4.46,4.46,0,0,1-.33-.43,3.12,3.12,0,0,1-.29-.45l-.18-.5-.1-.32,0-.31-.06-.62c0-.22.05-.44.08-.66a5.45,5.45,0,0,1,.2-.61,6.13,6.13,0,0,1,1.35-1.95,13,13,0,0,1,5.95-3.19,21.62,21.62,0,0,1,5.11-.76h1.14c1.42.09,1.85.33,2.07.77a1.73,1.73,0,0,1,.14.32c.07.34-.52.53-1.5.49a20.6,20.6,0,0,0-8.58,1.39,10.68,10.68,0,0,0-2.72,1.65,4.56,4.56,0,0,0-1.58,2.26Z"/><path class="cls-1" d="M350.88,431.26c3.85-1.14,7.74-1.18,11.52-1.35,1.39-.06,2.76-.16,4.12-.27a21.7,21.7,0,0,0,6.91-1.42,7.29,7.29,0,0,0,3.74-3.31c.26-.52.48-1.06.72-1.6a8.63,8.63,0,0,0-.07-6,10.36,10.36,0,0,0-2.11-3.28,11.06,11.06,0,0,0-3-2.4,1.3,1.3,0,0,1-.3-.19.32.32,0,0,1-.09-.21c0-.13.23-.35.67-.36a5.07,5.07,0,0,1,3.59,1.65,11.82,11.82,0,0,1,2.57,3.8,10.44,10.44,0,0,1,.77,4.59,11.86,11.86,0,0,1-1.29,4.41,8.36,8.36,0,0,1-3.16,3.4,15.65,15.65,0,0,1-5.11,1.86,38.34,38.34,0,0,1-5.29.63,96.19,96.19,0,0,0-11.36.88,13.93,13.93,0,0,0-6.25,2.54,24,24,0,0,1-4.39,3.21,5.16,5.16,0,0,1-2.82.65,2.84,2.84,0,0,1-1.43-.56,3.91,3.91,0,0,1-1-1.09,5,5,0,0,1-.28-4.37A9.15,9.15,0,0,1,340,429a12.79,12.79,0,0,1,1.47-1.17c2-1.28,2.74-1.38,3.32-1.23a1.71,1.71,0,0,1,.4.13c.15.1,0,.3-.27.56s-.86.58-1.52,1a13.58,13.58,0,0,0-2.73,2.14,7.72,7.72,0,0,0-1.81,2.78A3.39,3.39,0,0,0,339,436a2.31,2.31,0,0,0,.93.89,1.89,1.89,0,0,0,1.24.07,7.07,7.07,0,0,0,2.24-1.05,22.18,22.18,0,0,0,2.17-1.68c.33-.29.74-.62,1.16-1a12.21,12.21,0,0,1,1.31-.85,15.55,15.55,0,0,1,2.83-1.21Z"/><path class="cls-1" d="M301.3,386.31c-.07-.05.06-.09.3-.13a1.28,1.28,0,0,1,.34,0l.17.09s.13.3.18.4a.88.88,0,0,1,.06.26,4.06,4.06,0,0,0,0,.51.22.22,0,0,1,0,.11.39.39,0,0,0,0,.35s0,0,.05.05.17.27.17.31a1.29,1.29,0,0,0,0,.34s0,0,0,.06,0,.1,0,.13a.25.25,0,0,1,.05.15s0,.11-.05.16a.34.34,0,0,1-.12.12s-.07.06-.1.1l0,0c-.07.08-.48,0-.51-.07a4.33,4.33,0,0,1-.43-.48s0-.07,0-.1-.25-.41-.25-.43-.07-.18,0-.29,0,0,0-.05a1.39,1.39,0,0,1,0-.45.78.78,0,0,0,0-.22.08.08,0,0,1,0,0s0,0,0-.05c0-.17,0-.33,0-.5s.09-.21.08-.25S301.33,386.33,301.3,386.31Z"/><path class="cls-1" d="M296.59,377.47c0-.19.16-.28.49-.29a.69.69,0,0,1,.41.15,2.7,2.7,0,0,1,.15.29,5.46,5.46,0,0,0,.07,1.07c.05.23.08.44.12.6a.52.52,0,0,0,.15.29s.07,0,.21,0,.12,0,.2.05a1,1,0,0,0,.87-.18c.05,0,.1-.05.12-.12a8,8,0,0,1,.84-.78A4.16,4.16,0,0,0,301,378s0-.09.12-.09.21-.13.26-.21a3,3,0,0,1,.25-.37.9.9,0,0,1,.24-.15.3.3,0,0,1,.29.08c.05.09.17.06.26.08l.09,0a3,3,0,0,1-.05,1.25l-.11.24c-.08.13-.17.32-.28.5a6.39,6.39,0,0,1-.55.78.6.6,0,0,1-.23.18s-.24.26-.51.48a3.65,3.65,0,0,1-.6.43,1.47,1.47,0,0,1-.85.23.57.57,0,0,0-.18,0,2.73,2.73,0,0,1-1.61-.1,2.25,2.25,0,0,1-.85-.53,1.29,1.29,0,0,1-.09-.16,1.28,1.28,0,0,0-.11-.2,3.45,3.45,0,0,1-.36-1.81,8.48,8.48,0,0,1,.22-.83C296.35,377.73,296.61,377.54,296.59,377.47Z"/><path class="cls-1" d="M305.19,377.47c0-.19.16-.28.49-.29a.69.69,0,0,1,.41.15,2.7,2.7,0,0,1,.15.29,5.46,5.46,0,0,0,.07,1.07c.05.23.07.44.12.6a.52.52,0,0,0,.15.29s.07,0,.21,0,.12,0,.2.05a1,1,0,0,0,.87-.18s.1-.05.12-.12a8,8,0,0,1,.84-.78,4.16,4.16,0,0,0,.77-.63s0-.09.12-.09.21-.13.26-.21a3,3,0,0,1,.25-.37.9.9,0,0,1,.24-.15c.07-.05.28,0,.29.08s.17.06.26.08l.09,0a3.15,3.15,0,0,1-.05,1.25l-.12.24c-.07.13-.16.32-.27.5a6.39,6.39,0,0,1-.55.78.6.6,0,0,1-.23.18s-.24.26-.51.48a3.65,3.65,0,0,1-.6.43,1.47,1.47,0,0,1-.85.23.52.52,0,0,0-.18,0,2.73,2.73,0,0,1-1.61-.1,2.25,2.25,0,0,1-.85-.53,1.29,1.29,0,0,1-.09-.16c0-.07-.07-.14-.11-.2a3.36,3.36,0,0,1-.36-1.81,8.48,8.48,0,0,1,.22-.83C305,377.73,305.21,377.54,305.19,377.47Z"/><path class="cls-1" d="M298.05,370.92c-1.6-2.05-3.21-1.05-3.21-1.05a9.06,9.06,0,0,0,1.11,2.58Z"/><path class="cls-1" d="M314.45,369.62a4.34,4.34,0,0,1,2.16-2.29,4.45,4.45,0,0,1,.1,3.21Z"/><path class="cls-1" d="M184.43,407.49l4.5-.08c.55,0,1.09-.08,1.64-.09,1.93,0,3.86-.08,5.78-.17.86,0,1.71-.13,2.55-.26.54-.07,1.07-.16,1.6-.26s1.05-.15,1.57-.18c.33,0,.41.4.21.85a1.83,1.83,0,0,1-1.33,1.05,38.63,38.63,0,0,1-6.78.39c-1.36,0-2.75.13-4.13.18l-4.55.12-2.8.06c-1.41,0-2.83.06-4.23.14-1.09.06-2.15.22-3.22.33l-.71.08c-.88.06-1.17,0-1.38-.46,0-.09-.1-.19-.13-.28-.1-.33.25-.62.9-.74a42.69,42.69,0,0,1,6-.57l4.54-.15Z"/><path class="cls-1" d="M153.13,426.4l4.29-4.18c.52-.51,1-1.06,1.52-1.57l5.52-5.37c.81-.8,1.59-1.64,2.35-2.48a26.28,26.28,0,0,1,3-3.14c.7-.57,1.25,1.49.1,2.73-2,2.17-4.12,4.26-6.37,6.25-1.35,1.18-2.58,2.59-3.87,3.88l-4.29,4.25-2.65,2.61c-1.32,1.33-2.67,2.64-4,4-1,1.05-1.9,2.15-2.85,3.23-.21.23-.41.48-.63.71-.81.85-1.21,1-1.72.83a1.81,1.81,0,0,1-.35-.13c-.34-.22-.21-.77.32-1.43a73.85,73.85,0,0,1,5.3-5.92l4.25-4.29Z"/><path class="cls-1" d="M344.28,440.87l-50.34.07c-6.13,0-12.25.08-18.36.09q-32.37,0-64.72,0c-9.57,0-19.2.08-28.69.16-12.2.1-24.46.3-36.65.16-7.61-.08,2-1.94,16.09-2,24.92-.16,49.83-.2,74.95-.08,15,.08,30.66-.08,46-.12l50.71-.1q15.6,0,31.2-.08c15.76-.05,31.58-.07,47.22-.18,12.15-.08,24.07-.27,36.08-.41l7.91-.11c9.89-.08,13,0,15.16.52.48.11,1.12.22,1.4.33,1,.38-3.07.72-10.32.87-21.48.45-44.13.61-66.87.73-16.89.09-33.86.13-50.79.19Z"/><path class="cls-1" d="M270.38,408.14H259.5c-1.32,0-2.65.06-4,.05-4.66,0-9.32,0-14,0-2.07,0-4.15,0-6.2.1-2.64.08-5.28.23-7.92.1-1.65-.08.41-1.66,3.45-1.72,5.39-.11,10.77-.12,16.2,0,3.25.08,6.63,0,9.95-.06l11,0,6.74,0c3.4,0,6.82,0,10.2-.1,2.63-.05,5.2-.2,7.8-.31.57,0,1.13-.07,1.7-.08,2.14-.06,2.82,0,3.29.45a2.81,2.81,0,0,1,.3.29c.21.33-.65.62-2.22.74-4.63.35-9.53.47-14.44.55-3.65.05-7.32.07-11,.1Z"/><path class="cls-1" d="M427.66,411.37l-5.94-.1c-.72,0-1.44,0-2.17,0-2.54-.05-5.08-.13-7.63-.17-1.13,0-2.26,0-3.38.05a31.14,31.14,0,0,1-4.32,0c-.9-.1.22-1.66,1.88-1.69,2.94-.06,5.87,0,8.84.16,1.77.12,3.61,0,5.43,0l6,.07c1.22,0,2.45,0,3.68,0,1.86,0,3.72,0,5.57,0,1.43,0,2.83-.16,4.25-.25l.93-.06c1.17,0,1.54.06,1.79.49a1.22,1.22,0,0,1,.17.29c.12.33-.35.61-1.21.71a69.8,69.8,0,0,1-7.88.42c-2,0-4,0-6,0Z"/><path class="cls-1" d="M72.66,355.9a18.15,18.15,0,0,0-1.32,1.91L70,360.06c-.47.77-.95,1.54-1.5,2.35-.28.4-.58.8-.95,1.24a5.91,5.91,0,0,1-.71.72l-.24.2-.35.23a2.79,2.79,0,0,1-.51.23,1.52,1.52,0,0,1-.32.1,3.62,3.62,0,0,1-.46.06,2.58,2.58,0,0,1-.66-.05,5,5,0,0,1-.52-.14,2.8,2.8,0,0,1-1.16-.84,2.68,2.68,0,0,1-.37-.59A2.85,2.85,0,0,1,62,363a4,4,0,0,1-.09-.84,6.73,6.73,0,0,1,.4-1.95,25.79,25.79,0,0,1,1.17-2.66l1.16-2.37a16.08,16.08,0,0,0,.87-2.14c0-.12,0-.18.07-.27v-.1s0,0,0,0h.18a2.2,2.2,0,0,0,.36,0l.24,0a1,1,0,0,0,.23-.08l.11,0a.33.33,0,0,0,.1-.06l0,0s0,0,0,0l-.08.14s0,.05,0,.07v0h0c0,.08.2-.75.1-.4h0a.2.2,0,0,0,0,.07s0,.05,0,.13a.85.85,0,0,0,0,.17,1.86,1.86,0,0,0,.22.53,3.76,3.76,0,0,0,.18.35h0a2.62,2.62,0,0,0-.38.36,30.36,30.36,0,0,0-2.07,2.87c-.84,1.24-1.63,2.53-2.67,3.88a8.19,8.19,0,0,1-1,1.1,2.89,2.89,0,0,1-1.27.69,2.38,2.38,0,0,1-.84.05,2.86,2.86,0,0,1-.77-.16,2.42,2.42,0,0,1-.93-.66,2.28,2.28,0,0,1-.52-1,3.22,3.22,0,0,1-.09-.75,2.68,2.68,0,0,1,0-.54A6.7,6.7,0,0,1,57.2,358c.69-1.6,1.47-2.87,2.17-4.2.35-.65.67-1.3,1-1.92a5.46,5.46,0,0,0,.46-1.55l.81,1.28a1.2,1.2,0,0,0-.19-.07,1,1,0,0,0-.4.16,5.63,5.63,0,0,0-1.27,1.24,36.22,36.22,0,0,0-2.4,3.66,22.08,22.08,0,0,1-1.81,2.72,3.94,3.94,0,0,1-.8.76,2,2,0,0,1-.32.2,2.39,2.39,0,0,1-.44.17,1.85,1.85,0,0,1-.58.06,2.44,2.44,0,0,1-.62-.13,3,3,0,0,1-.49-.29,2.22,2.22,0,0,1-.31-.3,2.09,2.09,0,0,1-.46-.81,2.59,2.59,0,0,1,0-1.54,6,6,0,0,1,1-1.7c.34-.46.68-.86,1-1.26.69-.78,1.36-1.52,1.95-2.25a8.21,8.21,0,0,0,.92-1.37,1.63,1.63,0,0,0,.19-.53.2.2,0,0,0,0-.1h.12l.81-.32h0a.24.24,0,0,0,.1-.06,0,0,0,0,0,0,0c-.06.11-.05.19-.06.45a2.93,2.93,0,0,0,0,.35,1.61,1.61,0,0,0,.06.31l-.06,0a3.62,3.62,0,0,0-.57.34,13.94,13.94,0,0,0-1.34,1.07,25.11,25.11,0,0,0-4.61,5.38c-.31.55-.57.7-1,.64s-.8-.53-.93-1.42c-.27-1.78.66-4.72,3-7,.5-.48,1-.94,1.59-1.39a10.44,10.44,0,0,1,2.11-1.34,4.88,4.88,0,0,1,1-.32,1.72,1.72,0,0,1,.44-.05,2.41,2.41,0,0,1,.53,0,3.64,3.64,0,0,1,.74.18,2.83,2.83,0,0,1,.84.5,2.68,2.68,0,0,1,.61.71,3.17,3.17,0,0,1,.21.41,1.84,1.84,0,0,1,.06.18,4.16,4.16,0,0,1,.17.65c0,.21,0,.43.06.64a5.27,5.27,0,0,1,0,.56,6.45,6.45,0,0,1-1.18,2.82,30.09,30.09,0,0,1-2.64,3.11c-.41.45-.81.88-1.12,1.27-.15.19-.29.38-.38.51l-.09.15c.16.1-.43-.18-.82-.23-.75-.18-.92.08-.65-.13a.38.38,0,0,0,.11-.11l0,0v0l-.27.33h0l0,0-.08.12s0,.05,0,.07h0s0,0,0-.1a.33.33,0,0,0-.05-.12,1.34,1.34,0,0,0-.09-.26,1.14,1.14,0,0,0-.15-.23c-.06-.1-.14-.24-.22-.35a2.6,2.6,0,0,0-.26-.32l-.15-.16c-.06-.08,0,0,0,0s0,0,.11-.11.26-.32.41-.52c.61-.87,1.25-2,1.94-3.05A22.39,22.39,0,0,1,57.45,350a7.2,7.2,0,0,1,2.14-1.64,4,4,0,0,1,3.7.11l1.07.58v1.12a6.75,6.75,0,0,1-.54,2.45,47.19,47.19,0,0,1-2.31,4.51c-.37.7-.74,1.4-1,2a5.28,5.28,0,0,0-.27.79v0h-.13c-.15,0-.36,0-.46,0a1.26,1.26,0,0,0-.33.05c-.36.08-.25.21-.14-.12a.85.85,0,0,0,.06-.31c0-.09.05-.3.05-.44a.77.77,0,0,0,0-.19h0c0,.6-.06-1.33.07,1.34h0v0a.68.68,0,0,0-.07-.28,1.72,1.72,0,0,0-.21-.43c-.07-.08-.28-.44-.3-.46l.06-.05a5.63,5.63,0,0,0,.59-.71c.43-.58.86-1.26,1.29-1.93.88-1.37,1.72-2.78,2.83-4.19a9.61,9.61,0,0,1,1.08-1.19,4.46,4.46,0,0,1,.84-.64,3.27,3.27,0,0,1,.67-.29,2.51,2.51,0,0,1,1.08-.07,2.63,2.63,0,0,1,1,.39,2.42,2.42,0,0,1,.75.85,2.58,2.58,0,0,1,.28.87,4.85,4.85,0,0,1,0,.65,6.31,6.31,0,0,1-.39,1.75c-.69,1.91-1.56,3.45-2.3,5a14.17,14.17,0,0,0-.89,2.21c0,.08,0,.15,0,.2s0,.12,0,.14,0,0,0,0a2,2,0,0,0-.41.05,2.72,2.72,0,0,1-.28.07l-.14.08,0,0a.24.24,0,0,0,.07-.13,2.19,2.19,0,0,0,.08-.28.88.88,0,0,0,0-.16v-.08c0,.4.07-.91-.07.89h0v0a1.47,1.47,0,0,0-.26-.67,1.56,1.56,0,0,0-.16-.28h0l0,0a4.86,4.86,0,0,0,.65-.74c.24-.32.48-.67.71-1,.47-.71.93-1.47,1.39-2.23.57-.95,1.13-1.9,1.78-2.87a10.53,10.53,0,0,1,1.15-1.49,3.52,3.52,0,0,1,.48-.43,2.74,2.74,0,0,1,.42-.25,1.65,1.65,0,0,1,.82-.16,1.52,1.52,0,0,1,.58.13,2.23,2.23,0,0,1,.34.14,2.62,2.62,0,0,1,.71.54A2.33,2.33,0,0,1,74,355a4.22,4.22,0,0,1-.3,1.18,10.18,10.18,0,0,1-.9,1.65L71,360.55a7.26,7.26,0,0,0-.84,1.63,1.64,1.64,0,0,0-.06.33l0,.49c0,.16,0,.3,0,.42a.8.8,0,0,0,0,.11s.06,0-.06,0l-.25.07a2.37,2.37,0,0,0-.39.19c-.19.11-.16.21-.15.08a1.93,1.93,0,0,0-.34-.73c-.08-.14,0-.05,0-.08h0a.09.09,0,0,0,.05,0l.13-.12a8.78,8.78,0,0,0,.61-.76c.42-.56.83-1.16,1.24-1.77l1.25-1.84.68-1c.31-.43.63-.85,1-1.26a11.84,11.84,0,0,1,2-2,4.18,4.18,0,0,1,2.16-.92,2.51,2.51,0,0,1,1.27.31,2.11,2.11,0,0,1,.89.91A6.33,6.33,0,0,1,80,359c-.12.43-.27.86-.43,1.3l-.46,1.23-.66,1.77a8.33,8.33,0,0,0-.45,1.55.26.26,0,0,0,0,.09h0a1.23,1.23,0,0,1-.17,0,1.35,1.35,0,0,0-.4,0c-.45,0-.56.35-.42,0v0h0c0-.2,0,.27,0,.22V365c0-.06,0-.1-.07-.25a1.39,1.39,0,0,0-.16-.35c0-.06-.23-.42-.19-.33l.15-.15a26,26,0,0,0,2.06-2.84c.62-.92,1.19-1.87,1.84-2.81,2.41-3.47,3.9-4.49,5.34-4.23a1.64,1.64,0,0,1,.86.34.61.61,0,0,1,.11.54,2,2,0,0,1-.24.68c-.3.57-.88,1.46-1.69,2.67-1,1.51-2,3.13-3,4.77-.54.83-1.07,1.66-1.73,2.53A8.55,8.55,0,0,1,78.89,367a3.4,3.4,0,0,1-1,.54,2.9,2.9,0,0,1-1.14.16,2.66,2.66,0,0,1-2.2-1.45,3.07,3.07,0,0,1-.2-.5l-.07-.25,0-.16a4.52,4.52,0,0,1,0-.6l0-.42a10.09,10.09,0,0,1,.51-1.95c.19-.52.37-1,.56-1.46l.27-.69.13-.34c0-.07,0,0,0-.05a.06.06,0,0,0,0,0s0,0-.07,0a.08.08,0,0,0,0,0l-2.5,3.69c-.27.39-.54.79-.87,1.21-.17.22-.35.43-.58.68a5.53,5.53,0,0,1-.42.42,3.83,3.83,0,0,1-.33.26l-.21.15-.31.17a3.09,3.09,0,0,1-.45.17,2.61,2.61,0,0,1-.68.12,2.92,2.92,0,0,1-.93-.1,2.77,2.77,0,0,1-.89-.45,3,3,0,0,1-.56-.56,4,4,0,0,1-.28-.45c-.08-.17-.1-.24-.15-.35a3,3,0,0,1-.09-.29,4.88,4.88,0,0,1-.15-1.3c0-.32,0-.6,0-.87a5.82,5.82,0,0,1,.18-1.15,8.6,8.6,0,0,1,.77-1.79c.27-.48.54-.9.81-1.3.53-.79,1-1.51,1.48-2.19a9,9,0,0,0,.54-.92,2.23,2.23,0,0,0,.14-.31s0,0,0,0h0l.14,0c.2,0,.29.07.45.08l.39,0c.49,0,.63-.13.55-.07a2.1,2.1,0,0,0-.51.9,1.72,1.72,0,0,0-.07.21l0,.11v0c-.12.43,1-3.72.55-2v0c0,.06,0,.06,0,.23a.89.89,0,0,0,.08.17c0,.05.08.18.13.26a6.84,6.84,0,0,0,.41.56,3.92,3.92,0,0,0,.27.33l.15.16.06.07h0l0,0s-.06.07-.11.12Z"/><path class="cls-1" d="M221,311.61q2-.12,4-.33c1.34-.13,2.69-.21,4-.39s2.67-.3,4-.53l1.95-.33a4.65,4.65,0,0,0,1.55-.44,5.82,5.82,0,0,0,2.19-2.39,16.74,16.74,0,0,0,1.39-3.48A43.86,43.86,0,0,0,241.4,296a111.06,111.06,0,0,0,.3-11.7c-.06-3.46-.14-6.92-.52-10.31a37.27,37.27,0,0,0-.85-5,11.61,11.61,0,0,0-1.86-4.32,3.82,3.82,0,0,0-.73-.72,1.86,1.86,0,0,0-.41-.23,1.6,1.6,0,0,0-.49-.21c-.8-.21-1.59-.44-2.4-.64-1.68-.28-3.35-.6-5.07-.76s-3.44-.34-5.16-.46-3.46-.2-5.19-.3c-6.15-.25-12.36-.24-18.48-.14-7.86.16-15.76.56-23.62.66-4.9.09,1.19-2.59,10.3-2.9,8.05-.26,16.12-.39,24.21-.25,2,0,4,.11,6.07.17s4.05.19,6.09.34,4.06.31,6.1.58c1,.12,2,.24,3.07.45l1.53.27.77.15.78.22,1.86.52a11.23,11.23,0,0,1,1.06.51,7.1,7.1,0,0,1,.91.73,10.36,10.36,0,0,1,2.16,3.57,34.57,34.57,0,0,1,1.61,7.53,129,129,0,0,1,.64,15.06c0,2.75-.16,5.51-.46,8.27a40.67,40.67,0,0,1-1.62,8.22,15.74,15.74,0,0,1-1.85,4,6.77,6.77,0,0,1-3.67,2.87,7.53,7.53,0,0,1-1.08.23l-1,.18c-.68.11-1.36.25-2.05.34l-4.09.51c-6.72.71-13.44,1.07-20.15,1.39-10.17.47-20.4.66-30.5.79-7.85.09-15.55.23-23.33.14l-5.11-.09c-6.4-.23-8.44-.6-9.76-1.33a5.78,5.78,0,0,1-.86-.5c-.56-.56,2-.71,6.7-.61,13.81.26,28.42.15,43.06-.14,10.88-.25,21.82-.62,32.66-1.45Z"/><path class="cls-1" d="M101.16,334.44c1.93-1.9,4-3.89,7-4.75l.58-.14.49-.07,1-.14,2-.29,3.9-.57,5.69-.9,20.08-2.88,2.23-.34a7.74,7.74,0,0,0,.93-.17l1-.44c1.36-.59,2.71-1.22,4-1.87,1.69-.85,3.37-1.75,5-2.73a25.86,25.86,0,0,0,2.28-1.53,6.45,6.45,0,0,0,.93-.84,1.68,1.68,0,0,0,.27-.37s.05-.09,0-.09h0s0-.14-.08-.24a.41.41,0,0,1,0-.31.5.5,0,0,1,.35-.2.9.9,0,0,1,.76.25,1.49,1.49,0,0,1,.28,1.39,4.21,4.21,0,0,1-.65,1.37,8.35,8.35,0,0,1-2.39,2.21,73,73,0,0,1-10.72,5.28l-.37.15a1.76,1.76,0,0,1-.65.16l-.72.11-1.45.2-2.91.4-5.85.75c-4.68.57-9.5,1.44-14.26,2.16l-7.86,1.17-2,.29-1,.15-.83.2a11,11,0,0,0-3.17,1.85,27.25,27.25,0,0,0-3.44,3.28c-1.07,1.19-2.09,2.44-3.06,3.73a138.75,138.75,0,0,0-8.16,12.26c-2,3.26-3.72,6.56-5.63,9.82-.43.72-.83,1.43-1.29,2.15-1.68,2.64-2.59,3.37-3.48,3.45a2,2,0,0,1-.59,0c-.24-.08-.18-.4.06-.84s.68-1.19,1.26-2.14c1.73-2.79,3.38-5.83,5.14-8.86s3.57-6.11,5.49-9.14a86.11,86.11,0,0,1,9.67-13Z"/><path class="cls-1" d="M136.36,284.72l-.2.44-.28.62-.53,1.26q-.51,1.29-1,2.58a47.15,47.15,0,0,0-1.49,5.28c-.15.65-.23,1.31-.34,2l-.21,2a17.34,17.34,0,0,0,.51,6.72,5.22,5.22,0,0,0,.26.79l.36.73c.13.25.22.48.37.75l.48.77a10.48,10.48,0,0,0,2,2.63,10.85,10.85,0,0,0,5.52,2.09c2.62.39,5.34.29,8,.54,1.69.14-.41,2.53-3.68,2.43a24.91,24.91,0,0,1-8.75-1.59,9.68,9.68,0,0,1-3.89-2.95,18.81,18.81,0,0,1-1.25-1.91l-.52-.92-.51-1.08a15.65,15.65,0,0,1-.91-2.65c-.09-.45-.16-.91-.24-1.36a8,8,0,0,1-.17-1.37l-.09-1.37c0-.45,0-.9,0-1.36a26.41,26.41,0,0,1,.22-2.68,48.92,48.92,0,0,1,3.13-11.16c.22-.55.45-1.09.69-1.64l.19-.41a1.64,1.64,0,0,1,.32-.55l.65-.69c.81-.86,1.63-1.7,2.46-2.53,2.53-2.5,5.19-4.88,7.9-7.15,2.11-1.76,4.16-3.53,6.42-5.09.48-.36,1-.7,1.49-1s.89-.54,1.24-.72a7.17,7.17,0,0,1,.93-.35,1.58,1.58,0,0,1,1.23.08,2.6,2.6,0,0,1,.47.25c.4.35-.22,1.13-1.54,2-1.94,1.35-3.87,2.77-5.81,4.29s-3.83,3.13-5.7,4.8c-1.39,1.23-2.75,2.52-4.1,3.82q-1,1-2,2l-1,1-.76.82Z"/><path class="cls-1" d="M182.43,254.83a15,15,0,0,0-3.32-.64c-1.18-.12-2.39-.16-3.61-.18-2.43,0-4.89.09-7.34.27-1.78.13-3.56.39-5.35.59-3.16.35-6.31.73-9.43,1.25a44.19,44.19,0,0,0-4.58.95c-.36.11-.71.23-1,.35l-.4.2-.49.34-1.95,1.38c-2.3,1.64-4.55,3.37-6.74,5.11-1.41,1.12-2.79,2.28-4.17,3.43s-2.8,2.3-4,3.45a.78.78,0,0,1-.33.25.23.23,0,0,1-.24,0,.49.49,0,0,1-.33-.28,1.24,1.24,0,0,1,0-.72A8.47,8.47,0,0,1,132,266.5c2.86-2.4,5.8-4.64,8.8-6.83,1.49-1.09,3-2.16,4.54-3.21a9,9,0,0,1,1.33-.83,4.55,4.55,0,0,1,.79-.31c.25-.08.5-.18.74-.23,1-.25,1.89-.44,2.82-.6,4.46-.74,9-1.44,13.57-2,2.5-.28,5-.46,7.54-.56a53.87,53.87,0,0,1,7.61.18,16.66,16.66,0,0,1,2.38.4,6.54,6.54,0,0,1,2.4,1,2.39,2.39,0,0,1,.91,1.35,2.22,2.22,0,0,1,0,.85,3,3,0,0,1-.23.73,7.11,7.11,0,0,1-1.57,2.05,14.27,14.27,0,0,1-6.57,3.11,28.47,28.47,0,0,1-3.53.56,21.32,21.32,0,0,0-3.32.57,7.39,7.39,0,0,0-1.16.43l-1.24.57c-.83.34-1.66.71-2.51,1a45.48,45.48,0,0,1-5.16,1.63c-.78.19-1.54.38-2.33.52-3,.49-4,.33-4.61-.2a2.3,2.3,0,0,1-.42-.39c-.27-.44.87-.76,2.93-1.13a53.42,53.42,0,0,0,9.12-2.53c.75-.27,1.5-.58,2.24-.89l1.11-.5.28-.12a3.89,3.89,0,0,1,.38-.16l.71-.23a20.1,20.1,0,0,1,2.65-.54l1.3-.16c.4,0,.8-.09,1.19-.15a16.38,16.38,0,0,0,6.45-2.17,7.43,7.43,0,0,0,1.22-1,5.37,5.37,0,0,0,.5-.57,3.84,3.84,0,0,0,.36-.55l.06-.12a.13.13,0,0,1,0-.06s0-.08,0-.07,0,0,0,0,0,0,0,0a3,3,0,0,0-.94-.51Z"/><path class="cls-1" d="M129,259.08c2.32-1.46,4.68-2.86,7.08-4.18.89-.48,1.72-1,2.63-1.47a52,52,0,0,1,4.88-2.16,21.61,21.61,0,0,1,2.58-.84,15.15,15.15,0,0,1,2.73-.52,8.94,8.94,0,0,1,2.55.34,22.64,22.64,0,0,1,2.29.7c1,.33,1.9.68,2.82,1.06s1.84.82,2.62,1.21a.49.49,0,0,1,.13.1.46.46,0,0,1,0,.09l0,.13v.15a.59.59,0,0,1-.11.34,1.13,1.13,0,0,1-.42.3,3.68,3.68,0,0,1-2.88,0,43.63,43.63,0,0,0-5.4-2,6.78,6.78,0,0,0-1.21-.22h-.26l-.33,0-.66.08a7.73,7.73,0,0,0-1.36.26,14.39,14.39,0,0,0-1.4.36,37.51,37.51,0,0,0-6.63,3q-3.57,1.92-7.05,4.08c-1.42.89-2.84,1.78-4.22,2.73-2.12,1.41-4.22,2.87-6.22,4.4-1.56,1.19-3,2.49-4.43,3.77-.32.28-.62.58-.94.86-1.21,1-1.67,1.26-2.31,1.05a2.6,2.6,0,0,1-.42-.15c-.41-.23-.15-.93.67-1.8a64.4,64.4,0,0,1,8.34-7q3.36-2.43,6.84-4.68Z"/><path class="cls-1" d="M73,307.93c3.52-6.57,7.12-13.1,10.92-19.53.68-1.17,1.37-2.35,2.08-3.52s1.42-2.33,2.18-3.47,1.39-2,2.1-3c.37-.49.82-1,1.23-1.46a16.51,16.51,0,0,1,1.35-1.3c1.84-1.62,3.76-3.06,5.69-4.51,3.86-2.85,7.81-5.57,11.8-8.23,3.54-2.36,7.09-4.73,10.69-7,1.16-.71,2.32-1.42,3.55-2.08l1-.48,1-.42,1.06-.29c.36-.07.72-.14,1.08-.19a19.85,19.85,0,0,1,8.33,1,2.93,2.93,0,0,1,.82.34.34.34,0,0,1,.14.29c0,.22-.46.43-1.22.5-1.52.17-4.11,0-6.91.13a9.1,9.1,0,0,0-3.47.81c-1.13.55-2.33,1.22-3.49,1.92-2.35,1.39-4.68,2.85-7,4.34q-7,4.45-13.79,9.21a87.94,87.94,0,0,0-7.93,6.14l-.9.85c-.29.28-.52.61-.78.91a21.79,21.79,0,0,0-1.47,2c-.5.67-.94,1.4-1.4,2.1s-.93,1.42-1.36,2.15c-3.91,6.34-7.56,12.88-11.13,19.46q-3.28,6.09-6.45,12.23c-3.18,6.21-6.34,12.44-9.07,18.83-2.27,4.93-4.7,9.63-7.34,14.29-.59,1-1.15,2-1.77,3-2.31,3.76-3.3,4.82-4.31,5.25a3.93,3.93,0,0,1-.68.28c-.6.06.19-1.55,1.82-4.27,2.41-4.06,4.76-8.33,7-12.69,1.14-2.18,2.25-4.4,3.28-6.64l1.5-3.43c.52-1.17,1.06-2.31,1.59-3.46,3.23-6.8,6.68-13.49,10.18-20.15Z"/><path class="cls-1" d="M200.73,305.86c5.2-.2,10.41-.47,15.57-.9,2.57-.22,5.18-.47,7.61-.93,1.76-.31,3-2.63,3.56-5a46,46,0,0,0,1.12-11c0-3.32,0-6.67-.28-9.95a36.32,36.32,0,0,0-.69-4.82,8.68,8.68,0,0,0-1.76-4c-.12-.1-.23-.19-.34-.3l-.36-.18c-.3-.12-.73-.2-1.09-.3s-.75-.2-1.14-.28l-1.22-.18c-1.61-.28-3.27-.39-4.92-.55s-3.33-.21-5-.31l-5-.17c-5.94-.15-11.92-.07-17.82.06-7.58.19-15.19.59-22.77.65-4.73.06,1.15-2.56,9.92-2.87,7.76-.26,15.53-.41,23.32-.36q5.83,0,11.71.3A97.8,97.8,0,0,1,223,265.94c.58.07,1.21.29,1.82.43l.92.25a5.89,5.89,0,0,1,1.08.52,7.26,7.26,0,0,1,2.39,3.47,30.54,30.54,0,0,1,1.41,7.32c.22,2.43.31,4.86.36,7.28s0,4.85-.13,7.28a34.94,34.94,0,0,1-1.34,8,11.46,11.46,0,0,1-2,3.85,6.14,6.14,0,0,1-1.83,1.5,9.44,9.44,0,0,1-1.16.42c-.35.08-.68.13-1,.2-5.31.82-10.55,1.1-15.82,1.42-6.48.36-13,.56-19.44.69-9.81.18-19.67.14-29.42-.32-3.8-.21-7.55-.42-11.31-1-.94-.14-1.88-.33-2.83-.57l-.72-.23-.36-.11a3.66,3.66,0,0,1-.45-.22,3.62,3.62,0,0,1-1.27-1.32,10,10,0,0,1-1.08-2.89,26.17,26.17,0,0,1-.47-2.88,46.6,46.6,0,0,1-.31-5,44.92,44.92,0,0,1,.32-6.59,7.66,7.66,0,0,1,.83-2.87,5.32,5.32,0,0,1,.5-.83c.56-.56.7,2,.66,6.44a63.7,63.7,0,0,0,.57,9.89,15.66,15.66,0,0,0,.53,2.29,4.08,4.08,0,0,0,.84,1.61c.06.05.11.09.14.09l0,0,.13,0,.27.08a9.32,9.32,0,0,0,1.13.31c.78.19,1.62.31,2.43.46a182.19,182.19,0,0,0,20.82,1.24c10.47.16,21,0,31.5-.44Z"/><path class="cls-1" d="M68.9,350.62c.82.28,1.68.48,2.52.72s1.71.38,2.57.54c.63.08,1.27.11,1.9.21a33.1,33.1,0,0,0,6.75.19,12.44,12.44,0,0,0,1.49-.22,14.52,14.52,0,0,0,1.45-.34l1.8-.61a9.73,9.73,0,0,1,1.8-.59c.8-.17.74,2.08-.81,2.72A20.68,20.68,0,0,1,80,354.38c-.83-.06-1.68-.05-2.53-.11a21.7,21.7,0,0,1-2.55-.18l-1.38-.19-1.37-.27c-.91-.16-1.81-.41-2.7-.65-.56-.13-1.1-.31-1.64-.49s-1.09-.34-1.62-.55a41.77,41.77,0,0,1-4.73-2.11c-.6-.3-1.2-.58-1.78-.92l-.88-.48c-.29-.17-.56-.37-.85-.56s-.5-.32-.74-.5c-.85-.77-1-1.15-.74-1.69a2.47,2.47,0,0,1,.19-.36c.27-.36.84-.3,1.43.11A42,42,0,0,0,64,348.72l1.18.54,1.22.46c.8.34,1.65.58,2.48.85Z"/><path class="cls-1" d="M166,279.83a4.62,4.62,0,0,0-.37,2.48,4.46,4.46,0,0,0,.22.89,2.21,2.21,0,0,0,.88,1.18,1.68,1.68,0,0,0,1.42.11,1.89,1.89,0,0,0,1-1,8.29,8.29,0,0,0,.43-1.86c.06-.42,1.15.1,1,1.06a3.81,3.81,0,0,1-1.2,2.28,2.63,2.63,0,0,1-2.64.47,3.36,3.36,0,0,1-2-2.31,6.11,6.11,0,0,1,.05-3.12,3.34,3.34,0,0,1,1.06-1.69,2.62,2.62,0,0,1,2.93-.18,3.36,3.36,0,0,1,1.41,1.83,3.79,3.79,0,0,1,.14.48c.11.62,0,.82-.26.95l-.19.08c-.23.05-.4-.18-.5-.54-.27-1.12-.85-2-1.74-2.1a1.54,1.54,0,0,0-1.62,1Z"/><path class="cls-1" d="M187,279.83a4.72,4.72,0,0,0-.37,2.48,3.88,3.88,0,0,0,.23.89,2.2,2.2,0,0,0,.87,1.18,1.7,1.7,0,0,0,1.43.11,1.84,1.84,0,0,0,1-1,8.29,8.29,0,0,0,.43-1.86c.06-.42,1.15.1,1,1.06a3.81,3.81,0,0,1-1.2,2.28,2.63,2.63,0,0,1-2.64.47,3.36,3.36,0,0,1-2-2.31,6.22,6.22,0,0,1,.05-3.12,3.34,3.34,0,0,1,1.06-1.69,2.63,2.63,0,0,1,2.94-.18,3.3,3.3,0,0,1,1.4,1.83,3.79,3.79,0,0,1,.14.48c.11.62,0,.82-.26.95l-.19.08c-.22.05-.39-.18-.49-.54-.28-1.12-.86-2-1.75-2.1a1.55,1.55,0,0,0-1.62,1Z"/><path class="cls-1" d="M197.66,279.83a4.72,4.72,0,0,0-.37,2.48,3.88,3.88,0,0,0,.23.89,2.2,2.2,0,0,0,.87,1.18,1.7,1.7,0,0,0,1.43.11,1.84,1.84,0,0,0,1-1,8.29,8.29,0,0,0,.43-1.86c.06-.42,1.15.1,1,1.06A3.81,3.81,0,0,1,201,285a2.63,2.63,0,0,1-2.64.47,3.36,3.36,0,0,1-2-2.31,6.22,6.22,0,0,1,0-3.12,3.34,3.34,0,0,1,1.06-1.69,2.63,2.63,0,0,1,2.94-.18,3.3,3.3,0,0,1,1.4,1.83,3.79,3.79,0,0,1,.14.48c.11.62,0,.82-.26.95l-.19.08c-.22.05-.39-.18-.49-.54-.28-1.12-.86-2-1.75-2.1a1.55,1.55,0,0,0-1.62,1Z"/><path class="cls-1" d="M204.81,279.83a4.72,4.72,0,0,0-.37,2.48,3.88,3.88,0,0,0,.23.89,2.2,2.2,0,0,0,.87,1.18,1.7,1.7,0,0,0,1.43.11,1.84,1.84,0,0,0,.95-1,8.29,8.29,0,0,0,.43-1.86c.06-.42,1.15.1,1,1.06a3.81,3.81,0,0,1-1.2,2.28,2.63,2.63,0,0,1-2.64.47,3.36,3.36,0,0,1-2-2.31,6.22,6.22,0,0,1,0-3.12,3.34,3.34,0,0,1,1.06-1.69,2.63,2.63,0,0,1,2.94-.18A3.3,3.3,0,0,1,209,280a3.79,3.79,0,0,1,.14.48c.11.62,0,.82-.26.95l-.19.08c-.22.05-.39-.18-.49-.54-.28-1.12-.86-2-1.75-2.1a1.55,1.55,0,0,0-1.62,1Z"/><path class="cls-1" d="M173.66,281l.11-1.75c0-.21,0-.42,0-.63l.05-.76,1,0a3.51,3.51,0,0,1-.65,1.61l-.53.88a3.47,3.47,0,0,1-.78,1c-.22.16-.81-.74-.55-1.11.46-.68,1-1.36,1.37-2a.91.91,0,0,0,.14-.37l1,0v1l-.09,1.76,0,1.08c0,.54-.05,1.09,0,1.63s.08.84.13,1.25c0,.09,0,.18,0,.28,0,.34-.06.45-.34.52l-.2,0a.42.42,0,0,1-.46-.36,9.34,9.34,0,0,1-.22-2.31c0-.59,0-1.18,0-1.76Z"/><path class="cls-1" d="M176.82,278.6a.22.22,0,0,0,.19.09s.05,0,.08,0a.27.27,0,0,0,.18-.29.19.19,0,0,0-.09-.15c-.07-.05-.14,0-.2-.1s0-.58.3-.49a.77.77,0,0,1,.45,1,.94.94,0,0,1-.44.5.75.75,0,0,1-.7-.06.83.83,0,0,1-.27-.32.76.76,0,0,1,0-.61.79.79,0,0,1,.3-.38.21.21,0,0,1,.1-.06c.14-.05.2,0,.22.13v.1a.37.37,0,0,1-.06.24.75.75,0,0,0-.11.24.23.23,0,0,0,0,.16Z"/><path class="cls-1" d="M176.82,284.15a.23.23,0,0,0,.19.1s.05,0,.08,0a.28.28,0,0,0,.18-.29.2.2,0,0,0-.09-.16c-.07,0-.14,0-.2-.1s0-.57.3-.49a.77.77,0,0,1,.45,1,.9.9,0,0,1-.44.5.75.75,0,0,1-.7-.06.76.76,0,0,1-.27-.32.74.74,0,0,1,0-.6.81.81,0,0,1,.3-.39.33.33,0,0,1,.1-.06c.14,0,.2,0,.22.14v.09a.35.35,0,0,1-.06.24.7.7,0,0,0-.11.25.2.2,0,0,0,0,.15Z"/><path class="cls-1" d="M193.61,278.49a.18.18,0,0,0,.26.06.28.28,0,0,0,.19-.29.25.25,0,0,0-.1-.15c-.06-.05-.13,0-.2-.1s0-.58.31-.49a.78.78,0,0,1,.45,1,1,1,0,0,1-.45.5.73.73,0,0,1-.69-.06.64.64,0,0,1-.27-.32.76.76,0,0,1,0-.61.93.93,0,0,1,.3-.38.27.27,0,0,1,.1-.06c.14-.05.2,0,.22.13l0,.1a.44.44,0,0,1-.06.24.46.46,0,0,0-.11.25.17.17,0,0,0,0,.15Z"/><path class="cls-1" d="M193.61,284a.2.2,0,0,0,.18.1.19.19,0,0,0,.08,0,.3.3,0,0,0,.19-.29.27.27,0,0,0-.1-.16c-.06,0-.13,0-.2-.1s0-.57.31-.49a.78.78,0,0,1,.45,1,.92.92,0,0,1-.45.5.73.73,0,0,1-.69-.06.64.64,0,0,1-.27-.32.74.74,0,0,1,0-.6,1,1,0,0,1,.3-.39l.1-.06c.14-.05.2,0,.22.14l0,.09a.41.41,0,0,1-.06.24.46.46,0,0,0-.11.25.17.17,0,0,0,0,.15Z"/><path class="cls-1" d="M182.83,282.27c-.14-.46-.72-.76-1.45-.82H181l-.29,0-.38,0-.8.14c0-.37,0-.78,0-1.15l0-.81,0-.71,0-1h1.1l.71,0a8.24,8.24,0,0,1,1.79,0c.37.07-.1,1.11-.79,1.12h-1.66s0,0,0,0l-.06,0s0,0,0,0,0,.11,0,.21l0,.31,0,.36,0,.27a.77.77,0,0,0,0,.22,1.12,1.12,0,0,1,.29,0,3.3,3.3,0,0,1,2.62.89,2.36,2.36,0,0,1,.5,1.7,2.49,2.49,0,0,1-.4,1.25,2.44,2.44,0,0,1-1,.84,3.79,3.79,0,0,1-1.94.31,2.66,2.66,0,0,1-.46-.09c-.57-.2-.75-.59-.53-.84a.47.47,0,0,1,.15-.13,1.71,1.71,0,0,1,.3-.05l.12,0h.13a2.61,2.61,0,0,0,2.24-.44,1.2,1.2,0,0,0,.32-.7,1.7,1.7,0,0,0-.06-.85Z"/><path class="cls-1" d="M351.47,126.4a2.41,2.41,0,0,1-1.88.94,3.52,3.52,0,0,1-1.69-.43,5.49,5.49,0,0,1-1-.57,8.81,8.81,0,0,1-2.3-2.91,13.35,13.35,0,0,1-.68-1.49,3.25,3.25,0,0,1-.26-2.13c.06-.23.47-.13.87,0s.77.43.81.71a9.81,9.81,0,0,0,1.18,3.16,4.76,4.76,0,0,0,1.55,1.51c.63.42,1.39.71,1.82.46a1.48,1.48,0,0,0,.62-1,6,6,0,0,0,0-2.31,10.14,10.14,0,0,0-.57-1.77c-.05-.12-.1-.25-.16-.37-.16-.49-.1-.67.27-.9a1.83,1.83,0,0,1,.26-.16.62.62,0,0,1,.83.33,8.63,8.63,0,0,1,1,3.61,6.9,6.9,0,0,1-.06,1.56,3.88,3.88,0,0,1-.67,1.71Z"/><path class="cls-1" d="M361.05,124.23a2.36,2.36,0,0,1-1.51,1.27,2.54,2.54,0,0,1-1.77-.32,4.62,4.62,0,0,1-.87-.6,8.09,8.09,0,0,1-1.84-2.82c-.18-.45-.38-.89-.54-1.35a3.45,3.45,0,0,1-.31-1.85c.09-.38,1.64,0,1.74.55a15.77,15.77,0,0,0,.94,3,3.7,3.7,0,0,0,1.22,1.45,2.23,2.23,0,0,0,.77.43.51.51,0,0,0,.53-.12,1.93,1.93,0,0,0,.44-1,6.71,6.71,0,0,0,0-2.1,8.77,8.77,0,0,0-.47-1.61c0-.12-.09-.23-.13-.35-.13-.44-.06-.61.34-.81.09,0,.17-.1.26-.13a.62.62,0,0,1,.8.32,7.86,7.86,0,0,1,.85,3.25,6.17,6.17,0,0,1-.43,2.86Z"/><path class="cls-1" d="M353.84,122.51a15.55,15.55,0,0,1-1.07-4.52,8.06,8.06,0,0,1,0-1.77,5.55,5.55,0,0,1,1.29-2.91,6.18,6.18,0,0,1,2.43-1.93,5.63,5.63,0,0,1,2.77-.4,6.17,6.17,0,0,1,3.16,1.22c.2.16.05.55-.41.77a2,2,0,0,1-1.55.11,4.11,4.11,0,0,0-4.85.74,6.28,6.28,0,0,0-.59.67,3.26,3.26,0,0,0-.41.73,5.7,5.7,0,0,0-.32,1.72A11.55,11.55,0,0,0,355,121a19.09,19.09,0,0,0,1,2.45,21.46,21.46,0,0,0,2.09,3.44,14.24,14.24,0,0,0,2.15,2.17l.51.39c.63.48.76.64.72,1.11a3.16,3.16,0,0,1,0,.32c-.05.33-.55.43-1.18.08a13,13,0,0,1-4.3-4.37,23.38,23.38,0,0,1-2.14-4.09Z"/><path class="cls-1" d="M341.58,113.47a9.92,9.92,0,0,1,1.94-.37,5.87,5.87,0,0,1,.72-.08,8.17,8.17,0,0,1,2.48.43l1,.29a2.4,2.4,0,0,1,1.26.55c.21.21-.83,1.44-1.21,1.28l-2.21-.87a3.41,3.41,0,0,0-1.46-.09,7.8,7.8,0,0,0-1.64.23,7.18,7.18,0,0,0-1,.33,7.5,7.5,0,0,0-1.44.73,6.87,6.87,0,0,0-.93.86c-.07.07-.13.15-.2.21-.27.22-.43.2-.73-.11l-.21-.21a.62.62,0,0,1-.1-.78,5.39,5.39,0,0,1,1.87-1.63,10.85,10.85,0,0,1,1.8-.81Z"/><path class="cls-1" d="M354.26,139.23c-.14,0-.08-.21.11-.49a1.75,1.75,0,0,1,.35-.33l.28-.08c.05,0,.5.15.66.16a1.74,1.74,0,0,1,.4.15,3.55,3.55,0,0,0,.77.28.3.3,0,0,1,.15.09.62.62,0,0,0,.55.14s.06,0,.09-.06a.79.79,0,0,1,.4-.17.65.65,0,0,0,.39,0s0,0,.07,0,.16,0,.19,0,.09-.11.17-.16a.9.9,0,0,1,.25,0,.61.61,0,0,1,.31.08c.06.07.18.06.26.08l.1,0c.06,0,.12.22.15.45a1.29,1.29,0,0,1-.05.52,2.82,2.82,0,0,1-.4.55,3,3,0,0,1-.64.49.59.59,0,0,1-.23,0l-.51.17a3.81,3.81,0,0,1-.5.09c-.19,0-.39,0-.55-.13a.13.13,0,0,0-.1,0,2.18,2.18,0,0,1-.84-.27c-.13-.06-.28-.09-.41-.15s0,0-.06-.06l-.08-.07c-.31-.12-.56-.36-.87-.5-.08,0-.27-.39-.35-.42S354.31,139.23,354.26,139.23Z"/><path class="cls-1" d="M339.51,139.1s-2.87,2.9-.18,7.84a7.6,7.6,0,0,0,9.29,3.52Z"/><circle class="cls-1" cx="236.53" cy="286.1" r="4.84"/><path class="cls-1" d="M391.62,84.42c1.11-.31,2.15.88,2.61,1.75a3.09,3.09,0,0,1,0,3.26c-.32.44.26.71.61.74a1.67,1.67,0,0,0,1.43-.62,4.09,4.09,0,0,0-.33-4.74,4.18,4.18,0,0,0-4.65-1.62c-1.3.37-1,1.6.33,1.23Z"/><path class="cls-1" d="M396,79.77c.68-.42,2.18.92,2.59,1.41a3.21,3.21,0,0,1,.73,3.12c-.16.45,1.94.22,2.15-.37a3.94,3.94,0,0,0-1.9-4.44,4.89,4.89,0,0,0-5.24.18c-.39.24-.23.45.14.52a2.47,2.47,0,0,0,1.53-.42Z"/><path class="cls-1" d="M273.21,129.89a3.48,3.48,0,0,0,2.63,4.4,2,2,0,0,0,1.54-.42c.3-.29.28-.68-.2-.75-1.45-.2-2.28-2.24-1.79-3.5.26-.69-1.9-.44-2.18.27Z"/><path class="cls-1" d="M269.43,131.17c-.56,2.45.23,5.81,3.09,6.23a1.92,1.92,0,0,0,1.53-.41c.29-.29.31-.6-.18-.67-2.29-.35-2.69-3.64-2.28-5.46.16-.7-2-.36-2.16.31Z"/></g></svg>