<svg xmlns="http://www.w3.org/2000/svg" width="520" height="520" viewBox="0 0 520 520"><defs><style>.cls-1{fill:#231f20;}</style></defs><title>Notioly New</title><g id="n.134_People_Support" data-name="n.134 People Support"><path class="cls-1" d="M327.2,76.29a.63.63,0,0,1-.28.49c-.05,0-.18,0-.19-.06s0-.24-.05-.36a12.67,12.67,0,0,0,0-1.57l-.06-1.08a8.05,8.05,0,0,0-.46-2.08,2.23,2.23,0,0,1-.13-.44,4.55,4.55,0,0,0-.67-1.47.55.55,0,0,0-.19-.21,13.22,13.22,0,0,1-1.1-1.48c-.2-.45-.43-.88-.68-1.32,0-.06-.1-.11-.08-.2s-.08-.32-.16-.46a3,3,0,0,1-.3-.59,2.25,2.25,0,0,1,0-.38c0-.12.19-.21.23-.2s.15-.09.21-.16l.07-.06a5.27,5.27,0,0,1,1.31.77l.2.24.43.54c.31.39.62.82.69.9a1.15,1.15,0,0,1,.14.32s.82,1.37.82,1.44a2.55,2.55,0,0,1,.28.95,1.8,1.8,0,0,0,0,.19,6.94,6.94,0,0,1,.35,1.64c0,.28.08.56.09.84a.86.86,0,0,1,0,.16,1.21,1.21,0,0,0,0,.19,14.29,14.29,0,0,1-.09,2c0,.15-.21.84-.23,1S327.2,76.2,327.2,76.29Z"/><path class="cls-1" d="M329.85,82a1.06,1.06,0,0,1-.41.9c-.09.09-.34.07-.37,0s-.12-.43-.16-.65a12.88,12.88,0,0,1,.22-3c.06-.35.14-.7.22-1l.37-1a18.09,18.09,0,0,1,2.1-3.71,8.29,8.29,0,0,1,.61-.72c.76-.77,1.49-1.55,2.26-2.3a2.78,2.78,0,0,0,.36-.41,9.13,9.13,0,0,1,1.33-1.17,9.84,9.84,0,0,1,1.57-1,13,13,0,0,1,1.35-.53,7.55,7.55,0,0,1,1.41-.39,1.15,1.15,0,0,1,.41-.05,3.46,3.46,0,0,0,.91,0,3.3,3.3,0,0,1,1.25,0,3.19,3.19,0,0,1,.59.21c.17.07,0,.26,0,.29s-.05.16-.05.24a.25.25,0,0,1,0,.09s-.54.11-1.05.28-1,.37-1.14.43a11.28,11.28,0,0,0-1.44.61,12.73,12.73,0,0,0-1.55.9,2.68,2.68,0,0,1-.47.26,20.18,20.18,0,0,0-2,1.7,9.16,9.16,0,0,1-1.15,1,.87.87,0,0,0-.22.21q-.88,1-1.71,2c-.25.36-.5.74-.73,1.12,0,.07-.1.13-.15.2s-.12.16-.17.25c-.25.47-.51.93-.74,1.41-.12.24-.24.47-.34.71s-.17.5-.25.76-.21.43-.32.77a7.13,7.13,0,0,0-.24.82A3.08,3.08,0,0,0,329.85,82Z"/><path class="cls-1" d="M308.25,200.85a19,19,0,0,1-3.75.79c-.46.05-.94.08-1.41.1a7.45,7.45,0,0,1-4.71-1.65l-.43-.37-.36-.44a4.72,4.72,0,0,1-1.23-3.7c.05-.3.3-.24.55,0a2.2,2.2,0,0,1,.66,1,5,5,0,0,0,.41,1.08,3.43,3.43,0,0,0,.28.49l.36.46a5.85,5.85,0,0,0,.83.82,7.2,7.2,0,0,0,1.05.61,6.41,6.41,0,0,0,3.07.44,14.65,14.65,0,0,0,3.51-.59,20.55,20.55,0,0,0,5.14-2.27c.74-.47,1.41-1,2.09-1.55.15-.11.28-.25.43-.37.6-.39.84-.45,1.11-.37l.18,0c.16.09,0,.39-.31.83a12.83,12.83,0,0,1-4,3.08,23,23,0,0,1-3.51,1.56Z"/><path class="cls-1" d="M340.23,203.66a1.52,1.52,0,0,1-.34-1.22l1.13.93a6.53,6.53,0,0,1-1.19.15c-.37,0-.73,0-1.09,0a8.51,8.51,0,0,1-1,0,5.65,5.65,0,0,1-1.87-.45,1.3,1.3,0,0,1-.51-.42,1,1,0,0,1-.16-.39l0-.1v0a.2.2,0,0,0,0-.07.76.76,0,0,1,.09-.18l.07-.08,0,0h-.05l-.33.1-.17,0-.36.06a3.71,3.71,0,0,1-2-.19c-.2-.1-.11-.21.09-.3a2.56,2.56,0,0,1,.83-.18,5,5,0,0,0,1.14-.15l.17,0,.31-.1.72-.3,1.8-.79c-.16.27-.28.43-.39.59l-.49.73a2.56,2.56,0,0,0-.41.73h0c-.31.05-.08,0-.15,0h0s0,0,.05-.05.06-.05.06,0a1.46,1.46,0,0,0,.76.25c.35,0,.74,0,1.12,0a16.23,16.23,0,0,0,2.47-.15h0l.7-.13v.71c0,.08,0,.08.09.2a2,2,0,0,0,.58.24,8.15,8.15,0,0,0,2.34.19c.62,0,1.22-.19,1.84-.26l.41,0c.51,0,.71,0,.84.38a2.09,2.09,0,0,1,.08.23c0,.25-.13.47-.49.61a9.46,9.46,0,0,1-1.72.47,12.43,12.43,0,0,1-1.85.08,8.46,8.46,0,0,1-1.46-.16,4,4,0,0,1-.81-.23,2.25,2.25,0,0,1-.93-.62Z"/><path class="cls-1" d="M363.3,314.66s9.48-.5,11.27,1.19l-.69-2.7Z"/><path class="cls-1" d="M183.69,300.85c-10.29-.05-13.68,4.66-13.68,4.66l.23-4.71,11.45-.05Z"/><path class="cls-1" d="M302.11,472.34c.52-.39,1-.34,1.61-.59.2-.08.57,0,.5.32a3.15,3.15,0,0,1-.78,1.38,11.29,11.29,0,0,1-2.24,1.47c-.58.3-1.19.6-1.75.84s-1.06.39-1.4.51a25.49,25.49,0,0,1-3.95,1c-2.72.38-5.42.65-8.13.82a13.67,13.67,0,0,1-1.81,0c-2.1-.17-4.11-.12-6.32-.19-.38,0-.78-.07-1.29-.07h-.14l-.26-.11a2.28,2.28,0,0,1-.56-.32,2.39,2.39,0,0,1-.56-.65,2.48,2.48,0,0,1-.25-.71,2.32,2.32,0,0,1,0-.7,2.18,2.18,0,0,1,.18-.6l.1-.2.09-.13a1.64,1.64,0,0,1,.2-.26l.13-.14a3,3,0,0,1,.44-.35,6.38,6.38,0,0,1,1.06-.52,20.35,20.35,0,0,1,2.2-.68c.77-.2,1.53-.38,2.15-.51s1.08-.26,1.26-.28l5.3-.85a1.75,1.75,0,0,1,.75-.08,3.39,3.39,0,0,0,1.65-.13c.74-.16,1.49-.3,2.24-.39a3.37,3.37,0,0,1,1.17.11.32.32,0,0,1,.19.53c-.3.22,0,.34.1.48a.34.34,0,0,1,.05.17c0,.28-4.06,2-4.52,2.12l-3.24.94c-1.63.47-3.31,1-3.65,1.11a6.66,6.66,0,0,1-1.09.26c-.07,0-1,.34-1.87.72a13.24,13.24,0,0,0-1.22.57l-.18.11,0,0h0s0,0,0-.07l-.07-.12c-.09-.17-.19-.34-.29-.49a2.94,2.94,0,0,0-.81-1c-.06,0-.09,0,0-.05s.13-.16.13-.24l.32-1.86.57,0a17.54,17.54,0,0,1,3,.29,1.8,1.8,0,0,0,.61,0c1.77-.07,3.56,0,5.35-.07.91,0,1.82-.13,2.73-.21.16,0,.33,0,.49,0s.42,0,.63,0c2.13-.28,4.3-.32,6.38-.75.23-.06.94-.1,1.65-.17a8.71,8.71,0,0,0,1.68-.2A6.59,6.59,0,0,0,302.11,472.34Z"/><path class="cls-1" d="M323.39,474.61a1.63,1.63,0,0,1-1.11-1.77c0-.21.43-.28.56-.21a2.2,2.2,0,0,0,.84.29,9.57,9.57,0,0,0,2,.31c.52,0,1.11,0,1.63,0s1,0,1.28,0c1.21-.05,2.42-.05,3.64-.06,2.47.11,5,.07,7.47,0a15.58,15.58,0,0,1,1.67,0,24,24,0,0,0,5.64-.25,1.71,1.71,0,0,0,.77-.22h0l.29,1.7a.57.57,0,0,0,.13.24c0,.06.11,0,0,.07l-.05,0-.09.1c-.06.07-.1.16-.2.3a4.26,4.26,0,0,0-.22.43c-.1.2-.2.4-.29.62s-.1.26-.11.28h0l-.1,0-.29-.08-1.86-.49-3.15-.81c-1.63-.55-3.28-1-4.92-1.61a1.68,1.68,0,0,1-.69-.28,3.55,3.55,0,0,0-1.48-.7,9.86,9.86,0,0,1-2.14-1,1.9,1.9,0,0,1-.49-.49,1.74,1.74,0,0,1-.38-.83.44.44,0,0,1,.08-.36.15.15,0,0,1,.17,0,.93.93,0,0,1,.26.15c.24.21.32-.15.45-.14h0a1.1,1.1,0,0,0,.27-.15s.12,0,.27,0a11.17,11.17,0,0,0,1.26.26c1,.16,2.16.26,2.37.32l1,.22,2.13.41c1.58.29,3.25.56,3.6.61a5.66,5.66,0,0,1,1.06.26c.07,0,1,.13,2,.26.51.07,1,.14,1.55.25a5.36,5.36,0,0,1,.85.22l.34.15a2.8,2.8,0,0,1,.61.46,2.73,2.73,0,0,1,.35.47,2.24,2.24,0,0,1,.26.68,2.38,2.38,0,0,1,0,1.13,2.33,2.33,0,0,1-.33.67,2.17,2.17,0,0,1-.46.49l-.18.14-.38.21-.13.06-.29.07a6.93,6.93,0,0,1-.8.16l-.2,0a10.34,10.34,0,0,1-3.18.1,2.15,2.15,0,0,0-.62,0,44.81,44.81,0,0,1-5.31.07c-.9,0-1.81,0-2.71,0-.16,0-.33-.05-.49-.07a4.22,4.22,0,0,0-.61-.07,56.71,56.71,0,0,1-6.46-.56,11.86,11.86,0,0,1-1.69-.45c-.71-.26-1.43-.56-1.72-.65S323.67,474.7,323.39,474.61Z"/><path class="cls-1" d="M286.36,278.19c-.31,2.85-15.89,156.47-1.62,183.29,0,0,24.77,6.36,30-2a34.25,34.25,0,0,0,25.84,4.13c10.8-2.51,11-96.86-2.28-186.14.13.85-5.76,3.61-6.35,3.91C320.32,287.18,286.82,291.64,286.36,278.19Z"/><path class="cls-1" d="M207.69,458.61c0,.93.85,7.91-1,8.53s-20.95,4.27-22.84,6.48-.46,4.71,15.94,2.73S218.58,471.7,218,470s-.42-11.35-.42-11.35Z"/><path class="cls-1" d="M235,458.61c0,.59-1,8.07,0,10.56s15.1,8.32,23.63,8.11,11.58-1.44,1.89-4.48c0,0-12.69-3.95-17.9-5.81,0,0-.84-6.4,0-9.37Z"/><path class="cls-1" d="M195.72,254.49c-.49,2,26.63,12.33,42.1,7.64,0,0,10.73-1.95,13.42-7.3,0,0,5.41,63.87,4.52,96.39,0,0,1.35,90-3.72,102.47,0,0-10.51,9.79-25.16,1.74,0,0-19.4,8.5-33-2.89,0,0-9.56-58.46-3.66-111.78Z"/><path class="cls-1" d="M326.88,73.41c.51,17.3-28.92,30.48-45,24.88-9.49-3.31-16.4-13.68-12.17-24.05C280.09,48.8,314.3,55.86,326.88,73.41Z"/><path class="cls-1" d="M339.86,117.42c-1.07,1.24-3-1.1-3.45-2.33-.68-2,.27-4.27.6-6.2,1-5.7-1.93-9.44-5.1-13.83a11.33,11.33,0,0,1-2.42-9,14.65,14.65,0,0,1,5.54-10c9.13-6.51,32.82,8.56,26.86,25.11-1.56,4.33-5.15,9.08-8.46,12.26,0,0-5.55-3.36-9.19-.57S339.86,117.42,339.86,117.42Z"/><path class="cls-1" d="M177.82,92.52c-.43.22-2.21-.24-1.42,4.32s2.63,14.8,1.42,16.31-3.94-4.1-8.68-3.41a12.5,12.5,0,0,0-7.37,3.88s-19.14-7-16.94-26.9c0,0,1.26-13.08,15.78-11.66,0,0,6-1.26,10.28,3.16,0,0,9.88-30.66,26.8-32.22,0,0,16.74-6.6,24.57,6.26l1.62,3.51s5.84-3.9,10.21,1.54c0,0,5.25,7.93,1.78,16.79,0,0-5.18,12.76-16.8,16.06,0,0-12.11,6.1-35.12,3.55C184,93.71,179.08,91.88,177.82,92.52Z"/><path class="cls-1" d="M228.64,141a22,22,0,0,1-3.15,8.32,14.22,14.22,0,0,1-3.12,3.36,13,13,0,0,1-4.09,2.06,20.13,20.13,0,0,1-6.41.84,33.81,33.81,0,0,1-20.23-8.27,42.39,42.39,0,0,1-6.71-7.08,34.93,34.93,0,0,1-5.75-11c-.36-1.24-.1-1.14.61-.27a32.37,32.37,0,0,1,3,4.49,41.77,41.77,0,0,0,16.93,17,27.1,27.1,0,0,0,14.4,3,11.71,11.71,0,0,0,9.85-5.75,17.69,17.69,0,0,0,1.63-3.69,25.77,25.77,0,0,0,1.07-5,43.44,43.44,0,0,0,.37-5.12,90.88,90.88,0,0,0-1.32-15.61c-.65-4-1.57-7.88-2.44-11.81l-.57-2.59c-.64-3.27-.43-4.4-.14-5.16a4.32,4.32,0,0,1,.2-.5c.11-.17.27.08.49.64a24.22,24.22,0,0,1,.88,2.62,184.08,184.08,0,0,1,4.49,22,74.73,74.73,0,0,1,.65,8.62,43.88,43.88,0,0,1-.61,8.76Z"/><path class="cls-1" d="M175,95.65a4.57,4.57,0,0,1,1.43-3.8,3.54,3.54,0,0,1,2.21-.67,8.09,8.09,0,0,1,1.79.28c1.08.28,2,.67,2.92.91a26.09,26.09,0,0,0,2.84.52,73.27,73.27,0,0,0,20.7-.41A49.32,49.32,0,0,0,221.57,88a28.23,28.23,0,0,0,11.31-9.93,24.68,24.68,0,0,0,1.56-3,20.9,20.9,0,0,0,1-3.2,23.5,23.5,0,0,0,.59-6.67,15.1,15.1,0,0,0-.78-4.13,9,9,0,0,0-2-3.48c-1.84-2-4.72-2.54-7.55-2.42-1.79.09-1.65-.16-.14-.82a10.06,10.06,0,0,1,3.37-.69,7.88,7.88,0,0,1,4.94,1.57A10.05,10.05,0,0,1,237,59.37a15.22,15.22,0,0,1,1.18,4.8,25.32,25.32,0,0,1-1,9.5,21.34,21.34,0,0,1-.81,2.28,14.7,14.7,0,0,1-1.13,2.16l-.61,1-.69,1-.69,1-.77.91a29.93,29.93,0,0,1-7.23,6.06,53,53,0,0,1-21.48,6.85,80.29,80.29,0,0,1-12.4.41c-2.07-.1-4.14-.27-6.2-.56a18.38,18.38,0,0,1-3.12-.69,21.48,21.48,0,0,0-2.84-.82,2.54,2.54,0,0,0-1.4.08,1.36,1.36,0,0,0-.7,1,10,10,0,0,0,.06,3.44c.37,2.45.95,4.9,1.44,7.38a42.71,42.71,0,0,1,.84,5.49,8.54,8.54,0,0,1-.22,2.94,2.57,2.57,0,0,1-1,1.46,2.62,2.62,0,0,1-1.77.26l-.2,0-.16-.16a18.75,18.75,0,0,0-4.33-3.83,6,6,0,0,0-2.55-.8,5.47,5.47,0,0,0-2.59.52,7.43,7.43,0,0,0-3.93,8.34,6.91,6.91,0,0,0,.74,1.77,6.8,6.8,0,0,0,2.83,2.53,11,11,0,0,0,3.35.92,30.4,30.4,0,0,0,4.81.1,6,6,0,0,1,2.28.26,4,4,0,0,1,.75.28c.28.19,0,.47-.88.82a15.31,15.31,0,0,1-12.39-1,8.62,8.62,0,0,1-3.08-3.54,9,9,0,0,1-.75-4.68,9.53,9.53,0,0,1,5.21-7.64,7.49,7.49,0,0,1,5-.6,10,10,0,0,1,4.2,2.25,30.16,30.16,0,0,1,2.89,2.87l-.8-.44.3,0s0,0,.12-.22a6.33,6.33,0,0,0,.16-2,36.51,36.51,0,0,0-.68-4.92l-1-5.07a33,33,0,0,1-.75-5.36Z"/><path class="cls-1" d="M184.69,52.37a36.31,36.31,0,0,1,10.47-6.68,32.45,32.45,0,0,1,4.27-1.54,23.73,23.73,0,0,1,15.79.8,19.23,19.23,0,0,1,3.09,1.84,18.72,18.72,0,0,1,2.61,2.42A18,18,0,0,1,223.46,53a15.61,15.61,0,0,1,1.36,4.3c.14.92-.19.84-.71.19a33.69,33.69,0,0,1-2.08-3.2,16.43,16.43,0,0,0-13.15-8.82,24.17,24.17,0,0,0-10.35,1.41,34.48,34.48,0,0,0-10.29,5.56,35.09,35.09,0,0,0-5.17,5.1A52.15,52.15,0,0,0,177,66.78a59.57,59.57,0,0,0-3.23,7.88l-.58,1.77c-.72,2.21-1.16,2.85-1.88,3.15a3.17,3.17,0,0,1-.49.2c-.5.09-.61-1-.24-2.69a55.76,55.76,0,0,1,6.3-15,46.18,46.18,0,0,1,7.77-9.8Z"/><path class="cls-1" d="M143.37,95.11a19.36,19.36,0,0,1,1-11.22,17.76,17.76,0,0,1,1.91-3.7,16.3,16.3,0,0,1,5.46-4.82A18.08,18.08,0,0,1,164.88,74a9.57,9.57,0,0,1,6.17,5.12c.35.78-.06.81-.73.43s-1.68-1-2.69-1.82a9.59,9.59,0,0,0-3.07-1.52,13.27,13.27,0,0,0-3.46-.59,18.47,18.47,0,0,0-7.1,1.21,13.07,13.07,0,0,0-6.46,5.94,17.17,17.17,0,0,0-2.14,9.68,15.69,15.69,0,0,0,1.67,6,24.6,24.6,0,0,0,2.57,4.09,32,32,0,0,0,3.22,3.65,35.72,35.72,0,0,0,5.9,4.53c.45.3.93.53,1.39.81l1.09.66a6.64,6.64,0,0,1,.68.55,1.73,1.73,0,0,1,.58,1,2.37,2.37,0,0,1,.1.49c0,.24-.22.35-.65.34a5.12,5.12,0,0,1-1.8-.43,34,34,0,0,1-11.45-8.92,24,24,0,0,1-5.39-10Z"/><path class="cls-1" d="M215.3,177.38a28.53,28.53,0,0,0,6.92,2,15.48,15.48,0,0,0,2.54.06,6.29,6.29,0,0,0,3.87-1.31c.94-.52.55-2.18,0-3.6a35.11,35.11,0,0,0-1.91-3.77,26.85,26.85,0,0,1-2.49-5c-.17-.57.13-.59.59-.27a6.64,6.64,0,0,1,1.72,1.8c1,1.55,2.07,3.08,3,4.77a18.1,18.1,0,0,1,1.2,2.75,7.05,7.05,0,0,1,.34,1.61,4,4,0,0,1-.25,1.92,3.08,3.08,0,0,1-.73,1,5.52,5.52,0,0,1-.78.67,6.75,6.75,0,0,1-1.77,1,10.92,10.92,0,0,1-3.75.64,24.05,24.05,0,0,1-7.73-1.54,42.81,42.81,0,0,1-4.41-1.86,45.36,45.36,0,0,1-6.18-3.71,23.34,23.34,0,0,1-4.29-3.62,9.73,9.73,0,0,1-.8-1c-.92-1.38-.69-2.13-.36-2.53a1.61,1.61,0,0,1,.23-.27c.13-.1.31,0,.53.18a5.2,5.2,0,0,1,.8.85,17.92,17.92,0,0,0,3.23,3.15,42.68,42.68,0,0,0,3.95,2.77,40.38,40.38,0,0,0,6.53,3.3Z"/><path class="cls-1" d="M187.75,273.18q.47-4.53.8-9.09l.2-3.33c.31-3.91.58-7.82.74-11.74.09-1.74.06-3.49.1-5.22,0-2.22,0-4.45.15-6.66,0-.69.36-.61.69,0a6.9,6.9,0,0,1,.8,2.95,97.49,97.49,0,0,1-.11,13.67c-.21,2.74-.18,5.59-.33,8.4-.14,3.08-.4,6.16-.68,9.23-.15,1.9-.38,3.79-.56,5.68-.32,2.86-.69,5.73-1.11,8.56-.35,2.19-.55,4.38-1,6.55-.1.48-.17,1-.3,1.43-.59,1.75-.9,2.26-1.42,2.5a2.37,2.37,0,0,1-.34.15c-.35.06-.4-.73-.21-2,.51-3.82,1.1-7.82,1.55-11.9l.54-4.55.47-4.58Z"/><path class="cls-1" d="M161.08,260q1.44-12.57,3.58-25c.53-3,1-6.07,1.65-9.08A211.16,211.16,0,0,1,175,194.51a90.58,90.58,0,0,1,6-13.18,39.17,39.17,0,0,1,5.53-7.54,21,21,0,0,1,3.69-3,14.66,14.66,0,0,1,4.42-1.83c2-.32,1.71.19.26.92a29.09,29.09,0,0,0-6.21,4.56,32.76,32.76,0,0,0-5.56,7.08,70,70,0,0,0-4.2,8.18,149.63,149.63,0,0,0-6.24,17.59,222.09,222.09,0,0,0-5.09,22.42c-1.54,8.31-2.81,16.68-3.86,25.08-.64,5.16-1.19,10.35-1.64,15.53-.34,3.93-.64,7.87-.86,11.81s-.38,7.88-.26,11.76c0,.38,0,.75,0,1.12l.05.55,0,.33c0,.1.15.14.23.22l.39.31a6.87,6.87,0,0,0,.89.59,16,16,0,0,0,4,1.7,31.67,31.67,0,0,0,8.68,1.18,38.55,38.55,0,0,0,3.87-.18c2.41-.2,4-.53,5.07-.67a8.85,8.85,0,0,1,1.37-.15,4.41,4.41,0,0,1,1,0,5,5,0,0,1,.79.13c.61.19-1.18,1.44-4.86,2.22a37.16,37.16,0,0,1-8.39.67,32.21,32.21,0,0,1-8.56-1.38,19,19,0,0,1-4.13-1.9,5.78,5.78,0,0,1-1-.67l-.53-.42-.4-.32-.2-.17c-.07-.05-.16-.1-.14-.2l-.13-1-.05-.6-.06-1.1c-.1-2.92,0-5.77.09-8.64.33-8.51,1.08-17,2-25.48Z"/><path class="cls-1" d="M163.75,320.25c.64-1.66,1.33-3.31,1.93-4.92.2-.54.3-1.18.49-1.79.62-2.17,1.23-4.34,1.71-6.54a22.68,22.68,0,0,0,.44-2.94c.06-.62.07-1.25.08-1.85s.11-1.22.08-1.75c0-.34.35-.48.84-.24a2.2,2.2,0,0,1,.75.67,2,2,0,0,1,.44,1.1,24.48,24.48,0,0,1-1.39,8c-.5,1.52-.81,3.15-1.27,4.72-.53,1.82-1.28,3.4-1.92,5.07-.4,1-.81,2.05-1.15,3-.15.4-.31.84-.44,1.31a4.65,4.65,0,0,0-.16.72,1.45,1.45,0,0,0,0,.36c0,.09.07.28.21.18a3.91,3.91,0,0,0,.75-1l.51-.89.08-.15,0-.07.12-.15c.7-.87,1.25-.92,1.66-.73a1.36,1.36,0,0,1,.27.13c.11.1.11.25.06.45a2.4,2.4,0,0,1-.31.8c-.13.23-.27.43-.44.68-.3.41-.61.87-.93,1.34a10.4,10.4,0,0,1-1.93,2.39,1.43,1.43,0,0,1-1.2.28c-.69-.23-.79-.59-1-1.06-.28-.69.08-2.42.61-4.08l.19-.63.19-.56.22-.64.46-1.28Z"/><path class="cls-1" d="M185.86,320.17l-.7.06a2.86,2.86,0,0,1-.59,0,7.36,7.36,0,0,1-.94-.15,6.11,6.11,0,0,1-1.69-.74,6.79,6.79,0,0,1-1.35-1.14c-.18-.21-.4-.45-.53-.64l-.09-.17h0l-.12-.23c0-.06-.07,0-.09,0l-.07.09a.83.83,0,0,0-.13.18l-.07.11-.07.13-.09.2a14.12,14.12,0,0,0-.6,1.69,12.14,12.14,0,0,0-.48,3.54,9.7,9.7,0,0,0,.59,3.12,15.53,15.53,0,0,0,2,3.54c.26.35,0,.51-.45.43a3,3,0,0,1-1.76-1.14,10.64,10.64,0,0,1-2-4.33,10.82,10.82,0,0,1,.15-4.74,27.58,27.58,0,0,1,.81-2.74l.13-.33.21-.52a9.36,9.36,0,0,1,.51-1,2.09,2.09,0,0,1,1.25-1.12c.17,0,.2.06.29.09l.23.15.3.31a1.41,1.41,0,0,1,.29.39,6.9,6.9,0,0,0,.9,1.38,4.32,4.32,0,0,0,.72.7,3.85,3.85,0,0,0,1.72.84,4.92,4.92,0,0,0,.67.07,3.25,3.25,0,0,0,.44,0c.14-.05.33,0,.43-.18s0-.3-.06-.44a2.48,2.48,0,0,0-.18-.31l-.1-.16-.19-.28-.82-1.11c-.55-.75-1.1-1.51-1.62-2.31-.4-.62-.8-1.22-1.16-1.91a6,6,0,0,1-.61-2.31,8.35,8.35,0,0,1-.06-1c0-1.22.23-1.53.75-1.76a3.7,3.7,0,0,1,.35-.17c.41-.15.75.43.86,1.26a11,11,0,0,0,.76,3.17,24.39,24.39,0,0,0,2,3.11l.79,1.07.4.56.49.7a3.74,3.74,0,0,1,.81,2.24,1.68,1.68,0,0,1-.39,1,1.07,1.07,0,0,1-.42.32l-.47.28c-.31.09-.63.16-1,.24Z"/><path class="cls-1" d="M173.78,326.51v.85c-.05,0,.06.27.14.49s.19.47.29.71.28.52.41.79a19.48,19.48,0,0,0,1.4,2.82,10.19,10.19,0,0,0,.86,1.08c.4.42.82.78,1.21,1.22.12.14,0,.38-.32.55a1.18,1.18,0,0,1-1.14.08,5.51,5.51,0,0,1-1.66-1.31,8.18,8.18,0,0,1-1-1.77c-.31-.74-.81-1.39-1.13-2.14-.14-.34-.28-.69-.41-1l-.19-.54-.1-.29a2.48,2.48,0,0,1-.08-.41v-.46l0-1.59c0-.81.09-1.62.12-2.42,0-.63,0-1.25,0-1.88,0-.14,0-.28,0-.42.12-.53.33-.66.64-.68a.74.74,0,0,1,.21,0c.22,0,.35.27.43.62.11,1,.14,2.13.19,3.25.06.82,0,1.66.07,2.5Z"/><path class="cls-1" d="M170.2,326.33v.92c0,.28,0,.69,0,.9,0,0,0,.24.09.48s.21.55.3.84a20.9,20.9,0,0,0,1,3,8.35,8.35,0,0,0,.71,1.16,6,6,0,0,0,1.07,1.07c.11.1.11.38-.13.63a1.06,1.06,0,0,1-.56.28,1.16,1.16,0,0,1-.7-.11l-.51-.35-.43-.37a3.26,3.26,0,0,1-.7-.84,8.08,8.08,0,0,1-.78-1.91c-.21-.78-.61-1.5-.83-2.28l-.18-.68-.08-.36a2.45,2.45,0,0,1-.06-.5c.06-.47.06-.81.08-1.24s0-1.06,0-1.59l0-2.43c0-.64-.06-1.26,0-1.92a3.13,3.13,0,0,1,0-.43c.13-.55.37-.69.68-.68a.74.74,0,0,1,.21,0c.21.05.32.3.39.63.1,1.16.19,2.15.28,3.2.09.84.1,1.69.15,2.55Z"/><path class="cls-1" d="M375.05,331.45l.72,2.05a2.39,2.39,0,0,1,.08.64c0,.35,0,.67-.05,1a12.9,12.9,0,0,1-1,3.19,8,8,0,0,1-.68,1.34,3.15,3.15,0,0,1-1.42,1.35c-.2.09-.33-.17-.39-.51a1.8,1.8,0,0,1,0-1c.26-.42.35-.93.59-1.38s.48-.95.72-1.47a7.63,7.63,0,0,0,.41-2l.05-.41,0-.13a.19.19,0,0,0,0-.08l-.44-1.4c-.16-.48-.31-1-.49-1.42-.27-.71-.51-1.44-.84-2.11-.26-.52-.6-1-.9-1.47-.07-.1-.15-.2-.22-.31-.21-.41-.16-.62,0-.86l.14-.16c.16-.15.43-.09.75.14a10.56,10.56,0,0,1,1.95,2.72,24.66,24.66,0,0,1,1,2.29Z"/><path class="cls-1" d="M378.42,329.68l.45.87.07.19,0,0s0,0,0,.05l0,.1a1.18,1.18,0,0,1,0,.37v.47l0,.88c0,.31,0,.63,0,1a28.67,28.67,0,0,1-.68,3.29c-.13.48-.21,1-.38,1.45a4.14,4.14,0,0,1-.89,1.76c-.15.15-.37,0-.56-.32a1.63,1.63,0,0,1-.33-1c.06-.26.08-.56.12-.84a3.5,3.5,0,0,1,.13-.85c.16-.56.31-1.14.5-1.73a11.62,11.62,0,0,0,.28-2.22l.11-1.09,0-.54v-.19a.14.14,0,0,0,0-.11c0-.06,0-.09-.08-.19-.23-.46-.46-.93-.71-1.4-.37-.7-.7-1.43-1.08-2.13-.3-.54-.66-1-.95-1.6-.06-.12-.13-.24-.19-.37-.17-.51-.06-.74.19-.91a.88.88,0,0,1,.17-.12c.21-.09.44,0,.69.3.64.81,1.25,1.73,1.86,2.67.46.7.86,1.44,1.29,2.18Z"/><path class="cls-1" d="M227.21,373.81l.58,20.4c.07,2.48.2,5,.25,7.44q.32,13.11.35,26.24c0,3.89,0,7.79-.06,11.65l-.05,3.72c0,1.24-.09,2.48-.15,3.72s-.1,2.48-.22,3.72l-.45,3.71c-.21,1.54-.51,1.28-.73-.06a43.93,43.93,0,0,1-.25-6.55c.33-10,0-20.12.05-30.29,0-6.09-.32-12.41-.52-18.64q-.33-10.26-.68-20.53-.2-6.33-.41-12.65c-.2-6.38-.39-12.79-.59-19.13-.16-4.92-.4-9.75-.51-14.64l-.06-3.21a25.78,25.78,0,0,1,.23-4.27,4.38,4.38,0,0,1,.63-1.88A3.6,3.6,0,0,1,225,322c.43-.36.72,1.29.76,4.2.15,8.66.49,17.82.79,27,.23,6.84.47,13.71.7,20.56Z"/><path class="cls-1" d="M265.52,176.16c-2.95-.78-5.92-1.49-8.91-2.16l-3.28-.67c-3.85-.87-7.71-1.69-11.55-2.63l-5.13-1.24a20,20,0,0,1-6.33-2.57c-.59-.46-.31-.6.33-.53a18.12,18.12,0,0,1,2.88.53c1.05.32,2.15.56,3.24.8l3.29.77c2.21.49,4.43,1,6.65,1.56,2.66.69,5.49,1.14,8.24,1.72,3,.65,6.05,1.33,9.06,2.07q2.79.69,5.55,1.45c2.79.77,5.56,1.66,8.28,2.63a52.7,52.7,0,0,1,6.21,2.51c.44.23.88.44,1.31.7a5.22,5.22,0,0,1,1.55,1.25,1.76,1.76,0,0,1,.4.91,1.54,1.54,0,0,1,0,.36c0,.33-.79.08-2-.44a53.87,53.87,0,0,0-5.32-2.39c-1.85-.74-3.76-1.44-5.71-2.06-2.89-.94-5.85-1.78-8.83-2.53Z"/><path class="cls-1" d="M233.05,263.21a79,79,0,0,1-9.85,0c-1.19-.09-2.38-.08-3.57-.22a77.57,77.57,0,0,1-12.38-2.3A55.52,55.52,0,0,1,201.9,259a15.91,15.91,0,0,1-6.24-3.71c-.53-.58-.1-.79.65-.72a9.09,9.09,0,0,1,2.94.93,35.68,35.68,0,0,0,6.4,2.48c2.23.68,4.5,1.31,6.82,1.84a56.19,56.19,0,0,0,8.66,1.12,79.34,79.34,0,0,0,9.63.17,52.65,52.65,0,0,0,5.89-.57,28.33,28.33,0,0,0,8.48-2.47,9.47,9.47,0,0,0,4.5-4.37l.15-.29.07-.32a4.71,4.71,0,0,1,.16-.62c.25-1.58.18-2.12.79-2.6a3,3,0,0,1,.39-.33c.22-.14.45,0,.66.31a3,3,0,0,1,.3.71,4.49,4.49,0,0,1,.13.47,5.24,5.24,0,0,1,0,.57,5.88,5.88,0,0,1-.19,1.81c-.07.3-.14.61-.23.91l-.4.85a9.28,9.28,0,0,1-2.3,2.89,18.23,18.23,0,0,1-6.21,3.31,43.12,43.12,0,0,1-9.91,1.88Z"/><path class="cls-1" d="M266.83,200.45c-1.32-.55-2.67-1.07-4-1.53l-1.51-.45c-1.76-.58-3.54-1.1-5.34-1.58-.8-.19-1.61-.36-2.42-.47a24,24,0,0,1-3.12-.54c-.63-.18.34-1.3,1.58-1.22a31.62,31.62,0,0,1,6.45,1.21c1.26.42,2.61.65,3.9,1s2.83.88,4.22,1.38c.86.3,1.71.63,2.56,1l3.82,1.52c1,.38,2,.66,3,1,.22.07.44.13.66.22.8.33,1,.57.91,1.17,0,.14,0,.28-.06.41-.12.44-.59.63-1.21.48a33.53,33.53,0,0,1-5.41-1.91c-1.33-.55-2.67-1.12-4-1.63Z"/><path class="cls-1" d="M187.68,379.12c.24-14,.83-28,1.55-42,.27-5.1.48-10.21.81-15.31,1.13-18,2.5-35.95,3.79-53.91.56-8,1.09-16,1.52-23.89.28-5.09.49-10.18.69-15.27s.38-10.2.1-15.22c-.37-3.06,0-2.79.71-.14a65,65,0,0,1,.94,13.55c-.18,10.44-.85,20.82-1.49,31.23s-1.4,20.81-2.18,31.27c-.92,12.51-1.59,25.54-2.26,38.35-.77,14.08-1.42,28.17-1.76,42.27-.24,8.67-.31,17.35-.26,26A363.33,363.33,0,0,0,192,435.29c.33,2.5.71,5,1.11,7.46.24,1.23.49,2.45.73,3.68l.36,1.83c.13.61.31,1.2.46,1.81l.91,3.51c0,.19.14.18.28.32s.47.27.69.41c.5.26,1.07.49,1.62.71a41.88,41.88,0,0,0,7.09,1.82,55.16,55.16,0,0,0,6.43.67,38.15,38.15,0,0,0,8.47-.49c.92-.11,1.61-.3,2.21-.39l.84-.12.71-.12a11.77,11.77,0,0,1,1.22-.15c.47,0,0,.48-1.36,1.3a19.7,19.7,0,0,1-6.84,1.95,47.55,47.55,0,0,1-13.91-.74,34.38,34.38,0,0,1-6.93-2.06,6.66,6.66,0,0,1-.89-.44,4.19,4.19,0,0,1-.94-.62l-.65-.57c-.14-.08-.14-.23-.19-.36l-.1-.38-.24-1c-.3-1.14-.59-2.29-.88-3.44-.56-2.31-.93-4.65-1.41-7s-.68-4.7-1-7.06-.51-4.73-.77-7.11-.37-4.75-.56-7.13c-.92-14.14-1-28.34-.81-42.5Z"/><path class="cls-1" d="M255.69,311.62q.72,21.08,1.11,42.16c.07,5.14.22,10.26.24,15.39.11,18.08,0,36.17-1.08,54.23-.45,8-1.05,16.07-2.18,24-.14,1.28-.41,2.54-.62,3.81l-.34,1.9-.09.56a3.37,3.37,0,0,1-.1.34c-.1.09-.15.2-.23.28a3.7,3.7,0,0,1-.56.41l-.43.26a30.86,30.86,0,0,1-7.31,2.84c-5,1.27-10.6,1.28-15.41-.91a8.65,8.65,0,0,1-1.55-.86c-.31-.21-.43-.34-.37-.38s.86.18,2.15.54a24.71,24.71,0,0,0,5.37.91,29.9,29.9,0,0,0,7.62-.64,34.28,34.28,0,0,0,7.15-2.37c.56-.26,1.12-.55,1.64-.85l.26-.16.11-.61.68-3.81q1.14-7.68,1.74-15.47c.84-10.38,1.24-20.84,1.57-31.34.37-12.56.23-25.66.07-38.52q-.28-21.22-1-42.44-.42-13.06-1-26.12c-.56-13.17-1.17-26.41-1.91-39.49-.57-10.16-1.32-20.11-1.92-30.15-.13-2.22-.27-4.38-.41-6.61-.23-4.14-.36-6.87-.36-8.79a24.1,24.1,0,0,1,.26-3.93c.08-.41.15-.95.22-1.18.13-.4.25.25.44,1.73s.49,3.84.71,6.86c.7,9,1.49,18.18,2.06,27.54s1.12,18.85,1.61,28.36c.73,14.13,1.34,28.33,1.87,42.51Z"/><path class="cls-1" d="M197.81,477.89c-2.23.17-4.47.26-6.71.25a43.22,43.22,0,0,1-6.77-.47l-.59-.1-.32-.07-.48-.12a4.39,4.39,0,0,1-1.65-.74,1.79,1.79,0,0,1-.74-1.32,2,2,0,0,1,.6-1.4,2.88,2.88,0,0,1,.43-.33,3.47,3.47,0,0,1,.75-.45c.26-.12.61-.3.78-.35.35-.15.7-.27,1-.39.7-.23,1.38-.45,2.07-.65,1.38-.41,2.76-.77,4.14-1.12q4.14-1,8.28-2c2.44-.57,4.93-1.17,7.24-1.91l.33-.13a.77.77,0,0,0,.12-.24,5,5,0,0,0,.28-1,18.33,18.33,0,0,0,.23-2.28l.09-2.4a11.26,11.26,0,0,1,.33-2.47c.15-.52.35-.72.45-.66s.17.34.28.77a16.6,16.6,0,0,1,.67,4.22,20.82,20.82,0,0,1-.1,2.59,9.19,9.19,0,0,1-.27,1.39,4.89,4.89,0,0,1-.31.81l-.29.54c-.06.08-.09.19-.16.25l-.28.12c-.19.08-.37.17-.56.23l-.33.12-.61.2-1.21.36-2.39.64c-3.18.84-6.37,1.59-9.59,2.29-1.68.38-3.37.82-5.05,1.33q-1.26.38-2.49.81l-1.19.46a3,3,0,0,0-.4.2c-.13.07-.28.24-.18.4a1,1,0,0,0,.47.26l.14,0,.33.07a6.53,6.53,0,0,0,.77.14,31,31,0,0,0,3.23.29c2.18.09,4.38.05,6.57-.06,2.71-.14,5.41-.4,8.09-.8,2-.31,4-.69,6-1.19a26.17,26.17,0,0,0,5.66-2.07c.33-.19.66-.38,1-.59a2.43,2.43,0,0,0,.35-.29,1.8,1.8,0,0,0,.24-.35,4.81,4.81,0,0,0,.42-2,42.93,42.93,0,0,0-.23-4.6c-.05-.69-.13-1.38-.15-2.1-.06-2.68.6-3.79,1.39-4.05a1.41,1.41,0,0,1,.5-.14c.22,0,.22.28.25.7s0,1,.06,1.91c.08,1.3.22,2.69.37,4.14a20.64,20.64,0,0,1,.09,4.61,6.59,6.59,0,0,1-.85,2.72,5,5,0,0,1-.55.71,4.8,4.8,0,0,1-.66.52,10.19,10.19,0,0,1-1.07.65,24.38,24.38,0,0,1-4.42,1.79,67.41,67.41,0,0,1-13.41,2.33Z"/><path class="cls-1" d="M251.79,475.49c2.06.38,4.13.67,6.21.85a28.54,28.54,0,0,0,6.13,0l.41-.08.15,0a.72.72,0,0,0,.2-.09.22.22,0,0,0,0-.37l-.18-.13-.07,0-.21-.12-.43-.21-.89-.41c-.61-.27-1.24-.51-1.87-.76-1.26-.48-2.54-.94-3.83-1.38-2.58-.88-5.19-1.71-7.79-2.57L246.15,469l-1.74-.58-.88-.32-.44-.17-.22-.1a2.89,2.89,0,0,1-.31-.15l-.39-.21a2.12,2.12,0,0,1-.19-.4,4,4,0,0,1-.24-.76,7.12,7.12,0,0,1-.16-1.27,17.56,17.56,0,0,1,.09-2.42c.16-1.56.42-3.1.55-4.54,0-.85.28-.89.74-.06a8.61,8.61,0,0,1,.57,4.22,21.72,21.72,0,0,0-.08,2.26,8,8,0,0,0,.08,1,2.55,2.55,0,0,0,.09.45c0,.16,0,.08,0,.1h0l.42.16,1.06.38,2.23.72c3,.93,6.05,1.86,9.06,3l5.13,1.8c.87.31,1.73.62,2.6,1,.43.18.87.37,1.3.59a6.15,6.15,0,0,1,.88.52l.44.32c.12.13.24.25.35.38a2.22,2.22,0,0,1,.41,1.13,2,2,0,0,1-1.35,1.75,6.26,6.26,0,0,1-1.21.38c-.3.06-.58.1-.87.14a25,25,0,0,1-3.33.16,54.24,54.24,0,0,1-6.52-.52,72.31,72.31,0,0,1-7.87-1.5,50,50,0,0,1-5.81-1.8,24.08,24.08,0,0,1-5.47-2.83c-.16-.13-.33-.24-.48-.38a4,4,0,0,1-.51-.46,3.58,3.58,0,0,1-.68-1.27,8.56,8.56,0,0,1-.3-2.51,34.55,34.55,0,0,1,.46-4.65c.07-.66.15-1.3.23-2,.31-2.41.3-2.9.71-3.57.08-.15.11-.33.17-.46s.38-.14.75.33a4.26,4.26,0,0,1,.68,2.32,25.08,25.08,0,0,1-.28,4.29c-.15,1.38-.34,2.75-.41,4a6.11,6.11,0,0,0,.12,1.63,1.26,1.26,0,0,0,.21.41.1.1,0,0,1,0,.05l.18.15c.11.09.23.19.36.28a17,17,0,0,0,3.43,1.95,54.15,54.15,0,0,0,12,3.45Z"/><path class="cls-1" d="M320.27,156.15a25,25,0,0,1-11.76,4,22.44,22.44,0,0,1-2.32,0,13.66,13.66,0,0,1-2.3-.4,15.24,15.24,0,0,1-7-4,22,22,0,0,1-4.5-6.54,43.56,43.56,0,0,1-2.41-6.54,29.66,29.66,0,0,1-1.4-8.71c0-.92.28-.82.73-.1.23.36.49.88.8,1.49a11.32,11.32,0,0,1,.69,2.15c1.11,5.68,2.69,11.41,6.27,15.88a13.91,13.91,0,0,0,3.9,3.33,13.29,13.29,0,0,0,4.89,1.6,19.52,19.52,0,0,0,11.2-2.34,31.25,31.25,0,0,0,6.06-4,49.86,49.86,0,0,0,7.78-7.93,47.73,47.73,0,0,0,4.5-7.19c.3-.55.53-1.11.82-1.66,1-2.07,1.44-2.69,2.22-2.89A2.69,2.69,0,0,1,339,132c.52,0,.51,1-.15,2.68a43.47,43.47,0,0,1-8.95,13.58,49.33,49.33,0,0,1-9.57,7.91Z"/><path class="cls-1" d="M354.19,113.92a9.63,9.63,0,0,1,2.25,7.6,11.23,11.23,0,0,1-.62,2.8,10,10,0,0,1-2.9,4,10.65,10.65,0,0,1-4.35,2.15,16.1,16.1,0,0,1-4.18.46,15.27,15.27,0,0,1-5.21-.86c-1-.37.64-1.18,2.5-1,3.32.37,6.69.13,9.38-1.57a7.6,7.6,0,0,0,3.13-4.75,8.64,8.64,0,0,0-.77-6.24,5.81,5.81,0,0,0-1.21-1.48l-.8-.59c-.28-.19-.58-.3-.87-.46a5.9,5.9,0,0,0-2.88-.43,7.72,7.72,0,0,0-2.86,1,15,15,0,0,0-3.61,3.23c-.23.27-.44.57-.68.84-.84,1-1.3,1.22-1.9,1.13-.14,0-.3,0-.42-.07-.4-.14-.35-.83.17-1.77a17.31,17.31,0,0,1,3.17-3.74,11.86,11.86,0,0,1,4.67-2.66,8,8,0,0,1,4.36.06,8.89,8.89,0,0,1,2,.9,11.54,11.54,0,0,1,1.69,1.34Z"/><path class="cls-1" d="M352.6,76.7A23.84,23.84,0,0,0,345,73a12.48,12.48,0,0,0-8,.13A10.84,10.84,0,0,0,332.57,77a16.67,16.67,0,0,0-2.88,10.18,10.82,10.82,0,0,0,1.65,5c1,1.52,2.15,3.09,3.19,4.72a26.67,26.67,0,0,1,2.51,4.62,14.48,14.48,0,0,1,1.08,5.24,17,17,0,0,1-.33,3.41c-.22,1.09-.5,2.12-.63,3.12a5.65,5.65,0,0,0,.16,2.72,2.1,2.1,0,0,0,1.59,1.33c.4,0,.7-.18.78-.06s.08.47-.48,1a1.83,1.83,0,0,1-1.36.34,3.11,3.11,0,0,1-1.64-.74,3.87,3.87,0,0,1-.7-.79,4.21,4.21,0,0,1-.29-.51L335,116a5.42,5.42,0,0,1-.27-2.19,20.23,20.23,0,0,1,.64-3.5,14.54,14.54,0,0,0,.45-3,12.21,12.21,0,0,0-1.21-5.75,36.9,36.9,0,0,0-3.32-5.44A19.27,19.27,0,0,1,328,89.93a13.78,13.78,0,0,1-.41-4.37,20.59,20.59,0,0,1,.7-4.26,17.11,17.11,0,0,1,4.24-7.51,13.17,13.17,0,0,1,1.85-1.56l1.07-.64,1.14-.49a12.42,12.42,0,0,1,4.77-.63,22,22,0,0,1,8.9,2.59A30.72,30.72,0,0,1,359.16,80a25.6,25.6,0,0,1,4.55,7.26,20.32,20.32,0,0,1,1.45,8.44,19.72,19.72,0,0,1-1.47,6.47,24.5,24.5,0,0,1-3.48,5.59c-.6.75-1.2,1.47-1.85,2.18a22.46,22.46,0,0,1-2.73,2.59,4.72,4.72,0,0,1-.87.54,4,4,0,0,1-.75.18c-.21,0-.46.1-.6.09-.45,0,.19-1.4,1.95-3.23,2.52-2.78,5.1-5.7,6.54-9a18,18,0,0,0,1.23-5.36,17.51,17.51,0,0,0-.57-5.52,24.9,24.9,0,0,0-10-13.43Z"/><path class="cls-1" d="M273.52,65.25a26.75,26.75,0,0,0-3.25,5,20.6,20.6,0,0,0-1.19,2.69,13,13,0,0,0-.4,1.39,7.81,7.81,0,0,0-.3,1.42,18.25,18.25,0,0,0,1.85,11.38,20.66,20.66,0,0,0,5.44,6.6c3.91,3.24,9.16,4.52,14.35,4.81a42.54,42.54,0,0,0,15.49-2.21,38.79,38.79,0,0,0,12.2-6.68,29.58,29.58,0,0,0,5.94-6.55c.39-.62.8-1.24,1.13-1.9a20.14,20.14,0,0,0,1-2A35.78,35.78,0,0,0,327.26,75c.43-1.8.57-1.56.58.08a13.39,13.39,0,0,1,0,1.48,8.14,8.14,0,0,1-.29,1.91,16.34,16.34,0,0,1-1.77,4.57,29.19,29.19,0,0,1-6.1,7.4,37.88,37.88,0,0,1-7.94,5.29,44,44,0,0,1-18.36,4.67,46.52,46.52,0,0,1-5.77-.21,37,37,0,0,1-5.77-1.11,22.47,22.47,0,0,1-5.49-2.39,22.89,22.89,0,0,1-4.59-3.84,25.06,25.06,0,0,1-3.63-5.44,23.32,23.32,0,0,1-1.85-6.27,21.1,21.1,0,0,1,.24-6.54,22.89,22.89,0,0,1,2.37-6.05,28.06,28.06,0,0,1,4.77-6.33,24,24,0,0,1,6.52-4.5,11.23,11.23,0,0,1,1.38-.59c.47-.18.93-.38,1.41-.53a29.26,29.26,0,0,1,2.89-.76,29.65,29.65,0,0,1,5.93-.64,40.9,40.9,0,0,1,11.68,1.64,52.37,52.37,0,0,1,16.25,7.8c1.09.77,2.11,1.58,3.14,2.45s1.69,1.54,2.27,2.18a15.31,15.31,0,0,1,1.4,1.64A5.64,5.64,0,0,1,327.6,73a5,5,0,0,1,.17.74c0,.61-1.37-.88-3.89-3.31a49.89,49.89,0,0,0-13.15-9,45.55,45.55,0,0,0-15.65-4.35,33.83,33.83,0,0,0-6,.08,29,29,0,0,0-5.83,1.32,24.36,24.36,0,0,0-5.28,2.7,24,24,0,0,0-4.36,4Z"/><path class="cls-1" d="M308.81,202a18.2,18.2,0,0,1-4.58,1c-.28,0-.57.07-.86.08h-.87a9.37,9.37,0,0,1-3-.67,6.44,6.44,0,0,1-2.47-1.93,5.7,5.7,0,0,1-1.24-2.48,6.81,6.81,0,0,1,.09-3.42c.21-.67,1.11.41,1.15,1.53a6.85,6.85,0,0,0,.16,1.45,4.56,4.56,0,0,0,.42,1.31,8.32,8.32,0,0,0,.79,1.14,6.55,6.55,0,0,0,1.12.91,6.39,6.39,0,0,0,3.63.76,16.2,16.2,0,0,0,4.27-.73,21,21,0,0,0,2.54-1,24.55,24.55,0,0,0,3.63-2c.87-.63,1.66-1.31,2.45-2l.5-.47c.69-.53,1-.63,1.31-.56a1.29,1.29,0,0,1,.21,0c.2.08.06.46-.33,1a15.5,15.5,0,0,1-4.65,4,24.89,24.89,0,0,1-4.23,2Z"/><path class="cls-1" d="M269.4,221.91,275.93,211l2.34-4c2.85-4.68,5.73-9.34,8.81-13.88,1.35-2,2.74-4,4.2-6a42.65,42.65,0,0,1,3-3.64,13.75,13.75,0,0,1,3.78-3c.94-.45.9,0,.39.66s-1.35,1.88-2.49,3.13a71.06,71.06,0,0,0-5.67,7.33c-1.8,2.56-3.55,5.18-5.3,7.83-2.1,3.17-4,6.63-6,10l-6.53,11.06-4.07,6.78c-2.07,3.42-4.22,6.82-6.39,10.15-1.7,2.58-3.34,5.14-5.26,7.57a14.82,14.82,0,0,1-1.31,1.56c-1.77,1.88-2.65,2.18-3.31,2.2a2.13,2.13,0,0,1-.44,0c-.18,0-.11-.29.15-.67.14-.18.32-.41.54-.66s.45-.6.74-.93a128.9,128.9,0,0,0,9.59-13.63c2.27-3.6,4.49-7.26,6.67-11Z"/><path class="cls-1" d="M264.24,261.23l3.59-3.49c.44-.42.83-.89,1.26-1.32,1.53-1.5,3-3,4.44-4.62a20.51,20.51,0,0,0,1.71-2.25c.68-1,1.25-2,2-3,.23-.29.55-.09.74.37a2.31,2.31,0,0,1-.1,1.86,26.82,26.82,0,0,1-4.7,6c-1.08,1.06-2,2.3-3.1,3.43s-2.35,2.44-3.55,3.63l-2.2,2.2c-1.1,1.12-2.22,2.22-3.25,3.39-.79.91-1.48,1.88-2.17,2.84-.15.22-.29.43-.45.64-.57.77-.87.92-1.44.76-.13,0-.27-.07-.39-.12-.39-.18-.42-.71-.06-1.37a27.5,27.5,0,0,1,4.12-5.37c1.15-1.24,2.36-2.44,3.54-3.64Z"/><path class="cls-1" d="M372.77,268.2q-1.61-7.44-3.45-14.84c-.44-1.8-1-3.58-1.44-5.36-1.6-6.34-3.41-12.61-5.36-18.84-.94-2.74-1.82-5.52-2.91-8.17-.66-1.72-1.35-3.43-2.09-5.11-.37-.84-.69-1.71-1.08-2.54s-.79-1.65-1.17-2.48c-.47-1-.15-1.07.61-.38a13.42,13.42,0,0,1,3,4.05A122.61,122.61,0,0,1,366.6,236c.57,2.21,1.23,4.45,1.9,6.7l1.89,6.78,1.89,7.47,1.77,7.5q1,4.62,2,9.27c1,4.68,1.84,9.41,2.66,14.1.32,1.82.63,3.63,1,5.43s.59,3.6.79,5.44l.24,2.41a11,11,0,0,1-.08,3.25,2.88,2.88,0,0,1-.56,1.42,2.36,2.36,0,0,1-.34.4c-.38.25-.69-1-.85-3.1-.61-6.36-1.82-13.12-3.06-19.86-.45-2.51-1-5-1.47-7.52s-1.06-5-1.61-7.51Z"/><path class="cls-1" d="M354.49,300.65c-1.09-5.11-2.36-10.2-3.74-15.26-.5-1.84-1.07-3.67-1.59-5.51-1.81-6.5-3.72-13-5.78-19.41-.93-2.85-1.93-5.69-2.95-8.48q-2.06-5.33-4.1-10.66c-.42-1.08.08-1.19.94-.47a11.11,11.11,0,0,1,2.86,4.36c2.87,7.32,5.3,14.75,7.48,22.34l4.16,13.84c1.42,5.12,2.8,10.25,4,15.43.74,3.19,1.42,6.39,2,9.62.16.76.26,1.55.38,2.32l.33,2.25a.61.61,0,0,0,.42.51,6,6,0,0,0,1.06.39,16.94,16.94,0,0,0,2.4.43,32.72,32.72,0,0,0,4.95.14,31.86,31.86,0,0,0,10.75-2.32,16.59,16.59,0,0,0,2.09-1.09,20.56,20.56,0,0,0,2.49-1.77,4.26,4.26,0,0,1,1.24-.78,3.6,3.6,0,0,1,.52-.18c.24,0,.25.25,0,.83a6.48,6.48,0,0,1-1.68,2.21,16.15,16.15,0,0,1-4.61,2.85,29.24,29.24,0,0,1-5.2,1.6,35.71,35.71,0,0,1-11,.54,18.39,18.39,0,0,1-2.62-.48,8.62,8.62,0,0,1-1.45-.54,3.41,3.41,0,0,1-.93-.73,1.15,1.15,0,0,1-.3-.51c0-.09,0-.2-.13-.27l-.07-.29L356,308.7c-.12-.89-.29-1.78-.46-2.68l-.51-2.68-.59-2.67Z"/><path class="cls-1" d="M366.08,327.49l-.21-.24a0,0,0,0,0,0,0,.35.35,0,0,0-.05-.08s-.06-.08-.08-.06l-.06.06-.05,0,0,0-.07.1-.49.62q-.5.61-1.05,1.2a10.17,10.17,0,0,1-1.69,1.57,4.19,4.19,0,0,1-1.47.69,1.43,1.43,0,0,1-.54,0,1.28,1.28,0,0,1-.51-.09,2.13,2.13,0,0,1-.85-.57,3.56,3.56,0,0,1-.41-3.08,19.39,19.39,0,0,1,.82-2.44,29.12,29.12,0,0,0,1.08-3.09,10.73,10.73,0,0,0,.49-3.94c0-.41.17-.45.49-.13a2.89,2.89,0,0,1,.76,1.95,11.57,11.57,0,0,1-.89,4.44,31,31,0,0,0-1.27,3.91,2.81,2.81,0,0,0-.05.75,1.55,1.55,0,0,1,.07.31s.06.08.07.11,0,0,0,.05.13.11.22.14a.58.58,0,0,0,.34-.11,5.13,5.13,0,0,0,1.12-.82,15.08,15.08,0,0,0,1.39-1.48c.22-.27.44-.54.64-.82l.16-.21.19-.28c.16-.23.31-.49.46-.73a2.1,2.1,0,0,1,.7-.63,1.22,1.22,0,0,1,.89.31,7.67,7.67,0,0,1,1,.9c.23.24.43.47.64.71A18.58,18.58,0,0,1,369,328.1a13,13,0,0,1,2,5.33,11.18,11.18,0,0,1-.16,4.46,8,8,0,0,1-.3.95c-.51,1.13-.94,1.34-1.47,1.31a3.48,3.48,0,0,1-.36,0c-.35-.1-.39-.67-.23-1.44a17.77,17.77,0,0,0,.53-3.32,9.55,9.55,0,0,0-.42-3.29,12.58,12.58,0,0,0-2.56-4.55Z"/><path class="cls-1" d="M378.82,326.41c-.69-1.08-1.33-2.18-1.94-3.3-.21-.42-.47-.8-.67-1.23a24,24,0,0,1-1.75-4.62,19.68,19.68,0,0,1-.49-2.15,5.15,5.15,0,0,1,.2-2.88c.12-.29.34-.15.53.15a2.53,2.53,0,0,1,.39,1.17,18.82,18.82,0,0,0,1.21,5.05,19.49,19.49,0,0,0,1.46,3c.59,1.09,1.21,2.16,1.89,3.2a10.47,10.47,0,0,0,.63.92l.72.94a20.69,20.69,0,0,1,1.89,3.1,4.81,4.81,0,0,1,.63,3,3,3,0,0,1-.29.77c-.33.4-.6.61-.84.63a.65.65,0,0,1-.57-.16,1.29,1.29,0,0,1-.21-.19c-.19-.25-.06-.65.13-1l.1-.34c0-.13.06-.19,0-.32a3.3,3.3,0,0,0-.12-.8,8.5,8.5,0,0,0-.88-2c-.29-.5-.6-1-.95-1.49l-.53-.74-.61-.8Z"/><path class="cls-1" d="M316.42,402l-.23,14.9,0,5.43c-.14,6.39-.34,12.77-.64,19.16-.11,2.83-.21,5.68-.32,8.5A54.21,54.21,0,0,1,314,460.81c-.28,1.12-.54.87-.72-.14-.1-.5-.14-1.16-.22-2a19,19,0,0,1-.11-2.8c0-.91,0-1.83,0-2.74s.08-1.83.1-2.75c0-1.83.11-3.67.16-5.51.1-3.68.21-7.37.38-11.08.24-4.43.16-9.06.21-13.6l.16-15,.06-9.22c0-4.66.08-9.35,0-14,0-3.6-.23-7.12-.26-10.67,0-.79,0-1.55,0-2.34.05-2.93.29-3.86.67-4.49a4.67,4.67,0,0,1,.25-.42c.24-.28.56.92.81,3.06.61,6.34.76,13,.88,19.77l.09,7.51,0,7.52Z"/><path class="cls-1" d="M277.27,391.67c.32-13.08,1-26.14,1.89-39.18.32-4.76.59-9.52,1-14.27,1.3-16.75,2.88-33.48,4.45-50.19.69-7.42,1.33-14.88,1.92-22.25l1.05-14.21c.16-2.37.31-4.74.43-7.1s.25-4.73.15-7.05c-.06-1.44-.16-2,0-2s.59.61.88,1.88a49.18,49.18,0,0,1,.71,12.68c-.46,9.72-1.33,19.38-2.2,29.06s-1.84,19.35-2.76,29.09c-1.13,11.63-2,23.77-2.78,35.7-.91,13.11-1.65,26.24-2.12,39.37-.27,8.08-.45,16.17-.41,24.25A287.09,287.09,0,0,0,281.58,444a110.86,110.86,0,0,0,2.74,13.71c.14.56.32,1.11.48,1.66l.25.81c.05.14.06.29.21.34l.2.11.35.18c.23.13.49.23.74.34.51.2,1,.38,1.57.54a35.4,35.4,0,0,0,6.71,1.17c2,.18,4,.22,6,.2A62.17,62.17,0,0,0,312.31,462a6.65,6.65,0,0,0,1.06-.34c.21-.06.23,0,.05.29a3.91,3.91,0,0,1-1.24,1,18.71,18.71,0,0,1-6.35,1.92,54.42,54.42,0,0,1-12.95.11,29.73,29.73,0,0,1-6.61-1.42,11.83,11.83,0,0,1-1.66-.71,4.17,4.17,0,0,1-.45-.24l-.66-.41-.33-.21c-.09-.08-.09-.23-.14-.35l-.22-.73c-.33-1.08-.67-2.13-.94-3.21a147.7,147.7,0,0,1-3.94-26.34c-1-13.2-1-26.46-.72-39.66Z"/><path class="cls-1" d="M347.15,406.4c-.07-11.29-.48-22.6-1-33.9-.2-4.12-.51-8.24-.76-12.36q-1.29-21.78-3.24-43.53c-.58-6.44-1.24-12.9-1.93-19.27-.87-8.19-1.85-16.4-2.43-24.63-.17-2.56.32-2.26,1-.14a63,63,0,0,1,2.14,10.75l1.43,12.54,1.26,12.57q1.2,12.58,2.11,25.28c.71,10.12,1.65,20.65,2.29,31q1.06,17.1,1.45,34.24c.13,7,.16,14.07,0,21.1-.13,5.33-.29,10.67-.69,16-.14,2.66-.44,5.32-.67,8s-.6,5.29-1.05,7.91c-.27,2-.72,4.06-1.11,6.07-.2,1-.5,2-.74,3l-.46,1.78a9,9,0,0,1-.95.6c-.29.13-.51.25-.77.36a21.78,21.78,0,0,1-6.16,1.39,44.25,44.25,0,0,1-6.2.19,45.05,45.05,0,0,1-5.42-.47,23,23,0,0,1-7.05-2,5,5,0,0,1-2.51-2.3c-.06-.18-.15-.37-.2-.55a2,2,0,0,1-.06-.48c0-.19.16-.19.37-.07s.48.35.95.61a18.27,18.27,0,0,0,4.85,1.76,46,46,0,0,0,10.61,1.12,41.9,41.9,0,0,0,5.38-.34,17,17,0,0,0,4.94-1.29l.12-.06h0s0,0,0-.05L343,460c.22-.9.5-1.78.67-2.7.35-1.83.78-3.64,1-5.52l.43-2.79.34-2.82.33-2.83.25-2.84c.28-2.81.41-5.65.6-8.48s.28-5.67.33-8.52c.18-5.69.17-11.39.13-17.09Z"/><path class="cls-1" d="M315.15,278.25a81.24,81.24,0,0,1-9.49.16c-1.15,0-2.3-.08-3.45-.17a44.27,44.27,0,0,1-11.93-2.68,16.71,16.71,0,0,1-4.79-2.81,6.25,6.25,0,0,1-2-3.11,5.21,5.21,0,0,1,.4-3.68c.31-.71.6-.41.76.27.1.33.06.76.2,1.22.05.23.06.47.09.71a2.88,2.88,0,0,1,.15.72,5,5,0,0,0,1.42,2.34,11.27,11.27,0,0,0,2.58,1.72,13.35,13.35,0,0,0,1.48.68c.49.23,1,.39,1.55.58,1,.38,2.12.72,3.22,1a41.48,41.48,0,0,0,8.31,1.12,75.94,75.94,0,0,0,9.3,0c1.91-.1,3.82-.31,5.71-.56a53.71,53.71,0,0,0,8.48-1.8,39.83,39.83,0,0,0,6.1-2.5c.43-.2.83-.45,1.26-.67,1.61-.77,2.16-.95,2.72-.81a2.61,2.61,0,0,1,.37.08c.31.14-.18.76-1.24,1.7a19.43,19.43,0,0,1-2.64,1.69,28.15,28.15,0,0,1-2.87,1.39,45,45,0,0,1-6.17,1.92,63.55,63.55,0,0,1-9.49,1.51Z"/><path class="cls-1" d="M332.14,201.75a1.89,1.89,0,0,1-1.48-1.43,3.3,3.3,0,0,1,.37-1.89,14.2,14.2,0,0,1,1.44-2.18c.38-.48.72-1,1.12-1.43,1.41-1.58,2.87-3.07,4.36-4.52.66-.65,1.28-1.34,1.89-2,.39-.44.76-.9,1.16-1.32s.83-.82,1.27-1.2c.27-.23.52,0,.61.5a2.46,2.46,0,0,1-.39,1.75,47.31,47.31,0,0,1-5,5.22,31.24,31.24,0,0,0-2.94,3.25c-.51.61-1,1.23-1.44,1.86a9.12,9.12,0,0,0-.59.95c-.08.18-.11.24-.14.32a.62.62,0,0,0,0,.27c0,.12.13.18.23.24l.17.06h.07a.32.32,0,0,0,.14,0,2.68,2.68,0,0,0,1.2-.24,11,11,0,0,0,3.43-2.6,26.61,26.61,0,0,0,2.13-2.7c.15-.21.28-.42.44-.62.59-.75.91-.92,1.4-.74a1.62,1.62,0,0,1,.33.13c.32.2.3.65-.07,1.24a22.66,22.66,0,0,1-4.22,5.06,11.38,11.38,0,0,1-2.22,1.55,5.81,5.81,0,0,1-1.42.53,3.2,3.2,0,0,1-.83.1,3.39,3.39,0,0,1-.45,0,4.21,4.21,0,0,1-.58-.11Z"/><path class="cls-1" d="M339.83,202.87a5.88,5.88,0,0,1-1.78.44,3.12,3.12,0,0,1-1.11-.12l-.56-.29a3.05,3.05,0,0,1-.44-.44,2.09,2.09,0,0,1-.41-.83,1.9,1.9,0,0,1,0-.82,5,5,0,0,1,1-2.07,15.62,15.62,0,0,1,1.35-1.55c.41-.43.8-.87,1.18-1.31a13.81,13.81,0,0,1,1.51-1.63c.35-.31.85.83.31,1.55-1,1.22-2,2.32-2.95,3.4a3.93,3.93,0,0,0-.7,1.05,1.92,1.92,0,0,0-.23,1,.62.62,0,0,0,.44.52,2.2,2.2,0,0,0,1.16-.1,9.56,9.56,0,0,0,1.65-.73,21.93,21.93,0,0,0,2.4-1.52c.6-.43,1.13-.94,1.7-1.42l.38-.32c.51-.35.77-.32,1.09-.05a1.9,1.9,0,0,1,.21.19c.21.23.15.59-.14.94a16.57,16.57,0,0,1-3.15,2.61,18.37,18.37,0,0,1-2.88,1.57Z"/><path class="cls-1" d="M346.05,203.64A14.92,14.92,0,0,1,343,204a5.76,5.76,0,0,1-1.23-.09,4.06,4.06,0,0,1-.64-.22,2.6,2.6,0,0,1-.7-.47,1.34,1.34,0,0,1-.1-1.93,2.66,2.66,0,0,1,.34-.4c.1-.08.19-.18.29-.25s.39-.3.59-.43l1.4-1a13.76,13.76,0,0,1,1.72-1.1c.17-.08.38.13.45.49a1.31,1.31,0,0,1-.38,1.15,12.27,12.27,0,0,1-1.77,1.23l-.84.54a4,4,0,0,0-.37.27c-.12.09-.11.05-.18.09a.18.18,0,0,0,0,.32.63.63,0,0,0,.25.12,4.51,4.51,0,0,0,.55.09,9.74,9.74,0,0,0,2.7-.23c.57-.12,1.13-.26,1.69-.43a16.6,16.6,0,0,0,2.49-1,11.75,11.75,0,0,0,1.66-1.12c.12-.09.21-.19.32-.27.4-.32.51-.28.93-.07l.29.12c.34.1.38.61.05,1a7.8,7.8,0,0,1-3.45,2.29,22.21,22.21,0,0,1-2.94.89Z"/><path class="cls-1" d="M337.48,179.1a5.74,5.74,0,0,0-.75-.47c-.13-.08-.24-.11-.35-.17l-.14-.05a.21.21,0,0,0-.19,0,.29.29,0,0,0-.07.1l-.07.25c0,.14,0,.35,0,.51a3.83,3.83,0,0,1,.1.59,13.07,13.07,0,0,0,2.16,4.43,20.73,20.73,0,0,0,1.46,1.79,13.34,13.34,0,0,1,1.91,2.34c.16.3-.19.49-.67.55a1.85,1.85,0,0,1-1.5-.43,18.53,18.53,0,0,1-3.77-5,12.45,12.45,0,0,1-1.53-3.84,3.5,3.5,0,0,1,0-.65,2.1,2.1,0,0,1,.1-.67,5.11,5.11,0,0,1,.22-.7l.21-.36.28-.29a1.72,1.72,0,0,1,1.53-.35,3.77,3.77,0,0,1,1.22.49,16.29,16.29,0,0,1,2.16,1.59c1,.85,1.93,1.78,2.88,2.65.74.67,1.53,1.26,2.29,1.86l.51.38c.6.51.64.71.54,1.18l0,.32c0,.37-.64.42-1.2.11a25.58,25.58,0,0,1-4.28-3.51,32.24,32.24,0,0,0-3-2.59Z"/><path class="cls-1" d="M307.05,191.79a24,24,0,0,0,6.47-3.79c.74-.58,1.43-1.22,2.14-1.84a43.77,43.77,0,0,0,6.81-7.31l.19-.29c.25-.51.85-.54,1.37-.47a10.23,10.23,0,0,1,1.17.19,18.81,18.81,0,0,1,2.11.59,11.34,11.34,0,0,1,5.11,3c.41.5.07.65-.52.54a7.83,7.83,0,0,1-2.36-.82,16.56,16.56,0,0,0-3.23-1.31,14.83,14.83,0,0,0-1.69-.41l-.41-.07-.18,0h0a.06.06,0,0,0-.06,0l-.5.72c-.22.3-.44.61-.67.89-.46.58-.95,1.14-1.46,1.67-1.66,1.74-3.33,3.59-5.2,5.21a33,33,0,0,1-6.7,4.63,11.1,11.1,0,0,1-5,1.32,5.2,5.2,0,0,1-2.06-.5,5,5,0,0,1-2.55-3.25,5.67,5.67,0,0,1,.05-2.06c.42-2,1.15-3.71,1.39-5.44a10.73,10.73,0,0,0,.08-1.13c0-1.4-.09-1.84.21-2.27a2.61,2.61,0,0,1,.19-.3c.12-.12.28-.05.48.2a3.36,3.36,0,0,1,.58,1.31,10.17,10.17,0,0,1-.38,5.56,24.66,24.66,0,0,0-.67,2.39,2.94,2.94,0,0,0,.12,1.8,3.48,3.48,0,0,0,.84,1.05,2.59,2.59,0,0,0,1.18.56,6.51,6.51,0,0,0,3.19-.43Z"/><path class="cls-1" d="M287.6,478a76,76,0,0,1-10.11-.2l-.5-.06-.76-.1a9.23,9.23,0,0,1-1.44-.34,2.46,2.46,0,0,1-1-.59,1.2,1.2,0,0,1-.3-.4.9.9,0,0,1-.11-.56,1.09,1.09,0,0,1,.12-.42,2.9,2.9,0,0,1,.33-.38l.34-.38a1.06,1.06,0,0,1,.43-.36l1.14-.67.27-.15.22-.1.41-.18a13.67,13.67,0,0,1,1.61-.61c.53-.19,1.05-.31,1.58-.47a61,61,0,0,1,6.34-1.32c1.88-.31,3.77-.61,5.64-.88l.85-.13.19,0a.12.12,0,0,0,.14-.11.64.64,0,0,0,.06-.18c0-.06,0-.11.07-.27s.15-.55.21-.83a14.17,14.17,0,0,0,.41-3.3.39.39,0,0,1,.18-.45c.12-.11.43-.09.72.23a4.53,4.53,0,0,1,.8,3.47c-.05.33-.1.66-.16,1a6.08,6.08,0,0,1-.35,1.26,1.5,1.5,0,0,1-1.17,1.14,5,5,0,0,1-.87.17l-.46.06-3.62.47c-2.41.35-4.82.71-7.19,1.21a22.65,22.65,0,0,0-4.11,1.27l-.45.2-.18.09a3.37,3.37,0,0,0-.32.19c-.08.07-.24.13-.21.27s.18.14.29.18a2.59,2.59,0,0,0,.4.09l.27,0,.6.06c.81.07,1.63.12,2.45.14,1.64.05,3.3,0,4.95,0,2-.07,4.08-.19,6.11-.39a46.5,46.5,0,0,0,9-1.6,9.51,9.51,0,0,0,1.8-.79c.57-.35.81-.59.77-.94,0-1,0-2,.06-2.95,0-.52,0-1,0-1.54,0-1.92.1-2.36.65-2.83a1.2,1.2,0,0,0,.28-.41.26.26,0,0,1,.31-.16.66.66,0,0,1,.27.16,1.52,1.52,0,0,1,.22.27,3.92,3.92,0,0,1,.51,1.8,56.61,56.61,0,0,1,0,5.83,2.64,2.64,0,0,1-.6,1.63,3.69,3.69,0,0,1-.61.59c-.18.14-.35.25-.52.36a10.43,10.43,0,0,1-2,.9,28.34,28.34,0,0,1-3.83,1,79.31,79.31,0,0,1-10.15,1.1Z"/><path class="cls-1" d="M337.65,475.92a71.83,71.83,0,0,0,10.27,0l.91-.11.45-.08.37-.07a1.91,1.91,0,0,0,.44-.15.12.12,0,0,0,.06-.18.77.77,0,0,0-.16-.15.44.44,0,0,0-.15-.12l-.09-.07-.29-.16c-.41-.19-.82-.4-1.24-.58-.86-.35-1.76-.66-2.67-.94-1.82-.54-3.7-1-5.59-1.33s-3.91-.62-5.87-.84l-.8-.09-.4-.05-.62-.08c-.81,0-1.06-1.05-1.18-1.67a14.32,14.32,0,0,1-.23-1.56,8.59,8.59,0,0,1,.2-3.24c.16-.48.5-.67.6-.53a5.66,5.66,0,0,1,.3.75,16.07,16.07,0,0,1,1,3.09c.07.39.18.84.27,1.15h0l2.77.39c1.07.15,2.14.32,3.2.52a53.39,53.39,0,0,1,6.39,1.52c1,.32,2.05.65,3.08,1.05.52.18,1,.44,1.54.67.27.12.44.24.9.5a10,10,0,0,1,1.06.74,6.92,6.92,0,0,1,.64.84,1.13,1.13,0,0,1,0,1,3,3,0,0,1-1.87,1.18,4.56,4.56,0,0,1-.53.13l-.46.1-.68.12c-.46.06-.9.12-1.35.16-.9.09-1.79.14-2.67.18-1.78.08-3.55.08-5.32,0-2.18-.05-4.35-.16-6.52-.35-1.64-.13-3.28-.32-4.92-.58a29.57,29.57,0,0,1-4.9-1.11,7.39,7.39,0,0,1-1.49-.7,2,2,0,0,1-1-1.75c-.06-1.56-.21-3-.3-4.57,0-.55-.08-1.1-.08-1.66,0-2.08.25-2.88,1-3.22.15-.07.4-.16.51-.09s.18.15.27.25a.51.51,0,0,0,.13.09s.07.12.1.19a6.21,6.21,0,0,1,.21,1.56c.1,2.33.32,4.87.38,7.36l0,0h0l.07.05a7.05,7.05,0,0,0,1.14.49,21.8,21.8,0,0,0,2.89.72,76.85,76.85,0,0,0,10.26,1.12Z"/><path class="cls-1" d="M289.82,131.83a6.23,6.23,0,0,1-1.54-.05,3.16,3.16,0,0,1-1.67-.84,3.11,3.11,0,0,1-.58-.83,4.42,4.42,0,0,1-.23-.86,3.61,3.61,0,0,1,0-.79,3.32,3.32,0,0,1,.07-.72,8,8,0,0,1,.46-1.93,19.5,19.5,0,0,1,3.58-5.42c.62-.71,1.26-1.41,1.94-2.06a8.49,8.49,0,0,1,3-2.11c.38-.14.47.25.39.74a2.61,2.61,0,0,1-.76,1.49c-.83.71-1.57,1.57-2.36,2.38s-1.55,1.66-2.28,2.55A10.74,10.74,0,0,0,288,127a5,5,0,0,0-.26,2,1.12,1.12,0,0,0,.28.59,1.56,1.56,0,0,0,.71.3,6.72,6.72,0,0,0,2.66-.36,21.79,21.79,0,0,0,4.07-1.7c1-.56,1.91-1.25,2.86-1.88l.61-.43c.8-.47,1.16-.47,1.57-.21a2.68,2.68,0,0,1,.28.18c.26.22.1.69-.39,1.24a15.29,15.29,0,0,1-2.54,2,24.43,24.43,0,0,1-2.95,1.58,17.15,17.15,0,0,1-5,1.53Z"/><path class="cls-1" d="M301.63,113.13a5.12,5.12,0,0,1-1.87,1.52,3.67,3.67,0,0,1-2.56.16,4.64,4.64,0,0,1-.91-.38,3.6,3.6,0,0,1-.73-.6,5.82,5.82,0,0,1-1.17-2.56,12.92,12.92,0,0,1-.29-2.53c0-.73-.06-1.47,0-2.2a5.56,5.56,0,0,1,.64-2.83c.19-.29.51,0,.79.33a1.91,1.91,0,0,1,.54,1.24,32.5,32.5,0,0,0,0,5,3.52,3.52,0,0,0,1.17,2.38,1.88,1.88,0,0,0,1.15.33,2,2,0,0,0,1.19-.56,6.06,6.06,0,0,0,1.22-1.66,18.85,18.85,0,0,0,1.32-3.12c.28-.85.43-1.73.7-2.63a3.16,3.16,0,0,1,.2-.59,1.41,1.41,0,0,1,.56-.69.94.94,0,0,1,.66,0c.1,0,.21.06.29.1a.61.61,0,0,1,.28.4,1.16,1.16,0,0,1,.07.65,24.78,24.78,0,0,1-1.29,4.62,14.75,14.75,0,0,1-1.89,3.64Z"/><path class="cls-1" d="M316.9,115.12a7.88,7.88,0,0,1-2.22,1.61,4.11,4.11,0,0,1-3.05.23,4.37,4.37,0,0,1-1.86-1.11,5.46,5.46,0,0,1-1.38-3.22,14,14,0,0,1,.06-3.18c.11-.91.25-1.81.41-2.7a11.21,11.21,0,0,1,1-3.33c.18-.32.52-.13.79.28a2.18,2.18,0,0,1,.33,1.63,28.83,28.83,0,0,0-.92,6.44,3.64,3.64,0,0,0,1.4,3,2.31,2.31,0,0,0,1.6.45,3.64,3.64,0,0,0,1.7-.83,10.61,10.61,0,0,0,1.83-2,23.21,23.21,0,0,0,2.2-3.66c.49-1,.82-2.06,1.23-3.1.09-.22.17-.45.29-.68.45-.81.83-1,1.27-1a2.83,2.83,0,0,1,.3,0c.29.09.35.53.28,1.21a12.71,12.71,0,0,1-.91,2.93,28.34,28.34,0,0,1-1.4,2.89,19.74,19.74,0,0,1-2.91,4.08Z"/><path class="cls-1" d="M302.94,144a2,2,0,0,0,3.4-.8,2.43,2.43,0,0,0-1.57-3.19,1.24,1.24,0,0,0-1.21.32,3.52,3.52,0,0,0-.63,1,1.25,1.25,0,0,0,.88,1.54,1.27,1.27,0,0,0,1.53-.87.08.08,0,0,1,0,.07l-1.22.32c.17.05,0,0,0,0,.21.19-.12-.15,0,0a1.19,1.19,0,0,1-.08-.16,1.29,1.29,0,0,1,0,.19l0-.18v.08s0,.13,0,.15.06-.25,0-.06.13-.18,0,0,.21-.23,0-.06.07-.06.11-.08.28-.09.12-.06a1,1,0,0,1,.42,0c-.25,0,.22.06.05,0s.19.17,0,0c-1.13-1.15-2.9.62-1.77,1.77Z"/><path class="cls-1" d="M288.85,110.58c-.08.71-.14,1.42-.15,2.13,0,.27,0,.52,0,.79,0,.92,0,1.86,0,2.8a10.06,10.06,0,0,0,.14,1.23,5.35,5.35,0,0,1,.08,1.6c0,.18-.15.18-.35.07a1.57,1.57,0,0,1-.64-.6,5.61,5.61,0,0,1-.48-1.59,8.26,8.26,0,0,1-.18-1.65c0-.67-.13-1.35-.17-2s0-1.5,0-2.25c0-.47,0-.93.07-1.39.05-.71.15-1.4.2-2.1,0-.54,0-1.09,0-1.64a1.45,1.45,0,0,1,0-.36c.07-.45.39-.52.78-.52a2.25,2.25,0,0,1,.26,0,.65.65,0,0,1,.36.18,1,1,0,0,1,.31.43,7.8,7.8,0,0,1,0,2.81c-.08.69-.17,1.39-.22,2.1Z"/><path class="cls-1" d="M205.16,118a3.64,3.64,0,0,1-2.08,2.21,4.19,4.19,0,0,1-2.76,0,4.85,4.85,0,0,1-.88-.33,3.49,3.49,0,0,1-.78-.44A13.67,13.67,0,0,1,195,115l-1.26-2.11a16.32,16.32,0,0,1-1.41-2.76c-.11-.31.16-.4.54-.3a2.2,2.2,0,0,1,1.2.89c1.12,1.75,2.21,3.48,3.38,5.11a7.34,7.34,0,0,0,2.63,2.29c1,.54,2.36.65,2.88-.13a3.88,3.88,0,0,0,.59-2.09,15,15,0,0,0-.36-3.8,24.51,24.51,0,0,0-.94-2.86c-.07-.21-.14-.42-.2-.64-.2-.82,0-1.15.41-1.42a1.59,1.59,0,0,1,.3-.18c.34-.14.72.11,1.07.63a10.93,10.93,0,0,1,1.07,2.61,19.23,19.23,0,0,1,.61,2.91,13.58,13.58,0,0,1,.14,2.32,8.16,8.16,0,0,1-.42,2.53Z"/><path class="cls-1" d="M221.93,112.72a4.92,4.92,0,0,1-1.26,2.37,2.71,2.71,0,0,1-1.5.72,3.1,3.1,0,0,1-1.45-.15,3.88,3.88,0,0,1-.9-.39,3,3,0,0,1-.74-.55,8.44,8.44,0,0,1-1.63-2.35,24.88,24.88,0,0,1-1-2.46l-.84-2.15c-.37-.9-.74-1.81-1-2.7-.09-.28.15-.38.51-.27a2,2,0,0,1,1.09,1c.89,1.82,1.61,3.62,2.41,5.36a5.69,5.69,0,0,0,2.05,2.46,1.8,1.8,0,0,0,1.26.31,1.37,1.37,0,0,0,.83-.87,7.16,7.16,0,0,0,.45-2.2,17.21,17.21,0,0,0-.13-3.65,18.53,18.53,0,0,0-.72-2.75c-.06-.19-.14-.38-.2-.59-.21-.74-.1-1,.43-1.31a2.43,2.43,0,0,1,.35-.2c.4-.18.88,0,1.14.59a15.69,15.69,0,0,1,1.25,5.39,15.31,15.31,0,0,1-.27,4.43Z"/><path class="cls-1" d="M208.64,109.52a26.07,26.07,0,0,1-1.41-7,19.19,19.19,0,0,1,0-2.63,23,23,0,0,1,.36-2.33,12.18,12.18,0,0,1,.86-2.24,9.5,9.5,0,0,1,1.35-2l.89-.82c.31-.25.66-.45,1-.68a10.85,10.85,0,0,1,4-1.35,8.79,8.79,0,0,1,2.66,0,5.9,5.9,0,0,1,2.55.94c.5.35.16.6-.4.74a6.44,6.44,0,0,1-2.14.24,11.35,11.35,0,0,0-4.39.45,6.85,6.85,0,0,0-3.47,2.54,9.21,9.21,0,0,0-1.36,5.52,22.3,22.3,0,0,0,.93,6.57,28.43,28.43,0,0,0,1.48,3.88,32.3,32.3,0,0,0,3.2,5.45,32.74,32.74,0,0,0,3.23,3.61c.25.25.52.48.77.73.93.94,1.11,1.35.92,2,0,.13-.08.28-.14.4-.2.39-.84.25-1.66-.37a29.73,29.73,0,0,1-6.05-7.11,34.11,34.11,0,0,1-3.13-6.46Z"/><path class="cls-1" d="M186.43,101.43c0,.29-.34.27-.93.15-.18,0-.64-.31-.66-.42a2.69,2.69,0,0,1,0-.63,7.86,7.86,0,0,1,1.31-2,5.2,5.2,0,0,1,1.23-1.07,21.48,21.48,0,0,1,2.81-1.54,3.73,3.73,0,0,1,.67-.21A13.21,13.21,0,0,0,193.1,95a.76.76,0,0,0,.35-.19,8.89,8.89,0,0,1,2.51-.72c.7,0,1.39,0,2.09,0,.1,0,.2,0,.3.05s.43.12.65.12a3.84,3.84,0,0,1,.89.09,1.31,1.31,0,0,1,.44.25c.13.08.06.4,0,.44s0,.25,0,.39v.14a14.76,14.76,0,0,1-1.64.81,22.28,22.28,0,0,0-2.45.68,1.07,1.07,0,0,1-.4,0c-.08,0-1.75.66-1.81.69a2.66,2.66,0,0,1-1.09.23.34.34,0,0,0-.22,0c-.58.26-1.18.44-1.78.65-.3.12-.56.3-.85.44l-.17,0a.48.48,0,0,0-.21.07,8,8,0,0,0-1.8,1.25,2.93,2.93,0,0,1-.49.29,1.88,1.88,0,0,0-.44.35C186.93,101.28,186.42,101.31,186.43,101.43Z"/><path class="cls-1" d="M210.38,135.7c2.31,3.22,6.59,3.12,9.27.41,1.14-1.15-.63-2.92-1.76-1.77-1.46,1.47-4,2-5.36.09-.93-1.29-3.09-.05-2.15,1.27Z"/><path class="cls-1" d="M313.48,97.52c-.13.28-.47.15-1-.17-.17-.1-.53-.53-.5-.65a2.88,2.88,0,0,1,.24-.66,2.76,2.76,0,0,1,.28-.29,2.89,2.89,0,0,1,.64-.49l.77-.5a7,7,0,0,1,.65-.31,5.22,5.22,0,0,1,.93-.35c.32-.06.64-.11,1-.15a16,16,0,0,1,1.95-.09,16.8,16.8,0,0,1,1.89.19,3.73,3.73,0,0,1,.81.22,27.2,27.2,0,0,0,2.67.92,1.22,1.22,0,0,0,.47.08,4.87,4.87,0,0,1,1.45.5,7.48,7.48,0,0,1,1.39.82,23.38,23.38,0,0,1,1.8,1.79c.07.09.19.15.2.31,0,.36.24.48.4.7a3.51,3.51,0,0,1,.56,1,2,2,0,0,1,.06.6c0,.18-.33.26-.39.24s-.24.11-.35.18a.37.37,0,0,1-.12.07c-.06,0-.4-.24-.84-.41l-.59-.26a2.93,2.93,0,0,1-.35-.14l-.33-.23c-.18-.14-.48-.28-.75-.45a12.87,12.87,0,0,0-1.34-.63,1,1,0,0,1-.37-.26c-.05-.06-2-.67-2-.68a3.08,3.08,0,0,1-1.1-.55.5.5,0,0,0-.23-.09l-2-.56c-.34-.06-.7-.07-1.05-.11L318,97a1,1,0,0,0-.23,0,10,10,0,0,0-1.23,0l-.61.06a4,4,0,0,0-.56.18,5.78,5.78,0,0,1-.62.07,3,3,0,0,0-.61.17,1.21,1.21,0,0,1-.36,0C313.66,97.46,313.51,97.46,313.48,97.52Z"/><path class="cls-1" d="M215,184.73a51.72,51.72,0,0,0,5.13,2.05c.63.22,1.29.35,1.94.54s1.15.32,1.67.41a11.66,11.66,0,0,0,1.68.16,10.45,10.45,0,0,0,3.38-.5,5.86,5.86,0,0,0,2.51-1.55,4.92,4.92,0,0,0,1.08-3.47c0-.4.23-.41.5-.08a2.81,2.81,0,0,1,.43.77,3.11,3.11,0,0,1,.09,1.21,5.62,5.62,0,0,1-2.74,3.88,10.06,10.06,0,0,1-4.39,1.22,19.38,19.38,0,0,1-2.74-.06c-.48-.07-.93-.15-1.35-.25s-.87-.19-1.29-.31a43.48,43.48,0,0,1-5.45-1.92c-1.08-.46-2.15-1-3.2-1.51-1.6-.81-3.14-1.73-4.65-2.67-1.18-.72-2.33-1.45-3.44-2.27-.24-.19-.48-.36-.71-.56-.88-.73-1-1.19-.88-1.59a1.64,1.64,0,0,1,0-.27c.05-.13.19-.14.42-.1a2.39,2.39,0,0,1,.89.38c2,1.31,4,2.64,6.15,3.91a52.1,52.1,0,0,0,4.93,2.54Z"/><path class="cls-1" d="M226.09,198.05a2.74,2.74,0,0,0,1.39,3.47,2.64,2.64,0,0,0,3.34-1.81,3.36,3.36,0,0,0-2.8-4.29c-1.45,0-2.11,1.29-2.18,2.54a1.26,1.26,0,0,0,1.25,1.25,1.28,1.28,0,0,0,1.25-1.25c0-.38,0,.12,0-.07s0-.15,0-.23c.05-.25-.07.12,0,0s-.19.21,0,.06l-.15.12c.08-.05.06-.05-.05,0s-.12,0,0,0l-.22,0c.27,0-.21-.12.05,0s-.17-.14-.07,0a1.51,1.51,0,0,0,.17.1c.18.07-.12-.13,0,0s.11.09.15.14l.14.15c.1.11-.13-.25,0,0,.05.09.21.47.11.16a3.25,3.25,0,0,1,.11.42c0-.08-.06-.23,0-.08s-.09.27,0,0c0,0,0,.18,0,.18s0,.11,0,0,0-.08,0,0-.06.12-.1.17c.11-.14-.14.12-.07.06l0,0c.14,0,.16,0,.07,0h0a.32.32,0,0,1,.18.06l-.09,0c.1.08.12.09.05,0h0c.08,0-.06-.12,0,0,0,0-.07-.33-.05-.18s0-.17,0-.2c0,.21.07-.15.08-.18a1.26,1.26,0,0,0-.87-1.54,1.28,1.28,0,0,0-1.54.88Z"/><path class="cls-1" d="M228.52,208.23a2.78,2.78,0,0,0-.41,3.52,2.75,2.75,0,0,0,3.2,1.08,2.83,2.83,0,0,0,1.8-2.85,3.91,3.91,0,0,0-1.17-2.68,2,2,0,0,0-3.2.76,1.3,1.3,0,0,0,.45,1.72,1.27,1.27,0,0,0,1.71-.45,2,2,0,0,1,.13-.25c.08-.16.1-.1,0,0,.15-.13-.13.07-.17.1s-.13,0,0,0l-.21,0a.4.4,0,0,1-.34-.08c.14.08-.06-.05-.08-.08s.12.12.16.16-.12-.2-.05-.06l.22.39c-.14-.28,0,.13.06.24a1.27,1.27,0,0,1,.06.28c0-.1,0-.2,0-.05a2.53,2.53,0,0,0,0,.28c0-.14,0-.2,0,0a.29.29,0,0,1,0,.09c0,.09,0,.06,0-.1,0,0-.15.28,0,.09s-.11.1-.13.13c.13-.15-.11,0,0,0l-.14,0c.16,0,.13,0,0,0s.31,0,0,0,0,.06,0,0-.29-.18,0,0c0,0-.22-.22-.1-.08s0-.08-.06-.12c.07.14.05.12,0,0s0,.22,0,0,0,.14,0,0-.1.1,0-.07-.08.05.12-.16c1.09-1.18-.68-2.95-1.77-1.77Z"/><path class="cls-1" d="M137.77,42.81c-.1-.17.1-.3.48-.41a1.11,1.11,0,0,1,.53,0,3.25,3.25,0,0,1,.26.27c0,.06.23.93.33,1.22a3.53,3.53,0,0,1,.15.85c.06.57.15,1.14.25,1.71a1.21,1.21,0,0,1,0,.38,3,3,0,0,0,.14,1.31c0,.07,0,.14.11.2a4.55,4.55,0,0,1,.38,1.38c-.05.39,0,.77-.05,1.17,0,.06,0,.11,0,.18a.37.37,0,0,0-.06.39,2.85,2.85,0,0,1,0,.51,1.11,1.11,0,0,1-.1.31c0,.09-.25.15-.28.14s-.18.06-.26.11l-.09,0a4.53,4.53,0,0,1-1-.85l-.14-.23a4.58,4.58,0,0,1-.26-.5l-.34-.86a.52.52,0,0,1,0-.28s-.4-1.2-.38-1.25a1.32,1.32,0,0,1,0-.76.19.19,0,0,0,0-.15,6.83,6.83,0,0,1,0-1.28c0-.21,0-.43,0-.64a.53.53,0,0,1,0-.12.39.39,0,0,0,0-.15c0-.51,0-1,0-1.53,0-.12.17-.68.15-.81S137.81,42.88,137.77,42.81Z"/><path class="cls-1" d="M124.5,53.76c-.26,0-.27-.32-.1-.83a1.92,1.92,0,0,1,.43-.59,2.88,2.88,0,0,1,.46-.14c.07,0,1.09.3,1.46.37a4.27,4.27,0,0,1,1,.36c.64.32,1.3.59,2,.88a2,2,0,0,1,.41.26,4.34,4.34,0,0,0,1.45.78.4.4,0,0,0,.29,0,5.63,5.63,0,0,1,1.71.63c.38.34.78.63,1.17.93.06,0,.14,0,.16.16.05.27.2.3.33.38a4.39,4.39,0,0,1,.51.37,1.16,1.16,0,0,1,.2.33c.06.11-.07.35-.11.37s-.09.2-.12.31,0,.09,0,.12a10.91,10.91,0,0,1-1.53.18s-.46-.1-.92-.22l-1-.26c-.11,0-.18-.11-.27-.18s-1.42-.42-1.47-.45c-.25-.14-.56-.19-.74-.49a.34.34,0,0,0-.15-.09,8.21,8.21,0,0,1-1.34-.72c-.23-.13-.47-.21-.71-.33,0,0-.07-.07-.1-.1a.67.67,0,0,0-.14-.11c-.57-.25-1.07-.63-1.66-.84-.14-.05-.63-.58-.79-.64S124.6,53.75,124.5,53.76Z"/><path class="cls-1" d="M385.69,83.58c-.15.18-.38,0-.65-.36a1.41,1.41,0,0,1-.17-.6,3.8,3.8,0,0,1,.19-.4c.05,0,.89-.61,1.16-.83a4.88,4.88,0,0,1,.84-.52c.6-.3,1.18-.63,1.77-1a1.59,1.59,0,0,1,.43-.16,4.42,4.42,0,0,0,1.4-.67.41.41,0,0,0,.2-.19,5.9,5.9,0,0,1,1.46-.94c.46-.1.9-.26,1.35-.4.07,0,.11-.08.21,0a.41.41,0,0,0,.45,0,2.78,2.78,0,0,1,.57-.21.93.93,0,0,1,.38.07c.12,0,.25.32.24.36s.11.22.19.33a.37.37,0,0,1,.07.12,4.81,4.81,0,0,1-.77,1.19l-.71.53c-.36.27-.74.54-.82.61a.53.53,0,0,1-.28.1c-.05,0-1.13.83-1.19.85-.25.11-.46.31-.8.28a.25.25,0,0,0-.15.06,9.28,9.28,0,0,1-1.33.59c-.23.09-.44.22-.66.32a.7.7,0,0,1-.14,0,.47.47,0,0,0-.17,0c-.52.27-1.1.42-1.61.72-.12.07-.81.13-.95.2S385.75,83.52,385.69,83.58Z"/><path class="cls-1" d="M382.35,77.44c.07.21-.23.24-.75.15a2,2,0,0,1-.67-.29,2.36,2.36,0,0,1-.24-.38s0-.93,0-1.24a2.7,2.7,0,0,1,.14-.85c.17-.55.31-1.12.47-1.68a1,1,0,0,1,.17-.36,3.1,3.1,0,0,0,.51-1.25c0-.08.05-.14,0-.24a3.37,3.37,0,0,1,.4-1.46c.28-.33.51-.67.76-1,0,0,0-.12.14-.14s.25-.17.31-.28a2.14,2.14,0,0,1,.32-.44.91.91,0,0,1,.33-.14c.12,0,.39.13.42.17s.22.11.35.16l.13,0a5.58,5.58,0,0,1,.24,1.19l-.13.72a7.91,7.91,0,0,0-.12.84c0,.08-.08.15-.13.22s-.16,1.16-.19,1.2c-.09.21-.08.46-.34.62-.05,0-.05.08-.06.13a6,6,0,0,1-.45,1.12c-.08.19-.12.4-.18.59a.87.87,0,0,1-.08.1s-.07.07-.08.12a11,11,0,0,0-.45,1.41c0,.12-.42.56-.44.7S382.32,77.35,382.35,77.44Z"/><path class="cls-1" d="M357.36,305.38c-.17,0-.23-.2-.19-.5a.79.79,0,0,1,.22-.36,1.2,1.2,0,0,1,.29-.09,5.41,5.41,0,0,0,1,.09,5,5,0,0,1,.67,0,7.57,7.57,0,0,0,1.42-.06h.33a3.14,3.14,0,0,0,1.14-.14.42.42,0,0,0,.18-.08,5.57,5.57,0,0,1,1.26-.36c.36,0,.71-.05,1.08-.07,0,0,.1,0,.15,0a.45.45,0,0,0,.35,0,1.83,1.83,0,0,1,.47,0,.69.69,0,0,1,.25.09c.07,0,.07.2.06.22s0,.14,0,.2a.31.31,0,0,1,0,.08,7.45,7.45,0,0,1-.83.59s-.31.13-.63.24l-.72.26a.58.58,0,0,1-.23,0s-1,.35-1.06.35a1.34,1.34,0,0,1-.66.06.28.28,0,0,0-.13,0,5.43,5.43,0,0,1-1.14.1l-.6,0-.11,0-.13,0a10.17,10.17,0,0,1-1.44-.14,4.56,4.56,0,0,1-.73-.31C357.57,305.65,357.43,305.38,357.36,305.38Z"/></g></svg>