<svg xmlns="http://www.w3.org/2000/svg" width="520" height="520" viewBox="0 0 520 520"><defs><style>.cls-1{fill:#231f20;}</style></defs><title>Notioly New</title><g id="n.128_Hanging_Out" data-name="n.128 Hanging Out"><path class="cls-1" d="M381.17,395a18,18,0,0,0-.39-2.07,18.37,18.37,0,0,0-.58-2.05c-.14-.49-.39-.95-.57-1.44a25.8,25.8,0,0,0-2.52-4.9,23.52,23.52,0,0,0-1.49-2c-.68-.8-1.42-1.55-2.07-2.39-.41-.52.69-.41,1.58.44a24,24,0,0,1,4.07,5.2c.66,1.16,1.37,2.35,1.94,3.59.33.68.56,1.39.84,2.09s.43,1.44.65,2.16c.17.9.42,1.8.53,2.71.09.69.21,1.39.25,2.08s.08,1.39.15,2.08c0,1.07.21,2.14.19,3.22,0,.23,0,.47,0,.7,0,.89-.25,1.15-.83,1.26a2.76,2.76,0,0,1-.4.06c-.44,0-.77-.38-.86-1-.1-.92-.08-1.84-.14-2.77,0-.46,0-.93,0-1.4l-.05-1.4a20.94,20.94,0,0,0-.11-2.1c0-.35,0-.71-.1-1.06l-.17-1Z"/><path class="cls-1" d="M345.35,406.6l-15.88-.46-5.8-.09c-6.81-.19-13.61-.48-20.42-.63-3-.07-6.06-.11-9.05-.06-3.85.05-7.73.13-11.54,0a1.94,1.94,0,0,1-.59-.11l-.11-.08s0,0-.06-.08-.07-.13-.06-.1l.05.08v0a.09.09,0,0,1,0-.05.47.47,0,0,1,.12-.14,3.27,3.27,0,0,1,.57-.34,13.62,13.62,0,0,1,5.11-1c3.94-.12,7.88,0,11.82-.06s7.89,0,11.85.14c4.75.14,9.68,0,14.53.08l16,.2,9.85.16c5,.06,10,.16,14.9.13,3.83,0,7.59-.21,11.39-.34.83,0,1.65-.08,2.49-.09a16.25,16.25,0,0,1,3.31.15,2.87,2.87,0,0,1,1.47.78,4.86,4.86,0,0,1,.45.42c.15.21-.1.4-.66.67a6.93,6.93,0,0,1-2.6.57c-6.78.5-13.94.54-21.12.5-5.33,0-10.68-.13-16-.2Z"/><path class="cls-1" d="M335.76,381.83a17.47,17.47,0,0,1-1.75.35c-.58.11-1.17.15-1.76.22-.42.06-.85.09-1.28.11a22,22,0,0,1-4.51-.34c-.66-.09-1.31-.27-2-.39l-1.23-.37a7.28,7.28,0,0,1-1.16-.56c-.23-.14-.09-.32.2-.44a1.77,1.77,0,0,1,1.17-.05l1.18.3,1.2.22c.8.15,1.61.3,2.43.4a14.16,14.16,0,0,0,3,0,25,25,0,0,0,3.33-.51,19.61,19.61,0,0,0,2-.6,12.77,12.77,0,0,0,2.81-1.35,9.73,9.73,0,0,0,1.73-1.59c.11-.13.23-.24.33-.38.38-.49.59-.58,1-.48l.27.07c.27.11.29.47,0,.94l-.31.53-.38.47a6,6,0,0,1-.85.89,11.73,11.73,0,0,1-2.07,1.36,17.75,17.75,0,0,1-3.41,1.27Z"/><path class="cls-1" d="M323.22,367.13c-2.09-.3-4.15-.71-6.17-1.13-.74-.14-1.49-.24-2.21-.37s-1.28-.22-1.89-.27a4.22,4.22,0,0,0-1.63.11.93.93,0,0,0-.67.89,14.53,14.53,0,0,0-.12,1.89,18,18,0,0,0,.37,3.38,9.67,9.67,0,0,0,.65,2,6.8,6.8,0,0,0,.93,1.68c.25.27.17.54-.38.6a2.5,2.5,0,0,1-2.23-1.17,12.55,12.55,0,0,1-1.27-4.9,18.39,18.39,0,0,1,.08-2.46c0-.41.11-.83.19-1.26a3,3,0,0,1,.77-1.54,3.13,3.13,0,0,1,1.79-.84,8,8,0,0,1,1.61,0,22.74,22.74,0,0,1,2.93.39c2.06.41,4.08.88,6.12,1.22,1.25.21,2.51.37,3.77.47a29.73,29.73,0,0,0,5.74-.06,21.61,21.61,0,0,0,4.24-1c.3-.09.59-.22.89-.32,1.12-.38,1.52-.38,1.93,0a2.1,2.1,0,0,1,.27.2c.2.21-.12.77-1,1.19a21.61,21.61,0,0,1-8.33,1.78,39.26,39.26,0,0,1-6.42-.39Z"/><path class="cls-1" d="M245.37,397.59h-1.65l-1.65-.09c-.4,0-.81,0-1.21-.07a21.15,21.15,0,0,1-4.19-.95c-.61-.17-1.21-.43-1.82-.65a10.87,10.87,0,0,1-1.13-.57,3.5,3.5,0,0,1-.93-.91c-.16-.22.19-.47.64-.64s1-.31,1.24-.12A23.92,23.92,0,0,0,238.6,395a4.73,4.73,0,0,0,1.36.23c.46.05.94,0,1.41.05,1,.06,2.07.06,3.12.05.64,0,1.29-.05,1.93-.09a21.79,21.79,0,0,0,2.92-.38,11.21,11.21,0,0,0,1.08-.34,10,10,0,0,1,1-.39,3.53,3.53,0,0,1,.46-.15.89.89,0,0,1,1.09.44,2.22,2.22,0,0,1,.19.27c.18.31,0,.69-.37,1.07a8.18,8.18,0,0,1-4.14,1.53c-1.1.18-2.21.25-3.31.33Z"/><path class="cls-1" d="M108.84,128.76a10.31,10.31,0,0,0-1.18-1.82,7.27,7.27,0,0,0-.55-.56,8.88,8.88,0,0,0-2.18-1.81,5.47,5.47,0,0,0-1.17-.49,6.55,6.55,0,0,1-1.56-.42c-.16-.08-.09-.47.12-.83s.58-.68.94-.63a7.27,7.27,0,0,1,3.47,1.62c.58.5,1.25.91,1.81,1.44a12.45,12.45,0,0,1,1.61,1.95c.3.42.53.89.79,1.33.36.68.65,1.4,1,2.1.25.54.56,1.06.81,1.61a2.32,2.32,0,0,1,.13.37c.12.48,0,.66-.5.86a2.48,2.48,0,0,1-.35.13.88.88,0,0,1-1-.28,5.1,5.1,0,0,1-.75-1.28c-.22-.42-.35-.88-.55-1.32a16.3,16.3,0,0,0-.9-1.94Z"/><path class="cls-1" d="M113.25,125.4a7.8,7.8,0,0,0-.69,1.12c-.07.15-.09.31-.16.46a6.65,6.65,0,0,0-.5,1.7,3.38,3.38,0,0,0,0,.78,3.59,3.59,0,0,1,.16,1c0,.11-.27.19-.55.18a.73.73,0,0,1-.68-.36,4.38,4.38,0,0,1,0-2.41c.15-.46.18-.95.33-1.41a7.06,7.06,0,0,1,.67-1.45,7.29,7.29,0,0,1,.57-.8,6.2,6.2,0,0,1,1.06-1,5.09,5.09,0,0,1,1-.72,1,1,0,0,1,.25-.12c.33-.09.46,0,.57.3a1.72,1.72,0,0,1,.07.21.64.64,0,0,1-.17.61,11.2,11.2,0,0,0-1.12,1,5.66,5.66,0,0,0-.8.94Z"/><path class="cls-1" d="M400.82,390.28A25.7,25.7,0,0,0,400,387c-.14-.39-.36-.75-.49-1.15a34.3,34.3,0,0,0-1.77-4.12,11.46,11.46,0,0,0-1.07-1.69,7.87,7.87,0,0,1-1.41-2.17c-.18-.54,2-1.33,2.74-.57a14,14,0,0,1,2.82,4.72c.35,1.08,1,2,1.44,3.1a28.63,28.63,0,0,1,1.17,3.57c.18.76.37,1.5.5,2.26.11.57.19,1.14.25,1.72s.15,1.14.23,1.71c.16.88.33,1.74.43,2.62a5.49,5.49,0,0,1,0,.58c0,.72-.22,1-.75,1.11a2.42,2.42,0,0,1-.36.1c-.4.07-.76-.22-1-.71a16.9,16.9,0,0,1-1.33-4.45c-.13-.54-.21-1.1-.35-1.65s-.2-1.11-.34-1.66Z"/><path class="cls-1" d="M378.69,291.57a52.4,52.4,0,0,1-6.5,4.9,25,25,0,0,1-2.62,1.5,13.11,13.11,0,0,1-5.32,1.34,7.43,7.43,0,0,1-5.16-2,9.76,9.76,0,0,1-2.65-4,11.79,11.79,0,0,1-.49-6c.12-.61.41-.49.69,0a7.93,7.93,0,0,1,.69,2.48,9.38,9.38,0,0,0,1.82,4.9,11.13,11.13,0,0,0,.86,1,10.26,10.26,0,0,0,1,.78,5.63,5.63,0,0,0,2.29.93c2,.38,4.34-.56,6.37-1.65a39.39,39.39,0,0,0,6.44-4.49c1.25-1,2.48-2.13,3.66-3.25,1.8-1.71,3.58-3.47,5.25-5.29,1.31-1.41,2.49-2.88,3.73-4.33l.82-1c1.05-1.17,1.57-1.37,2.14-1.28a1.43,1.43,0,0,1,.38.07c.37.15.15.83-.52,1.76a103.28,103.28,0,0,1-7,8c-1.86,1.94-3.82,3.82-5.85,5.64Z"/><path class="cls-1" d="M236,429.91s-12.25,2.82-7,4.8,13.41,1,13.41,1Z"/><path class="cls-1" d="M78.75,395.73A37.27,37.27,0,0,1,80,392c.16-.45.32-.91.52-1.34a24.1,24.1,0,0,1,2.63-4.35c.42-.62.9-1.2,1.33-1.81.31-.37.62-.74.95-1.09a6.17,6.17,0,0,1,1.16-.87c.27-.16.48.17.55.64a1.77,1.77,0,0,1-.27,1.42c-1.12,1.37-2.23,2.72-3.29,4.23a15.71,15.71,0,0,0-1.49,3,34.46,34.46,0,0,0-1.29,3.53c-.22.74-.44,1.49-.6,2.25a27.19,27.19,0,0,0-.59,3.48,22.09,22.09,0,0,0,0,2.7,2.91,2.91,0,0,1,0,.59c0,.73-.2,1-.64,1.13-.1,0-.2.08-.29.1-.31.07-.62-.23-.77-.8a8.55,8.55,0,0,1-.27-2.57,26.05,26.05,0,0,1,.2-2.64,37.41,37.41,0,0,1,.79-3.9Z"/><path class="cls-1" d="M211.51,379a22.48,22.48,0,0,1-4.11,2.32c-.53.2-1,.45-1.58.64a24.93,24.93,0,0,1-5.88,1.12c-.88.09-1.76.11-2.63.16A15.64,15.64,0,0,1,194,383c-.35-.07-.28-.26,0-.46a3,3,0,0,1,1.48-.41c1.11-.07,2.21-.06,3.32-.12s2.2-.16,3.3-.3a15.1,15.1,0,0,0,2-.44c.64-.23,1.31-.4,1.92-.69a20.48,20.48,0,0,0,4-2.06,19.94,19.94,0,0,0,2.19-1.69l.79-.7.74-.76a13.83,13.83,0,0,0,1.37-1.59,28.9,28.9,0,0,0,1.75-2.7c.12-.21.23-.42.35-.62.45-.76.8-.88,1.11-.92l.23,0c.2,0,.18.43,0,1.1-.19.46-.39.93-.61,1.4s-.53.88-.81,1.32a14.24,14.24,0,0,1-.93,1.27c-.34.4-.66.84-1,1.22a23.87,23.87,0,0,1-3.56,3.17Z"/><path class="cls-1" d="M200.71,344.08a43.25,43.25,0,0,1-4,1.85c-.5.19-1,.43-1.49.61a39.55,39.55,0,0,1-5.5,1.39c-.82.16-1.64.33-2.46.46a13.66,13.66,0,0,1-3.19.25c-.33,0-.3-.31-.05-.64a2.32,2.32,0,0,1,1.31-.8c.51-.08,1-.18,1.53-.3s1-.18,1.54-.27c1-.22,2.06-.37,3.09-.6a9.52,9.52,0,0,0,1.85-.54c.61-.21,1.22-.45,1.81-.71s1.32-.53,2-.84,1.29-.61,1.92-.94c.78-.41,1.55-.84,2.3-1.31a32.23,32.23,0,0,0,3.29-2.29,29.87,29.87,0,0,0,2.23-2.13c.16-.16.3-.33.47-.49.62-.58.93-.64,1.4-.35a2.23,2.23,0,0,1,.33.2c.31.26.28.75-.12,1.24a22.7,22.7,0,0,1-4.35,3.89,41.06,41.06,0,0,1-3.81,2.36Z"/><path class="cls-1" d="M192.45,325.89a23.33,23.33,0,0,1-3.66,1.35c-.45.14-.9.27-1.36.37a23.34,23.34,0,0,1-4.91.47c-.37,0-.73,0-1.09,0h-1.08a13.35,13.35,0,0,1-2.74-.35c-.56-.12.26-.8,1.27-.87.46,0,.91-.1,1.36-.14s.89,0,1.34,0c.9,0,1.79-.05,2.7-.12a9,9,0,0,0,1.62-.23c.55-.1,1.08-.27,1.62-.41a23.27,23.27,0,0,0,3.44-1.18,21,21,0,0,0,2-1.05,13.84,13.84,0,0,0,2.68-2.06,9.17,9.17,0,0,0,1.45-2.1c.08-.17.15-.33.24-.49.28-.62.55-.71,1-.67a3.16,3.16,0,0,1,.32,0c.34.06.48.46.36,1.06a9.52,9.52,0,0,1-3.17,4.29,18.11,18.11,0,0,1-3.38,2.13Z"/><path class="cls-1" d="M146.84,314.42c-.18-1.28.33-1.48.07-1a2.19,2.19,0,0,0-.28,1.09,2.41,2.41,0,0,0,.72,1.67,2.65,2.65,0,0,0,3.22.13c1.42-.88,1.45-2.46,1-3.9a2,2,0,0,0-3.76,1c0,.18.11.37.15.55s0,.49,0-.13c0,.12-.06.33,0,0a1.22,1.22,0,0,1,.56-.9c-.16.09.44-.1.11-.06l-.41.08,1.9.51.15,1.83,0-.06a1.2,1.2,0,0,0,.24-.58,3.24,3.24,0,0,0,0-1.28,2,2,0,0,0-2.4-1.36,2,2,0,0,0-1.36,2.4Z"/><path class="cls-1" d="M153.64,329.75v-.66a1.95,1.95,0,0,0-3.9,0v.66a1.95,1.95,0,1,0,3.9,0Z"/><path class="cls-1" d="M349.2,200.3s-3.32,5.37-6.39,9.33-6.18,7.21-2.29,11.52c2.58,2.86,10.71,3.29,10.71,3.29l-1.74-9.34a10.77,10.77,0,0,1-.18-1.8Z"/><path class="cls-1" d="M404.85,236.79s22.79,23.45,47.17,16.83,30.55-33.06,28-56.75-9.35-86.79-60.8-70.32l-1.71.77s-22-19.23-49.31-11.55c0,0-20.12,3.38-28.17,23.94s-.94,41.8,12.26,38.44c0,0,18.32-10.62,20-14.84,0,0-4.07,11.27,3,13.63,8,2.68,17.57-11.8,19.19-15.36,0,0,.92-2.85,1.08.23s-2.44,19.73,2.15,21.52c8.89,3.46,19-12.22,21.83-10.64,0,0,1.41-1.64.59,6.95s-1.41,20.66,3.26,20.08c3.63-.46,6.87-4.85,12.08-4.38,8.51.76,9.5,26.95-8.77,23.71-6.83-1.21-7.66-2.49-7.66-2.49S411.68,232.31,404.85,236.79Z"/><path class="cls-1" d="M343.08,211.93a15.72,15.72,0,0,0-3,4.5,3.86,3.86,0,0,0-.15,1.55,3.43,3.43,0,0,0,.11.64,3.58,3.58,0,0,0,.24.48,2,2,0,0,0,.44.48,3.81,3.81,0,0,0,.61.48,15.79,15.79,0,0,0,3.31,1.51c1.06.39,2.2.65,3.31,1.06a13.67,13.67,0,0,1,2.14.92,4.73,4.73,0,0,1,1.81,1.72c.28.47-.18.61-.78.62-.31,0-.59,0-.95,0a2.41,2.41,0,0,1-.48-.07,1.68,1.68,0,0,1-.5-.13,37.58,37.58,0,0,0-3.92-1.2,22.61,22.61,0,0,1-4.39-1.68,7.86,7.86,0,0,1-2.68-2,5,5,0,0,1-1-3.47,8.19,8.19,0,0,1,1.11-3.37,19.7,19.7,0,0,1,1.83-2.65c.81-1,1.65-1.93,2.47-2.87a41.79,41.79,0,0,0,3.53-4.33,13.49,13.49,0,0,0,1.73-3.7c.06-.28.13-.55.19-.82.23-1,.4-1.29,1.07-1.5a4,4,0,0,1,.45-.15.59.59,0,0,1,.63.3,1.78,1.78,0,0,1,.29,1.15,10.38,10.38,0,0,1-1.12,4.27,19,19,0,0,1-2.3,3.64c-1.28,1.67-2.67,3.17-3.9,4.69Z"/><path class="cls-1" d="M147,272.12c.13-1.31.85-3.76,4.35-5.54a61.53,61.53,0,0,1-.91-22.12s-25.52,7.91-38.19-9.62c0,0-10.3-10.65-13.6-22.76,0,0-15.14,1.43-16.82-12.93,0,0-.57-10.88,9.11-10.75,0,0,7.95,7.71,10.91,5.68,0,0,.43-19,12.26-29.77,0,0,41.11,7.17,57.18-3.46,0,0,25.51-13.8,16.61-38.41,0,0-11.19-25.22-44.94-14.9,0,0-16.36,2.74-30.44,25.13,0,0-18.25-10.22-32.81-3.58S53.49,142.5,49.87,166s12.91,49.36,12.57,61.39,1.4,29.14-4.76,43.37-12,27.66,4.47,32.61c0,0,14.56-37.38,34.88-43.95,0,0,10.6-2.63,15.9,2.88s19.39,32.11,35.46,31.14c0,0,3.57-1.2,1.44-9.44l-2.71-10.48A3.89,3.89,0,0,1,147,272.12Z"/><path class="cls-1" d="M160.64,193l.28,8.27a1.79,1.79,0,0,1-.39,1.36,3.07,3.07,0,0,1-.25.26l-.11.12,0,0s0,.07-.08.13a2.18,2.18,0,0,0-.14.48c0,.21,0,.44-.07.68s0,.49,0,.66a7.86,7.86,0,0,0,.74,2.5l.62,1.35a5.63,5.63,0,0,1,.58,1.76c.06,1.9.07,3.74,0,5.62-.05,1.73-.12,3.46-.26,5.17-.09,1.1-.17,2.2-.31,3.29a23.62,23.62,0,0,1-.72,3.21c-.3.65-.49.53-.83-.1a6.75,6.75,0,0,1-.64-3c.19-2.19.36-4.36.47-6.53s.21-4.36.24-6.58v-.92a1.54,1.54,0,0,0-.15-.52c-.09-.24-.22-.51-.35-.77-.26-.54-.54-1.1-.8-1.69a10.17,10.17,0,0,1-.65-1.93,6.63,6.63,0,0,1-.12-1.12c0-.33,0-.66.06-1a4.19,4.19,0,0,1,.55-1.79c.05-.08.11-.15.17-.23a1.6,1.6,0,0,1,.13-.15l.09-.09a.3.3,0,0,0,.07-.24l-.34-6.08c-.12-1.84-.23-3.69-.39-5.53-.24-2.79-.51-5.59-1-8.31a49.1,49.1,0,0,0-1.55-6.16c-.13-.45-.3-.87-.45-1.3a11.74,11.74,0,0,1-.44-1.75,1.51,1.51,0,0,1,.24-1,3.94,3.94,0,0,1,.19-.36c.15-.27,1,.16,1.6,1.38a38.59,38.59,0,0,1,3.19,11.77c.42,3,.69,6.07.9,9.1Z"/><path class="cls-1" d="M124,244.82l-2.46-1.28-1.23-.65-1.14-.78-2.28-1.55c-.73-.55-1.4-1.18-2.1-1.76l-1.54-1.28c-.5-.44-.94-.93-1.41-1.4-.79-.86-1.61-1.69-2.38-2.57l-2.11-2.78-1.05-1.39-.91-1.47L103.58,225c-1.06-1.75-2-3.6-2.94-5.38a36.64,36.64,0,0,1-3-7.21c-.13-.82.11-.79.79-.33a8.25,8.25,0,0,1,2.36,2.68c.6,1.15,1,2.38,1.7,3.5s1.25,2.26,1.83,3.41c.31.57.56,1.17.89,1.73l1,1.66c.68,1.1,1.3,2.25,2,3.35.9,1.27,1.87,2.52,2.86,3.77s2.25,2.27,3.34,3.42c.64.59,1.34,1.12,2,1.68l1,.83a6.63,6.63,0,0,0,1,.79,32.32,32.32,0,0,0,15.18,6.07,18,18,0,0,0,2.43.24l2.43,0c1.26-.06,2.5-.22,3.73-.37s2.44-.45,3.63-.81c.52-.14,1-.31,1.56-.44a15,15,0,0,1,2.13-.45,1.77,1.77,0,0,1,1.12.28,2.71,2.71,0,0,1,.39.22c.28.18-.33,1-1.79,1.63a30.38,30.38,0,0,1-14.4,2.28A36.67,36.67,0,0,1,124,244.88Z"/><path class="cls-1" d="M82.44,191.51a11.73,11.73,0,0,1,2.75-2.79,8.2,8.2,0,0,1,7.85-.88,11.74,11.74,0,0,1,3.25,2c.33.29.72.6,1,.91s.57.56.85.81a8.67,8.67,0,0,0,1.69,1.2,2.84,2.84,0,0,0,.9.31,1.27,1.27,0,0,0,.39,0l.18-.05c.09,0,.1-.14.13-.22s.08-.36.13-.64c.1-.58.18-1.18.26-1.78.17-1.2.35-2.41.57-3.61a56.71,56.71,0,0,1,1.74-7.14,47.73,47.73,0,0,1,2.93-7.28,32.06,32.06,0,0,1,2.62-4.3,17.73,17.73,0,0,1,3.47-3.66c.83-.65,1-.27.66.64-.16.46-.4,1.06-.71,1.75a16.36,16.36,0,0,1-1.3,2.11,46.41,46.41,0,0,0-7.33,17.88c-.25,1.2-.44,2.42-.59,3.66-.08.62-.16,1.24-.21,1.89l-.06.49,0,.27-.06.39a2.56,2.56,0,0,1-.23.74,2.18,2.18,0,0,1-.22.31c0,.15-.18.18-.26.27a4.08,4.08,0,0,1-.91.46,3.49,3.49,0,0,1-.87.19,4.11,4.11,0,0,1-1.62-.19A7.57,7.57,0,0,1,97,193.85c-.48-.39-.92-.81-1.34-1.22a14.13,14.13,0,0,0-1.17-1,9.69,9.69,0,0,0-2.63-1.44,5.64,5.64,0,0,0-5.45.9A9.92,9.92,0,0,0,83.91,194a7.53,7.53,0,0,0-.8,1.71c-.08.31-.18.61-.25.92l-.13,1a11.28,11.28,0,0,0,.91,5.79,10,10,0,0,0,3.86,4.35A17.93,17.93,0,0,0,96.34,210c.69,0,1.37,0,2.06,0a23.51,23.51,0,0,1,2.76.1,3.45,3.45,0,0,1,1.28.54,4.1,4.1,0,0,1,.41.28c.14.16,0,.32-.52.53a7.72,7.72,0,0,1-2.21.66L99,212.3l-1.14.06-2.3.06a24.29,24.29,0,0,1-4.72-.67l-1.19-.3L88.49,211l-1.16-.49c-.38-.19-.74-.43-1.11-.65s-.74-.44-1.09-.71l-1-.88a12.29,12.29,0,0,1-1.74-2,13.15,13.15,0,0,1-2.3-7.37,14,14,0,0,1,.5-3.89,6.4,6.4,0,0,1,.35-1l.2-.5.23-.42.46-.83.53-.8Z"/><path class="cls-1" d="M175.76,108.05a33.24,33.24,0,0,1,6.65,4.65,34.28,34.28,0,0,1,2.87,2.91,32.1,32.1,0,0,1,2.41,3.3,24.68,24.68,0,0,1,3.17,7.56,25.12,25.12,0,0,1,.44,8.15,29.89,29.89,0,0,1-1.21,5.8,33.34,33.34,0,0,1-2.3,5.39,40.65,40.65,0,0,1-13.94,14.74c-5.77,3.71-12.45,5.5-19.06,6.49a101.62,101.62,0,0,1-17.76.63,178.73,178.73,0,0,1-22.43-2.49c-2.29-.5-1.94-.75.08-1a32.48,32.48,0,0,1,4.15-.21,46.09,46.09,0,0,1,5.84.31,150.09,150.09,0,0,0,22.68,1.1A72.06,72.06,0,0,0,158.52,164a46.81,46.81,0,0,0,10.64-3.46,36.87,36.87,0,0,0,18.09-19.72,23.48,23.48,0,0,0,.86-14.57,22.35,22.35,0,0,0-3.15-6.68c-.32-.53-.74-1-1.11-1.49a13.92,13.92,0,0,0-1.23-1.42c-.44-.44-.84-.92-1.32-1.33l-1.4-1.25A36.07,36.07,0,0,0,163,106.62,43,43,0,0,0,156,106a39.76,39.76,0,0,0-7.06.71,44.33,44.33,0,0,0-13.23,5A62.14,62.14,0,0,0,119.19,126l-1.52,1.85-1.46,1.9c-.47.58-.86,1.14-1.24,1.65l-1.06,1.35c-.64.83-1.15,1.5-1.61,2a10.92,10.92,0,0,1-2.12,2c-.27.18-.59.44-.78.53s-.24-.36.18-1.41c.21-.52.49-1.19.88-2s.9-1.63,1.49-2.6a71.42,71.42,0,0,1,13.5-15.55,56.82,56.82,0,0,1,8.71-6.18,47.31,47.31,0,0,1,9.91-4.39,40.88,40.88,0,0,1,16.12-1.75,46.31,46.31,0,0,1,8,1.48,41.71,41.71,0,0,1,7.58,3Z"/><path class="cls-1" d="M59.56,220.33c-.31-1.42-.79-2.78-1.19-4.18s-.95-2.72-1.44-4.09c-1.06-2.77-2.11-5.54-3.07-8.36a110.52,110.52,0,0,1-4.65-17.27,68.08,68.08,0,0,1-1.13-13.07,57.75,57.75,0,0,1,5-22.5,49.49,49.49,0,0,1,5.89-10,39,39,0,0,1,8.37-8.05,40.26,40.26,0,0,1,19.16-7.09,44.1,44.1,0,0,1,13.12.63,31.87,31.87,0,0,1,6.31,2,18.48,18.48,0,0,1,5.63,3.55,5.27,5.27,0,0,1,1,1.19c.17.28.2.43.13.46s-.27,0-.55-.2a11.3,11.3,0,0,0-1.16-.68c-2-1.14-5.81-2.36-10.42-3.37a38.44,38.44,0,0,0-6.23-1c-1-.1-2.1-.09-3.16-.13s-2.1,0-3.15.12a39,39,0,0,0-12.24,2.73,37.89,37.89,0,0,0-18.56,16.64,52.11,52.11,0,0,0-5.58,14.68,58.32,58.32,0,0,0-1.18,15.87,83.14,83.14,0,0,0,3.12,17.3c1.61,5.68,3.65,11.22,5.77,16.79A75.83,75.83,0,0,1,63.88,234a92.93,92.93,0,0,1-4.24,33c-1.22,4.14-2.86,8.08-4.19,12s-2.49,8-2.46,12a12.65,12.65,0,0,0,1,5,9.7,9.7,0,0,0,2.31,3.19,17.68,17.68,0,0,0,2.2,1.69c.64.42,1.14.76,1.59,1s.76.57,1.07.8.68.46.84.62-.29.25-1.59.05A12.52,12.52,0,0,1,55,300.77a11.52,11.52,0,0,1-3.53-5.15,15.92,15.92,0,0,1-.71-6.18,44.59,44.59,0,0,1,2.77-11.74c1.32-3.77,2.83-7.38,3.95-11.13a103.18,103.18,0,0,0,2.85-11.43c2.1-11.47,2.16-23.46-.78-34.78Z"/><path class="cls-1" d="M172.77,227.91c.13-1,.31-2.1.34-3.13l0-.77,0-.39a.88.88,0,0,0,0-.22,6.68,6.68,0,0,0-.33-1.32,41.15,41.15,0,0,0-2.6-5.74c-.74-1.38-1.57-2.7-2.37-4.05a65.23,65.23,0,0,0-4.55-6.86c-.42-.54-.86-1.05-1.31-1.54q-.33-.36-.69-.69a6,6,0,0,0-.65-.51.65.65,0,0,0-.42-.14.76.76,0,0,0-.34.27,2.2,2.2,0,0,0-.43,1.45,8.32,8.32,0,0,0,.95,3.26c.5,1.08,1.12,2.14,1.74,3.2a44.66,44.66,0,0,1,2.29,4.21,8.17,8.17,0,0,1,1,4.87c-.11.54-.29.74-.36.69s-.12-.33-.23-.73a5.29,5.29,0,0,0-.65-1.53l-1.11-2a94.61,94.61,0,0,1-4.81-8.45,10.79,10.79,0,0,1-.8-2.63,4,4,0,0,1,.82-3.61,1.75,1.75,0,0,1,.39-.42,3.28,3.28,0,0,1,.89-.61,2.5,2.5,0,0,1,2.06.37,4.62,4.62,0,0,1,.67.47c.19.15.36.31.52.46.33.32.62.64.91,1,1.33,1.55,2.53,3.17,3.71,4.82s2.29,3.35,3.3,5.09c1.11,1.92,2.15,3.87,3.08,5.9a26.78,26.78,0,0,1,1.25,3.17,6.42,6.42,0,0,1,.35,1.88l-.09,1.7a67.77,67.77,0,0,1-1.26,8.09c-.84,4-1.9,8-2.84,11.92-.73,3.06-1.33,6.09-1.87,9.13-.12.67-.21,1.33-.31,2-.43,2.49-.57,3.21-1.18,3.73a2.18,2.18,0,0,1-.41.35c-.23.13-.42-.07-.56-.56a5.88,5.88,0,0,1-.17-1c0-.37,0-.81,0-1.29a59.74,59.74,0,0,1,1.35-8.56c.62-2.84,1.32-5.7,2-8.55,1-4.23,2-8.48,2.63-12.71Z"/><path class="cls-1" d="M156.28,286.77c-1.56-5.26-3-10.56-4.32-15.91-.47-2-1-3.9-1.36-5.88a91,91,0,0,1-1.52-10.56c-.09-.89-.1-1.79-.15-2.69s0-1.79,0-2.7a21.19,21.19,0,0,1,.85-5.4,30.49,30.49,0,0,1,1.75-4.49,38.45,38.45,0,0,1,2.29-4.18,31.16,31.16,0,0,1,3.72-4.88,13.28,13.28,0,0,1,2.37-2,9.4,9.4,0,0,1,2.89-1.38c1.39-.28,1.16.23.33.93s-2,2.07-3.45,3.61a33.9,33.9,0,0,0-6.45,9.62,23.8,23.8,0,0,0-1.83,5.43,32.24,32.24,0,0,0-.4,5.86,48.22,48.22,0,0,0,.71,7.3c.39,2.46.91,4.92,1.44,7.35,1.17,5.35,2.6,10.67,4.13,15.95,1,3.25,1.93,6.5,3,9.72,1.56,4.89,3.16,9.8,4.84,14.61,1.31,3.75,2.72,7.37,4.06,11.06.3.82.59,1.61.88,2.43a23.8,23.8,0,0,1,.9,3.32,4,4,0,0,1-.07,1.62,3.88,3.88,0,0,1-.15.53c-.11.19-.33,0-.66-.51a13.48,13.48,0,0,1-1.23-2.42c-2.62-6.49-5.08-13.45-7.49-20.48-1.79-5.22-3.49-10.5-5.13-15.79Z"/><path class="cls-1" d="M187.15,300.38l-4.47-8.4c-.54-1-1.14-2-1.67-3.05q-2.83-5.43-5.53-10.95c-.81-1.62-1.61-3.27-2.38-4.9-1-2.12-2.06-4.21-2.26-6.72,0-.83.33-.64.74-.1a13.37,13.37,0,0,1,1.66,2.55c.95,2.07,2,4.14,3.12,6.21s2.07,4.21,3.09,6.35c1.21,2.57,2.74,5.09,4.14,7.64l4.57,8.43,2.81,5.19c1.42,2.61,2.82,5.27,4.26,7.85,1.12,2,2.33,3.93,3.47,5.91.25.43.51.85.75,1.3.86,1.67.94,2.31.56,2.93a2.48,2.48,0,0,1-.22.4c-.24.32-1-.15-1.77-1.3-2.21-3.4-4.25-7.14-6.32-10.89l-4.6-8.41Z"/><path class="cls-1" d="M184.52,329.06a76.9,76.9,0,0,1-10.19-.08c-1.23-.08-2.46-.11-3.68-.23-.44,0-.93-.07-1.33-.14a.59.59,0,0,0-.39.16,3.31,3.31,0,0,0-.52.91,11.07,11.07,0,0,0-.64,2.55,19.32,19.32,0,0,0-.2,2.74,8.34,8.34,0,0,0,.08,1.33,12.48,12.48,0,0,0,.26,1.33,13.32,13.32,0,0,0,2.32,4.86,12.89,12.89,0,0,0,5.32,4c.64.27.48.76-.31,1.06a4.07,4.07,0,0,1-3.57-.61,14.55,14.55,0,0,1-5-6.36,16.37,16.37,0,0,1-1.09-3.9,15.52,15.52,0,0,1,.06-4,19.76,19.76,0,0,1,.69-3.35,6.13,6.13,0,0,1,.87-1.76,2,2,0,0,1,.4-.44,1.78,1.78,0,0,1,.55-.39,2.43,2.43,0,0,1,1.3-.28c1,0,1.83.1,2.75.16a94.79,94.79,0,0,0,10,.22c1-.06,2-.09,3-.23.5-.06,1-.1,1.51-.18l1.48-.27a19.3,19.3,0,0,0,8.25-3.53,16.33,16.33,0,0,0,4.12-5.38c.2-.46.37-.92.59-1.38a11.12,11.12,0,0,0,.48-1.08,4.24,4.24,0,0,1,.39-.72,1.44,1.44,0,0,1,.93-.63,2.68,2.68,0,0,1,.53-.12c.55,0,.67.86.28,2.33a9.61,9.61,0,0,1-.56,1.61c-.22.53-.42,1.08-.69,1.6a17.88,17.88,0,0,1-2,3,17.26,17.26,0,0,1-2.58,2.62l-1.51,1.07a18.26,18.26,0,0,1-1.61.9,27.93,27.93,0,0,1-10.3,2.68Z"/><path class="cls-1" d="M199.48,341.07a36.39,36.39,0,0,0,7-4.35,18.38,18.38,0,0,0,2.06-2.08,11.52,11.52,0,0,0,2.43-4.37,11.2,11.2,0,0,0,.07-5.09,17,17,0,0,0-1.61-4.38,29.6,29.6,0,0,0-1.54-2.6,13.33,13.33,0,0,1-.8-1.3c-.26-.44-.55-.87-.83-1.3s-.12-.61.43-.36a5.62,5.62,0,0,1,1,.64c.2.14.43.3.64.48l.34.29a3.3,3.3,0,0,1,.28.35,25.26,25.26,0,0,1,1.82,2.72,15.06,15.06,0,0,1,1.41,3,13.77,13.77,0,0,1,.72,6.72,14.06,14.06,0,0,1-3.7,7.35,29,29,0,0,1-7.08,5.21,49.65,49.65,0,0,1-4.81,2.34,47.82,47.82,0,0,1-7.68,2.5,57.49,57.49,0,0,1-6.08,1.25c-.45.06-.89.13-1.35.18-1.7.12-2.25,0-2.61-.6a2.06,2.06,0,0,1-.24-.39c-.16-.45.52-.81,1.7-1a73.8,73.8,0,0,0,10.73-2.2,45.83,45.83,0,0,0,7.68-3.09Z"/><path class="cls-1" d="M214.45,374.9a13.7,13.7,0,0,0,3-9c0-.61-.1-1.22-.15-1.83l-.28-1.84a75.22,75.22,0,0,0-3.71-12.93c-.67-1.9-1.43-3.78-2.16-5.66a43.24,43.24,0,0,1-2.31-7.43c-.16-.8.12-.76.61-.19a13.48,13.48,0,0,1,1.82,3c1.08,2.37,2.1,4.77,3.1,7.21a94.89,94.89,0,0,1,5.14,17.12,17.62,17.62,0,0,1-1.71,11,17.23,17.23,0,0,1-4.58,5.17,24.62,24.62,0,0,1-9.4,4.05c-1.28.34-2.57.49-3.86.74-.64.08-1.29.12-1.94.19a15.92,15.92,0,0,1-1.95.1c-.57,0-1.13,0-1.71,0-2.14-.15-2.8-.51-3.16-1.17a2,2,0,0,1-.24-.46c-.13-.49.76-.83,2.26-.9a47.33,47.33,0,0,0,13.22-1.91,17.28,17.28,0,0,0,8-5.31Z"/><path class="cls-1" d="M175.15,366.32c-.36-1.12-.65-2.26-.94-3.39-.09-.41-.25-.81-.33-1.23-.25-1.49-.44-3-.58-4.47-.06-.66-.18-1.31-.24-2a9.32,9.32,0,0,1,0-2.53c0-.27.32-.24.64,0a1.79,1.79,0,0,1,.79,1c.18.81.41,1.6.53,2.42s.22,1.63.3,2.47a16.4,16.4,0,0,0,.73,3c.27,1.1.58,2.18.92,3.25.22.66.44,1.33.7,2a21.88,21.88,0,0,0,1.3,2.87,23,23,0,0,0,1.39,2c.11.14.22.26.32.41a.89.89,0,0,1,0,1.23l-.21.27c-.25.26-.67.21-1.13-.09a4.85,4.85,0,0,1-.89-.8,9.73,9.73,0,0,1-.77-.91,13.33,13.33,0,0,1-1.19-2.08,34.64,34.64,0,0,1-1.33-3.31Z"/><path class="cls-1" d="M56.71,312.27c2.58-6,5.3-12,8.3-17.92a153.28,153.28,0,0,1,10-17.12,72,72,0,0,1,9.22-11.29,32.89,32.89,0,0,1,10.87-7.23,17.77,17.77,0,0,1,6.66-1,23.65,23.65,0,0,1,6.53,1.11,21.66,21.66,0,0,1,3.09,1.24,16.13,16.13,0,0,1,1.47.81l.36.22a3.35,3.35,0,0,1,.49.34,5,5,0,0,1,.4.49l.24.38c1.11,1.82,2.18,3.59,3.32,5.35A104.82,104.82,0,0,0,125,277.77a56.94,56.94,0,0,0,7.76,7.84,31.15,31.15,0,0,0,4.46,3.09,20.23,20.23,0,0,0,4.87,2.09c.53.16,1.09.24,1.63.36s1.1.13,1.64.17,1.14,0,1.61,0a2.48,2.48,0,0,0,1.16-.38,2.63,2.63,0,0,0,.78-2.25,17.86,17.86,0,0,0-.42-3.3c-.47-2.27-1.09-4.59-1.56-7a29.06,29.06,0,0,1-.53-3.66,12.31,12.31,0,0,1,.34-3.8c.43-1.61,1.08-2.11,1.18-2s-.09.91-.06,2.13c.06,2.51,1.79,6.5,3.29,11.89a30.59,30.59,0,0,1,.77,3.79,9.36,9.36,0,0,1-.33,4.6,4.8,4.8,0,0,1-2,2.33,6.1,6.1,0,0,1-2.61.74c-.71,0-1.4,0-2.09,0a17,17,0,0,1-2-.27,22.72,22.72,0,0,1-7.38-3,39.5,39.5,0,0,1-6.09-4.65,74.6,74.6,0,0,1-9.82-11.32q-2.16-3-4.14-6.18c-.65-1.05-1.29-2.1-1.93-3.17l-.93-1.59-.46-.77-.1-.16s0-.05-.09-.08a19.48,19.48,0,0,0-7.73-2.9,16.89,16.89,0,0,0-8.28.63,27.88,27.88,0,0,0-7.41,4.42,51,51,0,0,0-6.27,6.2,104,104,0,0,0-11.1,16.12c-3.27,5.7-6.2,11.6-9,17.58-3.38,7.37-6.48,14.87-9.42,22.43a317.55,317.55,0,0,0-11.78,34.86,112.63,112.63,0,0,0-2.73,13.78A55.1,55.1,0,0,0,38,390.17,29,29,0,0,0,39.36,396a17.69,17.69,0,0,0,4.18,6.47c.31.29.56.58.82.8s.5.42.71.62l.56.54c.19.16.35.31.5.46a10.19,10.19,0,0,1,.81.82c.25.35-.36.25-1.73-.29A13.87,13.87,0,0,1,40,401.12a18.8,18.8,0,0,1-3-5.93,30.82,30.82,0,0,1-1.25-6.51,60.58,60.58,0,0,1,.52-13.25,160.15,160.15,0,0,1,6.38-25.91c2-6.31,4.29-12.55,6.62-18.76s4.77-12.38,7.35-18.5Z"/><path class="cls-1" d="M73.1,356.07q1.08-2.26,2.26-4.47c.28-.54.52-1.09.82-1.62,1-1.87,2.18-3.68,3.33-5.47.5-.81,1-1.62,1.44-2.44a16.72,16.72,0,0,1,2-3c.25-.28.52-.05.66.41a2.43,2.43,0,0,1-.15,1.77c-1.16,2.13-2.41,4.2-3.75,6.26a39.13,39.13,0,0,0-2.12,3.94c-.75,1.47-1.49,2.94-2.17,4.44-.42.92-.83,1.84-1.2,2.78-.57,1.42-1.11,2.86-1.54,4.32-.3,1.14-.46,2.29-.65,3.43l-.1.76c-.16.93-.36,1.2-.91,1.32a2.45,2.45,0,0,1-.37.08c-.41,0-.67-.42-.67-1.16a20.67,20.67,0,0,1,1.21-6.62c.53-1.61,1.2-3.18,1.88-4.72Z"/><path class="cls-1" d="M88.91,384.09a15.55,15.55,0,0,1-2.84-.36c-1.25-.16-2.46-.36-2.68-.39s-1.82-.37-2-.37l-1.28-.26c-.65-.13-1.36-.27-1.58-.29s-1.66-.31-3.28-.53a31.16,31.16,0,0,0-3.67-.36c-.5,0-3.26-.2-3.82-.2-.19,0-.25-.75-.1-.82a6.72,6.72,0,0,1,2-.29c1,0,4.54.08,4.69.09h2.09l1,0,2.71.14c.85,0,1.7.07,2.55.15,1.23.13,2.46.33,3.68.58.7.14,1.4.26,2.09.42l.3.09.28.16.57.32c.29.14.38.56.44.93,0,.22-.19.4-.45.6A1.89,1.89,0,0,1,88.91,384.09Z"/><path class="cls-1" d="M136,389.57a64.23,64.23,0,0,0,6.72-.23c2.28-.16,4.57-.36,6.87-.56,1.67-.15,3.34-.38,5-.52,3-.25,5.92-.47,8.9-.63a51.94,51.94,0,0,1,9.07.07,24,24,0,0,1,7.63,2.83,38.19,38.19,0,0,1,4.35,2.72,42,42,0,0,1,3.85,3.31c.75.74.44.9-.5.66a16.41,16.41,0,0,1-4.17-1.78c-.74-.42-1.44-.87-2.13-1.33s-1.4-.87-2.12-1.28a28.7,28.7,0,0,0-4.39-2.07,15.11,15.11,0,0,0-2.25-.64,15.37,15.37,0,0,0-2.33-.26c-1.62-.08-3.34-.07-5-.06-4.09.06-8.35.61-12.55,1-4.63.42-9.25.88-13.94,1.11-.72,0-1.45,0-2.18,0s-1.5-.05-2.22-.13c-1.45-.15-2.87-.35-4.29-.57-4.31-.67-8.57-1.55-12.8-2.34-3.29-.61-6.53-1.1-9.78-1.67-.72-.12-1.43-.21-2.14-.39-2.65-.61-3.46-.95-3.92-1.6a2.49,2.49,0,0,1-.31-.42c-.18-.4,1-.57,3-.36,3,.23,5.94.81,9,1.32l9.13,1.69c2.28.41,4.55.83,6.82,1.2s4.57.72,6.76.84Z"/><path class="cls-1" d="M178.94,397.06c-.63-.37-1.26-.74-1.9-1.07a10.07,10.07,0,0,0-1.84-.8c-.46-.12-1-.15-1.52-.24a53.52,53.52,0,0,0-5.69-.64c-.85,0-1.71-.07-2.55,0-1.07,0-2.17.15-3.15.14-.29,0-.41-.27-.2-.67a2,2,0,0,1,1.4-1,27,27,0,0,1,3.44-.33,24.38,24.38,0,0,1,3.41.28c1.36.21,2.78.19,4.2.4.39.06.78.13,1.21.23a6.68,6.68,0,0,1,1.19.45c.74.33,1.41.71,2.09,1.09s1.63,1,2.42,1.48c1.21.76,2.38,1.59,3.55,2.4.92.62,1.85,1.19,2.75,1.89a6.28,6.28,0,0,1,.58.47c.72.64.7,1.12.46,1.51a1.92,1.92,0,0,1-.18.28c-.24.25-.69.15-1.21-.15-1.43-1-3.07-2.16-4.71-3.26-1.23-.82-2.49-1.62-3.77-2.34Z"/><path class="cls-1" d="M166.87,402.61a27.81,27.81,0,0,1,5.8.6c.48.11,1,.28,1.43.41l1.31.42c.87.27,1.75.53,2.63.76,1.29.34,2.59.58,3.86.79.34.06.68.1,1,.14l.62,0c.18,0,.5,0,.57-.23a.58.58,0,0,0-.2-.32l-.15-.14-.08-.07-.2-.16c-.64-.47-1.31-.92-2-1.34a42.52,42.52,0,0,0-4.31-2.31,12,12,0,0,0-1.42-.57,2.44,2.44,0,0,0-.33-.1,2.32,2.32,0,0,0-.32-.06c-.31,0-.56-.09-.83-.14l-3.11-.69-3.95-.85c-1.31-.28-2.63-.65-3.87-.85a1.16,1.16,0,0,1-.37-.1.23.23,0,0,1-.14-.17c0-.11.14-.35.53-.49a7.62,7.62,0,0,1,3.74-.25c2.72.5,5.46,1.2,8,1.71a6.73,6.73,0,0,1,1.17.25c.37.13.71.26,1.05.4.67.28,1.31.59,1.95.9a39.93,39.93,0,0,1,3.69,2.12c.63.41,1.17.77,1.87,1.29a6.62,6.62,0,0,1,1.28,1.18,2.41,2.41,0,0,1,.53,1.3,2.08,2.08,0,0,1-1.32,1.4,5.31,5.31,0,0,1-1.11.24l-.61,0h-.51a19,19,0,0,1-3.06-.38,56.47,56.47,0,0,1-5.52-1.41l-1.35-.41c-.41-.13-.84-.24-1.27-.33a17.77,17.77,0,0,0-2.65-.33c-1.08-.07-2.19-.07-3.3-.09l-1.68,0-1.61-.06a.2.2,0,0,0-.11,0,9.39,9.39,0,0,0-1,.5l-1.18.61c-.8.39-1.62.76-2.46,1.07a23.68,23.68,0,0,1-5.17,1.4,20.71,20.71,0,0,1-8.26-.18,9.91,9.91,0,0,1-1.77-.5,14.49,14.49,0,0,1-1.35-.54,5.75,5.75,0,0,1-.82-.56,1.57,1.57,0,0,1-.65-1,2.43,2.43,0,0,1-.06-.51c.06-.5,1.05-.46,2.44.12A22,22,0,0,0,149,406.3a20.77,20.77,0,0,0,6.81-1.05,27.23,27.23,0,0,0,3-1.21c.49-.23,1-.47,1.49-.73l.77-.42.23-.12a1.22,1.22,0,0,1,.39-.15l.41-.09c.12-.12.27-.06.41-.1l1.2.06,1,0,2.12,0Z"/><path class="cls-1" d="M99.76,409.11l-4.37,0-2.15,0c-.65,0-1.33.07-2,.12a28.89,28.89,0,0,1-4.56.24,19.52,19.52,0,0,1-4.58-.83A10.46,10.46,0,0,0,79.3,408H76.12q-11.22-.21-22.42-.27c-3.31,0-6.65,0-9.94.07-4.22.07-8.47.24-12.69.05-2.63-.11.79-2,5.65-2.14,8.62-.14,17.22-.17,25.91,0,5.19.14,10.6-.08,15.92-.11h1.16a7.93,7.93,0,0,1,1.26.19c.78.17,1.47.39,2.16.56a15.78,15.78,0,0,0,4.06.57,41.86,41.86,0,0,0,4.26-.37,19.48,19.48,0,0,1,2.3-.1h2.19q5.4,0,10.79,0c5.45,0,10.93-.08,16.34-.23,4.21-.11,8.33-.39,12.49-.57.92-.05,1.81-.11,2.74-.14,3.43-.09,4.52.09,5.26.81a3.77,3.77,0,0,1,.49.49c.33.56-1.06,1-3.56,1.22-7.42.56-15.25.8-23.13,1-5.85.11-11.72.14-17.6.16Z"/><path class="cls-1" d="M78.84,398.66a37,37,0,0,1,3.83-8.86,33.48,33.48,0,0,1,1.83-3,39.7,39.7,0,0,1,3.93-4.74c.72-.73,1.47-1.44,2.24-2.12a9.47,9.47,0,0,1,2.85-1.69,12.54,12.54,0,0,1,5.67-.61,13.2,13.2,0,0,1,6.59,2.52c.59.45.23.79-.53.93a6.89,6.89,0,0,1-3-.21,15.2,15.2,0,0,0-6-.77,7.33,7.33,0,0,0-3.89,1.61c-.42.37-.85.72-1.27,1.1a32.38,32.38,0,0,0-5.19,6.4,37.55,37.55,0,0,0-4.09,8.13,26.91,26.91,0,0,0-1.33,5.43l-.13,1.06-.06,1.05a2.82,2.82,0,0,0,0,.77,1,1,0,0,0,.43.43,11.2,11.2,0,0,0,3.88,1.15,24.57,24.57,0,0,0,6.47-.08l1.37-.23c1.7-.29,2.18-.37,2.75,0a2.94,2.94,0,0,1,.39.26c.36.3-.22,1.05-1.6,1.54a18.47,18.47,0,0,1-6.36,1,21.82,21.82,0,0,1-6.66-1,8,8,0,0,1-1.34-.59,4.52,4.52,0,0,1-.86-.63,2.9,2.9,0,0,1-.67-.93,1.71,1.71,0,0,1-.14-.55,1.48,1.48,0,0,1-.06-.55l0-.76c0-.41,0-.83.06-1.25a29.71,29.71,0,0,1,.88-4.88Z"/><path class="cls-1" d="M96,397.48c.51-1.27,1.08-2.51,1.69-3.72.22-.44.4-.9.64-1.34a27.11,27.11,0,0,1,3-4.32c.51-.6,1-1.2,1.59-1.77a4.8,4.8,0,0,1,1.28-1,2.49,2.49,0,0,1,1.73-.29c.39.09.22.42,0,.78s-.41.85-.69,1.06a19,19,0,0,0-1.73,1.74c-.59.67-1.14,1.41-1.76,2.14a16.2,16.2,0,0,0-1.76,3c-.59,1.16-1.15,2.34-1.64,3.54-.3.75-.59,1.5-.82,2.26a18.29,18.29,0,0,0-.81,3.52,8.65,8.65,0,0,0,.19,2.62c0,.18.08.35.12.5a1.34,1.34,0,0,1-.27,1.2l-.14.25c-.09.11-.22.15-.44.09a1.32,1.32,0,0,1-.76-.51,4.92,4.92,0,0,1-.9-2.93,13.66,13.66,0,0,1,.28-2.88,26.82,26.82,0,0,1,1.17-4Z"/><path class="cls-1" d="M153.55,310.34a6.08,6.08,0,0,1-.62,4.52,5,5,0,0,1-1,1.33,4.47,4.47,0,0,1-2.79,1.15,3.21,3.21,0,0,1-2.64-1.52,5.28,5.28,0,0,1-.79-2.27,3.81,3.81,0,0,1,.68-2.89c.2-.26.43,0,.63.33a5.1,5.1,0,0,1,.26.58,1.4,1.4,0,0,1,.13.61,4.22,4.22,0,0,0,.46,1.95,4.55,4.55,0,0,0,.42.76,1.66,1.66,0,0,0,.51.45c.48.28,1.37-.32,1.9-1a3.88,3.88,0,0,0,.24-4.46c-.53-.76-1.24-1.05-1.91-.46a4.24,4.24,0,0,0-1.07,2c-.06.16-.08.35-.15.51a1.22,1.22,0,0,1-.42.6,1.55,1.55,0,0,1-.68.12c-.11,0-.23,0-.32,0a.58.58,0,0,1-.42-.3,1.15,1.15,0,0,1-.25-.75,5.79,5.79,0,0,1,.78-2.65,4.89,4.89,0,0,1,1.07-1.32,3.68,3.68,0,0,1,2-.82,3.37,3.37,0,0,1,1.71.35,4.13,4.13,0,0,1,1.18.92,5.53,5.53,0,0,1,1.18,2.24Z"/><path class="cls-1" d="M154.22,331.22l-.25.38-.33.36a3.2,3.2,0,0,1-.79.61,4.39,4.39,0,0,1-.94.34,3.63,3.63,0,0,1-1,0,2.49,2.49,0,0,1-1.43-.6,3.19,3.19,0,0,1-1-2,6.13,6.13,0,0,1,0-1.87,9.71,9.71,0,0,1,.35-1.58,2.33,2.33,0,0,1,1.46-1.71c.26-.08.37.39.48.87.06.24.13.48.18.64s.11.33.06.39a6.63,6.63,0,0,0-.69,2.53,1.25,1.25,0,0,0,.51,1.16c0,.07.13.06.2.1h.33a1.13,1.13,0,0,0,.63-.34,2,2,0,0,0,.53-1,2.81,2.81,0,0,0-.13-1.88.68.68,0,0,0-.82-.41s-.11.06-.16.06c-.21,0-.4,0-.71-.5l-.23-.31a.75.75,0,0,1,.22-1.1,1.94,1.94,0,0,1,.6-.26,1.53,1.53,0,0,1,.72-.08,1.84,1.84,0,0,1,.77.17,2.39,2.39,0,0,1,.68.4,3.73,3.73,0,0,1,1.26,2.25,5.16,5.16,0,0,1-.54,3.38Z"/><path class="cls-1" d="M380.08,251.13a30.4,30.4,0,0,1-10.79-1.43,23.93,23.93,0,0,1-9.39-5.58,28.25,28.25,0,0,1-4.79-6.32,48,48,0,0,1-4.71-12.88,82.08,82.08,0,0,1-1.74-13.48c-.2-4-.23-8-.05-12,.25-5.1.65-10.25,2.26-15.21.59-1.56.88-1.14.88.23a54.1,54.1,0,0,1-.32,6.69,110.58,110.58,0,0,0,.34,30.67,42.94,42.94,0,0,0,6.68,17.33,20.54,20.54,0,0,0,7.38,6.76,25.8,25.8,0,0,0,9.71,2.9,30.26,30.26,0,0,0,3.16.17c1.05,0,2.09-.11,3.14-.17s2.08-.33,3.11-.56,2.05-.52,3-.88a41.62,41.62,0,0,0,8.67-4.22,52.9,52.9,0,0,0,7.58-6,53.68,53.68,0,0,0,9-11.68l1.54-2.83c1.87-3.57,2.4-4.74,3.33-5.32a4,4,0,0,1,.6-.39c.56-.22.34,1.51-.76,4.4a52.65,52.65,0,0,1-17.6,22.07,48.21,48.21,0,0,1-9.52,5.33,31.61,31.61,0,0,1-10.76,2.45Z"/><path class="cls-1" d="M440.3,203.65a8.55,8.55,0,0,0-2.55-5.3,6.6,6.6,0,0,0-5.28-1.91,8.44,8.44,0,0,0-3.73,2.38c-.55.5-1.12,1.05-1.75,1.58a7.6,7.6,0,0,1-2.33,1.4,5.18,5.18,0,0,1-1.49.28,6.51,6.51,0,0,1-1.51-.24,4.45,4.45,0,0,1-2.31-1.93,11.48,11.48,0,0,1-1.32-4.86,38.92,38.92,0,0,1-.07-4.7c.12-2.75.33-5.48.51-8.17.1-1.71.21-3.43.32-5.14,0-.85.09-1.69.09-2.52a7.86,7.86,0,0,0-.17-2.25c-.06-.18-.09-.26-.11-.35a.27.27,0,0,1,0-.23c.05-.14.42-.28.91.09a4.57,4.57,0,0,1,1.28,1.86,8.5,8.5,0,0,1,.54,2.85,43.5,43.5,0,0,1-.18,5.38c-.15,1.75-.29,3.5-.44,5.25s-.23,3.47-.28,5.18a21.39,21.39,0,0,0,.35,4.93,3.86,3.86,0,0,0,1.1,2.12,1.55,1.55,0,0,0,.92.36,1.19,1.19,0,0,0,.53,0l.27,0,.27-.1a7.3,7.3,0,0,0,2.26-1.63,31.51,31.51,0,0,1,2.5-2.29A8,8,0,0,1,432.4,194a7.71,7.71,0,0,1,4.07.59A10.34,10.34,0,0,1,442,200a12,12,0,0,1,.19,9.37,20.45,20.45,0,0,1-3.41,6.07,12.21,12.21,0,0,1-5.89,3.9,5.63,5.63,0,0,1-1.33.33l-1.35.25c-.9,0-1.82.13-2.71.07s-1.8-.1-2.66-.27-1.75-.34-2.61-.55-1.47-.44-2.22-.69a8,8,0,0,1-2.73-1.38,2.51,2.51,0,0,1-.88-1.28c-.05-.2-.16-.39-.18-.53s.26-.31.84-.35a6,6,0,0,1,2.33.38,31.85,31.85,0,0,0,8.54,1.84,10.58,10.58,0,0,0,7.54-2.36,14.43,14.43,0,0,0,3.53-5.16c.22-.49.47-1.08.65-1.57l.25-.69.18-.73a9.36,9.36,0,0,0,.11-3Z"/><path class="cls-1" d="M396.31,179.81a6.46,6.46,0,0,0,1.14,2.89,3.3,3.3,0,0,0,2.56,1.11,8.31,8.31,0,0,0,2.44-.44,20.24,20.24,0,0,0,4.26-2.14,45.19,45.19,0,0,0,4.07-2.86,37.17,37.17,0,0,0,3.32-2.93c1.32-1.32,2.65-2.72,3.85-4,.34-.39.73-.16.83.53a3.7,3.7,0,0,1-.92,2.66,37.5,37.5,0,0,1-4.29,4.17,41.23,41.23,0,0,1-4.83,3.53c-1,.63-2,1.31-3.13,1.93a12.3,12.3,0,0,1-3.6,1.51,7.51,7.51,0,0,1-4.5-.24,5.83,5.83,0,0,1-3.07-3.39,14.7,14.7,0,0,1-.81-5.1,51.09,51.09,0,0,1,.64-7.47c.27-1.9.46-3.78.77-5.65.06-.41.11-.82.19-1.23.3-1.52.59-2,1.27-2.14a3.14,3.14,0,0,1,.46-.12c.49-.06.78.67.67,1.81-.32,3.35-1,6.77-1.31,10.19a26.37,26.37,0,0,0,.05,7.38Z"/><path class="cls-1" d="M381.89,177.62a12.33,12.33,0,0,1-2.33.89c-.41.09-.84.14-1.25.2l-.63.08H377a7.16,7.16,0,0,1-4.8-1.81,7.65,7.65,0,0,1-2.06-3.08,12.28,12.28,0,0,1-.34-6.05,23.66,23.66,0,0,1,1.64-5.57,27.59,27.59,0,0,1,2.41-4.52,13.14,13.14,0,0,1,4.72-4.56c.62-.32.72.09.49.75a7.55,7.55,0,0,1-1.5,2.35A24.82,24.82,0,0,0,372,167a9.64,9.64,0,0,0,.65,7.06,5.45,5.45,0,0,0,1.16,1.4,5,5,0,0,0,1.59.85,6.14,6.14,0,0,0,1.88.22,5.44,5.44,0,0,0,1-.11,4,4,0,0,0,1-.21,11.07,11.07,0,0,0,4.28-2.56,32,32,0,0,0,5.1-6.15c1.15-1.75,2.08-3.59,3.21-5.41.24-.39.5-.79.78-1.18a4.94,4.94,0,0,1,1.37-1.39,1.52,1.52,0,0,1,1.14-.06,2,2,0,0,1,.44.16c.21.13.23.39.16.74a3.62,3.62,0,0,1-.55,1.26,108.17,108.17,0,0,1-6.24,9.68,21.78,21.78,0,0,1-7,6.35Z"/><path class="cls-1" d="M335.83,146.58a47.48,47.48,0,0,1,4.94-12.08A43.51,43.51,0,0,1,349,124.37a44,44,0,0,1,7.74-5.56,53.1,53.1,0,0,1,15.68-5.47,56,56,0,0,1,30.71,3c1.44.61,2.83,1.34,4.25,2s2.68,1.63,4,2.45,2.48,1.93,3.7,2.9a10.42,10.42,0,0,1,1.67,1.65l1.56,1.75c1.27,1.46.72,1.59-.87.9a30.52,30.52,0,0,1-3-1.55,32,32,0,0,1-3.92-2.45c-1.22-.86-2.56-1.55-3.82-2.34s-2.69-1.28-4-2-2.78-1.07-4.16-1.63-2.87-.82-4.31-1.25a53.08,53.08,0,0,0-18-1.06l-2.73.36c-.91.15-1.81.38-2.72.57l-1.37.31c-.45.12-.89.27-1.34.41l-2.68.85a54.39,54.39,0,0,0-10,5,39,39,0,0,0-9,8.26,41.74,41.74,0,0,0-6.11,10.68,42.9,42.9,0,0,0-3,14.89A31.4,31.4,0,0,0,339,168.37a16.94,16.94,0,0,0,2.7,4.94,10.67,10.67,0,0,0,4.3,3.31,9.12,9.12,0,0,0,4.1.65,12.25,12.25,0,0,0,2.08-.29,15.93,15.93,0,0,0,2-.67,29.57,29.57,0,0,0,7.38-4.56c1-.81,2-1.67,3-2.5,1.88-1.56,3.14-2.61,4.1-3.26a6.79,6.79,0,0,1,2.21-1,5.25,5.25,0,0,1,.77-.17c.31,0,.14.39-.42,1.12a29.42,29.42,0,0,1-2.75,3.1c-.95.95-1.92,1.92-2.93,2.87s-2.1,1.83-3.21,2.71a28.75,28.75,0,0,1-7.63,4.41,14.89,14.89,0,0,1-4.64.92,11.8,11.8,0,0,1-4.86-.79,13.11,13.11,0,0,1-4.17-2.63,17,17,0,0,1-1.61-1.8,16.16,16.16,0,0,1-1.34-2,29,29,0,0,1-3.56-13,45.22,45.22,0,0,1,1.27-13.18Z"/><path class="cls-1" d="M475.77,226.7a98.7,98.7,0,0,0,2.34-17.25,151.43,151.43,0,0,0,.15-17.57c-.21-4.27-.7-8.52-1.29-12.75a116.9,116.9,0,0,0-5.13-21.93,74.4,74.4,0,0,0-4.6-10.22,54.43,54.43,0,0,0-6.42-9.14,39.93,39.93,0,0,0-16.08-11.14c-1-.4-2-.65-3-1s-2-.53-3.07-.69a35.53,35.53,0,0,0-6.26-.63,35,35,0,0,0-6.23.45,19.32,19.32,0,0,0-5.84,1.82c-1.08.58-1.45.92-1.6.76s.1-.79.94-1.7c1.67-1.76,5.89-3.9,11.13-4.07A39.76,39.76,0,0,1,456.59,130c7.31,5.66,12.56,13.49,16,21.82a104.16,104.16,0,0,1,5,15.62,132,132,0,0,1,2.84,16.24,156,156,0,0,1-.36,36,61.19,61.19,0,0,1-2.35,11,37.17,37.17,0,0,1-5,10.11,35.73,35.73,0,0,1-13,11,36.81,36.81,0,0,1-16.47,3.91,52,52,0,0,1-12.9-1.75,59.59,59.59,0,0,1-12.09-4.62c-1.7-.87-3.35-1.76-5-2.8a32.14,32.14,0,0,1-5.93-4.69,8.3,8.3,0,0,1-2-2.79,7.09,7.09,0,0,1-.4-1c-.08-.89,2.23.81,6.43,3.52.78.51,1.6,1,2.36,1.48l2.41,1.43c1.63.92,3.28,1.8,5,2.59a67.33,67.33,0,0,0,10.64,3.89,48.73,48.73,0,0,0,11.22,1.63,33.25,33.25,0,0,0,25-10.85,33.89,33.89,0,0,0,7.6-15Z"/><path class="cls-1" d="M376.4,291.81a40.88,40.88,0,0,1-4.75,3.29,18,18,0,0,1-5.53,2.26,8.52,8.52,0,0,1-4.66-.17,7.94,7.94,0,0,1-3.4-2.33,10.14,10.14,0,0,1-2-3.45,16.18,16.18,0,0,1-.26-7.56,39.39,39.39,0,0,1,1.7-6.27,35.34,35.34,0,0,1,3.49-7.44c.47-.72.74-.43.74.38a10,10,0,0,1-.79,3.56,49.76,49.76,0,0,0-2.5,7.64c-.15.64-.27,1.29-.39,1.93s-.21,1.29-.24,1.93a15.57,15.57,0,0,0,0,3.8,7.46,7.46,0,0,0,1.89,3.94,5.84,5.84,0,0,0,3.75,1.93,9.73,9.73,0,0,0,4.91-1,25.73,25.73,0,0,0,4.66-2.76,57.16,57.16,0,0,0,5.27-4.33c2.55-2.34,5-4.82,7.37-7.36,1.83-2,3.49-4,5.3-6,.4-.44.78-.88,1.21-1.31a7.36,7.36,0,0,1,1.87-1.5,1.63,1.63,0,0,1,1.22-.18,2.86,2.86,0,0,1,.49.14c.41.26-.07,1-1.07,2.21-3.1,3.45-6.36,7.3-9.89,10.94a98.31,98.31,0,0,1-8.35,7.8Z"/><path class="cls-1" d="M470.34,368.89a258.93,258.93,0,0,0-6.34-34.6c-1.07-4.15-2.31-8.24-3.61-12.31a156.66,156.66,0,0,0-8.27-21A86.42,86.42,0,0,0,440,282.12a44.08,44.08,0,0,0-15.65-11.83,34.5,34.5,0,0,0-12.18-2.7,45.87,45.87,0,0,0-12.49,1.33c-2.59.52-2.4.08-.36-1.09A24.6,24.6,0,0,1,410.64,265a35.78,35.78,0,0,1,13.44,2.43,41.76,41.76,0,0,1,11.69,7c6.94,5.89,12.14,13.4,16.3,21.29A167.59,167.59,0,0,1,464.23,326a253.7,253.7,0,0,1,7.59,35,184.84,184.84,0,0,1,2.08,21.95c0,.7,0,1.41,0,2.13a9.57,9.57,0,0,1-.29,2.24,17.81,17.81,0,0,1-1.65,4,19.76,19.76,0,0,1-5.82,6.34c-4.7,3.31-10.19,5-15.6,6.19a136.43,136.43,0,0,1-25.4,2.51c-1.87,0-3.7.06-5.58,0-7-.09-9.19-.45-10.65-1.2a6.82,6.82,0,0,1-1-.52c-.65-.55,2.21-.89,7.29-.89,7.52,0,15.25-.08,23-.78a101.77,101.77,0,0,0,11.54-1.65,48.39,48.39,0,0,0,10.94-3.52,22.23,22.23,0,0,0,6.72-4.71,12.62,12.62,0,0,0,1.29-1.55,12.78,12.78,0,0,0,1.07-1.67,17.53,17.53,0,0,0,.85-1.81c.12-.31.21-.63.31-1l.15-.48.08-.24,0-.16a13.46,13.46,0,0,0,.13-1.94c0-.71,0-1.43,0-2.16,0-1.45-.1-2.92-.2-4.39q-.3-4.39-.83-8.81Z"/><path class="cls-1" d="M412.34,373.09c2.61-.49,5.22-1,7.82-1.62l2.84-.7c3.35-.75,6.73-1.49,10.15-2.06.75-.15,1.52-.26,2.28-.38s1.52-.25,2.29-.32l1.47-.16,1.5-.05a14.82,14.82,0,0,1,3,.24c.62.1.48.45-.06.79a5.91,5.91,0,0,1-2.54.72c-1,.07-1.91.13-2.86.27s-1.92.22-2.88.36c-1.93.28-3.87.64-5.83,1-2.34.41-4.73,1.13-7.11,1.72-2.62.63-5.24,1.26-7.89,1.81-1.63.36-3.27.65-4.9,1-2.48.45-5,.82-7.46,1.2-1.92.3-3.81.64-5.72.93-.42.05-.83.12-1.26.16-1.58.15-2.1,0-2.47-.5a2.5,2.5,0,0,1-.24-.36c-.17-.41.45-.82,1.57-1.05.84-.17,1.69-.3,2.55-.42l2.6-.41c1.74-.23,3.5-.53,5.28-.79l3.94-.65,3.95-.73Z"/><path class="cls-1" d="M434.41,360.82c-.4-1.17-.78-2.35-1.13-3.54-.14-.43-.31-.85-.42-1.29a28.18,28.18,0,0,1-.87-4.75c0-.36-.07-.71-.12-1.07l-.06-1.08a5.35,5.35,0,0,1,.44-2.8c.13-.27.43-.1.69.23a1.85,1.85,0,0,1,.48,1.19,33.78,33.78,0,0,0,.55,5,17.05,17.05,0,0,0,.89,3.13c.37,1.14.76,2.29,1.18,3.43.27.7.53,1.4.82,2.09.43,1.05.85,2.12,1.35,3.13.4.79.9,1.51,1.35,2.27a3.15,3.15,0,0,1,.28.51c.29.67.17,1-.22,1.31-.09.07-.17.15-.26.21a.62.62,0,0,1-.52,0,1.2,1.2,0,0,1-.6-.38,9,9,0,0,1-1.38-2c-.4-.71-.76-1.45-1.1-2.21-.52-1.12-1-2.28-1.4-3.45Z"/><path class="cls-1" d="M396.72,379.36a71.61,71.61,0,0,1,5.12,9.73c.54,1.22,1.07,2.45,1.51,3.72a34.69,34.69,0,0,1,1.63,6.94c0,.59.14,1.18.17,1.78l0,1.81a3.16,3.16,0,0,1,0,.51,2.55,2.55,0,0,1-.11.55,4.18,4.18,0,0,1-.43,1,6,6,0,0,1-1.3,1.47,15.65,15.65,0,0,1-5.77,2.78,16,16,0,0,1-8,.4c-.82-.23-.61-.49.11-.66a29.55,29.55,0,0,1,3.35-.59,19.91,19.91,0,0,0,7.15-2.18,7.57,7.57,0,0,0,2.62-2.07,2.42,2.42,0,0,0,.3-.57,1.31,1.31,0,0,0,.06-.27l0-.14v-.23c0-.63,0-1.26,0-1.9a32.23,32.23,0,0,0-2.46-9.19,63.33,63.33,0,0,0-4.74-9.55,54.79,54.79,0,0,0-3.67-5.46c-.5-.65-1-1.3-1.56-1.89a2.31,2.31,0,0,0-.4-.38,1.47,1.47,0,0,0-.41-.31l-.47-.28-.53-.23a15.56,15.56,0,0,0-4.7-1,24.87,24.87,0,0,0-7.42.73c-.52.14-1,.28-1.54.45-1.91.59-2.5.73-3.2.29a2.65,2.65,0,0,1-.47-.28c-.21-.19-.17-.47.12-.81a4,4,0,0,1,1.57-1.1,21.58,21.58,0,0,1,7.23-1.74,24.18,24.18,0,0,1,7.72.59,11.06,11.06,0,0,1,3,1.21,4.52,4.52,0,0,1,.77.56l.37.33.25.27c.33.37.66.73.94,1.1a50.34,50.34,0,0,1,3.28,4.56Z"/><path class="cls-1" d="M359.19,381.91c1.3-.16,2.61-.35,3.91-.59.48-.1.94-.24,1.41-.33,1.68-.31,3.35-.66,5-1.12a20.08,20.08,0,0,0,2.14-.75c.88-.35,1.77-.77,2.62-1,.26-.08.42.15.37.55a2,2,0,0,1-.26.7,1.73,1.73,0,0,1-.61.59c-.46.25-.92.47-1.39.68s-1,.36-1.44.52a24.38,24.38,0,0,1-2.94.76c-1.2.24-2.39.66-3.6.94s-2.67.55-4,.76c-.83.14-1.67.22-2.5.33-1.27.15-2.55.22-3.83.28-.49.06-1,0-1.48.09a9.63,9.63,0,0,1-1.52,0c-.23,0-.46,0-.68,0-.86-.23-1.09-.46-1.08-1a1.88,1.88,0,0,1,0-.34c.07-.37.49-.58,1-.57,1.55,0,3.22,0,5-.12l2-.16,2-.23Z"/><path class="cls-1" d="M318.91,378.81a53.44,53.44,0,0,0,11.1,2.85l2,.15q1,0,2-.06a9.18,9.18,0,0,0,6.15-2.43,10,10,0,0,0,2-2.84c.55-1.07.92-2.26,1.47-3.49.07-.14.1-.25.2-.43a2.51,2.51,0,0,1,.39-.54,1.67,1.67,0,0,1,1.46-.47,3.69,3.69,0,0,1,1.84,1.09,15.87,15.87,0,0,1,2.22,2.77,21.56,21.56,0,0,1,2.08,3.91,15.63,15.63,0,0,1,.67,2.14,7,7,0,0,1,.23,2.3c0,.5-.22.72-.33.67s-.25-.29-.47-.63c-.41-.71-1.19-1.79-1.89-3.18-.3-.62-.67-1.21-1-1.83s-.66-1.22-1-1.8a12.93,12.93,0,0,0-2.38-3,2.83,2.83,0,0,0-.25-.17s-.07-.05-.07,0,0,0,0-.05,0-.21.06-.25c0-.27,0-.44,0-.34l0,0a.71.71,0,0,0,.12.15.58.58,0,0,0,.15.11l.11.09,0,0s0,0,0,.06l-.11.23-.2.45-.41,1a18.59,18.59,0,0,1-2.18,4.18,11.19,11.19,0,0,1-4.64,3.73l-1.41.5a12.34,12.34,0,0,1-1.44.31,14.94,14.94,0,0,1-2.89.26,40.26,40.26,0,0,1-12-2.28l-1.76-.58a17.18,17.18,0,0,1-1.79-.66,35.72,35.72,0,0,1-3.31-1.79c-.8-.47-1.59-.94-2.38-1.38-.39-.21-.79-.42-1.18-.59l-.28-.12-.18-.07a1.62,1.62,0,0,0-.38-.09.53.53,0,0,0-.37,0,.54.54,0,0,0-.2.33c0,.12-.07.25-.1.38s0,.25,0,.47a3.75,3.75,0,0,0,.67,2.21,8.58,8.58,0,0,0,3,2.5,20.65,20.65,0,0,0,3.74,1.52c.57.18,1.15.3,1.73.45a18.6,18.6,0,0,1,2.27.6,2.18,2.18,0,0,1,1,.73c.1.13.25.26.32.38s-.07.41-.54.56a4.52,4.52,0,0,1-2.08.14,20.86,20.86,0,0,1-7.76-2.55,10.67,10.67,0,0,1-3.44-3,6.31,6.31,0,0,1-1-2.41,5.69,5.69,0,0,1-.14-1.37,3.87,3.87,0,0,1,.09-.89,5.27,5.27,0,0,1,.25-.95c.23-.39.34-.89.7-1.14a2.48,2.48,0,0,1,1.21-.55,3.32,3.32,0,0,1,1.39.1c.24.05.47.14.71.21s.32.13.48.19a29.33,29.33,0,0,1,2.81,1.48,29.64,29.64,0,0,0,5,2.59Z"/><path class="cls-1" d="M313.5,392.22a22.71,22.71,0,0,1-3.05-1.59,9.4,9.4,0,0,1-1.08-.69,7.31,7.31,0,0,1-2.69-3.8,7,7,0,0,1-.25-2.08,3.91,3.91,0,0,1,.74-2.45c.16-.22.46,0,.73.29a2.1,2.1,0,0,1,.55,1.18,9.72,9.72,0,0,0,0,1.87,7,7,0,0,0,.55,1.76,5.17,5.17,0,0,0,1.86,1.79,17.24,17.24,0,0,0,2.71,1.49c.59.26,1.19.51,1.81.72a22,22,0,0,0,2.88.81,17.7,17.7,0,0,0,2.3.2c.17,0,.34,0,.51,0,.63.08.8.26.83.85a2.82,2.82,0,0,1,0,.41.83.83,0,0,1-.83.8,13.17,13.17,0,0,1-4.37-.48,27.62,27.62,0,0,1-3.23-1.05Z"/><path class="cls-1" d="M317.83,399.35a25.93,25.93,0,0,1-3-.85c-.36-.13-.74-.2-1.1-.37a6.7,6.7,0,0,1-3.31-2.8,3.81,3.81,0,0,1-.44-2.05,3.55,3.55,0,0,1,.89-2.25c.17-.19.49.06.76.42a1.77,1.77,0,0,1,.43,1.13,3.21,3.21,0,0,0,0,1.34,2.83,2.83,0,0,0,.69,1.19,4.9,4.9,0,0,0,2.05,1.13,20.84,20.84,0,0,0,2.71.83c.58.14,1.16.25,1.75.35a20.57,20.57,0,0,0,2.71.28,14.65,14.65,0,0,0,2.09-.21l.45-.08c.57,0,.75.11.88.7a1.92,1.92,0,0,1,.09.4.85.85,0,0,1-.59,1,11.1,11.1,0,0,1-4,.33,29.71,29.71,0,0,1-3.07-.41Z"/><path class="cls-1" d="M335.35,406q-3,.06-6,0c-.73,0-1.46,0-2.2,0a36.76,36.76,0,0,1-7.73-1.25,12.83,12.83,0,0,1-3.3-1.44,5.81,5.81,0,0,1-1.75-1.71,4,4,0,0,1-.44-2.41c.06-.5.33-.38.68,0s.81.88,1.24,1.3a5.71,5.71,0,0,0,2.9,1.87,29.5,29.5,0,0,0,4,1.15,27.82,27.82,0,0,0,5.28.41c2,.06,3.94.05,5.92,0q1.83,0,3.66-.15c1.85-.11,3.71-.22,5.54-.42,1.42-.16,2.81-.45,4.22-.67.31-.05.61-.12.93-.16a3.07,3.07,0,0,1,1.26.13,1.54,1.54,0,0,1,.59.57,3.31,3.31,0,0,1,.18.29c.06.15,0,.3-.22.49a2,2,0,0,1-.92.56,43.38,43.38,0,0,1-7.79,1.21c-2,.18-4,.27-6,.36Z"/><path class="cls-1" d="M382.13,394.56l-.75-2.47c-.32-.81-.62-1.62-1-2.42-.26-.58-.59-1.12-.85-1.71a36,36,0,0,0-3.51-5.77A18.6,18.6,0,0,0,374,380a21.57,21.57,0,0,0-3-2.25c-.31-.21-.18-.5.26-.65a2.43,2.43,0,0,1,.91-.1,3.13,3.13,0,0,1,1.06.37,19.61,19.61,0,0,1,5.87,5.92c.42.72.93,1.39,1.36,2.12a22.22,22.22,0,0,1,1.31,2.19l.63,1.25c.2.42.36.86.53,1.29s.36.87.51,1.3l.42,1.34c.38,1.08.58,2.22.85,3.32a39.07,39.07,0,0,1,.6,5.15c.08.66.08,1.32.11,2s.09,1.33.05,2c0,.3,0,.59-.06.88-.18,1.09-.39,1.41-1,1.53a2.66,2.66,0,0,1-.39.07c-.42,0-.7-.48-.76-1.24a13.64,13.64,0,0,1,0-1.69c0-.56-.06-1.13-.07-1.7,0-1.13-.15-2.27-.2-3.42-.1-.85-.26-1.7-.38-2.55s-.39-1.68-.58-2.52Z"/><path class="cls-1" d="M334.82,365.56a59.06,59.06,0,0,1-9.7.41c-1.19-.07-2.37-.14-3.54-.31-2.06-.3-4.08-.71-6.07-1.11-1-.19-2-.39-2.95-.52a9.78,9.78,0,0,0-1.39-.1l-.31,0-.18,0a.5.5,0,0,0-.43.4l-.1.48-.11.57c-.06.38-.12.77-.15,1.16a20.19,20.19,0,0,0-.11,2.33,20,20,0,0,0,.31,3.3,13.8,13.8,0,0,0,.81,3.08c.27.55,0,.79-.75.49a4.29,4.29,0,0,1-2.14-2.74,20.29,20.29,0,0,1-.44-4.63c0-.77.06-1.54.14-2.31.05-.38.1-.76.16-1.15l.11-.57.18-.74a2.4,2.4,0,0,1,1.72-1.7c.21,0,.42-.11.62-.13l.47,0a7,7,0,0,1,.81,0,21.74,21.74,0,0,1,2.84.51,69,69,0,0,0,8.5,1.48,46.06,46.06,0,0,0,9.39,0c1.93-.18,3.87-.44,5.81-.73l2.73-.39c.46-.06.92-.12,1.4-.15s1.31-.13,1.71.37l.39.5a1.82,1.82,0,0,1,.24.43,4.23,4.23,0,0,1,.36.9,8.87,8.87,0,0,1,.34,1.81,24.48,24.48,0,0,1-.51,7c-.11.51-.21,1-.37,1.51-.55,1.86-1.14,2.43-1.83,2.48a1.28,1.28,0,0,1-.44,0c-.36-.19-.27-.76.07-2a32.51,32.51,0,0,0,1.06-5.82,17.86,17.86,0,0,0,0-2.92c0-.24-.07-.45-.09-.68a3.66,3.66,0,0,0-.14-.63,2.43,2.43,0,0,0-.2-.56,1.49,1.49,0,0,0-.22-.4l0,0h-.1c-.32,0-.69.06-1.05.11l-2.27.32c-1.53.24-3.08.47-4.64.66Z"/><path class="cls-1" d="M343.51,289.89q1.2-1.9,2.47-3.73c.3-.45.56-.92.88-1.36,1.12-1.55,2.28-3.05,3.42-4.57.5-.67,1-1.38,1.42-2.07a16.1,16.1,0,0,1,1.87-2.61c.48-.48,1.37,1.13.75,2.21s-1.15,1.87-1.79,2.75-1.35,1.73-2.08,2.56a35.18,35.18,0,0,0-2.31,3.29c-.83,1.21-1.65,2.43-2.43,3.67-.49.77-1,1.54-1.4,2.33a36.75,36.75,0,0,0-1.85,3.65c-.4,1-.67,2-1,3l-.19.65a1.8,1.8,0,0,1-.46.8,1.13,1.13,0,0,1-.58.24l-.26.05c-.14,0-.23-.1-.31-.29a1.66,1.66,0,0,1-.14-.82,15.13,15.13,0,0,1,.61-2.93,27.25,27.25,0,0,1,1.16-2.81c.65-1.37,1.4-2.7,2.16-4Z"/><path class="cls-1" d="M372.46,319.28a5,5,0,0,1-.35-.49c-.09-.18-.15-.36-.22-.53a6.81,6.81,0,0,1-.26-1c0-.2.14-.24.28,0l.83,1.08.57.68c.31.36.67.88,1.15,1.36s.93,1,1.38,1.47l1.14,1.11c.53.51,1.08,1,1.63,1.51s1,1.05,1.59,1.55c2.18,2.09,4.45,4.09,6.75,6.06l1.51,1.34c1.7,1.56,3.48,3,5.3,4.45a8.49,8.49,0,0,0,.93.68c.52.33,5.46,4.17,6.11,4.66,1.55,1.3,3.15,2.52,4.72,3.79a4.52,4.52,0,0,1,.67.54,10.22,10.22,0,0,0,1.44,1.17l2.09,1.55c.34.26.65.55,1,.83s0,.28-.1.22c-.35-.17-.14.07-.15.15s0,.06,0,.07l-.2-.11-.51-.29-1.55-.9c-1.15-.67-2.32-1.4-2.55-1.55l-1-.69-2.17-1.51-3.57-2.56a12.93,12.93,0,0,1-1-.82c-.17-.11-4.84-3.62-5-3.78-.94-.76-1.9-1.49-2.77-2.34-.17-.16-.36-.31-.55-.47q-2.42-2-4.72-4.07l-2.39-2.11c-.15-.13-.28-.27-.41-.4s-.35-.35-.53-.51c-1.86-1.7-3.66-3.46-5.39-5.3-.2-.22-.74-.87-1.29-1.52s-1-1.37-1.27-1.62S372.67,319.54,372.46,319.28Z"/><path class="cls-1" d="M374,330.46a1,1,0,0,1-1,.51c-.14,0-.38-.22-.34-.34s.15-.46.24-.68,1.33-1.95,1.77-2.56.88-1.16,1.35-1.72c1-1.13,1.91-2.27,2.89-3.39.22-.24.45-.48.69-.71a32.08,32.08,0,0,0,2.36-2.45,1.83,1.83,0,0,0,.35-.44,27.84,27.84,0,0,1,2.61-2.75l2.34-1.86a1.07,1.07,0,0,1,.35-.25,1.84,1.84,0,0,0,.77-.5,8.62,8.62,0,0,1,1.05-.74,3.91,3.91,0,0,1,.59-.26c.18-.07.24.15.2.21s.08.15.15.21l.06.06a11.65,11.65,0,0,1-.77,1c-.4.51-.83,1-.93,1.11l-1.31,1.3c-.65.68-1.33,1.38-1.45,1.54a4.6,4.6,0,0,1-.47.41c-.09.05-1.94,2.17-2,2.25a9.62,9.62,0,0,1-1.25,1.22,1,1,0,0,0-.25.24c-.66.76-1.36,1.47-2,2.2-.35.37-.67.78-1,1.16a1.9,1.9,0,0,1-.21.19l-.25.25c-.78.93-1.62,1.81-2.36,2.78-.17.22-1.17,1.13-1.36,1.39S374.11,330.31,374,330.46Z"/><path class="cls-1" d="M397.91,348c-.1.25-.34.34-.68.33-.11,0-.31-.16-.29-.25a3.56,3.56,0,0,1,.1-.47c0-.1.79-1.37,1-1.8a10.61,10.61,0,0,1,.82-1.2c.59-.78,1.19-1.56,1.82-2.31a4.89,4.89,0,0,1,.45-.46,12.42,12.42,0,0,0,1.51-1.65.72.72,0,0,0,.2-.31,14.42,14.42,0,0,1,1.56-1.9c.5-.42,1-.87,1.46-1.3.07-.06.12-.14.23-.16a.89.89,0,0,0,.51-.34c.2-.19.41-.38.63-.56a2.12,2.12,0,0,1,.4-.19c.12-.06.23.12.23.17s.11.12.18.17.06,0,.07.06-.66,1.55-.76,1.7-1.47,1.87-1.62,2.09a1.67,1.67,0,0,1-.31.28l-1.26,1.56a4,4,0,0,1-.84.8.52.52,0,0,0-.17.16c-.43.5-.9,1-1.36,1.43-.24.25-.44.51-.67.76a.81.81,0,0,1-.14.12,1.29,1.29,0,0,0-.17.16c-.52.6-1.09,1.16-1.56,1.8-.11.15-.77.74-.89.92S398,347.92,397.91,348Z"/><path class="cls-1" d="M423,293.83a2.45,2.45,0,0,1-.81-1.18.15.15,0,0,1,.23-.16c.26.17.51.35.76.54l3.16,2.81c.75.65,1.47,1.33,2.19,2,1.45,1.41,2.94,2.77,4.36,4.21.31.31.62.64.92,1,1,1.16,2.08,2.26,3.17,3.35a5.58,5.58,0,0,0,.56.53c.35.22,3.21,3.28,3.54,3.71l2.5,3.18a1.94,1.94,0,0,1,.34.47,4,4,0,0,0,.69,1c.36.45.71.92,1,1.4a4.94,4.94,0,0,1,.39.76c.12.24-.14.26-.21.2s-.16.07-.22.14,0,.06-.07.06a3.27,3.27,0,0,1-.4-.36c-.23-.23-.53-.54-.84-.84-.62-.61-1.27-1.26-1.38-1.4l-1.69-1.89c-.86-.95-1.77-1.92-2-2.12a7.12,7.12,0,0,1-.55-.66c-.07-.11-2.76-2.85-2.87-3-.53-.6-1.12-1.14-1.59-1.79a2.11,2.11,0,0,0-.32-.35c-1-1-1.88-2-2.82-3L429.66,301c-.09-.09-.17-.2-.25-.29a3.59,3.59,0,0,0-.32-.36c-1.16-1.18-2.28-2.41-3.47-3.57-.28-.26-1.48-1.64-1.8-1.95S423.18,294,423,293.83Z"/><path class="cls-1" d="M418.33,303.85a.89.89,0,0,1-.75.37c-.09,0-.23-.15-.19-.23a5.39,5.39,0,0,1,.25-.48l1.49-1.85c.34-.44.71-.86,1.09-1.27l2.31-2.49a6.89,6.89,0,0,1,.56-.52c.66-.55,1.27-1.17,1.88-1.78a1.44,1.44,0,0,0,.28-.33,19.11,19.11,0,0,1,2.1-2l1.89-1.3a.64.64,0,0,1,.29-.16,1.28,1.28,0,0,0,.63-.33A6.43,6.43,0,0,1,431,291a2.34,2.34,0,0,1,.49-.14c.15,0,.21.18.18.23s.08.15.14.22l.06.07a14.89,14.89,0,0,1-1.36,1.59l-1.07.92c-.53.48-1.07,1-1.18,1.1a2.66,2.66,0,0,1-.38.28c-.07,0-1.59,1.55-1.65,1.61a6,6,0,0,1-1,.84.58.58,0,0,0-.21.17c-.55.53-1.14,1-1.72,1.53-.29.26-.56.54-.85.81l-.16.13c-.07.06-.15.11-.21.17-.66.66-1.36,1.27-2,1.95-.15.16-1,.8-1.12,1S418.4,303.74,418.33,303.85Z"/><path class="cls-1" d="M432.47,318.33c-.1.22-.35.23-.68.12-.1,0-.3-.26-.29-.34a2.75,2.75,0,0,1,.11-.41c0-.07.75-1,1-1.36a9.09,9.09,0,0,1,.73-.91c.51-.6,1-1.22,1.51-1.84a2.72,2.72,0,0,1,.37-.39,8.41,8.41,0,0,0,1.22-1.37.54.54,0,0,0,.16-.26,10.12,10.12,0,0,1,1.29-1.61l1.28-1c.06-.05.1-.12.2-.13s.32-.15.45-.26a4,4,0,0,1,.56-.43,1.34,1.34,0,0,1,.37-.1c.11,0,.23.17.22.21s.11.15.18.21a.46.46,0,0,1,.07.07,9.82,9.82,0,0,1-.71,1.34l-.64.76c-.32.39-.64.8-.7.9a1.38,1.38,0,0,1-.26.22s-.95,1.26-1,1.31a2.85,2.85,0,0,1-.68.66.62.62,0,0,0-.14.14A15.91,15.91,0,0,1,436,315c-.2.21-.37.43-.55.64l-.13.1a1.66,1.66,0,0,0-.14.13c-.43.51-.93,1-1.35,1.49-.1.12-.72.56-.83.69S432.51,318.25,432.47,318.33Z"/><path class="cls-1" d="M436.47,392.69a2,2,0,0,1-1.37.06.2.2,0,0,1,0-.34c.26-.15.52-.29.78-.41s2.8-1,3.64-1.48l2.5-1.15a51.54,51.54,0,0,0,4.91-2.64l1.07-.63a18.56,18.56,0,0,0,1.79-1.13,19.29,19.29,0,0,0,1.68-1.3,3.94,3.94,0,0,0,.52-.47l1.68-1.58,1.68-1.69,1.31-1.31,1.2-1.41a4.54,4.54,0,0,1,.33-.41,4,4,0,0,0,.7-.89c.32-.44.56-.91.87-1.35.15-.22.32-.42.49-.63s.21,0,.18.06c-.07.23.08.09.14.09s.05,0,.06,0l-.17.49c-.11.29-.25.68-.4,1.07-.33.77-.76,1.54-.84,1.7s-.66,1-1.37,2-1.56,2-1.75,2.18-.4.38-.61.57c0,.14-2.75,2.68-2.89,2.74a11.21,11.21,0,0,1-1.88,1.33,4.28,4.28,0,0,0-.38.26,31,31,0,0,1-3.34,2.08c-.58.34-1.17.66-1.76,1l-.33.15c-.14.07-.28.12-.42.2-1.41.71-2.89,1.29-4.36,1.87-.34.15-2,.6-2.42.72C437.45,392.56,436.66,392.62,436.47,392.69Z"/><path class="cls-1" d="M440.93,383.84a.79.79,0,0,1-.31-.65c0-.08.13-.18.2-.14l.4.22a15.57,15.57,0,0,0,1.59,1.22c.39.26.77.52,1.17.76a13.9,13.9,0,0,0,2.5,1.25l.57.25a8.93,8.93,0,0,0,2,.66,1.12,1.12,0,0,0,.36,0c.2,0,2.11.34,2.37.38.62.17,1.25.28,1.88.4a.64.64,0,0,1,.27.07,1.1,1.1,0,0,0,.58.16,5.89,5.89,0,0,1,.82.15c.13,0,.26.12.4.18s0,.21,0,.23,0,.12,0,.19v.06a8.52,8.52,0,0,1-1.83.3h-.4l-.86-.06-1.43-.12a2,2,0,0,1-.42-.11c-.06,0-2-.29-2.05-.34a3.86,3.86,0,0,1-1.13-.42.65.65,0,0,0-.23-.09,13.44,13.44,0,0,1-1.89-.87l-.93-.51-.15-.11-.2-.15a18.12,18.12,0,0,1-2-1.48c-.16-.11-.75-.81-.92-.95S441,383.91,440.93,383.84Z"/><path class="cls-1" d="M450.84,376.53c-.18,0-.17-.27,0-.58,0-.1.27-.32.34-.32l.35,0c.06,0,.78.48,1.05.59a5.65,5.65,0,0,1,.72.42,16,16,0,0,0,1.46.86,1.54,1.54,0,0,1,.31.21,4,4,0,0,0,1.15.65.43.43,0,0,0,.23,0,5.5,5.5,0,0,1,1.37.56c.32.25.66.46,1,.7,0,0,.11,0,.14.11s.18.21.29.27a2.89,2.89,0,0,1,.44.27,1,1,0,0,1,.17.24c.05.08-.06.24-.09.25s-.07.13-.09.2l0,.08a6.58,6.58,0,0,1-1.17,0l-1.59-.44a.71.71,0,0,1-.22-.13s-1.16-.38-1.2-.41a1.47,1.47,0,0,1-.63-.4.25.25,0,0,0-.12-.08,6.68,6.68,0,0,1-1.09-.65c-.18-.12-.37-.23-.56-.34a.76.76,0,0,1-.09-.09.55.55,0,0,0-.11-.1c-.44-.27-.82-.62-1.26-.9-.11-.06-.45-.55-.56-.63S450.91,376.55,450.84,376.53Z"/><path class="cls-1" d="M235.68,423.67a26.45,26.45,0,0,0,1.83,4.86,13.19,13.19,0,0,0,2.89,4,7.36,7.36,0,0,0,4.15,1.87,10.89,10.89,0,0,0,4.87-.63,8.08,8.08,0,0,0,3-1.92,10,10,0,0,0,2.08-3,23.28,23.28,0,0,0,1.88-6.41,62.41,62.41,0,0,0,.66-6.87c.19-4.65,0-9.32-.15-14.09a24.55,24.55,0,0,1,.1-3.28,7.57,7.57,0,0,1,1.25-3.39,5.57,5.57,0,0,1,6.82-2,7.83,7.83,0,0,1,3.5,2.92,6.45,6.45,0,0,1,.62,1,8.19,8.19,0,0,1,.41,1.14,7.37,7.37,0,0,1,.18,2.33,7.72,7.72,0,0,1-1.59,4.2,6.27,6.27,0,0,1-1.72,1.52,4.75,4.75,0,0,1-2.22.64,2.2,2.2,0,0,1-1-.14c-.2-.08-.28-.16-.25-.23s.52-.25,1.14-.55a4,4,0,0,0,1.84-1.71,6.76,6.76,0,0,0,.61-1.47,8.18,8.18,0,0,0,.39-1.69,4.29,4.29,0,0,0-.48-2.78l-.16-.26-.27-.31a4.4,4.4,0,0,0-.54-.59,6,6,0,0,0-1.17-.87,2.72,2.72,0,0,0-4,1.25,7.26,7.26,0,0,0-.63,3.2c-.06,1.31-.07,2.66-.08,4,0,2.73.08,5.49,0,8.27a66.93,66.93,0,0,1-.87,10.17,20.41,20.41,0,0,1-4.17,9.69,11,11,0,0,1-4.92,3.39c-.48.13-1,.28-1.45.39l-1.47.24-1.47.08c-.5,0-1,0-1.53-.07a9.44,9.44,0,0,1-5.42-2.69A16.48,16.48,0,0,1,235,429a45,45,0,0,1-3.46-13.44,111.84,111.84,0,0,1-.36-20.77l.18-2.06c.11-.35.19-.71.33-1.05a1.18,1.18,0,0,1,1-.37,8.86,8.86,0,0,1,2.31.5c1.14.35,2.24.71,3.35,1A28.82,28.82,0,0,0,245,394a19.56,19.56,0,0,0,3.25-.16,24.73,24.73,0,0,0,4.13-1,5.69,5.69,0,0,1,2-.33,4.38,4.38,0,0,1,.77.06c.32.1.18.48-.42,1.09a9.47,9.47,0,0,1-3.36,1.91,20.52,20.52,0,0,1-10.55.43c-1.74-.34-3.47-.74-5.14-1.23l-1.24-.37-.52-.16-.09,0s0,0,0,0h0s0,0,0,.2l-.07,1.09-.11,2.19c-.06,1.46-.12,2.93-.13,4.41a106.71,106.71,0,0,0,.39,10.88,57.22,57.22,0,0,0,1.85,10.59Z"/><path class="cls-1" d="M469.72,405.55l-7.91-.28c-1,0-1.92,0-2.88,0-3.38-.12-6.77-.33-10.16-.42-1.5,0-3-.06-4.51,0a39.42,39.42,0,0,1-5.75,0c-.6-.19-.52-.4,0-.85A4.35,4.35,0,0,1,441,403c2-.11,3.92,0,5.88-.1s3.92,0,5.9,0c2.36.08,4.81-.09,7.22-.09l8,0,4.9,0c2.48,0,5,.06,7.42,0,1.91-.05,3.78-.26,5.66-.41.42,0,.82-.09,1.24-.11a4.2,4.2,0,0,1,1.65.13,1.64,1.64,0,0,1,.74.78c.07.15.17.29.22.41s-.05.41-.33.68a2.16,2.16,0,0,1-1.29.58,72.31,72.31,0,0,1-10.5.65c-2.65,0-5.31,0-8,0Z"/><path class="cls-1" d="M211.5,405.33l-4.88-.11c-.6,0-1.19,0-1.78,0l-6.29-.17c-.93,0-1.87,0-2.79.07a15.32,15.32,0,0,1-3.58,0c-.37-.07-.32-.57,0-1.08a2.13,2.13,0,0,1,1.54-1.07c1.2-.1,2.41-.17,3.62-.19s2.42.07,3.65.18c1.46.14,3,0,4.47,0l4.93,0,3,0c1.53,0,3.07,0,4.59,0,1.18,0,2.34-.22,3.52-.31.27,0,.52-.06.79-.07a2,2,0,0,1,1.05.18,1.09,1.09,0,0,1,.42.68,3.24,3.24,0,0,1,.09.4.72.72,0,0,1-.26.6,1.32,1.32,0,0,1-.77.39,40.48,40.48,0,0,1-6.42.48H211.5Z"/><path class="cls-1" d="M365.45,200.29a7.11,7.11,0,0,1-1.44.46,8.86,8.86,0,0,1-1.54.1,4.73,4.73,0,0,1-3-1.18,5.37,5.37,0,0,1-1.34-1.81,10,10,0,0,1-.73-3.49,19.88,19.88,0,0,1,.14-3.37c.12-1,.25-2,.41-2.92a9.22,9.22,0,0,1,1.13-3.61c.22-.35.53-.13.78.31a2.8,2.8,0,0,1,.38,1.74,52.21,52.21,0,0,0-1,7,7,7,0,0,0,.91,4,2.7,2.7,0,0,0,1.45,1.22,4,4,0,0,0,2.07.07,6,6,0,0,0,2.5-1.24,12.57,12.57,0,0,0,2.95-3.4,17.33,17.33,0,0,0,1.42-3.21,6.13,6.13,0,0,1,.25-.72c.37-.88.65-1.1,1.16-1.15.11,0,.23,0,.33,0s.3.13.38.35a1.93,1.93,0,0,1,.07.93,10.72,10.72,0,0,1-1.07,3.3,17.63,17.63,0,0,1-1.89,3.07,11.75,11.75,0,0,1-4.35,3.64Z"/><path class="cls-1" d="M386.91,207.87a8.44,8.44,0,0,1-2.87.49,6,6,0,0,1-2.92-.85,4,4,0,0,1-.94-.66,3.1,3.1,0,0,1-.76-.89,5.84,5.84,0,0,1-.74-3.68,13.63,13.63,0,0,1,.81-3.3c.38-.9.74-1.81,1.18-2.67a10.9,10.9,0,0,1,.91-1.63,6.59,6.59,0,0,1,1.34-1.35c.34-.24.53.06.62.56a3.51,3.51,0,0,1-.11,1.77,32.45,32.45,0,0,0-2.59,6.14,3.46,3.46,0,0,0,.68,3.33c.11.1.2.23.32.32l.4.25.2.13.23.08.47.17a4.76,4.76,0,0,0,2.06,0,8.2,8.2,0,0,0,2.58-1,16.63,16.63,0,0,0,3.5-2.72,19.79,19.79,0,0,0,2.11-2.72l.43-.61c.57-.74.86-.89,1.45-.72a2.34,2.34,0,0,1,.4.13c.41.18.48.72.16,1.39a16.73,16.73,0,0,1-4.26,5.29,15.53,15.53,0,0,1-4.64,2.82Z"/><path class="cls-1" d="M371.63,201a27.23,27.23,0,0,0,3.34-7.56,18.32,18.32,0,0,0,.37-2.94,14.22,14.22,0,0,0-.63-5.14A11.66,11.66,0,0,0,372,181a12.51,12.51,0,0,0-1.82-1.48,12.82,12.82,0,0,0-2.11-1,8,8,0,0,0-1.44-.46,12.52,12.52,0,0,0-1.48-.3c-.51-.07-1-.17-1.51-.26s-1-.08-1.54-.13-.59-.32,0-.62A5.81,5.81,0,0,1,365,176a14.07,14.07,0,0,1,6.58,2.14,12.25,12.25,0,0,1,4.47,5.4,17.13,17.13,0,0,1,1.38,8.3,24.32,24.32,0,0,1-2.89,8.59,39.4,39.4,0,0,1-2.95,4.66,50.79,50.79,0,0,1-5.49,6.2,52.07,52.07,0,0,1-4.69,4.32c-.37.29-.74.58-1.15.85-1.52,1-2.21,1-2.78.56a2.27,2.27,0,0,1-.37-.29c-.29-.38.18-1,1.13-1.65a60,60,0,0,0,8.25-7.41,40.47,40.47,0,0,0,5.13-6.68Z"/><path class="cls-1" d="M363.25,231a9.22,9.22,0,0,0,10.16-2.18c1.1-1.25-.73-3.1-1.84-1.84a6.67,6.67,0,0,1-7,1.78c-1.52-.67-2.84,1.57-1.31,2.24Z"/><path class="cls-1" d="M388.4,182.51c3.33-.71,6.86-1,9.83,1,2.31,1.53,3.92,3.93,5.5,6.15,1,1.35,3.22,0,2.25-1.32-2-2.77-4-5.74-7-7.45-3.49-2-7.44-1.72-11.23-.91-1.64.35-.95,2.86.69,2.51Z"/><path class="cls-1" d="M249.11,376.86a18.7,18.7,0,0,1-3.93,3.32,7.53,7.53,0,0,0-1.06,1.05,4.65,4.65,0,0,0-1,2.24,2.73,2.73,0,0,0,.6,2.26,13.55,13.55,0,0,0,1.92,1.83,6.76,6.76,0,0,1,2.2,3c.13.39-.29.49-.81.42a2.61,2.61,0,0,1-1.52-.7,24.78,24.78,0,0,0-2.48-2.23,6.31,6.31,0,0,1-1.38-1.63,4.51,4.51,0,0,1-.61-2.31,8.88,8.88,0,0,1,.5-2.58,6.16,6.16,0,0,1,1.36-2.22c1.32-1.3,2.76-2,3.79-3.06a6.36,6.36,0,0,0,1.44-2.2,4.62,4.62,0,0,0,.29-1l.13-.51c0-.17,0-.35.06-.53l.09-1.06-.06-1.08a7.8,7.8,0,0,0-.28-1.65c-.15-.54-.26-1.08-.45-1.61-.08-.24-.17-.46-.24-.7-.23-.89-.12-1.22.42-1.57a3.85,3.85,0,0,1,.38-.23c.43-.21.9.07,1.22.73a15.48,15.48,0,0,1,.6,1.52c.17.52.28,1.08.4,1.63l.16.84c0,.29.05.59.07.88a10.65,10.65,0,0,1,0,1.79,9.56,9.56,0,0,1-1.75,5.37Z"/><path class="cls-1" d="M120.91,199.15a16.51,16.51,0,0,1,.8-8c.48-1.2,1.62-3.83,3.17-2.61,2.18,1.71,3.07,5.43,4,7.92.54,1.5,3,.85,2.41-.66-1.15-3.14-2.64-9.14-6.42-10.08-2.18-.54-3.82,1.34-4.76,3a17.29,17.29,0,0,0-1.68,10.33c.19,1.58,2.69,1.6,2.5,0Z"/><path class="cls-1" d="M141.16,194.08c-.12-2.49.55-9.83,4.05-10.1,3.1-.24,3.62,6,3.69,8,0,1.6,2.55,1.61,2.5,0-.12-3.7-1.22-10.6-6.16-10.52-5.34.09-6.77,8.65-6.58,12.61.08,1.6,2.58,1.61,2.5,0Z"/><path class="cls-1" d="M133.33,192.58a30.47,30.47,0,0,1-.6-9.47,25.41,25.41,0,0,1,.51-3.45,16.07,16.07,0,0,1,2.61-5.67,12.13,12.13,0,0,1,2.19-2.28,7.67,7.67,0,0,1,3-1.4,14.28,14.28,0,0,1,5.52-.25,9.79,9.79,0,0,1,3.44,1.12,5.66,5.66,0,0,1,2.46,2.74c.29.72-.13.74-.81.51l-.55-.21c-.22-.06-.45-.13-.67-.21s-.48-.13-.7-.22-.44-.2-.67-.32a11.43,11.43,0,0,0-2.63-1,12.56,12.56,0,0,0-2.95-.25,9.53,9.53,0,0,0-2.86.51c-.2.1-.43.17-.61.27a3.72,3.72,0,0,0-.56.36,9.76,9.76,0,0,0-1.15,1c-1.8,1.72-2.68,4.38-3.17,7a27.36,27.36,0,0,0-.07,8.85,24.27,24.27,0,0,0,1.38,5.31,22.59,22.59,0,0,0,4.32,7.08,25.38,25.38,0,0,0,4.91,4.06l1.19.73a7,7,0,0,1,1.45,1.19,2.07,2.07,0,0,1,.48.85,3.6,3.6,0,0,1,.08.37c0,.31-.76.23-2.07-.21a24.31,24.31,0,0,1-9.57-8.11,25.38,25.38,0,0,1-3.91-8.85Z"/><path class="cls-1" d="M126.43,175.24c-6.33-3-13.6.49-17.93,5.32-1.11,1.25.72,3.09,1.84,1.84,3.45-3.85,9.56-7.35,14.77-4.91,1.51.7,2.83-1.54,1.32-2.25Z"/><path class="cls-1" d="M141.13,225.37c4,2.4,7.84,1.52,10.64-2.12,1-1.32-1.24-2.62-2.25-1.31-2,2.54-4.4,2.8-7.08,1.18a1.3,1.3,0,0,0-1.31,2.25Z"/><path class="cls-1" d="M331.09,337.38a7.6,7.6,0,0,1,1.25,1.28,6.31,6.31,0,0,1,.84,1.63,4.48,4.48,0,0,1-.31,3.72,7.09,7.09,0,0,1-1.57,1.9c-2.09,1.75-4.43,2.72-6.38,4.13a4,4,0,0,0-1.76,2.2c-.2,1,.78,2,1.69,2.95.28.31,0,.61-.55.68a2.26,2.26,0,0,1-2.05-.86,3.86,3.86,0,0,1-.93-2.81,4.43,4.43,0,0,1,1.31-2.56,15.66,15.66,0,0,1,3.79-2.64,16.48,16.48,0,0,0,4.09-3,3.2,3.2,0,0,0,1-2,3.25,3.25,0,0,0-.85-2.13A8.45,8.45,0,0,0,328,338a45.71,45.71,0,0,1-5-2.52,5.91,5.91,0,0,1-1.76-1.67,4,4,0,0,1-.56-2.57,4.7,4.7,0,0,1,.22-1.08c.46-1.26.87-1.48,1.51-1.38a3,3,0,0,1,.43.08c.47.17.52.77.33,1.48a4.7,4.7,0,0,0-.21,1.45,1.67,1.67,0,0,0,.33.95,7,7,0,0,0,2.48,1.68c.83.38,1.72.79,2.63,1.26a18.23,18.23,0,0,1,2.75,1.69Z"/><path class="cls-1" d="M96.68,400.06a30.23,30.23,0,0,1,1-2.87c.13-.35.21-.71.36-1a24.34,24.34,0,0,1,1.82-3.42l.9-1.46a5.89,5.89,0,0,1,1.39-1.72c.19-.15.34.06.4.37a1.45,1.45,0,0,1-.15,1.05c-.74,1.15-1.37,2.4-2.09,3.64-.2.38-.39.78-.56,1.18L99.25,397c-.34.9-.67,1.82-.94,2.75a17.53,17.53,0,0,0-.44,1.73,14.28,14.28,0,0,0-.36,2.67,13.42,13.42,0,0,0,.22,2l0,.43a.83.83,0,0,1-.3.93l-.15.12c-.08.05-.16,0-.29-.05a1.12,1.12,0,0,1-.4-.43,7,7,0,0,1-.56-4.11,23.62,23.62,0,0,1,.57-3Z"/><path class="cls-1" d="M136.77,296.42a37.46,37.46,0,0,1-4.63-2.61c-.55-.33-1.09-.68-1.61-1.05a63.42,63.42,0,0,1-5.22-4.27l-2.24-1.95a32.39,32.39,0,0,1-2.77-2.6c-.53-.58.78-.53,1.89.4l5.86,5a38.11,38.11,0,0,0,3.82,2.73c.71.49,1.46.9,2.19,1.36s1.49.84,2.27,1.2l1.44.68,1.47.56c.75.3,1.53.49,2.29.73s1.56.36,2.34.47c.61.06,1.22.1,1.82.13l1.82-.06a7.13,7.13,0,0,0,.79-.05c1-.05,1.31.05,1.56.45a2,2,0,0,1,.17.27c.13.31-.27.6-1,.75a16,16,0,0,1-7.13-.29,26.79,26.79,0,0,1-2.61-.76c-.84-.33-1.69-.64-2.51-1Z"/><path class="cls-1" d="M210.59,365.51a13.41,13.41,0,0,0,.3-1.4,5,5,0,0,0,.07-.52,8.12,8.12,0,0,0,.1-1.84,4.28,4.28,0,0,0-.12-.81c-.08-.34-.21-.66-.28-1s.48-.13.64.29a5.76,5.76,0,0,1,.27,2.25c0,.45,0,.92-.09,1.38a9.17,9.17,0,0,1-.32,1.47,9,9,0,0,1-.28.88c-.14.45-.33.88-.5,1.3s-.26.66-.41,1a2,2,0,0,0-.1.21c-.15.25-.21.32-.33.33s0,0-.07,0-.08-.14,0-.34c.23-.58.48-1.18.69-1.8.15-.45.3-.92.41-1.38Z"/><path class="cls-1" d="M86.9,404.08a7.77,7.77,0,0,1-.8-.31c-.09,0-.2-.06-.29-.11a5.61,5.61,0,0,1-.88-.63,3.73,3.73,0,0,0-.39-.25c-.17-.09-.39-.16-.46-.38s.83-.86,1-.76a3.16,3.16,0,0,1,.72.7c.14.18.36.22.54.32a6.36,6.36,0,0,0,.65.28l.42.12a2.48,2.48,0,0,0,.66.08,2.93,2.93,0,0,0,.51-.13.35.35,0,0,1,.11,0c.13,0,.19,0,.26.28l0,.16a.43.43,0,0,1-.09.44,1.66,1.66,0,0,1-1.1.36,3.56,3.56,0,0,1-.86-.11Z"/><path class="cls-1" d="M87.83,395.63l-.4-.17-.15,0-.5-.25-.23-.07c-.1,0-.21,0-.29-.12s.21-.49.32-.45a1.68,1.68,0,0,1,.54.26,1.25,1.25,0,0,0,.35.13l.39.14.24.08a2.57,2.57,0,0,0,.38.08,1.53,1.53,0,0,0,.3,0h.07c.08,0,.1,0,.1.2v.1c0,.13,0,.22-.12.25a1,1,0,0,1-.58,0l-.42-.11Z"/><path class="cls-1" d="M205.44,329.71l.07-.4a.75.75,0,0,1,0-.15l.1-.52a.91.91,0,0,0,0-.23c0-.1-.06-.19,0-.29s.68,0,.69.13a1.28,1.28,0,0,1-.11.6,1.14,1.14,0,0,0-.05.37c0,.13,0,.27,0,.4l0,.25c0,.13,0,.26,0,.38a1.35,1.35,0,0,0,.05.29s0,0,0,.06,0,.11-.17.13h-.1a.25.25,0,0,1-.23-.09,1.2,1.2,0,0,1-.18-.53,2.82,2.82,0,0,1,0-.41Z"/><path class="cls-1" d="M201.09,332.21l0-.21v-.07l0-.26v-.11a.26.26,0,0,1,0-.15s.21,0,.21.06a.77.77,0,0,1,0,.3.62.62,0,0,0,0,.19l0,.2v.13a1.15,1.15,0,0,0,0,.19.7.7,0,0,0,0,.14v0s0,.06-.08.06h0a.12.12,0,0,1-.1,0,.63.63,0,0,1,0-.27v-.2Z"/><path class="cls-1" d="M202.48,84.83c-.16-.18,0-.4.31-.69a.89.89,0,0,1,.52-.17,2.37,2.37,0,0,1,.39.3,11.94,11.94,0,0,1,.79,1.73,5.63,5.63,0,0,1,.32,1.27c.13.86.24,1.72.3,2.58a2.2,2.2,0,0,1-.05.57,7.4,7.4,0,0,0-.11,1.93.49.49,0,0,0,.06.33,3.46,3.46,0,0,1,.07,1,8.73,8.73,0,0,1-.15,1.08c-.2.55-.34,1.09-.49,1.64,0,.08,0,.16-.08.23s-.16.33-.19.5a6.06,6.06,0,0,1-.19.7,1.68,1.68,0,0,1-.2.34c-.06.11-.23.05-.25,0s-.15,0-.23,0-.06,0-.08,0-.14-.35-.3-.72a3.54,3.54,0,0,1-.26-.83s-.06-.52-.11-1.06-.13-1.09-.16-1.2a1,1,0,0,1,0-.35c0-.06-.14-1.64-.14-1.7a2.13,2.13,0,0,1,.13-1,.35.35,0,0,0,0-.2,13,13,0,0,1,.06-1.65,7.85,7.85,0,0,0,0-.84,1.1,1.1,0,0,1,0-.16.63.63,0,0,0,0-.19,11.41,11.41,0,0,0-.15-1.95,7.27,7.27,0,0,0,0-1C202.36,85.27,202.56,84.89,202.48,84.83Z"/><path class="cls-1" d="M211.89,108.39c-.22.16-.47,0-.71-.43a1.22,1.22,0,0,1-.08-.63,3.19,3.19,0,0,1,.32-.38c.07,0,1.2-.54,1.55-.78a7.7,7.7,0,0,1,1.09-.51c.76-.32,1.5-.69,2.26-1.08a3.05,3.05,0,0,1,.53-.2,6.81,6.81,0,0,0,1.82-.78c.09-.06.2-.09.27-.21a7.54,7.54,0,0,1,2-1l1.82-.32c.08,0,.16-.07.27,0a.63.63,0,0,0,.58,0,3.39,3.39,0,0,1,.78-.08,1.62,1.62,0,0,1,.43.16c.12.06.13.39.1.43s0,.25.07.38a.93.93,0,0,1,0,.13,9.75,9.75,0,0,1-1.29,1,19.33,19.33,0,0,0-2,1,.79.79,0,0,1-.35.09s-1.44.85-1.51.88a2.26,2.26,0,0,1-1,.31.43.43,0,0,0-.2.07,11.51,11.51,0,0,1-1.66.67c-.29.11-.57.25-.86.37a.47.47,0,0,1-.17,0,1.6,1.6,0,0,0-.21,0c-.68.3-1.4.47-2.1.77-.16.08-1,.09-1.21.16S212,108.32,211.89,108.39Z"/><path class="cls-1" d="M323.84,120.35c-.23-.1,0-.37.37-.75a2,2,0,0,1,.7-.34,2.46,2.46,0,0,1,.5.1c.08,0,.84.81,1.13,1.06a3.66,3.66,0,0,1,.65.83l1.14,1.78a1.25,1.25,0,0,1,.17.43,4,4,0,0,0,.66,1.46c0,.08.07.17.2.2a4.45,4.45,0,0,1,.91,1.53c.05.5.15,1,.18,1.48,0,.07.06.12,0,.22a.43.43,0,0,0,0,.5,2.52,2.52,0,0,1,.11.61,1.05,1.05,0,0,1-.11.39c0,.12-.36.22-.41.21s-.24.11-.35.17l-.13.07a9.66,9.66,0,0,1-1.34-.75l-.62-.68c-.27-.36-.56-.74-.63-.81a.47.47,0,0,1-.08-.29s-.86-1.11-.89-1.16c-.1-.26-.34-.44-.24-.81,0-.07,0-.11,0-.16a6.93,6.93,0,0,1-.52-1.33c-.08-.23-.22-.44-.32-.66a.59.59,0,0,1,0-.14.32.32,0,0,0,0-.17,13.07,13.07,0,0,0-.76-1.55c-.08-.1-.13-.79-.23-.91S323.93,120.39,323.84,120.35Z"/><path class="cls-1" d="M312.21,150.37c-.07.17-.27,0-.58-.34a1.7,1.7,0,0,1-.29-.57,1.59,1.59,0,0,1,.07-.4,7.08,7.08,0,0,1,.9-.85,2.5,2.5,0,0,1,.73-.44c.52-.21,1-.43,1.59-.59a.81.81,0,0,1,.38,0,3.33,3.33,0,0,0,1.26-.19c.07,0,.14,0,.2-.11a1.53,1.53,0,0,1,.67-.24,3.48,3.48,0,0,1,.72,0c.39.15.76.21,1.13.34.05,0,.11,0,.16.1s.23.18.34.21a2.06,2.06,0,0,1,.46.15,1.17,1.17,0,0,1,.23.22.53.53,0,0,1,0,.35c-.07.08,0,.2,0,.3v.11s-.83.66-.91.71-1.18.35-1.3.44-.14,0-.22,0l-1,.3c-.2,0-.37.11-.6,0,0,0-.08,0-.12,0a5.26,5.26,0,0,1-1,.12,3,3,0,0,0-.49.13l-.1,0a.17.17,0,0,0-.12,0,4.85,4.85,0,0,0-1.13.38c-.08.05-.57,0-.66.1S312.23,150.29,312.21,150.37Z"/></g></svg>