<svg xmlns="http://www.w3.org/2000/svg" width="520" height="520" viewBox="0 0 520 520"><defs><style>.cls-1{fill:#231f20;}</style></defs><title>Notioly New</title><g id="n.131_Adventure" data-name="n.131 Adventure"><path class="cls-1" d="M442.87,305.76c2.67-2.34,5.46-4.52,8-6.86.49-.42.9-.89,1.35-1.33l.65-.68.61-.7a22,22,0,0,0,2-2.57l.72-1.42a14.77,14.77,0,0,0,.61-1.53,39.7,39.7,0,0,0,1.69-6.47c.35-2,.53-4,.78-5.95a52.47,52.47,0,0,1,1.26-7.64c.2-.78.4-.62.52.09a16,16,0,0,1,.09,3.43l-.26,3.9c-.09,1.3-.15,2.62-.36,3.94a42.2,42.2,0,0,1-1.75,7.84c-.26.77-.52,1.54-.82,2.31s-.72,1.55-1.08,2.32-.92,1.44-1.45,2.09a24.68,24.68,0,0,1-1.64,1.89c-2.53,2.61-5.32,4.83-8,7.15-1.66,1.42-3.31,2.84-4.85,4.36-1.2,1.13-2.3,2.35-3.42,3.55a44.48,44.48,0,0,0-3,3.87c-.35.52-.72,1-1,1.57l-.9,1.64a29.53,29.53,0,0,0-1.6,3.36c-.21.5-.45,1-.62,1.5a11,11,0,0,1-.85,2,1.81,1.81,0,0,1-.82.74,2.34,2.34,0,0,1-.41.18c-.2,0-.29-.16-.3-.56a5.82,5.82,0,0,1,.3-1.77,36.81,36.81,0,0,1,7-12.53,71.27,71.27,0,0,1,7.6-7.74Z"/><path class="cls-1" d="M397,400.2a24.36,24.36,0,0,0,2.09-2.1c.66-.75,1.31-1.52,1.91-2.32.45-.58.84-1.19,1.25-1.79a29.34,29.34,0,0,0,3.54-6.83,26.89,26.89,0,0,0,.88-3.31c.26-1.43.44-2.88.59-4.35.06-.45.24-.39.44,0a4.69,4.69,0,0,1,.44,2,17.85,17.85,0,0,1-.58,4.65,23.15,23.15,0,0,1-1.74,4.37,47.17,47.17,0,0,1-2.86,4.94,38.11,38.11,0,0,1-4,4.84c-.91.92-1.89,1.75-2.86,2.57-1.46,1.24-3,2.44-4.28,3.77a19.27,19.27,0,0,0-2.64,3.38c-.16.26-.31.52-.46.8a8.27,8.27,0,0,1-.66,1,1.09,1.09,0,0,1-.63.3,1.22,1.22,0,0,1-.32,0c-.15,0-.23-.14-.24-.39a2.35,2.35,0,0,1,.21-1.06,19.56,19.56,0,0,1,5.21-6.57c1.56-1.39,3.2-2.64,4.65-4Z"/><path class="cls-1" d="M261.8,219.71a4.35,4.35,0,0,0-.28,2.2,1.29,1.29,0,0,0,1.25,1.25,1.26,1.26,0,0,0,1.25-1.25,2.89,2.89,0,0,1,.19-1.54,1.26,1.26,0,0,0-.87-1.54,1.29,1.29,0,0,0-1.54.88Z"/><path class="cls-1" d="M266.2,233.38a5.47,5.47,0,0,0,.28,2.44,1.28,1.28,0,0,0,1.54.88,1.26,1.26,0,0,0,.87-1.54,3.83,3.83,0,0,1-.19-1.78,1.26,1.26,0,0,0-1.25-1.25,1.28,1.28,0,0,0-1.25,1.25Z"/><path class="cls-1" d="M226.45,135.29a3.69,3.69,0,0,0,.2,1.58c.28.82,1.59.47,1.3-.36a2.8,2.8,0,0,1-.15-1.22c.07-.87-1.28-.86-1.35,0Z"/><path class="cls-1" d="M241,132.7a.55.55,0,0,1-.18-.4.67.67,0,0,0-.83-.47.68.68,0,0,0-.47.83,1.77,1.77,0,0,0,.52,1c.61.62,1.57-.34,1-1Z"/><path class="cls-1" d="M233.72,123.63c.05.17-.2.11-.66,0a1.73,1.73,0,0,1-.58-.31,1.28,1.28,0,0,1-.14-.4,4.36,4.36,0,0,1,.55-1.26,2.26,2.26,0,0,1,.61-.69,11.47,11.47,0,0,1,1.47-1,1.23,1.23,0,0,1,.37-.12,4.14,4.14,0,0,0,1.26-.41.33.33,0,0,0,.18-.14,3,3,0,0,1,1.43-.44,11.25,11.25,0,0,1,1.25.21c.06,0,.13,0,.18.08s.24.17.38.21a1.39,1.39,0,0,1,.53.24.7.7,0,0,1,.17.32c0,.1-.14.36-.17.39s-.11.21-.16.33l0,.12c-.08,0-.67.43-.75.47a4.33,4.33,0,0,0-1.07.29c-.06,0-.13,0-.19,0a9.2,9.2,0,0,0-.84.4c-.17,0-.31.16-.54.07,0,0-.07,0-.11,0a6,6,0,0,1-.87.32c-.14.06-.26.17-.4.24s-.07,0-.09,0a.2.2,0,0,0-.11,0c-.29.22-.65.37-.83.67,0,.06-.46.19-.48.29S233.69,123.56,233.72,123.63Z"/><path class="cls-1" d="M215.66,131.72c.05.25-.3.21-.92.08a.91.91,0,0,1-.92-1,6.44,6.44,0,0,1,.92-2,4.08,4.08,0,0,1,1-1.08,15.58,15.58,0,0,1,2.45-1.47,1.74,1.74,0,0,1,.59-.17,8.08,8.08,0,0,0,2-.51c.11,0,.22,0,.3-.18a5.87,5.87,0,0,1,2.13-.59L225,125c.08,0,.16,0,.25.06s.37.16.55.16a3,3,0,0,1,.73,0,1.34,1.34,0,0,1,.39.25c.12.09.13.47.1.51s0,.3.07.45a1.22,1.22,0,0,1,0,.17,8.31,8.31,0,0,1-1.35,1l-1,.34c-.49.17-1,.35-1.09.41a.6.6,0,0,1-.35,0c-.06,0-1.44.62-1.49.64-.3,0-.54.26-.91.12a.23.23,0,0,0-.18,0,11.92,11.92,0,0,1-1.47.45,3.56,3.56,0,0,0-.68.33s-.1,0-.15,0-.13,0-.18,0a4.68,4.68,0,0,0-1.38,1,1.49,1.49,0,0,1-.4.21,1.31,1.31,0,0,0-.35.27C216.13,131.62,215.63,131.61,215.66,131.72Z"/><path class="cls-1" d="M185.79,142.21a2,2,0,0,1-.84-1.84c0-.23.4-.51.59-.42.35.19.72.35,1.08.53.1.06.91.62,1.92,1.2l1,.56.27.17.36.23.71.47a13.18,13.18,0,0,1,2,1.7,8.84,8.84,0,0,1,2.47,4.52,6.78,6.78,0,0,1,.16,1.1,3.32,3.32,0,0,1,0,1,1.93,1.93,0,0,1-.09.49,1.4,1.4,0,0,1-.16.46,2.52,2.52,0,0,1-.55.85,2.67,2.67,0,0,1-.91.64,2.32,2.32,0,0,1-.74.23,2.59,2.59,0,0,1-.74,0l-.39,0-.45-.12a6.2,6.2,0,0,1-1.93-1.06,49.73,49.73,0,0,1-4-3.57c-.33-.31-.69-.67-1-.95a3.74,3.74,0,0,0-.47-.31,4.52,4.52,0,0,0-1-.38,1.15,1.15,0,0,0-.71-.05,13.84,13.84,0,0,0-2.24.26,9.11,9.11,0,0,0-1.42.46c-.38.16-.75.39-.88.42a6,6,0,0,0-3,2.41c-.08.16-.09.35-.28.47a1.3,1.3,0,0,0-.44,1.18,14,14,0,0,0,.09,1.91c0,.33-.06.73-.07,1.12a.36.36,0,0,1-.54.27c-.26-.25-.35.09-.49.19a.7.7,0,0,1-.17.09,4.39,4.39,0,0,1-.55-.59,8.91,8.91,0,0,1-.88-1.58,7.15,7.15,0,0,1-.47-3.19,7.25,7.25,0,0,1,.34-1.36,8.89,8.89,0,0,1,1.42-2.58,13.93,13.93,0,0,1,3.45-3,4.44,4.44,0,0,1,1.32-.52c.06,0,.46-.2,1.06-.39a11.68,11.68,0,0,1,2.28-.44,10.26,10.26,0,0,1,3.54.34,11,11,0,0,1,1.92.85,6.81,6.81,0,0,1,.83.6l.06.07h0v0a.27.27,0,0,0,0,.11c0,.07,0,.07,0,.07s.23.31.58.68c.16.17.25.16.32,0s.13.08.19.11.17.09.16,0c-.08-.26-.06-.4-.13-.58a1.18,1.18,0,0,0-.5-.53c-.06,0,0-.11-.13-.25l-.07-.11-.25-.27a4.45,4.45,0,0,0-.46-.43C186.6,143.4,186,142.37,185.79,142.21Z"/><path class="cls-1" d="M188.46,143.12c.51,1,.08,1.76.2,2.66a.44.44,0,0,1-.63.46,7.19,7.19,0,0,1-1.6-1.5c-.06-.08-.29-.51-.58-1a3.28,3.28,0,0,0-.49-.63.55.55,0,0,0-.25-.16.16.16,0,0,0-.09,0h0l-.09,0a6.68,6.68,0,0,0-3.34-.37c-.83.07-1.71.18-2.67.24s-2.13,0-2.86,0a16.05,16.05,0,0,0-4.82.72,11.7,11.7,0,0,0-3.92,2.19c-.23.23-.51.42-.75.66l-.37.34-.31.28a6.17,6.17,0,0,0-1.53,2.81,4.68,4.68,0,0,0,.17,2.89,1,1,0,0,0,.48.58.62.62,0,0,1,.24.15,4.34,4.34,0,0,0,.44.28,1.59,1.59,0,0,1,.32.16l.45.14a11.23,11.23,0,0,1,2.86,1.13,4.34,4.34,0,0,1,1.76,2,3.28,3.28,0,0,1,.31,1.22,3.57,3.57,0,0,1,0,1.14,5.08,5.08,0,0,1-1.58,2.66c-.43.4-1,.85-1.29,1.09l-.46.33-.11.07h0l-.1,0a.93.93,0,0,0-.25-.1l-.07,0h0l.42.11h0l0,.07-.05.12c0,.1,0,.15-.08.23a1.6,1.6,0,0,0-.11.49c0,.12.17.36.52.59a2.6,2.6,0,0,1,.7.42,3.22,3.22,0,0,0,2,.74c1,.18,2.1.31,3.22.56a5.06,5.06,0,0,1,1.62.79c.47.34,0,.66-.14.69-.51,0-.18.37-.2.56a.38.38,0,0,1-.05.22,27.09,27.09,0,0,1-3.15.27c-.85.05-1.75.08-2.5.06a10.27,10.27,0,0,1-1.58-.16,8.75,8.75,0,0,1-1.9-.62,5.51,5.51,0,0,1-2-1.53,5,5,0,0,1-1.05-3,6.76,6.76,0,0,1,.11-1.39l.06-.33c0-.14.09-.3.14-.45a4.3,4.3,0,0,1,.35-.81,8.74,8.74,0,0,1,.78-1.11c.24-.29.55-.6.51-.58s.06-.16,0-.19.12-.07.17-.16a.2.2,0,0,0-.15-.07h-.22s0,0,0,0l-.44-.12a4.05,4.05,0,0,1-.55-.2l-.48-.22a4.68,4.68,0,0,1-.9-.5c-.28-.19-.56-.39-.8-.59s-.46-.44-.66-.64a7.21,7.21,0,0,1-1.15-1.68,8.07,8.07,0,0,1-.48-6.12,6.23,6.23,0,0,0,.28-1.11,11.24,11.24,0,0,1,2.23-4.41,14.93,14.93,0,0,1,3.55-3.06,18.27,18.27,0,0,1,4.27-2,5.75,5.75,0,0,1,.83-.14c.34,0,.69-.08,1-.14a20.13,20.13,0,0,1,5.23-.33l1.14.05H179l2.48,0a11.43,11.43,0,0,1,2.83.61,10,10,0,0,1,2.94,1.61,3.48,3.48,0,0,1,.9,1.7C188.34,142.4,188.36,142.93,188.46,143.12Z"/><path class="cls-1" d="M180,172.78a2.23,2.23,0,0,1,1.11-.19,4.71,4.71,0,0,1,1.21.13c.27.05.5.5.3.7a9,9,0,0,1-1.28,1.17,6.46,6.46,0,0,1-3.47,1,5.9,5.9,0,0,1-3-.84,6.63,6.63,0,0,1-3-5,7.34,7.34,0,0,1,.09-1.7,6.59,6.59,0,0,0,.12-.92v-.13h0l0,0H172l-.39-.07a7.56,7.56,0,0,1-1.52-.36,4.29,4.29,0,0,1-1.14-.59,4.89,4.89,0,0,1-1-1,3.63,3.63,0,0,1-.47-1,3,3,0,0,1,.79-3.15,3.48,3.48,0,0,1,.63-.51c.64-.41.89-.52,1.13-.68a2,2,0,0,0,.4-.34,2.1,2.1,0,0,0,.36-.59,4.25,4.25,0,0,0,0-2.11s0,0,0-.07,0-.06-.06-.12l-.19-.21-.27-.26c-.43-.37-1-.79-1.6-1.25a6.92,6.92,0,0,0-1.16-.79,5.54,5.54,0,0,1-1.36-1.26,4.58,4.58,0,0,1-.53-.75,5.06,5.06,0,0,1-.49-1l-.1-.3a1.64,1.64,0,0,0-.05-.32c0-.22-.07-.43-.1-.65,0-.44.08-.89.07-1.35.16-.4.23-.72.35-1a3.73,3.73,0,0,1,.39-.95,6.88,6.88,0,0,1,1.1-1.65l.59-.62a4.73,4.73,0,0,1,.57-.43,7.75,7.75,0,0,1,.75-.49,13.06,13.06,0,0,1,7.82-.71,2.44,2.44,0,0,1,1,.24,7.29,7.29,0,0,0,2,.71,16.45,16.45,0,0,1,2.74,1,12.9,12.9,0,0,1,1.24.77c.37.24.09.39-.06.39-.44,0-.14.2-.14.31a.13.13,0,0,1,0,.12,7.58,7.58,0,0,1-.91,0c-.53,0-1.25,0-2,0s-1.44,0-2,.08-1,0-1.13,0-.53,0-1.23,0a13.28,13.28,0,0,0-2.51.17,5.93,5.93,0,0,0-2.11.75,1.91,1.91,0,0,0-.53.41c-.14.11-.23.2-.24.27s-.38.33-.52.58l-.12.24a1.17,1.17,0,0,0-.1.34,2.75,2.75,0,0,0-.09.45s.05.08.07.09l.4.38c.5.42,1.24.9,1.3,1,.47.38,1.07.75,1.66,1.27a5.88,5.88,0,0,1,1.72,2.32c.17.38.27.82.45,1.21a1.13,1.13,0,0,0,0,.18,8.9,8.9,0,0,1,.08,4.47,6,6,0,0,1-1.29,2.43,6.9,6.9,0,0,1-2,1.49l-.69.37h0l-.06-.09-.1-.14-.21-.26a1.53,1.53,0,0,1-.17-.21,1.53,1.53,0,0,0-.28-.29c-.29-.31-.45-.27-.32-.27a2.38,2.38,0,0,0,1-.43c.08-.07.29-.18.41-.28l.07-.05h0l-.35.29h0v0l.09-.1.14-.21s0,0,.06.05a2,2,0,0,0,.32.21,5.91,5.91,0,0,0,.76.31,4.57,4.57,0,0,1,.67.24,8.93,8.93,0,0,1,.78.44,3.65,3.65,0,0,1,1.26,1.3,4.12,4.12,0,0,1,.54,1.74,6.61,6.61,0,0,1,0,1.46l-.18,1.05a2.81,2.81,0,0,0,0,.58,2.75,2.75,0,0,0,.43,1.21,4.37,4.37,0,0,0,.74,1,2,2,0,0,0,1.22.67,1.35,1.35,0,0,1,.32.1l.48.14A2.15,2.15,0,0,0,180,172.78Z"/><path class="cls-1" d="M180.71,140.66c.38-.22.8.09,1.06.63a1.23,1.23,0,0,1,0,.77c-.17.17-.32.31-.46.47a7.3,7.3,0,0,0-.8.51c-.38.31-.82.65-1,.86a14.9,14.9,0,0,1-1.33,1.09c-1,.72-1.92,1.63-3.06,2.46a5.3,5.3,0,0,1-.73.42,7,7,0,0,0-2.26,1.59.66.66,0,0,0-.24.38,9.29,9.29,0,0,1-.79,1.1c-.37.47-.66.95-.78,1A5.73,5.73,0,0,0,169,153.7c-.06.09,0,.22-.19.28a.72.72,0,0,0-.41.64,6.2,6.2,0,0,1-.46,1,5.47,5.47,0,0,1-.4.5c-.12.15-.42.06-.46,0s-.26-.05-.39,0h-.15s-.27-.57-.54-1.21a3.13,3.13,0,0,1-.27-1.47s0-.25.09-.6a12,12,0,0,1,.3-1.29,13.86,13.86,0,0,1,.84-2.1,1.83,1.83,0,0,1,.46-.5s.46-.69.94-1.26a10.48,10.48,0,0,1,1-1.14,3.7,3.7,0,0,1,1.43-.9.64.64,0,0,0,.29-.16,15.76,15.76,0,0,1,2.28-1.42c.36-.21.69-.5,1.05-.76a.94.94,0,0,1,.23-.1,1.25,1.25,0,0,0,.28-.15c.85-.67,1.84-1.22,2.83-1.9a4.08,4.08,0,0,1,.9-.33c.41-.12.85-.17,1-.23S180.57,140.74,180.71,140.66Z"/><path class="cls-1" d="M165.17,146.55c0-.23.29-.23.73-.07a1.77,1.77,0,0,1,.53.38c.06.14.12.28.16.4a4.42,4.42,0,0,0,0,1.11,4.07,4.07,0,0,1,0,.69,4.84,4.84,0,0,0,.19,1.35.8.8,0,0,1,0,.31,1.45,1.45,0,0,0,.21,1.09c0,.06,0,.12.15.15a2.9,2.9,0,0,1,.67,1.07c0,.37.12.71.17,1.11,0,.06.07.08,0,.19a.32.32,0,0,0,0,.42,1.75,1.75,0,0,1,.17.47,1.35,1.35,0,0,1-.07.4c0,.13-.32.36-.37.37s-.23.2-.34.32l-.12.12a4.23,4.23,0,0,1-1.44-.38s-.09-.07-.21-.19a4.35,4.35,0,0,1-.44-.43l-.64-.8a.53.53,0,0,1-.07-.31,13.51,13.51,0,0,1-.74-1.29c-.07-.28-.24-.54-.09-.89a.2.2,0,0,0,0-.17,4,4,0,0,1-.06-1.51c0-.27,0-.51,0-.77a.39.39,0,0,1,.05-.14.87.87,0,0,0,.07-.17,10.87,10.87,0,0,1,.43-1.77c0-.16.52-.66.57-.8S165.17,146.63,165.17,146.55Z"/><path class="cls-1" d="M174.21,163.46c.16,0,.26.12.35.29a3.66,3.66,0,0,1,.29.62c.06.16,0,.56-.14.61a4,4,0,0,1-.86.22,3.45,3.45,0,0,1-1.61-.46,7.92,7.92,0,0,1-1.78-1.36,6.33,6.33,0,0,1-1.4-2.27,11,11,0,0,1-.5-5.16,4.3,4.3,0,0,1,.33-1.11c.54-1.21,1.05-2.37,1.69-3.5a1.52,1.52,0,0,0,.27-.59,5.68,5.68,0,0,1,1.26-1.72,7.79,7.79,0,0,1,1.72-1.37,17.08,17.08,0,0,1,3.11-1.11.78.78,0,0,1,.48,0,1.56,1.56,0,0,0,1,0,4,4,0,0,1,1.33,0,4.16,4.16,0,0,1,.67.18c.2.06.15.32.09.37s0,.23.05.33a.7.7,0,0,1,0,.12s-.53.39-1,.83-1,.83-1,.9-.7.43-1.36.84a9,9,0,0,0-1.34,1.11,1,1,0,0,1-.43.26,6.2,6.2,0,0,0-.74.95,9.39,9.39,0,0,0-.58,1c-.27.37-.36.81-.78,1.12a.52.52,0,0,0-.13.24,17.7,17.7,0,0,0-.62,2.3,6.13,6.13,0,0,0,0,1.21c0,.08-.05.15-.06.23a1.33,1.33,0,0,0,0,.28,9.42,9.42,0,0,0,.23,1.41,3.52,3.52,0,0,0,.49,1.28c.07.08.14.39.27.66a1.73,1.73,0,0,0,.4.6C173.91,162.83,174.07,163.42,174.21,163.46Z"/><path class="cls-1" d="M324.65,40.36a25,25,0,0,0,3.31-.83,4.6,4.6,0,0,0,1.26-.65c0-.06.12-.11.16-.16s0,0,.06-.12a1.46,1.46,0,0,0,.05-.54c0-.48-.54-1-1.15-1.49s-1.18-.87-1.82-1.36a6.39,6.39,0,0,1-1.79-1.89,3.07,3.07,0,0,1-.4-1.43,3.7,3.7,0,0,1,.26-1.39A6.26,6.26,0,0,1,326,28.38a10,10,0,0,1,3.84-2,12.63,12.63,0,0,1,5.32-.56c.57.1.44.39,0,.67a6.45,6.45,0,0,1-2.18.75,14.25,14.25,0,0,0-4.65,1.49,5,5,0,0,0-1.63,1.41,3.1,3.1,0,0,0-.77,1.79c0,.65.69,1.37,1.53,2A18.37,18.37,0,0,1,330.19,36a3.32,3.32,0,0,1,1,2.08,2.82,2.82,0,0,1-.2,1.19,1.85,1.85,0,0,1-.36.58,2.74,2.74,0,0,1-.43.41,10.26,10.26,0,0,1-3.59,1.43c-1.47.37-2.94.61-4.36.93a11.74,11.74,0,0,0-1.51.43,6.62,6.62,0,0,0-1.33.78,7,7,0,0,0-2,2.33,4.23,4.23,0,0,0-.55,2.2,2.45,2.45,0,0,0,.88,1.76,2.87,2.87,0,0,0,.78.46c1.09.48,1.53.63,1.76,1a2.29,2.29,0,0,1,.17.27c.06.15-.06.25-.34.32a3.19,3.19,0,0,1-1.3.06,3.61,3.61,0,0,1-1.28-.38,4.47,4.47,0,0,1-1.22-.81,4.23,4.23,0,0,1-1.14-2.85,6,6,0,0,1,.7-2.82,8.68,8.68,0,0,1,1.63-2.26,8.89,8.89,0,0,1,1.65-1.26c.32-.16.6-.34,1-.48a7,7,0,0,1,1-.33c1.25-.31,2.42-.51,3.58-.76Z"/><path class="cls-1" d="M105.57,234a6.69,6.69,0,0,1,1.31-2.9,17.55,17.55,0,0,1,1.88-2.15l1.45-1.33c.8-.74,1.05-1.14.68-2.07a4.22,4.22,0,0,0-.35-.66,3.31,3.31,0,0,0-.47-.53,4.92,4.92,0,0,0-1.29-.86,10.43,10.43,0,0,0-2.79-.87c-1.25-.24-2.53-.32-3.8-.66-.78-.2.4-1.31,1.9-1.16a20.9,20.9,0,0,1,4,.82,6.69,6.69,0,0,1,3.7,2.52,5.83,5.83,0,0,1,.66,1.27,2.76,2.76,0,0,1,.11,1.67,5.09,5.09,0,0,1-1.73,2.3,15.56,15.56,0,0,0-1.82,1.81,9.52,9.52,0,0,0-1.37,2.07,2,2,0,0,0,.18,2.37,5.65,5.65,0,0,0,1.9,1.19,19.71,19.71,0,0,0,2.32.77c1.24.32,2.5.49,3.77.81.28.07.56.14.84.23,1,.36,1.31.66,1.31,1.19a2,2,0,0,1,0,.35c-.08.38-.58.45-1.29.31a48.85,48.85,0,0,1-6.9-1.65,9.54,9.54,0,0,1-2.74-1.41,4,4,0,0,1-1.21-1.45,3.65,3.65,0,0,1-.33-2Z"/><path class="cls-1" d="M59.38,85.24a6.7,6.7,0,0,1,2.32-1.3c.72-.27,1.42-.5,2.1-.73a17.86,17.86,0,0,0,1.92-.78,2.47,2.47,0,0,0,1.14-.9c.07-.12,0-.39-.23-.72a3.77,3.77,0,0,0-1-.8,21.7,21.7,0,0,0-2.46-1.2,6.83,6.83,0,0,1-2.61-1.75,3.12,3.12,0,0,1-.45-.8,3,3,0,0,1-.13-.92l0-.44c0-.14.07-.28.1-.41a3.22,3.22,0,0,1,.29-.77,6.75,6.75,0,0,1,1.94-2.37,17.62,17.62,0,0,1,4.46-2.6,16.85,16.85,0,0,1,6.32-1.6c.69,0,.6.26.08.62A9.54,9.54,0,0,1,70.68,69,24.67,24.67,0,0,0,65,71.47a10.94,10.94,0,0,0-2.36,1.79,3.61,3.61,0,0,0-1.12,2.23c0,.79,1.13,1.49,2.31,2a12.37,12.37,0,0,1,3.8,2,3.27,3.27,0,0,1,.79,1.18,2.09,2.09,0,0,1-.07,1.66,4.33,4.33,0,0,1-2,1.74c-1.4.71-2.83,1.14-4.13,1.71a6.54,6.54,0,0,0-1.09.57,5.28,5.28,0,0,0-.83.82,3,3,0,0,0-.87,2,1.88,1.88,0,0,0,.19.72,2,2,0,0,0,.48.6,6,6,0,0,0,1.61.93,17.06,17.06,0,0,0,3.85,1,41.59,41.59,0,0,0,6.21.38l1.36,0c1.71.12,2.25.28,2.62.76a2.91,2.91,0,0,1,.24.31c.17.35-.54.67-1.82.84a18.67,18.67,0,0,1-2.9.16c-1,0-2,0-3-.14a33.22,33.22,0,0,1-6.08-1,12.85,12.85,0,0,1-2.31-.91,4.76,4.76,0,0,1-2.21-2.13,3.83,3.83,0,0,1,0-3.26,7.67,7.67,0,0,1,1.63-2.13Z"/><path class="cls-1" d="M203.57,134.56l-4.15,1.68c-.51.21-1,.47-1.5.67-1.79.72-3.59,1.4-5.41,2.08-.81.31-1.62.64-2.44.92a8.86,8.86,0,0,1-3.27.73c-.35,0-.36-.36-.15-.78a2.43,2.43,0,0,1,1.16-1.19c2-.67,4-1.45,6.13-2.13a39.62,39.62,0,0,0,3.76-1.6l4.17-1.77,2.57-1.07c1.29-.55,2.61-1.07,3.89-1.63,1-.43,1.93-1,2.92-1.42l.65-.29c.83-.31,1.16-.24,1.49.12.07.08.16.15.22.23.18.26,0,.7-.59,1.06a31.93,31.93,0,0,1-5.28,2.69l-4.14,1.74Z"/><path class="cls-1" d="M165.16,248.69l.12,0c.2.13-1.08,3.5,1.38,4.45,3.21,1.24,4.45-2.16,4.45-1.36,0,3.34-5.84,7.35-6.9,5.39-1-1.76-.78-4.31-.31-6.18C164,250.59,164.54,248.57,165.16,248.69Z"/><path class="cls-1" d="M367.07,446.2l4.68,9.07s19.85-13.54,24.18-9.87S384.45,462.21,377,463.92s-12.12,7.72-18.37-2.87l-5.26-8s8.68-6.38,13.71-5.68"/><path class="cls-1" d="M406.22,358.54s4.13-6.23,9-8.45l5.13,9.25s20.06-16.28,23.95-10.95-19.71,20.57-23,21.24S410.79,367.91,406.22,358.54Z"/><path class="cls-1" d="M282.55,330.56s20.12,28.23,26.16,49.34,12.79,40.31,17.34,40.31c7.3,0,23.64-7.08,30-18.32,0,0-6.88-32.39-22.23-57.11l-13.39-25.73S285.51,331.56,282.55,330.56Z"/><path class="cls-1" d="M248.19,302.92s63.46-38.52,87.26-39.33,36.93-.91,49.13,18.26S404,313.53,402.7,314s-20.71,18.28-25,17.29-16.54-8.65-16.82-33.94c0,0-36.52,20.63-47.72,24.76C294.53,329,264.6,347.17,248.19,302.92Z"/><path class="cls-1" d="M252,149.93a1,1,0,0,0,.27-.17,1.25,1.25,0,0,0,.12-.08l0-.06c.08,0,.07-.07.09-.1s0-.16,0-.23a4.16,4.16,0,0,0-.77-1.7,15.49,15.49,0,0,0-1.09-1.23,25,25,0,0,0-4.74-3.89,18.12,18.12,0,0,0-2.48-1.27c-1.07-.5-2.18-.9-3.24-1.49-.33-.19-.19-.49.23-.72a2.74,2.74,0,0,1,1.82-.27c.62.17,1.24.32,1.85.53a16.31,16.31,0,0,1,1.76.79,17,17,0,0,1,3.25,2.09,37.73,37.73,0,0,1,3.64,3.13,9.1,9.1,0,0,1,1.6,2.29,3.42,3.42,0,0,1,.29.7,3.23,3.23,0,0,1,.18.8l0,.44a4,4,0,0,1-.07.48,2.2,2.2,0,0,1-.34.87,3.53,3.53,0,0,1-.67.81c-.25.2-.52.37-.78.54l-.8.38-.81.28a19.55,19.55,0,0,1-4.89.54,26.82,26.82,0,0,1-3.79-.1,8.32,8.32,0,0,1-.85-.13c-1.07-.28-1.32-.73-1.19-1.43a4.38,4.38,0,0,1,.08-.44,1.34,1.34,0,0,1,1.34-.69,37.29,37.29,0,0,0,5.93.18,16.37,16.37,0,0,0,2.18-.3,6.21,6.21,0,0,0,1.76-.6Z"/><path class="cls-1" d="M186.1,150.81a6.46,6.46,0,0,0-4.07-1.55,5.45,5.45,0,0,0-3.81,2,10.73,10.73,0,0,0-1.81,3,6.4,6.4,0,0,0,.29,5.7,11.31,11.31,0,0,0,4.57,4.27,14.63,14.63,0,0,0,2.7,1.08,17.46,17.46,0,0,0,2.84.51,12.55,12.55,0,0,0,3.63-.22,10.72,10.72,0,0,0,3.37-1.17c.65-.36.88,0,.59.75a4.9,4.9,0,0,1-2.92,2.68,13.25,13.25,0,0,1-4.45.53,14.72,14.72,0,0,1-4.32-.84,14.5,14.5,0,0,1-7.13-5.09,9.94,9.94,0,0,1-1.92-5.18,9.27,9.27,0,0,1,1.39-5.31,11.28,11.28,0,0,1,4.18-4.19,7.09,7.09,0,0,1,3-.71,7.85,7.85,0,0,1,3,.65,11.14,11.14,0,0,1,3,2c.9.77,1.63,1.76,2.33,2.42a4.36,4.36,0,0,0,1.81,1.1.86.86,0,0,0,1.15-.57,2.33,2.33,0,0,0,.05-1,4.07,4.07,0,0,0-.26-1,10.77,10.77,0,0,0-1.14-2.06c-1.4-2.1-3.29-3.87-4.75-6.13a13.29,13.29,0,0,1-.89-1.57,4.89,4.89,0,0,1-.56-2.44,1.42,1.42,0,0,1,.51-1.12,1.81,1.81,0,0,1,.29-.28c.15-.09.28.1.48.45s.36.82.67,1.43a12.46,12.46,0,0,0,1.75,2.64c.7.86,1.42,1.76,2.19,2.68s1.53,1.87,2.27,3a10.08,10.08,0,0,1,1.74,3.94,4.6,4.6,0,0,1-.07,2,3.39,3.39,0,0,1-1.53,2.05,3.44,3.44,0,0,1-2.49.25,5.39,5.39,0,0,1-1.71-.78,8.87,8.87,0,0,1-1.27-1.05c-.19-.18-.37-.38-.54-.57l-.46-.52a11.78,11.78,0,0,0-1.74-1.65Z"/><path class="cls-1" d="M166.29,170.09a7.22,7.22,0,0,1-3.49-2.39,4.45,4.45,0,0,1-.45-.68,2.23,2.23,0,0,1-.35-.75,7.14,7.14,0,0,1,.57-5.1c.29-.66.62-1.3,1-1.91a6,6,0,0,1,1.69-2.12c.24-.17.52.17.69.63a1.71,1.71,0,0,1,0,1.4,17.31,17.31,0,0,0-1.14,2.06,15.43,15.43,0,0,0-.9,2.1,3.22,3.22,0,0,0,.25,2.49,4.26,4.26,0,0,0,2.12,1.89,13.11,13.11,0,0,0,2,.61,16.52,16.52,0,0,0,3.18.48,10.36,10.36,0,0,0,2.39-.28,4.43,4.43,0,0,1,.49-.13c.61-.13.81,0,1.11.47.07.12.15.23.21.36.2.39,0,.85-.52,1.11A9.09,9.09,0,0,1,170,171a20.35,20.35,0,0,1-3.73-.83Z"/><path class="cls-1" d="M179.92,176.54a16.75,16.75,0,0,1-3.24-.06,8.39,8.39,0,0,1-1.21-.17,6.78,6.78,0,0,1-2.05-.91,4.34,4.34,0,0,1-1.59-1.82,3.73,3.73,0,0,1-.23-2.12,3.37,3.37,0,0,1,1.1-2.16c.19-.16.5.12.75.51a1.87,1.87,0,0,1,.41,1.18,2.53,2.53,0,0,0-.06,1.29,1.91,1.91,0,0,0,.45,1,3.21,3.21,0,0,0,2,.73,11.89,11.89,0,0,0,2.69.15,17,17,0,0,0,1.71-.21,12.78,12.78,0,0,0,2.56-.7A12.64,12.64,0,0,0,185,172.2a1.83,1.83,0,0,1,.38-.23c.51-.23.75-.14,1.13.35a4.19,4.19,0,0,1,.26.33,1,1,0,0,1-.08,1.21,7.32,7.32,0,0,1-3.57,2.09,18.22,18.22,0,0,1-3.14.65Z"/><path class="cls-1" d="M171.65,249.82a130.54,130.54,0,0,1,6-17.54,81.21,81.21,0,0,1,4.15-8.36,45,45,0,0,1,5.45-7.75,46.62,46.62,0,0,1,10.56-8.83,38.81,38.81,0,0,1,5.48-2.72c.94-.38,1.91-.71,2.88-1l3-.75a22.53,22.53,0,0,1,12.33.86,27.62,27.62,0,0,1,10.13,6.84,46.53,46.53,0,0,1,7.08,9.71,73.5,73.5,0,0,1,4.5,9.6,92.73,92.73,0,0,1,3.26,10,85.89,85.89,0,0,1,2.5,13.26c.38,4.48.55,9.08-.84,13.59a4.49,4.49,0,0,1-.74,1.46c-.22.28-.36.36-.45.29s-.12-.31-.11-.66.08-.81.07-1.41a42.62,42.62,0,0,0-.11-4.72c-.14-1.95-.4-4.22-.63-6.69a92.44,92.44,0,0,0-6.33-25.74,63.48,63.48,0,0,0-6.2-11.66,33.54,33.54,0,0,0-9-9.24,20.18,20.18,0,0,0-7.1-2.86l-1.93-.27c-.64,0-1.3,0-2,0-.33,0-.65,0-1,0l-1,.13c-.65.1-1.31.13-1.95.29a39,39,0,0,0-3.85,1.11c-1.27.47-2.52,1-3.73,1.6a40.62,40.62,0,0,0-6.86,4.32,46.56,46.56,0,0,0-6.49,6.13,47.37,47.37,0,0,0-5,7.44A99.47,99.47,0,0,0,176.69,243a149.24,149.24,0,0,0-5.4,21.87,140.19,140.19,0,0,0-1.88,17,86.86,86.86,0,0,0,.72,16.93,38.21,38.21,0,0,0,3.8,12.22,18.09,18.09,0,0,0,3.75,4.88,11.78,11.78,0,0,0,5.25,2.75,15,15,0,0,0,5.27.18c.84-.14,1.6-.25,2.29-.44s1.33-.34,1.9-.52c1.15-.31,2.08-.65,2.86-.87a19.36,19.36,0,0,1,1.93-.57,8.22,8.22,0,0,1,1.38-.26,10.38,10.38,0,0,1,1.1-.1c.42.05,0,.5-1,1.3a23.56,23.56,0,0,1-5.45,2.92,21.85,21.85,0,0,1-6.1,1.36,15.74,15.74,0,0,1-6.51-.84,15.15,15.15,0,0,1-5.62-3.67,21.88,21.88,0,0,1-3.77-5.4,42.65,42.65,0,0,1-3.7-12.25,81.11,81.11,0,0,1-1-12.63,147.08,147.08,0,0,1,5.07-37Z"/><path class="cls-1" d="M204.92,301.76a326.06,326.06,0,0,1-4-39.23c-.15-4.8-.22-9.61,0-14.42a120,120,0,0,1,1.29-12.68,72.43,72.43,0,0,1,3-12.43A45.11,45.11,0,0,1,211,211.51c.6-.89,1.34-1.7,2-2.55s1.5-1.55,2.25-2.34,1.66-1.4,2.5-2.08,1.75-1.23,2.65-1.8a35.49,35.49,0,0,1,5.05-2.72,21.32,21.32,0,0,1,2.75-1,14,14,0,0,1,1.46-.3l.43-.06a2.37,2.37,0,0,1,.53,0,3.21,3.21,0,0,1,.87.41c1.65,1.13,3,2.34,4.48,3.48s2.92,2.28,4.43,3.3a24.69,24.69,0,0,0,6.13,3.18,7.7,7.7,0,0,0,3.19.37,4.15,4.15,0,0,0,1.42-.45,1.21,1.21,0,0,0,.7-.82,5.08,5.08,0,0,0-.81-2.86c-.52-1-1.15-2-1.76-3.05a35.2,35.2,0,0,1-1.73-3.22,8.39,8.39,0,0,1-.86-3.77,3.32,3.32,0,0,1,.64-1.77c.27-.3.42-.38.48-.31s-.29.9-.13,2.08a10.9,10.9,0,0,0,2.09,4.39l2,2.86a16.11,16.11,0,0,1,2,3.74,4.53,4.53,0,0,1,.16,2.53,3.62,3.62,0,0,1-.29.72,4.74,4.74,0,0,1-.46.62c-.17.16-.36.33-.54.47L252,211a7.43,7.43,0,0,1-4.36.57,20.14,20.14,0,0,1-7.18-3,65.45,65.45,0,0,1-6-4.36l-2.84-2.27a15.91,15.91,0,0,0-1.34-1l-.08,0-.28,0-.4.08a22.63,22.63,0,0,0-6.31,2.61,36.77,36.77,0,0,0-5.78,4A33.22,33.22,0,0,0,209.08,219a60.74,60.74,0,0,0-4.82,16.84,125.51,125.51,0,0,0-1.32,17.86A275.9,275.9,0,0,0,205.79,293c1.09,8,2.4,16,3.86,24,1.1,6,2.29,12.08,3.5,18.12s2.43,12,3.8,18c1.07,4.62,2.22,9.17,3.51,13.66.63,2.24,1.33,4.46,2.06,6.68a56.27,56.27,0,0,0,2.41,6.49,15,15,0,0,0,3.43,4.71,40.61,40.61,0,0,0,6.48,4.64,20,20,0,0,0,3.16,1.47,5.08,5.08,0,0,0,.59.16,4,4,0,0,1,.5.08c.21.06.17.14-.11.26a3.39,3.39,0,0,1-1.61.18,14.21,14.21,0,0,1-6.14-2.56c-.91-.58-1.78-1.21-2.63-1.85a17.66,17.66,0,0,1-2.51-2.2,19.37,19.37,0,0,1-3.5-5.73c-.85-2.06-1.5-4.11-2.19-6.17s-1.33-4.17-1.94-6.28c-2.43-8.45-4.34-17.13-6.19-25.83-2.69-12.91-5.32-25.93-7.4-39Z"/><path class="cls-1" d="M226.36,339.77c-.62-6.29-1-12.58-1.32-18.87-.11-2.29-.28-4.59-.35-6.88-.29-8.09-.24-16.18-.25-24.26,0-3.59,0-7.19-.06-10.75,0-4.57,0-9.16.3-13.72.1-1.42.35-1.24.68,0a31,31,0,0,1,.93,6.06c.33,9.32.34,18.63.35,28,0,5.62.31,11.46.53,17.2.25,6.31.59,12.62,1.09,18.91.32,3.87.69,7.74,1.23,11.57.39,2.91.85,5.82,1.47,8.68a41.94,41.94,0,0,0,2.5,8.3,13.27,13.27,0,0,0,1.67,2.75,12.8,12.8,0,0,0,2.38,2.13l1.37,1,.79.55c.34.26.7.52,1,.8a2.44,2.44,0,0,1,1.15,1.58,1.84,1.84,0,0,1-1.23,1.55,4.41,4.41,0,0,1-2.05.24,9.85,9.85,0,0,1-1.15-.19,7.76,7.76,0,0,1-.79-.22c-3.79-1.32-4.53-3.08-4.45-4a1.46,1.46,0,0,1,.14-.62c.16-.21.35,0,.76.42a10.64,10.64,0,0,0,2.24,1.48,10.81,10.81,0,0,0,2.57.92,1,1,0,0,0,.15,0h.07l.13,0a.22.22,0,0,0,.18-.1c.05-.06,0-.14-.08-.17l-.17-.1c.12.1-.51-.35-.9-.61s-.87-.61-1.31-.94a14.54,14.54,0,0,1-2.54-2.38,10.53,10.53,0,0,1-1-1.48l-.81-1.53a38.94,38.94,0,0,1-2.15-6.26,132.81,132.81,0,0,1-3.13-19Z"/><path class="cls-1" d="M235.33,379.54a10.77,10.77,0,0,1-1.55-1.08c-.18-.14-.37-.27-.54-.43a8.41,8.41,0,0,1-1.43-2l-.53-.91a2.36,2.36,0,0,1-.46-1.25c0-.28,1.45-.37,1.62,0,.33.68.64,1.31,1,2a3.22,3.22,0,0,0,1,1,11.22,11.22,0,0,0,1.3.92c.3.17.59.34.9.48a10.53,10.53,0,0,0,1.47.6c.4.11.82.15,1.25.26l.28.07a.62.62,0,0,1,.24.77l-.06.22a.92.92,0,0,1-.6.43,4,4,0,0,1-2.23-.29,14.33,14.33,0,0,1-1.67-.75Z"/><path class="cls-1" d="M234.82,383a16.66,16.66,0,0,1-1.89-1.56c-.21-.21-.47-.37-.66-.6a16.52,16.52,0,0,1-1.88-2.48c-.26-.38-.51-.76-.78-1.12a3.79,3.79,0,0,1-.79-1.56c-.06-.36,1.53-.6,1.82-.11.55.89,1.12,1.75,1.68,2.7a6.82,6.82,0,0,0,1.37,1.42c.55.48,1.1,1,1.7,1.4.36.27.75.51,1.14.75a11.08,11.08,0,0,0,1.88.88A9.58,9.58,0,0,0,240,383l.35,0a.81.81,0,0,1,.52.78c0,.08,0,.17,0,.25,0,.26-.23.47-.62.61a5.05,5.05,0,0,1-3.24-.45,15.46,15.46,0,0,1-2.2-1.17Z"/><path class="cls-1" d="M233.17,386.09l-1.08-.73-1.17-.82-.27-.3c-.24-.27-.51-.5-.73-.77a36.56,36.56,0,0,1-2.14-3.07l-.92-1.39a3.34,3.34,0,0,1-.7-2.17c0-.28.33-.17.65,0s.66.29.8.56c.56,1,1.46,2.06,2.22,3.19a17.43,17.43,0,0,0,1.71,1.85l.31.33.24.26a2.19,2.19,0,0,0,.31.22l.39.25.81.5c.49.29,1,.58,1.49.85a18.38,18.38,0,0,0,2.34,1.1,10.09,10.09,0,0,0,1.91.38,2.85,2.85,0,0,1,.41,0c.48.12.59.32.67.79,0,.11.05.21.06.32,0,.34-.23.62-.72.76a7.08,7.08,0,0,1-4-.69,22.51,22.51,0,0,1-2.61-1.4Z"/><path class="cls-1" d="M279.7,238.34c-1.44-4.19-2.93-8.35-4.55-12.47-.59-1.5-1.25-3-1.86-4.46a109.79,109.79,0,0,0-7.5-15.23,35.15,35.15,0,0,0-4.53-5.92c-2.19-2.23-4.89-4-7.88-4.21-.92,0-.91-.35,0-.8a4.43,4.43,0,0,1,1.93-.44,6.5,6.5,0,0,1,2.71.67,22.51,22.51,0,0,1,7.58,7,56,56,0,0,1,5.13,8.69c1.75,3.62,3.58,7.35,5.16,11.12,1.74,4.14,3.33,8.34,4.86,12.55.93,2.59,1.85,5.19,2.77,7.78,1.39,3.94,2.72,7.91,4.15,11.79,1.1,3,2.35,5.91,3.6,8.81.28.63.56,1.25.85,1.88,1.05,2.36,1.31,3.08,1.07,3.86a3.3,3.3,0,0,1-.17.53c-.24.48-1.21-.27-2.17-2-2.81-5.11-4.73-10.81-6.75-16.48l-4.4-12.68Z"/><path class="cls-1" d="M316.91,189.83c-5,2.8-10.27,5.44-16.12,6.47a20.89,20.89,0,0,1-6.52.27c-3.72-.57-7.23-1.45-10.79-2.2s-7.12-1.48-10.7-2a70.2,70.2,0,0,0-9.56-.81,51.05,51.05,0,0,0-12.05,1.23c-1.23.27-1.22-.12-.29-.81a11.12,11.12,0,0,1,2.05-1.22,17.52,17.52,0,0,1,3.21-1c1.07-.12,2.15-.32,3.24-.38l3.24-.08,3.23.12,3.2.28a107.35,107.35,0,0,1,12.62,2.18c2.49.56,5,1.11,7.57,1.61a39.71,39.71,0,0,0,7.52,1c5.48-.09,10.83-2.24,15.81-4.84,3.08-1.62,6.1-3.42,9-5.32a113.66,113.66,0,0,0,12.59-9.64c3.06-2.71,5.85-5.6,8.62-8.54l1.83-1.92c2.29-2.41,3.18-3,4-3.25a3.25,3.25,0,0,1,.56-.14c.47,0-.17,1.24-1.67,3.21-1.15,1.43-2.35,2.84-3.59,4.25s-2.6,2.73-4,4.06c-2.73,2.66-5.64,5.23-8.67,7.67a110.67,110.67,0,0,1-14.34,9.8Z"/><path class="cls-1" d="M320.54,211.76c-1.34.78-2.61,1.57-4.08,2.34a41.9,41.9,0,0,1-4.39,1.87c-1.08.38-2.15.8-3.25,1.1a76.23,76.23,0,0,1-11.8,2.25c-1.76.2-3.53.42-5.28.58a35.54,35.54,0,0,1-6.76.24c-.71,0-.61-.55,0-1a5.07,5.07,0,0,1,2.91-1.06c4.49-.24,9-.71,13.46-1.34a49.38,49.38,0,0,0,8-2.05,35.87,35.87,0,0,0,8.24-3.75c1.63-1,3.27-2,4.86-3a52.34,52.34,0,0,0,6.87-5.08c1.65-1.47,3.08-3.11,4.56-4.71.32-.36.63-.72,1-1.07,1.24-1.31,1.76-1.6,2.43-1.52a2.75,2.75,0,0,1,.44.06c.4.13.19.94-.6,2a45.19,45.19,0,0,1-8.67,8.95,79.31,79.31,0,0,1-7.89,5.24Z"/><path class="cls-1" d="M303.85,326.44a125.79,125.79,0,0,1-14,4.31c-1.2.26-2.39.56-3.6.76l-1.82.34-1.83.25a37.11,37.11,0,0,1-7.47.34,23.71,23.71,0,0,1-10.62-3.08,29.35,29.35,0,0,1-7.43-6.17,46,46,0,0,1-5.56-7.73,72,72,0,0,1-4.17-8.45c-1.24-2.88-2.31-5.82-3.28-8.79-1.73-5.26-3.21-10.62-4.5-15.94q-1.25-5.13-2.33-10.3c-.76-3.43-1.28-6.93-2.06-10.29-.51-2-.18-1.94.82-.28a38.61,38.61,0,0,1,3.15,8.86c1.58,7,3.19,13.92,5.16,20.75A120.32,120.32,0,0,0,251.78,311a46.53,46.53,0,0,0,7.11,10.64,25.64,25.64,0,0,0,10.34,7.18l1.64.54c.55.16,1.13.23,1.69.35A20.82,20.82,0,0,0,276,330a41.15,41.15,0,0,0,7.07-.49,85.69,85.69,0,0,0,14-3.41c5.65-1.81,11.21-4,16.68-6.34,8.29-3.58,16.48-7.52,24.48-11.61,6.22-3.18,12.21-6.51,18.35-9.71,1.35-.71,2.67-1.41,4.05-2.09a41.66,41.66,0,0,1,5.56-2.43,6.45,6.45,0,0,1,2.75-.44,5.37,5.37,0,0,1,.91.1c.7.27-1.28,1.51-4.93,3.45C354,302.71,342.56,309,330.76,314.7c-8.74,4.28-17.67,8.36-26.87,11.79Z"/><path class="cls-1" d="M356,264a58.61,58.61,0,0,0-14.13.08,103,103,0,0,0-14.05,2.71c-3.37.94-6.7,2-10,3.15-5.85,2-11.62,4.27-17.36,6.65s-11.32,5.05-16.88,7.82c-4.94,2.45-9.84,5.07-14.68,7.64-6.21,3.31-12.39,6.76-18.82,9.67-2,.91-2,.27-.59-1.07a38.12,38.12,0,0,1,7.76-5.3c12.66-6.76,25.32-13.64,38.72-19.42q6-2.55,12.27-5.05c4.14-1.67,8.36-3.25,12.61-4.61,9.34-3,19.09-5.15,29-5.2a48.48,48.48,0,0,1,18,3.21,38,38,0,0,1,11.47,7.81,69.4,69.4,0,0,1,8.8,10.54,156,156,0,0,1,10.74,18c.71,1.36,1.41,2.69,2.08,4.08,2.49,5.16,3.06,6.89,2.93,8.3a5.53,5.53,0,0,1-.11.94c-.28.73-1.65-1.2-3.55-4.92-2.83-5.5-5.71-11.14-8.94-16.64a97.38,97.38,0,0,0-11.07-15.62,41.42,41.42,0,0,0-10.81-8.82A37.18,37.18,0,0,0,356,264.07Z"/><path class="cls-1" d="M309.07,384.46q-2.71-6.88-5.68-13.68c-.7-1.66-1.53-3.26-2.25-4.9-2.63-5.77-5.34-11.52-8.41-17.07-.65-1.25-1.38-2.46-2.1-3.67s-1.42-2.43-2.18-3.6q-1.49-2.25-2.91-4.54c-1-1.49-2-3-2.9-4.54-.57-1-.17-1.07.7-.52a14.12,14.12,0,0,1,3.45,3.45q3.18,4.56,5.91,9.4c.94,1.59,1.8,3.24,2.67,4.88s1.7,3.3,2.5,5l3,6.08c1,2,2,4.11,3,6.18,2.09,4.54,4,9.15,5.93,13.76,1.14,2.86,2.29,5.71,3.43,8.56,1.7,4.33,3.4,8.68,5.09,13,1.33,3.34,2.74,6.56,4.13,9.82l.92,2.14c1.11,2.7,1.32,3.61,1,4.41a3.34,3.34,0,0,1-.2.52c-.27.41-1.1-.54-2-2.48-2.69-5.76-5.14-12-7.6-18.21-1.82-4.63-3.62-9.3-5.51-13.91Z"/><path class="cls-1" d="M353.51,392.85c-2.24-6.31-4.93-12.53-7.67-18.7-1-2.26-2.09-4.47-3.11-6.72q-5.42-11.87-11.08-23.65c-1.65-3.49-3.38-7-5.09-10.4a142.6,142.6,0,0,1-6.12-13.5c-.51-1.48-.23-1.35.54-.27.39.53.94,1.29,1.58,2.22.31.48.65,1,1,1.52l.53.84.5.91,3.51,6.67c1.16,2.24,2.28,4.49,3.4,6.75q3.39,6.75,6.51,13.7c2.5,5.53,5.35,11.18,7.94,16.83,2.85,6.21,5.63,12.46,8.14,18.84.77,2,1.51,3.95,2.18,6a35.13,35.13,0,0,1,1.61,6.25,8,8,0,0,1,.07,1.32,5.22,5.22,0,0,1-.1.74l-.14.41c-.05.12-.09.19-.13.29-.35.74-.77,1.46-1.19,2.17a24,24,0,0,1-3.09,3.86,33.94,33.94,0,0,1-7.9,5.67,64.92,64.92,0,0,1-13.84,5.22c-1.06.24-2.09.49-3.16.72a19.81,19.81,0,0,1-4.27.52,3.43,3.43,0,0,1-2-.52,5,5,0,0,1-.61-.4c-.43-.41,1.1-1.3,3.93-1.82A97.6,97.6,0,0,0,338,414.82a41.18,41.18,0,0,0,11.47-6.11A23.16,23.16,0,0,0,353,405.5a18.42,18.42,0,0,0,1.46-1.84,10.23,10.23,0,0,0,.62-1l.28-.52.13-.28.07-.13,0-.07,0,0,.26.12h0l-.05,0-.18-.08h0l0-.14a2.49,2.49,0,0,0,0-.41,8.64,8.64,0,0,0-.11-1.07,23.55,23.55,0,0,0-.52-2.34c-.43-1.58-1-3.18-1.53-4.76Z"/><path class="cls-1" d="M382.29,330.26a15.88,15.88,0,0,1-5.86,2.3,4.82,4.82,0,0,1-1.94-.13l-.51-.15a4.67,4.67,0,0,1-.49-.27,3.22,3.22,0,0,1-.84-.67,6.17,6.17,0,0,1-.55-.65c-.16-.21-.3-.41-.45-.62-.28-.4-.56-.81-.83-1.22-.77-1.21-1.55-2.39-2.23-3.63a95.1,95.1,0,0,1-6.09-13.55,65.72,65.72,0,0,1-2-6.3,26.74,26.74,0,0,1-.74-4.2,10.88,10.88,0,0,1,.41-4.34c.33-.89.64-.58.83.2a24.61,24.61,0,0,1,.61,3.5,39.2,39.2,0,0,0,1.89,7.93c.87,2.63,1.89,5.24,3,7.84a66.44,66.44,0,0,0,4.87,9.1c.5.81,1,1.6,1.53,2.37.27.39.54.77.81,1.13a6.84,6.84,0,0,0,.77.9,2.25,2.25,0,0,0,1.91.3,10.39,10.39,0,0,0,2.47-.86,44.34,44.34,0,0,0,5.92-3.6c2.91-2,5.81-4.19,8.69-6.29a70.1,70.1,0,0,1,6.87-4.72c.54-.29,1.07-.61,1.65-.86a6.43,6.43,0,0,1,2.44-.65,1.79,1.79,0,0,1,1.23.32,3.25,3.25,0,0,1,.37.27c.26.29-.54.85-1.88,1.61-1,.57-2,1.16-3,1.82s-2,1.37-3,2.06c-2,1.41-4.09,2.92-6.16,4.45-3.08,2.26-6.17,4.59-9.6,6.66Z"/><path class="cls-1" d="M433.45,363.1c-2.51,1.94-5.06,3.8-7.72,5.56a41.44,41.44,0,0,1-4.19,2.51,7.71,7.71,0,0,1-1.37.53,4.64,4.64,0,0,1-1.69.11,7.28,7.28,0,0,1-2.72-1,23.3,23.3,0,0,1-5.44-4.81,82.38,82.38,0,0,1-7.08-10c-2.14-3.45-4.12-7-6-10.54-1.68-3.17-3.36-6.36-4.93-9.55A76.17,76.17,0,0,1,387,323.23c-.38-1.39.05-1.32.88-.35a22.84,22.84,0,0,1,1.55,2,17.44,17.44,0,0,1,1.74,3.09c3.89,8.35,8.08,16.59,12.71,24.65a77.18,77.18,0,0,0,4.61,7.08,54.67,54.67,0,0,0,5.43,6.44,14.55,14.55,0,0,0,3.44,2.65,3.86,3.86,0,0,0,1.72.46,2.09,2.09,0,0,0,.75-.18,10.42,10.42,0,0,0,.95-.47,74.4,74.4,0,0,0,7.7-5.21c3.07-2.32,6.09-4.73,8.95-7.3,1.33-1.21,2.64-2.45,3.85-3.75a20.58,20.58,0,0,0,1.67-2l.26-.39.18-.34c.09-.22.18-.52,0-.72-.65-.95-3.2-.4-5.16.22a55,55,0,0,0-11.72,6.06c-.82.53-1.6,1.08-2.41,1.63-3,2-4.05,2.53-5.18,2.35-.24,0-.52,0-.69,0-.5-.06.2-1.65,2.37-3.36A63.28,63.28,0,0,1,431.16,349a43.45,43.45,0,0,1,6.06-2.58,19.58,19.58,0,0,1,3.45-.81c.3-.05.64-.06,1-.08a6.61,6.61,0,0,1,1.18.06,4.58,4.58,0,0,1,2.71,1.21,5.68,5.68,0,0,1,.61.68,3,3,0,0,1,.38,2,5.6,5.6,0,0,1-.84,2c-.23.37-.31.47-.45.67l-.4.53c-.26.33-.53.65-.8,1-1.09,1.23-2.23,2.34-3.38,3.42-2.31,2.14-4.71,4.13-7.15,6.07Z"/><path class="cls-1" d="M411.69,345.86,409,339.15c-.32-.82-.7-1.61-1-2.42-1.09-2.89-2.17-5.78-3.21-8.68-.47-1.28-1-2.55-1.54-3.79-.73-1.57-1.41-3.21-2-4.74-.16-.36.07-.64.68-.42a3.93,3.93,0,0,1,1.84,1.72,52.48,52.48,0,0,1,2.31,4.86c.69,1.65,1.38,3.3,1.92,5,.67,2.05,1.62,4.07,2.44,6.1l2.72,6.7c.57,1.37,1.14,2.74,1.74,4.09.9,2.05,1.81,4.11,2.86,6.06a46,46,0,0,0,2.71,4.29c.22.29.45.56.65.86.8,1.06.85,1.45.85,1.95a2.16,2.16,0,0,1,0,.36c0,.17-.18.22-.5.16a3.15,3.15,0,0,1-1.25-.61c-2.52-2.25-4-5.2-5.54-8.12-1.09-2.18-2.08-4.41-3-6.65Z"/><path class="cls-1" d="M406.93,354.3c.64-.68,1.32-1.32,2-1.95a8.15,8.15,0,0,1,.72-.72,23,23,0,0,1,3-2.09l1.38-.85a3.77,3.77,0,0,1,2-.73c.24,0,.31.48.28,1s-.12,1.06-.38,1.2c-1,.55-1.92,1.25-3.09,1.81a8.49,8.49,0,0,0-1.76,1.53c-.63.6-1.25,1.21-1.85,1.86-.36.4-.73.8-1.06,1.23a17.4,17.4,0,0,0-1.46,2,9.64,9.64,0,0,0-.69,1.75c-.05.13-.08.26-.14.38-.2.45-.42.52-1,.37-.14,0-.27-.06-.41-.11a.9.9,0,0,1-.67-.94,7.67,7.67,0,0,1,1.38-3.52,20.94,20.94,0,0,1,1.75-2.23Z"/><path class="cls-1" d="M383.79,461.22a77.69,77.69,0,0,1-8.47,4.89c-.74.36-1.5.7-2.28,1s-1.4.57-2.16.91a15.23,15.23,0,0,1-2.42.91,5.76,5.76,0,0,1-2.92.05,5.15,5.15,0,0,1-1.93-1,4.65,4.65,0,0,1-.72-.64l-.66-.65c-.42-.44-.89-.84-1.27-1.31L359.84,464c-5.07-6.76-8.47-14.34-11.91-21.83l-4.5-10-2.93-6.33c-1-2.09-1.93-4.23-3-6.2-.68-1.21-.3-1.34.75-.53A10.63,10.63,0,0,1,340.1,421a16.29,16.29,0,0,1,2,3.14c4.2,8.61,7.63,17.43,11.77,26,.61,1.28,1.25,2.57,2,3.83.35.64.7,1.27,1,1.91l1.13,1.86a46.18,46.18,0,0,0,5.11,7c.54.53,1.08,1.13,1.62,1.62a3.26,3.26,0,0,0,1.71.78c1.25.15,2.67-.52,4.12-1.2.72-.36,1.56-.69,2.24-1s1.43-.66,2.13-1c1.4-.73,2.78-1.53,4.14-2.37a107.57,107.57,0,0,0,9.67-6.78c1.74-1.38,3.45-2.8,5.05-4.32a24.7,24.7,0,0,0,2.24-2.35c.19-.24.28-.34.37-.47a3.38,3.38,0,0,0,.24-.41.73.73,0,0,0,.1-.45c0-.18-.2-.24-.32-.32-.56-.44-2.24-.49-3.58-.18a26.44,26.44,0,0,0-6.23,2.34c-2,1-4,2.13-5.94,3.28l-2.58,1.55c-3.26,1.88-4.48,2.28-5.58,1.89a3.28,3.28,0,0,1-.73-.26c-.57-.4.53-1.52,2.84-3a108.63,108.63,0,0,1,10.23-6,32.45,32.45,0,0,1,5.9-2.3,15.19,15.19,0,0,1,3.42-.55,8.71,8.71,0,0,1,1.94.13,13,13,0,0,1,1.37.46,13.3,13.3,0,0,1,1.21.72,2.74,2.74,0,0,1,.81,1.24,2.66,2.66,0,0,1,0,1.48,6.76,6.76,0,0,1-1.17,2c-.35.44-.6.72-.91,1.06-.59.64-1.19,1.24-1.8,1.81-1.23,1.14-2.49,2.2-3.78,3.23-2.57,2-5.23,4-7.95,5.78Z"/><path class="cls-1" d="M364.13,441.21l-2.65-7.11c-.32-.86-.71-1.7-1-2.57l-3.27-9.16c-.49-1.35-1.06-2.67-1.64-4l-1.15-2.47a23.87,23.87,0,0,0-1.18-2.32c-.16-.23-.15-.64.54-.51a4,4,0,0,1,2.09,1.72,36.38,36.38,0,0,1,2.54,5.12,55.41,55.41,0,0,1,2,5.31c.69,2.17,1.65,4.31,2.47,6.48l2.66,7.14c.55,1.46,1.1,2.92,1.69,4.36.88,2.2,1.77,4.4,2.78,6.51a48,48,0,0,0,2.67,4.65l.62,1,.45.77a2.86,2.86,0,0,1,.2.61,1.72,1.72,0,0,1,0,.84,2.53,2.53,0,0,1-.07.34c-.06.15-.23.15-.52,0a4.24,4.24,0,0,1-1.16-.76,20.42,20.42,0,0,1-2.89-4.23c-.83-1.5-1.56-3.06-2.27-4.64-1-2.33-2-4.72-2.94-7.09Z"/><path class="cls-1" d="M361.33,449.56a22.73,22.73,0,0,0-2.34,1.11c-.28.15-.51.36-.78.52a15.48,15.48,0,0,0-2.71,1.86,4.26,4.26,0,0,0-.86,1.1c-.28.52-.33,1-.58,1.43a1.35,1.35,0,0,1-1.15-.06,1.19,1.19,0,0,1-.8-1.31,6.73,6.73,0,0,1,3-3.51c.76-.44,1.38-1.05,2.11-1.51a26.6,26.6,0,0,1,2.45-1.35c.52-.26,1-.49,1.56-.72.79-.36,1.61-.65,2.41-1,.62-.27,1.21-.61,1.91-.84.16,0,.31-.11.48-.14.64-.1,1,.13,1,.73a2.77,2.77,0,0,1,0,.41,2.19,2.19,0,0,1-.21.58.84.84,0,0,1-.28.35,16.7,16.7,0,0,1-2.84,1.38c-.78.32-1.58.63-2.36,1Z"/><path class="cls-1" d="M357.58,141.63a2.09,2.09,0,0,1,1.44-.24,3,3,0,0,1,1.35.71,6.62,6.62,0,0,1,.95,1.06c.2.27.38.54.55.81s.54.73.76,1.12c.79,1.36,1.49,2.72,2.36,3.92a5.87,5.87,0,0,0,1.34,1.34,4.73,4.73,0,0,0,.93.5l.22.08c.07,0,.14,0,.21.08a2.08,2.08,0,0,0,.48.15c.22.06.35.33.2.76a1.52,1.52,0,0,1-.52.69,1.16,1.16,0,0,1-1,.27,4.9,4.9,0,0,1-2.84-1.8,11.81,11.81,0,0,1-1.59-2.41,29.64,29.64,0,0,0-1.79-2.8c-.32-.5-.64-1-1-1.43a1.63,1.63,0,0,1-.17-.22l-.12-.15a1.06,1.06,0,0,0-.33-.26c-.38-.15-.65.26-.71.61a1.62,1.62,0,0,0,0,.2c0,.1,0,.24,0,.36a6.87,6.87,0,0,0,0,.78,7.82,7.82,0,0,0,.32,1.57,14.72,14.72,0,0,0,1,2.24l.25.46c.29.57.28.71.08,1.12,0,.09-.07.19-.12.28a.36.36,0,0,1-.4.19,1.38,1.38,0,0,1-.69-.37,8.48,8.48,0,0,1-.92-1,5.29,5.29,0,0,1-.71-1.12,12.16,12.16,0,0,1-.86-2.53,8,8,0,0,1-.19-2.23,2.72,2.72,0,0,1,.14-.89,4.62,4.62,0,0,1,.3-.79,3.12,3.12,0,0,1,1.06-1.13Z"/><path class="cls-1" d="M352.85,150.81a8.84,8.84,0,0,1-.57-3.21,7.14,7.14,0,0,1,.23-1.65c0-.14.06-.25.12-.41l.23-.59a3.35,3.35,0,0,1,.65-1,2,2,0,0,1,1.47-.6,2.31,2.31,0,0,1,1.48.7,4.44,4.44,0,0,1,.51.57l.21.3.13.24a8.48,8.48,0,0,1,.45.91c.23.55.47,1.1.72,1.64a24.17,24.17,0,0,0,1.7,3.08,8.92,8.92,0,0,0,2,2.23,7.75,7.75,0,0,0,3.29,1.38c.37.08.41.47,0,.9a2.09,2.09,0,0,1-.86.61,2,2,0,0,1-1.37.11,8.57,8.57,0,0,1-4-2.82,14.61,14.61,0,0,1-2.3-3.87c-.35-.81-.72-1.61-1.09-2.4l-.27-.53-.14-.24a1.73,1.73,0,0,0-.11-.17.94.94,0,0,0-.32-.31.32.32,0,0,0-.42.13,1.8,1.8,0,0,0-.27.71c0,.2-.09.42-.12.63l-.05.59a6.13,6.13,0,0,0,.13,1.26,9.9,9.9,0,0,0,1.18,3.06,12.61,12.61,0,0,0,3.31,3.84,8.71,8.71,0,0,0,3.45,1.55,4.42,4.42,0,0,0,.8.12,6,6,0,0,1,.62.11,1.52,1.52,0,0,1,.42.1,1,1,0,0,1,.49.52,2.7,2.7,0,0,1,.17.34c.14.38-.31.72-1.25.82a8.92,8.92,0,0,1-4-.94,12.54,12.54,0,0,1-3.37-2.49,15.21,15.21,0,0,1-3.38-5.22Z"/><path class="cls-1" d="M352.87,159.26a14.82,14.82,0,0,1-2.57-3.56,8.93,8.93,0,0,1-.69-1.5,4.83,4.83,0,0,1-.05-3.2,2.37,2.37,0,0,1,.58-.82,2.53,2.53,0,0,1,1.77-.55,3.78,3.78,0,0,1,.78.1,3.88,3.88,0,0,1,1.32.54,4.52,4.52,0,0,1,1,.94,12.44,12.44,0,0,1,.89,1.29,7.66,7.66,0,0,1,.57,1.39c.08.31-.21.43-.64.38a2.36,2.36,0,0,1-1.44-.67,6.13,6.13,0,0,0-1.5-1.82,2,2,0,0,0-.9-.26,1.18,1.18,0,0,0-.57,0s-.08.05-.12.11l-.11.21a2.37,2.37,0,0,0,0,.67,5.88,5.88,0,0,0,.39,1.55,11,11,0,0,0,2,3.26,13.1,13.1,0,0,0,1.74,1.67,17.12,17.12,0,0,0,3.07,2.08,4.81,4.81,0,0,0,2.58.4c.19,0,.36-.08.54-.1a1,1,0,0,1,1.22.34c.07.09.15.17.21.26.18.28,0,.7-.65,1a5.36,5.36,0,0,1-3.13.17,8.81,8.81,0,0,1-2.83-1.23c-.63-.39-1.2-.82-1.74-1.23a18.94,18.94,0,0,1-1.69-1.44Z"/><path class="cls-1" d="M239.88,400.7l8.39-16.08,3-5.91L261.94,358c1.56-3.07,3.11-6.18,4.59-9.27,1-2,1.88-4,2.88-5.94.49-1,1-2,1.52-2.94l.78-1.45c.27-.48.67-.9,1-1.37.73-1.17.93-.87.81.36a13.57,13.57,0,0,1-.29,2.53,18.57,18.57,0,0,1-1.09,3.29c-3.67,8.2-7.67,16.24-12,24.19-2.6,4.76-5,9.86-7.51,14.8l-8.37,16.25q-2.61,5-5.2,10l-7.88,15.09c-2,3.9-3.85,7.79-5.8,11.67-.43.85-.84,1.7-1.29,2.55-1.68,3.15-2.43,4.05-3.46,4.33a3.14,3.14,0,0,1-.69.19c-.65,0-.4-1.5.74-3.84,3.31-7,7-14.23,10.8-21.5l8.42-16.24Z"/><path class="cls-1" d="M325.3,224.79l7.51-15.09,2.66-5.54c3.28-6.45,6.4-12.95,9.54-19.46,1.38-2.89,2.74-5.8,4.05-8.7.85-1.86,1.65-3.74,2.54-5.58.44-.93.89-1.85,1.36-2.76l.7-1.36c.24-.45.61-.85.87-1.29.67-1.1.87-.82.82.34a11.89,11.89,0,0,1-.16,2.37,16,16,0,0,1-.91,3.09q-4.83,11.56-10.65,22.75c-2.29,4.5-4.43,9.28-6.7,13.89l-7.51,15.24-4.62,9.38c-2.31,4.74-4.67,9.49-6.88,14.23-1.73,3.69-3.26,7.38-4.88,11.07-.36.81-.68,1.61-1.05,2.43-1.39,3-2,3.88-3,4.19a4.05,4.05,0,0,1-.65.21c-.64.05-.54-1.4.36-3.66,2.64-6.71,5.84-13.59,9.12-20.47l7.42-15.3Z"/><path class="cls-1" d="M376.85,107.69l6-13.43c.72-1.64,1.38-3.3,2.12-4.93,2.6-5.74,5.27-11.46,8-17.16l3.56-7.61c.76-1.62,1.5-3.25,2.36-4.84.4-.8.86-1.58,1.33-2.35l.72-1.15c.27-.38.65-.68.93-1,.74-.88.87-.56.71.45a16.42,16.42,0,0,1-.32,2,14.16,14.16,0,0,1-.93,2.6q-2.26,4.92-4.54,9.85c-1.52,3.29-3.15,6.56-4.77,9.85-2,3.92-3.66,8.16-5.47,12.26l-6,13.54q-1.83,4.18-3.65,8.35c-1.83,4.22-3.69,8.45-5.43,12.67-1.35,3.29-2.54,6.56-3.79,9.84-.28.72-.53,1.44-.82,2.16-1.09,2.68-1.6,3.46-2.5,3.75a2.74,2.74,0,0,1-.6.19c-.58.06-.58-1.22.11-3.23,2-6,4.51-12.07,7.09-18.19q2.93-6.81,5.86-13.63Z"/><path class="cls-1" d="M162.45,255.84a7.93,7.93,0,0,1-.23-2.54,8.86,8.86,0,0,1,.43-2.39,11.12,11.12,0,0,1,.6-1.59,20.12,20.12,0,0,1,3.36-4.48c.56-.59,1.11-1.19,1.69-1.77a6.22,6.22,0,0,1,2.65-1.81c.35-.09.48.41.48,1a2,2,0,0,1-.48,1.49,40.39,40.39,0,0,0-4,4,9.8,9.8,0,0,0-1.69,3,7.07,7.07,0,0,0-.46,1.7,9.33,9.33,0,0,0,0,1.83,4.23,4.23,0,0,0,.21,1,.91.91,0,0,0,.41.52,1,1,0,0,0,.51.13,2.46,2.46,0,0,0,.72-.12,5.91,5.91,0,0,0,1.56-.76,12.52,12.52,0,0,0,2-2c.14-.15.26-.32.41-.47.55-.55.85-.59,1.48-.19.14.09.29.17.42.27a1,1,0,0,1,.19,1.45,10.23,10.23,0,0,1-4.56,3.93,5,5,0,0,1-3.15.4,3.32,3.32,0,0,1-1.74-1,4.49,4.49,0,0,1-.88-1.57Z"/><path class="cls-1" d="M359.39,133.3a12.93,12.93,0,0,0-1.07-.93,3.32,3.32,0,0,0-.79-.52.5.5,0,0,1-.13,0,.31.31,0,0,0-.28.19,2.65,2.65,0,0,0-.11,1.56,7.19,7.19,0,0,0,.64,2,6,6,0,0,0,1.09,1.5c.56.56,1.19,1,1.76,1.5.16.17-.05.58-.46.86a1.37,1.37,0,0,1-1.55.05,8.29,8.29,0,0,1-3.11-4.89,11.8,11.8,0,0,1-.25-1.85,3.59,3.59,0,0,1,.1-1.06,2.38,2.38,0,0,1,.63-1.09,2.22,2.22,0,0,1,.83-.51,4.13,4.13,0,0,1,.9-.15,3.29,3.29,0,0,1,1.48.58,9.93,9.93,0,0,1,1,.77,21.85,21.85,0,0,1,1.63,1.55c.79.81,1.5,1.68,2.23,2.52.57.65,1.18,1.26,1.74,1.93.12.16.24.31.34.47.37.63.34.92,0,1.27a2.72,2.72,0,0,1-.24.24.84.84,0,0,1-1.07-.21,41.22,41.22,0,0,1-3-3.28,29.46,29.46,0,0,0-2.33-2.41Z"/><path class="cls-1" d="M339.7,486.61l.86-1.09.77-1.18a11.57,11.57,0,0,0,.73-1.22l.68-1.27c.3-.65.53-1.32.84-2,1-2.3,2.06-4.72,3.29-7a29.45,29.45,0,0,1,1.72-3.05c.44-.61.87-1.23,1.33-1.82a18.33,18.33,0,0,1,1.63-1.55c.36-.3.54,0,.56.51a3.79,3.79,0,0,1-.51,2c-.36.61-.65,1.26-1,1.87a16.41,16.41,0,0,1-.95,1.87c-.7,1.23-1.36,2.5-2.05,3.8-.83,1.57-1.35,3.36-2.1,5.07a32.57,32.57,0,0,1-3,5.47l-1.19,1.54c-.41.49-.88.94-1.32,1.41a27.06,27.06,0,0,1-4.53,3.62c-.58.47-1.24.79-1.85,1.21a18.51,18.51,0,0,1-1.89,1.17c-.29.15-.56.31-.86.45a2.7,2.7,0,0,1-1.23.36,1.22,1.22,0,0,1-.78-.47,2.58,2.58,0,0,1-.31-.36.73.73,0,0,1,0-.73,1.66,1.66,0,0,1,.71-.82q.79-.51,1.62-1c.55-.3,1.06-.68,1.6-1a37,37,0,0,0,3.16-2c.74-.56,1.43-1.17,2.14-1.77l.95-1,.47-.5.42-.56Z"/><path class="cls-1" d="M393.63,400.48a37.16,37.16,0,0,0,4.95-5.46c.55-.72,1-1.51,1.49-2.26a45.32,45.32,0,0,0,4.33-8.57c.5-1.35.86-2.74,1.25-4.11.47-1.77.84-3.57,1.35-5.35.17-.56.48-.44.77.1a5,5,0,0,1,.51,2.61c-.08,1-.19,1.94-.34,2.9a15.38,15.38,0,0,1-.64,2.86,34.7,34.7,0,0,1-2.27,5.42c-1.1,2.08-2.11,4.31-3.42,6.33a38.68,38.68,0,0,1-5,6.16c-1.14,1.15-2.35,2.21-3.53,3.27a45.47,45.47,0,0,0-5,5,16.1,16.1,0,0,0-2.52,4.58,8,8,0,0,0-.34,1.08c-.11.33-.22.6-.32.83a1.61,1.61,0,0,1-.28.54,1.52,1.52,0,0,1-.9.47c-.17,0-.35.09-.5.1s-.46-.15-.59-.48a2.45,2.45,0,0,1-.13-1.41,15.36,15.36,0,0,1,2-5.05,23.11,23.11,0,0,1,3.42-4.29c1.89-1.9,3.9-3.53,5.69-5.29Z"/><path class="cls-1" d="M439.92,305.2c3.2-3.12,6.68-5.85,9.78-8.81a34.18,34.18,0,0,0,3.09-3.43,13.67,13.67,0,0,0,2-3.31l.73-1.9.6-2a56.53,56.53,0,0,0,1.55-8.18c.33-2.46.51-5,1-7.47a29.9,29.9,0,0,1,2.91-9.27c.46-.9.69-.63.7.28a23,23,0,0,1-.53,4.2A41,41,0,0,0,461,270c-.17,1.59-.28,3.17-.51,4.78a78.13,78.13,0,0,1-1.64,9.81,61.43,61.43,0,0,1-1.83,5.9,18.4,18.4,0,0,1-3.45,5.4c-3.07,3.4-6.55,6.14-9.76,9.12a74.75,74.75,0,0,0-5.68,5.72,43.72,43.72,0,0,0-6.74,10,39.1,39.1,0,0,0-2.8,8.79c-.13.67-.25,1.32-.35,2a19.34,19.34,0,0,1-.59,2.62,2.29,2.29,0,0,1-.9,1.09,3.55,3.55,0,0,1-.49.31c-.27.09-.46-.13-.61-.63a6.06,6.06,0,0,1-.17-2.24,39.22,39.22,0,0,1,5.79-17,57.71,57.71,0,0,1,8.65-10.56Z"/><path class="cls-1" d="M114.38,244.25a6.48,6.48,0,0,0,2.23-1.39,1.15,1.15,0,0,0,.24-.35.5.5,0,0,0,.09-.24c0-.11.07-.22.08-.31a1.94,1.94,0,0,0,0-1,2.83,2.83,0,0,0-1.75-1.49,21.72,21.72,0,0,0-3.07-1c-.8-.21-1.63-.41-2.5-.67a7.84,7.84,0,0,1-1.32-.52,4.12,4.12,0,0,1-1.34-1,3.17,3.17,0,0,1-.71-1.52,3.39,3.39,0,0,1,.06-1.61,4.69,4.69,0,0,1,1.62-2.32c1.29-1.06,2.65-1.66,3.68-2.44s1.26-1.3.45-2.4a8.42,8.42,0,0,0-1.4-1.4,8.09,8.09,0,0,0-.82-.6,5.84,5.84,0,0,0-.86-.48,21.3,21.3,0,0,0-7.28-1.65,25.73,25.73,0,0,0-4.81.09,11.24,11.24,0,0,0-4.41,1.24c-.7.48-1,.2-.55-.72a5.87,5.87,0,0,1,4.09-2.38,27.88,27.88,0,0,1,10.54.42,20.93,20.93,0,0,1,2.6.79c.43.15.86.39,1.29.58a10.25,10.25,0,0,1,1.24.82,10.89,10.89,0,0,1,2.07,2,4.6,4.6,0,0,1,.81,1.51,3,3,0,0,1-.08,2.05,4.25,4.25,0,0,1-1.27,1.63,13,13,0,0,1-1.37,1,23.22,23.22,0,0,0-2.43,1.7,3.43,3.43,0,0,0-.79.86,1.38,1.38,0,0,0-.19.83,1,1,0,0,0,.35.72,3.72,3.72,0,0,0,1,.62c1.91.81,4.29,1,6.59,2a6,6,0,0,1,1.68,1.11,3.84,3.84,0,0,1,1.09,1.93,4.72,4.72,0,0,1,0,2.09,4.41,4.41,0,0,1-.37,1,7.12,7.12,0,0,1-.63.89,10.31,10.31,0,0,1-4,2.3,32.22,32.22,0,0,1-4.19,1.15,67.43,67.43,0,0,1-12.87,1.23,88.17,88.17,0,0,1-9.89-.31c-.73-.06-1.44-.14-2.17-.26a10.9,10.9,0,0,1-2.81-.77,2.31,2.31,0,0,1-1.06-1,4.65,4.65,0,0,1-.25-.5c-.06-.24.2-.37.72-.47a6.92,6.92,0,0,1,2.23,0,102.52,102.52,0,0,0,17.62.62,61.35,61.35,0,0,0,6.61-.76,27.09,27.09,0,0,0,6.22-1.7Z"/><path class="cls-1" d="M82.73,94.35c-3.27.55-6.57,1-9.91,1.3-1.67.13-3.35.22-5,.22a27.58,27.58,0,0,1-5.17-.38,11.17,11.17,0,0,1-3.9-1.36c-.16-.1-.32-.19-.48-.31l-.45-.41a4.23,4.23,0,0,1-.8-1,5.2,5.2,0,0,1-.51-1.18A7.48,7.48,0,0,1,56.27,90a7.13,7.13,0,0,1,.29-2,5.4,5.4,0,0,1,.82-1.87,9.15,9.15,0,0,1,2.75-2.46c1-.61,2-1.09,2.91-1.56L63.4,82l.24-.11.24-.13c.15-.09.37-.19.38-.4s-.24-.27-.39-.38l-.3-.18L63,80.48a18.14,18.14,0,0,1-2.85-1.77,5.62,5.62,0,0,1-1.28-1.44,4.11,4.11,0,0,1-.52-2,6.56,6.56,0,0,1,1.26-3.43,12.11,12.11,0,0,1,4.62-3.88A24.34,24.34,0,0,1,69.7,66,31.12,31.12,0,0,1,77,65.22a23.34,23.34,0,0,1,7.3,1.14c1.48.55,1.06.9-.26,1s-3.58.3-6.2.37a43.18,43.18,0,0,0-6.93.7,20.7,20.7,0,0,0-6.33,2.23l-.7.4-.61.49a6.88,6.88,0,0,0-1.12,1,2.22,2.22,0,0,0-.45.57l-.41.6c-.11.21-.21.43-.31.65a4.17,4.17,0,0,0-.17.59,1.41,1.41,0,0,0,.06.92,2.57,2.57,0,0,0,.75.93,20,20,0,0,0,2.9,1.86l.75.43a3.8,3.8,0,0,1,.74.49,6.31,6.31,0,0,1,.67.54,2.07,2.07,0,0,1,.39.63A1.67,1.67,0,0,1,67,82.3a4.26,4.26,0,0,1-1.19,1.16c-1.25.76-1.66,1-2.37,1.38a20.28,20.28,0,0,0-1.84,1.09,5.09,5.09,0,0,0-2.31,2.69,3.59,3.59,0,0,0-.19.87l0,.42,0,.37c0,.27.13.44.18.68a2.56,2.56,0,0,0,.45.57,7.2,7.2,0,0,0,3.86,1.52,27.62,27.62,0,0,0,4.76.29A74.77,74.77,0,0,0,78,92.42c4-.59,8-1.39,12-2.24a28.72,28.72,0,0,1,4.74-.51c1.56-.08,3.1-.12,4.65-.16,3.08-.09,6.16-.17,9.17-.47a28.87,28.87,0,0,0,3.43-.55A7.87,7.87,0,0,0,113.5,88c.3-.15.57-.31.61-.62a1.24,1.24,0,0,0,0-.43.66.66,0,0,0-.06-.2,2,2,0,0,0-.12-.26,4.08,4.08,0,0,0-.87-1,12.93,12.93,0,0,0-2.65-1.74c-.87-.44-1.78-.79-2.7-1.19C106,81.8,104.82,81.39,104,81a4.37,4.37,0,0,1-1.56-1.1c-.15-.18-.37-.35-.48-.5s.16-.5,1-.57a10.58,10.58,0,0,1,3.38.36,24.61,24.61,0,0,1,6.15,2.26,12.49,12.49,0,0,1,3,2.16,6.13,6.13,0,0,1,1.28,1.83,4.55,4.55,0,0,1,.35,1.42,5.94,5.94,0,0,1-.13,1.51,3.77,3.77,0,0,1-2.17,2.24,11.63,11.63,0,0,1-2,.64,31.85,31.85,0,0,1-3.6.56c-2.35.24-4.66.33-7,.4-3.31.12-6.67.12-9.8.39a17.48,17.48,0,0,0-2.27.36l-2.44.5c-1.64.33-3.28.65-4.93.94Z"/><path class="cls-1" d="M313.55,46.26a10.48,10.48,0,0,1,1.25-1.72,9,9,0,0,1,1.56-1.31,15.8,15.8,0,0,1,3.36-1.69c1.13-.43,2.26-.77,3.36-1.09l1.63-.45c.55-.17,1.12-.31,1.64-.44s.75-.21,1.09-.32.37-.16.44-.23a.3.3,0,0,0,.07-.27,2.07,2.07,0,0,0-.25-.47,6.86,6.86,0,0,0-.53-.76,6.2,6.2,0,0,0-.62-.65c-.47-.43-1.08-.82-1.71-1.34a5.3,5.3,0,0,1-1.66-2.12,4.8,4.8,0,0,1-.16-2.77,5.23,5.23,0,0,1,1.26-2.33,9.05,9.05,0,0,1,1.89-1.55,23,23,0,0,1,4.13-1.93,31.42,31.42,0,0,1,7.79-1.62,22.14,22.14,0,0,1,10,1.17c1,.38.72.67-.21.82a28.17,28.17,0,0,1-4.34.25c-1.61,0-3.21,0-4.8.09a31.2,31.2,0,0,0-4.73.71,27.67,27.67,0,0,0-4.53,1.42A10,10,0,0,0,325.76,30a2.69,2.69,0,0,0-.7,2,2.48,2.48,0,0,0,1.15,1.84,23.13,23.13,0,0,1,2.56,2,9.92,9.92,0,0,1,1.09,1.42,3.25,3.25,0,0,1,.49,2.4,2.53,2.53,0,0,1-.78,1.1,3.24,3.24,0,0,1-.57.4c-.2.12-.34.17-.51.26a16.13,16.13,0,0,1-1.73.63c-1.07.34-2.2.65-3.27,1a19.33,19.33,0,0,0-5.87,2.59,6.42,6.42,0,0,0-1.28,1.27,3.88,3.88,0,0,0-.74,1.48,1.71,1.71,0,0,0,.2,1.36l.21.33.3.3A4.36,4.36,0,0,0,317,51a18,18,0,0,0,5.64,2.15,49.64,49.64,0,0,0,6.19,1c3.23.38,6.44.34,9.65.46.71,0,1.41,0,2.13,0a11.34,11.34,0,0,1,2.81.36,2.69,2.69,0,0,1,1.25.64A2.33,2.33,0,0,1,345,56c.21.35-.84.63-2.81.91A70.77,70.77,0,0,1,324,56.06,28.61,28.61,0,0,1,317,54a8.21,8.21,0,0,1-3.41-2.71A5.06,5.06,0,0,1,313,50a6,6,0,0,1-.18-1.4,9,9,0,0,1,.23-1.3c.14-.37.29-.76.46-1.1Z"/><path class="cls-1" d="M243.38,60.35c-.14-.26.19-.44.79-.54a1.81,1.81,0,0,1,.82.13,3.41,3.41,0,0,1,.37.43c0,.08.23,1.37.34,1.82a4.94,4.94,0,0,1,.08,1.27v2.61a1.9,1.9,0,0,1-.09.58,5.67,5.67,0,0,0-.21,2,.48.48,0,0,0,.09.34,6.63,6.63,0,0,1-.05,2.26c-.24.58-.4,1.16-.62,1.74,0,.09,0,.18-.13.25-.29.15-.28.34-.32.52a3.81,3.81,0,0,1-.28.75,1.47,1.47,0,0,1-.37.32c-.13.1-.5,0-.54-.08s-.29-.07-.45-.09a.74.74,0,0,1-.17,0A9.39,9.39,0,0,1,242,73s0-.53,0-1.08-.06-1.12-.08-1.24a.7.7,0,0,1,.1-.36c0-.06-.14-1.73-.12-1.79.06-.34,0-.7.24-1a.28.28,0,0,0,0-.2,10.69,10.69,0,0,1,.22-1.78c0-.31,0-.62.06-.92a.44.44,0,0,1,.06-.16.83.83,0,0,0,.06-.21c0-.73.2-1.45.15-2.19,0-.17.33-.95.31-1.15S243.43,60.45,243.38,60.35Z"/><path class="cls-1" d="M253,76c-.08.26-.4.19-.87-.08a1.5,1.5,0,0,1-.47-.57,2.8,2.8,0,0,1,0-.52c0-.09.74-1.11,1-1.48a5.84,5.84,0,0,1,.77-.94c.57-.59,1.12-1.21,1.69-1.81a2.12,2.12,0,0,1,.43-.35A6.77,6.77,0,0,0,257,69a.5.5,0,0,0,.17-.27,7.63,7.63,0,0,1,1.45-1.51l1.49-.87c.07,0,.11-.11.23-.11s.35-.12.49-.23a6.27,6.27,0,0,1,.59-.42,1.13,1.13,0,0,1,.38-.12c.12,0,.26.16.25.21s.12.13.2.19l.08.07a15.28,15.28,0,0,1-.57,1.55l-.57.92c-.27.48-.63.91-.68,1a.7.7,0,0,1-.28.23c-.05,0-1,1.38-1,1.42-.24.23-.38.56-.77.64a.29.29,0,0,0-.16.12A11.66,11.66,0,0,1,257,73c-.23.18-.42.41-.63.61,0,0-.09,0-.14.08a.71.71,0,0,0-.17.11c-.48.5-1.06.9-1.5,1.45-.1.12-.82.47-.94.62S253.05,75.88,253,76Z"/><path class="cls-1" d="M170.87,288.28a114.32,114.32,0,0,1,.49-14.46c.17-1.75.31-3.5.54-5.24a147.4,147.4,0,0,1,3.72-18.17c.73-2.64,1.48-5.29,2.31-7.89.54-1.66,1.1-3.33,1.72-5a43.86,43.86,0,0,1,2.21-4.77c.52-1,.77-.68.72.31a17.6,17.6,0,0,1-1,4.55,170.86,170.86,0,0,0-6,20.27,112.83,112.83,0,0,0-2.09,12.87,122.48,122.48,0,0,0-.9,14.32,81,81,0,0,0,.45,8.82,42.48,42.48,0,0,0,3.15,12.85c1.41,3.07,3.54,5.83,6.44,7.21a10.64,10.64,0,0,0,2,.67c1.28.29,2.15.33,2.76.44a4.44,4.44,0,0,1,1.32.35c.14.08.34.15.43.22s0,.29-.56.47a5.09,5.09,0,0,1-1,.26,7.71,7.71,0,0,1-1.45.12,10.89,10.89,0,0,1-4.84-1.31,13.08,13.08,0,0,1-3.91-3.3,25.21,25.21,0,0,1-4.41-9,62.31,62.31,0,0,1-2.12-14.57Z"/><path class="cls-1" d="M224.42,134.8a4.8,4.8,0,0,0,1,3.45,2.43,2.43,0,0,0,3.47,0c1.5-1.56.92-5.4-1.41-5.9-1.44-.31-2.06,1.91-.61,2.22.14,0,.34.3.46.74s.18,1.05-.08,1.33c0,0,0,.07-.17.05,0,0,.14.19,0-.06a1.86,1.86,0,0,1-.1-.2,3.76,3.76,0,0,1-.19-1.63c.06-1.49-2.24-1.48-2.3,0Z"/><path class="cls-1" d="M238.68,129.79a5.13,5.13,0,0,0-.22,3.77,2.41,2.41,0,0,0,3.31,1.4c2.21-1.15,1.16-5.41-1.11-5.88-1.19-.25-1.7,1.58-.5,1.83.61.13,1.36,1.9.77,2.35s-.75-.46-.79-.74a3.34,3.34,0,0,1,.18-1.77c.49-1.11-1.14-2.07-1.64-1Z"/><path class="cls-1" d="M223.28,135.28a5.85,5.85,0,0,1,4.94-1.53c1.45.25,2.07-2,.61-2.22a8.35,8.35,0,0,0-7.18,2.12c-1.1,1,.53,2.61,1.63,1.63Z"/><path class="cls-1" d="M237.26,130.87a6,6,0,0,1,4.08-1.62,1.15,1.15,0,0,0,0-2.3,8.51,8.51,0,0,0-5.7,2.29c-1.1,1,.53,2.62,1.62,1.63Z"/><path class="cls-1" d="M202.17,85.27a41.83,41.83,0,0,0-9,1.9,50.31,50.31,0,0,0-8.55,3.62,32.42,32.42,0,0,0-2.87,1.76c-.46.32-.94.62-1.39,1l-1.33,1a32,32,0,0,0-7.77,8.85,33.34,33.34,0,0,0-4,11.16,39.44,39.44,0,0,0-.32,10.63A58.88,58.88,0,0,0,170,138.43c.48,1.32,0,1.35-.86.38a14.33,14.33,0,0,1-2.8-5.62,46.93,46.93,0,0,1-1.57-14.37,35.06,35.06,0,0,1,15.15-27.53,42.7,42.7,0,0,1,8.6-4.62c1.48-.66,3-1.13,4.56-1.68l2.35-.65,1.18-.32,1.2-.23a36.13,36.13,0,0,1,12-.6,30.85,30.85,0,0,1,8.79,2.36,34.24,34.24,0,0,1,4.05,2.06c.64.4,1.25.85,1.88,1.28a14.82,14.82,0,0,1,1.8,1.35,42.24,42.24,0,0,1,9.18,10.34c.58.84,1,1.72,1.55,2.61a18.18,18.18,0,0,1,1.62,3.68,4.29,4.29,0,0,1,.28,1.82,3.16,3.16,0,0,1-.09.61c-.18.46-1.1-.8-2.38-3.17a61,61,0,0,0-6.93-9.95,35.11,35.11,0,0,0-9.57-7.57l-1-.54c-.34-.17-.7-.3-1-.45-.7-.27-1.39-.6-2.11-.85l-2.18-.65L213,86l-.56-.1-1.13-.21a33,33,0,0,0-4.55-.52,37.26,37.26,0,0,0-4.6.2Z"/><path class="cls-1" d="M157.25,152.78a8.6,8.6,0,0,1-.22-3.09c.05-.5.16-1,.25-1.45a3.49,3.49,0,0,1,.21-.76,3.81,3.81,0,0,1,.3-.74,8.7,8.7,0,0,1,1.13-1.87,17.63,17.63,0,0,1,5.67-4.39,21.68,21.68,0,0,1,2.93-1.25,5.52,5.52,0,0,1,4.19,0c.43.2.18.57-.26.92a6.21,6.21,0,0,1-.72.51,2.1,2.1,0,0,1-.82.35,18.17,18.17,0,0,0-6.5,2.55,10.71,10.71,0,0,0-3.15,3.14,7.93,7.93,0,0,0-.59,1,4.63,4.63,0,0,0-.33,1.07,8.13,8.13,0,0,0-.19,2.39,4.83,4.83,0,0,0,1,2.65,7.63,7.63,0,0,0,3.75,2.53,24.1,24.1,0,0,0,3.6.82c.26.07.53.11.8.19,1,.33,1.28.56,1.42,1a1.71,1.71,0,0,1,.09.27c0,.28-.42.44-1.21.5a15.18,15.18,0,0,1-1.79,0c-.59-.05-1.2-.15-1.8-.25a13.41,13.41,0,0,1-3.65-1.29,9.35,9.35,0,0,1-2.52-1.89,7.35,7.35,0,0,1-1.6-2.89Z"/><path class="cls-1" d="M169.12,116.23a35.23,35.23,0,0,1,1.72-7.3,17,17,0,0,1,1-2.56,25.68,25.68,0,0,1,5.63-7.77c.53-.47,1.05-1,1.56-1.45s1.12-.86,1.67-1.3a16.27,16.27,0,0,1,2.2-1.57,20.9,20.9,0,0,1,2.45-1.14c.52-.22.59.12.36.67a6.23,6.23,0,0,1-.57,1,3.52,3.52,0,0,1-1,1,35,35,0,0,0-7.84,6.73,7.38,7.38,0,0,0-.95,1.27c-.28.45-.57.9-.86,1.35-.52.94-.92,2-1.41,2.91a31.67,31.67,0,0,0-1.91,6.87,38.15,38.15,0,0,0-.46,4.4,40.91,40.91,0,0,0,.33,6.73,21.45,21.45,0,0,0,.47,2.54c.19.84.4,1.67.64,2.49.1.37.21.72.29,1.09a5.64,5.64,0,0,1,.25,1.48,1.35,1.35,0,0,1-.29.78,2.12,2.12,0,0,1-.21.27c-.12.11-.28,0-.48-.18a2.94,2.94,0,0,1-.66-1.07,34.33,34.33,0,0,1-2.06-9.63,42.22,42.22,0,0,1,.07-7.54Z"/><path class="cls-1" d="M218,121.85c-1.57.75-3.17,1.47-4.77,2.18-.58.25-1.15.54-1.74.78-2.1.84-4.23,1.59-6.38,2.23l-2.85.91c-.61.19-1.21.41-1.83.56a7.09,7.09,0,0,1-1.89.29c-.43-.1-.41-.23-.17-.66a2.36,2.36,0,0,1,1.42-1.19l7.32-2.16a16.53,16.53,0,0,0,2.19-.81c.73-.3,1.45-.63,2.17-1,1.59-.69,3.16-1.43,4.73-2.19l2.89-1.43,4.41-2.15c1.14-.54,2.24-1.16,3.43-1.64.27-.1.52-.23.79-.32,1-.31,1.38-.28,1.7.17.07.1.16.19.21.28.16.3-.16.79-.83,1-2,.84-4,1.77-6.09,2.79l-4.69,2.3Z"/><path class="cls-1" d="M260.31,219.09a4.45,4.45,0,0,0,.19,3.91,2.16,2.16,0,0,0,3,1.12c2.1-1.31,2.08-5.54-.33-6.54-1.65-.69-2.53,1.1-2.72,2.44a1,1,0,0,0,.66,1.17,1,1,0,0,0,1.17-.66,4.44,4.44,0,0,1,.23-1l.09-.17c.06-.09,0-.05,0-.05s-.14,0,0,0a1.34,1.34,0,0,0-.19,0c.18,0-.12-.07,0,0s0,0,.12.09a1.9,1.9,0,0,1,.46.82,2.15,2.15,0,0,1,.05,1.15,2.47,2.47,0,0,1-.32.77,3.71,3.71,0,0,1-.29.37c.09,0,.09,0,0,0h.1c-.14,0,.06,0,0,0a1.68,1.68,0,0,1-.28-.24,2.63,2.63,0,0,1-.36-2.26,1,1,0,0,0-.34-1.3,1,1,0,0,0-1.3.34Z"/><path class="cls-1" d="M265.13,232.9a5,5,0,0,0,.33,3.91c.6,1.23,2,1.91,3.14.94a3.84,3.84,0,0,0,1.2-3.86,3.58,3.58,0,0,0-2.22-2.58c-1.79-.5-2.54,1.36-2.72,2.78a1,1,0,0,0,.95.95,1,1,0,0,0,.95-.95,3.38,3.38,0,0,1,.2-.76s.16-.27.07-.14c.11-.17-.09,0,.06-.06s0,0,0,0-.11,0,0,0-.13-.09.07,0c0,0,.23.16.1,0a2.14,2.14,0,0,1,.74,2,1.89,1.89,0,0,1-.26.6c-.1.17-.42.42-.46.51,0-.09.25,0,.07,0,.06,0,.1,0,.1,0s-.05,0-.12-.11a1.06,1.06,0,0,1-.12-.19,3.25,3.25,0,0,1-.24-2.65,1,1,0,0,0-.66-1.17,1,1,0,0,0-1.17.67Z"/><path class="cls-1" d="M239.88,184.17a25.37,25.37,0,0,1-6.22,1.17l-1.56.1-1.56,0a26.91,26.91,0,0,1-3.11-.2,21.13,21.13,0,0,1-2.24-.3,18.12,18.12,0,0,1-2.22-.42,40.69,40.69,0,0,1-7.48-2.62,50.77,50.77,0,0,1-6.85-3.89,57.3,57.3,0,0,1-5.48-4.3,33.58,33.58,0,0,1-6-6.56c-.52-.76-.17-.86.59-.47a14.13,14.13,0,0,1,3.06,2.41,57.91,57.91,0,0,0,14,10.47A34.78,34.78,0,0,0,225,182.92a32.23,32.23,0,0,0,11.75,0,17.55,17.55,0,0,0,6.54-2.83l1.06-.83,1-1c.15-.16.32-.31.47-.49l.4-.54c.26-.37.57-.71.8-1.1a16.78,16.78,0,0,0,2.06-5,22.23,22.23,0,0,0,.13-8.33c-.06-.62-.21-1.2-.33-1.81s-.18-1-.25-1.43a6.27,6.27,0,0,1-.13-1,1.77,1.77,0,0,1,.31-1.22,2.37,2.37,0,0,1,.31-.43c.39-.35,1,.5,1.55,2.21a27.22,27.22,0,0,1,1,8.14,20.24,20.24,0,0,1-2,8.41,17.45,17.45,0,0,1-4,5.23,19.4,19.4,0,0,1-5.69,3.27Z"/><path class="cls-1" d="M237.08,162.56c2.2,2.22,6.55,2.12,9,.35,1.19-.86,0-2.86-1.16-2-1.62,1.17-4.72,1.53-6.22,0-1-1.06-2.67.57-1.63,1.63Z"/><path class="cls-1" d="M275.47,215.58a53.9,53.9,0,0,0-3.05-8c-.45-.94-1-1.83-1.49-2.74a31.86,31.86,0,0,0-6.66-8.62,17.22,17.22,0,0,0-4-2.61,20.87,20.87,0,0,0-5.86-1.54c-.63-.1-.57-.55,0-1a4,4,0,0,1,3.05-.57,17.22,17.22,0,0,1,6.42,2.73,22.66,22.66,0,0,1,5,4.7,51.37,51.37,0,0,1,4.7,6.77,52.39,52.39,0,0,1,3.61,8.24c.62,1.73,1.11,3.5,1.6,5.27.7,2.69,1.21,5.43,1.67,8.15.35,2.11.73,4.18,1,6.3.05.46.11.92.13,1.39.06,1.75-.15,2.31-.73,2.69a2.91,2.91,0,0,1-.41.24c-.45.17-.85-.53-1.06-1.77-.66-3.65-1.12-7.46-1.84-11.27a73.68,73.68,0,0,0-2.06-8.38Z"/><path class="cls-1" d="M294.7,202.42a26.73,26.73,0,0,1,.22-2.84c0-.35.05-.69.12-1a19.79,19.79,0,0,1,1-3.49l.57-1.51c.13-.32.27-.64.4-1a4.19,4.19,0,0,1,.58-.86c.28-.32,1.1.82.8,1.44-.54,1.15-1,2.33-1.47,3.57a10.74,10.74,0,0,0-.48,2.36,21.54,21.54,0,0,0-.25,2.67c0,.55,0,1.1,0,1.65a17.24,17.24,0,0,0,.29,2.5c.16.63.38,1.23.59,1.84.05.13.1.26.14.39.14.5.08.7-.2.91a1.39,1.39,0,0,1-.19.15c-.22.13-.49,0-.73-.36a8.33,8.33,0,0,1-1.28-3.57,19.69,19.69,0,0,1-.21-2.87Z"/><path class="cls-1" d="M293.26,203.84c0-.63,0-1.25,0-1.88a16.83,16.83,0,0,1,.15-1.87,10.28,10.28,0,0,1,.13-1.35,19.18,19.18,0,0,1,1.49-4.56c.26-.65.6-1.28.87-1.93.22-.39.42-.81.64-1.2a5,5,0,0,1,.92-1c.22-.18.56.17.8.65a1.55,1.55,0,0,1,.15,1.44,38.27,38.27,0,0,0-2.15,4.35,12,12,0,0,0-.63,3c-.08.56-.12,1.13-.18,1.7s-.06,1.15,0,1.72a19,19,0,0,0,.13,2.13,16.1,16.1,0,0,0,.64,3.16,18.89,18.89,0,0,0,1,2.23l.25.47c.27.6.22.87-.14,1.23a2.72,2.72,0,0,1-.24.24c-.28.23-.68.13-1.08-.27a9.26,9.26,0,0,1-2.29-4.46,21.82,21.82,0,0,1-.54-3.77Z"/><path class="cls-1" d="M208.79,270.42c-1-.16-1.93-.35-2.88-.56-.35-.09-.71-.13-1.06-.22a18.32,18.32,0,0,1-3.56-1.41,17.21,17.21,0,0,1-1.47-.92,3.7,3.7,0,0,1-1.46-1.71c-.1-.22.2-.32.55-.32a1.38,1.38,0,0,1,1,.31,12.75,12.75,0,0,0,3.22,2,10.66,10.66,0,0,0,2.43.7c.91.22,1.84.38,2.78.53.58.09,1.17.16,1.75.23.89.09,1.78.19,2.67.22.69,0,1.37-.06,2.06-.09l.45,0c.57,0,.74.12.84.53,0,.1.06.19.07.28,0,.32-.21.57-.63.64a16.78,16.78,0,0,1-3.83.14c-1-.07-1.94-.19-2.92-.32Z"/><path class="cls-1" d="M209.46,269.51a42.35,42.35,0,0,1-4.38-1.19c-.53-.18-1.07-.31-1.59-.53a11.59,11.59,0,0,1-4.92-3.54,6.34,6.34,0,0,1-1.08-2.63,4.89,4.89,0,0,1,.66-3.44c.19-.31.55-.07.85.35a2.29,2.29,0,0,1,.47,1.48,4,4,0,0,0,.28,2.36,6.71,6.71,0,0,0,1.65,2,10.16,10.16,0,0,0,3.33,1.64,33.26,33.26,0,0,0,4.14,1.15c.87.19,1.75.36,2.64.48a36.84,36.84,0,0,0,4.05.43,27.31,27.31,0,0,0,3.13-.13c.23,0,.45-.05.68-.05.86,0,1.14.14,1.31.73a3,3,0,0,1,.11.4c.06.46-.29.82-.92.95a22.49,22.49,0,0,1-5.93.19c-1.49-.13-3-.37-4.49-.64Z"/><path class="cls-1" d="M215.09,129.5c-3.74,1.7-7.53,3.31-11.38,4.76-1.41.54-2.81,1.08-4.23,1.57A86.65,86.65,0,0,1,184,139.48c-1.17.16-2.34.32-3.51.42s-2.35.21-3.52.27c-.75.06-1.51.06-2.26.07s-1.51,0-2.27,0-1.51-.1-2.26-.17a20.92,20.92,0,0,1-2.22-.49c-.89-.39-.73-.52.11-.9a8.27,8.27,0,0,1,1.68-.51A10.73,10.73,0,0,1,172,138a75.55,75.55,0,0,0,17.73-1.57,72.27,72.27,0,0,0,10.6-3.19c3.84-1.38,7.62-2.95,11.35-4.63,2.3-1,4.59-2.11,6.85-3.23,3.44-1.69,6.88-3.41,10.28-5.15,2.64-1.34,5.19-2.76,7.95-3.94.6-.27,1.22-.5,1.85-.73a15.52,15.52,0,0,1,1.54-.42,6.12,6.12,0,0,1,1.11-.1,1.6,1.6,0,0,1,1.27.54,1.79,1.79,0,0,1,.35.4c.12.22-.07.44-.46.69a9.26,9.26,0,0,1-1.76.68,66,66,0,0,0-7.1,3.1l-7.32,3.68c-3.67,1.85-7.38,3.68-11.14,5.44Z"/></g></svg>