<svg xmlns="http://www.w3.org/2000/svg" width="520" height="520" viewBox="0 0 520 520"><defs><style>.cls-1{fill:#231f20;}</style></defs><title>Notioly New</title><g id="n.132_Puzzle" data-name="n.132 Puzzle"><path class="cls-1" d="M90.49,447.88a5.09,5.09,0,0,1-2.7-.49.27.27,0,0,1,.09-.51c.58-.09,1.18-.18,1.78-.25.37-.06,6.19-.22,8.17-.25s3.83.05,5.74.13c3.88.18,7.76.36,11.62.49.86,0,1.72.09,2.58.14a80.9,80.9,0,0,0,8.81.14,10,10,0,0,0,1.45-.09c.39,0,2.57-.2,4.77-.33s4.44-.38,4.95-.45c2.55-.11,5.11-.38,7.65-.71a7,7,0,0,1,1.09-.15,15.74,15.74,0,0,0,2.35-.3c1.09-.17,2.16-.41,3.25-.61.54-.1,1.08-.16,1.61-.25s.26.11.1.16c-.47.16-.07.12,0,.16s.05,0,0,.05l-3.16,1.06c-1.6.58-3.33,1-3.67,1.11l-1.53.37-3.32.69c-2.45.51-5,.86-5.57.93s-1.12.08-1.67.1c-.26.08-7.74.66-8.05.59a36.06,36.06,0,0,1-4.65-.07c-.3,0-.62,0-.93,0-2.66,0-5.31-.15-8-.29l-4.06-.18c-.24,0-.49-.05-.73-.07l-.92-.08c-3.2-.13-6.39-.37-9.58-.41-.74,0-4.24-.35-5.08-.35C92.46,448.12,90.91,447.85,90.49,447.88Z"/><path class="cls-1" d="M342.44,443.16a.8.8,0,0,1-.78-.29c-.07-.07-.06-.29,0-.33l.52-.17,2.34-.24c.54-.06,1.09-.09,1.64-.11l3.36-.17c.25,0,.5,0,.74,0a20,20,0,0,0,2.57-.05,1.52,1.52,0,0,0,.42-.06,25.9,25.9,0,0,1,2.85-.16l2.24.17a.85.85,0,0,1,.32,0,1.52,1.52,0,0,0,.69.11,7.73,7.73,0,0,1,1,.06,2.57,2.57,0,0,1,.47.15c.15.05.07.24,0,.26s0,.15,0,.23,0,.06,0,.08a17.3,17.3,0,0,1-2,.39l-3,.19a1.94,1.94,0,0,1-.48,0l-2.3.14a6.58,6.58,0,0,1-1.33,0,.82.82,0,0,0-.27,0c-.76,0-1.53,0-2.29,0l-1.18,0-.21,0-.27,0c-.92,0-1.85,0-2.77.05-.22,0-1.24-.09-1.48-.08S342.57,443.13,342.44,443.16Z"/><path class="cls-1" d="M373.93,437.55l.27-5.1.07-1.86c.14-2.18.32-4.36.44-6.54.06-1,.06-1.93.07-2.89a35.43,35.43,0,0,1,.17-3.71c.05-.38.25-.33.48,0a3.56,3.56,0,0,1,.55,1.64c0,.63.08,1.26.1,1.9l-.05,1.9c0,1.26-.12,2.53-.24,3.8-.15,1.52-.12,3.1-.2,4.66l-.25,5.12-.11,3.15c-.05,1.59-.09,3.19-.05,4.77,0,1.22.17,2.42.24,3.63l.06.79c.06,1,0,1.32-.31,1.56a2,2,0,0,1-.19.15c-.21.11-.44-.28-.59-1a32.34,32.34,0,0,1-.48-3.34c-.07-1.14-.09-2.3-.1-3.46,0-1.72,0-3.44.09-5.16Z"/><path class="cls-1" d="M408,457.22l-7.17-.18-2.61-.05c-3.08-.14-6.12-.26-9.23-.5a35.16,35.16,0,0,1-4.09-.65,38,38,0,0,1-5-1.47c-.51-.19-.38-.4.13-.53a5.48,5.48,0,0,1,2.37.06c1.74.38,3.39.87,5.09,1.12s3.42.34,5.22.47c2.13.15,4.35.12,6.53.16l7.21.13,4.43.05c2.24,0,4.49,0,6.71,0,1.73-.05,3.42-.18,5.12-.29.38,0,.74-.05,1.12-.06,1.41-.07,1.86.13,2.17.43a1.29,1.29,0,0,1,.2.21c.15.23-.42.48-1.45.68a84,84,0,0,1-9.51.5c-2.4,0-4.82,0-7.23,0Z"/><path class="cls-1" d="M421.07,440.06a7.93,7.93,0,0,1-1.08-4.91,5.19,5.19,0,0,1,.21-1.24,5.92,5.92,0,0,1,.39-1.19l.52-1.13a6.75,6.75,0,0,1,.77-1,8.46,8.46,0,0,1,3-2.06,13.91,13.91,0,0,1,4.61-1,15.25,15.25,0,0,1,2.34.06c.39,0,.78.1,1.17.19l.57.14a2.49,2.49,0,0,1,.41.13l.14,0a.19.19,0,0,0,.09-.12,1.63,1.63,0,0,0,.14-.4c.13-.43.24-.88.33-1.33a35.89,35.89,0,0,0,.67-5.16,38.61,38.61,0,0,0-.12-6.63c-.09-.68.1-.63.38-.08a8,8,0,0,1,.69,2.95,39.79,39.79,0,0,1-.15,6c-.1,1-.23,2-.41,3-.09.5-.19,1-.32,1.49l-.12.42a3.84,3.84,0,0,1-.26.62.87.87,0,0,1-1,.41l-.65-.2-.44-.1a8.72,8.72,0,0,0-.89-.16,12.32,12.32,0,0,0-7.75,1.46,6.68,6.68,0,0,0-1.61,1.37,7.94,7.94,0,0,0-1,1.87,7.06,7.06,0,0,0-.18,4.24,6.93,6.93,0,0,0,3.16,4.14,9.34,9.34,0,0,0,8,.56l.48-.2c.23-.09.46-.2.68-.28l.41-.08c.13,0,.29-.12.39,0a1.58,1.58,0,0,1,.3.79,4.18,4.18,0,0,1,.06.51l0,.44,0,.71c0,.93,0,1.87,0,2.8,0,.49,0,1,0,1.46-.1,1.82-.28,2.39-.62,2.75a1.66,1.66,0,0,1-.23.23c-.25.15-.36-.6-.36-1.92s0-2.64,0-4q0-1-.09-2v-.14h0s0,0,0,0l-.46.2c-.34.14-.7.2-1.06.31a10.73,10.73,0,0,1-7.17-.47,8.65,8.65,0,0,1-3.84-3.39Z"/><path class="cls-1" d="M411.19,401.08a13.25,13.25,0,0,0-4.31-.12,14.09,14.09,0,0,0-1.57.32,17.25,17.25,0,0,0-5.22,2.21,14.71,14.71,0,0,0-2,1.55c-.81.72-1.55,1.51-2.35,2.25-.26.23-.4.06-.38-.31a2.43,2.43,0,0,1,.61-1.46c.37-.45.8-.85,1.21-1.27a14.69,14.69,0,0,1,1.38-1.09,15.32,15.32,0,0,1,3.05-1.74,21.49,21.49,0,0,1,4.06-1.44,14.74,14.74,0,0,1,4.73-.27,13.49,13.49,0,0,1,2.86.6,5.37,5.37,0,0,1,2,1.16,2.77,2.77,0,0,1,.87,2.22,5.44,5.44,0,0,1-1.56,3.16l-.55.54c-.75.59-1.1.62-1.42.45a1.43,1.43,0,0,1-.21-.12c-.19-.17,0-.51.47-.94a8.31,8.31,0,0,0,1.68-2.06,1.92,1.92,0,0,0,.12-2,3.05,3.05,0,0,0-1.42-1,5.26,5.26,0,0,0-1-.33,7.15,7.15,0,0,0-1-.24Z"/><path class="cls-1" d="M438.79,399a8.23,8.23,0,0,0-2.62,1.45,4.5,4.5,0,0,0-.71.75,1.16,1.16,0,0,0-.26.65,1,1,0,0,0,.35.6,3,3,0,0,0,.76.53,6.59,6.59,0,0,0,1.07.46l.37.13.33.23.16.11c0,.06,0,.11,0,.16a2.1,2.1,0,0,1-.7.71l-.33.25-.22.19-.44.37-.84.72c-.16.15-.34,0-.38-.31a1.34,1.34,0,0,1,.46-1.09l.58-.47.29-.22h0s.06,0,0,0a12,12,0,0,1-1.33-.77,2.34,2.34,0,0,1-1-1.47,2.29,2.29,0,0,1,.68-1.66,9.07,9.07,0,0,1,2.79-1.91,8.69,8.69,0,0,1,2-.6,11,11,0,0,1,3.09-.06,18.36,18.36,0,0,1,2.34.36,4.54,4.54,0,0,1,.5.12c.62.18.79.33.83.61,0,.07,0,.14,0,.2s-.32.28-.76.18a22.78,22.78,0,0,0-4-.59,8.24,8.24,0,0,0-3,.43Z"/><path class="cls-1" d="M447.9,414.33l1.59-1.84.55-.7c.68-.8,1.34-1.61,2-2.44.29-.37.56-.75.82-1.13s.63-1,1-1.46c.22-.3.49.41.14,1a19.6,19.6,0,0,1-2.15,3c-.49.55-.93,1.18-1.4,1.76s-1.05,1.28-1.6,1.9l-1,1.13-1.56,1.7c-.41.43-.78.89-1.19,1.31l-.28.27c-.37.32-.51.39-.67.37l-.11,0c-.1,0,0-.24.2-.52.63-.84,1.35-1.65,2.08-2.48.54-.61,1.08-1.23,1.6-1.86Z"/><path class="cls-1" d="M447.21,422.09c.54-.52,1.07-1.06,1.59-1.6l.55-.61c.66-.71,1.31-1.43,1.94-2.17.28-.33.55-.67.81-1a12.54,12.54,0,0,1,1-1.28c.24-.25.4.43,0,.93a31.56,31.56,0,0,1-2.2,2.58c-.46.5-.91,1.05-1.38,1.56s-1.05,1.12-1.58,1.66l-1,1-1.53,1.48-1.13,1.18-.25.26c-.32.31-.45.37-.63.32l-.12,0c-.11-.06-.05-.26.16-.51a28.3,28.3,0,0,1,2.09-2.17l1.63-1.59Z"/><path class="cls-1" d="M450.08,429.8c.34-.36.68-.72,1-1.09.12-.14.23-.27.34-.42q.65-.71,1.26-1.44a7.9,7.9,0,0,0,.5-.68,4.64,4.64,0,0,1,.66-.87c.17-.15.57.5.32.84a13.55,13.55,0,0,1-1.43,1.7c-.33.32-.59.7-.89,1.05l-1,1.13c-.21.23-.43.45-.63.68s-.65.68-1,1-.44.56-.66.84l-.15.19c-.19.22-.29.25-.47.17l-.12-.05c-.12-.08-.12-.25,0-.43a10.59,10.59,0,0,1,1.23-1.55l1-1.11Z"/><path class="cls-1" d="M423.73,411.15l-2.79-.1c-.34,0-.68,0-1,0-1.2-.08-2.39-.2-3.58-.34l-1.6-.17a4.91,4.91,0,0,1-2-.57c-.2-.11-.08-.29.17-.45a1.5,1.5,0,0,1,.95-.27c1.27.12,2.6.31,4,.51a18.79,18.79,0,0,0,2.5.11l2.77.06h1.71c.86,0,1.73,0,2.58-.09.67-.05,1.31-.19,2-.3l.42-.08c.54-.06.72,0,.87.33l.1.2c.08.24-.12.46-.51.61a15.43,15.43,0,0,1-3.68.55c-.93.06-1.87.06-2.81.06Z"/><path class="cls-1" d="M255.56,297l-.15-.68-.06-.34,0-.16v0s0-.06-.06-.07l-.6-.06-1.32-.07c-.49,0-1,0-1.46,0-1.73,0-3.46,0-5.19.06-.76,0-1.53.1-2.29.18-1,.11-1.93.27-2.91.31-.61,0,0-1,1.17-1.1a45.25,45.25,0,0,1,6.05-.32c1.22,0,2.47-.07,3.72-.07l1.82,0,.92.07a2.86,2.86,0,0,1,.6.11.63.63,0,0,1,.42.46l.11.56a16,16,0,0,0,.63,2.38,9,9,0,0,0,1.8,3.18,7.33,7.33,0,0,0,2.24,1.63l.55.25c.69.32.91.43,1,.76a1.91,1.91,0,0,1,0,.21c0,.23-.36.27-.95.1a8.26,8.26,0,0,1-4.45-3.45,12.91,12.91,0,0,1-1.59-4Z"/><path class="cls-1" d="M202.22,279.65a11.64,11.64,0,0,0-4.36,2.32,12,12,0,0,0-1.25,1.32,15.72,15.72,0,0,0-3.56,8.67c-.15,1.25-.13,2.52-.21,3.78,0,.4-.25.36-.48,0a3.21,3.21,0,0,1-.52-1.72A18,18,0,0,1,196.18,282a12.27,12.27,0,0,1,4.54-3.1A15.47,15.47,0,0,1,204,278a13.17,13.17,0,0,1,5.08.11,14.89,14.89,0,0,1,3.64,1.42,7.74,7.74,0,0,1,.73.43c.87.61,1.07.9,1.1,1.25a1.93,1.93,0,0,1,0,.23c0,.23-.48.11-1.17-.21-2-.92-4-2-6.18-2.14a15.43,15.43,0,0,0-5,.58Z"/><path class="cls-1" d="M173.81,300.94a7.88,7.88,0,0,0-2.36,1l-.41.37a3.67,3.67,0,0,0-.27.44l-.21.57c-.06.21-.1.43-.14.64a12.66,12.66,0,0,0-.17,2,58.9,58.9,0,0,0,.32,7.24c.09,1.08.23,2.16.36,3.23a16.05,16.05,0,0,1,.1,4.22c-.08.45-.27.33-.47,0a6.4,6.4,0,0,1-.55-1.77c-.08-.68-.2-1.37-.3-2.07l-.24-2.09c-.16-1.41-.3-2.82-.34-4.26a49,49,0,0,1-.08-5.3,8.75,8.75,0,0,1,.68-3,4.65,4.65,0,0,1,2.5-1.95,19.23,19.23,0,0,1,3.5-.92c1.78-.32,3.58-.47,5.35-.64l4.08-.42a8.89,8.89,0,0,1,.89-.07c1.13,0,1.49.09,1.74.34a1.41,1.41,0,0,1,.17.18c.11.19-.34.39-1.15.56-2.41.43-5,.53-7.48.82a34.09,34.09,0,0,0-5.51,1Z"/><path class="cls-1" d="M190,345.3a40.3,40.3,0,0,1-4.11,1.92c-.51.21-1,.47-1.52.63a57,57,0,0,1-5.56,1.62c-.83.18-1.65.42-2.47.64a19.43,19.43,0,0,1-3.21.56c-.68,0,0-1.32,1.13-1.63l1.58-.38c.52-.14,1-.26,1.58-.38L179,348l1.59-.37a27,27,0,0,0,3.8-1.29l2-.84c.68-.3,1.33-.63,2-.95s1.6-.85,2.37-1.32a25.56,25.56,0,0,0,3.32-2.41,15.08,15.08,0,0,0,2.07-2.32c.12-.18.24-.37.37-.55.44-.68.63-.8,1.08-.75a.69.69,0,0,0,.23-.09c.1-.05.2,0,.29.31a.8.8,0,0,1,0,.43,1.33,1.33,0,0,1-.17.47,10.39,10.39,0,0,1-1.84,2.47,19.73,19.73,0,0,1-2.31,2.07l-.92.7-1,.63c-.63.44-1.31.81-2,1.19Z"/><path class="cls-1" d="M280.87,335.72c-1.18-.57-2.34-1.19-3.48-1.84-.41-.24-.83-.46-1.24-.72a22.39,22.39,0,0,1-4-3.16,11.18,11.18,0,0,1-1.47-1.75,7.9,7.9,0,0,1-.65-1.34,3.44,3.44,0,0,1-.17-1.49c0-.32.19-.24.36,0a8,8,0,0,1,.54,1.07,5.05,5.05,0,0,0,.26.59,4.8,4.8,0,0,0,.39.53c.29.33.53.7.85,1a22.75,22.75,0,0,0,2,1.91,18.65,18.65,0,0,0,2.89,1.93c1.11.65,2.24,1.26,3.41,1.82.71.34,1.44.67,2.17,1,1.11.46,2.24.91,3.38,1.26.89.28,1.79.46,2.69.65l.59.11c.73.17.95.29,1,.66a2.27,2.27,0,0,1,.06.25c0,.27-.34.4-.91.35a22.67,22.67,0,0,1-5.06-1.29c-1.25-.45-2.46-1-3.67-1.53Z"/><path class="cls-1" d="M307.37,352.07c5.41-4,3.49-14,3.49-14l2.68,1.88S313.31,349.49,307.37,352.07Z"/><path class="cls-1" d="M152.93,356.61c-5.38-5-.35-16.64-.35-16.64l-3.77,1.34s-2.51,5-.63,9.93S152.93,356.61,152.93,356.61Z"/><path class="cls-1" d="M223.37,394.68s46.71-30.2,72.23-28.62c0,0,19.26.05,24.48,10.8a20.33,20.33,0,0,1-5.62,25c-5.57,4.29-28.7,17.89-33.3,17.55Z"/><path class="cls-1" d="M166.33,373a16.06,16.06,0,0,0,4.18-3,15.21,15.21,0,0,0,1.17-1.48,11.59,11.59,0,0,0,2.33-6.17,9.52,9.52,0,0,0,0-1.51c-.06-.5-.14-1-.24-1.49-.29-1.26-.79-2.45-1.13-3.73-.1-.4.31-.55.85-.39a2.36,2.36,0,0,1,1.54,1.39,12.85,12.85,0,0,1,1,4.35,11.51,11.51,0,0,1-.65,4.47,16.87,16.87,0,0,1-2.46,4.86,17.62,17.62,0,0,1-4.4,3.91,24,24,0,0,1-3.19,1.63,23.19,23.19,0,0,1-5.23,1.38,17.36,17.36,0,0,1-4.21.19c-.31,0-.63-.08-.95-.14-1.16-.34-1.45-.71-1.45-1.26a2.3,2.3,0,0,1,0-.38c.1-.4.62-.49,1.34-.41a20.15,20.15,0,0,0,6.65-.42,19.71,19.71,0,0,0,4.87-1.8Z"/><path class="cls-1" d="M323.75,431.72s-4.51-12.65-19.21-8.74l-8.94,2.32s-89.27-37.72-97.79-40.88S152.67,365,134.3,365.82c0,0-21.83.32-26.28,8.19s-8.76,16.89,1.25,30.39c14,18.9,59.76,28,102.57,30.79,0,0,71.91,5.88,75.62,5.16s37.34.84,41.15,1.87,27.39.69,26.47-4.18S330.77,429.37,323.75,431.72Z"/><path class="cls-1" d="M235.19,437.91s-66.6,6.58-78.75,7.85-54,7.09-58.56-3.93c0,0-1-4.4,14.62-3.92l11.93,0s6.91-10.61,16.65-8.9,12.7,4.93,15.6,4.16,10.83-5.08,10.83-5.08L238.57,437"/><path class="cls-1" d="M172.93,369.38c-1,2.11-2.41,3.76-4.71,4.08h0l57.28,21.29s18.7-17.33,48.62-25.46l-3.61-8.06c-4.71-2-27.37,3.25-27.37,3.25-9.73-1.23-23.24,3.87-23.24,3.87s2.72-1.4.45-10.2-13.59-8.07-13.59-8.07c-16.29,2.52-10.28,18.45-10.28,18.45Z"/><path class="cls-1" d="M290.91,142.66s-12.2-44.17-43.06-34.72l-6.59,2.78s-17.11-23.82-49.82-8.35c0,0-21.73,6.72-44.14,40.56,0,0-19.34,24.93-22.25,45.64,0,0-6.34,22.59,19.16,41,0,0,21.38,16,36.93,11.13,0,0,10.51-10.63,11.87-9.83,2.3,1.35,14.35,16,27.8,17,0,0,10.53.81,9.07-7.51,0,0-3.58-10-1.17-10.15s20.92,14.51,21.87,16.26c0,0,28.35,1.39,37-16.26C287.63,230.28,306.78,185.42,290.91,142.66Zm-34.47,50c-8.52,26.69-28.68,26.38-28.68,26.38-26.23.84-36.32-23.12-36.32-23.12-8.41-14.5-4.22-36.87-4-37.89,0,.81,31.91-1.61,45.75-22.36l4.93-4.48c-.88,24.83,24.42,38.48,24.42,38.48C259.6,186.62,256.44,192.7,256.44,192.7Z"/><path class="cls-1" d="M208.23,153.13a51.8,51.8,0,0,0,9.68-4.77c1.11-.72,2.18-1.49,3.23-2.28a57.3,57.3,0,0,0,10.26-9.49,50,50,0,0,0,3.71-5c.73-1.11,1.38-2.27,2.07-3.41s1.38-2.27,2.11-3.41c.52-.76.74-.41.78.39a8.37,8.37,0,0,1-.78,3.66,46.88,46.88,0,0,1-10.11,13.4,78.17,78.17,0,0,1-7.86,6.7,56.39,56.39,0,0,1-9.9,5.58,63.27,63.27,0,0,1-6.55,2.39,66.63,66.63,0,0,1-10.29,2.19l-2,.3-2,.23c-1.33.2-2.67.29-4,.37-.59,0-1.17.11-1.77.11-2.21-.1-2.9-.32-3.34-.95a2.64,2.64,0,0,1-.29-.42c-.18-.48.73-.85,2.3-1A134.47,134.47,0,0,0,197.76,156a61.12,61.12,0,0,0,10.44-2.94Z"/><path class="cls-1" d="M250.31,160.82a79,79,0,0,1-5.13-6.93c-.58-.87-1.18-1.73-1.71-2.63a52.07,52.07,0,0,1-4.53-10.11,42,42,0,0,1-1.22-4.79,14.43,14.43,0,0,1-.06-6.34c.16-.65.52-.48.88.11a5.53,5.53,0,0,1,.49,1.13,5.07,5.07,0,0,1,.34,1.5c.29,3.93,1.68,7.72,3.12,11.57a38.59,38.59,0,0,0,3.65,6.61,72.34,72.34,0,0,0,4.88,6.82c1.09,1.34,2.21,2.66,3.4,3.91a50.6,50.6,0,0,0,5.73,5.33,34.5,34.5,0,0,0,5,3.14c.38.2.77.36,1.14.57,1.42.73,1.81,1,1.89,1.79a2.83,2.83,0,0,1,.05.5c0,.51-.83.66-2.06.26-3.66-1.17-6.89-3.57-9.83-6.14a66.6,66.6,0,0,1-6.1-6.25Z"/><path class="cls-1" d="M235.26,219.14a32.2,32.2,0,0,1-11.91,1.36,37.41,37.41,0,0,1-11.57-2.66,36.34,36.34,0,0,1-7.57-4.21,42.09,42.09,0,0,1-10.28-11.06,56.19,56.19,0,0,1-3.59-6.6,63.16,63.16,0,0,1-2.62-7,66,66,0,0,1-2.48-13,59.83,59.83,0,0,1-.12-8.47c.07-1.41.24-2.82.43-4.22a38.43,38.43,0,0,1,.9-4.13c.47-1.7.87-1.35,1.09.19.11.76.19,1.82.26,3.08s0,2.7-.09,4.25a60.07,60.07,0,0,0,6.66,32.11,37.9,37.9,0,0,0,13.88,14.56,33.7,33.7,0,0,0,21.49,4.47,26.2,26.2,0,0,0,12.55-5.21,34,34,0,0,0,7.16-7.64,50.72,50.72,0,0,0,5-9.29A79.06,79.06,0,0,0,258.81,180c.23-1.18.38-2.34.59-3.52.7-4.41,1-5.8,1.85-6.66a3.93,3.93,0,0,1,.57-.58c.58-.37.86,1.52.51,4.84a87.17,87.17,0,0,1-2.86,15,62.64,62.64,0,0,1-6.11,14.6,39.57,39.57,0,0,1-7.54,9.41,32.71,32.71,0,0,1-4.94,3.63,30.22,30.22,0,0,1-5.59,2.53Z"/><path class="cls-1" d="M294.74,196.08a143.15,143.15,0,0,0,.54-15.64c-.1-5.2-.69-10.41-1.28-15.63l-.82-5.67-1-5.64a115.05,115.05,0,0,0-5.33-19.38c-2.43-6.22-5.53-12.27-10-17.15a36.73,36.73,0,0,0-3.15-3.09,31.76,31.76,0,0,0-3.57-2.55,26.28,26.28,0,0,0-8.06-3.28,28.18,28.18,0,0,0-11.13-.06,29.72,29.72,0,0,0-5.4,1.54,23.1,23.1,0,0,0-5,2.55c-.48.32-.8.57-1,.71s-.36.18-.4.11,0-.22.15-.47a4.36,4.36,0,0,1,.73-1,19.68,19.68,0,0,1,9.09-5.13,28.88,28.88,0,0,1,12.21-.64,28.52,28.52,0,0,1,11.41,4.57,34.78,34.78,0,0,1,8.69,8.59,54.35,54.35,0,0,1,6,10.51l.75,1.65.65,1.69c.42,1.14.9,2.25,1.29,3.41.75,2.31,1.57,4.61,2.18,7,.32,1.18.68,2.35,1,3.54l.83,3.58c.6,2.38.94,4.8,1.4,7.19.48,2.64.76,5.3,1.15,7.94s.55,5.32.83,8a132.5,132.5,0,0,1,.31,16.06A134.86,134.86,0,0,1,295.54,209a85.13,85.13,0,0,1-3.94,14.47c-.23.58-.43,1.18-.67,1.75l-.77,1.72c-.48,1.17-1.11,2.26-1.7,3.37l-.44.83-.51.8-1,1.59c-.36.52-.77,1-1.15,1.5a15.36,15.36,0,0,1-1.21,1.46,32,32,0,0,1-9.17,7.13,38.06,38.06,0,0,1-11,3.65c-.84.17-1.68.28-2.51.38s-1.68.21-2.54.25a31.69,31.69,0,0,1-6.73-.16,7.17,7.17,0,0,1-2.9-1,5.79,5.79,0,0,1-.82-.55c-.53-.59,2-.69,6.48-.75,6.59-.09,13.38-1.26,19.29-4.4a28.59,28.59,0,0,0,7.85-6.12,34.48,34.48,0,0,0,5.51-8.5,72.53,72.53,0,0,0,4.78-14.78,121.39,121.39,0,0,0,2.3-15.58Z"/><path class="cls-1" d="M126.55,175.56a107.29,107.29,0,0,1,8.26-18l2.49-4.24,1.24-2.12,1.32-2.07,2.63-4.16,2.78-4c1.33-2,2.78-3.9,4.19-5.84s2.92-3.79,4.42-5.65a126.33,126.33,0,0,1,17.94-17.88,93.71,93.71,0,0,1,10.44-7.23c1.79-1.14,3.72-2,5.58-3,1.94-.86,3.85-1.8,5.86-2.5,1.75-.71,3.57-1.22,5.37-1.78.91-.26,1.84-.45,2.76-.68s1.85-.4,2.78-.55a53.25,53.25,0,0,1,5.64-.68l2.83-.06c.95,0,1.89.09,2.83.13a35.83,35.83,0,0,1,14,3.77,30.46,30.46,0,0,1,3.17,1.85c.5.35,1,.73,1.47,1.09A14.34,14.34,0,0,1,236,103a24.6,24.6,0,0,1,4.73,5.55c1.52,2.64.93,2.42-.81.62-.89-.88-2.2-2.06-3.8-3.35a42.34,42.34,0,0,0-5.91-3.83,35,35,0,0,0-13.11-4,45.86,45.86,0,0,0-13.86.76c-9.21,1.83-17.84,6.24-25.72,11.66a99.66,99.66,0,0,0-13.28,11.42l-3.07,3.21-2.94,3.35c-1,1.11-1.92,2.27-2.84,3.43s-1.88,2.3-2.77,3.47c-1.94,2.62-3.92,5.2-5.72,7.92s-3.6,5.43-5.34,8.19-3.34,5.61-5,8.42-3,5.74-4.38,8.7c-3.25,7.28-5.8,15-6.55,22.88a38.26,38.26,0,0,0,.13,8.95,33.83,33.83,0,0,0,.89,4.37l.74,2.12c.12.35.23.71.37,1.05l.47,1a52.1,52.1,0,0,0,10.19,14.75,62.86,62.86,0,0,0,10.75,8.69,59.54,59.54,0,0,0,12.37,5.85l2.88.81c.49.12,1,.29,1.45.39l1.48.27,2.53.5c.77.16,1.49.18,2.14.28,1.29.14,2.33.32,3.2.43a19,19,0,0,1,2.13.22c.57.12,1,.27,1.45.4s.87.24,1.1.33c.38.16-.21.31-1.61.59a17.7,17.7,0,0,1-2.71.34,11.55,11.55,0,0,1-1.77,0l-2-.1-1.61-.1c-.53,0-1.06-.16-1.59-.24l-3.19-.55c-1.06-.22-2.1-.55-3.15-.83a26.28,26.28,0,0,1-3.12-1L156,238.86c-1-.44-2-1-3-1.42l-1.49-.72-1.44-.84c-1-.57-1.92-1.12-2.86-1.71a68.67,68.67,0,0,1-10.41-8.5,62.19,62.19,0,0,1-8.36-10.7,42.37,42.37,0,0,1-2.39-4.52,39.32,39.32,0,0,1-1.88-4.81,36.74,36.74,0,0,1-1.39-10.23,48.92,48.92,0,0,1,1-10.13,73.08,73.08,0,0,1,2.63-9.73Z"/><path class="cls-1" d="M222.64,249.56a22.69,22.69,0,0,1-9.24-1.87c-1.08-.47-2-.86-3-1.35a53.36,53.36,0,0,1-9.82-6.13,48.47,48.47,0,0,1-3.8-3.5,19.54,19.54,0,0,1-3.63-5.5c-.27-.62.07-.69.66-.37a8.79,8.79,0,0,1,2.19,1.89c.35.39.73.76,1.09,1.13a5.85,5.85,0,0,0,.57.54l.53.57c.72.74,1.49,1.44,2.28,2.11s1.62,1.32,2.47,1.95,1.69,1.27,2.57,1.88a47.39,47.39,0,0,0,7.05,3.66,25.27,25.27,0,0,0,4,1.57,20.46,20.46,0,0,0,4.16.77,13.14,13.14,0,0,0,5.05-.51,5.08,5.08,0,0,0,2.83-2,5.52,5.52,0,0,0,.4-3.53c-.28-2-1.1-4-1.54-6.15a12,12,0,0,1-.25-1.48c-.19-1.94.51-2.59,1.16-2.8a1.78,1.78,0,0,1,.48-.12c.25,0,.44.19.58.51a3.2,3.2,0,0,1,.18.57,4.39,4.39,0,0,1,.2.74,37.67,37.67,0,0,0,1.19,5.27,25.12,25.12,0,0,1,.65,3,9.59,9.59,0,0,1-.09,3.64l-.21.74a5.35,5.35,0,0,1-.34.73,5,5,0,0,1-.94,1.3,8,8,0,0,1-2.4,1.64,14.09,14.09,0,0,1-5,1.09Z"/><path class="cls-1" d="M136.13,300.2a185.58,185.58,0,0,1,11.23-20.77c1.52-2.43,3-4.87,4.67-7.23a176.36,176.36,0,0,1,19.38-23.28c3.14-3.19,6.39-6.32,9.7-9.29a95.05,95.05,0,0,1,13.55-10.52c1.58-.84,1.56-.43.67.9a29.59,29.59,0,0,1-5.28,5.45,195.92,195.92,0,0,0-25,23.8,153,153,0,0,0-12.79,17,183.84,183.84,0,0,0-11.71,20.34q-3.2,6.48-5.85,13.22a136,136,0,0,0-6.42,20.88,75.26,75.26,0,0,0-1.73,16.49c0,1.21.11,2.38.24,3.57a35.76,35.76,0,0,0,.79,4.56,9,9,0,0,1,.35,2.1c0,.24.12.54.12.72s-.38.16-1.07-.49a8.6,8.6,0,0,1-1.9-3.66,30.49,30.49,0,0,1-1-7.83,56.83,56.83,0,0,1,.47-7.91,104.94,104.94,0,0,1,3.24-15.68,158.38,158.38,0,0,1,8.28-22.4Z"/><path class="cls-1" d="M262.69,261c-1.23-1.45-2.51-2.86-3.78-4.3S256.3,254,255,252.57l-3-2.92c-3.5-3.45-7.11-6.82-10.9-10-1.66-1.43-3.42-2.74-5.15-4.05-1.13-.8-2.25-1.65-3.41-2.41L230.81,232l-1.74-1.14c-.72-.48-.52-.62.24-.45a11.2,11.2,0,0,1,3.48,1.46,109.48,109.48,0,0,1,13.7,10.49l3.95,3.47c1.35,1.15,2.67,2.34,4,3.54s2.82,2.67,4.2,4,2.74,2.77,4.08,4.18c1.68,1.7,3.2,3.56,4.8,5.34,1.17,1.39,2.29,2.82,3.44,4.22l3.29,4.33c.81,1.15,1.61,2.29,2.44,3.41a18.72,18.72,0,0,1,1.17,1.73l1.1,1.79a14.7,14.7,0,0,1,.93,1.59c1,2.12,1.12,2.87.73,3.55a2.44,2.44,0,0,1-.27.45c-.37.36-1.12-.33-1.92-1.72-.3-.52-.59-1.05-.88-1.57l-1-1.53c-.69-1-1.29-2.1-2-3.11L272.29,273c-.76-1-1.54-2-2.31-3.06-1.12-1.53-2.39-3-3.57-4.48s-2.52-2.89-3.76-4.36Z"/><path class="cls-1" d="M194.84,341a35,35,0,0,1-6.9,4.86c-.88.52-1.78,1-2.69,1.44a50.15,50.15,0,0,1-10.18,3.22c-.77.16-1.56.34-2.29.51a8,8,0,0,0-2,.73c-1.58.85-2.91,2.34-4.54,3.48-.51.36-.77,0-.71-.76a4.13,4.13,0,0,1,1.27-2.54,14.9,14.9,0,0,1,2.62-2,9.36,9.36,0,0,1,3.27-1.15c1-.19,1.93-.38,2.91-.55l2.9-.67a28.34,28.34,0,0,0,3.44-1.15c1.11-.5,2.24-1,3.31-1.55A36.78,36.78,0,0,0,192,340.6a26.47,26.47,0,0,0,3.52-3.42c.19-.24.4-.47.57-.72l.2-.27a1.13,1.13,0,0,0,.15-.21,2.56,2.56,0,0,0,.27-.45.32.32,0,0,0-.11-.46,1.86,1.86,0,0,0-1-.07l-.13,0-.22,0-.45.09-.89.23a37.29,37.29,0,0,0-5.34,2.16l-1.15.55c-1.44.67-2,.7-2.55.23-.12-.08-.26-.13-.33-.19s-.06-.27.1-.63a2.2,2.2,0,0,1,1-1,39,39,0,0,1,4.93-2.27c.87-.32,1.76-.64,2.68-.91.47-.13.94-.26,1.44-.36l.38-.07c.22,0,.47-.08.69-.1a6.27,6.27,0,0,1,1.3,0,2.68,2.68,0,0,1,1.51.6,2,2,0,0,1,.67,1.36,3.73,3.73,0,0,1-.15.77l-.37.85a4.26,4.26,0,0,1-.49.84l-.43.61a28.32,28.32,0,0,1-2.94,3.22Z"/><path class="cls-1" d="M199,324.13c.56-.17,1.12-.34,1.73-.47a9.85,9.85,0,0,1,1.26-.2h.74c.23,0,.44.1.66.14a1.94,1.94,0,0,1,1,.83,2.31,2.31,0,0,1,.17,1.26c-.05.23-.09.46-.15.69l-.27.69a4.6,4.6,0,0,1-.3.54,3.51,3.51,0,0,1-.27.4,11.17,11.17,0,0,1-1.77,2,39.46,39.46,0,0,1-7.44,4.75l-3.41,1.79a25.1,25.1,0,0,1-4.5,2c-.5.14-.58-.25-.35-.78a3.64,3.64,0,0,1,1.6-1.66c2.9-1.53,5.84-3,8.7-4.54A20.31,20.31,0,0,0,201,328a9.91,9.91,0,0,0,.94-1.18c.08-.1.12-.21.19-.31a1.15,1.15,0,0,0,.08-.15,1.17,1.17,0,0,0,.12-.31.3.3,0,0,0-.31-.45,1.56,1.56,0,0,0-.37,0,1.48,1.48,0,0,0-.24,0l-.38.08a28.41,28.41,0,0,0-3.84,1.29c-1.92.78-3.84,1.63-5.68,2.58-1.43.74-2.77,1.59-4.14,2.42l-.9.55c-1.15.62-1.59.69-2.09.37a1.51,1.51,0,0,1-.32-.22c-.28-.3,0-.82.8-1.4a52.4,52.4,0,0,1,7.75-4.51,58.45,58.45,0,0,1,6.37-2.68Z"/><path class="cls-1" d="M195.46,319.28a22.26,22.26,0,0,1,3-.47,11.63,11.63,0,0,1,3.16.08,5.33,5.33,0,0,1,1.25.37,2.87,2.87,0,0,1,1.18.93,2.69,2.69,0,0,1,.48,1.29,3.86,3.86,0,0,1-.12,1.26,3.33,3.33,0,0,1-1.52,1.81,17.1,17.1,0,0,1-3.63,1.3,24.5,24.5,0,0,0-3,1.07,25,25,0,0,0-3.5,2c-.36.22-.51,0-.4-.47a2.89,2.89,0,0,1,1.17-1.65c2.46-1.77,5.5-2.35,7.93-3.26.7-.29,1.25-.71,1.35-1.2a1.63,1.63,0,0,0,0-.8,1.06,1.06,0,0,0-.48-.51,4.93,4.93,0,0,0-2.35-.37,17.17,17.17,0,0,0-2.72.35,29.06,29.06,0,0,0-3.36.86,39.88,39.88,0,0,0-4.94,1.89,34.88,34.88,0,0,0-3.51,2l-.74.48a3.1,3.1,0,0,1-1.08.47,1.09,1.09,0,0,1-.76-.25,2.72,2.72,0,0,1-.32-.25c-.29-.28-.11-.89.55-1.42a28.65,28.65,0,0,1,6.78-3.73,42,42,0,0,1,5.66-1.84Z"/><path class="cls-1" d="M270.66,317.21a10.59,10.59,0,0,0-1.94-.42,4.74,4.74,0,0,0-.72,0,.23.23,0,0,0-.17.08.26.26,0,0,0,0,.1.54.54,0,0,0,0,.26,2.24,2.24,0,0,0,.34.77,8,8,0,0,0,1.6,1.59,40.26,40.26,0,0,0,7.49,4.68c1.18.6,2.41,1.12,3.64,1.62a48.36,48.36,0,0,1,4.69,2c.48.25.26.59-.3.8a3.81,3.81,0,0,1-2.43,0,51.14,51.14,0,0,1-9.58-4.48,37.2,37.2,0,0,1-5.55-3.7,7.27,7.27,0,0,1-1.51-1.83,2.91,2.91,0,0,1-.09-2.9,5.37,5.37,0,0,1,.37-.44,3,3,0,0,1,.47-.32,2.75,2.75,0,0,1,1-.25,6.34,6.34,0,0,1,1.66.12,24.71,24.71,0,0,1,4.3,1.32c2.09.8,4.1,1.75,6.11,2.65,1.55.7,3.12,1.31,4.67,2,.34.15.68.28,1,.44,1.24.62,1.56.95,1.6,1.54,0,.13,0,.27,0,.4,0,.41-.73.44-1.68.11-2.85-1-5.68-2.36-8.56-3.59a53,53,0,0,0-6.44-2.45Z"/><path class="cls-1" d="M274.49,312.62a22.42,22.42,0,0,0-5.76-1.33,3,3,0,0,0-1.48.25c-.12.13-.19.2.06.78a5.21,5.21,0,0,0,1,1.42,11.28,11.28,0,0,0,3.11,2.16,25,25,0,0,0,3.26,1.32,37.94,37.94,0,0,1,4.28,1.57c.43.21.27.45-.2.59a4.18,4.18,0,0,1-2.11,0,38,38,0,0,1-4.47-1.44,15.3,15.3,0,0,1-4.28-2.4,8.58,8.58,0,0,1-2.09-2.4l-.18-.41-.1-.2-.06-.28a2.13,2.13,0,0,1,0-1.15,2.33,2.33,0,0,1,1.61-1.42,8.71,8.71,0,0,1,3.48,0,24,24,0,0,1,3.18.68c1.27.36,2.51.8,3.74,1.26,1.86.71,3.66,1.57,5.42,2.45,1.37.69,2.75,1.32,4.08,2.12.29.18.58.34.86.54a3.21,3.21,0,0,1,1,.94,1.07,1.07,0,0,1,.06.84,2.22,2.22,0,0,1-.12.39c-.19.37-.83.35-1.58-.09-2.21-1.29-4.57-2.61-7-3.78a49.35,49.35,0,0,0-5.67-2.28Z"/><path class="cls-1" d="M193.54,311.78a55.43,55.43,0,0,0-10.74,3c-1.27.48-2.51,1.07-3.69,1.65l-.73.4a4.16,4.16,0,0,0-.64.45l-.67.54-.64.6A31.79,31.79,0,0,0,174,321c-1.53,1.85-3,3.83-4.4,5.81-1.27,1.76-2.49,3.59-3.77,5.34a38.88,38.88,0,0,1-5.38,6.43c-.68.57-.83.26-.66-.57a8.5,8.5,0,0,1,1.62-3.39c3.37-4.43,6.4-9.16,10.06-13.66,1.11-1.33,2.23-2.72,3.52-4,.33-.32.64-.65,1-.95a11.18,11.18,0,0,1,1.13-.91,19.87,19.87,0,0,1,2.46-1.27,63.78,63.78,0,0,1,11.09-3.67,32.23,32.23,0,0,1,3.58-.62,9.78,9.78,0,0,1,3.82.18,2.92,2.92,0,0,1,.78.37c.14.1.26.2.39.31a3.58,3.58,0,0,1,.29.39,2.32,2.32,0,0,1,.16,1.87,5.5,5.5,0,0,1-1.92,2.35,27.9,27.9,0,0,1-4.69,2.86c-1.26.63-2.52,1.21-3.82,1.73a28.55,28.55,0,0,0-3.67,1.48,7.31,7.31,0,0,0-1.27.91c-1.4,1.28-1.71,1.9-2.48,2a3.36,3.36,0,0,1-.47.13c-.4.07-.59-1,.43-2.66a8.12,8.12,0,0,1,3.23-2.75A14.82,14.82,0,0,1,187,318l.88-.3.83-.31a44.59,44.59,0,0,0,6.58-3.23,10.62,10.62,0,0,0,2-1.51c.1-.12.23-.26.31-.37a1,1,0,0,1,.08-.14l0-.07v0c.07-.07,0-.11,0-.1s.05,0-.07,0a1.41,1.41,0,0,0-.34-.12,5,5,0,0,0-1.11-.13,15.15,15.15,0,0,0-2.62.23Z"/><path class="cls-1" d="M153.39,337.89c.85-.31,1.71-.62,2.55-1,.31-.12.59-.3.9-.42,1.09-.43,2.18-.87,3.24-1.36a9.37,9.37,0,0,0,1.35-.76l.79-.55c.27-.16.57-.32.81-.44s.39.1.48.45a1.38,1.38,0,0,1-.29,1.19,12.27,12.27,0,0,1-3.66,2.08c-.8.27-1.52.74-2.3,1.09s-1.7.75-2.56,1.1l-1.6.64c-.8.33-1.62.63-2.4,1-.61.28-1.17.65-1.75,1-.13.07-.25.15-.39.21-.5.22-.71.16-1-.3a3.21,3.21,0,0,1-.19-.31.77.77,0,0,1,.22-1,12.63,12.63,0,0,1,3.22-1.67l2.56-1Z"/><path class="cls-1" d="M177.35,299.54a32,32,0,0,0-3.57.51,9.12,9.12,0,0,0-3.07,1.11,1.69,1.69,0,0,0-.57.61,6.34,6.34,0,0,0-.29,1,23.09,23.09,0,0,0-.33,4.56c0,1.58.08,3.17.16,4.77.08,1.42.24,2.84.4,4.25a21.47,21.47,0,0,1,.11,5.56c-.13.62-.46.44-.8-.05a5.78,5.78,0,0,1-1-2.3l-.44-2.72-.28-2.77a48.07,48.07,0,0,1-.25-5.65c0-1.14,0-2.3.06-3.5a11.27,11.27,0,0,1,.59-3.73,2.13,2.13,0,0,1,.27-.55,2.34,2.34,0,0,1,.39-.53,4,4,0,0,1,.91-.76,8.07,8.07,0,0,1,1.92-.89,22,22,0,0,1,3.84-.83c1.57-.23,3.13-.35,4.69-.45,2.36-.16,4.72-.2,7.05-.32,1.81-.1,3.58-.31,5.34-.51a11.43,11.43,0,0,1,1.16-.13c1.44-.08,1.9.06,2.28.46a2,2,0,0,1,.25.28c.21.3-.35.73-1.44,1.06a24.8,24.8,0,0,1-4.93.76c-1.67.13-3.36.21-5,.29-2.5.13-5,.22-7.44.5Z"/><path class="cls-1" d="M217.65,287.53a11.42,11.42,0,0,0-6.67-7.22,14,14,0,0,0-3.66-.95,12.71,12.71,0,0,0-12,4.67,13.9,13.9,0,0,0-2.64,5.45,23,23,0,0,0-.41,7.81c.06.83-.31.81-.8.16a6.59,6.59,0,0,1-.76-1.43,9.09,9.09,0,0,1-.4-2.2,17.15,17.15,0,0,1,2-8.57,14.7,14.7,0,0,1,6.3-6.26,18.05,18.05,0,0,1,5.18-1.61,15.71,15.71,0,0,1,5.43.26,14.34,14.34,0,0,1,9.42,6.84,15.58,15.58,0,0,1,1.82,7l0,1.93c0,.33-.06.64-.1,1l-.08.7c0,.15-.1.32,0,.45a.75.75,0,0,0,.43.15l.24,0H222c1.09,0,2.21-.13,3.31-.25,2.67-.28,5.27-.81,7.93-1.15.59-.08,1.16-.19,1.76-.22,2.21-.15,3,0,3.45.46a1.81,1.81,0,0,1,.31.31c.19.34-.66.6-2.21.94-2.32.52-4.72,1-7.19,1.32a68.63,68.63,0,0,1-7.65.74c-.31,0-.49,0-.91,0a6.36,6.36,0,0,1-.75-.08,2.65,2.65,0,0,1-.7-.16,2,2,0,0,1-1.07-.74c-.05-.1-.13-.17-.14-.28l0-.32c0-.22-.06-.44-.1-.65l.18-1.52a6.22,6.22,0,0,0,.08-1c0-.63.06-1.28,0-1.91a14.16,14.16,0,0,0-.67-3.67Z"/><path class="cls-1" d="M204.44,352.33a10.64,10.64,0,0,0-4.33,2.95,13,13,0,0,0-2.72,4.58,10.35,10.35,0,0,0-.5,3.8l.07.84c0,.27.13.54.18.81l.1.4c0,.13.11.25.16.38l.26.59.5.74.22.81.11.39.06.2,0,.1v0h0l-.26-.11h0l0,.05-.13.3-.07.17-.17.14a4,4,0,0,1-1,.32c-1.78.37-2.38.43-3.4.58-1.9.26-3.79.48-5.7.64-2.26.19-4.54.39-6.82.44a43.23,43.23,0,0,1-4.4-.11,12.29,12.29,0,0,1-4.37-1.1c-.86-.45-.52-.8.34-1.05.43-.13,1-.27,1.64-.4a8.76,8.76,0,0,1,2.14-.08,75.11,75.11,0,0,0,8.49,0c2.87-.13,5.77-.37,8.67-.67l1.83-.23a1.3,1.3,0,0,0,.41-.09l-.24-.34c0-.07-.06-.14-.1-.2l-.31-.67c-.15-.5-.28-1-.41-1.51s-.11-1-.16-1.54,0-1,.06-1.52a14.8,14.8,0,0,1,6.54-10.54,13.3,13.3,0,0,1,7.41-2.16l1.47,0,1.45.28a6.6,6.6,0,0,1,1.42.42,7.42,7.42,0,0,1,1.36.58,12.41,12.41,0,0,1,4.44,3.78,16.91,16.91,0,0,1,3.47,10.27,15.1,15.1,0,0,1-.23,1.61,6,6,0,0,1-.41,1.06,1.54,1.54,0,0,1-1.12.84,1.94,1.94,0,0,1-.56.08c-.27,0-.4-.31-.45-.75a3.71,3.71,0,0,1,0-.74,7.54,7.54,0,0,1,.1-1,15.59,15.59,0,0,0-1.06-6.79,12.51,12.51,0,0,0-4.1-5.48,10.42,10.42,0,0,0-4.72-1.77,11.47,11.47,0,0,0-5.14.65Z"/><path class="cls-1" d="M240.29,306.73c0-1,0-2,0-3,0-.37-.07-.73-.07-1.1,0-1.31,0-2.62.1-3.94,0-.58,0-1.17,0-1.75a4.15,4.15,0,0,1,.5-2.36c.16-.25.41,0,.65.33l.34.44a1,1,0,0,1,.17.52c0,1.3.14,2.79,0,4.27a18,18,0,0,0,.19,2.72l.22,3,.14,1.86c.09.94.13,1.89.25,2.83.1.72.33,1.42.49,2.16,0,.16.08.31.11.48.06.62-.1.84-.73,1a3,3,0,0,1-.43.08,1,1,0,0,1-1-.58,14.7,14.7,0,0,1-.78-3.86c-.1-1-.1-2-.16-3Z"/><path class="cls-1" d="M225.57,329.12a10.64,10.64,0,0,1-1.2-3.86l-.12-1c0-.33,0-.67,0-1l0-1,.22-1,.15-.72c.08-.24.17-.47.25-.7a6,6,0,0,1,.61-1.34l.69-1.08.85-1a7.58,7.58,0,0,1,.93-.86,9,9,0,0,1,1-.76,14.66,14.66,0,0,1,4.48-2,21.28,21.28,0,0,1,2.11-.42l1.06-.14,1.08,0A9,9,0,0,1,243,313.6c.49.31.24.6-.35.83a5.28,5.28,0,0,1-1.07.3,4,4,0,0,1-1.29.09l-.58-.09-.59,0a9.14,9.14,0,0,0-1.17,0c-.4,0-.79,0-1.18,0l-1.18.12a16,16,0,0,0-4.54,1.4,8.32,8.32,0,0,0-3.88,4.18,9.05,9.05,0,0,0-.24,6.31,8.28,8.28,0,0,0,2.16,3.35,11.15,11.15,0,0,0,5.62,2.69,16.11,16.11,0,0,0,4.9.05l1.06-.16c1.32-.21,1.75-.15,2.17.34a4.19,4.19,0,0,1,.28.34c.23.38-.26.87-1.3,1.21a17,17,0,0,1-10-.34,12.53,12.53,0,0,1-3.56-1.91,11.22,11.22,0,0,1-2.74-3.12Z"/><path class="cls-1" d="M238.83,363.07l2.6-.1,1.28-.06h.38c.13,0,.09-.13.11-.2a.84.84,0,0,0,0-.21l-.07-.65c-.12-.94-.33-1.88-.47-2.83-.48-3.37-1-6.77-1.22-10.19-.11-1.52-.24-3.05-.3-4.57a15.73,15.73,0,0,1,.64-5.88c.22-.59.49-.4.68.16a8.88,8.88,0,0,1,.42,2.54c0,1.87.16,3.78.35,5.69s.45,3.85.61,5.81c.22,2.34.79,4.73,1.21,7.12.13.75.25,1.5.36,2.26l.09.74a5.37,5.37,0,0,1,0,.89,1.53,1.53,0,0,1-.19.76l-.1.16c0,.07-.12.08-.08.19a1.55,1.55,0,0,1-.32.2c-.19.07-.41.12-.62.18s-.45.06-.68.09c-.52.07-.71.07-1,.1l-1.75.12c-1.64.1-3.27.19-4.9.33-2.46.2-4.94.39-7.35.79a32.8,32.8,0,0,0-5.37,1.43l-1.08.43c-1.34.49-1.6.55-2.25.31l-.45-.13c-.23-.09-.32-.31-.19-.7a2.9,2.9,0,0,1,1.06-1.23,10.59,10.59,0,0,1,2.52-1.3,20.46,20.46,0,0,1,2.64-.78,44.61,44.61,0,0,1,5.39-.92c2.68-.33,5.38-.45,8-.61Z"/><path class="cls-1" d="M292.88,298c-1.49-.39-2.93-.83-4.37-1.24-.53-.15-1.07-.25-1.59-.4-.93-.27-1.85-.55-2.76-.79l-.34-.08-.19-.06-.3-.07a.29.29,0,0,0-.16,0s0,.09,0,.14,0,.2,0,.32a9.13,9.13,0,0,1-.71,2.63,4.21,4.21,0,0,1-2.62,2.54c-.41.09-.44-.36-.35-.85a2.79,2.79,0,0,1,.53-1.33,5,5,0,0,0,1.26-2.31,5.73,5.73,0,0,0,.16-.69,6.19,6.19,0,0,0,.05-.67l0-.4c0-.13,0-.29.06-.35s.16-.35.31-.44.33-.23.53-.28a3.54,3.54,0,0,1,1.42.14c.34.07.42.1.61.15l.51.13,1,.25c.68.16,1.36.31,2,.49L292.3,296l.8.2.4.1.46.09a1.89,1.89,0,0,1,1.18,1,8.59,8.59,0,0,1,.59,2.2c.11.72.19,1.43.27,2.14.11,1.1.29,2.17.38,3.27,0,.24.06.47.07.72,0,.9-.12,1.19-.63,1.36a2,2,0,0,1-.35.11c-.39.06-.69-.31-.78-.94-.3-1.88-.4-3.86-.66-5.77a13.48,13.48,0,0,0-.33-1.7,2.57,2.57,0,0,0-.11-.36,1.6,1.6,0,0,0-.11-.27s0,0,0,0l-.59-.13Z"/><path class="cls-1" d="M257,298.77l-.36-1-.28-1c-.09-.33-.15-.65-.23-1a4.63,4.63,0,0,1-.09-.49.38.38,0,0,1,0-.16c0-.12-.07-.15-.17-.17h-.72l-.9,0c-2.12-.09-4.27-.12-6.41-.07-1,0-1.91.12-2.84.24a33.87,33.87,0,0,1-3.58.42c-.37,0-.42-.44-.18-.93a2.06,2.06,0,0,1,1.5-1.13,39.25,39.25,0,0,1,7.58-.33c1.52.08,3.08-.05,4.65,0l.62,0,.31,0,.47.05a1.85,1.85,0,0,1,.87.26,1.15,1.15,0,0,1,.14.17h0s-.05,0,0-.05v0l0,0,.05.1.16.4.18.89.14.62c.09.43.23.83.35,1.24a9.93,9.93,0,0,0,1.27,2.62,7.75,7.75,0,0,0,3.4,2.71,12.18,12.18,0,0,0,3.37.74c.26,0,.51,0,.77.07,1,.1,1.23.25,1.39.8,0,.13.08.25.1.38.05.41-.39.69-1.14.72a12.27,12.27,0,0,1-6.9-1.87,9.89,9.89,0,0,1-3.63-4.4Z"/><path class="cls-1" d="M269.77,359.81c3.27.06,6.54.18,9.8.28,1.19.05,2.37,0,3.56.07l5.35.21c.89,0,1.78.05,2.66,0h.65l.56,0,.29,0c.05,0,.1,0,.13-.06a.69.69,0,0,0,.05-.13l.05-.2c0-.06,0-.14,0-.31s0-.58.08-.87c.12-1.81.08-3.69.06-5.53a29.93,29.93,0,0,1,.37-7.13c.21-.74.4-.62.76,0a6.3,6.3,0,0,1,.92,3.15c0,1.87,0,3.75,0,5.65,0,.95,0,1.91-.06,2.88,0,.48,0,1-.08,1.47,0,.25-.05.5-.09.77a7.75,7.75,0,0,1-.27,1.27l-.17.28-.09.14,0,0c-.08-.06,0,0-.06,0l-.05.06a1,1,0,0,1-.56.35,5.5,5.5,0,0,1-1.33.2c-.57,0-1.11,0-1.65,0-3-.11-6-.08-9-.14-3.28-.09-6.55-.18-9.82-.22-2,0-4,0-6,0-3,.05-6.11.12-9.1.43a42.32,42.32,0,0,0-6.76,1.31c-.48.14-.93.31-1.4.46-1.71.59-2.16.71-2.84.37a3.25,3.25,0,0,1-.46-.22c-.45-.25,0-1.18,1.43-1.89a23.89,23.89,0,0,1,6.43-1.85,61.84,61.84,0,0,1,6.66-.69c3.31-.19,6.63-.2,9.93-.19Z"/><path class="cls-1" d="M282.12,303.93c2.06.47,4.07,1,6.06,1.64l1.48.46.37.12.41.14a6.53,6.53,0,0,1,.81.33,14.48,14.48,0,0,1,2.82,1.78,21.5,21.5,0,0,1,3.4,3.27,32,32,0,0,1,4.27,7c1.08,2.45,2.08,4.89,3.19,7.28a60.51,60.51,0,0,0,3.24,6.19,40.34,40.34,0,0,0,5.19,7c.62.65.38.84-.48.61a6.86,6.86,0,0,1-3.47-2.38,38.56,38.56,0,0,1-2.69-3.89c-.8-1.35-1.52-2.73-2.21-4.12-1.37-2.79-2.56-5.65-3.71-8.5a26.41,26.41,0,0,0-5.9-9.17,15.08,15.08,0,0,0-4.73-3.41c-.22-.09-.44-.15-.66-.23l-.75-.22-1.48-.44c-1-.28-2-.55-3-.8a43.41,43.41,0,0,0-7.4-1.33,10.47,10.47,0,0,0-1.37,0l-.46,0a2.34,2.34,0,0,0-.38.09,1,1,0,0,0-.64.45c-.15.27.18.47.37.6a6.75,6.75,0,0,0,.76.37c.43.18.88.34,1.33.51.9.32,1.81.62,2.72.92a73.46,73.46,0,0,1,8.44,3,17.16,17.16,0,0,1,1.8.94,6.79,6.79,0,0,1,2.1,1.84,1.56,1.56,0,0,1,.33,1.33,1.83,1.83,0,0,1-.14.48c-.28.37-.93-.25-2.22-1.17a31.14,31.14,0,0,0-7-3.23c-2.55-.92-5.17-1.68-7.89-2.73l-.44-.18a7.5,7.5,0,0,1-.7-.33l-.67-.34c-.21-.13-.37-.27-.56-.4a2,2,0,0,1-.79-2,2.82,2.82,0,0,1,1.53-1.78,3.06,3.06,0,0,1,.64-.26l.34-.12.37-.07.74-.12.47,0a26.92,26.92,0,0,1,6.53.78Z"/><path class="cls-1" d="M125.19,367.9a31.72,31.72,0,0,0-9.78,2.55,19.45,19.45,0,0,0-7.61,6.14,22.22,22.22,0,0,0-2.37,4.34,20.45,20.45,0,0,0-1.23,4.79,20.21,20.21,0,0,0,1.25,9.77,30.33,30.33,0,0,0,5.19,8.69,46.11,46.11,0,0,0,7.48,7.09,56.27,56.27,0,0,0,8.82,5.45c1.55.78,3.14,1.46,4.79,2.1l4.9,1.94A192.92,192.92,0,0,0,166.3,429c4.44.94,8.93,1.61,13.41,2.34s9,1.23,13.52,1.68c9,1,18.11,1.64,27.2,2.19l27.29,1.59c4.55.3,9.1.57,13.65,1s9.06.8,13.6.93c8,.29,16.17,0,24.3.46,4.06.19,8.09.57,12.11.88s8,.62,12,.87c5.14.31,10.28.56,15.42.6,2.57,0,5.14,0,7.68-.21a35.93,35.93,0,0,0,3.77-.44l.91-.19.87-.24a4,4,0,0,0,1.42-.71c.16-.09.32-.39.48-.59a3.08,3.08,0,0,0,.3-.68,1.55,1.55,0,0,0-.18-1.27,6.47,6.47,0,0,0-2.76-2,35.14,35.14,0,0,0-7.28-2c-2.5-.49-5.07-.74-7.63-1.15a49.15,49.15,0,0,0-7.6-.75c-3.15,0-4.41.61-4.38.4s1.47-.91,4.24-1.15a31.12,31.12,0,0,1,4.95,0c1.9.11,4,.37,6.34.55a61.93,61.93,0,0,1,7.6,1.06,29,29,0,0,1,4.15,1.19,13,13,0,0,1,2.13,1,5.67,5.67,0,0,1,2,1.92,3.46,3.46,0,0,1,.29,2.89,2.77,2.77,0,0,1-.26.63,3.61,3.61,0,0,1-.32.55l-.35.5c-.18.18-.37.36-.57.53a6.7,6.7,0,0,1-2.2,1,20.51,20.51,0,0,1-2.07.48,59.76,59.76,0,0,1-8.06.63c-5.32.1-10.6-.1-15.88-.38s-10.54-.67-15.8-1.08l-7.86-.61q-3.92-.26-7.84-.36c-5.24-.13-10.51-.08-15.81-.17-2.65,0-5.31-.13-8-.28s-5.32-.4-7.94-.6c-10.51-.87-21.08-1.46-31.67-2.07-12.67-.74-25.63-1.46-38.63-2.79a268.1,268.1,0,0,1-38.7-6.48c-1.73-.44-3.45-1-5.18-1.44s-3.47-.93-5.17-1.53c-3.4-1.16-6.84-2.21-10.15-3.61l-5-2c-1.67-.72-3.3-1.53-4.9-2.4a55.87,55.87,0,0,1-9-6.11,44.53,44.53,0,0,1-7.52-7.93,30.4,30.4,0,0,1-4.83-9.9,22,22,0,0,1,2-16.25,20.51,20.51,0,0,1,3.29-4.52,24.41,24.41,0,0,1,11.83-6.51,49.6,49.6,0,0,1,13.33-1.26,105.91,105.91,0,0,1,13.21,1.32,90.88,90.88,0,0,1,12.92,3c6.41,1.92,12.71,4.12,19,6.39s12.5,4.67,18.7,7.11c12.4,4.87,24.7,9.93,36.89,15,19,7.92,37.48,15.83,56.11,23.91l3.06,1.31c.53.21,1,.43,1.47.58a5.34,5.34,0,0,0,1.37.31,2.32,2.32,0,0,0,1.15-.18c.42-.17.94-.44,1.5-.66a13.06,13.06,0,0,1,1.73-.59l1.68-.39a33.54,33.54,0,0,1,10.83-.82,14.47,14.47,0,0,1,7.12,2.7,11.17,11.17,0,0,1,1.13,1l.88,1a14.28,14.28,0,0,1,1.21,1.88c.28.61.53,1.15.71,1.66s.26,1,.36,1.45a15.49,15.49,0,0,1,.31,2.39c0,.41-.13.31-.39-.23-.13-.28-.29-.66-.48-1.15s-.5-1-.8-1.69a13,13,0,0,0-3.39-4.18,13.64,13.64,0,0,0-6.92-2.56,27.41,27.41,0,0,0-6.51.24c-1.1.14-2.19.38-3.29.6l-1.63.38a11.49,11.49,0,0,0-1.47.48c-.49.19-.94.43-1.56.69a4.75,4.75,0,0,1-2.27.41,7.82,7.82,0,0,1-2-.43c-.31-.09-.6-.22-.9-.34l-.82-.34-6.4-2.75-25.83-11.11c-17.38-7.44-35-14.89-52.85-22.05-13.23-5.29-26.54-10.51-40-15.07-3.38-1.13-6.77-2.21-10.18-3.18A84.43,84.43,0,0,0,146.19,369c-7-1.07-14.07-1.83-21-1.05Z"/><path class="cls-1" d="M319.51,376.92a16.92,16.92,0,0,0-4.07-4.74,21.33,21.33,0,0,0-2.64-1.77c-.47-.25-.92-.53-1.41-.76l-1.48-.62a12,12,0,0,0-1.52-.54l-1.56-.48c-1.07-.2-2.11-.51-3.2-.63a32.66,32.66,0,0,0-3.27-.35l-1.65-.1h-1.66a64.13,64.13,0,0,0-9.66.81,109.25,109.25,0,0,0-16.76,3.92,151.69,151.69,0,0,0-16.19,6.08,145,145,0,0,0-13.7,6.9,156.67,156.67,0,0,0-16.3,10.76c-1.59,1.24-1.62.85-.59-.62a24.26,24.26,0,0,1,2.36-2.82,29.36,29.36,0,0,1,4-3.34,94.65,94.65,0,0,1,8.59-5.42q4.41-2.51,9-4.7a153.21,153.21,0,0,1,18.84-7.6,118.26,118.26,0,0,1,24.27-5.65,53.41,53.41,0,0,1,13.83.28,31,31,0,0,1,6.71,2,25.12,25.12,0,0,1,3.15,1.59c.5.31,1,.68,1.45,1a10.42,10.42,0,0,1,1.39,1.09,17.88,17.88,0,0,1,5.05,7,19.67,19.67,0,0,1,1.35,8.54l-.15,1.64c-.09.54-.22,1.07-.32,1.61a22.45,22.45,0,0,1-4.05,8.89,22.81,22.81,0,0,1-2.08,2.52c-.74.8-1.59,1.51-2.38,2.24-1.65,1.34-3.31,2.66-5,3.91a73,73,0,0,1-17.08,9.63c-1.35.51-2.68,1-4.08,1.44a29.3,29.3,0,0,1-5.59,1.26,5.28,5.28,0,0,1-2.63-.25,4.68,4.68,0,0,1-.83-.36c-.6-.5,1.45-1.29,5.12-2.37a73.77,73.77,0,0,0,15.93-6.6,81.1,81.1,0,0,0,7.45-4.79c1.21-.87,2.39-1.78,3.58-2.7l1.76-1.4L315,400a22.19,22.19,0,0,0,6.13-10.88,20.43,20.43,0,0,0,.47-3.12,19.32,19.32,0,0,0-.14-3.14,16,16,0,0,0-.67-3.07c-.18-.49-.41-1-.61-1.45-.1-.23-.19-.49-.31-.71l-.41-.68Z"/><path class="cls-1" d="M104.85,445.77a67.79,67.79,0,0,0,16.77,1.54c5.69-.08,11.4-.55,17.12-1.06,4.2-.35,8.35-.8,12.52-1.2l44.17-4.36L215,438.74c4.17-.4,8.34-.85,12.53-1.14,2.1-.14,4.19-.29,6.29-.39s4.2-.09,6.3-.06c2.62.05,2.27.26.07.7l-4.51.88c-1.87.32-4.07.62-6.46.86-17,1.63-34,3.43-51.12,5-10.26.94-20.9,2.26-31.41,3.3-5.79.53-11.53,1.08-17.35,1.47a112.74,112.74,0,0,1-17.53,0c-1.8-.18-3.6-.41-5.38-.76-.9-.18-1.79-.35-2.67-.6-.44-.12-.88-.22-1.32-.35a14.18,14.18,0,0,1-1.34-.49,13.31,13.31,0,0,1-2.52-1.35,7.85,7.85,0,0,1-2.14-2.09,5.85,5.85,0,0,1-.38-.75,4.7,4.7,0,0,1-.21-.86,4.94,4.94,0,0,1,0-.94,6.32,6.32,0,0,1,.35-.85,6.15,6.15,0,0,1,2.43-1.92,23.3,23.3,0,0,1,8.16-1.75c2.73-.18,5.45-.2,8.17-.15l4,.09c1.34,0,2.72.06,4,0a1.59,1.59,0,0,0,.38-.05c.12,0,.18-.07.27-.11a3.36,3.36,0,0,0,.62-.56c.44-.45.87-1,1.32-1.49a24.52,24.52,0,0,1,3-2.89,19.13,19.13,0,0,1,12-4.08,21.73,21.73,0,0,1,6.35.74,23.88,23.88,0,0,1,5.83,2.59A22.81,22.81,0,0,0,155,432a4.11,4.11,0,0,0,.49.17,1.72,1.72,0,0,0,.42,0,7.86,7.86,0,0,0,1.19-.11,11.62,11.62,0,0,0,3.64-1.4c1-.55,1.79-1,2.5-1.41a8.14,8.14,0,0,1,3.16-1.05,5.32,5.32,0,0,1,1,0c.38.09-.06.42-1,1.09s-2.41,1.86-4.61,3.22a11.67,11.67,0,0,1-5.77,1.89,4.05,4.05,0,0,1-1-.08,5.54,5.54,0,0,1-.87-.29,12,12,0,0,1-1.39-.71c-.84-.48-1.62-1-2.42-1.36a19,19,0,0,0-10.29-2.26,16.44,16.44,0,0,0-9.85,3.42,27,27,0,0,0-3.87,4l-.56.6-.37.34a2.74,2.74,0,0,1-.45.34,4.48,4.48,0,0,1-.65.34c-.21.06-.43.11-.65.15a3.83,3.83,0,0,1-.49.05,3,3,0,0,1-.42,0c-1.07,0-2-.08-3-.09-2.9-.08-5.77-.17-8.63-.13a43.29,43.29,0,0,0-8.37.78,16.22,16.22,0,0,0-1.91.53l-.88.36c-.3.12-.51.29-.78.42s-.36.36-.56.51-.08.16-.13.23l-.07.1a.08.08,0,0,1,0,.07c-.06.15-.11.24.1.63a6.75,6.75,0,0,0,2.62,2.14,10.52,10.52,0,0,0,1.77.74c.58.21,1.32.36,2,.54Z"/><path class="cls-1" d="M373.23,438l.07-6c0-.74,0-1.47,0-2.2.1-2.59.19-5.18.29-7.76,0-1.15,0-2.3,0-3.44a30.71,30.71,0,0,1,.18-4.39c.07-.46.35-.4.67,0a3.85,3.85,0,0,1,.78,1.93c.06.75.14,1.49.18,2.24v2.24c0,1.49-.07,3-.17,4.49-.13,1.8,0,3.67,0,5.51l-.05,6.07,0,3.73c0,1.88.05,3.78.17,5.64.11,1.45.33,2.86.45,4.29,0,.31.07.62.1.94.09,1.17,0,1.56-.41,1.85a1.48,1.48,0,0,1-.27.19c-.28.14-.62-.31-.83-1.17a35.44,35.44,0,0,1-.74-3.93c-.15-1.34-.23-2.7-.29-4.07-.09-2-.12-4.07-.15-6.1Z"/><path class="cls-1" d="M409.17,458.12c-2.77.05-5.54.11-8.32.1-1,0-2,0-3,0-1.79,0-3.58-.1-5.37-.19a47.3,47.3,0,0,1-5.4-.49c-1.59-.24-3.17-.56-4.71-.9a40.89,40.89,0,0,1-5.82-1.68c-.59-.22-.43-.54.18-.77a5.52,5.52,0,0,1,2.81-.15c2,.37,4,.95,5.92,1.32a45,45,0,0,0,6,.79c2.46.21,5,.09,7.55.07,2.77,0,5.56-.08,8.34-.16l5.14-.16c2.6-.1,5.21-.17,7.78-.32,2-.12,4-.35,5.95-.5.44,0,.87-.07,1.31-.09a4.79,4.79,0,0,1,1.74.15,1.49,1.49,0,0,1,.78.53,1.94,1.94,0,0,1,.23.32c.16.33-.5.68-1.68,1-3.52.53-7.23.68-11,.88l-8.37.32Z"/><path class="cls-1" d="M410.86,408.61l.2-.43,0-.05.11-.08.22-.16.43-.32c.33-.18.73-.36,1-.54l.75-.56a5.28,5.28,0,0,0,.89-.77,5.66,5.66,0,0,0,.94-1.29,3.47,3.47,0,0,0,.25-.67l.08-.33c0-.11,0-.21,0-.31a.5.5,0,0,0,0-.3,2.46,2.46,0,0,1-.07-.29c-.14-.17-.18-.38-.37-.55a5.54,5.54,0,0,0-2.29-1.32,15.59,15.59,0,0,0-10.46.07,14.45,14.45,0,0,0-4.15,2.36,21.73,21.73,0,0,0-4.12,4.49c-.38.52-.64.3-.67-.36a4.53,4.53,0,0,1,1-2.87,17.17,17.17,0,0,1,2.38-2.52,15.54,15.54,0,0,1,2.9-1.89,16.44,16.44,0,0,1,6.64-1.83,17.85,17.85,0,0,1,8.3,1.29,8.4,8.4,0,0,1,1.07.64,6.39,6.39,0,0,1,1,.91,3.93,3.93,0,0,1,.79,2.64,5.84,5.84,0,0,1-.92,2.4,11.76,11.76,0,0,1-.75,1l-.41.43-.11.11-.05,0-.1.08a2.78,2.78,0,0,1-.34.26,7,7,0,0,1-1,.56c.09.13.32.11.48.15l.55.05.52,0,.73,0,2,.05c1.37,0,2.73,0,4.08,0,2.11-.06,4.16-.26,6.23-.45l1.35-.14c1.7-.12,2.23,0,2.65.43a2,2,0,0,1,.28.31c.22.34-.46.77-1.72,1a71.86,71.86,0,0,1-11.66.83h-2.22c-.8,0-1.2,0-2.94-.1a19.78,19.78,0,0,1-2-.19,2.21,2.21,0,0,1-1.2-.52,1.35,1.35,0,0,1-.38-.74v-.3l.09-.23Z"/><path class="cls-1" d="M381.55,407.49c.88.1,1.77.19,2.65.24.33,0,.65,0,1,0a32.34,32.34,0,0,0,3.41.06,12.29,12.29,0,0,0,1.5-.17,8.63,8.63,0,0,1,1.91-.27c.21,0,.26.32.17.68a1.32,1.32,0,0,1-.71.91,13.6,13.6,0,0,1-2,.5,10.22,10.22,0,0,1-2.07.06c-.83-.05-1.67.09-2.5.11s-1.84,0-2.75-.06c-.56,0-1.12-.05-1.67-.09-.85,0-1.7-.12-2.53-.13-.65,0-1.29.09-1.93.13a1.48,1.48,0,0,1-.42,0c-.53-.08-.69-.22-.8-.59a1.36,1.36,0,0,1-.07-.25c0-.27.17-.51.56-.68a5.42,5.42,0,0,1,1.78-.48,13.64,13.64,0,0,1,1.81-.12c.9,0,1.8.06,2.69.11Z"/><path class="cls-1" d="M420.72,441.41a9,9,0,0,1-2.61-5.43,9.78,9.78,0,0,1,1.28-5.78,7.88,7.88,0,0,1,3.24-3,14.08,14.08,0,0,1,5.29-1.42,15.33,15.33,0,0,1,2.71,0A12.52,12.52,0,0,1,432,426a8.82,8.82,0,0,1,1.06.26c.1,0,.28.16.31,0a2,2,0,0,0,.11-.35l.15-.74.15-.83a52.58,52.58,0,0,0,.52-6,63.49,63.49,0,0,0-.23-7.69c-.1-.78.17-.74.55-.11a8.45,8.45,0,0,1,.95,3.41,56.73,56.73,0,0,1,.05,7c-.06,1.17-.16,2.34-.31,3.52l-.12.88-.18,1a3,3,0,0,1-.55,1.4c-.26.4-.8.25-1.21.27l-.44-.14-.24-.07-.13,0-.46-.1c-.3-.08-.62-.11-.93-.17a12.29,12.29,0,0,0-8.66,2.05,5.24,5.24,0,0,0-1.48,1.77l-.5,1.12-.32,1.18a7,7,0,0,0,.75,4.69,8.06,8.06,0,0,0,4.67,3.64,6,6,0,0,0,.86.19,5.2,5.2,0,0,0,.88.14,9.73,9.73,0,0,0,1.79,0l.9-.09a8.67,8.67,0,0,0,.88-.21l.88-.23,1.18-.48.68-.13.34-.06c.12-.05.2.11.25.18a3.23,3.23,0,0,1,.34,1.45l0,.69v.54l0,1v1.94c0,1.28-.05,2.56-.14,3.85,0,.57-.07,1.13-.13,1.7-.25,2.12-.59,2.78-1.11,3.13a1.59,1.59,0,0,1-.36.22c-.38.11-.44-.76-.37-2.26.13-2.06.16-4.19.16-6.34,0-1.07,0-2.16-.06-3.22l0-.33h0l-.1.05a.93.93,0,0,1-.27.08,12.79,12.79,0,0,1-6,.47,10.33,10.33,0,0,1-5.46-2.73Z"/><path class="cls-1" d="M390,396.61c-1.16.74-2.31,1.49-3.45,2.28-.42.29-.8.62-1.21.9-1.48,1-2.94,2-4.35,3.13-.63.47-1.2,1-1.8,1.53a19.13,19.13,0,0,1-2.34,1.94c-.27.17-.45-.09-.47-.5a2.11,2.11,0,0,1,.48-1.47,23,23,0,0,1,4.77-4.07c1.05-.7,2-1.59,3-2.36s2.31-1.63,3.49-2.41l2.19-1.42c1.11-.72,2.25-1.39,3.34-2.1.85-.55,1.66-1.15,2.5-1.69a3.36,3.36,0,0,1,.57-.35c.76-.33,1.06-.34,1.39-.1.07.05.15.09.21.14s0,.57-.42,1a15.39,15.39,0,0,1-2.11,1.76c-.73.57-1.52,1.05-2.3,1.56-1.17.75-2.34,1.49-3.5,2.26Z"/><path class="cls-1" d="M431.73,391l-7.69-.31-2.8-.05-4.94-.23c-1.63-.08-3.31-.12-5-.26-1.46-.11-2.93-.2-4.36-.21a50.57,50.57,0,0,0-5.41.31c-.55.06-.6-.32-.21-.83a3.74,3.74,0,0,1,2.41-1.27,29.49,29.49,0,0,1,5.87,0l2.83.24,2.83.2c2.3.17,4.68.12,7,.18l7.74.23,4.76.14c2.41,0,4.82.13,7.21.14,1.85,0,3.67-.15,5.51-.13a9.61,9.61,0,0,1,1.2,0c1.51.1,2,.26,2.32.63a2.14,2.14,0,0,1,.21.25c.15.27-.47.51-1.57.69a56.49,56.49,0,0,1-10.22.49l-7.75-.2Z"/><path class="cls-1" d="M455.07,422.41c-.1,3.26-.21,6.51-.41,9.78-.07,1.19-.11,2.38-.23,3.58s-.25,2.1-.45,3.17a11.93,11.93,0,0,1-1,3.23c-.08.14-.15.27-.25.42s-.25.29-.38.42l-.62.51-1.25,1c-.84.64-1.68,1.27-2.54,1.87l-4.56,3.21c-1.95,1.35-3.91,2.69-6,3.86-.64.36-.75,0-.41-.59a7.6,7.6,0,0,1,2.19-2.35c3.92-2.82,7.93-5.41,11.69-8.39.92-.49,1.13-2,1.38-3.44s.31-2.91.43-4.38c.23-3.23.33-6.49.41-9.76l.11-6c0-3.05.06-6.12.1-9.15,0-2.35-.1-4.67-.05-7,0-.52,0-1,0-1.55.11-1.93.34-2.54.89-2.89a2.26,2.26,0,0,1,.38-.23c.42-.12.62.68.64,2.06.08,4.11,0,8.47,0,12.86l-.15,9.83Z"/><path class="cls-1" d="M442.86,397.65a9.36,9.36,0,0,0-4.85.25,8.82,8.82,0,0,0-1.59.81,4.55,4.55,0,0,0-2,2,1.11,1.11,0,0,0,.24,1,4,4,0,0,0,1.16.92l.24.13.33.15.82.31a1.29,1.29,0,0,1,.31.14l.18.15a1.3,1.3,0,0,1,.35.31,1.69,1.69,0,0,1-.54.93c-.17.17-.35.34-.54.5l-.51.46-.75.64a13.61,13.61,0,0,1-1.57,1.17c-.7.43-.85-1.39.31-2.35l1-.86s.05,0,0,0v0h0l-.24-.13a6,6,0,0,1-.94-.6,3.45,3.45,0,0,1-1.43-2.13,2.92,2.92,0,0,1,.32-1.68,5.34,5.34,0,0,1,.9-1.17,9.16,9.16,0,0,1,2.17-1.57,10.1,10.1,0,0,1,5.62-1.07,16.17,16.17,0,0,1,3.39.68c.41.12.82.26,1.22.41l.39.15a1.23,1.23,0,0,0,.33-.16c.69-.42,1.39-.91,2.06-1.39,1.05-.76,2-1.61,3-2.44l.63-.55c.8-.67,1.11-.79,1.57-.6l.32.13c.32.18.17.72-.39,1.29a36.18,36.18,0,0,1-5.65,4.53l-.59.39a4.8,4.8,0,0,1-.5.27,2.6,2.6,0,0,1-.62.11h0c0,.18,0,0,0,.09h-.11l-.15,0a1.23,1.23,0,0,1-.32-.07l-.47-.18-.61-.21a16.45,16.45,0,0,0-2.46-.63Z"/><path class="cls-1" d="M441,450.51c4.81-.51,30.18-10.11,23-16.18-2.93-2.5-10.32-2.19-10.35-1.43l-1.78,9.58Z"/><path class="cls-1" d="M282.05,335.61a44.57,44.57,0,0,1-4.92-2.5c-.58-.34-1.18-.66-1.74-1.05a15.2,15.2,0,0,1-4.89-5.31c-.26-.48-.46-1-.67-1.49l-.24-.78a2.19,2.19,0,0,1-.1-.49,1.75,1.75,0,0,1,.06-.56,1.73,1.73,0,0,1,.89-1.09,1.78,1.78,0,0,1,1.35-.08,4.34,4.34,0,0,1,1.72,1.28c.27.28.07.47-.38.47a6.25,6.25,0,0,1-1.61-.37.85.85,0,0,0-.25,0,.27.27,0,0,0-.14,0,.23.23,0,0,0,0,.16.22.22,0,0,0,.05.08s0,0,0,0l.06.17c.1.28.16.56.28.83A12.6,12.6,0,0,0,273.4,328a13.48,13.48,0,0,0,3.62,2.91,35.79,35.79,0,0,0,4.68,2.45c1,.44,2,.86,3.05,1.23,1.56.58,3.15,1.14,4.75,1.59,1.25.35,2.51.57,3.78.89.28.07.56.12.84.21,1,.33,1.33.64,1.3,1.25a2.73,2.73,0,0,1,0,.41c-.12.44-.62.58-1.34.44a54.94,54.94,0,0,1-6.85-1.77c-1.73-.56-3.46-1.2-5.17-1.91Z"/><path class="cls-1" d="M314.58,341.51a25.27,25.27,0,0,1-1.16,4.84,17.84,17.84,0,0,1-.65,1.72,9.6,9.6,0,0,1-4.4,4.78,6.92,6.92,0,0,1-6.42-.48c-.32-.21-.1-.49.33-.68a2.59,2.59,0,0,1,1.6-.11,5.75,5.75,0,0,0,2.95.17,5.59,5.59,0,0,0,2.6-1.44,9.09,9.09,0,0,0,2-3.48,21.07,21.07,0,0,0,1.16-4.48,25.1,25.1,0,0,0,.27-2.87,19.11,19.11,0,0,0-.29-4.35,11.45,11.45,0,0,0-1.12-3.08l-.34-.6c-.42-.74-.42-1,0-1.52.09-.11.18-.24.28-.34.32-.34.92-.24,1.4.39a12.14,12.14,0,0,1,2,6.49,28.27,28.27,0,0,1-.17,5Z"/><path class="cls-1" d="M318.58,353.17a36.79,36.79,0,0,0,.57-4.34c0-.54,0-1.07,0-1.61a29.23,29.23,0,0,0-.32-5.68,14.85,14.85,0,0,0-.6-2.45c-.33-1-.78-2-1.12-3-.11-.32.18-.43.58-.3a2.07,2.07,0,0,1,1.2,1.09,19.64,19.64,0,0,1,1.66,6.72c.08,1.38.28,2.8.3,4.21a28.66,28.66,0,0,1-.3,4.63c-.14.95-.31,1.89-.53,2.82a25.27,25.27,0,0,1-1.36,4.13,11.58,11.58,0,0,1-1.67,3,4.15,4.15,0,0,1-.53.59c-.75.67-1.15.69-1.53.4a1.83,1.83,0,0,1-.26-.21c-.22-.28-.05-.68.31-1.11a9.21,9.21,0,0,0,1.35-2.2,22.59,22.59,0,0,0,1.1-2.54,26.85,26.85,0,0,0,1.09-4.17Z"/><path class="cls-1" d="M155.88,360.3a13.28,13.28,0,0,1-6.41-4.63l-.46-.57c-.13-.21-.24-.42-.37-.63-.24-.41-.49-.83-.71-1.26a16.8,16.8,0,0,1-1-9.8,27,27,0,0,1,1.13-4.19,16.64,16.64,0,0,1,2.56-4.86c.36-.45.65-.16.73.45a4.58,4.58,0,0,1-.46,2.41,23.29,23.29,0,0,0-2.51,10,11.58,11.58,0,0,0,.43,3.13,14.4,14.4,0,0,0,1.24,2.91,11.25,11.25,0,0,0,5,4.69l1,.45,1,.31a11.9,11.9,0,0,0,2.14.41,12.52,12.52,0,0,0,6.45-1.09,10.73,10.73,0,0,0,2.15-1.33c.33-.25.61-.57.92-.84a5.22,5.22,0,0,0,.85-.91c.23-.28.44-.58.68-.86.83-1.07,1.13-1.42,1.64-1.49a2.33,2.33,0,0,1,.33-.06c.33,0,.25.63-.19,1.69l-.25.59c-.11.18-.22.36-.35.54l-.75,1.06a9.08,9.08,0,0,1-.9,1,8.37,8.37,0,0,1-1,.9,11.69,11.69,0,0,1-2.32,1.41c-.42.18-.82.4-1.25.54l-1.32.39a14.62,14.62,0,0,1-8-.28Z"/><path class="cls-1" d="M226.51,328.94a7.9,7.9,0,0,1-.61-1.32l-.23-.69-.13-.72a10.17,10.17,0,0,1,0-2.81,9.27,9.27,0,0,1,5.12-7.2,10.86,10.86,0,0,1,2.94-1,6.91,6.91,0,0,1,3.93.22c.39.14.27.33-.1.52a5,5,0,0,1-1.66.43,11,11,0,0,0-3.43.61,9.29,9.29,0,0,0-3,1.81,7.64,7.64,0,0,0-2.24,3.74,7.08,7.08,0,0,0,1.76,7.33,11.17,11.17,0,0,0,4,2.49,10.52,10.52,0,0,0,3.53.6c.26,0,.52,0,.77,0,1-.08,1.25-.08,1.54.21a1.14,1.14,0,0,1,.19.19c.17.21-.2.53-1,.74a11.3,11.3,0,0,1-7.16-1.26,11.09,11.09,0,0,1-4.2-3.8Z"/><path class="cls-1" d="M286.85,297c-.76-.22-1.53-.44-2.29-.61-.28-.07-.57-.1-.85-.15l-.38-.08-.17,0-.06,0H283c-.06,0,0,.07,0,.11a6.07,6.07,0,0,1-.06.61,5,5,0,0,1-.17.77,5.39,5.39,0,0,1-.6,1.34,3.69,3.69,0,0,1-1.26,1.34c-.33.19-.48-.78-.08-1.2a4.63,4.63,0,0,0,1.29-2.79c0-.14,0-.27,0-.41s.06-.49.32-.57a1.93,1.93,0,0,1,.77-.08,7.68,7.68,0,0,1,1.06.13c.81.16,1.59.36,2.38.56l1.44.4,2.18.63c.56.15,1.13.26,1.69.4.13,0,.25.05.37.09.46.14.58.26.58.54a1.33,1.33,0,0,1,0,.2c0,.21-.27.3-.61.24a29.61,29.61,0,0,1-3.06-.75l-2.31-.66Z"/><path class="cls-1" d="M219.52,256.23a27.78,27.78,0,0,1-6.3-1.71c-.73-.28-1.47-.54-2.18-.88a55.8,55.8,0,0,1-7.09-4.09l-3-2a29.93,29.93,0,0,1-3.68-2.76c-.7-.65,1-.89,2.46,0,2.59,1.68,5.11,3.41,7.72,5.07a31.59,31.59,0,0,0,5.06,2.47,29.36,29.36,0,0,0,5.89,1.78,17.55,17.55,0,0,0,3.75.32,13.82,13.82,0,0,0,5.51-1.12,13.35,13.35,0,0,0,3.56-2.4c.25-.2.44-.44.68-.65.86-.79,1.19-1,1.79-.77a2.08,2.08,0,0,1,.4.14c.41.21.3.82-.29,1.58a13.76,13.76,0,0,1-3.29,2.9,15.35,15.35,0,0,1-4.23,1.77,18.15,18.15,0,0,1-6.76.34Z"/><path class="cls-1" d="M242.88,355.28c-.22-1.24-.43-2.49-.63-3.74-.07-.45-.2-.89-.26-1.35a46.92,46.92,0,0,1-.37-4.88c0-.73-.05-1.45-.08-2.18a7.35,7.35,0,0,1,.33-2.78c.1-.28.37-.19.65.09a2.18,2.18,0,0,1,.64,1.21c.09.88.17,1.75.26,2.62a26.22,26.22,0,0,1,.18,2.69,19,19,0,0,0,.56,3.29c.24,1.21.49,2.42.76,3.64.17.74.34,1.49.54,2.23.29,1.12.56,2.26.91,3.36.28.86.71,1.66,1,2.53a5.12,5.12,0,0,1,.21.59,1.68,1.68,0,0,1-.06.94.8.8,0,0,1-.63.49.33.33,0,0,1-.39-.08l0-.05a.15.15,0,0,0-.09-.06s0,0-.09,0l-.22-.07c-.23-.05-.18,0-.24,0s-.08,0-.12-.07a.64.64,0,0,1-.21-.22A16.35,16.35,0,0,1,243.7,359c-.35-1.2-.6-2.45-.88-3.69Z"/><path class="cls-1" d="M219.91,179.89a5,5,0,0,1-2.94,1.87,5.93,5.93,0,0,1-3.22-.37c-.34-.17-.71-.29-1-.48a9.62,9.62,0,0,1-.91-.61,14,14,0,0,1-3.77-6c-.33-1-.64-1.94-.9-2.92a10.14,10.14,0,0,1-.28-3.88c.06-.41.25-.34.52,0a6,6,0,0,1,.87,1.53c.46,1.17.75,2.34,1.16,3.49s.84,2.27,1.34,3.38a7.7,7.7,0,0,0,2.81,3.13,5.61,5.61,0,0,0,1,.49,7.75,7.75,0,0,0,1,.23,2.56,2.56,0,0,0,1.86-.49,4.93,4.93,0,0,0,1.44-2.29,16.24,16.24,0,0,0,.79-4.59,30.27,30.27,0,0,0-.21-3.68c0-.28-.07-.54-.08-.82a2.24,2.24,0,0,1,.26-1.1,1.43,1.43,0,0,1,.7-.47,3.3,3.3,0,0,1,.38-.12.63.63,0,0,1,.57.24,1.83,1.83,0,0,1,.52.84,8.06,8.06,0,0,1,.33,1.68c.06.57.11,1.16.13,1.75a17.53,17.53,0,0,1-.23,3.66,17.06,17.06,0,0,1-.66,2.79,9.42,9.42,0,0,1-1.42,2.81Z"/><path class="cls-1" d="M239.2,178.85a8.15,8.15,0,0,1-2.31,2,4.77,4.77,0,0,1-3.27.52,4.83,4.83,0,0,1-2.15-1,8.93,8.93,0,0,1-2.12-3,16.77,16.77,0,0,1-1.12-3.21,19.44,19.44,0,0,1-.57-2.93,7.37,7.37,0,0,1,.32-3.85c.18-.39.48-.19.74.21a3.34,3.34,0,0,1,.57,1.57,17.26,17.26,0,0,0,.54,3.37,23.2,23.2,0,0,0,.95,3.35A5.93,5.93,0,0,0,233.2,179a2.57,2.57,0,0,0,1.76.26,3.59,3.59,0,0,0,1.71-1,9.65,9.65,0,0,0,1.66-2.32,18.62,18.62,0,0,0,1.61-4.25,17.19,17.19,0,0,0,.35-3.48v-.76c.06-.92.24-1.18.9-1.39a4,4,0,0,1,.45-.15c.51-.12,1,.31,1.1,1.11a15.35,15.35,0,0,1-.9,7,17.6,17.6,0,0,1-2.59,4.91Z"/><path class="cls-1" d="M226.34,170a34.22,34.22,0,0,1,.13-8.81,17.38,17.38,0,0,1,.72-3.22,11.2,11.2,0,0,1,3.33-5,10.36,10.36,0,0,1,5.5-2.11,14.56,14.56,0,0,1,5.06.35,9.64,9.64,0,0,1,5.5,3.27c.42.53.14.63-.47.48a16.63,16.63,0,0,1-2.55-.83,12.88,12.88,0,0,0-5.49-1.21,10.5,10.5,0,0,0-5.35,1.13,5.93,5.93,0,0,0-2.29,2.34,12.72,12.72,0,0,0-1.25,3.32,26.54,26.54,0,0,0-.6,8.14,42.3,42.3,0,0,0,2.78,12.6,24.32,24.32,0,0,0,2.9,5.11c.25.34.52.65.79,1,1,1.18,1.2,1.53,1.1,2.24a3.5,3.5,0,0,1-.06.48c-.07.25-.3.35-.67.28a3,3,0,0,1-1.41-.74,16.26,16.26,0,0,1-3.57-4.72,34.54,34.54,0,0,1-2.29-5.47,47.64,47.64,0,0,1-1.87-8.62Z"/><path class="cls-1" d="M203.2,157.15c4.42-4.12,11.38-4.06,16.8-2.23,1.62.55,2.31-2,.71-2.55-6.36-2.15-14.27-1.86-19.39,2.91-1.25,1.16.63,3,1.88,1.87Z"/><path class="cls-1" d="M225.55,197a3.61,3.61,0,0,0,1.35,4.81,3.51,3.51,0,0,0,5-.84,2.3,2.3,0,0,0-1.36-3.57,2.41,2.41,0,0,0-2.95,2.74,1.36,1.36,0,0,0,1.33,1.32,1.33,1.33,0,0,0,1.32-1.32c0-.11,0-.22,0-.33s0-.19,0,0c.05-.15.05-.15,0,0s-.12.14,0,0a.47.47,0,0,1-.27.16c.14,0,.12,0-.09,0H230c-.2,0-.23,0-.08,0l-.07,0c.12.08.1.07,0,0,0,.32-.15-.46-.08-.13a.5.5,0,0,1,0-.32c0,.14,0,.14,0,0-.11.05,0,.1-.16.2-.42.35-.86.2-1.27-.13a1.47,1.47,0,0,1-.5-.67.44.44,0,0,1,.08-.52c.9-1.45-1.39-2.78-2.29-1.34Z"/><path class="cls-1" d="M346.36,260.33l.46.1a1.71,1.71,0,0,0,.38,0,3,3,0,0,0,.82-.12,3.62,3.62,0,0,0,1.52-.92,2.78,2.78,0,0,0,.62-1.07,2.41,2.41,0,0,0,.13-1,2.1,2.1,0,0,0-.45-.94,3.42,3.42,0,0,0-2-1.34,1,1,0,0,0-.79.2,1.73,1.73,0,0,0-.45.78.67.67,0,0,0,.06.36,1.07,1.07,0,0,0,.33.29,2.06,2.06,0,0,0,.45.14c.13,0,.13.08.21,0s.32-.35.66,0a.76.76,0,0,1,.15.46,1.1,1.1,0,0,1-.32.66,1.66,1.66,0,0,1-1.52.45,2.58,2.58,0,0,1-1.31-.75,2.28,2.28,0,0,1-.47-.75,2.66,2.66,0,0,1,.37-2.24,2.17,2.17,0,0,1,.41-.53,2,2,0,0,1,.57-.47,2.82,2.82,0,0,1,1.41-.42,3.76,3.76,0,0,1,1.25.23,5,5,0,0,1,1.81,1.21,5.16,5.16,0,0,1,1.44,2.29,4.18,4.18,0,0,1-.32,2.7,5.41,5.41,0,0,1-4.56,2.95,6.3,6.3,0,0,1-3.2-.84,6.19,6.19,0,0,1-2.84-3.92,6.41,6.41,0,0,1,0-3.78,7.14,7.14,0,0,1,.37-.8c.62-.93,1.08-1,1.51-.8a1.73,1.73,0,0,1,.3.16c.28.24.17.68-.05,1.18a5.41,5.41,0,0,0-.35,2.35,4.94,4.94,0,0,0,.66,2.26,3.77,3.77,0,0,0,1.14,1.24,4.4,4.4,0,0,0,.74.41l.42.12a1.52,1.52,0,0,0,.43.12Z"/><path class="cls-1" d="M56.69,218.45a3.26,3.26,0,0,0-.45.38,1.78,1.78,0,0,0-.3.48,2.48,2.48,0,0,0-.2,1.24,2.07,2.07,0,0,0,.3.81,1.55,1.55,0,0,0,.49.53,1.47,1.47,0,0,0,.7.19,2.47,2.47,0,0,0,1.66-.49.62.62,0,0,0,.23-.49,1.21,1.21,0,0,0-.23-.57c-.13-.11-.2-.12-.44-.05s-.42.17-.29.38,0,.24-.55.19a.7.7,0,0,1-.56-.62,1.27,1.27,0,0,1,.45-1.17,2,2,0,0,1,1.86-.38,2.18,2.18,0,0,1,.62.39,1.75,1.75,0,0,1,.39.5,2.13,2.13,0,0,1,.23.49,2.37,2.37,0,0,1,.12,1.12,2.3,2.3,0,0,1-.45,1.1,3,3,0,0,1-.77.65,3.9,3.9,0,0,1-1.62.5,4.21,4.21,0,0,1-2.1-.26,3.23,3.23,0,0,1-1.49-1.52,4.18,4.18,0,0,1,.45-4.18,4.68,4.68,0,0,1,5.76-1.3,4.94,4.94,0,0,1,2.26,1.82,4.37,4.37,0,0,1,.31.61c.25.83.07,1.15-.33,1.3a1.48,1.48,0,0,1-.27.1c-.33.05-.58-.22-.78-.55a4.32,4.32,0,0,0-1.21-1.2,3.74,3.74,0,0,0-1.54-.62,2.73,2.73,0,0,0-2.22.65Z"/><path class="cls-1" d="M334.48,127.69a4.47,4.47,0,0,1-1.9,1,5.13,5.13,0,0,1-2,.08,3,3,0,0,1-1.52-.66,3.59,3.59,0,0,1-1.14-2.43,5.49,5.49,0,0,1,.35-2.36,5.72,5.72,0,0,1,1.07-1.84,3.06,3.06,0,0,1,1.24-.82,2.06,2.06,0,0,1,1.49.1c.29.13.08.47-.2.79s-.55.69-.72.75a2,2,0,0,0-1,1,5.83,5.83,0,0,0-.56,1.8,1.69,1.69,0,0,0,.8,1.76,2.82,2.82,0,0,0,2.4-.16,2.17,2.17,0,0,0,1.07-1.12,2.57,2.57,0,0,0-.1-2.41,1.41,1.41,0,0,0-1.42-.66c-.1,0-.22.08-.33.09a.87.87,0,0,1-.51,0,2.17,2.17,0,0,1-.44-.46l-.21-.26a.54.54,0,0,1-.05-.5,1,1,0,0,1,.48-.61,3.07,3.07,0,0,1,3,.23,4,4,0,0,1,1.64,2.65,5.06,5.06,0,0,1-.16,2.22,4.32,4.32,0,0,1-1.23,1.89Z"/><path class="cls-1" d="M383.73,195.29c-2.44-.8-3.3,4.88.08,4,2.58-.69,1.67-4.72-.84-3.6"/><path class="cls-1" d="M248.8,266.19c-2.44-.81-3.3,4.88.09,4,2.58-.69,1.66-4.73-.85-3.61"/><path class="cls-1" d="M266.49,62.84c-2.44-.81-3.3,4.88.08,4,2.58-.68,1.67-4.72-.85-3.6"/><path class="cls-1" d="M115.84,264.28a3.54,3.54,0,0,1-1.49.74,4,4,0,0,1-1.59.05,2.17,2.17,0,0,1-.62-.18,1.34,1.34,0,0,1-.57-.34,2.63,2.63,0,0,1-.88-1.9,3.76,3.76,0,0,1,.29-1.8,4.33,4.33,0,0,1,.81-1.4c.14-.12.27-.26.42-.38s.35-.19.54-.27a3,3,0,0,1,.6-.06,1.67,1.67,0,0,1,.55.16c.23.1,0,.41-.18.73l-.3.43c-.09.11-.12.26-.18.26a2.75,2.75,0,0,0-1,1.87,1.34,1.34,0,0,0,.09.75,2.7,2.7,0,0,0,.18.25c.09,0,.12.15.23.17a2,2,0,0,0,1.64-.08,1.54,1.54,0,0,0,.76-.77,1.75,1.75,0,0,0-.07-1.69.9.9,0,0,0-1-.39c-.07,0-.15.07-.22.08a.39.39,0,0,1-.35,0,2.46,2.46,0,0,1-.35-.43l-.18-.25a.61.61,0,0,1-.07-.45.78.78,0,0,1,.35-.52,2.4,2.4,0,0,1,2.4.15,3.09,3.09,0,0,1,1.31,2.1,3.59,3.59,0,0,1-1.1,3.23Z"/><path class="cls-1" d="M90.33,123.47c-3.91-1.29-5.28,7.82.13,6.38,4.14-1.09,2.67-7.56-1.35-5.77"/><path class="cls-1" d="M416.22,360.86c-.07-.2.17-.29.59-.31a1.27,1.27,0,0,1,.54.17c.07.12.15.24.2.35s0,1,0,1.28a4.29,4.29,0,0,1,0,.88c-.06.59-.09,1.19-.1,1.79a1.87,1.87,0,0,1-.07.4,3.68,3.68,0,0,0-.11,1.4c0,.08,0,.16.06.23a5.18,5.18,0,0,1,.06,1.58c-.13.42-.2.84-.29,1.26,0,.06,0,.13-.07.18s-.13.26-.15.39a2.13,2.13,0,0,1-.1.55.91.91,0,0,1-.2.26c-.07.08-.31,0-.34,0s-.19,0-.29,0h-.11a6,6,0,0,1-.51-1.14l-.1-.79c-.05-.4-.11-.82-.13-.91a.51.51,0,0,1,0-.27s-.16-1.26-.15-1.31a1.45,1.45,0,0,1,.12-.76.3.3,0,0,0,0-.16,6.56,6.56,0,0,1,.13-1.32c0-.23,0-.46.05-.68a.56.56,0,0,1,0-.12.43.43,0,0,0,.05-.16c0-.54.19-1.06.22-1.61,0-.13.31-.68.32-.83S416.24,360.94,416.22,360.86Z"/><path class="cls-1" d="M432.64,369.28c0,.26-.34.25-.81.07a1.26,1.26,0,0,1-.51-.44,2.9,2.9,0,0,1,0-.5c0-.09.6-1.15.77-1.53a6,6,0,0,1,.65-1c.48-.64.94-1.3,1.41-2a2.66,2.66,0,0,1,.36-.4,5.93,5.93,0,0,0,1.15-1.44.58.58,0,0,0,.12-.29,8.91,8.91,0,0,1,1.1-1.72c.42-.37.81-.76,1.2-1.15.06-.05.09-.13.19-.15s.3-.19.41-.32a5.93,5.93,0,0,1,.47-.53,1.64,1.64,0,0,1,.35-.18c.11-.05.28.12.28.16s.15.12.23.16l.09.06a9.85,9.85,0,0,1-.35,1.55l-.45.94c-.22.48-.47,1-.52,1.07a1.18,1.18,0,0,1-.23.27c0,.06-.79,1.44-.81,1.49a2.32,2.32,0,0,1-.65.75.3.3,0,0,0-.12.15,13.15,13.15,0,0,1-1,1.34,6.85,6.85,0,0,0-.5.7.58.58,0,0,1-.12.1,1,1,0,0,0-.15.14c-.38.56-.86,1.05-1.21,1.64-.08.14-.7.6-.79.76S432.66,369.18,432.64,369.28Z"/></g></svg>