<svg xmlns="http://www.w3.org/2000/svg" width="520" height="520" viewBox="0 0 520 520"><defs><style>.cls-1{fill:#231f20;}</style></defs><title>Notioly New</title><g id="n.133_Working_From_Everywhere" data-name="n.133 Working From Everywhere"><path class="cls-1" d="M433,475.46c-1.07.08-2.13.16-3.2.27l-1.16.16-4.11.41c-.6.08-1.21.19-1.79.32a14.85,14.85,0,0,1-2.28.46c-.24,0-.3-.29-.18-.64a1.4,1.4,0,0,1,.86-.89,22.17,22.17,0,0,1,4.77-.89c1-.05,1.95-.28,2.93-.41s2.15-.25,3.23-.37l2-.19c1-.09,2-.14,3-.25.77-.09,1.53-.25,2.3-.34.17,0,.34-.06.51-.07.65,0,.87.07,1,.43a2.34,2.34,0,0,1,.09.24c.06.28-.2.52-.64.63a41.38,41.38,0,0,1-4.16.79c-1.06.17-2.13.29-3.2.39Z"/><path class="cls-1" d="M108.65,472a2.11,2.11,0,0,1-.34-1.34c0-.15.23-.31.36-.2a5.52,5.52,0,0,1,.72.66,7.89,7.89,0,0,1,.93,1.61,24.27,24.27,0,0,1,.87,2.32,21.14,21.14,0,0,1,.66,2.89l.36,2.2s0,0,0,0,0,.05.06,0a26.32,26.32,0,0,0,1.26-4.18,3.74,3.74,0,0,0,.15-.74,16.23,16.23,0,0,1,.67-2.41,18.12,18.12,0,0,1,1-2.44,19.68,19.68,0,0,1,2.36-3.4c.13-.14.24-.33.41-.41a4.9,4.9,0,0,0,1-.82,6.64,6.64,0,0,1,1.44-1c.23-.17.59-.14.84-.25s.22.13.16.2,0,.15.09.2,0,0,0,.06-.15.15-.33.42a10.86,10.86,0,0,0-.74.82c-.54.6-1,1.29-1.11,1.41a6.53,6.53,0,0,0-.45.59,14.57,14.57,0,0,0-.85,1.34,18.92,18.92,0,0,0-1.11,2.43,6.89,6.89,0,0,1-.34.73c0,.05-.33.94-.58,1.85s-.47,1.85-.49,1.92a14.85,14.85,0,0,1-.69,2.21,1.76,1.76,0,0,0-.14.46c-.08.32-.17.65-.28,1l-.16.5-.09.25-.17.41a4.29,4.29,0,0,1-.89,1.44c-.19.15-.38.31-.57.49l-.33.18-.26.09a1.18,1.18,0,0,1-.64,0,1.25,1.25,0,0,1-.5-.33,2.79,2.79,0,0,1-.63-1.35c0-.21-.07-.45-.1-.67s0-.51-.08-.74a43.92,43.92,0,0,0-.69-4.72,16.41,16.41,0,0,0-.53-2.42A8.42,8.42,0,0,0,108.65,472Z"/><path class="cls-1" d="M119.17,370.26c.13,8,.31,16,.66,24,.15,2.92.31,5.84.46,8.75.49,10.29,1.06,20.57,1.41,30.87.16,4.57.31,9.17.42,13.71.14,5.83.2,11.69-.21,17.52-.12,1.81-.4,1.55-.66,0-.12-.77-.25-1.87-.34-3.19s-.22-2.86-.2-4.53c0-11.86-.6-23.72-1-35.7-.26-7.17-.8-14.62-1.16-21.95q-.63-12.09-.85-24.21-.12-7.45-.25-14.9c-.1-7.53-.11-15.09-.14-22.55,0-5.81-.1-11.5,0-17.24,0-1.26,0-2.5,0-3.78.12-4.72.3-6.22.7-7.22a4.44,4.44,0,0,1,.27-.66c.3-.44.47,1.49.48,4.94,0,5.13.12,10.39.1,15.73s0,10.75.05,16.17q.06,12.09.28,24.23Z"/><path class="cls-1" d="M146,27.06l-2.39-.31-2.41-.12c-1.61-.13-3.23,0-4.85,0-1.19,0-2.35.26-3.53.35a63.21,63.21,0,0,0-12.28,2.54,25,25,0,0,0-2.64.92c-.87.34-1.75.65-2.59,1L112.06,33c-1,.55-2.11,1.1-3.2,1.58-.68.31-.77,0-.39-.65a7.43,7.43,0,0,1,2.47-2.19,53.32,53.32,0,0,1,14-5.15l2.2-.49,2.26-.42c.75-.13,1.5-.32,2.27-.41l2.28-.28c1.67-.25,3.36-.22,5-.32.84-.05,1.69,0,2.53.05s1.68,0,2.52.11l3.09.35c1,.1,2,.38,3.06.56A37.8,37.8,0,0,1,154.74,27a17.17,17.17,0,0,1,2.21.81l2.19.86,3.25,1.6c1.07.56,2.05,1.26,3.08,1.9l.67.43c.21.16.4.34.61.52.37.33.67.61.92.86a5.65,5.65,0,0,1,.52.69,1.88,1.88,0,0,1,.36,1,2.73,2.73,0,0,1,0,.37c-.05.31-.85,0-2.09-.69l-1.26-.9c-.41-.31-.9-.52-1.34-.81l-1.35-.81a10.73,10.73,0,0,0-1.37-.77c-1-.44-1.9-.94-2.84-1.43l-3-1.2c-.73-.33-1.53-.48-2.29-.74s-1.52-.51-2.31-.66a45.36,45.36,0,0,0-4.77-.85Z"/><path class="cls-1" d="M134.37,138.24c-1.31,2.15-2.57,4.33-3.66,6.59-.58,1.12-1.06,2.27-1.56,3.42-.27.57-.46,1.16-.69,1.74l-.33.88-.19.51-.18.43c-.36.85-.73,1.69-1.05,2.55l-.94,2.58a78.93,78.93,0,0,0-3.9,19c-.24,2.88-.35,5.79-.4,8.65-.06,3.69,0,7.4-.06,11.09,0,2.3-1.07-.6-1.18-4.87a113.76,113.76,0,0,1,1.38-22.75,78.63,78.63,0,0,1,3.55-13.59c.41-1.23,1-2.4,1.45-3.6l.66-1.76c.21-.61.46-1.21.72-1.8l.77-1.78.86-1.74c.54-1.17,1.19-2.29,1.8-3.42a94.4,94.4,0,0,1,5.05-8.05,102.36,102.36,0,0,1,9-11.18,70.65,70.65,0,0,1,8-7.59l.93-.77,1-.7c.63-.44,1.15-.79,1.59-1.08s.85-.45,1.17-.6a3,3,0,0,1,1.44-.35,2.51,2.51,0,0,1,.51,0c.39.15-.54,1-2.34,2.14a72,72,0,0,0-7.56,6.25c-2.4,2.33-4.73,4.81-6.92,7.41a100,100,0,0,0-8.86,12.36Z"/><path class="cls-1" d="M189,343.59a21.13,21.13,0,0,1-2.3-1.49c-.26-.19-.54-.36-.79-.56-.89-.7-1.72-1.47-2.55-2.21a12.46,12.46,0,0,0-1.18-.88,16.14,16.14,0,0,1-1.46-1.16c-.14-.14,0-.31.24-.42a1.31,1.31,0,0,1,1,0c.29.15.6.3.89.46a9.46,9.46,0,0,1,.79.58,18.06,18.06,0,0,1,1.46,1.3,18.62,18.62,0,0,0,1.84,1.48,19.63,19.63,0,0,0,2.1,1.45,8.52,8.52,0,0,0,1.38.63,2.69,2.69,0,0,0,2.07,0c.53-.22.5-.54.42-1.05a1.77,1.77,0,0,1-.08-.33c-.09-.44,0-.63.19-.83l.14-.14c.16-.12.42,0,.69.34a2.53,2.53,0,0,1,.42.94,2.23,2.23,0,0,1-.12,1.32,1.93,1.93,0,0,1-.48.65,2.54,2.54,0,0,1-.56.34,3.12,3.12,0,0,1-1.15.34,5.81,5.81,0,0,1-3-.7Z"/><path class="cls-1" d="M162.89,344.79c-1.1.66-2.25,1.27-3.43,1.84-.44.2-.86.45-1.33.62a6.12,6.12,0,0,1-2.78.45,2.07,2.07,0,0,1-1.49-.89,2.82,2.82,0,0,1-.42-1.47,10.14,10.14,0,0,1,.2-2.31,9.32,9.32,0,0,1,.84-2.7c.14-.26.38-.14.57.18a2.09,2.09,0,0,1,.26,1.33,21,21,0,0,0-.37,2.61,4,4,0,0,0,.07,1.08,1,1,0,0,0,.26.55,1.5,1.5,0,0,0,1.16,0,9.53,9.53,0,0,0,1.49-.58,34,34,0,0,0,3.29-1.78c.67-.39,1.34-.8,2-1.22,1-.64,2-1.28,3-2,.76-.53,1.45-1.13,2.2-1.68a5.74,5.74,0,0,1,.5-.36c.67-.39,1-.38,1.31-.06.08.08.16.15.23.23.21.27.08.66-.32,1a35.51,35.51,0,0,1-4,3c-1.05.72-2.14,1.41-3.23,2.1Z"/><path class="cls-1" d="M230.38,91.8a32.52,32.52,0,0,1-7.79,6.36,51.9,51.9,0,0,1-9,4.24,81,81,0,0,1-9.49,2.76c-1.6.37-3.21.69-4.82,1l-1.21.22-.57.1-.12,0h0s0,.08-.07-.22a3.16,3.16,0,0,0-.16-.44c0-.08,0-.09-.06-.14l-.05-.07a.49.49,0,0,0,.07-.19c0-.09.07-.3.09-.45v-.12s0-.22,0-.14h0l.16,0c.83.17,1.67.3,2.5.5a18.18,18.18,0,0,1,6.67,3.32,16.88,16.88,0,0,1,4.69,5.79,23.21,23.21,0,0,1,2,6.21,29.21,29.21,0,0,1,.22,6.47,38.45,38.45,0,0,1-3.51,12.27,47.44,47.44,0,0,1-16.34,19.11,57.62,57.62,0,0,1-20.69,8.41,67.4,67.4,0,0,1-28.42-.14c-2.89-.68-2.44-.78,0-.54.62.07,1.37.14,2.24.19s1.83.16,2.9.18,2.21.11,3.44.12l1.88.07,2,0a68,68,0,0,0,27.83-5.33,47,47,0,0,0,21.3-18.29,42.59,42.59,0,0,0,3.75-7.78,32.65,32.65,0,0,0,1.94-8.47,23.42,23.42,0,0,0-.88-8.58,17.43,17.43,0,0,0-4.27-7.3,16.13,16.13,0,0,0-8.19-4.26l-1.16-.23-.29-.06-.13,0-.11,0-.06,0a1.44,1.44,0,0,1-.18-.1.89.89,0,0,1-.27-.37.83.83,0,0,1,.06-.66,1.16,1.16,0,0,1,.21-.24l.09,0a.77.77,0,0,1,.25-.1l.11,0c.24-.06.44-.09.64-.13l2.42-.41q2.4-.43,4.77-1A57.64,57.64,0,0,0,222.74,96a27.81,27.81,0,0,0,8.4-8.19,21.38,21.38,0,0,0,3.36-11.12,23,23,0,0,0-.28-4.46,16,16,0,0,0-.42-2.19,16,16,0,0,0-.62-2.15,24.57,24.57,0,0,0-4.37-7.75A36.76,36.76,0,0,0,214.23,50a60.63,60.63,0,0,0-27.14-3.9l-1.51.12-1.49.19c-1,.11-2,.29-3,.45-7.4,1.44-9.66,2.33-11.31,2.62-.38.07-.87.2-1.1.22-.39,0,.1-.33,1.33-1a33.14,33.14,0,0,1,6-2.54A61.38,61.38,0,0,1,214.7,48a48.91,48.91,0,0,1,6.09,3c1,.54,1.93,1.21,2.89,1.83s1.86,1.33,2.7,2.11A30,30,0,0,1,233,62.8a26.65,26.65,0,0,1,2.46,20,23.69,23.69,0,0,1-5,9Z"/><path class="cls-1" d="M118.43,265.7a10.43,10.43,0,0,1,7.55,1.74c3.58,2.56,8.17,6,8.89,3.73s-4-25.16,2.53-29.58c0,0,7.13-9.79,13.87-10.84,0,0,20.24,15.92,49.59,4.28,0,0,19.13-6.79,17.61-27.32,0,0-6.06-17-18.84-10.56,0,0,2.61-5.52-1-9.43,0,0-10.7-11-24.21-4.76s-26.11,12.63-31.69,29.27c0,0-20.82-6.86-29.89.63S96,226.75,98.16,241.59,109,263.38,118.43,265.7Z"/><path class="cls-1" d="M218.35,433.72s-1.48,14.52,2.39,14.66,8.07-19.18,8.07-19.18S220.87,431.92,218.35,433.72Z"/><path class="cls-1" d="M396.65,464.78c-.43,0-.73-.26-.93-.7-.06-.14.06-.5.18-.52l.7-.12c.13,0,2.29.16,3,.13s1.43,0,2.14.06c1.46.08,2.93.08,4.39.07a6.44,6.44,0,0,1,1,.05,17.85,17.85,0,0,0,3.35,0,1.7,1.7,0,0,0,.55-.07c.3-.11,3.31-.26,3.7-.26a28.21,28.21,0,0,0,2.91,0,.94.94,0,0,1,.41,0,1.62,1.62,0,0,0,.9,0c.39-.06.8-.12,1.16-.21.18,0,.39,0,.54-.06s.26.16.22.23.08.17.16.22l.07.07a3.19,3.19,0,0,1-1.21.87,11.15,11.15,0,0,1-1.43.62c-.07.1-3.67.7-4.07.74a2.82,2.82,0,0,1-.65,0c-.1,0-3,.36-3.09.34a6.35,6.35,0,0,1-1.79-.08.88.88,0,0,0-.36,0c-1,0-2-.05-3.07-.12l-1.57-.06a1.26,1.26,0,0,1-.28-.05,2.23,2.23,0,0,0-.36-.05c-1.24-.05-2.47-.23-3.72-.3-.29,0-1.63-.38-2-.42S396.81,464.78,396.65,464.78Z"/><path class="cls-1" d="M149.13,449.59s-3.43,25,15.56,37.37c0,0,8.89,3.45,11.21,2.75,0,0-6.06-6.62-1.77-7.32s19.43,9.15,19.43,9.15,14.55-9.48,18.55-10.08c0,0-2.23,8.65,0,8.74s2.42-2.87,7.42-2.24l5.12,1.68s83.52-2.1,86.52-4.2c0,0-6.71-8.38-3.41-9.95s21,4.93,21,4.93-4.64-6.93.41-6.93c0,0,14.4,9.82,16.36,10s46.87-2.49,48.07-4.3,4-31.87,1.28-35.83c0,0-146.13-2-169,3a3.89,3.89,0,0,1-3.37,3.21,6.58,6.58,0,0,1-5.08-1.55S160.93,461.33,149.13,449.59Z"/><path class="cls-1" d="M187.23,361.51c-2.69,1.46-11.33-3.46-11.33-3.46l-1.47-8.77s6.93,8.05,10.67,6.68Z"/><path class="cls-1" d="M193.56,379c-6.55,3-16-5.57-16-5.57l-.43-6s8.83,6.95,14.07,5.27Z"/><path class="cls-1" d="M181,310.55a20.56,20.56,0,0,1-7.06,2.5,23.18,23.18,0,0,1-7.39-.08,30.27,30.27,0,0,1-5.16-1.32,35.91,35.91,0,0,1-8.18-4.37,44.41,44.41,0,0,1-6.93-6,47,47,0,0,1-5-6.41,35.17,35.17,0,0,1-2.54-4.58,18.8,18.8,0,0,1-1.49-5c-.17-1.09.3-1,1-.25a17.41,17.41,0,0,1,2.38,3.82,37.68,37.68,0,0,0,5.15,8.57,44.72,44.72,0,0,0,7.13,7.23,31.1,31.1,0,0,0,11,5.64,20.8,20.8,0,0,0,13.32-.32,19.64,19.64,0,0,0,6.87-4.65,22.72,22.72,0,0,0,3.67-5.2,31.37,31.37,0,0,0,2.25-6,57.36,57.36,0,0,0,1.51-9.84l.17-2.19c.24-2.74.54-3.6,1.21-4.12a2.62,2.62,0,0,1,.47-.34c.5-.21.79.94.75,3-.22,6-.89,12.52-3.45,18.72a25.3,25.3,0,0,1-3.87,6.45,22.59,22.59,0,0,1-5.76,4.91Z"/><path class="cls-1" d="M136.11,263.42l.68,3.77c.1.65.2,1.31.26,2a8.23,8.23,0,0,1-.09,2.34,6,6,0,0,1-.27.77l-.48.72a2.91,2.91,0,0,1-1.46.86,3.16,3.16,0,0,1-1.65-.06,5.85,5.85,0,0,1-1.15-.49,25.15,25.15,0,0,1-3.25-2.4,24.1,24.1,0,0,0-4.36-2.95,5.52,5.52,0,0,0-3.89-.56,7.15,7.15,0,0,0-3.41,2.4,6.53,6.53,0,0,0-1,1.82,8.93,8.93,0,0,0-.43,2.14,10.26,10.26,0,0,0,.73,4.43,8.88,8.88,0,0,0,2.24,3.29,12.88,12.88,0,0,0,3.43,2.23,10.44,10.44,0,0,0,2.49.67,11.89,11.89,0,0,0,2.6,0,20.06,20.06,0,0,0,2.62-.48c.43-.11.87-.23,1.32-.31s.87-.25,1.31-.39c1.09-.34,1.07,0,.29.7a14.07,14.07,0,0,1-1.73,1.26,8.78,8.78,0,0,1-2.88,1,12.08,12.08,0,0,1-6.21-.41,13.13,13.13,0,0,1-2.81-1.39,14.85,14.85,0,0,1-1.25-.91l-.6-.48-.6-.57a11.43,11.43,0,0,1-2.93-5.63,10.68,10.68,0,0,1,.53-6.35,9.54,9.54,0,0,1,2.28-3.17,8.35,8.35,0,0,1,3.41-2.09,7.15,7.15,0,0,1,4.1,0,13.06,13.06,0,0,1,3.43,1.69c1.12.75,2.14,1.58,3.13,2.39a17.54,17.54,0,0,0,2.91,2.07c.51.22.65.23.92.11s.33-.29.39-.85a14.55,14.55,0,0,0-.33-3.54,87.39,87.39,0,0,1-1.45-9.43,30,30,0,0,1,.26-7.33,23.22,23.22,0,0,1,2.31-7c.41-.86.94-1.65,1.43-2.46a27.11,27.11,0,0,1,1.72-2.24,25.45,25.45,0,0,1,4.09-3.88c.67-.48,1.31-1,2-1.43,2.65-1.59,3.67-1.74,4.47-1.57a3,3,0,0,1,.54.15c.44.25-.52,1.09-2.29,2.29a35.34,35.34,0,0,0-7.17,6.24c-.55.58-1,1.26-1.45,1.88a23.18,23.18,0,0,0-1.2,2,18.66,18.66,0,0,0-1.68,4.43c-1.2,4.61-.73,9.61.22,14.55Z"/><path class="cls-1" d="M96.6,238.09a37.79,37.79,0,0,1,1.18-7.93,30.47,30.47,0,0,1,3-7.46,24.53,24.53,0,0,1,3.44-4.79,26.78,26.78,0,0,1,8.34-6,32.53,32.53,0,0,1,9.81-2.77,38.62,38.62,0,0,1,9,0,25.26,25.26,0,0,1,10.91,3.47c1,.64.65.91-.42.85a27,27,0,0,1-4.85-.91,34.57,34.57,0,0,0-10.86-1.41,34.06,34.06,0,0,0-10.83,2,23.64,23.64,0,0,0-10.72,8,28.81,28.81,0,0,0-5.42,13.86,30.52,30.52,0,0,0,.07,9.3,26.39,26.39,0,0,0,5.84,12.69,27.93,27.93,0,0,0,8.45,6.6c.7.36,1.41.66,2.13,1,2.7,1.11,3.51,1.29,4.08,1.93a5.24,5.24,0,0,1,.41.37c.35.37-1.1.89-3.42.31a25.51,25.51,0,0,1-9.35-4.88,29.39,29.39,0,0,1-7.1-8.28,29.69,29.69,0,0,1-3.78-15.79Z"/><path class="cls-1" d="M141.21,443a65.58,65.58,0,0,1-5.31-15.51,128.36,128.36,0,0,1-2.5-16c-.36-3.93-.64-7.86-.7-11.8a141.44,141.44,0,0,1,1.16-20.77,131.73,131.73,0,0,1,4.4-20.33,98.54,98.54,0,0,1,6.84-17.16,54.83,54.83,0,0,1,6.53-9.92,30.5,30.5,0,0,1,9.2-7.59c2.31-1,2.09-.54.59.91l-3,3c-1.18,1.26-2.48,2.76-3.92,4.35-5.08,5.75-8.65,12.81-11.49,20.08a127.45,127.45,0,0,0-6.28,22.8,129.94,129.94,0,0,0-1.57,29.05,140.2,140.2,0,0,0,1.6,16,93.35,93.35,0,0,0,3.75,15.56,39,39,0,0,0,4.15,8.8,13,13,0,0,0,3.15,3.43,28.11,28.11,0,0,0,4.21,2.38,42.88,42.88,0,0,0,14.36,3.47,86.32,86.32,0,0,0,14.91-.19A194.91,194.91,0,0,0,204,449.73l4.92-1.08c6.19-1.24,8.21-1.47,9.65-1.19.32.06.74.1.94.17.65.23-1.79,1.08-6.28,2.19-6.65,1.68-13.55,3.21-20.64,4.42a121.93,121.93,0,0,1-21.81,1.92,54.79,54.79,0,0,1-16.42-2.56,31.61,31.61,0,0,1-7.62-3.76,13.68,13.68,0,0,1-3.23-3.16,27.52,27.52,0,0,1-2.29-3.63Z"/><path class="cls-1" d="M159.17,345.86a7.34,7.34,0,0,1-2.18.52,3.2,3.2,0,0,1-.73,0,2.43,2.43,0,0,1-.78-.2,2.46,2.46,0,0,1-1.22-1.05,1.77,1.77,0,0,1-.33-.71,2.27,2.27,0,0,1-.17-.67,5.79,5.79,0,0,1,0-1.16,13.19,13.19,0,0,1,.33-2,22.17,22.17,0,0,1,.78-2.66,33.38,33.38,0,0,1,4.67-8.27,27.3,27.3,0,0,1,2.83-3.16,11.09,11.09,0,0,1,2.24-1.63,5.76,5.76,0,0,1,2.76-.69c.61,0,.48.38.07.77a10.82,10.82,0,0,1-1.75,1.34,13.78,13.78,0,0,0-3.56,3.25c-1.06,1.31-2,2.74-3,4.19a24.35,24.35,0,0,0-2.54,5.82,12.93,12.93,0,0,0-.66,3.26,5.09,5.09,0,0,0,0,.69,1.14,1.14,0,0,0,.15.37c.18.21.36.29.85.22a11.9,11.9,0,0,0,3.8-1.57c1.91-1.1,3.8-2.34,5.63-3.63,1.43-1,2.76-2.09,4.3-3a7.64,7.64,0,0,1,1.1-.58,3,3,0,0,1,1.9-.24,1.09,1.09,0,0,1,.58.36.63.63,0,0,1,.16.51.78.78,0,0,1-.11.43c-.13.17-.41.23-.52.33a1.51,1.51,0,0,1-.55.39,36.78,36.78,0,0,0-3.59,2.33c-1.27.9-2.58,1.84-3.93,2.76a39.79,39.79,0,0,1-6.56,3.78Z"/><path class="cls-1" d="M191.11,334c.61.84,1.18,1.7,1.74,2.6a13.82,13.82,0,0,1,1.42,2.94,5.59,5.59,0,0,1,.17.65,3.38,3.38,0,0,1,.08.75,2,2,0,0,1-.75,1.67l-.2.17a3.69,3.69,0,0,1-2.48.48,6.67,6.67,0,0,1-2.06-.69,21.32,21.32,0,0,1-3.27-2.22c-.92-.72-1.83-1.43-2.75-2.1a29.36,29.36,0,0,0-3.47-2.41c-.35-.17-.29-.45.2-.64a2.92,2.92,0,0,1,2.19.27c.7.37,1.36.79,2,1.2s1.2.91,1.79,1.37c1.16.91,2.3,1.84,3.47,2.6a5.76,5.76,0,0,0,1.8.81,2.8,2.8,0,0,0,.85.06,2.16,2.16,0,0,0,.68-.23.48.48,0,0,0,.18-.26,2.57,2.57,0,0,0-.17-1,9.42,9.42,0,0,0-.55-1.29,22.87,22.87,0,0,0-1.54-2.51c-.71-1-1.46-2-2.25-2.93a55.31,55.31,0,0,0-3.78-4.17c-1-1-2.13-1.93-3.23-2.82-.24-.2-.49-.37-.72-.59-.85-.78-1-1.1-1-1.54,0-.1,0-.22,0-.31,0-.3.65-.27,1.48.14a18.43,18.43,0,0,1,3.33,2.36,32.26,32.26,0,0,1,3,2.89,60.81,60.81,0,0,1,4,4.77Z"/><path class="cls-1" d="M238.47,412.79c-5.09,1.74-10.24,3.17-15.4,4.55-1.89.5-3.76,1-5.65,1.5-6.67,1.63-13.38,3.09-20.1,4.45-3,.6-6,1.23-8.95,1.8a76.16,76.16,0,0,1-11.58,1.64c-1.22.06-1.07-.33-.1-.82a13.53,13.53,0,0,1,2-.77,19.13,19.13,0,0,1,2.92-.73c7.74-1.36,15.49-2.88,23.29-4.46,4.67-.95,9.47-2.22,14.18-3.44,5.18-1.36,10.35-2.77,15.45-4.39,3.15-1,6.19-2.1,9.27-3.39a5.34,5.34,0,0,1,.53-.16l.49-.09a8.5,8.5,0,0,1,1-.13c.64-.07,1.27-.08,1.91-.12,1.27,0,2.54,0,3.8,0a61,61,0,0,1,7.52.75c1,.18,1.93.38,2.88.63.48.14.95.31,1.42.46l.71.32.35.17.34.23a8.23,8.23,0,0,1,1.19.94l1.07.94c.72.63,1.44,1.27,2.14,1.93s1.23,1.15,1.83,1.78c2.16,2.37,2.57,3.46,2.52,4.27a2.61,2.61,0,0,1-.06.54c-.2.4-.91-.59-2.45-2.18-1.15-1.19-2.39-2.35-3.67-3.51l-1.95-1.73a9.25,9.25,0,0,0-6.53-2.93c-1.71-.29-3.47-.48-5.23-.61a48.36,48.36,0,0,0-7.8,0c-.33,0-.59.09-.88.13a1.58,1.58,0,0,0-.35.09,2.43,2.43,0,0,0-.36.12l-1.9.79c-1.27.55-2.56,1-3.83,1.44Z"/><path class="cls-1" d="M261,419.09c.42.2.83.4,1.29.67a6.58,6.58,0,0,1,1.2,1c.24.23.51.41.74.64.82.82,1.63,1.65,2.41,2.5.35.38.73.73,1.1,1.08a5.8,5.8,0,0,1,1.31,1.51c.1.2-.16.35-.5.4a1.26,1.26,0,0,1-1-.17A24.32,24.32,0,0,1,264.7,424a15.47,15.47,0,0,0-1.82-1.59l-1-.85-.12-.1-.09-.06s-.15-.08-.22-.13l-.56-.27c-.48-.22-1-.42-1.5-.61-.78-.29-1.55-.6-2.35-.82-.62-.17-1.26-.22-1.9-.33l-.42-.06c-.51-.14-.63-.36-.57-.87,0-.12,0-.24,0-.36a.81.81,0,0,1,.79-.65,11.52,11.52,0,0,1,3.48.7c.86.28,1.7.63,2.55,1Z"/><path class="cls-1" d="M263.23,415.11c.45.25.9.5,1.36.79l.37.23a3.54,3.54,0,0,1,.39.31c.23.2.4.38.59.57s.56.51.81.79q1.31,1.49,2.52,3c.37.45.76.88,1.15,1.3a8.22,8.22,0,0,1,1.4,1.74c.11.22-.15.36-.5.4a1.44,1.44,0,0,1-1.11-.31,27.37,27.37,0,0,1-3-3.24,18.41,18.41,0,0,0-1.91-1.94c-.35-.35-.72-.71-1-1a8.59,8.59,0,0,0-1.18-.69c-.54-.28-1.1-.55-1.66-.81-.85-.38-1.7-.8-2.58-1.12a21.55,21.55,0,0,0-2.1-.54c-.15,0-.31-.06-.46-.11-.55-.18-.67-.39-.62-.91,0-.12,0-.24,0-.36a.79.79,0,0,1,.89-.6,13,13,0,0,1,3.9,1.11c.94.39,1.86.86,2.79,1.33Z"/><path class="cls-1" d="M220.57,449.8a3.4,3.4,0,0,1-1.45-.61,2.44,2.44,0,0,1-.58-.52,2.4,2.4,0,0,1-.43-.56,7.6,7.6,0,0,1-1-2.26,22.94,22.94,0,0,1-.62-4.33c-.07-1-.15-2.07-.15-3.1a106.61,106.61,0,0,1,.75-10.76c.15-1.58.31-3.17.46-4.74a37.19,37.19,0,0,1,.88-6c.15-.61.49-.47.78.1a5.7,5.7,0,0,1,.5,2.75c-.34,4.09-.8,8.15-1.22,12.25a57,57,0,0,0-.16,7.52,34,34,0,0,0,.33,4.06,8.6,8.6,0,0,0,1.16,3.57,3.37,3.37,0,0,0,.32.33c.12.06.2.18.36.21a1.86,1.86,0,0,0,.9.14,3.64,3.64,0,0,0,1.86-1,21.22,21.22,0,0,0,4.11-6.28,57.57,57.57,0,0,0,2.09-5.53c.15-.41.28-.82.44-1.23.69-1.48,1.08-1.92,1.63-2.06a2,2,0,0,1,.37-.09c.35,0,.35.69.13,1.89a28.08,28.08,0,0,1-1.58,5.27,38.38,38.38,0,0,1-2.44,5.22,20.23,20.23,0,0,1-2.62,3.66,8.25,8.25,0,0,1-2,1.59,4.27,4.27,0,0,1-2.91.58Z"/><path class="cls-1" d="M223.14,397.48c-1.59.73-3.2,1.51-4.95,2.12a14.34,14.34,0,0,1-2.8.69,6.11,6.11,0,0,1-3.15-.34,8.6,8.6,0,0,1-3.46-2.65,18.39,18.39,0,0,1-1.92-3c-.53-1-1-2.06-1.46-3.15a47.31,47.31,0,0,1-2-6.56c-.46-2-.88-3.95-1.23-5.91a46.82,46.82,0,0,1-.88-7.64c0-.8.24-.71.58-.07a12.45,12.45,0,0,1,1.09,3.25,108.69,108.69,0,0,0,3.72,14.91,24.54,24.54,0,0,0,2,4.2,15,15,0,0,0,2.7,3.59,5.31,5.31,0,0,0,1.88,1.15,4.53,4.53,0,0,0,2.18.12,20.7,20.7,0,0,0,4.76-1.68c1.95-.88,3.88-1.9,5.95-2.73a15,15,0,0,1,2.45-.8,12.17,12.17,0,0,1,1.28-.21,10.93,10.93,0,0,1,1.27-.13,19.31,19.31,0,0,1,5.09.32,24.26,24.26,0,0,1,7.28,2.74c.49.28,1,.55,1.46.86,1.73,1.22,2.13,1.79,2.14,2.51a1.91,1.91,0,0,1,0,.48c-.11.47-1,.23-2.3-.49a47.6,47.6,0,0,0-5.87-3,17,17,0,0,0-6.29-1.27c-.41,0-.81,0-1.21,0a12.09,12.09,0,0,0-1.21.12,9.77,9.77,0,0,0-2.29.52,44.6,44.6,0,0,0-4.69,2Z"/><path class="cls-1" d="M176.16,354.88q.43,4.49,1,9l.47,3.25c.51,3.83.93,7.67,1.58,11.48.29,1.69.63,3.38,1,5,.27,1,.52,2.12.84,3.15.15.52.27,1.05.4,1.58s.3,1,.44,1.55-.1.68-.58.25a6.41,6.41,0,0,1-1.69-2.54,78.59,78.59,0,0,1-2.87-13.26c-.37-2.68-.89-5.45-1.27-8.18-.42-3-.77-6-1.12-9.06l-.6-5.57c-.16-1.41-.29-2.83-.42-4.24l-.19-2.11-.1-1.07-.1-1.21a10.58,10.58,0,0,1,0-2,1,1,0,0,1,.14-.43.63.63,0,0,1,.38-.28,1.78,1.78,0,0,1,.88.07,5.91,5.91,0,0,1,1,.48,7.57,7.57,0,0,0,.89.42,3.34,3.34,0,0,0,1.26.26,2.06,2.06,0,0,0,.93-.28,9.78,9.78,0,0,0,1.18-.9,1.48,1.48,0,0,1,.87-.35,3.28,3.28,0,0,1,.43,0c.22,0,.31.23.25.61a3.15,3.15,0,0,1-.76,1.51,3.87,3.87,0,0,1-3.49,1.43,6,6,0,0,1-1.78-.51c-.21-.09-.18-.07-.2-.07h0s0,0,0,.06v0h0V343l0,.24.27,2.6c.32,3,.63,6,1,9Z"/><path class="cls-1" d="M189.19,369.3q-1.31-3.27-2.53-6.56c-.31-.8-.66-1.59-.93-2.4-1-2.83-1.91-5.73-2.75-8.63-.37-1.29-.77-2.57-1.12-3.86a21.75,21.75,0,0,1-1-5.08c0-.54.36-.5.81-.11a4,4,0,0,1,1.15,2c.77,3.29,1.8,6.56,2.76,9.9.59,2,1.43,4,2.2,6q1.26,3.29,2.59,6.54c.56,1.33,1.1,2.67,1.68,4,.87,2,1.75,4,2.69,6,.73,1.53,1.57,3,2.37,4.43.18.32.36.63.53,1,.61,1.23.68,1.68.36,2.17a2.7,2.7,0,0,1-.22.33c-.29.29-.83-.07-1.39-.92a65.64,65.64,0,0,1-4.45-8.21c-1-2.15-1.9-4.33-2.82-6.52Z"/><path class="cls-1" d="M198,398.74a2,2,0,0,1-1,.19l-.5,0-.42-.11a10.32,10.32,0,0,1-1.17-.44c-.69-.31-1.37-.64-2-1-.48-.25-1-.43-1.45-.7-1.65-.91-3.27-1.87-4.87-2.83-.72-.43-1.46-.81-2.19-1.19a15.07,15.07,0,0,1-2.7-1.66c-.26-.22-.08-.46.32-.61a2.39,2.39,0,0,1,1.59,0c.5.2,1,.39,1.5.61l1.43.74c.94.5,1.89,1,2.79,1.62a33.21,33.21,0,0,0,3.52,1.79c.65.32,1.29.62,1.94.92a13.83,13.83,0,0,0,1.88.73c.45.16.81-.1,1.06-.87a10.33,10.33,0,0,0,.26-3.8,29,29,0,0,0-.57-3c0-.23-.1-.45-.13-.68-.08-.86.14-1.2.6-1.41a2.08,2.08,0,0,1,.32-.12c.35-.06.65.22.94.8a16.89,16.89,0,0,1,1,5.83A11.45,11.45,0,0,1,200,396a5.33,5.33,0,0,1-.5,1.41,3.39,3.39,0,0,1-.56.78,2.86,2.86,0,0,1-.85.62Z"/><path class="cls-1" d="M158.89,415.23a34.34,34.34,0,0,1-1.41-4.42c-.15-.54-.32-1.08-.42-1.63a44.12,44.12,0,0,1-.66-5.82l-.2-2.56a13.33,13.33,0,0,1,0-3.28c.11-.68,1.76.17,1.88,1.38.21,2.16.32,4.29.4,6.47a20.15,20.15,0,0,0,.73,3.9,30.41,30.41,0,0,0,1.31,4.16,23.24,23.24,0,0,0,1.1,2.45c.32.59.66,1.18,1,1.77s.74,1.13,1.18,1.65.7.77,1.08,1.13l1.17,1c.16.16.36.27.53.42.64.56.72.86.45,1.44-.07.14-.12.28-.19.4-.26.41-.78.45-1.36.1a13.22,13.22,0,0,1-2.4-1.92,17,17,0,0,1-2-2.48,25.7,25.7,0,0,1-2.26-4.16Z"/><path class="cls-1" d="M316.43,444c2.21-3.15,40.42-65.05,40.42-65.05h-6.63L312,437.38s-68.22.69-71.06,1-4.1,6-4.1,6Z"/><path class="cls-1" d="M156.76,481.93a37.31,37.31,0,0,1-4.53-7.75c-.44-1-.89-2-1.26-3-.62-1.8-1.14-3.62-1.58-5.46s-.75-3.7-1-5.56c-.22-1.65-.47-3.31-.64-4.95-.13-1.06-.22-2.12-.3-3.18a28.31,28.31,0,0,1,.07-3.19c.06-.66.36-.57.72,0a7.18,7.18,0,0,1,.95,2.73A116.34,116.34,0,0,0,151,464.13a38.91,38.91,0,0,0,2.36,7.41,37.68,37.68,0,0,0,4,7.51,28.56,28.56,0,0,0,3.38,4,22.56,22.56,0,0,0,6.51,4.41,20.58,20.58,0,0,0,5.84,1.4c.43.07.86.09,1.3.14,1.63.17,2.15.42,2.51.9.08.11.19.21.24.3.16.28-.53.66-1.84.88a24.36,24.36,0,0,1-3,0,20.63,20.63,0,0,1-3-.54,21.47,21.47,0,0,1-5.73-2.41,25.84,25.84,0,0,1-6.9-6.14Z"/><path class="cls-1" d="M181,486.37c-.93-.59-1.85-1.18-2.8-1.68a13.63,13.63,0,0,0-2.8-1.21c-.75-.17-.82,0-1.13.19a.52.52,0,0,0-.12.27,1.72,1.72,0,0,0,.11.65,7.7,7.7,0,0,0,.86,1.65,19.93,19.93,0,0,0,2.7,3.16,26.75,26.75,0,0,0,2.89,2.41c1.29.94,2.63,1.87,3.9,2.74.37.23.24.57-.33.74a3.52,3.52,0,0,1-2.39-.35c-.76-.42-1.5-.86-2.21-1.34s-1.37-1-2-1.58a23.07,23.07,0,0,1-3.62-3.76,12.89,12.89,0,0,1-1.78-2.92,3.44,3.44,0,0,1-.14-2.19,2.33,2.33,0,0,1,.67-1.07,3.09,3.09,0,0,1,.95-.63,3.64,3.64,0,0,1,2.29,0,9.91,9.91,0,0,1,1.74.62,33.48,33.48,0,0,1,3.1,1.6c1.22.69,2.42,1.47,3.58,2.14l5.52,3.09c1.43.79,2.91,1.43,4.32,2.26.32.18.63.33.94.53,1.12.75,1.27,1.28,1.18,1.88a2.45,2.45,0,0,1-.07.42c-.14.4-.8.39-1.74.09a74.1,74.1,0,0,1-7.77-4.15l-2.91-1.69c-.46-.27-1-.59-1.5-.9l-1.43-.89Z"/><path class="cls-1" d="M211.59,482.88s0,0-.06-.05a.57.57,0,0,0-.27,0,5.17,5.17,0,0,0-1.06.41,21.79,21.79,0,0,0-2.32,1.36c-.56.37-1.09.81-1.65,1.19-2,1.37-4,2.75-6.19,4-.95.57-1.89,1.16-2.88,1.68a7.55,7.55,0,0,1-4.24,1.25c-.51-.06-.38-.57-.06-1.08a3,3,0,0,1,1.39-1.31,48.71,48.71,0,0,0,7-3.85c1.46-.84,2.79-2,4.23-3,.79-.56,1.59-1.1,2.44-1.62a11,11,0,0,1,2.86-1.32c.17-.05.39-.06.62-.1a3.05,3.05,0,0,1,.67.07,1.94,1.94,0,0,1,.61.26,2.32,2.32,0,0,1,.54.39,3,3,0,0,1,.83,2.21,8.29,8.29,0,0,1-.69,2.86c-.36.87-.78,1.69-1.2,2.49-.68,1.24-1.28,2.49-2.07,3.66a8,8,0,0,1-.53.76c-.72.92-1.23,1-1.77.82a1.33,1.33,0,0,1-.36-.17c-.33-.25-.28-.75,0-1.48,1.06-2.08,2.4-4.18,3.38-6.3a9.35,9.35,0,0,0,.75-2.24,2,2,0,0,0,0-.73c0-.11-.05-.12-.05-.15Z"/><path class="cls-1" d="M223,490.68a9.7,9.7,0,0,0-2.8-1.54,4.42,4.42,0,0,0-1-.17c-.31-.06-.6,0-.91,0a7.78,7.78,0,0,0-.89.23,9.22,9.22,0,0,0-.89.49l-1,.63c-.58.37-1.13.78-1.65,1.19-.68.52-1.31,1.08-2,1.52-.22.13-.46-.11-.54-.53a1.62,1.62,0,0,1,.35-1.4,12.82,12.82,0,0,1,2.09-1.77l1.1-.74c.38-.23.67-.45,1.2-.72a9.07,9.07,0,0,1,1.81-.75l1-.14a6.24,6.24,0,0,1,1,0,9.75,9.75,0,0,1,3.66,1.47c.65.42,1.27.88,1.88,1.33.9.71,1.75,1.47,2.63,2.16A22.66,22.66,0,0,0,230,493.4c.16.1.32.18.47.28.56.38.64.6.43,1.18-.05.13-.08.26-.14.38a.83.83,0,0,1-1.17.33,17.84,17.84,0,0,1-4-2.72c-.9-.75-1.79-1.49-2.71-2.13Z"/><path class="cls-1" d="M278,489.09l-13.89.77-5.07.31q-8.94.39-17.9.57c-2.65.05-5.32.12-8,.13-1.7,0-3.4,0-5.11-.15-.85-.07-1.7-.16-2.56-.31a7.68,7.68,0,0,1-2.53-.8c-.52-.28-.67-.57-.59-.62s.37,0,.82,0c.92,0,2.49-.18,4.39-.11,6.74.19,13.63,0,20.55-.15,4.15-.07,8.45-.45,12.68-.71l14-.85,8.61-.55,13-.85,10-.84c.73-.05,1.45-.12,2.19-.16,2.74-.13,3.63,0,4.22.64a4.87,4.87,0,0,1,.39.36c.26.34-.85.85-2.83,1-5.88.55-12.11,1-18.37,1.43l-14,.92Z"/><path class="cls-1" d="M318.28,478.16c-1-.33-2-.67-2.91-.92a27.36,27.36,0,0,0-2.94-.6,12.2,12.2,0,0,0-2.08-.06,3,3,0,0,0-1.37.3.93.93,0,0,0-.33.94,7.63,7.63,0,0,0,1.54,3.26,23.91,23.91,0,0,0,2.28,2.66,36.89,36.89,0,0,1,3.11,3.35c.29.42,0,.54-.48.45a4.09,4.09,0,0,1-1.91-.91,32,32,0,0,1-3.41-3.29,13,13,0,0,1-2.69-4.23,5,5,0,0,1-.28-1.79,2.73,2.73,0,0,1,1-1.94,5.46,5.46,0,0,1,3.36-.84,24.74,24.74,0,0,1,6.42,1.21c1.25.38,2.49.78,3.73,1.2a55.13,55.13,0,0,1,5.53,2.24,34,34,0,0,1,4.11,2.13c.28.19.58.35.85.57,1,.81,1.18,1.23,1,1.79a2.11,2.11,0,0,1-.12.38c-.19.38-.79.29-1.54-.15a66.86,66.86,0,0,0-7.07-3.6c-1.86-.79-3.8-1.48-5.79-2.1Z"/><path class="cls-1" d="M361.92,483.78c-3.88.33-7.74.68-11.69.83l-1.1,0a11,11,0,0,1-1.14,0l-.53,0-.43,0a6.41,6.41,0,0,1-1.26-.12,13.15,13.15,0,0,1-3.72-1.52c-1.13-.64-2.18-1.36-3.22-2.09-2.06-1.44-4-3-6.09-4.3a9.3,9.3,0,0,0-2.81-1.29,1.78,1.78,0,0,0-1.2.12c-.29.17-.37.33-.33.76a4.83,4.83,0,0,0,.7,1.7,15.7,15.7,0,0,0,1.16,1.68c.83,1.1,1.74,2.16,2.64,3.23.56.67.23.85-.56.57A8,8,0,0,1,329.2,481a21.26,21.26,0,0,1-1.37-1.83,8,8,0,0,1-1.1-2.25,3.12,3.12,0,0,1-.06-1.69,2.45,2.45,0,0,1,1.32-1.53,3.76,3.76,0,0,1,.78-.26,4.06,4.06,0,0,1,.83-.06,5.11,5.11,0,0,1,1.38.28,17.83,17.83,0,0,1,4,2.26c1.21.85,2.37,1.74,3.52,2.61a34.66,34.66,0,0,0,4.34,2.87,14.55,14.55,0,0,0,2.3,1,6.35,6.35,0,0,0,1.15.27,5.28,5.28,0,0,0,.55,0c.23,0,.21,0,.77,0a37.89,37.89,0,0,0,5.7-.13c1.94-.14,3.89-.31,5.84-.49l7.19-.68,10.9-1c2.81-.27,5.56-.59,8.35-.82l1.84-.13c2.31-.09,3,.14,3.54.6a2,2,0,0,1,.32.33c.21.36-.72.67-2.37.85l-15.34,1.46-11.7,1.11Z"/><path class="cls-1" d="M329.39,443.74q-13.17.17-26.33.46l-9.61.27c-11.28.24-22.57.5-33.85.84-5,.16-10,.37-15,.6-6.37.31-12.78.69-19.15.83-2,.08-1.75-.33-.09-.85a38.08,38.08,0,0,1,8.42-1.32c13-.64,26.06-1.08,39.22-1.3,7.86-.14,16-.49,24.09-.69q13.26-.33,26.54-.55L340,441.8c8.25-.11,16.53-.15,24.72-.18,6.37,0,12.61-.1,18.91,0,1.39,0,2.75.05,4.15.12,5.2.24,6.89.81,7.89,1.5a2.3,2.3,0,0,1,.6.51c.08.12,0,.17-.19.18l-.36,0c-.16,0-.35,0-.57,0-.9-.07-2.35-.13-4.23-.2-5.56-.27-11.33-.27-17.18-.3l-17.72.06c-8.83.07-17.71.17-26.57.33Z"/><path class="cls-1" d="M394.6,467.09c.14-1.87.21-3.76.22-5.65,0-.69-.05-1.38,0-2.07,0-2.45,0-4.91,0-7.36,0-1.09,0-2.19,0-3.28,0-.7,0-1.41.1-2.13a5.43,5.43,0,0,1,.62-2.15c.28-.44.49-.14.62.3a4.69,4.69,0,0,1,.24,1.78c-.12,1.32-.09,2.71-.09,4.11s0,2.81,0,4.23c0,1.71.13,3.48.17,5.23.05,1.93.05,3.86,0,5.79,0,1.19-.12,2.39-.21,3.58a35.26,35.26,0,0,1-.87,5.38,13.55,13.55,0,0,1-1.51,4,7.68,7.68,0,0,1-.62.79c-.91.9-1.49.81-1.83.69-.08,0-.18-.06-.24-.1s.1-.57.46-1.23a9.26,9.26,0,0,0,.79-1.41,14.23,14.23,0,0,0,.65-1.54,25.74,25.74,0,0,0,.9-3.46,45.49,45.49,0,0,0,.66-5.55Z"/><path class="cls-1" d="M412,466.2l-4.28.14c-.52,0-1,.08-1.56.09-1.84,0-3.68,0-5.53-.08l-2.46,0a14.41,14.41,0,0,1-1.6-.08,4.6,4.6,0,0,1-1.6-.4c-.33-.13-.13-.52.24-.87a2.94,2.94,0,0,1,.64-.45,1.77,1.77,0,0,1,.77-.15c2,.14,4.05.2,6.15.37a33.66,33.66,0,0,0,3.88-.09l4.28-.17,2.64-.13c1.33-.08,2.67-.16,4-.26,1-.07,2-.28,3.07-.31.22,0,.44,0,.68,0,.86,0,1.2.29,1.32.57a1,1,0,0,1,.08.2c0,.2-.32.34-.88.52a33.41,33.41,0,0,1-5.53.93c-1.43.11-2.86.18-4.3.28Z"/><path class="cls-1" d="M440,447.35a85.63,85.63,0,0,1-3.43,16.71,43.88,43.88,0,0,1-2.22,5.87,26.89,26.89,0,0,1-1.33,2.48,6.35,6.35,0,0,1-2.43,2.1,24.11,24.11,0,0,1-5.29,1.93,92.8,92.8,0,0,1-10.73,1.9c-3.19.41-6.39.77-9.55,1.08-2,.2-4.06.42-6.1.56s-4.08.22-6.11.28c-1.27,0-1.12-.2-.08-.57a30.27,30.27,0,0,1,5.32-1.24L410.36,477c4.11-.5,8.23-1,12.27-1.86a25.07,25.07,0,0,0,6.93-2.34,5.45,5.45,0,0,0,1.3-1,1.37,1.37,0,0,0,.22-.27,1.92,1.92,0,0,0,.21-.33l.44-.81a36.29,36.29,0,0,0,1.5-3.43,76.53,76.53,0,0,0,4-16.17,48.73,48.73,0,0,0,.55-10.2,10.34,10.34,0,0,0-.26-1.62,3.54,3.54,0,0,0-.23-.64A.7.7,0,0,0,437,438a1.23,1.23,0,0,0-.42-.1l-.26,0-.26.06a3.12,3.12,0,0,0-1.1.54,10.4,10.4,0,0,0-1.94,2.07,32,32,0,0,0-2.94,5.17,90.83,90.83,0,0,0-4.11,11.22l-.78,2.5c-1,3.12-1.44,4.09-2.1,4.64a4.3,4.3,0,0,1-.43.37c-.43.22-.41-1.19.11-3.57a80.18,80.18,0,0,1,3.08-10.67,50.21,50.21,0,0,1,5-10.53,12.87,12.87,0,0,1,2.45-2.85,8.2,8.2,0,0,1,.88-.63,6.21,6.21,0,0,1,1.11-.49,3.83,3.83,0,0,1,1.36-.17,4.29,4.29,0,0,1,1.52.36,3.55,3.55,0,0,1,.94.83,3.37,3.37,0,0,1,.56,1c.1.27.18.54.25.8l.15.75a20.92,20.92,0,0,1,.22,2.79,49.16,49.16,0,0,1-.23,5.32Z"/><path class="cls-1" d="M405.63,458.58l-2.53-.05c-.31,0-.62,0-.93,0-1.09-.07-2.18-.18-3.27-.32-.48-.07-1-.11-1.45-.15l-.95-.11a3,3,0,0,1-.9-.33c-.18-.1,0-.46.23-.79s.62-.63.92-.57c1.12.16,2.29.31,3.5.58a12.8,12.8,0,0,0,2.24.09l2.5,0,1.54,0c.79,0,1.57,0,2.35-.07.61,0,1.21-.17,1.83-.17l.41,0a.91.91,0,0,1,.55.2.57.57,0,0,1,.2.35,1.13,1.13,0,0,1,0,.18c0,.17-.24.33-.55.46a12.35,12.35,0,0,1-3.2.62c-.83.05-1.67.06-2.52.09Z"/><path class="cls-1" d="M422.11,434a6.69,6.69,0,0,1,1.83-1.43,3.83,3.83,0,0,1,.65-.26,5.06,5.06,0,0,1,.78-.12,4.49,4.49,0,0,1,.83.11,5.77,5.77,0,0,1,.77.35,6.41,6.41,0,0,1,.55.49,4.35,4.35,0,0,1,.36.57l.22.51.15.48a10.85,10.85,0,0,1,.28,1.79,26.87,26.87,0,0,1,0,3.36c-.07,1.27-.15,2.53-.34,3.77A76.78,76.78,0,0,1,425,456.47a46.52,46.52,0,0,1-2.15,5.46c-.28.57-.56,1.12-.9,1.68a4.33,4.33,0,0,1-1.45,1.5,4,4,0,0,1-2,.54,9.09,9.09,0,0,1-1.91-.2c-.75-.14-.63-.33,0-.52a10.68,10.68,0,0,0,2.82-.9,3.29,3.29,0,0,0,1-1,16,16,0,0,0,.8-1.51c.51-1.09,1-2.23,1.38-3.38.84-2.31,1.56-4.69,2.22-7.1a54.22,54.22,0,0,0,1.51-9,37.48,37.48,0,0,0,.2-4.22,13.21,13.21,0,0,0-.18-2,2.47,2.47,0,0,0-.55-1.38.94.94,0,0,0-.75-.06,5.6,5.6,0,0,0-2,1.77,20.19,20.19,0,0,0-1.68,2.53,63.75,63.75,0,0,0-4,8.52c-.88,2.28-1.56,4.58-2.26,6.88-.16.51-.31,1-.49,1.51-.65,1.88-1,2.43-1.5,2.72a2.53,2.53,0,0,1-.36.19c-.37.11-.44-.78-.15-2.23a48.18,48.18,0,0,1,1.71-6.49c.71-2.17,1.51-4.34,2.42-6.48a33.93,33.93,0,0,1,5.3-9.26Z"/><path class="cls-1" d="M120.61,366.09c0,8.27,0,16.52.34,24.77l.45,9c.47,10.62,1.06,21.25,1.42,31.89.16,4.72.31,9.47.46,14.16a171,171,0,0,1-.23,18.11c-.14,1.88-.51,1.6-.87,0a27.55,27.55,0,0,1-.49-3.29,38,38,0,0,1-.29-4.68c0-12.24-.72-24.48-1.11-36.86-.24-7.41-.82-15.1-1.18-22.68-.41-8.33-.6-16.7-.63-25,0-5.14,0-10.27.06-15.4.07-7.78.25-15.58.38-23.3.11-6,.08-11.88.25-17.8l.09-3.9c.18-4.88.4-6.43.94-7.45a3.81,3.81,0,0,1,.36-.68c.39-.45.63,1.55.65,5.12,0,5.3.08,10.74,0,16.25s-.18,11.11-.28,16.71c-.13,8.32-.25,16.68-.25,25Z"/><path class="cls-1" d="M111.73,480.84,112,482l.1.53v.06l0,.3c0,.09,0,.3.07.33a1.62,1.62,0,0,0,.12-.26l.16-.36.8-2.15,1.73-4.52c.84-2.14,1.69-4.28,2.75-6.36a23.78,23.78,0,0,1,3.51-5.22,7.61,7.61,0,0,1,2.81-2,4.16,4.16,0,0,1,1.92-.26,4.29,4.29,0,0,1,1.8.69,15.27,15.27,0,0,1,4,4.94c1,1.77,1.91,3.6,2.76,5.44l4.38,9.74c.94,2.05,1.92,4.09,3,6.07a24.91,24.91,0,0,0,3.54,5.46c.44.42.61.64.5.82s-.53.23-1.18,0a6.35,6.35,0,0,1-2.23-1.53,13.89,13.89,0,0,1-2.2-3c-2.27-4.17-4.07-8.45-5.94-12.68-.94-2.11-1.88-4.22-2.88-6.27a36.32,36.32,0,0,0-3.35-5.82,7.23,7.23,0,0,0-.61-.72,4.68,4.68,0,0,0-.66-.61,2.17,2.17,0,0,0-1.3-.58,4.34,4.34,0,0,0-2.92,1.64,27.58,27.58,0,0,0-4.25,7.07c-.94,2.06-1.79,4.18-2.59,6.33L113,487a3.33,3.33,0,0,1-1.27,1.46,3.57,3.57,0,0,1-1-1.89l-1.46-6.92c-.42-1.87-.87-3.74-1.43-5.56a24.14,24.14,0,0,0-1.51-4,3.68,3.68,0,0,0-1.08-1.41,2.54,2.54,0,0,0-1.67-.2,9,9,0,0,0-3.54,1.9,31.92,31.92,0,0,0-3.14,2.91c-3.09,3.25-5.7,6.82-8.55,10.28-.64.77-1.24,1.52-1.92,2.27a14.8,14.8,0,0,1-3,2.67,3.15,3.15,0,0,1-1.79.62A2.37,2.37,0,0,1,81,489c-.2-.12,0-.31.47-.72a23.08,23.08,0,0,0,2-2.12c2.53-2.94,5-6.26,7.61-9.49,1.32-1.63,2.69-3.25,4.17-4.82a27.06,27.06,0,0,1,5-4.39,8.37,8.37,0,0,1,2.58-1.16,4.58,4.58,0,0,1,3.37.34,3.83,3.83,0,0,1,1.37,1.24,8.92,8.92,0,0,1,.73,1.22,18.71,18.71,0,0,1,1,2.35,76.78,76.78,0,0,1,2.43,9.33Z"/><path class="cls-1" d="M191.18,274.63a4.08,4.08,0,0,0,1.32-.18A.72.72,0,0,0,193,274s0,0,0-.06v-.08a5.07,5.07,0,0,0-.5-1.15,22,22,0,0,0-1.36-2.3l-1.52-2.33a17.22,17.22,0,0,0-1.52-1.89,27.27,27.27,0,0,1-2.06-2.35c-.19-.27.05-.44.46-.46a2.19,2.19,0,0,1,1.48.5,28.18,28.18,0,0,1,2.35,2.29,16.52,16.52,0,0,1,1.06,1.29c.16.23.31.46.46.7l.41.65c.69,1.11,1.64,2.11,2.32,3.42a5.3,5.3,0,0,1,.36.86,2.62,2.62,0,0,1-.89,3,4,4,0,0,1-1.62.71,10.7,10.7,0,0,1-2.91.14,41.16,41.16,0,0,1-4.12-.68c-1-.21-2.1-.29-3.14-.52-.23,0-.46-.08-.68-.15-.85-.24-1.05-.59-1-1.17a2.58,2.58,0,0,1,0-.4c.11-.41.53-.63,1.15-.64,1.82.12,3.66.53,5.48.83a22.9,22.9,0,0,0,3.91.39Z"/><path class="cls-1" d="M178.74,265a5.82,5.82,0,0,1-1.56,2.71,4,4,0,0,1-1.59.87,5.2,5.2,0,0,1-1.71.06,9.5,9.5,0,0,1-1.11-.3,7.12,7.12,0,0,1-1-.5,16.2,16.2,0,0,1-4.23-5.06l-1.43-2.41a11.53,11.53,0,0,1-1.48-3.27c-.08-.37.35-.46.87-.34a2.24,2.24,0,0,1,1.43,1c1.08,2,2.25,4,3.51,5.89a7.35,7.35,0,0,0,2.92,2.53,2.33,2.33,0,0,0,1.62.23,2,2,0,0,0,1.17-1.13,8.06,8.06,0,0,0,.63-2.61,20.74,20.74,0,0,0-.07-4.38,27.58,27.58,0,0,0-.75-3.33c-.06-.25-.15-.48-.19-.74-.17-.93.09-1.29.6-1.56a2,2,0,0,1,.36-.18c.4-.13.82.18,1.17.82a20.08,20.08,0,0,1,1.29,6.41,17.65,17.65,0,0,1-.44,5.29Z"/><path class="cls-1" d="M192.36,260.68a8.19,8.19,0,0,1-.4,1.14,5.86,5.86,0,0,1-.31.61,4.12,4.12,0,0,1-.54.7,2.28,2.28,0,0,1-1.62.71,2.91,2.91,0,0,1-1.62-.58,7,7,0,0,1-1.31-1.19,20.17,20.17,0,0,1-2.7-4.87c-.3-.75-.63-1.49-.89-2.26a7.48,7.48,0,0,1-.57-3.09c0-.34.4-.29.78-.06a2.2,2.2,0,0,1,1,1.09c.6,1.78,1.35,3.57,2.16,5.37a10.33,10.33,0,0,0,2.07,2.83,4.56,4.56,0,0,0,.6.55.7.7,0,0,0,.39.17c.29,0,.44-.19.71-.82a10.15,10.15,0,0,0,.57-2.31,25.14,25.14,0,0,0,.26-3.79c0-1-.19-1.95-.26-2.93,0-.22-.06-.43-.07-.64,0-.81.23-1.09.68-1.27.1,0,.18-.1.25-.12s.66.24.87.82a13.57,13.57,0,0,1,.55,2.71,27,27,0,0,1,0,2.85,22.16,22.16,0,0,1-.58,4.39Z"/><path class="cls-1" d="M176.8,291c2.55,1,5.56,2.08,8,.23,1.4-1.05,0-3.44-1.38-2.37-1.81,1.36-4,.24-5.89-.51-1.64-.67-2.35,2-.73,2.65Z"/><path class="cls-1" d="M160.25,246.83c2.32-3.29,7.78-4.28,11.54-4.24a1.63,1.63,0,0,0,0-3.25c-5-.05-11.29,1.52-14.35,5.85-1.2,1.72,1.61,3.34,2.81,1.64Z"/><path class="cls-1" d="M183,241.58a4.44,4.44,0,0,1,4.42,1.16c1.6,1.33,3.91-1,2.3-2.3-2.07-1.73-4.88-3-7.58-2-1.93.74-1.09,3.88.86,3.13Z"/><path class="cls-1" d="M181.1,181.85a22.48,22.48,0,0,0-6,1.08,11.07,11.07,0,0,0-1.47.5l-1.46.55c-.94.44-1.9.86-2.82,1.35l-2,1.13-1.93,1.25a59.2,59.2,0,0,0-6.49,4.92c-1.06.87-2,1.84-3,2.76s-1.94,1.92-2.84,3-1.62,1.82-2.36,2.78-1.48,1.92-2.17,2.91c-1.77,2.54-3.36,5.2-4.93,7.87-.51.81-.82.52-.8-.4a8.76,8.76,0,0,1,1.3-4.07,62.93,62.93,0,0,1,12.31-15,73.43,73.43,0,0,1,9.45-7.32,35.3,35.3,0,0,1,12.25-5,28,28,0,0,1,8.18-.12,24.2,24.2,0,0,1,6,1.6,15.51,15.51,0,0,1,5.22,3.44,10.2,10.2,0,0,1,2.54,4.22,10.73,10.73,0,0,1,.26,4.94,6.22,6.22,0,0,1-.21,1.06,8.86,8.86,0,0,1-.29,1c-.93,2.53-1.62,3.13-2.38,3.31a2.8,2.8,0,0,1-.53.09c-.26,0-.34-.3-.26-.77a14.87,14.87,0,0,1,.63-1.95,11.15,11.15,0,0,0,.64-7.33,9.74,9.74,0,0,0-5-5.41,23,23,0,0,0-11.83-2.35Z"/><path class="cls-1" d="M191.2,236.72a45.29,45.29,0,0,0,16-6.6A28.3,28.3,0,0,0,212,226l.93-1,.84-1.1c.59-.71,1-1.53,1.53-2.3a22.83,22.83,0,0,0,2.14-5.07,18.68,18.68,0,0,0-.3-10.88,14.3,14.3,0,0,0-6-7.48c-.22-.14-.43-.29-.65-.42l-.71-.34a8.24,8.24,0,0,0-4.37-1.05,9.38,9.38,0,0,0-5.66,1.62c-.46.36-.7.51-.85.38s-.13-.53.17-1.11c.54-1.2,2.69-2.79,5.48-2.93a13.15,13.15,0,0,1,3.69.29,8.54,8.54,0,0,1,1.8.65c.53.27,1.07.52,1.6.81a16.44,16.44,0,0,1,5.27,4.86,18.71,18.71,0,0,1,2.87,13.63,25.49,25.49,0,0,1-8,14.72,41,41,0,0,1-16.16,8.69,60.84,60.84,0,0,1-11,2.22,58.15,58.15,0,0,1-17-.8,54.82,54.82,0,0,1-12.47-3.87c-.89-.37-1.72-.82-2.58-1.27-3.15-1.8-3.93-2.73-4.16-3.68a2.87,2.87,0,0,1-.13-.65c0-.29.38-.31,1-.09a24.71,24.71,0,0,1,2.58,1.3,54.91,54.91,0,0,0,21.93,6.72,53.48,53.48,0,0,0,17.46-1.14Z"/><path class="cls-1" d="M247.82,427.35a13.66,13.66,0,0,1-8.25,2.29,22,22,0,0,1-3-.2c-.89-.14-1.76-.32-2.62-.53l-.64-.17c-.14,0-.15-.06-.24,0l-1.18.35c-1.67.48-3.33.92-5,1.43a35.91,35.91,0,0,0-4.24,1.6,37.57,37.57,0,0,0-5,2.77c-.49.32-.67,0-.48-.57a4.29,4.29,0,0,1,1.75-2.18,26.28,26.28,0,0,1,5.58-2.63c1.92-.67,3.86-1.23,5.81-1.72.58-.14,1.16-.31,1.74-.48l.45-.14c.25-.06.49-.24.75-.12l1,.25a33.55,33.55,0,0,0,3.55.56,14.2,14.2,0,0,0,7.54-1.06,9.76,9.76,0,0,0,3.57-3l.53-.73a2,2,0,0,1,.41-.42,1.11,1.11,0,0,1,.56-.14l1.61.06,1.48.07c1,.05,2,.11,3,.19a13.77,13.77,0,0,1,3,.48,2.4,2.4,0,0,1,.47.27l.31.26.54.52c.34.34.69.68,1,1s.57.62.85.95c1,1.25,1.2,1.73,1.16,2.21a1.47,1.47,0,0,1,0,.32c-.09.27-.67-.08-1.55-.84-.66-.56-1.29-1.15-1.94-1.74l-.94-.89L259,425l-.1-.07,0,0h0l.35-.43-.07.07a3.55,3.55,0,0,0-.23.31l-.05.07h0l-.1,0c-.25-.07-.69-.13-1.09-.19l-1.28-.14c-.87-.07-1.76-.12-2.66-.17l-2.92-.11h0l-.13.18c-.25.34-.52.7-.81,1a11.71,11.71,0,0,1-2,1.86Z"/><path class="cls-1" d="M81.41,271.79l.72,49.84.36,18.18,1,64.08c.19,9.48.38,19,.58,28.41q.18,9.06.36,18.15l.1,9.08v4.54c0,1.51-.07,3-.11,4.53-.13,3.77-.5,3.26-1,.08a115.93,115.93,0,0,1-1.32-16c-.61-24.66-1-49.32-1.21-74.2-.12-14.88-.57-30.36-.84-45.58q-.42-25.09-.85-50.21-.22-15.45-.45-30.9c-.2-15.6-.4-31.27-.45-46.77.09-12,0-23.86.16-35.75,0-2.61,0-5.17,0-7.81-.06-9.76-.1-12.87.56-15a12.53,12.53,0,0,1,.42-1.41c.47-1,1.15,3,1.41,10.21.4,10.68,0,21.62,0,32.68,0,5.53-.07,11.11-.11,16.7s0,11.21.1,16.84c.16,16.72.38,33.52.65,50.28Z"/><path class="cls-1" d="M235.31,87.4a28.29,28.29,0,0,1-7.46,8,44.93,44.93,0,0,1-9.37,5.22,74.79,74.79,0,0,1-10.08,3.33c-.86.22-1.72.43-2.58.62l-.44.09-.29,0-.61.1-.32,0c-.1,0,.05,0,.06,0l.14,0a2.75,2.75,0,0,1,.61.16,2.2,2.2,0,0,1,.36.13l.88.41a18.86,18.86,0,0,1,2.77,1.9,17.77,17.77,0,0,1,2.38,2.37l1,1.35a14.94,14.94,0,0,1,.85,1.43,21.73,21.73,0,0,1,2.28,6.69,28.17,28.17,0,0,1,.22,7,39.41,39.41,0,0,1-4,13.12,47.52,47.52,0,0,1-18.41,19.67,54.54,54.54,0,0,1-11,4.94,67.61,67.61,0,0,1-11.67,2.71,71.27,71.27,0,0,1-15.31.51c-1.27-.13-2.55-.22-3.82-.39s-2.54-.33-3.78-.63a62.38,62.38,0,0,1-7.39-2c-3-1.05-2.49-1.15.15-.7.66.11,1.45.26,2.37.37s1.94.31,3.07.4,2.35.28,3.65.37,2.66.3,4.09.38a74.05,74.05,0,0,0,15.18-.29,65.2,65.2,0,0,0,14.73-3.44,50.68,50.68,0,0,0,13.23-7.19,46.39,46.39,0,0,0,10.32-11,41.5,41.5,0,0,0,4.2-8.14,34,34,0,0,0,2.21-8.94,23,23,0,0,0-.94-9,16.3,16.3,0,0,0-4.77-7.47c-.41-.32-.78-.68-1.21-1l-1.32-.83a5.58,5.58,0,0,0-.69-.35c-.35-.15-.78-.38-1.21-.54s-.93-.35-1.48-.49l-1.67-.38-1.16-.65-.26-.15-.1-.07-.19-.14-.38-.28c-.05,0-.14-.08-.17-.15a.74.74,0,0,1,.15-.19,3.31,3.31,0,0,1,1.24-.77,5,5,0,0,1,1.51-.41l1.85-.33c2.82-.54,3.72-.77,5.23-1.14s2.82-.74,4.2-1.18a47.09,47.09,0,0,0,15.36-7.82,23.56,23.56,0,0,0,7.4-9.86,22.9,22.9,0,0,0,1-12.28,23.85,23.85,0,0,0-3.41-8.77,28.59,28.59,0,0,0-6.4-7,40.89,40.89,0,0,0-8.21-4.92,48.49,48.49,0,0,0-9.05-3.14A59.2,59.2,0,0,0,194.17,45a57.42,57.42,0,0,0-14.5,1.78l-1.54.4-1.51.5c-1,.31-2,.7-3,1.08a76.83,76.83,0,0,0-10.82,5.71c-.37.19-.83.48-1.07.57-.42.16-.08-.4.87-1.6a23.69,23.69,0,0,1,5.32-4.6,41,41,0,0,1,12.93-5.11,61.76,61.76,0,0,1,14.07-1.39,63.21,63.21,0,0,1,14.24,1.81,52.89,52.89,0,0,1,13.56,5.29,37,37,0,0,1,8.65,6.79,27.64,27.64,0,0,1,5.83,9.49,26.31,26.31,0,0,1,1.3,5.46,25.91,25.91,0,0,1,.2,5.57,23.62,23.62,0,0,1-3.32,10.67Z"/><path class="cls-1" d="M137.45,136.83c-1.51,2.44-2.91,4.95-4.17,7.52-.64,1.28-1.22,2.59-1.78,3.91-.26.66-.53,1.32-.78,2l-.36,1-.06.16-.08.19-.1.25-.21.49c-.86,1.92-1.57,3.89-2.26,5.86a65.14,65.14,0,0,0-2.76,10.7A90.64,90.64,0,0,0,123.76,180c-.17,3.3-.15,6.63-.13,9.92.05,4.22.2,8.47,0,12.71-.07,2.64-1.52-.69-1.7-5.57-.26-8.62-.52-17.34.76-26.1.37-2.61.87-5.26,1.46-7.91a65.29,65.29,0,0,1,2.34-7.79c.49-1.4,1.1-2.76,1.67-4.12l.18-.43.19-.53.38-1.05c.27-.69.53-1.39.83-2.07a79.63,79.63,0,0,1,3.91-8,100,100,0,0,1,5.82-9.22,89.72,89.72,0,0,1,10.69-12.55,51.39,51.39,0,0,1,10-7.86,27,27,0,0,1,2.51-1.3A13.47,13.47,0,0,1,166.3,107a2.72,2.72,0,0,1,1.76.23,2.26,2.26,0,0,1,.54.31c.2.2,0,.46-.59.74s-1.44.61-2.55,1a29.73,29.73,0,0,0-4.84,2.45,43.36,43.36,0,0,0-4.56,3.22,67.2,67.2,0,0,0-8.28,7.93,95.93,95.93,0,0,0-10.28,13.93Z"/><path class="cls-1" d="M148.48,26.5a47.84,47.84,0,0,0-11.22-.83c-1.38,0-2.75.22-4.12.35a65.63,65.63,0,0,0-14.27,3.15,52.16,52.16,0,0,0-6,2.49c-2.5,1.21-4.88,2.64-7.3,4-.76.42-.88,0-.47-.68a8,8,0,0,1,2.77-2.67A55.92,55.92,0,0,1,124,25.73a82.93,82.93,0,0,1,10.54-1.89,53.52,53.52,0,0,1,11.8.13,45.44,45.44,0,0,1,7.12,1.47,39.74,39.74,0,0,1,10,4.49,34.79,34.79,0,0,1,6.66,5.22,13.73,13.73,0,0,1,1.27,1.37c.37.45.67.83.9,1.16a6,6,0,0,1,.43.93,2.36,2.36,0,0,1,.2,1.19,2.5,2.5,0,0,1,0,.42c-.11.33-.93-.24-2.13-1.35a44,44,0,0,0-11.69-8.8,38.88,38.88,0,0,0-10.6-3.52Z"/><path class="cls-1" d="M139,113.09c.18,1.23.43,2.45.7,3.68.09.45.27.88.38,1.33.37,1.58.77,3.17,1.25,4.75.22.7.49,1.38.77,2.05a10.63,10.63,0,0,1,.93,2.64c.09.59-1.81.51-2.24-.46a30.26,30.26,0,0,1-1.87-5.43c-.25-1.14-.76-2.24-1.1-3.38a37.55,37.55,0,0,1-.94-3.83c-.15-.8-.28-1.6-.4-2.4-.19-1.22-.26-2.46-.38-3.67,0-.48-.09-1-.16-1.42s-.08-1-.11-1.43a4.42,4.42,0,0,1,0-.63c.06-.79.25-1,.83-1.11l.4-.06c.45,0,.79.34.89.88.13.8.28,1.59.38,2.39s.15,1.62.22,2.43c.13,1.21.27,2.44.51,3.66Z"/><path class="cls-1" d="M130.31,110.19c.35.31.72.62,1.1.9.14.1.31.15.45.25a17.21,17.21,0,0,0,1.5,1.08,2.39,2.39,0,0,0,.76.27c.34.07.69,0,.95.32a2.23,2.23,0,0,1-.29,1.17c-.22.51-.56,1-.8.93a4.33,4.33,0,0,1-2.09-1.2,6.11,6.11,0,0,0-1.22-.74c-.43-.29-.85-.6-1.26-.92l-.74-.6c-.39-.29-.74-.63-1.13-.9s-.69-.33-1-.54a1.79,1.79,0,0,1-.24-.12c-.26-.22-.22-.4.18-.84a3.71,3.71,0,0,1,.27-.29,1.26,1.26,0,0,1,.91-.45,3.62,3.62,0,0,1,1.62.79c.37.26.72.57,1.1.84Z"/><circle class="cls-1" cx="240.45" cy="242.04" r="1.9"/><circle class="cls-1" cx="254.16" cy="285.23" r="1.18"/><circle class="cls-1" cx="307.22" cy="275.96" r="1.53"/><circle class="cls-1" cx="225.62" cy="317.41" r="1.89"/><circle class="cls-1" cx="320.25" cy="352" r="1.47"/><path class="cls-1" d="M86.81,196.38c0-1.15.07-2.31.09-3.47v-1.27l.16-4.46c0-.66,0-1.33,0-2a17.8,17.8,0,0,1,0-2.53c.07-.52,1,.14,1,1.11,0,1.72,0,3.44-.16,5.17-.08,1,0,2.12-.06,3.18l-.08,3.5-.07,2.15c0,1.09-.07,2.18-.07,3.26,0,.84,0,1.66.07,2.49v.54c0,.68,0,.9-.22,1.05s-.08.08-.12.09-.25-.21-.3-.71c-.14-1.48-.21-3-.25-4.61l0-3.51Z"/><path class="cls-1" d="M112.85,356.78l-.15-5-.08-1.83c-.07-2.15-.06-4.31-.07-6.46l0-2.86c0-1.22-.06-2.44,0-3.66,0-.75.51.21.55,1.61.06,2.48.14,4.95.15,7.46,0,1.49.08,3.05.12,4.58l.12,5.06.07,3.11.1,4.71.1,3.59,0,.79a3.49,3.49,0,0,1-.15,1.52.64.64,0,0,1-.08.14c-.08.09-.16-.31-.2-1-.11-2.14-.21-4.39-.29-6.66l-.17-5.06Z"/></g></svg>