<svg xmlns="http://www.w3.org/2000/svg" width="520" height="520" viewBox="0 0 520 520"><defs><style>.cls-1{fill:#231f20;}</style></defs><title>Notioly New</title><g id="n.127_Challenge" data-name="n.127 Challenge"><path class="cls-1" d="M156.18,295.38c-.33.55-.67,1.09-1,1.63-.12.2-.21.42-.35.61a19.61,19.61,0,0,1-1.6,1.94c-.25.28-.49.56-.71.86a2.37,2.37,0,0,1-1.08,1c-.15.05-.41-.33-.6-.75s-.33-.89-.18-1c.56-.57,1.12-1.16,1.81-1.75a5.47,5.47,0,0,0,.93-1.33c.32-.51.64-1,1-1.56.18-.33.37-.66.54-1a15.83,15.83,0,0,0,.72-1.57c.14-.43.22-.87.34-1.3a1.33,1.33,0,0,1,.1-.28c.18-.32.37-.37.74-.3l.24.05a.72.72,0,0,1,.49.61,4.4,4.4,0,0,1-.44,2.49c-.25.58-.55,1.15-.84,1.72Z"/><path class="cls-1" d="M285.16,228.68a14.45,14.45,0,0,0-1-2c-.15-.23-.35-.43-.5-.68a29.44,29.44,0,0,0-1.78-2.46,8.71,8.71,0,0,0-1-.94,7.34,7.34,0,0,1-1.29-1.15c-.11-.15.09-.4.4-.57a1.23,1.23,0,0,1,1.08-.11,9.12,9.12,0,0,1,2.79,2.53c.44.61,1,1.16,1.47,1.78a15.81,15.81,0,0,1,1.35,2.18,14.61,14.61,0,0,1,.66,1.45A13,13,0,0,1,288,231c.08.31.14.63.2,1a3.73,3.73,0,0,1,.08,1,2.44,2.44,0,0,1,0,.47.91.91,0,0,1-.37.52,1,1,0,0,1-.59,0,2.27,2.27,0,0,1-.3-.06.94.94,0,0,1-.41-.28,1.14,1.14,0,0,1-.3-.46c-.25-.89-.27-1.6-.5-2.51a10.47,10.47,0,0,0-.7-2Z"/><path class="cls-1" d="M174.1,205.37a11.18,11.18,0,0,1,2.21-2.77l1.14-1.15.18-.19.06-.07c.05,0,.07-.14,0-.15l0,0a.38.38,0,0,0-.14-.06l-.44-.11a6.44,6.44,0,0,0-1,0,14.11,14.11,0,0,0-3.92.93,37.08,37.08,0,0,1-4.11,1.24,7.64,7.64,0,0,1-3.94-.13,3.27,3.27,0,0,1-2.11-1.69,3.55,3.55,0,0,1,0-2.66c.19-.51.46-.32.64.15s.35,1.22.54,1.78a1.85,1.85,0,0,0,1.18,1.13,6,6,0,0,0,2.06.36,17.32,17.32,0,0,0,4.53-1c.94-.29,1.89-.65,2.89-.94a8.16,8.16,0,0,1,3.22-.36,3.35,3.35,0,0,1,.75.16,4.78,4.78,0,0,1,1,.42l.33.31a.61.61,0,0,1,.1.44,1.93,1.93,0,0,1-.42.88,7.93,7.93,0,0,1-.54.6l-.46.48c-.62.63-1.24,1.24-1.78,1.89a3.81,3.81,0,0,0-.87,1.53.54.54,0,0,0,.19.56l.32.28.4.21a7.46,7.46,0,0,0,2.86.6,19.22,19.22,0,0,0,3-.09,39.42,39.42,0,0,0,4.59-.84l1-.25c1.25-.3,1.65-.37,2-.25.07,0,.16.05.21.08s-.3.39-1.2.71a28.89,28.89,0,0,1-8.7,1.77,11.33,11.33,0,0,1-3.53-.35,5.14,5.14,0,0,1-.91-.35c-.15-.09-.3-.15-.44-.25l-.43-.35a1.78,1.78,0,0,1-.63-1.25,2.5,2.5,0,0,1,.24-1.19Z"/><path class="cls-1" d="M213.29,196.52a6.41,6.41,0,0,0,1.69-.88,1.52,1.52,0,0,0,.33-.42c.31-.44-.17-1.26-.75-1.87a6.46,6.46,0,0,0-.87-.78,6,6,0,0,1-1.17-1c-.2-.25.66-.66,1.12-.32a8.19,8.19,0,0,1,2.27,2.34,3.29,3.29,0,0,1,.42,1.08,1.69,1.69,0,0,1-.3,1.23,4.6,4.6,0,0,1-1.88,1.33c-.4.19-.8.35-1.2.52s-.87.37-1,.45l-.16.09s-.11.07,0,.12a1.19,1.19,0,0,0,.35.25l.1.05.16.11a3.31,3.31,0,0,1,.3.25,2,2,0,0,1,.26.24c.3.34.31.54.18.73s-.06.09-.1.12-.32,0-.54-.11-.33-.21-.51-.31-.19-.09-.28-.15l-.13-.09-.25-.19c-.36-.25-.71-.57-.75-.85s.17-.59.36-.84l.15-.08.45-.24.23-.12.14-.07.49-.22,1-.42Z"/><path class="cls-1" d="M203.52,216.89c-.09-.23-.05.2-.2.31a1,1,0,0,1-.14.08h0c-.05-.05-.09-.06-.12-.13l.06-.31a.32.32,0,0,1,.34-.21c0-.07.26.12,0-.07a.93.93,0,1,0-.93,1.6,1.52,1.52,0,0,0,2.13-.31,1.55,1.55,0,0,0-.34-2c-1.1-.94-3.21,0-2.55,1.54a.94.94,0,0,0,1.14.65.93.93,0,0,0,.64-1.14Z"/><path class="cls-1" d="M310.76,384a5.44,5.44,0,0,1,2.77.85c.23.14.12.37-.19.34-.61-.05-1.21-.14-1.82-.17a26.27,26.27,0,0,0-3.51,0,21.11,21.11,0,0,0-4.61,1,32.07,32.07,0,0,0-5.32,2.39,51.38,51.38,0,0,0-9.62,7.16l-2,1.81a71.8,71.8,0,0,0-6.34,6.7c-.33.39-.68.79-1,1.19l-3.11,4-3.14,4.19c-1.65,2.13-3.22,4.33-4.75,6.56-.22.31-.43.67-.66.94a17.22,17.22,0,0,0-1.4,2c-.62,1-1.24,1.94-1.86,2.93l-1,1.42c-.29.42-.26.12-.19-.05.23-.47,0-.13-.11-.12s-.06,0-.06,0l.13-.27.35-.7c.31-.58.71-1.35,1.11-2.13.83-1.57,1.77-3.18,2-3.49l.87-1.4,1.9-3c1.43-2.18,3-4.42,3.31-4.87s.69-.94,1.06-1.39c.08-.11,1.27-1.75,2.51-3.36s2.53-3.2,2.64-3.31a43.1,43.1,0,0,1,3.27-3.61c.23-.22.45-.47.67-.71a69.42,69.42,0,0,1,6.08-5.8c1.08-.93,2.2-1.84,3.34-2.71l.65-.44.81-.55a35.35,35.35,0,0,1,9.1-4.69l1-.31c.46-.13,1-.22,1.61-.33a12.94,12.94,0,0,1,1.65-.22c.5,0,.9-.11,1.13-.1s.81,0,1.35.06S310.53,384.05,310.76,384Z"/><path class="cls-1" d="M368.76,424.38a4.15,4.15,0,0,1,1.36,1.89.26.26,0,0,1-.39.29c-.42-.26-.85-.52-1.26-.8l-.75-.57-1.56-1.05a28.48,28.48,0,0,0-3.3-1.74,19.55,19.55,0,0,0-4.2-1.4,14.43,14.43,0,0,0-4.4-.13,18.19,18.19,0,0,0-4.27,1.27c-.59.31-1.22.55-1.82.88a22,22,0,0,0-5.62,4.3,5.6,5.6,0,0,0-.8.89c-.18.27-1.38,1.58-2.51,3s-2.2,2.95-2.47,3.28c-1.3,1.68-2.48,3.46-3.64,5.25a6.28,6.28,0,0,1-.51.76,8.72,8.72,0,0,0-1.07,1.66l-1.37,2.4c-.23.39-.5.76-.75,1.14s-.28.07-.24-.07c.13-.4-.09-.13-.17-.13s-.07,0-.08,0l.08-.24.21-.58.69-1.79c.51-1.33,1.13-2.68,1.27-2.94l.6-1.17c.36-.68.84-1.59,1.37-2.49,1-1.82,2.24-3.65,2.48-4a12.83,12.83,0,0,1,.86-1.12c.06-.08,1-1.43,2-2.71s2.14-2.53,2.24-2.62c.46-.47.92-.95,1.42-1.39a10,10,0,0,1,1.57-1.24,5.75,5.75,0,0,0,.63-.5,20.82,20.82,0,0,1,6.06-3.39l1.73-.53c.59-.13,1.19-.24,1.79-.35.22,0,.44,0,.66,0l.83,0a17.44,17.44,0,0,1,8.23,1.93c.14.07.42.23.75.43l.55.32.55.42c.74.58,1.49,1.15,1.76,1.4S368.48,424.16,368.76,424.38Z"/><path class="cls-1" d="M227.92,474.89a138.41,138.41,0,0,0-17.23,1.91l-3.11.62-3.09.7c-3.63.79-7.2,1.85-10.87,2.79a112.66,112.66,0,0,1-11.1,2.31,80.76,80.76,0,0,1-10,.93,52.58,52.58,0,0,1-12.83-1.06c-1.3-.28-1-.76.16-1.07a18.34,18.34,0,0,1,5.64-.28,69.29,69.29,0,0,0,12.72-.06,105.43,105.43,0,0,0,12.69-2.15c5-1.1,10.24-3,15.53-4A127.09,127.09,0,0,1,224,473c1.81-.18,3.64-.2,5.45-.31s3.64-.08,5.46-.11c5.51,0,11,.34,16.47.84,4.22.37,8.37.8,12.52,1.4l2.74.41c3.4.62,4.44,1,5.06,1.66a3.18,3.18,0,0,1,.41.43c.25.44-1.2.48-3.69.16-7.37-1-15.13-2-23-2.45a154.62,154.62,0,0,0-17.49-.06Z"/><path class="cls-1" d="M217.44,466.25c-2.78.06-52.24,8.45-45.94,15,2.92,3.07,40.73-5.59,43.72-8.69C216.83,470.93,216.89,468.07,217.44,466.25Z"/><path class="cls-1" d="M183.57,482.62c-2,.27-4,.49-6.12.61a29.88,29.88,0,0,1-3.15,0,12.68,12.68,0,0,1-1.68-.16,6.72,6.72,0,0,1-1-.25,3.07,3.07,0,0,1-1.12-.69,2.9,2.9,0,0,1-.71-3,4.46,4.46,0,0,1,1.52-2,20.2,20.2,0,0,1,5.41-2.79c1.62-.59,3.25-1.09,4.88-1.55s3.26-.94,4.9-1.36c3.27-.85,6.57-1.56,9.88-2.24,2.93-.6,5.87-1.24,8.78-1.8a74.59,74.59,0,0,1,11.35-1.62c.6,0,.9.06.88.17s-.3.28-.77.51-1.15.52-2,.84c-.41.16-.85.33-1.33.49l-.73.24-.78.17c-7.58,1.57-15.19,3-22.79,4.65-2.28.5-4.58,1.08-6.85,1.8a58.66,58.66,0,0,0-6.6,2.57,14.42,14.42,0,0,0-2.83,1.69,2.75,2.75,0,0,0-.77.89.59.59,0,0,0,.15.63c.08.17.75.31,1.39.37a15.4,15.4,0,0,0,2.05.06c1.4,0,2.82-.15,4.23-.3,3.19-.35,6.39-.86,9.56-1.44,4.8-.91,9.62-1.94,14.3-3.24q2.72-.75,5.33-1.7a30.9,30.9,0,0,0,4.93-2.15,2.61,2.61,0,0,0,.43-.33,4.85,4.85,0,0,0,.62-1.05c.5-1.17.66-2.17.94-2.82a2.3,2.3,0,0,1,1-1.31,2.47,2.47,0,0,1,.58-.3c.3-.05.46.24.55.79a8.87,8.87,0,0,1-.11,2.63,7.74,7.74,0,0,1-1.7,3.89,4.93,4.93,0,0,1-1.19.9c-.36.22-.71.39-1.05.56-.69.33-1.37.61-2.06.88-1.37.54-2.76,1-4.16,1.44-2.81.87-5.67,1.61-8.55,2.29q-7.76,1.83-15.69,3Z"/><path class="cls-1" d="M218.77,466.45c2.76-.35,50,1.4,45.82,6.91-2.55,3.39-40.36,1.69-43.76-.95A5.68,5.68,0,0,1,218.77,466.45Z"/><path class="cls-1" d="M252.33,473.69c2,0,4,0,6-.18,1-.08,2-.16,2.93-.32a13.09,13.09,0,0,0,1.36-.27,1.07,1.07,0,0,0,.35-.13.21.21,0,0,0,.1-.27.54.54,0,0,0-.22-.23l-.07,0-.23-.12c-.19-.07-.37-.17-.57-.24-.39-.16-.8-.29-1.22-.42-.83-.26-1.7-.48-2.57-.7-1.54-.38-3.11-.7-4.69-1s-3.18-.48-4.78-.69c-3.2-.41-6.41-.77-9.63-1.06-2.85-.26-5.74-.41-8.58-.54l-5.49-.23c-1.82,0-3.65-.29-5.46-.39-.57,0-.79-.11-.79-.22s.27-.29.75-.47a15.67,15.67,0,0,1,2-.55c.42-.09.87-.18,1.36-.25l.74-.1.78,0A165.5,165.5,0,0,1,247,466.87l6.85,1a60.07,60.07,0,0,1,6.95,1.27c.52.14,1.05.29,1.57.47l.79.29a8.57,8.57,0,0,1,.85.4,3.82,3.82,0,0,1,1.73,1.63,2,2,0,0,1,.11,1.11,2.25,2.25,0,0,1-.5,1,4.67,4.67,0,0,1-.67.5,2.58,2.58,0,0,1-.76.38l-.41.15-.35.11-.58.14c-.78.17-1.55.28-2.31.37-1.52.17-3,.26-4.54.33-3.15.12-6.3.1-9.43,0-4.75-.11-9.51-.41-14.21-.79-1.83-.15-3.65-.29-5.46-.47-.91-.1-1.82-.2-2.74-.35a14.86,14.86,0,0,1-2.84-.67,5.77,5.77,0,0,1-3.49-5.4,1.89,1.89,0,0,1,.78-1.53,2.81,2.81,0,0,1,.56-.33c.3-.07.47.22.62.71a17.62,17.62,0,0,0,.58,2,4.18,4.18,0,0,0,1,1.52,3.18,3.18,0,0,0,.69.54l.09,0,.19.06a3.81,3.81,0,0,0,.47.14,38.61,38.61,0,0,0,4.67.76c3.26.38,6.63.66,10,.88,5,.33,10.08.55,15.1.51Z"/><path class="cls-1" d="M165.62,281.25S187,416.81,187.91,421.57s10,47.19,10,47.19l20.82-2.31s15.24-2.44,17.72-.81c0,0-1.92-114.16-4-128.48l-5-58a103.12,103.12,0,0,1-22.9,8.21C190.37,290.76,165.62,281.25,165.62,281.25Z"/><path class="cls-1" d="M132.46,141.5s-5.38,3.72-6.69,3.64-.89,4.72,5.46,5.28a16.42,16.42,0,0,0,9.58-6.24S131.9,144.57,132.46,141.5Z"/><path class="cls-1" d="M128,127.23s.88-4.92,7.11-3.23,9.37,8.59,12.06,8.09c0,0,5.72,0,4.78-1.65s-9-12-8.48-21.91c0,0-.75-6.85,2.24-11,0,0,34.8-2.92,43.31-8.09C225.64,67.1,201.54,41.17,199.3,39c0,0-5.44,7.7-11.24,10.74,0,0-22.28-10.12-35.94.66a38.4,38.4,0,0,0-14.79,26.51s-14.23-.44-20.58,4.14c0,0-10,6-11,16.43S111.24,122.85,128,127.23Z"/><path class="cls-1" d="M196.27,165.94a22.21,22.21,0,0,1-7.35,1.69,32.93,32.93,0,0,1-7.37-.53l-2.61-.56c-.86-.24-1.73-.44-2.56-.74a45.73,45.73,0,0,1-8.47-3.89,65.52,65.52,0,0,1-7.53-5.35,53,53,0,0,1-6.06-5.55,28.87,28.87,0,0,1-3.21-4.21A16.3,16.3,0,0,1,149,142c-.27-1.07.07-1,.8-.34.36.34.84.82,1.4,1.38a18.59,18.59,0,0,1,1.56,2.07,32.24,32.24,0,0,0,3.05,4,41.42,41.42,0,0,0,3.54,3.6,84.29,84.29,0,0,0,8.1,6.39,39.24,39.24,0,0,0,11.48,5.09,27.28,27.28,0,0,0,13.59.6,16.49,16.49,0,0,0,7.28-3.87,13.69,13.69,0,0,0,3.33-5.25,20.56,20.56,0,0,0,1.06-6.3,80.22,80.22,0,0,0-.73-10c-.07-.75-.16-1.47-.21-2.23-.06-2.81.17-3.73.54-4.34a2.66,2.66,0,0,1,.24-.39c.27-.26.51.86.94,2.84.34,1.47.61,3,.87,4.5l.4,2.32c.11.79.18,1.58.25,2.38a33.72,33.72,0,0,1-.47,10,16.62,16.62,0,0,1-3.4,7.06,17,17,0,0,1-6.31,4.61Z"/><path class="cls-1" d="M203.62,125.68a8,8,0,0,0-1.61-2.54,24.51,24.51,0,0,0-2.46-2.42c-.65-.56-1.36-1-2-1.6-2.39-1.93-4.92-3.78-7.37-5.77-1.09-.89-2.2-1.76-3.24-2.72a11.92,11.92,0,0,1-1.87-2.06,5.35,5.35,0,0,1-1-2.75c0-.65.39-.51.85-.13a12.4,12.4,0,0,1,1.61,1.5,25.43,25.43,0,0,0,3.62,3.44l4.2,3.29c1.69,1.36,3.64,2.52,5.44,3.88a24.35,24.35,0,0,1,5.48,5.31,7.69,7.69,0,0,1,1.07,2.36l.13.7a3,3,0,0,1-.07.84,3.17,3.17,0,0,1-.72,1.36,7.12,7.12,0,0,1-3.3,2,13.41,13.41,0,0,1-3.59.59,15.79,15.79,0,0,1-5.54-.74c-.4-.13-.78-.27-1.17-.44-1.38-.72-1.63-1.26-1.5-2a3.22,3.22,0,0,1,.11-.49c.21-.51.91-.49,1.84-.2a18.67,18.67,0,0,0,4.09,1,13.76,13.76,0,0,0,4.11-.16,6.83,6.83,0,0,0,2.55-1,1.9,1.9,0,0,0,.49-.49s0,0,0-.16a2.18,2.18,0,0,0-.14-.56Z"/><path class="cls-1" d="M199.08,109.77a11.72,11.72,0,0,1,0,2.45,4.57,4.57,0,0,1-1.05,2.67,3.42,3.42,0,0,1-2,1.09,5.37,5.37,0,0,1-3.25-.78,14.77,14.77,0,0,1-2.4-1.71l-1.92-1.65a12.28,12.28,0,0,1-2.18-2.32c-.19-.28.06-.47.49-.5a2.3,2.3,0,0,1,1.53.42c1.63,1.35,3.15,2.76,4.78,3.88a4.29,4.29,0,0,0,1.56.65,2.51,2.51,0,0,0,1.38-.09c.79-.21,1.06-1.52,1-2.87a16.44,16.44,0,0,0-.41-2.53,35.68,35.68,0,0,0-1.12-3.84c-.36-1-.87-1.89-1.27-2.87-.08-.22-.17-.44-.23-.67-.25-.87-.07-1.28.41-1.53a2.73,2.73,0,0,1,.31-.14.67.67,0,0,1,.52.12,1.36,1.36,0,0,1,.52.52l.71,1.17c.2.41.4.84.59,1.28q.57,1.33,1,2.76a25.34,25.34,0,0,1,1,4.47Z"/><path class="cls-1" d="M182.53,119.62a5.69,5.69,0,0,1-1.5,3.21,4.81,4.81,0,0,1-1.58,1,6,6,0,0,1-1.67.35,7.16,7.16,0,0,1-2.32-.15,9.8,9.8,0,0,1-3.43-1.67,18.77,18.77,0,0,1-2.71-2.38c-.72-.77-1.45-1.52-2.1-2.33a14,14,0,0,1-2.21-3.32c-.17-.38.13-.48.59-.35a3.28,3.28,0,0,1,1.52,1,44.19,44.19,0,0,0,5.45,5.25,7.93,7.93,0,0,0,4,1.66,4,4,0,0,0,2.1-.23,2.22,2.22,0,0,0,1.26-1.38,6.92,6.92,0,0,0,.28-2.92,23,23,0,0,0-1-4.78c-.37-1.23-.92-2.38-1.38-3.61a4.4,4.4,0,0,1-.28-.82c-.22-1.09,0-1.56.53-1.84a1.47,1.47,0,0,1,.36-.17.63.63,0,0,1,.58.17,1.88,1.88,0,0,1,.59.69,17,17,0,0,1,1.41,3.14,33.09,33.09,0,0,1,1.08,3.53,17.09,17.09,0,0,1,.49,5.94Z"/><path class="cls-1" d="M130.88,122.15a9.19,9.19,0,0,1,8.6.86,27.85,27.85,0,0,1,2.94,2.76,30.31,30.31,0,0,0,2.68,2.44,11.76,11.76,0,0,0,2.08,1.36,4.81,4.81,0,0,0,2.07.61,2.81,2.81,0,0,0,.82-.06c.31-.13.39-.11.48-.19s.23-.12.19-.25a1.4,1.4,0,0,0-.14-.38c-.68-1.34-1.58-2.74-2.39-4.15a55.23,55.23,0,0,1-4.39-8.85,29.41,29.41,0,0,1-2-8.63,16.59,16.59,0,0,1,3-10.82c.71-.94.84-.63.63.36s-.62,2.71-1.06,4.63a21.26,21.26,0,0,0,.39,10.41,48.49,48.49,0,0,0,4.31,10c1,2,2.33,3.81,3.54,6a3.1,3.1,0,0,1,.46,2.62,7.41,7.41,0,0,1-1,.91,3.66,3.66,0,0,1-1.16.62,5.9,5.9,0,0,1-4.2-.26c-2.68-1.15-4.54-3.09-6.35-4.91l-1.32-1.37c-.22-.21-.42-.36-.63-.55a2.84,2.84,0,0,0-.67-.48,6,6,0,0,0-3.14-1,7,7,0,0,0-6.76,4.06,6.21,6.21,0,0,0-.39,3.12l.28,1.67.52,1.6a10,10,0,0,0,4.17,5,10.93,10.93,0,0,0,9.79.38l1-.44,1-.57a13.58,13.58,0,0,0,1.49-.95c.41-.27.79-.42,1.06-.61a3.51,3.51,0,0,1,1.39-.5,4.32,4.32,0,0,1,.53-.07c.22,0,.16.27-.13.77a7.42,7.42,0,0,1-1.67,2c-.33.27-.66.55-1,.81l-1.12.69a16.12,16.12,0,0,1-2.4,1.16,14.16,14.16,0,0,1-5.44.82,12.37,12.37,0,0,1-5.48-1.61,12.78,12.78,0,0,1-4.16-4c-.37-.62-.67-1.27-1-1.91s-.46-1.35-.68-2l-.37-2.08a8.53,8.53,0,0,1,0-2.31,8.21,8.21,0,0,1,1.91-4.21,9.73,9.73,0,0,1,3.68-2.61Z"/><path class="cls-1" d="M192.73,44.45a25.64,25.64,0,0,0,3.5-4.4c.53-.81,1-1.64,1.56-2.52l.22-.34.27-.41a5.9,5.9,0,0,1,.88-1,2.45,2.45,0,0,1,1.1-.58,2.29,2.29,0,0,1,1.22.1l.86.5.77.67a12.24,12.24,0,0,1,.86,1,19.83,19.83,0,0,1,1.38,2,33.88,33.88,0,0,1,2.14,4.2,40,40,0,0,1,2.57,9,34.83,34.83,0,0,1,.16,11.3,31,31,0,0,1-3.13,9.48,29.59,29.59,0,0,1-2.66,4.21,38.42,38.42,0,0,1-3.18,3.79A45,45,0,0,1,185,92.08a80.49,80.49,0,0,1-16.64,4.48A116.14,116.14,0,0,1,146.47,98c-2.28-.05-2-.42-.06-.83A89.59,89.59,0,0,1,156,96a114,114,0,0,0,21.67-3.57c1.73-.57,3.51-1,5.18-1.74.85-.33,1.71-.63,2.54-1l2.47-1.16a43.31,43.31,0,0,0,9.08-5.94c.41-.36.85-.68,1.24-1.07l1.14-1.17,1.15-1.19c.39-.38.68-.86,1-1.28.65-.89,1.39-1.73,2-2.67a29.28,29.28,0,0,0,1.66-2.87,29.82,29.82,0,0,0,3.08-12.81,35.85,35.85,0,0,0-1.79-11.83,35,35,0,0,0-2.32-5.54,22.07,22.07,0,0,0-1.55-2.52,11.23,11.23,0,0,0-.89-1.12l-.23-.26-.13-.12a1.64,1.64,0,0,0-.26-.2.35.35,0,0,0-.51.07,2.11,2.11,0,0,0-.19.23l-.09.13-.17.27-1.41,2.31a26.59,26.59,0,0,1-6.29,7.22,22.9,22.9,0,0,1-2,1.38l-1.06.61-.76.39-.37.2s-.06,0-.1,0l-.1,0-.19-.09-2.38-1.1c-.7-.31-1.42-.57-2.12-.85a40.54,40.54,0,0,0-6.63-1.93c-1.12-.26-2.26-.38-3.4-.54S171,46,169.81,46A30.1,30.1,0,0,0,142,63.35c-.34.69-.62,1.39-.94,2.08s-.56,1.4-.81,2.13c-.94,2.7-1.32,4.55-1.7,5.83-.16.65-.32,1.16-.47,1.59a7.47,7.47,0,0,1-.42,1.07,8.46,8.46,0,0,1-.4.8c-.2.28-.33-.19-.42-1.28a23.14,23.14,0,0,1,.28-5,33.94,33.94,0,0,1,3.29-9.5,33.59,33.59,0,0,1,6.2-8.28,32.6,32.6,0,0,1,18.88-9,36.8,36.8,0,0,1,7.92-.09,44.85,44.85,0,0,1,7.73,1.55c1.25.41,2.51.79,3.71,1.3.61.25,1.23.46,1.81.74l.89.41.45.21h0s0,0,.07,0l.08,0,.38-.22c.51-.28,1-.6,1.48-.93a19,19,0,0,0,2.67-2.24Z"/><path class="cls-1" d="M110.5,88.46a23,23,0,0,0-3.45,11.26c0,.73,0,1.46,0,2.19l.25,2.17a25.28,25.28,0,0,0,2.29,7.36,19,19,0,0,0,.91,1.73l1,1.65a27.75,27.75,0,0,0,2.49,3,27,27,0,0,0,5.44,4.38c2.57,1.56,5.34,2.68,8.06,4,.83.48.6.85-.35,1.09a6.35,6.35,0,0,1-1.89.2,7.44,7.44,0,0,1-1.2-.13,8.46,8.46,0,0,1-1.26-.42c-.75-.33-1.52-.62-2.25-1l-2.17-1.17a20.63,20.63,0,0,1-2.06-1.39c-.34-.24-.68-.47-1-.73l-.94-.81a26.65,26.65,0,0,1-6.28-7.72,29.64,29.64,0,0,1-3.62-11.54,13.49,13.49,0,0,1-.07-1.68c0-.55,0-1.11,0-1.67a26.25,26.25,0,0,1,.41-3.31,25,25,0,0,1,2-6.33A24,24,0,0,1,111.58,83,24.61,24.61,0,0,1,122,76.7a32.13,32.13,0,0,1,9.22-1.52c.68,0,1.36,0,2,.08,2.58.16,3.31.77,3.74,1.35a2.69,2.69,0,0,1,.28.4c.08.2-.15.34-.62.46a6.26,6.26,0,0,1-2.08.16,30.29,30.29,0,0,0-15.48,2.84,21.84,21.84,0,0,0-8.55,8Z"/><path class="cls-1" d="M131.2,151.78a8.25,8.25,0,0,1-5.2-1.88,6.88,6.88,0,0,1-1.43-1.47,10.6,10.6,0,0,1-.86-1.59,2.54,2.54,0,0,1-.13-.48c0-.22-.12-.44-.15-.65a1.94,1.94,0,0,1,.15-1.17,2.23,2.23,0,0,1,.84-.83,5.69,5.69,0,0,1,.56-.26,2.46,2.46,0,0,1,.29-.09l.21-.05c.54-.13,1-.22,1.53-.33a6.82,6.82,0,0,0,2.32-.91,5,5,0,0,0,1.1-1,9.67,9.67,0,0,0,.94-1.19c.19-.27.53-.15.8.29a2,2,0,0,1,0,2,6.48,6.48,0,0,1-3.41,2.53,13,13,0,0,1-1.83.51l-.81.18c-.16,0-.18,0-.21,0h-.13a.22.22,0,0,0-.22.2c0,.15,0,.06.1.44a3.75,3.75,0,0,0,.9,1.57,5.5,5.5,0,0,0,3.6,1.83,7.5,7.5,0,0,0,2.66-.18,12.17,12.17,0,0,0,2-.65,12,12,0,0,0,1.84-1.06,10.71,10.71,0,0,0,1.26-1.06l1.13-1.2c.15-.18.28-.39.45-.56a1.82,1.82,0,0,1,.83-.53,1.46,1.46,0,0,1,.78.14c.12.06.25.1.36.16a.57.57,0,0,1,.27.53,1.55,1.55,0,0,1-.21.91,11.56,11.56,0,0,1-5.05,4.52,12.08,12.08,0,0,1-5.29,1.34Z"/><path class="cls-1" d="M198,203a26.84,26.84,0,0,1-8.55-1.74l-1.48-.53c-.48-.19-1-.41-1.43-.62a49.18,49.18,0,0,1-9.28-5.77l-1.87-1.53-1.82-1.57a20.11,20.11,0,0,1-4.07-4.65c-.34-.54-.06-.63.53-.42a8.35,8.35,0,0,1,2.35,1.45,76.52,76.52,0,0,0,9.39,7.64,34,34,0,0,0,6.61,3.45,28.51,28.51,0,0,0,7.85,2.09,15.83,15.83,0,0,0,2.48.1,7.19,7.19,0,0,0,1.22-.11c.4-.06.82-.09,1.21-.18a4.71,4.71,0,0,0,2.92-1.67,3.79,3.79,0,0,0,.49-3.2,8.4,8.4,0,0,0-1.13-2.55,22.13,22.13,0,0,0-1.69-2.32l-.83-1c-.25-.31-.47-.57-.62-.8a2.88,2.88,0,0,1-.31-.65,1.43,1.43,0,0,1,0-1,2.29,2.29,0,0,1,.15-.42c.22-.38.95-.12,1.91.67a20.69,20.69,0,0,1,3.49,4.54,10.89,10.89,0,0,1,1.17,3,6.1,6.1,0,0,1-.15,3.62,5,5,0,0,1-.67,1.28,7.75,7.75,0,0,1-.93,1,6.65,6.65,0,0,1-2.33,1.31,11,11,0,0,1-1.19.31l-1.15.15c-.38,0-.76.11-1.14.13H198Z"/><path class="cls-1" d="M114.61,269l-.6-1.51-.16-.37c0-.14-.1-.32-.14-.47a7,7,0,0,1-.22-.94,15.57,15.57,0,0,1-.09-3.46,43.06,43.06,0,0,1,1-6.41,108.8,108.8,0,0,1,3.66-12.17c1-2.89,2.11-5.78,3.33-8.6a168.06,168.06,0,0,1,15.5-28.48,93.22,93.22,0,0,1,9-11.29,40.32,40.32,0,0,1,7.1-6,16.61,16.61,0,0,1,9-2.93c2,.13,1.61.62.06,1.07-.78.27-1.82.62-3,1.14a38.91,38.91,0,0,0-3.94,2.05,35.65,35.65,0,0,0-7,5.58,71.75,71.75,0,0,0-6,6.88,140,140,0,0,0-10.19,15.47,156.36,156.36,0,0,0-9.71,20.63c-1.53,3.89-2.94,7.84-4.13,11.84-.59,2-1.12,4-1.56,6.05a35.61,35.61,0,0,0-.82,6.09,12.13,12.13,0,0,0,.06,1.82,7,7,0,0,0,.15.84,5.55,5.55,0,0,0,.29.83l.71,1.76c.26.58.55,1.15.82,1.73a58.66,58.66,0,0,0,3.81,6.66,103.13,103.13,0,0,0,15,17.89c1.19,1.14,2.41,2.22,3.64,3.28l1.88,1.53,1.85,1.41a.59.59,0,0,0,.46.11s.2,0,.33-.07a3.7,3.7,0,0,0,.4-.13,9.61,9.61,0,0,0,1.67-.83,21.15,21.15,0,0,0,3.1-2.36,23.85,23.85,0,0,0,2.57-2.75,22,22,0,0,0,2.65-4.12,15.64,15.64,0,0,1,1.07-2,7.14,7.14,0,0,1,.4-.66c.2-.25.43.14.47,1.12a9.32,9.32,0,0,1-1.09,4.27,21.48,21.48,0,0,1-4.89,6.25,20.8,20.8,0,0,1-3.28,2.46,10.71,10.71,0,0,1-2,1,4.87,4.87,0,0,1-.61.18,1.7,1.7,0,0,1-.34.07l-.47.06a3.51,3.51,0,0,1-.92-.11,1.08,1.08,0,0,1-.43-.17,3.23,3.23,0,0,1-.41-.22l-1.91-1.48-1.76-1.47c-1.16-1-2.32-2-3.43-3.06q-3.36-3.15-6.45-6.61a101,101,0,0,1-8-10.05,64.12,64.12,0,0,1-6.44-11.26Z"/><path class="cls-1" d="M142.9,253.07c1-2,2.17-4,3.3-6,.42-.71.8-1.45,1.24-2.16,1.55-2.48,3.19-4.91,5-7.23.76-1.06,1.59-2.07,2.35-3.11l1.59-1.93a16.49,16.49,0,0,1,1.83-1.72c.41-.33.65,0,.64.66a3.21,3.21,0,0,1-.88,2.11c-2.14,2.44-4.08,5.09-6.08,7.77A22.33,22.33,0,0,0,150.2,244c-.53.88-1,1.78-1.53,2.68-1.12,1.95-2.19,3.94-3.21,5.95-.64,1.23-1.24,2.49-1.83,3.74-.87,1.92-1.76,3.84-2.48,5.81a47.7,47.7,0,0,0-1.35,4.62c-.09.34-.16.68-.26,1-.4,1.24-.68,1.59-1.34,1.7a3.56,3.56,0,0,1-.44.06c-.47,0-.68-.63-.57-1.63a36.77,36.77,0,0,1,2.73-8.69c.89-2.11,1.91-4.18,2.93-6.24Z"/><path class="cls-1" d="M154.87,288.68c-1.73-1.74-3.44-3.49-5.12-5.28-.61-.65-1.27-1.26-1.86-1.93a78.48,78.48,0,0,1-5.95-7.39c-.8-1.16-1.63-2.3-2.37-3.51a22.15,22.15,0,0,1-1.33-2.39,8.43,8.43,0,0,1-.68-2.72c-.05-.59.29-.53.74-.16a8,8,0,0,1,1.55,1.81,62.59,62.59,0,0,0,5.87,8.69,54.93,54.93,0,0,0,4.38,5c1.66,1.78,3.36,3.54,5.09,5.26,1.06,1.06,2.13,2.12,3.23,3.16,1.65,1.57,3.31,3.15,5,4.64,1.33,1.16,2.72,2.19,4.09,3.28.3.24.61.46.9.71,1.08.95,1.29,1.4,1.15,2a3.14,3.14,0,0,1-.08.38c-.12.34-.86.29-1.75-.29a70.76,70.76,0,0,1-7.54-6.13c-1.82-1.65-3.6-3.36-5.38-5.07Z"/><path class="cls-1" d="M238.26,218c-2.23-3.43-4.38-6.9-6.61-10.28-.81-1.24-1.7-2.42-2.52-3.64a63.46,63.46,0,0,0-9.93-11.81,28.4,28.4,0,0,0-2.7-2.07,23.54,23.54,0,0,0-3-1.6,25,25,0,0,0-8.28-2c-.9-.09-.82-.48,0-.88a7.27,7.27,0,0,1,1.68-.59,9.48,9.48,0,0,1,2.47-.06,20.73,20.73,0,0,1,8.82,3.69,35.53,35.53,0,0,1,6.86,6.43c2.37,2.86,4.75,5.87,6.89,9,2.34,3.4,4.54,6.88,6.78,10.31,1.38,2.11,2.76,4.21,4.21,6.26a79.55,79.55,0,0,0,7.05,8.91,43.6,43.6,0,0,0,6.52,5.6c.51.36,1,.71,1.55,1s.89.59,1.21.83a7.76,7.76,0,0,1,.82.59,2.24,2.24,0,0,1,.69,1.06,4,4,0,0,1,.13.49c0,.23-.23.31-.7.25a6.78,6.78,0,0,1-2-.62,32.57,32.57,0,0,1-6.86-4.63,52.55,52.55,0,0,1-5.81-6.12c-2.65-3.23-5-6.66-7.32-10.1Z"/><path class="cls-1" d="M272.86,252.87a51.49,51.49,0,0,1-5.77,4.57,22.43,22.43,0,0,1-6.81,3.25,13,13,0,0,1-2.87.41c-.48,0-1,0-1.42-.06s-.94-.13-1.4-.2a22.85,22.85,0,0,1-8.67-4.14,51.39,51.39,0,0,1-6.94-6.3c-1.9-2-3.7-4.09-5.45-6.17-1.12-1.34-2.27-2.65-3.34-4a42.37,42.37,0,0,0-3.31-3.88c-.72-.59-.57-.86.44-.6a10.61,10.61,0,0,1,3.93,2.76c4.85,5.26,9.1,10.84,14.39,15.41,3.16,2.67,7.11,4.85,11.19,5a9,9,0,0,0,3.24-.39,16.48,16.48,0,0,0,3.16-1.28,35.76,35.76,0,0,0,5.81-4,67.45,67.45,0,0,0,6.39-6A116.75,116.75,0,0,0,284,237c2.05-2.77,3.88-5.62,5.7-8.51l1.17-1.91c1.5-2.36,2.22-3,3-3.2.17-.05.35-.16.47-.18s.19.22.11.77a7.8,7.8,0,0,1-.83,2.27,108.21,108.21,0,0,1-10.78,15.88,100.34,100.34,0,0,1-10,10.79Z"/><path class="cls-1" d="M285.2,207.7c0,1.7,0,3.42-.07,5.23a4.61,4.61,0,0,1-.31,1.67,10,10,0,0,1-.69,1.35,23.77,23.77,0,0,1-1.62,2.24c-.83,1-1.66,2-2.56,2.95a92,92,0,0,1-10.23,8.93c-1.6,1.22-3.21,2.44-4.84,3.58a23.77,23.77,0,0,1-6.81,3.64c-.79.2-.75,0-.28-.62a10.52,10.52,0,0,1,2.53-2.29,127.73,127.73,0,0,0,12.36-9.06,61,61,0,0,0,6.75-6.61,25.58,25.58,0,0,0,3.07-4,5.31,5.31,0,0,0,.47-1,2.23,2.23,0,0,0,.08-.45l0-.63V210c0-1.09,0-2.18.1-3.29a10.21,10.21,0,0,1,.24-1.74,6.41,6.41,0,0,1,.72-1.66,22.71,22.71,0,0,1,3.14-4,48.39,48.39,0,0,1,3.62-3.41,32.57,32.57,0,0,1,6.23-4.48,6,6,0,0,1,1.76-.61,3.06,3.06,0,0,1,1,0,4.15,4.15,0,0,1,.47.2,2.62,2.62,0,0,1,.35.3,2,2,0,0,1,.36.71c0,.24.05.45.06.64a2.72,2.72,0,0,1-.25.68,1.77,1.77,0,0,1-.37.36,3.56,3.56,0,0,1-.29.23c-.13.07-.2-.12-.31-.49-.06-.2-.1-.4-.15-.62a.55.55,0,0,0-.19-.33c-.1-.19-1.24.2-2.11.72a25.51,25.51,0,0,0-2.72,1.84,53.44,53.44,0,0,0-5.1,4.56,31.09,31.09,0,0,0-3.24,3.82,7.29,7.29,0,0,0-1,1.91,11.19,11.19,0,0,0-.19,2.32Z"/><path class="cls-1" d="M305.11,211.05a10.49,10.49,0,0,1-4.49,1.88,3.15,3.15,0,0,1-1.11-.08,1.62,1.62,0,0,1-1.06-.8,1.93,1.93,0,0,1,0-1.19,4.37,4.37,0,0,1,.34-.8,11.64,11.64,0,0,1,.84-1.27,21.25,21.25,0,0,1,1.94-2.18c.61-.6,1.22-1.2,1.85-1.77a11.84,11.84,0,0,1,1.28-1,3.58,3.58,0,0,1,1.6-.73c.23,0,.36.12.31.17s-.16.11-.26.23a9.32,9.32,0,0,1-.91,1,58.25,58.25,0,0,0-4.41,4.6,7.54,7.54,0,0,0-1.06,1.56,2.23,2.23,0,0,0-.16.4.77.77,0,0,0-.06.21.23.23,0,0,0,.16.26,1.41,1.41,0,0,0,.68,0,3.71,3.71,0,0,0,.93-.26,10.63,10.63,0,0,0,1.82-1,15.43,15.43,0,0,0,2.05-1.67,12.09,12.09,0,0,0,2.47-3.08,3.45,3.45,0,0,0,.38-1.32c0-.41-.1-.57-.29-.69a.25.25,0,0,0-.13,0,.58.58,0,0,0-.17,0c-.52-.1-.8-.24-.95-.83,0-.13-.1-.27-.13-.4a.59.59,0,0,1,.2-.58,1.14,1.14,0,0,1,.89-.29,3,3,0,0,1,1,.17l.56.29a5,5,0,0,1,.5.43,4.65,4.65,0,0,1,.37.57l.21.66,0,.67c0,.19,0,.37-.06.55a7.67,7.67,0,0,1-1.6,3.16,16.32,16.32,0,0,1-3.5,3.25Z"/><path class="cls-1" d="M292.58,206a2.62,2.62,0,0,1-.15-1,2.7,2.7,0,0,1,.05-.76c0-.25.09-.5.14-.74l.24-.67a10.43,10.43,0,0,1,1.32-2.34,17,17,0,0,1,1.19-1.47,17.48,17.48,0,0,1,2.49-2.14,12.56,12.56,0,0,1,2.93-1.61,5.69,5.69,0,0,1,.79-.2,3.15,3.15,0,0,1,.85,0,4.45,4.45,0,0,1,.79.09,2.25,2.25,0,0,1,.92.39,1.43,1.43,0,0,1,.62,1.12,2.14,2.14,0,0,1-.4,1.28,3.88,3.88,0,0,1-1.52,1.3c-.36.18-.45-.06-.4-.49a6,6,0,0,1,.35-1.58l.06-.12h0s0,0-.08,0a4.92,4.92,0,0,0-.67-.11,3.24,3.24,0,0,0-1.2.29,11.91,11.91,0,0,0-1.49.72,12.32,12.32,0,0,0-3.16,2.79,8.09,8.09,0,0,0-2.07,3.89c0,.2,0,.42,0,.59a.9.9,0,0,0,.06.37c0,.11.07.27.21.29a.82.82,0,0,0,.37-.1l.26-.16c.14-.1.29-.2.43-.32.29-.22.57-.47.85-.72.55-.5,1.08-1,1.59-1.59.8-.85,1.47-1.8,2.22-2.69.18-.18.35-.38.54-.55.74-.63,1.14-.72,1.48-.65a.53.53,0,0,1,.2.05c.07,0,.06.14,0,.32a3.55,3.55,0,0,1-.31.76c-.24.47-.51.93-.8,1.39s-.68.83-1,1.24c-.72.83-1.49,1.63-2.31,2.42a16.46,16.46,0,0,1-1.83,1.53l-.36.25a4.43,4.43,0,0,1-.46.29,2.18,2.18,0,0,1-1,.32,1.52,1.52,0,0,1-1.51-.88l-.27-.74Z"/><path class="cls-1" d="M302.48,207.29a18.84,18.84,0,0,1-2.11,1.52,9.63,9.63,0,0,1-2.46,1.16,5.12,5.12,0,0,1-1.12.19,2.08,2.08,0,0,1-1.34-.37,3.23,3.23,0,0,1-.44-.39,3.29,3.29,0,0,1-.34-.54,2.19,2.19,0,0,1-.11-1.17,4.51,4.51,0,0,1,.73-1.69,16.54,16.54,0,0,1,2.1-2.5l2-2c.88-.81,1.72-1.62,2.67-2.38.32-.23.35-.09.24.23a5,5,0,0,1-.74,1.47l-1.14,1.45c-.39.46-.83.87-1.23,1.31-.82.87-1.66,1.71-2.4,2.59a3.71,3.71,0,0,0-.85,1.66c0,.24,0,.39.18.49a1.07,1.07,0,0,0,.25.16,2.07,2.07,0,0,0,.23,0,4.71,4.71,0,0,0,1.88-.7,14.92,14.92,0,0,0,1.93-1.31,19.29,19.29,0,0,0,2.16-2A11.73,11.73,0,0,0,305,201a2,2,0,0,0,.07-1.29.53.53,0,0,0-.29-.26,1.31,1.31,0,0,0-.26-.12l-.29-.09c-.17,0-.28,0-.36,0a2.21,2.21,0,0,0-.56.09,1.2,1.2,0,0,1-.65-.11l-.3-.12c-.13-.09-.18-.24-.16-.49a1.3,1.3,0,0,1,.53-.89,2.3,2.3,0,0,1,1.2-.54,3,3,0,0,1,1.26.16,3.39,3.39,0,0,1,.51.21,3,3,0,0,1,.59.38,2.62,2.62,0,0,1,.84,1.33,4.15,4.15,0,0,1-.17,2.43,8.14,8.14,0,0,1-.86,1.75,18.57,18.57,0,0,1-3.56,3.92Z"/><path class="cls-1" d="M285.79,227.24a17.07,17.07,0,0,0-1.55-2.19c-.2-.26-.47-.46-.69-.71a34.66,34.66,0,0,0-2.42-2.6,10.37,10.37,0,0,0-1.24-1,9,9,0,0,1-1.63-1.2c-.15-.16.05-.45.39-.66a1.39,1.39,0,0,1,1.2-.18,11.41,11.41,0,0,1,3.49,2.56c.59.65,1.31,1.2,1.93,1.83a23,23,0,0,1,1.89,2.27c.35.49.7,1,1,1.51a22.26,22.26,0,0,1,1.29,2.47,14.93,14.93,0,0,1,.92,2,2.46,2.46,0,0,1,.16.48,1.07,1.07,0,0,1-.16.68,1.2,1.2,0,0,1-.57.3l-.33.08a.94.94,0,0,1-.53-.11,1.12,1.12,0,0,1-.49-.39,25.39,25.39,0,0,1-1.42-2.92,19.56,19.56,0,0,0-1.29-2.24Z"/><path class="cls-1" d="M157.67,325.94a11.82,11.82,0,0,1-2.72-.17,12.52,12.52,0,0,1-1.34-.34c-.23-.08-.41-.14-.68-.26s-.64-.32-1-.48c-.82-.55-1.5-1.16-1.39-2a1.38,1.38,0,0,1,.45-.76l.92-.46c.65-.17,1.39-.37,1.7-.44l1.21-.28c.8-.19,1.61-.38,2.4-.59a14.26,14.26,0,0,0,2.58-.91c1-.48,1.47-1.31,2.47-2.13.28-.26.4-.15.49.27a7.43,7.43,0,0,1,.14.88,1.9,1.9,0,0,1-.35,1.09,5.52,5.52,0,0,1-1.74,1.46,12.46,12.46,0,0,1-1.88.8,32.18,32.18,0,0,1-3.69.84c-.73.12-1.79.41-1.88.43a1.73,1.73,0,0,0-.32.11c-.12.08-.05.22,0,.3a1.19,1.19,0,0,0,.32.25,2,2,0,0,0,.25.12c.17.07.36.12.54.18a8.78,8.78,0,0,0,2.3.38,10.58,10.58,0,0,0,2.9-.28,11.53,11.53,0,0,0,4.05-1.84,14,14,0,0,0,2.45-2.42c.15-.21.29-.41.45-.61.58-.74.87-.89,1.37-.78.11,0,.23,0,.34.08.34.14.33.64,0,1.3a13.43,13.43,0,0,1-5.1,4.8,13.18,13.18,0,0,1-5.26,1.5Z"/><path class="cls-1" d="M151.05,321.11a7.59,7.59,0,0,1-2.15-1.84,6.91,6.91,0,0,1-.79-1.2,5.54,5.54,0,0,1-.57-1.84,2.76,2.76,0,0,1,.13-1.3,1.42,1.42,0,0,1,.84-.89,1.55,1.55,0,0,1,1.06,0,2.67,2.67,0,0,1,.54.19l.47.28.92.57.62.34a7.36,7.36,0,0,0,2.69.78,5,5,0,0,0,2.44-.44,28.22,28.22,0,0,0,2.88-1.63c.31-.19.5,0,.52.51a3.08,3.08,0,0,1-.1.9,2.07,2.07,0,0,1-.59.91,7,7,0,0,1-8,1.05,15.34,15.34,0,0,1-1.81-1,1.49,1.49,0,0,0-.42-.24.22.22,0,0,0-.29.13.67.67,0,0,0,0,.4,2.16,2.16,0,0,0,.25.61A5.45,5.45,0,0,0,151.1,319a6.35,6.35,0,0,0,1.16.74c.21.11.42.19.64.28a3.45,3.45,0,0,0,.63.17,8.94,8.94,0,0,0,4.27-.41,11.23,11.23,0,0,0,2.95-1.5c.19-.15.39-.27.56-.42.68-.53.92-.68,1.26-.71a2.07,2.07,0,0,1,.22,0c.1,0,.13.1.12.31a1.7,1.7,0,0,1-.3.89,7.11,7.11,0,0,1-2.59,2.46,9,9,0,0,1-3.4,1.2,10.32,10.32,0,0,1-2.79.13,7.89,7.89,0,0,1-1.51-.33,8.93,8.93,0,0,1-1.29-.61Z"/><path class="cls-1" d="M155.45,307.43A4.11,4.11,0,0,0,156,309c.31.61.65,1,1.19,2.19a2.59,2.59,0,0,1,.22,1.17,1.39,1.39,0,0,1-.55,1,3.1,3.1,0,0,1-2.11.4c-.33,0-.55-.07-.78-.1l-.69-.13a22.07,22.07,0,0,0-2.64-.41,1.32,1.32,0,0,0-.74.08c-.19.11-.12.37-.07.52a2.92,2.92,0,0,0,.25.51,2.71,2.71,0,0,0,.39.49,2.34,2.34,0,0,0,1,.69c.24.09.26.35-.06.61a1.59,1.59,0,0,1-1.83,0,4,4,0,0,1-1.22-1.67,2.58,2.58,0,0,1-.14-1.49,1.64,1.64,0,0,1,.89-1.07,3.4,3.4,0,0,1,.71-.2,2.73,2.73,0,0,1,.37,0h.24a7.85,7.85,0,0,1,.88.07c.56.07,1.09.17,1.61.27.31.06.62.1.93.14s.67.05.85.05a1.18,1.18,0,0,0,.33,0c.1,0,.22-.06.25-.17,0-.27,0-.3-.45-1a11.45,11.45,0,0,1-1-2,4.17,4.17,0,0,1,0-3.07,4.5,4.5,0,0,1,.59-1c.07-.11.18-.21.17-.35a.65.65,0,0,0-.15-.35l-.13-.15-.23-.22-.51-.42c-.78-.6-1.73-1-2.58-1.64-.19-.14-.39-.28-.58-.45-.72-.62-.72-1.37-.32-1.65a.77.77,0,0,1,.28-.15,2.22,2.22,0,0,1,.46.06,1.23,1.23,0,0,1,.53.14c.59.38,1.44.76,2.2,1.29.39.26.79.54,1.2.86.2.15.41.33.62.51l.32.31c.17.17.3.37.45.55a2.51,2.51,0,0,1,.46,1.25,2.07,2.07,0,0,1-.4,1.25l-.28.41-.12.22a2.86,2.86,0,0,0-.2.44,2.2,2.2,0,0,0-.08.85Z"/><path class="cls-1" d="M205.7,288.39a65.09,65.09,0,0,1-10.72.2c-1.3-.08-2.6-.12-3.89-.29a78.55,78.55,0,0,1-13.36-2.91l-2.89-.9-2.86-1a38.73,38.73,0,0,1-7.07-3.11c-.69-.41-.38-.79.44-.94a7,7,0,0,1,3.46.44c2.38.95,4.78,1.79,7.2,2.62s4.89,1.51,7.39,2.18a53.53,53.53,0,0,0,9.34,1.38,68.26,68.26,0,0,0,10.41.1,50.14,50.14,0,0,0,6.35-.83,37.36,37.36,0,0,0,9.2-2.91,22.16,22.16,0,0,0,5.91-4.18c.37-.36.73-.72,1.07-1.12a12.63,12.63,0,0,1,1.49-1.43,1.9,1.9,0,0,1,1-.46c.15,0,.31-.09.41-.1s.21.18.2.63a4,4,0,0,1-.6,1.79A14.21,14.21,0,0,1,226,280.5a22.44,22.44,0,0,1-2.9,2.31,30.92,30.92,0,0,1-6.66,3.26,47.51,47.51,0,0,1-10.68,2.38Z"/><path class="cls-1" d="M198.74,470.55l-1.67.31-.42.08c-.06,0-.16.07-.18,0l-.05-.22-.2-.86-.62-2.61c-.29-1.21-.54-2.42-.81-3.63-.54-2.42-1-4.84-1.53-7.26q-1.48-7.26-2.87-14.54-2.77-14.55-5.33-29.14c-1.26-7.1-2.55-14.18-3.75-21.28q-6.31-37.54-11.73-75.24C168,305,166.43,293.8,165,282.7c-.88-7.12-1.77-14.27-2.44-21.44a189.7,189.7,0,0,1-1.06-21.6c.27-4.54.75-3.84,1.09-.07s1.2,10.66,2,18.87c1.33,14.55,3.21,29.08,5.18,43.61s4.1,29.09,6.28,43.7c2.61,17.47,5.77,35.59,8.88,53.39,3.44,19.57,7,39.15,11,58.6.62,3,1.26,6,1.95,8.95l.36,1.54c0,.14.14,0,.22,0l.29-.05.8-.16c1.49-.28,3-.61,4.48-.93a61.9,61.9,0,0,1,9.15-1.49c.78-.07,1.55-.1,2.33-.14l1.15,0h1s0,0,0-.06l0-.15-.07-.58-.28-2.17c-1.11-9.21-2-18.46-2.87-27.69s-1.71-18.44-2.55-27.6c-1.34-14.24-2.65-28.19-4-42.26-.28-3.1-.56-6.14-.85-9.26-.52-5.8-.79-9.62-.86-12.32a30.81,30.81,0,0,1,.15-5.52c.08-.58.14-1.34.24-1.67.31-1.15,1.07,3.55,2,12,2.51,25.15,4.85,51.69,7.36,78.31.94,9.88,1.88,19.79,3,29.68.29,2.46.54,4.94.87,7.39l.39,3,.12.91,0,.23s0,0,0,0h-3.39l-.51,0-.91,0-1.82.1a50.77,50.77,0,0,0-7.18,1.06l-3.64.79-1.85.39-2.17.42Z"/><path class="cls-1" d="M233.2,327c.92,13,1.63,26.1,2.24,39.16.26,4.76.49,9.52.66,14.28l.43,12.6.28,12.6c.22,8.4.29,16.8.39,25.2,0,3.73.09,7.47.14,11.2s.06,7.45.09,11.15c0,2.37,0,4.75.08,7.13l0,3.57,0,2.21v1H235.7l-7.22,0c-2.37,0-4.75.05-7.08.18-1.45.09-2,.11-2.05-.09s.66-.58,1.91-.92a53.37,53.37,0,0,1,12.61-1.31h1.56l0-3-.06-7.28q0-7.28-.07-14.55-.18-14.57-.37-29.22c-.1-5.84-.27-11.8-.46-17.8s-.51-12-.76-18c-.27-6.57-.65-13.14-1-19.71s-.79-13.13-1.17-19.69c-.58-8.08-1.11-16.16-1.81-24.22-1-12.22-2.14-24.48-3.39-36.59-1-9.41-2.11-18.62-3-27.95-.18-2.06-.36-4.07-.55-6.15-.48-7.72-.16-10.22.43-11.87a10.15,10.15,0,0,1,.37-1.08c.19-.36.36.24.58,1.63s.28,3.56.58,6.36c.61,8.28,1.55,16.81,2.48,25.47s1.85,17.45,2.71,26.26c1.25,13.1,2.4,26.28,3.32,39.44Z"/><path class="cls-1" d="M301.7,325.85l-1.57-28.68-.69-10.46-2.05-36.88c-.32-5.45-.72-10.93-1.13-16.33-.58-6.94-1.11-13.91-1.25-20.88,0-2.17.55-1.92,1.27-.13a35.23,35.23,0,0,1,2,9.11c.36,3.54.62,7.09.87,10.64l.72,10.64c.46,7.11.87,14.24,1.19,21.4.39,8.57,1.19,17.46,1.77,26.21l1.83,28.88q.54,8.89,1.07,17.78c.53,9,1.07,18,1.6,26.91.51,6.92,1,13.72,1.51,20.56.11,1.51.23,3,.29,4.52.26,5.66,0,7.49-1,8.7a5.19,5.19,0,0,1-.64.8c-.69.53-1.4-1.76-1.66-5.85-.95-12.18-1.77-25.06-2.53-38-.56-9.61-1.12-19.28-1.69-28.92Z"/><path class="cls-1" d="M288.27,114.31c-.14-5.64-.24-11.29-.24-16.94s.05-11.31.54-17l.22-2.52v-.08l.08,0,.16,0,.33-.1.64-.19,1.22-.34c1-.28,2-.59,3-.84l3-.77,3-.68a209.58,209.58,0,0,1,43.45-4.07c6.46,0,12.95.23,19.33.75,4.11.34,8.22.74,12.3,1.45,2,.36,4.08.76,6.09,1.3a31.8,31.8,0,0,1,5.94,2.09c.3.16.55.29.76.43a4.58,4.58,0,0,1,.48.4c.23.22.29.37.21.44s-.29.08-.61,0l-.55-.12-.73-.12c-2.11-.44-6-.92-10.57-1.64a201.65,201.65,0,0,0-24.74-2.28c-8.32-.26-16.67-.18-25,.35a166.07,166.07,0,0,0-30.27,4.79c-1.36.33-2.72.69-4.07,1.09l-.61.16c-.11,0-.28,0-.24.19l-.14,1.47c-.2,2.78-.28,5.6-.33,8.43q-.09,8.48.12,17,.22,10.45.68,20.93c.45,10.56.94,21.17,1.61,31.65.53,8.14,1.25,16.11,1.93,24.15.15,1.77.3,3.51.45,5.29.5,6.62.44,8.75-.35,10.23a5.89,5.89,0,0,1-.51,1c-.57.67-1.38-2-1.87-6.83-1.51-14.36-2.53-29.55-3.35-44.81-.62-11.33-1.1-22.73-1.45-34.12Z"/><path class="cls-1" d="M357.13,112.74l-3.55,2-3.65,1.78c-2.41,1.23-4.9,2.29-7.38,3.36-1.79.83-3.61,1.58-5.45,2.28-3.22,1.3-6.55,2.29-9.84,3.39-3.35.91-6.67,1.94-10.07,2.63-3,.74-6.05,1.22-9.05,1.78-1.94.31-3.9.52-5.85.74a26.53,26.53,0,0,1-3,.09c-1,0-2,0-2.95-.05-1.22-.06-1.05-.33,0-.72a21.29,21.29,0,0,1,5.06-1.19A165.16,165.16,0,0,0,324.56,124a117.32,117.32,0,0,0,13.73-4.91c1.25-.47,2.47-1,3.69-1.59l3.68-1.64c2.41-1.16,4.81-2.37,7.19-3.59,2.88-1.62,5.81-3.15,8.57-5,1.05-.67,2.13-1.32,3.17-2l3.07-2.16c2.08-1.39,4-3,5.91-4.57a53.51,53.51,0,0,0,4.18-3.91c1.4-1.29,2.58-2.76,3.85-4.17.54-.63,1.09-1.23,1.62-1.88a15.52,15.52,0,0,1,2.16-2.49,3.4,3.4,0,0,1,1.4-.81,4.05,4.05,0,0,1,.57-.15c.49,0,0,1.22-1.18,3.27-3.9,5.85-9.38,11-15.23,15.42a132.25,132.25,0,0,1-13.77,8.93Z"/><path class="cls-1" d="M307.51,385.59a19.55,19.55,0,0,0-9.49,1.9,38.54,38.54,0,0,0-8.54,5.43A70,70,0,0,0,284,398.1a141.37,141.37,0,0,0-16.26,21.26c-2.16,3.35-4.16,6.82-6.11,10.26-2.54,4.41-4.85,9-7.62,13.25-.86,1.34-1.09,1-.84-.42a21.27,21.27,0,0,1,.72-2.77,20,20,0,0,1,1.54-3.7A187,187,0,0,1,272,409.27a128.83,128.83,0,0,1,12.47-14.86,53.22,53.22,0,0,1,8.35-6.8,28.61,28.61,0,0,1,10-4.24l1.69-.27c.56-.05,1.14-.06,1.7-.1a12,12,0,0,1,1.7.05l1.7.13c1.1.22,2.22.37,3.3.68l1.61.49.8.25.77.33a38,38,0,0,1,8.77,4.93c1.38,1,2.63,2.06,3.91,3.12.63.55,1.22,1.13,1.83,1.69s1.22,1.13,1.78,1.74a81.14,81.14,0,0,1,9.71,11.75,29.48,29.48,0,0,1,1.8,2.83c2,3.66,2.31,5,2.13,6.1,0,.24,0,.53,0,.67-.05.47-1.43-.73-3-3.25-2.51-3.66-5.07-7.37-8-10.89a69.31,69.31,0,0,0-9.56-9.82,44.11,44.11,0,0,0-8.43-5.57,25.12,25.12,0,0,0-9.5-2.58Z"/><path class="cls-1" d="M363.72,422.25a17.11,17.11,0,0,0-6.18-2.26,13.16,13.16,0,0,0-6.43.63,17.12,17.12,0,0,0-4.26,2.38,44.23,44.23,0,0,0-12.24,13.08,59.36,59.36,0,0,0-3.77,7.14c-1.4,3.16-2.68,6.38-4.08,9.56-.44,1-.68.75-.7-.23a15.12,15.12,0,0,1,.81-4.64,62.62,62.62,0,0,1,4.25-9.92,48.51,48.51,0,0,1,6.11-9,45.68,45.68,0,0,1,10-9A16,16,0,0,1,362,418.73a27.68,27.68,0,0,1,7.78,4.78,57.42,57.42,0,0,1,9.15,10.08,81.2,81.2,0,0,1,5.73,8.67c.38.67.74,1.32,1.08,2,1.22,2.6,1.29,3.57,1,4.32a2.63,2.63,0,0,1-.18.5c-.28.39-1-.56-2-2.31a109.37,109.37,0,0,0-10.45-15.4,39.9,39.9,0,0,0-10.37-9.08Z"/><path class="cls-1" d="M174.58,205a3.92,3.92,0,0,1,.1-.43c0-.12.08-.22.12-.32a5.64,5.64,0,0,1,.29-.55,7.63,7.63,0,0,1,.63-.88,17.08,17.08,0,0,1,1.33-1.45l.66-.67.22-.22.08-.06a.55.55,0,0,0,.12-.14c.05-.07,0-.09-.08-.13a1.19,1.19,0,0,0-.2-.08l-.26,0a2,2,0,0,0-.43,0,13.65,13.65,0,0,0-3.14.6c-1.9.53-3.83,1.25-6,1.63a8.08,8.08,0,0,1-3.32,0,5.2,5.2,0,0,1-1.62-.65,3.2,3.2,0,0,1-1.26-1.41,4.6,4.6,0,0,1,0-3.11,12.68,12.68,0,0,1,1.18-2.59,17.68,17.68,0,0,1,4.63-5.37c.65-.43.8,0,.62.73a6.88,6.88,0,0,1-1.46,2.69,23,23,0,0,0-2,2.65,10.27,10.27,0,0,0-1.34,2.81,2.87,2.87,0,0,0-.08,1.21,1.21,1.21,0,0,0,.49.8,4.82,4.82,0,0,0,2.7.73,13.91,13.91,0,0,0,4-.84c1.36-.44,2.75-1,4.23-1.29a10.52,10.52,0,0,1,2.21-.31,3.92,3.92,0,0,1,.59,0l.29,0,.41,0a11.2,11.2,0,0,1,1.5.55l.31.29c.1.1.22.17.26.33a1.25,1.25,0,0,1-.12.83,6.9,6.9,0,0,1-1.22,1.52c-.64.64-1.27,1.26-1.81,1.91a5.09,5.09,0,0,0-.77,1.14,1,1,0,0,0-.12.42.46.46,0,0,0,.15.33c.09.06.22.2.37.3l.51.25a6.66,6.66,0,0,0,1.21.27,18.28,18.28,0,0,0,4.3-.09c1.46-.17,2.91-.42,4.37-.67l2-.35c.33-.06.67-.12,1-.15l.51-.07.27,0c.13,0,.26,0,.38,0a1.57,1.57,0,0,1,.49.05l.23.07.2.13a1.07,1.07,0,0,1,.32.88,1.38,1.38,0,0,1-.08.52,1.93,1.93,0,0,1-.16.48,6.13,6.13,0,0,1-.33.68,10.54,10.54,0,0,1-.89,1.29c-1.26,1.49-1.89,1.75-2.38,1.77a1.18,1.18,0,0,1-.33,0c-.27-.09.27-.61,1.1-1.61a11.35,11.35,0,0,0,1.38-2.1c.08-.19.17-.37.23-.55s0-.07,0-.11-.07,0-.1,0-.34,0-.58.1l-.84.14-1.73.32c-1.17.24-2.35.47-3.56.69a30.72,30.72,0,0,1-4.38.49c-.38,0-.77,0-1.16,0s-.8-.08-1.21-.15a5.74,5.74,0,0,1-1.26-.4,3.53,3.53,0,0,1-.64-.33l-.68-.53a2.25,2.25,0,0,1-.57-1.89Z"/><path class="cls-1" d="M210.26,196.41l.84-.41.47-.21.85-.39a4.72,4.72,0,0,0,1.31-.88.49.49,0,0,0,.16-.5,3.41,3.41,0,0,0-1.2-1.5,12.68,12.68,0,0,0-2-1.3,11.66,11.66,0,0,0-2-.79c-.87-.24-1.81-.39-2.58-.57-.22-.06-.29-.46,0-.86a1.51,1.51,0,0,1,1.48-.64,13.38,13.38,0,0,1,5.64,2.51,15.49,15.49,0,0,1,1.5,1.28,3,3,0,0,1,1,2.23,2.34,2.34,0,0,1-.62,1.3,4.72,4.72,0,0,1-.9.76,13.18,13.18,0,0,1-1.83,1l-.27.14-.14.05-.28.12-.29.13c-.08,0-.28.1-.16.2s.44.36.77.63a9.52,9.52,0,0,1,1.43,1.35,3.9,3.9,0,0,1,.82,1.47,2.59,2.59,0,0,1-.17,1.78,3.17,3.17,0,0,1-.38.65c-.58.7-.9.74-1.27.57a1.45,1.45,0,0,1-.25-.12c-.25-.18-.15-.56.08-1a2.4,2.4,0,0,0,.29-.94,1.72,1.72,0,0,0-.08-.64,3.7,3.7,0,0,0-1.18-1.38l-.34-.27-.69-.5a3.57,3.57,0,0,1-1.25-1.17c-.35-.76,0-1.57,1.3-2.12Z"/><path class="cls-1" d="M304.25,399.19c-.1.18-.3,0-.58-.43a1.93,1.93,0,0,1-.23-.66,1.72,1.72,0,0,1,.13-.42,10.25,10.25,0,0,1,1-.76,2.5,2.5,0,0,1,.81-.38c.57-.18,1.17-.36,1.78-.49a1.48,1.48,0,0,1,.42,0,5.17,5.17,0,0,0,1.47,0,.49.49,0,0,0,.25-.08,3.48,3.48,0,0,1,1.72,0,10.17,10.17,0,0,1,1.25.72c.05,0,.13,0,.14.15,0,.27.16.3.27.39a1.46,1.46,0,0,1,.4.42.85.85,0,0,1,.08.34c0,.11-.18.31-.22.32s-.15.17-.21.27l-.07.09a2.76,2.76,0,0,1-.55.06c-.26,0-.51.1-.55.09l-.55-.1a4,4,0,0,0-.65,0c-.07,0-.12-.05-.19-.08a6.63,6.63,0,0,0-1,.13c-.19,0-.37.07-.59-.09,0,0-.08,0-.12,0a8.9,8.9,0,0,1-1.06.09,3.37,3.37,0,0,0-.53.12.37.37,0,0,1-.11,0,.3.3,0,0,0-.13,0,6.4,6.4,0,0,0-1.29.39c-.09,0-.64,0-.74.07S304.29,399.11,304.25,399.19Z"/><path class="cls-1" d="M341,420.31a2.27,2.27,0,0,1,1.59-.32.25.25,0,0,1,.11.41q-.4.33-.81.63a20.85,20.85,0,0,0-3.6,2.71c-.39.35-.77.72-1.13,1.11s-.76.74-1.13,1.12c-.71.82-1.45,1.59-2.1,2.47-.34.42-.69.84-1,1.27L332,431l-.87,1.17a25.49,25.49,0,0,0-2.65,4.21,3.76,3.76,0,0,0-.34.77c-.26.57-2,4.47-2.27,5a39.05,39.05,0,0,0-1.75,4,1.75,1.75,0,0,1-.26.57,3.23,3.23,0,0,0-.5,1.25c-.19.59-.37,1.19-.54,1.79a5.52,5.52,0,0,1-.4.86.21.21,0,0,1-.39,0c0-.3-.21-.09-.33-.08a.23.23,0,0,1-.12,0,2.84,2.84,0,0,1,0-.61l.06-1.36c.11-1,.26-2,.32-2.22l.26-.88c.16-.52.33-1.21.58-1.89.45-1.39,1-2.8,1.12-3.09a7.8,7.8,0,0,1,.43-.87l.95-2.13c.47-1,1-2,1-2.11a13,13,0,0,1,1.46-2.28,3.12,3.12,0,0,0,.29-.45,37.31,37.31,0,0,1,2.71-3.79c.47-.63,1-1.25,1.49-1.86.09-.11.2-.2.3-.31a4.54,4.54,0,0,0,.38-.38c.65-.69,1.31-1.36,2-2s1.39-1.27,2.15-1.85c.17-.13.7-.48,1.23-.83s1.14-.62,1.34-.77S340.76,420.41,341,420.31Z"/><path class="cls-1" d="M357.16,113.85l-3.26,1.79-3.32,1.64c-2.2,1.13-4.48,2.09-6.73,3.1-1.63.77-3.29,1.46-5,2.13-2.93,1.21-6,2.17-8.95,3.21s-6.06,1.87-9.14,2.61c-2.71.75-5.49,1.28-8.2,1.92-1.77.32-3.54.65-5.31.93s-3.59.3-5.38.35c-1.12,0-1-.26-.08-.71a17.64,17.64,0,0,1,4.54-1.47c7.07-1.3,14-3.12,21-5.12a108.44,108.44,0,0,0,12.48-4.68c1.14-.44,2.26-1,3.37-1.47l3.34-1.53c2.21-1.06,4.39-2.18,6.57-3.3,2.63-1.47,5.31-2.88,7.84-4.52,1-.61,1.95-1.19,2.9-1.82l2.83-2c1.91-1.25,3.67-2.7,5.46-4.1a77.73,77.73,0,0,0,7.52-7.2c.52-.56,1.05-1.09,1.55-1.67a12.16,12.16,0,0,1,2.12-2.15,2.85,2.85,0,0,1,1.35-.64,3.13,3.13,0,0,1,.55-.09c.48,0,0,1.16-1.17,3a67.21,67.21,0,0,1-14.26,13.72,132.74,132.74,0,0,1-12.64,8.09Z"/><path class="cls-1" d="M326.4,72.54c2.36-.12,4.71-.25,7.07-.26l3.54-.07,3.54,0c1.72,0,3.44,0,5.15.06,6.06.2,12.1.7,18.11,1.41,1.33.15,2.67.3,4,.49s2.67.31,4,.53a62,62,0,0,1,10.08,2.1c1,.31.8.6-.16.73a18.1,18.1,0,0,1-4.56-.21c-6.8-1.19-13.67-2.06-20.63-2.73-2.08-.23-4.22-.3-6.36-.41s-4.31-.08-6.45-.14h-7.06c-2.35.08-4.71.1-7.06.23-2.89.17-5.79.3-8.67.62l-3.28.31-3.27.42-3.26.44-3.22.58c-3.35.56-6.54,1.49-9.78,2.3-.71.2-1.38.45-2.1.65-2.63.76-3.51.87-4.25.47a4.22,4.22,0,0,1-.48-.25c-.38-.32.6-1,2.54-1.66a100.42,100.42,0,0,1,18.35-4.25c4.71-.68,9.47-1.15,14.22-1.44Z"/><path class="cls-1" d="M342.14,105.89c1.2-.44,2.4-.9,3.58-1.4s2.35-1,3.52-1.55c.86-.38,1.66-.86,2.5-1.27a82.17,82.17,0,0,0,8.64-4.84c1.25-.77,2.41-1.69,3.57-2.56l2.16-1.79a26.23,26.23,0,0,1,2.19-1.75c1-.67,1,1.57-.68,3a56.06,56.06,0,0,1-9.7,6.57c-2.07,1.11-4.16,2.36-6.3,3.44-1.17.6-2.38,1.12-3.57,1.68s-2.41,1-3.63,1.53c-1.51.59-3,1.17-4.55,1.69-2.31.82-4.68,1.48-7,2.17-1.82.51-3.59,1.07-5.4,1.52-.4.1-.79.22-1.2.29-1.51.3-2,.28-2.41-.06a2,2,0,0,1-.26-.23c-.19-.28.37-.65,1.44-1,3.17-.93,6.49-1.86,9.78-3,2.44-.83,4.89-1.67,7.3-2.6Z"/><path class="cls-1" d="M154.76,106.22c3.17-4.08,9.88-6.77,15-5.42a1.45,1.45,0,0,0,.77-2.79c-6-1.6-14,1.28-17.78,6.16-1.14,1.46.9,3.52,2,2Z"/><path class="cls-1" d="M182.94,97c1.83-2.44,4.75-3.37,7.6-4,1.82-.41,1.05-3.21-.77-2.8-3.7.83-7,2.24-9.33,5.34-1.12,1.5,1.39,2.94,2.5,1.47Z"/><path class="cls-1" d="M198.78,140c-.67,3-5.49,1.29-7.23.19-1.58-1-3,1.51-1.46,2.51,3.4,2.15,10.32,3.3,11.49-1.93.4-1.81-2.39-2.59-2.8-.77Z"/><path class="cls-1" d="M206.26,215.56a4.78,4.78,0,0,1-1.07,2.6,3.63,3.63,0,0,1-.75.77,2.39,2.39,0,0,1-2.07.31,2.27,2.27,0,0,1-1.4-1.41,7.31,7.31,0,0,1-.36-1.43,3.11,3.11,0,0,1,.07-1.79c.08-.19.51-.07.9.13s.78.46.77.72a5,5,0,0,0,.32,2.2c.22.27.59.15,1-.17a3.09,3.09,0,0,0,.93-1.56,1.54,1.54,0,0,0,0-1,1.61,1.61,0,0,0-1.21-1,1.36,1.36,0,0,0-.64.05c-.2,0-.36.19-.35.24s-.15-.12-.12-.11-.1-.05-.09-.05a.08.08,0,0,0,.07,0s.13,0,.17,0,0,0,0,0,0,0,0,0a3,3,0,0,1-.27.37l-.18.25a.47.47,0,0,1-.41.21.64.64,0,0,1-.56-.4,1.22,1.22,0,0,1-.07-1,1.7,1.7,0,0,1,.54-.75,2.59,2.59,0,0,1,1.16-.46,3.44,3.44,0,0,1,2.12.42,3.22,3.22,0,0,1,1.19,1.21,3.77,3.77,0,0,1,.32.78,3.42,3.42,0,0,1,.1.87Z"/><path class="cls-1" d="M376.38,40.28c-.2-.08,0-.31.47-.63a2.31,2.31,0,0,1,.72-.3,2.5,2.5,0,0,1,.46.09,10.48,10.48,0,0,1,.86,1,2.48,2.48,0,0,1,.44.77c.21.56.44,1.11.63,1.67a1.07,1.07,0,0,1,.05.4,3.14,3.14,0,0,0,.28,1.33c0,.07,0,.15.13.2a3.45,3.45,0,0,1,.47,1.43c-.06.42-.07.83-.13,1.25,0,.06,0,.11-.05.18s-.14.27-.14.4a1.86,1.86,0,0,1,0,.52c0,.09-.13.19-.21.29a.65.65,0,0,1-.43.09c-.12-.05-.25,0-.38.07l-.14,0a5.21,5.21,0,0,1-.89-.87l-.3-.66c-.13-.33-.28-.68-.32-.74s0-.16,0-.25-.47-1-.48-1.06c0-.22-.19-.4-.06-.67a.12.12,0,0,0,0-.13,5.91,5.91,0,0,1-.27-1.12,4,4,0,0,0-.19-.55s0-.07,0-.11a.32.32,0,0,0,0-.14,6.75,6.75,0,0,0-.5-1.29c-.05-.09,0-.65-.1-.75S376.46,40.31,376.38,40.28Z"/><path class="cls-1" d="M394.38,52.12c0,.3-.32.4-.86.39a1.17,1.17,0,0,1-.63-.31,4.41,4.41,0,0,1-.12-.59c0-.11.45-1.64.63-2.16A7.43,7.43,0,0,1,394,48c.52-.93,1-1.87,1.64-2.76a3,3,0,0,1,.46-.56,13.31,13.31,0,0,0,1.56-1.88.78.78,0,0,0,.2-.37,9.64,9.64,0,0,1,1.77-2.1c.62-.4,1.2-.83,1.85-1.18.09,0,.15-.15.29-.13a.85.85,0,0,0,.65-.24,5.94,5.94,0,0,1,.84-.41,2,2,0,0,1,.51-.05c.15,0,.26.27.24.32s.11.2.19.29a.44.44,0,0,1,.08.11,7.89,7.89,0,0,1-.45.82,5.18,5.18,0,0,1-.53.88s-.42.47-.84.92-.85,1-.92,1.08a1.1,1.1,0,0,1-.34.26c-.07,0-1.18,1.56-1.22,1.62-.27.28-.44.64-.84.83-.08,0-.12.1-.17.17-.37.56-.83,1.06-1.25,1.59-.22.27-.38.59-.58.88,0,0-.09.08-.13.13a.9.9,0,0,0-.16.18,17.63,17.63,0,0,0-1.24,2.15c-.08.17-.69.88-.76,1.09S394.37,52,394.38,52.12Z"/><path class="cls-1" d="M407.58,68.91c-.06.18-.27,0-.58-.48a3,3,0,0,1-.31-.71,1.91,1.91,0,0,1,0-.43c0-.07.57-.56.75-.75a1.65,1.65,0,0,1,.6-.38l1.3-.58a.79.79,0,0,1,.32-.06,2,2,0,0,0,1-.3c.06,0,.12,0,.14-.13a2.53,2.53,0,0,1,1.09-.53,8.9,8.9,0,0,0,1,0s.08,0,.15,0,.24.09.34.07a1.89,1.89,0,0,1,.42,0,.93.93,0,0,1,.27.15.68.68,0,0,1,.15.37c0,.11.08.22.13.33a.61.61,0,0,1,.05.12,4.85,4.85,0,0,1-.56.91l-.5.35-.55.42s-.13,0-.21,0-.77.54-.81.55-.31.2-.56.1c0,0-.07,0-.11,0a3.83,3.83,0,0,1-.9.31,2.57,2.57,0,0,0-.45.2s-.06,0-.09,0-.09,0-.12,0a6.59,6.59,0,0,0-1,.47c-.07.06-.56,0-.64.08S407.6,68.83,407.58,68.91Z"/></g></svg>