<svg xmlns="http://www.w3.org/2000/svg" width="520" height="520" viewBox="0 0 520 520"><defs><style>.cls-1{fill:#242021;}.cls-2{fill:#231f20;}.cls-3{fill:#221f1f;}</style></defs><title>Notioly New</title><g id="n.129_Space" data-name="n.129 Space"><path class="cls-1" d="M167.73,444.84l.15.28c.14.22.19.49.31.73s.26.46.42.68c.28.45.58.9.91,1.34s.81.74,1.12,1.2a8.43,8.43,0,0,0,1.24,1.07,16.13,16.13,0,0,0,2.76,1.55l1.39.61a3.54,3.54,0,0,0,1.43.42.46.46,0,0,0,.35-.05,2.13,2.13,0,0,0,.74-1.91.5.5,0,0,0-.21-.27,4.05,4.05,0,0,0-1.24-.67c-.42-.19-.82-.4-1.22-.6a13,13,0,0,1-2.13-1.48c-.33-.27-.6-.57-.92-.84a3,3,0,0,1-.76-1,10.64,10.64,0,0,1-.7-1.05c-.1-.18-.19-.38-.28-.58a1.79,1.79,0,0,1-.34-.56l-.1-.25C170.49,443.22,167.59,444.47,167.73,444.84Z"/><path class="cls-1" d="M185,457.49l.42.17a9.7,9.7,0,0,1,1,.48l1,.38c.68.25,1.37.5,2.06.73a19.45,19.45,0,0,1,2.12.56,19.57,19.57,0,0,0,2.15.46,28.19,28.19,0,0,0,4.41.32c.73,0,1.47,0,2.21-.08a6.12,6.12,0,0,0,2.19-.41.89.89,0,0,0,.43-.26,1.58,1.58,0,0,0-.39-2,.86.86,0,0,0-.45-.1,11.55,11.55,0,0,0-2,.09,18.49,18.49,0,0,1-2,0,24.56,24.56,0,0,1-3.91-.56l-1-.22a9.8,9.8,0,0,0-1-.23,7.9,7.9,0,0,1-1.89-.62c-.64-.21-1.27-.42-1.89-.68-.3-.13-.61-.26-.91-.41a5.14,5.14,0,0,1-.95-.35l-.37-.19C185.91,454.39,184.53,457.24,185,457.49Z"/><path class="cls-1" d="M212.68,455.73l.29-.27a8.48,8.48,0,0,1,.72-.6c.22-.22.43-.45.64-.69.42-.45.84-.91,1.24-1.39a14.55,14.55,0,0,1,1.1-1.48,17,17,0,0,0,1.05-1.51c.67-1,1.2-2.13,1.76-3.19.29-.54.55-1.08.82-1.62a5.53,5.53,0,0,0,.65-1.68.75.75,0,0,0,0-.42,1.82,1.82,0,0,0-1.87-.85.63.63,0,0,0-.31.26,5.73,5.73,0,0,0-.88,1.48c-.26.51-.54,1-.82,1.5-.57,1-1.24,1.9-1.88,2.82-.32.46-.68.89-1,1.36a6,6,0,0,1-1.08,1.27c-.36.42-.72.84-1.11,1.22-.2.19-.39.38-.6.56a3.56,3.56,0,0,1-.56.6l-.27.2C210.31,453.58,212.32,456,212.68,455.73Z"/><path class="cls-2" d="M450.83,202.57s3.72.64,1.89,2.05c-2.45,1.87-6.59,1.51-7.23,6.68-.51,4.06,5.51,5.65,8.85,5.24,4.06-.48.8,3.35-2.38,2.92s-10.7-2.41-10.27-7.92C441.69,211.54,442.35,202.57,450.83,202.57Z"/><path class="cls-2" d="M370.14,388.33l-.46.21c-.21.1-.41.19-.62.27a3.18,3.18,0,0,1-1.13.3,1.86,1.86,0,0,1-.42-.05l-.35-.2a1.45,1.45,0,0,1-.45-.84,2.9,2.9,0,0,1,.7-2l.37-.47.26-.29c.18-.18.35-.37.53-.54.52-.51,1-1,1.56-1.48.95-.81,1.91-1.59,2.82-2.39.23-.2.45-.41.66-.61l.31-.31.17-.18a.75.75,0,0,0,.2-.36c0-.16-.15-.22-.27-.25a1,1,0,0,0-.39,0,4.22,4.22,0,0,0-.71.14,8.26,8.26,0,0,0-1.42.57,9.49,9.49,0,0,0-3,2.47c-.22.3-.48.18-.55-.3a2.42,2.42,0,0,1,.81-1.95,9.48,9.48,0,0,1,1.88-1.4,7.49,7.49,0,0,1,2.22-.89c.22-.05.4-.06.68-.1a8,8,0,0,1,1,.05,1.75,1.75,0,0,1,1.35.95,1.85,1.85,0,0,1-.43,1.62,5.56,5.56,0,0,1-1,1c-1.35,1.18-2.68,2.36-4,3.54-1.46,1.35-2.79,2.59-1.62,2.49l.37-.15.73-.34c.54-.26,1.08-.52,1.65-.76a6.41,6.41,0,0,1,1.28-.4,2.28,2.28,0,0,1,.86,0,.75.75,0,0,1,.55.54,1.55,1.55,0,0,1-.08,1,3.27,3.27,0,0,1-.47.74,12,12,0,0,1-1,1.08c-1,1-2.12,1.83-3.07,2.78-.2.21-.39.42-.56.63a4.14,4.14,0,0,1-.62.64.49.49,0,0,0-.3.31,2,2,0,0,0-.05.24c0,.1-.16.14-.42-.06a.93.93,0,0,1-.29-.61,1.73,1.73,0,0,1,.16-.81,5.09,5.09,0,0,1,1.37-1.58c.5-.43,1-.82,1.53-1.2s1-.75,1.51-1.13a4.85,4.85,0,0,0,1.17-1.25v0h0L373,387l-.24.12a4.44,4.44,0,0,1-.49.24c-.7.3-1.41.66-2.15,1Z"/><path class="cls-2" d="M150.65,409.06c-.15-.13,0-.33.33-.48a1.48,1.48,0,0,1,.51-.08l.3.07a.51.51,0,0,0,.43.15.23.23,0,0,1,.14,0,.38.38,0,0,1,.15,0,2.69,2.69,0,0,0,.89-.1.66.66,0,0,1,.24,0,1.16,1.16,0,0,0,.82-.24s.1,0,.11-.11a2.9,2.9,0,0,1,.81-.55,3.58,3.58,0,0,0,.77-.29s0-.06.12,0,.22,0,.29-.08a1.76,1.76,0,0,1,.3-.21,1.84,1.84,0,0,1,.26,0,.51.51,0,0,1,.27.18c0,.09.14.12.22.17l.08.06a2.61,2.61,0,0,1-.22,1,11.6,11.6,0,0,1-.94,1.06c-.05.06-.14.07-.21.1a10,10,0,0,1-.87.67c-.19.07-.37.22-.62.15a.19.19,0,0,0-.13,0,3,3,0,0,1-1.09.22,5.35,5.35,0,0,1-.59.06.45.45,0,0,1-.11,0,.34.34,0,0,0-.14,0,3.46,3.46,0,0,1-1.54-.43,2.46,2.46,0,0,1-.57-.78C150.6,409.44,150.68,409.1,150.65,409.06Z"/><path class="cls-2" d="M151.16,419.16c-.11,0-.16-.1-.2-.36a.7.7,0,0,1,.07-.35,1,1,0,0,1,.23-.13,3,3,0,0,1,1,.14,1.75,1.75,0,0,1,.67.36,3.67,3.67,0,0,1,1,1.22,1,1,0,0,1,.1.34c.06.41.11.79.15,1.19a.37.37,0,0,0,0,.2,2.36,2.36,0,0,1-.24,1.34,4.69,4.69,0,0,1-.78.71s-.05.08-.13.07a.32.32,0,0,0-.3.11,1.76,1.76,0,0,1-.37.17.49.49,0,0,1-.24,0c-.08,0-.14-.13-.14-.16s-.07-.11-.12-.15l0-.05a2.16,2.16,0,0,1,.07-.4c0-.18,0-.39,0-.41a1.36,1.36,0,0,0,.15-.37,2,2,0,0,0,.09-.41s.06-.07.09-.1a2.11,2.11,0,0,0,0-.56.57.57,0,0,1,.09-.33s0,0,0-.07,0-.39-.09-.58a.94.94,0,0,0-.15-.28s0,0,0-.06,0-.06,0-.08c-.16-.18-.29-.42-.54-.51,0,0-.26-.27-.34-.29S151.2,419.14,151.16,419.16Z"/><path class="cls-2" d="M149.15,434.8a22.35,22.35,0,0,1-7.75-8.56,17,17,0,0,1-1.49-4A19.35,19.35,0,0,1,142.59,408a26.21,26.21,0,0,1,4-5.05,24.18,24.18,0,0,1,3.17-2.63,17.67,17.67,0,0,1,1.78-1,9.35,9.35,0,0,1,1.94-.7c.81-.26.82.07.36.74-.22.34-.55.76-.92,1.3a4.35,4.35,0,0,1-.67.69,7.73,7.73,0,0,1-.81.66,24.31,24.31,0,0,0-9,11.93,15,15,0,0,0,.19,9.19,18.3,18.3,0,0,0,5.95,8.4,23,23,0,0,0,5.62,3.31,22.16,22.16,0,0,0,9.7,1.74,19.37,19.37,0,0,0,3.73-.62,26.39,26.39,0,0,0,3.52-1.29c.51-.2,1-.48,1.48-.7,1.83-.93,2.49-1.12,3.17-.94a2.41,2.41,0,0,1,.45.13c.2.1.16.33-.08.69a5.86,5.86,0,0,1-1.33,1.37,20.2,20.2,0,0,1-14.71,3.73,25.75,25.75,0,0,1-11-4Z"/><path class="cls-2" d="M108.48,227.94a35.4,35.4,0,0,1,11.85,6.59,30.59,30.59,0,0,1,8.17,10.76,32.12,32.12,0,0,1,1.66,4.68,31.58,31.58,0,0,1,.71,4.91,32.11,32.11,0,0,1-15.58,29,30.38,30.38,0,0,1-19.43,3.82,26.74,26.74,0,0,1-4.77-1.06,27.8,27.8,0,0,1-8.58-4.48c-1.58-1.24-1.11-1.37.48-.76l3.22,1.21c1.32.49,2.86,1,4.5,1.55a28.84,28.84,0,0,0,9.05,1.48,29.26,29.26,0,0,0,4.58-.36c.77-.08,1.52-.26,2.27-.4l2.21-.6a29.3,29.3,0,0,0,14.68-10.85,28.88,28.88,0,0,0,4.79-21.9,25.4,25.4,0,0,0-5.5-11.23,31.07,31.07,0,0,0-10-7.81,31.9,31.9,0,0,0-3.62-1.53c-.61-.21-1.23-.46-1.85-.64l-1.91-.48-.95-.23-1-.14-1.94-.29-2-.09-1,0c-.33,0-.65,0-1,0a25.52,25.52,0,0,0-20.13,10.77A32.8,32.8,0,0,0,73.48,248a37,37,0,0,0-1.56,8.84c0,.66,0,1.31,0,2a16.33,16.33,0,0,0,.09,2c.47,4.89,1,6.35.64,7.64a6.17,6.17,0,0,1-.17.84c-.14.32-.46,0-1-.81a11.32,11.32,0,0,1-.89-1.65,23.27,23.27,0,0,1-.77-2.48,15.7,15.7,0,0,1-.42-2.15c-.09-.73-.24-1.46-.29-2.2a33.29,33.29,0,0,1,0-4.47,32,32,0,0,1,1.78-8.9l.84-2.15c.26-.72.67-1.39,1-2.08a35.28,35.28,0,0,1,2.4-4c.46-.63,1-1.23,1.46-1.84l.75-.92.83-.83c.57-.55,1.11-1.12,1.7-1.65l1.86-1.47a27.06,27.06,0,0,1,13-5.12,32.35,32.35,0,0,1,13.77,1.37Z"/><path class="cls-2" d="M113.39,268.22a120,120,0,0,1-11.17,4.85c-1.39.5-2.75,1.08-4.16,1.52a89.5,89.5,0,0,1-15.21,3.62,67.53,67.53,0,0,1-6.94.64,20.36,20.36,0,0,1-8.83-1.31c-.88-.34-.64-.59.2-.72.42-.07,1-.1,1.64-.15a12.51,12.51,0,0,1,2.23-.05,55.36,55.36,0,0,0,8.63-.1c2.9-.28,5.81-.74,8.73-1.3A75.38,75.38,0,0,0,99,272.12a118.51,118.51,0,0,0,11.13-4.61c2.23-1.08,4.44-2.19,6.59-3.42a70.83,70.83,0,0,0,9.34-6.17,33,33,0,0,0,5.9-6,17.51,17.51,0,0,0,1-1.5c1.14-1.91,1.29-2.49,2.05-2.81a5.12,5.12,0,0,1,.5-.22c.27-.07.44.15.47.64a4.52,4.52,0,0,1,0,.94c-.1.35-.23.76-.4,1.2a19.42,19.42,0,0,1-1,1.86c-.39.56-.77,1.15-1.19,1.7a32.45,32.45,0,0,1-2.78,3.09,51.48,51.48,0,0,1-6.47,5.22,93.09,93.09,0,0,1-10.63,6.26Z"/><path class="cls-2" d="M82.51,234A9.82,9.82,0,0,1,85,232.17c.26-.14.39.06.16.32-.44.51-.9,1-1.37,1.51L81,236.76a40.77,40.77,0,0,0-3.48,3.9,14.09,14.09,0,0,0-1.6,2.58,4.16,4.16,0,0,0-.38,1.3,2.3,2.3,0,0,0,0,.59,1.49,1.49,0,0,0,.07.25h0s0,0,0,0a11.05,11.05,0,0,0,1-1.09c.71-.81,1.43-1.68,2.21-2.52.38-.42.79-.84,1.23-1.24l.68-.59.37-.28.19-.13a2.35,2.35,0,0,1,.31-.21,5.41,5.41,0,0,1,2.73-.91l.52.08.41.21a1.74,1.74,0,0,1,.39.42,1.89,1.89,0,0,1,.19.45,1.77,1.77,0,0,1,0,.88,4.61,4.61,0,0,1-.57,1.13,12,12,0,0,1-.86,1.13c-.24.29-.36.41-.55.62-2.39,2.47-4.64,4.93-6.73,7.52a11.08,11.08,0,0,0-1,1.33c-.12.21-.67,1-1.28,1.95a10.62,10.62,0,0,0-.83,1.61,3.39,3.39,0,0,0-.15.41c0,.1,0,0,0,0h0a0,0,0,0,0,0,0h0l.15-.12c.58-.48,1-.91,1.23-1.05a21,21,0,0,1,3.92-2.61,3,3,0,0,1,1.84-.27,2.39,2.39,0,0,1,.77.37,1.05,1.05,0,0,1,.46.68,2.21,2.21,0,0,1-.24,1.7,6,6,0,0,1-.82,1.17,6.67,6.67,0,0,1-.88.94,15,15,0,0,0-1.9,1.92,23.34,23.34,0,0,0-2.28,2.91c-.33.51-.65,1-.93,1.56s-.28.17-.23,0c.15-.55-.09-.15-.16-.11s-.07,0-.07,0a2.71,2.71,0,0,1,.08-.33,7.8,7.8,0,0,1,.31-.82,15.52,15.52,0,0,1,1.27-2.35,43,43,0,0,1,2.6-3.53,14.56,14.56,0,0,0,1-1.35c.07-.09.13-.2.2-.3l.07-.12a.32.32,0,0,0,0-.17c0-.15-.2-.14-.29-.08h0l-.16.09-.37.25c-.25.18-.5.38-.74.59-.49.41-.94.85-1.35,1.25-.81.82-1.52,1.41-1.77,1.63l-.2.16c-.11.09-.25.18-.36.26a5.05,5.05,0,0,1-.75.46,2.36,2.36,0,0,1-1.44.24,1.48,1.48,0,0,1-.3-.08,1.63,1.63,0,0,1-.87-.88,2.82,2.82,0,0,1-.32-1,3.44,3.44,0,0,1,0-.85c0-.16,0-.32.08-.49l.08-.27.06-.19A11.41,11.41,0,0,1,73,252.75a33.34,33.34,0,0,1,2.33-3.08A47.68,47.68,0,0,1,79,245.8a10.31,10.31,0,0,0,.73-.75c1-1.09,2-2.25,2.93-3.37l.16-.2,0,0,.09-.13s0-.12,0-.13a.41.41,0,0,0-.15,0,.34.34,0,0,0-.15.07l-.26.16-.43.31a20.06,20.06,0,0,0-1.63,1.46l-.59.56a10.05,10.05,0,0,0-.73.73c-.54.58-1.08,1.17-1.69,1.76l-.49.43a3.41,3.41,0,0,1-.86.5,1.3,1.3,0,0,1-1,0,1.43,1.43,0,0,1-.67-.68,3.37,3.37,0,0,1-.25-.65,1.89,1.89,0,0,1-.09-.49,3.35,3.35,0,0,1,0-1,6.7,6.7,0,0,1,.51-1.66A14.14,14.14,0,0,1,76.21,240a24.54,24.54,0,0,1,2-2.15c.88-.88,1.81-1.72,2.16-2.06S82.17,234.36,82.51,234Z"/><path class="cls-2" d="M237.36,354.31c-3.15,1.31-6.32,2.57-9.56,3.68-1.18.39-2.32.89-3.53,1.23a85.68,85.68,0,0,1-12.85,2.93c-1,.14-1.94.22-2.91.34a25.81,25.81,0,0,1-2.91.28c-1.24,0-2.49.13-3.74.14s-2.5-.19-3.73-.35c-.77-.11-.62-.42.06-.71a8.23,8.23,0,0,1,3.25-.57,94.74,94.74,0,0,0,14.7-1.87c1.46-.32,3-.64,4.43-1.1s3-.92,4.41-1.42c3.2-1.1,6.38-2.27,9.51-3.59l2.89-1.22,2.86-1.29c2.87-1.33,5.75-2.72,8.53-4.18,2.16-1.16,4.22-2.4,6.36-3.56.47-.26.92-.53,1.4-.77,1.82-.85,2.5-1,3.06-.76a2.35,2.35,0,0,1,.38.14c.3.21-.31.83-1.52,1.63-.89.63-1.82,1.2-2.77,1.77s-1.91,1.16-2.89,1.73c-2,1.1-4,2.16-6.07,3.2q-4.59,2.29-9.34,4.36Z"/><path class="cls-2" d="M283.63,312.48s5-4.12,4.58-2.32c-.45,2.08-7.11,13-3.51,14.78,2.38,1.18,17-9.84,25-7.71,1.52.41.23.85,0,.92-.6.17-30.58,12.5-30.58,12.5a26.4,26.4,0,0,1,1.7-12C283.27,313.06,283.63,312.48,283.63,312.48Z"/><path class="cls-2" d="M233.85,299.24a1.2,1.2,0,0,1-.69-.59c-.06-.08,0-.27.1-.29s.42-.07.63-.08a20.31,20.31,0,0,1,2.67.39,6.48,6.48,0,0,1,1.74.64,29.92,29.92,0,0,1,3.33,1.8l.36.25.57.48c1.34,1.15,2.05,2.28,1.34,3.61a1.87,1.87,0,0,0-.35.57,1.66,1.66,0,0,1-.65.55,9.55,9.55,0,0,1-1.66.66,8.46,8.46,0,0,1-1.69.26c-.82-.05-1.65,0-2.5-.05-.12,0-.24.05-.36-.05a1.08,1.08,0,0,0-.8-.15,3.7,3.7,0,0,1-1.09-.1,3.54,3.54,0,0,1-.53-.36c-.16-.11-.07-.4,0-.44s0-.25,0-.38a.56.56,0,0,1,0-.13,1.27,1.27,0,0,1,.3-.21,3,3,0,0,1,.66-.36,9.87,9.87,0,0,1,1.09-.44l.45-.1,1-.23,1.69-.43a1.54,1.54,0,0,1,.52,0c.72-.09.43-.28.43-.27h.18c.05,0,0,0,0,0s0,0-.12-.11l-.06-.06-.23-.18-.47-.36c-.32-.24-.68-.42-1-.64-.06,0-.11-.1-.17-.15a1.18,1.18,0,0,0-.22-.17c-.84-.49-1.67-1-2.55-1.41a15.4,15.4,0,0,0-1.28-.91C234.32,299.69,234,299.27,233.85,299.24Z"/><path class="cls-2" d="M218.82,307.48a.82.82,0,0,1,1,.16.38.38,0,0,1,0,.4,4.25,4.25,0,0,0-.36.37s-.39.27-.79.58a9.17,9.17,0,0,0-1,.91c-.39.4-.77.79-1.1,1.17a4.72,4.72,0,0,0-.47.57l-.16.27c0,.12,0,.08,0,.08h0l.09,0,.24,0a5.09,5.09,0,0,0,2.34-.32,1,1,0,0,0,.39-.19c.19-.15,2.39-1,2.69-1.12a16.82,16.82,0,0,0,2.21-.73c.11,0,.19-.12.32-.1a.93.93,0,0,0,.71-.18c.3-.15.59-.3.89-.42a4.51,4.51,0,0,1,.53-.1c.16,0,.28.2.26.26s.11.18.2.25l.08.08a4.16,4.16,0,0,1-.65,1,7.75,7.75,0,0,1-.9.94l-.43.27-.94.56c-.7.4-1.46.78-1.61.87a2.23,2.23,0,0,1-.52.15c-.06.05-2.31,1-2.43,1a4.07,4.07,0,0,1-1.57.24,1.73,1.73,0,0,0-.32,0,4.65,4.65,0,0,1-1.5,0,5.1,5.1,0,0,1-.92-.23,2.87,2.87,0,0,1-.92-.64,2.33,2.33,0,0,1-.44-2.12,2.26,2.26,0,0,1,.18-.39,3.22,3.22,0,0,1,.21-.35,8.79,8.79,0,0,1,2.37-2.38c.18-.17,1.28-.64,1.52-.78S218.7,307.56,218.82,307.48Z"/><path class="cls-1" d="M221.46,310.7l-.25,0-1.28.2a10.88,10.88,0,0,1-1.24.13,4.43,4.43,0,0,1-1.06,0c-.14,0-.24-.08-.26-.08s0,0,0,0,0,0,0-.08,0-.08,0-.12a.57.57,0,0,1,.06-.24,1.91,1.91,0,0,1,.5-.61c.25-.23.54-.48.87-.73a12.7,12.7,0,0,0,1.06-.85l.26-.27c.36-.51-1-1-1.09-1.05l-.15.1c-.27.16-.65.33-1,.52a8.33,8.33,0,0,0-1.2.69,3.93,3.93,0,0,0-1.1,1.31,2.54,2.54,0,0,0-.27,1,2.79,2.79,0,0,0,0,.5c0,.15.06.31.09.54s.18.42.28.62l.48.48a3.26,3.26,0,0,0,1,.47,6.86,6.86,0,0,0,1.66.21,11.87,11.87,0,0,0,2.95-.31l.27-.06C222.27,312.94,221.76,310.64,221.46,310.7Z"/><path class="cls-2" d="M221,305.2a1.06,1.06,0,0,1,.56,0,2.17,2.17,0,0,1,.47.1.12.12,0,0,1,0,.21.89.89,0,0,0-.43.41c0,.24-1.46,1.31-1.93,1.78a14.91,14.91,0,0,1-1.44,1.19c-1,.74-2.09,1.5-3.18,2.23a5.24,5.24,0,0,1-.77.43c-.92.42-1.79.92-2.71,1.42a1.53,1.53,0,0,0-.45.28,5.56,5.56,0,0,1-1.64.71,5.47,5.47,0,0,1-2.06.24,3.93,3.93,0,0,1-1.76-.67,2.6,2.6,0,0,1-.76-.79,2.65,2.65,0,0,1-.23-.48,1.9,1.9,0,0,1,0-.53,1.19,1.19,0,0,1,.17-.58c.33-.36.52-.7.81-1a3.51,3.51,0,0,1,1-.67,2.38,2.38,0,0,1,.55-.19c.17-.05.15.06.12.11s0,.11.09.12l0,0c0,.05-.31.5-.53,1s-.2.62-.22.67a.17.17,0,0,0,.16.23,2.42,2.42,0,0,0,.56.09,2.58,2.58,0,0,0,.46,0,2,2,0,0,1,.42,0,5.84,5.84,0,0,0,1-.36c.51-.23,1-.5,1.07-.53a6.34,6.34,0,0,1,1.34-.53A.93.93,0,0,0,212,310c.71-.44,1.47-.82,2.22-1.25.38-.22.74-.48,1.11-.73l.22-.1a1.38,1.38,0,0,0,.27-.14c.86-.6,1.79-1.12,2.69-1.72.2-.14,1.34-.58,1.59-.73a1.93,1.93,0,0,1,.44-.1A1.38,1.38,0,0,0,221,305.2Z"/><path class="cls-1" d="M215.68,308.15a.76.76,0,0,0-.35.11c-.26.12-.53.24-.8.34s-.53.24-.8.37a14.22,14.22,0,0,1-1.65.61,13,13,0,0,1-1.69.42,6.38,6.38,0,0,1-1.57.17c-.51,0-.56-.12-.64-.22s0-.35.32-.75a9.72,9.72,0,0,1,2.57-2.18c.11-.06.18-.18.27-.26.27-.34-.29-1.7-.85-1.62a1.64,1.64,0,0,0-.43.13,10.63,10.63,0,0,0-3.27,2.66,5,5,0,0,0-.33.51,2.53,2.53,0,0,0-.28.62,2.36,2.36,0,0,0,0,1.64,2,2,0,0,0,.44.73,2.21,2.21,0,0,0,.62.55,2.84,2.84,0,0,0,.7.31c.21.06.42.1.63.14a9.8,9.8,0,0,0,4.25-.5,11.09,11.09,0,0,0,3.69-1.79.83.83,0,0,0,.31-.33C217.06,309.26,216.19,308.19,215.68,308.15Z"/><path class="cls-2" d="M220.17,296.11a1.85,1.85,0,0,1,1.81.5c.17.15.13.61,0,.68-.37.13-.73.27-1.1.38-.11,0-1.06.16-2.14.39s-2.26.53-2.85.71c-1.14.34-2.28.66-3.38,1a14.29,14.29,0,0,0-1.59.66l-.37.19-.42.23-.82.45q-1.63.89-3.24,1.83c-.47.27-1,.54-1.43.79a19.79,19.79,0,0,0-4.52,3.11,2.75,2.75,0,0,0-.55.64l-.06.11h0v0s0,0,0,0h.1l.41-.07,1.11-.24a40.25,40.25,0,0,0,4.77-1.3,3.31,3.31,0,0,1,.68-.2,5.42,5.42,0,0,0,1.47-.44c.67-.25,1.34-.5,2-.73.33-.11.68-.18,1-.27s.21.14.12.2c-.27.18,0,.15.05.2s.05,0,0,.06a4.65,4.65,0,0,1-.58.35c-.35.21-.82.47-1.28.75-1,.54-2,1.1-2.17,1.19l-.92.44-2,.92c-1.47.67-3.1,1.29-3.45,1.4a3.87,3.87,0,0,1-.56.15l-.31.06-.48.07a4.37,4.37,0,0,1-1.52.07,2,2,0,0,1-1.11-.49,1.8,1.8,0,0,1-.58-1.26,3.36,3.36,0,0,1,.34-1.48c.12-.24.29-.47.42-.69a2.26,2.26,0,0,1,.23-.31l.19-.24a8.76,8.76,0,0,1,.67-.72,10.82,10.82,0,0,1,2.54-1.89,3.58,3.58,0,0,0,.52-.34,41.87,41.87,0,0,1,4.49-2.68l2.31-1.29a3.43,3.43,0,0,1,.44-.19c.18-.08.37-.16.54-.25a25.54,25.54,0,0,1,6.12-2.16c.47-.16,2.8-.36,3.36-.45C218.84,296,219.9,296.18,220.17,296.11Z"/><path class="cls-1" d="M209.93,305.16l-.43.13c-1.35.41-2.63.91-3.93,1.3a17.39,17.39,0,0,1-3.79.83,4.18,4.18,0,0,1-.68,0h0a1.68,1.68,0,0,1,.09-.27,3.19,3.19,0,0,1,.43-.69,12.28,12.28,0,0,1,1.34-1.37c.48-.46,1-.9,1.53-1.32l.34-.26c.38-.3-.13-1.22-.61-1l-.41.21a12.73,12.73,0,0,0-3.57,2.56,4.76,4.76,0,0,0-.76,1,6.69,6.69,0,0,0-.3.7,3.24,3.24,0,0,0,0,1,2,2,0,0,0,1.33,1.39,3.82,3.82,0,0,0,1.39.19,18.85,18.85,0,0,0,4.35-.85c1.37-.4,2.72-.82,4-1.3l.39-.14C211,307.12,210.47,305,209.93,305.16Z"/><path class="cls-2" d="M278.22,292.16c0,.16,1,.14,1.13.13,3.45-.64,2.69-5.68,3.22-8.19.41-1.94,2.09-2.24,3.85-2.33,12-.59,16.15-4.5,13.45-4.49s-21.54.18-21.44,1.28S278.22,292.12,278.22,292.16Z"/><path class="cls-2" d="M233.91,259.65l2.94.3c1,.05,2,.14,3,.16H242c2.55,0,5.1,0,7.65-.17,1.13-.08,2.26-.2,3.38-.35a38.89,38.89,0,0,1,4.34-.44c.9,0-.1,1.31-1.74,1.59a51.34,51.34,0,0,1-9,.62c-1.8,0-3.67.08-5.52,0-1,0-2-.09-3-.16s-2-.14-3-.26c-1.24-.1-2.47-.31-3.7-.48-1.86-.31-3.72-.69-5.53-1.16-1.43-.29-2.79-.74-4.18-1.15l-.89-.33c-1.09-.48-1.38-.76-1.54-1a.66.66,0,0,1-.1-.18c-.05-.16.45-.11,1.29.07.63.13,1.22.38,1.84.55l1.9.49c.62.19,1.26.35,1.91.49l1.94.46,2.92.55,3,.41Z"/><path class="cls-2" d="M250.25,261.28c7.19,0,37-5.4,35.69-7.22-.38-.54-24.95,2.23-24.95,2.23s-2.68,1.55-4.86,2.7C253.59,260.32,249.14,261.28,250.25,261.28Z"/><path class="cls-2" d="M265,261.21a125.92,125.92,0,0,1-14.37,1.16c-1.75.07-3.5.11-5.25.08a101.52,101.52,0,0,1-18.41-1.93,72.36,72.36,0,0,1-8-2c-.83-.3-1.67-.53-2.49-.88l-2.42-1.06c-.79-.41-1.55-.87-2.32-1.31a20.27,20.27,0,0,1-2.15-1.56c-.87-.68-.54-.83.41-.59a13.29,13.29,0,0,1,1.81.63,21.15,21.15,0,0,1,2.45,1,72.81,72.81,0,0,0,9.81,3.27,100.71,100.71,0,0,0,10.33,2,89.45,89.45,0,0,0,12.94.68,139.39,139.39,0,0,0,14.29-.84l4.37-.58,4.34-.76a99.62,99.62,0,0,0,12.85-3.52c3.25-1.14,6.36-2.45,9.43-3.87l2-1c2.5-1.2,3.32-1.53,4.09-1.37a2.27,2.27,0,0,1,.51.11c.42.2-.42,1.06-2.24,2.09a90,90,0,0,1-17.74,7.26c-2.32.7-4.67,1.32-7.06,1.84-1.2.27-2.4.47-3.6.68s-2.39.44-3.6.59Z"/><path class="cls-2" d="M272.37,229.28a32.77,32.77,0,0,1-5,2.39c-.63.22-1.25.48-1.89.67a35.8,35.8,0,0,1-6.94,1.29c-1,.06-2.08.17-3.12.13a14.37,14.37,0,0,1-4-.48c-.4-.11-.3-.28.08-.42a5.24,5.24,0,0,1,1.75-.23,44.47,44.47,0,0,0,7.79-.51,25.86,25.86,0,0,0,4.66-1.3,33.21,33.21,0,0,0,4.88-2.16c1-.53,1.9-1.11,2.81-1.73a37.12,37.12,0,0,0,4-3,28.57,28.57,0,0,0,2.7-2.69c.18-.21.34-.42.54-.62.71-.74.94-1,1.26-1,.07,0,.15,0,.2,0s.11.45-.26,1.19a17.32,17.32,0,0,1-4.92,5.46,46.21,46.21,0,0,1-4.57,3.14Z"/><path class="cls-2" d="M219.44,148s.38,7.86-5.07,10.43-23.58,3-30.06-10.43c0,0-7.69-15.18,8.95-24.25a16.34,16.34,0,0,1,11-1.16s3.19-19.08,22-23.45c0,0,13.31-3.73,21.08,6.31l1,.81s6.3-14.08,21.83-12.47c0,0,14.5,1.25,18.2,19.2a2.14,2.14,0,0,0,2.51,1.67c7.4-1.7,26.88-.68,25.37,22.44-.1,1.63,12.68,3.88,2.33,18.91-8.06,11.69-20.7,11.27-23.65,8.68-4-3.54,1.78-12.6,3.83-16a15.81,15.81,0,0,1-13.29,1c-7.7-2.68-11.18-9-12-17.09,0,0-5.36,10.11-14.28,11s-14.91-3.74-15.24-13.67c0,0-9.6,12.28-21.15,15.91Z"/><path class="cls-2" d="M206.27,160.84s1.14,13.73,1.08,14.94c0,0-2.28-2.34-7-1.74-14,1.74-18.41-16.68-12.93-20.24C187.42,153.78,200.72,163.49,206.27,160.84Z"/><path class="cls-2" d="M253.81,233.07a55,55,0,0,1-6.14-.48c-1-.16-2-.24-3-.47l-3-.7a42.67,42.67,0,0,1-11.31-4.94,40.74,40.74,0,0,1-7-5.68,48.64,48.64,0,0,1-8.85-13,77,77,0,0,1-5.09-14.72,123.77,123.77,0,0,1-2.5-13.51,120.27,120.27,0,0,1-1-17.43c0-.45,0-.75,0-.94s.08-.31.16-.31.46.37.73,1.13a31,31,0,0,1,1.62,7.61c1.13,11.68,2.71,23.34,7,34.28a44.5,44.5,0,0,0,12.11,17.31,35,35,0,0,0,9.9,6.11,24.62,24.62,0,0,0,2.76,1l1.39.47c.47.13.95.22,1.43.34,1,.21,1.9.47,2.87.64l2.93.41c1.19.21,2.42.17,3.63.27l1.82.09,1.8-.08,1.8-.09,1.78-.28c.6-.1,1.2-.18,1.79-.3l1.73-.48a33.08,33.08,0,0,0,9.9-4.64,22.21,22.21,0,0,0,2.22-1.63,23.81,23.81,0,0,0,2.11-1.77l2-1.89,1.82-2a50.05,50.05,0,0,0,8.45-14.51l1.22-3.47c1.4-4.39,1.76-5.81,2.76-6.61a5.59,5.59,0,0,1,.63-.55c.59-.34.74,1.67-.07,5.1A53.62,53.62,0,0,1,288,212.17a47.41,47.41,0,0,1-10.85,12.61,36.14,36.14,0,0,1-23.36,8.36Z"/><path class="cls-2" d="M192.76,186.33a10.08,10.08,0,0,1-.5-7.3,8.13,8.13,0,0,1,1.26-2.47,9.34,9.34,0,0,1,8.4-3.28,8.63,8.63,0,0,1,3.85,1.31,5.88,5.88,0,0,1,2.84,4.24c.08.54-.43.55-1,.32a4.13,4.13,0,0,1-.94-.47,2.37,2.37,0,0,1-.82-.67,5.85,5.85,0,0,0-2.93-1.88,8.79,8.79,0,0,0-3.8-.12,5.71,5.71,0,0,0-3.83,2.73,6.61,6.61,0,0,0-.61,5.32,10.59,10.59,0,0,0,1.57,3.29,14.37,14.37,0,0,0,4.06,3.94,10.78,10.78,0,0,0,4,1.43l.88.12a3.87,3.87,0,0,1,1.14.27,1.91,1.91,0,0,1,.58.65c.07.13.17.25.22.36s0,.39-.22.61a2,2,0,0,1-1.16.54,7.92,7.92,0,0,1-2.38,0,11.58,11.58,0,0,1-2.29-.68,15.08,15.08,0,0,1-4-2.52,16.55,16.55,0,0,1-4.29-5.67Z"/><path class="cls-2" d="M307.49,184.57a11.61,11.61,0,0,0,1.77-6.19,9.16,9.16,0,0,0-.43-2.24,5.41,5.41,0,0,0-2.21-3,4.15,4.15,0,0,0-.87-.43,4.77,4.77,0,0,0-.95-.29,6.4,6.4,0,0,0-2-.1,5.55,5.55,0,0,0-3.18,1.68c-1.19,1.14-2.13,2.68-3.61,3.85-.46.37-.89-.17-1.06-1a3.12,3.12,0,0,1,.54-2.65,13.63,13.63,0,0,1,4.72-4,7.52,7.52,0,0,1,3.42-.64A8.79,8.79,0,0,1,310,172.8a8.44,8.44,0,0,1,1.67,3.56,13.2,13.2,0,0,1-1,8,16.5,16.5,0,0,1-2.62,4.11,17.74,17.74,0,0,1-5.84,4.31,21.94,21.94,0,0,1-5.26,1.85c-.41.08-.8.15-1.21.2a3.21,3.21,0,0,1-1.63-.09,1.57,1.57,0,0,1-.71-.73,2.67,2.67,0,0,1-.2-.42c-.06-.23.06-.44.32-.66a2.3,2.3,0,0,1,1.14-.55,24.94,24.94,0,0,0,8.29-3.14,13.74,13.74,0,0,0,4.49-4.67Z"/><path class="cls-2" d="M230.72,143.32a29,29,0,0,1-9.31,4.36,15.37,15.37,0,0,1-3.9.47,11.72,11.72,0,0,1-6.53-2.28,4.32,4.32,0,0,1-.7-.55c-.22-.21-.45-.41-.66-.63a9.55,9.55,0,0,1-1-1.44,11.79,11.79,0,0,1-1.3-3.16,22.83,22.83,0,0,1-.7-5.77,21.33,21.33,0,0,1,1.06-7.19c.25-.72.55-.53.79.15a10.24,10.24,0,0,1,.52,3.2q0,1.76,0,3.48c.05,1.15.2,2.27.3,3.38a17.88,17.88,0,0,0,.75,3.17,8.3,8.3,0,0,0,1.52,2.62,5,5,0,0,0,.66.63l.8.57a9.32,9.32,0,0,0,1.8.8,10.39,10.39,0,0,0,4,.39,20.27,20.27,0,0,0,8.68-3.2,43.54,43.54,0,0,0,4.85-3.44A64.69,64.69,0,0,0,239,132.7c1.6-1.73,3-3.57,4.41-5.41.31-.41.59-.82.92-1.23a5.78,5.78,0,0,1,1.44-1.44,1.66,1.66,0,0,1,.56-.24,2.24,2.24,0,0,1,.58,0c.18,0,.36,0,.48,0,.37.07.41,1.12-.36,2.32a62.82,62.82,0,0,1-8.43,10.11,61.21,61.21,0,0,1-7.79,6.51Z"/><path class="cls-2" d="M261.2,144.47a13.83,13.83,0,0,1-7.8.49l-.7-.14-.68-.22c-.45-.16-.9-.28-1.35-.49a10.74,10.74,0,0,1-3.86-3.31,15.22,15.22,0,0,1-2.23-4.33,18.19,18.19,0,0,1-.89-4.19,9.25,9.25,0,0,1,1-5.36c.28-.5.56-.26.75.31a5.81,5.81,0,0,1,.22,1,4.86,4.86,0,0,1,.07,1.27,13.36,13.36,0,0,0,.08,2.37,9.49,9.49,0,0,0,.14,1.18,7.81,7.81,0,0,0,.23,1.17,17.52,17.52,0,0,0,1.78,4.5,7.79,7.79,0,0,0,1.9,2.22,7.35,7.35,0,0,0,2.55,1.35,11.12,11.12,0,0,0,6.49.35,12.65,12.65,0,0,0,2-.63,20.67,20.67,0,0,0,1.88-.95,23,23,0,0,0,5.08-4.05,32.77,32.77,0,0,0,3-4c.21-.3.38-.63.61-.92.79-1.13,1.38-1.25,2-1.19a2.35,2.35,0,0,1,.4,0c.2.05.27.24.28.56a3.12,3.12,0,0,1-.24,1.29,19.85,19.85,0,0,1-2.62,4,27.72,27.72,0,0,1-3.49,3.63,21.84,21.84,0,0,1-6.6,4.05Z"/><path class="cls-2" d="M285.74,151.26a18.33,18.33,0,0,1-5.9-2.85,11.44,11.44,0,0,1-1-.72c-.3-.26-.63-.49-.91-.78a19.29,19.29,0,0,1-1.39-1.59,15.06,15.06,0,0,1-1.15-1.75,21.91,21.91,0,0,1-1.65-3.75,24.49,24.49,0,0,1-.93-3.51,7.84,7.84,0,0,1,.38-4.68c.21-.46.53-.24.8.24a4.53,4.53,0,0,1,.6,1.91,22.66,22.66,0,0,0,2.2,8,9.85,9.85,0,0,0,1.38,2.19,11.17,11.17,0,0,0,.89.94l.47.46.5.42a15.28,15.28,0,0,0,5,2.88l.85.28.88.21a15,15,0,0,0,1.78.31,15.92,15.92,0,0,0,5.46-.33,14,14,0,0,0,3.82-1.69,7.57,7.57,0,0,1,.76-.49,4,4,0,0,1,1.12-.47,1.42,1.42,0,0,1,.81.2,2.71,2.71,0,0,1,.34.18c.15.12.18.3.09.58a2.09,2.09,0,0,1-.61,1,10,10,0,0,1-1.69,1.31,16.18,16.18,0,0,1-2,1,17,17,0,0,1-4.32,1.08,18.86,18.86,0,0,1-6.65-.47Z"/><path class="cls-2" d="M319.43,161.87a28.77,28.77,0,0,1-10.6,6.84,25.37,25.37,0,0,1-4.42,1.28,17.55,17.55,0,0,1-4.13.36,10.32,10.32,0,0,1-4.21-1,7.54,7.54,0,0,1-3.25-3,9.69,9.69,0,0,1-1.17-4.1,17,17,0,0,1,1.14-7.1,15,15,0,0,1,5.36-7.27c.81-.51.9-.12.59.7A19.67,19.67,0,0,1,297,152a18.68,18.68,0,0,0-2.91,7.59c-.34,2.63.11,5.39,1.93,7a5.56,5.56,0,0,0,1.94,1.08,8.12,8.12,0,0,0,2.39.33,19.67,19.67,0,0,0,5.13-.79,25.51,25.51,0,0,0,10.2-5.36,30.92,30.92,0,0,0,4.87-5.34,28.46,28.46,0,0,0,2.79-4.71,13,13,0,0,0,1.26-5.13,8.33,8.33,0,0,0-.86-3.78,8.83,8.83,0,0,0-2.46-2.91l-.68-.51-.73-.44c-1.85-1.11-2.48-1.45-2.63-2.41a4.9,4.9,0,0,1-.11-.63c0-.32.27-.51.77-.54a4.42,4.42,0,0,1,2.1.45,14,14,0,0,1,3.69,2.27,10.67,10.67,0,0,1,3.69,8.48,16,16,0,0,1-.84,4.56,25.81,25.81,0,0,1-3,5.82,37.34,37.34,0,0,1-4,5Z"/><path class="cls-2" d="M313.72,120.2a14.61,14.61,0,0,0-4.31-4.93,10.45,10.45,0,0,0-1-.71c-.34-.23-.7-.44-1.05-.64a17.44,17.44,0,0,0-8.24-2.74,12.66,12.66,0,0,0-3.88.4,7.2,7.2,0,0,0-1.2.36c-.39.15-.79.26-1.17.43s-.78.3-1.18.44-.78.33-1.18.48-.68-.22-.49-.83a3.45,3.45,0,0,1,1.71-2,15.71,15.71,0,0,1,5.57-1.53,14.87,14.87,0,0,1,5.75.68,25.74,25.74,0,0,1,6.37,2.77,25,25,0,0,1,3,2.29c.48.39.92.9,1.37,1.35s.83,1,1.22,1.51a16.76,16.76,0,0,1,2.08,4.25,24.2,24.2,0,0,1,1,6.93A52.36,52.36,0,0,1,318,134c0,.39,0,.78-.1,1.17-.23,1.44-.62,1.83-1.37,2-.16,0-.3.09-.42.1s-.35-.12-.56-.43a2,2,0,0,1-.29-1.25,74.67,74.67,0,0,0,.15-9.09,15.93,15.93,0,0,0-1.73-6.27Z"/><path class="cls-2" d="M264.55,90.24A21.76,21.76,0,0,1,267.1,90l1.28,0,1.28.09a28.46,28.46,0,0,1,4.9.93c.6.13,1.16.36,1.74.53l.87.28c.28.11.56.24.83.36a22.75,22.75,0,0,1,9.66,8.12,18.86,18.86,0,0,1,2.45,5.07,12.48,12.48,0,0,1,.39,7.13c-.17.73-.55.54-.95-.11a7.76,7.76,0,0,1-.95-2.91,16.85,16.85,0,0,0-1.9-6,21.18,21.18,0,0,0-3.84-5.22,19.56,19.56,0,0,0-7-4.1A23.33,23.33,0,0,0,267,92.61a19.74,19.74,0,0,0-5.45,1.12,22,22,0,0,0-7.25,4.44,21.42,21.42,0,0,0-3.92,5.2c-.24.41-.45.82-.66,1.25-.84,1.55-1.18,2-2,2.11a3.47,3.47,0,0,1-.52.08c-.53,0-.63-.88-.23-2.28a19.56,19.56,0,0,1,3.19-5.73,23.74,23.74,0,0,1,14.37-8.62Z"/><path class="cls-2" d="M214.12,101.94A26.5,26.5,0,0,1,223,97.47a18,18,0,0,1,1.74-.48,13.8,13.8,0,0,1,1.77-.34,28.91,28.91,0,0,1,12.44,1.1,20.3,20.3,0,0,1,5.09,2.31,10.53,10.53,0,0,1,4.66,5.42c.28.71-.19.77-.9.47a7.65,7.65,0,0,1-1.2-.65,3.48,3.48,0,0,1-1.32-1,15,15,0,0,0-5.15-3.36,26.78,26.78,0,0,0-6.27-1.76,24.54,24.54,0,0,0-8.14.35,23.41,23.41,0,0,0-8.28,3.36,25.8,25.8,0,0,0-4.34,3.55,27.82,27.82,0,0,0-5,6.88,24.69,24.69,0,0,0-2,6.17c-.12.46-.13.93-.23,1.39a8.94,8.94,0,0,1-.46,1.82,1.42,1.42,0,0,1-.8.76,3.06,3.06,0,0,1-.51.21c-.56.14-.92-.66-.91-2.1a23.13,23.13,0,0,1,1.28-6.33,28.7,28.7,0,0,1,3-6,29.91,29.91,0,0,1,6.74-7.37Z"/><path class="cls-2" d="M194.6,158.47a32.24,32.24,0,0,1-6.26-4,22.73,22.73,0,0,1-4.93-5.63,17.94,17.94,0,0,1-2.17-5.07,19.16,19.16,0,0,1-.45-4.83,18.94,18.94,0,0,1,.87-4.72,21.2,21.2,0,0,1,4.67-8.19,16,16,0,0,1,7.11-4.43,17.16,17.16,0,0,1,10.54.19c1.05.3.76.71-.23,1a8.59,8.59,0,0,1-1.91.24c-.38,0-.79,0-1.22.06a12,12,0,0,1-1.33,0,14.28,14.28,0,0,0-9.06,2.5l-1,.7-.87.83a19.84,19.84,0,0,0-1.61,1.8,22.84,22.84,0,0,0-2.45,4.28A16.47,16.47,0,0,0,183,139a15.78,15.78,0,0,0,1.06,5.94c1.55,4.19,5,7.51,8.93,9.87a34.34,34.34,0,0,0,7.82,3.37,29.58,29.58,0,0,0,6.34,1.16,11,11,0,0,0,3.1-.19,13.52,13.52,0,0,0,2.93-1.06,10.85,10.85,0,0,0,5.87-6.94,11.72,11.72,0,0,0,.36-2c.21-2.53.15-3.37.84-4a3.82,3.82,0,0,1,.45-.45c.26-.17.52,0,.77.51a5.8,5.8,0,0,1,.35,1,4.94,4.94,0,0,1,.22,1.43,12.26,12.26,0,0,1-.09,2.49c-.06.42-.1.85-.19,1.27l-.37,1.25a12.1,12.1,0,0,1-2.71,4.55,15.19,15.19,0,0,1-4.29,3.15,17.68,17.68,0,0,1-2.47,1c-.41.12-.89.26-1.29.34a10.67,10.67,0,0,1-1.43.2,25.28,25.28,0,0,1-7.6-.86,38.51,38.51,0,0,1-7-2.51Z"/><path class="cls-2" d="M185.16,171.37a18.37,18.37,0,0,1-2.79-4.77,13,13,0,0,1-.69-1.93,12,12,0,0,1-.23-3.63,10.22,10.22,0,0,1,1-3.46,16.31,16.31,0,0,1,1.57-2.69,8.7,8.7,0,0,1,2.88-2.59c.36-.19.57.2.6.77a2.73,2.73,0,0,1-.47,1.79,13.61,13.61,0,0,0-3,5.68,7.64,7.64,0,0,0,.42,4,14.14,14.14,0,0,0,2.15,4.17,15.42,15.42,0,0,0,2,2.24,14.49,14.49,0,0,0,3.65,2.63,9.16,9.16,0,0,0,3.25.82c.23,0,.46,0,.69,0,.85,0,1.08.22,1.34.94.06.16.14.32.19.49.16.53-.23,1.07-1.11,1.26a10.54,10.54,0,0,1-7.26-2,19.75,19.75,0,0,1-4.16-3.74Z"/><path class="cls-2" d="M281.71,254.48A179.1,179.1,0,0,1,257.18,257c-3,.1-6,.2-9,.13a137.07,137.07,0,0,1-15.81-1.23,92.16,92.16,0,0,1-15.53-3.39,46.94,46.94,0,0,1-6.63-2.64,24.25,24.25,0,0,1-3.13-1.85,11.63,11.63,0,0,1-2.73-2.57,6.37,6.37,0,0,1-1.12-2.36,4.85,4.85,0,0,1,.2-2.73,10,10,0,0,1,3-3.89,21.37,21.37,0,0,1,8.16-4.22c1.89-.43,1.67.09.34,1s-3.68,2.48-6.1,4.5a10.8,10.8,0,0,0-2.56,2.92,3,3,0,0,0-.4,1.39,1.34,1.34,0,0,0,.07.57c0,.19.21.44.29.67a9.43,9.43,0,0,0,2.63,2.6,24.48,24.48,0,0,0,3.66,2.08,72.22,72.22,0,0,0,17,4.95,120.47,120.47,0,0,0,22.08,1.59A173.42,173.42,0,0,0,276,252.68c1.24-.17,2.48-.37,3.72-.59s2.48-.42,3.71-.66l1.85-.36c.6-.11,1.19-.27,1.78-.43,1.19-.33,2.38-.71,3.56-1.12A63.41,63.41,0,0,0,301,244.93a29.07,29.07,0,0,0,4.57-3.18,10,10,0,0,0,3.1-4.19,4.13,4.13,0,0,0,.2-1.82,3.43,3.43,0,0,0-.7-1.59,9.1,9.1,0,0,0-3.18-2.31,34.46,34.46,0,0,0-8.11-2.36c-1.24-.23-2.47-.39-3.73-.55-4.69-.58-6.17-.72-7.18-1.48a5.85,5.85,0,0,1-.67-.49c-.48-.54,1.54-1.07,5.13-.89a58.83,58.83,0,0,1,8.05,1,31.07,31.07,0,0,1,8.13,2.59,11,11,0,0,1,3.82,3,6.18,6.18,0,0,1,1.11,2.71,7.15,7.15,0,0,1-.23,2.8,11.13,11.13,0,0,1-2.55,4.25,22,22,0,0,1-3.42,3A53.22,53.22,0,0,1,294,251.21c-2,.76-4,1.45-6,2a30.77,30.77,0,0,1-3.14.72l-3.06.59Z"/><path class="cls-2" d="M230.37,355.54a141.9,141.9,0,0,1-20.68,5.2,71.59,71.59,0,0,1-21.44.74,38.16,38.16,0,0,1-7.74-1.88,25.55,25.55,0,0,1-7.08-3.9,22.94,22.94,0,0,1-7.6-11.9,38.59,38.59,0,0,1-.79-13.89,89.75,89.75,0,0,1,2.53-13.48c1.16-4.42,2.54-8.75,4.09-13,2.74-7.59,5.87-15.06,9.28-22.29,2.19-4.64,4.48-9.25,6.94-13.77a84.69,84.69,0,0,1,8.34-13c1-1.26,1.59-1.71,1.66-1.58s-.3.84-.86,2.08-1.31,3-2.28,5.12c-.49,1-1,2.2-1.59,3.38s-1.26,2.43-2,3.71a296,296,0,0,0-13.47,28.05c-2,4.8-3.85,9.65-5.48,14.58a118.48,118.48,0,0,0-4,15,60.91,60.91,0,0,0-1,9.26,30.84,30.84,0,0,0,1,9.21,21.33,21.33,0,0,0,4.26,8.05,20.72,20.72,0,0,0,7.34,5.36,32.85,32.85,0,0,0,9.89,2.56,59.3,59.3,0,0,0,10.41.14,106.86,106.86,0,0,0,20.68-3.71,161.29,161.29,0,0,0,24.41-8.84c11.93-5.55,23.64-11.82,35.52-17.44,2.31-1.09,4.6-2.14,6.86-3.26l6.81-3.32a86.47,86.47,0,0,1,14.22-5.55,44.41,44.41,0,0,1,6.66-1.36,27.24,27.24,0,0,1,9.08.24,14.3,14.3,0,0,1,2.32.73,8.67,8.67,0,0,1,1.44.86,7.32,7.32,0,0,1,1,.77c.3.35-.4.42-1.87.27l-1.24-.15-1.55-.08c-.56,0-1.15-.13-1.8-.13l-2.06,0a42.46,42.46,0,0,0-12.94,2.2,100.39,100.39,0,0,0-12.68,5.16l-6.33,3.07c-2.13,1-4.32,2-6.43,3-4.26,2-8.51,4.12-12.76,6.26-6.31,3.18-12.62,6.44-19.07,9.5a165,165,0,0,1-19.94,8.08Z"/><path class="cls-2" d="M283.16,309.87q-6.48-.84-13-1.33l-4.77-.26q-8.4-.57-16.84-.8c-2.5-.07-5-.05-7.48,0a90.05,90.05,0,0,1-9.58,0c-1-.09-.86-.54,0-1a9.9,9.9,0,0,1,4.21-1.2,183.58,183.58,0,0,1,19.62.14c3.93.26,8,.25,12,.48q6.63.36,13.25,1.06c2.71.3,5.42.63,8.12,1,4.1.58,8.19,1.35,12.21,2.26a69.07,69.07,0,0,1,9.26,2.54c.66.27,1.32.53,2,.82a12.5,12.5,0,0,1,1.49.85,3.92,3.92,0,0,1,.93.74,1.93,1.93,0,0,1,.57,1.37,2.51,2.51,0,0,1,0,.62c-.19.6-1.27.34-2.86-.41-4.81-2.21-10.46-3.56-16.17-4.73-4.26-.83-8.59-1.51-13-2Z"/><path class="cls-2" d="M343.15,353.68a16.62,16.62,0,0,0,3.67-5.61,43.23,43.23,0,0,0,2.38-6.78,56.52,56.52,0,0,0,1.73-14.41,79.71,79.71,0,0,0-.81-10.67,110.63,110.63,0,0,0-4.17-18.5A135.34,135.34,0,0,0,339,280a124.9,124.9,0,0,0-8.28-14.74,88.88,88.88,0,0,0-6.44-8.61c-1.16-1.35-2.34-2.69-3.61-3.9a16.06,16.06,0,0,0-4.12-3.05c-.9-.46-1.34-.52-1.31-.7s.57-.36,1.62-.28c2.12.14,5.57,2.06,8.57,5.15a75.48,75.48,0,0,1,7,8.9,102,102,0,0,1,5.87,9.64,131.81,131.81,0,0,1,8.92,20.71c2.83,8.55,5.32,17.68,6.16,26.93a70,70,0,0,1-.2,15.31A49.63,49.63,0,0,1,349,350.11a20.08,20.08,0,0,1-1.13,2.14,12.3,12.3,0,0,1-1.4,2l-.81.95a10.54,10.54,0,0,1-.92.84c-.31.27-.62.56-.94.81l-1,.68a20.86,20.86,0,0,1-9.21,2.87,39.24,39.24,0,0,1-7.19,0,69.09,69.09,0,0,1-7-1c-4.64-.9-9.19-2.11-13.67-3.4-7-2-13.73-4.16-20.55-6.15-1.5-.43-3-.81-4.49-1.23-2.81-.74-4.64-1.15-5.91-1.53a9.87,9.87,0,0,1-2.58-1.11,6.71,6.71,0,0,1-.81-.53c-.28-.28.17-.51,1.31-.69a18.34,18.34,0,0,1,2.14-.09,22,22,0,0,1,2.92.37,184.57,184.57,0,0,1,19,5.2c6.34,2,12.73,4,19.21,5.44a67.09,67.09,0,0,0,14.45,1.94,27.76,27.76,0,0,0,6.93-.88,13.2,13.2,0,0,0,5.76-3.15Z"/><path class="cls-2" d="M205.31,299.64a15.33,15.33,0,0,1,2.88-1.28c.93-.27,1.86-.51,2.79-.74,1.86-.46,3.72-.85,5.6-1.22,1.36-.27,2.72-.58,4.11-.78,1.22-.18,2.45-.32,3.7-.41a15.67,15.67,0,0,1,3.91.1,35.05,35.05,0,0,1,7.12,2.39,65.27,65.27,0,0,1,5.87,2.9,20.75,20.75,0,0,1,6.63,5.17c.55.7.2.82-.6.61-.4-.11-.9-.29-1.51-.5a12.44,12.44,0,0,1-1.88-.92,64.17,64.17,0,0,0-7.13-3.85,59.45,59.45,0,0,0-7.51-3.11,10.43,10.43,0,0,0-2.26-.46,16.63,16.63,0,0,0-2.42.08c-1.66.16-3.36.46-5,.76a108,108,0,0,0-10.94,2.48,19.11,19.11,0,0,0-3,1.47c-1,.57-2,1.19-2.92,1.84-1.44,1-2.87,2-4.21,3.11l-.82.7a5.41,5.41,0,0,0-.54.53,1.1,1.1,0,0,0-.22.31c-.07.13.08.22.16.3a1.49,1.49,0,0,0,.69.28,3.79,3.79,0,0,0,.58,0l.32,0,.47,0a14.28,14.28,0,0,0,1.9-.4c1.26-.34,2.5-.79,3.74-1.26l1.61-.66c2-.82,2.73-1,3.41-.6a4.54,4.54,0,0,1,.45.25c.36.33-.3,1.07-1.78,1.81a36.1,36.1,0,0,1-7.11,2.76c-.65.16-1.32.31-2,.42l-.54.06-.41,0H198a5.56,5.56,0,0,1-.92-.05,3.3,3.3,0,0,1-.85-.19,3.48,3.48,0,0,1-1.34-.74c-.32-.33-.75-.68-.69-1.2,0-.23-.15-.4-.11-.61a.74.74,0,0,1,.05-.32,1.59,1.59,0,0,1,.12-.32,2.56,2.56,0,0,1,.43-.68,6,6,0,0,1,.59-.67c.31-.34.68-.66,1-1l.6-.51c.38-.33.76-.64,1.14-.94q1.16-.92,2.34-1.77a56.68,56.68,0,0,1,5-3.2Z"/><path class="cls-2" d="M212.9,312.9a14.33,14.33,0,0,1-3.11,1.29,10.06,10.06,0,0,1-1.74.31,11.7,11.7,0,0,1-1.77,0,3.5,3.5,0,0,1-1.6-.52,1.91,1.91,0,0,1-.84-1.66,2.83,2.83,0,0,1,.14-.83,4.16,4.16,0,0,1,.25-.6,6.16,6.16,0,0,1,.61-1,14.67,14.67,0,0,1,1.43-1.59,24.44,24.44,0,0,1,3.22-2.56c1-.68,2-1.35,3-2a12.22,12.22,0,0,1,4.33-1.68c.49-.06.48.25.19.68a5,5,0,0,1-1.52,1.4c-1.26.73-2.53,1.46-3.77,2.27s-2.43,1.69-3.6,2.6a9.86,9.86,0,0,0-1.83,1.88,4.59,4.59,0,0,0-.56,1,.44.44,0,0,0,0,.46c.08.23,1.29.34,2.19.19a8.68,8.68,0,0,0,2.71-.88,24.56,24.56,0,0,0,3.2-1.91l2.39-1.67,2.37-1.7a17.2,17.2,0,0,1,4-2.36,9,9,0,0,1,1-.33c1.29-.33,1.75,0,2,.45a2.49,2.49,0,0,1,.2.34c.13.38-.35.74-1.12,1.08a14.14,14.14,0,0,0-3.33,1.47,37.29,37.29,0,0,0-3.27,2.26c-1.72,1.2-3.35,2.44-5.29,3.57Z"/><path class="cls-2" d="M221.64,313.41a34.32,34.32,0,0,1-3.61,1.32,9.63,9.63,0,0,1-1.43.35,6.45,6.45,0,0,1-1.4.05,2.57,2.57,0,0,1-1.49-.62A2.18,2.18,0,0,1,213,313a2.38,2.38,0,0,1,.55-1.42,11.18,11.18,0,0,1,4-3c.52-.24.41,1-.38,1.6s-1.38,1.11-2,1.66a3.63,3.63,0,0,0-.68.82l-.08.17a.7.7,0,0,1,0,.12.38.38,0,0,1,0,.1,1.07,1.07,0,0,1,.07.19c.22.49,1.32.37,2.3,0a30.32,30.32,0,0,0,3.37-1.27c.7-.3,1.39-.62,2.08-1,1-.51,2.09-1,3.12-1.57.79-.42,1.52-1,2.34-1.4.18-.09.35-.2.55-.28.71-.31,1.05-.14,1.33.28a2.38,2.38,0,0,1,.18.3c.15.35,0,.73-.43,1.07a29.86,29.86,0,0,1-4.15,2.38c-1.1.56-2.25,1.09-3.4,1.62Z"/><path class="cls-2" d="M278.16,322a35.73,35.73,0,0,1,1.43-3.94c.18-.48.35-1,.57-1.43A28.77,28.77,0,0,1,283,312c.47-.65,1-1.28,1.46-1.9.34-.39.66-.79,1-1.16a7.55,7.55,0,0,1,1.23-.94c.27-.16.5.18.6.67a2,2,0,0,1-.27,1.53c-.57.75-1.12,1.5-1.62,2.28-.28.38-.55.76-.82,1.15s-.57.76-.84,1.16a6.79,6.79,0,0,0-.83,1.55c-.24.54-.42,1.12-.64,1.68-.48,1.21-.88,2.48-1.29,3.74-.23.79-.48,1.58-.66,2.39a35.31,35.31,0,0,0-.76,3.68c-.15,1-.05,1.95-.17,2.91,0,.21,0,.42-.07.63a1.18,1.18,0,0,1-.36.8,1.13,1.13,0,0,1-.67.27l-.37.06c-.38,0-.71-.37-.92-1a14.47,14.47,0,0,1,.19-5.44c.24-1.36.57-2.72.93-4.08Z"/><path class="cls-2" d="M199.41,380.43c-.18,2-.34,4.1-.43,6.16,0,.75,0,1.5,0,2.25-.12,2.66-.24,5.33-.35,8-.05,1.18,0,2.37,0,3.54a24.62,24.62,0,0,1-.13,4.54c-.07.47-.49.4-.92,0a3.19,3.19,0,0,1-1-2c-.14-1.54-.16-3.07-.19-4.61a45,45,0,0,1,.15-4.64c.15-1.86,0-3.8.07-5.7q.06-3.15.26-6.29c.07-1.29.18-2.58.27-3.87.15-2,.39-3.91.55-5.85.08-.75.11-1.5.14-2.25l.16-2.25c0-.33,0-.66.09-1,.19-1.22.45-1.58,1.15-1.71a2.72,2.72,0,0,1,.47-.08c.52,0,.85.55.87,1.45a70.47,70.47,0,0,1-.53,8.12c-.2,2.05-.41,4.1-.55,6.17Z"/><path class="cls-2" d="M326.71,381l.2,6.06c0,.74.12,1.47.13,2.2,0,2.6,0,5.2,0,7.8,0,1.15,0,2.31.07,3.45a20.06,20.06,0,0,1-.14,4.44c-.08.46-.46.36-.84,0a3.27,3.27,0,0,1-.84-1.92,84.67,84.67,0,0,1-.36-8.9c0-1.8-.25-3.65-.34-5.49l-.33-6c-.08-1.25-.16-2.49-.27-3.72-.16-1.88-.3-3.76-.59-5.61a41.81,41.81,0,0,0-1-4.19c-.08-.31-.15-.61-.21-.92-.21-1.14-.07-1.54.57-1.93a5.05,5.05,0,0,1,.45-.25c.5-.21,1,.18,1.39,1a17.23,17.23,0,0,1,1.14,3.87c.25,1.34.43,2.7.57,4.06.22,2,.35,4.08.48,6.11Z"/><path class="cls-2" d="M299.74,82.48a105.56,105.56,0,0,0-33.61-8.62,116.28,116.28,0,0,0-34.76,2,107.52,107.52,0,0,0-24,8.28A88.91,88.91,0,0,0,188.4,96.09a66.89,66.89,0,0,0-14.51,16.84,87.38,87.38,0,0,0-12.66,42.63,99,99,0,0,0,1.3,20,111.59,111.59,0,0,0,5.1,19.29A118.19,118.19,0,0,0,179,217.69a113.7,113.7,0,0,0,7.35,10.43c1.34,1.64,2.73,3.25,4.18,4.81s2.9,3.11,4.46,4.53c1.94,1.79,2.86,2.43,2.69,2.57s-1.4-.37-3.33-1.65a51.2,51.2,0,0,1-7.4-6c-1.43-1.38-2.92-2.92-4.42-4.67-.75-.88-1.47-1.81-2.2-2.76s-1.48-1.94-2.18-3a115.5,115.5,0,0,1-19-49.57,100.36,100.36,0,0,1,.11-26.82A88.74,88.74,0,0,1,167,119.86a90.6,90.6,0,0,1,8.31-14,71.6,71.6,0,0,1,11.36-12A87.15,87.15,0,0,1,200.3,84.5a108.67,108.67,0,0,1,14.95-6.91,114,114,0,0,1,35.29-7,116.94,116.94,0,0,1,35.72,4A108.35,108.35,0,0,1,296.8,78a98,98,0,0,1,10.08,4.68,91.67,91.67,0,0,1,9.46,5.83,83,83,0,0,1,8.59,7,74,74,0,0,1,18.69,27.75,88.44,88.44,0,0,1,5.24,32.92q-.15,6.47-.93,12.85c-.54,4.24-1.27,8.44-2.16,12.61s-2,8.27-3.25,12.34-2.67,8.07-4.23,12c-1.38,3.5-2.82,6.88-4.45,10.3a106.89,106.89,0,0,1-7.23,13,23.71,23.71,0,0,1-4.25,5.14,20,20,0,0,1-1.55,1.34c-.62.38-.24-.68.92-2.92s3.13-5.65,5.47-10.13a169.75,169.75,0,0,0,15.8-43c.83-3.79,1.44-7.64,2-11.51s.76-7.77.89-11.68a108.92,108.92,0,0,0-.39-11.71,91.73,91.73,0,0,0-1.88-11.55,70.26,70.26,0,0,0-15.77-30.55,81,81,0,0,0-28.07-20.34Z"/><path class="cls-2" d="M149.23,399.9a25.1,25.1,0,0,1,10-3.61,21,21,0,0,1,10.52,1.31,22.38,22.38,0,0,1,6.48,4.18,22.07,22.07,0,0,1,6.57,11.62,23.55,23.55,0,0,1-1,13.22,20.31,20.31,0,0,1-7,9.45,19,19,0,0,1-6.91,3.17,19.44,19.44,0,0,1-7.52.18c-1.54-.25-1.25-.6.06-.9s3.61-.75,6.14-1.3a17.49,17.49,0,0,0,6.3-2.64,19.24,19.24,0,0,0,4.79-4.86,21.11,21.11,0,0,0,3.45-13.36,19.61,19.61,0,0,0-2.52-8.25,21.28,21.28,0,0,0-5.89-6.46,17.47,17.47,0,0,0-8.92-3.15,20.73,20.73,0,0,0-9.44,1.63,23,23,0,0,0-9.39,7.18,19.43,19.43,0,0,0-3.67,8.15,17,17,0,0,0,.67,8.83,19.7,19.7,0,0,0,8.89,10.06,24.65,24.65,0,0,0,2.67,1.34l1.18.51,1,.37c.6.26,1.1.41,1.5.6a9.12,9.12,0,0,1,1,.53,3.64,3.64,0,0,1,.64.58,5.35,5.35,0,0,1,.48.53c.16.26-.17.41-1,.53a8.52,8.52,0,0,1-3.46-.31,22.93,22.93,0,0,1-11.86-7.27,20.83,20.83,0,0,1-3.75-6.36,20.32,20.32,0,0,1-1.2-7.41,20.55,20.55,0,0,1,3.35-10.52,24.87,24.87,0,0,1,7.73-7.62Z"/><path class="cls-2" d="M372.42,374.47a22,22,0,0,1,8.81-3.16,18.42,18.42,0,0,1,9.26,1.19A19.35,19.35,0,0,1,402,386.39a20.71,20.71,0,0,1-.87,11.59,17.79,17.79,0,0,1-6.15,8.3,16.59,16.59,0,0,1-6.06,2.79,17,17,0,0,1-6.59.13c-1.35-.23-1.09-.59.06-.91s3.14-.77,5.32-1.26a15.11,15.11,0,0,0,5.42-2.3,16.91,16.91,0,0,0,4.13-4.18,18.33,18.33,0,0,0,3-11.54,16.79,16.79,0,0,0-2.16-7.14,18.7,18.7,0,0,0-5.1-5.6,15.13,15.13,0,0,0-7.72-2.73,18,18,0,0,0-8.18,1.41,19.87,19.87,0,0,0-8.15,6.23,16.81,16.81,0,0,0-3.18,7.06,14.59,14.59,0,0,0,.57,7.64,17.05,17.05,0,0,0,7.74,8.68,21.6,21.6,0,0,0,2.31,1.15l1,.45.87.32c.51.23.95.36,1.29.54a3.38,3.38,0,0,1,1.38,1.06,5.33,5.33,0,0,1,.42.52c.13.25-.16.41-.85.55a7.05,7.05,0,0,1-3.05-.21A19.89,19.89,0,0,1,367,402.59a18.07,18.07,0,0,1-3.33-5.62,17.68,17.68,0,0,1-1.06-6.56,18,18,0,0,1,3-9.29,21.94,21.94,0,0,1,6.83-6.7Z"/><path class="cls-2" d="M444.93,203.08a11.79,11.79,0,0,1,9.18-.77,11.46,11.46,0,0,1,1.58.66c.25.13.51.25.76.39l.71.5a9.76,9.76,0,0,1,3.34,4.85,8.84,8.84,0,0,1-.35,5.81,9.43,9.43,0,0,1-3.13,4.06l-.68.48-.75.37A6.68,6.68,0,0,1,454,220a5,5,0,0,1-1.64.2,6.64,6.64,0,0,1-1.61-.2c-.67-.14-.49-.5.07-.9a5.83,5.83,0,0,1,1-.6,3.9,3.9,0,0,1,1.3-.58,8,8,0,0,0,4.06-2.83,7,7,0,0,0,1.45-4.83c-.07-2.16-1.79-4.1-3.65-5.23a9.21,9.21,0,0,0-7.3-.39,8.17,8.17,0,0,0-3.71,2.62,6.09,6.09,0,0,0-.87,6.4,5.71,5.71,0,0,0,1.68,2,10.72,10.72,0,0,0,2.27,1.37,10.23,10.23,0,0,0,1.09.42c1.36.49,1.77.74,2,1.53a4,4,0,0,1,.17.48c0,.24-.11.42-.46.62a2.51,2.51,0,0,1-1.57.19,11.91,11.91,0,0,1-2.95-.81,8.54,8.54,0,0,1-1.39-.76l-.67-.47-.63-.54a11.3,11.3,0,0,1-1.16-1.23,9.82,9.82,0,0,1-.93-1.49,8.16,8.16,0,0,1-.9-3.52,8.85,8.85,0,0,1,1.49-5,10.24,10.24,0,0,1,3.71-3.41Z"/><path class="cls-1" d="M134.89,274.88l.26.34a3.88,3.88,0,0,1,.51.88,8.79,8.79,0,0,1,.53.87,12.47,12.47,0,0,1,.84,1.82,6.44,6.44,0,0,1,.63,1.9c.12.66.26,1.31.33,2a19,19,0,0,1,0,4.13c-.08.69-.16,1.4-.3,2.1a11.4,11.4,0,0,0-.32,2.13,1,1,0,0,0,.06.48,1.5,1.5,0,0,0,2,.51,1,1,0,0,0,.29-.42,7.61,7.61,0,0,0,.63-2.2c.16-.75.29-1.51.4-2.28a22.41,22.41,0,0,0,.24-4.72,12.9,12.9,0,0,0-.36-2.39c-.28-.76-.37-1.58-.64-2.35a19.78,19.78,0,0,0-1-2.2,11.82,11.82,0,0,0-.56-1.06c-.22-.34-.5-.64-.7-1l-.26-.41C137.15,272.55,134.64,274.47,134.89,274.88Z"/><path class="cls-1" d="M131.69,304l-.11.37a3.81,3.81,0,0,1-.38.85c-.1.3-.24.59-.35.88-.25.59-.55,1.16-.85,1.73a8.28,8.28,0,0,1-.9,1.75c-.35.55-.65,1.15-1,1.72l-2,3.53-1,1.79a6.84,6.84,0,0,0-.85,1.91,1,1,0,0,0,0,.48,1.63,1.63,0,0,0,1.85.88.76.76,0,0,0,.34-.29,8,8,0,0,0,1-1.66c.33-.57.67-1.13,1-1.7.7-1.13,1.49-2.22,2.21-3.37.35-.58.74-1.14,1.05-1.75a16.1,16.1,0,0,1,1.05-1.79c.33-.61.64-1.25.94-1.89.16-.32.32-.63.46-1s.19-.69.34-1l.17-.42C134.89,304.52,131.86,303.61,131.69,304Z"/><path class="cls-1" d="M119.72,330.76l-.06.51c0,.42-.12.83-.18,1.25s0,.84,0,1.26a19.53,19.53,0,0,0,.16,2.53c.11.84.41,1.63.53,2.47a6.9,6.9,0,0,0,.35,1.2,11.84,11.84,0,0,0,.46,1.17,22.5,22.5,0,0,0,2.48,4.29c.48.66,1,1.31,1.52,1.92.25.32.53.61.8.91a3.53,3.53,0,0,0,.94.78,1,1,0,0,0,.48.24,1.47,1.47,0,0,0,1.44-1.47,1,1,0,0,0-.21-.46,13.85,13.85,0,0,0-1.39-1.73c-.47-.56-.89-1.16-1.31-1.76a19.49,19.49,0,0,1-1.92-3.85,20.83,20.83,0,0,1-.65-2,3.05,3.05,0,0,1-.25-1c0-.35-.07-.71-.09-1.06a12.27,12.27,0,0,1-.12-2.1c0-.35,0-.71.07-1.06a5.39,5.39,0,0,1,.06-1.06l.08-.43C122.94,330.76,119.84,330.14,119.72,330.76Z"/><path class="cls-1" d="M139.08,360.15l.34.22a5.48,5.48,0,0,1,.74.63l.8.56c.52.38,1,.79,1.52,1.19a8.7,8.7,0,0,1,1.51,1.19c.46.44,1,.83,1.44,1.26a38,38,0,0,1,2.76,2.62c.43.47.85.94,1.24,1.43a8.43,8.43,0,0,0,1.24,1.43.71.71,0,0,0,.37.24,1.67,1.67,0,0,0,1.71-1.14.85.85,0,0,0-.1-.46,6.18,6.18,0,0,0-1.1-1.74c-.41-.54-.85-1.07-1.29-1.59-.89-1-1.77-2.08-2.75-3-.5-.46-1-1-1.5-1.37a13.75,13.75,0,0,1-1.52-1.34L142.92,359l-.78-.63a7.54,7.54,0,0,1-.83-.56l-.32-.26C140.59,357.29,138.72,359.84,139.08,360.15Z"/><path class="cls-1" d="M154.53,380.19l.09.28a2.4,2.4,0,0,1,.11.71l.19.69c.11.46.18.93.26,1.4a4.89,4.89,0,0,1,.27,1.41c0,.48.13.95.18,1.43.11,1,.29,1.92.35,2.89,0,.48.06,1,.08,1.46a4.09,4.09,0,0,0,.17,1.46.49.49,0,0,0,.17.31,2.08,2.08,0,0,0,2,0,.53.53,0,0,0,.18-.32,4.13,4.13,0,0,0,.13-1.52l0-1.52c0-1,0-2-.07-3.05,0-.51-.06-1-.16-1.53a8,8,0,0,1-.17-1.54l-.27-1.53-.13-.76a3.59,3.59,0,0,1-.23-.75l-.07-.32C157.53,379,154.48,379.86,154.53,380.19Z"/><path class="cls-1" d="M225.7,432.7l.15-.4a6.58,6.58,0,0,1,.46-.92c.13-.32.26-.63.4-.94.28-.63.59-1.23.9-1.83a8.9,8.9,0,0,1,.94-1.78,7.48,7.48,0,0,0,.54-.84l.54-.83a20.33,20.33,0,0,1,2.47-3.05,12.72,12.72,0,0,1,1.48-1.27,12.52,12.52,0,0,0,1.55-1.19.79.79,0,0,0,.29-.35,1.59,1.59,0,0,0-1-1.82,1,1,0,0,0-.5.08,3.24,3.24,0,0,0-1,.46c-.32.2-.63.42-.94.64a20,20,0,0,0-1.76,1.43,23.77,23.77,0,0,0-3.06,3.29,20.57,20.57,0,0,0-1.24,1.85,19.91,19.91,0,0,1-1.13,1.88c-.34.65-.66,1.3-1,1.95-.17.33-.33.65-.48,1a10.08,10.08,0,0,1-.39,1l-.19.4C222.56,431.94,225.48,433.14,225.7,432.7Z"/><path class="cls-1" d="M245.76,417.52l.38,0a4.15,4.15,0,0,1,.93.05H248c.62,0,1.25.06,1.87.12a7.39,7.39,0,0,1,1.88.15c.62.12,1.25.17,1.88.28,1.24.21,2.51.38,3.75.68.62.15,1.25.3,1.86.47a7.09,7.09,0,0,0,1.89.41.68.68,0,0,0,.44,0,1.67,1.67,0,0,0,.63-2,.85.85,0,0,0-.35-.29,6.68,6.68,0,0,0-1.86-.71l-1.92-.56c-1.29-.34-2.58-.74-3.9-1-.66-.12-1.32-.28-2-.34a15.45,15.45,0,0,1-2-.29c-.67-.06-1.35-.1-2-.13l-1-.06a8.71,8.71,0,0,1-1,.05h-.43C245.16,414.34,245.31,417.5,245.76,417.52Z"/><path class="cls-1" d="M277.67,426.2l.34.11a4.48,4.48,0,0,1,.8.37l.83.28,1.64.63a8.17,8.17,0,0,1,1.66.58c.54.24,1.1.4,1.65.61,1.09.4,2.22.72,3.32,1.12l1.65.61a5.4,5.4,0,0,0,1.68.48.59.59,0,0,0,.41,0,1.81,1.81,0,0,0,.69-1.93.66.66,0,0,0-.28-.29,5.51,5.51,0,0,0-1.58-.77l-1.62-.66c-1.08-.43-2.12-.95-3.2-1.39-.54-.21-1.07-.46-1.62-.64a8.73,8.73,0,0,1-1.61-.68l-1.62-.64-.81-.34a5,5,0,0,1-.83-.26l-.33-.15C278.44,423.08,277.28,426,277.67,426.2Z"/><path class="cls-1" d="M299,434l.31.07a5,5,0,0,1,.7.26l.72.18,1.45.39a6.67,6.67,0,0,1,1.46.31,14.05,14.05,0,0,0,1.46.33c1,.21,2,.31,3,.48l1.48.23a3.82,3.82,0,0,0,1.51.09.58.58,0,0,0,.34-.13,2.13,2.13,0,0,0,.28-2,.49.49,0,0,0-.28-.21,4.16,4.16,0,0,0-1.4-.37c-.47-.08-.94-.18-1.41-.28-.95-.2-1.86-.51-2.8-.74-.46-.11-.92-.27-1.4-.35a5.64,5.64,0,0,1-1.38-.42c-.47-.13-.93-.25-1.39-.39l-.69-.23a3.32,3.32,0,0,1-.71-.15L300,431C299.63,430.89,298.71,433.91,299,434Z"/><path class="cls-1" d="M325.21,437.36l.45,0a9.73,9.73,0,0,1,1.08,0l1.08-.11L330,437a15.54,15.54,0,0,1,2.14-.31c.72-.06,1.42-.22,2.13-.33,1.42-.24,2.82-.6,4.22-.89l2.1-.48a7.45,7.45,0,0,0,2.06-.63.89.89,0,0,0,.4-.28,1.55,1.55,0,0,0-.49-2,.79.79,0,0,0-.47-.06,8.51,8.51,0,0,0-2.08.32c-.68.15-1.37.28-2.06.41-1.37.26-2.76.39-4.14.59-.69.1-1.39.15-2.07.27a9.7,9.7,0,0,1-2.08.19c-.69.07-1.38.15-2.08.19l-1,0a5.91,5.91,0,0,1-1,.12h-.43C324.55,434.21,324.68,437.37,325.21,437.36Z"/><path class="cls-1" d="M350.79,432.45l.28-.11a3.43,3.43,0,0,1,.7-.18l.68-.26,1.38-.49a6,6,0,0,1,1.34-.54c.47-.14.91-.36,1.36-.53.9-.36,1.76-.82,2.65-1.2l1.33-.59a3.72,3.72,0,0,0,1.27-.71.49.49,0,0,0,.21-.28,2.15,2.15,0,0,0-.83-1.88.47.47,0,0,0-.34,0,4,4,0,0,0-1.37.42l-1.32.52c-.88.34-1.8.59-2.69.91-.44.16-.9.28-1.33.48a5.29,5.29,0,0,1-1.35.42c-.45.16-.89.32-1.34.46l-.68.19a3.19,3.19,0,0,1-.66.28l-.28.07C349.48,429.52,350.44,432.53,350.79,432.45Z"/><path class="cls-1" d="M399.85,358.54l.07-.48a11.2,11.2,0,0,1,.21-1.13c0-.38.05-.76.08-1.14,0-.77.09-1.53.08-2.29s-.18-1.51-.12-2.26a20.91,20.91,0,0,0-.23-2.25,41,41,0,0,0-.94-4.4c-.18-.72-.38-1.44-.6-2.15a7.16,7.16,0,0,0-.82-2.08,1,1,0,0,0-.32-.39,1.53,1.53,0,0,0-1.93.7.88.88,0,0,0,0,.48,10.67,10.67,0,0,0,.5,2c.2.68.35,1.36.51,2a36,36,0,0,1,.59,4.13l.17,2.07a8.35,8.35,0,0,1,0,2.06c0,.69,0,1.37-.09,2.05,0,.33-.07.67-.13,1a5.75,5.75,0,0,1-.09,1l-.09.41C396.64,358.44,399.73,359.1,399.85,358.54Z"/><path class="cls-1" d="M391.68,329.05l-.3-.18a3.73,3.73,0,0,1-.66-.6c-.24-.17-.46-.39-.7-.59a16.7,16.7,0,0,1-1.3-1.35,8.05,8.05,0,0,1-1.29-1.44c-.38-.52-.81-1-1.22-1.54-.8-1-1.67-2.06-2.48-3.14l-1.23-1.62a6.79,6.79,0,0,0-1.41-1.53.74.74,0,0,0-.42-.22,1.63,1.63,0,0,0-1.55,1.34.75.75,0,0,0,.13.42,8.11,8.11,0,0,0,1.1,1.62c.39.53.77,1.07,1.15,1.62.78,1.08,1.47,2.24,2.27,3.34.42.55.79,1.12,1.25,1.64a16.15,16.15,0,0,1,1.3,1.64c.46.53,1,1,1.48,1.55.26.25.51.52.79.76s.62.41.91.66l.38.29C390.38,332,392,329.3,391.68,329.05Z"/><path class="cls-1" d="M375.36,308.34l-.19-.36a4.7,4.7,0,0,1-.36-.9c-.15-.28-.29-.58-.41-.87-.27-.59-.48-1.2-.7-1.81a8.43,8.43,0,0,1-.63-1.83c-.14-.63-.34-1.24-.48-1.87a31,31,0,0,1-.73-3.82c-.08-.65-.13-1.3-.16-1.95a8.56,8.56,0,0,0-.16-1.95.81.81,0,0,0-.16-.42,1.63,1.63,0,0,0-2.06-.07.8.8,0,0,0-.18.44A6.75,6.75,0,0,0,369,295c0,.7.05,1.4.11,2.11a35.11,35.11,0,0,0,.5,4.2,20.52,20.52,0,0,0,.48,2.06,16,16,0,0,1,.58,2.05c.23.67.49,1.33.75,2,.12.33.25.66.39,1a10.72,10.72,0,0,1,.5.95l.17.4C372.73,310.22,375.54,308.76,375.36,308.34Z"/><path class="cls-1" d="M373.38,283.62l.1-.41a5.28,5.28,0,0,1,.34-.94c.09-.32.19-.64.29-1,.21-.64.45-1.26.7-1.89a8.85,8.85,0,0,1,.73-1.87c.31-.6.56-1.23.86-1.83.59-1.21,1.16-2.44,1.85-3.6.35-.58.7-1.16,1.07-1.72a9.66,9.66,0,0,0,1.05-1.75.83.83,0,0,0,.11-.46,1.57,1.57,0,0,0-1.64-1.22.79.79,0,0,0-.41.26,7,7,0,0,0-1.35,1.66c-.4.59-.8,1.18-1.18,1.78-.76,1.21-1.56,2.4-2.22,3.67a20.3,20.3,0,0,0-.95,1.93,17.36,17.36,0,0,1-.9,2c-.27.67-.51,1.35-.76,2-.13.34-.26.68-.37,1a9.51,9.51,0,0,1-.27,1.05l-.14.42C370.17,283.26,373.23,284.07,373.38,283.62Z"/><path class="cls-1" d="M392.66,257.07l.18-.15c.12-.14.32-.18.48-.28l.44-.34c.29-.22.6-.42.91-.63s.52-.55.89-.66.61-.42.92-.62c.61-.42,1.18-.9,1.81-1.3l.94-.6c.3-.22.67-.33.88-.7a.4.4,0,0,0,.12-.27,2.7,2.7,0,0,0-1-1.77.37.37,0,0,0-.3,0,2.3,2.3,0,0,0-1.06.45l-1,.56c-.66.38-1.36.69-2,1.09a9.84,9.84,0,0,0-1,.61,4,4,0,0,1-1,.58l-.95.64-.49.3a2,2,0,0,1-.44.38l-.21.12C390.58,254.63,392.43,257.2,392.66,257.07Z"/><path class="cls-1" d="M407.67,248.15l.46-.24a9,9,0,0,1,1.14-.52l1.11-.57c.74-.38,1.5-.73,2.25-1.09a16.26,16.26,0,0,1,2.25-1.12c.77-.32,1.51-.71,2.27-1.06,1.52-.71,3-1.49,4.54-2.18l2.29-1a11.93,11.93,0,0,0,2.25-1.15,1.16,1.16,0,0,0,.42-.38,1.38,1.38,0,0,0-.83-1.88,1.16,1.16,0,0,0-.56.06,11.51,11.51,0,0,0-2.36.87l-2.33,1c-1.54.67-3.13,1.25-4.67,1.93-.77.35-1.56.65-2.32,1a19.19,19.19,0,0,1-2.32,1L409,243.92l-1.16.53a12.07,12.07,0,0,1-1.11.62l-.48.22C405.68,245.59,407.12,248.4,407.67,248.15Z"/><path class="cls-1" d="M436.94,234.75l.35-.19a6.51,6.51,0,0,1,.89-.4l.84-.49c.56-.32,1.13-.64,1.69-1a14.55,14.55,0,0,1,1.63-1.1,16.91,16.91,0,0,0,1.6-1.18,24,24,0,0,0,2.88-2.83,17.59,17.59,0,0,0,1.26-1.59,5.4,5.4,0,0,0,1-1.81.81.81,0,0,0,0-.47,1.7,1.7,0,0,0-1.82-.93.62.62,0,0,0-.33.24,9.14,9.14,0,0,0-1.05,1.38,12.81,12.81,0,0,1-1.12,1.32,20.28,20.28,0,0,1-2.7,2.27c-.48.37-1,.67-1.46,1a7.9,7.9,0,0,1-1.56.92c-.52.31-1,.62-1.59.9l-.82.41a4.79,4.79,0,0,1-.79.46l-.35.16C435.12,232.1,436.51,234.94,436.94,234.75Z"/><path class="cls-1" d="M438.89,197.62l-.26-.35c-.24-.27-.38-.61-.61-.88s-.49-.53-.74-.78a15.37,15.37,0,0,0-1.65-1.37,6.4,6.4,0,0,0-.92-.52,8.34,8.34,0,0,1-.92-.52,11.41,11.41,0,0,0-1.92-.79,19.83,19.83,0,0,0-4-.75c-.66-.08-1.31-.12-2-.15a5.76,5.76,0,0,0-1.94.09.73.73,0,0,0-.4.17,1.71,1.71,0,0,0,0,2,.69.69,0,0,0,.39.18,7,7,0,0,0,1.8.2c.6,0,1.19.11,1.77.2a16.66,16.66,0,0,1,3.33.89c.52.2,1,.45,1.52.67a2,2,0,0,1,.73.39c.23.16.44.33.64.5a9.4,9.4,0,0,1,1.23,1c.18.19.34.41.51.61a2.4,2.4,0,0,1,.53.61l.17.28C436.45,199.68,439.18,198.08,438.89,197.62Z"/><path class="cls-1" d="M76.06,228.18a1.27,1.27,0,0,0-.23-.12c-.78-.32-1.57-.6-2.33-1a14.43,14.43,0,0,1-2.2-1.24,9,9,0,0,1-3.2-3.45l-.08-.21c-.09-.21-2.87.59-2.72,1l.13.34a9.87,9.87,0,0,0,1.78,2.75,14.58,14.58,0,0,0,2.33,2.06,17.47,17.47,0,0,0,2.62,1.57,12.39,12.39,0,0,0,2.9,1c.1,0,.22,0,.32,0C75.78,230.9,76.31,228.36,76.06,228.18Z"/><path class="cls-2" d="M150.7,410.24c-.19-.18,0-.44.28-.63a1.29,1.29,0,0,1,.52-.08,2,2,0,0,0,.29.12.93.93,0,0,0,.25.15.74.74,0,0,0,.33,0l.54,0a3.81,3.81,0,0,0,1.37-.43,1.21,1.21,0,0,1,.32-.11,2.08,2.08,0,0,0,1-.61c0-.05.11-.08.12-.17a9.57,9.57,0,0,1,.82-1,2.82,2.82,0,0,0,.7-.76s0-.09.1-.11.19-.17.23-.27a2.6,2.6,0,0,1,.16-.44c0-.08.13-.15.2-.23s.3,0,.33,0,.18,0,.28,0a.17.17,0,0,1,.1,0,2,2,0,0,1,.22.61,2.56,2.56,0,0,1,.06.75l-.07.29c0,.17-.12.39-.2.62a8.2,8.2,0,0,1-.46,1,.77.77,0,0,1-.22.22,8.76,8.76,0,0,1-.94,1.17,1.61,1.61,0,0,1-.75.43.3.3,0,0,0-.15.07,4.85,4.85,0,0,1-1.33.6c-.24.07-.47.17-.72.24H154a.55.55,0,0,0-.18,0,4.65,4.65,0,0,1-2,0,1.87,1.87,0,0,1-.52-.31,3.15,3.15,0,0,1-.46-.47C150.75,410.74,150.76,410.29,150.7,410.24Z"/><path class="cls-2" d="M150.67,419.3c-.11.12-.26,0-.48-.14-.06-.06-.17-.27-.14-.32a1,1,0,0,1,.19-.27,2.91,2.91,0,0,1,.5-.3,5.54,5.54,0,0,1,.8-.26,2.14,2.14,0,0,1,1.12.08,3.24,3.24,0,0,1,1.76,1.39,1.13,1.13,0,0,1,.19.44,5.83,5.83,0,0,1,.2.77,6.43,6.43,0,0,1,.17.76.49.49,0,0,0,.08.25,3,3,0,0,1,.07.86,2.86,2.86,0,0,1-.17.88,6.86,6.86,0,0,1-.81,1.14c-.05.05-.07.11-.16.13a.52.52,0,0,0-.36.22,1.82,1.82,0,0,1-.47.31.73.73,0,0,1-.3.05c-.09,0-.14-.13-.14-.16s-.07-.11-.11-.15l0-.05a1.89,1.89,0,0,1,.14-.49c.07-.22.06-.48.09-.51l.08-.16.11-.38a5.45,5.45,0,0,0,.1-.64c0-.07,0-.12.08-.18a3.62,3.62,0,0,0,0-.93,1.42,1.42,0,0,1,0-.54.12.12,0,0,0,0-.1,5.66,5.66,0,0,0-.29-.85c0-.15-.18-.21-.26-.33s0-.05,0-.08a.46.46,0,0,0-.07-.07,1.29,1.29,0,0,0-.91-.32,2.87,2.87,0,0,0-.6,0S150.71,419.26,150.67,419.3Z"/><path class="cls-2" d="M391.47,384.85c0-.2.25-.21.6-.06a1.61,1.61,0,0,1,.41.34l.11.29s0,.16,0,.3a.36.36,0,0,0,.13.26c.12,0-.15,0-.22.07s-.14.09-.11.06,0,0,0,0a.25.25,0,0,0,0-.07s0-.11.05-.2a.53.53,0,0,0,0-.13v-.07l0,0,.15-.06,0,0h0l.05.13h0v0l0-.07s0,0,0,0l.07,0a.59.59,0,0,0,.14.06h.11l-.23,0h.06l.14,0,.08,0c.07,0-.05,0-.12.26s0,.23-.06.25-.2-.13-.3-.18l-.07,0c-.17-.08-.18,0-.18,0a.57.57,0,0,0-.15.14,2.76,2.76,0,0,0-.21.19.5.5,0,0,1-.33.13c-.1,0-.2.06-.29.11l-.11,0a.91.91,0,0,1-.18-.14,1,1,0,0,1-.29-.42,1.37,1.37,0,0,1,0-1,2.2,2.2,0,0,1,.77-.91,2.91,2.91,0,0,1,1.15-.48.81.81,0,0,1,.4,0,2.43,2.43,0,0,1,1,.26,2.12,2.12,0,0,1,.9.93,1.49,1.49,0,0,1,0,1.35.92.92,0,0,0-.09.23,2.06,2.06,0,0,1-1.4,1.27,4.92,4.92,0,0,1-.73.16.39.39,0,0,1-.15,0l-.21,0a1.68,1.68,0,0,1-1.17-.5,2,2,0,0,1-.49-1.15,1.16,1.16,0,0,1,.11-.51c.08-.21.19-.37.2-.44S391.47,384.92,391.47,384.85Z"/><path class="cls-2" d="M386.86,391.17c-.05-.07.07-.12.28-.13a1.86,1.86,0,0,1,.3,0l.14.08s0,.07.07.1l.06,0s-.07,0-.08,0-.08.07-.07,0a.32.32,0,0,0,0-.17s0,0,0,0l.05,0c.07,0,0,0-.17.08,0,0,0,0,0,0a.11.11,0,0,1-.07,0,.76.76,0,0,1-.14,0l1-.06v0s-.14-.11-.13-.09h0s0,0-.05,0-.12,0-.14.05a.42.42,0,0,1-.11.14.68.68,0,0,1-.16.06.72.72,0,0,1-.27,0,.56.56,0,0,0-.23,0H387c-.05,0-.38-.36-.35-.45a1.41,1.41,0,0,1,.12-.45,1.15,1.15,0,0,1,.32-.41l0,0,.82-.28.12.22a.42.42,0,0,1,0,.1,2.5,2.5,0,0,0,.22.21,2.59,2.59,0,0,1,.23.28.79.79,0,0,1,.07.53.41.41,0,0,0,0,.11.92.92,0,0,1-.44.75,1.45,1.45,0,0,1-.35.18h-.16a1,1,0,0,1-.92-.44.63.63,0,0,1-.05-.25,1.43,1.43,0,0,0,0-.21S386.89,391.19,386.86,391.17Z"/><path class="cls-2" d="M277.7,277.15a3.92,3.92,0,0,1,1.29-.42l.7-.09.45-.05,1.58-.09,3.1-.08c.75,0,1.5-.1,2.25-.1,2.64,0,5.27.09,7.91.15,1.16,0,2.34,0,3.49,0,.75,0,1.5,0,2.24,0a14.2,14.2,0,0,1,2.24.31c.46.11.38.47,0,.88a3.81,3.81,0,0,1-2,1,66.85,66.85,0,0,1-9.06,0,54.72,54.72,0,0,0-5.57.11c-2,.07-4.09.12-6.08.3l-.51.05-.23,0c-.06,0-.18,0-.15.13l0,1.25c.06,1.95,0,3.89,0,5.79,0,1.48.15,2.92.28,4.36,0,.31.09.62.1.94.09,1.17,0,1.55-.66,1.85a2.49,2.49,0,0,1-.4.2c-.43.16-.94-.3-1.12-1.2a39.27,39.27,0,0,1-.54-8.19c0-1,0-2,0-3l0-.74,0-.37,0-.3a2.43,2.43,0,0,0,0-.38,1.58,1.58,0,0,1,0-.69l.11-.64.05-.32a.39.39,0,0,1,.11-.29,1.68,1.68,0,0,1,.47-.41Z"/><path class="cls-2" d="M304.05,293.8a5.48,5.48,0,0,1-1.18.24l-.61,0h-.36l-1.35,0H297.9c-.64,0-1.27.07-1.91.06-2.26,0-4.5-.09-6.75-.05-1,0-2,.08-3,.17l-1.88.22a13.69,13.69,0,0,1-1.92-.06c-.4,0-.4-.41-.11-.87a3,3,0,0,1,1.57-1.26,31.92,31.92,0,0,1,7.87-.43c1.58.1,3.21-.08,4.81-.12,1.76,0,3.53,0,5.25-.12h.38l.32,0c.31,0,.24-.27.22-.47v-.38c0-.74,0-1.68.13-2.49s.17-1.65.25-2.47a31.19,31.19,0,0,0,.08-3.73c0-.27,0-.53,0-.8,0-1,.11-1.29.76-1.53a2.66,2.66,0,0,1,.41-.16c.44-.13.93.28,1.06,1.08a27.07,27.07,0,0,1-.1,7.09c0,.61-.1,1.21-.12,1.8,0,.29,0,.58,0,.88a1.15,1.15,0,0,0,0,.25l0,.43.09.85c-.13.38-.21.76-.31,1.14a1.67,1.67,0,0,1-.94.74Z"/><path class="cls-3" d="M443.67,301.13c-.07-.1,0-.21.15-.32s.21-.07.24,0a.75.75,0,0,1,.15.16s.23.61.3.8a3.8,3.8,0,0,1,.15.58c.08.39.17.78.25,1.18a1.24,1.24,0,0,1,0,.27,4.66,4.66,0,0,0,.14.91c0,.05,0,.1.06.14a6.33,6.33,0,0,1,.22,1c0,.27,0,.54,0,.81,0,0,0,.08,0,.12a.31.31,0,0,0,0,.25c0,.12,0,.23,0,.35a.58.58,0,0,1,0,.18c0,.06-.13.05-.14,0s-.09,0-.13,0h0a4.91,4.91,0,0,1-.35-.69s-.25-.95-.29-1a1.09,1.09,0,0,1,0-.18s-.22-.77-.22-.8a1.29,1.29,0,0,1-.06-.48.14.14,0,0,0,0-.09,7.62,7.62,0,0,1-.14-.81c0-.14-.06-.28-.08-.42s0-.05,0-.07a.33.33,0,0,0,0-.1c-.08-.32-.11-.66-.21-1,0-.07,0-.44,0-.53S443.7,301.17,443.67,301.13Z"/><path class="cls-3" d="M441.51,305.06c-.11.07-.22,0-.33-.15s-.07-.21,0-.24l.16-.16.84-.3a3.76,3.76,0,0,1,.6-.15l1.23-.26.27,0a5,5,0,0,0,.95-.14.47.47,0,0,0,.15-.06,5.46,5.46,0,0,1,1-.23c.28,0,.56,0,.84-.05,0,0,.08,0,.12,0a.34.34,0,0,0,.26,0,2.19,2.19,0,0,1,.36,0,.65.65,0,0,1,.19,0c.06,0,.05.13,0,.14s0,.08,0,.12a.43.43,0,0,0,0,.05,5.39,5.39,0,0,1-.72.35l-1.09.3a.55.55,0,0,1-.18,0s-.8.23-.84.23a1.35,1.35,0,0,1-.49.06.16.16,0,0,0-.1,0c-.28.07-.56.1-.84.15s-.29.06-.43.09h-.18c-.34.07-.68.11-1,.21-.07,0-.46,0-.55,0S441.55,305,441.51,305.06Z"/><path class="cls-3" d="M442.07,302.62c-.11,0-.13-.14-.1-.32s.11-.2.14-.2h.21l.72.33a3.72,3.72,0,0,1,.48.27l.94.61.19.16a4.24,4.24,0,0,0,.69.51.52.52,0,0,0,.13.06,4.25,4.25,0,0,1,.8.5c.18.18.37.34.55.51s.07,0,.08.08.09.13.15.18a1.64,1.64,0,0,1,.24.21.61.61,0,0,1,.09.16c0,.05-.06.12-.08.12s-.05.06-.07.1l0,0a3.79,3.79,0,0,1-.69-.21l-.88-.5a.38.38,0,0,1-.12-.1l-.67-.38a1,1,0,0,1-.35-.28.13.13,0,0,0-.07,0c-.22-.13-.41-.29-.62-.44s-.22-.15-.32-.22l-.06-.05-.06-.06c-.26-.16-.5-.36-.77-.5-.07,0-.31-.28-.38-.32S442.11,302.62,442.07,302.62Z"/><path class="cls-3" d="M443.24,306.64c0,.11-.14.12-.31.07a.38.38,0,0,1-.19-.15.67.67,0,0,1,0-.2s.26-.51.34-.67a2.16,2.16,0,0,1,.29-.43c.21-.28.41-.57.63-.85a1.22,1.22,0,0,1,.15-.17,3.36,3.36,0,0,0,.52-.62.29.29,0,0,0,.07-.12,3.85,3.85,0,0,1,.52-.72l.52-.49s0-.06.08-.06a.32.32,0,0,0,.18-.14l.21-.21a.59.59,0,0,1,.16-.07s.11.07.11.09.06.05.1.07l0,0a4.17,4.17,0,0,1-.23.64l-.52.8a.35.35,0,0,1-.1.11s-.38.59-.39.61a1.06,1.06,0,0,1-.29.31.15.15,0,0,0-.05.06,6.22,6.22,0,0,1-.46.56c-.08.09-.14.2-.22.29l0,.05a.34.34,0,0,0-.06.06c-.17.23-.37.44-.52.69,0,.06-.29.27-.32.34S443.25,306.6,443.24,306.64Z"/><path class="cls-3" d="M382,143.75c-.07-.1,0-.21.15-.32s.21-.07.24,0a1.14,1.14,0,0,1,.15.16s.22.61.29.8a3.83,3.83,0,0,1,.16.58c.08.39.17.78.25,1.18a1.24,1.24,0,0,1,0,.27,4.66,4.66,0,0,0,.14.91.34.34,0,0,0,.05.14,6.09,6.09,0,0,1,.23,1c0,.27,0,.54,0,.81,0,0,0,.08,0,.12a.32.32,0,0,0,0,.25,2.07,2.07,0,0,1,0,.35.61.61,0,0,1,0,.18c0,.06-.12.05-.14,0s-.08,0-.12,0h0a4,4,0,0,1-.35-.69s-.25-1-.29-1.05a1.1,1.1,0,0,1,0-.18s-.21-.77-.22-.8a1.54,1.54,0,0,1-.05-.48.14.14,0,0,0,0-.09,7.62,7.62,0,0,1-.14-.81c0-.14-.06-.28-.09-.42v-.17c-.08-.32-.11-.66-.21-1,0-.07,0-.44-.05-.53S382.06,143.78,382,143.75Z"/><path class="cls-3" d="M379.87,147.68c-.1.07-.21,0-.33-.15s-.06-.21,0-.24l.16-.16.84-.3a3.92,3.92,0,0,1,.59-.15l1.23-.26.28,0a5.07,5.07,0,0,0,.95-.14.47.47,0,0,0,.15-.06,5.53,5.53,0,0,1,1-.23l.85,0s.08,0,.12,0a.34.34,0,0,0,.26,0l.36,0a.43.43,0,0,1,.19,0c.06,0,.05.13,0,.14s0,.08,0,.12a.11.11,0,0,1,0,.05,5.22,5.22,0,0,1-.71.35l-1.1.3a.51.51,0,0,1-.18,0l-.83.23a1.35,1.35,0,0,1-.49.06.16.16,0,0,0-.1,0c-.28.07-.56.1-.85.15l-.43.09h-.18c-.33.08-.68.12-1,.22-.08,0-.46,0-.55.05S379.91,147.65,379.87,147.68Z"/><path class="cls-3" d="M380.44,145.24c-.11,0-.13-.14-.1-.32s.1-.2.14-.2h.21l.72.33a3.26,3.26,0,0,1,.48.27l.94.61.19.16a3.85,3.85,0,0,0,.69.51.25.25,0,0,0,.13,0,5.94,5.94,0,0,1,.8.51c.17.18.36.34.55.51,0,0,.06,0,.07.08s.1.13.16.18a1.57,1.57,0,0,1,.24.21.61.61,0,0,1,.09.16c0,.05-.06.12-.08.12s-.05.06-.07.1l0,0a4,4,0,0,1-.68-.21l-.88-.5a.38.38,0,0,1-.12-.1l-.67-.38a1.17,1.17,0,0,1-.35-.28.18.18,0,0,0-.07-.05,6.91,6.91,0,0,1-.62-.44l-.33-.22s0,0-.05-.05l-.07-.06c-.26-.16-.49-.36-.77-.5-.06,0-.3-.28-.37-.32S380.48,145.24,380.44,145.24Z"/><path class="cls-3" d="M381.61,149.26c0,.11-.14.12-.32.07a.49.49,0,0,1-.19-.15,1.27,1.27,0,0,1,0-.2s.26-.51.34-.67a2.65,2.65,0,0,1,.28-.43c.22-.28.42-.57.63-.85a1.29,1.29,0,0,1,.16-.17,3.8,3.8,0,0,0,.52-.62.2.2,0,0,0,.06-.12,4.37,4.37,0,0,1,.52-.72c.19-.16.35-.33.52-.49s0-.06.08-.06a.26.26,0,0,0,.18-.14l.22-.21a.69.69,0,0,1,.15-.07c.05,0,.12.07.12.08s.06.06.1.08l0,0a3.25,3.25,0,0,1-.22.64l-.52.8s-.07.07-.1.11-.38.59-.4.61a1.18,1.18,0,0,1-.28.31s0,0-.06.06a4.8,4.8,0,0,1-.45.56,3.15,3.15,0,0,0-.22.29s0,0,0,.05-.05,0-.06.06c-.17.23-.37.44-.52.69,0,.06-.29.27-.33.34S381.62,149.22,381.61,149.26Z"/><path class="cls-3" d="M78.35,374.73c-.1-.16,0-.33.21-.51a.47.47,0,0,1,.34-.05,2.85,2.85,0,0,1,.23.26c0,.05.33,1,.44,1.29a5.93,5.93,0,0,1,.24.92c.13.64.27,1.27.4,1.9a2,2,0,0,1,.05.43,7.94,7.94,0,0,0,.24,1.46.63.63,0,0,0,.08.23,10.08,10.08,0,0,1,.35,1.6c0,.44.06.87.09,1.3a.31.31,0,0,1,0,.19.61.61,0,0,0,0,.4,3.53,3.53,0,0,1,0,.56A1.07,1.07,0,0,1,81,385c0,.08-.18.07-.2,0s-.12,0-.17,0l-.07,0A8.33,8.33,0,0,1,80,384s-.39-1.52-.45-1.69a1.27,1.27,0,0,1,0-.28s-.33-1.24-.34-1.29a2.4,2.4,0,0,1-.09-.76.4.4,0,0,0,0-.15c-.1-.43-.15-.87-.22-1.31,0-.22-.09-.44-.14-.66a.48.48,0,0,1,0-.12c0-.05,0-.1,0-.15-.12-.52-.17-1.06-.32-1.57,0-.12-.05-.71-.09-.85S78.39,374.79,78.35,374.73Z"/><path class="cls-3" d="M74.83,381c-.17.11-.34,0-.52-.2s-.1-.3-.06-.34a1.84,1.84,0,0,1,.27-.23c.06,0,1-.35,1.35-.46a7.51,7.51,0,0,1,1-.25l2-.41a3.11,3.11,0,0,1,.44-.06,7.77,7.77,0,0,0,1.52-.24.68.68,0,0,0,.24-.08,10.59,10.59,0,0,1,1.66-.37c.45,0,.9-.06,1.35-.1.06,0,.13,0,.19,0a.67.67,0,0,0,.42,0,5.42,5.42,0,0,1,.58-.06,1.77,1.77,0,0,1,.3.06c.09,0,.07.18,0,.2s0,.12,0,.18a.14.14,0,0,1,0,.06,8.31,8.31,0,0,1-1.15.53l-1.76.46a.92.92,0,0,1-.29,0l-1.34.36a3,3,0,0,1-.79.1.44.44,0,0,0-.16,0c-.44.11-.9.17-1.35.24-.23,0-.46.09-.69.14h-.29c-.54.12-1.09.18-1.62.34-.12,0-.74.05-.88.09S74.89,381,74.83,381Z"/><path class="cls-3" d="M75.77,377.09c-.18,0-.22-.21-.18-.48,0-.09.14-.28.2-.28h.32c.06,0,.87.42,1.15.54a6.33,6.33,0,0,1,.76.45l1.5,1a1.85,1.85,0,0,1,.32.25,6.73,6.73,0,0,0,1.1.8.58.58,0,0,0,.21.1,9.41,9.41,0,0,1,1.28.81c.29.28.6.54.9.8,0,0,.1.06.12.13s.15.2.25.28a3.09,3.09,0,0,1,.39.33,1.3,1.3,0,0,1,.15.23c0,.08-.08.18-.11.18s-.08.09-.1.14l0,.06a7.92,7.92,0,0,1-1.07-.36s-1.26-.74-1.41-.81a1.56,1.56,0,0,1-.2-.16s-1-.59-1.07-.62a2.37,2.37,0,0,1-.56-.44.48.48,0,0,0-.11-.09c-.35-.21-.67-.46-1-.7a5.8,5.8,0,0,0-.52-.34l-.08-.08-.11-.1c-.42-.26-.8-.57-1.24-.81-.1,0-.49-.44-.61-.5S75.84,377.1,75.77,377.09Z"/><path class="cls-3" d="M77.58,383.55c0,.16-.21.19-.47.13-.09,0-.27-.16-.27-.22a1.62,1.62,0,0,1,0-.31c0-.06.43-.79.57-1a4.6,4.6,0,0,1,.46-.69l1-1.36a2.18,2.18,0,0,1,.25-.28,5.91,5.91,0,0,0,.82-1,.59.59,0,0,0,.11-.19,7.39,7.39,0,0,1,.84-1.16c.28-.25.54-.52.81-.79,0,0,.06-.09.13-.1s.2-.14.28-.22a1.88,1.88,0,0,1,.34-.35.84.84,0,0,1,.23-.12c.08,0,.17.09.17.12s.08.08.14.11l0,0a6.8,6.8,0,0,1-.39,1s-.76,1.14-.84,1.28a.69.69,0,0,1-.17.17l-.63,1a2.13,2.13,0,0,1-.45.5.22.22,0,0,0-.09.1c-.22.31-.48.6-.73.89s-.23.32-.35.47a.6.6,0,0,1-.08.08.76.76,0,0,0-.09.09c-.27.38-.59.72-.84,1.12-.06.09-.45.43-.51.54S77.6,383.49,77.58,383.55Z"/><path class="cls-2" d="M234,172.52a6.73,6.73,0,0,0-1,4.16,3,3,0,0,0,4.05,2.66c3.25-1.13,2.65-7.56-1-7.64-2.12,0-2.12,3.25,0,3.3a.83.83,0,0,1-.43-.13q.22.13-.06-.06c.11.13.11.12,0,0a1.71,1.71,0,0,1,.13.23c-.11-.4.17.86.13.49a3.3,3.3,0,0,1,0,.63c0-.38-.08.24-.08.29,0-.18-.07,0,.09-.14-.4.21.46-.28.06,0,.2,0,.19,0,0,0a.32.32,0,0,1,.23.06s.32.39.13.11q.12.29,0,0c0,.19,0,.19,0,0,0-.06,0-.67,0-.39a6.35,6.35,0,0,1,.29-1.14c0-.1.07-.19.11-.29-.08.17-.07.18,0,0l.22-.38c1.19-1.76-1.67-3.42-2.85-1.66Z"/><path class="cls-2" d="M257.4,173.33a8.88,8.88,0,0,0-1.48,4,2.7,2.7,0,0,0,3.23,3.06,4,4,0,0,0,3.2-4.08c0-1.76-.89-3.75-2.87-3.8-2.13,0-2.13,3.25,0,3.3-.17,0-.66-.32-.47-.16-.13-.17-.14-.18,0,0-.07-.19-.07-.19,0,0s.06.2.08.3c0-.18,0-.16,0,0s0,.68,0,.4c0,.22-.12.43-.17.64,0-.12-.06,0-.09.08.14-.08.12-.07,0,0,.15,0,.12,0-.07,0,.12,0,.08,0-.1,0h-.07c.06-.25.83.88.58.35.13.28.07.52.1.12,0-.19,0-.19,0,0a1.59,1.59,0,0,1,.06-.3c.05-.21.11-.42.17-.63a4,4,0,0,1,.39-.92,6,6,0,0,1,.44-.78c1.21-1.75-1.65-3.41-2.85-1.66Z"/><path class="cls-2" d="M242.59,175a29.05,29.05,0,0,0,.12-4.17c0-.7-.08-1.39-.12-2.08s-.17-1.4-.32-2.05l-.38-1.41c-.19-.43-.38-.87-.55-1.32a9.81,9.81,0,0,0-3.2-3.84,12.3,12.3,0,0,0-4.85-2,18.94,18.94,0,0,0-4.82-.18,49.79,49.79,0,0,0-6.13,1.17c-.64.14-.7-.25-.29-.81a4.43,4.43,0,0,1,.95-.93,6.18,6.18,0,0,1,1.59-.75,22.28,22.28,0,0,1,6.82-.84,15.38,15.38,0,0,1,6.82,1.83A13.07,13.07,0,0,1,244.1,164a20.93,20.93,0,0,1,.72,2.29c.15.76.3,1.52.4,2.28a29.42,29.42,0,0,1,.23,4.59,37.15,37.15,0,0,1-.56,5.58,57.12,57.12,0,0,1-2.13,8.13c-.68,2-1.27,4.1-2.14,6.06-.18.44-.35.87-.57,1.3a9.74,9.74,0,0,1-.58,1,3.67,3.67,0,0,1-.55.56,1.67,1.67,0,0,1-1,.41,3.66,3.66,0,0,1-.42,0c-.37,0-.44-.86-.16-2.11,1.06-3.6,2.53-7.11,3.58-10.79a42.39,42.39,0,0,0,1.57-8.32Z"/><path class="cls-2" d="M254.88,159.62c-.24.3-.62.25-1.13,0-.16-.07-.41-.43-.35-.54a6.31,6.31,0,0,1,.4-.65,6.77,6.77,0,0,1,1.1-.85,14.75,14.75,0,0,1,1.64-1,11.48,11.48,0,0,1,1.07-.46c.36-.12.74-.2,1.12-.29a19.86,19.86,0,0,1,2.31-.38c.77,0,1.55-.11,2.32-.09a8.37,8.37,0,0,1,1,.12c1.15.26,2.29.44,3.44.64a1.65,1.65,0,0,0,.59,0,8,8,0,0,1,1.87.4,9.5,9.5,0,0,1,1.85.77,29.82,29.82,0,0,1,2.52,1.82c.11.1.26.15.3.33.11.39.38.55.6.79a5.58,5.58,0,0,1,.87,1,5.12,5.12,0,0,1,.25.65c.06.19-.21.31-.28.29s-.2.14-.27.23a.76.76,0,0,1-.09.09s-.58-.24-1.14-.45-1.18-.37-1.3-.41-.72-.41-1.51-.73a16.07,16.07,0,0,0-1.79-.67,2.28,2.28,0,0,1-.51-.27c-.07-.06-2.55-.71-2.65-.7a5.45,5.45,0,0,1-1.52-.51.79.79,0,0,0-.31-.08c-.9-.14-1.79-.3-2.71-.41-.46,0-.93,0-1.39,0l-.25,0a1.77,1.77,0,0,0-.32,0l-.82.07-.81.12a6,6,0,0,0-1.58.41,9.89,9.89,0,0,0-1.68.48C255.59,159.48,255,159.49,254.88,159.62Z"/><path class="cls-2" d="M242.63,209.76c2.62,2,5.6,1.16,7.6-1.29,1.13-1.39-.84-3.38-2-2-.85,1-2.28,2.34-3.64,1.29s-3.4.88-2,2Z"/><path class="cls-2" d="M343.62,74.3c0,.3-.4.3-1,.13A1.54,1.54,0,0,1,342,74a3.34,3.34,0,0,1,0-.61c0-.12.71-1.5.94-2a6.62,6.62,0,0,1,.83-1.25l1.86-2.36a2.33,2.33,0,0,1,.47-.47,6.43,6.43,0,0,0,1.51-1.66.57.57,0,0,0,.16-.34,10.39,10.39,0,0,1,1.39-2c.52-.41,1-.85,1.48-1.3.07-.06.09-.16.23-.17.32,0,.39-.21.51-.37a4.84,4.84,0,0,1,.58-.62,1.7,1.7,0,0,1,.47-.2c.15-.06.43.17.44.23s.24.15.37.21a.47.47,0,0,1,.14.08,4.25,4.25,0,0,1-.05,1,4.92,4.92,0,0,1-.22,1l-.61,1.18c-.3.58-.66,1.18-.73,1.3a1.35,1.35,0,0,1-.32.31c-.05,0-1.11,1.71-1.16,1.76-.28.3-.47.67-.9.83a.4.4,0,0,0-.18.16,13.23,13.23,0,0,1-1.41,1.49c-.25.25-.45.53-.68.79,0,0-.11.07-.16.11a1.39,1.39,0,0,0-.19.15,23.06,23.06,0,0,0-1.56,1.87c-.1.15-.85.68-1,.87S343.64,74.17,343.62,74.3Z"/><path class="cls-2" d="M156.42,88.93c-.31,0-.24-.4.05-1.05a2.87,2.87,0,0,1,.64-.77,3.29,3.29,0,0,1,.59-.16c.11,0,1.24.42,1.65.51a3.85,3.85,0,0,1,1.07.48c.68.39,1.39.74,2.11,1.1a1.66,1.66,0,0,1,.43.32,4.06,4.06,0,0,0,1.6,1,.41.41,0,0,0,.33.05,5.7,5.7,0,0,1,2,.78c.41.45.85.82,1.29,1.22.06.06.15.06.17.21,0,.34.2.37.34.47a2.23,2.23,0,0,1,.53.57,1.69,1.69,0,0,1,.17.45c0,.14-.15.41-.2.43s-.14.24-.19.37,0,.1-.06.13a7,7,0,0,1-1.8.24l-1-.29-1.18-.31c-.12,0-.2-.14-.29-.23s-1.61-.49-1.67-.53c-.29-.17-.65-.22-.84-.6a.23.23,0,0,0-.17-.12,9.12,9.12,0,0,1-1.52-.91,7.67,7.67,0,0,0-.8-.43,1.5,1.5,0,0,1-.11-.13.77.77,0,0,0-.15-.16c-.65-.33-1.19-.82-1.87-1.12-.16-.07-.64-.78-.82-.86S156.54,88.92,156.42,88.93Z"/><path class="cls-2" d="M256.32,244c-1.46.11-2.94.2-4.43.21s-2.94,0-4.41-.1c-1.07-.05-2.14-.06-3.21-.15a41.82,41.82,0,0,1-11.15-2.28,9.58,9.58,0,0,1-4.32-2.92,4.19,4.19,0,0,1-.67-3.39,3.53,3.53,0,0,1,2.23-2.54c.67-.23.6-.05.19.34a4.36,4.36,0,0,0-1.16,2.14c-.43,1.83.78,3.21,2.55,4.09a28.54,28.54,0,0,0,5.86,1.91,46.2,46.2,0,0,0,7.78.85,86.48,86.48,0,0,0,8.67,0c1.79-.1,3.57-.25,5.34-.48a59,59,0,0,0,8-1.5,27.85,27.85,0,0,0,5.72-2.07,11.26,11.26,0,0,0,1.08-.62,12.4,12.4,0,0,0,1.13-.82,3.47,3.47,0,0,1,.49-.54c.1-.07.21-.19.31-.2s-.1-.07,0,0a.34.34,0,0,0,.16.07s0,0,.06,0a.72.72,0,0,1,.18.31l.08.28a2.24,2.24,0,0,1,0,.51.93.93,0,0,1,0,.29s-.05.09-.05.16l-.09.14-.36.45a9.8,9.8,0,0,1-2.47,1.94,19,19,0,0,1-2.83,1.14c-1,.31-1.91.56-2.84.81s-1.94.5-2.92.71a71.58,71.58,0,0,1-8.84,1.28Z"/><path class="cls-2" d="M114.23,263.86a138.62,138.62,0,0,1-16,6.38c-2,.65-4,1.33-6,1.88a99.73,99.73,0,0,1-10.85,2.34,55,55,0,0,1-11.12.71,27.53,27.53,0,0,1-5-.66c-.41-.08-.82-.24-1.23-.36a7.78,7.78,0,0,1-1.22-.45l-1.18-.56a5.09,5.09,0,0,1-.6-.39,3.1,3.1,0,0,1-.56-.47,4.66,4.66,0,0,1-1.36-3.48,8,8,0,0,1,.91-3.37,12.83,12.83,0,0,1,4.44-4.77c1.15-.72,1.17-.28.57.7-.31.53-.7,1.2-1.13,2-.2.41-.45.81-.66,1.27-.11.23-.24.44-.33.68s-.26.45-.37.68a6.63,6.63,0,0,0-.8,2.42,2.69,2.69,0,0,0,.35,1.82c.08.12.2.21.28.32s.27.19.39.3c.32.2.79.39,1.17.59a13.69,13.69,0,0,0,2.7.83,27.16,27.16,0,0,0,2.93.44c1,0,2,.14,3,.11h1.53l1.55-.08c1,0,2.07-.16,3.11-.24a83.35,83.35,0,0,0,15-3.38,140.5,140.5,0,0,0,16-5.94c3.19-1.42,6.34-3,9.37-4.7a72.63,72.63,0,0,0,6.7-4.23,36.12,36.12,0,0,0,5.87-5.13,10.89,10.89,0,0,0,2.72-4.92,2,2,0,0,0-.48-2,4.56,4.56,0,0,0-2.2-1,16.27,16.27,0,0,0-2.47-.25c-3.2-.07-4.31-.1-5-.88a2.52,2.52,0,0,1-.48-.51c-.29-.57,1-1.08,3.5-1.24a18.47,18.47,0,0,1,5.95.5,5.65,5.65,0,0,1,3.18,2.12,4.32,4.32,0,0,1,.73,2.12,5.13,5.13,0,0,1-.2,1.93,13.57,13.57,0,0,1-3.2,5.65,32.64,32.64,0,0,1-4.43,4.15,61.31,61.31,0,0,1-7.3,5q-3.78,2.23-7.71,4.12Z"/></g></svg>