<svg xmlns="http://www.w3.org/2000/svg" width="520" height="520" viewBox="0 0 520 520"><defs><style>.cls-1{fill:#231f20;}</style></defs><title>Notioly New</title><g id="n.130_Call" data-name="n.130 Call"><path class="cls-1" d="M414.46,153.5c.5-.92,1-1.82,1.62-2.7.21-.32.37-.67.6-1a18.26,18.26,0,0,1,2.84-3,14.55,14.55,0,0,1,1.51-1.14,3.05,3.05,0,0,1,1.18-.47,2.45,2.45,0,0,1,1.29-.1c.28,0,.2.49,0,.94s-.34.93-.6,1-.34.53-.61.58-.47.32-.71.5c-.5.36-1,.74-1.6,1.18a8.08,8.08,0,0,0-1.6,2c-.56.79-1.08,1.62-1.57,2.48-.31.53-.6,1.07-.86,1.62a16.69,16.69,0,0,0-1,2.54c-.08.32-.15.73-.07.8a3.28,3.28,0,0,0,.39.66l.26.32c.32.41.29.66,0,1.08a2.78,2.78,0,0,1-.21.27.79.79,0,0,1-1.09,0,4.57,4.57,0,0,1-.81-.83,3.06,3.06,0,0,1-.63-1.38,2.51,2.51,0,0,1,0-.55c0-.13,0-.28,0-.37s.07-.41.11-.59c.08-.38.18-.72.29-1.07a22.88,22.88,0,0,1,1.22-2.93Z"/><path class="cls-1" d="M400.1,194.35a2.5,2.5,0,0,0,1,1.19,11.28,11.28,0,0,0,2,1.13c.52.24,1.09.4,1.64.62a43.62,43.62,0,0,0,6.08,1.83c.92.22,1.88.31,2.8.46l1.81.24a11.54,11.54,0,0,1,1.77.46c.37.13.29.48-.07.86a2.89,2.89,0,0,1-1.75.87,22,22,0,0,1-7.49-1.41c-1.45-.54-3-.81-4.54-1.36a20.92,20.92,0,0,1-2.45-1.07,8.6,8.6,0,0,1-2.31-1.69,3.35,3.35,0,0,1-.91-1.84,6,6,0,0,1,.06-1.82,22.4,22.4,0,0,1,1.58-4.68c.49-1.14.94-2.29,1.52-3.4.13-.24.25-.49.39-.72.57-.88.92-1.05,1.49-.87a2.55,2.55,0,0,1,.39.13c.4.2.43.73.16,1.37-.8,1.92-1.67,3.91-2.39,5.89a16.4,16.4,0,0,0-.62,2.18,3.85,3.85,0,0,0-.08,1.61Z"/><path class="cls-1" d="M174.66,255.71a18.55,18.55,0,0,1,3.7,1.25,8.13,8.13,0,0,1,1.35.73,4.64,4.64,0,0,1,.77.72,3,3,0,0,1,.59,1.11c.21,1,.43,2,.64,3.05a21.79,21.79,0,0,1,.3,2.17,4.11,4.11,0,0,1-.54,2.8c-.17.25-.47.09-.77-.24a2.7,2.7,0,0,1-.72-1.22,32.08,32.08,0,0,0-.63-4.76c-.06-.39-.16-.82-.26-1.21,0-.17-.43-.53-.93-.81a12.42,12.42,0,0,0-3.13-1.2,18.31,18.31,0,0,0-2.11-.42,13.13,13.13,0,0,0-3.25-.12,6,6,0,0,0-2.23.74,2.78,2.78,0,0,0-.38.25c-.43.28-.6.19-1.13,0-.1,0-.21,0-.28-.08s-.2-.15-.28-.42a.94.94,0,0,1,.23-.87,5,5,0,0,1,2.51-1.45,11.17,11.17,0,0,1,2.67-.38,19.48,19.48,0,0,1,3.89.34Z"/><path class="cls-1" d="M160.54,311.85a5,5,0,0,0,.72,2.56l.11.11.06.06,0,0v0h0c-.14.21.31-.49-.3.49h0l.07-.1c.08-.13.17-.28.23-.4h0s0,0,.05,0l.2.08a20.34,20.34,0,0,0,4.31,1,17.08,17.08,0,0,0,2,.1l1.3,0a5.4,5.4,0,0,1,1.3.2c.27.09.26.34,0,.7a2.06,2.06,0,0,1-1.13,1,15.59,15.59,0,0,1-5.49-.11c-.54-.11-1.11-.16-1.69-.23l-.89-.11a4.79,4.79,0,0,1-1.05-.3,3.7,3.7,0,0,1-1.7-1.83,7.46,7.46,0,0,1-.61-2,13.12,13.12,0,0,1-.15-2.41,22.85,22.85,0,0,1,.4-3.52,21,21,0,0,1,.53-2.74,3.62,3.62,0,0,1,.2-.61c.3-.76.77-.84,1.32-.59a3.34,3.34,0,0,1,.38.16,1.08,1.08,0,0,1,.42.5,1,1,0,0,1,.1.66c-.22,1.33-.53,2.69-.68,4.15a14.14,14.14,0,0,0-.06,3.18Z"/><path class="cls-1" d="M390.65,333a20.94,20.94,0,0,0,6.27-.77c.76-.21,1.48-.49,2.23-.75l1-.36a1.49,1.49,0,0,1,.43-.08.82.82,0,0,1,.44,0l.52.09c.68.12,1.37.22,2.07.32,1.39.2,2.82.38,4.24.71a21,21,0,0,1,3.63,1.24c1.48.56,3,1,4.48,1.48.46.13.36.43-.12.65a3.39,3.39,0,0,1-2.27.07c-.81-.25-1.6-.52-2.37-.82l-1.16-.47c-.37-.16-.7-.29-1.07-.41a28.63,28.63,0,0,0-4.64-1l-3-.42-.6-.09a5,5,0,0,0-.52.19q-.71.29-1.44.54a24.38,24.38,0,0,1-6.66,1.32,18.43,18.43,0,0,1-4.2-.25,15.41,15.41,0,0,1-5.89-2.34l-.46-.27a1.28,1.28,0,0,0-.39,0,7.37,7.37,0,0,0-1.11.12c-.75.12-1.52.29-2.28.45l-1,.22c-1.28.23-1.71.2-2-.12a1.52,1.52,0,0,1-.22-.22c-.17-.26.31-.58,1.23-.84a35.14,35.14,0,0,1,4.27-1,7.75,7.75,0,0,1,1.25-.11,2.66,2.66,0,0,1,.93.17l.62.36.88.53c.3.19.63.3.94.46a15.06,15.06,0,0,0,6,1.37Z"/><path class="cls-1" d="M401.61,272.44l.64,2.68.77,2.65c.48,1.78,1.09,3.51,1.7,5.25.42,1.28,1,2.5,1.48,3.75a80.79,80.79,0,0,0,6.24,12.74c.51.92,1.14,1.76,1.74,2.63a29.08,29.08,0,0,0,1.89,2.49l1.28,1.54c.43.51.92,1,1.37,1.45.89,1,1.88,1.86,2.8,2.83.57.61.29.81-.49.65a6.56,6.56,0,0,1-3.3-1.82,49.75,49.75,0,0,1-9.59-13.87c-1.49-3-3-6.16-4.29-9.35-.72-1.75-1.29-3.55-1.94-5.32s-1.11-3.61-1.62-5.43c-.55-2.25-1.18-4.49-1.6-6.77l-.52-2.59c-.17-.86-.27-1.73-.41-2.6l-.39-2.6c-.12-.87-.18-1.74-.29-2.61-.36-2.69-.56-5.34-.78-8,0-.59,0-1.17-.05-1.77,0-2.21.13-2.92.68-3.37a1.71,1.71,0,0,1,.33-.29c.34-.2.74.71.82,2.3a134.89,134.89,0,0,0,1.43,14.54c.32,1.82.54,3.66.95,5.47l.54,2.72c.18.91.44,1.8.65,2.7Z"/><path class="cls-1" d="M340.94,300.6c.33-1.24.71-2.46,1.15-3.63.16-.43.26-.89.44-1.3.61-1.5,1.35-2.93,2.05-4.36.32-.63.6-1.28.88-1.92A9.87,9.87,0,0,1,346.7,287c.35-.45,1.52.91,1.16,1.86s-.69,1.67-1.07,2.49-.84,1.59-1.31,2.38a21.05,21.05,0,0,0-1.27,3c-.41,1.14-.83,2.28-1.14,3.44-.21.72-.36,1.44-.5,2.17a13.19,13.19,0,0,0-.19,3.31,5.66,5.66,0,0,0,.23,1.24l.15.59.22.57c.06.17.13.33.18.5a1.08,1.08,0,0,1-.12,1.21c-.06.07-.11.15-.16.2s-.52,0-1-.4a3.66,3.66,0,0,1-.73-1.13,6.3,6.3,0,0,1-.49-1.27,4.8,4.8,0,0,1-.25-1.34,7.77,7.77,0,0,1-.05-1.36,19.47,19.47,0,0,1,.51-3.92Z"/><path class="cls-1" d="M371.07,257.25a1.91,1.91,0,0,0-.63,1.39,1.37,1.37,0,0,0,1.37,1.37,2.21,2.21,0,0,0,2.19-2.79,1.38,1.38,0,1,0-2.65.74c-.06-.24.17-.47.29-.63a.38.38,0,0,1,.17-.08c-.15,0-.15,0,0,0l1.38,1.38-.17.55a1.38,1.38,0,0,0,0-1.94,1.41,1.41,0,0,0-1.95,0Z"/><path class="cls-1" d="M372.7,270.88a3.22,3.22,0,0,0,.69-.91,1.41,1.41,0,0,0-.49-1.88,1.39,1.39,0,0,0-1.89.49.75.75,0,0,1-.25.35,1.38,1.38,0,0,0,1.94,1.95Z"/><path class="cls-1" d="M432.12,261.8c-.43-1.21-.76-2.45-1.14-3.67s-.67-2.48-1-3.73l-.61-2.74a82.87,82.87,0,0,1-1.23-9.79l-.16-2.18-.09-2.18a41.55,41.55,0,0,1,.09-5.58c0-.58.24-.49.44,0a7.24,7.24,0,0,1,.45,2.44l0,1.41.09,1.4.1,2.81c.15,1.87.22,3.76.44,5.63a30.77,30.77,0,0,0,.49,3.41c.2,1.15.42,2.29.69,3.42l.41,1.86.48,1.85c.3,1.24.68,2.46,1.05,3.67.22.76.49,1.5.75,2.24s.5,1.48.8,2.21c.85,2.22,1.8,4.42,2.85,6.53.82,1.64,1.74,3.2,2.66,4.76.2.35.39.69.6,1a12.13,12.13,0,0,1,.71,1.42,1.88,1.88,0,0,1,.09.76,1.84,1.84,0,0,1,0,.26c0,.1-.16,0-.37-.15a5.29,5.29,0,0,1-.83-1,58.3,58.3,0,0,1-5-8.91c-1.07-2.35-2-4.76-2.89-7.21Z"/><path class="cls-1" d="M416.1,220.65a32,32,0,0,0-3.66.12c-.45,0-.88.14-1.33.19a37.07,37.07,0,0,0-4.67.81c-.69.16-1.35.42-2,.64-.84.32-1.65.7-2.51,1-.28.08-.36-.17-.26-.51a1.83,1.83,0,0,1,.88-1,17.55,17.55,0,0,1,5.43-1.71c1.13-.19,2.28-.46,3.44-.61a37.73,37.73,0,0,1,3.83-.28c.79,0,1.58,0,2.37.07a17.83,17.83,0,0,1,1.78.16c.6.06,1.19.18,1.78.28s.9.17,1.36.25a7.91,7.91,0,0,1,1.35.36c.19.07.4.11.59.2.69.36.86.57.83.94a2.06,2.06,0,0,1,0,.26c-.08.26-.46.32-.95.17a45.37,45.37,0,0,0-4.59-1,27.44,27.44,0,0,0-3.63-.25Z"/><path class="cls-1" d="M417.05,146.42a7.36,7.36,0,0,1,3.93-2c.2,0,.41,0,.62,0s.35,0,.52,0a7.84,7.84,0,0,1,1,.11,18.78,18.78,0,0,1,1.9.38,25.88,25.88,0,0,1,2.65.73,42.87,42.87,0,0,1,8.6,4.15,14.58,14.58,0,0,1,3.46,2.78,3.83,3.83,0,0,1,.46.77,1.58,1.58,0,0,1,.14.53,3.47,3.47,0,0,1,0,.47,7.58,7.58,0,0,1-.41,1.47,9.37,9.37,0,0,1-1.26,2.46c-.37.49-.68.15-.83-.45a4.37,4.37,0,0,1,.08-2.39,4.33,4.33,0,0,0,.16-.56,4.49,4.49,0,0,0,0-.52.69.69,0,0,0,0-.19s0,0,0,0h0a.63.63,0,0,1,.2,0,1.19,1.19,0,0,0,.4-.08l.05,0h0l-.55.18H438l0,0a.12.12,0,0,1-.05-.07.35.35,0,0,0-.1-.13l-.15-.16a2.12,2.12,0,0,0-.37-.36,10,10,0,0,0-.91-.72A43.54,43.54,0,0,0,432,150a29,29,0,0,0-6-2.38,26,26,0,0,0-3.39-.8l-.83-.07a2.68,2.68,0,0,0-.7,0,4.15,4.15,0,0,0-1.39.52,10.44,10.44,0,0,0-3,2.89,20.41,20.41,0,0,0-3,5.82,9.32,9.32,0,0,0-.3,1.3,4,4,0,0,0,0,.57.51.51,0,0,0,.13.32l.05.05.09.12.17.22.36.43a7.71,7.71,0,0,0,.75.76,4.91,4.91,0,0,0,.78.56c.49.3.82.42,1.06.58a1.65,1.65,0,0,1,.51.6c.05.12.14.24.18.35s0,.36-.34.5a2.19,2.19,0,0,1-1.45.05,5.93,5.93,0,0,1-2.29-1.28,9.34,9.34,0,0,1-.89-.89l-.4-.46-.19-.24-.26-.34c-.1-.18-.17-.38-.26-.56a3.34,3.34,0,0,1-.1-.62,3.14,3.14,0,0,1,0-.52c0-.16,0-.29,0-.42a10.77,10.77,0,0,1,.29-1.48,19.5,19.5,0,0,1,.95-2.66,20.13,20.13,0,0,1,4.41-6.51Z"/><path class="cls-1" d="M438.5,211.54s-5.21-1.84-2.49-5.42,12-5.68,13.09-13.78c0,0,.26-4.07-2.58-14.73-.56-2.12,1-4.56.23-7.21l-4-8.67-4.26-2,.74-4.75a4,4,0,0,0-1.42-3.71l-4.13-3.38s-13.26,3.71-15.63-6.75c0,0-2.34-14.43-4.66-18.84,0,0-8.19-8.35-18.62-1.28,0,0-19.19,14-25.58,16-7.05,2.19-26-1.07-25.27-18,.4-9.89,18.22-28.71,47.06-28.67,0,0,24.77-2.19,30.7,23.64l.4,2.58s12.92-12.15,25.74-.28c0,0,11.9,10,9.19,20.88s-9.51,21.44-7.14,31.62,6.14,22.57,5.21,28.48S438.5,211.54,438.5,211.54Z"/><path class="cls-1" d="M343.9,192.13s4.17.89,3.83-3c-.32-3.58-5.8-2.6-7.37-9.53-1.65-7.29,15.9-20.61,17.78-22.12S361,145.73,361,145.73s-9.75,8.06-13.86,11.93-13.78,11-12.76,20S336.07,189.94,343.9,192.13Z"/><path class="cls-1" d="M173.28,437.5a20.06,20.06,0,0,1-1.31-1.9,7.42,7.42,0,0,1-.44-.7,26.06,26.06,0,0,1-1.17-2.67c-.15-.41-.34-.79-.48-1.19a4.7,4.7,0,0,1-.43-1.57c0-.18.23-.23.52-.17a1.16,1.16,0,0,1,.79.45l.76,1.37c.18.48.38,1,.54,1.47a8.45,8.45,0,0,0,1,1.67c.38.59.76,1.2,1.19,1.76a11.4,11.4,0,0,0,.84,1,7,7,0,0,0,1.47,1.26,3.91,3.91,0,0,0,1.35.42,2.33,2.33,0,0,1,.28.05c.33.07.42.25.5.61,0,.09.05.17.06.25,0,.26-.14.5-.55.63a3.82,3.82,0,0,1-.9.06,6.18,6.18,0,0,1-.84-.24,6.06,6.06,0,0,1-1.46-.85,11.41,11.41,0,0,1-1.72-1.68Z"/><path class="cls-1" d="M184.25,431.7a23.05,23.05,0,0,0,2.5,1.66c.33.17.67.28,1,.45a21,21,0,0,0,3.5,1.48l.81.16.81.06c.35,0,.63-.05,1-.11h.3s.09,0,.08,0l.06.16a.19.19,0,0,0,0,.07c0,.05.06.1,0,.1s0,0,0,0l-.12,0-.08,0-.11,0h0a.11.11,0,0,0,0-.05l0-.13c0-.08-.07-.17-.11-.27s.08-.28.36-.23a2.4,2.4,0,0,1,.51.16.53.53,0,0,1,.17.15c0,.09.13.11.08.45a.68.68,0,0,1-.22.37,1.4,1.4,0,0,1-.18.12l-.42.21a2.09,2.09,0,0,1-.23.08l-.32.08-.66.13a9.43,9.43,0,0,1-1.3,0,9.29,9.29,0,0,1-2.36-.75,28.65,28.65,0,0,1-2.64-1.22c-.92-.52-1.83-1.06-2.71-1.63-.54-.36-1.07-.72-1.59-1.1-.79-.57-1.56-1.19-2.32-1.79-.59-.46-1.23-.86-1.82-1.35-.13-.1-.26-.2-.39-.32-.44-.45-.45-.72-.24-1.07a1.64,1.64,0,0,1,.14-.22.72.72,0,0,1,.92,0,34.27,34.27,0,0,1,3.14,2.39c.78.62,1.57,1.25,2.41,1.81Z"/><path class="cls-1" d="M105.92,397c.17-.93.37-1.86.57-2.78.07-.34.1-.69.18-1,.29-1.18.61-2.35.93-3.52a14.13,14.13,0,0,0,.37-1.56,7.3,7.3,0,0,1,.58-2c.1-.2.36-.11.61.13a1.48,1.48,0,0,1,.48,1,15.55,15.55,0,0,1-.28,2,10.94,10.94,0,0,1-.57,2,17.23,17.23,0,0,0-.54,2.49c-.19.91-.38,1.83-.54,2.75-.1.57-.2,1.13-.27,1.7a20.69,20.69,0,0,0-.26,2.58c0,.67.13,1.32.16,2,0,.15,0,.28,0,.43a.76.76,0,0,1-.42.86.87.87,0,0,1-.18.11c-.2.08-.43-.11-.68-.51a8.21,8.21,0,0,1-.53-3.86,25.1,25.1,0,0,1,.31-2.88Z"/><path class="cls-1" d="M145.33,347.36a40.94,40.94,0,0,1-5.37-2.83c-.62-.39-1.27-.74-1.87-1.15a49.29,49.29,0,0,1-6-4.9c-.82-.8-1.66-1.56-2.45-2.38a17.6,17.6,0,0,1-2.7-3.43c-.22-.4,0-.52.53-.4a4,4,0,0,1,1.74,1c2.08,1.95,4.1,3.93,6.25,5.86a29.74,29.74,0,0,0,4.29,3.11,40.21,40.21,0,0,0,5.08,2.85,26.92,26.92,0,0,0,3.32,1.31,12.49,12.49,0,0,0,5.21.61,4.86,4.86,0,0,0,1.8-.61,4,4,0,0,0,1.26-1.14,2,2,0,0,0,.22-.54,6,6,0,0,1,.19-.78,2,2,0,0,1,.52-.57l.32-.25a.51.51,0,0,1,.62.11,1.61,1.61,0,0,1,.54,1.17,3.73,3.73,0,0,1-.87,2.56,5.41,5.41,0,0,1-2,1.49,9,9,0,0,1-4.57.63,23.84,23.84,0,0,1-6.11-1.66Z"/><path class="cls-1" d="M195.88,333.22a12.19,12.19,0,0,0-2.29.39,8.46,8.46,0,0,0-.8.28,14.72,14.72,0,0,0-2.87,1.09,8.66,8.66,0,0,0-1.15.74,9,9,0,0,1-1.39,1c-.33.18-.77-1-.24-1.5a10.2,10.2,0,0,1,3.25-2c.72-.26,1.41-.68,2.16-.93a15.38,15.38,0,0,1,2.52-.59,12.19,12.19,0,0,1,1.59-.14,16.28,16.28,0,0,1,2.42.11c.31.05.62.07.94.09a7.62,7.62,0,0,1,.93.18,1.33,1.33,0,0,1,.4.12c.49.21.59.38.51.78a2.61,2.61,0,0,1-.06.27.67.67,0,0,1-.73.4c-1,0-1.94-.24-2.94-.3-.36,0-.74,0-1.11,0s-.76,0-1.14.08Z"/><path class="cls-1" d="M86.09,275.13s-14.26,6.14-20.35-8.52c-.51-1.22-1.31-1.32-1.63-2.61-.87-3.56-4.09-11.25.87-17.82,3.3-4.35,7-4,7.61-6.17.51-1.78-3.84-3.58-4.63-5.26a8.1,8.1,0,0,1-.76-3.58S64,216.57,79.52,207a11.08,11.08,0,0,1,4.25-1.53,28.41,28.41,0,0,1,9.23.23,11,11,0,0,0,11.43-4.87c3-4.73,8.8-10,20.08-11a10.71,10.71,0,0,1,2.77.12c1.72.3,4.63,1.93,7.11,3.11,3.16,1.51,5.86,2.26,9,.6,10.6-5.7,24.57-11.45,34.66-3.61a25.75,25.75,0,0,1,7,8.19c5.72,10.82-.27,27.11-11.22,32.12a27.31,27.31,0,0,1-25.6-1.38c-1.71-1-6.83-4.16-6.83-4.16-1.16.38-2.05,3.3-4.75,4.43-1.57.65-3.09,1.61-4.83,1.8-5.58.6-8.57-6.13-15.48-2.93s-14.67,5.57-14.91,18.63,1.58,17.88-.19,19c-3,1.85-7.74-6.86-12.52-4.2C80.89,265.79,86.09,275.13,86.09,275.13Z"/><path class="cls-1" d="M158.92,295a27.8,27.8,0,0,1-4.39,9,21.4,21.4,0,0,1-7.82,6.24,24.11,24.11,0,0,1-6.91,2.24,28.57,28.57,0,0,1-12.58-1.05,39.85,39.85,0,0,1-11.16-5.58,51.87,51.87,0,0,1-8.3-7.27,34.82,34.82,0,0,1-7.53-11.87c-.48-1.39,0-1.33.85-.39.42.48,1,1.15,1.64,2,.32.41.68.85,1,1.32a16.45,16.45,0,0,1,1.06,1.53,47.62,47.62,0,0,0,9,10.34,42.12,42.12,0,0,0,11.67,7.27,25.3,25.3,0,0,0,16.47,1.08,21.58,21.58,0,0,0,8.1-4.21,18.91,18.91,0,0,0,1.66-1.57,20.39,20.39,0,0,0,1.43-1.79,21.52,21.52,0,0,0,2.27-4,41.53,41.53,0,0,0,2.85-11.2,144.62,144.62,0,0,0,1.06-17.77c0-4.61,0-9.15.26-13.75.1-1,.14-2,.28-3a22.26,22.26,0,0,1,.76-4,4.2,4.2,0,0,1,1-1.63c.15-.16.3-.37.41-.46.32-.29.56,1.32.29,4-.19,2-.31,4-.38,6.09s-.14,4.14-.18,6.24c-.06,4.21,0,8.51-.17,12.86-.08,3.22-.31,6.49-.7,9.72A58.62,58.62,0,0,1,159,295Z"/><path class="cls-1" d="M104.74,239.57c-2.59,5.17-3.2,11.25-2.72,17.16.17,2.17.5,4.32.89,6.49l.32,1.74.06.61a2.05,2.05,0,0,1-.1.55,3.12,3.12,0,0,1-.66.95,2.28,2.28,0,0,1-2.17.53,4.58,4.58,0,0,1-1.12-.44,8.25,8.25,0,0,1-.74-.46,56.09,56.09,0,0,0-4.7-3.41,5.45,5.45,0,0,0-4.81-.66,5.71,5.71,0,0,0-3,3.9,8.3,8.3,0,0,0,.09,4.71,6.93,6.93,0,0,0,1.06,2.08,11.59,11.59,0,0,0,1.68,1.75,13.74,13.74,0,0,0,5.54,2.84,16.54,16.54,0,0,0,6.27.41c1.29-.24,1.28.09.22.8a9.23,9.23,0,0,1-2.42,1,8.05,8.05,0,0,1-3.76.15,15.91,15.91,0,0,1-6.81-3,13.78,13.78,0,0,1-2.66-2.73,9.08,9.08,0,0,1-1.56-3.7,10.36,10.36,0,0,1,1.38-7.6,7,7,0,0,1,3.18-2.68,6.64,6.64,0,0,1,4.12-.21c3.11.86,5.24,3.06,7.41,4.53.68.43.67.43,1,.46a.38.38,0,0,0,.33-.49l-.35-1.68c-.15-.7-.29-1.4-.4-2.1a39.67,39.67,0,0,1,.89-18.74,25.21,25.21,0,0,1,6-10,18,18,0,0,1,1.62-1.52,20.8,20.8,0,0,1,1.73-1.37c.57-.46,1.26-.8,1.89-1.21a19.07,19.07,0,0,1,2.06-.93,13.12,13.12,0,0,1,4.47-.71,16.85,16.85,0,0,1,4.38.79c2.18.67,4.2,1.66,6.19,2.32a6.94,6.94,0,0,0,2.9.37,10.73,10.73,0,0,0,2.92-.75,11.25,11.25,0,0,0,2.3-1.28,14.69,14.69,0,0,0,2.56-2.33,4.31,4.31,0,0,1,1.34-1.06,3.92,3.92,0,0,1,.58-.29c.28-.07.34.26.21,1a6.63,6.63,0,0,1-1.59,2.86,12.62,12.62,0,0,1-5.45,3.52,11.42,11.42,0,0,1-3.34.6c-.29,0-.6,0-.9,0l-.92-.14a16.8,16.8,0,0,1-1.64-.47c-2.06-.74-3.84-1.62-5.69-2.19a12.07,12.07,0,0,0-5.44-.61,10.84,10.84,0,0,0-3.8,1.29,21,21,0,0,0-3.45,2.53,22.09,22.09,0,0,0-5.21,6.84Z"/><path class="cls-1" d="M68.39,216.4A27,27,0,0,1,71.3,212a25.72,25.72,0,0,1,3.75-3.7l.74-.61.79-.56a11.48,11.48,0,0,1,1.63-1,23.32,23.32,0,0,1,3.09-1.42l1.64-.48c.54-.17,1.11-.22,1.66-.34a19.44,19.44,0,0,1,6.72,0l.74.11.72.17,1.44.35c.94.31,1.89.59,2.79,1l1.71.78a18.59,18.59,0,0,1,1.64.91,14.26,14.26,0,0,1,3,2.27c.56.54.2.8-.61.82a6.56,6.56,0,0,1-1.48-.16,9.16,9.16,0,0,1-1.73-.67c-4.12-2.23-8.55-3.83-13.24-3.47a16.34,16.34,0,0,0-8,2.9,22.61,22.61,0,0,0-6.75,6.78A21.88,21.88,0,0,0,68.94,221a21,21,0,0,0-1,4.43,16.44,16.44,0,0,0,.16,4.49A13.53,13.53,0,0,0,71,236a7.79,7.79,0,0,0,1,1.09c.32.33.58.61.79.85a6.49,6.49,0,0,1,.54.59,1.46,1.46,0,0,1,.32,1,2,2,0,0,1,0,.5c-.11.49-1,.29-2.26-.6A14.51,14.51,0,0,1,67,233.88a17.35,17.35,0,0,1-1.4-7.15,23.42,23.42,0,0,1,2.7-10.35Z"/><path class="cls-1" d="M63.26,255.5a20.66,20.66,0,0,0,1.7,8.83,26,26,0,0,0,1.61,2.92,23.3,23.3,0,0,0,8.36,8.23,21.84,21.84,0,0,0,2.39,1.15l1.25.44.62.21c.21.06.43.09.64.14l1.65.33c.55.12,1.12.08,1.67.17,1.11.2,2.23.13,3.38.24.71.07.67.41.09.85a6.23,6.23,0,0,1-1.27.69c-.27.1-.57.2-.89.29a4.35,4.35,0,0,1-1,.08c-.63,0-1.27,0-1.9-.08s-1.24-.23-1.87-.35l-.93-.2c-.31-.08-.6-.2-.9-.3l-1.8-.63c-.57-.27-1.14-.56-1.7-.84l-.84-.45-.78-.54c-.52-.37-1-.72-1.54-1.1l-1.4-1.27A30.83,30.83,0,0,1,64,267.22a23.09,23.09,0,0,1-2.84-9.58,8.81,8.81,0,0,1,0-1.54l0-1.55c.12-1,.27-2,.46-3.05a19.33,19.33,0,0,1,4.15-8.27,12.45,12.45,0,0,1,6.06-4,8.77,8.77,0,0,1,1.62-.32,4.18,4.18,0,0,1,1.29,0,2.66,2.66,0,0,1,.86.2,2,2,0,0,1,.84.68,2.21,2.21,0,0,1,.21.33c.12.3-.72.53-2,.7a10.56,10.56,0,0,0-5.21,1.78,12.51,12.51,0,0,0-3.84,4.28,18.57,18.57,0,0,0-1.71,4.11l-.27,1.1-.16,1.11-.16,1.11a10.73,10.73,0,0,0,0,1.13Z"/><path class="cls-1" d="M183.23,188.68c.66.61,1.2,1.32,1.8,2l.88,1c.28.36.54.75.81,1.13l.8,1.13c.26.38.44.82.66,1.22a15,15,0,0,1,1.12,2.53,23.46,23.46,0,0,1,1.17,10.74l-.27,1.95c-.14.64-.3,1.27-.45,1.91l-.22,1-.32.92-.65,1.84a32.7,32.7,0,0,1-7.72,11.16l-.61.58-.67.54-1.33,1.06c-.93.65-1.9,1.26-2.87,1.84a24.78,24.78,0,0,1-6.37,2.4,29.45,29.45,0,0,1-6,.65,31.87,31.87,0,0,1-5.94-.65,33.05,33.05,0,0,1-7.24-2.39,29,29,0,0,1-6.31-4.22c-1.19-1-.84-1.1.4-.57s3.43,1.53,6,2.61a33.52,33.52,0,0,0,6.89,2.4,28.76,28.76,0,0,0,7.21.67,22.72,22.72,0,0,0,13.44-4.74c.57-.47,1.18-.88,1.72-1.4l1.6-1.57a29.6,29.6,0,0,0,6.51-11.83,24.53,24.53,0,0,0,.75-9.78,18.29,18.29,0,0,0-3.72-8.92,30,30,0,0,0-9.26-8c-5.49-2.86-12.18-2.67-18-.47A62.54,62.54,0,0,0,144.17,192l-2.64,1.79c-3.33,2.21-4.44,2.84-5.6,2.7a4.06,4.06,0,0,1-.76-.09c-.65-.24.43-1.57,2.78-3.41a76.83,76.83,0,0,1,11.49-7.39,41.37,41.37,0,0,1,13.67-4.5,22.73,22.73,0,0,1,11,1.33,26.74,26.74,0,0,1,9.11,6.18Z"/><path class="cls-1" d="M109.9,193.28a27.86,27.86,0,0,1,7-3.47c.45-.17.91-.31,1.37-.44a9.52,9.52,0,0,1,1.4-.34,21.4,21.4,0,0,1,5-.34,19.68,19.68,0,0,1,5,.86,25.88,25.88,0,0,1,4.14,1.6,15.17,15.17,0,0,1,4.53,3.31c.4.43.05.68-.59.7a4.91,4.91,0,0,1-2.42-.7,23.49,23.49,0,0,0-9.69-3.66,16.66,16.66,0,0,0-6.44.66,25.38,25.38,0,0,0-6.67,2.82,26.92,26.92,0,0,0-3.64,2.66,22.57,22.57,0,0,0-4.44,5.17,15.9,15.9,0,0,0-1.81,4.78c-.06.36-.09.72-.16,1.08-.18,1.34-.27,1.74-.87,2.07-.14.07-.27.17-.4.22-.43.18-.87-.44-.93-1.64a12.87,12.87,0,0,1,1-5.24,19.71,19.71,0,0,1,2.75-4.66,27.66,27.66,0,0,1,5.8-5.48Z"/><path class="cls-1" d="M174.75,354.39c-.92-1.4-1.83-2.8-2.78-4.18-.34-.51-.74-1-1.09-1.48-1.22-1.77-2.47-3.53-3.77-5.26-.56-.77-1.18-1.51-1.8-2.23A35,35,0,0,1,163,338.4c-.21-.32,0-.48.49-.44a2.59,2.59,0,0,1,1.58.77,43.46,43.46,0,0,1,4.87,5.77c.86,1.24,1.92,2.41,2.86,3.64s2,2.73,3,4.14l1.76,2.61,2.57,4c.66,1,1.41,2,2.07,3.05a6.07,6.07,0,0,1,.44.68c.48.91.47,1.28,0,1.7a4,4,0,0,1-.3.29c-.37.25-.88,0-1.31-.53-1.24-1.7-2.38-3.58-3.6-5.47-.9-1.4-1.81-2.81-2.75-4.2Z"/><path class="cls-1" d="M212.11,366.38c.43,3.45.81,6.9,1.12,10.37.11,1.27.27,2.53.35,3.8a99.11,99.11,0,0,1,0,13.46,47.71,47.71,0,0,1-.82,6,15.93,15.93,0,0,1-3,7.11c-.52.64-.66.35-.56-.38.05-.37.2-.81.31-1.37s.32-1.14.51-1.81a31.52,31.52,0,0,0,1.37-7.25c.22-2.49.4-5,.48-7.58a76.69,76.69,0,0,0-.48-9.4q-.45-5.18-1.13-10.35c-.27-2.13-.55-4.25-.87-6.37-.47-3.21-.92-6.44-1.44-9.63-.4-2.49-.91-4.9-1.23-7.41-.05-.55-.16-1.09-.17-1.66a5.58,5.58,0,0,1,.2-2.31,2.07,2.07,0,0,1,.32-.6,1.37,1.37,0,0,1,.49-.33,1.46,1.46,0,0,1,.43-.13c.2,0,.3.25.39.56a4.07,4.07,0,0,1,.14.63c0,.23.08.54.11.89.15,2.05.56,4.3.91,6.54s.74,4.57,1.11,6.87c.55,3.43,1,6.91,1.52,10.38Z"/><path class="cls-1" d="M188.68,337.71a.05.05,0,0,0,0,0s0,0-.07.12a3,3,0,0,0-.22.63,14.05,14.05,0,0,0-.3,1.59c-.14,1.11-.22,2.27-.25,3.43,0,.85,0,1.7,0,2.56a86.06,86.06,0,0,0,.36,9.07c.15,1.33.33,2.68.58,4,.33,1.67.75,3.33,1.17,4.93.14.5-.19.6-.71.32a3.66,3.66,0,0,1-1.55-2,36.35,36.35,0,0,1-1.34-5.27,40.26,40.26,0,0,1-.46-5.38c0-2.16-.32-4.38-.31-6.59a31.83,31.83,0,0,1,.7-7.39,4.11,4.11,0,0,1,.57-1.28,2.17,2.17,0,0,1,.59-.58l.55-.3c.68-.36,1.37-.67,2.08-1a33,33,0,0,1,6.57-1.88,19.33,19.33,0,0,1,5.34-.42l.61.06.61.14a3,3,0,0,1,.95.35,2.33,2.33,0,0,1,.58.38,1,1,0,0,1,.31.88,1.94,1.94,0,0,1-.07.42.59.59,0,0,1-.58.3,5,5,0,0,1-1-.17c-2.51-.6-5.6-.11-8.53.66a31.42,31.42,0,0,0-3.24,1.06c-.53.19-1,.43-1.55.66l-.75.37-.36.2-.17.1,0,0Z"/><path class="cls-1" d="M194.64,284.34a34,34,0,0,1,.91,11.74l-.07,1.07-.14,1.05-.3,2.11L194.2,304a8.79,8.79,0,0,0,0,3.28,32,32,0,0,0,2.1,6.83c.82,2,1.77,3.95,2.71,5.88.6,1.25,1.24,2.49,1.78,3.78a24,24,0,0,1,1.29,4c.19.87-.09.8-.59.2a21.71,21.71,0,0,1-2.06-3.07c-1.25-2.48-2.46-5-3.66-7.62a44.69,44.69,0,0,1-3-8.15,12.76,12.76,0,0,1-.32-5.58c.33-1.7.76-3.36.94-5.06a33.38,33.38,0,0,0-.19-11.15,25.58,25.58,0,0,0-2.18-6.49,20.81,20.81,0,0,0-2.84-4.32c-.28-.32-.57-.64-.88-.93-.15-.15-.3-.27-.45-.4a4.64,4.64,0,0,0-.44-.26,11.29,11.29,0,0,0-2.37-.69,22.73,22.73,0,0,0-7.85.05c-.55.11-1.09.23-1.62.39l-.68.18a5,5,0,0,1-.54.19c-.34.08-.58.19-.81.22a2.42,2.42,0,0,1-1.18-.09c-.17,0-.36-.06-.49-.11s-.21-.31,0-.79a1.91,1.91,0,0,1,.58-.76,3.72,3.72,0,0,1,1.05-.67,13.14,13.14,0,0,1,3.87-1.15,22.19,22.19,0,0,1,4-.28,22.63,22.63,0,0,1,4.07.4,12.2,12.2,0,0,1,2.09.55,8.48,8.48,0,0,1,1.12.52c.22.13.43.27.64.42s.3.27.45.4a24.59,24.59,0,0,1,6,10.64Z"/><path class="cls-1" d="M170,280.46a26.25,26.25,0,0,1,4.47-1.4c.55-.12,1.09-.29,1.65-.37a18.8,18.8,0,0,1,3-.2,8.58,8.58,0,0,1,3.1.58,4.79,4.79,0,0,1,.68.34l.57.38a12.2,12.2,0,0,1,1,.83,17.11,17.11,0,0,1,2.3,2.28c.2.26,0,.49-.48.58a2.19,2.19,0,0,1-1.62-.37c-.87-.68-1.72-1.3-2.5-1.82l-.29-.18a1.67,1.67,0,0,1-.23-.12,4.67,4.67,0,0,0-.57-.2,12.33,12.33,0,0,0-1.39-.26,11.48,11.48,0,0,0-3.78.36,24.65,24.65,0,0,0-4.13,1.18,15.54,15.54,0,0,0-2.36,1.13,7.22,7.22,0,0,0-1.23,1,.93.93,0,0,0-.32.91.69.69,0,0,0,.24.27,4.26,4.26,0,0,0,1.13.49,8.64,8.64,0,0,0,1.4.27l.59,0c.72,0,.68.09,1.08.5.09.08.21.15.32.23a.41.41,0,0,1,.1.59,1.53,1.53,0,0,1-.93.62,6.63,6.63,0,0,1-3-.06,6.77,6.77,0,0,1-1.47-.51,4.35,4.35,0,0,1-.48-.29,3.77,3.77,0,0,1-.48-.4,3.29,3.29,0,0,1-.7-1,3.05,3.05,0,0,1,0-1.56,2.34,2.34,0,0,1,.19-.5,1.77,1.77,0,0,1,.26-.49c.1-.15.2-.31.31-.45l.28-.29a7.11,7.11,0,0,1,1.07-.89,14.42,14.42,0,0,1,2.18-1.22Z"/><path class="cls-1" d="M169.14,287.34a37,37,0,0,1,3.6-2c.45-.22.88-.48,1.35-.66a11,11,0,0,1,2.73-.72,5.63,5.63,0,0,1,2.9.63,22.56,22.56,0,0,1,2.11,1.15,9,9,0,0,1,1.25.91A2.73,2.73,0,0,1,184,288c.11.35-.29.47-.8.52-.25,0-.54.05-.82.06a1.08,1.08,0,0,1-.66-.21,13.51,13.51,0,0,0-2.09-1.38,11.51,11.51,0,0,0-2.16-.95,2.63,2.63,0,0,0-1.36.21c-.51.18-1,.43-1.55.66a30.47,30.47,0,0,0-3.38,1.8,21.66,21.66,0,0,0-2,1.32,14.91,14.91,0,0,0-1.32,1.12c-.41.42-.65.73-.61,1.08a.69.69,0,0,0,.5.54,4.27,4.27,0,0,0,1.09.22l.54,0c.69,0,.91.29,1.06.79a2.13,2.13,0,0,1,.11.33.53.53,0,0,1-.17.5,1.25,1.25,0,0,1-.71.39,4.79,4.79,0,0,1-1.47,0,5.84,5.84,0,0,1-.8-.14l-.43-.14c-.17-.08-.34-.15-.51-.25a2.77,2.77,0,0,1-1.38-2,4.7,4.7,0,0,1,0-.65,4.56,4.56,0,0,1,.14-.64,3.76,3.76,0,0,1,.25-.58l.13-.27.14-.18a7.9,7.9,0,0,1,1.64-1.67c.56-.45,1.13-.85,1.71-1.24Z"/><path class="cls-1" d="M177.07,298.18A2.25,2.25,0,0,0,176,298a8.14,8.14,0,0,0-1.57.18c-1.11.21-2.26.56-3.54.79a8.69,8.69,0,0,1-1.5.14,4.22,4.22,0,0,1-.84-.09,3.14,3.14,0,0,1-1-.44,1.69,1.69,0,0,1-.76-1.63,2.71,2.71,0,0,1,.3-.91,3.31,3.31,0,0,1,.45-.65,10,10,0,0,1,1.86-1.68,21.61,21.61,0,0,1,4.13-2.34,16.07,16.07,0,0,1,2-.72,4.7,4.7,0,0,1,2.28-.15,5.86,5.86,0,0,1,2.54,1.3,13.27,13.27,0,0,1,1.84,1.92c.34.42.09.59-.46.49a5.56,5.56,0,0,1-2.12-1,5.68,5.68,0,0,0-1.95-1,2.45,2.45,0,0,0-.92-.08,5.36,5.36,0,0,0-1.08.25,23.5,23.5,0,0,0-4.53,2.18,8.81,8.81,0,0,0-2.28,1.93c-.47.57-.34.81.33.89a10.35,10.35,0,0,0,3.24-.53,15,15,0,0,1,3.73-.69,4.69,4.69,0,0,1,1.31.18,2.9,2.9,0,0,1,1.23.77,5.21,5.21,0,0,1,1.15,2.27,27.6,27.6,0,0,1,.38,6.83,6,6,0,0,0,2.1,4,5.51,5.51,0,0,0,.78.59,9.36,9.36,0,0,1,1,.75,1.29,1.29,0,0,1,.36.75,3.39,3.39,0,0,1,.08.44c.07.45-.69.75-1.85.29a7.85,7.85,0,0,1-4.58-6.61v-.74l0-.6,0-1.17a21.22,21.22,0,0,0-.17-3.33,3.54,3.54,0,0,0-.94-2.22Z"/><path class="cls-1" d="M164.69,257.48c.14-.32.28-.65.43-1a7.81,7.81,0,0,1,.61-1,4.16,4.16,0,0,1,.91-.92,2.6,2.6,0,0,1,1.43-.59,18.75,18.75,0,0,1,4,.14c.91.11,1.82.19,2.71.37a29.24,29.24,0,0,1,4.69,1.31,9.74,9.74,0,0,1,2.29,1.21,3.2,3.2,0,0,1,1,1.2,3.25,3.25,0,0,1,.2.75c.05.22.06.43.09.65a23.83,23.83,0,0,1-.16,4.33,15.21,15.21,0,0,1-1.32,5.25c-.26.52-.54.32-.77-.23a5.4,5.4,0,0,1-.37-2.45,33.44,33.44,0,0,0,.53-5.12,12.19,12.19,0,0,0,0-1.22,10.26,10.26,0,0,0-.1-1s-.06-.2-.33-.42a5.47,5.47,0,0,0-.94-.62,20.4,20.4,0,0,0-6.14-1.61,32.91,32.91,0,0,0-3.54-.36,8.91,8.91,0,0,0-1.59,0c-.22,0-.55.36-.84.76a10.87,10.87,0,0,0-1.32,3.93,19.13,19.13,0,0,0,0,6.58,7,7,0,0,0,.69,1.95,2,2,0,0,0,.83.51,6.83,6.83,0,0,0,1.26.33c.34.07.68.08,1,.12,1.3.13,1.6.25,2,.73.09.08.21.14.27.2s.07.25-.2.55a2.08,2.08,0,0,1-1.32.56,8.38,8.38,0,0,1-2.77-.16,7,7,0,0,1-1.44-.48,5.34,5.34,0,0,1-.78-.45c-.13-.12-.28-.25-.43-.4s-.25-.33-.36-.5a10.14,10.14,0,0,1-.9-2.61,18.42,18.42,0,0,1-.32-2.53,21.17,21.17,0,0,1,1-7.84Z"/><path class="cls-1" d="M158.93,314a2.23,2.23,0,0,0,.61,1.45,2.12,2.12,0,0,0,.7.21c.37.08.77.15,1.18.2.81.11,1.64.18,2.48.24s1.93.07,2.89.11,2,.06,2.93,0c.48,0,.95-.05,1.39-.11a4.39,4.39,0,0,0,.61-.12c.11,0,.19,0,.25-.13s.13-.16.23-.28a4,4,0,0,0,.27-.4,7.52,7.52,0,0,0,.48-.89,17,17,0,0,0,.78-2,28.59,28.59,0,0,0,1.05-4.41c.16-1,.28-1.93.4-2.9s.28-1.93.47-2.87c.1-.58.35-.54.69,0a5.15,5.15,0,0,1,.73,2.72,38.86,38.86,0,0,1-.81,6.13,24.47,24.47,0,0,1-.9,3,11,11,0,0,1-1.59,3c-.07.1-.18.21-.25.33a3,3,0,0,1-.61.45,2.43,2.43,0,0,1-.36.16l-.28.09a9,9,0,0,1-1,.22c-.64.11-1.26.18-1.89.23-1.24.11-2.47.17-3.7.16s-2.37-.07-3.57-.2c-.6-.07-1.19-.14-1.8-.25-.31-.05-.61-.11-.94-.19-.16,0-.33-.09-.5-.14a3.16,3.16,0,0,1-.62-.29c-.24-.19-.45-.36-.64-.54s-.33-.42-.49-.64a5.8,5.8,0,0,1-.73-2.87,15.58,15.58,0,0,1,.2-2.68,38.39,38.39,0,0,1,.84-3.81l.24-.91a8.27,8.27,0,0,1,.34-1,5,5,0,0,1,1.32-1.79,6.5,6.5,0,0,1,3-1.4,9.89,9.89,0,0,1,3.21-.08,9.16,9.16,0,0,1,1.37.25c1.71.48,2.06,1.09,2.07,1.77a2.46,2.46,0,0,1,0,.47c-.09.43-.87.52-1.89.27a10.33,10.33,0,0,0-4.5-.2,3.65,3.65,0,0,0-1.66.76,2.54,2.54,0,0,0-.82,1.4c-.32,1.32-.65,2.62-.88,3.88A11.4,11.4,0,0,0,159,314Z"/><path class="cls-1" d="M184.64,402.17c-1.11-1.35-2.14-2.76-3.11-4.19-.37-.52-.77-1-1.11-1.54q-1.78-2.82-3.35-5.73c-.48-.86-1-1.7-1.48-2.53a22.53,22.53,0,0,1-1.77-3.28c-.14-.37.16-.48.6-.36a2.78,2.78,0,0,1,1.46,1c1.4,2.09,2.81,4.15,4.05,6.35a33.28,33.28,0,0,0,2.65,3.77c1,1.35,2,2.69,3.13,4,.66.8,1.35,1.58,2.06,2.33.54.57,1.11,1.12,1.67,1.67s1.17,1.05,1.77,1.54,1,.7,1.48,1l1.54.9.67.4c.81.54,1,.85.92,1.4,0,.13,0,.26,0,.38-.11.38-.62.46-1.37.23a13,13,0,0,1-3.19-1.44,19.79,19.79,0,0,1-2.89-2.11,41.78,41.78,0,0,1-3.72-3.81Z"/><path class="cls-1" d="M105.51,396.7c.13-1.19.3-2.37.47-3.54.07-.43.09-.86.16-1.28.28-1.5.59-3,1-4.48.16-.65.32-1.31.46-2a6.5,6.5,0,0,1,1-2.49c.18-.24.38-.05.55.28a2.72,2.72,0,0,1,.22.56,1.68,1.68,0,0,1,0,.67,42.29,42.29,0,0,1-1.09,5,21.66,21.66,0,0,0-.53,3.14c-.17,1.15-.33,2.31-.45,3.48-.08.71-.14,1.43-.19,2.15a27.16,27.16,0,0,0-.06,3.25,21.22,21.22,0,0,0,.37,2.43c0,.17.07.34.09.52a1,1,0,0,1-.24,1.1c-.06.06-.11.12-.16.16s-.45-.07-.78-.55a10.7,10.7,0,0,1-1-4.79,33.32,33.32,0,0,1,.14-3.61Z"/><path class="cls-1" d="M184.66,418.24a55.88,55.88,0,0,0-8.57-2.12c-1.45-.25-2.92-.42-4.37-.53a26.68,26.68,0,0,0-4.29.25c-2.15.25-4.3.67-6.47,1-7.65,1.19-15.31,2.58-23.05,3.47-3.44.4-6.89.78-10.3,1.09-4.38.41-8.79.74-13.19.75-1.37,0-1.19-.25,0-.59a36,36,0,0,1,5.75-1.07c4.45-.44,8.89-1,13.32-1.53s8.85-1.26,13.32-1.89c5.34-.76,10.83-2,16.31-2.87a44.9,44.9,0,0,1,9.3-.82,57.22,57.22,0,0,1,9.14,1.55,49.92,49.92,0,0,1,10.68,4c.65.32,1.27.72,1.9,1.07s1.23.78,1.82,1.22a20.24,20.24,0,0,1,1.71,1.38,9.83,9.83,0,0,1,.84.79c.26.29.48.57.7.86q.66.87,1.26,1.77l.6.94c.26.42.52.86.74,1.3a5.35,5.35,0,0,1,.7,2.39,1.23,1.23,0,0,1-.4,1,1.66,1.66,0,0,1-1.1.22,4.34,4.34,0,0,1-1.76-.62,11.69,11.69,0,0,1-1.77-1.37c-.47-.43-.8-.72-1.23-1.07l-1.25-1a21.79,21.79,0,0,0-5.2-3.39c-.84-.37-1.7-.67-2.58-1-3.29-1.11-4.3-1.33-5-1.94-.16-.15-.38-.25-.5-.37s-.09-.2.05-.3a1.72,1.72,0,0,1,.77-.25,9.76,9.76,0,0,1,3.11.27,30.61,30.61,0,0,1,5.8,1.88,25.41,25.41,0,0,1,5.26,3.48l1.18,1c.2.16.43.37.62.54l.49.44h0a0,0,0,0,0,0,0h0l-.33-.5c-.39-.6-.82-1.2-1.25-1.78-.22-.28-.44-.57-.65-.82l-.13-.15-.14-.13-.39-.34a22.18,22.18,0,0,0-3.45-2.5,39.56,39.56,0,0,0-8-3.56Z"/><path class="cls-1" d="M197.24,432.46a3.59,3.59,0,0,0,1.22.52c.11,0,.09,0,.12,0h.07a.18.18,0,0,0,.1-.09.3.3,0,0,0,0-.21,3.93,3.93,0,0,0-.28-.66,7.18,7.18,0,0,0-.92-1.35,22.78,22.78,0,0,0-1.74-1.81,38.44,38.44,0,0,0-3.43-2.91,20.94,20.94,0,0,0-1.86-1.26,12.11,12.11,0,0,0-2-.9c-1.26-.46-2.58-.83-3.89-1.18-.84-.21-1.69-.4-2.54-.6s-1.68-.49-2.52-.72c-.51-.15-.42-.34.08-.53a6.63,6.63,0,0,1,2.44-.33,47.28,47.28,0,0,1,5.36,1,25.37,25.37,0,0,1,2.64.95,11.16,11.16,0,0,1,1.33.68c.41.26.79.52,1.17.8a32.79,32.79,0,0,1,5.21,4.38,15.4,15.4,0,0,1,2.28,3.11,4.61,4.61,0,0,1,.4,1,2.07,2.07,0,0,1-.1,1.39,2.2,2.2,0,0,1-2.35.92,6.81,6.81,0,0,1-2.26-1c-.66-.42-1.26-.88-1.87-1.34a55.45,55.45,0,0,0-5.43-3.95,46.73,46.73,0,0,0-4.62-2.23l-1-.45a6.17,6.17,0,0,1-1.27-.71,1.38,1.38,0,0,1-.41-.7c0-.12-.1-.25-.12-.36-.11-.34.71-.59,1.75-.28a25.26,25.26,0,0,1,4.47,1.86,30.84,30.84,0,0,1,4.29,2.6c2,1.44,3.86,3.15,5.72,4.27Z"/><path class="cls-1" d="M190.06,432.88a14.69,14.69,0,0,0,2.65,1,1.79,1.79,0,0,0,.84.07c0-.05.08.12.18.18s0,0,0,0,0,0-.11,0-.13,0-.12,0,0,0,0,0,0-.1-.07-.19a7,7,0,0,0-1.17-1.5c-.85-.89-1.77-1.77-2.74-2.62a16.91,16.91,0,0,0-3.06-2.24c-1-.56-2-1.06-3.08-1.53l-2-.89a20.26,20.26,0,0,1-2-1.13c-.4-.27-.24-.43.22-.49a6.39,6.39,0,0,1,2.09.08c1.44.47,2.89,1,4.32,1.6a23.6,23.6,0,0,1,2.07,1.16A14.36,14.36,0,0,1,190,427.8a32.13,32.13,0,0,1,4.2,4,5.88,5.88,0,0,1,.9,1.57,1.86,1.86,0,0,1,0,1.29,1.3,1.3,0,0,1-.46.62,1.79,1.79,0,0,1-.55.31,3.57,3.57,0,0,1-1.93,0,14.4,14.4,0,0,1-1.57-.48c-1.22-.46-2.38-1-3.53-1.59-1.73-.86-3.4-1.83-5.08-2.75-1.3-.71-2.63-1.33-3.93-2-.28-.15-.57-.3-.84-.47a3.47,3.47,0,0,1-1-.82,1.09,1.09,0,0,1-.19-.75,3.29,3.29,0,0,1,0-.36c0-.17.21-.25.48-.26a2.22,2.22,0,0,1,1,.23c2.41,1,4.72,2.46,7.12,3.77,1.77,1,3.55,2,5.36,2.77Z"/><path class="cls-1" d="M179.91,438.93a1.72,1.72,0,0,1-.51.53l-.65.15c-.18.1-.5-.05-.76-.09a2.57,2.57,0,0,1-.81-.24l-.81-.4a3,3,0,0,1-.37-.21l-.24-.18a7.69,7.69,0,0,1-.86-.73,13.49,13.49,0,0,1-1.13-1.14A26.87,26.87,0,0,1,170.9,432c-.37-.7-.72-1.42-1.05-2.14a10,10,0,0,1-1-2.89c0-.32.23-.34.58-.18a2.43,2.43,0,0,1,1.05,1c.43.87.9,1.72,1.39,2.57s.9,1.74,1.35,2.62a13.38,13.38,0,0,0,2.2,2.82,11,11,0,0,0,1.41,1.26l.23.18.19.12a2.11,2.11,0,0,0,.44.17.25.25,0,0,0,.37-.28,1.81,1.81,0,0,0-.14-.59l-.1-.24-.2-.43-.42-.85-.88-1.73a13.19,13.19,0,0,1-1.25-2.88,5.92,5.92,0,0,1-.09-.75,1.59,1.59,0,0,1,.29-1,.69.69,0,0,1,.56-.28,1.38,1.38,0,0,1,.29,0c.29.07.38.45.52.89a22.87,22.87,0,0,0,1.93,4.39c.33.61.63,1.18,1,1.91a6.45,6.45,0,0,1,.61,1.83A2.16,2.16,0,0,1,180,439Z"/><path class="cls-1" d="M29.75,350.14A108.67,108.67,0,0,0,47.1,389.37a109.93,109.93,0,0,0,10.09,12.09,83.74,83.74,0,0,0,22,16.71,101.64,101.64,0,0,0,12.69,5.68,118.69,118.69,0,0,0,13.36,4,130.81,130.81,0,0,0,24.55,3.32,148.45,148.45,0,0,0,31.43-2.12c3.14-.59,3-.06.48,1.54a26.16,26.16,0,0,1-5.54,2.39,38.44,38.44,0,0,1-8.34,1.53,140.63,140.63,0,0,1-33.05-1.33A117.9,117.9,0,0,1,83,423.59a104.57,104.57,0,0,1-17.41-10.4l-1-.76-1-.81-2-1.62c-1.31-1.11-2.56-2.29-3.83-3.44l-3.61-3.64q-1.69-1.91-3.41-3.8a111.32,111.32,0,0,1-21.48-38.94A117.29,117.29,0,0,1,24,333.25a121.82,121.82,0,0,1,4.1-41.11,142.74,142.74,0,0,1,5.14-15.06,126.41,126.41,0,0,1,7-14.2c1.23-2,2.32-4,3.69-5.91a56.4,56.4,0,0,1,5.64-7.35,16.49,16.49,0,0,1,1.8-1.7,8.32,8.32,0,0,1,1.47-.91,11.69,11.69,0,0,1,1.18-.59c.94-.27-1,2.74-4.61,7.78A126.9,126.9,0,0,0,35.85,279a132.86,132.86,0,0,0-4.67,13.69,129.22,129.22,0,0,0-3,14.25,116.59,116.59,0,0,0,1.64,43.21Z"/><path class="cls-1" d="M246.88,346.44a140.33,140.33,0,0,0,1.93-35.57c-.3-4.34-.93-8.65-1.66-12.93a111.72,111.72,0,0,0-16.59-42.56,108,108,0,0,0-12.68-16c-1.5-1.58-3.08-3.08-4.64-4.6l-2.42-2.18c-.81-.73-1.61-1.46-2.46-2.14-3.29-2.85-6.79-5.43-10.2-8.14-2.06-1.8-1.64-1.8.61-1a33.64,33.64,0,0,1,10.18,6,112.68,112.68,0,0,1,18.83,19.59,111.35,111.35,0,0,1,13.73,23.56l1.58,3.79,1.44,3.89c.51,1.29.92,2.62,1.34,3.95s.9,2.64,1.23,4a120.69,120.69,0,0,1,3.48,16.41,140.3,140.3,0,0,1,.34,36.62,131,131,0,0,1-4.6,22.08A112.46,112.46,0,0,1,231.91,392a99.27,99.27,0,0,1-8,10.42c-1.39,1.68-2.95,3.21-4.45,4.78-.77.77-1.59,1.5-2.38,2.25s-1.6,1.49-2.46,2.17l-2.2,1.85c-.74.61-1.53,1.16-2.31,1.74s-1.39,1-2,1.45l-1.76,1.09a28,28,0,0,1-2.7,1.52,8.62,8.62,0,0,1-3.35,1,6.15,6.15,0,0,1-1.14,0c-.45-.11-.1-.64.91-1.46s2.67-1.91,4.76-3.4a95.42,95.42,0,0,0,30.61-35.08,120.05,120.05,0,0,0,11.34-33.88Z"/><path class="cls-1" d="M271.48,209.55a113,113,0,0,0,1.44,41.15,111.85,111.85,0,0,0,4.34,14.46l1.19,3.11c.41,1,.88,2,1.31,3.06.85,2.05,1.89,4,2.85,6a109.29,109.29,0,0,0,6.83,11.44,97.74,97.74,0,0,0,17.66,19.86,86.82,86.82,0,0,0,9.67,6.82,100.19,100.19,0,0,0,10.49,5.43,122.43,122.43,0,0,0,14.21,5.19c4.84,1.45,9.75,2.63,14.65,3.88,3.05.85,2.58,1.17-.19,1.37a40.41,40.41,0,0,1-5.69-.1c-1.17-.12-2.42-.33-3.75-.56s-2.72-.6-4.15-1a107.55,107.55,0,0,1-28.91-12.85,81.61,81.61,0,0,1-12.5-9.91,101,101,0,0,1-10.42-12,112.78,112.78,0,0,1-22.69-76.54l.25-3.27.38-3.26c.22-2.18.64-4.33,1-6.49a118.25,118.25,0,0,1,3.06-12.75,120.16,120.16,0,0,1,17.35-35.45,101,101,0,0,1,21-21.82c1.76-1.36,3.48-2.69,5.32-4a73,73,0,0,1,7.45-4.71,20.61,20.61,0,0,1,2.13-1,9.75,9.75,0,0,1,1.58-.41c.43-.07,1-.22,1.23-.22.9,0-1.73,2.14-6.7,5.48a135.87,135.87,0,0,0-20.88,17.29c-1.6,1.64-3.11,3.37-4.58,5.13s-2.81,3.66-4.19,5.52a114.51,114.51,0,0,0-7.42,11.83,116,116,0,0,0-13.18,39.32Z"/><path class="cls-1" d="M496.88,219.37a119.13,119.13,0,0,1-3.82,32.86c-1,3.9-2.07,7.79-3.45,11.57a111.63,111.63,0,0,1-21.3,36.57,86.56,86.56,0,0,1-13.91,12.74,68.69,68.69,0,0,1-10.32,6.32c-1.79.93-3.68,1.67-5.55,2.43a42.43,42.43,0,0,1-5.83,1.64c-2.49.42-2.23-.07-.43-1.32.45-.33,1-.66,1.64-1s1.33-.83,2.11-1.27c1.57-.83,3.38-1.79,5.4-2.7a75.45,75.45,0,0,0,19.46-13.33,86.2,86.2,0,0,0,8.16-8.7,105.08,105.08,0,0,0,7.12-9.7,111.23,111.23,0,0,0,12.26-26.85,124,124,0,0,0,5.75-32.07,103.46,103.46,0,0,0-1.23-20c-.32-2.52-.93-5-1.41-7.5l-.93-3.71-.47-1.85-.55-1.82L488.46,188l-1.29-3.59-.65-1.79-.73-1.76c-.49-1.16-1-2.33-1.46-3.5a119.28,119.28,0,0,0-11.61-20.16l-3-4.1c-3.88-5.05-5.2-6.58-5.52-8.14a6.92,6.92,0,0,1-.26-1c-.12-.74,2.12.8,5.23,4.42a116.72,116.72,0,0,1,21.62,38.12A114.83,114.83,0,0,1,497,219.35Z"/><path class="cls-1" d="M151.74,347a24.45,24.45,0,0,1-8.6-2.69c-1-.47-1.93-.94-2.84-1.49a48.69,48.69,0,0,1-8.87-6.89c-1.18-1.16-2.37-2.33-3.44-3.6a17.57,17.57,0,0,1-3.35-5.43c-.23-.64.11-.66.65-.31a9.15,9.15,0,0,1,2,1.93,64.91,64.91,0,0,0,8.65,8.83,36.22,36.22,0,0,0,6.39,4.25,28.9,28.9,0,0,0,7.77,3.08,9.24,9.24,0,0,0,4.85-.11,4.65,4.65,0,0,0,1.49-.89,2.07,2.07,0,0,0,.68-1.33,5.85,5.85,0,0,0-1.29-3.28c-1.14-1.65-2.63-3.05-4-4.69-.29-.36-.59-.72-.86-1.11a4.56,4.56,0,0,1-.84-1.73,1.41,1.41,0,0,1,.28-1.06,2.2,2.2,0,0,1,.3-.36c.19-.15.43-.08.71.1a3.86,3.86,0,0,1,1,1c1,1.36,2.28,2.68,3.48,4.19.6.75,1.21,1.54,1.78,2.41a10.66,10.66,0,0,1,1.45,3.07,5.26,5.26,0,0,1,.16,1.52,4,4,0,0,1-.45,1.64,5.07,5.07,0,0,1-2.13,2.07,9.12,9.12,0,0,1-5,1Z"/><path class="cls-1" d="M79.13,370.8a105.52,105.52,0,0,1,6.94-15.41c1-1.8,2-3.61,3.07-5.34a103.6,103.6,0,0,1,6.29-8.86,63.61,63.61,0,0,1,7.4-8,37.5,37.5,0,0,1,8-5.56,26.38,26.38,0,0,1,5.86-2.21,25.35,25.35,0,0,1,3.11-.46l1.55-.1c.52,0,1,.07,1.56.11,1.29.11,1.1.37,0,.84a46.34,46.34,0,0,1-5,1.82,30.23,30.23,0,0,0-10.44,5.14A51.33,51.33,0,0,0,103,336.6c-1.43,1.4-2.86,2.85-4.2,4.4a82.7,82.7,0,0,0-8.63,12.34c-1.43,2.38-2.75,4.82-4,7.3s-2.39,5-3.44,7.59a100.18,100.18,0,0,0-3.4,9.69,98.39,98.39,0,0,0-3.23,15.2,60.76,60.76,0,0,0-.26,11.82c.06.86.16,1.7.26,2.56.17,1.6.33,2.65.34,3.4a4,4,0,0,1-.29,1.62c-.08.18-.13.4-.2.51s-.29,0-.6-.58a8.49,8.49,0,0,1-.91-2.66c-1.43-7.17-.94-15,.36-22.48a106.16,106.16,0,0,1,4.31-16.52Z"/><path class="cls-1" d="M155.39,353.64a21.2,21.2,0,0,1-5.78-.68c-.67-.17-1.36-.3-2-.53a32.49,32.49,0,0,1-6.57-3.06c-.92-.55-1.82-1.13-2.68-1.75a11.83,11.83,0,0,1-3-2.84c-.24-.36,0-.45.41-.35a4.54,4.54,0,0,1,1.6.83,24.53,24.53,0,0,0,3.27,2.19c1.14.66,2.31,1.3,3.51,1.9a23.5,23.5,0,0,0,4.63,1.62,22.71,22.71,0,0,0,5.29.79,11.33,11.33,0,0,0,3.19-.36,5.38,5.38,0,0,0,3.58-2.76,6.57,6.57,0,0,0,.43-3.52c0-.27-.1-.52-.12-.79-.07-1,.08-1.37.54-1.68a3.46,3.46,0,0,1,.31-.22c.34-.17.74.21,1.1,1a7.77,7.77,0,0,1,.31,4,7.19,7.19,0,0,1-2.08,4,7.49,7.49,0,0,1-1.36,1,8.34,8.34,0,0,1-1.51.66,11.23,11.23,0,0,1-3.07.58Z"/><path class="cls-1" d="M357.19,173.51a56.78,56.78,0,0,0,.13,13.73,25.84,25.84,0,0,0,1.21,4.75,13.56,13.56,0,0,0,4.62,6.81,17.71,17.71,0,0,0,8.06,2.69,30.5,30.5,0,0,0,7.81-.25,38.7,38.7,0,0,0,4.87-1.15,28.06,28.06,0,0,0,4.66-1.75c.93-.43,1-.08.44.72a9.15,9.15,0,0,1-3.86,2.79,32.55,32.55,0,0,1-10.65,2.07,22.69,22.69,0,0,1-10.81-2.26,14.31,14.31,0,0,1-5.17-4.61,20,20,0,0,1-2.76-6.22,47.09,47.09,0,0,1-1-14.41c.17-2.94.51-5.86.92-8.76.63-4.39,1.54-8.75,2.47-13,.73-3.34,1.39-6.62,2.29-9.88.19-.72.36-1.43.58-2.14.84-2.65,1.26-3.45,1.85-3.89a2.78,2.78,0,0,1,.39-.29c.39-.16.32,1-.07,3-.59,3-1.22,6-1.87,9s-1.37,6.12-2,9.21a131,131,0,0,0-2,13.89Z"/><path class="cls-1" d="M346.8,107.82l-1.38,1.79c-.47.59-.8,1.27-1.21,1.89l-.59,1a10.16,10.16,0,0,0-.48,1l-.47,1a5.27,5.27,0,0,0-.4,1,16.22,16.22,0,0,0-.83,8.57,15.09,15.09,0,0,0,3.82,7.64,17.73,17.73,0,0,0,7.35,4.62,23.62,23.62,0,0,0,12.92.4A35.53,35.53,0,0,0,376.27,132c3.39-2.11,6.6-4.55,9.87-7a58,58,0,0,1,10.43-6.61,20.33,20.33,0,0,1,6.08-1.73,14.16,14.16,0,0,1,6.37.71,9.39,9.39,0,0,1,4.51,3.62,16.51,16.51,0,0,1,2.12,5.23c.87,3.6,1.11,7.22,1.73,10.68a19.3,19.3,0,0,0,2,6.26,7.41,7.41,0,0,0,2.07,2.31,10.14,10.14,0,0,0,2.78,1.52,15.07,15.07,0,0,0,12.53-1.33l.69-.51c.2-.15.33-.29.45-.39s.39-.26.43-.21-.16.78-1,1.75a10.41,10.41,0,0,1-4.45,2.84,14.52,14.52,0,0,1-7.65.51,15.44,15.44,0,0,1-1.88-.53,14.53,14.53,0,0,1-1.79-.83l-.86-.5-.8-.61a4.8,4.8,0,0,1-.77-.67,5.58,5.58,0,0,1-.7-.76,16,16,0,0,1-3-7.05c-1-4.76-1-9.5-2.38-13.68a8.84,8.84,0,0,0-3.41-4.93,10,10,0,0,0-5.95-1.36,17.42,17.42,0,0,0-6.34,1.62,39,39,0,0,0-6,3.4c-4.63,3.09-9,6.89-14,10.08a42.53,42.53,0,0,1-7.93,4.11,26.36,26.36,0,0,1-8.82,1.83l-1.24,0a7.34,7.34,0,0,1-1.24,0l-2.49-.21-2.45-.51c-.81-.18-1.59-.52-2.39-.77a19.34,19.34,0,0,1-8.11-5.81,17.44,17.44,0,0,1-3.83-9.21,19.79,19.79,0,0,1,1.58-9.78,31.54,31.54,0,0,1,6.9-9.83,45.65,45.65,0,0,1,9.6-7.07l2-1.07,2.05-1,1-.48,1-.41,2.09-.84a69.11,69.11,0,0,1,8.63-2.51,63.9,63.9,0,0,1,17.8-1.54,43.58,43.58,0,0,1,13.5,2.8l.82.3.78.38,1.55.78c1,.52,2,1.22,3,1.82L412.58,96a13.11,13.11,0,0,1,1.33,1.14,24.24,24.24,0,0,1,2.39,2.57l1,1.2c.3.41.57.85.85,1.27s.58.85.83,1.3.47.91.71,1.37a19.78,19.78,0,0,1,1.09,2.41,17.47,17.47,0,0,1,.74,2.07,19.61,19.61,0,0,1,.77,3.18,10.48,10.48,0,0,1,.06,3.62,9.93,9.93,0,0,1-.15,1.09c-.21.75-1-2.24-2.66-7.24a27.93,27.93,0,0,0-6-10,26.37,26.37,0,0,0-9.86-6.45c-7.55-2.8-16.17-3.06-24.39-1.86a63.94,63.94,0,0,0-17.79,5.31,42.11,42.11,0,0,0-14.64,10.93Z"/><path class="cls-1" d="M449.31,172.81a34.85,34.85,0,0,1-.82-5.68,29,29,0,0,1,.41-5.76,55.38,55.38,0,0,1,3.26-10.81l1.5-3.75a38.94,38.94,0,0,0,1.32-3.67,28.72,28.72,0,0,0,.6-13.62,20.78,20.78,0,0,0-2.52-6.35,19.88,19.88,0,0,0-1.91-2.87L450.07,119c-.38-.42-.82-.79-1.23-1.19A19.18,19.18,0,0,0,438,112.63a22.37,22.37,0,0,0-11.46,1.49,18.56,18.56,0,0,0-1.73.86,7.12,7.12,0,0,0-.78.53,5.38,5.38,0,0,0-.76.57c-1.07,1.06-1.31.78-.58-.57a10.93,10.93,0,0,1,6.15-4.11,23,23,0,0,1,8.57-.74,25,25,0,0,1,4.26.81l2,.75a5.15,5.15,0,0,1,1,.44l1,.5,1,.51c.31.2.6.42.9.62.58.43,1.2.82,1.75,1.29a22.74,22.74,0,0,1,3,3.12,20.09,20.09,0,0,1,1.32,1.72l1.1,1.84a19.87,19.87,0,0,1,1.82,3.91A27.45,27.45,0,0,1,458,136.45a34.88,34.88,0,0,1-.64,5.19c-.18.86-.35,1.68-.61,2.55s-.57,1.66-.88,2.46A108.54,108.54,0,0,0,452,157a36.44,36.44,0,0,0-1.19,5.32,26.92,26.92,0,0,0-.27,2.69,21.71,21.71,0,0,0,.06,2.68c.38,4.43,1.79,8.82,2.95,13.24.45,1.68.87,3.38,1.2,5.11s.84,3.36,1.06,5.12a19.89,19.89,0,0,1,.06,5.34,15.77,15.77,0,0,1-1.64,5.11A17.35,17.35,0,0,1,451.8,205a20.83,20.83,0,0,1-3.08,2.71,30.68,30.68,0,0,1-7.16,3.78c-1.11.42-2.2.83-3.35,1.15a24.75,24.75,0,0,1-4.59,1,6.09,6.09,0,0,1-2.14-.24,5.86,5.86,0,0,1-.67-.22c-.23-.15.08-.37.82-.69a23.46,23.46,0,0,1,3.41-1.15,52.11,52.11,0,0,0,6.63-2.22,29.33,29.33,0,0,0,6.1-3.35,15.84,15.84,0,0,0,4.52-5,13.62,13.62,0,0,0,1.62-6.48,22.73,22.73,0,0,0-.63-5.19c-.19-.88-.44-1.76-.64-2.76s-.36-1.77-.58-2.66c-.85-3.56-2-7.12-2.8-10.84Z"/><path class="cls-1" d="M333.39,174.47a23.67,23.67,0,0,1,5.57-10.2c.92-1,1.82-2.1,2.81-3.05,3.49-3.38,7.23-6.34,10.81-9.46,1.59-1.38,3.12-2.84,4.55-4.35.91-1,1.77-2,2.61-3s1.71-2,2.51-3.09c.52-.65.78-.37.72.44a7.32,7.32,0,0,1-1.35,3.52,46.91,46.91,0,0,1-5.68,6.25c-2,1.92-4.16,3.7-6.34,5.42a76,76,0,0,0-7.4,6.85,26.84,26.84,0,0,0-6.09,8.88,14.31,14.31,0,0,0-.94,6.44,17.38,17.38,0,0,0,1.15,4.87,10.51,10.51,0,0,0,2.84,4,17,17,0,0,0,6.86,3.28c.54.16,1.1.26,1.65.4,2.07.52,2.72.8,3.09,1.39a2.42,2.42,0,0,1,.24.39c.14.38-.8.6-2.44.43a23.58,23.58,0,0,1-7.3-2.06,16.75,16.75,0,0,1-3.41-2.22,12.51,12.51,0,0,1-2.7-3.22,8.87,8.87,0,0,1-.71-1.41l-.31-.72-.22-.72a19.41,19.41,0,0,1-.72-2.94,16.85,16.85,0,0,1,.14-6.09Z"/><path class="cls-1" d="M422.37,177.71c-1.26-.54-2.6-2.44-1.61-3.76a2.54,2.54,0,0,1,.82-.81,3.29,3.29,0,0,1,.52-.29l.27-.13.19-.08a9.81,9.81,0,0,1,1.47-.4,18.52,18.52,0,0,1,2-.35,28.43,28.43,0,0,1,3.57-.06,15.43,15.43,0,0,1,1.79.15,7.79,7.79,0,0,1,1.89.43,1.71,1.71,0,0,1,.56.35l.95,1q.45.51.87,1a12.79,12.79,0,0,1,1.15,1.68,11.88,11.88,0,0,1,.71,1.88c.12.4-.17.47-.6.3a4.78,4.78,0,0,1-1.54-1.1,21.58,21.58,0,0,0-1.32-1.78c-.24-.28-.49-.56-.74-.83l-.39-.41-.2-.2-.1-.11s0,0,0,0c.14,0-.36-.16-.82-.23s-1-.12-1.48-.18a18.12,18.12,0,0,0-4.7.23,10.86,10.86,0,0,0-2.39.56.91.91,0,0,0-.46.29.44.44,0,0,0,0,.53,1,1,0,0,0,.27.27,2.52,2.52,0,0,0,.57.33,6.61,6.61,0,0,0,1.45.43c1.58.31,3.24.34,5,.5a5.24,5.24,0,0,1,.53.08,3,3,0,0,1,.58.14,3.35,3.35,0,0,1,1,.63,5.37,5.37,0,0,1,1.27,1.82,7.34,7.34,0,0,1,.35.83c.36,1.06.23,1.38-.17,1.74a3,3,0,0,1-.28.24c-.29.22-.82-.13-1.13-.83a6.55,6.55,0,0,0-1.46-2.44c-.31-.23-.36-.2-.93-.28s-1.11-.08-1.7-.11c-.9,0-1.83-.1-2.79-.24a11.31,11.31,0,0,1-3-.82Z"/><path class="cls-1" d="M446.1,167.19a54.65,54.65,0,0,1,1.53,6.82c.07.6.16,1.17.18,1.83a8,8,0,0,1-.22,2,13.07,13.07,0,0,1-1.43,3.4,32.43,32.43,0,0,1-2.9,4.22c-3.77,4.63-8.08,8.59-12,12.89a38.77,38.77,0,0,0-4.69,6.07,9.94,9.94,0,0,0-.89,2.19,18.77,18.77,0,0,0-.54,2.36c-.3,1.6-.36,3.23-.66,4.92-.12.54-.31.76-.39.7s-.11-.34-.17-.78a17.42,17.42,0,0,1-.15-4.44,18.52,18.52,0,0,1,1.31-5.14c.09-.19.13-.23.18-.34l.17-.29c.1-.2.22-.39.33-.57.23-.38.47-.75.72-1.1.49-.73,1-1.42,1.54-2.1,2.14-2.7,4.49-5.17,6.85-7.63a87.74,87.74,0,0,0,8.1-9.34,15.81,15.81,0,0,0,2.91-5.77,5.37,5.37,0,0,0,.07-1.5c-.05-.54-.12-1.09-.22-1.64-.19-1.11-.42-2.22-.69-3.32-.33-1.35-.7-2.7-1.15-4a15.58,15.58,0,0,0-.77-1.87,6,6,0,0,0-.47-.8c-.09-.08-.13-.14-.24-.24l-.43-.28a20.68,20.68,0,0,0-5.6-2.69,29.08,29.08,0,0,0-6.12-1.27,28,28,0,0,0-4.48-.11c-.74,0-1.47.1-2.2.19-.36,0-.72.09-1.07.15a3.11,3.11,0,0,0-.77.2c-.06.08-.14.12-.17.21a.3.3,0,0,0,0,.37.57.57,0,0,0,.14.13l.31.25a24,24,0,0,0,2.32,1.31,3.11,3.11,0,0,1,1,.81,2.72,2.72,0,0,1,.29.37c.17.34-1,.35-2.93-.34-.36-.14-.73-.3-1.09-.48a5.63,5.63,0,0,1-1.15-.74,2.34,2.34,0,0,1-.86-1.72,2.46,2.46,0,0,1,1-1.69c.22-.1.45-.24.67-.32l.5-.14.89-.2a15,15,0,0,1,1.75-.24,31.76,31.76,0,0,1,3.52-.11,34.15,34.15,0,0,1,7.08.9,25.51,25.51,0,0,1,6.74,2.68c.52.32,1,.67,1.54,1a3.4,3.4,0,0,1,.92.88l.32.47.23.45a22,22,0,0,1,1.31,3.43Z"/><path class="cls-1" d="M398.13,194.77a2.12,2.12,0,0,0,.8,1.39,8.28,8.28,0,0,0,2,1.33,23.93,23.93,0,0,0,5,1.79c1.27.32,2.58.51,3.88.71a30.9,30.9,0,0,0,3.43.35,9.26,9.26,0,0,0,1.6,0c.24-.05.27,0,.42-.16a2,2,0,0,0,.22-.16l.27-.28a21.15,21.15,0,0,0,2.06-2.71c.65-1,1.27-2,1.88-3,1.08-1.8,2-3.7,3-5.56l1.79-3.62c.61-1.2,1.27-2.38,1.92-3.55.4-.72.7-.5.8.32a8.55,8.55,0,0,1-.54,3.73,64.79,64.79,0,0,1-8.29,14.62c-.3.35-.55.69-.89,1l-.5.52a5.4,5.4,0,0,1-.72.54,2.45,2.45,0,0,1-.91.35,5.39,5.39,0,0,1-.76.09c-.48,0-.93,0-1.38,0a33.84,33.84,0,0,1-5.26-.48,35.4,35.4,0,0,1-5.61-1.4A14.1,14.1,0,0,1,397,197.7a5.26,5.26,0,0,1-1.15-1.78,3.71,3.71,0,0,1-.08-2.18,27.81,27.81,0,0,1,1.13-3.41c.64-1.65,1.36-3.26,2.13-4.86.39-.79.78-1.58,1.23-2.36a12.32,12.32,0,0,1,.72-1.17,3.93,3.93,0,0,1,.48-.6,2.38,2.38,0,0,1,.68-.5,4.11,4.11,0,0,1,1.15-.43,6.55,6.55,0,0,1,1.16-.09,6.62,6.62,0,0,1,1.1.1,7.11,7.11,0,0,1,1.06.23,17.74,17.74,0,0,1,3.87,1.57c.53.29,1.06.56,1.57.9,1.89,1.25,2.33,1.89,2.33,2.63a2,2,0,0,1,0,.49c-.15.46-1,.13-2.34-.66a24.35,24.35,0,0,0-6.22-2.77,3.73,3.73,0,0,0-2.52,0l-.18.1c-.2-.27.43.59-.44-.59h0l0,0,0,.08.1.16.23.29c0,.05,0,0,0,0s0,0,0,0-.25.36-.4.61c-.28.47-.56,1-.83,1.54-.8,1.6-1.54,3.3-2.22,5-.34.84-.66,1.7-.94,2.54-.14.43-.26.84-.37,1.24l-.12.53a1,1,0,0,0,0,.3Z"/><path class="cls-1" d="M408.78,212c-.16.58-.3,1.16-.42,1.75,0,.21,0,.43-.08.65-.16.75-.33,1.52-.45,2.28a7.16,7.16,0,0,0-.09,1,3.81,3.81,0,0,1-.13,1.3c-.05.14-.34.12-.64,0s-.61-.35-.65-.6a6.45,6.45,0,0,1,.13-2.73,10.27,10.27,0,0,0,.16-1.67c.07-.61.17-1.23.27-1.84l.21-1.12c.11-.57.26-1.14.36-1.71a11.41,11.41,0,0,1,.19-1.38.88.88,0,0,1,.13-.3c.23-.35.46-.41.76-.3l.2.07a.89.89,0,0,1,.4.59,3.92,3.92,0,0,1,0,2.25c-.09.57-.21,1.15-.33,1.73Z"/><path class="cls-1" d="M397.86,244.82a124.46,124.46,0,0,0,2.88,19.62c.54,2.36,1.19,4.69,1.83,7a128.21,128.21,0,0,0,9,23.91,62.56,62.56,0,0,0,6,9.57,33.38,33.38,0,0,0,4.9,5.17,14.64,14.64,0,0,0,6,3.2c1.36.21,1.28.58-.09.92a7.12,7.12,0,0,1-2.89-.12,10.1,10.1,0,0,1-3.67-1.78,31.07,31.07,0,0,1-5.51-5.48,52.28,52.28,0,0,1-4.3-6.3,89.57,89.57,0,0,1-6.49-13.68,176.53,176.53,0,0,1-5.84-17.53,136.59,136.59,0,0,1-3.75-20,95.3,95.3,0,0,1-.55-12.53,50.87,50.87,0,0,1,1.63-12,4.87,4.87,0,0,1,.24-.57c.11-.16.24-.3.36-.45a4.17,4.17,0,0,1,.8-.63,8.47,8.47,0,0,1,1.66-.81,22.61,22.61,0,0,1,3.39-1,60.53,60.53,0,0,1,14.52-1.1,32.12,32.12,0,0,1,3.22.3c4,.61,5.39,1.79,5.64,2.86a1.74,1.74,0,0,1,.07.68c0,.13-.13.15-.29.11s-.33-.15-.63-.25a18.67,18.67,0,0,0-2.8-.88,33.85,33.85,0,0,0-6.21-.65,64,64,0,0,0-6.48.18,51.31,51.31,0,0,0-6.45.89,21.33,21.33,0,0,0-3,.84,7.91,7.91,0,0,0-1.27.6,1.41,1.41,0,0,0-.54.44h0a62.76,62.76,0,0,0-1.33,19.36Z"/><path class="cls-1" d="M431.22,263.59l-.74-2.17c-.23-.73-.43-1.47-.65-2.2s-.44-1.47-.63-2.21l-.52-2.23-.41-1.62c-.12-.54-.22-1.09-.31-1.64l-.48-2.91-.32-2.92c-.26-1.94-.3-3.9-.4-5.85l-.08-1.3v-1.31l-.06-2.59a26.14,26.14,0,0,1,.08-3.31q.1-1.67.33-3.3c.1-.68.43-.56.76,0a6.66,6.66,0,0,1,.69,2.93c0,1.11,0,2.21,0,3.32l0,3.31c0,1.1.09,2.21.12,3.31s0,2.23.16,3.34c.11,1.33.27,2.68.48,4s.54,2.69.8,4l1.05,4.38c.43,1.44.82,2.9,1.29,4.33.6,1.75,1.19,3.5,1.92,5.21a74.61,74.61,0,0,0,3.59,7.62c1,1.91,2.22,3.68,3.37,5.51.25.41.51.8.74,1.22a7.08,7.08,0,0,1,.8,1.74,1.82,1.82,0,0,1-.06,1,1.94,1.94,0,0,1-.11.34c-.08.13-.26.06-.54-.15a4.07,4.07,0,0,1-1.05-1.09,67.15,67.15,0,0,1-6.28-10.32,78.08,78.08,0,0,1-3.65-8.51Z"/><path class="cls-1" d="M447.33,271.66c-.61-3.64-1.33-7.28-2.18-10.88-.3-1.31-.69-2.6-1-3.91a107.87,107.87,0,0,0-4.36-13.54,38.09,38.09,0,0,0-2.84-5.59,21.79,21.79,0,0,0-2.37-3.13,10.79,10.79,0,0,0-2.9-2.37c-.67-.36-.57-.66.26-.75a4.57,4.57,0,0,1,3.65,1.47,27.14,27.14,0,0,1,4.83,7.15,52.61,52.61,0,0,1,3.1,7.88c1,3.22,2.1,6.53,3,9.85.94,3.66,1.74,7.34,2.44,11.05.42,2.27.8,4.56,1.15,6.85.53,3.47.93,7,1.28,10.44.27,2.7.56,5.35.64,8.06,0,.59,0,1.18,0,1.79a9.47,9.47,0,0,1-.29,2.37,1.83,1.83,0,0,1-.71,1,2.49,2.49,0,0,1-.4.24c-.43.13-.62-.78-.64-2.34a143.29,143.29,0,0,0-1-14.55c-.44-3.68-1-7.38-1.62-11.05Z"/><path class="cls-1" d="M369.7,243.05c.53,1.32,2.18,2.17,4,2.48a4.66,4.66,0,0,0,1,.1,8.51,8.51,0,0,0,1,0,18.08,18.08,0,0,0,7.12-1.67,17.59,17.59,0,0,0,2.9-1.64c1.14-.84,2.25-1.7,3.38-2.57.35-.26.53,0,.5.46a3.44,3.44,0,0,1-.88,2,11,11,0,0,1-.85.82l-.93.71q-1,.67-2,1.26a17.59,17.59,0,0,1-4.35,1.71,20.42,20.42,0,0,1-5.72.89,10.64,10.64,0,0,1-3.21-.58,7,7,0,0,1-2.89-1.77,5.78,5.78,0,0,1-1.43-3.9,16.07,16.07,0,0,1,1.25-5.71c.51-1.39,1-2.76,1.57-4.09.13-.29.24-.59.38-.88.51-1.07.8-1.33,1.39-1.31a2.51,2.51,0,0,1,.39,0c.42.09.5.67.21,1.5-.85,2.43-2,4.82-2.67,7.24-.5,1.77-.75,3.65-.1,4.93Z"/><path class="cls-1" d="M326.46,268.81c2.64-4.69,5.6-9.18,8.65-13.59,1.16-1.58,2.21-3.24,3.42-4.78,2.1-2.75,4.27-5.43,6.58-8l1.73-1.93c.59-.64,1.21-1.25,1.81-1.87s1.2-1.24,1.85-1.83,1.26-1.2,1.94-1.76a40.42,40.42,0,0,1,7.73-5.17,35.37,35.37,0,0,1,5.48-2.33,20.85,20.85,0,0,1,2.93-.71,15.19,15.19,0,0,1,1.51-.19c.51,0,1,.08,1.53.11,1.28.12,1,.46,0,.85-.5.18-1.16.64-1.95.93s-1.69.69-2.69,1a38.51,38.51,0,0,0-5.22,2.24,44.35,44.35,0,0,0-5,2.81,58.05,58.05,0,0,0-8.67,7.67A108.35,108.35,0,0,0,339,253.54c-3.18,4.3-6.09,8.79-8.89,13.34-1.64,2.85-3.32,5.69-4.78,8.63a129.38,129.38,0,0,0-6.13,13.61c-.65,1.81-1.2,3.63-1.78,5.44s-.94,3.66-1.43,5.49c-.2.8-.4,1.6-.54,2.42-.64,3-1,4-1.69,4.54a4.42,4.42,0,0,1-.47.37c-.49.22-.58-1.1-.25-3.42a84.73,84.73,0,0,1,6.11-20.58c.49-1.26,1.11-2.47,1.66-3.72s1.11-2.48,1.75-3.68c1.26-2.41,2.46-4.85,3.84-7.19Z"/><path class="cls-1" d="M339.77,300.73a35.37,35.37,0,0,1,1.57-4.76c.22-.56.4-1.14.64-1.69.86-1.93,1.84-3.79,2.81-5.64.42-.82.84-1.66,1.23-2.49a16.94,16.94,0,0,1,1.67-3.11c.44-.6,1.48,1,.95,2.22s-1,2.17-1.52,3.24-1.15,2.09-1.77,3.13a31.89,31.89,0,0,0-1.79,4,41.58,41.58,0,0,0-1.6,4.5,18.73,18.73,0,0,0-.59,2.85,8.81,8.81,0,0,0,.32,4.22,5.48,5.48,0,0,0,1.91,2.38l.58.36c.71.47.9.76.95,1.16a2.51,2.51,0,0,1,0,.27c0,.25-.45.35-1.24.23a6,6,0,0,1-3.08-2,7.13,7.13,0,0,1-1.47-3.55,15.07,15.07,0,0,1,.34-5.31Z"/><path class="cls-1" d="M387,314.11a100.08,100.08,0,0,1,10.47-.88c.65,0,1.33,0,2,0s1.29.1,1.94.18A39.76,39.76,0,0,1,408,315a39,39,0,0,1,6.25,2.72,38.53,38.53,0,0,1,5.09,3.25,19.18,19.18,0,0,1,1.52,1.21,12.81,12.81,0,0,1,1.41,1.35,12.29,12.29,0,0,1,2.14,3.28c.33.76,0,.76-.62.37a23,23,0,0,1-2.67-2,39.1,39.1,0,0,0-12.44-7.86,31.93,31.93,0,0,0-14.05-2c-1.72.12-3.44.29-5.16.49q-3.19.38-6.36.84c-3.21.47-6.44.94-9.61,1.5-2.47.43-4.88,1-7.31,1.44-.54.1-1.06.23-1.61.29-2,.25-2.7.18-3.2-.23a3.52,3.52,0,0,1-.33-.25c-.23-.29.54-.75,2-1.14,2.13-.64,4.37-1,6.63-1.48s4.56-.83,6.88-1.22c3.43-.57,6.9-1.09,10.38-1.56Z"/><path class="cls-1" d="M416.36,326.64a30.47,30.47,0,0,0-2.91-2.07,5.24,5.24,0,0,0-1.08-.46,31.6,31.6,0,0,0-4.47-1.26c-.68-.14-1.37-.25-2-.32-.87-.08-1.77-.09-2.56-.19-.24,0-.31-.27-.12-.6a1.62,1.62,0,0,1,1.24-.77,18,18,0,0,1,2.86.09,17.53,17.53,0,0,1,2.76.64c1.08.35,2.22.49,3.39.93a16.19,16.19,0,0,1,3.3,2.1c.62.47,1.22,1,1.82,1.45.91.75,1.78,1.54,2.65,2.31.69.6,1.41,1.14,2.07,1.8a4.49,4.49,0,0,1,.43.44c.53.58.45,1,.2,1.29a1.37,1.37,0,0,1-.19.22c-.23.19-.61.08-1-.2-1.08-1-2.29-2-3.52-3.09-.92-.78-1.87-1.55-2.84-2.28Z"/><path class="cls-1" d="M396.87,330.7c.83-.22,1.63-.5,2.45-.8l.7-.25c.19-.08.41,0,.6-.13a2.27,2.27,0,0,1,.59.06l1.29.2c1.73.26,3.53.41,5.38.81a18.84,18.84,0,0,1,2,.56c.69.24,1.27.51,1.85.75,1,.44,2.08.84,3.13,1.17a13.24,13.24,0,0,0,1.56.4,6.62,6.62,0,0,0,.71.11,1.58,1.58,0,0,0,.31,0,.46.46,0,0,0,.41-.23.41.41,0,0,0,0-.16,1.22,1.22,0,0,0-.17-.29,4,4,0,0,0-.33-.37,20.3,20.3,0,0,0-2.56-2.12,14.66,14.66,0,0,0-1.24-.81,6.92,6.92,0,0,0-1.22-.61c-1-.26-2-.61-2.94-.93l-3.69-1.22c-1.22-.4-2.47-.86-3.62-1.19l-.22-.08a.33.33,0,0,1-.1-.06.44.44,0,0,1-.1-.22c0-.14.16-.39.56-.52a6.24,6.24,0,0,1,3.62.15c1.28.4,2.54.83,3.79,1.26l1.86.64.89.28.51.15a5.07,5.07,0,0,1,.62.24,21.21,21.21,0,0,1,3.54,2.32,18.92,18.92,0,0,1,1.58,1.42l.49.52.51.7a5.67,5.67,0,0,1,.32.72,3.25,3.25,0,0,1,.05.7c0,.07,0,.15,0,.22l-.13.18a2.6,2.6,0,0,1-.27.36,2.15,2.15,0,0,1-.71.51,3.58,3.58,0,0,1-.94.21,6.59,6.59,0,0,1-1,0,15.92,15.92,0,0,1-2.58-.53,39.57,39.57,0,0,1-4.7-1.72,19.75,19.75,0,0,0-5-1.11l-2.69-.35-.68-.1-.5-.08c-.09,0-.66.23-1.05.37a27.51,27.51,0,0,1-6.61,1.6,19.63,19.63,0,0,1-5.19-.15,17.73,17.73,0,0,1-4.91-1.68l-.86-.52-.44-.25-.1-.07,0,0a.21.21,0,0,0-.12,0,2.92,2.92,0,0,0-.72,0l-.9.12c-1.23.21-2.47.5-3.72.76-.56.11-1.1.24-1.67.34-2.1.34-2.87.21-3.34-.28a1.46,1.46,0,0,1-.29-.34c-.16-.39.61-.63,2.07-1,2.18-.49,4.41-1.1,6.87-1.52.33,0,.63-.09,1-.11a3.49,3.49,0,0,1,.58,0,3.23,3.23,0,0,1,.82.13,1.2,1.2,0,0,1,.4.18l.3.18.36.2.7.42c.49.24,1,.45,1.49.69s1,.34,1.55.52a18.84,18.84,0,0,0,9.92-.38Z"/><path class="cls-1" d="M375.74,257.17a4.52,4.52,0,0,1-1.66,2.86,4.68,4.68,0,0,1-.86.68,4.77,4.77,0,0,1-.94.42l-.6.1a4.77,4.77,0,0,1-.66-.05,1.91,1.91,0,0,1-1.33-1.9,5.25,5.25,0,0,1,.25-1.66,3,3,0,0,1,1.14-1.73c.18-.12.38.16.52.52a1.35,1.35,0,0,1,.11,1,3.53,3.53,0,0,0-.41,1.33c0,.23,0,.43,0,.54a.3.3,0,0,0,0,.23c.05.11.17.14.38.05l.37-.21.39-.29a3.51,3.51,0,0,0,1.23-1.58,1.58,1.58,0,0,0,0-1.07.83.83,0,0,0-.39-.52.71.71,0,0,0-.65,0,2.49,2.49,0,0,0-.81,1.15c-.05.1-.09.21-.14.31-.2.38-.4.43-.93.31-.12,0-.25-.05-.36-.09a.77.77,0,0,1-.56-.89,2.46,2.46,0,0,1,.26-1q.11-.24.24-.48a3.09,3.09,0,0,1,.36-.47,3.06,3.06,0,0,1,1.05-.81l.8-.22a6,6,0,0,1,.85,0,3,3,0,0,1,2,1.43,3.68,3.68,0,0,1,.39,2Z"/><path class="cls-1" d="M375.63,267.31a5.84,5.84,0,0,1-1.42,3.25,4.73,4.73,0,0,1-.73.76,2.58,2.58,0,0,1-2.14.48,2,2,0,0,1-1.41-1.63,3.72,3.72,0,0,1,.1-1.64A2.64,2.64,0,0,1,371.1,267c.18-.11.41.19.6.56a1.51,1.51,0,0,1,.23,1,2.22,2.22,0,0,0-.3,1c0,.13,0,.26,0,.32a.37.37,0,0,0,0,.23c.05.12.16.12.29.08a1.91,1.91,0,0,0,.51-.38,4.4,4.4,0,0,0,.58-.7,4.84,4.84,0,0,0,.31-.49,1.5,1.5,0,0,0,.17-.74.65.65,0,0,0-.26-.53.47.47,0,0,0-.56.06,1.42,1.42,0,0,0-.44.89c0,.06,0,.12,0,.17-.13.25-.3.25-.79.13l-.34-.07c-.37-.08-.59-.4-.59-.94a1.82,1.82,0,0,1,.07-.6c.09-.21.19-.43.3-.65a3.63,3.63,0,0,1,.85-1.1,2.71,2.71,0,0,1,1.06-.53,1.86,1.86,0,0,1,1.12,0,2.16,2.16,0,0,1,1.37,1,2.76,2.76,0,0,1,.41,1.66Z"/><path class="cls-1" d="M419.17,169.63a2.67,2.67,0,0,1-.53-.32l-.58-.42a7.44,7.44,0,0,1-.58-.68l-.29-.33a1,1,0,0,1-.22-.36,2,2,0,0,1-.1-1.59,2.59,2.59,0,0,1,1-1.26,7.42,7.42,0,0,1,2.43-1c.68-.17,1.36-.29,2-.4,1-.15,1.94-.32,2.92-.4,1.71-.14,3.41-.21,5.11-.24.86,0,1.69,0,2.58,0a12.24,12.24,0,0,1,2.67.36,5.67,5.67,0,0,1,2.24,1.14,17.37,17.37,0,0,1,1.69,1.62,13.52,13.52,0,0,1,3.19,5c.15.68-.3.62-.83.31a5.84,5.84,0,0,1-1.86-1.71,18.77,18.77,0,0,0-3.6-4,3.18,3.18,0,0,0-1-.49,8.57,8.57,0,0,0-1.23-.27,17.46,17.46,0,0,0-2.76-.14,49.74,49.74,0,0,0-7.07.61,29.61,29.61,0,0,0-3.75.72,7.69,7.69,0,0,0-.85.28l-.24.09-.19.1a.56.56,0,0,0-.27.32.48.48,0,0,0,.14.39,3.67,3.67,0,0,0,1.44.92,9,9,0,0,0,2.18.51,38.34,38.34,0,0,0,7.24-.19c.61-.05,1.23-.09,1.86-.11h-.09a4.42,4.42,0,0,1,2.3.4,7.6,7.6,0,0,1,1.82,1.18,10.55,10.55,0,0,1,1,.92c1.08,1.24,1.2,1.78,1,2.36a2.35,2.35,0,0,1-.19.39c-.27.35-.89,0-1.66-.74a12.33,12.33,0,0,0-2.11-1.68,3,3,0,0,0-1.91-.54h-.18c-1.22,0-2.71.22-4.19.33a30.4,30.4,0,0,1-4.17,0,11.43,11.43,0,0,1-4.43-1.09Z"/><path class="cls-1" d="M137,263.67a8,8,0,0,1-.58,2.73,4.09,4.09,0,0,1-1,1.37,3.2,3.2,0,0,1-1.57.78,4.76,4.76,0,0,1-2.17-.06,11,11,0,0,1-5.19-3.82c-.59-.7-1.16-1.42-1.69-2.15a9.33,9.33,0,0,1-1.58-3.11c-.09-.36.21-.41.63-.27a2.93,2.93,0,0,1,1.31.94c.32.44.66.86,1,1.28s.66.86,1,1.27a27.41,27.41,0,0,0,2.2,2.36,5.44,5.44,0,0,0,3.25,1.52,1.59,1.59,0,0,0,1.38-.35,2.83,2.83,0,0,0,.69-1.6,10.86,10.86,0,0,0,.05-2.68,24.22,24.22,0,0,0-.74-4.19c-.28-1.07-.77-2.06-1.13-3.1-.09-.23-.19-.45-.26-.69-.3-.86-.13-1.25.37-1.57.1-.07.18-.15.26-.2s.3,0,.54.07a1.32,1.32,0,0,1,.64.58,19.77,19.77,0,0,1,2.11,5.91,21.2,21.2,0,0,1,.51,5Z"/><path class="cls-1" d="M154,262.85a5.77,5.77,0,0,1-1.52,2.33,2.83,2.83,0,0,1-1.61.71,3.28,3.28,0,0,1-1.61-.27,5.86,5.86,0,0,1-.89-.48l-.42-.29-.34-.34a8.18,8.18,0,0,1-1.59-2.72,18.26,18.26,0,0,1-.79-2.82c-.17-.83-.37-1.66-.5-2.48a13.23,13.23,0,0,1-.27-3.2c.05-.67,1.55.05,1.79,1.2.5,2,.79,4.08,1.28,6a5.4,5.4,0,0,0,1.82,2.85,2,2,0,0,0,1.3.51,1.06,1.06,0,0,0,.51-.27,2.65,2.65,0,0,0,.49-.68,8.59,8.59,0,0,0,.78-2.34,21.61,21.61,0,0,0,.42-4,28.67,28.67,0,0,0-.26-3.07c0-.23-.06-.45-.07-.67,0-.85.22-1.14.76-1.33a2.56,2.56,0,0,1,.32-.12c.28-.08.79.25,1,.87a15.85,15.85,0,0,1,.4,5.9,18.9,18.9,0,0,1-.95,4.63Z"/><path class="cls-1" d="M140.18,259.58a33.26,33.26,0,0,1-1.16-8.46,22.39,22.39,0,0,1,.19-3.17,17.43,17.43,0,0,1,1.71-5.35,7,7,0,0,1,2-2.32,11,11,0,0,1,2.5-1.44,18.31,18.31,0,0,1,4.8-1.22,12.77,12.77,0,0,1,3.21,0,5,5,0,0,1,3,1.47c.5.58.05.71-.62.76-.31,0-.74.09-1.15.13a4.87,4.87,0,0,1-1.32,0,10.71,10.71,0,0,0-2.66,0,14.59,14.59,0,0,0-2.7.5,11,11,0,0,0-4.66,2.39l-.44.57-.4.77a13.07,13.07,0,0,0-.63,1.65,17.12,17.12,0,0,0-.65,3.51,26.65,26.65,0,0,0,.55,8,41.63,41.63,0,0,0,1.33,4.86,34.7,34.7,0,0,0,3,7,19.23,19.23,0,0,0,3.69,4.37c.3.28.63.53,1,.79,1.2,1,1.51,1.4,1.52,2a1.82,1.82,0,0,1,0,.4c0,.19-.23.25-.56.2a3.66,3.66,0,0,1-1.34-.53,20.36,20.36,0,0,1-7.32-8.73,50.19,50.19,0,0,1-3-8Z"/><path class="cls-1" d="M132.16,240.72c-4.91-1.7-11.79.54-15.48,4-1.53,1.43.78,3.73,2.3,2.3,2.87-2.68,8.51-4.46,12.32-3.15,2,.69,2.83-2.45.86-3.13Z"/><path class="cls-1" d="M143.12,289.33a2.45,2.45,0,0,0,1.24,2.48,1.93,1.93,0,0,0,2.57-.67,3,3,0,0,0,.43-1.61,1.89,1.89,0,0,0-1.37-1.81,2.13,2.13,0,0,0-2.46,1,1.89,1.89,0,0,0,.67,2.56,1.93,1.93,0,0,0,2.57-.67l.06-.1-.67.68.08-.05-1,.25-.3,0-1.38-1.8a.88.88,0,0,0,0,.28c-.07-.14.33-.91.08-.56l2.57-.67c.33.18.49,1.43.58,1.05a1.53,1.53,0,0,0,0-.3,1.89,1.89,0,0,0-1.88-1.88,1.92,1.92,0,0,0-1.87,1.88Z"/><path class="cls-1" d="M374.73,158a4.56,4.56,0,0,1-2.8.88,4,4,0,0,1-2.62-1.22,4.47,4.47,0,0,1-.67-.78l-.28-.42-.18-.44a10.41,10.41,0,0,1,.09-6c.23-.8.42-1.62.67-2.41a9.42,9.42,0,0,1,1.21-2.94c.19-.28.55-.06.82.36a2,2,0,0,1,.3,1.57c-.62,1.92-1.07,3.87-1.5,5.78a4.76,4.76,0,0,0,.46,3.21l.21.34a3.45,3.45,0,0,1,.26.28,2.65,2.65,0,0,0,.65.46,1.6,1.6,0,0,0,1.4,0,5,5,0,0,0,1.74-1.46,15.64,15.64,0,0,0,2-3.26,20,20,0,0,0,1-2.86c.07-.21.11-.43.19-.65a1.28,1.28,0,0,1,.57-.75,1.56,1.56,0,0,1,.8-.08l.31,0c.14.05.21.18.36.39a1.35,1.35,0,0,1,.26.83,15.07,15.07,0,0,1-2,5.47,12.82,12.82,0,0,1-3.19,3.68Z"/><path class="cls-1" d="M391.48,161.35a7.59,7.59,0,0,1-2.22,1.34,3.89,3.89,0,0,1-2.16.29,2.14,2.14,0,0,1-.74-.16,3.64,3.64,0,0,1-1-.45l-.47-.32a4.83,4.83,0,0,1-.37-.42,5.41,5.41,0,0,1-1-3.16,12.39,12.39,0,0,1,.27-2.89c.19-.82.33-1.64.53-2.43a7.47,7.47,0,0,1,1.21-2.92c.21-.28.45-.09.66.29a2.71,2.71,0,0,1,.35,1.51c-.13,1-.39,1.93-.51,2.9s-.24,1.9-.38,2.83a3,3,0,0,0,.83,2.62,2.24,2.24,0,0,0,2.73-.25,8.78,8.78,0,0,0,1.71-1.64,16.67,16.67,0,0,0,2.06-3.18,17.39,17.39,0,0,0,1-2.79c.07-.2.1-.42.18-.62a1,1,0,0,1,1.28-.82c.14,0,.28,0,.4,0a.79.79,0,0,1,.51.39,1.24,1.24,0,0,1,.23.84,13.53,13.53,0,0,1-2.06,5.44,16.62,16.62,0,0,1-3,3.62Z"/><path class="cls-1" d="M378.76,154.62a34.69,34.69,0,0,0,3.82-7,27.94,27.94,0,0,0,.95-2.75c.29-.81.45-1.63.68-2.45a19.35,19.35,0,0,0,.36-2.47l.05-.61c0-.2,0-.39,0-.58l0-.58-.15-.46a4.05,4.05,0,0,0-1.48-1.62,10.71,10.71,0,0,0-4.14-1.45,15.57,15.57,0,0,0-5.59.23c-.51.15-.68-.17-.33-.75a3.62,3.62,0,0,1,2.59-1.47,15.09,15.09,0,0,1,6.52.87,9.1,9.1,0,0,1,3,1.79,7.31,7.31,0,0,1,.64.72,5.93,5.93,0,0,1,.51.88,5,5,0,0,1,.28,1l.07.89a22.54,22.54,0,0,1-1.33,7.77,40.56,40.56,0,0,1-3.62,7.65l-1.43,2.17-1.59,2.06a33.23,33.23,0,0,1-5.67,5.45c-.41.3-.78.66-1.21.93l-1.27.83a16.48,16.48,0,0,1-2.66,1.49,8,8,0,0,1-1.23.55c-1.63.46-2.19.46-2.64,0a2.78,2.78,0,0,1-.3-.29c-.22-.34.32-.88,1.36-1.33l1.16-.5c.37-.22.74-.43,1.12-.62l1.14-.58c.37-.2.72-.46,1.08-.69l1.1-.69a10.84,10.84,0,0,0,1-.78,18.94,18.94,0,0,0,2-1.68,32,32,0,0,0,5.18-6Z"/><path class="cls-1" d="M393.41,138.65c3.52-.33,7.54-.05,9.68,3.16,1,1.46,3.36.09,2.37-1.39-2.71-4.07-7.45-4.95-12-4.52-1.75.16-1.76,2.91,0,2.75Z"/><path class="cls-1" d="M368.51,185.2c2.55,1.68,5.52-.32,6.93-2.55.95-1.5-1.43-2.88-2.37-1.39-.61,1-2,2.35-3.17,1.56-1.49-1-2.86,1.41-1.39,2.38Z"/><path class="cls-1" d="M228.6,88.41c1.64-.72,3.27-1.46,4.93-2.14s3.32-1.34,5-1.89c1.24-.42,2.45-.91,3.69-1.3,2.23-.59,4.42-1.27,6.69-1.68,1.14-.22,2.25-.51,3.39-.66l3.41-.49c1-.16,2-.18,3-.3s2-.27,3-.26c1.31,0,2.61-.1,3.92-.06s2.6.3,3.89.53c.8.15.63.53-.09.9a7.94,7.94,0,0,1-3.41.8c-2.55.21-5.09.16-7.63.49l-1.92.18-1.9.29c-1.28.19-2.57.29-3.85.55a58.9,58.9,0,0,0-9.19,2.52c-1.66.58-3.34,1.12-5,1.8l-2.45,1-2.42,1.07c-2,.85-3.91,1.87-5.84,2.85-1.44.81-2.88,1.61-4.29,2.44s-2.81,1.71-4.11,2.7a58,58,0,0,0-5.72,4.81c-.4.38-.77.76-1.18,1.13-1.47,1.39-2,1.71-2.76,1.68a1.79,1.79,0,0,1-.47,0c-.43-.1-.11-1,.79-2.27,2.84-3.76,6.77-6.76,10.85-9.41a90.63,90.63,0,0,1,9.49-5.28Z"/><path class="cls-1" d="M205.45,115.63a12.09,12.09,0,0,1-2.17.53,5,5,0,0,1-2.75-.3,6.84,6.84,0,0,1-.72-.47,4.84,4.84,0,0,1-.57-.63,3.2,3.2,0,0,1-.36-.68,2.18,2.18,0,0,1-.22-.67,5.59,5.59,0,0,1-.13-.64l0-.6a8.3,8.3,0,0,1,0-1.13c.1-1,.18-2,.33-2.92a57.42,57.42,0,0,1,2.57-9.88A35.92,35.92,0,0,1,203.18,94a11.58,11.58,0,0,1,3.69-4.62c.52-.36.7.06.61.72a4.46,4.46,0,0,1-.29,1.11,4.92,4.92,0,0,1-.61,1.24,38.7,38.7,0,0,0-4.27,10.11,41,41,0,0,0-1.18,6.89,10.83,10.83,0,0,0-.07,3.43,1,1,0,0,0,.61.74,2.82,2.82,0,0,0,1.44,0,18.65,18.65,0,0,0,4.32-1.53c2.19-1,4.37-2.14,6.55-3.24a35,35,0,0,1,5.26-2.4,9.09,9.09,0,0,1,1.32-.32,4.43,4.43,0,0,1,1.13,0,2.07,2.07,0,0,1,.79.2,1,1,0,0,1,.64.85,1.55,1.55,0,0,1,0,.47.74.74,0,0,1-.52.51,4.84,4.84,0,0,1-1,.21,9.4,9.4,0,0,0-2.07.58c-.72.26-1.45.6-2.2.94-1.48.72-3,1.52-4.55,2.33a61.79,61.79,0,0,1-7.31,3.44Z"/><path class="cls-1" d="M333,427.27c-1.31.63-2.61,1.3-4,1.84l-2,.85-2.06.74c-.5.18-1,.38-1.49.57s-1,.33-1.53.48a50.11,50.11,0,0,1-11.06,1.89c-1.66,0-3.32.24-5,.15a19.79,19.79,0,0,1-3.17-.13c-1.05-.16-2.09-.36-3.11-.61-.64-.17-.48-.54.12-.9a5.73,5.73,0,0,1,2.82-.72c1,.06,2.05-.06,3.07,0a26.18,26.18,0,0,0,3.07-.05c1-.07,2.06-.07,3.08-.17s2.06-.2,3.1-.28a33.17,33.17,0,0,0,3.73-.73c1.24-.33,2.45-.78,3.68-1.13s2.66-.95,4-1.45,2.61-1.08,3.87-1.74l2.34-1.17,2.28-1.3c1.16-.65,2.25-1.4,3.39-2.1s2.19-1.49,3.23-2.3c1.62-1.26,3.06-2.68,4.55-4,.33-.3.63-.61,1-.91,1.26-1.08,1.8-1.27,2.43-1.14a2.58,2.58,0,0,1,.42.1c.38.17.12.89-.62,1.93a40.18,40.18,0,0,1-8.55,7.79c-1.17.88-2.45,1.63-3.68,2.43s-2.54,1.5-3.86,2.16Z"/><path class="cls-1" d="M352.42,403.32a14,14,0,0,1,2.16-.45,5.1,5.1,0,0,1,2.7.29,2.58,2.58,0,0,1,.74.44,2.47,2.47,0,0,1,.6.65,2.33,2.33,0,0,1,.38.73,2.6,2.6,0,0,1,.2.72l.08.67a6,6,0,0,1,0,.6,8.07,8.07,0,0,1-.14,1.14c-.19,1-.37,1.93-.61,2.88a58.09,58.09,0,0,1-3.51,9.63,36.27,36.27,0,0,1-2.16,4,11.73,11.73,0,0,1-4.14,4.26c-.55.3-.68-.13-.54-.78a5.15,5.15,0,0,1,.4-1.08,4.83,4.83,0,0,1,.74-1.18,38.87,38.87,0,0,0,5.24-9.68,40.92,40.92,0,0,0,1.84-6.77,9.8,9.8,0,0,0,.38-3.37.78.78,0,0,0-.56-.67,3.49,3.49,0,0,0-1.5,0,22.26,22.26,0,0,0-4.44,1.35c-2.24.9-4.5,1.89-6.76,2.86a35.31,35.31,0,0,1-5.42,2.05,8.45,8.45,0,0,1-1.35.22,3.77,3.77,0,0,1-1.14-.05,2,2,0,0,1-.78-.26,1,1,0,0,1-.57-.9,1.52,1.52,0,0,1,0-.48.76.76,0,0,1,.57-.46,5.84,5.84,0,0,1,1-.12,8.72,8.72,0,0,0,2.1-.43c.73-.21,1.49-.5,2.26-.8,1.53-.61,3.1-1.31,4.7-2a74.25,74.25,0,0,1,7.48-3Z"/><path class="cls-1" d="M370.13,246.78a5.46,5.46,0,0,0,3.13,1.92,11.48,11.48,0,0,0,1.45.17,14.89,14.89,0,0,0,5.31-.61,14.13,14.13,0,0,0,2.27-.86c.92-.47,1.84-.94,2.82-1.34.3-.12.39.09.29.45a2.64,2.64,0,0,1-.91,1.28,14.64,14.64,0,0,1-6.29,2.34,18.79,18.79,0,0,1-4.19.22,7.75,7.75,0,0,1-4.36-1.78,6.23,6.23,0,0,1-1.71-2.39,8.94,8.94,0,0,1-.59-4.26,16,16,0,0,1,.55-3.23c.08-.23.14-.46.23-.68.34-.84.6-1,1-1a1,1,0,0,1,.31,0c.32.08.39.52.21,1.09a14.77,14.77,0,0,0-.78,5.2,5.76,5.76,0,0,0,1.25,3.42Z"/><path class="cls-1" d="M33.9,302.24c-.34,1.63-.57,3.29-.84,4.94s-.44,3.32-.55,5l-.22,3.66c-.26,4.3-.29,8.62-.15,12.94.13,1.92.23,3.85.48,5.73.16,1.22.32,2.43.47,3.65a19.48,19.48,0,0,1,.29,3.67c-.08.78-.36.72-.91.14A5.43,5.43,0,0,1,31,338.85a97.39,97.39,0,0,1-.79-15.19c.11-3.05.06-6.22.27-9.33.14-1.71.25-3.42.48-5.12l.31-2.56.42-2.54c.15-1,.36-2.08.58-3.11s.39-2.07.68-3.09c.39-1.55.76-3.11,1.26-4.63L35,291c.27-.75.54-1.5.8-2.25.38-1.17.86-2.3,1.29-3.44s.94-2.25,1.45-3.37c.24-.48.42-1,.69-1.46,1-1.75,1.41-2.26,2-2.37a2.37,2.37,0,0,1,.39-.09c.33,0,.27.91-.38,2.18a90.53,90.53,0,0,0-4.89,12.28c-.47,1.6-1,3.21-1.34,4.85s-.74,3.27-1.07,4.92Z"/><path class="cls-1" d="M491.08,211.88l.42,5.33c.05,1.78.15,3.56.16,5.34v3.9a115.36,115.36,0,0,1-1.37,13.65l-.5,3-.57,3c-.58,2.51-1,5.15-2.32,7.46-.47.69-.67.47-.86-.34a7.07,7.07,0,0,1,.13-3.47,116.54,116.54,0,0,0,3.08-15.2,74.12,74.12,0,0,0,.57-9.58l0-2.65c0-.88-.06-1.76-.08-2.64l-.09-2.65-.22-2.64c-.13-2.17-.47-4.32-.76-6.47a78.43,78.43,0,0,0-2.11-9.64c-.18-.61-.34-1.22-.54-1.81l-.67-1.77c-.46-1.17-.87-2.34-1.36-3.49-.24-.5-.46-1-.7-1.5-.82-1.88-1-2.52-.71-3.14a2.59,2.59,0,0,1,.15-.4c.17-.3.88.31,1.55,1.7.52,1,1,2.06,1.54,3.12s.84,2.2,1.27,3.31l.62,1.69c.19.57.34,1.16.51,1.74.32,1.16.65,2.33,1,3.49.39,1.76.74,3.53,1.1,5.3l.78,5.36Z"/><path class="cls-1" d="M302.82,152.61c-1.93,2.24-3.74,4.61-5.47,7-.63.89-1.18,1.82-1.8,2.72-2.13,3.17-4.19,6.41-6,9.78-.83,1.49-1.58,3-2.28,4.56a60.69,60.69,0,0,1-2.74,5.9c-.44.55-.65.38-.87-.33a5.17,5.17,0,0,1-.18-1.37,4.36,4.36,0,0,1,.39-1.71,79.74,79.74,0,0,1,6.42-11.89l2.19-3.49q1.08-1.78,2.25-3.51c1.7-2.52,3.54-4.95,5.45-7.32.57-.74,1.21-1.43,1.82-2.14s1.21-1.43,1.86-2.11c1-1,1.94-2.07,3-3.05s2.05-2,3.13-2.87c.84-.7,1.66-1.42,2.48-2.14l2.61-2a8.08,8.08,0,0,1,1.2-.8c1.57-.89,2.13-1.09,2.68-.83a2.32,2.32,0,0,1,.35.14c.27.17-.18.89-1.24,1.57-1.6,1-3.08,2.24-4.65,3.38-1.47,1.3-3,2.53-4.42,4-1.1,1-2.11,2.08-3.13,3.17s-2,2.23-3,3.35Z"/></g></svg>