<svg id="Layer_1" data-name="Layer 1" xmlns="http://www.w3.org/2000/svg" width="520" height="520" viewBox="0 0 520 520"><defs><style>.cls-1{fill:#221f1f;}</style></defs><title>Notioly v2</title><g id="_14.True_fun" data-name="14.True fun"><path class="cls-1" d="M251.21,275.29a17.21,17.21,0,0,1-2.49.24,16.24,16.24,0,0,1-2.51-.08,15.84,15.84,0,0,1-4.83-1.38,20.56,20.56,0,0,1-7.57-6.21,29.3,29.3,0,0,1-3.65-6.07,41.43,41.43,0,0,1-2.9-12,88.48,88.48,0,0,1-.37-12.17c.12-3.59.32-7.2.56-10.74.16-2.27.31-4.55.47-6.83s.34-4.54.38-6.74c0-1.36.49-1.27,1-.07a14.07,14.07,0,0,1,.72,6.14c-.7,9.31-1.73,18.5-1.24,27.76A37.81,37.81,0,0,0,233,263.32a23.47,23.47,0,0,0,5.78,7,16.56,16.56,0,0,0,3.87,2.32,14.23,14.23,0,0,0,4.36,1,18.5,18.5,0,0,0,10.72-2.76c4.95-3,8.91-7.47,12.14-12.24a75.35,75.35,0,0,0,6.31-11.77c.4-.9.75-1.79,1.13-2.7,1.37-3.39,1.81-4.45,2.54-5a3.17,3.17,0,0,1,.48-.4c.47-.24.37,1.35-.52,3.94a75.65,75.65,0,0,1-5,11.39,62.57,62.57,0,0,1-7.21,10.68,37.69,37.69,0,0,1-7.16,6.64,23,23,0,0,1-9.14,3.92Z"/><path class="cls-1" d="M290.68,235.77a11.06,11.06,0,0,0,2.86-5,6.6,6.6,0,0,0,.16-2,5,5,0,0,0-.33-1.69,4.21,4.21,0,0,0-.94-1.4,5.57,5.57,0,0,0-3.24-1.47,8.49,8.49,0,0,0-3.37.17,8.38,8.38,0,0,0-3.58,2c-.32.27-.71,0-.79-.64a2.35,2.35,0,0,1,1.14-2.2,9.74,9.74,0,0,1,5.17-1.33,11,11,0,0,1,2.61.36,6.83,6.83,0,0,1,2.49,1.17,6.63,6.63,0,0,1,2.13,2.61,6.88,6.88,0,0,1,.55,3.26A12,12,0,0,1,293,235.9a14.18,14.18,0,0,1-3,2.88,12.08,12.08,0,0,1-10.61,1.74,7.13,7.13,0,0,1-1-.36,3.27,3.27,0,0,1-1.19-.76.92.92,0,0,1-.25-.74,2.22,2.22,0,0,1,0-.38c.12-.38.73-.38,1.5,0a10.91,10.91,0,0,0,7.35.56,11,11,0,0,0,4.78-3.06Z"/><path class="cls-1" d="M211.23,159.4a24.72,24.72,0,0,0-9.63,13.09,30.32,30.32,0,0,0-.2,16.5,17.66,17.66,0,0,0,2.38,5.49l.86,1.25c.3.41.64.78,1,1.17a25.49,25.49,0,0,0,2.08,2.2,28.47,28.47,0,0,0,9.12,5.62,40.39,40.39,0,0,0,10.55,2.5,59.9,59.9,0,0,0,21.75-2,68.74,68.74,0,0,0,9.25-3.19,71.57,71.57,0,0,0,8.71-4.37A83.55,83.55,0,0,0,286.34,182c1.75-1.9,1.91-1.34.79.63a33.58,33.58,0,0,1-7.36,8.53,77.91,77.91,0,0,1-22.32,13.33,67.31,67.31,0,0,1-25.63,4.78,47,47,0,0,1-15.7-2.92,31.77,31.77,0,0,1-7.19-3.86,27.83,27.83,0,0,1-5.82-5.75l-1.26-1.86a17.16,17.16,0,0,1-1-2,26.34,26.34,0,0,1-1.38-4.28,33,33,0,0,1-.86-8.86,30.13,30.13,0,0,1,1.62-8.76,26.28,26.28,0,0,1,4.34-7.79,29.37,29.37,0,0,1,8.38-7,37.54,37.54,0,0,1,4.94-2.3c.85-.31,1.69-.65,2.55-.93l2.61-.76a43.74,43.74,0,0,1,16.35-1A55.91,55.91,0,0,1,255,155.76a93.55,93.55,0,0,1,21,13.37c1.42,1.16,2.79,2.32,4.16,3.54,5.06,4.6,6.46,6.22,7.24,7.53.16.31.44.65.52.87s-.41.19-1.44-.55a52.52,52.52,0,0,1-4.35-3.65A137.06,137.06,0,0,0,264.48,163a66.32,66.32,0,0,0-20.8-9.19,43.31,43.31,0,0,0-16.82-.6c-1.37.31-2.78.5-4.13,1l-2,.59-2,.75a32.4,32.4,0,0,0-7.44,3.91Z"/><path class="cls-1" d="M317.7,211.61a17.92,17.92,0,0,1-4.37,7.95,14.08,14.08,0,0,1-3.7,2.79,13.13,13.13,0,0,1-2.18.85c-.37.1-.75.22-1.13.3l-1.15.16a10.62,10.62,0,0,1-1.69.07,10,10,0,0,1-1.66-.1,22.24,22.24,0,0,1-3.23-.55,19.62,19.62,0,0,1-5.32-2.35,16.82,16.82,0,0,1-4.22-4,20.6,20.6,0,0,1-2.77-5,28.32,28.32,0,0,1-1.42-5.5,39.25,39.25,0,0,1-.21-10,34.79,34.79,0,0,1,1.2-6.28,16.63,16.63,0,0,1,2.87-5.83c1-1,1.14-.49.82.6s-.79,3-1.51,5.14A36.66,36.66,0,0,0,286.35,202a26.31,26.31,0,0,0,2.89,11.85,15.21,15.21,0,0,0,5,5.37,17.59,17.59,0,0,0,7.07,2.48,16.07,16.07,0,0,0,2.06.18h1c.34,0,.67-.08,1-.12a10.23,10.23,0,0,0,2-.45,8.33,8.33,0,0,0,.93-.39,5.88,5.88,0,0,0,.91-.44,13.75,13.75,0,0,0,5.46-6,19.61,19.61,0,0,0,1.91-10,18.72,18.72,0,0,0-2.1-7.51,19.33,19.33,0,0,0-2.17-3.27,20.8,20.8,0,0,0-2.75-2.8,24.39,24.39,0,0,0-5.05-3.33,27.72,27.72,0,0,0-5.6-2.13,23.87,23.87,0,0,0-5.9-.75,9,9,0,0,1-1.48-.05,5.32,5.32,0,0,0-.57,0c-.13,0-.19-.09-.14-.25a1.39,1.39,0,0,1,.53-.63,5.35,5.35,0,0,1,3-.79,24.71,24.71,0,0,1,11.27,3.08,25.79,25.79,0,0,1,9.14,7.89A20.89,20.89,0,0,1,317,198a21.72,21.72,0,0,1,1.24,4.46,22.72,22.72,0,0,1-.47,9.14Z"/><path class="cls-1" d="M285.83,183c-10.39,13.62-27.21,23.85-44.34,25.45-12.7,1.18-27.77-1.85-35.48-13-5-7.24-6.12-17.83-1.07-25C226.45,139.94,272.34,176.5,285.83,183Z"/><path class="cls-1" d="M289.32,189.41c-4.49,6.18-7.69,31.48,12.26,32.83,8.35.56,13.75-8.29,12.35-17.35C311.81,191.16,291.85,186.66,289.32,189.41Z"/><path class="cls-1" d="M287.68,271.69a112.4,112.4,0,0,1-11,7.27,85.13,85.13,0,0,1-12,5.58,58.21,58.21,0,0,1-12.92,3.15,32.6,32.6,0,0,1-13.35-1.13c-6.31-2-11.75-5.76-16.6-9.94a104.31,104.31,0,0,1-11.83-12.14,156.31,156.31,0,0,1-10-13.62,243.74,243.74,0,0,1-16.39-29.47c-2.16-4.5-4.17-9.07-6.15-13.65s-3.8-9.22-5.55-13.84c-2.24-6-4.38-12-6.27-18a130.3,130.3,0,0,1-4.6-18.58c-.28-2,0-3,.18-2.91s.18.33.28.79.29,1.1.53,1.9c.93,3.21,2.8,9,4.9,16a357.06,357.06,0,0,0,13.32,36.35,284.33,284.33,0,0,0,17.53,34.66,156.32,156.32,0,0,0,13.63,19.32,92.58,92.58,0,0,0,17.32,16.26,36.36,36.36,0,0,0,11.55,5.55,32.23,32.23,0,0,0,12.76.5,68.64,68.64,0,0,0,24.23-9.19,119.83,119.83,0,0,0,25-20.21c5.73-5.81,10.42-12.51,15.06-19.27s9-13.63,13.3-20.54c6.62-10.75,12.79-21.49,18.54-32.55,1.26-2.44,2.44-4.85,3.65-7.33,2.22-4.62,3.56-7.7,4.48-9.87s1.45-3.41,2-4.4c.22-.45.48-1.07.66-1.34.28-.45.33.38,0,2.26a46.56,46.56,0,0,1-2.76,8.2A298.92,298.92,0,0,1,341.32,202c-5.82,10.1-12,20.16-18.53,30.06q-3.63,5.52-7.44,10.94a121.94,121.94,0,0,1-8.13,10.55,132.41,132.41,0,0,1-19.49,18.15Z"/><path class="cls-1" d="M345.35,234.93c-4.42,7.91-9,15.72-14,23.3l-2.74,4.14c-.92,1.38-1.91,2.71-2.88,4.05-3.43,4.76-7.33,9.11-11.13,13.49L303.12,293c-3.37,3.89-6.67,7.88-9.81,11.9-1,1.28-2,2.59-3,3.91s-1.93,2.65-2.87,4-1.8,2.71-2.72,4.06c-.43.69-.82,1.4-1.24,2.09-.2.35-.42.69-.61,1l-.52,1.08c-.86,1.78-1.23,1.42-.94-.37a12,12,0,0,1,.36-1.6c.2-.58.45-1.23.75-1.93.15-.35.31-.72.49-1.1l.61-1.11c.44-.75.91-1.55,1.44-2.35,3.86-5.59,8.11-10.82,12.45-16s8.84-10.18,13.36-15.21c5.38-6.05,10.93-12.33,15.54-19.16,5.17-7.44,9.89-15.22,14.4-23.1l2.07-3.65,2-3.68c1.36-2.45,2.67-4.92,4-7.4,3.92-7.5,7.75-15.11,11.22-22.77,2.69-6,5.18-11.87,7.42-17.91.53-1.32.94-2.64,1.43-4,.93-2.48,1.38-4.15,1.86-5.28a8.46,8.46,0,0,1,1.06-2.28,5.27,5.27,0,0,1,.51-.67c.25-.22.33.21.24,1.2a18.08,18.08,0,0,1-.25,1.89c-.18.73-.4,1.58-.67,2.53-3.43,11.17-8.47,22.33-13.76,33.41Q352,222.91,345.39,235Z"/><path class="cls-1" d="M360,140.75a61.09,61.09,0,0,1,5.35-8.37c.71-1,1.41-1.95,2.17-2.88a36.55,36.55,0,0,1,4.43-4.65,5,5,0,0,1,1.7-1,2,2,0,0,1,2.06,1,3.41,3.41,0,0,1,.44,1.92,7.28,7.28,0,0,1-.27,1.71,18.8,18.8,0,0,1-2.43,5.23,17.59,17.59,0,0,1-2.29,2.9,7.44,7.44,0,0,1-3.24,2.05c-.87.18-.75-.35-.34-1a11.78,11.78,0,0,1,1.87-2.3,18.47,18.47,0,0,0,3.88-5.44,9.75,9.75,0,0,0,1-3,2.24,2.24,0,0,0-.1-1.09.25.25,0,0,0-.31-.18,1.64,1.64,0,0,0-.28.16c-.13.08-.26.18-.39.27s-.53.44-.79.68c-.51.48-1,1-1.5,1.55-1,1.1-1.89,2.26-2.8,3.42a72.22,72.22,0,0,0-5.48,8c-.49.86-1,1.73-1.36,2.62a7.25,7.25,0,0,0-.75,2.63c.11,1.41.33,3,.5,4.49s.38,3,.57,4.53c.31,2.34.7,4.63,1,7,.05.51.13,1,.16,1.54.13,1.94-.06,2.62-.57,3a1.88,1.88,0,0,1-.36.24c-.41.13-.62-.62-.77-2-.47-4-1.09-8.39-1.65-12.74-.21-1.62-.43-3.24-.61-4.9l-.07-.64a5.52,5.52,0,0,1,.26-2.28,17.55,17.55,0,0,1,1-2.46Z"/><path class="cls-1" d="M373.31,143.45a19.64,19.64,0,0,0,2.92-3.67c.31-.5.55-1,.84-1.54a25,25,0,0,0,1.34-2.76,8.53,8.53,0,0,0,.73-2.82A1.05,1.05,0,0,0,379,132a1.09,1.09,0,0,0-1-.32,7.28,7.28,0,0,0-2.68,1.4c-.21.17-.63-.08-.76-.67a1.85,1.85,0,0,1,.85-1.86,5.63,5.63,0,0,1,2.25-.82,3.3,3.3,0,0,1,1.47.14,2.93,2.93,0,0,1,1.34,1,2.88,2.88,0,0,1,.52,1.49,5.33,5.33,0,0,1-.08,1.16,9.36,9.36,0,0,1-.59,1.92,40.6,40.6,0,0,1-1.94,4.3,25.5,25.5,0,0,1-3,4.22,10.57,10.57,0,0,1-2.49,2.14,3.85,3.85,0,0,1-1.31.47,2.48,2.48,0,0,1-1.46-.27,2.1,2.1,0,0,1-1.08-1.11,2.78,2.78,0,0,1-.06-1.45,12.23,12.23,0,0,1,1.46-3.5c.14-.23.26-.47.41-.69.54-.83.8-1,1.32-.87.12,0,.25,0,.36.05.41.06.43.69.1,1.33-.48,1-1,1.87-1.42,2.77a5.57,5.57,0,0,0-.43,1.24,1.05,1.05,0,0,0,0,.41s0,.05,0,.07,0,0,0,0,0,0,.12.07.21.1.25.09a.78.78,0,0,0,.49-.08,5.54,5.54,0,0,0,1.61-1.18Z"/><path class="cls-1" d="M376.87,145.42a22.59,22.59,0,0,0,2.91-3.3c.32-.44.58-.92.88-1.37a28.24,28.24,0,0,0,1.49-2.46,13.56,13.56,0,0,0,.61-1.28,5.1,5.1,0,0,0,.38-1.2.39.39,0,0,0,0-.24.85.85,0,0,0-1-.41,7.27,7.27,0,0,0-2.43,1.41c-.22.17-.62-.1-.77-.66a1.68,1.68,0,0,1,.68-1.8,5.32,5.32,0,0,1,2.41-.93,3.1,3.1,0,0,1,1.66.31,2.9,2.9,0,0,1,1.24,1.37,2.59,2.59,0,0,1,.09,1.31,4.63,4.63,0,0,1-.24.86,9.9,9.9,0,0,1-.67,1.43c-.72,1.26-1.35,2.58-2.16,3.79a26.1,26.1,0,0,1-3,3.75,15.29,15.29,0,0,1-2.26,2,5.91,5.91,0,0,1-2.21,1,3.36,3.36,0,0,1-.65,0,4.68,4.68,0,0,1-.75-.11,1.55,1.55,0,0,1-1-1,3,3,0,0,1,0-1.15,6.51,6.51,0,0,1,.26-.93,14.59,14.59,0,0,1,.71-1.6c.12-.22.23-.45.36-.66.49-.79.75-.94,1.26-.83.12,0,.25,0,.36.08.38.11.43.64.15,1.25-.4.89-.87,1.77-1.16,2.57l-.09.29-.05.2c0,.06,0,0,0,0h0a3,3,0,0,0,1.39-.49,8.54,8.54,0,0,0,1.62-1.26Z"/><path class="cls-1" d="M379,149.22a21.09,21.09,0,0,0,2.49-2.66c.28-.35.51-.74.77-1.1a15.85,15.85,0,0,0,2.32-4,1.85,1.85,0,0,0,0-1.44.42.42,0,0,0-.54-.11,1.49,1.49,0,0,0-.24.14l-.06,0-.11.09-.24.18c-.2.14-.59-.14-.79-.64a1.48,1.48,0,0,1-.07-.87,2,2,0,0,1,.35-.55,2.06,2.06,0,0,1,.62-.42,2.15,2.15,0,0,1,2.41.53,2.85,2.85,0,0,1,.61,1.2,3.84,3.84,0,0,1,.11.65v.47a6.58,6.58,0,0,1-1.18,3.15c-.66,1-1.22,2.1-1.93,3.08a26.48,26.48,0,0,1-2.58,3,12,12,0,0,1-1.95,1.62l-.45.24a2.74,2.74,0,0,1-.59.2,1.57,1.57,0,0,1-.61,0,1.48,1.48,0,0,1-.53-.27l-.27-.24c-.07-.08-.14-.12-.2-.2s-.24-.29-.35-.44-.19-.32-.27-.5-.14-.36-.18-.54a5,5,0,0,1,.4-3.12c.09-.21.17-.41.27-.6.4-.69.64-.79,1.14-.66.11,0,.23.05.34.09.38.13.46.6.26,1.11a9.86,9.86,0,0,0-.65,2,1.44,1.44,0,0,0,.33,1.29.57.57,0,0,0,.13.14c.05,0,0,0,0,0h0s-.06,0,.17-.08a6.77,6.77,0,0,0,1.08-.84Z"/><path class="cls-1" d="M381.21,154a12.47,12.47,0,0,0,1.83-2c.2-.28.35-.6.54-.88a12,12,0,0,0,1.63-3.19,2.23,2.23,0,0,0,0-1.33c-.2-.43-.44-.39-1-.63-.17-.07-.2-.55,0-1a1.1,1.1,0,0,1,1.47-.62,2.68,2.68,0,0,1,1.37,1.5,3.49,3.49,0,0,1,.15,1.62,6.45,6.45,0,0,1-.87,2.42c-.49.83-.85,1.72-1.37,2.52a18.32,18.32,0,0,1-1.95,2.46,6.72,6.72,0,0,1-1.63,1.31,1.59,1.59,0,0,1-1,.15,2.76,2.76,0,0,1-.87-.24,2,2,0,0,1-1-1.56,4.54,4.54,0,0,1,.46-2.51,4.29,4.29,0,0,1,.29-.5c.46-.58.89-.63,1.22-.25a1.86,1.86,0,0,1,.22.27,1.1,1.1,0,0,1,.13.51.83.83,0,0,1-.06.42,5.9,5.9,0,0,0-.43,1.33,1.92,1.92,0,0,0,0,.53c0,.11,0,.09,0,.08h0a.16.16,0,0,1,.09,0s.15,0,.14,0h0a.77.77,0,0,0,.17-.11,4.39,4.39,0,0,0,.46-.37Z"/><path class="cls-1" d="M158.42,135.29c-.42-.54-.85-1.08-1.28-1.61l-.33-.4-.37-.46a10.68,10.68,0,0,1-.65-1,19.44,19.44,0,0,1-1.54-4.14A17.11,17.11,0,0,0,153.2,125a2.26,2.26,0,0,0-.25-.45,2.67,2.67,0,0,0-.31-.36,1.42,1.42,0,0,0-.65-.37.44.44,0,0,0-.41.21,2.46,2.46,0,0,0-.38.88,9.87,9.87,0,0,0,.77,4.84,30.06,30.06,0,0,0,2,4.25,45.52,45.52,0,0,1,2.93,5.4c.24.67-.27.71-.91.44a4.58,4.58,0,0,1-2.09-1.89,58.42,58.42,0,0,1-2.93-5.62,16.82,16.82,0,0,1-1.66-6.44c0-.37.07-.74.11-1.11a10,10,0,0,1,.34-1.15,3.28,3.28,0,0,1,.81-1.09,2.15,2.15,0,0,1,1.5-.48,3.32,3.32,0,0,1,2.24,1.3c.12.16.24.33.35.51l.24.47c.15.31.3.63.42.94.55,1.4.85,2.79,1.3,4a10.35,10.35,0,0,0,.83,1.78,11.08,11.08,0,0,0,1.22,1.59,47.52,47.52,0,0,1,3.15,4.24,8.91,8.91,0,0,1,1,1.9A6.74,6.74,0,0,1,163,141a23.3,23.3,0,0,1-.7,4c-.5,2-1,3.93-1.56,5.86-.12.43-.22.85-.36,1.27-.49,1.58-.77,2-1.35,2.22a2,2,0,0,1-.4.11c-.41,0-.51-.7-.23-1.89.4-1.76.91-3.53,1.4-5.3a43.79,43.79,0,0,0,1.25-5.31,8.88,8.88,0,0,0,.1-1.82,2.86,2.86,0,0,0-.47-1.48,27.17,27.17,0,0,0-2.31-3.31Z"/><path class="cls-1" d="M150.34,141.26a31,31,0,0,1-1.61-3.79c-.16-.47-.37-.91-.51-1.39a27.5,27.5,0,0,1-1.07-5.13c0-.4-.07-.8-.08-1.21a3.82,3.82,0,0,1,.21-1.52,1.49,1.49,0,0,1,1.66-1,2.72,2.72,0,0,1,1,.39,2.65,2.65,0,0,1,.66.54c.22.25-.13.59-.6.82a3.71,3.71,0,0,1-.75.26c-.08,0-.2.06-.23.11l0,.07h0a3.78,3.78,0,0,0,0,.48,22.2,22.2,0,0,0,.2,2.71,17.22,17.22,0,0,0,1,3.38,32.31,32.31,0,0,0,1.44,3.61,12,12,0,0,0,1.13,2,1.75,1.75,0,0,0,.35.37.33.33,0,0,0,.47,0,1,1,0,0,0,.3-.4,1,1,0,0,0,.08-.26,2.14,2.14,0,0,0,.07-.38,8,8,0,0,0-.34-2.63c-.05-.2-.12-.39-.16-.59-.16-.74-.08-1,.38-1.27.11-.05.21-.12.32-.16.37-.14.73.11.94.65a10.8,10.8,0,0,1,.67,2.66,6.69,6.69,0,0,1,0,1.55,3.64,3.64,0,0,1-.2,1l-.26.61-.36.52a6,6,0,0,1-.7.62,1.78,1.78,0,0,1-1.44.16,3,3,0,0,1-1.3-.92l-.28-.32-.17-.23-.27-.41c-.18-.27-.34-.54-.49-.81Z"/><path class="cls-1" d="M145.37,140.33c-.38-1.19-.69-2.38-1-3.58-.1-.44-.24-.86-.32-1.31-.14-.78-.25-1.57-.32-2.38a10.18,10.18,0,0,1,0-1.25v-.33a3.11,3.11,0,0,1,.06-.44c0-.15.1-.28.14-.42a1.92,1.92,0,0,1,.13-.17s.05-.06.05-.1l.09-.07a4.07,4.07,0,0,1,.61-.44,2.89,2.89,0,0,1,.62-.26,2.16,2.16,0,0,1,1.48.1,4,4,0,0,1,1.92,2.21c0,.18-.29.52-.83.59a1.65,1.65,0,0,1-1.39-.43,2.4,2.4,0,0,0-.54-.58c-.11-.05,0-.07-.19-.05s-.21,0-.29.08l0,0a2.23,2.23,0,0,0,0,.23c0,.18,0,.4-.05.6a13.79,13.79,0,0,0,.5,3.12c.25,1.16.54,2.31.89,3.45.21.7.45,1.39.72,2.06a8.93,8.93,0,0,0,1.57,2.74.7.7,0,0,0,.65.28.52.52,0,0,0,.25-.18,2.15,2.15,0,0,0,.14-.3l.06-.17c0-.06,0-.15.07-.22.22-.56.36-.76.9-.74a2.16,2.16,0,0,1,.36,0c.39,0,.6.4.53,1a5.74,5.74,0,0,1-.16.66,4,4,0,0,1-.36.77,2.31,2.31,0,0,1-1.76,1.12,5,5,0,0,1-.56-.06,4.87,4.87,0,0,1-.53-.21,2.18,2.18,0,0,1-.5-.31l-.23-.18-.15-.15a6.19,6.19,0,0,1-.91-1.17,17.86,17.86,0,0,1-1.62-3.52Z"/><path class="cls-1" d="M142.33,143.23c-.3-1-.55-2-.77-3-.08-.36-.21-.72-.27-1.08a13.53,13.53,0,0,1-.16-4.1,9.23,9.23,0,0,1,.24-.94,1.85,1.85,0,0,1,.79-1.1,1.15,1.15,0,0,1,.7-.1,1.65,1.65,0,0,1,.51.19,2.87,2.87,0,0,1,.57.48,2.67,2.67,0,0,1,.62,1c.15.47-1.71.86-2.1.4a2.24,2.24,0,0,0-.2-.21h0l.11-.17a2.31,2.31,0,0,0,.18-.32.66.66,0,0,0,0-.15.14.14,0,0,0,0-.07.22.22,0,0,0,0-.08h0l0,.08.14.16a1,1,0,0,0,.25.2,1.3,1.3,0,0,0,.2.15s0,0,0,0a.61.61,0,0,0-.12.24,3.06,3.06,0,0,0-.15.4c0,.11-.07.21-.09.37s-.08.62-.11,1a9.89,9.89,0,0,0,.37,2.55c.2,1,.43,1.9.71,2.84.17.57.35,1.15.57,1.7a7,7,0,0,0,1.22,2.24s.09.08.12.08,0,0,0,0a1,1,0,0,1,0,.17v.07s0,0,0,0,0,0-.07-.08a.43.43,0,0,0-.11-.12h0v0a4.55,4.55,0,0,0,0-.81c0-.13,0-.28,0-.43,0-.54.12-.72.63-.83a3.37,3.37,0,0,1,.34-.09.72.72,0,0,1,.8.65,5.15,5.15,0,0,1,.12,1.07,3.44,3.44,0,0,1,0,.62,2.71,2.71,0,0,1-.24.78,2.08,2.08,0,0,1-.48.57,1.6,1.6,0,0,1-1.06.32,1.92,1.92,0,0,1-1.2-.56,4.73,4.73,0,0,1-.83-1.05,15.89,15.89,0,0,1-1.3-3Z"/><path class="cls-1" d="M139.61,145.44a21.31,21.31,0,0,1-.68-2.19c-.06-.27-.19-.52-.23-.81a12.07,12.07,0,0,1-.17-1.5,5.26,5.26,0,0,1,.2-1.79A1.63,1.63,0,0,1,140,138a2.24,2.24,0,0,1,2,.6c.13.14-.17.53-.52.87a3.9,3.9,0,0,1-.54.43,1,1,0,0,1-.23.11s-.06.06-.07.06,0,0-.07-.05a.11.11,0,0,0-.11,0s0,.08-.07.14a1.33,1.33,0,0,0-.07.3,4.64,4.64,0,0,0,.26,1.77,16.22,16.22,0,0,0,.58,2,12.5,12.5,0,0,0,.48,1.2,7.06,7.06,0,0,0,1,1.64,1.69,1.69,0,0,0,.52.42.72.72,0,0,0,.24.09c.07.07.12-.1.09.07a.22.22,0,0,0,0,.14c0,.06,0,0,0,0s0,0-.08-.1-.11-.12-.08-.09,0,0,.09,0a2.29,2.29,0,0,1,.5.11l.34.09c.35.1.65.39.36.94a1.7,1.7,0,0,1-.23.3,1.84,1.84,0,0,1-.4.26,1.66,1.66,0,0,1-.92.11,2,2,0,0,1-.67-.22,2.24,2.24,0,0,1-.47-.29,5.23,5.23,0,0,1-1.2-1.32,12.66,12.66,0,0,1-1.08-2.1Z"/><path class="cls-1" d="M128,178.15a13.76,13.76,0,0,0,1.61,2.84,4.69,4.69,0,0,0,.94,1,.17.17,0,0,0,.25,0s0,0,0-.06l.09-.25c.07-.18.15-.49.22-.73.13-.52.22-1.08.31-1.64.16-1.13.26-2.3.41-3.5a23.26,23.26,0,0,1,.45-2.67,16,16,0,0,1,.93-2.58,13.61,13.61,0,0,1,2.67-4.06,17.73,17.73,0,0,1,3.85-2.8c1.33-.77,2.63-1.51,3.89-2.32s2.59-1.59,3.84-2.42a28.52,28.52,0,0,0,6-5.07,11.51,11.51,0,0,0,3-8.87c-.08-1,.4-1,1-.17a7.52,7.52,0,0,1,.46.8,5.38,5.38,0,0,1,.3,1.14c0,.21.08.44.11.68s0,.47,0,.72a5.79,5.79,0,0,1-.26,1.57,13.76,13.76,0,0,1-2.79,5,25.11,25.11,0,0,1-4,3.77,49.13,49.13,0,0,1-4.47,3l-2.25,1.37c-.77.47-1.55.92-2.32,1.36a21.5,21.5,0,0,0-5.13,3.47A14.64,14.64,0,0,0,134.2,173c-.65,2.08-.68,4.5-1.06,6.91a13.59,13.59,0,0,1-.39,1.83,7.54,7.54,0,0,1-.35,1,2.12,2.12,0,0,1-.9,1,1.7,1.7,0,0,1-1.31.05,3,3,0,0,1-.62-.3c-.17-.11-.31-.22-.46-.33a8.75,8.75,0,0,1-1.28-1.48,21.58,21.58,0,0,1-3.22-8.42,18.1,18.1,0,0,1,.13-6.84,18.93,18.93,0,0,1,2.9-6.15c1.9-2.9,3.94-5.58,5.84-8.34.43-.6.81-1.21,1.22-1.83,1.49-2.29,1.93-3,2.64-3.3a3.19,3.19,0,0,1,.48-.21c.45-.11.31,1.14-.69,3a74.38,74.38,0,0,1-5.22,7.78,41,41,0,0,0-4.86,7.78c-1.51,4-.85,8.86.94,12.94Z"/><path class="cls-1" d="M381.21,171.87a14.34,14.34,0,0,1,1,3.3c.13.55.18,1.1.27,1.65a10.38,10.38,0,0,1,.08,1.76c-.06,2.3-.64,4.38-.6,6.32a6.56,6.56,0,0,0,.09,1,.35.35,0,0,0,.14.24.42.42,0,0,0,.31,0,4.12,4.12,0,0,0,.81-.41,12,12,0,0,0,2.74-2.6,19.35,19.35,0,0,0,2.11-3.31,15.4,15.4,0,0,0,1.75-7.56,17.07,17.07,0,0,0-2.14-6.65c-1.37-2.75-3-5.39-4.2-8.31-.37-.92.13-1,.9-.45a9.47,9.47,0,0,1,2.68,3.22,55.3,55.3,0,0,1,4.06,8.83,13.77,13.77,0,0,1,.51,5.14,16.8,16.8,0,0,1-1.25,4.92,23.68,23.68,0,0,1-3,5.26,15.59,15.59,0,0,1-2.11,2.28,9.31,9.31,0,0,1-1.32,1,4.65,4.65,0,0,1-.81.38,2.73,2.73,0,0,1-1.11.18,1.92,1.92,0,0,1-1.79-1.62,2.39,2.39,0,0,1-.08-.5,3.42,3.42,0,0,1,0-.44,8.72,8.72,0,0,1,0-.88,26.55,26.55,0,0,1,.32-3.3,22.31,22.31,0,0,0,.28-3.1,16.3,16.3,0,0,0-.41-3,11.67,11.67,0,0,0-1.29-3.5,14.4,14.4,0,0,0-2.41-2.92,84.91,84.91,0,0,1-8.36-8.7,25.26,25.26,0,0,1-4.81-8.06c-.09-.35-.19-.7-.28-1s-.1-.72-.15-1.09a3.87,3.87,0,0,1,0-1c0-.29,0-.56.06-.8a6.5,6.5,0,0,1,.37-1.15,1.78,1.78,0,0,1,.94-1,1.69,1.69,0,0,1,.46-.16c.21,0,.28.26.23.7,0,.22-.1.47-.14.78s-.09.67-.13,1.07c-.13,2.4,1,4.87,2.41,7.15a45.39,45.39,0,0,0,5.2,6.51c1.46,1.55,2.94,3,4.53,4.47a29.68,29.68,0,0,1,2.36,2.39,12,12,0,0,1,1.94,3Z"/><path class="cls-1" d="M287.13,102.76c-5.61-1.12-11.3-1.84-17-2.47s-11.43-.91-17.16-.9c-2.09,0-4.18,0-6.27.08s-4.18.18-6.26.28a195.61,195.61,0,0,0-43.52,7.43,179.44,179.44,0,0,0-18.51,6.5c-3.86,1.59-7.67,3.33-11.42,5.16q-2.82,1.38-5.6,2.82a28.28,28.28,0,0,0-2.68,1.48,16.21,16.21,0,0,0-2.35,1.87c-.9.87-1.32,1.24-1.45,1.09s.07-.8.69-1.77A12.25,12.25,0,0,1,159,121a52.56,52.56,0,0,1,5.72-3.29,189,189,0,0,1,48.94-16.35c2.54-.51,5.13-.89,7.73-1.34s5.22-.79,7.87-1.06c5.27-.67,10.61-1,15.9-1.25q8.75-.27,17.48.22c5.81.37,11.62.91,17.37,1.81,3.55.48,7.07,1.19,10.59,1.84s7,1.5,10.46,2.46l3.94,1,3.89,1.18c1.3.4,2.61.77,3.9,1.19l3.85,1.32c1.28.45,2.57.85,3.84,1.33l3.79,1.45c1.25.46,2.54,1,3.77,1.4a12.61,12.61,0,0,0,1.88.47c.64.15,1.31.23,2,.34,4.1.58,8.25,1,12.33,1.79a47.64,47.64,0,0,1,11.88,3.88c.82.44,1.67.8,2.45,1.3l2.34,1.5c.71.5,1.31,1,1.88,1.48a14.69,14.69,0,0,1,1.51,1.32c.83.87,1.5,1.59,2,2.19A10.35,10.35,0,0,1,368,130a6.49,6.49,0,0,1,.31,1c.05.36-.43.05-1.28-.82-.43-.44-1-1-1.57-1.7s-1.47-1.37-2.33-2.21a36.66,36.66,0,0,0-9.14-5.83,49,49,0,0,0-10.67-3.21c-3.71-.73-7.5-1.11-11.4-1.66l-1.48-.22-1.49-.3a20.67,20.67,0,0,1-3-.93L320.5,112a203.24,203.24,0,0,0-33.36-9.22Z"/><path class="cls-1" d="M280.88,132.7c-10-1.58-20.21-.7-30.4.08-3.73.29-7.47.62-11.22.75-6.66.25-13.25-.27-19.79-.31a81.53,81.53,0,0,0-9.77.46,75.25,75.25,0,0,0-9.61,1.8,106.43,106.43,0,0,0-16.37,5.88c-3.41,1.48-6.78,3.09-10.3,4.45a35.59,35.59,0,0,1-5.46,1.67,13.27,13.27,0,0,1-5.85,0,4,4,0,0,1-1.25-.51c-.25-.16-.33-.28-.27-.36s.24-.12.53-.13.69,0,1.18,0a16.72,16.72,0,0,0,3.84-.48,49,49,0,0,0,5.31-1.65c3.49-1.25,7-2.85,10.45-4.35s7.06-3,10.71-4.22a74,74,0,0,1,22.76-4.27c4.64-.11,9.33.09,14,.21,2.35.05,4.69.09,7,.05s4.68-.15,7-.3c10.25-.62,20.58-1.94,31-1.31a69.38,69.38,0,0,1,9.53,1.22,81.85,81.85,0,0,1,9.25,2.51c9.18,2.91,18.34,6,27.58,8.25a110.78,110.78,0,0,0,21.59,3.43c1.6.06,3.15,0,4.75,0a49.57,49.57,0,0,0,6.19-.74,16.58,16.58,0,0,1,2.78-.41,7.58,7.58,0,0,1,.93,0c.35.07,0,.4-1,1a16.61,16.61,0,0,1-4.94,1.57,44.67,44.67,0,0,1-10.15.46,88.84,88.84,0,0,1-10.21-1.23,189.22,189.22,0,0,1-20.24-4.9c-5-1.45-9.9-3-14.82-4.61-2.46-.78-4.92-1.57-7.37-2.28-1.24-.35-2.44-.68-3.68-.93s-2.49-.51-3.74-.67Z"/><path class="cls-1" d="M206.76,309.66q-2-4.5-4.36-8.8c-1.58-2.87-3.27-5.69-5.09-8.42a194.65,194.65,0,0,1-10.16-17.15c-2.27-4.29-4.49-8.59-6.55-13q-5.46-11.56-10.25-23.42c-1.64-3.93-3.14-7.92-4.69-11.89s-3-8-4.39-12c-2.55-7.11-4.94-14.33-7.16-21.5-.68-2.31-1.41-4.62-2.07-6.94s-1.29-4.66-1.89-7-1.15-4.71-1.62-7.07l-1.33-7.1c-.54-3,0-2.66,1-.27a52.61,52.61,0,0,1,1.67,5c.3,1.05.59,2.2.91,3.41s.67,2.49,1,3.83c2.32,9.49,5.18,18.87,8.26,28.19s6.42,18.59,10,27.8c4.28,11,9.28,22.3,14.65,33.13,1.52,3,3,6,4.57,8.86.8,1.46,1.56,2.93,2.39,4.37l2.5,4.3c.82,1.45,1.77,2.81,2.64,4.22s1.8,2.79,2.73,4.19c1.8,2.83,3.54,5.7,5.12,8.66a113.4,113.4,0,0,1,9.27,22.9,133.62,133.62,0,0,1,4.67,37c0,9.62-.67,19-1.53,28.48-.19,2.08-.37,4.11-.56,6.21-.78,7.76-1.14,10.21-1.79,11.83a8.43,8.43,0,0,1-.45,1.07c-.45.71-.48-2.49,0-8.19,1.38-16.87,3.47-34.66,2-52.41a116.81,116.81,0,0,0-9.52-38.28Z"/><path class="cls-1" d="M285.2,371.82l-.73-13c-.08-1.58-.21-3.15-.28-4.73-.22-5.58-.36-11.16-.33-16.75,0-2.48,0-5,.11-7.44,0-1.59.15-3.19.33-4.78a13.71,13.71,0,0,1,1.33-4.77c.61-1,.86-.45.91.44a19.6,19.6,0,0,1-.13,4.05,83.92,83.92,0,0,0-.63,9.45c-.09,3.2-.1,6.41-.12,9.65,0,3.87.27,7.89.47,11.85q.31,6.52.73,13.06l.51,8c.28,4.06.54,8.14.86,12.16.29,3.13.57,6.2.85,9.29.06.69.11,1.35.17,2,.15,2.56,0,3.39-.45,3.95a2,2,0,0,1-.33.37c-.38.25-.71-.78-.9-2.63-.56-5.5-1.06-11.32-1.49-17.17l-.93-13.08Z"/><path class="cls-1" d="M247.49,304.88a17.71,17.71,0,0,1-8.46-1.32,21.92,21.92,0,0,1-2.8-1.36,22.69,22.69,0,0,1-7.38-7.75c-.81-1.36-1.55-2.75-2.23-4.14a25.41,25.41,0,0,1-2.12-5.55c-.26-1.2,2.17-.38,3,1.66a39.3,39.3,0,0,0,5.35,10.14,16.2,16.2,0,0,0,5.43,4.33,15.61,15.61,0,0,0,7.34,2l.6,0,.59-.05,1.2-.09a23.92,23.92,0,0,0,2.35-.49,27.42,27.42,0,0,0,6.8-2.86,46.14,46.14,0,0,0,4.67-3.29c.33-.26.64-.53,1-.78,1.26-.94,1.74-1.13,2.36-.87a3,3,0,0,1,.41.18c.38.26.08.94-.79,1.73a39.21,39.21,0,0,1-9,6.15,24.63,24.63,0,0,1-8.21,2.43Z"/><path class="cls-1" d="M109.45,286.06a16.39,16.39,0,0,1,3.57-.46,14.54,14.54,0,0,1,3.57.43,14.85,14.85,0,0,1,3.4,1.21,6.59,6.59,0,0,1,2.86,2.65,4.7,4.7,0,0,1,.45,1.51,3.9,3.9,0,0,1-.14,1.68,2.05,2.05,0,0,1-1.37,1.44,2.43,2.43,0,0,1-2-.41,6.26,6.26,0,0,1-1-.83,6.57,6.57,0,0,1-.8-.86,8.25,8.25,0,0,1-1.26-2.05,6.94,6.94,0,0,1-.2-4.79,10.31,10.31,0,0,1,2.38-3.95,15.77,15.77,0,0,1,3.51-2.81,16.31,16.31,0,0,1,7.51-2.44,9,9,0,0,1,5.11,1.17,7.24,7.24,0,0,1,3,4.29c.28,1.07-.25,1-.95.34a26.26,26.26,0,0,0-2.82-2.62,6.27,6.27,0,0,0-3.87-1.22,12.63,12.63,0,0,0-4.4.82,14.09,14.09,0,0,0-7.18,5.49,5.27,5.27,0,0,0-.49,5,6.68,6.68,0,0,0,1.6,2.21c.83.81,1,.94,1.32.68a.59.59,0,0,0,.11-.28,2.82,2.82,0,0,0,0-.61,2.56,2.56,0,0,0-.4-1.18,5.27,5.27,0,0,0-2.26-1.79,14,14,0,0,0-3-1,12.15,12.15,0,0,0-3.17-.27,15.13,15.13,0,0,0-7.47,2.42,9.85,9.85,0,0,0-3.84,4.42,8.25,8.25,0,0,0-.4,5.74c.9,3,3.27,5.16,5.7,7.07.54.42,1.1.81,1.66,1.23,2.1,1.52,2.74,2.08,2.91,2.83a1.86,1.86,0,0,1,.1.49c0,.45-1.07.11-2.71-.93a29.72,29.72,0,0,1-7-5.76,12.76,12.76,0,0,1-2.41-4.3,9.38,9.38,0,0,1-.21-5.12,9.93,9.93,0,0,1,.57-1.8,8.22,8.22,0,0,1,.84-1.71,11.43,11.43,0,0,1,2.5-2.81,16.56,16.56,0,0,1,6.51-3.21Z"/><path class="cls-1" d="M162.4,312.28a15.87,15.87,0,0,1,1.92-3.15,11.72,11.72,0,0,1,2.69-2.66,4.42,4.42,0,0,1,1-.51,2.7,2.7,0,0,1,1.44-.16,2.2,2.2,0,0,1,1.27.79,3.36,3.36,0,0,1,.55,1.17,7.3,7.3,0,0,1,.22,2,7.17,7.17,0,0,1-.23,2,6,6,0,0,1-1.48,2.59,7,7,0,0,1-2.4,1.56,12.82,12.82,0,0,1-4.65.85,17.08,17.08,0,0,1-4.61-.57,12,12,0,0,1-2.22-.84,12.2,12.2,0,0,1-1.93-1.39A14.24,14.24,0,0,1,151,310.3a17.49,17.49,0,0,1-2.16-7.79,18.31,18.31,0,0,1,2.31-10c.55-.93.89-.54.91.45a18.31,18.31,0,0,1-.64,4.27,18,18,0,0,0,0,9.38,12.88,12.88,0,0,0,2.09,4.15,11.76,11.76,0,0,0,1.57,1.74l.91.76a5.34,5.34,0,0,0,.93.56,12.82,12.82,0,0,0,5.69,1.07,9.3,9.3,0,0,0,5.42-1.61,3.93,3.93,0,0,0,1.47-2.38,6.45,6.45,0,0,0-.14-2.95.48.48,0,0,0-.54-.39,3.07,3.07,0,0,0-1.14.6,12.18,12.18,0,0,0-2.2,2.37,11.72,11.72,0,0,0-1.83,3.54,17.26,17.26,0,0,0-.49,4,10.4,10.4,0,0,0,1.63,5.79,10.2,10.2,0,0,0,4.72,3.72,17.84,17.84,0,0,0,9.36.72c.69-.11,1.36-.27,2-.43,2.53-.64,3.32-.9,4-.63a2.41,2.41,0,0,1,.48.18c.39.24-.5,1-2.43,1.72a22.33,22.33,0,0,1-9.26,1.26,14.46,14.46,0,0,1-9.13-3.86,11.38,11.38,0,0,1-3.23-6.9,15.17,15.17,0,0,1,0-3.75c.07-.61.18-1.21.3-1.81a8.54,8.54,0,0,1,.24-1c.11-.32.23-.63.36-.92Z"/><path class="cls-1" d="M377.53,295.79a16.93,16.93,0,0,0-7.94.51,11.39,11.39,0,0,0-6.21,4.52l-.66-1.48.57.07c.17,0,.35,0,.52,0a2.22,2.22,0,0,0,1.06-.44,3.65,3.65,0,0,0,.81-1,10.79,10.79,0,0,0,.93-2.91,20.89,20.89,0,0,0,.37-5.67,13.62,13.62,0,0,0-1.54-5.37,16,16,0,0,0-8.46-7.25,18.26,18.26,0,0,0-5-1.09,20,20,0,0,0-5.07.35,14,14,0,0,0-10,7.28c-.57,1.17-1,.92-.93-.39a6.37,6.37,0,0,1,.7-2.57,12.75,12.75,0,0,1,1-1.52,10.91,10.91,0,0,1,1.45-1.43,17,17,0,0,1,6.69-3.15,20.74,20.74,0,0,1,7.28-.35A18.53,18.53,0,0,1,365.59,281a16.27,16.27,0,0,1,3.16,8.24,20,20,0,0,1-.08,4.45,16.83,16.83,0,0,1-1,4.37,5.36,5.36,0,0,1-2,2.58,4.33,4.33,0,0,1-3.3.52l-1.15-.25.6-1a12.23,12.23,0,0,1,5.22-4.53,17.6,17.6,0,0,1,6.59-1.62,19.51,19.51,0,0,1,5.9.58,16,16,0,0,1,5.42,2.46l.92.68.81.8a11.28,11.28,0,0,1,1.45,1.78c.42.64.72,1.32,1.09,2a19.82,19.82,0,0,1,.84,2.09,16.42,16.42,0,0,1,.54,2.2c.14.74.13,1.5.2,2.25s-.1,1.51-.2,2.25a17.79,17.79,0,0,1-3.82,8.19,31.71,31.71,0,0,1-2.2,2.57c-.82.78-1.6,1.61-2.48,2.31l-1.13,1-1.18.9c-3,2.18-4.13,2.59-5.05,2.58a2.85,2.85,0,0,1-.61,0c-.51-.18.65-1.15,2.78-2.68a40,40,0,0,0,8.59-8,17.52,17.52,0,0,0,2.78-5.08,12.79,12.79,0,0,0,.57-5.59c-.15-.69-.28-1.38-.48-2.07a16.42,16.42,0,0,0-1.86-3.87l-.61-.83a6.3,6.3,0,0,0-.71-.75,13.86,13.86,0,0,0-7.67-3.57Z"/><path class="cls-1" d="M389.66,252.11a4.9,4.9,0,0,1,2.56-2.78,5.73,5.73,0,0,1,3.59-.37,7,7,0,0,1,3.13,1.54,8.16,8.16,0,0,1,2,2.71,8,8,0,0,1-.63,8.7,12.51,12.51,0,0,1-2.93,2.88,18.47,18.47,0,0,1-7.38,3,18,18,0,0,1-7.05-.09,11.7,11.7,0,0,1-4.22-1.81,9.37,9.37,0,0,1-3-3.51c-.43-.87.09-.93.87-.52a28.88,28.88,0,0,1,3,2.07,11.89,11.89,0,0,0,7.5,2.26,17.86,17.86,0,0,0,8-2,10.21,10.21,0,0,0,3.77-3.25,6.57,6.57,0,0,0,1.19-4.59,8,8,0,0,0-.84-2.56,7.24,7.24,0,0,0-.72-1.13,6.22,6.22,0,0,0-.94-.91,4.42,4.42,0,0,0-4.81-.57,3.12,3.12,0,0,0-1.54,2.49,6.88,6.88,0,0,0,.64,3.27,6.63,6.63,0,0,0,3.67,3.44,12.44,12.44,0,0,0,5.26.75,22.92,22.92,0,0,0,8-2.12c.55-.25,1.08-.53,1.61-.82,2-1.09,2.52-1.47,3.23-1.39a2.39,2.39,0,0,1,.48,0c.43.1-.06,1.11-1.56,2.15a22.76,22.76,0,0,1-7.43,3.3,18.66,18.66,0,0,1-8.53.35,9.23,9.23,0,0,1-5.74-3.65,8.57,8.57,0,0,1-1.35-3.21,6.4,6.4,0,0,1,.13-3.64Z"/><path class="cls-1" d="M361,252.7a3.31,3.31,0,0,1-1.26,1.73,2.93,2.93,0,0,1-.71.41,2.21,2.21,0,0,1-1.52-.07,2.31,2.31,0,0,1-1.05-.91,8.27,8.27,0,0,1-.48-.93,1.6,1.6,0,0,1-.22-1.21c.09-.24,1.94-.07,2,.18a6.17,6.17,0,0,1,.23,1.15c.06.19.26.12.46,0a1.2,1.2,0,0,0,.67-.6,1.5,1.5,0,0,0,.2-.64,2,2,0,0,0-.19-1.09v0l.71.28a1.23,1.23,0,0,0-.52.59.94.94,0,0,1-.06.15c-.1.17-.23.15-.68-.07l-.31-.15c-.35-.17-.56-.45-.48-.75a2.38,2.38,0,0,1,1.4-1.48l1.1-.45.5,1.1c.09.21.18.43.26.65a3.84,3.84,0,0,1,0,2.1Z"/><path class="cls-1" d="M150.39,263.81a3.54,3.54,0,0,1-1.84-.34,2.64,2.64,0,0,1-.81-.63,3.39,3.39,0,0,1-.51-.82,3,3,0,0,1-.26-1.35,4.28,4.28,0,0,1,.71-1.92,9.92,9.92,0,0,1,1.12-1.41l1-1.14a4,4,0,0,1,1.48-1.27c.39-.14,1.07,1.59.62,2-.86.8-1.72,1.59-2.52,2.39a2.18,2.18,0,0,0-.59,1.6c0,.14.05.23.06.36s.11.25.2.32a1,1,0,0,0,.67.35,2.59,2.59,0,0,0,1.26-.16,3.63,3.63,0,0,0,1.71-1.17c.32-.46.23-.82,0-1a1.09,1.09,0,0,0-.15-.08c-.19-.11-.29-.28-.17-.77l.06-.35a.65.65,0,0,1,.93-.44,2.12,2.12,0,0,1,1.08.9,2.17,2.17,0,0,1,.24,1.55,3.74,3.74,0,0,1-1.34,2.09,5.63,5.63,0,0,1-3,1.29Z"/><path class="cls-1" d="M422.92,288.07a2.12,2.12,0,0,1-1.77-.23l-.18-.1-.1-.05-.1-.1a.68.68,0,0,1-.18-.2,3.09,3.09,0,0,1-.37-.84,2.24,2.24,0,0,1,0-.9,1.26,1.26,0,0,0,0-.51c0-.2-.19-.34,0-.55s1.91-.34,2,.06a2.45,2.45,0,0,1,0,.87.72.72,0,0,1-.11.26,1,1,0,0,0-.15.1c-.13.11,0,.18.13.37l0,.05-.18-.14a.89.89,0,0,0,.25.2.35.35,0,0,0,.27,0l.06,0-.07.07c.14-.12.25-.25.24-.37s-.16-.15-.27-.18a.13.13,0,0,1-.09,0c-.07,0,0-.15.33-.52l.23-.25c.26-.29.55-.46.77-.37a1.36,1.36,0,0,1,.76.85,1.94,1.94,0,0,1-.07,1.35,2.42,2.42,0,0,1-.43.67l-.11.12,0,0a2.7,2.7,0,0,1-.77.45Z"/><path class="cls-1" d="M312.14,324.71c.57,1.24.19,2.47-2.43,2.47a2.52,2.52,0,0,1-2.52-2.52C307.18,320.3,311.13,322.52,312.14,324.71Z"/><path class="cls-1" d="M135.11,365.68a2.65,2.65,0,0,1-2.65,2.64C125.29,368.3,135.11,358,135.11,365.68Z"/><path class="cls-1" d="M170.23,420.36l-.11.19c-2,3-3.6-1.41-1.13-1.42C170.36,419.13,170.54,419.74,170.23,420.36Z"/><path class="cls-1" d="M351.21,378.84a1.62,1.62,0,0,1-.1.18c-2,3.05-3.6-1.41-1.13-1.42C351.35,377.6,351.53,378.21,351.21,378.84Z"/><path class="cls-1" d="M188.21,382a9,9,0,0,0,2-1.61,6.84,6.84,0,0,0,.8-1,8.49,8.49,0,0,0,.6-1.16,5.61,5.61,0,0,0,.42-1.79,3.49,3.49,0,0,0-.88-2.8,4.46,4.46,0,0,0-2.88-1.32,3.82,3.82,0,0,0-2.7.81,5.16,5.16,0,0,0-1.53,3.22c-.08.39-.56.38-1,0a2.13,2.13,0,0,1-.49-2.3,5.36,5.36,0,0,1,1.61-2.29,5.53,5.53,0,0,1,2.5-1.17,6.23,6.23,0,0,1,5,1.2,5.59,5.59,0,0,1,2.07,5.71,9.49,9.49,0,0,1-1.27,3,11.3,11.3,0,0,1-2.21,2.31,8.82,8.82,0,0,1-1.7,1.05,3.24,3.24,0,0,1-2.22.25,2.38,2.38,0,0,1-1.36-1.15,2.59,2.59,0,0,1-.38-1.69,5.4,5.4,0,0,1,1.48-2.69,25.46,25.46,0,0,1,3.23-2.94c.26-.19.5-.39.76-.57,1-.65,1.37-.73,1.84-.43a2.53,2.53,0,0,1,.32.21c.29.27,0,.79-.61,1.32-1,.79-2,1.56-2.88,2.38a8.61,8.61,0,0,0-2.17,2.52c-.1.15-.07.25-.13.38s0,.2,0,.26a.25.25,0,0,1,0,.12l.1.17c.06.15.14.17.18.25a.61.61,0,0,0,.43.08,2.84,2.84,0,0,0,1-.37Z"/><path class="cls-1" d="M334.38,367.3a11.72,11.72,0,0,1-3.43,1.31,11.23,11.23,0,0,1-1.28.28,10.27,10.27,0,0,1-2.35,0,4.3,4.3,0,0,1-2.38-1,3.42,3.42,0,0,1-.42-.52,3.18,3.18,0,0,1-.26-.64,3.58,3.58,0,0,1-.07-.64l.06-.6a4.22,4.22,0,0,1,1.24-2.38c.41-.35,1.43,1.3,1.07,1.92a2.53,2.53,0,0,0-.44,1.3c0,.07,0,.16.19.31s.21.14.33.22.28.13.45.18a5.76,5.76,0,0,0,2.7-.05,11,11,0,0,0,3-.91,5.37,5.37,0,0,0,1.49-1,2.25,2.25,0,0,0,.57-1,1.61,1.61,0,0,0-.31-1.11,4.5,4.5,0,0,0-1.7-1.23l-.44-.2c-.56-.26-.67-.46-.58-1,0-.12,0-.24.07-.35.11-.38.49-.54,1-.4a4.69,4.69,0,0,1,1.11.42,5.25,5.25,0,0,1,1.08.68,4,4,0,0,1,1.61,2.6,3.43,3.43,0,0,1-.69,2.46,6.06,6.06,0,0,1-1.56,1.42Z"/><path class="cls-1" d="M284.09,348.24c-46.6,29.77-67.33,4-67.33,4l-4.36-31c3.15,16.07,28.66,37.83,72.14,8.92Z"/><path class="cls-1" d="M286.05,379.83c-46.92,29.14-70.41,3.41-70.41,3.41L218,364.15c7.81,9.34,25.73,23.65,67.57-.2Z"/><path class="cls-1" d="M243.33,228.9a3.64,3.64,0,0,1-1.42.41,3.81,3.81,0,0,1-1.38-.21,4,4,0,0,1-1.15-.63,2.92,2.92,0,0,1-.48-.44,3.42,3.42,0,0,1-.39-.48,6.66,6.66,0,0,1-.82-1.43,16.83,16.83,0,0,1-.92-5.21c0-.77-.06-1.54-.1-2.3a7,7,0,0,1,.32-3c.12-.29.58-.13,1,.2a1.7,1.7,0,0,1,.75,1.31,45.53,45.53,0,0,0-.06,5.49,8.32,8.32,0,0,0,.9,3.15,3.14,3.14,0,0,0,.93,1.24,2,2,0,0,0,1.33.43,2.15,2.15,0,0,0,1.49-1,10,10,0,0,0,1.41-3.17,20.82,20.82,0,0,0,.42-2.74c0-.2,0-.41.07-.61.13-.76.31-1,.84-1l.35,0c.39,0,.63.4.62,1a16.6,16.6,0,0,1-.95,5.27,10.38,10.38,0,0,1-1,2,5.17,5.17,0,0,1-1.78,1.84Z"/><path class="cls-1" d="M259.85,232.4a3.25,3.25,0,0,1-1.41.41,3.4,3.4,0,0,1-1.38-.21,4.09,4.09,0,0,1-1.16-.62,2.52,2.52,0,0,1-.47-.45,2.78,2.78,0,0,1-.39-.47,6.49,6.49,0,0,1-.82-1.43,16.6,16.6,0,0,1-.92-5.22c0-.77-.07-1.53-.1-2.3a7.08,7.08,0,0,1,.31-3c.12-.3.58-.14,1,.2a1.67,1.67,0,0,1,.74,1.3,47.72,47.72,0,0,0-.05,5.49,8.14,8.14,0,0,0,.9,3.16,3.19,3.19,0,0,0,.93,1.24,2,2,0,0,0,1.33.43,2.21,2.21,0,0,0,1.49-1,9.69,9.69,0,0,0,1.4-3.17,22.49,22.49,0,0,0,.43-2.73c0-.21,0-.41.06-.61.13-.77.32-1,.84-1a2.17,2.17,0,0,1,.36,0c.39,0,.62.39.61.95a16.28,16.28,0,0,1-.95,5.27,10.32,10.32,0,0,1-.94,2,5.28,5.28,0,0,1-1.78,1.85Z"/><path class="cls-1" d="M246.93,225.44a19.5,19.5,0,0,0,1.3-6.44,8.58,8.58,0,0,0-.35-2.25,6,6,0,0,0-2-3.26,8.05,8.05,0,0,0-3.76-1.55,14.22,14.22,0,0,0-3.8,0c-1.63.23-3.22.69-4.87.94-1,.15-.28-2,1.73-2.42a20.33,20.33,0,0,1,5.42-.54,11.09,11.09,0,0,1,5.47,1.56,9.05,9.05,0,0,1,2.56,2.49,8.11,8.11,0,0,1,1.29,3.28,12,12,0,0,1,0,3.74c-.05.61-.19,1.2-.29,1.8s-.28,1.18-.45,1.76a23.72,23.72,0,0,1-1.65,4.13,17.69,17.69,0,0,1-4.14,5.31,20.18,20.18,0,0,1-2.09,1.59c-.38.22-.77.41-1.16.61l-.59.31c-.21.08-.42.14-.63.21-.37.12-.73.26-1.11.37-1.43.29-1.92.16-2.24-.29a1.6,1.6,0,0,1-.22-.31c-.14-.37.38-.76,1.29-1l.51-.12c.17,0,.33-.12.49-.18l1-.37a6.25,6.25,0,0,0,.94-.45,8.93,8.93,0,0,0,.92-.49,13.09,13.09,0,0,0,1.69-1.27c.26-.24.55-.45.79-.71l.73-.8a18.28,18.28,0,0,0,3.22-5.68Z"/><path class="cls-1" d="M265.79,213a9.87,9.87,0,0,0-2.47-.85c-.32-.07-.65,0-1-.11a14.2,14.2,0,0,0-3.51-.1,5.67,5.67,0,0,0-1.48.39c-.59.24-1.09.66-1.4.79a1.14,1.14,0,0,1-.87-.53,1.15,1.15,0,0,1,.31-1.52,6.49,6.49,0,0,1,2.38-.86,8.69,8.69,0,0,1,2.33-.09c.92.08,1.86,0,2.79.13a13,13,0,0,1,3,.78,9.54,9.54,0,0,1,1.71.88,7.14,7.14,0,0,1,2.09,2.08,7.8,7.8,0,0,1,1,2.08c0,.17.09.33.12.5.09.64-.07.85-.55,1-.12,0-.23.06-.34.07a.8.8,0,0,1-.83-.55,7.2,7.2,0,0,0-1.44-2.65,5.69,5.69,0,0,0-1.91-1.36Z"/><path class="cls-1" d="M243.13,243.9C241,246.27,241.85,254,245.34,254c3.85,0,7-6.84,5.87-9.48C250.39,242.67,243.69,244.69,243.13,243.9Z"/><path class="cls-1" d="M259.61,271.27s-1.23,9.89-12.14,9.06c-6.24-.48-7.86-7-7.28-8.06C246.41,275.27,252.34,275.3,259.61,271.27Z"/><path class="cls-1" d="M375.05,152.55a3.25,3.25,0,0,0-1.07-1.29l-.29-.13-.39-.15-.75-.39a2.6,2.6,0,0,1-1-.79,6.32,6.32,0,0,1-.43-.78c-.11-.21-.24-.43-.36-.62a4.1,4.1,0,0,0-.87-1c-.42-.37-1-.67-1.19-1.3-.12-.38,1.9-1.58,2.34-1.16a9.93,9.93,0,0,1,1.23,1.38,6.37,6.37,0,0,1,.92,1.77c.06.27,0,.27.22.36s.63.23,1,.38a5.31,5.31,0,0,1,2.27,1.83,10,10,0,0,1,.81,1.44,10.32,10.32,0,0,0,1,1.91,1.94,1.94,0,0,0,1.14.68,1.18,1.18,0,0,1,.27,0c.3.07.37.23.34.89v.45a.84.84,0,0,1-.8.88,3.29,3.29,0,0,1-2.08-.76,5.39,5.39,0,0,1-1.3-1.61c-.45-.79-.71-1.5-1-2Z"/><path class="cls-1" d="M376.52,153.79a5.46,5.46,0,0,1,.21-.72c0-.08,0-.17,0-.25a4,4,0,0,1,.56-.78.75.75,0,0,0,.14-.37c0-.18,0-.46.35-.44a6.51,6.51,0,0,1,1,.88c.22.22.44.42.61.56a1.79,1.79,0,0,0,.3.23c.05,0-.06,0-.41,0s-.13.13-.18.21a2.36,2.36,0,0,0-.2.31,1,1,0,0,0-.08.22c0,.11-.06.23,0,.31s.24.05.35,0l.07,0c.05,0-.08.09-.54.54l-.31.31c-.35.35-.68.59-.88.58a1,1,0,0,1-1-.77,2.46,2.46,0,0,1-.09-.8Z"/><path class="cls-1" d="M370.34,164.07a35.7,35.7,0,0,1-3.09-2.84c-.34-.4-.75-.72-1.07-1.14a14.81,14.81,0,0,1-2.55-4.88c-.11-.39-.23-.78-.35-1.17s-.18-.78-.27-1.17a7.57,7.57,0,0,1-.27-3.06c.09-.63,1.94.18,2,1.19a20.81,20.81,0,0,0,1.2,5.42,10.69,10.69,0,0,0,.84,1.51c.38.45.73.92,1.13,1.36a26.66,26.66,0,0,0,2.86,2.75c.63.54,1.28,1.06,2,1.58,1,.78,2,1.6,3,2.42a30,30,0,0,1,2.3,2,3.63,3.63,0,0,1,.48.48c.52.68.57,1,.25,1.38a2,2,0,0,1-.23.27c-.28.26-.74.17-1.14-.2-1.2-1.12-2.46-2.22-3.86-3.33l-3.22-2.5Z"/><path class="cls-1" d="M218.26,410.84a10.83,10.83,0,0,0-2.19.4l-.52.17-.25.1c-.06,0-.31.13-.46.21-.67.38-1.33.8-2,1.19l-.52-2.21-.06-.25-.1-.2-.1-.22-.2-.42c-.19-.26-.39-.51-.56-.78a9.26,9.26,0,0,0-2.74-2.24,11.92,11.92,0,0,0-3.5-1.16,8.32,8.32,0,0,0-3.23.17,7,7,0,0,0-3.28,2.07c-.3.27-.7,0-.84-.57a2.37,2.37,0,0,1,.07-1.13,3,3,0,0,1,.87-1.13,8.54,8.54,0,0,1,5-1.39,11.55,11.55,0,0,1,4.85,1.18,11.36,11.36,0,0,1,4.74,3.8,3.36,3.36,0,0,1,.35.65l.15.34.08.17s0,.06,0,0v0c0,.14.06.33.1.48a2.64,2.64,0,0,1,.29-.15c.11-.06.15-.06.53-.22a11.89,11.89,0,0,1,1.83-.52,14.71,14.71,0,0,1,4-.23,11.79,11.79,0,0,1,5.71,1.87,6.07,6.07,0,0,1,2.74,4,5.68,5.68,0,0,1,.12,1.09c-.06,1.38-.39,1.74-.92,1.86a1.61,1.61,0,0,1-.37.07c-.41,0-.53-.56-.53-1.34a4.72,4.72,0,0,0-.89-3,6.22,6.22,0,0,0-2.73-1.92,12.15,12.15,0,0,0-5.48-.67Z"/><path class="cls-1" d="M292.33,407.27v0l0-.4a8.65,8.65,0,0,1,.11-.89,11.88,11.88,0,0,1,.43-1.71,17,17,0,0,1,1.39-3.14,18.83,18.83,0,0,1,1.3-2.1,17.4,17.4,0,0,1,6.65-5.49,9.94,9.94,0,0,1,3.86-.87,6.94,6.94,0,0,1,2.57.49,5.56,5.56,0,0,1,2.08,1.52c.35.41-.07.68-.69.75a4.06,4.06,0,0,1-2-.29c-2.28-1.16-5.21-.19-7.68,1.54a15,15,0,0,0-3.76,4.12,14.36,14.36,0,0,0-2.35,5.63,5,5,0,0,0-.07.56l0,.28v.22l0,.23c0,.64.12,1.27.18,1.86l-1.2-.28a6,6,0,0,0-1.12-.15,8.71,8.71,0,0,0-5.22,1.92,6.92,6.92,0,0,0-2.41,3.41,4.12,4.12,0,0,0-.15.84c-.09,1,0,1.32-.47,1.71a3.7,3.7,0,0,1-.28.28c-.17.12-.36.09-.56-.13a2,2,0,0,1-.48-1.17,6.47,6.47,0,0,1,1.47-4.64,11,11,0,0,1,3.78-3,10.74,10.74,0,0,1,2.93-1c.27,0,.54-.05.81-.08l.4,0,.31,0c.06,0,0,0,.08,0a.08.08,0,0,1,0,0Z"/><path class="cls-1" d="M167.4,179.18c-1.15,8.12-13.8,8.14-13.8,8.14l-2.1-6.63s9.11,1.85,14.51-5.94Z"/><path class="cls-1" d="M367.63,185.72c-8.08,2.19-14.44-8.08-14.44-8.08L350,183.85s6,10.71,15.15,7.8Z"/><path class="cls-1" d="M181.66,141.1a21.49,21.49,0,0,1-1.89-15c2.28-8.81,8.89-16.25,8.89-16.25l-9.85,3S161.24,128,173.24,144.5Z"/><path class="cls-1" d="M215,132a22.16,22.16,0,0,1-2.77-14.62c1.62-8.76,7.59-16.23,7.59-16.23l-11.42,2.29s-13,17.41-3.1,30.17Z"/><path class="cls-1" d="M246.72,132c-9.36-14.62,8.59-33.62,8.59-33.62l-12.88.07S226,113,235,132.55Z"/><path class="cls-1" d="M285.47,132.34c-8.51-10.21,7.2-29.91,7.2-29.91l-10.49-1.27s-16.7,25.59-1.94,30.26Z"/><path class="cls-1" d="M315.89,141.43c-8.77-9.11,11.34-28.21,11.34-28.21L318.81,110a50.88,50.88,0,0,0-7.85,8.41c-4.92,6.92-9,16.82-1.6,21.12Z"/><path class="cls-1" d="M349.86,146.15c-6.17-6,9-24.34,9-24.34l-7.44-2.42c-.84.63-18.31,21.79-6.31,26.58Z"/><path class="cls-1" d="M150.33,158.91a11.89,11.89,0,0,0,2.46-1.9,6.23,6.23,0,0,0,.72-.89,13.92,13.92,0,0,0,2.14-3.52,12.69,12.69,0,0,0,.51-1.8,10,10,0,0,1,.49-2.36c.21-.48,1.89.39,1.72,1.4a13.17,13.17,0,0,1-1.85,5,10.5,10.5,0,0,0-.86,1.4c-.31.46-.63.92-1,1.36s-.82.9-1.28,1.31A13.6,13.6,0,0,1,152,160a19.33,19.33,0,0,1-1.91,1.11c-1,.47-2,.85-3,1.23-.78.3-1.5.68-2.22,1-.16.08-.3.17-.46.24-.57.27-.77.25-1.13-.15a3,3,0,0,1-.24-.26c-.24-.31-.13-.71.31-1a20.68,20.68,0,0,1,4.12-1.93,19.44,19.44,0,0,0,2.87-1.37Z"/><path class="cls-1" d="M156.64,142.51a5.73,5.73,0,0,1-.86,1.4,5.07,5.07,0,0,1-.35.46,7,7,0,0,1-1.32.93c-.28,0-.52.21-.81.1a3,3,0,0,1-.92-.55c-.42-.36-.69-.48-.75-.85s1.48-1.24,1.73-1l.13.14h0a.1.1,0,0,0,0,0,.28.28,0,0,0,.1.25l0,0c.07.06.14,0,.2,0l.31-.34a4.09,4.09,0,0,0,.65-.88,3,3,0,0,0,.26-.65,2.42,2.42,0,0,0,.09-1.07,2,2,0,0,0-.4-.74l-.11-.15c-.11-.19,0-.3.41-.55l.3-.17a.78.78,0,0,1,.86,0,2.68,2.68,0,0,1,.81,2,4.8,4.8,0,0,1-.3,1.68Z"/><path class="cls-1" d="M151.23,147.34a2,2,0,0,1-1.48.37,1.63,1.63,0,0,1-.53-.12,2.5,2.5,0,0,1-.76-.6,1.78,1.78,0,0,1-.24-.33,2.19,2.19,0,0,1-.17-.29,2.56,2.56,0,0,0-.36-.44c-.17-.17-.41-.3-.36-.6s1.68-1,1.8-.79a1.84,1.84,0,0,1,.4,1c0,.17.09.17.16.23a.38.38,0,0,0,.35.08.44.44,0,0,0,.24-.13,1.55,1.55,0,0,0,.36-.56,1.68,1.68,0,0,0,0-.63s0-.09,0-.14.15-.17.64-.07l.34.07a1.08,1.08,0,0,1,.73.41,1.63,1.63,0,0,1-.13,1.41l-.13.25a3.05,3.05,0,0,1-.22.32,3.88,3.88,0,0,1-.57.58Z"/><path class="cls-1" d="M148.18,148.2a2.64,2.64,0,0,1-1,1,2,2,0,0,1-.4.23,1.84,1.84,0,0,1-1.5-.31l-.55-.34a2.9,2.9,0,0,1-.36-.25.4.4,0,0,1-.14-.35,7.22,7.22,0,0,1,1.69-1s-.08,0,0,.35.15.08.22.08a.46.46,0,0,0,.29-.11.64.64,0,0,0,.18-.24,1.24,1.24,0,0,0,.18-.58,1.33,1.33,0,0,0-.19-.51.6.6,0,0,1-.06-.11c0-.13.1-.17.6-.2l.34,0a1.16,1.16,0,0,1,.81.17,1.37,1.37,0,0,1,.28,1.22,3.75,3.75,0,0,1-.38,1Z"/><path class="cls-1" d="M143.84,151.2a2.65,2.65,0,0,1-1.16-.38,1.37,1.37,0,0,1-.32-.16,3.66,3.66,0,0,1-.72-.89,1.39,1.39,0,0,0-.32-.32c-.16-.12-.38-.21-.32-.48a5.92,5.92,0,0,1,1.72-.93,1.06,1.06,0,0,1,.26.71c0,.22.19.23.29.32a1.17,1.17,0,0,0,.27.24.42.42,0,0,0,.21.08.33.33,0,0,0,.32-.14c0-.09,0-.24-.09-.33s0,0,0-.07.11,0,.6,0l.34.05c.38.06.68.19.75.37a1.4,1.4,0,0,1-.55,1.55,2,2,0,0,1-1.24.4Z"/><path class="cls-1" d="M102.68,139.11c-4,3-7.77,8.57-6.86,13.75.13.75,2.46.2,2.31-.62-.83-4.8,2.73-10,6.4-12.78,1-.78-1.28-.78-1.85-.35Z"/><path class="cls-1" d="M110.41,147.66c-5.87,2.24-9.7,10.28-7.65,16.25.27.79,2.58.13,2.32-.62-1.73-5,1.08-12.74,6.24-14.7,1.52-.58.14-1.32-.91-.93Z"/><path class="cls-1" d="M401.59,136.59c4.15,3.27,4.32,8.36,4.33,13.25,0,1,2.32.56,2.32-.27,0-5.1-.17-10.49-4.51-13.91-.68-.54-2.84.39-2.14.93Z"/><path class="cls-1" d="M409.19,134.45c8.24,1.45,4.38,14.9,3.06,20.17-.16.64,2.13.3,2.29-.36,1.51-6,5.22-19.27-3.88-20.88-.59-.1-2.69.86-1.47,1.07Z"/></g></svg>