<svg id="Layer_1" data-name="Layer 1" xmlns="http://www.w3.org/2000/svg" width="520" height="520" viewBox="0 0 520 520"><defs><style>.cls-1,.cls-3{fill:none;stroke:#221f1f;stroke-linecap:round;stroke-linejoin:round;}.cls-1{stroke-width:3px;}.cls-2{fill:#221f1f;}.cls-3{stroke-width:2.22px;}</style></defs><title>Notioly v2</title><g id="_15.Social_distancing" data-name="15.Social distancing"><path class="cls-1" d="M91.41,238.4c.47-6.74.75-11.14.2-16"/><path class="cls-2" d="M94.06,213a1.35,1.35,0,0,1-.67.76c-.11.06-.32,0-.31-.15a2.91,2.91,0,0,1,.11-.71,5.22,5.22,0,0,1,.65-1.21,7.61,7.61,0,0,1,1.25-1.4A8,8,0,0,1,97,209.09a16.69,16.69,0,0,1,4.32-1.17,8.11,8.11,0,0,1,1-.09l3.33-.13a2.55,2.55,0,0,0,.55,0,32.2,32.2,0,0,1,3.66.05c1,.11,1.9.19,2.84.26a1.75,1.75,0,0,1,.4,0,2.27,2.27,0,0,0,.86.08,6.48,6.48,0,0,0,1.12-.1c.16-.05.28-.06.34-.12s.2-.07.21,0,.1.08.17.05,0,0,.06,0a.65.65,0,0,1-.31.5,2.58,2.58,0,0,1-.92.37,8.53,8.53,0,0,1-1.45.2c-.08,0-3.52,0-3.9,0-.2,0-.41,0-.61,0s-2.82,0-2.92,0a15.69,15.69,0,0,1-1.68,0,1.82,1.82,0,0,0-.33,0c-1,.07-1.91.14-2.85.28a13.82,13.82,0,0,0-1.42.31l-.25,0-.32.07a8.91,8.91,0,0,0-3,1.46c-.09.07-.39.28-.67.52a3.31,3.31,0,0,0-.61.64C94.53,212.47,94.1,212.84,94.06,213Z"/><path class="cls-2" d="M369.33,196.88a2,2,0,0,1-1.28-.66.81.81,0,0,1,.34-1.17c.19-.12.33.09.23.26s-.11.29,0,.4.17.12.36.18a4.65,4.65,0,0,0,.83.22,17.91,17.91,0,0,0,1.87.21l3.9.22c.81.05,1.62.12,2.43.25a8.84,8.84,0,0,1,2.51.72,3.38,3.38,0,0,1,.62.42l.47.41c.33.27.62.55.92.83.61.56,1.19,1.14,1.78,1.7q1.74,1.73,3.43,3.48c.51.52,1,1.05,1.48,1.59,1.66,1.84,3.35,3.65,5,5.46.28.3.56.62.86.89.5.43,5,5.42,5.56,6.1l4.14,5a9,9,0,0,1,.57.72,15.15,15.15,0,0,0,1.22,1.58c.59.72,1.17,1.44,1.73,2.18.28.36.52.75.77,1.13s0,.26-.13.16c-.3-.3-.14,0-.16.08s0,0,0,0l-.17-.18-.42-.45-1.29-1.41c-1-1.06-2-2.14-2.14-2.34L402,221.82l-3.13-3.46c-.32-.33-.61-.7-.91-1.05-.13-.17-4.38-4.7-4.56-4.88-.86-1-1.77-1.87-2.58-2.87-.16-.19-.34-.38-.52-.57l-4.56-4.81c-.77-.82-1.58-1.61-2.38-2.4l-.42-.44-.54-.55-1.45-1.36c-.25-.2-.5-.44-.73-.63a3.2,3.2,0,0,0-.74-.38,15.57,15.57,0,0,0-3.81-.66l-4.25-.44A19.45,19.45,0,0,1,369.33,196.88Z"/><path class="cls-2" d="M411.61,406.5c-.88,3.72,7.65,52.58-2,60.85-3,2.58-20.53,9.84-22.6,15.25,2.07,3.53,26.08-4.6,30.58-8.5.68,2.1-.15,4.46,0,6.85.08,1.45,2.69.2,4.08.14-.67-4.09,3.49-72.23,3.38-75C422.44,407.45,411.59,406.78,411.61,406.5Z"/><path class="cls-2" d="M423.12,478.83c0,.47.06,2.29.09,3.61a18.18,18.18,0,0,0-2.42.3c-.53.11-.71.19-1.64.33a3,3,0,0,1-2-.36,1.77,1.77,0,0,1-.67-.74,1.24,1.24,0,0,1-.16-.48,4.19,4.19,0,0,1-.11-.51v-1.44l.08-.91.16-1.61a2.11,2.11,0,0,0,0-.25.68.68,0,0,0,0-.14.13.13,0,0,0,0-.06l0,0-.16.1-.37.2c-.76.4-1.53.78-2.3,1.13q-2.31,1.05-4.66,1.93a96.61,96.61,0,0,1-9.55,3.09,62.24,62.24,0,0,1-6.18,1.37,21.48,21.48,0,0,1-3.27.3h-.43l-.65-.07c-.22,0-.45,0-.66-.09l-.61-.18a1.58,1.58,0,0,1-.54-.25,1.74,1.74,0,0,1-.47-.31,10.37,10.37,0,0,1-.75-.84l-.14-.26a11,11,0,0,1,1.05-1.93,6.26,6.26,0,0,1,.72-.91c.17-.19.34-.36.52-.54a22.13,22.13,0,0,1,2.19-1.85,52,52,0,0,1,4.65-3c3.16-1.86,6.4-3.5,9.59-5.18L406.7,468a18.2,18.2,0,0,0,2.16-1.34,9,9,0,0,0,2.54-4.09,41.13,41.13,0,0,0,1.81-10.4,139.93,139.93,0,0,0-.35-19.21c-.3-4.09-.73-8.18-1.15-12.28s-.88-8.16-1-12.35a5.25,5.25,0,0,1,.14-1.49c.12-.36.25-.49.36-.44s.22.27.34.57.28.72.46,1.25a53.89,53.89,0,0,1,2.18,10.71c.84,8.37,1.58,16.79,1.64,25.29a89.47,89.47,0,0,1-.74,12.83,33,33,0,0,1-1.56,6.42,12.07,12.07,0,0,1-.67,1.58,10,10,0,0,1-.9,1.54c-.18.24-.33.5-.54.73l-.66.68a4.93,4.93,0,0,1-.73.63c-.25.16-.49.33-.73.47-1.93,1.16-3.83,2.09-5.75,3.1s-3.83,2-5.7,3.07-3.73,2.18-5.47,3.41a25,25,0,0,0-2.45,1.95c-.2.17-.36.35-.54.53a3.08,3.08,0,0,0-.25.27l-.1.11a2.09,2.09,0,0,0-.29.44c-.06.06,0,.11,0,.16a.75.75,0,0,0,.17.1,1.35,1.35,0,0,0,.4.08,8.31,8.31,0,0,0,.87,0c.39,0,.77,0,1.16-.08A45,45,0,0,0,398,481c2.18-.56,4.35-1.22,6.5-1.94s4.27-1.52,6.35-2.39c1-.44,2.07-.9,3.07-1.4l.74-.38.41-.23.59-.34,1.18-.82,1.19-.9.23.22c.06.16.11.38.16.57q.15.56.27,1.11a8.81,8.81,0,0,1,.12,2.49l-.08.94-.09.83a12.79,12.79,0,0,0-.09,1.33v.06c0,.17,0,.41.18.49a.94.94,0,0,0,.55,0c.08,0,.61-.12.94-.2a3.39,3.39,0,0,1,.57-.09c.06-.1,0-.32,0-.47v-.72l0-2,.14-4,.36-8c.56-10.61,1.13-21.26,1.69-31.79.41-8.18.7-16.22,1-24.3l0-.78v-.59c0-.06,0-.25-.09-.15l-.35.12-.18,0-.39.06a33,33,0,0,1-7.23.08,7.9,7.9,0,0,1-3.14-.83,3.19,3.19,0,0,1-.87-.57.17.17,0,0,1,0-.05c.05,0,0,.1,0,.09s-.07,0,0,0a.09.09,0,0,0,.06-.11s0-.09.06-.17l0,0s.05-.05.1-.07a6.45,6.45,0,0,1,1.24-.16c1.2-.08,3.08-.12,5.48-.2,1,0,2-.1,3-.21l.74-.09.37-.06.51-.09a16.94,16.94,0,0,0,3.14-1.19,2.13,2.13,0,0,1,0,.39v1.56c0,.7,0,1.4,0,2.12s-.05,1.64-.07,2.46c-.06,1.59-.11,3.18-.17,4.78q-.19,4.79-.41,9.65c-.33,6.48-.66,13-1,19.61-.3,5.68-.59,11.38-.89,17.07s-.58,11.42-.67,17.05Z"/><path class="cls-2" d="M436.64,403.51c-.87,3.72,7.61,55.57-2,63.84-3,2.58-20.52,9.84-22.59,15.25,2.07,3.53,26.07-4.6,30.57-8.5.68,2.1-.14,4.46,0,6.85.08,1.45,2.7.2,4.08.14-.67-4.09,3.5-76.34,3.39-79.07C447.44,403.35,438.53,403.23,436.64,403.51Z"/><path class="cls-2" d="M448.13,477.51l0,1.81V480l0,.82c0,.55.05,1.11.05,1.65l-1.48.13c-.25,0-.47.08-.7.12l-.52.11-.37.08-.19,0-.32.06a5.07,5.07,0,0,1-1.33.1,2.4,2.4,0,0,1-1.16-.36,2,2,0,0,1-.77-.91,3.92,3.92,0,0,1-.2-1.26c0-.23,0-.46,0-.69l0-.44c0-.53.09-1,.15-1.52l.09-.95a1.77,1.77,0,0,0,0-.23c0-.05,0-.22-.08-.13l-.16.1-.35.19c-.75.4-1.51.77-2.27,1.12-1.51.7-3.05,1.32-4.59,1.91a97.67,97.67,0,0,1-9.42,3.07,63.92,63.92,0,0,1-6.37,1.43,22.93,22.93,0,0,1-3.37.31h-.46l-.69-.08a5.28,5.28,0,0,1-1.29-.29,3.67,3.67,0,0,1-1.72-1.5l-.06-.12a11.19,11.19,0,0,1,1.1-2,5.34,5.34,0,0,1,.35-.48l.38-.42c.17-.2.35-.37.53-.55a24.94,24.94,0,0,1,2.28-1.9c1.57-1.14,3.18-2.15,4.82-3.11,3.27-1.91,6.64-3.6,9.93-5.33.82-.44,1.64-.88,2.42-1.33.39-.23.78-.47,1.12-.71a4.1,4.1,0,0,0,.88-.78,12,12,0,0,0,2.27-4.58,50.29,50.29,0,0,0,1.58-10.88,164,164,0,0,0-.42-19.83c-.3-4.22-.72-8.45-1.12-12.67s-.86-8.44-1-12.75a5.16,5.16,0,0,1,.14-1.53c.12-.37.25-.5.36-.45s.22.27.33.58a13.16,13.16,0,0,1,.47,1.29,56.57,56.57,0,0,1,2.15,11.07c.82,8.64,1.54,17.32,1.63,26.08a100.92,100.92,0,0,1-.63,13.2,38.06,38.06,0,0,1-1.32,6.64,18.5,18.5,0,0,1-1.32,3.27,12.07,12.07,0,0,1-1,1.56,7.4,7.4,0,0,1-.66.72,5.1,5.1,0,0,1-.72.67,28.18,28.18,0,0,1-3,1.8l-3,1.57c-2,1-4,2.08-5.92,3.17s-3.88,2.25-5.69,3.51a27.36,27.36,0,0,0-2.56,2c-.21.18-.39.37-.57.55s-.38.41-.4.42a2.43,2.43,0,0,0-.3.46c-.06.06,0,.11,0,.16a.46.46,0,0,0,.18.1,1.7,1.7,0,0,0,.39.09h.89c.38,0,.77,0,1.16-.09A44.61,44.61,0,0,0,423,481c2.19-.56,4.36-1.22,6.5-1.94s4.27-1.52,6.35-2.39c1-.45,2.06-.91,3.06-1.41l.74-.38.41-.22.59-.34,1.18-.83,1.2-.9c.08.1.18.13.26.3l.18.67c.11.45.21.86.28,1.32a7.48,7.48,0,0,1,.09,1.44l0,.77,0,.54c-.07.67-.15,1.3-.19,1.92,0,.38,0,.43,0,.6s0,.31.08.42a.56.56,0,0,0,.42.11,2.63,2.63,0,0,0,.48-.07l.79-.18a3.5,3.5,0,0,1,.45-.07c.07-.11,0-.36,0-.53V479l0-2.23.15-4.45.39-8.88c.56-10.94,1.11-21.94,1.66-32.8.4-8.44.68-16.73,1-25.07,0-1.54.08-1.71,0-2a2.35,2.35,0,0,1-.6.2l-.52.09c-.21,0-.42.08-.62.1-.41.05-.79.11-1.16.14-.74.08-1.4.13-2,.16-1.21.07-2.18.08-3,.06a9.77,9.77,0,0,1-3.27-.49c-.34-.12-.79-.24-1-.35-.39-.2.17-.53,1.42-.77s3.2-.43,5.67-.68c1-.1,2-.21,2.92-.37l.71-.13.39-.08.67-.19.67-.2.74-.3,1.46-.6,0,.2v1.88c0,.73,0,1.46,0,2.2l-.06,2.48c-.05,1.64-.1,3.3-.16,5-.13,3.33-.27,6.68-.4,10.06-.32,6.74-.65,13.57-1,20.41-.55,11.72-1.25,23.53-1.56,35.23Z"/><path class="cls-2" d="M421.31,164c.39.53.5.6.5.65a2.13,2.13,0,0,0,.06.42,1.53,1.53,0,0,0,.05.34s0,0,0,0h0a.45.45,0,0,0-.07.07l-.06.09,0,.06v0s0-.09-.06-.11l-.11-.14s0-.06,0-.08l1,.59-.05.06a2.73,2.73,0,0,0-.23.25c-.08.07-.08.21-.2.25s0,0-.09,0a.91.91,0,0,1-.37-.29s-.07-.07-.07-.08-.22-.38-.16-.43.12-.28.18-.41l0,0,1.07.66a.91.91,0,0,1-.11.16,1.61,1.61,0,0,1-.36.28,1.32,1.32,0,0,1-.38.14.83.83,0,0,1-.65-.21,1.52,1.52,0,0,1-.47-.93,1.9,1.9,0,0,1,.07-.9,1.22,1.22,0,0,1,.23-.42A.78.78,0,0,1,421.31,164Z"/><path class="cls-2" d="M423.38,169.6c.48.38.58.47.57.52,0,.25,0,.41,0,.52s-.07.27-.08.41a1,1,0,0,0,.15.53.12.12,0,0,0,.07.07l.1,0s0,0,0,0a4,4,0,0,1-.23.63.46.46,0,0,1-.07.13c-.06,0-.33.35-.43.26s-.39-.21-.53-.38a.47.47,0,0,1-.12-.23,1.07,1.07,0,0,1,0-.31,3.52,3.52,0,0,1,0-1.17,2.68,2.68,0,0,1,.35-.92S423.29,169.61,423.38,169.6Z"/><path class="cls-2" d="M430.41,168.47c.53.35.64.4.64.48,0,.24,0,.49,0,.73s-.07.41-.06.61a1.8,1.8,0,0,0,.06.48,1.07,1.07,0,0,0,.06.17c0,.08.11,0,0,.1s-.1.12-.08.1,0,0,0-.09,0-.2,0-.16l0-.06s0,0,0,0a4,4,0,0,1,.32.61l.05.15c-.08,0,0,.51-.18.54a1.28,1.28,0,0,1-1.1-.24,1,1,0,0,1-.21-.34,2.75,2.75,0,0,1,0-.4c0-.08,0-.29,0-.55a6.11,6.11,0,0,1,0-.84,4.56,4.56,0,0,1,.25-1.16A.61.61,0,0,1,430.41,168.47Z"/><path class="cls-2" d="M437,161c.54.42.69.43.7.5s.07.38.09.58,0,.35,0,.53a1.58,1.58,0,0,0,.22.68s0,0,0,0-.08.07-.11.14,0,0,0,0a.41.41,0,0,0,0-.13.08.08,0,0,0,0-.05,1.68,1.68,0,0,1,.06.19c0,.13.08.28.1.41a.43.43,0,0,1,0,.15c-.07,0-.15.53-.37.47a1.74,1.74,0,0,1-.83-.45.55.55,0,0,1-.14-.26c0-.11,0-.23,0-.33a6.79,6.79,0,0,1-.11-1.24,4,4,0,0,1,.07-.73,1.36,1.36,0,0,1,.11-.38A.53.53,0,0,1,437,161Z"/><path class="cls-2" d="M97.34,372.84c-1.8.19-3.61.32-5.4.44-.66,0-1.31.16-2,.19-2.31.06-4.62,0-6.91,0-1,0-2,0-3,.13a16.48,16.48,0,0,1-3.74.18c-.37-.05-.5-.77-.27-1.53a2.33,2.33,0,0,1,1.63-1.69,33.82,33.82,0,0,1,7.91-.16,27.48,27.48,0,0,0,4.79-.25c1.76-.12,3.51-.25,5.26-.46,1.08-.1,2.15-.27,3.22-.43a37.06,37.06,0,0,0,4.78-1.06,25.63,25.63,0,0,0,3.42-1.53c.24-.13.46-.29.71-.4.92-.42,1.3-.32,1.86.46.13.18.27.35.38.53a1.3,1.3,0,0,1-.47,1.8,15.42,15.42,0,0,1-1.54,1c-.54.27-1.1.52-1.67.76a28.4,28.4,0,0,1-3.53,1.12c-.9.22-1.8.39-2.71.56l-2.72.44Z"/><path class="cls-2" d="M76.2,427.86l-.5-14.74-.25-5.37c-.21-6.32-.38-12.63-.64-18.95-.11-2.8-.32-5.61-.52-8.38-.31-3.53-.67-7.18-.87-10.59-.06-1,.55-1.11,1.28-.27a8.67,8.67,0,0,1,1.69,4.67c.61,7.32.88,14.6,1,22,0,4.41.38,9,.56,13.48l.55,14.85c.11,3,.23,6.09.34,9.13.2,4.61.36,9.25.64,13.82.23,3.55.58,7,.92,10.52.08.77.16,1.53.23,2.3a17.9,17.9,0,0,1,.13,3.05,2.39,2.39,0,0,1-.46,1.36,6.08,6.08,0,0,1-.36.53c-.21.22-.46.07-.73-.46a6.41,6.41,0,0,1-.4-1.08c-.1-.4-.19-.86-.27-1.4-.93-6.29-1.32-12.91-1.68-19.57-.23-4.94-.45-9.91-.67-14.87Z"/><path class="cls-2" d="M84,428.18l1.16-14.54.32-5.32,1.43-18.72c.2-2.77.33-5.56.46-8.31a80.92,80.92,0,0,1,.82-10.69c.23-1.16.8-.81,1.29.19a9.72,9.72,0,0,1,.79,4.72c-.43,7.19-.92,14.4-1.66,21.66-.44,4.34-.59,8.87-.9,13.32l-1.1,14.68-.72,9c-.39,4.56-.78,9.14-1.17,13.66-.28,3.52-.46,7-.79,10.48-.08.77-.15,1.52-.22,2.3-.37,2.87-.78,3.77-1.49,4.25a2.45,2.45,0,0,1-.5.3c-.53.16-.73-1.06-.51-3.11.51-6.2,1-12.7,1.57-19.23.38-4.88.77-9.78,1.16-14.66Z"/><path class="cls-2" d="M105.2,427.63l.8-14.42.23-5.27,1.15-18.54c.17-2.75.3-5.51.39-8.24a69.66,69.66,0,0,1,.86-10.59c.24-1.14.81-.78,1.28.22a9.24,9.24,0,0,1,.6,1.93,9.94,9.94,0,0,1,.15,2.72c-.44,7.1-.83,14.24-1.48,21.42-.39,4.3-.46,8.79-.69,13.19l-.76,14.53c-.15,3-.31,6-.46,8.95-.22,4.52-.47,9.05-.64,13.54-.12,3.49-.1,6.91-.2,10.37,0,.76,0,1.51,0,2.27a17.74,17.74,0,0,1-.35,3,2.1,2.1,0,0,1-.81,1.32,1.61,1.61,0,0,1-.48.28c-.25.05-.44-.24-.56-.73a6.17,6.17,0,0,1-.12-.9c0-.4-.06-.86-.06-1.37,0-6.13.18-12.63.46-19.15.22-4.84.45-9.7.67-14.55Z"/><path class="cls-2" d="M98.37,426.62l-.72-14.43-.33-5.25-.84-18.55c-.14-2.74-.34-5.49-.58-8.2-.3-3.47-.7-7-.84-10.4,0-1,.57-1.07,1.29-.23A8.48,8.48,0,0,1,98,374.12c.6,7.15,1,14.28,1.09,21.49.08,4.32.48,8.79.71,13.19l.78,14.52.51,8.93c.28,4.51.54,9,1,13.5.3,3.47.77,6.86,1.22,10.27.1.74.2,1.48.31,2.23.36,2.8.34,3.69-.23,4.39a3.1,3.1,0,0,1-.38.46c-.46.35-1-.74-1.42-2.81a186.38,186.38,0,0,1-2.25-19.11c-.37-4.84-.66-9.7-1-14.55Z"/><path class="cls-2" d="M100.44,130.24a20,20,0,0,1-2.12,4.34,12.19,12.19,0,0,1-3.54,3.58A11.15,11.15,0,0,1,90,139.81a17.59,17.59,0,0,1-4.82-.15,21.39,21.39,0,0,1-6.6-2.1,37.28,37.28,0,0,1-9.37-7.29,83.75,83.75,0,0,1-7.4-9.05c-2-2.79-4-5.64-5.86-8.46-2.43-3.63-4.87-7.26-7.09-11-1.42-2.32,2.51-.84,5.25,3.42,4.86,7.47,9.43,15,15.13,21.75A38.4,38.4,0,0,0,75,132.48a25.87,25.87,0,0,0,6.85,3.91,17.37,17.37,0,0,0,8.35,1.05,8.33,8.33,0,0,0,3.73-1.51,10.3,10.3,0,0,0,2.74-3.08,28.84,28.84,0,0,0,3.2-10.25,101.16,101.16,0,0,0,.86-16.69c-.1-4.33-.47-8.56-.87-12.81-.09-.94-.19-1.86-.28-2.8-.31-3.51-.26-4.64.32-5.45a3.15,3.15,0,0,1,.39-.54c.47-.38,1,1,1.36,3.59a157.3,157.3,0,0,1,1.45,24,91.84,91.84,0,0,1-.6,9.19,44.5,44.5,0,0,1-2,9.19Z"/><path class="cls-2" d="M44,113.12a11.71,11.71,0,0,1-.77-.92,6.26,6.26,0,0,1-.63-1.13,4.94,4.94,0,0,1-.37-1.26,4.73,4.73,0,0,1-.06-1.3,4.79,4.79,0,0,1,.45-1.83,5.2,5.2,0,0,1,2.25-2.27,5.88,5.88,0,0,1,3-.61,10.79,10.79,0,0,1,2.5.4,11.44,11.44,0,0,1,1.49.52,4.5,4.5,0,0,1,1.26.91c.22.24-.19.72-.73,1.08s-1.21.66-1.61.41-.74-.34-1.11-.48a7.54,7.54,0,0,0-1.09-.33,4.71,4.71,0,0,0-2.14-.08A2.47,2.47,0,0,0,44.58,108a3.1,3.1,0,0,0,.5,2.83,5.46,5.46,0,0,0,1.55,1.41,6.22,6.22,0,0,0,3.24.71c.93,0,1.89-.19,2.94-.15a5.63,5.63,0,0,1,.71,0c.88.16,1.1.48,1,1.12,0,.14,0,.3-.06.44a1,1,0,0,1-1,.74,43.68,43.68,0,0,1-5.06.1,7.29,7.29,0,0,1-4.46-2.06Z"/><path class="cls-2" d="M109.32,87.55a7.84,7.84,0,0,1,2.23,4.07,5.77,5.77,0,0,1,.16,1.78,4.32,4.32,0,0,1-.17.84l-.16.42c-.06.12-.11.21-.17.31a9.38,9.38,0,0,1-.73,1.2A6,6,0,0,1,108.25,98a7.72,7.72,0,0,0-1.77,1.07c-.58.53-.88,1.25-1.5,1.89-.2.19-.75-.09-1.16-.6a1.55,1.55,0,0,1-.3-1.81,6.62,6.62,0,0,1,2.74-2.27,7.39,7.39,0,0,0,2-1.07,3.14,3.14,0,0,0,.83-1.2,2.06,2.06,0,0,0,.2-.57,5.87,5.87,0,0,0,0-.62,5.41,5.41,0,0,0-1.12-3,4,4,0,0,0-1.5-1.23,2.67,2.67,0,0,0-2.73.4,5.64,5.64,0,0,0-1.44,2c-.09.16-.14.35-.23.51-.33.61-.56.75-1.21.59-.15,0-.3-.06-.44-.11a.91.91,0,0,1-.53-1.22,7.43,7.43,0,0,1,1.31-2.54,5.94,5.94,0,0,1,2.72-2,4.82,4.82,0,0,1,2.84-.1,5.62,5.62,0,0,1,2.31,1.29Z"/><path class="cls-2" d="M73.17,77.37c11.65,9.81,31.64,11.71,41.23-.46,12.14-15.41,5.81-30.57-7.91-37.31C84.23,28.66,60.59,50.28,62.41,53.81,4.06,51.66,23.05,110.05,46,102.52,64.23,96.56,72.63,83.7,73.17,77.37Z"/><path class="cls-2" d="M38.92,55.79A43.6,43.6,0,0,1,50.18,53a55.32,55.32,0,0,1,5.74-.49,27.49,27.49,0,0,1,2.87-.05l1.43,0H61s.19.05.13,0,0-.07,0-.1l0,0,.11-.3a7.66,7.66,0,0,1,.61-1.18,15.76,15.76,0,0,1,1.44-1.92,30.8,30.8,0,0,1,3.28-3.19A45.08,45.08,0,0,1,74,40.59a42.07,42.07,0,0,1,14.56-5,31.94,31.94,0,0,1,13.6,1.06,29.16,29.16,0,0,1,6.27,2.74,31.6,31.6,0,0,1,5.56,4A24.26,24.26,0,0,1,121.13,55a23.28,23.28,0,0,1-.94,13.55L119,71.36c-.46.89-1,1.75-1.49,2.62s-1.14,1.65-1.7,2.48c-.31.4-.56.83-.91,1.2l-1,1.14a23,23,0,0,1-10.24,6.3,33.64,33.64,0,0,1-29.2-5.71c-2.51-2-1.7-2.18.72-1.09a75,75,0,0,0,12,4.36l1.78.42c.59.13,1.2.19,1.79.29a31.43,31.43,0,0,0,3.62.34A27.56,27.56,0,0,0,101.5,83l.88-.19c.29-.07.56-.19.85-.28l1.69-.57,1.6-.75c.27-.13.54-.25.8-.39l.74-.48a19.53,19.53,0,0,0,5.26-4.67,28,28,0,0,0,5.94-13,21.52,21.52,0,0,0-.4-7.11,21.84,21.84,0,0,0-3-6.55,24.69,24.69,0,0,0-6.28-6.2,28.4,28.4,0,0,0-8.12-3.93,31.34,31.34,0,0,0-18,.29,43.61,43.61,0,0,0-11.76,5.58,37.7,37.7,0,0,0-5.09,4.05,21.53,21.53,0,0,0-2.15,2.36,9.1,9.1,0,0,0-.83,1.26c-.13.22-.19.41-.3.62a2.07,2.07,0,0,0-.55,1,1.07,1.07,0,0,0,0,.21,1.09,1.09,0,0,1-.22.2l-.49.42-3.81,0c-1.13,0-2.24.07-3.35.12a64.15,64.15,0,0,0-6.64.71,38.88,38.88,0,0,0-11.75,4,23.62,23.62,0,0,0-8.87,8.34A24,24,0,0,0,25.29,86a26.46,26.46,0,0,0,3.78,8.55,19.59,19.59,0,0,0,6.7,6.27,12.85,12.85,0,0,0,6.75,1.53,13.81,13.81,0,0,0,3.41-.66c1.13-.44,2.27-.83,3.39-1.3A49,49,0,0,0,61.62,93a41.55,41.55,0,0,0,4.48-4.42,36.76,36.76,0,0,0,4.72-6.77c.47-.78.73-1.42,1.06-1.93a9.22,9.22,0,0,1,.77-1.32,10.29,10.29,0,0,1,.6-1.05c.16-.18.27-.12.33.2a4.94,4.94,0,0,1,0,1.65A17.46,17.46,0,0,1,71,85.86,38.57,38.57,0,0,1,61.72,96a48.92,48.92,0,0,1-12.15,6.91c-1.12.4-2.17.85-3.35,1.21l-1.87.46c-.63.12-1.28.13-1.92.19A15.48,15.48,0,0,1,35,103.07,23.48,23.48,0,0,1,25,92.22a28,28,0,0,1-1.37-21.43,24,24,0,0,1,6.05-9.21,28.54,28.54,0,0,1,9.2-5.84Z"/><path class="cls-2" d="M42,265.34a9.26,9.26,0,0,1-5.54-3.15,17.76,17.76,0,0,1-3-5.13,34.65,34.65,0,0,1-2-11.19,97.57,97.57,0,0,1,1.87-22.05,135.9,135.9,0,0,1,4-15.59,141.76,141.76,0,0,1,11.3-26c4.65-8.16,9.57-16.28,15.92-23.37A50,50,0,0,1,74,150.52a35.56,35.56,0,0,1,11.6-5.15,29.68,29.68,0,0,1,16.2,1.14,43.92,43.92,0,0,1,14,8.05c2.53,2.24,1.73,2.38-.77,1.06-.63-.33-1.4-.7-2.24-1.17s-1.8-1-2.86-1.48a78.66,78.66,0,0,0-7.27-3.32,29.19,29.19,0,0,0-15-2.09,33.18,33.18,0,0,0-14,6.21A57.78,57.78,0,0,0,62.49,165a138.51,138.51,0,0,0-9.06,13.4,137.07,137.07,0,0,0-15.62,36.35A112.8,112.8,0,0,0,34,236.2a87.83,87.83,0,0,0-.13,10.88,28.12,28.12,0,0,0,2.32,10.34,10.68,10.68,0,0,0,3.92,4.76,5.82,5.82,0,0,0,2.82.86c.53,0,1,0,1.58,0l1.58-.2a21.92,21.92,0,0,0,6.07-2.29,42.1,42.1,0,0,0,5.49-3.73,96,96,0,0,0,14.12-14.64A203.76,203.76,0,0,0,83.59,225.6c2.86-4.43,5.55-8.91,8.11-13.43l1.91-3.41.24-.44a4.26,4.26,0,0,1,.39-.53,4.34,4.34,0,0,1,1-.79,7.5,7.5,0,0,1,2-.85,31.08,31.08,0,0,1,8-.64l4.93.15c.35,0,.67,0,1,0a1.73,1.73,0,0,0,.45,0c.15,0,.29-.14.24-.27-.07-.36-.36-.46-.53-.57l-.52-.26a8.34,8.34,0,0,1-1-.69,4.94,4.94,0,0,1-1-.72c-.13-.18,0-.26.27-.27a6,6,0,0,1,.61,0l1.42.1a19.64,19.64,0,0,1,4.26.66,6.91,6.91,0,0,1,1.69.78,4.23,4.23,0,0,1,.66.62,2.9,2.9,0,0,1,.44,1v0a1,1,0,0,1-.2.84,1.75,1.75,0,0,1-.42.4,4.1,4.1,0,0,1-1.09.54,16.13,16.13,0,0,1-5,.28l-4.58-.18c-1.18,0-2.35-.06-3.52,0s-2.32.07-3.44.2a10.84,10.84,0,0,0-3,.72,2.43,2.43,0,0,0-.88.62,1,1,0,0,0-.11.18l-.22.4-.45.79L93.41,214a258.45,258.45,0,0,1-16.13,24.87A124.87,124.87,0,0,1,62.6,255.69a50.74,50.74,0,0,1-9.11,6.85c-.82.49-1.73.87-2.6,1.31l-1.39.53a8.13,8.13,0,0,1-1.42.46l-1.46.37-1.52.2a7.88,7.88,0,0,1-1.54.06A10.74,10.74,0,0,1,42,265.4Z"/><path class="cls-2" d="M120.54,201.62l.75-.19a.44.44,0,0,0,.2-.07.1.1,0,0,0,0-.18.42.42,0,0,0-.22-.14l-.17,0-.36-.05-.83-.11c-2-.26-4.08-.37-6.16-.49-.92,0-1.85-.06-2.78-.07a11.87,11.87,0,0,1-3.59-.38c-.37-.13-.22-.56.16-.94a2.14,2.14,0,0,1,1.6-.66c2.3.18,4.7.26,7.12.55,1.46.19,3,.14,4.51.37.23,0,.41.06.66.12l.89.23c.27.14.57.25.82.4l.33.26a3.47,3.47,0,0,1,.25.29,1.18,1.18,0,0,1,.22.74,1.26,1.26,0,0,1-.32.7,3.62,3.62,0,0,1-1.45.94l-.49.18-.39.12-.76.19c-.51.11-1,.21-1.52.29a37.76,37.76,0,0,1-4.61.41c-1.2,0-2.37.13-3.58.06-.27,0-.53,0-.8-.06-1-.14-1.29-.38-1.35-.88a1.32,1.32,0,0,1,0-.34c0-.37.46-.53,1.11-.5a50.84,50.84,0,0,0,6.15-.08,26.58,26.58,0,0,0,4.6-.71Z"/><path class="cls-2" d="M118,198.28c-.86-.24-1.75-.46-2.64-.65-.33-.07-.67-.08-1-.15l-3.5-.77a14.46,14.46,0,0,0-1.59-.22,4.55,4.55,0,0,1-2.06-.46c-.2-.12,0-.6.29-1s.7-.85,1-.78a25.52,25.52,0,0,1,4,.93,18.81,18.81,0,0,0,2.51.45c.93.17,1.86.38,2.78.6.57.14,1.14.29,1.71.46a19.13,19.13,0,0,1,2.58.94,6.73,6.73,0,0,1,1,.54,2.47,2.47,0,0,1,.94,1,1.86,1.86,0,0,1,.18.7c0,.9-.36,1-.86.93a1.46,1.46,0,0,1-.36-.09,1.25,1.25,0,0,1-.67-.69c-.15-.28-.24-.16-.54-.38a7.47,7.47,0,0,0-1.3-.58,22.88,22.88,0,0,0-2.49-.73Z"/><path class="cls-2" d="M95.46,193.42a45,45,0,0,0-10,6c-1.14.88-2.21,1.86-3.32,2.8a124.38,124.38,0,0,0-11,10.82c-1.54,1.69-3,3.47-4.45,5.24-.93,1.14-1.84,2.3-2.8,3.43a18.47,18.47,0,0,1-3.3,3.17c-1,.58-1-.15-.81-1a8,8,0,0,1,1.78-3.49A178,178,0,0,1,73.69,207c2.63-2.53,5.26-5.26,8.13-7.68a56,56,0,0,1,10.24-7,32.19,32.19,0,0,1,7.2-2.7,11.47,11.47,0,0,1,1.44-.29,11.07,11.07,0,0,1,1.5-.21,16.79,16.79,0,0,1,3,.23,55.07,55.07,0,0,1,5.63,1.17c1.43.36,2.85.73,4.26,1.18a18.39,18.39,0,0,1,4.2,1.77,4.58,4.58,0,0,1,1,.81,2.16,2.16,0,0,1,.43.9,1.63,1.63,0,0,1-.27,1.24,2.05,2.05,0,0,1-.6.59,1.87,1.87,0,0,1-.26.15l-.31.15a1.76,1.76,0,0,1-.57.14l-.41,0a5,5,0,0,1-1.14-.11,1.66,1.66,0,0,1-1.11-.73,2.2,2.2,0,0,1-.28-.48c-.17-.55.88-.71,2.38-.92.36-.05.25-.07.38-.15s0,0,0,0h0l.12.12c.12.09.09.1.15.15.24.19.33.14.18.16a.41.41,0,0,0-.16,0,.47.47,0,0,1-.18.09,1.25,1.25,0,0,0-.28.15h0c-.06,0-.08-.07-.18-.13a5.16,5.16,0,0,0-.64-.38,24.45,24.45,0,0,0-3.46-1.35,64.69,64.69,0,0,0-7.64-1.93c-1-.18-1.93-.32-2.85-.4a8.22,8.22,0,0,0-1.29,0l-.26,0-.35.06-.7.12a25.11,25.11,0,0,0-5.48,1.68Z"/><path class="cls-2" d="M92.16,225.26c-.38,8.9-.35,18.2-2.09,28.68,0-.19,8.28.76,29.71,1.54,13.16,42.71,21.48,103.75,21.48,103.75-16.47,10.21-84.06,18.45-106.84,3.89C33.1,359.6,45.16,297,60.56,255.37c0,0,21.93-22.29,23.34-27.38C83.9,228,91.06,226.35,92.16,225.26Z"/><path class="cls-2" d="M45.19,366.08a92.75,92.75,0,0,0,15.89,2.83c5.39.52,10.82.71,16.26.69A224.34,224.34,0,0,0,109.86,367a144,144,0,0,0,23.09-5.4c1.63-.56,3.25-1.17,4.8-1.88l1.15-.54c.2-.09.37-.2.55-.3l.32-.17.16-.09s0-.11,0-.16l-.12-.91c-.49-3.48-1-6.95-1.53-10.43-1.06-6.95-2.17-13.89-3.38-20.82-2.39-13.86-5.1-27.66-8.23-41.37-.67-3-1.42-6.08-2.18-9.11s-1.55-6-2.36-9.06-1.72-6-2.59-9l-.29-1-.08-.27c0-.09,0-.2-.16-.17l-1.82-.06-4.66-.18q-5.86-.22-11.73-.54l-5.88-.35L92,255l-1.06-.07c0-.27,0-.72,0-.91l-.36-.05-.35,0h-.13l-.77.63h0v0l0-.22-.12-.91c.28-1.77.37-2.5.51-3.54l.35-3q.31-3,.52-6c.27-4,.43-8.07.64-12.13.26-5,.86-4.26,1.3-.05a96.78,96.78,0,0,1-.16,21.26L92,252.36l9,.59q5.86.35,11.74.6l5.88.25,1.41.06.74,0H121l0,.09.1.35.68,2.31.82,2.84c1.15,3.79,2.11,7.61,3.13,11.43,3.89,15.3,7.07,30.79,9.83,46.4,1.72,9.67,3.39,19.54,4.94,29.5l1.14,7.47.55,3.81.22,1.57c0,.06.06.16,0,.18l-.18.1-.34.19-.69.39-1,.57c-.29.16-.59.29-.88.43a52.53,52.53,0,0,1-7.18,2.8c-2.42.8-4.88,1.44-7.33,2.06A207.58,207.58,0,0,1,92,371.34a185.37,185.37,0,0,1-33.23-.3,74.26,74.26,0,0,1-20-4.73l-2.36-1.11-1.14-.65-.59-.34a9,9,0,0,1-.8-.49c-.05-.05-.14-.08-.17-.14l0-.24-.09-.46a5.64,5.64,0,0,1,0-.89c0-.46,0-.88.06-1.33.08-.86.16-1.72.28-2.57.43-3.39,1-6.74,1.59-10.09,1.84-10.14,4-20.22,6.36-30.25s4.9-20,7.64-29.82c2.13-7.65,4.35-15.2,6.78-22.66.6-1.87,1.23-3.73,1.86-5.59l1-2.77.49-1.39.17-.46c0-.2.19-.32.32-.46l.55-.57q4.05-4.23,8-8.56c2.32-2.54,4.55-5.07,6.81-7.69,2-2.28,3.55-4.24,4.85-5.9.61-.85,1.23-1.61,1.66-2.32.21-.35.46-.69.63-1l.67-1.43,2.69-.55,1.75-.34c1-.19,1.87-.31,2.61-.4a11.57,11.57,0,0,0,1.82-.39c.27-.09.35,0,.15.25a3.92,3.92,0,0,1-1.35,1,21.46,21.46,0,0,1-2.73,1.12c-.56.2-1.18.4-1.84.61s-1.6.45-1.66.49-.05.13-.08.2l0,.11-.13.32c-.19.4-.42.74-.63,1.13-.43.78-1,1.45-1.48,2.23-2.09,2.9-4.38,5.61-6.7,8.32s-4.73,5.36-7.17,8l-3.7,4-1.87,2-.94,1c-.1.11-.05.05-.08.1l-.19.56c-1.22,3.39-2.38,6.82-3.51,10.28-4.48,13.84-8.4,28.1-11.93,42.48-2.62,10.68-5,21.45-7.17,32.26-1,5.4-2,10.84-2.77,16.24-.17,1.34-.33,2.72-.36,4v.17s0,0,.1.07c.58.31,1.12.67,1.72.95A46.11,46.11,0,0,0,45.19,366Z"/><path class="cls-2" d="M78.15,217.34A36.4,36.4,0,0,1,76,213.93c-.25-.42-.52-.82-.73-1.26A44.3,44.3,0,0,1,73.39,208c-.25-.7-.54-1.39-.84-2.07a7.86,7.86,0,0,1-.89-2.71c0-.6,2.42-.58,2.76.39.64,1.74,1.21,3.48,1.71,5.3A15.93,15.93,0,0,0,77.61,212a34.15,34.15,0,0,0,1.93,3.24,22.5,22.5,0,0,0,1.38,1.87,19.47,19.47,0,0,0,2.42,2.55c.35.29.73.54,1.1.79l1.17.66c.17.11.35.18.52.28.63.38.73.64.51,1.27,0,.14-.09.29-.15.43a.93.93,0,0,1-1.25.42,12.77,12.77,0,0,1-4.46-3,26.19,26.19,0,0,1-2.67-3.09Z"/><path class="cls-2" d="M80.34,471.36c-.1,1.46-.08,4.6,1.17,5.59,2.41,1.89,3.38-12.06-1.09-12.54-5,3.53-30.14,11.45-23.84,14C64.16,481.5,74.68,475.85,80.34,471.36Z"/><path class="cls-2" d="M56.16,474.35a36.17,36.17,0,0,1,5.41-2.85c1.8-.81,3.61-1.56,5.43-2.29,1.32-.54,2.61-1.14,3.93-1.66,1.53-.61,3-1.21,4.56-1.84.75-.32,1.49-.64,2.22-1l1.08-.52.54-.3.85-.53a3.88,3.88,0,0,1,1.84.67,3.11,3.11,0,0,1,.38.33,2,2,0,0,1,.28.31,4.46,4.46,0,0,1,.45.65,8.68,8.68,0,0,1,.93,2.7,20,20,0,0,1,.07,7,5.66,5.66,0,0,1-.91,2.4,1.7,1.7,0,0,1-1,.62,1.56,1.56,0,0,1-1.25-.25,3.21,3.21,0,0,1-1-1.2,7,7,0,0,1-.61-2.37,11.34,11.34,0,0,1,0-2.26c.12-.94.73-.73,1.3,0a11.69,11.69,0,0,1,1.53,3.17,1.5,1.5,0,0,0,.22.46s0,0,0,0h0l0,.06-.23.29,0,.05a1,1,0,0,0-.24.41s0,.21,0,.11l0,0a.58.58,0,0,0-.08-.18c-.06-.05-.2-.26-.36-.4s-.17-.1-.26-.2v0s0,0,0-.07a3.36,3.36,0,0,0,.24-.64,14.45,14.45,0,0,0,.43-3.63,14.6,14.6,0,0,0-.4-3.67,4.7,4.7,0,0,0-.59-1.44,1.86,1.86,0,0,0-.18-.24s0,0,0-.07a.29.29,0,0,0-.18-.1l-.09,0s0,0-.2.09c-1.66.83-3.3,1.53-5,2.26s-3.31,1.43-5,2.1c-3.62,1.49-7.28,2.91-10.69,4.68-.52.27-1,.56-1.52.86-.24.15-.48.31-.69.47a4.36,4.36,0,0,0-.42.32c-.19.18-.46.5-.27.78a.72.72,0,0,0,.35.27,6.28,6.28,0,0,0,.59.22l.48.16a5,5,0,0,0,.61.13,8.87,8.87,0,0,0,1.27.22c.43,0,.86.1,1.3.08l1.31,0a21.46,21.46,0,0,0,5.17-1.09,33.07,33.07,0,0,0,7.28-3.71l1.48-1c1.84-1.27,2.47-1.6,3.26-1.39a3.69,3.69,0,0,1,.53.15c.47.24,0,1.18-1.33,2.29a33.48,33.48,0,0,1-6.62,4.3,28.54,28.54,0,0,1-7.86,2.63,17,17,0,0,1-6.46-.12l-.41-.08a5.31,5.31,0,0,1-.51-.18l-1-.39a3.92,3.92,0,0,1-1.07-.5,3.18,3.18,0,0,1-.83-.93,2.45,2.45,0,0,1,.12-2.39,6.2,6.2,0,0,1,1.76-1.78Z"/><path class="cls-2" d="M104.56,469.23c.1,1.46.08,4.6-1.18,5.59-2.4,1.89-3.38-12.06,1.09-12.53,5.06,3.52,30.14,11.44,23.85,14C120.73,479.37,110.22,473.72,104.56,469.23Z"/><path class="cls-2" d="M127,474.65a33.54,33.54,0,0,0-4.81-2.79c-1.71-.86-3.47-1.67-5.24-2.47L113,467.72c-1.51-.68-3-1.37-4.51-2.09-.75-.37-1.5-.74-2.25-1.13l-1.12-.62-.52-.32-.2-.15c-.34,0-.61.13-1,.77a6.92,6.92,0,0,0-.82,2.1,15,15,0,0,0,0,6.26,4.07,4.07,0,0,0,.6,1.53l0,0h0a.19.19,0,0,1-.06.07c-.08.07-.14.28-.14.25s0,.05,0,0a.37.37,0,0,0,0-.12l0,0,0-.12a1.34,1.34,0,0,0-.06-.12s0,0,0,0a1.59,1.59,0,0,0,.31-.46,12.63,12.63,0,0,0,.64-3.71c0-.83.66-.8,1.3-.06a4.77,4.77,0,0,1,0,5.64,3.32,3.32,0,0,1-.7.71,2.41,2.41,0,0,1-.68.35,2.18,2.18,0,0,1-1,.1,4.21,4.21,0,0,1-.51-.12c-.13-.06-.25-.13-.37-.2a2,2,0,0,1-.54-.45,2.57,2.57,0,0,1-.33-.41,4,4,0,0,1-.22-.37,7.26,7.26,0,0,1-.49-1.29,16.1,16.1,0,0,1-.44-4.57,15.5,15.5,0,0,1,.76-4.5,7.38,7.38,0,0,1,1.21-2.27,3.76,3.76,0,0,1,.52-.54,3.13,3.13,0,0,1,.79-.53,5.15,5.15,0,0,1,1.73-.45l.61.44.51.34a33.74,33.74,0,0,0,4.61,2.36l4.91,2.13c3.59,1.59,7.21,3.15,10.71,5.11.54.31,1.07.63,1.6,1,.27.18.52.36.79.57a7.91,7.91,0,0,1,.94.86,3,3,0,0,1,.62,1.08A1.46,1.46,0,0,1,130,476a2.28,2.28,0,0,1-.89.82,7.2,7.2,0,0,1-1.08.41c-4,1.33-7.8.52-11.36-.55a44.56,44.56,0,0,1-7.88-3.33c-.55-.31-1.1-.58-1.63-.93-2-1.26-2.47-1.89-2.47-2.69a2,2,0,0,1,0-.55c.14-.53,1.1-.25,2.52.57a62,62,0,0,0,6.61,3.35,31.81,31.81,0,0,0,7.07,2.21,14.63,14.63,0,0,0,5.24,0l.32-.06a.74.74,0,0,0,.19,0l.33-.1.26-.08s0,0,0-.05.1.05-.27-.23Z"/><path class="cls-2" d="M84.54,108.35c-.27,0-.42-.19-.53-.59,0-.12,0-.47.12-.5a2.46,2.46,0,0,1,.51-.15,13.67,13.67,0,0,1,2.09.37,7.16,7.16,0,0,1,1.4.52,10.11,10.11,0,0,1,2.7,1.73,3,3,0,0,1,.5.64,6.27,6.27,0,0,1,.32.69,3.22,3.22,0,0,1,.18.79,2.4,2.4,0,0,1,0,.8,3,3,0,0,1-.08.43l-.18.41c-.08.19-.23.32-.31.5a2.8,2.8,0,0,1-1.41,1,4.3,4.3,0,0,1-1.48.24,10.14,10.14,0,0,1-2.1-.39.46.46,0,0,1-.28-.11c-.17-.2-.38-.21-.58-.29a3.52,3.52,0,0,1-.81-.38,1.25,1.25,0,0,1-.31-.37c-.08-.12.09-.27.14-.28s.11-.15.15-.23l0-.09s.39,0,.78.06.79,0,.86,0,.14,0,.35,0a7.3,7.3,0,0,0,1.93-.08.73.73,0,0,1,.33,0,2.55,2.55,0,0,0,.65-.27c.23-.18.28-.3.28-.31s0-.08,0-.15,0-.14.1-.25a.13.13,0,0,0,0-.12,3,3,0,0,0-.76-1.09,5.46,5.46,0,0,0-.72-.51,1.31,1.31,0,0,1-.12-.11l-.17-.14a9.81,9.81,0,0,0-2-.94c-.16,0-.89-.47-1.09-.5S84.65,108.33,84.54,108.35Z"/><path class="cls-2" d="M83.25,124.93c-.25,0-.22-.33,0-.77a1.78,1.78,0,0,1,.48-.5,1.89,1.89,0,0,1,.43-.1s.24.09.48.15a5.55,5.55,0,0,0,.64.14A3.28,3.28,0,0,1,86,124a3.76,3.76,0,0,0,1.45.1.74.74,0,0,1,.33,0,1.37,1.37,0,0,0,.57,0,2.31,2.31,0,0,0,.51-.22s.11-.06.12-.16.22-.22.39-.4.32-.36.4-.37l.37-.28.3-.38s0-.1.1-.12.19-.18.23-.28a4.77,4.77,0,0,1,.13-.47c0-.08.14-.16.23-.25a.55.55,0,0,1,.41,0c.09.07.23,0,.35,0l.13,0a2.1,2.1,0,0,1,.33.64,2.25,2.25,0,0,1,.16.81,4.38,4.38,0,0,1-.23,1.06,5.91,5.91,0,0,1-.57,1.12.84.84,0,0,1-.28.25,6.19,6.19,0,0,1-.6.65,6.69,6.69,0,0,1-.71.55,1.79,1.79,0,0,1-1,.3.31.31,0,0,0-.19,0,4.18,4.18,0,0,1-1.64.2c-.28,0-.56,0-.84,0a.84.84,0,0,1-.14-.06l-.18-.06a9.29,9.29,0,0,1-1.87-.53c-.17,0-.66-.59-.82-.64S83.34,124.93,83.25,124.93Z"/><path class="cls-2" d="M60.54,99.6c-.06.27-.38.25-.88.08-.17-.05-.53-.36-.52-.46a2.57,2.57,0,0,1,0-.57,10.44,10.44,0,0,1,1.33-1.76,6.31,6.31,0,0,1,1.18-1,18.59,18.59,0,0,1,2.73-1.51,2.48,2.48,0,0,1,.67-.2c.8-.15,1.55-.37,2.33-.57a.8.8,0,0,0,.38-.14,1.83,1.83,0,0,1,.45-.15l.86-.11a7.3,7.3,0,0,1,1.42,0l1.07.31c.35.11.69.27,1,.41.09,0,.21,0,.26.16.14.27.35.32.55.42a3,3,0,0,1,.74.53,1.49,1.49,0,0,1,.24.43c.06.13-.17.33-.22.34s-.15.18-.22.28a.3.3,0,0,1-.07.11,3.84,3.84,0,0,1-.8-.11,7,7,0,0,1-.84-.08,7.36,7.36,0,0,0-1-.19,6.61,6.61,0,0,0-1.19,0,.89.89,0,0,1-.35-.06,10.46,10.46,0,0,0-1.71.37c-.33,0-.64.22-1,.13a.45.45,0,0,0-.2,0c-.56.23-1.14.37-1.7.59a6.52,6.52,0,0,0-.83.43.47.47,0,0,1-.16,0,.74.74,0,0,0-.21.07,9.85,9.85,0,0,0-1.8,1.26,9.77,9.77,0,0,0-1,.65C61,99.45,60.56,99.48,60.54,99.6Z"/><path class="cls-2" d="M83.36,93.6c0,.22-.25.21-.77.15-.16,0-.6-.21-.62-.3a1.66,1.66,0,0,1-.1-.53,5.73,5.73,0,0,1,1-1.78,4.28,4.28,0,0,1,1-.93A12.45,12.45,0,0,1,86.29,89a1.63,1.63,0,0,1,.58-.13c.69-.07,1.34-.21,2-.34a.68.68,0,0,0,.33-.11,5.29,5.29,0,0,1,2.32-.08,9.17,9.17,0,0,1,1.76.78c.08,0,.18.05.22.16.09.27.26.33.43.44a1.93,1.93,0,0,1,.58.56,1.09,1.09,0,0,1,.12.42c0,.12-.23.29-.28.29s-.18.15-.26.24a.76.76,0,0,1-.09.09,2.47,2.47,0,0,1-.64-.12,3.22,3.22,0,0,1-.65-.07l-.25-.06a4.23,4.23,0,0,0-.54-.11c-.21,0-.42,0-.59,0l-.36,0c-.09,0-.18,0-.28-.07a5.11,5.11,0,0,0-.7.09c-.34.06-.67.16-.7.16-.27,0-.53.16-.84,0a.22.22,0,0,0-.16,0c-.46.16-.94.23-1.41.39a3.39,3.39,0,0,0-.67.31.59.59,0,0,1-.14,0l-.17,0c-.24.16-.5.3-.75.44a3.05,3.05,0,0,0-.64.55c-.08.09-.66.36-.7.51S83.34,93.5,83.36,93.6Z"/><path class="cls-2" d="M443.05,139.74c-11.88,11.76-18,.33-17.26-1.73.76.08,8.5,2.32,16.91-6.09C442.6,134.48,441.9,137.33,443.05,139.74Z"/><path class="cls-2" d="M433.52,138.87a17,17,0,0,1-3.81.52,15.57,15.57,0,0,1-1.93-.07c-.41,0-.39,0-.54-.07l-.22-.06s-.06,0-.07,0a.5.5,0,0,0,0,.32,1,1,0,0,0,.07.17c.07.17.15.36.24.53a7.64,7.64,0,0,0,2.87,3.17,6.45,6.45,0,0,0,4.19.83,9.89,9.89,0,0,0,3.75-1.43,51.15,51.15,0,0,0,4.2-3.24c.45-.34.74.05.71.72a3.38,3.38,0,0,1-1.24,2.36,16.43,16.43,0,0,1-5.2,3,8.65,8.65,0,0,1-6.25-.2,9.84,9.84,0,0,1-3.1-2.2,10.58,10.58,0,0,1-1.18-1.49c-.16-.28-.33-.55-.46-.84-.08-.14-.14-.29-.21-.43s-.15-.43-.22-.64a4,4,0,0,1-.22-1.52,5.2,5.2,0,0,1,.11-.67,1.93,1.93,0,0,1,.09-.33l.15-.2c.75.14,1.53.28,2.19.37l.4,0,.33,0c.21,0,.43,0,.65,0a14.68,14.68,0,0,0,2.65-.15,15.82,15.82,0,0,0,4.29-1.28,19.12,19.12,0,0,0,3-1.67,7,7,0,0,0,.71-.5l.75-.58c.32-.25.66-.56,1-.83l.91-.82.71-.65.37-.33.09-.08s.08-.1.06,0v.23l0,1.83c0,.62-.05,1.3-.09,2l0,.49v1c0,.37.06.73.09,1.09.18,1.33.27,1.69-.08,2.17-.08.11-.15.24-.23.33-.26.31-.91-.13-1.29-1.32a10.52,10.52,0,0,1-.37-2.65V135s0,0-.05-.06-.05,0-.06.07v0h0l-.45.36a20.3,20.3,0,0,1-7.19,3.57Z"/><path class="cls-2" d="M376.18,190.87a2.18,2.18,0,0,1-1.5,1.87,5.74,5.74,0,0,1-2.35.36,17.22,17.22,0,0,0-1.78,0,2.58,2.58,0,0,0-1.1.27c-.07.06-.14.12-.13.2s.15.08.21.08l.51.07c.29,0,.59.07.89.09.61.06,1.23.1,1.85.14,1.24.08,2.51.13,3.79.25a14.32,14.32,0,0,1,3.53.63,4.62,4.62,0,0,1,.91.49,5.26,5.26,0,0,1,.78.55c.43.37.91.72,1.31,1.1,1.67,1.48,3.19,3,4.74,4.58,5.27,5.34,10.33,10.83,15.29,16.43l4.34,5c1.38,1.6,2.79,3.19,4.14,4.83a5.32,5.32,0,0,1,.67.85c.44.81.07,1.35-.71,1.11-.17,0-.42-.08-.52-.2-1-1.28-2.48-1.77-3.55-3.11-2-2.46-4.25-4.73-6.42-7.07-.86-.93-1.71-1.88-2.54-2.85-1.06-1.24-2.06-2.52-3.14-3.74-.74-.84-2.87-3.19-5.73-6.19-1.44-1.5-3.06-3.15-4.78-4.84-.87-.83-1.75-1.71-2.67-2.51-.46-.41-.92-.84-1.39-1.19l-.7-.56-.63-.4a5.47,5.47,0,0,0-1.52-.4c-.57-.09-1.17-.15-1.77-.2l-3.57-.26-1.73-.14-.85-.1-.43-.06-.49-.08a7.7,7.7,0,0,1-1.27-.33,3,3,0,0,1-1-.59,1.48,1.48,0,0,1-.5-.9,1.53,1.53,0,0,1,.18-1,4,4,0,0,1,1.56-1.49,3.23,3.23,0,0,1,.92-.42c.27-.08.49-.12.73-.17A12.3,12.3,0,0,1,372,191c1.15.06,1.77.07,1.88.07A5.4,5.4,0,0,0,376.18,190.87Z"/><path class="cls-2" d="M449.36,154.79a117.35,117.35,0,0,1,14.49,23.7c1.46,3,2.84,6.12,4.06,9.26a118.23,118.23,0,0,1,5.18,17.07,72.67,72.67,0,0,1,1.82,17.78c0,1.32-.18,2.65-.26,4s-.38,2.65-.62,4l-.46,2c-.09.33-.15.66-.25,1l-.32.95-.64,1.9-.83,1.83c-.18.39-.35.79-.55,1.17l-.66,1.12a17.89,17.89,0,0,1-1.41,2.17l-1.54,2a19.67,19.67,0,0,1-1.66,2,17.39,17.39,0,0,1-9.27,4.7c-2.13.36-1.9-.32-.34-1.26a49.49,49.49,0,0,0,6.94-4.56,12,12,0,0,0,1.57-1.62l1.57-2,.74-.94.37-.47.31-.5c.41-.69.85-1.36,1.24-2.05a32,32,0,0,0,3-9.18,47,47,0,0,0,.68-9.87,72.46,72.46,0,0,0-1-10,80.87,80.87,0,0,0-2.93-12c-1.26-4-2.73-7.92-4.37-11.75A131.92,131.92,0,0,0,451.13,161c-1.37-2-2.82-3.84-4.37-5.64l-1.18-1.33-1.24-1.26c-.41-.43-.86-.79-1.3-1.19-.2-.17-.47-.43-.61-.54l-.41-.3-.26-.2c-.05-.06-.1,0-.13,0l-.11.13-.4.58a60.1,60.1,0,0,1-3.81,5.16,18.83,18.83,0,0,1-4.94,4.35,6.27,6.27,0,0,1-3.42.86,5.47,5.47,0,0,1-1.78-.48,3.17,3.17,0,0,1-1.45-1.38,3,3,0,0,1-.31-1,6,6,0,0,1,0-.94,6.07,6.07,0,0,1,.13-.87l.09-.42.07-.27c.19-.65.39-1.15.59-1.72l.08-.26q.11-.33.18-.66a1.88,1.88,0,0,0,.05-.33s.05-.12,0-.14a.34.34,0,0,0-.15.09,12.18,12.18,0,0,0-1.05,1c-.72.73-1,1-2.31,2.48q-3.27,3.63-6.23,7.5c-.87,1.13-1.67,2.28-2.48,3.45-1.51,2.19-2.38,3.67-3,4.69a9,9,0,0,1-1.49,2,7.78,7.78,0,0,1-.6.64c-.28.23-.47-.25-.33-1.32a13.54,13.54,0,0,1,1.68-4.4A72.52,72.52,0,0,1,418.78,158c.76-.9,1.55-1.79,2.34-2.67l1.22-1.31,1.11-1.15,1.21-1.22a18.77,18.77,0,0,1,2.33-2,2.36,2.36,0,0,1,.83-.33,1.4,1.4,0,0,1,.6,0,2.44,2.44,0,0,1,.87.56c.11.15.27.19.31.46l.11.33a4.75,4.75,0,0,1,0,.5,15.41,15.41,0,0,1-.33,1.61c-.16.6-.4,1.3-.63,2l-.37,1c-.13.34-.2.61-.3.92l-.14.45c0,.13,0,.16-.05.24s-.07.29-.09.42a1.56,1.56,0,0,0,.07,1,1.35,1.35,0,0,0,.78.44,3.84,3.84,0,0,0,3.17-.83,17.31,17.31,0,0,0,3.23-2.94,40.26,40.26,0,0,0,2.85-3.67l1.4-2a5.62,5.62,0,0,1,1.44-1.7c.51-.37,1.16-.06,1.73.05l1.58,1.16.83.74a19.56,19.56,0,0,1,1.61,1.53c.53.51,1,1,1.51,1.59s1,1.07,1.43,1.64Z"/><path class="cls-2" d="M365,183.89s-.25-.17-.3,0a.27.27,0,0,0,0,.18.46.46,0,0,0,0,.13l.15.26a9.07,9.07,0,0,0,1,1,20.22,20.22,0,0,0,4.51,3.16,16.61,16.61,0,0,0,2.3,1,12.63,12.63,0,0,1,3,1.22c.29.18.15.54-.25.86a2.08,2.08,0,0,1-1.72.51,17,17,0,0,1-3.21-1.25,18.63,18.63,0,0,1-3-1.82,27,27,0,0,1-3.44-2.65c-.15-.14-.28-.32-.42-.48a3.27,3.27,0,0,1-.41-.55,5.53,5.53,0,0,1-.4-.68l-.31-.81-.1-.8a2.19,2.19,0,0,1,.12-.73,1.21,1.21,0,0,1,.46-.59,1.41,1.41,0,0,1,.69-.22,4.18,4.18,0,0,1,1.93.41l.39.16.33.15.64.31c1.28.63,2.5,1.31,3.78,1.82a15.13,15.13,0,0,0,3,.82l.65.09c.8.12,1,.24,1.16.8a2.38,2.38,0,0,1,.11.38c.08.41-.33.76-1.06.78a14.61,14.61,0,0,1-6.05-1.66c-.69-.32-1.37-.66-2-1l-1-.48-.48-.21-.05,0Z"/><path class="cls-2" d="M365.19,174.93a12,12,0,0,0-.92-.78,3.18,3.18,0,0,0-.38-.27l-.05,0s0,0,0,0a3,3,0,0,0,.1-.32,2.42,2.42,0,0,0,.05-.33.45.45,0,0,0,0-.2c0-.05,0-.15,0-.18a.13.13,0,0,0,0-.06l0,0,0,0a.08.08,0,0,0,.06,0,.72.72,0,0,0,.39.07,3.59,3.59,0,0,0,.64,0s0,0,0,0a2.65,2.65,0,0,0,.12.42,7.78,7.78,0,0,0,.5,1.07c.28.54.66,1,1,1.58a42.75,42.75,0,0,0,4,5.46,18.24,18.24,0,0,0,2.16,2.06c1,.79,2.07,1.4,3,2.19.27.25,0,.75-.54,1.12a2.1,2.1,0,0,1-2.24.08,22.19,22.19,0,0,1-5.77-6.08c-.91-1.39-2-2.67-2.94-4.13A15.71,15.71,0,0,1,363,174a3.55,3.55,0,0,1-.23-.9,3.25,3.25,0,0,1,0-.33,1.88,1.88,0,0,1,.11-.5,1.23,1.23,0,0,1,.5-.58,1.65,1.65,0,0,1,.36-.16,1.58,1.58,0,0,1,.28,0,2.11,2.11,0,0,1,1.12.36,7.32,7.32,0,0,1,.65.44c.95.74,1.75,1.52,2.57,2.29,1.24,1.16,2.41,2.38,3.67,3.48a29.87,29.87,0,0,0,3.06,2.27l.69.43a2.45,2.45,0,0,1,.77.69,1.39,1.39,0,0,1,.06.8c0,.15,0,.29,0,.42s-.18.34-.48.44A1.45,1.45,0,0,1,375,183a24.27,24.27,0,0,1-5.91-4.38c-1.33-1.22-2.61-2.52-3.91-3.64Z"/><path class="cls-2" d="M376.22,175.49c-1.23-1.24-2.44-2.52-3.67-3.63a7.79,7.79,0,0,0-.69-.52c-.11-.08-.19-.11-.29-.18l-.12-.08h0s0-.05,0-.08l0-.1a2.55,2.55,0,0,0,.1-.66c0-.18-.07-.17,0-.13s.09,0,.17,0a1.37,1.37,0,0,0,.34,0l.18,0h.23a2.5,2.5,0,0,0,.16.56,13.49,13.49,0,0,0,.65,1.42A32.87,32.87,0,0,0,375,175a21.45,21.45,0,0,0,1.8,2.32,23.85,23.85,0,0,1,2.45,2.8c.21.33-.21.72-.87.91a2.08,2.08,0,0,1-2.06-.44,27.41,27.41,0,0,1-4.57-6.65c-.35-.74-.75-1.46-1.12-2.28a5,5,0,0,1-.27-.69,3.13,3.13,0,0,1-.11-.46,1.52,1.52,0,0,1,0-.33,1.28,1.28,0,0,1,.09-.51,2.69,2.69,0,0,1,.17-.34,1.61,1.61,0,0,1,.36-.32,1.13,1.13,0,0,1,.21-.12l.17-.05a1.75,1.75,0,0,1,.33,0,1.17,1.17,0,0,1,.41.05,1.07,1.07,0,0,1,.28.08,4.05,4.05,0,0,1,.73.4,17.31,17.31,0,0,1,2.14,1.83c.65.61,1.28,1.24,1.91,1.86l2.31,2.29c1.18,1.13,2.36,2.27,3.62,3.26a20.16,20.16,0,0,0,3.13,1.93c.23.13.47.21.7.33a2.8,2.8,0,0,1,.83.57,1,1,0,0,1,.17.76,3.54,3.54,0,0,1,0,.46c-.07.5-.62.7-1.46.48a19.23,19.23,0,0,1-6.18-3.86c-1.36-1.18-2.64-2.43-3.92-3.66Z"/><path class="cls-2" d="M402.27,218.62c-.45-1.39-.37-1.77-.14-2a14.88,14.88,0,0,0,2-2.81,21.87,21.87,0,0,0,1.45-2.71,28.61,28.61,0,0,0,1.55-5.2c.11-.52.23-1,.3-1.58s.09-1,.1-1.54c0-.08,0-.18,0-.25s.81-.19,1.25,0c.1.05.27.11.27.15,0,.41.74.85.65,1.29-.16.82-.1,1.66-.19,2.5a4.55,4.55,0,0,1-.22,1c-.13.41-.35.79-.5,1.19a34,34,0,0,1-2.21,5.55,14,14,0,0,1-2.1,3,7.67,7.67,0,0,1-1.35,1.23A3.22,3.22,0,0,1,402.27,218.62Z"/><path class="cls-2" d="M406.23,199.3c3.56,3.7,7.28,7.26,11.17,10.63,1.41,1.23,2.91,2.36,4.36,3.53a89.4,89.4,0,0,0,8,5.76,42.47,42.47,0,0,0,4.26,2.39,22.29,22.29,0,0,0,4.49,1.71,9.47,9.47,0,0,0,4,.28,8.1,8.1,0,0,0,3.52-1.74,6.89,6.89,0,0,0,1.52-2,12.6,12.6,0,0,0,.88-2.44c.45-1.73.71-3.62,1.28-5.47.38-1.17.93-.81,1.28.28a10.24,10.24,0,0,1,.17,5.16,16.54,16.54,0,0,1-1,3.06,9.29,9.29,0,0,1-2,2.83,9.55,9.55,0,0,1-2.83,1.91l-.75.34-.87.25a8.66,8.66,0,0,1-1.73.28,14.9,14.9,0,0,1-6.26-1.16,35.7,35.7,0,0,1-5.39-2.7A108.68,108.68,0,0,1,418.6,214c-4.07-3.33-7.93-6.89-11.66-10.58-2.29-2.27-4.52-4.6-6.68-7a30.11,30.11,0,0,1-2.35-2.91,18.58,18.58,0,0,1-1.78-3.35A47.72,47.72,0,0,1,394,183c-.42-1.84-.82-3.68-1.31-5.4-.09-.26-.19-.61-.27-.77a2.84,2.84,0,0,0-.27-.52,1.06,1.06,0,0,0-.39-.34.27.27,0,0,0-.44.13,2.78,2.78,0,0,0-.06,1c0,.19.08,1.67,0,2.28a2.5,2.5,0,0,1-.51,1.49,2.11,2.11,0,0,1-.42.46c-.24.13-.46-.06-.69-.58a10.43,10.43,0,0,1-.6-2.52l-.08-.7c0-.36-.06-.72-.07-1.08a10,10,0,0,1,.1-2.08,3.53,3.53,0,0,1,.55-1.48,1.74,1.74,0,0,1,1.19-.8,3.05,3.05,0,0,1,2.73,1.43l.29.35.24.5.48,1,.32,1c.1.33.23.72.27.89.89,3.46,1.45,6.84,2.52,10a24.52,24.52,0,0,0,1.38,3.37,15.6,15.6,0,0,0,2,2.92c1.64,1.93,3.43,3.83,5.24,5.68Z"/><path class="cls-2" d="M469.06,398c-69.48,13.11-88.88,9.45-91.85,6.52-4-55.87,11.42-116.86,23.12-152.72l7.74-.38-.53-26.51c15.52,16.54,37.16,36.73,55.94,21.09C471.24,282.63,473.88,385.63,469.06,398Z"/><path class="cls-2" d="M424.05,242.56a118.89,118.89,0,0,1-9.58-8.46c-1.52-1.49-3-3-4.48-4.51l-.6-.63-.18-.19-.15-.17s0,0,0,0v.1l.4,24-8.13.38-1.13,3.5c-.46,1.45-.93,2.9-1.37,4.36-.89,2.92-1.81,5.84-2.63,8.77-1.32,4.46-2.51,9-3.71,13.45s-2.29,9-3.32,13.53c-1.93,8-3.55,16-5.09,24s-2.77,16.14-3.76,24.27a331.59,331.59,0,0,0-2.73,49l.25,5.44.14,2.72.06,1.36,0,.44c0,.06,0,.12,0,.16l.13.11a2.21,2.21,0,0,0,.31.19,4.49,4.49,0,0,0,.54.26,11.35,11.35,0,0,0,1.2.43,23.45,23.45,0,0,0,2.57.59,49.66,49.66,0,0,0,5.33.61,156.46,156.46,0,0,0,21.65-.54c9.22-.79,18.44-2,27.62-3.37s18.35-2.92,27.49-4.48c5.7-1,5.06-.22.35,1.27a177.27,177.27,0,0,1-24.1,5.31c-9.4,1.45-18.83,2.7-28.33,3.55-4.75.42-9.52.74-14.31.87a95.06,95.06,0,0,1-14.47-.56,32.59,32.59,0,0,1-3.68-.7,17.5,17.5,0,0,1-1.87-.59c-.32-.14-.64-.26-1-.44a8.18,8.18,0,0,1-1.27-.85l-.32-.28-.16-.13c-.06-.05,0-.14,0-.2a6,6,0,0,1-.08-.84l-.05-1.1-.09-1.79-.16-3.59-.16-3.58,0-3.59,0-7.18.23-7.18.12-3.58.24-3.59.48-7.17.71-7.16c1.2-11.4,2.85-23,4.93-34.57s4.64-23.13,7.55-34.49q2.19-8.64,4.71-17.2c.8-2.86,1.7-5.7,2.56-8.54.43-1.43.89-2.84,1.35-4.26l1.57-4.91,7.48-.35-.27-15.94-.19-10.21,0-1.65c0-.24.1,0,.19.06l.28.3.57.6,2.26,2.39,1.92,2,1.47,1.51a108,108,0,0,0,17.94,15.19,42.89,42.89,0,0,0,10.48,5,28.7,28.7,0,0,0,5.65,1,21.19,21.19,0,0,0,5.68-.39,22.05,22.05,0,0,0,7.91-3.43c.85-.56,1.75-1.31,2.62-1.95l.33-.25c.05,0,.11-.11.15-.1l0,.2.16.82.32,1.62c.23,1.23.36,1.82.49,2.59l.38,2.23c1,5.94,1.71,11.91,2.35,17.88,1.27,11.95,2.13,23.91,2.83,35.79,1.06,18.49,1.8,36.62,1.91,54.94,0,4,0,8-.05,12.05-.15,7.54-.47,12.52-.89,16a26.24,26.24,0,0,1-1.56,7,10.48,10.48,0,0,1-1,2c-.22.3-.29.14-.25-.4,0-.27.09-.62.15-1.08s.11-1.05.2-1.71c.27-2.67.54-6.92.74-12.4.28-8.14.3-16.41.2-24.76s-.3-16.8-.6-25.3c-.61-17-1.54-34.23-3-51.43-.57-6.38-1.22-12.76-2.05-19.12-.41-3.17-.86-6.35-1.4-9.49l-.4-2.36-.17-.83v0s0,0,0,0l-1.08.7a23.31,23.31,0,0,1-9.68,3.48,26.06,26.06,0,0,1-10.19-.9,41.76,41.76,0,0,1-9.21-4,67.87,67.87,0,0,1-8.17-5.56Z"/><path class="cls-2" d="M128,255.87a52.66,52.66,0,0,1-11.71-1.15c-1.07-.23-.88-.81.43-.85,2.54-.08,5.11-.14,7.71-.16l15,.22c7.54.11,16,.18,20.22.18l24.8.17c16.81.13,33.62,0,50.44-.11,3.73,0,7.47-.06,11.19,0,6.4,0,12.8,0,19.2-.14s12.8-.22,19.21-.41c2.13,0,4.31-.09,6.38-.23,3.38-.17,38.12-1.2,42.62-1.33,11.17-.19,22.36-.52,33.54-.84,1.6,0,3.3-.15,4.76-.1,3.38.12,6.82-.08,10.28-.22,4.8-.19,9.6-.37,14.38-.51,2.37-.06,4.71,0,7.05,0,2.12,0,1,.42.25.5-2.15.21-.39.31-.18.45s.15.11.05.16l-1.26.11-3.21.25-9.85.7c-7.29.5-14.92,1-16.42,1.06l-21.34,1-24.2,1c-2.39.11-4.8.14-7.19.17l-17.25.6-17.37.54c-6.66.14-13.35.38-20,.27-1.3,0-2.66,0-4,0-5.73.14-11.47.2-17.2.25s-11.47.09-17.21.08l-17.58.09-3.17,0-4,0c-13.87,0-27.75-.19-41.63-.32-3.2,0-18.44-.59-22.13-.67C136.61,256.46,129.88,255.87,128,255.87Z"/><path class="cls-2" d="M95.1,170.53c1.66.17,2,.33,2.05.48a5.94,5.94,0,0,1,.31,1.53c0,.44-.13.87-.15,1.31,0,.75,0,1.5,0,2.24,0,.22,0,.44,0,.65a3.56,3.56,0,0,0,.16.57s.08,0,0,.06a6.68,6.68,0,0,1-1.49.19h-.34c0-.18-1-.26-1-.46s-.22-.67-.32-1a.68.68,0,0,1,0-.4c0-.17.17-.33.22-.5.12-.46,0-4.27.09-4.37S94.89,170.66,95.1,170.53Z"/><path class="cls-2" d="M110.56,170.55c1.67.11,2,.24,2.06.38a4.43,4.43,0,0,1,.33,1.31,11.18,11.18,0,0,1-.13,1.13c0,.64,0,1.29,0,1.94,0,.19,0,.38,0,.57a5.54,5.54,0,0,0,.14.55s.07.06,0,.09a4.79,4.79,0,0,1-1.49,0l-.34,0c0-.14-1-.26-1-.4s-.21-.56-.31-.84a.47.47,0,0,1,0-.33c.05-.14.17-.28.22-.42.13-.39,0-3.65.05-3.73S110.36,170.66,110.56,170.55Z"/><path class="cls-2" d="M159.84,169.68c1.67.17,2,.35,2,.53a7.57,7.57,0,0,1,.31,1.75c0,.5-.13,1-.14,1.49,0,.86,0,1.72,0,2.57a6.26,6.26,0,0,0,0,.75,4.92,4.92,0,0,0,.16.66s.08,0,0,.07a5.57,5.57,0,0,1-1.49.2,1.87,1.87,0,0,1-.34,0c-.05-.2-1-.3-1-.53s-.22-.76-.32-1.13a.86.86,0,0,1,0-.45c0-.19.17-.38.22-.57.12-.52,0-4.88.09-5S159.64,169.82,159.84,169.68Z"/><path class="cls-2" d="M174.64,168.94c1.68,0,2,.21,2.09.4a9.29,9.29,0,0,1,.48,1.9c.07.54,0,1.11,0,1.66.05.95.15,1.9.22,2.84,0,.28,0,.57.06.84s.14.53.2.8c0,0,.08.09,0,.13a3.39,3.39,0,0,1-1.48.17,1.91,1.91,0,0,1-.35,0c-.05-.21-1-.3-1-.52a3.69,3.69,0,0,0-.4-1.2,1,1,0,0,1,0-.49c0-.21.14-.42.17-.64.09-.57-.41-5.33-.36-5.46S174.45,169.12,174.64,168.94Z"/><path class="cls-2" d="M187.67,169.26c1.68,0,2,.19,2.09.37a8.55,8.55,0,0,1,.49,1.83c.07.53,0,1.07,0,1.6.05.92.15,1.83.23,2.75,0,.27,0,.54.07.81a7.27,7.27,0,0,0,.2.77s.08.08,0,.13a3.55,3.55,0,0,1-1.48.17,1.28,1.28,0,0,1-.35,0c0-.19-1-.27-1-.49a3.25,3.25,0,0,0-.41-1.15.93.93,0,0,1,0-.47c0-.2.14-.41.17-.62.08-.56-.43-5.15-.39-5.28S187.48,169.44,187.67,169.26Z"/><path class="cls-2" d="M209.29,168.52c1.67.09,2,.31,2.09.55a13.17,13.17,0,0,1,.5,2.37c.07.69,0,1.39,0,2.08.06,1.19.16,2.37.24,3.55,0,.35,0,.7.07,1.05s.14.67.21,1c0,0,.08.11,0,.17a2.77,2.77,0,0,1-1.48.17,2.3,2.3,0,0,1-.35-.05c-.05-.26-1-.4-1-.68a5.16,5.16,0,0,0-.41-1.5,1.78,1.78,0,0,1,0-.61c0-.26.14-.53.17-.79.08-.72-.46-6.67-.42-6.83S209.1,168.73,209.29,168.52Z"/><path class="cls-2" d="M225.29,168.51c1.68.06,2,.24,2.09.43a9.74,9.74,0,0,1,.48,1.95c.07.56,0,1.13,0,1.7.05,1,.14,1.94.22,2.91a8.1,8.1,0,0,0,.06.86,8,8,0,0,0,.2.81s.07.09,0,.14a3.36,3.36,0,0,1-1.48.24,2.28,2.28,0,0,1-.35,0c0-.21-1-.27-1-.5a3.65,3.65,0,0,0-.39-1.24,1.06,1.06,0,0,1,0-.5c0-.23.14-.45.17-.68.09-.6-.41-5.55-.37-5.69S225.1,168.7,225.29,168.51Z"/><path class="cls-2" d="M275.92,167c1.68.16,2,.44,2.1.73a20.94,20.94,0,0,1,.49,2.92c.07.84,0,1.69,0,2.53.06,1.45.16,2.9.24,4.35,0,.43,0,.86.07,1.28s.13.82.2,1.22c0,.07.08.14,0,.21a2.24,2.24,0,0,1-1.49.17c-.13,0-.34,0-.34-.08-.05-.32-1-.52-1-.85a7.59,7.59,0,0,0-.41-1.85,2.29,2.29,0,0,1,0-.74c0-.32.14-.65.17-1,.08-.87-.44-8.15-.4-8.35S275.73,167.29,275.92,167Z"/><path class="cls-2" d="M291,167c1.68.1,2,.33,2.1.57a14.08,14.08,0,0,1,.52,2.45c.08.71,0,1.43,0,2.14.07,1.23.19,2.45.28,3.67,0,.36,0,.72.08,1.08s.14.68.22,1c0,.06.07.11,0,.17a2.72,2.72,0,0,1-1.48.26c-.13,0-.34,0-.34,0-.06-.26-1-.36-1-.65a5.48,5.48,0,0,0-.42-1.56,1.67,1.67,0,0,1,0-.63c0-.28.14-.56.16-.84.08-.75-.53-7-.49-7.13S290.8,167.25,291,167Z"/><path class="cls-2" d="M305.34,168.37c1.67.13,2,.33,2.07.53a10.27,10.27,0,0,1,.4,2.09c.05.59-.08,1.2-.08,1.8,0,1,.07,2.06.1,3.09,0,.31,0,.61,0,.92s.12.58.17.87c0,.05.07.1,0,.15a3.13,3.13,0,0,1-1.5.1c-.12,0-.33,0-.34-.06,0-.22-1-.37-1-.61a4,4,0,0,0-.35-1.32,1.35,1.35,0,0,1,0-.53c0-.22.16-.45.2-.68.11-.62-.18-5.81-.13-5.95S305.14,168.55,305.34,168.37Z"/><path class="cls-2" d="M329.09,167.91c1.66.18,2,.39,2.05.59a10.11,10.11,0,0,1,.33,2.08c0,.6-.11,1.19-.13,1.79,0,1,0,2,0,3.07,0,.31,0,.61,0,.91a8.74,8.74,0,0,0,.14.87c0,.05.07.1,0,.15a3.28,3.28,0,0,1-1.5.06c-.12,0-.33,0-.34-.07,0-.22-1-.4-1-.64a4.1,4.1,0,0,0-.31-1.31,1.18,1.18,0,0,1,0-.53c0-.23.17-.45.22-.67.13-.62,0-5.77,0-5.91S328.88,168.08,329.09,167.91Z"/><path class="cls-2" d="M395.82,167.36c1.67-.05,2,.08,2.1.25a7.29,7.29,0,0,1,.54,1.7c.1.5,0,1,.06,1.52.09.87.22,1.73.33,2.59,0,.25,0,.51.09.76s.16.48.23.71c0,0,.08.08,0,.13a3.84,3.84,0,0,1-1.48.23,1.49,1.49,0,0,1-.34,0c-.06-.19-1-.22-1-.42,0-.38-.29-.71-.44-1.07a.83.83,0,0,1-.05-.44c0-.2.13-.4.15-.59.06-.54-.61-4.85-.57-5S395.63,167.53,395.82,167.36Z"/><path class="cls-2" d="M350,167.69c1.67.16,2,.35,2.06.54a8.94,8.94,0,0,1,.33,1.88c0,.54-.12,1.08-.13,1.63,0,.92,0,1.85,0,2.78,0,.28,0,.55,0,.83s.1.52.15.78c0,.05.06.09,0,.14a3.46,3.46,0,0,1-1.5,0,1.63,1.63,0,0,1-.34-.06c0-.2-1-.36-1-.58a3.5,3.5,0,0,0-.31-1.19,1,1,0,0,1,0-.48c.05-.2.18-.41.22-.61.13-.56,0-5.23,0-5.35S349.76,167.85,350,167.69Z"/><path class="cls-2" d="M340.43,167.43c1.67.24,2,.51,2.05.77a17.09,17.09,0,0,1,.31,2.65c0,.75-.13,1.51-.15,2.26,0,1.31,0,2.61,0,3.91,0,.38,0,.77,0,1.15s.08.74.13,1.11c0,.06.07.13,0,.18a2.51,2.51,0,0,1-1.5.07c-.13,0-.34-.06-.34-.09,0-.28-1-.52-1-.82a6.6,6.6,0,0,0-.3-1.68,2.16,2.16,0,0,1,0-.67c.05-.28.18-.56.23-.85.14-.78.06-7.32.11-7.5S340.23,167.65,340.43,167.43Z"/><path class="cls-2" d="M115,170.76l-12.29-.15-4.48,0-7.87-.14-.37,0h-.2c-.06,0-.17,0-.13,0l0,.38c0,.16,0,.16,0,.57l.35,3.95c.19,2.33.44,4.67.67,7a70.45,70.45,0,0,1,.61,9c0,1.86-2.49-.35-2.76-3.76q-.35-4.52-.69-9.06L87.53,174l-.16-2.28-.07-.82-.09-1-.09-1c0-.28-.23-.81.28-.65l4,.07h2.81l5.65,0,12.38.11,7.61.06,6,0,.46.08c.15,0,.33,0,.42.16a1.92,1.92,0,0,1,.44.85,7.16,7.16,0,0,1,.21,1l.1.74c.1,1,.21,1.9.32,2.85.06.49.13,1,.22,1.45l.14.71c0,.21.12.52.15.63a3.39,3.39,0,0,0,.29.67c.11.18.31.37.55.27a.72.72,0,0,0,.43-.47,2.43,2.43,0,0,0,.17-.6c.11-.5.2-1.14.27-1.74.27-2.3.42-3.09,1.13-3.55a1.92,1.92,0,0,1,.48-.29c.5-.13.82.76.81,2.6a20.06,20.06,0,0,1-.31,3.29,9.61,9.61,0,0,1-.32,1.19,4.59,4.59,0,0,1-.28.64,2.73,2.73,0,0,1-.33.61l-.41.51c-.15.14-.31.25-.47.38a5,5,0,0,1-1.14.43c-1.33.07-2.31-.79-2.85-2.31-.13-.37-.25-.76-.35-1.15l-.15-.68c-.09-.44-.17-.88-.23-1.31-.13-.87-.22-1.72-.32-2.55l-.14-1.23c0-.37-.13-.94-.1-.77l-10.14,0Z"/><path class="cls-2" d="M137.05,179.54a2.76,2.76,0,0,1-2,1.29,3.22,3.22,0,0,1-2.23-.77c-.19-.21-.46-.41-.61-.6a2.63,2.63,0,0,1-.38-.58,10.19,10.19,0,0,1-.69-3.94,11.89,11.89,0,0,0-.16-1.59,5,5,0,0,1-.18-1.88c.05-.16.64-.35,1.27-.29s1.28.39,1.33.8a20.14,20.14,0,0,1,.05,4,3.36,3.36,0,0,0,.56,1.92.86.86,0,0,0,.37.42.5.5,0,0,0,.56,0,.94.94,0,0,0,.27-.29,2.89,2.89,0,0,0,.25-.61,8.61,8.61,0,0,0,.36-2.41,10.57,10.57,0,0,0-.28-1.93,3,3,0,0,1-.09-.43c-.06-.53.1-.73.74-.85a3.39,3.39,0,0,1,.44-.08,1,1,0,0,1,1.06.54,8.51,8.51,0,0,1,.44,3.83,10,10,0,0,1-.25,1.57,6.26,6.26,0,0,1-.76,1.9Z"/><path class="cls-2" d="M142.43,178a2.55,2.55,0,0,1-1,1.15,2.58,2.58,0,0,1-1.47.21,5.55,5.55,0,0,1-.83-.34c-.2-.12-.4-.28-.6-.42a2.94,2.94,0,0,1-.5-.5,11.09,11.09,0,0,1-1.43-3l-.47-1.36a3,3,0,0,1-.25-1.93c.08-.25.52-.11,1,0s.92.25,1,.5c.15.45.35.94.53,1.43a15,15,0,0,1,.42,1.57,2.71,2.71,0,0,0,.4.88c.09.15.19.25.28.38s.09.12.14.17a.26.26,0,0,1,.06.08.88.88,0,0,0,.3.27.41.41,0,0,0,.51-.07,1.1,1.1,0,0,0,.17-.28s0-.11,0-.16,0-.19.05-.29a8.28,8.28,0,0,0,0-2.11,12.49,12.49,0,0,0-.47-1.63,2.53,2.53,0,0,1-.12-.36c-.1-.47,0-.69.59-.82a2.7,2.7,0,0,1,.39-.08,1,1,0,0,1,1,.37,7.71,7.71,0,0,1,.8,3.15,10,10,0,0,1,0,1.34c0,.26,0,.43-.09.76a3.7,3.7,0,0,1-.34,1.11Z"/><path class="cls-2" d="M315.05,168.41l-45.42.63-16.57.3-58.4.76c-8.64.12-17.32.31-25.89.52l-11.36.29-11.07.24a1.11,1.11,0,0,0-.26,0,.38.38,0,0,0-.14.21,3.7,3.7,0,0,0-.11.73l-.14,1.7a6.77,6.77,0,0,1-.39,1.79,2.61,2.61,0,0,1-.82,1.16,1.38,1.38,0,0,1-1.46.1,4.68,4.68,0,0,1-1.89-2.64,12.81,12.81,0,0,1-.41-1.28c-.07-.29-.11-.53-.14-.72-.06-.4-.05-.59,0-.67s.56.18,1.12,1.09a5.8,5.8,0,0,0,.83,1.08,1.19,1.19,0,0,0,.41.29.4.4,0,0,0,.5-.16,1.36,1.36,0,0,0,.11-.73,2.5,2.5,0,0,0-.1-.53l0-.09a3.89,3.89,0,0,1,0-.39,8.71,8.71,0,0,1,.09-1.22,3.14,3.14,0,0,1,.58-1.54,2,2,0,0,1,1.44-.72l2.51-.12,2.13-.06c22.49-.48,45-.81,67.63-.91,13.56-.07,27.67-.44,41.54-.66l45.75-.69,28.17-.36,42.61-.4c5.48-.06,10.91-.16,16.32-.29l8.11-.22,2-.07,2.08-.1c.55,0,1.09-.08,1.63-.12a2.92,2.92,0,0,1,.77,0l.05.81.19,2.71c.17,2.38.33,4.72.5,7.13.57,8.92.58,11.77.05,13.7a9.37,9.37,0,0,1-.36,1.27c-.45.86-1.07-2.76-1.6-9.26-.36-4.52-.72-9.11-1.08-13.74,0-.13-.12-.05-.19-.05h-.15l-.47,0-.95.05-3.76.13-7.56.17c-10.1.19-20.34.29-30.6.4-15.24.16-30.55.28-45.83.52Z"/><path class="cls-2" d="M429,99.67a11.16,11.16,0,0,0,2-4.94,10.58,10.58,0,0,0,0-2,8.88,8.88,0,0,0-.87-3.31,8.27,8.27,0,0,0-2.17-2.7,8.55,8.55,0,0,0-2.78-1.51,13.76,13.76,0,0,0-3.88-.65c-.28,0-.54-.39-.21-.93a2.32,2.32,0,0,1,2.14-.91,11.89,11.89,0,0,1,4.63,1.53,9.47,9.47,0,0,1,3.5,3.47A11.83,11.83,0,0,1,433,93.44a12.25,12.25,0,0,1-1.55,6.19,16.33,16.33,0,0,1-2.25,3.14,24.29,24.29,0,0,1-4.36,3.75,34.47,34.47,0,0,1-3.75,2.33,8.89,8.89,0,0,1-.88.42c-1.13.47-1.57.4-2-.06a2.78,2.78,0,0,1-.27-.33c-.21-.39.13-.88.87-1.24a39.83,39.83,0,0,0,6.3-4,17.91,17.91,0,0,0,3.76-4Z"/><path class="cls-2" d="M420.71,119.27c-.14-.11,0-.28.41-.43a2.15,2.15,0,0,1,.56-.09l.33.12s.12.13.24.25a2.24,2.24,0,0,0,.35.23,1.45,1.45,0,0,1,.33.16,1.18,1.18,0,0,0,.48.19.38.38,0,0,1,.13.08.47.47,0,0,0,.57.06s.07,0,.08-.09.53-.34.62-.38a1.82,1.82,0,0,0,.69-.15s0-.06.12,0a.22.22,0,0,0,.28,0,1,1,0,0,1,.27-.2.84.84,0,0,1,.29,0,.87.87,0,0,1,.36.19c.05.1.2.13.31.18l.11.06a2.21,2.21,0,0,1-.07,1.13l-.13.19a4,4,0,0,1-.31.38c-.23.29-.54.54-.59.61s-.16.06-.25.08a5.24,5.24,0,0,1-1.09.62c-.24,0-.49.18-.76,0a.2.2,0,0,0-.15,0,2.66,2.66,0,0,1-1.32-.23c-.21-.08-.44-.17-.65-.27,0,0-.06-.07-.09-.1a1.31,1.31,0,0,0-.11-.12c-.5-.28-.72-.82-1-1.21-.09-.1-.07-.68-.13-.78S420.76,119.31,420.71,119.27Z"/><path class="cls-3" d="M436.22,86.58c6-3.26,12.36.46,14.68,5.5"/><path class="cls-2" d="M66.26,106.08c-.26,0-.27-.31-.16-.82a1.31,1.31,0,0,1,.39-.58,2.68,2.68,0,0,1,.55-.05,17.8,17.8,0,0,1,1.74.88,7,7,0,0,1,1,.71,4.75,4.75,0,0,0,1.76,1,1.42,1.42,0,0,1,.33.11,1.19,1.19,0,0,0,.63.07l.29-.09.23-.15s.1-.07.1-.16a4.63,4.63,0,0,1,.31-.53c.15-.27.25-.63.3-.71a4.11,4.11,0,0,0,.47-1.37c0-.08,0-.15.06-.22s.14-.34.13-.5,0-.45,0-.69a1.15,1.15,0,0,1,.14-.39c.05-.12.35-.15.39-.12s.23,0,.35-.09l.12,0a2.81,2.81,0,0,1,.49.72,3.87,3.87,0,0,1,.38.92s0,.16,0,.4a7.34,7.34,0,0,1,0,.88,8.23,8.23,0,0,1-.16,1.53,1.94,1.94,0,0,1-.22.43,5.76,5.76,0,0,1-.53,1.1,4,4,0,0,1-.91,1,5,5,0,0,1-.68.39,1.86,1.86,0,0,1-.74.13.86.86,0,0,0-.28,0,3.87,3.87,0,0,1-2.4-.25,8.91,8.91,0,0,1-1-.48,1.74,1.74,0,0,1-.15-.13.85.85,0,0,0-.17-.16c-.71-.43-1.22-1-1.83-1.38-.14-.1-.6-.75-.76-.83S66.36,106.09,66.26,106.08Z"/><path class="cls-2" d="M84.21,100.48c-.26,0-.24-.34-.07-.84.06-.16.35-.52.45-.53a2.51,2.51,0,0,1,.55,0,15.11,15.11,0,0,1,1.64,1.06,7.92,7.92,0,0,1,1,.82,4.84,4.84,0,0,0,1.64,1.15,1,1,0,0,1,.31.15,1.28,1.28,0,0,0,.62.13l.3-.06.25-.12s.11-.06.12-.15a4.7,4.7,0,0,1,.36-.5,5.92,5.92,0,0,0,.37-.67,3.93,3.93,0,0,0,.62-1.32c0-.07,0-.15.08-.21s.17-.31.18-.48,0-.45.08-.69a1.25,1.25,0,0,1,.18-.37c.07-.12.36-.11.4-.08s.23,0,.35,0a.35.35,0,0,1,.13,0,2.84,2.84,0,0,1,.41.77,3.6,3.6,0,0,1,.28,1s0,.16,0,.4a7.63,7.63,0,0,1-.06.88,7.84,7.84,0,0,1-.32,1.5,1.59,1.59,0,0,1-.26.41,5.85,5.85,0,0,1-.65,1,4.38,4.38,0,0,1-1,.88,6.51,6.51,0,0,1-.72.31,1.78,1.78,0,0,1-.76.05.88.88,0,0,0-.28,0,3.82,3.82,0,0,1-2.35-.51,8.44,8.44,0,0,1-1-.58.93.93,0,0,1-.13-.15,1.37,1.37,0,0,0-.16-.18c-.65-.5-1.1-1.12-1.67-1.56-.13-.11-.51-.81-.67-.9S84.31,100.5,84.21,100.48Z"/><path class="cls-2" d="M424.67,100.64a4.08,4.08,0,0,1-1.78.11,4.45,4.45,0,0,1-.88-.26,8.27,8.27,0,0,1-.75-.45,3.07,3.07,0,0,1-.94-1,3.5,3.5,0,0,1-.28-2.13,9.27,9.27,0,0,1,.46-1.71c.16-.47.3-.93.41-1.39a4.19,4.19,0,0,1,.6-1.67c.24-.31,2.08.75,1.86,1.45a28.68,28.68,0,0,1-1.26,3.17,1.38,1.38,0,0,0,.11,1.37c0,.09.14.15.22.24a3.24,3.24,0,0,0,.35.21,1.49,1.49,0,0,0,.79.15,2.71,2.71,0,0,0,1.16-.37A6.12,6.12,0,0,0,426.4,97a8,8,0,0,0,.89-1.46c.07-.11.11-.23.18-.34.26-.4.47-.44,1-.18l.35.18a.84.84,0,0,1,.44,1,7.63,7.63,0,0,1-4.55,4.51Z"/><path class="cls-2" d="M438.25,104.11a3.84,3.84,0,0,1-1.9-.1l-.45-.17-.4-.23a3.77,3.77,0,0,1-.76-.61,3.49,3.49,0,0,1-.73-1.19,5,5,0,0,1-.11-2,13.35,13.35,0,0,1,.37-1.76c.14-.5.24-1,.33-1.48a4.12,4.12,0,0,1,.56-1.82c.25-.33,2.08.75,1.89,1.43-.31,1.2-.71,2.31-1.09,3.4a2.44,2.44,0,0,0,.1,1.74,1.09,1.09,0,0,0,.47.54,1.64,1.64,0,0,0,.8.28,2.6,2.6,0,0,0,1.19-.29,6.19,6.19,0,0,0,1.75-1.35,8.11,8.11,0,0,0,1-1.52c.07-.11.11-.24.19-.35.27-.41.48-.46,1-.2a3.84,3.84,0,0,1,.35.18.85.85,0,0,1,.43,1,7.35,7.35,0,0,1-2.08,3,6.55,6.55,0,0,1-2.85,1.58Z"/><path class="cls-2" d="M96.92,159.41a13.57,13.57,0,0,1-6.41-.86c-.7-.25-1.41-.46-2.09-.74a53.66,53.66,0,0,1-6.69-3.74c-.94-.61-1.91-1.17-2.87-1.73A17.93,17.93,0,0,1,75.34,150a.3.3,0,0,1-.06-.22l0-.14a.81.81,0,0,1,.07-.17l0-.1,0,.07,0,0,.06-.08a.7.7,0,0,1,.14-.16,1.45,1.45,0,0,1,.42-.27,2.44,2.44,0,0,1,2.23,0c2.39,1.56,4.73,3.12,7.1,4.73A23.29,23.29,0,0,0,90,155.89a15.29,15.29,0,0,0,5.32,1.29,5.16,5.16,0,0,0,.79-.06,4.49,4.49,0,0,0,.8-.1,13.13,13.13,0,0,0,1.62-.49,10.67,10.67,0,0,0,2.22-1.22,9.73,9.73,0,0,0,1.84-1.79,26.55,26.55,0,0,0,2.16-3.49c.16-.27.29-.55.46-.81.64-1,1-1.18,1.67-1a2.35,2.35,0,0,1,.45.14c.45.21.5.83.14,1.57a35.28,35.28,0,0,1-1.84,3.36,16.14,16.14,0,0,1-2.71,3.31,12.27,12.27,0,0,1-6,2.86Z"/><path class="cls-2" d="M476.87,161.51c-24.49,1.49-35.48-23.64-35.34-27.59,7.3-6,13.86-17.12,15.32-24.16,3.65,0,10.34-1,10.33-7.11s-3.32-7-8.32-2.42a.52.52,0,0,1-.87-.48c3.38-16.17-10.27-32.33-15.23-31.47-40.06,7-36.47,66-16.6,69.78-2.75,7.45-11.36,13-19.85,12.33-38.42-2.89-14.21-43.33-11.56-48.87,5.31-11.12,2.72-23.21,6.47-34.43,9.58-28.69,44.34-15.81,44.84-12.91,2.08-2.08,12.95-7.74,22.4-6,25.91,4.9,27.63,36.31,27.82,46.2.15,7.84-2.14,15.49-4.12,23C490.68,123.05,501.12,160,476.87,161.51Z"/><path class="cls-2" d="M400.47,76.33c-.88,7.09-.78,14.59-3.17,21.78a27.93,27.93,0,0,1-1,2.63l-.56,1.3-.64,1.24c-.85,1.62-1.68,3.21-2.47,4.84a85.15,85.15,0,0,0-4.17,9.93A47.64,47.64,0,0,0,386,128.42a21.77,21.77,0,0,0,1.09,10.26,14.9,14.9,0,0,0,2.68,4.29,9.67,9.67,0,0,0,.92.89,7.7,7.7,0,0,0,1,.84,16.29,16.29,0,0,0,2.16,1.4,28.66,28.66,0,0,0,10,3,36.64,36.64,0,0,0,3.84.33,17.67,17.67,0,0,0,3.75-.42,19.76,19.76,0,0,0,6.94-3,18.37,18.37,0,0,0,5.3-5.31,14.65,14.65,0,0,0,.94-1.63,1.94,1.94,0,0,0,.1-.19l0-.11c0-.07.14-.16-.08-.19l-.44-.12-.22-.07a4.23,4.23,0,0,1-.45-.21l-1-.46-.48-.24-.44-.3a17.1,17.1,0,0,1-5.14-5.27,28.69,28.69,0,0,1-3.17-6.49,46.15,46.15,0,0,1-2.5-14,51.84,51.84,0,0,1,1.47-14.15,45.79,45.79,0,0,1,5.42-13.17,35.39,35.39,0,0,1,9.73-10.41,36.25,36.25,0,0,1,13-5.71l1.74-.38c.16,0,.27-.07.46-.09s.38,0,.57,0a4.71,4.71,0,0,1,1,.18,10.25,10.25,0,0,1,3.29,1.85,26.79,26.79,0,0,1,4.88,5.28,36.75,36.75,0,0,1,5.91,12.94,30.59,30.59,0,0,1,.78,7.26c0,.62-.06,1.23-.1,1.84l-.1.91,0,.28c0,.07,0,.15,0,.22l-.07.42c0,.13-.07.31.06.4a.29.29,0,0,0,.39-.07l.32-.28.21-.17.32-.24c.31-.23.65-.43,1-.65a7.35,7.35,0,0,1,2.27-.91,3.31,3.31,0,0,1,2.63.51,4.22,4.22,0,0,1,1.41,2.18,10.19,10.19,0,0,1,.38,2.35,9.52,9.52,0,0,1-.13,2.37,6.46,6.46,0,0,1-2.56,4.07,11,11,0,0,1-4.33,1.8,17.37,17.37,0,0,1-2.28.32l-.57,0h-.32a.9.9,0,0,0-.24,0l-.06.26c0,.09-.12.55-.24.89l-.33,1.09c-.25.7-.49,1.42-.78,2.11-.55,1.39-1.2,2.73-1.88,4.06a56.22,56.22,0,0,1-9.3,13.07l-1.46,1.41-.76.67-.19.17a.46.46,0,0,0-.07.07v.1a1.8,1.8,0,0,0,0,.22,3.82,3.82,0,0,0,.09.44c.06.3.16.6.25.91.18.6.41,1.21.64,1.81a40.4,40.4,0,0,0,3.67,6.86,39.55,39.55,0,0,0,10.83,11.08,30.51,30.51,0,0,0,14.47,5.14c1.61.12,2.76.17,3.51.19s1.08.11,1,.2-1.67.57-4.5.63a28.37,28.37,0,0,1-11.5-2.43,35.2,35.2,0,0,1-13.23-10.47,44.5,44.5,0,0,1-4.93-7.69,33,33,0,0,1-1.8-4.26c-.13-.36-.23-.76-.34-1.14l-.14-.61a2.61,2.61,0,0,1-.06-.32c0-.12-.06-.35-.07-.52l0-.54v-.28c0-.09,0-.19.07-.24q.38-.37.81-.75l.84-.73A52.43,52.43,0,0,0,452.29,118c.66-1.28,1.3-2.58,1.83-3.91.29-.66.51-1.34.76-2l.31-1c.05-.17.11-.34.15-.5l.2-.85.26-1.07c0-.26.27-.14.43-.17h1.1l.48,0,.52,0a17,17,0,0,0,2-.28,8.91,8.91,0,0,0,3.59-1.45,4.5,4.5,0,0,0,1.85-2.89,9.21,9.21,0,0,0-.2-3.8,2.39,2.39,0,0,0-.72-1.22,1.43,1.43,0,0,0-1.15-.18,5.83,5.83,0,0,0-1.66.68c-.28.19-.56.35-.84.56l-.67.51-.84.73-1.14.43c-.21.1-.3,0-.51,0a1.75,1.75,0,0,1-.59-.27,1.69,1.69,0,0,1-.4-.41s0-.18,0-.29v-.35l0-1.38v-.35c0-.13.05-.29.07-.44l.08-.63.09-.87c0-.58.09-1.16.08-1.75a28,28,0,0,0-.81-7,35.06,35.06,0,0,0-6.1-12.75,21.33,21.33,0,0,0-5-4.85,7.59,7.59,0,0,0-1.41-.73,3.63,3.63,0,0,0-.66-.15.9.9,0,0,0-.28,0H443l-.22,0c-1.16.26-2.34.49-3.5.77a33.51,33.51,0,0,0-12.66,6.48,35.5,35.5,0,0,0-3.47,3.25l-1.54,1.84c-.53.6-.94,1.29-1.42,1.94a39.37,39.37,0,0,0-4.45,8.57,50.74,50.74,0,0,0-2.48,9.45,51.88,51.88,0,0,0-.58,9.81c.22,6.54,1.61,13.22,4.94,18.8a15.41,15.41,0,0,0,6.86,6.34,2.93,2.93,0,0,0,.29.13l.45.12.89.26.9.25.22.06c.06,0,.19,0,.11.13l-.2.48-.41,1-.21.48c-.07.16-.14.34-.19.42l-.62,1.16a20.75,20.75,0,0,1-3.25,4.08,22,22,0,0,1-9.89,5.49,19.13,19.13,0,0,1-5.69.58c-1,0-1.87-.18-2.8-.27-.47-.05-.93-.09-1.39-.16l-1.38-.27a25.28,25.28,0,0,1-10.44-4.22l-.59-.41-.53-.49-1.06-1-.93-1.12-.46-.56-.38-.61a16.55,16.55,0,0,1-2.25-5.28,24.37,24.37,0,0,1-.61-5.64,35.89,35.89,0,0,1,.55-5.59,57,57,0,0,1,3.07-10.7,102.64,102.64,0,0,1,4.57-10.08c.82-1.66,1.77-3.22,2.42-4.88a33.57,33.57,0,0,0,1.71-5.1c2.15-8.63,1.26-17.9,3.88-26.78a29.4,29.4,0,0,1,6.61-12,24.45,24.45,0,0,1,11.83-6.89,36,36,0,0,1,13.93-.63,43,43,0,0,1,6.82,1.5,33.18,33.18,0,0,1,3.29,1.19A14.13,14.13,0,0,1,445.81,53a1.14,1.14,0,0,1,.28.3s0,.11.05.09l.09-.08.19-.16.51-.37.72-.45c.48-.29,1-.58,1.47-.84,1-.52,2-1,3-1.42a37.75,37.75,0,0,1,6.4-2,28.84,28.84,0,0,1,6.69-.68c.56,0,1.12,0,1.68.11l1.68.24c1.09.27,2.2.45,3.25.82a28.66,28.66,0,0,1,11.55,6.58,35.34,35.34,0,0,1,7.68,10.79,58.75,58.75,0,0,1,4.59,15.17,86.17,86.17,0,0,1,1.22,15.71,72.64,72.64,0,0,1-2.63,15.49l-1,3.78L493,117a6.4,6.4,0,0,0-.2.89,10.46,10.46,0,0,0-.07,1.8c.11,2.53.43,5.13.66,7.73a92,92,0,0,1,.46,13.82A34,34,0,0,1,491.66,152a16.53,16.53,0,0,1-4.43,6.26,11.6,11.6,0,0,1-1.17.91l-1.14.7a18.68,18.68,0,0,1-2.07.89c-.66.18-1.24.34-1.77.46s-1.05.12-1.52.16a15,15,0,0,1-2.46,0c-.42-.05-.29-.15.31-.31.3-.07.71-.16,1.24-.26s1.15-.31,1.88-.49a15.22,15.22,0,0,0,5-2.6,15.73,15.73,0,0,0,4.52-6.37c1.66-4.17,2.06-8.84,2.09-13.47a137.92,137.92,0,0,0-.94-14.09c-.11-1.2-.23-2.39-.28-3.63a15.15,15.15,0,0,1,0-1.91,6.39,6.39,0,0,1,.14-1.09l.23-.89c.61-2.32,1.23-4.63,1.79-7a60,60,0,0,0,2-14A87.41,87.41,0,0,0,493.8,81a56.89,56.89,0,0,0-4.1-13.73,33.59,33.59,0,0,0-8.23-11.44,27.68,27.68,0,0,0-12.56-6.14,23.83,23.83,0,0,0-11.18.46A35.23,35.23,0,0,0,452.3,52c-.88.38-1.74.81-2.59,1.25-.4.24-.83.46-1.22.72l-.58.37a11.44,11.44,0,0,0-1,.75l-1.08-.34-1.08-.35a28.63,28.63,0,0,0-6.82-2.8,42,42,0,0,0-7.45-1.38,31,31,0,0,0-14.78,1.94,22.47,22.47,0,0,0-10.88,9.72,37.34,37.34,0,0,0-4.35,14.43Z"/><path class="cls-2" d="M421,162c.42,1.17.49,1.43.39,1.65a2.84,2.84,0,0,0-.08,2.12c.07.15.13.3.21.45s0,0,0,.05,0,0,0,0l.12,0c.06,0,.18-.12.27-.17s.11-.12.19-.17a1.67,1.67,0,0,0,.22-.6,2.31,2.31,0,0,0-.17-1.4c-.05-.08-.07-.11-.13-.09s0,.06-.24.29c-.06,0-.1.05-.2,0a1.7,1.7,0,0,1-.87-.7c0-.08-.12-.21-.1-.24s.05-.43.08-.7a1.06,1.06,0,0,1,.42-.73,2.68,2.68,0,0,1,1.72-.15,2.21,2.21,0,0,1,.82.39,3,3,0,0,1,.62.68,2.47,2.47,0,0,1,.42,1.12,4.4,4.4,0,0,1-.08,1.36,5.55,5.55,0,0,1-.16.84,3.69,3.69,0,0,1-.76,1.4l-.37.35-.4.26a2.83,2.83,0,0,1-1,.41,5.1,5.1,0,0,1-.68,0,2.59,2.59,0,0,1-.67-.2,2.55,2.55,0,0,1-1-.88,3.56,3.56,0,0,1-.58-2,4.47,4.47,0,0,1,.25-1.65,3.79,3.79,0,0,1,.92-1.48A2.1,2.1,0,0,1,421,162Z"/><path class="cls-2" d="M423.23,168.47c.42,1.17.49,1.43.39,1.65a2.87,2.87,0,0,0-.08,2.13l.21.45s0,0,0,0,0,0,0,0l.12,0c.07,0,.18-.13.28-.17s.11-.12.18-.18a1.69,1.69,0,0,0,.23-.59,2.28,2.28,0,0,0-.18-1.4c0-.08-.07-.11-.13-.1s0,.07-.24.29c-.06,0-.1.05-.2,0a1.63,1.63,0,0,1-.86-.7c0-.08-.13-.21-.11-.24s.06-.42.08-.7a1,1,0,0,1,.43-.72,2.58,2.58,0,0,1,1.71-.15,2.25,2.25,0,0,1,.83.39,3.27,3.27,0,0,1,.62.68,2.67,2.67,0,0,1,.42,1.12,4.75,4.75,0,0,1-.09,1.36,5.28,5.28,0,0,1-.16.83,3.49,3.49,0,0,1-.76,1.4c-.12.12-.24.25-.37.36l-.4.26a2.84,2.84,0,0,1-1,.4,3.89,3.89,0,0,1-.68,0,3,3,0,0,1-.67-.19,2.67,2.67,0,0,1-1-.88,3.58,3.58,0,0,1-.58-2,4.43,4.43,0,0,1,.26-1.65,3.93,3.93,0,0,1,.91-1.49A2.64,2.64,0,0,1,423.23,168.47Z"/><path class="cls-2" d="M430.27,167.5c.42,1.17.49,1.43.39,1.65a2.84,2.84,0,0,0-.08,2.12l.21.45s0,0,0,.05,0,0,0,0l.12-.05c.07,0,.18-.12.27-.17s.12-.12.19-.17a1.67,1.67,0,0,0,.23-.6,2.3,2.3,0,0,0-.18-1.4c0-.08-.07-.11-.13-.09s0,.06-.24.29c-.06,0-.1,0-.2,0a1.69,1.69,0,0,1-.87-.7c0-.08-.12-.21-.1-.24s.05-.43.08-.7a1,1,0,0,1,.43-.73,2.65,2.65,0,0,1,1.71-.15,2.14,2.14,0,0,1,.82.39,3.3,3.3,0,0,1,.63.68,2.56,2.56,0,0,1,.41,1.12,4.4,4.4,0,0,1-.08,1.36,5.55,5.55,0,0,1-.16.84,3.56,3.56,0,0,1-.76,1.4c-.12.12-.24.24-.37.35l-.4.26a2.83,2.83,0,0,1-1,.41,5,5,0,0,1-.67,0,2.59,2.59,0,0,1-.67-.2,2.51,2.51,0,0,1-1-.88,3.56,3.56,0,0,1-.58-2,4.47,4.47,0,0,1,.25-1.65,3.93,3.93,0,0,1,.92-1.48A2.16,2.16,0,0,1,430.27,167.5Z"/><path class="cls-2" d="M436.9,159.54c.43,1.17.5,1.43.4,1.65a2.87,2.87,0,0,0-.09,2.13l.21.44s0,0,0,.05,0,0,0,0l.12,0c.07,0,.18-.12.28-.16s.11-.13.18-.18a1.51,1.51,0,0,0,.23-.6,2.26,2.26,0,0,0-.18-1.39c0-.08-.06-.12-.13-.1s0,.07-.24.29c-.06,0-.1.05-.2,0a1.67,1.67,0,0,1-.86-.7c0-.08-.13-.21-.11-.24s.06-.43.08-.7a1,1,0,0,1,.43-.72,2.61,2.61,0,0,1,1.72-.16,2.16,2.16,0,0,1,.82.4,3,3,0,0,1,.62.67,2.59,2.59,0,0,1,.42,1.12,4.8,4.8,0,0,1-.08,1.37,5.69,5.69,0,0,1-.17.83,3.43,3.43,0,0,1-.76,1.4c-.11.12-.24.24-.37.36l-.4.26a2.71,2.71,0,0,1-1,.4,5.15,5.15,0,0,1-.68,0,2.59,2.59,0,0,1-.67-.2,2.51,2.51,0,0,1-1-.88,3.6,3.6,0,0,1-.57-2,4.39,4.39,0,0,1,.25-1.64,3.78,3.78,0,0,1,.92-1.49A2.11,2.11,0,0,1,436.9,159.54Z"/></g></svg>