<svg id="Layer_1" data-name="Layer 1" xmlns="http://www.w3.org/2000/svg" width="520" height="520" viewBox="0 0 520 520"><defs><style>.cls-1{fill:#221f1f;}.cls-2{opacity:0.6;}.cls-3{opacity:0.67;}.cls-4{fill:#232020;}</style></defs><title>Notioly v2</title><g id="_16.Drinking" data-name="16.Drinking"><path class="cls-1" d="M275.51,312.63a28.68,28.68,0,0,1-7.7,4.2c-.5.19-1,.35-1.52.52a10.12,10.12,0,0,1-1.55.42,23,23,0,0,1-11.15-.34,24.06,24.06,0,0,1-4.65-1.8,10.86,10.86,0,0,1-4.81-4.27c-.34-.61.27-.83,1.06-.75a4.57,4.57,0,0,1,2.51,1.05,19.57,19.57,0,0,0,10.38,4.3,18.34,18.34,0,0,0,7.18-.76,25.22,25.22,0,0,0,7.32-3.38,28.29,28.29,0,0,0,3.9-3.19,32.12,32.12,0,0,0,4.81-6,25.17,25.17,0,0,0,1.39-2.61l.61-1.34.55-1.36.47-1.2c.57-1.51.91-1.92,1.65-2a4.36,4.36,0,0,1,.49-.06c.53,0,.65.8.32,2a32.61,32.61,0,0,1-5.09,10.24,33.56,33.56,0,0,1-6.13,6.36Z"/><g class="cls-2"><path class="cls-1" d="M369.56,388c0-.07,0-.13.09-.18s.1,0,.11,0a.54.54,0,0,1,.05.11s0,.4.05.53a2.17,2.17,0,0,1,0,.36v.75a1,1,0,0,1,0,.17,3.49,3.49,0,0,0,0,.56s0,.07,0,.1,0,.56,0,.63,0,.33-.05.5c0,0,0,0,0,.07a.4.4,0,0,0,0,.15,1.48,1.48,0,0,1,0,.21.49.49,0,0,1,0,.11s-.05,0-.06,0,0,0-.05,0h0a3.75,3.75,0,0,1-.09-.46s0-.6,0-.67a.41.41,0,0,1,0-.11s0-.49,0-.51a1.51,1.51,0,0,1,0-.3s0,0,0-.06c0-.17,0-.34,0-.51a2.25,2.25,0,0,0,0-.26v-.1c0-.21,0-.41,0-.62,0-.05,0-.27,0-.33S369.57,388,369.56,388Z"/><path class="cls-1" d="M367.83,390.06c-.06,0-.1,0-.15-.09s0-.09,0-.1a.31.31,0,0,1,.1-.05l.45-.06h1.11a2,2,0,0,0,.49,0h.08a3.35,3.35,0,0,1,.55,0l.43.05H371a.24.24,0,0,0,.14,0l.18,0,.09,0s0,.06,0,.07,0,0,0,.05v0a3.23,3.23,0,0,1-.39.09l-.59,0h-.09s-.43,0-.45,0a1,1,0,0,1-.25,0h-.05a3.2,3.2,0,0,1-.44,0h-.32c-.18,0-.36,0-.54,0l-.28,0Z"/><path class="cls-1" d="M368.45,388.44c-.05,0-.05-.1,0-.18s.06-.07.08-.06l.11.05s.26.27.34.35a2.85,2.85,0,0,1,.23.26c.14.18.29.36.43.55l.09.12a2.78,2.78,0,0,0,.31.43l.07.07a4.23,4.23,0,0,1,.37.45c.08.14.16.27.25.4s0,0,0,.06,0,.09.07.13l.1.16a.42.42,0,0,1,0,.1s0,.05-.05,0,0,0,0,0l0,0a3.8,3.8,0,0,1-.33-.28l-.42-.48a.56.56,0,0,1,0-.08l-.32-.36a1.14,1.14,0,0,1-.15-.23l0-.05c-.1-.12-.19-.25-.28-.38l-.15-.19a.05.05,0,0,1,0,0l0,0c-.13-.15-.23-.31-.36-.45l-.17-.26S368.48,388.46,368.45,388.44Z"/><path class="cls-1" d="M368.72,391.29c0,.06-.09.07-.17,0s-.08,0-.07-.07a.36.36,0,0,1,0-.11l.27-.37a2.43,2.43,0,0,1,.2-.25l.42-.49.11-.1a2.83,2.83,0,0,0,.34-.35.18.18,0,0,0,.05-.07,3.3,3.3,0,0,1,.36-.41l.32-.29s0,0,.05,0a.31.31,0,0,0,.11-.08,1.59,1.59,0,0,1,.13-.13l.09,0s.05,0,.05,0,0,0,0,0h0a2.23,2.23,0,0,1-.2.36l-.36.45a.46.46,0,0,1-.07.07l-.28.34a1,1,0,0,1-.18.18l0,0c-.09.11-.2.21-.3.32l-.15.17,0,0,0,0a4.36,4.36,0,0,0-.35.4s-.18.15-.21.19S368.73,391.27,368.72,391.29Z"/></g><path class="cls-1" d="M346.47,311.17c0-.07,0-.12.09-.18s.09,0,.1,0a.61.61,0,0,1,0,.12s0,.39.06.52,0,.24,0,.36,0,.5,0,.75c0,.06,0,.11,0,.17a3.62,3.62,0,0,0,0,.57.28.28,0,0,0,0,.09,4.39,4.39,0,0,1,0,.63c0,.17,0,.33,0,.5s0,.05,0,.07a.27.27,0,0,0,0,.15,1.64,1.64,0,0,1,0,.22.38.38,0,0,1,0,.1s-.06,0-.07,0,0,0-.05,0h0a4,4,0,0,1-.09-.45s0-.61,0-.68,0-.07,0-.11,0-.49,0-.51a1.38,1.38,0,0,1,0-.29.13.13,0,0,0,0-.06,4.34,4.34,0,0,1,0-.51v-.31s0,0,0-.06c0-.21,0-.41,0-.62,0,0,0-.27,0-.32S346.47,311.2,346.47,311.17Z"/><path class="cls-1" d="M344.74,313.24c-.06,0-.11,0-.15-.09s0-.1,0-.11l.1-.05.45-.05a1.77,1.77,0,0,1,.32,0h.79a2.79,2.79,0,0,0,.5,0h.63l.43.05s0,0,.06,0a.2.2,0,0,0,.13,0l.18,0,.09,0s0,.05,0,.06,0,0,0,.05v0l-.4.09-.58,0h-.1l-.44,0a1.14,1.14,0,0,1-.26,0h-.81a4.69,4.69,0,0,0-.53,0l-.29,0S344.76,313.23,344.74,313.24Z"/><path class="cls-1" d="M345.36,311.62c-.06,0-.06-.11,0-.19s.07-.07.08-.06l.11.05s.26.27.35.35a2.75,2.75,0,0,1,.22.26c.14.19.29.37.44.55a.57.57,0,0,1,.08.13,3.32,3.32,0,0,0,.32.42.2.2,0,0,0,.06.07,3.54,3.54,0,0,1,.37.46l.25.39s0,0,0,.06a.27.27,0,0,0,.07.13c0,.05.07.11.11.17l0,.09s0,.05-.05.05,0,0,0,0h0l-.34-.28-.41-.48-.06-.08-.31-.36a1.19,1.19,0,0,1-.16-.23l0,0c-.1-.13-.19-.26-.29-.38a1.39,1.39,0,0,0-.15-.19l0,0,0-.05c-.12-.15-.23-.31-.36-.45s-.13-.22-.17-.26S345.38,311.63,345.36,311.62Z"/><path class="cls-1" d="M345.62,314.46c0,.06-.08.07-.17.05a.12.12,0,0,1-.07-.07l0-.11.26-.37a2.43,2.43,0,0,1,.2-.25l.43-.48a.94.94,0,0,1,.1-.1,2.31,2.31,0,0,0,.34-.36.18.18,0,0,0,.05-.07,4.4,4.4,0,0,1,.36-.41l.32-.28s0,0,0,0a.24.24,0,0,0,.11-.08l.14-.13.08,0s.06,0,0,0,0,0,0,0l0,0-.2.35-.37.46-.07.06-.27.35a.77.77,0,0,1-.19.17l0,0c-.09.11-.2.22-.3.32l-.15.17,0,0,0,0c-.11.14-.24.26-.35.4s-.18.16-.21.2S345.63,314.44,345.62,314.46Z"/><g class="cls-2"><path class="cls-1" d="M122.9,329.53q0-.11.09-.18s.09,0,.1,0a.54.54,0,0,1,0,.11s0,.4.06.52,0,.25,0,.37,0,.5,0,.75a1,1,0,0,1,0,.17,5.33,5.33,0,0,0,0,.56.31.31,0,0,0,0,.1,4.37,4.37,0,0,1,0,.63c0,.17,0,.33,0,.5a.17.17,0,0,1,0,.07.27.27,0,0,0,0,.15,1.49,1.49,0,0,1,0,.21.45.45,0,0,1,0,.11s-.06,0-.06,0,0,0-.06,0h0a3.93,3.93,0,0,1-.08-.46s0-.6,0-.67,0-.07,0-.11,0-.49,0-.51a1.51,1.51,0,0,1,0-.3.13.13,0,0,0,0-.06,4.34,4.34,0,0,1,0-.51v-.3a.13.13,0,0,0,0-.06c0-.21,0-.41,0-.62,0-.05,0-.27,0-.33S122.91,329.55,122.9,329.53Z"/><path class="cls-1" d="M121.17,331.59q-.09,0-.15-.09a.12.12,0,0,1,0-.1l.1,0,.45-.06h1.11a2.1,2.1,0,0,0,.5,0h.08a3.33,3.33,0,0,1,.55,0l.43.05h.06a.21.21,0,0,0,.13,0l.19,0a.18.18,0,0,1,.09,0s0,.05,0,.06,0,0,0,.05v0l-.4.09-.58,0h-.1s-.42,0-.44,0a1.13,1.13,0,0,1-.26,0h-.05a3.23,3.23,0,0,1-.44,0h-.32c-.17,0-.35,0-.53,0l-.28,0Z"/><path class="cls-1" d="M121.79,330c-.05,0-.06-.1,0-.18s.07-.07.09-.06l.1,0s.26.27.35.35a2.75,2.75,0,0,1,.22.26l.44.55.09.12a2.78,2.78,0,0,0,.31.43l.06.07a3.28,3.28,0,0,1,.37.45c.08.14.17.27.25.4s0,0,0,.06a.33.33,0,0,0,.07.13l.11.16a.38.38,0,0,1,0,.1s0,.05,0,0,0,0,0,0v0l-.34-.28-.41-.48-.06-.08s-.3-.35-.31-.36a1.19,1.19,0,0,1-.16-.23l0,0c-.1-.12-.19-.25-.29-.38l-.15-.19,0,0,0-.05c-.12-.15-.23-.31-.36-.45s-.13-.22-.17-.26S121.81,330,121.79,330Z"/><path class="cls-1" d="M122.05,332.82c0,.06-.08.07-.16.05a.11.11,0,0,1-.08-.07l0-.11.26-.37a2.43,2.43,0,0,1,.2-.25c.15-.16.29-.32.43-.49l.1-.1a2.32,2.32,0,0,0,.35-.35.43.43,0,0,0,0-.07s.32-.37.36-.41l.33-.29,0,0a.15.15,0,0,0,.11-.08l.14-.12a.25.25,0,0,1,.09,0s0,0,0,0,0,0,0,0h0l-.2.36s-.33.41-.37.45l-.07.07-.27.34a.81.81,0,0,1-.19.18l0,0-.31.32-.15.17,0,0,0,0c-.11.13-.24.26-.35.4s-.18.15-.21.19S122.06,332.8,122.05,332.82Z"/></g><g class="cls-3"><path class="cls-1" d="M332.1,353.67c0-.06,0-.12.09-.17s.1,0,.11,0a1.17,1.17,0,0,1,.05.11s0,.39,0,.52a2.3,2.3,0,0,1,0,.37v.75a.86.86,0,0,1,0,.16,3.62,3.62,0,0,0,0,.57.17.17,0,0,0,0,.1c0,.05,0,.56,0,.63s0,.33-.05.49a.15.15,0,0,1,0,.07.5.5,0,0,0,0,.16,1.48,1.48,0,0,1,0,.21s0,.07,0,.11,0,0-.06,0,0,0,0,0h0s-.09-.42-.09-.46,0-.61,0-.68a.17.17,0,0,1,0-.1s0-.5,0-.51a1,1,0,0,1,0-.3v-.06c0-.17,0-.34,0-.51a2.26,2.26,0,0,0,0-.26.43.43,0,0,0,0-.05v-.06c0-.2,0-.41,0-.61s0-.27,0-.33S332.11,353.7,332.1,353.67Z"/><path class="cls-1" d="M330.37,355.74c-.06,0-.1,0-.15-.09s0-.09,0-.1l.1-.06.45-.05.32,0h.79a4,4,0,0,0,.49,0h.08a3.35,3.35,0,0,1,.55,0l.43.05h.06a.24.24,0,0,0,.14,0l.18,0,.09,0s0,.06,0,.06,0,0,0,.06v0a3.33,3.33,0,0,1-.39.08l-.59,0h-.09s-.43,0-.45,0a.71.71,0,0,1-.25,0h-.05a3.38,3.38,0,0,1-.45,0h-.85s-.23,0-.28,0S330.4,355.73,330.37,355.74Z"/><path class="cls-1" d="M331,354.12c-.05,0-.05-.1,0-.18s.06-.07.08-.06l.11.05s.26.26.34.35a2.85,2.85,0,0,1,.23.26l.43.54.09.13a4.25,4.25,0,0,0,.31.43s0,.05.07.06a5.72,5.72,0,0,1,.37.46l.25.4a.09.09,0,0,1,0,.06c0,.05,0,.08.06.12a1.63,1.63,0,0,1,.11.17.42.42,0,0,1,0,.1s0,0-.05,0,0,0,0,0h0a2,2,0,0,1-.33-.28s-.37-.43-.42-.47l-.05-.09-.32-.36a1.07,1.07,0,0,1-.15-.22.1.1,0,0,0,0-.05c-.1-.12-.19-.25-.28-.38l-.15-.19,0,0a.09.09,0,0,0,0-.05c-.12-.14-.22-.3-.35-.45s-.14-.21-.17-.25S331,354.14,331,354.12Z"/><path class="cls-1" d="M331.26,357s-.09.06-.17,0-.08-.06-.07-.08a.36.36,0,0,1,0-.1l.27-.38a2.12,2.12,0,0,1,.2-.24l.42-.49.11-.1c.12-.11.23-.23.34-.35a.18.18,0,0,0,.05-.07,2.3,2.3,0,0,1,.36-.41l.32-.29.05,0a.23.23,0,0,0,.11-.08l.13-.12.09,0s.05,0,.05,0,0,0,0,0h0a1.82,1.82,0,0,1-.2.35s-.33.41-.36.46l-.07.06-.28.35a1.53,1.53,0,0,1-.18.18l0,0c-.09.12-.2.22-.3.33l-.15.16,0,0a.08.08,0,0,0,0,0c-.12.13-.25.25-.36.39s-.17.16-.2.2S331.27,356.94,331.26,357Z"/></g><path class="cls-1" d="M350.18,317.29c0-.06,0-.12.09-.17a.09.09,0,0,1,.1,0l.06.11s0,.4.05.52,0,.25,0,.37v.75a.86.86,0,0,1,0,.16,5.43,5.43,0,0,0,0,.57.34.34,0,0,0,0,.1,4.37,4.37,0,0,1,0,.63c0,.16,0,.33-.05.5a.17.17,0,0,1,0,.07.27.27,0,0,0,0,.15,1.49,1.49,0,0,1,0,.21.45.45,0,0,1,0,.11s-.06,0-.06,0,0,0-.06,0h0a2.68,2.68,0,0,1-.09-.46s0-.61,0-.67a.41.41,0,0,1,0-.11s0-.49,0-.51a1,1,0,0,1,0-.3v-.06a4.34,4.34,0,0,1,0-.51v-.26a.11.11,0,0,1,0-.05v-.05c0-.21,0-.41,0-.62,0,0,0-.27,0-.33S350.19,317.32,350.18,317.29Z"/><path class="cls-1" d="M348.45,319.36q-.09,0-.15-.09a.17.17,0,0,1,0-.1l.1-.05.46-.06H350a3.93,3.93,0,0,0,.49,0h.08a3.33,3.33,0,0,1,.55,0l.43.05h.06a.21.21,0,0,0,.13,0l.19,0,.09,0s0,.06,0,.06,0,0,0,.06v0a2,2,0,0,1-.4.08l-.58,0h-.09l-.45,0a1,1,0,0,1-.25,0h-.06a3.27,3.27,0,0,1-.44,0h-.85s-.24,0-.28,0S348.47,319.35,348.45,319.36Z"/><path class="cls-1" d="M349.07,317.74a.14.14,0,0,1,0-.18s.07-.07.09-.06l.1.05.35.35a2.75,2.75,0,0,1,.22.26l.44.54.09.13a4.25,4.25,0,0,0,.31.43l.06.06a5.81,5.81,0,0,1,.38.46c.07.14.16.27.24.4s0,0,0,.06a.17.17,0,0,0,.06.12,1.63,1.63,0,0,1,.11.17.38.38,0,0,1,0,.1s0,.05,0,0,0,0,0,0h0a2,2,0,0,1-.33-.28s-.37-.43-.42-.47l0-.08-.32-.37a1.77,1.77,0,0,1-.16-.22s0,0,0-.05-.19-.25-.28-.38l-.16-.19,0,0,0,0c-.12-.15-.23-.31-.36-.45s-.13-.22-.17-.26S349.09,317.76,349.07,317.74Z"/><path class="cls-1" d="M349.34,320.59a.14.14,0,0,1-.17.05.19.19,0,0,1-.08-.07l0-.11s.2-.28.26-.38l.2-.24c.15-.16.29-.33.43-.49l.1-.1a3.85,3.85,0,0,0,.35-.35.43.43,0,0,0,0-.07,4.59,4.59,0,0,1,.36-.41l.33-.29a.11.11,0,0,1,.05,0c.05,0,.07,0,.11-.08l.13-.12.09-.05s.05,0,.05,0,0,0,0,0h0a2.57,2.57,0,0,1-.2.35l-.37.46s0,0-.06.06l-.28.35a1.09,1.09,0,0,1-.19.18l0,0-.3.32a1.22,1.22,0,0,0-.15.17l0,0,0,0a4.64,4.64,0,0,0-.36.4s-.18.15-.21.19S349.35,320.56,349.34,320.59Z"/><g class="cls-3"><path class="cls-1" d="M361.69,384.19c0-.07,0-.13.09-.18s.1,0,.11,0a.37.37,0,0,0,.05.11s0,.4.05.53,0,.24,0,.36v.75a1,1,0,0,1,0,.17,5.43,5.43,0,0,0,0,.57.28.28,0,0,0,0,.09,4.39,4.39,0,0,1,0,.63c0,.17,0,.33-.05.5a.17.17,0,0,1,0,.07.4.4,0,0,0,0,.15,1.7,1.7,0,0,1,0,.22l0,.1s-.06,0-.06,0,0,0-.05,0h0a3.75,3.75,0,0,1-.09-.46s0-.6,0-.67a.41.41,0,0,1,0-.11s0-.49,0-.51a1,1,0,0,1,0-.3v-.05c0-.17,0-.34,0-.51v-.26a.07.07,0,0,1,0,0v-.06c0-.21,0-.41,0-.62,0,0,0-.27,0-.32S361.7,384.22,361.69,384.19Z"/><path class="cls-1" d="M360,386.26c-.06,0-.11,0-.15-.09s0-.1,0-.11l.09-.05.46-.05a1.67,1.67,0,0,1,.32,0h.79a2,2,0,0,0,.49,0h.08a5,5,0,0,1,.55,0c.14,0,.29,0,.43.06s0,0,.06,0a.21.21,0,0,0,.13,0l.19,0,.09,0s0,.05,0,.06,0,0,0,.05v0l-.4.09-.58,0h-.09l-.45,0a1.06,1.06,0,0,1-.25,0h-.05l-.45,0h-.31c-.18,0-.36,0-.54,0l-.28,0S360,386.25,360,386.26Z"/><path class="cls-1" d="M360.58,384.64c-.05,0-.05-.11,0-.19s.07-.07.09-.06l.1.05.35.35a2.75,2.75,0,0,1,.22.26l.44.55.09.13a3.25,3.25,0,0,0,.31.42l.07.07a3.54,3.54,0,0,1,.37.46l.24.39a.21.21,0,0,1,0,.06c0,.05,0,.09.06.13a1,1,0,0,1,.11.17.14.14,0,0,1,0,.09s0,.05,0,0,0,0,0,0h0a3.8,3.8,0,0,1-.33-.28l-.42-.48a.22.22,0,0,1-.05-.08l-.32-.36a1.88,1.88,0,0,1-.16-.23s0,0,0,0l-.28-.39-.15-.19,0,0,0,0c-.12-.15-.23-.31-.35-.45s-.14-.22-.18-.26S360.61,384.65,360.58,384.64Z"/><path class="cls-1" d="M360.85,387.48c0,.06-.09.07-.17,0a.11.11,0,0,1-.08-.07l0-.11.26-.37a2.43,2.43,0,0,1,.2-.25l.43-.48a.52.52,0,0,1,.11-.1,3.89,3.89,0,0,0,.34-.36.18.18,0,0,0,0-.07,4.25,4.25,0,0,1,.35-.41c.12-.09.22-.19.33-.29a.09.09,0,0,1,.05,0,.31.31,0,0,0,.11-.08.8.8,0,0,1,.13-.13l.09,0s.05,0,.05,0,0,0,0,0l0,0a2.18,2.18,0,0,1-.2.35l-.37.45s0,.05-.06.07l-.28.34a.77.77,0,0,1-.18.18l0,0-.3.32a1.22,1.22,0,0,0-.15.17l0,0,0,0c-.12.14-.25.26-.36.4s-.18.16-.2.19S360.86,387.46,360.85,387.48Z"/></g><path class="cls-1" d="M347.23,403.32c0-.06,0-.12.09-.17a.09.09,0,0,1,.1,0,.37.37,0,0,1,.05.11s0,.4.06.52,0,.25,0,.37,0,.5,0,.75a.86.86,0,0,1,0,.16,5.43,5.43,0,0,0,0,.57.34.34,0,0,0,0,.1,4.37,4.37,0,0,1,0,.63c0,.16,0,.33-.05.5a.2.2,0,0,1,0,.07.27.27,0,0,0,0,.15,1.49,1.49,0,0,1,0,.21.45.45,0,0,1,0,.11s-.06,0-.06,0,0,0-.06,0h0s-.08-.42-.08-.46,0-.61,0-.67,0-.08,0-.11,0-.49,0-.51a1,1,0,0,1,0-.3v-.06a4.34,4.34,0,0,1,0-.51v-.31a.11.11,0,0,0,0-.05c0-.21,0-.42,0-.62s0-.27,0-.33S347.24,403.35,347.23,403.32Z"/><path class="cls-1" d="M345.5,405.39c-.06,0-.11,0-.15-.09a.12.12,0,0,1,0-.1l.1-.05.45-.06.32,0H347a4.18,4.18,0,0,0,.5,0h.08a3.33,3.33,0,0,1,.55,0l.43.05h.06a.21.21,0,0,0,.13,0l.19,0,.09,0s0,.06,0,.06,0,0,0,.06v0l-.4.08-.58,0H348l-.44,0a.76.76,0,0,1-.26,0h-.05a3.27,3.27,0,0,1-.44,0h-.85s-.24,0-.28,0S345.52,405.38,345.5,405.39Z"/><path class="cls-1" d="M346.12,403.77a.14.14,0,0,1,0-.18s.07-.07.09-.06l.1.05s.26.26.35.35a2.75,2.75,0,0,1,.22.26l.44.54.09.13a4.25,4.25,0,0,0,.31.43l.06.06a4.14,4.14,0,0,1,.37.46c.08.14.17.26.25.4s0,0,0,.06a.29.29,0,0,0,.07.12,1.63,1.63,0,0,1,.11.17.38.38,0,0,1,0,.1s0,0,0,0,0,0-.05,0h0a2.49,2.49,0,0,1-.34-.28l-.41-.47-.06-.09-.31-.36a1.12,1.12,0,0,1-.16-.22l0-.05c-.1-.12-.19-.25-.29-.38a1.39,1.39,0,0,0-.15-.19l0,0,0,0c-.12-.15-.23-.31-.36-.46s-.13-.21-.17-.25S346.14,403.79,346.12,403.77Z"/><path class="cls-1" d="M346.38,406.62c0,.05-.08.06-.16.05s-.08-.06-.08-.08l0-.1.26-.38.2-.24c.15-.16.29-.33.43-.49l.1-.1a3.85,3.85,0,0,0,.35-.35.43.43,0,0,0,0-.07,3.52,3.52,0,0,1,.36-.41l.33-.29a.11.11,0,0,1,.05,0s.07-.05.1-.08l.14-.12.09-.05s.05,0,0,0,0,0,0,0h0s-.18.33-.2.35l-.37.46-.07.06-.27.35a1.09,1.09,0,0,1-.19.18l0,0-.31.32-.15.17,0,0,0,0c-.11.13-.24.25-.35.4s-.18.15-.21.19S346.39,406.59,346.38,406.62Z"/><path class="cls-1" d="M112.48,315.15c0-.07,0-.12.09-.17a.12.12,0,0,1,.1,0l.06.12s0,.39,0,.52,0,.25,0,.37v.75a.86.86,0,0,1,0,.16,5.43,5.43,0,0,0,0,.57.38.38,0,0,0,0,.1,4.37,4.37,0,0,1,0,.63c0,.16,0,.33-.05.49a.15.15,0,0,1,0,.07.3.3,0,0,0,0,.16,1.49,1.49,0,0,1,0,.21.38.38,0,0,1,0,.1s-.06,0-.06,0,0,0-.06,0h0s-.08-.42-.08-.46,0-.61,0-.68a.34.34,0,0,1,0-.1s0-.5,0-.52a1,1,0,0,1,0-.29v-.06a4.34,4.34,0,0,1,0-.51v-.26a.09.09,0,0,1,0-.05v-.06c0-.2,0-.41,0-.61s0-.28,0-.33S112.49,315.18,112.48,315.15Z"/><path class="cls-1" d="M110.75,317.22c-.06,0-.11,0-.15-.09a.17.17,0,0,1,0-.1l.1-.06.46-.05.31,0h.8a4,4,0,0,0,.49,0h.08a3.35,3.35,0,0,1,.55,0l.43,0h.06a.21.21,0,0,0,.13,0l.19,0,.09,0s0,.06,0,.06,0,0,0,.06h0a2,2,0,0,1-.4.09l-.58,0h-.09s-.43,0-.45,0a.71.71,0,0,1-.25,0h-1.35a2.64,2.64,0,0,0-.28,0S110.77,317.21,110.75,317.22Z"/><path class="cls-1" d="M111.37,315.6a.14.14,0,0,1,0-.18s.07-.07.09-.06l.1.05.35.35a2.75,2.75,0,0,1,.22.26l.44.54.09.13a4.25,4.25,0,0,0,.31.43l.06.06a5.81,5.81,0,0,1,.38.46c.07.13.16.26.24.4a.1.1,0,0,1,0,0,.2.2,0,0,0,.06.13,1.63,1.63,0,0,1,.11.17.29.29,0,0,1,0,.1s0,0,0,0,0,0,0,0h0a2.59,2.59,0,0,1-.33-.28s-.37-.43-.42-.47a.41.41,0,0,1-.05-.09l-.32-.36a1.34,1.34,0,0,1-.16-.23l0,0c-.1-.12-.19-.25-.28-.38a1.46,1.46,0,0,0-.16-.19l0,0,0-.05c-.12-.14-.23-.3-.36-.45s-.13-.21-.17-.25S111.39,315.61,111.37,315.6Z"/><path class="cls-1" d="M111.64,318.45c0,.05-.09.06-.17.05s-.08-.06-.08-.08l0-.1.26-.38a1.59,1.59,0,0,1,.2-.24l.43-.49.1-.1a3.85,3.85,0,0,0,.35-.35.43.43,0,0,1,0-.07,3.52,3.52,0,0,1,.36-.41l.33-.29a.07.07,0,0,1,.05,0s.07-.05.11-.08a.74.74,0,0,1,.13-.12l.09-.05s0,0,0,0,0,0,0,0h0a3.35,3.35,0,0,1-.2.35l-.37.46-.06.06-.28.35a1.09,1.09,0,0,1-.19.18l0,0-.3.33c-.06.05-.1.11-.15.16l0,0,0,0c-.12.14-.25.26-.36.4s-.18.16-.21.2S111.65,318.42,111.64,318.45Z"/><path class="cls-1" d="M364.26,337.79c0-.07,0-.12.09-.17s.1,0,.11,0a.61.61,0,0,0,.05.12s0,.39.05.52a2.17,2.17,0,0,1,0,.36v.75a1,1,0,0,1,0,.17,5.43,5.43,0,0,0,0,.57s0,.06,0,.09a4.39,4.39,0,0,1,0,.63c0,.17,0,.34-.05.5a.17.17,0,0,1,0,.07.4.4,0,0,0,0,.15,1.62,1.62,0,0,1,0,.22l0,.1s-.06,0-.06,0,0,0-.05,0h0a4,4,0,0,1-.09-.45s0-.61,0-.68a.22.22,0,0,1,0-.11s0-.49,0-.51a.93.93,0,0,1,0-.29v-.06c0-.17,0-.34,0-.51a2.25,2.25,0,0,0,0-.26s0,0,0-.05v-.06c0-.2,0-.41,0-.62,0,0,0-.27,0-.32S364.27,337.82,364.26,337.79Z"/><path class="cls-1" d="M362.53,339.86c-.06,0-.11,0-.15-.09s0-.1,0-.11l.1-.05.45-.05a1.67,1.67,0,0,1,.32,0h.79a2.68,2.68,0,0,0,.49,0h.63l.43.05s0,0,.06,0a.21.21,0,0,0,.13,0l.19,0,.09,0s0,.05,0,.06,0,0,0,.05v0l-.39.09-.59,0H365l-.45,0a1.06,1.06,0,0,1-.25,0H363l-.28,0S362.56,339.85,362.53,339.86Z"/><path class="cls-1" d="M363.15,338.24s0-.1,0-.19a.18.18,0,0,1,.09-.06l.11.05.34.35.23.26c.14.19.29.37.43.55l.09.13a4.25,4.25,0,0,0,.31.43l.07.06a3.54,3.54,0,0,1,.37.46l.24.39a.21.21,0,0,1,0,.06c0,.06,0,.09.06.13a1,1,0,0,1,.11.17.3.3,0,0,1,0,.1s0,0,0,0,0,0,0,0h0a3.8,3.8,0,0,1-.33-.28l-.42-.48a.56.56,0,0,1-.05-.08l-.32-.36a1.14,1.14,0,0,1-.15-.23l0,0-.28-.38-.15-.19,0,0a.13.13,0,0,0,0-.05c-.12-.15-.23-.31-.35-.45s-.14-.22-.17-.25S363.18,338.25,363.15,338.24Z"/><path class="cls-1" d="M363.42,341.08c0,.06-.09.07-.17.05s-.08-.05-.07-.07a.43.43,0,0,1,0-.11l.26-.37a2.43,2.43,0,0,1,.2-.25l.43-.48.11-.1a3.89,3.89,0,0,0,.34-.36.18.18,0,0,0,0-.07,4.25,4.25,0,0,1,.35-.41c.12-.09.22-.19.33-.28a.07.07,0,0,1,.05,0,.31.31,0,0,0,.11-.08l.13-.13.09,0s.05,0,.05,0,0,0,0,0v0a2.18,2.18,0,0,1-.2.35s-.33.41-.36.46l-.07.06-.28.35a1,1,0,0,1-.18.17s0,0,0,0l-.3.32-.15.17,0,0,0,0c-.12.14-.25.26-.36.4s-.18.16-.2.2S363.43,341.06,363.42,341.08Z"/><path class="cls-1" d="M250.86,397.39c0-.07,0-.13.09-.18s.09,0,.1,0l.06.11s0,.4,0,.52,0,.25,0,.37V399a1,1,0,0,1,0,.17,5.15,5.15,0,0,0,0,.56.31.31,0,0,0,0,.1,4.37,4.37,0,0,1,0,.63c0,.17,0,.33,0,.5a.17.17,0,0,1,0,.07.27.27,0,0,0,0,.15,1.49,1.49,0,0,1,0,.21.45.45,0,0,1,0,.11s-.06,0-.06,0,0,0-.06,0h0a2.5,2.5,0,0,1-.09-.46s0-.6,0-.67a.41.41,0,0,1,0-.11s0-.49,0-.51a1,1,0,0,1,0-.3v-.06a4.34,4.34,0,0,1,0-.51v-.26a.06.06,0,0,1,0,0v-.06c0-.21,0-.41,0-.62,0-.05,0-.27,0-.33S250.87,397.41,250.86,397.39Z"/><path class="cls-1" d="M249.13,399.45q-.09,0-.15-.09a.17.17,0,0,1,0-.1l.1-.05.46-.06h1.11a2,2,0,0,0,.49,0h.08a3.33,3.33,0,0,1,.55,0l.43.05h.06a.21.21,0,0,0,.13,0l.19,0,.09,0s0,.06,0,.07,0,0,0,0v0l-.4.09-.58,0h-.09l-.45,0a1,1,0,0,1-.25,0h-.06a3.27,3.27,0,0,1-.44,0h-.31c-.18,0-.36,0-.54,0l-.28,0Z"/><path class="cls-1" d="M249.75,397.83c-.05,0-.06-.1,0-.18s.07-.07.09-.06l.1.05s.27.27.35.35a2.75,2.75,0,0,1,.22.26l.44.55.09.12a2.78,2.78,0,0,0,.31.43l.06.07a4.29,4.29,0,0,1,.38.45l.24.4s0,0,0,.06a.22.22,0,0,0,.06.13l.11.16a.38.38,0,0,1,0,.1s0,0,0,0,0,0,0,0v0a3.8,3.8,0,0,1-.33-.28l-.42-.48a.22.22,0,0,1,0-.08l-.32-.36a1.88,1.88,0,0,1-.16-.23s0,0,0-.05-.19-.25-.28-.38l-.16-.19,0,0,0,0c-.12-.15-.23-.31-.36-.45s-.13-.22-.17-.26S249.77,397.85,249.75,397.83Z"/><path class="cls-1" d="M250,400.68c0,.06-.09.07-.17.05a.11.11,0,0,1-.08-.07l0-.11.26-.37a2.43,2.43,0,0,1,.2-.25c.15-.16.29-.32.43-.49l.1-.1a2.32,2.32,0,0,0,.35-.35.43.43,0,0,0,0-.07s.32-.37.36-.41l.33-.29,0,0c.05,0,.07,0,.11-.08l.13-.12.09,0s.05,0,.05,0,0,0,0,0h0a3.42,3.42,0,0,1-.2.36s-.33.41-.37.45,0,.05-.06.07l-.28.34a.81.81,0,0,1-.19.18l0,0-.3.32a1.22,1.22,0,0,0-.15.17l0,0,0,0c-.12.13-.25.26-.36.4s-.18.15-.21.19S250,400.66,250,400.68Z"/><path class="cls-1" d="M276.79,396.61c0-.07,0-.12.09-.17s.09,0,.1,0a.61.61,0,0,1,0,.12s0,.39.06.52,0,.24,0,.37,0,.5,0,.75c0,.05,0,.11,0,.16a3.62,3.62,0,0,0,0,.57.28.28,0,0,0,0,.09,4.51,4.51,0,0,1,0,.64c0,.16,0,.33-.05.49a.15.15,0,0,1,0,.07.29.29,0,0,0,0,.16,1.49,1.49,0,0,1,0,.21.38.38,0,0,1,0,.1,0,0,0,0,1-.07,0s0,0-.05,0h0a4,4,0,0,1-.09-.45s0-.61,0-.68,0-.07,0-.1,0-.5,0-.52a1.43,1.43,0,0,1,0-.29.13.13,0,0,0,0-.06,4.34,4.34,0,0,1,0-.51v-.31s0,0,0-.06c0-.2,0-.41,0-.61s0-.28,0-.33S276.79,396.64,276.79,396.61Z"/><path class="cls-1" d="M275.06,398.68c-.06,0-.11,0-.15-.09s0-.09,0-.1l.1-.06.45-.05.32,0h.79a4.18,4.18,0,0,0,.5,0h.08a3.33,3.33,0,0,1,.55,0l.43.05h.06s.09,0,.13,0h.18l.1,0s0,.06,0,.06,0,0,0,.05v0a2.15,2.15,0,0,1-.4.09l-.58,0h-.1s-.42,0-.44,0a.76.76,0,0,1-.26,0h-1.34a2.64,2.64,0,0,0-.29,0S275.08,398.67,275.06,398.68Z"/><path class="cls-1" d="M275.68,397.06c-.06,0-.06-.1,0-.18s.07-.07.08-.06l.11.05s.26.26.35.35a2.75,2.75,0,0,1,.22.26l.44.54.08.13c.1.15.21.29.32.43s0,.05.06.06a5.72,5.72,0,0,1,.37.46c.08.13.17.26.25.4a.09.09,0,0,1,0,.05.27.27,0,0,0,.07.13l.11.17,0,.1s0,0-.05,0,0,0,0,0h0a3.55,3.55,0,0,1-.34-.28l-.41-.47-.06-.09-.31-.36a.94.94,0,0,1-.16-.23l0,0c-.1-.12-.19-.25-.29-.38a1.39,1.39,0,0,0-.15-.19s0,0,0,0l0-.05c-.12-.14-.23-.3-.36-.45s-.13-.21-.17-.25S275.7,397.07,275.68,397.06Z"/><path class="cls-1" d="M275.94,399.9c0,.06-.08.07-.16.06s-.08-.06-.08-.08l0-.1s.2-.29.26-.38a1.59,1.59,0,0,1,.2-.24c.14-.17.29-.33.43-.49a.94.94,0,0,1,.1-.1,2.79,2.79,0,0,0,.34-.35l.05-.07a4.71,4.71,0,0,1,.36-.42l.33-.28,0,0c.06,0,.08-.05.11-.08l.14-.13.09,0s.05,0,0,0,0,0,0,0h0l-.2.35-.37.46-.07.06-.27.35a1.09,1.09,0,0,1-.19.18l0,0a3.08,3.08,0,0,1-.3.33l-.15.16,0,0,0,0c-.11.14-.24.26-.35.4s-.18.16-.21.2S276,399.88,275.94,399.9Z"/><path class="cls-1" d="M280.74,408.57c0-.07,0-.12.1-.17s.09,0,.1,0a.61.61,0,0,1,.05.12s0,.39.06.52,0,.24,0,.37,0,.49,0,.74c0,.06,0,.11,0,.17a2.72,2.72,0,0,0,0,.57.28.28,0,0,0,0,.09,4.39,4.39,0,0,1,0,.63c0,.17,0,.34-.05.5s0,.05,0,.07a.26.26,0,0,0,0,.15c0,.08,0,.15,0,.22a.42.42,0,0,1,0,.1s-.05,0-.06,0,0,0-.05,0h0a4,4,0,0,1-.09-.45s0-.61,0-.68a.45.45,0,0,1,0-.11s0-.49,0-.51a2.64,2.64,0,0,1,0-.29.06.06,0,0,0,0-.06c0-.17,0-.34,0-.51s0-.18,0-.26,0,0,0,0,0,0,0-.06c0-.2,0-.41,0-.62,0,0,0-.27,0-.32S280.75,408.6,280.74,408.57Z"/><path class="cls-1" d="M279,410.64c-.06,0-.11,0-.16-.09s0-.1,0-.11l.1-.05.45-.05a1.72,1.72,0,0,1,.32,0h.79a2.69,2.69,0,0,0,.49,0s.06,0,.09,0h.54l.43.05s.05,0,.07,0,.08,0,.13,0l.18,0,.09,0s0,0,0,.06,0,0,0,.05,0,0,0,0l-.39.09-.59,0h-.09l-.44,0a1.14,1.14,0,0,1-.26,0h-1.34l-.29,0S279,410.63,279,410.64Z"/><path class="cls-1" d="M279.64,409c-.06,0-.06-.1,0-.19a.16.16,0,0,1,.08-.06.39.39,0,0,1,.11.06l.34.34a2.68,2.68,0,0,1,.23.26c.14.19.29.37.43.55a.38.38,0,0,1,.09.13,3.19,3.19,0,0,0,.32.43l.06.06a3.54,3.54,0,0,1,.37.46l.25.39s0,0,0,.06a.27.27,0,0,0,.07.13c0,.05.07.11.11.17l0,.1s0,0-.05,0,0,0,0,0h0l-.33-.28-.41-.48a.24.24,0,0,1-.06-.08l-.31-.36a.73.73,0,0,1-.16-.23l0,0-.29-.38-.15-.19,0,0,0-.05c-.12-.15-.23-.31-.36-.45s-.14-.22-.17-.25S279.66,409,279.64,409Z"/><path class="cls-1" d="M279.9,411.86c0,.06-.08.07-.17.05a.12.12,0,0,1-.07-.07.45.45,0,0,1,0-.11s.2-.28.26-.37a2.43,2.43,0,0,1,.2-.25l.43-.48.1-.1a2.31,2.31,0,0,0,.34-.36l.05-.06a3.49,3.49,0,0,1,.36-.42l.32-.28s0,0,.05,0a.23.23,0,0,0,.11-.08.86.86,0,0,1,.14-.13.2.2,0,0,1,.08,0s.05,0,.05,0,0,0,0,0h0a3.13,3.13,0,0,1-.19.35s-.34.41-.37.46l-.07.06-.28.35a1,1,0,0,1-.18.18s0,0,0,0-.2.22-.3.32l-.15.17,0,0,0,0c-.11.14-.24.26-.35.4s-.18.16-.21.2S279.91,411.84,279.9,411.86Z"/><path class="cls-1" d="M235.29,203.74a25.13,25.13,0,0,1-8.7,2.33,19.79,19.79,0,0,1-8.93-1.39,20.13,20.13,0,0,1-5.63-3.44A25.28,25.28,0,0,1,208.2,197a34.67,34.67,0,0,1-2.95-4.81,58.59,58.59,0,0,1-4-10.37c-.92-3.15-1.72-6.35-2.38-9.52a72.93,72.93,0,0,1-1.72-12.37c-.07-2.59,2.48.48,3.1,5.11.58,4.13,1.32,8.23,2.28,12.27a75.13,75.13,0,0,0,3.8,11.83,26.7,26.7,0,0,0,9.06,11.68,17.8,17.8,0,0,0,15.56,2.08,27.5,27.5,0,0,0,9-4.81,45.55,45.55,0,0,0,10.26-11.82,54,54,0,0,0,5-11l.42-1.24.36-1.27c.23-.79.44-1.44.62-2s.31-1,.46-1.34a2.81,2.81,0,0,1,1-1.37,3.07,3.07,0,0,1,.54-.37c.56-.21.64,1.22.17,3.69a54,54,0,0,1-9.82,20.85,39.24,39.24,0,0,1-13.53,11.53Z"/><path class="cls-1" d="M319.59,380.11a169.88,169.88,0,0,0,.38-25.83c-.44-8.64-1.32-17.27-2.46-25.86-.85-6.27-1.93-12.5-3.08-18.72-2-10.95-4.52-21.83-7.55-32.56a230.22,230.22,0,0,0-11.19-31.43,110.82,110.82,0,0,0-6.91-13.07,57.06,57.06,0,0,0-9-11.43,25.18,25.18,0,0,0-7.57-5.06,15.66,15.66,0,0,0-4.33-1.05c-.37,0-.73-.09-1.12-.09l-1.16,0c-.77,0-1.54,0-2.31.07a27.36,27.36,0,0,0-8.92,1.95,35.66,35.66,0,0,0-7.94,4.67c-3.07,2.37-3.1,1.6-.86-1a26.38,26.38,0,0,1,5.43-4.58,23.36,23.36,0,0,1,9.73-3.47,35.81,35.81,0,0,1,5.05-.29l1.26,0,1.34.13A16.57,16.57,0,0,1,271,213a24.12,24.12,0,0,1,9,5c5.16,4.43,9,9.94,12.26,15.61,6.53,11.42,11,23.74,14.87,36.24A389.57,389.57,0,0,1,318,316.45c1.45,8.67,2.62,17.38,3.43,26.13a243.92,243.92,0,0,1,1.13,26.35,116.55,116.55,0,0,1-1.29,16.24,48.57,48.57,0,0,1-1.9,8,17.76,17.76,0,0,1-4.16,7.29,6.53,6.53,0,0,1-.62.56l-.7.48a9.49,9.49,0,0,1-1.43.77,15.94,15.94,0,0,1-3,1.1,15,15,0,0,1-6.4.27A23.51,23.51,0,0,1,292,397.77a59,59,0,0,1-8.25-9.22,120.44,120.44,0,0,1-6.71-10.26,309,309,0,0,1-16.5-33.66l-3.23-7.54c-3.95-9.46-5.15-12.41-5.75-14.53a3.68,3.68,0,0,0-.66-1.33c-.1-.12-.16-.2-.1-.24a.66.66,0,0,1,.5.07,4.46,4.46,0,0,1,1.57,1.54,48.86,48.86,0,0,1,4,7.65c4.53,10.21,8.88,20.76,13.9,31.15,2.51,5.2,5.16,10.36,8.09,15.37A98.71,98.71,0,0,0,288.76,391a37.05,37.05,0,0,0,9.4,8.24,16.23,16.23,0,0,0,5.6,2,13,13,0,0,0,5.77-.44c.47-.13.93-.34,1.39-.51s.9-.44,1.35-.65a8.92,8.92,0,0,0,1.07-.75,7.31,7.31,0,0,0,.94-1,17.71,17.71,0,0,0,2.76-5.31,57.73,57.73,0,0,0,2.49-12.53Z"/><path class="cls-1" d="M298.84,325.09q1.71,4.7,3.55,9.38c.44,1.14.95,2.25,1.38,3.39,1.53,4,3,8.09,4.41,12.2.61,1.83,1.26,3.65,1.82,5.5.19.59.37,1.18.53,1.79a18.27,18.27,0,0,1,.44,1.84,9.67,9.67,0,0,1,.1,3.91c-.18.87-.76.53-1.29-.14a6.53,6.53,0,0,1-1.33-2.9,62.11,62.11,0,0,0-1.81-7L304.38,346c-.91-2.85-2.19-5.69-3.32-8.55-1.23-3.14-2.46-6.29-3.65-9.45-.73-2-1.46-3.91-2.15-5.88-1.07-3-2-6-2.92-9a51.6,51.6,0,0,1-1.75-7.16,11.11,11.11,0,0,1-.17-1.66,6.24,6.24,0,0,1,.27-2.25,1.41,1.41,0,0,1,.86-.84,2.09,2.09,0,0,1,.49-.15c.25,0,.43.22.53.58a2.38,2.38,0,0,1,.08.64c0,.25.06.55.06.87a30.44,30.44,0,0,0,1,6.1c.53,2.09,1.15,4.22,1.84,6.35,1,3.16,2.14,6.33,3.34,9.47Z"/><path class="cls-1" d="M271.4,285.94a24.76,24.76,0,0,1-9.06,5.42,13.42,13.42,0,0,1-4,.66,8.73,8.73,0,0,1-6.54-2.92A9.56,9.56,0,0,1,250,286a8.56,8.56,0,0,1-.43-3.53,16.76,16.76,0,0,1,1.59-5.82,18.28,18.28,0,0,1,4.31-6.18c.6-.52,1,0,1,.89a5.69,5.69,0,0,1-1,3.14,20.29,20.29,0,0,0-3.06,6.07,9.64,9.64,0,0,0-.42,3.15,6,6,0,0,0,.9,2.9,5.61,5.61,0,0,0,2.86,2.53,7.77,7.77,0,0,0,3.94.41,18.4,18.4,0,0,0,8.56-4,27.17,27.17,0,0,0,4.29-4.22A22.72,22.72,0,0,0,275,277.6a14.87,14.87,0,0,0,1.58-4.2,10,10,0,0,0,.14-3.35,7.94,7.94,0,0,0-.41-1.56c-.1-.25-.17-.51-.29-.75l-.39-.69a8.73,8.73,0,0,0-.82-1.1c-1.17-1.28-1.62-1.64-1.56-2.44a4.35,4.35,0,0,1,0-.52c.06-.27.3-.37.71-.29a3.78,3.78,0,0,1,1.63.82,9.53,9.53,0,0,1,3.52,6.5,15.19,15.19,0,0,1-1.37,7.34,26.93,26.93,0,0,1-6.3,8.62Z"/><path class="cls-1" d="M274.94,310.19a33,33,0,0,1-7.23,4.11,34.28,34.28,0,0,1-3.92,1.36c-.66.21-1.33.36-2,.51a19.35,19.35,0,0,1-2.09.41,20,20,0,0,1-6.19-.28,18.66,18.66,0,0,1-9.58-4.93,14.6,14.6,0,0,1-4.17-9.86,27.7,27.7,0,0,1,1.36-9.27,39.81,39.81,0,0,1,5-10.68c.68-1,1.13-.54,1.14.64a8.82,8.82,0,0,1-.33,2.22,12.87,12.87,0,0,1-1,2.78,39.23,39.23,0,0,0-3.56,10.71,14.58,14.58,0,0,0,1.93,10.39,12.67,12.67,0,0,0,2.23,2.41,14.56,14.56,0,0,0,2.87,1.79,20.05,20.05,0,0,0,6.67,1.78,15.55,15.55,0,0,0,3.74-.06,34.31,34.31,0,0,0,3.76-.92,31.93,31.93,0,0,0,7.14-3.11,30,30,0,0,0,7.39-6.12,35.41,35.41,0,0,0,7.1-12.72,39.47,39.47,0,0,0,1.71-11.05c0-.82,0-1.62-.05-2.44-.15-3-.21-4,.32-4.74a3,3,0,0,1,.35-.52c.41-.4,1.14.81,1.48,3.18a39.13,39.13,0,0,1-3.57,21.4A35.4,35.4,0,0,1,275,310.23Z"/><path class="cls-1" d="M219.86,220.94a36.66,36.66,0,0,1,5.52-.82c.89-.08,1.77-.16,2.59-.28a10.74,10.74,0,0,1,1.57-.14l.81.05.77.14a20.06,20.06,0,0,1,5.34,2.12,50.24,50.24,0,0,1,4.67,2.92c2.18,1.52,4.31,3.1,6.33,4.78a132.57,132.57,0,0,1,10.19,9.5A26.8,26.8,0,0,1,260,241.9a33.15,33.15,0,0,1,1.93,3c1.15,2,2.19,4.1,3.2,6.18,1.79,3.69,3.54,7.42,5.26,11.08,1.11,2.36,2.23,4.72,3.34,7.07l3.24,7.05c.69,1.37.09,1.58-1.13.65a16.81,16.81,0,0,1-4.11-5.73l-6.61-14.5c-1.1-2.41-2.23-4.81-3.4-7.17a45.3,45.3,0,0,0-3.84-6.71,69.7,69.7,0,0,0-6.72-6.84c-2.42-2.19-4.94-4.29-7.49-6.3a61.18,61.18,0,0,0-8.8-5.9,15.46,15.46,0,0,0-4.74-1.7,4.68,4.68,0,0,0-1.12,0c-.35,0-.9.12-1.34.17l-2.71.28a25.59,25.59,0,0,0-6.3,1.24,14.4,14.4,0,0,0-5.24,3.39,7.65,7.65,0,0,0-.81.89c-.25.31-.52.6-.76.93a20.28,20.28,0,0,0-1.31,2,31.37,31.37,0,0,0-1.81,4.56,41,41,0,0,0-1.22,4.79,20.33,20.33,0,0,0-.3,2.41c0,.2,0,.39,0,.58s0,.29,0,.42a1.9,1.9,0,0,0,.18.67.49.49,0,0,0,.45.26,1.16,1.16,0,0,0,.5-.21,1.9,1.9,0,0,0,.41-.34l.53-.64a22.44,22.44,0,0,0,1.84-3.22c1.12-2.27,2.06-4.63,3.25-7,.27-.52.53-1,.86-1.55a7.1,7.1,0,0,1,.55-.79c.12-.13.19-.26.34-.4s.32-.27.48-.41a12.09,12.09,0,0,1,2.66-1.19c.71-.24,1.26-.4,1.71-.52a5.57,5.57,0,0,1,2-.25c.24,0,.54,0,.73,0s.25.48-.41,1.09a10.94,10.94,0,0,1-3.22,1.79c-.52.22-1,.44-1.48.67a5.47,5.47,0,0,0-.61.36c-.08.12-.16.15-.31.37a19.3,19.3,0,0,0-1.54,2.79c-1,2.07-1.9,4.26-3,6.46a22,22,0,0,1-2,3.31l-.36.43-.18.22a1.16,1.16,0,0,1-.25.24,6.56,6.56,0,0,1-1.41,1,2.59,2.59,0,0,1-2.91-.22,2.94,2.94,0,0,1-.84-1.3,6,6,0,0,1-.28-1.67c0-.31,0-.46,0-.63s0-.35,0-.52c0-.34,0-.66.09-1a32.6,32.6,0,0,1,.69-3.77,46.09,46.09,0,0,1,1.66-5.36,25.51,25.51,0,0,1,1.18-2.66c.11-.22.25-.45.39-.68l.41-.61c.28-.39.54-.8.84-1.19a18.12,18.12,0,0,1,4.31-4.06,17.52,17.52,0,0,1,5.43-2.35Z"/><path class="cls-1" d="M222.87,251.41a3.77,3.77,0,0,1-1.71-1.71,9.56,9.56,0,0,1-.78-2.35A24,24,0,0,1,220,244c0-.79-.12-1.57-.11-2.35,0-1.39.08-2.71.17-4.11a7.07,7.07,0,0,1,1.52-4.32,9.38,9.38,0,0,1,3.26-2.26,9.6,9.6,0,0,0,3.27-2.25c.26-.26.83,0,1.13.66a2,2,0,0,1,.08,1.28,2.32,2.32,0,0,1-.9,1.3c-1.63,1.12-3.2,1.48-4.17,2.12a3.44,3.44,0,0,0-1.17,1.1,4.94,4.94,0,0,0-.4.76c-.09.31-.2.61-.28.94a13.64,13.64,0,0,0-.17,2.72c0,.95,0,1.9,0,2.85s.06,2.07.16,3.07c.05.5.13,1,.22,1.48l.11.5a2.24,2.24,0,0,0,.11.34,1.15,1.15,0,0,0,.6.72.39.39,0,0,0,.45,0,1,1,0,0,0,.22-.42,4.52,4.52,0,0,0,.13-.75l.05-.55,0-.73c.06-1,.11-2,.19-3a11.35,11.35,0,0,1,1.15-4.78,4,4,0,0,1,.74-1,2.57,2.57,0,0,1,1.46-.8.93.93,0,0,1,.85.39,1.89,1.89,0,0,1,.27.38c.21.48-.18.93-.63,1.36-1.31,1.24-1.49,3.92-1.62,6.66l-.07,1.6,0,.47-.06.74c0,.27-.06.52-.1.76a4.39,4.39,0,0,1-.16.71,2.88,2.88,0,0,1-1.29,1.85,2.48,2.48,0,0,1-2.25,0Z"/><path class="cls-1" d="M239.52,254.21a30.7,30.7,0,0,1-3.46-2.75c-.39-.36-.83-.67-1.2-1.07a23,23,0,0,1-3.38-4.56c-.41-.73-.83-1.48-1.19-2.26a5.52,5.52,0,0,1-.69-3.28c.06-.36.68-.28,1.3,0a4.13,4.13,0,0,1,.84.43,1,1,0,0,1,.48.59,20.78,20.78,0,0,0,2.23,5,12.54,12.54,0,0,0,2.43,2.73,29.23,29.23,0,0,0,3.13,2.63,21.37,21.37,0,0,0,2.13,1.36,14.82,14.82,0,0,0,3.48,1.5,7.35,7.35,0,0,0,2.75.11,4.44,4.44,0,0,0,.55-.12c.64-.13.81-.07,1.22.47l.29.36c.29.39.11,1-.61,1.3a6.49,6.49,0,0,1-3.24.43,12.46,12.46,0,0,1-3.06-.75,22.24,22.24,0,0,1-4-2.08Z"/><path class="cls-1" d="M259.89,276.91c-.52-1.62-1.06-3.25-1.66-4.85-.21-.59-.5-1.15-.72-1.73-.77-2.07-1.55-4.15-2.4-6.2-.38-.91-.82-1.79-1.27-2.66a15.22,15.22,0,0,1-1.58-3.43c-.19-.78,2.33-.86,3,.43a49.73,49.73,0,0,1,2.92,7.18c.47,1.49,1.22,2.93,1.8,4.41q1,2.46,1.8,4.95c.35,1,.67,2.06,1,3.09.5,1.56.91,3.16,1.38,4.71.34,1.22.81,2.39,1.16,3.6a6.77,6.77,0,0,1,.25.8c.22,1,.12,1.37-.47,1.69a4,4,0,0,1-.41.21c-.47.17-1-.17-1.22-.86-.81-2.05-1.39-4.23-2.06-6.42-.49-1.63-1-3.27-1.55-4.9Z"/><path class="cls-1" d="M197.83,232.11a44,44,0,0,1,4-7.72,13.4,13.4,0,0,1,1-1.37,7.14,7.14,0,0,1,.69-.65c.24-.21.47-.34.7-.51a32.83,32.83,0,0,1,5-2.47q2.53-1,5.1-1.93c1.52-.53,3-1.1,4.59-1.59l.67-.18a3.71,3.71,0,0,1,1-.06l.45.13.33.11c.22.08.42.17.62.26.39.18.77.37,1.13.58a18.22,18.22,0,0,1,2,1.33c.47.34.15.88-.63,1.14a3.85,3.85,0,0,1-2.91-.29l-.87-.45-.41-.17-.17-.07h0l-.23.05-.28.08c-.37.09-.77.21-1.16.33l-2.39.76L211.19,221a27.93,27.93,0,0,0-3.43,1.48,17.76,17.76,0,0,0-3,1.88,7.59,7.59,0,0,0-1.16,1.44c-.37.55-.72,1.13-1.05,1.73-.67,1.2-1.27,2.44-1.83,3.71a43.59,43.59,0,0,0-1.8,4.77,11.17,11.17,0,0,0-.5,2.16,1.7,1.7,0,0,0,0,.45c0,.15.1.32.26.34a1.35,1.35,0,0,0,.78-.39,3.78,3.78,0,0,0,.61-.59l.14-.17.21-.29c.15-.19.29-.39.42-.59.27-.4.51-.82.75-1.25.48-.85.91-1.73,1.34-2.62.19-.39.35-.79.55-1.18.74-1.47,1.15-1.87,1.89-1.86a2.66,2.66,0,0,1,.49,0c.51.12.53.88.1,2a36,36,0,0,1-2.09,4.49,20.71,20.71,0,0,1-1.42,2.22l-.42.55-.8.87a7,7,0,0,1-.87.77,6.73,6.73,0,0,1-.92.65l-.44.19c-.14,0-.28.06-.43.09l-.42.08-.4,0a2.14,2.14,0,0,1-.69-.25,2.25,2.25,0,0,1-.54-.46,2.39,2.39,0,0,1-.55-1.29,3.43,3.43,0,0,1-.06-.87,6.61,6.61,0,0,1,.09-1c.05-.34.09-.68.16-1l.19-.8a42,42,0,0,1,1.39-4.19Z"/><path class="cls-1" d="M129.39,341.6c3.22-12.19,6.94-24.22,11-36.14,1.47-4.35,2.91-8.71,4.48-13,5.52-15.2,11.54-30.23,18.46-44.87a173.77,173.77,0,0,1,10.19-19,38.1,38.1,0,0,1,4.24-5.59,16.07,16.07,0,0,1,1.34-1.26,9.41,9.41,0,0,1,1.57-1,15.31,15.31,0,0,1,3.36-1.41,12.27,12.27,0,0,1,7.32.09,12.63,12.63,0,0,1,6,4.14c1,1.23,1,2,.82,2s-.82-.45-1.79-1.14a17.45,17.45,0,0,0-4.1-2.24,12.31,12.31,0,0,0-6.11-.63,11.57,11.57,0,0,0-2.94.84,14.21,14.21,0,0,0-1.41.7l-.35.18-.28.2a4.19,4.19,0,0,0-.56.43,26,26,0,0,0-4.22,5,116.41,116.41,0,0,0-7,11.89c-4.27,8.23-8.12,16.74-11.84,25.35-4.44,10.3-8.44,21.29-12.23,32.13-4.17,11.92-8,23.95-11.48,36.1-2.1,7.49-4.06,15-5.68,22.6-1.22,5.75-2.3,11.55-3,17.37a75.29,75.29,0,0,0-.51,8.73,21,21,0,0,0,1.4,8.31c.12.22.23.46.36.68l.45.59a4.72,4.72,0,0,0,1.15.93,15.29,15.29,0,0,0,2.9,1.42,23.77,23.77,0,0,0,6.39,1.27,102.84,102.84,0,0,0,13.33-.33c2-.11,3.94-.23,6-.21a25.43,25.43,0,0,1,8,1.09,7.18,7.18,0,0,1,3.16,1.88,5.57,5.57,0,0,1,.7.9c.28.87-2.2-.8-7.39-1.32-7.75-.77-15.94,1.1-24.65.32a26.39,26.39,0,0,1-6.55-1.45,18.75,18.75,0,0,1-3.1-1.56,7.21,7.21,0,0,1-.76-.51l-.82-.73a7.88,7.88,0,0,1-1.12-1.65,17.68,17.68,0,0,1-1.67-6.77,55.85,55.85,0,0,1-.06-6.59,140.42,140.42,0,0,1,2.62-19c1.25-6.26,2.71-12.46,4.31-18.61Z"/><path class="cls-1" d="M176.36,395.14a39,39,0,0,1-3.52-7c-1-2.39-1.76-4.81-2.48-7.26-.53-1.78-1.08-3.56-1.5-5.37A82.86,82.86,0,0,1,166.52,356a31.39,31.39,0,0,1,1.19-8.78,9.67,9.67,0,0,1,3.28-5,6.66,6.66,0,0,1,2.94-1.2,8.5,8.5,0,0,1,3,.18c1.21.32.82.87-.19,1.28-.51.22-1.17.45-1.85.69a18,18,0,0,0-2,.93,6.65,6.65,0,0,0-2.64,3.48,20.71,20.71,0,0,0-1.13,5,59.53,59.53,0,0,0,0,10.93,78.25,78.25,0,0,0,2.54,13.38,74.85,74.85,0,0,0,5,14.1,20.72,20.72,0,0,0,2.37,3.79,5.11,5.11,0,0,0,1.49,1.31,1.84,1.84,0,0,0,.36.15,1,1,0,0,0,.35,0,2.19,2.19,0,0,0,.8-.2,4.61,4.61,0,0,0,1.71-2.38,19.25,19.25,0,0,0,.86-3.28,53.59,53.59,0,0,0,.64-6.95c.15-3.62,0-7.19.08-10.84,0-.8,0-1.6.11-2.42a10.67,10.67,0,0,1,.69-3.25,2.07,2.07,0,0,1,1.19-1.2,1.61,1.61,0,0,1,.61-.09c.49.23.17.94,0,3-.29,3-.18,6.35-.22,9.69a100.39,100.39,0,0,1-.45,10.3,31.36,31.36,0,0,1-.67,3.95,11.49,11.49,0,0,1-1.73,4.08,5.79,5.79,0,0,1-.9,1,4.51,4.51,0,0,1-1.28.74,4.31,4.31,0,0,1-1.46.29,3.77,3.77,0,0,1-.86-.08,4.42,4.42,0,0,1-.75-.26,6.36,6.36,0,0,1-2-1.51,15.53,15.53,0,0,1-1.33-1.68Z"/><path class="cls-1" d="M209.93,305.22a29.75,29.75,0,0,0-7.57,1.07c-2.06.52-3.84,2.5-5.34,4.56a45,45,0,0,0-3,4.89,156.7,156.7,0,0,0-8.3,18.8c-1.1,2.86-2.09,5.77-3.13,8.65-.35.93-.67,1.85-1.07,2.79a12.17,12.17,0,0,1-.72,1.45c-.1.14-.23.31-.36.46a2.44,2.44,0,0,1-.3.28c-.19.18-.38.35-.58.51a11.68,11.68,0,0,1-5.63,2.77c-.7.08-1-.13-1-.36s.34-.54.76-.92c.84-.74,2.06-1.89,3.69-3.14.37-.27.72-.56,1.06-.86l.12-.12,0,0,0,0c.26.29-.58-.64.59.64l0,0-.05-.06a5.76,5.76,0,0,0-.41-.44l-.11-.11h0l0-.06c.08-.15.17-.28.27-.5.38-.79.75-1.71,1.1-2.62q1.07-2.77,2.11-5.56c1.42-3.74,2.89-7.49,4.54-11.19a137,137,0,0,1,6.4-13.45,27.84,27.84,0,0,1,5.14-6.66l.88-.69c.3-.22.65-.4,1-.6a7.49,7.49,0,0,1,1.08-.47,10.41,10.41,0,0,1,1-.3,35.76,35.76,0,0,1,4.1-.8,25.37,25.37,0,0,1,5.16-.2,11.2,11.2,0,0,1,5.14,1.47,38.73,38.73,0,0,1,6,4.93,12.62,12.62,0,0,1,2.41,3.2c.07.18.15.34.21.54a2.94,2.94,0,0,1,.11.66A1.93,1.93,0,0,1,225,315a2.4,2.4,0,0,1-1,.85,4.55,4.55,0,0,1-1.08.33,5.47,5.47,0,0,1-3.28-.38A13.86,13.86,0,0,1,217,314.2a37.27,37.27,0,0,0-4.65-3.14l-.35-.17a.41.41,0,0,0-.19,0,2.45,2.45,0,0,0-.37,0c-.29,0-.6.05-.92.1-1.49.2-2.5.4-3.22.44a2.68,2.68,0,0,1-1.55-.25,2.32,2.32,0,0,0-.59-.21c-.17,0-.33,0-.11-.36a2,2,0,0,1,.58-.54,9.18,9.18,0,0,1,2.57-1c.66-.17,1.33-.31,2-.43.35-.06.72-.11,1.12-.14.22,0,.38,0,.68,0a3.72,3.72,0,0,1,.92.21l.58.29a4.11,4.11,0,0,1,.51.27c.34.18.67.38,1,.58.65.41,1.25.85,1.83,1.29a29.29,29.29,0,0,0,3.32,2.31,4.25,4.25,0,0,0,1.48.46,3.1,3.1,0,0,0,.68,0l.37-.08.21-.07h0l0,0-.05-.14a3.48,3.48,0,0,0-.17-.33,7.17,7.17,0,0,0-.49-.73,31.41,31.41,0,0,0-5.61-5.18,14.38,14.38,0,0,0-1.51-1,6.51,6.51,0,0,0-1.52-.6,13.6,13.6,0,0,0-3.61-.4Z"/><path class="cls-1" d="M221.19,323.42a3,3,0,0,1,.34.16l.07,0a.18.18,0,0,0,.19-.06.25.25,0,0,0,.06-.15.25.25,0,0,0,0-.09,1.44,1.44,0,0,0-.12-.32,6.23,6.23,0,0,0-1-1.45,16.58,16.58,0,0,0-1.82-1.59,28.86,28.86,0,0,0-3.64-2.49,19.11,19.11,0,0,0-4-1.78,3.58,3.58,0,0,0-1.68-.16c-.67.11-1.34.24-2,.38a49.7,49.7,0,0,1-5.05,1.06c-1.08.11-.33-2.49,1.66-3,.89-.21,1.78-.39,2.68-.54l1.33-.22.67-.09c.25,0,.36-.06.79-.09a6.13,6.13,0,0,1,1.76.2,11.41,11.41,0,0,1,1.43.47,17.9,17.9,0,0,1,2.56,1.26,37.93,37.93,0,0,1,5.71,3.75,12.16,12.16,0,0,1,2.19,2.37,5.1,5.1,0,0,1,.81,1.67,3.54,3.54,0,0,1,.1,1.16,3.06,3.06,0,0,1-.34,1.06,2.6,2.6,0,0,1-.62.7,2,2,0,0,1-.87.33,3.49,3.49,0,0,1-1.65-.23,10.34,10.34,0,0,1-1.11-.51c-.69-.36-1.33-.75-2-1.13a29.91,29.91,0,0,0-5.86-3,10.8,10.8,0,0,0-4.75-.48c-.33.06-.66.11-1,.19-1.22.27-1.61.31-2.13-.19-.11-.11-.25-.22-.35-.34-.32-.38.06-1,1.15-1.48a10,10,0,0,1,5.21-.55,17.21,17.21,0,0,1,5,1.58c1.15.54,2.24,1.16,3.29,1.78a33.39,33.39,0,0,0,3,1.66Z"/><path class="cls-1" d="M222.81,330.21a2.49,2.49,0,0,1-1.29.26,4.33,4.33,0,0,1-.86-.15l-.48-.13-.53-.22c-.69-.28-1.43-.66-2.13-1l-1.26-.64c-.56-.27-1.14-.46-1.7-.7a14.43,14.43,0,0,0-6.08-1.38,7.6,7.6,0,0,0-2.67.57c-1.1.44-2,1.15-3.11,1.66-.35.14-.7-.36-.79-1a2,2,0,0,1,.85-2,10.93,10.93,0,0,1,8.48-1.22,30.87,30.87,0,0,1,4.84,1.48l1.24.56.6.3.3.15.11.07a11.12,11.12,0,0,0,1.06.57c.24.1.55.27.83.15s.16-.47.05-.67a4.41,4.41,0,0,0-.75-1l-.24-.25-.31-.28c-.3-.26-.61-.52-.92-.76a20,20,0,0,0-3.15-1.85l-.71-.34c-.87-.44-1.06-.69-1-1.36a3.24,3.24,0,0,1,.05-.46c.09-.5.67-.71,1.46-.46a14.8,14.8,0,0,1,3.26,1.56c.52.33,1,.68,1.51,1.05l.73.58.36.3.25.22.32.3a8.83,8.83,0,0,1,2.64,3.52,2.29,2.29,0,0,1,0,1.37,1.53,1.53,0,0,1-.36.72,1.6,1.6,0,0,1-.57.54Z"/><path class="cls-1" d="M196.77,355.23a13.74,13.74,0,0,1-3.34,3.64,10.81,10.81,0,0,1-4.63,1.93,8.89,8.89,0,0,0-2.64,1,26.72,26.72,0,0,0-4.46,3.11,43.51,43.51,0,0,0-4,3.87,36.15,36.15,0,0,0-3.12,3.89c-1.22,1.74-2.26,3.59-3.41,5.3-.36.53-.9.22-1.18-.56a3.78,3.78,0,0,1,.42-3.16,43.53,43.53,0,0,1,8.9-10.23,32.22,32.22,0,0,1,7-4.87c.39-.15.79-.28,1.18-.42a2.64,2.64,0,0,1,.35-.1l.34-.05.5-.08a8.38,8.38,0,0,0,1.9-.59,8.77,8.77,0,0,0,3.19-2.44,16.87,16.87,0,0,0,2.64-4.51,43.64,43.64,0,0,0,2.28-7.87c.43-2.1.64-4.19,1.13-6.34.11-.47.22-.95.38-1.43.62-1.79,1.45-2.38,2.19-2.14a1.48,1.48,0,0,1,.46.19.75.75,0,0,1,.16.71,6.28,6.28,0,0,1-.32,1.14,41.47,41.47,0,0,0-1.14,5.36c-.35,1.93-.72,3.92-1.21,5.92a30.48,30.48,0,0,1-3.42,8.77Z"/><path class="cls-1" d="M154.7,348.51a42.54,42.54,0,0,0-4.45,1.31c-.53.19-1.05.43-1.57.64-1.89.68-3.76,1.44-5.6,2.3a20.6,20.6,0,0,0-2.33,1.33,16.15,16.15,0,0,1-2.93,1.76c-.69.25-1.22-2.18,0-2.94a30.15,30.15,0,0,1,6.51-3.16c1.38-.46,2.7-1.18,4.08-1.72s3.07-1.09,4.65-1.52c1-.27,1.94-.51,2.93-.71a36.87,36.87,0,0,1,4.55-.63,21.72,21.72,0,0,1,3.62-.14,5.76,5.76,0,0,1,.82.06c1,.27,1.28.53,1.24,1.19a3.13,3.13,0,0,1,0,.44,1.08,1.08,0,0,1-1.22.72,32.82,32.82,0,0,0-5.72.22c-.74.14-1.49.23-2.23.38s-1.5.3-2.24.53Z"/><path class="cls-1" d="M179.17,310.47c-.52,2-1,4-1.44,6-.16.75-.25,1.51-.42,2.25-.6,2.62-1.21,5.25-1.81,7.88-.26,1.16-.49,2.35-.7,3.52a18.74,18.74,0,0,1-1.12,4.48c-.4.87-2.32-.93-1.92-2.57.68-3,1.35-6,2.24-9,.53-1.8.76-3.74,1.15-5.62.43-2.06.89-4.13,1.38-6.19.3-1.27.64-2.54,1-3.8.52-1.91,1.1-3.82,1.73-5.69.22-.74.44-1.47.69-2.2l.36-1.1c.13-.36.29-.72.44-1.08s.25-.64.4-.95c.65-1.14,1-1.4,1.7-1.25a2.28,2.28,0,0,1,.45.11c.46.2.52.85.19,1.63-.94,2.35-1.81,4.88-2.61,7.52-.6,1.95-1.12,4-1.61,6Z"/><path class="cls-1" d="M234.08,334.26c-8.37,10.05-22.89,3.21-22.89,3.21l-2.61-11.05c4-1.56,12.42,4.37,14.16,2.62,1.16-1.16-.48-3.25-.48-3.25,4.61-3.37-3-7.42-3-7.42,7-.21,4.79-5.85,4.79-5.85-8.84-13.47-21.65-7.81-21.65-7.81l-3.19-11.19c6.33,2.63,18.82,5.12,33.9-2.87Z"/><path class="cls-1" d="M203.9,296.56c-.44-.1-.88-.2-1.31-.34l-.65-.19-.2-.06h0l-.29-.13a2.85,2.85,0,0,0,.06.32l.71,2.58,1.16,4.25.25-.07.71-.18.79-.16a20.9,20.9,0,0,1,3.17-.33,18,18,0,0,1,6.3,1,19.5,19.5,0,0,1,5,2.6c.71.61,1.47,1.17,2.13,1.83s1.29,1.33,1.85,2.06l.9,1.24.44.62a4.6,4.6,0,0,1,.3.44c.06.19.14.43.18.57a6.14,6.14,0,0,1-.08,3.57,6,6,0,0,1-.42.89,6.62,6.62,0,0,1-.62.76,5.27,5.27,0,0,1-.75.61l-.4.23-.2.11-.05,0,.06,0h0a3,3,0,0,1-.92.16c.08.08.36.24.52.39s.21.19.27.23a11.82,11.82,0,0,1,.88,1,5,5,0,0,1,1.15,2.68c0,.28,0,.56-.06.83a6.51,6.51,0,0,1-.27.78,2.55,2.55,0,0,1-.41.66l-.23.31c-.08.11.05-.08,0,0l0,0-.22.19.15.25a6.39,6.39,0,0,1,.31.82,3,3,0,0,1,.08,1.43,2.34,2.34,0,0,1-.63,1.24,2.22,2.22,0,0,1-1.24.59,4.34,4.34,0,0,1-.72,0l-.38,0-.27,0c-.35-.07-.67-.15-1-.24-.63-.19-1.22-.41-1.81-.62a38.22,38.22,0,0,0-6.8-2.27,4.15,4.15,0,0,0-1.26-.06l-.24.05-.12,0,0,.12.11.48.88,3.74,1,4,.24,1,.06.24,0,.11s.06,0,.1.06,1,.37,1.55.56a24.58,24.58,0,0,0,10,1.21l1.24-.16c.4-.08.8-.19,1.2-.28a16.42,16.42,0,0,0,2.34-.77c.37-.15.72-.37,1.08-.55a5.88,5.88,0,0,0,1.06-.62,13.53,13.53,0,0,0,1.94-1.52c1.47-1.4,1.83-.89.94.9-.11.22-.24.47-.4.73a7.28,7.28,0,0,1-.6.75,8.77,8.77,0,0,1-1.69,1.62l-1.12.78c-.41.23-.86.43-1.32.64a6.78,6.78,0,0,1-1.45.54c-.51.13-1,.29-1.58.39a24.3,24.3,0,0,1-5.77.19,30.42,30.42,0,0,1-5.56-1.11c-.45-.13-.91-.27-1.35-.43-.22-.08-.45-.15-.67-.24l-.85-.34c-.39-.18-.82-.34-1.19-.55-.11-.43-.22-.85-.32-1.28l-.34-1.46L208,330.65l-.72-3.13-.14-.63c0-.2,0-.38-.05-.56l0-.56,0-.28c0-.09-.05-.2.09-.21a12,12,0,0,1,2.29-.59l.63-.05.64,0a4.22,4.22,0,0,1,.47,0l.39.05c.51.08,1,.19,1.47.31.94.25,1.83.56,2.7.88,1.72.64,3.38,1.4,4.93,1.87l.56.15.3.06a.31.31,0,0,0,.26-.06.3.3,0,0,0,.09-.26c0-.07,0-.05,0-.19a1,1,0,0,0-.1-.25c-.1-.18-.18-.36-.29-.53v0c0-.43,0-.76,0-1s.19-.66.28-1l.19-.17.13-.11.1-.1h0l.11-.15c.05-.09.19-.18.19-.27a1.28,1.28,0,0,1,.11-.27.92.92,0,0,1,0-.28,2.76,2.76,0,0,0-.65-1.4,7.38,7.38,0,0,0-.66-.73,12.08,12.08,0,0,0-1.65-1.25c-.29-.2-.62-.4-1-.61l-1.07-.61-1.07-.61-.52-.29a4.29,4.29,0,0,1-.44-.26l2-.16,2.17-.22a6.21,6.21,0,0,0,1-.16l.91-.2a1.37,1.37,0,0,0,.29-.09l.08-.05.15-.09c.1-.07.23-.1.3-.19a2.6,2.6,0,0,0,.86-2.5,4.77,4.77,0,0,0-.15-.77A.3.3,0,0,0,223,313l-.25-.35-1.11-1.51c-.39-.49-.84-.92-1.25-1.38-.21-.22-.41-.46-.64-.67l-.7-.6a16,16,0,0,0-7.68-3.68,18.89,18.89,0,0,0-4.32-.14c-.72.09-1.44.19-2.15.35-.18,0-.35.09-.53.13l-.35.09-.44.14c-.6.22-1.2.44-1.79.68-.92-3.12-1.21-4.32-1.72-6.13l-1.75-6.28c-.14-.52-.34-1.13-.42-1.59,1,.41,2.07.82,3.11,1.19.5.18,1.1.41,1.51.52l1,.29a38.52,38.52,0,0,0,4,.83,36.77,36.77,0,0,0,8.19.26,41.87,41.87,0,0,0,6.56-1.05,46.94,46.94,0,0,0,6.33-2.1c.53-.23,1-.41,1.57-.67l2.06-1,1-.5.51-.25s0,0,.06,0v.53l0,2.42c.05,2.33.1,4.66.15,7,.18,7,.5,13.8.75,20.69.06,1.52.12,3,.18,4.53.16,5.67,0,7.48-.58,8.71a4.78,4.78,0,0,1-.42.82c-.48.55-.94-1.75-1.17-5.9-.35-6.16-.61-12.48-.82-18.9-.09-3.21-.19-6.44-.28-9.68l-.12-4.88,0-1.22v-.3c0-.07,0,0,0,0h0l-.12.06-.3.15-.08,0-.34.14-.87.37-1.74.72-1.78.62c-1.17.44-2.41.71-3.62,1.06s-2.46.57-3.71.73a39.13,39.13,0,0,1-15.09-.54Z"/><path class="cls-1" d="M215.94,274.55l-1.49.25-1.52.11a23.39,23.39,0,0,1-3,.11c-.74,0-1.48.07-2.21,0a32.46,32.46,0,0,1-7.59-1.6c-.54-.2-1.08-.39-1.63-.57l-1.59-.64a12.18,12.18,0,0,1-3.81-2.25c-.36-.36,0-.65.6-.81a2.75,2.75,0,0,1,2,.22,36,36,0,0,0,7.71,3.19,22.73,22.73,0,0,0,5.17.65c1,0,1.92.06,2.89,0s1.93-.14,2.89-.24c1.17-.22,2.36-.39,3.53-.64a37.11,37.11,0,0,0,5.18-1.64c.65-.27,1.28-.56,1.91-.86s1.2-.69,1.81-1c.27-.16.52-.32.79-.47,1-.53,1.38-.58,1.84-.25a1.47,1.47,0,0,1,.31.23c.29.28,0,.77-.7,1.26a30.51,30.51,0,0,1-3.39,2c-1.23.54-2.49,1.06-3.76,1.55A42.84,42.84,0,0,1,216,274.6Z"/><path class="cls-1" d="M200.69,261.77a31.83,31.83,0,0,1,14.94-2.08l2.73.25c.9.13,1.79.31,2.68.48a37.92,37.92,0,0,1,4.63,1.21c.76.25,1.55.42,2.28.73l2.22.87,2.76,1.07.11,0s0,.07,0,.11v2.83l.05,4.69c0,2.77.13,5.55.25,8.3.14,3.53.42,7.07.26,10.61-.1,2.2-2.5-.53-2.63-4.59-.13-3.61-.21-7.21-.25-10.83,0-1.8,0-3.61,0-5.43l0-2.72v-1.16c0-.09.07-.23-.06-.26l-.1-.05-.06,0-.18-.08-.75-.3-1.51-.6c-.51-.19-1-.4-1.53-.57l-1.58-.44c-1.05-.28-2.1-.63-3.17-.84l-3.21-.61c-1.18-.2-2.37-.25-3.55-.4a13.25,13.25,0,0,0-1.78-.07h-1.78c-1.19,0-2.36.2-3.55.29l-1.74.34a11.45,11.45,0,0,0-1.73.41,23.16,23.16,0,0,0-7.81,3.76,14,14,0,0,0-1.27,1,6.32,6.32,0,0,0-.6.56l-.28.27c-.07.06-.11.12-.16.17l-.16.18c0,.06,0,.14,0,.22l.15.62.4,1.66q.8,3.33,1.63,6.62c.88,3.41,1.87,6.72,2.82,10.07l.63,2.2c.73,2.77.8,3.69.32,4.44a2.88,2.88,0,0,1-.32.5c-.42.39-1.1-.65-1.75-2.65-1.92-5.93-3.57-12.27-5.16-18.66l-.88-3.57-.33-1.37-.09-.44,0-.22c0-.07.08-.12.12-.18l.58-.69c.18-.22.42-.51.54-.62l.36-.36c.24-.24.49-.45.74-.67a24.43,24.43,0,0,1,6.67-4.11Z"/><path class="cls-4" d="M220.5,303.14l-6.58-62.52c0-.72-2.9-.42-2.8.29l6.57,62.53C217.74,304,220.56,303.71,220.5,303.14Z"/><path class="cls-4" d="M211.94,228.2l-2.12-23.39c0-.27-2.86,0-2.81.26l2.12,23.38A6.22,6.22,0,0,0,211.94,228.2Z"/><path class="cls-1" d="M231.94,360.05c-2.56-1.78-3.76,2.66-2.76,3.66,1.38,1.38,4.14.29,4.41-1.76C233.72,361,232.82,360.36,231.94,360.05Z"/><path class="cls-1" d="M232.17,365.4a3.79,3.79,0,0,1-3.23-.47,6.77,6.77,0,0,1-.54-.43,2.22,2.22,0,0,1-.4-.61,3.31,3.31,0,0,1-.05-2.06,4.86,4.86,0,0,1,.74-1.62A3.33,3.33,0,0,1,230,359a1.89,1.89,0,0,1,2.25.34c.16.18-.21.59-.61,1s-.78.76-.79.79,0,0,0,0,0,0,0,0a.19.19,0,0,1-.1,0,2.92,2.92,0,0,0-.69.8,1.24,1.24,0,0,0-.18.71.71.71,0,0,0,.1.41l0,0a1.31,1.31,0,0,0,1.14.4,2.17,2.17,0,0,0,1-.34,1.73,1.73,0,0,0,.86-1.24.5.5,0,0,0-.18-.4,2,2,0,0,0-.42-.22c-.07,0-.16,0-.24-.08-.29-.12-.33-.28-.21-.84L232,360a.74.74,0,0,1,.85-.65,2.6,2.6,0,0,1,1.88,1.29A2.46,2.46,0,0,1,235,362a2.5,2.5,0,0,1-.06.38l-.06.3q-.09.28-.21.57a4.27,4.27,0,0,1-2.52,2.16Z"/><path class="cls-1" d="M230.79,348.49c-2.49-1.73-4.54,1.54-2.09,3.27,1.54,1.09,3.53.74,3.8-1.25C232.62,349.61,231.65,348.79,230.79,348.49Z"/><path class="cls-1" d="M230.87,353.68a4.29,4.29,0,0,1-2.86-1,4.16,4.16,0,0,1-.79-.78,3.18,3.18,0,0,1-.56-2,2.81,2.81,0,0,1,.85-1.83,3.08,3.08,0,0,1,1.57-.83,2.06,2.06,0,0,1,2,.56c.14.17-.23.59-.63,1s-.78.76-.88.75a2.91,2.91,0,0,0-.39-.05.7.7,0,0,0-.49.28c-.21.28,0,.66.26,1a2.66,2.66,0,0,0,1.34.83,1.41,1.41,0,0,0,.87-.08,1.12,1.12,0,0,0,.48-.44,1.21,1.21,0,0,0,.19-.67.49.49,0,0,0-.23-.37,2.32,2.32,0,0,0-.47-.27l-.24-.09c-.28-.12-.29-.27-.17-.84l.08-.38a.74.74,0,0,1,.86-.64,2.85,2.85,0,0,1,1.77,1.12,2.64,2.64,0,0,1,.49,1.35,2.93,2.93,0,0,1,0,.73,3.11,3.11,0,0,1-.15.56,3.25,3.25,0,0,1-1.11,1.54,3.35,3.35,0,0,1-1.76.66Z"/><path class="cls-1" d="M363.4,373c-3.23.18-6.46.36-9.68.56-1.18.07-2.35.21-3.53.27-4.14.23-8.3.41-12.44.66-1.84.1-3.69.28-5.51.47a55.19,55.19,0,0,1-7,.55c-1.48,0,.18-2.51,2.88-2.75,4.78-.44,9.57-.73,14.41-.8,2.9,0,5.9-.39,8.85-.58l9.75-.61c2-.12,4-.24,6-.38,3-.21,6.06-.39,9.06-.67,2.33-.22,4.61-.57,6.9-.87.51-.06,1-.15,1.51-.2,1.9-.2,2.51-.09,3,.52a2.33,2.33,0,0,1,.31.41c.22.48-.52.95-1.9,1.21a128.11,128.11,0,0,1-12.79,1.56c-3.24.27-6.5.47-9.75.71Z"/><path class="cls-1" d="M241.5,383.4l-12.9.85c-1.57.11-3.13.29-4.7.39-5.53.35-11.06.67-16.58,1-2.45.16-4.91.4-7.34.64-3.11.32-6.23.76-9.37.77-2,0,.31-2.52,3.9-2.85,6.37-.58,12.75-1,19.2-1.24,3.86-.13,7.86-.57,11.79-.86l13-.9c2.66-.19,5.33-.37,8-.57,4-.31,8.09-.58,12.08-.95,3.11-.29,6.14-.72,9.21-1.09.67-.08,1.33-.18,2-.25,2.53-.25,3.35-.16,3.94.43a3.06,3.06,0,0,1,.4.41c.28.47-.71,1-2.55,1.27-5.46.9-11.25,1.45-17.07,1.95-4.32.37-8.66.68-13,1Z"/><path class="cls-1" d="M98.78,395.55l-9,.52c-1.1.07-2.19.21-3.29.27-3.88.21-7.76.39-11.63.62-1.72.1-3.45.27-5.14.46a48.36,48.36,0,0,1-6.58.52c-1.37,0,.16-2.5,2.68-2.74,4.46-.42,8.93-.7,13.46-.75,2.71,0,5.51-.37,8.27-.56l9.1-.58,5.61-.36c2.82-.2,5.66-.37,8.46-.64,2.18-.21,4.3-.56,6.45-.85.47-.07.93-.15,1.41-.2,1.76-.19,2.34-.08,2.78.52a3.52,3.52,0,0,1,.29.42c.21.48-.48.95-1.77,1.2a109.61,109.61,0,0,1-11.94,1.52c-3,.26-6.07.46-9.11.69Z"/><path class="cls-1" d="M89.12,435.84q-4.84-3-9.62-6c-1.16-.74-2.36-1.42-3.52-2.17-4.08-2.64-8.11-5.34-12.16-8-1.79-1.19-3.63-2.34-5.44-3.46a58.83,58.83,0,0,1-6.89-4.58,1.39,1.39,0,0,1-.21-.21,1.18,1.18,0,0,1-.14-.23.29.29,0,0,1,.07-.34,2.42,2.42,0,0,1,1-.3,6.1,6.1,0,0,1,3.67,1c4.69,3,9.35,6.11,14,9.39,2.76,2,5.8,3.72,8.72,5.56,3.2,2,6.42,4,9.65,6q3,1.85,6,3.62c3.05,1.78,6.12,3.57,9.24,5.17a79.6,79.6,0,0,0,7.36,3.25l1.63.58c2,.73,2.56.93,2.92,1.64a3.87,3.87,0,0,1,.26.49c.09.26-.09.46-.57.57a4.76,4.76,0,0,1-2-.11c-4.91-1.27-9.45-3.68-14-6.1-3.35-1.82-6.65-3.77-9.93-5.72Z"/><path class="cls-1" d="M89.2,437.54c-2.82-1.62-5.62-3.27-8.41-4.92-1-.61-2.07-1.15-3.08-1.77-3.56-2.17-7.08-4.41-10.61-6.63-1.56-1-3.17-1.92-4.76-2.84a43.66,43.66,0,0,1-6-3.8,1,1,0,0,1-.18-.18,1.38,1.38,0,0,1-.13-.22.29.29,0,0,1,.09-.32,2.49,2.49,0,0,1,.94-.36,4.78,4.78,0,0,1,3.25.65c4.08,2.49,8.15,5,12.15,7.77,2.4,1.63,5.06,3.05,7.61,4.56,2.8,1.66,5.6,3.32,8.43,4.93,1.74,1,3.48,2,5.24,2.94,2.66,1.44,5.35,2.88,8.07,4.14a60.3,60.3,0,0,0,6.44,2.46l1.42.42c1.77.54,2.21.71,2.53,1.41a3.41,3.41,0,0,1,.22.48c.08.26-.08.46-.48.59a3.91,3.91,0,0,1-1.77,0A31.27,31.27,0,0,1,103.9,445c-2-.82-4.05-1.75-6-2.74-2.94-1.46-5.82-3-8.7-4.62Z"/><path class="cls-1" d="M328.84,436.55,279.65,441l-17.94,1.65c-21.09,1.8-42.19,3.48-63.32,4.89L170.3,449.4c-12,.74-24,1.53-35.94,1.68a12.76,12.76,0,0,1-2.05-.11,3.19,3.19,0,0,1-.59-.14c-.14-.07-.17-.13-.13-.18a8,8,0,0,1,2.66-.87A102.9,102.9,0,0,1,150,447.93c24.39-1.21,48.76-2.72,73.34-4.42,14.7-1,30-2.48,45-3.81l49.54-4.51,30.48-2.87,46.11-4.38c11.88-1.15,23.5-2.4,35.25-3.46,2.59-.23,5.12-.47,7.73-.67,9.69-.71,12.86-.58,15,.17.45.17,1.15.4,1.25.67,0,0,0,.05,0,.05h0s0,0,0,0l0,0-.09.08-.08.1s0,0,0,0l-.07,0-1.71.12-8,.62c-10.47.84-21.24,1.93-32.16,3l-33.11,3.21-49.6,4.75Z"/><path class="cls-1" d="M441.56,399.7l-9.51-5.86c-1.16-.71-2.35-1.36-3.51-2.07l-12.19-7.6c-1.81-1.12-3.66-2.18-5.49-3.21a70.48,70.48,0,0,1-7-4.16c-1.37-1,1.65-1.91,4.35-.34,4.79,2.77,9.5,5.66,14.14,8.77,2.77,1.86,5.81,3.53,8.73,5.3l9.6,5.87L446.6,400c3,1.8,6,3.63,9,5.35,2.34,1.33,4.71,2.52,7.07,3.76l1.56.8a10.19,10.19,0,0,1,1.95,1.25,1.67,1.67,0,0,1,.58,1,2.77,2.77,0,0,1,.09.54c0,.28-.25.41-.7.37a3.42,3.42,0,0,1-.82-.17,7.88,7.88,0,0,1-1-.39c-4.37-2-8.74-4.47-13.11-7-3.24-1.89-6.46-3.84-9.68-5.77Z"/><path class="cls-1" d="M445.47,400.35l-8.64-5.5c-1.05-.67-2.13-1.27-3.18-1.94l-11.06-7.13c-1.65-1-3.33-2-5-3a60.66,60.66,0,0,1-6.36-3.88c-1.24-.94,1.64-1.91,4.1-.45,4.35,2.58,8.62,5.29,12.81,8.21,2.51,1.75,5.28,3.31,7.93,5l8.71,5.5,5.37,3.38c2.71,1.69,5.43,3.42,8.16,5,2.13,1.26,4.28,2.36,6.42,3.53.47.26.95.49,1.42.77,1.73,1,2.2,1.47,2.25,2.25a3.26,3.26,0,0,1,0,.53c-.09.53-1,.46-2.32-.18-3.95-1.88-7.93-4.21-11.88-6.6l-8.79-5.42Z"/><path class="cls-1" d="M327.78,440l-47.6,3.91-17.35,1.51-61.2,4.93-27.14,2.35a252,252,0,0,1-34.86.66c-1.8-.11-2.54-.33-2.5-.62s.94-.66,2.48-1a94.38,94.38,0,0,1,15.3-1.31q8.81-.14,17.61-.73c5.86-.38,11.75-.92,17.66-1.39q17.7-1.43,35.52-2.7c14.22-1,29-2.43,43.52-3.66l47.94-4,29.51-2.46,44.63-3.81c11.49-1,22.73-2.2,34.09-3.29l7.46-.71c4.68-.42,7.77-.63,9.95-.64a13.47,13.47,0,0,1,4.5.47,8.38,8.38,0,0,1,1.33.46c.42.28-.33.6-1.94.91s-4.32.71-7.72,1.05c-20.25,2.18-41.66,4.13-63.15,6l-48,4.11Z"/><path class="cls-1" d="M330.8,441.34l-46.48,4.31-16.95,1.61-59.78,5.26c-8.85.77-17.73,1.62-26.5,2.46-5.64.54-11.32,1-17,1.09A91,91,0,0,1,147,454.86c-1.74-.3-2.38-.45-2.35-.7s.92-.53,2.46-.6c3-.15,8.45-.1,14.89-.12,5.7,0,11.43-.32,17.15-.83l17.28-1.53q17.3-1.5,34.69-2.89c13.89-1.11,28.32-2.58,42.51-3.89l46.82-4.36,28.8-2.76c14.53-1.44,29.14-2.86,43.55-4.46,11.2-1.22,22.16-2.61,33.21-4l7.26-1c9.1-1.14,12-1.45,14-1.05a9.85,9.85,0,0,1,1.35.26c.94.37-2.71,1.28-9.36,2.31-19.73,2.91-40.62,5.23-61.59,7.44-15.58,1.64-31.25,3.16-46.87,4.69Z"/><path class="cls-1" d="M162.12,456.62h-1.37l-.34,0a2.26,2.26,0,0,1-.3-.06c-.15-.06.23.11-.36-.14a1.72,1.72,0,0,1-.85-1.87,1.48,1.48,0,0,1,.36-.69,1.72,1.72,0,0,1,.53-.41c.26-.12.27-.11.27-.11h.05l.1,0,.13,0c.44-.07.68-.09,1-.12l.88-.07,3.46-.24,6.9-.42,13.77-.79,27.53-1.55L234,448.8l15-.93,7.49-.53,3.74-.31,1.84-.19.9-.11a4.91,4.91,0,0,0,.64-.12l.15-.07s0-.14.19.25a3,3,0,0,0,.48.53l.1,0h0s-.09.08-.13.15a6,6,0,0,0-.27.82c0,.08,0,0-.05,0h-.09a9.84,9.84,0,0,0-1.12,0c-.82,0-1.66.06-2.49.12-1.68.11-3.37.26-5.06.42-3.37.31-6.75.67-10.13,1l-20.29,2.23-15.67,1.7-7.83.79c-2.59.26-5.24.48-7.85.59-6.72.31-13.43.35-20.13.32l-10-.11c-3.34,0-6.69-.14-10-.07l-1.28,0-.42,0h-.06l0-.12c0-.16-.22-.36-.22-.41a.27.27,0,0,0-.1-.08s0,0,0,0,.2-.16.39-.42l0-.06h0l0,0,.11.13c.06.08.08.15.05.21a.39.39,0,0,1-.26.13,1,1,0,0,1-.24,0c-.08,0-.22,0-.13-.12a5.22,5.22,0,0,1,2-.78c3.55-.85,10.08-1.39,17.77-1.33,6.82.05,13.63.09,20.4-.11,3.41-.09,6.7-.31,10.12-.64l10.18-1c13.59-1.36,27.2-2.95,40.93-4.25,2.07-.19,4.15-.38,6.27-.54,1.06-.08,2.13-.15,3.22-.19.55,0,1.1,0,1.71,0l.49,0a2.13,2.13,0,0,1,.94.3,1.71,1.71,0,0,1,.26.21l.06.06.12.17a1.68,1.68,0,0,1,.17.41,1.3,1.3,0,0,1,0,.43,1.2,1.2,0,0,1-.05.26,1.75,1.75,0,0,1-.22.43c-.11.17-.14.18-.18.21l-.12.11a1.83,1.83,0,0,1-.21.15,1.71,1.71,0,0,1-.29.16l-.28.13a2.69,2.69,0,0,1-.46.14l-.35.07-.63.1-1.19.14-2.36.23-4.71.39-9.44.69c-6.31.44-12.64.86-18.93,1.23L171,455.12c-2.84.17-5.69.34-8.52.56l-1.05.09-.49.05h-.1v0l0-.14a5.52,5.52,0,0,0-.16-.54.19.19,0,0,0-.08-.22s.05-.06,0-.09a1.55,1.55,0,0,0,.07-.23,1.76,1.76,0,0,0,.06-.46c0-.23,0-.15,0-.16h.11c.64,0,1.38,0,2.08,0l4.27-.09c5.68-.16,11.38-.38,17.07-.6,8.63-.33,17.27-.65,25.91-.91s17.25-.5,25.87-.31c.83,0,1.68.09,2.52.12l1.26.08,1.29.17.64.09a3,3,0,0,1,.73.15,1.38,1.38,0,0,1,.66.46,1,1,0,0,1,.17.53,1.37,1.37,0,0,1,0,.31,1.86,1.86,0,0,1-.1.2,1.12,1.12,0,0,1-.33.35,3.12,3.12,0,0,1-.76.38,22.28,22.28,0,0,1-2.51.66c-3.28.7-6.54,1.19-9.8,1.69-6.52,1-13,1.8-19.58,2.57-2.88.34-5.7.68-8.61,1-10.8,1.09-14.29,1.11-16.67.51a9,9,0,0,1-1.54-.46c-.49-.3.3-.48,2.24-.79s5-.68,8.93-1.11c11.67-1.3,23.68-2.72,35.76-4.47,3-.45,6.06-.92,9-1.54a17.29,17.29,0,0,0,2-.53l.12-.05h0l.23.42a3.61,3.61,0,0,0,.23.36,1.71,1.71,0,0,0,.2.27.78.78,0,0,0,.31.26s0,0-.09.08a3.74,3.74,0,0,0-.63,1.27l0,.11h-.09l-.25,0-.51-.06-1-.14c-.35-.05-.74-.05-1.11-.08l-2.25-.12c-6.11-.16-12.33,0-18.55.11-9.23.24-18.49.59-27.76.95s-18.54.77-27.88.94Z"/><path class="cls-1" d="M124,392.1c-.52-1.65-11.72,5.63-5,10.8,9.48,7.26,42.54-4.34,42.06-4.79C158.56,395.74,127,401.58,124,392.1Z"/><path class="cls-1" d="M319.84,390.41c2.74-.64,19,10.28,4.26,15.09-16.74,5.46-27.39-4.13-27.39-4.13s8.83,2.89,14.53.38C317.92,398.81,319.67,389.42,319.84,390.41Z"/><path class="cls-1" d="M222.21,149.87a4.16,4.16,0,0,1-2.84.56A4.77,4.77,0,0,1,217,149.2c-.23-.19-.41-.39-.62-.58a3.1,3.1,0,0,1-.6-.89,8.21,8.21,0,0,1-.55-2.83c0-.88,0-1.73,0-2.58s0-1.49-.12-2.22a9.94,9.94,0,0,1-.13-2.77c.1-.6,2.5-.09,2.59,1.06a37.58,37.58,0,0,1-.08,5.73,5.77,5.77,0,0,0,.12,1.62,3.62,3.62,0,0,0,.44,1.17,4.16,4.16,0,0,0,1.11,1,1.56,1.56,0,0,0,1.2.2,3.25,3.25,0,0,0,1.57-1,10.17,10.17,0,0,0,1.79-2.9,13.36,13.36,0,0,0,.64-2.62c0-.2,0-.39.09-.59.15-.71.35-.89,1-.91.15,0,.31,0,.45,0a.93.93,0,0,1,.84,1,12.05,12.05,0,0,1-1.47,5.3,9.28,9.28,0,0,1-3,3.56Z"/><path class="cls-1" d="M241.43,151.53a6.73,6.73,0,0,1-2,1.26,4.09,4.09,0,0,1-2.68.12,4.24,4.24,0,0,1-1.64-.83,4.38,4.38,0,0,1-.54-.51c-.08-.1-.16-.17-.25-.28l-.28-.4a3.84,3.84,0,0,1-.48-1.59,11.61,11.61,0,0,1,.14-2.63,15.69,15.69,0,0,0,.15-2.13,12.93,12.93,0,0,1,0-2.57c.06-.27.68-.32,1.3-.13s1.24.65,1.25,1.24a29.3,29.3,0,0,1-.65,5.46,1.6,1.6,0,0,0,.15,1.09,3.25,3.25,0,0,0,.39.4,4.21,4.21,0,0,0,.51.38,1.7,1.7,0,0,0,1.12.34,2.63,2.63,0,0,0,1.29-.49,6.67,6.67,0,0,0,1.5-1.42,12.57,12.57,0,0,0,1.76-2.85,13.17,13.17,0,0,0,.69-2.51c0-.18.05-.37.1-.55.16-.68.36-.84,1-.84h.45a.92.92,0,0,1,.82,1,11.72,11.72,0,0,1-1.54,5.06,13.61,13.61,0,0,1-2.55,3.38Z"/><path class="cls-1" d="M227.42,145.22a27.27,27.27,0,0,0,2.28-8.41,28,28,0,0,0,.06-3.17c-.1-3.7-1.1-7.49-3.59-10.2a10,10,0,0,0-4-2.6,22,22,0,0,0-6.2-.88c-.67-.07-.65-.69-.09-1.31a3.84,3.84,0,0,1,3.14-1.12,14.11,14.11,0,0,1,7.08,2.62,13.28,13.28,0,0,1,4.48,6,23.54,23.54,0,0,1,1.59,8.68,28.6,28.6,0,0,1-1.76,9.36,30.6,30.6,0,0,1-2.46,5.29,30.24,30.24,0,0,1-5.48,6.89,26.33,26.33,0,0,1-5.44,4.1,11.3,11.3,0,0,1-1.35.67,4.81,4.81,0,0,1-1.93.55,1.26,1.26,0,0,1-1-.36,1.93,1.93,0,0,1-.35-.35c-.28-.43.31-1,1.45-1.53a29.67,29.67,0,0,0,4.81-2.92,27.88,27.88,0,0,0,4.2-3.94,28.32,28.32,0,0,0,4.57-7.41Z"/><path class="cls-1" d="M238.1,125.32c-.23.28-.5.32-1,.28-.15,0-.43-.23-.39-.36a4.76,4.76,0,0,1,.27-.74,9,9,0,0,1,1-1,11.73,11.73,0,0,1,1.51-1.06,6.79,6.79,0,0,1,1-.52,8.39,8.39,0,0,1,1.06-.38,15.32,15.32,0,0,1,4.53-.71,9,9,0,0,1,1,.1c.57.11,1.15.28,1.72.38s1.13.34,1.7.49a3.41,3.41,0,0,0,.57.16,6.92,6.92,0,0,1,1.76.81,8.46,8.46,0,0,1,1.6,1.22l1,1.17c.3.41.56.84.83,1.26.08.12.2.22.21.37a2.37,2.37,0,0,0,.37.84,9.6,9.6,0,0,1,.54,1.12,1.79,1.79,0,0,1,.06.66c0,.2-.23.21-.3.18s-.2.07-.27.13l-.1.05c-.23.08-1.67-1.6-1.87-1.72l-1.1-1.22c-.64-.51-1.28-1.06-1.43-1.14a1.9,1.9,0,0,1-.41-.34,7,7,0,0,0-1.12-.61c-.58-.22-1.14-.47-1.19-.47a5.11,5.11,0,0,1-1.37-.53.73.73,0,0,0-.29-.07,18,18,0,0,0-2.57-.3,11.92,11.92,0,0,0-1.33.11,2.08,2.08,0,0,1-.25,0c-.1,0-.2,0-.3,0a10.84,10.84,0,0,0-3.06.93c-.11.06-.44.17-.79.29a6.72,6.72,0,0,0-.77.36A3.84,3.84,0,0,0,238.1,125.32Z"/><path class="cls-1" d="M220.55,178.06c-.27-.08-.27-.52,0-.87a1.1,1.1,0,0,1,.48-.3c.17,0,.3,0,.43,0s.3.08.65.14a6.27,6.27,0,0,0,.86.2,4.51,4.51,0,0,1,.53.09l.48.17a6.22,6.22,0,0,0,2,.34,1.18,1.18,0,0,1,.41.07,1.9,1.9,0,0,0,.71,0,3.12,3.12,0,0,0,.63-.22.23.23,0,0,0,.16-.18c.05-.16.94-.81,1-1a3.23,3.23,0,0,0,.54-.37l.48-.53c0-.05,0-.12.17-.14.3,0,.29-.2.36-.33a2.77,2.77,0,0,1,.34-.57,1.43,1.43,0,0,1,.39-.23c.13-.07.47.08.5.12s.27.1.42.13l.16,0a5.42,5.42,0,0,1,.13,1.8l-.49,1.15c-.29.56-.72,1.14-.78,1.26s-.24.19-.38.27-.38.42-.8.77-.92.62-1,.64a2.58,2.58,0,0,1-1.28.25.46.46,0,0,0-.26,0,5.38,5.38,0,0,1-2.08,0c-.33-.08-.68-.08-1-.17a.51.51,0,0,1-.16-.09,2,2,0,0,0-.21-.1,12.31,12.31,0,0,1-2.16-.86c-.17-.07-.77-.74-.94-.85S220.65,178.09,220.55,178.06Z"/><path class="cls-1" d="M263.52,288.5c-7.33,4.92-11.2-1.81-11.2-1.81-3.4-7.27,5-14.19,6.86-11.37C260.92,277.93,262.36,283.69,263.52,288.5Z"/><path class="cls-1" d="M272.5,267.26s3.32-1.42,4.16.48c1,2.18-.42,7.31-.42,7.31Z"/><path class="cls-1" d="M183.59,362c-2.46,3.71,6.26,32.63-2,34.34-4.86,1-10.72-18.45-10.37-19.49a.47.47,0,0,1,.06-.09C171.77,375.78,178.72,360.76,183.59,362Z"/><path class="cls-1" d="M240.88,198.7c19.46-14.17,23.88-55.63,23.65-70.8-10.61-11.27-14.47-26.64-22.13-27.53-12.76-1.49-26.67,19.79-44.5,31.33-1.64,14.63-.64,47.84,10.85,64-34.56,29.93-96.66-8.52-51.52-62.84,1.52-1.84,3.18-3.7,5-5.58.85-.89,1.52-50.4,37.68-64.52,31.94-12.47,53.32,10.37,55.63,14.33,8.34-6.41,19.92-5.73,29.32-1,31.94,16.23,7.05,76.38,7.89,76.6C313.67,158.23,316.5,244.47,240.88,198.7Z"/><path class="cls-1" d="M205.17,62.52c-1.65.46-3.25,1-4.86,1.63s-3.14,1.3-4.62,2.13a50.92,50.92,0,0,0-4.39,2.58l-2.07,1.49c-.69.48-1.32,1.07-2,1.6a50.76,50.76,0,0,0-7.09,7.34,63.72,63.72,0,0,0-5.63,8.58,84.56,84.56,0,0,0-7.44,19.24q-1.31,5-2.15,10.17c-.28,1.71-.53,3.42-.75,5.15l-.32,2.59-.16,1.33c0,.25-.05.4-.12.79a2,2,0,0,1-.21.53l-.06.13,0,0c.07.06,0,0,0,.06l0,.06-.17.23-2.58,2.9c-.82.93-1.66,1.83-2.46,2.78l-2.28,2.92c-.75,1-1.54,1.93-2.2,3l-2.06,3.06a15.77,15.77,0,0,0-1,1.57l-.91,1.6a66.11,66.11,0,0,0-3.3,6.57,42.83,42.83,0,0,0-3.58,19.72l.06,1.25c.06.42.14.83.2,1.24l.41,2.48.68,2.41c.12.4.21.81.36,1.2l.46,1.16a32.27,32.27,0,0,0,5,8.64l1.41,1.7c.5.54,1,1,1.57,1.57a35.6,35.6,0,0,0,3.34,2.9c.57.48,1.22.84,1.82,1.27a21.92,21.92,0,0,0,1.87,1.2,37.82,37.82,0,0,0,4,2c.69.3,1.36.62,2,.89l2.11.71,1.05.36,1.08.27,2.17.53c.72.17,1.47.25,2.2.37a20.24,20.24,0,0,0,2.21.3,41.29,41.29,0,0,0,4.45.19A40.73,40.73,0,0,0,198.49,201l2-1,1-.51.94-.6a32,32,0,0,0,3.68-2.53l1.17-.91s.07,0,.06-.06l0-.09-.11-.17-.41-.65a22.94,22.94,0,0,1-1.21-2l-1-2.1a74.56,74.56,0,0,1-5.58-17.69,137.87,137.87,0,0,1-2.27-18.32,149.28,149.28,0,0,1,0-18.44c.05-.77.09-1.54.18-2.31l.11-1.15.07-.84,0-.44.37-.25,1.17-.78c.32-.2.63-.42.94-.64.61-.43,1.23-.86,1.84-1.32,2.43-1.8,4.77-3.73,7.06-5.73,4.07-3.55,8-7.32,12-11s8.15-7.34,13.13-10a16.17,16.17,0,0,1,8.24-2,7.1,7.1,0,0,1,2.23.4,8.44,8.44,0,0,1,2,1,15.59,15.59,0,0,1,3.09,3,63.13,63.13,0,0,1,4.57,6.84c1.39,2.33,2.75,4.64,4.19,6.89a67.56,67.56,0,0,0,6.06,8.25l.85.95c.22.25.48.49.67.75v1c0,.87,0,1.75,0,2.62,0,1.75-.11,3.49-.22,5.23a159,159,0,0,1-2.66,20.73,116.06,116.06,0,0,1-5.74,20.13c-2.59,6.48-5.94,12.81-10.81,18l-1.08,1.1-1,.86a11.78,11.78,0,0,1-1.55,1.2c-.84.56-1.25.75-1.27.62-.07-.3,1.56-1.73,3.82-4.55a56.19,56.19,0,0,0,7.49-12.78,117.23,117.23,0,0,0,6.49-20.2,156.85,156.85,0,0,0,3.35-20.68c.32-3.48.55-7,.6-10.44v-1.83h0s0,0,0,0l-.11-.13-.46-.51-.89-1q-1.76-2.1-3.31-4.32c-2.07-3-3.91-6-5.71-9.07a63.1,63.1,0,0,0-5.69-8.57,8.92,8.92,0,0,0-3.51-2.7l-.47-.14-.48-.09-1.12-.07a12.1,12.1,0,0,0-2.3.26,24.44,24.44,0,0,0-8.81,4.44c-5.54,4.08-10.55,9.12-15.81,13.89-2.62,2.4-5.29,4.77-8.09,7-1.39,1.13-2.83,2.22-4.29,3.27-.74.52-1.47,1-2.24,1.54l-.25.17s-.05,0-.05.05l-.08.88c-.32,3.47-.49,7-.49,10.5s.07,7,.26,10.56a132.46,132.46,0,0,0,2.85,20.9,70.16,70.16,0,0,0,3.78,12,28.45,28.45,0,0,0,1.33,2.85l.71,1.41c.24.46.54.89.81,1.33l1.12,1.78a11.78,11.78,0,0,1,.69,1.16l-1.08.85-3,2.32a46.53,46.53,0,0,1-11.91,6,42.27,42.27,0,0,1-13.21,2.11,43.29,43.29,0,0,1-25.33-7.85,38.16,38.16,0,0,1-9.42-9.59,35.66,35.66,0,0,1-5.27-12.36,37.9,37.9,0,0,1-.2-14.24l.28-1.76c.09-.59.28-1.15.42-1.73.31-1.14.56-2.31.93-3.43a59.51,59.51,0,0,1,2.63-6.59,76,76,0,0,1,7.16-12.15c1.41-1.87,2.86-3.72,4.32-5.55l4.59-5.15a.24.24,0,0,0,.09-.15l0-.25.11-.89.22-1.83c.15-1.23.31-2.47.48-3.7.35-2.46.76-4.92,1.26-7.36a104.75,104.75,0,0,1,4-14.4,76.84,76.84,0,0,1,6.3-13.59,57.64,57.64,0,0,1,9.18-11.87l1.63-1.55c.54-.52,1.14-1,1.71-1.46,1.13-1,2.39-1.83,3.6-2.71a48.27,48.27,0,0,1,7.88-4.33A53.15,53.15,0,0,1,215,58.34a46.12,46.12,0,0,1,17.77,2.12,50.68,50.68,0,0,1,15.76,8.42,48.87,48.87,0,0,1,4,3.56c.64.63,1.26,1.28,1.86,2l.44.52.37.46a5.81,5.81,0,0,1,.4.57,25.33,25.33,0,0,1,4.74-2.57,24.61,24.61,0,0,1,6-1.53,26.71,26.71,0,0,1,6.19-.09,30.52,30.52,0,0,1,6.07,1.14,34,34,0,0,1,5.76,2.2,27.59,27.59,0,0,1,13,12.76,39.56,39.56,0,0,1,3.64,11.68,65,65,0,0,1,.69,12.14,118,118,0,0,1-3.51,23.86q-1.12,4.65-2.48,9.2-.69,2.26-1.38,4.5c-.23.73-.46,1.46-.68,2.18a5.24,5.24,0,0,0-.17.62.8.8,0,0,0,0,.15c0,.05.1,0,.14.07l.3.09a1.33,1.33,0,0,1,.24.1l.47.21a9.28,9.28,0,0,1,.93.52,11,11,0,0,1,1.69,1.25,17.49,17.49,0,0,1,2.76,3.08,29.5,29.5,0,0,1,3.64,7.22,47.25,47.25,0,0,1,2.6,15.74,42.7,42.7,0,0,1-2.81,15.7,26.72,26.72,0,0,1-9.85,12.67,24.83,24.83,0,0,1-8.55,3.58,33.2,33.2,0,0,1-9.23.63,53.9,53.9,0,0,1-14.07-3,75.13,75.13,0,0,1-9-3.77,54.27,54.27,0,0,1-9.13-5.49c-.88-.68-2.05-1.54-2.52-2-.8-.76.81,0,4.42,1.81,1.81.9,4.13,2.08,6.95,3.36a98,98,0,0,0,10,4,57.6,57.6,0,0,0,11,2.56,33.2,33.2,0,0,0,11.17-.42,23.89,23.89,0,0,0,5.23-1.84,21.42,21.42,0,0,0,4.58-3.09A25.09,25.09,0,0,0,301,196a43,43,0,0,0,2.44-22.69,39.45,39.45,0,0,0-3.27-11.08,22.16,22.16,0,0,0-3-4.72,11.77,11.77,0,0,0-2-1.85l-.53-.39-.55-.32a4.37,4.37,0,0,0-.57-.29l-.46-.21-.73-.24-.55-.42-.28-.21-.13-.11-.07,0c.15-.09,0,0,.06-.06l0,0,0,0a1.6,1.6,0,0,1-.12-1.41c.07-.28.14-.55.23-.83l.19-.63.26-.85,1.05-3.34c.68-2.22,1.34-4.45,1.95-6.7,1.21-4.49,2.27-9,3.07-13.63a102.87,102.87,0,0,0,1.53-13.87,61,61,0,0,0-.94-13.78,33.29,33.29,0,0,0-5.21-12.83,25.42,25.42,0,0,0-10.6-8.57A31,31,0,0,0,269.19,74a23.24,23.24,0,0,0-6.74,1.15,21.67,21.67,0,0,0-3.13,1.34l-.74.42-.37.21a4.32,4.32,0,0,0-.47.3l-2.69,1.88-1-1.51c-.17-.26-.34-.51-.51-.74l-.38-.47c-.34-.43-.71-.84-1.09-1.25-.76-.82-1.56-1.62-2.41-2.38a47.49,47.49,0,0,0-5.35-4.22,48,48,0,0,0-12.22-6,44.25,44.25,0,0,0-13.4-2.15,47.42,47.42,0,0,0-13.48,2Z"/></g></svg>