<svg id="Layer_1" data-name="Layer 1" xmlns="http://www.w3.org/2000/svg" width="520" height="520" viewBox="0 0 520 520"><defs><style>.cls-1{fill:#221f1f;}</style></defs><title>Notioly v2</title><g id="_17.Location" data-name="17.Location"><path class="cls-1" d="M223.87,101.64A9.63,9.63,0,0,1,222.55,96a7.14,7.14,0,0,1,.53-2.15,9.26,9.26,0,0,1,2.23-3A7.73,7.73,0,0,1,228.54,89a6.35,6.35,0,0,1,3.38,0,5.36,5.36,0,0,1,2,1.08A4.1,4.1,0,0,1,235,91.91c.13.44-.42.56-1,.5a3,3,0,0,1-1.63-.54,3,3,0,0,0-2.3-.93,5.69,5.69,0,0,0-2.88,1,5,5,0,0,0-1.46,1.45,6.36,6.36,0,0,0-.9,1.83,6.25,6.25,0,0,0,.39,4.45,13.93,13.93,0,0,0,1.54,2.62,25.24,25.24,0,0,0,3.2,3.51c.92.83,1.93,1.51,2.93,2.28.22.17.44.32.66.51.79.7,1,1.18.62,1.71a1.31,1.31,0,0,1-.25.32c-.38.24-.76.23-1.32-.16a34.5,34.5,0,0,1-5.35-4.36,21.69,21.69,0,0,1-3.42-4.38Z"/><path class="cls-1" d="M241,288.34a5,5,0,0,0,1.12.34c.14,0,.27,0,.41,0a2.91,2.91,0,0,0,1.43-.19,1.27,1.27,0,0,0,.48-.41c.16-.23.2-.49.48-.66.09-.05.46.12.78.37s.56.63.44.86a2.94,2.94,0,0,1-2.22,1.43,13.34,13.34,0,0,1-1.49.17,6,6,0,0,1-1.54-.28,8.09,8.09,0,0,1-.86-.34c-.43-.18-.83-.42-1.22-.63s-.66-.26-1-.41a1.36,1.36,0,0,1-.21-.1c-.25-.17-.25-.31,0-.67l.16-.24a.78.78,0,0,1,.67-.37,6.11,6.11,0,0,1,1.53.61,8.53,8.53,0,0,0,1.07.48Z"/><path class="cls-1" d="M268.3,139.15a23.32,23.32,0,0,1-3.73,3.77,14,14,0,0,1-4.88,2.45c-.88.2-1.75.36-2.63.48a17.26,17.26,0,0,1-2.69.05,13.39,13.39,0,0,1-5.23-1.37,16.61,16.61,0,0,1-5.88-5,27.64,27.64,0,0,1-3.25-5.8,46.2,46.2,0,0,1-2.16-6.18,91.06,91.06,0,0,1-2.5-12.72c-.5-3.78-.9-7.6-1.2-11.38a136.39,136.39,0,0,1-.57-14.57c.1-3,2.18.78,2.4,6.32.42,9.82,1.07,19.65,3.15,29.27a45.34,45.34,0,0,0,2.73,8.46,24.37,24.37,0,0,0,4.8,7.33,13.73,13.73,0,0,0,3.81,2.67,13,13,0,0,0,4.54,1c.39,0,.78,0,1.18-.05a9.41,9.41,0,0,0,1.18-.11,14.13,14.13,0,0,0,2.31-.52,12.22,12.22,0,0,0,2.14-.92,17.35,17.35,0,0,0,1.92-1.39c3-2.56,5.18-6.11,7-9.73a121.76,121.76,0,0,0,6.71-17.37c1.48-4.59,2.69-9.16,4.32-13.71.36-1,.72-2,1.17-3,1.62-3.68,3.11-4.68,4.14-4.7a2,2,0,0,1,.68.06c.24.11,0,.46-.35.87a19.15,19.15,0,0,0-1.57,2.5,85,85,0,0,0-4.36,12.06c-1.3,4.23-2.63,8.55-4.13,12.85-1.12,3.19-2.34,6.36-3.78,9.48a47.18,47.18,0,0,1-5.25,9Z"/><path class="cls-1" d="M234.46,92.49c-.53-.95,1.13-14.32,2.11-14.32,19.7-.09,70.86,37,74.6-8.69,2.62-32-54.59-28.92-66.53-13.64C213.18,39.7,209.12,88.27,234.46,92.49Z"/><path class="cls-1" d="M273.28,43.55a59.35,59.35,0,0,1,19.88,1.89,34.94,34.94,0,0,1,9.27,4.07,21.77,21.77,0,0,1,7.18,7.32l.89,1.68c.26.58.46,1.18.68,1.77.11.3.24.59.32.89l.22.93c.12.61.31,1.22.39,1.84a24.83,24.83,0,0,1,.22,3.75l-.05,1.87-.23,1.81a32.67,32.67,0,0,1-3.67,12.42,17.57,17.57,0,0,1-10.05,8.27,30.42,30.42,0,0,1-12.89.71A80.14,80.14,0,0,1,273,89.89c-7.18-2.19-14.18-4.94-21.17-7.32a64.57,64.57,0,0,0-13.63-3.44l-.81,0a2.08,2.08,0,0,0-.35,0,.6.6,0,0,0-.17.3s-.11.37-.18.64c-.27,1.11-.48,2.27-.67,3.43-.37,2.32-.69,4.67-.89,7-.06.72-.11,1.23-.16,1.52s0,.24-.09.26h0l-.14.07-.08.05.08-.05h0a.11.11,0,0,1-.1,0,1,1,0,0,1-.23-.35,7,7,0,0,1-.37-1.49,28.27,28.27,0,0,1-.21-5.29c.05-1.1.14-2.28.3-3.55.09-.63.19-1.28.34-2l.12-.52.07-.27c0-.16.09-.33.15-.48a2.34,2.34,0,0,1,1.1-1.48,4.92,4.92,0,0,1,.78-.18l.9,0,1,0c.64.07,1.27.17,1.9.25s1.24.24,1.87.36,1.22.26,1.82.42c2.43.59,4.76,1.36,7.09,2.13,4.64,1.58,9.19,3.32,13.75,5s9.14,3.19,13.8,4.38a67.91,67.91,0,0,0,7,1.44l1.78.19a17.56,17.56,0,0,0,1.77.13l1.77.06,1.76-.08a18.28,18.28,0,0,0,8-2.27,15.25,15.25,0,0,0,5.77-6,19.37,19.37,0,0,0,.93-2c.15-.32.31-.65.45-1l.33-1c.21-.7.45-1.39.65-2.09l.45-2.15a36.3,36.3,0,0,0,.73-8.7A17.56,17.56,0,0,0,307.3,57a20.82,20.82,0,0,0-6.91-6.34c-5.54-3.23-12.07-4.62-18.53-5.05a65.31,65.31,0,0,0-23.74,2.82,39,39,0,0,0-8.23,3.73c-.66.37-1.23.85-1.85,1.27s-1.12,1-1.69,1.44l-.85,1-.56.62-.14.16-.19-.09-.38-.18-2.33-1.08a24,24,0,0,0-8.66-2.06A13.47,13.47,0,0,0,225,55.68a14.19,14.19,0,0,0-4.23,5.21,20.41,20.41,0,0,0-1.88,6.5,25,25,0,0,0,2,13.25,23.23,23.23,0,0,0,3.17,4.94,20.81,20.81,0,0,0,6.1,4.72c.76.39,1.38.65,1.88.94s.93.44,1.29.69a10.84,10.84,0,0,1,1,.62c.33.3-.29.37-1.74.2a13.7,13.7,0,0,1-2.71-.67,17.07,17.07,0,0,1-3.51-1.78,19.24,19.24,0,0,1-4.85-4.55,22.7,22.7,0,0,1-3.24-5.89,27.07,27.07,0,0,1-1.43-13.44A22.76,22.76,0,0,1,219,59.77a15.82,15.82,0,0,1,4.52-5.56,14.87,14.87,0,0,1,6.68-2.86,19,19,0,0,1,7.14.26c.84.22,1.71.38,2.52.66l2.45.87,2,.92h0l0,0,.46-.5a28.39,28.39,0,0,1,8.77-5.58,61,61,0,0,1,19.71-4.42Z"/><path class="cls-1" d="M288,109.07a11.49,11.49,0,0,0,1.78-3.59,10.28,10.28,0,0,0,.27-1.45,8.23,8.23,0,0,0,.08-2.52,3.35,3.35,0,0,0-.89-2.05,1.71,1.71,0,0,0-1.71-.31,6.54,6.54,0,0,0-2.08,1.5c-.18.16-.7,0-1-.6a1.62,1.62,0,0,1,.38-2,5.51,5.51,0,0,1,1.93-1,4.15,4.15,0,0,1,2.42,0,3.9,3.9,0,0,1,2,1.44,4.82,4.82,0,0,1,.8,2,12.41,12.41,0,0,1,.08,4.5,13.94,13.94,0,0,1-6.91,9.46,17.4,17.4,0,0,1-3,1.47c-.24.08-.47.16-.71.22-.92.22-1.24.07-1.48-.46a2,2,0,0,1-.16-.37c-.12-.43.19-.84.75-1a20.14,20.14,0,0,0,4.71-2.35A11.3,11.3,0,0,0,288,109Z"/><path class="cls-1" d="M247.86,141.92c0,4.55,2.16,8.4,7.72,9.52,6.84,1.39,8.73-6.92,9.09-9.36C259.24,147.25,249.05,144,247.86,141.92Z"/><path class="cls-1" d="M266.43,139.51a39.4,39.4,0,0,1-1.32,6c-.09.25-.16.52-.26.74l-.19.45c-.12.3-.27.58-.42.87a7.77,7.77,0,0,1-.47.84,6,6,0,0,1-.53.82,9,9,0,0,1-2,2.14,7,7,0,0,1-5.07,1.14,12.09,12.09,0,0,1-4.59-1.71,10,10,0,0,1-3.08-3.11,8.68,8.68,0,0,1-1.38-5.32c0-.57.61-.47,1.16,0a3.64,3.64,0,0,1,1.3,1.95,7.81,7.81,0,0,0,2,3.82,8.79,8.79,0,0,0,1.78,1.33,12.62,12.62,0,0,0,2.19.92,4.8,4.8,0,0,0,5-1.21,9.34,9.34,0,0,0,1.85-2.64c.13-.24.24-.5.35-.76l.12-.29.07-.17a7.1,7.1,0,0,0,.27-.78c.06-.26.31-.93-.07-.51a4,4,0,0,1-.94.54l-.59.24a6.22,6.22,0,0,1-.84.25c-.29.08-.57.16-.86.22l-.86.13a17.07,17.07,0,0,1-1.73.15c-.58,0-1.15,0-1.72,0a21.24,21.24,0,0,1-5.23-.85,8.55,8.55,0,0,1-1.13-.41,4.44,4.44,0,0,1-.85-.48,1.74,1.74,0,0,1-.52-.48,1.14,1.14,0,0,1-.22-.46.89.89,0,0,1,0-.49,1.13,1.13,0,0,1,.19-.38.8.8,0,0,1,.63-.16,2.82,2.82,0,0,1,.4.09c.15,0,.3.12.52.2a19.91,19.91,0,0,0,8.43,1.31,12.73,12.73,0,0,0,2.85-.55l.94-.39c.26-.12.51-.29.76-.43s.58-.45.86-.67l3.27-2.6-.1.71Z"/><path class="cls-1" d="M277.92,293.58a64.28,64.28,0,0,0-4.87-6,7.32,7.32,0,0,0-2-1.5c-.28-.1-.31-.09-.43,0s-.22.22-.36.36l-.46.47c-.31.3-.68.58-1,.87a8.53,8.53,0,0,1-1.21.71,3.89,3.89,0,0,1-3,.28,2,2,0,0,1-1.25-1.19,1.89,1.89,0,0,1,.24-1.75,3.55,3.55,0,0,1,1.06-.88c.31-.18.62-.35.92-.56a9.58,9.58,0,0,0,1.6-1.36,8.1,8.1,0,0,0,1.48-2.2,26.38,26.38,0,0,0,.95-2.59c.13-.34.46-.54.54-.38s.16.38.29.64a3.45,3.45,0,0,1,0,2.75,10.18,10.18,0,0,1-4.28,4.72l-.68.39-.23.14s-.14.07-.17.11c-.21.17-.21.28-.22.35s.52.6,1.29.45a5.51,5.51,0,0,0,2.65-1.59l.59-.64a2.77,2.77,0,0,1,.48-.43,1.61,1.61,0,0,1,.7-.26,2.49,2.49,0,0,1,1.29.23,5.23,5.23,0,0,1,.9.54,19,19,0,0,1,2.92,2.89c.87,1,1.68,2.07,2.49,3.12,1,1.29,1.95,2.6,2.95,3.86l.86,1.06.29.34.26.28a2.46,2.46,0,0,0,.6.51c.11.06.28.06.33-.08a.66.66,0,0,0,.05-.37,3,3,0,0,0-.32-1l-.09-.17a2.79,2.79,0,0,0-.15-.3l-.35-.59c-.24-.39-.49-.78-.76-1.15-.53-.75-1.1-1.48-1.68-2.18l-.8-.92c-1-1.13-1.24-1.49-1.19-2,0-.12,0-.26,0-.37.07-.37.83-.14,1.68.68a25.18,25.18,0,0,1,3.18,3.75,21.36,21.36,0,0,1,1.34,2.17l.19.37c.08.19.19.38.25.56a8.32,8.32,0,0,1,.35,1.07c0,.17.11.36.13.52v.43a3.64,3.64,0,0,1-.06.82,1.51,1.51,0,0,1-.19.35,1.44,1.44,0,0,1-.27.34,1.37,1.37,0,0,1-.56.29,1.41,1.41,0,0,1-.5,0,2.41,2.41,0,0,1-1.18-.52,10.79,10.79,0,0,1-1.34-1.3l-.49-.56-.32-.39c-.86-1-1.66-2.1-2.47-3.14Z"/><path class="cls-1" d="M268.45,289.28a9,9,0,0,1-1.43.42c-.18,0-.36.1-.54.12a4.3,4.3,0,0,1-2-.32,2.7,2.7,0,0,1-.88-.56,1.07,1.07,0,0,1-.21-1.41c.09-.14.48.07.82.24a1.67,1.67,0,0,0,.73.21s0,0,0-.05l0,0h0s-.41.26-.22.13h0l.06,0c.06,0,.13-.15.11-.11a.06.06,0,0,1,0,.05,2,2,0,0,0,.47.33,1.47,1.47,0,0,0,.95,0,5.09,5.09,0,0,0,1.11-.26,4.43,4.43,0,0,0,.67-.3,3.75,3.75,0,0,0,.93-.64,3.09,3.09,0,0,0,.48-.75,1,1,0,0,1,.09-.18c.13-.19.26-.18.63.06l.25.16c.27.19.41.44.35.65a3,3,0,0,1-1.12,1.55,7.37,7.37,0,0,1-1.26.78Z"/><path class="cls-1" d="M286.72,295.54a20.59,20.59,0,0,0-1-2.14c-.14-.25-.32-.48-.47-.73a17.48,17.48,0,0,0-1.65-2.56,4.9,4.9,0,0,0-1-.91,7.9,7.9,0,0,1-1.33-.93c-.11-.14.1-.57.45-.91s.9-.59,1.23-.36a7.8,7.8,0,0,1,2.69,3c.37.69.89,1.29,1.29,2a24.58,24.58,0,0,1,1.18,2.28c.22.47.42,1,.61,1.48l.1.31a1.46,1.46,0,0,1,.07.39l.05.72a2.76,2.76,0,0,1-.37,1.48,1.31,1.31,0,0,1-1,.56,2.37,2.37,0,0,1-1.22-.22,4,4,0,0,1-.54-.29c-.57-.42-.58-.71-.25-1.12a1.37,1.37,0,0,1,.28-.21c.38-.09.61-.31.86-.21s.25,0,.29,0a.18.18,0,0,0,.08-.1c0-.07,0-.09,0-.09a2.65,2.65,0,0,0,0-.33,9.13,9.13,0,0,0-.4-1Z"/><path class="cls-1" d="M286.79,289.69a17.65,17.65,0,0,0-1.65-2.16c-.22-.25-.48-.47-.71-.72l-2.49-2.72c-.37-.42-.78-.8-1.17-1.27a3.42,3.42,0,0,1-.67-1.15,1.53,1.53,0,0,1,.44-1.57c.26-.23.51.22.8.62a1.15,1.15,0,0,0,.46.45s.07,0,.3,0a4.53,4.53,0,0,0,.75,1.12c.4.49.85,1,1.29,1.6a25,25,0,0,0,1.84,1.88,24.39,24.39,0,0,1,1.91,2.27c.35.5.7,1,1,1.54a15.2,15.2,0,0,1,1.18,2.56,13.37,13.37,0,0,1,.65,2.12,4.53,4.53,0,0,1,.08.49c0,.63-.13.82-.63.9-.11,0-.23,0-.34,0a.77.77,0,0,1-.78-.6,21.19,21.19,0,0,0-1-3.13,13.76,13.76,0,0,0-1.28-2.25Z"/><path class="cls-1" d="M228.48,296.56c1.57-2,3-4.17,4.61-6.27.59-.77,1.15-1.56,1.83-2.29a9.07,9.07,0,0,1,1.55-1.38,2.73,2.73,0,0,1,.51-.29,1.87,1.87,0,0,1,.63-.21,1.67,1.67,0,0,1,.77,0,3.3,3.3,0,0,1,.71.34,7.51,7.51,0,0,0,2.47,1.38,2.57,2.57,0,0,0,2.4-.32.84.84,0,0,0,.33-.56.42.42,0,0,0-.35-.42l-.43-.15a4.84,4.84,0,0,1-.49-.18c-.32-.14-.64-.27-1-.44a8.38,8.38,0,0,1-2.44-1.81,7.17,7.17,0,0,1-1.47-2.62c-.09-.25,0-.3.11-.43s.37-.12.67,0a7.06,7.06,0,0,1,1.82,1.62,6.62,6.62,0,0,0,1.66,1.45,8.09,8.09,0,0,0,1,.54c.18.08.34.17.53.24l.68.25a2.3,2.3,0,0,1,1.12,1,1.76,1.76,0,0,1,.16.72,1.73,1.73,0,0,1-.09.74,2.83,2.83,0,0,1-1.7,1.78,4.66,4.66,0,0,1-3.86-.28,11.65,11.65,0,0,1-1.09-.61l-1-.71c-.12-.08-.2-.09-.43,0a3,3,0,0,0-.79.54,14,14,0,0,0-1.57,1.67c-1.62,2-3.08,4.17-4.64,6.29a36,36,0,0,1-3.11,3.81,8.58,8.58,0,0,1-1.54,1.23,3.21,3.21,0,0,1-1.07.35,2.64,2.64,0,0,1-.63-.06,1.87,1.87,0,0,1-.56-.3,3,3,0,0,1-.71-.87,2.06,2.06,0,0,1-.19-1.15,5.73,5.73,0,0,1,.61-1.9,24.57,24.57,0,0,1,3.29-4.7c.28-.31.54-.63.84-.93,1.11-1.11,1.63-1.34,2.16-1.2a1.7,1.7,0,0,1,.34.12c.28.22,0,.71-.77,1.51a46.85,46.85,0,0,0-3.15,3.81,16.32,16.32,0,0,0-1.29,2.06,5.34,5.34,0,0,0-.4,1,1.18,1.18,0,0,0,0,.63s0,.09.11.17l.07.12.06,0c.08.1.06,0,.11.07a2.57,2.57,0,0,0,1.08-.64,18.52,18.52,0,0,0,2.46-2.77Z"/><path class="cls-1" d="M220.42,295.45a19.06,19.06,0,0,1,1.45-2.3c.2-.27.36-.55.57-.81a17.59,17.59,0,0,1,2.47-2.41c.41-.32.79-.66,1.21-1a3.42,3.42,0,0,1,1.85-.89c.23,0,.28.4.25.84s-.13.87-.38,1a21.28,21.28,0,0,0-2.86,1.94,8.61,8.61,0,0,0-1.47,1.7,16.63,16.63,0,0,0-1.39,2.07,9.07,9.07,0,0,0-.66,1.37c-.26.68-.48,1.54-.22,1.84a.4.4,0,0,0,.46.12,1.72,1.72,0,0,0,.26-.1l.35-.16a2.59,2.59,0,0,1,.31-.19c.4-.22.58-.21.88.12a2.18,2.18,0,0,1,.21.22.6.6,0,0,1-.16.87,4.08,4.08,0,0,1-.81.54,2.82,2.82,0,0,1-.52.2,3.3,3.3,0,0,1-.73.1,1.86,1.86,0,0,1-1.45-.66,2.35,2.35,0,0,1-.49-1.55,7.37,7.37,0,0,1,.83-2.91Z"/><path class="cls-1" d="M219.3,290a20.71,20.71,0,0,1,2-2.08c.25-.24.48-.5.74-.72.93-.76,1.92-1.44,2.88-2.11a10.23,10.23,0,0,0,1.18-1c.23-.22.44-.46.63-.67l.24-.26s.07-.07.06,0,0,0,.06,0,.41-.16,1,.05a.91.91,0,0,1,.33.26,1.18,1.18,0,0,1,.12.53,1.13,1.13,0,0,1-.25.81,10.26,10.26,0,0,1-1.67,1.41c-.56.39-1.13.74-1.72,1.07a10.52,10.52,0,0,0-1.86,1.53,20.41,20.41,0,0,0-1.87,1.85,13.41,13.41,0,0,0-1,1.27,8.3,8.3,0,0,0-1.05,2.16,5.56,5.56,0,0,0-.13,1.81c0,.13,0,.26,0,.39,0,.48-.09.63-.59.77l-.34.09a.69.69,0,0,1-.82-.57,6.35,6.35,0,0,1,.44-4,12.39,12.39,0,0,1,1.54-2.59Z"/><path class="cls-1" d="M226.65,284.15a24,24,0,0,0-5,4.43c.43-1.78.29-12.41,1.32-19.24C226.63,275.82,226.19,281.43,226.65,284.15Z"/><path class="cls-1" d="M223.75,274.7s-.09,0-.13.13a1.67,1.67,0,0,0-.08.24.48.48,0,0,0,0,.16l0,.39-.07.78c-.07.76-.07,1.52-.14,2.29l-.33,4-.16,2-.12,1-.06.49,0,.24,0,.11v.06l0,0c.18-.22.37-.44.56-.65l.37-.42.17-.18.09-.09.21-.18a9.76,9.76,0,0,1,2-1.35c.88-.42,1,2-.26,3l-.38.33c-.24.2-.53.44-.78.69a20.74,20.74,0,0,0-1.6,1.63l-3.55,4.31.57-3.22.29-1.64.21-1.4.1-.69.05-.62.11-1.2,0-.42,0-.32.08-.65c.25-1.88.23-3.85.37-5.79l.13-1.59.18-1.89c.15-1.71.37-3.24.58-4.69l.39-2.49a.48.48,0,0,1,.12.1l.17.34.35.67c.23.45.45.88.65,1.29a32.94,32.94,0,0,1,1.59,3.7q.18.48.33,1l.25.85c.12.5.26,1,.37,1.47.35,1.52.69,3,.92,4.55,0,.33.11.65.15,1,.13,1.23,0,1.58-.49,1.92a2.82,2.82,0,0,1-.36.24c-.41.21-.87-.29-1.08-1.21-.31-1.36-.51-2.7-.76-4-.13-.67-.26-1.33-.42-2-.07-.33-.15-.66-.24-1l-.13-.49a3.32,3.32,0,0,0-.1-.32s0-.09,0-.27h0Z"/><path class="cls-1" d="M224.29,437.67q8.27,9.46,16.68,18.8l8.45,9.3,3.61,3.92.1.11s0,0,.06,0l.12-.13.81-.89,2.1-2.33c4.1-4.55,8.12-9.15,12.16-13.73,7.12-8.08,14.17-16.23,21.07-24.5s13.65-16.66,19.94-25.38c1.41-1.92,2.69-3.93,4-5.89.66-1,1.24-2,1.87-3l.8-1.33.11-.19-.13-.2-.13-.21-.07-.1-.13-.17a23.66,23.66,0,0,0-5.13-4.62c-1-.67-1.95-1.32-3-1.92-.5-.3-1-.59-1.52-.88l-.77-.42-.38-.2c-.18-.17-.26.1-.37.21l-.57.71-1.43,1.78-2.87,3.58L294,397.05q-5.75,7.14-11.62,14.16c-4.89,5.81-.43-3,8.41-13.91l11.76-14.51.55-.69.74-.89.37-.44c0-.06.07,0,.12,0l.13.07.25.13,1,.52c.84.43,1,.52,1.37.74l1,.6c1.38.81,2.72,1.67,4,2.62A30.92,30.92,0,0,1,316,388.6l.86.92.81,1c.36.56.79,1.2,1.14,1.8l-1,1.72A166.78,166.78,0,0,1,307,409.6q-5.73,7.47-11.76,14.73c-9.59,11.57-19.72,23.5-29.91,35l-8.46,9.45-2.24,2.48-.86,1-.43.48-.11.12s0,.06-.06,0l0-.05-.2-.22-1.65-1.77-4.33-4.7q-8.56-9.35-17-18.83-10.35-11.67-20.45-23.58c-5.08-6-10.11-12.11-15-18.32-2.46-3.09-4.82-6.24-7.16-9.41l-1.72-2.39-.92-1.29c-.34-.55-1.15-1.15-.32-1.65a8.38,8.38,0,0,1,.72-.74c.23-.21.38-.37.58-.54.38-.32.76-.65,1.15-.95.77-.63,1.55-1.22,2.34-1.81,2.46-1.81,5-3.53,7.47-5.21l2.2-1.45.34-.23.18-.11c.06,0,.12-.12.16,0l.53.63.94,1.12,2.9,3.45,11.58,13.75c1.7,2,3.37,4,5.09,6,6.33,7.6,8.22,10.11,9.14,12.11.2.46.51,1,.59,1.33.26,1-2.58-1.86-7.3-7.36-7-8.15-14.1-16.57-21.28-25.15l-2.63-3.15s0-.05-.08,0l-1.4.93c-2.32,1.56-4.64,3.14-6.89,4.8-1.12.82-2.23,1.67-3.27,2.54-.25.22-.52.43-.74.66l-.1.09h0l.32.45,2.47,3.43c.84,1.14,1.71,2.26,2.56,3.39,10.2,13.36,21.21,26.25,32.33,39Z"/><path class="cls-1" d="M229.63,473.83l-21-.16,0,7.1v3.3h5.57l39.08.33c5.78,0,11.6,0,17.33,0,7.37-.05,14.78-.2,22.14,0,4.59.14-1.23,2.2-9.72,2.22-15.06,0-30.1-.05-45.27-.35-9.08-.17-18.53-.08-27.81-.12l-3.4,0,.07-14.55,16.41.09,18.85.1c9.51,0,19.07.1,28.51.07,7.34,0,14.54-.17,21.8-.26l3.11,0c0,1.17,0,2.34,0,3.54,0,6-.11,7.87-.68,9.15a5.34,5.34,0,0,1-.39.85c-.44.57-.8-1.86-.93-6.23,0-1-.06-2.08-.09-3.14l0-1.6v-.3l0-.15-.21,0h-.67l-2.08,0-4.18.07-8.48.08-17.22.06-30.68-.08Z"/><path class="cls-1" d="M216.17,399.92c0,2.05,28.92,38.19,29.62,35.95.91-2.95-6.11-135.85-9-146.65-.08-.33-9.27,16.64-15.32,12.38C219,320.65,216.17,395,216.17,399.92Z"/><path class="cls-1" d="M238.28,289.74l.45,2.73.2,1.65c.12,1,.21,2,.31,3,.21,2,.38,4,.55,6,.33,4,.62,8,.91,12q.84,12,1.54,23.93.54,8.73,1.06,17.45Q245,387.23,246.16,418c.16,4.55.34,9.12.44,13.69l0,1.9v.65l-.06.56-.13,1.13c0,.19-.11.25-.16.38s-.08.25-.25.32a1.3,1.3,0,0,1-.85-.11,6.23,6.23,0,0,1-1.85-1.37l-.47-.45-.32-.33-.6-.61-1.17-1.26L238.47,430q-5.78-6.57-11.23-13.4c-3.64-4.57-7.24-9.14-10.48-14a9.22,9.22,0,0,1-.95-1.82,1.45,1.45,0,0,1-.11-.56c0-.21.05-.28.1-.25.2.24.81.79,1.89,1.92,2.13,2.23,5.92,6.4,10.07,11.63,3.67,4.63,7.42,9.21,11.26,13.69q1.44,1.68,2.91,3.32l1.48,1.62.76.78.18.19c.06.05,0,0,0,0h0l0,0s0,0,0,0v-1.54l0-2.22c-.31-11.85-.8-23.75-1.25-35.7-.55-14.29-1.47-29.15-2.31-43.75-.95-16.06-1.9-32.13-3.25-48.15l-.51-5.37-.3-2.68-.12-1-.09-.64a5.67,5.67,0,0,0-.1-.57c0-.08,0-.21-.06-.25s-.11.15-.16.22l-.62.95-1.14,1.65c-.46.65-.93,1.29-1.42,1.92a34,34,0,0,1-3.19,3.62,13.66,13.66,0,0,1-4,2.88,5.75,5.75,0,0,1-2.21.48,3.79,3.79,0,0,1-.92-.12,1.71,1.71,0,0,1-.48-.21s-.12-.12-.11,0l0,.16,0,.34-.1.85c-.09.85-.21,1.69-.28,2.54l-.46,5.1c-.27,3.41-.53,6.81-.76,10.22q-.69,10.23-1.2,20.4c-.58,11.55-1,22.89-1.33,34.32-.08,2.52-.16,5-.24,7.52-.33,9.41-.55,12.39-1.18,14.39a13.78,13.78,0,0,1-.41,1.33c-.46.91-.77-3-.63-9.86.39-20.46,1.29-42,2.59-63.65.26-4.18.53-8.35.87-12.54q.22-3.14.53-6.28c.09-1,.18-2.09.31-3.15l.59-5.18,1.56,1c.25.15.5.33.75.46l.34.13a1.73,1.73,0,0,0,.26.08,2.48,2.48,0,0,0,.94,0,5.84,5.84,0,0,0,2.07-.94,20.11,20.11,0,0,0,3.87-3.65,51.06,51.06,0,0,0,3.35-4.44l.63-1,.77-1.18c.25-.38.51-.82.76-1.13s.5-.47.69-.37l.46.16.19.07h0c-.09.45.14-.61.12-.5h0l.06,0,.12.08.47.29.24.15c.06.15.1.35.15.53l.12.68Z"/><path class="cls-1" d="M289.47,400.6c-1.07,3.13-28.74,35.27-30.13,35.27-2.81,0,12.12-147.2,12.66-148.74,1.43.73,7.58,8,8.57,9.36C282.11,298.63,290.43,397.81,289.47,400.6Z"/><path class="cls-1" d="M272.77,291.75c-1.8,15.82-3.45,31.68-5.06,47.54L266,356.65c-2,20.4-4,40.8-5.55,61.22-.32,4.53-.62,9.08-.72,13.6v1.58q0,.4,0,.81a2.57,2.57,0,0,0,.07.4.09.09,0,0,0,.16,0l.16-.12c.21-.18.4-.37.59-.56l1-1,1.15-1.24,2.27-2.5c3.86-4.3,7.62-8.73,11.36-13.16s7.49-8.88,11-13.42c.54-.71.92-1.21,1.17-1.5s.36-.35.46-.31.05,1-.65,2.43a71,71,0,0,1-8.82,12.7q-5.71,6.81-11.65,13.46l-3,3.3L263.47,434l-.79.81-.63.63c-.26.26-.52.52-.79.75a3.65,3.65,0,0,1-1.5,1c-.45.09-.77.2-1.16-.19-.38-.08-.61-.45-.79-1a8.75,8.75,0,0,1-.23-2c0-.35,0-.73,0-1.08v-.57l0-1.14.07-2.24c.59-11.92,1.71-23.74,2.84-35.63,1.33-14.22,2.72-29,4.08-43.56q2.37-24,4.95-47.94l.82-7.4.42-3.7.28-2.32a22.89,22.89,0,0,1,.49-2.49,13.52,13.52,0,0,1,2,1.46c.33.31.66.62,1,1l.7.73c.84.91,1.67,1.84,2.48,2.78s1.6,1.87,2.39,2.83l.59.73.29.38a1.54,1.54,0,0,1,.29.49,5.26,5.26,0,0,1,.29,1.09c.06.32.12.63.16.94,1.06,7.46,1.69,14.92,2.43,22.38s1.34,14.91,2,22.31c1,11.5,2.08,22.78,3,34.16.2,2.51.4,5,.6,7.5.67,9.38.63,12.4.08,14.45a5,5,0,0,1-.44,1.3c-.26.29-.33-.24-.54-1.95s-.44-4.34-.71-7.76c-1.68-20.32-3.54-41.76-5.51-63.27-.67-7.25-1.35-14.51-2.15-21.76-.21-1.8-.41-3.61-.66-5.4-.05-.45-.12-.89-.19-1.33s-.13-.88-.21-1.28c0-.18-.11-.49-.07-.38h0a8.62,8.62,0,0,0,.9-.63l.11-.09-1,.71v0l0,0-.18-.24-.84-1c-1.14-1.39-2.32-2.77-3.52-4.11l-.91-1-.79-.84a.43.43,0,0,0-.1-.09l0,.1-.19,1.68Z"/><path class="cls-1" d="M217.14,430.13l26.5,32.24c-7.41,2.95-24.8-1.13-24.8-1.13C218.21,458.92,217.14,430.13,217.14,430.13Z"/><path class="cls-1" d="M225.83,461.36c2.43.41,4.88.73,7.32.91a35.88,35.88,0,0,0,7.26-.09l1.11-.2.32-.1c.18,0,0-.12,0-.2l-.36-.45-12-15.05c-1.78-2.22-3.61-4.42-5.42-6.58-2.34-2.78-4.75-5.5-6.9-8.43-1.34-1.83,1.88-.76,4.54,2.46,4.73,5.7,9.37,11.47,13.91,17.41,1.36,1.77,2.79,3.55,4.24,5.32L242,459l1.11,1.36c.62.74,1.22,1.48,1.77,2.2l.11.15.06.08s-.05,0-.07,0l-.37.12-.74.23-1.47.45a7,7,0,0,1-.69.14l-.48.09c-.33.05-.65.13-1,.15a33.5,33.5,0,0,1-3.86.2,60,60,0,0,1-7.61-.56c-3.09-.4-6.16-1-9.2-1.62l-1.29-.29-.2-1.19-.08-.89c-.06-.55-.09-1.1-.13-1.65l-.2-3.29c-.11-2.19-.23-4.38-.34-6.55-.2-3.61-.49-7.14-.72-10.71,0-.79-.1-1.56-.16-2.35-.15-2.93,0-3.88.42-4.53a2.55,2.55,0,0,1,.32-.42c.38-.3.74.88.94,3,.59,6.36.92,13.09,1.3,19.82l.24,4.06.15,2,.09,1c0,.16,0,.07,0,.1v0h0l.82.17,1.67.34c1.12.22,2.25.42,3.37.59Z"/><path class="cls-1" d="M289.89,430.13s1,31.16,0,33.31c0,0-19.68,1.8-27-1.63Z"/><path class="cls-1" d="M265,461.13c-.08.1-.12.11-.17.17l.09.05.05,0,.15,0a26.56,26.56,0,0,0,3.65.82,60.4,60.4,0,0,0,7.64.66c1.88.06,3.77,0,5.65,0,1.29,0,2.57,0,3.86-.09l3.24-.16a1,1,0,0,0,.08-.23l.06-.52c.06-.48.08-1,.11-1.5.08-1,.1-2,.14-3,.05-2,.09-4.08.09-6.13,0-3-.05-6-.14-8.89-.11-3.78-.34-7.57-.26-11.35.05-2.36,2,.57,2.09,4.93.21,7.74.33,15.47-.09,23.31l-.15,2.17-.12,1.15a13.12,13.12,0,0,1-.4,1.73l-1.89.15-1.24.08-2.51.13c-1.67.08-3.35.13-5,.13-2.64,0-5.28-.08-7.92-.3l-2-.2-2-.29-2-.39-1-.27-.49-.14a5,5,0,0,1-.67-.21l-1.72-.68-.43-.17a3.89,3.89,0,0,1,.28-.35l.59-.7,1.91-2.21,3.17-3.65c3.19-3.7,6.42-7.4,9.55-11.11,2.42-2.88,4.72-5.78,7.08-8.67.51-.64,1-1.26,1.54-1.9,2-2.36,2.69-3,3.5-3.2a2.47,2.47,0,0,1,.54-.11c.49,0-.08,1.19-1.45,3-4.07,5.29-8.59,10.67-13.16,16L265,461.16Z"/><path class="cls-1" d="M245.27,464.58c5.65,12.66-42.64,8.19-45.7,5.12-3.47-3.48,19-6.38,20.64-7.07Z"/><path class="cls-1" d="M207.29,466.65a42,42,0,0,0-4.63,1.29c-.37.13-.72.28-1.06.42s-.74.39-.69.36a.29.29,0,0,0-.14.15.19.19,0,0,0,.07.2c.11.06,0,0,.49.22s.77.25,1.17.36c.8.23,1.64.41,2.48.59,1.77.35,3.59.57,5.39.82a118.88,118.88,0,0,0,19.32,1.09,44.59,44.59,0,0,0,8.44-1,15.86,15.86,0,0,0,4.86-1.87,4.53,4.53,0,0,0,1.6-1.6,2.92,2.92,0,0,0,.21-2.08c-.25-.93.25-1.16,1.11-.35a3.14,3.14,0,0,1,.82,2.35,4,4,0,0,1-.54,1.75,5.22,5.22,0,0,1-1.28,1.45,15.12,15.12,0,0,1-5.71,2.42,39.9,39.9,0,0,1-5.77.89,77.33,77.33,0,0,1-11.49.05c-4.56-.3-9.3-.56-13.94-1.25-1.44-.22-2.88-.47-4.32-.79-.72-.15-1.44-.33-2.17-.54-.36-.11-.72-.23-1.09-.37a5.9,5.9,0,0,1-.7-.31l-.38-.21-.32-.25a2.18,2.18,0,0,1-.37-.49,1.48,1.48,0,0,1-.25-.54,1.7,1.7,0,0,1,.14-1.17l.35-.5.48-.42a3.34,3.34,0,0,1,.53-.37,4,4,0,0,1,.4-.22,20.42,20.42,0,0,1,3.24-1.23c3.08-.9,6.18-1.49,9.27-2.07,2.32-.45,4.74-.8,7-1.3a1.46,1.46,0,0,1,.6-.09l.5,0,.89.08,1.77.14,3.54.27c3.65.26,7.25.39,10.87.58l2.38.11c3,.2,3.91.41,4.51,1a3.67,3.67,0,0,1,.39.42c.25.46-1,.73-3.18.69-6.49-.12-13.3-.59-20.14-1.12l-1.52-.12h0l-.13,0-.27.07-.5.11-1,.19-3.77.68c-2.51.46-5,.93-7.44,1.51Z"/><path class="cls-1" d="M260,463.91c-5.44,14.93,37.09,10.66,40.15,7.59,3.47-3.48-14.3-5.68-16-6.37Z"/><path class="cls-1" d="M295,466.14a29.19,29.19,0,0,1,3.41,1.16,10.25,10.25,0,0,1,1.74.89,5.16,5.16,0,0,1,1,.93,2.09,2.09,0,0,1,.38.64,2.18,2.18,0,0,1,.18.71,2.32,2.32,0,0,1-.42,1.39,1.9,1.9,0,0,1-.51.55,2.55,2.55,0,0,1-.58.42,8.39,8.39,0,0,1-1.91.74,31.84,31.84,0,0,1-3.47.77c-1.69.3-3.36.56-5.05.72a80.72,80.72,0,0,1-17.85-.22,33.25,33.25,0,0,1-7.81-1.85,9.79,9.79,0,0,1-4.43-3.1,5.41,5.41,0,0,1-.7-1.27l-.24-.7a6,6,0,0,1-.11-.72c0-.25-.06-.49-.06-.73l.08-.71c0-.23.05-.47.1-.69l.22-.65c.38-1.1.83-.68,1.12.28.08.23.12.5.2.79a5.65,5.65,0,0,1,.26.89c.11.31.26.59.34.9.08.15.16.28.23.43a1.74,1.74,0,0,0,.23.45,7.08,7.08,0,0,0,3.21,2.56,21.34,21.34,0,0,0,4.54,1.46,63.27,63.27,0,0,0,9.93,1.22,72.86,72.86,0,0,0,12.39-.64,42.82,42.82,0,0,0,6.62-1.27c1.15-.38,1.58-.57,1.41-1.1a.75.75,0,0,0-.23-.27L299,470a2.36,2.36,0,0,0-.31-.2,12.37,12.37,0,0,0-1.47-.67,55.11,55.11,0,0,0-8.1-2.17l-3.17-.65c-.53-.12-1.05-.22-1.61-.37l-.22-.06-.13-.05h-.3l-.81,0-6.43-.34c-3.31-.14-6.57-.16-9.85-.23l-2.16,0c-2.7-.1-3.55-.29-4.1-.89a2.28,2.28,0,0,1-.37-.41c-.23-.45.89-.76,2.87-.79,5.88-.09,12.06.17,18.26.48l1.73.09.86,0,.58,0c.27,0,.52.15.58.15,1,.25,2.17.47,3.29.7,2.28.46,4.57.94,6.86,1.56Z"/><path class="cls-1" d="M215.8,224.58c2.12,12.28,4.9,24.46,7.64,36.66,1,4.46,2,8.91,2.84,13.44.29,1.58.53,3.18.71,4.8.09.81.16,1.64.19,2.47v.3c0,.05,0,.11,0,.17s0,.23,0,.35,0,0,0,0l.08,0,.16-.07.32-.14.48-.19.59-.22c.39-.16.8-.28,1.2-.41a22,22,0,0,1,5-.83c.83-.06,1.65-.07,2.46-.08h1.91c.43.14.26-.3.24-.57l-.18-1.11-.21-1.17c-1.24-6.29-2.65-12.6-3.87-18.93-1.36-7-2.63-14.1-3.54-21.14a135.64,135.64,0,0,1-1.19-13.69,53.69,53.69,0,0,1,1.09-13.77c.77-2.82,1.19-2.23,1.14.19s0,6.74.07,11.89a185.14,185.14,0,0,0,3,27.45c1.53,9.14,3.51,18.21,5.29,27.44.14.8.29,1.59.41,2.41.1.59.14,1.33.2,2l0,.5v.38s0,.1,0,.09l-1,0-1,0h-2.09c-.81,0-1.6,0-2.39.07a20,20,0,0,0-4.59.76c-.37.12-.74.23-1.11.37l-.55.21-.61.26c-.64.27-1.27.59-1.91.89l-.94.47-.47.23a1.29,1.29,0,0,1-.41.16l.28-1.69a13.85,13.85,0,0,0,.2-1.71c0-.24,0-.56,0-.72s0-.29,0-.44l-.06-.89c-.12-1.19-.27-2.39-.47-3.6-.39-2.41-.87-4.82-1.37-7.22-2.6-12.28-5.59-24.55-8-36.94-1.49-7.62-2.8-15.29-3.75-23-.71-5.84-1.22-11.73-1.35-17.63a94.46,94.46,0,0,1,1.1-17.63,56,56,0,0,1,1.53-6.67,41.82,41.82,0,0,1,2.51-6.36,24.92,24.92,0,0,1,9.15-10.17A23.44,23.44,0,0,1,230,149a25.51,25.51,0,0,1,7.95-1.13,9.2,9.2,0,0,1,3.53.58,8.26,8.26,0,0,1,1,.43c.34.24-.25.41-1.57.52l-1.13.07-1.38.14c-1,.05-2.16.22-3.46.39-1,.16-1.91.35-2.85.58a23.83,23.83,0,0,0-2.75.89,21,21,0,0,0-5.09,2.73,23.67,23.67,0,0,0-7.35,9,39,39,0,0,0-2.19,5.62,56.44,56.44,0,0,0-1.38,6,81,81,0,0,0-1.1,12.4c-.18,12.43,1.46,25,3.63,37.33Z"/><path class="cls-1" d="M302.31,183.59a152.81,152.81,0,0,1-2.34,22c-1.25,7.27-2.83,14.45-4.55,21.59-1.27,5.22-2.55,10.42-3.95,15.58l-5.3,19.35c-.87,3.22-1.73,6.45-2.47,9.68-.37,1.62-.72,3.24-1,4.86-.14.81-.25,1.62-.33,2.42l-.06.82a7.68,7.68,0,0,0,0,1.06c0,.74.1,1.44.16,2.13l-2.3-1.28-1.08-.49-.74-.28c-1-.35-1.94-.65-2.93-.91s-2-.49-3-.66c-.51-.09-1-.17-1.51-.23l-.38,0-.18,0h-.26c-.41,0-.82,0-1.23,0a2.31,2.31,0,0,1-.3-.61,2.81,2.81,0,0,1-.21-.68l-.15-.69a2.6,2.6,0,0,1,0-.54,16.57,16.57,0,0,1,0-2,108.53,108.53,0,0,1,2.24-12.46q1.36-6.14,2.73-12.21c1.14-5.2,2.21-10.42,3.06-15.67.42-2.62.79-5.24,1-7.87a46.69,46.69,0,0,0,.21-7.83c0-.81-.12-1.37-.11-1.75s.07-.55.18-.55.68.72,1.08,2.12c.88,2.79,1.16,8.19.22,14.33-1.18,7.79-2.94,15.41-4.7,23-.88,3.8-1.77,7.59-2.57,11.39-.39,1.89-.76,3.79-1,5.68a27.08,27.08,0,0,0-.28,2.77c0,.46,0,.89,0,1.28,0,.07,0,.15,0,.17l.81.08c.55.07,1.09.15,1.63.25,1.07.19,2.13.42,3.17.7s2.09.6,3.13,1l.73.28.22.1.26.16a2.72,2.72,0,0,1,0-.28l0-.19c0-.27.05-.52.08-.78.12-1,.3-2.06.49-3.07,1.33-6.53,3.16-13,4.89-19.48s3.52-13,5.21-19.53c3.67-14.26,7.07-28.65,8.6-43.27a107.31,107.31,0,0,0,.59-13.52,50.39,50.39,0,0,0-1.91-13.25,22.81,22.81,0,0,0-4.75-8.73,16.89,16.89,0,0,0-3.87-3.07,23.18,23.18,0,0,0-4.65-1.87,28.75,28.75,0,0,0-9.9-1.59,8.44,8.44,0,0,0-4.51,1.41,6.82,6.82,0,0,0-1.58,1.71c-.48.69-.93,1.41-1.38,2.13-2.75,4.48-5.37,9.22-9.39,12.89a20.91,20.91,0,0,1-6.9,4.28,6.8,6.8,0,0,1-4.4.19,6.53,6.53,0,0,1-3.38-2.87,18,18,0,0,1-2.25-6.88,35.13,35.13,0,0,1-.1-9.36,10.79,10.79,0,0,1,1.14-4,4.49,4.49,0,0,1,.72-1.07c.37-.26.23.34.11,1.86a65.68,65.68,0,0,0-.24,7,36,36,0,0,0,.74,6.81c.48,2.18,1.28,4.42,2.68,5.72s3.33,1.16,5.36.13a20.19,20.19,0,0,0,5.6-3.87c3.37-3.2,5.77-7.41,8.37-11.65l1-1.6.53-.8.26-.39.35-.44a9.09,9.09,0,0,1,1.64-1.58,10,10,0,0,1,2-1,12.76,12.76,0,0,1,4.11-.75,21.72,21.72,0,0,1,4,.27,39.94,39.94,0,0,1,5.6,1.28c.91.28,1.79.54,2.71.89l1.39.55,1.34.68a19.52,19.52,0,0,1,8,8.66,29.87,29.87,0,0,1,2.05,5.44,40.86,40.86,0,0,1,1.14,5.62,70.13,70.13,0,0,1,.61,11.29Z"/><path class="cls-1" d="M269.19,278c-.58-4.45,2.81-19.17,2.81-19.17-28,5.83-35-1.29-35-1.29s5.35,20.76,4.58,23.81c0,0,15.13.49,25.15,2Z"/><path class="cls-1" d="M238.56,269.89c-.39-1.93-.81-3.86-1.24-5.78l-.65-2.89L235.4,256a4,4,0,0,1,.58.12l.23.1.32.12.33.13.42.16.43.16.21.08.27.15a21.56,21.56,0,0,0,2.07,1.07c.37.14.72.31,1.11.42a26.3,26.3,0,0,0,2.84.75c1,.15,1.95.35,2.95.44a75.59,75.59,0,0,0,21.35-1l4.49-.82-.52,2.31-.39,1.86c-.2,1-.39,2-.59,3-.36,2-.67,4-.95,6s-.56,4-.66,6c0,1.14-.54,1.16-1.15.06a10.25,10.25,0,0,1-.62-5.62c.3-2.21.68-4.38,1.1-6.54l.67-3.23.18-.81.06-.22a.36.36,0,0,1,.05-.12l-.06,0h-.07l-.75.13c-1,.16-2,.36-3,.47-2,.25-4,.51-6.08.62l-1.92.14-1.94.07c-1.29.09-2.61.09-3.92.09s-2.64-.08-4-.13-2.64-.25-3.95-.51a25.81,25.81,0,0,1-4.42-1.19l-.54-.21-.16-.07-.09,0-.37-.19c-.13-.08-.25-.15-.37-.24l-.17-.14s0,.11,0,.16l1.42,6.27c.75,3.43,1.46,6.86,2,10.33.12.86.27,1.7.34,2.58l.07.65,0,.64a3.24,3.24,0,0,1,0,.69l10.06.56c4.08.26,8.09.44,12.13.84l1.32.14H266c.07,0,.16,0,.17-.07l.24-.54.41-.86c.26-.52.49-.93.69-1.25a2.94,2.94,0,0,1,1.17-1.19,3.31,3.31,0,0,1,.55-.26c.54-.11.3,1.27-.6,3.53l-.53,1.33-.48,1.11c-.09.16-.13.42-.27.51l-.6-.07-1.92-.21-1.36-.12c-1.83-.16-3.67-.3-5.54-.43-3.72-.27-7.51-.5-11.31-.69l-2.56-.12-4-.16.11-1.48c0-.26,0-.52.05-.77l0-.58c0-.42-.08-.92-.12-1.38-.12-.94-.26-1.91-.43-2.87-.32-1.93-.71-3.86-1.12-5.79Z"/><path class="cls-1" d="M250.39,184.21a.67.67,0,0,0,.24.84c.09.14.34.16.5.29a5.39,5.39,0,0,0,.48.25,3.11,3.11,0,0,0,.4.11c.24,0,.32,0,.43-.11a.32.32,0,0,0-.12-.42c-.15,0-.24,0-.7,0a1.83,1.83,0,0,1-.32-1.9.83.83,0,0,1,.68-.44,2.85,2.85,0,0,1,.9.11,2.68,2.68,0,0,1,.86.47,2.52,2.52,0,0,1,.45,3.32,2.19,2.19,0,0,1-1.45.9,4,4,0,0,1-.84,0l-.72-.11a4.52,4.52,0,0,1-1.21-.46,2.38,2.38,0,0,1-.61-.42,2.22,2.22,0,0,1-.54-.56l-.23-.33a3.29,3.29,0,0,1-.17-.39,2.26,2.26,0,0,1-.17-.81,3.24,3.24,0,0,1,.48-1.76,5.77,5.77,0,0,1,1.74-1.74,6.44,6.44,0,0,1,1.69-1,3.31,3.31,0,0,1,.45-.12c.58-.07.78.15.79.71,0,.13,0,.26,0,.38a1.2,1.2,0,0,1-.48.9,11.6,11.6,0,0,0-1.73,1.16,2.35,2.35,0,0,0-.75,1.05Z"/><path class="cls-1" d="M249.05,196a.68.68,0,0,0,.24.85c.09.13.35.16.5.28a4.37,4.37,0,0,0,.48.25,2,2,0,0,0,.4.11c.24,0,.32,0,.43-.11A.31.31,0,0,0,251,197c-.15,0-.24,0-.7,0a1.56,1.56,0,0,1-.45-1.07,1.53,1.53,0,0,1,.13-.82.85.85,0,0,1,.69-.45,3.1,3.1,0,0,1,.89.11,2.58,2.58,0,0,1,.86.47,2.54,2.54,0,0,1,.87,1.62,2.57,2.57,0,0,1-.42,1.71,2.22,2.22,0,0,1-1.45.9,6.12,6.12,0,0,1-.84,0l-.72-.11a4.68,4.68,0,0,1-1.21-.47,2.56,2.56,0,0,1-.61-.42,2.63,2.63,0,0,1-.54-.56l-.23-.33c-.07-.12-.11-.26-.17-.39a2.21,2.21,0,0,1-.16-.81,3.1,3.1,0,0,1,.48-1.76,5.63,5.63,0,0,1,1.73-1.74,6.44,6.44,0,0,1,1.69-.95l.45-.12c.58-.07.78.15.79.71,0,.13,0,.26,0,.39a1.19,1.19,0,0,1-.48.89,12.74,12.74,0,0,0-1.73,1.16,2.29,2.29,0,0,0-.74,1Z"/><path class="cls-1" d="M250.6,102.63a1.19,1.19,0,0,0-2,.16c-1.15,1.65,1.07,3.66,2.23,1.75A1.6,1.6,0,0,0,250.6,102.63Z"/><path class="cls-1" d="M249.58,106.15a2.21,2.21,0,0,1-1.69-1.25,2.4,2.4,0,0,1-.24-.68,2.34,2.34,0,0,1,.94-2.13,1.89,1.89,0,0,1,1-.42,1.29,1.29,0,0,1,1.25.57c.07.13-.22.33-.51.51a3.56,3.56,0,0,1-.62.37l-.2-.05a.91.91,0,0,0-.46.26.74.74,0,0,0-.14.75,1,1,0,0,0,.52.7.64.64,0,0,0,.49,0,1.19,1.19,0,0,0,.64-.71.87.87,0,0,0-.18-.68,1.06,1.06,0,0,1-.1-.12c-.11-.14-.07-.23.16-.5l.16-.19a.45.45,0,0,1,.67-.09,1.85,1.85,0,0,1,.6,1.2,2.09,2.09,0,0,1-.37,1.42,2.23,2.23,0,0,1-2,1.05Z"/><path class="cls-1" d="M245.25,99.16c-.18-.11-.06-.37.21-.66a1.12,1.12,0,0,1,.49-.26l.41.08s.24.15.47.3a4.23,4.23,0,0,1,.6.36,2.5,2.5,0,0,1,.62.48,6,6,0,0,0,1.26.86,1.65,1.65,0,0,1,.27.21,1.75,1.75,0,0,0,1.06.48c.07,0,.13,0,.21,0a1.79,1.79,0,0,1,.62,0,4.32,4.32,0,0,1,.61,0,2.89,2.89,0,0,0,1,.12s.09,0,.16,0,.25.07.35,0L254,101a1.15,1.15,0,0,1,.33,0c.11,0,.27.27.27.31s.13.19.22.27a.35.35,0,0,1,.08.1,1.76,1.76,0,0,1-.32.63,2.53,2.53,0,0,1-.56.58,3,3,0,0,1-.28.14,4.51,4.51,0,0,1-.64.25,9,9,0,0,1-1.09.28.76.76,0,0,1-.33,0,8.45,8.45,0,0,1-1.59,0,1.43,1.43,0,0,1-.84-.35.24.24,0,0,0-.16-.07,4.79,4.79,0,0,1-1.34-.71l-.65-.42s-.06-.08-.09-.11a.5.5,0,0,0-.12-.13,6.37,6.37,0,0,1-.67-.6,6.33,6.33,0,0,0-.63-.64c-.1-.09-.31-.75-.39-.87S245.32,99.19,245.25,99.16Z"/><path class="cls-1" d="M266.35,105.86a1.19,1.19,0,0,0-2,.34c-1,1.76,1.42,3.54,2.39,1.54A1.59,1.59,0,0,0,266.35,105.86Z"/><path class="cls-1" d="M265.66,109.45a2.15,2.15,0,0,1-1.79-1.08,2,2,0,0,1-.31-.66,2.35,2.35,0,0,1,.74-2.21,2,2,0,0,1,1-.51,1.3,1.3,0,0,1,1.3.45c.08.13-.19.35-.46.56s-.53.44-.58.42a.56.56,0,0,0-.2,0,.88.88,0,0,0-.44.31.72.72,0,0,0-.07.75,1,1,0,0,0,.58.65.63.63,0,0,0,.5,0,1.17,1.17,0,0,0,.56-.76.84.84,0,0,0-.24-.66s-.08-.07-.11-.11-.09-.22.11-.52l.14-.2a.46.46,0,0,1,.66-.14,1.8,1.8,0,0,1,.72,1.13,2.09,2.09,0,0,1-.25,1.45,2.22,2.22,0,0,1-1.86,1.23Z"/><path class="cls-1" d="M261.47,103c-.19-.09-.09-.35.15-.67a1,1,0,0,1,.46-.3c.14,0,.29,0,.42,0l.49.26a4.8,4.8,0,0,1,.63.3,2.57,2.57,0,0,1,.66.42,5.5,5.5,0,0,0,1.34.74,2.29,2.29,0,0,1,.29.18,1.68,1.68,0,0,0,1.1.38c.07,0,.13,0,.2,0a1.58,1.58,0,0,1,.62-.08,4.44,4.44,0,0,1,.61,0,2.69,2.69,0,0,0,1,0c.05,0,.08,0,.16,0s.26,0,.35,0l.42-.18a1,1,0,0,1,.33,0c.12,0,.3.23.3.28s.16.17.25.25l.09.09a1.71,1.71,0,0,1-.26.66,2.73,2.73,0,0,1-.5.63l-.27.16a3.83,3.83,0,0,1-.61.31,10.21,10.21,0,0,1-1.06.38.78.78,0,0,1-.34,0,8.22,8.22,0,0,1-1.58.15,1.4,1.4,0,0,1-.87-.27.32.32,0,0,0-.17-.06,4.77,4.77,0,0,1-1.4-.58l-.68-.35a.94.94,0,0,1-.1-.1.37.37,0,0,0-.13-.12,7.51,7.51,0,0,1-.72-.54,6.33,6.33,0,0,0-.69-.57,9.62,9.62,0,0,1-.47-.84C261.46,103.49,261.54,103.07,261.47,103Z"/><path class="cls-1" d="M257.77,101.61a18.21,18.21,0,0,1,1.75-6.85,8.35,8.35,0,0,1,1.57-2.23,7.05,7.05,0,0,1,4.35-2,15.4,15.4,0,0,1,4.52.34,18.79,18.79,0,0,1,3.79,1.21A12.68,12.68,0,0,1,276,93.3a6.19,6.19,0,0,1,1.82,1.82c.28.47-.09.65-.71.65a3.56,3.56,0,0,1-2.11-.66,16,16,0,0,0-8.54-2.89,5.53,5.53,0,0,0-2.58.49,5.69,5.69,0,0,0-2,1.71,12.6,12.6,0,0,0-2.11,5.88,28.64,28.64,0,0,0-.24,4,37.35,37.35,0,0,0,.58,6.16,32.94,32.94,0,0,0,1.24,4.56l.36,1c.42,1.21.46,1.59.11,2a1.47,1.47,0,0,1-.23.31c-.29.29-.84-.09-1.28-1a29.12,29.12,0,0,1-2.35-8.8,36.7,36.7,0,0,1-.23-7Z"/><path class="cls-1" d="M256.47,91.53c.25.17.22.5,0,.87a.76.76,0,0,1-.47.28l-.49-.15A8.13,8.13,0,0,0,254,91.6c-.2-.07-.37-.17-.55-.25l-.57-.25a11.68,11.68,0,0,0-2.48-.73,3.13,3.13,0,0,1-.57-.18,5.46,5.46,0,0,0-2.05-.3.55.55,0,0,0-.35,0,19.11,19.11,0,0,1-2.32.15,12.94,12.94,0,0,0-1.87-.09c-.09,0-.17,0-.27,0a.66.66,0,0,0-.59-.06,7.18,7.18,0,0,1-.81.06,1.29,1.29,0,0,1-.44-.11c-.14,0-.17-.31-.13-.35s0-.22-.1-.32a.56.56,0,0,1,0-.12A6.49,6.49,0,0,1,242.5,88l.41-.1c.23-.07.54-.13.87-.2.64-.15,1.32-.24,1.46-.28a1.33,1.33,0,0,1,.44,0c.06,0,2-.22,2.12-.19a3.24,3.24,0,0,1,1.23.2.69.69,0,0,0,.24,0,10.13,10.13,0,0,1,2.11.43c.35.12.72.18,1.07.3a.87.87,0,0,1,.18.11,1.59,1.59,0,0,0,.22.13,6.35,6.35,0,0,1,1.21.57l.58.33.58.37a2.77,2.77,0,0,1,.51.5c.2.25.39.5.47.58S256.38,91.46,256.47,91.53Z"/><path class="cls-1" d="M251.85,125.68c-.14-.21.09-.42.53-.57a1.36,1.36,0,0,1,.64,0,4.43,4.43,0,0,1,.37.28s.13.27.24.51l.38.57c.23.18.3.41.47.59a3.1,3.1,0,0,0,1.16.92,1.05,1.05,0,0,1,.31.17,1.6,1.6,0,0,0,1.19.33c.07,0,.14,0,.2-.07s.35-.1.6-.21.49-.19.56-.19a1.54,1.54,0,0,0,.86-.36s.05-.07.13-.08.22-.13.28-.22a4.68,4.68,0,0,0,.2-.45c0-.08.17-.16.27-.25a.52.52,0,0,1,.41,0c.08.1.23,0,.35,0h.13a2.64,2.64,0,0,1,.24.78,2.83,2.83,0,0,1-.06,1,4.13,4.13,0,0,1-.68,1.1,5.65,5.65,0,0,1-.68.64l-.44.29a.86.86,0,0,1-.41.13s-.47.21-.93.33a5.61,5.61,0,0,1-1,.18c-.37,0-.77.06-1.1-.2a.37.37,0,0,0-.21-.06,2.9,2.9,0,0,1-.9-.26,4.07,4.07,0,0,1-.82-.45,4.76,4.76,0,0,1-.81-.54.85.85,0,0,1-.11-.14,1.15,1.15,0,0,0-.14-.17,4.43,4.43,0,0,1-.74-.87c-.2-.32-.37-.66-.58-1-.08-.16-.09-1-.16-1.18S251.9,125.76,251.85,125.68Z"/><path class="cls-1" d="M325,40.15c3.87-.95,4.18,6.7,4.12,9,0,1,2.16.54,2.18-.25.11-4.23-.76-11.38-6.62-9.94-1.32.32-1,1.51.32,1.19Z"/><path class="cls-1" d="M330.16,35.65c3.77.18,4,5.23,4,8.08,0,1.18,2.2.9,2.21-.14,0-3.8-.65-9.37-5.48-9.6-1.11-.06-2.19,1.59-.73,1.66Z"/><path class="cls-1" d="M204,53.51a9.42,9.42,0,0,0-5.37,8.88c0,1.06,2.22.67,2.19-.2a7.81,7.81,0,0,1,4.1-7.54C206.2,54,205,53,204,53.51Z"/><path class="cls-1" d="M200.35,51c-5.49-.85-7.34,6-7.75,10.19-.09.87,2.1.46,2.17-.27.2-2,1.3-9.2,4.25-8.75.68.11,2.55-1,1.33-1.17Z"/><path class="cls-1" d="M257.73,292.68l-2.46-.43c-.3-.05-.61-.05-.9-.1-1.06-.19-2.11-.41-3.17-.59a13.65,13.65,0,0,0-1.42-.14,5.48,5.48,0,0,1-1.8-.21c-.36-.15.28-1.64,1-1.58a19.52,19.52,0,0,1,3.67.66,18.65,18.65,0,0,0,2.26.34c.83.12,1.66.26,2.49.4l1.53.23c.77.11,1.55.25,2.32.31.6,0,1.2,0,1.8,0,.13,0,.26,0,.4,0,.49,0,.63.15.69.58,0,.1,0,.2,0,.3a.63.63,0,0,1-.59.64,12.81,12.81,0,0,1-3.33,0c-.83-.09-1.67-.22-2.5-.33Z"/></g></svg>