<svg id="Layer_1" data-name="Layer 1" xmlns="http://www.w3.org/2000/svg" width="520" height="520" viewBox="0 0 520 520"><defs><style>.cls-1{fill:#221f1f;}</style></defs><title>Notioly v2</title><g id="_2.Dancer" data-name="2.Dancer"><path class="cls-1" d="M251.65,465.67a5.12,5.12,0,0,0,.06-.77,4.4,4.4,0,0,0,0-.49c0-.17,0-.42-.09-.36s-.14,0-.22.08-.17.54-.26.64a3.13,3.13,0,0,0-.29.46l-.15.34c0,.14-.11.38-.17.58l-.09.32-.1.61-.21,1.28c-.06.86-.19,1.73-.18,2.58a14.66,14.66,0,0,0,.6,4.46,19.47,19.47,0,0,0,2.54,4.71c.28.47-.34,1.21-1.39,1.47a3.59,3.59,0,0,1-1.83-.06,3.43,3.43,0,0,1-1.59-1.29,15.88,15.88,0,0,1-2-7,22.31,22.31,0,0,1,.61-6.8l.29-1.27.32-1.44c.17-1,.52-2,.75-2.93a11.78,11.78,0,0,1,.44-1.38l.45-1.32a11.19,11.19,0,0,1,.49-1.17l.51-1.08c.79-1.49,1.51-2.83,2.48-4.44l.25.22c.09.16.19.41.28.61l.53,1.27c.27.76.59,1.55.79,2.27a22.46,22.46,0,0,1,.69,2.88,30.62,30.62,0,0,1,.24,3.44c0,.46,0,.9,0,1.38l-.09,1.45c0,.48-.06.95-.11,1.43l-.13,1.07c-.17,1.33-.34,2.66-.5,4a58.94,58.94,0,0,0-.3,6v1.3c0,1.59-.26,2-1.27,2.41a4.67,4.67,0,0,1-.68.25c-.76.2-1.42-.5-1.61-1.82-.48-3.86.13-7.7.54-11.39l.21-1.92s0,0,0-.05a.71.71,0,0,0,.09-.3Z"/><path class="cls-1" d="M248.24,471.26c.15-.74.31-1.47.47-2.2.06-.26,0-.53.08-.79.25-.92.57-1.82.81-2.72a3.82,3.82,0,0,0,.1-1.21c0-.53-.25-1.07.2-1.54.28-.29,3.83.47,3.81,1.07a6.15,6.15,0,0,1-.92,3.07,5.18,5.18,0,0,0-.38,1.89c-.14.68-.27,1.37-.41,2.06-.08.43-.16.85-.2,1.28a9,9,0,0,0-.08,1.94,5.22,5.22,0,0,0,.57,1.42c0,.11.12.2.15.31.11.38-.12.53-1.1.75l-.67.14a1.9,1.9,0,0,1-1.67-.25,4.39,4.39,0,0,1-1-3,19.36,19.36,0,0,1,.13-2.28Z"/><path class="cls-1" d="M343.18,470.75a5.57,5.57,0,0,1-.4,3.19c-.17.28-.33.52-.47.78a2.65,2.65,0,0,1-.5.72,2.9,2.9,0,0,1-.3.27l-.11.08h0l0-.07h0l0,0-.08,0a2.38,2.38,0,0,1-.29.13,1.35,1.35,0,0,1-.86-.07,7.36,7.36,0,0,1-2.75-2.36,34.75,34.75,0,0,1-3.12-5.09c-.45-.84-.89-1.65-1.34-2.45l-1.34-2.33a13,13,0,0,1-2.1-4.26c-.18-1,4.06-1.71,4.9-.15.37.69.74,1.39,1.09,2.1l.13.27,0,.11h0v0a.19.19,0,0,0,0,.09,4.34,4.34,0,0,0,.24,1.65,4.42,4.42,0,0,0,.56,1.36,6.58,6.58,0,0,0,.67.83c.09.1.23.17.3.14a.28.28,0,0,0,.12-.12,2,2,0,0,0,.1-.29,4.21,4.21,0,0,0,0-.86,13.57,13.57,0,0,0-.13-1.6c-.08-.48-.14-1-.25-1.57l-.3-1.42c-.11-.49-.23-1-.36-1.46-.41-1.51-1.06-2.93-1.6-4.4-.11-.33-.27-.64-.36-1-.36-1.24-.15-1.77.93-2.24a4.2,4.2,0,0,1,.74-.29,1.74,1.74,0,0,1,2.07.9,33.94,33.94,0,0,1,2.81,8.11l.56,2.43.66,3.12c.4,2,.78,4.08,1,5.78Z"/><path class="cls-1" d="M282.64,115.74a35.21,35.21,0,0,1-.89,8,21.12,21.12,0,0,1-3.38,7.49,16.44,16.44,0,0,1-4.38,4.22,13.94,13.94,0,0,1-5.05,2,15.19,15.19,0,0,1-5.34-.08,28.3,28.3,0,0,1-9.49-3.91,76.43,76.43,0,0,1-7.33-5.16c-1.49-1.17-3-2.37-4.39-3.61s-2.81-2.57-4.12-3.72a1,1,0,0,1-.35-.4.43.43,0,0,1,0-.35c.08-.21.48-.39,1.09-.32a9.33,9.33,0,0,1,4.62,2.36c2.86,2.53,5.72,5,8.76,7.17a37.14,37.14,0,0,0,9.71,5.27,13.42,13.42,0,0,0,6.44.51,12.32,12.32,0,0,0,5.74-2.91,15.6,15.6,0,0,0,4.17-5.93,24.9,24.9,0,0,0,1.68-7.3,46.43,46.43,0,0,0-.23-9.42q-.43-3.57-1.19-7.11c-.47-2.37-1.09-4.7-1.56-7.11-.68-3.72-1.33-7.34-1.76-11.06-.09-.82-.19-1.63-.24-2.47-.16-3.09.19-4.22,1-4.77a2.2,2.2,0,0,1,.53-.32c.26-.06.43.25.5.73a22.88,22.88,0,0,1,.23,2.4c.23,3.19.72,6.54,1.23,9.9.26,1.68.54,3.38.85,5s.74,3.31,1.13,5a72.9,72.9,0,0,1,2.13,15.82Z"/><path class="cls-1" d="M216,104.28a14.5,14.5,0,0,1-.71-1.86,15.31,15.31,0,0,1-.36-1.94,13,13,0,0,1,.25-3.78,8.07,8.07,0,0,1,1-2.73,5.13,5.13,0,0,1,2-1.87,6.46,6.46,0,0,1,2.49-.77,8.31,8.31,0,0,1,4.76,1.09,17.65,17.65,0,0,1,3.36,2.4A9.91,9.91,0,0,1,231.94,99c.18.54-.43.69-1.16.58a3.22,3.22,0,0,1-2.07-1.1,15.87,15.87,0,0,0-3.16-3.18,8.31,8.31,0,0,0-3.82-1.76,3.56,3.56,0,0,0-2.37.49,3.42,3.42,0,0,0-1.48,1.81,9.62,9.62,0,0,0-.28,6,9.43,9.43,0,0,0,2,3.28,17.55,17.55,0,0,0,5,3.55,44.3,44.3,0,0,0,4.51,1.74c.35.13.69.23,1,.38,1.27.54,1.69,1.07,1.52,1.76a1.57,1.57,0,0,1-.13.45.8.8,0,0,1-.63.34,2.29,2.29,0,0,1-1-.16,37.43,37.43,0,0,1-8.45-3.56,15.09,15.09,0,0,1-5.4-5.37Z"/><path class="cls-1" d="M278.81,77.5c-.67.41-28.12-12.83-47,19.28-.26-.44-5.26-7.26-13.46-5.43-.88.2-6-8.88-6.61-15.26-15.61.64-23.23-24.27-11.27-33.95C223.89,23.2,235.4,53.22,235.73,53,281.64,24.25,294.69,67.83,278.81,77.5Z"/><path class="cls-1" d="M221.65,39.07a14.15,14.15,0,0,0-8.53-1.43A21.7,21.7,0,0,0,204.71,41,32.84,32.84,0,0,0,201,43.73a13.63,13.63,0,0,0-2.78,3.4,17.78,17.78,0,0,0-2.14,8.68,22.57,22.57,0,0,0,4,12.61,15.83,15.83,0,0,0,5.09,4.76,12,12,0,0,0,3.2,1.29l.84.19.88.1c.16,0,.27,0,.46,0l.81,0,1.6,0a23.1,23.1,0,0,0,.94,5.14,36,36,0,0,0,1.42,4,40.32,40.32,0,0,0,1.82,3.81c.33.61.69,1.21,1.06,1.77a4.76,4.76,0,0,0,.37.5.43.43,0,0,0,.17.13.75.75,0,0,0,.21,0l.94-.14,1.2,0a9.65,9.65,0,0,1,1.2.06,6.92,6.92,0,0,1,1.2.16,13.78,13.78,0,0,1,4.45,1.68,16.26,16.26,0,0,1,1.93,1.35c.31.25.61.5.89.77a6.45,6.45,0,0,1,.54.54,4.16,4.16,0,0,1,.32.39l.15.2.14-.21.64-1c4.12-6.3,9.47-12.08,16.18-15.72a34.37,34.37,0,0,1,14-4.07,37.3,37.3,0,0,1,14.4,1.93,7.31,7.31,0,0,1,1.47.62.65.65,0,0,1,.15.11s.14.07,0,.09,0,0-.05,0a.6.6,0,0,0,0,.19,1.05,1.05,0,0,0,.08.25c.06.11.09.14.07.11a.42.42,0,0,1-.07-.11,1,1,0,0,1,0-.1s0-.1,0-.08.08.06,0,.09a1.2,1.2,0,0,1-.43.14,8.79,8.79,0,0,1-1.54,0c-2.58-.07-7-.58-12.22-.47a32.18,32.18,0,0,0-12.79,2.85,37.09,37.09,0,0,0-5.7,3.34,41.69,41.69,0,0,0-5,4.36c-.81.78-1.52,1.66-2.28,2.48s-1.43,1.74-2.1,2.65-1.35,1.82-1.94,2.79l-.81,1.28L233,98.12l-.89,1.35c-.29-.28-.65-.74-1-1.15L230,97l-.53-.58-.27-.29L229,96a14.39,14.39,0,0,0-1.19-1,12.27,12.27,0,0,0-2.67-1.58,10.47,10.47,0,0,0-3-.8,8.71,8.71,0,0,0-1.53-.06,6.78,6.78,0,0,0-.78,0l-1.09.16a4.39,4.39,0,0,1-1,0,2.28,2.28,0,0,1-.81-.53,8.11,8.11,0,0,1-.66-.77c-.15-.22-.26-.37-.38-.56a41.82,41.82,0,0,1-3.43-6.94c-.47-1.2-.89-2.44-1.25-3.71-.17-.63-.33-1.28-.46-1.93l-.09-.47,0-.14,0-.3c-.12,0-.27,0-.4,0h-.22l-.34,0-.69-.08a15.43,15.43,0,0,1-2.74-.67,16,16,0,0,1-4.87-2.75,21.6,21.6,0,0,1-6.26-8.91,25.2,25.2,0,0,1-1.68-10.14,19.24,19.24,0,0,1,3.07-9.88,17,17,0,0,1,3.6-3.83,36.78,36.78,0,0,1,4.18-2.87,22.78,22.78,0,0,1,9.72-3.24,16.55,16.55,0,0,1,6.36.82,19.48,19.48,0,0,1,5.59,3,33.48,33.48,0,0,1,8,9.44c.52.87,1,1.77,1.48,2.67l.38.74c.07.39.37.09.58,0l3-1.74,3.46-1.78a66.32,66.32,0,0,1,7.18-3,38,38,0,0,1,15.34-2.39,23.78,23.78,0,0,1,7.11,1.52,20.48,20.48,0,0,1,6.27,3.7A21.76,21.76,0,0,1,286,60.35a20,20,0,0,1,.32,6.46,9.18,9.18,0,0,1-.22,1.45c-.09.46-.17.91-.28,1.33a18.49,18.49,0,0,1-.8,2.23,12.84,12.84,0,0,1-1.84,3c-.32.36-.62.68-.89,1a6.17,6.17,0,0,1-.85.63,3.94,3.94,0,0,1-1.44.67,7,7,0,0,1-1.17.24c-.44,0-.08-.6.85-1.5a17.15,17.15,0,0,0,3.05-5A18.48,18.48,0,0,0,283,59.31a19.39,19.39,0,0,0-6.4-9.82,19.85,19.85,0,0,0-11.09-4.21,33.68,33.68,0,0,0-12.37,1.55c-1.38.34-2.7.92-4,1.39s-2.64,1.14-4,1.7-2.58,1.32-3.87,2c-.65.31-1.26.72-1.89,1.08l-2.71,1.59-1,.14-.25,0-.13,0h-.05c.21-.76.06-.21.1-.38h-.06l-.43-.07a1.25,1.25,0,0,1-.48-.14c-.16-.07-.24-.32-.37-.48l-.61-1.19-.7-1.33L232.06,50a39.5,39.5,0,0,0-2.89-4.31,22.78,22.78,0,0,0-7.54-6.57Z"/><path class="cls-1" d="M244.7,125.52c-.63,7.16,4,14.13,11,15.84,4.46,1.11,5-2.26,3.88-4.37C258.94,135.85,248.07,129.41,244.7,125.52Z"/><path class="cls-1" d="M260.5,135.83l.36.49c.12.28.19.43.25.61s.12.37.16.56a6.25,6.25,0,0,1,.16,1.15,4.43,4.43,0,0,1-.59,2.46,3.72,3.72,0,0,1-2.16,1.6,5.77,5.77,0,0,1-2.25.08,12.64,12.64,0,0,1-2.86-.78,15.55,15.55,0,0,1-7.33-6.62,19.8,19.8,0,0,1-1.81-4,11.06,11.06,0,0,1-.61-5.55c.11-.58.72-.42,1.3.07a3.65,3.65,0,0,1,.79.94,2.49,2.49,0,0,1,.43,1.22,16.57,16.57,0,0,0,3.84,8.83,10.84,10.84,0,0,0,5.12,3.19,6.85,6.85,0,0,0,1.56.39,2.68,2.68,0,0,0,1.32-.09,1.26,1.26,0,0,0,.74-.69,2.38,2.38,0,0,0,.13-1.3,3.71,3.71,0,0,0-.26-.92.86.86,0,0,0-.1-.16l-.24-.22c-.16-.16-.39-.33-.58-.49-.41-.33-.83-.65-1.27-1-1.83-1.33-3.69-2.68-5.56-4-1.45-1-2.95-1.9-4.39-2.94-.32-.24-.64-.46-1-.71-1.14-1-1.36-1.47-1.1-2.12a2.53,2.53,0,0,1,.19-.44c.3-.42,1-.27,1.76.29l7.82,5.36c1,.71,2,1.42,3,2.12l1.51,1.12c.25.18.51.39.77.6l.41.34a2.8,2.8,0,0,1,.47.49Z"/><path class="cls-1" d="M156.19,66.27c7.28,10,14.27,20.26,21.3,30.43l7.77,11.06c2.28,3.25,4.58,6.49,7,9.64a43,43,0,0,0,7.94,8.43c6.07,4.82,13.4,8,20.89,10.34,3.34,1,6.75,1.87,10.2,2.63l.65.15.32.07.41.14a3.06,3.06,0,0,1,.75.35,4.7,4.7,0,0,1,.66.43,13.4,13.4,0,0,1,2,2,51.47,51.47,0,0,1,3,4.44c1.21,1.91,2.37,3.83,3.63,5.65a24.27,24.27,0,0,0,4.17,4.88,7,7,0,0,0,2.51,1.39,4.09,4.09,0,0,0,2.59-.26,12.52,12.52,0,0,0,4.53-4.1c1.55-2.2,2-1.6,1.21.79a12,12,0,0,1-2.82,4.45,7.57,7.57,0,0,1-3.56,2,6.82,6.82,0,0,1-4.73-.85,18.66,18.66,0,0,1-5.4-5.37c-1.41-1.94-2.61-3.94-3.81-5.9a54.51,54.51,0,0,0-3.67-5.52,6.33,6.33,0,0,0-1.93-1.77,3.57,3.57,0,0,0-.48-.15l-.84-.2-1.68-.39a108.1,108.1,0,0,1-13.43-4,64.78,64.78,0,0,1-12.68-6.28c-1.17-.82-2.38-1.56-3.49-2.49-.56-.45-1.15-.87-1.69-1.35l-1.62-1.46a18.78,18.78,0,0,1-1.54-1.55c-.49-.54-1-1.07-1.49-1.62-.93-1.1-1.81-2.23-2.69-3.37-3.47-4.55-6.79-9.21-10-13.85C173,94.82,166,84.52,158.78,74.38c-4.44-6.24-8.94-12.44-13.69-18.42-1.81-2.26-3.64-4.5-5.56-6.65a45.05,45.05,0,0,0-6.14-5.92,8.36,8.36,0,0,0-1.7-1,20.07,20.07,0,0,0-2-.56l-4.21-1.14c-2.79-.77-5.57-1.52-8.36-2.17-2.17-.49-4.34-.93-6.5-1.22-.54-.06-1.08-.15-1.62-.18l-.8-.06-.39,0h-.24a6.15,6.15,0,0,0-1.67.16,1.58,1.58,0,0,0-.36.14.26.26,0,0,0-.15.32,1.37,1.37,0,0,0,.62.52,7.51,7.51,0,0,0,.71.33l.36.14.45.16a58.09,58.09,0,0,0,6.24,1.85c.93.22,1.85.42,2.76.56a11,11,0,0,0,1.32.16H118l.25,0,.52.08c.3.08.58.17.86.26a27.25,27.25,0,0,1,4.22,2.32c1.08.68,1.91,1.24,2.59,1.7a31.79,31.79,0,0,1,2.68,2,5.23,5.23,0,0,0,.49.31c.17.09.35.12.48.18s.25.23-.08.41a1.51,1.51,0,0,1-.31.14,2.18,2.18,0,0,1-.39,0,3.62,3.62,0,0,1-1-.06,20.94,20.94,0,0,1-5.74-2.58c-.85-.49-1.7-1-2.54-1.4a6,6,0,0,0-2.23-.77,23.19,23.19,0,0,1-3.23-.47c-1-.2-2-.44-3-.71s-2-.55-3-.87c-.49-.16-1-.32-1.49-.5l-.38-.14-.19-.06-.26-.11c-.44-.18-.9-.35-1.33-.55-1.78-.78-3.2-1.78-3.47-2.72a2.19,2.19,0,0,1-.16-.8,2.15,2.15,0,0,1,.24-.92,2.55,2.55,0,0,1,1.25-1.11l.48-.21a2.62,2.62,0,0,1,.61-.13l1.28-.24c.88-.11,1.86,0,2.79-.08,1.18,0,2.21.17,3.29.32,2.13.3,4.21.73,6.27,1.2,4.13.94,8.19,2.1,12.2,3.18l2.25.58a8.85,8.85,0,0,1,2.65,1.3,29.67,29.67,0,0,1,3.8,3.24c2.3,2.27,4.37,4.66,6.39,7.08,4,4.86,7.79,9.88,11.49,14.93Z"/><path class="cls-1" d="M115.66,60.12c0,.17,0,.17,0,.25a.18.18,0,0,0,.07.08l.06,0,.22,0a10.15,10.15,0,0,0,2.66-.26c.68-.15,1.34-.38,2-.59a27,27,0,0,0,6.84-3.07A11.11,11.11,0,0,0,130,54.41,10.53,10.53,0,0,0,131.8,51c.13-.35.75-.33,1.29.17a2.18,2.18,0,0,1,.44,2.53,11.75,11.75,0,0,1-3.35,3.9A19,19,0,0,1,126,60a53.73,53.73,0,0,1-5.38,2.13,19.14,19.14,0,0,1-3.17.64,8.25,8.25,0,0,1-1.73,0,2.46,2.46,0,0,1-2-1,3.73,3.73,0,0,1-.43-1.36,2.68,2.68,0,0,1,.2-1.33,3.66,3.66,0,0,1,1.68-1.69A13.65,13.65,0,0,1,118,56.39a17,17,0,0,0,2.59-1A5.61,5.61,0,0,0,123.4,53a1.18,1.18,0,0,0,.09-.54c0-.61-.11-.93.37-1.45.11-.12.19-.26.3-.37a.55.55,0,0,1,.7-.09,1.84,1.84,0,0,1,.45.35,3.55,3.55,0,0,1,.38.71,3.61,3.61,0,0,1-.34,2.87,6.2,6.2,0,0,1-1.75,1.9,15.4,15.4,0,0,1-4,2c-1.06.35-2,.58-2.74.92a4.55,4.55,0,0,0-.89.52c-.18.18-.19.22-.21.3Z"/><path class="cls-1" d="M164.73,108.74Q170.84,118,177.37,127c1.59,2.18,3.26,4.3,4.88,6.45,5.73,7.58,11.65,15,18.05,22.06a122.77,122.77,0,0,0,8.92,8.9c2,1.81,4.07,3.48,6.17,5.12a33.9,33.9,0,0,1,3.2,2.66,11.33,11.33,0,0,1,2.58,3.57c.36.9.22,1.39,0,1.41s-.7-.31-1.27-.77-1.34-1-2.27-1.66-2-1.38-3.23-2.3a104.42,104.42,0,0,1-12.43-11.24c-3.86-4-7.49-8.25-11-12.61-4.16-5.22-8.59-10.56-12.68-16q-6.75-9-13-18.31c-2.59-3.81-5.11-7.68-7.61-11.55-3.76-5.87-7.38-11.88-10.86-17.87-2.7-4.67-5.38-9.23-7.76-14-.54-1.05-1-2.1-1.53-3.19s-.76-1.89-1-2.61a16.64,16.64,0,0,1-.51-1.87A3.61,3.61,0,0,1,136,60.9a3,3,0,0,1,.31-.71c.22-.27.55,0,1,.7s.9,1.79,1.5,3.23c1.89,4.25,4.15,8.52,6.52,12.82s4.88,8.6,7.47,12.89c3.84,6.35,7.84,12.67,12,18.87Z"/><path class="cls-1" d="M112.77,42a4.8,4.8,0,0,1-.48,1.56,1.88,1.88,0,0,1-.81.71c-2.07,1.05-4.13,2.14-6.1,3.29-.84.49-1.67,1-2.42,1.5-.18.13-.36.26-.52.4l-.08,0s-.08.1,0,.14h0a.25.25,0,0,0,.13,0h.05a2.32,2.32,0,0,0,.24,0,3.67,3.67,0,0,0,.53-.09,14.74,14.74,0,0,0,2.29-.73c1.55-.63,3.09-1.4,4.64-2.18L113,45.3c.89-.45,1.79-.93,2.8-1.33a1.64,1.64,0,0,1,.53-.17c.54,0,.74.61.55,1.14,0,.12-.07.31-.14.33-.72.25-1,1.23-1.67,1.52A35.35,35.35,0,0,0,111.2,49a15.23,15.23,0,0,1-1.62.8c-.71.3-1.46.53-2.19.81-.3.11-.91.37-1.93.73a13,13,0,0,1-1.94.53,5.19,5.19,0,0,1-1.58.07,3.14,3.14,0,0,1-1-.28,2.9,2.9,0,0,1-.85-.67,2.42,2.42,0,0,1-.32-.62,1.75,1.75,0,0,1,0-.72,2.68,2.68,0,0,1,.79-1.43,6.77,6.77,0,0,1,1-.93c.31-.24.63-.47,1-.68a40.32,40.32,0,0,1,4-2.26c2.56-1.3,4.7-2.18,4.87-2.23A6,6,0,0,1,112.77,42Z"/><path class="cls-1" d="M105.94,53.54a3.36,3.36,0,0,1-.84-2.69c0-.21.11-.4.15-.6a2.8,2.8,0,0,1,.32-.52,3.86,3.86,0,0,1,.81-.78,11.94,11.94,0,0,1,1.29-.82c.48-.26.92-.57,1.41-.8,1.69-.79,3.4-1.42,5.09-2.1.75-.31,1.48-.67,2.18-1A12.46,12.46,0,0,1,119,42.9c.23,0,.62.43.68,1.11a1.79,1.79,0,0,1-.71,1.73,36.77,36.77,0,0,1-5.87,2.33,20.72,20.72,0,0,0-3.44,1.61c-1,.52-2.27,1.19-2.25,1.54a1.13,1.13,0,0,0,0,.26.56.56,0,0,0,.25.45,1.72,1.72,0,0,0,.86.21,10.45,10.45,0,0,0,3.62-.74,25.23,25.23,0,0,0,2.71-1.34c.2-.1.39-.22.61-.31.78-.34,1.26-.28,1.57.34a1.14,1.14,0,0,1,.14.43c0,.5,0,.87-.48,1.18a19,19,0,0,1-5.19,2.39,11.6,11.6,0,0,1-2.41.44,6.3,6.3,0,0,1-1.47-.07,3.52,3.52,0,0,1-1.76-.88Z"/><path class="cls-1" d="M416.13,179l.28,0c.09,0,.06,0,.08,0l.09,0a.34.34,0,0,0,.24,0c.19-.1.07-.3-.05-.45l0-.05-.16-.13-.36-.26-.76-.51a24.31,24.31,0,0,0-6-3,13.39,13.39,0,0,0-2.92-.59c-1.26-.12-2.49,0-3.7-.07-.38,0-.47-.64-.2-1.29a2.09,2.09,0,0,1,1.81-1.33,17.72,17.72,0,0,1,8.34,2.16,39.84,39.84,0,0,1,4.59,2.52c.2.14.4.3.59.46l.32.26c.14.12.27.26.4.39a3.7,3.7,0,0,1,1.07,1.71,1.73,1.73,0,0,1,0,.93,2.22,2.22,0,0,1-.52.79,3,3,0,0,1-1.77.76,5.19,5.19,0,0,1-1.25,0,8.23,8.23,0,0,1-.91-.15c-.59-.13-1.15-.29-1.71-.45-1.67-.51-3.26-1.16-4.87-1.64a20.17,20.17,0,0,0-3.74-.71c-.26,0-.52,0-.78,0-1-.06-1.18-.17-1.47-.79-.06-.15-.15-.28-.2-.43-.2-.46.26-1,1.18-1.08,2.7-.24,5.13.62,7.46,1.36a36.47,36.47,0,0,0,5,1.47Z"/><path class="cls-1" d="M413.66,178.85l.29.38a2.7,2.7,0,0,1,.42.65,1.76,1.76,0,0,1-.09,1.77,2.63,2.63,0,0,1-1.51,1,6.17,6.17,0,0,1-.89.21c-.25.05-1.23,0-1.33.05s-1.52-.16-1.78-.19c-.07,0-1-.15-2-.33s-1.93-.37-2.14-.36-1.9-.4-2.13-.36c-.07,0-.25-1-.11-1a3.85,3.85,0,0,1,1.25-.05c.6.09,2.59.22,2.67.22l1.19-.07.55,0c.51,0,1-.05,1.52-.1s.92-.16,1.35-.22l.46-.08.2,0,.1,0h0a.07.07,0,0,0,0-.05s-.07,0-.07,0h0s0,0,0-.1.2-.4.46-.8a1.17,1.17,0,0,1,.74-.49A1.27,1.27,0,0,1,413.66,178.85Z"/><path class="cls-1" d="M179.69,110.43a20.72,20.72,0,0,0-1.17,2c-.12.26-.18.55-.3.8a24.36,24.36,0,0,0-1.24,2.82,5,5,0,0,0-.22,1.32,3.54,3.54,0,0,1-.16,1.6c-.09.15-.77.21-1.45.06s-1.33-.52-1.31-.94a8.15,8.15,0,0,1,1.16-3.85,16.77,16.77,0,0,0,.87-2.2,25.09,25.09,0,0,1,1.18-2.31c.27-.47.56-.92.85-1.37a25,25,0,0,1,1.51-2,5.6,5.6,0,0,1,1.61-1.56,2,2,0,0,1,.58-.24c.83-.15,1.12.19,1,.89a4,4,0,0,1-.08.48,8,8,0,0,1-.49,1.09,2.12,2.12,0,0,1-.37.66c-.2.26-.47.58-.73,1a18,18,0,0,0-1.21,1.82Z"/><path class="cls-1" d="M373.06,171c-9.34-.07-18.65-.37-28-.75-3.4-.13-6.8-.22-10.19-.39q-9-.48-17.93-1.1c-3-.22-6-.43-9-.69s-6-.55-9-1.06c-5.28-.88-10.53-2-15.65-3.34-3.3-.85-6.58-1.74-9.84-2.76a77,77,0,0,1-9.61-3.61c-.94-.44-1.51-1.12-1.23-1.25a1.3,1.3,0,0,1,.65-.1,8.83,8.83,0,0,1,1.14,0,37,37,0,0,1,8.78,1.79c6.52,2.09,13.13,3.93,19.81,5.39,3.34.73,6.7,1.38,10.07,1.81s6.85.71,10.31,1c8.28.74,17,1,25.45,1.42,9.35.42,18.71.76,28.07.9,2.88,0,5.76.08,8.64.06s5.75,0,8.63-.11c2.18,0,4.34-.18,6.52-.26,1.09,0,2.17-.16,3.25-.24s2.17-.15,3.24-.3l3.19-.45a24.18,24.18,0,0,1,3.37-.33c2.22-.07,4.41,0,6.6.12l2.33.17c1,.08,2.15.21,3.16.36a12.66,12.66,0,0,1,2.66.64,4.06,4.06,0,0,1,1.56,1,.72.72,0,0,1-.13.63,4.31,4.31,0,0,1-.32.4,5.2,5.2,0,0,1-.93.67,13.51,13.51,0,0,1-3.28,1.18c-.66.17-1.35.33-2.05.48l-1.5.31c-.91.17-1.82.34-2.74.49-1.46.25-2.89.49-4.37.67-5.51.63-7.32.42-8.51-.25a4.55,4.55,0,0,1-.79-.48c-.51-.56,1.68-1,5.62-1.43,3-.37,6.05-.84,9.09-1.41l2.28-.45.21-.09c.09-.06.15-.08.1-.15a.86.86,0,0,0-.27,0h-.2l-2.16-.16c-1.49-.08-3-.13-4.46-.14a28.54,28.54,0,0,0-4.25.26l-3.56.52c-1.21.21-2.38.23-3.57.36-2.38.24-4.74.31-7.11.43-4.73.19-9.45.23-14.16.24Z"/><path class="cls-1" d="M404,188.17a1.69,1.69,0,0,1-.22.55,1,1,0,0,1-.42.37l-1.13.37-1.71-.12c-.63-.11-1.3-.29-1.93-.43-.47-.12-1-.36-1.48-.52l-.74-.28a2.62,2.62,0,0,1-.53-.26,14.2,14.2,0,0,1-1.55-1,16.31,16.31,0,0,1-1.39-1,28.21,28.21,0,0,1-2.51-2.37c-.68-.74-1.4-1.46-2.06-2.23a8.08,8.08,0,0,1-2.09-3.41c-.1-.45.53-.54,1.21-.48a2.34,2.34,0,0,1,1.75.75,39.78,39.78,0,0,0,4.55,5.49,8.91,8.91,0,0,0,1.74,1.37,7,7,0,0,0,.93.54l.75.4a5.9,5.9,0,0,0,2.22.71c.13,0,.35,0,.33-.14a.6.6,0,0,0-.14-.26,5.41,5.41,0,0,0-.48-.48l-2.48-2.19a15,15,0,0,1-2.77-2.85,4.62,4.62,0,0,1-.48-.88,2.06,2.06,0,0,1-.06-1.48.78.78,0,0,1,.74-.48,1.71,1.71,0,0,1,.45,0,1.07,1.07,0,0,1,.58.37,2.63,2.63,0,0,1,.35.52,7.92,7.92,0,0,0,1.61,2c.36.36.76.71,1.15,1.07l1.36,1.17a47.3,47.3,0,0,1,3.76,3.19l.3.35a3.1,3.1,0,0,1,.43.86,2.19,2.19,0,0,1,0,.84Z"/><path class="cls-1" d="M341,183l-16.29.36c-2,.05-4,.17-5.95.21-7,.11-14,.25-21,.18-3.13-.06-6.28-.19-9.38-.48a58.17,58.17,0,0,1-6-.86,29.48,29.48,0,0,1-2.94-.76c-1-.29-1.94-.68-2.78-1-.55-.17-.34-.31-.48-.59a.46.46,0,0,1,.11-.45,1.73,1.73,0,0,1,.72-.36,12,12,0,0,1,5.33.15A72.11,72.11,0,0,0,294,180.88c3.95.24,8,.23,12,.3,4.86.08,9.92-.23,14.89-.36l16.41-.41,10.1-.25c5.1-.15,10.23-.24,15.29-.42,3.94-.14,7.79-.43,11.69-.58.86,0,1.7-.1,2.57-.11,3.22,0,4.3.22,4.93,1a3,3,0,0,1,.42.5c.23.59-1.05.92-3.35,1-6.89.42-14.22.73-21.57,1L341,183Z"/><path class="cls-1" d="M268.48,218c.25-2.8.55-5.6.85-8.4.12-1,.17-2,.29-3.06.48-3.59,1-7.17,1.73-10.73l.43-2.38c.16-.8.31-1.59.47-2.38a19,19,0,0,1,1.87-6c.32-.59.83-.22,1.19.52a3.94,3.94,0,0,1,.38,1.31,4.35,4.35,0,0,1-.14,1.53c-1.1,3.81-1.86,7.86-2.72,11.94a34.89,34.89,0,0,0-.57,3.75c-.14,1.27-.27,2.55-.4,3.82q-.48,4.19-.86,8.39c-.16,1.73-.31,3.46-.43,5.19-.18,2.61-.38,5.25-.46,7.85-.07,2,0,4,0,6,0,.45,0,.88,0,1.33,0,1.65-.26,2.21-.92,2.5a2.16,2.16,0,0,1-.45.19c-.51.1-.85-.59-.93-1.77a99,99,0,0,1,0-11.16c.13-2.82.34-5.66.55-8.48Z"/><path class="cls-1" d="M220.1,210.19c0-1.84,0-3.69.05-5.53s.07-3.69.16-5.53c.07-1.34,0-2.69.12-4,.35-4.74.8-9.46,1.53-14.15.15-1,.28-2.08.41-3.13s.32-2.08.47-3.11a41,41,0,0,1,1.65-7.9c.53-1.59,2.57,1.11,1.95,4-.13.66-.29,1.31-.41,2l-.34,2-.71,4c-.38,2.66-.89,5.32-1.25,8a93,93,0,0,0-.74,9.95c-.06,1.83-.16,3.66-.2,5.5s-.08,3.67-.07,5.51c0,2.26,0,4.53.09,6.79.1,3.43.25,6.87.54,10.26.23,2.64.65,5.21,1,7.81.08.57.19,1.13.25,1.71.24,2.14.11,2.92-.6,3.42a2.45,2.45,0,0,1-.48.29c-.27.09-.53-.1-.74-.45a5.5,5.5,0,0,1-.55-1.69,118.49,118.49,0,0,1-1.78-14.53c-.23-3.7-.37-7.42-.43-11.14Z"/><path class="cls-1" d="M240.69,450c-2.15-11.59-3.82-23.22-5.34-34.87-.56-4.25-1.16-8.49-1.66-12.74q-1.31-11.25-2.42-22.51l-1.08-11.27-.52-5.63a50.16,50.16,0,0,0-.72-5.52c-1.24-6.52-2.89-13.06-4.35-19.55-.94-4.17-1.89-8.34-2.65-12.58-.37-2.12-.71-4.25-.94-6.4-.14-1.07-.17-2.17-.25-3.25s0-2.19,0-3.3c.35-2.85,1-2.19,1.45,0s1.54,6.14,2.36,10.93c1.43,8.49,3.44,16.95,5.3,25.48.46,2.14.93,4.27,1.34,6.44.22,1.08.41,2.19.59,3.29s.31,2.31.39,3.37q.56,6.52,1.11,13.08c.89,10.46,2.26,21.3,3.58,31.95,1.46,11.71,3.06,23.41,5,35,1.23,7.15,2.54,14.3,4.3,21.31.34,1.32.69,2.64,1.09,3.93a18.08,18.08,0,0,0,.65,1.85c.42-.13-.84.86-1.44.48V469l0-1.06a64.58,64.58,0,0,1,.94-8.32,35,35,0,0,1,1-4.11,11.18,11.18,0,0,1,2-4,3.1,3.1,0,0,1,2.4-1.15,3.22,3.22,0,0,1,1.3.36,4.91,4.91,0,0,1,1,.65,6.69,6.69,0,0,1,2.25,4,20.29,20.29,0,0,1,0,6.6c-.28,2.13-.7,4.2-1.08,6.25-.18,1-.36,2-.46,3a8.84,8.84,0,0,0-.07,1.44l.07,1.55a38.18,38.18,0,0,1-.19,6.48c-.1.5-.15,1-.3,1.48a5.3,5.3,0,0,1-.24.78,3.61,3.61,0,0,1-.41.85,2.88,2.88,0,0,1-1.63,1.4,2.67,2.67,0,0,1-2.14-.32,4.49,4.49,0,0,1-.81-.57c-.18-.17-.36-.34-.52-.52a9.79,9.79,0,0,1-.8-1,14,14,0,0,1-1.08-1.87,13.72,13.72,0,0,1-1.06-3,5.58,5.58,0,0,1,.08-3.51,3.22,3.22,0,0,1,.55-1c.16-.13.28-.05.37.19s.17.63.32,1.19a21.13,21.13,0,0,0,2,5,10.49,10.49,0,0,0,1.42,2.07,3.35,3.35,0,0,0,.66.61.36.36,0,0,0,.3,0,.37.37,0,0,0,.2-.21l.12-.34a3.88,3.88,0,0,0,.15-.53,14.25,14.25,0,0,0,.35-2.56,49.75,49.75,0,0,0,0-5.59,26.13,26.13,0,0,1,.69-6.19c.37-1.93.76-3.83,1-5.69a17.74,17.74,0,0,0,.08-5.33,5.19,5.19,0,0,0-.77-2,3.23,3.23,0,0,0-.65-.68,2.75,2.75,0,0,0-.4-.26c-.07-.06-.1,0-.14-.07s-.1-.06-.11,0,0,0-.11,0-.11.09-.18.13a3.64,3.64,0,0,0-.28.34,8.36,8.36,0,0,0-1,2.18,40.26,40.26,0,0,0-1.64,8.27c-.16,1.43-.28,2.87-.33,4.29,0,.35,0,.7,0,1v.36a2.44,2.44,0,0,1,0,.27V470a1.66,1.66,0,0,1,0,.19,1.85,1.85,0,0,1-.52.86,1.68,1.68,0,0,1-.93.48,2,2,0,0,1-1.37-.3.93.93,0,0,1-.17-.14l-.06-.05-.11-.13a1.63,1.63,0,0,1-.23-.31,5.3,5.3,0,0,1-.37-.78c-.3-.79-.52-1.51-.75-2.25-1.69-5.82-2.86-11.64-4-17.49Z"/><path class="cls-1" d="M249.11,400c-.31-6.17-.81-12.34-1.58-18.47-.31-2.23-.68-4.45-1-6.67-.14-1-.32-1.95-.5-2.92s-.35-1.95-.57-2.9l-.31-1.46a14,14,0,0,1-.25-1.63c-.1-1.05-.14-2.09-.14-3.11,0-4.08.36-8.07.7-12.07.31-3.54.61-7.1.87-10.61.14-2.25.29-4.5.43-6.76s.32-4.52.32-6.61c0-.62.09-.76.35-.89s.69.1,1.09.72a10.87,10.87,0,0,1,1.22,6.16c-.58,9.29-1.83,18.42-2.42,27.6a40.08,40.08,0,0,0,0,4.1,17.69,17.69,0,0,0,.2,2c.1.56.29,1.32.45,2,.66,2.83,1.16,5.68,1.61,8.51.93,6.24,1.56,12.5,2,18.77l.34,5.79.22,5.8c.16,5.86.08,11.74-.08,17.55-.19,4.52-.29,9-.74,13.43-.09,1-.18,1.95-.28,2.94-.52,3.67-1,4.8-1.77,5.44a2.82,2.82,0,0,1-.56.42c-.6.24-.79-1.31-.5-3.95.79-7.84,1.29-16.13,1.37-24.49,0-6.21-.09-12.45-.45-18.68Z"/><path class="cls-1" d="M344,467.35q.23,1.31.39,2.64c.05.45.1.9.13,1.38q0,.35,0,.75c0,.26,0,.48,0,.73a9.88,9.88,0,0,1-.19,1.51c0,.15-.06.29-.1.45l-.19.54a4.23,4.23,0,0,1-.54,1,2.59,2.59,0,0,1-1.85,1,3.84,3.84,0,0,1-2.09-.58,8,8,0,0,1-1-.71c-.28-.23-.54-.46-.79-.7a14.47,14.47,0,0,1-1.37-1.47,65.72,65.72,0,0,1-7-11.57c-.88-1.78-1.77-3.57-2.59-5.37-.53-1.16-1.05-2.33-1.48-3.55a12,12,0,0,1-.76-3.92c0-.92.74-.7,1.44-.13a5.73,5.73,0,0,1,2,2.72,71.73,71.73,0,0,0,2.76,6.86q1.56,3.42,3.3,6.8a34.88,34.88,0,0,0,5.26,7.45,10.84,10.84,0,0,0,.85.82,4.58,4.58,0,0,0,.43.34l.26.18a.74.74,0,0,0,.46.12.54.54,0,0,0,.36-.3,5.45,5.45,0,0,0,.29-1.86,13.59,13.59,0,0,0-.17-2.41c-.28-2.07-.7-4.15-1.18-6.2a73.13,73.13,0,0,0-2.69-9.2,35.5,35.5,0,0,0-3.25-6.46c-.28-.44-.58-.84-.88-1.25-1.12-1.51-1.4-1.84-1.29-2.67a5.46,5.46,0,0,1,0-.57c.06-.29.32-.41.79-.32a3.56,3.56,0,0,1,1.68,1,21.32,21.32,0,0,1,3.94,6,54.15,54.15,0,0,1,2.56,6.66,90.36,90.36,0,0,1,2.58,10.28Z"/><path class="cls-1" d="M241.38,174.44c1.31-.53,1.83-.18,2,.17a32.83,32.83,0,0,1,1.58,3.53c.2.46.38.91.59,1.3a2.36,2.36,0,0,0,.75.93,2.61,2.61,0,0,0,.2.17l.19.1a.64.64,0,0,0,.31.11.49.49,0,0,0,.44-.16,6.89,6.89,0,0,0,1.37-1.92c.3-.49.59-1,.88-1.49a8.68,8.68,0,0,1,1.11-1.58c.09-.09.17-.22.3-.25.38-.09.72.43.84.93,0,.11.1.28.08.3s-.14.39-.09.66.09.48,0,.63a8.89,8.89,0,0,0-1,2.1,4.53,4.53,0,0,1-.54.88,3.8,3.8,0,0,1-.47.53c-.17.17-.34.34-.55.52-.06.07-.16.16-.27.27s-.34.25-.55.4a3.08,3.08,0,0,1-.91.37,2.57,2.57,0,0,1-1.2,0,3.34,3.34,0,0,1-1.09-.47c-.32-.2-.57-.44-.87-.67a6.43,6.43,0,0,1-1.31-1.87,34.08,34.08,0,0,1-1.28-3.35,14.78,14.78,0,0,0-.56-1.41A4.88,4.88,0,0,1,241.38,174.44Z"/><path class="cls-1" d="M241.12,188.77c1.13-.12,1.49.25,1.62.57.44,1.12.8,2.22,1.24,3.17.18.4.36.78.52,1.07a2.49,2.49,0,0,0,.23.3s0,0,.06.06l.1,0c.19.09.78-.18,1.29-.7a12,12,0,0,0,1.49-1.82c.27-.4.56-.81.81-1.24s.44-.86.67-1.32c0-.07,0-.18.15-.22s.79.2,1.1.59c.07.09.19.22.17.25-.18.33.35,1,.12,1.34-.42.61-.65,1.37-1,2.07a3.39,3.39,0,0,1-.56.76c-.28.3-.63.56-.94.84a7.53,7.53,0,0,1-1.92,1.42,3,3,0,0,1-2.43,0,3.68,3.68,0,0,1-1.59-1.78,15.39,15.39,0,0,1-.95-3.27c-.16-.83-.27-1.39-.29-1.46A4.4,4.4,0,0,1,241.12,188.77Z"/><path class="cls-1" d="M251.36,94.94c-.24-.2-.17-.55.08-.94.07-.12.42-.3.51-.25s.36.15.52.24.36.33.73.63.68.71.88.89a14.42,14.42,0,0,1,1,1.07,7.59,7.59,0,0,0,2.09,1.7c.15,0,.3.19.42.23a.88.88,0,0,0,1.19-.1.36.36,0,0,0,.14-.24.89.89,0,0,1,.13-.22s0,0,0,0,0-.2,0-.35c0-.31-.08-.65-.08-.74a9.44,9.44,0,0,0-.28-2c0-.09-.08-.18,0-.29a.82.82,0,0,0-.08-.66,7.83,7.83,0,0,1-.27-.86,1.62,1.62,0,0,1,0-.49c0-.15.3-.24.35-.21s.22-.09.32-.16a.41.41,0,0,1,.11-.07,8.47,8.47,0,0,1,1.4,1.62s.08.17.2.41.25.57.39.92a13.73,13.73,0,0,1,.56,1.65,1.79,1.79,0,0,1,0,.57,4.66,4.66,0,0,1,0,.73,1.45,1.45,0,0,1,0,.35l-.09.43a3.89,3.89,0,0,1-.34.77c-.48.56-.7.8-.74.84-.27.18-.54.37-.82.53a2.2,2.2,0,0,1-1,.2c-.13,0-.26,0-.39,0a4.17,4.17,0,0,1-2.8-.87,12.56,12.56,0,0,1-1.06-.77,1.22,1.22,0,0,1-.15-.17,1.32,1.32,0,0,0-.18-.22A27.14,27.14,0,0,1,252.19,97c-.15-.16-.57-1.11-.72-1.3S251.45,95,251.36,94.94Z"/><path class="cls-1" d="M267.25,93.9c-.19-.22,0-.52.28-.83a.82.82,0,0,1,.56-.16,4.78,4.78,0,0,1,.44.29l.56.64c.23.33.5.68.64.85s.51.66.75,1a4.27,4.27,0,0,0,.76.77,2.2,2.2,0,0,0,.71.33c.1,0,.18.06.28.07l.16,0h.18a.72.72,0,0,0,.19,0c.05,0,0,0,0,0a.08.08,0,0,0,.05-.11s0,0-.06-.06a5.94,5.94,0,0,1-.18-.93c-.08-.5-.18-1-.18-1.16,0-.63-.06-1.29-.08-2,0-.09-.05-.19,0-.29a.81.81,0,0,0,.07-.64,4,4,0,0,1,0-.91,1.23,1.23,0,0,1,.25-.46c.09-.13.38,0,.41,0s.23,0,.35,0h.13s.16.33.34.69.38.73.39.81.16.57.33,1.14l.41,1.35a1.29,1.29,0,0,1,0,.44s.13.52.24,1.06a6,6,0,0,1,.09.83,2.68,2.68,0,0,1,0,.63c0,.16-.09.31-.13.47s-.14.28-.21.43-.21.23-.32.35l-.09.07s0,0,0,.06l-.05,0-.2.13L274,99a.85.85,0,0,0-.22.09l-.14.07a3.5,3.5,0,0,1-2.82,0c-.22-.09-.42-.2-.63-.3s-.38-.23-.56-.35a.84.84,0,0,1-.15-.18c-.07-.07-.12-.15-.19-.21a11.46,11.46,0,0,1-1.68-2.16c-.13-.17-.35-1.11-.46-1.3S267.33,94,267.25,93.9Z"/><path class="cls-1" d="M264.16,96.36a14.77,14.77,0,0,1-.62-6.12c.13-.74.24-1.48.4-2.21l.74-1.81a8.64,8.64,0,0,1,1-1.75,9.69,9.69,0,0,1,3.05-2.55,10.55,10.55,0,0,1,3.31-1.17,6.29,6.29,0,0,1,4.42.66c.41.25.06.77-.49,1.2a2.71,2.71,0,0,1-1.83.7,7.63,7.63,0,0,0-6.19,2,4.6,4.6,0,0,0-1.2,1.8,13,13,0,0,0-.69,2.23,10.52,10.52,0,0,0,0,5.11l.19.78c.08.26.19.51.28.77l.29.76.37.74a17.47,17.47,0,0,0,2.89,4.13,21.74,21.74,0,0,0,3,2.5c.23.18.47.33.7.51.85.66,1.06,1.05.8,1.69a1.81,1.81,0,0,1-.2.42.81.81,0,0,1-.62.32,1.7,1.7,0,0,1-.91-.27,20.05,20.05,0,0,1-5.79-5.08,18.53,18.53,0,0,1-3-5.33Z"/><path class="cls-1" d="M249.53,84a15.28,15.28,0,0,1,2.83-.73,8.85,8.85,0,0,1,1-.18,11.91,11.91,0,0,1,1.89,0,14,14,0,0,1,1.84.39,7.16,7.16,0,0,0,.8.19l.78.23a3.48,3.48,0,0,1,1.88.92c.28.33-1.42,2.06-1.92,1.82a33,33,0,0,0-3.11-1.22,4.83,4.83,0,0,0-2.14,0A13.51,13.51,0,0,0,251,86a12.67,12.67,0,0,0-1.44.57,10,10,0,0,0-2,1.21,7.2,7.2,0,0,0-1.16,1.38c-.08.11-.13.23-.21.33-.3.36-.48.36-1.06,0-.13-.07-.27-.14-.39-.22a.87.87,0,0,1-.42-1.12,6.9,6.9,0,0,1,2.6-2.86,14.23,14.23,0,0,1,2.6-1.35Z"/><path class="cls-1" d="M270.35,115.73c-.07,0,0,0-.14,0a.8.8,0,0,0-.29.2l-.06,0s0,0,0,0V116s0,0,0,0a.87.87,0,0,0,.08-.14c0-.09,0-.08.07-.14l0-.08a.92.92,0,0,0,.05.13.21.21,0,0,0-.2-.06s0,0,0,0-.1,0-.05,0a.73.73,0,0,0,.13-.09c.08-.07,0,0,0,0s0,.06,0,.14a5.77,5.77,0,0,1-.72,1.26c-.41.52-1,.94-1.38.6a2.48,2.48,0,0,1-.66-2.32,2.23,2.23,0,0,1,1.3-1.53,6.44,6.44,0,0,1,1.07-.37,2.08,2.08,0,0,1,1.16.07,2.37,2.37,0,0,1,.89.65c.1.13.2.25.29.39l.23.5a2,2,0,0,1-.08,1.38,3,3,0,0,1-1.11,1.21,5.69,5.69,0,0,1-.55.39,1.36,1.36,0,0,1-1.06.16,1.51,1.51,0,0,1-.71-.42,1.3,1.3,0,0,1-.25-.56.34.34,0,0,1,.08-.31,1,1,0,0,1,.7-.23h.48c.28,0,.53.07.73.07a.83.83,0,0,0-.38,0,.11.11,0,0,0-.09,0s-.07.06,0,0,0,0,.05-.14a.2.2,0,0,0,0-.13.67.67,0,0,0,0-.2c0-.13-.05-.26-.08-.39a2.19,2.19,0,0,0-.24-.54l0,0,0,0a1.34,1.34,0,0,0,.45.32.7.7,0,0,0,.23.08Z"/><path class="cls-1" d="M279.54,356.58c-.87-1.58-1.7-3.17-2.52-4.77s-1.65-3.18-2.44-4.79c-.59-1.17-1.26-2.3-1.82-3.48-2-4.15-3.89-8.35-5.8-12.54-.84-1.86-1.75-3.7-2.66-5.5L262.52,322c-.57-1.13-1.15-2.39-1.58-3.4-.15-.44.18-1.11,1.18-.84a5,5,0,0,1,2.83,2.53c2.36,4.8,4.49,9.61,6.53,14.56,1.22,3,2.83,5.86,4.29,8.78q2.42,4.81,4.93,9.57c1.07,1.93,2.1,3.89,3.21,5.79l2.53,4.34c.88,1.42,1.76,2.84,2.67,4.23,1.43,2.14,3,4.13,4.55,6.15.35.44.71.85,1,1.3,1.26,1.67,1.51,2.31,1.2,3.1a3.38,3.38,0,0,1-.21.54c-.32.49-1.19.07-2.23-1.1-.78-.86-1.54-1.75-2.29-2.67s-1.44-1.89-2.15-2.86c-1.43-1.93-2.74-4-4-6-1.92-3.07-3.74-6.22-5.5-9.39Z"/><path class="cls-1" d="M318.72,402.4c4.79,12,9.46,24,13.58,36.32,1.49,4.49,3,9,4.09,13.64.24,1,.46,2.07.64,3.13.09.52.17,1.06.24,1.6l0,.41,0,.22,0,.31a10.71,10.71,0,0,1,0,1.27,5.8,5.8,0,0,1-.12,1.22,4,4,0,0,1-.3,1.05,2.61,2.61,0,0,1-1.32,1.36,2.5,2.5,0,0,1-1,.14,2.25,2.25,0,0,1-.72-.34,4.75,4.75,0,0,1-1.52-1.65c-1.1-1.64-1.41-2.23-2-3.19l-1.58-2.7-3.06-5.44c-4-7.27-7.9-14.61-11.7-22-3.36-6.56-6.73-13.16-9.94-19.73-2.05-4.23-4.1-8.47-6-12.79a102.52,102.52,0,0,1-4.95-13.31c-.72-2.91.07-2.64,1.37-.47a90.11,90.11,0,0,1,5.6,11.05c3.76,8.74,7.94,17.33,12.19,25.91S321,435.52,325.51,444c1.34,2.55,2.74,5.1,4.18,7.65.74,1.26,1.47,2.53,2.21,3.8l1.13,1.89.82,1.31a4.73,4.73,0,0,0,.43.57.28.28,0,0,0,.32-.05.67.67,0,0,0,.15-.32,2.58,2.58,0,0,0,0-.74l0-.27-.06-.52c0-.35-.11-.7-.16-1.05a78.36,78.36,0,0,0-2.08-8.49c-1.8-6.19-3.94-12.31-6.14-18.41s-4.54-12.16-6.91-18.2q-4.39-11.15-9-22.21-1.75-4.19-3.53-8.37l-.88-2.09c-.29-.72-.59-1.45-.83-2.18-.51-1.46-.94-2.92-1.36-4.39-1.63-5.87-3-11.77-4.38-17.62-2.17-9.08-4.38-18-7-26.79-.58-1.94-1.2-3.82-1.84-5.74-1.19-3.57-2.11-5.84-2.75-7.4a34.62,34.62,0,0,1-1.25-3.23c-.09-.41-.4-.76-.48-1.06s0-.32.34-.23a4.16,4.16,0,0,1,.64.28,7.74,7.74,0,0,1,.77.62,18,18,0,0,1,3.46,5.65,114.68,114.68,0,0,1,4.16,12c1.2,4.08,2.3,8.23,3.35,12.41,2.11,8.36,4,16.88,6.15,25.31.81,3.11,1.62,6.25,2.64,9.21.26.76.53,1.44.83,2.16l1,2.25,1.91,4.5q3.79,9,7.47,18.08Z"/><path class="cls-1" d="M264.91,319.06a10.55,10.55,0,0,0-4.26,2.2,15.68,15.68,0,0,1-5.08,2.65,16.65,16.65,0,0,1-2.12.46,13.6,13.6,0,0,1-2.11.06,36.86,36.86,0,0,1-7-1.21c-2.25-.57-4.46-1.19-6.68-1.73a45.08,45.08,0,0,0-5.94-1.05,35.69,35.69,0,0,0-7.53.14c-.77.06-.82-.49-.25-1.14a4.73,4.73,0,0,1,1.34-1,6.54,6.54,0,0,1,2.12-.5c5.67-.14,10.92,1.45,16,2.93a29.27,29.27,0,0,0,9.36,1.41,10.78,10.78,0,0,0,4.71-1.45c1.46-.8,2.78-2.08,4.53-3a11.9,11.9,0,0,1,6.93-1c3.48.53,6.58,1.95,9.78,2.63a13.67,13.67,0,0,0,7.22-.14c.48-.2,1-.37,1.43-.59.85-.47,1.44-.72,1.85-.93a1.57,1.57,0,0,1,1.11-.11,4.71,4.71,0,0,1,.48.13c.44.2,0,1.05-1.34,2.07a12,12,0,0,1-7.31,2.1,27.81,27.81,0,0,1-7.43-1.44c-1.73-.53-3.42-1.08-5.06-1.42a10.63,10.63,0,0,0-4.76,0Z"/><path class="cls-1" d="M268.8,239.89c-26.52,14.58-42.1-.57-46.1-2-2.71,1.83-60.69,22.89-66.33,40.57-2,6.19-.3,12.64,22.85,14.73,5.36.48-.76,15.64,24.63,12.23,5.77-.78,7.16,16.1,29.8,11.83,4.94-.93,11.17,3,15.89,3.59,12,1.52,10.6-10.16,25.68-2.9,8.43,4.05,19.16-3.48,24.38-12.06,2.36-3.89,9.11-.39,13.59-.67,17.19-1.06,7.51-17.9,19.89-19s27.5-4.59,14.4-16.88C316.8,240.45,270.54,239.92,268.8,239.89Z"/><path class="cls-1" d="M288.71,318.42a17.9,17.9,0,0,1-9.31,2.18,13.17,13.17,0,0,1-4.83-1.24,36.58,36.58,0,0,0-3.86-1.55c-.33-.1-.65-.23-1-.3l-1-.2a9,9,0,0,0-1.91-.21,7.81,7.81,0,0,0-3.58.77,36.81,36.81,0,0,0-3.63,2.15,16.65,16.65,0,0,1-4.41,2,12.76,12.76,0,0,1-2.44.38c-.41,0-.82.06-1.22.07l-1.2-.08A12.85,12.85,0,0,1,248,322a21.1,21.1,0,0,1-2.25-.63,80.75,80.75,0,0,0-8.22-2.63,9.73,9.73,0,0,0-3.83-.11,42.42,42.42,0,0,1-4.51.57,27.14,27.14,0,0,1-9.21-.82,20.14,20.14,0,0,1-6.19-2.94,28.42,28.42,0,0,1-4.93-4.59c-.72-.83-1.4-1.65-2.08-2.4a6.47,6.47,0,0,0-2-1.62,1.67,1.67,0,0,0-.88-.1l-1.62.19c-1.09.12-2.19.2-3.29.25a33.24,33.24,0,0,1-5.88-.22,17.74,17.74,0,0,1-5.84-1.7,12.19,12.19,0,0,1-2.61-1.81,11.52,11.52,0,0,1-2-2.46,37,37,0,0,1-2.32-5.32,3.77,3.77,0,0,0-.53-.91,1,1,0,0,0-.52-.34l-.17,0-.34,0-.71-.08-1.42-.16c-1.9-.18-3.79-.51-5.68-.82a35.4,35.4,0,0,1-11.1-3.57,10.38,10.38,0,0,1-4.45-4.38,9,9,0,0,1-.39-6.29,18.08,18.08,0,0,1,1.07-2.87,20.55,20.55,0,0,1,1.6-2.54,31.85,31.85,0,0,1,3.9-4.36c5.7-5.23,12.24-9.17,18.85-12.86a386.6,386.6,0,0,1,36.4-17.09l2.74-1.17,1.35-.6.71-.33c.36-.17.69-.35,1-.53l1,.47c.16.07.36.16.48.23l.31.18,1.24.74c.81.5,1.61,1,2.41,1.44a44.69,44.69,0,0,0,4.95,2.46,35.79,35.79,0,0,0,10.6,2.69,41,41,0,0,0,10.93-.7c.89-.19,1.77-.47,2.67-.69a20.55,20.55,0,0,0,2.64-.8,48.42,48.42,0,0,0,5.15-2c4.71-2.23,4.48-1.35.71,1.26-.48.33-1,.69-1.59,1.05l-2,1-2.3,1.13c-.84.33-1.74.63-2.69,1a35.76,35.76,0,0,1-6.31,1.54l-3.59.31c-1.23,0-2.5,0-3.79-.09A38.82,38.82,0,0,1,232,244.93a46.55,46.55,0,0,1-5.28-2.66l-4-2.39-.41.19-1.2.53-2.37,1-4.72,2q-4.7,2-9.36,4c-6.22,2.74-12.38,5.62-18.4,8.73a142.69,142.69,0,0,0-17.39,10.4,49.62,49.62,0,0,0-7.53,6.5,20.63,20.63,0,0,0-1.54,1.87,15.15,15.15,0,0,0-1.28,2,6.15,6.15,0,0,0-.49,1,7.16,7.16,0,0,0-.4,1.07,9.23,9.23,0,0,0-.29,1.12,6.07,6.07,0,0,0-.15,1.09,5.44,5.44,0,0,0,.58,3.08,4.83,4.83,0,0,0,.44.67,2.44,2.44,0,0,0,.53.63,6.79,6.79,0,0,0,.6.6l.7.53a22.29,22.29,0,0,0,6.88,2.94,61.25,61.25,0,0,0,7.72,1.51c1.31.19,2.64.3,4,.46l.49.05.26,0,.37.06a3.42,3.42,0,0,1,1.43.64,5.28,5.28,0,0,1,1.53,2.11c.59,1.37.95,2.61,1.5,3.74a9.47,9.47,0,0,0,2,2.94,12,12,0,0,0,6.6,2.93,34.81,34.81,0,0,0,7.78.14c.65,0,1.31-.11,2-.19l1-.11c.13,0,.43,0,.66-.05a3.5,3.5,0,0,1,.72.06,5.31,5.31,0,0,1,2.34,1.15,12.87,12.87,0,0,1,1.58,1.54,39.65,39.65,0,0,0,6,6.18,17.52,17.52,0,0,0,7.56,3.28,27.6,27.6,0,0,0,8.47.15c.71-.06,1.42-.22,2.13-.32.33-.06.75-.11,1.17-.16a10.4,10.4,0,0,1,1.24-.06,17.09,17.09,0,0,1,4.65.81c2.93.84,5.66,2.08,8.37,2.73a12.65,12.65,0,0,0,8-.66,30.92,30.92,0,0,0,3.71-2.17,13.41,13.41,0,0,1,4.35-1.92,11.75,11.75,0,0,1,4.8,0l1.16.23c.38.1.73.24,1.1.35a17.36,17.36,0,0,1,2.16.79l1.29.57.64.28.58.23a10.22,10.22,0,0,0,1.17.42l1.22.27a13.48,13.48,0,0,0,5-.3,23.36,23.36,0,0,0,9.08-5,32.94,32.94,0,0,0,3.68-3.79c.57-.67,1.09-1.39,1.6-2.11l.73-1.11c.1-.16.28-.4.45-.63a3.1,3.1,0,0,1,.58-.62,5.11,5.11,0,0,1,3-1.18,14.15,14.15,0,0,1,2.93.12c1.86.27,3.63.71,5.36.93a11.36,11.36,0,0,0,1.91.11c.64,0,1.32-.09,2-.18a13.34,13.34,0,0,0,3.72-1,8.32,8.32,0,0,0,3-2.23,10.66,10.66,0,0,0,1.86-3.34c1-2.46,1.29-5.26,2.68-7.92a7.45,7.45,0,0,1,3.19-3.24,11.07,11.07,0,0,1,4.28-1.07,70.2,70.2,0,0,0,8.08-1.18,23.46,23.46,0,0,0,7.44-2.7,5.68,5.68,0,0,0,2.38-2.64,4.54,4.54,0,0,0-.28-3.41,19.19,19.19,0,0,0-4.93-6.07,92.12,92.12,0,0,0-20.62-14.12,123.79,123.79,0,0,0-23.28-8.86c-3.53-1-7-1.75-10.67-2.47-6.74-1.31-11.23-1.84-14.37-2.3a44.86,44.86,0,0,1-6.42-1.18c-.67-.2-1.55-.38-1.94-.55-1.34-.53,4.4-1.15,14.55.1a141,141,0,0,1,22.53,4.67A118.85,118.85,0,0,1,328,253.33a94.81,94.81,0,0,1,10.25,6.18,85.85,85.85,0,0,1,9.47,7.47,29,29,0,0,1,4.34,4.55,14.53,14.53,0,0,1,1.72,3,7.64,7.64,0,0,1,.55,3.83,6.64,6.64,0,0,1-1.75,3.62,10.83,10.83,0,0,1-2.84,2.14,25.08,25.08,0,0,1-6,2.23,67.14,67.14,0,0,1-9,1.49,12.92,12.92,0,0,0-3.8.69,4.88,4.88,0,0,0-2.34,2.18c-1.19,2.09-1.57,5.13-2.75,8.15a13.22,13.22,0,0,1-2.72,4.35,11.74,11.74,0,0,1-4.42,2.74,17.91,17.91,0,0,1-4.8,1l-.6.05h-.66c-.45,0-.85,0-1.27-.06-.82-.09-1.6-.21-2.35-.35-1.49-.27-2.92-.58-4.24-.72a4.92,4.92,0,0,0-3.11.36c-.39.15-1.35,2-2.28,3.12a34.37,34.37,0,0,1-3.06,3.54,29.59,29.59,0,0,1-7.52,5.61Z"/><path class="cls-1" d="M341.85,179.24a20.55,20.55,0,0,1-1.17-2.67,7.14,7.14,0,0,1-.39-1,9.21,9.21,0,0,1-.19-3.92,15.86,15.86,0,0,1,.39-1.76c.15-.36.29-.74.47-1.1a2.45,2.45,0,0,1,.87-.79c.22-.12.65.43,1,1s.72,1.19.57,1.36a7.22,7.22,0,0,0-.95,2.54,2.76,2.76,0,0,0,0,1c.11.34.24.68.33,1a18.26,18.26,0,0,0,.95,2.32,13.27,13.27,0,0,0,.77,1.37,11.91,11.91,0,0,0,1.46,1.91,7.51,7.51,0,0,0,1.53,1c.11.07.24.12.35.2.4.26.4.49.06,1.13-.08.15-.15.3-.24.44a1,1,0,0,1-1.16.56,7.18,7.18,0,0,1-3.11-2.3,18.75,18.75,0,0,1-1.66-2.38Z"/></g></svg>