<svg id="Layer_1" data-name="Layer 1" xmlns="http://www.w3.org/2000/svg" width="520" height="520" viewBox="0 0 520 520"><defs><style>.cls-1{fill:#221f1f;}.cls-2,.cls-3{fill:none;stroke:#221f1f;stroke-miterlimit:10;}.cls-2{stroke-width:2px;}.cls-3{stroke-width:1.58px;}</style></defs><title>Notioly v2</title><g id="_21.Moving_out" data-name="21.Moving out"><path class="cls-1" d="M137.14,96.17a2.45,2.45,0,0,1,.83,1.49c0,.21-.25,1.58-1.2.89a2.59,2.59,0,0,1-.89-1.55A.86.86,0,0,1,137.14,96.17Z"/><path class="cls-2" d="M137.14,96.17a2.45,2.45,0,0,1,.83,1.49c0,.21-.25,1.58-1.2.89a2.59,2.59,0,0,1-.89-1.55A.86.86,0,0,1,137.14,96.17Z"/><path class="cls-1" d="M122.53,98.92a2.51,2.51,0,0,1,.82,1.5c0,.2-.25,1.57-1.2.88a2.59,2.59,0,0,1-.89-1.55A.86.86,0,0,1,122.53,98.92Z"/><path class="cls-2" d="M122.53,98.92a2.51,2.51,0,0,1,.82,1.5c0,.2-.25,1.57-1.2.88a2.59,2.59,0,0,1-.89-1.55A.86.86,0,0,1,122.53,98.92Z"/><path class="cls-1" d="M176.81,132.29c-6.09,8.44-18.22,9.72-26.62-6.38,3.5-6.76.51-22.78-1.85-33.08-4.58-3.1-3.94-10.81-5.84-15.53-2.62-6.48-11.39,1.69-12.15.94-10.1-10.17-17.88,13-24.25,18.14-1.14.92.2,2.49.5,4.41-2.92-1.08-9.22-1.84-9.07,2.74.22,6,4.35,10.56,12.15,8.69,3.34,4.9,7.22,11.13,12.53,15.9-10,44.27-49.8,24-46,11.84,1.55-5,6.6-8.49,7-14s-1.39-11.25-2.56-16.62c-2.71-12.64-1.44-27,4.25-38.67,13.54-27.72,42.16-12.5,42.16-12.5s13.69-14.6,28.08,4.87,10.39,52.55,19.31,50.54C179.62,108.49,183.09,123.6,176.81,132.29Z"/><path class="cls-1" d="M80.51,98a61.12,61.12,0,0,0,.9,9.16c.52,3,1.37,6,2,9.13a34.22,34.22,0,0,1,.9,9.62,12.13,12.13,0,0,1-1.48,4.88,37.75,37.75,0,0,1-2.62,4.06,27.77,27.77,0,0,0-2.4,3.82c-.13.34-.31.66-.42,1a3.88,3.88,0,0,0-.28,1,2.75,2.75,0,0,0-.11,1,3.25,3.25,0,0,0,.08,1,8.68,8.68,0,0,0,1.75,3.76,16.71,16.71,0,0,0,3.13,3.1,23.81,23.81,0,0,0,16.91,4.73,19,19,0,0,0,6.27-1.76,20.54,20.54,0,0,0,5.42-3.64,28.52,28.52,0,0,0,4.3-5c.56-1,1.19-1.87,1.7-2.86s1-2,1.46-3a52.18,52.18,0,0,0,2.44-6.89l.47-1.77.18-.71,0-.13a.76.76,0,0,0-.09-.09l-.52-.49-.67-.67c-.45-.45-.88-.92-1.31-1.38a100.33,100.33,0,0,1-8.94-12.07c-.23-.31-.34-.65-.56-.5l-.33.06c-.16,0-.32.07-.49.08l-1,.1a11.76,11.76,0,0,1-4-.38,8.74,8.74,0,0,1-3.55-2,9.37,9.37,0,0,1-2.22-3.39,12.26,12.26,0,0,1-.79-3.9,8.09,8.09,0,0,1,0-1.08,4.62,4.62,0,0,1,.33-1.12,3.69,3.69,0,0,1,1.61-1.68,7.59,7.59,0,0,1,4.07-.68c.33,0,.66,0,1,.1l.49.07.4.07a4.29,4.29,0,0,1,.7.2s.1,0,.09,0l0-.11-.06-.22c0-.14-.09-.29-.14-.43l-.14-.4a5.32,5.32,0,0,1-.16-.66c0-.12,0-.25,0-.39a1.71,1.71,0,0,1,0-.45,1.8,1.8,0,0,1,.35-.84,2.58,2.58,0,0,1,.32-.34l.21-.18.41-.37c.25-.26.51-.5.75-.79.49-.55,1-1.14,1.4-1.75,1.78-2.44,3.38-5.08,5.1-7.65a40.81,40.81,0,0,1,5.87-7.32,10.61,10.61,0,0,1,4.21-2.51,6.37,6.37,0,0,1,5,.7,7.9,7.9,0,0,1,1.09.72,4,4,0,0,1,.5.41l.34.32c.08.06.14.17.25.13a1,1,0,0,0,.28-.11c.25-.12.68-.36,1-.56.73-.42,1.47-.85,2.24-1.24a10.63,10.63,0,0,1,5.15-1.47A3.92,3.92,0,0,1,142,75.35a6.25,6.25,0,0,1,1.34,2.45,35.24,35.24,0,0,1,1.15,5,39.06,39.06,0,0,0,1.11,4.83,9.61,9.61,0,0,0,2.33,4l.46.37c.23.22.6.34.59.71l.3,1.35.54,2.47c.35,1.64.68,3.29,1,4.94a97.07,97.07,0,0,1,1.66,13.66,36.39,36.39,0,0,1-.37,7,12,12,0,0,1-.38,1.74l-.24.86c-.11.29-.24.57-.35.85l-.08.17a.12.12,0,0,0,0,.16l.3.51.83,1.45c.57,1,1.26,1.84,1.88,2.76l1.07,1.26a9.3,9.3,0,0,0,1.13,1.21l1.19,1.13,1.32,1a9.3,9.3,0,0,0,1.38.85,7.22,7.22,0,0,0,1.46.69,11.26,11.26,0,0,0,6.28.72,12.43,12.43,0,0,0,5.76-2.77c.51-.44.92-.86,1.29-1.19s.61-.65.84-.87c.44-.45.69-.62.74-.54s-.09.43-.42,1a12.31,12.31,0,0,1-1.71,2.29c-.46.41-.94.91-1.53,1.36a13.68,13.68,0,0,1-2.08,1.28,11.45,11.45,0,0,1-5.81,1.27,14.31,14.31,0,0,1-6.82-2.12,23.6,23.6,0,0,1-5.79-5.4,36.7,36.7,0,0,1-2.5-3.85l-.63-1.08-.26-.47-.14-.24c0-.08-.14-.15-.06-.24l.43-1a7.5,7.5,0,0,0,.38-.95l.27-1a31.44,31.44,0,0,0,.57-8.45A114.37,114.37,0,0,0,148,97.16l-.79-3.62-.34-.27a4,4,0,0,1-.47-.45,6.5,6.5,0,0,1-.83-1,7.94,7.94,0,0,1-.68-1.06,10.3,10.3,0,0,1-.54-1.11c-1.25-3-1.53-6-2.13-8.86-.15-.7-.32-1.39-.51-2-.1-.33-.22-.63-.33-1A4.5,4.5,0,0,0,141,77a2.36,2.36,0,0,0-2.67-1,13.19,13.19,0,0,0-3.76,1.47c-.63.34-1.25.71-1.91,1.08l-.51.28-.28.15c-.14.08-.32.14-.48.21a2.16,2.16,0,0,1-1,.2.71.71,0,0,1-.25-.06s-.06-.08-.12,0l-.1-.06-.43-.26-.63-.58a2.79,2.79,0,0,0-.42-.35,6.07,6.07,0,0,0-.88-.58l-.45-.25-.46-.18a5.26,5.26,0,0,0-1-.23,5.56,5.56,0,0,0-3.81,1.17c-2.43,1.71-4.38,4.36-6.22,7s-3.54,5.48-5.49,8.21a21,21,0,0,1-3.41,3.88.25.25,0,0,0-.11.25,1.94,1.94,0,0,0,.07.41c0,.08,0,.16.08.25l.13.38a12.93,12.93,0,0,1,.58,2l.19.94a3.6,3.6,0,0,1,.11.88c-.81-.27-1.75-.63-2.56-.83-.31-.08-.61-.18-.93-.24l-.5-.09c-.32,0-.65-.1-1-.12a8.58,8.58,0,0,0-1.9,0c-1.22.18-2.22.67-2.4,1.67a2.8,2.8,0,0,0-.1.79c0,.31,0,.65.06,1a12.31,12.31,0,0,0,.38,1.92,7.77,7.77,0,0,0,1.88,3.29,8.22,8.22,0,0,0,7.19,2,4.71,4.71,0,0,0,.5-.08l.71-.14.88-.17c.17.2.31.44.47.66l1.37,2c.8,1.19,1.6,2.38,2.42,3.55a73,73,0,0,0,5.25,6.72c.47.53,1,1,1.45,1.54l.75.75,1,.91c.71.34.21,1,.14,1.58l-.28,1.08-.55,2.12c-.45,1.39-.88,2.79-1.39,4.16s-1,2.74-1.75,4a33.47,33.47,0,0,1-4.8,7.39,24.36,24.36,0,0,1-7.63,6A22.66,22.66,0,0,1,97,156.13a25.37,25.37,0,0,1-9.57-1.62,23.89,23.89,0,0,1-8.28-5.08,13.81,13.81,0,0,1-3-4,8,8,0,0,1-.86-5,13.66,13.66,0,0,1,2-4.56c.87-1.36,1.83-2.62,2.69-3.91a16.16,16.16,0,0,0,2.06-4c.13-.35.18-.71.28-1.06s.11-.72.14-1.09a21.82,21.82,0,0,0,0-2.29,46.38,46.38,0,0,0-1.45-9.18A80.16,80.16,0,0,1,79,102.82a63.08,63.08,0,0,1-.09-11.74,56.35,56.35,0,0,1,6.46-22.46c.44-.91,1-1.73,1.55-2.6s1.18-1.64,1.78-2.46a29.2,29.2,0,0,1,4.28-4.33,25.11,25.11,0,0,1,10.92-5.18,32.82,32.82,0,0,1,12.06,0,41.87,41.87,0,0,1,5.84,1.45c.95.31,1.89.65,2.83,1l1.38.58,1,.47.29-.28.52-.45c.37-.31.76-.61,1.16-.9a20.72,20.72,0,0,1,2.5-1.54A16.69,16.69,0,0,1,137,52.55a15.94,15.94,0,0,1,11.13,2.8,27.94,27.94,0,0,1,5.17,4.58,39.77,39.77,0,0,1,4.11,5.48,56.8,56.8,0,0,1,5.68,12.32c2.9,8.56,4.19,17.5,6,26.21a37.18,37.18,0,0,0,1.56,5.53c.65,1.7,1.68,3.47,3.1,3.37l.23,0h.1l.35-.31a3.75,3.75,0,0,1,1.52-.71,2.63,2.63,0,0,1,1.73.22,3.7,3.7,0,0,1,1.21,1,7.26,7.26,0,0,1,1.21,2.19,12.57,12.57,0,0,1,.56,2.07,19.66,19.66,0,0,1,.08,6.57,14.61,14.61,0,0,1-2.53,6.66,10.86,10.86,0,0,1-1.37,1.62c-.28.24-.29.09-.07-.39s.65-1.31,1.12-2.52a21,21,0,0,0,1.22-4.78,20,20,0,0,0-.16-6.82,9.93,9.93,0,0,0-.85-2.55c-.37-.77-1-1.4-1.43-1.45a1.2,1.2,0,0,0-.79.16,4.07,4.07,0,0,0-.44.32l-.41.37c-.14.2-.4.14-.61.19l-.56.06a1.35,1.35,0,0,1-.49,0,3.24,3.24,0,0,1-1-.21,4.2,4.2,0,0,1-1.59-1.08,9,9,0,0,1-1.74-2.85,24.41,24.41,0,0,1-1-3c-.55-2-1-4-1.36-5.94-1.53-7.91-2.85-15.89-5.44-23.53a56.18,56.18,0,0,0-4.93-10.95A35.25,35.25,0,0,0,148.74,58a15.08,15.08,0,0,0-10.54-3.77,14.84,14.84,0,0,0-5.49,1.5,19.85,19.85,0,0,0-2.5,1.49c-.39.28-.79.57-1.16.88l-.27.23-.14.12-.19.17c-.38.35-.75.74-1.11,1.12l-.92-.46-.79-.39-.91-.4a37.08,37.08,0,0,0-17.82-3.05,23.64,23.64,0,0,0-15.67,8c-4,4.51-6.66,10.28-8.39,16.19A61.16,61.16,0,0,0,80.55,98Z"/><path class="cls-1" d="M189,258.19c1.65-.3,3.3-.66,4.92-1.1l.44-.13.16,0,.22-.07a9.06,9.06,0,0,0,1.3-.34l.42-.16s.17-.08.15-.14l-.09-.05a2.3,2.3,0,0,0-.5-.15,4.59,4.59,0,0,0-1.38,0l-1.39.23a9.6,9.6,0,0,1-1.86.15c-.78,0-.06-1.93,1.36-2.15l1-.12.68-.07c.28,0,.55-.05.87-.06a16.64,16.64,0,0,1,3.32.11,3.83,3.83,0,0,1,2,.62,1.79,1.79,0,0,1,.29.45.69.69,0,0,1,.09.27.56.56,0,0,1-.11.33,4.11,4.11,0,0,1-1.55,1.27,24.38,24.38,0,0,1-3.38,1.32l-1,.31-.63.18-1.26.32c-.85.21-1.69.41-2.54.58-1,.22-2.1.41-3.16.59-1.6.26-3.22.43-4.82.57a36.33,36.33,0,0,1-3.77.24c-.29,0-.56,0-.85,0-1.06-.13-1.38-.36-1.46-.9a1.56,1.56,0,0,1,0-.36c0-.4.48-.58,1.16-.57a49.91,49.91,0,0,0,6.46-.37c1.65-.2,3.32-.45,5-.79Z"/><path class="cls-1" d="M249.79,196.73l.12-20.64-14.42,2.57-13.69,2.52-46.19,8.19v.84c.14,7.26.29,14.56.43,21.76.15,9.27.47,18.55,0,27.84-.22,2.92-.75,2.46-1.16,0a78.25,78.25,0,0,1-.92-12.25l-.18-19.38q-.15-10.26-.3-20.57l10-1.74,8.89-1.51c11.24-1.9,22.89-4.14,34.36-6.21L252,173.6l-.06,14.81-.09,23.67c0,6,0,12-.06,17.94v8.54c0,.08-.05.1-.11.12l-.19.07-.76.27-4.32,1.51L242.17,242c-8.75,2.94-17.37,5.72-26.17,8.18-1.94.51-3.84,1.06-5.81,1.55-7.31,1.8-9.73,2-11.41,1.78a9.41,9.41,0,0,1-1.12-.18c-.39-.15.15-.46,1.45-.88.65-.2,1.49-.44,2.5-.69s2.19-.58,3.52-.9c7.87-1.95,15.88-4.31,24-6.82,4-1.26,8.09-2.58,12.15-3.93l6.08-2.08,2.35-.83v-1.89c0-12.81,0-25.68.06-38.53Z"/><path class="cls-1" d="M165,172.69l-8.77,1.47c-.25,0-.45.09-.69.13l.08.06.56.48,2.41,1.76,4.87,3.53c1.44,1,2.93,2,4.4,3a58.06,58.06,0,0,1,5.6,3.87c1.08.92-1.56,1.61-3.73.15-3.83-2.59-7.6-5.27-11.28-8.15-1-.78-2-1.53-3.1-2.26l-5.17-3.55,1.36-.25,6.42-1.15,4.64-.8,5.7-1c2.88-.52,5.78-1,8.62-1.58,2.21-.45,4.36-1,6.53-1.53l1.43-.35c1.79-.38,2.39-.35,2.89.14a2.57,2.57,0,0,1,.33.33c.25.4-.41.9-1.71,1.28-3.84,1.13-8,2-12.11,2.78l-9.27,1.7Z"/><path class="cls-1" d="M151.94,210.25l-.16-9.28-.14-3.39-.26-11.94c0-1.76-.17-3.54-.3-5.28a56.59,56.59,0,0,1-.35-6.76c.06-1.41,2.23.25,2.39,2.84.3,4.6.45,9.2.39,13.85,0,2.78.19,5.66.27,8.49l.23,9.37.1,5.77c.06,2.91.11,5.83.16,8.72,0,2.25.22,4.45.27,6.69,0,.5,0,1,0,1.48,0,1.86-.3,2.52-1,2.83a1.12,1.12,0,0,1-.44.12c-.22,0-.37-.25-.46-.49a5.07,5.07,0,0,1-.18-1.43c-.16-3.86-.33-8.05-.41-12.23l-.21-9.35Z"/><path class="cls-1" d="M226.43,127.39l-9.34-.65-1.07,0-.86,0-1,.34-11.47,3.62c-1.7.54-3.38,1.14-5,1.75a54.3,54.3,0,0,1-6.44,2.2c-1.39.33-.37-2.2,2.1-3.08,4.36-1.55,8.77-3,13.28-4.22,1.34-.37,2.69-.81,4-1.28l4.23-1.44h.06l9.57.62,5.79.37c2.93.17,5.86.37,8.77.48,2.25.08,4.47,0,6.71,0,.49,0,1,0,1.47,0,1.84,0,2.41.22,2.78.8a2.25,2.25,0,0,1,.25.41c.15.44-.61.77-2,.84-4,.2-8.21.06-12.43-.14l-9.43-.51Z"/><path class="cls-1" d="M205.74,133.84c1.91.17,3.81.35,5.72.5.69.06,1.39.06,2.08.12,2.45.22,4.9.48,7.35.69,1.09.1,2.19.13,3.27.15a21.57,21.57,0,0,1,4.17.23c.85.19-.34,2.19-2,2.13a72.32,72.32,0,0,1-8.51-.77c-1.7-.26-3.48-.25-5.23-.38l-5.76-.46c-1.18-.1-2.36-.2-3.55-.28-1.79-.12-3.58-.28-5.36-.34-1.39,0-2.75,0-4.12.07-.3,0-.6,0-.91,0-1.12,0-1.47-.18-1.69-.76a3,3,0,0,1-.14-.39c-.08-.45.39-.79,1.22-.88a49.72,49.72,0,0,1,7.63-.06c1.93.09,3.85.24,5.78.36Z"/><line class="cls-3" x1="251.11" y1="174.65" x2="243.02" y2="168.85"/><path class="cls-1" d="M197.68,252a5.87,5.87,0,0,0,.58-.38.47.47,0,0,0,.1-.1l.06-.05a.93.93,0,0,0,.19.11l.27.12a.55.55,0,0,0,.33.11c.06,0,.08,0,.09,0s-.06.07-.12.2a1,1,0,0,0-.1.45c0,.29,0,.2,0,.21h-.12l-.38,0-.89.12c-.45.07-.89.21-1.34.28a42.33,42.33,0,0,1-4.95.51c-.74,0-1.5.06-2.25.05a4.9,4.9,0,0,1-2.92-.72c-.27-.2,0-.59.44-.91a1.79,1.79,0,0,1,1.3-.53,24.2,24.2,0,0,0,5.14.24,21.26,21.26,0,0,0,3.37-.54c.63-.11,1.25-.23,1.94-.3a5,5,0,0,1,.57,0,2.36,2.36,0,0,1,.36,0l.28.08a1.12,1.12,0,0,1,.41.3,1,1,0,0,1,.19.62,1.48,1.48,0,0,1-.1.36,2.13,2.13,0,0,1-.22.35,2.78,2.78,0,0,1-.42.42,9.28,9.28,0,0,1-2.22,1.26c-1.13.49-2.28.85-3.42,1.22-.88.29-1.73.65-2.65.9a4.21,4.21,0,0,1-.61.16c-.79.14-1.13,0-1.27-.51a2.21,2.21,0,0,1-.08-.35.69.69,0,0,1,.17-.5,1.11,1.11,0,0,1,.52-.33l4.52-1.5a19.15,19.15,0,0,0,3.24-1.39Z"/><path class="cls-1" d="M192.47,241.41a3,3,0,0,1-.39,1.6c-.18.24-.32.5-.52.72s-.43.36-.6.48a8.35,8.35,0,0,1-2.05.95c-1.34.42-2.66.67-3.91.94a11,11,0,0,0-1.29.34,1,1,0,0,0-.39.22.23.23,0,0,0,0,.3,1.32,1.32,0,0,0,.48.33A10.44,10.44,0,0,0,186,248a24.35,24.35,0,0,0,4.85.56,25.58,25.58,0,0,0,4.38-.27,16.85,16.85,0,0,1,3-.22,3.59,3.59,0,0,1,.89.15,1.58,1.58,0,0,1,.62.36,1.18,1.18,0,0,1,.29.53,1.11,1.11,0,0,1,0,.56,1.55,1.55,0,0,1-.32.55,3.37,3.37,0,0,1-.32.33,4.7,4.7,0,0,1-.67.46c-.58.32-.73-.16-.6-.82,0-.32.19-.72.22-1a.28.28,0,0,0,0-.09v0h0l.1.06h0l0,0,.22.11c.27.15.44.05.31.11a1.07,1.07,0,0,0-.22.28.91.91,0,0,0-.13.26l-.11.25a.49.49,0,0,1-.16,0,13.61,13.61,0,0,0-2.58.08c-.48,0-.89.11-1.48.15l-1.5.06a27.33,27.33,0,0,1-6-.49,17.6,17.6,0,0,1-3.66-1.08,5.29,5.29,0,0,1-1.09-.68,2.11,2.11,0,0,1-.75-1.17,1.65,1.65,0,0,1,.32-1.3,2.94,2.94,0,0,1,1.13-.84,6.79,6.79,0,0,1,1.13-.38c.34-.09.67-.16,1-.23l1.92-.41a9.39,9.39,0,0,0,3.36-1.29,1,1,0,0,0,.37-.43c0-.17.13-.4,0-.55a.79.79,0,0,0-.56-.14,8.91,8.91,0,0,0-.94.14c-2.32.51-4.7,1.29-7,2-1.83.53-3.62,1.12-5.49,1.53l-1.23.26c-1.57.24-2.1.11-2.45-.36a1.72,1.72,0,0,1-.24-.33c-.16-.39.44-.71,1.51-.93,3.19-.68,6.48-1.64,9.86-2.67,1.26-.38,2.52-.76,3.85-1.1.33-.08.67-.16,1-.22l.54-.1c.19,0,.6-.05.89-.07a2.77,2.77,0,0,1,1.65.42,1.7,1.7,0,0,1,.72,1.39Z"/><line class="cls-3" x1="188.82" y1="244.05" x2="188.81" y2="244.05"/><path class="cls-1" d="M200.16,331.5s-59.85,18.57-100.37,10.07c8.06-36.37,23.18-73.09,22.42-101.91,0,0,39.08,23.88,63.59,20C189.93,284,192.81,309.89,200.16,331.5Z"/><path class="cls-1" d="M126.83,243.64l-2.61-1.47-.74-.43-.14-.09v.15l0,.79c0,1,0,2,0,3-.15,2-.25,4-.45,5.93s-.45,3.94-.73,5.89-.62,3.91-1,5.85c-1.43,7.78-3.35,15.42-5.4,23q-2.53,9.36-5.23,18.65c-3.17,10.92-6.35,21.83-9,32.86l-.49,2.07-.18.75,0,.19c0,.06-.06.16,0,.14l3.47.59c1.39.21,2.77.53,4.18.65l4.21.39c2.81.34,5.64.36,8.47.45s5.66,0,8.49,0a232.77,232.77,0,0,0,30-3c12.66-2.09,25.24-5,37.63-8.29,3.84-1.06,3.48-.45.35,1a97.23,97.23,0,0,1-16.33,5.12,297,297,0,0,1-39,6.38c-3.29.29-6.6.47-9.9.67l-5,.1c-1.66,0-3.31.1-5,0-3.33-.14-6.65-.13-10-.54l-5-.48L102.5,343l-1.48-.26-1.2-.21-.64-.11-.31-.05-.16,0s-.07,0-.07,0l0-.08c.3-1.28.61-2.56.92-3.85.47-1.95.91-3.91,1.43-5.86,1-3.91,2-7.83,3.1-11.76,2.15-7.85,4.43-15.7,6.65-23.48,2.44-8.56,4.83-17.14,6.79-25.81a154,154,0,0,0,3.91-26.27l.07-6.78,2.28,1.37,1.7,1,3,1.66q3,1.62,6,3.16,6.08,3.06,12.35,5.68a115.34,115.34,0,0,0,23.64,7.33,51.06,51.06,0,0,0,12.26.81,13,13,0,0,0,1.52-.14l1-.12.55-.06.28,0h.13c.06,0,0,.07.05.1l.59,3.55q.51,3.06,1,6.11c2,12.66,3.95,25.07,6.54,37.44.57,2.73,1.19,5.38,1.82,8.11,1.23,5,2.09,8.35,2.71,10.68a34.45,34.45,0,0,1,1,4.83c0,.52.15,1.19.14,1.51,0,1.07-1.81-2.83-3.91-10.22a318.87,318.87,0,0,1-7.19-34.09q-1.41-8.74-2.82-17.58-.69-4.2-1.39-8.42h0l-.22,0c-.77.11-1.55.15-2.32.19s-1.54.07-2.31.06-1.55,0-2.31-.07a68.66,68.66,0,0,1-13.42-2.15,116.32,116.32,0,0,1-12.89-4.09,192.92,192.92,0,0,1-24.44-11.36Z"/><path class="cls-1" d="M128.32,343.44c-10.4,0-23.88.53-33.54-4.33-.57-.28-2.31.62-2,.75,9.82,4.93,23.62,4.51,34.18,4.48.47,0,2.46-.9,1.41-.9Z"/><path class="cls-1" d="M140.76,385.33q-1.39,8.31-2.77,16.6c-.33,2-.6,4.05-.94,6.06-1.2,7.12-2.43,14.22-3.62,21.33-.52,3.16-1,6.34-1.44,9.49-.57,4-1,8.11-1.88,12.1-.53,2.49-2.08-1-1.39-5.66,1.23-8.24,2.59-16.45,4.15-24.71.94-4.93,1.64-10.11,2.47-15.18.9-5.58,1.83-11.16,2.74-16.73.57-3.43,1.14-6.86,1.69-10.3.83-5.19,1.7-10.41,2.46-15.58.6-4,1.06-8,1.57-12,.12-.87.21-1.73.33-2.62.47-3.27.77-4.29,1.44-4.9a4,4,0,0,1,.46-.41c.48-.24.64,1.14.4,3.56-.71,7.15-1.81,14.64-3,22.16-.86,5.58-1.77,11.17-2.66,16.76Z"/><path class="cls-1" d="M124.32,385.55l-1.52,16.31-.47,6c-.64,7-1.28,14-1.84,21-.23,3.11-.43,6.23-.55,9.32l-.21,5.95c0,1-.07,2-.13,3s-.08,2-.16,3c-.09,1.23-.64,1.08-1.16,0a11.75,11.75,0,0,1-.92-5.31c.31-8.15,1-16.23,1.82-24.38.53-4.86.81-9.95,1.24-14.93l1.48-16.45.93-10.11c.46-5.11,1-10.24,1.37-15.31.32-3.94.51-7.82.77-11.72.06-.86.11-1.71.16-2.57.26-3.21.51-4.23,1.14-4.86a2.71,2.71,0,0,1,.43-.41c.47-.26.7,1.07.61,3.43-.26,7-.84,14.34-1.47,21.71-.49,5.47-1,11-1.46,16.46Z"/><path class="cls-1" d="M151.35,464.85c0,4.78-21.56,1.23-32-5.67v6.17h-4.51s-1.34-16.79,3.5-20.24c0,4.54,13,15.47,16.69,14,3.51-1.37-5.62-6.16-5.16-8.05C130.2,449.79,151.35,462.85,151.35,464.85Z"/><path class="cls-1" d="M123.7,454.51a36.17,36.17,0,0,1-3.59-3.73,21.5,21.5,0,0,1-1.56-2.15c-.11-.19-.24-.38-.34-.59l-.17-.3,0-.08s0,0,0,0v0a1.05,1.05,0,0,1-.06-.21.37.37,0,0,1,0-.11s0,0-.07,0a.89.89,0,0,0-.13.14,1,1,0,0,0-.15.23c-.16.3-.28.63-.42.95a21,21,0,0,0-1,4.24,52.12,52.12,0,0,0-.47,6.86c0,.83,0,1.66,0,2.49l0,2s0,.15,0,.16h1.11l1.25,0,.43,0v-1l0-1.82,0-2.79v-1.08c.07,0,.2.11.3.16l1.23.76,1.18.72.56.34.39.21c.52.29,1.06.56,1.59.83,1.08.52,2.17,1,3.29,1.46a58.4,58.4,0,0,0,10.38,3,48,48,0,0,0,6.83.87,25.24,25.24,0,0,0,3.37,0,9.83,9.83,0,0,0,1.58-.27,2.51,2.51,0,0,0,1.19-.58c.28-.28.34-.5.56-.5s.52.36.24,1.13a3.77,3.77,0,0,1-2.34,1.8,10.82,10.82,0,0,1-3.84.53,54.79,54.79,0,0,1-14.32-2.69A56.85,56.85,0,0,1,124,463c-.56-.25-1.1-.53-1.65-.81l-.81-.44-.4-.23-.2-.11-.06,0-.24-.16-.17-.14s-.07,0-.09,0v.08l0,.18,0,.14v.37l0,1.19q0,1.63,0,3.3h-5.32c-.39-.06-1.08.2-.93-.44l-.08-1.33,0-.92c-.09-2.16-.09-4.33,0-6.48a40,40,0,0,1,.91-6.84,15.78,15.78,0,0,1,1.19-3.35,9.9,9.9,0,0,1,.69-1.12,7.68,7.68,0,0,1,.81-.88c.28-.25.57-.51.89-.76.07-.05.19-.17.21-.15h.1s0,0,.1,0l.21-.07c.06.58.14,1.12.21,1.67a8.6,8.6,0,0,0,.39,1.21,11.67,11.67,0,0,0,.71,1.21,21.39,21.39,0,0,0,1.72,2.23,38.37,38.37,0,0,0,4.21,4,29.59,29.59,0,0,0,4.79,3.3,12,12,0,0,0,2,.86,3.21,3.21,0,0,0,1.74.18.65.65,0,0,0,.44-.4.79.79,0,0,0-.16-.57,9.62,9.62,0,0,0-1.39-1.54c-1.07-1-2.25-1.93-3.34-3.08a4.92,4.92,0,0,1-.76-1,1.66,1.66,0,0,1-.2-.81V451a.54.54,0,0,1,0-.11.67.67,0,0,1,.27-.3l.15-.07h.1a1.14,1.14,0,0,1,.48,0,12,12,0,0,1,2.2.9c4.19,2.12,8.11,4.43,12,6.9.86.55,1.7,1.09,2.54,1.67,3.11,2.19,4,3.21,4.17,4.21,0,.23.07.54,0,.64s-.26.09-.78-.29L148,462.78c-3.31-2.29-6.9-4.48-10.55-6.63-1.82-1.06-3.68-2.13-5.56-3.06-.46-.23-.93-.46-1.37-.63a3.25,3.25,0,0,0-.53-.18s0,.05,0-.06,0-.18.05-.28,0-.41,0-.49a.92.92,0,0,0-.06-.29s0,0,0,0h0l.44.11h0c.08,0,.08,0,.21,0a1.87,1.87,0,0,0,.41-.1h.07l0,.08.15.21c.13.15.27.33.44.5.34.34.72.69,1.12,1l1.82,1.62c.31.29.62.58.93.9a7.45,7.45,0,0,1,.94,1.15,2.69,2.69,0,0,1,.44,2.19,2.45,2.45,0,0,1-1.6,1.5,3.68,3.68,0,0,1-1.89.15,8.06,8.06,0,0,1-1.39-.37,20.64,20.64,0,0,1-4.55-2.46,39.25,39.25,0,0,1-3.92-3.1Z"/><path class="cls-1" d="M184.11,379.38c.3,5.52.61,11,1,16.54l.46,6c.48,7.08.94,14.17,1.6,21.23.26,3.14.68,6.27,1.07,9.37.56,4,1.26,7.92,1.76,11.88.3,2.49-2.3-.22-3.08-4.86-1.26-8.17-2-16.36-2.45-24.63-.29-4.95-.8-10.08-1.17-15.13q-.57-8.32-1.05-16.67c-.2-3.42-.4-6.85-.59-10.26-.3-5.18-.55-10.39-.88-15.53-.26-4-.63-7.9-.94-11.85l-.21-2.59c-.2-3.25-.11-4.3.42-5a2.75,2.75,0,0,1,.37-.48c.42-.33.85,1,1.1,3.35.76,7,1.23,14.48,1.69,21.95.32,5.55.65,11.12,1,16.68Z"/><path class="cls-1" d="M170.1,402.56l-2.16-15.65-.83-5.7-2.61-20.13c-.39-3-.83-6-1.29-8.91-.58-3.78-1.28-7.57-1.57-11.39-.18-2.38,2.27.33,2.9,4.69,1.12,7.74,2.14,15.48,3,23.32.5,4.68,1.3,9.52,2,14.3l2.2,15.75q.69,4.85,1.4,9.68c.73,4.89,1.45,9.8,2.28,14.63.65,3.75,1.44,7.4,2.21,11.09.18.8.35,1.59.53,2.41.62,3,.74,4,.31,4.77a2.53,2.53,0,0,1-.28.52c-.36.4-1-.76-1.61-3-1.72-6.57-2.92-13.58-4.08-20.63-.86-5.23-1.63-10.5-2.41-15.76Z"/><path class="cls-1" d="M189.37,445.43s24.84,12.18,22.48,14.22c-8.54,7.4-31.78-4.2-31.78-4,0,0-.06,6-.2,6l-4,0c-.14,0-1.21-16.32,2.24-20.19.13-.15,9,13.63,16.39,11C196,451.9,189.37,446.53,189.37,445.43Z"/><path class="cls-1" d="M176.78,458.2l.08,2.36h1.92s.08,0,.09,0l0-.1v-.36l0-.7c0-1,.05-1.52.09-3.56a1.26,1.26,0,0,1,.3-1,.51.51,0,0,1,.15-.07h0c.09.14-.21-.33.21.32h0l.07,0,.31-.15c.11,0,.24-.18.41-.16s.4.15.6.24l1.16.51c.89.4,1.8.78,2.7,1.15,2.07.85,4.18,1.57,6.29,2.25a46,46,0,0,0,11.39,2.38,17.08,17.08,0,0,0,5.63-.55,8.69,8.69,0,0,0,2.46-1.16c.15-.11.47-.24.35-.49s-.18-.3-.58-.69a30.14,30.14,0,0,0-4.19-3c-1.49-.92-3-1.79-4.53-2.63-3.92-2.16-8-4.11-11.88-6.29-2.45-1.34,1.54-1.43,6.17,1,4.08,2.13,8.12,4.31,12,6.86a34.5,34.5,0,0,1,2.9,2.08c.23.19.47.4.7.61l.36.35c.09.09.33.37.48.56a2.32,2.32,0,0,1,.55,1.39,1.39,1.39,0,0,1-.16.7,3.72,3.72,0,0,1-.5.56,2.77,2.77,0,0,1-.61.5c-.18.13-.28.2-.43.29s-.57.32-.85.46a12.05,12.05,0,0,1-1.78.68,15.91,15.91,0,0,1-3.65.56,35.59,35.59,0,0,1-8.61-.84,64.93,64.93,0,0,1-8.29-2.36c-1.6-.57-3.18-1.19-4.75-1.84l-2.13-.91-.44-.21s-.08-.05-.11,0v.36l-.07,2.26-.08,1.66a3,3,0,0,1-.06.53c0,.18-.18.25-.24.36l-.07.08,0,0h0l.09.09h0l0,0-.23.06-.45.11h-3.56l-.45-.12-.22-.06h0c-.09.11.13-.15.11-.12h0v0l0,0-.06-.08a1.58,1.58,0,0,1-.31-.9l-.05-.9,0-.73c0-1-.06-1.93-.06-2.89,0-1.93.05-3.85.19-5.78a40.88,40.88,0,0,1,.53-4.38,20.85,20.85,0,0,1,.51-2.18c.11-.36.23-.72.37-1.08a8.65,8.65,0,0,1,.69-1.36c.28-.33.57-.89.91-.63a4.59,4.59,0,0,0,.44.21,1.6,1.6,0,0,1,.48.49c.71.94,1.06,1.39,1.53,2,.89,1.11,1.84,2.18,2.83,3.19a22.54,22.54,0,0,0,4.84,3.83A10.05,10.05,0,0,0,191,451.9a6.08,6.08,0,0,0,1.4.16h.35l.27,0,.3-.07.21-.08c.09,0,.07-.17,0-.25a1.21,1.21,0,0,0-.15-.22l-.68-.77c-2.44-2.57-3.28-3.54-3.33-4.54,0-.21,0-.52.08-.62s.27-.09.76.33,1.24,1.05,2.21,2c.68.65,1.38,1.31,2.06,2.07l.3.34.39.52a3.49,3.49,0,0,1,.53,1.08,1.46,1.46,0,0,1-.12,1.06,1.07,1.07,0,0,1-.35.38l-.2.17-.27.13a9.34,9.34,0,0,1-1,.27,7.92,7.92,0,0,1-.92.13,7.61,7.61,0,0,1-1.35,0,9.78,9.78,0,0,1-2.54-.65,17.07,17.07,0,0,1-4.28-2.62,31.67,31.67,0,0,1-3.57-3.37c-.56-.6-1.09-1.22-1.61-1.84l-.77-1-.51-.65h0l-.05.11-.08.25c-.05.17-.12.33-.16.5a25.28,25.28,0,0,0-.81,4.36,71.69,71.69,0,0,0-.31,9.17Z"/><path class="cls-3" d="M178.5,441.19l-.25.22"/><path class="cls-1" d="M303.62,449.18h-.22s0,0,0,0h.23Z"/><path class="cls-1" d="M321.32,356q11.56.87,23.14,1.48l8.44.35c9.93.47,19.86.83,29.79.87,2.2,0,4.41,0,6.61-.06s4.4-.09,6.58-.21l4.21-.2,4.2-.3,8.39-.6c1.74-.1,1.58.46.16,1.14a17.34,17.34,0,0,1-3,1c-.63.16-1.32.31-2.05.44s-1.51.19-2.33.25a317.74,317.74,0,0,1-34.65.32c-6.93-.27-14.15-.4-21.23-.72-7.79-.35-15.58-.82-23.36-1.34q-7.19-.49-14.36-1.07l-6.47-.54-.49-.05-.24,0-.14,0-.55-.17-1.09-.32-.55-.16c-.15,0-.28-.33-.24-.57s.2-.33.32-.4l.4-.23c.3-.16.58-.34,1-.55a13,13,0,0,1,1.73-.57l3.44-1,5.2-1.54c5.37-1.61,10.59-3.3,15.88-5l3.47-1.1c4.36-1.33,5.8-1.6,6.9-1.33a3.66,3.66,0,0,1,.73.19c.54.3-1.14,1.17-4.3,2.24-4.7,1.59-9.54,3.13-14.47,4.65l-7.45,2.27-6.06,1.8h0s0,0,0,0h.07l.73.06q5.82.48,11.66.88Z"/><path class="cls-1" d="M302,447.85c0,.07.06.15.09.21s0,0,0,0a2.55,2.55,0,0,0,.11.33s0,0,0,0,0-.2.06,0,.08,2.2.06,2.22-.07-.05-.12-.34-.05-.08-.08-.13a.67.67,0,0,1-.08-.17.47.47,0,0,1-.05-.1s-.06-.09-.08-.06a1.1,1.1,0,0,0,0,.27.2.2,0,0,0,0,.07s0-.11-.05-.68c0-.13,0-.26,0-.39,0-.44,0-.8,0-.93,0-.39,0-.44.08-.45s.06,0,.08.08Z"/><path class="cls-1" d="M441,357.57l0-4.12v-3.27l-.11,0-.14.05-.82.34-3.8,1.55-15.2,6.24-4,1.66,0,6.17c0,14.06.48,28.14.67,42.24.09,6.25.17,12.55.13,18.76a231,231,0,0,1-1.06,24c-.25,2.48-.78,2.09-1.15-.05a33.56,33.56,0,0,1-.41-4.37c-.1-1.81-.1-3.92,0-6.2.71-16.2.35-32.43.18-48.83-.11-9.81-.49-20-.48-30.09v-3l14.84-6.11,7.11-2.92,3.8-1.56,1.39-.58.69-.28.35-.15c.08-.06.05,0,.06.1v3.19c0,6.85.13,13.59.32,20.39.34,10.28.68,20.61,1,30.81.25,7.94.56,15.73.6,23.59,0,1.73,0,3.43,0,5.17-.12,6.48-.42,8.54-1,9.89a8.66,8.66,0,0,1-.43.9c-.48.59-.69-2.05-.65-6.77.07-14-.43-28.73-1-43.57-.39-11-.8-22.1-1-33.18Z"/><path class="cls-1" d="M411.58,334.38c.07-2.16.15-4.33.22-6.49,0-.79,0-1.58,0-2.37.1-2.78.24-5.57.33-8.35,0-1.23,0-2.47,0-3.7a26.69,26.69,0,0,1,0-4.73c.14-1,2.2.27,2.22,2.08a94.89,94.89,0,0,1-.34,9.67c-.18,1.94-.09,3.95-.13,5.94,0,2.18-.12,4.36-.18,6.54,0,1.34-.07,2.68-.1,4,0,2-.1,4.07-.07,6.09,0,1.57.17,3.11.27,4.66,0,.34.06.67.07,1,0,1.28-.11,1.69-.68,2a3.39,3.39,0,0,1-.39.18c-.44.12-.8-.4-.93-1.33a64.18,64.18,0,0,1-.44-8.63c0-2.17.05-4.36.08-6.55Z"/><path class="cls-1" d="M364.29,298.57l-11,3.56-.68.22-.12,0-.25.07-.55.16-.31.09s-.12,0-.09.09.07,0,.11,0l.53,0,1.2.07c3.27.15,6.54.23,9.81.41,11.51.61,23,1.4,34.51,2.46l7.65.72,3.82.38,3.63.39,8.73-3.82c3-1.3,6-2.57,9-3.75,3.79-1.47-.13,2.46-7,5.44l-9.17,3.94-.67.28a4,4,0,0,1-.57.22l-.63-.07-1.29-.15-2.47-.3-4.95-.54c-6.61-.69-13.25-1.29-19.92-1.87-8-.69-16.33-1-24.52-1.4l-12-.5-1.41-.5L345,304c-.07,0-.12,0-.15-.08a.66.66,0,0,1-.09-.27.32.32,0,0,1,.15-.33l1-.8a3.35,3.35,0,0,1,1-.54l1.64-.54,9.42-3.08,10-3.25,6.44.43c8.39.56,16.83,1.15,25.16,1.64,6.48.39,12.84.63,19.25.94l4.22.19c5.27.3,6.94.54,8,1.18a4.83,4.83,0,0,1,.72.44c.48.47-1.69.7-5.56.59-11.47-.34-23.55-1-35.67-1.79l-22.32-1.46-4,1.32Z"/><path class="cls-1" d="M426.83,350.05c5.07-.24,10.14-.55,15.19-1.11,1.46-.17,2.35-2,.35-1.75-5,.56-10.11.87-15.19,1.11-1.49.07-2.35,1.84-.35,1.75Z"/><path class="cls-1" d="M152.93,145.22c-1.27,7.26-4.54,16.58-25.86-1A27.94,27.94,0,0,1,141,139.1C146,138.67,149.73,141.36,152.93,145.22Z"/><path class="cls-1" d="M151.47,145.38c-.49,2.7-1.19,6.79-4.18,7.83-5.84,2-15-6.48-18.89-9.61l-.41,1.11c3.73-2.49,8-4.47,12.55-4.64,4.87-.17,8,2.23,11.05,5.75.73.83,3.5-.24,2.67-1.19-3.5-4-7.46-6.69-13-6.43a30.48,30.48,0,0,0-15.16,5.48c-.26.17-.82.77-.41,1.11,5.42,4.41,14.15,12.3,22,10.07,4.46-1.27,5.9-5.68,6.64-9.79C154.61,143.83,151.67,144.28,151.47,145.38Z"/><path class="cls-1" d="M148,161.2s0,0,0,.07a3.09,3.09,0,0,1,.07.4c0,.12.08.47,0,.52s-.15.19-.26.24a1.11,1.11,0,0,1-.5-.07,2.42,2.42,0,0,1-.66-.42,1.92,1.92,0,0,1-.55-.89,1.61,1.61,0,0,1,.44-1.83.92.92,0,0,1,.3-.2l.33-.13a3.45,3.45,0,0,1,.43-.12,1.57,1.57,0,0,1,1.05.19.9.9,0,0,0,.26.17,1.24,1.24,0,0,1,.5.65,1.48,1.48,0,0,1,.14.67,3.17,3.17,0,0,1-.3,1s0,.1-.09.13-.19.15-.27.25a.85.85,0,0,1-.45.32.46.46,0,0,1-.3-.08c-.08,0-.07-.27-.06-.3s0-.17-.05-.26v-.09a.24.24,0,0,0,0-.08s0,0-.08-.09-.18-.12-.2-.16a1.15,1.15,0,0,0-.14-.43s0,0,0-.07-.06-.08-.1-.08h0l.09-.06a1.57,1.57,0,0,1,.13-.1,1.18,1.18,0,0,0,.11-.13.16.16,0,0,0,0-.1c0,.06,0,.05,0,.12a.32.32,0,0,0,0,.14c0,.09.11.16.11.22l0,0s-.12.09-.11,0,0,0,0,0h-.05s0,.12.08.14,0,.16,0,.16S148,161.23,148,161.2Z"/><path class="cls-1" d="M149.55,166.74s0,0,0,.07a2.79,2.79,0,0,1,.07.4c0,.11.08.47,0,.52s-.15.19-.26.23a.87.87,0,0,1-.5-.07,2.27,2.27,0,0,1-.66-.41,2,2,0,0,1-.56-.89,1.69,1.69,0,0,1,.18-1.54l.27-.29a.69.69,0,0,1,.3-.2l.33-.14.43-.11a1.53,1.53,0,0,1,1,.19,1.07,1.07,0,0,0,.27.16,1.32,1.32,0,0,1,.5.66,1.48,1.48,0,0,1,.14.67,3,3,0,0,1-.3,1s0,.11-.1.13-.18.16-.26.26a.85.85,0,0,1-.45.32.46.46,0,0,1-.3-.08c-.08,0-.07-.27-.06-.3s0-.17-.05-.26l0-.1s0-.07,0-.08,0,0-.07-.08-.18-.13-.2-.16a1.05,1.05,0,0,0-.14-.43s0-.05,0-.08,0-.07-.09-.08h0l.09-.06c.06-.07.1-.07.13-.11a.44.44,0,0,0,.11-.13.16.16,0,0,0,0-.09c0,.06,0,.05,0,.12a.28.28,0,0,0,0,.13c0,.09.11.17.11.23h0s-.13.09-.11,0h0s0,0,0,.05h-.05s0,.12.07.14,0,.16,0,.16S149.51,166.77,149.55,166.74Z"/><path class="cls-1" d="M156.63,240.64a124.45,124.45,0,0,1-12-7.29c-1.4-1-2.83-1.88-4.21-2.87-4.85-3.51-9.52-7.25-14.12-11.07l-6.12-5.06-1-.82L118,212.46l-.19-.16c0-.06,0-.16,0-.24l.09-.48.15-.85.23-1.24c.31-1.66.66-3.31,1.1-4.94.55-2,2.05,1,1.32,4.79l-.41,2.09s0,0,0,0l1,.84,3.89,3.35c2.62,2.22,5.24,4.44,7.89,6.67,3.16,2.66,6.69,5.12,10.15,7.54,3.81,2.66,7.7,5.2,11.74,7.47a69.48,69.48,0,0,0,7.64,3.78c1,.39,2,.79,3,1.12.51.18,1,.33,1.53.46l.77.22.2.05.26.06.53.12,1.06.23a3.81,3.81,0,0,1,.51.12l-.1.57c-.06.38-.15.75-.22,1.13l-.24.93a25.92,25.92,0,0,1-1.1,3.14,20.35,20.35,0,0,1-6,8.34,13.33,13.33,0,0,1-1.9,1.31c-2.57,1.37-3.6,1.29-4.29.93a1.93,1.93,0,0,1-.47-.27c-.17-.18,0-.43.41-.72a5.74,5.74,0,0,1,.81-.45l.54-.24.58-.32a16,16,0,0,0,6.26-5.49,21.26,21.26,0,0,0,2.07-3.82c.29-.67.54-1.36.77-2.06.1-.36.22-.71.31-1.06l.07-.31h0l-.21,0-.09,0h-.05l-.13,0-.89-.23c-.59-.16-1.18-.33-1.75-.53s-1.15-.37-1.71-.6a64.19,64.19,0,0,1-6.54-2.94Z"/><path class="cls-1" d="M222.72,173.59c-21.23,7.23-35.81,1.71-35.81,1.71-7.25-2.25-1.34-6.09,3.58-8.46v5.08C190.53,170.94,211.52,172.62,222.72,173.59Z"/><path class="cls-1" d="M233.42,135.82l-1.69.65-.76.29-.09,0L230.69,162q0,5.55,0,11.09l0,2.27-10.38-1-9.2-.83c-6.12-.49-12.28-1.06-18.36-1.16h-.83c-.07,0-.15.05-.19,0l-.12-.24c-.15-.46-.36-.29-.54-.31a3.52,3.52,0,0,0-.5,0c0,.11-.23-.07-.37-.13l-.44-.26c0-4.76,0-9.53,0-14.25,0-7.22-.2-14.46,0-21.67.14-4.49,2.21,1.21,2.23,9.52v13q0,6.09-.08,12.17s0,.07,0,.06h.87c.74,0,1.48,0,2.21.05,1.45.06,2.9.15,4.35.24,2.9.2,5.78.45,8.68.71l20.6,1.82c0-1.46,0-2.92,0-4.37q.07-15,.17-30l0-3.4,15-5.81,6.13-2.38c.17,7.79.34,15.58.52,23.29.08,2.55.16,5.07.25,7.58q.15,4,.3,8L244.9,169l-4.23,2c-5.3,2.46-7,3.1-8.43,3.11a5.5,5.5,0,0,1-.92,0c-.69-.17,1.33-1.49,5.17-3.39l6.48-3.16,5.87-2.82v-.65l-.06-1.53c0-1-.07-2-.1-3.08-.07-2.06-.13-4.14-.19-6.22-.11-4.16-.23-8.36-.34-12.56-.08-3.47-.15-6.93-.23-10.41l-14.44,5.6Z"/><path class="cls-1" d="M391.29,351.93c-11.52,3-35.49,3.81-46.6,0-9.59-3.31-3.87-5.94.31-7.19,0,.52-.05,1-.07,1.57C357.61,349.89,364.78,351.46,391.29,351.93Z"/><path class="cls-1" d="M408.7,353.41c-8.9-.09-17.81-.24-26.73-.6-3.25-.13-6.51-.25-9.76-.5a118.22,118.22,0,0,1-17.12-2.44c-2.82-.62-5.59-1.4-8.35-2.19l-1.09-.32a13.93,13.93,0,0,1-1.58-.49l.14-2.78.22-4.29c.24-5.06.38-10.16.46-15.19.11-6.47,0-13,.27-19.42.14-4,2.23,1.08,2.17,8.56q-.07,9.93-.49,19.86-.21,5-.49,9.94l-.08,1.24,0,.31v.2c0,.09.08.06.12.1l1,.31c1.59.47,3.17.94,4.77,1.37a85.53,85.53,0,0,0,11.78,2.33c4,.51,8.1.8,12.15,1,8.92.49,17.88.67,26.84.79l9.86.09,5.86-2.5,14.4-6.15c0-1.36,0-2.72,0-4.07s-.06-3-.08-4.46c-.16-6.44-.59-12.73-1.05-19.08-.11-1.4-.21-2.77-.32-4.18-.36-5.23-.35-6.9.15-8.06a4.39,4.39,0,0,1,.34-.77c.4-.53.91,1.57,1.3,5.4.56,5.68,1,11.52,1.32,17.47.15,3,.26,6,.34,9l.09,4.52,0,5.36v.27l-21.93,9.42-4.49,0Z"/><path class="cls-1" d="M302,447.85c0,.07.06.15.09.21s0,0,0,0a2.55,2.55,0,0,0,.11.33s0,0,0,0,0-.2.06,0,.08,2.2.06,2.22-.07-.05-.12-.34-.05-.08-.08-.13a.67.67,0,0,1-.08-.17.47.47,0,0,1-.05-.1s-.06-.09-.08-.06a1.1,1.1,0,0,0,0,.27.2.2,0,0,0,0,.07s0-.11-.05-.68c0-.13,0-.26,0-.39,0-.44,0-.8,0-.93,0-.39,0-.44.08-.45s.06,0,.08.08Z"/><path class="cls-1" d="M303.62,449.18h-.22s0,0,0,0h.23Z"/><path class="cls-1" d="M388,450.91c-23.21,4.23-78,13.91-97.93,1.51-4.14-2.58,4.39-6.77,12.12-9.24q.06,3,.12,6C333.23,448,365.71,449.42,388,450.91Z"/><path class="cls-1" d="M301.65,413.46l.29-14,.05-5.12.46-18c.05-2.67.05-5.36,0-8,0-3.4-.18-6.82,0-10.22.15-2.12,2.21.57,2.22,4.49,0,7-.11,13.9-.45,20.91-.21,4.18-.15,8.55-.23,12.83l-.26,14.13c0,2.9-.07,5.8-.11,8.7,0,4.39-.08,8.8,0,13.16.06,3.39.25,6.71.39,10.05,0,.74.08,1.46.11,2.2.09,2.76,0,3.63-.59,4.24a2.45,2.45,0,0,1-.38.4c-.44.27-.82-.84-1-2.86-.5-6-.64-12.31-.67-18.66,0-4.71,0-9.45.06-14.17Z"/><path class="cls-1" d="M358.48,448c7.29.33,14.57.79,21.85,1.25l8,.51q14,1.1,28,2.59a1.87,1.87,0,0,0,.52,0l.56-.26,1.43-.64,2.84-1.3,5.64-2.62c4.8-2.24,9.57-4.6,14.48-6.59,3.06-1.25.11,2.37-5.43,4.93q-7.38,3.4-14.79,6.71l-3.73,1.65-.44.2-.23.1a1,1,0,0,1-.24,0l-.76-.08-1-.11-2-.23-8.11-.9c-6.48-.71-13.25-1.11-19.9-1.57-7.32-.53-14.64-1-22-1.34-4.51-.19-9-.44-13.53-.56-3.42-.11-6.84-.23-10.26-.28s-6.83-.12-10.22-.1c-5.28,0-10.44.23-15.65.4l-3.43.17c-4.28.17-5.65.06-6.59-.48a3.27,3.27,0,0,1-.63-.37c-.43-.43,1.31-.84,4.46-1.07,9.33-.72,19.19-.8,29.09-.71,7.34.09,14.72.31,22.08.63Z"/><path class="cls-1" d="M130.55,100a14.07,14.07,0,0,1-.89-5.5l0-.53.09-.53a4.07,4.07,0,0,1,.26-1,7.12,7.12,0,0,1,2.11-3.12,7.72,7.72,0,0,1,3.35-1.47,15.69,15.69,0,0,1,3.11-.27,9.77,9.77,0,0,1,3.86.64c.4.18.17.61-.26,1a2.29,2.29,0,0,1-1.75.58c-2.34-.35-4.75-.42-6.67.56a4.8,4.8,0,0,0-2.17,3.27,9.91,9.91,0,0,0,.32,4.74c.13.5.32,1,.48,1.47s.4,1,.63,1.42a18.1,18.1,0,0,0,2.55,4,12.54,12.54,0,0,0,2.7,2.31,4.3,4.3,0,0,0,.65.39,4.46,4.46,0,0,1,.79.58.88.88,0,0,1,.2.65,2.41,2.41,0,0,1,0,.38c0,.4-.56.51-1.36.23a13.45,13.45,0,0,1-5.49-4.8A22,22,0,0,1,130.5,100Z"/><path class="cls-1" d="M113,96.81c0,.24-.32.29-.72.21a.79.79,0,0,1-.4-.33,1.79,1.79,0,0,1,0-.46,13.76,13.76,0,0,1,.94-1.62,6.11,6.11,0,0,1,.86-1,16.2,16.2,0,0,1,2.11-1.75,2.16,2.16,0,0,1,.54-.29c.66-.28,1.29-.57,1.92-.87a.81.81,0,0,0,.32-.16,6.48,6.48,0,0,1,2.27-.63l.94,0c.3,0,.61.07.91.11.09,0,.18,0,.26,0a1,1,0,0,0,.54.17,4.7,4.7,0,0,1,.74.18,1,1,0,0,1,.34.22c.1.07,0,.28,0,.3s-.05.17-.05.26,0,.07,0,.1-1.39.25-1.52.28l-1,.07-1.11.22a1.15,1.15,0,0,1-.33,0l-.75.24-.73.33c-.3.08-.54.3-.88.3a.33.33,0,0,0-.17.07c-.46.28-.95.5-1.4.81a5.29,5.29,0,0,0-.66.51l-.13.07a1,1,0,0,0-.17.1,9.89,9.89,0,0,0-1.4,1.42c-.09.12-.69.58-.78.74S113,96.71,113,96.81Z"/><path class="cls-1" d="M118.76,99.7c.06.12-.05.19-.31.3h-.08c-.06,0,0,0,0,0l-.15-.07c-.09,0-.07,0-.09,0s-.13-.06-.18-.1a4.68,4.68,0,0,1-.15-.89,2.11,2.11,0,0,1,0-.66,4.24,4.24,0,0,1,.51-1.31,1.33,1.33,0,0,1,.21-.26c.29-.24.57-.49.88-.7a.57.57,0,0,0,.14-.13,2,2,0,0,1,.54-.28,3.23,3.23,0,0,1,.59-.13,8.25,8.25,0,0,1,.9.1s.09,0,.12,0a.29.29,0,0,0,.25.11,2,2,0,0,1,.35.09.48.48,0,0,1,.16.13c.05,0,0,.19,0,.2s0,.12,0,.18,0,0,0,.06a3,3,0,0,1-.7.24,3.46,3.46,0,0,0-.9.19.22.22,0,0,1-.14,0,2.25,2.25,0,0,0-.55.31.66.66,0,0,1-.31.16.07.07,0,0,0,0,0,3.67,3.67,0,0,0-.4.47,1.09,1.09,0,0,0-.14.31l0,0a.43.43,0,0,0,0,.07A2.5,2.5,0,0,0,119,99a4.68,4.68,0,0,0-.11.47S118.73,99.66,118.76,99.7Z"/><path class="cls-1" d="M140.41,95.74c.1.07,0,.21-.19.35s-.22.23-.29.19a1.21,1.21,0,0,0-.26-.18s-.34-.53-.47-.66a3.7,3.7,0,0,1-.29-.44,3.38,3.38,0,0,0-.64-.75.62.62,0,0,1-.14-.14.63.63,0,0,0-.27-.22.62.62,0,0,0-.32-.11s-.07,0-.12,0a1.32,1.32,0,0,1-.36,0c-.17,0-.36.05-.41,0a2.13,2.13,0,0,0-.7,0s-.06,0-.11,0-.17,0-.24,0a1.15,1.15,0,0,1-.31.11.71.71,0,0,1-.2,0c-.07,0-.12-.15-.12-.17s-.05-.11-.09-.16l0,0a3.42,3.42,0,0,1,.55-.64s.25-.12.51-.25a3,3,0,0,1,.65-.22.34.34,0,0,1,.2,0,3.61,3.61,0,0,1,1,0,1,1,0,0,1,.57.24.18.18,0,0,0,.1.06,2.33,2.33,0,0,1,.8.61,3.82,3.82,0,0,1,.34.36.3.3,0,0,1,0,.08l0,.1a10.36,10.36,0,0,1,.58.94c.05.07.11.48.15.56S140.37,95.7,140.41,95.74Z"/><path class="cls-1" d="M111.9,165.88c-4.81,9.44-9.49,19-11.75,29.27a51.48,51.48,0,0,0-.89,5.63,48.74,48.74,0,0,0-.19,5.66,32.48,32.48,0,0,0,1.77,9.74A31.71,31.71,0,0,0,109,228.5c1.24,1.11,2.56,2.17,3.91,3.19q4.06,3.06,8.38,5.83c5.08,3.29,10.36,6.33,15.68,9.11,3.41,1.79,6.9,3.45,10.43,5a100.71,100.71,0,0,0,10.73,4.11c2.26.68,1.87,1.15-.25,1.13a28.37,28.37,0,0,1-10.12-2.52,177.54,177.54,0,0,1-21.21-11c-3.41-2.06-6.78-4.19-10.07-6.48a77.41,77.41,0,0,1-9.51-7.51,34.3,34.3,0,0,1-8.06-12.49A35.92,35.92,0,0,1,97.06,202a63.15,63.15,0,0,1,3.52-15.9,139.85,139.85,0,0,1,6.32-14.9c1.46-3,2.92-5.92,4.48-8.87a75.92,75.92,0,0,1,5.27-8.49,47.52,47.52,0,0,1,4.91-5.8,34.27,34.27,0,0,1,5.89-4.84,17.08,17.08,0,0,1,1.64-1c.56-.3,1.11-.63,1.68-.9a29.19,29.19,0,0,1,3.55-1.42,31.85,31.85,0,0,1,3.69-1c.63-.11,1.26-.18,1.89-.27l.94-.12,1,0a12.11,12.11,0,0,1,5.85,1.39,18.06,18.06,0,0,1,4.69,3.64,61.77,61.77,0,0,1,6.84,9.3c.91,1.41,1.81,2.78,2.75,4.16a55.92,55.92,0,0,0,3.91,5.17,18.21,18.21,0,0,1,1.8,2.29,9.11,9.11,0,0,1,.53.8c.15.35-.39.29-1.46-.28a15.57,15.57,0,0,1-4.07-3.59,89.88,89.88,0,0,1-6-8.57,53.25,53.25,0,0,0-6.18-8.19c-2.33-2.39-5.24-4.07-8.4-4-.41,0-.78,0-1.2.07l-1.27.18c-.42.06-.85.09-1.27.18l-1.24.3c-.41.1-.84.17-1.24.31l-1.21.41a18.79,18.79,0,0,0-2.38,1,30.18,30.18,0,0,0-6.46,4.08,43.82,43.82,0,0,0-5.46,5.52A72.3,72.3,0,0,0,112,165.89Z"/><path class="cls-1" d="M133.48,119.22c-.18,0-.15-.24,0-.57a1.29,1.29,0,0,1,.37-.37,1.35,1.35,0,0,1,.31-.07s.67.25.89.3a2.58,2.58,0,0,1,.57.21,4,4,0,0,0,1.12.33.75.75,0,0,1,.24.08,1.14,1.14,0,0,0,.85.05c.05,0,.1,0,.14-.07a5.62,5.62,0,0,1,.86-.39,3,3,0,0,0,.81-.24s.07-.06.14,0,.21,0,.28-.09a1.63,1.63,0,0,1,.34-.21.73.73,0,0,1,.26,0c.09,0,.23.16.24.2s.12.12.19.18.06,0,.07.06a3.23,3.23,0,0,1-.38,1s-.25.24-.52.48a4.71,4.71,0,0,1-.67.5.57.57,0,0,1-.24.08,6,6,0,0,1-1.13.48c-.24,0-.48.14-.73,0a.32.32,0,0,0-.14,0,3.1,3.1,0,0,1-1.18-.16c-.19-.07-.39-.09-.59-.15l-.09-.06a.26.26,0,0,0-.11-.07,12.77,12.77,0,0,1-1.24-.58c-.1,0-.42-.44-.53-.49S133.55,119.23,133.48,119.22Z"/><path class="cls-1" d="M148.67,155a7.89,7.89,0,0,1-3.84.42,14.36,14.36,0,0,1-3.47-.88,20.62,20.62,0,0,1-2.32-1,48.56,48.56,0,0,1-7.21-4.75c-1-.77-2-1.51-3-2.26a23.19,23.19,0,0,1-3.71-3.07c-.67-.76,1.64-1.5,3-.36,2.51,2,5,4,7.54,6a25.2,25.2,0,0,0,5.07,2.9,11.54,11.54,0,0,0,5.92,1.31,4.79,4.79,0,0,0,3.08-1.6,11.34,11.34,0,0,0,2.3-5.29c.31-1.53.35-3.07.53-4.68.05-.35.07-.7.15-1.08a2.92,2.92,0,0,1,.72-1.53.85.85,0,0,1,1.1-.18.72.72,0,0,1,.26.36c0,.2-.08.47,0,.55s.07.15.08.13a.18.18,0,0,1,0,.1,1.63,1.63,0,0,1,0,.39c-.18,1.11-.23,2.62-.42,4.07a24,24,0,0,1-.93,4.56,11.78,11.78,0,0,1-1.65,3.36,7.23,7.23,0,0,1-3.16,2.54Z"/><path class="cls-1" d="M140,135.49a16.52,16.52,0,0,1-6.1.29c-.73-.15-1.47-.23-2.18-.4a22.08,22.08,0,0,1-6.8-3.51c-.86-.73-1.81-1.35-2.59-2.14a19.91,19.91,0,0,1-1.57-1.47,14.16,14.16,0,0,1-1.3-1.7c-.47-.75,1.69-1,2.66.14a33.75,33.75,0,0,0,6.13,5.29,14.46,14.46,0,0,0,2.24,1.08,18.31,18.31,0,0,0,2.41.67l1.35.27,1.36.09.69,0,.68,0c.46,0,.92-.06,1.37-.11l1.66-.37a15.12,15.12,0,0,0,1.59-.58c.2-.09.41-.15.6-.25l.56-.32,1.13-.64c.35-.25.68-.53,1-.8a6.55,6.55,0,0,0,1-.86,18.39,18.39,0,0,0,1.27-1.53l1-1.69a8,8,0,0,0,.38-.78c.48-1,.75-1.21,1.31-1.21a2.54,2.54,0,0,1,.39,0c.4.06.47.61.16,1.42a14.52,14.52,0,0,1-1.87,3.51c-.42.53-.89,1-1.36,1.55a5.11,5.11,0,0,1-.75.72l-.82.66-.61.49-.67.4-1.36.79-1.46.59c-.25.09-.48.2-.73.27l-.77.19Z"/></g></svg>