<svg id="Layer_1" data-name="Layer 1" xmlns="http://www.w3.org/2000/svg" width="520" height="520" viewBox="0 0 520 520"><defs><style>.cls-1{fill:#221f1f;}.cls-2{fill:#232020;}</style></defs><title>Notioly v2</title><g id="_22.Candle" data-name="22.Candle"><path class="cls-1" d="M263.48,240.47c-.85,1.3-1.69,2.6-2.5,3.92l-.84,1.48c-1.05,1.69-2.11,3.38-3.1,5.11-.44.77-.83,1.57-1.19,2.37a26,26,0,0,1-1.42,3c-.18.29-.61.1-.92-.34a1.86,1.86,0,0,1-.21-1.77,39.1,39.1,0,0,1,3.45-6.12c.79-1.16,1.43-2.47,2.16-3.7s1.65-2.68,2.49-4L263,238c.81-1.23,1.61-2.47,2.41-3.69.6-.95,1.13-1.94,1.75-2.9.14-.21.26-.43.41-.64.56-.76.91-.91,1.38-.72a1.79,1.79,0,0,1,.32.13c.32.2.3.69,0,1.22-.95,1.66-2.05,3.43-3.18,5.18-.83,1.3-1.69,2.61-2.5,3.94Z"/><path class="cls-1" d="M161.13,282.47c-12.14,4-19.3,18.24-19.3,18.24s-9.3-10-2.49-18.74C141.34,282.57,152,280.89,161.13,282.47Z"/><path class="cls-1" d="M138.23,286.88a11.58,11.58,0,0,0,0,4.8,16.93,16.93,0,0,0,1.74,4.69,18,18,0,0,0,1,1.58c.17.25.37.55.52.74l.13.19c0,.05.11.17.15.17l1.06-1.62c.59-.89,1.22-1.77,1.87-2.62a46.62,46.62,0,0,1,4.22-4.87,44.62,44.62,0,0,1,4.6-4.1,20.15,20.15,0,0,1,6.94-3.78c.79-.24.82.25.34.92a8.39,8.39,0,0,1-2.64,2.17,40.52,40.52,0,0,0-11.53,9.94,33.88,33.88,0,0,0-2.11,2.85c-.32.5-.65,1-.95,1.52l-.16.26-.19.34-.38.69-.74,1.4a18.26,18.26,0,0,1-1.29-1.43c-.21-.25-.42-.52-.62-.8l-.25-.32-.17-.26a22.09,22.09,0,0,1-2.55-4.92,14.47,14.47,0,0,1-1-5.5,11.88,11.88,0,0,1,2.15-6.51l.73-1.09c.28.05.55.11.83.15l.6,0c.36,0,.72,0,1.1,0l2.25-.06,4.5-.18c2.58-.1,5.11-.24,7.68-.16l1.69.06c2.12.18,2.78.45,3.14,1a1.55,1.55,0,0,1,.24.37c.13.4-.75.56-2.25.48-4.45-.2-9.15,0-13.93.19l-2.78.11c-.47,0-.94,0-1.43,0-.24,0-.51,0-.77,0,0,0,0,0,0,0s0,0,0,0l-.26.39-.33.48c-.09.18-.16.36-.25.53-.15.36-.34.7-.48,1.06l-.31,1.12Z"/><path class="cls-1" d="M234.58,132.62c-.63,8.65-8.52,15.51-9.08,15.36-2.8-.76-11.35-2.84-13.87-6a16.84,16.84,0,0,1,1.14-22c8.09-8.31,13.39-3.55,18.54-.58C234.51,123.48,234.92,127.92,234.58,132.62Z"/><path class="cls-1" d="M212.9,121.48a15.81,15.81,0,0,0-3.74,12.34,15.27,15.27,0,0,0,1.4,4.65,6.14,6.14,0,0,0,.48,1c.18.31.34.63.54.93l.62.88a5.16,5.16,0,0,0,.64.74,14.36,14.36,0,0,0,3.63,2.25,56.89,56.89,0,0,0,8.48,2.92l.37.11c.15.09.28,0,.42-.13s.46-.36.69-.56c.45-.4.89-.84,1.31-1.28a25.55,25.55,0,0,0,2.31-2.88,23.78,23.78,0,0,0,3.81-9.12c.16-1,.61-.87,1,.1a7.36,7.36,0,0,1-.31,4.81,24.57,24.57,0,0,1-3.47,6.06,25.83,25.83,0,0,1-2.29,2.63c-.42.41-.85.81-1.31,1.2l-.36.29-.44.32a1.78,1.78,0,0,1-1.47.38l-2.07-.59-1.86-.58c-1.25-.41-2.48-.86-3.71-1.37-1-.42-2-.86-3-1.38a13.44,13.44,0,0,1-2.88-1.93c-.22-.2-.43-.45-.64-.67s-.34-.46-.51-.7l-.5-.69-.44-.74a12.82,12.82,0,0,1-.78-1.52,13.41,13.41,0,0,1-.62-1.59,17.64,17.64,0,0,1,1.49-14.39,17.44,17.44,0,0,1,2.79-3.6,21.48,21.48,0,0,1,3.51-2.84,10.09,10.09,0,0,1,6.68-1.7,11.09,11.09,0,0,1,3.33.95,24.92,24.92,0,0,1,3,1.57c.75.43,1.47.88,2.2,1.28l.31.18a.68.68,0,0,1,.35.29l.43.56c.26.35.5.72.74,1.09a16,16,0,0,1,2,4.87,15.74,15.74,0,0,1,.39,2.28c.23,2.88-.05,3.78-.55,4.35a1.79,1.79,0,0,1-.35.37c-.4.24-.57-.91-.7-2.88a17.06,17.06,0,0,0-2.47-8.26c-.21-.3-.39-.61-.62-.9s-.25-.34-.22-.29,0,0,0,0l-.27-.16-2.05-1.21a20.27,20.27,0,0,0-4-1.95,8.39,8.39,0,0,0-3-.4c-.26,0-.51.08-.76.11a3.38,3.38,0,0,0-.75.17l-.74.23-.73.34a17.52,17.52,0,0,0-5.16,4.13Z"/><path class="cls-1" d="M304,139c-.06.15-.24.08-.26-.08-1-7.3-4.32-15.28-12.75-15.29-10.56,0-15.31,15.4-18.07,19.92-.33.53-8.59-9.68-14.15-6.1s-4.55,14.32,4.82,17.79c1.26.46-3.47,9.94-5.84,10.31-18.5,2.89-27.14-9.24-29.69-14.42,5.72-5.72,9.72-11.09,10.34-17.26.58-5.9,0-12.33-5.33-17.43,3.47-31.87,39.14-15.93,39.14-15.93,23.09-16.8,39.9-3.42,43.58,13.44C319,128.7,304,139,304,139Z"/><path class="cls-1" d="M239,103.68A22.49,22.49,0,0,0,234.47,114l-.21,1.44-.08.55s0,.07,0,.09l.39.41c.18.18.35.39.52.59a15,15,0,0,1,1,1.26,17.7,17.7,0,0,1,2.69,5.71,23.35,23.35,0,0,1,.78,6.19c0,1-.05,2.06-.14,3.08a21,21,0,0,1-.5,3.11,27.35,27.35,0,0,1-6,10.75q-1.44,1.71-3,3.29l-.66.68c-.06.07-.17.11-.05.26l.1.2.06.11.13.22.54.91a28.53,28.53,0,0,0,5.52,6.33,24.24,24.24,0,0,0,7.68,4.42,28,28,0,0,0,8.77,1.49l2.25,0,2.24-.24c.35,0,.81-.08,1.07-.12a1.87,1.87,0,0,0,.63-.4,9.49,9.49,0,0,0,1.39-1.59,25.89,25.89,0,0,0,2.26-3.85,18.74,18.74,0,0,0,.85-2c.05-.17.1-.34.14-.5a1.39,1.39,0,0,0,.06-.28.41.41,0,0,0,0-.22c0-.07-.12-.08-.18-.12l-.56-.24c-.24-.12-.49-.22-.73-.35l-1.39-.84c-.44-.32-.85-.67-1.28-1s-.77-.77-1.15-1.15a11.93,11.93,0,0,1-2.84-5.82,10.34,10.34,0,0,1,.87-6.44,8,8,0,0,1,2.15-2.55A5.27,5.27,0,0,1,261,136a8.15,8.15,0,0,1,3.62.72,17.34,17.34,0,0,1,3.09,1.75,33.78,33.78,0,0,1,2.74,2.16l1.28,1.15.49.44c.11.09.21.19.32.27s.13.12.17,0l.1-.17L273,142l.72-1.46,1.47-3.09a57.79,57.79,0,0,1,3.3-6,22.2,22.2,0,0,1,6.07-6.57,12.25,12.25,0,0,1,4.26-1.78,12.12,12.12,0,0,1,4.61,0,10.49,10.49,0,0,1,4.27,1.83,13.15,13.15,0,0,1,3.16,3.33,22.43,22.43,0,0,1,3.14,8.37,12.05,12.05,0,0,1,.22,2v.2l-.28,0h0s-.06.07,0,.08l0,0v-.05s0,.08,0,.09,0,0,0,0a.07.07,0,0,1-.08-.05c0-.08-.08-.17-.12-.27-.18-.4-.36-1-.63-1.7a38.29,38.29,0,0,0-2.45-5.67,12.53,12.53,0,0,0-5.77-5.64,11.13,11.13,0,0,0-3.86-.74,9.45,9.45,0,0,0-3.81.82,16,16,0,0,0-6.1,5.4,48.5,48.5,0,0,0-4.33,7.5l-1.95,4-.41.79-.55.9a4.76,4.76,0,0,1-.65.42,1.31,1.31,0,0,1-.78,0,6.65,6.65,0,0,1-1.59-1.23l-.82-.74c-2.14-1.93-4.44-3.8-6.94-4.61a4.4,4.4,0,0,0-3.45.16,6.36,6.36,0,0,0-2.46,2.76,7.88,7.88,0,0,0-.71,3.83,10.42,10.42,0,0,0,1,3.88A11.35,11.35,0,0,0,259.9,152a11.77,11.77,0,0,0,1.67,1.23c.3.18.58.38.89.53l1,.48.29.13a1.51,1.51,0,0,1,.85,1.83,5.05,5.05,0,0,1-.2.89c-.07.24-.15.46-.23.69a23.51,23.51,0,0,1-1.14,2.55A23.06,23.06,0,0,1,260,165a6.24,6.24,0,0,1-1.2,1,2.49,2.49,0,0,1-.95.37l-.69.07-2.77.3-2.81,0c-.93,0-1.87-.13-2.8-.19a26.59,26.59,0,0,1-10.68-3.52,27.85,27.85,0,0,1-8.29-7.55,29.76,29.76,0,0,1-1.7-2.6l-.19-.34-.26-.49-.53-1L227,151l.11-.11.22-.23.44-.44.64-.65a55.2,55.2,0,0,0,3.95-4.44,23,23,0,0,0,5.09-10.36,24.46,24.46,0,0,0-.82-11.54,15.94,15.94,0,0,0-2.89-5,6.3,6.3,0,0,0-.48-.55l-.61-.64c-.12-.14-.32-.27-.37-.43l.08-.58.13-.86.23-1.52c.08-.5.22-1,.33-1.5,1-4.91,3.63-9.77,7.91-12.7a19.35,19.35,0,0,1,7-3,29.79,29.79,0,0,1,7.53-.55,46.05,46.05,0,0,1,8.61,1.32c1.41.34,2.8.75,4.18,1.19.69.23,1.37.46,2.05.72l1,.39.72.29,1.18-.81q.72-.51,1.47-1l1.5-.92,1.54-.86a40,40,0,0,1,6.47-2.75,25.35,25.35,0,0,1,13.92-.6A24.06,24.06,0,0,1,312,103.26a31.42,31.42,0,0,1,3.72,7.88,23.22,23.22,0,0,1,1.14,8.71c-.08.64-.15,1.29-.23,1.94s-.29,1.26-.44,1.89a13.75,13.75,0,0,1-.6,1.85,12.17,12.17,0,0,1-.74,1.8,27.89,27.89,0,0,1-5.94,8.29,14.74,14.74,0,0,1-3.64,2.69,9.37,9.37,0,0,1-1.27.55c-.28.1-.28,0,0-.32s.65-.69,1.25-1.29a49.08,49.08,0,0,0,5.08-5.73,26.65,26.65,0,0,0,3.55-6.52,22.2,22.2,0,0,0,1-3.57l.21-1.84a16.29,16.29,0,0,0,0-1.85l0-.93c0-.3-.09-.61-.13-.92-.11-.61-.18-1.22-.3-1.84a33.25,33.25,0,0,0-1.09-3.65,28.63,28.63,0,0,0-3.49-6.78,22.07,22.07,0,0,0-12-8.86A24.16,24.16,0,0,0,283,95.9a41.64,41.64,0,0,0-5.18,2.48c-.85.44-1.65,1-2.47,1.49-.42.25-.81.55-1.21.82l-1.78,1.23-1.05-.45-.6-.25-1-.39c-.7-.26-1.4-.49-2.11-.72-1.41-.46-2.84-.85-4.29-1.2a42.62,42.62,0,0,0-8.76-1.17A24.28,24.28,0,0,0,245.92,99,15.91,15.91,0,0,0,239,103.7Z"/><path class="cls-1" d="M286.2,176.45a30.41,30.41,0,0,0,7.35-6.5,30.29,30.29,0,0,0,4.5-8.17,24.8,24.8,0,0,0,.83-2.79c.1-.47.23-.94.31-1.42l.16-1c.07-.37.12-.78.2-1.12.6.1,1.26.2,1.77.23,1.78.13,3.93-.24,3.84-1.83a3.06,3.06,0,0,0-1.62-2.37,9.17,9.17,0,0,0-3-1.36.48.48,0,0,1-.18-.06l-.09-.06a.48.48,0,0,1-.12-.21c-.07-.15.05-.47.45-.65a4,4,0,0,1,3.66.44,6.57,6.57,0,0,1,2.39,2.41,4.21,4.21,0,0,1,.34.94,3.3,3.3,0,0,1,.08,1,2.93,2.93,0,0,1-.22,1l-.18.47c-.09.16-.2.32-.31.48a3.77,3.77,0,0,1-1.65,1.18,6.43,6.43,0,0,1-1.66.36,10.08,10.08,0,0,1-1.55,0l-.34,0h0l-.08,0s0,.05-.06.1,0,0,0,.08l-.05.26a4.64,4.64,0,0,1-.11.51c-.18.67-.32,1.36-.54,2a32.8,32.8,0,0,1-3.94,8.71,30.93,30.93,0,0,1-7.28,7.51,27.3,27.3,0,0,1-2.69,1.79,18.31,18.31,0,0,1-3,1.36c-3.07,1.12-6.24,1.68-9.21,2.65a14.28,14.28,0,0,0-6,3.44,12.07,12.07,0,0,0-.88,1.15c-.93,1.54-1.05,2.12-1.68,2.38a2.87,2.87,0,0,1-.4.19c-.21.05-.33-.13-.35-.54a4.43,4.43,0,0,1,.05-.76,2.92,2.92,0,0,1,.3-1,7,7,0,0,1,.85-1.6l.54-.76c.19-.24.43-.44.64-.66s.44-.45.68-.64l.75-.54a10.87,10.87,0,0,1,1.57-.94,32.8,32.8,0,0,1,6.68-2.34c3.3-.88,6.6-1.63,9.23-3.39Z"/><path class="cls-1" d="M233.66,294l-4.78,9.56-2.36,4.79-3,6.28-2.11-2.81-1.18-1.7c-.75-1.06-1.46-2.13-2.25-3.15a49,49,0,0,0-7.11-7.64l-1.78-1.45a16.7,16.7,0,0,0-1.83-1.4l-1.91-1.28a18.29,18.29,0,0,0-1.95-1.24l-4.06-2.22c-1.41-.63-2.84-1.23-4.26-1.84a37.22,37.22,0,0,0-4.36-1.59l-2.21-.73a18.48,18.48,0,0,0-2.23-.66l-4.53-1.09-2.27-.54-2.3-.37-4.1-.65-2-.32-2.07-.17c-2.75-.22-5.5-.49-8.24-.64l-10.6-.17c-3.53.12-7.06.22-10.59.23-4.41,0,1.07-1.9,9.29-2.17l1.36-.05,1.37,0,2.72.06,5.46.13c1.82,0,3.64.25,5.45.38l5.45.5c7.23,1,14.5,2.28,21.43,4.88a59.1,59.1,0,0,1,6.19,2.47l1.55.66c.51.25,1,.53,1.5.8l3,1.6A51.59,51.59,0,0,1,215,300.81c.86.85,1.63,1.81,2.44,2.71s1.51,1.92,2.26,2.87l2.09,3,.91,1.34.41.55,6.09-12.36,8.14-16.19c4.15-8.14,8.42-16.28,12.68-24.3,3.33-6.22,6.51-12.37,10.16-18.35.82-1.32,1.6-2.61,2.49-3.9,3.26-4.78,4.88-6,6.15-6.45a4.22,4.22,0,0,1,.86-.21c.33,0,0,.37-.64,1.1s-1.67,2-2.88,3.63a164,164,0,0,0-9.84,16.22c-3.09,5.69-6.19,11.49-9.24,17.33q-6.79,13-13.4,26.22Z"/><path class="cls-1" d="M248.26,191.93c-5.75.69-11.12,3.47-15.79,7.08s-8.94,7.9-13.28,12.11c-3.18,3.08-6.4,6.1-9.72,9-11.7,10.25-23.92,19.82-35.81,29.76-5.27,4.42-10.53,8.92-15.54,13.54-6.45,5.93-12.67,12.14-18.49,18.64a12.46,12.46,0,0,1-.88.89l-.52-.93c1,0,.9.24.09.61l-.09,0,.05-.11a27.13,27.13,0,0,1,2.55-4.12,36.43,36.43,0,0,1,2.32-2.94c.9-1,1.86-2.14,2.94-3.24,12.7-12.83,26.71-24.08,40.76-35.43,8.41-6.78,17-14,25.19-21.41,2.27-2,4.43-4.12,6.62-6.21s4.33-4.28,6.57-6.36c4.46-4.15,9.34-8.07,15.05-10.57A27.19,27.19,0,0,1,251.46,190a30.42,30.42,0,0,1,11.11,2.44,105.6,105.6,0,0,1,15,8.11l14.36,9c7.41,4.63,14.79,9,22.3,13.22l5,2.77c6.22,3.43,8.14,4.63,9.25,5.78a7,7,0,0,1,.73.77c.43.64-2.28-.44-6.89-2.89-13.71-7.17-27.63-15.77-41.43-24.51a174.93,174.93,0,0,0-15.67-9.09c-5.32-2.7-11.13-4.36-16.94-3.64Z"/><path class="cls-1" d="M345.65,236.62c-2.68,3.25-5.66,6.44-9.56,8.54a28.73,28.73,0,0,1-12.52,2.8l-1.16,0c-.39,0-.78,0-1.17-.06l-2.32-.14c-1.53-.21-3.07-.33-4.57-.68-10.69-2.11-20.47-6.76-30.27-10.93-4.37-1.87-8.74-3.82-13-5.86a150.63,150.63,0,0,1-16-8.65c-3.17-2.06,1.78-1,7.85,2.3q8.11,4.36,16.51,8.19c2.81,1.28,5.63,2.48,8.49,3.73s5.67,2.5,8.52,3.71A108,108,0,0,0,307,243.46a64.16,64.16,0,0,0,11.05,2.42,33.89,33.89,0,0,0,12.18-.47,12.35,12.35,0,0,0,1.48-.38l1.43-.52a13.88,13.88,0,0,0,2.74-1.25,25,25,0,0,0,4.79-3.77A71.29,71.29,0,0,0,350,227.38c2.1-3.28,4.09-6.64,6.11-10a92.17,92.17,0,0,1,6.5-9.78,14.8,14.8,0,0,1,3.37-3.23,6.09,6.09,0,0,1,1.12-.54c.2-.07.41-.15.6-.2l.54-.12,2.14-.55a55.73,55.73,0,0,0,8.3-2.88,18.84,18.84,0,0,0,3.26-1.85,5.25,5.25,0,0,0,1.76-1.91,4,4,0,0,0,.14-.41,3.89,3.89,0,0,0,0-.39,6.62,6.62,0,0,0,0-.81,1.59,1.59,0,0,0-.25-.81,1.07,1.07,0,0,0-.57-.34,3.84,3.84,0,0,0-.73-.05c-.16,0-.18-.11,0-.28a1.61,1.61,0,0,1,1.08-.53,1.48,1.48,0,0,1,1.07.27,2.32,2.32,0,0,1,.8,1.1,5.4,5.4,0,0,1,.27,1.28,3.94,3.94,0,0,1,0,.77,3.37,3.37,0,0,1-.21.83,5.4,5.4,0,0,1-1.37,1.95,10.85,10.85,0,0,1-1.73,1.34,23.49,23.49,0,0,1-3.76,1.94,58.22,58.22,0,0,1-8,2.63l-2.05.5a7.09,7.09,0,0,0-.81.24c-.24.1-.48.26-.73.39a13,13,0,0,0-2.73,2.64,65.29,65.29,0,0,0-4.68,6.8c-4.37,7.08-8.42,14.53-13.73,21.24Z"/><path class="cls-1" d="M344.25,229.67a21,21,0,0,1-2.93-3,11.21,11.21,0,0,1-.93-1.22,18.85,18.85,0,0,1-2.23-4.85c-.25-.75-.46-1.51-.68-2.26a7.54,7.54,0,0,1-.42-3c.05-.35.52-.28,1-.05a1.69,1.69,0,0,1,1,1.12,34.51,34.51,0,0,0,1.36,5.43,11.89,11.89,0,0,0,1.72,3,18.39,18.39,0,0,0,2.56,2.88,6.82,6.82,0,0,0,.92.77l1,.71a17.43,17.43,0,0,0,1.56.94l.8.44.85.34a13.5,13.5,0,0,0,2.71.7c.2,0,.41.05.61.1.74.17.94.35,1,.86,0,.12,0,.24,0,.35,0,.39-.38.61-1,.56a14.12,14.12,0,0,1-2.7-.46,20.3,20.3,0,0,1-2.64-1L346,231c-.58-.41-1.16-.84-1.73-1.26Z"/><path class="cls-1" d="M257.11,296.21c.3,5.74.64,11.48,1.12,17.2.17,2.09.42,4.17.63,6.25a77.94,77.94,0,0,0,1.68,10.82,9.37,9.37,0,0,0,.41,1.2,2.26,2.26,0,0,0,.25.47c0,.1.23.23.36.35a8.76,8.76,0,0,0,2.23,1.2,34.75,34.75,0,0,0,5.21,1.53c1.59.35,3.2.62,4.81.82l1.21.13.59.06.41,0,.4,0h.84a6.37,6.37,0,0,0,.65-.05s.12,0,.12-.1-.06-.1-.1-.14a2.14,2.14,0,0,0-.32-.2c-.43-.23-.83-.39-1.23-.56l-5.62-2.33c-2.4-1,1.31-1.59,5.85.27l1,.44c.47.22,1,.43,1.42.66a7.76,7.76,0,0,1,2.19,1.37,1.45,1.45,0,0,1,.5,1.15,1.33,1.33,0,0,1-.6,1.07l-.1.09-.24.06-.51.1-.51.11c-.18,0-.48,0-.71,0h-1.48l-1.31-.1c-1-.06-1.38-.12-2-.19s-1.08-.15-1.62-.22a53.56,53.56,0,0,1-6.42-1.36,26.78,26.78,0,0,1-3.16-1.08,8.85,8.85,0,0,1-3.09-1.9,6,6,0,0,1-1-2.11c-.2-.66-.34-1.32-.49-2-.28-1.31-.5-2.62-.71-3.94-.4-2.64-.72-5.29-1-7.92-.57-5.79-.95-11.58-1.3-17.38-.2-3.56-.42-7.13-.55-10.7-.21-5.4-.4-10.83-.67-16.18-.21-4.17-.52-8.25-.79-12.37-.06-.9-.12-1.79-.18-2.7-.18-3.39-.11-4.48.34-5.22a2.44,2.44,0,0,1,.31-.49c.35-.34.72,1,.95,3.5.66,7.35,1.05,15.1,1.41,22.89.29,5.78.42,11.6.79,17.39Z"/><path class="cls-1" d="M285.92,332.36l.85.4.43.2.21.11.11.05.05,0h.06l.14.08a.94.94,0,0,1,.28,1.22.9.9,0,0,1-.54.45l-.16,0h-1.78c-.46,0-.93,0-1.39,0-1.62-.12-3.22-.33-4.81-.53-.71-.08-1.43-.14-2.13-.18a11.74,11.74,0,0,1-2.71-.32c-.55-.17.34-1.53,1.36-1.43,1.83.18,3.65.42,5.48.75a25,25,0,0,0,3.36.25c.62,0,1.23,0,1.84,0l.45,0h.16l.05.52s0,0,0,0,0,0,0,0h0l-.21.48h0l-.05,0-.84-.4c-.7-.32-1.4-.64-2.11-.93a32.56,32.56,0,0,0-3.25-1.2,14.82,14.82,0,0,0-2.57-.47c-.19,0-.37,0-.55,0-.68-.05-.83-.12-1-.51,0-.09-.1-.18-.13-.27-.14-.29.19-.61.81-.67a13.11,13.11,0,0,1,5.1.92c1.21.42,2.39.91,3.56,1.41Z"/><path class="cls-1" d="M286.7,332.7a17,17,0,0,0-2.57-1.26c-.33-.14-.68-.22-1-.36-1.18-.46-2.38-.91-3.6-1.3a15.85,15.85,0,0,0-1.65-.4,10.35,10.35,0,0,1-2-.43c0-.08-.06-.23-.13-.46,0,0,0,.14,0,.05a.62.62,0,0,1,0-.13.52.52,0,0,1,.11-.27,1.3,1.3,0,0,1,1.15-.58,20.2,20.2,0,0,1,4.36,1.35c.83.36,1.75.58,2.63.91a24.43,24.43,0,0,1,2.84,1.24,7.8,7.8,0,0,1,1.68,1.12,2.08,2.08,0,0,1,.51.77,1,1,0,0,1,0,.65.8.8,0,0,1-.57.52,3.94,3.94,0,0,1-1.62-.12c-.74-.16-1.46-.29-2.17-.47l-.46-.11c-.57-.18-.71-.34-.69-.76a2.71,2.71,0,0,1,0-.29c0-.31.37-.47.81-.41.64.09,1.28.24,1.9.39a11.85,11.85,0,0,0,1.72.33h.11v.08a.78.78,0,0,0,0,.14c.08.39.28.51.2.46a.75.75,0,0,0-.31,0,.77.77,0,0,0-.26.07l-.14,0h0l0-.06v0h0l.07,0h0l-.07,0h0a.43.43,0,0,1-.09-.1l-.22-.17a3.25,3.25,0,0,0-.53-.35Z"/><path class="cls-1" d="M267.49,297.46q-.08-8.47-.05-16.93c0-2.06,0-4.12,0-6.18.08-7.25.24-14.51.52-21.76.12-3.22.24-6.46.36-9.66a89.63,89.63,0,0,1,1.09-12.32c.24-1.27.67-1,1,.12a17.89,17.89,0,0,1,.3,5.46c-.66,8.28-.93,16.64-1.31,25.07-.21,5-.15,10.29-.17,15.45q0,8.51,0,17c0,3.5.09,7,.13,10.48.1,5.29.21,10.61.45,15.85l.18,3,.11,1.51.05.42c0,.11,0,.32.16.25l.38,0h.7c.52,0,1,0,1.56.08a23.49,23.49,0,0,1,3.09.45,20,20,0,0,1,2.65.79,9.77,9.77,0,0,1,3.21,1.88,2.64,2.64,0,0,1,.92,1.44,2.15,2.15,0,0,1,.08.57c-.11.5-1.06-.42-3.06-1.47a18,18,0,0,0-4.91-1.58,23.28,23.28,0,0,0-2.63-.31c-.44,0-.89,0-1.33,0h-2.36V327c-.07-.44-.13-.88-.19-1.33,0-.22-.06-.44-.07-.67l0-.43-.1-1.43-.15-2.85c-.08-1.91-.15-3.82-.23-5.73-.2-5.68-.3-11.39-.38-17.08Z"/><path class="cls-1" d="M265.39,296.65a19.23,19.23,0,0,1-3.76-.86c-.44-.15-.89-.26-1.32-.43a34.48,34.48,0,0,1-4.29-2.17c-.61-.36-1.24-.68-1.85-1a8.41,8.41,0,0,1-2.27-1.44c-.38-.39,1.14-1.48,2-1,1.51.91,3,1.82,4.5,2.78a14.24,14.24,0,0,0,3,1.28,19.24,19.24,0,0,0,3.4.93,11.89,11.89,0,0,0,2.14.18,7.73,7.73,0,0,0,3.13-.65,6.11,6.11,0,0,0,1.88-1.5c.11-.13.21-.28.32-.4.43-.5.63-.6,1.11-.42a3.21,3.21,0,0,1,.33.12c.35.17.4.59.12,1.11a7.19,7.19,0,0,1-4.34,3.18,11.45,11.45,0,0,1-4.06.31Z"/><path class="cls-1" d="M219.88,385.87c-27.39,8.65-67.22,10.68-88.09,32.66-1.8,1.89-7.86,11.42-11.19,7.94-7.18-7.53,24-28.18,26.61-29.89l-7,4.22-1-2.82a1.31,1.31,0,0,1,.56-1.56C163.55,381.81,222.39,365,222.39,365h-.82C214.62,348,180,321.11,180,321.11c5.9,6.33,9.91,13.84,13.71,21.6,6.76,13.78,6.89,21.92-10,25.05-15.69,2.89-35.59,6.72-50.41,12.65-16.42,6.58-31.26,11.41-45,22.39a1.43,1.43,0,0,1-2.17-1.74,41.46,41.46,0,0,1,14.95-16.41l6.94-3.46a39.07,39.07,0,0,0-6.94,3.46l-1.35.67c-2.17-.8-1.38-5.9-1.38-5.9a31.67,31.67,0,0,1,5.55-4q18.27-8.1,37.28-14.37c2.4-.79,30.73-9.49,32.1-7.87-8.54-10.11-13.62-18.12-20.83-29.23-11.56-17.83-5.7-30.19,9-41.81h0c14,.72,31.81,3.82,45.79,13.47,17.25,14.6,39.26,46.76,46.51,67.75C258.71,377.85,231.5,382.2,219.88,385.87Z"/><path class="cls-1" d="M101.09,378.63l-1,.81-.66.55V380l0,.44q0,.45,0,.9a7.8,7.8,0,0,0,.14,1.71,3.3,3.3,0,0,0,.22.69l.07.14v0l0,0a.06.06,0,0,0,.09,0l.6-.3.77-.46.87-.51c.59-.33,1.18-.64,1.79-.94,1.2-.6,2.44-1.14,3.7-1.62l.88,2-6.4,3.18-.4.2-.11.05-.18.12-.73.47c-.48.32-1,.66-1.42,1-.93.69-1.85,1.4-2.72,2.17a40.68,40.68,0,0,0-8.73,10.77c-.14.25-.27.51-.41.77l-.2.38a1.51,1.51,0,0,0-.14.3c-.06.14,0,.24.12.38a.32.32,0,0,0,.42,0L89,400.94c1-.75,1.93-1.45,2.92-2.14s2-1.36,3-2a105,105,0,0,1,12.66-6.92c8.71-4.07,17.69-7.29,26.55-10.82a196.78,196.78,0,0,1,27.61-7.88c7.88-1.77,15.9-3.2,23.75-4.74a29.61,29.61,0,0,0,5.56-1.8,11.37,11.37,0,0,0,4.43-3.3,8,8,0,0,0,1.57-5.09,19.39,19.39,0,0,0-1-5.65,58.23,58.23,0,0,0-3.22-7.69c-1.24-2.53-2.5-5-3.85-7.49a68,68,0,0,0-9.57-13.68l1.19-1.3a288.48,288.48,0,0,1,25.57,22.84,119.32,119.32,0,0,1,11.23,13c.41.59.86,1.15,1.26,1.76l1.14,1.84a19.72,19.72,0,0,1,1.11,1.88l.48,1,.24.49.12.25,0,.06,0,0s-.07.06-.1.09-.2.15-.24.2l.24,0,.24,0c.09,0,0,.06.08.09l.09.19a2.2,2.2,0,0,0,.2.41l.82.92a2.17,2.17,0,0,0,.57-.07l.28-.05h0l-.05,0-.11,0-.21.06-3.1.89-4.24,1.26q-16.36,4.89-32.49,10.51C173,382,162.34,386,152,390.74c-1.39.61-2.75,1.3-4.1,2s-2.75,1.32-4,2.1l-2,1.13-1,.56-.5.28a3.68,3.68,0,0,0-.4.24.69.69,0,0,0-.24.52.71.71,0,0,0,0,.14,1.67,1.67,0,0,0,.07.2l.18.54.49,1.41,6.36-3.81.68,1.08a151.66,151.66,0,0,0-19.4,15,54.1,54.1,0,0,0-4.19,4.38,20.84,20.84,0,0,0-3.24,4.94,6.21,6.21,0,0,0-.52,2.66,3.19,3.19,0,0,0,1.13,2.16,2,2,0,0,0,2.2,0,10.27,10.27,0,0,0,2.27-1.7,41,41,0,0,0,3.88-4.49,23.94,23.94,0,0,1,2-2.36c.74-.7,1.42-1.47,2.2-2.13a60.89,60.89,0,0,1,9.79-7.27A102.67,102.67,0,0,1,166,398.59c15.47-4.87,31.46-7.41,47-11.4,4.83-1.26,6.91-1.84,6.84-1.61s-2.35,1.19-6.4,2.51-9.89,2.93-17,4.65-15.4,3.62-24.28,6.09a122.23,122.23,0,0,0-23.85,9.05,66.58,66.58,0,0,0-10.6,6.92A50.48,50.48,0,0,0,133,419a22,22,0,0,0-2,2.37c-.67.85-1.36,1.71-2.09,2.55a25.69,25.69,0,0,1-2.37,2.42,8.77,8.77,0,0,1-3.23,1.93,3.74,3.74,0,0,1-2.37-.11,4,4,0,0,1-1.74-1.47,5.38,5.38,0,0,1-.86-4,14.84,14.84,0,0,1,3.15-6.25,48.65,48.65,0,0,1,4.45-4.92,113.76,113.76,0,0,1,10-8.46q5.17-4,10.62-7.54l1.26,2-8.29,4.95-1.34-3.91-.12-.34a2.6,2.6,0,0,1-.11-.62,2.44,2.44,0,0,1,.25-1.22,2.48,2.48,0,0,1,.81-.95l.2-.13.15-.08.3-.17c1.58-.89,3.14-1.81,4.74-2.66l4.84-2.43c1.62-.77,3.27-1.5,4.91-2.25q9.89-4.35,20-8.06c13.49-5,27.19-9.41,41-13.55l4.07-1.2,1.06-.3.16-.05c.05,0,.11,0,0,0h-.14s-.05-.07-.07-.11l-.67-1.38-.45-.93-.56-.89c-.75-1.18-1.42-2.41-2.29-3.52a109.38,109.38,0,0,0-11.07-13,281.49,281.49,0,0,0-25.79-23l1.13-1.24c6.1,6.52,10.28,14.46,14.11,22.32a60,60,0,0,1,2.61,6.11,24,24,0,0,1,1.47,6.62,10.14,10.14,0,0,1-1.85,6.72,13.34,13.34,0,0,1-5.54,4.09,37.29,37.29,0,0,1-8.22,2.29L175,370.22c-5.46,1.06-10.91,2.18-16.33,3.43s-10.79,2.66-16.08,4.31c-2.64.84-5.28,1.71-7.85,2.72l-7.78,3.05c-10.38,4-20.8,8.06-30.18,13.95-2.33,1.49-4.63,3-6.8,4.74l-.83.63-.42.32a2.21,2.21,0,0,1-.68.36,2.17,2.17,0,0,1-2.59-1.21,2.08,2.08,0,0,1,0-1.55,3.44,3.44,0,0,1,.26-.54l.25-.47c.32-.64.68-1.24,1-1.86a42.1,42.1,0,0,1,11.41-12.44c.72-.52,1.46-1,2.22-1.5a3,3,0,0,1,.34-.2l.3-.15.59-.29,1.18-.59,4.72-2.34.54,1.23a37.18,37.18,0,0,0-3.54,1.55c-.57.28-1.14.59-1.7.9l-.84.49-.41.24a5.3,5.3,0,0,1-.47.28l-1.05.52a2.26,2.26,0,0,1-.33.13l-.17.06c-.06,0-.11.05-.16,0a3.59,3.59,0,0,1-.63-.37,1.94,1.94,0,0,1-.52-.51l-.22-.3-.13-.27a5.14,5.14,0,0,1-.35-1.07,10.07,10.07,0,0,1-.19-2.1c0-.34,0-.68,0-1l0-.52c0-.25.06-.5.1-.74l.86-.74.69-.56c.46-.37.93-.74,1.41-1.09a16.38,16.38,0,0,1,3.1-1.9q3.21-1.41,6.45-2.78,6.47-2.72,13-5.22c8.74-3.31,17.59-6.42,26.59-9q5.32-1.56,10.7-3c1.79-.47,3.59-.92,5.4-1.33.9-.21,1.81-.41,2.72-.59l1.38-.24.66-.1.36,0a2.49,2.49,0,0,1,.77,0l.11,0s.07.06,0,0l-.15-.18-.29-.35L170,350.13,168,347.69c-1.28-1.65-2.52-3.32-3.74-5-2.44-3.37-4.77-6.81-7-10.28l-3.4-5.21-1.69-2.61c-.55-.87-1.08-1.79-1.62-2.68a34.81,34.81,0,0,1-4.42-11.73,22.36,22.36,0,0,1,1.45-12.44,34.51,34.51,0,0,1,7.14-10.27c.72-.75,1.45-1.49,2.24-2.17s1.52-1.42,2.34-2.06l1.19-1a9.45,9.45,0,0,1,.77-.61c.36,0,.76,0,1,.05,1,.06,2.06.12,3.09.22a117.85,117.85,0,0,1,12.28,1.61A84.89,84.89,0,0,1,200.43,291c.89.45,1.79.9,2.65,1.42s1.75,1,2.58,1.54l1.26.82.66.42.57.52,2.24,2c1.46,1.35,2.88,2.76,4.28,4.17s2.77,2.85,4.07,4.36a208.1,208.1,0,0,1,14.74,18.65A218.64,218.64,0,0,1,246.15,345c.85,1.53,1.63,3.09,2.45,4.62s1.53,3.13,2.29,4.69,1.4,3.19,2.1,4.8c.31.82.62,1.64.94,2.47a21.49,21.49,0,0,1,.87,2.57,9.93,9.93,0,0,1,0,5.05,10.62,10.62,0,0,1-2.22,4,21.43,21.43,0,0,1-6.18,4.67,59.4,59.4,0,0,1-10.55,4.16,114,114,0,0,1-12,2.89l-3.64.7c-1.26.2.63-.62,5.18-2,2.27-.69,5.19-1.51,8.65-2.61a67.45,67.45,0,0,0,11.57-4.65,23.56,23.56,0,0,0,4.24-2.87,10.91,10.91,0,0,0,2.94-3.89,7.77,7.77,0,0,0,.39-4.7c-.1-.39-.23-.78-.33-1.18s-.31-.82-.47-1.24l-.94-2.48A147.13,147.13,0,0,0,241.73,341q-5.5-9.31-12-18.16a195.08,195.08,0,0,0-13.84-17c-2.5-2.66-5.05-5.31-7.79-7.72l-1-.91-.51-.45-.12-.11-.05,0-.29-.18-2.28-1.48-2.37-1.36c-.79-.45-1.61-.84-2.42-1.26a83.26,83.26,0,0,0-20.84-6.85c-3.62-.71-7.29-1.23-11-1.59-.92-.1-1.84-.15-2.77-.23l-1.38-.1-1.29-.08h0l-.41.33-1.06.89c-.72.57-1.39,1.2-2.07,1.82a41.34,41.34,0,0,0-7.1,8.22,21.53,21.53,0,0,0-3.09,16.44c.27,1.06.56,2.12.89,3.17s.77,2.08,1.24,3.09,1,2,1.51,3l1.74,2.89,3.75,5.79c2.52,3.86,5.05,7.69,7.72,11.42q2,2.81,4.1,5.52l2.12,2.71,1.08,1.33,2,2.36-.58.5-.29.26c-.08.06,0,0,0,0l0,0-1,.79-.42.26-.59.06c-.49.05-.54.07-.75.1l-1.13.19c-.75.14-1.51.3-2.27.47-1.51.34-3,.71-4.54,1.09-3,.78-6.06,1.61-9.07,2.47s-6,1.75-9,2.67-5.95,1.91-8.93,2.94q-8.9,3.08-17.65,6.57-4.37,1.74-8.7,3.6l-4.32,1.87-.54.24a4.51,4.51,0,0,0-.44.22c-.31.17-.62.35-.93.56-.62.4-1.24.85-1.84,1.32Z"/><path class="cls-1" d="M288.23,136c0,.21-.3.1-.71-.18a2,2,0,0,1-.45-.53,1.72,1.72,0,0,1,0-.45,9.25,9.25,0,0,1,.81-1.13,3,3,0,0,1,.76-.65,11.06,11.06,0,0,1,1.88-1A1.67,1.67,0,0,1,291,132c.58,0,1.13-.08,1.7-.14a.51.51,0,0,0,.29-.06,2.07,2.07,0,0,1,.95,0,3,3,0,0,1,.94.28,8.81,8.81,0,0,1,1.15.9c.05.05.12.06.13.16s.15.28.26.37a2.14,2.14,0,0,1,.37.42.73.73,0,0,1,.07.35c0,.11-.2.31-.24.32s-.16.17-.23.27l-.08.1a7.55,7.55,0,0,1-1.16-.09,4.45,4.45,0,0,0-1.28-.35c-.07,0-.12-.07-.18-.11h-.47c-.22,0-.44.07-.45.06-.18,0-.34.08-.54-.07,0,0-.07,0-.11,0-.3.09-.63.11-1,.21a1.88,1.88,0,0,0-.48.22h-.1a.3.3,0,0,0-.13,0,4.62,4.62,0,0,0-1.1.74c-.07.07-.61.22-.68.32S288.24,135.91,288.23,136Z"/><path class="cls-1" d="M297.18,164.52c.07-.14.21,0,.45.31a1.1,1.1,0,0,1,.21.48,1.92,1.92,0,0,1-.14.33,4.45,4.45,0,0,1-1.13.53,2.45,2.45,0,0,1-.85.1,7.58,7.58,0,0,1-1.65-.27,1.06,1.06,0,0,1-.34-.16,8.46,8.46,0,0,0-1.11-.59.37.37,0,0,0-.21-.06c-.16.06-1.11-.67-1.18-.83a6.31,6.31,0,0,1-.54-1.07c0-.06-.07-.1,0-.17a.41.41,0,0,0,0-.38,1.18,1.18,0,0,1-.08-.49.68.68,0,0,1,.12-.26c0-.08.27-.08.3-.07s.17,0,.26,0l.1,0a1.82,1.82,0,0,1,.31.26,3.7,3.7,0,0,1,.33.24,2.94,2.94,0,0,0,.75.67c.05,0,.07.09.1.14a4.2,4.2,0,0,0,.74.35c.12.1.3.1.38.29a.11.11,0,0,0,.09.06c.27.07.51.21.78.31a2,2,0,0,0,.42.09s0,0,.07,0a.18.18,0,0,0,.09,0,2.76,2.76,0,0,0,1,0c.07,0,.45.09.52,0S297.16,164.58,297.18,164.52Z"/><path class="cls-1" d="M385.12,187.56a3.42,3.42,0,0,1,1,2.42c0,.27,0,.54,0,.8a3.26,3.26,0,0,1-.56,1.51,4.15,4.15,0,0,1-1.08,1c-.35.22-.69.44-1,.63a2.28,2.28,0,0,1-1.43.45c-.18,0-.22-.49-.21-.95s.07-.94.27-1a10.72,10.72,0,0,0,1.89-.87c.34-.24.37-.57.38-1.05a2.31,2.31,0,0,0-.21-1.36,1.3,1.3,0,0,0-.61-.51,3.67,3.67,0,0,0-1.53-.28c-.44,0-.88.13-1.4.16a1.94,1.94,0,0,1-.35,0c-.46,0-.64-.29-.51-.74a3,3,0,0,1,.1-.32,1.39,1.39,0,0,1,.54-.64,6.07,6.07,0,0,1,2.36-.23,4.21,4.21,0,0,1,2.39.92Z"/><path class="cls-1" d="M385.81,180.12a4.34,4.34,0,0,1,.35.49,3.82,3.82,0,0,1,.27,2.93,3.9,3.9,0,0,1-.53,1.06,8.14,8.14,0,0,1-2.86,2.13c-.44.22-.87.46-1.3.7a4.27,4.27,0,0,1-1.76.69c-.41,0-.49-1.8.08-2l3.14-1.38a3.41,3.41,0,0,0,1.38-1.3,1.71,1.71,0,0,0,.12-1.71l-.06-.16a.84.84,0,0,0-.63-.42,4,4,0,0,0-2,.16,5.13,5.13,0,0,0-1.42.86l-.26.23c-.34.26-.49.25-.89-.05l-.27-.21a.66.66,0,0,1-.05-1,5.54,5.54,0,0,1,3.31-1.8,5.19,5.19,0,0,1,1.59-.07,3.13,3.13,0,0,1,1.86.82Z"/><path class="cls-1" d="M348.58,203.81c2.91-3.38,5.76-6.8,8.6-10.23l3.06-3.81,5.5-6.63a32,32,0,0,1,3-3.25,24.35,24.35,0,0,1,3.57-2.61,27,27,0,0,1,7.14-3.2,5.46,5.46,0,0,1,1.39-.17,4.51,4.51,0,0,1,1.42.27,3.1,3.1,0,0,1,1.28.95,3.21,3.21,0,0,1,.6,1.43,4.65,4.65,0,0,1,0,1.44,3.53,3.53,0,0,1-.52,1.44,4.25,4.25,0,0,1-2.32,1.64c-.55.16-.83.06-.85-.12s.19-.45.49-.8a7.67,7.67,0,0,0,1-1.27,2.35,2.35,0,0,0,.24-.72c0-.12,0-.24,0-.38s0-.35,0-.51a1.32,1.32,0,0,0-.47-1.16,2.24,2.24,0,0,0-1.5-.25,17.43,17.43,0,0,0-4.32,1.51,29.42,29.42,0,0,0-4.15,2.37,18.26,18.26,0,0,0-3.56,3.13c-2.63,3-5.15,6.3-7.73,9.46q-4.26,5.22-8.62,10.39l-5.4,6.31c-2.74,3.18-5.57,6.31-8.37,9.39-2.18,2.39-4.28,4.78-6.55,7.07L330,227c-1.94,1.82-2.71,2.25-3.43,2.26a1.93,1.93,0,0,1-.49,0c-.42-.12.19-1.06,1.55-2.38,4-4,8-8.41,12.06-12.9,3-3.35,5.93-6.73,8.82-10.17Z"/><path class="cls-1" d="M377.71,169.68a.12.12,0,0,0-.16-.09.17.17,0,0,0-.1.07c0,.05,0,0-.13.32s-.17.66-.29,1c-.44,1.11-.95,2.16-1.45,3.22-.22.47-.4,1-.57,1.44a5.25,5.25,0,0,1-.82,1.8c-.28.32-1.64-.87-1.37-1.55a26.5,26.5,0,0,1,1.76-3.54,11.91,11.91,0,0,0,.86-2.24l.2-.62.15-.42a4.25,4.25,0,0,1,.21-.49,1.73,1.73,0,0,1,1.56-1c.8,0,1.43.82,1.76,1.44a8.29,8.29,0,0,1,.8,2.61,10.52,10.52,0,0,1,.2,2.12,4.15,4.15,0,0,1,0,.49c-.13.61-.37.79-.85.68a3.18,3.18,0,0,1-.33-.09.84.84,0,0,1-.54-.74,14.07,14.07,0,0,0-.36-2.94,6,6,0,0,0-.36-1l-.12-.23,0-.07s0,0,0,0Z"/><path class="cls-1" d="M299.71,146.48a3.09,3.09,0,0,1-1.27,1.13,2.86,2.86,0,0,1-.72.29,2.63,2.63,0,0,1-.8.14,3,3,0,0,1-.6,0,1.53,1.53,0,0,1-.57-.12,3.67,3.67,0,0,1-1.56-1.06,6.65,6.65,0,0,1-.95-1.4c-.21-.44-.44-.86-.62-1.31a2.86,2.86,0,0,1-.33-1.85c0-.21.52-.16,1,0s.9.29,1,.53a11.72,11.72,0,0,0,1,2.62,1.71,1.71,0,0,0,1.22.84,1.17,1.17,0,0,0,.37,0,1.32,1.32,0,0,0,.39-.06,2.52,2.52,0,0,0,.75-.38,1.36,1.36,0,0,0,.47-.89,4.51,4.51,0,0,0-.15-1.94,9,9,0,0,0-.66-1.5c0-.12-.12-.22-.16-.34-.16-.43-.08-.62.36-.84l.3-.14a.72.72,0,0,1,.89.24,7.51,7.51,0,0,1,1.18,3,5.54,5.54,0,0,1,.07,1.43,3.61,3.61,0,0,1-.48,1.63Z"/><path class="cls-1" d="M387.67,159.86a5.77,5.77,0,0,0-1.78,1.1,3.59,3.59,0,0,0-.63.73,3.84,3.84,0,0,0-.34.87,3.64,3.64,0,0,0,0,1.43,5.11,5.11,0,0,0,.27,1c.06.17.14.33.21.5s.31.55.5.84a22.06,22.06,0,0,1-1.08,2.21c-.32.59-.67,1.17-1,1.75-.5.82-1,1.65-1.55,2.45a8.22,8.22,0,0,1-2.62,2.76c-.36.21-.56-.22-.6-.78a2.29,2.29,0,0,1,.49-1.65,40.28,40.28,0,0,0,4-5.76c.12-.2.23-.4.34-.6s.09-.14.12-.21l-.07-.12-.13-.25c-.13-.26-.24-.53-.35-.81a5.7,5.7,0,0,1-.38-1.75,4.85,4.85,0,0,1,.7-2.85,6.2,6.2,0,0,1,2.05-1.94,6.45,6.45,0,0,1,.74-.38,5.24,5.24,0,0,1,.86-.38l1.06-.36.53-.18.13,0c.05,0,.09,0,.09,0l.06.28c.13.54.22,1.1.3,1.67l.07.67,0,.6a12.51,12.51,0,0,1-.11,2.44,7.39,7.39,0,0,1-.5,1.91,5.68,5.68,0,0,1-.57.9,3.05,3.05,0,0,1-.83.73,2.69,2.69,0,0,1-.87.42,5.94,5.94,0,0,1-.74.16,2.14,2.14,0,0,1-.49-.09.7.7,0,0,1-.49-.47,2.19,2.19,0,0,1-.12-.33c0-.37.35-.69.92-.79a2.35,2.35,0,0,0,1.62-1.43,7.28,7.28,0,0,0,.41-2.72c0-.65-.14-1.87-.09-1.56,0,0,0,0,0,0h0s0,0-.17.08Z"/><path class="cls-1" d="M385.21,165.8s-1.79-3.39,1.2-5.35C388.69,159,387.68,166.87,385.21,165.8Z"/><path class="cls-1" d="M274.39,232.41c-1.64-.76-3.28-1.53-4.91-2.33-.6-.28-1.21-.53-1.8-.83-2.09-1-4.13-2.18-6.16-3.36l-2.69-1.58a12.63,12.63,0,0,1-3.23-2.43c-.29-.31,0-.55.55-.6a2.67,2.67,0,0,1,1.78.49c2.08,1.5,4.37,2.83,6.66,4.24,1.38.83,2.91,1.5,4.4,2.22s3.27,1.57,4.92,2.33l3,1.38c1.55.69,3.11,1.39,4.66,2,1.22.5,2.44.91,3.65,1.38l.8.3c1,.43,1.26.68,1.29,1.14,0,.1,0,.21,0,.31-.05.32-.55.37-1.28.12-2.19-.72-4.44-1.62-6.7-2.58-1.67-.71-3.34-1.45-5-2.19Z"/><path class="cls-1" d="M258.31,328.4s-5.94,3.43-2.14,6.52,13,2.15,13,2.15l-8.45-4.28Z"/><path class="cls-1" d="M401.48,176.39c.26,3.3,1.43,6.63,4.07,8.46a9.49,9.49,0,0,0,3.2,1.4,15.92,15.92,0,0,0,6.38.21,9,9,0,0,0,5.46-2.9,10.13,10.13,0,0,0,2.19-5.18,28.84,28.84,0,0,0-.16-7.42c-.1-.75.37-.79,1-.21a5.43,5.43,0,0,1,1.32,3.38,16.87,16.87,0,0,1-1.4,8.25,10,10,0,0,1-2.7,3.46,10.38,10.38,0,0,1-3.88,1.95,19.53,19.53,0,0,1-5,.6,14.05,14.05,0,0,1-5.06-.88,10.29,10.29,0,0,1-4.54-3.44,13.2,13.2,0,0,1-2.22-5.14,24.11,24.11,0,0,1-.36-6.72l.07-.77.1-.87a15.63,15.63,0,0,1,.41-2.08l1.17.52.58.24.49.2c.52.21,1.06.4,1.59.59,1.07.37,2.15.72,3.24,1a22.33,22.33,0,0,0,7.32.7l.78-.08c.26,0,.5-.11.76-.15l.65-.12.52-.16c.31-.1.58-.14.79-.19a1.59,1.59,0,0,1,1,0,2.41,2.41,0,0,1,.43.14c.2.1.15.32-.13.64a4,4,0,0,1-1.6,1,15,15,0,0,1-7.3.63,36.48,36.48,0,0,1-7.14-1.74c-.55-.19-1.09-.38-1.63-.6l-.18-.07h0l0,.13c-.07.58-.12,1.16-.15,1.75a23.63,23.63,0,0,0,.06,3.47Z"/><path class="cls-2" d="M411.36,166.64h0c.05,0,.08,0,.08,0V172s0,0-.08,0a0,0,0,0,0,0,0,5.24,5.24,0,0,0,1.22.07,5.31,5.31,0,0,0,1.22-.07h0s-.07,0-.07,0v-5.33s0,0,.07,0h0a5.31,5.31,0,0,0-1.22-.07A5.24,5.24,0,0,0,411.36,166.64Z"/><path class="cls-1" d="M410.53,161.8c0-.07-.17-.22-.28-.15s0,.09-.05.12-.18.75-.12,1.32a2.53,2.53,0,0,0,.21.76c.14.31.38.57.34.92,0,.11-.42.33-.87.45s-.95.1-1.05-.13a4.41,4.41,0,0,1-.34-2.51,5.21,5.21,0,0,0,.05-.87,3,3,0,0,1,.19-1.09,1.4,1.4,0,0,1,.75-.78,1.57,1.57,0,0,1,1.07,0,6.21,6.21,0,0,1,.66.28l.27.14c0,.23.08.27,0,.15s0,0,0,0l0,0,0,0,.09-.14a6.16,6.16,0,0,0,.37-.63,4.53,4.53,0,0,1,.69-1.15,1.37,1.37,0,0,1,.31-.26c.51-.25.81,0,.82.43a1.82,1.82,0,0,1,0,.33,4.67,4.67,0,0,1-.1.49,1,1,0,0,0,0,.17v.05c.06.19.07.18.07.27a1.35,1.35,0,0,1-.09.26c-.09.2-.22.44-.38.73l-.19.34a1.75,1.75,0,0,1-1,.8,1.77,1.77,0,0,1-1.05,0l-.25-.1h0Z"/><path class="cls-1" d="M391.43,239.44l.18-23.12q0-4.22,0-8.43l.19-20.24,11,.09c4.39,0,8.81,0,13.18,0,5.6,0,11.23-.17,16.83,0,3.49.12-.94,1.87-7.4,1.89q-8.19,0-16.39,0l-8.22-.09-4.11-.06-2.07,0h-.77c-.09,0-.05,0-.09,0l-.22,0,0,.17V190c-.15,6.9-.07,14.09-.11,21.15q-.08,11.64-.14,23.29l-.09,14.33c0,7.23-.08,14.5-.06,21.68,0,5.6.15,11,.23,16.61,0,.65,0,1.3,0,2l-3.22,0c-4.55,0-6-.09-7-.58a4.17,4.17,0,0,1-.64-.33c-.44-.37,1.41-.68,4.74-.79l2.61-.08,1.33,0h.35l0-.15v-.38l0-1.56c0-1,0-2.08-.05-3.12q0-3.15-.07-6.33c0-4.25,0-8.56,0-12.86,0-7.76,0-15.55.07-23.33Z"/></g></svg>