<svg id="Layer_1" data-name="Layer 1" xmlns="http://www.w3.org/2000/svg" width="520" height="520" viewBox="0 0 520 520"><defs><style>.cls-1{fill:#221f1f;}</style></defs><title>Notioly v2</title><g id="_23.Pet" data-name="23.Pet"><path class="cls-1" d="M334.46,200.92c-.26.08-.34,0-.61-.1s-.62-.35-1-.56-.54-.73-.26-.94a3.88,3.88,0,0,1,.81-.47,3,3,0,0,1,.45-.18,4,4,0,0,1,.6-.12,9.29,9.29,0,0,1,2.16.07l1.94.32,2.32.47a7,7,0,0,0,.12.84,2.76,2.76,0,0,1,0,.89,3.72,3.72,0,0,1-.34,1.36l-.44.67a2.56,2.56,0,0,1-.59.72,20.35,20.35,0,0,1-1.7,1.38l-.9.68-.37.3a1.85,1.85,0,0,0-.23.21h0l0,0-.15-.15a8.21,8.21,0,0,0-.66-.54,2.3,2.3,0,0,0-.51-.35.94.94,0,0,0-.38-.16c-.16-.07-.22.06,0-.12a.83.83,0,0,0,.07-.13l.13-.23a1.34,1.34,0,0,0,.09-.26l0-.13.07-.19a5,5,0,0,0,.17-.77c0-.11,0-.31,0-.34h.12c.2,0,.56,0,.89-.05a6.13,6.13,0,0,0,1.6-.42c1.17-.42,2.56-1.32,4.5-1.94a7.51,7.51,0,0,1,2.87-.33,10.83,10.83,0,0,1,2.7.6l4,1.33-3.1,2.73a9.21,9.21,0,0,1-3.22,1.74,14,14,0,0,0-2.18.82,1,1,0,0,0-.28.17c-.09.06-.08.12-.07.2s0,.08,0,.11,0,0,0,.19l-1.64-2.67a2.25,2.25,0,0,0,.51,0,6.47,6.47,0,0,0,1.09-.18c.81-.21,1.57-.5,1.81-.56,1.89-.46,3.86-1.31,6-2a2,2,0,0,1,.93-.23,5.14,5.14,0,0,0,2.1-.36,8.5,8.5,0,0,1,3.13-.23,3.22,3.22,0,0,1,1.49.79c.39.32-.06.71-.2.74-.43,0-.19.39-.24.61a1.55,1.55,0,0,1-.07.23s-.3,0-.69.16a7,7,0,0,0-1.42.46c-1.06.45-2.19,1.18-2.44,1.28,0,0-.44.19-1.08.51s-1.48.76-2.37,1.24c-1.76,1-3.86,2-4.34,2.13a5.7,5.7,0,0,1-1.58.36c-.07,0-.53.15-1.33.27a6.78,6.78,0,0,1-3.41-.35l-1.72-.66.15-1.9c0-.34.06-.69.11-1a8.76,8.76,0,0,1,.33-1.07,5.28,5.28,0,0,1,1.14-1.7,6.81,6.81,0,0,1,1.07-.86,4.15,4.15,0,0,1,.48-.29,16.1,16.1,0,0,1,2.17-.85,5.5,5.5,0,0,1,1.63-.31.84.84,0,0,0,.42-.15c.13-.08.19-.15.26-.19l1,4.15a4.44,4.44,0,0,0-1.68-.26,6.78,6.78,0,0,0-2,.49c-.93.34-1.94.92-3.17,1.35a4.93,4.93,0,0,1-.71.16c-.29.06-.62.08-.93.15a8.66,8.66,0,0,1-1.23.17,10.87,10.87,0,0,1-1.16,0,6.38,6.38,0,0,1-.7-.05,2.53,2.53,0,0,1-.45-.08l-.26-.06-.4-.16-.2-.1a3.05,3.05,0,0,1-.32-.22,2.2,2.2,0,0,1-.6-.72,2.41,2.41,0,0,1-.22-.56,3.07,3.07,0,0,1-.06-.52,2.24,2.24,0,0,1,.06-.52,1.4,1.4,0,0,1,.09-.29,2.84,2.84,0,0,1,.76-1.14,7.57,7.57,0,0,1,1-.82l.35-.26a.79.79,0,0,0,.24-.25,3.12,3.12,0,0,1,.34-.18c.28-.15.17-.25.07-.3a.33.33,0,0,0-.22-.11c-.07,0,0-.12-.11-.24S334.56,200.89,334.46,200.92Z"/><path class="cls-1" d="M208.12,372.66c-4.42.48-9.16,5-7.42,8.8,2.2,4.75,7.22,1.89,8-2.17C209,378.15,210,373.61,208.12,372.66Z"/><path class="cls-1" d="M206.46,384.76a5,5,0,0,1-3.27.48,4.56,4.56,0,0,1-2.73-1.81l-.34-.45-.27-.46a3.66,3.66,0,0,1-.45-1,5.42,5.42,0,0,1,.3-3.82,8.46,8.46,0,0,1,2.08-2.78,15.79,15.79,0,0,1,2.35-1.83,6.37,6.37,0,0,1,3.62-1.24c.42,0,.39.64.19,1.29s-.54,1.3-1.05,1.47a11,11,0,0,0-4.84,3.46,2.78,2.78,0,0,0-.58,1.57,2.94,2.94,0,0,0,.35,1.57c.56,1.24,1.5,2,2.73,1.72a4.1,4.1,0,0,0,2.1-1.24,5.3,5.3,0,0,0,1.1-1.65,5.66,5.66,0,0,0,.3-1c.08-.37.15-.72.2-1.09a9.17,9.17,0,0,0-.1-3.2c0-.21-.13-.38-.18-.56a1,1,0,0,1-.14-.56c0-.16.12-.33.23-.64.05-.14.07-.3.12-.45a.52.52,0,0,1,.56-.41,1,1,0,0,1,.54.16,1.68,1.68,0,0,1,.53.5,6.28,6.28,0,0,1,.92,3.77,14.4,14.4,0,0,1-.15,1.75l-.15.85-.07.41-.13.5a7.65,7.65,0,0,1-3.74,4.7Z"/><path class="cls-1" d="M210,399.66c0,5.5-.66,11.61-4.06,15.79C199,407.54,206.38,399,210,399.66Z"/><path class="cls-1" d="M204.74,410.07a7.86,7.86,0,0,0,.72,2.28,2.39,2.39,0,0,0,.13.28l.07.12v0l.05.13a2.49,2.49,0,0,0,.17.31l0,0c.1-.1.17-.26.26-.36l.08-.08a.59.59,0,0,0,0-.06l.11-.18a7.38,7.38,0,0,0,.41-.72,15.55,15.55,0,0,0,.73-1.54,20,20,0,0,0,1-3.29A17.78,17.78,0,0,0,209,404a26.8,26.8,0,0,1,.2-4c.16-.84,2.5.21,2.47,1.85a22.69,22.69,0,0,1-1.67,8.53c-.36.82-.69,1.66-1.08,2.49l-.3.62-.37.68a20.18,20.18,0,0,1-1.18,1.73l-1,1.32a31.42,31.42,0,0,1-2.18-2.94c-.18-.32-.27-.46-.36-.65l-.27-.56a11.72,11.72,0,0,1-.44-1.17,10.76,10.76,0,0,1-.48-3.74,12.84,12.84,0,0,1,4.63-8.62,5.66,5.66,0,0,1,.88-.55c1.24-.56,1.92-.29,2.11.36a1.82,1.82,0,0,1,.1.45,1,1,0,0,1-.26.64,2.12,2.12,0,0,1-.58.45,10,10,0,0,0-3.84,4.62,8,8,0,0,0-.51,4.59Z"/><path class="cls-1" d="M151.44,394.82c-3.27,4-6.09,7-9.37,11.79-1.66,3.22,6.16,9,12.05,4.1C161.49,404.61,155.86,394.5,151.44,394.82Z"/><path class="cls-1" d="M155.2,411.76a9.49,9.49,0,0,1-4.1,2,9.32,9.32,0,0,1-4.49-.19,10,10,0,0,1-3-1.34,8,8,0,0,1-2.07-2.1,4.18,4.18,0,0,1-.71-3.25,3.16,3.16,0,0,1,.16-.46,2.06,2.06,0,0,1,.24-.44l.4-.53.77-1c.52-.67,1.05-1.33,1.58-2l2.81-3.5a37.23,37.23,0,0,1,3.68-4.33c.87-.81,1.72,1.82.32,3.53-2.49,3-5,5.79-7.44,8.77l-.25.3a.36.36,0,0,0-.07.1,1,1,0,0,0-.07.4,2.34,2.34,0,0,0,.45,1.12,6.75,6.75,0,0,0,2.32,1.91,7.08,7.08,0,0,0,6.62.08,9.21,9.21,0,0,0,3.23-2.95,8.16,8.16,0,0,0,1.11-6.46,8.4,8.4,0,0,0-2.64-4.3,6.41,6.41,0,0,0-.84-.59c-.53-.33-.86-.48-1.09-.64a1.69,1.69,0,0,1-.49-.7c-.06-.15-.16-.3-.22-.44s0-.48.37-.66a2.41,2.41,0,0,1,1.65,0A8.25,8.25,0,0,1,157.9,398a11.21,11.21,0,0,1,1.43,5.85,10.41,10.41,0,0,1-1.19,4.46,12.06,12.06,0,0,1-2.9,3.5Z"/><path class="cls-1" d="M130.59,428.4a71.46,71.46,0,0,0-2.13,15.83C139.44,438.19,132.8,429.67,130.59,428.4Z"/><path class="cls-1" d="M134.13,441.52c-.35.38-.72.74-1.08,1.11a3.35,3.35,0,0,1-.58.49l-.81.63-.5.38-.49.3-1,.59-2,1.15c-.18.1-.37.23-.54.32,0-.92,0-1.82,0-2.75s.13-2.07.22-3l.25-1.77c.19-1.17.4-2.33.62-3.5s.34-2.07.49-3.1a13.42,13.42,0,0,1,.89-3.93c.37-.76,2.32.85,2,2.27-.52,2.57-1,5.17-1.66,7.79a15.9,15.9,0,0,0-.35,2.41c0,.33,0,.54-.06.85l0,.33a5.33,5.33,0,0,0,.68-.31l.38-.25a4.58,4.58,0,0,0,.81-.7,7.44,7.44,0,0,0,1-1.15l.44-.62c.13-.22.21-.46.33-.68a6.34,6.34,0,0,0,.28-4.5,8.3,8.3,0,0,0-1.89-3c-.18-.19-.36-.37-.55-.54-.68-.69-.76-.89-.58-1.55,0-.15.06-.32.11-.46a.56.56,0,0,1,.55-.41,1.75,1.75,0,0,1,1.06.36,9,9,0,0,1,2.69,3,9.34,9.34,0,0,1,1.26,4.11,8.86,8.86,0,0,1-2,6.18Z"/><path class="cls-1" d="M173.43,363a9.21,9.21,0,0,0,3.47-3.38,16.48,16.48,0,0,0,.82-1.69,21.79,21.79,0,0,0,1.72-6.59,14.79,14.79,0,0,0,0-3.05,37.19,37.19,0,0,0-.71-3.69c-.06-.35.42-.61,1.06-.48a2.09,2.09,0,0,1,1.58,1.57,18.77,18.77,0,0,1-.35,8.7,30,30,0,0,1-1.65,5.07,12.52,12.52,0,0,1-3.73,4.64,9.78,9.78,0,0,1-3.35,1.6,12.17,12.17,0,0,1-5.47,0,31.11,31.11,0,0,1-4-1c-.29-.09-.57-.18-.85-.29-1.05-.41-1.29-.72-1.26-1.32a2.86,2.86,0,0,1,0-.42c.1-.44.66-.58,1.42-.36a37.46,37.46,0,0,0,6.71,1.53,7.85,7.85,0,0,0,4.57-.89Z"/><path class="cls-1" d="M345.64,144.78a15.5,15.5,0,0,1-7.37-1.57,12.37,12.37,0,0,1-5.27-5.47,19.77,19.77,0,0,1-1.76-5.06,38.47,38.47,0,0,1-.57-9.12,88.21,88.21,0,0,1,.87-8.93c.38-2.61.77-5.24,1.14-7.83.24-1.65.47-3.31.71-5l.33-2.45a13,13,0,0,0,.15-2.22.43.43,0,0,1,0-.17s.06,0,.08,0a.51.51,0,0,1,.13-.28.63.63,0,0,1,.41-.17,1,1,0,0,1,.64.37,6.33,6.33,0,0,1,.94,4.74c-1,6.86-2.41,13.44-3.05,20.21A33,33,0,0,0,334,134a12.75,12.75,0,0,0,3.1,5.54,10.21,10.21,0,0,0,5.64,2.73,17.17,17.17,0,0,0,4.06.14,14.49,14.49,0,0,0,4-.83c3.86-1.44,7.11-4.41,9.71-7.71a76.31,76.31,0,0,0,5.35-8.23c.38-.63.73-1.25,1.15-1.88a9.28,9.28,0,0,1,2-2.33,1.7,1.7,0,0,1,1.58-.38,1.06,1.06,0,0,1,.51.31.41.41,0,0,1,0,.36,1.71,1.71,0,0,1-.19.39c-.18.3-.55.83-1.06,1.6-1.51,2.34-2.94,5.08-4.66,7.68a44,44,0,0,1-6,7.5,23.25,23.25,0,0,1-6.07,4.33,17.48,17.48,0,0,1-7.4,1.67Z"/><path class="cls-1" d="M382.66,81.1c-46.84,28.16-67.91,3.77-70.5-6.23-2.89-11.15,1-19.37,11.35-23.89C355.65,37,375.9,68.06,382,77.68,382.86,79.06,382.36,80.87,382.66,81.1Z"/><path class="cls-1" d="M326.47,51.43a31.82,31.82,0,0,0-6.1,2.85,17.71,17.71,0,0,0-4.83,4.36,14.72,14.72,0,0,0-2.63,5.87,20,20,0,0,0-.21,6.6,22.34,22.34,0,0,0,.44,2.42,13.49,13.49,0,0,0,.66,2.31,21.35,21.35,0,0,0,2.29,4.25,29.72,29.72,0,0,0,13.54,10.64A35.74,35.74,0,0,0,338.16,93a44.55,44.55,0,0,0,8.87.23,59,59,0,0,0,15.47-3.41,139.81,139.81,0,0,0,18.42-8.67c1.88-1,2-.32.7,1.1a21.27,21.27,0,0,1-2.86,2.59,32.87,32.87,0,0,1-4.62,2.82c-1.61.76-3.19,1.57-4.85,2.23l-2.46,1-2.5.92c-.84.32-1.68.61-2.54.86s-1.7.54-2.56.78c-1.74.45-3.47.92-5.24,1.23a45.31,45.31,0,0,1-21.52-.59,41.11,41.11,0,0,1-6.15-2.38,37.08,37.08,0,0,1-5.68-3.53,28.19,28.19,0,0,1-8.55-10.32,16.52,16.52,0,0,1-.7-1.76l-.28-.93-.2-.9a29.39,29.39,0,0,1-.6-3.64,21.14,21.14,0,0,1,.49-7.42,17.3,17.3,0,0,1,3.41-6.66,21.28,21.28,0,0,1,5.69-4.73,29.13,29.13,0,0,1,4.06-2l2.08-.81c.7-.24,1.42-.45,2.12-.67a39.11,39.11,0,0,1,8.77-1.64,36.15,36.15,0,0,1,13.39,1.61,44.55,44.55,0,0,1,11.94,6.08A71,71,0,0,1,377,68.61c.93,1.18,1.84,2.34,2.71,3.57a44.14,44.14,0,0,1,3.17,5,3.42,3.42,0,0,1,.37,1.9,3,3,0,0,1-.34,1.14,4.44,4.44,0,0,0-.36.83c0,.11,0,.21,0,.22a.21.21,0,0,1-.17-.08.64.64,0,0,1-.16-.2,4.3,4.3,0,0,1-.36-1.13,4.39,4.39,0,0,0-.52-1.47l-1.49-2.08a99.23,99.23,0,0,0-11.64-14,51,51,0,0,0-15.05-10.44,34.29,34.29,0,0,0-13.19-2.87,37.31,37.31,0,0,0-13.39,2.42Z"/><path class="cls-1" d="M381.67,115.11a10.67,10.67,0,0,0,2.79-3.24,7,7,0,0,0,.52-1.4,3.54,3.54,0,0,0,0-2.27,2.83,2.83,0,0,0-1.72-1.5,6.27,6.27,0,0,0-2.46-.28c-1.1,0-2.18.39-3.34.33-.73,0-.31-2.47,1.16-2.72a12.62,12.62,0,0,1,4,0,7.49,7.49,0,0,1,2.11.74,5.22,5.22,0,0,1,1,.68,4.9,4.9,0,0,1,.82.94,5.66,5.66,0,0,1,.87,2.75,6.93,6.93,0,0,1-.41,2.6,12.16,12.16,0,0,1-3,4.36,15.34,15.34,0,0,1-2.51,2,13.57,13.57,0,0,1-4.48,1.76,11.41,11.41,0,0,1-3.79.25,8.28,8.28,0,0,1-.84-.16c-1-.28-1.26-.66-1.17-1.29a2.23,2.23,0,0,1,.08-.45,1,1,0,0,1,1.28-.57,11.33,11.33,0,0,0,5.32-.44,11.93,11.93,0,0,0,3.65-2.12Z"/><path class="cls-1" d="M383.34,82.84c-.63-2.94,19.22,3.68,13.07,17-3.09,6.71-10.43,5.85-16.14,5.21-1.58-.17-6.9,5.94-6.75,2.7C373.73,103,384.08,86.35,383.34,82.84Z"/><path class="cls-1" d="M375.8,106c.79-.55,1.61-1.21,2.65-1.81l.44-.23a6.22,6.22,0,0,1,.63-.23,2,2,0,0,1,.7-.08,1,1,0,0,1,.35,0l.21,0,1.51.19a27.54,27.54,0,0,0,5.85.22A10.27,10.27,0,0,0,392,103a8.81,8.81,0,0,0,4.17-5.36,9.12,9.12,0,0,0-.42-7,12.74,12.74,0,0,0-4.39-4.81A19.2,19.2,0,0,0,387.54,84a16.8,16.8,0,0,0-2-.65c-.32-.08-.65-.15-.95-.2l-.41,0H384s0,0-.05-.09c-.27-.43-.28-.24-.12-.27h.1s0,0,0,0l-.17,0a.48.48,0,0,1-.4-.09.56.56,0,0,1,0-.74,2.92,2.92,0,0,1,2-1,5.73,5.73,0,0,1,2.61.32,19.14,19.14,0,0,1,8.1,5.59,12.72,12.72,0,0,1,2.43,4.53,10.84,10.84,0,0,1,.21,5.15,15.14,15.14,0,0,1-2.36,5.61l-.47.64-.55.58a9.21,9.21,0,0,1-1.2,1,9.86,9.86,0,0,1-2.81,1.4,18,18,0,0,1-6.5.65c-1.06-.06-2.11-.16-3.14-.29l-1.42-.18a.76.76,0,0,0-.36.09c-.18.09-.37.2-.57.32-.5.32-1,.68-1.51,1.06l-.8.58c-.38.27-.78.56-1.17.79a3.26,3.26,0,0,1-2.2.61,1.09,1.09,0,0,1-.77-.76,3.27,3.27,0,0,1-.12-1.11,4.93,4.93,0,0,1,.14-1,9.37,9.37,0,0,1,.26-1c.11-.37.19-.59.27-.82s.17-.46.27-.69c.35-.91.74-1.81,1.15-2.69.8-1.76,1.64-3.49,2.46-5.22,1.26-2.68,2.41-5.35,3.46-8l.65-1.78c.79-2.21.95-2.72,1.61-3.16.13-.1.26-.26.4-.36s.51,0,.68.55a4.68,4.68,0,0,1-.06,2.28,47.15,47.15,0,0,1-2.85,7.71c-1.13,2.51-2.34,5-3.49,7.47-.43.93-.85,1.85-1.24,2.77-.19.46-.38.92-.56,1.38-.09.23-.17.45-.25.68l-.1.28v0s-.14.26.21,0Z"/><path class="cls-1" d="M417.94,213.37a20.21,20.21,0,0,1,1.06,6.68,24.35,24.35,0,0,1-1.46,6.51,83.09,83.09,0,0,1-5.31,11.61c-4,7.44-8.53,14.52-13.17,21.52-3.39,5.1-6.84,10.16-10.29,15.17l-1.22,1.83-.57.9c-.09.14-.18.29-.23.39v0h0l-.11,0a4.83,4.83,0,0,0-.6-.21c-.11,0-.13,0-.21-.06h-.17c-.11,0,0,0-.06-.07s0-.12-.07-.18a1.52,1.52,0,0,1-.12-.21c-.11-.2-.2-.29-.37-.54,0-.05,0,0,0-.05a2.44,2.44,0,0,1,1.49-.55,4.42,4.42,0,0,1,1.29.13,9.47,9.47,0,0,1,2,.74,14.71,14.71,0,0,1,3.38,2.32,9.66,9.66,0,0,1,1.4,1.62,4.81,4.81,0,0,1,.87,2.28,4.22,4.22,0,0,1,0,.71l-.07.36c0,.11-.05.17-.07.25l-.29,1c-.09.32-.24.64-.36.95a7.11,7.11,0,0,1-.42.94,9.18,9.18,0,0,1-2.64,3.31,6.84,6.84,0,0,1-4.17,1.37,9.06,9.06,0,0,1-4.08-1.1,13.77,13.77,0,0,1-3.25-2.44,16.41,16.41,0,0,1-4.07-6.8,14.32,14.32,0,0,1-.27-7.95,52.07,52.07,0,0,1,2.85-7.12c1.06-2.29,2.18-4.54,3.31-6.78,4.31-8.53,8.79-17,12.53-25.68a83.08,83.08,0,0,0,3.17-8.46,29,29,0,0,0,1-4.3,6.21,6.21,0,0,0-.38-3.88,20.94,20.94,0,0,0-5.8-6.43c-2.33-1.87-4.87-3.61-7.16-5.75-1.42-1.36-1.81-2.16-1.61-2.26s1.06.4,2.43,1.24,3.31,2,5.67,3.43a42.67,42.67,0,0,1,3.75,2.62,20.24,20.24,0,0,1,3.77,3.84l.72,1.08c.22.37.42.76.63,1.14a3,3,0,0,1,.3.69l.25.78c.07.48.15,1,.18,1.45a18.6,18.6,0,0,1-.69,5.07,64.92,64.92,0,0,1-3.16,9c-2.44,5.81-5.24,11.39-8.07,17s-5.74,11.07-8.42,16.65q-1,2.08-1.89,4.2a21.17,21.17,0,0,0-1.36,4.13,13.38,13.38,0,0,0,1.52,8.26,12.76,12.76,0,0,0,5.36,5.45,6.26,6.26,0,0,0,3.5.66,4.65,4.65,0,0,0,3-1.7,9.91,9.91,0,0,0,1.79-3.41c.09-.31.21-.68.27-.94a1.2,1.2,0,0,0,0-.56,3.81,3.81,0,0,0-.81-1.43,11.15,11.15,0,0,0-3.07-2.42,9.43,9.43,0,0,0-1.76-.74,3.24,3.24,0,0,0-.77-.13.42.42,0,0,0-.33.1,1.79,1.79,0,0,1-.39.24l-.13,0a1.3,1.3,0,0,1-.4.05.83.83,0,0,1-.22,0,1,1,0,0,1-.42-.2,1.11,1.11,0,0,1-.32-.37.73.73,0,0,1-.09-.22,1.18,1.18,0,0,1-.05-.41l0-.13a.81.81,0,0,1,0-.19,3,3,0,0,1,.24-.54,7,7,0,0,1,.4-.67l.79-1.24,1.61-2.39,3.24-4.72c4.77-6.94,9.47-13.92,13.86-21.09,2.18-3.59,4.29-7.22,6.23-10.93a68.9,68.9,0,0,0,4.93-11.44,21.51,21.51,0,0,0,.78-3.64,12.62,12.62,0,0,0-.17-3.62,34,34,0,0,0-2.32-7.21,114.82,114.82,0,0,0-7.26-13.62,107.25,107.25,0,0,0-32.36-33.26,65.08,65.08,0,0,0-8.08-4.45,34.6,34.6,0,0,0-4.22-1.63,14.22,14.22,0,0,0-2.12-.47l-.52-.06h-.47a1.17,1.17,0,0,0-.62.18l-.23.27-.31.4c-.2.27-.4.58-.61.87l-1.21,1.81c-.81,1.21-1.63,2.43-2.52,3.61a36.63,36.63,0,0,1-2.84,3.43,18.52,18.52,0,0,1-3.46,3,9.42,9.42,0,0,1-4.13,1.53,7.68,7.68,0,0,1-2.28-.14,5.52,5.52,0,0,1-2.21-1.06,6.34,6.34,0,0,1-2.09-3.44,11.74,11.74,0,0,1-.31-3.11,15.38,15.38,0,0,1,.83-4.42,8.77,8.77,0,0,1,2.58-4.14,4.7,4.7,0,0,1,1.24-.81c.24-.08.27.06.12.38s-.46.82-.81,1.59a18.54,18.54,0,0,0-1.72,7.45c0,2.34.77,4.69,2.6,5.15a4.45,4.45,0,0,0,1.49.19,8.5,8.5,0,0,0,1.55-.26,10.49,10.49,0,0,0,2.93-1.74,30.59,30.59,0,0,0,5-5.62c.76-1,1.5-2.13,2.24-3.24l1.13-1.68c.2-.29.37-.56.62-.87l.35-.45a8,8,0,0,1,.59-.61c.31-.16.62-.34.93-.48a8.25,8.25,0,0,1,.91-.17,7.79,7.79,0,0,1,1.39.05,15.38,15.38,0,0,1,2.38.51,35.57,35.57,0,0,1,4.3,1.61,70,70,0,0,1,7.92,4.26,103.06,103.06,0,0,1,14.29,10.86A111.67,111.67,0,0,1,406,190.54a125.82,125.82,0,0,1,6.69,11A69,69,0,0,1,418,213.33Z"/><path class="cls-1" d="M309.19,186q3.18-4.12,6.3-8.35c.76-1,1.47-2.08,2.24-3.1,2.73-3.58,5.49-7.15,8.48-10.56,1.31-1.52,2.64-3.06,4.06-4.5.45-.47.91-.93,1.4-1.37a17.13,17.13,0,0,1,1.52-1.28,13.07,13.07,0,0,1,1.7-1.11,8.26,8.26,0,0,1,2-.71c.89-.2.83.47.4,1.24a4.79,4.79,0,0,1-.38.58c-.14.21-.3.44-.47.65a7.12,7.12,0,0,1-1.32,1.22,40.28,40.28,0,0,0-5.42,5c-1.73,1.86-3.43,3.8-5.13,5.76-2,2.35-3.85,5.05-5.75,7.62l-6.31,8.47q-2,2.6-4,5.16c-2,2.59-4.17,5.13-6.36,7.58a61.29,61.29,0,0,1-5.32,5.5c-.44.36-.87.72-1.33,1.08-1.77,1.24-2.54,1.36-3.21,1a2.34,2.34,0,0,1-.44-.27c-.37-.39.21-1.06,1.34-1.91a65.25,65.25,0,0,0,9.45-9.55q3.35-4,6.51-8.2Z"/><path class="cls-1" d="M233.25,162.19a14.93,14.93,0,0,0,1.74.54l.4.08.39.05a4.7,4.7,0,0,1,1.45.38,6.05,6.05,0,0,1,2.07,1.64,11,11,0,0,1,1.28,1.94,16.18,16.18,0,0,1,.87,2c.12.34.24.68.34,1l.15.52.08.3.1.46a5.55,5.55,0,0,1,.09,3.19,1.56,1.56,0,0,1-.34.48.67.67,0,0,1-.23.14l-.2.08a2,2,0,0,1-1.35-.07c-.43-.19-.83-.31-1.25-.46a6.17,6.17,0,0,0-.61-.19l-.32-.09c-.42-.11-.84-.21-1.27-.3a25.07,25.07,0,0,0-2.58-.38l-.6-.05h-.27a1.41,1.41,0,0,0-.27.05.12.12,0,0,0-.06.21,1.27,1.27,0,0,0,.44.3l.14.06.43.15,1.33.47a10,10,0,0,1,2.79,1.47,6.93,6.93,0,0,1,1.18,1.18c.34.43.59.8.87,1.21,1.38,2,2.28,4.26,3.66,5.62a6.23,6.23,0,0,0,2.47,1.5,11.92,11.92,0,0,0,1.51.39l.22,0a2.74,2.74,0,0,1,.39.1l.56.27a6.7,6.7,0,0,1,.9.6A24.48,24.48,0,0,1,254,192c1.2,1.69,2.32,3.4,3.46,5.1,2.27,3.4,4.58,6.74,7.09,9.92,5,6.32,10.93,12.07,18.16,15.57a35.55,35.55,0,0,0,4.94,2,14.07,14.07,0,0,0,5.09.55,26,26,0,0,0,10-3.06,62.25,62.25,0,0,0,11.25-7.76,131.4,131.4,0,0,0,10-9.46c1-1,1.5-1.39,1.66-1.2s0,.92-.65,2a37.37,37.37,0,0,1-8,9.53,68.1,68.1,0,0,1-11.8,8.43,36.29,36.29,0,0,1-6.82,2.92,21.89,21.89,0,0,1-7.55,1,17,17,0,0,1-3.86-.68c-1.19-.41-2.35-.8-3.48-1.31a40,40,0,0,1-6.47-3.51,55.38,55.38,0,0,1-10.89-9.7,135.92,135.92,0,0,1-10.53-14c-1.66-2.41-3.26-4.87-5-7.09a17.55,17.55,0,0,0-1.37-1.56,5.75,5.75,0,0,0-1.44-1.14c-.12-.05-.2-.12-.24-.11l-.53-.11c-.38-.07-.77-.19-1.16-.3a9.76,9.76,0,0,1-2.24-1,9.5,9.5,0,0,1-3-3.09c-.73-1.15-1.31-2.28-2-3.33-.32-.53-.66-1-1-1.52a5.57,5.57,0,0,0-1.11-1.16,11.67,11.67,0,0,0-3.2-1.43l-.46-.17-.68-.26a9.32,9.32,0,0,1-1.35-.64,5.23,5.23,0,0,1-1.86-1.56,1.8,1.8,0,0,1-.32-1,1.19,1.19,0,0,1,.48-.93,4,4,0,0,1,2.1-.8,13.49,13.49,0,0,1,1.45-.08c.53,0,1,0,1.4.06q1,.08,2,.24c.65.1,1.31.23,2,.38l.91.24.39.13c.13,0,.26.1.39.15s.13.08.19.07a.34.34,0,0,0,0-.2,3.87,3.87,0,0,0-.12-.82l0-.23-.12-.44c-.09-.3-.18-.59-.28-.88a13.18,13.18,0,0,0-.7-1.68,7.8,7.8,0,0,0-1.49-2.17,3.27,3.27,0,0,0-1-.63,1.54,1.54,0,0,0-.5-.13,3.48,3.48,0,0,0-.35,0l-.43-.06a17.36,17.36,0,0,1-3-.92c-.47-.19-.94-.39-1.41-.61-.19-.09-.55-.27-.88-.45a7.45,7.45,0,0,1-.91-.58,2.11,2.11,0,0,1-1-1.47.7.7,0,0,1,.18-.4l.23-.37a8,8,0,0,1,.76-.64,6,6,0,0,1,.93-.52,6.21,6.21,0,0,1,1-.36,9.68,9.68,0,0,1,1.56-.34,22.41,22.41,0,0,1,6.13.12c1.87.26,3.66.66,5.48,1.1a13.1,13.1,0,0,1,5.26,2.39L249,162a1.49,1.49,0,0,1,.47.35l.26.3c.15.2.26.38.38.57.22.37.43.74.62,1.11q.57,1.09,1.08,2.22c.68,1.48,1.31,3,1.94,4.47l1.81,4.5q.87,2.22,1.72,4.43l.35.5.37.59.73,1.16c.48.76,1,1.5,1.5,2.24a50.1,50.1,0,0,0,9.17,9.88,53.41,53.41,0,0,0,11.37,7.05l2.7,1.16c.91.36,1.85.65,2.78,1,7,2.29,9.37,2.53,10.82,3.52a7,7,0,0,1,1,.63c.32.31-.29.43-1.67.35a30.92,30.92,0,0,1-6.27-1l-2.61-.64-2.58-.85c-.85-.31-1.73-.54-2.57-.91l-2.52-1.08-1.26-.56-1.23-.64L274.89,201l-2.36-1.49c-.39-.25-.79-.49-1.18-.76l-1.12-.84a49.37,49.37,0,0,1-8.34-7.63c-1.26-1.43-2.42-2.94-3.54-4.49-.53-.78-1.08-1.57-1.58-2.37l-.75-1.18-.36-.56-.49-.73c-.44-1.15-.89-2.31-1.34-3.47s-.89-2.22-1.33-3.33c-.76-1.86-1.54-3.73-2.35-5.56-.41-.91-.82-1.82-1.26-2.69-.22-.43-.44-.87-.67-1.25-.11-.2-.23-.38-.33-.53a1,1,0,0,1-.11-.15h0l.35-.4a1.27,1.27,0,0,0,.44-.62l-.91.94a12.73,12.73,0,0,0-5.34-2.15,39.52,39.52,0,0,0-6.24-1,18.83,18.83,0,0,0-3,0,10.06,10.06,0,0,0-1.39.25l-.39.11h0a.15.15,0,0,0-.06.05s0,0,.05.05l0,0,.56.26c.46.21.94.41,1.42.58Z"/><path class="cls-1" d="M239.82,171.08c-10-2.1-11.21,3-11.21,3-9.91,4.85-20,11.12-25.59,15.73,0,0-8-2.15-6.11-7,8-5.14,33.7-18.94,34.61-19.29C237,165,238.67,169,239.82,171.08Z"/><path class="cls-1" d="M206.81,178.65c-2.32,1.28-4.65,2.56-6.93,3.89l-1.69,1c-.1.06-.15.07-.16.12l0,.13a1.82,1.82,0,0,0,0,.32,2.16,2.16,0,0,0,.26,1.23,4.39,4.39,0,0,0,1,1.17,9.39,9.39,0,0,0,2.19,1.35l.61.26.31.12.26.1.16.06c.06,0,.1-.06.15-.08l.87-.66,1.05-.77c.7-.5,1.42-1,2.13-1.48q2.16-1.46,4.36-2.8c2.93-1.81,5.93-3.5,9-5.14l3.84-2,3.7-1.92c.05,0,.12,0,.14-.1v0a.5.5,0,0,1,0-.13,5.63,5.63,0,0,1,.94-1.36,6.4,6.4,0,0,1,1.29-1,8.12,8.12,0,0,1,3-1.08,14.3,14.3,0,0,1,5.95.32c1.22.3.89.87-.21,1.28a22.54,22.54,0,0,1-4.83.92c-1.77.25-3.27.89-3.9,2.18l-.43.55-.44.54-4,2-3.69,1.91q-3.69,1.94-7.34,4c-2.06,1.17-4.09,2.47-6.07,3.85-1,.7-2,1.41-2.93,2.14l-1.78,1.4c-.11.07-.2.19-.31.2l-.37-.1-.73-.23-.35-.13-.24-.09c-.15,0-.3-.12-.45-.18a12.19,12.19,0,0,1-3.73-2.33,5.82,5.82,0,0,1-1.38-2,4.42,4.42,0,0,1-.32-1.25,5.56,5.56,0,0,1,0-1.29l.21-.73.11-.4a1.39,1.39,0,0,1,.06-.19l.17-.11,1.12-.68c.58-.36,1.16-.7,1.74-1l3.5-2,8.69-4.78,13.18-7.13,5-2.81.63-.35c.21-.11.38-.22.75-.4l.49-.25c.08-.07.17,0,.26,0l.26.07.91.26a13.42,13.42,0,0,1,2.8,1.3,11.45,11.45,0,0,1,2.14,1.72,9.4,9.4,0,0,1,2,3,2.37,2.37,0,0,1,.16,1.63,2.41,2.41,0,0,1-.17.59c-.14.26-.46.15-.89-.27a20.2,20.2,0,0,1-1.61-2,10.83,10.83,0,0,0-3.49-3c-.33-.18-.69-.33-1-.48l-.55-.2-.27-.09-.18,0s0,0-.05,0l0,0-.1.06-1.15.63L221,171c-4.7,2.56-9.43,5.11-14.11,7.72Z"/><path class="cls-1" d="M273.24,152.54c-3.45,3.1-22,13.38-22.28,13.51a12.4,12.4,0,0,0-11.14-6.71c10-3.81,19.77-6.64,28.58-13a.49.49,0,0,1,.73.17Z"/><path class="cls-1" d="M248.58,157.7l-2.4.83-.29.1-.08,0-.17,0-.33.09-.52.14-.28.08.19,0a2.31,2.31,0,0,1,.37.1,1.35,1.35,0,0,1,.24.08l.13,0s.08,0,0,0l.28.13a11.4,11.4,0,0,1,2.11,1.23,12.69,12.69,0,0,1,2.34,2.23,12,12,0,0,1,.95,1.3l.22.43a11.8,11.8,0,0,0,1.21-.6l2.14-1.14,4.26-2.31c2-1.11,4-2.3,5.93-3.52l7.31-4.73c.7-.47,1.07,0,.83,1a6.09,6.09,0,0,1-2.58,3.26,155.55,155.55,0,0,1-15.82,8.91l-1.56.79-1.22.63-1.3.67-.82-1.35-.42-.68-.27-.41a11.67,11.67,0,0,0-1.12-1.32,11.19,11.19,0,0,0-2.75-2l-.48-.25-.12-.06-.11-.05-.13,0-.49-.15a8.93,8.93,0,0,0-2.24-.52l-1.39-.17-.69-.09-.81-.07-3.15-.28.52-.34.13-.08.06,0,0,0,.09,0,.73-.27,2.86-1,5.29-1.89c2.37-.82,4.73-1.64,7.06-2.53a73.07,73.07,0,0,0,10.26-4.66c.85-.48,1.67-1,2.47-1.54l1.19-.82,1.4-1.05a2.55,2.55,0,0,1,.9-.43,1.21,1.21,0,0,1,.93.21,2.6,2.6,0,0,1,.7.76l.57.78c.37.51.76,1,1.13,1.53,1.38,1.94,1.67,2.66,1.43,3.45a3.52,3.52,0,0,1-.17.52c-.28.47-1.17-.1-2.27-1.47-.64-.79-1.28-1.6-1.91-2.42l-.24-.31-.12-.16s0,0,0,0l-.08-.06s-.12,0-.14.07,0,0-.07.08l-.5.37c-.34.25-.7.47-1,.71-.7.48-1.42.92-2.14,1.36-1.46.87-3,1.67-4.5,2.4a117.43,117.43,0,0,1-11.49,4.64Z"/><path class="cls-1" d="M252.06,154,250,155.24c-.25.15-.44.35-.69.5a16.66,16.66,0,0,0-2.42,1.7,4.75,4.75,0,0,0-.81,1l-.39.71a1.65,1.65,0,0,1-.51.64c-.3.24-1.92-1.08-1.53-1.79a7.59,7.59,0,0,1,2.81-2.76c.68-.38,1.23-.92,1.85-1.34s1.39-.87,2.07-1.3c.42-.26.83-.52,1.22-.8a11.33,11.33,0,0,0,1.68-1.38,6.48,6.48,0,0,0,.85-1.39c.06-.11.09-.22.14-.33.21-.38.4-.41.95-.2.12.05.25.09.37.15a.77.77,0,0,1,.5.92,6.09,6.09,0,0,1-1.95,2.93,18.19,18.19,0,0,1-2,1.55Z"/><path class="cls-1" d="M252.76,149.4a5.51,5.51,0,0,0,.22.6c0,.08.11.12.14.2.1.28.17.6.26.89a.79.79,0,0,0,.23.32c.13.11.35.19.23.45a8.1,8.1,0,0,1-2,.91,1,1,0,0,1-.13-.83c0-.24-.14-.32-.22-.49s-.18-.39-.26-.59l-.18-.38a5.37,5.37,0,0,0-.33-.62,6.22,6.22,0,0,1-.47-.56.7.7,0,0,1-.09-.17c-.05-.24.11-.32.67-.3l.39,0c.44,0,.8.11.93.11l.13,0,.22-.06c.07,0,.09,0,.13.06s.11.25.21.42Z"/><path class="cls-1" d="M215,182.36a2.7,2.7,0,0,0,.52-.64c.05-.1,0-.2.09-.32.19-.37.41-.89.7-1.39a4.23,4.23,0,0,0,.3-.69c.12-.29.19-.65.56-.74.21-.05,1.66,1.46,1.56,1.61a3.4,3.4,0,0,1-.78.89c-.23.22-.2.6-.34,1a4.9,4.9,0,0,1-.63,1.17,6,6,0,0,1-.5.61c-.24.3-.54.53-.76.82a4.42,4.42,0,0,0-.41.78,1.4,1.4,0,0,1-.09.17c-.14.18-.3.13-.7-.27l-.28-.27a1.35,1.35,0,0,1-.46-.85,2.2,2.2,0,0,1,.6-1.23,8,8,0,0,0,.57-.64Z"/><path class="cls-1" d="M415.54,445.77c-.75,3.08-15.26,7-20.31,6.05-10.42-11.55-29.06-110.73-36-126.94-1.34,20.4-.58,103.85,0,127.2-5.16,3-11.45,2.65-17.35,2.65-6.71-14.88-14.21-147.6-12.66-222.46,4.84,9.89,17.66,17.88,46-2.62a560.2,560.2,0,0,0,4.15,61.18C383.69,325.39,410.11,423.33,415.54,445.77Z"/><path class="cls-1" d="M330.55,268.08q.26,30.36,1.45,60.72c.78,20.23,1.78,40.46,3.15,60.66,1,14.73,2.24,29.46,4,44.09.38,3.22.81,6.44,1.3,9.63a83.36,83.36,0,0,0,1.92,9.41l.27.77.06.15s.1,0,.15,0h2c1.62,0,3.22,0,4.8-.1a28.23,28.23,0,0,0,4.63-.67,15,15,0,0,0,2.19-.68c.36-.12.7-.29,1-.44l.23-.1.09-.05.18-.09-.22-18.72-.15-19.54q-.12-19.55-.09-39.08l.11-19.54.12-9.78.09-4.88.12-5c.16-4,.25-8.18.61-11.79l.11-1.41,0-.35s0-.17,0-.12l.07.18.27.71.55,1.41.5,1.34c.65,1.71,1.3,3.69,1.94,5.62l.89,3.07.58,2.1,1.12,4.2,2.14,8.42c2.77,11.24,5.4,22.48,8.09,33.63,3.46,14.32,7,28.66,11,42.83,1,3.54,2.05,7.07,3.2,10.56s2.32,7,3.76,10.3c.35.84.76,1.63,1.14,2.45.2.4.43.77.64,1.16a7.92,7.92,0,0,0,.69,1.1c.32.38.35.57.53.62l.35,0c.21,0,.43,0,.64,0a19.66,19.66,0,0,0,2.64-.12A47,47,0,0,0,410,448.42a19,19,0,0,0,4.26-2c.75-.55.77-.77.91-.71a.45.45,0,0,1,0,.43,2.53,2.53,0,0,1-.68,1,14.12,14.12,0,0,1-3.87,2.48,40.4,40.4,0,0,1-6.68,2.41,37.2,37.2,0,0,1-4.32.91,20.41,20.41,0,0,1-2.43.24,12.15,12.15,0,0,1-1.35,0c-.34,0-.7-.09-1.06-.13-.21,0-.3-.14-.41-.28l-.33-.42-.51-.64c-.14-.19-.31-.37-.43-.56l-.72-1.17c-.51-.78-.86-1.6-1.31-2.43q-1.21-2.5-2.26-5.24c-1.41-3.64-2.72-7.54-3.94-11.63-4.32-14.49-7.86-29.13-11.4-43.77S366.6,357.53,362.94,343l-1.42-5.45-1-3.53-.1-.37,0-.1a.18.18,0,0,1,0,.06v.17l-.06,1.4-.13,5.25L360,351.7c-.18,15.09-.22,30.23-.22,45.39q0,13.61.12,27.45.07,6.91.16,13.87c0,2.32.07,4.64.1,7l.07,3.48,0,1.74,0,1.17c0,.45.22,1.09-.39,1.2l-1.25.67-.85.38c-.58.23-1.16.47-1.75.64a22.16,22.16,0,0,1-3.57.8,49.26,49.26,0,0,1-7.14.41l-4.27,0c-.35-.84-.74-2-.91-2.41s-.31-1.16-.47-1.74c-.59-2.32-1-4.64-1.4-7-1.49-9.26-2.45-18.55-3.31-27.8-1.84-20.35-3.1-40.74-4.14-61.13s-1.77-40.81-2.25-61.22q-.36-15.7-.45-31.43,0-7.86,0-15.71l.08-7.86.08-4.87.05-2.93,0-1.46c0-.23,0-.52,0-.7l.12-.19,1.27,2.31,1.42,2.36a10.26,10.26,0,0,0,1.44,2,8.86,8.86,0,0,0,1,1.1,16.34,16.34,0,0,0,4.95,3.25,22.33,22.33,0,0,0,13.54.26,57.48,57.48,0,0,0,12.93-5.46l3-1.83,1.51-.91,1.46-1,3.8-2.59.53-.37.27-.18.13-.09s0,.09,0,.14l0,1.21,0,2.42.18,7.52.26,7.13c.4,9.49,1,19,1.9,28.41q.66,7.07,1.53,14.11c.62,4.68,1.33,9.33,2.21,14,2.68,14.41,6,28.56,9.33,42.65s6.92,28.09,10.52,42.14l4.77,18.47c6,23.12,7.72,30.53,8.34,35.67.14,1.17.37,2.7.39,3.39.07,2.33-2.64-7-7.16-23.9-6.66-25.07-13.4-50.86-19.65-77.18-3.11-13.16-6.16-26.44-8.69-39.92a363.93,363.93,0,0,1-4.92-41q-.76-10.77-1.14-21.58l-.16-5.41-.08-3.47v-.3h0l-.78.54c-.76.5-1.49,1.05-2.27,1.52l-2.36,1.42c-.79.47-1.56,1-2.36,1.41l-2.45,1.27c-1.61.89-3.34,1.58-5,2.31a21.66,21.66,0,0,1-2.63.95c-.89.27-1.76.61-2.68.83l-2.76.61c-.92.21-1.89.23-2.84.35a20.7,20.7,0,0,1-11.36-2.1,8.2,8.2,0,0,1-1.27-.76l-1.23-.84c-.38-.3-.74-.64-1.11-1a9.39,9.39,0,0,1-1.06-1l-.48-.55-.1-.11h0l0,0a.59.59,0,0,1,0-.08s0,.08,0,.12l-.05,3.27-.07,9.06c0,6,0,12.09.05,18.14Z"/><path class="cls-1" d="M376.59,204.8l-.34,7.2c0,.88,0,1.76,0,2.63-.14,3.09-.29,6.18-.37,9.27,0,1.37,0,2.75,0,4.11a35.24,35.24,0,0,1,0,5.24c-.13,1.09-2.21-.26-2.26-2.28a104.67,104.67,0,0,1,.31-10.76c.18-2.16.11-4.4.18-6.61l.28-7.27.2-4.47c.09-2.26.22-4.53.27-6.77,0-1.75-.05-3.46-.07-5.19,0-.38,0-.75,0-1.14,0-1.42.2-1.86.78-2.14a2.35,2.35,0,0,1,.4-.18c.44-.11.78.48.86,1.52a92.39,92.39,0,0,1,.08,9.58c-.09,2.41-.18,4.84-.27,7.26Z"/><path class="cls-1" d="M328.78,216.88l.59-8c.07-1,.08-1.95.17-2.93.31-3.43.7-6.85,1.13-10.27.2-1.52.34-3.05.52-4.57a19.61,19.61,0,0,1,1.2-5.84c.25-.59.81-.29,1.25.37a3.86,3.86,0,0,1,.52,1.2,3.37,3.37,0,0,1,.06,1.49c-.69,3.75-1.13,7.68-1.78,11.6-.39,2.36-.44,4.84-.62,7.27l-.56,8-.29,5c-.12,2.5-.26,5-.29,7.49,0,1.93.1,3.83.16,5.74,0,.42.05.84.05,1.26,0,1.57-.17,2.07-.81,2.39a3.11,3.11,0,0,1-.45.22c-.49.14-.89-.51-1-1.67a81.53,81.53,0,0,1-.24-10.65c.07-2.69.22-5.38.34-8.08Z"/><path class="cls-1" d="M354.05,454.71c-8.66-1-34.92,4.08-33.57,9.69C322.05,470.91,354.36,459.76,354.05,454.71Z"/><path class="cls-1" d="M328.65,467.62a18.65,18.65,0,0,1-6.13-.11,6.21,6.21,0,0,1-1.72-.68,3.37,3.37,0,0,1-1.46-1.71,3.62,3.62,0,0,1-.2-1.19,3.51,3.51,0,0,1,.25-1.14,4.15,4.15,0,0,1,.51-.88,4.57,4.57,0,0,1,.61-.68,13.33,13.33,0,0,1,3.84-2.44,45.88,45.88,0,0,1,7.11-2.28c2.39-.59,4.8-1.05,7.22-1.45,2.14-.35,4.3-.7,6.44-1a29.12,29.12,0,0,1,8.4-.28c.9.16.66.76-.09,1.3a6.81,6.81,0,0,1-3.54,1.15,130.73,130.73,0,0,0-16.4,2.11A35.07,35.07,0,0,0,324,461.6a8.41,8.41,0,0,0-2,1.44c-.51.58-.58,1-.4,1.37a2.61,2.61,0,0,0,1.75.88,12.57,12.57,0,0,0,2.63.16,36,36,0,0,0,6.79-.94,64.75,64.75,0,0,0,10-3.09,41,41,0,0,0,7-3.71c.48-.32.92-.66,1.36-1,.82-.63,1.26-1.06,1.6-1.3a2.38,2.38,0,0,1,.9-.42,2.64,2.64,0,0,0,.47-.25.28.28,0,0,1,.35.05.91.91,0,0,1,.2.64,3.35,3.35,0,0,1-1,2.1,22.9,22.9,0,0,1-6.44,4.44,57.48,57.48,0,0,1-7.21,3,60.37,60.37,0,0,1-11.4,2.74Z"/><path class="cls-1" d="M401.31,453.21c8.34-2.54,35.09-2.07,34.73,3.69C435.64,463.58,401.88,458.23,401.31,453.21Z"/><path class="cls-1" d="M428.44,458.5a16.61,16.61,0,0,0,5.09-.72c.73-.27,1.17-.67,1.19-.88a.63.63,0,0,0-.07-.43,2.31,2.31,0,0,0-.63-.62,11.36,11.36,0,0,0-3.39-1.39,46.51,46.51,0,0,0-7-1.32c-2.38-.29-4.78-.44-7.18-.52a56.69,56.69,0,0,0-6.39.2c-2.7.23-5.39.67-8,1.06-.8.13-.91-.48-.35-1.25a5.26,5.26,0,0,1,3.46-1.88,66,66,0,0,1,17.14,0c3.41.46,7,.73,10.46,1.94a10.26,10.26,0,0,1,2.83,1.48,8.06,8.06,0,0,1,.66.65,3.32,3.32,0,0,1,.53.88,4.51,4.51,0,0,1,.17.52c0,.18,0,.37.05.56a2.61,2.61,0,0,1-.2,1.07,3.34,3.34,0,0,1-1.28,1.51,6,6,0,0,1-1.52.73,14.68,14.68,0,0,1-3,.63,41.91,41.91,0,0,1-7.17,0,89.42,89.42,0,0,1-10.63-1.48,63,63,0,0,1-8-1.94,18,18,0,0,1-1.75-.68c-2.13-1-2.8-2.16-2.41-3a1,1,0,0,1,.33-.44c.23-.11.46,0,.71.12s.64.34,1.28.67a33.15,33.15,0,0,0,6.64,2.15c2.38.56,4.84,1,7.32,1.42a63.57,63.57,0,0,0,11.06.86Z"/><path class="cls-1" d="M358.36,201.35a45,45,0,0,1-7.59.67c-.93,0-1.86,0-2.78,0a36.38,36.38,0,0,1-9.57-2,30.25,30.25,0,0,1-4-1.71,13.75,13.75,0,0,1-2.41-1.59,4.42,4.42,0,0,1-1.62-2.73c0-.82.56-.53,1.14-.23a6.13,6.13,0,0,1,1.87,1,15.17,15.17,0,0,0,4.18,2.58,39.17,39.17,0,0,0,5,1.76,27.74,27.74,0,0,0,6.54.78,42.56,42.56,0,0,0,7.3-.4,41.73,41.73,0,0,0,4.43-.86,39.81,39.81,0,0,0,6.5-2.21,24.54,24.54,0,0,0,2.34-1.2c.76-.43,1.5-.88,2.23-1.36l1-.62c1.2-.78,1.66-.9,2.23-.58a2.46,2.46,0,0,1,.39.22c.36.29,0,.91-.81,1.59a33.36,33.36,0,0,1-8.86,4.83,45.14,45.14,0,0,1-7.43,2.05Z"/><path class="cls-1" d="M358.12,210.58a45,45,0,0,1-7.65,1.08c-.94.07-1.88.14-2.82.12a34.31,34.31,0,0,1-9.8-1.56,25.64,25.64,0,0,1-4.13-1.66,10,10,0,0,1-2.45-1.67,4.28,4.28,0,0,1-1.47-2.84c0-.77.57-.53,1.14-.18a7.91,7.91,0,0,1,1.8,1.17,12.39,12.39,0,0,0,4.15,2.56,32.23,32.23,0,0,0,5.1,1.6,27.76,27.76,0,0,0,6.66.47,42.7,42.7,0,0,0,7.37-.79,41.69,41.69,0,0,0,10.89-3.73,35.88,35.88,0,0,0,4.46-2.9c.31-.23.61-.47.93-.69,1.16-.87,1.62-1,2.22-.76a3.71,3.71,0,0,1,.4.19c.38.27.11.92-.72,1.67a33.13,33.13,0,0,1-8.65,5.47,45.8,45.8,0,0,1-7.41,2.5Z"/><path class="cls-1" d="M269.24,200.22a31.34,31.34,0,0,1-1.71,2.69c-.22.32-.38.67-.63,1a24.64,24.64,0,0,1-2.79,3c-.43.42-.87.85-1.29,1.28a4.7,4.7,0,0,1-1.9,1.38c-.47.14-1-2-.45-2.37,1.06-.83,2.11-1.75,3.25-2.69a11,11,0,0,0,1.67-2.09c.57-.82,1.13-1.64,1.63-2.51.31-.53.6-1.08.86-1.63a18.07,18.07,0,0,0,1-2.6,12.81,12.81,0,0,0,.27-2.12c0-.15,0-.31,0-.46.06-.57.23-.73.82-.77.13,0,.26,0,.4,0a.8.8,0,0,1,.81.77,9.68,9.68,0,0,1-.65,4.24,24.36,24.36,0,0,1-1.3,3Z"/><path class="cls-1" d="M382.8,254c5.18,5,16.76,1.56,22.05-1.74,1.16-.73-1.71-.3-2.2,0-4.41,2.75-12.89,4.82-17.11.78-.5-.49-3.09.62-2.74.95Z"/><path class="cls-1" d="M381.24,258.16c6.3,5,14.2,2.17,21.05-.07,1.67-.54,1.38-1.86-.35-1.3-5.9,1.93-12.52,4.67-18,.27-.74-.59-3.4.53-2.7,1.1Z"/><path class="cls-1" d="M209.65,390.88c-.15-7-.84-14-1.08-21.08-.08-2.59-.19-5.19-.09-7.79.05-1.15.06-2.26.22-3.51.07-.6.22-1.19.33-1.79s.32-1.16.51-1.72a32.69,32.69,0,0,1,3-6.34,124.49,124.49,0,0,1,7.94-11.15,98.3,98.3,0,0,0,6.78-9.83c2.52-4.34,4.4-9.13,4.17-14-.1-1.48.53-1.47,1.3-.16a5.59,5.59,0,0,1,.51,1.24c.08.24.15.51.22.79s.08.58.12.9a11.61,11.61,0,0,1-.4,4.28c-1.61,5.4-4.67,9.93-7.77,14.19s-6.49,8.29-9.46,12.54a32.51,32.51,0,0,0-4.28,8.22,17.14,17.14,0,0,0-.79,4.48c-.05,1.6-.11,3.2-.09,4.8,0,7,.66,14.09,1,21.2a116.07,116.07,0,0,1,0,13.19,62.86,62.86,0,0,1-1.36,9.94,38.37,38.37,0,0,1-3.3,9.5,34.16,34.16,0,0,1-9.91,11.8c-.91.7-1.83,1.33-2.8,1.94-3.67,2.18-5.07,2.42-6.12,2.22a3.71,3.71,0,0,1-.71-.17c-.27-.15-.06-.49.55-1a11,11,0,0,1,1.2-.78c.48-.32,1.05-.65,1.7-1a37.5,37.5,0,0,0,10.21-8.41,31.91,31.91,0,0,0,6.2-11.92,71.35,71.35,0,0,0,2.07-20.64Z"/><path class="cls-1" d="M154.45,347.83a30.4,30.4,0,0,1,6.65-10.25,69.44,69.44,0,0,1,9-7.88l3.38-2.53,1.66-1.24a7.27,7.27,0,0,0,1.11-1h0l0-.07a28.09,28.09,0,0,1,3.69-6.91,18.56,18.56,0,0,1,2.75-2.93,14.78,14.78,0,0,1,3.46-2.13,16.1,16.1,0,0,1,7.88-1,39.64,39.64,0,0,1,7.52,1.66,54.47,54.47,0,0,0,6.35,1.7,10.2,10.2,0,0,0,6-1c2.43-1.12,4.52-3,6.85-4.73a20.16,20.16,0,0,1,3.8-2.31,10.93,10.93,0,0,1,4.47-1c1.95.07,1.52.69.1,1.3-.71.32-1.62.77-2.63,1.33s-2.12,1.36-3.39,2.24a71,71,0,0,1-7.28,5.08,15.51,15.51,0,0,1-4.63,1.55l-1.25.09-.62,0-.64,0a15.69,15.69,0,0,1-2.39-.39c-3-.73-5.66-1.75-8.4-2.44a20.75,20.75,0,0,0-8.12-.74,11.41,11.41,0,0,0-7.08,4,19.07,19.07,0,0,0-2.44,3.59c-.38.63-.66,1.32-1,2-.16.33-.29.68-.43,1l-.44,1.1a5.15,5.15,0,0,1-.33.56,3.3,3.3,0,0,1-.4.42c-.22.19-.44.39-.65.55-.43.35-.86.66-1.28,1a116.43,116.43,0,0,0-9.22,7.18,41.74,41.74,0,0,0-7.63,8.6,19.84,19.84,0,0,0-2.72,6.36,13.32,13.32,0,0,0,.19,6.78,6,6,0,0,0,1,2.23,11,11,0,0,0,1.79,1.83,17.91,17.91,0,0,0,4.52,2.69c3.23,1.35,7,1.92,10.15.7a8.63,8.63,0,0,0,3.13-2.23,10.93,10.93,0,0,0,1.92-3.37,22.84,22.84,0,0,0,1-7.93c0-.6-.07-1.19-.11-1.78s-.13-1.19-.19-1.79c-.53-4.47-.8-5.9-.34-7a4.76,4.76,0,0,1,.3-.73c.2-.27.49,0,.84.82a17.34,17.34,0,0,1,1.07,3.75,41,41,0,0,1,.85,7.76,21.1,21.1,0,0,1-1.33,8.15,12,12,0,0,1-1,2c-.2.32-.38.65-.61.95l-.73.88a11,11,0,0,1-3.76,2.66,13.19,13.19,0,0,1-4.43.92,17.47,17.47,0,0,1-4.35-.46,21.79,21.79,0,0,1-5.91-2.35,18.27,18.27,0,0,1-2.65-1.85,12.06,12.06,0,0,1-2.32-2.49,6.1,6.1,0,0,1-.47-.79,8.21,8.21,0,0,1-.39-.88l-.47-1.56c-.12-.53-.21-1.08-.31-1.61s-.1-1.09-.14-1.64a17.34,17.34,0,0,1,1-6.38Z"/><path class="cls-1" d="M107,455.78c4.66-.43,9.33-1.32,13.09-3.74a15.23,15.23,0,0,0,4.64-4.68,20.71,20.71,0,0,0,2.51-6.27,18.81,18.81,0,0,0,.45-2.49c.11-.83.22-1.67.31-2.58a50.12,50.12,0,0,1,.84-5.31,61.15,61.15,0,0,1,6.79-17.57,85.85,85.85,0,0,1,11.1-15.1c3.7-4.11,7.68-8,11.63-11.75,2.54-2.41,5.09-4.82,7.5-7.3a44.63,44.63,0,0,0,3.37-3.85,8.76,8.76,0,0,0,2-4.2c0-.87,0-1.29.24-1.35s.75.3,1.06,1.33a6.42,6.42,0,0,1-.57,4.22,17.63,17.63,0,0,1-3.27,4.74c-2.51,2.69-5.17,5.1-7.78,7.54s-5.2,4.86-7.71,7.36A103.6,103.6,0,0,0,139.59,411a57.65,57.65,0,0,0-9.06,24.05,59.65,59.65,0,0,1-1.16,7.3,22.14,22.14,0,0,1-3.12,6.92,17.66,17.66,0,0,1-5.62,5.16,24.89,24.89,0,0,1-7,2.7c-6,1.38-12,1.22-17.94,1.65a28.93,28.93,0,0,0-6.5,1,9.71,9.71,0,0,0-2.83,1.34,3.62,3.62,0,0,0-1.61,2.22,3,3,0,0,0,1,2.47,8.92,8.92,0,0,0,2.51,1.86,21.9,21.9,0,0,0,6.18,2c6.74,1.23,13.6.47,20.19-1,1.45-.35,2.87-.74,4.31-1.18,2.68-.78,4.43-1.39,5.69-1.72a7.4,7.4,0,0,1,2.7-.37,6.84,6.84,0,0,1,.92.11c.34.13,0,.5-.88,1.06a26.26,26.26,0,0,1-4.34,2,64.07,64.07,0,0,1-18.81,4.06,43.9,43.9,0,0,1-10-.58,27.65,27.65,0,0,1-5-1.37A14.81,14.81,0,0,1,84.42,468,7.06,7.06,0,0,1,83,466.15a4.85,4.85,0,0,1-.65-2.58,5,5,0,0,1,.87-2.56,8.84,8.84,0,0,1,.78-.94l.86-.73a16.2,16.2,0,0,1,7.59-2.62c5-.63,9.87-.52,14.6-1Z"/><path class="cls-1" d="M162.75,446.74a23.49,23.49,0,0,0-3.85-5.68,16.2,16.2,0,0,0-1.88-1.54,10.32,10.32,0,0,0-3.78-1.77,9.43,9.43,0,0,0-4.22.14,8.74,8.74,0,0,0-1.83.67l-.88.44c-.29.17-.56.36-.83.54-1.44.9-2.62,2.15-4.06,3.12-.91.62-1.53-2,.13-3.44a20.11,20.11,0,0,1,2.35-1.7c.42-.25.83-.51,1.27-.74l1.37-.61a11.94,11.94,0,0,1,6-.8,13.64,13.64,0,0,1,6.7,2.84,22,22,0,0,1,4.82,6,34.87,34.87,0,0,1,2,4.17,52.21,52.21,0,0,1,2.19,6.61,45.3,45.3,0,0,1,1.2,5.24c.05.4.11.8.14,1.21,0,1.55-.31,2.15-1,2.29a2,2,0,0,1-.47.07.74.74,0,0,1-.56-.46,3.11,3.11,0,0,1-.23-1.06,50.84,50.84,0,0,0-2-8.94,38.59,38.59,0,0,0-2.63-6.53Z"/><path class="cls-1" d="M144,471.5c-1.83-.27-3.65-.6-5.46-1-.67-.15-1.34-.24-2-.43a23.8,23.8,0,0,1-3.45-1.25,12.09,12.09,0,0,1-3.21-2,5.57,5.57,0,0,1-1.79-3.2,5.19,5.19,0,0,1,1.21-4.28c.29-.35.77.06,1.12.66a2.61,2.61,0,0,1,.4,1.89,4.27,4.27,0,0,0-.23,1.32,2.28,2.28,0,0,0,.34,1.1,6.93,6.93,0,0,0,2.4,2.15,15.63,15.63,0,0,0,4.47,1.53c1.72.42,3.49.76,5.28,1,1.1.16,2.21.32,3.32.44,1.68.18,3.38.37,5.07.45,1.31.06,2.61,0,3.93,0,.29,0,.58,0,.87,0,1.1.07,1.46.31,1.58,1a3.87,3.87,0,0,1,.06.46c0,.51-.47.82-1.23.87a49.21,49.21,0,0,1-7.17-.05c-1.83-.12-3.67-.32-5.52-.55Z"/><path class="cls-1" d="M176.2,470.08l.16-.08a.18.18,0,0,0,.11-.13,2.2,2.2,0,0,0-.19-.86,6.8,6.8,0,0,0-1.35-2,12.08,12.08,0,0,0-1.56-1.28,11.25,11.25,0,0,0-6.78-2.25,9.83,9.83,0,0,0-3.22.61c-1.33.48-2.49,1.28-3.81,1.85-.42.18-.74-.36-.73-1.08a2.38,2.38,0,0,1,1.19-2.1,13.92,13.92,0,0,1,4.83-1.57,12.16,12.16,0,0,1,5.09.44,16.77,16.77,0,0,1,5.5,2.69,11.33,11.33,0,0,1,2.31,2.52,7.07,7.07,0,0,1,.81,1.6,3.73,3.73,0,0,1,.18,2.09,2.38,2.38,0,0,1-.82,1.28,8,8,0,0,1-2.92,1.3,16.22,16.22,0,0,1-6.07-.17c-1.51-.26-3-.5-4.45-.84-.32-.07-.64-.13-1-.22-1.17-.34-1.47-.6-1.53-1.29a2.56,2.56,0,0,1,0-.47c0-.51.64-.75,1.53-.62,2.64.41,5.22,1.15,7.75,1.38a10.94,10.94,0,0,0,2.69,0,7.75,7.75,0,0,0,1.22-.27,5.15,5.15,0,0,0,1-.52Z"/><path class="cls-1" d="M177,444.79l-1.36-10.65c-.17-1.29-.41-2.58-.57-3.87-.56-4.57-1.07-9.13-1.68-13.69-.27-2-.61-4-1-6-.5-2.54-1.08-5.1-1.43-7.6-.1-.79.52-.87,1.26-.34a5.18,5.18,0,0,1,1.9,3.17,157.58,157.58,0,0,1,2.18,15.89c.28,3.2.87,6.48,1.3,9.72L179,442.12c.3,2.19.61,4.39.91,6.58.49,3.32,1,6.65,1.59,9.92.48,2.54,1.13,5,1.78,7.44.15.54.32,1.06.47,1.6a16.2,16.2,0,0,1,.45,2.13,1.62,1.62,0,0,1-.32,1.13,3,3,0,0,1-.33.43c-.4.37-1-.32-1.66-1.83a82,82,0,0,1-3.33-14c-.62-3.56-1.12-7.15-1.64-10.73Z"/><path class="cls-1" d="M186.33,442.73l-.46-8.36c-.07-1-.2-2-.26-3.05-.2-3.58-.37-7.17-.62-10.75-.11-1.59-.29-3.18-.5-4.75-.14-1-.28-2-.43-3l-.17-1.5c0-.47-.07-1.05-.09-1.41s.55-.76,1.25-.35a2.19,2.19,0,0,1,.54.45,4,4,0,0,1,.47.58,3.71,3.71,0,0,1,.58,1.55,113.45,113.45,0,0,1,.87,12.5c0,2.51.37,5.1.55,7.65l.52,8.44.32,5.19c.17,2.61.3,5.25.54,7.84.17,2,.48,4,.72,6,.06.44.13.87.16,1.32.15,1.64,0,2.22-.64,2.58a2.61,2.61,0,0,1-.43.24c-.49.15-.91-.49-1.11-1.66-.63-3.52-1-7.27-1.28-11-.19-2.8-.39-5.62-.59-8.43Z"/><path class="cls-1" d="M195.53,455l-1-5.81c-.12-.71-.31-1.4-.42-2.11-.39-2.5-.69-5-1-7.53-.13-1.12-.3-2.23-.49-3.33a16.34,16.34,0,0,1-.4-4.3c.08-.9,2.49.07,2.65,1.64.32,2.83.65,5.68.83,8.59a46.25,46.25,0,0,0,.86,5.27l1.05,5.79c.23,1.19.46,2.38.71,3.56.38,1.8.74,3.61,1.2,5.37.36,1.37.85,2.68,1.28,4,.1.29.21.57.3.87.31,1.11.24,1.51-.33,1.9a3.3,3.3,0,0,1-.39.26c-.45.22-1-.14-1.3-.92a47.66,47.66,0,0,1-2.32-7.46c-.46-1.92-.86-3.86-1.27-5.8Z"/><path class="cls-1" d="M201.7,450.28l-.66-4.95c-.09-.61-.23-1.2-.3-1.8-.25-2.12-.42-4.26-.65-6.38-.09-.95-.25-1.89-.42-2.81a13.28,13.28,0,0,1-.44-3.61c.06-.76,2.48-.09,2.68,1.26a59.4,59.4,0,0,1,.67,7.34,43.48,43.48,0,0,0,.59,4.49l.69,4.94c.15,1,.31,2,.48,3,.27,1.52.52,3.06.91,4.54a24.06,24.06,0,0,0,1.19,3.31l.3.68a1.88,1.88,0,0,1,.22.9,1.53,1.53,0,0,1-.38.63c-.1.12-.18.26-.28.38a.54.54,0,0,1-.65.18,1.61,1.61,0,0,1-.79-.71,21.18,21.18,0,0,1-2.29-6.45c-.37-1.64-.64-3.31-.93-5Z"/><path class="cls-1" d="M212.47,466.76c.29-.22.28-.2.34-.31a1.26,1.26,0,0,0-.38-.8,4.67,4.67,0,0,0-.77-.69,6.54,6.54,0,0,0-3.61-1.49,5.8,5.8,0,0,0-1.86.12,14.2,14.2,0,0,1-2.31.58c-.26,0-.49-.56-.49-1.21s.25-1.36.8-1.53a8.91,8.91,0,0,1,6,.19,11.28,11.28,0,0,1,3.31,1.77,5.84,5.84,0,0,1,1.36,1.73,3,3,0,0,1,.31,1.31,2.55,2.55,0,0,1-.4,1.32,4.57,4.57,0,0,1-2.16,1.61,16.11,16.11,0,0,1-3.44.88,25.58,25.58,0,0,1-2.69.44,3.39,3.39,0,0,1-.64,0c-.81-.06-1.13-.35-1-1a2.14,2.14,0,0,1,.08-.44,1.2,1.2,0,0,1,.87-.83c1.24-.23,2.73-.42,4.11-.73a7.15,7.15,0,0,0,2.59-1Z"/><path class="cls-1" d="M197.11,467.7a2.84,2.84,0,0,0,.36-.25c.05,0,.06-.06.1-.11s-.06-.41-.39-.79a6.24,6.24,0,0,0-.84-.68,8.42,8.42,0,0,0-4.09-1.4,6.9,6.9,0,0,0-2,.12,20.51,20.51,0,0,1-2.5.58c-.27,0-.5-.56-.48-1.21a1.56,1.56,0,0,1,.92-1.55,10.55,10.55,0,0,1,6.29.16,12.44,12.44,0,0,1,3.63,1.65,5.44,5.44,0,0,1,1.53,1.83,2.69,2.69,0,0,1,.29,1.45,2.47,2.47,0,0,1-.56,1.36,5.35,5.35,0,0,1-2.37,1.52,20.47,20.47,0,0,1-3.67.85c-1,.15-1.87.39-2.88.46a4.86,4.86,0,0,1-.67,0c-.86-.06-1.19-.35-1.13-1a1.62,1.62,0,0,1,.07-.44,1.19,1.19,0,0,1,.91-.83c1.36-.23,3-.43,4.51-.74a9.14,9.14,0,0,0,3-1Z"/><path class="cls-1" d="M232.4,306.29c-4.21-.16-5.51,8.55.08,7.37C235.07,313.11,235.23,306.21,232.4,306.29Z"/><path class="cls-1" d="M234.32,314.31a5.35,5.35,0,0,1-.7.47,6.89,6.89,0,0,1-.84.28,8.34,8.34,0,0,1-1.5,0l-.8-.14a4.74,4.74,0,0,1-.78-.32,2.85,2.85,0,0,1-.75-.49l-.35-.29a3.9,3.9,0,0,1-.25-.36,4.2,4.2,0,0,1-.57-1.36,5.29,5.29,0,0,1-.07-1.31,6.44,6.44,0,0,1,.62-2.37,7.68,7.68,0,0,1,1.18-1.84,2.9,2.9,0,0,1,.53-.52,3.12,3.12,0,0,1,.64-.43,4.71,4.71,0,0,1,.75-.25,2.9,2.9,0,0,1,.78,0c.34.06.2.68,0,1.3a4.72,4.72,0,0,1-.4,1.29,2.71,2.71,0,0,0-1,.86,7.39,7.39,0,0,0-.83,1.56,1.8,1.8,0,0,0,.39,1.82,2.15,2.15,0,0,0,1.88.48l.1,0a1.58,1.58,0,0,0,.9-.91,5,5,0,0,0,.45-2.59,2.6,2.6,0,0,0-.8-1.62c-.06-.09-.16-.06-.21-.11s-.14-.19-.23-.86c0-.15-.06-.3-.08-.45a.67.67,0,0,1,.18-.64,1,1,0,0,1,.92-.18,2.37,2.37,0,0,1,.84.37l.37.28.27.3.27.33.19.32a4.51,4.51,0,0,1,.31.68,6.53,6.53,0,0,1,.33,2.71,7.17,7.17,0,0,1-.43,2,5.31,5.31,0,0,1-1.3,2Z"/><path class="cls-1" d="M342.84,105.4c-.1-.28.23-.42.68-.59.15,0,.56,0,.62.07a4.29,4.29,0,0,1,.31.55c.05.14-.05,1.72-.05,2.21s-.07,1-.12,1.39a3.43,3.43,0,0,0,.2,2.07c.06.07.08.2.12.25s.06.18.1.18,0,0,.05.06.05,0,.07,0a.75.75,0,0,0,.5-.13.33.33,0,0,0,.19-.18c0-.08.35-.32.67-.66s.66-.73.74-.81a6.41,6.41,0,0,0,1.19-1.35c.05-.07.06-.16.17-.2.26-.09.29-.28.36-.45s.17-.47.3-.7a1.54,1.54,0,0,1,.27-.34c.09-.11.38-.05.41,0s.23,0,.36,0h.13a3,3,0,0,1,.18,1,4.77,4.77,0,0,1-.1,1.16l-.16.44c-.1.24-.25.57-.41.89a13.2,13.2,0,0,1-.83,1.42,1.5,1.5,0,0,1-.37.34,9.18,9.18,0,0,1-.83.91,5,5,0,0,1-1.09.82,2.48,2.48,0,0,1-1.88.27,3.07,3.07,0,0,0-.42-.07,3.87,3.87,0,0,1-.85-.34,5.54,5.54,0,0,1-.64-.54,3.64,3.64,0,0,1-.76-1.33,5.28,5.28,0,0,1-.29-1.35,1,1,0,0,1,0-.24,1.43,1.43,0,0,0,0-.29,18.6,18.6,0,0,1,.33-2.71c0-.2.43-1,.45-1.26S342.88,105.51,342.84,105.4Z"/><path class="cls-1" d="M354.93,108.17c-.1-.25.23-.37.67-.53a1,1,0,0,1,.62.07,3.18,3.18,0,0,1,.31.53c.06.13-.07,1.64-.08,2.08s-.08.86-.13,1.23a1.84,1.84,0,0,0,.35,1.55.26.26,0,0,1,.12.18c0,.22.4.26.87,0,.07,0,.16-.08.2-.18a8.55,8.55,0,0,1,.72-.61l.81-.69a9.83,9.83,0,0,0,1.38-1.07c.06-.06.09-.15.2-.16.27,0,.35-.19.46-.34a6.58,6.58,0,0,1,.5-.57,1.81,1.81,0,0,1,.37-.2c.13-.06.37.1.38.16s.2.12.32.15l.12,0a3.32,3.32,0,0,1-.13.94,4.72,4.72,0,0,1-.34,1l-.22.34c-.14.19-.31.46-.51.72-.38.52-.84,1-.93,1.15a1.37,1.37,0,0,1-.37.26,10.85,10.85,0,0,1-.82.75,6.53,6.53,0,0,1-1,.69,2.65,2.65,0,0,1-1.59.31l-.36,0a2.68,2.68,0,0,1-1.54-.51,7,7,0,0,1-.57-.52c-.14-.19-.28-.37-.4-.57a4.69,4.69,0,0,1-.53-1.3,2.09,2.09,0,0,1,0-.25c0-.1,0-.2,0-.29a9.89,9.89,0,0,1,.29-2.67c0-.19.45-1,.46-1.16S355,108.28,354.93,108.17Z"/><path class="cls-1" d="M348.5,111.1a11.52,11.52,0,0,0,1.83-4.8,6.13,6.13,0,0,0-.16-1.72A4.77,4.77,0,0,0,348.7,102a9.08,9.08,0,0,0-2.92-1.61c-.5-.16-1-.26-1.53-.37s-1.05-.12-1.57-.17c-.68,0-1.37,0-2.05,0a11,11,0,0,1-2.06-.1c-.88-.14.11-2.48,1.84-2.54.76,0,1.52.06,2.28.1s1.54.19,2.3.39a11.41,11.41,0,0,1,4.42,2,9.05,9.05,0,0,1,1.14,1,6.57,6.57,0,0,1,1,1.22,6.47,6.47,0,0,1,1.07,3,8.88,8.88,0,0,1-.27,3.27,14.37,14.37,0,0,1-1.14,2.93,21.65,21.65,0,0,1-2,3.16,23.59,23.59,0,0,1-4,4,14.79,14.79,0,0,1-3.8,2.37,4.57,4.57,0,0,1-1,.31c-1.36.23-1.88-.14-2-.79a2.42,2.42,0,0,1-.06-.45.88.88,0,0,1,.37-.61,2.62,2.62,0,0,1,.77-.32,14.69,14.69,0,0,0,5.61-3.53,21,21,0,0,0,3.4-4.16Z"/><path class="cls-1" d="M368,103.86c.23.15.12.48-.21.83a1.32,1.32,0,0,1-.59.28l-.47-.11s-.26-.2-.53-.38a1.71,1.71,0,0,0-.46-.19c-.17,0-.24-.13-.34-.16a5.18,5.18,0,0,1-.86-.49,7.27,7.27,0,0,0-1.84-.82,2.05,2.05,0,0,1-.41-.22,2.67,2.67,0,0,0-1.52-.49c-.09,0-.18,0-.27,0a8.78,8.78,0,0,1-1.78,0,6.62,6.62,0,0,0-1.48-.23c-.07,0-.14,0-.22,0s-.35-.14-.5-.13a2.46,2.46,0,0,1-.67,0,1.06,1.06,0,0,1-.4-.18c-.13-.07-.2-.43-.18-.48s-.08-.28-.14-.42a.53.53,0,0,1-.05-.15,4.77,4.77,0,0,1,1.34-1.14,17.54,17.54,0,0,1,2.42-.59.92.92,0,0,1,.4,0,17.48,17.48,0,0,1,1.93-.08,1.85,1.85,0,0,1,1.07.33.33.33,0,0,0,.21.07,6.06,6.06,0,0,1,1.78.7l.88.43a1.66,1.66,0,0,1,.14.13.75.75,0,0,0,.16.15,17.61,17.61,0,0,1,1.87,1.41c.18.08.49,1,.61,1.14S367.9,103.8,368,103.86Z"/><path class="cls-1" d="M340.38,131.59c-.17-.12-.08-.36.2-.58a1.25,1.25,0,0,1,.47-.16l.31.06a1.76,1.76,0,0,0,.66.32c.2,0,.34.1.53.13a2.35,2.35,0,0,0,1.15,0c.09,0,.18,0,.27,0a1.19,1.19,0,0,0,.86-.28s.09-.05.1-.12.53-.66.61-.74a2.22,2.22,0,0,0,.52-.67s0-.08.08-.1a.25.25,0,0,0,.19-.26,2.25,2.25,0,0,1,.12-.4,1.14,1.14,0,0,1,.19-.2.37.37,0,0,1,.31,0c.06.07.17,0,.27,0h.09a2.89,2.89,0,0,1,.32,1.14,7.25,7.25,0,0,1-.17.8c-.08.2-.15.41-.21.58l-.17.32a.83.83,0,0,1-.2.22,6.66,6.66,0,0,1-.44.55,2.65,2.65,0,0,1-.53.48,1.29,1.29,0,0,1-.75.31.33.33,0,0,0-.15.05,3.6,3.6,0,0,1-1.33.24H343a.28.28,0,0,1-.13,0,.83.83,0,0,0-.15,0,5.24,5.24,0,0,1-1.57-.51,3.6,3.6,0,0,1-.64-.7C340.44,132,340.43,131.64,340.38,131.59Z"/><path class="cls-1" d="M359.32,138.07c-7.57,7.89-13.95,6-14.7,5.52.33,1.82,1.1,5.81,6,4.73C356.67,147,358.4,139.7,359.32,138.07Z"/><path class="cls-1" d="M349.36,150a5.22,5.22,0,0,1-4.45-2,3.62,3.62,0,0,1-.27-.41,2.7,2.7,0,0,1-.28-.5,8.78,8.78,0,0,1-.81-2.41l-.1-.53.33-.33.25-.28.2-.24c.06,0,.11,0,.19,0l.2-.05c.25-.08.65-.25,1.1-.45a9.94,9.94,0,0,0,1.45.26c.25,0,.5,0,.75,0a9.66,9.66,0,0,0,1.51-.1,12.36,12.36,0,0,0,3-.81,12,12,0,0,0,2.81-1.68c1.13-.83,2.05-1.92,3.23-2.73.76-.53,1.64,1.89.31,3.16a18.92,18.92,0,0,1-3.94,2.78,13.75,13.75,0,0,1-4.71,1.46c-.64.08-1.3.13-2,.15a6.68,6.68,0,0,1-1,0h-.38a1.82,1.82,0,0,1-.43-.11c-.05,0-.15-.1-.12,0s0,.2,0,.31a1.81,1.81,0,0,0,.1.42c0,.07.05.14.08.22s.16.25.23.38a2.69,2.69,0,0,0,1.52,1.05,5.82,5.82,0,0,0,3.2-.22,8.27,8.27,0,0,0,4.08-3.14,14.41,14.41,0,0,0,1.74-3.75c.1-.3.19-.59.28-.89.41-1.1.72-1.44,1.43-1.41a2.24,2.24,0,0,1,.46,0c.47.18.66.67.48,1.52a14.81,14.81,0,0,1-4,7.6,12.66,12.66,0,0,1-1.38,1.14,11.14,11.14,0,0,1-1.6.86,9.68,9.68,0,0,1-3.55.8Z"/><path class="cls-1" d="M195.8,325.62c-.24-.07-.24-.4,0-.81a1.41,1.41,0,0,1,.48-.37l.42,0c.06,0,1,.46,1.4.55a4,4,0,0,1,.93.43,6.24,6.24,0,0,0,1.73.69,1.12,1.12,0,0,1,.32.12c.36.18.59.11.66,0s0,0,0-.11,0-.18.1-.44.11-.61.14-.69a5.51,5.51,0,0,0,.31-1.33c0-.07,0-.14,0-.21s.13-.31.13-.46a3.43,3.43,0,0,1,0-.64,1.06,1.06,0,0,1,.18-.35c.06-.11.36-.12.4-.09s.23,0,.35-.06l.12,0a5.31,5.31,0,0,1,.81,1.35l.07.33.11.72c0,.28.05.56.07.79v.5a.72.72,0,0,1-.11.39,5.36,5.36,0,0,1-.22,1,3.37,3.37,0,0,1-.65,1.13,2,2,0,0,1-1.44.69.92.92,0,0,0-.29,0,3.7,3.7,0,0,1-2.09-.25c-.3-.11-.6-.19-.88-.31a1.21,1.21,0,0,1-.14-.1.74.74,0,0,0-.17-.12,18.49,18.49,0,0,1-1.79-1c-.14-.07-.6-.7-.75-.8S195.9,325.64,195.8,325.62Z"/></g></svg>