<svg id="Layer_1" data-name="Layer 1" xmlns="http://www.w3.org/2000/svg" width="520" height="520" viewBox="0 0 520 520"><defs><style>.cls-1{fill:#221f1f;}</style></defs><title>Notioly v2</title><g id="_25.Meeting" data-name="25.Meeting"><path class="cls-1" d="M277,317.91h0a2.54,2.54,0,0,0-2,1.7c0,.14-.08.5.83.82a1.11,1.11,0,0,0,1-.17,1.57,1.57,0,0,0,.65-1.23C277.47,318.29,277.31,317.91,277,317.91Zm0,0h0a2.54,2.54,0,0,0-2,1.7c0,.14-.08.5.83.82a1.11,1.11,0,0,0,1-.17,1.57,1.57,0,0,0,.65-1.23C277.47,318.29,277.31,317.91,277,317.91Zm0,0h0a2.54,2.54,0,0,0-2,1.7c0,.14-.08.5.83.82a1.11,1.11,0,0,0,1-.17,1.57,1.57,0,0,0,.65-1.23C277.47,318.29,277.31,317.91,277,317.91Zm0,0h0a2.54,2.54,0,0,0-2,1.7c0,.14-.08.5.83.82a1.11,1.11,0,0,0,1-.17,1.57,1.57,0,0,0,.65-1.23C277.47,318.29,277.31,317.91,277,317.91Zm14.65-22.61s-16-10.95-16.57-10c-4,6.44-14.14,9.53-14.14,9.53s-11.66,44-9.76,64.89c2.29,25.11,33.22,33.74,45.54,33.31L308,394.46C311,361,292.88,314.52,291.66,295.3ZM278,321.89a3.13,3.13,0,0,1-1.81.59,3,3,0,0,1-1-.16c-2.35-.8-2.25-2.53-2.16-3a4.47,4.47,0,0,1,4-3.37h0c1.19,0,2.46.84,2.44,3.13A3.6,3.6,0,0,1,278,321.89Zm.89-12.93a2.81,2.81,0,0,1-1.95.77,3.24,3.24,0,0,1-1.12-.2,3.06,3.06,0,0,1-2.07-3.42,3.4,3.4,0,0,1,3-3.07,3.6,3.6,0,0,1,1.1.08,2.84,2.84,0,0,1,2,2.13A3.93,3.93,0,0,1,278.86,309Zm-1.85,9h0a2.54,2.54,0,0,0-2,1.7c0,.14-.08.5.83.82a1.11,1.11,0,0,0,1-.17,1.57,1.57,0,0,0,.65-1.23C277.47,318.29,277.31,317.91,277,317.91Zm0,0h0a2.54,2.54,0,0,0-2,1.7c0,.14-.08.5.83.82a1.11,1.11,0,0,0,1-.17,1.57,1.57,0,0,0,.65-1.23C277.47,318.29,277.31,317.91,277,317.91Zm0,0h0a2.54,2.54,0,0,0-2,1.7c0,.14-.08.5.83.82a1.11,1.11,0,0,0,1-.17,1.57,1.57,0,0,0,.65-1.23C277.47,318.29,277.31,317.91,277,317.91Z"/><path class="cls-1" d="M148.79,254.21a25.83,25.83,0,0,1-6,8.39,27.64,27.64,0,0,1-2.89,2.42A38.84,38.84,0,0,1,128,270.47l-1.39.4a8.08,8.08,0,0,0-1.22.46,4,4,0,0,0-1.78,1.62,11.07,11.07,0,0,0-.94,3.24,15.19,15.19,0,0,1-1.06,3.59c-.35.72-.74.4-1-.35a7.29,7.29,0,0,1-.08-3.23,15,15,0,0,1,1.13-3.86,6.11,6.11,0,0,1,3.4-3l1-.32.88-.24c.58-.16,1.17-.3,1.74-.49,1.17-.34,2.32-.73,3.46-1.15a28.53,28.53,0,0,0,7.64-4.46,24.85,24.85,0,0,0,6.31-7.34,27.24,27.24,0,0,0,2.28-5.58l.37-1.28a3.54,3.54,0,0,1,.36-.87.72.72,0,0,1,.31-.29c.1-.13.27-.11.41-.14.91,0,1.34,0,1.92,0s1.1,0,1.64,0a6.39,6.39,0,0,0,3-.71.94.94,0,0,0,.43-1,4.17,4.17,0,0,0-.66-1.37c-.64-.92-1.42-1.79-2.2-2.71-.34-.41-.69-.8-1-1.24-1.21-1.66-1.33-2.49-1-3.05a1.73,1.73,0,0,1,.24-.36c.35-.26.74.36,1.53,1.42,1.16,1.62,2.76,3.05,4.11,5.13a8.54,8.54,0,0,1,.47.85,3.77,3.77,0,0,1,.34,1.16,2.7,2.7,0,0,1-1.13,2.61,5.42,5.42,0,0,1-2,.86,12.53,12.53,0,0,1-1.86.25c-.62,0-1.22.05-1.81.05l-1.23,0h0l-.09.29L150,251a29.42,29.42,0,0,1-1.19,3.25Z"/><path class="cls-1" d="M143.26,230.11a.7.7,0,0,1,.08-.8c0-.09.28-.14.34-.08l.32.39a9.73,9.73,0,0,0,1.16,1.71c.33.33.61.68.91,1a3.28,3.28,0,0,0,1,.65,2.35,2.35,0,0,0,1,.11c.15,0,.31,0,.48-.06l.23,0,.09,0c.09,0,.09-.07.16-.09a1.38,1.38,0,0,0,.13-.69.47.47,0,0,0,0-.3c-.05-.08-.11-.55-.25-1.08s-.3-1.06-.33-1.19a15,15,0,0,0-.49-1.92c0-.1-.09-.18-.07-.29a.84.84,0,0,0-.14-.62c-.11-.26-.23-.52-.32-.8a1.24,1.24,0,0,1,0-.48c0-.15.21-.2.26-.18s.17-.07.25-.13a.24.24,0,0,1,.08-.06,7,7,0,0,1,1.39,1.5,4.22,4.22,0,0,0,.21.38l.41.85c.29.63.56,1.32.61,1.47a1.78,1.78,0,0,1,.09.47s.19.56.3,1.14a5.37,5.37,0,0,1,.14,1.28,2.57,2.57,0,0,1-.56,1.68c-.09.09-.19.2-.28.31a2.1,2.1,0,0,1-.72.54,4.09,4.09,0,0,1-2,.3,4.47,4.47,0,0,1-1.35-.34,1,1,0,0,1-.21-.14,2.2,2.2,0,0,0-.25-.17,6.33,6.33,0,0,1-2-2.17c-.12-.19-.42-1.17-.5-1.39S143.32,230.21,143.26,230.11Z"/><path class="cls-1" d="M113.44,240.4c3.63,10.74-12.63,26.22-26.88,28.15C74.73,270.16,62.1,266,54.13,257c-11-12.42-5.33-30.73,3.75-42.7,14.06-18.54,35.56-33.61,58.75-33.5,11.55.06,15,4.33,19.86,5.79,10.43-9.15,35.63-14.38,39.3,5.84,2.23,12.27-10.35,21.69-23.14,23.12-16.16,1.81-19.62-4.4-22-5.85-2.84-1.9-11.32,13.38-12.74,14.47-3.28-3.19-10.28-5.17-14.1-1.79C93.07,231.88,109.85,241.53,113.44,240.4Z"/><path class="cls-1" d="M155,179.86a36.25,36.25,0,0,0-13.46,4.52,29.29,29.29,0,0,0-3,2q-.36.25-.69.54l-.57.47-.33.27c-.11.09-.21.24-.36.13l-1.43-.48-.9-.38c-2.35-1.08-4.39-2.32-6.61-3.17a33,33,0,0,0-14.08-1.82,58.41,58.41,0,0,0-14.22,2.59,73.9,73.9,0,0,0-19,9.42A92.42,92.42,0,0,0,66.1,206.05c-1.08,1.13-2.17,2.25-3.18,3.45l-1.55,1.77L59.9,213.1a51.61,51.61,0,0,0-5.3,7.7,43.1,43.1,0,0,0-5.7,17.57,27.28,27.28,0,0,0,.88,9.14l.32,1.11a6.06,6.06,0,0,0,.39,1.08l.93,2.1,1.17,2A18.83,18.83,0,0,0,54,255.64a33.26,33.26,0,0,0,13.15,9.7,37.53,37.53,0,0,0,16.12,2.8c7-.17,13.7-3.31,19.23-7.62a36.13,36.13,0,0,0,7.28-7.54c2-2.83,3.51-6.1,3.55-9.49-.06-2.08-.38-3-.14-3s.85.93,1.15,2.88a12.23,12.23,0,0,1-.08,3.54,17.65,17.65,0,0,1-1.42,4.38,29.11,29.11,0,0,1-7,9.11,42.77,42.77,0,0,1-9.33,6.31,31,31,0,0,1-10.89,3.21,38,38,0,0,1-11.27-.48,38.51,38.51,0,0,1-10.68-3.67,35.29,35.29,0,0,1-9.11-6.72,21.32,21.32,0,0,1-1.88-2.14l-.89-1.14-.43-.57-.37-.63-.73-1.24a7.7,7.7,0,0,1-.67-1.27c-.37-.89-.81-1.75-1.1-2.67a28.07,28.07,0,0,1-1.31-11.31,39.68,39.68,0,0,1,2.58-11,52.43,52.43,0,0,1,6.42-11.92,97.71,97.71,0,0,1,8.76-10.43,89.37,89.37,0,0,1,21.58-16.72c8.79-4.73,18.63-7.91,28.72-8A31.71,31.71,0,0,1,130,182.75c1.15.52,2.26,1.11,3.35,1.68.55.28,1.09.54,1.64.79l.82.34.51.17c.06,0,.11-.06.16-.09l.22-.18c.24-.21.5-.41.75-.59.51-.39,1-.75,1.56-1.1a35.79,35.79,0,0,1,3.28-1.9,39.43,39.43,0,0,1,8.74-3.18,31.75,31.75,0,0,1,9.28-.82,19,19,0,0,1,8.94,2.82,13.87,13.87,0,0,1,3.52,3.18,15.68,15.68,0,0,1,2.38,4.09,21,21,0,0,1,1.5,7,16.16,16.16,0,0,1-1.51,7,15.84,15.84,0,0,1-.81,1.59l-1,1.5a23.91,23.91,0,0,1-2.33,2.69,27,27,0,0,1-2.68,2.33,29.93,29.93,0,0,1-3,1.92c-1,.62-2.09,1.08-3.14,1.6s-2.17.9-3.31,1.2a32.46,32.46,0,0,1-6.87,1.39c-4.61.44-9.38.47-13.88-1a17.24,17.24,0,0,1-4.26-2.1,22.31,22.31,0,0,1-1.86-1.43,19.32,19.32,0,0,0-1.67-1.36.66.66,0,0,0-.55,0,2.86,2.86,0,0,0-.74.4,9.81,9.81,0,0,0-1.45,1.31,35.91,35.91,0,0,0-2.57,3.17c-1.62,2.21-3.11,4.53-4.63,6.83l-.58.87-.3.43-.34.49a7.62,7.62,0,0,1-1,1.15l-.14.14s-.09.1-.15,0l-.29-.22-.6-.45c-.1-.07-.21-.17-.31-.25l-.27-.2c-.13-.09-.26-.2-.4-.28s-.54-.36-.83-.51a14.26,14.26,0,0,0-1.77-.83A10.39,10.39,0,0,0,106,222a5.58,5.58,0,0,0-.91.47,9.31,9.31,0,0,0-.81.63l-.78.76-.69.82a7.46,7.46,0,0,0-1.62,3.78,6.58,6.58,0,0,0,.65,3.43,11.29,11.29,0,0,0,1.7,2.56,19.21,19.21,0,0,0,3.57,3.12,29.79,29.79,0,0,0,4.63,2.59,4.8,4.8,0,0,0,1.59.4c.31,0,.27.14-.2.32a5.15,5.15,0,0,1-2.4-.1,15.72,15.72,0,0,1-3.88-1.57,18.13,18.13,0,0,1-4.62-3.61,10.36,10.36,0,0,1-2.86-5.89,8,8,0,0,1,.44-3.43,10.15,10.15,0,0,1,1.69-2.93,14.35,14.35,0,0,1,1.11-1.22c.2-.19.38-.39.6-.57l.71-.55a8.7,8.7,0,0,1,3.27-1.3,13.11,13.11,0,0,1,6.67.71,14.09,14.09,0,0,1,3,1.48,5.53,5.53,0,0,1,.71.48l.16.12c0,.05.07,0,.1,0l.65-1,.87-1.3,1.74-2.63c1.18-1.75,2.39-3.51,3.74-5.21a22.62,22.62,0,0,1,2.26-2.48,7.34,7.34,0,0,1,1.51-1.13,2.91,2.91,0,0,1,.53-.24,2.32,2.32,0,0,1,.69-.17,2.28,2.28,0,0,1,.78,0,7.12,7.12,0,0,1,.72.28,8.71,8.71,0,0,1,.88.66l.7.6c.44.38.87.74,1.31,1.08a16.53,16.53,0,0,0,2.81,1.72,20.72,20.72,0,0,0,6.49,1.7,35.72,35.72,0,0,0,6.94.06,34.72,34.72,0,0,0,6.85-1.11,28.52,28.52,0,0,0,12.3-6.83,17.47,17.47,0,0,0,4-5.64,14.51,14.51,0,0,0,1.14-6.66c-.35-4.6-2.44-9.24-6.25-11.75a14.61,14.61,0,0,0-3-1.58,18.94,18.94,0,0,0-3.37-.87,24.62,24.62,0,0,0-7.07-.07Z"/><path class="cls-1" d="M63,356q6.66-13.11,13.15-26.35,2.37-4.83,4.72-9.65c2.82-5.65,5.65-11.3,8.58-16.9,1.47-2.81,3-5.6,4.52-8.35a57.15,57.15,0,0,1,5.24-8.05,7.81,7.81,0,0,1,.81-.82,5.64,5.64,0,0,1,.51-.38,2.7,2.7,0,0,1,.72-.28,6.53,6.53,0,0,1,2.35.15,19.91,19.91,0,0,1,4,1.57c1.28.62,2.52,1.3,3.75,2a26.2,26.2,0,0,0,3.68,1.75,62.68,62.68,0,0,0,10.22,2.74c3.45.58,7,1,10.3.12,1-.3,1.44-.4,1.5-.21s-.31.63-1.16,1.17a10.78,10.78,0,0,1-3.9,1.26,21.34,21.34,0,0,1-5.78-.1,60.24,60.24,0,0,1-10.82-2.76l-1.31-.48a12.34,12.34,0,0,1-1.36-.58c-.87-.42-1.68-.86-2.48-1.3-1.6-.89-3.17-1.76-4.76-2.47a14.64,14.64,0,0,0-2.37-.84l-.57-.12-.53,0c-.17,0-.32,0-.48,0h0c.06.33-.08-.45-.06-.35v.06a2.23,2.23,0,0,0,0,.23l0,.08h0s-.06,0-.11.07a8.57,8.57,0,0,0-1.58,1.7c-.52.7-1,1.43-1.51,2.19-1.95,3-3.73,6.22-5.5,9.43-4.21,7.7-8.15,16-12.13,24q-6.59,13.29-13.18,26.6-4.1,8.16-8.28,16.28c-4.24,8.2-8.63,16.37-13.13,24.35-3.52,6.19-7,12.26-10.91,18.15-.86,1.29-1.71,2.56-2.63,3.83-3.46,4.7-4.9,6-6.1,6.55a5.89,5.89,0,0,1-.81.37c-.67.11.79-1.72,3.3-5.08,3.72-5,7.15-10.43,10.5-16S46,388.13,49.21,382.3c4.71-8.67,9.27-17.48,13.72-26.33Z"/><path class="cls-1" d="M132.07,314.55a19.43,19.43,0,0,0,2.85-3.94c.32-.51.49-1.1.77-1.63a42.44,42.44,0,0,0,2.3-6.07c.26-.93.48-1.89.66-2.84a22,22,0,0,1,.81-3.64c.29-.74,1.85.6,1.57,2a40,40,0,0,1-2.17,7.45c-.31.73-.55,1.48-.85,2.24l-.43,1.13-.5,1.11c-.36.82-.86,1.57-1.29,2.35l-.76,1.1a9.47,9.47,0,0,1-.82,1.07,16.21,16.21,0,0,1-1.11,1.23l-1.2,1.14a22.78,22.78,0,0,1-4.16,2.7c-1.12.63-2.25,1.14-3.42,1.66-.26.09-.52.19-.79.27-1,.3-1.35.26-1.67-.17a1.94,1.94,0,0,1-.21-.29c-.18-.35.15-.77.81-1.06a42.41,42.41,0,0,0,5.84-2.82,17.26,17.26,0,0,0,3.73-3Z"/><path class="cls-1" d="M122.91,376a44.16,44.16,0,0,0,10.17,1.06c3.48,0,7-.1,10.46-.31,2.55-.16,5.09-.41,7.64-.61l13.5-1.16c2.25-.18,4.51-.36,6.78-.48a52.47,52.47,0,0,1,6.87,0,46.67,46.67,0,0,1,6,1.22c2,.52,3.89,1.11,5.79,1.79a38.18,38.18,0,0,1,7.08,3.29,14.1,14.1,0,0,1,5.61,5.64c.69,1.61.09,1.46-.89.5a36.14,36.14,0,0,0-5.07-3.91,34.89,34.89,0,0,0-6.71-3.39,63.3,63.3,0,0,0-7.3-2.34c-1.24-.31-2.5-.61-3.73-.82a22.42,22.42,0,0,0-3.72-.25c-2.56,0-5.18.15-7.79.31-6.26.39-12.77,1.2-19.2,1.7-3.53.27-7.08.5-10.64.61a85.09,85.09,0,0,1-10.7-.25,24.07,24.07,0,0,1-6.56-1.45,6.91,6.91,0,0,1-2.89-2.1,5.64,5.64,0,0,1-.87-3.5,21.35,21.35,0,0,1,.85-5c.44-1.61,1-3.19,1.5-4.76,1.11-3.1,2.22-6.21,3.33-9.29a80.83,80.83,0,0,0,3.8-14.47c.14-1.08.23-2.13.29-3.22.12-2,0-3.31,0-4.23a7.17,7.17,0,0,1,0-1.14,3.87,3.87,0,0,1,.11-.81,4.12,4.12,0,0,1,.18-.66c.14-.25.39,0,.72.73a11.15,11.15,0,0,1,.79,3.51c.33,4.7-.66,9.4-1.93,13.95s-3,9.05-4.57,13.52a66,66,0,0,0-3,9.95,12.47,12.47,0,0,0-.21,2.39,3.88,3.88,0,0,0,.48,1.88,6.88,6.88,0,0,0,3.82,2.09Z"/><path class="cls-1" d="M190.29,386.17c-.25.12-.47-.05-.7-.41a.68.68,0,0,1,0-.52A4,4,0,0,1,190,385a18,18,0,0,1,2.07-.34,5.87,5.87,0,0,1,1.51,0,9.55,9.55,0,0,1,3.11.78,3.14,3.14,0,0,1,.64.37,17.51,17.51,0,0,1,1.84,1.67,1.93,1.93,0,0,0,.3.27,11.06,11.06,0,0,1,1.52,2c.27.57.58,1.11.89,1.65.05.08.12.14.12.24a1,1,0,0,0,.26.53c.15.21.33.41.47.65a1.52,1.52,0,0,1,.14.41c0,.13-.16.24-.21.22s-.14.11-.2.18,0,.06-.07.07a8.42,8.42,0,0,1-1.53-1.07c-.07,0-1.55-1.86-1.7-2.05a1.39,1.39,0,0,1-.2-.36l-.6-.74c-.31-.33-.6-.66-.63-.67a4.23,4.23,0,0,1-.64-.76.47.47,0,0,0-.14-.14c-.22-.17-.46-.3-.68-.48s-.49-.28-.75-.39a7.63,7.63,0,0,0-.85-.26l-.15-.06a1.52,1.52,0,0,0-.2-.06,7.73,7.73,0,0,0-1.09-.16,4.65,4.65,0,0,0-1.12,0c-.18,0-1-.16-1.22-.11S190.39,386.13,190.29,386.17Z"/><path class="cls-1" d="M188.37,388.85c-.25,0-.42-.17-.53-.56a.69.69,0,0,1,.11-.51,3.14,3.14,0,0,1,.44-.18c.09,0,1.44,0,1.9.07a8.35,8.35,0,0,1,1.32.16l1.33.23a7.19,7.19,0,0,1,1.45.37,2.73,2.73,0,0,1,.62.3,18.46,18.46,0,0,1,1.88,1.37,1,1,0,0,0,.32.23,4.12,4.12,0,0,1,.87.94,9.38,9.38,0,0,1,.63,1c.24.56.52,1.09.78,1.63,0,.08.11.14.09.24a.81.81,0,0,0,.2.53c.12.22.25.45.35.68a1.76,1.76,0,0,1,.06.41c0,.13-.21.2-.25.18s-.16.08-.23.14a.24.24,0,0,1-.08.06,9.53,9.53,0,0,1-1.27-1.12l-.69-.91-.79-1a1.56,1.56,0,0,1-.18-.34l-.18-.24c-.09-.11-.21-.26-.34-.39-.27-.28-.57-.51-.58-.53a3.92,3.92,0,0,1-.66-.63.38.38,0,0,0-.14-.11,9.2,9.2,0,0,0-1.41-.69,3.91,3.91,0,0,0-.83-.18.76.76,0,0,1-.16-.06.8.8,0,0,0-.2-.07c-.73-.11-1.44-.31-2.17-.38-.17,0-.94-.32-1.13-.33S188.48,388.82,188.37,388.85Z"/><path class="cls-1" d="M195.92,396a1.67,1.67,0,0,1,1,1c.07.15-.05.42-.21.41-.32,0-.65,0-1-.09a35.27,35.27,0,0,1-3.81-1.72c-.87-.44-1.69-.94-2.48-1.38a7.6,7.6,0,0,0-1.11-.52,2.4,2.4,0,0,0-.43-.07l-.61,0c-.88.08-1.82.24-2.78.4-.42.06-.86.12-1.29.15-1.49.12-3,.34-4.47.51a3.58,3.58,0,0,0-.74.13,16.52,16.52,0,0,1-2.47.22,23.21,23.21,0,0,1-2.59,0,37.46,37.46,0,0,1-3.95-.68,1.4,1.4,0,0,1-.55-.15,3.5,3.5,0,0,0-1.16-.41,9,9,0,0,1-1.61-.55,5.51,5.51,0,0,1-.73-.45c-.21-.14,0-.3.08-.3.26,0,.11-.15.11-.24s0-.08,0-.1a4.46,4.46,0,0,1,.53,0l1.11.18c.82.1,1.68.16,1.84.21a7.41,7.41,0,0,0,.75.11c.44,0,1,.14,1.62.17a25.62,25.62,0,0,0,2.71.06,7.34,7.34,0,0,1,.81,0c.06,0,1,0,1.94-.13s1.87-.2,2-.22a18.78,18.78,0,0,1,2.26-.17,1.8,1.8,0,0,0,.46-.05c1.29-.21,2.59-.38,3.92-.56.68-.09,1.37-.21,2.1-.26.14,0,.28,0,.42,0a5.77,5.77,0,0,1,2,.45,12,12,0,0,1,1.13.63c.7.44,1.37.88,2.06,1.28.31.19,1.71,1.22,2.09,1.38A12.18,12.18,0,0,0,195.92,396Z"/><path class="cls-1" d="M167.8,361.13c-3.84.31-7.69.74-11.52,1.24l-4.18.64c-4.92.71-9.82,1.54-14.67,2.59-1.08.22-2.16.49-3.22.78s-2.13.55-3.17.89c-1.34.41-2.67.84-4,1.33L123.12,370c-.82.27-.92-.2-.42-.92a6.7,6.7,0,0,1,3.2-2.24,97.73,97.73,0,0,1,17-4.11c3.45-.54,7-1.26,10.54-1.77,3.87-.58,7.77-1,11.67-1.43,2.4-.23,4.81-.42,7.23-.53.93,0,1.84-.06,2.8,0a7.36,7.36,0,0,1,1.42.18,10.64,10.64,0,0,1,1.38.32,25.6,25.6,0,0,1,5.14,2.15c2.51,1.36,4.85,2.88,7.16,4.4l1.53,1c1.89,1.21,2.43,1.57,2.66,2.23a3.42,3.42,0,0,1,.16.44c.08.44-1,.4-2.55-.42-2.27-1.2-4.35-2.68-6.5-4a35.69,35.69,0,0,0-6.67-3.49,12.12,12.12,0,0,0-1.29-.42,10.5,10.5,0,0,0-1.32-.31,5.74,5.74,0,0,0-1.29-.15c-.39,0-.92,0-1.37,0-1.9,0-3.84.18-5.77.34Z"/><path class="cls-1" d="M121.3,413.2a91.46,91.46,0,0,1-14.08,9.06c-1.82.9-3.6,1.9-5.47,2.69a111,111,0,0,1-20.35,6.72l-4.65,1c-1.55.34-3.12.57-4.66.87a82.63,82.63,0,0,1-12,1.36c-2.51.09.55-2,5.09-2.4a151.78,151.78,0,0,0,24-4.7,93.31,93.31,0,0,0,14-5.46,92.54,92.54,0,0,0,14.23-8.41,86.89,86.89,0,0,0,7.89-6.44,69.1,69.1,0,0,0,10.07-11.63,42.92,42.92,0,0,0,5.15-10.46l.36-1.21c.09-.4.18-.81.28-1.22.18-.76.24-1.39.34-1.92s.12-1,.15-1.29a4.68,4.68,0,0,1,.12-.86,5.67,5.67,0,0,1,.18-.61c.08-.18.14-.41.22-.54s.37,0,.67.57a6.54,6.54,0,0,1,.39,2.91,28.56,28.56,0,0,1-3.39,10.66,55.52,55.52,0,0,1-6.28,9.49,78.51,78.51,0,0,1-12.1,11.87Z"/><path class="cls-1" d="M106.65,311.3c0,3.62-2.07,6.18-5.93,4.58-2.25-.93-3.61-2.49-3.39-4.91C98,303.4,106.65,303.67,106.65,311.3Z"/><path class="cls-1" d="M109.49,341.72c0,8.75-12.44,4.5-9.13-3.15C102.69,333.2,109.49,336,109.49,341.72Z"/><path class="cls-1" d="M73.84,371.77a4.32,4.32,0,0,1-.8,1.47c-4.25,5.16-11.34-2.82-7-7.53C69.94,361.47,75.21,367.44,73.84,371.77Z"/><path class="cls-1" d="M106.38,392.93a4.45,4.45,0,0,1-3.82,2.83c-2.77.3-4.52-1.13-4.57-3.91-.08-4.79,5.14-7.88,7.77-3.92A5.49,5.49,0,0,1,106.38,392.93Z"/><path class="cls-1" d="M64.34,415.11a4.45,4.45,0,0,1-3.82,2.83c-2.77.31-4.53-1.13-4.57-3.91-.08-4.79,5.13-7.88,7.77-3.92A5.52,5.52,0,0,1,64.34,415.11Z"/><path class="cls-1" d="M124,294.25c-1.37-.43-2.72-.91-4-1.4-.49-.17-1-.31-1.47-.5-1.69-.67-3.36-1.41-5-2.14-.74-.33-1.5-.61-2.25-.88a13,13,0,0,1-2.83-1.17c-.55-.35.87-1.73,2-1.3a59.22,59.22,0,0,1,5.7,2.57,30.5,30.5,0,0,0,3.56,1.38c1.32.48,2.64,1,4,1.38.82.27,1.65.51,2.48.73a24.11,24.11,0,0,0,3.81.72,11.06,11.06,0,0,0,2.89-.16c.2,0,.39-.11.58-.14.72-.17.93-.14,1.27.27a3.22,3.22,0,0,1,.24.28c.23.31,0,.77-.64,1.05a11.29,11.29,0,0,1-6,.34,37.66,37.66,0,0,1-4.26-1Z"/><path class="cls-1" d="M112.16,241.37c-.71-.13-1.41-.29-2.11-.47-.26-.07-.52-.08-.78-.17a15.17,15.17,0,0,1-2.6-1.11c-.37-.18-.75-.37-1.14-.53a2.74,2.74,0,0,1-1.33-1c-.18-.29,1.34-1.4,1.69-1.15l2.34,1.45a5.76,5.76,0,0,0,1.7.56c.65.17,1.3.34,2,.46.42.08.83.15,1.25.2a15.22,15.22,0,0,0,1.91.16,10.55,10.55,0,0,0,1.48-.21c.11,0,.21-.05.32-.06.41,0,.54.09.62.59,0,.12,0,.23.06.34a.74.74,0,0,1-.43.82,7.32,7.32,0,0,1-2.8.34c-.72,0-1.43-.12-2.15-.22Z"/><path class="cls-1" d="M32.07,350.1c2-4.62,4.06-9.22,6.21-13.78.77-1.67,1.53-3.35,2.35-5,.71-1.46,1.5-2.89,2.26-4.33l1.24-2.13a22.54,22.54,0,0,1,1.47-2.09,12.29,12.29,0,0,1,9.26-3.9,13.15,13.15,0,0,1,8.21,3.4,21.78,21.78,0,0,1,6.14,9.35c.41,1.09-.11,1.11-.93.42a9,9,0,0,1-1.37-1.53,23,23,0,0,1-1.56-2.28l-.33-.58-.39-.54L63.86,326a6.27,6.27,0,0,0-.84-1l-.88-1a12.44,12.44,0,0,0-4.23-2.73,10.51,10.51,0,0,0-9.64,1.36c-1.7,1.12-2.69,3.15-3.83,5.13s-2.08,4.1-3.06,6.17q-3.27,6.84-6.31,13.79c-1.24,2.86-2.49,5.71-3.68,8.59-1.83,4.34-3.63,8.73-5.32,13.1-1.29,3.4-2.45,6.78-3.58,10.18-.24.75-.48,1.49-.73,2.24-.93,2.81-1.28,3.64-1.94,4.12a3.43,3.43,0,0,1-.44.32c-.44.19-.46-1.1.13-3.22a198.81,198.81,0,0,1,6.67-19Q29,357.1,32,350.09Z"/><path class="cls-1" d="M231.13,380.18l8-34L242,333.73l1.54-6.41-15,6.64-4,1.77-.11,0s0,.07,0,.1l-.07.33-.24,1.13-.52,2.23q-1.08,4.46-2.22,8.86c-1.64,6.44-3.29,12.92-4.93,19.31-2.09,8.21-4.12,16.48-6.48,24.61-1.48,5.07-1.5-1.86,1-11.3l6.57-25.12,3.27-12.58c.53-2.1,1.06-4.21,1.56-6.31l.38-1.75.15-.73a3.93,3.93,0,0,1,.65-.32l.94-.42,3-1.3,8.47-3.74,10.16-4.58c-1.14,4.9-2.28,9.82-3.42,14.7l-8,34.27-2.45,10.56L231,389l-.59,2.64-.28,1.3a3.65,3.65,0,0,1-.24,1l-.84.44L206.6,406.08l-7.74-1c-8.37-1.07-16.59-2-24.88-2.89l-5.45-.57c-6.83-.72-9-1-10.4-1.56a7.55,7.55,0,0,1-1-.35c-.35-.18.19-.38,1.49-.48a49.11,49.11,0,0,1,5.75.19c6.84.55,13.8,1.32,20.87,2.14l10.65,1.3,10.34,1.34,3.11-1.64L225,394.36l3.3-1.73.12-.6.24-1.08.48-2.16,2-8.61Z"/><path class="cls-1" d="M279.29,272.82a16.69,16.69,0,0,1-3.47,1.55A13.29,13.29,0,0,1,272,275a18.61,18.61,0,0,1-7.3-1.55,17.09,17.09,0,0,1-4.57-3,23.72,23.72,0,0,1-5.22-7.84,46.63,46.63,0,0,1-2.7-8.86c-.56-2.66-1-5.36-1.38-8-.24-1.71-.46-3.42-.65-5.14s-.33-3.44-.57-5c-.19-.89.26-1.07,1-.26a9,9,0,0,1,1.56,4.46c.75,7,1.46,13.88,3.69,20.44a20.77,20.77,0,0,0,7,10.09,14.8,14.8,0,0,0,6.17,2.61,10.68,10.68,0,0,0,1.7.22,12.13,12.13,0,0,0,1.7.06,10.64,10.64,0,0,0,3.28-.62,15.38,15.38,0,0,0,3.73-1.93,23.24,23.24,0,0,0,3.31-2.72,48.43,48.43,0,0,0,7.94-10.43,72.86,72.86,0,0,0,4.35-9.1c.26-.69.52-1.36.78-2.06,1-2.57,1.29-3.36,1.94-3.79a2.55,2.55,0,0,1,.44-.29c.43-.18.49,1.06-.12,3.05a64.84,64.84,0,0,1-8.37,17.15,45.55,45.55,0,0,1-4.59,5.73,26.88,26.88,0,0,1-5.77,4.75Z"/><path class="cls-1" d="M313.11,232a10.92,10.92,0,0,1-.14,2.94,3.75,3.75,0,0,1-.23.79l-.3.68a9,9,0,0,1-.73,1.28,9.28,9.28,0,0,1-1.35,1.64,11.73,11.73,0,0,1-6.58,2.88,16.82,16.82,0,0,1-3.17.08,7.93,7.93,0,0,1-3.89-1.05c-.37-.22-.09-.63.41-.93a2.46,2.46,0,0,1,1.79-.34,13.07,13.07,0,0,0,7,0,8.29,8.29,0,0,0,4.93-4.38,3.73,3.73,0,0,0,.37-1.06,7.9,7.9,0,0,0,.1-1.21,14.12,14.12,0,0,0-.33-3.09,10.59,10.59,0,0,0-1.83-4.29,2.64,2.64,0,0,0-2.66-1.16,3.59,3.59,0,0,0-.59.23c-.73.37-1,.51-1.5.24l-.33-.17c-.32-.22-.23-.78.48-1.34a4.18,4.18,0,0,1,2-.87,3.9,3.9,0,0,1,2.35.46,7.23,7.23,0,0,1,2.78,3.17,16.19,16.19,0,0,1,1.49,5.53Z"/><path class="cls-1" d="M256,234.58a17,17,0,0,1-2.87-.45,13,13,0,0,1-1.46-.47,10.22,10.22,0,0,1-1.38-.75,9.44,9.44,0,0,1-3.45-4.89,17.27,17.27,0,0,1-.87-4.09,29.1,29.1,0,0,1,.38-7.17l.16-.88,0-.24.07-.32.15-.65.15-.64,0-.16c0-.07.1,0,.15,0h.35l1.31,0c1.19,0,2.34.11,3.52.19,2.07.16,4.15.31,6.21.55a25.91,25.91,0,0,1,7.84,1.77c.78.35.47.74-.34,1a8.23,8.23,0,0,1-3.5,0,71.46,71.46,0,0,0-7.8-1.14c-1.33-.13-2.65-.25-4-.35l-2-.13a1.66,1.66,0,0,1-.31-.05c-.07,0-.08.17-.13.26a2.06,2.06,0,0,0-.09.34l-.11.58c-.09.39-.14.79-.2,1.18a24,24,0,0,0-.2,2.4,23.11,23.11,0,0,0,.28,4.79,11,11,0,0,0,1.79,4.71,6.37,6.37,0,0,0,4.08,2.52,11,11,0,0,0,6.27-.15,9,9,0,0,0,3.88-2.73,16.83,16.83,0,0,0,2.53-4.2,28.75,28.75,0,0,0,1.24-3.63c.18-.63.31-1.19.49-1.9l.36-1.41.1-.36,0-.18.19,0,.75.16,2,.4c2.08.44,2.72.71,3.05,1.3a2,2,0,0,1,.22.4c.12.42-.8.54-2.35.3l-1.73-.28-.43-.07-.22,0h-.19s0,.16,0,.23l0,.11v0l-.05.22c-.16.59-.31,1.18-.49,1.77a24.9,24.9,0,0,1-3.1,7,11.92,11.92,0,0,1-4.45,4.08,11.08,11.08,0,0,1-5.95,1.11Z"/><path class="cls-1" d="M276,227c-.16,3,.19,6.06,1.92,8.27a2.72,2.72,0,0,0,.51.56,6.77,6.77,0,0,0,.56.51,10.38,10.38,0,0,0,1.3.84,9.93,9.93,0,0,0,5.28,1.56,8.67,8.67,0,0,0,5.16-1.88,14.36,14.36,0,0,0,3.38-3.85,39.85,39.85,0,0,0,2.79-6c.27-.64.71-.44,1,.28a4.53,4.53,0,0,1-.21,3.25,21.14,21.14,0,0,1-4,6.23A11.34,11.34,0,0,1,287,240.4a10.86,10.86,0,0,1-2.35.09,9.27,9.27,0,0,1-1.16-.17,7,7,0,0,1-1.14-.25,14.6,14.6,0,0,1-4.17-2,9.23,9.23,0,0,1-3.09-4.09,14.6,14.6,0,0,1-1-4.88,29.69,29.69,0,0,1,.44-6c.13-.73.26-1.47.42-2.2l.31-1.35.18-.75a5.23,5.23,0,0,1,.78,0l1.36.1,1.1.1,2.21.23c2.28.27,4.53.49,6.78,1a15.09,15.09,0,0,1,1.48.34c1.84.52,2.37,1,2.53,1.56a1.67,1.67,0,0,1,.09.42c0,.43-.79.36-2.05,0a80,80,0,0,0-12.1-1.82l-.58,0h-.14s0,0,0,.05l0,.06-.1.48c-.08.38-.16.76-.23,1.14A32.27,32.27,0,0,0,276,227Z"/><path class="cls-1" d="M263.09,236.34c.29-1.07.61-2.12.93-3.17.12-.38.19-.77.31-1.15.45-1.34.94-2.65,1.4-4,.2-.58.36-1.19.51-1.79A7.11,7.11,0,0,1,267,224c.15-.25.58,0,.95.34a1.38,1.38,0,0,1,.57,1.26,31.09,31.09,0,0,1-1.65,4.52,22.1,22.1,0,0,0-.87,2.83c-.32,1-.63,2.08-.92,3.12-.17.64-.34,1.28-.47,1.92l-.11.65a1.53,1.53,0,0,0,0,.43c0,.06,0,.16.08.18l.21.05.51.08c.78.12,1.56.13,2.33.19.17,0,.35,0,.52,0,.63.09.81.25.85.76a1.42,1.42,0,0,1,0,.35c0,.39-.31.66-.8.69a12.92,12.92,0,0,1-2.15-.07c-.37,0-.73-.08-1.09-.14l-.86-.14a1.53,1.53,0,0,1-.5-.14,1.72,1.72,0,0,1-.43-.21,1.68,1.68,0,0,1-.57-1.26,8.46,8.46,0,0,1,.11-1.38c.1-.59.23-1.14.35-1.69Z"/><path class="cls-1" d="M255.18,225.74a3.65,3.65,0,0,1,.69,2.23,2.34,2.34,0,0,1-.15,1,1.55,1.55,0,0,1-.31.46,1.28,1.28,0,0,1-.45.35,1.66,1.66,0,0,1-1,.18,2.55,2.55,0,0,1-1.38-.58,2.65,2.65,0,0,1-.85-1,1.4,1.4,0,0,1,.41-1.76c.16-.11.47.28.78.65a5.46,5.46,0,0,0,.44.48c.1.12.28.18.12.11a.32.32,0,0,0-.14,0s0,0,0,0h.07l.08,0,.09,0s0,0,0,0a1.31,1.31,0,0,0,.3.44.31.31,0,0,0,.1.08s0,0,0,.08,0,0,0,0,0,0,0-.06a.76.76,0,0,1,0-.21l0-.3a1.54,1.54,0,0,0-.13-.58.81.81,0,0,0-.37-.45.53.53,0,0,0-.71.1c-.09.17,0,.33.2.47s.09.06.12.1.09.28-.25.66l-.22.26a.67.67,0,0,1-.88.21,1.92,1.92,0,0,1-.82-1.62,2.2,2.2,0,0,1,1.3-1.93,2.54,2.54,0,0,1,1.65-.11,2.63,2.63,0,0,1,1.27.84Z"/><path class="cls-1" d="M280.86,227.79a3.13,3.13,0,0,1,.78,2.31,3.21,3.21,0,0,1-.08.86,2.11,2.11,0,0,1-1.11,1.33,2,2,0,0,1-1.67,0,1.74,1.74,0,0,1-1-1.22,1.49,1.49,0,0,1,.61-1.6c.15-.08.47.28.77.66s.56.75.59.78l0,0h0l-.08,0a1.25,1.25,0,0,0-.3,0l-.09,0s0,0,0,0,.06,0,.07-.06a.45.45,0,0,0,.1-.14c0-.06,0-.11,0-.07a.22.22,0,0,0,.08.15c.14.13.2,0,.26-.32a2.09,2.09,0,0,0,0-.58,1.45,1.45,0,0,0-.1-.52c-.07-.17-.14-.28-.29-.3a.57.57,0,0,0-.65.33c-.06.21.12.36.29.48s.1,0,.13.08c.18.11.14.25-.13.68l-.18.3a.65.65,0,0,1-.83.34,1.89,1.89,0,0,1-1.07-1.41,2.2,2.2,0,0,1,.75-2.08,2.4,2.4,0,0,1,1.52-.6,2.28,2.28,0,0,1,1.62.6Z"/><path class="cls-1" d="M232,174.08c-3.28,2.39-5.32,6.07-6.58,10a27.2,27.2,0,0,0-1.17,6,23.27,23.27,0,0,0,.25,6.13,15.32,15.32,0,0,0,3.74,7.84c3.47,3.9,8.68,6.08,13.93,6.89a22.44,22.44,0,0,0,4,.32,16.22,16.22,0,0,0,2-.07l2-.26a40,40,0,0,0,7.72-2.36,72,72,0,0,0,12.67-7,149,149,0,0,0,14.55-11.46c1.44-1.27,1.6-.75.73.71a25.7,25.7,0,0,1-5.66,6.14q-3.73,3-7.74,5.72a83.07,83.07,0,0,1-8.27,5,53.81,53.81,0,0,1-8.95,3.83,27,27,0,0,1-9.78,1.52,32.31,32.31,0,0,1-11.61-2.78,19.56,19.56,0,0,1-9.1-8,18.47,18.47,0,0,1-2.06-6.4,27.85,27.85,0,0,1-.11-6.64,27.37,27.37,0,0,1,4.38-12.4,14.17,14.17,0,0,1,1.26-1.63,13.47,13.47,0,0,1,1.44-1.49c.49-.5,1-.85,1.57-1.29a15.89,15.89,0,0,1,1.63-1.2,28.94,28.94,0,0,1,7.19-3.69,28.07,28.07,0,0,1,6-1.39,31.49,31.49,0,0,1,6.14,0,38.34,38.34,0,0,1,11.71,3.15,57.14,57.14,0,0,1,15.48,10.16c1,.93,2,1.85,2.9,2.87a25.52,25.52,0,0,1,3.33,4.32,5.28,5.28,0,0,1,.85,2.32,4.61,4.61,0,0,1,0,.79c-.16.6-1.19-1.12-3.5-3.88A58.78,58.78,0,0,0,270.61,175a44,44,0,0,0-15.31-6.58,27.77,27.77,0,0,0-6.15-.6,23,23,0,0,0-6.11.75,26.1,26.1,0,0,0-5.78,2.14c-.9.52-1.83,1-2.68,1.57l-1.29.86-1.22,1Z"/><path class="cls-1" d="M305.55,189.86a24,24,0,0,0-7.57-1.23,15.7,15.7,0,0,0-7.3,1.61,4.36,4.36,0,0,0-1.73,1.6,3.82,3.82,0,0,0-.28,2.29,21,21,0,0,0,1.4,4.72,44.81,44.81,0,0,0,2.21,4.58,53.26,53.26,0,0,0,5.77,8.43,31.7,31.7,0,0,0,6.66,6,15.86,15.86,0,0,0,5.11,2.22,9.15,9.15,0,0,0,5.31-.35c1-.4,1.21.05.43.92a3.05,3.05,0,0,1-.8.67,4.88,4.88,0,0,1-1.21.6,5.81,5.81,0,0,1-1.58.35l-.89,0c-.3,0-.61-.06-.92-.1a15.69,15.69,0,0,1-6-2.37,29,29,0,0,1-4.86-3.93,47.33,47.33,0,0,1-7.45-9.77,58.49,58.49,0,0,1-3.4-6.65,26,26,0,0,1-1.27-3.63,9.6,9.6,0,0,1-.22-1,8,8,0,0,1-.14-1,5.26,5.26,0,0,1,.2-2.17l.2-.57c.1-.19.21-.37.32-.55a4.72,4.72,0,0,1,.79-.92,8.13,8.13,0,0,1,1.86-1.28,15.18,15.18,0,0,1,4.08-1.31,23.89,23.89,0,0,1,8.35.08A26,26,0,0,1,312.1,191a27.7,27.7,0,0,1,9.9,11.63,13.72,13.72,0,0,1,1.05,5.93,17.68,17.68,0,0,1-1.17,5.87,14.52,14.52,0,0,1-1.18,2.41,8.8,8.8,0,0,1-2.41,2.65,2.37,2.37,0,0,1-1.56.53,2.24,2.24,0,0,1-.55,0c-.22-.09-.1-.38.28-.79.19-.19.44-.43.71-.75l.46-.48.48-.59a15.22,15.22,0,0,0,3.09-9.13,11.82,11.82,0,0,0-.83-4.77,26.89,26.89,0,0,0-2.61-4.46,24,24,0,0,0-12.22-9.06Z"/><path class="cls-1" d="M274.87,389.91l.11.07c.94.66.63,2.27.51,2.71a15.27,15.27,0,0,1-.59,1.84,29.24,29.24,0,0,1-1.56,3.35,30.54,30.54,0,0,1-4.17,6.06,14.42,14.42,0,0,1-2.06,1.9,6,6,0,0,1-.72.49l-.25.15h-2.07a121.26,121.26,0,0,1-18.44-1.44c-1.35-.2-2.7-.48-4-.71s-2.7-.52-4-.89a36.4,36.4,0,0,1-9.9-3.64c-1-.53-.59-.89.44-.91a8,8,0,0,1,1.95.23,15.85,15.85,0,0,1,2.56.71,89.3,89.3,0,0,0,20.44,4.37c2.11.23,4.27.36,6.44.41,1.09,0,2.18,0,3.27,0h1.64a8.33,8.33,0,0,0,1.25,0,2.13,2.13,0,0,0,.25-.17l.33-.23c.21-.18.43-.35.64-.54.41-.38.81-.79,1.19-1.22a25,25,0,0,0,2.09-2.79,30.92,30.92,0,0,0,3.2-6.24,10.72,10.72,0,0,0,.38-1.36,2.32,2.32,0,0,0,.05-.3,1.09,1.09,0,0,0,0-.18.31.31,0,0,0-.16-.29l-1.07-.75c-.39-.28-.81-.51-1.21-.77-.81-.51-1.67-.95-2.51-1.41a83.65,83.65,0,0,0-12.3-5.1c-3.26-1.07-6.54-1.89-9.85-2.63l-2.18-.45c-2.73-.58-3.57-.81-4.08-1.41a2.34,2.34,0,0,1-.34-.4c-.22-.41,1-.58,3.05-.27a92.15,92.15,0,0,1,18.49,5c2.27.86,4.52,1.81,6.72,2.9,1.11.52,2.19,1.12,3.27,1.72l1.59,1c.27.17.52.36.78.53l.89.62Z"/><path class="cls-1" d="M231.57,302.65a90.52,90.52,0,0,1,11.53-13.07,54.94,54.94,0,0,1,6.93-5.39,35.28,35.28,0,0,1,7.93-3.92l2.53-.72a2.33,2.33,0,0,1,.53,0,1.28,1.28,0,0,1,.52.05,1.07,1.07,0,0,1,.48.23,1.19,1.19,0,0,1,.38.36A3.25,3.25,0,0,1,263,282a15.08,15.08,0,0,1-.14,2.73c-.24,1.74-.59,3.42-1,5.08-1.71,7.23-3.74,14.32-5.49,21.49s-3.35,14.35-4.52,21.62a126.46,126.46,0,0,0-1.68,19.46c0,8.27,1.08,16.67,4.38,24.2,1.09,2.29.53,2.26-.9.48a26,26,0,0,1-4.27-10.44c-1.62-8.6-1.39-17.33-.47-25.89a203.14,203.14,0,0,1,4.68-25.41c1.22-5,2.52-10.11,3.83-15.22.65-2.56,1.29-5.12,1.94-7.68s1.22-5.13,1.61-7.67a14.54,14.54,0,0,0,.19-2.5,4.81,4.81,0,0,0-.06-.51.44.44,0,0,0-.07-.21.31.31,0,0,0-.39-.13l-1.61.46-.85.24-.83.33-1.65.68c-.56.21-1.07.54-1.6.8l-1.59.84-1.51,1a31.4,31.4,0,0,0-2.95,2.08,69.43,69.43,0,0,0-10.41,10.09,116.62,116.62,0,0,0-12.14,17.41,150.21,150.21,0,0,0-13.09,29.36,113.22,113.22,0,0,0-3.15,11.92,88.4,88.4,0,0,0-1.71,12.09c-.09.9-.09,1.78-.11,2.67s-.07,1.77,0,2.67,0,1.59.06,2.29.1,1.33.15,1.9c.06,1.16.2,2.07.3,2.83a24,24,0,0,1,.22,3.18,7.2,7.2,0,0,1-.07,1c-.09.37-.4-.08-.87-1.25a12.37,12.37,0,0,1-.72-2.3,22.84,22.84,0,0,1-.59-3.31,53,53,0,0,1-.09-11.34,87.42,87.42,0,0,1,1.75-11.41,136.51,136.51,0,0,1,7-22.32,147.59,147.59,0,0,1,16.89-30.66Z"/><path class="cls-1" d="M322.66,405.87a44.64,44.64,0,0,0-7.83-6.85c-1-.73-2.15-1.35-3.24-2a17.37,17.37,0,0,0-6.06-2.31,42.1,42.1,0,0,0-6.72.08,57.85,57.85,0,0,1-6.18.1,21.5,21.5,0,0,1-7.78-1.63c-.76-.33-.46-.73.33-.95a8,8,0,0,1,3.46,0,32.83,32.83,0,0,0,7.57.67c2.58,0,5.22-.29,8-.17a16,16,0,0,1,5,1.07,30.87,30.87,0,0,1,4.53,2.26,50,50,0,0,1,8.6,6.73c.79.78,1.55,1.6,2.27,2.45.35.45.71.88,1,1.36l.47.72a3.58,3.58,0,0,1,.21.39l.27.53,0,.09a2.32,2.32,0,0,1,.21,1.61,1.24,1.24,0,0,1-1.23.84,2.86,2.86,0,0,1-1.65-.39,12.52,12.52,0,0,1-1.16-.83c-1.32-1.07-2.58-2.17-3.84-3.25l-2.39-2-1.19-1-.6-.47-.29-.21a.28.28,0,0,0-.15-.08l-1.38-.39-1.63-.46c-2-.61-2.62-.94-2.88-1.55a1.78,1.78,0,0,1-.17-.41c-.06-.42.87-.46,2.36-.1l2.13.54,2.26.62c.18.06.32.19.49.26a2.76,2.76,0,0,1,.31.23l.49.38.94.77,1.86,1.56,3.71,3.15,1.24,1,.54.41,0,0s.05,0,0,0a3.05,3.05,0,0,0-.29-.51c-.18-.26-.33-.53-.53-.79-.4-.52-.82-1-1.28-1.54Z"/><path class="cls-1" d="M292,295.85c-1.09-3-2.23-5.91-3.46-8.78-.31-.71-.64-1.36-1-2.1l-.07-.13-.11-.24-.22-.5a3.59,3.59,0,0,1-.21-1,1.83,1.83,0,0,1,.18-.89,1.66,1.66,0,0,1,.67-.62,2.71,2.71,0,0,1,.93-.24c.35,0,.72,0,1.08,0s.89.13,1.29.21c.81.17,1.61.39,2.4.6a29.85,29.85,0,0,1,8.77,4.4,43.37,43.37,0,0,1,7.11,6.62,70.31,70.31,0,0,1,8,11.55,140.44,140.44,0,0,1,9.75,22.56c2.66,7.73,4.86,15.6,6.85,23.51,1.77,7,3.4,14.12,5,21.12q1.51,6.75,3,13.51c.5,2.25,1,4.5,1.56,6.73a66,66,0,0,0,1.84,6.56c.48,1.3.7,1.81.51,1.89s-.76-.39-1.43-1.47c-1.37-2.13-2.94-6.43-4.12-11.62-4.07-18.41-7.67-36.84-13.29-54.9-3.36-10.77-7.75-21.8-14-31.48a60.55,60.55,0,0,0-5.7-7.51,36.49,36.49,0,0,0-7-6.19,28.35,28.35,0,0,0-4.05-2.3,26.06,26.06,0,0,0-4.38-1.51,19.4,19.4,0,0,0-2.24-.46,1.74,1.74,0,0,0-.51,0,.26.26,0,0,0-.21.14.36.36,0,0,0,0,.25,2.25,2.25,0,0,0,.08.24l.16.33.54,1.07c.36.74.67,1.49,1,2.22,3,7.3,5.6,14.75,7.93,22.26a306.47,306.47,0,0,1,8.53,34.67c.41,2.27.81,4.52,1.22,6.77l1,6.75c.37,2.24.61,4.49.87,6.75s.57,4.51.72,6.78c.15,2,.3,3.95.46,6,.06.93.11,1.79.17,2.57s0,1.5,0,2.16c0,1.3,0,2.35,0,3.22a14.4,14.4,0,0,1-.41,3.54,9.35,9.35,0,0,1-.32,1.06c-.37.71-.75-2.33-1-7.77-.05-2-.25-4-.42-6.08S309.2,372,309,370s-.47-4.12-.71-6.19l-.36-3.12c-.15-1-.31-2.08-.46-3.12l-.93-6.26c-.37-2.08-.75-4.17-1.12-6.27s-.81-4.18-1.24-6.27-.84-4.18-1.36-6.26A299.83,299.83,0,0,0,292,295.88Z"/><path class="cls-1" d="M279.83,289.13c-.92-.72-1.82-1.46-2.7-2.19l-1.74-1.45-.15.19-.31.45-.37.5a33.87,33.87,0,0,1-2.22,2.7c-2.84,2.93-6.37,5.47-10.53,6.26a14,14,0,0,1-5.54-.06,13.47,13.47,0,0,1-6.24-3.18c-.54-.49-.14-.79.61-.81a6.5,6.5,0,0,1,2.89.8,12.46,12.46,0,0,0,6,1.61,14,14,0,0,0,6.12-1.57,20.93,20.93,0,0,0,6.22-5.24c.47-.55.93-1.12,1.37-1.7l.32-.44.38-.55,1-1.55c.52.34,1.05.73,1.56,1.11l1.06.85,1.87,1.54a49.52,49.52,0,0,0,4.57,3.39,22.29,22.29,0,0,0,7.73,3.42,11,11,0,0,0,6.19-.54c.41-.2.82-.36,1.22-.6,1.49-.81,1.93-1.12,2.56-.95a1.72,1.72,0,0,1,.42.11c.19.09.19.31,0,.63a4.13,4.13,0,0,1-1.13,1.18,11.42,11.42,0,0,1-6.18,2.21,15.78,15.78,0,0,1-6.61-1.16,35.11,35.11,0,0,1-8.34-4.92Z"/><path class="cls-1" d="M370.72,420.21a22.9,22.9,0,0,1,4,1.5c.45.21.92.37,1.36.6,1.56.78,3.07,1.65,4.57,2.5.67.39,1.36.73,2,1.07a9.24,9.24,0,0,1,2.56,1.54c.23.23-.09.59-.57.84a1.68,1.68,0,0,1-1.55.14c-1.68-.95-3.39-1.92-5.05-3a25.11,25.11,0,0,0-3.24-1.62,34.11,34.11,0,0,0-3.63-1.52c-.7-.23-1.59-.38-2.4-.64a33,33,0,0,1-3.59-1.4c-.91-.4-1.82-.73-2.71-1.16l-.59-.28c-.71-.41-.85-.67-.71-1.18,0-.11.06-.23.1-.34.17-.35.6-.43,1.13-.23,1.57.61,3.11,1.38,4.71,2a20.39,20.39,0,0,0,3.61,1.13Z"/><path class="cls-1" d="M410.49,412.27a4.6,4.6,0,0,1,1.31.88,1.63,1.63,0,0,1,.5,1.07,1.26,1.26,0,0,1-.46,1l-1.37.73c-.4.19-.71.31-1.06.47s-.7.3-1,.43l-1.67.81c-.8.41-1.58.87-2.38,1.29-2.84,1.47-5.68,3-8.48,4.53-1.24.69-2.46,1.43-3.66,2.18a43.42,43.42,0,0,1-4.68,2.79c-1,.48-.74-1.81,1-2.91,3.17-1.94,6.4-3.76,9.77-5.42,2-1,4-2.21,6-3.28,1.12-.58,2.25-1.16,3.4-1.7.29-.15.5-.23.75-.35l.63-.27.4-.13c.13,0,.28-.2.15-.31a1.28,1.28,0,0,0-.41-.3l-.23-.12-.35-.16c-.7-.3-1.42-.57-2.14-.83L400,410.31c-1.71-.62-3.42-1.16-5.1-1.94-.37-.18-.74-.35-1.1-.56-1.35-.8-1.66-1.39-1.51-1.95a1.31,1.31,0,0,1,.13-.38c.24-.33.74-.1,1.59.37a33.5,33.5,0,0,0,4.26,1.87c1.52.58,3.09,1.13,4.68,1.68l3.56,1.25,1.8.66.9.35.47.2c.28.12.55.23.82.37Z"/><path class="cls-1" d="M379.4,409.42c-1.48.57-3,1.1-4.46,1.62-.54.19-1.07.43-1.61.62-1.93.64-3.88,1.21-5.82,1.8-.87.25-1.72.56-2.56.85-.55.19-1.09.4-1.65.57a5.44,5.44,0,0,1-1.85.29.38.38,0,0,1-.16,0,.77.77,0,0,1-.3-.15c-.13-.13-.1-.22,0-.28s.2-.12.28-.21a2.16,2.16,0,0,0,.16-.34,1.89,1.89,0,0,1,1.16-1.2c2.16-.63,4.39-1.32,6.67-1.86a38.92,38.92,0,0,0,4.06-1.39c1.48-.52,3-1,4.43-1.61.91-.35,1.81-.7,2.71-1.07,1.35-.57,2.71-1.14,4-1.82a23,23,0,0,0,2.79-1.81c.19-.14.36-.3.56-.44.71-.52,1-.59,1.44-.33a3.41,3.41,0,0,1,.33.17c.32.22.24.74-.29,1.26a20,20,0,0,1-5.42,3.49c-1.45.7-2.93,1.31-4.41,1.92Z"/><path class="cls-1" d="M379.88,420.76l-1.77-1c-.21-.12-.45-.19-.67-.31-.75-.43-1.49-.9-2.25-1.32a6.13,6.13,0,0,0-1.06-.45,3.05,3.05,0,0,1-1.34-.62c-.23-.24.86-1.73,1.38-1.52a10.63,10.63,0,0,1,2.63,1.5,9.94,9.94,0,0,0,1.65.86l1.8,1,1.1.6c.57.28,1.12.6,1.71.84a12.93,12.93,0,0,0,1.42.41c.1,0,.22,0,.32.08.37.15.47.35.3.82a3.05,3.05,0,0,1-.13.32.82.82,0,0,1-.73.54,7.64,7.64,0,0,1-2.56-.77c-.61-.28-1.21-.61-1.82-.91Z"/><path class="cls-1" d="M386.08,416.88l-1.25-.75c-.16-.09-.33-.13-.48-.23-.54-.33-1.06-.69-1.6-1a3.61,3.61,0,0,0-.76-.32c-.34-.1-.72-.12-1-.45s.83-1.74,1.21-1.59a5.59,5.59,0,0,1,1.85,1.14,4.82,4.82,0,0,0,1.18.64l1.27.73.79.44a9.84,9.84,0,0,0,1.22.6,6.1,6.1,0,0,0,1.05.21,1.6,1.6,0,0,1,.23,0c.28.09.31.24.17.72l-.1.33c-.13.36-.36.61-.6.63a3.92,3.92,0,0,1-1.92-.42c-.45-.19-.88-.43-1.32-.65Z"/><path class="cls-1" d="M304.36,435.26c-10.41-.43-20.82-.87-31.22-1.09-5.2-.12-10.4-.08-15.62-.08l-15.63,0-22.8.07h-60.3c-3.35,0-6.69,0-10,0s-6.68.16-10,.27c-11.87.43-23.82,1-35.61,1.52-7.57.31-15.17.6-22.77.69-3.81,0-7.61,0-11.42-.08a75,75,0,0,1-11.43-1.05,9.21,9.21,0,0,1-2.56-.84c-.52-.33-.7-.52-.62-.58a2.11,2.11,0,0,1,1,.14c.56.07,1.33.21,2.32.27,4,.31,11.26.15,20,.11,15.43-.11,30.89-.85,46.37-1.47,7.75-.31,15.51-.64,23.3-.79s15.57,0,23.38,0c18.66.08,38.09-.07,57.18-.1l31.5,0c10.49-.11,21,.21,31.51.6l38.74,1.61c19.54.8,39.19,1.61,58.59,1.84,7.55.08,15,.06,22.46-.15,3.72-.11,7.43-.28,11.13-.54a103.13,103.13,0,0,0,11-1.27c.79-.16,1.56-.36,2.34-.53.41-.09.65-.21,1-.31s.67-.22.87-.31a.27.27,0,0,0,.13-.36,1.14,1.14,0,0,0-.1-.19c0-.07-.15-.21-.27-.35a14.21,14.21,0,0,0-1.65-1.64c-2.27-1.94-4.38-3.39-6.1-4.63s-3.14-2.22-4.3-3a31.42,31.42,0,0,1-4.51-3.69A9.29,9.29,0,0,1,419,418c-.26-.53.43,0,2.35,1.15s4.87,3,8.62,5.51c1.39.94,2.77,1.9,4.13,2.93A26.32,26.32,0,0,1,438,431a6.15,6.15,0,0,1,.48.62,3.72,3.72,0,0,1,.48,1,1.75,1.75,0,0,1-.53,1.91,2.24,2.24,0,0,1-.77.37l-.74.27-.74.27-.37.13-.32.08c-.85.19-1.71.42-2.57.58l-2.57.43a196.28,196.28,0,0,1-20.75,1.41c-13.94.32-28.05.05-42.18-.33-21-.6-42.05-1.58-63.06-2.43Z"/><path class="cls-1" d="M361.91,403.58l-10.81-.73-3.94-.23-13.88-1.1c-2.06-.17-4.12-.28-6.16-.38-2.62-.12-5.26-.16-7.87-.54-1.62-.23.57-1.89,3.59-1.71,5.34.32,10.68.73,16.05,1.31,3.22.34,6.58.46,9.88.68l10.87.72,6.7.39c3.38.17,6.78.35,10.13.41,1.31,0,2.6,0,3.89,0l3.85-.13c.56,0,1.11-.08,1.68-.1,2.12-.07,2.66-.11,3.22.36a2.38,2.38,0,0,1,.37.29c.3.34-.54.8-2.17,1.05a102.2,102.2,0,0,1-14.47.28c-3.64-.11-7.29-.32-10.93-.51Z"/><path class="cls-1" d="M265,254.87c-.24-.07-.26-.34-.11-.7a.81.81,0,0,1,.38-.36,2.62,2.62,0,0,1,.41,0,7.73,7.73,0,0,0,1.32.57c.31.11.62.2.92.33a7.43,7.43,0,0,0,1.92.38,2,2,0,0,1,.42,0,2.55,2.55,0,0,0,1.45-.13c.08,0,.16,0,.21-.12s1.19-.69,1.3-.83a1.79,1.79,0,0,0,.54-.33,2.8,2.8,0,0,0,.49-.43s.06-.11.15-.12.27-.16.36-.27a4.2,4.2,0,0,1,.36-.5,1,1,0,0,1,.31-.2.24.24,0,0,1,.27.09c0,.12.14.08.22.1a.11.11,0,0,1,.08,0,4.13,4.13,0,0,1-.19,1.58,5.05,5.05,0,0,1-.61.93,8.28,8.28,0,0,1-.87,1,.86.86,0,0,1-.34.18s-.39.29-.78.51a7.14,7.14,0,0,1-.85.4,2.13,2.13,0,0,1-1.06.13.5.5,0,0,0-.21,0,3,3,0,0,1-.89,0,4.32,4.32,0,0,1-.88-.1c-.29,0-.59-.07-.88-.14a.51.51,0,0,1-.15-.07l-.19-.07a11.48,11.48,0,0,1-1.94-.76,7.76,7.76,0,0,1-.86-.7C265.18,255.3,265.06,254.91,265,254.87Z"/><path class="cls-1" d="M137.37,215.34a13.94,13.94,0,0,1,2.1-.84c.26-.08.49-.23.76-.29a11.66,11.66,0,0,1,2.89-.27c.45.05.88,0,1.35.08a2,2,0,0,1,1.7.84c.12.19-.33.52-.79.85s-.81.68-.92.65a11.23,11.23,0,0,0-2.14-.42,4.38,4.38,0,0,0-1.65.33,14,14,0,0,0-1.8.67,6.2,6.2,0,0,0-1,.57,5.49,5.49,0,0,0-1.35,1.13,2.65,2.65,0,0,0-.45,1.18l0,.25c0,.28-.19.31-.78.31h-.39c-.45,0-.78-.23-.81-.66a4.1,4.1,0,0,1,1.41-3,10.38,10.38,0,0,1,1.91-1.38Z"/><path class="cls-1" d="M142.18,258.93a4.1,4.1,0,0,1-1.54-1c-.14-.16-.35-.26-.46-.44a5.81,5.81,0,0,1-.78-2c0-.31-.14-.57-.17-.86a2.39,2.39,0,0,1,.09-1.12c0-.11,0-.09.05,0s.34.17.53.3c.74.44,1.21.76,1.41,1.28.12.32.46.47.68.68a9,9,0,0,0,.78.72,2.94,2.94,0,0,0,.59.37,2.51,2.51,0,0,0,1.06.3c.29,0,.56-.09.89-.09h.21c.27,0,.42.06.48,0h0a1,1,0,0,0-.16.31,5.68,5.68,0,0,1-.69,1,4,4,0,0,1-.5.4,2.69,2.69,0,0,1-.6.27,3.18,3.18,0,0,1-1.93,0Z"/><path class="cls-1" d="M393.86,270.63a20.55,20.55,0,0,1-5.78-4.1,20.14,20.14,0,0,1-3.83-5.91,27,27,0,0,1-1.57-4.83,48.7,48.7,0,0,1,.18-17.49c.43-2.54.95-5.07,1.55-7.56a52.5,52.5,0,0,1,3-9.38c.87-1.85,1.53,1.19.42,4.68a89.35,89.35,0,0,0-4,19.23,33.77,33.77,0,0,0,1.11,11.87,21.4,21.4,0,0,0,2.67,5.9,18.16,18.16,0,0,0,2.06,2.49,24.87,24.87,0,0,0,2.5,2.06,20.23,20.23,0,0,0,7.45,2.92,28.09,28.09,0,0,0,12.23-.61,33.46,33.46,0,0,0,8.65-3.72l1.73-1.12c2.11-1.46,2.74-1.95,3.52-1.92a2.75,2.75,0,0,1,.51,0c.45.11-.14,1.09-1.67,2.39a33.2,33.2,0,0,1-16.81,7,30.21,30.21,0,0,1-7,0,26.47,26.47,0,0,1-3.5-.71,17.67,17.67,0,0,1-1.71-.52l-1.66-.68Z"/><path class="cls-1" d="M457.3,314.73a155.49,155.49,0,0,0-9.12-13.44c-1.65-2.15-3.33-4.27-5.1-6.32-.89-1-1.79-2-2.71-3L439,290.49l-.71-.71-.36-.35-.6-.57-.7-3.74a41.44,41.44,0,0,0-1.85-6.17c-.36-1-.89-1.94-1.32-2.91-.26-.46-.55-.91-.81-1.36l-.41-.68c-.14-.22-.31-.42-.47-.63a14.61,14.61,0,0,0-4.13-4,11.79,11.79,0,0,0-2.56-1.22,10.77,10.77,0,0,0-1.36-.33,5.52,5.52,0,0,0-.68-.09l-.32,0h-.11l-.75.44-1,.52c-.66.33-1.32.65-2,.94a40.53,40.53,0,0,1-4.09,1.57,39.14,39.14,0,0,1-8.56,1.78,32,32,0,0,1-4.38.12,20.14,20.14,0,0,1-2.19-.15l-1.09-.12a6,6,0,0,0-.93,0,4.38,4.38,0,0,0-3.08,1.82,12.72,12.72,0,0,0-1.9,3.57,23.17,23.17,0,0,0-1.18,4.88,15.69,15.69,0,0,0,0,4.93,12.88,12.88,0,0,0,2.05,4.39,11.4,11.4,0,0,0,3.65,3.15c3.69,2,8.16,2.33,12.43,2.06a61.17,61.17,0,0,0,12.77-2.38c2.58-.78,2.43-.22.35,1a31.24,31.24,0,0,1-11.35,3.34,35.92,35.92,0,0,1-7,.1,21.4,21.4,0,0,1-6.91-1.69,13.63,13.63,0,0,1-5.69-4.6,14,14,0,0,1-1.71-3.27l-.28-.87-.14-.44-.11-.51a11.2,11.2,0,0,1-.17-1.87,25.29,25.29,0,0,1,1-7,15.32,15.32,0,0,1,3.3-6.46,7.47,7.47,0,0,1,1.58-1.24,5.64,5.64,0,0,1,2-.65,9,9,0,0,1,1.94.08l1.63.18a35.14,35.14,0,0,0,6.56-.16,36.9,36.9,0,0,0,7.45-1.73,36,36,0,0,0,3.6-1.44c.59-.26,1.17-.56,1.75-.85l.85-.47c.3-.18.46-.26,1-.62l.45,0h.39l.59.06a11.24,11.24,0,0,1,1.16.2,13.11,13.11,0,0,1,2.22.73,15.38,15.38,0,0,1,3.85,2.51,20.91,20.91,0,0,1,5.12,7.35,26.77,26.77,0,0,1,1.1,2.78,23.24,23.24,0,0,1,.86,2.84,26.38,26.38,0,0,1,.69,2.89l.49,2.62.94.92L441,290c.72.75,1.42,1.52,2.12,2.3,1.39,1.55,2.73,3.15,4.05,4.76,2.61,3.24,5.08,6.6,7.41,10a164,164,0,0,1,11.3,19.51,172,172,0,0,1,11.88,31.92,179,179,0,0,1,4.81,25.61c.17,1.91.45,3.76.55,5.69a71.47,71.47,0,0,1,.24,7.59,12.53,12.53,0,0,1-.43,3.38,7.62,7.62,0,0,1-.32,1c-.38.68-.71-2.22-1-7.4a180.88,180.88,0,0,0-9.08-46.8,165.32,165.32,0,0,0-15.29-32.84Z"/><path class="cls-1" d="M437.7,243.09c.09-.72,14.32,5.16,17.8-10.65,1.05-4.8-5.2-8.34-9.52-7.12-3.42,1-3,5.29-5.59,5.72-5.72-.71-2.84-12.61-4.18-16.5-2.83-8.25-11-8.18-17.91-5.53-11.46,4.38-22.23,15.05-35.39,11.05-8.81-2.68-13.85-13.44-13.94-21.85-.16-13.56,14.22-25.21,26.25-28.76,26.22-7.73,45.46,9.45,47.07,10.38,2.75,1.59,5.91-1,9.15-1.55,21.18-3.47,36,20,32,39.78-2.19,11-17.66,19.77-15,27.55,1.78,5.2,16.21,12.23,12.07,28.13-4.73,18.13-25.83,23.14-42.05,11.58,0,0-4.79-19.32-16.16-18.48C422.33,266.84,436,256.77,437.7,243.09Z"/><path class="cls-1" d="M481.67,202.15a36.21,36.21,0,0,0-3.32-8.28,32.63,32.63,0,0,0-5.29-7.15,24.68,24.68,0,0,0-15.53-7.62c-.73-.08-1.46-.06-2.2-.1s-1.47,0-2.2.14a21.56,21.56,0,0,0-2.14.31,17.2,17.2,0,0,0-2.07.68,13.23,13.23,0,0,1-4.83,1.23,4.74,4.74,0,0,1-2.69-.9l-1.89-1.39a57.67,57.67,0,0,0-7.7-4.77c-1.33-.73-2.73-1.31-4.1-1.94l-2.11-.82a22.51,22.51,0,0,0-2.14-.74,46.75,46.75,0,0,0-26-.89,37.5,37.5,0,0,0-10.71,4.29,41.76,41.76,0,0,0-9.14,7.1,29.83,29.83,0,0,0-6.37,9.5,20.18,20.18,0,0,0-1.08,11.2,26.89,26.89,0,0,0,4.28,10.59,17,17,0,0,0,8.82,6.79,21,21,0,0,0,11.32.05,51.23,51.23,0,0,0,10.72-4.59c3.08-1.65,6.13-3.43,9.34-5,.79-.39,1.61-.76,2.44-1.09s1.66-.66,2.52-.94a22.64,22.64,0,0,1,5.31-1.07,13.7,13.7,0,0,1,5.45.65,9.91,9.91,0,0,1,4.53,3.22,12.07,12.07,0,0,1,1.44,2.38l.52,1.27a6.75,6.75,0,0,1,.31,1.41,45.62,45.62,0,0,1,.15,5.32,26.49,26.49,0,0,0,.54,6.48,4.1,4.1,0,0,0,1.46,2.37,2.22,2.22,0,0,0,.58.28,1.24,1.24,0,0,0,.33.09c.08,0,.11,0,.18,0l.07,0,.13,0,.25-.13.22-.18.22-.24c.57-.72.95-1.82,1.62-2.85a4.94,4.94,0,0,1,3.07-2.28,9.23,9.23,0,0,1,7,1.33,7.86,7.86,0,0,1,2.58,2.64,5.64,5.64,0,0,1,.72,3.73,18.61,18.61,0,0,1-.94,3.39,16.15,16.15,0,0,1-1.55,3.15,11.54,11.54,0,0,1-5.4,4.55,14.81,14.81,0,0,1-6.92.86,18.6,18.6,0,0,1-3-.54,4.35,4.35,0,0,1-.6-.18h0s0-.12,0-.17,0-.15-.08-.18a0,0,0,0,0,0,0h0s0,0,.07.16.06-.05.13-.07a3.62,3.62,0,0,1,.76-.06c.65,0,1.59,0,2.76,0a18.31,18.31,0,0,0,4.08-.48,10.69,10.69,0,0,0,4.51-2.29,12.23,12.23,0,0,0,3.27-5,21.45,21.45,0,0,0,.93-3.27,3.65,3.65,0,0,0-.5-2.71,7.09,7.09,0,0,0-4.73-3,5.93,5.93,0,0,0-2.79.1,2.86,2.86,0,0,0-1,.56,4.76,4.76,0,0,0-.81,1.05c-.25.42-.48.93-.77,1.46a6.42,6.42,0,0,1-1.24,1.74,5,5,0,0,1-.51.4c-.2.11-.4.22-.61.31a2.31,2.31,0,0,1-.34.1l-.45.12c-.14.07-.28,0-.42,0l-.37-.07a4.53,4.53,0,0,1-2.09-1.09,7,7,0,0,1-1.87-3.7,21.94,21.94,0,0,1-.41-3.62c-.09-2.36,0-4.67-.06-6.84a11.41,11.41,0,0,0-.17-1.51,2.66,2.66,0,0,0-.19-.65l-.29-.72a9.79,9.79,0,0,0-1.57-2.58,8.45,8.45,0,0,0-5.19-2.7,16.17,16.17,0,0,0-6.31.45,32.74,32.74,0,0,0-6.18,2.34c-2,1-4,2-6,3.13a74.79,74.79,0,0,1-12.61,6,26.4,26.4,0,0,1-7,1.31,22.53,22.53,0,0,1-7.16-.94,16.8,16.8,0,0,1-6.29-3.67,23.27,23.27,0,0,1-4.46-5.64,30,30,0,0,1-3.08-8,23.63,23.63,0,0,1-.44-8.64,23.19,23.19,0,0,1,2.88-8.21,32.62,32.62,0,0,1,5.21-6.92,45.23,45.23,0,0,1,14.18-9.77l2-.81,2.06-.69c1.39-.4,2.8-.7,4.19-1l1.05-.25,1.07-.15,2.14-.29a32.21,32.21,0,0,1,4.29-.32,49,49,0,0,1,18.53,3.06,60.8,60.8,0,0,1,16.36,9.13c1,.88,2.33.82,3.73.39s2.82-1.11,4.42-1.53a24.82,24.82,0,0,1,9.56-.13,27.5,27.5,0,0,1,16,9.64,38.06,38.06,0,0,1,8.63,21.26,32.44,32.44,0,0,1-1.06,11.58c-1.28,3.77-3.66,6.93-6.06,9.89-1.83,2.26-3.77,4.41-5.49,6.68a22.66,22.66,0,0,0-2.28,3.54,7.86,7.86,0,0,0-1,3.86,6.11,6.11,0,0,0,1.61,3.55c.86,1.09,1.89,2.12,2.87,3.18a41.91,41.91,0,0,1,5.48,6.85,20.73,20.73,0,0,1,3,8.32,21.6,21.6,0,0,1-.89,8.76l-.69,2.09a19.13,19.13,0,0,1-.92,2,23.29,23.29,0,0,1-2.27,3.77,20.67,20.67,0,0,1-1.42,1.68l-.74.83a9.49,9.49,0,0,1-.82.73l-1.67,1.44-1.85,1.19a11.38,11.38,0,0,1-1.91,1,21.54,21.54,0,0,1-2,.88l-2.06.68-.51.17-.53.11-1.06.21a26.69,26.69,0,0,1-4.26.54c-.72.07-1.43,0-2.15,0a15.37,15.37,0,0,1-2.14-.13,27.2,27.2,0,0,1-4.2-.76c-.69-.18-1.39-.32-2.06-.54l-2-.74-1-.37c-.33-.15-.64-.31-1-.47l-1.91-.94a18.63,18.63,0,0,1-1.82-1.09l-2-1.26-.23-.83-.17-.57-.36-1.14c-.26-.75-.53-1.49-.82-2.23a40,40,0,0,0-2-4.3,21.1,21.1,0,0,0-5.78-7.17,8.94,8.94,0,0,0-5.25-1.84h-1.78l-1.65,0a4,4,0,0,1,.66-.56l.81-.62c.55-.43,1.09-.85,1.58-1.27l.76-.64.37-.32.24-.22.85-.79a46.2,46.2,0,0,0,9.16-11.9c.8-1.44,1.26-2.65,1.73-3.62s.74-1.8,1-2.52.51-1.57.7-2,.23-.21.22.32c0,.27,0,.64-.08,1.12a8.93,8.93,0,0,1-.27,1.7,30.34,30.34,0,0,1-5.14,11.14A47.42,47.42,0,0,1,428,263c-.79.86-1.64,1.68-2.5,2.48l-.41.38L425,266l-.07.05s0,0,0,0h.34l.22,0,.12,0,.4.12a11.25,11.25,0,0,1,3.21,1.51,18.85,18.85,0,0,1,4.83,4.93,35.26,35.26,0,0,1,3.29,5.95c.46,1,.88,2.09,1.26,3.16.19.53.37,1.07.55,1.61l.36,1.21,2.58,1.63,3.08,1.54,3.24,1.2c1.12.27,2.23.6,3.35.83a26.58,26.58,0,0,0,13.62-.95l.82-.27c.26-.11.51-.25.77-.37l1.56-.74a14.69,14.69,0,0,0,1.46-.9,15.36,15.36,0,0,0,1.42-1l1.31-1.12.65-.56.57-.64,1.14-1.29a15.49,15.49,0,0,0,1-1.41c.31-.48.66-.94.94-1.45l.75-1.55a19.51,19.51,0,0,0,1.24-3.24l.27-.83c.08-.28.12-.56.18-.85l.33-1.69c.11-.57.09-1.15.15-1.72a8.79,8.79,0,0,0,0-1.7,17.68,17.68,0,0,0-2.4-8.25,37.47,37.47,0,0,0-5.5-7.08c-1.06-1.14-2.15-2.22-3.19-3.53a9.8,9.8,0,0,1-1.42-2.26,6.34,6.34,0,0,1-.53-2.77,10.59,10.59,0,0,1,1.54-5,31.36,31.36,0,0,1,2.75-4c2-2.48,4.05-4.78,5.92-7.18a28.81,28.81,0,0,0,4.56-7.63,15,15,0,0,0,.58-2.06c.12-.74.28-1.47.35-2.21a30.59,30.59,0,0,0,.25-4.48,35.25,35.25,0,0,0-1.23-8.9Z"/><path class="cls-1" d="M397,271.2c-9,4.26-6.37,13.72-7.37,15.81s-6,2-6,2c-6.5-.15-9.38-7.05-7-12.5,2.2-5.08,9.13-7.88,9.86-13.71C386.49,262.77,393.86,272.21,397,271.2Z"/><path class="cls-1" d="M378.9,275a8.79,8.79,0,0,0-1.17,9.37,6.89,6.89,0,0,0,2.36,2.63,8.7,8.7,0,0,0,6.28,1,3.82,3.82,0,0,0,2.57-1.19,3.88,3.88,0,0,0,.26-1.43l.09-1.79a20.5,20.5,0,0,1,1.13-6.48,11.69,11.69,0,0,1,2.26-3.68,10.07,10.07,0,0,1,1.64-1.42,8.7,8.7,0,0,1,.9-.59l1-.46c.81-.37.88.14.48.89a13.81,13.81,0,0,1-2.19,2.68,11.11,11.11,0,0,0-1.19,1.38,12,12,0,0,0-.89,1.61,13.45,13.45,0,0,0-1,3.63c-.19,1.29-.24,2.62-.32,4,0,.38,0,.72-.12,1.14a3.63,3.63,0,0,1-.13.64,3,3,0,0,1-.3.74,4,4,0,0,1-2.22,1.61,12,12,0,0,1-2.71.53,13.19,13.19,0,0,1-2.74,0,8.18,8.18,0,0,1-5.08-2.37,9.41,9.41,0,0,1-2.62-5.47,10.86,10.86,0,0,1,.92-5.9,19.53,19.53,0,0,1,4.53-5.53A34.06,34.06,0,0,0,384,267a10.09,10.09,0,0,0,1.26-2l.13-.26a2.28,2.28,0,0,0,.15-.44l.25-.92c.18-.61.26-1.22.39-1.84.05,0,.13.1.21.19l.24.3c.61.77,1.24,1.53,1.88,2.24.45.49.9,1,1.37,1.43.93.93,1.89,1.82,2.89,2.64.45.36.9.68,1.36,1,.85.58,1.41.87,1.77,1.08a2.55,2.55,0,0,1,.77.6c.1.1.25.18.35.27s.06.41-.47.58a3.26,3.26,0,0,1-2.16-.31,19,19,0,0,1-4.87-3.59c-.73-.69-1.42-1.42-2.1-2.16l-.25-.29-.07-.07h0v0h0l0,0,0,0-.09.21c-.14.27-.26.55-.41.81-2.14,3.67-5.54,5.73-7.62,8.51Z"/><path class="cls-1" d="M383.87,343.05q1.5-4.79,3.16-9.49c.39-1.15.75-2.31,1.17-3.44,1.48-4,3.06-8,4.66-12,.7-1.76,1.37-3.54,2-5.3a70.07,70.07,0,0,1,2.69-6.74c.67-1.35,1.64,1.09.63,3.68-1.78,4.59-3.62,9.14-5.58,13.7-1.17,2.73-2.12,5.67-3.14,8.52-1.11,3.14-2.19,6.3-3.19,9.48-.63,1.95-1.22,3.92-1.77,5.89-.85,3-1.64,6-2.29,9-.24,1.18-.45,2.35-.65,3.51l-.51,3.51-.21,1.54c-.28,1.93-.5,2.52-1.06,2.86a3.07,3.07,0,0,1-.38.22c-.41.13-.6-.71-.48-2.15a85.84,85.84,0,0,1,2.24-13.11c.77-3.28,1.69-6.53,2.65-9.75Z"/><path class="cls-1" d="M399.43,369.13a18.11,18.11,0,0,1,5.71,3.43c1.66,1.4,3.16,2.9,4.64,4.38,1.08,1.08,2.2,2.12,3.29,3.17a54.17,54.17,0,0,0,12.74,9.48,43.08,43.08,0,0,0,6.53,2.68c2.87.92,5.83,1.51,8.77,2.2.91.23.72.68-.16,1a7.66,7.66,0,0,1-4.19.1,46.13,46.13,0,0,1-17.33-7.83,81.3,81.3,0,0,1-8.9-7.51c-1.51-1.48-3-3-4.5-4.43a26.45,26.45,0,0,0-4.82-3.82,11.83,11.83,0,0,0-3.4-1.39,12.27,12.27,0,0,0-1.81-.23,6,6,0,0,0-1.78.16,23.93,23.93,0,0,0-5.36,2c-.87.44-1.71.92-2.54,1.42l-1.21.79-.58.42-.35.27a2.39,2.39,0,0,0-.79.9c0,.11.06.19.17.21h.32a6,6,0,0,0,.61-.06,5.35,5.35,0,0,0,.55-.11c.35-.09.69-.16,1-.28a17.8,17.8,0,0,0,2-.79c.58-.26,1.15-.56,1.76-.84,2.27-1.06,3.24-1.12,3.86-.74a1.85,1.85,0,0,1,.4.27c.28.37-.61.73-2.15,1.47-1.16.55-2.35,1.23-3.67,1.8a15.54,15.54,0,0,1-2.08.75l-.56.14-.28.07-.48.06-1,.13c-.32,0-.62,0-.93,0a2.45,2.45,0,0,1-1.4-.3.81.81,0,0,1-.44-.34,1.25,1.25,0,0,1-.27-.61,1.81,1.81,0,0,1,.23-1.18l.19-.32.29-.34a6.23,6.23,0,0,1,.68-.68c.23-.23.53-.44.79-.66l.38-.29.23-.16.91-.64c.62-.4,1.25-.79,1.88-1.15a31.15,31.15,0,0,1,6-2.73,10.25,10.25,0,0,1,3.53-.56,12.74,12.74,0,0,1,3.46.59Z"/><path class="cls-1" d="M392,376.31c.16-.22.44-.17.79.05.11.07.28.37.25.45a2.58,2.58,0,0,1-.22.44c-.05.08-1.08.94-1.4,1.26a11,11,0,0,1-1,.83,15.83,15.83,0,0,0-1.9,1.73,2.81,2.81,0,0,1-.39.38,2.44,2.44,0,0,0-.86,1.42.72.72,0,0,0,0,.33c0,.19-.25,1.9-.27,2.13a10.55,10.55,0,0,0-.24,1.7c0,.09,0,.17,0,.26a.72.72,0,0,0-.08.55,6.59,6.59,0,0,1,0,.77,1.52,1.52,0,0,1-.12.4c-.05.12-.27.09-.3.06s-.18,0-.27,0l-.09,0a7.9,7.9,0,0,1-.64-1.64s0-.16-.05-.38-.06-.53-.08-.84a13.33,13.33,0,0,1,0-1.41,1.19,1.19,0,0,1,.08-.41,19,19,0,0,1,.24-2,6.22,6.22,0,0,1,.2-.64,1.72,1.72,0,0,1,.36-.58,1.07,1.07,0,0,0,.15-.22,6.3,6.3,0,0,1,1.35-1.58c.25-.23.48-.48.73-.7a.75.75,0,0,1,.15-.09.91.91,0,0,0,.19-.13c.59-.53,1.25-.94,1.84-1.44.14-.12.93-.46,1.09-.58S391.93,376.4,392,376.31Z"/><path class="cls-1" d="M389.38,390.46c.08.24-.07.45-.33.62-.08.06-.32,0-.36,0s-.13-.26-.19-.39-.27-1.34-.41-1.79a8.22,8.22,0,0,1-.18-1.32,11.66,11.66,0,0,1,.1-2.87,3.36,3.36,0,0,1,.21-.66c.36-.77.68-1.31,1-2a.89.89,0,0,0,.16-.34,4.13,4.13,0,0,1,.69-1,5.49,5.49,0,0,1,.93-.89,10.35,10.35,0,0,1,1.72-.88c.08,0,.15-.1.25-.08a1,1,0,0,0,.57-.14,5,5,0,0,1,.75-.24,1.2,1.2,0,0,1,.42,0c.12,0,.15.24.12.28s0,.17.09.25l0,.09c0,.05-1.12,1-1.23,1.05a2.09,2.09,0,0,0-.27.17c-.17.11-.37.26-.57.41a7.37,7.37,0,0,0-.85.76,1.05,1.05,0,0,1-.27.2,8.15,8.15,0,0,0-.93,1.31,3.45,3.45,0,0,1-.55.78.45.45,0,0,0-.11.17,7.31,7.31,0,0,0-.53,1.44,4.58,4.58,0,0,0-.08.83c0,.06,0,.11,0,.16a1.25,1.25,0,0,0,0,.19,16.84,16.84,0,0,0,.06,2.12c0,.16-.1,1-.08,1.18S389.35,390.36,389.38,390.46Z"/><path class="cls-1" d="M394.36,383.23c.12-.13.31-.05.51.12a.5.5,0,0,1,.11.33c-.05.1-.09.2-.14.28a3.69,3.69,0,0,0-.33.34,5.7,5.7,0,0,0-.32.53c-.13.2-.26.38-.4.56a6.76,6.76,0,0,0-.67,1.25,2.29,2.29,0,0,1-.18.29,2.52,2.52,0,0,0-.43,1.1.3.3,0,0,0,0,.21,6,6,0,0,1-.2,1.35c-.15.34-.27.7-.39,1.06,0,.05,0,.11-.07.16s-.15.21-.17.33a2.26,2.26,0,0,1-.14.47.68.68,0,0,1-.2.22c-.07.07-.29,0-.31,0s-.17,0-.27,0h-.1a5,5,0,0,1-.34-1.09s0-1.4.05-1.6a.61.61,0,0,1,.08-.25s.1-1.19.13-1.24a1.39,1.39,0,0,1,.28-.69.25.25,0,0,0,.06-.14,5,5,0,0,1,.53-1.18c.11-.19.21-.4.33-.59s.06-.06.09-.09l.11-.11a7.45,7.45,0,0,1,1.12-1.2c.07-.13.71-.25.82-.32S394.31,383.28,394.36,383.23Z"/><path class="cls-1" d="M398.82,287a10.82,10.82,0,0,1-.88-2.07,5.1,5.1,0,0,1-.26-.78,6.68,6.68,0,0,1,0-2.95,4.58,4.58,0,0,1,.15-.64c.07-.21.1-.44.18-.64s.2-.54.33-.8a2.05,2.05,0,0,1,.6-.61c.15-.1.48.26.76.67s.53.83.41,1a8.08,8.08,0,0,0-.84,2.12,3.23,3.23,0,0,0,.2,1.58,8.43,8.43,0,0,0,.65,1.75,8,8,0,0,0,.6,1,6.63,6.63,0,0,0,1.16,1.37,5.07,5.07,0,0,0,1.21.65l.27.1c.32.14.35.3.21.79,0,.11-.06.22-.1.33a.67.67,0,0,1-.77.51,4.94,4.94,0,0,1-2.6-1.54,10.92,10.92,0,0,1-1.36-1.82Z"/><path class="cls-1" d="M409.18,285.89a8.82,8.82,0,0,1-.89-1.86,3.7,3.7,0,0,1-.26-.7,7,7,0,0,1-.12-2.62c0-.38.1-.77.14-1.15s.08-.5.14-.75a1.63,1.63,0,0,1,.41-.64c.12-.11.52.16.89.48s.71.67.64.84a19.45,19.45,0,0,0-.54,2.05,2.89,2.89,0,0,0,.24,1.41,6.73,6.73,0,0,0,.63,1.5,5.48,5.48,0,0,0,.57.85,5,5,0,0,0,1.14,1.06,3.35,3.35,0,0,0,1.13.31,2.13,2.13,0,0,0,.25,0c.3,0,.35.19.31.7l0,.34a.69.69,0,0,1-.58.69,3.91,3.91,0,0,1-2.67-.95,7.59,7.59,0,0,1-1.44-1.56Z"/><path class="cls-1" d="M426.14,404a13,13,0,0,0,1.34-1.93,7.75,7.75,0,0,0,.35-.78,13.12,13.12,0,0,0,1.09-2.9,6.42,6.42,0,0,0,.16-1.38,5.47,5.47,0,0,1,.11-1.8c.13-.37,1.92.11,1.92.88a9.72,9.72,0,0,1-.84,3.91c-.33.75-.52,1.56-.88,2.31a13.5,13.5,0,0,1-1.41,2.3c-.32.45-.69.86-1,1.27-.55.61-1.15,1.18-1.72,1.75s-.82.94-1.25,1.41a4,4,0,0,1-.28.3c-.39.34-.59.34-1,0a1.86,1.86,0,0,1-.26-.23.73.73,0,0,1-.09-1,20,20,0,0,1,2.15-2.42,19,19,0,0,0,1.59-1.77Z"/><path class="cls-1" d="M431.58,378.91c0-1.75,0-3.52-.06-5.28,0-.64-.12-1.28-.16-1.92-.13-2.27-.29-4.54-.58-6.8a29.3,29.3,0,0,0-.54-3c-.29-1.24-.69-2.51-.89-3.65-.06-.3.36-.56.94-.39a2.14,2.14,0,0,1,1.4,1.47,38.84,38.84,0,0,1,1.12,8c.06,1.62.34,3.27.45,4.91.11,1.81.17,3.62.17,5.43,0,1.12,0,2.23-.07,3.35a41.35,41.35,0,0,1-.55,5.07,11.15,11.15,0,0,1-1.23,3.92,3.79,3.79,0,0,1-.65.81,2.31,2.31,0,0,1-1.33.62.83.83,0,0,1-.67-.41,1.66,1.66,0,0,1-.16-.33.61.61,0,0,1,.17-.53,1.15,1.15,0,0,1,.23-.21c.09-.06.16-.17.26-.23a4.61,4.61,0,0,0,1.22-2.36,20.33,20.33,0,0,0,.59-3.28,47.23,47.23,0,0,0,.29-5.22Z"/><path class="cls-1" d="M397.68,368.71c1-.89,7.23-7.67,4.7-9.74-1.88-1.53-7.5,4.25-8.3,5.74l2.15,1.06-2.37,2.94Z"/><path class="cls-1" d="M377.91,394.4s-2.1.33-2.1-.68c0-1.88,12.18-16.26,12.18-16.26l3.69-1.92S380,391.84,377.91,394.4Z"/><path class="cls-1" d="M463,416.63c-1.57,0-3.14-.11-4.71-.23-.57,0-1.15,0-1.72-.09-2-.19-4-.53-6-.91-.88-.21-1.78-.33-2.65-.52-.57-.13-1.14-.23-1.71-.37a9,9,0,0,1-1.62-.66c-.63-.35.89-1.74,2-1.37,2.11.61,4.29,1.08,6.53,1.6a28.6,28.6,0,0,0,4.17.45c1.55.1,3.1.19,4.65.24,1,0,1.92.05,2.88,0,1.45,0,2.91,0,4.36-.11,1.12-.07,2.21-.26,3.33-.39.24,0,.49-.07.74-.08.92-.07,1.24.08,1.43.57a2.3,2.3,0,0,1,.12.34c.08.39-.3.7-.94.82a41.39,41.39,0,0,1-6.14.65c-1.57.07-3.16.08-4.74.07Z"/><path class="cls-1" d="M498.22,350.43a130.13,130.13,0,0,0-2.26-15c-.4-1.8-.9-3.57-1.42-5.32a33.57,33.57,0,0,0-3.76-8.77,10,10,0,0,0-3.16-3.23,5.51,5.51,0,0,0-2-.73,4.42,4.42,0,0,0-1.09,0,4.56,4.56,0,0,0-1.11.14,6.89,6.89,0,0,0-3.45,1.93,12,12,0,0,0-2.38,3.35,32.6,32.6,0,0,0-2.77,10.42c-.13,1.11-.61,1-1-.05a9.14,9.14,0,0,1-.18-5.12,26.45,26.45,0,0,1,1.92-5.64,14.51,14.51,0,0,1,3.74-4.92,8.93,8.93,0,0,1,6.12-2,7.13,7.13,0,0,1,3.17,1,10.16,10.16,0,0,1,2.39,2.07,24.76,24.76,0,0,1,3.65,6.25,50.37,50.37,0,0,1,2.31,6.76,112.36,112.36,0,0,1,2.78,15.26c.38,3.16.66,6.32.89,9.48.34,4.79.48,9.62.54,14.38,0,3.71.1,7.34-.06,11,0,.81-.07,1.6-.14,2.42-.27,3-.62,4-1.23,4.53a2.4,2.4,0,0,1-.41.35c-.45.19-.46-1-.31-3.19.42-6.42.41-13.28.21-20.14-.16-5.1-.47-10.22-1-15.31Z"/><path class="cls-1" d="M393.59,233.4a2.82,2.82,0,0,1-1.46-1.55l-.24-.55-.12-.36c-.07-.23-.13-.46-.19-.69a5.81,5.81,0,0,1-.24-1.15c0-.21,0-.43.05-.63a4.08,4.08,0,0,1,.23-.67,3.42,3.42,0,0,1,.44-.55,2,2,0,0,1,.6-.35,3.27,3.27,0,0,1,2.17,0,10.92,10.92,0,0,1,1.58.65,2.76,2.76,0,0,1,1.55,1.62c.08.26-.4.39-.89.48l-.68.11c-.2,0-.36,0-.43-.07a5.29,5.29,0,0,0-2.41-1.23.27.27,0,0,0-.34.12.65.65,0,0,0,0,.24,1.51,1.51,0,0,0,0,.39,6.28,6.28,0,0,0,.28,1.14l.12.37a1.39,1.39,0,0,0,.12.28c.08.2.33.41.53.25l.09-.09a1.19,1.19,0,0,0-.11-1.25.42.42,0,0,0-.43-.14l0,0,0,0h0c.05.1-.07-.13-.06-.1h0l0,0c0,.05.09.1.08.1s0,.09,0,.16,0,.12,0,.17,0,.2-.36.61a1.87,1.87,0,0,0-.2.29.5.5,0,0,1-.47.24.86.86,0,0,1-.61-.48,2.13,2.13,0,0,1-.2-1.44,1.88,1.88,0,0,1,.4-.84,2.16,2.16,0,0,1,.46-.39,1.46,1.46,0,0,1,.39-.16,1.92,1.92,0,0,1,1.69.34,3.14,3.14,0,0,1,1.12,2,3.26,3.26,0,0,1-.24,2,2.24,2.24,0,0,1-1,1,1.86,1.86,0,0,1-1.21.06Z"/><path class="cls-1" d="M407.3,235.29a2.86,2.86,0,0,1-1.46-1.55l-.24-.55-.12-.36c-.07-.23-.13-.46-.19-.69a5.77,5.77,0,0,1-.24-1.16c0-.21,0-.42.05-.62a4.08,4.08,0,0,1,.23-.67,3,3,0,0,1,.44-.55,2,2,0,0,1,.6-.35,3.27,3.27,0,0,1,2.17,0,10.92,10.92,0,0,1,1.58.65,2.76,2.76,0,0,1,1.55,1.62c.08.26-.4.39-.89.48l-.68.1c-.21,0-.36,0-.43-.06a5.41,5.41,0,0,0-2.41-1.24.27.27,0,0,0-.34.13.61.61,0,0,0,0,.24,1.51,1.51,0,0,0,0,.39,6,6,0,0,0,.28,1.13l.12.38a1.69,1.69,0,0,0,.12.28c.08.2.33.41.53.25l.09-.1a1.18,1.18,0,0,0-.11-1.24.4.4,0,0,0-.43-.14s0,0,0,0l0,0h0c.05.1-.07-.13-.06-.1h0l0,0s.09.1.08.1,0,.08,0,.16,0,.12.05.17-.05.2-.37.61a2.9,2.9,0,0,0-.19.29.5.5,0,0,1-.47.24.86.86,0,0,1-.61-.48,2.13,2.13,0,0,1-.2-1.44,1.83,1.83,0,0,1,.4-.84,1.91,1.91,0,0,1,.46-.39,1.46,1.46,0,0,1,.39-.16,1.92,1.92,0,0,1,1.69.34,3.14,3.14,0,0,1,1.12,2,3.29,3.29,0,0,1-.24,2,2.17,2.17,0,0,1-1,1,1.8,1.8,0,0,1-1.21.07Z"/><path class="cls-1" d="M408.05,223.31c-.12.26-.39-.16-.82-.86a3.54,3.54,0,0,1-.36-1.07,3.48,3.48,0,0,1,.23-.73,7.28,7.28,0,0,1,1.94-1.13,3.64,3.64,0,0,1,1.46-.33,17.72,17.72,0,0,1,2.92.08,1.34,1.34,0,0,1,.6.23,5.23,5.23,0,0,0,2,.73.36.36,0,0,0,.37,0c.27-.2,2.12.5,2.3.73.47.52,1,1,1.39,1.48.07.07.18.07.16.27a.58.58,0,0,0,.26.66,1.68,1.68,0,0,1,.47.72,1.86,1.86,0,0,1,0,.62c0,.19-.39.53-.46.55s-.28.31-.41.48-.1.13-.15.17a12.28,12.28,0,0,1-1.83.31s-.42-.14-.86-.27a6.27,6.27,0,0,0-1-.23c-.11,0-.17-.13-.24-.23a14.64,14.64,0,0,0-1.48-.21c-.26-.14-.57,0-.76-.47,0-.08-.1-.08-.15-.09a6.49,6.49,0,0,1-1.42-.44,3.1,3.1,0,0,0-.74-.13s-.08-.06-.12-.09-.11-.1-.17-.1a4.94,4.94,0,0,0-1.71-.06c-.12,0-.79-.31-.92-.22S408.1,223.2,408.05,223.31Z"/><path class="cls-1" d="M390.59,218.78c-.08.27-.4-.11-.91-.75a3.28,3.28,0,0,1-.5-1,4,4,0,0,1,.14-.75,7.64,7.64,0,0,1,1.78-1.37,3.75,3.75,0,0,1,1.41-.51,18,18,0,0,1,2.9-.29,1.28,1.28,0,0,1,.63.16,5.28,5.28,0,0,0,2.11.46c.12,0,.23.06.37-.06s2.17.22,2.38.43c.53.46,1.07.83,1.56,1.29.07.06.19,0,.19.25,0,.46.19.49.34.62a1.71,1.71,0,0,1,.56.65,1.93,1.93,0,0,1,.07.61c0,.2-.32.58-.38.62s-.25.34-.36.52a1.22,1.22,0,0,1-.12.19,12.72,12.72,0,0,1-1.77.54s-.44-.09-.89-.16a5.11,5.11,0,0,0-1-.1c-.11,0-.18-.11-.26-.2a15,15,0,0,0-1.5,0c-.27-.11-.57,0-.81-.37a.15.15,0,0,0-.16-.07,6.58,6.58,0,0,1-1.46-.26,3.16,3.16,0,0,0-.75,0c-.05,0-.09-.06-.14-.08s-.12-.08-.17-.08a5.06,5.06,0,0,0-1.71.16c-.12,0-.82-.21-.94-.1S390.63,218.66,390.59,218.78Z"/><path class="cls-1" d="M392.52,245.05a3.52,3.52,0,0,1-1.18-2,3,3,0,0,1,.57-2.29,7.37,7.37,0,0,1,.87-1.06,27.62,27.62,0,0,1,3.36-2.73l1.56-1.13a6.74,6.74,0,0,1,2.11-1.21c.5-.12.78,1.76.05,2.21-1.33.8-2.59,1.6-3.92,2.45a13.64,13.64,0,0,0-2.12,2,2.7,2.7,0,0,0-.67,1,1.11,1.11,0,0,0,.19.95,3.68,3.68,0,0,0,1.31,1.09,8.28,8.28,0,0,0,2.73.9,6.65,6.65,0,0,0,2.19-.1L400,245c.53-.12.66-.06,1,.36a3,3,0,0,1,.22.28c.24.31.08.76-.47,1a7.58,7.58,0,0,1-4.82.13,8.56,8.56,0,0,1-3.42-1.69Z"/><path class="cls-1" d="M395.82,256c-.2-.07-.13-.32.13-.6a1.33,1.33,0,0,1,.45-.26h.32a2.61,2.61,0,0,0,.79.28,3.56,3.56,0,0,1,.56.15,6.25,6.25,0,0,0,1.27.2,1,1,0,0,1,.29.07,1.2,1.2,0,0,0,.91,0s.09,0,.11-.09a1.34,1.34,0,0,1,.34-.23c.16-.1.34-.23.4-.25a4.86,4.86,0,0,0,.9-.43s.07-.08.15-.06.25-.05.35-.11a1.77,1.77,0,0,1,.4-.24,1.2,1.2,0,0,1,.32,0c.1,0,.23.21.23.25s.12.16.19.23a.18.18,0,0,1,.07.08,3.26,3.26,0,0,1-.32,1l-.45.52a6.38,6.38,0,0,1-.61.63.53.53,0,0,1-.26.13s-.28.22-.6.4a4.65,4.65,0,0,1-.7.29,1.32,1.32,0,0,1-.81,0,.3.3,0,0,0-.16,0,3.88,3.88,0,0,1-1.23-.14l-.62-.1-.1-.06c-.05,0-.09-.06-.13-.07a8,8,0,0,1-1.44-.59c-.13,0-.51-.54-.61-.63S395.88,256.05,395.82,256Z"/><path class="cls-1" d="M413.34,312.6a26,26,0,0,1-3.63.3c-.44,0-.89,0-1.33,0a24.88,24.88,0,0,1-4.58-.75c-.66-.16-1.33-.31-2-.44a9.51,9.51,0,0,1-2.47-.73c-.48-.26.62-1.54,1.54-1.28l4.9,1.35a13.05,13.05,0,0,0,3.07.28,21.82,21.82,0,0,0,3.42-.21c.7-.08,1.4-.22,2.1-.37a25.79,25.79,0,0,0,3.12-.88,22.19,22.19,0,0,0,2.26-1.06c.17-.08.32-.18.49-.25.62-.29.86-.27,1.16.07.07.08.15.15.21.23.19.28,0,.64-.4.92a17.52,17.52,0,0,1-4.33,1.95,27.87,27.87,0,0,1-3.55.87Z"/><path class="cls-1" d="M222.45,140.54A86.14,86.14,0,0,0,235,128.64c1.35-1.63,2.67-3.27,3.87-5a79.21,79.21,0,0,0,10.62-19.56c.28-.78.6-1.55.84-2.34l.67-2.4.65-2.39c.16-.81.31-1.62.46-2.43.19-1,.41-2.07.55-3.11l.34-3.15c.32-2.08.29-4.19.54-6.29.13-1.31.75-1.15,1.3,0a9.37,9.37,0,0,1,.73,2.38,10.61,10.61,0,0,1,.14,3.42A68.5,68.5,0,0,1,248,113.21,109.93,109.93,0,0,1,239.34,127,89.29,89.29,0,0,1,226.92,140a84.42,84.42,0,0,1-8.87,6.54c-1.18.73-2.36,1.48-3.56,2.19l-3.69,2a52.63,52.63,0,0,1-7.71,3.19,105.09,105.09,0,0,0-11.72,4.4c-.81.39-1.58.81-2.36,1.26s-1.3.79-1.81,1.07-.88.55-1.23.73a3.18,3.18,0,0,1-1.63.5,3.61,3.61,0,0,1-.67,0c-.29-.07-.24-.41.14-1a7.56,7.56,0,0,1,.82-1,15.67,15.67,0,0,1,1.34-1.14,38.87,38.87,0,0,1,10.66-5.18c3.74-1.3,7.51-2.38,11-3.95a85.62,85.62,0,0,0,14.79-9.06Z"/><path class="cls-1" d="M178.59,170.11c-.94-.05-1.88-.1-2.81-.1-.34,0-.68.07-1,.07a33,33,0,0,0-3.59.11,7.3,7.3,0,0,0-1.54.34,5.14,5.14,0,0,1-1.92.53c-.45,0-.74-2.36.11-2.67a11.47,11.47,0,0,1,4.46-.53,23.91,23.91,0,0,0,2.67-.16c1,0,2,0,2.93,0l1.79.06c.9,0,1.81.09,2.7.06a20.74,20.74,0,0,0,2.06-.27,3.5,3.5,0,0,1,.45-.07c.57,0,.74.13.85.78,0,.14.06.29.07.44a.94.94,0,0,1-.61,1,11.94,11.94,0,0,1-3.76.46l-2.84,0Z"/><path class="cls-1" d="M180.09,209.06l1.67-8.76c.2-1.06.33-2.13.53-3.2l1.09-5.63c.38-1.86.74-3.72,1-5.59a31.94,31.94,0,0,0,.32-5,30.83,30.83,0,0,0-.82-6.09c-.12-.6.46-.81,1.22-.46a3.56,3.56,0,0,1,1.89,2.69,27.13,27.13,0,0,1,0,7,52.56,52.56,0,0,1-1.19,6.65c-.64,2.6-.95,5.32-1.43,8l-1.64,8.83-1,5.43c-.47,2.74-1,5.49-1.28,8.23-.26,2.13-.33,4.24-.45,6.35,0,.47,0,.93-.06,1.4-.13,1.73-.33,2.27-1,2.59a3.13,3.13,0,0,1-.46.21c-.51.13-.85-.62-.89-1.92a74.34,74.34,0,0,1,.92-11.87c.42-3,.94-5.94,1.45-8.9Z"/><path class="cls-1" d="M318.79,143.37a89.81,89.81,0,0,1-12.62-12.65c-1.35-1.7-2.78-3.34-4-5.17A82.69,82.69,0,0,1,292,105.12c-.27-.81-.58-1.6-.82-2.41l-.68-2.45-.7-2.44c-.18-.83-.35-1.66-.53-2.48-.21-1.06-.48-2.11-.67-3.17l-.44-3.23a39.08,39.08,0,0,1-.28-6.49c0-1.35.65-1.15,1.3,0a10,10,0,0,1,.91,2.27,26.59,26.59,0,0,1,.6,3.22,84.38,84.38,0,0,0,6.69,24.69,78.5,78.5,0,0,0,8.18,13.58A88.6,88.6,0,0,0,317.37,139a77.79,77.79,0,0,0,8.55,6.59l3.45,2.21,3.59,2a44.33,44.33,0,0,0,7.5,3.13c4,1.31,8.12,2.24,12.11,3.9.87.37,1.73.74,2.58,1.2s1.42.84,2,1.17a13.47,13.47,0,0,1,1.19,1,2.76,2.76,0,0,1,.91,1.55,2.65,2.65,0,0,1,.09.64c0,.29-.4.29-1,0-.3-.12-.63-.32-1.05-.54s-.88-.49-1.4-.81A49.67,49.67,0,0,0,345.5,157,95.91,95.91,0,0,1,334.12,153a83.75,83.75,0,0,1-15.36-9.62Z"/><path class="cls-1" d="M364.61,167.58c1,.11,1.93.24,2.89.39.35.05.71,0,1.06.1,1.24.23,2.47.54,3.69.87.54.14,1.09.24,1.64.33a4.23,4.23,0,0,1,2.07.64c.37.29-1,2.29-1.63,2.1a34,34,0,0,1-3.86-1.21,11.07,11.07,0,0,0-2.51-.42c-.93-.13-1.87-.27-2.82-.37-.58-.06-1.16-.13-1.74-.16a23.74,23.74,0,0,0-2.66-.1,15.76,15.76,0,0,0-2,.33c-.14,0-.29.07-.44.08-.56.06-.74-.1-.87-.74a3.12,3.12,0,0,1-.09-.44.94.94,0,0,1,.56-1.06,10.66,10.66,0,0,1,3.82-.54c1,0,1.95.07,2.93.14Z"/><path class="cls-1" d="M360,210l-1.19-8.83c-.15-1.08-.36-2.14-.5-3.22l-.71-5.67c-.25-1.9-.49-3.81-.67-5.74-.15-1.7-.31-3.43-.36-5.15a14,14,0,0,1,1-6.69c.32-.67.84-.29,1.22.44a5,5,0,0,1,.54,2.85c-.5,4,0,8.36.37,12.76.24,2.64.77,5.39,1.14,8.06l1.25,8.89.77,5.47c.37,2.77.75,5.55,1.12,8.3.31,2.13.72,4.21,1.06,6.32.07.47.16.92.22,1.4.21,1.74.08,2.32-.52,2.75a2.79,2.79,0,0,1-.42.28c-.47.2-.94-.47-1.2-1.72-.77-3.73-1.32-7.66-1.89-11.62L360,210Z"/><path class="cls-1" d="M279.24,213c-.28.26-.57-.15-.87-1a3,3,0,0,1-.09-1.22,4.18,4.18,0,0,1,.43-.64c.09-.08,1.67-.69,2.23-.95a5.67,5.67,0,0,1,1.66-.4,32.22,32.22,0,0,1,3.61-.23,2.22,2.22,0,0,1,.83.16,20.34,20.34,0,0,0,2.89.71.83.83,0,0,0,.54,0,3.82,3.82,0,0,1,1.71.45,5.43,5.43,0,0,1,1.58,1,12.73,12.73,0,0,1,1.53,2.5c0,.13.16.21.09.41a.88.88,0,0,0,.13.87,3.09,3.09,0,0,1,.24,1.09,2.23,2.23,0,0,1-.21.65c-.08.2-.58.33-.66.31s-.39.15-.58.24l-.2.1a7.43,7.43,0,0,1-1-.41c-.42-.24-.95-.32-1-.4l-.24-.23c-.14-.13-.37-.24-.57-.39a4,4,0,0,0-.63-.31c-.18-.09-.3-.17-.36-.16s-.16-.15-.22-.26a6.71,6.71,0,0,0-1.59-.36c-.29-.15-.65-.06-.93-.48-.05-.08-.12-.08-.19-.09-.62,0-1.23-.27-1.9-.39a6,6,0,0,0-1,0c-.06,0-.12-.05-.19-.08a.55.55,0,0,0-.24-.07,13.33,13.33,0,0,0-2.59.12c-.19,0-1.21-.29-1.45-.21S279.35,212.89,279.24,213Z"/><path class="cls-1" d="M270.71,208.5c.4.1.35.63-.08,1.26a3,3,0,0,1-.84.66l-.65.13a8.45,8.45,0,0,0-1.7-.27,3.79,3.79,0,0,1-1.26-.22,18.57,18.57,0,0,0-2.69-.51,1.78,1.78,0,0,1-.62-.19,4.39,4.39,0,0,0-2.17-.38c-.13,0-.25,0-.38.1a7.28,7.28,0,0,1-2.47.08,18,18,0,0,0-2-.56c-.1,0-.2,0-.29-.13-.22-.36-.42-.28-.63-.3a4.19,4.19,0,0,1-.85-.14,1.6,1.6,0,0,1-.47-.36c-.15-.13-.15-.65-.12-.71s0-.4-.07-.61a1.11,1.11,0,0,1,0-.23,8.33,8.33,0,0,1,1.87-1.29c.05-.05,2.64-.43,2.94-.47a.8.8,0,0,1,.47.1c.07,0,2.16-.19,2.25-.16.43.07.88,0,1.28.34a.36.36,0,0,0,.26.07,9.67,9.67,0,0,1,2.22.47c.37.12.76.13,1.14.23a1.06,1.06,0,0,1,.2.12.8.8,0,0,0,.24.13,27.83,27.83,0,0,1,2.74.94c.23.09,1,.92,1.28,1.09S270.57,208.47,270.71,208.5Z"/><path class="cls-1" d="M288.77,193.12a9.13,9.13,0,0,1,.81-4.88c.54-1.2,1.95-3.85,3.62-3.05.43.21,2-.46,1.4-.76-1.8-.86-3.83.14-5.09,1.48a9.85,9.85,0,0,0-2.48,7.67c.06.47,1.81.1,1.74-.46Z"/><path class="cls-1" d="M286.32,189.54c1.34-4.32,2.53-7.78-1.09-11.32-.41-.4-2,.24-1.63.65,3.52,3.45,2.28,6.77,1,10.91-.17.55,1.56.31,1.73-.24Z"/><path class="cls-1" d="M286.53,189.72c-7.8,7.9-30.26,22.89-41.58,22.6-6.64-.17-14-2.68-17.48-8.54-4.06-6.76-4.3-18.74,2.8-25.47C249.39,160.17,279.43,181.46,286.53,189.72Z"/><path class="cls-1" d="M315.51,219.85c-11.07,6.08-26.48-18.12-26.34-24.11-.49-4.85,20.2-8.8,30.06,9.16C321.54,209.1,320.48,217.13,315.51,219.85Z"/><path class="cls-1" d="M186.45,403.73l11.44,1.66,4.18.55,4.26.66,8.93-4.47c2-1,3.9-2,5.82-3.08,2.46-1.34,4.88-2.77,7.45-3.9,1.61-.7.49,1.93-2.36,3.44-5,2.7-10.14,5.29-15.36,7.75l-1.95,1-2.2,1.13-6.43-.87-11.52-1.65-7.09-1c-3.58-.48-7.18-1-10.74-1.35-2.78-.3-5.51-.47-8.25-.65l-1.8-.1a15.27,15.27,0,0,1-2.37-.27,1.85,1.85,0,0,1-1-.51,2.21,2.21,0,0,1-.34-.35c-.13-.19,0-.36.47-.5a5.21,5.21,0,0,1,.84-.18c.32,0,.7,0,1.12,0a145.93,145.93,0,0,1,15.36,1.21c3.85.47,7.71,1,11.57,1.5Z"/><path class="cls-1" d="M277.5,307.49a1,1,0,0,1-1.07.15,1.12,1.12,0,0,1-.73-1.29,1.44,1.44,0,0,1,1.22-1.32h.14a1.39,1.39,0,0,1,.3,0,.83.83,0,0,1,.6.68A1.92,1.92,0,0,1,277.5,307.49Z"/><path class="cls-1" d="M250.4,408.14c-2-.27-4-.6-6-1-.72-.15-1.46-.24-2.19-.4-1.27-.28-2.54-.63-3.8-1s-2.52-.72-3.75-1.19-2.21-.72-3.29-1.14a16.57,16.57,0,0,1-4.07-1.84c-.77-.51,1.13-1.6,2.58-.92,2.66,1.14,5.37,2.2,8.19,3.15a19,19,0,0,0,2.61.72c.89.21,1.8.38,2.69.54s2,.4,3,.55,2,.33,3,.46c1.22.18,2.46.31,3.69.43,1.87.18,3.76.33,5.62.36,1.45,0,2.88-.09,4.31-.18.32,0,.62-.05.94-.06,1.18-.05,1.57.07,1.83.57a2.6,2.6,0,0,1,.16.34c.11.38-.35.7-1.22.83a43.31,43.31,0,0,1-8.09.26c-2-.08-4.09-.28-6.13-.5Z"/><path class="cls-1" d="M293.28,407.3l-5.06-.16c-.61,0-1.23,0-1.85,0l-6.53-.25c-1,0-1.93,0-2.89,0a21.77,21.77,0,0,1-3.7,0c-.76-.1.21-1.65,1.63-1.67,2.51,0,5,.05,7.56.27,1.51.13,3.09.06,4.64.09l5.12.13c.52,0,1,0,1.62.08a14.23,14.23,0,0,1,1.61.27,26.53,26.53,0,0,1,4.63,1.47,33.35,33.35,0,0,1,3.4,1.53l.72.4c.87.55,1.05.87,1,1.32a2.61,2.61,0,0,1-.06.32c-.13.32-.62.29-1.24-.05a43.16,43.16,0,0,0-5.9-2.64,20,20,0,0,0-4.67-1.05Z"/><path class="cls-1" d="M369.69,422.37a23.16,23.16,0,0,1,3.94,1.47c.46.2.92.37,1.37.59,1.56.78,3.07,1.62,4.57,2.47.67.38,1.36.73,2,1.07a10.19,10.19,0,0,1,2.55,1.52c.24.23,0,.53-.48.73a1.67,1.67,0,0,1-1.48,0c-1.69-.95-3.41-1.92-5.09-3a30.68,30.68,0,0,0-3.25-1.61,35.65,35.65,0,0,0-3.66-1.5c-.7-.23-1.59-.37-2.4-.63a29.11,29.11,0,0,1-3.58-1.38c-.9-.4-1.81-.75-2.69-1.19-.19-.1-.39-.18-.58-.29-.7-.4-.85-.65-.75-1.1a1.47,1.47,0,0,1,.08-.3c.13-.31.53-.35,1.06-.13,1.55.65,3.1,1.44,4.71,2.08a20.54,20.54,0,0,0,3.65,1.13Z"/><path class="cls-1" d="M401.7,422.51,398,424.44c-.44.24-.86.52-1.31.76L392,427.7c-.69.38-1.37.8-2,1.22a15.52,15.52,0,0,1-2.6,1.55c-.59.23-.72-1.51.27-2.12a48.38,48.38,0,0,1,5.45-3c1.13-.52,2.21-1.24,3.32-1.85l3.69-2,2.28-1.21,3.45-1.83c.87-.5,1.7-1,2.58-1.55l.57-.34c.75-.37,1.08-.36,1.38,0,.07.08.15.15.21.23.18.28,0,.67-.51,1-1.44,1-3.05,1.88-4.69,2.77l-3.67,2Z"/><path class="cls-1" d="M307.8,411.64c-1.35-.74-2.69-1.49-4-2.32-.72-.46-1.26-.84-1.91-1.21s-1.29-.69-2-1c-1-.45-2-.81-3-1.16-.45-.16-.91-.31-1.36-.45a12.12,12.12,0,0,0-1.25-.3l-2.91-.08-5.91-.14c-1.75,0-3.51,0-5.24,0a62.39,62.39,0,0,1-6.7,0c-1.39-.13.37-1.93,2.94-2,4.56,0,9.11.05,13.69.31,1.4.08,2.73.08,4.23.11a7.75,7.75,0,0,1,1.2.21l1.06.29c.7.21,1.38.44,2.05.7a29.12,29.12,0,0,1,4.31,2c.35.19.69.41,1,.63s.61.41.95.61c.64.39,1.31.77,2,1.15q2.47,1.38,5,2.67l1.24.62c.36.18.73.36,1.12.53l.59.25.3.1c.09,0,.28,0,.17-.08a7.08,7.08,0,0,0-.81-.94c-.43-.44-.91-.86-1.31-1.2s-1.58-1.43-2.05-1.83l-.23-.06c-.47-.16-.94-.29-1.4-.47-1.72-.67-2.23-1.13-2.32-1.76a1.57,1.57,0,0,1,0-.42c.1-.41.79-.29,2,.12l1.35.45,1.64.51,1.87,1.69.48.44.79.77c.54.53,1.08,1.07,1.59,1.6a15.61,15.61,0,0,1,1.35,1.53,2,2,0,0,1,.47,1,.61.61,0,0,1-.23.49l-.09.1-.07.08,0,0h0c-.15-.1.2.14.16.12h0l0,0a1.68,1.68,0,0,1-.17.26,1,1,0,0,1-.7.17h-.36l-.19-.05-.75-.18-.39-.1-.49-.22-1-.42c-.65-.27-1.37-.64-2.05-.95l-.9-.44-.53-.26-1-.53-2.07-1.08Z"/><path class="cls-1" d="M318.46,408.67l1.66,1.67a23.29,23.29,0,0,1,2.27,2.53,1.9,1.9,0,0,1,.27.82.71.71,0,0,1,0,.37,2.12,2.12,0,0,1-.34.27.82.82,0,0,1-.39.17,5.14,5.14,0,0,1-1.94-.07c-.37-.11-.73-.19-1.09-.31l-.43-.19-.33-.15a22.63,22.63,0,0,1-2.49-1.47l-2.25-1.49a15.33,15.33,0,0,1-2.7-2.09c-.5-.51,1.16-1.18,2.19-.4,1.83,1.36,3.62,2.73,5.51,3.88a4.17,4.17,0,0,0,.66.35l.19.1.12,0a1.52,1.52,0,0,0,.51.09l.18,0h.09s0-.06,0-.08a3.57,3.57,0,0,0-.46-.6l-.08-.1-.21-.2-.4-.42-.83-.82c-.69-.68-1.38-1.35-2.08-2l-1.58-1.47-.79-.72-.74-.64h0l-1.56-.47c-.54-.16-1.08-.32-1.62-.51-.24-.09-.48-.16-.71-.26-.87-.38-1.1-.65-1.06-1.12a1.55,1.55,0,0,1,0-.31c.11-.33.54-.37,1.15-.17l4.59,1.46,1.29,1.11c1.18,1,2.33,2.12,3.48,3.2Z"/><path class="cls-1" d="M325.05,411.15a1.87,1.87,0,0,1-.16,1,1,1,0,0,1-.33.39,1,1,0,0,1-.43.18l-.34.07a3.31,3.31,0,0,1-.44,0,10.13,10.13,0,0,1-2.24-.7,6.91,6.91,0,0,0-.81-.24,1.63,1.63,0,0,1-1-.49c-.08-.11.17-.45.44-.75s.57-.59.71-.54a10.52,10.52,0,0,1,1.75.83,1.51,1.51,0,0,0,.29.13l.19.06a.86.86,0,0,1,.21,0h0a.56.56,0,0,0,.29.05.21.21,0,0,0,.11-.22.93.93,0,0,0-.06-.39,2.8,2.8,0,0,0-.22-.47,2.65,2.65,0,0,0-1.11-1.15c-.05,0-.12-.08-.17-.13-.21-.17-.18-.3.08-.64L322,408a.65.65,0,0,1,.71-.26,3.55,3.55,0,0,1,1.53,1.4c.08.11.14.23.21.34s.1.2.24.46a5.07,5.07,0,0,1,.41,1.27Z"/><path class="cls-1" d="M121.41,416.33a92,92,0,0,1-14.12,9.05c-1.83.9-3.61,1.91-5.48,2.7a111.55,111.55,0,0,1-20.39,6.68l-4.65,1c-1.55.33-3.12.57-4.66.86a78.84,78.84,0,0,1-12,1.37c-2.52.06.53-2.25,5.06-2.68A156.17,156.17,0,0,0,89,430.66a90.7,90.7,0,0,0,14-5.44,93.08,93.08,0,0,0,14.22-8.38,86.79,86.79,0,0,0,7.89-6.43,68,68,0,0,0,10.06-11.6,42.57,42.57,0,0,0,5.12-10.45c.11-.41.23-.81.34-1.21s.19-.81.28-1.22c.18-.75.24-1.38.34-1.9s.12-.94.16-1.28a3.72,3.72,0,0,1,.15-.85,3.36,3.36,0,0,1,.23-.61,4.9,4.9,0,0,1,.26-.56c.17-.22.42-.05.74.56a6.43,6.43,0,0,1,.44,2.94A28.4,28.4,0,0,1,139.87,395a55.18,55.18,0,0,1-6.28,9.52,78.45,78.45,0,0,1-12.14,11.89Z"/><path class="cls-1" d="M306.29,437.34c-10.28-.43-20.56-.87-30.84-1.12-5.13-.14-10.26-.15-15.42-.14l-15.44,0-22.52.07H162.51c-6.63,0-13.22-.07-19.82.18-11.73.39-23.52,1-35.17,1.56-7.48.33-15,.65-22.5.77-3.75.05-7.51.06-11.27-.05a70.81,70.81,0,0,1-11.3-1.06,9.24,9.24,0,0,1-2.52-.85c-.52-.33-.69-.52-.61-.58a2.08,2.08,0,0,1,1,.14c.55.08,1.31.21,2.29.28,3.9.34,11.12.17,19.71.1,15.24-.16,30.51-1,45.81-1.61,7.66-.32,15.31-.67,23-.72l23.08.08c18.44.08,37.63-.07,56.49-.1l31.11,0c10.38-.08,20.76.31,31.13.69l38.26,1.59c19.31.8,38.71,1.58,57.88,1.79,7.46.08,14.84.05,22.18-.18a155.58,155.58,0,0,0,21.85-1.86l2.29-.54.92-.31c.29-.11.68-.21.71-.29s.06-.28,0-.4l-.16-.23c-.09-.13-.21-.27-.33-.41a18.25,18.25,0,0,0-1.67-1.6c-2.27-1.91-4.34-3.34-6.05-4.56l-4.25-3a29.63,29.63,0,0,1-4.45-3.66A9.07,9.07,0,0,1,419,420c-.26-.53.43,0,2.32,1.13s4.82,2.94,8.52,5.44c1.37.93,2.74,1.88,4.09,2.88a29.71,29.71,0,0,1,3.92,3.37,6,6,0,0,1,1,1.35,2,2,0,0,1,0,2,2.11,2.11,0,0,1-.35.38,1,1,0,0,1-.4.23l-.72.27-1.47.54-2.54.59-2.54.43a184.14,184.14,0,0,1-20.5,1.46c-13.77.34-27.71.09-41.67-.28-20.73-.57-41.54-1.53-62.29-2.38Z"/><path class="cls-1" d="M185.91,373.41a2.87,2.87,0,0,1,1.92,2.64c0,.37-.54.9-.84.8-.58-.2-1.17-.35-1.75-.49a16.3,16.3,0,0,0-3.17-1,24.92,24.92,0,0,0-4.58-.6c-1.92-.06-3.85-.13-5.82-.14a108.79,108.79,0,0,0-12.16.68c-.91.09-1.82.14-2.74.15a73.15,73.15,0,0,0-9.43.88,6.3,6.3,0,0,0-1.55.33,44.33,44.33,0,0,1-5.15.82c-2.39.31-4.87.46-5.44.45-2.84-.08-5.7-.11-8.61-.48a3.65,3.65,0,0,1-1.24-.24,10.36,10.36,0,0,0-2.66-.76,8.82,8.82,0,0,1-3.65-1.81,4.56,4.56,0,0,1-1.07-1.85c-.19-.6.42-.52.55-.41.41.36.38-.14.54-.27a.41.41,0,0,1,.18-.12,7.51,7.51,0,0,0,.73.5,8,8,0,0,0,1.9.57,29.11,29.11,0,0,0,3.62.18s.64.05,1.56.05,2.15,0,3.43-.13c2.56-.18,5.26-.56,5.81-.65a10.33,10.33,0,0,1,1.76-.07c.26,0,8.09-1.21,8.42-1.26a26.33,26.33,0,0,1,4.94-.37,4.76,4.76,0,0,0,1-.07c2.82-.4,5.68-.58,8.55-.74l4.41-.32c.27,0,.54,0,.81,0s.67,0,1,0a74.87,74.87,0,0,1,10.65.37,19.82,19.82,0,0,1,2.79.66c1.19.36,2.38.82,2.85,1S185.47,373.23,185.91,373.41Z"/></g></svg>