<svg id="Layer_1" data-name="Layer 1" xmlns="http://www.w3.org/2000/svg" width="520" height="520" viewBox="0 0 520 520"><defs><style>.cls-1{fill:#221f1f;}</style></defs><title>Notioly v2</title><g id="_28.Download" data-name="28.Download"><path class="cls-1" d="M325.48,153.14c-.09-.13,0-.19.31-.38.08-.06.35-.16.4-.12a1.68,1.68,0,0,1,.27.26,8.52,8.52,0,0,1,.33,1.17,3.17,3.17,0,0,1,.09.8,14.35,14.35,0,0,1-.06,1.61,1.05,1.05,0,0,1-.08.35,4.47,4.47,0,0,0-.23,1.2.26.26,0,0,0,0,.21,4.1,4.1,0,0,1-.21,1.36c-.19.39-.34.67-.5,1,0,.05,0,.11-.1.13s-.19.18-.23.28a1.54,1.54,0,0,1-.26.42.46.46,0,0,1-.27.13.3.3,0,0,1-.26-.12c0-.09-.15-.08-.22-.11l-.08,0c-.06,0-.07-.25-.09-.47a4.37,4.37,0,0,1,0-.51s.06-.3.11-.6.09-.64.09-.71,0-.13.08-.2.06-1,.07-1c.05-.19,0-.39.17-.57a.18.18,0,0,0,0-.12,9.09,9.09,0,0,1,.18-1,4.55,4.55,0,0,0,0-.52s0-.06,0-.09a.53.53,0,0,0,0-.12,8.75,8.75,0,0,0,.1-1.24c0-.09.15-.54.12-.64S325.52,153.19,325.48,153.14Z"/><path class="cls-1" d="M321.56,388.14c-4.31-.4-8.42,2.84-12.47,1.26,2.67,5.5,13.16,86,14,91.71C316.76,485,299.35,493,300.5,494.16c1.91,1.89,23.75-5.65,27.33-6.53a39,39,0,0,0,.29,6.71c.81,0,1.26.23,2.08.24C329.84,487.25,325.88,401.7,321.56,388.14Z"/><path class="cls-1" d="M329.73,495.89a4,4,0,0,1-.51-.06l-.6-.1c-.53-.08-1.11-.09-1.65-.14l-.23-1.58-.08-.74-.05-.45c0-.59-.07-1.18-.08-1.76v-1.71l-.12,0-.22.06-2,.61-4,1.22c-2.7.81-5.4,1.61-8.13,2.35-1.37.37-2.74.72-4.12,1-.7.16-1.4.32-2.1.46l-.54.1-.92.15c-.62.13-1.2.15-1.79.22a4.49,4.49,0,0,1-2.48-.42,1.3,1.3,0,0,1-.71-.71,1.36,1.36,0,0,1,.12-.9,4.64,4.64,0,0,1,1.86-1.86c.49-.33,1-.65,1.55-1l1.18-.68c4.52-2.51,9.09-4.82,13.6-7.2,1-.52,2-1.05,3-1.59l1.13-.65.1-.05s0-.07,0-.11l-.05-.41-.85-6.71-1.72-13.43q-1.72-13.42-3.56-26.84c-1.1-7.93-2.29-15.89-3.56-23.73q-.81-5-1.72-10c-.3-1.66-.61-3.32-1-5-.17-.83-.35-1.65-.54-2.45-.27-1.19-.89-2.77-1.23-3.9l1.09.34,1.16.35.3.08.24,0,.49.07c.15,0,.35.06.46.06h.29a11.93,11.93,0,0,0,2.39-.33,51.26,51.26,0,0,1,5.11-1.16c1.54-.18,2.31.09,2.37.26s-.52.34-1.5.66-2.34.88-4.11,1.61a17.2,17.2,0,0,1-3.12,1,7.24,7.24,0,0,1-.95.14l-.67.06c-.11,0-.12,0-.13,0v0l.06.07h0l.16.66c1.14,5.19,1.95,10.32,2.79,15.49s1.58,10.33,2.31,15.5q2.19,15.53,4.1,31.17c.76,6.24,1.6,12.6,2.45,19,.21,1.6.43,3.2.64,4.8l.35,2.6.13,1c0,.1,0,.14-.12.18l-.21.13-.44.27-1.31.77c-2.84,1.61-5.71,3.08-8.57,4.56l-4.7,2.44-2.33,1.25-2,1.13c-.28.16-.56.33-.83.52a1.22,1.22,0,0,0-.35.33c0,.18.23.19.37.21a5.36,5.36,0,0,0,1-.08l.26,0,.48-.09,1.28-.27c3.4-.76,6.8-1.73,10.18-2.72l5.07-1.53,2.54-.78,1.28-.38c.58-.18,1.29-.38,1.92-.55.36-.09.74-.2,1.09-.27l0,2.61V491c0,.55,0,1.09.08,1.63l.06.63a1.12,1.12,0,0,0,.07.38l.48.06a4.76,4.76,0,0,0,.89.1l-.78.81q-.37-8.28-.77-16.56c-.65-13.16-1.36-26.39-2.28-39.44-.72-10.14-1.62-20.07-2.7-30.05-.26-2.19-.51-4.34-.77-6.55-.53-4.08-.87-6.76-1.11-8.66a25.48,25.48,0,0,1-.23-3.89,11.86,11.86,0,0,1,.11-1.25c.17-.94,1.58,2.33,2.55,8.36,1.4,8.93,2.32,18.14,3.12,27.48s1.45,18.83,2,28.33c.86,14,1.55,28.08,2.2,42.12l.07,1.49-1.47,0-.44,0Z"/><path class="cls-1" d="M348.45,381.33c-3.47.7-9.88,3-13.26,4.05-2.34.71,14.39,58.27,21.15,82.35a123.94,123.94,0,0,1,4.38,22.85c2,.05,1.66.33,3.52-.12,0-1.88-.92-5-.73-7.14,2.53,1.41,21.8,10.42,21.8,7.21,0,0-15.08-8.83-19.37-12.06C365.13,473.41,348.51,385.9,348.45,381.33Z"/><path class="cls-1" d="M374.62,482.54l3.9,2.41,5.86,3.54,1.84,1.1a2.36,2.36,0,0,1,.2.13v.54a4.13,4.13,0,0,0,.08.47l0,.18s0,0,0,0l0,.09,0,.16a1.14,1.14,0,0,1-.13.3,2.16,2.16,0,0,1-1.54.88,8,8,0,0,1-2.78-.21A34,34,0,0,1,378.2,491l-.71-.26-.55-.2-1.09-.41q-2.18-.86-4.3-1.78c-1.42-.61-2.82-1.25-4.22-1.9l-2.06-1-.48-.25c-.07-.06,0,.07-.05.09v.16a3.66,3.66,0,0,0,0,.37l.42,2.77c0,.2.1.83.13,1.28s0,.95.05,1.43l-1.48.34c-.25.05-.5.09-.76.12a4.33,4.33,0,0,1-.7,0l-1.16-.1-1.57-.06-.36-3.5c-.1-.84-.2-1.69-.32-2.53-.23-1.68-.5-3.36-.8-5-.79-4.45-1.84-8.84-3.05-13.21l-3.64-13.18-7.24-26.35c-2.11-7.81-4.27-15.65-6.29-23.42-1.28-5-2.61-10-3.56-15.13-.12-.65-.22-1.3-.29-2a9.24,9.24,0,0,1-.06-1.21,1.78,1.78,0,0,1,.45-1.35l.67-.29.34-.14.3-.1.91-.29,1.84-.59c2.46-.79,4.92-1.58,7.45-2.22,1.58-.4,2.33-.37,2.32-.16s-.73.62-2,1.23-3,1.42-5.13,2.34c-1.07.45-2.25.93-3.51,1.42l-1,.35-.25.09-.13.05h0v0s0-.08,0,.14a4.28,4.28,0,0,0,.05.49c.31,2.46.9,5.05,1.47,7.58s1.2,5.1,1.84,7.65q1.92,7.63,4,15.27,4.1,15.25,8.21,30.61c1.64,6.13,3.4,12.37,5.16,18.64a131.12,131.12,0,0,1,4.08,19.24l.25,2.19.14,1.35c.22,0,.27,0,.94.08a1.89,1.89,0,0,0,.67-.08c0-.11,0-.21,0-.32l-.07-.59-.28-1.81-.15-1c-.05-.45-.1-1-.12-1.44s0-.93,0-1.38l0-.69,0-.36a.56.56,0,0,1,.08-.22c1.64.91,3.68,1.91,4.42,2.25l3.11,1.43c2.09.94,4.19,1.84,6.31,2.66l1.59.61,1,.34a13.08,13.08,0,0,0,1.43.4,2.83,2.83,0,0,0,.77.07.47.47,0,0,0,.33-.17c.09-.15-.11-.17-.19-.24l-1.27-.77-4.41-2.69c-1.87-1.16-3.74-2.32-5.6-3.51-.92-.6-1.85-1.2-2.76-1.82-.46-.32-.92-.62-1.37-1l-.48-.34-.25-.19c-.09-.05-.05-.19-.09-.28l-.18-1-1.16-6.48-7.22-39.21c-1.93-10.09-3.82-20-5.73-29.94-.42-2.2-.82-4.35-1.24-6.57-1.48-8.22-1.74-10.89-1.4-12.77a8.67,8.67,0,0,1,.25-1.21c.18-.4.45.25.78,1.66s.86,3.79,1.45,6.79c3.45,17.8,7,36.59,10.53,55.48q1.94,10.51,3.89,21.08L367.12,477l.11.63a0,0,0,0,0,0,0l.16.12.53.37c.72.5,1.46,1,2.19,1.47,1.49,1,3,1.92,4.51,2.86Z"/><path class="cls-1" d="M344.18,110.66c-42.82-33.19-77.3,10-61.51,22.23-13.08,19.18-11.05,43.93-5.1,51.37,15.79,19.74,40.87,5.56,44.31,6.09,16.72,2.6,28.95,5.27,38.52-7.3C370.18,170.21,382.62,98.52,344.18,110.66Zm-8.45,42.23c-2,6.89-7.51,6.15-9.74,4.58-1.26,1.42-13.51,35.42-30.51,24-13.65-9.15-2.66-40.38-3-44.49,4.22-3.48,12.78-11.91,21.68-8.79,5.86,2.05,5.91,22,15.23,19.19C332.91,144.08,337,148.53,335.73,152.89Z"/><path class="cls-1" d="M293.58,139.4c-.86,4.25-1.88,8.3-2.59,12.46a73.11,73.11,0,0,0-1.25,12.47,31,31,0,0,0,1.21,8.85,17.56,17.56,0,0,0,1.49,3.54,13.1,13.1,0,0,0,2.35,2.94,12.74,12.74,0,0,0,6.74,3.18,11.23,11.23,0,0,0,7.2-1.88,25.2,25.2,0,0,0,5.86-5.31,60.68,60.68,0,0,0,7.57-12.16c.53-1.07,1-2.16,1.54-3.26l.75-1.65c.05-.11.17-.37.28-.57l.32-.63.36-.57c.13-.18.25-.42.4-.48.32.21.65.41,1,.6a5.12,5.12,0,0,0,.52.27l.35.13a6.84,6.84,0,0,0,1.19.27,5.25,5.25,0,0,0,2.37-.26,6.21,6.21,0,0,0,3.34-3.46c.65-1.65,1.14-1.38,1.09.4a6.48,6.48,0,0,1-1.41,3.47,6.14,6.14,0,0,1-2.19,1.68A6.5,6.5,0,0,1,329,160a8,8,0,0,1-1.88-.35l-.46-.16,0,0h0l-.21.45-.93,2q-.93,2-2,3.93a70.58,70.58,0,0,1-4.54,7.6,39.83,39.83,0,0,1-5.84,6.84,17.62,17.62,0,0,1-8.12,4.43,12.11,12.11,0,0,1-6.23-.4,9.53,9.53,0,0,1-1.45-.58l-.71-.32L296,183a14.47,14.47,0,0,1-2.55-1.82,15.12,15.12,0,0,1-3.62-5.07,22.37,22.37,0,0,1-1.68-5.86,50,50,0,0,1,0-13.05,128.78,128.78,0,0,1,2.24-12.73l.84-3.85c.14-.64.27-1.28.38-1.91.05-.31.11-.64.14-.93l0-.23c0-.16,0-.26,0-.39v-.38a.28.28,0,0,1,0-.09l.07-.06.14-.12,3.23-2.68c1-.85,2.1-1.65,3.18-2.43a29.66,29.66,0,0,1,5.33-3,16.78,16.78,0,0,1,6-1.41,13,13,0,0,1,3.12.28l1.52.42a4.5,4.5,0,0,1,1.47.91,9.74,9.74,0,0,1,1.89,2.56,28.49,28.49,0,0,1,1.26,2.77c1.17,2.88,2.1,5.79,3.45,8.42a11.51,11.51,0,0,0,2.47,3.43,4.73,4.73,0,0,0,1.65.94,4.59,4.59,0,0,0,1.85.07l.42-.11c.1,0,.15,0,.2-.08s0,0,.08-.08l.23-.19a2.51,2.51,0,0,1,.49-.34,4,4,0,0,1,2.46-.63,4.31,4.31,0,0,1,2.09.74,6,6,0,0,1,1.24,1.23,5.82,5.82,0,0,1,1,2.3,3.48,3.48,0,0,1-.42,2.6,3.69,3.69,0,0,1-.53.63c-.28.17-.34-.27-.41-1.08a6.07,6.07,0,0,0-1.22-3.26,3.33,3.33,0,0,0-1.19-.92,2.11,2.11,0,0,0-1.29-.07l-.31.11c-.11,0-.21.13-.32.18a1.21,1.21,0,0,0-.3.22l-.15.13-.35.29a1.33,1.33,0,0,1-.19.14l-.23.05-.4.11a5.82,5.82,0,0,1-.6.14,6.77,6.77,0,0,1-1.28.09,6.43,6.43,0,0,1-4.56-2.22,15.9,15.9,0,0,1-2.51-3.87c-1.29-2.68-2.18-5.43-3.22-8a21.12,21.12,0,0,0-1.75-3.6,5.86,5.86,0,0,0-1.09-1.27l-.28-.19-.27-.12c-.25-.09-.6-.17-.89-.25-3.65-1-7.64.26-11.12,2.35a42.5,42.5,0,0,0-5.06,3.61c-.82.66-1.63,1.36-2.45,2.05l-.33.27s0,.05,0,0c-.05.57-.15,1.17-.25,1.71Z"/><path class="cls-1" d="M328.8,192.77l-6.2-1-.77-.13h-.14c0,.05.07-.53,0-.25v.06l0,.12c0,.12,0,.05,0,.07h0s-.12,0-.21,0a11.35,11.35,0,0,0-1.34.31c-1,.27-2,.58-3,.89a68.49,68.49,0,0,1-12.4,2.83,35.52,35.52,0,0,1-12.86-.68,27.13,27.13,0,0,1-11.4-6.11,29.25,29.25,0,0,1-3.28-3.4,15.73,15.73,0,0,1-1.44-2c-.45-.7-.74-1.44-1.11-2.16a35,35,0,0,1-2.34-9.11,60,60,0,0,1,5.14-31.93c.57-1.24,1.25-2.43,1.87-3.64a17.3,17.3,0,0,1,1-1.76l1-1.58c.05-.09.17-.22.17-.32l-.3-.28-.34-.32a1.8,1.8,0,0,1-.36-.41l-.65-.87c-.11-.15-.23-.3-.32-.45l-.25-.49-.48-1a19.83,19.83,0,0,1-.63-2.08,16.09,16.09,0,0,1,.86-8.35,25.75,25.75,0,0,1,4-7.21,37.27,37.27,0,0,1,24.85-13.74,42.72,42.72,0,0,1,18.34,2,57,57,0,0,1,16.23,8.65c3.06,2.3,2.27,2.42-.62,1a131.33,131.33,0,0,0-14.33-6.7L325.4,102c-.35-.12-.7-.26-1.06-.36l-1.09-.29-2.18-.56c-.73-.15-1.47-.26-2.21-.4a41.22,41.22,0,0,0-4.45-.51c-.74,0-1.49,0-2.23,0h-1.12l-1.12.08a34.71,34.71,0,0,0-8.75,1.66,33.43,33.43,0,0,0-8.08,3.77,30.12,30.12,0,0,0-11.7,13.08,15,15,0,0,0-1.19,8.38l.28,1c.05.17.09.34.15.5l.23.46c.15.3.28.62.45.92l.61.82a4.4,4.4,0,0,0,.31.41l.43.4.73.69c.23.24.57.46.7.72l-1.74,2.74a54.53,54.53,0,0,0-7.71,20.81,57.52,57.52,0,0,0-.65,11.28,40.68,40.68,0,0,0,1.82,11,17.19,17.19,0,0,0,2.68,5.28,31.84,31.84,0,0,0,4.29,4.32,25.19,25.19,0,0,0,10.92,5.1,35.12,35.12,0,0,0,12.23.13A79.87,79.87,0,0,0,318,190.38c.63-.19,1.25-.38,1.9-.55.32-.08.66-.16,1-.22a4.89,4.89,0,0,1,.59-.06,3.42,3.42,0,0,1,.62,0l3.84.62c2.55.41,5.09.79,7.64,1.11a65.41,65.41,0,0,0,7.64.47,28.12,28.12,0,0,0,7.45-1.08,21,21,0,0,0,9.46-6.08c.61-.74,1.25-1.46,1.83-2.21A17.83,17.83,0,0,0,361.5,180a44,44,0,0,0,2.29-5.31A104.57,104.57,0,0,0,369,152a91,91,0,0,0,.5-17.82,53.69,53.69,0,0,0-1.38-8.69,29.28,29.28,0,0,0-3.21-8,15.32,15.32,0,0,0-5.13-5.24,13.69,13.69,0,0,0-5.44-1.86,21.11,21.11,0,0,0-4-.13c-2.19.12-3.47.29-4.56.27-.49,0-1.13.06-1.44,0-.52-.07.14-.51,1.87-1.13a20.39,20.39,0,0,1,3.41-.84,18.62,18.62,0,0,1,5-.16,15.28,15.28,0,0,1,7.95,3.16,19.46,19.46,0,0,1,5.29,6.8c2.51,5.18,3.47,10.88,3.85,16.52a94.87,94.87,0,0,1-.56,17,117,117,0,0,1-3.22,16.83,65.49,65.49,0,0,1-4.41,12.11,20.88,20.88,0,0,1-1.76,2.89c-.7.89-1.4,1.71-2.13,2.55a23.72,23.72,0,0,1-17.95,7.64,78.43,78.43,0,0,1-12.81-1.09Z"/><path class="cls-1" d="M321,255.36c2.19-5.1,4.28-10.25,6.18-15.46a146.08,146.08,0,0,0,4.9-15.83,59.75,59.75,0,0,0,1.09-5.89,29.51,29.51,0,0,0,.26-5.84,12.09,12.09,0,0,0-.4-2.43,6.42,6.42,0,0,0-.4-1.09,12,12,0,0,0-.6-1.09,14,14,0,0,0-3.13-3.87,8.77,8.77,0,0,0-4.35-2,13.05,13.05,0,0,0-5,.27,45.24,45.24,0,0,0-9.72,4c-1.6.81-3.19,1.63-4.83,2.41a28.78,28.78,0,0,1-5.16,2,10.17,10.17,0,0,1-2.54.34,6.71,6.71,0,0,1-1.33-.09c-.43-.07-.84-.23-1.26-.34a9.82,9.82,0,0,1-4.22-2.87c-2.23-2.54-3.42-5.58-5.33-7.9a8.18,8.18,0,0,0-4.52-3,6.26,6.26,0,0,0-5.13.89,16.07,16.07,0,0,0-3.95,4.13c-1.15,1.61-2.18,3.34-3.32,5-1.45,2.13-1.7,1.5-1-.57a30.29,30.29,0,0,1,1.71-4.16,17.94,17.94,0,0,1,3.95-5.39,10.06,10.06,0,0,1,3.05-1.89,8.42,8.42,0,0,1,1.8-.5,9.78,9.78,0,0,1,1.87-.06,8.29,8.29,0,0,1,1.8.33l.87.26a7,7,0,0,1,.84.38c.27.14.55.27.81.42l.74.53a9.37,9.37,0,0,1,1.34,1.17,27,27,0,0,1,3.71,5.37,17.78,17.78,0,0,0,3.42,4.56,7.23,7.23,0,0,0,2.25,1.25,5.57,5.57,0,0,0,2.49.31,18.79,18.79,0,0,0,5.5-1.73c3.7-1.66,7.35-3.77,11.34-5.33a23.57,23.57,0,0,1,7.66-1.84,12.54,12.54,0,0,1,4.11.54,11.46,11.46,0,0,1,3.67,2,12.59,12.59,0,0,1,1.48,1.44l.68.77.59.83a16.85,16.85,0,0,1,1.07,1.71,8.6,8.6,0,0,1,.89,1.91,20.36,20.36,0,0,1,.5,8,61.84,61.84,0,0,1-1.54,8.4c-.68,2.75-1.47,5.47-2.33,8.16-1.72,5.37-3.71,10.65-5.81,15.87-2.59,6.42-5.38,12.76-8.26,19-4.38,9.52-9.08,18.94-13.85,28.17-3.71,7.18-7.35,14.22-11.28,21.19-.87,1.53-1.71,3-2.62,4.56s-1.56,2.57-2.23,3.55a14.63,14.63,0,0,1-1.91,2.26,8.48,8.48,0,0,1-2.59,1.85,9.22,9.22,0,0,1-.92.41c-.38.12-.19-.46.55-1.42s2-2.31,3.22-4.2c3.61-6.05,7.12-12.51,10.61-19s6.95-13.23,10.31-20c5-10,9.81-20.18,14.18-30.5Z"/><path class="cls-1" d="M290.65,290.37c-1.65,4.15-3.41,8.27-5.29,12.33-.68,1.49-1.34,3-2.07,4.44-1.31,2.57-2.66,5.12-4.14,7.6s-3,4.92-4.74,7.25a63.7,63.7,0,0,1-4.85,6,21.73,21.73,0,0,1-8,5.93c-1,.38-1-.21-.49-1.05a13.44,13.44,0,0,1,3-3,39.13,39.13,0,0,0,6.73-6.7,89.2,89.2,0,0,0,5.71-7.95,95.32,95.32,0,0,0,5.7-10.68c1.93-4,3.72-8.11,5.41-12.25,1-2.55,2-5.11,3-7.69,1.44-3.92,2.84-7.87,4.09-11.82,1-3.07,1.77-6.12,2.62-9.2l.54-2c.74-2.52,1.13-3.28,1.84-3.65a2.59,2.59,0,0,1,.48-.23c.5-.11.52,1,.08,2.88-1.3,5.56-3,11.34-4.94,17.08-1.42,4.27-3,8.51-4.61,12.72Z"/><path class="cls-1" d="M252.76,345.66c0-.21.18-.33.55-.34a1.12,1.12,0,0,1,.49.18c.07.12.14.22.19.32a5.86,5.86,0,0,0,.14,1.13,6.71,6.71,0,0,1,.15.78,6.57,6.57,0,0,0,.49,1.54,1.8,1.8,0,0,1,.12.35,2.23,2.23,0,0,0,.6,1.08.37.37,0,0,0,.17.13,2.51,2.51,0,0,1,.52.4l.51.41a3.41,3.41,0,0,0,.84.66s.1,0,.13.09.19.17.3.21.31.07.47.13.15.13.24.2,0,.28,0,.31,0,.17,0,.26a.34.34,0,0,1,0,.1,2.13,2.13,0,0,1-.61.2,2.42,2.42,0,0,1-.73.06,4,4,0,0,1-.91-.24,9,9,0,0,1-1-.44.84.84,0,0,1-.23-.23,7.82,7.82,0,0,1-1.19-1c-.16-.24-.41-.43-.44-.75a.36.36,0,0,0-.08-.15,4.4,4.4,0,0,1-.61-1.32c-.08-.24-.19-.46-.25-.7a.32.32,0,0,1,0-.14c0-.06,0-.11,0-.17a11.07,11.07,0,0,1-.27-1.74,8.17,8.17,0,0,1,.18-.94C252.5,346,252.76,345.74,252.76,345.66Z"/><path class="cls-1" d="M258.07,344.51c-.05-.21.17-.32.56-.35a1,1,0,0,1,.49.16,2.34,2.34,0,0,1,.18.35,4.65,4.65,0,0,1,0,.56c0,.27,0,.57,0,.74a6.2,6.2,0,0,1,.05.86,5.67,5.67,0,0,0,.3,1.65,2.11,2.11,0,0,1,.09.36,2.06,2.06,0,0,0,.56,1.12c0,.05.08.12.17.12s.28.24.54.41.5.35.55.42a4.11,4.11,0,0,0,.92.65c.05,0,.11,0,.15.09s.21.16.33.2.33.08.5.14a1.07,1.07,0,0,1,.26.19c.08.07,0,.28,0,.31s0,.17,0,.26v.1a2.58,2.58,0,0,1-.63.2,3.48,3.48,0,0,1-.76.08,8.4,8.4,0,0,1-.95-.22l-.67-.25-.38-.19a.86.86,0,0,1-.26-.21l-.66-.47a5,5,0,0,1-.61-.56c-.17-.26-.44-.48-.47-.82a.27.27,0,0,0-.08-.17,4.64,4.64,0,0,1-.55-1.48,6.6,6.6,0,0,1-.17-.77.65.65,0,0,1,0-.14,1.08,1.08,0,0,0,0-.18,7.19,7.19,0,0,1-.05-.92c0-.31,0-.61,0-.92,0-.14.26-.77.26-.92S258.1,344.59,258.07,344.51Z"/><path class="cls-1" d="M264.08,344.25c0-.2.27-.22.6-.13a1,1,0,0,1,.36.3c0,.12.06.24.08.34a6.68,6.68,0,0,0-.15,1.06c0,.24,0,.47-.08.7a4.17,4.17,0,0,0,.05,1.41c0,.11,0,.22,0,.32a1.64,1.64,0,0,0,.33,1c0,.05.06.11.13.13a2,2,0,0,1,.4.38c.19.15.36.34.41.37a2.35,2.35,0,0,0,.69.59s.1,0,.12.07.18.16.28.19.28.05.43.1a1.21,1.21,0,0,1,.23.18.32.32,0,0,1,0,.31c-.07.07,0,.17,0,.27s0,.07,0,.09a2,2,0,0,1-.56.24,1.93,1.93,0,0,1-.7.11l-.29,0c-.16,0-.38-.1-.61-.17a5.86,5.86,0,0,1-1-.45,1.26,1.26,0,0,1-.22-.24,5.37,5.37,0,0,1-1.05-1.08,1.4,1.4,0,0,1-.31-.8.31.31,0,0,0-.06-.16A4.15,4.15,0,0,1,263,348c0-.26,0-.48-.06-.72,0,0,0-.08,0-.13a.42.42,0,0,0,0-.16,7.86,7.86,0,0,1,.26-1.66,1.73,1.73,0,0,1,.21-.4,3.6,3.6,0,0,0,.26-.39C263.72,344.44,264.07,344.32,264.08,344.25Z"/><path class="cls-1" d="M229.52,324.57c0-.19.28-.17.63,0,.11.05.36.3.36.37a2.4,2.4,0,0,1,0,.38c0,.06-.49.84-.63,1.12a4.35,4.35,0,0,1-.49.72,15.94,15.94,0,0,0-1,1.44,1.7,1.7,0,0,1-.23.3,2,2,0,0,0-.55,1c0,.06,0,.07,0,.11s.07,0,.07.08,0,.06.06.08l.22.06c.17,0,.34.05.53.06s.1,0,.16,0,.26.07.37.06a4.38,4.38,0,0,1,.52,0,1,1,0,0,1,.29.1c.09,0,.12.26.1.29s0,.17.07.25l0,.1a4.11,4.11,0,0,1-1,.72,8.55,8.55,0,0,1-.89.19,3.5,3.5,0,0,1-.8,0,3.13,3.13,0,0,1-.6-.14,1.2,1.2,0,0,1-.38-.29,1.79,1.79,0,0,1-.63-1,2.5,2.5,0,0,1-.06-.79,1.87,1.87,0,0,1,.05-.35,1.65,1.65,0,0,1,.39-.83.31.31,0,0,0,.08-.15,6,6,0,0,1,.73-1.18c.14-.2.26-.38.38-.57l.1-.08.11-.11c.3-.44.68-.81,1-1.26.06-.1.56-.44.64-.55S229.5,324.65,229.52,324.57Z"/><path class="cls-1" d="M231.42,328.37c0-.2.26-.2.61-.06a1.18,1.18,0,0,1,.41.33,2.67,2.67,0,0,1,.05.35c0,.06-.32.82-.38,1.09a5.18,5.18,0,0,1-.3.72,6.05,6.05,0,0,0-.48,1.39.89.89,0,0,1-.09.26.67.67,0,0,0-.08.36c0,.08,0,.09.05.1s0,0,0,0,0-.05.24,0,.46,0,.52,0a4,4,0,0,0,1,0c.05,0,.09,0,.16,0s.25,0,.36,0a3.56,3.56,0,0,1,.47-.1.84.84,0,0,1,.29.08c.09,0,.15.24.13.27s.06.17.1.25a.36.36,0,0,1,0,.09,4,4,0,0,1-.86.81l-.23.1a4.54,4.54,0,0,1-.51.2,6.79,6.79,0,0,1-.93.28,1.08,1.08,0,0,1-.31,0,4.6,4.6,0,0,1-.85,0,2.08,2.08,0,0,1-1-.43,1.53,1.53,0,0,1-.58-1.16.82.82,0,0,0,0-.22,3,3,0,0,1,.18-1.52c.08-.23.13-.45.21-.66,0,0,.05-.07.07-.1l.08-.13c.18-.5.47-.92.67-1.39,0-.12.47-.51.53-.63S231.42,328.45,231.42,328.37Z"/><path class="cls-1" d="M238.06,334.06l.53-1.5.56-1.68a6.82,6.82,0,0,1,1.11-2.42,1.4,1.4,0,0,1,.79-.43,1.59,1.59,0,0,1,.82.27,5.3,5.3,0,0,1,1.06,1.13l.73.94.42.52.82.95a1.11,1.11,0,0,0,.53.46c.28,0,.26-.36.27-.61s-.11-1.29-.2-2.07l-.28-2.4c-.15-1.42-.32-2.86-.41-4.3a14,14,0,0,1,.44-5.6c.19-.57.7-.33,1.13.25a3.68,3.68,0,0,1,.72,2.39c-.23,3.45.28,7,.55,10.78l.07,1.07v.7a2.26,2.26,0,0,1,0,.65,2.62,2.62,0,0,1-.38,1.08,1.46,1.46,0,0,1-.91.65,2.69,2.69,0,0,1-2.18-.8c-.18-.15-.35-.31-.52-.48l-.43-.45c-.21-.23-.4-.46-.59-.69l-.42-.53-.2-.26-.07-.1-.28-.41-.15-.2c-.06-.1-.14,0-.17,0a4.08,4.08,0,0,0-.19.42l-.09.23L241,332l-.39,1.16a37.43,37.43,0,0,1-1.71,4.41,9.11,9.11,0,0,1-1,1.62,3.42,3.42,0,0,1-.88.78,1.72,1.72,0,0,1-1.19.23,2.21,2.21,0,0,1-1.09-.57,4.7,4.7,0,0,1-.67-.81,6.09,6.09,0,0,1-.48-.88,5.6,5.6,0,0,1-.27-1,11.86,11.86,0,0,1,.86-5.62c.14-.38.25-.75.4-1.12.55-1.36.83-1.69,1.47-1.79a3.56,3.56,0,0,1,.44-.06c.47,0,.61.73.29,1.79-.45,1.56-1,3.06-1.31,4.49a5.37,5.37,0,0,0-.09,1.93,1.59,1.59,0,0,0,.09.39,1.37,1.37,0,0,0,.15.35,3.42,3.42,0,0,0,.45.66l0,0a3,3,0,0,0,.56-.77,19.26,19.26,0,0,0,1.38-3.21Z"/><path class="cls-1" d="M236.65,305.93c1.31-3.46,2.52-7,3.65-10.51l1.15-3.9c1.41-4.56,2.76-9.15,3.92-13.79.52-2.05.95-4.14,1.32-6.21.48-2.66.79-5.34,1.35-8,.34-1.66,2.18.71,1.69,3.87a117.16,117.16,0,0,1-3.87,16.31c-1,3.21-1.84,6.59-2.83,9.87q-1.65,5.4-3.55,10.74c-.78,2.18-1.61,4.36-2.52,6.51a23.7,23.7,0,0,1-1.18,2.44,4.57,4.57,0,0,1-.94,1.15l-.93.92c-1.24,1.23-2.45,2.48-3.6,3.77-.82.92-1.6,1.87-2.31,2.84-.36.48-.69,1-1,1.47a6.18,6.18,0,0,0-.37.72.68.68,0,0,0-.09.46,1.88,1.88,0,0,0,.12.36.49.49,0,0,0,.5.38,2.13,2.13,0,0,0,.83-.2l.72-.31a1.91,1.91,0,0,1,1.07-.19,3.9,3.9,0,0,1,.5,0c.23.07.27.33.08.76a3.69,3.69,0,0,1-1.52,1.5,4.11,4.11,0,0,1-1.15.44,2.81,2.81,0,0,1-1.55-.12,2.46,2.46,0,0,1-1.25-1.09,3.22,3.22,0,0,1-.32-.69,6.17,6.17,0,0,1-.17-.73,2.65,2.65,0,0,1,.17-1.22,5.93,5.93,0,0,1,.36-.79,12.32,12.32,0,0,1,.8-1.29c.56-.8,1.14-1.55,1.75-2.28,1.22-1.45,2.51-2.84,3.83-4.21.65-.68,1.32-1.35,2-2a2.74,2.74,0,0,0,.64-.78c.19-.35.39-.74.58-1.14.75-1.63,1.42-3.38,2.06-5.13Z"/><path class="cls-1" d="M269.42,260l-1.84,5.53c-.22.68-.39,1.37-.62,2-.81,2.37-1.66,4.72-2.52,7.08-.38,1-.71,2.11-1.05,3.17a16.1,16.1,0,0,1-1.58,4c-.48.75-1.89-1.13-1.35-2.56,1-2.64,1.94-5.34,3.07-8,.69-1.6,1.12-3.35,1.66-5l1.82-5.58,1.11-3.44c.54-1.74,1.12-3.48,1.62-5.22.4-1.35.67-2.72,1-4.08.08-.3.15-.61.25-.91.35-1.11.72-1.45,1.32-1.42a2.73,2.73,0,0,1,.41,0c.43.12.57.68.39,1.43-.49,2.38-1.18,4.89-1.94,7.4-.57,1.86-1.15,3.74-1.73,5.61Z"/><path class="cls-1" d="M281.21,272.5l-1.07-6.91c-.13-.84-.32-1.67-.45-2.51l-1.23-8.92c-.19-1.31-.41-2.64-.65-3.94a20.29,20.29,0,0,1-.56-5.15c0-.56.59-.46,1.15,0a3.11,3.11,0,0,1,.78.83,2.83,2.83,0,0,1,.48,1.24c.45,3.35,1,6.78,1.26,10.25.19,2.08.67,4.2,1,6.3l1.12,6.95.7,4.27c.37,2.15.71,4.32,1.14,6.45.33,1.66.78,3.26,1.17,4.88.08.36.18.71.26,1.08.27,1.35.19,1.82-.32,2.19a1.9,1.9,0,0,1-.35.25c-.42.2-.87-.3-1.16-1.25a87.64,87.64,0,0,1-2.1-9c-.43-2.3-.82-4.63-1.22-6.94Z"/><path class="cls-1" d="M358.27,319.63q-3.81-9.13-7.72-18.22l-2.89-6.62c-3.3-7.81-6.59-15.64-9.71-23.55-1.39-3.5-2.79-7-4.11-10.53-.84-2.26-1.68-4.53-2.39-6.86l-.51-1.75-.43-1.78a18.23,18.23,0,0,1-.33-1.82,11.38,11.38,0,0,1-.18-1.86c0-1.6.53-1.31,1.15-.12a34.67,34.67,0,0,1,2.31,5.84c1.35,4.61,3.06,9.19,4.79,13.75s3.55,9.14,5.34,13.73c2.16,5.5,4.71,11.09,7.1,16.64q3.92,9.16,7.84,18.34,2.36,5.67,4.73,11.34c2.36,5.73,4.65,11.52,6.83,17.29,1.68,4.48,3.38,8.87,4.73,13.45.28,1,.61,2,.83,3,.9,3.85.73,5.23.22,6.09a3,3,0,0,1-.36.56c-.21.19-.43-.12-.63-.79-.11-.34-.19-.77-.3-1.28s-.27-1.12-.41-1.79a108.86,108.86,0,0,0-3.72-12.22c-1.46-4.12-3-8.27-4.67-12.42-2.43-6.15-5-12.31-7.56-18.43Z"/><path class="cls-1" d="M329,387.32a94.09,94.09,0,0,1-19.39,1.89c-2.38-.08-4.77-.08-7.13-.39-1-.09-2.09-.25-3.12-.44l-1.56-.26-1.54-.34c-1-.21-2.05-.52-3.06-.79l-1.59-.5-1.21-.38a12.53,12.53,0,0,1-.2-1.25l-.78-6.27-.68-6.17c-.37-3.65-.74-7.33-1-11a108.47,108.47,0,0,1-.39-14.08c.18-2.91,2.15.81,2.28,6.14.26,9.46,1.19,18.9,2.24,28.45.08.71.16,1.43.25,2.15l0,.3v.16s.1,0,.14.06l.24.08c.68.22,1.37.43,2.07.6a21.37,21.37,0,0,0,2.1.5c1.41.33,2.86.52,4.29.75s2.9.3,4.34.42c1.6,0,3.19.19,4.79.17s3.2,0,4.8-.12l4.79-.37,4.77-.65c1-.11,2-.32,2.92-.51l2.92-.58c1.95-.33,3.85-.9,5.77-1.39,1.44-.41,2.92-.7,4.34-1.2l4.29-1.39,2.14-.7c.71-.23,1.4-.53,2.1-.8l4.17-1.65c2.17-.81,4.23-1.84,6.29-2.84l3.09-1.5c1-.49,2.06-1,3.05-1.55l2.65-1.45c3.32-1.77,4.46-2.2,5.45-2.07a2.92,2.92,0,0,1,.66.09c.54.22-.66,1.25-3.07,2.65-1.79,1-3.62,2.07-5.47,3.1s-3.83,1.87-5.77,2.81c-3.86,2-8,3.42-12.07,5.07l-4.66,1.54c-1.56.49-3.09,1.06-4.69,1.44l-4.76,1.26c-.79.22-1.59.4-2.4.55l-2.41.49Z"/><path class="cls-1" d="M295.8,222.41a12.53,12.53,0,0,1-6.23-.45,8.45,8.45,0,0,1-2.11-1.09,8.29,8.29,0,0,1-2.57-3.22,10.17,10.17,0,0,1-.82-3.89,25.43,25.43,0,0,1,.12-3.39,11.78,11.78,0,0,1,1-4.15c.41-.79,2,.91,1.66,2.32a17.47,17.47,0,0,0-.36,7.61,5.61,5.61,0,0,0,2.76,3.37,8.61,8.61,0,0,0,5,1,15.91,15.91,0,0,0,3.32-.62,22.28,22.28,0,0,0,4.8-2,21.42,21.42,0,0,0,3.24-2.32l.66-.57c.83-.68,1.16-.8,1.72-.52a3.37,3.37,0,0,1,.38.19c.37.25.27.84-.32,1.48a20.72,20.72,0,0,1-6.44,4.48,23,23,0,0,1-5.79,1.84Z"/><path class="cls-1" d="M289.54,229.28a4.72,4.72,0,0,1-2.42-1.47,5.13,5.13,0,0,1-.63-.78,4.25,4.25,0,0,1-.3-3.41,7.06,7.06,0,0,1,.61-1.34,2.37,2.37,0,0,1,1.28-1.25c.19-.05.47.42.69.93s.37,1,.25,1.18a4.5,4.5,0,0,0-1.06,1.64,1.57,1.57,0,0,0,.4,1.26,2.75,2.75,0,0,0,1.19,1.05,2,2,0,0,0,.95.18,2,2,0,0,0,1.39-.64,2.7,2.7,0,0,0,.56-1.18,1.15,1.15,0,0,1,.07-.28c.11-.35.29-.4.85-.27.13,0,.26,0,.39.09a.79.79,0,0,1,.68.78,3.94,3.94,0,0,1-1.86,3,4.18,4.18,0,0,1-3.05.56Z"/><path class="cls-1" d="M245.51,181.35l3.08,152.25s-1.87,5-6.69-.35c0,0-.48,2.41-4.64,8.06l15.07,21.43c.63.61,7.49-5.87,8.27-6.53a9.73,9.73,0,0,1-8.52-2.84c-8.67-9.34,2.48-16.78,10-21.28,0,0-.28-148.78.3-151.62l-16.83.88"/><path class="cls-1" d="M263.36,324.1v8.57a.86.86,0,0,1,0,.16l-.15.09-.56.34-1.49.9-1.17.73c-3.07,2-6.09,4.18-8.11,7a8.12,8.12,0,0,0-1.7,4.5,6.67,6.67,0,0,0,.36,2.33,10.69,10.69,0,0,0,1.12,2.21,15.72,15.72,0,0,0,1.64,2,7.82,7.82,0,0,0,2,1.38,7.94,7.94,0,0,0,1.14.45c.2.05.39.12.59.16l.33.07.57.08a10.4,10.4,0,0,0,1.31.06c.49,0,1-.06,1.57-.09l3.29-.27c-.24.29-.9.82-1.43,1.29L261,357.4l-2.74,2.45c-1.15,1-2.29,2-3.55,2.94l-.56.39a6.74,6.74,0,0,1-.85.5,2.35,2.35,0,0,1-.86.23.78.78,0,0,1-.42-.09c-.14,0-.24-.14-.35-.2s-.41-.41-.58-.64l-.43-.62-.65-.93-2.61-3.72-6.65-9.46-3.33-4.73L236.36,342l-.36-.52-.09-.13s0-.08.05-.12l.17-.24.69-.94.91-1.3c.26-.4.53-.78.77-1.18q.57-.87,1.08-1.77c.16-.3.33-.6.48-.9l.12-.25.19-.42a8,8,0,0,0,.36-.88,4.89,4.89,0,0,0,1-.54c.34-.05.77,0,1.15-.05.45.43.92.86,1.32,1.21a6.24,6.24,0,0,0,.81.47,1.66,1.66,0,0,0,1.39.11,1.89,1.89,0,0,0,.59-.43,2.79,2.79,0,0,0,.46-.65.17.17,0,0,0,0-.15v-.54l0-1.16-.15-9.3-.29-18.59-.61-37.19c-.24-12-.49-24-.74-35.92-.35-15.28-.82-30.62-.9-45.89-.05-9.52,2.26,2.51,2.63,20.11.67,31.21,1.21,62.39,1.55,93.85.11,6.9.21,13.9.32,20.95.07,3.52.14,7.06.2,10.6l.06,2.66v.33c0,.15,0,.36,0,.54a4,4,0,0,1-.42.92,5.05,5.05,0,0,1-1.1,1.27,3.63,3.63,0,0,1-1.69.73,4.72,4.72,0,0,1-.92,0,8.11,8.11,0,0,1-.85-.21l-.75-.32-.65-.41a2.47,2.47,0,0,1-.39-.29l-.26-.21c-.09-.08-.19-.22-.27-.25a3.59,3.59,0,0,1-.12.35l-.12.25-.39.76c-.26.5-.54,1-.83,1.46-.58,1-1.19,1.89-1.83,2.8l-.31.44c-.06.09-.18.2-.19.29l.55.79,1.86,2.65,9.2,13.16,2.27,3.25.27.39c.1.09.23,0,.33-.08l.15-.1.35-.25.77-.59c1-.81,2.07-1.73,3-2.55l.62-.55.29-.26.15-.13,0,0s0,0,0,0h-.1a6.26,6.26,0,0,1-.75,0c-.13,0-.23,0-.42-.06l-.14,0-.24-.06c-.17,0-.35-.07-.52-.12a9.84,9.84,0,0,1-3.78-2,14.47,14.47,0,0,1-2.68-3.18,10.33,10.33,0,0,1-1.52-3.95,8.93,8.93,0,0,1,.5-4.26,13.39,13.39,0,0,1,2.12-3.58,29.58,29.58,0,0,1,6-5.33c1.36-.95,2.75-1.83,4.15-2.68.15-.12.42-.15.35-.38V318.28q0-9.76,0-19.54c0-19.72,0-39.54.06-59.12-.05-15.23-.1-30.15-.15-45.2,0-3.32,0-6.56,0-9.91,0-.79,0-1.49,0-2.26,0-.16,0-.32,0-.48v-.17c0-.06,0-.11-.06-.09l-2.61.12c-2.15.1-3.89.15-5.32.18a35,35,0,0,1-5.87-.26c-.61-.1-1.42-.19-1.77-.3-1.21-.38,3.81-1,12.86-1.6l2.8-.19,1.09-.06.54,0h.47s0,0,0,.06l-.06,2.19,0,.85v4.42c0,3.41,0,6.83,0,10.27q0,10.33,0,20.85c0,14,0,28.23,0,42.47,0,21.15,0,42.4,0,63.6Z"/><path class="cls-1" d="M228.2,313.69c-.1-.43-7.58-11.06-7.58-11.06l-7.1,5.53,9.46,13Z"/><path class="cls-1" d="M216.37,314.34l-1.88-2.76-1-1.38L212,307.94l.85-.64,1.55-1.2c.34-.27.69-.55,1.05-.81l4-2.91.76-.56.37-.27.18-.14s.07-.07.09-.05l.07.1,1.05,1.57,1.38,2.09c.76,1.16,1.57,2.29,2.38,3.4a28.25,28.25,0,0,1,3,4.43.47.47,0,0,1,.06.19.59.59,0,0,1,0,.25.22.22,0,0,1-.2.21,1.76,1.76,0,0,1-.39,0,4.1,4.1,0,0,1-.48,0,3.28,3.28,0,0,1-2.16-1.33c-1-1.47-2-2.95-3-4.46-.48-.76-1-1.52-1.45-2.29l-.36-.57-.18-.29c0-.06,0-.05,0-.08s-.06-.25-.13-.31l-.17.07-.1.05-.07,0-.16.13-1.33,1-2.65,2-.45.33-.21.15-.08.06-.34.23.25.39.67,1,1.45,2.1,2.57,3.7,1.86,2.65.83,1.17.54.73.11-.16,2.34-3.81c.21-.33.39-.66.6-1,.79-1.19,1.17-1.48,1.81-1.4a2,2,0,0,1,.43.05c.44.14.41.83-.09,1.76-.57,1.09-1.21,2.17-1.88,3.25l-.51.81-.59.9Q224.1,322,223,323.65l-2.42-3.3c-1.44-2-2.84-4-4.25-6Z"/><path class="cls-1" d="M268.54,342.51c.5-1,28.7-19.36,28.7-19.36l4.34,7.54-29.36,19.5S265.68,348.5,268.54,342.51Z"/><path class="cls-1" d="M291.86,335.55l4.54-2.91,2.27-1.46,1.12-.72.25-.14-.13-.26-.66-1.18L298,326.74l-.62-1.07-.3-.54L297,325l0-.07a1.36,1.36,0,0,0-.13-.24l-.24.13-.07,0-.15.09-.46.29-.92.57-3.68,2.31L284,332.76c-2.17,1.39-4.31,2.84-6.4,4.29-2.68,1.87-5.37,3.83-8,5.57-.2.13-.36.22-.44.2s0-.05-.13-.1a3,3,0,0,0-.33-.16l.15.07-.06-.06a.36.36,0,0,1-.07-.2,1.91,1.91,0,0,1,.13-.64,8.15,8.15,0,0,1,2.95-3.43c5.52-3.85,11.16-7.45,17-10.91,1.74-1,3.47-2.15,5.21-3.28l3.39-2.2c.08-.05.18-.15.26-.16l.17.29.32.56.65,1.13.83,1.46L302.8,331l-7.31,4.73-7,4.56c-3.54,2.31-7.12,4.61-10.6,7-1.36.92-2.68,1.85-4,2.78l-.5.35-.32.23-.38.26c-.13.06-.25.22-.4.19l-.44-.12-.44-.14-.38-.14a8,8,0,0,1-2.32-1.38,5.63,5.63,0,0,1-1.49-2.05,4.77,4.77,0,0,1-.32-2,7.36,7.36,0,0,1,.09-.75,3.2,3.2,0,0,1,.19-.55,1.76,1.76,0,0,1,1-1.11,2,2,0,0,1,.5-.2c.24,0,.35.26.33.73,0,.24-.06.52-.06.85,0,.16,0,.34,0,.52s0,.36,0,.55A3.41,3.41,0,0,0,270.5,348a6.74,6.74,0,0,0,.79.45c.14.08.29.13.43.2l.22.08H272s.06,0,.08,0,.2-.15.33-.23l.46-.33c2.47-1.71,5-3.41,7.55-5.11l11.41-7.48Z"/><path class="cls-1" d="M184.08,81.74a43,43,0,0,0-.35,8.69l.2,2,.11,1,.05.53a2.89,2.89,0,0,1-.51,0l-3.69-.11-4.46-.14c-1.49,0-3,.08-4.45.12s-3,.07-4.45.25l-4.42.42c-1.47.21-2.93.48-4.39.71-.73.13-1.47.22-2.19.39l-2.15.52-2.16.52-1.07.26-1.06.34-4.21,1.37-4.09,1.69A59.83,59.83,0,0,0,126,109.81a55.64,55.64,0,0,0-14.76,20.83,63.71,63.71,0,0,0-4.71,22.16,67.09,67.09,0,0,0,3,22.51c.29.91.63,1.8.94,2.69l.48,1.35.57,1.3c.39.87.74,1.75,1.16,2.61l1.32,2.52a50.42,50.42,0,0,0,6.55,9.29A54,54,0,0,0,138.4,209l2.31,1c.78.32,1.58.58,2.37.88l1.19.43,1.22.35,2.45.68a66.54,66.54,0,0,0,10,1.55,111.51,111.51,0,0,0,20.34-.67c8.66-1,17.31-2.47,26.05-3.49s17.63-1.53,26.43-.43c5.47.85,4.57,1.35,0,1.3s-13,.34-22.95,1.4c-8.82.91-17.62,2.38-26.55,3.45s-18,1.67-27.16.49a55.83,55.83,0,0,1-13.36-3.36,52.59,52.59,0,0,1-12.07-6.7c-.9-.71-1.85-1.37-2.72-2.13l-2.57-2.29c-.84-.79-1.62-1.64-2.42-2.45-.4-.42-.81-.82-1.19-1.25l-1.11-1.31c-.73-.89-1.51-1.72-2.19-2.66l-2-2.8-1.81-2.95c-.59-1-1.08-2-1.62-3.05a68.49,68.49,0,0,1-6.79-32.37,64.49,64.49,0,0,1,9.46-32,57,57,0,0,1,12.21-13.84,61.93,61.93,0,0,1,15.87-9.34,74.55,74.55,0,0,1,17.73-4.83c.75-.12,1.51-.27,2.27-.37L164,92c1.52-.13,3.05-.32,4.57-.41l4.58-.14c.77,0,1.53-.07,2.3,0l2.28.07,2.82.09.65,0h.23v-.08l0-.31-.09-.89c0-.48,0-1,0-1.43,0-1-.05-1.91,0-2.86a52.33,52.33,0,0,1,1.73-11.22c.12-.46.22-.92.35-1.37l.43-1.36c.3-.89.54-1.81.88-2.69.69-1.76,1.32-3.54,2.16-5.24a69.15,69.15,0,0,1,5.56-9.85,68.16,68.16,0,0,1,11.45-12.71,78.12,78.12,0,0,1,6.78-5.25,72.87,72.87,0,0,1,7.4-4.32,71.87,71.87,0,0,1,16.08-5.74,65.67,65.67,0,0,1,16.94-1.48,58,58,0,0,1,25.08,7.14,67.53,67.53,0,0,1,10.67,7.53c1.59,1.49,3.24,2.93,4.7,4.55s2.91,3.24,4.31,4.92c1.22,1.48,2.3,3,3.45,4.56s2.1,3.18,3.15,4.81c.89,1.55,1.7,3,2.45,4.28s1.3,2.56,1.86,3.67c1.14,2.21,1.87,4.08,2.5,5.61l.81,2.08c.22.63.38,1.21.53,1.73a23.7,23.7,0,0,1,.62,2.66c.11.7.31,1.6.32,2,0,.72-.6-.24-1.7-2.56-.57-1.15-1.18-2.68-2.07-4.43s-1.78-3.87-3-6.13A96.79,96.79,0,0,0,292,48.08c-.6-.77-1.31-1.44-2-2.15s-1.32-1.42-2-2.09c-1.43-1.3-2.8-2.69-4.35-3.87a57.19,57.19,0,0,0-9.7-6.49,51.38,51.38,0,0,0-10.86-4.36,54.84,54.84,0,0,0-11.61-2,63.36,63.36,0,0,0-23.42,3.25,73.94,73.94,0,0,0-8.2,3.37,66.56,66.56,0,0,0-7.69,4.42,69.73,69.73,0,0,0-13.28,11.74,62.17,62.17,0,0,0-14.75,31.78Z"/><path class="cls-1" d="M413,146.06a66.93,66.93,0,0,0-.84-17.93,61,61,0,0,0-5.84-17,70.77,70.77,0,0,0-7.19-11,74.43,74.43,0,0,0-37.91-25.86,64,64,0,0,0-10.18-2,62.32,62.32,0,0,0-10.31-.19,64.19,64.19,0,0,0-25.15,7.38c-2.43,1.25-2.43.61-.62-1,.45-.4,1-.87,1.68-1.38s1.49-1,2.37-1.52l1.4-.81c.5-.25,1-.49,1.57-.74a28.2,28.2,0,0,1,3.51-1.39,60.07,60.07,0,0,1,27.69-2.45,68.81,68.81,0,0,1,26.14,9.54,80.69,80.69,0,0,1,24.75,23.15,68.53,68.53,0,0,1,8.35,16.81,67.72,67.72,0,0,1,3.18,18.49,79.2,79.2,0,0,1-.6,11.52,83.07,83.07,0,0,1-2.41,11.27,75.07,75.07,0,0,1-17.14,30,63.91,63.91,0,0,1-21.66,15.35c-.91.36-1.8.78-2.72,1.1l-2.79.94c-1.77.52-3.26.87-4.51,1.14s-2.29.36-3.13.46a9.51,9.51,0,0,1-3.51-.21,5.88,5.88,0,0,1-1.06-.32c-.36-.21.18-.49,1.45-.82.63-.17,1.45-.33,2.42-.53s2.1-.5,3.37-.77a64.65,64.65,0,0,0,11-3.83,62,62,0,0,0,10.21-6c.79-.6,1.63-1.15,2.39-1.8l2.32-1.92,2.21-2.06c.74-.67,1.41-1.43,2.12-2.15a73,73,0,0,0,7.56-9.49,76.37,76.37,0,0,0,8-16.23,73.71,73.71,0,0,0,3.8-17.73Z"/><path class="cls-1" d="M234,181.21c11.71,2.73,24.56,1.44,35.91-2.27,3.9-1.27.24-2.24-2.06-1.49a55.7,55.7,0,0,1-29.12,1.42c-1.41-.32-6.48,1.94-4.73,2.34Z"/><path class="cls-1" d="M330.27,294.43c-1.16.69-2.34,1.35-3.54,2s-2.4,1.25-3.61,1.85c-.87.46-1.74.94-2.65,1.33-1.58.73-3.26,1.28-4.9,1.89s-3.34,1-5.08,1.37c-1.5.4-3.07.63-4.6.94-1,.13-2,.23-3,.31a11.22,11.22,0,0,1-3.05-.36c-.62-.16-.38-1,.22-1.72a3.19,3.19,0,0,1,2.49-1.41,50,50,0,0,0,11-1.66,34.53,34.53,0,0,0,6.57-2.66c1.19-.53,2.35-1.17,3.53-1.74s2.32-1.26,3.47-1.91c1.4-.84,2.82-1.64,4.17-2.55,2.08-1.33,4.15-2.72,6.09-4.24,1.51-1.17,2.85-2.5,4.23-3.79.31-.29.59-.59.91-.86,1.17-1,1.69-1.17,2.49-.72a4.14,4.14,0,0,1,.55.31c.53.42.38,1.24-.39,2.12a50.3,50.3,0,0,1-8,7.06c-2.19,1.58-4.46,3.09-6.79,4.51Z"/><path class="cls-1" d="M292.46,226.25a2,2,0,0,1-.5.62l-.51.33c-.06,0-.06.06-.16.07l-.3,0-.59.08a8.11,8.11,0,0,1-.82.12q-.4-.09-.78-.21l-.33-.11-.16-.05-.06-.07-.25-.25a.69.69,0,0,1-.16-.23,1.74,1.74,0,0,1-.1-.19,1.43,1.43,0,0,1-.07-.86,2.35,2.35,0,0,1,.36-.85c.21-.33.55-.73,1-.64.14,0,.29.55.44,1.07.08.26.15.51.21.7a2,2,0,0,0,.13.32s0,0-.06,0a.25.25,0,0,0-.2,0c0,.05.14.07.23.07a1.29,1.29,0,0,0,.47,0c.12,0,.26-.1.28-.23s0-.1,0-.18a.5.5,0,0,0-.24-.21.78.78,0,0,0-.56.07l-.1.06c-.1,0-.12-.11-.2-.69l-.05-.38c-.07-.44,0-.81.27-.94a2,2,0,0,1,2.27.49,2.87,2.87,0,0,1,.38.44,2.19,2.19,0,0,1,.28.64,1.94,1.94,0,0,1,0,1Z"/><path class="cls-1" d="M293.5,144c-.08-.23.11-.38.48-.53a.78.78,0,0,1,.51,0,2.82,2.82,0,0,1,.24.4c0,.09.12,1.29.18,1.66s.06.74.09,1.09a3.23,3.23,0,0,0,.46,1.7c0,.09.1.12.13.22a.82.82,0,0,0,.91.25c.05,0,.11,0,.14-.09s.23-.16.47-.41.49-.56.57-.62a10.71,10.71,0,0,0,1-1.15c.05-.06.07-.14.17-.17s.27-.21.38-.35a3.74,3.74,0,0,1,.51-.55,1.11,1.11,0,0,1,.37-.15c.12,0,.23.16.23.2s.11.14.18.2a.22.22,0,0,1,.07.06,4.79,4.79,0,0,1-.2.63,7.07,7.07,0,0,1-.24.72l-.47.9a12.39,12.39,0,0,1-.63,1.08.86.86,0,0,1-.29.28,4.21,4.21,0,0,1-.72.75,2.74,2.74,0,0,1-1,.56,2,2,0,0,1-1.39,0,2,2,0,0,0-.26-.09,2.66,2.66,0,0,1-1.76-1.5,6,6,0,0,1-.37-1c0-.05,0-.12,0-.18a1.62,1.62,0,0,0,0-.22,15.94,15.94,0,0,1-.13-2.14c0-.17.19-.9.18-1.07S293.54,144.06,293.5,144Z"/><path class="cls-1" d="M304.94,147c0-.26.23-.4.62-.4a.83.83,0,0,1,.47.22c.05.14.1.27.13.39s0,.31,0,.61a4.71,4.71,0,0,0,.08.79c.07.31.13.6.2.89a2.43,2.43,0,0,0,.91,1.34c.1.06.18.15.29.22.35.3.69.36.92.22,0,0,.1,0,.11-.11s.21-.2.44-.5.46-.64.53-.71c.36-.36.69-.79,1.06-1.21.06-.06.09-.14.19-.17s.3-.2.42-.33a2.48,2.48,0,0,1,.58-.49.87.87,0,0,1,.43-.07c.12,0,.17.17.16.22s.08.14.12.2l.06.06a2,2,0,0,1-.07.22l-.18.38c-.12.28-.23.6-.26.65a2,2,0,0,0-.15.25l-.31.58-.55,1a1.1,1.1,0,0,1-.25.28,6.48,6.48,0,0,1-.58.78,3.17,3.17,0,0,1-.92.72,1.92,1.92,0,0,1-1.46.13,1.47,1.47,0,0,0-.27-.06,3.51,3.51,0,0,1-1.81-1,4.65,4.65,0,0,1-.68-.79.53.53,0,0,1-.08-.17,1.45,1.45,0,0,0-.09-.22,5.84,5.84,0,0,1-.57-2.25,8.28,8.28,0,0,1,.22-1.19C304.63,147.35,304.94,147.06,304.94,147Z"/><path class="cls-1" d="M300.8,147.25a15,15,0,0,0,1.49-3.8c.11-.49.13-1,.2-1.47a6.71,6.71,0,0,0-.87-4.8,3.23,3.23,0,0,0-1.71-1.21,18.73,18.73,0,0,0-2.82-.42c-.31-.07-.33-.62-.07-1.16a1.68,1.68,0,0,1,1.59-1,6.5,6.5,0,0,1,3.75,1.48,6,6,0,0,1,2,3.49,14.18,14.18,0,0,1,.19,4.44,16.06,16.06,0,0,1-1.37,4.48,17.91,17.91,0,0,1-1.39,2.5,14.4,14.4,0,0,1-2.9,3.24,8.35,8.35,0,0,1-3,1.77,4.23,4.23,0,0,1-.8.18c-1.05.07-1.37-.23-1.44-.8a2.58,2.58,0,0,1,0-.39,1,1,0,0,1,.94-.81,7.68,7.68,0,0,0,4-2.44,14.8,14.8,0,0,0,2.29-3.28Z"/><path class="cls-1" d="M308.59,139.29c-.14.18-.37.08-.7-.17-.1-.08-.27-.39-.23-.46a1.87,1.87,0,0,1,.25-.41,7.45,7.45,0,0,1,1.71-.89,4.45,4.45,0,0,1,1.35-.28,9.18,9.18,0,0,1,2.77.24,1.93,1.93,0,0,1,.58.22c.63.32,1.26.6,1.87.94a.9.9,0,0,0,.32.13,4.37,4.37,0,0,1,1,.6,6.32,6.32,0,0,1,.86.83,14.63,14.63,0,0,1,1,1.55c0,.07.1.14.08.24a.84.84,0,0,0,.17.53,3,3,0,0,1,.26.7,1.34,1.34,0,0,1,0,.4c0,.12-.24.15-.28.13s-.17,0-.25.1l-.09,0a5.2,5.2,0,0,1-.5-.5c-.24-.25-.52-.48-.55-.54a6,6,0,0,0-.61-.74,6.75,6.75,0,0,0-.79-.72,1.21,1.21,0,0,1-.21-.24,7.08,7.08,0,0,0-1.29-.79,3.83,3.83,0,0,1-.73-.48.29.29,0,0,0-.15-.09c-.47-.17-.93-.36-1.41-.49a4,4,0,0,0-.76-.11L312,139a.47.47,0,0,0-.17,0,5,5,0,0,0-1.8.17,5.46,5.46,0,0,0-1,.15C309,139.3,308.65,139.21,308.59,139.29Z"/><path class="cls-1" d="M349.13,333.67a2.72,2.72,0,0,1-1.05,1.78,2.54,2.54,0,0,1-4.08-1.07C342.69,330.09,349.26,331,349.13,333.67Z"/><path class="cls-1" d="M317.42,375.37a2.15,2.15,0,0,1-.83,1.41,2,2,0,0,1-3.22-.84C312.33,372.55,317.52,373.3,317.42,375.37Z"/><path class="cls-1" d="M339.89,348.66a2.53,2.53,0,0,1-1,1.68,2.4,2.4,0,0,1-3.85-1C333.83,345.29,340,346.19,339.89,348.66Z"/><path class="cls-1" d="M317.42,315.87a2.13,2.13,0,0,1-.83,1.41,2,2,0,0,1-3.22-.84C312.33,313.05,317.52,313.8,317.42,315.87Z"/><path class="cls-1" d="M307.69,362.7a2.28,2.28,0,0,1-.89,1.53,2.18,2.18,0,0,1-3.49-.92C302.19,359.64,307.81,360.46,307.69,362.7Z"/><path class="cls-1" d="M344.81,300.63a1.65,1.65,0,0,1-.63,1.09,1.56,1.56,0,0,1-2.5-.66C340.89,298.45,344.9,299,344.81,300.63Z"/><path class="cls-1" d="M363.45,359.76a2.32,2.32,0,0,1-.89,1.53,2.18,2.18,0,0,1-3.5-.92C357.94,356.7,363.57,357.52,363.45,359.76Z"/><path class="cls-1" d="M288,322a15.59,15.59,0,0,1-3.48,0c-.42-.06-.84,0-1.26-.12a13.57,13.57,0,0,1-4.11-1.62c-.57-.31-1.12-.66-1.67-1-.35-.23-.7-.46-1-.72a3.43,3.43,0,0,1-.8-1c-.24-.45,1.76-1.34,2.27-.85a22.49,22.49,0,0,0,3.44,2.43,5.54,5.54,0,0,0,1.25.47c.45.07.89.18,1.34.22a13.05,13.05,0,0,0,3,.11,11.81,11.81,0,0,0,1.86-.3,10.12,10.12,0,0,0,2.67-1,9.56,9.56,0,0,0,1.73-1.35c.12-.11.21-.25.33-.35.45-.4.68-.4,1.16-.05l.32.24a.79.79,0,0,1,.06,1.14,8.74,8.74,0,0,1-3.67,2.74,10.67,10.67,0,0,1-1.67.59A11.1,11.1,0,0,1,288,322Z"/><path class="cls-1" d="M242.55,300.59a14,14,0,0,1-1.56-1.91c-.17-.24-.37-.45-.53-.7a19.23,19.23,0,0,1-1.27-2.78c-.16-.42-.36-.82-.55-1.22a3.06,3.06,0,0,1-.52-1.63c0-.37,2.16-.48,2.33,0a23,23,0,0,1,.93,2.94,5.5,5.5,0,0,0,1,1.66,12.14,12.14,0,0,0,1.27,1.68,8.58,8.58,0,0,0,.93.88,5.36,5.36,0,0,0,1.66,1,3.64,3.64,0,0,0,1.43.07l.3-.05c.37,0,.48.11.61.68l.09.39a.76.76,0,0,1-.47.93,4.73,4.73,0,0,1-3.51-.39,9.57,9.57,0,0,1-2.12-1.51Z"/><path class="cls-1" d="M295.53,165.18c-.34-.91-.15-2.54.89-3a.79.79,0,0,1,.47-.08,5.24,5.24,0,0,1,.53.08l.23.07.33.29a7.08,7.08,0,0,1,.63.59l.37.94,0,.11,0,.1,0,.21-.08.4a2.75,2.75,0,0,1-.36.55,5.53,5.53,0,0,1-.46.32,2.11,2.11,0,0,1-.91.23,1.53,1.53,0,0,1-1.35-.61,1.78,1.78,0,0,1,.15-2c.14-.2.54.1.93.37a1.78,1.78,0,0,0,.86.36s0,0,0,0a.07.07,0,0,0,.12.08c.11-.11-.06-.34-.21-.44a.2.2,0,0,0-.33,0,.66.66,0,0,0-.11.42,1,1,0,0,0,.27.68,1.54,1.54,0,0,0,.54.29l.2,0s.05.12.05.1h0l-.08,0a.86.86,0,0,0-.14-.3,2,2,0,0,0-.36-.36l-.18-.11c-.19-.14-.13-.23,0-.72l.1-.33a.61.61,0,0,1,.87-.42,2.58,2.58,0,0,1,1.32,1.36,2.06,2.06,0,0,1,.11,1.41,1.67,1.67,0,0,1-.7,1,1.79,1.79,0,0,1-1,.3,4.12,4.12,0,0,1-.51,0l-.38-.1a3.2,3.2,0,0,1-.77-.37,2.75,2.75,0,0,1-1.08-1.35Z"/></g></svg>