<svg id="Layer_1" data-name="Layer 1" xmlns="http://www.w3.org/2000/svg" width="520" height="520" viewBox="0 0 520 520"><defs><style>.cls-1{fill:#221f1f;}</style></defs><title>Notioly v2</title><g id="_29.Running_late" data-name="29.Running late"><path class="cls-1" d="M57.36,299.74c-.21-.12.06-.34.62-.61a2.59,2.59,0,0,1,.85-.19,2.41,2.41,0,0,1,.48.18c.08,0,.58.9.77,1.19a3,3,0,0,1,.35.88c.15.62.34,1.23.49,1.85a1.08,1.08,0,0,1,0,.44,3.22,3.22,0,0,0,.2,1.45c0,.07,0,.16.14.21a3.88,3.88,0,0,1,.46,1.56c-.07.45-.07.89-.11,1.34,0,.06,0,.11,0,.19s-.14.3-.13.44a2.11,2.11,0,0,1,0,.56,1.18,1.18,0,0,1-.22.33.77.77,0,0,1-.5.13c-.13-.05-.28.06-.43.1l-.16,0a4.27,4.27,0,0,1-1-1s-.58-1.46-.67-1.61,0-.19,0-.28-.5-1.18-.51-1.23c0-.25-.19-.48,0-.77,0-.06,0-.11,0-.16a6.11,6.11,0,0,1-.23-1.29,4.64,4.64,0,0,0-.17-.64s0-.09,0-.13a.43.43,0,0,0,0-.16,11.88,11.88,0,0,0-.4-1.53c-.06-.11.06-.73,0-.86S57.44,299.8,57.36,299.74Z"/><path class="cls-1" d="M69.88,346.26c-.2-.1.07-.29.64-.54a3.17,3.17,0,0,1,.84-.19,2,2,0,0,1,.48.13c.07,0,.53.72.7.95a1.84,1.84,0,0,1,.31.72c.13.51.29,1,.42,1.51a.87.87,0,0,1,0,.36,2.16,2.16,0,0,0,.14,1.19c0,.07,0,.14.13.18s.42,1.11.39,1.27c-.09.37-.11.74-.17,1.11,0,.05,0,.1-.05.17s-.15.25-.14.36a1.29,1.29,0,0,1,0,.47c0,.08-.14.18-.23.28a1,1,0,0,1-.5.13c-.13,0-.28.06-.43.1l-.16,0a3.74,3.74,0,0,1-.94-.75s-.51-1.19-.59-1.31a.33.33,0,0,1,0-.24s-.45-.95-.45-1c0-.21-.18-.39,0-.64a.12.12,0,0,0,0-.13,4.6,4.6,0,0,1-.17-1.06,3,3,0,0,0-.13-.52.2.2,0,0,1,0-.11.2.2,0,0,0,0-.13,6.77,6.77,0,0,0-.33-1.25c-.05-.09.1-.62,0-.72S70,346.3,69.88,346.26Z"/><path class="cls-1" d="M475.06,205.49c-.26-.24-.07-.64.45-1.13a1.8,1.8,0,0,1,.87-.35,5.69,5.69,0,0,1,.66.28c.07,0,.42.36.85.71l.65.51c.17.18.31.34.42.44a7.33,7.33,0,0,1,1,1.29,14,14,0,0,0,1.85,2.33,1.39,1.39,0,0,1,.31.41,1.42,1.42,0,0,0,.22.35s.08.1.08.08v0l0,.16-2.29,2.44a7.57,7.57,0,0,0-.29-.93c-.05-.13-.07-.28-.23-.37a11.88,11.88,0,0,1-1-2.6,10.34,10.34,0,0,0-.35-2.1c0-.09-.11-.15,0-.29a.47.47,0,0,0-.06-.61,1.19,1.19,0,0,1-.23-.48,1.45,1.45,0,0,0,0-.41,1.43,1.43,0,0,1-.06-.72c.16-.16,0-.4,0-.62a.86.86,0,0,1,0-.22,1,1,0,0,1,.64-.15,3.1,3.1,0,0,1,1.24.28,4.33,4.33,0,0,1,1.4.91,14.1,14.1,0,0,1,1,1.48c.44.73.83,1.49.93,1.64a1.11,1.11,0,0,1,.1.54c0,.09,1.07,2.27,1.07,2.38a4.41,4.41,0,0,1,.26,1.19l-.07,3.85-2.55-.91a2.69,2.69,0,0,1-.54-.26,2.34,2.34,0,0,0-.51-.2,5.89,5.89,0,0,1-2.64-2.11c-.29-.39-.64-.72-.91-1.09a.82.82,0,0,1-.1-.24,1.28,1.28,0,0,0-.13-.29c-.67-.86-1.05-1.84-1.69-2.66a3.44,3.44,0,0,1-.24-.79,3.61,3.61,0,0,0-.13-.86C474.89,206.27,475.18,205.58,475.06,205.49Z"/><path class="cls-1" d="M330.17,158.51a6.87,6.87,0,0,1-1-3.39,8,8,0,0,1,.65-3.31,9.34,9.34,0,0,1,1.09-2.13,9.09,9.09,0,0,1,7.28-3.35,8.29,8.29,0,0,1,3.55.74,5.3,5.3,0,0,1,3.15,3.42c.14.48-.49.59-1.19.52a3.55,3.55,0,0,1-1-.22,1.46,1.46,0,0,1-.78-.45c-1.29-1.51-3.7-2-6.07-1.41a5.48,5.48,0,0,0-3.35,2.65,5.73,5.73,0,0,0-.76,4.67,6.22,6.22,0,0,0,1.77,2.52,17.73,17.73,0,0,0,4.32,2.74c1.23.57,2.53.94,3.82,1.43.29.11.57.19.86.32,1,.47,1.32.84,1.2,1.51a2.26,2.26,0,0,1-.1.45c-.18.48-.75.59-1.49.36a36,36,0,0,1-7.07-2.84,13.41,13.41,0,0,1-4.89-4.2Z"/><path class="cls-1" d="M349.29,98.92c-47.16-27.21-53.53,44.34-23.63,52.2,6.84,1.8,6.28-7.73,13.26-4.16,2.77,1.41,5.58,5.31,8.27,2.74,6.13-5.84,1.95-17.09,10.72-21.9,10.79-5.93,55.55,22.84,63.71-14.84C424,102.14,418,92.79,410,87.83,385.66,72.8,350.43,95.7,349.29,98.92Z"/><path class="cls-1" d="M403.49,133.82a45.7,45.7,0,0,1-12.53-.06,120.38,120.38,0,0,1-12.08-2.32c-4-.92-7.88-1.94-11.79-2.65a27.77,27.77,0,0,0-5.74-.51,6.21,6.21,0,0,0-1.33.16l-.63.12-.55.23a5.15,5.15,0,0,0-1.12.64c-.19.12-.39.24-.57.37l-.5.45c-2,1.69-3,4.32-3.59,7.09s-.95,5.81-2.11,8.79a17.06,17.06,0,0,1-.93,1.93,11,11,0,0,1-1.29,1.76c-.25.27-.48.54-.75.81a4.7,4.7,0,0,1-1.11.75,3.82,3.82,0,0,1-2.73.21,7.4,7.4,0,0,1-2.09-1c-.59-.39-1.13-.81-1.64-1.2s-1-.77-1.5-1.07a9.29,9.29,0,0,0-1.52-.74,3,3,0,0,0-2.77.18,19.36,19.36,0,0,0-2.65,2.52,9.44,9.44,0,0,1-1.74,1.38c-.35.18-.72.34-1.09.49s-.78.2-1.18.26h-1.18l-1.11-.19a18.55,18.55,0,0,1-2-.61,22.47,22.47,0,0,1-3.71-1.76,24.48,24.48,0,0,1-3.28-2.44,26.44,26.44,0,0,1-5.08-6.29,37.77,37.77,0,0,1-4.76-15.18,43,43,0,0,1,.86-14.08,29.92,29.92,0,0,1,6.15-12.7,21,21,0,0,1,7.31-5.55,21.6,21.6,0,0,1,4.42-1.39,23.79,23.79,0,0,1,4.6-.42c6.18.09,12,2.25,17.23,5.12,3.24,1.87,2.45,2.15-.54,1.19-1.52-.42-3.58-1.17-6.09-1.86a47.49,47.49,0,0,0-8.62-1.7,21.06,21.06,0,0,0-4.2,0,17.42,17.42,0,0,0-4.06.82,17.69,17.69,0,0,0-7,4.25c-4,3.91-6.3,9.44-7.29,15.11a40.66,40.66,0,0,0,.75,17.28c1.51,5.58,4.33,11,8.83,14.55a18.6,18.6,0,0,0,4.39,2.63A20.1,20.1,0,0,0,326,150a4.54,4.54,0,0,0,2.16.06c1.35-.28,2.42-1.64,3.79-3.06a5.63,5.63,0,0,1,3.69-2h.89a4.5,4.5,0,0,1,.83.15,4.94,4.94,0,0,1,.8.22c.48.21,1,.39,1.44.64a14.31,14.31,0,0,1,1.29.82c.8.57,1.52,1.16,2.23,1.64a4.46,4.46,0,0,0,2,.89,1.83,1.83,0,0,0,1.53-.83,10.76,10.76,0,0,0,2.45-4.39,49.7,49.7,0,0,0,1.2-5.31,28.59,28.59,0,0,1,1.73-6.11,12,12,0,0,1,4.15-5.14,13,13,0,0,1,1.45-.88,7.21,7.21,0,0,1,1.68-.56l.84-.17L361,126a11.1,11.1,0,0,1,1.63,0,38.59,38.59,0,0,1,6.23.8c4.05.81,8,1.84,12,2.74a102.22,102.22,0,0,0,11.94,2.1,34.3,34.3,0,0,0,14.53-1.15,19.63,19.63,0,0,0,6.18-3.63,20.18,20.18,0,0,0,4.41-5.7,32.33,32.33,0,0,0,3.33-10.55,22,22,0,0,0-.09-5.5,21.77,21.77,0,0,0-1.52-5.29A22.53,22.53,0,0,0,416.84,95a24.18,24.18,0,0,0-3.79-4,24.54,24.54,0,0,0-4.54-3.15l-1.21-.68L406,86.55a26.16,26.16,0,0,0-2.58-1,38.71,38.71,0,0,0-16.92-1.69A64.33,64.33,0,0,0,370,88c-2.35.91-4.61,1.92-6.89,3-4.23,2.09-6.88,3.71-8.74,4.82s-2.94,1.74-3.88,2.19a6.61,6.61,0,0,0-1.2.74c-.23.16-.33.09-.2-.37a5.18,5.18,0,0,1,1.16-1.63,33,33,0,0,1,6.48-4.91A79.38,79.38,0,0,1,371.13,85a63.14,63.14,0,0,1,16-3.62,48.11,48.11,0,0,1,8.4,0,39.4,39.4,0,0,1,8.34,1.79,33.57,33.57,0,0,1,7.74,3.76,28.61,28.61,0,0,1,6.47,5.81,24,24,0,0,1,5.48,18.37,41.12,41.12,0,0,1-1.5,6.26,25.55,25.55,0,0,1-6.78,11,22.37,22.37,0,0,1-11.78,5.46Z"/><path class="cls-1" d="M373.14,186.24a8.49,8.49,0,0,0,4.58-4.8,24.61,24.61,0,0,0,1.75-7.31c.21-1.87.23-3.77.28-5.67l.07-4.14,0-1,0-.53c0-.19,0-.32,0-.63a12.74,12.74,0,0,1,.18-1.62l.15-.8.08-.41a1.2,1.2,0,0,1,.11-.35c.82.24,1.69.53,2.46.7.47.12.58.13.84.18l.69.11a7.77,7.77,0,0,0,2.65-.08,2.25,2.25,0,0,0,1.64-1.29,1.87,1.87,0,0,0-.38-2,12.18,12.18,0,0,0-3.18-2.77c-1.23-.84-2.52-1.54-3.84-2.49a6.42,6.42,0,0,1-.52-.44,2.64,2.64,0,0,1-.53-.69,13,13,0,0,1-1.21-5.45c-.07-1.79,0-3.5,0-5.17,0-1.14.6-1.11,1.3-.12a10.07,10.07,0,0,1,1.31,5.09,11.32,11.32,0,0,0,.87,4.5l0,0a2.92,2.92,0,0,0,.29.25c.24.19.52.39.82.59l1.9,1.24a22.87,22.87,0,0,1,3.86,3,6.67,6.67,0,0,1,1.58,2.49,3.82,3.82,0,0,1,.16,1.79,4.32,4.32,0,0,1-.61,1.61A4.52,4.52,0,0,1,388,162a7.88,7.88,0,0,1-2.72.29,13,13,0,0,1-2.17-.28l-.27-.05-.11,0-.17,0-.3-.1c-.09,0-.08.23-.1.35l0,.26,0,.47c0,.84,0,1.72,0,2.59,0,1.76,0,3.54-.06,5.31a42.65,42.65,0,0,1-1,8.13,15.7,15.7,0,0,1-3.81,7.51,9.52,9.52,0,0,1-4.7,2.54,15.18,15.18,0,0,1-5.2.12,29.81,29.81,0,0,1-7.33-2.25,28.38,28.38,0,0,1-6.4-4.13,40.85,40.85,0,0,1-7.69-8.71c-.48-.71-.92-1.43-1.34-2.18-1.52-2.83-1.65-3.91-1.32-4.76a2.93,2.93,0,0,1,.25-.56c.39-.45,1.14.61,2.2,2.56a47.08,47.08,0,0,0,5.74,8.22,38,38,0,0,0,3.61,3.57,28.66,28.66,0,0,0,4.12,2.91,22,22,0,0,0,3.38,1.55,28.91,28.91,0,0,0,3.62,1.11,11.93,11.93,0,0,0,6.95-.17Z"/><path class="cls-1" d="M347.68,174.75c.09.2-4.11,11.25,7,15.85,5.6,2.33,8.81-.33,10-2.21C364.66,188.39,352.31,185.55,347.68,174.75Z"/><path class="cls-1" d="M364,186.63l1.48.44,1.53.41a12.39,12.39,0,0,1-3.54,4,6.26,6.26,0,0,1-1,.55c-.31.12-.6.26-.91.35a8.88,8.88,0,0,1-1.89.36,10.31,10.31,0,0,1-3.34-.25,13.46,13.46,0,0,1-2.63-1,15.32,15.32,0,0,1-2.39-1.44,14.79,14.79,0,0,1-2.1-1.86,13,13,0,0,1-1.59-2.33,14.23,14.23,0,0,1-1.49-4.71,12.57,12.57,0,0,1,.6-6.13.77.77,0,0,1,.1-.18s0-.06.06-.05a.29.29,0,0,0,0,.13.19.19,0,0,0,.18.09h0l.15,0,.23-.09.12-.05-.27.11.08,0a.32.32,0,0,1,.19,0,2.5,2.5,0,0,1,.36.41,4,4,0,0,1,.7,2.63,13.61,13.61,0,0,0,.39,5.23,10.28,10.28,0,0,0,2.73,4.4,15.19,15.19,0,0,0,1.31,1,15.55,15.55,0,0,0,1.51.81,11.29,11.29,0,0,0,3.22,1,6.57,6.57,0,0,0,3.44-.38,2.26,2.26,0,0,0,.39-.18l.19-.09.09,0a3.75,3.75,0,0,0,.36-.24,3.17,3.17,0,0,0,.34-.3l.16-.18c0-.06.15-.15,0-.15l-.08,0-.49-.18-.59-.25c-.76-.31-1.51-.64-2.25-1a31.46,31.46,0,0,1-6.48-4.27,28.53,28.53,0,0,1-4.24-4.27c-.25-.37-.53-.71-.78-1.09-.87-1.42-.9-2-.49-2.58a2.33,2.33,0,0,1,.31-.38c.38-.33,1,.08,1.65,1,.45.68,1,1.3,1.5,2s1.06,1.27,1.69,1.83a26.89,26.89,0,0,0,3.89,3.28,29.27,29.27,0,0,0,3.28,2c.57.29,1.15.59,1.74.84.3.13.59.27.89.38l.64.25c.32.11.63.23,1,.32Z"/><path class="cls-1" d="M253.34,183.49c1.58-.28,3-.39,4.55-.51s3-.17,4.44-.23c3-.11,5.91-.16,8.86-.18q8.83-.06,17.66.2c4.3.11,8.59.21,12.88.43,7.56.4,15.12,1,22.66,1.84a112.77,112.77,0,0,1,11.28,1.85,24.34,24.34,0,0,1,5.6,1.85,3.85,3.85,0,0,1,.76.47,3.11,3.11,0,0,1,.61.72c.31.45.53.87.77,1.3.45.86.86,1.72,1.27,2.57,1.45,3,2.89,6,4.52,8.94a42.6,42.6,0,0,0,5.59,8,19,19,0,0,0,2.23,2.08,11.45,11.45,0,0,0,2.54,1.48l.68.23c.22.06.45.1.68.15a1.28,1.28,0,0,0,.91,0c.41-.19.75-1.13.85-2.06a24.44,24.44,0,0,0-.34-6.11c-.32-2.06-.76-4.13-1.28-6.16-.33-1.26-.38-1.8-.14-1.86s.76.43,1.37,1.44a21.49,21.49,0,0,1,1.93,4.4,23,23,0,0,1,1.18,6.87,9.89,9.89,0,0,1-.65,3.87,3.84,3.84,0,0,1-1.89,2,3.52,3.52,0,0,1-1.48.31c-.22,0-.45,0-.66-.05l-.48-.1a10.18,10.18,0,0,1-3.54-1.48,17,17,0,0,1-2.82-2.26,45.74,45.74,0,0,1-7.68-11.16c-1-2-2-4-2.92-5.94l-1.4-2.94c-.24-.48-.48-.95-.72-1.4l-.36-.64-.18-.27-.1-.13s0,0-.08-.05l-.28-.15c-.21-.1-.39-.22-.61-.32-.48-.17-.93-.37-1.42-.53l-1.5-.46-1.55-.38c-2.08-.49-4.22-.89-6.37-1.23-10.31-1.61-21.27-2.1-32-2.56q-8.85-.34-17.71-.43c-5.91,0-11.82,0-17.7.23-1.81.08-3.61.2-5.4.37a25.55,25.55,0,0,0-2.59.39l-.56.15c-.2.06-.41.17-.62.25l-1.23.51c-3.3,1.45-6.58,3.05-9.83,4.67-9.84,4.93-19.66,10.08-29.25,15.33q-5.6,3.08-11,6.23l-2.7,1.6-1.33.81-.2.14-.14.1a.67.67,0,0,0-.25.22c-.07.23.12.44.26.6l.11.11.25.23.56.47c.78.63,1.63,1.23,2.48,1.82l4.58,3.09c5.75,3.94,7.28,5.95,7.7,7.54a3.78,3.78,0,0,1,.2,1.07c-.07.41-.47,0-1.35-.76a51.35,51.35,0,0,0-4.35-3.47c-3-2.18-6.23-4.12-9.44-6.4-.41-.29-.81-.59-1.21-.91l-.61-.5-.3-.27-.36-.36a3.49,3.49,0,0,1-1.18-2.23,2.11,2.11,0,0,1,.29-1.16c.32-.28.67-.55,1-.83l.5-.42.36-.23.64-.38,1.27-.77,2.55-1.49C207,206.76,213.93,203,221,199.2Q228.8,195,236.75,191c2.65-1.35,5.31-2.68,8-4,1.34-.66,2.7-1.29,4.07-1.91.67-.32,1.38-.61,2.09-.9.37-.15.67-.3,1.1-.44a9,9,0,0,1,1.3-.32Z"/><path class="cls-1" d="M462.57,201c-3.73,2.63-7.54,5.14-11.4,7.57s-7.82,4.73-11.91,6.8c-3,1.54-6,3-9.06,4.31-1.35.61-2.77,1-4.16,1.56s-2.83.9-4.26,1.3a15.47,15.47,0,0,1-2.23.55,8.15,8.15,0,0,1-1.2.13,7.75,7.75,0,0,1-1.18,0,21.15,21.15,0,0,1-4.54-.63,53,53,0,0,1-8.43-2.88c-2.72-1.15-5.37-2.4-8-3.7l-13.87-7c-5.91-2.92-11.88-5.72-17.94-8.06-1.9-.69-1.49-1.21.37-1.24a22.2,22.2,0,0,1,8.65,2.16c6.22,2.79,12.18,6,18.16,9.07a151.1,151.1,0,0,0,18.19,8.46,29,29,0,0,0,5.73,1.44A11.81,11.81,0,0,0,417,221a8.4,8.4,0,0,0,1.42,0,10.27,10.27,0,0,0,1.37-.2l1.47-.43A78.18,78.18,0,0,0,432.73,216a174.75,174.75,0,0,0,23.6-13.58c4.64-3.13,9.2-6.41,13.62-9.85,1.66-1.31,3.34-2.63,4.91-4a25.09,25.09,0,0,0,4-4.75c2.4-3.47,4.4-7.3,7.51-10.44.31-.3.64-.58,1-.87a7.57,7.57,0,0,1,.67-.42l.64-.26a18.11,18.11,0,0,1,2.49-.62,49,49,0,0,1,4.92-.63c.83-.07,1.65-.11,2.47-.14.42,0,.83,0,1.25,0a13.75,13.75,0,0,1,1.44.06l.92.12a6,6,0,0,1,.78.31,2,2,0,0,1,.94,1.33c.21,1.14-.65,2.13-1.72,2.89-.42.29-.68.45-1,.65s-.66.37-1,.53c-.66.34-1.33.63-2,.91a30.64,30.64,0,0,1-5.52,1.7,5.79,5.79,0,0,1-2.62.05,4.24,4.24,0,0,1-.84-.25c-.62-.38,1.42-1.2,5.05-2.5,1.34-.48,2.67-1,4-1.6a19.88,19.88,0,0,0,1.84-1l.43-.26c.11-.08.32-.21.29-.2l.11-.12a.15.15,0,0,0-.06-.24h-.61c-1.41,0-2.89.05-4.35.16s-2.94.3-4.35.56a15.08,15.08,0,0,0-2,.49l-.38.15c-.13.05-.12.08-.2.11s-.48.42-.72.63a39.42,39.42,0,0,0-5.24,7,66.45,66.45,0,0,1-4,5.79,20.89,20.89,0,0,1-2.55,2.69c-.9.79-1.79,1.51-2.69,2.25-3.6,2.9-7.29,5.66-11,8.34Z"/><path class="cls-1" d="M439.09,240.4q-2,1.08-4.16,2.07c-.71.32-1.43.63-2.18.92a13.84,13.84,0,0,1-2.43.73l-.71.1-.58,0-1.16.05-2.3.1-4.61,0c-2.25-.06-4.49-.06-6.73-.25a105.12,105.12,0,0,1-11.73-1.53,113,113,0,0,1-11.5-2.72c-3.36-1-6.7-2.05-10-3.22a67.5,67.5,0,0,1-12.18-5.54c-1.19-.71-.72-1.16.59-1.16a10.54,10.54,0,0,1,2.5.37,17.4,17.4,0,0,1,3.23,1.13A134.14,134.14,0,0,0,400.53,240a96.26,96.26,0,0,0,16.37,2l4.54.13c1.52,0,3,0,4.55-.06l2.27-.11,1.14-.05a5.84,5.84,0,0,0,1-.18,25.27,25.27,0,0,0,4.1-1.62c3.35-1.6,6.63-3.46,9.87-5.36,4.9-2.88,9.79-5.88,14.57-8.91,3.72-2.36,7.29-4.8,11-7.12.81-.52,1.61-1,2.45-1.52,3.13-1.81,4.34-2.14,5.31-1.85a2.71,2.71,0,0,1,.63.22c.46.37-.68,1.15-2.88,2.51-3.26,2-6.59,4.2-10,6.38s-6.87,4.4-10.36,6.59c-5.21,3.23-10.46,6.45-15.91,9.41Z"/><path class="cls-1" d="M481.85,216.82a12.28,12.28,0,0,1-1.31-.65,8.25,8.25,0,0,1-.9-.7,12.55,12.55,0,0,1-1.24-1.3,22.83,22.83,0,0,1-1.93-2.79c-.42-.69-.86-1.36-1.22-2.07a61,61,0,0,1-3.13-7.73c-.41-1.16-.83-2.32-1.24-3.47a14,14,0,0,1-1.13-4.63c0-.55.64-.5,1.29-.2a2.77,2.77,0,0,1,1.57,1.66c.8,2.91,1.77,5.85,2.7,8.84a29.36,29.36,0,0,0,2.42,5.14,18.25,18.25,0,0,0,3.55,4.86l.24.19.12.1.29.18c.18.08.4.2.6.1a.69.69,0,0,0,.26-.55,9.41,9.41,0,0,0-.21-2.39,25.46,25.46,0,0,0-.71-2.83,33.78,33.78,0,0,0-1.71-4.17c-.14-.3-.29-.59-.43-.89-.49-1.12-.5-1.5,0-2,.11-.11.2-.25.32-.35.37-.35,1,0,1.51.79a29,29,0,0,1,3.19,8.09c.13.54.24,1.1.34,1.67,0,.29.08.57.11.88l0,.45,0,.34c0,.14,0,.27,0,.4a3.51,3.51,0,0,1-.88,2.61,2.29,2.29,0,0,1-1.14.62,3.74,3.74,0,0,1-1.32-.1l0,0Z"/><path class="cls-1" d="M492.32,183.21a29.28,29.28,0,0,0,4-1.34c.48-.2.92-.47,1.38-.69a8.89,8.89,0,0,0,1.76-1,.45.45,0,0,0,.14-.52,1,1,0,0,0-.47-.43,6.34,6.34,0,0,0-2.2-.48c-1-.06-2,.11-3,0-.3,0-.41-.64-.2-1.29a1.76,1.76,0,0,1,1.45-1.32,11.91,11.91,0,0,1,3.68.45,7.64,7.64,0,0,1,.94.34,6,6,0,0,1,1.22.71,2.43,2.43,0,0,1,1,2.47,4.51,4.51,0,0,1-1.87,2.36,12.09,12.09,0,0,1-1.9,1.12,33.37,33.37,0,0,1-4.3,1.64,25.8,25.8,0,0,1-2.79.68,8.71,8.71,0,0,1-2.3.11,2.89,2.89,0,0,1-2.3-1.44,2.4,2.4,0,0,1,.08-2.21,3.74,3.74,0,0,1,1.48-1.52,2.83,2.83,0,0,1,.89-.37,1.68,1.68,0,0,1,1.34.14.76.76,0,0,1,.31.78,2,2,0,0,1-.09.44,1.24,1.24,0,0,1-.42.53,2.41,2.41,0,0,1-.45.29,2.32,2.32,0,0,0-.64.43c-.19.18-.37.44-.34.47s.07,0,.11,0a3.87,3.87,0,0,0,1.47,0,13.45,13.45,0,0,0,2-.41Z"/><path class="cls-1" d="M492.88,187.76a20.46,20.46,0,0,0,3.58-.85c.43-.14.82-.36,1.22-.53a7.82,7.82,0,0,0,3.62-2.46,1,1,0,0,0,.26-.62.65.65,0,0,0-.22-.46,1.6,1.6,0,0,0-.77-.33c-.3-.06-.58-.09-.87-.12a1.26,1.26,0,0,1-.43-1.23,1.48,1.48,0,0,1,1.7-1.26,3.82,3.82,0,0,1,2.14,1.12,3.09,3.09,0,0,1,.86,2.63,2.86,2.86,0,0,1-.17.67,2,2,0,0,1-.26.51,6.33,6.33,0,0,1-.56.83l-.67.64a6.44,6.44,0,0,1-.7.5,23.83,23.83,0,0,1-3.4,1.94,22.79,22.79,0,0,1-4,1.17,19.11,19.11,0,0,1-2.52.36,7.78,7.78,0,0,1-1,0,6.93,6.93,0,0,1-1,0,5.49,5.49,0,0,1-1.07-.19,3.07,3.07,0,0,1-1.08-.69,2.76,2.76,0,0,1-.75-1.82,3.23,3.23,0,0,1,.57-1.88A2.79,2.79,0,0,1,488,185a1.53,1.53,0,0,1,1.27-.35.71.71,0,0,1,.52.65,2.22,2.22,0,0,1,0,.44,2.12,2.12,0,0,1-.23.63,4.12,4.12,0,0,0-.17.41c-.16.25-.31.75-.21.92s.05.06.1.1-.09,0,.23,0a5.31,5.31,0,0,0,.68.07c.28,0,.55,0,.84,0,.58,0,1.17-.12,1.77-.22Z"/><path class="cls-1" d="M495.47,191.82a10.59,10.59,0,0,0,2.77-.73c.31-.15.6-.35.89-.52a7.13,7.13,0,0,0,2.7-2.42,3.42,3.42,0,0,0,.34-.64.48.48,0,0,0,0-.34.22.22,0,0,0-.22-.06l-.42,0c-.14,0-.61-.41-.78-1a1.32,1.32,0,0,1,.14-1,1.3,1.3,0,0,1,1.16-.58,2.75,2.75,0,0,1,2.35,1.48,2.9,2.9,0,0,1,.06,2.47l-.1.24-.1.16-.19.3a4,4,0,0,1-.4.58,6.82,6.82,0,0,1-1,1,17.13,17.13,0,0,1-2.61,2.06,12.33,12.33,0,0,1-3.31,1.21,15.21,15.21,0,0,1-2.12.29c-.27,0-.55,0-.83,0a4.28,4.28,0,0,1-1-.16,4.74,4.74,0,0,1-1.62-.93,3.58,3.58,0,0,1-1-1.34,2,2,0,0,1,.08-1.66,2.09,2.09,0,0,1,.45-.63c.82-.63,1.29-.48,1.61.05a2.38,2.38,0,0,1,.2.39,2,2,0,0,1,0,1.09.35.35,0,0,0,.2.44c.05,0,.06,0,.09,0h0l.12.07c.07.06.17.08.24.13a2.19,2.19,0,0,0,.34.11l.15,0h.32a11.55,11.55,0,0,0,1.4-.16Z"/><path class="cls-1" d="M485.36,200.13l-2.75,1.25c-.33.15-.63.37-1,.51-1.16.52-2.34,1-3.44,1.58a7.12,7.12,0,0,0-1.33.95,7.28,7.28,0,0,1-1.54,1.3c-.2.09-.66-.33-1-.88s-.43-1.28-.08-1.59a11.08,11.08,0,0,1,4.11-2.39,20.29,20.29,0,0,0,2.47-1.23l2.72-1.28c.55-.26,1.11-.53,1.64-.82a20.14,20.14,0,0,0,2.39-1.39,12.5,12.5,0,0,0,1.56-1.44c.11-.11.2-.23.32-.33.43-.38.67-.36,1.16.07a3.31,3.31,0,0,1,.34.3.9.9,0,0,1,.14,1.2,10.19,10.19,0,0,1-3.07,2.73c-.88.55-1.79,1-2.69,1.51Z"/><path class="cls-1" d="M246.68,208c1.15-.58,2.36-1.16,3.43-1.73l.39-.21a7.11,7.11,0,0,1,.75-.33,8.92,8.92,0,0,1,1.12-.26c.7-.14,1.37-.22,2-.3,2.67-.27,5.3-.37,7.93-.42,1.92,0,3.84-.11,5.75-.07a168.43,168.43,0,0,1,20.19,1.55c3,.42,5.95.89,8.88,1.55a38.43,38.43,0,0,1,5.61,1.63,12.32,12.32,0,0,1,5.07,3.29c.84,1.09.12,1.2-.94.91a34.19,34.19,0,0,1-4.53-1.51,34.09,34.09,0,0,0-5.26-1.72c-1.81-.48-3.68-.85-5.55-1.19-3.76-.67-7.58-1.18-11.43-1.61a131.18,131.18,0,0,0-14.21-.54c-2.61,0-5.23,0-7.82.19-1.3.07-2.6.18-3.87.32a16.61,16.61,0,0,0-1.83.31l-.42.1-.26.1-.91.5-8.69,4.36c-4.37,2.21-8.75,4.44-13,6.82-3.28,1.86-6.39,3.86-9.48,5.92l-2,1.38c-2.52,1.72-3.33,2.19-4.26,2.07a3.54,3.54,0,0,1-.62-.09c-.54-.21.21-1.31,2-2.75a85.78,85.78,0,0,1,8.55-5.85c3-1.83,6.09-3.55,9.22-5.24,4.64-2.5,9.38-4.86,14.07-7.23Z"/><path class="cls-1" d="M442.09,411.23c-5.07,7.34-10.88,8.63-19.21,14.95-2.53-5.47-39.15-54.37-46.95-67.05-5.68-9.2-64.62-24.79-79.76-37.37-7.54,8.43-27,39.76-41.83,44.27-31.52,9.57-107.57-14.68-111.09-16.9,2.15-4.64,13.69-22.07,15.15-27.21,8.21,5.36,75.79,19.58,81.37,15.53,5.81-4.2,27.91-39.58,44.59-71.24,8.58,5.47,29.78,12.52,55.43,9.73-6.37,11.67-8.14,21.69-9.39,23.13-.79,4.48,57.89,27.37,64.62,33.37C400.1,337,437.5,398.44,442.09,411.23Z"/><path class="cls-1" d="M249.81,327.37l-1.76,2.51-1.83,2.48c-1.25,1.64-2.53,3.26-4,4.84-.38.39-.85.78-1.28,1.17a3.42,3.42,0,0,1-.34.29,4.85,4.85,0,0,1-.58.32l-.52.2-.47.12a16,16,0,0,1-3.34.32,60.94,60.94,0,0,1-6.24-.3c-8.19-.79-16.22-2.18-24.23-3.68s-16-3.24-23.9-5.16c-4-1-7.91-2-11.84-3.11-2-.57-3.93-1.17-5.88-1.83-1-.33-2-.68-2.93-1.07l-.73-.3-.57-.26a1.51,1.51,0,0,1-.28-.15c0,.09-.08.22-.13.32l-.32.72c-.12.27-.25.52-.38.78-.51,1.05-1.06,2.06-1.6,3.07-1.1,2-2.26,4-3.41,5.92l-7,11.63-.71,1.21-.46.85-.08.15s-.1.12,0,.13l.31.14,1.16.43,1.32.47,2.67.91c3.58,1.18,7.2,2.27,10.83,3.33q10.89,3.15,21.91,5.75a298.45,298.45,0,0,0,39.29,6.85,121.61,121.61,0,0,0,19.82.49,55.16,55.16,0,0,0,9.71-1.4c.78-.22,1.6-.38,2.34-.64.36-.13.74-.24,1.1-.4l1.08-.48a31.27,31.27,0,0,0,4.12-2.51c5.26-3.86,9.8-8.77,14.1-13.81s8.31-10.38,12.31-15.73c2-2.67,4-5.36,6.06-8l.79-1,1-1.19.64-.74.32-.36c.06-.05.11-.16.16-.15l.18.14,1.43,1.09c.22.17.5.4.67.51l.51.34,1,.69,2.1,1.29a159.13,159.13,0,0,0,18,8.51c10.93,4.52,22.1,8.56,33.15,12.94a176.49,176.49,0,0,1,16.33,7.21,41.45,41.45,0,0,1,3.89,2.31,12.16,12.16,0,0,1,3.46,3.27c1.56,2.47,3.21,4.9,4.88,7.31,8.62,12.38,17.61,24.57,26.45,36.87,4.41,6.15,8.84,12.29,13.08,18.59l1.56,2.41.09.14,0,.05.07.13.14.26.08.12s0,.06,0,.06l.07-.05.25-.18.7-.49,1.18-.82c.8-.52,1.6-1,2.41-1.55,3.22-2,6.55-3.8,9.33-6.17a35.84,35.84,0,0,0,3.52-3.49c.68-.8,1.05-1.12,1.11-1s-.8,2.42-3.64,5.36a37.61,37.61,0,0,1-5.66,4.56l-3.64,2.49c-.64.44-1.28.9-1.93,1.37l-1,.72c-.38.3-.78.59-1.18.89l-1.82,1.39-.23.17-.12.09s-.08.09-.1,0l-.3-.5-.6-1-.62-1.05-.08-.14,0-.07-.1-.14-.19-.27-.76-1.12c-1-1.5-2.15-3.05-3.3-4.65L409.16,409c-9-12.54-18.09-25-27-37.65-2.21-3.17-4.42-6.34-6.55-9.62l-.79-1.24a5.6,5.6,0,0,0-.38-.57l-.32-.41a8.42,8.42,0,0,0-.85-.83c-.31-.28-.69-.54-1-.8A40.51,40.51,0,0,0,367.5,355c-6.75-3.44-14-6.22-21.14-9s-14.43-5.52-21.64-8.4a224.91,224.91,0,0,1-21.34-9.53c-.87-.47-1.73-1-2.59-1.44s-1.71-1-2.53-1.59L297,324.2l-.14-.1-.05,0-.09-.07-.19-.15a1.29,1.29,0,0,0-.18-.13l-.06.08-.08.08-.41.5c-2.4,3-4.7,6.1-7,9.2-4.66,6.21-9.4,12.42-14.62,18.28A88.39,88.39,0,0,1,264,361.77a35.74,35.74,0,0,1-6.07,4c-.54.29-1.13.52-1.69.79s-1.19.44-1.78.61c-1.18.28-2.35.64-3.54.86-9.52,1.86-19.21,1.46-28.75.61a267.52,267.52,0,0,1-28.46-4.39c-9.4-1.92-18.71-4.19-27.9-6.74-4.45-1.24-8.87-2.54-13.27-3.94-2.2-.7-4.4-1.42-6.59-2.21l-.82-.31-1-.37-1.26-.58c-.21-.09-.41-.2-.62-.31s-.53-.16-.3-.42l.58-1.24c.19-.4.45-.88.63-1.21.28-.51.57-1,.86-1.52,2.34-4,4.76-7.9,7.11-11.85,1.16-2,2.33-3.95,3.43-5.95.54-1,1.09-2,1.58-3l.37-.75.36-.82c.38-.87.64-1.79,1-2.64.51.31,1,.64,1.59.94l.81.41.53.24c.65.28,1.31.54,2,.79,1.35.49,2.73.94,4.12,1.38,2.78.86,5.59,1.64,8.42,2.39,5.65,1.49,11.35,2.83,17.07,4.08,11.43,2.46,23,4.69,34.55,6.06a67.65,67.65,0,0,0,9.49.55,11.41,11.41,0,0,0,2.2-.27c.18,0,.3-.1.44-.14a1.44,1.44,0,0,0,.33-.24l.82-.73a41.29,41.29,0,0,0,3.07-3.57c3.91-5,7.44-10.44,10.94-15.82,6.94-10.83,13.51-21.9,19.85-33.09,2.38-4.25,4.75-8.51,7.06-12.8l1.73-3.23.63-1.19.32-.59.16-.3a.47.47,0,0,1,.08-.14l.13.08,2.19,1.3a57.44,57.44,0,0,0,6.57,3.06,96.82,96.82,0,0,0,28.31,6,111.66,111.66,0,0,0,14.52-.05l4.79-.41.32,0H341s0,0,0,0l-.07.14-.31.58L340,277l-.6,1.16-.52,1c-1.08,2.16-2.05,4.37-2.94,6.61s-1.71,4.52-2.46,6.82l-1.12,3.47c-.19.58-.39,1.16-.61,1.75-.11.28-.23.61-.36.88a1.19,1.19,0,0,1-.12.22.27.27,0,0,0-.08.24,1.1,1.1,0,0,0,.26.44,6.75,6.75,0,0,0,.51.48,17.06,17.06,0,0,0,1.41,1c1,.66,2,1.27,3.06,1.85,2.09,1.18,4.24,2.28,6.4,3.36,13.48,6.63,27.23,12.4,40.69,18.76,3.36,1.62,6.71,3.21,10,5.15a11.17,11.17,0,0,1,2.37,1.77l1,1.12c.33.37.58.75.87,1.13,1.15,1.49,2.2,3,3.26,4.56,4.21,6.15,8.18,12.43,12.13,18.75,3.49,5.56,6.83,11,10.23,16.71,6.26,10.54,10.19,17.6,12.8,22.66a72.28,72.28,0,0,1,4.73,10.6c.39,1.14.83,2.69,1,3.37s-.08.45-.52-.32-1.1-2.17-2.18-4.11c-2.08-3.89-5.48-10-10-17.71-6.69-11.47-13.66-23-20.95-34.48-3.64-5.73-7.34-11.51-11.27-17.05l-1.51-2a7.94,7.94,0,0,0-.75-.9c-.25-.28-.49-.58-.74-.83a15.6,15.6,0,0,0-1.92-1.32q-1.07-.63-2.19-1.23c-3-1.61-6.1-3.09-9.22-4.57-12.51-5.87-25.35-11.35-38-17.52-3.16-1.57-6.31-3.15-9.41-5a27.9,27.9,0,0,1-2.32-1.57c-.19-.14-.39-.3-.59-.48a3.45,3.45,0,0,1-.29-.27,3.63,3.63,0,0,1-.43-.44,2.7,2.7,0,0,1-.77-2.26l.19-.55c.1-.18.21-.43.28-.58a4.2,4.2,0,0,0,.21-.5c.14-.36.28-.78.42-1.17l.8-2.49c1.07-3.36,2.25-6.74,3.63-10.05.7-1.64,1.42-3.28,2.21-4.89l.38-.76h0l-.45,0c-.66.05-1.32.13-2,.14l-4,.17h-4c-1.33,0-2.66-.09-4-.13a108.1,108.1,0,0,1-15.82-2,86.47,86.47,0,0,1-15.34-4.54c-1.25-.48-2.47-1-3.7-1.62-.61-.29-1.2-.62-1.81-.93l-.45-.24-.14-.07,0,0-.16-.1c-.15-.1-.11-.05-.12-.05l-.72,1.33-1.86,3.48q-7.51,13.86-15.6,27.4c-5.39,9-10.93,18-16.91,26.66Z"/><path class="cls-1" d="M290.67,250.84c1.26-2.51,2.51-5,3.71-7.56l1.24-2.81c1.53-3.27,3-6.55,4.37-9.89.29-.74.57-1.49.83-2.25s.47-1.52.71-2.27c.53-1.95,1-3.94,1.47-5.82.18-.58.78-.46,1.29.17a3.53,3.53,0,0,1,.62,3,59.14,59.14,0,0,1-4.48,12c-1.12,2.28-2,4.76-3.12,7.11q-1.79,3.89-3.68,7.71l-2.34,4.7-3.56,7.1c-.88,1.84-1.65,3.69-2.47,5.54-.19.41-.35.82-.55,1.22-.73,1.5-1.12,1.89-1.85,1.91a2.78,2.78,0,0,1-.5,0c-.51-.09-.56-.88-.13-2,1.29-3.38,2.94-6.8,4.62-10.21l3.76-7.61Z"/><path class="cls-1" d="M354.49,252c-1.44,2.59-2.91,5.15-4.39,7.71-.54.93-1,1.9-1.57,2.82-1.94,3.27-3.94,6.5-5.94,9.73-.89,1.43-1.71,2.91-2.54,4.36a42.33,42.33,0,0,1-3.36,5.5c-.84,1.06-1.93-1.61-.67-3.72,2.22-3.75,4.52-7.45,7-11.11,1.48-2.19,2.73-4.63,4.07-7q2.22-3.85,4.39-7.73c.89-1.59,1.76-3.2,2.62-4.8,1.29-2.45,2.6-4.89,3.74-7.38.89-1.93,1.61-3.9,2.31-5.86.16-.43.28-.87.43-1.3.59-1.6.83-2,1.58-2.2a3,3,0,0,1,.5-.12c.52,0,.72.77.42,2.09a59.23,59.23,0,0,1-4.38,11c-1.31,2.69-2.73,5.32-4.13,8Z"/><path class="cls-1" d="M194.88,223.11q.72-.36,1.41-.78c.17-.11.29-.27.46-.37.6-.35,1.22-.7,1.8-1.11a3.34,3.34,0,0,0,.64-.66c.24-.32.37-.71.82-.83.28-.08,1.83,1.67,1.49,2.08a5.34,5.34,0,0,1-2.13,1.55,6.18,6.18,0,0,0-1.29.92c-.47.33-1,.63-1.47.92l-.93.54c-.47.27-1,.51-1.42.8s-.63.59-1,.86a2.23,2.23,0,0,1-.24.19c-.35.18-.53.06-.78-.53-.06-.13-.12-.26-.17-.4a1.4,1.4,0,0,1,0-1.1,4.2,4.2,0,0,1,1.49-1.32c.42-.27.89-.52,1.34-.81Z"/><path class="cls-1" d="M204.28,230c.47-.25.95-.51,1.4-.8.17-.11.29-.28.46-.38.6-.38,1.22-.77,1.81-1.2a3.65,3.65,0,0,0,.67-.69c.25-.33.42-.74.89-.85.3-.07,1.71,1.8,1.39,2.15a5.83,5.83,0,0,1-2.1,1.52,6.79,6.79,0,0,0-1.28,1c-.48.35-1,.67-1.51,1l-1,.55c-.48.28-1,.51-1.44.81a7.86,7.86,0,0,0-1,.86c-.08.07-.14.14-.22.2-.29.18-.46.09-.8-.46-.08-.13-.16-.25-.23-.38a1.15,1.15,0,0,1-.14-1.09,4.65,4.65,0,0,1,1.63-1.45c.45-.27.92-.52,1.37-.8Z"/><path class="cls-1" d="M180.14,236.77a2,2,0,0,1-1.25-.6,1,1,0,0,1-.25-.42,1.89,1.89,0,0,1,0-.4,2.14,2.14,0,0,1,.22-.75,6.76,6.76,0,0,1,.63-.89,11.05,11.05,0,0,1,1.86-1.73l1.11-.76,1.1-.69,1.4-.78,1.35-.71c.43-.27.89-.56,1.36-.83a14.4,14.4,0,0,1,2.7-1.31,2.17,2.17,0,0,1,.53-.13,1.68,1.68,0,0,1,.61-.05,2,2,0,0,1,.69.1,1.49,1.49,0,0,1,.61.32l.27.23.2.29a1.55,1.55,0,0,1,.27.61,3.35,3.35,0,0,1,.12.6c0,.17,0,.35,0,.52,0,.45-.6.33-1.16.08s-1.16-.65-1.14-.47h0l-.28,0a6.59,6.59,0,0,0-1.33.5c-.49.22-1,.49-1.49.77l-.79.44-.28.15-.2.09-.41.18a13.78,13.78,0,0,0-1.91,1.06l-.65.43a8,8,0,0,0-.76.52,2,2,0,0,0-.48.51c-.08.13,0,.17.11.19a.87.87,0,0,0,.23,0,5.09,5.09,0,0,0,1.23-.23l.56-.17.33-.11.53-.2a22.16,22.16,0,0,0,2.07-.88,18.33,18.33,0,0,0,2.9-1.79l.55-.45a2.09,2.09,0,0,1,.7-.43c.17,0,.31.07.61.11a.93.93,0,0,0,.4,0c.22-.07.45,0,.47.48a1.73,1.73,0,0,1-.48,1.09,11.14,11.14,0,0,1-2.75,2.12,25.86,25.86,0,0,1-3,1.48c-.39.17-.78.32-1.18.47l-1,.39-1.13.38a10.5,10.5,0,0,1-3.73.71Z"/><path class="cls-1" d="M185.43,236.71l-.24.11-.09,0-.1,0a.34.34,0,0,0-.19.07c-.14.05-.29.3-.13.37s.26,0,.37.05l.25,0,.59,0c.43,0,.86-.1,1.3-.17a19.26,19.26,0,0,0,2.57-.63,9,9,0,0,0,2.09-1,7,7,0,0,0,1.74-1.63,1,1,0,0,1,1.14.18,1.37,1.37,0,0,1,.41,1,1.7,1.7,0,0,1-.45,1.12,9.2,9.2,0,0,1-3.15,1.94,14.54,14.54,0,0,1-3.3.84c-.67.09-1.34.22-2,.33a9.41,9.41,0,0,1-2.77.07,2.6,2.6,0,0,1-1.28-.56,1.4,1.4,0,0,1-.54-1.2,2.62,2.62,0,0,1,.56-1.28,1.59,1.59,0,0,1,.49-.51c.31-.09.44-.3.65-.45l.86-.44.61-.3,1.22-.57c1.24-.58,2.51-1.08,3.8-1.56a10.73,10.73,0,0,1,3.26-.91,2.76,2.76,0,0,1,1,.15,1.5,1.5,0,0,1,1,1.21.64.64,0,0,1-.43.67,1.28,1.28,0,0,1-.37.14c-.41.09-.87-.28-.95-.17s-.18.09-.51.16a9.68,9.68,0,0,0-1.08.28c-.78.25-1.63.58-2.48.93-1.27.53-2.55,1.11-3.81,1.75Z"/><path class="cls-1" d="M188.88,239.6l-.42.15-.24.08-.18,0a1.82,1.82,0,0,0-.54.17c-.16.12.1.2.13.24a1.22,1.22,0,0,0,.58.25,2.58,2.58,0,0,0,.37,0c.2,0,.4,0,.6,0a12.09,12.09,0,0,0,1.21-.07,6.64,6.64,0,0,0,2-.55,10.37,10.37,0,0,0,2-1.33c.18-.13.67.13.94.67a1.49,1.49,0,0,1-.38,1.85,7.9,7.9,0,0,1-3.22,1.31,11,11,0,0,1-3.24.12,18.47,18.47,0,0,1-2.8-.35,3,3,0,0,1-1.82-1,1.11,1.11,0,0,1-.2-.52,1.07,1.07,0,0,1,.11-.53,2.74,2.74,0,0,1,.65-.73,12.51,12.51,0,0,1,2.64-1.36c.52-.22.88-.36,1.27-.51l1.17-.45c1.19-.43,2.39-.82,3.65-1.14a6.59,6.59,0,0,1,1.89-.27,1.66,1.66,0,0,1,1.58,1,2.24,2.24,0,0,1,.1.87,2.2,2.2,0,0,1-.54,1.19.81.81,0,0,1-.73.16,2.34,2.34,0,0,1-.4-.1c-.42-.15-.53-.67-.6-.83a.26.26,0,0,0-.43-.16l0,0s0,0-.06,0l-.28.07c-.38.1-.77.21-1.17.34-1.18.38-2.41.82-3.61,1.33Z"/><path class="cls-1" d="M430,422.28c2.51,4.43,8.87,10.51,12,14.48,2.78,3.47,29.86-12.78,29.86-18.72,0-2.42-21.64,7-25.86,10.14-1.28-1.93-7.3-9.13-8.85-10.75C435,419.23,432.14,420.26,430,422.28Z"/><path class="cls-1" d="M462.51,418.64c1.61-.6,3.23-1.16,4.91-1.65l1.28-.34a12.1,12.1,0,0,1,2.18-.36,2.79,2.79,0,0,1,1.71.39,1.43,1.43,0,0,1,.54.67,2.17,2.17,0,0,1,.13.82,5.3,5.3,0,0,1-.79,2.32c-.12.2-.23.4-.36.59l-.32.44c-.17.22-.35.44-.53.65a27.53,27.53,0,0,1-2.28,2.3,53.51,53.51,0,0,1-4.74,3.82,85.5,85.5,0,0,1-9.05,5.53c-1.56.82-3.15,1.6-4.79,2.31a29.4,29.4,0,0,1-5.12,1.75,8.54,8.54,0,0,1-1.8.21,3.56,3.56,0,0,1-1.1-.16,2.13,2.13,0,0,1-1-.68c-1.31-1.61-2.64-3-4-4.5-2.68-2.89-5.58-5.68-7.62-9.27-.6-1.16.06-1.27,1.09-.71a14.58,14.58,0,0,1,4,3.35c1.34,1.58,2.75,3.12,4.16,4.69l2.12,2.38,1,1.23.52.63.46.57,0,0s0,0,.17,0a4.69,4.69,0,0,0,1.07-.07,17.6,17.6,0,0,0,2.55-.68,52.33,52.33,0,0,0,5.21-2.13A69.87,69.87,0,0,0,464.64,425a41.87,41.87,0,0,0,3.64-3.1,19.13,19.13,0,0,0,1.56-1.71l.26-.34.13-.2a1.88,1.88,0,0,0,.22-.45.63.63,0,0,0,0-.33c-.05-.11-.19-.11-.29-.12a3.94,3.94,0,0,0-.67.08l-.17,0L469,419l-.77.21-1.54.47c-3.16,1-6.28,2.28-9.35,3.6-1.87.81-3.74,1.65-5.57,2.54-.91.45-1.82.9-2.71,1.38l-1.31.74a21.58,21.58,0,0,0-1.82,1.23c-.42-.56-.83-1.18-1.27-1.74l-.92-1.18q-1.74-2.14-3.56-4.18l-1.83-2-.87-.93a3.08,3.08,0,0,0-.39-.35l-.22.18-.19.16-.52.36c-.36.25-.73.48-1.1.71-2.77,1.63-3.47,2.05-4.42,2a4.14,4.14,0,0,1-.62,0c-.29-.07-.27-.41.08-1a8,8,0,0,1,2.06-1.94c.73-.51,1.47-1,2.18-1.46.36-.24.68-.45,1.06-.73.66-.47,1.33-1,2-1.54l1.09,1.11,1,1,1.18,1.29c.77.86,1.54,1.74,2.31,2.63s1.52,1.8,2.27,2.73l1.12,1.4.14.18h0l.82-.48a126.55,126.55,0,0,1,15.17-6.88Z"/><path class="cls-1" d="M153.77,330.34c-3.59-1.53-13.57-8.42-16.85-6.22-3.5,2.37-25.46,34.17-19.86,33,4.81-1,17.52-15.46,20.86-23.46,3.07,2.34,7.22,2.51,10.29,4.87C149.52,336.94,153.08,331.52,153.77,330.34Z"/><path class="cls-1" d="M126,352.47c-1.12,1.07-2.26,2.11-3.49,3.09a21.24,21.24,0,0,1-1.93,1.41l-.51.34a2.41,2.41,0,0,1-.37.19l-.43.2a13.82,13.82,0,0,1-1.77.75l-.71,0h-.34a1.87,1.87,0,0,1-.32-.08,1.68,1.68,0,0,1-1-.91,4.16,4.16,0,0,1,.15-3l.15-.42c.05-.15.11-.29.13-.35l.21-.49.44-1c.3-.63.62-1.24.94-1.84,1-1.87,2-3.7,3.14-5.47A201.12,201.12,0,0,1,133.11,327c.52-.63,1-1.26,1.61-1.89.27-.31.56-.62.86-.93a4.91,4.91,0,0,1,1.15-.91,4.8,4.8,0,0,1,2.91-.35,14.4,14.4,0,0,1,2.51.63,62.59,62.59,0,0,1,11.18,5.64c1.06.59.72,1.11-.56,1.18a11.79,11.79,0,0,1-5.41-1.57,50.35,50.35,0,0,0-5.51-2.65,12.42,12.42,0,0,0-2.67-.78,3.3,3.3,0,0,0-1,0,.34.34,0,0,0-.16,0,.28.28,0,0,0-.12,0l-.12.07-.22.18a27.29,27.29,0,0,0-2,2.18c-.68.78-1.34,1.59-2,2.41-1.31,1.63-2.61,3.3-3.9,5A141.77,141.77,0,0,0,121,348.17c-1,1.68-2,3.39-2.81,5.12-.2.43-.4.86-.57,1.29a3.91,3.91,0,0,0-.2.57c0,.18-.11.41,0,.57s.37,0,.56,0a3.68,3.68,0,0,0,.54-.25,3.91,3.91,0,0,0,.43-.27l.52-.35a25.18,25.18,0,0,0,2-1.57,66.82,66.82,0,0,0,7.33-7.43c1.63-1.93,3.19-3.92,4.64-6l1.06-1.56,1-1.6.9-1.63c.39-.77.75-1.68,1.16-2.41l.87.61.83.53.41.23.28.14c.38.18.77.35,1.17.5.8.31,1.64.57,2.48.84s1.71.56,2.56.91c.42.17.89.41,1.23.58a4.3,4.3,0,0,1,.48.26,3.8,3.8,0,0,0,.36-.53l1.45-2.23c1.82-2.79,2.51-3.6,3.43-3.87a3.65,3.65,0,0,1,.62-.17c.6,0,.23,1.4-1,3.53-.53.92-1.08,1.83-1.65,2.75l-.88,1.38c-.56.82-1.17,1.63-1.79,2.43-.71-.49-1.45-1-2.21-1.46-.37-.19-.75-.36-1.15-.53-.79-.32-1.64-.61-2.54-.9s-1.84-.61-2.79-1l-.72-.32-.36-.18-.1-.05h0s0,0,0,0l-.31.57c-.4.76-.82,1.5-1.28,2.22a79.06,79.06,0,0,1-11,13.67Z"/><path class="cls-1" d="M126.81,279.87c5.88-4,12.52-6.25,19.08-8.12,2.4-.69,4.79-1.38,7.19-2,4.23-1.07,8.46-2.08,12.58-3.37a60.6,60.6,0,0,0,6.05-2.2q3-1.27,5.85-2.77a37.32,37.32,0,0,0,9.19-6.6,21,21,0,0,0,4.07-5.75,18.11,18.11,0,0,0,1.61-6.76c.09-1.44.7-1.35,1.3,0a8.66,8.66,0,0,1,.43,1.23,12.62,12.62,0,0,1,.18,1.65,7.09,7.09,0,0,1-.15,2q-.09.53-.21,1.08c-.12.35-.26.71-.41,1.07a21.62,21.62,0,0,1-4.47,6.78,33.82,33.82,0,0,1-6.14,5,57.9,57.9,0,0,1-6.81,3.74A67.51,67.51,0,0,1,169,267.7c-5.88,1.92-12,3.49-18,5.07-3.29.87-6.56,1.78-9.76,2.86a59.57,59.57,0,0,0-9.3,3.92,30.64,30.64,0,0,0-9.54,7.61l-.72.91c-.22.31-.43.64-.65,1a23.06,23.06,0,0,0-1.19,2c-.37.68-.67,1.4-1,2.09l-.36,1.06-.27,1.12c-.64,3.05-1,6.28-2,9.37a25.51,25.51,0,0,1-3.12,6.87,19.6,19.6,0,0,1-5.56,5.21c-1,.54-2,1-3,1.51a16.66,16.66,0,0,1-4.28,1.06,3.82,3.82,0,0,1-2-.29,2.74,2.74,0,0,1-.62-.33c-.22-.21.06-.49.73-.8a11.93,11.93,0,0,1,1.29-.47c.51-.19,1.14-.28,1.78-.56a18.33,18.33,0,0,0,9.89-7,21.89,21.89,0,0,0,2.62-5.74,55.56,55.56,0,0,0,1.42-6.52,29.21,29.21,0,0,1,1.24-5.31,25.62,25.62,0,0,1,2.58-4.82,29.52,29.52,0,0,1,7.64-7.64Z"/><path class="cls-1" d="M171.15,228.82c2.62-1.4,5.52-1.2,8.3-.46,1,.27,3.41-1.21,1.75-1.66a15.89,15.89,0,0,0-11.87,1.15c-.54.29-.7.82-.23,1.22s1.57,0,2.05-.25Z"/><path class="cls-1" d="M97.54,318.79c-7.26-26-42.37-32.49-58.42-10.7-11.67,15.83-5.07,37,11.05,47.11C74.25,370.29,105.06,345.69,97.54,318.79ZM72.9,353.39a26.69,26.69,0,1,1,18.52-32.88A26.68,26.68,0,0,1,72.9,353.39Z"/><path class="cls-1" d="M76.12,304.77a25.64,25.64,0,0,0-11.77-2.34,25.18,25.18,0,0,0-11.56,3.4,25.69,25.69,0,0,0-6.73,5.74,25.25,25.25,0,0,0-4,6.7A30.24,30.24,0,0,0,40.77,322a28.69,28.69,0,0,0-.59,3.9,24.19,24.19,0,0,0,.57,7.86,24.72,24.72,0,0,0,2.94,7.34,10.42,10.42,0,0,0,1,1.48c.35.48.66,1,1.05,1.43a24.51,24.51,0,0,0,2.43,2.56,26.31,26.31,0,0,0,2.73,2.23c.49.33,1,.63,1.5.94l.74.46.79.38a26,26,0,0,0,8.56,2.6,30.12,30.12,0,0,0,8.94-.33c1.83-.33,1.81.31.32,1.27a12,12,0,0,1-1.38.75c-.56.21-1.21.42-1.93.62a12.05,12.05,0,0,1-2.38.4c-.42,0-.87.09-1.32.08s-.92,0-1.39-.07a27.64,27.64,0,0,1-25.47-26.62,29.49,29.49,0,0,1,2.08-11.88,27.05,27.05,0,0,1,6.87-10A28,28,0,0,1,58.43,301a28.45,28.45,0,0,1,13.23-.23,30,30,0,0,1,7.6,3,30.12,30.12,0,0,1,6.39,5.06,27.87,27.87,0,0,1,7.19,22.76,28.16,28.16,0,0,1-8.42,16.55c-.52.47-1,1-1.55,1.4s-1.11.83-1.68,1.25a32.57,32.57,0,0,1-2.84,1.68c-.84.36-1.53.63-2.1.82a4.93,4.93,0,0,1-2.5.22,3.68,3.68,0,0,1-.81-.2c-.29-.16,0-.5.8-1,.39-.23.91-.47,1.52-.77s1.28-.71,2.07-1.11a28.89,28.89,0,0,0,6.21-4.83,26.16,26.16,0,0,0,4.55-6.54,25.5,25.5,0,0,0,2.27-15.75,26,26,0,0,0-4.85-11,25.51,25.51,0,0,0-9.41-7.5Z"/><path class="cls-1" d="M46.67,354.6a37.66,37.66,0,0,1-10.45-12.21A34.63,34.63,0,0,1,32,326.92a30.07,30.07,0,0,1,1.9-11.62,34.79,34.79,0,0,1,2.19-4.72l1.43-2.17c.25-.36.48-.72.73-1.07l.81-1a33.17,33.17,0,0,1,7.67-6.9,33.61,33.61,0,0,1,19.59-5.31,36.37,36.37,0,0,1,17.3,5,32.2,32.2,0,0,1,8.82,7.55,28.48,28.48,0,0,1,5.43,10.25c.67,2.34,0,2.15-1.22.46s-3-4.72-5.46-8a31.27,31.27,0,0,0-8-7.48,33.77,33.77,0,0,0-10.07-4.39A32,32,0,0,0,48.43,301a31,31,0,0,0-2.78,2,30.46,30.46,0,0,0-2.57,2.27,33.08,33.08,0,0,0-2.28,2.58,30,30,0,0,0-5.87,12.35,29.36,29.36,0,0,0,.76,15,34.2,34.2,0,0,0,7.52,13.15l1.64,1.69c.54.58,1.18,1,1.77,1.56a36,36,0,0,0,3.77,2.83,28.68,28.68,0,0,0,22.66,3.86,32.34,32.34,0,0,0,12.65-6.37,33.45,33.45,0,0,0,7.21-8.19,32.47,32.47,0,0,0,4-10c.19-.77.26-1.56.39-2.33s.13-1.56.22-2.35a34.87,34.87,0,0,0,0-3.72c0-.52,0-1-.06-1.4s-.08-.8-.1-1.14a11.11,11.11,0,0,1,.07-2.9,7,7,0,0,1,.23-.95c.17-.36.5,0,.93,1.11a10.93,10.93,0,0,1,.66,2.1c.1.43.2.9.31,1.4s.13,1.06.2,1.63a31.69,31.69,0,0,1-5.13,20.27A36,36,0,0,1,77.91,359.1a32.14,32.14,0,0,1-16.25,2,32.76,32.76,0,0,1-7.95-2.29,36.05,36.05,0,0,1-7.07-4.18Z"/><path class="cls-1" d="M91.19,321c.08-.2.26.08.5.65a3.69,3.69,0,0,1,.19.85,3.61,3.61,0,0,1-.1.46,10.35,10.35,0,0,1-.84.68,1.56,1.56,0,0,1-.64.3c-.46.11-.91.25-1.36.37a.7.7,0,0,1-.32,0,1.69,1.69,0,0,0-1.07.12c-.06,0-.12,0-.16.12s-1,.39-1.13.35c-.35-.09-.68-.13-1-.19,0,0-.09,0-.15-.05s-.24-.16-.33-.15a1.3,1.3,0,0,1-.43-.05,1.35,1.35,0,0,1-.26-.24,1.16,1.16,0,0,1-.13-.5c0-.12-.06-.28-.1-.43s0-.11,0-.15a3.22,3.22,0,0,1,.66-.92s1-.48,1.17-.56.13,0,.21,0,.85-.43.88-.43c.19,0,.35-.16.58,0a.09.09,0,0,0,.11,0,3.76,3.76,0,0,1,1-.14,2.59,2.59,0,0,0,.48-.12s.06,0,.09,0a.27.27,0,0,0,.12,0,5.45,5.45,0,0,0,1.12-.3c.08-.05.56.11.65.05S91.16,321.06,91.19,321Z"/><path class="cls-1" d="M46.93,330.87c.09-.2.28.08.52.65a3.24,3.24,0,0,1,.2.84,3.07,3.07,0,0,1-.13.47,10.08,10.08,0,0,1-.92.7,1.75,1.75,0,0,1-.7.31c-.49.12-1,.27-1.47.4a.69.69,0,0,1-.35,0,2.07,2.07,0,0,0-1.16.14c-.06,0-.13,0-.17.12s-1.08.42-1.23.38a10.27,10.27,0,0,0-1.09-.17s-.09,0-.16,0-.25-.16-.35-.15a1.22,1.22,0,0,1-.46,0c-.08,0-.18-.14-.28-.23a1.16,1.16,0,0,1-.13-.5c0-.13,0-.28-.1-.43l0-.16a3.85,3.85,0,0,1,.73-.93s1.15-.5,1.27-.59.15,0,.23,0,.93-.45,1-.45c.2,0,.37-.17.62,0,.05,0,.08,0,.12,0a4,4,0,0,1,1-.16,3.34,3.34,0,0,0,.52-.14l.1,0a.2.2,0,0,0,.13,0,6.35,6.35,0,0,0,1.21-.32c.09-.05.6.1.7,0S46.89,331,46.93,330.87Z"/><path class="cls-1" d="M59.06,325.85c-.37-.13-.43-.52-.33-1.06a2.48,2.48,0,0,1,.16-.35.41.41,0,0,1,.3-.17,4.67,4.67,0,0,1,.71.15c.14,0,1.82,1.21,2.4,1.58a17,17,0,0,1,1.58,1.22c.51.43,1,.86,1.55,1.27l.39.31c.09.07,0,0,.06,0h0a.17.17,0,0,0,0,.07l0,0a.06.06,0,0,0,.08,0s0,0,.06-.09l.09-.16.16-.32c.22-.43.42-.87.61-1.31a1.41,1.41,0,0,0,.17-.5,22.76,22.76,0,0,1,1.43-3.13c.51-.75,1-1.53,1.47-2.29.07-.11.1-.25.23-.32a1.34,1.34,0,0,0,.52-.67,10.27,10.27,0,0,1,.61-1,2,2,0,0,1,.46-.41c.14-.12.37.09.37.16s.2.13.32.17a.28.28,0,0,1,.11,0,16.7,16.7,0,0,1-.54,2.5s-.32.79-.66,1.59L70.7,325a2.2,2.2,0,0,1-.3.51c-.05.07-1,2.49-1.05,2.59a5.57,5.57,0,0,1-.8,1.4.83.83,0,0,0-.16.29l-.33.7-.42.89-.46.44L67,332a1.23,1.23,0,0,1-.25.08,1.78,1.78,0,0,1-1.22-.35c-.35-.23-.7-.5-1-.76l-.65-.51a1.62,1.62,0,0,1-.18-.19,1.73,1.73,0,0,0-.23-.24c-.89-.7-1.68-1.5-2.59-2.17-.21-.15-1-1.12-1.25-1.29S59.2,325.91,59.06,325.85Z"/><path class="cls-1" d="M362.2,226.67a3.88,3.88,0,0,1-.14.64,2.6,2.6,0,0,1-.42.78,2,2,0,0,1-.61.54,2.46,2.46,0,0,1-.81.34,2.37,2.37,0,0,1-.88,0,1.7,1.7,0,0,1-.71-.38,2.47,2.47,0,0,1-.68-1.46,7.78,7.78,0,0,1-.06-1.16,8,8,0,0,0-.05-1,1.45,1.45,0,0,1,.31-1.39c.15-.15.66.23,1.18.55a4.18,4.18,0,0,0,.73.37c.21.11.35.17.34.2a6.36,6.36,0,0,1-.29,1.57.56.56,0,0,0,0,.43s.08,0,0,.09a1,1,0,0,0-.22.23c-.07.12-.07.08-.09.14a.25.25,0,0,0,0,.07v-.05s0,0,0-.16a.68.68,0,0,0-.15-.28s0,0,.05,0l.07,0h0l.22.22h0l0,0,0,0-.08-.05c-.08,0-.07,0-.05,0s0,0,0,0a1.38,1.38,0,0,0,.1-.6,2.49,2.49,0,0,0-.28-1.13.78.78,0,0,0-.31-.29.4.4,0,0,0-.16-.06h-.07s-.05.08,0,0a1,1,0,0,0,.14-.24c0-.07.06-.09.07-.14a.62.62,0,0,0,0-.12,0,0,0,0,0,0,0s0,0,0,0,.21.24-.1-.09c-.1-.1-.22-.19-.33-.29a.79.79,0,0,1-.37-.54.62.62,0,0,1,.49-.66,1.54,1.54,0,0,1,.89-.07,1.51,1.51,0,0,1,.35.1l.29.13a2.79,2.79,0,0,1,.72.58,3.63,3.63,0,0,1,.73,1.22,5.13,5.13,0,0,1,.27,2.09Z"/><path class="cls-1" d="M358.68,235.8a4.71,4.71,0,0,1-.42.51,2.55,2.55,0,0,1-.72.51,2.11,2.11,0,0,1-.79.21,2.49,2.49,0,0,1-.87-.06,2.36,2.36,0,0,1-.79-.4,1.74,1.74,0,0,1-.46-.65,2.4,2.4,0,0,1,0-1.61,7,7,0,0,1,.46-1.07,8,8,0,0,0,.39-.89c.15-.39.25-.9.9-1.11.2-.06.48.5.8,1a3.89,3.89,0,0,0,.5.66c.14.19.24.3.22.33a7.3,7.3,0,0,1-1,1.28.62.62,0,0,0-.18.38s.06.07,0,.09a.88.88,0,0,0-.3.1c-.11.08-.09,0-.15.09s0,0-.05.05a.05.05,0,0,0,0,0,1.45,1.45,0,0,1,0-.16.69.69,0,0,0,0-.32s0,0,0,0l.08,0h0c0-.06.18.55.09.29h0v0l0-.05a.56.56,0,0,0-.05-.08c-.06-.06-.05-.07,0-.06s0,0,.05,0a1.22,1.22,0,0,0,.36-.5,2.47,2.47,0,0,0,.26-1.13.8.8,0,0,0-.15-.39.38.38,0,0,0-.12-.13l-.06,0s-.09,0,0,0a1.88,1.88,0,0,0,.23-.16c.06-.05.09-.05.12-.1a.26.26,0,0,0,.07-.1v0s0,0,0,.05.08.31-.05-.12c0-.14-.11-.27-.17-.41a.81.81,0,0,1-.09-.65.65.65,0,0,1,.73-.38,1.6,1.6,0,0,1,.83.34,1.71,1.71,0,0,1,.27.25,2.31,2.31,0,0,1,.2.24,2.81,2.81,0,0,1,.39.84,3.49,3.49,0,0,1,.1,1.42,5,5,0,0,1-.68,2Z"/><path class="cls-1" d="M83.1,283.58c3.5-1.27,7.35,3.48,7.09,6.65-.09,1,2.81.48,2.89-.41.48-5.84-6.17-9.07-11.09-7.28-.4.14-1.14.57-.8,1.07s1.53.11,1.91,0Z"/><path class="cls-1" d="M87.05,277.69c1.62-1.4,3.71-.17,5,1.2a5.34,5.34,0,0,1,1.3,5.34c-.24.73,2.61.37,2.87-.45A6.24,6.24,0,0,0,93,276.47a7.36,7.36,0,0,0-8.16,1c-1.17,1,1.68.73,2.25.23Z"/><path class="cls-1" d="M26.93,300.87c-3.2,1.33-7.22,3.75-6.16,7.82.17.67,3.08-.09,2.9-.78-.82-3.11,1.64-5.23,4.27-6.33.31-.13,1.15-.42.86-.86s-1.6,0-1.87.15Z"/><path class="cls-1" d="M25,296.24c-5.36-.05-8.77,4.55-9.53,9.47-.17,1.07,2.74.56,2.89-.38.42-2.74,2.08-7.55,5.49-7.51.53,0,1.69-.2,1.92-.78s-.19-.79-.77-.8Z"/><path class="cls-1" d="M478.72,401.38c2.12-.44,4,1.71,4.82,3.39a8.48,8.48,0,0,1,.77,5.64c-.22,1,2.68.51,2.89-.4a9.26,9.26,0,0,0-1.79-7.66c-1.77-2.28-4.32-2.84-7-2.27-1.76.37-1.39,1.67.35,1.3Z"/><path class="cls-1" d="M483.11,395.09c5.3.27,8.69,4.35,8.71,9.52,0,.54,2.9.1,2.89-.77,0-5.74-4.08-9.7-9.74-10a3,3,0,0,0-2.05.55c-.29.34-.52.65.19.69Z"/><path class="cls-1" d="M368.39,146.62c-.28-.07-.27-.4-.06-.87.06-.16.4-.49.5-.49a4.35,4.35,0,0,1,.52,0c.09,0,1.19.68,1.58.83a9.22,9.22,0,0,1,1,.54,4.83,4.83,0,0,0,2,.68l.38.07a.83.83,0,0,0,.44,0l.2-.05.05,0a.07.07,0,0,0,0-.07s0,0-.06-.06-.05.08-.06-.11,0-.35-.06-.54c-.05-.44-.13-.94-.12-1.06.05-.59,0-1.19,0-1.81,0-.09,0-.18,0-.27a.68.68,0,0,0,.09-.59,4.29,4.29,0,0,1,0-.8,1.2,1.2,0,0,1,.2-.41c.07-.13.37-.08.41,0s.23,0,.35,0a.31.31,0,0,1,.13,0,10.61,10.61,0,0,1,.79,1.48s.14.53.29,1.08.31,1.14.35,1.28a1.13,1.13,0,0,1,0,.41s.11.5.18,1l0,.43a3.7,3.7,0,0,1,0,.55,4.18,4.18,0,0,1-.15.59,2.31,2.31,0,0,1-.31.52,5.66,5.66,0,0,1-.43.42,2.27,2.27,0,0,1-.78.31.8.8,0,0,0-.3.09,4,4,0,0,1-2.44.08,11,11,0,0,1-1.1-.3l-.17-.11a.94.94,0,0,0-.22-.12,19.06,19.06,0,0,1-2.13-1.22c-.17-.08-.72-.79-.9-.9S368.5,146.65,368.39,146.62Z"/><path class="cls-1" d="M376.39,134.14c.33.21.26.67-.13,1a1.37,1.37,0,0,1-.67.2,2.27,2.27,0,0,0-.43-.11,2.5,2.5,0,0,0-.49-.27,2.66,2.66,0,0,0-.83-.21c-.38,0-.77-.12-1.18-.17a11.83,11.83,0,0,0-2.66,0,4.28,4.28,0,0,1-.62,0,5.78,5.78,0,0,0-2.11.27.59.59,0,0,0-.33.15,19,19,0,0,1-2.24.77,12.91,12.91,0,0,0-1.86.44c-.08,0-.16.09-.27.05a.73.73,0,0,0-.59.12c-.25.11-.5.22-.77.31a1.77,1.77,0,0,1-.47,0c-.14,0-.25-.29-.23-.34s-.11-.21-.19-.3-.06-.08-.07-.11a7.21,7.21,0,0,1,1.35-1.46l.36-.21.8-.45c.59-.31,1.23-.6,1.36-.67a1.57,1.57,0,0,1,.44-.1c.06,0,1.94-.77,2-.76a3.08,3.08,0,0,1,1.25-.15.72.72,0,0,0,.25,0,10.34,10.34,0,0,1,2.16-.19c.37,0,.74,0,1.12,0l.2,0a2.17,2.17,0,0,0,.25,0,12.41,12.41,0,0,1,2.75.45,5.81,5.81,0,0,1,1.39.91C376.12,133.46,376.27,134.07,376.39,134.14Z"/><path class="cls-1" d="M377.92,170l.24.26a1.79,1.79,0,0,1,.17.21,2.61,2.61,0,0,1,.17.28,1.7,1.7,0,0,1,.2.91,1.65,1.65,0,0,1-.84,1.3,2.33,2.33,0,0,1-.93.28,4.46,4.46,0,0,1-.64,0,4.08,4.08,0,0,1-.8-.09,5.21,5.21,0,0,1-2.33-1.42,4,4,0,0,1-.81-1.15,1.58,1.58,0,0,1,.08-1.78c.14-.14.69.16,1.23.45a4.35,4.35,0,0,0,1.09.51s0,0,0,.05a1.32,1.32,0,0,0,.29.6c.23.34.68.36,1,.45a3.65,3.65,0,0,0,.53.09h.05a1.85,1.85,0,0,0,.23.45.91.91,0,0,0,.1.1l0,0h0l.19,0h0a.22.22,0,0,0-.14,0s0,.05-.11.09a2,2,0,0,0-.25.14c-.28.19-.13.15-.17.14l0-.06-.13-.14a3.49,3.49,0,0,0-.34-.31,7,7,0,0,0-1.27-.84,5.67,5.67,0,0,0-1.18-.3,2,2,0,0,1-.26,0c-.31-.11-.32-.29-.1-.9l.15-.41c.19-.46.5-.77.78-.78a4,4,0,0,1,2.27.66A10.1,10.1,0,0,1,378,170Z"/><path class="cls-1" d="M187,227.15c.33-.2.66-.39,1-.61l.47-.32.13-.09.05,0a.94.94,0,0,0,.43-.4v0c.08-.19-.2-.15-.28-.17a1.51,1.51,0,0,0-.37,0h-.12l-.34.08-.74.2c-1,.28-1.95.62-2.91,1a18,18,0,0,0-2.45,1.22,28.28,28.28,0,0,1-3,1.77c-.68.31-1.12-1.94.12-2.73a24.17,24.17,0,0,1,6.93-3l2.5-.69a4.41,4.41,0,0,1,3.06,0,1.32,1.32,0,0,1,.44.39,1.94,1.94,0,0,1,.17.6,3.39,3.39,0,0,1-1,2.27,9.86,9.86,0,0,1-1.1,1c-.33.25-.57.43-.86.62a25.57,25.57,0,0,1-2.71,1.59,33.18,33.18,0,0,1-4.34,1.83c-.59.19-1.17.4-1.8.54a3.68,3.68,0,0,1-2.4-.13,1.68,1.68,0,0,1-.79-.85,1.35,1.35,0,0,1-.12-.5,2.15,2.15,0,0,1,0-.44,3.2,3.2,0,0,1,.21-.64.83.83,0,0,1,.74-.37,1.4,1.4,0,0,1,.41,0,.78.78,0,0,1,.47.38.68.68,0,0,1,.12.26,1.8,1.8,0,0,1,.1.18.29.29,0,0,0,.35.15.39.39,0,0,0,.13-.06s.13,0,.22-.05l.32-.07a19.3,19.3,0,0,0,2.81-.94,29.48,29.48,0,0,0,4.16-2.1Z"/><path class="cls-1" d="M196.26,233.88a.3.3,0,0,0-.21-.17.22.22,0,0,0-.19.12c0,.06,0,.15,0,.22l0,.1s0,.18,0,.28a6.06,6.06,0,0,0,.13.67,5.77,5.77,0,0,0,.5,1.33,3,3,0,0,0,.79.95c.42.33.88.45,1.21.87.1.14-.12.72-.52,1.2s-1,.83-1.43.58a5.79,5.79,0,0,1-2.54-3.72c-.08-.44-.21-.83-.33-1.28a6.42,6.42,0,0,1-.26-1.72,3.39,3.39,0,0,1,.46-1.71,1.63,1.63,0,0,1,1.4-.8,3.37,3.37,0,0,1,1.91.83l.63.57.46.5.8.94c.42.46.91.85,1.36,1.29a4,4,0,0,1,.3.28c.32.4.27.62-.2,1.06l-.32.31a1,1,0,0,1-1.16.17,12.28,12.28,0,0,1-2.3-2.18l-.31-.35-.14-.15s0,0,0,0a.19.19,0,0,0,0-.09Z"/></g></svg>