<svg id="Layer_1" data-name="Layer 1" xmlns="http://www.w3.org/2000/svg" width="520" height="520" viewBox="0 0 520 520"><defs><style>.cls-1{fill:#221f1f;}.cls-2{fill:none;stroke:#000;stroke-miterlimit:10;stroke-width:1.4px;}.cls-3{fill:#232020;}</style></defs><title>Notioly v2</title><g id="_30.Cheers" data-name="30.Cheers"><path class="cls-1" d="M373.58,335c8.62-3.44,18.13-5.1,27.17-7,8.75-1.89,17.53-3.61,26.3-5.4,1.76-.37,1.39-1.66-.34-1.3-9.19,1.88-18.4,3.67-27.56,5.67-8.9,1.94-18.19,3.64-26.68,7-1.88.75-.15,1.55,1.11,1Z"/><path class="cls-1" d="M328.27,244.82c1.49-1.88,2.91-3.82,4.41-5.7,1.31-1.64,2.93-4.12,4.9-5.07,1.53-.74.13-1.65-1-1.1-2.09,1-3.63,3-5.08,4.69-1.92,2.31-3.68,4.73-5.54,7.08-.7.89,1.78.77,2.31.1Z"/><path class="cls-1" d="M226.76,213.5c5.36,3.26,9.18,8.68,15,11.28,1.07.48,2.85-1.07,1.41-1.71-5.59-2.51-9.3-7.87-14.49-11-1-.58-3.09.73-1.89,1.46Z"/><path class="cls-1" d="M156.89,162.72a22.12,22.12,0,0,0,6.78-8.38,33.89,33.89,0,0,0,1.43-3.79,36.85,36.85,0,0,0,1.24-4.89c.15-.84.27-1.67.36-2.51l.06-.63,0-.43c0-.18,0-.35,0-.53,0-.7,0-1.43,0-2.11.62.05,1.22.14,1.83.16l.89,0,.5,0a4.88,4.88,0,0,0,1.79-.48,1.93,1.93,0,0,0,1.23-1.71c0-.5-.83-1.22-1.64-1.9a25.54,25.54,0,0,1-3.27-3,7.27,7.27,0,0,1-1.87-4.36c0-1,.7-.81,1.43-.2a14.77,14.77,0,0,1,2.44,2.36,18,18,0,0,0,2.51,2.51c.48.43,1,.86,1.55,1.4a7.85,7.85,0,0,1,.86,1,3.8,3.8,0,0,1,.67,1.66,4.08,4.08,0,0,1-1,3.18,5.5,5.5,0,0,1-2.29,1.62,7.45,7.45,0,0,1-2.41.49c-.54,0-.37,0-.49,0l-.21-.07a1.68,1.68,0,0,0-.09.27c-.11.8-.21,1.61-.32,2.43s-.27,1.81-.45,2.71a34,34,0,0,1-1.45,5.34,27,27,0,0,1-6.55,10.2,23.16,23.16,0,0,1-6.22,4.17,26.56,26.56,0,0,1-5.38,1.73l-1.38.25-.35.06-.25.07a2.11,2.11,0,0,0-.5.17,4.54,4.54,0,0,0-1.68,1.54,12.88,12.88,0,0,0-1.54,3.62c-.36,1.29-.63,2.62-.88,4-.11.6-.21,1.18-.31,1.79-.43,2.23-.77,2.94-1.59,3.25a3.25,3.25,0,0,1-.54.2c-.59.06-.8-.91-.61-2.57a41.62,41.62,0,0,1,1.47-7.68,15.41,15.41,0,0,1,1.81-4,11.09,11.09,0,0,1,.75-1,9.25,9.25,0,0,1,1-.9,8.86,8.86,0,0,1,1.23-.73c.24-.08.48-.16.72-.22l.36-.1.3-.07a22.18,22.18,0,0,0,9.95-4Z"/><path class="cls-1" d="M178.42,112.41c-8.95,8.64-28.23,7-37.35,3.41-3.36-1.32-18.21-11.45-19.84-4-.55,2.51,5.16,13.16,0,15.28-.11,0-.19.14-.29.06a14,14,0,0,1-2.94-3.75c-3.73-3.08-10.41-.22-11.19,4.75-1.07,6.9,6.86,9.6,7.27,15.88.43,6.56-6.15,9.91-11.48,6.61-6.63-4.1-7.36-13.22-9.19-20.06-2.41-9-6.55-16.84-4.15-26.61,4.44-18,26.07-14.7,39-21.57,9.56-5.09,21-10.61,31.93-10.43C178.72,72.24,193.37,98,178.42,112.41Z"/><path class="cls-1" d="M96.76,95a16.19,16.19,0,0,0-5.93,9.12,25.31,25.31,0,0,0-.23,11.36A117.45,117.45,0,0,0,93.85,127c.6,2,1.14,4,1.57,6s.85,4,1.36,5.86a22.12,22.12,0,0,0,3.34,7.61,10.83,10.83,0,0,0,2.84,2.73,7.33,7.33,0,0,0,3.44,1.29,5.73,5.73,0,0,0,5.42-2.58,6.22,6.22,0,0,0,.91-3,6.46,6.46,0,0,0-.64-3.2c-.94-2.09-2.8-3.9-4.41-6.14a12,12,0,0,1-1.91-3.88,10.37,10.37,0,0,1-.22-1.11l-.07-1.13a10.32,10.32,0,0,1,.31-2.24,8,8,0,0,1,2.4-3.81,9.45,9.45,0,0,1,3.9-2.07,8,8,0,0,1,4.48.12,8.47,8.47,0,0,1,1.07.47c.34.19.62.42,1.08.74a2.2,2.2,0,0,1,.21.32l.17.28.25.4.51.78a13.76,13.76,0,0,0,.9,1.16,2.14,2.14,0,0,0,.32.28,1.81,1.81,0,0,0,.37-.18,1.62,1.62,0,0,0,.61-.82,4.7,4.7,0,0,0,.31-1.56A27.28,27.28,0,0,0,121,115.9a17.47,17.47,0,0,1-.75-3.63,2.69,2.69,0,0,1,0-.62,4.92,4.92,0,0,1,.15-.53,5.06,5.06,0,0,1,.42-1,4,4,0,0,1,1.69-1.52,6.73,6.73,0,0,1,4-.29,19.66,19.66,0,0,1,3.5,1,58.45,58.45,0,0,1,6.4,3l3.05,1.63c.5.27,1,.53,1.49.76a15.6,15.6,0,0,0,1.52.58,43.34,43.34,0,0,0,8.42,1.88,54.59,54.59,0,0,0,8.66.45,42.57,42.57,0,0,0,8.53-1.1,23.47,23.47,0,0,0,7.78-3.24c2.71-2.09,3-1.42.9,1.14a17.13,17.13,0,0,1-5.57,3.79,28.93,28.93,0,0,1-9.33,2.22,54.06,54.06,0,0,1-18.53-1.91c-.76-.2-1.51-.47-2.26-.74a11.18,11.18,0,0,1-1.19-.47c-.39-.18-.74-.36-1.09-.55l-4-2.15a39.68,39.68,0,0,0-7.89-3.42,5.64,5.64,0,0,0-3.27-.14,1.14,1.14,0,0,0-.63.7l-.1.33c0,.13,0,0,0,.14a4.19,4.19,0,0,0,.1.79c.26,1.3.72,2.79,1.1,4.28A26.68,26.68,0,0,1,125,122a9.74,9.74,0,0,1-.16,2.71,6.09,6.09,0,0,1-.5,1.45,4.52,4.52,0,0,1-1.21,1.5c-.13.1-.26.22-.4.31l-.44.25a4.92,4.92,0,0,1-.89.37,1.17,1.17,0,0,1-.44.08,1,1,0,0,1-.42-.09,1,1,0,0,1-.4-.19,1.71,1.71,0,0,1-.4-.28,8.25,8.25,0,0,1-.73-.72c-.12-.13-.24-.25-.35-.38l-.21-.27c-.27-.33-.51-.67-.74-1s-.44-.68-.65-1l-.19-.33s0,0-.12-.09a4.15,4.15,0,0,0-1.51-.68,6,6,0,0,0-3.57.43,6.24,6.24,0,0,0-3.2,3,5.69,5.69,0,0,0-.47,2.17,8.72,8.72,0,0,0,.07,1.14,6.36,6.36,0,0,0,.29,1.12,14.71,14.71,0,0,0,2.73,4.29,22.19,22.19,0,0,1,3.35,4.83l.32.73.23.77a9.47,9.47,0,0,1,.29,1.59,14.27,14.27,0,0,1,0,1.6,11.14,11.14,0,0,1-.27,1.6,8.35,8.35,0,0,1-1.4,3,8.69,8.69,0,0,1-2.47,2.17,8.78,8.78,0,0,1-6.32.82,10.1,10.1,0,0,1-2.93-1.22l-1.26-.89-1.14-1a17.49,17.49,0,0,1-3.58-5.47,39,39,0,0,1-1.94-6c-.49-2-.89-4-1.36-6s-1-3.88-1.63-5.82a82.75,82.75,0,0,1-3.19-12,27,27,0,0,1,1-12.59,19.23,19.23,0,0,1,4-6.81,21.36,21.36,0,0,1,6.35-4.61c4.69-2.29,9.72-3.32,14.61-4.43a79.74,79.74,0,0,0,10.89-3,44.18,44.18,0,0,0,5.08-2.41c1.7-.88,3.4-1.75,5.13-2.57,6.91-3.26,14.19-6.12,21.92-6.79a24.62,24.62,0,0,1,9,.68,25.33,25.33,0,0,1,8.07,3.93A29.65,29.65,0,0,1,184.4,90.11,25.08,25.08,0,0,1,185.79,98a20.17,20.17,0,0,1-.94,6.3c-.14.42-.27.82-.41,1.19l-.47,1a15.46,15.46,0,0,1-.94,1.71,9.56,9.56,0,0,1-3.31,3.37,8.13,8.13,0,0,1-1.28.65c-.52.13-.15-.57.81-1.94a23.06,23.06,0,0,0,3.22-6.75,21.55,21.55,0,0,0-1.32-14.43,27.62,27.62,0,0,0-9.53-11.53,23,23,0,0,0-6.8-3.18,21.9,21.9,0,0,0-7.52-.56A51.73,51.73,0,0,0,142,77.77c-3.7,1.5-7.33,3.26-10.93,5.13-.93.48-1.74.94-2.76,1.43a32.2,32.2,0,0,1-3,1.28,55.33,55.33,0,0,1-6.06,1.85c-4,1-8.07,1.76-11.92,2.82A30.19,30.19,0,0,0,96.82,95Z"/><path class="cls-2" d="M119.59,125.55a6.06,6.06,0,0,0-1.64-2.19"/><path class="cls-1" d="M208.9,229.18l-11.53,9.88-5.78,5a13.42,13.42,0,0,1-3.61,2.42,4.34,4.34,0,0,1-2.89,0,7.32,7.32,0,0,1-2.07-1.19c-1.61-1.26-2.88-2.53-4.27-3.74l-4.12-3.65A341.4,341.4,0,0,0,144,214l-2.08-1.44-.47-.32v-.55h0l.47.87c-4.07-2.77-8.23-5.43-12.37-8-6.26-3.86-12.69-7.47-18.92-11.36-3.9-2.4,2.59-2.1,10,2.24q11.73,6.91,23,14.68l.84.59v1h0l-.83-1.56q7.41,5.13,14.61,10.72c7.17,5.61,14.67,11.41,21.59,17.66l2.83,2.59a21.91,21.91,0,0,0,2.75,2.3,1.74,1.74,0,0,0,2.26.08,20.78,20.78,0,0,0,2.82-2.19l11.59-10L216.21,219l10.95-9.19a101.14,101.14,0,0,0,10.22-9.71,39.31,39.31,0,0,0,6.07-8.73c.41-.79.71-1.57,1.06-2.41s.71-1.71,1.09-2.55a51.08,51.08,0,0,1,2.56-4.92,36.28,36.28,0,0,1,2.72-4.09,21,21,0,0,1,4.65-4.65,5.16,5.16,0,0,1,2.8-1.12,3.67,3.67,0,0,1,1,0c.82.28-1.1,1.7-3.91,4.76a40.94,40.94,0,0,0-5.37,7.75c-.77,1.4-1.48,2.86-2.13,4.34l-.95,2.27c-.36.83-.72,1.66-1.15,2.44a44.09,44.09,0,0,1-6.14,8.67,91,91,0,0,1-7.44,7.39c-1.92,1.73-3.89,3.39-5.84,5l-5.82,4.9c-3.91,3.28-7.74,6.68-11.61,10Z"/><path class="cls-1" d="M229.41,255.28a171.18,171.18,0,0,1-17.13,15.24c-2.22,1.7-4.46,3.39-6.86,4.88a67.66,67.66,0,0,1-6.51,3.63,45.91,45.91,0,0,1-7,2.69,28.4,28.4,0,0,1-7.52,1.13,18.83,18.83,0,0,1-7.5-1.78,70,70,0,0,1-11.41-6.55A78.35,78.35,0,0,1,152.56,264c-1.21-1.24-.51-1.63,1.06-1.19a19.71,19.71,0,0,1,6.37,3.69A110.11,110.11,0,0,0,173.44,276a36.72,36.72,0,0,0,7.24,3.38c.61.14,1.23.36,1.84.45l.89.1.45.06h.49c.66,0,1.31,0,2-.07l2-.23a33.38,33.38,0,0,0,9.38-3.19,71.77,71.77,0,0,0,8.76-5.29,140.21,140.21,0,0,0,17.38-14.52q5-4.88,9.79-10,3-3.28,6-6.63l3-3.35,1.48-1.67.76-.83.59-.65a1.4,1.4,0,0,0,.32-.37.78.78,0,0,0-.16-.46,2.63,2.63,0,0,0-.29-.39c-.09-.11-.32-.37-.49-.55a73.82,73.82,0,0,0-6-5.37c-2.08-1.72-4.19-3.42-6.26-5.2-.91-.79-1.82-1.54-2.71-2.38-3.3-3.1-4.07-4.57-4-5.82a2.55,2.55,0,0,1,.12-.83c.35-.62,1.46.58,3.81,2.72,3,2.78,6.35,5.46,9.69,8.25,1.67,1.4,3.36,2.82,5,4.33.84.76,1.67,1.54,2.51,2.43.22.25.35.38.74.87a6.31,6.31,0,0,1,.84,1.37,2.86,2.86,0,0,1,.19,1.47,1.39,1.39,0,0,1-.29.67l-.38.64-.71.74-.36.4-.67.74L245,238.33c-5,5.74-10.13,11.5-15.52,17Z"/><path class="cls-1" d="M274.34,183.58a3.84,3.84,0,0,1,1.15-2.09c.19-.18.65-.09.67.2a7.89,7.89,0,0,1,0,1.68,11.93,11.93,0,0,1-1.12,3.08,15.33,15.33,0,0,1-2.6,3.57,20.24,20.24,0,0,1-4.13,3.3c-3,1.88-6.09,3.34-8.7,5.21-.3.2-.58.4-.85.62s-.55.42-.8.64a7.87,7.87,0,0,0-1.65,1.87l.12-.31c-.83,1.44-1.63,2.88-2.41,4.34a8.37,8.37,0,0,0-.58,1.16c-.22.64-3.69,6.88-4.19,7.66l-3.66,5.87a4.85,4.85,0,0,1-.54.82,8.26,8.26,0,0,0-1.19,1.76c-.5.84-1,1.68-1.54,2.5a11,11,0,0,1-.9,1.14c-.28.34-.43,0-.38-.16.13-.42-.16-.18-.29-.21a.17.17,0,0,1-.12,0,6.43,6.43,0,0,1,.34-.85c.21-.5.5-1.16.79-1.83.59-1.34,1.23-2.74,1.38-3s3.84-7.23,4.27-8.05c.21-.42.49-.83.75-1.24l3.24-6.09a38.66,38.66,0,0,1,2.08-3.46,5.44,5.44,0,0,0,.41-.69l.12-.21.12-.32a11.56,11.56,0,0,1,2.42-2.89,22.27,22.27,0,0,1,2.91-2.05c1.05-.64,2.09-1.26,3.13-1.84.19-.11.39-.19.58-.28s.49-.23.72-.36a30.66,30.66,0,0,0,6.72-4.59c.22-.21.89-.78,1.47-1.43a9,9,0,0,0,1.25-1.7A9.27,9.27,0,0,0,274.34,183.58Z"/><path class="cls-1" d="M268.5,186.33c-.15.15-.36,0-.56-.32a1.29,1.29,0,0,1-.08-.52,2.64,2.64,0,0,1,.18-.3,11.16,11.16,0,0,0,1-.67,6.11,6.11,0,0,1,.67-.46,8.36,8.36,0,0,0,1.26-1.05,3.22,3.22,0,0,1,.28-.24,2.7,2.7,0,0,0,.87-.94.39.39,0,0,0,.08-.21,2.39,2.39,0,0,1,.3-.64,5.3,5.3,0,0,1,.35-.64,9.5,9.5,0,0,0,.68-1s0-.11.11-.14.19-.19.23-.3a2.92,2.92,0,0,1,.23-.47,1.36,1.36,0,0,1,.25-.2c.08-.06.28,0,.3.07s.16.06.25.07l.1,0a5.49,5.49,0,0,1,.08,1.26s-.12.4-.24.8-.28.83-.31.92a.72.72,0,0,1-.16.24s-.56,1.22-.6,1.26a1.78,1.78,0,0,1-.55.61c-.06,0-.08.07-.11.11a5.51,5.51,0,0,1-1,1c-.18.15-.34.33-.53.47l-.12.06a.55.55,0,0,0-.15.08,15.82,15.82,0,0,1-1.43.91c-.11.08-.74.18-.88.25S268.56,186.28,268.5,186.33Z"/><path class="cls-1" d="M268.49,181.68c-.07.16-.27,0-.53-.23a1.51,1.51,0,0,1-.23-.46,2.36,2.36,0,0,1,.07-.33s.53-.55.68-.74a2.75,2.75,0,0,1,.52-.45,9.74,9.74,0,0,0,1-.88,1.45,1.45,0,0,1,.26-.17,2,2,0,0,0,.75-.69s.08-.08.06-.16a1.42,1.42,0,0,1,.26-.47,2.54,2.54,0,0,1,.3-.45,3.44,3.44,0,0,0,.55-.66s0-.08.09-.1.18-.13.21-.22a1.28,1.28,0,0,1,.14-.35c0-.06.13-.11.21-.17a.42.42,0,0,1,.3,0c.06.07.17,0,.27,0h.09a2.68,2.68,0,0,1,.24,1.07,8.21,8.21,0,0,1-.46,1.48.58.58,0,0,1-.16.19,9.81,9.81,0,0,1-.56,1c-.15.16-.25.37-.49.44,0,0-.07.05-.1.08a4.32,4.32,0,0,1-.82.72c-.14.11-.27.24-.41.36l-.1,0a.39.39,0,0,0-.11.06c-.33.28-.72.47-1,.76-.08.07-.56.19-.64.27S268.52,181.62,268.49,181.68Z"/><path class="cls-1" d="M163.77,374.68l-1-13.57-1-13.58-.81-9.89-2.5-34.87c-.38-5.16-.85-10.34-1.33-15.45-.62-6.56-1.39-13.14-1.63-19.73-.15-4.11,3.11.81,3.78,8.39,1.19,13.42,2.2,26.85,2.94,40.41.44,8.12,1.28,16.53,1.92,24.82q1,13.65,2.05,27.31.67,8.42,1.34,16.82c.68,8.49,1.2,17,1.55,25.51.28,6.57.55,13,.48,19.56,0,1.44,0,2.85-.07,4.29a38.21,38.21,0,0,1-.49,5.69,5.26,5.26,0,0,1-1,2.46,4.1,4.1,0,0,1-.59.71c-.64.46-1-1.75-.87-5.64.06-5.77.06-11.69-.07-17.7s-.4-12.1-.76-18.21c-.54-9.07-1.26-18.19-2-27.31Z"/><path class="cls-1" d="M80.24,410.05c.3-4.77.61-9.53.9-14.29.11-1.74.12-3.48.24-5.22.4-6.13.84-12.25,1.22-18.37.17-2.72.26-5.46.32-8.16a97.77,97.77,0,0,1,.48-10.41c.29-2.15,3,.71,2.86,4.7-.24,7.09-.67,14.16-1.37,21.28-.42,4.26-.48,8.71-.73,13.08-.26,4.8-.56,9.6-.84,14.4-.17,2.95-.35,5.91-.51,8.86-.24,4.47-.52,9-.66,13.41-.11,3.46-.05,6.85-.07,10.27,0,.76,0,1.49,0,2.25-.07,2.81-.31,3.7-1.11,4.27a3.08,3.08,0,0,1-.56.38c-.61.24-1.06-.93-1.16-3-.27-6.13-.07-12.57.2-19,.19-4.8.47-9.62.71-14.43Z"/><path class="cls-1" d="M121.82,418.94c0-.24,0-.64,0-1.19l-.08-.91c0-.19-.23-.19-.2-.13l-.06.17c0,.19-.05.67-.1.91l0,.08a22.48,22.48,0,0,0-.62,3.73l-1,7.63c-.29,2.26-.5,4.54-.69,6.79a66.28,66.28,0,0,1-1,8.66c-.38,1.78-3-.8-2.64-4.13.57-5.9,1.31-11.77,2.34-17.67.14-.79.26-1.58.36-2.38l.16-1.2.19-1.71.87-8.15a3.79,3.79,0,0,1,.37-1.19c.33-.64.59-1,.8-1.43.12-.21.18-.39.3-.59a.9.9,0,0,1,.69-.14c.3.05.37.18.4.29l.72,1.55a8.59,8.59,0,0,1,.9,3.07c.51,3.36,1,6.72,1.54,10.07.57,3.7,1.11,7.43,1.76,11.09.51,2.85,1.18,5.61,1.78,8.41.13.61.29,1.21.41,1.83.43,2.32.36,3.09-.33,3.71a2.58,2.58,0,0,1-.47.42c-.56.32-1.21-.54-1.67-2.21a156.73,156.73,0,0,1-3.23-15.59l-1-6-.46-3-.1-.62V419Z"/><path class="cls-1" d="M91.13,352l-5.4,6.38c-15-1.13-19.71-3.35-21.63-5.52,2.07-.18,5.34-1.53,10.65-1.74C78.08,351,86.89,352.05,91.13,352Z"/><path class="cls-1" d="M279.38,150.72a6.49,6.49,0,0,1,.43-4.2c.19-.36.65-.23.69.2.07.84.22,1.7.38,2.57,0,.27.36,2.53.82,5.14a64.1,64.1,0,0,1,.89,7.16,16.57,16.57,0,0,1-1.77,9.12,10.8,10.8,0,0,1-3.43,3.65,14.2,14.2,0,0,1-4.46,1.9,20.68,20.68,0,0,1-2.32.46,1.5,1.5,0,0,1-.42,0h-.89a11.7,11.7,0,0,1-1.18,0,17.9,17.9,0,0,1-4.7-1,13.12,13.12,0,0,1-3.73-2.16,17.53,17.53,0,0,1-4.45-5.68,29,29,0,0,1-2.33-6.62c-.16-.76-.31-1.53-.48-2.26a31,31,0,0,1-.54-4.25c-.06-1.07-.1-2.25-.09-3.42,0-.61,0-1.14,0-1.79.05-1.12.17-2.16.27-3.15,1,.23,1.94.43,2.8.59l1.26.22,1.44.24a53.7,53.7,0,0,0,11.45.8c.54,0,1.12-.1,1.62-.09a11.68,11.68,0,0,0,3.46-.46,18.13,18.13,0,0,0,4.51-1.69,15.89,15.89,0,0,0,2-1.23c.58-.42.51,0,.34.25-.49.58.05.27.19.3s.11,0,.1.08a2.79,2.79,0,0,1-.3.35c-.2.22-.52.47-.89.8a15.09,15.09,0,0,1-3.1,1.87,23.73,23.73,0,0,1-5.72,1.69c-.07,0-1,.15-2.44.27s-3.29.17-5.21.12a70.89,70.89,0,0,1-8.59-.79l-.41-.06,0,0-.11-.05s0,0,0,0v.27c0,.23,0,.48,0,.75,0,1.09,0,2.51.12,3.93a43.73,43.73,0,0,0,.83,5.81,34.75,34.75,0,0,0,2,6.29,7.07,7.07,0,0,0,.62,1.15,13.93,13.93,0,0,0,3.69,4,12.09,12.09,0,0,0,5,2.08,15,15,0,0,0,2.85.23H270a2.21,2.21,0,0,0,.27,0l.7-.13a10.88,10.88,0,0,0,1.4-.3c.34-.08.68-.14,1-.25a6.84,6.84,0,0,0,1.2-.43,8.79,8.79,0,0,0,4.55-4.39,15.12,15.12,0,0,0,1.1-6.64c0-.54,0-2.09-.14-3.7s-.31-3.24-.42-3.87S279.5,151.36,279.38,150.72Z"/><path class="cls-3" d="M270.24,190.17s0,0,0,0,.1.06.11.09l1.29,10.7s0,.07-.09.11,0,0,0,0a9.58,9.58,0,0,0,3.14-.38l0,0c-.07,0-.1-.05-.11-.09l-.05-.43-1.24-10.26s0-.07.08-.11,0,0,0,0a5,5,0,0,0-1.59.07A5.07,5.07,0,0,0,270.24,190.17Z"/><path class="cls-1" d="M267.89,203.5l9.58-1.43c.72-.1,3.25-.62,3.41-1.54S279,200,278.57,200L269,201.45c-.72.11-3.25.63-3.41,1.55s1.85.57,2.31.5Z"/><path class="cls-1" d="M270.53,172.27c-9.23,1.32-12.61-8.49-12.61-13.05,0,0,11.74,3.63,19.64-1.54C277.56,157.68,281.92,170.75,270.53,172.27Z"/><path class="cls-1" d="M114.36,195.84c-5.1,27.23-10.86,54.34-16.26,81.52-2.58,13-5.25,26-9,38.67-3.74,12.54-7.22,27-15.88,37.18-1.16,1.36,1.62,1.63,2.39.72,7.72-9.05,10.92-21,14.52-32.1a357.4,357.4,0,0,0,10.24-41.21c5.6-28.36,11.63-56.64,17-85.05.25-1.33-2.7-.92-2.93.27Z"/><path class="cls-1" d="M106.11,353.62c10.07-26.13,14.51-54.46,18-82.1q2.53-19.77,4-39.66c.46-6.14.86-12.28,1.12-18.43.15-3.59.77-7.78,0-11.34-.25-1.14-3.15-.41-2.9.77.85,3.93.09,8.6-.09,12.57q-.44,9.19-1.17,18.36-1.56,20-4.13,39.87c-3.53,27-8,54.71-17.81,80.26-.42,1.09,2.51.76,2.91-.3Z"/><path class="cls-1" d="M140.1,208.24c.36,24.13-.29,48.31-2.07,72.38-1.85,25.15-4.73,50.61-11.88,74.87-.31,1.05,2.61.66,2.91-.35,7.32-24.85,10.18-51,12-76.74,1.68-23.59,2.28-47.29,1.93-70.94,0-1-2.92-.38-2.9.78Z"/><path class="cls-1" d="M153.45,361.94c4.71-16.11,7-33.61,8.19-50.35.1-1.41-2.84-.95-2.92.26-1.17,16.75-3.49,34.24-8.19,50.35-.37,1.26,2.58.91,2.92-.26Z"/><path class="cls-1" d="M100.38,223.72c6.67,3.43,14.87,5.07,22.16,6.47a115,115,0,0,0,43.24.43c1.72-.33,3.16-2.46.55-2a110.36,110.36,0,0,1-42.85-.7c-6.65-1.35-14-2.86-20.09-6-1-.52-4.49,1-3,1.76Z"/><path class="cls-1" d="M92.3,258c3,.22,6.4,2.58,9.09,3.82a137.12,137.12,0,0,0,17.13,6.79c12.76,3.93,26.14,4.91,38.75-.06,1.85-.73.21-2.23-1.26-1.64-13.75,5.41-28.55,2.74-42-2.32-4.59-1.73-9-3.78-13.48-5.85-2.23-1-4.73-2.6-7.24-2.78-1.38-.1-3,1.9-1,2Z"/><path class="cls-1" d="M82.45,295a106.89,106.89,0,0,0,25.63,8.74,126.13,126.13,0,0,0,24.65,2.84c8.47.14,18.87.3,26.93-2.53,2.86-1,.25-2.4-1.7-1.71-3.89,1.36-9.17,1.31-13.27,1.59a120,120,0,0,1-14.19.13,121.94,121.94,0,0,1-22.73-3.3,102,102,0,0,1-21.85-7.82c-1.22-.62-5.22,1.18-3.47,2.06Z"/><path class="cls-1" d="M71.87,330.74c1.74,0,4.31,1.09,6.37,1.71A146.72,146.72,0,0,0,92.71,336c22.58,4.38,45.83,5.09,68.76,5.12,1.86,0,4.53-2.8,1.6-2.81-23.06,0-46.57-.64-69.25-5.24q-7-1.41-13.73-3.47C78,329,75.71,328,73.47,327.94c-1.87,0-4.54,2.75-1.6,2.8Z"/><path class="cls-1" d="M185.12,245.16c-4.87,10.2-16.25,19.31-26.91,23.1-1.61.58-.15,1.51,1,1.1,11.1-3.95,23.13-13.45,28.21-24.1.53-1.11-1.93-.88-2.3-.1Z"/><path class="cls-1" d="M178,278c5.83-2.59,11-9.31,14.84-14.15,6.22-7.93,11.48-17.66,10-28-.08-.53-2.56,0-2.47.66,1.48,10.16-3.65,19.77-9.73,27.54-3.54,4.52-8.61,11.21-14,13.63-1.48.65.82.64,1.43.36Z"/><path class="cls-1" d="M217.81,265.1c0-1.27,1.75-3.62,2.19-4.92a39.28,39.28,0,0,0,1.66-7.33,61.59,61.59,0,0,0,.16-13.16,105.91,105.91,0,0,0-3.66-19.08c-.29-1.07-2.75-.41-2.46.66a108.64,108.64,0,0,1,3.53,17.78,60.78,60.78,0,0,1-.06,14,37.87,37.87,0,0,1-1.65,7.21c-.42,1.22-2.19,3.75-2.19,5.05s2.48.82,2.48-.22Z"/><path class="cls-1" d="M197,278.71c-7.5-1.74-15.29-6.73-21.9-10.44-12-6.72-24.1-14.83-32.22-26.12-.42-.58-2.64.42-2.46.66,8.17,11.37,20.3,19.52,32.36,26.29,6.71,3.77,14.57,8.78,22.19,10.55.56.13,2.69-.79,2-.94Z"/><path class="cls-1" d="M219,262.63c-7.6,1.66-16-1.54-22.81-4.62a131.43,131.43,0,0,1-23.52-14.12,154.59,154.59,0,0,1-19.21-16.47c-4-4.1-8.63-8.81-10.53-14.35-.22-.64-2.66.08-2.46.66,2,5.91,7.09,11,11.38,15.27a159.51,159.51,0,0,0,22.44,18.56c12.21,8.42,29.31,19.37,44.94,15.94,1.46-.32,1.23-1.19-.23-.87Z"/><path class="cls-1" d="M199,234.93c7.44,9.62,24.37,11.93,35.78,12.15,1.17,0,2.52-1.72.86-1.76-10.93-.2-27.28-2.28-34.38-11.47-.67-.86-3,.1-2.26,1.08Z"/><path class="cls-1" d="M216.08,220.68a41.61,41.61,0,0,0,27.74,15.91c.64.08,2.86-1,1.56-1.16-11-1.39-20.18-7.07-27-15.64-.43-.55-2.79.28-2.31.89Z"/><path class="cls-1" d="M86.2,359.61c12.58-.64,25.64,2.11,38,4.3,11.26,2,22.51,4.18,33.62,6.89,4.38,1.07,10.11-6.11,4.13-7.57-11.52-2.81-23.2-5.07-34.88-7.11-12.71-2.22-26-4.81-39-4.15-4.87.25-8.38,8-1.83,7.64Z"/><path class="cls-1" d="M87.88,363.09c10.48.14,21.34,2.83,31.57,4.81,6.78,1.3,13.54,2.71,20.23,4.41,4.19,1.05,9.39,2.11,13,4.21a7.35,7.35,0,0,0,6.91.18c1.3-.67,3.43-2.84,1.31-4.08-10.39-6.07-24.27-7.73-35.88-10-11.4-2.23-23.5-5.15-35.16-5.31-1.72,0-5.45.55-5.86,2.73s2.14,3,3.89,3Z"/><path class="cls-1" d="M89.86,369.1c12.62-.13,25.87,3.29,38.06,6.17,6.82,1.6,13.61,3.37,20.27,5.55a71.14,71.14,0,0,1,6.94,2.55,30,30,0,0,1,2.72,1.36c-.35-.2.37.38.2.18,3,3.56,11.3,2.29,7.09-2.73-3.2-3.8-8.86-5.57-13.36-7.17a216,216,0,0,0-22.16-6.31c-14.19-3.4-29.24-7.11-43.92-7-2.35,0-3,2.33-2.13,4.13,1.08,2.27,4,3.26,6.29,3.24Z"/><path class="cls-1" d="M89.49,371.62c10.9,3.61,22.71,5,33.92,7.39,6.68,1.43,13.4,2.9,19.94,4.89,2.94.9,9.57,2.15,11.23,5.19,1.5,2.75,9.87-.17,8.69-2.33-1.84-3.38-6.61-4.76-10-5.92a191.9,191.9,0,0,0-20-5.29c-12.11-2.71-25-4-36.8-7.94a7.65,7.65,0,0,0-6.14.89c-.89.58-2.88,2.44-.83,3.12Z"/><path class="cls-1" d="M85.34,375.24c12.43,5,26.56,6.73,39.59,9.51,7.42,1.57,14.84,3.13,22.2,5,3.09.78,9,1.39,11.27,3.9,1.66,1.82,9.85-1.26,8.15-3.12-2.37-2.59-8-3.32-11.13-4.14-7.39-1.92-14.86-3.48-22.32-5.07-13.39-2.86-27.93-4.65-40.7-9.75-2.14-.85-10,2.49-7.06,3.68Z"/><path class="cls-1" d="M87.05,388.34a261.27,261.27,0,0,1,40.48,6.36c5.91,1.36,11.82,2.85,17.57,4.79,2.77.93,6.92,2.33,8.05,3.92,3.22,4.53,17.2-.6,13.38-6-2.16-3-6.82-4.45-10.12-5.68a157.23,157.23,0,0,0-18.93-5.42,282.68,282.68,0,0,0-45-7.18c-3.18-.21-7.93,1.08-9.51,4.16s1.37,4.82,4.13,5Z"/><path class="cls-1" d="M88.22,395.75c11.49.1,23.2,2.65,34.39,5,6.14,1.31,12.27,2.74,18.29,4.53,3.9,1.16,8.62,2.37,12,4.46,2.79,1.75,6.6,1.06,9.51-.14,1-.41,6.7-3.63,4-5.31-9.72-6.07-22.48-8.18-33.5-10.56-12.67-2.75-25.83-5.41-38.84-5.53-3,0-7.87,1.08-9.6,3.81s1.53,3.69,3.78,3.71Z"/><path class="cls-1" d="M86.76,402.78c12.16.06,24.39,1.57,36.43,3.1,6,.75,12,1.59,18,2.63,3.21.56,6.78.95,9.78,2.32s7.59-.14,10.2-1.61c1.79-1,4.54-3.32,1.52-4.69-3.36-1.54-7.37-2-11-2.65-6.42-1.17-12.88-2.06-19.35-2.88-13.11-1.66-26.38-3.16-39.61-3.22-2.84,0-8,1.09-9.63,3.7s1.49,3.3,3.67,3.3Z"/><path class="cls-1" d="M84.88,403.59c1.57,6.24,1.51,13,2.05,19.4.37,4.26-.09,11.39,2.75,15,1.82,2.3,11.53,2.4,8.89-.93-.64-.82-.9-4.11-1.08-5.53-.43-3.43-.68-6.89-1-10.34-.46-5.69-.53-11.69-1.93-17.24-.75-3-10.59-3.78-9.72-.32Z"/><path class="cls-1" d="M94.53,401.31c-2.88,7-3.13,14.39-3.21,21.84,0,3.24-.12,6.47-.1,9.71,0,2.88.89,7.87-1,10.36-3.26,4.37,6,2.41,7.76.06,3.83-5.12,2.5-12.37,2.59-18.4.12-8.29-.46-17.16,2.76-25,1.61-3.89-7.7-1.31-8.82,1.41Z"/><path class="cls-1" d="M100.42,405.57c.1,13-4,25.5-4.17,38.45,0,3.19,9.27.15,9.31-2.74.21-12.95,4.27-25.49,4.17-38.45,0-3.24-9.33-.13-9.31,2.74Z"/><path class="cls-1" d="M106.56,403.18c3,5.94,2.81,14.31,3.22,20.81.44,6.8.7,13.62.72,20.43,0,1.33,5.8.39,5.79-1.55,0-6.81-.28-13.64-.71-20.44-.42-6.49-.18-14.86-3.22-20.8-.86-1.68-6.45.29-5.8,1.55Z"/><path class="cls-1" d="M83.25,358.7c-.06,14.41-1.29,28.82-1.78,43.22-.28,8.47-.51,16.95-.33,25.42.12,5.61.08,11.74,1.75,17.15s10.75,1.39,9.18-3.69-1.37-10.72-1.46-15.94c-.15-8.54.09-17.09.39-25.63.49-14,1.68-28,1.73-42,0-6-9.46-3.79-9.48,1.48Z"/><path class="cls-1" d="M104.36,414.91c1.51,2.92.17,8.87-.22,12.16-.45,3.85-1.23,7.7-1.48,11.58-.15,2.44.86,5.22,3.26,6.27,2,.86,4.58,0,4.73-2.45.61-9.67,5.15-21.85.4-31-2.86-5.54-9.56-2.07-6.69,3.47Z"/><path class="cls-1" d="M116.41,399.65c-4.73,10.29-5.91,23.48-6.93,34.61-.48,5.22,9,8.13,9.57,2.49.56-6.13,1.51-12.24,2.65-18.3.89-4.68,1.58-9.84,3.59-14.2,2.27-4.93-6.62-9.52-8.88-4.6Z"/><path class="cls-1" d="M118.86,405.22q4.71,19.54,9.64,39c.8,3.18,10.15-.22,9.24-3.83q-4.92-19.5-9.64-39.06c-.77-3.17-10.11.21-9.24,3.84Z"/><path class="cls-1" d="M126.75,406.35c5,5.81.19,46.64,16.09,39.26,5.63-2.62-1.68-8.6-6.19-6.51q7.71,4.08,5.91.91v.11a6.78,6.78,0,0,0-.46-1.72,43.78,43.78,0,0,1-.78-4.58c-.56-4.09-.92-8.2-1.39-12.3-.72-6.3-1-14.54-5.38-19.59-3.31-3.83-11.92-.33-7.81,4.42Z"/><path class="cls-1" d="M132.93,406.82c-3.85-2.07-1.57-1.81-1.34-.32a16.78,16.78,0,0,0,1,2.52,55.87,55.87,0,0,1,1.54,5.42c1.12,4.58,1.89,9.23,2.69,13.87,1,6.15,1.31,14.33,6.71,18.47.91.69,4,3,5.11,1.62s-1.87-4-2.67-4.66c2.92,2.23,1.33,1.08.73-1.37-.47-1.91-.82-3.85-1.16-5.79-.89-4.92-1.64-9.86-2.67-14.75-1.7-8.15-3.92-16.56-11.77-20.79-1.58-.86-3-.92-3.07.95s3.57,4.13,4.89,4.83Z"/><path class="cls-1" d="M135.69,406.46c3.52,8.23,4.14,17.8,6.56,26.38,2.13,7.57,5.66,16,15.22,13.44,2.18-.57,1.88-2.51.53-3.71-1.78-1.57-4.87-1.55-7-1,5-1.32,5.5,2.2,3.63-1.32A26.9,26.9,0,0,1,153,436a110.67,110.67,0,0,1-2.89-10.9c-1.4-6.15-2.15-12.88-4.64-18.71-1.39-3.24-11.23-3.43-9.75,0Z"/><path class="cls-1" d="M144.54,408.51c2.39,6.58,2.51,14.22,3.64,21.09.69,4.19,1.13,14.09,6.09,15.83,2.09.74,9.91-2.57,7.09-3.57-1.73-.61-2.42-4.67-2.8-6.13a103.93,103.93,0,0,1-2-10.64c-1-6.17-1.15-13-3.29-18.91-.83-2.29-9.43.32-8.7,2.33Z"/><path class="cls-1" d="M151.36,409.85c1.84,5.7,1.73,12.25,2.23,18.16.43,5.07.06,12.26,2.72,16.8,1.55,2.64,9.83-.39,8.69-2.33-2.66-4.54-2.28-11.72-2.71-16.79-.51-5.92-.4-12.47-2.23-18.17-.87-2.67-9.52-.22-8.7,2.33Z"/><path class="cls-1" d="M153.4,367.67c1.91,2.24,2.22,8.85,2.6,12.15.86,7.57,1.29,15.19,1.64,22.8q.88,19.58.89,39.18c0,3.34,9.94,4.11,9.94,1.11,0-13.82-.32-27.66-1-41.47-.37-7.57-.81-15.17-1.79-22.69-.51-3.93-.73-9.22-3.44-12.39-1.88-2.21-11.58-1.9-8.83,1.31Z"/><path class="cls-1" d="M165.28,151.56c.06-.18.26,0,.55.4a2.06,2.06,0,0,1,.29.64,2.33,2.33,0,0,1-.07.41,7.79,7.79,0,0,1-.93.76,2,2,0,0,1-.78.34,7.56,7.56,0,0,1-1.83.25,1.8,1.8,0,0,1-.45-.09c-.49-.2-1-.35-1.49-.57a.46.46,0,0,0-.27-.08.69.69,0,0,1-.31-.11,4.66,4.66,0,0,1-.46-.37,2.82,2.82,0,0,1-.57-.72,7.24,7.24,0,0,1-.27-1.27c0-.06-.05-.11,0-.18s.07-.27.06-.39a1.93,1.93,0,0,1,0-.48,1,1,0,0,1,.18-.27c.06-.08.36-.1.4-.08s.23,0,.35-.07l.12,0a7.08,7.08,0,0,1,.78.62,2.68,2.68,0,0,0,.27.41c.15.18.3.34.35.34s0,.08,0,.13.13.1.26.14.25.06.26.08.2,0,.24.23c0,0,0,0,.06,0,.2,0,.41.1.67.13a1.06,1.06,0,0,0,.39,0l.08,0s.07,0,.1,0a2.83,2.83,0,0,0,1-.28c.07,0,.52,0,.6-.05S165.25,151.63,165.28,151.56Z"/><path class="cls-1" d="M163.73,118.7c.26-.1.43.19.49.69a1.44,1.44,0,0,1-.16.67c-.15.1-.29.2-.42.27a15.74,15.74,0,0,0-1.61.2,10.52,10.52,0,0,1-1.11.14,15.41,15.41,0,0,0-2.27.39,2.33,2.33,0,0,1-.53.06,6.27,6.27,0,0,0-1.85.37.58.58,0,0,0-.29.15,7.38,7.38,0,0,1-2.11.59c-.6,0-1.2,0-1.8,0-.09,0-.18,0-.26,0a.7.7,0,0,0-.56-.12,2.82,2.82,0,0,1-.76-.09,1.16,1.16,0,0,1-.36-.22c-.11-.08,0-.37,0-.41s0-.23,0-.35a.57.57,0,0,1,0-.13,14.35,14.35,0,0,1,1.41-.66,13.61,13.61,0,0,0,2.06-.57.79.79,0,0,1,.34,0c.05,0,1.53-.57,1.59-.58a2.22,2.22,0,0,1,1-.16.34.34,0,0,0,.2,0,11.17,11.17,0,0,1,1.74-.35c.31,0,.61-.12.92-.18a1,1,0,0,1,.17,0,.81.81,0,0,0,.22,0c.73-.13,1.48-.09,2.23-.16.18,0,1,.24,1.19.23S163.63,118.73,163.73,118.7Z"/><path class="cls-1" d="M159.26,124.68c.15,0,.08.21-.15.49a2.2,2.2,0,0,1-.4.34l-.27.08a2.5,2.5,0,0,0-.53-.06.7.7,0,0,1-.3,0,1.25,1.25,0,0,0-.57-.06.22.22,0,0,1-.13,0,.41.41,0,0,0-.45.05s-.05,0,0,.08-.31.34-.37.36a1.3,1.3,0,0,0-.46.22s0,0-.08,0-.16,0-.18.09a1.29,1.29,0,0,1-.16.18.81.81,0,0,1-.2.08.64.64,0,0,1-.3-.06c-.06-.06-.17,0-.26-.06l-.09,0a1.51,1.51,0,0,1-.18-.84,3.47,3.47,0,0,1,.21-.51,5.62,5.62,0,0,1,.34-.55c0-.05.1-.07.16-.1a4.71,4.71,0,0,1,.69-.64c.17-.07.33-.2.55-.13,0,0,.07,0,.11,0a2,2,0,0,1,.93-.07c.16,0,.31,0,.47,0l.07,0s.07,0,.1,0a5.64,5.64,0,0,1,1,.36c.08,0,.32.38.4.42S159.2,124.68,159.26,124.68Z"/><path class="cls-1" d="M116.85,170.46a63.58,63.58,0,0,0,17.79,9.61c4.9,1.79,10.39,3.41,15.59,2.09,1.73-.44,1.38-1.8-.37-1.36-5.31,1.34-11.83-1.5-16.6-3.56a61,61,0,0,1-13.72-7.89c-.76-.61-3.43.52-2.69,1.11Z"/><path class="cls-1" d="M104.38,126.81c-2.43,7.16,4.2,14.08,11,14.73,1,.09,5-1.6,2.81-1.81-6-.57-11.57-7.6-9.5-13.68.29-.84-3.9-.38-4.29.76Z"/><path class="cls-1" d="M298.39,216.73a1.79,1.79,0,0,1,0-1.83c.09-.19.56-.29.68-.14a10.64,10.64,0,0,1,.67.87s.12.28.29.59l.7,1.12c.27.41.63.8.91,1.17a11,11,0,0,0,.81.83c.37.39.8.74,1.21,1.1s.85.7,1.29,1a44.75,44.75,0,0,0,5.93,3.65c.46.26.92.54,1.36.83,1.53,1,3.15,1.92,4.74,3,.27.16.52.36.81.5a8.58,8.58,0,0,1,.93.62c.46.34,1,.85,1.56,1.34,1,1,2,2,2.17,2.3,1,1.3,2,2.59,2.89,3.91a2.11,2.11,0,0,1,.37.58,4.32,4.32,0,0,0,.77,1.27c.4.56.8,1.12,1.15,1.71a5.34,5.34,0,0,1,.41,1c.12.29-.22.33-.31.27-.25-.19-.22.09-.3.19s-.06.07-.1.08a3.87,3.87,0,0,1-.48-.44l-1-1c-.73-.74-1.5-1.5-1.63-1.67l-.62-.73-1.35-1.53c-1-1.12-2.11-2.23-2.34-2.45a6.92,6.92,0,0,1-.66-.76,18.71,18.71,0,0,0-1.75-1.55,23,23,0,0,0-1.89-1.35,26.11,26.11,0,0,1-2.26-1.57,2.88,2.88,0,0,0-.47-.3c-1.41-.77-2.82-1.59-4.23-2.43-.73-.44-1.48-.82-2.21-1.27-.13-.08-.25-.19-.37-.28s-.31-.23-.48-.33a28.21,28.21,0,0,1-4.82-3.9,9.55,9.55,0,0,1-1-1.34c-.36-.62-.77-1.21-.88-1.47S298.55,217,298.39,216.73Z"/><path class="cls-1" d="M306.34,217.71c.16-.08.25.12.34.49,0,.12,0,.47,0,.52a1.69,1.69,0,0,1-.35.22,6.27,6.27,0,0,1-1.48-.08,3.13,3.13,0,0,1-1-.32,10,10,0,0,1-1.78-1.07,1.47,1.47,0,0,1-.32-.34,14.48,14.48,0,0,0-1.05-1.15.55.55,0,0,0-.2-.17,2.6,2.6,0,0,1-.58-.61,5.8,5.8,0,0,1-.46-.75c-.15-.43-.28-.86-.42-1.27,0-.06-.07-.11,0-.19a.46.46,0,0,0,0-.42,3.58,3.58,0,0,1-.14-.54.89.89,0,0,1,.06-.31c0-.1.25-.14.28-.12s.17,0,.25-.09l.09,0a6,6,0,0,1,.84.83s.2.31.41.62a3.59,3.59,0,0,0,.5.66.8.8,0,0,1,.1.23,9.15,9.15,0,0,0,.8.85c.13.18.33.29.39.54a.23.23,0,0,0,.08.11c.3.23.54.53.84.77a3.17,3.17,0,0,0,.49.32.27.27,0,0,1,.07.08.43.43,0,0,0,.1.09,5,5,0,0,0,1.25.57,5.94,5.94,0,0,0,.67.32C306.09,217.46,306.27,217.74,306.34,217.71Z"/><path class="cls-1" d="M306,213.15c.15,0,.17.17.14.55a1.12,1.12,0,0,1-.19.48,1.82,1.82,0,0,1-.32.15,7.77,7.77,0,0,1-1.11-.19,3,3,0,0,1-.72-.29c-.46-.26-.92-.53-1.36-.84a.94.94,0,0,1-.25-.24,5.23,5.23,0,0,0-.89-.87s-.09-.1-.18-.11a2,2,0,0,1-.52-.46,4.21,4.21,0,0,1-.43-.59c-.11-.39-.27-.73-.34-1.12,0-.05-.05-.1,0-.16s0-.25,0-.37a1.83,1.83,0,0,1,0-.47.63.63,0,0,1,.11-.26c0-.07.27-.08.3-.07s.17,0,.26,0l.1,0c.06,0,.6.58.66.62a4,4,0,0,0,.69.89c.05,0,.06.1.08.16a6.4,6.4,0,0,0,.68.57c.11.13.28.2.32.42,0,0,.05.05.07.07a8,8,0,0,1,.71.6,3.42,3.42,0,0,0,.4.26s0,0,.06.07a.3.3,0,0,0,.08.08,5.14,5.14,0,0,0,1,.54c.08,0,.39.35.5.37S306,213.17,306,213.15Z"/><path class="cls-1" d="M386.05,170.58a15.76,15.76,0,0,1-6.12-5.16,23.24,23.24,0,0,1-3.29-7,36.32,36.32,0,0,1-1.22-5.38,84.22,84.22,0,0,1,.05-19c.27-2.77.54-5.56.8-8.31.36-3.53.68-7.08,1.36-10.52.42-2.17,2.7.9,2.19,5-.9,7.16-1.88,14.22-2.35,21.39a52,52,0,0,0,.88,13,28.61,28.61,0,0,0,2.13,6.68,15.13,15.13,0,0,0,4.15,5.39,13.71,13.71,0,0,0,7.82,2.86,14.42,14.42,0,0,0,6.36-.93,19.69,19.69,0,0,0,5.58-3.38,34.35,34.35,0,0,0,6.44-7.87l1.16-1.93c1.46-2.41,2-3.12,2.95-3.3a3,3,0,0,1,.63-.11c.6,0,.45,1.28-.5,3.19a42.93,42.93,0,0,1-5.31,8.25,26.48,26.48,0,0,1-8,6.7,17.3,17.3,0,0,1-7.81,2.09,18.42,18.42,0,0,1-7.94-1.57Z"/><path class="cls-1" d="M386,180.48c-1.35-.16-2.7-.29-4-.32a11.36,11.36,0,0,0-3.61.37,1.69,1.69,0,0,0-.36.13l-.15.07-.06,0c-.05,0-.12.05-.13.12v.06l0,.11-.09.49-.16,1c-.19,1.33-.33,2.68-.39,4a26,26,0,0,0,.35,5.75c.29,1.58.87,3.14,1.85,3.82a2.76,2.76,0,0,0,.8.36,11.07,11.07,0,0,0,1.16.18c.86.09,1.72.15,2.6.18a78.37,78.37,0,0,0,10.58-.49,90.85,90.85,0,0,0,9.34-1.51c2-.41,3.92-.91,5.85-1.44a43.42,43.42,0,0,0,5.51-1.8c.46-.23.59-.15.84,0s.28.63-.07,1.24A8.26,8.26,0,0,1,411,196a93.26,93.26,0,0,1-12.38,2.49,87.15,87.15,0,0,1-12.64.86c-1.28,0-2.57-.06-3.89-.14-.65-.05-1.32-.11-2-.2a5.29,5.29,0,0,1-2.34-.83,6.17,6.17,0,0,1-1.66-1.77,9.62,9.62,0,0,1-.93-2,17.74,17.74,0,0,1-.74-4.06,41,41,0,0,1,.44-8.66l.18-1.07.07-.35a2.92,2.92,0,0,1,.1-.4,2.27,2.27,0,0,1,.36-.71c.21-.18.42-.36.64-.52s.49-.25.66-.35a7.71,7.71,0,0,1,1.17-.4,16.84,16.84,0,0,1,4.48-.34A103.16,103.16,0,0,1,393,178.8c5.16.76,10.36,1.61,15.46,1.41a22.92,22.92,0,0,0,3.11-.32c.5-.09,1-.2,1.49-.33a16.84,16.84,0,0,0,1.69-.54,6.86,6.86,0,0,1,1-.18,1.38,1.38,0,0,1,.87.42,4.63,4.63,0,0,1,1,1.78,22.31,22.31,0,0,1,.76,2.85c.18.89.35,1.75.46,2.66a8.16,8.16,0,0,1,0,2.36,5,5,0,0,1-.55,1.6,2.15,2.15,0,0,1-1.44,1.18,2.88,2.88,0,0,1-.67.09c-.32-.05-.34-.41-.21-1a11.72,11.72,0,0,0,.4-2.24,5.49,5.49,0,0,0-.06-1l-.19-1.19c-.14-.81-.3-1.62-.48-2.42-.1-.39-.19-.79-.3-1.17l-.17-.55-.09-.27a1.44,1.44,0,0,0-.06-.16c-.05-.07-.12-.11-.18,0l-.08,0,0,0-.2,0-.78.22c-.53.15-1.05.23-1.58.34a31,31,0,0,1-3.15.35,47.69,47.69,0,0,1-6.22-.1c-5.74-.42-11.32-1.54-16.8-2.15Z"/><path class="cls-1" d="M327.59,246.1a76.57,76.57,0,0,0,8.42-7.89c1.95-2.14,4.56-4.81,5.15-7.75.16-.83-2.72-.36-2.88.45-.57,2.86-3,5.34-4.92,7.41a72.55,72.55,0,0,1-8,7.55c-1.19,1,1.68.7,2.26.23Z"/><path class="cls-1" d="M412.57,258.9a131,131,0,0,0,11.86-17.45,87.32,87.32,0,0,0,4.66-9.4,47.94,47.94,0,0,0,2.82-10,33.43,33.43,0,0,0,.5-7.44,17.69,17.69,0,0,0-.18-1.8,15.75,15.75,0,0,0-.35-1.74c-.12-.58-.38-1.09-.55-1.64-.12-.25-.25-.49-.38-.74a3.1,3.1,0,0,0-.42-.7,5.87,5.87,0,0,0-.9-1.08,6.48,6.48,0,0,0-1.1-.89,6.66,6.66,0,0,0-2.6-1,8.26,8.26,0,0,0-5.55,1.44,23.55,23.55,0,0,0-4.89,4.25,50.69,50.69,0,0,0-4.11,5.28c-2.54,3.71-4.68,7.76-7,11.75s-4.55,8-7,11.92c-2.15,3.49-4.36,6.95-6.82,10.27a54.51,54.51,0,0,1-3.95,4.81,19.61,19.61,0,0,1-5,4.05c-.33.15-.69.29-1,.43s-.77.19-1.15.28a7.34,7.34,0,0,1-1.24,0,6,6,0,0,1-1.17-.27l-1.89-.63-1.87-.74a29.3,29.3,0,0,1-6.94-4.17c-2.07-1.69-3.95-3.45-5.93-5.07s-4-3.14-6.12-4.61c-2.64-1.79-1.91-2.23.81-1.37a26.64,26.64,0,0,1,5.28,2.47A44.93,44.93,0,0,1,367,250a29.92,29.92,0,0,0,6.1,4.25c.57.26,1.12.54,1.69.78s1.16.48,1.75.69l1.79.62a2.22,2.22,0,0,0,1,0A7.46,7.46,0,0,0,382,255a23.72,23.72,0,0,0,2.67-2.48,63.55,63.55,0,0,0,4.82-6c6.06-8.52,11.08-17.87,16.52-27.12a77.25,77.25,0,0,1,5.54-8.17,30.79,30.79,0,0,1,7.39-7.08,12.26,12.26,0,0,1,5.15-1.91,9.11,9.11,0,0,1,5.56,1.21c.4.24.79.49,1.17.77l1.08,1a10.53,10.53,0,0,1,.9,1.1,5.92,5.92,0,0,1,.73,1.2,13.81,13.81,0,0,1,1.05,2.53,21.59,21.59,0,0,1,.52,2.59,26.15,26.15,0,0,1,.14,5.65,42,42,0,0,1-.74,5.51,50.61,50.61,0,0,1-3.25,10.54,116.86,116.86,0,0,1-10.8,18.91,110.9,110.9,0,0,1-17.58,20.15,59.61,59.61,0,0,1-8.23,6,35.58,35.58,0,0,1-9.44,4.09,22.82,22.82,0,0,1-10.33.37,15.66,15.66,0,0,1-2.52-.69,18.51,18.51,0,0,1-2.39-.93c-1.58-.63-3.07-1.44-4.58-2.2a93.76,93.76,0,0,1-12.91-8.65c-4.06-3.16-7.92-6.52-11.74-9.92l-5-4.48c-6.23-5.63-8.14-7.44-9-9.19a7.9,7.9,0,0,1-.58-1.18c-.27-1,2.79.76,7.53,4.76,7,5.93,13.83,12.38,21.23,18.16a89.38,89.38,0,0,0,11.63,7.84l3.11,1.57c1.06.44,2.13.95,3.18,1.34a18.77,18.77,0,0,0,6.39,1.12,24.42,24.42,0,0,0,9.63-2.25,44.13,44.13,0,0,0,8.82-5.32,86.58,86.58,0,0,0,14.89-14.93Z"/><path class="cls-1" d="M380.38,207.46a2.06,2.06,0,0,1,.89-1.72c.18-.14.64,0,.68.18.06.41.12.83.14,1.24,0,.26-.4,4.17-.52,5.5s-.32,2.57-.53,3.85c-.42,2.59-.82,5.19-1.24,7.79-.09.57-.2,1.15-.34,1.71-.47,2-.8,3.93-1.08,5.91a4.85,4.85,0,0,0-.1,1c0,.54-.85,5.9-1,6.59-.42,1.7-.79,3.41-1.18,5.12a2.47,2.47,0,0,1-.19.72,5.05,5.05,0,0,0-.44,1.56c-.14.74-.29,1.47-.48,2.2a8.38,8.38,0,0,1-.4,1,.21.21,0,0,1-.41,0c0-.35-.22-.1-.35-.09s-.1,0-.13,0,.12-4.39.2-4.85c0-.11.86-6.35.94-7.06a8.27,8.27,0,0,1,.23-1.1c0-.18.68-5.17.71-5.37a21.4,21.4,0,0,1,.62-3.07,3,3,0,0,0,.12-.61c.25-1.77.61-3.53.94-5.29.16-.9.28-1.81.43-2.72,0-.16.08-.32.12-.48s.1-.4.14-.61c.32-2.14.76-4.27,1-6.42.06-.5.66-2.82.72-3.39C379.9,208.74,380.39,207.75,380.38,207.46Z"/><path class="cls-1" d="M371.45,333.93c-.06,1.39-.22,3.7-.32,5.67-8.75-.58-10-2.17-10-2.17C363.06,336.82,367.18,335,371.45,333.93Z"/><path class="cls-1" d="M383.29,331.5c-3,.67-5.93,1.37-8.88,2.12L370,334.79l-2.17.65-1.08.33-.27.08-.23.07L366,336l-.95.34-2.76,1-.69.25-.34.13-.17.06c-.05,0-.16.1-.12,0l.2-1.46.41-2.91.34-2.28,3.77-23.29c.54-3.45,1-6.93,1.44-10.36.57-4.42,1-8.87,1.92-13.22.58-2.72,2.9,1.16,2.2,6.24-1.22,9-2.62,18-4.31,27-.5,2.69-.93,5.46-1.33,8.24-.2,1.39-.39,2.78-.59,4.18l-.3,2.09-.15.93-.07.4c0,.05,0,.17,0,.16l.18-.06.75-.24,2-.62c.74-.22,1.49-.46,2.24-.66,3-.83,6-1.59,9-2.32,3.7-.88,7.41-1.71,11.12-2.53l16.84-3.6c4.33-1,8.55-2,12.82-3,.94-.22,1.85-.46,2.81-.66,3.52-.76,4.68-.79,5.59-.18a3,3,0,0,1,.61.42c.48.52-.88,1.32-3.43,2-7.58,2-15.64,3.77-23.72,5.53-6,1.3-12,2.58-18,4Z"/><path class="cls-1" d="M319.15,208.37a1.37,1.37,0,0,1-.83-1.14c-.05-.19.15-.56.31-.53a6.36,6.36,0,0,1,1,.23,7.54,7.54,0,0,1,1.6,1.13c.33.35.71.71,1,1.06l.69.9a14.79,14.79,0,0,1,1.49,2.69c.81,1.88,1.46,3.77,2.13,5.6.15.41.28.83.4,1.24a15.65,15.65,0,0,0,1.67,4,2.91,2.91,0,0,0,.4.57c.07.07.24.32.51.62l.41.52c.14.18.33.33.5.51.31.34.77.72,1.11,1s.61.54.7.64c.91,1,1.85,1.86,2.78,2.8a1.48,1.48,0,0,1,.38.41,3.21,3.21,0,0,0,.81.91c.41.38.82.77,1.21,1.18a4.82,4.82,0,0,1,.48.7c.14.22-.13.33-.22.3s-.17.13-.22.22a.43.43,0,0,1-.07.1s-.74-.42-1.47-.88-1.48-1-1.61-1.08l-4.17-3.35a4.76,4.76,0,0,1-.61-.58,5.82,5.82,0,0,1-.53-.47A11,11,0,0,1,328,226.6a13.73,13.73,0,0,1-1.31-1.79c-.22-.37-.41-.73-.59-1.11a4.84,4.84,0,0,1-.43-1.15,2.2,2.2,0,0,0-.17-.45,38.94,38.94,0,0,1-1.4-3.86c-.21-.65-.46-1.3-.69-1.93a2,2,0,0,1-.1-.35,3.81,3.81,0,0,0-.13-.45,23.58,23.58,0,0,0-2-4.25c-.1-.13-.34-.57-.59-1a10.55,10.55,0,0,0-.72-1C319.69,209.15,319.33,208.47,319.15,208.37Z"/><path class="cls-1" d="M321,183.46a30.4,30.4,0,0,1,3.76-.65c.38-.06.66.31.27.66a8.09,8.09,0,0,1-2.48,1.34,28.94,28.94,0,0,1-5.13.9c-2.57.27-5.42.36-6.87.4-2.8.07-5.6,0-8.39-.18l-4.24-.27-2.12-.17-.5,0h0l0,.46.23,2c.11.67.21,1.35.33,2s.27,1.34.43,2l.44,1.75.51,1.74a25.24,25.24,0,0,0,2.51,5.61,18.28,18.28,0,0,0,3.95,4.53,11.34,11.34,0,0,0,1.66,1.06,7.89,7.89,0,0,1,.73.34l.59.3c.23.1.49.18.76.28a9.86,9.86,0,0,0,1.85.54l1.05.22c.35.06.71.07,1.07.11a7.52,7.52,0,0,0,3.76-.69,7,7,0,0,0,1.82-1.31,11.21,11.21,0,0,0,2.65-4.28A26.51,26.51,0,0,0,321,197a13.81,13.81,0,0,1,.24-1.54,15.26,15.26,0,0,0,.33-3.38c0-1.59,0-3.19,0-4.78,0-.79,0-1.57,0-2.35s.34-.37.4-.12c.16.71.24.11.36,0s.09-.06.12,0a2.16,2.16,0,0,1,.09.42c0,.27.1.64.17,1.08.13.9.27,2.1.38,3.34a45,45,0,0,1,.15,5.61c0,.07-.05,1-.22,2.33a28.33,28.33,0,0,1-1,5,15.26,15.26,0,0,1-2.46,5,10.07,10.07,0,0,1-2.53,2.32,7.46,7.46,0,0,1-2.61,1l-.66.15a11.77,11.77,0,0,1-1.48.15h-1l-1-.08c-.71-.1-1.45-.28-2.2-.42s-1.45-.48-2.13-.71-1.25-.62-1.78-.88a18.53,18.53,0,0,1-1.77-1.16,17.69,17.69,0,0,1-4.68-5.39c-.21-.42-.46-.83-.7-1.23a28.45,28.45,0,0,1-2.37-5.51,38.85,38.85,0,0,1-1.38-5.78c-.15-1-.31-2-.41-3l-.08-.75,0-.19,0-.31,0-.62-.16-2.51h.06l2,.23,1.1.12.66.07c4.61.35,9.24.71,13.86.67,1.06,0,6.12.13,7.33-.05A27.93,27.93,0,0,0,321,183.46Z"/><path class="cls-1" d="M299.05,192.61s1.15,13.9,11.62,13.9,8.17-14.9,8.17-14.9A42.38,42.38,0,0,1,299.05,192.61Z"/><path class="cls-3" d="M314.72,240.18s0,0,0,0a.18.18,0,0,1-.11-.1l-.92-11.57s0-.08.09-.12,0,0,0,0a4.62,4.62,0,0,0-1.6,0,4.82,4.82,0,0,0-1.56.26s0,0,0,0,.1.07.1.11l0,.47.89,11.1s0,.07-.09.11,0,0,0,0a9.35,9.35,0,0,0,3.16-.25Z"/><path class="cls-1" d="M307.82,242l9.58-1.46c.65-.09,2.44-.53,2.48-1.41s-1.19-.94-1.85-.84l-9.57,1.46c-.65.1-2.45.53-2.49,1.42s1.2.93,1.85.83Z"/><path class="cls-1" d="M371.13,358.44c.3-6.64,1-12.61,1.25-17.42,1.79-.06,3,.85,4.4,2.29C381.92,348.6,381.66,361,371.13,358.44Z"/><path class="cls-1" d="M372,356.54a2.08,2.08,0,0,1-.7,1.8c-.16.16-.63.11-.69-.09a10.89,10.89,0,0,1-.28-1.23c-.05-.25,0-4.21,0-5.55s.11-2.59.22-3.88l.3-3.91.06-1,.05-.75a7.22,7.22,0,0,1,.07-1l.15-.85.08-.43,0-.11h.34a13.61,13.61,0,0,1,1.8.07,5,5,0,0,1,.83.19,6.51,6.51,0,0,1,.73.29,5.62,5.62,0,0,1,.92.6,10.92,10.92,0,0,1,1.26,1.15c.37.38.73.78,1.1,1.23A14.12,14.12,0,0,1,380,346c.16.33.29.68.48,1a11.2,11.2,0,0,1,.89,3.48,10.68,10.68,0,0,1-.24,3.81,8.59,8.59,0,0,1-1.35,2.75,6.41,6.41,0,0,1-2.41,2,2.21,2.21,0,0,1-.82.3c-.64,0-1.21.17-1.81.23a8.05,8.05,0,0,1-2.41-.18,5.1,5.1,0,0,1-1.08-.44c-.31-.15-.06-.4.06-.41.35,0,.11-.21.11-.34s0-.1,0-.12,1.09.08,2.13,0a7.72,7.72,0,0,0,2.16-.55,4.87,4.87,0,0,0,.76-.37,4.35,4.35,0,0,0,1.27-1.24,6.26,6.26,0,0,0,.94-3c0-.33.08-.65.12-1a10.63,10.63,0,0,0-.33-2.38,12.18,12.18,0,0,0-.82-2.29c-.36-.86-.89-1.61-1.32-2.41a1.74,1.74,0,0,0-.34-.42,12.25,12.25,0,0,0-1.76-1.56,4.91,4.91,0,0,0-.44-.25l-.1,0a.41.41,0,0,0-.19-.05c0,.06,0,.13,0,.2l-.07,1.27c0,.17-.05.33-.07.49a4.55,4.55,0,0,0-.09.63c-.14,2.17-.44,4.32-.52,6.48,0,.5-.41,2.84-.42,3.42C372.31,355.23,371.93,356.25,372,356.54Z"/><path class="cls-1" d="M376,400.4a10,10,0,0,1-6.36-4.22c.14-4,.29-8,.45-11.93a5.72,5.72,0,0,1,.81-.75c3-2.33,6-1.39,8.29.95C384.3,389.73,385.83,402.16,376,400.4Z"/><path class="cls-1" d="M374.12,399.06a3.16,3.16,0,0,1,1.74,1.18c.16.19.06.65-.2.67a6.24,6.24,0,0,1-1.55-.09,9.62,9.62,0,0,1-2.7-1.26,11.21,11.21,0,0,1-1.76-1.43c-.26-.26-.49-.51-.69-.74s-.29-.37-.42-.54l-.2-.25a.9.9,0,0,1,0-.28c0-.87,0-1.72,0-2.56l.07-2.25.16-4.56.08-2.37,0-.57c0-.18-.05-.41.15-.51l.79-.75a7,7,0,0,1,1.08-.84A6.68,6.68,0,0,1,373,381a6.87,6.87,0,0,1,4.19.56,10.06,10.06,0,0,1,3.16,2.37c.3.3.55.65.86.93a13.46,13.46,0,0,1,2.1,3.53,15,15,0,0,1,1.11,4.11,13.54,13.54,0,0,1-.11,3.36,7.67,7.67,0,0,1-1.34,3.26,2.86,2.86,0,0,1-.73.74,12.5,12.5,0,0,1-1.94,1,6.37,6.37,0,0,1-2.85.3,5.1,5.1,0,0,1-1.3-.36c-.38-.14-.11-.4,0-.41.4,0,.11-.22.09-.35s0-.1,0-.13a10.41,10.41,0,0,0,2.39-.25,4.29,4.29,0,0,0,2.06-1.17,3.82,3.82,0,0,0,.58-.74,5.16,5.16,0,0,0,.65-2,10.89,10.89,0,0,0-.33-3.89c-.12-.37-.17-.77-.26-1.16a15.32,15.32,0,0,0-1.19-2.62,13.6,13.6,0,0,0-1.67-2.28,11.91,11.91,0,0,0-2.31-2,1.53,1.53,0,0,0-.53-.22,4,4,0,0,0-2.31,0,4.8,4.8,0,0,0-1.13.48c-.19.1-.37.24-.56.35a2.29,2.29,0,0,0-.23.21l-.12.1h0a.08.08,0,0,0,0,.1l0,.65-.05,1.59c0,.19,0,.38-.06.57s-.06.48-.07.72l-.15,3.75-.08,1.88,0,.94v.47c0,.14,0,.38,0,.35a.21.21,0,0,0,0,.14,3.39,3.39,0,0,0,.26.37c.11.14.22.3.34.44a7.35,7.35,0,0,0,1.33,1.26C373,398.16,373.8,399,374.12,399.06Z"/><path class="cls-1" d="M407.84,336c-4.71.16-7.41-6.43-4.93-9.88l9.57-2.18h0C413.78,324.38,421.45,335.53,407.84,336Z"/><path class="cls-1" d="M406.33,335a1.35,1.35,0,0,1,.73.26,2.77,2.77,0,0,1,.68.57c.15.16.16.64-.06.69a3.72,3.72,0,0,1-1.3.19,5.55,5.55,0,0,1-2.38-1,8.08,8.08,0,0,1-3.4-6.5c0-.37,0-.74.07-1.1s.15-.74.25-1.1l.2-.54a2.79,2.79,0,0,1,.3-.61l.44-.74L402,325c0-.07.07-.13.15-.13l.44-.1,3.84-.89c.52-.12,1.05-.22,1.58-.3.91-.13,1.82-.3,2.72-.49l.67-.15.48-.1a2.79,2.79,0,0,1,.62-.11,1.63,1.63,0,0,1,1.08.47,3.23,3.23,0,0,1,.47.44c.13.13.19.21.29.32a8.55,8.55,0,0,0,.67.78,10.51,10.51,0,0,1,1.61,2.92,9.56,9.56,0,0,1,.53,2.21,5.84,5.84,0,0,1,0,1.43,5.67,5.67,0,0,1-1.22,2.82,6.12,6.12,0,0,1-2.35,1.69,2.07,2.07,0,0,1-.74.24,8,8,0,0,0-1.58.29,13.15,13.15,0,0,1-2.15.21,7.43,7.43,0,0,1-1.05-.18c-.31-.06-.15-.36,0-.4.31-.11,0-.24,0-.36a.3.3,0,0,1,0-.13s1-.22,2-.5a15,15,0,0,0,2-.77,4.53,4.53,0,0,0,.75-.36,3.86,3.86,0,0,0,1.24-1,3,3,0,0,0,.56-1.44,4.36,4.36,0,0,0,0-1c0-.28-.05-.56-.08-.85a8,8,0,0,0-.81-2,11.51,11.51,0,0,0-1.24-1.82l-.19-.23,0-.05h0s0,0-.13,0-.48.06-.72.07a2.64,2.64,0,0,0-.56.11c-1.6.4-3.22.7-4.83,1l-1.23.28-1,.22a.11.11,0,0,0-.09,0s-.08.06-.1.1a5.51,5.51,0,0,0,.26,4.77,2.54,2.54,0,0,1,.23.47c.11.21.26.45.4.7a4.6,4.6,0,0,0,.91,1,2.73,2.73,0,0,1,.47.46A1.75,1.75,0,0,0,406.33,335Z"/><path class="cls-1" d="M429.54,374.3a11.5,11.5,0,0,1-9-11.57c0-6.12,6.64-8.07,7.92-8C428.65,360.81,429.29,367.46,429.54,374.3Z"/><path class="cls-1" d="M427.87,373a2.65,2.65,0,0,1,1.57,1.13c.15.18.07.65-.18.67a5.78,5.78,0,0,1-1.44-.05,11,11,0,0,1-2.48-1.07,13.93,13.93,0,0,1-2.9-2.25,10.52,10.52,0,0,1-2.39-3.88,14.12,14.12,0,0,1-.84-4.53,8.87,8.87,0,0,1,1.15-4.73,7.56,7.56,0,0,1,1.38-1.69,13.08,13.08,0,0,1,3-2,14,14,0,0,1,1.63-.69,9.88,9.88,0,0,1,2.74-.5,1.54,1.54,0,0,1,.43,0l.06.44c.05.29.1.58.17.85a5,5,0,0,1,.12.74c0,.32,0,.74.06,1.21s.09,1.41.13,2.2c.09,1.59.17,3.2.17,3.58,0,1.84,0,3.7,0,5.56a3,3,0,0,1,0,.79,5.45,5.45,0,0,0-.08,1.71c0,.79,0,1.59,0,2.39a6.79,6.79,0,0,1-.19,1.17c-.07.36-.37.18-.4.06-.11-.36-.24-.06-.36,0a.21.21,0,0,1-.13,0,4.27,4.27,0,0,1-.15-.74c-.08-.44-.17-1-.27-1.61-.2-1.2-.4-2.45-.41-2.69s-.61-6.74-.68-7.51a9.43,9.43,0,0,1,0-1.19c0-.1-.12-1.48-.22-2.86,0-.35-.05-.7-.08-1,0-.11,0-.09,0-.09h0s0,0,0,0l-.59.2c-.23.09-.47.15-.7.23a2.49,2.49,0,0,0-.52.25,7.38,7.38,0,0,0-3.19,3.5,5.32,5.32,0,0,0-.31,1.17,10.2,10.2,0,0,0-.05,1.25c0,.16,0,.32,0,.48a4.14,4.14,0,0,0,0,.61,10,10,0,0,0,2.37,5.64l.41.48a7.23,7.23,0,0,0,.67.74,7.83,7.83,0,0,0,1.31,1.08A8.05,8.05,0,0,0,427.87,373Z"/><path class="cls-1" d="M414.82,405.05c-3.78,2.39-9.18,1.8-11-3-1.74-4.51.58-11.35,5.45-11.18C423,391.36,415.57,404.57,414.82,405.05Z"/><path class="cls-1" d="M412.73,405.24a2.63,2.63,0,0,1,1.92-.25c.23.05.47.46.3.63a5.34,5.34,0,0,1-1.07.93,8.54,8.54,0,0,1-2.61.87,8.94,8.94,0,0,1-3.82-.17,7.32,7.32,0,0,1-3.95-2.83,9.67,9.67,0,0,1-1.6-4.54,11.67,11.67,0,0,1,.47-4.66c.1-.33.24-.66.37-1s.34-.63.51-.94a8.57,8.57,0,0,1,2.64-2.69,5.84,5.84,0,0,1,1.81-.75l.49-.12.49,0a5.85,5.85,0,0,1,.93,0,8.54,8.54,0,0,0,1.13,0,10.75,10.75,0,0,1,3.75.84,7.05,7.05,0,0,1,2.27,1.49,5.07,5.07,0,0,1,1,1.32,7.15,7.15,0,0,1,.84,3.22,10.48,10.48,0,0,1-.37,3,2.65,2.65,0,0,1-.26.81,9.18,9.18,0,0,0-.72,1.64,13,13,0,0,1-1.14,2.19,4.76,4.76,0,0,1-.88.92c-.44.32-.36-.16-.34-.23.15-.33-.14-.19-.25-.26a.39.39,0,0,1-.1-.08s.1-.22.27-.61.37-.91.54-1.46A21.63,21.63,0,0,0,416,400s.11-.42.21-1a8.9,8.9,0,0,0,.09-2.11,4.89,4.89,0,0,0-.55-1.93,4.52,4.52,0,0,0-.67-.89c-.24-.19-.42-.43-.67-.63a6.23,6.23,0,0,0-2.21-.88,14.4,14.4,0,0,0-2.58-.28l-.38,0c-.12,0-.2,0-.31,0a2.18,2.18,0,0,0-.57.08,6.25,6.25,0,0,0-1.13.33,1.44,1.44,0,0,0-.42.27,7.59,7.59,0,0,0-2.24,4.13,8.1,8.1,0,0,0-.1,2.55c0,.16,0,.31,0,.46a5.21,5.21,0,0,0,.08.57,5.48,5.48,0,0,0,3.5,4.22,8.54,8.54,0,0,0,1.46.42,4.94,4.94,0,0,0,1.61,0A6,6,0,0,0,412.73,405.24Z"/><path class="cls-1" d="M368.63,429.25c.08-4.78.22-10.19.4-15.95C381,413.3,383.2,431.61,368.63,429.25Z"/><path class="cls-1" d="M369.41,427.32a2,2,0,0,1-.65,1.82c-.16.16-.63.13-.69-.07a10.22,10.22,0,0,1-.31-1.21c-.05-.25-.17-4.17-.23-5.5s0-2.58,0-3.87l.09-4.12c0-.65,0-1.3.07-1.93l0-.47v-.12a.4.4,0,0,1,.11,0h.24l1,.05,1,0a2.59,2.59,0,0,1,.48,0l.41.06a6.91,6.91,0,0,1,1.1.22,7.51,7.51,0,0,1,1.86.71,12.24,12.24,0,0,1,4.84,4.6c.18.33.34.67.55,1a9,9,0,0,1,.71,6.09,6.66,6.66,0,0,1-.52,1.42,7.59,7.59,0,0,1-4.66,3.8,2.35,2.35,0,0,1-.81.17,14,14,0,0,0-1.74.11,10.9,10.9,0,0,1-2.36-.12,6.66,6.66,0,0,1-1.09-.37c-.33-.12-.1-.39,0-.41.35-.05.1-.22.09-.34a.18.18,0,0,1,0-.13s1.09,0,2.15-.15a13.78,13.78,0,0,0,2.29-.51,6.92,6.92,0,0,0,.86-.29,5.86,5.86,0,0,0,1.6-1,5.55,5.55,0,0,0,1.14-1.52,5.49,5.49,0,0,0,.36-1.06c.05-.3.18-.59.23-.9a6.76,6.76,0,0,0-.19-2.25,8.65,8.65,0,0,0-.87-2.13,17.18,17.18,0,0,0-1.54-2.18,1.71,1.71,0,0,0-.39-.37,10.2,10.2,0,0,0-2-1.19,8.31,8.31,0,0,0-1.09-.39l-.57-.16-.29-.05-.15,0h0a.75.75,0,0,0-.21,0c0,.06,0,.14,0,.21s0,.2-.05.35-.05.41-.05.62c0,2.16-.18,4.31-.14,6.47,0,.5-.27,2.87-.25,3.44C369.71,426,369.36,427,369.41,427.32Z"/><path class="cls-1" d="M435,440.58c-8.71,6.19-16,.35-17.09-5.48a8.44,8.44,0,0,1,4.89-9.33c3-1.43,9.47-.3,9.53-.28C432.33,425.87,434.8,439.82,435,440.58Z"/><path class="cls-1" d="M432.48,441.2a4.55,4.55,0,0,1,1.09-.53,3.57,3.57,0,0,1,1.19-.13c.27,0,.52.42.33.62-.37.39-.76.78-1.18,1.15a7.16,7.16,0,0,1-.92.54l-.87.46-1.1.43a11.46,11.46,0,0,1-4.43.69,9.92,9.92,0,0,1-5.29-1.81,11.8,11.8,0,0,1-3.74-4.26,10.56,10.56,0,0,1-1.21-5.61,8,8,0,0,1,.59-2.55,10.49,10.49,0,0,1,2.52-3.61,11.63,11.63,0,0,1,1.73-1.32,8.7,8.7,0,0,1,.94-.53,7.59,7.59,0,0,1,1.08-.43c.48-.15,1-.23,1.41-.37a8.52,8.52,0,0,1,1.62-.22,24.55,24.55,0,0,1,2.84,0c.51,0,1,.07,1.49.13l.7.08,1.06.16,1.06.2a3.77,3.77,0,0,1,.21.85c.06.25.1.53.13.74s0,.2,0,.29l0,.11v0h0l-.94.11h0v0c.71,2.17,1.68,4.28,1.76,6.52a4.52,4.52,0,0,1,.1.95,7.9,7.9,0,0,0,.17,2.05c.15.94.29,1.89.39,2.85a11.36,11.36,0,0,1,0,1.43c0,.43-.33.26-.39.12-.17-.4-.24,0-.36,0s-.09,0-.12,0a7,7,0,0,1-.28-.87c-.15-.52-.34-1.21-.54-1.92-.39-1.42-.79-2.92-.84-3.22,0-.07-.41-2.1-.84-4.23-.21-1.06-.42-2.15-.6-3,0-.2-.08-.38-.11-.55,0,0,0,0,0,0a0,0,0,0,0,0,0s0,0-.1,0l-.05,0-.17,0-.34-.06a26.19,26.19,0,0,0-3.31-.12,12,12,0,0,0-3.08.41,4.45,4.45,0,0,0-.73.25c-.24.12-.51.25-.75.4-.49.29-1,.61-1.43.94a2.78,2.78,0,0,0-.49.48,7.24,7.24,0,0,0-1.75,5.43,7.42,7.42,0,0,0,.9,2.92c.09.16.15.34.23.52s.23.41.37.6a10.12,10.12,0,0,0,2.67,2.55,7.67,7.67,0,0,0,3.47,1.14l.75.09h1.18a7.73,7.73,0,0,0,2-.38c.17-.07.59-.11,1-.2A4.18,4.18,0,0,0,432.48,441.2Z"/><path class="cls-1" d="M393.85,368.81c-8.55-5.68.79-15,10.58-10.31C408.12,360.26,404.71,376,393.85,368.81Z"/><path class="cls-1" d="M392.84,367.05a2.3,2.3,0,0,1,1,1.58c.05.23-.23.61-.44.54a5.86,5.86,0,0,1-1.24-.53,7.54,7.54,0,0,1-1.86-1.93,6.09,6.09,0,0,1-1-3.74,6,6,0,0,1,.66-2.36,7.6,7.6,0,0,1,1.43-1.88,11.2,11.2,0,0,1,8.36-2.89,8.46,8.46,0,0,1,1.94.32,19.29,19.29,0,0,1,3.11,1.16l.19.09.28.17a2.8,2.8,0,0,1,.49.39,3.62,3.62,0,0,1,.66.91,5.85,5.85,0,0,1,.59,1.82c.07.4.08.79.16,1.16a9.81,9.81,0,0,1-.45,3.68,11,11,0,0,1-.95,2.24,8.2,8.2,0,0,1-.82,1.22,8.3,8.3,0,0,1-2.44,1.95,6.59,6.59,0,0,1-3.05.73,2.19,2.19,0,0,1-.86-.09c-.59-.24-1.17-.32-1.74-.51a9.27,9.27,0,0,1-2.17-1.05,5.91,5.91,0,0,1-.87-.79c-.24-.25.08-.4.2-.36.34.09.17-.17.22-.29a.2.2,0,0,1,.06-.11s1,.45,2,.74a11.07,11.07,0,0,0,1.45.3l.82.05a5.51,5.51,0,0,0,.88,0,4.1,4.1,0,0,0,1.72-.55,5.82,5.82,0,0,0,2.1-2.3l.5-.85a9.45,9.45,0,0,0,.62-2.31,7.84,7.84,0,0,0,0-2.32,3,3,0,0,0-.29-1.07A.74.74,0,0,0,404,360a1.37,1.37,0,0,0-.08-.14s0-.08-.06-.09,0-.06-.14-.14a4,4,0,0,0-.51-.25,12.4,12.4,0,0,0-4.75-.92,8.86,8.86,0,0,0-2.41.45c-.14.05-.28.07-.43.11a3.56,3.56,0,0,0-.52.18c-1.72.79-3.26,2.24-3.44,3.94a4.84,4.84,0,0,0,0,1.3,3.26,3.26,0,0,0,.48,1.34A4.6,4.6,0,0,0,392.84,367.05Z"/><path class="cls-1" d="M400.43,444a7.72,7.72,0,0,1-10,.25c-8.46-7.24,4.37-20,11.05-10.46A8.16,8.16,0,0,1,400.43,444Z"/><path class="cls-1" d="M398.41,444.54a2.75,2.75,0,0,1,1.84-.54c.24,0,.55.35.42.56a5.28,5.28,0,0,1-.94,1.12,8.29,8.29,0,0,1-2.56,1.19,9.42,9.42,0,0,1-3.84.19,7.72,7.72,0,0,1-4.27-2.17,8.81,8.81,0,0,1-2.56-4.17,8.31,8.31,0,0,1,.2-4.94,7.76,7.76,0,0,1,1-1.93,11.24,11.24,0,0,1,5.74-4.33c.39-.13.81-.2,1.21-.32a4.71,4.71,0,0,1,1.49-.11,6.84,6.84,0,0,1,2.64.63,8.38,8.38,0,0,1,2.25,1.49,9.21,9.21,0,0,1,1,1.15,9,9,0,0,1,1.76,6,3.12,3.12,0,0,1-.13.88c-.28.59-.35,1.2-.57,1.8a7.47,7.47,0,0,1-1.25,2.28,4.24,4.24,0,0,1-1,.8c-.32.22-.38-.15-.32-.26.19-.32-.12-.21-.22-.27s-.09-.05-.1-.09.17-.23.37-.59a7,7,0,0,0,.62-1.36,9,9,0,0,0,.44-2.39,7.18,7.18,0,0,0,0-1,6.91,6.91,0,0,0-.37-2,6,6,0,0,0-1-1.85,7.77,7.77,0,0,0-.88-.95c-.25-.23-.49-.45-.73-.69a5.15,5.15,0,0,0-2.13-.84,4.87,4.87,0,0,0-2.26.18,11.5,11.5,0,0,0-2.51,1.15,1.88,1.88,0,0,0-.45.35,8.14,8.14,0,0,0-2.42,4.17,5.39,5.39,0,0,0,.12,2.4c0,.14.06.28.1.43a2.43,2.43,0,0,0,.17.52,7.57,7.57,0,0,0,1.81,2.36,5.68,5.68,0,0,0,2.6,1.28,10.13,10.13,0,0,0,1.54.26,4.86,4.86,0,0,0,1.62-.1A5.82,5.82,0,0,0,398.41,444.54Z"/><path class="cls-1" d="M367.83,403.54l.89-17.41.27-6.35,1.33-22.37c.19-3.31.32-6.64.43-9.93.15-4.22.17-8.46.64-12.67.29-2.62,2.44.83,2.23,5.69-.37,8.62-.86,17.22-1.57,25.89-.42,5.19-.55,10.6-.81,15.91l-.87,17.53c-.16,3.6-.31,7.2-.47,10.79-.22,5.45-.44,10.92-.52,16.33-.07,4.2.06,8.33.16,12.47,0,.91.08,1.8.12,2.72s0,1.56,0,2.15,0,1,0,1.44a3,3,0,0,1-.54,1.64,2.93,2.93,0,0,1-.4.53c-.47.39-1-1-1.26-3.54a226.5,226.5,0,0,1-.29-23.23c.14-5.85.39-11.72.62-17.58Z"/><path class="cls-1" d="M427.08,359.55q-.3-18-.25-36v-6.59c0-2.2.08-4.39.15-6.59.64-15.46,1.93-30.83,3.13-46.21.53-6.82,1-13.68,1.38-20.45.49-8.71.82-17.45,1.25-26.11.13-2.7.88-2.35,1.59,0a37.12,37.12,0,0,1,1.1,11.65c-.84,17.86-2.44,35.58-4,53.46-.92,10.69-1.44,21.85-1.7,32.79-.17,12-.05,24.14.1,36.2.11,7.44.25,14.87.48,22.29.34,11.25.77,22.55,1.58,33.68.63,8.65,1.58,17.12,2.87,25.55.32,1.85.62,3.67,1,5.51,1.32,6.88,2,8.82,2,10.46a8.64,8.64,0,0,1,0,1.15c-.1.47-.58.14-1.43-1a17.74,17.74,0,0,1-1.18-2.3c-.36-1-.77-2.08-1.12-3.36A108.9,108.9,0,0,1,431.63,432c-.62-3.92-1.08-7.88-1.51-11.88-.84-8-1.38-16.11-1.83-24.25-.66-12.08-1-24.22-1.28-36.34Z"/><path class="cls-1" d="M379.73,183.62c-1.38,2.54-.11,5.3,1.48,7.42.49.66,2.44-.09,1.87-.85-1.34-1.79-2.62-4.23-1.43-6.42.51-.94-1.54-.85-1.92-.15Z"/><path class="cls-1" d="M385.27,183.91a6.09,6.09,0,0,0,1.46,5.5c.6.7,2.53-.11,1.86-.89a5.19,5.19,0,0,1-1.27-4.77c.21-1-1.86-.75-2.05.16Z"/><path class="cls-1" d="M391.3,184.23a5.06,5.06,0,0,0,2.13,3.49c.67.51,2.47-.44,1.58-1.13a4,4,0,0,1-1.68-2.91c-.14-.87-2.18-.37-2,.55Z"/><path class="cls-1" d="M329.86,250.66c2.33-2.45,5.1-3.92,7.85-5.81a37,37,0,0,0,8.76-9.2c.21-.28-2.35-.2-2.86.5a34.26,34.26,0,0,1-9.49,9.48,33.4,33.4,0,0,0-6.89,5.23c-.6.64,2.13.32,2.63-.2Z"/><path class="cls-1" d="M388.86,128.13a14.81,14.81,0,0,0,1.11-4.95,4.91,4.91,0,0,0-.07-.86c-.06-.28-.13-.56-.17-.84a5.2,5.2,0,0,0-1.33-2.54,5.46,5.46,0,0,0-2.69-1.42,8.11,8.11,0,0,0-2.91-.13c-1.26.15-2.47.58-3.66.8-.37.07-.63-.49-.52-1.19a2.09,2.09,0,0,1,1.48-1.74,12.9,12.9,0,0,1,4.6-.36,8.51,8.51,0,0,1,4.5,1.75,8.11,8.11,0,0,1,3,5,13.29,13.29,0,0,1-.67,6,28.9,28.9,0,0,1-1.26,3.33,41,41,0,0,1-2.57,4.69,27.73,27.73,0,0,1-2.37,3.44,7.07,7.07,0,0,1-.64.71c-.89.82-1.42.85-1.91.43a2,2,0,0,1-.34-.31c-.31-.4-.15-1,.32-1.45a36.13,36.13,0,0,0,3.85-5.59,30.78,30.78,0,0,0,2.22-4.81Z"/><path class="cls-1" d="M391.65,155.11l-.54.26-.6.16c-.21,0-.4.09-.61.12l-.63,0a2.42,2.42,0,0,1-.89,0,5.25,5.25,0,0,1-2.56-1.44,10.58,10.58,0,0,1-.83-.8,3.15,3.15,0,0,1-.69-1.27c0-.16-.06-.1.05,0a5.29,5.29,0,0,0,.75,0,4.7,4.7,0,0,1,2.35.39c.35.25.77.09,1.12.12h.62c.21,0,.44,0,.68-.08a7.5,7.5,0,0,0,.89-.28c.22-.11.45-.22.69-.32a4,4,0,0,0,.64-.46c.33-.25.57-.57.92-.82a2.07,2.07,0,0,1,.24-.17,4.9,4.9,0,0,1,.57-.26l0,0s0,.1,0,.43,0,1-.06,1.48a5.49,5.49,0,0,1-.49,1.41,4.43,4.43,0,0,1-1.61,1.64Z"/><path class="cls-1" d="M397.79,119.47c2.19-2.24,5.76.08,6.87,2.46.38.81,3.2-.14,2.9-.78-2.27-4.85-8.95-5.13-12.42-1.56-.48.49.42.6.72.61a2.86,2.86,0,0,0,1.93-.73Z"/><path class="cls-1" d="M382.37,200.22c11-1.53,22.14.83,32.48-4.26,1.71-.84-1-.64-1.65-.32-9.27,4.56-19.72,2.11-29.56,3.48-.71.1-3.14,1.36-1.27,1.1Z"/><path class="cls-1" d="M159.86,128.47c-.09,1.36-.69,2.1-1.63,2a2.13,2.13,0,0,1-1.73-2.42c.08-1.36.89-2.26,1.82-2.2S159.94,127.1,159.86,128.47Z"/><path class="cls-1" d="M75.43,315.2c5.38-17.62,10.26-35.42,15-53.26q2.52-9.78,5-19.56,8.94-34.45,17.31-69.07l1-4.4,2.33,1.49,1.95,1.17c1,.6,2.05,1.18,3.08,1.75,2.08,1.13,4.18,2.2,6.32,3.19a59.87,59.87,0,0,0,13.16,4.55,21.66,21.66,0,0,0,6.45.34c1.1-.07,3.81-1.11,4.34-.82a.87.87,0,0,1,.36,0,1,1,0,0,1,.4.29,1.1,1.1,0,0,1,.32.85,4.68,4.68,0,0,1-.11.81,2.32,2.32,0,0,1-.12.47l-.24.57-1.24,2.24-.82,1.56c-.5,1-1,2-1.47,3-1,2-1.86,4-2.67,6a54,54,0,0,0-2.09,6.17,21.39,21.39,0,0,0-.87,6.23c.07,1.88.34,2.62,0,2.73l0,.19h0l0-.19c-.2,0-.71-.37-1.18-1.37a11.45,11.45,0,0,1-.84-4.54c0-3.93,1.28-9.17,3.74-14.54q1-2.07,2-4.1l1.31-2.5h0l-.15,0c-.5.09-1,.1-1.48.15a23.4,23.4,0,0,1-2.91-.06A42.48,42.48,0,0,1,132.67,182a90.6,90.6,0,0,1-9.84-4.39q-2.39-1.23-4.71-2.57l-2.21-1.29-.18-.14s0,.08,0,.12l-.27,1.12-.94,3.8c-.62,2.54-1.25,5.07-1.88,7.61l-3.87,15.23c-4.12,16-8.13,32.77-12.38,49.15-4.68,18-9.5,36-14.69,53.87-3.23,11-6.52,22-10.42,32.79-.86,2.35-1.76,4.7-2.75,7-.5,1.15-1,2.31-1.6,3.43a10.2,10.2,0,0,1-1.14,1.79l-.22.22a1.52,1.52,0,0,0,.28,0l.62-.07,1.31-.13,2.16-.15c.78-.06,1.56-.11,2.33-.14,3.11-.16,6.22-.21,9.32-.21,6.21,0,12.38.38,18.52.83a261,261,0,0,1,39.31,6.5l4.24,1c1.41.35,2.79.79,4.21,1.2,2.62.77,4.8,1.43,6.61,2s3.22,1.19,4.4,1.67a19.62,19.62,0,0,1,4.6,2.43,10.8,10.8,0,0,1,1.28,1c.77.91-3.58-.09-11.12-2.5a290.83,290.83,0,0,0-35.1-8.1c-6-1-12.13-1.75-18.27-2.33s-12.34-.88-18.54-.85c-3.07,0-6.15.06-9.22.22-.77,0-1.54.08-2.31.14l-1.14.08-.58,0-.34,0-.58.07c-1.55.18-3,.32-4.64.53l-4.6.64L60.74,351l2.15-2.35c.43-.66.75-1.25,1.13-1.88l.26-.45.12-.25.25-.5c.65-1.33,1.24-2.73,1.82-4.13,1.15-2.82,2.2-5.71,3.21-8.61,2-5.82,3.88-11.72,5.67-17.64Z"/><path class="cls-1" d="M397.82,127.82a1.43,1.43,0,0,0-.52-.59c-.1-.06-.21,0-.33-.06a1.65,1.65,0,0,0-1.71.34,2.92,2.92,0,0,0-.62.91,8.47,8.47,0,0,1-.86,1.39c-.11.14,0,.14-.06,0s-.25-.46-.35-.79a4,4,0,0,1-.22-1.92,2.88,2.88,0,0,1,1.19-1.89,5,5,0,0,1,2.7-1.09,3.81,3.81,0,0,1,2.84,1.37,4.2,4.2,0,0,1,.78,1.61,7.72,7.72,0,0,1,.16,2.32l-.06.83a3.62,3.62,0,0,1-.21.8,2,2,0,0,1-.14.34,2.93,2.93,0,0,1-.44.59.21.21,0,0,0,0,.06,1.41,1.41,0,0,0-.14-.48,5.84,5.84,0,0,0-.66-1.41c-.21-.43-.48-.83-.65-1.17a8.69,8.69,0,0,0-.74-1.1Z"/><path class="cls-1" d="M383.93,125s0,0,0-.06a1.27,1.27,0,0,1-.13-.19c-.07-.1-.06-.18-.13-.24s-.11,0-.16,0c-.22-.08-.42-.08-1.07.48a4.82,4.82,0,0,0-.65.77,7.07,7.07,0,0,1-.94,1.07c-.13.11-.06.12-.07,0s-.21-.43-.28-.74a3.77,3.77,0,0,1-.11-1.66,2,2,0,0,1,.26-.78l.22-.43c.1-.14.13-.28.33-.41a4.11,4.11,0,0,1,2.5-1.36,3.3,3.3,0,0,1,2.43,1.37,3.2,3.2,0,0,1,.64,1.59,5.51,5.51,0,0,1-.3,2.07c-.06.23-.13.46-.19.69a3.73,3.73,0,0,1-.32.63,2.4,2.4,0,0,1-.18.26,3.13,3.13,0,0,1-.47.44l0,.05a1.45,1.45,0,0,0-.11-.44,6.9,6.9,0,0,0-.47-1.34c-.14-.42-.32-.8-.42-1.09-.21-.46-.37-.64-.41-.61Z"/><path class="cls-1" d="M410.72,103.48c-5.51-2.7-41.41,27-52-4.42-6.67-19.73,32.19-46.6,59.64-14.39,2.19-3.3,45.71-11.36,36.84,32.21-2,9.91-10.57,17.1-4,27.21,10.54,16.22-14.31,42.07-34.75,25.31-8.8-7.22-1.24-29.78,8.13-30.1,4.95-.17,7.2-8.91,4.27-12.79-3.55-4.67-6.78,3.14-11.69,1.4C413.6,126.66,425.74,110.82,410.72,103.48Z"/><path class="cls-1" d="M450.54,146.32l-1.82-3.24c-.3-.62-.53-1.27-.79-1.91a19.17,19.17,0,0,1-.54-2,16,16,0,0,1,.68-8.1,65.83,65.83,0,0,1,2.94-7,37.56,37.56,0,0,0,2.49-6.67,50.13,50.13,0,0,0,1.31-14.26,27.37,27.37,0,0,0-1.44-6.87,18.07,18.07,0,0,0-11.83-11.39,32.07,32.07,0,0,0-10.19-1.63,39.2,39.2,0,0,0-6.41.49,28.28,28.28,0,0,0-3.09.69c-.51.14-1,.31-1.45.49l-.32.14-.23.11c-.1,0-.21.14-.31.13a7.07,7.07,0,0,0-1.12.13,1.08,1.08,0,0,1-.57,0l-.65-.07-1.65-1.82a16.83,16.83,0,0,0-1.31-1.36c-.93-.85-1.78-1.79-2.78-2.55a33.27,33.27,0,0,0-3-2.3l-1.54-1.07-1.63-.94a33.69,33.69,0,0,0-14.18-4.4,33.09,33.09,0,0,0-26.89,10.86,23,23,0,0,0-4.23,6.9,15.56,15.56,0,0,0-.93,7.85,17.65,17.65,0,0,0,1.12,3.85A28.19,28.19,0,0,0,362,104a17.64,17.64,0,0,0,5.31,5.87,16.63,16.63,0,0,0,9.69,2.66,37.25,37.25,0,0,0,10.32-1.81c3.38-1,6.7-2.38,10-3.77A89.19,89.19,0,0,1,407.43,103a6.27,6.27,0,0,1,2.64-.25c.62.12.85.38.77.42s-.42,0-.95.09a8.65,8.65,0,0,0-2.07.73c-3.4,1.56-9.2,5.55-17.18,8.48a46.78,46.78,0,0,1-11.1,2.69,21.8,21.8,0,0,1-11.71-1.77,19.53,19.53,0,0,1-8.48-8.39A32.34,32.34,0,0,1,357,99.68a17.52,17.52,0,0,1-.82-6.09,19.3,19.3,0,0,1,1.3-5.9l.26-.7.32-.67.65-1.34c.53-.84,1-1.73,1.57-2.5a32,32,0,0,1,8.34-8.07,36,36,0,0,1,21.93-6,35.23,35.23,0,0,1,8,1.4c1.32.33,2.56.9,3.85,1.35.63.27,1.24.58,1.85.87a17.46,17.46,0,0,1,1.83.93,35.2,35.2,0,0,1,3.47,2.15c.56.4,1.14.77,1.68,1.18l1.59,1.29c1.09.83,2,1.81,3,2.74l.74.71.69.75,1,1.12.11.12s.07.1.11,0a.7.7,0,0,1,.17-.13,1.91,1.91,0,0,1,.36-.18c.48-.24.93-.36,1.39-.54a27.86,27.86,0,0,1,2.75-.72,37,37,0,0,1,5.53-.72,38.34,38.34,0,0,1,5.57,0,32.28,32.28,0,0,1,5.51.89,25.93,25.93,0,0,1,7.22,3A20.07,20.07,0,0,1,452.88,90a23.06,23.06,0,0,1,3.43,7c.17.63.29,1.26.44,1.9l.22.95.12,1,.25,1.92.08,1.92a46.24,46.24,0,0,1-.4,7.63c-.12,1.27-.41,2.5-.61,3.75-.11.63-.22,1.25-.39,1.88a18.36,18.36,0,0,1-.53,1.87c-1.56,4.93-4.38,9.2-5.42,13.81a12.4,12.4,0,0,0,1,8.32l1.09,1.92a16.38,16.38,0,0,1,1.12,2.16,16.09,16.09,0,0,1,1.24,4.7,18.66,18.66,0,0,1-.14,4.84,21.53,21.53,0,0,1-1.32,4.61,25.77,25.77,0,0,1-17.58,15,21.11,21.11,0,0,1-7.22.39,22.77,22.77,0,0,1-6.91-2.05,25.43,25.43,0,0,1-6-4,10.79,10.79,0,0,1-2.16-3,14.83,14.83,0,0,1-1.11-3.5,22.41,22.41,0,0,1-.07-7.17,30.11,30.11,0,0,1,1.84-6.86,26.27,26.27,0,0,1,2.58-4.89,15.11,15.11,0,0,1,3.88-4.06,8.52,8.52,0,0,1,2.65-1.26,7.36,7.36,0,0,1,1.49-.25l.55-.09.26,0,.24-.09a5.62,5.62,0,0,0,2.95-3.29,10.57,10.57,0,0,0,.67-4.75,5.29,5.29,0,0,0-1.91-3.83,1.61,1.61,0,0,0-1.59-.14,12.31,12.31,0,0,0-2.1,1.17,16.56,16.56,0,0,1-2.48,1.38,6.44,6.44,0,0,1-3.19.48l-.89-.26-.44-.13-.38-.24a2.34,2.34,0,0,1-.79-1.58,7.24,7.24,0,0,1,0-.93,5.8,5.8,0,0,1,.08-.68c.06-.43.15-.82.23-1.22.36-1.56.76-3,1.06-4.52a18.64,18.64,0,0,0,.36-6.85,11,11,0,0,0-1.58-4.18,15.56,15.56,0,0,0-1.88-2.39c-.29-.3-.55-.59-.79-.85s-.48-.49-.69-.74c-.38-.44-1-.91-1.2-1.22s-.06-.33.38-.24a8.7,8.7,0,0,1,2.17.89,12.49,12.49,0,0,1,3.38,2.72,12,12,0,0,1,2.66,5.59,23.82,23.82,0,0,1-.72,10l-.55,2.32c-.08.37-.16.75-.2,1.09a3.31,3.31,0,0,0-.06.45s0,.07,0,.11.14.21.34.2a3.65,3.65,0,0,0,1.62-.29c1.22-.49,2.4-1.49,4.16-2.38a5.83,5.83,0,0,1,1.62-.5,3.16,3.16,0,0,1,1,0l.5,0,.49.17a4.87,4.87,0,0,1,1.6,1,8,8,0,0,1,1,1.22,9.39,9.39,0,0,1,1.48,5.7,12.84,12.84,0,0,1-1.42,5.5,8.94,8.94,0,0,1-1.89,2.42,6.77,6.77,0,0,1-1.36,1,7.11,7.11,0,0,1-.8.34,3.13,3.13,0,0,1-.85.22c-.29.05-.58.09-.88.12l-.43.06a4.51,4.51,0,0,0-.88.21,7.06,7.06,0,0,0-1.72.93,17.43,17.43,0,0,0-5.17,7.24,26.46,26.46,0,0,0-2,9.08c-.1,3,.46,6.18,2.16,8.31.16.18.31.38.48.56l.55.5,1.38,1.05a16.52,16.52,0,0,0,1.45,1l.74.46c.25.14.51.26.77.39a19.71,19.71,0,0,0,6.48,2.06,19.92,19.92,0,0,0,13.11-3.09,23.25,23.25,0,0,0,9-10.37,15.5,15.5,0,0,0,0-13Z"/><path class="cls-1" d="M397,170.63c3.31,3.17,9.09,4.68,12.79,1.42,3.52-3.11,4-8.91,3.07-13C405.23,172.88,397.39,169,397,170.63Z"/><path class="cls-1" d="M412.66,156l.83-1.38.21.91c0,.11.08.4.13.61l.12.68.44,2.49a18.79,18.79,0,0,1,.15,5.4l-.05.56-.07.36c0,.24-.06.49-.12.73a10.17,10.17,0,0,1-.38,1.44,11.55,11.55,0,0,1-2.78,4.53,8.49,8.49,0,0,1-4.82,2.37,11,11,0,0,1-4.62-.3,11.53,11.53,0,0,1-2.71-1.08,7.42,7.42,0,0,1-2.27-1.82c-.4-.47.08-.8.81-.92a4.29,4.29,0,0,1,2.46.31,12.73,12.73,0,0,0,4.48,1.23,6.59,6.59,0,0,0,4.22-1c1.58-1,2.5-3,3-5a5.84,5.84,0,0,0,.18-.83l.11-.59a4.53,4.53,0,0,0,.09-.74,7.94,7.94,0,0,0,0-.85l0-.46,0-.24v-.18l0,0-.18.26c-.27.4-.6.87-1,1.37l-.14.17-.2.25c-.2.22-.39.46-.59.68-.4.45-.82.89-1.26,1.31a21.6,21.6,0,0,1-2.82,2.3,15.24,15.24,0,0,1-5.16,2.4c-.41.1-.81.2-1.22.26a4.18,4.18,0,0,1-1.49,0c-.27-.08-.27-.31-.54-.56a.7.7,0,0,0-.49-.12.34.34,0,0,1-.35-.18.72.72,0,0,1,.17-.72,2.79,2.79,0,0,1,1.54-.84,19.14,19.14,0,0,0,4.2-1.33,15.3,15.3,0,0,0,3.63-2.46,21.44,21.44,0,0,0,2.35-2.49,59.44,59.44,0,0,0,4.29-6.74Z"/><path class="cls-1" d="M378.07,120.25c-2.57,8.72-8.74,14.07-14.15,21.48-5.09,7-3.31,19.68,13.47,18.35C378,160,371.39,144.79,378.07,120.25Z"/><path class="cls-1" d="M378.43,156.92l.25,1.14a11.87,11.87,0,0,1,.33,1.66,2,2,0,0,1-.27,1.23c0,.05-.09.07-.1.13l-.14.07-.29.13-.56.25-.29.13h-.44l-.88,0-1.32,0c-.64,0-1.3-.11-2-.16a16.28,16.28,0,0,1-7.55-2.51,11.64,11.64,0,0,1-4-4.52,12.79,12.79,0,0,1-1-5.14,15,15,0,0,1,1.07-5,17,17,0,0,1,2.64-4.24c1-1.25,2-2.47,3-3.67,1.82-2.14,3.6-4.29,5.22-6.5a45.69,45.69,0,0,0,5.08-9.14c.42-1,.75-.78.86.26a8.06,8.06,0,0,1-.08,2.08,7.85,7.85,0,0,1-.3,1.35,7.11,7.11,0,0,1-.54,1.45,46.27,46.27,0,0,1-6.21,9.32l-3.53,4.18-1.72,2.09c-.27.35-.57.71-.83,1.05l-.71,1a10.85,10.85,0,0,0-1.64,5.77,9.16,9.16,0,0,0,1.87,5.57,10.61,10.61,0,0,0,5.54,3.52l1.7.38c.57.12,1.16.13,1.75.2a10.4,10.4,0,0,0,1.77.08H376c.26.08.15-.21.13-.34l-.11-.51-.46-2.11q-.45-2.26-.75-4.56a78.27,78.27,0,0,1-.46-13.93,101.39,101.39,0,0,1,1-10.63c.12-.78.22-1.54.38-2.31.58-2.88,1-3.73,1.87-4.15a3.25,3.25,0,0,1,.57-.27c.61-.12.72,1.13.4,3.19a114.5,114.5,0,0,0-1.67,19.06,67.73,67.73,0,0,0,1.59,14.33Z"/></g></svg>