<svg id="Layer_1" data-name="Layer 1" xmlns="http://www.w3.org/2000/svg" width="520" height="520" viewBox="0 0 520 520"><defs><style>.cls-1,.cls-3{fill:none;}.cls-1,.cls-3,.cls-5{stroke:#221f1f;stroke-width:2px;}.cls-1{stroke-linecap:round;stroke-linejoin:round;}.cls-2,.cls-5{fill:#221f1f;}.cls-3,.cls-5{stroke-miterlimit:10;}.cls-4{fill:#232020;}</style></defs><title>Notioly v2</title><g id="_31.Fishing" data-name="31.Fishing"><path class="cls-1" d="M302.34,186.41s7.89,1,13.56-1.26c0,0-3.61,2.89-3.61,5.11"/><path class="cls-1" d="M366.64,164.4s7.71-6,10.31-6c1.27,0,.12,5.89-2.49,7.47"/><path class="cls-2" d="M373.25,246c0,.16-.08.33-.1.49s0,.1,0,.16c-.05.22-.14.44-.18.65a.3.3,0,0,0,.08.25c.07.09.24.17.05.33a8.17,8.17,0,0,1-2.2.37.7.7,0,0,1,.18-.74c.14-.17,0-.29,0-.43s0-.33.06-.49,0-.2,0-.3a1,1,0,0,0,0-.43c-.05-.1-.22-.17-.33-.25s-.08,0-.09-.05.08-.14.63-.3l.37-.1a2.49,2.49,0,0,1,.93-.12c.42.09.52.28.57.48a2.37,2.37,0,0,1,0,.46Z"/><path class="cls-2" d="M375.48,256.25c0,.16-.07.33-.1.49s0,.11,0,.17-.15.43-.19.64a.34.34,0,0,0,.08.25c.07.1.25.17.05.33a8.11,8.11,0,0,1-2.2.37.7.7,0,0,1,.18-.74c.14-.17,0-.28,0-.43s0-.32.06-.49a1.5,1.5,0,0,0,0-.29.88.88,0,0,0,0-.43c-.05-.11-.21-.18-.33-.26l-.09-.05c-.05-.08.08-.14.63-.29l.37-.11a2.49,2.49,0,0,1,.93-.12c.42.1.52.28.58.48a3.59,3.59,0,0,1,0,.47Z"/><path class="cls-2" d="M370.32,307.71c-1-.16-1.92-.44-2.88-.66s-1.88-.53-2.8-.84c-.67-.22-1.37-.37-2-.62-2.34-.86-4.6-1.87-6.85-2.9-1-.45-2-.88-3-1.29a17.78,17.78,0,0,1-3.77-1.84c-.71-.53,1.22-1.84,2.62-1.19,2.53,1.18,5.05,2.38,7.58,3.66a35.75,35.75,0,0,0,4.83,1.8c.9.29,1.79.6,2.7.85s1.82.5,2.74.7a16.45,16.45,0,0,0,1.7.33,12.53,12.53,0,0,0,1.71.23l1.3.11c.43,0,.86,0,1.29,0l.64,0a2.65,2.65,0,0,0,.53-.13,12.14,12.14,0,0,0,1.19-.45,11.6,11.6,0,0,0,3.2-2.2c.21-.19.38-.41.58-.6.72-.74,1-.91,1.6-.74.13,0,.28.07.41.12.41.18.42.79-.1,1.54a10.93,10.93,0,0,1-3,2.79,13.53,13.53,0,0,1-1.84,1c-.32.15-.65.28-1,.4l-.51.17-.27.08-.37.1a4,4,0,0,1-.49,0l-.39,0-.79,0a9.87,9.87,0,0,1-1.54,0c-.5-.05-1-.06-1.52-.13l-1.49-.23Z"/><path class="cls-3" d="M161.27,300.6c.84-.4,25,20.78,38,20"/><path class="cls-2" d="M177.74,179.93a6.8,6.8,0,0,1,.43-1.07c.3-.63.73-1.19,1.21-1.05a1,1,0,0,1,.65,1,2.9,2.9,0,0,1-1.21,1.88c-.5.47-1.4.54-1.29-.37a4.35,4.35,0,0,1,1-2"/><path class="cls-2" d="M178.37,180.18a3.92,3.92,0,0,0,1-1,1.36,1.36,0,0,0,.12-.39c.11-.36-.17-.75-.47-.52a1.86,1.86,0,0,0-.44.65,3.17,3.17,0,0,1-.43,1c-.15.2-1-.39-.85-.87a4.05,4.05,0,0,1,.64-1.21,3.45,3.45,0,0,1,.27-.29,1.88,1.88,0,0,1,.44-.3,1.12,1.12,0,0,1,1,0,1.63,1.63,0,0,1,.79,1.9,3.22,3.22,0,0,1-1.1,1.5c-.15.12-.22.2-.45.36a1.59,1.59,0,0,1-.67.26.86.86,0,0,1-.89-.36,1.37,1.37,0,0,1-.08-1,6.68,6.68,0,0,1,.41-1.24c0-.08.07-.17.12-.25.18-.29.31-.33.58-.21l.17.09a.44.44,0,0,1,.18.54c-.13.34-.23.62-.32.89l-.07.2a.48.48,0,0,0,0,.13h0s0,0,0,0Z"/><path class="cls-2" d="M182.42,179.3c.08.16-.14.24-.51.23a1.75,1.75,0,0,1-.5-.15l-.22-.2a2.73,2.73,0,0,0-.26-.59,1,1,0,0,1-.17-.35,1.67,1.67,0,0,0-.44-.6.33.33,0,0,1-.09-.13.54.54,0,0,0-.47-.31s-.06,0-.1,0a2.63,2.63,0,0,1-.65.08,1.71,1.71,0,0,0-.68,0s-.05,0-.11,0-.19,0-.26,0a1.11,1.11,0,0,1-.31.09.64.64,0,0,1-.24-.06c-.07,0-.18-.21-.18-.24s-.09-.15-.14-.23l-.06-.07a2.18,2.18,0,0,1,.49-.81,4.79,4.79,0,0,1,.54-.31,4.56,4.56,0,0,1,.7-.28.49.49,0,0,1,.24,0s.28-.06.56-.08a2.86,2.86,0,0,1,.61,0c.22.06.48.08.63.3a.29.29,0,0,0,.12.07,2.26,2.26,0,0,1,.89.73c.12.15.26.28.37.44a.35.35,0,0,1,0,.11.56.56,0,0,0,0,.12,4.51,4.51,0,0,1,.46,1.24,3.51,3.51,0,0,1-.08.71C182.65,179.07,182.39,179.25,182.42,179.3Z"/><path class="cls-2" d="M190.47,181.91c.14-.75.05-1.45.66-2a1,1,0,0,1,.71-.28c.43,0,1.2,1.72-.21,2.91-.53.45-1.33.7-1.32-.21a4.27,4.27,0,0,1,.75-2.07"/><path class="cls-2" d="M191.19,182a1.59,1.59,0,0,0,.67-.91,1.48,1.48,0,0,0,0-.42c0-.37,0-.48-.19-.58a.34.34,0,0,0-.3.09,1,1,0,0,0-.34.6,4,4,0,0,1-.18,1.1c-.12.22-1.07-.25-1-.66a3,3,0,0,1,.43-1.38,2.08,2.08,0,0,1,.27-.32,1.62,1.62,0,0,1,.38-.29,1.4,1.4,0,0,1,1-.2l.09,0a1.46,1.46,0,0,1,.78.85,2.31,2.31,0,0,1,.18.91,2.51,2.51,0,0,1-.77,1.74,2.73,2.73,0,0,1-.45.36,2,2,0,0,1-.64.3.82.82,0,0,1-.9-.26,1.47,1.47,0,0,1-.16-1,6.52,6.52,0,0,1,.26-1.26,2.67,2.67,0,0,1,.09-.26c.14-.31.27-.36.54-.27l.19.07a.44.44,0,0,1,.24.51c-.08.35-.15.63-.21.91,0,.12-.06.33-.06.34h0a0,0,0,0,0,0,0h0s0,0,.09-.06Z"/><path class="cls-2" d="M195.06,181c.08.17-.14.26-.51.25a1.48,1.48,0,0,1-.5-.15l-.22-.2a2.41,2.41,0,0,0-.27-.63,2.24,2.24,0,0,1-.2-.37,1.46,1.46,0,0,0-.49-.6.47.47,0,0,1-.11-.13.52.52,0,0,0-.52-.24s-.08,0-.12.05a3.65,3.65,0,0,1-.8.16,3.33,3.33,0,0,0-.77,0s-.06,0-.12,0-.2,0-.27,0a1.91,1.91,0,0,1-.34.1.6.6,0,0,1-.24-.05c-.08,0-.19-.21-.19-.24s-.09-.15-.15-.22a.24.24,0,0,1-.06-.08,2.41,2.41,0,0,1,.53-.84,7.55,7.55,0,0,1,1.25-.65.44.44,0,0,1,.23,0s.27-.09.55-.14a2.76,2.76,0,0,1,.6-.07,1.13,1.13,0,0,1,.71.2.25.25,0,0,0,.14.06,2.31,2.31,0,0,1,1.07.69c.14.15.3.29.43.45s0,.07,0,.11a.45.45,0,0,0,.06.12,5.2,5.2,0,0,1,.55,1.31,5,5,0,0,1-.06.76C195.29,180.7,195,180.9,195.06,181Z"/><path class="cls-2" d="M197,225.58v.22h0v2.09a1,1,0,0,0,0-.17v-2.15Z"/><path class="cls-2" d="M175.32,231.59l-.15.28s0,0,0,.08l-.26.34s0,.08.05.1.21.06,0,.15-2.16.44-2.19.41,0-.17.29-.32.05-.11.08-.17l.13-.2a.67.67,0,0,0,.06-.12c0-.06.07-.13,0-.16a.73.73,0,0,0-.28,0H173s.09-.06.6-.32l.34-.18a4.39,4.39,0,0,1,.86-.37c.4,0,.51.06.55.17a.81.81,0,0,1,0,.27Z"/><path class="cls-2" d="M350.82,187.22c-.12-.1,0-.25.34-.46a1.08,1.08,0,0,1,.5-.15,1.77,1.77,0,0,1,.33.19,5.66,5.66,0,0,1,.49,1.21,2.52,2.52,0,0,1,0,1,3,3,0,0,1-.47,1.19,2.29,2.29,0,0,1-1.16.82,1,1,0,0,1-.55.07c-.62,0-1.06-.17-1.56-.23a.43.43,0,0,0-.23,0,2.42,2.42,0,0,1-.73-.16,3.52,3.52,0,0,1-.68-.33c-.3-.25-.63-.46-.9-.72,0,0-.1,0-.11-.12s-.14-.22-.23-.28a2.17,2.17,0,0,1-.37-.31.89.89,0,0,1-.11-.26c0-.09.12-.26.15-.27s.1-.14.14-.22a.73.73,0,0,1,.05-.09,4.78,4.78,0,0,1,1.05.08s.3.14.61.25.62.2.69.21a.55.55,0,0,1,.18.13c0,.05.92.18,1,.2s.32,0,.47.17a.12.12,0,0,0,.1,0,1.82,1.82,0,0,1,.33,0c.13,0,.14,0,.24,0a.23.23,0,0,0,.11-.11h0s0,0,.05,0a1.37,1.37,0,0,0,.1-.85c0-.07.09-.51,0-.61S350.88,187.27,350.82,187.22Z"/><path class="cls-2" d="M361.24,183.44c-.12-.11,0-.24.38-.43a1.26,1.26,0,0,1,.5-.11,1.5,1.5,0,0,1,.31.19,5.87,5.87,0,0,1,.42,1.15,2.17,2.17,0,0,1,0,.92,2.07,2.07,0,0,1-.1.52,2,2,0,0,1-.22.55,2.21,2.21,0,0,1-1,1,2.67,2.67,0,0,1-.6.16l-.87-.08-.72-.15c-.08,0-.15,0-.23,0a2.54,2.54,0,0,1-.7-.21,2.4,2.4,0,0,1-.63-.36c-.26-.27-.56-.49-.79-.77,0,0-.09-.05-.1-.12s-.1-.23-.18-.3a1.39,1.39,0,0,1-.32-.32.66.66,0,0,1-.08-.26c0-.09.14-.25.18-.25s.11-.14.16-.22l0-.08a5.12,5.12,0,0,1,1,.14,8.63,8.63,0,0,0,1.17.53c.07,0,.11.08.16.13a2.37,2.37,0,0,0,.43.12c.21,0,.41.11.42.1s.27,0,.39.18.05,0,.07,0,.19,0,.23,0,.12,0,.13,0l.05,0,0-.1h0a.08.08,0,0,0,.05-.05,1.86,1.86,0,0,0,.09-.91c0-.07.11-.49.07-.59S361.29,183.48,361.24,183.44Z"/><path class="cls-2" d="M451.49,286.52C255,350,41.69,349.36,41.69,349.36s28.22,90,33.61,94.05c19.62,0,35.8-27,51.63-23.42,10.39,2.35,12.22,21.39,30,14.86,9.66-3.54,31.22-22.69,47.88-19.68,9.23,1.67,26.24,19.62,39.33,19.68,16.93.08,32.25-26.26,56.35-16.85,7.44,2.9,18.48,7.3,25.63,6.4,11.13-1.39,22.2-16.93,29.73-17.66,13-1.28,19.31,9.6,30.52,8.84,19-1.3,48.73-41.88,63.43-22.33,21.09,28.06,47.49-86.67,47.49-86.67C475.36,299,451.49,286.52,451.49,286.52ZM169.2,421.89c-2.12-.34-1.72-3.76.46-3.56a1.63,1.63,0,0,1,1.48,1.78A1.7,1.7,0,0,1,169.2,421.89Zm10-15c-5.71-.79-2.45-9.6,2.37-6.74a3.4,3.4,0,0,1,1.71,3.15A3.63,3.63,0,0,1,179.21,406.93Zm150,11.37c-3.26-.45-1.4-5.47,1.35-3.84a1.94,1.94,0,0,1,1,1.8A2.07,2.07,0,0,1,329.24,418.3Zm77.82-30.63c-3.83-.54-1.64-6.46,1.59-4.53a2.26,2.26,0,0,1,1.15,2.12A2.44,2.44,0,0,1,407.06,387.67Zm23.82-.37c-3.25-.45-1.39-5.48,1.35-3.84a1.92,1.92,0,0,1,1,1.79A2.09,2.09,0,0,1,430.88,387.3ZM442.93,377a3,3,0,0,1-3-3c0-2,1.61-3.07,3.57-2.39a3.27,3.27,0,0,1,2.24,2.45C446,375.5,445.07,377,442.93,377Z"/><path class="cls-2" d="M210.6,419c-.73-.44-1.48-.79-2.22-1.19s-1.51-.66-2.26-.95a15.89,15.89,0,0,0-4.74-.71,30.74,30.74,0,0,0-9.83,1.73c-6.46,2.14-12.51,5.58-18.44,9.17-3,1.8-5.91,3.68-8.93,5.48-1.52.9-3.05,1.78-4.68,2.57a22.16,22.16,0,0,1-2.56,1.05l-1.3.42-1.34.35a18,18,0,0,1-5.59.42,13.45,13.45,0,0,1-5.43-1.71c-3.36-1.88-5.69-4.77-7.91-7.43s-4.41-5.35-7.26-6.58a11.06,11.06,0,0,0-4.6-.76,15.89,15.89,0,0,0-4.77.93,40.35,40.35,0,0,0-8.94,4.76c-2.85,1.92-5.62,4-8.44,6.1s-5.66,4.15-8.69,6A44.32,44.32,0,0,1,83,443.29a26.83,26.83,0,0,1-5.34,1.12,12.77,12.77,0,0,1-1.37.09l-1,0c-.18,0-.39,0-.54-.07l-.42-.39-.38-.43-.18-.21-.11-.15c-.13-.21-.28-.41-.39-.61-.25-.41-.46-.81-.68-1.21-1.63-3.2-2.92-6.44-4.22-9.7-3.71-9.53-7-19.15-10.36-28.79s-6.5-19.3-9.63-29L44.3,361.18l-2-6.41-1-3.23-.87-2.78c-.4-.66.35-.42.74-.47h1.34l7.34-.07c2.24,0,4.48-.08,6.72-.12,4.48-.08,9-.22,13.43-.38,9-.24,17.92-.73,26.87-1.11l13.42-.79c4.48-.27,9-.49,13.42-.85l13.41-1c4.47-.32,9-.65,13.41-1.07l13.39-1.21c4.46-.41,8.93-.76,13.39-1.28L204,337.53l26.68-3.39c4-.47,7.89-1.06,11.83-1.65l11.82-1.77c7.88-1.18,15.77-2.3,23.6-3.74l23.5-4.09,2.93-.51,2.92-.58,5.82-1.17,11.63-2.34,14.92-3c4.95-1.09,9.89-2.27,14.84-3.41l14.85-3.44,7.42-1.71c2.46-.62,4.91-1.29,7.37-1.94L413.59,297l29.16-8.67c12.12-3.59,10.67-2.58.58,1-5,1.81-12.25,4.26-21,7.11l-6.84,2.21c-2.39.72-4.88,1.37-7.43,2.09-5.12,1.41-10.55,2.88-16.21,4.37C351.67,315.57,311,324,270,330.56s-82.42,11.4-124.1,14.78c-24.93,1.91-50.4,3.54-76.05,4.41-6.41.25-12.83.38-19.26.52l-4.83.06-2,0c-.3,0-.92-.12-.65.24l2.67,8.4q5.87,18.35,12,36.55,3.34,10,6.85,19.92c2.35,6.61,4.73,13.22,7.42,19.67.67,1.61,1.37,3.21,2.13,4.75a18.79,18.79,0,0,0,1.23,2.18c.14.21.16.22.21.29s.11.13.2.1l1,0a27.56,27.56,0,0,0,9.76-2.75c6.24-3,11.75-7.34,17.43-11.49a91.41,91.41,0,0,1,8.85-5.91,35.29,35.29,0,0,1,4.9-2.29,18.92,18.92,0,0,1,5.39-1.14,13.27,13.27,0,0,1,5.55.8,14.37,14.37,0,0,1,4.6,3.13c2.61,2.55,4.6,5.47,7,7.91a13.8,13.8,0,0,0,8.57,4.62,19.11,19.11,0,0,0,9.75-2.05c3.08-1.51,6.05-3.41,9-5.25s6-3.71,9.05-5.46a87,87,0,0,1,11.76-5.74,35.3,35.3,0,0,1,12.91-2.71,22.16,22.16,0,0,1,3.35.28,15.42,15.42,0,0,1,3.26,1,40.07,40.07,0,0,1,5.82,3.14c3.69,2.33,7.21,4.84,10.81,7.21A75.26,75.26,0,0,0,235.77,432a28.16,28.16,0,0,0,6,1.87l1.55.14.77.07c.26,0,.52,0,.77,0a13.31,13.31,0,0,0,1.55-.13,11.54,11.54,0,0,0,1.54-.27c4.09-.9,7.89-3,11.55-5.2s7.24-4.69,11-6.88a55.55,55.55,0,0,1,8.95-4.33,31.21,31.21,0,0,1,9.81-2,27.82,27.82,0,0,1,9.91,1.49c1.6.54,3.1,1.16,4.63,1.75s3.06,1.16,4.59,1.71a78,78,0,0,0,9.34,2.78,32.45,32.45,0,0,0,4.76.74,16.43,16.43,0,0,0,4.71-.22,25.29,25.29,0,0,0,8.61-4.07c2.68-1.81,5.2-3.89,7.74-6a62,62,0,0,1,8-5.88,14,14,0,0,1,2.32-1.08,8,8,0,0,1,2.57-.49,21.26,21.26,0,0,1,5,.23,30.92,30.92,0,0,1,9.36,3.42,64.93,64.93,0,0,0,8.74,4.23,16.09,16.09,0,0,0,9.28.59,34.06,34.06,0,0,0,8.83-3.7c5.61-3.21,10.82-7.13,16.12-10.89a139.46,139.46,0,0,1,12.7-8.33,40.89,40.89,0,0,1,7-3.18,18.74,18.74,0,0,1,7.67-1.09,12.22,12.22,0,0,1,7.12,3.17c.24.23.5.43.73.67l.63.74c.43.49.86,1,1.23,1.44a12,12,0,0,0,2.56,2.43,6.1,6.1,0,0,0,3.13,1.12,6.71,6.71,0,0,0,3.26-.71,17.53,17.53,0,0,0,5.38-4.66,66.14,66.14,0,0,0,7.69-12.6c2.18-4.44,4.1-9,5.9-13.65,3.58-9.27,6.65-18.75,9.48-28.31,2.49-8.43,4.71-16.73,6.85-25.33.24-1,.48-2,.71-2.93.1-.4.2-.81.29-1.2,0-.14.17-.37-.06-.37l-2.06-.74c-.86-.29-1.69-.6-2.5-.91-3.24-1.21-6.16-2.38-8.81-3.48-5.29-2.21-9.51-4.11-13-5.74a154.71,154.71,0,0,1-13.8-7.19c-1.38-.83-3.21-1.91-4-2.45-1.3-.93,1.05.11,6.47,2.59s13.91,6.42,25,10.95c4.12,1.67,8.29,3.28,12.52,4.74l2.4.85.18.06.08,0,0,.09-.08.36-.16.72-.3,1.28-.79,3.3c-.55,2.19-1.09,4.39-1.64,6.59q-3.37,13.17-7.43,26.32c-2.73,8.76-5.71,17.5-9.25,26.09-1.78,4.3-3.7,8.56-5.92,12.7-1.11,2.07-2.29,4.12-3.62,6.1a36.62,36.62,0,0,1-4.55,5.64,13.24,13.24,0,0,1-6.65,3.89,7.83,7.83,0,0,1-4.18-.45,10.27,10.27,0,0,1-3.35-2.2,15.63,15.63,0,0,1-1.31-1.4l-.6-.73-.53-.62a12,12,0,0,0-1.07-1.18c-.4-.33-.78-.7-1.19-1a9.82,9.82,0,0,0-5.74-2,17.85,17.85,0,0,0-6.36,1.14,39.19,39.19,0,0,0-6.17,2.82,124.37,124.37,0,0,0-11.67,7.59c-3.83,2.71-7.62,5.52-11.59,8.16a57.89,57.89,0,0,1-12.78,6.82,19.4,19.4,0,0,1-7.52,1.13,21.69,21.69,0,0,1-7.31-1.91c-4.51-2-8.39-4.67-12.65-6a21.15,21.15,0,0,0-4.82-.92c-.41,0-.81-.07-1.22-.07l-1.23.05a6.56,6.56,0,0,0-2.2.34,17.76,17.76,0,0,0-4.25,2.31c-1.38,1-2.74,2-4.1,3.14-2.71,2.2-5.42,4.5-8.35,6.58a29.84,29.84,0,0,1-9.86,5,18,18,0,0,1-5.69.4,34.7,34.7,0,0,1-5.43-.84,85.93,85.93,0,0,1-10.27-3.13c-1.67-.61-3.32-1.24-5-1.88a43,43,0,0,0-4.84-1.69,25.12,25.12,0,0,0-9.91-.75,33.14,33.14,0,0,0-9.68,2.82,76.23,76.23,0,0,0-9.08,5c-3,1.85-5.9,3.81-9,5.63a40.84,40.84,0,0,1-10,4.49,20,20,0,0,1-5.63.65l-1.43-.12a8,8,0,0,1-1.4-.2,26.37,26.37,0,0,1-2.72-.68,46.42,46.42,0,0,1-9.84-4.62c-3.08-1.83-6-3.81-8.94-5.79s-5.8-4-8.77-5.7Z"/><path class="cls-2" d="M169.72,419.73a.15.15,0,0,0,0-.15.61.61,0,0,0-.28-.14.69.69,0,0,0-.17.05.54.54,0,0,0-.4.19,1.18,1.18,0,0,0-.25.59.57.57,0,0,0,.18.5c.18.15.32.08.5.34a2.15,2.15,0,0,1-.23,1.14c-.22.49-.73.93-1.15.69a2.73,2.73,0,0,1-1.36-1.84,2.67,2.67,0,0,1,.34-2,3.35,3.35,0,0,1,1.74-1.65A2.61,2.61,0,0,1,171,418a2.51,2.51,0,0,1,.72,1.32,3.22,3.22,0,0,1-.31,2,2.67,2.67,0,0,1-1.15,1.32,1.36,1.36,0,0,1-.39.17c-.53.11-.69-.1-.7-.66,0-.13,0-.26,0-.39a2.33,2.33,0,0,1,.29-.92.44.44,0,0,0,.09-.39,1.35,1.35,0,0,1,.05-.29,1.15,1.15,0,0,0,0-.43Z"/><path class="cls-2" d="M181.43,401.76a2.37,2.37,0,0,0-.91-.71,1.51,1.51,0,0,0-.54-.21,1.44,1.44,0,0,0-.54-.07c-.14,0-.26.06-.38.1l-.19.06-.18.1a3.29,3.29,0,0,0-1.71,2.81,2,2,0,0,0,.5,1.37,7.28,7.28,0,0,0,1.69.92c.19.12.12.67-.2,1.14a1.81,1.81,0,0,1-.69.59,1,1,0,0,1-.93,0,4.53,4.53,0,0,1-.8-.45c-.24-.2-.48-.42-.71-.65a4.35,4.35,0,0,1-.85-1.69,4.73,4.73,0,0,1,.44-3.32,5.59,5.59,0,0,1,2.73-2.8,3.18,3.18,0,0,1,1.13-.24h.57a4.86,4.86,0,0,1,.55.1l.53.13c.17.07.32.16.48.23a5.45,5.45,0,0,1,.9.53,4.29,4.29,0,0,1,1.47,2.13,4.84,4.84,0,0,1-.5,3.68,4.76,4.76,0,0,1-2.1,2.11,4.06,4.06,0,0,1-.66.25c-.87.17-1.16-.07-1.25-.64a2.6,2.6,0,0,1-.05-.39,1,1,0,0,1,.64-.91,3.12,3.12,0,0,0,1.2-.86,3.21,3.21,0,0,0,.68-1.29,2.2,2.2,0,0,0-.36-2Z"/><path class="cls-2" d="M330.08,415.74a.75.75,0,0,0-.29-.31.85.85,0,0,0-.36-.16s-.08,0-.12,0a.21.21,0,0,0-.12.05,1.38,1.38,0,0,0-.89,1.17.7.7,0,0,0,.22.59c.22.15.46.12.75.41a1.78,1.78,0,0,1-.2,1.14c-.22.48-.7,1-1.15.75a2.85,2.85,0,0,1-1.67-2,3,3,0,0,1,.38-2.24,4,4,0,0,1,1.84-1.82,2.53,2.53,0,0,1,1.51-.08,1.8,1.8,0,0,1,.65.25,3.44,3.44,0,0,1,.58.35,2.83,2.83,0,0,1,.92,1.41,3.13,3.13,0,0,1-.33,2.33,3.23,3.23,0,0,1-1.3,1.43,2.35,2.35,0,0,1-.43.19c-.58.12-.78-.08-.8-.65a2.54,2.54,0,0,1,0-.39,1.57,1.57,0,0,1,.34-.92,1.48,1.48,0,0,0,.3-.5,2.52,2.52,0,0,0,.17-.44.8.8,0,0,0,0-.58Z"/><path class="cls-2" d="M408.23,384.49a1.16,1.16,0,0,0-.44-.4.78.78,0,0,0-.27-.14c-.09-.06-.17,0-.25-.06s-.13,0-.19,0l-.18.08a1.86,1.86,0,0,0-1.08,1.56,1,1,0,0,0,.29.78c.27.22.59.23,1,.53a1.5,1.5,0,0,1-.21,1.14c-.25.47-.77,1-1.26.71a3.09,3.09,0,0,1-1.82-2.18,3.43,3.43,0,0,1,.39-2.49,4.36,4.36,0,0,1,2.06-2.05,2.48,2.48,0,0,1,.85-.17,2.28,2.28,0,0,1,.83.08l.4.11.34.17a3.59,3.59,0,0,1,.64.4,3.09,3.09,0,0,1,1.06,1.57,3.52,3.52,0,0,1-.38,2.65,3.56,3.56,0,0,1-1.49,1.59,2.86,2.86,0,0,1-.48.2c-.65.14-.87-.07-.91-.64a2.55,2.55,0,0,1,0-.39,1.26,1.26,0,0,1,.41-.92,2.52,2.52,0,0,0,.81-1.23,1.08,1.08,0,0,0-.1-.9Z"/><path class="cls-2" d="M431.73,384.75a.74.74,0,0,0-.3-.32,1,1,0,0,0-.35-.17c-.05,0-.08,0-.12,0l-.13,0a1.43,1.43,0,0,0-.89,1.18.74.74,0,0,0,.22.59c.23.15.46.12.75.41a1.78,1.78,0,0,1-.2,1.14c-.22.47-.7,1-1.16.74a2.81,2.81,0,0,1-1.65-2,3,3,0,0,1,.38-2.24,4.05,4.05,0,0,1,1.84-1.82,2.57,2.57,0,0,1,.77-.15,2.34,2.34,0,0,1,.75.08,2.2,2.2,0,0,1,.65.25,3.33,3.33,0,0,1,.56.36,2.71,2.71,0,0,1,.93,1.39,3.09,3.09,0,0,1-.34,2.34,3.21,3.21,0,0,1-1.3,1.42,1.66,1.66,0,0,1-.43.19c-.58.13-.77-.07-.8-.64a2.54,2.54,0,0,1,0-.39,1.65,1.65,0,0,1,.33-.92,1.4,1.4,0,0,0,.31-.51,1.93,1.93,0,0,0,.18-.44.74.74,0,0,0,0-.56Z"/><path class="cls-2" d="M443.75,373.22a2.45,2.45,0,0,0-1.62-.68,1.29,1.29,0,0,0-.5.17,1.23,1.23,0,0,0-.67.72,2.19,2.19,0,0,0-.12,1.27,1.65,1.65,0,0,0,.65.94,13.3,13.3,0,0,0,1.33.57c.14.07.17.63-.05,1.15a1.17,1.17,0,0,1-1.34.82,4,4,0,0,1-2.26-1.93,3.74,3.74,0,0,1-.29-2.84,5.14,5.14,0,0,1,.7-1.58,3,3,0,0,1,1.4-1.13,4,4,0,0,1,3.44.42,4.34,4.34,0,0,1,1.48,1.44,3.61,3.61,0,0,1-1.32,5,3.43,3.43,0,0,1-.52.23c-.67.19-.91,0-1-.55a2.57,2.57,0,0,1-.08-.38,1,1,0,0,1,.42-1,2.25,2.25,0,0,0,.77-.71,1.36,1.36,0,0,0,.2-.7,1.67,1.67,0,0,0-.61-1.25Z"/><path class="cls-2" d="M99.15,245.68c-.4.11-.82.19-1.25.27-.24,0-.39.06-.72.08a4.4,4.4,0,0,1-1-.05,1.73,1.73,0,0,1-1.37-1.18,2.71,2.71,0,0,1,.14-1.91,4.8,4.8,0,0,1,.29-.54c.09-.14.18-.3.28-.43a4.93,4.93,0,0,1,.63-.73,19.51,19.51,0,0,1,5.24-3.33c.83-.37,1.65-.75,2.51-1.08a9.16,9.16,0,0,1,1.75-.51,2.88,2.88,0,0,1,1,0,1.67,1.67,0,0,1,1.19.69c.16.31.07.49-.11.53a6.56,6.56,0,0,0-.69.09c-.26.09-.35.29-.49.44a.7.7,0,0,1-.5.28,13.27,13.27,0,0,0-2.89.86c-1,.38-2,.84-3,1.32a10.08,10.08,0,0,0-3.07,2.42c-.48.62-.58.76-.53,1.09,0,.17.21.22.36.23a1.2,1.2,0,0,0,.27,0,5,5,0,0,0,.52-.07,14.28,14.28,0,0,0,2.62-.79,18,18,0,0,0,3.74-2,8.44,8.44,0,0,0,2.14-2.21c.1-.18.18-.36.25-.52a2.83,2.83,0,0,1,.28-.58,2,2,0,0,1,.46-.32l.31-.21a.39.39,0,0,1,.54.12,1.3,1.3,0,0,1,.25,1.07,5.67,5.67,0,0,1-1.87,3.08,15,15,0,0,1-2.7,2,21.78,21.78,0,0,1-4.54,1.94Z"/><path class="cls-2" d="M104.28,245.93a18.36,18.36,0,0,0,2.5-1.56c.28-.22.52-.48.78-.71a6.34,6.34,0,0,0,1-1,1.43,1.43,0,0,0,.16-.24.6.6,0,0,0,.08-.16.39.39,0,0,0,0-.33.8.8,0,0,0-.22-.24,1.74,1.74,0,0,0-1.3-.1,15.86,15.86,0,0,1-2,.57c-.48,0-.6-1.85.32-2.17a6.51,6.51,0,0,1,2.18-.4,3.06,3.06,0,0,1,2.62,1.34,2.72,2.72,0,0,1,.27.77,2,2,0,0,1-.06.8,3.65,3.65,0,0,1-.2.56c-.09.15-.15.29-.23.41a7.82,7.82,0,0,1-.49.7,9,9,0,0,1-1.07,1.14,18.12,18.12,0,0,1-2.68,1.9c-.57.34-1.16.64-1.76.94a23,23,0,0,1-2.82,1.12,7.22,7.22,0,0,1-2.46.52,2.53,2.53,0,0,1-.66-.08,1.31,1.31,0,0,1-.78-.56.59.59,0,0,1,.1-.63,1.38,1.38,0,0,1,.22-.26,1.59,1.59,0,0,1,.86-.29,9.29,9.29,0,0,0,3.07-.77,21.16,21.16,0,0,0,2.64-1.26Z"/><path class="cls-2" d="M106.07,250.17a20.45,20.45,0,0,0,2.37-1.54c.27-.22.5-.47.76-.69a12.32,12.32,0,0,0,1.28-1.21,5.34,5.34,0,0,0,.48-.64.59.59,0,0,0,.12-.43,1.2,1.2,0,0,0-.78-.68,9.1,9.1,0,0,0-1.7-.08c-.19,0-.32-.47-.24-1a1.16,1.16,0,0,1,1-1.07,3.66,3.66,0,0,1,2.92,1.21,3.25,3.25,0,0,1,.52.85l.14.5a2.18,2.18,0,0,1,0,.51,4.05,4.05,0,0,1-.12.5c-.07.17-.15.32-.2.43a5.11,5.11,0,0,1-.42.56,23.15,23.15,0,0,1-2,2.14,21.08,21.08,0,0,1-2.51,1.82c-.54.33-1.09.65-1.65.94a17.23,17.23,0,0,1-2.68,1.13,6.32,6.32,0,0,1-2.39.48,2.79,2.79,0,0,1-.62-.11c-.81-.31-.89-.74-.61-1.14a2,2,0,0,1,.21-.28,1.29,1.29,0,0,1,.87-.3,7.19,7.19,0,0,0,2.81-.71,17.27,17.27,0,0,0,2.46-1.25Z"/><path class="cls-2" d="M172.8,164.13c9.71,7.22,40.51.61,44.21,5.13,3.4,4.22-3.59,13.54-4,14.12,0,0,9.12.7,5,8.56,19,2.13,27.19-14.88,26.55-24-1.4-20.06-19.79-15.35-19.79-15.35-12-15.52-41.08-38.31-56.6-11.67C164.21,147.6,166.36,159.36,172.8,164.13Z"/><path class="cls-2" d="M224.28,149.69c.28.33.55.66.81,1l.16.2,0,0,0,.05.23,0c.37-.06.75-.11,1.12-.14.75-.08,1.5-.12,2.26-.13a21.67,21.67,0,0,1,4.52.46,14.75,14.75,0,0,1,8,4.56,17.56,17.56,0,0,1,3.86,8.19c.16.73.25,1.46.36,2.19s.17,1.45.17,2.22a15.57,15.57,0,0,1-.07,2.27,16.65,16.65,0,0,1-.33,2.23,29.78,29.78,0,0,1-.88,3.37,30.16,30.16,0,0,1-1.34,3.21,26.72,26.72,0,0,1-3.81,5.79,23.21,23.21,0,0,1-7.27,5.59,25.81,25.81,0,0,1-4.3,1.66,27,27,0,0,1-4.53.69c-.76,0-1.53.14-2.28.09l-3.18-.19-.89-.05-.45,0c0-.08.09-.26.13-.38l.7-1.64.35-.85.18-.63a3.46,3.46,0,0,0,.15-.89,3.26,3.26,0,0,0-.25-1.63,3.46,3.46,0,0,0-1.11-1.25,6.09,6.09,0,0,0-1.69-.85,5.79,5.79,0,0,0-.85-.23,7.8,7.8,0,0,0-.91-.16l-2-.23c0-.1.16-.28.28-.44l.37-.48.73-1c.23-.32.46-.64.67-1l.51-.76c.51-.8,1-1.62,1.43-2.46a15.77,15.77,0,0,0,1.83-5.18,5.11,5.11,0,0,0-.17-2.19,3.22,3.22,0,0,0-.47-.9c-.1-.12-.2-.18-.29-.28l-.43-.25a14.5,14.5,0,0,0-4.76-.85c-3.4-.18-6.85,0-10.28.05-4.4.13-8.84.3-13.31.11a52.43,52.43,0,0,1-6.7-.67,21.57,21.57,0,0,1-6.54-2.07,4.7,4.7,0,0,1-1.31-.94c-.23-.25-.29-.41-.2-.49s.32-.1.67,0l1.38.28a42.51,42.51,0,0,0,4.61.71c1.92.2,4.17.34,6.65.5,7.7.5,15.51-.15,23.53,0a25.67,25.67,0,0,1,6.27.8c.28.09.58.22.87.33a7.65,7.65,0,0,1,.91.51,4.91,4.91,0,0,1,.86.84,5.42,5.42,0,0,1,.54.89,6.82,6.82,0,0,1,.56,3.7,17.45,17.45,0,0,1-2.08,6.12c-.48.92-1,1.8-1.57,2.66l-.21.32-.05.07v0l-.08.1c0,.06-.15.15-.14.19a2,2,0,0,1,.27.08l.51.19c.3.12.61.27.91.41a6,6,0,0,1,2.92,3.1l.22.64a5.07,5.07,0,0,1,.09.65l.06.66-.06.62A4.93,4.93,0,0,1,220,190l-.08.27,0,.07a.69.69,0,0,1-.05.13c-.07.17-.29.44,0,.38l.91.06a11.91,11.91,0,0,0,2-.05c.65-.06,1.32,0,2-.17a21.16,21.16,0,0,0,3.84-1,21.6,21.6,0,0,0,3.61-1.61l1.66-1.1a15.31,15.31,0,0,0,1.55-1.24,24.37,24.37,0,0,0,7.92-14.37,17.25,17.25,0,0,0,.1-4.31,22.27,22.27,0,0,0-.79-4.31,13.25,13.25,0,0,0-4.52-7.06,14.07,14.07,0,0,0-8-2.7,22.21,22.21,0,0,0-2.58,0,17.8,17.8,0,0,0-3.08.5l-1.67-2.09c-.46-.54-.9-1.09-1.37-1.62-.93-1.07-1.88-2.12-2.87-3.14a79.06,79.06,0,0,0-6.2-5.8,58,58,0,0,0-14.18-9,31.73,31.73,0,0,0-8-2.3,20.26,20.26,0,0,0-8.14.43,19,19,0,0,0-5.66,2.71,23.63,23.63,0,0,0-4.54,4.34c-.6.87-1.29,1.66-1.82,2.58a23.08,23.08,0,0,0-1.53,2.7,15.41,15.41,0,0,0-1.22,6,21.74,21.74,0,0,0,.63,5.38,22.89,22.89,0,0,0,2.7,6.62c.42.64.71,1.2,1,1.63s.46.85.65,1.19a9,9,0,0,1,.49,1c.12.41-.45.25-1.61-.52a14.11,14.11,0,0,1-3.9-4.91,23.06,23.06,0,0,1-2.27-12.14,16.35,16.35,0,0,1,1.86-6.27c.54-.92,1.09-1.79,1.65-2.68s1.23-1.73,1.94-2.53a23.31,23.31,0,0,1,2.23-2.33,22,22,0,0,1,2.54-2.06,20.84,20.84,0,0,1,6-2.84,22.87,22.87,0,0,1,6.57-.83,30.37,30.37,0,0,1,6.46,1,50.35,50.35,0,0,1,16.72,8.7,83.05,83.05,0,0,1,13.5,12.93Z"/><path class="cls-2" d="M179.74,215c1.71,3.91,8,5,13.38,2.64,4.48-1.95,1.39-3.23,1.83-7C189,215.22,183.89,215.51,179.74,215Z"/><path class="cls-2" d="M194.64,209.36l.82-.59c.27-.19.56-.41.77-.53l-.11,1.38c0,.48-.08,1-.09,1.43s0,.89,0,1.26l.06.39.06.28.28,1.22a3.68,3.68,0,0,1,0,1.72,3,3,0,0,1-.88,1.38l-.54.43-.55.31a15.3,15.3,0,0,1-8,1.47,13.81,13.81,0,0,1-3.57-.77,8,8,0,0,1-2.12-1.17,4.61,4.61,0,0,1-1.48-2c-.19-.5.31-.58.9-.48a3.82,3.82,0,0,1,1.73.75,7.82,7.82,0,0,0,3.4,1.59,14.73,14.73,0,0,0,4.11.26,10.53,10.53,0,0,0,4.76-1.65,1.18,1.18,0,0,0,.55-.68,2.78,2.78,0,0,0-.14-1.16l-.18-.76c0-.13-.06-.26-.08-.4l0-.26a3.27,3.27,0,0,1,0-.7V212c0-.11,0-.06-.08,0l-.16.1-.34.22-.44.27c-.25.17-.52.3-.78.46a21.54,21.54,0,0,1-5.39,2.18,22.25,22.25,0,0,1-4.43.79c-.33,0-.65.05-1,0-1.23,0-1.61-.22-1.81-.73a2.6,2.6,0,0,1-.13-.36c-.06-.4.45-.64,1.29-.7a24.49,24.49,0,0,0,7.4-1.37,23.24,23.24,0,0,0,2.6-1.17c.42-.24.84-.47,1.25-.73l.51-.33c.21-.13.41-.27.62-.43l1.23-.9Z"/><path class="cls-2" d="M190.28,214a26.39,26.39,0,0,1-3.81,1.54,18.76,18.76,0,0,1-4.1.74,14.61,14.61,0,0,1-4.21-.36,12.9,12.9,0,0,1-3.9-1.69,13.5,13.5,0,0,1-4.27-4.37,18.1,18.1,0,0,1-2.34-10.16,41.24,41.24,0,0,1,1.82-10c.84-2.87,1.77-5.7,2.64-8.5a78.83,78.83,0,0,0,2.66-10.78c.18-1.12.72-1,1.16.07a6.14,6.14,0,0,1,.45,2.19,10.37,10.37,0,0,1-.3,3c-1.92,7.65-5.25,14.61-6.28,22.06a18.81,18.81,0,0,0,.23,6.69,13.55,13.55,0,0,0,2.93,5.91A10.66,10.66,0,0,0,179,214a11.66,11.66,0,0,0,3.64.18,16.48,16.48,0,0,0,1.83-.27c.6-.17,1.21-.28,1.8-.51a27.74,27.74,0,0,0,8.16-4.52,58.67,58.67,0,0,0,10.13-10.22c.54-.72,1.11-1.41,1.62-2.15l.77-1.09.49-.69a9.72,9.72,0,0,1,.59-.8l1.06.28.26,0,.16,0,.33,0a9.94,9.94,0,0,0,1.33.06,7.61,7.61,0,0,0,2.52-.47,7.05,7.05,0,0,0,1.82-1.06c.23-.23.45-.44.66-.62s.34-.41.48-.59c.33-.34.49-.71.71-.94a3.39,3.39,0,0,1,1.07-1,3.32,3.32,0,0,1,.53-.27c.26-.07.37.21.3.82a5.83,5.83,0,0,1-1,2.58,8.09,8.09,0,0,1-4.58,3.35,10.76,10.76,0,0,1-2.87.36,14,14,0,0,1-1.44-.11l-.35-.06h-.15v0l-.18.24-.77,1.08c-.51.73-1.08,1.41-1.62,2.12s-1.11,1.4-1.69,2.09-1.16,1.37-1.78,2a54.29,54.29,0,0,1-5.77,5.57,36.61,36.61,0,0,1-6.76,4.53Z"/><path class="cls-2" d="M197,226.92c-6.69,1.9-3,15.64-4.76,17.21-3.51-2.58-10.65-7-9.1-11.42-1.06,3.54-2.53,8.9-8,10.11C176.35,238.61,171.93,215.1,197,226.92Z"/><path class="cls-2" d="M176.78,239.13l-.05.87,0,.44a.94.94,0,0,1,0,.14,1.22,1.22,0,0,1-.06.27c0,.09.16,0,.26,0l.1-.05a1.7,1.7,0,0,0,.43-.26,5.92,5.92,0,0,0,.81-.61,8.63,8.63,0,0,0,1.37-1.57c.21-.29.38-.61.57-.92a11.58,11.58,0,0,0,.62-1.31,30.42,30.42,0,0,0,1.09-3.11,2.73,2.73,0,0,0,.53,0,1.43,1.43,0,0,0,.36-.07c.09-.07.18.09.27-.52l.13-.66,0-.08v-.06h0c0-.24-.12,2.1-.06,1.11h0v0l0,0c-.07.07-.15.14-.12.22v.13a.91.91,0,0,0,.13.16l.13.15s.2.12.29.18l.31.2a3.36,3.36,0,0,0,.39.23l.34,1.82a1.74,1.74,0,0,0,.31.59l.19.28a13.15,13.15,0,0,0,.83,1.05,24,24,0,0,0,2,1.93c.71.61,1.44,1.2,2.2,1.78l1.51,1.15c.05,0,.12.12.17.12a.81.81,0,0,0,.12-.18,1.89,1.89,0,0,0,.1-.41c0-.14,0-.27,0-.45v-.81l0-1.84c0-1.23-.06-2.48,0-3.73a18.46,18.46,0,0,1,.67-4.89,7.29,7.29,0,0,1,1.19-2.36,5.11,5.11,0,0,1,2.2-1.64c1.13-.34,1,.3.49,1.05-.23.42-.53.87-.76,1.4s-.46,1.12-.73,1.82a20.28,20.28,0,0,0-.86,6.64l0,3.65a11.9,11.9,0,0,1-.31,2.8,2.67,2.67,0,0,1-.63,1.17l-.43.51c-.13.14-.25.24-.38.36l-1.79-1.34-.87-.66-.48-.37c-.63-.49-1.26-1-1.87-1.53a34,34,0,0,1-2.58-2.4c-.42-.42-.81-.9-1.21-1.38l-.42-.61c-.05-.07-.09-.16-.14-.24a1.69,1.69,0,0,1-.15-.43,1.26,1.26,0,0,1,0-.58c.05-.18,0,0,0,.09l-.08.26-.13.35c0,.14-.11.28-.18.43l-.43.85a12.75,12.75,0,0,1-1.74,2.48,8.76,8.76,0,0,1-2.47,1.92,10,10,0,0,1-2,.78c-.33.11-.67.19-1,.28l-.5.14c-.18.05-.2,0-.3,0l.23-1.13a14.14,14.14,0,0,0,.24-1.64l.06-.72,0-.5.1-2c.08-1.35.18-2.71.38-4.07a18,18,0,0,1,1.83-6,10.43,10.43,0,0,1,2-2.55,9,9,0,0,1,2.82-1.65,12.32,12.32,0,0,1,4.87-.59,21.22,21.22,0,0,1,2.4.26c.78.17,1.57.3,2.33.52s1.35.35,2,.6c2.46.88,3.12,1.43,3.39,2.15a2.21,2.21,0,0,1,.17.49c0,.51-1.06.4-2.78-.2a30.37,30.37,0,0,0-7.89-1.71,10.29,10.29,0,0,0-3.75.42,6.27,6.27,0,0,0-2.87,2,12.09,12.09,0,0,0-2.2,5.32,41.14,41.14,0,0,0-.61,6.29Z"/><path class="cls-2" d="M203.54,289.83a13.08,13.08,0,0,0,1.65.3l3.15.5c.77.13,1.55.21,2.31.37a25.85,25.85,0,0,1,7.87,2.9c1.08.62,2.13,1.3,3.13,2A16.74,16.74,0,0,1,225.2,299c.61.76-1.7,1.41-3,.31a32.09,32.09,0,0,0-7.39-4.93,21.9,21.9,0,0,0-5.39-1.41c-1-.19-2.07-.36-3.11-.52l-1.57-.23-1.88-.26-1.89-.26.46-1.91.31-1.39a52.55,52.55,0,0,0,1-5.79,23.15,23.15,0,0,0-.05-4.41c0-.32-.11-.61-.14-.92a4.63,4.63,0,0,1-.09-1.18,1.06,1.06,0,0,1,.38-.67c.1-.1.19-.22.3-.31a.46.46,0,0,1,.63.05,2.07,2.07,0,0,1,.64,1c.85,2.92.53,5.87.15,8.75-.15,1.07-.34,2.14-.55,3.2l-.34,1.58,0,.09Z"/><path class="cls-4" d="M18.43,176.05l.19-.07a7.69,7.69,0,0,1,1-.39,46.56,46.56,0,0,1,13.33-2.1,37.91,37.91,0,0,1,13.21,2.33c8.49,3.09,15.69,9.08,21.71,15.91a143.75,143.75,0,0,1,15.76,22.54c4.65,8,8.87,16.18,13.13,24.4a5.92,5.92,0,0,1,.4.93.82.82,0,0,0,.09.19,1.22,1.22,0,1,0,2.16-1.12,1.74,1.74,0,0,0-.11-.18,8.19,8.19,0,0,1-.56-.91l-2.07-4c-4.1-7.88-8.24-15.77-12.86-23.41A132.05,132.05,0,0,0,68,188.49a68.58,68.58,0,0,0-10.12-9,46.23,46.23,0,0,0-12.09-6.24,40.09,40.09,0,0,0-13.48-2.05,49.39,49.39,0,0,0-13.4,2.22,8.56,8.56,0,0,1-1,.24l-.21,0a1.24,1.24,0,0,0-.9,1.56A1.31,1.31,0,0,0,18.43,176.05Z"/><path class="cls-4" d="M104.78,253h0s.07,0,.08,0l1.58,2.79s0,0,0,.06h0a1.73,1.73,0,0,0,.32-.15l.75-.42.74-.44a1.43,1.43,0,0,0,.3-.21h0s-.07,0-.08,0l-.06-.11-1.5-2.65s0,0,.05-.06v0a1.63,1.63,0,0,0-.33.15l-.76.41-.74.43A1.74,1.74,0,0,0,104.78,253Z"/><path class="cls-2" d="M32.52,238c-4.33-5.2-8.6-10.51-12.42-16.16-1.4-2.06-2.78-4.13-4-6.31a51,51,0,0,1-5.18-12.18c-1.11-4.27-1.54-8.92-.22-13.26a22.06,22.06,0,0,1,6.27-10,36.28,36.28,0,0,1,12.81-7.68c1.45-.55,1.42,0,.41.93A15.31,15.31,0,0,1,28,175a36.06,36.06,0,0,1-3.21,2c-1.08.57-2.06,1.29-3.1,1.92s-1.92,1.45-2.86,2.2l-1.29,1.24-.65.62-.56.69L15.2,185l-.94,1.5a20.08,20.08,0,0,0-2.2,13.85,35.75,35.75,0,0,0,2.69,8.57,72.78,72.78,0,0,0,4.38,8.1,154.84,154.84,0,0,0,12,16.39l8,9.68c1,1.24,2,2.43,3,3.79a11.6,11.6,0,0,1,2,4.57,6.25,6.25,0,0,1-1.29,4.9A12.7,12.7,0,0,1,39,259.41c-4.4,2.43-9.14,3.66-13.48,5.56a13.84,13.84,0,0,0-2.6,1.47c-1.43,1.12-1.09,1.8-.78,2.55a9.7,9.7,0,0,1,.77,1.62,4.3,4.3,0,0,1,.19.63c0,.27-.33.22-1-.2A5.27,5.27,0,0,1,21,270a3.33,3.33,0,0,1-.84-2.32,3.29,3.29,0,0,1,.9-2,7,7,0,0,1,1.45-1.21,20.3,20.3,0,0,1,3.11-1.59c2.1-.88,4.22-1.6,6.32-2.37A45.08,45.08,0,0,0,38,257.89c1.87-1,3.59-2.38,4.16-4a5.32,5.32,0,0,0-.43-4,18.88,18.88,0,0,0-2.66-4c-2.13-2.63-4.34-5.23-6.54-7.85Z"/><path class="cls-2" d="M158.53,326.3c.63-1.93,1.24-3.88,1.8-5.85l.55-2.16c.72-2.52,1.43-5.05,2-7.61a28.8,28.8,0,0,0,.55-3.43c.08-.72.11-1.46.14-2.17s.08-1.47.07-2a.77.77,0,0,1,1.11-.32,2.37,2.37,0,0,1,1.18,2.15,38.88,38.88,0,0,1-1.82,9.2c-.56,1.77-.9,3.66-1.4,5.48-.55,2-1.14,4-1.75,6l-1.16,3.65c-.61,1.84-1.23,3.68-1.84,5.5-.46,1.42-.83,2.85-1.31,4.27-.11.32-.2.63-.33.94-.48,1.16-.84,1.46-1.46,1.41a1.93,1.93,0,0,1-.42-.05c-.44-.14-.5-.7-.26-1.51.73-2.44,1.58-5,2.43-7.65.63-1.94,1.27-3.9,1.87-5.87Z"/><path class="cls-2" d="M326.28,137.81a67.6,67.6,0,0,1,7.22-2.72,76,76,0,0,1,7.43-2c.91-.2,1.83-.39,2.75-.57l.69-.13.95-.15.3,0a1.74,1.74,0,0,1,.27.14l.52.29a5.9,5.9,0,0,1,.73.56,11,11,0,0,1,1.72,2.09,22.28,22.28,0,0,1,1.27,2.2,48,48,0,0,1,2,4.54c1.2,3.07,2.2,6.18,3.12,9.32l.84,2.95.3.14.22.08.29.09a10.88,10.88,0,0,0,1.19.28,20.61,20.61,0,0,0,2.49.27c3.59.17,7.24-.27,10.9-.36,2.28-.08-.39,2.29-4.69,2.58a49.68,49.68,0,0,1-5.86.06,24.29,24.29,0,0,1-3-.33,13.44,13.44,0,0,1-1.55-.38l-.39-.13-.2-.07-.1,0-.16-.07-1.25-.59-.88-3.28-.76-2.65c-.53-1.76-1.07-3.52-1.66-5.26a41.91,41.91,0,0,0-2.64-6.22,19.88,19.88,0,0,0-1.78-2.77,6.28,6.28,0,0,0-1.05-1.07.79.79,0,0,0-.3-.19l-.53.08a76.33,76.33,0,0,0-14.52,4,56.16,56.16,0,0,0-8.33,4c-.84.55-1.7,1.07-2.52,1.65s-1.61,1.2-2.38,1.83-1.48,1.35-2.2,2L313,150l.51,1.56c1.12,3.49,2.27,6.9,3.18,10.45.2.78.4,1.55.55,2.36.57,3,.33,4.18-.38,4.77a1.16,1.16,0,0,1-.51.29.26.26,0,0,1-.26-.18,1.19,1.19,0,0,1-.08-.2,1.84,1.84,0,0,1-.06-.29c-.1-.53-.23-1.28-.4-2.24-.49-2.6-1.28-5.29-2.07-8l-1.25-4.09-.65-2c-.31-1-.62-1.9-.94-2.84l2.57-3a43.48,43.48,0,0,1,13-8.8Z"/><path class="cls-2" d="M322.3,182.28a98.08,98.08,0,0,0,19.35-7.2c2.27-1.1,4.48-2.33,6.7-3.54,3.92-2.13,7.76-4.42,11.57-6.78s7.56-4.8,11.49-7.07c.87-.5,1.76-1,2.69-1.44a14.67,14.67,0,0,1,1.45-.61,5.4,5.4,0,0,1,1.7-.38,2.05,2.05,0,0,1,1.91.88,2.69,2.69,0,0,1,.34,1.06,5.41,5.41,0,0,1,0,.89,12.86,12.86,0,0,1-.69,3.12,20.41,20.41,0,0,1-4.31,6.63,30,30,0,0,1-6,5c-1.39.84-1.48.24-.68-.94a40.16,40.16,0,0,1,4.35-5,21.5,21.5,0,0,0,4.26-5.82,10.48,10.48,0,0,0,.56-1.6,9.85,9.85,0,0,0,.3-1.62v-.37a0,0,0,0,0,0,0s0,0-.08,0-.14,0-.25,0l-.35.09a19.26,19.26,0,0,0-3.27,1.47c-1.12.6-2.22,1.25-3.33,1.91L363.35,165c-5.35,3.24-10.86,6.77-16.55,9.78a114.82,114.82,0,0,1-19.54,8.31,76.74,76.74,0,0,1-12.8,2.81,58.37,58.37,0,0,1-7.11.44c-.51,0-1.4,0-2.16-.06s-1.58-.08-2.37-.15-1.59-.13-2.39-.22l-1.2-.13-.3,0,0-.06-.06-.13,2.05-.88,2.05-1,1-.5c.32-.17.61-.34.89-.52l1.23-.82a35.66,35.66,0,0,0,9.59-11c.52-.94,1-1.87,1.46-2.85.86-1.81,1.32-3,1.69-3.87a5.33,5.33,0,0,1,.52-1,2.9,2.9,0,0,1,.49-.66,3.91,3.91,0,0,1,.5-.5c.48-.36.69,1.49-.32,4.48A36.84,36.84,0,0,1,313.27,178a32.24,32.24,0,0,1-5,4.83,16.15,16.15,0,0,1-1.42,1l-.37.25-.15.1H307c1.71,0,3.43-.07,5.14-.22a65.5,65.5,0,0,0,10.18-1.76Z"/><path class="cls-2" d="M313.05,190.78c.24,0,.36.18.43.58a.75.75,0,0,1-.14.5,2.76,2.76,0,0,1-.43.15,17.63,17.63,0,0,1-1.76-.22,6.84,6.84,0,0,1-1.2-.32c-.79-.29-1.59-.57-2.36-.91a2.62,2.62,0,0,1-.49-.27,13.82,13.82,0,0,0-1.69-.92.76.76,0,0,0-.3-.1,8.54,8.54,0,0,1-1.88-1L302,187.07c-.06,0-.14-.09-.16-.18a.75.75,0,0,0-.33-.42,4.18,4.18,0,0,1-.5-.53,1.18,1.18,0,0,1-.15-.36c0-.11.15-.24.19-.23s.13-.12.19-.2,0-.06.06-.07a13.35,13.35,0,0,1,1.4.57s.11.08.27.17l.58.36c.44.24.9.5,1,.53a1.33,1.33,0,0,1,.26.21c0,.05,1.43.67,1.48.69a2.69,2.69,0,0,1,.8.5.59.59,0,0,0,.17.1c.5.2,1,.47,1.46.71.24.13.51.2.77.31a1.48,1.48,0,0,1,.13.08.59.59,0,0,0,.17.1,15.66,15.66,0,0,0,1.86.63c.15,0,.8.4,1,.42S313,190.8,313.05,190.78Z"/><path class="cls-2" d="M379.79,263.54c-.17-1.91-.4-3.82-.67-5.72-.11-.69-.28-1.37-.38-2.06-.38-2.44-.8-4.88-1.35-7.29a30.89,30.89,0,0,0-.91-3.16,26.89,26.89,0,0,1-1.26-4c-.15-.87,2.16-.51,2.7,1.06a44.8,44.8,0,0,1,2,8.52c.22,1.74.71,3.5,1,5.26.33,1.94.57,3.9.8,5.85.13,1.2.26,2.4.36,3.6.18,1.82.29,3.65.45,5.46.14,1.4.35,2.77.52,4.16,0,.31.09.61.11.92.08,1.14-.06,1.51-.62,1.77a2.64,2.64,0,0,1-.38.18c-.44.12-.82-.34-1-1.16-.45-2.45-.67-5-.9-7.61-.18-1.92-.33-3.85-.56-5.77Z"/><path class="cls-2" d="M332,279.53c0,3.3,0,6.61-.1,9.93,0,1.21,0,2.42-.06,3.63a88.88,88.88,0,0,1-1.41,12.79l-.25,1.41c-.08.47-.21.93-.31,1.4-.21.93-.41,1.86-.62,2.79-.35,1.17-.69,2.35-1,3.53a27.33,27.33,0,0,1-1.55,3.34c-.73,1.32-1.82-1.37-.8-3.76a69.09,69.09,0,0,0,3.93-22.92c.09-3.3.11-6.62.11-9.95v-6.15c0-3.11.09-6.23.18-9.33.11-2.4.12-4.77.36-7.16.06-.53,0-1.05.16-1.58.33-1.95.6-2.55,1.23-2.83a2,2,0,0,1,.43-.19c.46-.08.67.77.54,2.17-.39,4.13-.65,8.49-.72,12.93-.05,3.29-.07,6.61,0,9.94Z"/><path class="cls-2" d="M414.15,259.42q-8.32,5.37-16.72,10.62c-2,1.28-4.06,2.6-6.11,3.85-3.64,2.2-7.29,4.37-11,6.43l-2.84,1.5c-.46.26-1,.47-1.46.7l-.74.34-.4.18a2.46,2.46,0,0,1-.58.15,2.65,2.65,0,0,1-.63,0l-.47-.11c-.3-.08-.57-.18-.84-.28-.53-.21-1-.45-1.52-.7-1-.49-1.91-1-2.82-1.59-3.25-2-6.38-4.13-9.42-6.34-1.95-1.41-3.89-2.87-5.76-4.41a40.57,40.57,0,0,1-5.27-5.06c-1-1.22-.38-1.38.84-.8a25.59,25.59,0,0,1,5.28,3.51c3.69,3.11,7.58,6,11.58,8.77a71.47,71.47,0,0,0,6.11,3.83c.51.28,1,.55,1.54.77.26.11.5.19.74.28l.3.08c.09,0,0,0,.08,0s0,0,.15-.05l.41-.18.82-.36c.54-.23,1.08-.5,1.63-.78,5.22-2.62,10.4-6,15.53-9.12Q401,265.4,409.38,260l10.27-6.68c5.17-3.41,10.37-6.83,15.41-10.33l.25-.18a1.94,1.94,0,0,1,1.19-.33,6.29,6.29,0,0,1,1,.15l1.7.37c1.13.23,2.23.4,3.39.53l2.38.22.68.06a2.35,2.35,0,0,1,.58.08l.82.27.41.14a1.33,1.33,0,0,1,.28.16.71.71,0,0,1,.24.32.75.75,0,0,1,0,.47,2.64,2.64,0,0,1-1,1.33,7.84,7.84,0,0,1-1.86,1,18.83,18.83,0,0,1-2.16.68,14.77,14.77,0,0,1-4.28.42,3.49,3.49,0,0,1-1.87-.57,3.17,3.17,0,0,1-.54-.42c-.33-.49,1.25-.62,3.94-1a19.93,19.93,0,0,0,2.2-.45l.48-.14L443,246l.17-.1c.1-.07.16-.13.17-.2s-.06-.09-.13-.08h-.4l-.3,0-.37,0-.63-.09c-.42-.05-.84-.12-1.26-.19-.83-.14-1.68-.32-2.49-.51-.41-.09-.81-.19-1.11-.24l-.17,0h0s0,0,0,0l-5.59,3.84c-5.5,3.73-11.08,7.39-16.65,11Z"/><path class="cls-2" d="M386.66,298.68c5-2.72,9.9-5.5,14.67-8.54,1.74-1.1,3.44-2.29,5.14-3.44a114.49,114.49,0,0,0,16.92-13.65l1.72-1.72.86-.87.24-.24s.08-.07.09-.11l0-.15-.21-.93c-.09-.39-.2-.77-.3-1.15-.22-.77-.46-1.52-.71-2.27a25.2,25.2,0,0,0-6.17-10.08c-.9-.79-.52-1.19.7-.92a8,8,0,0,1,4.55,3.66,30.69,30.69,0,0,1,2.84,6c.37,1,.68,2.09,1,3.15.14.52.26,1.06.38,1.6,0,.16.17.81.25,1.29.28.57-.3.87-.63,1.25L425.5,274c-.77.75-1.53,1.49-2.32,2.22-1.57,1.46-3.21,2.86-4.88,4.22-4,3.22-8.24,6.48-12.61,9.38-4.8,3.18-9.73,6.15-14.75,8.94-1.53.88-3.09,1.73-4.64,2.56s-3.1,1.7-4.68,2.5l-3.56,1.85-.89.46-.45.23-.32.17c-.11,0-.21.13-.33.1l-1.16-.1-1-.1c-2.68-.3-5.34-.74-7.95-1.3a64.54,64.54,0,0,1-11.85-3.6c-.84-.34-1.64-.75-2.48-1.16-3-1.65-3.78-2.54-4-3.4a3.19,3.19,0,0,1-.15-.59c0-.26.35-.27.93-.05s1.36.71,2.44,1.24a63.06,63.06,0,0,0,21,6.48c.7.08,1.39.19,2.09.26l1,.1.52.05.24,0h0l3.33-1.74c2.55-1.3,5.05-2.68,7.56-4.05Z"/><path class="cls-2" d="M436.76,257.6a36.07,36.07,0,0,0,3.55-1.23c.4-.18.81-.43,1.15-.61a3.56,3.56,0,0,0,1.43-1.34,4,4,0,0,0,.49-2,5.69,5.69,0,0,0-.41-2c-.3-.8-.82-1.6-1.09-2.32,0-.06.06,0,.08-.1s.07-.09.12-.17a.68.68,0,0,1,.59-.37,1.55,1.55,0,0,1,1.51.72,9.4,9.4,0,0,1,1,3.06,6.09,6.09,0,0,1-.43,3.37,5.93,5.93,0,0,1-2.81,3,27,27,0,0,1-3.73,1.47l-2.28.74a24,24,0,0,0-3.31,1.32,11.28,11.28,0,0,0-2.14,1.58c-.13.13-.26.28-.4.4-.52.47-.74.56-1.22.31l-.32-.16c-.33-.22-.33-.66,0-1.16a11,11,0,0,1,4.45-3.18c1.24-.55,2.51-.95,3.73-1.37Z"/><path class="cls-2" d="M446.32,233.8a8,8,0,0,0,1,0l.22,0h.16c.17,0,.2-.22.09-.35a.23.23,0,0,0-.07-.08c-.07,0-.15-.12-.25-.18l-.58-.35a16.64,16.64,0,0,0-5.05-1.71,10.84,10.84,0,0,0-2.4-.15,9.09,9.09,0,0,0-1.44.2c-.23.05-.43.12-.59.17s-.2.12-.29,0h-.32a.63.63,0,0,1-.61-.32,1.16,1.16,0,0,1,.16-1.14,1.78,1.78,0,0,1,1-.73,10.47,10.47,0,0,1,3.64-.1,15.52,15.52,0,0,1,3.36.8,18.54,18.54,0,0,1,4,1.64,5.87,5.87,0,0,1,.52.39,5.27,5.27,0,0,1,.6.64,2.18,2.18,0,0,1,.43,1.57,1.48,1.48,0,0,1-1,1.16,3.61,3.61,0,0,1-.81.24,5.09,5.09,0,0,1-.66.09,16.77,16.77,0,0,1-2.84,0,27.65,27.65,0,0,1-4.16-.74,13.35,13.35,0,0,1-3.19-1.08,4.29,4.29,0,0,1-.69-.48,1.7,1.7,0,0,1-.63-1.07.62.62,0,0,1,.34-.64,1.07,1.07,0,0,1,.32-.16.86.86,0,0,1,.53.09,2.46,2.46,0,0,1,.43.26,6.67,6.67,0,0,0,2.05.94,20.79,20.79,0,0,0,2.64.66,21.41,21.41,0,0,0,4.12.42Z"/><path class="cls-2" d="M441.29,240.31a18.46,18.46,0,0,1-3-1.11,8.18,8.18,0,0,1-1.07-.53,5.58,5.58,0,0,1-1.23-1,2.76,2.76,0,0,1-.84-1.71,2.73,2.73,0,0,1,.43-1.51,3.84,3.84,0,0,1,1.56-1.41,3.58,3.58,0,0,1,2.41-.41c.49.13-.14,1.92-.79,2a2.91,2.91,0,0,0-1.22.42,1.56,1.56,0,0,0-.6.76s-.05,0,0,.09.21.47.5.69a7.48,7.48,0,0,0,1,.64,15.09,15.09,0,0,0,2.64,1.09,14.86,14.86,0,0,0,1.75.42,9.32,9.32,0,0,0,2.68.18,3.46,3.46,0,0,0,1.73-.66c.1-.06.14-.16.22-.22.22-.24.28-.22.81-.16l.36,0a.51.51,0,0,1,.43.3.9.9,0,0,1-.08.78,3.52,3.52,0,0,1-2.15,1.54,8,8,0,0,1-2.29.27,15.72,15.72,0,0,1-3.24-.45Z"/><path class="cls-2" d="M441.13,244.7a18.73,18.73,0,0,1-2.72-1.17c-.31-.17-.65-.29-1-.49a8.31,8.31,0,0,1-2.82-2.78,2.91,2.91,0,0,1-.33-2.06,2.37,2.37,0,0,1,.76-1.23,1.8,1.8,0,0,1,1.31-.4c.28,0,.23.52.14,1s-.16,1-.19,1-.06.09-.13.18-.06.1,0,.23a3,3,0,0,0,.64,1.25,5.65,5.65,0,0,0,1.86,1.35,15.94,15.94,0,0,0,2.4,1.13,12.46,12.46,0,0,0,1.58.47,7.15,7.15,0,0,0,2.42.21,2.59,2.59,0,0,0,1.48-.68c.08-.06.1-.16.17-.22.18-.26.3-.28.81-.2l.35.05c.38,0,.63.42.4,1a3.12,3.12,0,0,1-1.89,1.63,6.21,6.21,0,0,1-2.22.31,12.57,12.57,0,0,1-3-.54Z"/><path class="cls-2" d="M433.7,225.4a4.18,4.18,0,0,1,.09-.71A6,6,0,0,1,434,224l.24-.81c.1-.27.29-.6.42-.89a2.06,2.06,0,0,1,.76-1.05,1.27,1.27,0,0,1,1-.14,1.92,1.92,0,0,1,.86.62,6.49,6.49,0,0,1,1,2c.16.46.34.9.53,1.34a4.28,4.28,0,0,1,.52,1.75c0,.4-1.89.41-2.09-.19s-.36-1.11-.52-1.66c-.08-.26-.17-.58-.22-.79l0-.12,0-.06s0-.09,0-.16a.43.43,0,0,0-.17-.36c-.12-.08-.23.06-.28.14a1.47,1.47,0,0,0-.22.41l-.13.42c0,.16-.07.36-.11.53a5.79,5.79,0,0,0-.06,1.38,5.36,5.36,0,0,0,.53,2,4.09,4.09,0,0,0,1,1.23c.08.08.19.12.26.19.29.24.23.33,0,.79a1.38,1.38,0,0,0,0,.35.37.37,0,0,1-.29.44,1.53,1.53,0,0,1-.36,0,1.13,1.13,0,0,1-.34-.11,5.26,5.26,0,0,1-2.34-3,7.91,7.91,0,0,1-.38-2.86Z"/><path class="cls-4" d="M435.71,274v0a.16.16,0,0,1-.08-.13c0-2.33.29-4.88.51-7.36s.46-5,.64-7.52a.19.19,0,0,1,.08-.13l0,0c0-.1-.53-.21-1.21-.26s-1.22,0-1.23.1l0,0a.19.19,0,0,1,.06.15l0,.6c-.17,2.38-.39,4.77-.62,7.16s-.5,4.76-.49,7.33a.25.25,0,0,1-.07.16s0,0,0,0,.55.17,1.22.13S435.71,274.05,435.71,274Z"/><path class="cls-4" d="M439.69,229.57a1.1,1.1,0,0,0,0-.18,5.17,5.17,0,0,1,.09-.95,111.69,111.69,0,0,1,6.68-23.57,76.06,76.06,0,0,1,12.62-20.78,60.4,60.4,0,0,1,19.17-14.74,69.73,69.73,0,0,1,11.41-4.23,77.33,77.33,0,0,1,12-2.17,5.28,5.28,0,0,1,.89,0h.18a1.24,1.24,0,0,0,1.08-1.34,1.17,1.17,0,0,0-1.3-1.09l-.18,0a6.22,6.22,0,0,1-1,.17c-1.35.15-2.71.26-4,.52l-3,.49c-1,.19-2,.44-2.95.66-2,.39-3.89,1-5.82,1.6a67.23,67.23,0,0,0-11.1,4.79,65.21,65.21,0,0,0-10,6.81,67.7,67.7,0,0,0-8.47,8.63A78.79,78.79,0,0,0,444,205a114.17,114.17,0,0,0-6.42,23.1,5.31,5.31,0,0,1-.23.87,1.33,1.33,0,0,0,0,.19,1.22,1.22,0,0,0,2.4.41Z"/><path class="cls-2" d="M380.38,253.7a.9.9,0,0,1-.2-1.07c.05-.14.37-.3.46-.25l.56.35a26.18,26.18,0,0,0,2,2l1.48,1.27a17.45,17.45,0,0,0,3.27,2.19l.75.45a9.58,9.58,0,0,0,2.78,1.11,2,2,0,0,0,.49.09c.13,0,.87.09,1.61.21a6,6,0,0,0,1.06.12c.3,0,.54,0,.63.05a13.63,13.63,0,0,0,2.64.16,1.2,1.2,0,0,1,.38,0,1.38,1.38,0,0,0,.83,0,11.12,11.12,0,0,1,1.16-.13,2.54,2.54,0,0,1,.6.06.17.17,0,0,1,.09.29c-.16.11,0,.18,0,.26a.38.38,0,0,1,0,.1,9.64,9.64,0,0,1-1.14.47,11.76,11.76,0,0,1-1.34.45l-1.83.21a8.72,8.72,0,0,1-1.32.06h-.77a3.18,3.18,0,0,1-.62-.07,23.51,23.51,0,0,1-3-.43,5.57,5.57,0,0,1-1.64-.6,1.33,1.33,0,0,0-.32-.15,14.64,14.64,0,0,1-2.66-1.32l-1.28-.81a1.81,1.81,0,0,1-.21-.18l-.26-.23A27.19,27.19,0,0,1,382,256c-.22-.17-1-1.25-1.18-1.48S380.5,253.81,380.38,253.7Z"/><path class="cls-2" d="M491.09,229.88a190.62,190.62,0,0,0,10.41-17.53c1.15-2.2,2.12-4.47,3.08-6.74a51.76,51.76,0,0,0,3.66-12.4c.61-4.22.57-8.65-1.06-12.59a19.64,19.64,0,0,0-7-8.71c-3.92-2.87-8.61-4.55-13.29-6-1.46-.48-1.16-.89.23-1a15.74,15.74,0,0,1,2.82.14,21,21,0,0,1,3.83,1.07c1.22.47,2.38,1.09,3.57,1.64s2.29,1.32,3.39,2.06l1.58,1.22c.26.21.54.4.78.62l.72.71c.47.48,1,.94,1.41,1.44l1.23,1.6a20.09,20.09,0,0,1,3.3,7.33,24.94,24.94,0,0,1,.51,7.93A48.58,48.58,0,0,1,508.5,200a74.14,74.14,0,0,1-3.36,8.93,152.05,152.05,0,0,1-10.08,18.15c-2.27,3.59-4.62,7.12-6.91,10.68-.85,1.34-1.75,2.71-2.51,4.06a11.68,11.68,0,0,0-1.49,4.3,5,5,0,0,0,1.33,4,10.53,10.53,0,0,0,3.8,2.44c4.51,1.81,9.39,2.17,14.22,3.39a14.93,14.93,0,0,1,3.21,1.15,5.19,5.19,0,0,1,1.32,1,2.89,2.89,0,0,1,.75,1.38,3.05,3.05,0,0,1-.36,2.19,3,3,0,0,1-1.54,1.44,3.08,3.08,0,0,1-.63.21c-.27,0-.18-.34.15-1,.15-.32.37-.7.54-1.15a2,2,0,0,0,.15-1.32c-.14-.55-1-1.09-1.89-1.44a19.28,19.28,0,0,0-3-.89c-2.13-.48-4.36-.85-6.62-1.32a42,42,0,0,1-6.82-1.92,15.16,15.16,0,0,1-3.32-1.8,7.7,7.7,0,0,1-2.59-3.18,6.92,6.92,0,0,1-.51-3.09,10.24,10.24,0,0,1,.6-2.87,22.91,22.91,0,0,1,2.54-4.82c1.85-2.94,3.75-5.82,5.61-8.72Z"/><path class="cls-2" d="M337.09,180.72c-1.5,3.35-9.09,8.61-9.09,8.61-2.15-1.05-8.85-1.75-9.08,3-.4,8.19,11.22,6.35,11.22,6.35a64.59,64.59,0,0,0,11.65,12.21c-7.16,5.17-18.67,8.91-27.65,4.68-11.35-5.34,1.58-29,1.76-29.38,16-.8,50.47-23,50.47-23C374.77,175.18,337.09,180.72,337.09,180.72Z"/><path class="cls-2" d="M328.35,184.64c-1.27.5-2.61.87-3.92,1.28s-2.69.71-4.05,1l-1,.23-1.07.12-1.06.12c-.52.07-.27,0-.39,0s-.06.07-.09.11l-.43.84-.87,1.79a66.45,66.45,0,0,0-2.95,7.36,35.21,35.21,0,0,0-1.69,7.61,13.51,13.51,0,0,0,.47,5.34,7.7,7.7,0,0,0,1.18,2.19,6.22,6.22,0,0,0,1.9,1.54A18.11,18.11,0,0,0,321,216.1a25.59,25.59,0,0,0,7.08-.41,33.42,33.42,0,0,0,6.86-2.13q1.67-.72,3.24-1.59c.27-.14.52-.3.78-.46l.6-.35c.21-.13.43-.27.63-.42l-1.28-1.15c-.74-.66-1.48-1.35-2.2-2-1.45-1.4-2.84-2.87-4.14-4.4-.55-.65-1.09-1.32-1.61-2l-1.22-1.61-.4,0-.85.06c-.59,0-1.17,0-1.76,0a14.77,14.77,0,0,1-3.53-.52,8,8,0,0,1-3.29-1.76,6.09,6.09,0,0,1-1.19-1.57,6.58,6.58,0,0,1-.59-1.84,8.19,8.19,0,0,1-.1-1.78c0-.31.08-.63.14-1a8,8,0,0,1,.34-.93,4.87,4.87,0,0,1,3-2.35,10,10,0,0,1,3.49-.33,13.93,13.93,0,0,1,1.7.25c.28.07.56.12.85.22a2.08,2.08,0,0,1,.3.12c.11-.05,1.06-.77,1.73-1.28s1.42-1.1,2.11-1.67a30.6,30.6,0,0,0,3.82-3.62c.71-.87,1-1.2,1.22-1.08s.26.79-.16,1.84a13.62,13.62,0,0,1-2.49,3.75,25.84,25.84,0,0,1-2.09,2.11c-.39.35-.8.71-1.23,1.06l-.66.52-.34.26-.63.45-.92.65-.76-.32c-.23-.1-.55-.23-.72-.28s-.43-.11-.64-.17a10.65,10.65,0,0,0-1.38-.19,7.19,7.19,0,0,0-2.59.25,1.93,1.93,0,0,0-1.37,1.11,1.42,1.42,0,0,0-.12.44,2.8,2.8,0,0,0-.06.55,5.36,5.36,0,0,0,.11,1.23,3.31,3.31,0,0,0,1.11,1.87,5.89,5.89,0,0,0,2.27,1.12,13.15,13.15,0,0,0,2.86.41q.75,0,1.5,0l.38,0,.45,0c.53,0,1.07-.14,1.6-.21l1.77,2.42c.41.54.83,1.08,1.27,1.61.86,1.07,1.76,2.1,2.71,3.09s1.93,2,2.94,2.92l1.56,1.43L344,211l-1.74,1.16c-.56.37-1.18.81-1.68,1.09-.69.42-1.39.8-2.11,1.16a36,36,0,0,1-14.58,4.07,22.84,22.84,0,0,1-7.73-1,15.37,15.37,0,0,1-1.86-.69,11.42,11.42,0,0,1-1.83-1,8.27,8.27,0,0,1-2.79-3.17,11.57,11.57,0,0,1-1.18-4.31,20.53,20.53,0,0,1,.11-4.3,40.32,40.32,0,0,1,2-8.12,71.85,71.85,0,0,1,3.17-7.64c.3-.63.59-1.21.93-1.87l.38-.69c.14-.22.23-.5.54-.48a13.92,13.92,0,0,1,1.4-.19l1.95-.23,1.95-.44a94.62,94.62,0,0,0,18.55-7c4.56-2.17,9-4.55,13.46-7,2.21-1.23,4.4-2.5,6.56-3.79l3.24-1.95,1.6-1,2.22-1.41.06,0c.36.5.72,1.15,1.05,1.73.15.27.28.71.38.94a2.69,2.69,0,0,1,.2.8,5.32,5.32,0,0,1-.41,3.27,11.41,11.41,0,0,1-4.24,4.46,44.93,44.93,0,0,1-10.75,4.81c-1.64.53-3.25,1-4.93,1.45-6.24,1.55-8.31,1.63-9.76,1.26a5.87,5.87,0,0,1-1-.29c-.68-.41,1.81-1.14,6.3-2.25a89.36,89.36,0,0,0,14.84-4.85,30,30,0,0,0,3.42-1.8,13,13,0,0,0,2.86-2.25,4.38,4.38,0,0,0,1.35-2.63,1.69,1.69,0,0,0,0-.67,2.08,2.08,0,0,0-.18-.69c0,.06,0,0,0,0h0l-.23.14-.57.35-2.3,1.42c-1.55.94-3.1,1.86-4.67,2.78-9.46,5.45-19.17,10.65-29.57,14.49Z"/><path class="cls-5" d="M369.92,203.91c.87-6.43-3.25-20.33-3.28-20.45,3.77,4.82,10.12,8.91,11.23,12.19C379.32,199.9,374.21,203.15,369.92,203.91Z"/><path class="cls-2" d="M357.11,216.63a10.46,10.46,0,0,0,5.84-1.5,11.58,11.58,0,0,0,4.17-4.52,14.3,14.3,0,0,0,1.42-4.42,30.79,30.79,0,0,0,.17-8.48,76.84,76.84,0,0,0-1.45-8.58c-.56-2.53-1.25-5.06-1.92-7.56a50.06,50.06,0,0,1-2-9.86c-.07-1.06.5-1,1.14-.16a10.49,10.49,0,0,1,1.8,4.08c1.45,6.51,3.47,13.07,4.26,20,.14,1,.19,2.09.32,3.14s.16,2.13.13,3.22a23.66,23.66,0,0,1-.76,6.51,15.1,15.1,0,0,1-3.59,6.34,13.28,13.28,0,0,1-2.9,2.27,13.59,13.59,0,0,1-3.44,1.32,15.73,15.73,0,0,1-8.77-.81,35.13,35.13,0,0,1-11-7.06,80.28,80.28,0,0,1-7-7c-.48-.54-.94-1.08-1.41-1.65-1.71-2.12-2.06-2.94-2-3.72a2.64,2.64,0,0,1,.09-.54c.21-.46,1.15.21,2.41,1.7,3.81,4.35,7.87,8.91,12.67,12.47a30.24,30.24,0,0,0,5.65,3.33,15.64,15.64,0,0,0,6.14,1.46Z"/><path class="cls-2" d="M154.33,343.92c2.71-2.12,4.1-15.25,4.26-16.84a.11.11,0,0,0-.14-.12L42.33,349.23a.12.12,0,0,0,0,.24c14.46,2.23,109.84-5.36,111.93-5.52C154.29,343.94,154.31,343.94,154.33,343.92Z"/><path class="cls-2" d="M57.89,351.14c-3.18,0-6.34.09-9.55,0l-2.4-.06-2.45-.22-1.22-.11h-.08s.05,0-.3-.06a1.39,1.39,0,0,1-.7-.57,1.35,1.35,0,0,1-.2-.79,1.38,1.38,0,0,1,.94-1.22l.17-.05h.13l.58-.11,2.33-.43L63.81,344l13.6-2.59,48-8.88c7.09-1.32,14.22-2.71,21.24-4.09l6.37-1.27,3.18-.63,1.1-.22a3.85,3.85,0,0,1,1.21-.14,4.25,4.25,0,0,1,.44.09.4.4,0,0,1,.31.3,1.68,1.68,0,0,1,.12.43l.05.56-.28,2.39-.25,1.83c-.17,1.22-.38,2.43-.61,3.65s-.5,2.42-.84,3.63a19.67,19.67,0,0,1-1.3,3.57c-.68,1.41-1.56,1.82-1.6,1.61s0-.35.15-.68a3.09,3.09,0,0,0,.18-.6,5.49,5.49,0,0,0,.2-.78c.54-2.31,1-6.68,1.66-11.87l.19-1.54-23.58,4.46q-13.27,2.46-26.63,4.81c-11.16,2-22.73,4.28-34.12,6.42L53.8,348l-9.4,1.75-1.17.22-.59.11-.15,0-.13-.7h0v0c0,.15.21-1.31.11-.69h.1l2.33.2,1.16.1,1.18,0,2.38.06c7.81.09,15.66-.18,23.48-.49,11.86-.5,23.78-1.16,35.54-1.95,9.15-.62,18.1-1.4,27.13-2.16l5.94-.51c7.43-.59,9.81-.64,11.45-.2a10.08,10.08,0,0,1,1.08.31c.75.38-2.25,1-7.69,1.53-16.13,1.61-33.18,2.88-50.31,3.92-12.73.75-25.52,1.4-38.32,1.7Z"/><path class="cls-2" d="M206.63,338c28.29.14,119.09-19.54,119.09-19.54,2.46-2.05,3.82-13,3.82-13-48.4,6.3-120.9,16.78-120.9,16.78Z"/><path class="cls-2" d="M297.65,308.55l20.63-2.75,11.22-1.5,1.13-.14c.08,0,.22-.06.25,0l0,.29-.08.57-.32,2.29-.24,1.43L330,310a46.16,46.16,0,0,1-1.3,5.18c-.2.63-.44,1.26-.71,1.89-.17.32-.29.63-.49,1l-.31.48a3.33,3.33,0,0,1-.45.53c-.23.19-.35.5-.66.5l-.69.15-.93.2-1.86.39-7.43,1.55q-26.25,5.28-52.63,9.84c-7.8,1.35-15.66,2.65-23.43,3.86-2.49.41-5,.73-7.51,1.11s-5,.69-7.53,1l-3.78.44c-1.26.12-2.52.21-3.79.31l-3.79.28-3.82.06c-3.18,0-2.72-.54-.08-1.16s7.43-1.4,13.18-2.05c10.19-1.13,20.36-2.69,30.53-4.33s20.36-3.39,30.58-5.2c12.23-2.16,24.89-4.79,37.33-7.37l4.84-1a1.82,1.82,0,0,1,.17-.18l.29-.46a8.7,8.7,0,0,0,.51-1.06,21.28,21.28,0,0,0,.81-2.37c.46-1.63.82-3.32,1.12-5l.3-1.75a2.42,2.42,0,0,0,0-.25l-.25,0-.52.07-20.78,2.79-25.57,3.45-38.68,5.3c-9.95,1.4-19.69,2.91-29.52,4.37l-2.18.32-1.08.17-.39.07,0,.36-.12,1c-1,8.11-1.47,10.68-2.26,12.35a8.83,8.83,0,0,1-.53,1.1c-.54.72-.48-2.63.15-8.59.13-1.17.25-2.36.38-3.56.17-1.49.34-3,.52-4.55l12.48-1.89,11.84-1.74,24.09-3.4,41.61-5.69Z"/><path class="cls-5" d="M451.51,286.34c-1.58,0-67.68,19.13-67.68,19.13l-.31-3.52s12.1-6.77,13.77-7.4C400.16,293.45,430.28,287.68,451.51,286.34Z"/><path class="cls-2" d="M132.53,112c1-.08,2-.34,3.07-.49s2-.5,3-.81l1.46-.52a11.31,11.31,0,0,0,1.46-.57l2.87-1.3c.67-.38,1.32-.77,2-1.16l1-.59c.32-.2.62-.44.93-.65l1.65-1.15c.53-.41,1-.87,1.52-1.3l.76-.65c.25-.22.46-.48.69-.72.45-.49.91-1,1.35-1.47a24.74,24.74,0,0,0,3.91-7,26.4,26.4,0,0,0,1.44-7c.26-3.07,0-6.18.25-9.34.13-2,2.51.47,2.53,4.15a41.41,41.41,0,0,1-1,9.92,25.09,25.09,0,0,1-4.25,9.2,32.65,32.65,0,0,1-9,8.32c-1,.55-1.93,1.15-2.93,1.64l-3,1.39c-1,.43-2.1.78-3.16,1.15s-2.15.63-3.25.83a38.2,38.2,0,0,1-8.19.76,36.41,36.41,0,0,1-12.14-2.39,30,30,0,0,1-8.33-4.69,13.43,13.43,0,0,1-1.6-1.42c-.45-.49-.82-.9-1.12-1.26a5.67,5.67,0,0,1-.6-1,1.9,1.9,0,0,1-.19-1.37,2,2,0,0,1,.15-.53c.29-.47,1.2.16,2.37,1.47a29.54,29.54,0,0,0,14.05,7.82,34.68,34.68,0,0,0,12.4.67Z"/><path class="cls-2" d="M104.12,112.82c0-.24.31-.2.78,0a1.76,1.76,0,0,1,.53.45,2.88,2.88,0,0,1,.06.47c0,.08-.48,1-.63,1.37a4.21,4.21,0,0,1-.57.87L103,117.62a1.72,1.72,0,0,1-.34.32,4.69,4.69,0,0,0-1.09,1.18.41.41,0,0,0-.11.25,5.82,5.82,0,0,1-1,1.42c-.4.28-.74.59-1.11.89,0,0-.07.12-.18.11s-.29.13-.39.23a2.72,2.72,0,0,1-.43.4.94.94,0,0,1-.33.08c-.11,0-.35-.14-.36-.18s-.2-.13-.31-.18l-.12,0a5.36,5.36,0,0,1,.31-1.47s.23-.38.47-.77l.53-.88c0-.09.14-.14.22-.21s.73-1.2.77-1.23c.19-.21.3-.48.61-.59a.23.23,0,0,0,.12-.12,8.76,8.76,0,0,1,1-1.07c.17-.18.3-.39.45-.58l.11-.08a.35.35,0,0,0,.13-.11,12.8,12.8,0,0,0,1.07-1.36c.07-.12.64-.48.71-.62S104.12,112.91,104.12,112.82Z"/><path class="cls-2" d="M121.66,121.61c-.09-.22.2-.31.7-.33a1.52,1.52,0,0,1,.67.18,2.64,2.64,0,0,1,.26.39c0,.08,0,1.15,0,1.52a4.5,4.5,0,0,1-.15,1l-.48,2a1.7,1.7,0,0,1-.18.44,4.93,4.93,0,0,0-.51,1.53.42.42,0,0,0,0,.27,5.7,5.7,0,0,1-.4,1.74c-.25.42-.46.85-.69,1.28,0,.06,0,.13-.13.17s-.24.23-.29.37a3.37,3.37,0,0,1-.3.56,1.09,1.09,0,0,1-.34.24c-.12.06-.36-.12-.38-.16s-.2-.11-.32-.16l-.11-.05a4.92,4.92,0,0,1-.21-1.31s.08-.43.15-.87.14-.9.14-1a.79.79,0,0,1,.13-.28s.19-1.37.2-1.43c.09-.26.08-.55.32-.77,0,0,0-.1.06-.16a8.52,8.52,0,0,1,.42-1.36c.08-.23.11-.48.17-.71a.37.37,0,0,1,.07-.12,1,1,0,0,0,.07-.15,14.13,14.13,0,0,0,.4-1.68c0-.14.37-.7.38-.86S121.7,121.7,121.66,121.61Z"/><path class="cls-2" d="M146.48,117.8c-.2-.11,0-.37.33-.71a1.59,1.59,0,0,1,.63-.29,2.65,2.65,0,0,1,.45.14c.07,0,.73.87,1,1.15a3.7,3.7,0,0,1,.55.88l1,1.86a1.63,1.63,0,0,1,.15.44,4.37,4.37,0,0,0,.61,1.48c0,.07.07.16.18.2a6,6,0,0,1,.85,1.55c.09.47.23.92.34,1.38,0,.06.08.11,0,.2s0,.33,0,.46a2.16,2.16,0,0,1,.18.56c0,.09,0,.2-.06.33a.56.56,0,0,1-.32.25c-.13,0-.2.13-.29.21a.35.35,0,0,1-.1.08,5.41,5.41,0,0,1-1.2-.89s-.25-.37-.5-.76-.52-.77-.58-.84a.58.58,0,0,1-.09-.29s-.78-1.17-.8-1.22c-.11-.26-.31-.47-.28-.8a.2.2,0,0,0,0-.15,8.14,8.14,0,0,1-.58-1.32c-.09-.23-.23-.43-.34-.65a.59.59,0,0,1,0-.14.47.47,0,0,0,0-.16,15.05,15.05,0,0,0-.79-1.55c-.08-.11-.17-.77-.26-.9S146.57,117.84,146.48,117.8Z"/><path class="cls-2" d="M162.69,101.54c-.23,0-.27-.24-.2-.74a1.54,1.54,0,0,1,.29-.63,2.58,2.58,0,0,1,.43-.19c.08,0,1.13.2,1.49.26a3.7,3.7,0,0,1,1,.32l1.94.82a2.42,2.42,0,0,1,.4.25,4.74,4.74,0,0,0,1.41.77.41.41,0,0,0,.27,0,5.74,5.74,0,0,1,1.65.69c.37.32.76.6,1.13.9.06,0,.14,0,.15.16s.19.27.32.35a3.07,3.07,0,0,1,.5.39,1,1,0,0,1,.17.38c.05.12-.18.33-.22.34s-.14.18-.21.29l-.07.1a5,5,0,0,1-1.33,0l-.82-.3-1-.31a.59.59,0,0,1-.25-.17s-1.32-.42-1.37-.44c-.24-.14-.53-.18-.71-.45a.26.26,0,0,0-.14-.09,8.39,8.39,0,0,1-1.27-.64,6.46,6.46,0,0,0-.67-.29c-.05,0-.07-.06-.11-.09a.36.36,0,0,0-.14-.1,14.07,14.07,0,0,0-1.59-.68c-.13,0-.62-.49-.77-.52S162.78,101.52,162.69,101.54Z"/><path class="cls-2" d="M177.26,82.91c.2-.12.33.14.43.64a1.47,1.47,0,0,1-.07.69,2.07,2.07,0,0,1-.35.32c-.07,0-1.12.18-1.48.25a4.53,4.53,0,0,1-1,0l-2.09-.13a1.8,1.8,0,0,1-.46-.1,4.52,4.52,0,0,0-1.58-.23.38.38,0,0,0-.27,0,6.53,6.53,0,0,1-1.76-.06c-.46-.17-.91-.28-1.36-.42-.07,0-.14,0-.19-.08s-.28-.17-.42-.2a2.93,2.93,0,0,1-.57-.13c-.09,0-.15-.13-.25-.22a.56.56,0,0,1-.05-.41c.08-.09,0-.23,0-.35a.62.62,0,0,1,0-.13,5.42,5.42,0,0,1,1.38-.57l.91,0c.45,0,.92,0,1-.06a.73.73,0,0,1,.29.07s1.41-.07,1.46-.06c.28,0,.56,0,.82.17a.27.27,0,0,0,.17,0,8.47,8.47,0,0,1,1.42.17c.25,0,.49,0,.74.05a.31.31,0,0,1,.12,0,.55.55,0,0,0,.17,0,14.35,14.35,0,0,0,1.73.11c.13,0,.75.26.9.24S177.18,83,177.26,82.91Z"/><path class="cls-2" d="M313.15,257.47c-8.07,1.58-10.88-.92-10.88-.92,10.74-2.23,22.47-15.89,36.07-24,39.34-23.31,42.13,22.14,42.13,22.14-1.7-9.9-8.23-23.46-16-22.13-14.42,2.46-34.43,34.09-60.18,31C304.33,263.6,311,261.07,313.15,257.47Z"/><path class="cls-2" d="M372.2,234.18a29.46,29.46,0,0,1,6.23,9.58,47.63,47.63,0,0,1,3.22,10.78l-2.37.27a49.05,49.05,0,0,0-2.49-11.92,29.26,29.26,0,0,0-6-10.42,19.25,19.25,0,0,0-4-3.27,18.73,18.73,0,0,0-2.36-1.1c-.41-.14-.81-.32-1.22-.43l-1.28-.3a22.59,22.59,0,0,0-10.51.49,46.73,46.73,0,0,0-10.06,4.07,72.92,72.92,0,0,0-9.29,5.82c-5.3,3.79-10.27,8.12-15.49,12.08a69,69,0,0,1-6,4.15l-1.59.93-1.66.83-.42.2-.17.08-.34.13a5.3,5.3,0,0,1-.67.23c-.16.05-.36.09-.48.14a1.53,1.53,0,0,0,.45.25,4.19,4.19,0,0,0,1,.28l.29,0,.16,0h.3c.43,0,.85,0,1.28,0,.85,0,1.71-.07,2.56-.15,2.47-.33,2.34.23.29,1.11a14.53,14.53,0,0,1-4.53.94,12.27,12.27,0,0,1-4.81-1,9.83,9.83,0,0,1-1.67-1.14l-1.32-1.06.8-.22c1.14-.29,2.28-.7,3.42-1l1.72-.54a4.34,4.34,0,0,0,.77-.29l.34-.16,1.37-.67c.46-.24.9-.51,1.35-.76a61.49,61.49,0,0,0,5.21-3.43c3.4-2.48,6.71-5.17,10.08-7.82s6.82-5.26,10.48-7.61c.92-.6,1.86-1.14,2.79-1.71l2.88-1.56c.95-.54,2-1,3-1.43l1.5-.68,1.55-.58c.62-.23,1.23-.48,1.86-.68l1.92-.56,1-.28,1-.21,2-.39a24.62,24.62,0,0,1,8.21.13,18.48,18.48,0,0,1,7.56,3.45,23.21,23.21,0,0,1,5.46,6.16,37.86,37.86,0,0,1,4.12,9.52,52,52,0,0,1,1.88,10.17l-1.76.2A44.48,44.48,0,0,0,375,241.55a27,27,0,0,0-2.87-4.32,12.64,12.64,0,0,0-3.8-3.25,6,6,0,0,0-4.67-.44,21.18,21.18,0,0,0-4.74,2c-4.59,2.64-8.73,6.15-12.92,9.54s-8.37,6.84-12.79,9.93a70.33,70.33,0,0,1-10.81,6.29,37.25,37.25,0,0,1-12.11,3.32,26.22,26.22,0,0,1-4.14,0c-1.33,0-2.75-.15-4.16-.25l-.73-.06c-.16,0-.11,0-.16,0l-.09,0a6.44,6.44,0,0,0-.68-.19l4.26-1.7,1.55-.68,1.21-.61c.39-.19.68-.39,1-.57l.46-.26.27-.16.88-.55c1.05-.68,1.7-1.09,2.3-1.42.32-.14.64-.45.87-.53s.26,0,.19.28a3.83,3.83,0,0,1-.64,1.26A10.34,10.34,0,0,1,311,261c-.18.16-.38.33-.6.49l-.54.41a5.29,5.29,0,0,1-.43.32,4.57,4.57,0,0,1-.48.3c-.05,0-.17.08-.15.1h.4a4.19,4.19,0,0,0,.65,0,1,1,0,0,0,.25,0l.14,0,.63-.06c.85-.08,1.69-.27,2.53-.4a40.65,40.65,0,0,0,9.81-3.45c6.35-3.11,12.15-7.54,17.83-12.14,4.49-3.62,8.86-7.45,13.76-10.82a28.58,28.58,0,0,1,8.17-4.09l1.18-.26a7,7,0,0,1,1.31-.13,7.52,7.52,0,0,1,2.59.41,11.4,11.4,0,0,1,4.17,2.6Z"/><path class="cls-2" d="M357.26,188.39a17,17,0,0,1-2.4-4.37,7.65,7.65,0,0,1-.47-1.87,5.72,5.72,0,0,1,.71-3.41,7.33,7.33,0,0,1,2.29-2.4,22.23,22.23,0,0,1,2.42-1.43,10,10,0,0,1,3.29-1.19c.72-.08.33,1.89-.81,2.31a13.7,13.7,0,0,0-5.34,3.09,3.74,3.74,0,0,0-.65,3.36,11.54,11.54,0,0,0,1.83,4c.53.77,1.11,1.53,1.72,2.25.47.55.95,1.1,1.44,1.64l.74.81.46.5c.17.19.34.39.49.58a2.71,2.71,0,0,1,.5.92.75.75,0,0,1,0,.49,1.34,1.34,0,0,1-.32.35,4.21,4.21,0,0,1-2.23.67,6.4,6.4,0,0,1-.87,0c-1-.12-1.33-.4-1.35-.92a2.32,2.32,0,0,1,0-.37c.08-.39.49-.54,1.08-.53.22,0,.44,0,.65,0s.5,0,.45-.06.07-.1.06-.14-.07-.05-.08-.05h0l-.48-.5c-1.07-1.14-2.16-2.35-3.16-3.65Z"/><path class="cls-2" d="M356.46,204.54c-.15,0-.13-.2,0-.54a1.62,1.62,0,0,1,.32-.41l.28-.12c.05,0,.6.15.8.17a2.09,2.09,0,0,1,.5.16,3.9,3.9,0,0,0,.92.29.37.37,0,0,1,.19.09.77.77,0,0,0,.3.11,1.26,1.26,0,0,0,.27,0,.07.07,0,0,0,.05-.08c0-.09.31-.24.36-.31s.32-.18.48-.33,0-.06.09-.06.16-.09.19-.16a1.28,1.28,0,0,1,.16-.27.68.68,0,0,1,.21-.12.48.48,0,0,1,.31.06c0,.06.17,0,.26.05l.09,0a2.71,2.71,0,0,1,.21.92s-.1.3-.22.62a5.32,5.32,0,0,1-.4.71c0,.08-.13.11-.22.15s-.23.22-.48.41a6.56,6.56,0,0,1-.59.29,1.19,1.19,0,0,1-.7,0,.2.2,0,0,0-.13,0,2.71,2.71,0,0,1-1-.18c-.15-.06-.32-.09-.47-.14a.24.24,0,0,1-.08-.06l-.09-.06c-.36-.12-.67-.34-1-.46-.09,0-.35-.37-.44-.4S356.52,204.53,356.46,204.54Z"/><path class="cls-2" d="M348,180.58c.19-.1.36.1.46.46.06.11.2.44.09.51a4.67,4.67,0,0,0-.44.26c-.08,0-1.12.16-1.45.25a6.89,6.89,0,0,1-1,.13,12.73,12.73,0,0,0-2,.33l-.43.07a3.51,3.51,0,0,0-1.42.43.47.47,0,0,0-.19.16c-.09.11-1.17.8-1.3.9a4.71,4.71,0,0,0-1.05.73s-.07.1-.16.11a.4.4,0,0,0-.34.24,3.16,3.16,0,0,1-.37.45,1.06,1.06,0,0,1-.3.16c-.1,0-.28-.09-.28-.13s-.15-.09-.23-.13a.25.25,0,0,1-.09,0A4.56,4.56,0,0,1,338,184l.18-.26c.12-.15.25-.36.42-.56.35-.37.71-.77.8-.84a1,1,0,0,1,.3-.17s.32-.28.65-.5l.7-.45a2.2,2.2,0,0,1,.9-.28.39.39,0,0,0,.18-.06,7.51,7.51,0,0,1,1.54-.37c.26-.05.52-.11.78-.15a.76.76,0,0,1,.15,0h.18c.62-.11,1.24-.08,1.86-.16.14,0,.82.14,1,.12S347.94,180.61,348,180.58Z"/><path class="cls-2" d="M192.2,173.59c-.15.14-.38,0-.58-.34a.66.66,0,0,1,.15-.82,9.72,9.72,0,0,1,1.38-.57,3.66,3.66,0,0,1,1.08-.19,9.25,9.25,0,0,1,2.28.15,2.22,2.22,0,0,1,.49.18c.27.12.53.26.79.39a5.79,5.79,0,0,1,.79.39.67.67,0,0,0,.28.1,4.5,4.5,0,0,1,1.51,1.22,11.39,11.39,0,0,1,.72,1.32c0,.06.09.11.08.19a.56.56,0,0,0,.1.45,3.51,3.51,0,0,1,.21.57.75.75,0,0,1,0,.33c0,.11-.23.16-.27.15s-.16.06-.24.11l-.09,0a6.24,6.24,0,0,1-.94-.8l-.51-.59a6.15,6.15,0,0,0-.63-.57.6.6,0,0,1-.14-.21,7.56,7.56,0,0,0-1-.6c-.18-.13-.4-.18-.56-.38a.17.17,0,0,0-.11-.06c-.18-.08-.37-.13-.56-.2a3.31,3.31,0,0,0-.56-.17,2.48,2.48,0,0,0-.61-.07s-.07,0-.11,0a.7.7,0,0,0-.14,0,5.44,5.44,0,0,0-1.5.1,8.07,8.07,0,0,0-.83,0C192.57,173.71,192.26,173.53,192.2,173.59Z"/><path class="cls-2" d="M174.71,198.51c-.14-.07,0-.23.33-.41a2,2,0,0,1,.5-.14l.29,0a5.27,5.27,0,0,0,.5.41,1,1,0,0,1,.28.25,1,1,0,0,0,.45.3.32.32,0,0,1,.09.08.34.34,0,0,0,.43.08s.06,0,.08-.07a1.56,1.56,0,0,1,.58-.27,5,5,0,0,0,.64-.11s.05,0,.11,0a.19.19,0,0,0,.24,0,.5.5,0,0,1,.51-.07.53.53,0,0,1,.2.23c0,.08.11.14.18.2l.06.07a2.56,2.56,0,0,1-.27.79,11,11,0,0,1-.87.73.34.34,0,0,1-.2,0l-.4.24-.48.18a.79.79,0,0,1-.62,0,.3.3,0,0,0-.13,0,2,2,0,0,1-1-.31,5.26,5.26,0,0,1-.47-.27s0-.06-.07-.08a.61.61,0,0,0-.07-.1,6.69,6.69,0,0,1-.76-.86c-.06-.07-.11-.49-.16-.56S174.76,198.54,174.71,198.51Z"/><path class="cls-2" d="M181.11,183.25c.15-.2.41-.11.72.14a.79.79,0,0,1,.21.47,2.15,2.15,0,0,1-.21.4c-.05.07-1,.77-1.36,1a7,7,0,0,1-1,.64c-.69.4-1.36.83-2,1.27a2.34,2.34,0,0,1-.43.26,3.07,3.07,0,0,0-.65.44.76.76,0,0,0-.17.2s0,0-.05,0a.91.91,0,0,0-.29-.1.42.42,0,0,0-.22,0,.92.92,0,0,0,.29-.37s.07-.22.08-.18h.11l.58.09c.41.07.85.1.94.13a8.52,8.52,0,0,0,1.51.26c.08,0,.15,0,.22,0a.63.63,0,0,0,.49.08c.22,0,.45,0,.67,0a1.18,1.18,0,0,1,.35.11c.11,0,.12.26.08.3s0,.17.05.26a.32.32,0,0,1,0,.09,5.72,5.72,0,0,1-1.49.67l-.35,0a6.88,6.88,0,0,1-.75.07c-.55,0-1.14,0-1.26,0a1.17,1.17,0,0,1-.37-.08s-.47,0-.91-.09l-.34,0a1.83,1.83,0,0,1-.47-.15,1.63,1.63,0,0,1-.66-.57,2,2,0,0,1-.16-.49,2.16,2.16,0,0,1,0-.44,1.58,1.58,0,0,1,.09-.32,1.73,1.73,0,0,1,.63-.78.71.71,0,0,0,.18-.16,7.4,7.4,0,0,1,1.47-1.07c.26-.15.5-.33.74-.49l.15-.06a.64.64,0,0,0,.19-.08c.58-.37,1.2-.65,1.77-1,.13-.09.87-.31,1-.41S181.05,183.32,181.11,183.25Z"/><path class="cls-2" d="M184.85,171.46c.17,0,.1.25-.13.54a2.27,2.27,0,0,1-.43.3,1.77,1.77,0,0,1-.3,0,7,7,0,0,0-.72-.29,2.4,2.4,0,0,1-.46-.21,4,4,0,0,0-.94-.38.56.56,0,0,1-.21-.09,1.24,1.24,0,0,0-.79-.21c-.05,0-.09,0-.14.05s-.24.06-.44.08a1.67,1.67,0,0,1-.48,0,4.85,4.85,0,0,0-.79-.11.12.12,0,0,1-.12,0c-.11-.12-.18-.07-.27-.06a1.35,1.35,0,0,1-.35,0,.81.81,0,0,1-.22-.12c-.07,0-.12-.26-.11-.28s0-.17-.08-.26l0-.09a3,3,0,0,1,.67-.66l.56-.19a6.55,6.55,0,0,1,.67-.2.39.39,0,0,1,.21,0s1-.16,1-.15a.91.91,0,0,1,.58.14.18.18,0,0,0,.12,0,3.08,3.08,0,0,1,1,.29c.16.07.33.1.49.17l.07.07s.06.06.1.07c.38.15.7.43,1.07.62.09,0,.33.45.42.51S184.79,171.45,184.85,171.46Z"/><path class="cls-2" d="M138.15,281.74c8.6,6.71,17.22,13.38,26.16,19.57,4.46,3.1,9,6.06,13.68,8.81a105.57,105.57,0,0,0,14.47,7.23,40.22,40.22,0,0,0,11.22,2.83c3.77.33,7.65-.36,10.43-2.73,2.5-2,4-5.15,4.87-8.38a42.87,42.87,0,0,0,1.3-10.17,156.65,156.65,0,0,0-.8-20.88c-.36-3.47-.82-6.93-1.44-10.36s-1.32-6.84-2.24-10.19c-.43-1.69-1-3.34-1.48-5s-1.12-3.29-1.81-4.88a52.38,52.38,0,0,0-4.72-9.22c-3.27-5.14-7.82-9.59-13.46-11.83a6.74,6.74,0,0,0-1.06-.39l-1.09-.32-1.08-.33-1.11-.19c-.75-.11-1.49-.29-2.24-.34l-2.26-.1a5.13,5.13,0,0,0-1.11,0l-1.07.1a9.52,9.52,0,0,0-2,.65,9.74,9.74,0,0,0-1.84,1.08,13,13,0,0,0-1.55,1.51c-2.46,2.85-3.8,6.63-4.85,10.37a107,107,0,0,0-2.29,11.59q-.85,5.91-1.69,11.8c-.31,2-.63,3.95-1.06,5.91a35.22,35.22,0,0,1-1.68,5.84c-1,2.41-2.07,3.18-2.13,3s.05-.45.28-1a22.16,22.16,0,0,0,.73-2.32,64.29,64.29,0,0,0,1.36-8.43c.41-3.54.81-7.72,1.45-12.27.57-4,1.21-8.07,2.14-12.09a39.25,39.25,0,0,1,4.46-11.78,14.17,14.17,0,0,1,4.75-4.74,12.83,12.83,0,0,1,1.59-.75,13.48,13.48,0,0,1,1.68-.48,12.86,12.86,0,0,1,3.35-.19A26.08,26.08,0,0,1,198.26,226a31.54,31.54,0,0,1,9.41,8.46,52.15,52.15,0,0,1,6.19,10.85,102.14,102.14,0,0,1,6.49,23.83C221.11,274,221.64,279,222,284s.48,10,.33,15.08-.66,10.3-3,15.08a14.62,14.62,0,0,1-5.25,6,15.39,15.39,0,0,1-7.6,2.24,30.09,30.09,0,0,1-8.44-1,57,57,0,0,1-7.93-2.71A118.93,118.93,0,0,1,175.33,311a316.49,316.49,0,0,1-27.17-18.83c-5.4-4.09-10.72-8.28-16.06-12.42-2.68-2.07-5.36-4.13-8.09-6.1-1.36-1-2.74-1.94-4.15-2.79-.36-.21-.71-.42-1.07-.61a.59.59,0,0,0-.33-.11h-.55c-.85,0-1.71,0-2.57,0a27.46,27.46,0,0,1-6-.79,12.45,12.45,0,0,1-5.51-2.84,6.84,6.84,0,0,1-1-1.23,4.94,4.94,0,0,1-.76-1.48,8.45,8.45,0,0,1-.35-3.18,11.39,11.39,0,0,1,.61-3.06c.08-.25.18-.5.28-.74l.18-.38c.09-.17.18-.31.27-.46a2.09,2.09,0,0,1,.74-.71,1.47,1.47,0,0,1,1,0,4.45,4.45,0,0,0,.8.1l.47,0a8.51,8.51,0,0,0,.88,0,4.4,4.4,0,0,0,.88-.16c.11,0,.34-.13.22-.28a.73.73,0,0,0-.34-.26c-.34-.14-.69-.24-1-.4l-.24-.13a1.51,1.51,0,0,1-.3-.3,1.47,1.47,0,0,1-.32-.75,1.59,1.59,0,0,1,.1-.79,2,2,0,0,1,.92-1,3.15,3.15,0,0,1,1.12-.4,6.83,6.83,0,0,1,2.16,0,16.64,16.64,0,0,1,3.94,1.09,33.11,33.11,0,0,1,3.61,1.71l13.49,7.94c13.66,7.94,27.2,15.48,41.09,22.59,3.06,1.56,6.08,3,9.2,4.53,5.78,2.76,9.66,4.39,12.39,5.45a29,29,0,0,0,5.59,1.75,1.53,1.53,0,0,0,.89-.14,1.09,1.09,0,0,0,.48-.63c.13-.32.25-.28.28.35a1.75,1.75,0,0,1-.22.56,1.57,1.57,0,0,1-.6.51,3.64,3.64,0,0,1-1.73.32c-2.56,0-6.12-1.2-10.52-3-6.51-2.69-12.88-5.85-19.26-9.11s-12.75-6.72-19.12-10.26-12.74-7.18-19.11-10.89L120.91,258l-2.38-1.42-1.18-.71-1.16-.63a24.87,24.87,0,0,0-4.81-2,9.93,9.93,0,0,0-2.07-.37,3,3,0,0,0-1.49.2s0,.07-.16-.08-.07-.05-.13-.07h0l.2.06h0l-.09,0a.65.65,0,0,0-.2,0h-.13a0,0,0,0,0,0,0s.06,0,.07,0l0,0v0h0l.37-.25h0l.08,0c.21.1.4.2.63.29.49.17,1,.35,1.39.54l.51.29a1.39,1.39,0,0,1,.34.27,3.53,3.53,0,0,1,.56.83,1.78,1.78,0,0,1,.08.59,2,2,0,0,1-.09.46,1.45,1.45,0,0,1-.16.33,2.31,2.31,0,0,1-1.42.95,11.84,11.84,0,0,1-2.8.36h-.78l-.73,0-.46,0-.32,0h0l0,.05-.12.28a5.5,5.5,0,0,0-.23.61,9.64,9.64,0,0,0-.46,2.66,5.73,5.73,0,0,0,.39,2.43,4.45,4.45,0,0,0,.26.48l.38.49a6.87,6.87,0,0,0,.89.9,11.9,11.9,0,0,0,5.07,2.14,28.86,28.86,0,0,0,5.92.55l1.53,0a2.13,2.13,0,0,1,.63,0,1.58,1.58,0,0,0,.38.05,1.11,1.11,0,0,1,.34.14l.45.24c.13.07.26.13.37.2,1,.55,1.85,1.13,2.74,1.73,1.76,1.19,3.45,2.43,5.13,3.69,3.34,2.51,6.63,5.08,9.93,7.63Z"/><path class="cls-2" d="M182.66,248.91c-.07,2.08-2.73,3.39-3.36,1.31-.42-1.41.39-3.34,1.79-3.26A1.75,1.75,0,0,1,182.66,248.91Z"/><path class="cls-2" d="M180.93,257.19c-.07,2.08-2.74,3.39-3.36,1.31-.43-1.41.38-3.35,1.78-3.26A1.76,1.76,0,0,1,180.93,257.19Z"/><path class="cls-2" d="M179.74,266c-.07,2.08-2.74,3.39-3.36,1.31-.43-1.41.38-3.34,1.78-3.26A1.76,1.76,0,0,1,179.74,266Z"/><path class="cls-2" d="M370,246.58c-.19-.2-.07-.46.23-.73a.86.86,0,0,1,.51-.12,3.54,3.54,0,0,1,.35.26s.18.29.37.54a1.55,1.55,0,0,0,.52.47c.21.1.24.05.23.06s0,0,0,0a3.09,3.09,0,0,0,0-.34c0-.16-.05-.34-.08-.53a3.33,3.33,0,0,1-.05-.56,3.67,3.67,0,0,0-.39-1.64.37.37,0,0,0-.15-.22c-.34-.42-.21-.22-.27-.3s-.08-.08-.16,0a1.24,1.24,0,0,0-.23.53c0,.06,0,.13-.07.19a.52.52,0,0,0-.12.45v.66a1.3,1.3,0,0,1-.1.36c0,.11-.26.12-.29.09s-.18,0-.26.06l-.09,0a2.19,2.19,0,0,1-.39-.7,3.5,3.5,0,0,1-.27-.91,3.87,3.87,0,0,1,.16-1.35,2.1,2.1,0,0,1,.3-.6c.14-.18.31-.34.45-.49a1.93,1.93,0,0,1,.7-.39,1,1,0,0,1,.63,0s.22,0,.48.15a2.35,2.35,0,0,1,.83.64l.18.22.1.16a2.82,2.82,0,0,1,.19.29c.09.17.16.28.16.3a2.51,2.51,0,0,1,.3,1.09.54.54,0,0,0,0,.22,4.92,4.92,0,0,1,.19.91c0,.27.08.57.11.89a4.77,4.77,0,0,1,0,1.16,1.48,1.48,0,0,1-.1.27,2.3,2.3,0,0,1-.15.32,1.7,1.7,0,0,1-1.47.92,2.37,2.37,0,0,1-1.6-.53,2.08,2.08,0,0,1-.44-.58l-.3-.61C370,247.09,370.07,246.65,370,246.58Z"/><path class="cls-2" d="M372.58,256.82c-.19-.2-.07-.46.23-.72a.81.81,0,0,1,.51-.13,3.54,3.54,0,0,1,.35.26s.18.29.37.54a1.5,1.5,0,0,0,.52.48c.21.09.24,0,.23.05s0,0,0,0a3.2,3.2,0,0,0,0-.34c0-.16,0-.34-.08-.53a3.24,3.24,0,0,1-.05-.56,3.67,3.67,0,0,0-.39-1.64.39.39,0,0,0-.15-.21c-.34-.43-.21-.23-.27-.31s-.08-.08-.16,0a1.24,1.24,0,0,0-.23.53c0,.06,0,.13-.07.19a.52.52,0,0,0-.12.45v.66a1.3,1.3,0,0,1-.1.36c0,.12-.26.12-.29.09s-.18,0-.26.06l-.1,0a3.15,3.15,0,0,1-.39-.71,3.78,3.78,0,0,1-.26-.91,3.82,3.82,0,0,1,.16-1.34,2.15,2.15,0,0,1,.3-.61c.14-.18.31-.33.45-.49a2.34,2.34,0,0,1,.7-.39,1,1,0,0,1,.63,0,2.09,2.09,0,0,1,1.31.78l.17.22.11.16a2.12,2.12,0,0,1,.18.29l.17.3a2.7,2.7,0,0,1,.3,1.09.54.54,0,0,0,0,.22,5.28,5.28,0,0,1,.19.91c0,.27.08.57.1.89a3.94,3.94,0,0,1,0,1.16,1,1,0,0,1-.09.27c0,.11-.1.21-.15.32a1.7,1.7,0,0,1-1.48.92,2.36,2.36,0,0,1-1.59-.52,2.16,2.16,0,0,1-.44-.59l-.3-.61C372.57,257.34,372.65,256.9,372.58,256.82Z"/><path class="cls-2" d="M140.84,305.76c-2-2.74-3.88-5.53-5.79-8.3l-2.13-3c-2.43-3.56-4.87-7.11-7.53-10.47a46.42,46.42,0,0,0-3.79-4.23,55.66,55.66,0,0,0-5.45-4.59c-.58-.43-.25-.88.59-1a4.59,4.59,0,0,1,3.35,1.1,55.35,55.35,0,0,1,10,11.58c1.7,2.52,3.61,5,5.37,7.53,1.94,2.78,3.84,5.58,5.8,8.33,1.21,1.68,2.43,3.36,3.72,5a33.71,33.71,0,0,0,6.46,6.6,6.29,6.29,0,0,0,3,1.19,2.92,2.92,0,0,0,2.48-1.16,7.46,7.46,0,0,0,.75-1.16c.85-1.58,1.09-2.17,1.79-2.36a2.18,2.18,0,0,1,.46-.14c.46-.06.61.85.1,2.32a8.28,8.28,0,0,1-1.91,3.19,4.83,4.83,0,0,1-4.11,1.4,8.64,8.64,0,0,1-3.69-1.52,20.64,20.64,0,0,1-2.81-2.32,67.31,67.31,0,0,1-6.69-7.94Z"/><path class="cls-2" d="M333.45,142.07c-.8.22-1.55.53-2.33.78s-1.55.54-2.31.84c-.56.22-1.09.49-1.64.74a45.9,45.9,0,0,0-5.76,2.74c-.83.48-1.6,1-2.37,1.59-1,.74-1.94,1.47-2.91,2.24-.3.25-.23.25-.05,0s.41-.88.81-1.49a16.32,16.32,0,0,1,5.64-5.29c.69-.36,1.35-.79,2-1.2s1.38-.81,2.09-1.16,1.61-.69,2.41-1l2.48-.83c1-.31,2.07-.54,3.1-.82.78-.19,1.58-.31,2.37-.46l1.18-.23,1.19-.17a26.28,26.28,0,0,1,3.63-.45h.81c1,0,1.33.09,1.54.08h.14a9.87,9.87,0,0,0-1,.33c-2.09.68-4.22,1.56-6.34,2.26-.78.3-1.57.56-2.36.8l-2.33.82Z"/></g></svg>