<svg id="Layer_1" data-name="Layer 1" xmlns="http://www.w3.org/2000/svg" width="520" height="520" viewBox="0 0 520 520"><defs><style>.cls-1{fill:#221f1f;}.cls-2{fill:#232020;}.cls-3,.cls-4{fill:none;stroke:#221f1f;stroke-linecap:round;stroke-linejoin:round;}.cls-3{stroke-width:2px;}.cls-4{stroke-width:2.28px;}</style></defs><title>Notioly v2</title><g id="_32.Resume" data-name="32.Resume"><path class="cls-1" d="M280.34,479.18c-15.86,3.35-27.14-8.72-27.14-8.72v7.82h-4.42s-.22-27.25,0-28.14a24.3,24.3,0,0,0,9.27.72C257.38,477.31,280.34,479.18,280.34,479.18Z"/><path class="cls-1" d="M251.39,452.07l-.72-.13-.49-.1-.15-.06a.56.56,0,0,0,0,.21l0,1.92-.06,3.86-.07,7.72,0,6.64,0,4.87c0,.12-.06.32.13.27h.63l1.22,0,.46,0,0-.35v-.7l0-2,0-2.86v-2.35c0-.26,0-.56.06-.62l1.51,1.55c.51.5,1,.92,1.47,1.38.23.22.5.44.71.61l.47.37c.3.26.63.48.94.72a30.67,30.67,0,0,0,9,4.56,30.22,30.22,0,0,0,12.72.93c1.33-.13,1.3.43.23,1.14a8.8,8.8,0,0,1-2.36,1.06c-.51.12-1.07.23-1.68.32a9.13,9.13,0,0,1-.93.1l-1,0a29.84,29.84,0,0,1-11.46-2.86,37.49,37.49,0,0,1-5.09-3c-.41-.28-.79-.59-1.19-.88-.2-.14-.39-.3-.58-.46l-.29-.23-.14-.12,0,0-.3-.35s0,.14-.08.24l0,.22,0,1c0,.58,0,1.17-.05,1.76l0,2.83-4.48,0H248c-.09,0-.29.07-.24-.1v-.69l0-2.31,0-6.58,0-9.18,0-4.6,0-2.3c0-.82,0-1.35.08-2.68a8.85,8.85,0,0,1,.19-1.71c.58.17,1.18.35,1.75.49l.82.19.55.1c.73.13,1.47.23,2.21.29a25,25,0,0,0,5.28-.13c0,.42,0,.86,0,1.29,0,1.21,0,1.73,0,2.46s.05,1.41.14,2.1a30.49,30.49,0,0,0,.66,4.14,24.64,24.64,0,0,0,3.15,7.66,22.27,22.27,0,0,0,9.53,8.07c.84.39,1.68.72,2.56,1,1.63.57,2.73.87,3.49,1.14a3.82,3.82,0,0,1,1.52.85,4.76,4.76,0,0,1,.45.45c.33.46-1.26.76-3.92.16a25.45,25.45,0,0,1-11.07-5.58,24.26,24.26,0,0,1-7.05-10.76,34.4,34.4,0,0,1-1.59-9.18c0-.26,0-.52,0-.78v-.72h-.14c-.57,0-1.14,0-1.71,0a25.87,25.87,0,0,1-3.39-.3Z"/><path class="cls-1" d="M173.37,149.41a4.37,4.37,0,0,0,4.11,3.55,1.54,1.54,0,0,0,1.42-.64c.22-.47-.19-.8-.64-.83a3.05,3.05,0,0,1-2.72-2.67c-.16-.91-2.34-.37-2.17.59Z"/><path class="cls-1" d="M178.66,148.82c.44,2.07,3.28,3.08,5.15,3.18a2.43,2.43,0,0,0,1.53-.41c.29-.25.34-.49-.13-.52-1.62-.08-4-1.07-4.38-2.83-.11-.5-2.29,0-2.17.58Z"/><path class="cls-1" d="M333.31,78.67c0-2.06-2.61-3.56-4.37-4a3.49,3.49,0,0,0-2,.39c-.24.11-1,.52-.37.67,1.62.39,3.83,1.85,3.86,3.7,0,.38,2.91,0,2.9-.78Z"/><path class="cls-1" d="M328.93,80a2,2,0,0,0-.71-1.74,5.5,5.5,0,0,0-2.12-.72,3.43,3.43,0,0,0-2,.37c-.23.11-1,.6-.35.74a4.63,4.63,0,0,1,1.77.59,1.75,1.75,0,0,1,.55,1.54c0,.43,2.88,0,2.89-.78Z"/><path class="cls-1" d="M284.11,116.43c-3.19,10.95-15.61,19.9-29.68,6.81,9.8-15.56-2.16-28.32-2.71-41.8-.08-2-3.3-23.65-15.93-11.5-6.6,6.36-20.71-11.69-23.91,17.34-.09.82-6.72-6.64-10,1.71-1.62,4.13.09,11.73,10.85,10.33,0,0,4.5,15.76,16.52,24.89-17.28,35.1-55.66,5-44.87-10.26,8.93-12.63,5.1-21.44,4.13-25.43-13.26-54.79,39.06-40.89,39.06-40.89,9.31-8.15,21.9-10,33.3-3.27,15.39,9.13,9.69,35.25,9.13,37C266.38,92.53,289.94,96.43,284.11,116.43Z"/><path class="cls-1" d="M190.22,89.69a27.35,27.35,0,0,1,1.19,9.74,26.56,26.56,0,0,1-2.61,9.49l-.52,1.1-.6,1.07c-.39.71-.8,1.41-1.26,2.08l-.68,1-.33.5-.26.45c-.17.3-.36.59-.52.89l-.38,1a9.32,9.32,0,0,0-.42,4.11,14.21,14.21,0,0,0,.39,2.11,16.68,16.68,0,0,0,.76,2,25.13,25.13,0,0,0,12.76,12.07,23.43,23.43,0,0,0,8.68,2.06,19.47,19.47,0,0,0,8.68-1.64,25.14,25.14,0,0,0,9.87-8.46c.6-.94,1.24-1.85,1.8-2.81l.8-1.47.2-.37c0-.05.12-.13,0-.16l-.77-.63-.68-.57-.64-.61-1.27-1.22c-.41-.42-.8-.86-1.2-1.3a51.06,51.06,0,0,1-6.81-9.66c-1-1.72-1.81-3.49-2.61-5.29-.38-.91-.76-1.82-1.1-2.74l-.51-1.39-.14-.43-.06-.2-1.24.08a17.19,17.19,0,0,1-2.15-.1,10.79,10.79,0,0,1-4.22-1.3,7.73,7.73,0,0,1-3.13-3.3,8.8,8.8,0,0,1-.85-4.41,9.85,9.85,0,0,1,1.28-4.24,7.91,7.91,0,0,1,1.42-1.83,4.87,4.87,0,0,1,2.19-1.15,6.62,6.62,0,0,1,4.51.91,9.4,9.4,0,0,1,1,.62l.16.11s.15.09.14,0l0-.37.1-.74.2-1.2c.14-.87.31-1.73.51-2.59a27.41,27.41,0,0,1,1.59-5.08,12.55,12.55,0,0,1,3.1-4.56,8.07,8.07,0,0,1,5.28-2c3.73-.08,7.06,1.45,10.22,1.32a5.08,5.08,0,0,0,2.14-.58,5.33,5.33,0,0,0,.88-.64l1-.89A13.17,13.17,0,0,1,241,65.74a6.54,6.54,0,0,1,3-.11A6.05,6.05,0,0,1,246.68,67,12.89,12.89,0,0,1,250,71.63a30.89,30.89,0,0,1,1.75,5.23,32.14,32.14,0,0,1,.86,5.43c.57,7,3.86,13.52,5.52,20.54.31,1.12.47,2.28.68,3.43.11.58.12,1.17.19,1.75a14.85,14.85,0,0,1,.11,1.76,22,22,0,0,1-.17,3.54c-.08.58-.13,1.18-.24,1.76l-.44,1.72a23.36,23.36,0,0,1-1.18,3.35,10.64,10.64,0,0,1-.78,1.59l-.63,1.14-.08.15s.08.08.12.12l.3.24,1.28,1.07c.86.7,1.83,1.25,2.73,1.88a18.67,18.67,0,0,0,6.09,2.28l.8.15a7,7,0,0,0,.8,0c.54,0,1.07,0,1.61,0l1.59-.2a14.33,14.33,0,0,0,1.56-.41A15.11,15.11,0,0,0,278,125a20.57,20.57,0,0,0,4-5.19c.3-.62.56-1.14.79-1.59s.35-.83.49-1.12c.27-.57.45-.81.54-.75s.09.45,0,1.12a10.85,10.85,0,0,1-.22,1.2c-.14.46-.31,1-.51,1.57a18.92,18.92,0,0,1-2.09,4,10,10,0,0,1-.83,1.07c-.31.35-.59.74-1,1.09a16.77,16.77,0,0,1-2.4,2,16.13,16.13,0,0,1-3,1.69l-1.77.58a15.79,15.79,0,0,1-10-.73,13.06,13.06,0,0,1-1.7-.78,18.45,18.45,0,0,1-1.65-.87l-1.54-1a12.27,12.27,0,0,1-1.48-1.09l-1.56-1.31-1.33-1.12s-.13-.09-.14-.14l.1-.19.21-.38.43-.77,1-1.87c.13-.24.28-.47.39-.72l.3-.77a22.34,22.34,0,0,0,1.38-12.9c-.71-4.42-2.33-8.75-3.77-13.24-.37-1.11-.68-2.27-1-3.41s-.62-2.32-.8-3.53c-.1-.6-.22-1.19-.3-1.8l-.16-1.84-.07-.84-.09-.79c-.08-.55-.18-1.11-.28-1.66A30.42,30.42,0,0,0,248,72.48c-.88-2-2.14-3.83-3.75-4.54s-3.52-.1-5.28,1.11c-.43.3-.86.63-1.28,1l-.62.55-.31.27-.41.34a6.7,6.7,0,0,1-4,1.5c-2.72.11-5-.67-7.24-1s-4.36-.51-6,.45A9.44,9.44,0,0,0,215.33,77a33.46,33.46,0,0,0-1.79,6.55c-.08.47-.16.94-.25,1.41-.09.73-.19,1.46-.29,2.21l-.56,1a.27.27,0,0,1-.23.18l-.25,0a1.56,1.56,0,0,1-.57-.09A5.49,5.49,0,0,1,210,87.5c-.25-.17-.45-.29-.66-.42l-.4-.23a4.89,4.89,0,0,0-3.12-.76,3.66,3.66,0,0,0-2.32,2,7.63,7.63,0,0,0-1.07,3.36,6.15,6.15,0,0,0,2.94,5.92,8.51,8.51,0,0,0,3.45,1.07,14.78,14.78,0,0,0,1.89.08,3.87,3.87,0,0,0,.48,0l.6,0,1.69-.14c.18.57.34,1.15.53,1.71s.23.67.36,1c.23.65.49,1.29.74,1.93.53,1.28,1.08,2.55,1.7,3.78a58.68,58.68,0,0,0,4.16,7.17,46.47,46.47,0,0,0,5.26,6.34l1.49,1.42,1.8,1.5.68.56c.11.1.24.19.33.29l-.21.38-.8,1.47-1,1.89a35.88,35.88,0,0,1-6.08,7.61,23.35,23.35,0,0,1-8.43,5,21.75,21.75,0,0,1-9.77.9,26.85,26.85,0,0,1-9.29-3,29.53,29.53,0,0,1-7.71-6,22.58,22.58,0,0,1-5-8.46,14.05,14.05,0,0,1-.49-5,10.59,10.59,0,0,1,1.64-4.8l.33-.55L184,113l.64-1a19,19,0,0,0,1.2-2l.57-1,.49-1,.49-1,.41-1.08a22.33,22.33,0,0,0,1.34-11.09,41.64,41.64,0,0,0-1.27-5.6c-.44-1.93-.84-3.84-1.22-5.77l-.44-2.92L186,79l-.12-1.47c-.07-1-.18-2-.22-3l0-3A33.1,33.1,0,0,1,187.88,60a21.45,21.45,0,0,1,6.91-9.12,27.16,27.16,0,0,1,10.47-4.56,45.24,45.24,0,0,1,11.3-.83c1.89.07,3.76.26,5.62.51.94.12,1.86.27,2.79.45l1.38.27.69.15.38.09,1-.83a14.33,14.33,0,0,1,1.33-1,31.44,31.44,0,0,1,2.79-1.79,31,31,0,0,1,6.09-2.58,27.52,27.52,0,0,1,13.06-.6,28.64,28.64,0,0,1,6.6,2.15,14,14,0,0,1,1.55.77c.51.28,1,.53,1.52.84A19.17,19.17,0,0,1,264.21,46,23.55,23.55,0,0,1,271,57.87a46.52,46.52,0,0,1,1.2,13.59,61.74,61.74,0,0,1-.7,6.79,32.48,32.48,0,0,1-.7,3.42,6.33,6.33,0,0,0-.22,2.92,7.13,7.13,0,0,0,.91,2.46,14.76,14.76,0,0,0,1.61,2.25c1.23,1.44,2.64,2.78,4.06,4.2a36.45,36.45,0,0,1,6.11,7.35,17,17,0,0,1,2.29,6.24,14.55,14.55,0,0,1,0,4.36c-.1.57-.19,1.08-.3,1.55s-.27.86-.41,1.25a14.24,14.24,0,0,1-.87,2c-.19.31-.26.17-.23-.36s.2-1.47.31-2.77a19.91,19.91,0,0,0-.14-4.91,17.28,17.28,0,0,0-2.41-6.31c-2-3.28-5-6-7.89-8.84a24.17,24.17,0,0,1-4.06-5,9,9,0,0,1-1.17-3.31,8.43,8.43,0,0,1,.28-3.57,43.15,43.15,0,0,0,1-5.88,58.52,58.52,0,0,0,.38-6.07,41,41,0,0,0-1.5-12,20.52,20.52,0,0,0-6.08-9.93l-1.15-.9-1.23-.79c-.88-.47-1.75-1-2.67-1.4a28.76,28.76,0,0,0-5.69-1.95,27.28,27.28,0,0,0-6-.57,26.61,26.61,0,0,0-6,.85,28.13,28.13,0,0,0-10.65,5.59l-1.33,1.08L226.8,49l-.67-.16L225,48.57c-.74-.15-1.49-.27-2.25-.39-1.5-.22-3-.41-4.54-.51a47.46,47.46,0,0,0-9.08.14A30.85,30.85,0,0,0,200.5,50a20.13,20.13,0,0,0-7.1,5,20.61,20.61,0,0,0-4.22,7.61,32.32,32.32,0,0,0-1.37,8.85,69.5,69.5,0,0,0,2.46,18.14Z"/><path class="cls-1" d="M283,171.44c.29-.85.61-1.71,1-2.57a6.53,6.53,0,0,1,.31-.66c0-.09.17-.34.27-.49s.23-.32.34-.49a2.94,2.94,0,0,1,1.66-1.27,2,2,0,0,1,1.14.1,2.24,2.24,0,0,1,.88.71,3.78,3.78,0,0,1,.59,1.13c.07.21.14.43.19.64l.07.32,0,.2a22,22,0,0,1,.3,3.17v1c0,.08-.08.3.07.22l.15,0,.38-.05a11.84,11.84,0,0,1,1.69,0,6.36,6.36,0,0,1,3.54,1.24,6.25,6.25,0,0,1,2.1,3.1,14.49,14.49,0,0,1,.4,5.82A25.63,25.63,0,0,1,297,189l.05-.28h0l0,.24h0v0l0,0,0,.09-.07.18-.13.36-.27.71c-.19.47-.44.89-.66,1.34A10.14,10.14,0,0,1,295,193c-.26.41-.5.84-.79,1.23a52.68,52.68,0,0,1-3.57,4.53c-2.18,2.5-4.47,4.9-6.74,7.25-2.91,3-5.84,6-8.77,8.95-.91.91-1.22.43-.88-.75a12.38,12.38,0,0,1,3.07-4.79c3-3.07,6.07-6,9-9.09,1.47-1.53,2.88-3.09,4.22-4.71a31.5,31.5,0,0,0,3.55-5.07,7.88,7.88,0,0,0,.52-1l.21-.54.11-.28.05-.13,0-.07v-.06h0c-.08.52,0,.15,0,.26h0v-.18l.05-.13a21.39,21.39,0,0,0,1.15-6.17c.08-2.07-.23-4.26-1.41-5.57a4,4,0,0,0-2.88-1.23,6.46,6.46,0,0,0-.88,0,9.16,9.16,0,0,0-1.13.13l-1.61.34-.4.09-.19,0s0-.13,0-.19l0-.83q0-.83,0-1.62l0-1.06c0-.65-.06-1.29-.13-1.91a9.27,9.27,0,0,0-.14-.92l-.06-.31-.05-.2a1.07,1.07,0,0,0-.2-.38.3.3,0,0,0-.38-.1,1.16,1.16,0,0,0-.45.48l-.07.13-.13.25-.26.58c-.17.39-.34.79-.48,1.2-.31.81-.57,1.65-.84,2.5-.52,1.69-1,3.4-1.45,5.12-.69,2.61-1.37,5.23-2.11,7.84-.37,1.31-.76,2.61-1.19,3.91a21.52,21.52,0,0,1-1.62,3.84,6.12,6.12,0,0,1-.49.72,6.19,6.19,0,0,1-.64.63l-1.19,1-2.39,2c-1.59,1.32-3.19,2.61-4.82,3.89-.72.55-1.41,1.12-2.15,1.67-2.73,2-3.71,2.52-4.63,2.48a3,3,0,0,1-.62,0c-.52-.18.41-1.26,2.35-2.81l8.78-7L274.6,195l1.1-.92.26-.23.11-.12c.08-.1.18-.25.28-.4a25.13,25.13,0,0,0,2-5.08c1.65-5.46,2.86-11.15,4.68-16.81Z"/><path class="cls-1" d="M211.76,84.35c-.1-.13.09-.23.46-.33a1.27,1.27,0,0,1,.52,0,1.12,1.12,0,0,1,.25.23,6.66,6.66,0,0,1,.22,1.12,2.45,2.45,0,0,1,0,.81,8,8,0,0,1-.45,1.65,1.94,1.94,0,0,1-.21.34c-.3.36-.56.72-.85,1.09a.46.46,0,0,0-.13.2c0,.08-.25.34-.54.56a2.6,2.6,0,0,1-.7.39,6.33,6.33,0,0,1-1.18.17c-.06,0-.11,0-.17,0a.37.37,0,0,0-.35-.07,1.76,1.76,0,0,1-.46,0,.79.79,0,0,1-.24-.15c-.07-.06-.05-.28,0-.31s0-.17,0-.26,0-.07,0-.1a8.44,8.44,0,0,1,.74-.56,2.84,2.84,0,0,0,.49-.21,2.6,2.6,0,0,0,.47-.31.28.28,0,0,1,.16,0c.06,0,.49-.55.5-.57s.14-.25.34-.29c0,0,0,0,.06-.07.12-.23.27-.46.4-.71a2.59,2.59,0,0,0,.14-.42s0,0,0-.07,0-.06,0-.09a3.6,3.6,0,0,0,.17-1.09c0-.08.2-.48.17-.59S211.8,84.4,211.76,84.35Z"/><path class="cls-1" d="M229.56,128.87a3.72,3.72,0,0,1,2.65,1.94,25.85,25.85,0,0,0,6,7.09,20.53,20.53,0,0,0,6.8,4,12.06,12.06,0,0,0,6.54.31c.53-.13,1-.36,1.55-.53a2.74,2.74,0,0,0,.69-.32,3.36,3.36,0,0,0,.6-.41,5.9,5.9,0,0,0,1.76-2.41,8.76,8.76,0,0,0,.6-3.71,9.36,9.36,0,0,0-.92-3.51,4.43,4.43,0,0,1-.26-.54.75.75,0,0,1,1-.83c.14,0,.34.05.4.14.5.93,1.59,1.52,1.81,2.76a12.72,12.72,0,0,1-.39,6.82,7.41,7.41,0,0,1-1.58,2.45,8.42,8.42,0,0,1-.72.62l-.8.53-.86.4c-.28.11-.56.18-.84.27a10.82,10.82,0,0,1-2.11.57,13.05,13.05,0,0,1-3.76.18,19.17,19.17,0,0,1-9.09-3.53,27.24,27.24,0,0,1-6.51-6.51,22.47,22.47,0,0,1-2.19-3.85A11.14,11.14,0,0,1,229.56,128.87Z"/><path class="cls-1" d="M267.94,145.23c-1.43,0-1.76-.28-1.89-.6-.45-1.1-.88-2.12-1.29-3.14s-.64-1.83-1.05-2.72a27.72,27.72,0,0,0-2.5-4.32,14.5,14.5,0,0,0-.87-1.19c-.29-.37-.65-.68-1-1-.06-.05-.15-.08-.16-.18,0-.25.43-.71.88-.9.1,0,.26-.13.28-.1.27.28,1.08,0,1.33.33.45.63,1.08,1.11,1.59,1.7a4.28,4.28,0,0,1,.51.77c.19.35.29.75.47,1.1a50.76,50.76,0,0,1,2.38,4.91,29.89,29.89,0,0,1,1.5,4.59A2.72,2.72,0,0,1,267.94,145.23Z"/><path class="cls-1" d="M229.53,128.58c1.34.46,1.57.86,1.57,1.22a30,30,0,0,1-.26,3.58c-.13,1-.39,2-.5,3a17.8,17.8,0,0,0,.12,4.95,11.69,11.69,0,0,0,.29,1.43,11.14,11.14,0,0,0,.5,1.32c0,.07.1.13.07.22-.09.24-.66.49-1.15.5-.11,0-.29,0-.3,0-.14-.36-1-.42-1.11-.85-.16-.76-.55-1.49-.76-2.27a4.44,4.44,0,0,1-.13-1c0-.41.06-.83.09-1.24a36.19,36.19,0,0,1,.43-5.55c.34-2.33.67-4.54.69-4.67A2.79,2.79,0,0,1,229.53,128.58Z"/><path class="cls-1" d="M232.35,126c4.53,2.29,13.6,5.08,19.77-.64C256.18,131.16,242.6,140.82,232.35,126Z"/><path class="cls-1" d="M248.28,131.9A6.82,6.82,0,0,0,250.9,130a4.75,4.75,0,0,0,.77-1.34,3.47,3.47,0,0,0,.16-.71,2.19,2.19,0,0,0,0-.36c0-.15,0-.15,0-.2s-.14-.53-.33-.27l-.12.07-.49.29a7.57,7.57,0,0,1-1.15.63c-.41.18-.8.38-1.21.52l-1.25.38a16.68,16.68,0,0,1-5.11.41,27.19,27.19,0,0,1-4.43-.65,16.87,16.87,0,0,1-5.33-2c-.51-.31-.21-.7.43-.91a4.08,4.08,0,0,1,2.55.08,22.56,22.56,0,0,0,10.49,1.53,8.56,8.56,0,0,0,1.56-.35,9.25,9.25,0,0,0,1.5-.61,15.09,15.09,0,0,0,1.39-.84l1.15-.81.55-.39.27-.19s.1-.11.13,0l.08.15c.26.43.5.86.71,1.3a3,3,0,0,1,.24.7,2.78,2.78,0,0,1,.16.76,4.63,4.63,0,0,1-.34,2.28,7.24,7.24,0,0,1-2.68,3.26,10.18,10.18,0,0,1-4.72,1.7,12.46,12.46,0,0,1-7.22-1.61,20.31,20.31,0,0,1-4.56-3.33,12.32,12.32,0,0,1-.88-.89c-1-1.16-1.16-1.68-1-2.22a1.94,1.94,0,0,1,.15-.36c.23-.33.85,0,1.57.75,2.19,2.25,4.69,4.39,7.65,5.35a9.23,9.23,0,0,0,6.61-.23Z"/><path class="cls-1" d="M275.16,246.5l-2.92,1-2.94.89c-2,.61-3.94,1.14-5.92,1.67-1.43.41-2.87.8-4.32,1.15-5.12,1.21-10.29,2.19-15.48,3l-3.47.54-1.26.19c-.21,0-.44.07-.65.07l-.22-.61c-.25-.66-.5-1.33-.74-2-1-2.78-2.19-5.54-3-8.4-.48-1.79,2.26-.23,3.42,2.95l1.52,4.24.37,1.07.09.27v.05s0,0,0,0h0l.14,0,.56-.07c3-.4,5.95-.86,8.94-1.32,3.59-.56,7.25-1.53,10.84-2.44,2-.47,3.94-1.06,5.91-1.58s3.91-1.17,5.85-1.79c2.36-.83,4.77-1.59,7.08-2.55l2.66-1c.88-.35,1.74-.77,2.61-1.15l2.59-1.18c.86-.39,1.68-.86,2.52-1.3l1.91-1a18.42,18.42,0,0,0,1.86-1.13l3.6-2.38c.54-.35,1-.77,1.52-1.14,1.9-1.41,2.59-1.73,3.36-1.58a3.24,3.24,0,0,1,.51.11c.46.21-.11,1.07-1.49,2.22a62.82,62.82,0,0,1-14,8.64c-1.89.86-3.76,1.77-5.71,2.5s-3.86,1.54-5.82,2.2Z"/><path class="cls-1" d="M251.77,174.48c-1.38.56-2.8,1.06-4.19,1.59l-2.1.78-2.13.7c-1,.33-2,.75-3.1,1.06A84.71,84.71,0,0,1,229,181.12c-1.7.22-3.4.48-5.12.58a14.77,14.77,0,0,1-6.69-.65c-.34-.15-.48-.4-.36-.58a2,2,0,0,1,.72-.52,5.63,5.63,0,0,1,2.81-.56,34,34,0,0,0,6.28-.14l1.59-.16,1.61-.23,1.61-.22,1.61-.29a30.29,30.29,0,0,0,3.88-.92c1.28-.41,2.6-.75,3.86-1.2l4.22-1.41,4.16-1.57c1.72-.62,3.38-1.4,5.07-2.1,2.56-1.06,5.06-2.28,7.52-3.51,1.93-.94,3.69-2.09,5.52-3.16.4-.24.78-.49,1.19-.72,1.52-.85,2.08-1,2.68-.66a2.27,2.27,0,0,1,.41.22c.36.31-.09,1-1.16,1.68-1.59,1.06-3.27,2.08-5,3.07s-3.55,1.85-5.36,2.75c-2.67,1.37-5.49,2.48-8.24,3.71Z"/><path class="cls-1" d="M299.35,208l1.26,5.09c.15.62.36,1.22.5,1.84.5,2.19.95,4.39,1.42,6.58.2,1,.47,1.94.73,2.89a16.94,16.94,0,0,1,.86,3.71c0,.81-2.2.29-2.55-1.11a76.68,76.68,0,0,1-1.54-7.59c-.23-1.54-.74-3.08-1.13-4.62l-1.28-5.09-.83-3.12c-.43-1.57-.85-3.16-1.36-4.7-.4-1.19-.91-2.33-1.37-3.49-.1-.25-.22-.5-.31-.76-.34-1-.3-1.32.17-1.7a2.39,2.39,0,0,1,.33-.25c.39-.23.86.06,1.21.74a39.65,39.65,0,0,1,2.49,6.49c.52,1.68,1,3.38,1.45,5.08Z"/><path class="cls-1" d="M233.32,189.38a5.77,5.77,0,0,0-.29,3.06,7.28,7.28,0,0,0,1.14,3,5.67,5.67,0,0,0,1.68,1.52c2.32,1.43,5.67,1,8-.68a6.75,6.75,0,0,0,2.34-3,8.12,8.12,0,0,0,.14-4.76c-.09-.5.31-.6.83-.27a2.94,2.94,0,0,1,1.22,2.35,8,8,0,0,1-2.14,5.65,9.43,9.43,0,0,1-5.17,2.83,10.06,10.06,0,0,1-3.59.06,7,7,0,0,1-3.35-1.5,7.35,7.35,0,0,1-2.21-3.3,8.58,8.58,0,0,1-.5-3.87,7.51,7.51,0,0,1,2.09-4.3,10,10,0,0,1,6.36-2.94,7.68,7.68,0,0,1,5.34,1.35,6.89,6.89,0,0,1,.94.86c1,1.23,1,1.83.74,2.26a1.62,1.62,0,0,1-.19.29c-.29.24-.68-.22-1.24-1a5.76,5.76,0,0,0-3.35-2.11,7.88,7.88,0,0,0-4.18.31,7.36,7.36,0,0,0-4.58,4.11Z"/><path class="cls-1" d="M242.13,193.1s.17-4.12-2.79-3.21c-3.27,1-.32,4.27-.32,4.27-2.86.93-3.18-1.92-2.43-3.5a3.75,3.75,0,0,1,5.07-1.82C243.71,190,245.15,192.66,242.13,193.1Z"/><path class="cls-1" d="M237.7,190.16a3.7,3.7,0,0,0-.52.75,3.39,3.39,0,0,0-.28.85,2.21,2.21,0,0,0,.23,1.64.88.88,0,0,0,.67.36.85.85,0,0,0,.16,0s.16,0,.1,0l-.08-.13-.12-.24a4.43,4.43,0,0,1-.44-1.17,2.38,2.38,0,0,1,.11-1.36,2.13,2.13,0,0,1,.95-1,4.37,4.37,0,0,1,1.32-.44,2.34,2.34,0,0,1,1.45.28,2.74,2.74,0,0,1,1.06,1.5,4.22,4.22,0,0,1,.2,1.68c0,.37-.31.29-.58,0a2.8,2.8,0,0,1-.69-1.2,2,2,0,0,0-.54-1,1.07,1.07,0,0,0-.93-.16,2.18,2.18,0,0,0-1.09.46,1,1,0,0,0-.28,1,3.21,3.21,0,0,0,.32.91l.07.12a2.12,2.12,0,0,0,.12.2c.09.14.2.27.29.41s.46.55.69.82c-.08,0-.09.08-.2.1l-.33.09c-.21,0-.43.11-.65.15a2.34,2.34,0,0,1-.66.08,2.15,2.15,0,0,1-.68-.07,2,2,0,0,1-1.14-.83,2.89,2.89,0,0,1-.41-1.24,4.19,4.19,0,0,1,.5-2.36,4,4,0,0,1,2.16-1.93,4.43,4.43,0,0,1,2.19-.21,3.91,3.91,0,0,1,1.07.34,8.34,8.34,0,0,1,.9.61,6,6,0,0,1,1.15,1.21,2.28,2.28,0,0,1,.46,1.79,1.54,1.54,0,0,1-.48.81c-.9.68-1.26.47-1.49.28a.8.8,0,0,1-.15-.17c-.12-.22.23-.41.66-.66,1.27-.53-.51-2.54-1.81-3a3.11,3.11,0,0,0-3.25.83Z"/><path class="cls-2" d="M241.74,192.72h0s0,0,0,0a2,2,0,0,1-1,1.11,1.7,1.7,0,0,1-1.44-.25,0,0,0,0,1,0,0h0a2.08,2.08,0,0,0-.31.39c-.16.21-.26.41-.23.43h0a0,0,0,0,1,0,0l.16.09a2.57,2.57,0,0,0,2.16.21,3,3,0,0,0,1.46-1.55s0,0,0,0h0s-.17-.14-.42-.25A1.5,1.5,0,0,0,241.74,192.72Z"/><path class="cls-1" d="M254.21,202.67c-1.25.49-2.53.9-3.8,1.31-.47.14-.92.34-1.39.47-1.66.46-3.34.81-5,1.16-.74.15-1.47.36-2.2.55a10.45,10.45,0,0,1-2.82.61c-.61,0-.24-1.92.82-2.17,1.88-.46,3.77-.83,5.72-1.11a23.65,23.65,0,0,0,3.43-1c1.25-.37,2.49-.8,3.72-1.25.76-.29,1.51-.58,2.25-.9,1.13-.49,2.26-1,3.34-1.56.84-.44,1.61-1,2.41-1.49.17-.11.34-.24.52-.35.67-.38.95-.39,1.33,0a3,3,0,0,1,.25.25c.25.31.11.73-.34,1.1a24.32,24.32,0,0,1-4.52,2.75c-1.2.59-2.44,1.13-3.69,1.64Z"/><path class="cls-1" d="M248.45,209.73l-1.94.45c-.24,0-.45.16-.69.2-.84.16-1.69.27-2.53.4a7.78,7.78,0,0,0-1.08.28,2.85,2.85,0,0,1-1.4.29c-.32-.06-.33-1.9.19-2a11,11,0,0,1,2.83-.39,7.9,7.9,0,0,0,1.72-.38l1.88-.45,1.15-.32a16.46,16.46,0,0,0,1.71-.6,9.78,9.78,0,0,0,1.18-.75c.09-.06.16-.13.25-.18.34-.18.5-.12.77.31a2.31,2.31,0,0,1,.19.28.75.75,0,0,1,0,.91,6.49,6.49,0,0,1-2.28,1.38c-.62.25-1.26.44-1.9.64Z"/><path class="cls-1" d="M260.18,239.33l-1.94.45c-.24.06-.46.16-.7.21-.83.16-1.68.26-2.52.4a7.78,7.78,0,0,0-1.08.28,2.86,2.86,0,0,1-1.41.29c-.31-.06-.32-1.9.19-2a11.58,11.58,0,0,1,2.84-.38,7.82,7.82,0,0,0,1.71-.38l1.89-.46c.38-.09.77-.2,1.15-.32a15,15,0,0,0,1.71-.59,11.19,11.19,0,0,0,1.18-.75,2.27,2.27,0,0,1,.25-.18c.33-.18.49-.12.77.3l.19.29a.76.76,0,0,1,0,.91,6.49,6.49,0,0,1-2.28,1.38c-.62.25-1.27.43-1.9.64Z"/><path class="cls-1" d="M268.46,230.78c-1.51.66-3,1.29-4.57,1.92-.55.23-1.1.49-1.66.71-2,.73-4,1.38-6.09,2-.91.24-1.81.55-2.71.81a13.82,13.82,0,0,1-3.53.81c-.75,0-.17-1.94,1.12-2.23l7-1.76a31.15,31.15,0,0,0,4.16-1.54c1.52-.6,3-1.24,4.54-1.9l2.77-1.24c1.4-.65,2.81-1.28,4.18-2,1.06-.53,2.06-1.15,3.1-1.71.23-.13.45-.27.68-.38.88-.42,1.22-.43,1.6-.05a2.13,2.13,0,0,1,.26.26c.24.32,0,.77-.59,1.15A55.31,55.31,0,0,1,273,228.7c-1.48.73-3,1.42-4.49,2.12Z"/><path class="cls-1" d="M316.12,99.23a25,25,0,0,0-1.35-3c-.2-.36-.44-.69-.64-1A19.92,19.92,0,0,0,313,93.37c-.1-.14-.21-.26-.31-.38l-.2-.22a.35.35,0,0,0-.45-.11.84.84,0,0,0-.35.37,3.16,3.16,0,0,0-.3.78c-.19.72-.16,1.52-.39,2.29-.07.23-.55.22-1,0a1.37,1.37,0,0,1-.82-1.27,7.64,7.64,0,0,1,.3-1.45,4.87,4.87,0,0,1,.75-1.52,2.62,2.62,0,0,1,2-1.12,2.05,2.05,0,0,1,.55.1,3.53,3.53,0,0,1,.5.28,4.14,4.14,0,0,1,.73.71,31.13,31.13,0,0,1,2,2.75,28.37,28.37,0,0,1,1.6,3.22c.28.68.54,1.38.77,2.08a9.86,9.86,0,0,1,.56,3.44,2.36,2.36,0,0,1-.64,1.55,2.06,2.06,0,0,1-.81.47,3.16,3.16,0,0,1-.83.11,2.4,2.4,0,0,1-.67,0c-.79-.15-.93-.41-.9-.9,0-.12,0-.24,0-.35a.8.8,0,0,1,.91-.54,4.5,4.5,0,0,0,.86,0,.44.44,0,0,0,.2-.07s0-.06,0-.07,0,0,0-.28a4.31,4.31,0,0,0-.06-.83,14.4,14.4,0,0,0-.89-3Z"/><path class="cls-1" d="M319.77,97.78a20.94,20.94,0,0,0-1.44-2.73c-.2-.32-.46-.6-.67-.92-.37-.57-.76-1.12-1.16-1.64a9.41,9.41,0,0,0-.63-.76c-.11-.11-.22-.24-.33-.34l-.27-.25c-.19-.21-.62-.32-.74,0a1.29,1.29,0,0,0,0,.56,7.92,7.92,0,0,1-.08,1.06c0,.21-.52.27-1,.11a1.28,1.28,0,0,1-1-1.12,5.92,5.92,0,0,1,.12-1,3,3,0,0,1,.45-1,1.92,1.92,0,0,1,1.85-.79,2.42,2.42,0,0,1,.53.13l.5.26.47.33a3.22,3.22,0,0,1,.31.26,8.13,8.13,0,0,1,.87,1c.59.85,1.29,1.6,1.87,2.43a23.27,23.27,0,0,1,1.7,2.89c.31.62.59,1.25.85,1.9a8.82,8.82,0,0,1,.7,3.2,2.09,2.09,0,0,1-.62,1.5,2.37,2.37,0,0,1-1.59.48,3.12,3.12,0,0,1-.62,0c-.72-.16-.87-.38-.82-.89,0-.12,0-.24.05-.35a.78.78,0,0,1,.86-.55,4,4,0,0,0,.81,0l.1,0,0,0a.07.07,0,0,0,0-.06s0,0,0-.08a3.86,3.86,0,0,0-.09-.74,13.18,13.18,0,0,0-1-2.73Z"/><path class="cls-1" d="M322.46,95.55a6.46,6.46,0,0,0-.68-1.49c-.11-.17-.26-.3-.37-.45A2.94,2.94,0,0,0,320,92.42a.82.82,0,0,0-.68.13c-.27.17-.42.46-.81.64-.12,0-.51-.23-.8-.62s-.46-.92-.17-1.18a3.07,3.07,0,0,1,2-.87,2.89,2.89,0,0,1,1.93.66,10.21,10.21,0,0,1,1.52,1.38,8.07,8.07,0,0,1,1,1.82,9.88,9.88,0,0,1,.42,1.19,10,10,0,0,1,.33,1.91,4.93,4.93,0,0,1,0,1.66,3.1,3.1,0,0,1-.13.4c-.28.47-.55.49-.93.18a1.86,1.86,0,0,1-.26-.23,1.42,1.42,0,0,1-.38-.77c0-.27,0-.5-.05-.73s-.05-.58-.1-.9a8.41,8.41,0,0,0-.41-1.52Z"/><path class="cls-1" d="M342,184.37c-8.43,8.36-28.45,1-43.8-6.17-1.9-6.71-8.15-4.69-8.15-4.69.53-5.36-2.05-7.15-2.05-7.15-2.19.33-3.87-12.68-3.87-12.68-13.79.84-19.55,8.38-38.7,16.59s-29.83,8.88-29.83,8.88c2.12,3.69,12.14,40.92,12.14,40.92,11.34-.29,26.67-8.31,34.42-14,.63,3.73,5.15,9.15,10.29,12.68-2.6,2.39-42.65,41.16-67.74,26.72-25.7-14.78,7.07-92.16,24.54-105.89,0,0,3.59,23.1,27.32,18.79,0,0,17.73-2.11,6.18-24.38,11.24,1.43,24.19,15.63,62,29.64,0,0-2.85-25.91-5.83-38,2.07.88,6.42,1.92,13.61,0C340,145.76,351.38,175.07,342,184.37Z"/><path class="cls-1" d="M218.52,155.4A171.27,171.27,0,0,0,206.88,179a166,166,0,0,0-8,25,101.3,101.3,0,0,0-2.13,12.91,54.87,54.87,0,0,0,.14,12.94c.62,4.21,2,8.38,4.66,11.53a14.44,14.44,0,0,0,4.89,3.7,23.42,23.42,0,0,0,6,2.05c6.1,1.14,12.48,0,18.43-2.07a86.56,86.56,0,0,0,17.06-8.45,153.25,153.25,0,0,0,18.73-14l2.2-1.94,1.81-1.64.16-.15.08-.07-.09-.06-.18-.13-.24-.19c-.8-.61-1.56-1.28-2.31-2a31.72,31.72,0,0,1-4-4.52,19.87,19.87,0,0,1-1.65-2.61c-.11-.24-.24-.47-.34-.71l-.21-.51a2.42,2.42,0,0,1-.13-.46c-.07,0-.2.12-.3.17l-.47.32c-.66.44-1.32.89-2,1.31-1.34.84-2.71,1.66-4.1,2.43-2.77,1.54-5.61,3-8.52,4.23a70.64,70.64,0,0,1-9,3.24c-.77.21-1.55.39-2.33.59s-1.57.32-2.35.48-1.6.23-2.4.34c-.4,0-.79.06-1.22.09l-1.9.12-3-11-2.86-10.28q-1.44-5.15-3-10.25c-.5-1.7-1-3.4-1.57-5.09-.28-.83-.54-1.68-.84-2.5l-.22-.62c-.09-.22-.23-.63-.36-.93l-.84-1.88c1.13-.08,2.43-.22,3.26-.35s1.42-.23,2.13-.36c1.42-.28,2.84-.58,4.25-.93a142.49,142.49,0,0,0,28.15-10.52c4.5-2.23,8.82-4.75,13.23-7.22a68.69,68.69,0,0,1,6.82-3.39,36.51,36.51,0,0,1,7.33-2.23c.75-.12,1.49-.27,2.24-.35l3-.29.18,1.32.16,1.12.28,1.67c.19,1.11.41,2.21.65,3.31s.52,2.17.86,3.21a11.4,11.4,0,0,0,.59,1.46,3.38,3.38,0,0,0,.35.54.82.82,0,0,0,.12.11.37.37,0,0,0-.09.21s0,0,0,.05l.56-.13a4.46,4.46,0,0,1,.87.87,7.84,7.84,0,0,1,.6.94,8.06,8.06,0,0,1,.74,2,10.61,10.61,0,0,1,.28,2.09v.81s0,.08,0,0a2.72,2.72,0,0,1,.69-.1,7.71,7.71,0,0,1,1.79.09,6.43,6.43,0,0,1,3.3,1.57,7.7,7.7,0,0,1,2,3l.17.48c0,.06.08.06.12.09l.2.09,1.45.66c3.88,1.76,7.8,3.41,11.8,4.85a77.28,77.28,0,0,0,12.19,3.42c4.11.72,8.4,1,12.31-.14a14,14,0,0,0,3.68-1.78c.71-.5,1-.71,1.09-.59s-.23.57-.89,1.23a10.6,10.6,0,0,1-3.37,2.19,19,19,0,0,1-6.13,1.33,36.08,36.08,0,0,1-8.09-.5,86,86,0,0,1-19.36-6c-1.34-.57-2.68-1.16-4-1.76l-2.22-1c-.32-.16-.74-.23-.77-.65l-.31-.9a4.43,4.43,0,0,0-.36-.83,4.22,4.22,0,0,0-2.32-2.18,4.44,4.44,0,0,0-1.65-.3,3.09,3.09,0,0,0-.43,0,2.56,2.56,0,0,0-.45.05l-.56.1c-.74.14-1.6.43-2.37.63l.13-2,.07-1.8a9.78,9.78,0,0,0-.21-1.66,6.33,6.33,0,0,0-.53-1.48,5.3,5.3,0,0,0-.39-.61,1.36,1.36,0,0,0-.22-.25c-.05-.06-.18-.18-.13-.14l1.05.25a2.75,2.75,0,0,1-.76,0,3.22,3.22,0,0,1-.61-.24c-.13-.09-.27-.19-.39-.29a3.69,3.69,0,0,1-.28-.29,4.62,4.62,0,0,1-.67-1,11.65,11.65,0,0,1-.72-1.78c-.38-1.16-.66-2.3-.92-3.44s-.46-2.28-.66-3.42l-.33-2h0l-.85.08c-.73.09-1.45.23-2.17.34s-1.43.32-2.15.48-1.4.42-2.1.63a50.93,50.93,0,0,0-8.14,3.68c-5.31,2.93-10.66,6.1-16.28,8.72A155.75,155.75,0,0,1,234,176.14c-2.94,1-5.92,1.87-8.95,2.62-1.51.38-3,.72-4.58,1-.77.14-1.54.28-2.32.39l-.49.07h-.13l.33.91c.31.86.57,1.7.86,2.56.54,1.71,1.07,3.41,1.57,5.12q1.53,5.13,3,10.28t2.84,10.31l2.53,9.46.39,0c.43,0,.85,0,1.27-.11a56.57,56.57,0,0,0,16.27-4.91,86.85,86.85,0,0,0,7.76-3.93q1.91-1.08,3.75-2.26c.62-.38,1.22-.8,1.83-1.2.87-.58,2-1.46,3-2.06.12.56.24,1.1.39,1.67l.21.84.14.39.12.29a14.11,14.11,0,0,0,.82,1.59,22.7,22.7,0,0,0,2.15,3,31.31,31.31,0,0,0,2.57,2.71c.46.42.92.84,1.41,1.24.24.2.47.4.73.59l.42.33c.21.17.44.33.66.49l1.31.95.16.11.08.06s0,.05,0,.07l-.3.28-.59.55-1.93,1.78c-.95.88-1.92,1.74-2.9,2.6-2,1.71-3.95,3.37-6,5-8.15,6.44-16.86,12.34-26.48,16.45a55.4,55.4,0,0,1-13,3.86,31,31,0,0,1-13.64-.81l-1.63-.59-.82-.31-.77-.39-1.55-.78c-.5-.3-1-.61-1.49-1a17.81,17.81,0,0,1-4.72-5.18,30.14,30.14,0,0,1-3.67-13.15,66.91,66.91,0,0,1,.52-13.5,115.53,115.53,0,0,1,2.58-13.19,181.44,181.44,0,0,1,18.2-44.5,103.09,103.09,0,0,1,5.84-9c1.06-1.44,2.17-2.85,3.37-4.2.6-.68,1.21-1.33,1.88-2,.46-.46,1-.87,1.46-1.31l.75-.63.38-.31.19-.16a.31.31,0,0,1,.13,0c.14.76.28,1.55.43,2.28.09.35.17.71.28,1.06l.21.71a25.49,25.49,0,0,0,1,2.65,25.82,25.82,0,0,0,2.72,4.91,19.15,19.15,0,0,0,8.59,6.88,23.42,23.42,0,0,0,11.9,1.17,25.55,25.55,0,0,0,3-.54,13.5,13.5,0,0,0,2.74-1.09,9.78,9.78,0,0,0,4.14-4,10.88,10.88,0,0,0,1.24-5.67,21.54,21.54,0,0,0-1.09-5.91c-.29-1-.68-1.92-1.05-2.87l-.73-1.65-.93-2-.46-1-.06-.12.14,0,.27.06.54.1,2.16.43c.35.08.7.17,1.06.29l.82.26a13.31,13.31,0,0,1,1.49.55,91.15,91.15,0,0,1,11.08,5.84c3.58,2.1,7.13,4.22,10.74,6.23a233,233,0,0,0,22.11,11l6.11,2.54,5.43,2.08.21.08c.06,0,.18.1.13,0l-.05-.45-.12-1-.4-3.27c-.28-2.17-.57-4.34-.85-6.5-.59-4.33-1.22-8.65-1.93-12.94-.35-2.15-.73-4.28-1.14-6.41-.19-1.07-.42-2.12-.64-3.18l-.2-.91-.29-1.23-.28-1.23-.15-.62c0-.2-.12-.44-.06-.52.73.3,1.56.62,2.32.88.38.11.76.24,1.13.31s.47.1.72.14a18.66,18.66,0,0,0,2.8.22,25.59,25.59,0,0,0,5.63-.64l.35-.07.42-.1,1.11-.28c.94-.58,1,.62,1.29,1.26L334.7,129l2.05,5.49c1.92,5.24,3.77,10.39,5.43,15.79,6.14,20,4.43,27.81,2,31.63a8.66,8.66,0,0,1-2,2.23c-.41.29-.37.09,0-.51a12.46,12.46,0,0,0,1.64-3.41c1.18-3.42,1.16-9.36-.34-16.73a181.49,181.49,0,0,0-7.53-25l-2.31-6.24-1.18-3.14-.59-1.57-.11-.28s0-.09-.06-.07l-.14,0-.12,0-.43.09c-.56.13-1.14.23-1.72.33a27.44,27.44,0,0,1-3.52.36,21.87,21.87,0,0,1-3.61-.16c-1.71-.27-1.2-.22-1.41-.26a1,1,0,0,0,.05.24l.56,2.66c.34,1.77.67,3.55,1,5.34.61,3.56,1.16,7.15,1.68,10.74s1,7.21,1.44,10.83c.28,2.39.57,4.78.85,7.17l.07.67,0,.33,0,.17v.09l-.08,0-1.25-.48-2.52-1-2.87-1.1c-6.86-2.68-13.64-5.64-20.27-8.94s-13.1-7-19.46-10.74c-3.13-1.84-6.25-3.7-9.42-5.31a34.6,34.6,0,0,0-4.82-2l-.34-.1h0l.13.29c.18.44.39.86.55,1.31.34.88.68,1.77.95,2.69a23.86,23.86,0,0,1,1.08,5.7,14.26,14.26,0,0,1-.88,6,12.61,12.61,0,0,1-1.54,2.72,12.06,12.06,0,0,1-2.21,2.19,14.84,14.84,0,0,1-5.45,2.57,38.55,38.55,0,0,1-5.7.75,28.71,28.71,0,0,1-5.77-.33,21.28,21.28,0,0,1-14.26-9.4,28.79,28.79,0,0,1-2.7-5.08c-.36-.89-.69-1.78-1-2.7l-.16-.54v-.06s-.05,0-.07.06l-.67.66-.8.86c-1.05,1.16-2,2.39-3,3.66a94.31,94.31,0,0,0-5.33,8Z"/><path class="cls-3" d="M333.15,127.3c-3.24-7.78-6.51-17.06-7-20.59"/><path class="cls-1" d="M300.52,109.44a31.89,31.89,0,0,1,6-.76l1.48-.07.66,0h.17c.08,0,.25,0,.29,0l-.14-.28-.88-1.51c-.36-.63-.71-1.26-1-1.91a37.25,37.25,0,0,1-1.54-3.53,13.16,13.16,0,0,1-.9-3.91,3.68,3.68,0,0,1,.6-2.29,2.5,2.5,0,0,1,1.07-.8,2.32,2.32,0,0,1,1.34-.13,4.93,4.93,0,0,1,2,1,11.07,11.07,0,0,1,1.46,1.35,25.09,25.09,0,0,1,3.92,5.62,9.74,9.74,0,0,1,.56,1.31,5.24,5.24,0,0,1,.19.78,1.55,1.55,0,0,1-.25,1.19l.13-.24a2.13,2.13,0,0,1-1.57,1.5,2.67,2.67,0,0,1-2-.71,8.87,8.87,0,0,1-1.86-2.52c-.43-.82.06-.93.85-.55a8.52,8.52,0,0,1,1.35.85c.26.15.5.39.75.53a2.4,2.4,0,0,0,.34.22l.14.09h0s0,0,0,0l.93.16c-.1-.1-.13-.08-.38-.16a1,1,0,0,0-.3,0l-.19,0h0a.12.12,0,0,0,0-.07,1.11,1.11,0,0,0,0-.13,4.24,4.24,0,0,0-.22-.7,14.87,14.87,0,0,0-.75-1.57,24.79,24.79,0,0,0-2-3,13.7,13.7,0,0,0-2.4-2.51,2.86,2.86,0,0,0-1.14-.56.38.38,0,0,0-.15,0l-.2.07a.74.74,0,0,0-.29.27,3.29,3.29,0,0,0-.1,2,13.06,13.06,0,0,0,.71,2.4,43.61,43.61,0,0,0,2.27,4.73l.71,1.27.41.71.61,1c.17.33.43.71.41.94a.77.77,0,0,1,0,.34v.11h0l-.12-.06h0v0l-.08.13-.09.13-.17.09a2.28,2.28,0,0,1-.44.14,10.74,10.74,0,0,1-1.16.08l-3.2.15c-1,.06-1.93.14-2.89.25a17.91,17.91,0,0,0-2.7.52c-.21.07-.42.14-.61.22a1.62,1.62,0,0,0-.35.18.49.49,0,0,0-.24.61.87.87,0,0,0,.59.44,13.37,13.37,0,0,0,2.57.44l2.73.28a27.11,27.11,0,0,1,5.47,1.12,12,12,0,0,1,6.87,5.27l.47.86c.14.29.27.59.39.89.73,2.25.79,3,.45,3.61a2.37,2.37,0,0,1-.24.39c-.31.3-.88-.51-1.44-2a10.88,10.88,0,0,0-3.88-5.64,15.29,15.29,0,0,0-6.75-2.41c-1.35-.21-2.74-.32-4.19-.46a21.6,21.6,0,0,1-2.25-.31l-.62-.16a3,3,0,0,1-.87-.37,2.67,2.67,0,0,1-.8-.6,4.76,4.76,0,0,1-.48-.82,2.23,2.23,0,0,1,.93-2.5,4.4,4.4,0,0,1,.66-.39l.5-.22c.3-.11.59-.2.87-.28Z"/><path class="cls-4" d="M217,219.7s4.28,1.51,13.83.13"/><path class="cls-1" d="M283.07,310.28c.23.8.45,1.63.65,2.48l.3,1.3c.08.44.13.89.19,1.34a52.72,52.72,0,0,1,.48,5.56c.06,1.9.1,3.83.06,5.77s-.13,3.89-.23,5.84c-.74,13-1.93,25.94-3.19,38.88s-2.71,25.86-4.22,38.78l-2,16.65-1.05,8.33-.27,2.08c-.08.69-.23,1.45-.36,2.18a17.7,17.7,0,0,1-1.55,4.24,15.29,15.29,0,0,1-2.75,3.65,16.63,16.63,0,0,1-3.7,2.61,18.85,18.85,0,0,1-4.19,1.54,20.3,20.3,0,0,1-2.17.43l-.55.07-.27,0-.17,0a11.16,11.16,0,0,1-1.14.16,23,23,0,0,1-8.75-1.05,12.43,12.43,0,0,1-2.14-.86,7.76,7.76,0,0,1-1.06-.67,10.31,10.31,0,0,1-.88-.82,17.26,17.26,0,0,1-2.67-3.59,35.41,35.41,0,0,1-3-6.84,69.29,69.29,0,0,1-1.85-7.1,135.32,135.32,0,0,1-2.08-14.4c-.93-9.63-1.21-19.28-1.28-28.92-.09-19.28.77-38.52,1.8-57.73l2-34c.63-10.86,1.23-21.72,1.61-32.57.07-1.83.08-3.75.19-5.46.28-4.63.91-5.7,1.31-2.27a18.18,18.18,0,0,1,.21,2.5c-.23,8.44.23,15.19-.29,24.1q-1.46,24.63-2.64,49.32l-1,19.73c-.38,8.4-.75,16.79-.91,25.19,0,2.87-.13,8.4,0,15.89s.37,16.94,1.57,27.54a99.78,99.78,0,0,0,3.13,16.45,35,35,0,0,0,3.4,8,14.91,14.91,0,0,0,2.7,3.24,11.44,11.44,0,0,0,3.92,1.54,22.49,22.49,0,0,0,4.47.62A14.75,14.75,0,0,0,257,450l2.31-.36a15.58,15.58,0,0,0,8.09-3.75,13.36,13.36,0,0,0,4-7.91c.45-3.15.82-6.43,1.22-9.64,3.18-25.74,6-51,7.79-70.09.92-9.56,1.53-17.59,1.94-23.39s.55-9.37.56-10c.06-2,.24-4.08.3-6.4,0-1.17.06-2.4.09-3.75S283.13,311.88,283.07,310.28Z"/><path class="cls-1" d="M298.87,233c2.59,5.75,4.13,12.85,5.34,19.88,4,23.52,7.43,47.14,10.81,70.76,2.9,20.32,5.61,40.67,8.62,61,1.39,9.26,2.81,18.52,4.38,27.74.79,4.61,1.61,9.21,2.54,13.79.46,2.28,1,4.56,1.52,6.81.27,1.12.58,2.23.91,3.32.18.53.35,1.08.55,1.58l.07.19,0,.1.08.16.35.67c.2.43.52.94.8,1.42-.41.22-.85.42-1.28.64l-1.26.57-1.47.61c-1,.38-2,.74-3,1.07a49.58,49.58,0,0,1-6.15,1.6c-1,.2-2.1.37-3.15.49s-2.12.25-3.22.25a38.63,38.63,0,0,1-6.39-.54,21,21,0,0,1-11.46-6,24.37,24.37,0,0,1-3.83-5.28c-1-1.93-1.81-3.82-2.64-5.76A137.94,137.94,0,0,1,283,397.53a249.07,249.07,0,0,1-2.73-30c-.08-1.69-.11-3.46-.09-5.05.11-4.28.72-5.27,1.22-2.13a16.62,16.62,0,0,1,.32,2.29c.12,7.74,1.2,13.86,1.93,22,1.4,14.93,4.32,29.89,10.22,43.62.58,1.36,1.22,2.75,1.86,4a24.06,24.06,0,0,0,2.34,3.59,18.53,18.53,0,0,0,6.56,5.26,20.27,20.27,0,0,0,2.52,1c.44.15.87.25,1.3.37s.89.17,1.33.25a36.47,36.47,0,0,0,5.56.5,22.08,22.08,0,0,0,2.76-.19c1-.08,1.87-.22,2.8-.38a45.77,45.77,0,0,0,5.5-1.31c.33-.1.69-.21,1.61-.52.45-.16,1.05-.37,1.84-.67.4-.15.84-.33,1.34-.54l.42-.18s.11,0,.14-.08l-.06-.09c0-.07-.06-.15-.1-.23s-.16-.42-.24-.64-.19-.5-.27-.76c-.36-1.05-.67-2.21-1-3.5-.66-2.57-1.31-5.62-2-9.06-1.36-6.89-2.79-15.39-4.3-24.91-3-19-6.26-42.13-9.43-64.58s-6.25-44.25-8.75-60.68-4.41-27.51-4.6-28.62C300.36,242.55,299.88,238.86,298.87,233Z"/><path class="cls-1" d="M316.36,468.28l.72,7.78-5.45.41s-2.75-25.56-3.36-32.73a28.76,28.76,0,0,0,9,.56c.75,28.08,27.95,30.15,27.95,30.15C329.77,479.25,316.36,468.28,316.36,468.28Z"/><path class="cls-1" d="M326,467.5a28,28,0,0,1-6.32-8.29,32.16,32.16,0,0,1-3-9.9l-.29-2.49-.08-1.33-.29,0-1.08,0a32.51,32.51,0,0,1-3.42-.18l-.86-.11-.42-.07-.2,0h-.05l-.49-.12a2,2,0,0,0,0,.34l.05.66.21,2.38.42,4.76.87,9.53c.35,3.79.76,7.6,1.18,11.35l.17,1.39c0,.05,0,.17,0,.17l.22,0,.49-.05,3-.26-.22-2.47c-.08-1.12-.15-2.25-.2-3.37-.07-1.51.5-1.36,1.15-.13a13.47,13.47,0,0,1,1,2.57,17.52,17.52,0,0,1,.4,1.75l.09.48,0,.24,0,.37c.07.66.15,1.34.22,2l.06.68-5.14.39-1.48.11-.91.07-.46,0-.23,0h-.11s0-.07,0-.1l-.32-3.19q-.36-3.66-.7-7.34-.68-7.34-1.22-14.73c-.12-1.46-.24-2.93-.36-4.42-.19-1.92-.37-3.85-.56-5.79l1.89.42c.6.12,1.38.26,1.62.29.72.1,1.44.16,2.17.21s1.46.05,2.19,0l.55,0,.76,0,1.89-.14,0,.61.11,2c0,.41,0,.82.07,1.23.11.81.16,1.63.31,2.44a31.05,31.05,0,0,0,1.12,4.76,29.19,29.19,0,0,0,1.88,4.51,27.36,27.36,0,0,0,2.7,4.07,28.42,28.42,0,0,0,9.4,7.47c.69.36,1.41.68,2.13,1l1.1.44.55.2c.2.07.32.13.63.22a26.72,26.72,0,0,0,3.52,1l1.09.2.27.05.38.05.76.09,3.37.39c-.54.31-.5.48-.25.57.41,0-.42.17-.83.28l-1.45.37c-.48.11-1,.25-1.44.35l-1.38.25a18.19,18.19,0,0,1-2.83.41l-2.35.15-.29,0h-.23l-.46,0-.92,0c-1.24,0-2.44-.24-3.66-.37a38.57,38.57,0,0,1-7.05-1.94c-1-.41-2-.79-2.95-1.28a19.37,19.37,0,0,1-3.66-2.23,3.64,3.64,0,0,1-1.23-1.54,2.5,2.5,0,0,1-.21-.64c0-.58,1.4.15,3.87,1.47a39.86,39.86,0,0,0,11.94,4.11,28.15,28.15,0,0,0,3.17.33l1.46.06.38,0h.18l-.08,0-.58-.21c-.36-.14-.72-.26-1.07-.41-.71-.28-1.41-.6-2.11-.92a32.49,32.49,0,0,1-7.68-5.05Z"/><path class="cls-1" d="M302.1,247.37c-10.79,14.32-52,8.78-61.77,7.67,0,0,0,0,0,0,1.45-.13,27.79-2.65,59.46-19.91h0l2.3,12.23Z"/><path class="cls-1" d="M261.41,252.15c-3.46.94-7,1.72-10.49,2.42q-2.64.52-5.31.93c-.89.13-1.78.27-2.67.37l-1.35.16-.68.07-.34,0h-.14a9.33,9.33,0,1,1-.1-1.1h0c.06-.49-.13,1.1.13-1.1h0l.17,0c2.58.32,5.15.58,7.72.87a171.49,171.49,0,0,0,27.26,1.2,67.37,67.37,0,0,0,11.91-1.65c4.92-1.21,9.82-3.14,13.27-6.65,1-1.09,1.39-.67.88.75-.06.18-.14.37-.23.58s-.23.39-.37.61A8.6,8.6,0,0,1,300,251a10.76,10.76,0,0,1-1.52,1.36,11.79,11.79,0,0,1-1.92,1.2c-5,2.52-10.42,3.56-15.76,4.17a106.73,106.73,0,0,1-16.09.34c-6.41-.31-13.06-.74-19.56-1.5l-2.68-.33-1.33-.16-.66-.09-.17,0h-.11a.82.82,0,0,1-.27-.07,1,1,0,0,1-.37-.29.94.94,0,0,1-.21-.61,1,1,0,0,1,.65-.88l.23,0h0l.33,0c1.74-.16,3.51-.42,5.27-.69q5.26-.84,10.48-2.11c2.14-.48,4.26-1.08,6.38-1.64s4.23-1.21,6.31-1.92a172.62,172.62,0,0,0,18.59-7.21c1.87-.88,3.69-1.81,5.51-2.72.91-.46,1.79-1,2.69-1.45l3.17-1.73.87-.18.22,0,.06,0h0c-.07.15.16-.32-.15.32h0l.07.07.28.26c.46.13.49,1.25.67,1.92.23,1.1.46,2.18.69,3.29.81,4.11.92,5.45.52,6.44a3.21,3.21,0,0,1-.27.66c-.36.48-1-1.14-1.73-4.13-.32-1.44-.65-2.89-1-4.35l-.24-1.11-.06-.28a1.64,1.64,0,0,1,0-.18l0-.08-.06-.13s-.09.05-.12.07l-.05,0-.21.12-1.05.58L295.31,239c-1.42.77-2.89,1.45-4.35,2.18l-2.2,1.07-2.25,1c-1.5.65-3,1.36-4.53,2a173.18,173.18,0,0,1-20.55,7Z"/><path class="cls-2" d="M253.36,122.4a.08.08,0,0,0,0,0,.53.53,0,0,1-.12.25A16.14,16.14,0,0,1,250.8,125a13.37,13.37,0,0,1-2.88,1.66,13.65,13.65,0,0,1-6.56.91,27.17,27.17,0,0,1-12.65-5.18.53.53,0,0,1-.16-.2l0,0c-.15-.1-.55.2-.94.67s-.54,1-.38,1.09l.05,0a.65.65,0,0,1,.28.12l1,.69a27.88,27.88,0,0,0,13.28,4.91,15.48,15.48,0,0,0,3.66-.18,13.74,13.74,0,0,0,3.54-1,16.12,16.12,0,0,0,5.78-4.44.5.5,0,0,1,.23-.16l0,0c.14-.15-.14-.58-.62-1S253.47,122.26,253.36,122.4Z"/><path class="cls-1" d="M226.47,92.58c-.23,0-.25-.27-.19-.66,0-.13.22-.43.3-.43a1.71,1.71,0,0,1,.45,0,13.81,13.81,0,0,1,1.51.82,7.88,7.88,0,0,1,.92.64,4.7,4.7,0,0,0,1.64.93,3.19,3.19,0,0,1,.33.11,1.15,1.15,0,0,0,1.07-.15.14.14,0,0,0,.07-.13s.1-.21.19-.47a5,5,0,0,0,.15-.7,4.93,4.93,0,0,0,.16-1.36c0-.07,0-.14,0-.22s.06-.31,0-.47-.06-.42-.07-.64a1.21,1.21,0,0,1,.09-.35c0-.11.26-.12.29-.1s.17,0,.26-.06l.09,0a5.55,5.55,0,0,1,.77,1.33,2.43,2.43,0,0,1,.08.33c0,.19.1.45.14.72a8.26,8.26,0,0,1,.08,1.3,1.53,1.53,0,0,1-.1.41,4.22,4.22,0,0,1-.31,1,3,3,0,0,1-.75,1,2,2,0,0,1-1.26.47.66.66,0,0,0-.24,0,3.42,3.42,0,0,1-2-.28,7.77,7.77,0,0,1-.87-.42c-.05,0-.08-.07-.12-.11a1.07,1.07,0,0,0-.16-.14c-.61-.38-1.06-.86-1.59-1.21-.12-.09-.55-.64-.7-.72S226.56,92.6,226.47,92.58Z"/><path class="cls-1" d="M247.24,85.69c-.14-.17,0-.37.3-.64a.76.76,0,0,1,.5-.13,2.15,2.15,0,0,1,.35.32,6.72,6.72,0,0,1,.49,1.86,3.88,3.88,0,0,1-.09,1.4,6.26,6.26,0,0,1-1.22,2.63,2.26,2.26,0,0,1-.51.46,3.35,3.35,0,0,1-2.58.62,1.55,1.55,0,0,0-.43-.07,3.19,3.19,0,0,1-1.15-.53,4.59,4.59,0,0,1-.91-.8,14.31,14.31,0,0,1-1-1.47c0-.07-.11-.13-.1-.23a.78.78,0,0,0-.2-.49,4,4,0,0,1-.33-.65,1.17,1.17,0,0,1,0-.38c0-.12.21-.19.25-.17s.16-.08.24-.14l.08,0s1.08.85,1.17.94a2.17,2.17,0,0,0,.2.23c.12.14.28.31.45.48a7.94,7.94,0,0,0,.8.69.64.64,0,0,1,.2.23,6.18,6.18,0,0,0,.59.33,3.09,3.09,0,0,0,.37.12l.16,0c.18.07.29,0,.45.09s.06,0,.09,0a2.75,2.75,0,0,0,.39-.25,3.19,3.19,0,0,0,.45-.45,3.29,3.29,0,0,0,.34-.61s0-.07.07-.1a.37.37,0,0,0,.09-.14,4.22,4.22,0,0,0,.32-1.68,5.69,5.69,0,0,0,.07-.94C247.12,86.1,247.29,85.77,247.24,85.69Z"/><path class="cls-1" d="M237,90.91a15.05,15.05,0,0,1-.78-5.4l.09-1q.09-.51.21-1a8,8,0,0,1,4.79-5.11l.7-.3.73-.24a13.12,13.12,0,0,1,1.45-.41A10.38,10.38,0,0,1,248,77c.78.09-.18,1.94-1.48,2a13.69,13.69,0,0,0-6.4,2.06,5.46,5.46,0,0,0-1.94,3.45,11,11,0,0,0,.27,4.71,16.31,16.31,0,0,0,1,2.83A16.49,16.49,0,0,0,242,96a10,10,0,0,0,2.71,2.11,6,6,0,0,0,.64.29c.8.35,1,.45,1.1,1,0,.12.08.25.1.37a.42.42,0,0,1-.3.46,1.57,1.57,0,0,1-1,0,7.92,7.92,0,0,1-3.27-1.75,15.13,15.13,0,0,1-2.47-2.71A19.74,19.74,0,0,1,237,90.93Z"/><path class="cls-1" d="M232.43,82.08c.26,0,.39.24.39.64a.87.87,0,0,1-.23.47,3.63,3.63,0,0,1-.42.1,16,16,0,0,0-1.63-.18c-.38,0-.74-.06-1.11-.09a8.81,8.81,0,0,0-2.24.06,2.79,2.79,0,0,1-.5,0,4,4,0,0,0-1.65.42.64.64,0,0,0-.25.15,4.82,4.82,0,0,1-.78.5c-.38.2-.71.49-.81.52a6.69,6.69,0,0,0-1.32.81c-.06,0-.1.11-.2.11s-.3.16-.41.27a3.79,3.79,0,0,1-.51.47,1.23,1.23,0,0,1-.35.15c-.12,0-.26-.13-.26-.17s-.12-.12-.2-.17a.16.16,0,0,1-.08,0,8.37,8.37,0,0,1,.68-1.51l.77-.82a10.63,10.63,0,0,1,1-.88,1.77,1.77,0,0,1,.33-.19,15.42,15.42,0,0,1,1.61-1,2.62,2.62,0,0,1,1.06-.29.52.52,0,0,0,.21,0,7.15,7.15,0,0,1,1.84-.3l.94-.06.17,0a1.52,1.52,0,0,0,.21,0,20.25,20.25,0,0,1,2.2.23c.17,0,.91.37,1.1.41S232.33,82.08,232.43,82.08Z"/><path class="cls-1" d="M240.63,112.49c-.21,0-.25-.25-.14-.61a1.08,1.08,0,0,1,.3-.42,2.05,2.05,0,0,1,.34-.1,5.45,5.45,0,0,0,1,.13,5.51,5.51,0,0,1,.7.06,5.5,5.5,0,0,0,1.46,0,1.69,1.69,0,0,1,.32,0,1.91,1.91,0,0,0,1.08-.27c.05,0,.11,0,.14-.12s.79-.65.89-.71a4,4,0,0,0,.37-.25l.32-.33s0-.08.09-.1.18-.14.22-.23.09-.26.16-.4a1.37,1.37,0,0,1,.21-.19c.07-.07.28,0,.3,0s.18,0,.27,0h.1a2.64,2.64,0,0,1,.17,1.3,5,5,0,0,1-.35.86,7,7,0,0,1-.61.85,1,1,0,0,1-.25.17,6.88,6.88,0,0,1-1.15.88,1.48,1.48,0,0,1-.79.23.29.29,0,0,0-.16,0,4.7,4.7,0,0,1-1.34.22l-.69,0a.53.53,0,0,1-.12,0l-.16,0a11.41,11.41,0,0,1-1.62-.21,2.3,2.3,0,0,1-.4-.18,2.41,2.41,0,0,0-.4-.23C240.83,112.82,240.7,112.49,240.63,112.49Z"/><path class="cls-1" d="M264.93,172.33c.13.26.46,1,.12,1.22s-.77-.39-.89-.62-.38-1.12.07-1.31c.3-.13.63.59.74.79.2.36,1.18,0,.94-.43-.45-.81-1.11-1.37-2.06-.93a1.55,1.55,0,0,0-.67,2.24,1.74,1.74,0,0,0,2.12.89,1.41,1.41,0,0,0,.65-2.12C265.75,171.65,264.75,172,264.93,172.33Z"/><path class="cls-1" d="M267.84,172.91c-.54.14-.69.1-.74,0a5.49,5.49,0,0,1-.51-.87c-.13-.27-.2-.55-.32-.82l-.48-1.08,1.14-.51c.14-.06.27-.11.4-.18s.25-.14.37-.21,0,0,.07,0,.19.26.23.44,0,.12,0,.12,0,.39-.15.42a2.67,2.67,0,0,0-.54.36.81.81,0,0,1-.21.09l-.08-.05h0a.38.38,0,0,0,.05.14l.36.81c.26.56.49,1.08.5,1.11A.75.75,0,0,1,267.84,172.91Z"/><path class="cls-1" d="M267,171.77c-.2-.52-.22-.63-.2-.66a.65.65,0,0,1,.19-.21,1,1,0,0,1,.23-.05l.36-.16.1-.05a.76.76,0,0,0,.09-.09s0,0,0,0a2.3,2.3,0,0,1,.21.46l0,.1s.09.33.06.33-.08.11-.11.16,0,0-.07,0l-.1,0a7.12,7.12,0,0,0-.7.29Z"/><path class="cls-1" d="M273.92,166.58c.13.55.06.7,0,.76s-.33.21-.5.31,0,0,0,.06h0v0a4.52,4.52,0,0,0,.18.47l.37.85,0,0,.32-.14.43-.25s0,0,.08,0a.7.7,0,0,1,.23.44s0,.12,0,.12-.07.4-.2.45a1.19,1.19,0,0,0-.33.18l-.17.11-.33.18a3.19,3.19,0,0,1-.54.24l0,0-.23-.7-.38-.9-.68-1.52,1.22-.55.34-.14C273.71,166.52,273.8,166.56,273.92,166.58Z"/><path class="cls-1" d="M273.39,168.76c-.2-.52-.22-.63-.21-.66a.81.81,0,0,1,.2-.21c.07,0,.16,0,.23,0l.36-.16s.07,0,.1-.05l.09-.08s0,0,0,0a2.16,2.16,0,0,1,.21.45.51.51,0,0,1,0,.11s.09.32.06.33-.08.1-.12.16a0,0,0,0,1-.06,0l-.11,0c-.08,0-.67.3-.69.29S273.44,168.81,273.39,168.76Z"/><path class="cls-1" d="M268.39,169.26c.53-.17.66-.15.71-.09a3.51,3.51,0,0,1,.39.61c.09.18.13.39.21.58l.43,1c0,.1.08.19.13.29a1.75,1.75,0,0,0,.16.25s0,0,0,0a1.09,1.09,0,0,1-.45.22l-.11,0c0-.06-.36,0-.39-.07s-.18-.24-.27-.37a.48.48,0,0,1-.08-.16,2.11,2.11,0,0,0,0-.25c-.05-.21-.81-1.81-.81-1.86A.62.62,0,0,1,268.39,169.26Z"/><path class="cls-1" d="M269.77,168.36c.54-.15.68-.1.74,0a6.1,6.1,0,0,1,.5.85c.12.25.19.53.3.79l.09.21.26-.12.4-.17.35-.21s0,0,.06,0a.7.7,0,0,1,.23.44s0,.11,0,.12,0,.38-.14.42a3,3,0,0,0-.53.34,1.07,1.07,0,0,1-.26.12l-.56.17-.29.12c-.08-.19-.22-.51-.39-.93-.11-.23-.24-.51-.36-.79l-.48-1.08A.7.7,0,0,1,269.77,168.36Z"/><path class="cls-1" d="M261.57,175c-.1-.56-.06-.71,0-.79a1.21,1.21,0,0,0,.32-.37c0-.11,0,0-.07-.15s-.08-.1-.14-.12a.54.54,0,0,0-.36,0c-.08,0-.08,0-.05.09l.43,1,.26.57.28.53s.05,0,.05.09-.25.22-.44.24-.12,0-.13,0-.41-.11-.47-.27a6.13,6.13,0,0,0-.46-.78,2.07,2.07,0,0,1-.15-.34l-.12-.45,0-.11c0-.06-.06-.14-.09-.22s-.11-.25-.16-.38l-.09-.22,0-.06.06,0,.11-.07a3.49,3.49,0,0,1,.92-.47,1.29,1.29,0,0,1,1,.1,1.18,1.18,0,0,1,.39.38,1.28,1.28,0,0,1,.19.5,1.1,1.1,0,0,1-.34.88,2,2,0,0,1-.6.44A1,1,0,0,1,261.57,175Z"/><path class="cls-1" d="M258.6,176c-.1-.56-.06-.71,0-.79a1.21,1.21,0,0,0,.32-.37c0-.11,0,0-.07-.15s-.08-.1-.14-.12a.54.54,0,0,0-.36,0c-.08,0-.08,0-.05.09l.43,1,.26.57.28.53s.05.05.05.09-.25.22-.44.24-.12,0-.13,0-.41-.11-.47-.27a6.13,6.13,0,0,0-.46-.78,2.07,2.07,0,0,1-.15-.34l-.12-.45,0-.11c0-.06-.06-.14-.09-.22s-.11-.25-.16-.38l-.09-.22,0-.06.06,0,.11-.07a3.49,3.49,0,0,1,.92-.47,1.19,1.19,0,0,1,1.41.48,1.28,1.28,0,0,1,.19.5,1.1,1.1,0,0,1-.34.88,2,2,0,0,1-.6.44A1,1,0,0,1,258.6,176Z"/><path class="cls-1" d="M262,174.53c.42-.36.52-.42.55-.41a.78.78,0,0,1,.29.14c.07.05.09.15.15.21a3.06,3.06,0,0,0,.3.32l.09.1.12.05s0,0,0,0a3.06,3.06,0,0,1-.36.35l-.09.07s-.28.19-.29.16-.14,0-.21-.07a.08.08,0,0,1-.05-.05s0-.09,0-.12a7.31,7.31,0,0,0-.58-.62A.85.85,0,0,1,262,174.53Z"/></g></svg>