<svg id="Layer_1" data-name="Layer 1" xmlns="http://www.w3.org/2000/svg" width="520" height="520" viewBox="0 0 520 520"><defs><style>.cls-1{fill:#221f1f;}</style></defs><title>Notioly v2</title><g id="_36.Camping" data-name="36.Camping"><path class="cls-1" d="M303.74,444c-8.53,1.73-17.76-.15-25.5-3.94a47.05,47.05,0,0,1-4.75-2.65c4.52-1.17,9-2.37,13.54-3.65,1.76,1.09,4.11-.4,6.43-.73,4.1-.6,3.29,3.4,7.4,3.69,2,.14,10.55-1.15,12.15.27C317.49,441,305.94,443.54,303.74,444Z"/><path class="cls-1" d="M294.47,434.32a8.24,8.24,0,0,0-2.79.47,9.25,9.25,0,0,1-3.81.54,4.35,4.35,0,0,1-.57-.13,3.65,3.65,0,0,1-.35-.14c-.06,0-.06,0-.16,0l-1.63.41-3.24.83-4.72,1.26-.6.12c-.17,0-.6.07-.28.2.15.12.33.23.52.36l.15.09.38.21.94.5a46.36,46.36,0,0,0,7.78,3.22,37.14,37.14,0,0,0,7.34,1.4,49.22,49.22,0,0,0,9.48-.29c1-.1,1,.46.22,1.13a7.19,7.19,0,0,1-4.26,1.56A39.75,39.75,0,0,1,279,441.65c-.91-.47-1.82-.93-2.72-1.43l-1-.55-1.09-.64-2.06-1.29-.52-.33-.26-.17-.13-.08s-.12-.06,0-.07l1.15-.35c.76-.24,1.51-.47,2.37-.69l3.73-1,6.51-1.67,1.85-.47a1.14,1.14,0,0,1,.32-.07l.3.16c.23.12.31.14.42.19a2.05,2.05,0,0,0,.6.11,11.2,11.2,0,0,0,3-.64,11.91,11.91,0,0,1,2.17-.43,4.25,4.25,0,0,1,2.44.41,6.07,6.07,0,0,1,1.73,1.58,5.64,5.64,0,0,0,1.33,1.27,4.33,4.33,0,0,0,2.62.55c1,0,2.07-.12,3.12-.18a40.94,40.94,0,0,1,6.37-.07c1.61-.05,4.18,1.62,3.25,4a5.15,5.15,0,0,1-1.94,2,15.45,15.45,0,0,1-2.24,1.17c-.67.29-1.33.56-2,.79-2.58.81-3.46.8-4.13.37a2.6,2.6,0,0,1-.44-.3c-.34-.39.64-.93,2.42-1.53a37.56,37.56,0,0,0,3.87-1.54,11.36,11.36,0,0,0,1.69-1,2.32,2.32,0,0,0,.88-1c0-.09,0-.08,0-.18s-.08-.12-.1-.19-.13-.16-.22-.25l-.15-.13-.06-.07h0l.26-.29h0l0,0-.07.07-.13.15c-.07.09,0,0,0,0l-.13,0a1.58,1.58,0,0,0-.35-.09c-.15,0-.27-.06-.44-.07a27.33,27.33,0,0,0-4.25,0l-3.33.21c-.56,0-1.13.08-1.73.1h-1a10.07,10.07,0,0,1-1.06-.16,5.84,5.84,0,0,1-2.05-.93,8.7,8.7,0,0,1-1.43-1.41,7.8,7.8,0,0,0-.94-1,1.61,1.61,0,0,0-.86-.3Z"/><path class="cls-1" d="M218.72,363.61c7.05.17,13.69-.78,19.77-4.55,1.46-.9-2-.56-2.68-.15-4.61,2.86-9.54,3.36-14.84,3.24-.78,0-4,1.42-2.25,1.46Z"/><path class="cls-1" d="M279.31,359.81c4.6,1.59,9.73,1.17,14.35-.19,2.07-.6,1.6-2.48-.51-1.87a19.21,19.21,0,0,1-11.74.08c-1.17-.4-4.06,1.31-2.1,2Z"/><path class="cls-1" d="M27.54,313.69c1,2.34.8,4.43,1.7,6.79,2.35-1,2.21-4.53,3-6.59A6.25,6.25,0,0,0,27.54,313.69Z"/><path class="cls-1" d="M26.09,314.08c.85,2.2.91,4.57,1.7,6.79.29.8,1.87.2,2.33,0,2.83-1.39,2.65-4.56,3.54-7.16.12-.35-.31-.46-.54-.53a13.91,13.91,0,0,0-2.09-.53,10.64,10.64,0,0,0-3.67.42c-.38.1-1.42.48-1.27,1s1.27.34,1.62.26a6.14,6.14,0,0,1,3.6.28l-.54-.53c-.61,1.79-.48,5.07-2.41,6l2.33,0c-.79-2.21-.86-4.59-1.7-6.79C28.63,312.38,25.77,313.25,26.09,314.08Z"/><path class="cls-1" d="M156,454.14a3.26,3.26,0,0,1-3,1c-3.27-.4-6.54-.85-9.8-1.37-2.81-.44-5.59-1-8.39-1.47-4.81-.81-9.63-1.59-14.45-2.38-1.42-.24-2.84-.49-4.27-.71s-2.74-.38-4.1-.57a3.11,3.11,0,0,1-.69-.11.6.6,0,0,1-.11-1.13c.11-.08.25-.21.35-.2,1.06.15,2-.41,3.13-.2,2.06.37,4.15.53,6.23.79.83.11,1.65.25,2.47.41,1,.21,2.09.48,3.14.69,2.86.57,27.11,4.46,27.75,4.6S155.17,453.86,156,454.14Z"/><path class="cls-1" d="M138.87,441.4c0-1.16.27-1.49.62-1.63a30.76,30.76,0,0,1,3.58-1.21c1-.29,2.1-.45,3.14-.71.88-.21,1.82-.44,2.63-.67s1.62-.64,2.56-1a5.82,5.82,0,0,1,1.93-.26,9.35,9.35,0,0,0,1.48-.08c.07,0,.14-.05.21,0a1,1,0,0,1,.22,1c0,.09-.05.24-.09.24-.4.07-.75.71-1.2.68a3.46,3.46,0,0,0-2,.35,6.06,6.06,0,0,1-.84.32c-.38.12-.8.2-1.21.31-.63.23-3.14.8-5.54,1.42s-4.65,1.29-4.77,1.31A4,4,0,0,1,138.87,441.4Z"/><path class="cls-1" d="M84.43,452.68c.48-1.11,1-1.35,1.45-1.46.81-.14,1.55-.51,2.61-.74.25-.05.54-.09.76-.11l.67-.08,1.33-.16c1.52-.2,3.07-.33,4.59-.6,2.63-.46,5.23-1.08,7.8-1.78.76-.21,1.52-.41,2.27-.66s1.42-.5,2.12-.77a.85.85,0,0,1,.36-.12c.35,0,.58.46.48.89,0,.1,0,.25-.1.27-.55.21-.8,1-1.41,1.15-1.12.31-2.18.81-3.29,1.18a10.9,10.9,0,0,1-1.36.36c-.58.12-1.18.17-1.77.28-.8.15-4.52,1-8.18,1.51-.91.12-1.81.22-2.67.3a9.5,9.5,0,0,0-2.11.32,12,12,0,0,1-1.7.39,7,7,0,0,1-.76.09A5.19,5.19,0,0,1,84.43,452.68Z"/><path class="cls-1" d="M155.67,437c.07,1.27-.27,1.64-.64,1.78a32,32,0,0,1-3.81,1.25c-1.11.29-2.24.45-3.35.7-1.92.41-3.76.89-5.67,1.39-.56.14-1.12.27-1.68.43s-1.05.34-1.58.51c-.09,0-.17.09-.27.07-.26-.08-.45-.6-.38-1,0-.1,0-.26.06-.27.41-.13.56-.91,1-1a19.12,19.12,0,0,0,2.37-.84,5.29,5.29,0,0,1,1-.24c.42-.08.86-.09,1.28-.16.6-.12,3.29-.73,5.84-1.34s4.94-1.29,5.06-1.32A3.36,3.36,0,0,1,155.67,437Z"/><path class="cls-1" d="M143.17,433.12c.34,0,.67-.34,1-.5a30.75,30.75,0,0,1,3.61-1.53,24.21,24.21,0,0,1,3.25-.73c.94-.18,1.88-.34,2.85-.44l.8-.06a2.35,2.35,0,0,1,.65.05c.21,0,.36.22.54.33a4.35,4.35,0,0,1,.46.49c.1.23.17.31.24.46a4.84,4.84,0,0,1,.3.8,6.84,6.84,0,0,1-.12,3.54c0,.09-.06.18-.1.27s-.09.27-.08.11,0-.12,0-.13a3.16,3.16,0,0,0-.32-1.16,5.15,5.15,0,0,0-1-2.05c-.15-.21-.36-.44-.42-.55a.11.11,0,0,0,0-.09s0,0,0-.05,0,0-.13,0c-.5,0-3.11.62-5.64.95-1.27.17-2.52.28-3.48.32s-1.62,0-1.69,0A7.48,7.48,0,0,0,143.17,433.12Z"/><path class="cls-1" d="M160.86,452.18a3,3,0,0,1-.09.43c-.09.14-.19.28-.31.44a3.67,3.67,0,0,1-1,.65,7.65,7.65,0,0,1-2.47.6,19.36,19.36,0,0,1-5.15-.37c-1.43-.28-2.75-.54-4.17-.73l-4.2-.63-8.4-1.3-16.79-2.65c-4.86-.76-9.62-1.93-14.37-3-2.38-.57-4.77-1.13-7.14-1.79s-4.72-1.29-7.09-2.09c-.52-.18-1.05-.37-1.59-.61a3.7,3.7,0,0,1-1.23-.75,1.25,1.25,0,0,1-.35-.58c0-.23-.05-.44,0-.68l.28-1.78c.08-.5.17-1,.3-1.53a8.41,8.41,0,0,1,.53-1.61,4,4,0,0,1,1.25-1.63,2,2,0,0,1,.53-.3,1.47,1.47,0,0,1,.58-.17l.57-.07h.42c.57,0,1.07.07,1.57.12,1,.11,2,.26,3,.41,3.91.62,7.77,1.38,11.62,2.14l23.11,4.57,7.3,1.45,7.28,1.54c4.66,1,9.28,2,13.93,3.07l.93.21.24.05.4.16a1.62,1.62,0,0,1,.4.18l.1.06c.08-.06.07,0,.11,0l.17.15a3.92,3.92,0,0,1,.52.82c.55,1.3.28,2.13.08,2.33s-.47-.1-.84-.79c-.18-.32-.46-.6-.63-.89a2.23,2.23,0,0,0-.2-.3c-.09-.18-.32-.14-.47-.2l-.61-.11c-.42-.08-.82-.14-1.23-.19-.81-.11-1.61-.2-2.42-.29a42.37,42.37,0,0,1-5.06-.79c-7-1.66-14.05-2.88-21.11-4.17-2.82-.52-5.64-1.08-8.44-1.67l-10.78-2.32c-1.28-.27-3.82-.8-8-1.62-2.11-.4-4.66-.89-7.67-1.35-.75-.1-1.54-.22-2.33-.29-.41-.05-.78-.05-1.17-.07-.16,0-.22,0-.34,0l-.11,0-.11.08a3.7,3.7,0,0,0-.86,1.88c-.11.43-.19.88-.27,1.36s-.12.8-.19,1.21c0,0,0,.06,0,.1a.24.24,0,0,0,.08.06l.1,0,.45.19c.64.25,1.34.48,2,.71,1.45.46,3,.9,4.6,1.33,3.22.9,6.7,1.7,10.33,2.53s7.35,1.67,11.06,2.31l11.09,1.81,18.58,3c1.23.21,2.31.35,3.33.57L153,452c1.42.27,2.29.37,2.48.4.86.12,1.71.26,2.66.31a8.1,8.1,0,0,0,1.47,0A2.2,2.2,0,0,0,160.86,452.18Z"/><path class="cls-1" d="M82.58,448.8a2.68,2.68,0,0,1,.36-1.1,9,9,0,0,1,3.11-2.51,17,17,0,0,1,3.1-1.13A28.87,28.87,0,0,1,94.66,443c.55,0,1.11-.06,1.67-.08a14.51,14.51,0,0,1,1.61,0l.27,0c.24,0,.29,0,.13,0l-.12,0a4.3,4.3,0,0,0-1.06.55c-.75.29-1.47.7-2.19,1.05a5,5,0,0,1-.89.33c-.39.12-.79.16-1.18.24l-5.35,1.49c-1.18.32-2.32.63-3.15.92a5.44,5.44,0,0,0-1.38.64A1.07,1.07,0,0,0,82.58,448.8Z"/><path class="cls-1" d="M116.81,446.46a2.75,2.75,0,0,1-2.14,1.68,71.24,71.24,0,0,0-7.51,2c-1.09.32-2.21.61-3.35.86l-3.36.68c-3.8.82-7.62,1.77-11.54,2.4-.58.1-1.16.18-1.74.25a8.06,8.06,0,0,1-2,0,3.87,3.87,0,0,1-2-.93,5.12,5.12,0,0,1-1.21-1.72,1.68,1.68,0,0,1-.22-.57c0-.53.44-.8,1-.6.11,0,.28.07.32.15.32.81,1.25,1.07,1.65,1.38a2.24,2.24,0,0,0,1.77.32c.34-.05.74-.13,1.15-.22l1.21-.26c.65-.13,1.3-.24,2-.34.84-.12,1.69-.19,2.53-.34.57-.09,2.19-.43,4.32-.91l3.51-.78c1.27-.26,2.51-.53,3.78-.88,2.51-.69,5-1.46,7-1.86a24.12,24.12,0,0,1,3.48-.54A8.74,8.74,0,0,1,116.81,446.46Z"/><path class="cls-1" d="M134.5,405.82a7.19,7.19,0,0,1-4.38-2.93,45.74,45.74,0,0,1-8.55-15.67l-.1-.37s0,0,0,0l0,0s.07-.11-.2.25l-1.12,1.52c-1.48,2-3.1,4.08-4.69,6a70.43,70.43,0,0,0-7.08,10.66,46.81,46.81,0,0,0-4.59,11.81,22.88,22.88,0,0,0-.51,7.31,20.25,20.25,0,0,0,1.89,6.7,11,11,0,0,1,.51,1c.35.92,0,1.43-.72,1a1.3,1.3,0,0,1-.49-.37c-.89-1.67-2.12-2.89-2.61-4.94a26.56,26.56,0,0,1-.13-11.5c.18-.74.35-1.49.56-2.23s.47-1.45.73-2.17a54.74,54.74,0,0,1,2.41-5.28,70.85,70.85,0,0,1,5.06-8.58c1.36-2,3-4.23,4.84-6.39q1.3-1.63,2.59-3.41l3.15-4.32,1.18-1.57.14-.19.08-.1s0-.09.06,0l.1.46.22.94.42,1.91c.07.34.16.63.24.95l.14.53a36,36,0,0,0,1.36,3.83,46.21,46.21,0,0,0,3.34,6.4,66.88,66.88,0,0,0,4.32,6.06C133.18,403.84,133.65,404.63,134.5,405.82Z"/><path class="cls-1" d="M135.32,441.84a2.76,2.76,0,0,1,1-2.42,24.91,24.91,0,0,0,4.85-5.35,18.91,18.91,0,0,0,2.71-5.52,12.2,12.2,0,0,0,.35-5.15,15.39,15.39,0,0,0-1.79-4.94,22.7,22.7,0,0,0-1.7-2.71c-.61-.83-1.28-1.62-2-2.41a1.38,1.38,0,0,1-.33-.4.66.66,0,0,1,.7-.87c.11,0,.29,0,.34,0,.55.62,1.51.69,2,1.41,1,1.33,2.05,2.59,2.91,4.05a10,10,0,0,1,.88,1.84,16.66,16.66,0,0,1,.68,2.54,14.1,14.1,0,0,1,.27,4.55,18.4,18.4,0,0,1-2.38,7.16,23.52,23.52,0,0,1-4.45,5.6,17.78,17.78,0,0,1-2.69,2.11A6.64,6.64,0,0,1,135.32,441.84Z"/><path class="cls-1" d="M126.62,437.76a7,7,0,0,0,2-3.23c1.11-3.84-1.62-8-3.63-11.46-.5-.88-6-8.95-5.33-9.81-9.31,12.22-3.94,20.67-2.3,22.74Z"/><path class="cls-1" d="M126.66,437.8a6.45,6.45,0,0,0,1.53-3.37,9.09,9.09,0,0,0-1.44-5.91c-.51-.92-1.1-1.83-1.71-2.73l-.93-1.38c-.33-.49-.58-.85-.92-1.32-1.12-1.56-2.2-3.17-3.2-4.86l-.37-.64-.18-.32,0-.08h0v0l0-.13s0-.11,0-.17,0,0-.07.05a1.81,1.81,0,0,0-.16.25,19.22,19.22,0,0,0-1.12,2l-.51,1c-.15.35-.27.71-.41,1.06a17.07,17.07,0,0,0-.69,2.17,15.33,15.33,0,0,0,.32,8.87,13.79,13.79,0,0,0,1.12,2.44c.1.2.26.43.23.39s0,0,0,0,0,0,.16,0l1.42.37c1.81.48,3.61,1,5.4,1.55l.9.29c.75.3.93.35.35.28l-.43-.06-4.07-.68-4.19-.77a2.47,2.47,0,0,1-.29-.06,2.33,2.33,0,0,1-.19-.23c-.11-.15-.22-.28-.32-.43s-.4-.59-.58-.9a14.2,14.2,0,0,1-.94-1.92,14.06,14.06,0,0,1-.91-3.3,15.85,15.85,0,0,1-.07-4.35,21.38,21.38,0,0,1,2.27-7.15c.43-.82.92-1.63,1.51-2.59l1-1.37.5-.71.12-.17,0-.08,0,.06s0,0,.09,0,.08-.2.07.15v.68c.06.16.1.33.16.47s.24.56.37.83c.26.53.58,1.11.84,1.57.54,1,1.12,1.91,1.71,2.85l1.77,2.79c.59.92,1.1,1.84,1.63,2.73a23.75,23.75,0,0,1,2.32,5.13,8.27,8.27,0,0,1,.19,4,6.19,6.19,0,0,1-.6,1.64A7.38,7.38,0,0,1,126.66,437.8Z"/><path class="cls-1" d="M93.38,437.65a3.15,3.15,0,0,1,3-.6c3.06.74,6.09,1.55,9.11,2.4,2.6.73,5.17,1.55,7.77,2.24a112.29,112.29,0,0,0,13.58,2.63l4.08.6,3.93.53a3.4,3.4,0,0,1,.65.12.54.54,0,0,1,.1,1c-.1.07-.23.19-.33.17-1-.16-1.91.35-3,.16-2-.34-3.94-.45-5.92-.68q-1.2-.13-2.37-.36c-1-.19-2-.43-3-.64-.68-.15-2.65-.49-5.2-1.08s-5.65-1.44-8.68-2.3L95,438.41C94.54,438.25,94.1,438,93.38,437.65Z"/><path class="cls-1" d="M159.17,448.17c-.1,0-.09.22-.13.31a6,6,0,0,0-.21,1,5.62,5.62,0,0,1-.18.54,1.55,1.55,0,0,0,0,.38c0,.16,0,.37.09.6s0,.29.06.45a2.67,2.67,0,0,1,0,.5V452c0,.09,0,.09,0,.06l0,0c-.06-.08-.23-.07-.36-.12s-.48-.2-.72-.34a.66.66,0,0,1-.22-.22,1.66,1.66,0,0,1-.15-.39,2.34,2.34,0,0,1-.19-.77,2,2,0,0,1,.4-1.27,2.11,2.11,0,0,1,.88-.67,2.18,2.18,0,0,1,.52-.12A1.91,1.91,0,0,0,159.17,448.17Z"/><path class="cls-1" d="M95.92,444c.71-1,1.11-1.15,1.43-1.06,1.07.26,2.12.56,3.16.89.89.28,1.75.66,2.64.92a44.68,44.68,0,0,0,4.68,1.09c.47.08.93.18,1.4.23s.91.06,1.36.08c.08,0,.17,0,.23,0s.16.71,0,1.1c-.05.09-.1.24-.14.23-.36,0-.73.65-1.11.58a19.28,19.28,0,0,0-2.16-.12,3.46,3.46,0,0,1-.84-.16c-.35-.11-.69-.27-1-.38s-2.77-.69-4.9-1.39-4.12-1.46-4.21-1.51A2.37,2.37,0,0,1,95.92,444Z"/><path class="cls-1" d="M137.25,441.54c-.43-1.17-.37-1.5-.19-1.66l1.74-1.64c.51-.46,1.08-.87,1.57-1.36a26.42,26.42,0,0,0,2.33-2.73c.21-.29.43-.56.62-.86s.32-.6.47-.9c0-.05,0-.13.09-.14a1.48,1.48,0,0,1,1,.52c.07.07.18.17.17.2-.13.24.35.82.16,1a12.17,12.17,0,0,0-.77,1.48,2.49,2.49,0,0,1-.4.52c-.2.2-.45.36-.66.55s-1.44,1.65-2.73,2.82a18.33,18.33,0,0,1-2.77,2.16A2,2,0,0,1,137.25,441.54Z"/><path class="cls-1" d="M47.69,327.24c3.42-.76,7-.05,10.36.92q17.07,4.84,34.1,9.92c9.76,2.91,19.47,6,29.23,8.95q25.16,7.61,50.33,15.16c5,1.49,9.91,3,14.87,4.48,4.75,1.41,9.52,2.77,14.28,4.15.8.24,1.66.43,2.39.72,2,.8,2.22,1.67.56,1.78a3.66,3.66,0,0,1-1.19,0c-3.69-1.08-6.9-1-10.78-2.21-7.16-2.21-14.43-4.12-21.64-6.19-2.88-.82-5.76-1.7-8.62-2.6-3.66-1.15-7.29-2.38-11-3.54-10-3.15-94.45-28.45-96.66-29.17C52.18,329,50.47,328.3,47.69,327.24Z"/><path class="cls-1" d="M234.6,229.83c-3.73-6.2-6.55-14-9-21.76q-12.54-39-24.35-78.22l-2.71-9.12-.05.08-1.32,2.74c-1,2.21-2.26,4.22-3.41,6.32s-2.3,4.2-3.55,6.23l-3.76,6.08c-2.46,4.09-5.16,8-7.75,12s-5.34,7.87-8,11.81c-11.51,16.64-23.51,32.92-35.69,49.06S110.32,247.13,97.79,263q-11.1,14.06-22.34,28L54,317.74c-1.21,1.49-2.44,3.1-3.64,4.46-3.23,3.66-4.53,4.06-2.69.92a18,18,0,0,1,1.4-2.24c5.58-6.88,9.29-13,15.2-20.23,10.9-13.4,21.55-27,32.18-40.69,4.26-5.44,8.55-10.89,12.82-16.33,5.47-6.94,11-13.84,16.38-20.84,3.86-5.06,15.37-19.93,29.42-39.35l10.9-15.35,5.61-8.18c1-1.39,1.92-2.76,2.85-4.18s1.86-2.83,2.79-4.26c1.85-2.87,3.8-5.7,5.59-8.64l5.41-8.81,5-9c.44-.74.8-1.51,1.16-2.27l1.1-2.29,3.66-7.61,6.61,22.26c1.87,6.18,3.68,12.19,5.42,18,3.54,11.5,6.77,22,9.52,31l9.67,30.9C231.61,219.13,232.72,223.25,234.6,229.83Z"/><path class="cls-1" d="M476.44,300c-1.82,2.9-4.73,4.87-7.74,6.58l-30.16,17.15-26.09,14.55q-22.36,12.63-44.64,25.43l-13.17,7.54-12.53,7.36a22.88,22.88,0,0,1-2.11,1.22c-1.89.87-2.68.46-1.64-.79a3.55,3.55,0,0,1,.8-.84c3.24-1.9,5.35-4.24,8.8-6.19,6.38-3.6,12.62-7.47,18.93-11.21q3.8-2.24,7.65-4.36l9.87-5.38L430,325.26c20.13-11.36,39.51-22,40.52-22.55C472.12,301.87,473.8,301.17,476.44,300Z"/><path class="cls-1" d="M199.07,115c7.93-1.32,17.13-1.39,26.22-1.27,30.39.35,60.84-.1,91.15-2.23,13-1,26.05-2.16,38.94-4.13q9.67-1.45,19.2-3.6A126.14,126.14,0,0,0,393.1,98l5.62-2.5,1.16,5.72.84,4,1.75,8q1.8,8,3.72,15.89Q410,145,414.37,160.7c5.8,21,12.23,41.78,19.66,62.22,4.54,12.49,9.39,24.86,14.88,36.94a309.76,309.76,0,0,0,17.65,33.68l1.7,2.76c.57.9,1.17,1.78,1.68,2.64,2.81,4.61,2.89,6.1.23,3.07a21.32,21.32,0,0,1-1.89-2.26c-5.35-8.3-10.07-14.73-14.81-24.09a525.18,525.18,0,0,1-22.81-53.32c-2.69-7.25-5.14-14.61-7.52-22-3-9.42-5.74-18.89-8.43-28.39-1-3.6-3.1-10.9-6.26-22.9-1.58-6-3.4-13.19-5.43-21.69q-1.53-6.37-3.2-13.76L398.14,106q-.67-3.21-1.4-6.64l-1.11.5c-.9.38-1.79.83-2.72,1.17-1.88.67-3.78,1.44-5.78,2.08s-4,1.28-6.13,1.83-4.25,1.15-6.45,1.63c-8.79,2-18.27,3.61-28,4.87-19.54,2.48-40.21,3.73-59.15,4.4-37.91,1.27-68.93.23-71.09.2C211.44,115.85,206.69,115.52,199.07,115Z"/><path class="cls-1" d="M384.21,65.57c3.35,3.73,5.8,8.73,8,13.76q10.89,25.24,21.77,50.51c6.25,14.49,12.35,29,18.67,43.5C443.48,198.2,454.52,223,466,247.57l5.11,10.88,5.26,10.79c1.65,3.46,3.45,6.84,5.22,10.24l2.65,5.09c.87,1.71,1.86,3.34,2.78,5,.64,1.11,1.35,2.26,1.87,3.35,1.43,2.93,1.16,4-.5,2.17a8,8,0,0,1-1.15-1.37c-1.46-2.6-3-4.81-4.53-7.08s-2.92-4.66-4.34-7.47c-2.68-5.17-5.21-10.4-7.83-15.6s-5.14-10.44-7.67-15.68c-2-4.18-4-8.42-5.87-12.66l-7.18-16.32c-3.31-7.41-18.88-42.32-33.33-76s-28.05-66-28.71-67.64C386.7,72.61,385.78,69.89,384.21,65.57Z"/><path class="cls-1" d="M398.34,98.05c-.93-1.5-.75-2.25-.36-2.82,1.31-1.88,2.69-3.72,4.15-5.48,1.25-1.52,2.65-2.91,3.95-4.39l6.72-7.58c.67-.75,1.35-1.47,2-2.23s1.18-1.49,1.72-2.22c.1-.13.13-.28.27-.35.36-.16,1,.19,1.31.75.06.13.18.32.14.38-.44.61-.09,1.69-.63,2.27-1,1.07-1.76,2.33-2.65,3.47a12.88,12.88,0,0,1-1.15,1.3c-.53.51-1.12,1-1.64,1.5-.72.71-3.88,4.25-6.83,7.7s-5.67,6.82-5.82,7A6.46,6.46,0,0,1,398.34,98.05Z"/><path class="cls-1" d="M299.53,298.24a10.06,10.06,0,0,1,5.11,4.66q6.08,9.81,12,19.71l10.06,17.11q8.78,14.64,17.8,29.12c1.78,2.85,3.55,5.71,5.37,8.53s3.54,5.37,5.34,8a12,12,0,0,1,.88,1.35c.6,1.25.14,1.93-.88,1.39-.23-.12-.55-.22-.69-.43-1.39-2.07-3.29-3.21-4.69-5.45-2.59-4.14-5.41-8.13-8.08-12.22-1.06-1.63-2.1-3.29-3.09-5-1.24-2.16-2.48-4.33-3.73-6.49L317,328.75c-7.87-13.19-15.32-25.87-15.68-26.54C300.76,301.14,300.33,300,299.53,298.24Z"/><path class="cls-1" d="M175.38,78.15a.39.39,0,0,1,.18-.18c.08,0,.09-.07.19-.07a1.69,1.69,0,0,1,.58.14,6.53,6.53,0,0,1,1.19.64,13,13,0,0,1,2.12,1.8A29.74,29.74,0,0,1,183.12,85c6.87,10.59,13.13,21.51,19.35,32.46,5.32,9.43,10.42,19,15.61,28.48Q231.46,170.4,244.69,195l7.81,14.54,7.59,13.85c.42.78.92,1.57,1.25,2.33.9,2.07.48,2.89-.79,1.69a3.91,3.91,0,0,1-.87-.9c-2-3.58-4.35-6-6.36-9.81-3.72-7-7.71-13.93-11.58-20.9-1.54-2.79-3.06-5.6-4.53-8.43l-5.61-10.84c-2.6-4.93-15-28-27.24-49.91-6.1-11-12.16-21.65-16.87-29.64S179.35,83.71,179,83.21l-1.62-2.6c-.3-.46-.62-1-1-1.46-.19-.24-.38-.49-.58-.71s-.21-.21-.26-.26A.13.13,0,0,0,175.38,78.15Z"/><path class="cls-1" d="M226.4,82.39a48,48,0,0,1-4.71,8c-1.84,2.63-3.9,5.21-6,7.73L173.5,148.75c-12.13,14.5-24.42,28.89-36.63,43.33q-31.5,37.28-63.37,74.24c-6.28,7.28-12.66,14.48-19,21.71l-9.15,10.35-4.58,5.17-4.65,5.12c-1,1.14-2.09,2.39-3.13,3.41-2.8,2.78-4,2.94-2.41.42a11.6,11.6,0,0,1,1.17-1.78c4.8-5.28,7.94-10.1,13-15.72q3.49-3.87,6.94-7.78l6.83-7.9,13.58-15.87L83,250.8l14.06-16.05c6.4-7.32,36-42.21,64.23-75.84S216.5,93.12,218,91.53C220.25,88.9,222.66,86.43,226.4,82.39Z"/><path class="cls-1" d="M487.79,296.06c1,2.33.8,4.42,1.7,6.79,2.35-1,2.21-4.53,3-6.6A6.32,6.32,0,0,0,487.79,296.06Z"/><path class="cls-1" d="M486.34,296.45c.84,2.19.91,4.57,1.7,6.79.27.76,1.51.59,2,.32,3.05-1.5,2.87-4.63,3.83-7.45.13-.37-.31-.66-.59-.73a16.1,16.1,0,0,0-2.17-.57,10.45,10.45,0,0,0-3.6.4c-.5.12-1.4.59-1.22,1.24s1.2.58,1.67.46a6.09,6.09,0,0,1,3.59.22l-.6-.73c-.52,1.55-.45,4.91-2.12,5.73l2.06.33c-.79-2.22-.86-4.59-1.71-6.79C488.79,294.52,485.92,295.36,486.34,296.45Z"/><path class="cls-1" d="M354.48,387.42c1,2.34.8,4.43,1.71,6.79,2.34-1,2.21-4.53,3-6.59C357.94,387.33,357.35,386.66,354.48,387.42Z"/><path class="cls-1" d="M353,387.81c.85,2.2.92,4.58,1.71,6.79.29.83,1.44.8,2.09.48,3-1.47,2.78-4.56,3.71-7.29a.84.84,0,0,0-.55-1.15,17.81,17.81,0,0,0-2.17-.59,9.59,9.59,0,0,0-3.61.37c-1.8.45-1.26,2.45.54,2a6.1,6.1,0,0,1,3.57.17l-.55-1.15c-.56,1.64-.49,5-2.23,5.9l2.09.48c-.78-2.22-.85-4.6-1.7-6.79C355.42,385.72,352.54,386.54,353,387.81Z"/><path class="cls-1" d="M213.92,337.37c-.19-.24,0-.51.36-.81a.89.89,0,0,1,.61-.12,2.5,2.5,0,0,1,.41.38c.07.08.63,1.51.84,2a9.12,9.12,0,0,1,.45,1.43l.76,2.95a3.9,3.9,0,0,1,.11.67,10.85,10.85,0,0,0,.46,2.28.77.77,0,0,0,.15.36,13.56,13.56,0,0,1,.67,2.49c0,.69.13,1.36.2,2a.51.51,0,0,1,0,.3.94.94,0,0,0,0,.64,5.18,5.18,0,0,1,.11.87,1.65,1.65,0,0,1-.1.47c0,.15-.31.15-.35.11s-.21,0-.31.07l-.12,0a11.16,11.16,0,0,1-1-1.68s-.19-.61-.39-1.23l-.46-1.4a1.54,1.54,0,0,1-.06-.43c0-.07-.63-1.93-.65-2a3.77,3.77,0,0,1-.19-1.2.61.61,0,0,0,0-.24,20.59,20.59,0,0,1-.44-2c-.07-.35-.18-.69-.26-1a1.36,1.36,0,0,1,0-.2,1,1,0,0,0,0-.24c-.23-.81-.35-1.65-.63-2.44-.06-.19-.1-1.13-.18-1.34S214,337.47,213.92,337.37Z"/><path class="cls-1" d="M91.29,335.58c1.57-5.26,4.89-10.26,8.39-15.05q17.56-24,34.58-48.38c9.74-14,19.46-28,28.73-42.32,3.87-5.94,7.63-11.94,11.36-18l5.52-9.07,7.68-13,2.67,15.64,2,11.21,4,22.4c1.56,8.53,3.12,17.06,4.78,25.57,1.59,8.15,3.27,16.28,5,24.41.29,1.36.65,2.79.83,4.09.5,3.52-.2,4.5-1.36,2.07a8.17,8.17,0,0,1-.76-1.79c-1.33-6.3-3.44-11.11-4.71-17.8-2.35-12.34-5-24.66-7.36-37-.95-4.94-1.84-9.91-2.68-14.86-1.08-6.35-2-12.69-3.08-19-.1-.57-.23-1.37-1-5.79l-.75,1.22c-1.16,2-2.48,4.23-4,6.74s-3.23,5.28-5.06,8.26-3.86,6.14-5.95,9.48c-8.46,13.3-18.88,29-29.27,43.94-20.73,29.94-41.19,57-42.33,58.44C96.56,329.44,94.5,331.77,91.29,335.58Z"/><path class="cls-1" d="M191.64,360.88C179.78,357.48,169,352.31,157,349s-25-4.9-36.47-9.35c-1.37-.52-5.84-3.2-7.35-2.74l21.2,2.08c17.44,6.31,35.15,11.67,53,16.77Z"/><path class="cls-1" d="M191.81,360.28c-3.3.33-6.87-.6-10.26-1.78-5.69-2-11.27-4.13-16.93-6a147.53,147.53,0,0,0-17.22-4.72c-5-1.1-10.09-2.13-15.12-3.41-2.52-.64-5-1.33-7.51-2.14-1.24-.41-2.48-.82-3.7-1.29l-.93-.35c-.36-.14-.65-.29-1-.44l-1.73-.86c-.74-.36-1.47-.7-2.2-1a8.49,8.49,0,0,0-1.05-.34,3.19,3.19,0,0,0-.46-.08h-.22s0,0,0-.06l-.18-2,21.33,2.1,6.46,2.29,6.37,2.17q6.38,2.13,12.8,4.15c5,1.57,10,3.11,15,4.58l6.18,1.77,6.52,1.84,1.63,1.94c.55.65,1.15,1.3,1.62,1.95,1.26,1.74,1.15,2.47-.17,1.52a5,5,0,0,1-.93-.73c-.52-.63-1-1.21-1.58-1.77l-.79-.82c-.25-.25-.59-.59-.7-.68l-.24,0-.38-.07-.76-.14-1.55-.31c-1-.21-2.13-.47-3.27-.8-7.28-2.16-14.63-4.16-21.91-6.38-2.91-.88-5.81-1.83-8.7-2.8-3.68-1.25-7.33-2.59-11-3.9l-5.09-1.83-21.08-2.1-5.38-.53,5.2-1.3a3.24,3.24,0,0,1,1.53,0,9,9,0,0,1,1.21.35c.76.28,1.5.61,2.25,1l2.24,1.11a9.25,9.25,0,0,0,1.11.47l1.23.45a105.56,105.56,0,0,0,10.86,3.19c7.72,1.88,16.18,3.36,23.86,5.51s14.45,4.87,19.49,6.74,8.35,3,8.77,3.18C187.27,358.57,189,359.3,191.81,360.28Z"/><path class="cls-1" d="M113.37,340.74a10.47,10.47,0,0,1,5.69.19c6.22,1.56,12.5,2.89,18.79,4.18l8.12,1.71c2.7.58,5.41,1.14,8.14,1.81,9.34,2.33,18.22,6,27,9.61l7.79,3.22q3.75,1.5,7.52,2.92a11.77,11.77,0,0,1,1.26.49c1,.54,1.09,1.1.17,1.14a1.83,1.83,0,0,1-.66,0c-2-.74-3.74-.76-5.78-1.6-3.77-1.56-7.6-3-11.39-4.46q-2.28-.9-4.52-1.86c-1.92-.81-3.81-1.66-5.74-2.44-1.32-.51-5.08-2-10.12-3.59-2.51-.78-5.35-1.59-8.36-2.23s-6.21-1.29-9.35-1.94c-6.3-1.28-12.46-2.61-17.09-3.74s-7.76-2-8.07-2.11C115.82,341.74,114.88,341.32,113.37,340.74Z"/><path class="cls-1" d="M211.87,119.62c3.53,1.15,6.69,3.58,9.65,6.15,9.9,8.61,19.86,17.15,30.14,25.27,8.83,7,17.83,13.78,27.26,19.93,16.2,10.58,33.52,19.55,51.87,25.59a160.25,160.25,0,0,0,16.48,4.56c2.66.63,5.35,1.07,8,1.55,1.34.25,2.69.39,4,.59s2.7.41,4.06.52c.91.09,1.88.14,2.73.29,2.29.42,2.78,1.15,1,1.47a4.94,4.94,0,0,1-1.28.17c-2.12-.22-4.06-.17-6-.28a36.35,36.35,0,0,1-6.19-.57,195.77,195.77,0,0,1-24.41-6c-3.2-1-6.34-2.2-9.46-3.43-4-1.63-7.85-3.41-11.7-5.27-2.64-1.26-10.17-4.87-19.57-10.38-4.69-2.78-9.85-6-15.13-9.57s-10.67-7.46-15.91-11.43c-10.49-7.94-20.3-16.26-27.64-22.65s-12.23-10.82-12.71-11.26C215.61,123.46,214.2,122,211.87,119.62Z"/><path class="cls-1" d="M226.55,121.81a22.77,22.77,0,0,1,8.23,3.72c2.14,1.41,4.3,2.8,6.43,4.26,1.07.72,2.14,1.5,3.17,2.26l3.1,2.25c2.05,1.53,4.16,3,6.26,4.41s4.24,2.85,6.38,4.24a246.89,246.89,0,0,0,22.75,13.25,215.43,215.43,0,0,0,20.77,9,186.2,186.2,0,0,0,21.69,6.33l6.55,1.28c2.19.38,4.4.64,6.6.95l1.59.21,1.59.13,3.18.24c1.06.07,2.12.19,3.18.21l3.19.05a21.35,21.35,0,0,1,2.14.07c1.81.22,2.24.9.89,1.37a3.31,3.31,0,0,1-1,.28c-3.32-.08-6,.78-9.58.38A177.93,177.93,0,0,1,324.2,174c-2.56-.6-5.12-1.19-7.65-1.9-3.19-1-6.4-2-9.53-3.15-2.15-.77-8.35-2.84-16.13-6.33A226.91,226.91,0,0,1,264.94,149a273.37,273.37,0,0,1-23.07-15.8c-3-2.21-5.68-4-7.58-5.26s-3.07-2.12-3.28-2.27A46.74,46.74,0,0,1,226.55,121.81Z"/><path class="cls-1" d="M145.65,340.15a11.51,11.51,0,0,0,2.13.2c2.47.22,4.93.38,7.39.72a47.35,47.35,0,0,1,6.28,1.4,54.15,54.15,0,0,1,5.27,1.74,28.12,28.12,0,0,1,5,2.65c.92.59,1.8,1.21,2.69,1.82l2.55,1.75.43.3c.36.28.47.29.17.17l-.22-.08c-.73-.32-1.42-.36-2.24-.63-1.47-.57-3-1.1-4.44-1.64-.58-.22-1.15-.46-1.7-.72s-1.37-.71-2.07-1c-.46-.2-1.91-.69-3.83-1.28s-4.29-1.25-6.65-1.87-4.69-1.28-6.43-1.86-2.9-1.06-3-1.11C146.58,340.55,146.23,340.36,145.65,340.15Z"/><path class="cls-1" d="M132.18,410.93c1.26-.25,1.68.56,1.59,1.12a4.94,4.94,0,0,1-1.09,2.47,4.46,4.46,0,0,1-2.31,1.59,3.19,3.19,0,0,1-2.67-.46,4.91,4.91,0,0,1-1.54-1.87,6.62,6.62,0,0,1-.61-1.82,4.53,4.53,0,0,1,.07-2.09,3,3,0,0,1,1.51-1.83,4.1,4.1,0,0,1,2.09-.43,6.24,6.24,0,0,1,2.25.54,5.06,5.06,0,0,1,1.91,1.37.94.94,0,0,1,.25.37c.08.43-.44.67-.89.67-.1,0-.26,0-.28,0-.28-.4-1-.1-1.28-.33a3.05,3.05,0,0,0-2.1-.44l-.73.09a1.14,1.14,0,0,0-.67.28.9.9,0,0,0-.21.44,3.22,3.22,0,0,0,0,1.17c.17,1,.91,2.23,1.74,2.36s1.85-.67,2.28-1.4a2.32,2.32,0,0,0,.44-1.23A2.09,2.09,0,0,0,132.18,410.93Z"/><path class="cls-1" d="M233.91,410.08a1.71,1.71,0,0,1-1.34-.55c-.12-.12-.08-.44.08-.47a8,8,0,0,1,.95-.13c.2,0,3.22.21,4.24.33s2,.26,3,.43c2,.39,4,.78,5.95,1.26.43.1.87.22,1.3.36,1.46.49,2.95.88,4.43,1.31a4.05,4.05,0,0,0,.75.17,44.63,44.63,0,0,1,4.89,1.58c1.24.53,2.48,1.07,3.7,1.64a2.23,2.23,0,0,1,.51.26,5.23,5.23,0,0,0,1.09.59c.53.25,1.05.5,1.55.77a5.53,5.53,0,0,1,.71.48c.21.15,0,.28-.09.26-.26,0-.11.13-.12.21s0,.07,0,.08a3.15,3.15,0,0,1-.53-.13l-1.13-.35-1.86-.6-2.37-.88c-1.2-.42-2.47-.82-2.73-.9a7.68,7.68,0,0,1-.79-.32c-.12-.05-3.79-1.11-3.94-1.13a22,22,0,0,1-2.26-.73,2.32,2.32,0,0,0-.45-.13l-3.94-1.05c-.68-.17-1.36-.29-2-.44l-.36-.11a4.48,4.48,0,0,0-.46-.12c-1.62-.31-3.22-.68-4.86-.88-.37-.05-2.14-.46-2.58-.49C234.9,410.38,234.13,410.06,233.91,410.08Z"/><path class="cls-1" d="M129.93,409.65c-1,0-3.45.25-3.08,1.72a4.07,4.07,0,0,0,3.1,2.68c.86.09,3.25-.18,3.11-1.46-.11-1.06-1.43-2-2.32-2.39a2.23,2.23,0,0,0-1.39.16c-.08,0-1,.43-.67.56a4,4,0,0,1,1.74,1.3,2.53,2.53,0,0,1,.42.73.91.91,0,0,1,.06.32c0,.31-.3.37.28.12s.17-.16-.17-.33a3.35,3.35,0,0,1-.59-.39,5.3,5.3,0,0,1-.9-1,2.59,2.59,0,0,1-.49-.89c0-.13,0-.26,0-.39a.43.43,0,0,1,.09-.22c-.9.19-1.09.29-.58.29a2.93,2.93,0,0,0,1.53-.41c.34-.22.32-.39-.1-.41Z"/><path class="cls-1" d="M246,280.05a1.39,1.39,0,0,0,1.09,0,2.16,2.16,0,0,0,.4-.27,3.08,3.08,0,0,0,1.17-1.93,5.31,5.31,0,0,0,.1-1.2c0-.53,0-1.07,0-1.63,0-.17,0-.14,0,0s.31.34.48.63a4.09,4.09,0,0,1,.64,3.57,4.86,4.86,0,0,1-1.27,2.23,3.22,3.22,0,0,1-2.83.67,3,3,0,0,1-1.52-.94,4.7,4.7,0,0,1-.94-2.16,7.59,7.59,0,0,1-.18-1.62v-.35c0-.43.07-.59.06-.69s0-.05,0-.06.05.12.26.41.53.9.8,1.34a11.08,11.08,0,0,0,.71,1.12,6,6,0,0,0,.55.57,1.53,1.53,0,0,0,.42.24Z"/><path class="cls-1" d="M259.24,278.61a1.51,1.51,0,0,0,1.16.17,2.11,2.11,0,0,0,.44-.24,3.16,3.16,0,0,0,1.45-1.85,6,6,0,0,0,.24-1.21c.08-.54.11-1.1.23-1.67,0-.17,0-.15.05,0s.26.39.4.7a4.3,4.3,0,0,1,.19,3.73,4.94,4.94,0,0,1-1.58,2.1,3.27,3.27,0,0,1-3,.33,3,3,0,0,1-1.43-1.14,4.82,4.82,0,0,1-.69-2.31,7.82,7.82,0,0,1,0-1.68c0-.12,0-.24,0-.36.06-.45.14-.6.14-.7v-.06a2.58,2.58,0,0,0,.21.45c.2.48.42,1,.63,1.47a11.53,11.53,0,0,0,.58,1.25,4.92,4.92,0,0,0,.49.66,1.3,1.3,0,0,0,.42.31Z"/><path class="cls-1" d="M298.05,254.59c-3.6-14.39-24.59-29.48-42.27-17.47-.22.15-11.26-5-20.27-2.47-12.1,3.34-18.32,13.56-21.18,25.17a53.56,53.56,0,0,0-1.23,17.62c.56,6.24,3.81,14.09-.95,19.45-5.83,6.57-11.1,16.85-7.52,25.66,4.38,10.81,17,14.24,28,12.07a67.2,67.2,0,0,1,5.23-8.62c8.2-11.25,18.44-16.79,32-10.56,7.55,3.46,11.79,11.42,14.93,19.72,16.74-4.33,11.22-20.1,11.22-20.1-3.4-10.6-2.15-20.69,1.14-31.06A55.93,55.93,0,0,0,298.05,254.59ZM274.35,281a2.47,2.47,0,0,0-1.6,1.94c-1.34,8-4.55,19-11.72,23.4-17.47,10.65-25.37-26.71-27.24-40.48,4.69.29,14.88.17,22.14-8.32,0,0,5.37,15.65,14.35,14,2.83-4.77,10.53-5.93,11,1C281.59,277.82,276.79,280.18,274.35,281Z"/><path class="cls-1" d="M245.35,266a29.85,29.85,0,0,1-6.25,1.13c-1,.09-2.11.1-3.16.09h-.61s-.11,0-.1,0v.25l.09.64.23,1.49c.16,1,.32,2,.51,3q.53,3,1.2,5.91c.65,2.87,1.46,5.69,2.31,8.48a56.24,56.24,0,0,0,6.15,14,16.6,16.6,0,0,0,5.15,5.26,8.25,8.25,0,0,0,6.87.82,13.56,13.56,0,0,0,5.54-3.44,22.28,22.28,0,0,0,3.86-5.44,41.66,41.66,0,0,0,3.09-8.1c.41-1.39.74-2.81,1.07-4.23l.46-2.14.11-.54c0-.17.07-.35.14-.61a3.24,3.24,0,0,1,.69-1.26,2.11,2.11,0,0,1,1.09-.69c.27,0,.41,0,.42.11s-.38.62-.6,1.3a2.34,2.34,0,0,0-.11,1.13c0,.56,0,1.19,0,1.87a23.25,23.25,0,0,1-.73,4.65,47.3,47.3,0,0,1-3.21,8.74,23.87,23.87,0,0,1-5.74,7.64,15.3,15.3,0,0,1-2,1.46,19.76,19.76,0,0,1-2.2,1.12,11.83,11.83,0,0,1-5,.93A10.38,10.38,0,0,1,249.8,308a15,15,0,0,1-3.68-3.22,28.86,28.86,0,0,1-3.25-4.69,48.21,48.21,0,0,1-2.53-5.09,81.53,81.53,0,0,1-3.72-10.69c-1.1-4-2-8-2.71-12l-.5-3-.24-1.59-.33-2.39,0-.15V265h.38l.6,0,1.14.05.55,0h1.22c1,0,2-.06,3-.16a26.94,26.94,0,0,0,7.11-1.7A22.43,22.43,0,0,0,253,259.5l.64-.57.34-.3c.18-.17.31-.32.46-.48.6-.62,1.2-1.32,1.77-1.86l.63,1.74c.1.29.22.57.33.84l.3.72c.32.73.66,1.45,1,2.15a30.64,30.64,0,0,0,2.44,4.05,17,17,0,0,0,3.16,3.39,8.27,8.27,0,0,0,4,1.82,6.31,6.31,0,0,0,1.77,0c.16-.13.19-.27.47-.65s.51-.6.78-.89a8.93,8.93,0,0,1,4.09-2.31,6.91,6.91,0,0,1,2.45-.14,5,5,0,0,1,2.35,1,6,6,0,0,1,2.13,4.41,7.75,7.75,0,0,1-.7,4.22,8.63,8.63,0,0,1-2.07,2.65,8.9,8.9,0,0,1-1.86,1.24,4.15,4.15,0,0,1-2.35.53,3.08,3.08,0,0,1-.77-.11c-.29-.14,0-.44.7-.91a20.76,20.76,0,0,0,3-2.23,6.66,6.66,0,0,0,1.78-2.81,6.54,6.54,0,0,0,.05-3.29,3.25,3.25,0,0,0-1.6-2.29,4.06,4.06,0,0,0-2.91-.12,6.56,6.56,0,0,0-2.84,1.73l-.55.63a11.74,11.74,0,0,1-.94,1.29l-.95.12-.48.06h-.32a6.3,6.3,0,0,1-1.23,0,9.64,9.64,0,0,1-4.46-1.69,15.9,15.9,0,0,1-3.32-3,27.65,27.65,0,0,1-3.28-4.91c-.47-.85-.9-1.73-1.3-2.61l-.26-.59h0v0h0l-.17.15-.66.59a23,23,0,0,1-2.82,2.13,24.79,24.79,0,0,1-6.38,2.94Z"/><path class="cls-1" d="M243.49,321.45a51.74,51.74,0,0,0-8.16,10.93l-.84,1.51-.45.84-.38.72c-.08.11-.1.28-.22.33l-.4.06-2.19.35-1.81.18a34.13,34.13,0,0,1-7.28-.24,25.1,25.1,0,0,1-13.25-6,19.87,19.87,0,0,1-4.38-6,17,17,0,0,1-1.76-7.22,25,25,0,0,1,2.22-10.41,38.46,38.46,0,0,1,2.46-4.67,43,43,0,0,1,3.06-4.27c.24-.31.5-.59.75-.89s.51-.59.7-.84a9,9,0,0,0,1.08-1.67,10.12,10.12,0,0,0,1-4,38.82,38.82,0,0,0-.93-8.7,45.27,45.27,0,0,1-.62-4.57c-.11-1.53-.17-3.06-.17-4.59a54.93,54.93,0,0,1,.78-9.14,48,48,0,0,1,6.39-17.14,30.39,30.39,0,0,1,6.09-7,26.32,26.32,0,0,1,8.05-4.56c1-.28,1.87-.64,2.88-.86a21.78,21.78,0,0,1,3-.44,29,29,0,0,1,6,.22,43.46,43.46,0,0,1,5.79,1.22c1,.27,1.88.56,2.81.87l1.38.48.5.17a.43.43,0,0,0,.16,0l.15-.1.8-.51a10.71,10.71,0,0,1,1-.56c.67-.36,1.33-.72,2-1a24.5,24.5,0,0,1,9.47-2.15,27.3,27.3,0,0,1,5.26.4,32,32,0,0,1,5.07,1.41,34.87,34.87,0,0,1,4.74,2.26,34.13,34.13,0,0,1,8.11,6.59,29.08,29.08,0,0,1,5.56,8.85c.77,2.06.77,3.05.57,3s-.72-1-1.61-2.52a39.25,39.25,0,0,0-4.22-5.89,40.73,40.73,0,0,0-7.6-6.76,28.05,28.05,0,0,0-14-5.06,22.83,22.83,0,0,0-7.36.77,23.3,23.3,0,0,0-3.5,1.28c-.57.23-1.1.57-1.66.84-.28.14-.54.31-.81.48l-1.08.67-.35.14-.18.06-.08,0c0,.1,0-.12,0-.09h-.07a1.42,1.42,0,0,1-.36,0,.72.72,0,0,1-.38-.05l-.38-.13-.27-.09-.38-.14-1.5-.53c-1-.33-2-.64-3-.91a37.19,37.19,0,0,0-6.13-1.16,23.37,23.37,0,0,0-6.09.14c-.5.09-1,.2-1.47.32l-1.47.46a11,11,0,0,0-1.45.53c-.47.2-1,.36-1.41.6a25.35,25.35,0,0,0-5.19,3.3,27.12,27.12,0,0,0-4.27,4.49,38.41,38.41,0,0,0-5.71,11.21A48.76,48.76,0,0,0,214,268.69a55,55,0,0,0-.07,6.29,41.72,41.72,0,0,0,.74,6.27,60.66,60.66,0,0,1,1,6.49,14.8,14.8,0,0,1-.87,6.8,11.12,11.12,0,0,1-1.87,3c-.69.79-1.36,1.6-2,2.43a38.75,38.75,0,0,0-3.37,5.29c-2.12,4-3.5,8.58-3,13a15.86,15.86,0,0,0,2.14,6.27,16.86,16.86,0,0,0,4.41,5,23.9,23.9,0,0,0,12.62,4.66,32.22,32.22,0,0,0,6.87-.14l1.44-.23h.1l0-.09.09-.17.4-.75c.57-1,1.16-2.08,1.77-3.1a53.94,53.94,0,0,1,5.15-7.17,36.83,36.83,0,0,1,6.45-6.08,23.21,23.21,0,0,1,8.09-3.8,21.68,21.68,0,0,1,8.93-.21,25,25,0,0,1,3.28.83c.53.18,1.08.31,1.59.53l1.56.65a20.59,20.59,0,0,1,5.74,3.61A33.74,33.74,0,0,1,282.94,329c.48,1,.93,2,1.35,3l.59,1.44.19.5.1.24s0,.12.06.09l.11,0,1.08-.35a8.61,8.61,0,0,0,1.49-.56,14.57,14.57,0,0,0,2.77-1.52,12.61,12.61,0,0,0,5.58-10.63,18.07,18.07,0,0,0-.52-4.86c-.09-.4-.2-.79-.32-1.16l-.37-1.24c-.26-.82-.44-1.65-.66-2.48a45,45,0,0,1-1.1-10.15,55.18,55.18,0,0,1,1.11-10.1c.34-1.66.73-3.31,1.19-4.94s1-3.23,1.37-4.81a54.25,54.25,0,0,0,1.43-8.53,61.42,61.42,0,0,0,.23-6.84c0-1.89-.13-3.41-.22-4.66a51.65,51.65,0,0,1-.25-5.18,13.41,13.41,0,0,1,0-1.61c.08-.56.5.22,1.07,2.17a42.26,42.26,0,0,1,1.36,9.23,55,55,0,0,1-2.25,18.36,59.27,59.27,0,0,0-2.93,17.85,40.27,40.27,0,0,0,1.08,9c.18.73.35,1.47.58,2.19l.32,1.08c.14.43.25.84.35,1.26a21.17,21.17,0,0,1,.6,5,17.1,17.1,0,0,1-.75,5.09,12.86,12.86,0,0,1-1,2.43,11.74,11.74,0,0,1-.65,1.15l-.79,1.06-.4.53-.47.47-1,.91a6.06,6.06,0,0,1-1,.8l-1.08.74a19.9,19.9,0,0,1-4.67,2.08l-1.67.54-.84.28s-.08,0-.1,0l0-.09-.08-.19-.14-.38-.58-1.5-.44-1.11c-.44-1.07-.89-2.13-1.38-3.17a43.93,43.93,0,0,0-3.32-6,21,21,0,0,0-10.06-8.37,30.72,30.72,0,0,0-3.18-1.11c-.54-.14-1.09-.24-1.63-.36a10.32,10.32,0,0,0-1.65-.27,22.73,22.73,0,0,0-3.3-.16l-1.63.16c-.55,0-1.08.21-1.62.3a21,21,0,0,0-6.11,2.51,31.51,31.51,0,0,0-5.26,4.22Z"/><path class="cls-1" d="M180.76,403.94a5.28,5.28,0,0,1-3.19,1.41.32.32,0,0,1-.2-.6c.58-.44,1.12-.92,1.68-1.4.18-.13,1.65-1.28,3.32-2.72a27.73,27.73,0,0,1,4.89-3.5c2.18-1,4.4-1.89,6.63-2.79l6.78-2.75a37.09,37.09,0,0,0,6.23-3.46c.89-.57,1.77-1.17,2.66-1.76a74.92,74.92,0,0,0,8.6-6.83,14.47,14.47,0,0,0,1.32-1.27c.33-.36,2.32-2.23,4.28-4.2s3.9-4,4.35-4.46a94.24,94.24,0,0,0,6.42-7.14,11.84,11.84,0,0,1,.87-1.05,13.06,13.06,0,0,0,1.78-2.33,23.53,23.53,0,0,0,2-3.51,5.59,5.59,0,0,0,.57-1.75c0-.53.31-.33.36-.1.15.63.23.13.33,0s.08-.06.11,0a3.21,3.21,0,0,1-.06,1.46,12.63,12.63,0,0,1-1,2.83,33.4,33.4,0,0,1-2.42,4.22c0,.05-.47.68-1.16,1.61s-1.63,2.15-2.63,3.36c-2,2.42-4.18,4.84-4.63,5.33s-1,1-1.48,1.48c-.12.12-1.79,1.88-3.52,3.59s-3.52,3.38-3.67,3.5a48.43,48.43,0,0,1-4.5,3.71,10.39,10.39,0,0,0-.92.72,68.19,68.19,0,0,1-8.27,5.76,31.64,31.64,0,0,1-4.58,2.38c-.29.12-.58.21-.87.31l-1.08.4c-3.7,1.52-7.45,2.94-11.12,4.51a14.88,14.88,0,0,0-2.67,1.44,31.07,31.07,0,0,0-2.58,1.87C182.89,402.6,181.17,403.59,180.76,403.94Z"/><path class="cls-1" d="M163.41,396.08c0,.08-.12.16-.09.26a.43.43,0,0,0,.17.22,3.68,3.68,0,0,0,.39.3c.14.1.29.22.5.35l.92.48c.4.21.27.62-.27.59-.26,0-.52,0-.78-.08a9.85,9.85,0,0,1-1.13-.23,4.07,4.07,0,0,1-1.87-.94,1,1,0,0,1-.23-.31,1,1,0,0,1-.13-.54,1.36,1.36,0,0,1,.38-.82,3.76,3.76,0,0,1,2.8-1.12,4.64,4.64,0,0,1,.64,0h.44l.91.06c.61,0,1.31.16,1.86.23a18.21,18.21,0,0,0,6.25-.72,51.14,51.14,0,0,0,9-3.31,98.74,98.74,0,0,0,8.68-4.8c2.87-1.71,5.71-3.44,8.48-5.26L204,378c1.05-.7,2.08-1.43,3.1-2.17a28.64,28.64,0,0,0,2.8-2.38,38.58,38.58,0,0,0,4.71-5.75,22.66,22.66,0,0,0,1.33-2.12c.31-.57,2.29-3.79,4.08-7.15s3.54-6.86,4-7.65c2.09-3.91,4.1-7.89,6.16-11.84a17.35,17.35,0,0,1,.89-1.67,36.72,36.72,0,0,0,2-3.6c.87-1.7,1.77-3.4,2.73-5a26.74,26.74,0,0,1,1.56-2.36c.48-.7.48-.17.36.1-.36.79.1.25.23.24s.11,0,.11,0a3.9,3.9,0,0,1-.21.45l-.56,1.15c-.46.95-1.06,2.23-1.68,3.54l-2.72,5.94L225,354.06c-.41.85-.89,1.69-1.34,2.53-.12.2-1.58,3.19-3.25,6.12s-3.47,5.78-3.63,6a34.07,34.07,0,0,1-5.24,6.28l-1.21,1.12a58.46,58.46,0,0,1-5.56,4.21c-1.9,1.3-3.84,2.54-5.79,3.75s-4,2.46-6,3.65c-.36.22-.73.41-1.1.62s-.93.5-1.39.78a59.49,59.49,0,0,1-15.41,6.69,24.4,24.4,0,0,1-4.43.7,14.51,14.51,0,0,1-2.83-.1c-.88-.13-1.43-.25-1.8-.28l-1.59-.21a1.53,1.53,0,0,0-1,.13Z"/><path class="cls-1" d="M285,338a43,43,0,0,1-2.3-7.7c-.15-.74.28-.8.68,0,.76,1.58,1.48,3.19,2.17,4.85.21.5,1.81,4.79,3.57,9.65s4,10.12,5.09,12.78a68.76,68.76,0,0,0,3.87,7.37,50.88,50.88,0,0,0,4.92,6.69c3.6,4.36,7.65,8.44,12.83,10.16.64.23,1.3.39,1.95.57s1.32.29,2,.35a20,20,0,0,0,2,.17c.68,0,1.37.05,2.12.05a73.61,73.61,0,0,1,8.76.57,38.8,38.8,0,0,1,7.69,1.78,23,23,0,0,1,6.13,3.19,12.15,12.15,0,0,1,1.35,1.14,12.52,12.52,0,0,1,1.21,1.31l.37.49c.15.21.32.42.46.62l.33.61a3.51,3.51,0,0,1,.15.5l.26,1,.13.49c.08.19,0,.27-.12.43a1.24,1.24,0,0,1-.68.37,2.66,2.66,0,0,1-1.12,0,12.57,12.57,0,0,1-1.42-.38l-1.15-.35c-1.05-.33-2.08-.65-3.12-.94a39.29,39.29,0,0,0-6.26-1.28,26,26,0,0,0-4.23-.12c-.56,0-2.44.09-5,.33s-5.78.69-9.23.85a28.76,28.76,0,0,1-9.61-1.51,34.66,34.66,0,0,1-5.26-2.22,40,40,0,0,1-9.53-6.89,60.88,60.88,0,0,1-7.57-8.87,28.16,28.16,0,0,1-1.8-2.76c-1.12-2.07-2.32-4.12-3.37-6.28-1.49-3-2.54-6.1-3.95-9-.67-1.47-1.28-2.95-1.9-4.42s0-.75.26-.31c.72,1.29.31.16.34,0s0-.13.09-.08a7.7,7.7,0,0,1,.42.76l1,2,1.44,2.79c.52,1,1,2.17,1.55,3.31a68.26,68.26,0,0,0,3.13,6.29c1,1.76,1.85,3.06,2.13,3.49.07.1,1,1.63,2.59,3.76a60.47,60.47,0,0,0,6.48,7.33,37.49,37.49,0,0,0,8.14,6.05,36,36,0,0,0,5.39,2.46,38.22,38.22,0,0,0,4.55,1.34,24.06,24.06,0,0,0,3.7.46,54.87,54.87,0,0,0,7.7-.56c2.85-.33,5.74-.58,8-.62a37.39,37.39,0,0,1,4.09.1,40,40,0,0,1,6.94,1.32c1.12.31,2.23.66,3.31,1l.41.14.2.06h0l0,0,.17.09c.09,0,0-.14-.07-.2a5.8,5.8,0,0,0-.6-.71c-.32-.31-.63-.63-1-.93l-1.08-.83c-.36-.27-.78-.48-1.16-.73a23.57,23.57,0,0,0-5.16-2.17,49.87,49.87,0,0,0-11.34-1.78c-2-.13-3.89-.08-6-.18A23.29,23.29,0,0,1,315,384a15.43,15.43,0,0,1-2.09-.89,11.82,11.82,0,0,1-1.27-.67c-.41-.25-.83-.46-1.22-.73C306.16,379,303,375.26,300,371.57a56.16,56.16,0,0,1-7.49-12.36c-.51-1-1.59-4-2.75-7s-2.14-6.11-2.58-7.29S285.45,339.18,285,338Z"/><path class="cls-1" d="M340.32,412.81c-13.21,8.63-29.53,14.94-44.51,19.54-3.07.95-52.22,12.85-57.27,14.3-8.54,2.48-22.16,5.55-29.76-.91-8.16-6.92,11.51-2.84,16.5-7.27,2.91-2.6,7.17-1.94,10.21-1a7.82,7.82,0,0,0,7.37-1.41c.83-.68,15.74-12.62,22.84-17.69,2.61-1.86,5.27-3.68,7.95-5.44,7.25-4.72,23-12.7,23.21-12.79,14.26-6.29,29.26-9.69,44.66-7.73a10.4,10.4,0,0,1,7,3.84C353.71,403,345.42,409.48,340.32,412.81Z"/><path class="cls-1" d="M255.88,427.51,246.25,435l-2.39,1.9a9.44,9.44,0,0,1-3,1.71,9,9,0,0,1-3.49.48,9.4,9.4,0,0,1-1.75-.29c-.62-.17-1-.31-1.47-.43a11.49,11.49,0,0,0-5.46-.34,5.91,5.91,0,0,0-2.3,1.06,9.92,9.92,0,0,1-1.37,1,8.85,8.85,0,0,1-1.59.7,27.25,27.25,0,0,1-6.29,1.13c-2.06.18-4.1.27-6.07.48a15.65,15.65,0,0,0-2.05.34,3.89,3.89,0,0,0-.74.23.4.4,0,0,0-.21.19c-.29.06.94,1.42,2,2.15a16.14,16.14,0,0,0,7.71,2.94c5,.66,10.18-.07,15.21-1.19,2.54-.55,5-1.32,7.59-2l7.65-1.88,30.58-7.39c4.52-1.09,9.05-2.21,13.56-3.35,1.12-.29,2.25-.58,3.33-.89l3.31-1c2.2-.72,4.39-1.45,6.56-2.23a187.21,187.21,0,0,0,32.17-14.76c3.13-1.9,3-1.19.67.95a49.43,49.43,0,0,1-5.26,3.91,72.45,72.45,0,0,1-8.18,4.5c-5.54,2.59-11.2,4.88-16.94,6.93q-4.31,1.53-8.67,2.91c-1.47.45-2.86.93-4.42,1.32l-4.43,1.11c-11.8,2.89-23.63,5.68-35.52,8.47-3.55.83-7.14,1.69-10.74,2.58-1.79.45-3.62.9-5.38,1.38s-3.63,1-5.48,1.43A55,55,0,0,1,222,450.58c-1,0-1.94,0-2.9-.07a25.88,25.88,0,0,1-2.9-.39,22.17,22.17,0,0,1-2.86-.72,17.25,17.25,0,0,1-2.71-1.21,16.14,16.14,0,0,1-2.71-1.87,10.39,10.39,0,0,1-1.19-1.2,4.26,4.26,0,0,1-.58-.86,2.78,2.78,0,0,1-.32-1.18,2.22,2.22,0,0,1,1.34-1.89,5.14,5.14,0,0,1,.94-.37c.28-.08.55-.14.83-.2a29.67,29.67,0,0,1,3.16-.4c2.07-.17,4.11-.27,6.12-.49a16.93,16.93,0,0,0,5.61-1.38,4.3,4.3,0,0,0,.55-.35l.24-.18.34-.27a7,7,0,0,1,1.47-.92,8.78,8.78,0,0,1,3.29-.83,17,17,0,0,1,6.34,1,6.93,6.93,0,0,0,5.3-.71,7.62,7.62,0,0,0,1.16-.81l1.21-1,2.42-1.91c4-3.13,8-6.25,12-9.32,2-1.53,4-3,6.09-4.54s4.19-2.87,6.28-4.31a107.45,107.45,0,0,1,9.82-6.06c3.35-1.88,6.74-3.69,10.14-5.46l5.11-2.64.65-.32.35-.17.33-.14,1.33-.57c.87-.38,1.77-.73,2.66-1.08a103.36,103.36,0,0,1,10.91-3.64,84,84,0,0,1,17.46-2.92,74.32,74.32,0,0,1,8.83,0c.74,0,1.47.13,2.21.19s1.46.12,2.25.28a11.84,11.84,0,0,1,4.34,1.78,9.61,9.61,0,0,1,2.91,3,9.12,9.12,0,0,1,.95,1.93,8,8,0,0,1,.33,2.18,8.24,8.24,0,0,1-.21,2,13.22,13.22,0,0,1-.6,1.65,12.4,12.4,0,0,1-1.57,2.52,18.62,18.62,0,0,1-3,3.06,13.65,13.65,0,0,1-4,2.38,8.93,8.93,0,0,1-1.34.44c-.51.07,0-.49,1.33-1.62.65-.56,1.49-1.28,2.45-2.17a24.13,24.13,0,0,0,3-3.3c1.49-1.94,2.3-4.28,1.64-6.37-.09-.26-.23-.51-.33-.77s-.1-.26-.17-.38l-.25-.35-.48-.72a7.09,7.09,0,0,0-.58-.65,8.71,8.71,0,0,0-2.91-1.91,9.84,9.84,0,0,0-1.7-.52,14,14,0,0,0-1.85-.25l-2-.19-2-.11a68.39,68.39,0,0,0-8,.07,91.81,91.81,0,0,0-31.23,8.13l-5.4,2.78-5.43,2.88c-3.61,2-7.2,3.93-10.67,6.05-1.71,1-3.39,2.25-5.08,3.39s-3.4,2.28-5.06,3.47c-3.3,2.4-6.57,4.9-9.82,7.42Z"/><path class="cls-1" d="M273.65,413c-2.68,1.76-5.34,3.58-7.95,5.44-7.1,5.07-13.9,10.43-20.35,15.66-13.94-.85-27.68-4.23-39.93-10.85-8.26-4.46-26.25-16.23-16.8-25.54,4.18-2,8.76-3.14,13-5.1C223.73,387.27,264.92,407.63,273.65,413Z"/><path class="cls-1" d="M199.74,394.83c-2.46.95-4.93,1.71-7.29,2.6-.59.22-1.18.45-1.76.69l-.85.38-.42.19s0,0-.08.05a7.64,7.64,0,0,0-1.81,2.71,7.45,7.45,0,0,0,.94,6.39,24.84,24.84,0,0,0,4.72,5.63,61.82,61.82,0,0,0,8.9,6.55A90.6,90.6,0,0,0,239,432.71c1.45.19,2.91.33,4.36.45a10.69,10.69,0,0,0,1.8.08l1.55-1.25,6.88-5.5c3-2.33,5.92-4.64,9-6.88s6.18-4.3,9.33-6.35c3.95-2.5.15,2.52-6.85,7.44-6.16,4.49-12.17,9.18-18.16,13.95l-.92.74-.14.11h-.17l-.35,0-.65-.05-1.45-.12c-1-.08-1.93-.2-2.9-.29-1.93-.23-3.85-.5-5.77-.83a96.85,96.85,0,0,1-11.38-2.67,89.08,89.08,0,0,1-25.79-12.1,53.22,53.22,0,0,1-6.15-5,24.07,24.07,0,0,1-4.95-6.37,10.4,10.4,0,0,1-1.15-4.06,8.07,8.07,0,0,1,.91-4.21c.18-.3.34-.63.54-.92l.63-.85.74-.79a1.28,1.28,0,0,1,.26-.26l.35-.15.45-.21c1.21-.55,2.44-1,3.67-1.47l4.53-1.59c.74-.27,1.49-.54,2.22-.84l1.09-.44L201,392l.34-.15.36-.08a39.34,39.34,0,0,1,9.72-.75,77.64,77.64,0,0,1,14.49,2.08c4.74,1.09,9.39,2.5,14,4,7.1,2.41,14,5.05,20.72,8.08,1.49.67,2.95,1.32,4.43,2,5.48,2.68,7.1,3.83,7.95,5a5.89,5.89,0,0,1,.54.78c.26.68-2-.32-6-2.24-5.91-2.84-12.1-5.53-18.46-8a181.14,181.14,0,0,0-19.57-6.55c-2.48-.65-5-1.25-7.49-1.72a72.27,72.27,0,0,0-7.57-1.1,44.58,44.58,0,0,0-7.57-.13c-.63,0-1.25.09-1.86.17a16,16,0,0,0-1.84.29l-.91.17-.21,0h0l-.41.18c-.62.28-1.24.53-1.86.77Z"/><path class="cls-1" d="M296.86,400.18c-.23.09-.48.19-.71.3A165.05,165.05,0,0,0,273.65,413a187.56,187.56,0,0,0-30.31-14.47l2.49.58c7.11,1.05,16.14,4,22.75,3.43,2.37-.21,14.63-4.42,16.23-5.12.33-.14,1.93-1.12,2.28-1Z"/><path class="cls-1" d="M253.45,401.94c-2.62-.6-5.17-1.2-7.8-1.64l-2.41-.59-.07,0h0l0-.22c.06-.23.09-.38.13-.57l0-.28c.17-.49-.36.93.43-1.24h0l0,0,.07,0,.29.11.56.22,1.14.45q2.25.9,4.49,1.86c2,.85,4,1.68,5.94,2.6q5.18,2.44,10.19,5.19c1.67.91,3.33,1.85,5,2.83l1.23.74.88.55c.09.11.18,0,.27-.07l.41-.25,1.21-.76c2.87-1.77,5.77-3.54,8.68-5.22a84.37,84.37,0,0,1,11.55-5.82c2.55-.93.19,2.24-4.14,4.43-3.86,2-7.66,4.07-11.41,6.28l-2.8,1.68-1.4.85-1.92,1.2-.33.2-.33-.2-.66-.41-.92-.57-1.38-.86c-.93-.58-1.87-1.13-2.82-1.7a147.17,147.17,0,0,0-14.38-7.19q-3.09-1.4-6.23-2.69l-3.15-1.25-.4-.15-.19-.08-.1,0H243c0-.73,0,1.62,0-1.63l.47-.07h.07l.86.2,1.6.4c1.36.22,2.77.5,4.13.79,3.59.78,7.13,1.68,10.7,2.28a30.09,30.09,0,0,0,8.05.49,74.11,74.11,0,0,0,7.85-2.27q3-1,6-2.15l1.45-.57.33-.15.29-.16.7-.4.37-.19.2-.1.29-.12a1.52,1.52,0,0,1,1.2-.05l1.59.57,2.62.93c3.25,1.22,4.23,1.75,4.72,2.55a2.45,2.45,0,0,1,.32.54c.16.53-1.3.36-3.72-.43q-2.69-.88-5.43-1.85l-.61-.21s-.06,0-.08,0l0,0-.28.14-.59.33a7,7,0,0,1-.76.4l-.73.3-1.4.54c-3.72,1.38-7.49,2.67-11.4,3.79-.73.21-1.47.4-2.27.57l-.69.1c-.22,0-.41,0-.61,0-.4,0-.8.05-1.19,0a32.42,32.42,0,0,1-4.65-.33c-3-.41-6-1.07-8.88-1.71Z"/><path class="cls-1" d="M240.08,373.76c-.41-3.24-.86-6.48-1.37-9.71l-.62-3.53-.13-.78,0-.19v-.17a1.59,1.59,0,0,0-.07-.46l-.54.27-.14.07-.24.11-.75.34a27.84,27.84,0,0,1-6.2,2,35.48,35.48,0,0,1-5.69.75,21,21,0,0,1-7.32-.61c-.76-.25-.48-.75.23-1.14a6,6,0,0,1,3.18-.61,33.36,33.36,0,0,0,13.78-1.69c.65-.26,1.31-.55,2-.84l3.1-1.78.09,0,0,.12.05.23.09.46.18.93.35,1.79c.13.75.27,1.49.4,2.23.55,3.27,1,6.55,1.48,9.83.29,2,.54,4,.79,6.07.39,3.06.65,6.15,1,9.21.22,2.37.53,4.7.68,7.07,0,.53.07,1,.09,1.57,0,2-.19,2.6-.76,3a1.9,1.9,0,0,1-.4.25c-.44.15-.78-.65-.85-2-.3-4.12-.71-8.48-1.18-12.87-.37-3.26-.73-6.54-1.19-9.8Z"/><path class="cls-1" d="M280.11,375c-.38-2.93-.74-5.85-1.05-8.78-.12-1.07-.29-2.13-.4-3.19L278,356l2.28.78,1,.32.41.12.33.09c.89.23,1.79.42,2.69.56a14.11,14.11,0,0,0,4.77-.13,16.82,16.82,0,0,0,5.47-2.4c.53-.33.84.13.72.91a3.6,3.6,0,0,1-2,2.5,14.73,14.73,0,0,1-7,1.42,19,19,0,0,1-3.47-.43,13,13,0,0,1-2.56-.76l-.35-.17a10.73,10.73,0,0,0,.16,1.79c.13,1.13.27,2.27.4,3.41.32,2.93.65,5.86,1.05,8.78q.35,2.7.78,5.38c.45,2.71.91,5.43,1.57,8.07a52.71,52.71,0,0,0,1.94,5.93c.18.41.37.8.54,1.22a15.47,15.47,0,0,1,.61,1.65,1.32,1.32,0,0,1-.15,1,3.15,3.15,0,0,1-.23.41c-.3.38-.94-.08-1.67-1.24a42.59,42.59,0,0,1-3.73-11.33c-.62-2.92-1.08-5.88-1.54-8.82Z"/><path class="cls-1" d="M172.41,397a3.09,3.09,0,0,1-2.1,2.27q-4.42,1.67-8.9,3.17c-2.57.87-5.18,1.61-7.76,2.45-4.43,1.43-8.86,2.9-13.28,4.36-1.31.42-2.63.84-3.93,1.28s-2.48.89-3.72,1.33a3.11,3.11,0,0,1-.63.21.61.61,0,0,1-.61-1c.06-.12.11-.3.21-.33,1-.34,1.51-1.27,2.55-1.59,1.9-.58,3.74-1.38,5.61-2.07q1.13-.42,2.28-.75c1-.28,2-.51,3-.8,2.68-.77,24.93-8.17,25.53-8.33A14.81,14.81,0,0,1,172.41,397Z"/><path class="cls-1" d="M168,402.21a10.44,10.44,0,0,1,1.49-.76l.39-.13c.24,0,.17-.07-.21-.11-.08.1-.07.43-.12.56a5.86,5.86,0,0,1-1.54,2.21,14.79,14.79,0,0,1-2.78,2.2.71.71,0,0,0-.13,1.18,1.54,1.54,0,0,0,1.66-.14,13.73,13.73,0,0,0,4.64-4.42c.52-.89,1.14-2.5-.13-3.05s-3.16.46-4.29,1.12c-1.36.78-.12,2,1,1.34Z"/><path class="cls-1" d="M170.39,404.16c.37-.27.86-.52,1.21-.81.4-.11.43-.18.08-.23a.45.45,0,0,0-.25-.07s-.15.49-.17.53a8.7,8.7,0,0,1-1.47,2.13,36.75,36.75,0,0,1-2.54,2.75.64.64,0,0,0,.29,1.08,1.63,1.63,0,0,0,1.64-.44,24.82,24.82,0,0,0,3.95-4.67c.42-.67,1-1.74.38-2.46-1.21-1.39-3.63.45-4.64,1.18-1.28.91.62,1.66,1.52,1Z"/><path class="cls-1" d="M173,404.36c.12-.11,1.12-.95,1-1,.17.11,0,.64-.05.77a5.62,5.62,0,0,1-1.1,1.75,14.09,14.09,0,0,0-2.09,2.49c-.5,1,1,1.89,1.51.88a10.36,10.36,0,0,1,1.64-1.93,7.71,7.71,0,0,0,1.76-2.84,2.27,2.27,0,0,0-.68-2.55c-1.16-.73-2.46.45-3.22,1.23s.44,2,1.23,1.23Z"/><path class="cls-1" d="M166.72,400.5c.35-.07.41,0,.25.2a4.42,4.42,0,0,1-.69.61,37.86,37.86,0,0,1-4.29,2.55c-1.37.77-.14,2.1,1,1.44,1.36-.76,2.74-1.52,4.06-2.37a6.92,6.92,0,0,0,1.84-1.52,1.82,1.82,0,0,0,.39-1.58c-.38-1.29-2-1.21-3.06-1-1.46.31-1,2,.45,1.66Z"/><path class="cls-1" d="M253.67,341.33c0-1.64,0-3.27-.11-4.89,0-.59-.13-1.18-.2-1.76a29.09,29.09,0,0,0-1.09-6.11,19.79,19.79,0,0,0-1.05-2.57,18.71,18.71,0,0,1-1.49-3.28c-.21-.73,1.83-.63,2.43.62a23.71,23.71,0,0,1,2.42,7.2c.19,1.52.54,3,.69,4.59s.21,3.38.23,5.05v3.09c0,1.56,0,3.12,0,4.65,0,1.2.23,2.36.38,3.52,0,.26.09.51.12.77.1,1,0,1.27-.47,1.52a2.59,2.59,0,0,1-.33.17c-.37.14-.72-.23-.9-.94a31.6,31.6,0,0,1-.68-6.63c0-1.66,0-3.33,0-5Z"/><path class="cls-1" d="M265.43,339.11c0-1.77,0-3.51-.08-5.26,0-.63-.1-1.26-.14-1.9a65,65,0,0,0-.61-6.68,23.83,23.83,0,0,0-.65-2.9c-.34-1.22-.83-2.38-1.05-3.63-.15-.79,1.91-.46,2.38,1a31.19,31.19,0,0,1,1.39,7.9c.08,1.61.33,3.24.43,4.87.1,1.79.14,3.57.16,5.35l.05,3.27c0,1.65.08,3.3.27,4.91a27.16,27.16,0,0,0,.77,3.65l.23.78c.24,1,.23,1.31-.21,1.66a1.28,1.28,0,0,1-.29.23c-.34.21-.76-.12-1.06-.86a23.83,23.83,0,0,1-1.43-7c-.14-1.8-.16-3.6-.21-5.37Z"/><path class="cls-1" d="M255.53,353.49a2.19,2.19,0,0,0-1,.22.85.85,0,0,0-.48.74c0,.89.25,2,1.25,2.24a1.47,1.47,0,0,0,1.69-.82,1.73,1.73,0,0,0,.09-1.12,1.79,1.79,0,0,0-1-1.15A1.38,1.38,0,0,0,255.53,353.49Z"/><path class="cls-1" d="M257.39,357.25a2.54,2.54,0,0,1-2.52.32,2.16,2.16,0,0,1-.82-.49,2.5,2.5,0,0,1-.62-1.31,3.23,3.23,0,0,1-.06-.61,5.75,5.75,0,0,1,0-.72,1.74,1.74,0,0,1,.53-1.14,2.22,2.22,0,0,1,.72-.46,1.64,1.64,0,0,1,.44-.09,1,1,0,0,1,.38.07c.31.12-.22,1.93-.08,1.95s0,0-.05,0-.15-.06-.2.35a.66.66,0,0,0,.24.67.65.65,0,0,0,.66.15.68.68,0,0,0,.4-.3.92.92,0,0,0,.06-.92.79.79,0,0,0-.62-.34h-.13c-.09,0-.13-.12-.15-.62l0-.34c0-.38.12-.72.5-.76a2.34,2.34,0,0,1,2.35,2.16,2.75,2.75,0,0,1-.16,1.31,2.79,2.79,0,0,1-.81,1.16Z"/><path class="cls-1" d="M268.08,351.74a2.12,2.12,0,0,0-1,.22.84.84,0,0,0-.49.74c0,.9.25,2,1.25,2.24a1.47,1.47,0,0,0,1.69-.82,1.72,1.72,0,0,0,.09-1.12,1.77,1.77,0,0,0-1-1.15A1.38,1.38,0,0,0,268.08,351.74Z"/><path class="cls-1" d="M269.94,355.5a2.56,2.56,0,0,1-2.52.33,2.3,2.3,0,0,1-.82-.49A2.52,2.52,0,0,1,266,354a3.23,3.23,0,0,1-.06-.61,5.6,5.6,0,0,1,0-.71,1.7,1.7,0,0,1,.53-1.14,2.09,2.09,0,0,1,.72-.47,1.64,1.64,0,0,1,.44-.09,1,1,0,0,1,.38.07c.31.12-.22,1.93-.08,1.95s0,0-.05,0-.15-.05-.2.35a.66.66,0,0,0,.24.67.65.65,0,0,0,.66.15.68.68,0,0,0,.4-.3A.92.92,0,0,0,269,353a.79.79,0,0,0-.62-.34.27.27,0,0,0-.13,0c-.09,0-.13-.13-.15-.63l0-.34c0-.38.12-.72.5-.76a2.34,2.34,0,0,1,2.35,2.16,2.83,2.83,0,0,1-1,2.47Z"/><path class="cls-1" d="M343.8,389.59a10.89,10.89,0,0,1,1.63,1,4.49,4.49,0,0,1,.57.4,18.85,18.85,0,0,1,1.75,1.71l.73.77a6.76,6.76,0,0,1,.82,1.09c.07.12.08.09,0,0s-.33-.15-.56-.28a10.37,10.37,0,0,1-2.26-1.51,14.54,14.54,0,0,0-1.34-.94c-.5-.33-1-.67-1.51-1-.31-.19-.64-.38-1-.55l-.76-.37c-.26-.12-.53-.2-.79-.3-.42-.13-.84-.19-1.26-.31l-.28-.06a4.11,4.11,0,0,1-.54-.16H339s.12,0,.39-.07a6.25,6.25,0,0,1,2.59-.1,7.56,7.56,0,0,1,1.87.6Z"/><path class="cls-1" d="M237.58,268.5c4.59-2.55,11.37-2.5,13.79,3,1.84,4.18-.19,12.63-4,15.43-1.18.87.61,1.47,1.42.88,4.79-3.51,7.4-13.66,3.81-18.58s-11-4.64-15.93-1.88c-1.29.72-.11,1.74.93,1.16Z"/><path class="cls-1" d="M255.69,298.67a4.46,4.46,0,0,1-1,.28,5.11,5.11,0,0,1-1-.05,5.59,5.59,0,0,1-.71-.15,5.09,5.09,0,0,1-1.74-1.43c-.19-.24-.4-.46-.58-.69a3.42,3.42,0,0,1-.51-1c0-.12,0-.08,0,0a3.61,3.61,0,0,0,.56.12,4.59,4.59,0,0,1,1.89.79,5.45,5.45,0,0,0,1.47.41,1.51,1.51,0,0,0,.52,0,2.3,2.3,0,0,0,.69-.19,3.38,3.38,0,0,0,1-.71c.24-.23.42-.51.66-.76l.17-.17a3.53,3.53,0,0,1,.4-.28l0,0a2.56,2.56,0,0,0,0,.33c0,.35,0,.75,0,1.15a4.78,4.78,0,0,1-.38,1.14,5.19,5.19,0,0,1-.58.75,4.3,4.3,0,0,1-.83.6Z"/><path class="cls-1" d="M257.33,269.21a13.87,13.87,0,0,1,13.74-.35c.86.45.17-1.84-.47-2.18a14.62,14.62,0,0,0-14.39.3c-.69.4.47,2.61,1.12,2.23Z"/><path class="cls-1" d="M266.84,389.73q-1.9.18-3.78.18c-.46,0-.91.06-1.36,0-1.6,0-3.18-.17-4.75-.24a18,18,0,0,0-2.08,0,11.76,11.76,0,0,1-2.65.09c-.56-.1,0-1.92,1.07-2a29.16,29.16,0,0,1,5.53.21,24.62,24.62,0,0,0,3.33.06c1.22,0,2.43,0,3.63-.13.75-.05,1.48-.15,2.21-.27.56-.1,1.1-.23,1.65-.35s1.08-.31,1.59-.53.77-.37,1.14-.58l1.07-.69c.16-.1.29-.23.45-.33.57-.39.82-.4,1.23-.07.09.08.19.15.27.23.27.28.19.7-.22,1.09a11.36,11.36,0,0,1-4.51,2.48,23.07,23.07,0,0,1-3.81.8Z"/><path class="cls-1" d="M266.83,396.5a25.75,25.75,0,0,1-3.41-.1c-.41,0-.81,0-1.22-.07-1.42-.19-2.8-.48-4.18-.69a11.14,11.14,0,0,0-1.82-.13,11,11,0,0,1-2.3,0c-.24-.05-.25-.53-.07-1a1.38,1.38,0,0,1,1.07-1,18,18,0,0,1,5,.67,17.94,17.94,0,0,0,2.92.37,26.3,26.3,0,0,0,3.19.15,18.25,18.25,0,0,0,2-.13,13.68,13.68,0,0,0,2.9-.65,11.68,11.68,0,0,0,2-1l.42-.28c.54-.29.77-.27,1.13.11.08.09.17.17.24.26.23.31.14.7-.25,1a11,11,0,0,1-4.11,2,19.2,19.2,0,0,1-3.45.54Z"/></g></svg>