<svg id="Layer_1" data-name="Layer 1" xmlns="http://www.w3.org/2000/svg" width="520" height="520" viewBox="0 0 520 520"><defs><style>.cls-1{fill:#221f1f;}.cls-2{fill:#232020;}.cls-3{fill:none;stroke:#221f1f;stroke-linecap:round;stroke-linejoin:round;stroke-width:2.34px;}</style></defs><title>Notioly v2</title><g id="_38.Notification" data-name="38.Notification"><path class="cls-1" d="M356,42.85c.22.28-.3.31-1.28.33a4.22,4.22,0,0,1-1.36-.23,4.58,4.58,0,0,1-.58-.61,15.53,15.53,0,0,1-.17-2.18,3.66,3.66,0,0,1,.29-1.46c.11-.27.14-.39.35-.86a12.73,12.73,0,0,1,.56-1.18,6.54,6.54,0,0,1,1.5-2,2.6,2.6,0,0,1,.88-.44l.11,0a4.18,4.18,0,0,1,.8-.07l.39-.06c.13,0,.27,0,.4,0a5.68,5.68,0,0,1,1.54.3c.17.06.32.19.52.13a1,1,0,0,1,.62.25l.5.33.51.5a6.74,6.74,0,0,1,1.28,1.83c.14.77.3,1.46.37,2.2,0,.1.1.18,0,.33-.3.34-.16.51-.12.72a2.68,2.68,0,0,1,0,1,1.36,1.36,0,0,1-.41.56c-.15.16-.74.07-.81,0s-.46,0-.7,0H361a1.71,1.71,0,0,1-.25-.1,4.62,4.62,0,0,1-.46-.26,3.68,3.68,0,0,1-.71-.47s-.06-.1-.16-.24-.23-.33-.37-.52l-.44-.5-.09-.09h-.06s0,0,0-.1-.08,0-.14.07a.45.45,0,0,0-.09.17c0-.06,0,.16,0-.32,0-.09,0-.06,0-.05s0,0-.06,0a.38.38,0,0,0-.16-.06c-.06,0,0,.1-.06.13s-.05,0-.07,0-.08,0-.08,0,0,0-.06.15l-.21.44a2.57,2.57,0,0,0-.25,1c0,.15-.63.74-.61.93S356,42.74,356,42.85Z"/><path class="cls-1" d="M276.58,480H278c0-.14.09,1.22.05.65v.22a1.37,1.37,0,0,0,.05.28l0,.13s0,.05,0,.07.1.07,0,.06-.19.12-.23.24-.27.38-.37.59l-.17.33s0,0,0,0h0l-.08,0-.23-.1c-.68-.27-1.45-.53-2.21-.77-1.52-.5-3.07-1-4.63-1.42-1.13-.33-2.28-.59-3.42-.91-4-1.14-8-2.29-12.06-3.25l-1.25-.27-1-.19a4.3,4.3,0,0,0-.61-.05.32.32,0,0,0-.14,0,.43.43,0,0,0,0,.16l0,.3,0,.2c.09,1.08.17,2.17.25,3.26a28,28,0,0,1,0,3.55c-.1,1.48-2.5-.28-2.65-3l-.24-5.29c.24-.57.35-1.21.88-1.55a3.55,3.55,0,0,1,2.16-.11l.61.1.45.08.64.14,1.25.29c1.66.41,3.3.88,4.93,1.38,2.8.86,5.77,1.49,8.65,2.29q2.37.66,4.73,1.38c1.59.49,3.11.93,4.77,1.59l.22.1a2.16,2.16,0,0,1,.35.22,1.9,1.9,0,0,1,.19.21,1,1,0,0,1,.14.69,1.08,1.08,0,0,1-.11.32,1.1,1.1,0,0,1-.11.14.94.94,0,0,1-.48.29l-.16,0c-.17,0-.16,0-.25,0h-.79a13.66,13.66,0,0,1-1.57,0c-1.05-.06-2.07-.21-3.09-.36a83.11,83.11,0,0,1-8.95-2.28c-2.27-.65-4.52-1.2-6.74-1.62-.49-.09-1-.12-1.45-.21s-.79-.09-1.1-.14a3.89,3.89,0,0,1-.7-.12,2.17,2.17,0,0,1-.47-.19,2.21,2.21,0,0,1-.39-.33c-.11-.12-.28-.24-.38-.37s-.1-.46.27-.72a3.34,3.34,0,0,1,1.82-.51,26.46,26.46,0,0,1,6.59,1.06c2.11.56,4.2,1.2,6.28,1.77a40.34,40.34,0,0,0,9.25,1.64Z"/><path class="cls-1" d="M233.84,482.83c-1.53.52-3.09,1-4.68,1.54-.59.18-1.11.51-1.71.66a39,39,0,0,1-6.52,1c-1,.05-2,.25-3,.36-1.26.16-2.67.49-3.87-.33-.38-.24,0-1.57.51-2.85s1.13-2.48,1.62-2.47c1.8.05,3.71,0,6,.15,1.37.09,2.62-.6,3.93-1,1.46-.45,3-.94,4.44-1.48.91-.34,1.84-.68,2.75-1.05,1.39-.57,2.83-1.07,4.24-1.72a37.27,37.27,0,0,1,3.47-1.75,4.59,4.59,0,0,1,.95-.3c1.3-.18,1.88.38,1.77,1.8a7.77,7.77,0,0,1-.1,1,6.06,6.06,0,0,1-.5,1.39,2.79,2.79,0,0,1-.49.82,17.36,17.36,0,0,1-4.46,2.51c-1.36.62-2.84,1.2-4.33,1.84Z"/><path class="cls-1" d="M241.56,473.82a3.72,3.72,0,0,1,.84-.08,3,3,0,0,1,1.45.39,3.8,3.8,0,0,1,1.29,1.29,7.83,7.83,0,0,1,.4,1s.15,1.15.17,1.32a12.46,12.46,0,0,1,0,1.4,11.66,11.66,0,0,0-.06,1.48,10.32,10.32,0,0,1-.22,1.52,4.28,4.28,0,0,1-1.24,0,2,2,0,0,1-.12-.72,8.43,8.43,0,0,0-.15-1.67l-.3-.7-.13-.32a6.21,6.21,0,0,0-.39-.82,6.85,6.85,0,0,0-.48-.61,2.37,2.37,0,0,0-.25-.31c0-.05-.06-.05-.08-.07h0l0-.06c.15-.25.09-.28.09,0,0,0,0,.06,0,.09s0,.14,0,.1,0-.06,0-.05-.26-.54-.59-1.18a2.89,2.89,0,0,1-.35-1.23C241.38,474.15,241.47,473.83,241.56,473.82Z"/><path class="cls-1" d="M267.54,482.94c-.73-.14-1.47-.25-2.2-.43l-2.17-.52c-.52-.15-1.06-.24-1.58-.4a32.73,32.73,0,0,1-5.32-2.24l-1.14-.58c-.38-.19-.77-.38-1.14-.59a6.7,6.7,0,0,1-2.69-2c-.24-.36.31-.68.92-.93a2,2,0,0,1,1.73-.1,58.39,58.39,0,0,0,5.17,3.1,16.34,16.34,0,0,0,3.63,1.23c.67.21,1.37.38,2.06.54s1.39.33,2.1.44c.87.14,1.73.34,2.61.41l2,.22c.67.05,1.35.06,2,.06s1,0,1.55-.08l1.52-.22c.23,0,.45-.08.67-.1.84-.06,1.12.09,1.33.73a3.59,3.59,0,0,1,.14.43c.11.49-.22.91-.85,1.08a18.22,18.22,0,0,1-2.88.48c-1,.05-2,0-3,0-.75,0-1.49-.12-2.24-.18s-1.49-.15-2.24-.28Z"/><path class="cls-1" d="M219.54,123.55c-.19-.15-.09-.39.18-.69a.86.86,0,0,1,.48-.2,2.71,2.71,0,0,1,.38.22c.07.06.71,1,1,1.3s.43.57.63.83a2.73,2.73,0,0,0,1.29,1.07,1.48,1.48,0,0,1,.27.1,1,1,0,0,0,1-.26.22.22,0,0,0,.09-.16c0-.06.14-.27.24-.58s.18-.69.22-.77a6.86,6.86,0,0,0,.31-1.42c0-.07,0-.14,0-.21a.62.62,0,0,0,.11-.48,5.08,5.08,0,0,1,0-.67,1.26,1.26,0,0,1,.15-.34c0-.11.28-.07.3,0s.18,0,.27,0a.17.17,0,0,1,.1,0,7.25,7.25,0,0,1,.55,1.43s0,.14,0,.34,0,.46,0,.73a9.87,9.87,0,0,1,0,1.29,1.2,1.2,0,0,1-.13.39,5.2,5.2,0,0,1-.31,1,3,3,0,0,1-.65,1,4.75,4.75,0,0,1-.55.43,1.73,1.73,0,0,1-.66.19.82.82,0,0,0-.25.06,2.87,2.87,0,0,1-2.2-.26,5,5,0,0,1-.88-.58.81.81,0,0,1-.12-.14c-.05-.06-.09-.12-.14-.17a10.85,10.85,0,0,1-1.3-1.75c-.1-.13-.31-.87-.4-1S219.61,123.61,219.54,123.55Z"/><path class="cls-1" d="M229.9,122.51c-.18-.21,0-.48.28-.72a.76.76,0,0,1,.51-.09c.12.1.24.19.33.28a10.55,10.55,0,0,0,.87,1.38c.24.28.44.59.66.85a2.28,2.28,0,0,0,1.43.94c.1,0,.2,0,.3,0a1.46,1.46,0,0,0,1.15-.57.21.21,0,0,0,.08-.18c0-.06.13-.33.22-.68s.11-.77.14-.86a5.9,5.9,0,0,0,.13-1.53c0-.07,0-.15,0-.23a.62.62,0,0,0,0-.5c0-.23-.09-.45-.12-.68a1.69,1.69,0,0,1,0-.38c0-.12.24-.16.27-.13s.17,0,.25-.1l.09,0a2.66,2.66,0,0,1,.5.64,4.12,4.12,0,0,1,.42.82s0,.15.1.37.11.5.16.8a10.6,10.6,0,0,1,.1,1.39,1.23,1.23,0,0,1-.1.42,5.15,5.15,0,0,1-.22,1.07,3.49,3.49,0,0,1-.58,1.07,3.7,3.7,0,0,1-.51.48,1.6,1.6,0,0,1-.58.3,1.12,1.12,0,0,0-.25.11,2.89,2.89,0,0,1-2.36.19l-.56-.22-.5-.28c-.06,0-.09-.1-.14-.14a1.53,1.53,0,0,0-.18-.18,8.27,8.27,0,0,1-1.51-1.87,9,9,0,0,1-.42-1.17C229.86,123,230,122.59,229.9,122.51Z"/><path class="cls-2" d="M374.51,57.74s0,0,0,0-.08-.08-.08-.11v-8l-1.13-.11c.12,0,.11,0,0,.06s-.56,0-1.19,0a7,7,0,0,1-1.05.67l-.52.22a.11.11,0,0,1-.11,0s0,0,0,0a3.64,3.64,0,0,0,.29,1.19c.21.64.47,1.12.55,1.09l0,0a.19.19,0,0,1,.09-.12l.48-.2.23-.11h0l.06-.06a.09.09,0,0,0,0-.06v5.42s0,.07-.08.11,0,0,0,0a3,3,0,0,0,1.21.13A3,3,0,0,0,374.51,57.74Z"/><path class="cls-1" d="M146.2,308.41l.78-1.56.43-.81a6.2,6.2,0,0,1,.65-1,2.09,2.09,0,0,1,.22-.2l.15-.11a1.9,1.9,0,0,1,.36-.21,1.78,1.78,0,0,1,.6-.18,1.85,1.85,0,0,1,.47,0,1.66,1.66,0,0,1,.51.21,1.52,1.52,0,0,1,.35.31,2,2,0,0,1,.2.3,2.35,2.35,0,0,1,.17.45c0,.07,0,.14,0,.19a.87.87,0,0,1,0,.11V306c0,.12,0,.26-.07.42s0,.28-.06.41,0,.13,0,.22c.13.24.33.13.43,0a2.3,2.3,0,0,0,.33-.49,32.67,32.67,0,0,0,1.26-3.24c.46-1.24.87-2.51,1.34-3.76a17.24,17.24,0,0,1,1.08-2.42,4.46,4.46,0,0,1,2.14-2.05c.77-.2.62.44.5,1.05a4.7,4.7,0,0,1-.49,2,28.44,28.44,0,0,0-2,4.36c-.3.79-.61,1.59-.92,2.39l-.49,1.2-.68,1.63c-.16.4-.35.76-.51,1.14s-.35.7-.53,1a6.12,6.12,0,0,1-1.08,1.35,2,2,0,0,1-1.31.57,1.86,1.86,0,0,1-.45-.06,3.57,3.57,0,0,1-.39-.19,2,2,0,0,1-.16-.37l0-.1c0-.19-.08-.39-.14-.62a2.38,2.38,0,0,1-.12-1,25.76,25.76,0,0,0,.32-3.13l0-.13v-.08h0l.15-.08c.38-.16.32-.37.32-.12a1.78,1.78,0,0,0,0,.22.39.39,0,0,0,.06.11l0,.09s0,0,0,0l-.06,0,0,0-.28-.35h0l0,0,.05.06.1.11.1.1s0,0,0,0l-.06.07a13.78,13.78,0,0,0-.77,1.41c-.63,1.27-1.26,2.58-2,3.86l-.41.73-.22.36-.27.42a7.86,7.86,0,0,1-1.43,1.69,2.83,2.83,0,0,1-1.6.75,1.81,1.81,0,0,1-.9-.19c-.16-.16-.18-.37-.3-.56l0,0a17.75,17.75,0,0,1,.35-3.29l.15-.72.15-.62c.11-.41.21-.82.35-1.23s.22-.72.37-1.07c.56-1.31.94-1.63,1.57-1.61a2,2,0,0,1,.43,0c.45.11.48.76.18,1.66s-.65,2-.91,3.08c-.06.24-.13.56-.16.74,0,0,0,0,0,0s0,0,0,0a0,0,0,0,0,0,0h0l.14-.22.21-.35c.55-.94,1.05-2,1.55-3Z"/><path class="cls-1" d="M142.2,303.63c.11-.31.42-.41.86-.37.13,0,.41.24.39.34a3.51,3.51,0,0,1-.13.58c0,.12-1,1.6-1.27,2.12a15.51,15.51,0,0,1-1,1.43,28.92,28.92,0,0,0-1.84,2.87c-.12.21-.24.41-.37.61a3.19,3.19,0,0,0-.47,1,.74.74,0,0,0,0,.24.11.11,0,0,0,.06.07s0,0,.07,0,.11,0,.29,0,.11,0,.14,0a1.74,1.74,0,0,0,.24-.12,10.53,10.53,0,0,0,1-.76,13.61,13.61,0,0,0,1.67-1.49c.08-.08.13-.18.24-.22a1.3,1.3,0,0,0,.53-.48c.21-.26.41-.52.64-.76a2.2,2.2,0,0,1,.41-.31c.13-.09.27.09.26.15s.14.11.22.15l.09,0a10.77,10.77,0,0,1-.91,2.06l-.29.4c-.16.23-.39.54-.64.85-.48.61-1.08,1.22-1.2,1.35a2.49,2.49,0,0,1-.47.33,2.86,2.86,0,0,1-2.1.85,2.71,2.71,0,0,1-.56-.05,2.22,2.22,0,0,1-.75-.28,1.91,1.91,0,0,1-.8-1.07,1.83,1.83,0,0,1,0-1.2,2.58,2.58,0,0,0,.09-.35,8.59,8.59,0,0,1,1.17-2.39c.23-.36.45-.72.68-1.07,0-.07.1-.12.14-.18a1.3,1.3,0,0,0,.19-.22c.54-.83,1.18-1.58,1.71-2.4.12-.2.9-.95,1-1.17S142.15,303.76,142.2,303.63Z"/><path class="cls-1" d="M139.6,301.57c.11-.25.41-.27.78-.09a.85.85,0,0,1,.3.43c0,.14-.05.28-.09.42s-.74,1.07-1,1.45a12.32,12.32,0,0,1-.69,1c-.5.67-1,1.38-1.41,2.09a2.89,2.89,0,0,1-.33.45,5.9,5.9,0,0,0-1,1.62.62.62,0,0,0-.09.3,9.08,9.08,0,0,1-.28.93,6.22,6.22,0,0,0-.21.81c-.06.13-.1.12-.11.2a.2.2,0,0,0,.14.18s.08,0,.13.06.29.08.43.07.44-.07.68-.11a1.33,1.33,0,0,1,.39,0c.12,0,.15.25.12.29s0,.17.09.25l0,.09a3.68,3.68,0,0,1-.67.48,3.45,3.45,0,0,1-.93.39h-.54a1.8,1.8,0,0,1-1.19-.53,2,2,0,0,1-.52-1.27,3.73,3.73,0,0,1,0-.66,1.2,1.2,0,0,1,.13-.43s.11-.54.25-1a8.73,8.73,0,0,1,.33-.92,3,3,0,0,1,.57-.93.52.52,0,0,0,.12-.18,12.25,12.25,0,0,1,1-1.54c.18-.26.34-.53.51-.78a.68.68,0,0,1,.12-.12c0-.06.11-.1.15-.16.4-.62.9-1.16,1.31-1.77.09-.15.74-.67.87-.83S139.56,301.67,139.6,301.57Z"/><path class="cls-1" d="M133.15,306.91c.09.18-.11.29-.48.43a.89.89,0,0,1-.52,0,1.62,1.62,0,0,1-.23-.37,5.84,5.84,0,0,1,.09-1.7,4.11,4.11,0,0,1,.39-1.1,12.72,12.72,0,0,1,1.22-1.94,3,3,0,0,1,.35-.36,10.36,10.36,0,0,0,1.19-1.2.53.53,0,0,0,.16-.23,6.57,6.57,0,0,1,1.33-1.3l1.28-.72c.06,0,.11-.09.2-.08a.57.57,0,0,0,.43-.15,2.81,2.81,0,0,1,.54-.29,1,1,0,0,1,.35,0c.1,0,.19.21.18.25s.09.15.15.22a.22.22,0,0,1,.05.08,8,8,0,0,1-.75,1.1s-1.22,1.14-1.33,1.29a.84.84,0,0,1-.24.16s-.88,1-.91,1a1.71,1.71,0,0,1-.61.52.29.29,0,0,0-.11.11c-.28.36-.6.68-.9,1-.14.18-.25.37-.38.56s-.06.06-.09.09a1.27,1.27,0,0,0-.1.12,5.55,5.55,0,0,0-.68,1.41c0,.11-.35.59-.33.74S133.1,306.83,133.15,306.91Z"/><path class="cls-3" d="M247.25,174a33.9,33.9,0,0,0-14.39-.92A24.56,24.56,0,0,0,221.68,178"/><path class="cls-1" d="M236.32,77.22c-2.34.37-9.51,4.67-11.41,4.23-58.17-13.27-63.57,76.12-44.88,87.07,7.89,4.62,24,9.54,41.65,9.5,3.46-2.61,12.79-6.74,25.57-4a60.57,60.57,0,0,0,21.66-12.65C286.31,142.54,268.93,71.87,236.32,77.22ZM203.54,146.7a4.95,4.95,0,1,1,5-4.94A4.95,4.95,0,0,1,203.54,146.7Zm27.52,13c-12.52.46-21.26-20.68-24.84-24.44-.67-.7-3.24-1.12-3.24-1.12-8.11,0-10-9.14-5.61-11.71s8.85,2.46,8.85,2.46,2.83-17.78,14.89-22c11.79-4.79,22.12,5.49,22.12,5.49C241.5,113.78,258.19,158.68,231.06,159.67Z"/><path class="cls-2" d="M240.16,78.2h.56c.48,0,1,0,1.46,0l1.45.26a23,23,0,0,1,8.71,3.87,37.69,37.69,0,0,1,7,6.79,57.46,57.46,0,0,1,5.41,8.25,79.93,79.93,0,0,1,4.1,9,92.51,92.51,0,0,1,4.95,19.24,86.59,86.59,0,0,1,.84,9.9,63.83,63.83,0,0,1-.52,9.88,39,39,0,0,1-2.48,9.42c-.36.72-.64,1.49-1.05,2.17s-.79,1.39-1.27,2l-.74.92-.37.46-.08.11-.05,0-.23.21c-.61.55-1.24,1.09-1.87,1.61a59.47,59.47,0,0,1-17.09,9.81c-.38.15-.77.29-1.16.42l-.53.19h-.07c-.85-.15-1.69-.34-2.55-.44a38.86,38.86,0,0,0-5.17-.39,35.8,35.8,0,0,0-10.28,1.33,30.21,30.21,0,0,0-4.89,1.87,21.23,21.23,0,0,0-2.32,1.29c-.19.11-.37.26-.55.38l0,0-1.12,0a91.79,91.79,0,0,1-9.94-.64A96.14,96.14,0,0,1,190.82,172a58.87,58.87,0,0,1-9.1-3.82l-1.07-.59c-.32-.21-.63-.39-.93-.62a11.11,11.11,0,0,1-1.63-1.59,18.87,18.87,0,0,1-2.52-4,39,39,0,0,1-2.89-9.32,67.59,67.59,0,0,1-1.07-9.85,85.29,85.29,0,0,1,1.62-19.78,72,72,0,0,1,6.4-18.72,45.07,45.07,0,0,1,12.23-15.2,33.69,33.69,0,0,1,8.45-4.81,35.73,35.73,0,0,1,9.47-2.24,42.85,42.85,0,0,1,9.8.21L222,82l2.42.5a3.42,3.42,0,0,0,1.73,0c.49-.11.92-.25,1.35-.39.84-.31,1.63-.64,2.42-1s1.81-.8,2.7-1.16l.56-.24a11.32,11.32,0,0,0,2.31-1.37c.54-.42.84-.78.81-1.12s-.6-.55-1.39-.5a8.17,8.17,0,0,0-2.74.77l-.54.26c-.91.48-1.84,1-2.78,1.36a21.2,21.2,0,0,1-2.89,1.1l-.33.09-.28,0c-.12,0-.13,0-.17,0a.88.88,0,0,1-.3,0L223.27,80c-1.09-.24-2.2-.36-3.3-.55s-2.22-.26-3.33-.32a39.1,39.1,0,0,0-19.4,3.44,40.16,40.16,0,0,0-15,12.71,62,62,0,0,0-8.78,17.55A85.37,85.37,0,0,0,169.6,132a78.19,78.19,0,0,0,.7,19.56,44,44,0,0,0,2.67,9.54,25.62,25.62,0,0,0,2.4,4.46,13.74,13.74,0,0,0,3.7,3.71,51,51,0,0,0,9,4.17,90.13,90.13,0,0,0,9.37,2.82c3.17.79,6.37,1.38,9.6,1.85a93.13,93.13,0,0,0,9.73.94c.81,0,1.63.09,2.44.09l2.77,0a1.75,1.75,0,0,0,.48-.3l.34-.23a3.82,3.82,0,0,1,.47-.31c.32-.2.64-.4,1-.58a20.86,20.86,0,0,1,2.07-1,30.54,30.54,0,0,1,9-2.28,37.07,37.07,0,0,1,9.35.24l2.61.47a2.16,2.16,0,0,0,.55-.16l.33-.11.58-.21c.39-.13.77-.28,1.15-.42,1.54-.59,3.05-1.22,4.54-1.92a62.73,62.73,0,0,0,8.55-4.86c1.35-.93,2.68-1.9,4-2.94.63-.52,1.27-1,1.88-1.59l.46-.41a5.32,5.32,0,0,0,.51-.49l.81-1a26.73,26.73,0,0,0,4.43-9,48.43,48.43,0,0,0,1.67-9.74,74.84,74.84,0,0,0,.06-9.82,94.14,94.14,0,0,0-6.49-28.52,64.25,64.25,0,0,0-9.82-17,38.38,38.38,0,0,0-7.29-6.76,24,24,0,0,0-9.25-4l-1.52-.3-1.53-.13-.65,0c-.28,0-.56,0-.83,0a6,6,0,0,0-.76.13,7.11,7.11,0,0,0-1.27.38c-.7.29-1.09.63-1,1s.53.59,1.22.75a6.89,6.89,0,0,0,1.2.15h.69Z"/><path class="cls-2" d="M204,147.9l.07,0a1.38,1.38,0,0,1,.34-.12,6.05,6.05,0,0,0,3.87-2.19,6,6,0,0,0,1.33-4.25,6.06,6.06,0,0,0-1.92-4,6.06,6.06,0,0,0-8.28,0,6.07,6.07,0,0,0,3.31,10.45.94.94,0,0,1,.32.11l.07,0c.26,0,.45-.53.45-1.2s-.13-1.23-.27-1.23h-.05a.3.3,0,0,1-.22.05,3.52,3.52,0,0,1-.9-.24,3.83,3.83,0,1,1,2,.24.28.28,0,0,1-.21-.05h0c-.14,0-.27.56-.27,1.23S203.73,147.91,204,147.9Z"/><path class="cls-2" d="M233.27,160.69l.32,0c.57-.16,1.14-.31,1.71-.43a15,15,0,0,0,6.66-3.47,16.13,16.13,0,0,0,4.09-6.26,28.21,28.21,0,0,0,1.57-7.13,49.29,49.29,0,0,0,.19-7.18,112.28,112.28,0,0,0-1.63-14.1L245,115.16c-.2-1.15-.39-2.29-.54-3.42-.07-.57-.13-1.13-.16-1.66a6.7,6.7,0,0,1,0-.77v-.19c0-.07,0-.24.06-.36l.12-.78-.56-.54-.49-.45c-.22-.18-.43-.37-.65-.54-.44-.36-.88-.7-1.34-1a32.4,32.4,0,0,0-2.83-1.82,24.55,24.55,0,0,0-6.29-2.51,20.35,20.35,0,0,0-6.83-.46,22.86,22.86,0,0,0-6.54,2,18.81,18.81,0,0,0-5.47,4.12,26,26,0,0,0-3.92,5.48,37.52,37.52,0,0,0-2.7,6.09c-.7,1.87-1.48,5.14-1.29,4.39a1,1,0,0,0-.14-.13,11.87,11.87,0,0,0-1.84-1.15,7.46,7.46,0,0,0-4.48-.81,7.6,7.6,0,0,0-1.16.3c-.37.14-.72.33-1.07.5s-.68.47-1,.73a11.86,11.86,0,0,0-.8.93,6.88,6.88,0,0,0-1.06,4.5,8.27,8.27,0,0,0,5.18,6.91,9.49,9.49,0,0,0,2.14.61c.36.06.73.07,1.09.1a3.65,3.65,0,0,1,.81.1,11.18,11.18,0,0,1,1.71.46,2.09,2.09,0,0,1,.5.25,6.37,6.37,0,0,1,.51.6c1.44,2,2.74,4.34,4.13,6.56s2.83,4.47,4.42,6.62a42.38,42.38,0,0,0,5.33,6.06,19.3,19.3,0,0,0,7.06,4.34c.52.19,1.09.31,1.63.49a2,2,0,0,0,.35.07,2.55,2.55,0,0,0,1.62-.23,1,1,0,0,0,.62-.85c-.05-.7-.89-1.17-1.88-1.33l-.27,0a6.11,6.11,0,0,1-1.46-.3,12.51,12.51,0,0,1-2.9-1.35,19,19,0,0,1-2.65-1.95,48.79,48.79,0,0,1-8.58-10.55c-1.24-1.94-2.43-3.93-3.65-5.93-.62-1-1.23-2-2-3-.19-.25-.41-.51-.64-.77a3.34,3.34,0,0,0-1.11-.71,10.69,10.69,0,0,0-1.87-.57c-.32-.07-.56-.13-.95-.19l-.92-.07a6.73,6.73,0,0,1-1.5-.26,6.17,6.17,0,0,1-4.18-3.87,5.72,5.72,0,0,1-.24-2.86,3.69,3.69,0,0,1,1.29-2.27,4.13,4.13,0,0,1,1.19-.65,4,4,0,0,1,1.34-.21,6,6,0,0,1,2.77.83c.22.13.45.26.67.41l.32.23.16.11.3.24a16.58,16.58,0,0,1,1.29,1.25l1.33,1.45.28-1.59.3-1.59c.26-1.27.35-1.49.49-2.06.27-1,.59-2,.93-3a35.51,35.51,0,0,1,2.54-5.74,23.85,23.85,0,0,1,3.6-5,16.24,16.24,0,0,1,4.82-3.63,20.31,20.31,0,0,1,5.8-1.79,17.85,17.85,0,0,1,6,.42,21.93,21.93,0,0,1,5.71,2.28,29.88,29.88,0,0,1,2.62,1.68c.42.3.83.62,1.23,1,.21.15.4.33.59.49l.13.11v.08s0,0,0,.07v.25a8,8,0,0,0,0,1c0,.64.1,1.24.17,1.84.16,1.2.36,2.36.56,3.53l1.23,6.92a110.13,110.13,0,0,1,1.6,13.83,47.59,47.59,0,0,1-.19,6.87,25.78,25.78,0,0,1-1.45,6.57,13.93,13.93,0,0,1-3.54,5.39,12.76,12.76,0,0,1-5.69,2.9,11.78,11.78,0,0,1-1.43.22l-.31,0c-1.06.09-1.91.72-1.89,1.39S232.06,160.8,233.27,160.69Z"/><path class="cls-1" d="M282.61,359.29c-16.76,17.29-90.24,10.29-88.69.07,0-26,19.17-80,23.74-113.44,13.84-14,29.49-21.93,53.65-7.55C278.77,278.34,291.57,350,282.61,359.29Z"/><path class="cls-1" d="M243.11,232.59a34.13,34.13,0,0,0-13.31,5.09c-1,.61-2,1.37-3,2s-1.91,1.52-2.87,2.27l-2.75,2.43-1.32,1.29-.67.64-.2.2s-.05,0-.05.06L218.4,250c-.21,1.24-.38,2.49-.64,3.72-.49,2.46-.92,4.93-1.47,7.38-1,4.9-2.18,9.77-3.37,14.63q-2.61,10.64-5.37,21.2c-2.71,10.33-5.45,20.65-7.86,31l-1.71,7.8c-.49,2.61-1.06,5.22-1.48,7.84s-.87,5.24-1.11,7.88-.41,5.26-.54,7.89v.14a2.38,2.38,0,0,0,1.08,1.91,12.3,12.3,0,0,0,2.54,1.55,36.94,36.94,0,0,0,5.93,2.12A106.07,106.07,0,0,0,221.06,368a168.69,168.69,0,0,0,16.93.87,139,139,0,0,0,21.58-1.56A80.43,80.43,0,0,0,270.06,365a35.34,35.34,0,0,0,9.62-4.34c1.77-1.25,2.48-1.87,2.63-1.64s-.39,1.24-1.79,2.64a23.85,23.85,0,0,1-6.82,4.46,47.33,47.33,0,0,1-11.08,3.38,122.19,122.19,0,0,1-18,1.85,166.5,166.5,0,0,1-18-.35,138.14,138.14,0,0,1-17.92-2.4,63.21,63.21,0,0,1-8.84-2.45,23,23,0,0,1-4.31-2.07,8.78,8.78,0,0,1-2-1.73,4.38,4.38,0,0,1-.44-.63,3.28,3.28,0,0,1-.37-.75,3.79,3.79,0,0,1-.2-1.81v.21a117.46,117.46,0,0,1,2-17.79c1.65-8.84,3.78-17.74,6-26.65s4.54-17.85,6.83-26.7c2.51-9.73,5-19.47,7-29.28.47-2.46,1-4.92,1.4-7.38l.6-3.71.33-2.06a1.35,1.35,0,0,1,.08-.36l.26-.26.46-.44.68-.66a61.88,61.88,0,0,1,12-9.4A35.8,35.8,0,0,1,239,231a35.08,35.08,0,0,1,4.67-.93c.79-.08,1.59-.09,2.38-.14l1.19-.07c.4,0,.8,0,1.19.05a44.89,44.89,0,0,1,18.1,4.95c1.1.48,2.09,1.12,3.14,1.67l1.64.91.56.31.14.08a.66.66,0,0,1,0,.15l.06.32.19,1.08,1.27,6.92q1.23,6.94,2.47,13.87,2.43,13.86,4.62,27.67c2.23,14.3,4.36,28.34,5.54,42.65.25,3.15.46,6.24.54,9.44a61,61,0,0,1-.67,12.63,11.53,11.53,0,0,1-2.13,5.34,4.61,4.61,0,0,1-1.29,1.17c-.27.13-.29,0-.13-.4a13.44,13.44,0,0,0,.75-1.95,38.76,38.76,0,0,0,1.15-9.4,164.31,164.31,0,0,0-.84-19.22c-.6-6.49-1.39-13-2.26-19.62-1.78-13.16-3.92-26.48-6.21-39.8l-2.61-14.85q-1.32-7.22-2.63-14.44l0,0-.68-.37-1.61-.9c-.55-.29-1.07-.61-1.63-.87l-1.67-.77a33.12,33.12,0,0,0-3.37-1.44l-1.72-.63a14.07,14.07,0,0,0-1.74-.56,32.79,32.79,0,0,0-14.27-1.21Z"/><path class="cls-1" d="M251.94,469.9c.8-8.55,1.85-17,2.76-25.45.32-3.09.63-6.18,1-9.27,1.18-10.89,2.32-21.77,3.21-32.68.4-4.84.68-9.71.89-14.52.27-6.18.32-12.39.62-18.56.15-3.86,2.54,1,2.35,8.23-.36,12.7-1.36,25.34-2.77,38-.84,7.59-1.49,15.52-2.32,23.28l-2.79,25.59c-.27,2.62-.56,5.26-.7,7.85l0,.34V473a1.06,1.06,0,0,0,0,.25c0,.09.14,0,.21.09l1.52.39,3.84,1q5.82,1.49,11.63,3.06,2.9.79,5.78,1.63l1.61.49c.65.21,1.36.43,1.93.68a5.93,5.93,0,0,1,1.36.83,1.28,1.28,0,0,1,.22.24.29.29,0,0,1,.05.17.83.83,0,0,1,0,.22,1.15,1.15,0,0,1-.35.68,5.38,5.38,0,0,1-2.35,1.25,15,15,0,0,1-1.55.35l-.38.07-.29,0-.58.09a36.75,36.75,0,0,1-4.68.29,42,42,0,0,1-9.27-1,35.49,35.49,0,0,1-4-1.1,21.49,21.49,0,0,1-5-2.37,4.73,4.73,0,0,1-1.73-1.81,4.1,4.1,0,0,1-.35-.76c-.05-.33.4-.3,1.24,0s2.09.94,3.73,1.62a40.85,40.85,0,0,0,15.76,3,34.17,34.17,0,0,0,4.06-.26l.5-.07.23,0h.05l.09,0h0a0,0,0,0,0,0,0s0,0,0,0l-3.41-1c-4.11-1.14-8.26-2.22-12.42-3.29l-6.24-1.59-1.86-.46a3,3,0,0,1-1.31-.56,2,2,0,0,1-.53-1.24q0-.39,0-.78l0-.66,0-.84.12-1.64Z"/><path class="cls-1" d="M236.59,469.68c-.6-8.29-1.4-16.63-2.15-24.95q-.45-4.56-.89-9.11-1.41-16.06-2.56-32.16c-.36-4.76-.72-9.55-1.08-14.27-.45-6.07-1-12.17-.92-18.27.06-3.79,2.47.95,2.85,7.91.68,12.36,1.57,24.72,2.36,37.21.47,7.47,1.32,15.21,2,22.83q1.14,12.58,2.29,25.17c.22,2.59.43,5.17.57,7.79l0,1c0,.33,0,.63,0,1.18a2,2,0,0,1-.34,1.29,4.58,4.58,0,0,1-1.26.52L233.77,477c-3.73,1.19-7.48,2.39-11.19,3.64q-2.79.93-5.54,1.93l-1.3.49-.82.33a7.27,7.27,0,0,0-.75.35c-.11.07-.27.12-.28.27a.38.38,0,0,0,.22.33,3.28,3.28,0,0,0,1.21.41c.2,0,.41.07.61.09.36.05.73.07,1.09.1a30.36,30.36,0,0,0,4.37-.07,38.25,38.25,0,0,0,8.56-1.73c1.22-.4,2.38-.88,3.56-1.39,2.17-1,3.53-1.76,4.52-2.26a6.34,6.34,0,0,1,2.22-.79,5.36,5.36,0,0,1,.82-.08c.35,0,.19.46-.43,1.17a15.09,15.09,0,0,1-3.35,2.61,36.34,36.34,0,0,1-16.18,4.89,32.3,32.3,0,0,1-4.4,0c-.4,0-.71-.06-1.17-.12-.71-.08-1.34-.25-2-.39a4.6,4.6,0,0,1-2.62-1.58,3.06,3.06,0,0,1-.24-.58,1.74,1.74,0,0,1,0-.34c0-.12.07-.25,0-.37a1.61,1.61,0,0,1,.43-1c.15-.34.73-.65,1.23-1s1.26-.58,1.85-.81l1.4-.55,1-.37,2-.73c4-1.41,8-2.73,12-4l6-1.91c.16-.05.11,0,.14-.05v0l0-.69c0-1-.11-2.06-.18-3.1Z"/><path class="cls-1" d="M244.55,439.42q.21-8.7.35-17.39v-6.35c.09-7.45.18-14.91.13-22.36,0-3.31-.11-6.63-.28-9.91-.17-4.21-.54-8.42-.49-12.64,0-2.63,2.51.56,2.76,5.44.39,8.64.51,17.27.27,26-.14,5.2,0,10.61,0,15.93,0,5.85-.15,11.69-.27,17.54-.08,3.6-.15,7.2-.23,10.8-.13,5.44-.26,10.92-.39,16.32-.07,4.21,0,8.33-.05,12.5,0,.91,0,1.81,0,2.74-.11,3.42-.33,4.52-1.05,5.23a2.53,2.53,0,0,1-.48.42c-.52.18-.78-1.08-.81-3.6-.11-7.41,0-15.24.17-23.09l.36-17.55Z"/><path class="cls-1" d="M336.58,166.45c0,.36,0,.73,0,1.1v1l0,.22c0,.16.06.32-.05.46a2.21,2.21,0,0,1-.09.46,4.11,4.11,0,0,1-.32.64c-.22.41-.39.79-.62,1.16-.82,1.26-1.69,2.47-2.53,3.69a19.22,19.22,0,0,0-1,1.69,7.54,7.54,0,0,1-1.35,2.13c-.39.37-1.79-1.28-1.31-2.11a29.74,29.74,0,0,1,2.94-4.18,19.44,19.44,0,0,0,1.65-2.64c.15-.26.3-.51.43-.76l.09-.17,0-.08a.33.33,0,0,0,0-.17c0-.45-.05-1.11-.05-1.64,0-.75.07-1.49.16-2.23a15.92,15.92,0,0,1,.78-3.31,9.73,9.73,0,0,1,1.13-2.49,6.26,6.26,0,0,1,.39-.51c.56-.57.9-.57,1.32-.19a2.4,2.4,0,0,1,.28.27,1,1,0,0,1,0,1.14,11.46,11.46,0,0,0-1.48,3.45,15.35,15.35,0,0,0-.43,3.09Z"/><path class="cls-1" d="M354.34,164.56a10.82,10.82,0,0,1-4.16,6.28c-.67.57-1.31,1.15-2,1.66-1.05.78-2.11,1.5-3.21,2.22l-.07,0c-.09.08-.2.15-.31.23l-.36.38a9.86,9.86,0,0,0-.68.94,21.34,21.34,0,0,0-1.19,2.16,29.73,29.73,0,0,0-1.43,3.63,45.05,45.05,0,0,1-1.62,4.75c-.43,1-2.05-.9-1.45-2.8a48,48,0,0,1,1.85-4.92,21.49,21.49,0,0,1,2.73-4.74c.17-.22.42-.45.62-.68a6.27,6.27,0,0,1,.86-.67l-.08,0c1.29-.84,2.55-1.85,3.78-2.81a28.83,28.83,0,0,0,2.54-2.22,6.5,6.5,0,0,0,1-1.19,11,11,0,0,0,.71-1.46,10.27,10.27,0,0,0,.84-3.88,1.87,1.87,0,0,0,0-.34,1.43,1.43,0,0,0,0-.22.65.65,0,0,0-.24-.35,1.23,1.23,0,0,0-1,0,6.27,6.27,0,0,0-2.47,1.55,6.15,6.15,0,0,0-1.33,1.83,1.72,1.72,0,0,0-.13.43.46.46,0,0,0,0,.16s.08,0-.1.05-.13.07-.08,0a1.07,1.07,0,0,0,.11-.2s.1,0,.21-.06a4.06,4.06,0,0,0,.76-.31c1-.55,1.29-.71,1.89-.48.13,0,.28.05.42.09.48.08.31,1-.61,1.74a5.77,5.77,0,0,1-1.12.71,3.62,3.62,0,0,1-1.57.42,2.2,2.2,0,0,1-1.3-.42,2,2,0,0,1-.75-1.46,3.53,3.53,0,0,1,.46-1.81,8.46,8.46,0,0,1,1.67-2.19,9.48,9.48,0,0,1,2.21-1.64,5.91,5.91,0,0,1,1.05-.44,3.78,3.78,0,0,1,1.37-.2,3,3,0,0,1,1.61.52,2.71,2.71,0,0,1,1,1.36,4.58,4.58,0,0,1,.2,1.34,7.32,7.32,0,0,1-.05,1.06,13,13,0,0,1-.38,1.92Z"/><path class="cls-1" d="M344.51,159a20.14,20.14,0,0,1,1.78-1.45c.22-.16.4-.37.64-.52a11.74,11.74,0,0,1,1.31-.74,3.66,3.66,0,0,1,1.79-.45,2.38,2.38,0,0,1,1.63.76,2.26,2.26,0,0,1,.76,1.81c0,.23-.6.23-1.14.21s-1.1-.07-1.17-.23l-.14-.29s0,0,0-.06,0-.21-.46-.13a4.35,4.35,0,0,0-1.5.92,19.78,19.78,0,0,0-1.62,1.28,10.57,10.57,0,0,0-.89.88,3.2,3.2,0,0,0-.86,1.41.16.16,0,0,0,0,.14c.05,0,0,0,.05,0s.14-.05.31-.08l.23,0c.31,0,.45.08.58.66l.09.38a.79.79,0,0,1-.42,1,2.8,2.8,0,0,1-1,.16,2.17,2.17,0,0,1-1.41-.61,2,2,0,0,1-.52-.94,2.61,2.61,0,0,1-.05-.86,3.28,3.28,0,0,1,.35-1.13,8.08,8.08,0,0,1,1.54-2Z"/><path class="cls-1" d="M342.34,156.29a16,16,0,0,1,1.74-1.38,7.52,7.52,0,0,1,.62-.5,13.93,13.93,0,0,1,1.27-.67,5.69,5.69,0,0,1,1.57-.5,2.38,2.38,0,0,1,1.68.26,2.1,2.1,0,0,1,.76.83,1.64,1.64,0,0,1,.13,1.12c-.07.23-.62.14-1.16.05a4.48,4.48,0,0,0-.74-.09,1.17,1.17,0,0,0-.33.06s0,0,0-.06-.15-.15-.65,0a4.39,4.39,0,0,0-1.46.86c-.53.37-1.06.76-1.55,1.18a8.24,8.24,0,0,0-.84.83,2.88,2.88,0,0,0-.27.34,1.49,1.49,0,0,0-.18.24.84.84,0,0,0-.16.52c0,.31.47.34.68.27.05,0,.1-.05.14-.05s.13,0,.21.12a1.69,1.69,0,0,1,.14.57l.06.38a.79.79,0,0,1-.54.93,2.57,2.57,0,0,1-2.24-.55,2.22,2.22,0,0,1-.52-2.32,5,5,0,0,1,.81-1.53,10.09,10.09,0,0,1,.78-.9Z"/><path class="cls-1" d="M340.93,149a12,12,0,0,1,2.72-.57,4.53,4.53,0,0,1,1.19,0l.4.11a5.94,5.94,0,0,1,2.54,2.37c.27.42.56.82.85,1.22a3.36,3.36,0,0,1,.86,1.66c0,.22-.5.4-1.05.49s-1.13.08-1.28-.19l-1.59-2.82a1.74,1.74,0,0,0-.92-.74l-.26,0a7.79,7.79,0,0,0-2.15.32,5.69,5.69,0,0,0-1.26.48,1.51,1.51,0,0,0-.29.2c.06.07-.25-.15-.33-.12s-.05,0,0,0l.06,0,0,0v0h0s.25-.22.13-.12h0a1.42,1.42,0,0,0,.68.46,3.59,3.59,0,0,0,1.51-.08c.12,0,.25-.07.37-.08.48,0,.65.1.75.67a2.66,2.66,0,0,1,.07.39.86.86,0,0,1-.48.94,4.76,4.76,0,0,1-1.78.32,3.72,3.72,0,0,1-2.3-.83,3.06,3.06,0,0,1-.37-.35,1.83,1.83,0,0,1-.48-1.41,1.94,1.94,0,0,1,.46-1.05,2.81,2.81,0,0,1,.45-.42,5.79,5.79,0,0,1,1.42-.75Z"/><path class="cls-1" d="M333.4,90.1,331.77,95l-.84,2.45-.2.58,0,.09-.08.18.32.07,1.86.28,3.86.55c2.57.35,5.14.68,7.72,1,3.12.36,6.25.6,9.37.82a64,64,0,0,0,8.18.15c2.75-.15,5.51-.4,8.27-.66s5.52-.56,8.28-.86l7.52-.86.28,0L384.39,93l-2.16-6.77c-.93-3-1.87-6-2.69-9.09a49.81,49.81,0,0,1-1.76-9.44c.07-2.22.69-1.67,1.3-.13a47.28,47.28,0,0,1,2.73,7.81c1,4,2.18,7.89,3.36,11.83L387,93.07l.93,3,1.55,4.7-5.27.64-3.44.37-6.91.67c-3.87.33-7.8.75-11.81,1a80.86,80.86,0,0,1-12.08-.34c-3.58-.31-7.15-.72-10.71-1.18l-5.33-.72-6.44-1,1.89-5.48c1.71-5.07,3.36-10.17,4.84-15.3a74.7,74.7,0,0,0,2.64-11.73,13.58,13.58,0,0,0,0-1.41c0-.53-.06-1-.07-1.57,0-1,0-2.08.12-3.11a27.56,27.56,0,0,1,1.24-6.09,18.71,18.71,0,0,1,5.12-8.15,17.75,17.75,0,0,1,4-2.74A22.65,22.65,0,0,1,351.84,43c.7-.13,1.39-.28,2.08-.38s1.4-.19,2.11-.22a19.47,19.47,0,0,1,5.58.31,4.77,4.77,0,0,1,2.32,1.07,3.67,3.67,0,0,1,.59.61c.32.64-1.7.28-5.28.24a29.31,29.31,0,0,0-7.92,1c-.64.15-1.24.43-1.87.64a19.17,19.17,0,0,0-1.77.85,13.9,13.9,0,0,0-3.14,2.29c-3.82,3.59-5.4,9.26-5.42,14.76,0,.51,0,1,.05,1.53,0,.27,0,.44.05.75v1a23.33,23.33,0,0,1-.45,3.51c-.41,2.22-1,4.36-1.53,6.49-1.16,4.25-2.45,8.45-3.79,12.62Z"/><path class="cls-1" d="M359.67,36.27a2.45,2.45,0,0,0-1-.6l-.64-.12c-.22,0-.46,0-.68,0l-.45.12a2.22,2.22,0,0,1-.41.2,3.65,3.65,0,0,0-1.31,1.19A7,7,0,0,0,354.09,41a11.23,11.23,0,0,1,0,2.59c-.13.56-2.51,0-2.54-1.14a10.71,10.71,0,0,1,1.42-5.93,12.77,12.77,0,0,1,1.2-1.65,4.79,4.79,0,0,1,1.75-1.28,8,8,0,0,1,1.14-.31c.38,0,.76-.05,1.14,0a5.07,5.07,0,0,1,2.2.63,5,5,0,0,1,1.91,1.94,11.38,11.38,0,0,1,1.19,3.57c.19.92.43,1.81.57,2.74,0,.2.09.4.1.6,0,.76-.14,1-.78,1.14a3.12,3.12,0,0,1-.44.09,1,1,0,0,1-1-.76c-.43-1.51-.6-3.06-1-4.44a5,5,0,0,0-1.25-2.42Z"/><path class="cls-1" d="M361.75,103.05c.94,4.61-1.51,8.94-6.63,8.9-7.36,0-6.95-8.55-6.43-9.54C348.69,102.41,358.09,103.43,361.75,103.05Z"/><path class="cls-2" d="M361.21,101.87a.07.07,0,0,0-.06,0,.82.82,0,0,1-.33.09,59.22,59.22,0,0,1-5.93-.17l-3-.22c-1.1-.1-1.59-.14-3.94-.39-.18.42-.33.89-.48,1.32l-.1.75c0,.11,0,.27-.05.35v.22a10.29,10.29,0,0,0,.06,1.76,10.69,10.69,0,0,0,1,3.44,6.83,6.83,0,0,0,2.44,2.82,7.28,7.28,0,0,0,3.52,1.16,7.81,7.81,0,0,0,6.73-2.4,8.77,8.77,0,0,0,2-6.84,1,1,0,0,1,0-.39.11.11,0,0,0,0-.08c0-.28-.61-.4-1.27-.26s-1.17.42-1.13.64c0,0,0,0,0,0a.74.74,0,0,1,.12.31,8.58,8.58,0,0,1,0,1.34,5.72,5.72,0,0,1-2.13,4.35,6.16,6.16,0,0,1-4.81,1,5.2,5.2,0,0,1-2.19-1,5.76,5.76,0,0,1-1.43-2,8.07,8.07,0,0,1-.62-2.56,8.45,8.45,0,0,1,0-1.33v-.16s0,0,0,0l2.1.19,3,.24c2,.12,4.07.24,6.18.17a1,1,0,0,1,.37.05h.08c.28,0,.44-.58.37-1.25S361.43,101.85,361.21,101.87Z"/><path class="cls-2" d="M364.75,182.43s0,0,0,0a.56.56,0,0,1-.13-.22,21.82,21.82,0,0,0-2.46-5.43,46.85,46.85,0,0,0-3.32-4.75,45.21,45.21,0,0,0-3.87-4.32,30,30,0,0,0-4.55-3.72.45.45,0,0,1-.15-.18l0,0c-.13-.09-.52.31-.87.89s-.53,1.11-.41,1.18h0a.36.36,0,0,1,.21.05c.24.16.48.3.72.48a38.62,38.62,0,0,1,7.43,7.41,43.5,43.5,0,0,1,3,4.35,19.56,19.56,0,0,1,2.1,4.64.32.32,0,0,1,0,.19.08.08,0,0,0,0,0c0,.13.6.12,1.26,0S364.79,182.6,364.75,182.43Z"/><path class="cls-2" d="M342,157.45l-.06-.06a1.34,1.34,0,0,1-.32-.31,14.24,14.24,0,0,1-2.37-5.21,16.06,16.06,0,0,1-.15-5.79,34.19,34.19,0,0,1,4.05-11.26,111.8,111.8,0,0,1,6.55-10.41c1.17-1.71,2.36-3.41,3.5-5.18.58-.88,1.13-1.78,1.65-2.73a12,12,0,0,0,1.28-3.2,2.39,2.39,0,0,1,.17-.56.25.25,0,0,0,0-.13c0-.52-.59-.81-1.24-.66s-1.22.4-1.19.54a.43.43,0,0,1,0,.05.87.87,0,0,1,0,.36,7.19,7.19,0,0,1-.59,1.63,42.41,42.41,0,0,1-3,5L347,124.4a98.22,98.22,0,0,0-6.3,10.29,34.18,34.18,0,0,0-3.88,11.64,18.72,18.72,0,0,0,.33,6.32,16.33,16.33,0,0,0,2.68,5.76,1.75,1.75,0,0,1,.22.43.31.31,0,0,0,.05.1c.21.29.8.17,1.32-.26S342.22,157.7,342,157.45Z"/><path class="cls-2" d="M381.52,53a.36.36,0,0,0,0-.1,5.36,5.36,0,0,1-.14-.54,9.47,9.47,0,1,0-10,10.78A9.4,9.4,0,0,0,378,61.06,9.53,9.53,0,0,0,381.37,55a3.18,3.18,0,0,1,.13-.51.36.36,0,0,0,0-.11c0-.39-.51-.7-1.18-.69s-1.24.24-1.25.52a.25.25,0,0,0,0,.08.86.86,0,0,1,0,.42,7.53,7.53,0,0,1-.45,1.69,7.34,7.34,0,0,1-3.46,3.74,7.13,7.13,0,0,1-5.05.54,7.21,7.21,0,0,1-5.35-7.88,7.14,7.14,0,0,1,2.37-4.5,7.2,7.2,0,0,1,9.51-.07,7.15,7.15,0,0,1,2.43,4.47.74.74,0,0,1,0,.39.28.28,0,0,0,0,.09c0,.27.57.5,1.25.51S381.54,53.4,381.52,53Z"/><path class="cls-1" d="M228.6,238.63a76.89,76.89,0,0,0-15,13.8c-4.5,5.19-8.64,10.73-12.83,16.26a201.19,201.19,0,0,1-13.21,16.25,60.07,60.07,0,0,1-7.85,7.16,30.74,30.74,0,0,1-9.56,5,21.84,21.84,0,0,1-8,.89,17.75,17.75,0,0,1-7.62-2.77A13.64,13.64,0,0,1,149.1,289a5.89,5.89,0,0,1,.11-4.67,6.4,6.4,0,0,1,1.44-1.87c.62-.53,1.07-.85,1.57-1.23,6.94-5.33,12.68-12.15,17.71-19.4a215.23,215.23,0,0,0,13.49-22.93c4.1-7.89,8-15.93,12-23.92a222.5,222.5,0,0,1,13.11-23.43,75.43,75.43,0,0,1,7.4-9.47,36.57,36.57,0,0,1,9.53-7.47,24.62,24.62,0,0,1,5.76-2.13,32,32,0,0,1,6.06-.68,36.09,36.09,0,0,1,11.91,1.8,51.74,51.74,0,0,1,13.68,7,92.05,92.05,0,0,1,11.69,9.87c3.64,3.57,7.05,7.34,10.39,11.13,1.67,1.89,3.33,3.8,5,5.65a48.68,48.68,0,0,0,5.29,5.18,9.09,9.09,0,0,0,2.62,1.55c.55.18.8.19.79.33s-.35.35-1.1.32a6.75,6.75,0,0,1-3-1.09c-4.8-2.83-11.32-10.35-19.29-18.61A108.53,108.53,0,0,0,264,184.73a55.5,55.5,0,0,0-12.86-7.66,34.23,34.23,0,0,0-14.39-2.72,34.74,34.74,0,0,0-3.67.33,21,21,0,0,0-3.47.86,24.14,24.14,0,0,0-6.42,3.35,48.18,48.18,0,0,0-10.38,10.74,124.62,124.62,0,0,0-8.21,12.93c-5,9-9.5,18.31-14.17,27.59-5.6,11.1-11.38,22.47-18.66,33.09a99,99,0,0,1-12.33,14.9c-1.17,1.13-2.36,2.22-3.61,3.27-.63.51-1.24,1-1.89,1.53s-1.36,1-1.79,1.41a3.22,3.22,0,0,0-1,3.29,8,8,0,0,0,2.15,3.52,15.87,15.87,0,0,0,8.54,4.43,11.32,11.32,0,0,0,2.41.14,22.64,22.64,0,0,0,2.47-.21,23.24,23.24,0,0,0,4.81-1.34,33.55,33.55,0,0,0,8.59-5.33,70.72,70.72,0,0,0,7.36-7.23c9.18-10.4,16.73-22.29,26.16-32.76a87.12,87.12,0,0,1,9.37-9.05,60.7,60.7,0,0,1,5.31-3.84,46.8,46.8,0,0,1,5.81-3.09,34.85,34.85,0,0,1,12.8-2.93,39.49,39.49,0,0,1,13,1.87,56,56,0,0,1,9.13,3.84c.74.37,1.46.77,2.17,1.19s1.44.8,2.13,1.24c1.39.85,2.77,1.66,4.2,2.41a42.76,42.76,0,0,0,18.31,5.29,29.32,29.32,0,0,0,9.41-1.19,31.11,31.11,0,0,0,8.56-4.1,47.59,47.59,0,0,0,12.79-14.08,95.29,95.29,0,0,0,6.61-13.31l1.3-3.48c.42-1.16.88-2.31,1.23-3.5.72-2.36,1.55-4.69,2.15-7.09l1-3.57a8.89,8.89,0,0,0,.49-3.38,9.56,9.56,0,0,0-3-5.92,12.15,12.15,0,0,0-5.95-3.25c-2.19-.45-4.48.09-5.6,1.87-2.24,3.63-4.47,7.39-6.87,11.09A107.34,107.34,0,0,1,307.61,210c-2.61,2.81-4.52,4.21-6.33,4.76a5.36,5.36,0,0,1-1.34.22,1.84,1.84,0,0,1-1-.25c-.59-.57.55.32,2.77-1.48s5.16-5.27,8.58-10.1c2.54-3.6,5-7.34,7.32-11.15l3.52-5.75.88-1.46c.31-.5.52-.92,1-1.53a6.68,6.68,0,0,1,3.38-2.48,8.57,8.57,0,0,1,4-.29,12.69,12.69,0,0,1,3.67,1.16,14.8,14.8,0,0,1,5.75,4.91,10.44,10.44,0,0,1,1.85,7.63c-.13.72-.29,1.26-.44,1.81l-.46,1.69-.92,3.37a109.89,109.89,0,0,1-10.92,26.08A56.83,56.83,0,0,1,320,238.47a35.66,35.66,0,0,1-12.38,7.86,32,32,0,0,1-10.83,1.86,37.79,37.79,0,0,1-10.8-1.64,52.69,52.69,0,0,1-10-4.16c-1.58-.84-3.14-1.79-4.6-2.67l-2.23-1.28c-.75-.41-1.52-.78-2.28-1.18-6.09-3-12.73-5.09-19.43-4.91a34.43,34.43,0,0,0-18.79,6.31Z"/><path class="cls-1" d="M226.08,185.62a1.58,1.58,0,0,1-1.25-.89c-.12-.18-.06-.64.13-.68a6.6,6.6,0,0,1,1.11-.14,3.81,3.81,0,0,1,.68.14l.63.16.7.26a19.63,19.63,0,0,1,2.47,1.14,24.33,24.33,0,0,1,2.71,1.69,32.68,32.68,0,0,0,5.28,3.11c.41.17.81.35,1.2.55a10.68,10.68,0,0,0,4.35.95,1.71,1.71,0,0,0,.74-.08,5.83,5.83,0,0,1,.86-.1,2.73,2.73,0,0,0,.57-.09,4.38,4.38,0,0,0,.65-.24,6.92,6.92,0,0,0,1.89-1.2,4.26,4.26,0,0,0,1.75-2.82,4.17,4.17,0,0,1,.08-.49,1.41,1.41,0,0,0,.11-.57c0-.19-.08-.37-.11-.57a5,5,0,0,0-.23-.79,5.66,5.66,0,0,0-.27-.79,4,4,0,0,1-.22-.86c-.06-.27.26-.31.33-.24s.23-.08.32-.17.07-.07.1-.07a2.28,2.28,0,0,1,.4.45l.39.49c.13.2.25.42.38.64a6.1,6.1,0,0,1,.8,2.24,4.77,4.77,0,0,1,0,1,4.49,4.49,0,0,1-.15,1c0,.19-.09.38-.14.58l-.23.57a7.71,7.71,0,0,1-2.21,2.86,4.38,4.38,0,0,1-.9.56,8.3,8.3,0,0,1-2.41,1,4.66,4.66,0,0,1-.93.13l-.74.05a5.22,5.22,0,0,1-.8,0,8.64,8.64,0,0,1-2.72-.42,2.48,2.48,0,0,0-.54-.12,15.56,15.56,0,0,1-4.33-1.67c-.7-.35-1.37-.74-2-1.12a4.08,4.08,0,0,1-.33-.25,4.13,4.13,0,0,0-.42-.31c-1.53-1-2.9-2.08-4.38-2.92a16.6,16.6,0,0,0-2.23-1.43C226.93,186.19,226.31,185.63,226.08,185.62Z"/><path class="cls-1" d="M247.59,200.63c.49,1.26.2,2.55-2,2.55-1,0-1.89-1.13-1.89-2.53C243.74,197.36,246.69,198.31,247.59,200.63Z"/><path class="cls-1" d="M248.62,207.9c.48,1.27.2,2.55-2,2.55-1,0-1.9-1.13-1.9-2.52C244.77,204.63,247.72,205.59,248.62,207.9Z"/><path class="cls-1" d="M248.45,373.42l-4.84-.1c-.59,0-1.17,0-1.76,0-2.07-.09-4.13-.26-6.2-.38-.91-.06-1.83-.05-2.74,0a12.16,12.16,0,0,1-3.51-.14c-.72-.19.3-2.46,1.62-2.44a53.24,53.24,0,0,1,7.1.52,37.34,37.34,0,0,0,4.37.12l4.82.08c1,0,2,0,3,0,1.5,0,3-.06,4.47-.24a33.79,33.79,0,0,0,3.36-.65c.25-.06.48-.14.73-.19.91-.17,1.22-.05,1.52.55a4,4,0,0,1,.21.41c.17.48-.15.94-.82,1.18a23.85,23.85,0,0,1-6.39,1.2c-1.63.12-3.27.16-4.89.19Z"/><path class="cls-1" d="M250.75,476.79a4.6,4.6,0,0,1,1,1.47,5.88,5.88,0,0,1,.46,1.57,5.54,5.54,0,0,1,0,1.63,4.62,4.62,0,0,1-.52,1.72,4.62,4.62,0,0,1-1-1.48,5.92,5.92,0,0,1-.46-1.56,6.41,6.41,0,0,1,0-1.64A4.74,4.74,0,0,1,250.75,476.79Z"/><path class="cls-1" d="M341.14,71.54c7.41,1.65,16.3,3.28,23.71,1,1.76-.54,1.26-2.52-.52-2-6.89,2.12-15.28.43-22.18-1.11-1.42-.32-2.92,1.66-1,2.09Z"/><path class="cls-1" d="M229.53,124.67a15,15,0,0,1-1-5l0-1a8.5,8.5,0,0,1,.16-1,5.64,5.64,0,0,1,1.94-3,6.86,6.86,0,0,1,3.12-1.31,18.23,18.23,0,0,1,2.81-.29c.59,0,1.18,0,1.77,0a6.74,6.74,0,0,1,1.72.35c.68.24-.57,2.15-1.75,2l-1.6-.1c-.51,0-1.05,0-1.54,0a7.45,7.45,0,0,0-2.81.59,3.27,3.27,0,0,0-1.71,2.73,10,10,0,0,0,.47,4.22,16.61,16.61,0,0,0,1,2.57,16,16,0,0,0,2.32,3.51,8.37,8.37,0,0,0,2.48,1.86l.56.21c.66.23.69.28.93.86l.18.37a.47.47,0,0,1-.15.6,1.29,1.29,0,0,1-.44.22,3,3,0,0,1-.62,0,6.48,6.48,0,0,1-3.25-1.56,13.69,13.69,0,0,1-2.31-2.51,20.29,20.29,0,0,1-2.41-4.41Z"/><path class="cls-1" d="M233.21,142.91c-.19,0-.21-.22-.1-.59a1.3,1.3,0,0,1,.3-.42,1.65,1.65,0,0,1,.32-.1c.06,0,.76.17,1,.18a4.4,4.4,0,0,1,.65.12,3.19,3.19,0,0,0,1.22.07.58.58,0,0,1,.26,0,1.71,1.71,0,0,0,.45,0,2.16,2.16,0,0,0,.39-.22s.1,0,.1-.12a1.12,1.12,0,0,1,.34-.38,2.26,2.26,0,0,1,.36-.4,4.66,4.66,0,0,0,.7-.64s0-.09.11-.1.19-.13.24-.22a1.78,1.78,0,0,1,.25-.36.74.74,0,0,1,.25-.14c.08,0,.28.07.29.1s.16.07.25.09l.09,0a3.88,3.88,0,0,1,0,1.13,5.47,5.47,0,0,1-.31.7,3.93,3.93,0,0,1-.44.78.58.58,0,0,1-.2.18,5.83,5.83,0,0,1-.94,1c-.25.12-.46.32-.76.3a.42.42,0,0,0-.16,0,3.31,3.31,0,0,1-1.34.24c-.23,0-.46,0-.68,0a.56.56,0,0,1-.12,0l-.14-.05a10,10,0,0,1-1.48-.36c-.12,0-.55-.39-.66-.43S233.28,142.91,233.21,142.91Z"/><path class="cls-1" d="M225.07,115.81c.25,0,.38.23.41.63a.9.9,0,0,1-.22.48,3.74,3.74,0,0,1-.42.11c-.08,0-1.25-.16-1.64-.16s-.76-.06-1.13-.08a8.58,8.58,0,0,0-2.21.06,2.61,2.61,0,0,1-.48.05,2.48,2.48,0,0,0-.82.14l-.39.14a2.5,2.5,0,0,0-.35.21.46.46,0,0,0-.22.17c-.12.08-1.21,1-1.34,1.18a5.27,5.27,0,0,0-1.06,1.05c0,.06-.07.13-.16.15s-.24.24-.32.38-.22.39-.35.58a1.5,1.5,0,0,1-.3.24c-.1.08-.29,0-.29-.09s-.16-.08-.25-.1l-.09,0a7.9,7.9,0,0,1,.24-1.65s.27-.5.56-1a9.07,9.07,0,0,1,.78-1.09,1.29,1.29,0,0,1,.3-.27l.72-.65a4.29,4.29,0,0,1,.8-.57c.17-.1.34-.18.5-.28a1.8,1.8,0,0,1,.56-.11.55.55,0,0,0,.22-.06A3.31,3.31,0,0,1,219,115a4.93,4.93,0,0,1,.94-.11c.31,0,.63-.08.94-.07l.17,0a.58.58,0,0,0,.22,0c.74,0,1.46.16,2.19.22.17,0,.91.35,1.09.39S225,115.82,225.07,115.81Z"/></g></svg>