<svg id="Layer_1" data-name="Layer 1" xmlns="http://www.w3.org/2000/svg" width="520" height="520" viewBox="0 0 520 520"><defs><style>.cls-1{fill:#221f1f;}.cls-2{opacity:0.67;}.cls-3{fill:#232020;}</style></defs><title>Notioly v2</title><g id="_39.Add_to_cart" data-name="39.Add to cart"><path class="cls-1" d="M378.24,392.17q-8.17.29-16.34.66l-6,.34-21,1c-3.11.16-6.23.39-9.31.63-4,.3-7.9.73-11.92.7-1.27,0-1.07-.58,0-1.16a13,13,0,0,1,5.16-1.36c8.08-.55,16.16-1,24.33-1.24,4.89-.13,10-.55,15-.8l16.47-.75,10.14-.38,15.35-.48c2,0,3.94-.14,5.89-.22l5.87-.14,2.6,0c.81,0,1.48.05,2.05.09a11,11,0,0,1,1.41.26,2.78,2.78,0,0,1,1.45.75,2.08,2.08,0,0,1,.38.44c.2.47-1.14.66-3.38.54-6.89,0-14.25.28-21.61.51l-8.23.29-8.24.33Z"/><path class="cls-1" d="M168.64,180.75a13.76,13.76,0,0,1-5.28.76,22.89,22.89,0,0,1-5.06-.86,18.17,18.17,0,0,1-8.34-6,42.32,42.32,0,0,1-4.23-5.89,85.46,85.46,0,0,1-5.52-11.35c-.79-1.94-1.53-3.9-2.24-5.85l-.2-.56-.06-.16-.16-.06-1.32-.44a30.31,30.31,0,0,1-3-1.21,15.86,15.86,0,0,1-4.7-3.44c-.31-.39-.59-.81-.89-1.22s-.46-.91-.66-1.38a7.61,7.61,0,0,1-.42-3,7.85,7.85,0,0,1,1.19-3.71,5.81,5.81,0,0,1,.61-.82,3.93,3.93,0,0,1,.85-.74,4.79,4.79,0,0,1,2-.63,7.94,7.94,0,0,1,3.87.64,6.33,6.33,0,0,1,3,2.56,1.74,1.74,0,0,1,.3.89c0,.2,0,.31-.15.33s-.58-.25-1.11-.58a10.35,10.35,0,0,0-5.07-1.52,3.73,3.73,0,0,0-1.29.14,1.35,1.35,0,0,0-.45.19c0,.05-.1.07-.15.12l-.21.22a5.41,5.41,0,0,0-1.15,2.52,5.54,5.54,0,0,0,.23,2.77,6.61,6.61,0,0,0,.69,1.28,6.13,6.13,0,0,0,.44.6l.54.56a17,17,0,0,0,5.69,3.33l1.75.6c.52.22,1.21.21,1.25.88l.42,1.18,1.22,3.39A75,75,0,0,0,149,169.94a27.46,27.46,0,0,0,6.33,6.93,11.66,11.66,0,0,0,4.12,1.91,18.71,18.71,0,0,0,4.62.64,10.11,10.11,0,0,0,5.35-1.36,10.56,10.56,0,0,0,3.76-4.1,25,25,0,0,0,2.53-8.45,59.75,59.75,0,0,0,.51-9c-.06-4.66-.57-9.21-1-13.82-.11-1-.23-2-.31-3-.3-3.8-.06-5.21.73-6,.17-.17.42-.36.58-.35s.18.11.23.22a2.85,2.85,0,0,1,.07.6c.06.69.15,1.7.25,3,.83,8.13,2.09,16.93,1.38,25.9a34.42,34.42,0,0,1-2.13,10,16,16,0,0,1-2.74,4.59,12.53,12.53,0,0,1-2.05,1.86,12.18,12.18,0,0,1-2.47,1.31Z"/><path class="cls-1" d="M138,105c-9.21-5.09-23.15,1.06-20,17.28,1.61,8.26,12.08,14.47,18.88,13.26,3.49-.62,6-13.19,15.3-13.36,3.9-.07,25.49,12.58,33,5.33,17.52-17-3.13-43-32.07-35.49C143.41,94.54,138.13,104.39,138,105Z"/><path class="cls-1" d="M191.46,121.27a23,23,0,0,1-4.72,6.68,9.27,9.27,0,0,1-1.66,1.45,10,10,0,0,1-2,1,13.12,13.12,0,0,1-4.23.68,30.27,30.27,0,0,1-8-1.18,76.28,76.28,0,0,1-7.44-2.47l-5.26-2c-1.73-.67-3.5-1.4-5.12-1.86l-.49-.11a2.42,2.42,0,0,0-.4,0,7.6,7.6,0,0,0-1.07.09,8.28,8.28,0,0,0-2.07.58,11.2,11.2,0,0,0-3.59,2.63,27.36,27.36,0,0,0-2.88,3.77c-.9,1.36-1.71,2.79-2.82,4.2a7.94,7.94,0,0,1-1,1,3.44,3.44,0,0,1-1.56.8c-.48.06-.91.1-1.37.14s-.9,0-1.35,0a17.89,17.89,0,0,1-5.1-1.18,22.14,22.14,0,0,1-8.4-5.86,18.57,18.57,0,0,1-2.58-3.84c-.18-.34-.3-.72-.46-1.07a7.27,7.27,0,0,1-.38-1.11l-.3-1.14-.15-1.13a19.2,19.2,0,0,1,.48-9.06,7.16,7.16,0,0,1,.52-1.4c.21-.45.39-.91.62-1.35a15.09,15.09,0,0,1,1.74-2.45,13.26,13.26,0,0,1,4.81-3.54,14.42,14.42,0,0,1,11.64,0c2.24,1.12,1.51,1.47-.45,1.22a33.58,33.58,0,0,0-3.9-.14,21.66,21.66,0,0,0-5.13.9,12.83,12.83,0,0,0-4.29,2.5c-.3.29-.56.62-.84.92l-.42.46-.34.52c-.22.35-.48.69-.68,1.05l-.52,1.15c-1.37,3.09-1.27,6.83-.59,10.27.7,3.26,3,6.17,5.86,8.32a17.2,17.2,0,0,0,9.77,3.73,4.78,4.78,0,0,0,.76,0l.38,0a.9.9,0,0,0,.28,0,2,2,0,0,0,.85-.62,20,20,0,0,0,1.91-2.66,39.59,39.59,0,0,1,4.24-5.88,12.23,12.23,0,0,1,6.6-3.91,11.59,11.59,0,0,1,2-.18,8.19,8.19,0,0,1,2,.43c1.18.37,2.29.81,3.39,1.24a111.15,111.15,0,0,0,14.48,5.15,24.85,24.85,0,0,0,7.37.86,9.51,9.51,0,0,0,3.39-.85,6.07,6.07,0,0,0,1.39-.94c.44-.39.86-.88,1.3-1.32a19.06,19.06,0,0,0,4.48-7.86,16.77,16.77,0,0,0,0-9,21.81,21.81,0,0,0-7.89-11.25A29.2,29.2,0,0,0,169.52,92a34.65,34.65,0,0,0-10.8-.17c-.89.14-1.77.31-2.66.46l-2.61.64a21.52,21.52,0,0,0-4.8,2.08,27.39,27.39,0,0,0-3.67,2.8,47.52,47.52,0,0,0-4.22,4.53,10.76,10.76,0,0,1-2,2c-.27.19-.57.45-.76.59s-.29.1-.29-.26a4.12,4.12,0,0,1,.31-1.24,17.62,17.62,0,0,1,2.72-4.45,25.72,25.72,0,0,1,8-6.73,11.33,11.33,0,0,1,1.22-.58,11.58,11.58,0,0,1,1.26-.53,23.58,23.58,0,0,1,2.58-.77,41.23,41.23,0,0,1,5.21-1A35,35,0,0,1,180,93.17a26.05,26.05,0,0,1,11.31,11.73,20.24,20.24,0,0,1,1.9,8.16,19.3,19.3,0,0,1-1.7,8.22Z"/><path class="cls-1" d="M163.23,64.66a21.12,21.12,0,0,1-.88,3.08c-.13.27-.25.59-.39.82l-.4.69c-.26.48-.55.88-.83,1.32-1.13,1.71-2.31,3.34-3.5,5-.87,1.19-1.7,2.4-2.59,3.56-3.13,4.1-6.36,8.12-9.56,12.16-1.42,1.79-2.8,3.63-4.15,5.44-1.75,2.34-3.41,4.75-5.37,6.91-1.22,1.35-1.45-1.73.59-4.4,3.6-4.73,7.3-9.38,11.15-14,2.3-2.75,4.46-5.79,6.64-8.72q1.81-2.43,3.55-4.87c.56-.82,1.15-1.64,1.67-2.48a12.9,12.9,0,0,0,1.35-2.47,37.08,37.08,0,0,0,1.38-7.15c.23-1.86.39-3.74.82-5.66a9.22,9.22,0,0,1,1.13-2.76c.48-.83.95-1.62,1.37-2.43.16-.32.31-.63.45-.95a6.75,6.75,0,0,0,.27-.75,2.21,2.21,0,0,0,.08-1,.61.61,0,0,0-.17-.41c-.15-.11-.35.05-.47.16a5.29,5.29,0,0,0-.59.77c0,.05-.54.81-.87,1.25-1.3,1.87-2,2.52-2.82,2.45a1.62,1.62,0,0,1-.51-.06c-.44-.21,0-1,.85-2.39.32-.53.68-1.11,1.07-1.66l.6-.87a17.06,17.06,0,0,1,1.11-1.4,3.25,3.25,0,0,1,2.24-1.36,1.6,1.6,0,0,1,1.13.42,2.22,2.22,0,0,1,.62,1,6.18,6.18,0,0,1-.11,3.28,8.9,8.9,0,0,1-.28.87l-.13.33-.11.25c-.15.34-.31.67-.47,1-.63,1.26-1.42,2.48-1.92,3.51a10.51,10.51,0,0,0-.64,2.52c-.16.95-.27,1.94-.38,2.94-.23,2-.45,4.06-.88,6.12Z"/><g class="cls-2"><path class="cls-1" d="M165.67,53.77a21.29,21.29,0,0,0-.74,3.19c-.07.42-.08.83-.15,1.24-.25,1.46-.51,2.93-.81,4.4-.13.65-.22,1.32-.32,2a6.81,6.81,0,0,1-.65,2.49c-.27.47-1.79-.72-1.58-1.57.36-1.58.69-3.2,1.14-4.86a25.87,25.87,0,0,0,.45-3.11,31.07,31.07,0,0,1,.67-3.49,9,9,0,0,1,.82-2.16c.55-1,1.17-1.86,1.65-2.8a9.89,9.89,0,0,0,.78-2.23l.08-.48c.12-.58.23-.71.74-.82.12,0,.24-.06.35-.07.38-.07.72.27.71.87A9.77,9.77,0,0,1,167.19,51l-.87,1.48a5.41,5.41,0,0,0-.6,1.33Z"/></g><path class="cls-1" d="M121.41,155c1.3,3.65,2.78,7.26,4.39,10.8.58,1.3,1.25,2.55,1.86,3.83,2.17,4.52,4.46,9,7,13.33,1.11,1.93,2.33,3.8,3.57,5.62.81,1.17,1.65,2.31,2.49,3.44s1.69,2.27,2.52,3.26a.48.48,0,0,1,.14.62c-.1.18-.4.32-.91.24a5.83,5.83,0,0,1-3.32-2.31A103.52,103.52,0,0,1,130,178.7c-1.57-3.17-3.37-6.37-4.92-9.62-1.71-3.59-3.29-7.23-4.71-10.94-.87-2.29-1.7-4.59-2.42-6.93a74.57,74.57,0,0,1-2.59-10.81,34.38,34.38,0,0,1-.51-8.61c.09-.64.16-1.28.27-1.93.61-2.38,1.25-3,1.94-3.21a1.83,1.83,0,0,1,.48-.11c.24,0,.33.28.31.71a4.37,4.37,0,0,1-.14.77c0,.14-.08.3-.13.46l-.12.55c-1.14,4.54-.41,9.74.67,14.77A87.6,87.6,0,0,0,121.46,155Z"/><path class="cls-1" d="M157.57,45c.05.2-.17.3-.54.36a.94.94,0,0,1-.48-.13,2,2,0,0,1-.14-.39,4.85,4.85,0,0,1,.05-.67c.07-.34.14-.7.17-.9a4.67,4.67,0,0,1,.42-1.07,9.75,9.75,0,0,1,1.33-1.93,2.18,2.18,0,0,1,.4-.34c.49-.35.95-.7,1.4-1a.7.7,0,0,0,.22-.2,6,6,0,0,1,1.61-1l1.41-.38c.07,0,.13-.07.21,0a.53.53,0,0,0,.45-.05,5.5,5.5,0,0,1,.58-.16,1.4,1.4,0,0,1,.34,0c.11,0,.15.24.13.28s.06.16.1.24a.23.23,0,0,1,0,.09,6.88,6.88,0,0,1-1,.92s-1.47.81-1.6.93a.72.72,0,0,1-.27.1c-.06,0-1,.76-1.08.79a1.69,1.69,0,0,1-.65.38.22.22,0,0,0-.12.09c-.32.29-.66.55-1,.85a4,4,0,0,0-.4.52.73.73,0,0,1-.09.08.38.38,0,0,0-.11.11,5.79,5.79,0,0,0-.74,1.39c0,.11-.37.61-.4.76S157.55,44.92,157.57,45Z"/><path class="cls-1" d="M148.68,53.49c.31-2.16.62-4.3,1-6.49l.24-1.23a4.93,4.93,0,0,1,.52-1.39A31.53,31.53,0,0,1,156,37.74a13.56,13.56,0,0,1,3.24-2.28A5,5,0,0,1,162,35a3.81,3.81,0,0,1,2.4,1.53c.33.48-.19.72-.85.8a8.7,8.7,0,0,1-1.83,0c-.79-.26-2,.25-3.19,1.08a24.12,24.12,0,0,0-3.37,3,15.14,15.14,0,0,0-1.77,2.25c-.27.4-.53.81-.77,1.22l-.35.61a3.14,3.14,0,0,0-.19.48c-.48,1.94-.78,4.18-1.09,6.31l-.52,4c-.25,2-.52,4-.72,6.06-.15,1.56-.18,3.11-.31,4.68,0,.34,0,.69-.1,1a3.71,3.71,0,0,1-.39,1.37,1,1,0,0,1-.75.48,1.48,1.48,0,0,1-.42,0,.73.73,0,0,1-.45-.47,1.25,1.25,0,0,1-.09-.38,3,3,0,0,1,0-.6c.12-2.66.34-5.59.66-8.49.23-2.16.5-4.33.77-6.5Z"/><path class="cls-1" d="M99.91,156.73c-1.25-4.45-2.4-8.95-3.24-13.53q-.66-3.42-1-6.93a31.43,31.43,0,0,1,0-7.19c.06-.45.18-.92.27-1.38a8,8,0,0,1,.52-1.36l1.2-2.34c.4-.78.91-1.46,1.36-2.19s.9-1.47,1.42-2.13a173.92,173.92,0,0,1,11.34-13.77c3.94-4.42,8-8.76,12-13.08,3.56-3.84,7.11-7.74,10.54-11.64,4.37-5,8.73-10.14,12.62-15.41,1.2-1.65,1.6-1.13,1.12.68A14.89,14.89,0,0,1,146.57,70c-.38.67-.81,1.4-1.3,2.14s-1.07,1.47-1.68,2.23c-8.8,10.59-18.35,20.3-27.69,30.37a144.46,144.46,0,0,0-15.61,19.49,13.27,13.27,0,0,0-.84,1.45l-.78,1.48a3.64,3.64,0,0,0-.32.71,4.55,4.55,0,0,0-.22.71l-.16.76-.09.8a32.92,32.92,0,0,0,.17,6.71,107,107,0,0,0,2.58,13.5c1.37,5.49,3.05,10.93,4.87,16.3,2.81,8.13,6,16.19,9.49,24,2.73,6.05,5.71,11.85,8.82,17.63.69,1.27,1.37,2.51,2.07,3.78,2.58,4.74,3.31,6.3,3.3,7.64a4.2,4.2,0,0,1,0,.88c-.17.7-1.62-1-3.65-4.44a263,263,0,0,1-16.32-32.94,257.55,257.55,0,0,1-9.34-26.36Z"/><path class="cls-1" d="M184.29,188.1a77,77,0,0,1-12.13,8.36,28.07,28.07,0,0,1-5,2.23,19.29,19.29,0,0,1-2.41.6l-.63.08-.3,0h-.07c-.07,0-.12,0-.15.06l-.06.06-.18.19c-1.06,1.16-2.15,2.29-3.29,3.39a46.43,46.43,0,0,1-3.56,3.14,24.75,24.75,0,0,1-4,2.69,10.59,10.59,0,0,1-4.29,1.34,4.8,4.8,0,0,1-4.28-2.08,9.92,9.92,0,0,1-1.54-5.55,12.91,12.91,0,0,1,1.14-5.47c.55-1.07,1-.58,1.22.46a19.46,19.46,0,0,1,.29,4.45,8.66,8.66,0,0,0,.78,4.34,2.46,2.46,0,0,0,2.83,1.36,11.77,11.77,0,0,0,4.3-1.86,40.28,40.28,0,0,0,4.14-3.14,47.17,47.17,0,0,0,4.57-4.59l.83-.93,1.23-.17a11.66,11.66,0,0,0,1.52-.3,14.23,14.23,0,0,0,1.5-.45c.5-.15,1-.37,1.48-.57a55.45,55.45,0,0,0,12.12-7.53c2.34-1.82,4.61-3.74,6.83-5.73,3.36-3,6.64-6.16,9.77-9.38,2.44-2.5,4.69-5.09,7-7.64.52-.56,1-1.12,1.55-1.68,2-2,2.91-2.56,3.81-2.42a1.84,1.84,0,0,1,.58.13c.23.14.16.46-.09.86a14.35,14.35,0,0,1-1.44,1.8c-4.06,4.55-8.47,9.42-13.16,14-3.47,3.44-7.1,6.77-10.88,9.94Z"/><g class="cls-2"><path class="cls-1" d="M152.94,209.07a12.78,12.78,0,0,1-5.35,2,5.53,5.53,0,0,1-2.3-.25,5.07,5.07,0,0,1-2.81-2.81,9.84,9.84,0,0,1-.75-3.56,20.39,20.39,0,0,1,.08-3.13,8.78,8.78,0,0,1,1.08-3.86c.23-.37.63-.08.93.41a2.4,2.4,0,0,1,.34,1.79,15.19,15.19,0,0,0-.3,7,3.18,3.18,0,0,0,2.58,2.54,7.57,7.57,0,0,0,4.54-1.13,21.29,21.29,0,0,0,2.66-1.69,32.7,32.7,0,0,0,3.68-3.17c.89-.89,1.64-1.89,2.43-2.84l.49-.66c.66-.78,1-.94,1.49-.78a2.17,2.17,0,0,1,.36.12c.35.17.31.7-.11,1.34a28.5,28.5,0,0,1-4.66,5.36,31,31,0,0,1-4.36,3.36Z"/></g><path class="cls-1" d="M195.73,101.35a68.78,68.78,0,0,0,2.78,7.4c1,2.51,1.94,5,2.84,7.58.65,1.85,1.33,3.69,2,5.55q3.19,9.85,5.81,19.88c.76,3,1.53,6,2.2,8.94.42,1.91.84,3.84,1.12,5.8a17,17,0,0,1,0,6.11c-.21.68-.49.91-.67.79s-.32-.51-.46-1a28.14,28.14,0,0,1-1.09-4.89A112.41,112.41,0,0,0,208,146c-.92-3.85-1.91-7.7-2.93-11.57-1.22-4.62-2.86-9.33-4.43-14-.87-2.54-1.77-5.08-2.71-7.59-.47-1.26-1-2.51-1.47-3.73s-1.07-2.5-1.54-3.78a35.43,35.43,0,0,1-2.42-9.86,11.89,11.89,0,0,1,1.78-7.63A15.49,15.49,0,0,1,200.32,83c1.77-.89,3.55-1.64,5.3-2.42l1.31-.58a4.81,4.81,0,0,0,1-.65,12.61,12.61,0,0,0,1.88-1.91c.52-.63,1-1.29,1.52-2A11.5,11.5,0,0,1,213.8,73a1.84,1.84,0,0,1,1.81-.34.87.87,0,0,1,.47.4c.06.25-.21.35-.45.58a12.68,12.68,0,0,0-1.45,1.66c-1,1.28-2,2.77-3.19,4.17a11.17,11.17,0,0,1-2.19,2,8,8,0,0,1-1.38.72l-1.24.54c-3.25,1.42-6.65,2.7-9,4.9a8.42,8.42,0,0,0-2,2.79,10,10,0,0,0-.69,3.45,17,17,0,0,0,.29,3.73,30,30,0,0,0,.93,3.77Z"/><path class="cls-1" d="M213.22,177a75.5,75.5,0,0,0,8.25-11.36,26.21,26.21,0,0,0,2.66-6.27,17.36,17.36,0,0,0,.55-3.26v-1.63c0-.56-.13-1.13-.18-1.69a58.25,58.25,0,0,0-2.65-9.86c-4-11.51-9.57-22.48-14.33-33.85a77.48,77.48,0,0,1-2.86-7.78,16.94,16.94,0,0,1-.77-4.24,6.89,6.89,0,0,1,.08-1.18c.08-.37.19-.71.28-1.06s.18-.71.31-1l.46-1a13.07,13.07,0,0,1,3.51-4.31c1.43-1.15,2.94-2.08,4.32-3a13.56,13.56,0,0,0,3.53-3.27,8.72,8.72,0,0,0,1.4-4.42c.06-2,.68-1.9,1.3,0a5.56,5.56,0,0,1,.26,1.77,7.64,7.64,0,0,1-.28,2.41,9.91,9.91,0,0,1-3.62,4.89c-3,2.28-6.17,3.74-7.72,6.34a4.65,4.65,0,0,0-.53,1,4.35,4.35,0,0,0-.42,1l-.32,1.1a4.6,4.6,0,0,0-.06.94,19.14,19.14,0,0,0,1,4.75c1.06,3.27,2.43,6.54,3.81,9.8s2.85,6.52,4.27,9.8c3.39,7.86,7.29,15.93,9.84,24.45a45.79,45.79,0,0,1,1.56,7.23,18.36,18.36,0,0,1-.71,7.55,43.86,43.86,0,0,1-7.2,12.82c-3.61,4.78-7.62,9.17-11.58,13.58-6,6.65-12.14,13.26-17.35,20.42a77.07,77.07,0,0,0-5.48,8.61c-.84,1.47-1.53,3-2.25,4.52s-1.31,3.09-1.79,4.7c-.51,1.38-.77,2.8-1.15,4.22-1.08,5.37-.88,7.11-1.58,8.32a6.52,6.52,0,0,1-.43.81c-.25.29-.48-.14-.67-1.18a18.24,18.24,0,0,1-.24-2c0-.81,0-1.76.09-2.82a40.18,40.18,0,0,1,2.11-9.34,56.2,56.2,0,0,1,4.06-8.82,84,84,0,0,1,5.31-8.22c1.9-2.66,3.94-5.21,6-7.72,6.19-7.46,13-14.39,19.11-21.7Z"/><path class="cls-1" d="M110.49,485.93c-2.87,1.56-21.85,2.88-24.75,7.41-3.65,5.71,34.09-.14,37.22-6.88C113.93,487.34,110.49,485.93,110.49,485.93Z"/><path class="cls-1" d="M106.76,495.13a93.07,93.07,0,0,1-12.23,1.63,40.77,40.77,0,0,1-4.57.12,16.5,16.5,0,0,1-2.07-.21,10.32,10.32,0,0,1-1.16-.25,4.59,4.59,0,0,1-1.45-.67,2.29,2.29,0,0,1-.85-1.18,2.25,2.25,0,0,1,.18-1.44l.42-.64c.16-.21.37-.39.54-.58a3.53,3.53,0,0,1,.51-.43,5.22,5.22,0,0,1,.48-.33,16.91,16.91,0,0,1,3.82-1.65c1.28-.4,2.57-.73,3.85-1,2.29-.51,4.58-1,6.83-1.42l4.34-.88c1.43-.29,2.9-.53,4.21-.81.4-.09.55,0,.68.21a1.05,1.05,0,0,1-.24,1,6,6,0,0,1-3.64,2.08c-3,.58-5.94,1-8.86,1.59a50.71,50.71,0,0,0-8.47,2.13,8.06,8.06,0,0,0-1.11.52c-.16.1-.35.2-.47.29l-.2.15a.31.31,0,0,0-.1.08.69.69,0,0,0-.25.35.33.33,0,0,0,.21.35l.2.08.13,0,.25.06a11.7,11.7,0,0,0,1.26.16c.87.07,1.77.08,2.67.08a78.76,78.76,0,0,0,12-1.23c2.45-.43,4.89-.95,7.29-1.59a54.91,54.91,0,0,0,5.37-1.7c.43-.17.86-.34,1.29-.53l.6-.27.37-.17a7.75,7.75,0,0,0,1.35-.86,2.14,2.14,0,0,0,.57-.68l0-.09s0-.09,0-.06l-.26,0-.52.07-1.44.19-.64.06c-.45,0-.9,0-1.35,0-.65,0-1.3,0-2,0-2.47-.17-3.28-.61-3.62-1.36a1.94,1.94,0,0,1-.19-.52c0-.53.89-.59,2.56-.52,1.34.07,2.72.05,4.12,0l1.57-.07,2.19-.17c1.47-.1,3.14-.29,4.7-.44l-.3.66-.17.36-.3.56a14.07,14.07,0,0,1-1.07,1.86,9.11,9.11,0,0,1-2.13,1.9,16.55,16.55,0,0,1-1.55.9l-.83.43-.53.24a61.22,61.22,0,0,1-12,3.64Z"/><path class="cls-1" d="M181.28,486.74c2.37,6.58,26.57,14.84,35.34,11.2,5.73-2.38-26.69-14.5-28.54-13.42C186.46,485.47,182.53,486,181.28,486.74Z"/><path class="cls-1" d="M211,490.91a38.22,38.22,0,0,1,5.43,3.23l.36.27.52.45.46.48a5.61,5.61,0,0,1,.38.51,2.17,2.17,0,0,1,.21,2.19,1.88,1.88,0,0,1-.79.79l-1.15.52a13,13,0,0,1-1.92.46,23.15,23.15,0,0,1-4.68.24,55,55,0,0,1-15.45-3.69c-2.18-.85-4.36-1.73-6.45-2.79a28.83,28.83,0,0,1-3.94-2.29,9.77,9.77,0,0,1-3.22-3.54c-.41-1.08.31-1,1.13-.64a13.81,13.81,0,0,1,3.26,1.75,38.62,38.62,0,0,0,7.47,4.19,80.43,80.43,0,0,0,8.28,3.1,36.23,36.23,0,0,0,10.64,1.58,18,18,0,0,0,2.86-.25,4.63,4.63,0,0,0,.54-.11l.25-.06.14,0c.17-.05.41-.1.47-.31a.73.73,0,0,0-.26-.51l-.23-.21c-.16-.12-.34-.27-.54-.41a27.06,27.06,0,0,0-2.5-1.56c-2.15-1.2-4.41-2.28-6.69-3.28a112.66,112.66,0,0,0-10.55-4.09c-1.22-.39-2.44-.74-3.65-1-.61-.14-1.22-.27-1.81-.37-.3,0-.6-.08-.86-.09s-.3,0-.43.08a1.14,1.14,0,0,1-.22.13l-.28.13-.54.22c-.64.25-1.25.46-1.88.64-2.35.63-3,.66-3.65.27-.16-.1-.35-.15-.49-.24s-.18-.47.22-.83a5.56,5.56,0,0,1,1.89-1,27.83,27.83,0,0,0,4-1.52,3.22,3.22,0,0,1,.61-.24,3,3,0,0,1,.66-.06,3.42,3.42,0,0,1,.53,0l.42,0c.54.07,1,.17,1.53.28,1,.22,1.94.48,2.9.75,1.91.57,3.79,1.21,5.66,1.89a122.54,122.54,0,0,1,11.41,4.87Z"/><path class="cls-1" d="M172.58,276.82c-23.28,10-41.19,8.53-49.7,5.06-8.46,51.86-25.23,189.93-21,200.57,11.44,7,17.56,3.76,27.86,2.75s14.8-139.83,15.21-143.7c-.22,3.06,1.68,44.53,3,61.07,1.78,21.43,15.61,81.91,19.58,83.47,10.66,4.17,19.29-2.75,28.91-5.65C190.34,468.43,169.49,357.41,172.58,276.82Z"/><path class="cls-1" d="M147.26,409.59c-.38-2.82-.71-5.7-.9-8.54s-.4-5.67-.57-8.51c-.35-5.66-.65-11.33-.94-17l-.78-17-.33-8.5-.13-4.26-.05-2.14v-1.08l0-1.17,2.71.24-1.35,27.79q-.72,13.94-1.57,27.87c-.94,15-1.94,30.07-3.41,45.07-.74,7.42-1.57,14.83-2.67,22.22-.55,3.7-1.17,7.39-2,11.07a50.45,50.45,0,0,1-1.5,5.5,17.42,17.42,0,0,1-1.16,2.74,7,7,0,0,1-.93,1.38,3,3,0,0,1-1.88,1.06c-2.4.22-4.67.6-7.06,1a44,44,0,0,1-7.31.63,23.87,23.87,0,0,1-7.35-1.29,17.37,17.37,0,0,1-1.74-.67,17.09,17.09,0,0,1-1.69-.76c-.54-.29-1.11-.53-1.63-.85l-1.85-1.08c-.27-.07-.28-.36-.36-.59a6.61,6.61,0,0,1-.2-.69c-.07-.37-.15-.67-.18-1-.09-.63-.14-1.25-.19-1.86-.07-1.22-.11-2.44-.11-3.64,0-2.41.06-4.81.16-7.21.2-4.78.52-9.55.87-14.32,1.47-19.06,3.5-38,5.64-57,2.67-23.39,5.55-46.9,8.61-70.06q1.53-11.16,3-22.33l1.62-11.16.84-5.58,1-6.51.08-.51,0-.26a.76.76,0,0,1,.26.08l1.06.38,1.06.39.54.19.33.09,1.31.39,1.33.31a45,45,0,0,0,5.44.86,60.31,60.31,0,0,0,11.08,0,88.47,88.47,0,0,0,21.68-4.84c2.2-.73,3.73-1.37,4.76-1.68s1.5-.41,1.48-.27-.52.49-1.47,1a43.87,43.87,0,0,1-4.16,2.08,73.29,73.29,0,0,1-15.73,5.08A64.18,64.18,0,0,1,139.92,286a49.34,49.34,0,0,1-12.71-1.08c-1-.2-1.94-.5-2.91-.79l-.11,0s0,0,0,0l0,.15-.69,4.35L121.76,300q-1.67,11.37-3.21,22.75-3.1,22.77-5.92,45.6t-5.33,45.77c-1.64,15.29-3.22,30.62-4.29,46-.28,4.19-.52,8.4-.61,12.61,0,2.1,0,4.21.08,6.28,0,.51.07,1,.14,1.52a10.56,10.56,0,0,0,.2,1.11c0,.09.1.1.17.15l.62.36c.45.26.89.53,1.36.75a23,23,0,0,0,11.81,2.81c4.12-.16,8.42-1.19,12.74-1.59a.47.47,0,0,0,.29-.14,2.26,2.26,0,0,0,.44-.5,9.58,9.58,0,0,0,.8-1.5,28.92,28.92,0,0,0,1.19-3.51c.67-2.43,1.19-4.94,1.65-7.45.92-5.05,1.62-10.15,2.24-15.27,1.23-10.24,2.15-20.53,3-30.77,1.1-13.89,2-27.8,2.76-41.72l1.08-20.88.5-10.45c.17-3.5.29-6.91.52-10.5l1.94.17c0,1.56,0,3.35.07,5l.17,5.12.42,10.25q.47,10.25,1,20.49c.35,6.39.72,12.77,1.2,19.14s1.53,12.63,2.61,18.92c2.21,12.58,4.87,25.09,7.87,37.5,1.14,4.69,2.34,9.38,3.66,14,.66,2.32,1.35,4.64,2.11,6.92.39,1.14.79,2.27,1.23,3.37.22.55.46,1.1.71,1.61.13.27.26.51.4.75a2.92,2.92,0,0,0,.39.54c.12.13.24.14.56.25l.83.28a12.31,12.31,0,0,0,1.69.43,9.94,9.94,0,0,0,1.72.27l.87.09h.87a23.24,23.24,0,0,0,6.93-1.11,69.59,69.59,0,0,0,6.72-2.56l3.36-1.41c.57-.22,1.13-.46,1.71-.67l.86-.32.73-.26.51-.17.26-.08s.1,0,.1-.05l-.05-.12-.2-.46a5.1,5.1,0,0,1-.24-.62c-.43-1.16-.79-2.33-1.14-3.5-.69-2.34-1.29-4.7-1.88-7.05-1.15-4.72-2.17-9.45-3.15-14.19-1.94-9.48-3.65-19-5.23-28.47-4.84-29.52-8.53-58.65-10.7-88.16-.49-6.5-.87-12.86-1.17-19.43-.54-12.17-.51-20.21-.41-25.85a93,93,0,0,1,.83-11.49c.18-1.18.37-2.75.54-3.43.28-1.16.45.75.51,5.15s.11,11.33.33,20.21c.67,26.36,3,53.39,6.35,80.66q2.53,20.46,5.9,41.05c2.28,13.69,4.75,27.44,7.93,41,.59,2.51,1.21,5,1.9,7.48.33,1.25.71,2.46,1.08,3.67l.62,1.77.05.12c0,.12.07.19.1.26l.19.45.39.89.38.9.2.44c0,.07.11.17.05.21l-.23.07L195,482.6l-1.78.67c-1.18.46-2.36,1-3.56,1.47-2.39,1-4.83,2.06-7.42,2.88a25.87,25.87,0,0,1-8.18,1.33,13.81,13.81,0,0,1-2.12-.14,15,15,0,0,1-2.09-.37,14.25,14.25,0,0,1-2-.58l-.5-.17a2.1,2.1,0,0,1-.73-.33,1.21,1.21,0,0,1-.39-.28,2.73,2.73,0,0,1-.35-.33,6.28,6.28,0,0,1-.43-.59,21.92,21.92,0,0,1-1.79-3.86c-.47-1.25-.9-2.51-1.3-3.76-.81-2.51-1.54-5-2.24-7.56-2.78-10.09-5.13-20.27-7.31-30.48s-4.15-20.47-5.6-30.85Z"/><path class="cls-1" d="M213.09,71.49a31.25,31.25,0,0,0,6.11-23,20.35,20.35,0,0,0-.36-2.21l-.54-2.18c-.19-.72-.48-1.41-.72-2.11-.13-.36-.23-.71-.37-1.06l-.47-1A29.35,29.35,0,0,0,210,30.2a29.57,29.57,0,0,0-3-2.57c-.51-.41-1.09-.73-1.64-1.11a13.84,13.84,0,0,0-1.7-1l-1.77-.91c-.6-.26-1.22-.49-1.84-.74l-.92-.36-1-.27-1.91-.53-2-.33c-.32-.05-.65-.12-1-.16l-1-.06a27.19,27.19,0,0,0-13.75,2.48,32.82,32.82,0,0,0-13.25,11.89c-1,1.57-1.45,1.1-1.13-.64a15,15,0,0,1,4.31-7.37,31,31,0,0,1,17.67-8.64,28.74,28.74,0,0,1,5-.19l2.5.17,2.46.43a31.3,31.3,0,0,1,9.27,3.58,34.16,34.16,0,0,1,9.07,7.85,32.51,32.51,0,0,1,5.74,10.64,34,34,0,0,1-2.16,25.76,33,33,0,0,1-4.63,6.67,31.1,31.1,0,0,1-2.87,2.87c-.49.47-1.06.84-1.59,1.27a17.58,17.58,0,0,1-1.64,1.19,30.51,30.51,0,0,1-23.49,4.4,31.52,31.52,0,0,1-16.16-9.09,19.85,19.85,0,0,1-1.38-1.53A14.78,14.78,0,0,1,165,72.25a20.07,20.07,0,0,1-2.67-4.79A4.63,4.63,0,0,1,162,65a4.08,4.08,0,0,1,.14-.82c.14-.3.5,0,1,.73s1.19,2,2.11,3.48a31.21,31.21,0,0,0,11.42,10.93,28.33,28.33,0,0,0,27.23.1A28.69,28.69,0,0,0,213,71.47Z"/><path class="cls-3" d="M191.52,58.41s0,0,0,0-.1-.09-.1-.12l1.34-10.41s0-.06.12-.08l0,0a6.87,6.87,0,0,0-1.8-.36,6.44,6.44,0,0,0-1.83-.1s0,0,0,0,.1.08.1.11l-.06.43-1.28,10s0,.06-.12.08h0a6.87,6.87,0,0,0,1.8.36A6.69,6.69,0,0,0,191.52,58.41Z"/><path class="cls-3" d="M196.13,51.74l0,0c-.05.07-.09.11-.12.1l-10.78-1.38s-.06,0-.08-.12,0,0,0,0a6.75,6.75,0,0,0-.36,1.8,6.44,6.44,0,0,0-.1,1.83l0,0c.05-.07.09-.1.12-.1l.44.06,10.34,1.32s.06.05.08.12,0,0,0,0a6.63,6.63,0,0,0,.36-1.8A6.44,6.44,0,0,0,196.13,51.74Z"/><path class="cls-3" d="M343.28,384.17h0c-.08,0-.12,0-.13-.08L341,373.81s0-.07.09-.12l0,0a6.44,6.44,0,0,0-1.81.25,7.14,7.14,0,0,0-1.77.49s0,0,0,0,.12,0,.13.08l.09.41,2.06,9.86s0,.07-.09.12l0,0a6.44,6.44,0,0,0,1.81-.25A6.89,6.89,0,0,0,343.28,384.17Z"/><path class="cls-3" d="M345.45,376.37v0c0,.08-.05.13-.08.14l-10.64,2.22s-.07,0-.11-.09l0,0a6.49,6.49,0,0,0,.25,1.82,6.17,6.17,0,0,0,.5,1.76s0,0,0,0,.05-.13.08-.14l.43-.09,10.21-2.13s.07,0,.12.09l0,0a6.49,6.49,0,0,0-.25-1.82A6.17,6.17,0,0,0,345.45,376.37Z"/><path class="cls-3" d="M391,384.72s0,0,0,0-.1-.08-.09-.12l1.7-10.36s.05-.05.13-.07l0,0a6.59,6.59,0,0,0-1.79-.42,6.76,6.76,0,0,0-1.82-.17l0,0q.1.07.09.12l-.07.42L387.57,384s-.05,0-.13.07l0,0a6.59,6.59,0,0,0,1.79.42A6.76,6.76,0,0,0,391,384.72Z"/><path class="cls-3" d="M395.87,378.23s0,0,0,0-.08.1-.12.09L385,376.58s-.06-.05-.08-.13a0,0,0,0,0,0,0,12.87,12.87,0,0,0-.6,3.61s0,0,0,0,.08-.1.12-.09l.43.07,10.29,1.69s.06.05.08.13a0,0,0,0,0,0,0,12.87,12.87,0,0,0,.6-3.61Z"/><path class="cls-1" d="M147.46,170.15c-1.9,19.9,18.26,14.07,18.26,11C157.35,182.17,153.51,180.24,147.46,170.15Z"/><path class="cls-1" d="M163,179.91c.85,0,1.72,0,2.59-.11l1.71-.12-.13,1.52a2.92,2.92,0,0,1-.2.87,4.52,4.52,0,0,1-.34.57,4.23,4.23,0,0,1-.71.7,7.62,7.62,0,0,1-1.38.84,13.4,13.4,0,0,1-2.78.94,16.46,16.46,0,0,1-3.12.48,13.3,13.3,0,0,1-5.52-1,9.77,9.77,0,0,1-4.37-3.56,15.27,15.27,0,0,1-2.15-10.57c.12-.62.73-.46,1.3.09a3.82,3.82,0,0,1,1.12,2.5c.1,3.66,1.1,7.17,4.08,9a9.92,9.92,0,0,0,6.43,1,13.71,13.71,0,0,0,3.19-.74,6.56,6.56,0,0,0,1.41-.67,2.28,2.28,0,0,0,.52-.4.49.49,0,0,0,.13-.15s0-.05,0,0a.44.44,0,0,0,.26,0l.79.93-1,.07a21.75,21.75,0,0,1-5.15-.18,13,13,0,0,1-7-3.62,37.4,37.4,0,0,1-4-4.37c-.25-.34-.52-.67-.77-1-.91-1.33-1-1.86-.65-2.48a1.91,1.91,0,0,1,.26-.41c.34-.38,1-.05,1.75.84,2.15,2.58,4.24,5.46,6.87,7.19a10.19,10.19,0,0,0,3.15,1.37,16.46,16.46,0,0,0,3.63.33Z"/><path class="cls-1" d="M384.36,392.32q-9.6.36-19.21,1l-7,.54-24.72,1.73-11,.77c-2.34.14-4.69.31-7.06.33a28.75,28.75,0,0,1-7.17-.61c-1.54-.46-1-1,.25-1.28a24.86,24.86,0,0,1,6.08-.74c4.68,0,9.42-.31,14.18-.58l14.33-.83c5.75-.3,11.71-.92,17.58-1.35,6.46-.46,12.93-.87,19.4-1.18q6-.28,12-.46c6-.17,12.11-.19,18.11-.11,4.67.06,9.25.08,13.87.39,1,.05,2,.11,3,.22a23.09,23.09,0,0,1,4,.62,3.4,3.4,0,0,1,1.68.89,3.58,3.58,0,0,1,.47.51c.27.54-1.31.72-4,.48-4.08-.28-8.26-.49-12.51-.63s-8.56-.19-12.9-.16c-6.43,0-12.9.19-19.36.49Z"/><path class="cls-1" d="M422.67,445.86l3.39-11.45,1.14-4.2c1.42-4.92,2.85-9.83,4.1-14.78.55-2.19,1-4.42,1.39-6.63.24-1.42.42-2.84.59-4.25a33,33,0,0,0,.28-4.06c-.05-.61.5-1,1.28-.25a5.21,5.21,0,0,1,1.12,4.09,73.41,73.41,0,0,1-1.64,8.89c-.7,2.91-1.5,5.78-2.38,8.64-1.06,3.43-1.91,7.05-2.9,10.56L425.68,444c-.69,2.37-1.39,4.75-2.08,7.11-1,3.6-2.11,7.2-3,10.79-.71,2.79-1.27,5.56-1.82,8.34-.12.62-.23,1.22-.34,1.83-.44,2.28-.68,2.92-1.35,3.34a3.66,3.66,0,0,1-.47.3c-.51.25-.89-.87-.68-2.64a113.39,113.39,0,0,1,3.41-15.61c1.06-3.87,2.19-7.74,3.3-11.6Z"/><path class="cls-1" d="M351,448.31,349,437c-.24-1.38-.56-2.75-.8-4.13l-2.49-14.62c-.37-2.16-.79-4.33-1.22-6.46a43.72,43.72,0,0,1-1.23-8.42c0-.93.64-.76,1.3-.07a6,6,0,0,1,1,1.38,6.48,6.48,0,0,1,.68,2.06c.94,5.56,1.95,11.19,2.71,16.89.47,3.41,1.27,6.9,1.91,10.36l2.07,11.42c.43,2.35.85,4.69,1.27,7,.66,3.54,1.27,7.12,2,10.63.52,2.74,1.18,5.4,1.73,8.11.13.59.25,1.18.35,1.79.39,2.24.23,3.11-.36,3.6a2.37,2.37,0,0,1-.41.33c-.49.19-.93-.66-1.26-2.21-1.09-4.74-2.12-9.82-3.09-14.92q-1.07-5.7-2.14-11.42Z"/><g class="cls-2"><path class="cls-1" d="M349.59,448.25l-2.06-11.34-.81-4.12-2.57-14.6c-.38-2.16-.79-4.33-1.22-6.47a51.13,51.13,0,0,1-1.23-8.38c0-.92.48-.76,1-.06a6.35,6.35,0,0,1,.78,1.4,8.44,8.44,0,0,1,.6,2.09c.93,5.58,2,11.19,2.8,16.88.51,3.4,1.29,6.9,1.93,10.36l2.12,11.41q.66,3.52,1.3,7c.67,3.55,1.29,7.12,2,10.63.52,2.74,1.14,5.4,1.66,8.12.13.59.24,1.18.34,1.79.38,2.24.26,3.07-.19,3.56a2,2,0,0,1-.32.33c-.38.2-.73-.67-1-2.24-1-4.77-2-9.85-3-15q-1.08-5.7-2.15-11.42Z"/></g><path class="cls-1" d="M390.22,445.66c.27-3.59.51-7.19.69-10.79.07-1.31.06-2.63.13-3.94.22-4.63.45-9.26.51-13.89.05-2.05-.05-4.11-.13-6.15-.19-2.57-.38-5.13-.57-7.73,0-.79.59-.84,1.28-.25a4.37,4.37,0,0,1,1,1.35,5.89,5.89,0,0,1,.56,2.06,113.12,113.12,0,0,1-.05,16.26c-.21,3.24-.18,6.61-.32,9.92-.15,3.65-.37,7.29-.6,10.92q-.24,3.36-.47,6.72c-.12,1.69-.26,3.39-.4,5.08l-.42,5.06c-.08,1.31-.17,2.61-.25,3.91s-.14,2.59-.28,3.89c-.05.57-.08,1.13-.15,1.71-.28,2.14-.6,2.8-1.3,3.12a2.19,2.19,0,0,1-.48.21c-.52.1-.77-.83-.65-2.36.3-4.55.66-9.38,1-14.23.26-3.61.55-7.24.76-10.87Z"/><path class="cls-1" d="M382.71,420c-5.63.36-11.26.6-16.89.77-2.06.07-4.11.19-6.16.23-7.24.12-14.49.08-21.72-.06l-9.64-.14c-2.05,0-4.1-.05-6.16-.15a35.25,35.25,0,0,1-6.22-.73,1.85,1.85,0,0,1-.76-.37c-.22-.19-.24-.33-.16-.42a1.57,1.57,0,0,1,.45-.22c.19-.09.42-.18.7-.28a14.5,14.5,0,0,1,5.4-.65c8.26.42,16.59.55,25,.81,5,.14,10.25-.08,15.39-.23,5.65-.15,11.3-.37,16.94-.69,3.47-.2,6.95-.44,10.41-.74,5.24-.46,10.51-1,15.67-1.81,4-.63,7.89-1.5,11.76-2.5l2.52-.7c3.16-.88,4.17-1.08,5-.69a3.25,3.25,0,0,1,.59.27c.46.36-.69,1.22-3,2a112.33,112.33,0,0,1-22.1,4.7c-5.65.72-11.34,1.21-17,1.62Z"/><path class="cls-1" d="M383.85,444.48c-4.59.37-9.18.56-13.78.69-1.67,0-3.35.12-5,.14-5.91,0-11.8-.21-17.67-.37-2.61-.06-5.22-.05-7.8,0-3.31.08-6.61.38-9.9.43-1,0-1-.62-.15-1.29a7.78,7.78,0,0,1,4.36-1.51,192.09,192.09,0,0,1,20.51.29c4.09.21,8.34.11,12.51,0,4.58,0,9.17-.25,13.75-.55,2.82-.2,5.63-.43,8.44-.74,2.12-.26,4.26-.48,6.38-.76s4.23-.64,6.33-1c3.24-.64,6.4-1.35,9.57-2.15l2.07-.53c2.62-.62,3.49-.64,4.2-.14a3,3,0,0,1,.47.34c.37.43-.62,1.06-2.52,1.63-2.82.84-5.75,1.63-8.76,2.23-1.5.32-3,.63-4.54.92l-4.6.75c-2.29.39-4.6.64-6.9.92s-4.63.49-6.94.71Z"/><path class="cls-1" d="M377.78,469c-2.75.12-5.49.2-8.24.21-1,0-2,.08-3,.06-3.53,0-7.06-.24-10.57-.51-1.57-.1-3.14-.2-4.69-.25l-3-.16a19.89,19.89,0,0,1-3-.44c-1.21-.3.62-2.43,2.86-2.22,4,.35,8,.67,12,1.08a70.57,70.57,0,0,0,7.43.13c2.73,0,5.47-.05,8.2-.18,1.68-.06,3.37-.15,5.05-.28,2.54-.19,5.1-.4,7.61-.74,1.95-.27,3.84-.7,5.75-1.09l1.26-.27c1.57-.29,2.1-.21,2.54.37a2.78,2.78,0,0,1,.3.4c.23.46-.35,1-1.5,1.3a67.13,67.13,0,0,1-10.76,2c-2.75.32-5.52.52-8.29.69Z"/><path class="cls-1" d="M349.72,364.32c-.55-.17-1.1-.38-1.67-.53l-1.71-.33c-.29-.06-.58-.13-.87-.17l-.87-.07-1.76-.14a27.83,27.83,0,0,0-7,.79c-.42.1-.85.19-1.26.31l-1.24.45-1.23.44a7.81,7.81,0,0,0-1.21.48,29.25,29.25,0,0,0-7.81,4.77,24.94,24.94,0,0,0-5.74,7.16,24.19,24.19,0,0,0-2.66,7.74,30,30,0,0,0,.22,10.36c.18,1.05-.44,1.14-1.25.35a5.16,5.16,0,0,1-1.23-1.83,9.27,9.27,0,0,1-.47-1.35,9.87,9.87,0,0,1-.21-1.58A27.65,27.65,0,0,1,320,370.05a33.18,33.18,0,0,1,11.89-7.44,28.74,28.74,0,0,1,15.26-1.39,27,27,0,0,1,4.59,1.29l2.17,1a23.32,23.32,0,0,1,2.06,1.18,30.67,30.67,0,0,1,9.8,10.25,49.87,49.87,0,0,1,4.66,9.79l.79,2.25c.73,2.88.77,3.85.29,4.59a2.78,2.78,0,0,1-.33.49c-.43.36-1.1-.71-1.71-2.72-1.9-5.92-4.32-12.08-8.44-17a24.15,24.15,0,0,0-11.36-8Z"/><path class="cls-1" d="M407.84,366.82a22.86,22.86,0,0,0-9.53-4.37,27.51,27.51,0,0,0-3.86-.53,25.85,25.85,0,0,0-13.3,3.13,31.74,31.74,0,0,0-5.23,3.41c-2.1,1.65-3.95,3.57-5.9,5.37-.61.56-1,.08-1-.85a5.33,5.33,0,0,1,1.73-3.48,36.11,36.11,0,0,1,14.82-8.7,26.15,26.15,0,0,1,10.63-1.09,35.06,35.06,0,0,1,5.68,1.29,25.46,25.46,0,0,1,5.31,2.49,24.44,24.44,0,0,1,5.43,4.7,33.5,33.5,0,0,1,5.38,9.27c.57,1.26,1,2.55,1.46,3.83s.82,2.59,1.21,3.89a17.65,17.65,0,0,1,.46,1.73c.43,2.19.4,2.93-.16,3.49a2.16,2.16,0,0,1-.37.37c-.46.28-1-.54-1.44-2.07a70,70,0,0,0-4.82-13.58,25.06,25.06,0,0,0-6.54-8.25Z"/><path class="cls-1" d="M310.14,350.48c-1.17-2.16,1.3-5.57,3.54-6,.33-.07,1.68-.34,1.69-.82s-.84-.39-1.18-.33a10.27,10.27,0,0,0-5.53,3c-1.21,1.28-2.36,3.21-1.42,4.95.41.75,3.17-.29,2.9-.78Z"/><path class="cls-1" d="M299.54,352.33c-.76-4.78,3.51-9.68,8.2-10.25,1.54-.19,2.29-2.18.31-1.94-6.12.75-12.46,6.37-11.4,13,.19,1.21,3.1.5,2.89-.78Z"/><path class="cls-1" d="M408.79,339.58a3.51,3.51,0,0,1,4.27,1.23c.45.6,1.22,2.2.57,2.76s-.23,1,.33,1.22a2.23,2.23,0,0,0,2.05-.55c1.51-1.31.55-3.76-.57-5-2.06-2.27-5.21-2.15-7.86-1.12-.49.19-1.12.79-.73,1.33s1.43.32,1.94.12Z"/><path class="cls-1" d="M412.65,331.35c5.92-.69,11.1,5.86,7.73,11.31-.64,1,2.22.69,2.67,0a8.46,8.46,0,0,0-.19-8.93c-2.15-3.39-6-4.2-9.77-3.76-1.32.15-2.47,1.65-.44,1.41Z"/><path class="cls-1" d="M346.28,485.43c-4.66-.14-9.32-.38-14-.9a65.35,65.35,0,0,1-7-1.09,24.94,24.94,0,0,1-3.52-1,9.42,9.42,0,0,1-1.79-.86,8.69,8.69,0,0,1-1.1-.86,7.39,7.39,0,0,1-.39-1.23l-2.7-9.77q-4.59-17.28-8.63-34.71c-1.18-5.16-2.36-10.35-3.43-15.5-.68-3.31-1.34-6.63-1.85-10a46.11,46.11,0,0,1-.63-10.27c.32-2.25.89-1.71,1.3,0a73.25,73.25,0,0,1,1.77,8.66c.94,6.72,2.34,13.44,3.77,20.15s3,13.43,4.55,20.18c1.86,8.08,4.22,16.38,6.45,24.56l1.76,6.48c0,.06.07.08.1.12l.18.12a4.88,4.88,0,0,0,.64.37,15.4,15.4,0,0,0,1.49.59,28.43,28.43,0,0,0,3.27.83,104.68,104.68,0,0,0,13.77,1.5c5.71.31,11.45.38,17.17.33,8.68-.1,17.41-.44,26-1.16,6.68-.58,13.2-1.42,19.69-2.56,1.43-.25,2.82-.55,4.25-.83,5.29-1.1,6.85-1.59,8.17-1.38a5.27,5.27,0,0,1,.88.11c.71.21-1.26,1.67-5.21,2.74a130.82,130.82,0,0,1-18.06,3.28c-6.17.75-12.44,1.27-18.74,1.63-9.34.53-18.75.72-28.15.51Z"/><g class="cls-2"><path class="cls-1" d="M309.28,450.51q-1.5-6.25-2.92-12.55l-1.07-4.57q-1.73-8.11-3.11-16.29c-.39-2.43-.83-4.85-1.17-7.27-.22-1.56-.44-3.12-.56-4.7a19.43,19.43,0,0,1,.12-4.81c.19-1,.64-.75,1,.1a12.86,12.86,0,0,1,.88,4c.45,6.21,1.59,12.48,2.59,18.79.63,3.78,1.58,7.66,2.43,11.49q1.42,6.31,2.93,12.61c.63,2.58,1.27,5.17,1.9,7.74,1,3.91,2,7.83,3.06,11.67.84,3,1.78,5.89,2.68,8.83l.6,1.93c.71,2.42.81,3.23.47,3.89a2,2,0,0,1-.23.44c-.31.33-.88-.57-1.49-2.33-1.81-5.19-3.4-10.77-4.92-16.38-1.13-4.18-2.19-8.39-3.24-12.59Z"/></g><path class="cls-1" d="M408.75,479.44c-19.33,7.91-85.91,17.91-100.3,5-4.6-4.13,2.48-7.91,10-10.66.72,2.54,1.22,5.34,1.44,6.15C326.38,486.29,384.85,484.42,408.75,479.44Z"/><path class="cls-1" d="M324.66,483.48a23.3,23.3,0,0,1-3-.92,12,12,0,0,1-1.55-.73,5.57,5.57,0,0,1-.91-.66,5,5,0,0,1-.54-.45l-.17-.67L317.8,477l-.29-1.31-.18.06-.2.07-.6.24c-.8.31-1.59.65-2.37,1a21.65,21.65,0,0,0-4.27,2.49,5.15,5.15,0,0,0-1.39,1.54,1.37,1.37,0,0,0,0,1.38,4.15,4.15,0,0,0,1.41,1.49c.33.23.61.51,1,.71l1.07.61a7.82,7.82,0,0,0,1.27.61c.44.18.86.41,1.32.55.92.29,1.81.65,2.77.86s1.89.49,2.85.66l1.45.29,1.46.22a121.07,121.07,0,0,0,21,1.06c7-.16,14.09-.72,21.1-1.51,6.22-.71,12.45-1.69,18.55-2.87,3.92-.76,7.82-1.65,11.69-2.62s7.73-2,11.48-3.23c2.31-.8,2.27-.12.49,1.21a31,31,0,0,1-9.91,4.23,230.7,230.7,0,0,1-24.26,4.68,235.72,235.72,0,0,1-24.67,2.22c-5,.17-10,.26-15.13.08a81.37,81.37,0,0,1-15.28-1.78,33.31,33.31,0,0,1-7-2.45l-1.65-.95c-.52-.37-1-.78-1.53-1.18a5.87,5.87,0,0,1-1.38-1.6,3.8,3.8,0,0,1-.53-2.34,4.43,4.43,0,0,1,.88-2.11,8.6,8.6,0,0,1,1.41-1.47,19.43,19.43,0,0,1,3.17-2.05c1.09-.57,2.2-1.08,3.32-1.55l1.72-.69,2.62-1,.48,1.76.21.85.16.67.49,2.31.24,1.12a.28.28,0,0,0,.13.24l.11.07.19.16c.33.17.67.35,1,.51l1.13.42a36.52,36.52,0,0,0,4.86,1.1c3.32.55,6.71.85,10.1,1.07a294.92,294.92,0,0,0,30.9.05c8-.38,15.74-1.11,23.54-2.06l5.12-.69c6.4-.91,8.42-1.18,9.91-.81a5.78,5.78,0,0,1,1,.25c.72.35-1.8,1.35-6.52,2.21-7,1.27-14.22,2.11-21.57,2.72s-14.82.95-22.32,1.09c-5.57.1-11.16.05-16.75-.18a102.33,102.33,0,0,1-16.86-1.86Z"/><path class="cls-1" d="M143.13,226.08c-.06-.05-.1-.07,0,0s.23.08.21.08h0l-.21,0h-.25a.66.66,0,0,0-.26.05l.1-.11.06-.11c0-.07,0-.05,0,0s.06,0,.12,0,.14-.24.28,0a8.74,8.74,0,0,1,.21,1.44c0,.66,0,1.33-.19,1.35a1.94,1.94,0,0,1-1-.15,2,2,0,0,1-1-1,2.85,2.85,0,0,1-.44-1.65,2.34,2.34,0,0,1,.64-1.16,2.57,2.57,0,0,1,.62-.43c.3-.16.59-.19.82-.31s.29-.32.42-.48,0-.1.07-.12.19.08.44.75l.17.46a2.38,2.38,0,0,1,.21,1.16,1.14,1.14,0,0,1-.53.75s0,.06-.1,0a1.43,1.43,0,0,0-.19-.27.79.79,0,0,0-.12-.13Z"/><path class="cls-1" d="M142.65,234.09c.06,0,.2.06.19.07s-.05,0-.07,0l0,0h0l-.83-.11h-.08c-.13,0-.14,0-.18,0s.05,0,.14-.16a1.79,1.79,0,0,0,.22-.53l0-.09v0s0,0,0,.06a.64.64,0,0,0,.28.22.42.42,0,0,0,.34,0c.14-.07.26-.28.46,0s.43,2.73.17,2.79a1.7,1.7,0,0,1-1.46-.38,1.63,1.63,0,0,0-.55-.25,1.77,1.77,0,0,1-.79-.48,1.56,1.56,0,0,1-.38-1.27,1.34,1.34,0,0,1,0-.2l.06-.13c0-.09.08-.18.12-.27a3,3,0,0,1,.45-.62,4.3,4.3,0,0,1,.89-.61,2.79,2.79,0,0,0,.47-.55s.06-.1.09-.12.22.07.48.73l.17.46a2.69,2.69,0,0,1,.22,1.15,2.79,2.79,0,0,1-.21.56.91.91,0,0,1-.06.11v0a1.35,1.35,0,0,0-.13-.21C142.45,233.89,142.39,234,142.65,234.09Z"/><path class="cls-1" d="M151,284.9a72.23,72.23,0,0,1-12.12,1,51.38,51.38,0,0,1-12.13-1.44c-2.89-.79-5.83-1.64-8.42-3.68a7.16,7.16,0,0,1-1.56-1.74,3.84,3.84,0,0,1-.48-1.36,2.5,2.5,0,0,1,0-.57v-.5l0-2,.12-2c.17-2.6.55-5.16,1-7.71.86-5.09,2-10.09,3.26-15.07,1.11-4.41,2.26-8.84,3.47-13.19,1.54-5.58,3.08-11.21,5.17-16.62,1.31-3.37,2,1.7,0,8-3.43,11.26-6.68,22.58-9.15,34.13a73.5,73.5,0,0,0-1.49,10.6c0,.89-.12,1.79-.08,2.67a7.41,7.41,0,0,0,.18,2.22,4.91,4.91,0,0,0,1.52,1.54,13.42,13.42,0,0,0,2.19,1.26,35.93,35.93,0,0,0,11.26,2.78,61.42,61.42,0,0,0,11.82,0,81,81,0,0,0,14.38-2.7c2.58-.74,5.16-1.54,7.68-2.5,1.28-.45,2.52-1,3.77-1.46.63-.25,1.24-.52,1.86-.79l1.71-.76c.06,0,.14-.05.19-.1a.35.35,0,0,0,.1-.19,2.31,2.31,0,0,0,.09-.47c.06-.47.09-1,.11-1.47,0-1,0-2,0-3-.09-5.74-.56-11.37-.85-17.07-.07-1.26-.15-2.49-.18-3.76-.14-4.7.14-6.29.93-7.25.18-.22.39-.5.58-.56s.36.22.46,1,.17,2.11.24,3.8c.22,4.76.58,9.68.84,14.68.12,2.5.24,5,.3,7.58,0,1.28.05,2.56,0,3.87,0,.66,0,1.32-.1,2l-.06.55a6.5,6.5,0,0,1-.2.91,2.36,2.36,0,0,1-.4.81,3.18,3.18,0,0,1-.7.57l-1.95.87A96.94,96.94,0,0,1,151,285Z"/><path class="cls-1" d="M149.43,141.24c-.2-.24-.11-.53.16-.85.09-.11.42-.22.5-.16a2.86,2.86,0,0,1,.41.36c.07.09.78,1.48,1.07,1.91s.49.86.73,1.29a6.52,6.52,0,0,0,1.72,2.1c.15.11.28.22.42.31.44.35,1.17.4,1.36.18,0,0,.09-.07.1-.15s0-.12.09-.23a3.17,3.17,0,0,0,.17-.56c.11-.46.14-1,.17-1.15a13.19,13.19,0,0,0,.18-2,.52.52,0,0,1,0-.3,1.13,1.13,0,0,0,.07-.65,7.06,7.06,0,0,1,0-.92,1.71,1.71,0,0,1,.15-.47c.05-.15.27-.08.3,0s.18,0,.27,0h.09a5.92,5.92,0,0,1,.32.86,7.79,7.79,0,0,1,.3,1s0,.19.06.44l.11,1a15.75,15.75,0,0,1,.08,1.64,1.57,1.57,0,0,1-.09.51,6.15,6.15,0,0,1-.28,1.29,3.58,3.58,0,0,1-.49.93c-.2.24-.41.39-.42.42a3,3,0,0,1-.94.45,2.23,2.23,0,0,1-.93,0,1.26,1.26,0,0,0-.33,0,4,4,0,0,1-2.38-1.24,8.23,8.23,0,0,1-.86-.92l-.11-.19c0-.08-.09-.17-.14-.24a19.61,19.61,0,0,1-1.36-2.43c-.11-.18-.35-1.16-.45-1.37S149.51,141.33,149.43,141.24Z"/><path class="cls-1" d="M163.72,141.21c-.2-.23-.1-.51.17-.83a.68.68,0,0,1,.5-.16,4.77,4.77,0,0,1,.4.35c.07.09.75,1.43,1,1.84s.46.83.69,1.23a5.43,5.43,0,0,0,1.63,2l.39.27a1.26,1.26,0,0,0,1.36.13s.1-.06.11-.14a.42.42,0,0,1,.1-.21,3.5,3.5,0,0,0,.19-.51,10.65,10.65,0,0,0,.22-1.07,11.58,11.58,0,0,0,.25-1.91c0-.09,0-.19,0-.28a1,1,0,0,0,.09-.62,6.5,6.5,0,0,1,0-.88,1.59,1.59,0,0,1,.15-.45c0-.13.28-.07.3,0s.18,0,.27,0a.17.17,0,0,1,.1,0,13.21,13.21,0,0,1,.57,1.82s0,.17.05.42,0,.57.08.92a13.21,13.21,0,0,1,0,1.59,1.3,1.3,0,0,1-.12.49,4.66,4.66,0,0,1-.34,1.24,3.48,3.48,0,0,1-.53.86,3.37,3.37,0,0,1-.43.37,3.08,3.08,0,0,1-.88.41,2.17,2.17,0,0,1-.88,0,1.65,1.65,0,0,0-.31,0,3.92,3.92,0,0,1-2.35-1.1,9,9,0,0,1-.86-.89.85.85,0,0,1-.1-.19c-.05-.07-.09-.16-.14-.23a18.21,18.21,0,0,1-1.3-2.35c-.1-.18-.32-1.12-.41-1.32S163.79,141.3,163.72,141.21Z"/><path class="cls-1" d="M162.55,143.59a15.67,15.67,0,0,1-.54-6,7.28,7.28,0,0,1,.13-1.11,10.84,10.84,0,0,1,.25-1.13,8.29,8.29,0,0,1,2.24-3.41,9.39,9.39,0,0,1,3.51-1.8,15.52,15.52,0,0,1,3.37-.51,11.59,11.59,0,0,1,2.19.12l.55.12.55.2a2.38,2.38,0,0,1,.55.28,2.2,2.2,0,0,1,.54.42c.45.52-.19.66-.75.89a2.74,2.74,0,0,1-1.71.43,10.4,10.4,0,0,0-6.91,1,5.16,5.16,0,0,0-2.27,3.57,12.61,12.61,0,0,0,0,5.19,14.92,14.92,0,0,0,1,3.14,22.87,22.87,0,0,0,2.55,4.41,39.06,39.06,0,0,0,2.62,3c.19.22.4.41.59.65.71.84.81,1.23.49,1.76a2.07,2.07,0,0,1-.22.35c-.29.34-.85.2-1.42-.34a30.55,30.55,0,0,1-4.85-5.78,22.39,22.39,0,0,1-2.55-5.41Z"/><path class="cls-1" d="M161.18,163.4c-.13-.11,0-.28.26-.47a1,1,0,0,1,.43-.12,1.58,1.58,0,0,1,.29.12,7.17,7.17,0,0,0,.62.73c.15.15.26.32.39.45a1.45,1.45,0,0,0,.39.39,1.92,1.92,0,0,0,.42.28,1.09,1.09,0,0,1,.17.13.61.61,0,0,0,.33.22.88.88,0,0,0,.4.05.14.14,0,0,0,.13,0,7.62,7.62,0,0,1,.93-.19,2.41,2.41,0,0,0,.84-.07s.07,0,.13,0,.21,0,.29,0a1.43,1.43,0,0,1,.34-.14.76.76,0,0,1,.25,0c.09,0,.22.17.22.2s.11.13.18.19l.07.06c.08.08-.46.95-.58,1a.79.79,0,0,1-.19.13,3.81,3.81,0,0,1-.43.25,7.71,7.71,0,0,1-.76.36.57.57,0,0,1-.26,0,5.53,5.53,0,0,1-1.25.22,1.17,1.17,0,0,1-.74-.2.3.3,0,0,0-.15,0,2.58,2.58,0,0,1-1.14-.61,3.37,3.37,0,0,1-.49-.42.53.53,0,0,1-.06-.1.54.54,0,0,0-.09-.12,7.36,7.36,0,0,1-.79-1.18c-.06-.09-.15-.6-.19-.7S161.24,163.43,161.18,163.4Z"/><path class="cls-1" d="M144.89,136.31c-.06.3-.44.37-.94.21a1.18,1.18,0,0,1-.51-.47,5.09,5.09,0,0,1,0-.56c0-.09.75-1.47,1-2a6.59,6.59,0,0,1,1-1.3,12.34,12.34,0,0,1,2.68-2.21,4,4,0,0,1,.73-.34c.45-.11.88-.27,1.31-.39s.89-.25,1.33-.33a1.21,1.21,0,0,0,.45-.12,6.4,6.4,0,0,1,3,.09c.37.16.75.27,1.09.45l1,.53c.1.05.22.07.27.18a1.15,1.15,0,0,0,.54.45,6.48,6.48,0,0,1,.76.53,1.58,1.58,0,0,1,.29.41c.08.13-.14.35-.2.36s-.13.19-.18.3a.3.3,0,0,1-.07.11,12.38,12.38,0,0,1-1.87-.29l-1.16-.32a10.23,10.23,0,0,0-1.3-.19c-.13,0-.25-.07-.37-.1s-.48,0-.91,0l-.87.17c-.35,0-.64.22-1,.12a.27.27,0,0,0-.21.05,7.43,7.43,0,0,1-.82.34l-.83.41c-.27.18-.51.39-.77.59l-.15.08a.64.64,0,0,0-.19.13,9.61,9.61,0,0,0-1.62,1.74c-.1.15-.83.74-.94,1S144.91,136.18,144.89,136.31Z"/><path class="cls-1" d="M138.81,94.37l-2.38.46-2.39.32c-.58.06-1.15.18-1.74.22a43.64,43.64,0,0,1-6.16-.13c-.91-.11-1.82-.14-2.74-.24a6.8,6.8,0,0,1-3.52-1c-.34-.24.05-.74.57-1.17a4.5,4.5,0,0,1,.8-.54,1.18,1.18,0,0,1,.84-.15c2,.46,4.2.68,6.44,1a9.45,9.45,0,0,0,2.06,0c.69,0,1.39-.12,2.08-.2s1.51-.15,2.27-.27,1.51-.23,2.26-.39c.93-.16,1.83-.43,2.75-.67a25.28,25.28,0,0,0,4-1.53,8.35,8.35,0,0,0,1.4-.86c.44-.32.89-.62,1.32-1,.18-.15.35-.32.54-.46.71-.52,1-.54,1.57-.13a3.65,3.65,0,0,1,.37.29c.36.35.29.89-.21,1.4s-.77.74-1.18,1.09-.88.62-1.34.91a21.24,21.24,0,0,1-2.92,1.52c-.76.31-1.53.57-2.31.85s-1.57.45-2.35.68Z"/><path class="cls-1" d="M207.79,117.86a24.21,24.21,0,0,1-3.31-1c-.39-.13-.79-.23-1.17-.39a37.1,37.1,0,0,1-3.81-2c-.54-.32-1.12-.58-1.68-.84a5.51,5.51,0,0,1-2.06-1.18c-.35-.38,1.35-2.08,2.13-1.67a32.37,32.37,0,0,1,4,2.45,10.76,10.76,0,0,0,2.6,1.14,22.25,22.25,0,0,0,3,.94l.94.21,1,.13c.48.06,1,.08,1.45.12a11.8,11.8,0,0,0,1.46-.07,7,7,0,0,0,1.1-.24l1.06-.36c.15,0,.3-.14.45-.18.58-.18.81-.07,1.1.52.07.13.14.26.2.4a.9.9,0,0,1-.41,1.18,9.29,9.29,0,0,1-4.45,1.11,17.3,17.3,0,0,1-3.52-.27Z"/><path class="cls-1" d="M159.6,48c0,.21-.23.27-.66.25a1,1,0,0,1-.53-.24,1.81,1.81,0,0,1-.14-.41,13.41,13.41,0,0,1,.35-1.53,4.3,4.3,0,0,1,.44-1,16.18,16.18,0,0,1,1.23-1.9,1.54,1.54,0,0,1,.36-.36,13,13,0,0,0,1.27-1.19c.07-.08.15-.13.18-.25a4.74,4.74,0,0,1,1.56-1.21,12.17,12.17,0,0,1,1.54-.43c.07,0,.13-.07.22,0a.58.58,0,0,0,.5,0,2,2,0,0,1,.65-.06.92.92,0,0,1,.35.14c.1,0,.1.33.08.37s0,.22.05.33a.45.45,0,0,1,0,.11,2.87,2.87,0,0,1-.47.42,4.76,4.76,0,0,1-.51.41,6.08,6.08,0,0,0-.69.38,5.08,5.08,0,0,0-.72.51.71.71,0,0,1-.25.11,9.63,9.63,0,0,0-.92.89c-.2.14-.33.36-.61.43a.24.24,0,0,0-.12.1c-.27.33-.6.63-.9,1a4.51,4.51,0,0,0-.39.55.39.39,0,0,1-.1.08s-.09.07-.11.11a8.73,8.73,0,0,0-.82,1.42c0,.11-.47.58-.51.72S159.58,47.87,159.6,48Z"/></g></svg>