<svg id="Layer_1" data-name="Layer 1" xmlns="http://www.w3.org/2000/svg" width="520" height="520" viewBox="0 0 520 520"><defs><style>.cls-1{fill:#221f1f;}.cls-2{fill:#232020;}</style></defs><title>Notioly v2</title><g id="_4.Taking_notes" data-name="4.Taking notes"><path class="cls-1" d="M335.79,94.88a6.64,6.64,0,0,1,1.49.06,3,3,0,0,1,.52,0,9.7,9.7,0,0,1,1.67.6,3.79,3.79,0,0,0,.73.21c.31.07.67.07.88.39s-.87,1.73-1.13,1.63a5.32,5.32,0,0,1-1.47-.77,2.16,2.16,0,0,0-1-.25,5.74,5.74,0,0,0-1.09-.1,3.6,3.6,0,0,0-.66.06,2.1,2.1,0,0,0-.9.4,1.75,1.75,0,0,0-.38.66s0,.12,0,.17-.22.15-.67-.08l-.31-.15c-.35-.18-.56-.43-.52-.68a2.37,2.37,0,0,1,1.3-1.71,4.49,4.49,0,0,1,1.55-.51Z"/><path class="cls-1" d="M178.61,144.56a14.09,14.09,0,0,1-5.41-1.9,23.82,23.82,0,0,1-4.4-3.36c-.49-.46-1-.94-1.41-1.43l-.68-.74-.62-.79a35,35,0,0,1-5.93-12.55c-.53-2-1-4-1.34-6a36.88,36.88,0,0,1-.75-7.77c.07-1.61,1.89.38,2.16,3.25a59,59,0,0,0,3.29,15,26.67,26.67,0,0,0,4.92,8,20.21,20.21,0,0,0,8.24,6,8.27,8.27,0,0,0,6-.07,10.5,10.5,0,0,0,3.7-2.85,18.35,18.35,0,0,0,2.6-4.06,28.41,28.41,0,0,0,2.25-7.09c.12-.53.17-1.06.27-1.6.3-2,.39-2.6.91-3a2.29,2.29,0,0,1,.36-.29c.37-.22.73.68.66,2.28a27.81,27.81,0,0,1-4.68,13.74,13.79,13.79,0,0,1-4.21,4,9.28,9.28,0,0,1-2.85,1.13,10,10,0,0,1-3,.15Z"/><path class="cls-1" d="M207.46,116.66c-2.38-5.42.67-16.91-.05-24.61-1-10.56-5.15-19.45-14.85-24.87-8.79-4.92-16.41-3.14-21.93,3.41-.21.23-17.32-14.57-31.31,5.27-5.43,7.7-7,18.47-7.38,27.69-.18,4.2,1.49,9.77-.27,13.73-3,6.87-8.91,14.43-5.59,22.19,5,11.62,28,17.08,40.76-3.73-5.83-7.24-7.81-17.22-8.13-26.28-.34-9.56,5.5-19.35,12.52-24.61,22,0,25.89,35.82,18.23,51.44,11.87,14.91,29.64,4.8,29.64-6.74C219.1,120.15,209.8,122,207.46,116.66ZM147,108.52c0-2.75,3.24-3.53,5.39-2.74a4.59,4.59,0,0,1,2.83,4.41c0,2.88.86,6.18.5,6.18C151.36,116.37,146.89,114.3,147,108.52Z"/><path class="cls-1" d="M160.71,118.8A38.31,38.31,0,0,0,166,133c.34.53.7,1,1.08,1.54l.54.72.28.36a.53.53,0,0,1,.06.1l-.06.09-.12.19-.82,1.25c-.36.56-.74,1.11-1.15,1.64s-.79,1.08-1.24,1.58a30.37,30.37,0,0,1-5.88,5.49,26.21,26.21,0,0,1-7.22,3.59,25.26,25.26,0,0,1-8,1.1,22.27,22.27,0,0,1-14.76-5.95,15.83,15.83,0,0,1-3.44-4.91,13.37,13.37,0,0,1-1-5.95c.25-4.07,2-7.68,3.73-11.06.77-1.5,1.56-3,2.29-4.46a19,19,0,0,0,.94-2.19,10.76,10.76,0,0,0,.4-2.29c.24-3.2-.53-6.5-.47-10a70.09,70.09,0,0,1,3.37-20,33.47,33.47,0,0,1,4.73-9.06,27.46,27.46,0,0,1,7.41-7.08,18.19,18.19,0,0,1,9.87-2.82,22.85,22.85,0,0,1,9.91,2.56c.86.43,1.69.9,2.51,1.4.39.24.82.52,1.17.76s.4.36.54.07l.49-.54c.21-.24.46-.45.69-.68a15.89,15.89,0,0,1,1.46-1.26,17.65,17.65,0,0,1,1.6-1.12,16.64,16.64,0,0,1,1.72-.91A15.68,15.68,0,0,1,180.37,64a15.85,15.85,0,0,1,3.89-.14A20.2,20.2,0,0,1,191.62,66,30.65,30.65,0,0,1,198,70.24a28,28,0,0,1,3.95,4.26,28.57,28.57,0,0,1,3,5,36.8,36.8,0,0,1,3,11.15c1,7.76-1.24,15.34-.66,22.73.24,2.27.66,3.15.45,3.17s-.87-1-1.31-3a34.24,34.24,0,0,1-.43-8.36c.11-3.45.55-7.47.44-11.7a37,37,0,0,0-3-13,26.06,26.06,0,0,0-8.22-10.29c-3.59-2.61-7.79-4.65-12.13-4.73a13.77,13.77,0,0,0-6.23,1.42,16.05,16.05,0,0,0-2.72,1.77l-.64.52-.6.57a8.07,8.07,0,0,0-.59.58l-.85.93c-.13.09-.27.15-.4.23l-.21.11,0,0c0,.14,0-.19,0-.15h0l-.1,0-.21,0a1,1,0,0,1-.24,0,3.24,3.24,0,0,1-.47-.28l-1.17-.77c-.63-.41-1.28-.79-1.95-1.15a24.82,24.82,0,0,0-4.13-1.8,18.3,18.3,0,0,0-8.79-.82,17.77,17.77,0,0,0-8,3.68,29,29,0,0,0-6.1,6.76,37.81,37.81,0,0,0-5.12,12.77,79.44,79.44,0,0,0-1.69,14c0,2.29.37,4.68.5,7.12a20.29,20.29,0,0,1-.08,3.73,12.73,12.73,0,0,1-.4,1.89c-.1.31-.23.61-.35.92l-.38.83c-2.06,4.39-4.7,8.46-5.75,13a15,15,0,0,0-.39,3.71,11.44,11.44,0,0,0,.24,1.84l.2.9.31.87a14,14,0,0,0,4.43,5.93,21.46,21.46,0,0,0,14.27,4.42,23.29,23.29,0,0,0,7.45-1.62,25.47,25.47,0,0,0,6.58-3.9,30.81,30.81,0,0,0,5.28-5.6c.4-.51.76-1,1.11-1.59l.35-.53c.08-.07,0-.12-.05-.18l-.15-.2a29.86,29.86,0,0,1-2.2-3.36,46.57,46.57,0,0,1-5.26-18.78,29.07,29.07,0,0,1,3.89-19,34.41,34.41,0,0,1,4.39-6,31.46,31.46,0,0,1,2.67-2.62,8.38,8.38,0,0,1,.72-.59l.81-.65c.15-.21.4-.14.61-.13l.52,0,.94.06a17.6,17.6,0,0,1,7.17,2.21,19.87,19.87,0,0,1,5.67,4.89,34.88,34.88,0,0,1,6.21,13.4,56.35,56.35,0,0,1,1.52,14.62A50.23,50.23,0,0,1,192,130.82c-.22.92-.52,1.83-.82,2.73l-.5,1.34-.5,1.14-.07.17.11.14.35.4c.29.35.6.68.92,1a21.8,21.8,0,0,0,2,1.83,15.42,15.42,0,0,0,19.83-.1,14,14,0,0,0,4.83-7.79c.07-.35.1-.7.16-1s0-.68.05-1a15.68,15.68,0,0,0-.16-1.89,7.27,7.27,0,0,0-1.15-2.95,11.07,11.07,0,0,0-3.87-3,31.39,31.39,0,0,1-3.06-1.74,9.13,9.13,0,0,1-1-.83,6.13,6.13,0,0,1-.73-.85,8.11,8.11,0,0,1-.51-.86,5.7,5.7,0,0,1-.26-.75c-.07-.28.06-.23.33.1a6.43,6.43,0,0,0,1.55,1.54,20.49,20.49,0,0,0,3.67,1.91,12.57,12.57,0,0,1,5.12,3.6,9.08,9.08,0,0,1,1.62,5.16,12.14,12.14,0,0,1-.9,5.29,16.43,16.43,0,0,1-7,8,17,17,0,0,1-10.49,2.31,17.87,17.87,0,0,1-9.85-4.53,25.11,25.11,0,0,1-1.95-1.91l-1.12-1.31-.21-.24-.1-.12s-.08-.08,0-.14l.27-.58.39-.88a30.44,30.44,0,0,0,1.62-4.8A47.37,47.37,0,0,0,191.92,120a50.53,50.53,0,0,0-3.27-20.29c-1.91-4.68-4.86-9.1-9.17-11.58a16.11,16.11,0,0,0-7-2.1l-.86,0h0l-.2.16c-.5.39-1,.79-1.45,1.23a32.54,32.54,0,0,0-2.66,2.72,31.66,31.66,0,0,0-6.92,13.44,22.78,22.78,0,0,0-.54,3.74,30.52,30.52,0,0,0,0,3.82,62.14,62.14,0,0,0,.91,7.71Z"/><path class="cls-1" d="M154.61,115.31s.13.06.12,0,0,0,0-.08v-.06l0-.31c-.1-.81-.19-1.64-.25-2.48-.05-.61-.12-1.23-.11-1.86,0-.3,0-.52,0-.74a3.72,3.72,0,0,0-.08-.66,4.06,4.06,0,0,0-.46-1.26,3.43,3.43,0,0,0-2-1.64,4.06,4.06,0,0,0-2.44.06,2.93,2.93,0,0,0-1.19.81,3.16,3.16,0,0,0-.61,1.23c-.08.28-.49.3-.86-.08a1.6,1.6,0,0,1,0-2.1,4.28,4.28,0,0,1,2-1.39,5.59,5.59,0,0,1,2.2-.31A5.43,5.43,0,0,1,153,105a4.77,4.77,0,0,1,1.71,1.43,6.45,6.45,0,0,1,1.08,2.35,5.06,5.06,0,0,1,.17,1.28l0,1.1c0,.8.1,1.6.19,2.41l.14,1.23c0,.15.07.57.09.86a2.27,2.27,0,0,1-.07.85c0,.38-.51.33-.82.37a4.2,4.2,0,0,1-.51,0l-.56,0a11.74,11.74,0,0,1-1.57-.29,9,9,0,0,1-4.25-2.3,7.86,7.86,0,0,1-2-3.21,3.89,3.89,0,0,1-.22-.81,2.43,2.43,0,0,1,0-1.1.75.75,0,0,1,.41-.49,1.23,1.23,0,0,1,.29-.13c.32-.09.61.3.73.94a7,7,0,0,0,3,4.55,9.23,9.23,0,0,0,2,.88c.36.09.72.19,1.09.25s.89.11.76.11Z"/><path class="cls-1" d="M188.55,453.73c.09,1.34.07,4.25-1.09,5.16-2.23,1.76-3.13-11.15,1-11.59,4.67,3.26,27.88,10.59,22.06,13C203.51,463.11,193.78,457.88,188.55,453.73Z"/><path class="cls-1" d="M209.4,458.56a30.32,30.32,0,0,0-4.49-2.59c-1.59-.79-3.22-1.54-4.86-2.27l-3.63-1.55q-2.1-.93-4.19-1.92c-.7-.34-1.4-.68-2.09-1-.34-.18-.69-.37-1-.57l-.52-.31c-.11-.07-.15-.11-.22-.16a.8.8,0,0,0-.47.16,2.65,2.65,0,0,0-.59.68,6.69,6.69,0,0,0-.76,2,14.19,14.19,0,0,0,0,5.84,2.06,2.06,0,0,0,.29.73.31.31,0,0,0,.29.17.46.46,0,0,0,.27-.22,1.35,1.35,0,0,0,.18-.41l.06-.21c0-.14.06-.32.09-.48a19.89,19.89,0,0,0,.19-2.07c0-.77.51-.74,1-.05a4.12,4.12,0,0,1,.61,1.51,5.13,5.13,0,0,1,.09,1.08,4.9,4.9,0,0,1-.42,1.76,3.63,3.63,0,0,1-.95,1.28,3.49,3.49,0,0,1-.57.32,2.68,2.68,0,0,1-.65.12,2,2,0,0,1-1.2-.48,3.19,3.19,0,0,1-.81-1.25,4.4,4.4,0,0,1-.28-.82l-.11-.43,0-.27a15.74,15.74,0,0,1-.22-3.86,13.87,13.87,0,0,1,.74-3.85,6.34,6.34,0,0,1,1.06-1.9,3,3,0,0,1,.44-.43,3.12,3.12,0,0,1,.57-.4,4.67,4.67,0,0,1,1.52-.42l1,.69a77.43,77.43,0,0,0,8.84,4.14c3.32,1.47,6.67,2.9,9.9,4.7.5.28,1,.58,1.48.9a8.93,8.93,0,0,1,1.44,1.16,1.78,1.78,0,0,1,.56,2.14,2,2,0,0,1-.9.76,8,8,0,0,1-.92.33c-3.52,1.14-7.11.47-10.35-.55a39.79,39.79,0,0,1-7.25-3.11c-.5-.28-1-.54-1.5-.86-1.83-1.17-2.28-1.73-2.34-2.4a1.4,1.4,0,0,1,0-.45c.09-.43.94-.13,2.24.65,3.88,2.29,8.2,4.44,12.72,5.25a13.65,13.65,0,0,0,4.94,0,12.66,12.66,0,0,0,1.43-.4,0,0,0,0,0,0-.05v0l-.12-.11-.45-.36Z"/><path class="cls-1" d="M195.65,454.17c.16,1.34.27,4.25-.85,5.21-2.15,1.85-3.62-11,.49-11.63,4.82,3.05,28.33,9.34,22.62,12C211,462.88,201.07,458.09,195.65,454.17Z"/><path class="cls-1" d="M216.71,458.07a31.21,31.21,0,0,0-4.61-2.39c-1.62-.71-3.29-1.39-5-2.05l-3.68-1.38c-1.43-.57-2.86-1.13-4.28-1.74-.71-.3-1.42-.61-2.13-.94-.36-.17-.71-.34-1.06-.53l-.53-.29a1.36,1.36,0,0,1-.23-.14.75.75,0,0,0-.46.18,2.65,2.65,0,0,0-.56.7,6.7,6.7,0,0,0-.67,2,14.35,14.35,0,0,0,.24,5.84,1.93,1.93,0,0,0,.32.72.33.33,0,0,0,.29.16.49.49,0,0,0,.27-.24,1.29,1.29,0,0,0,.16-.41l.05-.22c0-.14,0-.32.06-.48a20.24,20.24,0,0,0,.11-2.08c0-.77.48-.76,1-.09a4,4,0,0,1,.68,1.48,5.66,5.66,0,0,1,.14,1.07,4.82,4.82,0,0,1-.35,1.78,3.64,3.64,0,0,1-.88,1.32,4,4,0,0,1-.56.35,2.68,2.68,0,0,1-.65.14,1.87,1.87,0,0,1-1.21-.42,3.27,3.27,0,0,1-.87-1.22,4,4,0,0,1-.31-.8l-.14-.43-.06-.27a16.26,16.26,0,0,1-.39-3.84A13.39,13.39,0,0,1,192,450a6.17,6.17,0,0,1,1-1.95,2.88,2.88,0,0,1,.41-.46,3.12,3.12,0,0,1,.56-.42,4.38,4.38,0,0,1,1.5-.48l1,.64a75,75,0,0,0,9,3.74c3.38,1.32,6.79,2.6,10.1,4.26.51.26,1,.53,1.51.83a9.12,9.12,0,0,1,1.5,1.09,1.8,1.8,0,0,1,.66,2.12,2.11,2.11,0,0,1-.87.8,9.63,9.63,0,0,1-.9.37c-3.48,1.29-7.09.78-10.37-.09a40.17,40.17,0,0,1-7.38-2.78c-.51-.27-1-.5-1.54-.8-1.87-1.08-2.35-1.62-2.45-2.29a2.48,2.48,0,0,1-.05-.45c.07-.43.94-.17,2.28.55,4,2.11,8.38,4.07,12.94,4.68a13.75,13.75,0,0,0,4.93-.26,13.55,13.55,0,0,0,1.41-.46s0,0,0-.06h0a.69.69,0,0,0-.12-.11c-.14-.11-.3-.23-.47-.34Z"/><path class="cls-1" d="M193.85,212.79l.7,7.1.29,3.57.1,1.81.05,1.08-.06,1.59H194c-.13,0,0,0,0,0s0,0,0,0a.53.53,0,0,0-.22-.06l-.52-.07H193s0,0,0,0v.09c.08.81-.19.33-.2.51a3.11,3.11,0,0,0-.61.12c-.46.13-.84.28-1.43.5a14.57,14.57,0,0,1-3.33.71c-.55.06-1.11.1-1.66.12h-.91c-.48,0-.94,0-1.39-.06-.23,0-.46,0-.68-.06l0-.68c0-.44,0-.93,0-1.4l0-1.63c0-1.72,0-3.43,0-5.15s-.06-3.43-.14-5.15a316.64,316.64,0,0,0-3.43-36.19c-.78-5.33-1.68-10.67-2.62-15.94-1.21-6.77-2.55-13.54-3.49-20.36-.58-4.25,2.07.82,3.45,8.62,2.44,13.82,4.85,27.68,6.25,41.82.86,8.44,1.65,17.26,1.79,26,0,1.59.07,3.19,0,4.79l0,2.39v.91c0,.12-.08.37.13.31h.6c.38,0,.76,0,1.14,0a16.83,16.83,0,0,0,2.26-.3,12.47,12.47,0,0,0,2.17-.66,9.13,9.13,0,0,1,1.25-.38l.34-.06.24,0a.66.66,0,0,1,.24,0c.09,0,.17.17.16.18v-.29a2.91,2.91,0,0,0,0-.42l-.05-.94c0-.66-.06-1.32-.12-2-.12-1.33-.21-2.66-.35-4-.54-5.82-1.2-11.65-1.84-17.47-1-8.83-2-17.69-3-26.44-.77-6.81-1.61-13.48-2.29-20.23-.15-1.48-.29-2.94-.44-4.44-.44-5.57-.33-7.38.13-8.59a4.82,4.82,0,0,1,.31-.79c.39-.54.71,1.71,1.07,5.75.55,6,1.24,12.18,1.95,18.44s1.43,12.61,2.16,19q1.6,14.19,3.21,28.45Z"/><path class="cls-1" d="M181.3,108.49a1.49,1.49,0,0,0,.62.47,2,2,0,0,0,.91.06.5.5,0,0,0,.29-.2,2.49,2.49,0,0,0,.47-1.24,8.68,8.68,0,0,0,.11-1.71,8.42,8.42,0,0,0-.19-1.57,5.9,5.9,0,0,1-.28-2.06c.06-.44,1.92-.14,2.06.62a12.35,12.35,0,0,1,.11,4.43c-.09.47-.15.95-.29,1.47a2.84,2.84,0,0,1-.9,1.56,2.39,2.39,0,0,1-1,.48,5.26,5.26,0,0,1-.89,0,3.09,3.09,0,0,1-1.74-.57,4,4,0,0,1-1.3-1.63,11.77,11.77,0,0,1-.76-2.75c-.13-.7-.33-1.38-.44-2.07,0-.16-.07-.31-.09-.46,0-.58.09-.76.58-.89l.34-.08a.76.76,0,0,1,.83.57c.36,1.16.5,2.36.76,3.47a5,5,0,0,0,.85,2Z"/><path class="cls-1" d="M173.06,111.45a2.94,2.94,0,0,1-1.56,1.5,5.08,5.08,0,0,1-.51.17,3.93,3.93,0,0,1-.48.06,3.25,3.25,0,0,1-1,0c-.24,0-.47-.12-.7-.18a4.65,4.65,0,0,1-.63-.32,5,5,0,0,1-1.42-1.65,10.09,10.09,0,0,1-.81-1.78c-.2-.53-.4-1-.6-1.56a5.08,5.08,0,0,1-.54-2c0-.45,1.9-.32,2.1.38.39,1.27.73,2.53,1.15,3.72a2.79,2.79,0,0,0,1.32,1.5,1.5,1.5,0,0,0,.92.16,1.1,1.1,0,0,0,.81-.33,2,2,0,0,0,.49-1.22,7.48,7.48,0,0,0-.13-2.48,13.21,13.21,0,0,0-.63-1.9l-.16-.42c-.15-.54-.06-.76.4-1a2.22,2.22,0,0,1,.32-.14.74.74,0,0,1,.92.39,10.53,10.53,0,0,1,1.12,3.71,9.52,9.52,0,0,1,.06,1.62,5,5,0,0,1-.42,1.82Z"/><path class="cls-1" d="M173.69,142.6l1.34,5s6.05,7.78,10.63,1l-.41-5.94S177.65,146.56,173.69,142.6Z"/><path class="cls-1" d="M186.38,144.36l.1,2.77c0,.5.07.77,0,1.74l-1.12,1.36-.86.76a5.6,5.6,0,0,1-1,.62,5.25,5.25,0,0,1-4,.11,10,10,0,0,1-3.2-2c-.41-.37-.8-.75-1.18-1.16a7.05,7.05,0,0,1-.62-.73l-.25-.86a26.32,26.32,0,0,1-1-3.9c-.12-.84,1.65-.22,2.07,1.28l.53,2,.13.5.06.25s0,0,0,0h0l.15.18.31.36a12,12,0,0,0,2.89,2.41,3.7,3.7,0,0,0,4-.15,11.72,11.72,0,0,0,.93-.81l.41-.5.15-.17s.08-.07.06-.12l-.1-2.61-.07-1.5a4.72,4.72,0,0,0,0-.76l-.16.07-.31.13-.41.14c-.42.16-.84.29-1.27.42a20.88,20.88,0,0,1-2.61.56,10.32,10.32,0,0,1-4.21-.1,6.1,6.1,0,0,1-.91-.31c-1.12-.55-1.29-1-1.2-1.45a2.81,2.81,0,0,1,.08-.31c.17-.3.67-.2,1.26.12,1.85.9,4.18.73,6.44.16.56-.15,1.12-.31,1.67-.51l.49-.18.86-.38c.57-.25,1.17-.57,1.74-.84l.21,3.42Z"/><path class="cls-1" d="M149.31,179.21a55.27,55.27,0,0,1,1-10.86,33.18,33.18,0,0,1,1-3.89c1.5-4.46,4.38-8.78,8.82-10.93a10.38,10.38,0,0,1,3.13-.89,10.28,10.28,0,0,1,10,4.65c.42.76-.08.87-.84.57a14.19,14.19,0,0,1-2.82-1.66,8.75,8.75,0,0,0-6.54-1.62,8.48,8.48,0,0,0-3.25,1.23c-.5.34-1,.7-1.51,1.07s-.95.81-1.37,1.28a15.75,15.75,0,0,0-2.62,3.8,27.32,27.32,0,0,0-1.64,4.46,45.06,45.06,0,0,0-1.5,10.46c-.07,2.19,0,4.39.07,6.58.17,3.33.48,6.67,1,10,.37,2.55.89,5,1.34,7.56.1.55.21,1.1.29,1.67.3,2.1.15,2.9-.39,3.35a1.51,1.51,0,0,1-.37.25c-.41.06-.55-.6-.84-2.09-.83-4.4-1.77-9.19-2.3-14a96.54,96.54,0,0,1-.69-10.91Z"/><path class="cls-1" d="M145.56,225.65a44.31,44.31,0,0,0,5.13,5.86,17.79,17.79,0,0,0,6.33,4,9.7,9.7,0,0,0,5.23.21,9.25,9.25,0,0,0,4.11-2,9.1,9.1,0,0,0,2.09-4.13,36.9,36.9,0,0,0,.72-10c-.11-3-.42-6.05-.73-9.05-.2-1.93-.43-3.87-.55-5.83a22.28,22.28,0,0,1,.25-6c.36-1.29.76-.88,1,.16a25.5,25.5,0,0,1,.76,5c.21,3.87.67,7.81.93,11.8a53.65,53.65,0,0,1-.24,12.13,19.1,19.1,0,0,1-.93,3.68,9.38,9.38,0,0,1-2,3.44,7.26,7.26,0,0,1-1.67,1.26,17.88,17.88,0,0,1-1.77.83,11.64,11.64,0,0,1-3.88.76,13.79,13.79,0,0,1-8-2.69,32.17,32.17,0,0,1-6-5.62,75.82,75.82,0,0,1-5.87-8.1c-2.71-4.23-5.14-8.65-7.6-13-1.92-3.34-3.86-6.6-6-9.69-.48-.68-1-1.32-1.47-2-1.93-2.39-2.59-2.72-3-3.42-.09-.16-.26-.29-.34-.43s.15-.4.85-.29a5.33,5.33,0,0,1,2.5,1.49,28.34,28.34,0,0,1,3.39,4.15c1,1.47,2,3,2.88,4.51,1.84,3.07,3.59,6.22,5.38,9.34a129.08,129.08,0,0,0,8.57,13.47Z"/><path class="cls-1" d="M138.3,193.32q3,3.36,5.82,6.82c.7.84,1.44,1.64,2.13,2.49q3.62,4.49,6.95,9.22c1,1.39,2,2.82,2.94,4.22.57,1,1.23,1.82,1.74,2.82.26.49.51,1,.75,1.49s.38,1.07.54,1.62-.3.71-.95.34a5.74,5.74,0,0,1-2-2.15,116.86,116.86,0,0,0-7.11-11c-1.53-2.18-3.35-4.27-5.09-6.36-1.91-2.3-3.85-4.59-5.82-6.84q-1.82-2.09-3.68-4.14c-1.87-2.07-3.77-4.14-5.71-6.13-.38-.38-.76-.77-1.14-1.13a6.36,6.36,0,0,0-1.18-.88,8.3,8.3,0,0,0-2.74-1c-.42-.07-.85-.1-1.27-.13-1.6,0-2,.06-2.53-.34-.11-.09-.25-.16-.34-.25-.32-.27.32-1,1.77-1.16a9.37,9.37,0,0,1,6.28,1.43,8.78,8.78,0,0,1,1.36,1.09l1.06,1.07,2.11,2.18c2.07,2.18,4.1,4.42,6.12,6.66Z"/><path class="cls-1" d="M100.09,183.74a35.23,35.23,0,0,0,5.82,2.71c.74.29,1.51.48,2.26.74a66.73,66.73,0,0,0,8.12,2.22,33.37,33.37,0,0,0,3.71.5c1.58.14,3.17.09,4.74.32,1,.14-.26,1.94-2.19,1.87a41,41,0,0,1-9.9-1.73c-1.93-.59-4-1-5.91-1.71a47.93,47.93,0,0,1-6.27-2.6A17.85,17.85,0,0,1,98.63,185a7.87,7.87,0,0,1-.89-.66c-.15-.14-.29-.25-.44-.4a5.24,5.24,0,0,1-.45-.56,1.56,1.56,0,0,1-.13-2,2.72,2.72,0,0,1,2-.7,8.93,8.93,0,0,1,3.26.59,6.28,6.28,0,0,1,1.19.59,4.22,4.22,0,0,1,.54.41,1.91,1.91,0,0,0,.35.17,7.74,7.74,0,0,0,2.12.31c.33,0,.66,0,1,0,1.26,0,1.65.11,2,.6.06.11.15.22.2.33.15.38-.39.74-1.38.84a15.3,15.3,0,0,1-2.26.07,7.13,7.13,0,0,1-2.54-.53c-.13-.07-.24-.12-.38-.21a4.89,4.89,0,0,1-.39-.3,2.26,2.26,0,0,0-.28-.2,3.49,3.49,0,0,0-.75-.37,7.08,7.08,0,0,0-1.83-.43,3.84,3.84,0,0,0-.67,0h-.19s-.15-.07.31.31a3.75,3.75,0,0,0,.55.42,5.78,5.78,0,0,0,.64.4Z"/><path class="cls-1" d="M118.1,174a7.19,7.19,0,0,1,1.11-.2,5.06,5.06,0,0,1,.57,0,4.36,4.36,0,0,1,.82.05,4.86,4.86,0,0,1,2.52.93,2.54,2.54,0,0,1,.52.57,1.21,1.21,0,0,1,.24.76,1.31,1.31,0,0,1-.64,1,5.17,5.17,0,0,1-1.61.66q-.5.13-.93.3a3.45,3.45,0,0,0-.43.2,2.08,2.08,0,0,0-.61.5c-.19.28,0,.86.25,1.39.19.34.45.68.69,1a3.69,3.69,0,0,1,.63,1.35c0,.28-.09.42-.28.4a4.38,4.38,0,0,0-.68-.08,1.41,1.41,0,0,1-1.32-.43,6.63,6.63,0,0,1-1.25-3,2.69,2.69,0,0,1,.16-1.16,2.44,2.44,0,0,1,.67-1,3.42,3.42,0,0,1,.75-.53l.39-.18.2-.07.09,0s0,0,0,0a1.76,1.76,0,0,0,.55-.09.59.59,0,0,0,.24-.11.17.17,0,0,0,0-.24,1,1,0,0,0-.48-.3,1.86,1.86,0,0,0-.34-.07l-.22,0c-.14,0-.27,0-.4,0a3.38,3.38,0,0,0-3.13,3.17,4.49,4.49,0,0,0,.51,2.24l.24.45c.29.57.29.78-.06,1.17-.08.09-.15.19-.23.27-.27.28-.74.18-1.1-.29a5.91,5.91,0,0,1-1.11-2.51,5.68,5.68,0,0,1,.28-3,5.11,5.11,0,0,1,1.29-2,5.2,5.2,0,0,1,2.06-1.2Z"/><path class="cls-1" d="M113.47,172.76l.57-.2.3-.08.49-.12a7.74,7.74,0,0,1,1.76-.13,3.66,3.66,0,0,1,2.42.83,2,2,0,0,1,.53.84,1.47,1.47,0,0,1-.05.71,1.85,1.85,0,0,1-.53.68,3.71,3.71,0,0,1-1,.61c-.45.19-1,.36-1.5.55l-.36.15-.22.1c-.12.05-.27.15-.32.16a.6.6,0,0,0-.22.25l0,.19v.29a6.24,6.24,0,0,0,.69,2c.21.43.47.86.69,1.31a4.43,4.43,0,0,1,.54,1.58c0,.32-.16.49-.33.42a2.22,2.22,0,0,0-.66-.21,1.63,1.63,0,0,1-1.32-.75,20.33,20.33,0,0,1-1.15-2.69,6.07,6.07,0,0,1-.3-1.7,1.9,1.9,0,0,1,0-.52,2.08,2.08,0,0,1,.16-.64,1.74,1.74,0,0,1,.33-.54l.47-.44a5,5,0,0,1,.61-.31l.12,0h.11l.16,0,.3-.09c.18-.08.43-.13.47-.37h0c0-.24-.27-.3-.48-.36a2.18,2.18,0,0,0-.8,0l-.21.05-.28.09c-.18,0-.35.14-.53.21a5.43,5.43,0,0,0-1,.59,3.44,3.44,0,0,0-1,1.24,4.23,4.23,0,0,0-.3,1.67,8.16,8.16,0,0,0,.69,2.68c.07.19.18.37.25.56.29.71.28,1-.11,1.33a3,3,0,0,1-.25.25c-.31.24-.77.06-1.1-.49a9.13,9.13,0,0,1-1.1-2.72,7,7,0,0,1,0-3.28,4.61,4.61,0,0,1,1.42-2.35,7.16,7.16,0,0,1,2.11-1.35Z"/><path class="cls-1" d="M108.36,171.76a8.83,8.83,0,0,1,1.24-.45l.63-.15.31,0L111,171a7.69,7.69,0,0,1,3.5.22,2.18,2.18,0,0,1,1.38,1,4.56,4.56,0,0,1,.14.44,1.26,1.26,0,0,1-.38,1,3.12,3.12,0,0,1-.86.59,8.68,8.68,0,0,1-1.64.55,8.37,8.37,0,0,0-.84.27c-.28.1-.44.19-.52.22a.63.63,0,0,0-.31.46,5.34,5.34,0,0,0,.23,2.29c.15.52.33,1,.5,1.56a6,6,0,0,1,.31,1.77.49.49,0,0,1-.13.34.21.21,0,0,1-.24,0,4.85,4.85,0,0,0-.64-.29,1.82,1.82,0,0,1-1.22-1.11,18.56,18.56,0,0,1-.67-2.87,6,6,0,0,1,0-1.71,3.42,3.42,0,0,1,.31-1.06,2.27,2.27,0,0,1,.39-.53l.5-.41.37-.18.15,0h.19a2.16,2.16,0,0,0,.56-.08c.17,0,.39-.1.37-.3s-.12-.17-.19-.22a1.66,1.66,0,0,0-.71-.15,3.39,3.39,0,0,0-.44,0,7.29,7.29,0,0,0-1,.23,5.75,5.75,0,0,0-1.15.46,1.42,1.42,0,0,0-.6.77,7.84,7.84,0,0,0,0,3.94,19,19,0,0,0,1,3c.09.22.19.43.28.65.31.82.3,1.12-.1,1.48a3.08,3.08,0,0,1-.27.24c-.32.22-.76,0-1.1-.61a16.38,16.38,0,0,1-1.89-6.06,8.47,8.47,0,0,1,.11-2.68,4.12,4.12,0,0,1,.64-1.5,3.25,3.25,0,0,1,.65-.69,3.54,3.54,0,0,1,.41-.26l.31-.15Z"/><path class="cls-1" d="M105.33,173.8a3,3,0,0,0-.6,1.6,5.21,5.21,0,0,0,.13.67,19.75,19.75,0,0,0,.74,2.72,8.1,8.1,0,0,0,.53,1.16,4.63,4.63,0,0,1,.68,1.5c0,.36-1.54.63-1.82.05a12.17,12.17,0,0,1-1.14-3.25c-.13-.7-.44-1.35-.59-2.11a4,4,0,0,1,0-1.39,5.14,5.14,0,0,1,.44-1.25,6.67,6.67,0,0,1,.86-1.28,12.46,12.46,0,0,1,1.62-1.55c.43-.38.83-.78,1.31-1.13a1.78,1.78,0,0,1,.31-.23c.41-.25.62-.2.87.15a2.13,2.13,0,0,1,.16.25.63.63,0,0,1-.12.81c-.66.64-1.38,1.19-2,1.81a7.68,7.68,0,0,0-1.28,1.48Z"/><path class="cls-1" d="M146.09,213.94a18.1,18.1,0,0,1-2.24,2.55,9,9,0,0,1-4.95,2.69,10.93,10.93,0,0,1-2,.23c-.43,0-.86-.06-1.3-.12a4.6,4.6,0,0,1-1.17-.54c-.22-.16,0-.57.42-.93s.83-.68,1.16-.56a7.06,7.06,0,0,0,3.82-.16,5.26,5.26,0,0,0,1.17-.57l1.05-.85a14,14,0,0,0,2.07-2.2,12,12,0,0,0,1.06-1.57c.25-.41.45-.85.67-1.27s.36-.9.52-1.35a10,10,0,0,0,.26-2.16v-.47c0-.57.14-.74.64-.87a2.21,2.21,0,0,1,.35-.08c.39-.07.69.2.77.7a8.57,8.57,0,0,1-.66,4.51,15.84,15.84,0,0,1-.72,1.56c-.28.51-.58,1-.89,1.48Z"/><path class="cls-1" d="M223.5,230.16c.1-.19.26-.41.33-.57s.1-.27.14-.48a10.81,10.81,0,0,0,.19-1.34q.08-.71.09-1.44c0-.48,0-1,0-1.46,0-2-.08-4-.2-5.94-.26-4-.68-7.94-1.22-11.89-.39-2.89-.89-5.76-1.4-8.62-1.83-10.08-4.17-20.17-8.26-29.54-1.87-4.08-4.16-8.16-7.49-11-.55-.42-1.13-.81-1.71-1.17l-.92-.42-.46-.22-.49-.15a11.14,11.14,0,0,0-4-.49,10.59,10.59,0,0,0-3.91,1,10.89,10.89,0,0,0-3.24,2.44c-1.09,1.3-1.41.92-.8-.63a7.56,7.56,0,0,1,2.1-2.7,9.32,9.32,0,0,1,4.55-2.06,12.56,12.56,0,0,1,9.4,2.27,23.19,23.19,0,0,1,6.07,7.15A72.4,72.4,0,0,1,219,179.83a203.82,203.82,0,0,1,4.83,21.57q1,6,1.61,12.07a112,112,0,0,1,.66,12.18,23.32,23.32,0,0,1-.34,3.85,5.33,5.33,0,0,1-.36,1l-.5.85a11.07,11.07,0,0,1-1.15,1.59,17.3,17.3,0,0,1-6.2,4.51,37.45,37.45,0,0,1-11.1,2.81,78.15,78.15,0,0,1-11.33.4,114.13,114.13,0,0,1-17.25-1.8c-1.25-.25-2.48-.49-3.74-.82a17.44,17.44,0,0,1-2.95-1,3,3,0,0,1-.63-.34,2.77,2.77,0,0,1-.45-.33l-.72-.57a4,4,0,0,1-1.46-1.89,1.8,1.8,0,0,1-.1-.75c.09-.28.33,0,.95.41q.47.34,1.29.84l.9.55c.16.09.37.25.49.3a4.15,4.15,0,0,0,.45.2,45.27,45.27,0,0,0,7.36,1.74c2.56.45,5.16.8,7.79,1.08a98.81,98.81,0,0,0,16,.44,45.12,45.12,0,0,0,11.56-2.1,21.82,21.82,0,0,0,5.13-2.51,12.33,12.33,0,0,0,3.74-4Z"/><path class="cls-1" d="M193.55,226.66c1.82-.3,3.64-.62,5.43-1,.65-.15,1.3-.34,1.94-.52A52.52,52.52,0,0,0,207.7,223c.49-.19,1-.4,1.45-.62s.91-.49,1.36-.74c1.16-.66,2.17-1.48,3.3-2.13.35-.2.64.19.65.77a2.25,2.25,0,0,1-1,1.87,25.79,25.79,0,0,1-7.86,3.44c-.83.2-1.66.46-2.48.73s-1.66.5-2.5.72c-1.84.45-3.7.84-5.56,1.18-1.14.2-2.29.39-3.44.56-1.74.27-3.5.45-5.23.68-1.35.17-2.67.43-4,.58l-.89.11c-1.11.06-1.48-.06-1.71-.56a1.66,1.66,0,0,1-.16-.33c-.1-.39.34-.71,1.12-.85,2.33-.4,4.78-.68,7.25-1,1.83-.26,3.68-.5,5.5-.84Z"/><path class="cls-1" d="M177,228a19.06,19.06,0,0,0-1.74-.91c-.22-.1-.46-.16-.68-.26-.78-.36-1.57-.73-2.38-1a7.08,7.08,0,0,0-1.12-.29,3.07,3.07,0,0,1-1.43-.39c-.27-.19.55-1.85,1.11-1.72a9.4,9.4,0,0,1,2.91,1.11,13.7,13.7,0,0,0,1.78.7c.65.27,1.29.58,1.92.91.38.21.77.41,1.14.64a9.29,9.29,0,0,1,.85.53c.29.19.56.38.84.58s.45.28.68.46a2.85,2.85,0,0,1,.67.56c.09.09.19.19.28.3.26.48.18.73-.27.92a1.69,1.69,0,0,1-.31.13,1.15,1.15,0,0,1-.89-.06L178.62,229a14.83,14.83,0,0,0-1.63-.94Z"/><path class="cls-1" d="M210.76,209.49l.41,3.39c0,.42.14.83.17,1.24.13,1.47.2,2.94.2,4.43,0,.67,0,1.33,0,2a5.49,5.49,0,0,1-.4,2.6c-.13.25-.53.05-.9-.28a1.49,1.49,0,0,1-.63-1.14c.17-1.47.16-3.11.23-4.78a18.58,18.58,0,0,0-.28-3c-.12-1.12-.27-2.25-.42-3.37l-.3-2.08c-.17-1-.31-2.11-.52-3.14-.16-.81-.41-1.59-.59-2.41a3.47,3.47,0,0,1-.11-.56c-.1-.68.08-1,.54-1.11a1.67,1.67,0,0,1,.31,0,.82.82,0,0,1,.74.66,41.89,41.89,0,0,1,1,4.26c.21,1.12.38,2.25.57,3.38Z"/><path class="cls-1" d="M156.61,339.24l-1.94-.21-.74-.09-.19,0a1,1,0,0,1,0-.18l-.08-.36c-.1-.47-.25-1-.31-1.41-.13-1.14-.16-2.23-.18-3.31,0-2.15.1-4.28.23-6.4.26-4.24.64-8.45,1.06-12.66.3-3.07.58-6.15.93-9.21,1.24-10.8,2.69-21.56,4.19-32.32.65-4.78,1.31-9.58,2-14.32.85-6.09,1.57-12.21,2.87-18.25.46-1.91.86-1.51,1,.16a36.77,36.77,0,0,1-.4,8.16c-1.81,12.4-3.61,24.78-5.42,37.29-1.09,7.48-1.92,15.31-2.74,23-.45,4.22-.87,8.45-1.22,12.68s-.67,8.48-.6,12.66c0,.65,0,1.28.11,1.9l0,.45,0,.22,0,.23.23,0,1.74.19,2,.28,7.77,1.22c7.82,1.24,15.69,2.46,23.52,3a102.18,102.18,0,0,0,18-.21l3.89-.55c4.81-.91,6.24-1.45,7.43-1.28a6.54,6.54,0,0,1,.79.11c.3.11,0,.39-.84.8a17.6,17.6,0,0,1-1.62.71l-1.08.42-1.27.32a66.58,66.58,0,0,1-16.7,1.84A157.08,157.08,0,0,1,181.91,343c-4.25-.48-8.48-1.11-12.7-1.76s-8.43-1.4-12.6-1.93Z"/><path class="cls-1" d="M215.46,302.33l-1.75-14.64-.67-5.33L211,263.52c-.32-2.78-.69-5.57-1.09-8.32q-.78-5.25-1.56-10.52c-.16-1,.29-1.11,1-.29a5.13,5.13,0,0,1,.53.79,10.54,10.54,0,0,1,.47,1A12.15,12.15,0,0,1,211,249c1.06,7.25,1.86,14.49,2.52,21.82.4,4.39,1.05,8.92,1.58,13.39l1.78,14.73,1.17,9.06c.62,4.56,1.25,9.15,2,13.66.61,3.5,1.3,6.92,2.09,10.33.17.75.33,1.49.51,2.25.67,2.79.77,3.7.42,4.43a2.24,2.24,0,0,1-.23.49c-.31.37-.89-.7-1.49-2.76a165.46,165.46,0,0,1-3.88-19.27c-.76-4.9-1.42-9.83-2.07-14.74Z"/><path class="cls-1" d="M180.29,260a12,12,0,0,0,1.46-.24c.24-.06.48-.09.71-.17l.3-.1h.07a7.39,7.39,0,0,0,.24-2.2c0-.75,0-1.51,0-2.27,0-2.69-.11-5.4-.25-8.11-.07-1.2-.18-2.41-.31-3.6a24.68,24.68,0,0,1-.27-4.64c0-.5.49-.42.93,0a3,3,0,0,1,1,2c.24,3.1.47,6.24.45,9.42,0,1.91.19,3.88.2,5.84,0,1.08,0,2.15-.13,3.27,0,.15,0,.25-.05.44l-.11.61c-.06.19,0,.43-.15.57l-.6.2-.94.3-.81.19a17.86,17.86,0,0,1-4,.37,36,36,0,0,1-6-.77l-4.49-.8-1-.17c-1.21-.25-1.56-.42-1.74-.93a1.5,1.5,0,0,1-.11-.34c-.05-.37.5-.55,1.43-.46,2.75.28,5.5,1,8.23,1.42a21.94,21.94,0,0,0,6,.21Z"/><path class="cls-1" d="M195.33,260.28v-2.93l0-2.57-.1-1.87c-.06-2.21-.11-4.42-.23-6.63-.05-1-.16-1.95-.29-2.91a36.49,36.49,0,0,1-.47-3.67c0-.37.42-.44.91-.19a2.14,2.14,0,0,1,1.11,1.55,51.26,51.26,0,0,1,.46,7.73c0,1.55.16,3.15.22,4.73.06,1.74.1,3.48.11,5.22v.76l0,.39a1.17,1.17,0,0,0,.36.12l.66.14a22.71,22.71,0,0,0,4.73.38,31.68,31.68,0,0,0,3.64-.42l.79-.13c1-.13,1.33-.06,1.6.37a2.28,2.28,0,0,1,.17.3c.14.34-.24.67-1,.86a25.63,25.63,0,0,1-7,.68,22.23,22.23,0,0,1-2.7-.26l-.68-.12-.83-.16-1.24-.28-.15,0s-.12,0-.1-.07v-1Z"/><path class="cls-1" d="M194.83,449.77l-6.56-.09c-5.08-29.13-13.5-108.63-13.5-108.63l13.52,1.85H200.5C200.21,344.3,193.79,443.93,194.83,449.77Z"/><path class="cls-1" d="M198.59,353l.42-5.6.21-2.81,0-.47v-.09c0-.09-.07-.05-.12-.06L188.22,344l-7.78-1.1-3.85-.55-.7-.1a1.65,1.65,0,0,0,0,.21l0,.44q.75,6.9,1.49,13.78c1.7,16.21,3.43,32.4,5.35,48.58.84,7.18,1.78,14.39,2.76,21.49.65,4.56,1.31,9.13,2,13.68q.51,3.42,1.07,6.83l.23,1.46,0,.18s0,.07,0,.09h.46l3.45.11c2.87.1,2.48.58,0,1-.61.1-1.34.21-2.19.31l-1.35.13-1.26.06h-.59s0-.05,0-.07l-.14-.64c-.26-1.18-.54-2.45-.84-3.79s-.48-2.45-.68-3.76c-2.84-18.65-5-37.34-6.95-56.22-1.24-11.29-2.53-23-3.8-34.57l-.63-6-.32-3.13L174,341.2l-.07-.62,0-.3v-.16c0-.06.08,0,.12,0l2.44.34,11.93,1.68,7,0,3.55,0h2.3c.08,0,0,.21,0,.31l-.21,2.41c-.6,7.83-1.13,15.68-1.65,23.51-.78,11.87-1.56,23.8-2.2,35.59-.49,9.17-.85,18.16-1.18,27.22-.06,2-.12,3.95-.18,6-.11,3.73-.24,6.19-.33,7.9a20.75,20.75,0,0,1-.47,3.5,10,10,0,0,1-.28,1.09c-.17.39-.38-.15-.6-1.56a24.69,24.69,0,0,1-.18-2.63c-.05-1.05-.07-2.27-.05-3.64.08-8.14.4-16.47.79-24.92s.86-17,1.37-25.58c.75-12.74,1.6-25.53,2.47-38.3Z"/><path class="cls-1" d="M188.35,342.9s2.63,105.94,3.42,106.8"/><path class="cls-1" d="M189,408.22l-.3-16.32-.15-5.95-.3-21c0-3.1-.15-6.22-.26-9.3-.14-4-.36-7.92-.28-11.88.06-2.47,1.8.62,1.94,5.17.23,8.08.37,16.15.35,24.3,0,4.88.2,9.94.3,14.93l.33,16.44c.07,3.37.15,6.74.22,10.11.13,5.11.24,10.24.44,15.3.15,3.94.41,7.8.66,11.68,0,.85.11,1.69.17,2.55.18,3.2.15,4.2-.24,4.92a5.45,5.45,0,0,0-.23.51c0,.14-.09.24-.27,0a2.38,2.38,0,0,1-.31-.64,14.14,14.14,0,0,1-.46-2.67c-.68-7-1-14.3-1.2-21.68-.15-5.47-.3-11-.45-16.46Z"/><path class="cls-1" d="M187.43,159c-3.7,5.2-11.35,0-11.35,0l6.69,69.82,11-2.09Z"/><path class="cls-1" d="M175.42,107.43a31.73,31.73,0,0,1-1.1-5.17c-.09-.63-.2-1.27-.23-1.91,0-.45,0-.89,0-1.35a5.92,5.92,0,0,1,0-.71,2.53,2.53,0,0,1,.26-.93,7.34,7.34,0,0,1,3.46-2.85,9,9,0,0,1,3.11-.64A6,6,0,0,1,184.83,95c.35.26,0,.62-.5.88a2.57,2.57,0,0,1-1.69.27,6.55,6.55,0,0,0-5.93,1.18c-.15.14-.28.28-.43.43l-.34.45a.76.76,0,0,0,0,.11c0,.08,0,.2,0,.31s0,.48,0,.74c0,.51.06,1,.11,1.55a29.7,29.7,0,0,0,.88,4.92,22.65,22.65,0,0,0,1,2.91,13.22,13.22,0,0,0,2.41,3.9,7.21,7.21,0,0,0,2.82,1.82c.23.07.46.12.69.2.85.22,1.11.33,1.26.87a2.47,2.47,0,0,1,.11.36c.07.38-.4.68-1.23.62a7.28,7.28,0,0,1-3.52-1.35,10.94,10.94,0,0,1-2.65-2.74,19.42,19.42,0,0,1-2.36-4.93Z"/><path class="cls-1" d="M164.77,96.19a11.22,11.22,0,0,1,2-.66,6.3,6.3,0,0,1,.75-.18,6.21,6.21,0,0,1,2.74.34c.37.16.78.26,1.13.45a5.71,5.71,0,0,1,.7.35,1.58,1.58,0,0,1,.52.57c.14.28-1.42,1.32-1.69,1.12a10,10,0,0,0-1.83-1,1.29,1.29,0,0,0-.7-.09c-.24,0-.48.08-.72.11a8.59,8.59,0,0,0-1.64.46,8,8,0,0,0-1,.47,7,7,0,0,0-1.38.94,5.69,5.69,0,0,0-.78,1c-.05.08-.09.16-.15.24-.21.27-.38.27-.8,0a2.9,2.9,0,0,1-.29-.19.74.74,0,0,1-.34-.84,5.23,5.23,0,0,1,1.7-2.07,12,12,0,0,1,1.76-1.07Z"/><path class="cls-1" d="M182.86,129.08a9,9,0,0,1-.54,1.64,3.49,3.49,0,0,1-1.35,1.61,2.35,2.35,0,0,1-1.74.29,2.09,2.09,0,0,1-.73-.31,2,2,0,0,1-.53-.46,3.7,3.7,0,0,1-.66-1,7,7,0,0,1-.5-2.1,11.92,11.92,0,0,1,0-1.89,4.55,4.55,0,0,1,.28-1.26,1.93,1.93,0,0,1,1-1c.31-.15.43.35.57.83s.4.85.32,1a6.66,6.66,0,0,0-.2,3.34,1.7,1.7,0,0,0,.43.88,1.35,1.35,0,0,0,.28.2.25.25,0,0,1,.12,0l.16,0a.74.74,0,0,0,.61-.37,4,4,0,0,0,.52-1.12,6.72,6.72,0,0,0,.3-1.63,2.38,2.38,0,0,0-.94-2,.83.83,0,0,0-.67-.14c-.18,0-.29.18-.42.33s-.09.15-.13.26c-.19.34-.32.49-.85.41-.12,0-.24,0-.35,0-.39-.06-.61-.41-.5-.95q.1-.3.24-.6a3.61,3.61,0,0,1,.45-.6,2.42,2.42,0,0,1,1.63-.69,3.26,3.26,0,0,1,2.66,1.52,4.49,4.49,0,0,1,.72,1.94,4.44,4.44,0,0,1,0,1c0,.33-.08.56-.13.84Z"/><path class="cls-1" d="M371.8,138.14a11.31,11.31,0,0,1-4.53,2.19,11.84,11.84,0,0,1-5,0,16.67,16.67,0,0,1-1.72-.44,10.33,10.33,0,0,1-1.66-.63,24.47,24.47,0,0,1-9.07-7.91,42.85,42.85,0,0,1-2.92-4.43,21.45,21.45,0,0,1-2.65-6.25c-.15-.7.35-.72,1-.3a5.66,5.66,0,0,1,1.84,2.37,38.75,38.75,0,0,0,7.07,11,17,17,0,0,0,6.61,4.32,10.06,10.06,0,0,0,8.29-.26,12,12,0,0,0,4-3.56,25.36,25.36,0,0,0,3.65-7.5,41,41,0,0,0,1.33-6.33c.07-.47.13-.93.19-1.41.25-1.75.43-2.29,1-2.61a2.32,2.32,0,0,1,.37-.21c.4-.13.64.64.55,2a38.31,38.31,0,0,1-2.74,12.07,20.1,20.1,0,0,1-5.53,8Z"/><path class="cls-1" d="M352,80.19c-6.44.74-10.67,20.4-24.24,21.62-10.23.93-16.21-18.61-6.62-31.84,11.29-15.56,60.62-30,71.76,11.61,1.4,5.25,1.08,25.62-9.64,31.71-2.95,1.68-5.79-3.56-2.87-7.29,1.89-2.41,2.59-5.81.9-8.55-3.72-6-9.13,3.13-9.51,4.11C371.63,101.91,366.41,77,352,80.19Z"/><path class="cls-1" d="M391.22,80.14a35.83,35.83,0,0,0-9.78-16.45,29.35,29.35,0,0,0-8-5.3,35.49,35.49,0,0,0-9.3-2.64,42.17,42.17,0,0,0-7.11-.42,54.71,54.71,0,0,0-7.1.7,55.68,55.68,0,0,0-12.14,3.37,46.87,46.87,0,0,0-11,6.11,25,25,0,0,0-4.5,4.28,22.84,22.84,0,0,0-3.19,5.31,25.73,25.73,0,0,0-2,12.2,23.24,23.24,0,0,0,1.07,5.42,16.18,16.18,0,0,0,2.5,4.85,10,10,0,0,0,1.86,1.92,7.23,7.23,0,0,0,2.28,1.27,8.53,8.53,0,0,0,5.17,0,15.89,15.89,0,0,0,3.19-1.32,19.35,19.35,0,0,0,2.84-2,32.16,32.16,0,0,0,4.71-5.29c1.42-1.93,2.72-4,4.08-6,.69-1,1.39-2,2.17-3a13.07,13.07,0,0,1,2.73-2.67,4,4,0,0,1,1.72-.69c.41,0,.58,0,.57.13s-.82.46-1.66,1.36a21.87,21.87,0,0,0-2.94,4.17c-1.1,1.85-2.35,4.09-4,6.43a40.86,40.86,0,0,1-4.84,5.91,19.16,19.16,0,0,1-6.56,4.37,15.53,15.53,0,0,1-3.93.93,8.78,8.78,0,0,1-4.23-.57,12.29,12.29,0,0,1-5.9-5.56,25,25,0,0,1-2.55-15.17,26.11,26.11,0,0,1,6.29-14,35.4,35.4,0,0,1,7.2-5.82,52.22,52.22,0,0,1,8.27-4.2,56.53,56.53,0,0,1,18.1-4.16,39.57,39.57,0,0,1,20,3.66,32.35,32.35,0,0,1,8.38,5.93,36.78,36.78,0,0,1,6.06,8.25l1.4,2.82,1.15,2.93c.38,1,.63,2,.95,3,.15.5.32,1,.44,1.51a15.34,15.34,0,0,1,.28,1.6,47.26,47.26,0,0,1-.39,12.52,38.2,38.2,0,0,1-2.6,9.15,19.51,19.51,0,0,1-5.67,7.7c-.33.24-.65.5-1,.71a6.23,6.23,0,0,1-1.13.62,2.78,2.78,0,0,1-2.75-.46,5.35,5.35,0,0,1-1.68-4.74,6.49,6.49,0,0,1,.82-2.42c.49-.76.93-1.26,1.27-1.92a7.43,7.43,0,0,0,.91-4.18,5.93,5.93,0,0,0-1.22-3,2.49,2.49,0,0,0-2.55-1.17,5.79,5.79,0,0,0-2.68,1.75,14.05,14.05,0,0,0-1.11,1.3,18.09,18.09,0,0,0-1.33,2,4.72,4.72,0,0,1-.36.57,1.64,1.64,0,0,1-.34.29l-.26.15-.1.08a.21.21,0,0,1-.12-.07,2.5,2.5,0,0,1-.47-.6,5.43,5.43,0,0,1-.43-1.19l-.4-1.3-.28-.83-.58-1.65a48.3,48.3,0,0,0-2.86-6.34,28.08,28.08,0,0,0-3.46-5,13.36,13.36,0,0,0-6.4-4.31,30.05,30.05,0,0,0-3.47-.68c-.39-.07-.9-.1-1.15-.16s.14-.47,1.62-.74a10.27,10.27,0,0,1,6.75,1.35,18,18,0,0,1,4.91,4.35,33,33,0,0,1,3.49,5.51,50.3,50.3,0,0,1,2.56,6l.53,1.55.13.38v0l0,0,0,.09.05-.1,0,0h0l.07-.1.27-.36a17.41,17.41,0,0,1,1.19-1.41,8.24,8.24,0,0,1,3.33-2.27,4,4,0,0,1,2.44,0,4.7,4.7,0,0,1,2,1.29,8,8,0,0,1,1.86,3.65,9.36,9.36,0,0,1-2,7.53,4.43,4.43,0,0,0-.92,2.49,3.72,3.72,0,0,0,.69,2.42c.83.88,1,.8,2.6-.28a14.59,14.59,0,0,0,3.22-3.29,26.38,26.38,0,0,0,3.85-8.74,46.42,46.42,0,0,0,1.4-9.7,41.94,41.94,0,0,0-.07-4.89,21.85,21.85,0,0,0-.3-2.35c0-.19-.09-.36-.12-.55l-.18-.58-.36-1.18Z"/><path class="cls-1" d="M379.89,106.4c.8.77.86,1,.8,1.16a4.34,4.34,0,0,1-.79,1.1,7.81,7.81,0,0,1-1,.65,9,9,0,0,1-1.81,1c-.19.08-.4.12-.6.19s-.39.15-.6.22c0,0-.07.06-.1,0a2,2,0,0,1-.17-1c0-.08,0-.22,0-.23s.12-.69.23-.69.38-.24.55-.39a.63.63,0,0,1,.24-.09c.11,0,.25,0,.37,0a5.36,5.36,0,0,0,1.4-.91c.58-.49,1.05-1,1.08-1.06A1.46,1.46,0,0,1,379.89,106.4Z"/><path class="cls-1" d="M389.8,59.92a9,9,0,0,0-2.2-3.22,6.84,6.84,0,0,0-1.15-.81,4.55,4.55,0,0,0-4.61-.21,5.18,5.18,0,0,0-2.42,2.64,2.6,2.6,0,0,0-.24.92c0,.12-.26.5-.9.46a1.13,1.13,0,0,1-.81-.74,1.79,1.79,0,0,1,0-1.25,7,7,0,0,1,2.45-3,6.61,6.61,0,0,1,3.61-1.26,7.25,7.25,0,0,1,4.4,1.23A10.47,10.47,0,0,1,391,58.22a9.82,9.82,0,0,1,1,2.72,7.6,7.6,0,0,1-.23,4.4,6.41,6.41,0,0,1-2,2.88,6.07,6.07,0,0,1-.64.45c-.84.49-1.21.4-1.53,0a1.42,1.42,0,0,1-.22-.28c-.19-.34,0-.77.5-1.07a6.74,6.74,0,0,0,1.68-1.64,4.78,4.78,0,0,0,.76-2.12,6.92,6.92,0,0,0-.61-3.64Z"/><path class="cls-1" d="M444.24,100.9c-1.87,12.47-19.67,14.72-28.83,10.46C386.12,97.73,405.11,67.93,389.74,68c0,0,4.92-4.37-.16-11.58-1.79-2.55,12.3-21.1,29.68-5.69,6.77,6,12.6,22,11,38.72C429.73,95.4,435.17,106.51,444.24,100.9Z"/><path class="cls-1" d="M405.88,45.86A16.86,16.86,0,0,0,393,51.55a13.25,13.25,0,0,0-2.07,2.91,4,4,0,0,0-.46,1.35.15.15,0,0,0,0,.09.07.07,0,0,0,0,0l.14.22.54.87A12.69,12.69,0,0,1,392.7,61a9,9,0,0,1-.22,4.32c-.12.29-.2.6-.34.89l-.2.43-.07.14-.05.08-.14.23-.14.16c-.05,0,0,0,0,0h.12a1,1,0,0,1,.24,0l.33.06a2.28,2.28,0,0,1,.54.18,6,6,0,0,1,1.07.48,6.71,6.71,0,0,1,2.82,3.56,21.15,21.15,0,0,1,1,5.13c.15,1.69.22,3.36.33,5a58.16,58.16,0,0,0,1.22,9.74,28.27,28.27,0,0,0,3.74,8.91,27.19,27.19,0,0,0,6.73,6.93,33,33,0,0,0,7.59,4.14,25.9,25.9,0,0,0,19-1.28,13.25,13.25,0,0,0,6.88-7.8c.32-1.06.49-1.53.69-1.47s.34.65.3,1.7a9.22,9.22,0,0,1-1.24,4.17,12.64,12.64,0,0,1-4.41,4.49A24.69,24.69,0,0,1,427,114.57a26.13,26.13,0,0,1-11.86-2,34.46,34.46,0,0,1-9.88-6.66l-1-1.07c-.35-.37-.65-.77-1-1.15-.67-.76-1.2-1.61-1.79-2.43a28.72,28.72,0,0,1-2.66-5.39,49.5,49.5,0,0,1-2.52-14.12c-.17-2.37-.26-4.76-.63-7s-1.15-4.44-2.94-5.31l-.71-.3-.39-.08a3.92,3.92,0,0,0-.74-.13c-.55-.06-1.06-.08-1.59-.11l-.78,0-.39,0-.13,0-.13,0a14.84,14.84,0,0,0,2.23-2.48,5.41,5.41,0,0,0,.44-.82c.1-.24.18-.48.26-.72a6.9,6.9,0,0,0,.2-3.07,9.58,9.58,0,0,0-1-3,11.75,11.75,0,0,0-.82-1.41L389,57l-.09-.13a1,1,0,0,1-.06-.16,1.3,1.3,0,0,1-.19-.66,1.58,1.58,0,0,1,0-.62,1.72,1.72,0,0,1,.11-.52,10.15,10.15,0,0,1,1.77-3.28A18.47,18.47,0,0,1,393,49a20.17,20.17,0,0,1,6.05-3.79,17,17,0,0,1,9.85-.8,22.76,22.76,0,0,1,8.84,4.29,26,26,0,0,1,2.8,2.46,16.46,16.46,0,0,1,1.25,1.4,18.27,18.27,0,0,1,1.12,1.5,36.84,36.84,0,0,1,3.55,6.49,58.19,58.19,0,0,1,3.94,14.09,63.3,63.3,0,0,1,.76,11.23c0,1.86-.3,3.79-.13,5.45a14.81,14.81,0,0,0,1.51,5,12,12,0,0,0,2.72,3.6,6.55,6.55,0,0,0,5.31,1.64c1.27-.18,2-.35,2.71-.45a7.24,7.24,0,0,1,.93-.1c.36,0,0,.4-.94,1.06a8.46,8.46,0,0,1-2.07.94c-.45.1-1,.17-1.51.26a13.72,13.72,0,0,1-1.77-.09,8.74,8.74,0,0,1-4.77-2.75,14.58,14.58,0,0,1-2.88-4.59,15.28,15.28,0,0,1-1.18-5.36c0-.46,0-1,0-1.4l.07-1.26c.05-.84.11-1.69.1-2.53a60.55,60.55,0,0,0-3.06-20.15,42.49,42.49,0,0,0-3-7,25.36,25.36,0,0,0-4.34-6c-3.59-3.39-8.16-6.11-13-6.26Z"/><path class="cls-1" d="M403.89,211c-.41-4.56-.86-9.11-1.44-13.64A122.09,122.09,0,0,0,400.06,184c-.79-3.19-1.94-6.33-3-9.5-3.76-11.15-7.83-22.23-11.25-33.55l-.47-1.58c0-.34-.39-.38-.65-.32a9.86,9.86,0,0,0-1.55.46c-1.06.38-2.11.85-3.17,1.31-2.11.94-4.22,1.92-6.36,2.8a37.56,37.56,0,0,1-9.78,2.88l-.42,0h-.24c-.25-.06-.14.17-.12.32l.14.85c.07.42.12.85.17,1.27a24.8,24.8,0,0,0,.79,4.8c.58,1.93.06,1.88-1,.34a11.22,11.22,0,0,1-1.4-3.54c-.18-.75-.33-1.54-.51-2.37-.12-.59-.26-1.2-.39-1.82-.1-.45-.19-.9-.29-1.36l-.08-.35,0-.09s.05,0,.08,0h.17l.71,0c.51,0,1.06,0,1.58-.05l.55,0,.36,0c.48-.06,1-.15,1.45-.23,1-.2,1.94-.46,2.91-.75,1.94-.6,3.85-1.34,5.76-2.14s3.81-1.66,5.75-2.5c1-.41,1.95-.83,3-1.18.27-.09.54-.18.83-.25a2.83,2.83,0,0,1,.44-.11l.25-.05c.09,0,.24,0,.35,0a2.45,2.45,0,0,1,1.43.21,1.29,1.29,0,0,1,.53.45,2.53,2.53,0,0,1,.35.62l.61,2.13.57,1.88,1.16,3.76c.81,2.51,1.63,5,2.44,7.54,2.54,7.8,5.58,15.78,8.22,23.78a82.34,82.34,0,0,1,3.33,13.56c.76,4.59,1.31,9.19,1.78,13.79.59,5.67,1.05,11.34,1.51,17,.7,8.58,1.33,17.21,2.35,25.68a131.73,131.73,0,0,0,3.62,19.26c.21.68.4,1.36.63,2s.47,1.32.71,2c2,4.91,3.15,6,3.61,7.12a7.41,7.41,0,0,1,.37.76c.09.32-.33.2-1.23-.39a9.69,9.69,0,0,1-1.46-1.37c-.24-.31-.48-.67-.75-1.05-.13-.19-.27-.38-.4-.59l-.36-.65a40,40,0,0,1-3.25-8.53c-.82-2.94-1.4-5.95-1.94-9-1.05-6.07-1.74-12.26-2.34-18.46-.88-9.21-1.52-18.46-2.37-27.66Z"/><path class="cls-1" d="M351.59,189.28c1.53-4.38,3.05-8.78,4.68-13.15.59-1.59,1.15-3.2,1.8-4.78,1.13-2.78,2.35-5.53,3.75-8.21a43.87,43.87,0,0,1,4.92-7.65,16.52,16.52,0,0,1,6.45-5.07,10,10,0,0,1,5.35-.59,12.51,12.51,0,0,1,4.93,1.95c.92.6.51.92-.49.89a28.88,28.88,0,0,1-4.23-.73,8.67,8.67,0,0,0-4.44.18,11.14,11.14,0,0,0-4,2.34,32.28,32.28,0,0,0-6.08,7.87,79.65,79.65,0,0,0-5.18,11.49c-1.68,4.34-3.22,8.75-4.75,13.17-.95,2.72-1.89,5.45-2.84,8.17-1.46,4.11-3,8.22-4.78,12.21a40,40,0,0,1-5,8.84,13.91,13.91,0,0,1-1.59,1.68,7.28,7.28,0,0,1-2.73,1.58,2.13,2.13,0,0,1-1.91-.38c-.15-.17,0-.38.46-.6a19.09,19.09,0,0,0,1.78-1c2.2-1.51,3.84-4.05,5.27-6.66a78.84,78.84,0,0,0,3.8-8.38c1.7-4.3,3.24-8.72,4.75-13.15Z"/><path class="cls-1" d="M332.15,239.67c1.4.22,2.83.46,4.21.61a20.48,20.48,0,0,0,4.14-.07,22.32,22.32,0,0,0,7.91-2.51,15.57,15.57,0,0,0,4.59-3.82,78.53,78.53,0,0,0,5.95-9.31c1.85-3.24,3.61-6.54,5.3-9.87,1.51-2.95,2.91-6,4.25-9,.85-1.94,1.66-3.89,2.45-5.85s1.6-3.93,2.18-5.83c.24-1.06.73-1.09,1,.18a12,12,0,0,1-1,5.71c-1.63,4.06-3.45,8-5.37,11.91s-3.95,7.76-6.14,11.56c-1.31,2.27-2.61,4.6-4,6.91L356.55,232l-1.14,1.7c-.38.57-.85,1.11-1.27,1.66a14.08,14.08,0,0,1-1.48,1.51,21.11,21.11,0,0,1-8,4.3,23.36,23.36,0,0,1-9,.85,76.21,76.21,0,0,1-10.71-2.21,137,137,0,0,1-15.48-5.57c-3.92-1.61-7.73-3.24-11.54-5l-2.49-1.15c-3.11-1.48-4-2-4.48-2.74a5.15,5.15,0,0,1-.37-.48c-.13-.23.16-.34.9-.23a14.24,14.24,0,0,1,2.76.93c6.86,3,13.92,6.33,21.25,9.08a99.4,99.4,0,0,0,16.67,4.91Z"/><path class="cls-1" d="M301.63,204.61c3.71,1.79,7.29,3.72,10.93,5.53,1.32.66,2.67,1.27,4,1.91A93,93,0,0,0,331,217.84a29.9,29.9,0,0,0,6.71,1.13,14.28,14.28,0,0,0,8.09-1.79c.72-.42,1,0,.59.82a4,4,0,0,1-.42.71,6.36,6.36,0,0,1-.74.71,4.11,4.11,0,0,1-1,.65,4.82,4.82,0,0,1-1.27.47,16.71,16.71,0,0,1-4.85.43,29.34,29.34,0,0,1-4.7-.61,51.83,51.83,0,0,1-8.84-2.86c-3.4-1.43-6.93-2.88-10.3-4.52-3.71-1.78-7.35-3.7-11-5.53-1.13-.56-2.25-1.12-3.39-1.64-.57-.26-1.14-.52-1.71-.74l-.43-.17-.24-.09-.23-.09-.11,0c-.05,0-.05.06-.07.08-.13.26-.61,1.34-1,2.17s-.72,1.76-1,2.65A42,42,0,0,0,293.5,215a32.92,32.92,0,0,0-.57,8.56c0,.63.1,1.24.16,1.87.24,2.33.3,3.07-.12,3.67a2.06,2.06,0,0,1-.28.39c-.32.3-.85-.6-1.18-2.38a33.52,33.52,0,0,1,1.27-16.52,57.85,57.85,0,0,1,2.24-5.88l.52-1.15.32-.69.15-.34.08-.17.18,0,1.44.49c.23.07.49.17.67.24l.38.15c1,.39,1.94.83,2.89,1.26Z"/><path class="cls-1" d="M281.82,192.29a11.44,11.44,0,0,1,1.26.7c.36.23.71.48,1.05.72.67.5,1.32,1,2,1.52.46.37,1,.7,1.41,1.08,1.59,1.35,3.14,2.73,4.75,4a20.08,20.08,0,0,0,2.24,1.52,22.3,22.3,0,0,0,2.89,1.37c.23.09.3.58-.1,1a1.8,1.8,0,0,1-2,.34,17.87,17.87,0,0,1-3.23-2,35.47,35.47,0,0,1-2.79-2.39c-1.06-1-2.29-1.87-3.43-2.8a45.87,45.87,0,0,0-3.83-2.86,7.67,7.67,0,0,0-1-.56c-.2-.08-.56-.15-.67.12a1.06,1.06,0,0,0-.05.59,3.7,3.7,0,0,0,.09.4c.06.15.11.31.18.47a8.07,8.07,0,0,0,1.15,1.8,22,22,0,0,0,2.45,2.37c.19.16.39.32.58.5.69.66.82,1,.58,1.48a2,2,0,0,1-.16.33c-.24.31-.71.24-1.26-.17a17.65,17.65,0,0,1-4.65-4.83,7.5,7.5,0,0,1-.62-1.34,5.91,5.91,0,0,1-.22-.94v-.58a1.34,1.34,0,0,1,.05-.57,1.85,1.85,0,0,1,1.29-1.54,2.88,2.88,0,0,1,.51-.1l.55,0a4.25,4.25,0,0,1,.56.15,2.82,2.82,0,0,1,.49.16Z"/><path class="cls-1" d="M278.27,200.5c.38.71.81,1.39,1.23,2.09s1,1.3,1.48,1.93c.41.43.85.83,1.26,1.27a9.62,9.62,0,0,0,1.13,1.08l1.19,1.06c.84.63,1.72,1.24,2.6,1.85.82.45,1.69.87,2.54,1.27a23.22,23.22,0,0,1,3.36,1.37c.67.4-.8,1.76-2.2,1.23-.61-.23-1.22-.45-1.82-.72l-1.73-.93a19.21,19.21,0,0,1-3.23-2.24c-.63-.46-1.2-1-1.84-1.53-.31-.26-.64-.49-.93-.77l-.85-.86-.91-1-.81-1c-.27-.35-.54-.7-.79-1.06l-.7-1.12a26.23,26.23,0,0,1-1.5-2.88,28.36,28.36,0,0,1-1.51-4.65,30.28,30.28,0,0,1-.74-3.7c0-.28-.06-.55-.07-.84a2.77,2.77,0,0,1,.17-1.13.76.76,0,0,1,.58-.44,1.48,1.48,0,0,1,.35-.05.55.55,0,0,1,.46.31,1.86,1.86,0,0,1,.22.76,34.41,34.41,0,0,0,1.24,6.22,23.85,23.85,0,0,0,1.86,4.47Z"/><path class="cls-1" d="M324.69,200.32a7.08,7.08,0,0,0-2-2.69,2.93,2.93,0,0,0-.63-.33,1.37,1.37,0,0,0-.35-.08,1.71,1.71,0,0,0-.4-.07l-2-.21a17.66,17.66,0,0,0-2.71-.05,10.93,10.93,0,0,0-1.15.13c-.38.07-.82.18-.95.22a.65.65,0,0,0-.36.18c-.11.13,0,.28.11.37a5.58,5.58,0,0,0,1.69.74,9.62,9.62,0,0,0,1.15.28c.37.07.79.09,1.24.16a4.06,4.06,0,0,1,2.4,1,7,7,0,0,1,1.3,2.11c.38,1,.55,1.93.85,2.77a3.05,3.05,0,0,0,1.2,1.81c.35.14.4.61-.29.91a1.74,1.74,0,0,1-1.43-.27,3.08,3.08,0,0,1-1.17-1.48c-.4-1-.56-2.07-.81-2.86a7.41,7.41,0,0,0-.49-1.11,2.59,2.59,0,0,0-.58-.77,5.09,5.09,0,0,0-2.26-.57,10.55,10.55,0,0,1-3.06-1,6.06,6.06,0,0,1-1.17-.74,2.05,2.05,0,0,1-.7-1.08c-.18-.93.6-1.59,1.52-1.94.24-.1.41-.14.62-.21l.48-.13c.31-.07.63-.14,1-.19a12.46,12.46,0,0,1,1.92-.12c1.4,0,2.7.22,4,.34a4.52,4.52,0,0,1,2.17.87A6.85,6.85,0,0,1,325.3,198a29.88,29.88,0,0,1,2.26,4.43c.26.55.53,1.09.82,1.59a7,7,0,0,0,.48.69l.27.31.34.37c.82,1,1.52,2,2.29,2.93a30.24,30.24,0,0,0,3.79,4c.3.26.61.49.92.72,1.16.85,1.46,1,1.62,1.54a3.43,3.43,0,0,1,.13.38c0,.2-.11.32-.46.35a2.69,2.69,0,0,1-1.43-.36,15.69,15.69,0,0,1-4.16-3.5c-1.21-1.33-2.29-2.78-3.36-4.15-.2-.26-.39-.49-.58-.72l-.68-.75a10.22,10.22,0,0,1-1.19-1.9c-.63-1.24-1.12-2.46-1.71-3.57Z"/><path class="cls-1" d="M306.51,190.08a3.45,3.45,0,0,1,1.39-1.61,2.87,2.87,0,0,1,1.26-.33,8.17,8.17,0,0,1,1,0,15.24,15.24,0,0,1,1.83.23c.62.11,1.25.2,1.85.37a17.59,17.59,0,0,1,5.93,2.93,11.54,11.54,0,0,1,2.14,2.11,5.26,5.26,0,0,1,1.18,3.73c0,.42-.5.32-.94,0a2.6,2.6,0,0,1-1.06-1.24c-.55-1.86-2.28-3.36-4.26-4.57a13.65,13.65,0,0,0-4-1.46,18.3,18.3,0,0,0-2.15-.38c-.36,0-.71,0-1.06-.06a2.23,2.23,0,0,0-.79.12l-.21.15a3,3,0,0,0-.73,2.33,7,7,0,0,0,.37,2.11,4.64,4.64,0,0,0,1,1.75.78.78,0,0,0,1,.05,1.24,1.24,0,0,0,.42-1c0-.22,0-.44,0-.68,0-.89.05-1.28.53-1.48a1.51,1.51,0,0,1,.33-.13c.36-.05.63.27.77,1a5.75,5.75,0,0,1,.08,1.84A3,3,0,0,1,312,197a2.64,2.64,0,0,1-2.48,1.21,2.62,2.62,0,0,1-1.36-.6,5.5,5.5,0,0,1-1.25-1.73,8.1,8.1,0,0,1-.77-2.78,6.43,6.43,0,0,1,.34-3Z"/><path class="cls-1" d="M307.14,201.25a9.8,9.8,0,0,1-1.53-2.28,8.79,8.79,0,0,1-.43-.87,8.12,8.12,0,0,1-.47-3.43,7.65,7.65,0,0,1,.29-1.56,2.58,2.58,0,0,1,1.18-1.69c.2-.11.45.28.64.71s.33.86.22,1a4.88,4.88,0,0,0-.7,2.6,4.44,4.44,0,0,0,.54,1.91,8.26,8.26,0,0,0,1.13,1.95,5,5,0,0,0,1,.94,2.55,2.55,0,0,0,.82.39.82.82,0,0,0,.69-.15,1.86,1.86,0,0,0,.46-1.25c0-.11,0-.23,0-.34,0-.42.17-.54.65-.59l.32,0a.65.65,0,0,1,.69.62,3.55,3.55,0,0,1-.32,1.94,1.87,1.87,0,0,1-.32.53,2.21,2.21,0,0,1-.48.49,2.59,2.59,0,0,1-1.41.53,3.44,3.44,0,0,1-1.79-.49,5.82,5.82,0,0,1-1.2-.94Z"/><path class="cls-2" d="M320.29,196.61s0,0,0,0a.29.29,0,0,1,.07-.19l6.36-6.67c2.11-2.26,4.2-4.41,6.28-6.87a1.3,1.3,0,0,1,.22-.18l0,0c.14-.23-.28-.6-.92-.81a8.42,8.42,0,0,1-1.17-.45h0c.05,0,.07,0,0,.1l-.44.53c-3.87,4.34-8,8.59-12,12.84a.24.24,0,0,1-.16.07h0c-.09.09.24.54.72,1S320.2,196.7,320.29,196.61Z"/><path class="cls-2" d="M309.36,208.44s0,0,0,0a.13.13,0,0,1,0-.13l7.43-8.21a.14.14,0,0,1,.12,0h0c.05-.06-.32-.47-.81-.92s-.95-.78-1-.72v0c0,.06,0,.11,0,.13l-.3.34-7.13,7.87a.14.14,0,0,1-.12,0h0c-.05.05.31.46.81.91S309.31,208.5,309.36,208.44Z"/><path class="cls-2" d="M315.37,210.44a.32.32,0,0,0-.09,0,1.94,1.94,0,0,1-.49-.2L268,182.91a1.9,1.9,0,0,1-.39-.31l-.08-.07c-.31-.18-.84.15-1.18.73s-.36,1.2-.05,1.38l.1,0a1.87,1.87,0,0,1,.49.2l1.9,1.11,44.93,26.18a1.66,1.66,0,0,1,.39.31.27.27,0,0,0,.08.07c.31.18.84-.14,1.18-.72S315.68,210.62,315.37,210.44Z"/><path class="cls-1" d="M381.08,284.52c-5.74,1.77-11.42,3.71-17.2,5.48a34,34,0,0,1-6.6,1.57,7.84,7.84,0,0,1-3.27-.31,3.7,3.7,0,0,1-1.55-1.08,4.55,4.55,0,0,1-.86-1.56,7.49,7.49,0,0,1-.35-3.2c.07-1,.19-2,.3-2.93.46-3.86,1-7.68,1.5-11.52.45-3.4.84-6.82,1.17-10.2.41-4.35.71-8.73,1-13,.1-1.34.57-1.17,1,0a14.57,14.57,0,0,1,.61,5.88c-.69,9-2,17.82-3.28,26.72-.19,1.33-.37,2.67-.5,4,0,.34-.06.67-.08,1a6.22,6.22,0,0,0,0,.94,5.16,5.16,0,0,0,.31,1.77,2.34,2.34,0,0,0,2.36,1.72,11.43,11.43,0,0,0,1.92-.07c.61-.08,1.26-.21,1.92-.36,2.87-.7,5.76-1.66,8.64-2.58l8.65-2.8c3.55-1.14,7.12-2.25,10.71-3.28a124.53,124.53,0,0,1,16.58-3.75,42.45,42.45,0,0,1,6.57-.48,15.5,15.5,0,0,1,1.66.08,14,14,0,0,1,1.67.24,15,15,0,0,1,1.66.43c.63.19,1.56.76,1.66,1.6a2.5,2.5,0,0,1-.81,1.94,7.66,7.66,0,0,1-1.24,1,12,12,0,0,1-3.58,1.64,3,3,0,0,1-1.8,0,2,2,0,0,1-.56-.24c-.38-.34.93-.75,3.14-1.89a13.29,13.29,0,0,0,2.27-1.44,3.49,3.49,0,0,0,.44-.41c.11-.12.12-.15.13-.19a.15.15,0,0,0-.07-.2L415,279l-.63-.18a9.36,9.36,0,0,0-1.32-.28,18.48,18.48,0,0,0-2.81-.22,56.32,56.32,0,0,0-11.74,1.48c-5.84,1.27-11.66,3-17.43,4.79Z"/><path class="cls-1" d="M378,463.94c-3.49.81-30.26,7.1-24.3,10,5.5,2.68,25.7-4.8,28.35-7.73,0,1.81-2.19,8.91,1.17,8.05s.58-9,0-11.17C381.12,463.1,380.27,464,378,463.94Z"/><path class="cls-1" d="M377,470.45a78.4,78.4,0,0,1-12.59,4,42.3,42.3,0,0,1-4.78.86,17.31,17.31,0,0,1-4.43,0,8.65,8.65,0,0,1-1.15-.27,4.54,4.54,0,0,1-1.36-.73,1.65,1.65,0,0,1-.65-1.39,2.26,2.26,0,0,1,.78-1.4l.32-.27.25-.18a5,5,0,0,1,.49-.31c.32-.2.65-.37,1-.53.66-.32,1.32-.6,2-.86,1.33-.53,2.66-1,4-1.41,2.38-.75,4.77-1.48,7.14-2.16a84.18,84.18,0,0,1,9.23-2.32c2-.32-.08,2-3.58,2.87-3.11.8-6.21,1.63-9.29,2.51a64.58,64.58,0,0,0-9,3.09,6.77,6.77,0,0,0-1.11.65c-.13.09-.26.18-.26.34a.25.25,0,0,0,.11.19.61.61,0,0,0,.25.14l.2.08.3.08a3.3,3.3,0,0,0,.64.13,20,20,0,0,0,5.69-.29,68.61,68.61,0,0,0,12.48-3.45c1.25-.46,2.49-1,3.7-1.51.61-.27,1.21-.55,1.79-.86l.22-.11.31-.18.62-.35c.46-.35.88-.64,1.41-1.12l.8-.72c0,.09.09.18.13.18l.06,0,0,0v.12c0,.34,0,.65-.06,1a17.74,17.74,0,0,1-.26,2l-.28,1.74c-.07.47-.13.94-.16,1.41-.06.88,0,2,.41,2.25a.94.94,0,0,0,.87,0A1.23,1.23,0,0,0,384,473a4.6,4.6,0,0,0,.3-2,15.34,15.34,0,0,0-.29-2.22,40.77,40.77,0,0,0-1.17-4.38l-.12-.35a2.21,2.21,0,0,0-.37,0l-.32.07-.38.08-.68.18a5.76,5.76,0,0,1-1.16.2,1.83,1.83,0,0,1-1.34-.34,2,2,0,0,1-.36-.35c-.12-.19.09-.36.51-.51l1.87-.67a12,12,0,0,1,1.35-.42l.49-.09c.19,0,.39-.06.59-.07l1.21-.06.44,1.53.3,1c.18.57.35,1.16.51,1.76a24.54,24.54,0,0,1,.71,3.76,9.84,9.84,0,0,1,0,2.1,4.29,4.29,0,0,1-.95,2.38,3,3,0,0,1-1.32.87,3.51,3.51,0,0,1-.73.16,3.08,3.08,0,0,1-.91,0,2.34,2.34,0,0,1-1.46-1.05,3.66,3.66,0,0,1-.5-1.4,14.35,14.35,0,0,1,.22-4.06v-.1h0s0-.05,0,0h0l-.68.35c-.89.45-1.79.87-2.69,1.26Z"/><path class="cls-1" d="M400.27,464.94c-3.49.81-32.29,6.67-26.34,9.57,5.5,2.68,27.75-4.37,30.39-7.3,0,1.81-2.19,8.91,1.17,8.05s.58-9,.05-11.17C403.35,464.1,402.5,465,400.27,464.94Z"/><path class="cls-1" d="M397.82,471.76a88.27,88.27,0,0,1-13.27,3.53,45.91,45.91,0,0,1-5,.7,17.48,17.48,0,0,1-4.6-.21c-.61-.14-2.19-.62-2.56-1.6a1.53,1.53,0,0,1,.25-1.52,3.45,3.45,0,0,1,.6-.61l.36-.26.28-.18a23.92,23.92,0,0,1,4.18-1.74c1.4-.47,2.8-.88,4.21-1.27,2.5-.69,5-1.35,7.5-2,3.2-.81,6.4-1.66,9.65-2.16,2-.32-.12,2-3.81,2.83-3.26.75-6.52,1.51-9.76,2.31a91.34,91.34,0,0,0-9.55,2.8A11.74,11.74,0,0,0,375,473c-.49.27-.49.26-.62.4a.24.24,0,0,0,.09.39,1.17,1.17,0,0,0,.25.12c.1,0,.4.1.59.16a20.32,20.32,0,0,0,5.92-.08,76.89,76.89,0,0,0,13.16-3c1.33-.42,2.65-.86,3.94-1.35.65-.25,1.29-.51,1.93-.78.31-.13.63-.27.94-.42l.46-.22.64-.33c.37-.24.73-.48,1.13-.78l1.28-1.09c.08.25.2.11.23.3s0,.61-.05.91c0,.59-.11,1.21-.23,1.88l-.28,1.69c-.07.44-.13.89-.17,1.33a9.48,9.48,0,0,0,0,1.3,2.54,2.54,0,0,0,.24,1.05.64.64,0,0,0,.66.32,1.34,1.34,0,0,0,.85-.4,3.05,3.05,0,0,0,.55-1.93,11.32,11.32,0,0,0-.21-2.3,40.5,40.5,0,0,0-1.18-4.61l-.07-.22,0-.13-.08-.19a.77.77,0,0,0-.3,0l-.63.12-.7.18a6.21,6.21,0,0,1-1.19.22,1.93,1.93,0,0,1-1.4-.33,1.87,1.87,0,0,1-.38-.35c-.12-.19.1-.35.53-.51l2-.7a10.68,10.68,0,0,1,1.31-.39,12.71,12.71,0,0,1,2.23-.21l.46,1.6.3,1c.19.61.37,1.24.53,1.87a21,21,0,0,1,.69,4,8.55,8.55,0,0,1-.13,2.28,5,5,0,0,1-.5,1.28,3,3,0,0,1-1.17,1.13,3.25,3.25,0,0,1-.76.3l-.38.07a3.7,3.7,0,0,1-.48,0,2.3,2.3,0,0,1-1.71-.77,3.21,3.21,0,0,1-.72-1.52,5.9,5.9,0,0,1-.12-1.21,12.89,12.89,0,0,1,.11-1.8l.11-.85.1-.61s0,0,0,0h0c.11-.06-.32.17-.57.28l-.84.39c-1.12.49-2.25.93-3.39,1.34Z"/><path class="cls-1" d="M386.35,466c-.42-.15-.86-1.1-1.3-2.72-6.67.72-15.61,1-18.13-.62-3.38-2.23-8.38-166.24-6.3-172.06l43.6-11.87c1.43,19.34,4.56,174.13,6.53,183C411.55,465.22,394.25,468.87,386.35,466Z"/><path class="cls-1" d="M404.38,313.73l-.5-17.1-.3-8.55-.16-4.27-.19-3.62v-.13h0l-.17,0-1.87.5L397,281.72,388.75,284l-16.53,4.45-6,1.64-3,.82-1.51.41-.2.06a.43.43,0,0,0,0,.17l-.06.62-.05.76-.08,1.54-.08,3.1-.06,6.22c0,14.66.24,29.33.54,44s.74,29.33,1.25,44c.45,13,1,26.08,1.75,39,.48,8.27,1,16.58,1.8,24.82a52.13,52.13,0,0,0,.86,6.05c.14.5.09.41.48.62l.65.23.7.17a22.26,22.26,0,0,0,3,.37c2,.13,4.09.12,6.15.05,1,0,2.05-.09,3.08-.15l1.54-.11,1.86-.16c.29,0,.56-.06.8-.07a21.33,21.33,0,0,0,.79,2.67c.19.38.15.36.12.46s-.29.09-.63-.34a9.41,9.41,0,0,1-1-1.76l-.69.15-.34.08-.48.09c-.64.12-1.35.24-2.11.35-1.53.23-3.28.43-5.23.55a35.35,35.35,0,0,1-6.45-.12,13.32,13.32,0,0,1-1.84-.37,5.8,5.8,0,0,1-1-.39,1.81,1.81,0,0,1-.71-.49,1.73,1.73,0,0,1-.45-.72,5.81,5.81,0,0,1-.2-.61c-.05-.17-.08-.33-.12-.49-.07-.32-.13-.63-.19-.94-.11-.63-.19-1.25-.28-1.87-.53-4.27-.84-8.5-1.15-12.74s-.55-8.47-.79-12.7q-.69-12.72-1.18-25.44-1-25.45-1.52-51.07c-.21-10.22-.42-20.65-.63-31.14q-.14-7.86-.2-15.76c0-5.26,0-10.51.14-15.77,0-.73.07-1.45.13-2.19l.06-.56a8.15,8.15,0,0,1,.14-.84l.11-.41.06-.21c0-.07.12-.06.18-.1a6.87,6.87,0,0,1,.84-.26l4.25-1.15,8.33-2.25,16.65-4.49,8.32-2.24,4.26-1.15,1.65-.45.41-.11.11,0s0,.06,0,.09V278l.05.85.14,2.65c.3,5.76.47,11.5.66,17.25q.6,21.23,1.19,42.44c.58,21.42,1.11,42.94,1.79,64.2.28,8.26.58,16.44.92,24.59s.7,16.29,1.22,24.42c.09,1.2.17,2.39.26,3.58s.27,2.31.4,3.48a2.89,2.89,0,0,1,0,.72,1.89,1.89,0,0,1-.22.67,2,2,0,0,1-.34.52,3.83,3.83,0,0,1-.39.41,7.82,7.82,0,0,1-1.67,1.11,22.45,22.45,0,0,1-4.53,1.62,39,39,0,0,1-3.87.78,40.75,40.75,0,0,1-5.86.45,17.56,17.56,0,0,1-6.39-1,9.11,9.11,0,0,1-1.76-.84c-.27-.19-.14-.24.34-.17s1.3.22,2.49.34a42,42,0,0,0,10.92-.51,36.05,36.05,0,0,0,5.6-1.38,15.51,15.51,0,0,0,2.59-1.14,5.18,5.18,0,0,0,1-.74,1.67,1.67,0,0,0,.23-.33.21.21,0,0,0,0-.17c-.49-3.3-.64-6.47-.88-9.7s-.34-6.45-.52-9.7q-.45-9.75-.81-19.66c-.49-13.19-.9-26.56-1.29-39.95-.64-23-1.28-46-1.91-69.06Z"/><path class="cls-1" d="M376.74,398.89c-.59-8.48-1.1-17-1.62-25.44-.2-3.1-.39-6.19-.59-9.28q-.9-16.37-1.6-32.73c-.23-4.85-.47-9.71-.7-14.52-.29-6.18-.73-12.34-.47-18.61.11-2,.58-1.62,1,0a40.32,40.32,0,0,1,1,8.13c.5,12.6,1,25.18,1.49,37.88.28,7.6.82,15.5,1.29,23.26q.75,12.81,1.61,25.61c.37,5.25.71,10.51,1.14,15.75.6,8,1.25,15.94,2.06,23.8.33,3.06.65,6.09,1,9.1s.83,6,1.24,9c.22,1.32.43,2.61.65,3.93s.34,2.26.46,3.11.28,1.53.36,2.1a6.72,6.72,0,0,1,0,2.4,5.06,5.06,0,0,1-.18.78c-.27.58-1-1.35-1.89-5-2.13-10.75-3.23-22.18-4.32-33.65-.39-4.26-.76-8.54-1.08-12.82s-.65-8.55-1-12.83Z"/><path class="cls-1" d="M314.62,221.78a4.45,4.45,0,0,1-.18,2,4,4,0,0,1-1.12,1.74,2.71,2.71,0,0,1-1.5.7,3.11,3.11,0,0,1-2.51-.8,4.16,4.16,0,0,1-1.13-2.09,6,6,0,0,1-.14-2,2.06,2.06,0,0,1,.76-1.47,1.45,1.45,0,0,1,1.07-.24,1.62,1.62,0,0,1,.75.39c.23.22-.14.56-.52.87a1.76,1.76,0,0,0-.47.48s0,.11,0,0a1.25,1.25,0,0,0,0-.15.31.31,0,0,0,0-.1s0-.05,0,0a.44.44,0,0,0,.11.14,1.7,1.7,0,0,0,.31.25.71.71,0,0,0-.05.15,2.51,2.51,0,0,0-.07.71,3.84,3.84,0,0,0,.35,1.57,1.21,1.21,0,0,0,1.49.49,2,2,0,0,0,1.06-1.73,1.7,1.7,0,0,0-.38-1.3,2,2,0,0,0-2-.62,1.35,1.35,0,0,0-.69.42.86.86,0,0,0-.18.55c0,.08.05.15.06.22.09.31.1.48-.29.84l-.26.25c-.28.26-.71.22-1.05-.31a2.34,2.34,0,0,1-.27-1.54,2.63,2.63,0,0,1,.85-1.49,3.74,3.74,0,0,1,6.06,2.08Z"/><path class="cls-1" d="M379.63,241.07a4.94,4.94,0,0,1-.23.9c-.12.25-.25.5-.38.74a7.15,7.15,0,0,1-1,1.17,3.23,3.23,0,0,1-1,.73,2.5,2.5,0,0,1-2.35-.26,3.67,3.67,0,0,1-1.25-1.58,6.11,6.11,0,0,1-.49-1.61,2.46,2.46,0,0,1,.44-2.15c.16-.19.54.12.89.48s.7.67.67.86a3.61,3.61,0,0,0,.49,2.34.7.7,0,0,0,.49.32,1,1,0,0,0,.55-.18,3.66,3.66,0,0,0,1.26-1.49,1.28,1.28,0,0,0,0-1,1.38,1.38,0,0,0-1.43-.61.83.83,0,0,0-.65.8,1.1,1.1,0,0,1,0,.25c0,.31-.07.44-.57.61l-.33.12a.66.66,0,0,1-.86-.52,1.52,1.52,0,0,1-.06-.57,1.72,1.72,0,0,1,.07-.63,4,4,0,0,1,.26-.65,6.57,6.57,0,0,1,.48-.57,3,3,0,0,1,2.63-.62,3.41,3.41,0,0,1,1,.35,3,3,0,0,1,.81.7,2.74,2.74,0,0,1,.53,1,3.63,3.63,0,0,1,.12,1.07Z"/><path class="cls-1" d="M365.3,185.9a2.43,2.43,0,0,1,.19,1.93,3.37,3.37,0,0,1-.85,1.29l-.36.36c-.19.13-.37.26-.57.38a1.84,1.84,0,0,1-2.08-.16c-.13-.12-.24-.27-.36-.4l-.25-.48a5.08,5.08,0,0,1-.15-.52c0-.16,0-.29-.05-.44a5.35,5.35,0,0,1,.1-1.49,2.87,2.87,0,0,1,.39-1,1.48,1.48,0,0,1,.91-.63c.24-.06.34.43.46.9a4.5,4.5,0,0,0,.18.63c.07.17.14.28.1.3a2.07,2.07,0,0,0-.26.72c0,.16,0,.32-.05.47a.48.48,0,0,0-.08.23.18.18,0,0,0,.19.21c.11,0,.2-.07.29-.12a2.36,2.36,0,0,0,.53-.52.85.85,0,0,0,.21-.5.91.91,0,0,0-.42-.63,1.65,1.65,0,0,0-1.36-.3.45.45,0,0,0-.17.67,1.25,1.25,0,0,0,.08.12c.12.28.07.43-.36.72l-.28.2a.66.66,0,0,1-.94-.14,2,2,0,0,1-.25-.42,2.57,2.57,0,0,1-.16-.62,2.05,2.05,0,0,1,.24-1.28,2.09,2.09,0,0,1,1-.9,3.34,3.34,0,0,1,.68-.21,4.05,4.05,0,0,1,.67,0,3.68,3.68,0,0,1,1.53.42,3.37,3.37,0,0,1,1.29,1.19Z"/><path class="cls-1" d="M393.6,191.6a2.3,2.3,0,0,1-.46,1.6,6.5,6.5,0,0,1-1,1.11l-.18.18-.31,0-.37-.1a3,3,0,0,1-1.33-1,4.25,4.25,0,0,1-.59-1.14,3.51,3.51,0,0,1-.22-1.23,1.52,1.52,0,0,1,.37-.95,1,1,0,0,1,.85-.4c.2,0,.24.49.3,1a3.92,3.92,0,0,0,.13.62.37.37,0,0,0,.05.11s0,0,0,0l-.1-.13c0-.05-.07,0,.17,0s.13,0,.17.1a2.71,2.71,0,0,0,.09.71c0,.08.08.17.09.21a.24.24,0,0,0,.08.09,1,1,0,0,0,.21.11s0,0,.06,0a.81.81,0,0,0,.34-.38.37.37,0,0,0-.11-.43.78.78,0,0,0-.77-.13.29.29,0,0,0-.11.11s0,.06,0,0h0l-.21-.06h.14l.09,0,.08,0s.06,0,.09,0l.14.07c.17.13.17.27-.11.7l-.17.3a.71.71,0,0,1-.81.38,1.7,1.7,0,0,1-.65-.45,1.58,1.58,0,0,1-.39-1.36,1.59,1.59,0,0,1,.14-.42,2.55,2.55,0,0,1,.14-.24,1.8,1.8,0,0,1,.36-.37,2.1,2.1,0,0,1,1-.41,2.74,2.74,0,0,1,1.82.36,2,2,0,0,1,1,1.46Z"/><path class="cls-1" d="M399.61,221.51a3.72,3.72,0,0,1-.82,2.07,2.75,2.75,0,0,1-.67.6,3,3,0,0,1-2.72-.06,2.28,2.28,0,0,1-1-.88,1.31,1.31,0,0,1,0-1.22,1,1,0,0,1,.69-.58c.18-.05.38.4.58.83a4.72,4.72,0,0,0,.28.59l.1.13a1,1,0,0,0-.23-.18c-.26-.19-.36-.09-.19-.15a.94.94,0,0,0,.31-.21,1.29,1.29,0,0,0,.16-.17s0,0,0,0a1.25,1.25,0,0,0,.44.39.71.71,0,0,0,.74-.11,1.18,1.18,0,0,0,.51-.81,2.76,2.76,0,0,0,.07-.82v0l.39.5a.72.72,0,0,0-.83,0,1.13,1.13,0,0,0-.31.74c0,.06,0,.13,0,.19,0,.21-.17.23-.67.2l-.35,0c-.38,0-.68-.23-.7-.56a2.24,2.24,0,0,1,.4-1.42,2.54,2.54,0,0,1,1.47-1.05,2.69,2.69,0,0,1,1.67.13l.75.33,0,.68a7.73,7.73,0,0,1,0,.84Z"/><path class="cls-1" d="M402.11,256.23a2.42,2.42,0,0,1-.85,1.48,2.11,2.11,0,0,1-1.59.39l-.59-.11a2.75,2.75,0,0,1-.45-.17,2.53,2.53,0,0,1-1.21-1.39,3.49,3.49,0,0,1-.16-1.59,4.09,4.09,0,0,1,.38-1.36,2,2,0,0,1,.65-.79,1.26,1.26,0,0,1,1-.24c.22,0,.16.52.11,1a3.71,3.71,0,0,0,0,.64,1.57,1.57,0,0,0,0,.3,1.21,1.21,0,0,0-.21.31,2.59,2.59,0,0,0-.21.81.63.63,0,0,0,.15.46,1.19,1.19,0,0,0,.37.22.48.48,0,0,0,.71-.11.88.88,0,0,0,.09-.26,1.62,1.62,0,0,0,0-.44,1.85,1.85,0,0,0-.2-.64c-.1-.18-.22-.24-.25-.22s-.26.33-.36.68c0,.07,0,.17-.07.25-.12.29-.26.35-.76.22l-.33-.09a.72.72,0,0,1-.58-.71,2.64,2.64,0,0,1,.71-1.55,2.16,2.16,0,0,1,.51-.4,2.25,2.25,0,0,1,.83-.23,2,2,0,0,1,1.52.63,3,3,0,0,1,.75,1.4,3.67,3.67,0,0,1,.07,1.5Z"/><path class="cls-1" d="M370.35,277.28a2.61,2.61,0,0,1-1,1.34,3.09,3.09,0,0,1-1.36.52l-.55.08a2.69,2.69,0,0,1-.63-.06,2,2,0,0,1-1.39-1.48,2.61,2.61,0,0,1,.28-1.79,3.3,3.3,0,0,1,.94-1.16,1.84,1.84,0,0,1,1.84-.41c.2.08.06.55-.11,1a3.82,3.82,0,0,1-.38.93,1.21,1.21,0,0,0-.45.23,3.42,3.42,0,0,0-.43.51.21.21,0,0,0,0,.28.49.49,0,0,0,.27.1h.25l.32-.08a1,1,0,0,0,.48-.29,1,1,0,0,0,.19-.73,1.79,1.79,0,0,0-.17-.66.8.8,0,0,0-.34-.4.4.4,0,0,0-.57.3c0,.05,0,.11,0,.14s-.15.11-.64,0l-.34-.06a.62.62,0,0,1-.5-.85,2.15,2.15,0,0,1,.52-1,2.08,2.08,0,0,1,1-.52,2.38,2.38,0,0,1,2.14,1,4.28,4.28,0,0,1,.29.38l.19.37a2.6,2.6,0,0,1,.24.73,4,4,0,0,1,.09.77,4.63,4.63,0,0,1-.13.83Z"/><path class="cls-1" d="M341.9,122.8a3.15,3.15,0,0,1-2.11-.33,4.23,4.23,0,0,1-.81-.62c-.2-.24-.36-.49-.54-.73a3.61,3.61,0,0,1-.35-.71,2.81,2.81,0,0,1-.13-.74,5.13,5.13,0,0,1,.5-2.12,12.6,12.6,0,0,1,.94-1.7l.89-1.44a4.19,4.19,0,0,1,1.46-1.65c.22-.13.49.28.67.75s.33,1,.11,1.23c-.77,1-1.55,2-2.26,3.1a2.86,2.86,0,0,0-.45,1.94.42.42,0,0,0,.05.17.4.4,0,0,0,.09.19,3.15,3.15,0,0,0,.33.44c.12.09.22.26.36.29l.2.1.22,0a2.2,2.2,0,0,0,1.31-.32,7.79,7.79,0,0,0,2-1.52,16,16,0,0,0,1.18-1.62,3.11,3.11,0,0,1,.25-.38c.34-.44.59-.5,1-.24a3,3,0,0,1,.3.18.75.75,0,0,1,.21,1,10.44,10.44,0,0,1-2.38,3.08,6.83,6.83,0,0,1-3,1.69Z"/><path class="cls-1" d="M351.06,107.79a4.18,4.18,0,0,1-.37.73,3.94,3.94,0,0,1-.55.72,3.63,3.63,0,0,1-.76.61,4,4,0,0,1-1,.31l-.71,0a2.36,2.36,0,0,1-.74-.14,3.15,3.15,0,0,1-1.61-1.64,7.46,7.46,0,0,1-.58-1.79c-.12-.51-.25-1-.37-1.52a4.77,4.77,0,0,1-.28-1.93c.06-.41,1.92-.18,2.05.54.23,1.25.36,2.46.6,3.56a1.61,1.61,0,0,0,.41.79,1,1,0,0,0,.54.29c.54.12,1-.13,1.38-.78a5.15,5.15,0,0,0,.54-1.35,10.74,10.74,0,0,0,.31-2.36,11.75,11.75,0,0,0-.2-1.86c0-.14-.05-.28-.06-.42,0-.52.11-.73.61-.81l.35-.05a.76.76,0,0,1,.79.55,9.88,9.88,0,0,1,.3,3.6,11,11,0,0,1-.64,2.91Z"/><path class="cls-1" d="M340.32,109.37a3.54,3.54,0,0,0,.47.48.24.24,0,0,0,.25,0,2,2,0,0,0,.32-.4,2.69,2.69,0,0,0,.51-1,4.35,4.35,0,0,0,0-1.35,8.44,8.44,0,0,0-.35-1.33,3.24,3.24,0,0,1-.3-1.9c0-.22.53-.16,1,0s.94.29,1,.57a10.4,10.4,0,0,1,.43,3.76,6.13,6.13,0,0,1-.32,1.4,4.2,4.2,0,0,1-.66,1.21,2.32,2.32,0,0,1-1.58.93,2,2,0,0,1-1-.18,2.69,2.69,0,0,1-.71-.44,6,6,0,0,1-1.08-1.33,16.68,16.68,0,0,1-1.1-2.14c-.26-.56-.59-1.08-.82-1.68a2.9,2.9,0,0,1-.16-.41c-.13-.53,0-.78.5-.89a1.86,1.86,0,0,1,.34-.07.9.9,0,0,1,.84.38c.46.79.86,1.72,1.3,2.6a8.77,8.77,0,0,0,1.09,1.77Z"/><path class="cls-1" d="M349.33,128.93c.19-1.11.28-1.33.4-1.37.37-.14.71-.3,1-.45a5.09,5.09,0,0,0,.91-.39,4.58,4.58,0,0,0,1.23-1.25,3.12,3.12,0,0,0,.29-.45,2.72,2.72,0,0,0,.13-.49s0-.07,0-.07a2.53,2.53,0,0,1,.93.34c.08,0,.2.12.19.13s.5.55.39.71a8.17,8.17,0,0,0-.36,1,.81.81,0,0,1-.25.33,5.27,5.27,0,0,1-.46.31,8.07,8.07,0,0,1-2,1.44,4.94,4.94,0,0,1-2.19.52C349.54,129.2,349.45,129.07,349.33,128.93Z"/><path class="cls-1" d="M348.89,93.47a2.62,2.62,0,0,0-.69-.11,2.89,2.89,0,0,0-.72,0c-.18,0-.33.12-.51.15a5.83,5.83,0,0,0-1.88.78,3.22,3.22,0,0,0-.68.65c-.26.32-.42.71-.86.91-.26.12-1.44-1.29-1.09-1.71a5.47,5.47,0,0,1,2.41-1.73c.58-.2,1.11-.54,1.72-.71a5.68,5.68,0,0,1,2.06-.15,7,7,0,0,1,1.22.26,11.32,11.32,0,0,1,1.67.71c.39.23.88.32,1.28.55a2.24,2.24,0,0,1,.27.13c.32.21.34.38.08.81l-.19.29a.85.85,0,0,1-.8.41,12.58,12.58,0,0,1-1.95-.77,5.13,5.13,0,0,0-1.34-.44Z"/><path class="cls-1" d="M175.76,264c-1.06-.15-2.11-.33-3.15-.5-.38-.06-.76,0-1.14-.11-1.33-.24-2.65-.54-4-.75a9.41,9.41,0,0,0-1.75-.08,6.43,6.43,0,0,1-2,0c-.2-.06-.38-.73-.29-1.42s.55-1.42,1-1.43a13.27,13.27,0,0,1,4.84.69,17.05,17.05,0,0,0,2.84.41l3.1.45c.64.08,1.27.17,1.91.22a16.17,16.17,0,0,0,2.86.08,4.64,4.64,0,0,0,1.06-.22,6.63,6.63,0,0,0,1-.35,3.52,3.52,0,0,1,.4-.18c.45-.19.62-.07,1.05.53.09.14.2.27.28.41a.92.92,0,0,1-.24,1.34,8.13,8.13,0,0,1-4.49,1.13,29.5,29.5,0,0,1-3.28-.18Z"/><path class="cls-1" d="M204.11,264.72c-.72,0-1.43,0-2.15,0-.26,0-.52.06-.78,0-.92-.08-1.84-.25-2.75-.41a7.28,7.28,0,0,0-1.23-.09,2.27,2.27,0,0,1-1.56-.32c-.27-.24.75-2.66,1.19-2.59a11.06,11.06,0,0,1,2.71.67,5.3,5.3,0,0,0,1.78.12c.66,0,1.33,0,2,0,.41,0,.83,0,1.24,0a11.81,11.81,0,0,0,1.87-.24,7,7,0,0,0,1.34-.62c.1-.05.19-.12.29-.16.37-.13.53,0,.78.69.06.16.12.31.17.46a1.19,1.19,0,0,1-.15,1.23,5.15,5.15,0,0,1-2.61,1.11c-.7.13-1.42.18-2.13.24Z"/><path class="cls-1" d="M199.36,236.37a16.91,16.91,0,0,0,.34-2.4c0-.3,0-.6,0-.9a16.9,16.9,0,0,0-.14-3.18,5.37,5.37,0,0,0-.39-1.33,15.07,15.07,0,0,1-.73-1.44c0-.14.28-.5.75-.67a1.11,1.11,0,0,1,1.33.3,7.92,7.92,0,0,1,.91,4.14c0,.82.12,1.64.11,2.46a18.92,18.92,0,0,1-.23,2.7c-.09.55-.21,1.09-.35,1.64a11.1,11.1,0,0,1-.93,2.41,4.79,4.79,0,0,1-1.35,1.75,5.3,5.3,0,0,1-.47.28c-.66.23-.91.07-1-.41a2,2,0,0,1-.08-.33,1,1,0,0,1,.34-.86,3.36,3.36,0,0,0,.7-.8,6.8,6.8,0,0,0,.59-1.15,11.36,11.36,0,0,0,.61-2.21Z"/><path class="cls-1" d="M261.82,163.7c-3.59-.39-7.59,1.47-7.66,5.48,0,.6,2.16.22,2.18-.58a3.67,3.67,0,0,1,4.13-3.78,2,2,0,0,0,1.54-.41c.27-.29.31-.66-.19-.71Z"/><path class="cls-1" d="M266.61,164.88c-3.76-.21-7.81,3.75-5.21,7.39.45.63,2.55-.12,2-.87-1.35-1.89-.29-5.38,2.37-5.23.87,0,2.3-1.21.83-1.29Z"/><path class="cls-1" d="M79.68,149.08c-2.51,1.47-6.57,6.09-4.46,9.16.36.52,2.34-.35,2.17-.59-1.93-2.81,1.6-7.14,4-8.52.91-.53-1.26-.29-1.66,0Z"/><path class="cls-1" d="M86.42,151.06c-4.78-.13-5.63,5.61-4.89,9.28.14.67,2.32.14,2.18-.58a11.78,11.78,0,0,1-.08-4.06c.15-1,.6-3.54,1.92-3.5.76,0,2.33-1.1.87-1.14Z"/></g></svg>