<svg id="Layer_1" data-name="Layer 1" xmlns="http://www.w3.org/2000/svg" width="520" height="520" viewBox="0 0 520 520"><defs><style>.cls-1{fill:#221f1f;}.cls-2{fill:#232020;}.cls-3{fill:none;stroke:#221f1f;stroke-miterlimit:10;stroke-width:2.5px;}</style></defs><title>Notioly v2</title><g id="_40.Proud" data-name="40.Proud"><path class="cls-1" d="M253.23,208.89c0,.43.47,13.55.47,13.55s12.66,13.31,23.94,3.85v-13.2s-10.29,7.21-17.39.32Z"/><path class="cls-1" d="M274.62,212.43a17.1,17.1,0,0,0,5.4-5,32.51,32.51,0,0,0,3.72-6.72c.35-.88.68-1.78,1-2.68l.85-2.73a105.84,105.84,0,0,0,3.72-20c.3-3,.45-6.07.52-9.08.11-3.88-.07-7.74.28-11.67.17-1.34.76-1,1.3,0a11.08,11.08,0,0,1,1.12,5.15,139.18,139.18,0,0,1-2,23.95,105.9,105.9,0,0,1-3.34,14.46,44,44,0,0,1-3.26,7.58,25.3,25.3,0,0,1-5.13,6.59,15.6,15.6,0,0,1-9.47,4.06,16,16,0,0,1-7.69-1.45,18.93,18.93,0,0,1-3.36-2c-1-.79-2-1.59-2.94-2.41a75.15,75.15,0,0,1-8.22-8.23c-.56-.65-1.1-1.29-1.62-2-1.91-2.56-2.3-3.54-2.13-4.45a2.51,2.51,0,0,1,.13-.61c.27-.52,1.27.36,2.67,2.14a90.63,90.63,0,0,0,6.81,7.7c1.23,1.24,2.5,2.43,3.83,3.58.66.58,1.33,1.15,2,1.7a17.59,17.59,0,0,0,2,1.45,14.61,14.61,0,0,0,6.84,2.17,12.77,12.77,0,0,0,6.92-1.63Z"/><path class="cls-1" d="M329.09,214.05c-6.3,12.26-29,15.63-43.85-12.28C291.89,184.41,297,105.51,273,99.08c-27.31-7.34-34.43,13.8-36.73,18.22-8.85,17-10.34,57.94,14.1,87.07-17.22,29.62-55.52,19.18-56.37.44-.63-13.83,4.74-18,8.53-26.46,6.14-13.64-38.31-69.1,11.68-110.58,13.32-11,33.32-15.84,46.9-3.84,10.21-14.21,78.37-4.32,62.92,64.18-3.7,16.4-16,27-7.16,42.34C321,177.64,338.47,195.83,329.09,214.05Z"/><path class="cls-1" d="M192.64,105.54c-1.73,9.59-1,19.53,1,29.14,1,4.82,2.33,9.59,3.79,14.33s3.1,9.43,4.59,14.23a69.86,69.86,0,0,1,2,7.37,23.73,23.73,0,0,1,.49,3.92,10,10,0,0,1-.66,4.24c-2.1,4.78-5.16,8.77-6.78,13.25a27.66,27.66,0,0,0-1.58,6.94c-.14,1.19-.16,2.4-.19,3.6l0,1.82c0,.62.11,1.14.15,1.72a13.61,13.61,0,0,0,2.68,6.22,20.27,20.27,0,0,0,5.15,4.74,28.34,28.34,0,0,0,9.63,3.89,32.25,32.25,0,0,0,10.46.49,33.1,33.1,0,0,0,18.77-8.63,39.92,39.92,0,0,0,6-7.11l.62-1a1.5,1.5,0,0,0,.17-.28l-1-1.25c-1-1.3-2-2.58-2.94-3.9l-2.62-4.12c-.41-.69-.9-1.35-1.26-2.08L240,190.92l-1.13-2.16a22.08,22.08,0,0,1-1.06-2.19l-1.91-4.48a98.25,98.25,0,0,1-5.18-18.72A103,103,0,0,1,229.4,144a77.89,77.89,0,0,1,2.9-19.22c.49-1.55,1-3.1,1.61-4.63s1.37-3.06,2-4.41a44.73,44.73,0,0,1,4.88-8.49,27.44,27.44,0,0,1,7.25-6.75,26.54,26.54,0,0,1,4.47-2.21A27.76,27.76,0,0,1,257.37,97a33.12,33.12,0,0,1,9.84,0c.81.09,1.62.24,2.42.4s1.6.32,2.39.52l1.19.3,1.22.39,1.18.52c.38.2.76.4,1.12.62a19.5,19.5,0,0,1,6.08,6.45,41,41,0,0,1,3.63,7.92,89,89,0,0,1,3.74,16.82,202,202,0,0,1,1.26,34.12c-.31,7.27-.9,14.54-1.91,21.77-.52,3.62-1.14,7.22-2,10.8-.22.9-.47,1.79-.74,2.68-.13.41-.32,1-.37,1.13s-.13.25,0,.31l.18.31q1.29,2.35,2.78,4.58a46.1,46.1,0,0,0,6.86,8.12,31.75,31.75,0,0,0,4.16,3.26,25.65,25.65,0,0,0,4.62,2.47,21.36,21.36,0,0,0,10.18,1.63,17.46,17.46,0,0,0,9.45-3.81,20.18,20.18,0,0,0,3.19-3.4c.57-.81.87-1.15,1-1s-.05.69-.51,1.64a13.05,13.05,0,0,1-2.66,3.67,17.12,17.12,0,0,1-6,3.85,20.54,20.54,0,0,1-9.27,1.21,25.25,25.25,0,0,1-5.29-1.15,28.89,28.89,0,0,1-5.26-2.43,35.68,35.68,0,0,1-4.95-3.61,40.87,40.87,0,0,1-4.42-4.58,50.59,50.59,0,0,1-3.42-4.59c-.54-.79-1-1.61-1.52-2.42-.26-.4-.48-.82-.71-1.23l-.82-1.45-.33-.6c0-.1-.16-.21-.13-.31l.1-.29.43-1.17c.14-.45.28-.84.4-1.28.26-.84.48-1.72.7-2.59.43-1.76.79-3.55,1.11-5.34a194.85,194.85,0,0,0,2.48-21.87c.45-7.35.59-14.71.34-22.06a148,148,0,0,0-2.19-21.87,73.43,73.43,0,0,0-2.68-10.55,33.43,33.43,0,0,0-4.78-9.44,15,15,0,0,0-3.65-3.47,11.44,11.44,0,0,0-2.17-1.12c-.73-.26-1.63-.47-2.51-.69a45.56,45.56,0,0,0-5.3-.93,32.64,32.64,0,0,0-5.32-.12,23.53,23.53,0,0,0-10.05,2.8,24.3,24.3,0,0,0-7.83,7,35,35,0,0,0-2.87,4.56c-.85,1.58-1.6,3.27-2.44,5l-1.13,2.45c-.37.82-.62,1.71-.93,2.56a49.21,49.21,0,0,0-1.53,5.24,74.37,74.37,0,0,0-1.86,13.1c-.06,1.11-.16,2.22-.17,3.33v5c0,.56.06,1.12.09,1.68l.22,3.35a90.7,90.7,0,0,0,6.14,26.24l1.34,3.12a31.59,31.59,0,0,0,1.42,3.07l1.58,3a30.69,30.69,0,0,0,1.68,2.95l1.82,2.86a27.16,27.16,0,0,0,1.92,2.8l2.07,2.69,1.31,1.72.44.57c0,.05.08.1.1.14l-.1.16-.19.3-.75,1.2a40.12,40.12,0,0,1-9.31,10.56,34.85,34.85,0,0,1-12.6,6.27,35.28,35.28,0,0,1-15.4.63A29.7,29.7,0,0,1,199.35,217a19.32,19.32,0,0,1-4.86-6.24,15.86,15.86,0,0,1-1.26-3.82c-.13-.66-.16-1.34-.24-2l0-1.93a35.8,35.8,0,0,1,.72-7.7,30.22,30.22,0,0,1,2.59-7.32c1.14-2.31,2.48-4.45,3.66-6.63.6-1.09,1.15-2.18,1.67-3.3a7.3,7.3,0,0,0,.56-3.25,31.42,31.42,0,0,0-1.26-7.16c-.65-2.39-1.41-4.77-2.18-7.16-3.15-9.51-6.37-19.13-8.09-29.13a81.62,81.62,0,0,1-1.2-18.67,59.07,59.07,0,0,1,13.34-34.51,75.84,75.84,0,0,1,13.47-13,46.59,46.59,0,0,1,22.54-8.88A32.2,32.2,0,0,1,251,57.45a28.55,28.55,0,0,1,5.67,2.4c.86.55,1.77,1,2.6,1.65l1.17.92a5.41,5.41,0,0,0,.65.48,4.71,4.71,0,0,1,.36-.42l.23-.24a3.52,3.52,0,0,1,.41-.36,8.69,8.69,0,0,1,.84-.66,8.6,8.6,0,0,1,.9-.58A18.34,18.34,0,0,1,267.62,59a31.66,31.66,0,0,1,8.11-1.31,51.05,51.05,0,0,1,42.16,20.4,49.32,49.32,0,0,1,8.26,20.09,71.39,71.39,0,0,1,.26,21.59,85.39,85.39,0,0,1-2,10.6,73.59,73.59,0,0,1-3.68,10.16c-1.41,3.29-2.93,6.5-4.1,9.8a25.93,25.93,0,0,0-1.75,10.08l.08,1.12a5.12,5.12,0,0,0,.16,1.1c.16.72.29,1.46.48,2.17l.75,2.1c.25.7.65,1.34,1,2a25.27,25.27,0,0,0,2.38,3.86c.91,1.28,1.81,2.57,2.73,3.86a71.34,71.34,0,0,1,7.52,13,34.15,34.15,0,0,1,2.67,10,23,23,0,0,1-.31,6.84,18.24,18.24,0,0,1-1.44,4.33c-.27.51-.59,1.11-.87,1.66s-.63,1-.83,1.25c-.35.45-.38.23-.13-.57.12-.4.35-.94.55-1.65l.36-1.17.34-1.4a24.78,24.78,0,0,0,.49-7.81,34,34,0,0,0-2.89-10.62c-2.5-5.73-6.19-10.9-10-16.16-.47-.66-.94-1.33-1.4-2a16.59,16.59,0,0,1-1.26-2.21c-.37-.77-.81-1.5-1.11-2.3l-.87-2.44a22.61,22.61,0,0,1-.43-10.31,46.66,46.66,0,0,1,3.12-9.62c1.29-3.07,2.68-6,3.89-9a59.2,59.2,0,0,0,2.86-9.22,89.6,89.6,0,0,0,1.58-9.66A66.17,66.17,0,0,0,323.73,98a47,47,0,0,0-7.27-17.89c-7.3-10.77-19.63-17.76-32.54-19.65a41.12,41.12,0,0,0-11.72-.12,23.23,23.23,0,0,0-5.5,1.48,12.71,12.71,0,0,0-2.39,1.3,9,9,0,0,0-1,.82l-.42.43-.51.62-1,1.23-3.55-2.79c-.76-.56-1.59-1-2.38-1.51a26.32,26.32,0,0,0-5.19-2.19,29.67,29.67,0,0,0-11.27-1,44.29,44.29,0,0,0-21.31,8.4A71,71,0,0,0,201.47,84a55.7,55.7,0,0,0-8.76,21.52Z"/><path class="cls-2" d="M276.29,212.49a.34.34,0,0,0,0,.1,1.63,1.63,0,0,1,.06.53c-.21,4.54-.16,9-.11,13.49s.16,8.94.28,13.41c.25,8.93.59,17.86,1,26.79a1.4,1.4,0,0,1-.06.49.16.16,0,0,0,0,.1c0,.35.68.62,1.49.58s1.45-.35,1.43-.7a.16.16,0,0,0,0-.1,1.56,1.56,0,0,1-.11-.51l-.09-2.18c-.34-8.55-.66-17.11-.89-25.66Q279,232.41,279,226c0-4.26-.08-8.55.12-12.76a1.31,1.31,0,0,1,.12-.46.44.44,0,0,0,0-.1c0-.35-.62-.68-1.42-.74S276.31,212.12,276.29,212.49Z"/><path class="cls-1" d="M254.71,261.12s16.21,7.11,23.52-1.51c0,0,1.55,7.72-.41,7.81-3,.14-2.69,7.62-2.69,7.62s-2.79-.11-3.95,4.1.53,12.68,9.37,23.11l-1,8L277.86,313l4.39,19.67s5.22,115.46,2.66,123-17,7-20.26,6.18-9.72-2.9-11.78-27.11,2.56-64.36,2.86-70.38,1-58.44-.29-72.35A303.47,303.47,0,0,1,254.71,261.12Z"/><path class="cls-2" d="M253.15,266.35c0,.28,0,.54,0,.8.06,1.39.08,2.82.09,4.22,0,7.53.32,15.14,1,22.62.46,7.42.5,15,.57,22.46q.12,22.51-.33,45.05l-.08,2.79q-.09,1.36-.21,2.76l-.5,5.61-1,11.25c-.59,7.51-1.09,15-1.4,22.56s-.44,15.09-.14,22.66c.07,1.89.24,3.79.35,5.68s.33,3.78.62,5.67a65,65,0,0,0,2.35,11.26,28.39,28.39,0,0,0,2.33,5.44,13.36,13.36,0,0,0,4.15,4.64,10.75,10.75,0,0,0,2.95,1.27,15.9,15.9,0,0,0,3,.48,37,37,0,0,0,5.86,0,28,28,0,0,0,5.82-1.08,13.74,13.74,0,0,0,5.44-3,8.8,8.8,0,0,0,1.9-2.74,7.31,7.31,0,0,0,.47-1.65c.09-.54.12-1,.18-1.5.17-1.95.23-3.83.28-5.73.16-7.56,0-15.08-.08-22.61s-.34-15-.56-22.56q-.67-22.55-1.6-45.09L283.71,335l-.07-1.41,0-.7v-.19a1.27,1.27,0,0,0,0-.34l-.09-.4-.62-2.75-1.22-5.5-2.34-10.48,1.56-2.57.64-5.14.3-2.42.14-1.07c0-.09.07-.21,0-.28l-.18-.23-.38-.46-.84-1a48.88,48.88,0,0,1-5.26-7.9,26.09,26.09,0,0,1-2.94-8.75,9.93,9.93,0,0,1,.28-4.27,5.57,5.57,0,0,1,.87-1.74,3.14,3.14,0,0,1,.61-.6l.33-.21.18-.08a.62.62,0,0,1,.14,0l.29-.07.75-.72c.16-.15.42-.44.71-.75v-1.44l.06-.91a16.19,16.19,0,0,1,.26-1.76,7.22,7.22,0,0,1,.5-1.49,2,2,0,0,1,.32-.41c0-.07.09-.06.11-.09s0,0,.05,0,0,0,.08,0a2.09,2.09,0,0,0,1.69-1,3.25,3.25,0,0,0,.4-1c.07-.27.1-.48.14-.71a13.36,13.36,0,0,0,0-2.44c0-.39-.06-.77-.1-1.15l-.09-.82-.15-1c-.11-.68-.24-1.34-.37-2l-.19-1c-.06-.33-.13-.67-.19-.92-.86.93-1.79,1.91-2.73,2.87a6.14,6.14,0,0,1-.7.58l-.37.28-.69.42a11.49,11.49,0,0,1-3.1,1.18,20.21,20.21,0,0,1-6.91.24,22.4,22.4,0,0,1-3.71-.76l-.77-.21c-2.7-.7-5-1-5.35-.24s1.68,2.31,4.61,3.07c.27.07.54.14.8.18,1.42.28,2.87.52,4.33.68a22.42,22.42,0,0,0,7.73-.35,14.1,14.1,0,0,0,3.75-1.46c.29-.18.59-.35.87-.54l.37-.27a.47.47,0,0,0,.1-.1s0,.06,0,.09l0,.17a18.24,18.24,0,0,1,.13,2.62,4.84,4.84,0,0,1-.05.57,2.36,2.36,0,0,1-.06.33.08.08,0,0,1-.08.06,1.74,1.74,0,0,0-.78.27,2.5,2.5,0,0,0-.68.48,4.85,4.85,0,0,0-.87,1.12,9,9,0,0,0-.76,2.2,15.66,15.66,0,0,0-.31,2.1c0,.35-.06.69-.07,1l0,.52s0,0,0,.05h-.05l-.16.07a3,3,0,0,0-.37.17,5.46,5.46,0,0,0-.7.43,5.67,5.67,0,0,0-1.13,1.11,8.08,8.08,0,0,0-1.33,2.59,12.69,12.69,0,0,0-.39,5.41,28.72,28.72,0,0,0,3.23,9.69,51.1,51.1,0,0,0,5.55,8.35l.7.86s0,0,0,0l0,.14-.3,2.43-.57,4.56-1.82,3L279,324.34l1.22,5.51.62,2.75.06.28v.18l0,.71.06,1.41.95,22.54c.59,15,1.15,30.06,1.59,45.09q.34,11.26.56,22.54c.12,7.51.24,15,.08,22.51-.05,1.86-.11,3.73-.28,5.53,0,.42-.08.93-.16,1.28l-.1.52c0,.18-.14.35-.2.53a5.7,5.7,0,0,1-1.33,1.85,11.06,11.06,0,0,1-4.38,2.34,24.57,24.57,0,0,1-5.25.95,33.7,33.7,0,0,1-5.41,0c-.44,0-.89-.09-1.31-.15a8.89,8.89,0,0,1-1.22-.27,7.55,7.55,0,0,1-2.18-1,10.68,10.68,0,0,1-3.24-3.74,21.82,21.82,0,0,1-1.16-2.38c-.32-.85-.65-1.68-.92-2.55a63.47,63.47,0,0,1-2.23-10.8c-.27-1.83-.41-3.7-.6-5.54s-.28-3.71-.33-5.58c-.3-7.46-.16-14.95.14-22.44s.81-15,1.41-22.47l1-11.23.49-5.63c.18-1.88.27-3.85.29-5.71q.48-22.61.33-45.17c-.08-7.54-.11-15.05-.59-22.65-.66-7.5-.93-14.93-1-22.44,0-1.31,0-2.65.09-3.94,0-.27,0-.55,0-.83,0-2.89-.56-5.24-1.37-5.26S253.18,263.44,253.15,266.35Z"/><path class="cls-2" d="M281.28,333.52c0,.24,0,.48.07.71.14,1.23.24,2.5.31,3.76.83,16.34,1.25,32.73,1.63,49.1s.62,32.77.59,49.14c0,4.09-.05,8.18-.16,12.26-.05,2-.12,4.08-.25,6.09-.07,1-.14,2-.29,2.91,0,.1,0,.22-.06.3s0,.08,0,.1L283,458a8.36,8.36,0,0,1-1.05.74,22.42,22.42,0,0,1-5.36,2.11,25.14,25.14,0,0,1-5.76.85c-3.84.13-7.72-.89-10.33-3.49a9.6,9.6,0,0,1-1.7-2.13,6.58,6.58,0,0,1-.57-1.19,12.2,12.2,0,0,1-.47-1.33,43.36,43.36,0,0,1-1.24-5.81c-.59-4-.92-8-1.16-12.11-.46-8.13-.53-16.31-.47-24.49s.3-16.35.66-24.52q.28-6.13.68-12.25c.14-2,.29-4.07.48-6.09l.16-1.51c.05-.5.13-1,.16-1.5l.23-3.15c.19-4.16.27-8.26.28-12.37s0-8.21,0-12.31q-.08-12.3-.29-24.6c-.56-32.79-1.44-65.56-2.42-98.33,0-1.18,0-2.4,0-3.57q0-.37,0-.75c-.08-2.62-.8-4.72-1.61-4.69s-1.39,2.16-1.31,4.78c0,.24,0,.48,0,.71.09,1.25.16,2.53.2,3.79l.47,16c.88,31.44,1.7,62.88,2.12,94.31.09,7.86.17,15.72.12,23.56l0,5.89-.15,5.86c0,1-.12,1.91-.18,2.87s-.1,1.87-.25,2.9c-.23,2-.38,4-.53,5.93-.57,7.88-.93,15.74-1.18,23.62s-.38,15.75-.33,23.64.28,15.77,1,23.68a62.05,62.05,0,0,0,2.12,11.88l.58,1.5c.24.51.54,1,.82,1.51a15,15,0,0,0,2.11,2.46,14.34,14.34,0,0,0,5.59,3.21,23.36,23.36,0,0,0,12.39,0,26.84,26.84,0,0,0,5.82-2.14,14.94,14.94,0,0,0,1.41-.84,7.78,7.78,0,0,0,.7-.54,2.9,2.9,0,0,0,.38-.36,1.5,1.5,0,0,0,.24-.27,3,3,0,0,1,.16-.31,1.93,1.93,0,0,0,.25-.63c0-.18.07-.31.1-.45.05-.29.09-.55.12-.81.07-.52.11-1,.15-1.53.3-4,.36-7.93.42-11.87s.07-7.88.07-11.82c0-15.74-.28-31.47-.64-47.2s-.79-31.45-1.59-47.19c-.07-1.18-.11-2.41-.13-3.58,0-.25,0-.5,0-.76-.16-2.61-1.12-4.8-1.95-4.61S281.11,330.91,281.28,333.52Z"/><path class="cls-1" d="M182.56,271.7c4.43-5.25,8.8-10.55,13.19-15.85,1.6-1.93,3.15-3.91,4.77-5.83,2.85-3.38,5.74-6.75,8.71-10.05l2.25-2.46,2.34-2.4c.77-.8,1.66-1.54,2.48-2.31.43-.38.91-.71,1.36-1.06l1.4-1a60.49,60.49,0,0,1,10.67-5.35,44.78,44.78,0,0,1,7.35-2.19,16.64,16.64,0,0,1,7.84.07c1.65.57,1.07,1.05-.29,1.28s-3.55.66-6.23,1.11a50.1,50.1,0,0,0-13.93,4.77,40,40,0,0,0-6.28,3.83c-.47.37-.92.81-1.38,1.21s-.93.8-1.37,1.26c-.89.91-1.81,1.77-2.68,2.7-4.24,4.41-8.23,9.43-12.24,14.27l-13.25,16q-4.1,4.92-8.27,9.78c-1.06,1.22-2.11,2.45-3.2,3.65s-2.16,2.42-3.29,3.59l-1.68,1.77-1.76,1.7a19.54,19.54,0,0,1-1.86,1.63l-1,.78-1,.69a34.86,34.86,0,0,1-6.7,3.53,31.7,31.7,0,0,1-7.33,1.87c-1.1.16-2.17.29-3.27.38-4.08.3-5.34.19-6.25-.37a4,4,0,0,1-.61-.4c-.43-.46,1.2-1,4.16-1.32,4.39-.44,8.76-.9,12.79-2.53a31.54,31.54,0,0,0,5.8-3.05,22.6,22.6,0,0,0,2.59-2c.83-.7,1.62-1.55,2.44-2.32,4.74-4.86,9.22-10.2,13.66-15.5Z"/><path class="cls-1" d="M121,308.83a92.15,92.15,0,0,0,1.52,16.82,28.2,28.2,0,0,0,2.63,7.71l.51.83c.18.27.37.52.56.78s.42.46.62.7l.74.68a19,19,0,0,0,3.24,2.39,21.26,21.26,0,0,0,5.46,2.2,30.81,30.81,0,0,0,5.92.72c7.11.07,14.18-2.15,20.76-5.14a111.2,111.2,0,0,0,18.72-11.28,162.85,162.85,0,0,0,14.93-12.51c6.06-5.68,11.74-11.77,17.48-17.76,1.8-1.87,2-1.2,1,.83a31.07,31.07,0,0,1-2.46,3.93,52.78,52.78,0,0,1-4.22,5,212,212,0,0,1-18.85,17.46,126.16,126.16,0,0,1-21.52,14.35,76.13,76.13,0,0,1-14.71,5.91,36.25,36.25,0,0,1-16.12,1.09,23.36,23.36,0,0,1-8.39-3.29,22.89,22.89,0,0,1-3.54-2.83,13.83,13.83,0,0,1-2.65-3.81,34.5,34.5,0,0,1-2.62-8.5,77.79,77.79,0,0,1-1.07-8.69,177.68,177.68,0,0,1,0-21.4c.55-10.77,1.75-21.53,3.15-32.12,1.11-8.24,2.25-16.31,3.75-24.4.34-1.78.65-3.52,1-5.31,1.44-6.63,2.34-8.7,3.44-9.87a3.91,3.91,0,0,1,.77-.73c.36-.17.32.37.1,1.54s-.63,3-1.15,5.43c-1.52,7.11-2.77,14.52-3.94,22s-2.2,15.17-3,22.85a280.61,280.61,0,0,0-2,34.38Z"/><path class="cls-1" d="M156.39,257.08c1.11-5.14,2.24-10.28,3.6-15.39l.75-2.8a28.82,28.82,0,0,1,.83-2.8,24.11,24.11,0,0,1,.89-2.45l.27-.62.13-.31,0-.07h0v0c.1-.08,0-.24,0-.38s-.35-.62-.53-.91-.45-.62-.69-.91l-.79-.87-.88-.79a22.63,22.63,0,0,0-8.6-4.3,33.85,33.85,0,0,0-8.68-1.08,106.21,106.21,0,0,0-11.23.91c-1.17.1-1.14-.53-.25-1.28a8.31,8.31,0,0,1,2-1.14,12.09,12.09,0,0,1,1.37-.48,14.85,14.85,0,0,1,1.6-.26,44.66,44.66,0,0,1,12,.19,27.74,27.74,0,0,1,11.45,4.35l1.5,1.14c.47.44,1,.83,1.41,1.3a16.65,16.65,0,0,1,1.28,1.47,6.88,6.88,0,0,1,.57.81l.27.44a3.54,3.54,0,0,1,.27.5l.29.66.15.34c0,.05.07.11.06.16l-.08.18-.5,1.22c-.2.54-.47,1-.63,1.61-.34,1.13-.76,2.23-1.06,3.38-1.45,5-2.64,10.17-3.76,15.32-.68,3.18-1.35,6.36-2,9.55-.95,4.82-1.89,9.68-2.71,14.5-.64,3.74-1.11,7.44-1.67,11.16-.12.82-.22,1.62-.36,2.45-.51,3-.89,4-1.67,4.53a2,2,0,0,1-.52.32c-.55.13-.64-1.1-.37-3.35.79-6.65,1.91-13.65,3.17-20.66q1.41-7.8,3-15.62Z"/><path class="cls-1" d="M180.5,206.23a10.1,10.1,0,0,1-2.23.82l-.56.14-.19,0-.28,0-.23,0c-.31,0-.62,0-.93.08a14.86,14.86,0,0,0-3.63,1,18,18,0,0,0-2.45,1.31,25.46,25.46,0,0,0-7.28,6.92,27.17,27.17,0,0,0-2.33,3.92c-.86,1.74-1.51,3.59-2.41,5.31-.26.52-.83.28-1.23-.43a3.5,3.5,0,0,1-.11-2.95,32.22,32.22,0,0,1,7-10.47,29.35,29.35,0,0,1,6.12-4.9,17.68,17.68,0,0,1,4.07-1.6A15.54,15.54,0,0,1,176,205l1.09-.1.34-.07.47-.12a10,10,0,0,0,1.09-.38,5.07,5.07,0,0,0,.86-.46.91.91,0,0,0,.35-.51.8.8,0,0,0-.22-.58,6.14,6.14,0,0,0-1.26-1,9.32,9.32,0,0,0-1.58-.79,9.08,9.08,0,0,0-3.51-.57,9.87,9.87,0,0,0-5.09,1.79c-.35.22-.67.46-1,.69-1.28.86-1.86,1.07-2.51.68a1.4,1.4,0,0,1-.4-.3c-.25-.43-.09-.92.84-1.73a15.23,15.23,0,0,1,5-2.93,10.71,10.71,0,0,1,3.12-.55,11.74,11.74,0,0,1,3.16.31,10.92,10.92,0,0,1,4.32,2.09l.52.45a4.45,4.45,0,0,1,.6.74,3,3,0,0,1,.41.89,2.54,2.54,0,0,1,.13.95,1.22,1.22,0,0,1-.08.47,3.1,3.1,0,0,1-.15.46,4,4,0,0,1-.54.82,3.86,3.86,0,0,1-.69.62l-.35.24-.29.16Z"/><path class="cls-1" d="M144.74,179a9.29,9.29,0,0,0-4.2,2.93,6.19,6.19,0,0,0-.72,1.06l-.67,1.27-.57,1.32-.49,1.35a25,25,0,0,0-.9,4.12c-.78,4.93-.28,10.1.46,15.21.32,2.27.8,4.55,1.14,6.86a37,37,0,0,1,.44,4.51,13,13,0,0,1-.63,4.6c-.35.95-.88.57-1.27-.31a9.61,9.61,0,0,1-.73-3.77,56.1,56.1,0,0,0-.9-8.66,87.31,87.31,0,0,1-1-9.1,44.6,44.6,0,0,1,.44-11.39,25.63,25.63,0,0,1,2.05-6c.26-.48.47-.94.76-1.42a10.1,10.1,0,0,1,1-1.38,13.1,13.1,0,0,1,2.48-2.17,8.67,8.67,0,0,1,3.88-1.52,4.23,4.23,0,0,1,2.27.37,3.93,3.93,0,0,1,1.68,1.62c1,2,.87,4.11.71,6-.12,1-.28,1.93-.46,2.88l-.31,1.41a10.08,10.08,0,0,1-.48,1.47,4.91,4.91,0,0,1-2.1,2.55,2.63,2.63,0,0,1-2,.16,4.33,4.33,0,0,1-1.54-.89,4,4,0,0,1-1-1.72,11.37,11.37,0,0,1-.4-1.63,13.83,13.83,0,0,1-.21-2c0-2.54.61-3.56,1.46-3.75a1.23,1.23,0,0,1,.57,0c.43.32.3.76.28,2.38a15.93,15.93,0,0,0,.25,2.9,9.15,9.15,0,0,0,.34,1.37,1.78,1.78,0,0,0,.37.76c.07,0,.19.15.28.21s.19.11.25.12a.24.24,0,0,0,.21,0,1.83,1.83,0,0,0,.74-.81,6.14,6.14,0,0,0,.65-1.78c.17-.77.33-1.53.45-2.29a21.24,21.24,0,0,0,.29-2.82,8.39,8.39,0,0,0-.21-2.56,2.07,2.07,0,0,0-.89-1.41,2.39,2.39,0,0,0-1.8,0Z"/><path class="cls-1" d="M152.74,189.69a21.13,21.13,0,0,0,1.31-4.65,17.19,17.19,0,0,0,.14-1.75c.15-2,0-4.18-1.17-5.54a2.59,2.59,0,0,0-.39-.34.65.65,0,0,0-.37-.12,2.85,2.85,0,0,0-1.12.14,9.16,9.16,0,0,0-2.63,1.56c-.2.15-.78-.09-1.07-.75a1.89,1.89,0,0,1,.68-2.23,7.52,7.52,0,0,1,2.18-1A5.22,5.22,0,0,1,153,175a3.31,3.31,0,0,1,1.44.87,5.4,5.4,0,0,1,.81,1,6.93,6.93,0,0,1,.86,2.19,18.5,18.5,0,0,1,.38,5.1,23.44,23.44,0,0,1-1.14,5.28,21.56,21.56,0,0,1-1.29,3.06,10.65,10.65,0,0,1-1.42,2.17,4.61,4.61,0,0,1-1,.95,2.35,2.35,0,0,1-1.61.4,3.13,3.13,0,0,1-.44-.1,5.3,5.3,0,0,1-1.79-1,4.34,4.34,0,0,1-1.22-1.74,5.53,5.53,0,0,1-.28-1c-.14-1.21.13-1.55.77-1.71a3.58,3.58,0,0,1,.45-.09c.51,0,.85.42,1,1a2.63,2.63,0,0,0,1.82,2.21s0,0,0,0-.06,0,0,0l.19-.15a7.32,7.32,0,0,0,1.19-1.63,15.5,15.5,0,0,0,1-2.14Z"/><path class="cls-1" d="M158.41,192.2a27.24,27.24,0,0,0,1.35-4.9c.11-.61.13-1.24.21-1.85a23.83,23.83,0,0,0,.2-3.25,8.77,8.77,0,0,0-.52-3,2.9,2.9,0,0,0-.29-.52c-.12-.12-.22-.3-.36-.35a1.17,1.17,0,0,0-.88-.2,11.41,11.41,0,0,0-2.9,1.51c-.35.18-.73-.31-.85-1a2,2,0,0,1,.82-2.08,10.34,10.34,0,0,1,1.1-.58,5.49,5.49,0,0,1,1.37-.36,3.89,3.89,0,0,1,1.64.12,3.81,3.81,0,0,1,1.47.87,5,5,0,0,1,1.32,2.39,9.49,9.49,0,0,1,.3,2.26,41.8,41.8,0,0,1-.14,5.14,31.42,31.42,0,0,1-1.2,5.42,21.85,21.85,0,0,1-1.29,3.2,6.6,6.6,0,0,1-1.68,2.25,4.37,4.37,0,0,1-2.81,1,4.44,4.44,0,0,1-3.9-2.39,4.3,4.3,0,0,1-.34-1c-.16-1.38.25-1.75.89-1.82a2.42,2.42,0,0,1,.46,0c.51.06.75.57.87,1.1a2.24,2.24,0,0,0,.44,1,2,2,0,0,0,.73.6,2,2,0,0,0,1.82,0c.75-.29,1.57-1.92,2.11-3.45Z"/><path class="cls-1" d="M164.88,190.56a22.68,22.68,0,0,0,1-4.25c.07-.54.07-1.08.1-1.62a24.52,24.52,0,0,0,.11-2.84,7.64,7.64,0,0,0-.43-2.5c-.23-.52-.7-.6-1.33-.38a10.39,10.39,0,0,0-2.25,1.59c-.22.16-.76-.15-1-.77a1.76,1.76,0,0,1,.38-2.08,6.46,6.46,0,0,1,2-1.12,3.89,3.89,0,0,1,2.87.12,3.56,3.56,0,0,1,.69.45,3.92,3.92,0,0,1,.52.56,4.28,4.28,0,0,1,.56,1.22l.13.55.07.49a8.31,8.31,0,0,1,.06,1c0,1.51.14,3,0,4.47a27.85,27.85,0,0,1-.85,4.78,14.86,14.86,0,0,1-.46,1.43,10.66,10.66,0,0,1-.57,1.41,6.28,6.28,0,0,1-.53,1,6.38,6.38,0,0,1-.67,1,5,5,0,0,1-.82.9l-.46.42a3.57,3.57,0,0,1-.63.35,5.11,5.11,0,0,1-2,.37,3.94,3.94,0,0,1-2.1-.53,2.76,2.76,0,0,1-.86-.81,1.62,1.62,0,0,1-.16-1.52.78.78,0,0,1,.76-.45,1.68,1.68,0,0,1,.45,0,2.6,2.6,0,0,1,.91.71.45.45,0,0,0,.4.13,4.16,4.16,0,0,0,.86.06,2.26,2.26,0,0,0,.83-.16l.1-.05,0,0,.09-.1L163,194a9.81,9.81,0,0,0,1.79-3.49Z"/><path class="cls-1" d="M332.05,387.86l.72-.11.69-.18c.24-.06.47-.11.7-.18l.66-.26a10.12,10.12,0,0,0,1.31-.56l1.24-.7a17.07,17.07,0,0,0,4.11-4.07,33.09,33.09,0,0,0,4.64-11.18c1.87-8.07,2.19-16.54,2-24.93-.14-6.15-.64-12.28-1.25-18.41-.53-5.39-1.21-10.8-1.92-16.18s-1.68-10.71-2.84-16A213.55,213.55,0,0,0,332.83,264c-3.52-8.94-7.65-17.8-13.15-25.51a33.55,33.55,0,0,0-6.07-6.6,18.33,18.33,0,0,0-8-3.44,27.07,27.07,0,0,0-8.89,0,51.42,51.42,0,0,0-8.79,2.21c-3.57,1.25-3.36.5-.5-1.21a30.76,30.76,0,0,1,6.31-2.72,27,27,0,0,1,10-1.21,23.22,23.22,0,0,1,5,.92,20.58,20.58,0,0,1,4.66,2.11,17.39,17.39,0,0,1,2.12,1.46c.64.56,1.3,1.11,1.87,1.71a38.93,38.93,0,0,1,3.24,3.71A93.47,93.47,0,0,1,330.32,252a193.91,193.91,0,0,1,12.49,36c1.78,7.42,3.34,15.06,4.43,22.82s2.07,15.52,2.66,23.29a167.78,167.78,0,0,1,.21,25.76,71.55,71.55,0,0,1-2.1,12.79,31,31,0,0,1-5.66,11.83,16.14,16.14,0,0,1-6.67,4.82,17.44,17.44,0,0,1-8.14,1,31.31,31.31,0,0,1-14.83-6c-6.57-4.78-11.76-11.14-16.06-17.89a113.37,113.37,0,0,1-5.78-10.53c-1.71-3.6-3.26-7.27-4.67-11-2.17-5.78-4-11.61-5.58-17.49-.81-2.93-1.49-5.89-2.19-8.85l-.95-4.46-.15-.75-.09-.44c0-.14-.13-.32,0-.42l.59-.69c.09-.11.2-.22.3-.32l.22-.22a15.91,15.91,0,0,1,1.91-1.52,32.15,32.15,0,0,1,7.43-3.57,31.76,31.76,0,0,1,10.71-1.89,8.58,8.58,0,0,1,4.78,1.25,3.89,3.89,0,0,1,1.12,1c.14.22,0,.27-.34.21a16.78,16.78,0,0,0-1.74-.36,24.71,24.71,0,0,0-7.88.43,41.65,41.65,0,0,0-7.6,2.25,22.81,22.81,0,0,0-6.68,3.9l-.24.25,0,.06s0,.08,0,.14l.43,2c.3,1.36.56,2.72.89,4.07s.65,2.72,1,4.08.71,2.7,1.06,4.06a148.71,148.71,0,0,0,12.06,31.58,74.53,74.53,0,0,0,15,20,38.7,38.7,0,0,0,10.22,6.78A21.07,21.07,0,0,0,332,387.81Z"/><path class="cls-1" d="M315.22,335.81c-1.33-2.36-2.54-4.77-3.7-7.2-.42-.89-.88-1.75-1.29-2.65-1.39-3.16-2.67-6.37-3.89-9.59-.55-1.42-1.13-2.84-1.72-4.24a34.49,34.49,0,0,1-2-5.51c-.26-1.19,2.18-.41,3,1.66,1.39,3.68,2.76,7.36,4.08,11.12.79,2.25,1.91,4.46,2.93,6.66,1.13,2.42,2.31,4.81,3.58,7.16.79,1.44,1.61,2.86,2.49,4.24a39.79,39.79,0,0,0,4.43,5.91,15.29,15.29,0,0,0,4.38,3.27,9.24,9.24,0,0,0,1.06.41,10.23,10.23,0,0,1,1.37.5,1.14,1.14,0,0,1,.63.59,4.1,4.1,0,0,1,.22.41c.08.22,0,.42-.36.56a3,3,0,0,1-.63.18,3.87,3.87,0,0,1-.88,0,10.88,10.88,0,0,1-5.19-2.48,25.54,25.54,0,0,1-3.93-4.06,57.45,57.45,0,0,1-4.59-6.87Z"/><path class="cls-1" d="M293.58,268.12a3.29,3.29,0,0,0-2.68.18c-.21.14-.44.25-.64.4a6.66,6.66,0,0,0-.56.5,6.9,6.9,0,0,0-.47.6l-.15.27a1.3,1.3,0,0,0-.19.41,3,3,0,0,0-.17.48l-.09.56-.42.84a3,3,0,0,1-.2.4l-.16.08c-.2.1-.38.3-.69.27a2,2,0,0,1-1-.52l-.31-.33-.31-.43c-.2-.29-.4-.57-.61-.83l-.32-.38-.16-.19-.09-.09L284,270a5.92,5.92,0,0,0-.7-.56,4,4,0,0,0-1.5-.65,3.18,3.18,0,0,0-1.11,0,6.17,6.17,0,0,0-1.23.32,3.29,3.29,0,0,0-1.73,1.29,3.94,3.94,0,0,0-.49,2.36l0,.35c0,.14,0,.17.06.45a9.53,9.53,0,0,1,.2,1.33,1.48,1.48,0,0,1-.07.54c-.05.07-.11.13-.16.19l-.09.09h0l.11.08h0l0,0-.06,0-1,.45-.85.12c-.22.05-.27.08-.42.12a2.6,2.6,0,0,0-.71.26,3.24,3.24,0,0,0-1.12.84,4.54,4.54,0,0,0-.87,2.89,20.18,20.18,0,0,0,1.59,7,55.35,55.35,0,0,0,4.24,8.38c2.07,3.44,4.44,6.72,6.59,10.12,1.38,2.11-2.45,1-5.11-3a88.64,88.64,0,0,1-6.34-10.91,42.29,42.29,0,0,1-2.37-6,16.76,16.76,0,0,1-.79-6.73,6.4,6.4,0,0,1,1.72-3.57,5,5,0,0,1,.81-.66l.89-.49c.3-.13.62-.21.93-.32l.23-.07.12,0h0l.14,0,.17,0s.15,0,.12-.07l-.07-.35-.05-.33c0-.2,0-.4-.05-.61a7.71,7.71,0,0,1,0-1.27,5.48,5.48,0,0,1,.87-2.56,5.17,5.17,0,0,1,2.05-1.79,7.79,7.79,0,0,1,3.54-.8,6.19,6.19,0,0,1,3.46,1.28,7.59,7.59,0,0,1,.68.57l.32.3.24.25c.13.15.26.32.38.49l.17.27.1.14c.05,0,0-.08.05-.11A2.16,2.16,0,0,1,287,269a1.24,1.24,0,0,1,.1-.2l.21-.37c.24-.35.53-.66.8-1a7.11,7.11,0,0,1,2.1-1.41,5.74,5.74,0,0,1,3-.46,5.57,5.57,0,0,1,2.79,1.23,10.45,10.45,0,0,1,1,1.1c.25.41.53.81.74,1.24s.36.87.52,1.31l.33,1.34.21.89a6.62,6.62,0,0,0,.3.78,5.75,5.75,0,0,0,1,1.38,35.15,35.15,0,0,1,2.93,2.72,7.09,7.09,0,0,1,1.53,4,9.81,9.81,0,0,1-.66,4.13,15.43,15.43,0,0,1-1.39,2.86c-.52.9-1.32,1.74-1.63,2.42a9.15,9.15,0,0,0-.79,2.6,16.51,16.51,0,0,0-.24,2.82,20.18,20.18,0,0,0,.15,2.46,20.82,20.82,0,0,0,.64,3.08,4.47,4.47,0,0,1,.09.45,3,3,0,0,1,.08.36c0,.25,0,.47,0,.68s0,.46,0,.64-.37.3-1-.12a5.68,5.68,0,0,1-1.64-2.64,17.13,17.13,0,0,1-.71-5.78,13.86,13.86,0,0,1,1.47-6c.16-.26.34-.52.53-.77l.4-.52c.25-.33.48-.68.7-1a12.74,12.74,0,0,0,1.1-2.22,8.84,8.84,0,0,0,.55-2.3,4.33,4.33,0,0,0,0-1.08l-.08-.56-.13-.52A5.32,5.32,0,0,0,300,278c-.51-.43-1.11-.9-1.7-1.5a7.52,7.52,0,0,1-1.52-2.19c-.74-1.89-.66-2.93-1.23-4a4,4,0,0,0-2-2.12Z"/><line class="cls-3" x1="280.45" y1="302.06" x2="280.45" y2="310.88"/><path class="cls-3" d="M254.71,261.12s14.47,7.11,23.52-1.51"/><path class="cls-1" d="M211,391.38l.78-6.94.7-6.95c.48-4.64.85-9.28,1.25-13.93.29-3.39.45-6.79.72-10.17.89-12,1.68-23.93,2.3-35.9.27-5.32.47-10.67.62-15.94.2-6.79.24-13.6.72-20.37.3-4.22,2.44,1.21,2.21,9-.41,13.86-1.06,27.71-2.1,41.66-.63,8.34-1,17-1.67,25.57q-1,14.08-2.5,28.13l-1,8.64L212,402.83c-1.2,8.69-2.51,17.42-4.45,25.94-1.41,6.64-3.11,13.07-5,19.51-.42,1.42-.81,2.81-1.25,4.23-1.67,5.26-2.41,6.86-3.4,7.77a4.34,4.34,0,0,1-.67.6c-.64.33-.28-1.92.85-5.77,3.34-11.45,6.81-23.51,8.93-35.87.87-4.58,1.5-9.23,2.2-13.87.32-2.32.59-4.66.89-7s.6-4.66.83-7Z"/><path class="cls-1" d="M329,431c-.76-3.2-1.46-6.41-2.15-9.62-.25-1.17-.56-2.32-.79-3.5-.83-4.13-1.54-8.29-2.24-12.45-.31-1.85-.67-3.69-1-5.52a43.43,43.43,0,0,1-1.05-7.1c0-1.49,2.49.09,2.92,2.75.76,4.76,1.55,9.52,2.21,14.37.4,2.89,1.15,5.84,1.77,8.77.69,3.21,1.39,6.42,2.14,9.62.47,2,.94,3.94,1.46,5.89.78,3,1.57,5.94,2.53,8.82a68,68,0,0,0,2.63,6.45l.68,1.33c.84,1.66,1,2.11.74,2.79-.06.17-.09.36-.15.51-.17.53-1.23.09-2.06-1.2a32.82,32.82,0,0,1-2.92-5.95c-.8-2.07-1.5-4.19-2.15-6.33-1-3.18-1.79-6.4-2.61-9.61Z"/><path class="cls-1" d="M251.89,276.61a6.11,6.11,0,0,1-.36,3.27,3.9,3.9,0,0,1-.56,1.18,3.13,3.13,0,0,1-2.22,1.29,2.51,2.51,0,0,1-2.07-1.21,5.91,5.91,0,0,1-.8-1.68,2.53,2.53,0,0,1,.08-2.3c.15-.23.7.08,1.23.4s1.08.56,1.09.72a4.42,4.42,0,0,0,.17,1.06c.07.21,0,.17,0,.26a.43.43,0,0,0,.07.29.2.2,0,0,0,.32,0,1,1,0,0,0,.14-.15c.05-.06.08-.11.15-.21a4.49,4.49,0,0,0,.51-1.93,1.39,1.39,0,0,0-.2-.86,2,2,0,0,0-.19-.13s-.05,0-.07,0,0,0-.06,0-.31.22-.41.5a2.93,2.93,0,0,0,0,1.5c0,.1.07.2.09.29.07.36-.07.36-.63.69l-.38.24a.82.82,0,0,1-.65.14.89.89,0,0,1-.54-.49,4.1,4.1,0,0,1-.32-2.17,3.89,3.89,0,0,1,1.17-2.41,2.72,2.72,0,0,1,1.48-.67,3.91,3.91,0,0,1,.84.05,6.42,6.42,0,0,1,.66.24,2.92,2.92,0,0,1,1.08,1,3.32,3.32,0,0,1,.46,1.07Z"/><path class="cls-1" d="M251.89,314.82a6.1,6.1,0,0,1-.36,3.27,3.9,3.9,0,0,1-.56,1.18,3.13,3.13,0,0,1-2.22,1.29,2.51,2.51,0,0,1-2.07-1.21,5.91,5.91,0,0,1-.8-1.68,2.53,2.53,0,0,1,.08-2.3c.15-.23.7.08,1.23.4s1.08.56,1.09.72a4.34,4.34,0,0,0,.17,1.06c.07.21,0,.17,0,.26a.43.43,0,0,0,.07.29.2.2,0,0,0,.32,0A1,1,0,0,0,249,318c.05-.06.08-.11.15-.21a4.49,4.49,0,0,0,.51-1.93,1.39,1.39,0,0,0-.2-.86,2,2,0,0,0-.19-.13s-.05,0-.07,0,0,0-.06,0-.31.22-.41.51a2.89,2.89,0,0,0,0,1.49c0,.1.07.2.09.29.07.36-.07.36-.63.69l-.38.24a.82.82,0,0,1-.65.14.89.89,0,0,1-.54-.49,4.1,4.1,0,0,1-.32-2.17,3.89,3.89,0,0,1,1.17-2.41,2.72,2.72,0,0,1,1.48-.67,3.91,3.91,0,0,1,.84,0,6.42,6.42,0,0,1,.66.24,2.92,2.92,0,0,1,1.08,1,3.32,3.32,0,0,1,.46,1.07Z"/><path class="cls-1" d="M252,347.87a6.1,6.1,0,0,1-.36,3.27,3.94,3.94,0,0,1-.56,1.19,3.08,3.08,0,0,1-2.22,1.28,2.49,2.49,0,0,1-2.07-1.21,5.67,5.67,0,0,1-.8-1.68,2.53,2.53,0,0,1,.08-2.3c.15-.23.7.09,1.23.41s1.08.56,1.09.72a4.42,4.42,0,0,0,.17,1.06c.07.21,0,.17,0,.26a.44.44,0,0,0,.07.29.2.2,0,0,0,.32,0,.51.51,0,0,0,.14-.15,1.7,1.7,0,0,0,.15-.21,4.45,4.45,0,0,0,.51-1.93,1.42,1.42,0,0,0-.2-.86,2.2,2.2,0,0,0-.19-.12l-.07,0s0,0-.06,0a.83.83,0,0,0-.41.51,2.89,2.89,0,0,0,0,1.49c0,.11.07.21.09.3.07.35-.07.35-.63.69l-.38.24a.82.82,0,0,1-.65.14.92.92,0,0,1-.54-.49,4,4,0,0,1-.32-2.17,3.82,3.82,0,0,1,1.17-2.41,2.65,2.65,0,0,1,1.48-.67,3,3,0,0,1,.84.05,4.7,4.7,0,0,1,.66.24,2.84,2.84,0,0,1,1.08,1,3.15,3.15,0,0,1,.46,1.07Z"/><path class="cls-1" d="M249.93,384.88a6,6,0,0,1-.37,3.27,3.9,3.9,0,0,1-.56,1.18,3.09,3.09,0,0,1-2.21,1.29,2.52,2.52,0,0,1-2.08-1.21,6.19,6.19,0,0,1-.8-1.68,2.56,2.56,0,0,1,.08-2.3c.15-.23.7.08,1.24.41s1.08.55,1.08.72a5.08,5.08,0,0,0,.17,1.06c.07.2,0,.16,0,.26a.48.48,0,0,0,.07.28.2.2,0,0,0,.32,0,.51.51,0,0,0,.14-.15,1.45,1.45,0,0,0,.15-.21,4.22,4.22,0,0,0,.51-1.93,1.39,1.39,0,0,0-.2-.86.78.78,0,0,0-.19-.12.11.11,0,0,1-.07,0s0,0-.06,0a.86.86,0,0,0-.41.51,2.89,2.89,0,0,0,0,1.49c0,.1.07.2.09.3.07.35-.06.35-.63.68l-.38.25a.81.81,0,0,1-.65.13.89.89,0,0,1-.54-.49,4,4,0,0,1-.31-2.17,3.78,3.78,0,0,1,1.16-2.4,2.65,2.65,0,0,1,1.48-.68,4,4,0,0,1,.85.05,5.92,5.92,0,0,1,.66.25,2.86,2.86,0,0,1,1.07,1,3.12,3.12,0,0,1,.46,1.07Z"/><path class="cls-1" d="M244.58,139.93a1.64,1.64,0,0,1,.18-1.51c.09-.15.45-.21.54-.08s.38.54.54.81,1.22,2.93,1.65,3.81.77,1.74,1.18,2.57a9.6,9.6,0,0,0,3.19,4.07,6.35,6.35,0,0,0,.86.44,2.85,2.85,0,0,0,1.65.18,5.23,5.23,0,0,0,.73-.26c.18-.17.42-.26.55-.49s.25-.24.26-.46a9,9,0,0,0,.53-1.92c.14-1,.16-2.1.19-2.35a35.89,35.89,0,0,0,.13-3.91,1.32,1.32,0,0,1,0-.56,2.68,2.68,0,0,0,.1-1.25,14.78,14.78,0,0,1,0-1.76,3.64,3.64,0,0,1,.25-.88c.08-.26.41-.1.44,0,.11.26.26,0,.39,0h.14s.2.81.42,1.65.43,1.74.45,1.92c0,0,0,.34.1.81s.11,1.11.18,1.76c.11,1.32.13,2.74.12,3a3.65,3.65,0,0,1-.13.92,14.7,14.7,0,0,1-.37,2.3,6.18,6.18,0,0,1-1.15,2.36,6.45,6.45,0,0,1-.58.59l-.7.49a2.65,2.65,0,0,1-.76.31,3.82,3.82,0,0,1-.79.16,4,4,0,0,0-.6.05c-.21,0-.42.07-.64.08l-.66,0a4.42,4.42,0,0,1-1.28-.3,6.49,6.49,0,0,1-2.13-1.3,11.48,11.48,0,0,1-1.61-1.75,1.65,1.65,0,0,1-.22-.36,4,4,0,0,0-.25-.45,27.08,27.08,0,0,1-2.24-4.72c-.17-.36-.5-2.22-.64-2.64C244.54,141,244.68,140.13,244.58,139.93Z"/><path class="cls-1" d="M280.9,137.55a1.44,1.44,0,0,1,.68-1.24c.14-.1.49,0,.54.11.08.29.17.58.23.87,0,.09.09.82.13,1.64s.08,1.76.1,2.23a17.71,17.71,0,0,1-.09,2.81,18.12,18.12,0,0,1-.51,3,6.17,6.17,0,0,1-1.76,3.09,5,5,0,0,1-.78.52,9,9,0,0,1-.88.28,6.65,6.65,0,0,1-1.48,0,4.42,4.42,0,0,1-1.44-.41,6.22,6.22,0,0,1-2.07-1.76,4.66,4.66,0,0,0-.5-.65,8.74,8.74,0,0,1-1.19-2.28,16.08,16.08,0,0,1-.74-2.43c-.18-1.29-.35-2.55-.43-3.81a1.23,1.23,0,0,1,0-.54,2.33,2.33,0,0,0,0-1.17,14.43,14.43,0,0,1-.05-1.61,3.27,3.27,0,0,1,.17-.8c.06-.24.4-.15.44-.07s.26,0,.39,0a.34.34,0,0,1,.14,0c.07,0,1,2.95,1.05,3.26,0,0,.06.3.14.72s.2,1,.32,1.53a25.66,25.66,0,0,0,.66,2.48,3.74,3.74,0,0,1,.15.74,14.06,14.06,0,0,0,.66,1.63,9.21,9.21,0,0,0,.86,1.39,9.58,9.58,0,0,0,1,1.11.49.49,0,0,0,.23.11,1.8,1.8,0,0,0,.53.05c.18,0,.42,0,.56-.08a1.61,1.61,0,0,0,.89-.6,4.81,4.81,0,0,0,.59-1.43c0-.1.08-.19.12-.29a1.41,1.41,0,0,0,.12-.38,24.84,24.84,0,0,0,.45-4.4c0-.34.33-2,.34-2.43C280.5,138.49,280.93,137.76,280.9,137.55Z"/><path class="cls-1" d="M265.32,143.85a46.24,46.24,0,0,1-1.18-9,25.8,25.8,0,0,1,.07-3.4,14.91,14.91,0,0,1,1.81-5.87,10.3,10.3,0,0,1,4.53-4.26,14.59,14.59,0,0,1,5.23-1.37,17,17,0,0,1,3.42,0,9.1,9.1,0,0,1,3.35,1,1,1,0,0,1,.21.17.86.86,0,0,1,.15.22.34.34,0,0,1-.07.36,6.22,6.22,0,0,1-.9.57,4.62,4.62,0,0,1-2.82.6c-3.87-.59-7.92,0-10.32,3a8.58,8.58,0,0,0-1.55,3.18,19.35,19.35,0,0,0-.5,3.75,35.07,35.07,0,0,0,.73,8.56c.35,1.76.76,3.52,1.25,5.26a29.5,29.5,0,0,0,2.94,7.5,17.84,17.84,0,0,0,4.05,4.47l1.06.81c1.32,1,1.67,1.43,1.55,2.23a2.43,2.43,0,0,1-.08.55c-.17.54-1,.52-2.17-.15a18.83,18.83,0,0,1-4.73-3.93,20.79,20.79,0,0,1-3.37-5.44,53.47,53.47,0,0,1-2.72-8.78Z"/><path class="cls-1" d="M244.63,121.77a26.09,26.09,0,0,1,3.48-.78c.43-.07.85-.18,1.28-.22a15.75,15.75,0,0,1,4.63.38c.68.21,1.37.31,2.06.58a3.46,3.46,0,0,1,2.3,1.68c.15.29-.51.7-1.2,1s-1.34.67-1.57.54a13.44,13.44,0,0,0-3.46-1.39,3.07,3.07,0,0,0-1.35-.1c-.46,0-.92.11-1.38.17a22.1,22.1,0,0,0-3.07.58c-.61.19-1.24.37-1.84.62a12.56,12.56,0,0,0-2.62,1.37,6,6,0,0,0-.83.76l-.71.87c-.11.12-.18.27-.28.39-.38.45-.65.44-1.32,0-.15-.1-.32-.19-.46-.3a1.08,1.08,0,0,1-.43-1.39,7.32,7.32,0,0,1,1.46-2,12.22,12.22,0,0,1,2-1.44,12.37,12.37,0,0,1,1.62-.83c.55-.26,1.12-.46,1.68-.67Z"/><path class="cls-1" d="M260.73,177.86a1.94,1.94,0,0,1,.57-2c.18-.16.64,0,.68.15.1.36.22.74.34,1.12a21.32,21.32,0,0,0,.48,2.26,22.43,22.43,0,0,0,1,3,27.62,27.62,0,0,0,1.63,3.37,7.59,7.59,0,0,0,2.28,2.55,3.24,3.24,0,0,0,2.78.42,5.71,5.71,0,0,0,.61-.23,1.57,1.57,0,0,1,.23-.09l.23-.17a4.5,4.5,0,0,0,1.33-2.06,14.71,14.71,0,0,0,.67-2.82,4.22,4.22,0,0,0,.08-1c0-.13,0-.57.08-1.17,0-.3.06-.64.09-1,0-.18,0-.36.05-.54h-.1l-1.29-.12c-1.8-.26-3.64-.46-5.47-.8a2.71,2.71,0,0,1-.77-.18,6.94,6.94,0,0,0-1.67-.48,8.84,8.84,0,0,1-2.33-.88,2.78,2.78,0,0,1-1-.95c-.21-.38.19-.36.28-.3.3.18.2-.12.28-.22a.76.76,0,0,1,.09-.09s.19.12.53.26a6.58,6.58,0,0,0,1.38.37c1.09.19,2.3.23,2.53.27l1.06.12c.62.06,1.45.12,2.31.17,1.71.08,3.53.13,3.92.14a8.48,8.48,0,0,1,1.82.28,2.89,2.89,0,0,1,.5.21,1.11,1.11,0,0,1,.44.43,4.74,4.74,0,0,1,.2.93c0,.25-.06.56-.09.91,0,.13,0,.26,0,.41l0,.31c0,.44-.07.93-.11,1.39-.07.92-.18,1.75-.2,1.83a11.62,11.62,0,0,1-.91,3.34,4.27,4.27,0,0,0-.27.67,6.47,6.47,0,0,1-2,2.78,5,5,0,0,1-.84.5,8,8,0,0,1-.81.29,6.85,6.85,0,0,1-1.7.26,6.1,6.1,0,0,1-3.38-1,3,3,0,0,1-.47-.39c-.2-.16-.37-.35-.55-.51a11.31,11.31,0,0,1-2.21-3,26.17,26.17,0,0,1-1.47-3.25,30.92,30.92,0,0,1-.82-3.65C260.66,179.34,260.81,178.16,260.73,177.86Z"/><path class="cls-1" d="M390.62,72.73c.53.34.88.74.7,1.21a4,4,0,0,0-.1.85,36.49,36.49,0,0,1-1.56,5.53c-.27.77-.55,1.54-.85,2.31A37.69,37.69,0,0,1,387,86.36c-.34.62-.78,1.19-1.16,1.79a26.39,26.39,0,0,1-2.54,3.45,18,18,0,0,1-1.6,1.55c-.21.18-.38.4-.58.59a.69.69,0,0,1-.3.17,1.32,1.32,0,0,1-1-.91c-.17-.43-.24-.76-.06-.9a17,17,0,0,0,2.29-2.28c.28-.33.49-.74.76-1.08.42-.55.86-1.1,1.25-1.67a27.3,27.3,0,0,0,1.62-2.63,34.77,34.77,0,0,0,1.47-3.23c.13-.34.29-.68.42-1a30.52,30.52,0,0,0,1.12-3.3c.19-.58.3-1.17.43-1.75s.19-1.18.31-1.75a1.11,1.11,0,0,1,.07-.26C389.66,72.79,389.78,72.75,390.62,72.73Z"/><path class="cls-1" d="M377.36,85c.86.51,1.24,1.1,1,1.74a4.3,4.3,0,0,0-.13,1.19,64.87,64.87,0,0,1-1.66,7.85c-.11.41-.23.82-.35,1.23l-.18.62v0a8.32,8.32,0,0,1,1-.09c.89-.09,1.79-.24,2.68-.42s1.83-.34,2.72-.62a21.19,21.19,0,0,0,5-2.3,15.37,15.37,0,0,0,2.21-1.6,7.46,7.46,0,0,0,.62-.77.68.68,0,0,1,.31-.27,1.4,1.4,0,0,1,1.39.72c.27.43.36.84.11,1.13a16,16,0,0,1-4,3.25c-.6.34-1.17.73-1.8,1a24,24,0,0,1-3,1.08,37.23,37.23,0,0,1-4.55,1l-1.33.17-.67.06-.34,0-.55,0a3.6,3.6,0,0,1-2.09-.42.78.78,0,0,1-.39-.73,5.48,5.48,0,0,1,0-.9h0l.5-1.3c.11-.32.16-.51.25-.77a46.78,46.78,0,0,0,1.13-4.81c.31-1.69.57-3.42.72-5.09a1.43,1.43,0,0,1,.06-.35c.07-.22.13-.33.33-.4A2.19,2.19,0,0,0,377.36,85Z"/><path class="cls-1" d="M106.87,85.05c.8.13,1.39.32,1.41.89,0,.32.3.57.42.87a33.65,33.65,0,0,0,3.2,5.77c.52.8,1.15,1.52,1.73,2.27,1,1.25,2.07,2.46,3.19,3.61.55.6,1.08,1.23,1.68,1.8a33.3,33.3,0,0,0,3.8,3c.66.5,1.33,1,2,1.41.26.14.56.21.83.33a.5.5,0,0,1,.29.23,1.5,1.5,0,0,1,0,.81,2.12,2.12,0,0,1-.46.82c-.37.42-.73.66-1,.5a28.46,28.46,0,0,1-3.73-2.33c-.47-.34-1-.65-1.44-1-.71-.58-1.35-1.23-2-1.87-1-.94-1.84-1.93-2.73-2.91-1-1.15-2-2.28-3-3.5-.28-.39-.58-.77-.84-1.18-.84-1.25-1.65-2.52-2.37-3.86a22.85,22.85,0,0,1-2-4.32,1.45,1.45,0,0,1-.08-.36C105.8,85.57,105.91,85.47,106.87,85.05Z"/><path class="cls-1" d="M126.52,95.72c.86.24,1.46.58,1.52,1.39a4.63,4.63,0,0,0,.51,1.3,73.78,73.78,0,0,0,3.92,8.63c.31.59.67,1.15,1,1.71l.28.4c.14.22.39.54.57.79a11.52,11.52,0,0,1,.53,1.44,1.58,1.58,0,0,1-.8,1,6,6,0,0,1-1.53.57l-.56.14-.45.09-.91.17a31.67,31.67,0,0,1-3.62.35,35.18,35.18,0,0,1-3.7-.12,27.81,27.81,0,0,1-7.34-1.33,17.44,17.44,0,0,1-3.51-1.69c-.41-.26-.86-.47-1.26-.75a1.33,1.33,0,0,1-.44-.41c-.27-.51.07-1.12.7-1.42.47-.23.87-.32,1.18-.1a15.66,15.66,0,0,0,4.94,2.36c.73.21,1.48.31,2.23.45a34.87,34.87,0,0,0,3.55.51,31.39,31.39,0,0,0,5.31,0,21.76,21.76,0,0,0,3-.48l.15,0h0l0,0,.06,0c.05,0,0-.08-.06-.1h0l-.06-.08-.29-.44-.54-.87a61.5,61.5,0,0,1-2.91-5.64c-.91-2-1.78-4-2.54-6.07a3,3,0,0,1-.13-.49,1,1,0,0,1,.11-.78C125.61,95.87,126,95.74,126.52,95.72Z"/><path class="cls-1" d="M395.22,119.65c.11,1-.13,1.66-.82,1.82a4.27,4.27,0,0,0-1,.6,64.93,64.93,0,0,1-7.28,3.36c-.4.16-.8.31-1.21.45l-.6.23,0,0c.11.13-.18-.22.65.73.61.65,1.27,1.28,1.94,1.89a27.78,27.78,0,0,0,2.12,1.81,21,21,0,0,0,4.83,2.63,14.47,14.47,0,0,0,2.6.81,5.51,5.51,0,0,0,1,0,.78.78,0,0,1,.4.09,1.37,1.37,0,0,1,.26,1.54c-.19.48-.46.8-.84.77a15.75,15.75,0,0,1-5-1.3c-.63-.27-1.28-.5-1.88-.83a24.22,24.22,0,0,1-2.67-1.77,36.33,36.33,0,0,1-3.5-3.06c-.32-.32-.63-.63-.93-1l-.46-.51-.22-.26-.34-.42a3.51,3.51,0,0,1-.91-1.92c0-.28.07-.64.35-.76a7.21,7.21,0,0,1,.73-.52h0l1.35-.37c.32-.1.51-.18.77-.27a43.47,43.47,0,0,0,4.52-2c1.54-.76,3.09-1.59,4.51-2.46a2,2,0,0,1,.32-.17.48.48,0,0,1,.52,0A2.28,2.28,0,0,0,395.22,119.65Z"/><path class="cls-1" d="M413.47,115.37c.67.58.94,1.19.5,1.66-.26.25-.28.64-.45,1a17.41,17.41,0,0,1-4.53,5.3,11.7,11.7,0,0,1-1.19.91,12.75,12.75,0,0,1-1.24.83,21.47,21.47,0,0,1-4.59,2,24.56,24.56,0,0,1-2.49.53c-.84.13-1.67.3-2.5.42l-2.51.18a21.83,21.83,0,0,1-2.56-.12c-.31,0-.63,0-1,0a.5.5,0,0,1-.37-.08c-.33-.23-.38-.92-.14-1.54.18-.47.39-.79.67-.78a29.41,29.41,0,0,0,3.87,0c.52,0,1-.15,1.55-.18.81-.07,1.61-.19,2.41-.29a11.46,11.46,0,0,0,1.74-.37,9.67,9.67,0,0,0,1.69-.5,17,17,0,0,0,3.58-1.81l1-.71c.51-.41,1-.83,1.49-1.27a13.72,13.72,0,0,0,1.31-1.44,13,13,0,0,0,2-3.44.71.71,0,0,1,.13-.26C412.16,115.13,412.3,115.17,413.47,115.37Z"/><path class="cls-1" d="M149.88,222.49a23,23,0,0,0-2.78-.43c-.35,0-.69,0-1,0a26.53,26.53,0,0,0-3.68-.09,6.65,6.65,0,0,0-1.59.29,6.09,6.09,0,0,1-2,.5c-.22,0-.42-.59-.45-1.22s.17-1.32.61-1.45a10.89,10.89,0,0,1,4.66-.4c.93.12,1.87,0,2.8,0a28.34,28.34,0,0,1,3.06.33c.62.12,1.24.21,1.86.36a13.51,13.51,0,0,1,1.39.36c.47.11.93.27,1.39.4l1.09.3a5.84,5.84,0,0,1,1.12.36c.16.07.34.11.5.19.57.38.64.66.32,1.21-.08.13-.15.26-.23.38a1.11,1.11,0,0,1-1.1.47c-1.07-.25-2.12-.6-3.29-.91a25.46,25.46,0,0,0-2.68-.59Z"/><path class="cls-1" d="M301.7,261.79a3.13,3.13,0,0,1,2.64,3.21c0,.94,2.18.5,2.18-.25a4.05,4.05,0,0,0-3.5-4.18,1.81,1.81,0,0,0-1.53.41c-.31.31-.27.73.21.81Z"/><path class="cls-1" d="M304.52,258.14c3.54-.94,5.92,2.26,6.21,5.42,0,.48,2.24.06,2.18-.58-.43-4.64-4.29-6.76-8.6-5.62-1.27.34-1.08,1.12.21.78Z"/></g></svg>