<svg id="Layer_1" data-name="Layer 1" xmlns="http://www.w3.org/2000/svg" width="520" height="520" viewBox="0 0 520 520"><defs><style>.cls-1{fill:#221f1f;}.cls-2{fill:none;stroke:#000;stroke-miterlimit:10;stroke-width:2.19px;}.cls-3{fill:#231f20;}.cls-4{fill:#232020;}</style></defs><title>Notioly v2</title><g id="_41.Positive_news" data-name="41.Positive news"><path class="cls-1" d="M330,174.45a35.17,35.17,0,0,0-4.17,5.64c-.45.74-.84,1.51-1.26,2.27-.55,1-1.07,1.95-1.58,2.94l-.74,1.5-.35.75c-.13.28-.2.43-.39.88l-.53.58-.47.47c-.33.31-.66.6-1,.88-1.1.9-2.27,1.7-3.4,2.48-1.47,1-2.88,2-4.4,2.85-1,.53-.9-1.76.83-2.92l4-2.57c.64-.43,1.26-.87,1.85-1.33.3-.23.58-.48.85-.73a4.86,4.86,0,0,0,.41-.38,2.76,2.76,0,0,1,.29-.28s0,0,.06-.1l.13-.27.27-.52c1-2,1.91-4,3-6a45.67,45.67,0,0,1,4.13-6.16,22,22,0,0,1,3.26-3.29,9.62,9.62,0,0,1,2.81-1.56,5.54,5.54,0,0,1,3.56,0c.27.16.6.25.77.5.31.52,0,1.07-.25,1.57a6.64,6.64,0,0,1-.56.75l-.45.51c-.6.67-1.21,1.28-1.83,1.89l-.81.8c-1,1-1.33,1.14-1.87,1.06a1.7,1.7,0,0,0-.39,0,.21.21,0,0,1-.24-.12.78.78,0,0,1,0-.46,2.91,2.91,0,0,1,.67-1.17c.87-1,1.82-1.92,2.71-2.84,1.25-1.31.75-.9.82-1h-.51a5.5,5.5,0,0,0-2.71,1.08,14.56,14.56,0,0,0-2.5,2.24Z"/><path class="cls-1" d="M332.18,192c-6.8,2.9-11.08,7.85-15.22,13.83-.26.38,2.36.26,2.86-.47,3.61-5.21,7.42-10,13.4-12.58,1.88-.8.11-1.27-1-.78Z"/><path class="cls-1" d="M255.55,83A45.89,45.89,0,0,1,258,88.46a54.3,54.3,0,0,1,1.79,5.93c.82,3.39,1.6,6.8,2.15,10.28a54.1,54.1,0,0,1,.78,10.6,26.39,26.39,0,0,1-.75,5.4,14.8,14.8,0,0,1-2.31,5.13,11.81,11.81,0,0,1-4.39,3.73,15.2,15.2,0,0,1-2.68,1,21.08,21.08,0,0,1-2.75.48,19.19,19.19,0,0,1-2.4.11,21.43,21.43,0,0,1-2.4-.24,19.42,19.42,0,0,1-4.58-1.32,28.86,28.86,0,0,1-7.85-5.06,50.47,50.47,0,0,1-11-14.62c-.5-1-1-2-1.39-3.07-.21-.54-.41-1.07-.58-1.63-.12-.39-.08-.28-.1-.34l0-.09-.1,0h0s.1,0,0,0l-.14,0-.56.1a4.67,4.67,0,0,1-1.12.1,5.14,5.14,0,0,1-1.11,0,8.9,8.9,0,0,1-4.12-1.53A9.2,9.2,0,0,1,208.3,96a9.08,9.08,0,0,1,.22-2.2,12.75,12.75,0,0,1,.72-2,7.19,7.19,0,0,1,1.29-1.92,4.22,4.22,0,0,1,2.28-1.26,4.92,4.92,0,0,1,2.5.24,9.58,9.58,0,0,1,2,1l.85.6.38.29.09.06s0-.06.05-.09l.5-.9.78-1.33c.53-.88,1.08-1.75,1.64-2.6,1.13-1.71,2.32-3.38,3.6-5a47.17,47.17,0,0,1,8.74-8.78A24.56,24.56,0,0,1,238,69.63a18.88,18.88,0,0,1,2.28-.88,11.64,11.64,0,0,1,1.2-.28,7,7,0,0,1,1.23-.21l1.25-.09c.41,0,.83,0,1.25.07l.63,0c.21,0,.41.09.62.13l1.23.29a14.29,14.29,0,0,1,4.35,2.35A25.46,25.46,0,0,1,258,78c.41.64.74,1.31,1.11,2a18.85,18.85,0,0,1,1,2.06c.57,1.41,1,2.73,1.64,4A10.21,10.21,0,0,0,263.12,88c.57.65.87.77,1.05,1a.25.25,0,0,1-.06.37,1.09,1.09,0,0,1-.89.17,5.08,5.08,0,0,1-.66-.18A2.36,2.36,0,0,1,262,89a13.31,13.31,0,0,1-1.88-2.75c-.51-.93-1-1.87-1.42-2.79-.23-.45-.46-.93-.7-1.32l-.85-1.31q-.42-.67-.84-1.38l-.93-1.41a21,21,0,0,0-4-4.78,10.33,10.33,0,0,0-11.18-1.94,21.37,21.37,0,0,0-5.33,3.18,48.07,48.07,0,0,0-7.21,7.26c-1.33,1.63-2.61,3.32-3.81,5q-.9,1.3-1.74,2.64c-.29.45-.55.9-.82,1.35l-.4.68-.6,1.14a5.15,5.15,0,0,1-.59.77,1.49,1.49,0,0,1-.31.15,1.24,1.24,0,0,1-.43,0,2.3,2.3,0,0,1-1.07-.53l-1-.8c-.24-.18-.5-.37-.78-.56a5.94,5.94,0,0,0-1.95-.87,1.94,1.94,0,0,0-2,.63,5.51,5.51,0,0,0-.84,1.3,10.58,10.58,0,0,0-.59,1.75,6.5,6.5,0,0,0,.42,4.07,7.37,7.37,0,0,0,3.37,3.52,7.3,7.3,0,0,0,2.64.73,6.91,6.91,0,0,0,1.43-.12l.36-.06c.33-.09.55-.19.81-.28l1.52-.55c.12.75.27,1.5.44,2.27.06.26.08.28.11.39l.09.29c.06.19.13.39.2.58.28.79.64,1.6,1,2.43a49.63,49.63,0,0,0,2.78,5.07,46.15,46.15,0,0,0,8.28,9.94c3.38,3,7.56,5.42,12.09,5.91s9.4-.82,11.68-4.42a14.76,14.76,0,0,0,2.21-5.87,31.14,31.14,0,0,0,.36-6.13,68.18,68.18,0,0,0-1.29-10.69c-1.2-6.16-2.29-10.16-2.37-10.68-.24-1.07-.45-2.15-.67-3.39S255.69,84.85,255.55,83Z"/><path class="cls-1" d="M217.37,139.38A10.23,10.23,0,0,1,215.1,143a12.79,12.79,0,0,1-3.87,2.65A19,19,0,0,1,201.5,147a23.79,23.79,0,0,1-14.91-7.06,16,16,0,0,1-2.44-3.6,13.27,13.27,0,0,1-1.23-4.24,15.66,15.66,0,0,1,1.53-8.47,71.69,71.69,0,0,1,4-7.08,56.8,56.8,0,0,0,3.74-6.79,20.41,20.41,0,0,0,1.22-3.49,11.55,11.55,0,0,0,.28-3.49,17.43,17.43,0,0,0-.25-1.86c-.09-.63-.21-1.28-.33-1.92-.23-1.28-.51-2.57-.79-3.86a115.2,115.2,0,0,1-2.44-13.66,38.58,38.58,0,0,1,0-7.13,27,27,0,0,1,1.69-7A27.72,27.72,0,0,1,195.14,61a22.16,22.16,0,0,1,5.28-5,25,25,0,0,1,13.76-4A40.2,40.2,0,0,1,223.67,53c1.55.35,3.08.78,4.58,1.27.75.25,1.5.51,2.24.8l1.11.44.17.07.93-1.05,1.85-1.69c.67-.51,1.33-1,2-1.51s1.4-.89,2.12-1.31A29.12,29.12,0,0,1,248,46.73,24.87,24.87,0,0,1,258,47a16.59,16.59,0,0,1,2.43.75l1.19.46c.39.17.75.4,1.13.59s.76.4,1.13.62l1,.75a14.74,14.74,0,0,1,1.94,1.64A23.61,23.61,0,0,1,272.5,60a28.74,28.74,0,0,1,2.06,9.69,47.36,47.36,0,0,1-3.5,19.09l-.15.41-.07.28a1.86,1.86,0,0,0-.1.58,3.89,3.89,0,0,0,.12,1.29,10.56,10.56,0,0,0,1.25,2.77,52,52,0,0,0,4,5.42,80.16,80.16,0,0,1,8.4,11.41,26.16,26.16,0,0,1,2.64,6.51,19,19,0,0,1,.42,7.17c-.07.6-.23,1.18-.34,1.78a12.15,12.15,0,0,1-.58,1.8,13,13,0,0,1-1.95,3.24,14.64,14.64,0,0,1-6,4.23,13,13,0,0,1-4.9.94,9.6,9.6,0,0,1-2.54-.44,3,3,0,0,1-1.12-.66c-.28-.38.33-.5,1.76-.53.65,0,1.36-.21,2-.2a11.66,11.66,0,0,0,8.21-3.94,11.07,11.07,0,0,0,2.2-3.78l.29-1.07c.07-.39.13-.78.2-1.17a11.91,11.91,0,0,0,.14-1.2,8.56,8.56,0,0,0,.08-1.25,18.65,18.65,0,0,0-2.3-9.08,47.59,47.59,0,0,0-5.53-8.1c-2.1-2.59-4.37-5.06-6.44-7.88a17.9,17.9,0,0,1-2.65-4.83,7.26,7.26,0,0,1-.29-3.18,6.25,6.25,0,0,1,.2-.83l.13-.41.1-.28.42-1.16a47.83,47.83,0,0,0,3-15.25,27.29,27.29,0,0,0-1.51-9.61,20.71,20.71,0,0,0-5.21-8c-.33-.29-.68-.69-1.16-1.05a19.32,19.32,0,0,0-1.73-1.2A17.27,17.27,0,0,0,256,49.33a23.76,23.76,0,0,0-10.29.7,26.32,26.32,0,0,0-6.35,2.76c-.53.35-1.11.65-1.63,1.05s-1.06.79-1.59,1.23l-1.54,1.42-2.11,2.37L231,58.19l-1-.41c-.56-.22-1.13-.43-1.72-.64-1.19-.42-2.44-.8-3.76-1.15a40.33,40.33,0,0,0-8.62-1.31A26.07,26.07,0,0,0,206.46,56,21.49,21.49,0,0,0,202,58.2a21.25,21.25,0,0,0-3.85,3.45,24.86,24.86,0,0,0-3,4.45c-.46.79-.75,1.65-1.13,2.47s-.61,1.72-.8,2.62a32,32,0,0,0-.4,11.23c.45,3.84,1.32,7.67,2.15,11.52q.63,2.9,1.16,5.82l.22,1.48c0,.24.08.48.11.74l.05.81,0,.81,0,.8-.05.79-.14.78c-.76,4.14-2.81,7.55-4.7,10.71a71.53,71.53,0,0,0-5.13,9.07,13.66,13.66,0,0,0-1,4.43,10.46,10.46,0,0,0,.68,4.16,11.59,11.59,0,0,0,2,3.47c.4.52.9,1,1.33,1.42s1,.85,1.48,1.2a21.49,21.49,0,0,0,6.1,3.08,22.75,22.75,0,0,0,5.27,1.05,20.34,20.34,0,0,0,5.25-.16,18.42,18.42,0,0,0,4.71-1.31A13.28,13.28,0,0,0,217.37,139.38Z"/><path class="cls-1" d="M218.58,149.45a3.13,3.13,0,0,1,.65-3.87,13.92,13.92,0,0,1,5.3-3.42,20.33,20.33,0,0,1,6.13-1.12,50.64,50.64,0,0,1,10.19,1.17,74,74,0,0,0,8.37,1.14,29.51,29.51,0,0,0,8.16-.4,12.55,12.55,0,0,0,4.26-1.61,8.22,8.22,0,0,0,2.71-3,2.08,2.08,0,0,1,.29-.62.92.92,0,0,1,1.51.31c.07.15.21.35.15.47a3.65,3.65,0,0,0-.25.93c-.07.29-.15.61-.22.94a4.76,4.76,0,0,1-.31,1,4,4,0,0,1-.64.86,15.67,15.67,0,0,1-7.11,3.75,10.31,10.31,0,0,1-1.55.29c-.52.06-1,.12-1.55.13a31.8,31.8,0,0,1-3.92-.16c-.88,0-3.4-.2-6.6-.68s-7.06-1.33-10.79-1.56a22.78,22.78,0,0,0-5.33.18,18.86,18.86,0,0,0-2.32.52l-1,.39-.49.18-.43.23a13.85,13.85,0,0,0-3.59,2.7C219.79,148.53,219.32,148.85,218.58,149.45Z"/><path class="cls-1" d="M240.08,184l-14.82,4.45-5.38,1.69-4.49,1.33-2.16.64-.39.11c-.1,0,0,.09,0,.14l.05.2h0l2.91,9.79c.85,2.82,1.76,5.63,2.67,8.41,1.17,3.56,2.45,7.1,3.36,10.75.57,2.27-2.29.06-3.61-4.05-2.34-7.3-4.55-14.62-6.6-22.07-.11-.42-.23-.83-.35-1.25s-.31-1.06-.47-1.59h0l-.35-1.15-.08-.29,0-.14c0-.06.08,0,.11-.07l.58-.18,2-.63,2.75-.87,5.52-1.72L236.22,183l9.18-2.79c4.63-1.43,9.28-2.83,13.86-4.3l4.06-1.36,4.84-1.66,1,3.27c.25.77.49,1.53.73,2.31.86,2.92,1,3.89.61,4.67a2.52,2.52,0,0,1-.25.52c-.35.4-1-.69-1.76-2.8l-1.09-3.23c-.18-.55-.36-1.1-.53-1.65l-.07-.21,0-.05,0,0-.05-.08-.08.06,0,0-.17.06-1.6.54-3.23,1.07L255,179.47l-14.91,4.62Z"/><path class="cls-1" d="M265.86,221.4l6.78-2.33c.83-.29,1.63-.63,2.45-.91l2.68-.91,1.35-.45.54-.15-.08-.32,0-.18-.11-.39-.5-1.71c-.39-1.31-.84-2.6-1.29-3.88a31.87,31.87,0,0,1-1.6-5c-.21-1.08,2.18-.42,2.82,1.48.57,1.66,1.11,3.34,1.6,5q.36,1.26.72,2.55l.36,1.34.63,2.25-.17.06c-.82.28-1.65.55-2.47.84l-1.55.55-3.08,1.15-6.82,2.39-4.19,1.48c-2.12.76-4.25,1.5-6.32,2.31-1.61.64-3.15,1.38-4.71,2.07l-1,.47c-1.3.53-1.78.55-2.26.13a2.31,2.31,0,0,1-.32-.3c-.29-.36.12-.9,1-1.39a79.5,79.5,0,0,1,8.75-3.78c2.25-.86,4.53-1.66,6.8-2.49Z"/><path class="cls-1" d="M253.32,201l-4.85,7.55-4.37-1.81-4-1.61-13.86-5.91c-2.06-.86-4.14-1.68-6.21-2.47-2.65-1-5.36-1.93-7.91-3.2-1.59-.79,1.26-1.87,4.31-.67,5.4,2.13,10.75,4.37,16.07,6.82,3.18,1.46,6.59,2.73,9.9,4.1l2.94,1.23,1.47.61.48.21.29.13.34-.51.73-1.14,1.47-2.29,3.9-6.13c2-3.1,4-6.2,5.85-9.31,1.47-2.42,2.8-4.85,4.19-7.28.31-.54.61-1.06.91-1.6,1.18-2,1.69-2.53,2.43-2.65A1.89,1.89,0,0,1,268,175c.49,0,.3,1-.47,2.53-2.31,4.46-5,9-7.82,13.48l-6.29,10Z"/><path class="cls-1" d="M259.22,221c-2.45,2.25-31.65,31-54.38,23.95-14.11-4.39-14.67-20.61-11.85-32.64,1.66-7.11,4.56-16.18,7.12-23.69l11.37,35.07c6.4.57,31.6-8.68,40.59-15.29C252.67,211.94,254.38,217.7,259.22,221Z"/><path class="cls-1" d="M201.83,198.29l-1.27-4-.32-1,0-.12-.07-.27,0-.15c0-.08,0,0,0,.05l-.1.26-.08.21-.18.54-.67,2c-1.75,5.32-3.42,10.67-4.76,16.07a49,49,0,0,0-1.5,11.89A27.86,27.86,0,0,0,194.45,234a16.88,16.88,0,0,0,6.14,8,20.55,20.55,0,0,0,9.77,3.17,31.73,31.73,0,0,0,10.47-.94,61.71,61.71,0,0,0,17.26-7.68,148,148,0,0,0,19.3-14.82c1.91-1.69,2-1.06.83.81a37.15,37.15,0,0,1-7.56,7.92,92.78,92.78,0,0,1-21.6,13.27,57.23,57.23,0,0,1-6.06,2.14,41.13,41.13,0,0,1-6.36,1.26,29.68,29.68,0,0,1-6.53.09,27.72,27.72,0,0,1-3.25-.49c-.54-.13-1.07-.29-1.6-.43l-.79-.23-.77-.31a18.61,18.61,0,0,1-11.15-11,29.78,29.78,0,0,1-1.77-7.81,44.42,44.42,0,0,1,.11-7.91,56.09,56.09,0,0,1,1.58-8.48c.7-2.76,1.49-5.49,2.31-8.2s1.69-5.42,2.59-8.11l1.82-5.41.53-1.55.26-.77.13-.39a2.25,2.25,0,0,1,.13.37l1,3.14q3.35,10.5,6.7,21l2.41,7.54,1.21,3.77.25.8.09.26a.5.5,0,0,0,0,.13h.78a8.63,8.63,0,0,0,.89-.09,48.3,48.3,0,0,0,7.6-1.68c2.51-.73,5-1.54,7.44-2.43q5.72-2.07,11.15-4.6l2.7-1.29,2.65-1.37,2.59-1.46,1.26-.77.63-.39.95-.65c.7-.48,1.43-1,2.13-1.46l.29,1.48c.09.51.2,1,.31,1.45,0,.21.12.52.16.65l.12.43c.08.28.18.56.27.84a22.3,22.3,0,0,0,3,5.95,24,24,0,0,1,1.72,2.52,8.21,8.21,0,0,1,.52.86c.14.36-.42.26-1.49-.42a13,13,0,0,1-3.9-4.28,22,22,0,0,1-1.73-3.67l-.33-1-.25-.86-.13-.41c-.14.09-.28.22-.4.31l-1.93,1.19c-1.33.77-2.67,1.54-4,2.22-2.74,1.42-5.57,2.7-8.44,3.91a126.59,126.59,0,0,1-17.87,6.11,39.11,39.11,0,0,1-4.31.85l-1.13.14h-2.56c-.06,0-.19.05-.19-.07l-.33-1-.48-1.48-2.6-8.09q-2.61-8.1-5.2-16.2Z"/><path class="cls-1" d="M259.91,220.94a14,14,0,0,1,4-6.18l8.67-8.95,4.31-4.5a33.56,33.56,0,0,0,3.77-4.66,30.38,30.38,0,0,0,1.88-3.27c.28-.56.53-1.13.77-1.71l.33-.87.15-.45.08-.22,0-.11,0-.05v-.05h0c0,.16.05-.38-.06.37h0v-.19l.06-.19a21.23,21.23,0,0,0,.93-6.28c0-2.07-.56-4.19-2-5a4.14,4.14,0,0,0-2.18-.5,3.39,3.39,0,0,0-.63,0c-.1,0-.21,0-.31,0l-.42.07c-.9.18-1.81.44-2.71.66l0-1.89c0-.6,0-1.3,0-1.5a18.22,18.22,0,0,0-.17-1.84,9.15,9.15,0,0,0-.36-1.69l-.06-.17,0-.05a.11.11,0,0,0-.09-.06.19.19,0,0,0-.1.05l-.19.3a14.16,14.16,0,0,0-.72,1.61c-.43,1.15-.8,2.38-1.15,3.61-1.41,4.94-2.42,10-4.38,15A16.59,16.59,0,0,1,268,195a17.66,17.66,0,0,1-1.9,2.25c-1.28,1.33-2.58,2.62-3.88,3.9-2.51,2.44-5,4.87-7.69,7.19a14.36,14.36,0,0,1-1.38,1.14c-1.32.83-2,.52-1.36-.52a2.46,2.46,0,0,1,.45-.71c2.08-1.72,3.14-3.76,5.23-5.66,1.93-1.77,3.8-3.62,5.59-5.52.88-.94,1.82-1.93,2.55-2.85a13.26,13.26,0,0,0,1.58-3.2c.7-1.89,1.29-3.89,1.87-5.9l2.26-7.75c.14-.49.36-1.22.64-2.16a29.22,29.22,0,0,1,1.28-3.48,11,11,0,0,1,.59-1.09,3.15,3.15,0,0,1,1.45-1.28,1.53,1.53,0,0,1,.47-.11,1.16,1.16,0,0,1,.49,0,2.11,2.11,0,0,1,.91.42,3,3,0,0,1,.67.85,5.05,5.05,0,0,1,.24.53c.06.16.1.26.14.39a14.66,14.66,0,0,1,.53,2.93l.06.75,0,.68c0,.11,0,.22,0,.33l.19,0,.13,0a3.81,3.81,0,0,1,.59-.08,8,8,0,0,1,2.57.1,5.48,5.48,0,0,1,2.55,1.31,6.28,6.28,0,0,1,1.57,2.43,13.43,13.43,0,0,1,.64,5.42,24.7,24.7,0,0,1-1,5.39l0-.32c0-.06-.09.61,0,.33h0v.07l0,.1-.06.2-.13.39c-.08.26-.19.52-.28.78-.19.51-.4,1-.63,1.52a28.7,28.7,0,0,1-1.52,2.91,34.49,34.49,0,0,1-3.78,5.13c-2.83,3-5.48,5.65-7.81,8-4.65,4.7-8,7.92-8.28,8.21C262.61,218.85,261.56,219.64,259.91,220.94Z"/><path class="cls-1" d="M284.75,193.45,296,228.05c6.95-4.13,15.78-13.83,23.63-22.45-4.71-2.61-7-9.27-7.77-12.15-8.5,5.78-18.5,13.62-18.5,13.62-6.75-46.86-22.76-65.34-22.76-65.34-6.33,9-20.91,9.64-28.72,7.61-13-3.38-23.1,2.14-25.94,6.67a160.22,160.22,0,0,0-10.18,18.57l66.13-20.88L280,176.83S291.61,176.73,284.75,193.45Z"/><path class="cls-1" d="M222.22,149.41a28.8,28.8,0,0,1,14.55-2.24c.62,0,1.22.16,1.83.23a18.23,18.23,0,0,1,1.82.33l1.79.4c.56.12,1.1.27,1.66.37a35.29,35.29,0,0,0,6.82.57,29.86,29.86,0,0,0,13.18-3l1.43-.86a16.61,16.61,0,0,0,1.35-1,10.73,10.73,0,0,0,1.23-1.1c.21-.21.38-.35.62-.61l.94-1.13.93-1.12c.08-.07.15-.22.23-.24l.25.3.48.59c.33.4.65.79,1,1.22l.68.94c.69,1,1.35,2,2,3A113.85,113.85,0,0,1,284,164.93a175.43,175.43,0,0,1,6.23,20.75l1.21,5.28,1,5.32c.36,1.76.64,3.55.91,5.33l.59,3.81,3.38-2.55,4.63-3.44,4.67-3.37L309,194.4l1.45-1c.61-.41,1.23-.85,1.83-1.24.25.87.5,1.81.76,2.6.15.47.22.65.32.94s.2.53.3.8a23.82,23.82,0,0,0,1.43,3.07,16.55,16.55,0,0,0,2.21,3.18,10.66,10.66,0,0,0,1.37,1.32c.32.26.84.59,1.23.86l.64.42.16.1c.07,0-.05.08-.07.13l-.24.26-6,6.53c-3.69,4-7.44,7.88-11.51,11.46-1.3,1.16-2.66,2.25-4.08,3.3l-.53.38c-.15.1-.42.3-.71.49l-1.7,1.08-.21.14-.11.06-.05,0,0-.06-.16-.48-.32-.95-.56-1.71-3.24-9.84c-2.14-6.56-4.26-13.14-6.27-19.72-2.52-8.22,2.81,1.51,7.73,16.61l4.1,12.62h0l.36-.26c.52-.35,1-.73,1.52-1.12,1-.77,2-1.59,2.95-2.43,1.92-1.68,3.78-3.46,5.61-5.29s3.63-3.7,5.41-5.59l4.69-5.06.18-.19,0,0-.39-.31-.8-.74a18.07,18.07,0,0,1-2.57-3.38,26.43,26.43,0,0,1-1.82-3.7c-.25-.61-.51-1.33-.69-1.86a2.33,2.33,0,0,1-.08-.3.83.83,0,0,0-.13.07l-.09.06-.56.39-2.25,1.56-4.46,3.19-4.44,3.25L297,205.7l-3.11,2.37-1.32,1c-.41-2.67-.83-5.34-1.25-8-.29-2.08-.71-4.14-1.11-6.21s-.79-4.14-1.3-6.2-.92-4.14-1.51-6.19A157.67,157.67,0,0,0,279,158.4a96.4,96.4,0,0,0-6.63-12.51l-1-1.46-.67-.93-.2-.26c-.08.08-.17.2-.25.3a6.21,6.21,0,0,1-.8.86,19.68,19.68,0,0,1-6.17,4.19A33.67,33.67,0,0,1,249,151.13a34.45,34.45,0,0,1-7.27-1,35.09,35.09,0,0,0-6.89-1,27.19,27.19,0,0,0-8.47,1,23.26,23.26,0,0,0-4,1.53A19.42,19.42,0,0,0,218.8,154a14.48,14.48,0,0,0-1.49,1.44,12.6,12.6,0,0,0-1.2,1.71q-1.17,1.86-2.29,3.74c-1.5,2.52-2.95,5.06-4.32,7.64-.52,1-1,2-1.52,3l-.48,1-.37.8-.09.2c0,.06,0,0,.05,0l.1,0,.42-.13.85-.27,3-.93,12.75-4,25.38-8,22.77-7.33L278.57,170c.4,1.1.8,2.19,1.19,3.28l.6,1.64.28.77a1.69,1.69,0,0,0,.11.27h.17l.26,0a8.08,8.08,0,0,1,1.06.24,7.63,7.63,0,0,1,3.68,2.29,7.5,7.5,0,0,1,1.64,3.24,10.17,10.17,0,0,1,.25,2.86c0,.42,0,.82-.06,1.21s-.13.72-.19,1.05a15.33,15.33,0,0,1-.92,3.13,9.78,9.78,0,0,1-1,1.93c-.32.47-.68,1.1-.91,1.35-.39.42-.28-.48.25-2.4a13.12,13.12,0,0,0,.38-1.65,15.64,15.64,0,0,0,.38-2,14.91,14.91,0,0,0,.19-2.38,9.62,9.62,0,0,0-.29-2.59,5.34,5.34,0,0,0-2-3.07c-.24-.18-.53-.32-.79-.49a8.83,8.83,0,0,0-.9-.35,5.86,5.86,0,0,0-.94-.23l-.24,0-.48,0-1,0q-4-11.05-8.21-22.55l-18.62,6-20.13,6.38-13.66,4.31-6.84,2.15-4.41,1.39-3.33,1-.82.25c-.12.06,0,0,0-.11l.08-.2.18-.4.72-1.6c.49-1.06.94-2.11,1.46-3.17l.92-1.85c.55-1.08,1.11-2.15,1.69-3.21,1.15-2.13,2.35-4.22,3.58-6.29l1.87-3.09.95-1.53a12,12,0,0,1,1.23-1.61,19,19,0,0,1,6.31-4.41Z"/><path class="cls-1" d="M199.9,178l-1.06.26h-.25v.26l.13.53c.13.53.31,1.05.43,1.58l1.26,5.64c.2.84.45,1.66.72,2.46a13.12,13.12,0,0,1,.86,3.15c0,.7-2.15.51-2.51-.7a45.49,45.49,0,0,1-1.5-6.58c-.2-1.35-.68-2.67-1-4l-.66-2.62-.22-.87-.05-.21c0-.05.13-.05.19-.08l.44-.12,1.67-.47,2.7-.72c1.35-.38,2.73-.73,4.05-1.17,1-.34,2-.79,3-1.2.22-.09.43-.19.66-.27.83-.3,1.14-.24,1.49.25.08.11.17.22.24.33.21.4,0,.85-.61,1.17a31.31,31.31,0,0,1-5.59,2.17c-1.45.45-2.91.84-4.37,1.26Z"/><path class="cls-1" d="M335.42,177.36a2.54,2.54,0,0,0,.1-.37l0-.17v0a.26.26,0,0,0,0-.15.18.18,0,0,0-.15-.08l-.09,0a.67.67,0,0,0-.18.13,5.75,5.75,0,0,0-.8.88l-.32.4a4.72,4.72,0,0,0-.26.46q-.27.51-.51,1.05c-.32.72-.62,1.46-.88,2.2a12.09,12.09,0,0,0-.48,2,7.56,7.56,0,0,0-.05,1.24,2.9,2.9,0,0,0,.07.44s0,0,0,0h0l-.06.07s0,0,0,0,0-.07,0-.05a.72.72,0,0,1-.07.87.78.78,0,0,1-.45.18,1.07,1.07,0,0,1-.64-.23,1.55,1.55,0,0,1-.6-1.06,8.84,8.84,0,0,1,.45-3.12,17,17,0,0,1,1.09-2.69c.26-.52.49-1.06.74-1.61a4.41,4.41,0,0,1,.49-.88c.17-.24.36-.49.56-.73a5.52,5.52,0,0,1,.78-.74,2.49,2.49,0,0,1,1.31-.58,1.45,1.45,0,0,1,1.25.54,2,2,0,0,1,.36,1.35,8.19,8.19,0,0,1-.7,2.45c-.47,1.12-1.05,2.17-1.6,3.22l-1.21,2.45c-.09.18-.17.36-.28.54-.38.64-.64.8-1.08.67-.09,0-.24,0-.27-.13s0,.1,0,.05a.31.31,0,0,0-.1-.22c-.06-.08-.09,0-.12,0l0,0a.36.36,0,0,1,0-.11,1.06,1.06,0,0,1,.12-.61c.62-1.46,1.43-2.92,2.17-4.38a18.29,18.29,0,0,0,1.38-3.25Z"/><path class="cls-1" d="M338.22,179.88c.22-.66.22-.54.23-.7s-.17-.19-.3-.14a.35.35,0,0,0-.08.05,1.19,1.19,0,0,0-.23.16l-.48.39-.44.37a2.08,2.08,0,0,0-.31.33c-.24.29-.48.61-.71.93-.46.65-.9,1.32-1.3,2a10.06,10.06,0,0,0-.85,1.91,6.6,6.6,0,0,0-.25,1.2,3.75,3.75,0,0,0,0,.42v0a.41.41,0,0,0-.12.07l0,0s.06-.11,0-.07a1,1,0,0,1-.34.95.79.79,0,0,1-.51.1,1.21,1.21,0,0,1-.63-.35,1.64,1.64,0,0,1-.46-1.22,8.64,8.64,0,0,1,1-3.09,15.93,15.93,0,0,1,1.63-2.49c.37-.46.7-.95,1.07-1.46l.31-.4a2.23,2.23,0,0,1,.21-.22l.16-.16a7.65,7.65,0,0,1,.73-.62,5.09,5.09,0,0,1,.45-.31,4.34,4.34,0,0,1,.68-.35,2.06,2.06,0,0,1,1.42-.1,1.62,1.62,0,0,1,1,.93,2.57,2.57,0,0,1,.09,1.43,5.47,5.47,0,0,1-.41,1.31c-.17.39-.35.77-.54,1.13a28.19,28.19,0,0,1-2,3.07,24.2,24.2,0,0,1-1.76,2.26,5.43,5.43,0,0,1-.48.48c-.68.54-1.29.53-1.52,0a.93.93,0,0,1-.12-.34,3.14,3.14,0,0,1,.09-.51.74.74,0,0,1,.21-.41c.43-.44.92-1.06,1.4-1.67s1-1.27,1.42-1.94a15.43,15.43,0,0,0,1.69-3Z"/><path class="cls-1" d="M334.71,188.17c.06,0,0,.16.46,0,.14,0,.25-.15.39-.2a14,14,0,0,0,1.45-.61,2.68,2.68,0,0,0,.57-.41c.22-.21.39-.48.73-.52s1,1.33.69,1.57a4.49,4.49,0,0,1-1.75.9,5.69,5.69,0,0,0-1.08.53c-.2.09-.41.17-.63.25a5.94,5.94,0,0,1-.9.3,2.14,2.14,0,0,1-1,0,1.1,1.1,0,0,1-.85-1.05,3,3,0,0,1,.08-1.17,1.9,1.9,0,0,1,.09-.29c.19-.38.35-.41.72-.21l.26.14a1.43,1.43,0,0,1,.5.52c.18.25.31.14.3.15s0,.06,0,.07Z"/><path class="cls-1" d="M339.82,188.61c.34-.09,0-1-.05-1.52a12.53,12.53,0,0,1,.23-2.44c.08-.44.92-3.75,1.29-3.54,1.18.7-1,7.2-2,7.7-1.21.63.59.94,1.25.6,1.67-.87,2.37-4.17,2.72-5.8.4-1.87.39-4.5-2.3-3.59-2.23.76-2.85,3.49-3.13,5.54-.24,1.83-.45,4.72,2.22,4.06C341.31,189.31,341,188.3,339.82,188.61Z"/><path class="cls-1" d="M260.09,304.38a8,8,0,0,1,1.78,5.35c.25,6.23.58,12.46.92,18.68.31,5.36.52,10.72.93,16.08.68,9.21,1.58,18.4,2.62,27.58.31,2.71.6,5.42,1,8.12s.74,5.17,1.14,7.75a8.5,8.5,0,0,1,.19,1.3c0,1.11-.58,1.47-1.16.72-.13-.17-.33-.35-.36-.55-.32-2-1.34-3.5-1.59-5.63-.47-3.94-1.15-7.85-1.69-11.78-.2-1.57-.38-3.16-.52-4.74-.14-2-.29-4-.43-6.06-.22-2.76-1.49-15.74-2.19-28.22s-1-24.45-.92-25.06C259.79,306.93,259.94,306,260.09,304.38Z"/><path class="cls-1" d="M268.42,388.78c-.3.05-.59.1-.87.17s-.47.18-.71.27c-.48.17-.89.41-1.34.61l-2.65,1.27a58.27,58.27,0,0,1-5.64,2.3A46.5,46.5,0,0,1,244.67,396l-1.36.08c-.45,0-.91,0-1.36,0-.91,0-1.82,0-2.73-.09s-1.83-.11-2.73-.28l-1.73-.28-1.18-.19h-.07a.17.17,0,0,1,0-.07l0-.15,0-.3-.07-.59-1.15-11q-1.08-10.57-2.06-21.15c-1.3-14.1-2.47-28.22-3.4-42.36-.79-12.17-1.42-24.35-1.49-36.6,0-3.06,0-6.12.16-9.2.09-1.54.16-3.08.33-4.64a31.39,31.39,0,0,1,.76-4.73l.55-1.88,0-.13a.42.42,0,0,1,.13,0l.26-.06.53-.12,1-.21,2.23-.49,4.46-1,8.9-2c6.58-1.51,13.14-3.07,19.67-4.73,3.26-.84,6.51-1.7,9.73-2.65q2.41-.69,4.77-1.49c.76-.29,1.58-.53,2.29-.85l.82-.36a8.18,8.18,0,0,0,1.12-.6l2.12-1.24.6,7.45.4,5.32q.38,5.32.67,10.65c.41,7.1.72,14.19,1,21.28.62,14.18,1.41,28.34,2.78,42.42,1.24,12.26,3.16,24.46,5.6,36.55.58,2.9,1.21,5.79,1.86,8.67l1,4.31.25,1.08c.17.69.34,1.39.47,2.07a1.86,1.86,0,0,1,.08.5l-.48.2c-.32.14-.64.28-1,.4l-1,.39-.56.2A65.06,65.06,0,0,1,279,391.53c-1,.06-2.07.12-3.1.11H274.4l-1.48-.1c-.64-.06-1.23-.11-1.74-.18s-1-.19-1.36-.28a4.65,4.65,0,0,1-1.47-.52c-.44-.32.26-.58,2.14-.68.85,0,1.81-.21,2.73-.16a48.06,48.06,0,0,0,12.72-1.3c2-.44,4-1,6.1-1.64,1-.31,2.07-.67,3.12-1l.8-.29.4-.14.15-.06.17-.08c.07,0,0-.11,0-.16L295.3,379l-1.42-6.59q-1.38-6.6-2.58-13.25c-1.59-8.85-2.93-17.77-3.84-26.74-.7-7.17-1.23-14.35-1.63-21.53-.52-9.17-.76-18.34-1.13-27.49-.07-1.69-.19-4.22-.43-9.38-.15-2.58-.33-5.81-.57-9.92-.14-2.05-.29-4.32-.47-6.84-.09-1.26-.19-2.58-.29-4-.05-.64-.11-1.29-.16-2a2.45,2.45,0,0,0,0-.39,1.83,1.83,0,0,1-.34.18l-.48.2c-.18.08-.37.16-.55.22l-1.12.41c-.77.28-1.55.53-2.37.79s-1.64.52-2.5.77c-3.44,1-7.27,2-11.41,3.09-8.28,2.1-17.82,4.32-28.1,6.63l-3.89.87-2,.43-.64.14-.1,0,0,.1-.17.59a8.89,8.89,0,0,0-.18.95c-.11.64-.24,1.28-.3,1.95l-.21,2c0,.69-.08,1.37-.13,2.05-.31,5.5-.25,11.18-.12,16.91.3,11.46,1,23.15,1.74,34.53,1.57,22.75,3.53,44.27,5.1,60.39.2,2,.39,3.95.57,5.78.09.92.18,1.82.27,2.69l0,.35a1,1,0,0,0,.22.05,38.82,38.82,0,0,0,4.44.49c1.4,0,2.7.06,3.88,0a53.79,53.79,0,0,0,8.2-1.1c2.16-.42,4.29-.91,6.74-1.55l4-1.07c.72-.2,1.46-.41,2.28-.6.41-.09.81-.2,1.28-.26a6.85,6.85,0,0,1,.7-.11Z"/><path class="cls-1" d="M227.73,263.61c-.16-2.22-.75-6.65-1.16-10.56l56.61-17.87L284.74,249c-1,.35-14.11,4.28-14.13,4.3C256.3,257.68,245.69,259.65,227.73,263.61Z"/><path class="cls-1" d="M281,248.72l2.1-.61.17,0s0-.07,0-.11l-.41-4.06-.44-4.29-.22-2.15c-.05-.48,0-.42-.05-.52l0-.23-.22.06-.12,0-.48.15-2.17.66L271.6,240l-26.83,8.12c-4,1.21-7.93,2.49-11.85,3.76l-3.77,1.24-1.46.49c-.06,0-.15,0-.17.07l0,.2.07.6c.3,2.64.58,5.28.75,7.92.22,3.29-2.29-.72-3-6.73l-.3-2.72-.06-.51,0-.25c0-.07-.07-.2.05-.2l1-.3,1.59-.51,3.87-1.21,7.74-2.39q7.75-2.37,15.6-4.61c6.26-1.79,12.69-3.92,19.06-5.88L284,234l1.43,13.55.13,1.22.07.64,0,.17-.16.05-.31.09-2.05.61-3.22.95-6.45,1.9-2.5.75-.11,0c-5.72,1.71-11.51,3.22-17.26,4.61l-15.21,3.67L235,263c-4.18,1-5.54,1.1-6.56.74a3.76,3.76,0,0,1-.68-.25c-.49-.34,1.13-1.07,4.17-1.87,9-2.37,18.62-4.38,28.09-6.87q5.09-1.34,10.15-2.86L270,252,281,248.68Z"/><path class="cls-1" d="M264.93,241.3,252,245.44,247.3,247l-16.64,5.27c-2.45.79-4.91,1.64-7.32,2.49l-2.38.84-1.59-4.67c-.43-1.3-.83-2.6-1.16-3.93-.5-2,2.27-.16,3.46,3.44l.61,1.82.14.43h0l6.36-2c2.6-.82,5.21-1.61,7.85-2.38,3.89-1.13,7.86-2.56,11.8-3.85l13-4.21,8-2.59c4-1.33,8.1-2.63,12.09-4,3.1-1.07,6.09-2.24,9.13-3.37l2-.74c.74-.27,1.34-.46,1.83-.6l.18-.05h.48a1.4,1.4,0,0,1,.51-.44c.13-.08.27-.23.4-.31.32-.2.58.33.73,1.95-.27.12-.58.27-1,.42l-.95.39c-5.36,2.22-11.13,4.23-16.94,6.19l-13,4.31Z"/><path class="cls-1" d="M265,401.91l.45,4.75c.05.58.18,1.14.23,1.72q.27,3.06.55,6.12c.09.9.24,1.8.4,2.68a14.79,14.79,0,0,1,.47,3.45c0,.74-2.21.1-2.42-1.2a51.9,51.9,0,0,1-.67-7.08c0-1.43-.33-2.88-.49-4.33l-.5-4.79-.31-2.94c-.17-1.49-.31-3-.53-4.45-.17-1.14-.47-2.24-.7-3.36-.05-.25-.12-.49-.16-.74-.14-.94,0-1.26.52-1.52a3,3,0,0,1,.37-.16c.43-.13.83.21,1,.87a37.19,37.19,0,0,1,1.23,6.2c.22,1.58.39,3.18.58,4.77Z"/><line class="cls-2" x1="262.84" y1="464.62" x2="262.84" y2="464.61"/><path class="cls-1" d="M250.23,413l-.35-5c0-.61-.15-1.21-.19-1.82l-.39-6.43c-.07-.95-.2-1.91-.34-2.84a16.52,16.52,0,0,1-.38-3.63c.06-.77,2.22,0,2.4,1.4a55.78,55.78,0,0,1,.48,7.44c0,1.5.26,3,.39,4.57l.39,5,.25,3.09c.14,1.56.25,3.14.45,4.68.16,1.2.44,2.36.67,3.54,0,.26.12.51.16.78.14,1,0,1.3-.51,1.56a2.53,2.53,0,0,1-.37.18c-.43.14-.84-.22-1-.93a37.92,37.92,0,0,1-1.19-6.57c-.19-1.68-.33-3.36-.49-5Z"/><path class="cls-1" d="M276.09,409.68l.13-4.77c0-.58,0-1.16,0-1.74q.15-3.06.29-6.12c0-.91,0-1.82,0-2.72a14.83,14.83,0,0,1,0-3.46c.14-.72,2.21.19,2.23,1.52a54.23,54.23,0,0,1-.34,7.08c-.17,1.42-.06,2.89-.09,4.34l-.1,4.79,0,2.95c0,1.48,0,3,.07,4.45.07,1.15.27,2.26.42,3.39,0,.25.08.49.11.74.09.92,0,1.23-.6,1.46a2.54,2.54,0,0,1-.38.16c-.43.12-.82-.24-1-.92a30,30,0,0,1-.73-6.33c-.06-1.6,0-3.21-.06-4.81Z"/><path class="cls-1" d="M233.2,395c.93-.71,1.26-.8,1.59-.67,1.08.38,2.2.69,3.32,1,1,.25,1.94.57,2.94.76a45.12,45.12,0,0,0,5.22.66c.52,0,1,.1,1.55.11s1,0,1.5,0c.09,0,.18,0,.25,0s.25.64.08,1c0,.09-.08.23-.12.23-.39,0-.73.63-1.15.6-.77-.06-1.55.05-2.34.06a4.18,4.18,0,0,1-.93-.08c-.39-.07-.78-.19-1.17-.27s-3.08-.39-5.48-1a28.17,28.17,0,0,1-3.24-1,11.71,11.71,0,0,1-1.5-.7A2.67,2.67,0,0,1,233.2,395Z"/><path class="cls-1" d="M277.35,394.76c.29-1.17.75-1.46,1.24-1.57,1.63-.38,3.24-.79,4.85-1.23,1.38-.37,2.78-.7,4.14-1.15a48.39,48.39,0,0,0,6.8-2.86c.64-.34,1.27-.67,1.88-1.05a13,13,0,0,0,1.58-1.22c.08-.07.13-.17.24-.2.28-.08.69.23.77.65,0,.09.07.23,0,.27-.39.39-.39,1.17-.9,1.5-1,.61-1.83,1.28-2.77,1.86a10.89,10.89,0,0,1-1.19.58c-.52.21-1.06.37-1.59.56a72,72,0,0,1-7.34,2.56,47.81,47.81,0,0,1-6.74,1.45A6.22,6.22,0,0,1,277.35,394.76Z"/><path class="cls-1" d="M234.26,92.64a2,2,0,0,0-1.1,0,2,2,0,0,0-.35.28A4.09,4.09,0,0,0,231.5,95a7,7,0,0,0-.22,1.29c-.05.56-.11,1.13-.21,1.74,0,.19,0,.15-.06,0s-.35-.37-.57-.7a4.56,4.56,0,0,1-.57-3.86,6.44,6.44,0,0,1,1.22-2.5,3.54,3.54,0,0,1,1.48-.87A3.92,3.92,0,0,1,234.2,90a3.78,3.78,0,0,1,1.75.77,9.09,9.09,0,0,1,2.32,3.58,2.46,2.46,0,0,1,.09.39c.07.48,0,.67,0,.77a.11.11,0,0,0,0,.06,2,2,0,0,0-.38-.37,24.83,24.83,0,0,0-2.48-1.89,3.42,3.42,0,0,0-1.32-.63Z"/><path class="cls-1" d="M250.22,89.62c0-.07,0,0,0-.1s0,0,0,0-.22,0-.37.08-.18.18-.31.25a3.49,3.49,0,0,0-1.24,1.58,4.9,4.9,0,0,0-.26,1c-.09.45-.15.9-.27,1.4,0,.16,0,.13,0,0s-.35-.3-.53-.57a3.32,3.32,0,0,1-.48-3.23,6.74,6.74,0,0,1,1.05-2,3.44,3.44,0,0,1,1.1-.78,4.46,4.46,0,0,1,.73-.24,2.81,2.81,0,0,1,.82,0,2.86,2.86,0,0,1,1.49.81A6.9,6.9,0,0,1,253,89.52a4.76,4.76,0,0,1,.6,1.32,2.82,2.82,0,0,1,.07.31,2.62,2.62,0,0,1,0,.64s0,0,0,0a1.68,1.68,0,0,0-.34-.27,7.16,7.16,0,0,0-1.18-.75c-.37-.24-.75-.45-1.05-.66a3.1,3.1,0,0,0-1-.48Z"/><path class="cls-1" d="M234.75,84.82c.26,0,.33.28.24.77a1.6,1.6,0,0,1-.34.61,4.4,4.4,0,0,1-.42.18,9.87,9.87,0,0,0-1.36-.06,5.8,5.8,0,0,1-.93,0,7.71,7.71,0,0,0-1.86.07,1.86,1.86,0,0,1-.41,0,1.85,1.85,0,0,0-.71.05,2.06,2.06,0,0,0-.65.26c-.07,0-.15,0-.19.15a2.19,2.19,0,0,1-.57.44c-.25.21-.52.39-.58.44a3.55,3.55,0,0,0-1,.68s0,.11-.14.12-.26.15-.33.26-.17.33-.29.48a1.29,1.29,0,0,1-.31.21.49.49,0,0,1-.4-.09c-.07-.12-.22-.08-.35-.1a.24.24,0,0,1-.12,0,2.37,2.37,0,0,1-.1-.75,2.85,2.85,0,0,1,.1-.88s.06-.14.14-.33.24-.42.39-.67a9.29,9.29,0,0,1,.79-1,1.38,1.38,0,0,1,.33-.2,8.77,8.77,0,0,1,1.48-1.08,1.76,1.76,0,0,1,1-.26.26.26,0,0,0,.19,0,5.54,5.54,0,0,1,1.71-.26c.28,0,.57,0,.86-.06a.94.94,0,0,1,.16,0l.19,0a17.26,17.26,0,0,1,2,.22,8.93,8.93,0,0,1,1,.45C234.46,84.42,234.65,84.82,234.75,84.82Z"/><path class="cls-1" d="M244.43,83.9c0,.2-.22.19-.72.09a1.56,1.56,0,0,1-.62-.32,1.65,1.65,0,0,1-.15-.46,5.75,5.75,0,0,1,.65-1.52,3.09,3.09,0,0,1,.78-.87,7.62,7.62,0,0,1,2.07-1.2,1.61,1.61,0,0,1,.53-.1c.63,0,1.22-.09,1.82-.14a.54.54,0,0,0,.3-.06,2.24,2.24,0,0,1,1,0,3.38,3.38,0,0,1,1,.27,9.55,9.55,0,0,1,1.28.93c.06,0,.14.07.15.18s.16.3.28.4a1.9,1.9,0,0,1,.41.48.72.72,0,0,1,.06.37c0,.12-.23.3-.27.3s-.17.16-.25.25l-.09.1c-.07,0-1.1-.16-1.17-.17a4.4,4.4,0,0,0-.63-.24,3.24,3.24,0,0,0-.75-.13.66.66,0,0,1-.2-.11,4.11,4.11,0,0,0-1,.05c-.2,0-.38.07-.6-.08,0,0-.08,0-.12,0-.33.09-.67.12-1,.22a2.44,2.44,0,0,0-.48.25s-.07,0-.11,0-.09,0-.12,0a3.37,3.37,0,0,0-1,.84c0,.09-.52.32-.56.45S244.42,83.82,244.43,83.9Z"/><path class="cls-1" d="M250.15,103.53a11.39,11.39,0,0,0-1-2.4c-.14-.29-.36-.54-.53-.83-.6-1-1.31-2-2-3.08-.31-.47-.66-.92-1-1.39a4.29,4.29,0,0,1-1-2c0-.25.46-.35,1-.33s1,.1,1.18.4c.56,1.09,1.34,2.2,2,3.49.41.77,1.05,1.43,1.53,2.22a22.19,22.19,0,0,1,1.37,2.71,4.33,4.33,0,0,1,.35,2.09,2.61,2.61,0,0,1-.31.85l-.31.39a2.72,2.72,0,0,1-.38.29,2.05,2.05,0,0,1-.92.23,3.64,3.64,0,0,1-.83-.09,8.74,8.74,0,0,1-2.15-.84c-.14-.09-.29-.16-.43-.26-.5-.38-.56-.66-.28-1.08a3.06,3.06,0,0,1,.21-.29.81.81,0,0,1,1-.18c.49.23,1,.47,1.48.66a6.48,6.48,0,0,0,.67.22l.34,0h0s0,0,0,0a.37.37,0,0,1,.05-.11,1.08,1.08,0,0,0,0-.66Z"/><ellipse class="cls-1" cx="217.55" cy="112.98" rx="5.98" ry="7.26"/><path class="cls-1" d="M222.06,113.09c-.12,2.53-1.39,6.52-4.7,6.06-2.84-.39-4.29-3.77-4.32-6.29s1.51-6.5,4.7-6.06c2.91.4,4.2,3.77,4.32,6.29.07,1.49,3,1,2.93-.23-.2-4.14-2.71-8.27-7.31-8.17-4.43.09-7.53,4.19-7.57,8.4s2.77,8.15,7.12,8.17c4.63,0,7.56-4.12,7.76-8.4C225.06,111.38,222.12,111.82,222.06,113.09Z"/><path class="cls-1" d="M260.42,98.15c1.65,1.62,3.91,2.95,4.6,5.15s0,5-2.16,6Z"/><path class="cls-1" d="M259.08,98.73c1.34,1.26,3,2.35,4,4s1.22,4.85-.8,5.92l2,.26-2.43-11.1c-.23-1.07-3.14-.34-2.89.77l2.43,11.11c.16.75,1.62.48,2,.26a5.62,5.62,0,0,0,3.27-5.54c-.2-3.18-2.83-4.81-4.94-6.8C261,96.83,258.24,97.94,259.08,98.73Z"/><path class="cls-1" d="M177.85,168.81c1.07-.4,2.4.58,3,1.4.35.51,2.32-.36,2.17-.58-1.35-2-3.81-2-5.88-1.27-.21.08-.85.29-.65.59s1.21-.08,1.39-.14Z"/><path class="cls-1" d="M179.9,174.2c1.38-.46,3.14,1.23,3.83,2.25.57.86,2.64,0,2-1-1.26-1.87-3.91-3.61-6.22-2.84-1.31.44-.92,2,.41,1.56Z"/><path class="cls-1" d="M292.27,147.41a5.31,5.31,0,0,0-5.84,2.58c-.46,1,1.71.75,2,.07a2.17,2.17,0,0,1,2.48-1.43,1.81,1.81,0,0,0,1.53-.41c.32-.32.27-.72-.21-.81Z"/><path class="cls-1" d="M291.55,151.34c-2-.34-3.81,1-5,2.45a.65.65,0,0,0,.28,1.07,1.48,1.48,0,0,0,1.54-.41c.55-.65,1.49-1.68,2.45-1.51s2.19-1.34.74-1.6Z"/><path class="cls-1" d="M293.54,156.25a4.27,4.27,0,0,0-3.27.53,4.72,4.72,0,0,0-1.45,2.18c-.17.38.74.28.89.26.36-.06,1.09-.22,1.26-.62a6.79,6.79,0,0,1,.7-1.4c.06-.08.24-.24.2-.26s-.41.26-.48.14l.37,0a2.36,2.36,0,0,0,1.52-.26c.19-.09.76-.51.26-.62Z"/><path class="cls-3" d="M278.51,420.86c-3.16,1.25-8,.27-11.22-.67-3.76,3.12-10.66,3.09-15.2,2.41,1.69,16.95,3.9,36.75,5.9,48l7.08.22-2.23-6.17c.12.15,2.75,3.27,9.47,5.46,1.15.39,22.16,2.77,28.53,2.05,22.52-2.53-8.9-1.87-17.54-12.65C279.87,455.21,279.42,435.58,278.51,420.86Z"/><path class="cls-4" d="M277.55,423.28c0,.12,0,.24,0,.35.08.62.14,1.25.17,1.88.25,4.56.48,9.13.8,13.71A131.44,131.44,0,0,0,280.07,453c.09.57.2,1.14.34,1.72s.24,1.14.43,1.72a13.6,13.6,0,0,0,.59,1.73l.37.86.54.86a17,17,0,0,0,5.58,4.61,55.43,55.43,0,0,0,13.09,4.8c2,.51,5.35,1.32,4.6,1.15.15,0,0,.1-.09.1.38-.05-1.33.2-2.33.32s-2.29.3-3.35.36-2.22.07-3.35.05c-2.25-.05-4.52-.17-6.79-.33-4.54-.32-9.09-.76-13.6-1.3-1.11-.14-2.32-.28-3.29-.46a3.73,3.73,0,0,1-.72-.22l-.78-.27c-.52-.2-1-.4-1.54-.63a25.16,25.16,0,0,1-2.92-1.51,16.75,16.75,0,0,1-2.32-1.71c-.26-.24-.48-.42-.76-.71l-1-1.21L260,459.76l.58,1.69.58,1.61,1.24,3.44,1.17,3.23-3.39-.11-1.22,0h-.12s0,0,0,0l-.3-1.81c-.52-3.19-1-6.41-1.42-9.63-.86-6.44-1.61-12.9-2.33-19.37l-1-9.71-.5-4.85,0-.4s0,0,.05,0l.65.07c.42,0,.84.07,1.26.09a23.53,23.53,0,0,0,10.05-1.35c.4-.19.81-.36,1.2-.59l.58-.35a1.73,1.73,0,0,0,.28-.19l.17-.13s0,0,.07,0l.27.07,1.21.31a27.77,27.77,0,0,0,5,.74c.62,0,1.27.05,1.9.06a2.69,2.69,0,0,0,.4,0,3.4,3.4,0,0,0,1.74-.64c.4-.34.55-.69.44-1-.26-.56-1.24-.66-2.4-.57l-.32,0a9.33,9.33,0,0,1-1.76.07,24.57,24.57,0,0,1-3.77-.52c-.62-.13-1.25-.28-1.87-.45l-.68-.19-.42-.11a.8.8,0,0,0-.21-.05l-.19.14-.69.51c-.12.08-.23.17-.36.24a16.28,16.28,0,0,1-7.89,2,33.4,33.4,0,0,1-4.24-.16c-.1,0-.57-.06-.89-.11l-1-.13-.52-.07-.26,0c-.07,0,0,0,0,.08v.13l.1,1.05.29,2.84q.88,8.71,1.87,17.44c.66,5.81,1.36,11.61,2.16,17.41.41,2.9.83,5.8,1.32,8.7l.23,1.37.18,1v.06h1l2.54.08,5.88.18-1.42-3.91,0-.13a.39.39,0,0,1,0-.06l.05.05.1.08.58.37a27.21,27.21,0,0,0,3.17,1.64c.54.25,1.09.46,1.64.67l.83.3a5.9,5.9,0,0,0,.93.27c1.27.24,2.34.35,3.5.5,4.57.54,9.13,1,13.72,1.31,2.29.16,4.59.28,6.91.33,1.16,0,2.32,0,3.52-.06s2.31-.23,3.47-.37l1.72-.23,1.13-.18c.54-.09,1.08-.19,1.57-.31a4.43,4.43,0,0,0,.67-.21,1.89,1.89,0,0,0,.53-.24,1.56,1.56,0,0,0,.58-.56,1.21,1.21,0,0,0,.13-.34,1.37,1.37,0,0,0,0-.47,1.5,1.5,0,0,0-.38-.61,6.21,6.21,0,0,0-2.48-1c-1.22-.33-1.54-.39-2.14-.55l-3.32-.82a53.1,53.1,0,0,1-12.61-4.62,19.47,19.47,0,0,1-2.72-1.81,10.54,10.54,0,0,1-2.19-2.24l-.37-.59-.29-.73a10,10,0,0,1-.51-1.52,30.72,30.72,0,0,1-.73-3.25A134.21,134.21,0,0,1,280.58,439c-.32-4.55-.54-9.12-.8-13.69,0-.59,0-1.19,0-1.78,0-.12,0-.24,0-.37-.07-1.3-.62-2.33-1.23-2.29S277.48,422,277.55,423.28Z"/><path class="cls-1" d="M265.93,420.41a4.51,4.51,0,0,1,1.51,3.36c.32,4,.65,7.94,1,11.89.31,3.4.58,6.81,1.1,10.16.22,1.44.48,2.88.82,4.27.18.69.37,1.38.6,2a9.78,9.78,0,0,0,.39.92,3,3,0,0,0,.49.73,27.4,27.4,0,0,0,6.62,5.33,28.08,28.08,0,0,0,4.58,2.15,25.49,25.49,0,0,0,4.69,1.15,4.18,4.18,0,0,1,.8.13c.66.23.77.76.2,1a.9.9,0,0,1-.41.17c-1.28-.16-2.44.23-3.81-.14a34.56,34.56,0,0,1-7.24-2.9,20.89,20.89,0,0,1-2.62-1.74,27.94,27.94,0,0,1-2.95-2.7c-.17-.15-.4-.4-.69-.71a8.26,8.26,0,0,1-1-1.29,15.84,15.84,0,0,1-1.47-4.27,97.24,97.24,0,0,1-1.67-11.32c-.81-8-1.12-15.59-1.12-16A22.12,22.12,0,0,1,265.93,420.41Z"/><path class="cls-1" d="M251.19,115.83a4.11,4.11,0,0,1-2.15.26,4.54,4.54,0,0,1-.74-.1,5.48,5.48,0,0,1-2-1.38c-.24-.23-.46-.45-.68-.68a3.09,3.09,0,0,1-.62-1c0-.12-.07-.07,0,0s.39,0,.64,0a3.82,3.82,0,0,1,2.07.44.88.88,0,0,0,.51.18c.18,0,.35,0,.51,0a3.78,3.78,0,0,0,1.07.08,2.26,2.26,0,0,0,.7-.15,2.64,2.64,0,0,0,1-.66c.22-.25.36-.53.6-.8l.15-.18c.19-.24.35-.3.38-.36a.08.08,0,0,0,0,0,1.74,1.74,0,0,0,.1.36,6.57,6.57,0,0,1,.22,1.27,3.05,3.05,0,0,1-.31,1.34,3.43,3.43,0,0,1-1.53,1.53Z"/></g></svg>