<svg id="Layer_1" data-name="Layer 1" xmlns="http://www.w3.org/2000/svg" width="520" height="520" viewBox="0 0 520 520"><defs><style>.cls-1{fill:#221f1f;}.cls-2{fill:#231f20;}</style></defs><title>Notioly v2</title><g id="_42.Waiter" data-name="42.Waiter"><path class="cls-1" d="M169.62,309.37a32.93,32.93,0,0,1-2.65,2.34c-.32.27-.49.65-.83.89-1.19.82-2.47,1.48-3.65,2.18a4.65,4.65,0,0,0-1.26,1.24c-.46.61-.7,1.48-1.74,1.4-.64,0-4.57-5.44-4-6a6.9,6.9,0,0,1,3.87-2.05c1-.18,1.38-1,2-1.55s1.46-1.15,2.14-1.77a11,11,0,0,0,1.16-1.21,5.71,5.71,0,0,0,1.25-2.09,3.33,3.33,0,0,0-.42-1.84c0-.12-.14-.25-.18-.36-.09-.4.38-.48,2.23-.58l1.26-.07c1.42-.06,2.58.22,3,.85a5.83,5.83,0,0,1,0,5.53,14.84,14.84,0,0,1-2.08,3.22Z"/><path class="cls-1" d="M373.32,346.86c-.87-.26-1.73-.55-2.59-.84-.32-.11-.66-.06-1-.2a26.38,26.38,0,0,1-3.23-1.71,7.48,7.48,0,0,0-1.51-.62c-.67-.22-1.57-.31-1.8-1.24-.08-.28.85-1.29,1.8-2.24s1.85-1.88,2-1.8a6.53,6.53,0,0,1,2.12,1.83c.48.6,1.21.52,1.86.74s1.47.52,2.25.73a11.66,11.66,0,0,0,1.44.36,8.09,8.09,0,0,0,2.24.27,6,6,0,0,0,1.73-.64,3.26,3.26,0,0,1,.38-.18c.47-.09.62.27.74,1.68l.08,1a3.2,3.2,0,0,1-.48,2.32,4.56,4.56,0,0,1-3.44,1.06,20.12,20.12,0,0,1-2.64-.35Z"/><path class="cls-1" d="M380.07,437.92a47.91,47.91,0,0,1-9.72,2.87c-1.21.22-2.41.5-3.63.61a52.91,52.91,0,0,1-12.89-.24c-1.89-.27-3.78-.54-5.64-1a21.48,21.48,0,0,1-6.92-2.43c-.66-.4-.24-1,.61-1.31a4.88,4.88,0,0,1,3.31-.07A58.57,58.57,0,0,0,359,439.12a37.8,37.8,0,0,0,8.73-.5A47.71,47.71,0,0,0,377,436.3a38.19,38.19,0,0,0,5.4-2.48,28.18,28.18,0,0,0,7.06-5.48,22.64,22.64,0,0,0,3.75-5.66c.25-.43.39-.9.6-1.35a12.81,12.81,0,0,1,.93-1.74,1.47,1.47,0,0,1,1-.57,3.63,3.63,0,0,1,.56-.09c.58,0,.72.91.32,2.35a24,24,0,0,1-3,6.08,28.46,28.46,0,0,1-4.72,5.16A35.89,35.89,0,0,1,380.1,438Z"/><path class="cls-1" d="M402.29,443.29c-1,.08-2,.09-2.92.13s-1.95,0-2.92-.05c-.71-.05-1.41,0-2.12-.08A46.59,46.59,0,0,1,387,441.9c-.53-.15-1.06-.29-1.6-.42l-1.6-.44a9.38,9.38,0,0,1-3.94-1.82c-.36-.32.11-.84.77-1.22a2.5,2.5,0,0,1,2.1-.4,70.67,70.67,0,0,0,7.53,2.51,13.32,13.32,0,0,0,2.46.43c.83.08,1.68.13,2.51.17l1.39.08,1.39,0c.92,0,1.85,0,2.77-.06,1.15,0,2.28-.2,3.42-.31l2.56-.46c.85-.16,1.68-.42,2.51-.66a12,12,0,0,0,1.85-.76c.59-.29,1.19-.55,1.77-.87.25-.14.49-.3.75-.43,1-.48,1.36-.45,1.88.09a4.27,4.27,0,0,1,.36.38c.34.45.12,1-.58,1.53-.52.36-1.06.7-1.62,1s-1.17.56-1.77.82a26.31,26.31,0,0,1-3.76,1.25c-.95.26-1.93.41-2.9.61s-2,.25-2.94.39Z"/><path class="cls-1" d="M260.69,149.63c-.17-.29.06-.58.54-.82a1.1,1.1,0,0,1,.7,0,3,3,0,0,1,.37.43c.05.06.46,1.62.59,2.21a6.11,6.11,0,0,1,.14,1.73,6.76,6.76,0,0,1-.31,2,3.72,3.72,0,0,1-1.41,2,2.56,2.56,0,0,1-1.05.45l-.86.1c-.3,0-.61,0-.91-.06a8.84,8.84,0,0,1-.88-.25,8.27,8.27,0,0,1-.78-.43,2.13,2.13,0,0,0-.47-.31,3.92,3.92,0,0,1-1.13-1.26,6.57,6.57,0,0,1-.67-1.45c-.16-.78-.31-1.53-.39-2.28,0-.11-.06-.21,0-.32a1,1,0,0,0,0-.7,5.84,5.84,0,0,1-.08-.93,1.54,1.54,0,0,1,.15-.49c.05-.15.35-.13.39-.09s.24,0,.36-.06l.12,0a18.54,18.54,0,0,1,1,1.75s.05.17.13.4.18.52.3.82a9.74,9.74,0,0,0,.6,1.26,1.23,1.23,0,0,1,.12.37,4.39,4.39,0,0,0,.53.72,3.08,3.08,0,0,0,.55.45c.09.1.19.09.26.17a.37.37,0,0,1,.23.19.13.13,0,0,0,.12,0,3.42,3.42,0,0,0,.6-.08,1.08,1.08,0,0,0,.43-.21.63.63,0,0,0,.16-.24c.05-.08.08-.21.13-.32s.06-.07.08-.12a1.34,1.34,0,0,0,.07-.18,6.1,6.1,0,0,0,.06-2.31c0-.18.09-1.14,0-1.38S260.75,149.74,260.69,149.63Z"/><path class="cls-1" d="M240.28,153.76c-.22-.28-.05-.63.38-1a1,1,0,0,1,.69-.1,5.73,5.73,0,0,1,.45.39c0,.06.78,1.59,1,2.18a6.06,6.06,0,0,1,.53,1.81,5.78,5.78,0,0,1,0,2.26,4,4,0,0,1-.51,1.21,5,5,0,0,1-.73.9,2.85,2.85,0,0,1-.92.64,3.55,3.55,0,0,1-2.14.28,4.67,4.67,0,0,1-1.71-.79,2.39,2.39,0,0,0-.47-.31,5,5,0,0,1-1.18-1.2,9.06,9.06,0,0,1-.86-1.39c-.29-.78-.57-1.54-.8-2.31,0-.11-.11-.21-.07-.34a1.09,1.09,0,0,0-.12-.74,6.4,6.4,0,0,1-.25-1,1.75,1.75,0,0,1,.06-.55c0-.17.34-.18.38-.14s.23-.05.34-.1l.12-.05a20.81,20.81,0,0,1,1.29,1.7l.21.39c.12.23.29.53.46.83a13.32,13.32,0,0,0,.86,1.3,1.56,1.56,0,0,1,.2.41,7.09,7.09,0,0,0,.68.78,4.16,4.16,0,0,0,.71.59c.24.22.47.24.57.43,0,0,.06,0,.08,0a.84.84,0,0,0,.39-.12,2.27,2.27,0,0,0,.6-.49,1.29,1.29,0,0,0,.2-.3,1.5,1.5,0,0,0,.1-.32.75.75,0,0,1,.07-.12.55.55,0,0,0,.06-.18,5.64,5.64,0,0,0-.39-2.38c-.07-.18-.18-1.22-.29-1.47S240.37,153.87,240.28,153.76Z"/><path class="cls-1" d="M297.38,149.24a16.48,16.48,0,0,0,1.28-1.49l.59-.79.51-.84a10.15,10.15,0,0,0,.59-1.3,13.62,13.62,0,0,0,1.47-4.83,7.08,7.08,0,0,0-.23-2.21c-.22-.94-.75-1.68-.89-2.63,0-.3.62-.68,1.39-.78a1.85,1.85,0,0,1,2,.8,10.46,10.46,0,0,1,.09,7.27,37.52,37.52,0,0,1-1.38,4c-.34.7-.74,1.36-1.14,2s-.86,1.27-1.38,1.84l-.93,1.06-1,1a17.27,17.27,0,0,1-1.59,1.38c-.53.46-1.12.83-1.67,1.26-.22.16-.42.34-.63.51l-.64.49c-.43.32-.84.69-1.29,1-.2.12-.39.27-.6.38-.79.43-1.13.37-1.6-.28-.1-.15-.22-.29-.31-.44a1.21,1.21,0,0,1,.26-1.54,13.19,13.19,0,0,1,1-.84c.34-.29.69-.56,1-.82l.54-.37.52-.42,1.06-.79c.48-.44,1-.83,1.48-1.28a18.1,18.1,0,0,0,1.37-1.4Z"/><path class="cls-2" d="M302.36,138.13c-4-9.21-13.37-2.39-14.56.78-2.64-6.16-3.95-15.65-4.54-19-34,30.62-97,25.45-97.19-12.44-.24-39.46,52.55-42.73,92.34-18,0,0,24.14-18.07,36.49,4.33C325.75,113.59,312.41,129.74,302.36,138.13Z"/><path class="cls-1" d="M232.34,75.81c-9-.7-18.28,0-26.53,3.47A30.67,30.67,0,0,0,195,86.7a26.62,26.62,0,0,0-6.25,11.43,36.31,36.31,0,0,0-1.12,9.65,30.05,30.05,0,0,0,1.71,9.42,27.34,27.34,0,0,0,4.15,7.34,33,33,0,0,0,6.25,5.78c.59.41,1.21.77,1.82,1.16l.91.57c.31.18.64.34.95.51l1.93,1,2,.85c1.31.61,2.73,1,4.09,1.5s2.8.81,4.22,1.12a75.78,75.78,0,0,0,34.91-1,76.18,76.18,0,0,0,28-13.59l.62-.47.16-.12.22-.19.44-.37,1.76-1.5,1.77-1.5.45-.38s.08-.1.1-.06l0,.15.05.3.22,1.22.77,4.48q.28,1.56.6,3.12c.42,2.07.89,4.12,1.45,6.14l.43,1.5.27.82c.07.19.14.39.22.59l.12.29s.09-.16.14-.23a4.12,4.12,0,0,1,.47-.58l.41-.37.8-.61a13.35,13.35,0,0,1,3.66-1.88,8.43,8.43,0,0,1,4.3-.18,6.87,6.87,0,0,1,3.64,2.37c.32.45.61.84.81,1.19s.28.67.37.92c.16.51.17.78.07.86s-.34,0-.67-.3c-.16-.14-.34-.31-.54-.52l-.32-.33-.41-.33a5.5,5.5,0,0,0-5-1.52,9.22,9.22,0,0,0-3.3,1.51c-.27.22-.55.4-.81.63l-.4.34-.2.18-.34.37c-.24.26-.47.53-.72.79a2.13,2.13,0,0,0-.18.22l-.2.39-.41.77c-.53,1-1.17,2.26-1.8,3.51l-.39-.9-.51-1.24c-.34-.85-.69-1.7-1-2.56s-.56-1.49-.8-2.22l-.35-1-.19-.64c-.26-.86-.48-1.72-.69-2.58-.43-1.71-.8-3.43-1.13-5.15l-.47-2.58-.17-1h0l-.09.08-.37.31-.1.07a1.55,1.55,0,0,1-.25.2l-1.07.79-2.13,1.59c-1.48,1-2.94,2-4.46,2.88s-3,1.81-4.64,2.57l-2.37,1.2L264,134.48a82.93,82.93,0,0,1-20.3,5.9,77.75,77.75,0,0,1-21.17.57,66.55,66.55,0,0,1-12.58-2.68,45.26,45.26,0,0,1-11.8-5.7,31.58,31.58,0,0,1-9.18-9.62,29.19,29.19,0,0,1-4-12.65,37.78,37.78,0,0,1,1.56-14.37A30,30,0,0,1,194,83.57,36.21,36.21,0,0,1,206.3,76a53,53,0,0,1,14-3.08c11.69-1,23.4,1,34.42,4.51a116.36,116.36,0,0,1,12.48,4.93c2,1,4,1.94,6,3,1,.54,2,1,2.92,1.64l1.43.86.52.31a2.65,2.65,0,0,0,.39.23l.38-.26.52-.34c.46-.3.93-.59,1.41-.86.94-.56,1.9-1.08,2.89-1.56a38.15,38.15,0,0,1,6.1-2.42,24,24,0,0,1,13.09-.59,19.27,19.27,0,0,1,4.85,2.07,21.94,21.94,0,0,1,4.07,3.3,30.57,30.57,0,0,1,5.57,8.61,16.86,16.86,0,0,1,.95,2.38,24,24,0,0,1,.81,2.44l.57,2.52.14.63.07.64.13,1.29a15.94,15.94,0,0,1,.14,2.58c0,.87,0,1.73-.09,2.6l-.36,2.57a24.19,24.19,0,0,1-.58,2.52l-.28,1.11-.38,1.07c-.26.71-.5,1.42-.77,2.12a39.26,39.26,0,0,1-2,4,40.49,40.49,0,0,1-7.34,9.35,18.36,18.36,0,0,1-2.45,2,8.85,8.85,0,0,1-1.87,1,11.93,11.93,0,0,1-1.52.62c-.59.11-.12-.66,1.2-2.11s3.42-3.71,5.8-6.79a36.34,36.34,0,0,0,7.32-15.46l.29-2.12a19.15,19.15,0,0,0,.09-2.14,26.67,26.67,0,0,0-.26-4.28,30.2,30.2,0,0,0-2.64-8.25c-2.38-5.35-6.44-10-11.82-11.49A18.92,18.92,0,0,0,294,85a32.22,32.22,0,0,0-8.41,2.74c-1,.49-2.06,1-3.06,1.6-.5.29-1,.59-1.47.89l-.36.24-.65.44c-.48.32-1,.71-1.48,1.07l-3.74-2.23c-.85-.52-1.73-1-2.61-1.48s-1.75-1-2.64-1.42l-2.69-1.32a104.13,104.13,0,0,0-11.11-4.57,93.59,93.59,0,0,0-23.39-5Z"/><path class="cls-1" d="M278.66,201.37a21,21,0,0,1-5.46,2.29,26,26,0,0,1-2.87.57,22.74,22.74,0,0,1-3,.16,20.54,20.54,0,0,1-5.79-.91,25.85,25.85,0,0,1-2.72-1c-.87-.42-1.76-.78-2.58-1.27a37.55,37.55,0,0,1-6.76-4.69c-7.21-6.42-12.36-14.53-16.59-22.89-1.86-3.74-3.58-7.56-5.11-11.41A78.07,78.07,0,0,1,223.16,147c-.3-1.63.5-1.57,1.54-.39a18.14,18.14,0,0,1,3.2,6.28,124.89,124.89,0,0,0,12.86,29,53.09,53.09,0,0,0,12.91,14.31,32.7,32.7,0,0,0,4.42,2.82,23.91,23.91,0,0,0,4.82,1.9,18.19,18.19,0,0,0,5.08.63,19.53,19.53,0,0,0,5.07-.82,17.1,17.1,0,0,0,5.62-2.87,18.49,18.49,0,0,0,4.25-4.73,32.1,32.1,0,0,0,3.76-9.12,61.36,61.36,0,0,0,1.61-9.9c.45-5.18.3-10.3.39-15.52,0-1.15,0-2.29.11-3.46a13.64,13.64,0,0,1,1-4.72,2.58,2.58,0,0,1,1.85-1.65,1.28,1.28,0,0,1,.83.1.38.38,0,0,1,.12.42l-.18.61a15.9,15.9,0,0,0-.54,2.93c-.24,2.15-.23,4.48-.25,6.83s0,4.76-.06,7.19a92.28,92.28,0,0,1-1.37,14.85,40.64,40.64,0,0,1-3.56,10.91,25.47,25.47,0,0,1-3.31,4.93,20.78,20.78,0,0,1-4.6,3.91Z"/><path class="cls-1" d="M267.71,203.72c.79,0,15.7,0,19.55-17.4C298.37,207.2,273.32,211.76,267.71,203.72Z"/><path class="cls-1" d="M288.34,198.79a11,11,0,0,0,.36-4.63,6.84,6.84,0,0,0-.18-1.19,12.2,12.2,0,0,0-.26-1.2l-.35-1.18-.14-.43a2.41,2.41,0,0,0-.18-.43l-.1-.19s-.05.11-.07.14l-.14.35a1.8,1.8,0,0,1-.08.21l0,.08-.17.38-.68,1.6c-.25.53-.57,1-.85,1.53a22.58,22.58,0,0,1-2,2.89c-.36.46-.79.86-1.18,1.29l-.59.63-.67.57a21.3,21.3,0,0,1-5.14,3.39,16.66,16.66,0,0,1-7.62,1.87c-.83,0-.7-.6-.07-1.16a7.15,7.15,0,0,1,3-1.49A20,20,0,0,0,283,194c.43-.6.77-1.27,1.16-1.92a16.33,16.33,0,0,0,.92-2.09l.28-.7c.12-.33.21-.69.3-1l.56-1.84.56-1.84c.09-.29.18-.63.28-.88l.43.89c.63,1.29,1.24,2.57,1.76,3.86a19.29,19.29,0,0,1,1.06,3,17.2,17.2,0,0,1,.48,5.5l-.09.86-.19.84a13.87,13.87,0,0,1-.52,1.66,11.3,11.3,0,0,1-1.81,2.93,14.63,14.63,0,0,1-8.94,4.61,17.25,17.25,0,0,1-7.78-.41,10.19,10.19,0,0,1-1.65-.67,5.05,5.05,0,0,1-1.88-1.51,1.34,1.34,0,0,1-.28-1.16,1.55,1.55,0,0,1,.12-.46c.12-.2.39-.19.73,0s.76.44,1.32.79A12.24,12.24,0,0,0,275.7,206a16.44,16.44,0,0,0,6.29-1,10,10,0,0,0,6.3-6.25Z"/><path class="cls-1" d="M360.62,231.18c-9.4-5-19-9.62-28.78-14Q324.52,214,317.1,211q-3.71-1.52-7.43-3l-3.73-1.44-3-1.14c-.09,0-.16.07-.22.12a.52.52,0,0,0-.1.11l0,0-.06.09-.12.19a20.38,20.38,0,0,0-1.93,5.23c-.49,1.9-.88,3.86-1.25,5.83-.73,3.94-1.29,7.92-2.06,12-.13.66-.26,1.33-.42,2,0,.24-.21.92-.37,1.44a11.8,11.8,0,0,1-.56,1.55c-.25.41-.5.8-.76,1.19l-.22.3-.11.16s-.07.14-.13.08l-.63-.32a11.37,11.37,0,0,1-2.56-1.79,4.73,4.73,0,0,1-.61-.57l-.39-.41c-.24-.26-.49-.52-.7-.79-.44-.53-.91-1.06-1.31-1.61-.83-1.09-1.61-2.2-2.35-3.33-1.49-2.25-2.85-4.56-4.18-6.87L280,216.71a11.38,11.38,0,0,0-.64-1.1l-1.1,2.69c-.73,1.74-1.48,3.47-2.29,5.18s-1.63,3.42-2.55,5.09l-.34.63-.45.77c-.38.67-.77,1.29-1.18,1.88l-1.21,1.77-.63.89-.31.44-.16.22c-.05.07-.09.07-.14.11-.66-2.09-1.31-4.17-2-6.18l-1.31-3.82-1.07-2.94-.33-.8-.19-.4c-.07-.1-.15-.38-.19-.13l-1.74,4.65c-.9,2.37-1.84,4.73-2.77,7.09-4.74,11.76-9.83,23.45-15.38,34.75l-2.75,5.41-1.37,2.71-1.45,2.67-2.91,5.34-3.09,5.24c-.52.87-1,1.76-1.56,2.61L229.25,294c-1.12,1.7-2.18,3.43-3.36,5.08l-3.59,4.93-.91,1.22-1,1.17-2,2.34c-3.27,3.89-3.39,2.83-1.3-.93.53-.94,1.19-2.05,2-3.29s1.58-2.72,2.54-4.26c.47-.77,1-1.57,1.49-2.4s1.06-1.68,1.58-2.59c1.07-1.8,2.23-3.68,3.48-5.61a339,339,0,0,0,18.6-35.18c2.81-6,5.46-12.14,8-18.3,1.29-3.08,2.53-6.18,3.75-9.29l1.8-4.68,1.53-4.15,1.57-4.47a15,15,0,0,1,.79,1.37l.76,1.4.75,1.41c.24.5.48,1.06.72,1.59s.44,1.11.67,1.66l.33.84.18.5.68,1.91,1.27,3.78.24.89c.1,0,.24-.27.36-.42s.1-.16.16-.24l.1-.16c.09-.17.2-.34.29-.51.38-.7.77-1.39,1.13-2.11.74-1.42,1.43-2.88,2.11-4.35s1.32-3,2-4.5l.55-1.35.77-2c.5-1.34,1-2.69,1.51-4,.35.5.73,1.19,1.09,1.77l1.08,1.8,1.86,3.24c.84,1.48,1.68,3,2.55,4.41a78.68,78.68,0,0,0,5.61,8.4c.53.62,1,1.27,1.61,1.84l.25.26.15.14.32.26.17.12c.05,0,.09-.09.12-.14a2.58,2.58,0,0,0,.14-.39c0-.14.07-.24.11-.42.09-.4.18-.81.26-1.22.66-3.3,1.16-6.71,1.76-10.09.49-2.85,1-5.7,1.74-8.55a35.23,35.23,0,0,1,1.35-4.28,12.43,12.43,0,0,1,1.09-2.15l.17-.27c.06-.08.18-.21.27-.31a4,4,0,0,1,.6-.63,5.62,5.62,0,0,1,1.45-.85l3.53,1.3,2.91,1.11,5.81,2.29q5.78,2.31,11.52,4.76Q337.79,216.61,349,222a289.88,289.88,0,0,1,36,20.36A126.38,126.38,0,0,1,397.47,252,55.61,55.61,0,0,1,407.89,264a25.15,25.15,0,0,1,3.12,7.43c.15.67.24,1.35.33,2a17.82,17.82,0,0,1,.08,2.08,19.89,19.89,0,0,1-.74,4,108.68,108.68,0,0,1-5.78,14.56c-6.79,14.6-14.12,28.55-20.66,43-1.44,3.18-2.77,6.31-4.09,9.55a103.84,103.84,0,0,0-4.43,12.88,45.4,45.4,0,0,0-1.15,5.81,8.41,8.41,0,0,0,.08,1.87c0,.36-.15.37-.51,0a5.41,5.41,0,0,1-1-2.6c-.42-2.58.13-6.49,1.57-11.14a170.78,170.78,0,0,1,8.07-20.18c3-6.64,6.29-13.23,9.58-19.86s6.61-13.27,9.74-20c1.55-3.37,3.06-6.76,4.36-10.19a47.4,47.4,0,0,0,1.64-5.12,15.5,15.5,0,0,0,.43-2.44l0-.55c0-.19,0-.4,0-.6a8.54,8.54,0,0,0-.12-1.23,19.79,19.79,0,0,0-2.62-7.08,39.51,39.51,0,0,0-4.73-6.39,84.81,84.81,0,0,0-12.19-10.92,215.35,215.35,0,0,0-28.24-17.51Z"/><path class="cls-1" d="M233.68,332.67a25,25,0,0,1-11.41,4.39,46.84,46.84,0,0,1-11.89,0,72.3,72.3,0,0,1-8.45-1.41,139.49,139.49,0,0,1-28.05-10.33c-4-1.92-7.94-3.93-11.78-6.05A81.33,81.33,0,0,1,148,310c-1.34-1.17-.69-1.54.87-1.15a24.64,24.64,0,0,1,6.73,3.17c4.72,3.07,9.63,5.89,14.66,8.5s10.15,5.08,15.42,7.28a93,93,0,0,0,9.79,3.49,95.47,95.47,0,0,0,10.18,2.47,59.37,59.37,0,0,0,11.33,1.12,30.18,30.18,0,0,0,11-1.92,18.33,18.33,0,0,0,5.68-3.64,50.14,50.14,0,0,0,4.59-5.31c4.39-5.67,8.41-11.72,12.22-17.78,2.94-4.72,5.61-9.49,8.26-14.3l1.7-3.18c2.17-4,2.94-5.16,4-5.7a4.43,4.43,0,0,1,.73-.36c.68-.16.29,1.74-1.17,4.76A249.53,249.53,0,0,1,248.48,314c-2.16,3.24-4.35,6.47-6.7,9.63-1.19,1.57-2.38,3.14-3.67,4.66-.61.78-1.35,1.51-2,2.27a30.28,30.28,0,0,1-2.37,2.12Z"/><path class="cls-1" d="M160.63,298.83c-1.84-.72-3.68-1.42-5.5-2.18-.9-.35-1.86-.79-2.71-1.08a19.47,19.47,0,0,0-2.62-.83,31.06,31.06,0,0,0-11.14-.64,35.26,35.26,0,0,0-4.06.73c-.67.15-1.32.38-2,.56a16.07,16.07,0,0,0-2,.65l-1.71.63c-.57.22-1.1.51-1.65.75a28.22,28.22,0,0,0-3.2,1.73,13.61,13.61,0,0,0-1.51,1l-1.47,1.06c-.47.39-.91.8-1.36,1.2a13,13,0,0,0-1.32,1.25,24.49,24.49,0,0,0-2.32,2.77l-1.06,1.47-.87,1.59a8.59,8.59,0,0,0-1.21,3.2,22.35,22.35,0,0,0-.26,3.6,52.35,52.35,0,0,0,.44,6.59c.25,2.07.74,4.86.89,5.48l0,.15.07.32,0,.15s.1,0,.15,0a.83.83,0,0,0,.59-.28,2.4,2.4,0,0,0,.5-1.16c0-.08,0-.2,0-.29l-.09-.66-.19-1.47-.37-3,.14-2.54.19-2.45c.13-1.53.66-1.54,1.19-.54a9.24,9.24,0,0,1,.76,2.19q.17.72.3,1.56c0,.28.07.57.11.87s0,.3.05.46,0,.38,0,.33l0,0,0,.15.06.31c0,.21.08.42.13.63.08.43.15.87.2,1.33l.3,2.29,0,.43,0,.28-.06.29a11.38,11.38,0,0,1-.24,1.13,9.12,9.12,0,0,1-.82,2,4,4,0,0,1-2.63,2,3.38,3.38,0,0,1-1.64,0l-1-.32-.6-3c-.15-.88-.36-2-.41-2.4-.16-1.07-.32-2.15-.44-3.24a62.3,62.3,0,0,1-.48-6.59,20.63,20.63,0,0,1,.85-6.95,6.46,6.46,0,0,1,.37-.88l.41-.75.84-1.49a10.27,10.27,0,0,1,.94-1.42l1-1.37A35.25,35.25,0,0,1,133,292.55a37.74,37.74,0,0,1,12.11-1.19c1,0,2,.25,3,.36s2,.44,3,.66,2,.67,2.92,1l2.73,1.11q6.74,2.7,13.62,5.05c7,2.35,14,4.52,21.08,6.24a150.19,150.19,0,0,0,16.49,3c1.22.16,2.41.22,3.64.37,4.54.42,5.95.54,6.93,1.29a4.21,4.21,0,0,1,.65.5c.23.29-.13.53-1,.71a16.62,16.62,0,0,1-3.93.25A99.44,99.44,0,0,1,198.82,310c-5.19-1-10.38-2.25-15.53-3.7-7.66-2.13-15.21-4.68-22.68-7.44Z"/><path class="cls-1" d="M129.61,319.47l-.85.47-.74.48a7.57,7.57,0,0,0-.58.51c-.22.24-.44.48-.66.74-.87,1-1.69,2.12-2.56,3.25-.63.83-1.23,1.71-2,2.51-.32.36-.65.7-1,1-.18.17-.35.34-.54.49a6.54,6.54,0,0,1-.63.51,3.42,3.42,0,0,1-.94.51,2.06,2.06,0,0,1-1.63-.11,2.21,2.21,0,0,1-1-1,3.92,3.92,0,0,1-.3-.92,5.48,5.48,0,0,1-.07-1.74,12.62,12.62,0,0,1,.33-1.44,17.79,17.79,0,0,1,1-2.7,23.11,23.11,0,0,1,2.56-4.35,13.91,13.91,0,0,1,4.72-4.34c.59-.31.88.33.83,1.19a4.09,4.09,0,0,1-.33,1.36,3.29,3.29,0,0,1-.87,1.26,19.49,19.49,0,0,0-3.6,4.35,17.15,17.15,0,0,0-1.3,2.52c-.19.44-.36.88-.51,1.33-.07.22-.14.45-.2.67s-.13.51-.15.58a.65.65,0,0,0,0,.28c0,.12,0,.25,0,.36a1.89,1.89,0,0,0,.11.5s0,0-.14.13a.68.68,0,0,0-.22.23l0,.07a.25.25,0,0,0,0-.17,1.29,1.29,0,0,0-.08-.39l0,0,.08,0,.12-.1.13-.09.16-.15.32-.31c.21-.21.43-.42.63-.65.41-.44.8-.91,1.19-1.39.87-1.06,1.69-2.2,2.57-3.34.44-.56.89-1.14,1.37-1.69.25-.28.48-.55.76-.83a6.36,6.36,0,0,1,1-.8,36.13,36.13,0,0,1,4.75-2.55,52.36,52.36,0,0,0,6.85-3.73,17.7,17.7,0,0,0,4.12-4,6.63,6.63,0,0,0,.67-1,7.76,7.76,0,0,1,.55-.78,2.93,2.93,0,0,1,.39-.51,1.31,1.31,0,0,1,1-.36,3.41,3.41,0,0,1,.55,0c.58,0,.71.87.23,2.15a14.65,14.65,0,0,1-3.61,4.81,26.94,26.94,0,0,1-4.89,3.46c-2.52,1.47-5.2,2.61-7.57,3.89Z"/><path class="cls-1" d="M321.47,336.78c-13.19-12.47-36.26-103.94-36.26-103.94-2.2-1.38-5.21-8.92-5.21-8.92-.65,2.19-3.78,10.33-3.78,10.33s2.19,72.44,21.49,109.55c0,0,13.26,10.54,18.62,14.7C316.33,358.5,317.76,338.51,321.47,336.78Z"/><path class="cls-1" d="M278.73,280q-3-22.1-3.86-44.38l-.05-1.59,2.05-5.42c.21-.57.89-2.42,1.41-3.92l1.57-4.88c.92,2.24,1.83,4.63,2.79,6.64l.3.66.24.49.37.7c.24.46.49.91.76,1.35a11.43,11.43,0,0,0,.82,1.23,5.21,5.21,0,0,0,1.27,1.23l1.64,6.55,1.58,6.11L292.85,257c2.21,8.12,4.49,16.23,6.9,24.29s5,16.15,7.86,24c1.82,5.05,3.75,10.07,5.85,15,.52,1.24,1.06,2.46,1.62,3.68s1.12,2.42,1.7,3.62a48.6,48.6,0,0,0,3.91,6.83c.95,1.27,1.31,1.86,1.09,2s-1-.16-2.2-1.1c-2.34-1.88-5.53-6.36-8-12.1a323.72,323.72,0,0,1-11.27-31.2c-3.31-10.53-6.33-21.17-9.16-31.9-1.17-4.41-2.35-8.89-3.55-13.39s-2.3-8.79-3.46-13.2a.73.73,0,0,0-.09-.08.6.6,0,0,1-.15-.14,7.28,7.28,0,0,1-.54-.58,12.84,12.84,0,0,1-.86-1.16c-.51-.77-.95-1.56-1.37-2.35l-.42-.84-.18-.38c-.12-.25-.23-.51-.34-.78l-.25.69-2.48,6.51.17,4.24c.07,1.5.14,3,.24,4.49.15,3,.39,6,.59,9,.49,6,1,12,1.71,17.9.49,4.55,1.14,9.09,1.75,13.63s1.39,9.05,2.29,13.53c.33,1.7.62,3.41,1,5.11l1.12,5.08c.68,3.4,1.63,6.74,2.49,10.09.22.84.42,1.68.67,2.51l.77,2.47,1.55,4.95c.52,1.64,1.2,3.23,1.79,4.84l.91,2.41a24.66,24.66,0,0,0,1,2.37c.55,1.17,1.1,2.33,1.64,3.49l.83,1.74.39.83c.05.1.07.18.16.23l.29.22,6.1,4.71L311,353l3.05,2.34.82.63c.2.14.41.31.58.41l0-.39,0-.68,0-.47.08-.88c.11-1.16.23-2.32.39-3.5a46.3,46.3,0,0,1,1.92-9.21,7.58,7.58,0,0,1,2.3-3.71c.4-.29.94-.61,1.23-.55s.21.19.09.41a10.16,10.16,0,0,0-.59,1.28,39.59,39.59,0,0,0-1.6,6.76c-.36,2.12-.64,4.28-.87,6.48-.11,1.1-.21,2.21-.32,3.33-.18,1.86-.33,4.15-.47,6.33L297.57,346l-.56-.44-.49-.38c-.09-.08-.2-.13-.26-.23l-.15-.31-.69-1.47-1.25-2.64a53.92,53.92,0,0,1-2.33-5.36c-.7-1.82-1.39-3.64-2.09-5.47s-1.19-3.7-1.79-5.56c-2.31-7.17-4-14.52-5.56-21.86-1.43-7.38-2.74-14.79-3.73-22.22Z"/><path class="cls-1" d="M121.68,340.62H115v-7a3.36,3.36,0,0,1,3.36-3.36v1c1.86,0,3.36.51,3.36,2.36Z"/><path class="cls-1" d="M116.65,330.64l0-.36,1.65,1.65a1.81,1.81,0,0,0-1.9,1.25,1.45,1.45,0,0,0-.07.54,8.58,8.58,0,0,1,0,.88l-.2,3-.06.75,0,.38c0,.1,0,.11,0,.18l-.09.72H116a4.61,4.61,0,0,0,.65,0l1.24-.05a12.21,12.21,0,0,1,3.52,0c.73.18-.2,2.76-1.55,2.78-.82,0-1.64,0-2.46,0l-1.8-.06-2.33-.09.12-2.21.08-1.05,0-.25,0-.14,0-.28a40.63,40.63,0,0,0,.16-4.42v-.31l0-.41a4.33,4.33,0,0,1,.18-.81,4.45,4.45,0,0,1,3.46-3,5.45,5.45,0,0,1,.9-.06l1,0,0,1,0,1-.94-.93a8.39,8.39,0,0,1,1.46.17,4.35,4.35,0,0,1,1.33.5,2.79,2.79,0,0,1,1.07,1.18,3.43,3.43,0,0,1,.29,1.46v1.13c0,1.17.22,2.31.34,3.47,0,.25.07.5.08.75,0,.95-.13,1.26-.84,1.46a3,3,0,0,1-.49.13c-.55.1-1-.29-1.17-1a20.73,20.73,0,0,1-.45-3.16c0-.54-.06-1.08-.08-1.62v-1.2c0-.05,0-.12,0-.15s0-.1,0-.1,0,0-.13-.1a3.79,3.79,0,0,0-1.37-.25l-1.79,0,0-1.7,0-.64Z"/><path class="cls-1" d="M63.6,396.14l-.55-.23-.28-.13-.07,0s0,0,0-.07l0-.14.2-1.18c.06-.38.17-.79.27-1.2l.22-1,.6-2.56c.42-1.72.85-3.45,1.33-5.16a96.55,96.55,0,0,1,3.43-10.13,65.29,65.29,0,0,1,11-18.43,45.51,45.51,0,0,1,25-15.16,60.51,60.51,0,0,1,13.72-1.43A63.53,63.53,0,0,1,132.16,341,47.41,47.41,0,0,1,145,346a48.77,48.77,0,0,1,17.14,17.14,70,70,0,0,1,6.49,14.1,101.49,101.49,0,0,1,3.67,15c.61,3.05-.21,2.88-1.54.4A89.45,89.45,0,0,1,166.11,380c-.76-2.43-1.61-4.82-2.6-7.15a60.06,60.06,0,0,0-3.3-6.8c-.59-1.11-1.29-2.16-1.94-3.23s-1.4-2.08-2.18-3.05a45.59,45.59,0,0,0-5-5.57,42,42,0,0,0-12.49-8.13,51.51,51.51,0,0,0-14.69-3.67,54.39,54.39,0,0,0-18.53,1.07,43.85,43.85,0,0,0-4.51,1.3c-.74.24-1.46.56-2.19.84l-1.09.44-1,.51a41.55,41.55,0,0,0-8,4.88,51.07,51.07,0,0,0-13.21,15.69,84.18,84.18,0,0,0-7.58,19.39c-.56,2.09-1.05,4.18-1.54,6.3l-.22.91,0,.18c0,.06.09.07.14.1l.36.13.4.13c.25.08.5.16.75.22l1.54.4a96.65,96.65,0,0,0,12.74,1.92c3.25.34,6.53.5,9.8.71l4.92.16c1.64.07,3.28.11,4.92.11,3.29,0,6.57.07,9.84,0s6.54-.1,9.8-.28l7.56-.36,7.5-.55c5-.33,10-.84,14.94-1.3,2.2-.21,4.35-.4,6.56-.65,8.21-.84,10.84-.89,12.68-.28a6.59,6.59,0,0,1,1.22.42c.85.52-2.45,1.34-8.46,2.1a495.14,495.14,0,0,1-55.86,3.85c-7.09,0-14.2-.08-21.33-.61-3.56-.26-7.13-.62-10.69-1.1-1.78-.3-3.56-.53-5.35-.94l-1.33-.27-1.35-.34c-.45-.12-.88-.23-1.36-.39a16.57,16.57,0,0,1-2.37-.87Z"/><path class="cls-1" d="M174.67,386.56l104.24-.8,165.86-1.26,37.7-.29c3.37,0,4.4-4.45.47-4.42l-104.24.79-165.86,1.26-37.7.29c-3.37,0-4.4,4.46-.47,4.43Z"/><path class="cls-1" d="M37.08,386.88l25.15-.21c2.43,0,3.38-3.07.42-3.05l-25.15.21c-2.43,0-3.38,3.07-.42,3.05Z"/><path class="cls-1" d="M352.7,336.73q-2.86-9.21-5.61-18.47c-.67-2.25-1.41-4.48-2-6.74q-3.39-11.94-6.2-24.06c-.79-3.59-1.66-7.19-2.34-10.79-.46-2.31-.89-4.64-1.18-7-.14-1.18-.21-2.38-.26-3.58a22.36,22.36,0,0,1,.21-3.64c.22-1.53,1-1.15,1.59.11a8.94,8.94,0,0,1,.45,1.1,12.28,12.28,0,0,1,.48,1.38,19.7,19.7,0,0,1,.65,3.47c.47,4.6,1.36,9.24,2.3,13.87s2,9.29,3.09,14c1.27,5.6,3.08,11.3,4.74,16.93q2.74,9.3,5.63,18.56l3.6,11.39c1.86,5.74,3.7,11.51,5.63,17.18,1.5,4.41,3.12,8.67,4.63,13,.33,1,.68,1.9,1,2.87,1.15,3.64,1.23,4.92.66,5.89a2.79,2.79,0,0,1-.39.64c-.52.48-1.31-.88-2.23-3.46-2.8-7.67-5.68-15.85-8.42-24.11-2.06-6.14-4.05-12.32-6-18.5Z"/><path class="cls-1" d="M369.3,382.69c.76-1.26,1.26-1.45,1.77-1.43a41.82,41.82,0,0,0,5,0,21.55,21.55,0,0,0,4.18-.54,10.36,10.36,0,0,0,5.73-3.74,8.17,8.17,0,0,0,.56-.84,5.23,5.23,0,0,0,.47-.91,5.11,5.11,0,0,0,.32-.93,6.51,6.51,0,0,0,.23-1c0-.11,0-.23.08-.32.23-.24.86-.18,1.26.14.09.07.24.17.23.23-.11.55.54,1.24.28,1.85a17.27,17.27,0,0,1-1.51,3.32,5.57,5.57,0,0,1-1,1.13,12.7,12.7,0,0,1-1.54,1.1,16.59,16.59,0,0,1-2.8,1.5,18.78,18.78,0,0,1-5.1,1.24,27.15,27.15,0,0,1-7.24-.24A4.41,4.41,0,0,1,369.3,382.69Z"/><path class="cls-1" d="M374.78,304.64q4-9.86,8.29-19.6l1.5-3.52.76-1.76.35-.8.1-.21v0a1,1,0,0,0-.12-.17l-.32-.33c-.41-.32-.77-.66-1.23-1a31.87,31.87,0,0,0-2.77-1.76c-1.92-1.12-3.93-2.14-6-3.14-4.06-2-8.22-3.78-12.42-5.52-3.72-1.54-7.52-3-11.28-4.31-4.84-1.73-9.76-3.29-14.52-5.23-3-1.2,1.71-2.35,7.33-.38a285.55,285.55,0,0,1,29.4,11.95c2.45,1.2,4.95,2.41,7.43,3.73,1.24.67,2.48,1.38,3.7,2.16a20.89,20.89,0,0,1,1.79,1.31,9.49,9.49,0,0,1,1,.94c.34.44.69.92,1,1.38l-1.44,3.28q-4.31,9.78-8.39,19.65c-1.67,4.06-3.31,8.12-4.88,12.21-2.39,6.19-4.71,12.44-6.71,18.71a143.9,143.9,0,0,0-3.77,14.65c-.18,1.08-.39,2.15-.54,3.23s-.29,1.85-.38,2.54-.2,1.24-.28,1.71a4.6,4.6,0,0,1-.71,1.89,7.15,7.15,0,0,1-.46.62c-.27.23-.53-.07-.77-.86a7,7,0,0,1-.17-.69c0-.25-.06-.53-.08-.84a12.34,12.34,0,0,1,0-2.11,51.62,51.62,0,0,1,1-7c.45-2.31,1-4.62,1.64-6.92,1.24-4.6,2.72-9.19,4.3-13.74,2.35-6.77,4.93-13.47,7.58-20.12Z"/><path class="cls-1" d="M377.66,378.34a9,9,0,0,0,.27-1.12c.06-.22.12-.29.23-.35.67-.35,1.35-.78,2-1.2a19.57,19.57,0,0,0,1.75-1.08,11,11,0,0,0,2.38-2.53,4.43,4.43,0,0,0,.51-.86,4.29,4.29,0,0,0,.29-.9c0-.05,0-.11.05-.14a1.3,1.3,0,0,1,1,.24c.07.05.19.12.18.15-.07.26.45.71.31,1-.29.51-.41,1.11-.7,1.64a2.39,2.39,0,0,1-.42.58,7.68,7.68,0,0,1-.69.59,18.52,18.52,0,0,1-3.14,2.59,16.12,16.12,0,0,1-2.15,1.16,5.21,5.21,0,0,1-1.17.41.68.68,0,0,1-.27,0Z"/><path class="cls-1" d="M377.63,374.9c-.05-1.14,0-1.38.19-1.49a14,14,0,0,0,1.56-1.16,17.28,17.28,0,0,0,1.34-1.12,13.84,13.84,0,0,0,1.83-2.45c.14-.27.32-.52.44-.8a5.66,5.66,0,0,0,.28-.82c0-.05,0-.11.06-.13a1.48,1.48,0,0,1,.95.33c.07.05.18.13.17.15-.07.23.44.68.3.91a14.66,14.66,0,0,0-.52,1.41,2,2,0,0,1-.32.5c-.16.2-.38.36-.54.55a21.21,21.21,0,0,1-2.4,2.6,9.49,9.49,0,0,1-1.8,1.25,5.61,5.61,0,0,1-1,.43A1.71,1.71,0,0,1,377.63,374.9Z"/><path class="cls-1" d="M374.54,349.46a24.11,24.11,0,0,1-3.28-.92c-.39-.14-.79-.23-1.17-.38a23.69,23.69,0,0,1-3.72-2.18c-.51-.36-1.05-.69-1.59-1a4.42,4.42,0,0,1-1.84-1.62c-.12-.24.41-.68,1-1s1.28-.58,1.58-.35c1.07.87,2.2,1.72,3.35,2.69a7.82,7.82,0,0,0,2.44,1.15,18.63,18.63,0,0,0,2.86.9A16.05,16.05,0,0,0,376,347l1.42.1c.47,0,1,0,1.41-.07a10.57,10.57,0,0,0,2.09-.65c.15-.06.29-.14.44-.19.57-.17.79,0,1.1.62.07.15.15.3.21.45a1,1,0,0,1-.36,1.28,6.54,6.54,0,0,1-2.08.86,10.27,10.27,0,0,1-2.28.32,18.19,18.19,0,0,1-3.46-.22Z"/><path class="cls-1" d="M375.75,343.14l-1.94-.34-1.91-.48a11.6,11.6,0,0,1-1.4-.38,17.24,17.24,0,0,1-4.51-2.42c-.31-.21-.62-.43-.92-.67s-.62-.45-.91-.71a4.51,4.51,0,0,1-1.86-2.4c-.1-.41.6-.54,1.29-.66s1.41-.2,1.66.11a22.6,22.6,0,0,0,3.52,3.18,9.42,9.42,0,0,0,2.92,1.2c.55.21,1.15.3,1.72.47a13.51,13.51,0,0,0,1.77.35l1.11.19c.37,0,.74.06,1.12.09.57,0,1.13.09,1.71.11s1.14,0,1.71-.07a13.64,13.64,0,0,0,2.58-.55A4.94,4.94,0,0,1,384,340c.71-.13,1,0,1.21.72a3.75,3.75,0,0,1,.17.47,1,1,0,0,1-.61,1.24,12.6,12.6,0,0,1-2.45.73,24.62,24.62,0,0,1-2.6.23,16.11,16.11,0,0,1-2,0c-.66-.05-1.31-.05-2-.15Z"/><path class="cls-1" d="M163.35,307.9a23.86,23.86,0,0,1-2.66,2.66,12.25,12.25,0,0,1-1,.91,32.69,32.69,0,0,1-4,2.48,19.69,19.69,0,0,0-1.69,1.11,6.7,6.7,0,0,1-2.16,1.31c-.54.14-1.4-2.38-.55-2.95a30.34,30.34,0,0,1,4.52-2.42,11.42,11.42,0,0,0,2.48-1.79,22,22,0,0,0,2.42-2.31c.22-.26.46-.51.68-.78l.6-.84a12.07,12.07,0,0,0,1.49-2.76,4.72,4.72,0,0,0,.28-1.18c.06-.4.13-.79.16-1.19,0-.18,0-.36,0-.53.1-.64.32-.81,1.06-.81a4.13,4.13,0,0,1,.5,0,1,1,0,0,1,1,1,10.24,10.24,0,0,1,0,1.24,9,9,0,0,1-.22,1.24,12.72,12.72,0,0,1-.84,2.43c-.29.57-.61,1.13-.94,1.69s-.72,1.07-1.11,1.57Z"/><path class="cls-1" d="M171.45,310.82a23.94,23.94,0,0,1-2.65,2.94,12.16,12.16,0,0,1-1,1,26.16,26.16,0,0,1-4.16,2.7c-.64.34-1.25.74-1.86,1.11a7.2,7.2,0,0,1-2.44,1.23c-.57.11-1-2.28-.08-2.76,1.58-.86,3.13-1.63,4.75-2.39a11.72,11.72,0,0,0,2.56-1.95,20.48,20.48,0,0,0,2.44-2.57,16.12,16.12,0,0,0,2.7-4.82,13.93,13.93,0,0,0,.44-2.54,5.44,5.44,0,0,1,0-.57c.1-.69.3-.87,1-.92a3.39,3.39,0,0,1,.45,0,.9.9,0,0,1,.88.95c0,.42,0,.85,0,1.28a11.55,11.55,0,0,1-.21,1.29,14.72,14.72,0,0,1-.79,2.55c-.26.62-.58,1.21-.89,1.81s-.7,1.15-1.06,1.71Z"/><path class="cls-1" d="M279.45,345.55c-1-5-2-10-3.05-15-.38-1.81-.86-3.61-1.26-5.42-1.37-6.4-2.78-12.79-4.28-19.16-.68-2.83-1.44-5.65-2.22-8.42-1-3.56-2.18-7.1-2.87-10.74-.43-2.28,3.1-.23,4.25,3.91,2,7.3,3.81,14.67,5.27,22.18.87,4.49,2.12,9.08,3.14,13.64q1.67,7.53,3.2,15.09c.61,3.1,1.23,6.21,1.84,9.31.88,4.71,1.76,9.44,2.63,14.12.73,3.63,1.46,7.19,2.18,10.78.14.79.31,1.57.43,2.37.47,3,.4,4-.28,4.7a3.2,3.2,0,0,1-.48.49c-.56.36-1.22-.79-1.7-2.93-1.36-6.36-2.66-13.08-3.9-19.85-.49-2.51-1-5-1.46-7.55l-1.51-7.54Z"/><path class="cls-1" d="M351.54,440.1a33.21,33.21,0,0,1-10.61-2.57,10.59,10.59,0,0,1-4.67-3.78,5.52,5.52,0,0,1-.82-3.34,7.64,7.64,0,0,1,1-3,25.74,25.74,0,0,1,4.58-6.57,35.3,35.3,0,0,1,11.58-7.54,52.92,52.92,0,0,1,13.2-3.47,63.13,63.13,0,0,1,12.05-.5,40.45,40.45,0,0,1,7.7,1.14,17.55,17.55,0,0,1,7.13,3.55c1.25,1.27.46,1.49-.9,1.14-.71-.15-1.61-.37-2.64-.65s-2.23-.59-3.54-1a45.18,45.18,0,0,0-14.68-1.5,56.48,56.48,0,0,0-14.82,2.62,30.6,30.6,0,0,0-15,10.09l-.75,1-.66,1.05a21.11,21.11,0,0,0-1.19,2.19,3.2,3.2,0,0,0,.22,3.74,9.56,9.56,0,0,0,3.82,2.62,25.09,25.09,0,0,0,4.82,1.44,48.85,48.85,0,0,0,12.62.74,53.43,53.43,0,0,0,18.64-4.42,32.87,32.87,0,0,0,11.57-8.6c.69-.8,1.27-1.65,1.88-2.51,1.09-1.62,1.67-2.77,2.19-3.52a4.16,4.16,0,0,1,1.38-1.46,5.06,5.06,0,0,1,.66-.37c.63-.21.62,1.61-.75,4.48a28.75,28.75,0,0,1-9.39,10.67A44.34,44.34,0,0,1,373,438a59.54,59.54,0,0,1-21.46,2.15Z"/><path class="cls-1" d="M350.79,414.72c.12-.24.42-.13.79.21a1.88,1.88,0,0,1,.33.62c0,.16,0,.32-.08.45s-.64.82-.81,1.11a4.39,4.39,0,0,1-.58.78,13,13,0,0,0-1.17,1.63,1.54,1.54,0,0,1-.29.35,3.48,3.48,0,0,0-.83,1.31.38.38,0,0,0,0,.26,2.46,2.46,0,0,1-.23.81,5.8,5.8,0,0,1-.31.8,8.24,8.24,0,0,0-.64,1.21c0,.06,0,.13-.1.18s-.2.25-.23.38-.09.38-.16.57a1.29,1.29,0,0,1-.25.29c-.09.09-.38,0-.41,0s-.23,0-.36,0h-.13A3.1,3.1,0,0,1,345,425a3.65,3.65,0,0,1-.17-.81s0-.51.11-1,.17-1,.2-1.15a.8.8,0,0,1,.16-.3c0-.05.41-1.54.47-1.59.15-.27.21-.6.52-.79a.36.36,0,0,0,.11-.16,6.64,6.64,0,0,1,.89-1.34c.18-.22.3-.47.47-.69a.54.54,0,0,1,.12-.09.58.58,0,0,0,.14-.13c.38-.54.89-1,1.3-1.5.1-.12.78-.46.92-.58S350.75,414.8,350.79,414.72Z"/><path class="cls-1" d="M359.76,411.57c.14-.25.46-.15.85.18a1.42,1.42,0,0,1,.32.62,4.11,4.11,0,0,1-.11.47c-.05.05-.82.93-1,1.27a6.81,6.81,0,0,1-.74.87,16.27,16.27,0,0,0-1.46,1.83,2.57,2.57,0,0,1-.35.39,4.37,4.37,0,0,0-1,1.47.44.44,0,0,0-.08.3,3.92,3.92,0,0,1-.32.91c-.15.41-.33.81-.37.9a8.13,8.13,0,0,0-.7,1.38c0,.07,0,.15-.1.2s-.2.29-.24.45-.07.43-.14.65a1.42,1.42,0,0,1-.24.34c-.08.11-.38.07-.41,0s-.23,0-.35,0h-.13a2.85,2.85,0,0,1-.32-.78,4,4,0,0,1-.17-.93,11,11,0,0,1,.13-1.18c.1-.59.25-1.19.27-1.32a1.19,1.19,0,0,1,.19-.35c0-.06.57-1.73.63-1.78.2-.31.29-.68.63-.89a.36.36,0,0,0,.13-.17,8.82,8.82,0,0,1,1.09-1.48c.21-.23.37-.5.57-.74,0-.05.1-.07.14-.11a.76.76,0,0,0,.17-.13c.45-.59,1-1.05,1.53-1.62.11-.14.88-.52,1-.65S359.71,411.67,359.76,411.57Z"/><path class="cls-1" d="M367.54,411.49c.11-.22.39-.09.75.26a1.61,1.61,0,0,1,.33.61,4,4,0,0,1-.1.46c0,.07-.78.8-1,1.08a5.13,5.13,0,0,1-.72.68,13,13,0,0,0-1.41,1.36,1.29,1.29,0,0,1-.33.28,2.74,2.74,0,0,0-1,1.1.33.33,0,0,0-.08.24,2.1,2.1,0,0,1-.27.72c-.13.32-.28.64-.32.71a5.31,5.31,0,0,0-.6,1.1c0,.05,0,.12-.08.16s-.18.25-.21.38,0,.36-.1.55a1,1,0,0,1-.22.3c-.07.1-.37.09-.4.06s-.23,0-.36,0l-.12,0a2.33,2.33,0,0,1-.36-.66,2.5,2.5,0,0,1-.24-.81,5.82,5.82,0,0,1,.07-1.06c.06-.54.2-1.08.22-1.2a.81.81,0,0,1,.18-.31,11.88,11.88,0,0,1,.64-1.58c.19-.26.3-.59.64-.73a.44.44,0,0,0,.13-.14,5.67,5.67,0,0,1,1.11-1.18c.2-.18.37-.4.57-.58l.14-.07a.7.7,0,0,0,.16-.1c.46-.45,1-.76,1.47-1.21.11-.1.8-.32.93-.43S367.5,411.57,367.54,411.49Z"/><path class="cls-1" d="M419.09,433.07a10.73,10.73,0,0,1-3.47,4.94,15.52,15.52,0,0,1-5,2.63,25.48,25.48,0,0,1-3.87,1,47.53,47.53,0,0,1-13.59-.23c-2-.29-4-.59-5.91-1-2.49-.54-5.06-1-7.36-2.54-.73-.55-.16-1,.71-1.27a5.71,5.71,0,0,1,3.39,0,60.86,60.86,0,0,0,7.16,1.76c2.44.47,4.92.81,7.42,1.07a29.75,29.75,0,0,0,9.07-.65c3.19-.68,6.34-2.05,8.07-4.64a10.73,10.73,0,0,0,.68-1.24,4.61,4.61,0,0,0,.35-1.28,4.32,4.32,0,0,0-.52-2.56,9.84,9.84,0,0,0-3.06-3.18,21.2,21.2,0,0,0-4.12-2.22,36.18,36.18,0,0,0-7-1.91l-1.57-.27c-1.95-.37-2.55-.62-2.86-1.4a2.83,2.83,0,0,1-.21-.52c-.11-.57.79-.91,2.31-.79a35.54,35.54,0,0,1,6.85,1.28,29.91,29.91,0,0,1,6.77,2.82,14.74,14.74,0,0,1,4.49,3.78,8,8,0,0,1,1.44,3,6.83,6.83,0,0,1-.09,3.45Z"/><path class="cls-1" d="M403.55,422.11c-.16-.12.07-.26.53-.47a1.69,1.69,0,0,1,.68-.14,2,2,0,0,1,.39.24,7.22,7.22,0,0,1,.49,1.31,2.66,2.66,0,0,1,.08,1,9.85,9.85,0,0,1-.29,2,2,2,0,0,1-.2.42c-.14.23-.29.45-.41.68s-.22.47-.35.7a.38.38,0,0,0-.08.26c.08.21-.87,1.36-1.08,1.41a8.53,8.53,0,0,1-1.27.59c-.06,0-.1.08-.19.05a.47.47,0,0,0-.44,0,2.3,2.3,0,0,1-.53.14.77.77,0,0,1-.33-.1c-.1,0-.18-.33-.17-.37s-.08-.21-.14-.32l-.05-.12a5.36,5.36,0,0,1,.56-1l.44-.43a3.62,3.62,0,0,0,.41-.53c0-.06.12-.07.18-.1a5.54,5.54,0,0,0,.41-.85c.11-.14.12-.33.35-.43,0,0,0-.06.06-.09.11-.3.25-.6.38-.9a3,3,0,0,0,.09-.51s0-.05.05-.08a.67.67,0,0,0,.06-.12,4,4,0,0,0,0-1.24c0-.1.17-.58.12-.69S403.61,422.16,403.55,422.11Z"/><path class="cls-1" d="M409.41,424.26c-.14-.12.11-.23.59-.35a.85.85,0,0,1,1,.21,6.48,6.48,0,0,1,.35,1.15,2.11,2.11,0,0,1,0,.83,12.43,12.43,0,0,1-.29,1.67.88.88,0,0,1-.17.35,4.78,4.78,0,0,0-.59,1.2c0,.08-.07.14-.05.24a1.75,1.75,0,0,1-.3.7,3.72,3.72,0,0,1-.51.63,8,8,0,0,1-1.15.61c-.06,0-.09.08-.19.05s-.28,0-.39.05a2.17,2.17,0,0,1-.5.13.73.73,0,0,1-.31-.11c-.09,0-.17-.33-.16-.37s-.09-.22-.14-.33l-.05-.12c0-.09.36-.83.37-.88s.18-.17.32-.37a2.13,2.13,0,0,0,.27-.48c0-.05.08-.07.14-.1a4.93,4.93,0,0,0,.28-.76c.08-.14.07-.32.3-.4,0,0,0-.05,0-.09a5.55,5.55,0,0,1,.32-.82,2.21,2.21,0,0,0,.09-.46l.06-.07a.24.24,0,0,0,.05-.1,3.84,3.84,0,0,0,.11-1.12c0-.08.22-.49.19-.6S409.46,424.31,409.41,424.26Z"/><path class="cls-1" d="M388.26,447.78a182.26,182.26,0,0,1-20.11-.6c-2.44-.22-4.88-.39-7.3-.72a128.44,128.44,0,0,1-12.74-2.33A66.86,66.86,0,0,1,335.76,440a29.17,29.17,0,0,1-5.07-3,10,10,0,0,1-3.68-5,6.86,6.86,0,0,1,.13-4.16,4.36,4.36,0,0,1,.37-.95L328,426c.37-.54.72-1.12,1.13-1.62a21.75,21.75,0,0,1,5.72-4.89c1.32-.82,1.51-.11.86,1.17a17.66,17.66,0,0,1-1.51,2.27l-1.07,1.32c-.37.46-.82.89-1.2,1.38-1.47,1.64-2.52,3.53-2.25,5.17s1.63,3.31,3.47,4.59a31,31,0,0,0,6.17,3.28,70.55,70.55,0,0,0,6.88,2.37,103.43,103.43,0,0,0,17.75,3.15,174.48,174.48,0,0,0,19.93,1.05c4.09,0,8.2-.18,12.27-.55,6.15-.61,12.38-1.5,18.06-3.67a18.08,18.08,0,0,0,5.87-3.47,6.49,6.49,0,0,0,1.76-2.53,4.33,4.33,0,0,0,.21-.7l.09-.72a5.19,5.19,0,0,0-.18-1.45l-.17-.63-.29-.62a7.73,7.73,0,0,0-.67-1.22,9.1,9.1,0,0,0-.7-1l-.63-.84a14.26,14.26,0,0,1-1-1.26,3.54,3.54,0,0,1-.82-1.75,3.4,3.4,0,0,1-.08-.74c0-.34.43-.32,1.1,0a10.16,10.16,0,0,1,1.21.76c.44.37.94.83,1.48,1.36.38.42.75.87,1.12,1.31s.67,1,1,1.48a17.56,17.56,0,0,1,.81,1.69c.09.31.18.63.26.95a4,4,0,0,1,.18,1,7.4,7.4,0,0,1-.73,4.07,9.23,9.23,0,0,1-1.11,1.68,9.38,9.38,0,0,1-1.35,1.39,21.3,21.3,0,0,1-6.28,3.62,51,51,0,0,1-6.69,2.05,109.12,109.12,0,0,1-20.29,2.41Z"/><path class="cls-1" d="M132.11,401.07c-6.41.19-12.82.32-19.24.27-2.34,0-4.68.07-7,0-8.25-.2-16.48-.82-24.68-1.68l-5.47-.59-5.44-.67c-2.32-.27-4.63-.67-6.95-1a61.73,61.73,0,0,1-6.84-1.61C53.69,394.91,58,393,63.1,394c9.21,1.7,18.54,2.82,28,3.76,2.83.26,5.74.4,8.66.52l8.77.15c6.41,0,12.83,0,19.25-.17,4-.09,7.9-.3,11.84-.5l9-.59c3-.26,6-.5,8.92-.81,2.29-.26,4.56-.57,6.82-.88l6.76-1,3-.48c3.71-.55,4.92-.51,5.83.15a4.61,4.61,0,0,1,.61.46c.44.55-1,1.25-3.73,1.8a233,233,0,0,1-25.3,3.45c-6.43.59-12.91.95-19.37,1.27Z"/><path class="cls-1" d="M248.19,155.44a11.64,11.64,0,0,0-1.71-5.7,7.17,7.17,0,0,0-1.38-1.57,10.52,10.52,0,0,0-7.24-2.5,16.07,16.07,0,0,0-3.71.43c-.78.17-1.56.41-2.35.62a9.6,9.6,0,0,1-2.58.42c-.13,0-.45-.06-.5-.17a.5.5,0,0,1-.06-.4c.06-.28.28-.6.36-1a2.67,2.67,0,0,1,1.74-1.9,20.42,20.42,0,0,1,10.83-.31,18.83,18.83,0,0,1,3.27,1.23,10,10,0,0,1,2.89,2.14,13.79,13.79,0,0,1,3.13,6.81c.11.75.18,1.49.25,2.24s0,1.48,0,2.21a40.13,40.13,0,0,1-.93,6.53c-.33,1.66-.62,3.3-1,4.93-.1.36-.16.72-.29,1.07-.44,1.31-.83,1.65-1.65,1.6a2.63,2.63,0,0,1-.57-.05c-.6-.15-.83-.81-.65-1.76.56-2.81,1.31-5.65,1.78-8.52a25.59,25.59,0,0,0,.34-6.33Z"/><path class="cls-1" d="M253.46,142.24a.39.39,0,0,1-.44.2,1.12,1.12,0,0,1-.69-.39,2.17,2.17,0,0,1-.27-.83,1.06,1.06,0,0,0,0-.26,2.56,2.56,0,0,1,0-.27s.26-.32.59-.69.72-.8.93-1a6.2,6.2,0,0,1,1.37-1.06,17.8,17.8,0,0,1,3.21-1.6,4.15,4.15,0,0,1,.77-.2,8.28,8.28,0,0,0,1.35-.2c.44-.09.89-.17,1.32-.28a1,1,0,0,0,.43-.16,5.41,5.41,0,0,1,1.45-.27,8.34,8.34,0,0,1,1.52,0c.78.14,1.53.35,2.28.52.11,0,.23,0,.31.11a.89.89,0,0,0,.66.32,5.87,5.87,0,0,1,.93.28,1.71,1.71,0,0,1,.41.36c.12.12,0,.47-.08.51s-.07.28-.09.43a.78.78,0,0,1,0,.16,9.78,9.78,0,0,1-2,.45l-1.3,0a8.41,8.41,0,0,0-1.46.14,1.31,1.31,0,0,1-.43-.06,16.48,16.48,0,0,0-2,.41,2.59,2.59,0,0,1-1.18.09.36.36,0,0,0-.23,0c-.64.21-1.29.35-1.94.54a10,10,0,0,0-.94.43,1.29,1.29,0,0,1-.19,0,.88.88,0,0,0-.23.07,11.08,11.08,0,0,0-2.1,1.33c-.13.13-1.05.48-1.22.67S253.52,142.12,253.46,142.24Z"/><path class="cls-1" d="M259.08,185.73a5.38,5.38,0,0,1-1.82.35,4.5,4.5,0,0,1-.63.07,10.46,10.46,0,0,1-2.16-.67c-.29-.13-.58-.19-.86-.29a2.66,2.66,0,0,1-1-.65c-.09-.11-.09,0,0-.08s.29-.37.49-.56c.72-.75,1.3-1.16,1.93-1,.39.1.73-.18,1.08-.23s.8,0,1.2-.06a6.36,6.36,0,0,0,.75-.08l.56-.13a2.23,2.23,0,0,0,.51-.26c.15-.06.22-.19.32-.29a4.18,4.18,0,0,1,.38-.29,1.26,1.26,0,0,1,.17-.13,5,5,0,0,1,.51-.24l0,0s0,.09.13.38a5.72,5.72,0,0,1,.31,1.42,3,3,0,0,1-.36,1.45,3.54,3.54,0,0,1-1.47,1.45Z"/><path d="M298.54,255.53c.41,2.39-3.29,1.72-3.52-.68C294.75,252.09,298,252.58,298.54,255.53Z"/><path d="M301.6,268.22c.41,2.39-3.29,1.71-3.52-.69C297.81,264.77,301.09,265.27,301.6,268.22Z"/><path d="M306.46,281c.41,2.4-3.29,1.72-3.52-.68C302.67,277.6,306,278.1,306.46,281Z"/><path class="cls-1" d="M138.54,393.82c-2.67.17-5.33.27-8,.34-1,0-1.94.14-2.91.15-3.42,0-6.84-.05-10.25-.09-1.51,0-3,0-4.52.1l-2.87.18c-.93.05-2,.06-2.7,0-.4,0-.75-.64-.34-1.41a2.56,2.56,0,0,1,.45-.57,3.05,3.05,0,0,1,.58-.47,3.21,3.21,0,0,1,1.55-.51,111.44,111.44,0,0,1,11.85.19c2.36.15,4.82-.06,7.23-.12,2.65-.08,5.3-.18,7.95-.33,1.63-.11,3.26-.22,4.89-.37l3.69-.39c1.22-.15,2.44-.34,3.65-.54,1.88-.33,3.68-.88,5.49-1.36.4-.12.78-.26,1.18-.36,1.49-.39,2-.32,2.51.29a4,4,0,0,1,.33.42c.29.5-.23,1.09-1.32,1.5-.81.31-1.63.6-2.48.87s-1.71.45-2.58.66c-1.74.43-3.54.7-5.33,1-2.67.39-5.36.65-8,.87Z"/></g></svg>