<svg id="Layer_1" data-name="Layer 1" xmlns="http://www.w3.org/2000/svg" width="520" height="520" viewBox="0 0 520 520"><defs><style>.cls-1{fill:#221f1f;}.cls-2{fill:#231f20;}.cls-3{fill:#232020;}.cls-4{fill:none;stroke:#221f1f;stroke-miterlimit:10;stroke-width:1.34px;}</style></defs><title>Notioly v2</title><g id="_43.Teacher" data-name="43.Teacher"><path class="cls-1" d="M258.74,178.57a27.27,27.27,0,0,0,6.27-6c.48-.58-1.62-.33-2,.11a26.49,26.49,0,0,1-6,5.75c-.41.25-.2.46.15.55a2.34,2.34,0,0,0,1.53-.41Z"/><path class="cls-1" d="M120.45,262.46a21,21,0,0,1,9.45-1.73,274,274,0,0,0,32.21-2.37c4.6-.58,9.2-1.21,13.79-1.92l13.87-2.14c8-1,16.07-1.72,24.15-2a230.13,230.13,0,0,1,24.21.67c4.75.39,9.49.92,14.21,1.51,4.51.52,9,1.14,13.46,1.48.73,0,1.53.07,2.19.14,1.77.21,2.32,1,.91,1.65a2.85,2.85,0,0,1-1,.36c-3.53-.13-6.46.51-10.15,0-6.8-1-13.62-1.53-20.43-1.94l-4.09-.26-4.08-.23c-1.74-.13-3.48-.21-5.22-.28s-3.48-.18-5.23-.16c-2.38,0-9.19,0-18.05.79-2.22.14-4.55.46-7,.74-1.21.14-2.45.27-3.71.45l-3.81.59c-5.12.75-10.56,1.81-15.93,2.54s-10.72,1.42-15.72,1.93-9.67.81-13.7,1c-8.06.36-13.57.09-14.11.07A50.53,50.53,0,0,1,120.45,262.46Z"/><path class="cls-1" d="M171.2,73.62c2.36-1.66,5.09-2,7.79-2.06q13.51-.28,27-.35,11.6-.15,23.2-1c13.31-1,26.63-2.26,40.05-2.73q6-.18,11.91-.13c3.81,0,7.62.11,11.43.37a14.63,14.63,0,0,1,1.91.15c1.61.32,1.91,1.09.67,1.55a2.28,2.28,0,0,1-.9.27,21.56,21.56,0,0,0-4.13.19,21.33,21.33,0,0,1-4.23.26c-5.68-.25-11.37,0-17.06.33-2.27.14-4.55.22-6.83.31-2.91.11-5.83.17-8.74.33-2,.1-7.67.52-15.11,1.11s-16.63,1.32-25.68,1.63c-4.53.19-9,.14-13.16.16H176.3C174.87,74,173.46,73.83,171.2,73.62Z"/><polygon class="cls-1" points="243.13 276.57 280.48 441.11 273.87 440.44 243.33 293.09 243.13 276.57"/><path class="cls-1" d="M242.31,276.76c3,5.86,5,13.1,6.71,20.3q8.47,36.13,16.77,72.37,7,31.19,14,62.37l2.47,10.9-9.58-1-19.31-93.14-6.59-31.81-5-23.52-.12-7.35c0-1.75-.11-3.58-.07-5.22.14-4.43.87-5.46,1.47-2.21a13.8,13.8,0,0,1,.37,2.37c0,2.18.14,4.24.27,6.25s.3,3.93.45,5.9c.21.79.43,1.58.65,2.38s.44,1.67.66,2.53c.43,1.71.85,3.5,1.24,5.4,3.13,15.36,6.57,30.68,9.85,46,1.31,6.13,2.58,12.29,3.82,18.44q2.34,11.81,4.67,23.6c1,4.86,3.71,18,9.86,47.88l3.9.39C268.54,394.32,245.77,294,245,290.5,244.14,286.66,243.48,282.85,242.31,276.76Z"/><path class="cls-1" d="M185.73,274.42,155.07,451.6l-6.4-.12,30.64-177.1C182.72,274.83,183.58,274.39,185.73,274.42Z"/><path class="cls-1" d="M185,274.3c.19,7.08-.93,15.17-2.26,23.11q-6.66,39.81-13.5,79.66-6,34.23-12,68.49l-1.25,7.23-8.78-.17L165.72,346l6-34.82,5.65-33.35.82-4.9,2,.24.68.08.44,0c1.11.09,2,.07,2.76.11a4.26,4.26,0,0,1,1.51.25c.46.25-.21.46-1.95.83a9.11,9.11,0,0,1-2.59.32c-.66,0-1.07-.08-1.54-.13-.07.42-.11.75-.19,1.22s-.13,1-.2,1.44c-.13.95-.26,1.89-.38,2.82-.23,1.85-.46,3.69-.68,5.54-.46,3.71-.94,7.49-1.68,11.72-2.95,16.79-5.65,33.65-8.48,50.49q-1.69,10.1-3.49,20.19l-4.65,25.74c-1,5.71-3.81,21.93-9.84,56.62l4.25.08C163,399.56,181.42,293,182.07,289.23,182.84,285,183.72,280.92,185,274.3Z"/><path class="cls-1" d="M243.13,277.39,236.82,454.6h-6.06l6.48-177.31C237.53,277.3,239.4,277.29,243.13,277.39Z"/><path class="cls-1" d="M242.43,277.37c1.14,6.89,1.13,14.92.9,22.85q-1.2,39.73-2.56,79.52-1.28,34.2-2.54,68.42l-.28,7.61h-8.4l3.87-106.38q.65-17.38,1.27-34.77l1.1-33.29c0-.95.06-1.92.08-2.88,0-.47,0-.94,0-1.41l0-.7V276c0-.08.08,0,.12,0h.18l2.53.07c4.71.24,5.8.88,2.3,1.29a19,19,0,0,1-2.56.23h-1.06v.25c0,.46,0,.91,0,1.37,0,1,0,2,0,3,0,2,0,3.94.07,5.91.06,3.93.11,7.93-.07,12.47-.65,16.77-1.05,33.59-1.58,50.39-.21,6.71-.46,13.45-.74,20.16Q234.56,384,234,396.86c-.22,5.71-.82,21.91-2.12,56.67h3.92c1.81-50.8,5.6-157.4,5.73-161.2C241.71,288.13,242,284,242.43,277.37Z"/><polygon class="cls-1" points="233.83 360.73 233.65 366.06 177.07 361.82 178.04 357.87 233.83 360.73"/><path class="cls-1" d="M233,360.69a9.66,9.66,0,0,1,1.23,2.63c.07.22.13.45.18.68a5.8,5.8,0,0,1,.14.83c.07.72.11,1.54.13,2.38-.58,0-1.2,0-1.85,0l-1.51-.07q-13.22-.7-26.42-1.64c-7.57-.54-15.14-1.25-22.71-1.83l-6.86-.52,1.63-6.69L208,358l11.56.6,11.07.42a15.94,15.94,0,0,1,1.86.1c1.57.26,1.89,1,.7,1.53a2.27,2.27,0,0,1-.86.3c-2.86-.12-5.19.73-8.21.55-5.57-.34-11.17-.36-16.77-.55-2.23-.07-4.47-.19-6.7-.34l-8.55-.66-13-.72c0,.2-.2.79-.36,1.45l53.72,4v-.07l.07-.18a.29.29,0,0,0,0-.08l0-.28c0-.19.05-.38.07-.58C232.71,362.69,232.84,361.79,233,360.69Z"/><path class="cls-2" d="M351.78,103.81a2.53,2.53,0,0,1,.34,1.67c0,.21-.71,1.44-1.41.49a2.59,2.59,0,0,1-.39-1.75A.86.86,0,0,1,351.78,103.81Z"/><path class="cls-1" d="M351,105.08a1.67,1.67,0,0,0,.16.59.18.18,0,0,0,.09,0,.22.22,0,0,0,.23-.06,1.51,1.51,0,0,0,.17-.2s.05-.09.07-.21a1,1,0,0,0,0-.52,2.6,2.6,0,0,1-.25-.68c0-.18,1-.49,1.17-.13a2.48,2.48,0,0,1,.22,1.06,2.43,2.43,0,0,1-.08.54,1.3,1.3,0,0,1-.33.6,3.15,3.15,0,0,1-.59.52,1,1,0,0,1-.79.16,1.38,1.38,0,0,1-.71-.55,2.07,2.07,0,0,1-.29-.65,3.27,3.27,0,0,1-.09-.8c0-.21,0-.35,0-.59a1,1,0,0,1,.34-.65,1.49,1.49,0,0,1,1-.45.9.9,0,0,1,.28,0c.37.13.39.33.22.55l-.13.15a2.6,2.6,0,0,1-.41.25,1.43,1.43,0,0,0-.28.24h0v.31a2.06,2.06,0,0,0,0,.44Z"/><path class="cls-1" d="M337.89,104.71a2.53,2.53,0,0,1,.49,1.64c0,.21-.58,1.49-1.37.61a2.58,2.58,0,0,1-.53-1.71A.86.86,0,0,1,337.89,104.71Z"/><path class="cls-1" d="M337.26,106.05a1.74,1.74,0,0,0,.21.57s.06,0,.09,0a.21.21,0,0,0,.22-.09,1.06,1.06,0,0,0,.16-.21.39.39,0,0,0,.05-.21,1,1,0,0,0-.09-.52,2.3,2.3,0,0,1-.3-.65c0-.17.95-.58,1.15-.23a2.43,2.43,0,0,1,.31,1,1.94,1.94,0,0,1,0,.54,1.12,1.12,0,0,1-.28.62,3,3,0,0,1-.53.58,1,1,0,0,1-.78.22,1.31,1.31,0,0,1-.75-.48,2.09,2.09,0,0,1-.35-.63,3.19,3.19,0,0,1-.16-.78,5.62,5.62,0,0,1,0-.59,1,1,0,0,1,.29-.68,1.5,1.5,0,0,1,1-.54,1,1,0,0,1,.29,0c.37.11.41.3.26.53a1,1,0,0,1-.12.16,2.08,2.08,0,0,1-.38.29c-.13.1-.32.31-.26.26h0v.31a2.75,2.75,0,0,0,.06.44Z"/><path class="cls-1" d="M330.53,98a1.3,1.3,0,0,1-1.39-.13c-.16-.09-.28-.5-.16-.6a8,8,0,0,1,.73-.57c.08,0,.79-.33,1.62-.61s1.79-.52,2.28-.64a12.19,12.19,0,0,1,6.06.17,7,7,0,0,1,2.9,1.64,4.4,4.4,0,0,1,.94,1.17,10.19,10.19,0,0,1,1.37,4.67,4.1,4.1,0,0,0,.06.78,3,3,0,0,1,0,.91,9.88,9.88,0,0,1-.19,1.6,13.49,13.49,0,0,1-.66,2.49,30.61,30.61,0,0,1-1.73,3.49,1.49,1.49,0,0,1-.31.46,3.43,3.43,0,0,0-.7,1,12.7,12.7,0,0,1-1,1.35,4.74,4.74,0,0,1-.64.53c-.2.15-.33-.12-.31-.2.07-.24-.14-.16-.24-.21l-.1-.06s.33-.71.63-1.45.61-1.52.66-1.65l.31-.66c.17-.39.38-.91.58-1.45a19.92,19.92,0,0,0,.74-2.46,3.77,3.77,0,0,1,.23-.72,13.1,13.1,0,0,0,.25-1.77,12,12,0,0,0,0-1.75c0-.65-.15-1.27-.18-1.91a.91.91,0,0,0-.09-.36,5.82,5.82,0,0,0-1.81-2.5,5.14,5.14,0,0,0-1.48-.68,2.36,2.36,0,0,1-.28-.12,1.68,1.68,0,0,0-.38-.12,11.24,11.24,0,0,0-4.25,0,22.75,22.75,0,0,0-2.35.32A8.78,8.78,0,0,0,330.53,98Z"/><path class="cls-1" d="M360.86,130.73a2.19,2.19,0,0,1,.75,1.35,1.25,1.25,0,0,1-.31.91,14.25,14.25,0,0,1-4.58,3.7,19,19,0,0,1-4.74,1.67,15.82,15.82,0,0,1-8.68-.17,13.3,13.3,0,0,1-2.41-1.07c-.36-.21-.76-.37-1.11-.6l-1-.73c-.12-.09-.27-.14-.33-.27-.19-.34.19-.84.69-1,.11,0,.28-.13.33-.1.48.35,1.33,0,1.76.36a11.13,11.13,0,0,0,1.42.72c.51.17,1,.25,1.53.41s.82.16,1.22.3a8.3,8.3,0,0,0,1.58.39,4.44,4.44,0,0,0,1,.06,11.52,11.52,0,0,0,1.81-.13,16.34,16.34,0,0,0,4.72-1.36,17.84,17.84,0,0,0,4-2.4,13.39,13.39,0,0,0,1.53-1.48A7.72,7.72,0,0,1,360.86,130.73Z"/><path class="cls-1" d="M394.08,277.29a47.14,47.14,0,0,1-21.67.95c-1.82-7.62-4.62-25-4.72-25.63-2-14.47-7.58-91.24-7.87-97.24,0-.15-7.32,8.89-14.64,4.41.46,11.88.91,23.79,1.43,35.68q.83,18.85,2,37.67c.74,12.12,1,24.58,3.39,36.52.63,3.16,1.85,6.5,2.29,9.61-.68.19-6.62-2-21.24,2-1.58,20.92-2.47,42-4.32,62.82-.12,1.34,26.14,4.89,27.68,4.94,36.84,1.33,46.33-12.07,54.09-14C407.65,313,399.37,292.31,394.08,277.29ZM335,323.64a3.61,3.61,0,0,1-1.81-2.84,3.49,3.49,0,0,1,1.47-2.62c2.18-1.76,6-1.71,6.15,1.25C341.05,324,337,324.76,335,323.64Zm13-32.62a3.29,3.29,0,0,1-4.94.62c-1.91-1.71-1.86-5.08.79-5.67C348,285,348.69,289.75,347.94,291Zm8.16-103.87c3.4-1.91,5.48,2,5.39,3.06a3.11,3.11,0,0,1-1.54,2.23c-2.13,1.43-5.24,1.05-5.46-1.63A4,4,0,0,1,356.1,187.15Zm-6.78-11.48a4.4,4.4,0,0,1-2.08-3.23,3.06,3.06,0,0,1,2.42-3c2.18-.7,3.89,1.86,3.89,2.76C353.55,174.62,351.6,176.93,349.32,175.67ZM358,230.28c-2.35,1-4.68.41-4.89-2.27a4.56,4.56,0,0,1,1.61-3.67,3.14,3.14,0,0,1,4,.34C359.48,225.3,360.94,229,358,230.28Zm1.45,24.55c-.65-1.28.63-3,1.73-3.92a3.36,3.36,0,0,1,4.3.36,3.77,3.77,0,0,1,1.5,2.92C366.87,255.22,362.05,260,359.44,254.83Zm9.89,64.79a3.68,3.68,0,0,1-1.81-2.87A3.5,3.5,0,0,1,369,314.1c2.21-1.78,5.7-1.69,6.2,1.26C375.46,316.83,374.26,322.5,369.33,319.62Zm17.94-22.46c-1.95-2-2-5.41.84-6.1a4.93,4.93,0,0,1,4.17,1.1,3.42,3.42,0,0,1,.31,4.33C392.05,297.4,389.69,299.58,387.27,297.16ZM393.58,337c-2.14-1.4-2.91-4.48-.5-5.67a4.56,4.56,0,0,1,4,.13,3.16,3.16,0,0,1,1.17,3.83C397.92,336.27,396.79,339.13,393.58,337Z"/><path class="cls-1" d="M331.2,290.37l.56-7.69.1-1.32.07-.91c0-.1.1-.08.16-.11l.22-.06.44-.11,2.29-.59c1.27-.3,2.53-.61,3.82-.83a53.3,53.3,0,0,1,7.8-1,35.07,35.07,0,0,1,4,0c.67,0,1.33.1,2,.18l.17,0s.13,0,.12,0l0-.24-.29-1.27-.75-2.84a58.55,58.55,0,0,1-1.31-5.87c-.7-3.92-1.18-7.87-1.55-11.82-.71-7.9-1-15.8-1.42-23.67l-1.47-28.49c-.4-7.35-.65-14.7-.92-22l-.41-11-.21-5.52-.1-2.75-.07-1.94-.05-1.14,0-.57a1.46,1.46,0,0,1,0-.49,20.4,20.4,0,0,0,2.79,1.48,7.17,7.17,0,0,0,1.58.37,8.16,8.16,0,0,0,3.17-.3,12.43,12.43,0,0,0,3-1.36c.48-.3.94-.61,1.39-1l.67-.53c.23-.19.37-.3.79-.68s.7-.66,1.05-1,.62-.21.82-.27a1.17,1.17,0,0,0,.27,0H360c.07-.16-.12.35.15-.34l.07.23.26,1c.08.33.19.6.25,1l.09,1.37.11,1.75.47,7,2,28.12c1.1,14.83,2.29,29.73,3.66,44.41.46,4.7.88,9.45,1.58,14.09s1.59,9.35,2.45,14c.43,2.33.88,4.66,1.35,7l.37,1.74.29,1.26a1.06,1.06,0,0,0,.33.09l.85.14c.58.09,1.15.17,1.73.23a49.78,49.78,0,0,0,14-.44l1.85-.34c.52-.11.94-.2,1.27-.25.66-.11,1-.11,1,0s-.36.3-1,.58a20.85,20.85,0,0,1-2.79,1A39.64,39.64,0,0,1,379.84,280c-1.1,0-2.24,0-3.43-.09-.59,0-1.2-.09-1.81-.15l-.93-.12c-.35-.05-.49-.06-1.21-.2l-.87-.18c-.19,0-.2-.16-.24-.31l-.11-.43-.33-1.34c-.14-.62-.29-1.26-.44-1.9-.28-1.29-.55-2.6-.81-3.95-.91-4.77-1.75-9.54-2.55-14.32l-.59-3.59c-.19-1.25-.31-2.44-.47-3.66-.26-2.42-.52-4.83-.74-7.24-.91-9.66-1.68-19.31-2.44-29s-1.45-19.35-2.13-29l-1-14.56L359,157.54l-.35.33-.43.36c-.28.23-.55.45-.84.66a16.66,16.66,0,0,1-3.73,2.18,10.63,10.63,0,0,1-4.4.86,8.83,8.83,0,0,1-2.28-.37l-.27-.09-.08,0-.14-.06a1.91,1.91,0,0,1-.28-.15,10,10,0,0,0,0,1.78c0,1.13.09,2.27.13,3.41q.14,3.41.27,6.84.27,6.86.55,13.76c.32,9.2.88,18.42,1.32,27.58q.84,16.22,1.67,32.43c.31,5.39.74,10.77,1.48,16.1.38,2.66.83,5.34,1.42,7.92.32,1.29.69,2.59,1,3.91.17.66.34,1.32.49,2,.06.26.17.83.27,1.34l.25,1.55a6.08,6.08,0,0,1-2.4,0l-.94-.11-.84-.08c-1.11-.09-2.24-.09-3.37-.07a48.26,48.26,0,0,0-6.77.7c-2,.34-3.93.75-5.87,1.25l-1.12.29c-.16,0-.11.15-.13.26l0,.53-.23,3-.83,12.08L331,321.88l-.78,10.95-.44,5.47-.45,5.28,0,.21c0,.08.1.11.15.15a3,3,0,0,0,.45.18c.48.15,1,.28,1.51.41,1,.25,2.08.46,3.13.67,2.1.41,4.21.77,6.33,1.11,4.23.68,8.48,1.3,12.72,1.86,1.05.11,2.14.3,3.14.32l3.2,0,3.2,0,3.19-.12A97,97,0,0,0,379,347.17a70.87,70.87,0,0,0,13.44-3.77A83,83,0,0,0,404.75,337c.5-.3,1-.58,1.54-.87a16.87,16.87,0,0,1,1.59-.8l.82-.38.69-.23.19-.07c.07,0,.15,0,.11-.12l-.06-.4-.52-3.42-.61-3.42c-.87-4.55-1.94-9.06-3.16-13.55-1.06-3.95-2.25-7.78-3.52-11.71-2.37-7.29-4.09-12-5.2-15.42a57.35,57.35,0,0,1-2-7c-.14-.75-.37-1.72-.41-2.17-.14-1.5,2.29,4.25,6.17,14.83,2.83,7.87,5.51,15.93,7.62,24.26,1.07,4.16,2,8.38,2.74,12.67.2,1.06.37,2.14.52,3.22l.26,1.79.23,1.54c.07.16-.1.17-.22.22l-.37.12-.73.24-1,.33-.69.32a12.81,12.81,0,0,0-1.39.69c-.92.48-1.85,1-2.78,1.58a77.25,77.25,0,0,1-11.84,6,72.54,72.54,0,0,1-12.87,3.61,97.4,97.4,0,0,1-13.3,1.41l-3.34.13c-1.11,0-2.22,0-3.34,0l-3.34,0a17.19,17.19,0,0,1-1.75-.16l-1.66-.21c-4.23-.55-8.44-1.16-12.66-1.84-2.11-.34-4.22-.7-6.34-1.11-1.05-.2-2.11-.42-3.18-.68-.54-.13-1.07-.27-1.64-.45l-.31-.11-.37-.14a3,3,0,0,1-.65-.39,1.39,1.39,0,0,1-.43-.56,5.4,5.4,0,0,1-.13-.7l.59-7,.51-6.64q.45-6.65.91-13.29.85-13.32,1.72-26.64Z"/><path class="cls-1" d="M339.6,319.41a1.27,1.27,0,0,0-.3-.91,1.75,1.75,0,0,0-1-.5,3.84,3.84,0,0,0-1,0,4.28,4.28,0,0,0-3.2,1.83,1.65,1.65,0,0,0-.14,1.46,6.16,6.16,0,0,0,1.24,1.66c.13.15-.08.59-.55.85a1.32,1.32,0,0,1-1.64-.23,4.59,4.59,0,0,1-.88-1.54,3.7,3.7,0,0,1-.12-1.93,4.34,4.34,0,0,1,2-2.71,7.49,7.49,0,0,1,3.53-1.26,4.34,4.34,0,0,1,2.13.41,3,3,0,0,1,1.55,1.7,3.48,3.48,0,0,1,.2,1.32,6.24,6.24,0,0,1-.1,1.21,4.6,4.6,0,0,1-2,3.14,5.26,5.26,0,0,1-2.77.94,3,3,0,0,1-.67,0c-.83-.13-1.05-.44-1-.94a2,2,0,0,1,.07-.35.88.88,0,0,1,.9-.51,3.78,3.78,0,0,0,3-1.16,3.49,3.49,0,0,0,.51-1.1c.05-.22.08-.45.11-.68s0-.52,0-.71Z"/><path class="cls-1" d="M344.06,287.11a1.5,1.5,0,0,0-1.37,1.17,2.93,2.93,0,0,0,0,.84,3.16,3.16,0,0,0,1.7,2.58,1.83,1.83,0,0,0,1.38,0,7.86,7.86,0,0,0,1.56-1c.12-.07.57.12.82.59a1.25,1.25,0,0,1-.3,1.54,4.29,4.29,0,0,1-3.07.83,4,4,0,0,1-2.66-1.61,5.74,5.74,0,0,1-1.29-3.27,3.79,3.79,0,0,1,.51-2,3.25,3.25,0,0,1,1.54-1.35,3.87,3.87,0,0,1,1.14-.28,4.74,4.74,0,0,1,1.13,0A3.77,3.77,0,0,1,348,287a6.42,6.42,0,0,1,1,2.43,3.8,3.8,0,0,1,.06.59c0,.76-.33,1.08-.84,1a1.76,1.76,0,0,1-.33-.07,1.28,1.28,0,0,1-.42-.33.86.86,0,0,1-.19-.41,4.72,4.72,0,0,0-1.22-2.71,2.39,2.39,0,0,0-2-.38Z"/><path class="cls-1" d="M357.29,192.09a3.75,3.75,0,0,0,2.38-.65,2.72,2.72,0,0,0,.6-.63,1.64,1.64,0,0,0,.33-.64,2,2,0,0,0-.24-1,4,4,0,0,0-.69-1.08,2.2,2.2,0,0,0-1.28-.71,5.07,5.07,0,0,0-1.83.28c-.21,0-.45-.39-.46-.9a1.23,1.23,0,0,1,.86-1.31,4,4,0,0,1,3.25.65,4.94,4.94,0,0,1,1.78,2.4,5,5,0,0,1,.37,1.78,3.38,3.38,0,0,1-.9,2,5.55,5.55,0,0,1-3.39,1.64,4.4,4.4,0,0,1-2.33-.35,3,3,0,0,1-1.37-1.27,3.7,3.7,0,0,1-.45-1.74,6.18,6.18,0,0,1,.41-2.63,3.4,3.4,0,0,1,.29-.57c.49-.66.88-.71,1.26-.37a2,2,0,0,1,.25.25,1,1,0,0,1,.07,1,5.11,5.11,0,0,0-.42,1.5,3.37,3.37,0,0,0,.09,1.46,1.19,1.19,0,0,0,.46.6,2,2,0,0,0,1,.28Z"/><path class="cls-1" d="M352.15,171.7a2.58,2.58,0,0,0-1.55-1.41,1.55,1.55,0,0,0-.67.05c-1,.24-2,.93-2,1.89a2.66,2.66,0,0,0,.41,1.38,11.07,11.07,0,0,0,1.21,1.4c.12.15-.1.58-.53.87a1.19,1.19,0,0,1-1.51,0,5.13,5.13,0,0,1-1.35-2.57,3.77,3.77,0,0,1-.08-.76,3.07,3.07,0,0,1,.08-.85,3.22,3.22,0,0,1,.76-1.44,6,6,0,0,1,1.38-1.12,4.43,4.43,0,0,1,1.63-.62,3.26,3.26,0,0,1,2,.4,4.62,4.62,0,0,1,1.4,1.22,5.66,5.66,0,0,1,.58.94,4.48,4.48,0,0,1,.21.55,2.16,2.16,0,0,1,.08.67,5.57,5.57,0,0,1-1.1,3,3.56,3.56,0,0,1-2.24,1.51,2.44,2.44,0,0,1-.66,0c-.82-.11-1-.41-.88-.9a2.09,2.09,0,0,1,.08-.34.92.92,0,0,1,.8-.55,1.68,1.68,0,0,0,1-.43,2.85,2.85,0,0,0,.78-1.08,3.84,3.84,0,0,0,.3-1.08c0-.08,0-.22,0-.25s0,0,0-.05a1.53,1.53,0,0,0-.19-.43Z"/><path class="cls-1" d="M356.83,225a1.83,1.83,0,0,0-1-.08,1.54,1.54,0,0,0-.44.19,2.4,2.4,0,0,0-.46.4,3.93,3.93,0,0,0-.52.8,3.45,3.45,0,0,0-.5,1.59,2.45,2.45,0,0,0,.42,1.54,1.71,1.71,0,0,0,1.23.59,14.11,14.11,0,0,0,2-.3c.23,0,.41.42.38.94a1.29,1.29,0,0,1-.9,1.24,4.5,4.5,0,0,1-3.24-.45,3.56,3.56,0,0,1-1.63-2.92A5.86,5.86,0,0,1,353,225a4.93,4.93,0,0,1,1.37-1.44,3.26,3.26,0,0,1,2-.54,4.44,4.44,0,0,1,2.24.82,4.34,4.34,0,0,1,.44.34,3.42,3.42,0,0,1,.81,1.35,5.77,5.77,0,0,1,.36,1.4,4.15,4.15,0,0,1-.38,2.79,3.58,3.58,0,0,1-.4.56c-.63.58-1,.52-1.3.15a1.86,1.86,0,0,1-.22-.27.86.86,0,0,1,.1-1,2.26,2.26,0,0,0,.44-1.25,4.47,4.47,0,0,0-.25-1.55c-.07-.18-.14-.35-.22-.51s-.18-.28-.14-.25a2.84,2.84,0,0,0-1.08-.61Z"/><path class="cls-1" d="M365.57,254.32c.07-.09.2-.21.23-.27s.05,0,.07-.07a.6.6,0,0,0,0-.23,1.76,1.76,0,0,0-.08-.37,2.8,2.8,0,0,0-.4-.79,4.27,4.27,0,0,0-.71-.7,2.53,2.53,0,0,0-3.07-.48,4.33,4.33,0,0,0-1.15,1.3,3.6,3.6,0,0,0-.47,1.72.9.9,0,0,1-.95.36,1.26,1.26,0,0,1-1-1.48,5.51,5.51,0,0,1,1.64-2.73,6.82,6.82,0,0,1,.58-.49,3.83,3.83,0,0,1,.75-.46,3.59,3.59,0,0,1,1.72-.32,5.62,5.62,0,0,1,3.46,1.47,5.47,5.47,0,0,1,1.08,1.48,3.54,3.54,0,0,1,.39,2c0,.16-.1.31-.15.47a3.41,3.41,0,0,1-.39.58,4.41,4.41,0,0,1-.4.45,7.85,7.85,0,0,1-.88.76,5.73,5.73,0,0,1-3.31,1.23,4.07,4.07,0,0,1-2.73-1c-.15-.15-.32-.28-.46-.44-.48-.61-.46-.91-.11-1.27a2.83,2.83,0,0,1,.25-.24.81.81,0,0,1,1,.15c.22.25.5.36.7.56a2.78,2.78,0,0,0,.67.3,2.22,2.22,0,0,0,1.37,0,5.42,5.42,0,0,0,2.24-1.49Z"/><path class="cls-1" d="M374.05,315.65a1.69,1.69,0,0,0-1.28-1.69,3,3,0,0,0-1,0,4.34,4.34,0,0,0-3.31,1.82,1.71,1.71,0,0,0-.17,1.5,6.2,6.2,0,0,0,1.25,1.72c.13.16-.09.59-.56.84a1.36,1.36,0,0,1-1.66-.27,4.52,4.52,0,0,1-.88-1.58,3.69,3.69,0,0,1-.08-2,4.47,4.47,0,0,1,2.13-2.71,7.12,7.12,0,0,1,3.66-1.2,4.17,4.17,0,0,1,2.17.63,3.35,3.35,0,0,1,1.38,1.84,3.61,3.61,0,0,1,.15.65,2.78,2.78,0,0,1,0,.7,6.18,6.18,0,0,1-.18,1.24,5.73,5.73,0,0,1-1.92,3.23,3.92,3.92,0,0,1-3,.73l-.65-.15c-.77-.27-.92-.54-.82-1,0-.12,0-.24.07-.35a.82.82,0,0,1,1-.41,4,4,0,0,0,1.74,0,1.92,1.92,0,0,0,1.1-.87,5,5,0,0,0,.58-1.28,4.57,4.57,0,0,0,.21-1.37Z"/><path class="cls-1" d="M392,294.07a1.66,1.66,0,0,0-.33-1,3.22,3.22,0,0,0-1-.8,4.35,4.35,0,0,0-1-.3,2.39,2.39,0,0,0-2.94,1.06,2.5,2.5,0,0,0-.06,1.6,10,10,0,0,0,1,1.93c.1.2-.24.55-.75.69a1.33,1.33,0,0,1-1.52-.52,5.18,5.18,0,0,1-.69-3.23,4.17,4.17,0,0,1,.62-1.7,3.55,3.55,0,0,1,1.37-1.19,5.56,5.56,0,0,1,3.84-.33,5.73,5.73,0,0,1,1.83.92,3.78,3.78,0,0,1,1.32,1.73,4.19,4.19,0,0,1,0,2.55,4.62,4.62,0,0,1-.87,1.67,5.35,5.35,0,0,1-1.42,1.18,3.78,3.78,0,0,1-3,.5,3.93,3.93,0,0,1-.66-.22c-.74-.43-.81-.75-.59-1.2a1.51,1.51,0,0,1,.16-.31.83.83,0,0,1,1-.2,2.4,2.4,0,0,0,1.47.12,3,3,0,0,0,1.32-.79,2.75,2.75,0,0,0,.35-.41,3.81,3.81,0,0,0,.29-.57,2.82,2.82,0,0,0,.2-1.18Z"/><path class="cls-1" d="M397.17,333.4a1.54,1.54,0,0,0-.43-.83,2.67,2.67,0,0,0-1-.53,3.83,3.83,0,0,0-.95-.09,1.92,1.92,0,0,0-2.19,2.88,11.56,11.56,0,0,0,1.27,1.56c.12.17-.14.58-.59.83a1.25,1.25,0,0,1-1.53-.13,4.87,4.87,0,0,1-1.31-2.86,3.82,3.82,0,0,1,.25-1.72,3.24,3.24,0,0,1,1.07-1.37,5.24,5.24,0,0,1,3.5-1,5.31,5.31,0,0,1,1.87.51,3.39,3.39,0,0,1,1.52,1.41,4,4,0,0,1,.42,2.37,4.83,4.83,0,0,1-.48,1.66,5.2,5.2,0,0,1-1,1.46,3,3,0,0,1-2.74.93,2.44,2.44,0,0,1-.62-.14c-.74-.26-.83-.54-.7-1a1.8,1.8,0,0,1,.1-.33.77.77,0,0,1,.94-.4,2.09,2.09,0,0,0,1.34-.05,1.84,1.84,0,0,0,.79-.87,3.21,3.21,0,0,0,.42-2.24Z"/><path class="cls-3" d="M360.75,159.41a.05.05,0,0,0,0,0,.53.53,0,0,1-.08-.23l-2-24.13a.5.5,0,0,1,.05-.23v0c0-.16-.46-.25-1-.2s-1,.22-.95.38a.05.05,0,0,0,0,0,.7.7,0,0,1,.08.23l.08,1,1.88,23.12a.43.43,0,0,1,0,.22.11.11,0,0,0,0,.05c0,.16.46.26,1,.22S360.76,159.57,360.75,159.41Z"/><path class="cls-1" d="M386.5,192.84c-.39,4.64.46,9.48,1.12,14,.54,3.72,1.16,7.42,1.83,11.12s2.12,7.76,2.17,11.37c0,.61,2.19.21,2.18-.58-.05-3.08-1.29-6.5-1.84-9.53-.7-3.78-1.36-7.57-1.93-11.37-.75-5-1.79-10.31-1.36-15.35.06-.81-2.11-.39-2.17.29Z"/><path class="cls-1" d="M393.7,276.24a80.74,80.74,0,0,0,8.19-2c.5-.14,1-.31,1.44-.49s1-.38,1.33-.53a1,1,0,0,0,.32-.14l-.11-.31-.51-1.11-1-2.22L401.45,265l-1.94-4.5c-.41-1-.83-1.92-1.19-2.92a10.41,10.41,0,0,1-.71-3.2c0-.8.5-.55,1-.08a5.34,5.34,0,0,1,1.52,2.28c1.37,3.86,3.08,7.74,4.63,11.69.33.81.68,1.61,1.06,2.41l.57,1.21,1,1.93a16.12,16.12,0,0,1-1.76,1l-.68.29c-.2.09-.4.15-.6.23a67.91,67.91,0,0,1-8.4,2.3c-.87.19-1.74.37-2.62.52s-1.74.33-2.62.46c-2.66.45-5.35.75-8,.94a56.23,56.23,0,0,1-6.23.23l-1.38-.12a5,5,0,0,1-1.81-.46,1.21,1.21,0,0,1-.66-.68,2.84,2.84,0,0,1-.13-.38c0-.4.72-.55,1.86-.37a57.56,57.56,0,0,0,11-.3c2.79-.31,5.61-.73,8.39-1.31Z"/><path class="cls-1" d="M322.81,191.85a14.56,14.56,0,0,1-1.44,7.26c-.82,1.93-1.66,3.87-2.66,5.76a27.28,27.28,0,0,1-3.57,5.44,16.21,16.21,0,0,1-5.24,4.18,9.33,9.33,0,0,1-1.57.66l-.8.3a6.12,6.12,0,0,1-.82.2c-.55.12-1.1.26-1.66.36l-1.67.14a32.78,32.78,0,0,1-11.07-1.49,46.36,46.36,0,0,1-10-4.62,81.79,81.79,0,0,1-7.79-5.27c-2.5-1.86-4.92-3.81-7.33-5.75s-4.81-3.86-7.27-5.69-5.06-3.6-7.42-5.72l-.5-.45-.8-.75-1.71-1.7,1.75-1,.86-.51.51-.32c.58-.37,1.15-.74,1.72-1.13,1.13-.77,2.25-1.56,3.32-2.41a41.17,41.17,0,0,0,7.27-7.11c.33-.46.68-.93,1-1.34.9-1.08,1.64-1.08,1.43.09a2,2,0,0,1-.21.83c-1.53,2.23-2.47,4.39-4.64,6.38q-2.45,2.17-5.05,4.14c-.86.66-1.74,1.29-2.64,1.91l-1.3.88-.07.08.12.07.08.06.28.24.56.48c1.58,1.32,3.24,2.58,4.92,3.83,2.19,1.63,4.31,3.37,6.4,5.1,1.46,1.15,5.48,4.59,11,8.68a72.84,72.84,0,0,0,9.43,6,37,37,0,0,0,11.39,3.84c4,.58,8.08.57,11.28-1a15,15,0,0,0,4.12-3.06,24.28,24.28,0,0,0,2.84-3.81,58.91,58.91,0,0,0,3.35-6.6c.77-1.71,1.24-2.76,1.32-3C321,194.81,321.72,193.67,322.81,191.85Z"/><path class="cls-1" d="M254,165.13a11.12,11.12,0,0,1-5-2.19c-.36-.32-.73-.65-1.08-1a8.5,8.5,0,0,1-.92-1.26,5.76,5.76,0,0,1-.89-3.18,5.12,5.12,0,0,1,.16-1.1,4.47,4.47,0,0,1,.26-.78.6.6,0,0,1,.06-.11c.06,0-.05-.06-.07-.09a.53.53,0,0,0-.1-.06l-.2-.1a4.69,4.69,0,0,0-.87-.3c-.61-.17-1.3-.26-2-.39a8.09,8.09,0,0,1-2.41-.72,5,5,0,0,1-2-1.91c-.19-.33-.39-.67-.56-1-.1-.2-.16-.33-.28-.61a5.8,5.8,0,0,1-.28-1,2.38,2.38,0,0,1,.27-1.74,2.09,2.09,0,0,1,1.45-.88,3.56,3.56,0,0,1,1.81.43l1,.44a4.34,4.34,0,0,0,.75.23H244a12.07,12.07,0,0,1,4.81.48,13.74,13.74,0,0,1,3.78,2.94c2.06,1.85,4.53,3.81,6.29,6.42a26.83,26.83,0,0,1,2,3.78c.57,1.27,1.11,2.54,1.62,3.8a25.83,25.83,0,0,0,3.92,6.74c3.25,4.14,7.5,7.51,11.83,10.77l5.62,4.2a58.57,58.57,0,0,0,5.73,3.8,25.08,25.08,0,0,0,6.27,2.42c1.1.29,2.23.52,3.36.74l1.36.25s.06,0,.08,0l.31-.45a115.76,115.76,0,0,0,7.39-11.8c2.3-4.06,4.51-8.2,6.88-12.28a93.1,93.1,0,0,1,9.53-13.85,43.43,43.43,0,0,1,12.58-10.34,15.63,15.63,0,0,1,2.51-1.15c2.22-.79,2.89-.4,1.52.7a5.18,5.18,0,0,1-1,.74,21.5,21.5,0,0,0-4.85,3c-.74.56-1.4,1.24-2.14,1.85-.36.31-.74.62-1.13.93l-1.14,1.05a46.53,46.53,0,0,0-7.81,8.8,113.34,113.34,0,0,0-6.28,10.12l-4.7,8.39c-2,3.57-4.14,7.11-6.4,10.59l-1.54,2.34c-.34.49-.73,1-1.15,1.62l-.66.91-.55.77-.31.45-.08.11-.14,0-.27-.05-1.75-.32-1.34-.26c-.92-.18-1.88-.39-2.89-.66A27.12,27.12,0,0,1,289,192.9a53,53,0,0,1-6.32-4.14L276.2,184c-4.39-3.34-9.06-7-12.55-11.9a29.12,29.12,0,0,1-2.32-3.83c-.65-1.38-1.16-2.68-1.72-4s-1.12-2.56-1.74-3.74a15.62,15.62,0,0,0-2.19-3.18,30.71,30.71,0,0,0-2.76-2.71l-1.48-1.3c-.51-.46-1-.92-1.4-1.34a6.16,6.16,0,0,0-2.59-1.72,12.59,12.59,0,0,0-3.19-.17h-.88c-.17,0-.25,0-.5,0a3.68,3.68,0,0,1-.59-.11,14.48,14.48,0,0,1-1.64-.64l-.24-.11a.24.24,0,0,0-.14,0,.17.17,0,0,0-.13.2l0,.12,0,.07.11.26a11.21,11.21,0,0,0,.58,1.08A2.67,2.67,0,0,0,242.2,152c1.1.44,2.49.5,3.61.82a7.05,7.05,0,0,1,1.48.55,4.31,4.31,0,0,1,.78.49,7.27,7.27,0,0,1,.6.44c.05.39.09.61.09.71v.14c0,.63,0,.83,0,.86s-.16.25-.22.37l-.09.21a1.71,1.71,0,0,0-.09.3,3.11,3.11,0,0,0-.1.57,3.36,3.36,0,0,0,.08,1,4.5,4.5,0,0,0,.47,1.25,4.76,4.76,0,0,0,.42.7A18.26,18.26,0,0,0,254,165.13Z"/><path class="cls-1" d="M238.66,158.78c-.16.22-.37.17-.79.06-.13,0-.4-.27-.36-.37a2.18,2.18,0,0,1,.25-.56,4.91,4.91,0,0,1,.79-.65c.4-.29.85-.57,1.07-.72a13,13,0,0,1,1.3-.73,5.19,5.19,0,0,0,1.94-1.44.17.17,0,0,1,.07-.1s0-.06,0-.09,0-.13,0-.21a2.08,2.08,0,0,0-.14-.32c-.1-.14-.09-.13-.27-.15a.39.39,0,0,0-.21.06.91.91,0,0,1-.31.12c-.17.07-.39.14-.63.25-.47.21-1,.48-1.1.52-.62.23-1.24.52-1.87.8a.56.56,0,0,1-.28.1,1.07,1.07,0,0,0-.61.21,7.64,7.64,0,0,1-.83.35,1.54,1.54,0,0,1-.48,0c-.14,0-.17-.23-.14-.27s0-.17-.1-.25a.41.41,0,0,1-.05-.09s.32-.29.64-.6.67-.61.75-.66l1.08-.72c.55-.37,1.16-.75,1.28-.83a1.7,1.7,0,0,1,.44-.18,11,11,0,0,1,1.06-.5,6.38,6.38,0,0,1,.85-.27l.52,0a2.4,2.4,0,0,1,1,.25,1.48,1.48,0,0,1,.47.35,1.33,1.33,0,0,1,.29.44,1.43,1.43,0,0,0,.16.3l.18.32a2.34,2.34,0,0,1,.11.4,2.7,2.7,0,0,1,.08.41c0,.15,0,.29,0,.44a2.53,2.53,0,0,1-.71,1.39,6.31,6.31,0,0,1-1,.86l-.19.1-.24.11c-.78.5-1.59.8-2.32,1.23-.17.1-1.05.36-1.21.49S238.71,158.68,238.66,158.78Z"/><path class="cls-1" d="M241.87,162.26c-.19.18-.43.06-.72-.22-.09-.09-.2-.43-.15-.5a2.75,2.75,0,0,1,.28-.37c.07-.06,1.17-.65,1.49-.89l.91-.6a2.46,2.46,0,0,0,.63-.61.88.88,0,0,0,.12-.55c0-.08,0-.12,0-.15s0-.15-.18-.23a1.73,1.73,0,0,0-.68-.09.43.43,0,0,0-.27.06c-.07,0-.48.09-.92.17s-.89.19-1,.2a11.31,11.31,0,0,0-1.62.24c-.08,0-.15.07-.24,0a.66.66,0,0,0-.52.07c-.22.07-.44.15-.67.2a1.15,1.15,0,0,1-.37,0c-.11,0-.19-.21-.17-.25s-.07-.16-.13-.23l0-.08a5.85,5.85,0,0,1,1.32-1.1s2-.83,2.28-.88a1.23,1.23,0,0,1,.39,0s.46-.13.93-.22a6.25,6.25,0,0,1,1-.12,2.28,2.28,0,0,1,1.31.28,1.2,1.2,0,0,0,.28.13,2,2,0,0,1,1.06,1.05,2.57,2.57,0,0,1,.17,1.33,3.26,3.26,0,0,1-.43,1.25c0,.07-.11.1-.16.16l-.19.2a7.43,7.43,0,0,1-2,1.4c-.15.1-1,.27-1.14.35S241.94,162.19,241.87,162.26Z"/><path class="cls-1" d="M240.4,162.76c-.15.18-.38.08-.7-.17a.81.81,0,0,1-.22-.47,2.6,2.6,0,0,1,.23-.4,14.59,14.59,0,0,1,1.52-.94,5.48,5.48,0,0,1,1.18-.47,12.36,12.36,0,0,1,1.3-.31,4.62,4.62,0,0,1,1.55,0,1.66,1.66,0,0,1,.42.12,3.25,3.25,0,0,1,.45.25,2,2,0,0,1,.73,1.65,3.26,3.26,0,0,1-.36,1.31,1.47,1.47,0,0,0-.19.4,3,3,0,0,1-.91.94,4.72,4.72,0,0,1-1.07.58c-.58.16-1.13.29-1.67.4a.36.36,0,0,1-.23,0,.63.63,0,0,0-.51,0l-.66.15a1.14,1.14,0,0,1-.36,0c-.12,0-.17-.24-.14-.28s-.06-.16-.11-.24l0-.09a6.41,6.41,0,0,1,1.26-1l.3-.13.61-.28a8.63,8.63,0,0,0,.94-.51.9.9,0,0,1,.27-.11,2.61,2.61,0,0,0,.5-.42,1.65,1.65,0,0,0,.28-.43c.1-.13.08-.29.21-.39a0,0,0,0,0,0-.05s0,0,0,0a.26.26,0,0,0,.15-.07c-.09,0-.07.11-.14.15s0,0,0,0l-.09,0a.8.8,0,0,0-.26,0,2.29,2.29,0,0,0-.67.06.33.33,0,0,1-.14,0,.47.47,0,0,0-.17,0,8.53,8.53,0,0,0-1.79.54c-.13.06-.84.17-1,.27S240.46,162.68,240.4,162.76Z"/><path class="cls-1" d="M243.07,169.24a10.33,10.33,0,0,0,5.07-2c1-.81,1.3-2,0-2.58a1.88,1.88,0,0,0-1.75.21c-.32.21-.76.81-.19,1.06s.39.51-.1.84a6.77,6.77,0,0,1-2.69.91c-.47.07-1.3.32-1.38.89s.69.68,1.09.62Z"/><path class="cls-1" d="M259.61,178.74q-1.89-1.81-3.85-3.56c-1.36-1.21-3-3-4.78-3.5-.69-.2-2.55.83-1.33,1.18a6.27,6.27,0,0,1,1.88,1.28c.94.76,1.84,1.55,2.74,2.36,1.12,1,2.24,2,3.32,3.1.55.53,2.6-.29,2-.86Z"/><path class="cls-1" d="M251.79,159a3.31,3.31,0,0,1-3.35-.5q-4.09-3-8.09-6.18c-2.28-1.81-4.48-3.74-6.74-5.58-3.9-3.17-7.82-6.31-11.73-9.46-1.15-.93-2.29-1.88-3.46-2.8s-2.26-1.72-3.39-2.58a2.76,2.76,0,0,1-.55-.45.7.7,0,0,1,.55-1.16c.14,0,.34-.08.43,0,.87.67,2.06.6,2.95,1.35,1.64,1.38,3.45,2.56,5.18,3.85.69.51,1.35,1.06,2,1.62.83.72,1.62,1.49,2.45,2.21,2.27,2,22,17.75,22.49,18.2A17.88,17.88,0,0,1,251.79,159Z"/><line class="cls-4" x1="345.19" y1="159.78" x2="345.19" y2="159.76"/><path class="cls-1" d="M384.81,191.42a5.07,5.07,0,0,1,4.17,1.52,72.54,72.54,0,0,1,10,10.48,17.76,17.76,0,0,1,1.71,2.82,7.36,7.36,0,0,1,.58,1.77l.07.68c0,.06,0,.12,0,.18l-.06.18-.13.35-.27.72-2.15,5.75-7.17,19.88-2.12,5.86q-.94,2.83-1.91,5.67a5.83,5.83,0,0,1-.34.94c-.44.75-1.09.72-1.32,0-.05-.17-.16-.38-.11-.52.5-1.47.16-2.9.73-4.42,1.07-2.82,1.89-5.73,2.83-8.6.38-1.14.79-2.28,1.23-3.4l1.74-4.28c.39-1,1.42-3.8,2.76-7.5.66-1.85,1.41-3.91,2.19-6.07l1.19-3.3.55-1.52c0-.05,0,0,0-.09a1,1,0,0,0-.07-.31,4.05,4.05,0,0,0-.24-.69,24.83,24.83,0,0,0-3.74-5.4c-1.41-1.64-2.8-3.1-4-4.34-2.45-2.49-4.21-4.09-4.37-4.26C386,193,385.58,192.33,384.81,191.42Z"/><path class="cls-1" d="M326.08,186.3a11.23,11.23,0,0,1,1.93,3.55,16.94,16.94,0,0,1,.9,4.06,131,131,0,0,1,.32,27.85c-.68,8-2,15.83-3.24,23.67-1.06,6.75-2.19,13.48-3.06,20.22-.42,3.38-.83,6.75-1.09,10.13l-.23,2.54-.13,2.54-.09,1.74c0,.14.1.06.18,0l2.88-.7,3-.68c2-.45,4-.88,5.95-1.27a106,106,0,0,1,11.6-1.77,14.88,14.88,0,0,1,2-.11c1.72.11,2.08.73.87,1.23a2.87,2.87,0,0,1-.88.3c-3,.15-5.25,1.24-8.34,1.68-2.86.43-5.7,1-8.53,1.7-1.42.34-2.83.69-4.24,1.06l-4.8,1.24-1.69.42-.43.1-.11,0s-.08,0-.06,0v-.22l0-.86.15-2.95.21-3.53c.3-3,.62-6,1-9,.25-2,1-7.84,2.19-15.38s2.77-16.8,3.84-25.91a164.3,164.3,0,0,0,1.26-24.83c-.08-1.69-.11-3.24-.21-4.63S327,196,326.91,195s-.16-1.85-.24-2.44-.14-1-.16-1.07C326.32,190,326.27,188.6,326.08,186.3Z"/><path class="cls-3" d="M343.25,136.42a.09.09,0,0,0,0,.05.44.44,0,0,1,.07.24l1,25.26a.37.37,0,0,1-.05.23s0,0,0,.05.45.29,1,.27,1-.18,1-.35a.09.09,0,0,0,0,0,.4.4,0,0,1-.07-.24l0-1-1-24.24a.4.4,0,0,1,.05-.23.43.43,0,0,0,0,0c0-.17-.45-.28-1-.26S343.24,136.25,343.25,136.42Z"/><path class="cls-1" d="M361.47,143.88a14.39,14.39,0,0,1,2.47-.52c.22,0,.44-.05.66-.06l.66,0c.44,0,.89.08,1.34.14a9.07,9.07,0,0,1,1.35.23c.44.12.88.26,1.32.4l1.31.46c.44.16.84.39,1.26.59,5.6,2.7,10.32,6.76,14.6,11.08a131.39,131.39,0,0,1,11.66,14c1.55,2.09,3,4.21,4.56,6.3s3,4.2,4.51,6.36a69.25,69.25,0,0,1,7.66,13.81,29.75,29.75,0,0,1,1.79,6.69,26.24,26.24,0,0,1,0,7,54.3,54.3,0,0,1-3.75,13.1c-1.67,4.18-3.61,8.21-5.29,12.28s-3.4,8.25-5.25,12.33c-1.1,2.41-2.25,4.8-3.48,7.16-.62,1.17-1.24,2.35-1.9,3.5l-1,1.74-.93,1.58c0,.21-.23.08-.37,0l-.45-.13-.92-.27-.62-.19a3.06,3.06,0,0,1-.49-.22l-1-.46a10.76,10.76,0,0,1-1.72-1.27,11.85,11.85,0,0,1-2.55-3.3,30,30,0,0,1-2.55-7.45c-.19-.83-.43-1.69-.55-2.46-.34-2,.08-2.71,1-1.32a4,4,0,0,1,.55,1,32.93,32.93,0,0,0,1.68,5.22,31.43,31.43,0,0,0,2.45,4.79,8,8,0,0,0,3.79,3.25,1.54,1.54,0,0,0,.3.11l.19.05.11,0s0-.06.08-.09l.15-.27c.46-.82.91-1.65,1.36-2.48,1.76-3.35,3.35-6.78,4.87-10.25l3.61-8.38c.76-1.79,1.52-3.58,2.34-5.37l2.45-5.32c.54-1.21,1.6-3.54,2.82-6.75a57.38,57.38,0,0,0,1.8-5.46,33.33,33.33,0,0,0,1.19-6.65,22.91,22.91,0,0,0-.7-7.45,37.13,37.13,0,0,0-3-7.67,113.9,113.9,0,0,0-9.67-14.83c-3.54-4.89-7-9.71-10.46-14a91.72,91.72,0,0,0-10.26-10.91,46.88,46.88,0,0,0-8.65-6.16,33.73,33.73,0,0,0-4.08-1.86A30.08,30.08,0,0,0,361.47,143.88Z"/><path class="cls-3" d="M367.53,350.72,380.73,448c.13,1.12,2.4.82,2.24-.3l-13.2-97.23C369.66,349.53,367.41,349.84,367.53,350.72Z"/><path class="cls-3" d="M378.28,448l-22.74-98.6c-.24-1.14-2.48-.62-2.2.51l22.74,98.59c.08.39.54.51,1,.46v-.05a1.77,1.77,0,0,0,.46,0v-.05C378,448.64,378.37,448.33,378.28,448Z"/><path class="cls-3" d="M383.77,347.78,386.33,448c0,1.15,2.31,1.09,2.26-.06L386,347.72C386,346.81,383.74,346.87,383.77,347.78Z"/><path class="cls-1" d="M382,448.64v14.67l-2.17,0-.14-9.55c-4.3,3.75-14.24,8.94-22,10.79-10.21,2.43,19.94-15.87,19.94-15.87Z"/><path class="cls-1" d="M358.33,463.19h.06l.21,0,.24,0,.76-.22c1-.28,2-.61,3-1,2-.71,4-1.53,5.91-2.43,1.42-.65,2.77-1.41,4.14-2.15,1.12-.61,2.23-1.26,3.3-1.94l.8-.53.42-.28c.23-.16.44-.33.66-.5.89-.67,1.74-1.36,2.57-2,0,1.19,0,2.46,0,3.65v7h.85l0-3.87c0-3.15-.17-6.31,0-9.45.13-2,1.93.53,1.95,4.15v4.91l-.06,6.13-4.57,0v-3l0-1.83,0-1.84,0-.91v-.65a4.54,4.54,0,0,0,.05-.66l-.57.4-.95.66-1,.67c-1.37.87-2.79,1.7-4.22,2.44a65.77,65.77,0,0,1-12.26,4.94c-.18.05-.29.1-.53.15l-.69.16c-.46.1-.91.22-1.37.3a4.07,4.07,0,0,1-1.2,0A1.37,1.37,0,0,1,355,465a1,1,0,0,1,0-1,3.65,3.65,0,0,1,.65-1,16.62,16.62,0,0,1,2-1.79c3.25-2.53,6.69-4.73,10.06-7l7.74-5.19.85-.56.43-.28.31-.2c.12-.06.22-.2.38-.17l1.06,0h.73a8.12,8.12,0,0,1,1.1.07,2.16,2.16,0,0,1,1.21.47,3.17,3.17,0,0,1,.37.34c.25.38-.79.71-2.65.86l-1,.07-.26,0h-.09c-.05,0,0,0-.13.1L376,451l-3.56,2.38-7.26,4.81c-1.79,1.22-3.58,2.44-5.29,3.73-.43.32-.85.64-1.26,1s-.18.13-.23.17-.1.12,0,.1Z"/><path class="cls-1" d="M388.48,448.83l1.12,15.24-2,.06-1.72-9.55c-3.59,4.42-12.6,8.51-19.93,11.64-9.64,4.12,17.08-17.6,17.08-17.6Z"/><path class="cls-1" d="M366.83,464.56l.12,0,.08,0h.05l.31-.13,2.81-1.2c2-.85,3.89-1.74,5.78-2.7,1.38-.7,2.71-1.5,4-2.29,1-.58,1.89-1.22,2.78-1.88a29.68,29.68,0,0,0,3.61-3.57c.25,1.25.46,2.64.68,3.91l.4,2.47.69,4.26v.05h.74c-.13-1.51-.25-3-.37-4.51-.26-3.12-.63-6.24-.66-9.36,0-1.95,2,.38,2.25,4l.38,5.22.42,6.5-4.3.08c-.44-2.56-.5-3.07-.69-4.3s-.31-2.21-.47-3.32a6.66,6.66,0,0,1-.09-.8,2.79,2.79,0,0,0-.07-.46c-.14.15-.3.31-.47.46l-.78.66c-.29.24-.59.45-.89.68a36.73,36.73,0,0,1-3.74,2.43c-1.91,1.09-3.86,2.06-5.84,3-1,.46-2,.9-3,1.34l-3.12,1.33-1.38.54-.69.27-.57.13a3.61,3.61,0,0,1-.92,0,1,1,0,0,1-.42-.15.56.56,0,0,1-.24-.45,3.5,3.5,0,0,1,.82-1.88c.28-.35.59-.72.93-1.08l.5-.53.42-.42c2.9-2.86,6-5.48,9-8.12l6.94-6.12.45-.4c.22-.16.4-.43.7-.34h1.21c2.53.07,3.33.22,3.86.74a2.88,2.88,0,0,1,.35.35c.22.4-.82.68-2.68.72l-2.07,0h-.29s-.05,0-.07.06l0,0-.09.08L383,450l-.39.35-3.2,2.81-6.52,5.69c-1.6,1.42-3.21,2.86-4.75,4.33l-1.07,1-.12.12,0,0s-.13.12-.05.11Z"/><path class="cls-1" d="M358.08,138.43c-3,6.51-12.44,2-13.44,1.49-.05-1.6-.2-.23-.26-1.83,4.19,1.76,9.24-.4,13.48-3.15C357.94,135.78,358,137.6,358.08,138.43Z"/><path class="cls-1" d="M357.57,138.19a2.12,2.12,0,0,1,.42,1.44,2.08,2.08,0,0,1-.58,1.14,6.69,6.69,0,0,1-3.77,2,11.27,11.27,0,0,1-4.1-.08,16.84,16.84,0,0,1-2.74-.77c-.44-.16-.88-.34-1.31-.52l-.64-.29-1.14-.55,0-1v-.15s-.06,0,0,0,.42-.12.49-.13l.14-.06h0l-.6.44h0c.06.07,0,0-.08-.11a1.51,1.51,0,0,1-.17-.44,5.59,5.59,0,0,1-.07-.91l-.08-1.47,1.38.57a8.26,8.26,0,0,0,4.61.42A17.23,17.23,0,0,0,354,136c.48-.24,1-.48,1.42-.74l.38-.21.61-.38,1.26-.78.64-.4.32-.2c.08-.08,0,.06.06.1v.18l.12,1.49.13,1.5.07.8a2,2,0,0,1,0,.54.58.58,0,0,1-1,.29c-.09-.07-.24-.14-.24-.22a3.22,3.22,0,0,0-.41-1.12c-.19-.36-.34-.24-.34-.36v-.13c0-.06-.07,0-.1,0l-.28.24s0,0-.11.09l-.26.16-.52.34c-.36.21-.71.43-1.08.62a12.43,12.43,0,0,1-1.84.79,17.83,17.83,0,0,1-2.52.62,16.44,16.44,0,0,1-2.06.26,9.67,9.67,0,0,1-4.3-.69l1.19-.81c0,.09,0,.19,0,.31s.07.27,0,.31l-.42.11-.13.06h0c-.48.34.65-.47.53-.39h0l0,0,.07.09a1.14,1.14,0,0,1,.14.26,2,2,0,0,1,.09.43v.14c-.1,0,.75.35,1.35.56a20.93,20.93,0,0,0,2,.65,12.35,12.35,0,0,0,4.06.43c.3-.05.61-.06.88-.13l.78-.21a5.12,5.12,0,0,0,1.15-.64c.15-.12.3-.21.41-.31l.26-.3.28-.29Z"/><path class="cls-1" d="M250.61,189.77c1.41.5,3.4-.29,4.66-.85,4.85-2.17,8.7-6.58,12.09-10.5.63-.73-2.15-.4-2.64.16-2.87,3.32-6,6.89-9.8,9.17a6.2,6.2,0,0,1-1.91.86c-.07,0,.08,0,0,0-.69-.24-3.29.85-2.37,1.18Z"/><path class="cls-1" d="M311.93,67.82c-6.07,1.42-13.13,1.45-20.07,1.4-5.79,0-11.55.22-17.37.57s-11.64.66-17.46.92c-11.66.54-23.33.82-35,1-10,.15-20.06.19-30.08.28l-15,.17-7.5.15a34.56,34.56,0,0,1-3.93,0,8.8,8.8,0,0,1-4.21-1.35,6.58,6.58,0,0,1-1.49-1.39,4.85,4.85,0,0,1-.55-.84c-.16-.28-.32-.57-.47-.86a9,9,0,0,1-.63-3.8,11.55,11.55,0,0,1,.83-3.58,13.93,13.93,0,0,1,1.72-3.12,11.93,11.93,0,0,1,2.49-2.64,5.51,5.51,0,0,1,.81-.56l.44-.25.54-.21a3.76,3.76,0,0,1,1.29-.23c.34,0,.55,0,.83,0,2.12.1,4.27.14,6.42.19,8.6.15,17.23.19,25.85.24l51.73.23q15.28.12,30.58.35c9.77.13,19.53.44,29.29.7,1.64,0,3.37,0,4.91.16,4.16.33,5.09,1.11,2,1.57a13.58,13.58,0,0,1-2.25.26c-7.56-.21-13.61.56-21.59.27-14.71-.48-29.49-.33-44.25-.34-5.9,0-11.82,0-17.72-.1l-22.63-.32c-5.16-.08-19.86,0-39.14-.41-1.2,0-2.44-.09-3.69-.14-.13,0-.36,0-.42,0a.26.26,0,0,1-.15,0,2.24,2.24,0,0,0-.26.1,1,1,0,0,0-.28.13,6.06,6.06,0,0,0-1.24.94,11.43,11.43,0,0,0-3.31,6,5.79,5.79,0,0,0,.25,3.26,3.27,3.27,0,0,0,.35.73l.2.36L162,68a4.17,4.17,0,0,0,1.2,1c1.92,1,4.75.69,7.58.65,11.26-.27,23-.39,34.66-.51s23.13-.24,33.87-.5,20.71-.68,29.31-1.11,15.86-.83,21.12-.76,8.47.17,9,.19C302.48,67,306.11,67.37,311.93,67.82Z"/><path class="cls-1" d="M302.94,183.4a11.5,11.5,0,0,1,.19-2.05c.46-2.33,1-4.66,1.61-7,.53-2,1.23-3.9,1.89-5.82.57-1.66,1.07-3.34,1.57-5a33.69,33.69,0,0,1,1.91-4.85c.45-.93.92-1.85,1.42-2.77a25.27,25.27,0,0,1,1.5-2.6,2.49,2.49,0,0,1,.29-.43c.32-.34.37-.42.34-.11a1,1,0,0,1,0,.24,3.14,3.14,0,0,0-.1,1.1,4.65,4.65,0,0,1,0,1.18c-.29,1.49-.43,3-.71,4.54a9.4,9.4,0,0,1-.51,1.74c-.29.71-.69,1.38-1,2.07-.23.47-.87,1.82-1.71,3.58s-1.74,4-2.68,6.15-1.81,4.29-2.42,5.92-1,2.74-1.07,2.85C303.33,182.43,303.16,182.84,302.94,183.4Z"/><path class="cls-1" d="M168.37,72.29c-2.42,7.55-6.47,15.53-10,23.64A174.6,174.6,0,0,0,146,138.35l-1.74,11c-.27,1.86-.65,3.7-1,5.54s-.7,3.69-1.15,5.51c-1.59,7.33-3.63,14.54-5.77,21.71-7.57,24.62-17.55,48.38-28.63,71.56l-.84,1.74,0,.06h.05l.12,0,.82,0a50.67,50.67,0,0,1,8.49.76c5.52.87,10.88,2.35,16.09,2.44,10.9.07,21.78-1.4,32.64-3.11s21.77-3.66,32.88-4.5c2.77-.22,5.56-.31,8.34-.4s5.55,0,8.32,0c5.54.07,11.06.31,16.58.59,13,.69,26,1.76,39,3l5.36.51,3.06-5.92c1.17-2.3,2.32-4.59,3.45-6.91,2.25-4.62,4.43-9.28,6.41-14,.38-1,.77-2,1.16-2.93s.71-1.93,1.09-2.82c.95-2.42,1.53-3.84,1.95-4.23s.62.29.42,2.27a16.47,16.47,0,0,1-.54,2.84c-1.65,4.56-3.18,8.64-4.79,12.78a140.05,140.05,0,0,1-5.72,12.83l-2.18,4.21-2.65,5-6.77-.65-5.87-.51q-5.86-.49-11.74-.9-11.74-.82-23.5-1.36c-7.51-.33-15-.59-22.53-.52a204,204,0,0,0-28.57,2.58l-18.05,2.8c-4.27.61-9.12,1.28-14.47,1.74l-4.1.3c-1.4.09-2.83.13-4.28.2s-2.94,0-4.45.07a33.89,33.89,0,0,1-4.69-.31c-6.26-.79-12.52-2.67-19.07-2.86l-1.22,0-1.74.08-2.33.2-1.14.1-.57,0H102c-.08,0,0-.06,0-.09l.12-.26,3.25-6.73c1.5-3.16,3-6.37,4.5-9.64,6-13.05,11.71-26.92,16.79-40.85,2.5-7,4.86-14,7-20.88.54-1.72,1-3.46,1.51-5.17s1-3.42,1.42-5.13.89-3.41,1.33-5.09.79-3.37,1.18-5,.74-3.32,1.06-5,.68-3.26,1-4.88c.52-3.23,1-6.38,1.52-9.53,1-6.25,2.19-12.13,3.52-17.52a170.91,170.91,0,0,1,8.61-25.74c2.67-6.18,4.62-9.84,4.95-10.5C161.89,82.61,164.3,78.58,168.37,72.29Z"/><path class="cls-1" d="M115.09,262.21a31.37,31.37,0,0,1,0,3.76c-.05.62-.11,1.23-.19,1.85,0,.31-.09.61-.14.92l-.07.63a2.27,2.27,0,0,0,0,.42l.49,0,.2,0h.25l1,0,4,.21a265.8,265.8,0,0,0,26.93.13c9-.35,18-1.06,27-1.46,3.89-.19,7.8-.27,11.71-.31l11.68.11,23.31.25,72.49.53,1.95-5.37,8.09-22.27,7.61-21.37c.42-1.2.82-2.47,1.29-3.57,1.28-3,2.24-3.42,2-1a8.28,8.28,0,0,1-.28,1.75c-2,5.52-2.65,10.24-4.79,16.05-3.95,10.73-7.62,21.58-11.43,32.38q-1.16,3.19-2.3,6.42l-9.15-.1-17.55-.35c-8-.12-45.64-.41-81.68-.64-9,0-17.85.55-26.18,1s-16.09.83-22.81.85-12.35-.17-16.41-.45c-2-.11-3.67-.23-4.86-.35l-2.28-.21-1.91-.19-.93-.11h-.18l0-.06.07-.24.15-.47c.37-1.2.75-2.4,1-3.08C113.7,266.24,114.33,264.43,115.09,262.21Z"/><path class="cls-3" d="M383.89,346.09a74.89,74.89,0,0,1-14.36,3.08,54.3,54.3,0,0,1-14.57-.43c-.32-.07-.75,2.38-.39,2.42a56.63,56.63,0,0,0,15.22.44,76.94,76.94,0,0,0,14.83-3.17C384.88,348.35,384.14,346,383.89,346.09Z"/><path class="cls-1" d="M348.08,97c-.13.25-.42.18-.85,0-.14-.07-.4-.41-.37-.5a2.79,2.79,0,0,1,.21-.53,10.85,10.85,0,0,1,1.75-1.4,6.79,6.79,0,0,1,1.4-.7,19.68,19.68,0,0,1,3-.87,2.72,2.72,0,0,1,.7-.06c.81,0,1.6,0,2.41-.09a.82.82,0,0,0,.41,0,4.24,4.24,0,0,1,1.35,0,6.93,6.93,0,0,1,1.39.3,10.48,10.48,0,0,1,1.95,1.12c.08.06.2.08.24.21a1,1,0,0,0,.45.53,2.61,2.61,0,0,1,.61.71,1.66,1.66,0,0,1,.15.46c0,.14-.23.25-.28.24s-.18.12-.25.2-.06.06-.09.07a3.8,3.8,0,0,1-.73-.34c-.36-.15-.74-.26-.8-.31a5.74,5.74,0,0,0-1-.42l-.74-.19-.46-.06a.91.91,0,0,1-.35-.12,6.27,6.27,0,0,0-.9,0c-.44,0-.89.05-.92,0a3.55,3.55,0,0,1-1.07-.07.5.5,0,0,0-.21,0c-.62.1-1.24.13-1.86.24a5.19,5.19,0,0,0-.94.24h-.17a.78.78,0,0,0-.22,0,11.14,11.14,0,0,0-2.12.84,8.78,8.78,0,0,0-1.13.44C348.61,97,348.13,96.9,348.08,97Z"/><path class="cls-1" d="M352.64,112.72a7.74,7.74,0,0,1-3.87-1.64,5.81,5.81,0,0,1-1.9-3.9,8.72,8.72,0,0,1-.06-1v-.49c0-.16,0-.13,0-.21s0-.15,0-.19a.71.71,0,0,0-.21,0,1.06,1.06,0,0,0-.21,0l-.4,0c-.27,0-.54,0-.81,0a9.18,9.18,0,0,0-1.64.2,10.21,10.21,0,0,0-1.44.39l-.21.08-.09,0c-.08,0-.07.08-.06.15v.29c0,.19,0,.38,0,.58a7.25,7.25,0,0,1-.21,1.13,7.17,7.17,0,0,1-2.93,4.35,15.24,15.24,0,0,1-4.6,1.8,11.85,11.85,0,0,1-2.47.33,5.75,5.75,0,0,1-2.64-.51,4.2,4.2,0,0,1-1.82-2.09,10,10,0,0,1-.68-2.4c-.24-1.42-.33-2.81-.54-4.13-.06-.33-.12-.65-.2-1s-.19-.53-.31-1a2.06,2.06,0,0,1,.23-1.48,2.81,2.81,0,0,1,1-.93,13.41,13.41,0,0,1,5.25-1.81,23.34,23.34,0,0,1,5.41-.17c1.13.11.92.59,0,1a16,16,0,0,1-4.49,1.11,21.35,21.35,0,0,0-2.48.45,9.44,9.44,0,0,0-1.1.37c-.38.16-.82.35-1.16.51a2.55,2.55,0,0,0-.68.45c0,.06,0-.06,0,.15l.18.6c.08.26.12.5.18.75.09.49.16,1,.22,1.42a25,25,0,0,0,.8,5,2.78,2.78,0,0,0,1.09,1.51,4.31,4.31,0,0,0,2.12.34,12.84,12.84,0,0,0,5.81-1.84,4.87,4.87,0,0,0,1.73-2.19,7.45,7.45,0,0,0,.44-1.41c0-.24.08-.49.1-.74l0-.37c0-.12,0-.41,0-.6v-.06a4.3,4.3,0,0,1,.12-.66v0l.13.08h0l.05-.06.09-.12c.08-.08.12-.18.23-.24a3.82,3.82,0,0,1,.68-.31l.49-.17a13.7,13.7,0,0,1,1.89-.46,10.55,10.55,0,0,1,1.95-.16,8.21,8.21,0,0,1,1,0,5,5,0,0,1,.63.1c.22,0,.44.07.68.14l.7.17.17,0s0,.11,0,.16l0,.36-.1,1.35a7.52,7.52,0,0,0,.09,1.65,3.76,3.76,0,0,0,1.54,2.57,7.63,7.63,0,0,0,3.9,1.1,9.73,9.73,0,0,0,4.13-.74,8.58,8.58,0,0,0,1.4-.75l.33-.22c.1-.09.23-.17.27-.21a5.19,5.19,0,0,0,.44-.56,7.11,7.11,0,0,0,.94-3c.14-1.09.16-2.23.32-3.39s.34-2.25-.27-2.73a4.71,4.71,0,0,0-2.16-.72,21.31,21.31,0,0,0-2.52-.26,19.53,19.53,0,0,0-5,.36c-.35.07-.68.19-1,.29l-.47.18a2.42,2.42,0,0,0-.36.16.15.15,0,0,0-.11.11l-.11.26-.3.72c-.18.43-.33.78-.45,1.08a2.93,2.93,0,0,1-.77,1.15,2.9,2.9,0,0,1-.4.34c-.4.26-.67-1.06,0-3.17l.19-.59.1-.29.06-.14.09-.23.21-.47c0-.1.1-.13.18-.17l.23-.12.45-.22.3-.14a11.33,11.33,0,0,1,2.49-.71,20.44,20.44,0,0,1,5.06-.24,22.24,22.24,0,0,1,2.54.3c.43.08.86.17,1.31.3a4.35,4.35,0,0,1,1.54.75,3.07,3.07,0,0,1,1.06,1.74,5.28,5.28,0,0,1,.06,1.61c-.1,1-.22,1.6-.26,2.42a18.66,18.66,0,0,1-.53,3.87,7,7,0,0,1-.91,2,4,4,0,0,1-.34.47l-.2.23a1.33,1.33,0,0,1-.3.28,8.67,8.67,0,0,1-.87.61,11.58,11.58,0,0,1-7.9,1.55Z"/><path class="cls-1" d="M345,124c-.17,0-.18-.19-.07-.55a1.52,1.52,0,0,1,.28-.44,1.76,1.76,0,0,1,.27-.14,5.94,5.94,0,0,0,.78,0,2.07,2.07,0,0,1,.5,0,3.86,3.86,0,0,0,1,0,.93.93,0,0,1,.23,0,1.13,1.13,0,0,0,.79-.09s.09,0,.11-.09a3.19,3.19,0,0,1,.75-.41,2.87,2.87,0,0,0,.68-.23s0,0,.11,0,.18,0,.24-.07.16-.14.26-.2a.78.78,0,0,1,.24,0c.08,0,.25.13.26.16s.15.1.23.14l.08,0a1.27,1.27,0,0,1,0,.47,1.56,1.56,0,0,1-.16.5s-.21.26-.43.5-.5.45-.56.49a.49.49,0,0,1-.21.08,7.45,7.45,0,0,1-.91.53.91.91,0,0,1-.61.08.14.14,0,0,0-.11,0,3.52,3.52,0,0,1-1,.08h-.52l-.09,0-.12,0c-.41,0-.8-.15-1.21-.21-.1,0-.47-.3-.57-.33S345.06,124,345,124Z"/><path class="cls-1" d="M401.35,133.51s-18.41,14.3-41-1.07c0,0,3.92-4.62,4.73-6.37,3.95-6.87,6.32-14.63,6.19-20.77,9.46,0,10.06-13.59,4.3-13.57-3.6,0-5.74,4.4-5.74,4.4-5,1.7-9.26-16.18-9.26-16.18-9,7.34-26.82,13.71-31.93,11.53-.6,1.4-1,8.27-1,8.27s-5.16-3.36-7-.21c-2.81,4.83.21,10.18,6.6,10.74,3.93,21.44,15.88,26.22,15.88,26.22s-16.27,18.51-42.21,9c-15.3-5.61-4.05-25.93.54-37.17,6-14.88,5.7-33.57,18.15-45.32a35.42,35.42,0,0,1,21.27-9.7C351,52.61,359,61.06,361.4,60.41c6.59-1.79,15.07-3.18,21.19-.84,12.55,4.79,11.58,20.68,14.09,32.25C398.6,100.75,410.61,125.63,401.35,133.51Z"/><path class="cls-1" d="M400.92,133a23.88,23.88,0,0,1-6,4.16c-.56.32-1.15.55-1.75.82a18.07,18.07,0,0,1-1.82.71l-1.9.62-2,.46a31.76,31.76,0,0,1-16.44-.9c-1-.35-2-.67-3-1l-2.87-1.34c-.47-.23-1-.42-1.42-.69l-1.35-.82-3.71-2.24,1.16-1.38.89-1.08L362,128.7a24,24,0,0,0,2.09-3.08l0-.07v0a50.24,50.24,0,0,0,4.68-11.12,36.36,36.36,0,0,0,1.15-5.88c0-.49.1-1,.11-1.49l0-.38c0-.13,0-.2,0-.5v-1.45c-.21-.68.53-.47,1-.54l.72,0,.38,0,.21,0a4.81,4.81,0,0,0,.66-.13,3.38,3.38,0,0,0,.62-.18c3.35-1.07,5.11-5.41,4.16-8.72a3.06,3.06,0,0,0-1.21-1.81,1.7,1.7,0,0,0-.9-.27,3.24,3.24,0,0,0-1.09.14,5.25,5.25,0,0,0-2.07,1.36,8.69,8.69,0,0,0-.88,1c-.13.19-.27.38-.39.58l-.09.14-.18.32-.34.67a4.82,4.82,0,0,1-2.28.18,4.33,4.33,0,0,1-1.57-.75,9.06,9.06,0,0,1-1.93-2.12,26.47,26.47,0,0,1-2.41-4.62c-.66-1.57-1.23-3.16-1.74-4.76-.26-.81-.5-1.61-.73-2.42l-.17-.59s0,0-.5.36c-.7.49-1.4,1-2.11,1.42-1.43.91-2.89,1.74-4.38,2.52a74.19,74.19,0,0,1-9.22,4.07,57.44,57.44,0,0,1-7.28,2.12,28.56,28.56,0,0,1-3.85.56,17.14,17.14,0,0,1-2,0l-.53-.06-.33,0h0s0,0,0,0l-.09.55c-.1.68-.18,1.37-.25,2.07l-.2,2.11-.29,4.16a29.4,29.4,0,0,0-3.11-1.83c-.29-.14-.36-.16-.48-.21s-.23-.1-.35-.13-.47-.15-.7-.21a2.28,2.28,0,0,0-2.09.22c-.13.06-.18.24-.3.34l-.32.64a5.61,5.61,0,0,0-.44,1.35,5.18,5.18,0,0,0,.14,2.71,6.14,6.14,0,0,0,4,3.72,4.52,4.52,0,0,0,.72.2,5.9,5.9,0,0,0,1,.19l1.43.2c.13.51.23,1.07.36,1.62l.36,1.72c.13.54.22,1.09.38,1.63a42.85,42.85,0,0,0,5,12.22,27.75,27.75,0,0,0,4,5.18,23.62,23.62,0,0,0,2.42,2.16c.43.31.86.64,1.31.91.06,0,.36.24.58.36s.51.25.77.38l1.61.73c-.77.86-1.67,1.85-2.52,2.62-.51.49-1.05.92-1.58,1.38l-1.64,1.29-1.7,1.19c-.56.41-1.18.73-1.77,1.1a17.86,17.86,0,0,1-1.81,1l-1.85.95-1.92.81a37.27,37.27,0,0,1-10.07,2.61,37.75,37.75,0,0,1-5.21.3h-.65l-.65-.05-1.3-.11c-.86-.08-1.73-.13-2.59-.23l-2.56-.5-1.27-.25-.64-.13-.62-.19-2.48-.76a22.89,22.89,0,0,1-2.49-.85,13.08,13.08,0,0,1-4.57-3.06,11.31,11.31,0,0,1-2.71-4.87,22,22,0,0,1,.29-10.6A68.24,68.24,0,0,1,296,118c1.28-3.16,2.69-6.24,4-9.33a80,80,0,0,0,3.16-9.45c1.75-6.46,3-13.13,5.21-19.64a51,51,0,0,1,4.16-9.47,36.45,36.45,0,0,1,24.88-17.55,26.43,26.43,0,0,1,5.29-.46A21.76,21.76,0,0,1,348,53a40.92,40.92,0,0,1,9.4,4.42c.74.44,1.47.88,2.18,1.26a8.34,8.34,0,0,0,1,.47,1.78,1.78,0,0,0,.41.12.64.64,0,0,0,.14,0,60.23,60.23,0,0,1,10.68-2,26.27,26.27,0,0,1,11.05,1.14,16.9,16.9,0,0,1,8.64,7.18A31.37,31.37,0,0,1,395.27,76c.78,3.81,1.23,7.63,1.82,11.37a55.53,55.53,0,0,0,1.09,5.49c.49,1.78,1.1,3.59,1.7,5.39,2.43,7.22,5.1,14.5,6,22.35a22.68,22.68,0,0,1-.33,8.09,10.63,10.63,0,0,1-1.92,3.9A5.16,5.16,0,0,1,402,134c-.31.14-.34,0-.1-.42a15.23,15.23,0,0,0,1.27-2.18,10.93,10.93,0,0,0,.59-1.61c.12-.57.29-1.14.39-1.72a22.42,22.42,0,0,0,0-8.37,58.86,58.86,0,0,0-1.92-7.83c-1.57-5.15-3.64-10.19-5.56-16.2-.38-1.25-.77-2.52-1-3.84s-.5-2.58-.69-3.87l-1.15-7.69a59,59,0,0,0-1.61-7.45,22.14,22.14,0,0,0-3.06-6.73,14.62,14.62,0,0,0-5.37-4.7,16.79,16.79,0,0,0-7-1.77,48.13,48.13,0,0,0-15,2,2.77,2.77,0,0,1-.85.07,3.8,3.8,0,0,1-.68-.12,6.77,6.77,0,0,1-1-.38c-.62-.28-1.16-.59-1.7-.89l-3.1-1.79c-3.91-2.24-8.12-4-12.43-3.93a30.94,30.94,0,0,0-12.76,3.3A36.22,36.22,0,0,0,322,62.52a33.86,33.86,0,0,0-5.79,6.23,43.29,43.29,0,0,0-4.14,7.53,79.24,79.24,0,0,0-2.84,8.24c-.44,1.55-1,3.69-1.66,6.35s-1.4,5.86-2.39,9.48c-.26.9-.53,1.83-.81,2.78s-.63,1.92-.95,2.92-.74,2-1.15,3-.87,2-1.31,3.07a125.38,125.38,0,0,0-5.28,13.39,33.1,33.1,0,0,0-1.47,7.5,12.54,12.54,0,0,0,1.53,7.33,11,11,0,0,0,6.3,4.38c1.35.4,2.7.86,4.08,1.23l4.23.82a37.23,37.23,0,0,0,17.26-1.73,37.71,37.71,0,0,0,8-3.85,41.17,41.17,0,0,0,3.6-2.56c.58-.46,1.12-1,1.67-1.43l.34-.33s.15-.11.12-.15l-.17-.08-.38-.24c-.54-.36-1.09-.73-1.59-1.14a18,18,0,0,1-1.48-1.27c-.49-.42-.92-.89-1.37-1.35a35.05,35.05,0,0,1-4.48-6,48.75,48.75,0,0,1-5.1-13.43c-.12-.57-.25-1.14-.37-1.7l0-.21c0-.06-.2,0-.29-.07l-.17,0-.41-.1c-.3-.08-.61-.14-.9-.24a10.78,10.78,0,0,1-1.72-.72,7.62,7.62,0,0,1-3.88-9.53,9.62,9.62,0,0,1,.75-1.63,3.66,3.66,0,0,1,1.6-1.46,4.15,4.15,0,0,1,2-.37,7.61,7.61,0,0,1,1.77.3c.27.09.54.17.8.27l.39.16.11,0,.26.14s0-.15,0-.22,0-.4.05-.6c.07-.79.15-1.52.21-2.22s.16-1.36.26-2l0-.25c0-.08,0-.25.07-.38l.18-.81c.16-.47.32-1,.51-1.44.46.17.91.32,1.38.45l.35.11.21,0H330l.33.05a11.92,11.92,0,0,0,1.34,0,20.06,20.06,0,0,0,2.71-.27,40.59,40.59,0,0,0,5.05-1.2,65.55,65.55,0,0,0,8.48-3.18,64.48,64.48,0,0,0,6.68-3.45c1-.58,1.92-1.18,2.8-1.78l.65-.45,1-.74c.65-.47,1.46-1.14,2.19-1.7.29,1.23.58,2.44.89,3.52.17.6.34,1.19.51,1.75.34,1.12.68,2.15,1,3.09a41.81,41.81,0,0,0,2,4.8,13,13,0,0,0,2.07,3.1,2.73,2.73,0,0,0,1,.74.61.61,0,0,0,.21.06.16.16,0,0,0,.09,0,.21.21,0,0,0,.13,0l0-.06.13-.21c.15-.24.31-.47.47-.69a10.81,10.81,0,0,1,1.06-1.27A7.63,7.63,0,0,1,373.62,91a5.48,5.48,0,0,1,1.69-.35,4.22,4.22,0,0,1,1.78.26,4.63,4.63,0,0,1,2.46,2.32,8.87,8.87,0,0,1,.61,5.56,10,10,0,0,1-2.12,4.56,9.08,9.08,0,0,1-1.8,1.61,8.82,8.82,0,0,1-2.09,1,10.3,10.3,0,0,1-1.06.27l-.53.08h-.1c-.15,0-.12.1-.12.21a31.34,31.34,0,0,1-.31,3.4c-.15,1.09-.36,2.1-.57,3a47.48,47.48,0,0,1-3,8.76c-1,2.17-1.81,3.69-2.48,4.88l.05-.08a15.17,15.17,0,0,1-1.24,2c-.38.53-.72,1-1,1.38l-1.42,1.8c-.23.28-.32.38-.39.48l2,1.2a19.47,19.47,0,0,0,2.77,1.45c.88.4,1.7.83,2.49,1.15l2.28.78a24.94,24.94,0,0,0,3.73,1c.54.11,1,.26,1.48.31l1.26.14,1.87.22c.5,0,.88,0,1.17,0h1a37.84,37.84,0,0,0,4.23-.19,41.28,41.28,0,0,0,4.46-.84c.39-.1.79-.18,1.19-.29l1.2-.39a25.92,25.92,0,0,0,2.52-.93A28.86,28.86,0,0,0,400.92,133Z"/><path class="cls-1" d="M221.24,110.53l-18.38-.07c-2.24,0-4.47,0-6.71,0-1.75,0-3.55-.1-5.27-.16s-3.52-.12-5.31-.35a12,12,0,0,1-2.77-.61c-.47-.19-.87-.44-1.17-.56a2,2,0,0,0-.94-.13,4.53,4.53,0,0,0-2.07.87,7.13,7.13,0,0,1-2.66,1.16l-.77.11v-.72a3.33,3.33,0,0,1,0-.83,1.67,1.67,0,0,1,.1-.43l0-.1v0l0-.06a1.39,1.39,0,0,1,.43-.44c.38-.25.85-.51,1-1v-.06h0l-.11,0-.23,0a1.44,1.44,0,0,0-.46,0,2.2,2.2,0,0,0-.83.4,5.51,5.51,0,0,0-.67.61l-1.22,1.32a10.78,10.78,0,0,1-2.71,2.3,5.22,5.22,0,0,1-.93.35,5.09,5.09,0,0,1-1,.09,3.18,3.18,0,0,1-1-.16,1.85,1.85,0,0,1-1-.78,1.77,1.77,0,0,1-.15-1.27,3.55,3.55,0,0,1,.36-1,6.9,6.9,0,0,1,1.06-1.47,10,10,0,0,1,2.75-2.17c.67-.35,1.07-.31,1.06-.2s-.3.34-.71.76a15.83,15.83,0,0,0-2.35,3.07,4.07,4.07,0,0,0-.5,1.26c0,.07,0,0,0,0h0l.17,0a2.56,2.56,0,0,0,.64,0,2.15,2.15,0,0,0,.57-.14,7.69,7.69,0,0,0,2.48-2l.64-.69.79-.83c.44-.46.9-.79,1.35-1.18a3.27,3.27,0,0,1,.64-.41c.21-.11.43-.26.63-.34a4.45,4.45,0,0,1,2.14-.38,4.62,4.62,0,0,1,1,.17c.39.08.83.17,1.18.26-.17.63-.29,1-.39,1.28a3.49,3.49,0,0,1-.35.75,4.62,4.62,0,0,1-1.23,1.35c-.3.22-.61.45-.82.63l-.36.29a.46.46,0,0,0-.14.17l-.05.09s0,0,0,0a.47.47,0,0,0,0,.14,2.3,2.3,0,0,0,0,.39l-1.25-1a8.36,8.36,0,0,0,2.64-1.31,5.41,5.41,0,0,1,2-.7,3.85,3.85,0,0,1,2.18.35,6.5,6.5,0,0,0,1.71.72c.64.14,1.3.25,2,.33,1.35.15,2.73.2,4.13.24l4.22.11,4.21,0,18.51.1,11.39,0c5.75,0,11.53,0,17.24-.09,4.44-.06,8.79-.22,13.17-.34l2.89-.08a23.61,23.61,0,0,1,3.83.12,4.83,4.83,0,0,1,1.71.45,3,3,0,0,1,.51.27c.35.28-1.12.57-3.76.81-7.84.38-16.11.49-24.41.55l-18.55.08Z"/><path class="cls-1" d="M183.18,128.89c-.81,0-1.61,0-2.43,0a18.34,18.34,0,0,1-2.5-.19,13.38,13.38,0,0,1-1.79-.45,21.73,21.73,0,0,0-2.84-.92,7.56,7.56,0,0,0-2.88,0c-.89.14-1.79.34-2.72.44a6.34,6.34,0,0,1-1.84-.06,2.94,2.94,0,0,1-1.65-.94c-.26-.3,0-.38.32-.34s.86.13,1.37.25a8,8,0,0,0,3.21-.22,13.07,13.07,0,0,1,3.68-.4,31,31,0,0,1,4.34,1,8.26,8.26,0,0,0,2.23.28c.78,0,1.57,0,2.36,0,1,0,1.94-.11,2.92-.19l4.49-.3c1.16-.07,2.31-.19,3.48-.19h.77c1,.07,1.26.26,1.39.73a2,2,0,0,1,.08.33c0,.36-.4.59-1.06.6-2,0-4,.12-6.13.28-1.56.12-3.17.26-4.79.31Z"/><path class="cls-1" d="M182.09,151.79c-.75.06-1.52.1-2.3.11h-1a4.75,4.75,0,0,0-.92.15c-.66.16-1.37.4-2.16.59a4.82,4.82,0,0,1-2.79,0,4.45,4.45,0,0,1-1.62-1.28,2.63,2.63,0,0,0-.81-.72s-.06,0-.08,0a2.5,2.5,0,0,0-.86.29c-.38.18-.76.41-1.16.64s-.78.48-1.29.72a6.14,6.14,0,0,1-1.54.46,8.24,8.24,0,0,1-3-.1,4.59,4.59,0,0,1-2.73-1.65,3.66,3.66,0,0,1-.37-.71,2,2,0,0,1-.08-.9A2.61,2.61,0,0,1,160,148a2.39,2.39,0,0,0,.4-.45c0-.11-.07-.18-.16-.22a1.38,1.38,0,0,0-.29-.08,2.77,2.77,0,0,0-1.1,0,6.81,6.81,0,0,0-1.41.46,10.59,10.59,0,0,1-3.22,1c-.83,0-.6-.41-.11-.82a8.52,8.52,0,0,1,2.33-1.6,11.35,11.35,0,0,1,1.71-.61,4.75,4.75,0,0,1,1-.14,4.55,4.55,0,0,1,1.27.15,3.6,3.6,0,0,1,1.36.56,1.47,1.47,0,0,1,.37.46,1.21,1.21,0,0,1,.12.61,1.7,1.7,0,0,1-.58,1.14l-.55.55a1.55,1.55,0,0,0-.22.26.55.55,0,0,0-.14.28.31.31,0,0,0,0,.22,1.76,1.76,0,0,0,.73.73,5.27,5.27,0,0,0,2.67.59,5.48,5.48,0,0,0,1.4-.17,4.11,4.11,0,0,0,1.27-.59c.46-.28.93-.59,1.45-.88.26-.14.53-.28.84-.41a2.72,2.72,0,0,1,1.15-.25,2.3,2.3,0,0,1,1.17.4,3.37,3.37,0,0,1,.73.65c.54.61.93,1.08,1.31,1.15a3.82,3.82,0,0,0,1.82-.15c.68-.17,1.39-.43,2.18-.61a6.39,6.39,0,0,1,1.27-.16H180c1.78-.05,3.6-.31,5.47-.47.7-.06,1.42-.1,2.14-.11l2.08,0c1.39,0,2.78-.09,4.17-.15,2.16-.09,4.29-.27,6.48-.18.48,0,1,0,1.44.09,1.81.21,2.34.66,2.58,1.19a2.3,2.3,0,0,1,.15.38c0,.4-.71.46-1.93.42a110.34,110.34,0,0,0-11.59.12c-1.48.08-3.1,0-4.46.1s-2.91.26-4.44.4Z"/></g></svg>