<svg id="Layer_1" data-name="Layer 1" xmlns="http://www.w3.org/2000/svg" width="520" height="520" viewBox="0 0 520 520"><defs><style>.cls-1{fill:none;stroke:#221f1f;stroke-miterlimit:10;stroke-width:3px;}.cls-2{fill:#221f1f;}</style></defs><title>Notioly v2</title><g id="_44.Photographer" data-name="44.Photographer"><path class="cls-1" d="M208.71,144.74c-1.37-5.65-2-7.25-2.41-10.63"/><path class="cls-1" d="M269.65,203c-3.66,3.71-8.25,5.47-14.06,5.47-11.18,0-19.38-8.34-26.88-20.37"/><path class="cls-1" d="M285.89,130.66c-.43,4.74-.61,7.82-1,13.69"/><path class="cls-2" d="M255.59,128.59c-14,0-25.36,11.95-25.36,26.68S241.58,182,255.59,182s25.35-11.94,25.35-26.68S269.59,128.59,255.59,128.59Zm0,44.14c-9.17,0-16.59-7.81-16.59-17.46s7.42-17.46,16.59-17.46,16.59,7.82,16.59,17.46S264.75,172.73,255.59,172.73Z"/><path class="cls-2" d="M265.18,143.41a14.6,14.6,0,0,0-6.29-3.52,14.07,14.07,0,0,0-7.26,0,15,15,0,0,0-4.79,2.39,14.65,14.65,0,0,0-3.4,3.36,15.48,15.48,0,0,0-2.28,4.26,17,17,0,0,0-.52,9.68,17.55,17.55,0,0,0,.65,2.1,15.52,15.52,0,0,0,1,2,15.15,15.15,0,0,0,2.66,3.44,17.15,17.15,0,0,0,9.86,4.51c1.13.16,1.05.92-.06,1.6a6.72,6.72,0,0,1-5.82.19,18.44,18.44,0,0,1-9.68-9.06,19.43,19.43,0,0,1-1.34-13,21.39,21.39,0,0,1,3.3-7.26,17.88,17.88,0,0,1,6-5.39,17.07,17.07,0,0,1,16.94.32,18.38,18.38,0,0,1,7.1,7.86,19.72,19.72,0,0,1,.46,15.63,19.12,19.12,0,0,1-7.82,9.37l-1.21.67c-.41.19-.84.37-1.27.55a15.51,15.51,0,0,1-2.12.6,9.64,9.64,0,0,1-1.49.1,2.34,2.34,0,0,1-1.65-.65,3,3,0,0,1-.46-.51c-.16-.3.1-.59.63-.84a8.31,8.31,0,0,1,1-.36c.39-.15.86-.28,1.37-.42a16.24,16.24,0,0,0,7.83-5.32,16.54,16.54,0,0,0,2.46-4.18,18,18,0,0,0,1.15-4.76,17.18,17.18,0,0,0-1-7.21,15.46,15.46,0,0,0-4-6.05Z"/><path class="cls-2" d="M273.35,176.84a26.66,26.66,0,0,1-11.74,6.07,25.82,25.82,0,0,1-13.15-.45A26,26,0,0,1,234.1,172a27.34,27.34,0,0,1-3.66-7.55,28.18,28.18,0,0,1-1.34-8.23,28.68,28.68,0,0,1,1-8.25l.23-.9.31-.87.63-1.74a31.88,31.88,0,0,1,1.63-3.32,27.4,27.4,0,0,1,4.4-5.9A25.8,25.8,0,0,1,245,129.7a22.21,22.21,0,0,1,9.22-2.09c2,0,1.65.77.12,1.59s-4.12,1.86-7.06,3a24.71,24.71,0,0,0-12.33,11.37,27.46,27.46,0,0,0-2.65,16.94,24.7,24.7,0,0,0,12.07,17.1,23,23,0,0,0,22.83.07,25,25,0,0,0,10.05-10.65,27,27,0,0,0,.85-22,24.92,24.92,0,0,0-11.4-12.41l-1.68-.79-1.75-.63a12.35,12.35,0,0,0-1.52-.47l-1.28-.37c-.79-.15-1.42-.3-1.95-.45a5.32,5.32,0,0,1-2.17-1,4.53,4.53,0,0,1-.68-.57c-.24-.31.14-.57,1.08-.74a10.12,10.12,0,0,1,1.79-.18c.72,0,1.57.1,2.51.22a25.69,25.69,0,0,1,14.87,8.49,27.68,27.68,0,0,1,4.75,7.58,30.69,30.69,0,0,1,2.17,8.75A30.25,30.25,0,0,1,281,165.84a28.51,28.51,0,0,1-7.57,11Z"/><path class="cls-2" d="M269.92,203.65A30,30,0,0,1,262,200c-.62-.43-1.22-.88-1.8-1.36A19.71,19.71,0,0,1,258.6,197l-2.7-3.14c-.65-.75-1.32-1.49-2-2.13-.16-.17-.32-.3-.45-.42a1.88,1.88,0,0,0-.37-.22l-1.3-.66a50.66,50.66,0,0,1-9.36-5.61,13,13,0,0,1-1.07-1,8,8,0,0,1-.51-.62l-.23-.35a5,5,0,0,1-.24-.46,3,3,0,0,1-.27-2,3.19,3.19,0,0,1,1.14-1.69,3.76,3.76,0,0,1,.74-.49,4.83,4.83,0,0,1,.92-.41,1.73,1.73,0,0,1,1-.1,4.72,4.72,0,0,1,.95.35l2.42,1.15a34.32,34.32,0,0,0,8.67,2.86,28,28,0,0,0,11.35-.41c1.14-.28,1.31.46.51,1.5a7.46,7.46,0,0,1-5.24,2.47,30.06,30.06,0,0,1-12.8-2.16,57.68,57.68,0,0,1-5.72-2.61l-.31-.15,0,0s-.06,0-.1,0-.06,0-.13,0l-.33.17a.4.4,0,0,0-.21.23.43.43,0,0,0,0,.16.29.29,0,0,0,0,.09l0,0,.06.11a5.07,5.07,0,0,0,1,1.11,12.09,12.09,0,0,0,1.34,1.07,31.52,31.52,0,0,0,3.09,1.91c1.08.59,2.2,1.15,3.32,1.69l1.71.83.87.43.49.27a3.83,3.83,0,0,1,.57.41,21.21,21.21,0,0,1,1.57,1.6l1.39,1.58,2.71,3.12.66.72.31.29.37.3a15.17,15.17,0,0,0,1.59,1.13,22.94,22.94,0,0,0,3.51,1.84,30.74,30.74,0,0,0,4.68,1.6c.21,0,.37.08.63.16a4.18,4.18,0,0,1,.79.32,4.31,4.31,0,0,1,.64.37,6.55,6.55,0,0,1,.58.4,23,23,0,0,1,2,1.71,138.75,138.75,0,0,1,10.52,11.53c2.57,3.06,5.16,6,7.61,9.15.54.69,1.08,1.35,1.6,2.07,1.92,2.65,2.3,3.69,2,4.69a3.53,3.53,0,0,1-.21.67c-.37.58-1.44-.29-2.89-2.12-4.35-5.43-9-11.17-13.84-16.72-1.81-2-3.65-4.07-5.57-6a29.6,29.6,0,0,0-2.91-2.58,5.46,5.46,0,0,0-1.11-.68c-.68-.16-1.42-.35-2.12-.56Z"/><path class="cls-2" d="M133.14,302.13c3.35-10.08,8.49-19.3,14.11-28.07a287.26,287.26,0,0,1,18.48-25.16c4.78-5.89,9.65-11.68,14.7-17.32l6.71-7.41,3.38-3.67c.58-.62,1.12-1.22,1.64-1.82s1.06-1.25,1.57-1.89A125.42,125.42,0,0,0,205,200.6a48.5,48.5,0,0,0,4-8.82,15,15,0,0,0,.32-9.17c-.76-3.09-2.18-6.08-3.3-9.3-.29-.8-.54-1.63-.77-2.46l-.63-2.43c-.42-1.62-.81-3.26-1.13-4.93a34.88,34.88,0,0,1-.67-9.09,19.54,19.54,0,0,1,.87-4.6,18.23,18.23,0,0,1,2.09-4.19,42.65,42.65,0,0,1,5.95-6.84c1.05-1,2.14-2.05,3.12-3.07s2-2.14,3.06-3.21a18.68,18.68,0,0,1,4.26-3.25,16.47,16.47,0,0,1,5.19-1.55,30.3,30.3,0,0,1,10.49.45c.17,0,.54.13.85.22l1,.27c.31.1.59.24.88.35a2.63,2.63,0,0,1,.77.39l.61.45a1.83,1.83,0,0,1,.4.57,1.63,1.63,0,0,1-.17,1.48A6.07,6.07,0,0,1,239.4,134l-.93.38-.63.23-1.25.4a63.33,63.33,0,0,1-10.06,2,3.93,3.93,0,0,0-1.45,1c-.57.48-1.13,1-1.69,1.55-2.22,2.16-3.06,2.47-2.66,1.45a15.18,15.18,0,0,1,1.41-2.43c.38-.55.81-1.16,1.36-1.83.28-.33.58-.67.95-1a7.76,7.76,0,0,1,.65-.53,3.23,3.23,0,0,1,1-.46c2-.5,4.17-1,6.57-1.71,1.19-.34,2.42-.71,3.63-1.15l.9-.34.12,0h0a0,0,0,0,0,0,0h0l-.13,0-.65-.14a29.05,29.05,0,0,0-5.35-.53,20.31,20.31,0,0,0-5.21.55,11.46,11.46,0,0,0-2.29.81,11.33,11.33,0,0,0-2.06,1.34,40,40,0,0,0-3.92,3.83c-.66.7-1.41,1.46-2.1,2.11l-2.07,2c-2.69,2.62-5.25,5.34-6.63,8.44a11.87,11.87,0,0,0-.78,2.36,20.36,20.36,0,0,0-.38,2.6,27.12,27.12,0,0,0,.15,5.39,53.7,53.7,0,0,0,1,5.49l.68,2.77c.24.93.48,1.87.72,2.72,1,3.5,2.84,7,3.81,11a21.05,21.05,0,0,1,.51,3.08c.06.53.07,1.06.09,1.58s-.07,1.09-.11,1.63l-.07.81c0,.26-.11.51-.16.77l-.35,1.53c-.3,1-.62,1.95-1,2.9A76,76,0,0,1,204.28,207c-2.62,4-5.41,7.87-8.43,11.62-.75.94-1.52,1.87-2.34,2.79L191.1,224l-4.79,5.3q-4.77,5.29-9.42,10.67c-6.79,7.87-13.36,15.94-19.48,24.32A186.7,186.7,0,0,0,141,290.69a82.71,82.71,0,0,0-6.64,17.76c-1.4,6.1-1.78,12.57.15,18.47a23.09,23.09,0,0,0,3.13,6.21A10.7,10.7,0,0,0,140,335.5a6.75,6.75,0,0,0,2.94,1.17,10.37,10.37,0,0,0,6.36-1.67,30.68,30.68,0,0,0,5.59-4.31,82.93,82.93,0,0,0,9.35-10.94c2.86-3.87,5.5-7.91,8-12A406.73,406.73,0,0,0,193,268.51l4.08-8.84c5.06-11.08,6.71-14.58,8.48-16.67a16.39,16.39,0,0,1,1.17-1.38c1-.85-.43,4-3.94,12.19-5.23,12.21-11,24.58-17.49,36.84-3.25,6.13-6.65,12.23-10.34,18.23a163.56,163.56,0,0,1-12.14,17.44,71.94,71.94,0,0,1-5.4,5.95,34.83,34.83,0,0,1-6.49,5.16,18,18,0,0,1-4,1.79,11.17,11.17,0,0,1-4.77.29,9.62,9.62,0,0,1-4.39-2.07,14.88,14.88,0,0,1-3-3.38,28.84,28.84,0,0,1-4.46-16,52.54,52.54,0,0,1,2.81-16Z"/><path class="cls-2" d="M219.8,152.52a33.86,33.86,0,0,1,5.87-1.31c1.76-.12,3.28.8,4.94,1.27s5.12-1.85,2.61-2.56c-2.19-.62-4-1.57-6.31-1.44a39,39,0,0,0-7.77,1.59c-2.64.68-2,3.14.66,2.45Z"/><path class="cls-2" d="M217.56,147c2.4-1.08,4.95-2.34,7.62-2.33,2.51,0,4.92,1.11,7.29,1.83,1.85.56,6.79-2.18,3.55-3.16-3.5-1.06-6.77-2.32-10.49-1.94a33.74,33.74,0,0,0-10.26,3.2c-3.68,1.66-.32,3.57,2.29,2.4Z"/><path class="cls-2" d="M221.79,158.48a14.19,14.19,0,0,1,3.78-1c1.38,0,3,1.16,4.19,1.71,1.06.48,5-1.17,3.53-1.85-1.9-.84-3.73-2-5.88-1.89a26,26,0,0,0-6.07,1.36c-.49.14-2.16.64-2,1.42s2,.37,2.4.25Z"/><path class="cls-2" d="M223.32,204.38c.81-1.8,1.6-3.62,2.28-5.44.27-.9.6-1.79.84-2.7a26.42,26.42,0,0,0,.54-2.79,30.21,30.21,0,0,0,.23-4.15,36.64,36.64,0,0,0-3.14-14.48,32.27,32.27,0,0,0-1.5-3c-.29-.48-.56-1-.87-1.43l-.45-.72-.62-1a1.36,1.36,0,0,1-.11-1.49,5,5,0,0,1,.94-1.38,14,14,0,0,1,1.83-1.6,13.12,13.12,0,0,1,2-1.22,7,7,0,0,1,2.42-.74c.62-.06,1,.25.89.53a8.43,8.43,0,0,1-.62,1,8.3,8.3,0,0,1-2.45,2.75A15.65,15.65,0,0,0,224,167.7l-.16.16-.07.07s0,0,0,0h0l.07.12.49.83c.41.67.77,1.36,1.13,2a38.19,38.19,0,0,1,3.21,8.74A41.52,41.52,0,0,1,230.06,191a27.74,27.74,0,0,1-.3,3.15c-.14,1-.42,2.06-.62,3.09s-.61,2-1,3-.74,1.91-1.13,2.86c-1,2.31-2,4.58-3.07,6.84-1.6,3.43-3.34,6.8-5,10.15-1.29,2.62-2.46,5.23-3.74,7.82-.28.57-.54,1.14-.85,1.7-1.12,2.1-1.7,2.64-2.62,2.68a3.42,3.42,0,0,1-.63,0c-.64-.12-.58-1.2.13-2.77,2.08-4.67,4.52-9.45,6.89-14.29,1.76-3.59,3.52-7.21,5.1-10.87Z"/><path class="cls-2" d="M187.59,214c3.45,11.68,15.63,20.73,25.63,26.8,1.51.92,5.39-1.17,3.38-2.39-9.56-5.8-21.36-14.41-24.66-25.58-.55-1.86-4.89-.68-4.35,1.17Z"/><path class="cls-2" d="M294.05,241c6.89-1.94,12.74-6.92,17.55-12.05,3.87-4.11,9.37-9.95,9.74-15.94.12-1.84-4.25-1-4.35.51-.32,5.05-4.82,10.13-8,13.69-4.17,4.63-9.4,9.78-15.54,11.5-2.6.73-2,3,.62,2.29Z"/><path class="cls-2" d="M343.53,252.54c6.45,8.61,12.69,17.36,18.65,26.33a308.88,308.88,0,0,1,16.63,27.72c1.83,3.49,3.56,7,5.13,10.68a79.18,79.18,0,0,1,4,11.26,35.43,35.43,0,0,1,1.3,10.69,18.32,18.32,0,0,1-1.18,5.44,18,18,0,0,1-2.71,4.88,18.32,18.32,0,0,1-9.1,6.17,23.09,23.09,0,0,1-10.85.64,23.41,23.41,0,0,1-10-4.23,47.92,47.92,0,0,1-7.45-7.56,155.27,155.27,0,0,1-11.85-17.11c-6.41-10.48-12.21-21.38-17.56-32.3-3.44-7-6.71-14.15-9.73-21.39A190.06,190.06,0,0,1,301,251.58c-1.23-4.76-.31-4.28,1.5-.54s4.89,10.61,8.25,18.89a425.1,425.1,0,0,0,20.36,42.94c3.79,7,7.8,13.83,12.18,20.43,2.19,3.29,4.49,6.52,7,9.57,1.23,1.53,2.53,3,3.88,4.37.68.69,1.39,1.34,2.09,2a17.26,17.26,0,0,0,2.25,1.64,21,21,0,0,0,13,3.06,16.54,16.54,0,0,0,11.7-6.12,15.89,15.89,0,0,0,2.85-6.13,20.53,20.53,0,0,0,.2-6.88,58.44,58.44,0,0,0-3.91-13.85c-4-9.91-9.27-19.32-14.87-28.5s-11.69-18.09-18-26.86q-11.61-16.17-24.16-31.65c-3.17-3.9-6.37-7.79-9.66-11.58l-1.25-1.4-.31-.35a2.56,2.56,0,0,1-.39-.53c-.15-.26-.31-.53-.48-.79-.65-1-1.36-2.08-2.06-3.11-1.43-2.07-2.89-4.12-4.35-6.16-2.93-4.1-5.88-8.18-8.74-12.32-1.43-2.07-2.85-4.15-4.19-6.3-.67-1.07-1.33-2.15-1.93-3.29a15.21,15.21,0,0,1-.83-1.82c-.06-.17-.12-.33-.17-.51s-.09-.41-.11-.6l-.09-.94c-.72-7.74-1.43-15.4-2.14-23l-.55-5.72L288,154a1.49,1.49,0,0,0-.28-1l-1.3-2.56-5.19-10.26c-.38-.73-.78-1.57-1.13-2.19a12.15,12.15,0,0,0-2.94-3.44c-.57-.47-1.27-.92-2-1.39a40,40,0,0,0-3.61-2.13c-.56-.28-1.09-.53-1.6-.73l-.72-.25-.32-.08a.89.89,0,0,0-.54,0,.54.54,0,0,0-.28.41.72.72,0,0,0,.05.46c0,.06.07.13.11.2a2.76,2.76,0,0,0,.17.22,8.1,8.1,0,0,0,.59.63l.64.6,1.16,1a16,16,0,0,1,1.7,1.76,6,6,0,0,1,1.05,1.56c.12.59-.51.11-2.54-1a27.55,27.55,0,0,1-3.81-2.47c-.67-.53-2.12-1.94-2-3.5a2.86,2.86,0,0,1,1-2.12,3.36,3.36,0,0,1,2.45-.69,10.26,10.26,0,0,1,3.18.89,26.56,26.56,0,0,1,2.45,1.21q1.19.66,2.31,1.38c.76.49,1.48.94,2.27,1.56a14.93,14.93,0,0,1,3.8,4.41c.12.2.24.43.35.64l.3.58.59,1.17,1.2,2.35,4.79,9.45.6,1.19.29.57a3.09,3.09,0,0,1,.09.63l.07.76.25,2.65c.16,1.77.33,3.55.49,5.33.65,7.11,1.3,14.28,2,21.47l.12,1.35a1.63,1.63,0,0,0,.07.28c0,.15.08.27.16.46a21.62,21.62,0,0,0,1.12,2.18c.86,1.5,1.83,3,2.81,4.5,2,3,4.07,5.93,6.17,8.88,3.13,4.39,6.32,8.74,9.43,13.22.77,1.13,1.54,2.26,2.3,3.45l.5.82h0s0,0,0,.06l.09.09.35.39,1.36,1.54c1.79,2.06,3.54,4.14,5.28,6.23q10.39,12.54,20.18,25.57Z"/><path class="cls-2" d="M172.31,226.67c1.82-2.76,3.81-5.41,5.86-8,.79-.93,1.5-1.91,2.29-2.83a62.13,62.13,0,0,1,9.52-8.59l2.33-1.65,2.41-1.53c1-.66,2.13-1.19,3.21-1.77a16.33,16.33,0,0,1,3.47-1.18c.75-.17.87.59.52,1.5a4.25,4.25,0,0,1-2.31,2.44,56.77,56.77,0,0,0-11.76,7.37,45.16,45.16,0,0,0-6,6.31l-1.55,1.85-1.48,1.93c-1,1.27-1.9,2.62-2.85,3.94-1.12,1.66-2.23,3.33-3.27,5.05-1.57,2.59-3.13,5.23-4.49,7.93-1.06,2.1-1.9,4.26-2.82,6.39-.2.47-.37,1-.58,1.42-.79,1.75-1.23,2.21-2.11,2.24a4.24,4.24,0,0,1-.61,0c-.62-.1-.73-1-.28-2.37a76.19,76.19,0,0,1,5.37-11.92c.79-1.45,1.6-2.9,2.47-4.32s1.73-2.85,2.63-4.25Z"/><path class="cls-2" d="M339.52,234.27c-.89-1.63-1.73-3.31-2.72-4.88l-1.45-2.4-1.57-2.3c-.39-.56-.78-1.12-1.2-1.65s-.86-1-1.28-1.58a69,69,0,0,0-4.63-5.47l-2.56-2.52c-.85-.84-1.82-1.54-2.73-2.32-.41-.34-.82-.68-1.24-1l-1.34-.86c-.9-.56-1.77-1.17-2.7-1.66l-3.64-1.77a32.9,32.9,0,0,1-3.69-1.67c-.74-.41-.4-1.09.53-1.51a5.4,5.4,0,0,1,4,.06,43.76,43.76,0,0,1,14.17,10.19,101,101,0,0,1,7,8c.63.75,1.13,1.59,1.7,2.38s1.12,1.59,1.64,2.4l1.51,2.49c.51.82,1,1.65,1.45,2.51l1.7,3.14,1.57,3.2c.81,1.6,1.47,3.28,2.22,4.92l2.06,4.95c.5,1.29,1,2.56,1.58,3.81s1,2.53,1.54,3.81c.22.56.47,1.1.65,1.68.71,2.15.73,2.89.12,3.57a3.15,3.15,0,0,1-.42.46c-.52.37-1.27-.36-1.91-1.86-1.93-4.44-3.65-9.19-5.67-13.83-.72-1.74-1.54-3.44-2.29-5.17s-1.63-3.39-2.55-5Z"/><path class="cls-2" d="M207.87,373A198.36,198.36,0,0,1,211,352.75c1.32-6.68,2.89-13.29,4.53-19.87,1.19-4.81,2.36-9.61,3.61-14.38,4.42-16.84,9.05-33.61,12-50.7a184.65,184.65,0,0,0,2.53-22.88,134.51,134.51,0,0,0-2.05-29.13c-.5-3,.31-2.8,1.55-.4.31.6.65,1.34,1,2.21a20.7,20.7,0,0,1,1,3c.28,1.1.56,2.3.81,3.59.12.65.27,1.31.35,2s.14,1.39.19,2.11a144.56,144.56,0,0,1-1,30.5,269,269,0,0,1-5.85,29.9c-2.92,11.8-6,24.05-9.1,36.05-3.39,13.19-6.69,26.41-8.72,39.83a129,129,0,0,0-1.59,24.88,66.93,66.93,0,0,0,3.15,18.5,20.63,20.63,0,0,0,.81,2.2l.88,2.19c.2.55.45,1.08.71,1.62l.76,1.48,1.51,3,.75,1.47.19.37.1.19,0,.09s.06.09,0,0l-.73-.41-2.9-1.62-2.91-1.66-2.55-1.48c-8.47-5-16.75-9.95-24.66-15.69-1.73-1.29-3.44-2.53-5.11-3.94-6.2-5.21-7.53-8-7.65-9.88a4.68,4.68,0,0,1,.08-1.26c.08-.22.24-.2.46,0s.46.6.91,1.12a41.12,41.12,0,0,0,4.33,4.6,100.17,100.17,0,0,0,10.15,8c3.59,2.53,7.31,5,11.11,7.37s7.66,4.74,11.58,7l1.13.66h0v0c.17.43-.36-.89-.65-1.6s-.68-1.64-1-2.47l-1.49-5.08-1-5.17c-.27-1.74-.44-3.48-.66-5.22A114.17,114.17,0,0,1,207.8,373Z"/><path class="cls-2" d="M179.72,315.67c-.81,19.7-6.45,39.75-14.1,57.77-.2.47,2.54.24,2.85-.51,7.69-18.11,13.33-38.25,14.15-58,0-.42-2.86-.07-2.9.77Z"/><path class="cls-2" d="M272.19,353.75c-.63-11.33-.68-22.65-.6-33.94,0-4.12,0-8.24.06-12.35.22-14.51.65-29,.12-43.45A161,161,0,0,0,270,244.93c-1.32-8-3.37-16-7.44-22.8-1.33-2-.59-2.31,1.3-.93a15.64,15.64,0,0,1,3.16,3.5,24.48,24.48,0,0,1,2.9,6c2.71,8.25,3.73,16.75,4.36,25.19s.64,16.9.51,25.36c-.17,10.12-.19,20.64-.3,31-.12,11.35-.17,22.7.25,34,.26,7,.68,13.93,1.44,20.85,1.16,10.47,2.91,21,6.23,30.87a71.55,71.55,0,0,0,11,21.14c.52.71,1.08,1.36,1.64,2s1.12,1.31,1.73,1.94,1,1.14,1.53,1.62l1.32,1.3c.77.82,1.48,1.39,2,2a9.53,9.53,0,0,1,2,2.51,6.68,6.68,0,0,1,.44,1c.08.44-.49.36-1.61-.2a22.6,22.6,0,0,1-4.65-3.26,57.23,57.23,0,0,1-13.55-18.14,100.6,100.6,0,0,1-7.56-21.92,212.83,212.83,0,0,1-4.49-34.13Z"/><path class="cls-2" d="M337.76,394.61q3.28-2.28,6.64-4.46l3.37-2.17,1.53-1,.46-.26-.15-.23-.06-.12-.33-.56c-1.15-2-2.22-4-3.17-6.1a233.91,233.91,0,0,1-8.76-22.25c-1.1-3.36-2.25-6.72-3.24-10.1A53,53,0,0,1,331.33,334c-.07-1.44.71-1.27,1.58-.18a8.91,8.91,0,0,1,1.28,2.25,14,14,0,0,1,1.06,3.27,229.32,229.32,0,0,0,7.81,26,143.65,143.65,0,0,0,6.71,15.39c.48,1,1,2,1.52,2.94.12.25.26.48.39.71l.52.86c.52.8,1.09,1.52,1.62,2.26l-3.64,2.27-2.5,1.6c-1.65,1.07-3.3,2.15-4.93,3.26-3.15,2.14-6.27,4.33-9.31,6.62a140.44,140.44,0,0,0-13.24,11,55.07,55.07,0,0,0-8.28,10,13.22,13.22,0,0,0-.69,1.2c-.21.41-.46.8-.64,1.22s-.36.73-.51,1.05-.25.62-.37.88-.22.51-.32.72a4.86,4.86,0,0,1-.23.59,3.88,3.88,0,0,1-1,1.44,6.05,6.05,0,0,1-.58.49c-.32.17-.57-.11-.73-.85a3.79,3.79,0,0,1-.07-1.42,7.63,7.63,0,0,1,.37-1.91,22.59,22.59,0,0,1,2.78-5.74,41.9,41.9,0,0,1,3.83-5,87.52,87.52,0,0,1,9.06-8.9c4.75-4.12,9.79-7.88,14.9-11.51Z"/><path class="cls-2" d="M227.62,75.87c8.41-2.55,17.14-2.7,25.61-2.2,1.56.06,3.1.19,4.65.33s3.07.23,4.66.48a39.91,39.91,0,0,1,15.59,6A44.31,44.31,0,0,1,290,92a54.11,54.11,0,0,1,6.79,13,39.7,39.7,0,0,1,2.19,9.2,19.81,19.81,0,0,1-.08,4.86,10.29,10.29,0,0,1-.66,2.47,5.86,5.86,0,0,1-1.61,2.29,2.32,2.32,0,0,1-1.26.55c-.3,0-.44-.08-.47-.22-.05-.31.39-.79.65-1.51.56-1.4.47-3.87.29-7.13a35.53,35.53,0,0,0-1.7-8.65,49.63,49.63,0,0,0-3.52-8.27,45.73,45.73,0,0,0-11.36-13.93,33.76,33.76,0,0,0-9.59-5.41,40.54,40.54,0,0,0-11-2.26c-2.09-.21-4.18-.43-6.27-.5-1-.06-2.09-.13-3.14-.17h-4.71c-.52,0-1,0-1.56.08l-3.12.16c-1,.09-2.07.24-3.11.36l-1.55.19-1.52.3a42.26,42.26,0,0,0-14.27,5.22L217,84.16c-.77.56-1.52,1.18-2.28,1.78a20.69,20.69,0,0,0-2.17,1.92,28.32,28.32,0,0,0-2.05,2l-1.92,2.19c-.63.74-1.17,1.55-1.76,2.32-1.21,1.52-2.16,3.22-3.21,4.84-.77,1.3-1.45,2.64-2.16,4a21.64,21.64,0,0,0-1.66,4,16.22,16.22,0,0,0-.37,8.34,15.28,15.28,0,0,0,1.26,3.4,23,23,0,0,0,2.66,4,7.26,7.26,0,0,1,1.2,1.9,1.93,1.93,0,0,0,.22.36c.08.1.19.23.36.16s.2-.13.26-.06a.25.25,0,0,1,0,.2.61.61,0,0,1-.3.37,1.4,1.4,0,0,1-.79.14,3.65,3.65,0,0,1-.75-.17,9.11,9.11,0,0,1-3.6-2.8,17,17,0,0,1-3.67-8.1,19.14,19.14,0,0,1,.83-9.07,24.91,24.91,0,0,1,1.81-4.14c.69-1.26,1.37-2.55,2.09-3.81l2.34-3.71L206,90.68a49.28,49.28,0,0,1,9.62-9.12,42.63,42.63,0,0,1,12-5.75Z"/><path class="cls-2" d="M295.24,129.07c-1.86,3.41-7.94,2.26-10.8,1.09-8.34-3.38-14.58-12-19.26-19.21-2.79-4.28-5.47-5.15-9.58-1.44-6.1,5.5-21.35,4.95-21.35,4.95a27,27,0,0,0-17.2,5.33c-4.4,3.52-6.15,16.17-14,15.39-1.66-.16-6-7.12-.81-11.69,1.47,1.57,2.76,2.22,2.83,1.77,0-.05,10.34-24.83,46.31-23.32,31.62,1.33,41.1,22.19,43.44,21.71C295.2,125.84,296,127.65,295.24,129.07Z"/><path class="cls-2" d="M216.64,113.84l-.8.61-.73.67-1.49,1.34c-.47.47-.92,1-1.38,1.44l-.69.72-.63.77a31.19,31.19,0,0,0-4.37,6.63l.16-.48a1.91,1.91,0,0,1-.58,1.06,1.76,1.76,0,0,1-1,.46,2,2,0,0,1-.9,0,3.62,3.62,0,0,1-.77-.3,7,7,0,0,1-.92-.6c-.07-.06-.14-.14-.21-.21s-.18.13-.25.22,0,0-.07.11l-.17.34a3.09,3.09,0,0,0-.29.73,6,6,0,0,0,0,3.25,7.69,7.69,0,0,0,.63,1.61,5.22,5.22,0,0,0,.92,1.3c.13.13.14.14.23.17s0,0,.14,0h.4a4.18,4.18,0,0,0,1.53-.31c1.58-.61,2.9-2.22,4-4s2-3.82,3.13-5.85a27.3,27.3,0,0,1,1.62-2.68,11.56,11.56,0,0,1,1.06-1.32,9,9,0,0,1,1.33-1.16,27.79,27.79,0,0,1,5.47-3,27.3,27.3,0,0,1,12.17-2.15,57.11,57.11,0,0,0,11.52-.79,29.28,29.28,0,0,0,5.47-1.52l1.28-.57,1.18-.68c.38-.24.72-.53,1.08-.79s.78-.67,1.2-1a9.08,9.08,0,0,1,2.6-1.44,5,5,0,0,1,3.27,0,6.86,6.86,0,0,1,2.54,1.77,17.12,17.12,0,0,1,1.73,2.23,90.45,90.45,0,0,0,6.07,8.41,38.5,38.5,0,0,0,9.65,8.66,26.09,26.09,0,0,0,2.84,1.44,15.07,15.07,0,0,0,3,.93,13.89,13.89,0,0,0,3,.33,5.65,5.65,0,0,0,2.69-.6c.87-.53,1.18-.93,1.47-.74s.34,1-.58,2.06a7.26,7.26,0,0,1-5.13,1.93,13.91,13.91,0,0,1-3.61-.33,12.15,12.15,0,0,1-1.94-.57,18.34,18.34,0,0,1-1.88-.84,37.26,37.26,0,0,1-11-9.23c-1.53-1.8-2.94-3.68-4.27-5.59-.66-1-1.31-1.92-1.94-2.89l-.94-1.45c-.28-.43-.57-.84-.87-1.22a5,5,0,0,0-1.81-1.52,2.11,2.11,0,0,0-.83-.1,3.34,3.34,0,0,0-1,.33,6.71,6.71,0,0,0-1.16.71,5,5,0,0,0-.59.46l-.68.54a14.76,14.76,0,0,1-3.32,2,28.82,28.82,0,0,1-7,2,53.08,53.08,0,0,1-7.07.71c-1.41.06-2.82.07-4.25,0l-2.07-.07c-.66,0-1.31,0-2,.06a24.61,24.61,0,0,0-7.72,2,25.31,25.31,0,0,0-3.58,1.86,16.65,16.65,0,0,0-1.6,1.11,6.33,6.33,0,0,0-1.19,1.31c-1.5,2.08-2.6,4.74-4,7.25a17.68,17.68,0,0,1-4.13,5.34,7.89,7.89,0,0,1-3.35,1.59,7.49,7.49,0,0,1-1.88.14,3.25,3.25,0,0,1-1.23-.28l-.54-.34a4.31,4.31,0,0,1-.44-.38,9,9,0,0,1-1.94-3.09,10.09,10.09,0,0,1-.68-3.5,7.77,7.77,0,0,1,.8-3.57,4,4,0,0,1,.51-.88l.75-1a9.91,9.91,0,0,1,.83-.88l.43-.44c.14-.14.29-.31.42-.33a23.13,23.13,0,0,0,2,2,3.72,3.72,0,0,0,.57.38.93.93,0,0,0,.1,0h0s0,0,0,.15a1.91,1.91,0,0,0-.09.73c0,.18.08.12,0,.11l-1,0,.21-.43a33.83,33.83,0,0,1,4.91-7.43,44,44,0,0,1,8.72-7.79l2.47-1.57c.83-.5,1.72-.91,2.58-1.37a47.74,47.74,0,0,1,5.35-2.32c11.16-3.84,23.29-4.1,34.65-1.77a66,66,0,0,1,6.52,1.76,58.21,58.21,0,0,1,6.25,2.51,51.42,51.42,0,0,1,11.26,7.34,56.86,56.86,0,0,1,4.3,4.06c1,1,1.77,1.94,2.46,2.72.34.38.66.73.94,1l.37.37.13.11s-.07.44,0,.33l.09.06.18.12a2.69,2.69,0,0,1,.87.74c.15.91.18,1.13.24,1.57s.07.76.07,1.11A3.63,3.63,0,0,1,296,128a1.94,1.94,0,0,1-.79.9c-.35.12-.33-.27-.43-.89a9.26,9.26,0,0,0-.36-1.34c-.11-.31-.22-.64-.34-1s-.29-.91-.33-.94,0-.2-.19-.17l-.07,0c.08.07,0,0-.13-.08a5.23,5.23,0,0,1-.47-.35c-.29-.24-.52-.47-.77-.71-1.45-1.46-2.74-2.88-4.14-4.24s-2.85-2.65-4.37-3.87a49.3,49.3,0,0,0-10-6.18A57.72,57.72,0,0,0,250.32,104h-4.51a16.88,16.88,0,0,0-2.25.13l-2.24.21c-.74.07-1.5.11-2.24.22l-2.2.42-2.21.41c-.74.12-1.43.4-2.16.58a44,44,0,0,0-15.82,8Z"/><path class="cls-2" d="M246.65,70.88A21.75,21.75,0,0,1,246.2,68a14.31,14.31,0,0,1,0-2.36c0-.37.39-1.81.38-1.82l-1.18.6.26,0c.14.11.53.13.71.21a3.47,3.47,0,0,1,1.13.8,6.9,6.9,0,0,1,1.34,2.22,12,12,0,0,1,.83,3.44c.09,1.13,3.43-.38,3.34-1.43-.31-3.71-2.77-9.29-7.38-7-3.74,1.89-3,6.62-2.21,10,.18.79,3.54-.64,3.27-1.84Z"/><path class="cls-2" d="M273.05,267.64c-5.43,9.87-40-1.08-40-1.08.53-2.5,1.17-10.67,1.17-10.67s21.77,9.23,36.91-.51Z"/><path class="cls-2" d="M244,260.62l-2.62-.63c-.86-.25-1.73-.46-2.59-.74s-1.71-.54-2.55-.85l-.11,0,0,0-.11-.05-.24-.12a.71.71,0,0,0,0,.23l-.06.32-.29,2.56L235,264l-.14,1.13c0,.11,0,.22-.07.33s0,0,.06,0l.28.12.12,0,.3.09.6.19,2.4.72q2.41.69,4.84,1.32c3.25.83,6.52,1.54,9.81,2.07a48.39,48.39,0,0,0,8.79.61,25.2,25.2,0,0,0,5.41-.72,9.23,9.23,0,0,0,4.35-2.25c.59-.69,1.31-.4,1.27.95a2.82,2.82,0,0,1-.29,1.12,4.12,4.12,0,0,1-.81,1.24,5.9,5.9,0,0,1-1.3,1.1,8.28,8.28,0,0,1-1.68.76,24.41,24.41,0,0,1-6.29.89,45.51,45.51,0,0,1-6.09-.29,78.56,78.56,0,0,1-11.74-2.28l-6.07-1.6-3.06-.83-1.69-.48c-.84-.26-1.69-.51-2.49-.78l.3-1.6.13-.8.1-.63c.2-1.43.37-2.88.53-4.33l.27-2.5c.12-1.14.2-2.38.34-3.49.9.38,1.8.75,2.69,1.08l.66.26.61.22.81.28c1.1.36,2.2.7,3.31,1a56,56,0,0,0,9.42,1.73,35.48,35.48,0,0,0,14.26-1.35l2.53-1.06.31-.14c.1,0,.27-.15.41-.23l.85-.5,1.75-1,.9-.53.22-.13s0,0,.06,0v.06l0,.13.1.51.38,2.1.62,3.32c.16.82.34,1.61.48,2.43.52,3.05.48,4.06-.19,4.83a3,3,0,0,1-.47.52c-.55.39-1.24-.78-1.76-3-.39-1.64-.75-3.31-1.1-5l-.12-.63-.07-.32,0-.16s0,0,0,0l-.07-.1s0-.05-.05-.06-.17.12-.25.17l-.24.17-.12.08h0l-.16.07-.33.14L266,260a35.09,35.09,0,0,1-5.51,1.33,46.72,46.72,0,0,1-16.48-.68Z"/><path class="cls-2" d="M271.94,301.85c-18.17,12.24-45.21-5.09-45.21-5.09l2.56-11.65s23.63,16.59,43.76,5.12Z"/><path class="cls-2" d="M239.42,292.41q-2.88-1.2-5.63-2.67c-.92-.49-1.82-1-2.71-1.54l-.27-.16-.06,0-.11-.08-.24-.19a3.82,3.82,0,0,0-.18.52l-.68,2.87-.71,3.2-.3,1.41-.05.19s0,.07,0,.1l.08.06.14.1.11.06.3.19,1.22.7c.82.47,1.66.92,2.5,1.36q2.52,1.31,5.13,2.41a59,59,0,0,0,10.79,3.46,35.06,35.06,0,0,0,9.93.7,30.84,30.84,0,0,0,11.91-3.6c1.15-.59,1.47.1.86,1.34a6.91,6.91,0,0,1-.64,1,8.56,8.56,0,0,1-1,1.06,7.31,7.31,0,0,1-1.42,1,8.38,8.38,0,0,1-1.77.8,31.94,31.94,0,0,1-14,1.27,50.34,50.34,0,0,1-13.36-3.57c-2.54-1-5.09-2.17-7.61-3.41-1.26-.62-2.5-1.27-3.73-2l-1.17-.68c-.5-.3-1-.6-1.45-.91.11-.56.22-1.12.35-1.68l.29-1.28,2.66-11.36c1,.66,1.9,1.32,2.83,1.91s1.46.9,2.08,1.26c1.16.66,2.35,1.29,3.55,1.88A56.16,56.16,0,0,0,247.21,292a36.68,36.68,0,0,0,16.32.83,26.73,26.73,0,0,0,5.94-2c.69-.3,1.48-.71,2.22-1.11l2.23-1.19.29-.15c.09,0,.23-.16.18,0l-.05.61-.09,1.23-.19,2.53-.09,1.14,0,.71c0,.47-.07.94-.1,1.42-.28,3.52-.59,4.62-1.44,5.3a3.15,3.15,0,0,1-.58.45c-.64.28-1-1.2-.93-3.8,0-1,.07-1.92.1-2.9l.07-1.44-.05-.22c-.05-.08,0-.25-.16-.08l-.13.11-.05,0,0,0-.31.15a32.67,32.67,0,0,1-12.52,2.61,48.27,48.27,0,0,1-18.41-3.8Z"/><path class="cls-2" d="M271.94,331.64c-16.33,10.8-39.82,4.52-52.91-8.42l-3.16,13.93s26.85,23.6,56.07,8.86Z"/><path class="cls-2" d="M230.09,347.91a68,68,0,0,1-10-5.59c-.8-.53-1.58-1.08-2.35-1.65l-1.14-.87-.57-.44-.85-.7-.94-.81s-.09-.07-.11-.11l0-.15.07-.3.12-.61.44-1.84.65-2.72c.73-3.17,1.45-6.35,2.17-9.52l.36-1.51a3.29,3.29,0,0,1,.2-.7l.57.54L221,323a40.69,40.69,0,0,0,3.31,2.86c.88.76,1.88,1.38,2.83,2.05s2,1.24,3,1.85a48.69,48.69,0,0,0,13,5.16,40.15,40.15,0,0,0,12.34,1,39.34,39.34,0,0,0,14.91-4.6c1.46-.73,1.73,0,.86,1.34A9.9,9.9,0,0,1,269,335a20.35,20.35,0,0,1-1.78,1.15c-.33.19-.67.37-1,.55s-.75.28-1.14.41a39.48,39.48,0,0,1-17.24,1.67,48.22,48.22,0,0,1-16.39-5.17c-1.55-.75-3-1.68-4.52-2.56-.74-.45-1.45-1-2.18-1.45l-1.09-.74c-.36-.26-.7-.53-1-.8l-2-1.54L220,326l-.16-.15s0,.12,0,.18l-.09.4-.35,1.45-1.3,5.48-.65,2.74-.15.6.2.18.27.22a62.39,62.39,0,0,0,9.22,6.06,59.14,59.14,0,0,0,12.6,5.11,44.65,44.65,0,0,0,20.35.95,17.43,17.43,0,0,0,1.93-.43c.64-.17,1.28-.33,1.9-.52,1.24-.43,2.49-.82,3.68-1.36.59-.27,1.21-.48,1.78-.79l.87-.43.33-.17.19-.11.18-.1s0-.14,0-.2v-.22l0-.3-.05-2c0-1.17-.06-2.32-.1-3.5,0-4.4.15-5.79.94-6.74a3.36,3.36,0,0,1,.53-.62c.61-.42,1.11,1.37,1.28,4.58.14,2.39.24,4.81.32,7.25l0,.92,0,1.48v1.21s-.06,0-.09.05l-.39.19-1.57.76-1.79.88-1.79.73c-1.19.53-2.45.87-3.68,1.3l-1.9.5a17.77,17.77,0,0,1-1.92.43,43.87,43.87,0,0,1-7.84.87,50.06,50.06,0,0,1-11.65-1.2A60.44,60.44,0,0,1,230.07,348Z"/><path class="cls-2" d="M278.25,386.72c-26.78,18.95-67.65-7.67-67.65-7.67-1-2.68,0-14.44,0-14.44s35.54,25.8,64.5,8.42Z"/><path class="cls-2" d="M224.68,374.46q-3.92-1.77-7.65-3.87c-1.25-.71-2.48-1.43-3.69-2.19l-.81-.52-.15-.11-.33-.25a1.23,1.23,0,0,0-.07.38l0,.22-.07.95c-.1,1.48-.17,2.95-.2,4.42,0,.91,0,1.83,0,2.72,0,.45.06.87.11,1.29l.07.42a.94.94,0,0,0,0,.16l1.08.65,1.6.94a110.5,110.5,0,0,0,14.71,7.18A85.14,85.14,0,0,0,245,391.52a52.69,52.69,0,0,0,14.38.74,40.92,40.92,0,0,0,8.91-1.92c.71-.26,1.44-.45,2.13-.77l2.1-.87c1.35-.69,2.73-1.32,4-2.12,1.63-.93,1.9-.21.9,1.32a12.15,12.15,0,0,1-1,1.28,16.63,16.63,0,0,1-1.53,1.36,12.21,12.21,0,0,1-2,1.34,14.85,14.85,0,0,1-2.48,1.14,45.67,45.67,0,0,1-19.74,2.26,74.24,74.24,0,0,1-19.1-4.61c-3.66-1.39-7.33-2.94-10.95-4.64-1.8-.86-3.6-1.76-5.36-2.7-.89-.48-1.76-1-2.63-1.47l-1.3-.77-.64-.39-1-.62-.25-.16c-.13-.48-.31-1-.39-1.45a9.79,9.79,0,0,1-.13-1.06c-.07-.66-.09-1.28-.11-1.92,0-1.26,0-2.49.06-3.73s.12-2.46.2-3.69c.14-1.84.28-3.93.52-5.67,1.28.92,2.56,1.85,3.8,2.66l1.42.89,1.18.73c1.57.95,3.19,1.84,4.83,2.7a84.71,84.71,0,0,0,14.59,6c7.61,2.3,15.72,3.47,23.53,2.33a36.67,36.67,0,0,0,8.75-2.32,44.22,44.22,0,0,0,4.09-1.86l3-1.69.76-.43.38-.22a2,2,0,0,1,.12.41l.44,1.78c.39,1.57.78,3.1,1.18,4.67,1.19,4.94,1.36,6.55.84,7.79a4.56,4.56,0,0,1-.36.82c-.48.61-1.44-1.29-2.44-4.87l-1.11-4c-.17-.61-.33-1.22-.5-1.84l-.13-.27c0-.08-.14.06-.21.1l-.26.17-.24.16-.07,0-.25.13-.5.24-2,1-2.09.82A45.71,45.71,0,0,1,250.48,381a72.13,72.13,0,0,1-25.82-6.48Z"/><path class="cls-2" d="M185.37,406c-1.35,12.45-3.39,25-3.76,37.48,0,.73,2.87.26,2.9-.77.36-12.42,2.4-24.8,3.74-37.13.11-1-2.79-.46-2.88.42Z"/><path class="cls-2" d="M316,422.39c1.51,8.35,2.67,16.82,4.65,25.07.8,3.34,1.68,8.08,4.9,10,.89.54,3.53-.73,2.28-1.48-3.34-2-4.07-8.23-4.8-11.61-1.62-7.53-2.76-15.18-4.13-22.76-.2-1.1-3.11-.39-2.9.77Z"/><path class="cls-2" d="M245.34,448.77a18.58,18.58,0,0,1,3.91-7c.49-.5-.42-.7-.75-.7a2.73,2.73,0,0,0-1.92.75,19.63,19.63,0,0,0-4.12,7.38c-.29.8,2.56.45,2.88-.42Z"/><path class="cls-2" d="M213.19,406.08c23,14.76,48.1,10.5,73.23,4.61,2.65-.62,2-2.92-.61-2.3-11.45,2.68-23.06,5.49-34.88,5.59a61.63,61.63,0,0,1-34.3-10.07c-1.25-.8-5.24,1-3.44,2.17Z"/><path class="cls-2" d="M219.69,130.75c-.06.41-.61.37-1.43,0a2.9,2.9,0,0,1-.81-.91c0-.14-.07-.25-.08-.39s0-.29,0-.42a17.86,17.86,0,0,1,1.73-2.58,7,7,0,0,1,1.66-1.5c.61-.46,1.28-.83,1.93-1.23a19.8,19.8,0,0,1,2.08-1,4.88,4.88,0,0,1,1-.25c1.19-.1,2.3-.38,3.44-.58a1.09,1.09,0,0,0,.55-.2,5.37,5.37,0,0,1,1.88-.28,7.7,7.7,0,0,1,1.95.13c1,.27,1.92.64,2.84,1,.13,0,.28,0,.38.2a1.07,1.07,0,0,0,.76.53,5.94,5.94,0,0,1,1.11.53,2.08,2.08,0,0,1,.44.55c.12.18-.14.65-.21.68s-.16.38-.21.59a1,1,0,0,1-.07.21,11.18,11.18,0,0,1-2.52.36l-1.56-.11a11.16,11.16,0,0,0-1.74,0,1,1,0,0,1-.5-.12,17.06,17.06,0,0,0-2.39.43,3.24,3.24,0,0,1-1.39,0,.39.39,0,0,0-.28,0l-2.31.65c-.39.15-.74.37-1.11.55a.79.79,0,0,1-.22.06.66.66,0,0,0-.28.09,10.27,10.27,0,0,0-2.41,1.74c-.15.17-1.22.64-1.37.89S219.72,130.58,219.69,130.75Z"/><path class="cls-2" d="M278.89,127.18c.44.13.29.62-.15,1.39-.13.26-.69.87-.86.86l-.5-.05a2.42,2.42,0,0,1-.41,0c-.17-.07-1.72-1.13-2.29-1.38a10.12,10.12,0,0,1-1.49-.93,13.49,13.49,0,0,0-1.49-.91c-.53-.23-1-.53-1.58-.71a2.41,2.41,0,0,1-.68-.38,5,5,0,0,0-2.54-.82.67.67,0,0,0-.46,0,5.23,5.23,0,0,1-1.46.07c-.67,0-1.36,0-1.52,0A11.36,11.36,0,0,0,261,124c-.12,0-.23.06-.37-.07-.32-.29-.56-.15-.82-.11a5.8,5.8,0,0,1-1.11.09,2.11,2.11,0,0,1-.65-.25c-.2-.09-.28-.61-.24-.68s-.09-.39-.17-.59a1.19,1.19,0,0,1-.08-.22,11,11,0,0,1,2.25-1.67l1.81-.46c.91-.26,1.92-.33,2.11-.4a1.6,1.6,0,0,1,.65.06,27.08,27.08,0,0,1,3.13-.06c.59.14,1.24,0,1.75.54a.71.71,0,0,0,.34.13,10.73,10.73,0,0,1,2.89,1.13c.46.27.95.45,1.42.69a2,2,0,0,1,.21.2,1.2,1.2,0,0,0,.27.24c1.11.57,2,1.46,3,2.12.25.16,1,1.34,1.21,1.53S278.72,127.14,278.89,127.18Z"/><path class="cls-2" d="M260.37,155.43c-.15,2.8-2.06,5.72-5.25,5.1a5.62,5.62,0,0,1-4.28-5.53c0-3,2.51-5.82,5.7-4.83a5.78,5.78,0,0,1,3.84,5.49c.05,1,3,.42,2.9-.78-.51-9.37-15.38-8.36-15.38.67,0,9.48,14.9,8.49,15.38-.44C263.35,153.83,260.43,154.37,260.37,155.43Z"/></g></svg>