<svg id="Layer_1" data-name="Layer 1" xmlns="http://www.w3.org/2000/svg" width="520" height="520" viewBox="0 0 520 520"><defs><style>.cls-1,.cls-3{fill:#221f1f;}.cls-2{fill:#232020;}.cls-3{stroke:#221f1f;stroke-miterlimit:10;stroke-width:2px;}</style></defs><title>Notioly v2</title><g id="_49.Lost_the_way" data-name="49.Lost the way"><path class="cls-1" d="M282.25,61.13c-3,15.2-39.47,29.67-50.2,15-6.73-9.19-3.23-19.07,8.41-22.43C250.88,50.67,277.17,54.65,282.25,61.13Z"/><path class="cls-1" d="M285.18,68.38c-4.94,6.12-9.12,20.68,1.8,22,14.42,1.69,16-8,12-16.18C297,70,286.76,65.26,285.18,68.38Z"/><path class="cls-1" d="M232.23,56.55a14.43,14.43,0,0,0-5,8.44,11.93,11.93,0,0,0,.2,4.9,13.61,13.61,0,0,0,.83,2.37l.53,1.16.68,1.08a14.6,14.6,0,0,0,5.3,5c3.8,2.16,8.48,2.71,13,2.3a45.55,45.55,0,0,0,13.34-3.39,48.64,48.64,0,0,0,10.67-6.07,37.15,37.15,0,0,0,5.71-5.27,19.54,19.54,0,0,0,3.93-6.4c.39-1.43,1-1.27,1.26.31s-.42,4.54-2.54,7.05A43.68,43.68,0,0,1,266.9,78.41,51.07,51.07,0,0,1,251,83.72a36.7,36.7,0,0,1-10.32.17A19.3,19.3,0,0,1,231,79.76a18.06,18.06,0,0,1-3.73-4.51l-.39-.62c-.11-.21-.21-.44-.31-.66l-.62-1.33a11.36,11.36,0,0,1-.47-1.39,10,10,0,0,1-.38-1.43,15.63,15.63,0,0,1,0-5.89,15.66,15.66,0,0,1,2.3-5.37,19.82,19.82,0,0,1,4.92-5.08,28.57,28.57,0,0,1,2.95-1.91l1.56-.78a13.29,13.29,0,0,1,1.59-.71,38.63,38.63,0,0,1,5-1.65c.87-.16,1.73-.37,2.61-.49s1.75-.21,2.62-.26a48.72,48.72,0,0,1,10.4.6A65.7,65.7,0,0,1,266.82,50a51.06,51.06,0,0,1,7.52,2.69l1.6.75c.53.26,1,.56,1.56.86a15.26,15.26,0,0,1,3.79,2.87,3.35,3.35,0,0,1,1,1.94,3,3,0,0,1,.08.74c-.06.3-.46.19-1.1-.23s-1.56-1.12-2.8-2a46.11,46.11,0,0,0-12.73-5.46A55.79,55.79,0,0,0,251.65,50a36.56,36.56,0,0,0-5.25.31c-.87.11-1.7.33-2.55.48l-2.54.75a25.26,25.26,0,0,0-9,5.06Z"/><path class="cls-1" d="M302.69,85.33a11.45,11.45,0,0,1-4.3,5.38,12,12,0,0,1-6.55,1.91l-1.22,0a6.05,6.05,0,0,1-1.21-.11,23.52,23.52,0,0,1-2.36-.49,11.79,11.79,0,0,1-6.92-5,13.48,13.48,0,0,1-1.67-8.22A29,29,0,0,1,280,71.68a23.18,23.18,0,0,1,4.39-8.07c.66-.72,1-.2,1.05.78a8.4,8.4,0,0,1-1.08,3.84,31,31,0,0,0-3.09,8,15,15,0,0,0,.14,8.22,7.46,7.46,0,0,0,3,3.78A12.22,12.22,0,0,0,289.25,90a9.56,9.56,0,0,0,10.05-3.43,11.74,11.74,0,0,0,2.08-6.67,13.11,13.11,0,0,0-1-5.34,8.17,8.17,0,0,0-.59-1.23,6.94,6.94,0,0,0-.69-1.13,21.12,21.12,0,0,0-1.88-2,35.2,35.2,0,0,0-6.89-5.14,14.88,14.88,0,0,0-1.63-.76,9.12,9.12,0,0,0-1.88-.57,7,7,0,0,0-.87-.21c-.16,0-.37,0-.54,0s-.45-.28-.13-.9a1.85,1.85,0,0,1,1-.82,3.44,3.44,0,0,1,1.6-.15,12,12,0,0,1,4.15,1.6,28.93,28.93,0,0,1,3.51,2.39,40.46,40.46,0,0,1,3.23,2.8c.52.5,1,1,1.52,1.57a11.53,11.53,0,0,1,.75.9,4.42,4.42,0,0,1,.37.55l.29.51a14.9,14.9,0,0,1,.79,1.54l.61,1.62.4,1.68a14,14,0,0,1,.22,1.71,15.38,15.38,0,0,1-1,6.8Z"/><path class="cls-1" d="M252.46,132.36a5,5,0,0,0,.9.57,5.63,5.63,0,0,0,.94.42c.32.13.74.19,1.1.3a7.28,7.28,0,0,0,1.13.22,11,11,0,0,0,4.51-.15,15.64,15.64,0,0,0,7.71-5.09,41.65,41.65,0,0,0,4.14-5.88c2.25-3.66,4.05-7.59,6.29-11.46a16.84,16.84,0,0,1,2-2.85,9.15,9.15,0,0,1,.71-.67l.54-.35.28-.17a1.55,1.55,0,0,1,.32,0l1.74-.06a14.74,14.74,0,0,0,5.88-1.71,11.59,11.59,0,0,0,4-3.56,8.81,8.81,0,0,0,1.17-2.36,6.73,6.73,0,0,0,.27-2.5,3.83,3.83,0,0,0-1.27-2.6,3.68,3.68,0,0,0-2.81-.48A11.4,11.4,0,0,0,288.86,95a11.77,11.77,0,0,0-2.78,1.87c-.45.48-.51.42-.78.41A.39.39,0,0,1,285,97a1.64,1.64,0,0,1,.09-.92,8.09,8.09,0,0,1,5.54-4.51,7.3,7.3,0,0,1,4.79.21,5.11,5.11,0,0,1,2.1,1.77,5.91,5.91,0,0,1,1,2.3,8.53,8.53,0,0,1-.3,4.61,12.14,12.14,0,0,1-2.19,3.76,14.9,14.9,0,0,1-7,4.51,15.8,15.8,0,0,1-2,.5c-.68.13-1.36.18-2,.27l-1.51,0-.09,0-.26.23a5.86,5.86,0,0,0-.55.56,24.18,24.18,0,0,0-2.35,3.7c-.72,1.33-1.42,2.72-2.13,4.12a78.67,78.67,0,0,1-4.68,8.26,27.14,27.14,0,0,1-7.34,7.66,14.48,14.48,0,0,1-5.07,2.05,14.74,14.74,0,0,1-5.46,0l-1.61-.4a8.78,8.78,0,0,1-1.62-.67,10.63,10.63,0,0,1-2.72-2.05,20.64,20.64,0,0,1-3.66-5.44c-2.77-6-3.81-12.45-4.34-18.8A86.36,86.36,0,0,1,241.62,94c.11-1.08.21-2.14.38-3.23.65-4,1.23-5.23,2.05-5.9a3.34,3.34,0,0,1,.56-.44c.59-.23.51,1.43.06,4.27a90,90,0,0,0-1,13,77,77,0,0,0,1,13.36c.28,1.64.62,3.27,1.05,4.87a37.74,37.74,0,0,0,1.52,4.69c1.21,3,2.85,5.94,5.22,7.65Z"/><path class="cls-1" d="M255.58,135.22c2.95,4.89,5.34,5.34,9.63,4.5,4-.78,8.68-5.14,6.16-11.53C268.72,132.18,262.76,137.77,255.58,135.22Z"/><path class="cls-1" d="M271.17,125.87l.65-.89.18.48c.06.15.13.42.2.63l.4,1.31.36,1.24a5.47,5.47,0,0,1,.27,1.28l.17,1.36a4.36,4.36,0,0,1,0,.72l0,.52a9.88,9.88,0,0,1-1.72,4.42,10.08,10.08,0,0,1-6.31,3.74,21.89,21.89,0,0,1-2.33.23,7.77,7.77,0,0,1-4.31-.92,8.73,8.73,0,0,1-3.63-4c-.22-.5.36-.75,1.1-.7a3.25,3.25,0,0,1,2.18,1,7.61,7.61,0,0,0,1.5,1.42,4.26,4.26,0,0,0,1.7.7,8.89,8.89,0,0,0,2.16.08c.39,0,.79-.06,1.2-.11a7.85,7.85,0,0,0,1.08-.18,7,7,0,0,0,4.2-3.35A6.56,6.56,0,0,0,271,132a3.77,3.77,0,0,0-.13-1.53l-.06-.23-.12.14c-.14.18-.31.37-.48.56l-.28.29-.43.43a18.85,18.85,0,0,1-5.54,3.84,13.47,13.47,0,0,1-5.14,1.32,6,6,0,0,1-1.2,0c-.37-.05-.68-.1-.93-.16a2.32,2.32,0,0,1-.59-.28,1,1,0,0,1-.46-.8,2.59,2.59,0,0,1-.05-.47c.05-.5.69-.74,1.58-.64a12.73,12.73,0,0,0,7.63-2.07,17.1,17.1,0,0,0,2.5-1.94c.2-.18.4-.37.58-.56l.46-.48q.28-.31.57-.69l1.11-1.44,1.12-1.56Z"/><path class="cls-1" d="M234.85,95.67a10.19,10.19,0,0,1-.33-4.49c0-.26.07-.54.11-.81a3.6,3.6,0,0,1,.21-.78l.24-.67a5.41,5.41,0,0,1,.39-.75,8.11,8.11,0,0,1,.51-.65c.19-.18.39-.36.58-.52a7.62,7.62,0,0,1,5.27-1.41,3.4,3.4,0,0,1,1.75.76,2.41,2.41,0,0,1,.61.81,2.11,2.11,0,0,1,.24.93c0,.4-.62.38-1.27.32-.32,0-.62-.07-.88-.07a1.31,1.31,0,0,1-.46,0c-.07-.1-.22-.14-.43-.23a3.1,3.1,0,0,0-.86-.08,5.6,5.6,0,0,0-2.13.48,2.13,2.13,0,0,0-1,.82l-.12.25c0,.09-.07.25-.11.36s-.14.51-.23.75a7.77,7.77,0,0,0-.08,3.43,8.52,8.52,0,0,0,.73,2.09,12.55,12.55,0,0,0,1.95,2.89,20.58,20.58,0,0,0,2.09,1.83c.16.14.33.27.49.42a1.56,1.56,0,0,1,.48.77.8.8,0,0,1-.29.72,3.19,3.19,0,0,1-.33.31,1.21,1.21,0,0,1-.65.2,1,1,0,0,1-.61-.17,15.76,15.76,0,0,1-3.85-3.61,14.38,14.38,0,0,1-2.11-3.86Z"/><path class="cls-1" d="M237.24,152.5a19.25,19.25,0,0,1,3.49-3.85,15.37,15.37,0,0,1,9.77-3.53,9.32,9.32,0,0,1,5.32,1.52,21.24,21.24,0,0,1,6.58,7.79,58.27,58.27,0,0,1,3.89,9,117.43,117.43,0,0,1,3.82,13.66,196.45,196.45,0,0,1,3.4,21.94c.36,3.68.63,7.37.74,11.08.06,1.85.08,3.71,0,5.59,0,.93-.09,1.87-.21,2.83-.07.48-.14,1-.26,1.46a5.63,5.63,0,0,1-.27.83l-.26.46a4.38,4.38,0,0,1-.36.39l-1.19.83a11.1,11.1,0,0,1-1.18.74,20.62,20.62,0,0,1-2.49,1.24l-1.29.51-1.33.4a26.92,26.92,0,0,1-2.69.62,30.58,30.58,0,0,1-5.48.35,39.15,39.15,0,0,1-5.43-.51c-.89-.15-1.77-.32-2.65-.51l-1.3-.28c-.16,0-.53-.13-.87-.19l-1-.18c-.05-.3-.11-.6-.16-.9s-.16-.86-.22-1.23l-.07-.92c-.06-.61-.06-1.21-.06-1.81s0-1.2,0-1.79.05-1.19.1-1.78c.16-2.36.41-4.69.66-7s.51-4.63.66-6.93a32.39,32.39,0,0,0-.09-6.76c-.06-.7-.22-1.13-.21-1.46s0-.49.15-.52.3.1.54.37a4.67,4.67,0,0,1,.79,1.31,15.89,15.89,0,0,1,1.15,5.18,41.72,41.72,0,0,1-.18,7.4c-.29,2.73-.62,5.42-.84,8.09-.11,1.33-.2,2.66-.2,3.95v1l.07.94,0,.46c0,.11,0,.1,0,.11v0l0,.15h0l.17,0,.41.09,1.59.36c1.05.23,2.11.41,3.16.56a31.21,31.21,0,0,0,6.32.29,24.33,24.33,0,0,0,6.12-1.14,21,21,0,0,0,2.83-1.25,9.84,9.84,0,0,0,1.33-.78l1.21-.82s0,0,.08-.12a5.19,5.19,0,0,0,.17-.66,15.41,15.41,0,0,0,.23-1.62c.11-1.13.15-2.29.18-3.46,0-2.35,0-4.71-.13-7.09a177.41,177.41,0,0,0-5.29-34.52c-1.63-6.18-3.58-12.36-6.72-17.81-1.59-2.67-3.57-5.24-6.19-6.52a6.93,6.93,0,0,0-2-.61,14.94,14.94,0,0,0-2.22,0,13.3,13.3,0,0,0-4.35,1.17c-3.39,1.57-5.91,4.68-7.63,8.11a44.75,44.75,0,0,0-3.68,11.09,109.36,109.36,0,0,0-2,17.83c-.23,6-.13,12,.16,17.95.46,9.27,1.48,18.31,2.64,27.41.27,2,.53,4,.8,6,1,7.48,1.14,9.92.63,11.62a5.62,5.62,0,0,1-.37,1.1c-.25.34-.45-.2-.76-1.53s-.71-3.44-1.13-6.18c-2.51-16.24-4.53-33.57-4.46-51.11a133.1,133.1,0,0,1,1.42-19.59,66,66,0,0,1,2.21-9.7,40.38,40.38,0,0,1,1.79-4.72,27.41,27.41,0,0,1,2.51-4.47Z"/><path class="cls-1" d="M312.79,189.63c0-.06.09-.12.07-.16l-.08-.06h0l-.18-.12c-.13-.1-.28-.19-.4-.29a29.22,29.22,0,0,1-2.8-2.45c-1.73-1.71-3.29-3.49-4.85-5.29-1.12-1.31-2.29-2.58-3.38-3.91-3.85-4.68-7.58-9.42-11.61-13.9a66.43,66.43,0,0,0-5.66-5.6,40,40,0,0,0-4-3.05,18.44,18.44,0,0,0-4.22-2.23c-.88-.28-.78-.89.28-1.27a6.06,6.06,0,0,1,4.88,1,47.48,47.48,0,0,1,8.18,7.09c2.44,2.58,4.72,5.28,6.91,8.06,2.63,3.32,5.52,6.62,8.29,9.9,1.52,1.81,3.06,3.6,4.64,5.32a34.6,34.6,0,0,0,5,4.7,6.81,6.81,0,0,0,.64.39l.72.41.35.2.18.1c.08,0,0,.12,0,.18l-.31.78c-.1.26-.2.51-.31.77l-.3.66-.51,1c-.7,1.32-1.46,2.58-2.24,3.83q-1.8,2.84-3.84,5.5a33.43,33.43,0,0,1-4.53,5,7.32,7.32,0,0,1-1.17.81,2.18,2.18,0,0,1-1.73.26c-.35-.11-.49-.17-.72-.26s-.41-.18-.61-.27c-.4-.17-.79-.37-1.17-.56a33.17,33.17,0,0,1-4.43-2.73,20.65,20.65,0,0,1-1.79-1.48,8.58,8.58,0,0,1-1.95-2.47,1.88,1.88,0,0,1-.16-1.52,2.25,2.25,0,0,1,.22-.54c.38-.43,1.07.4,2.35,1.73a28.93,28.93,0,0,0,7.11,5c.33.17.66.34,1,.48l.48.21.22.09h0l.08-.05a5.22,5.22,0,0,0,.7-.48,24.8,24.8,0,0,0,3-3.22c1.43-1.77,2.79-3.67,4.07-5.61a50.5,50.5,0,0,0,3.45-6Z"/><path class="cls-1" d="M324.18,206.18c-1.26-.9-2.5-1.83-3.67-2.84-.43-.36-.9-.67-1.31-1.05a51.66,51.66,0,0,1-4.09-4.29c-.58-.65-1.18-1.29-1.78-1.9a10.24,10.24,0,0,1-2.11-2.57c-.31-.63,2.06-1.39,2.84-.47,1.43,1.65,2.81,3.3,4.17,5.05a21.28,21.28,0,0,0,2.93,2.75c1.13.95,2.27,1.9,3.49,2.75.73.55,1.51,1,2.28,1.54a34.9,34.9,0,0,0,3.65,2,25.74,25.74,0,0,0,3,1c.22.07.46.11.68.19.82.29,1,.54,1,1.21,0,.15,0,.31,0,.45-.1.5-.59.74-1.25.63a19.71,19.71,0,0,1-5.78-2.05,44.4,44.4,0,0,1-4-2.37Z"/><path class="cls-1" d="M357.25,173.79c2.33-4.87,4.54-9.79,6.75-14.75l1.23-2.74a8.23,8.23,0,0,0,.49-1.2,9,9,0,0,0,.26-1.24,27.43,27.43,0,0,0,.06-5c-.09-1.72-.26-3.46-.24-5.29a11.52,11.52,0,0,1,.09-1.42,4,4,0,0,1,.14-.78,5.06,5.06,0,0,1,.24-.72,12.86,12.86,0,0,1,1.33-2.49,10.68,10.68,0,0,1,4.16-3.85,4.47,4.47,0,0,1,2.81-.33,4.94,4.94,0,0,1,2.39,1.43,12.14,12.14,0,0,1,1.47,2c.4.69.78,1.39,1.12,2.13a13.78,13.78,0,0,1,.58,1.48c.07.27.16.53.21.82a4.86,4.86,0,0,1,.07,1.14,2.17,2.17,0,0,1-3.1,2l-.53-.22c-.17-.08-.36-.22-.48-.29a7.48,7.48,0,0,1-.68-.5,12.22,12.22,0,0,1-1.16-1.11,14.44,14.44,0,0,1-1.86-2.51c-.33-.57-.31-1-.08-1.06a2.22,2.22,0,0,1,1.16.33,15.8,15.8,0,0,1,1.89,1.12c.7.47,1.5,1.09,2.19,1.53.06,0,0,0,0,0h0s0,.06,0-.07a7.1,7.1,0,0,0-.35-1.16,18.15,18.15,0,0,0-1.21-2.47,6.3,6.3,0,0,0-1.44-1.89,1.7,1.7,0,0,0-1.53-.4,4.56,4.56,0,0,0-1.95,1.11,11.88,11.88,0,0,0-3,4.34,5.52,5.52,0,0,0-.22,1.49c0,.56,0,1.15,0,1.75.05,1.2.17,2.44.26,3.69s.16,2.54.13,3.85a10.8,10.8,0,0,1-.78,4.08c-2.29,4.9-4.44,10-6.76,14.9q-2.11,4.59-4.37,9.11c-2.27,4.57-4.7,9.09-7.28,13.46a71.16,71.16,0,0,1-6.59,9.8,25.15,25.15,0,0,1-1.79,2,9.55,9.55,0,0,1-3,2,3.8,3.8,0,0,1-1,.22,1.93,1.93,0,0,1-.76-.19,2,2,0,0,1-.54-.29c-.19-.2,0-.5.43-.82.22-.13.49-.35.81-.59s.69-.52,1.1-.85a36.68,36.68,0,0,0,6.45-7.83c2-2.95,3.77-6.08,5.51-9.27,2.6-4.73,5-9.61,7.34-14.53Z"/><path class="cls-1" d="M389,132.61a.75.75,0,0,0,.47-.3c0-.16-.08-.19-.21-.22s-.29.07-.4.06h-.19a.69.69,0,0,0-.15,0l-.36.07c-.46.09-1,.21-1.46.33-1,.23-2,.49-2.95.79a19.59,19.59,0,0,0-2.52,1,23.79,23.79,0,0,1-3,1.37c-.09,0-.07,0-.15-.08l-.24-.2a1.06,1.06,0,0,1-.35-.8,2,2,0,0,1,.93-1.84,28.1,28.1,0,0,1,7-2.22c.73-.13,1.44-.32,2.19-.52l.63-.17.9-.21a12.88,12.88,0,0,1,1.72-.29,4.86,4.86,0,0,1,2.68.33,1.32,1.32,0,0,1,.77.89,1.83,1.83,0,0,1-.27,1.23,4.75,4.75,0,0,1-1.09,1.17,10.91,10.91,0,0,1-1.73,1.08,27.68,27.68,0,0,1-2.54,1.17l-2.11.87c-1.09.45-2.11,1-3.23,1.44-.25.09-.48.21-.75.29-1,.28-1.49.14-1.72-.52a1.64,1.64,0,0,1-.09-.44,1.73,1.73,0,0,1,.22-.65,1,1,0,0,1,.53-.46c1.7-.81,3.68-1.64,5.6-2.45l1.59-.68a.38.38,0,0,0,.17,0Z"/><path class="cls-1" d="M385.07,136.29a6.83,6.83,0,0,1,2.59-.52,3.12,3.12,0,0,1,1.8.54,2,2,0,0,1,.87,1.23,1.18,1.18,0,0,1,0,.32,7.48,7.48,0,0,1-.37,1l-.37.51c-.14.18-.35.36-.52.54a19,19,0,0,1-2.51,2L384.85,143a4,4,0,0,1-2.7,1c-.38-.05-.24-.68-.1-1.3s.17-1.22.51-1.36c.59-.26,1.27-.63,2-1,.32-.18.79-.47.75-.37a1.05,1.05,0,0,0,.41-.06,1.24,1.24,0,0,0,.7-.52c.06-.08,0-.17,0-.26-.14-.4-.56-.34-1-.25a3.26,3.26,0,0,0-.45.14,1.22,1.22,0,0,0-.24.1l-.44.22A9.88,9.88,0,0,0,381.8,141a3,3,0,0,0-.59.88l0,.19a.65.65,0,0,0,0,.14h0a1.38,1.38,0,0,0-.21,0,.16.16,0,0,0-.09,0c-.06,0,0,0,0,0s0,0,.06-.06a1.19,1.19,0,0,0,.15-.18c.06-.09,0-.09,0-.09h.05c.27,0,.53.2.62.85,0,.15.07.29.08.44a.84.84,0,0,1-.9,1,1.89,1.89,0,0,1-.41,0l-.5-.11a4,4,0,0,1-.59-.34,2.08,2.08,0,0,1-.64-2.2,3.74,3.74,0,0,1,.37-.93,7.67,7.67,0,0,1,1.9-2.1,14.34,14.34,0,0,1,1.59-1.08l.85-.47c.48-.24,1-.5,1.5-.69Z"/><path class="cls-1" d="M386,146.72a22.72,22.72,0,0,1-2.73.74l-.75.17a3.83,3.83,0,0,1-.81.08,2.63,2.63,0,0,1-1.34-.37,1.7,1.7,0,0,1-.73-1.11,3.46,3.46,0,0,1,.27-2.24,4.75,4.75,0,0,1,.61-.94,4.46,4.46,0,0,1,.63-.67,3.12,3.12,0,0,1,1.89-1c.46,0,.76,2.35.33,2.6a9.19,9.19,0,0,0-1,.7c-.06,0-.23,0-.4.25a.16.16,0,0,0,0,.07.18.18,0,0,0,.12.29,2,2,0,0,0,.35,0,1.38,1.38,0,0,0,.32,0l.6-.13c.4-.11.81-.22,1.22-.36s1-.33,1.49-.54a15.75,15.75,0,0,0,2.2-1,10.13,10.13,0,0,0,1.43-1.17c.1-.09.18-.2.28-.28.38-.3.53-.22,1,.2l.36.26a.83.83,0,0,1,.17,1.21,8,8,0,0,1-2.91,2.29c-.82.42-1.67.77-2.53,1.11Z"/><path class="cls-1" d="M386.73,150.93a9.37,9.37,0,0,1-3.25,0,4.31,4.31,0,0,1-.73-.17A2.11,2.11,0,0,1,381,148.6a3.25,3.25,0,0,1,1.19-1.92c.59-.47,1.06-.85,1.47-1.12a3.06,3.06,0,0,1,1.81-.82c.22,0,.38.61.44,1.23s0,1.25-.21,1.38l-1.24.64a.92.92,0,0,0-.55.09c-.18.08-.23.25-.13.34a1,1,0,0,0,.32.15,1.37,1.37,0,0,0,.5.13,6.31,6.31,0,0,0,1.06,0,8.83,8.83,0,0,0,3.44-1.07,5.6,5.6,0,0,0,1.22-1.16c.09-.09.15-.19.23-.28.32-.3.5-.29,1,.11.11.09.24.17.35.27a.9.9,0,0,1,.31,1.14,6.12,6.12,0,0,1-2.81,2.41,11.31,11.31,0,0,1-2.71.88Z"/><path class="cls-1" d="M348.31,219.28a41,41,0,0,0,6.36-7.37,76.92,76.92,0,0,0,5.05-8.56c1.11-2.17,2.08-4.4,3.08-6.63,3.49-7.86,6.39-16,9.21-24.21,1.28-3.64,2.44-7.33,3.87-10.94a21.2,21.2,0,0,1,1.68-3.47,5.25,5.25,0,0,1,.69-.87,3,3,0,0,1,1.07-.7,10.16,10.16,0,0,1,1.92-.61,10.31,10.31,0,0,0,3.2-1,9,9,0,0,0,2.43-2.21c.88-1.14,1.33-.7,1.07.75a6.2,6.2,0,0,1-1.35,2.68,6.29,6.29,0,0,1-1.7,1.38,8.19,8.19,0,0,1-2.22.78c-.64.13-1.19.25-1.69.4a6.09,6.09,0,0,0-.71.27c-.17.06-.12.06-.13.05l-.09.09a6.37,6.37,0,0,0-.79,1.2c-.26.5-.52,1-.76,1.57-1,2.2-1.8,4.55-2.64,6.9-1.67,4.7-3.32,9.46-5.14,14.19-2.18,5.66-4.3,11.61-6.91,17.27a100.15,100.15,0,0,1-4.76,9.13,56.88,56.88,0,0,1-6,8.44,25.82,25.82,0,0,1-10.33,7.62,19.07,19.07,0,0,1-9.76.73,31.85,31.85,0,0,1-9.08-3.3,85.53,85.53,0,0,1-12.19-8.12c-.84-.65-1.67-1.28-2.51-2-3.09-2.5-4-3.35-4.26-4.38a3,3,0,0,1-.19-.69c0-.63,1.57,0,3.94,1.74,3.49,2.58,6.93,5.34,10.57,7.82a42.71,42.71,0,0,0,11.61,5.95,18.13,18.13,0,0,0,9.23.47,18.44,18.44,0,0,0,8.17-4.46Z"/><path class="cls-1" d="M288,222.67,287,210l-.46-4.61c-.44-5.42-.87-10.84-1.44-16.24-.24-2.4-.59-4.8-1-7.15-.25-1.51-.54-3-.83-4.52s-.57-3-.9-4.37c-.21-.76.34-1.06,1.22-.47a6.23,6.23,0,0,1,2.16,3.81A152.42,152.42,0,0,1,288,195.35c.23,3.8.75,7.71,1.09,11.58l1.07,12.75c.22,2.62.44,5.23.65,7.85.35,4,.66,7.94,1.1,11.85.33,3.05.81,6,1.28,9,.11.66.21,1.3.32,2,.37,2.46.38,3.17-.12,3.81-.1.13-.19.34-.29.48s-.46.18-.81-.36a6.52,6.52,0,0,1-.78-2.06,144.34,144.34,0,0,1-2.38-16.77c-.42-4.24-.78-8.51-1.16-12.76Z"/><path class="cls-1" d="M304.63,346.6c-.74,7.66-19.53,11.71-25.64,7.59-9.41,10.56-33.2,9-38.26,5.69-6.2-15.26-4.63-99.91-3.42-104.89,0,0,17.29,3.39,21,2.89,0,0,10.3,35.89,9,42.06-1.7,7.73-7.84,3.56-9,5.42-1,1.71,2.19,3.78,6.07,3.79,1.32,0-5.61,2.53-4.67,4.21a4.58,4.58,0,0,0,3.87,1.18s-4.18,4.41,2,3.55l4.56-2.36s-1.36,3.63.16,4.17c.86.31,2.58-.26,4.36-1.63a14.76,14.76,0,0,0,5.52-9.59c.7-4.95-6.63-44.09-8.62-51.53,0,0,11.68,1.68,21.69-4.53C296.7,279.6,302.58,340.31,304.63,346.6Z"/><path class="cls-1" d="M272.35,321a4.53,4.53,0,0,1-1.05.24,3.45,3.45,0,0,1-1.47-.12c-.15-.06-.28-.16-.42-.23a1.08,1.08,0,0,1-.39-.28,1.52,1.52,0,0,1-.3-.37,1.92,1.92,0,0,1-.23-.42,3.88,3.88,0,0,1-.25-1c0-.16,0-.34,0-.45v0h0a1.6,1.6,0,0,1,0-.21l0,0h0l-.08,0-.15.07-1.18.61-.92.47-1.08.11a7.06,7.06,0,0,1-.93,0,5,5,0,0,1-1-.12,2.67,2.67,0,0,1-.62-.21L262,319a3.07,3.07,0,0,1-.35-.28,3.34,3.34,0,0,1-.32-.33,4.34,4.34,0,0,1-.23-.43,2.17,2.17,0,0,1-.17-.87,3.15,3.15,0,0,1,.27-1.27s0,0,0-.05.13-.14.08-.14a.54.54,0,0,1-.28,0l-.42-.16c-.17-.09-.32-.14-.6-.31a5.81,5.81,0,0,1-1.32-1l-.19-.4a2.7,2.7,0,0,1-.12-.47,2.19,2.19,0,0,1,.12-.95,4,4,0,0,1,1.31-1.6c.18-.14.36-.28.54-.4l.28-.19.15-.08a1.92,1.92,0,0,0,.31-.18c-.1,0-.22,0-.34-.05l-.11,0-.06,0-.22-.08a7.9,7.9,0,0,1-1.59-.8,5.18,5.18,0,0,1-.77-.6,3.89,3.89,0,0,1-.78-1.06,2.54,2.54,0,0,1,.05-2.48,2.32,2.32,0,0,1,1.48-1,5.13,5.13,0,0,1,1-.11h.64c.76,0,1.42.08,2,0a3.26,3.26,0,0,0,2.75-1.47,6.57,6.57,0,0,0,.75-1.65,9.12,9.12,0,0,0,.24-.93l.06-.41,0-.47a28.28,28.28,0,0,0-.32-4.13c-.81-5.63-2.12-11.27-3.46-16.87-1-4.26-2.14-8.5-3.29-12.73l-1.62-5.85c0-.07,0-.14-.11-.11a2,2,0,0,1-.25,0c-.59,0-1.17,0-1.72-.08-1.13-.09-2.23-.23-3.33-.37-2.52-.33-5-.74-7.49-1.17l-3.72-.67-2.64-.51a2.14,2.14,0,0,0-.06.4l0,.25,0,.57c-.07.79-.12,1.6-.17,2.4l-.23,4.84c-.13,3.24-.23,6.47-.31,9.71q-.24,9.72-.27,19.44c-.05,13,.11,25.93.77,38.86.18,3.42.4,6.85.71,10.26s.67,6.83,1.25,10.19a47.71,47.71,0,0,0,1.09,4.94l.37,1.09c0,.12.06.21.18.24l.13.08.26.12a13.43,13.43,0,0,0,2.29.8,41.48,41.48,0,0,0,10,1.15,48.38,48.38,0,0,0,12.8-1.57,31.11,31.11,0,0,0,6-2.29,21.89,21.89,0,0,0,2.7-1.65c.4-.32.85-.61,1.22-1l.59-.52c.21-.2.54-.56.81-.83l.42-.44a1.45,1.45,0,0,1,.22-.21l.28.16c.38.21.76.45,1.16.64a8.59,8.59,0,0,0,1.4.51,16.28,16.28,0,0,0,3.06.49,27.58,27.58,0,0,0,6.34-.38,29.29,29.29,0,0,0,6.14-1.72,15,15,0,0,0,5.21-3.31,7,7,0,0,0,1.43-2.2c.19-.52.3-.76.41-.72s.21.4.14,1a5.4,5.4,0,0,1-1.05,2.58c-1.39,2-4.33,4.06-8.21,5.42a30.06,30.06,0,0,1-6.51,1.48,20.45,20.45,0,0,1-7.7-.46,8,8,0,0,1-.91-.29c-.15-.06-.3-.11-.45-.18l-.23-.11-.09,0h0l-.11.12c.09-.06-.58.53-1,.89s-.95.74-1.43,1.1a27.36,27.36,0,0,1-6.31,3.2,49.63,49.63,0,0,1-27.37,1.11c-.57-.18-1.15-.38-1.73-.62l-.45-.2c-.15-.08-.26-.12-.54-.29l-.71-.42c-.08,0-.1-.09-.12-.16l-.07-.19-.13-.38-.33-1c-.1-.28-.2-.57-.27-.85l-.43-1.7c-.47-2.26-.85-4.51-1.12-6.76-1.1-9-1.51-18-1.79-27s-.34-18-.28-27q.06-10.07.27-20.34c.08-3.42.16-6.86.29-10.3l.22-5.17.17-2.6.05-.65.11-1c.07-.63.17-1.34.31-2l4.11.79,3.09.55c2.06.36,4.13.7,6.19,1s4.13.58,6.16.72c.26,0,.51,0,.75,0h.37c.18,0,.45,0,.65,0l.65,0h.33c.11,0,.25-.05.24.1l.36,1.26.9,3.22c2.23,8.21,4.37,16.44,6.14,24.79.43,2.08.84,4.18,1.18,6.3.17,1.06.33,2.12.44,3.2a20.08,20.08,0,0,1,.16,3.32,9.27,9.27,0,0,1-.91,3.4,5.58,5.58,0,0,1-2.53,2.69,7.24,7.24,0,0,1-3.53.59c-.54,0-1.12-.07-1.52-.06a.64.64,0,0,0-.58.22.57.57,0,0,0,0,.59.85.85,0,0,0,.22.26,3.09,3.09,0,0,0,.48.38,6.84,6.84,0,0,0,1.18.59l.16.06.29.09.6.15a10.54,10.54,0,0,0,1.34.19,5.16,5.16,0,0,1,1.31.47l.21.11.13.07c.08.07.18.06.24.2,0,.31-.26.47-.45.75a4,4,0,0,1-1.13.88c-.53.3-1.1.6-1.62.92l-.4.25-.24.16c-.14.1-.29.2-.42.31a1.5,1.5,0,0,0-.35.36c-.09.14-.11.37.06.45a2.44,2.44,0,0,0,.33.23l.29.14a3.81,3.81,0,0,0,.45.15,4.65,4.65,0,0,0,1.72,0l1.06-.13,1-.15c0,.14-.4.51-.66.83l-.87,1a8.29,8.29,0,0,0-.74,1,4.53,4.53,0,0,0-.27.48l-.08.23,0,.16c0,.05,0,.06,0,.1s0,0,0,.06.16.06.23.12l.46.08a8.17,8.17,0,0,0,1.1,0l.47-.05.13-.06.27-.14,2.67-1.37,1.69-.87c.54-.26,1.22-.71,1.41-.59a21.8,21.8,0,0,0-1.1,3.76l0,.2a.57.57,0,0,0,0,.19v.16a2,2,0,0,0,0,.24.5.5,0,0,0,.34.34,1.11,1.11,0,0,0,.48,0,5.11,5.11,0,0,0,.77-.23,8.56,8.56,0,0,0,1.55-.82,13,13,0,0,0,2.69-2.4,14.14,14.14,0,0,0,3.1-6.5,9.73,9.73,0,0,0,.15-1.76c0-.61-.08-1.24-.11-1.86-.12-1.26-.23-2.52-.41-3.78-.31-2.52-.68-5-1.07-7.56-1-6.21-2.05-12.41-3.19-18.6-.58-3.09-1.16-6.17-1.78-9.25l-.95-4.6-.51-2.28-.36-1.53c-.12-.53-.3-1.13-.37-1.61.93.13,1.87.22,2.77.28.66,0,1.25,0,1.88,0a37.59,37.59,0,0,0,10.94-1.65c.58-.18,1.17-.37,1.73-.6s1.15-.43,1.7-.71l.83-.39.41-.2c.14-.06.37-.2.55-.3l1.16-.66.58-.33.29-.16c.09-.05.22-.17.2,0q.51,4.17,1,8.32c2,17.34,4,34.33,6.06,51.46.46,3.77.9,7.46,1.37,11.26,1.7,14.09,2.23,18.55,2.23,21.62,0,.71.1,1.61.06,2.05s-.15.3-.36-.18a14.46,14.46,0,0,1-.83-2.66c-.62-2.54-1.29-6.54-2-11.7-2.1-15.29-3.88-31-5.72-47q-1.41-12-2.82-24.07L292,255s0,0,0,0h0l-.39.19-1.45.68a36.1,36.1,0,0,1-6.06,2,40.54,40.54,0,0,1-6.29.89c-1.06.08-2.12.09-3.19.08l-1.19,0h0l.46,2,.86,4.1c.56,2.73,1.09,5.46,1.61,8.2q1.54,8.21,2.92,16.47c.45,2.75.89,5.51,1.28,8.28s.77,5.53,1,8.41c0,.37.05.72.06,1.1l0,1.23a13.09,13.09,0,0,1-.44,2.26,16.31,16.31,0,0,1-1.8,4.18,16,16,0,0,1-2.9,3.51,11.74,11.74,0,0,1-4,2.49Z"/><path class="cls-1" d="M269.55,321.09a2.11,2.11,0,0,1-1.37-.88,1.74,1.74,0,0,1-.12-1.53,4.9,4.9,0,0,1,1.17-1.68l.42-.42.38-.37.49-.48a11.25,11.25,0,0,0,2.74-3.48,1.93,1.93,0,0,0,.16-.77v-.11h0c2.5-.22.7-.05,1.27-.08a.49.49,0,0,0,.14.18c.14.16.36.42.56.61l.13.12h0l-.18.19-.42.47c-.58.63-1.17,1.27-1.78,1.88a25,25,0,0,1-4.09,3.37,10.19,10.19,0,0,1-2.57,1.23,5,5,0,0,1-3.26,0l-.41-.19a4.44,4.44,0,0,1-1.29-1.05,1.7,1.7,0,0,1-.54-1.78,4.2,4.2,0,0,1,1.4-1.57c.4-.31.73-.54,1.09-.79,1.42-1,2.85-1.87,4.25-2.78a22.36,22.36,0,0,0,1.94-1.35l.12-.11.19.16.16.15a1.36,1.36,0,0,0,.37.21.14.14,0,0,0,.17,0c-.05,0-.05.1,0,0a2.18,2.18,0,0,0,.28.83.69.69,0,0,1,.06.13h0l-.21.13-1,.7a25.57,25.57,0,0,1-4.47,2.68,9.09,9.09,0,0,1-2.73.76,4.91,4.91,0,0,1-.77,0c-.13,0-.38,0-.54-.05l-.52-.12a4.42,4.42,0,0,1-1.76-.92,3.36,3.36,0,0,1-.49-.65,1.29,1.29,0,0,1-.05-.8,2.91,2.91,0,0,1,1-1.42,10.17,10.17,0,0,1,.81-.62l.6-.4.29-.18.13-.08.75-.4a4.1,4.1,0,0,0,.4-.23c.06,0,0,0,0,0h-.09l-.21,0c-.27,0-.56,0-.86,0h-.23l-.25,0c-.16,0-.3,0-.46-.05a4,4,0,0,1-2-.82,3.13,3.13,0,0,1-.72-1l-.34-.75a2.87,2.87,0,0,1-.18-2.46,2.15,2.15,0,0,1,.94-.85,3.73,3.73,0,0,1,1.24-.32,8.53,8.53,0,0,1,1.86.09c.57.08,1.22.26,1.59.32.22,0,.41,0,.61.05a2.35,2.35,0,0,0,.54-.11A2.54,2.54,0,0,0,265.2,302a17.52,17.52,0,0,0,.51-6.07,59.49,59.49,0,0,0-.68-6.35c-.64-4.24-1.54-8.45-2.51-12.65-1.73-7.45-3.79-14.88-5.82-22.21-1.3-4.71-2.65-9.42-3.87-14.18-.6-2.38-1.18-4.77-1.67-7.18a47.34,47.34,0,0,1-1-7.38c-.06-1.59.29-2.33.47-2.24s.33.88.68,2.12c.65,2.49,2,6.95,3.4,12.39,2.41,9.64,5.19,19.23,7.66,28.94,1.24,4.86,2.42,9.74,3.43,14.68a87,87,0,0,1,2,15.14,21.27,21.27,0,0,1-.39,4.65,8,8,0,0,1-1,2.41,3.85,3.85,0,0,1-2.41,1.7,6.49,6.49,0,0,1-.74.09l-.71,0c-.42-.06-.93-.17-1.2-.24a7.83,7.83,0,0,0-1.93-.19.86.86,0,0,0-.41.1.28.28,0,0,0-.16.29,1.16,1.16,0,0,0,0,.18l.11.26a8.42,8.42,0,0,0,.44.88,1,1,0,0,0,.44.31,4.7,4.7,0,0,0,.87.19l.25,0,.19,0h1.22c.66,0,1.4-.1,2.06-.13l1-.05c.29,0,.75-.06.8,0l.8.25.44.18c.06.05.19,0,.17.2a1.36,1.36,0,0,1-.12.27,3.73,3.73,0,0,1-1.08,1.29c-.41.3-1,.62-1.57.94l-1.69.95-.82.49-.55.34-.3.2-.15.11a1.6,1.6,0,0,0-.26.26c-.09.13.07.22.15.28a1.11,1.11,0,0,0,.27.13l.2.05h.35a4.36,4.36,0,0,0,1.05-.15,9.79,9.79,0,0,0,2.14-.84,35.82,35.82,0,0,0,4.17-2.69,5.49,5.49,0,0,1,.67-.41l.19-.07.1,0a1.17,1.17,0,0,1,.32,0,1.23,1.23,0,0,1,.37.08,1.13,1.13,0,0,1,.42.37.82.82,0,0,1,.16.43,1,1,0,0,1,0,.39,1.59,1.59,0,0,1-.46.7,10.37,10.37,0,0,1-1.12.85c-.71.5-1.43,1-2.14,1.42-1.42.92-2.86,1.82-4.16,2.79a2,2,0,0,0-.4.35c-.18.13,0,.29.1.4a1,1,0,0,0,.19.17,1.3,1.3,0,0,0,.28.15,2.18,2.18,0,0,0,.89.18,7.64,7.64,0,0,0,4.06-1.81,29.18,29.18,0,0,0,3.64-3.32l.85-.92.42-.48.24-.26.06-.05a.9.9,0,0,1,.23-.16c.36-.59,1.64,1,1.18.67h0v.28a5.25,5.25,0,0,1-.95,2.81,16.92,16.92,0,0,1-2.12,2.51l-1,1a6.38,6.38,0,0,0-.51.53,1.17,1.17,0,0,0-.2.31.22.22,0,0,0,.15.29,1.5,1.5,0,0,0,.73.07,1.09,1.09,0,0,0,.36-.06l.18-.05a.79.79,0,0,0,.23-.09l.59-.3.59-.4a16.14,16.14,0,0,0,3.92-4.44,18.13,18.13,0,0,0,1.38-2.66,9.67,9.67,0,0,0,.47-1.37,4,4,0,0,0,.12-1.41l0-2.31c0-.77-.13-1.55-.19-2.33-.11-1.56-.33-3.11-.55-4.67s-.45-3.11-.72-4.66-.51-3.11-.81-4.66c-1.12-6.2-2.42-12.37-3.71-18.49-2-9.53-4.16-18.83-5.95-28.32-.42-2.08-.74-4.14-1.1-6.26a62.29,62.29,0,0,1-.84-8.43,9.7,9.7,0,0,1,.47-3.8,6.53,6.53,0,0,1,.4-1.11c.22-.36.41.27.56,1.68s.41,3.61.74,6.45c1.2,8.45,3,17.08,4.89,25.84s3.8,17.64,5.58,26.6c1.28,6.66,2.58,13.33,3.22,20.23a22.5,22.5,0,0,1,.15,2.62l0,1.33v1c0,.12,0,.27,0,.41a10,10,0,0,1-.86,2.82,21.42,21.42,0,0,1-1.26,2.43,20.93,20.93,0,0,1-3.41,4.26,10.09,10.09,0,0,1-2.39,1.72,6.44,6.44,0,0,1-.78.35l-1.16.28-.29.07H270l-.49-.1Z"/><path class="cls-1" d="M279.56,334.9l.17,5.15c0,.63.12,1.25.14,1.87.08,2.21.14,4.42.25,6.63,0,1,.16,2,.28,2.93a17.35,17.35,0,0,1,.33,3.74c-.07.78-2.22,0-2.37-1.43a56.34,56.34,0,0,1-.36-7.7c0-1.55-.18-3.14-.27-4.71l-.23-5.21-.13-3.2c-.07-1.61-.11-3.24-.22-4.84-.09-1.25-.3-2.47-.43-3.7,0-.28-.08-.54-.1-.82-.05-1,.09-1.35.66-1.57a3.12,3.12,0,0,1,.39-.15c.43-.09.8.32.94,1.05a52.34,52.34,0,0,1,.73,6.77l.27,5.18Z"/><path class="cls-1" d="M289.79,256.49a31.43,31.43,0,0,1-3.59,1.19c-.44.13-.87.29-1.31.38a35.13,35.13,0,0,1-4.75.63c-.71.05-1.4.16-2.1.23a7.16,7.16,0,0,1-2.69.09c-.55-.13.16-2.21,1.11-2.25,1.72-.11,3.43-.17,5.19-.22a14.3,14.3,0,0,0,3.15-.63c.57-.13,1.13-.31,1.7-.46s1.13-.36,1.67-.58a21,21,0,0,0,2-.87,16.13,16.13,0,0,0,2.82-1.7,11.51,11.51,0,0,0,1.75-1.81,4.46,4.46,0,0,1,.34-.42c.43-.51.68-.57,1.21-.31a2.47,2.47,0,0,1,.36.19.81.81,0,0,1,.17,1.18,11.19,11.19,0,0,1-3.62,3.59,23.13,23.13,0,0,1-3.4,1.82Z"/><path class="cls-1" d="M257,433.06l-1-17.67-.43-6.44-1.2-22.72c-.19-3.36-.41-6.74-.65-10.07a113.61,113.61,0,0,1-.52-13c.08-1.38.62-1.12,1.16,0a16.08,16.08,0,0,1,1.22,5.6c.46,8.72,1,17.46,1.27,26.29.17,5.28.64,10.76,1,16.15q.52,8.89,1.06,17.8.31,5.48.65,10.95c.33,5.53.63,11.08,1,16.57.29,4.26.69,8.44,1,12.66.07.93.16,1.84.2,2.78a24.78,24.78,0,0,1,0,3.72,3.14,3.14,0,0,1-.59,1.66,2.43,2.43,0,0,1-.39.47c-.22.15-.42-.14-.58-.76a23.45,23.45,0,0,1-.37-2.83c-.63-7.49-1.21-15.44-1.72-23.41-.37-5.92-.74-11.87-1.11-17.81Z"/><path class="cls-1" d="M267.23,429.65l.48-17.46.11-6.37.64-22.45c.08-3.32.09-6.66.09-10,0-4.23-.13-8.48.1-12.71.15-2.64,2.21.71,2.21,5.6,0,8.65-.21,17.3-.63,26-.24,5.21-.23,10.64-.36,16q-.21,8.79-.44,17.59l-.27,10.83c-.11,5.46-.26,11-.29,16.38,0,4.22.08,8.35.16,12.52,0,.91.05,1.81.07,2.73A30.24,30.24,0,0,1,269,472a3.09,3.09,0,0,1-.51,1.62,3.05,3.05,0,0,1-.37.51c-.41.38-.88-1.05-1-3.58-.44-7.48-.37-15.34-.28-23.24.11-5.86.22-11.75.33-17.62Z"/><path class="cls-1" d="M286.26,428.16,284.33,410c-.23-2.21-.53-4.41-.74-6.62-.74-7.79-1.44-15.58-2-23.38-.27-3.47-.55-6.95-.82-10.38l-.45-6.65c-.14-2.21-.11-4.45-.06-6.67.1-2.76,2.21.75,2.36,5.77.4,9,1.14,18,1.71,27,.35,5.43,1.06,11.05,1.63,16.59q1,9.12,2,18.26l1.26,11.23c.67,5.67,1.34,11.37,2,17,.54,4.37,1.2,8.64,1.73,13,.12,1,.23,1.89.35,2.85a32.91,32.91,0,0,1,.18,3.84,3.44,3.44,0,0,1-.56,1.75,2.51,2.51,0,0,1-.38.48c-.22.16-.42-.14-.59-.77s-.28-1.58-.47-2.89c-1-7.65-2.1-15.8-3.07-24q-1.08-9.12-2.15-18.28Z"/><path class="cls-1" d="M295.9,424.66l-.42-17.87-.21-6.51-.41-23c-.06-3.4-.18-6.81-.32-10.18-.16-4.33-.45-8.67-.3-13,.12-2.71,2.19.7,2.36,5.67.27,8.83.45,17.67.44,26.6,0,5.33.27,10.88.41,16.33l.45,18c.1,3.69.21,7.38.31,11.07.18,5.59.33,11.2.6,16.75.21,4.31.55,8.52.87,12.77.07.94.15,1.85.23,2.79.24,3.5.21,4.59-.26,5.38a3.09,3.09,0,0,0-.27.59c0,.16-.06.34-.34,0a2,2,0,0,1-.39-.7,13.11,13.11,0,0,1-.6-2.92c-.87-7.62-1.25-15.65-1.59-23.72-.25-6-.42-12-.61-18Z"/><path class="cls-1" d="M260.84,476.3c9.89-3.53,27.74.34,32.61,1.64C308.42,481.94,255.79,485,260.84,476.3Z"/><path class="cls-1" d="M286.9,480.27a50.37,50.37,0,0,0,5.55-.59l.57-.1.15,0a1.82,1.82,0,0,0,.29-.08c.09,0,.24-.12.17-.22a.79.79,0,0,0-.25-.17c.12,0-1.66-.43-2.92-.74a98.3,98.3,0,0,0-14.36-2.52,46.21,46.21,0,0,0-6.44-.15,46.9,46.9,0,0,0-8,1.18c-.82.16-.92-.38-.38-1.1a4.84,4.84,0,0,1,1.32-1.14,7.3,7.3,0,0,1,2.16-.77,41,41,0,0,1,8.76-.36,67.09,67.09,0,0,1,8.61,1.09c3.4.66,6.93,1.22,10.37,2.1l.74.2c.28.08.44.11.87.25a8.06,8.06,0,0,1,1.08.39c.17.07.35.14.5.22l.41.25a1.94,1.94,0,0,1,.95,1.32,1.65,1.65,0,0,1-.89,1.34,6.19,6.19,0,0,1-1.94.78l-.55.13-.41.09-.76.14c-1,.16-1.95.28-2.92.37-2.38.24-4.77.35-7.15.4-3.61.08-7.23,0-10.81-.31a39.84,39.84,0,0,1-8.31-1.23,8.83,8.83,0,0,1-1.83-.75,4,4,0,0,1-1.35-1.16,2.35,2.35,0,0,1-.47-1.35,1.22,1.22,0,0,1,.75-1.26,1.43,1.43,0,0,1,.49-.13c.24,0,.33.28.36.62a2.17,2.17,0,0,1,0,.25c0,.08.05.16.09.23a1.29,1.29,0,0,0,.32.43,6.58,6.58,0,0,0,2.75,1.22,29.6,29.6,0,0,0,3.54.66c2.44.33,5,.5,7.51.6a108,108,0,0,0,11.38-.16Z"/><path class="cls-1" d="M293.61,473.84c9.61-4.24,24.47-2.56,29.46-1.89C339.58,474.14,289.21,482.92,293.61,473.84Z"/><path class="cls-1" d="M317.84,475a48.88,48.88,0,0,0,5.06-1.12l.48-.15.12,0,.27-.09c.08,0,.21-.12.17-.22s-.13-.11-.22-.15a.79.79,0,0,0-.22-.06l-.45-.07-1.84-.24a86.24,86.24,0,0,0-13.52-.94,42,42,0,0,0-5.95.55,57.21,57.21,0,0,0-7.31,1.9c-.75.21-.9-.32-.46-1.07a4.74,4.74,0,0,1,1.1-1.21,6.81,6.81,0,0,1,1.91-.94A47.19,47.19,0,0,1,313.14,470c3.21.28,6.55.48,9.8.95l.79.13.43.07.53.12a5.56,5.56,0,0,1,1.81.68,1.59,1.59,0,0,1,.82,1.24,1.82,1.82,0,0,1-.8,1.29,6.07,6.07,0,0,1-1.72.92c-.34.12-.7.26-.9.32l-.7.21c-.88.25-1.77.46-2.65.65-2.19.47-4.38.82-6.58,1.11a99.62,99.62,0,0,1-10,.81,35,35,0,0,1-7.83-.34,7.53,7.53,0,0,1-1.79-.56,3.71,3.71,0,0,1-1.36-1.07,2.24,2.24,0,0,1-.45-1.3,1.17,1.17,0,0,1,.71-1.18,1.55,1.55,0,0,1,.47-.14c.51,0,.29,1.08.83,1.39a5.52,5.52,0,0,0,2.52.86,27,27,0,0,0,3.31.27c2.28.06,4.63,0,7-.2a97.58,97.58,0,0,0,10.49-1.31Z"/><path class="cls-2" d="M119.25,250.43a51.6,51.6,0,0,0,6.81.76c1.13.1,2.25.13,3.38.17s2.26.09,3.38.1c4.5.1,9,.06,13.49,0,9-.16,18-.52,26.93-1l6.72-.41,3.37-.24,1.68-.15h0l0,.15.21,1.45.21,1.65.34,3.32c.2,2.23.37,4.46.54,6.69l.51,6.72.3,3.37.07.58L186,274a113.7,113.7,0,0,1-13,3.08c-8.78,1.64-17.66,2.87-26.55,4-4.44.53-8.89,1-13.35,1.42-2.22.2-4.45.39-6.67.52-.56,0-1.11.07-1.66.07l-.82,0h-.41l-.32,0c-.22,0-.44,0-.64-.08s-.42-.16-.65-.28c-.48-.26-.95-.48-1.43-.77-3.82-2.21-7.55-4.73-11.27-7.2s-7.42-5-11.09-7.59l-.73-.51.13-.08,1.07-.7c.46-.31.94-.59,1.41-.88,1.9-1.15,3.86-2.25,5.8-3.4,3.86-2.3,7.77-4.89,10.72-8.55,1.58-2.1-.09-3.06-1.46-1.18-2.71,3.36-6.41,5.84-10.23,8.11-1.91,1.14-3.87,2.23-5.8,3.41-.49.3-1,.59-1.45.9l-.72.47-.36.23-.64.46-1.29.9-.32.22s-.17.08-.11.12l.18.12.69.48,2,1.42q5.53,3.85,11.12,7.61c3.74,2.49,7.46,5,11.39,7.28.49.29,1,.55,1.54.83.27.13.6.25.9.37a3.39,3.39,0,0,0,1,.16l.51,0H124l.87,0c.57,0,1.14-.05,1.7-.08,2.26-.13,4.5-.32,6.74-.52,4.48-.4,8.95-.9,13.41-1.43,8.92-1.09,17.82-2.32,26.67-4a113.47,113.47,0,0,0,13.2-3.15l2-.67.4-.14c.12-.05.32-.05.24-.23l-.09-.84-.13-1.08-.29-3.33-.51-6.71c-.17-2.24-.34-4.48-.55-6.72l-.34-3.37-.21-1.69-.13-.84-.06-.43,0-.22-.07-.38c-.1-.5-.19-1-.29-1.49l-1.68.15-1.67.14-3.34.24-6.71.41c-8.94.47-17.9.83-26.85,1-4.48.07-8.95.11-13.42,0-1.12,0-2.23-.06-3.35-.1s-2.23-.07-3.33-.16a53.55,53.55,0,0,1-6.55-.73C117.85,248.22,117.2,250,119.25,250.43Z"/><path class="cls-2" d="M121.38,286.62c-8.81-5.17-17.33-10.82-25.91-16.42-.29-.21-1.33,1.39-1,1.57,8.56,5.6,17.12,11.27,26,16.47C120.66,288.39,121.62,286.76,121.38,286.62Z"/><path class="cls-2" d="M187.38,276.91c-.6.23-1.19.48-1.8.7l-1.88.59c-1.25.4-2.54.7-3.82,1.05l-3.87.92-3.9.83c-5.22,1.06-10.47,2-15.74,2.76s-10.55,1.49-15.85,2a132.27,132.27,0,0,1-15.86.86c-.71,0-.83,1.88-.07,1.88a132.75,132.75,0,0,0,16.12-.87q8-.82,15.94-2.05c5.3-.81,10.58-1.71,15.83-2.77l3.94-.84,3.92-.93c1.31-.36,2.61-.66,3.91-1.08l1.94-.61c.65-.23,1.3-.5,1.94-.75S187.89,276.71,187.38,276.91Z"/><path class="cls-2" d="M172.65,385.8c4.89-1.94,9.85-3.75,14.66-6.07,1.19-.59,2.38-1.2,3.54-1.83l1.74-1,1.53-.88.43-.24c0-.05.18-.08.16-.14l-.15-.18-.64-.76-5.38-6.43-10.13-12.12-.73-.86c-.15-.33-.56-.32-.83-.41l-.48-.12-1.89-.48c-1.26-.35-2.52-.69-3.77-1.07-2.51-.75-5-1.57-7.47-2.43-9.91-3.45-19.63-7.52-29.58-11.05-1.24-.45-2.49-.88-3.74-1.3l-1.57-.54-.47-.16-.24-.08-.11,0,0,.12-.17,1-.43,2.47c-.47,2.57-1,5.14-1.59,7.68-1.2,5.09-2.68,10.12-4.24,15.14a1,1,0,1,0,1.79.56c1.57-5,3.07-10.11,4.28-15.27.61-2.58,1.14-5.17,1.61-7.78l.25-1.41.3.1c1.25.41,2.48.85,3.72,1.29,9.89,3.51,19.61,7.58,29.59,11.06,2.5.86,5,1.69,7.55,2.45,1.26.39,2.55.73,3.82,1.09l1.93.49.5.12.54.65L187.1,369.5l4.75,5.68-1.9,1.06c-1.14.63-2.3,1.22-3.47,1.79-4.67,2.27-9.62,4.07-14.51,6C170.89,384.46,171.59,386.22,172.65,385.8Z"/><path class="cls-2" d="M169.29,384.21c-15.49-5.92-30.65-12.75-46.23-18.65-.54-.22-1.21,1.57-.67,1.76,15.51,5.87,30.67,12.7,46.23,18.65C169,386.13,169.71,384.37,169.29,384.21Z"/><path class="cls-2" d="M175.57,356l7.29-3.92L178,350.62l-2.79-.86q-2.72-.87-5.42-1.77c-3.61-1.22-7.19-2.51-10.76-3.83s-7.13-2.7-10.69-4.08l-11-4.23-8.81,2c-.69.14-.26,2,.41,1.83l8.26-1.87,10.41,4c3.56,1.38,7.13,2.75,10.71,4.08s7.19,2.63,10.81,3.85c1.82.61,3.64,1.21,5.46,1.78l3.31,1-3.27,1.76C174.2,354.59,175.09,356.26,175.57,356Z"/><path class="cls-2" d="M195.14,375l1.61-1,1.49-.94-1.07-1.41-2.23-2.92-4.26-5.58L182.16,352c-.18-.26-1.71.88-1.5,1.13l8.54,11.19,4.27,5.59,2,2.67s0,0,0,0l-1.36.86C193.92,373.53,194.93,375.13,195.14,375Z"/><polygon class="cls-1" points="155.65 343.89 153.84 286.73 147.74 287.59 149.01 341.35 155.65 343.89"/><path class="cls-2" d="M155.21,342.72l-5.27-2-1.24-52.3,4.23-.6,1.75,55.07a1,1,0,1,0,1.88-.06l-1.82-57.16-8,1.12L148.09,342l6.45,2.47C155.57,344.88,156.25,343.11,155.21,342.72Z"/><polygon class="cls-1" points="149.38 377.02 150.97 437.01 156.94 437.31 155.81 380.48 149.38 377.02"/><path class="cls-2" d="M149.7,378.26l5.18,2.79,1.1,55.27-4.09-.2-1.54-58a1,1,0,1,0-1.89,0l1.59,59.76,7.85.39-1.16-58.39-6.15-3.31C149.57,376,148.67,377.71,149.7,378.26Z"/><polygon class="cls-1" points="148.6 250.33 148.1 211 154.5 209.51 155.59 249.49 148.6 250.33"/><path class="cls-2" d="M149.33,251.19l7.22-.86-1.14-42-8.26,1.92.5,39.31c0,1.05,1.9,1,1.88,0l-.48-37.79,4.54-1.05,1,38-5.52.66C148.28,249.42,148.5,251.3,149.33,251.19Z"/><path class="cls-2" d="M126.25,267.29c.19,0,.56-.05.87-.06l1,0,2,0,4.06,0c2.71,0,5.42-.13,8.13-.29a87.5,87.5,0,0,0,16.21-2.26c.38-.08-.12-1.93-.47-1.82a86.43,86.43,0,0,1-15.85,2.2q-4,.22-8.05.28l-4,.05h-2l-1,0a8.62,8.62,0,0,0-1.15.09c-.13,0-.21.15-.34.42a.47.47,0,0,0,0,.2c0,.07,0,.21,0,.27s.21.13.32.12,0-.05.12.1.11.24.16.43l0,.16,0,.12h0A0,0,0,0,1,126.25,267.29Z"/><polygon class="cls-3" points="130.73 265.8 130.13 257.91 115.77 266.22 132.04 273.22 130.73 265.8"/><path class="cls-2" d="M169.64,369.4a149.34,149.34,0,0,1-16-5.54c-5.24-2.13-10.42-4.47-15.45-7-.34-.19-1.23,1.49-.87,1.67,5.11,2.6,10.31,4.95,15.61,7.1a151,151,0,0,0,16.23,5.61C169.44,371.3,169.93,369.48,169.64,369.4Z"/><path class="cls-3" d="M166,375.23c1.15-2.44.19.48,2.05-3.77l1.93-6,7.74,6.78Z"/><path class="cls-2" d="M360.07,378.31H353.9l-16.13,31.25h8.88l16.56-28.87,1.24-.53,1.92-.79,3.86-1.59,7.69-3.24c5.12-2.2,10.22-4.45,15.26-6.82s10.06-4.83,15-7.49a105.8,105.8,0,0,0,14.23-9c1.35-1.06.1-2.5-1.16-1.48a103.91,103.91,0,0,1-14,8.78c-4.87,2.64-9.84,5.09-14.87,7.45s-10.09,4.6-15.2,6.78L369.51,376l-3.86,1.59-1.93.79-1,.41-.25.12c-.05,0-.29.08-.36.25l-.14.2c.07.1-.12-.1-.11-.07l0,0-.05,0-.08.09a.57.57,0,0,0-.16.49l-16,27.69h-4.7l14.19-27.48h5A.94.94,0,1,0,360.07,378.31Z"/><path class="cls-2" d="M424.72,385.81c-.09-6.3,0-12.61.31-18.92q.2-4.72.48-9.45l.31-4.72.38-5.08c-.09-.33-.11-.72-.46-.89a3.56,3.56,0,0,0-1.09-.39c-.45-.1-.87-.16-1.27-.21l-2.46-.34-2.46-.34-.5-.07-.3,0h-.15l-.12.09-.69.63c-.31.23-.6.46-.93.68-2.65,1.78-5.56,3.36-8.42,4.93-5.76,3.13-11.6,6.12-17.47,9.07q-17.6,8.85-35.42,17.27a1,1,0,1,0,.8,1.71q17.85-8.44,35.47-17.29c5.87-3,11.73-6,17.52-9.1,2.9-1.6,5.78-3.15,8.59-5,.35-.23.7-.51,1.06-.77l.21-.2h0l.12,0,2.42.33,2.43.34a11.71,11.71,0,0,1,1.16.19h0l-.32,4.38-.32,4.75q-.28,4.74-.48,9.49c-.26,6.33-.4,12.67-.31,19C422.85,386.9,424.74,386.86,424.72,385.81Z"/><path class="cls-2" d="M422.78,387.91c-8.83,5.32-17.44,11-26,16.64L383.87,413l-6.47,4.17L371.33,421l-24.1-12.85c-.9-.5-1.8,1.19-.89,1.66l25.06,13.37,7-4.4,6.49-4.18,12.9-8.48c8.57-5.66,17.16-11.3,25.95-16.59C424.45,389.11,423.48,387.49,422.78,387.91Z"/><path class="cls-2" d="M370,424.25a83.26,83.26,0,0,1-7.93-3.52c-2.61-1.3-5.18-2.66-7.73-4.08s-5.09-2.86-7.62-4.33-5-3-7.68-4.42c-.4-.21-1.13,1.55-.81,1.7,2.46,1.32,5,2.9,7.54,4.35s5.09,2.93,7.66,4.35,5.16,2.8,7.8,4.12A85.47,85.47,0,0,0,369.3,426C369.6,426.14,370.25,424.36,370,424.25Z"/><polygon class="cls-1" points="391.11 309.67 398.74 309.67 399.63 356.7 392.11 359.77 391.11 309.67"/><path class="cls-2" d="M390.18,310.44l1,50.72,9.39-3.83-.92-48.6h-7.6a.94.94,0,1,0,0,1.88h5.75l.86,45.47-5.65,2.3-1-48C392.05,309.4,390.15,309.43,390.18,310.44Z"/><polygon class="cls-1" points="393.84 408.61 393.84 454.93 401.47 454.09 401.47 403.77 393.84 408.61"/><path class="cls-2" d="M395,409l5.54-3.52v47.77l-5.75.63V409.57a.94.94,0,1,0-1.88,0V456l9.51-1.05V402.06L394,407.41C393.12,407.94,394.13,409.54,395,409Z"/><path class="cls-2" d="M408.18,376.32c-11,5.82-20.54,13.73-31.47,19.1-.38.17.46,1.89.83,1.68,11.18-5.5,20.76-13.43,31.52-19.11C409.35,377.83,408.48,376.16,408.18,376.32Z"/><path class="cls-3" d="M374.16,388.4c.32,1.37,1.94,9,1.94,9l5.22,6.37-17.95-1Z"/><path class="cls-1" d="M254.21,96.66a3.42,3.42,0,0,1-.59.2l-.52.06a3.33,3.33,0,0,1-1.13-.13,1.59,1.59,0,0,1-.49-.19,1.25,1.25,0,0,1-.46-.34,1.88,1.88,0,0,1-.39-1.69,2.77,2.77,0,0,1,.61-1.15,3.32,3.32,0,0,1,.88-.77,1.22,1.22,0,0,1,1.49,0c.15.12-.11.65-.3,1.1a2.72,2.72,0,0,0-.28,1s0,0,0,0l0,0v0h0c.06.1-.09-.14-.08-.12h0v0c.06.09.06.07,0,0a.77.77,0,0,0-.37.1c-.12.05-.1.1-.14.11a.43.43,0,0,0-.18.08h0l0-.06c.07-.12,0-.09.07-.07a.13.13,0,0,0,.12,0,1.5,1.5,0,0,0,.43,0c.13,0,.27,0,.29-.08s.13-.3,0-.51a.31.31,0,0,0-.24-.12s-.06,0-.08,0c0-.13.08-.16.07-.28a.06.06,0,0,0,0-.06.29.29,0,0,0,.07.1s.09.1.13.12,0,0-.1-.06l-.31-.18-.36-.16c-.4-.17-.68-.5-.42-1a1.66,1.66,0,0,1,.54-.43,1.71,1.71,0,0,1,.72-.14,1.75,1.75,0,0,1,.61.11,1.59,1.59,0,0,1,.47.24,2.55,2.55,0,0,1,1,1.42,2.48,2.48,0,0,1-.07,1.58,2.4,2.4,0,0,1-.48.75,3.14,3.14,0,0,1-.62.45Z"/><path class="cls-1" d="M268.93,98.13a3.84,3.84,0,0,1-.6.2l-.51.06a3.1,3.1,0,0,1-1.14-.12,2.57,2.57,0,0,1-.49-.19,1.18,1.18,0,0,1-.46-.35,1.89,1.89,0,0,1-.39-1.68A2.71,2.71,0,0,1,266,94.9a3.2,3.2,0,0,1,.89-.77,1.22,1.22,0,0,1,1.49,0c.14.11-.11.64-.31,1.09a3.33,3.33,0,0,0-.28,1h0a0,0,0,0,0,0,0h0c.06.11-.09-.14-.07-.11h0l0,0c.05.09.05.07,0,.06a.89.89,0,0,0-.38.09c-.12.05-.1.11-.14.11a.51.51,0,0,0-.18.08s0,0,0,0h0l0-.06c.07-.12,0-.1.07-.08s.05,0,.12,0a1.94,1.94,0,0,0,.43,0,1,1,0,0,0,.29-.08c.1,0,.14-.31,0-.51a.3.3,0,0,0-.24-.12c-.05,0-.07,0-.09,0a.74.74,0,0,0,.08-.28s0,0,0-.06a.17.17,0,0,0,.07.1s.09.11.13.13,0,0-.1-.07a2.7,2.7,0,0,0-.31-.17l-.36-.17c-.4-.16-.68-.49-.41-1a1.42,1.42,0,0,1,.53-.43,1.58,1.58,0,0,1,.72-.15,1.85,1.85,0,0,1,.62.12,1.72,1.72,0,0,1,.47.23,2.59,2.59,0,0,1,1,1.43,2.48,2.48,0,0,1-.07,1.58,2.39,2.39,0,0,1-.47.74,3.26,3.26,0,0,1-.63.46Z"/><path class="cls-1" d="M256.62,90.18c-.24.47-.44.78-.54.62s-.18,0-.27,0c-.58-.08-1.12-.24-1.66-.32a5,5,0,0,0-.67,0,4.09,4.09,0,0,0-1,.2,3,3,0,0,0-.5.12,4.13,4.13,0,0,0-.83.63c-.12.14-.3.22-.43.38s-.05.14-.09.2,0,0-.1,0a3.43,3.43,0,0,1-1-.66c-.29-.25-.46-.46-.4-.53a7.88,7.88,0,0,1,.88-1c.14-.11.22-.29.39-.39a3.16,3.16,0,0,1,.77-.41,7.76,7.76,0,0,1,1.22-.37,8.27,8.27,0,0,1,1.39-.18l.43,0a10.39,10.39,0,0,1,1.28.17,6.37,6.37,0,0,1,1.23.42.18.18,0,0,1,.08.06C256.82,89.33,256.81,89.44,256.62,90.18Z"/><path class="cls-1" d="M267.26,91.41c-.15-.42-.17-.73,0-.71s.18-.13.28-.17a5.1,5.1,0,0,1,2.07-.48,7.25,7.25,0,0,1,.93,0,4.74,4.74,0,0,1,1.54.4,5.43,5.43,0,0,1,.7.48A3.69,3.69,0,0,1,274,92.25a3.37,3.37,0,0,1,.25.93,2.3,2.3,0,0,0,.1.35.14.14,0,0,1-.05.15,2.34,2.34,0,0,1-1.22.1c-.39,0-.65,0-.65-.1a1.38,1.38,0,0,0-.18-.67c-.07-.08-.17-.13-.23-.21s-.19-.27-.32-.4a2.67,2.67,0,0,0-.65-.48,3.4,3.4,0,0,0-.94-.23l-.31,0a3.85,3.85,0,0,0-1,0,3.27,3.27,0,0,0-1,.31.06.06,0,0,1-.07,0C267.69,92,267.64,92,267.26,91.41Z"/><path class="cls-1" d="M269,84.8c-.08-.33-.05-.56.08-.63a9.35,9.35,0,0,1,1.17-.5,4.5,4.5,0,0,1,1-.29,3.25,3.25,0,0,1,1.16.14s0,0,.07,0c.34-.2.6.1.87.17a2.82,2.82,0,0,1,1.06.47,3.85,3.85,0,0,1,.59.55s.07.09.17,0a.3.3,0,0,1,.37,0c.18.15.33.33.51.48a10,10,0,0,1,.85.87,6.62,6.62,0,0,1,.46.62c.23.3.43.59.63.9,0,0,0,.16,0,.22a.71.71,0,0,0,.06.25,1,1,0,0,1,.1.17s-.18.22-.37.37a2.51,2.51,0,0,1-.59.34c-.37.16-.54.18-.58.12s-.07-.13-.13-.18a3.48,3.48,0,0,0-.39-.28s0,0,0-.07c-.14-.19-.27-.39-.41-.59s-.15-.31-.25-.44-.18-.17-.26-.27-.16-.24-.26-.35-.17-.25-.33-.29-.27-.2-.4-.29-.13,0-.17,0a1.45,1.45,0,0,1-.22-.21,2.38,2.38,0,0,0-.44-.4,1.31,1.31,0,0,0-.5-.12l0,0c-.17-.07-.34-.08-.5-.14s-.36.06-.53,0l-.18,0a2,2,0,0,0-.54,0,2.55,2.55,0,0,0-.54.06,1.16,1.16,0,0,0-.37.07c-.1,0-.16.16-.24.22s-.1,0-.15,0A5.15,5.15,0,0,1,269,84.8Z"/><path class="cls-1" d="M258.39,86.89c-.11.27-.25.44-.4.43a7.14,7.14,0,0,1-1.22-.15,7.73,7.73,0,0,1-.95-.23,4.94,4.94,0,0,1-.88-.54s0,0-.05,0c-.36.1-.46-.25-.7-.34a4,4,0,0,1-.84-.52c-.18-.13-.34-.32-.51-.46s-.06-.08-.15,0-.25.09-.32,0-.3-.18-.45-.25a3.74,3.74,0,0,0-.78-.2c-.15,0-.29-.07-.44,0a4.23,4.23,0,0,0-.65.14s-.12-.08-.17-.09a.58.58,0,0,0-.19,0,.91.91,0,0,0-.14.07s-.16-.14-.32-.36a2.85,2.85,0,0,1-.37-.65c-.15-.36-.12-.49-.05-.55a1.88,1.88,0,0,0,.24-.14,3.54,3.54,0,0,1,.47-.38h.09l.48-.14.51,0a3.27,3.27,0,0,1,.7.09,2.84,2.84,0,0,1,.52.07,3.8,3.8,0,0,1,.54.22,2.16,2.16,0,0,0,.55.21,2.38,2.38,0,0,1,.57.24c.05,0,.14,0,.19,0a2.27,2.27,0,0,1,.32.22,4.88,4.88,0,0,0,.54.49,3.33,3.33,0,0,0,.58.26s0,0,0,0a3.94,3.94,0,0,1,.55.35c.17.15.42.15.6.26l.18.13c.17.12.36.18.54.3s.34.14.51.24a.82.82,0,0,0,.36.15,1.67,1.67,0,0,0,.32,0s.09,0,.14.06A3.54,3.54,0,0,1,258.39,86.89Z"/><path class="cls-1" d="M252.36,105.23a2.68,2.68,0,0,1-.83-.73l-.07-.25,0-.13v0h0l-.08,0h0v-.6l.2-.69.09-.32.1-.21c.13-.26.25-.54.4-.8a7.06,7.06,0,0,1,.62-1,10,10,0,0,1,3.1-2.41l1.48-.79a4.52,4.52,0,0,1,2-.7c.26,0,.31.48.26,1s-.2,1-.53,1.14a36.27,36.27,0,0,0-3.45,1.53,4.89,4.89,0,0,0-1.6,1.6,4.43,4.43,0,0,0-.48.81l-.21.42-.09.21c0,.09-.1.21,0,.27a1.48,1.48,0,0,0,.33.24,5.08,5.08,0,0,0,.7.3,5.9,5.9,0,0,0,2.39.36,4.71,4.71,0,0,0,1.73-.57c.12-.07.22-.14.34-.2.43-.22.61-.19,1,.2a3,3,0,0,1,.24.26.69.69,0,0,1-.17,1,5.84,5.84,0,0,1-4.1,1.14,7.37,7.37,0,0,1-1.61-.3,5.66,5.66,0,0,1-.79-.27l-.38-.16-.57-.3Z"/><path class="cls-1" d="M261.42,117a2.44,2.44,0,0,1,0,1.26,2.75,2.75,0,0,1-.55,1.05,1.76,1.76,0,0,1-1,.65,1.74,1.74,0,0,1-1.58-.49,2.72,2.72,0,0,1-.68-1,3.56,3.56,0,0,1-.34-1,1.89,1.89,0,0,1,0-.76,3.37,3.37,0,0,1,.19-.32,1.38,1.38,0,0,1,.33-.2c.15-.08.6.37.91.68a3.21,3.21,0,0,0,.77.58s0,0,0-.06a.06.06,0,0,0,0,0h0l-.28,0h.15c.14,0,.09,0,.09,0a.77.77,0,0,0-.06.4c0,.13.05.14,0,.2s0,.45-.06.3,0,0-.07-.08-.16-.15-.13-.11,0-.05.08-.06a.63.63,0,0,0,.12-.21.43.43,0,0,0,0-.31l-.14-.17s0,0,0,0,0-.1,0-.13l0,0h0s0,0,0,0,.17.07.17.09l.06.07.18.24s.07.06.1.11,0,.27-.55.51l-.36.17a1,1,0,0,1-1,0,1.23,1.23,0,0,1-.36-.49,1.59,1.59,0,0,1-.17-.72,1.73,1.73,0,0,1,.06-.52,1.61,1.61,0,0,1,.3-.65,1.81,1.81,0,0,1,.69-.58,1.93,1.93,0,0,1,.82-.18,2.16,2.16,0,0,1,1.53.63,2.71,2.71,0,0,1,.71,1.15Z"/><path class="cls-1" d="M281.47,52.78a9.22,9.22,0,0,1,1.29,1.9,4.94,4.94,0,0,1,.39.76,6.53,6.53,0,0,1,.33,3,4.66,4.66,0,0,1-.12.65,2.69,2.69,0,0,1-.16.62,6.18,6.18,0,0,1-.36.73,5.09,5.09,0,0,1-.52.6c-.12.12-.07.12,0,0a6.54,6.54,0,0,0,0-.72c-.08-1.07-.29-1.8-.38-2.66a1.84,1.84,0,0,0-.25-.76c-.11-.25-.27-.48-.4-.73a14.56,14.56,0,0,0-1-1.63,11.3,11.3,0,0,0-.74-1,9.29,9.29,0,0,0-1.31-1.35,4.75,4.75,0,0,0-.58-.42l-.58-.44-.25-.2c-.32-.25-.41-.4-.48-.44l-.05,0a2.56,2.56,0,0,0,.45,0c.47.05,1,.09,1.5.18a6.14,6.14,0,0,1,1.45.53,6.93,6.93,0,0,1,1.84,1.35Z"/><path class="cls-1" d="M289.79,61.44a6.41,6.41,0,0,0-1.41.33,5.42,5.42,0,0,1-.48.26,5.89,5.89,0,0,0-1.77,1.13,4.24,4.24,0,0,0-.63.77c-.27.34-.49.72-.81,1.08-.1.11-.05.11,0,0s-.1-.39-.11-.68a3.47,3.47,0,0,1,1-2.81A12.62,12.62,0,0,1,287,60.22a5.55,5.55,0,0,1,2-.72,7.88,7.88,0,0,1,1.28,0,9,9,0,0,1,1.82.34l.67.2a3.89,3.89,0,0,1,.61.31,1.32,1.32,0,0,1,.25.16,4.73,4.73,0,0,1,.42.42.05.05,0,0,0,0,0,1.82,1.82,0,0,0-.4,0,4.78,4.78,0,0,0-1.25.12c-.4,0-.77.14-1.13.18-.52.11-1,.16-1.46.29Z"/><path class="cls-1" d="M263.68,364.9c-.77.09-1.53.14-2.28.2-.28,0-.54.11-.82.12-1,0-1.95,0-2.91.07a7.6,7.6,0,0,0-1.27.16,3.26,3.26,0,0,1-1.64.13c-.35-.12-.09-2.2.51-2.28a12.47,12.47,0,0,1,3.29,0,9.09,9.09,0,0,0,2-.16l2.21-.21c.45-.06.9-.1,1.35-.19a12.2,12.2,0,0,0,2-.45,6.13,6.13,0,0,0,1.32-.76,2.48,2.48,0,0,1,.26-.19c.3-.22.47-.14.85.3l.27.29a.77.77,0,0,1,0,1.05,5.85,5.85,0,0,1-2.88,1.54,20.63,20.63,0,0,1-2.29.46Z"/><path class="cls-1" d="M290,358.72c-.75,0-1.5,0-2.23-.05-.27,0-.54,0-.8,0-.94-.11-1.86-.3-2.77-.48a8.27,8.27,0,0,0-1.22-.12,2.79,2.79,0,0,1-1.55-.27c-.3-.21.51-2.14,1-2.08a13.23,13.23,0,0,1,2.95.68,6.69,6.69,0,0,0,1.84.18c.68,0,1.36.09,2,.07a10.48,10.48,0,0,0,1.25-.07,6.52,6.52,0,0,0,1.81-.41,4,4,0,0,0,1.13-.79c.08-.07.12-.16.2-.22.26-.23.43-.17.86.22l.3.27a.76.76,0,0,1,.18,1,4.67,4.67,0,0,1-2.71,1.75,13.44,13.44,0,0,1-2.31.39Z"/><path class="cls-1" d="M161.11,438.8a25.29,25.29,0,0,0-4.85-.52c-.61,0-1.22.05-1.83,0a51.76,51.76,0,0,0-6.47.36,17.07,17.07,0,0,0-2.79.6c-1.16.35-2.25.85-3.26,1.21-.32.1-.64-.34-.63-1a2.23,2.23,0,0,1,.3-1,2,2,0,0,1,.87-.73,22.61,22.61,0,0,1,7.84-1.34c1.57,0,3.17-.23,4.77-.22a36.14,36.14,0,0,1,5.28.31,12.41,12.41,0,0,1,1.65.34l.42.1.43.17.43.18a1.62,1.62,0,0,1,.28.2.93.93,0,0,1,.22.66.84.84,0,0,1-.22.47.77.77,0,0,1-.19.18,4.48,4.48,0,0,1-1.35.52c-.41.11-.81.19-1.22.27-.8.16-1.61.29-2.41.42-1.24.19-2.46.46-3.74.57a8,8,0,0,1-.86,0c-1.09,0-1.51-.3-1.56-.91a1.5,1.5,0,0,1,0-.42c.1-.44.47-.65,1.11-.71,2-.2,4.22-.54,6.38-.93a20.39,20.39,0,0,0,2.26-.54l.16-.07h0s0,.07.06.14l.13.2c.07.13.22.28.26.36a.8.8,0,0,0,.22.23c.1.06.07.08.14.08s0,0,0,0a.69.69,0,0,0-.17.2l0,.06v0h0c-.18.36.39-.8-.4.8h0l-.21-.07a4.79,4.79,0,0,0-1-.29Z"/><path class="cls-1" d="M386.71,453.71a29.65,29.65,0,0,1,5.31-.79c.64-.06,1.27-.14,1.9-.16a57.72,57.72,0,0,1,6.71.21c1,.09,2,.13,3,.24a8,8,0,0,1,3.83,1c.38.25,0,.69-.49,1.05a3.32,3.32,0,0,1-.83.44,1.44,1.44,0,0,1-.91.09c-2.24-.48-4.74-.68-7.23-1a27.26,27.26,0,0,0-4.6.1,39.43,39.43,0,0,0-5,.57,11.42,11.42,0,0,0-1.45.38l-.35.1-.29.15-.31.14s-.2-.31-.1-.17h0v0l0,0a.25.25,0,0,0,0-.07.69.69,0,0,0-.13-.11c-.06,0,0,0-.05,0s-.07,0,0,0a1.1,1.1,0,0,0,.37-.46,3.85,3.85,0,0,0,.92.25c.37.07.76.12,1.15.17a20.44,20.44,0,0,0,2.35.13,18.13,18.13,0,0,0,3.55-.41l.73-.18c.91-.2,1.12-.16,1.53.28.09.1.21.19.3.3.32.32,0,.93-.8,1.25a17,17,0,0,1-7.12.8,16.8,16.8,0,0,1-2.81-.4l-.45-.14a3.2,3.2,0,0,1-.31-.14,1.52,1.52,0,0,1-.2-.11,1.81,1.81,0,0,1-.3-.25,1.46,1.46,0,0,1-.23-.3,1.54,1.54,0,0,1-.19-.46,1.61,1.61,0,0,1,.19-1.11,1.68,1.68,0,0,1,.35-.41,1.1,1.1,0,0,1,.17-.13l.05,0,.38-.19a8.17,8.17,0,0,1,1.45-.57Z"/><path class="cls-1" d="M311.59,199.69c-.52.48-1.06.94-1.6,1.39-.19.16-.33.38-.54.53-.71.55-1.45,1-2.17,1.57a6.45,6.45,0,0,0-.86.79c-.34.37-.6.83-1.15,1-.35.07-1.52-2-1.13-2.33a9.1,9.1,0,0,1,2.45-1.68,6.45,6.45,0,0,0,1.39-1.16c.51-.44,1-.87,1.5-1.32.31-.28.59-.56.88-.85a8.33,8.33,0,0,0,1.11-1.43,2.76,2.76,0,0,0,.3-1.25,2,2,0,0,1,0-.25c0-.24.16-.26.82-.32l.44-.05c.5,0,.9.15,1,.61a4.47,4.47,0,0,1-.95,3.15,16.65,16.65,0,0,1-1.43,1.68Z"/><path class="cls-1" d="M313.35,64a4.49,4.49,0,0,1,3.11,1.71c1.2,1.47.78,3.17-.37,4.53s1.66,1.4,2.35.58c1.51-1.78,2.36-4,.89-6a6.51,6.51,0,0,0-4.89-2.56c-.6,0-1.62.2-1.9.82s.23.93.81,1Z"/><path class="cls-1" d="M314.91,58.94c4-1,8.91,5,7.15,8.71-.35.74,2.47.47,2.88-.41,1.22-2.57-.36-5.57-2.23-7.39a8.33,8.33,0,0,0-8.15-2.19c-1.72.45-1.39,1.74.35,1.28Z"/><path class="cls-1" d="M208.36,41.84a6.86,6.86,0,0,0-3.28,6.53c.06,1,3,.38,2.9-.77a5.18,5.18,0,0,1,2.19-4.84c.46-.26.79-.83.24-1.18a2.28,2.28,0,0,0-2,.26Z"/><path class="cls-1" d="M204.8,37.73c-3.2,2-5.67,4.93-5,9,.15.87,3.07.2,2.9-.78-.55-3.26,1.19-5.76,3.85-7.46,1.65-1.05-.9-1.27-1.76-.72Z"/></g></svg>