<svg id="Layer_1" data-name="Layer 1" xmlns="http://www.w3.org/2000/svg" width="520" height="520" viewBox="0 0 520 520"><defs><style>.cls-1,.cls-2{fill:#221f1f;}.cls-2{opacity:0.26;}</style></defs><title>Notioly v2</title><g id="_5.Crossroad" data-name="5.Crossroad"><path class="cls-1" d="M328.79,138.65a35.51,35.51,0,0,1-5.81,9.09c-.45.49-.88,1-1.37,1.45a15.59,15.59,0,0,1-1.48,1.33A21.53,21.53,0,0,1,314,154a22.6,22.6,0,0,1-6.84,1.27,32.69,32.69,0,0,1-6.11-.4,27.83,27.83,0,0,1-7.45-2.21c-.73-.34-.44-.74.36-.95a5.27,5.27,0,0,1,1.51-.12,8,8,0,0,1,.92.12,7.85,7.85,0,0,1,1,.22,27.45,27.45,0,0,0,14.72.82,18.07,18.07,0,0,0,7.87-4.54,29.61,29.61,0,0,0,6.11-8.23,43.13,43.13,0,0,0,2.5-5.9l.29-.86.21-.56c.09-.16.18-.32.28-.47a2.5,2.5,0,0,1,1.39,0l1.06.2c.67.12,1.33.24,2,.31a6,6,0,0,0,1.84,0,.72.72,0,0,0,.48-.32l.15-.35.1-.42a7.25,7.25,0,0,0-2.41-6.15,3.06,3.06,0,0,0-.58-.44c-.21-.12-.4-.28-.62-.39-1.63-.83-2.25-.88-2.59-1.47a3.44,3.44,0,0,1-.24-.39c-.08-.21.1-.36.51-.43a4.67,4.67,0,0,1,.8,0,5.8,5.8,0,0,1,1.08.21,7.88,7.88,0,0,1,3.31,1.94,9,9,0,0,1,2.09,3.34,8.56,8.56,0,0,1,.46,4.06,4.69,4.69,0,0,1-.36,1.19,1.61,1.61,0,0,1-.18.34l-.28.33a1.72,1.72,0,0,1-.68.54,3.35,3.35,0,0,1-1.36.34,7.36,7.36,0,0,1-1.05,0,20.78,20.78,0,0,1-2.47-.32l-1.16-.21c-.08,0,0,0-.05,0,.12-.4-.35,1.06-.67,1.9s-.72,1.88-1.13,2.81Z"/><path class="cls-1" d="M327,120.3A8.06,8.06,0,0,1,323.5,118a3.37,3.37,0,0,1-.27-.34,2.55,2.55,0,0,1-.27-.42,2.94,2.94,0,0,1-.27-.89,2.31,2.31,0,0,1,.45-1.77,2.9,2.9,0,0,1,1.3-.92,7.71,7.71,0,0,1,2.53-.42c.72,0,1.43,0,2.14,0a5.35,5.35,0,0,1,2.75.57c.3.21,0,.59-.38.94s-.8.7-1.23.63a18.56,18.56,0,0,0-4.74-.23,1.45,1.45,0,0,0-.93.44c-.12.16-.12.37,0,.76a2.69,2.69,0,0,0,.86,1,6.49,6.49,0,0,0,1.37.87,2.75,2.75,0,0,0,1.66.35.59.59,0,0,0,.35-.25,1.24,1.24,0,0,0,.18-.52.65.65,0,0,0-.08-.43.31.31,0,0,0-.28-.11l-.07.11a.91.91,0,0,0-.08.36c0,.12,0,.27.06.26l-.09,0s0,0-.08,0-.13.12-.1.08,0,0,0,0a.34.34,0,0,0,0-.2s0-.11,0-.16,0,0,0,0,0,0,0,0a.57.57,0,0,1,.11-.11c.37-.32.6-.44,1.07-.2a3.31,3.31,0,0,1,.33.15c.33.2.39.63,0,1.14a2.62,2.62,0,0,1-.55.56l-.19.13-.28.13a1.1,1.1,0,0,1-.32.1,1.85,1.85,0,0,1-.47,0,1.47,1.47,0,0,1-.92-.52,1.83,1.83,0,0,1-.38-.73,2.75,2.75,0,0,1,.4-2.13,2,2,0,0,1,1.41-.81,1.66,1.66,0,0,1,.39,0l.32.06a2,2,0,0,1,.68.31,2.1,2.1,0,0,1,.84,1.17,2.83,2.83,0,0,1,0,1.61,2.54,2.54,0,0,1-2.52,1.89,4.24,4.24,0,0,1-1.23-.18Z"/><path class="cls-1" d="M352.16,97.9c-2.49,6.39-14.07,13.49-27.34,3.06-6-4.72-20-2.25-22.11,5.91-1.32,5,2,9.67,1.68,14.73-.26,4.2-3.09,6.65-6.65,3.42-2.35-2.13-5.92-11.1-13.34-6.49-1.49.93-4.89,6.63.84,10.14,13,61.52-59.71,44.09-57.56,20.5,1.78-19.56,32.55-24.76,37.43-36.21,2.67-6.25-1.44-12-1.55-18.3-.16-9,7.11-21.48,27.79-13.43,5.79,2.25,12.47-16.42,34.89-14.52C340.37,67.9,358.21,82.38,352.16,97.9Z"/><path class="cls-1" d="M253,124.84A151.18,151.18,0,0,0,239.8,133c-4.1,3-7.84,6.61-9.76,11.16-.26.56-.42,1.15-.63,1.73s-.3,1.18-.44,1.78-.2,1.22-.25,1.82c0,.29,0,.58,0,.88l0,.88a13.35,13.35,0,0,0,2.76,6.59c3,3.95,7.43,6.76,12.07,8.76a40.39,40.39,0,0,0,21.74,2.86,26.43,26.43,0,0,0,9.08-3.18,21.48,21.48,0,0,0,7-6.52,25.83,25.83,0,0,0,3.72-8.9,39.8,39.8,0,0,0,.9-9.76,65.28,65.28,0,0,0-1-9.84l-.23-1.22-.12-.61a1.09,1.09,0,0,0-.06-.28l-.29-.2c-.18-.14-.38-.25-.55-.41a8.25,8.25,0,0,1-1-1,6.06,6.06,0,0,1-1.27-2.53,6.35,6.35,0,0,1,0-2.81,8.23,8.23,0,0,1,1-2.55,7.35,7.35,0,0,1,.85-1.12,3.3,3.3,0,0,1,.58-.51,4.79,4.79,0,0,1,.61-.34,7.22,7.22,0,0,1,5.32-.94,9,9,0,0,1,4.48,2.91c1.18,1.28,2.12,2.72,3.1,4a5.28,5.28,0,0,0,3.15,2.17,2.59,2.59,0,0,0,2.66-2,8.79,8.79,0,0,0,.47-4.07,27.3,27.3,0,0,0-.87-4.26,34.27,34.27,0,0,1-1-4.42,10.72,10.72,0,0,1,.3-4.67,10.12,10.12,0,0,1,2.42-4.06,14.61,14.61,0,0,1,3.81-2.64,19.4,19.4,0,0,1,11.51-1.59,12.57,12.57,0,0,1,5.52,2.31l2.26,1.6,2.4,1.36a18.71,18.71,0,0,0,10.57,1.92,16.47,16.47,0,0,0,5.11-1.66,14.08,14.08,0,0,0,4.18-3.37,10.87,10.87,0,0,0,.87-1.14c.25-.32.4-.61.54-.82.27-.44.45-.61.52-.55s0,1.31-1.08,3.08a14.15,14.15,0,0,1-6.62,5.37,16.28,16.28,0,0,1-5.77,1.2,19.53,19.53,0,0,1-6.55-1.07c-1-.36-1.88-.78-2.81-1.19s-1.78-1-2.63-1.52L324,101.92c-.35-.21-.68-.46-1-.67l-1.17-.53a14.61,14.61,0,0,0-5.21-.84,18.09,18.09,0,0,0-5.32.84,14,14,0,0,0-4.63,2.49,8,8,0,0,0-2.68,4.12,11.4,11.4,0,0,0,.14,5.18c.38,1.81,1,3.67,1.34,5.7a11.73,11.73,0,0,1-.43,6.39,6.34,6.34,0,0,1-.92,1.55,4.47,4.47,0,0,1-1.58,1.21,3.87,3.87,0,0,1-2,.31,5.09,5.09,0,0,1-1.79-.57,8.17,8.17,0,0,1-2.57-2.19c-.64-.82-1.18-1.61-1.75-2.36a12,12,0,0,0-3.78-3.64,5,5,0,0,0-2.26-.56,9.62,9.62,0,0,0-1.18.18,7.67,7.67,0,0,0-1.18.44l-.57.3a2.69,2.69,0,0,0-.47.27,3.74,3.74,0,0,0-.73.85,6.4,6.4,0,0,0-1,2.27,4.44,4.44,0,0,0,1.47,4.3,2.8,2.8,0,0,0,.49.41l.81.58c.24.09.23.33.27.54l.11.57.13.72c.19,1,.36,1.94.49,2.92a56.23,56.23,0,0,1,.49,14.28,29.65,29.65,0,0,1-4.69,13.78,23.32,23.32,0,0,1-5.07,5.42,25.6,25.6,0,0,1-6.5,3.57,34.1,34.1,0,0,1-14.48,1.84,44.15,44.15,0,0,1-15.41-4.06,35.85,35.85,0,0,1-6.84-4.19,22.82,22.82,0,0,1-5.46-6,13.32,13.32,0,0,1-2.09-7.92,18.81,18.81,0,0,1,2.3-7.79c2.61-4.8,6.82-8.36,11.16-11.33,5.38-3.68,11.2-6.56,16.55-10,2.62-1.76,5.26-3.68,6.91-6.26a10,10,0,0,0,1.47-4.26,15,15,0,0,0-.27-4.62c-.47-2.34-1.24-4.67-1.7-7.13a17.94,17.94,0,0,1,.09-7.51,16.92,16.92,0,0,1,3.22-6.81,13.94,13.94,0,0,1,6.1-4.42,10.52,10.52,0,0,1,1.81-.56l.92-.24a7.18,7.18,0,0,1,.93-.13l1.87-.21,1.88,0h.94c.31,0,.61.08.92.12l1.85.25c1.22.2,2.41.56,3.61.83s2.34.78,3.51,1.17a3.06,3.06,0,0,0,3-.15,37.65,37.65,0,0,0,5.56-4.48,44.18,44.18,0,0,1,9.26-6.58,30.58,30.58,0,0,1,10.88-3.21,34.63,34.63,0,0,1,5.67-.13,27,27,0,0,1,5.64.87,35.32,35.32,0,0,1,10.36,4.62,33.47,33.47,0,0,1,7.52,6.6c4,4.92,5.07,9.32,5.16,12.24a14.32,14.32,0,0,1,0,2,14.82,14.82,0,0,1-.25,1.59c-.12.47-.22.88-.35,1.26s-.28.7-.42,1a10.72,10.72,0,0,1-.87,1.55c-.18.24-.23.12-.17-.32s.25-1.19.42-2.26a18.06,18.06,0,0,0-1.05-9.58c-2.4-6-7.47-10.69-13.22-13.87a29.87,29.87,0,0,0-19.21-3.62A31.42,31.42,0,0,0,314,69.15a30.06,30.06,0,0,0-4.62,1.93A41.39,41.39,0,0,0,301.13,77c-1.31,1.14-2.58,2.34-4,3.5a15.11,15.11,0,0,1-2.41,1.62,6.2,6.2,0,0,1-1.59.54,4,4,0,0,1-1.88-.09c-.35-.1-.52-.17-.73-.23l-.6-.21-1.22-.42a19,19,0,0,0-2.44-.73c-.83-.19-1.65-.42-2.48-.58l-2.5-.33a19.11,19.11,0,0,0-7.25.71,12.91,12.91,0,0,0-5.82,4,14.84,14.84,0,0,0-3,6.49,16.49,16.49,0,0,0,.18,7.29c.53,2.47,1.4,5,1.76,7.78a13,13,0,0,1-1.47,8.41,21.27,21.27,0,0,1-5.87,5.9c-2.19,1.59-4.47,3-6.74,4.29Z"/><path class="cls-1" d="M285.72,127.93a13.83,13.83,0,0,0,1.42.9c.18.11.4.13.58.24a14.83,14.83,0,0,0,2.17,1,6.48,6.48,0,0,0,1.05.27,10.55,10.55,0,0,1,1.37.4c.15,0,.13,0,0,0s-.36.22-.63.33a4.34,4.34,0,0,1-3,.25c-.58-.19-1.23-.22-1.83-.44a7.93,7.93,0,0,1-1.85-1,8.24,8.24,0,0,1-1-.86,8,8,0,0,1-1.16-1.58,3.56,3.56,0,0,1-.56-1.35,1.77,1.77,0,0,1,0-.32,4.1,4.1,0,0,1,0-.62s0-.05,0-.06a1.34,1.34,0,0,0,.25.34,2.22,2.22,0,0,0,.44.48,3.81,3.81,0,0,0,.5.4,4.29,4.29,0,0,0,.48.36c.17.1.3.23.46.32.45.31.89.59,1.35.87Z"/><path class="cls-1" d="M320.7,105.41a6.43,6.43,0,0,1,2.13-.27,3.94,3.94,0,0,1,.77,0,8.08,8.08,0,0,1,2.44,1c.32.19.65.35.95.53a5,5,0,0,1,1.08.88c.1.1.1.06,0,0s-.39,0-.67,0a7,7,0,0,1-2.6-.31,4.18,4.18,0,0,0-1.45-.13,8.61,8.61,0,0,0-1.6.07,7.26,7.26,0,0,0-1,.21c-.26.08-.51.18-.77.27s-.49.24-.73.36a4.8,4.8,0,0,0-.52.36l-.55.34-.25.15a3.79,3.79,0,0,1-.54.22l0,0a1.07,1.07,0,0,0,.16-.37c.18-.38.34-.82.56-1.23a4.76,4.76,0,0,1,.85-1.1,5.37,5.37,0,0,1,1.79-1.14Z"/><path class="cls-1" d="M296.69,211.67c-1.51,4-3.12,8-4.73,12-.81,2-1.62,4-2.35,5.94-.18.5-.36,1-.51,1.48a6.65,6.65,0,0,0-.25,1.37,13,13,0,0,0,.08,3,58.8,58.8,0,0,0,2.21,8.93c1.62,5.23,3.42,10.46,5,15.75a158.46,158.46,0,0,1,4.06,16.09,114.72,114.72,0,0,1,1.92,14.62,66.26,66.26,0,0,1-1.32,18.79c-.44,1.91-.85,1.53-1-.17-.09-.85-.05-2-.05-3.42,0-.7.06-1.46.1-2.26s.07-1.65.16-2.53c1-12.5-1.22-25.07-4.6-37.35-1-3.69-2.2-7.4-3.44-11.14s-2.55-7.48-3.61-11.3a39.54,39.54,0,0,1-1.29-6.48,13.25,13.25,0,0,1,.07-3.44,20.64,20.64,0,0,1,1-3.22c1.55-4.06,3.23-8,4.8-12.05,1.94-4.93,3.79-9.9,5.38-14.95,2.35-7.63,4.37-15.53,4.36-23.44a30.3,30.3,0,0,0-.46-5.05c-.13-.83-.37-1.62-.57-2.43l-.4-1.17a1.66,1.66,0,0,0-.15-.37l-.13-.28-.1-.21-.05-.1s0-.1-.07,0l-.31.38-.15.17-.1.09L300,169a6.19,6.19,0,0,1-.92.67,5.43,5.43,0,0,1-4.53.5,10.14,10.14,0,0,1-3.71-2.29,19.48,19.48,0,0,1-3.47-4.3,6.14,6.14,0,0,1-.89-2.3,4,4,0,0,1-.07-.79c.11-.64,1.31,1.07,3.57,3.86a20.24,20.24,0,0,0,2.53,2.54,7.49,7.49,0,0,0,2.92,1.58,3.51,3.51,0,0,0,2.83-.5,6.57,6.57,0,0,0,.63-.48l.23-.22c.1-.09.21-.22.32-.33s.42-.51.64-.73a1.19,1.19,0,0,1,1.1-.43,5,5,0,0,1,.95.68l.45,1a7.74,7.74,0,0,1,.4,1l.4,1.17c.25.78.4,1.59.6,2.38a33.13,33.13,0,0,1,.52,4.85,51.86,51.86,0,0,1-.66,9.65c-1.36,8.68-4.1,17-7.1,25.16Z"/><path class="cls-1" d="M212.46,295.84a62.2,62.2,0,0,1-10.14.45,28.21,28.21,0,0,1-5.14-.75,20.77,20.77,0,0,1-2.51-.78,16.18,16.18,0,0,1-2.38-1.22,13.53,13.53,0,0,1-2.16-1.62,10.65,10.65,0,0,1-.93-1,6.62,6.62,0,0,1-.85-1.05l-.75-1.11c-.23-.39-.4-.79-.61-1.19a17.09,17.09,0,0,1-1-2.45,19.14,19.14,0,0,1-.33-10.37,32.52,32.52,0,0,1,7.08-13.07,71.53,71.53,0,0,1,9.29-9A128.56,128.56,0,0,1,212.44,245c7.13-4.78,14.59-9,22.13-13.07l10.06-5.35c1.67-.89,3.34-1.78,5-2.72.81-.47,1.62-.94,2.37-1.45a9.11,9.11,0,0,0,1-.79,8.48,8.48,0,0,0,.76-1,49.67,49.67,0,0,0,6.42-12.74,54.25,54.25,0,0,0,2.66-14c.13-3,.6-2.6,1,0a31.94,31.94,0,0,1-1.19,13,50.6,50.6,0,0,1-6.44,13.69c-.34.53-.72,1-1.08,1.56a7.37,7.37,0,0,1-.71.9,8.7,8.7,0,0,1-.86.71,36.17,36.17,0,0,1-3.28,2c-2.18,1.23-4.37,2.37-6.56,3.52-8.77,4.57-17.51,9.18-25.93,14.4a129,129,0,0,0-14.66,10.46A60.47,60.47,0,0,0,191,267.27a25.76,25.76,0,0,0-3.72,8.92,17.34,17.34,0,0,0,.88,9.43,6.28,6.28,0,0,0,.47,1.1l.53,1.07.67,1c.11.17.21.34.33.49l.4.44a11.87,11.87,0,0,0,3.72,2.86,17.92,17.92,0,0,0,4.56,1.49,30.55,30.55,0,0,0,4.88.46c8.14.12,16.24-1.77,24.48-2.59a36.94,36.94,0,0,1,9.51.07,12.46,12.46,0,0,1,4.57,1.75,14.88,14.88,0,0,1,3.41,3.45c1.91,2.55,3.43,5.28,5.21,7.79a24.13,24.13,0,0,0,6.28,6.53c.5.3,1,.65,1.49.91l1.57.74a18.71,18.71,0,0,0,3.34,1,7.39,7.39,0,0,0,3.3.11A15.61,15.61,0,0,0,270,313c4.14-2,8.05-5.16,13.07-6.06.56-.06,1.11-.13,1.66-.17l1.67,0a11.87,11.87,0,0,1,3.28.75,7.45,7.45,0,0,1,4,3.64,12,12,0,0,1,1.07,3.4,11.5,11.5,0,0,1,.11,3.78,7.91,7.91,0,0,1-.2,1.15c-.15.4-.39-.19-.71-1.58a25.75,25.75,0,0,0-1.81-6,6.18,6.18,0,0,0-4.44-3.11,11.5,11.5,0,0,0-5.9.26,28.4,28.4,0,0,0-5.73,2.6c-1.89,1.06-3.78,2.25-5.91,3.22-.51.26-1.1.45-1.66.67a11.93,11.93,0,0,1-1.81.43l-1,.12-1,0a4.85,4.85,0,0,1-.92-.13l-.87-.18a22,22,0,0,1-3.43-1,21.42,21.42,0,0,1-3.17-1.69,23.19,23.19,0,0,1-5.24-4.78,58.22,58.22,0,0,1-4-5.65c-.91-1.41-1.78-2.81-2.74-4.1a14.33,14.33,0,0,0-3.15-3.32,10.52,10.52,0,0,0-4.15-1.55,28,28,0,0,0-4.78-.27c-6.54.22-13.15,1.62-19.87,2.38Z"/><path class="cls-1" d="M206,171.25a68.25,68.25,0,0,1,9.6-2.13,14.82,14.82,0,0,1,2.61-.11c.23,0,.45,0,.7.08a6,6,0,0,1,.7.17l1.18.37,4.59,1.55c2.23.75,4.47,1.43,6.7,2.14A159.3,159.3,0,0,0,256,179.38a38.69,38.69,0,0,0,10.78.31c.56-.09,1.11-.21,1.65-.34a10.89,10.89,0,0,0,1.55-.54,7,7,0,0,0,2.6-1.79c1.35-1.54,1.56-3.86,1.54-6.11,0-1.42.45-1.31,1-.09a8.1,8.1,0,0,1,.61,2.67,6.87,6.87,0,0,1-1,4c-1.66,2.54-4.45,3.51-6.93,4a30.23,30.23,0,0,1-7.46.25,84.42,84.42,0,0,1-14.36-2.6c-5.61-1.47-11.42-3.07-17.05-4.9l-9.23-3.06c-.37-.12-.79-.25-1.09-.32a7.07,7.07,0,0,0-1.06-.07,16.77,16.77,0,0,0-2.32.2,45.44,45.44,0,0,0-4.7.94c-3.85.94-7.67,2.11-11.45,3.34-5.73,1.88-11.46,3.92-17,6.08-4.34,1.69-8.55,3.49-12.77,5.32-.92.42-1.85.8-2.66,1.26a9.3,9.3,0,0,0-2.71,2.41,3.89,3.89,0,0,1-1.45,1.18,3.53,3.53,0,0,1-.59.23c-.27,0-.22-.32.06-1a12.36,12.36,0,0,1,1.73-2.79,9,9,0,0,1,2.75-2.07c1-.49,1.94-.9,2.92-1.33,1.94-.86,3.91-1.69,5.9-2.51,4-1.63,8.06-3.21,12.16-4.72,6.11-2.25,12.29-4.37,18.58-6.19Z"/><path class="cls-1" d="M174.73,172.12l12.39-6.52c1.52-.79,3-1.61,4.54-2.37,2.71-1.33,5.44-2.61,8.23-3.78a51.26,51.26,0,0,1,8.67-2.88l1-.19,1-.12a16.22,16.22,0,0,1,2.08,0c1.35,0,2.69.11,4,.18,3.39.2,6.77.38,10.06.26,1-.06,1,.43.12,1a8.39,8.39,0,0,1-4.56,1.06c-3.55-.09-7-.53-10.37-.62a17,17,0,0,0-4.79.71c-1.62.43-3.25,1-4.87,1.57a109.71,109.71,0,0,0-11.52,5.37c-4.18,2.13-8.31,4.36-12.47,6.57-2.56,1.35-5.12,2.71-7.76,4a27.63,27.63,0,0,1-3.1,1.29,20.4,20.4,0,0,1-3.3.75c-2.22.32-4.42.4-6.59.53-.84.05-1.67.11-2.5.2-.41,0-.82.09-1.22.15a2.89,2.89,0,0,0-.48.11l-.48.23a44.39,44.39,0,0,0-3.93,2.93c-.6.45-1.17.91-1.83,1.32-2.42,1.54-3.66,1.53-4.3,1.11a1.57,1.57,0,0,1-.41-.31c-.22-.43.76-.55,2.36-1.49a28.18,28.18,0,0,0,3.55-2.51,24.9,24.9,0,0,1,4-2.83,4.5,4.5,0,0,1,1.48-.42l1.21-.13,2.38-.18c1.58-.09,3.14-.17,4.67-.32a27.82,27.82,0,0,0,3.33-.5,16,16,0,0,0,3.11-1c2.09-.92,4.17-2,6.24-3.1Z"/><path class="cls-1" d="M154,182c-.16.72-.29,1-.49,1-.64.29-1.31.59-2,.92l-.55.26-.28.13-.2.09h0l-.07.05-.14.12-.28.23a27.67,27.67,0,0,1-2.79,2.12c-.3.19-.6.36-.91.54s-.59.36-.9.52c-.06,0-.1.08-.17.07s-.33-.37-.34-.67c0-.07,0-.17,0-.18.22-.11.2-.63.42-.73a5.19,5.19,0,0,0,1.12-.82,2.85,2.85,0,0,1,.46-.31c.22-.12.45-.21.66-.33s.37-.25.74-.54l.61-.5.36-.31.42-.38.64-.34.59-.29a11.13,11.13,0,0,1,1.16-.49,4.82,4.82,0,0,1,1.4-.38A3.2,3.2,0,0,1,154,182Z"/><path class="cls-1" d="M156.09,184.55c-.16.73-.29,1-.49,1-.64.28-1.31.59-2,.92l-.55.26-.28.13a1.42,1.42,0,0,1-.2.08h0l-.06.06-.15.12-.27.23a27.8,27.8,0,0,1-2.8,2.12c-.3.19-.6.36-.91.54s-.58.36-.9.52c-.06,0-.1.08-.17.07s-.33-.37-.34-.67c0-.07,0-.18,0-.19.22-.11.2-.62.42-.72a4.93,4.93,0,0,0,1.12-.83,5.46,5.46,0,0,1,.47-.31c.21-.11.44-.2.65-.32s.37-.26.74-.54l.62-.51.35-.3.42-.39.64-.33.59-.29c.39-.19.79-.36,1.16-.5a5,5,0,0,1,1.4-.37A4.28,4.28,0,0,1,156.09,184.55Z"/><path class="cls-1" d="M157.42,186.46c0,.73-.11,1-.28,1.09-.58.33-1.14.63-1.67,1a12.81,12.81,0,0,0-1.38.93,13,13,0,0,0-2,2.16c-.17.24-.35.47-.5.72s-.26.49-.39.75c0,0,0,.1-.07.12s-.48-.11-.67-.33c-.05,0-.13-.13-.11-.15.1-.2-.22-.61-.08-.81.27-.36.41-.81.65-1.21a2.41,2.41,0,0,1,.33-.44c.16-.17.37-.31.54-.47a15.59,15.59,0,0,1,2.46-2.19,10.58,10.58,0,0,1,1.76-1,5,5,0,0,1,.9-.3C157.08,186.36,157.22,186.41,157.42,186.46Z"/><path class="cls-1" d="M149.44,180.26,139.88,171s-21.53,4.78-22.47,23.42,25,39.31,55.63,12.47c1.87-1.63-9.48-16.37-15.47-16-2.6.17-4.64,3.54-5.74,3.88-3.67,1.12-11.39-6.53-8.47-10.57Z"/><path class="cls-1" d="M161.78,216.17a41.92,41.92,0,0,1-13,4.3,34.57,34.57,0,0,1-6.9.24,30.79,30.79,0,0,1-6.78-1.31,28.26,28.26,0,0,1-8.88-4.73A25.94,25.94,0,0,1,117,199.83a23.16,23.16,0,0,1,.06-8.86,22.66,22.66,0,0,1,3.47-8.11,30.79,30.79,0,0,1,11.9-9.83,41.47,41.47,0,0,1,4.56-1.92l1.19-.39c.4-.12.71-.23,1.43-.41l.47-.11.35.33.62.59.88.84q3.53,3.36,6.94,6.83c2.82,2.9-2.12.64-7.51-4.54l-1.79-1.72c-.11-.1-.08-.08-.08-.08h0l-.85.25a37.84,37.84,0,0,0-4.48,1.7,33.25,33.25,0,0,0-8.08,5.07,22.61,22.61,0,0,0-5.75,7.43,22.05,22.05,0,0,0-1.5,4.48,23.68,23.68,0,0,0-.48,4.74,21.43,21.43,0,0,0,3.48,11,26.2,26.2,0,0,0,3.76,4.58,28.35,28.35,0,0,0,4.74,3.58,26.53,26.53,0,0,0,12.41,3.65,33.09,33.09,0,0,0,12.92-2.09,52.51,52.51,0,0,0,14.17-8.08l2.6-2.14c.22-.15.21-.39.13-.69a6.51,6.51,0,0,0-.43-1.15,18.53,18.53,0,0,0-1.3-2.28,38.82,38.82,0,0,0-3.25-4.22,37.06,37.06,0,0,0-3.79-3.73,15.3,15.3,0,0,0-4.38-2.72,4.3,4.3,0,0,0-2.09-.27,4.35,4.35,0,0,0-1.89.93,17.79,17.79,0,0,0-1.7,1.58c-.28.28-.56.58-.9.87a2.73,2.73,0,0,1-.64.42,2.25,2.25,0,0,1-.77.2,5.32,5.32,0,0,1-2.66-.47,10.75,10.75,0,0,1-2.21-1.29,13.73,13.73,0,0,1-3.44-3.68,6.89,6.89,0,0,1-1.21-4.52,4.13,4.13,0,0,1,.34-1.13,2.53,2.53,0,0,1,.29-.52l.19-.31.29-.19,1.31-.84c.77-.49,1.4-.87,1.93-1.17a7.66,7.66,0,0,1,2.35-.95,5.89,5.89,0,0,1,.81-.12c.63,0-1,1.49-4.14,3.7l-.88.61-.34.24s0,0,0,.06v0l-.05.09a2.72,2.72,0,0,0-.23,1.54,7.28,7.28,0,0,0,1.59,3.38,12.62,12.62,0,0,0,2.95,2.7,7.8,7.8,0,0,0,1.72.84,2.6,2.6,0,0,0,1.44.12,1.88,1.88,0,0,0,.45-.36l.76-.76a16,16,0,0,1,1.81-1.61,5.36,5.36,0,0,1,5.36-.91,14.93,14.93,0,0,1,4.29,2.42,31.92,31.92,0,0,1,3.51,3.15,42.43,42.43,0,0,1,4.21,5,28.08,28.08,0,0,1,1.77,2.86,10.1,10.1,0,0,1,.71,1.69,4.58,4.58,0,0,1,.13.53,2.93,2.93,0,0,1,.05.78,2.41,2.41,0,0,1-.17.75l-.23.31c0,.14-.15.21-.22.31L171,210.28,168,212.44c-1,.66-2,1.34-3,2s-2.08,1.25-3.17,1.79Z"/><path class="cls-1" d="M330.14,200.2c-1.95-2.35-3.73-4.8-5.46-7.27-.63-.9-1.3-1.77-1.92-2.68-2.18-3.18-4.28-6.41-6.65-9.41a30,30,0,0,0-3.44-3.67,17.68,17.68,0,0,0-5.25-3.26c-.57-.24-.43-.69.26-1a2.77,2.77,0,0,1,1.41-.18,5.43,5.43,0,0,1,.9.17,5.11,5.11,0,0,1,.89.42,22,22,0,0,1,5.29,4.64,53.47,53.47,0,0,1,4.07,5.47c1.49,2.27,3.17,4.51,4.74,6.76,1.72,2.47,3.46,4.93,5.33,7.28,1.14,1.45,2.35,2.84,3.6,4.18a32.9,32.9,0,0,0,6.34,5.35,19.35,19.35,0,0,0,5.75,2.44,10.14,10.14,0,0,0,1.33.28c.41.08.76.16,1,.23a5.34,5.34,0,0,1,.71.17,1.37,1.37,0,0,1,.76.59,3,3,0,0,1,.22.37c.15.41-.6.64-2,.59a19.51,19.51,0,0,1-6-1.59,26.61,26.61,0,0,1-5.38-3.32,47.67,47.67,0,0,1-6.62-6.55Z"/><path class="cls-1" d="M399.94,195.48a28,28,0,0,1-3.51,2c-1.16.58-2.33,1.13-3.51,1.67-2.36,1.08-4.74,2.08-7.15,3-1.76.69-3.51,1.39-5.3,2a102.3,102.3,0,0,1-19.37,4.7,71,71,0,0,1-8.85.68A31.1,31.1,0,0,1,341,207.91c-1.12-.42-.78-.82.29-1a16,16,0,0,1,2.09-.07c.42,0,.86,0,1.34.09s1,.09,1.48.17c7.31,1,14.87.13,22.31-1.38a96.67,96.67,0,0,0,13.38-4A132.09,132.09,0,0,0,396,195.62c.7-.36,1.4-.74,2.06-1.12a9.71,9.71,0,0,0,1.78-1.35,21.29,21.29,0,0,0,2.86-3.64,15.25,15.25,0,0,1,2.32-2.95,23.56,23.56,0,0,1,3-2.18c2.06-1.32,4.18-2.49,6.31-3.62.83-.43,1.66-.85,2.5-1.26a17.82,17.82,0,0,1,2.68-1.1,5.31,5.31,0,0,1,.76-.14,4.34,4.34,0,0,1,.95,0,1.63,1.63,0,0,1,1.53,1.08,2.64,2.64,0,0,1-.43,1.93,8.15,8.15,0,0,1-.92,1.24,13,13,0,0,1-1.87,1.76,8.78,8.78,0,0,1-3,1.59,2.09,2.09,0,0,1-1.61-.09,1.53,1.53,0,0,1-.46-.31c-.24-.42.82-.53,2.56-1.64a12.72,12.72,0,0,0,3.41-3c.11-.14.2-.29.3-.43a.71.71,0,0,0,.06-.14.1.1,0,0,0,0-.12c-.06,0-.05,0-.15,0h-.12l-.26,0a2.66,2.66,0,0,0-.44.1,40.1,40.1,0,0,0-4.48,2.08c-1.51.79-3,1.62-4.47,2.5-1.09.65-2.17,1.32-3.17,2a13.68,13.68,0,0,0-1.4,1.11,4.58,4.58,0,0,0-.54.54l-.54.73c-.73,1-1.42,2.13-2.24,3.22a13.87,13.87,0,0,1-2.95,3Z"/><path class="cls-1" d="M413.37,190.3a3.24,3.24,0,0,1-.89-.52,3.3,3.3,0,0,1-.4-.37l-.19-.22-.19-.32a1.77,1.77,0,0,1,0-1.66,2.5,2.5,0,0,1,.83-.83,5.33,5.33,0,0,1,1.1-.58,17,17,0,0,1,3.82-.72c.56-.06,1.11-.15,1.67-.22a3.65,3.65,0,0,1,2.36.18c.41.28-.11.56-.37.94s-.49.83-.82.82c-1.2,0-2.59.13-3.95.17a7,7,0,0,0-2.31.65,2.52,2.52,0,0,0-.74.45.28.28,0,0,0-.13,0s0,0,0,0c.16,0,.09,0,.12,0a.93.93,0,0,0,.28.31,2.67,2.67,0,0,0,1.34.47,12.5,12.5,0,0,0,2.59,0c.69-.06,1.39-.23,2.14-.26a4.13,4.13,0,0,1,.5,0c.63,0,.82.26.8.76,0,.12,0,.23,0,.35a.8.8,0,0,1-.71.67c-1.08.14-2.21.3-3.55.39a8.13,8.13,0,0,1-3.35-.34Z"/><path class="cls-1" d="M411,193.2l-.24-.2a2.66,2.66,0,0,1-.3-.43,1.63,1.63,0,0,1-.17-.75,1.71,1.71,0,0,1,.64-1.15A3.37,3.37,0,0,1,412,190a13.45,13.45,0,0,1,3-.75c.66-.08,1.3-.14,1.95-.19s1.14-.13,1.71-.21a4.45,4.45,0,0,1,2.34,0c.37.17,0,.58-.2,1s-.51.86-.88.87c-1.31.05-2.75.15-4.18.16a4.32,4.32,0,0,0-.76.06l-.44.12a2.37,2.37,0,0,0-.64.23c-.26.12-.25.46-.07.49l.09,0a3.94,3.94,0,0,0,.63.12l.74.06h1.29c.71,0,1.41-.16,2.12-.25l.46-.06c.59,0,.77.09.9.59a3.38,3.38,0,0,1,.08.34.74.74,0,0,1-.6.82,16,16,0,0,1-3.93.41h-1.22c-.47,0-1,0-1.42-.07a3.65,3.65,0,0,1-2-.54Z"/><path class="cls-1" d="M409.55,196.16l-.2-.17a2.79,2.79,0,0,1-.31-.44,1.59,1.59,0,0,1-.16-.77,1.71,1.71,0,0,1,.66-1.15,3.94,3.94,0,0,1,1.1-.71,10.89,10.89,0,0,1,1.46-.46c.53-.12,1-.22,1.48-.28.65-.08,1.29-.14,1.93-.19s1.14-.12,1.71-.2a4.41,4.41,0,0,1,2.33.05c.36.17,0,.57-.2,1s-.51.87-.87.88c-1.31,0-2.74.15-4.17.15a5.83,5.83,0,0,0-.77.06l-.44.12a2.37,2.37,0,0,0-.64.23c-.26.1-.28.45-.1.49l.1.05a3,3,0,0,0,.61.11c.22,0,.44.05.72.06l.59,0h.68c.71,0,1.41-.16,2.11-.25.16,0,.31-.06.47-.07.58,0,.76.1.89.59,0,.12.06.23.08.35a.73.73,0,0,1-.6.81,14.89,14.89,0,0,1-3.91.41h-1.27c-.47,0-1,0-1.42-.07a3.35,3.35,0,0,1-1.92-.56Z"/><path class="cls-1" d="M412.48,199.28l-.79-.17-.4-.11a4.76,4.76,0,0,1-.59-.18,3.49,3.49,0,0,1-.85-.33,1.81,1.81,0,0,1-.78-1.11,1.52,1.52,0,0,1,.24-1.28,4.4,4.4,0,0,1,1.54-1.29,1,1,0,0,1,.59-.11c.27.05.5,1.86.23,2-.09,0,0,0-.05,0h0l-.05,0a.57.57,0,0,0-.39.09c-.19.18.07.25.17.31a.6.6,0,0,0,.28.13,5.17,5.17,0,0,0,.68.16c.29.06.59.11.88.15a10.66,10.66,0,0,0,1.38.09,6.7,6.7,0,0,0,1.06-.23,2,2,0,0,1,.23-.06c.29,0,.39.09.45.59l0,.34a.82.82,0,0,1-.31.82,4,4,0,0,1-2,.37c-.51,0-1-.07-1.56-.12Z"/><path class="cls-1" d="M342.42,223.68c5.44.79,11.14-.22,16.57-1.76,2-.56,3.95-1.27,5.9-2A190.46,190.46,0,0,0,385.06,211c2.93-1.47,5.84-3,8.73-4.54,1.86-1,3.72-2,5.65-2.83,1-.43,1.95-.85,3-1.19a9.87,9.87,0,0,1,3.29-.64c.79,0,1.13.37,1,.51s-.5.26-1,.5c-1,.46-2.62,1.45-4.78,2.4-3.82,1.69-7.59,3.7-11.41,5.62s-7.68,3.83-11.64,5.59c-4.72,2.1-9.63,4.35-14.66,6.06A54.32,54.32,0,0,1,346,225.79a26.42,26.42,0,0,1-5.45-.58c-.45-.09-.89-.22-1.34-.34l-1.32-.47c-.83-.38-1.68-.74-2.46-1.19a61.5,61.5,0,0,1-6.91-4.37c-2.21-1.59-4.36-3.24-6.41-5a82.53,82.53,0,0,1-9-8.6c-.64-.67-1.18-1.4-1.76-2.12a17.78,17.78,0,0,1-1.25-1.81,9.69,9.69,0,0,1-.73-1.3,3.46,3.46,0,0,1-.34-1.68,2.3,2.3,0,0,1,.08-.57c.1-.23.38-.07.79.39s.91,1.25,1.66,2.21a61.68,61.68,0,0,0,7.4,8.21A100.8,100.8,0,0,0,327.7,216a75.59,75.59,0,0,0,7.08,4.77,36.37,36.37,0,0,0,3.72,1.91,17.08,17.08,0,0,0,3.92,1Z"/><path class="cls-1" d="M227.19,293.92c-5.46,7.67-23,35.91-35.26,35.91-6.61,0-40.6-14.42-58.41-20.31a33.17,33.17,0,0,1,3.58-10.25c23.11,5.17,49.83,17.3,51.48,16.9,2.95-.72,14.93-14.72,14.93-19.51C203.51,296.66,210.56,296,227.19,293.92Z"/><path class="cls-1" d="M150.93,304.2q-4.12-1.29-8.3-2.42c-1.39-.38-2.78-.73-4.18-1.07l-.71-.17-.08,0,0,.07-.07.13-.23.46c-.16.31-.31.62-.45.94a31.34,31.34,0,0,0-1.43,3.94c-.2.68-.38,1.36-.54,2.05l-.15.62,0,.11s.06,0,.08.05l1.56.54,2.06.73,4.09,1.49c4,1.47,7.94,2.94,11.88,4.45,7,2.69,13.88,5.41,20.85,8,3.49,1.28,7,2.54,10.51,3.64l2.66.77,1.32.3A8,8,0,0,0,191,329a9.23,9.23,0,0,0,5.07-.89,30.11,30.11,0,0,0,7.88-5.57,79.4,79.4,0,0,0,6.68-7.17c5.37-6.44,10-13.48,14.92-20.34,1.56-2.13,1.74-1.55.86.54a55.26,55.26,0,0,1-5.58,9.73c-2.5,3.53-5.09,7-7.86,10.35a81,81,0,0,1-9.06,9.48,32.42,32.42,0,0,1-5.46,3.88,13.7,13.7,0,0,1-6.73,1.92c-.6-.08-1.23-.12-1.79-.23l-1.64-.38c-1.08-.28-2.12-.6-3.18-.91q-3.12-1-6.18-2.12c-9.77-3.58-19.85-7.46-29.76-11.22L141,313l-4.1-1.49-2.06-.71-1.36-.47-.83-.29c-.11,0,0-.12,0-.18l.05-.21.09-.44.32-1.45.27-1.08c.19-.72.39-1.44.62-2.15a29.61,29.61,0,0,1,1.67-4.16l.25-.5.39-.71.43-.74.83.18,2.37.57c1.43.35,2.84.72,4.26,1.11,6.95,1.91,13.78,4.19,20.55,6.61,5.13,1.84,10.22,3.79,15.3,5.75,2.53,1,5.08,2,7.61,2.78a3.42,3.42,0,0,0,.79.17c.1,0,.19-.07.31-.11a1.51,1.51,0,0,0,.37-.2,14,14,0,0,0,1.54-1.18,39.59,39.59,0,0,0,2.84-2.81,59,59,0,0,0,7.43-9.85,22.46,22.46,0,0,0,1.34-2.69,4.23,4.23,0,0,0,.24-.68,5.88,5.88,0,0,0,.2-.74l.15-1.13c-.05-.26.23-.21.41-.25l.6-.08,6.37-.8,5.41-.69c6.77-.82,8.94-.94,10.46-.62a9,9,0,0,1,1,.23c.7.31-2,.94-7,1.63l-11.18,1.5-2.83.36-1.42.18h-.15v.2a.38.38,0,0,1,0,.11l-.24.78a12,12,0,0,1-.59,1.46c-.2.48-.45.91-.69,1.36s-.48.88-.74,1.3a51.87,51.87,0,0,1-3.39,4.89c-1.2,1.57-2.48,3.09-3.82,4.56a31.71,31.71,0,0,1-4.49,4.19c-.24.16-.45.31-.73.47l-.52.23a1.4,1.4,0,0,1-.65.17,2.47,2.47,0,0,1-.72,0,3.24,3.24,0,0,1-.44-.1c-.28-.07-.53-.14-.77-.22-1-.31-1.91-.65-2.84-1-10.94-4.14-21.8-8.4-32.93-11.83Z"/><path class="cls-1" d="M124.37,298.37a47.55,47.55,0,0,0-4.91-.4c-.6,0-1.2,0-1.79,0l-1.57.05a4.3,4.3,0,0,0-1.34.25,7.12,7.12,0,0,0-1.3.64,6.26,6.26,0,0,0-.62.43l-.27.21-.15.11c-.11.1-.21.21-.31.32l-.12.18c0,.06-.11.16,0,.17a3.18,3.18,0,0,0,.51.13c.15,0,.26,0,.44.05s.61.07.94.14a4,4,0,0,1,1.87.89c.33.29,0,.63-.54.86a2.75,2.75,0,0,1-1.61.29c-.2-.05-.42-.09-.67-.13l-.37-.07-.74-.15a17.14,17.14,0,0,1-2.67-1c.26-.57.45-1.08.75-1.6a6.61,6.61,0,0,1,1.33-1.5,2.52,2.52,0,0,1,.3-.24l.25-.18a5.65,5.65,0,0,1,.51-.34,8.11,8.11,0,0,1,1.1-.56,7.79,7.79,0,0,1,2.53-.69c.79-.07,1.58-.14,2.37-.14a46.19,46.19,0,0,1,5.14.26c1,.1,2.09.23,3.13.38,1.57.21,3.14.5,4.69.74,1.21.19,2.41.28,3.61.44l.79.1c1,.18,1.26.37,1.36.9a2.38,2.38,0,0,1,.06.37c0,.39-.45.62-1.18.57-2.15-.12-4.35-.49-6.57-.83-1.65-.25-3.3-.51-4.95-.67Z"/><path class="cls-1" d="M114.28,317a54.85,54.85,0,0,1-7.28,6.32c-.5.33-1,.67-1.57,1a7.73,7.73,0,0,1-.87.41,5.24,5.24,0,0,1-.7.24l-.7.13a2.63,2.63,0,0,1-.78.05l-.78,0a3.33,3.33,0,0,1-.24-.34c-.08-.15-.12-.28-.18-.41a1.93,1.93,0,0,1-.08-.43l0-.49a6.93,6.93,0,0,1,.34-1.07c.07-.18.14-.36.22-.54l.17-.36c.43-.86.9-1.68,1.39-2.49,1-1.61,2-3.17,3-4.71l3.08-4.46a28.48,28.48,0,0,1,4.46-5.38c.6-.48.82,0,.72.71a6,6,0,0,1-1.28,2.83c-2.84,3.58-5.53,7.39-8.12,11.26a25,25,0,0,0-1.54,2.65l-.17.34-.13.28a2.44,2.44,0,0,0-.1.24,1.05,1.05,0,0,0-.06.24c0,.09,0,.19.12.16a1.17,1.17,0,0,0,.37,0l.17-.06a2.87,2.87,0,0,0,.42-.18,18.38,18.38,0,0,0,3.77-2.52c1.2-1,2.36-2.05,3.49-3.15,1.4-1.34,2.77-2.73,4.13-4.13,1-1.07,2.06-2.13,3.13-3.17a21.54,21.54,0,0,1,3.49-3,2.78,2.78,0,0,1,1-.37,4.58,4.58,0,0,1,1,0,14.15,14.15,0,0,1,1.76.19c1.14.18,2.26.42,3.37.69.49.12,1,.22,1.45.36,1.8.52,2.32.84,2.55,1.43a1.81,1.81,0,0,1,.14.41c.05.42-.76.48-2.08.18-2-.43-4-.94-5.94-1.27-1-.15-2-.28-2.27,0a13.68,13.68,0,0,0-2.21,1.8c-2.22,2.14-4.4,4.49-6.65,6.76Z"/><path class="cls-1" d="M249.3,304.34c-.13-.55,5.41,7.33,8.82,9.64,5,3.38,12.49.83,12.49.83.66,8.26-.5,18.42-.51,22.53,0,3.16-24,46.21-36.7,69.2a28.17,28.17,0,0,1-9.15-5.83c11.58-24.61,27.73-57.39,30-63C256.17,333,251.44,312.79,249.3,304.34Z"/><path class="cls-1" d="M229.49,392.38l-3.85,8a.15.15,0,0,0,0,.07l0,.05.19.18.42.36q.84.7,1.74,1.35a28.26,28.26,0,0,0,3.82,2.27l.5.25.43.2c.05,0,.13.07.18.06l.7-1.23,2.25-4,4.5-8.05,6.5-11.79q5.78-10.35,11.47-20.76c1.89-3.47,3.76-6.94,5.6-10.44q1.38-2.62,2.71-5.26c.87-1.76,1.75-3.54,2.46-5.32a5,5,0,0,0,.3-1l0-1.34.14-2.64.31-5.26c.18-3.5.28-7,.15-10.43l-.06-1.28a5,5,0,0,0-.07-.6,5.72,5.72,0,0,1-.66.19c-.51.12-1,.22-1.53.3a20.06,20.06,0,0,1-3.1.27,12.72,12.72,0,0,1-6.18-1.4,11,11,0,0,1-2.55-1.93c-.75-.71-1.45-1.46-2.12-2.22-1.34-1.53-2.58-3.12-3.78-4.72a12.19,12.19,0,0,1-.85-1.25.68.68,0,0,1-.11-.28l.11-.13a.94.94,0,0,0,.1-.14c.07-.09,0-.09.06-.08s.12,0,.09,0h-.11s0,0,0,.07l-.08.12h.08a1.58,1.58,0,0,1,.36.17,9.38,9.38,0,0,1,1.14.86c.91.78,2.13,2,3.56,3.36.71.7,1.49,1.46,2.31,2.23a14.5,14.5,0,0,0,2.64,2.06,10.51,10.51,0,0,0,5.25,1.26,17.17,17.17,0,0,0,2.85-.21c.48-.07.95-.16,1.42-.27.86-.19,2-.55,3-.88l.18,2.65,0,.63,0,.33,0,.68c0,.9.05,1.8.05,2.7,0,1.8,0,3.59-.12,5.38-.14,3.57-.45,7.14-.63,10.64l-.05,1.32a5.62,5.62,0,0,1-.09.57c0,.17-.08.26-.12.39s-.16.49-.25.7c-.34.89-.73,1.7-1.11,2.52q-1.17,2.45-2.41,4.81c-1.64,3.18-3.35,6.33-5.07,9.47L246,385.48l-9,16.24-2.26,4.06-.86,1.54c-.05.05-.07.17-.13.16l-.21-.08-.43-.18-.85-.35-.62-.28-.54-.26c-.35-.18-.71-.36-1.05-.55a30,30,0,0,1-4-2.59l-.93-.75c-.32-.28-.53-.46-1-.93l-.65-.63c.1-.27.25-.55.37-.82l.58-1.22,9.94-20.62c5-10.4,10.14-20.82,15.05-31.17l2.8-6c.44-1,.91-2,1.32-3a6.78,6.78,0,0,0,.45-1.44c.06-.51.12-1,.13-1.55a40.24,40.24,0,0,0-.51-6.45c-.29-2.16-.69-4.31-1.1-6.47-.37-1.89-.77-3.74-1.19-5.65-1.55-7.06-2-9.31-1.92-10.94a9.63,9.63,0,0,1,.08-1.08c.2-.77,1.27,2,2.57,7.18,1,3.83,1.85,7.74,2.6,11.73a56.89,56.89,0,0,1,1.29,12.41,9,9,0,0,1-.85,3.35c-.42,1-.84,1.91-1.27,2.85l-2.63,5.64q-2.69,5.63-5.38,11.27-8.08,16.72-16.19,33.53Z"/><path class="cls-1" d="M213.45,421.83c.86-1.91,1.75-3.79,2.64-5.67.32-.69.6-1.39.93-2.07,1.2-2.39,2.4-4.77,3.59-7.16.53-1.05,1-2.14,1.48-3.22a27.35,27.35,0,0,1,1.95-4.09c.51-.79,1.63,1.05.91,2.63-1.27,2.8-2.64,5.55-4.17,8.26-.91,1.62-1.64,3.41-2.44,5.12-.89,1.88-1.78,3.77-2.63,5.66-.53,1.17-1,2.34-1.51,3.52-.17.45-.34.89-.49,1.34a5.9,5.9,0,0,0-.31,1.2,1.42,1.42,0,0,0,.54.86A5.89,5.89,0,0,0,215,429a3.7,3.7,0,0,0,.57.28c.08,0,.18.09.24.06l.07-.3.06-.28c0-.08,0-.15.09-.37l.3-1.07c.09-.32.16-.64.26-.95.38-1.18.63-1.5,1.18-1.57a1.55,1.55,0,0,1,.37,0c.4,0,.53.61.35,1.48-.14.65-.29,1.31-.47,2l-.26,1c-.18.54-.39,1.29-.62,1.84l-.18.45-.09.23,0,.11s0,.08-.07.05l-.89-.38a15.77,15.77,0,0,1-1.79-.9,6.86,6.86,0,0,1-2-1.64,3.05,3.05,0,0,1-.33-.57,2.71,2.71,0,0,1-.22-.75,2,2,0,0,1,0-.7l0-.3.05-.22c.15-.61.34-1.1.52-1.62.38-1,.79-2,1.2-3Z"/><path class="cls-1" d="M232.44,427.19c2.18,2.46,4.62,4.75,6.71,7.55a8.24,8.24,0,0,1,1.77,3.71c0,.18,0,.35,0,.58a5.79,5.79,0,0,1-.13.68,2.66,2.66,0,0,1-.26.6,1.1,1.1,0,0,1-.38.52,1.75,1.75,0,0,1-1.23.32,4.65,4.65,0,0,1-1.18-.28,16.83,16.83,0,0,1-3-1.63c-1.83-1.21-3.54-2.54-5.22-3.89-1.49-1.21-3-2.41-4.44-3.63a30.45,30.45,0,0,1-5.31-5.16c-.24-.34-.23-.62-.06-.69a1.48,1.48,0,0,1,.84.05,6.56,6.56,0,0,1,2.83,1.61c3.57,3.3,7.33,6.51,11.22,9.49a17.1,17.1,0,0,0,3.72,2.19c.81.4,1-.24.4-1.61a17.5,17.5,0,0,0-2.79-3.87c-1.09-1.24-2.26-2.45-3.41-3.68a48.47,48.47,0,0,1-4.1-4.77,12.51,12.51,0,0,1-1.27-2.09,5.66,5.66,0,0,1-.65-2.51,3.77,3.77,0,0,1,.26-1.36l.44-1.08.89-2.18c.92-2.24,1.8-4.46,2.8-6.64.22-.49.43-1,.66-1.44.89-1.77,1.31-2.26,1.95-2.4a2.31,2.31,0,0,1,.43-.08c.43,0,.32.88-.25,2.19-1.7,3.91-3.49,7.92-5.15,12.16a1,1,0,0,0-.08.22l0,.17c0,.11,0,.24-.06.36l0,.41.09.45a7.9,7.9,0,0,0,.93,1.93,27.49,27.49,0,0,0,3,3.76Z"/><path class="cls-1" d="M229.14,251.38a9.57,9.57,0,0,1-.88,3.75c-2.32,3.54-9.77,2.63-9.84-1.79C218.34,247.62,229.31,246.07,229.14,251.38Z"/><path class="cls-1" d="M259.66,272.85a9.22,9.22,0,0,1,.18-3.58c1.52-3.62,8.49-4,9.29,0C270.17,274.48,260.4,277.73,259.66,272.85Z"/><path class="cls-2" d="M278.81,296.87c-2.08-.9-3.56-3.37-2.18-5.69,2.83-4.78,10.56.67,6.51,4.9A3.73,3.73,0,0,1,278.81,296.87Z"/><path class="cls-2" d="M222.48,280.37c-1.95-.85-3.34-3.17-2-5.35,2.67-4.5,9.94.63,6.12,4.6A3.48,3.48,0,0,1,222.48,280.37Z"/><path class="cls-2" d="M264.35,231.21c-1.83-.71-2.89-3-1.45-5.46s5-2.82,6.36-.17a4,4,0,0,1-.93,4.62A3.77,3.77,0,0,1,264.35,231.21Z"/><path class="cls-1" d="M286.62,191.48c-2-.77-3.17-3.33-1.6-6s5.5-3.09,7-.19a4.41,4.41,0,0,1-1,5.08A4.13,4.13,0,0,1,286.62,191.48Z"/><path class="cls-1" d="M320.41,139.17a4.57,4.57,0,0,1,.09-.66,2.1,2.1,0,0,1,.28-.56,1.88,1.88,0,0,1,.44-.45,1.91,1.91,0,0,1,.6-.23,2.11,2.11,0,0,0,.36-.09c.13,0,.26,0,.37,0l.17,0a3.62,3.62,0,0,1,1.52.9,5.3,5.3,0,0,1,.48.48l.38.39a2.37,2.37,0,0,0,.73.48c.34.14.58.07.77.25a1.73,1.73,0,0,1,.13,1c-.05.49-.47,1-.89.87a3.64,3.64,0,0,1-1.56-.82,5.41,5.41,0,0,1-.9-1.05c-.08-.25-.21-.28-.36-.35l0,0a.56.56,0,0,0-.34,0,.34.34,0,0,0-.2.26,1.17,1.17,0,0,0,0,.48,3.9,3.9,0,0,0,.23.58,3.4,3.4,0,0,0,.38.67,4.64,4.64,0,0,0,.87.79l.2.14c.23.2.18.31-.09.74l-.19.29a.67.67,0,0,1-.84.32,4.2,4.2,0,0,1-1.83-1.83l-.23-.44-.25-.56-.24-.8c-.07-.26-.07-.51-.12-.77Z"/><polygon class="cls-1" points="144.12 419.06 185.75 417.06 221.91 450.56 179.12 453.43 144.12 419.06"/><polygon class="cls-2" points="239.41 414.71 281.04 412.71 317.2 446.21 274.41 449.07 239.41 414.71"/><polygon class="cls-1" points="325.77 411.14 354.41 409.14 387.56 439.64 356.77 441.51 325.77 411.14"/><path class="cls-1" d="M374.88,84.69c3.33-.31,2.94,3.78,2.77,6,0,.38,2.12.11,2.17-.58.12-1.52.34-3.27-.29-4.7s-2.21-1.82-3.74-1.68c-.35,0-1.29.15-1.45.54s.13.46.54.42Z"/><path class="cls-1" d="M381.28,80.19c4,0,3.83,4.37,3,7.25-.24.9,2,.61,2.19-.23,1.06-3.83.45-8.43-4.43-8.42-.44,0-1.24.13-1.42.63s.14.77.62.77Z"/><path class="cls-1" d="M101.68,199.34c-2.59,4.55-.12,10.28,3.16,13.8.34.37,2.33-.42,2-.72-3.17-3.41-5.58-9.09-3.08-13.49.12-.2-1.83-.12-2.13.41Z"/><path class="cls-1" d="M96.81,208.33a6.45,6.45,0,0,0,1.63,4.46c.39.46,2.46-.29,2-.78a6.15,6.15,0,0,1-1.5-4.26c0-.44-2.15-.13-2.17.58Z"/><path class="cls-1" d="M298.56,169.61a7.5,7.5,0,0,1-4.09-.68,10.24,10.24,0,0,1-1.26-.56,14.81,14.81,0,0,1-3.36-3.18c-.42-.52-.85-1-1.23-1.52a8.23,8.23,0,0,1-1.21-2.17c-.09-.24-.12-.17,0,0a10.3,10.3,0,0,0,1.08.47,16.86,16.86,0,0,1,4,2.55,8.21,8.21,0,0,0,2.36,1.28,9.3,9.3,0,0,0,2.64.84,3.94,3.94,0,0,0,.76,0,4.35,4.35,0,0,0,.47-.08,1.15,1.15,0,0,0,.24.18.18.18,0,0,0,.1,0l0,0s0,0,0,0l-.36.11s.05,0,0,0a.84.84,0,0,0-.34-.28,3.36,3.36,0,0,0-.94-.08,6.83,6.83,0,0,0-2.05.48l-.4.19c-.45.27-.52.54-.52.67a.26.26,0,0,0,0,.09.73.73,0,0,0-.05-.13,1,1,0,0,1-.11-.62,3.5,3.5,0,0,1,1.65-2.08,5.77,5.77,0,0,1,1.22-.6,3.77,3.77,0,0,1,.74-.19,2.92,2.92,0,0,1,1.14,0,2.4,2.4,0,0,1,.64.16,2.32,2.32,0,0,0,.35.14l.31.2a3.28,3.28,0,0,1,.56.49,1.68,1.68,0,0,1,.24.38,2.17,2.17,0,0,1,.26.69,2.37,2.37,0,0,1-.28,1.63,3.1,3.1,0,0,1-1.42,1.28,4.87,4.87,0,0,1-1.18.38Z"/></g></svg>