<svg id="Layer_1" data-name="Layer 1" xmlns="http://www.w3.org/2000/svg" width="520" height="520" viewBox="0 0 520 520"><defs><style>.cls-1{fill:#221f1f;}.cls-2{fill:#232020;}.cls-3{fill:none;stroke:#221f1f;stroke-miterlimit:10;stroke-width:2px;}</style></defs><title>Notioly v2</title><g id="_50.Studying" data-name="50.Studying"><path class="cls-1" d="M272.24,143.05a13.39,13.39,0,0,0-1.05,1.5c-.12.19-.16.42-.27.61a8.77,8.77,0,0,0-.91,2.17,2.83,2.83,0,0,0-.05,1,4.42,4.42,0,0,1,.2,1.16c0,.13-.46.35-.93.4s-1-.1-1.13-.47a4.83,4.83,0,0,1,.5-3.41c.31-.59.44-1.23.74-1.8a13.06,13.06,0,0,1,1.09-1.8c.24-.35.52-.68.79-1a15.16,15.16,0,0,1,1.37-1.41,6.77,6.77,0,0,1,1.21-1.09,4.05,4.05,0,0,1,.35-.21c.5-.17.74,0,.83.44a1.91,1.91,0,0,1,.06.33,1.28,1.28,0,0,1-.21.86c-.39.42-.88.87-1.41,1.43a10.72,10.72,0,0,0-1.14,1.34Z"/><path class="cls-1" d="M314.45,160.33c-1.33,8.74-7.4,32-27.92,38.89-4.19,1.4-12.07.59-16.37-.54,0,0,11.84-8.62,8.15-13.5-1.76-.72-2.84-.51-4.31,1.52,0,0,5.07-8.64,1.84-11.48,0,0-1.68-3.31-6.2-.77,0,0,4-9.72,3.26-13.16,0,0,7.89-2.38,10.72-9,3.15-7.39,1.12-13-3.79-14-4.37-.89-7.67,3.28-9.67,6.14-10.44-.84-16.83-14.87-17.38-23,0-.19-20.78,35.27-53.7,27.42h0c-.75,10.07,8.46,28,10.37,30.77-9.33,11.3,12.08,26,12.08,26-11.16,7.38-21.6,2.72-26.19-.45-17.06-11.76-22.16-37.18-20.71-56.58.37-4.93,4.85-55.85,45.73-63.62,15.94-3,25.38,8.9,25.73,8.41,3.85-5.36,19.16-11.94,32.17-6.17,12.18,5.41,20.55,18.31,27.49,30.15C316.16,135.12,314.47,160.18,314.45,160.33Z"/><path class="cls-1" d="M176.49,167.75a72.46,72.46,0,0,0,4.56,16.9,48.59,48.59,0,0,0,9.19,14.69l1.56,1.5a17,17,0,0,0,1.61,1.45l1.71,1.32.85.66.89.59a24.85,24.85,0,0,0,7.88,3.17,21,21,0,0,0,8.43,0c.68-.19,1.37-.34,2.05-.55s1.34-.46,2-.75l1.79-.86c.22-.13.46-.26.65-.39l-.28-.21-1.3-1c-.91-.75-1.8-1.53-2.67-2.33a46.12,46.12,0,0,1-4.83-5.23,23.73,23.73,0,0,1-3.61-6.27,12.75,12.75,0,0,1-.82-3.65,10.17,10.17,0,0,1,.38-3.79,8.68,8.68,0,0,1,.43-1.17,6.79,6.79,0,0,1,.56-1.11l.3-.53.32-.44c.05-.09.17-.15.07-.23l-.39-.67c-.19-.33-.38-.67-.56-1-.37-.67-.71-1.35-1.06-2q-2.07-4.08-3.78-8.31a76.82,76.82,0,0,1-3-8.66c-.22-.74-.4-1.48-.56-2.24a21.17,21.17,0,0,1-.44-2.27,17.78,17.78,0,0,1-.29-2.31l-.1-1.18a9.16,9.16,0,0,1,.14-1.64c.05-.25.1-.49.16-.72l.09-.33s0-.06,0-.08h.09l.17,0,.68-.07a6,6,0,0,1,.85.16c.7.16.87.18,1.24.25l1,.18a39.64,39.64,0,0,0,4.06.43,38.3,38.3,0,0,0,8.15-.43,43.64,43.64,0,0,0,15.29-5.7,63.06,63.06,0,0,0,12.85-10.3,77,77,0,0,0,5.44-6.25l1.26-1.65.61-.83.91-1.32.49-.72a1.88,1.88,0,0,1,.24-.33.23.23,0,0,1,.24-.13,2.05,2.05,0,0,0,.66-.16l.12,0h0c0-.21-.1.45.12-.46l0,0,0,.09.22.35.22.35a.84.84,0,0,1,.18.55l.24,1.54a11.26,11.26,0,0,0,.22,1.3c.16.6.27,1.2.46,1.79a35.8,35.8,0,0,0,1.21,3.48,30.66,30.66,0,0,0,3.55,6.45,19.89,19.89,0,0,0,5.18,5,8.56,8.56,0,0,0,1.56.88,8.32,8.32,0,0,0,1.65.65,6.5,6.5,0,0,0,.86.25l.87.14c.15,0,.3.1.39,0l.34-.46a21.57,21.57,0,0,1,2.56-3,10.33,10.33,0,0,1,3.36-2.23,6.67,6.67,0,0,1,4.14-.28,6.9,6.9,0,0,1,3.57,2.11,7.9,7.9,0,0,1,1.78,3.69,12.45,12.45,0,0,1,.1,4,18.1,18.1,0,0,1-2.69,7.35,17,17,0,0,1-4.4,4.36,22.23,22.23,0,0,1-2.65,1.57c-.46.23-.93.45-1.4.65l-.61.25-.34.12c0,.12,0,.3,0,.39,0,.32,0,.64,0,.94a17.33,17.33,0,0,1-.25,1.8c-.23,1.18-.53,2.32-.86,3.45s-.71,2.24-1.1,3.34l-.37,1-.15.39-.08.19s0,.09,0,.08l.09-.05a4.3,4.3,0,0,1,.74-.31l.2-.05h.08l.23,0a4.3,4.3,0,0,1,.95,0,4.21,4.21,0,0,1,3.27,1.93.28.28,0,0,0,.07.09,4,4,0,0,1,1.13,2.65,9.12,9.12,0,0,1-.21,2.68,20.76,20.76,0,0,1-.72,2.48l-.22.56-.13.33-.24.53c-.14.3-.29.59-.44.88l0,.05,0,0,.07-.1.16-.19a1.88,1.88,0,0,1,.36-.33,1.15,1.15,0,0,1,.46-.22l.23,0a3.51,3.51,0,0,1,.65.09c.2,0,.39.1.59.17l.39.14c.12.06.28.06.33.21s.31.46.42.66.18.39.24.59a4.49,4.49,0,0,1,.21,1.25,8,8,0,0,1-1.49,4.33,24.74,24.74,0,0,1-3.47,4.13c-.64.62-1.29,1.23-2,1.81-.38.32-.62.52-.94.77l0,0h0l.11,0,.21,0,.41.08.45.08.91.15c1.25.19,2.51.33,3.77.41a28.24,28.24,0,0,0,7.48-.31,24.8,24.8,0,0,0,3.49-1.25,23.53,23.53,0,0,0,3.38-1.66,26.36,26.36,0,0,0,3.18-2,30.17,30.17,0,0,0,2.94-2.37,43,43,0,0,0,9.17-12,63.47,63.47,0,0,0,5.42-14.19c.9-3.6,1.19-5.18,1.39-5s.15,2-.37,5.14A55.2,55.2,0,0,1,310,178.12l-.91,1.92c-.15.33-.31.66-.47,1l-.54,1-1.13,2c-.43.65-.87,1.31-1.31,2l-.68,1-.77,1c-.52.64-1,1.32-1.59,2a37.25,37.25,0,0,1-3.75,3.67l-1.48,1.26L295.77,196c-.54.36-1.07.74-1.61,1.09l-1.71.93-1.71.92-1.81.72-1.8.72a12.67,12.67,0,0,1-2,.52,31.57,31.57,0,0,1-7.81.23c-1.28-.1-2.55-.24-3.82-.44l-.48-.08-.24,0-.34-.06-1.77-.36-3.49-.86,2.07-1.52c.67-.5,1.3-1,1.9-1.5l1-.86.85-.78a26.51,26.51,0,0,0,3-3.36,8.06,8.06,0,0,0,1.7-3.64,3,3,0,0,0,0-.8,1.79,1.79,0,0,0-.11-.35l-.08-.17c0-.07,0,0,0,0s.1,0-.3-.1a1.34,1.34,0,0,0-.36-.06h-.12l-.16.06-.33.11-.08,0-.16.16-.3.33-.62.65-1.07-.69c-.19-.12,0,0-.05,0l-1-.69a25.43,25.43,0,0,0,1.2-2.39c.19-.4.31-.71.45-1l.23-.6a16.84,16.84,0,0,0,.66-2.21c.31-1.48.32-2.93-.45-3.62l-.29-.38a2.28,2.28,0,0,0-1.77-1,4,4,0,0,0-.59,0l-.16,0a1.79,1.79,0,0,0-.46.13l-.85.34-.43.17-.48.24-1,.48-1.76.89,1.3-3.22c.22-.55.41-1.07.62-1.61l.44-1.19c.38-1.08.74-2.16,1.07-3.24s.61-2.18.82-3.26a15.41,15.41,0,0,0,.23-1.6,6.19,6.19,0,0,0,0-.74c0-.66-.12-1.16-.18-1.74.6-.19,1.26-.4,1.79-.61l.85-.35c.56-.25,1.11-.53,1.65-.83a18.46,18.46,0,0,0,3-2.07,14.91,14.91,0,0,0,2.45-2.64,13.48,13.48,0,0,0,1.62-3.19,12.9,12.9,0,0,0,.81-7,5.28,5.28,0,0,0-4.26-4.37,5.07,5.07,0,0,0-3.14.44,9.93,9.93,0,0,0-2.81,2.1c-.42.43-.83.91-1.23,1.39l-.57.74-.81,1.12-.26.36c0,.09-.12,0-.2,0l-.22,0-.87-.14-1.12-.19a18.25,18.25,0,0,1-2-.62,17.72,17.72,0,0,1-6.67-4.85,29.56,29.56,0,0,1-4.45-6.77c-.39-.74-.68-1.52-1-2.28s-.6-1.55-.85-2.35-.51-1.61-.69-2.45l-.15-.62-.08-.32,0-.1-.06-.4,0-.35s0-.17,0-.13l-.1.14-.4.57c-.91,1.29-2,2.69-3,4a78.14,78.14,0,0,1-6.9,7.44,57.81,57.81,0,0,1-17,11.4,41.15,41.15,0,0,1-20.3,3.18c-.86-.09-1.72-.2-2.57-.34l-1.27-.23-.58-.12c-.05,0-.16-.08-.17,0v.85c.09.81.11,1.62.24,2.44a52.65,52.65,0,0,0,2.49,9.63,102.42,102.42,0,0,0,4.85,11.44c.46.93.93,1.85,1.42,2.75.24.46.51.89.76,1.34l.67,1.06c.22.18-.06.35-.15.52l-.38.52-.31.41a3.13,3.13,0,0,0-.2.3l-.36.63a11.83,11.83,0,0,0-.58,1.31,9.22,9.22,0,0,0-.44,2.81,13,13,0,0,0,1.53,5.63,26.84,26.84,0,0,0,3.41,5,45.83,45.83,0,0,0,4.29,4.42q1.14,1,2.34,2l.61.49.76.58c.66.51,1.39,1,2.09,1.51-.63.4-1.32.79-2,1.19l-1,.6a2.67,2.67,0,0,1-.41.21l-.36.18-1.45.69-1.51.55a21.51,21.51,0,0,1-6.3,1.21,25.64,25.64,0,0,1-15.08-4.56l-2.51-1.94a10.78,10.78,0,0,1-1.2-1L190,201.64c-.38-.37-.78-.72-1.14-1.11l-1-1.19a48.82,48.82,0,0,1-3.82-5l-1.63-2.71c-.55-.89-1-1.86-1.45-2.79-4.55-9.35-6.63-19.69-7.1-30a84,84,0,0,1,.72-15.45,108,108,0,0,1,3.28-15.1,81.13,81.13,0,0,1,9.56-21.23,53.39,53.39,0,0,1,16.5-16.41,45.83,45.83,0,0,1,10.66-4.8,55.91,55.91,0,0,1,5.66-1.45,27.5,27.5,0,0,1,5.87-.5,27.19,27.19,0,0,1,11.35,2.8,32.27,32.27,0,0,1,5,3c.79.58,1.55,1.19,2.28,1.82l.92.79a1.91,1.91,0,0,0,.32.24c.11,0,.18-.19.27-.29l.19-.21.13-.16.21-.2.43-.39a7.06,7.06,0,0,1,.88-.76l.91-.7c.32-.22.65-.42,1-.63a29.78,29.78,0,0,1,4-2.12,34.46,34.46,0,0,1,8.71-2.45,28.66,28.66,0,0,1,17.63,2.78,46.34,46.34,0,0,1,13.76,11.4,111.55,111.55,0,0,1,10.27,14.57l2,3.35,1.87,3.46c.55,1.19,1.07,2.4,1.61,3.6s.91,2.48,1.37,3.73a78.9,78.9,0,0,1,2.88,12.08c.56,3.37.76,6.13.92,8.39a49.06,49.06,0,0,1-.19,9.25c-.12,1-.28,2.21-.42,2.75-.26.89-.28-.58-.42-4.11a125.56,125.56,0,0,0-1.61-16,83,83,0,0,0-2.84-11.59,60.27,60.27,0,0,0-4.94-10.89c-4.17-7-8.57-13.94-14.19-19.85A52.89,52.89,0,0,0,286,93.44,39.43,39.43,0,0,0,281,90a28.9,28.9,0,0,0-5.45-2.52c-1-.27-1.91-.56-2.89-.75a24.83,24.83,0,0,0-3-.41l-1.51-.11-1.51,0c-1,0-2,.14-3,.2a33.62,33.62,0,0,0-5.95,1.31,28.65,28.65,0,0,0-5.58,2.38,13.9,13.9,0,0,0-1.3.77,13.24,13.24,0,0,0-1.22.85,9.48,9.48,0,0,0-1.13.93l-.53.49a4.11,4.11,0,0,0-.39.44l-.43.51c-.44.23-.9.72-1.42.5a4.92,4.92,0,0,1-1.52-1.07c-.5-.44-1-.86-1.49-1.27A32.9,32.9,0,0,0,239.53,90a27.62,27.62,0,0,0-7-3.23,24.6,24.6,0,0,0-7.63-1,25.11,25.11,0,0,0-3.86.38c-1.28.24-2.57.57-3.86.86a46.27,46.27,0,0,0-20.84,12A63.33,63.33,0,0,0,183,119.34a98.59,98.59,0,0,0-6.54,23.77,85.49,85.49,0,0,0,.06,24.59Z"/><path class="cls-1" d="M218.31,201.42a31.8,31.8,0,0,0,2.78,1.65c.36.19.74.32,1.09.5,1.26.66,2.55,1.3,3.84,2,.57.31,1.17.59,1.75.93a3.59,3.59,0,0,1,1.92,2c.08.32-.41.41-.92.44s-1,.1-1.22-.12a28.75,28.75,0,0,0-3.77-2.46,28.26,28.26,0,0,0-2.77-1.31c-1-.51-2-1.06-3-1.66-.61-.37-1.2-.76-1.78-1.17a32.25,32.25,0,0,1-2.5-2c-.63-.54-1.27-1.06-1.87-1.65-.13-.14-.27-.26-.39-.4-.44-.54-.44-.81-.11-1.19a1.94,1.94,0,0,1,.23-.27.78.78,0,0,1,1,.09c1,.91,2,1.85,3.12,2.75a24.44,24.44,0,0,0,2.57,1.86Z"/><path class="cls-1" d="M246,226.81c-1.38,11-3.86,21.77-5.95,32.56-.76,3.94-1.45,7.89-2,11.83a55.25,55.25,0,0,0-.74,10.38,10.3,10.3,0,0,0,1.22,4.68A6.28,6.28,0,0,0,240,288a5,5,0,0,0,2.08.83,6.73,6.73,0,0,0,4.5-1.1,18,18,0,0,0,3.72-3.42A27.42,27.42,0,0,0,255,275.1a78.71,78.71,0,0,0,3.64-18.27c.71-7.93.48-16,.68-24,.1-5,2,1.32,1.92,10.58a120.41,120.41,0,0,1-2.34,24.63l-.74,3c-.3,1-.55,2-.88,3a52.48,52.48,0,0,1-2.19,5.9,23.42,23.42,0,0,1-3.38,5.48,20.63,20.63,0,0,1-2.28,2.3,12.66,12.66,0,0,1-2.75,1.9,8.41,8.41,0,0,1-4,.9,6.42,6.42,0,0,1-4-1.53c-2.25-1.89-3-4.82-3.13-7.4a45.29,45.29,0,0,1,.32-7.74c.27-2.54.65-5.06,1.08-7.55,1.89-11,4.43-21.77,6.22-32.68.55-3.36,1-6.73,1.33-10.1a50.9,50.9,0,0,0,.07-10.1c-.25-2.55-.65-5.11-.82-7.73a27.53,27.53,0,0,1,0-4,12.87,12.87,0,0,1,.8-4,14.23,14.23,0,0,1,5.23-6c2.13-1.52,4.43-2.74,6.54-4.12,3.25-2.15,5.7-5.26,8.37-8.18.67-.73,1.35-1.46,2.08-2.15.36-.35.74-.68,1.11-1,.14-.14.51-.41.78-.62s.59-.47.88-.68c1.13-.59,2.29-1.48,2.79-.25a3,3,0,0,1-.11,1.56,13.69,13.69,0,0,1-.88,2.06l-.67,1.27-.63,1.14c-.44.75-.88,1.5-1.35,2.25-3.49,5.52-4.93,7.08-6.18,7.88a4.05,4.05,0,0,1-.86.48c-.34.07-.12-.35.48-1.36s1.58-2.54,2.86-4.53c.94-1.47,1.87-3,2.77-4.49.44-.76.88-1.53,1.3-2.3l.31-.59.21-.42.06-.18c0-.06,0-.11,0-.15s-.06-.1-.12,0a2,2,0,0,0-.27.24l-.8.71-1,.92c-.62.63-1.24,1.28-1.85,1.95-2.43,2.66-4.85,5.65-8.14,7.89-1.62,1.1-3.23,2-4.78,3a25.89,25.89,0,0,0-4.23,3.19,10,10,0,0,0-2.15,3l-.32.83-.21.86c-.11.63-.19,1.28-.25,1.92a43.38,43.38,0,0,0,.46,8.06,60.51,60.51,0,0,1,.63,8.47,84,84,0,0,1-.6,8.44Z"/><path class="cls-1" d="M270.12,183.88c.66-1.08,1.28-2.19,1.87-3.33.21-.41.36-.85.57-1.26.34-.69.67-1.38,1-2.08l.22-.52.12-.27a3,3,0,0,0,.17-.53v-.15a.33.33,0,0,0-.42-.24,1.34,1.34,0,0,0-.45.29c-.08.08-.15.17-.22.25l-.41.47a6.55,6.55,0,0,1-1,1c-.48.35-1.36-1.39-.6-2.24l.38-.39.19-.2c.09-.09.25-.22.36-.32a4.52,4.52,0,0,1,1.58-1,1.89,1.89,0,0,1,1.46,0,2,2,0,0,1,1,1.07,4.41,4.41,0,0,1-.44,2.72c-.52,1.11-.91,2.26-1.43,3.35s-1.2,2.35-1.85,3.5c-.4.71-.81,1.4-1.23,2.1-.63,1-1.32,2.07-2,3.1-.52.79-1,1.63-1.56,2.41a5.12,5.12,0,0,1-.4.52c-.56.61-.91.68-1.33.38a2.16,2.16,0,0,1-.29-.21c-.27-.29-.22-.69.06-1.1.85-1.24,1.76-2.65,2.67-4.08.67-1.06,1.35-2.15,2-3.27Z"/><path class="cls-1" d="M272.57,186.65c.51-.89,1-1.79,1.44-2.72.17-.33.27-.69.43-1a25,25,0,0,0,1.41-3.65,4.57,4.57,0,0,0,.15-1.62,1.09,1.09,0,0,0-.21-.64s0,0,0,0,0,0,0,0a.78.78,0,0,0-.26-.07c-.14,0-.34-.48-.22-1a1,1,0,0,1,.55-.69l.28-.1a1.4,1.4,0,0,1,.35,0,1.25,1.25,0,0,1,.72.35,2.77,2.77,0,0,1,.78,1.92,5.68,5.68,0,0,1-.11,1.4,10.26,10.26,0,0,1-.8,2.4c-.42.89-.68,1.86-1.08,2.76s-.92,1.94-1.43,2.89c-.31.58-.64,1.15-1,1.72-.5.87-1,1.71-1.56,2.56-.4.66-.73,1.36-1.16,2-.1.14-.17.3-.29.44-.41.52-.68.58-1.12.31-.09-.06-.2-.11-.29-.18a.79.79,0,0,1-.15-1c.58-1.12,1.28-2.26,2-3.44.52-.87,1.05-1.75,1.53-2.66Z"/><path class="cls-1" d="M275.63,193.31c-.4.56-.79,1.11-1.2,1.66l-.62.83a6,6,0,0,1-.9.87,38,38,0,0,1-3.49,2.34l-2.48,1.59c-1.47.91-2.92,1.83-4.3,2.82a18.3,18.3,0,0,0-3.7,3.35l-.58.88c-.12.3-.28.67-.36.9-.12.72-.21,1.49-.28,2.23a24.41,24.41,0,0,0,.12,5.57c.11.45-.3.71-.95.34a3.28,3.28,0,0,1-1.31-2.66,23.56,23.56,0,0,1,.15-3.16c.06-.51.12-1,.2-1.54l.13-.77.08-.43a4.4,4.4,0,0,1,.18-.5c.13-.29.25-.58.38-.85l.48-.73a11.45,11.45,0,0,1,1.07-1.29c.38-.4.79-.74,1.18-1.1l1.25-1c2-1.46,4.1-2.92,6.21-4.24,1.15-.72,2.33-1.42,3.44-2.16a15.66,15.66,0,0,0,1.56-1.14,3.5,3.5,0,0,0,.59-.62l.6-.82c1-1.35,1.93-2.71,2.79-4.12.25-.42.54-.91.73-1.27s.26-.49.38-.75a2.51,2.51,0,0,0,.24-.85c0-.14-.07-.32-.22-.32a.81.81,0,0,0-.4.15,5.49,5.49,0,0,0-.65.52l-.3.3-.36.37c-.32.36-.64.71-1,1.07-.63.73-1.23,1.47-1.83,2.22l-.78,1c-1,1.22-1.4,1.53-2,1.49a1.78,1.78,0,0,1-.41,0c-.4-.11-.25-.84.43-1.81a43.86,43.86,0,0,1,2.92-3.77c.27-.3.53-.61.82-.91l.42-.45.59-.59a10.56,10.56,0,0,1,.87-.78,7.15,7.15,0,0,1,.87-.68c.27-.16.54-.32.81-.46l.68-.16a2.75,2.75,0,0,1,.59.11,1.62,1.62,0,0,1,.65.4,1.29,1.29,0,0,1,.31.46l.11.23,0,.28a1.92,1.92,0,0,1,0,.64c0,.11,0,.22,0,.35l-.13.42a11.17,11.17,0,0,1-.68,1.75c-.07.15-.14.3-.22.45l-.2.37-.26.47c-.71,1.23-1.47,2.4-2.25,3.54Z"/><path class="cls-1" d="M209.83,178.92a56.86,56.86,0,0,0,6.43,8.84l1.39,1.43,1.43,1.38a34.14,34.14,0,0,0,11.7,7.52,22.81,22.81,0,0,0,6,1.25,33.39,33.39,0,0,0,7.83-.76c.8-.15.84.33.27,1a5.82,5.82,0,0,1-3.45,1.61,22.6,22.6,0,0,1-4.35.16,17.74,17.74,0,0,1-2.18-.25,17.09,17.09,0,0,1-2.13-.43,26.74,26.74,0,0,1-7.9-3.42,47.14,47.14,0,0,1-8.2-6.4,54.6,54.6,0,0,1-7.13-8.86,62.67,62.67,0,0,1-3.51-6,73,73,0,0,1-4.13-9.7,75.54,75.54,0,0,1-2.38-7.72c-.13-.58-.3-1.14-.4-1.73-.42-2.18-.33-2.91.09-3.44a1.69,1.69,0,0,1,.3-.34c.36-.25.77.59,1.11,2.13A91.1,91.1,0,0,0,204.93,169a68.22,68.22,0,0,0,4.93,9.86Z"/><path class="cls-1" d="M216.2,268.67c1.1-4.93,2.54-9.73,4-14.51l1.58-5.23c1.93-6.11,3.92-12.19,5.49-18.38a72.34,72.34,0,0,0,1.61-8.3,30.25,30.25,0,0,0-.24-10.5c-.3-1,.16-1.11,1-.33a7.43,7.43,0,0,1,1.66,4.81,48.14,48.14,0,0,1-1.34,11.3c-.81,3.66-1.85,7.26-3,10.83-1.37,4.27-2.65,8.74-4,13.1-1.48,4.8-3,9.59-4.19,14.43a72,72,0,0,0-1.75,9,20.93,20.93,0,0,0,.12,6.8,6.35,6.35,0,0,0,1.37,2.9,4.12,4.12,0,0,0,2.57,1.58c1.55.22,3.09-.77,4.31-1.9a20.53,20.53,0,0,0,3.18-4c.4-.66.75-1.32,1.12-2,1.29-2.55,1.58-3.36,2.24-3.81a3.66,3.66,0,0,1,.43-.32c.43-.24.55,1.15-.28,3.24a26.27,26.27,0,0,1-2.3,4.47,19.15,19.15,0,0,1-3.36,4,9.67,9.67,0,0,1-2.35,1.58,5.68,5.68,0,0,1-3.1.58A5.5,5.5,0,0,1,218,286.7a8.15,8.15,0,0,1-1.05-1.07,7.63,7.63,0,0,1-.84-1.28,11.66,11.66,0,0,1-1.1-4.08,24.06,24.06,0,0,1,0-4,56.61,56.61,0,0,1,1.17-7.63Z"/><path class="cls-1" d="M284.94,225.08c2,3.62,3.78,7.35,5.41,11.13.58,1.39,1.22,2.75,1.75,4.15,1.92,4.94,3.57,10,5,15,.64,2.26,1.28,4.52,1.85,6.78.36,1.46.74,2.91,1,4.4a17.76,17.76,0,0,1,.41,4.6c-.06.54-.29.8-.45.71s-.34-.38-.56-.74a11.83,11.83,0,0,1-1.32-3.69c-1.09-5.85-2.72-11.68-4.41-17.52a111.1,111.1,0,0,0-3.86-10.47c-1.56-3.79-3.25-7.52-5.16-11.15-1.16-2.23-2.41-4.42-3.76-6.55a60.51,60.51,0,0,0-6.89-9.07c-.48-.55-1-1-1.55-1.54s-1.06-1-1.62-1.43l-.84-.68-.2-.17-.17-.1-.42-.21a6.44,6.44,0,0,0-1.89-.5,7.15,7.15,0,0,0-1.73,0,23.19,23.19,0,0,0-2.32.4,2.37,2.37,0,0,1-1.19-.06,2.21,2.21,0,0,1-.46-.18c-.19-.12-.09-.36.27-.67a5.26,5.26,0,0,1,1.92-1,9.11,9.11,0,0,1,4.39-.29,7.43,7.43,0,0,1,2.22.77,3,3,0,0,1,.59.38l.41.33.81.68a47,47,0,0,1,5.85,6.11,77.88,77.88,0,0,1,7,10.46Z"/><path class="cls-1" d="M316.21,308.59c0,27.9-53.62,32.35-53.64,32.42,10.48-37.1-21.62-50.31-18.1-50.52s6.16-4.43,6.16-4.43c1.71,2.05,30.9,6.56,49-12.08C305.19,280.55,316.21,297.94,316.21,308.59Z"/><path class="cls-1" d="M254.29,288.5c-.56-.11-1.13-.22-1.7-.38-.28-.07-.57-.15-.86-.25l-.44-.15-.22-.09,0,0h0l-.07,0s0,0-.05,0l-.22.28-.54.61a14.3,14.3,0,0,1-1.2,1.13,9.25,9.25,0,0,1-1.38,1c-.24.15-.51.27-.77.4l-.2.08a1.3,1.3,0,0,0-.21,0c0,.06.08.1.13.15-.19-.13,1,.77,1.68,1.33a59,59,0,0,1,4.53,4,45.48,45.48,0,0,1,7.45,9.51,39.25,39.25,0,0,1,4.6,12,42.57,42.57,0,0,1,.72,11.2,51.45,51.45,0,0,1-.67,5.56c-.16.92-.34,1.84-.55,2.75s-.49,2.07-.52,2.13l-.1.34.48-.05,1-.11,2.62-.35c1.76-.24,3.5-.53,5.24-.84,3.48-.64,6.94-1.4,10.35-2.33a74.82,74.82,0,0,0,18-7.25,36.08,36.08,0,0,0,9.41-7.81,20.88,20.88,0,0,0,4.68-11c.21-2.5.68-2.24,1,0a6.76,6.76,0,0,1,.1.95q0,.53,0,1.11c0,.41-.05.83-.08,1.28s-.18.91-.29,1.39a17.08,17.08,0,0,1-2.84,6.22l-1,1.35-1.12,1.25a30.77,30.77,0,0,1-2.38,2.33,41.12,41.12,0,0,1-5.34,3.89,62.52,62.52,0,0,1-11.79,5.57,117.62,117.62,0,0,1-25.26,5.79l-1.85.21-.8.09c-.17.06-.19-.07-.26-.14l-.17-.24-.18-.25s-.06-.09-.09-.11H263l-.38-.06-.82-.51.38-1.37.21-.85c.13-.53.26-1.06.36-1.59.23-1.07.43-2.15.59-3.23a48.09,48.09,0,0,0,.52-6.57,38.9,38.9,0,0,0-9.74-26.21,49.6,49.6,0,0,0-5.52-5.42c-1-.84-2-1.64-3-2.45-.8-.61-1.72-1.3-1.93-1.9a.81.81,0,0,1-.08-.5c.09-.17.18-.18.32-.28a2.87,2.87,0,0,1,.4-.22l.72-.24a3.18,3.18,0,0,0,.61-.16,4.67,4.67,0,0,0,.54-.19,4.55,4.55,0,0,0,.65-.35,8.63,8.63,0,0,0,1.22-.89c.32-.29.63-.59.92-.91a11.53,11.53,0,0,0,1-1.25l.43-.15c.13,0,.22-.15.33-.08a4.1,4.1,0,0,0,.83.12l.56.22.48.16c.33.1.67.18,1,.26.68.16,1.37.29,2.06.4a42.32,42.32,0,0,0,4.21.46,58.67,58.67,0,0,0,8.49-.1,55.49,55.49,0,0,0,15.58-3.51,43.92,43.92,0,0,0,13.51-8.28c.2-.17.38-.35.56-.53l.65-.63.8-.78.2-.2.1-.09.05-.05,0,.05.34.41,1.27,1.58,1,1.23c1.23,1.67,2.44,3.36,3.57,5.09a100.17,100.17,0,0,1,6.24,10.72c.81,1.64,1.57,3.26,2.27,5,2.48,6.42,2.37,8.85,2,10.32a7,7,0,0,1-.29,1c-.44.63-.47-2.08-2-6.7a64.84,64.84,0,0,0-4.37-10.07A111.13,111.13,0,0,0,304,282c-1-1.58-2.14-3.14-3.28-4.66l-.86-1.12-.14-.18,0-.05-.09-.11c-.09-.11-.06-.06-.08-.06h0l-.22.21-.53.52a45.45,45.45,0,0,1-9.83,6.82A53.68,53.68,0,0,1,272,288.67a61,61,0,0,1-8.85.62,50.21,50.21,0,0,1-8.88-.74Z"/><path class="cls-1" d="M288.55,283.45c3.1-2.21,6.26-4.36,9.3-6.66,1.84-1.39,4-2.85,5.19-4.85.64-1.05-1.57-1.12-2.09-.28-1.26,2.07-4,3.66-5.86,5.06-2.64,1.94-5.33,3.79-8,5.69-1.2.85.56,1.68,1.46,1Z"/><path class="cls-1" d="M220.13,339.6c.44-5.08.9-10.16,1.47-15.23.2-1.85.37-3.7.6-5.55.44-3.26.94-6.51,1.58-9.74.32-1.62.69-3.23,1.12-4.83a31,31,0,0,1,1.63-4.75,16.45,16.45,0,0,1,1.08-2l.68-.92.74-.87a20.11,20.11,0,0,1,3.41-2.92,18.17,18.17,0,0,1,5.18-2.52,10.48,10.48,0,0,1,5.85-.2c1.21.38.81.77-.21,1s-2.61.55-4.48,1a17.86,17.86,0,0,0-8.82,5.46c-.3.31-.52.68-.8,1l-.64,1.09-.55,1.2-.49,1.27a54.34,54.34,0,0,0-1.55,5.36,118.92,118.92,0,0,0-2.15,13.7c-.6,5.07-1.09,10.17-1.53,15.27l-.78,9.43c-.37,4.76-.74,9.55-1.11,14.28-.29,3.68-.48,7.29-.88,10.94-.08.81-.16,1.6-.28,2.41-.47,3-.91,4-1.58,4.43a2.06,2.06,0,0,1-.45.3c-.46.11-.33-1.06,0-3.18.83-6.35,1.23-13.22,1.77-20.07.39-5.11.78-10.24,1.17-15.36Z"/><path class="cls-1" d="M235.54,347.43c1.16-4,2.33-7.91,3.4-11.89.4-1.45.73-2.92,1.11-4.37.34-1.28.67-2.56,1-3.84s.64-2.57.91-3.86.57-2.58.78-3.87c.1-.64.25-1.29.32-1.93l.21-1.94v-.11a1.21,1.21,0,0,1,.07-.33.68.68,0,0,1,.11-.31,1.68,1.68,0,0,1,.41-.51,4.06,4.06,0,0,1,.5-.34,4.81,4.81,0,0,1,.46-.22,12.58,12.58,0,0,1,1.78-.56c1.18-.28,2.35-.46,3.52-.62a64,64,0,0,1,9-.66c1.88,0-.39,2-3.83,2.18-2,.14-4,.3-5.9.56a27.13,27.13,0,0,0-2.82.5,7.05,7.05,0,0,0-1.2.39l-.22.11c-.06.06,0,0,0,0a.1.1,0,0,0,0,.05l-.18,1.53c-.06.55-.14,1.09-.25,1.62-.22,1.06-.39,2.14-.66,3.18-.83,3.63-1.66,7.4-2.6,11.08q-1.59,6-3.34,12Q237,349,235.9,352.71c-1.12,3.71-2.24,7.45-3.34,11.13-.84,2.88-1.57,5.72-2.36,8.57-.18.63-.35,1.25-.52,1.88-.7,2.34-1.05,3-1.69,3.39a2,2,0,0,1-.43.22c-.43.11-.43-.93,0-2.66,1.26-5.14,2.83-10.48,4.41-15.85,1.18-4,2.35-8,3.53-12Z"/><path class="cls-1" d="M206.31,309.58c-1.68,4.91-3.11,9.92-4.38,15-.46,1.85-.85,3.71-1.28,5.56-1.53,6.53-2.91,13.11-4.18,19.71-.56,2.93-1.06,5.89-1.55,8.81a81,81,0,0,1-2.32,11.26c-.49,1.21-.85.78-1-.27a15.89,15.89,0,0,1,.2-5.06c1.42-7.6,2.75-15.27,4.49-22.92,1-4.58,1.93-9.39,3-14.06,1.21-5.15,2.57-10.26,4.15-15.31,1-3.11,2.06-6.19,3.28-9.22,1.93-4.54,4.07-9.13,7.61-12.77a13.68,13.68,0,0,1,5-3.09,18.92,18.92,0,0,1,5.72-1c.85,0,1.68,0,2.54,0,3.15.29,4.1.71,4.65,1.32a2.51,2.51,0,0,1,.35.42c.2.45-1.08.44-3.27.22a22,22,0,0,0-9.63.87,11.62,11.62,0,0,0-4,2.49,19.16,19.16,0,0,0-1.63,1.82c-.49.69-1,1.36-1.44,2.09a69.36,69.36,0,0,0-6.3,14.15Z"/><path class="cls-1" d="M207.51,352.17c1-2.53,2-5.07,2.91-7.63.34-.93.63-1.88,1-2.82,1.15-3.3,2.24-6.63,3.13-10,.39-1.49.67-3,.93-4.53l.36-2.93a28.86,28.86,0,0,1,.35-2.91c.22-1.22,1.9.38,1.73,2.79a57.54,57.54,0,0,1-2.82,12.05c-.8,2.34-1.48,4.81-2.29,7.19-.91,2.61-1.88,5.2-2.87,7.78L208,355.89c-1,2.38-1.92,4.78-2.87,7.15-.71,1.85-1.31,3.7-1.94,5.54l-.41,1.22c-.54,1.51-.78,1.91-1.37,2.1a2,2,0,0,1-.4.12c-.41.06-.53-.69-.22-1.88a98.9,98.9,0,0,1,3.63-10.3c1-2.56,2.05-5.11,3-7.68Z"/><path class="cls-1" d="M219.82,311a5.82,5.82,0,0,0,1,.2c.12,0,.24,0,.37,0a7.22,7.22,0,0,0,1.4,0,1.81,1.81,0,0,0,.6-.18c.25-.11.47-.32.8-.21s.55,1.84.23,2a3.4,3.4,0,0,1-1.86.17,6.49,6.49,0,0,0-1.16.06,7.6,7.6,0,0,1-1.27-.14c-.26,0-.51-.1-.76-.15s-.73-.2-1.1-.26a6.48,6.48,0,0,0-.88,0l-.2,0c-.23,0-.27-.17-.19-.67l.05-.33c.08-.38.25-.67.44-.73a2.58,2.58,0,0,1,1.5-.06c.35.06.69.16,1,.21Z"/><path class="cls-1" d="M199.14,378.08l-6.73,2.09c-.82.26-1.62.57-2.43.82l-8.67,2.65c-1.27.4-2.54.85-3.79,1.31a36,36,0,0,1-4.86,1.63c-1,.22-.35-1.92,1.5-2.57,3.29-1.16,6.62-2.2,10-3.09,2-.54,4.08-1.32,6.13-2l6.76-2.15,4.16-1.32,2.79-.9,2.88-1,.88.09c1.7.16,3.37.21,5.05.31l1.1.06c1.38.12,1.8.29,2.05.82a1.84,1.84,0,0,1,.15.36c.1.4-.5.65-1.52.65-1.26,0-2.55,0-3.85-.12l-2-.15-1.7-.16-1.21.42-6.74,2.23Z"/><path class="cls-1" d="M227.89,377.85c3.24,3.43.27,7.22-3.36,8.69-4.48,1.82-22.66,4.29-27.21,2.42-2.67-1.09-3.66-1.37-1.64-3.73,2.79-3.27,22.55-6.36,24.47-6.49,2.6-.17,5.5-2.26,7.74-.89"/><path class="cls-1" d="M198.86,384.67a7.72,7.72,0,0,0-2.23,1.19,3.23,3.23,0,0,0-.41.45,4.1,4.1,0,0,0-.35.48l-.08.12a.08.08,0,0,0,0,0,.13.13,0,0,0,0,.12.3.3,0,0,0,.1.09,4.16,4.16,0,0,0,.56.29c.41.19.88.4,1.32.57a10.66,10.66,0,0,0,2.63.52,42.16,42.16,0,0,0,4.22.08,98.29,98.29,0,0,0,15.09-1.51c1.1-.21,2.2-.45,3.25-.76a9.48,9.48,0,0,0,2.89-1.3,6.28,6.28,0,0,0,2.44-2.92,3.63,3.63,0,0,0-.52-3.39c-.45-.64-.08-1,.8-.63a3,3,0,0,1,1.42,1.25,3.82,3.82,0,0,1,.42,2.83,6.26,6.26,0,0,1-1.21,2.45,8.6,8.6,0,0,1-1.85,1.77,12,12,0,0,1-4.46,1.93,63.56,63.56,0,0,1-8.92,1.39c-3.57.33-7.27.75-11,.74-1,0-2-.05-3.07-.16-.51,0-1-.16-1.57-.24a9.58,9.58,0,0,1-1.57-.49c-.46-.2-.92-.39-1.42-.63l-.37-.21a2.86,2.86,0,0,1-.47-.33,1.83,1.83,0,0,1-.61-1,2.64,2.64,0,0,1,.64-2c.16-.23.33-.43.5-.63a3.76,3.76,0,0,1,.65-.61,13.51,13.51,0,0,1,3.52-1.69c1.19-.41,2.38-.76,3.58-1.08,3.64-1,7.33-1.65,11-2.34l4.23-.79c.71-.12,1.39-.25,2.15-.34a10.27,10.27,0,0,0,1.91-.48c.57-.19,1.14-.43,1.78-.62a5.53,5.53,0,0,1,2.75-.27,1.47,1.47,0,0,1,1.1.8,1.58,1.58,0,0,1,.14.46c0,.21-.26.27-.62.26a7.11,7.11,0,0,0-1.59.15c-1.07.22-2.22.76-3.54,1.18a10,10,0,0,1-1,.27c-.34.08-.82.12-1,.16l-1.91.31c-2.58.44-5.21.93-7.82,1.46a73.56,73.56,0,0,0-11.37,3Z"/><path class="cls-2" d="M267.73,361.52V348a3.74,3.74,0,0,0-1.88,0v13.53A5,5,0,0,0,267.73,361.52Z"/><path class="cls-1" d="M301.72,345.68l24-.72,8.74-.37,14.44-.52c.11,0,.26,0,.34,0a1.35,1.35,0,0,0-.11-.34c-.05-.12-.09-.19-.2-.41l-.44-.87c-.62-1.15-1.26-2.3-1.91-3.44-1.31-2.28-2.66-4.55-4-6.81-2.35-3.9-4.8-7.78-7.29-11.54l-1.22-1.8-.62-.88-.21-.28a.19.19,0,0,0-.19-.1l-4.19-.25c-2.91-.19-5.81-.4-8.7-.7-3.61-.37,1.1-1.86,7.79-1.42l4.44.3.56,0,.44,0a1.51,1.51,0,0,1,.53.09c.63.22,1.13,1.09,1.27,1.26.44.63.85,1.26,1.26,1.88,1.64,2.5,3.22,5,4.78,7.56,3.11,5.1,6.19,10.19,9,15.56l.45.91a8.26,8.26,0,0,1,.57,1.35,1.45,1.45,0,0,1-.06,1.13,9.34,9.34,0,0,1-1,.45l-19,.82-24.16.8-14.87.42-22.51.58-2.17.05-1.08,0h-.62a1.34,1.34,0,0,1-.38-.1l-.26-.09-4.07-1.38-8.13-2.73-3.57-1.2c-4.45-1.55-5.82-2.17-6.61-3a5,5,0,0,1-.52-.55c-.3-.51,1.62-.17,4.91.88q7.34,2.32,14.92,4.95l3.8,1.3.15.05h.41l1,0,2,0,8.1-.22,24.19-.7Z"/><path class="cls-1" d="M249.36,383.17l6.3,2.11c.77.25,1.55.45,2.32.71l2,.68.51.18.25.08.08,0,.36.15c.09,0,.09-.2.14-.31l.05-.22.09-.51c.12-.69.21-1.38.28-2.08a27.2,27.2,0,0,0,.11-3.72c0-.79-.11-1.58-.19-2.36s-.15-1.6-.24-2.21a.13.13,0,0,1,0-.09s0,0,.07,0a.44.44,0,0,1,.14-.18.59.59,0,0,1,.73,0,2.71,2.71,0,0,1,1.31,2.1,30.93,30.93,0,0,1,.06,5.09c-.05.85-.14,1.69-.27,2.53-.06.43-.14.85-.22,1.27l-.14.68c-.07.37-.16.72-.24,1.06l-.28,1.22c0,.08-.08,0-.12,0l-.16-.05-.31-.1-.61-.19-1.93-.6-2.92-.9-6.36-2.09-3.91-1.27c-2-.63-4-1.29-5.95-1.87-1.54-.44-3.08-.77-4.62-1.15-.34-.09-.68-.15-1-.25-1.26-.34-1.62-.58-1.74-1.14a1.84,1.84,0,0,1-.08-.38c0-.41.59-.56,1.54-.39a75.79,75.79,0,0,1,8.56,2.19l6.39,2Z"/><path class="cls-1" d="M371.11,374.51,354.44,350h-4.76v8.53l-83.11,2-30.78-10-3.11,13.67,30.89,10.89C287.83,377.64,311.47,374.5,371.11,374.51Z"/><path class="cls-1" d="M250,371.5l-18.55-6.63L235,349.16l15.35,5.07,16.33,5.33h0L328,358.38l21-.5c0-1.67,0-3.31,0-4.94l0-3.64,5.86,0,7.88,11.5q3.81,5.6,7.53,11.25c4,6-2.68-.51-10.21-11.54q-3.13-4.59-6.26-9.2H351c0,2.83,0,5.65,0,8.48l-24.2.49-23.07.36c-6.06.08-12.22.2-18.43.34l-18.81.45-6.4-2.1-23.68-7.8-2.82,12.18,7.22,2.58,14,5,7,2.49,1.74.62.21.07a.42.42,0,0,0,.12,0l.43,0,.92.08c1.22.11,2.44.25,3.67.33,14.87,1.09,29.9.42,44.73,0,11.53-.37,22.83-.79,34.24-1l7.5-.15c9.4-.12,12.39,0,14.4.52a12.86,12.86,0,0,1,1.33.33c.9.39-2.92.72-9.79.85l-31.26.8-32.17,1c-8,.18-16.09.26-24.17-.12-2-.1-4-.25-6.06-.4l-3-.28-.75-.07-.22,0a1.15,1.15,0,0,1-.35-.07l-.44-.15-1.42-.51-11.37-4Z"/><path class="cls-1" d="M206.64,391.66c-5.81-.65-11.59-1.39-17.37-2.12L173,387.42l-.22.92-.33,2c-.19,1.36-.34,2.72-.44,4.09-.2,2.75-.25,5.51-.18,8.28s.23,5.53.56,8.25c.09.68.19,1.36.31,2l.09.41s0,.08,0,.11a2.69,2.69,0,0,0,.47.3,18.89,18.89,0,0,0,3.7,1.24,119.52,119.52,0,0,0,12.2,2.12c4.11.54,8.24,1,12.38,1.46l11,1.14,11-.13,22-.24,44-.5,39-.59c16.61-.3,33.28-.7,49.87-.72,10.35,0-2.74,2.25-21.92,2.55-34,.54-67.92.95-102.13,1.17-10.23.06-20.67.19-31.18.34l-7.88.12-2,0a12.64,12.64,0,0,1-1.95,0l-3.91-.41c-5.24-.52-10.47-1.06-15.68-1.72-4.06-.52-8.12-1.08-12.17-1.87a44.15,44.15,0,0,1-6.08-1.56,8.91,8.91,0,0,1-1.55-.72l-.41-.27c-.15-.13-.29-.3-.43-.44s-.2-.36-.3-.54a1.86,1.86,0,0,1-.15-.49,28.79,28.79,0,0,1-.49-3.15,94.5,94.5,0,0,1-.51-12.36c0-2.06.18-4.12.39-6.18.13-1,.25-2.07.44-3.09.09-.51.16-1,.29-1.54l.51-2.27,20.64,2.67L202.15,389l5,.58,2.52.26L211,390l.61,0H212l0,0a2.26,2.26,0,0,0,.25.65l0-.69,22.14-.42,64.27-1.28L347.7,387l10.75-.29c13.47-.33,17.75-.27,20.66.24a17.74,17.74,0,0,1,1.91.35c1.3.41-4.18.89-14,1.23-29.23,1-60.07,1.7-91,2.36l-63.75,1.27.55-.12a2.62,2.62,0,0,1-.63.14h-.68l-.71,0-1.37-.12-2.71-.28Z"/><path class="cls-3" d="M378.42,387.63a237.08,237.08,0,0,1,0,30.74"/><path class="cls-1" d="M199.51,398.13c1,.16,2,.33,3,.45.36.05.73,0,1.09.09,1.28.16,2.56.33,3.85.4a12.22,12.22,0,0,0,1.71-.06,7.88,7.88,0,0,1,2.17-.13c.47.09.08,1.93-.81,2a16.41,16.41,0,0,1-4.64-.21c-.92-.17-1.88-.14-2.82-.24s-2.05-.25-3.06-.4l-1.88-.27c-.94-.13-1.89-.29-2.83-.36-.73-.05-1.46,0-2.19,0a3.85,3.85,0,0,1-.48,0c-.59,0-.77-.16-.86-.66a2.27,2.27,0,0,1-.05-.35.72.72,0,0,1,.69-.76,14.68,14.68,0,0,1,4.08,0c1,.1,2,.25,3,.38Z"/><path class="cls-1" d="M200.23,404l2.94.38c.36,0,.72,0,1.08.07,1.26.16,2.52.34,3.79.45a11.79,11.79,0,0,0,1.68,0,7.12,7.12,0,0,1,2.16.05c.45.12-.12,1.93-1,1.94a20.35,20.35,0,0,1-4.46-.41,24.54,24.54,0,0,0-2.72-.24c-1-.1-2-.23-3-.35l-1.83-.22c-.93-.1-1.86-.23-2.78-.28-.72,0-1.43,0-2.15.06l-.47,0c-.58,0-.75-.16-.84-.66,0-.12,0-.23-.06-.35a.73.73,0,0,1,.68-.76,15,15,0,0,1,4-.07c1,.08,2,.2,3,.3Z"/><path class="cls-1" d="M284.91,400.49l-14.92.07-5.44.09-19.18.11c-2.83,0-5.68.14-8.49.25-3.62.15-7.24.42-10.85.38-2.26,0,.51-2,4.69-2.15,7.39-.3,14.78-.4,22.23-.3,4.46.06,9.09-.12,13.65-.16l15-.11,9.25-.08c4.67-.06,9.36-.09,14-.23,3.6-.12,7.12-.34,10.67-.58l2.33-.17a29.83,29.83,0,0,1,3.08-.11,2.89,2.89,0,0,1,1.38.32,4.31,4.31,0,0,1,.49.27c.19.17,0,.37-.52.59a6.85,6.85,0,0,1-1.05.34c-.41.08-.88.15-1.42.22-6.4.75-13.1.9-19.85,1.07-5,.11-10,.16-15.06.22Z"/><path class="cls-1" d="M374,419.11l-163,1.57c-.77.35-29.93-2.24-39.18-4.33-4.54-1-3.72,20.84-3.11,21.66,2.55,3.47,36.78,8,42.29,8.72l162.54-3.48Z"/><path class="cls-1" d="M220.55,448l-8.7.15h-.91l-.25,0-.14,0-1.08-.14-2.17-.3L203,447.1c-5.76-.85-11.5-1.76-17.23-2.82-2.86-.53-5.73-1.1-8.58-1.78-1.43-.34-2.86-.69-4.29-1.12-.71-.22-1.43-.45-2.15-.72a10,10,0,0,1-2.24-1.09,2.78,2.78,0,0,1-.7-.63,1.73,1.73,0,0,1-.45-.83,2.3,2.3,0,0,1-.1-.47l-.05-.33-.06-.58c-.07-.76-.11-1.49-.14-2.23-.07-1.48-.09-2.95-.07-4.42a59.14,59.14,0,0,1,.66-8.87,16.64,16.64,0,0,1,.88-3.41,5.45,5.45,0,0,1,1.05-1.79,2.89,2.89,0,0,1,1.18-.8,3.15,3.15,0,0,1,1.4-.07c3.12.66,6.14,1.08,9.27,1.5s6.22.78,9.33,1.13q5.09.57,10.17,1.05l5.09.45,2.53.18c.42,0,.85.06,1.25.07l.61,0h.15s0,0,0,0,0,0,0,0v0a8.35,8.35,0,0,0,.45,1l0-1.09,69-.38c13.23-.08,26.54-.24,39.67-.4,16.87-.22,33.81-.55,50.67-.46,10.52.06-2.79,2.51-22.23,2.72-34.46.37-68.89.6-103.63.6-11,0-22.18.09-33.45.2l.46-.1a5.06,5.06,0,0,1-.94.13l-.5,0c-.32,0-.66,0-1,0l-1.91-.12-3.78-.29c-2.52-.22-5-.44-7.55-.7-5-.5-10-1.05-15-1.73-3-.41-6.12-.87-9.07-1.5a.88.88,0,0,0-.16,0l-.16,0a.78.78,0,0,0-.27.26,4.93,4.93,0,0,0-.66,1.4,21.41,21.41,0,0,0-.74,3.53,63.61,63.61,0,0,0-.47,7.47c0,1.25,0,2.51.05,3.76,0,.62.06,1.25.1,1.86l.08.92a6.28,6.28,0,0,0,.09.69.39.39,0,0,0,.22.28,4.59,4.59,0,0,0,.64.37,17.73,17.73,0,0,0,1.65.67c1.16.39,2.36.74,3.57,1.05,4.87,1.24,9.87,2.16,14.86,3s10,1.62,15,2.33l5.33.73a.61.61,0,0,0,.21,0h.33l.68,0,1.35,0,2.69-.05,10.79-.2,21.57-.41,65.27-1.32c16.8-.38,33.27-.9,49.87-1.36l8.82-.27v-.36c.08-3.28.13-6,.18-8.28s.14-4.29.23-5.87a36.5,36.5,0,0,1,.77-6.44c.16-.66.32-1.54.48-1.93.52-1.3.81,4.28.76,14.29,0,3.56-.06,7.13-.09,10.91l-21.46.65-20.61.56-41.92,1-70.21,1.41Z"/><path class="cls-1" d="M278.68,411.1q-3.27,0-6.54-.09h-2.36c-2.77-.08-5.54-.13-8.31,0-1.23,0-2.47.13-3.69.24a29.89,29.89,0,0,1-4.73.28c-1-.07.15-1.94,2-2.07a82.17,82.17,0,0,1,9.7-.26c2,.09,4,0,6,0,2.2.05,4.35.12,6.53.1l4,0c2,0,4.07-.07,6.09-.16,1.57-.07,3.11-.23,4.67-.32.35,0,.68-.05,1-.06,1.29,0,1.7.12,2,.62a1.8,1.8,0,0,1,.17.34c.11.39-.41.7-1.34.79-2.75.31-5.64.43-8.57.55-2.17.08-4.36.13-6.56.17Z"/><path class="cls-1" d="M211.2,396c-6.17-.6-12.22-1.38-18.32-2.12l-17-2.17-.1.43,0,.11,0,.18-.11.64c-.17.85-.29,1.71-.41,2.57-.2,1.72-.34,3.46-.37,5.21s0,3.49.17,5.22q.1,1.31.3,2.58c.06.42.14.84.22,1.24.05.18.09.42.14.56a1.05,1.05,0,0,0,.07.23l.08.07.21.13a5.67,5.67,0,0,0,.7.32,15,15,0,0,0,1.64.55c1.14.32,2.33.58,3.52.82,7.75,1.49,15.71,2.24,23.63,3.09l5.25.53,2.65.3c.88,0,1.76,0,2.63,0l10.54-.11,21.08-.21,42.16-.43c12.48-.13,25-.34,37.41-.55,15.91-.28,31.88-.69,47.78-.66,9.92,0-2.63,2.52-21,2.81-32.56.51-65.1.87-97.88,1-9.8,0-19.81.16-29.87.3l-7.56.11-3.79,0c-.62,0-1.26,0-1.88,0l-1.86-.2c-5-.49-10-1-15-1.56-3.69-.44-7.37-.91-11.06-1.52-1.84-.3-3.68-.63-5.52-1.06-.92-.22-1.84-.44-2.77-.75a10.78,10.78,0,0,1-1.41-.55,4.43,4.43,0,0,1-.74-.39,4.09,4.09,0,0,1-.82-.71,3.77,3.77,0,0,1-.39-.94c-.09-.26-.12-.48-.18-.72-.1-.47-.19-.92-.25-1.38-.14-.91-.25-1.82-.32-2.73-.15-1.82-.21-3.65-.18-5.47s.17-3.64.38-5.46c.12-.9.25-1.81.43-2.7l.12-.68.21-.92.45-1.93L197.22,392l8.08,1,4,.44,2,.19,1,.08.48,0h.23l-.06,0a3.2,3.2,0,0,0,.29.75v-.8l24.42-.59,61.58-1.59c15.85-.45,31.39-1,47.06-1.57l10.3-.36c12.9-.39,17-.34,19.8.23.63.13,1.47.25,1.84.38,1.25.47-4,1-13.44,1.42-28,1.19-57.55,2.05-87.21,2.86l-64.28,1.65.6-.14a2.72,2.72,0,0,1-.51.13l-.27,0h-.4l-.54,0-1-.08Z"/><path class="cls-1" d="M371.11,374.18l-1,11.88-107.23,3.12s2-8.27.69-13.27Z"/><path class="cls-1" d="M277.76,376.85,265,377h-.06v.07s0,.08,0,.12l0,.33a3.44,3.44,0,0,1,.05.45l.07.91a32.74,32.74,0,0,1-.08,3.58c-.1,1.17-.25,2.34-.43,3.5-.09.58-.2,1.15-.31,1.73l-.06.27,0,.18h.22l.73,0,2.28-.05,4.56-.11,13.38-.38,47.14-1.08c7-.17,14-.39,20.9-.63l16-.54.38-4.28.5-5c.28-2.6.69-2.39,1-.37.13,1,.23,2.47.27,4.26,0,.89,0,1.87,0,2.91s0,1.64-.24,4.42l-2.88.1c-18.15.56-36.29,1-54.6,1.28-10.94.17-22.33.58-33.53.87l-18.38.45.45-1.95.17-.82.11-.59c.14-.79.26-1.59.37-2.38a33.29,33.29,0,0,0,.29-4.77c0-.39,0-.78-.06-1.17a5.42,5.42,0,0,0-.06-.58l0-.3c0-.16,0-.32-.07-.48l-.19-.94-.1-.47-.05-.23,0-.12h.12l1.92,0,5-.06,22.74-.28,34.4-.49c8.85-.16,17.53-.43,26.28-.65l5.76-.16c7.21-.14,9.5-.06,11.06.42a8.41,8.41,0,0,1,1,.32c.7.38-2.23.74-7.5.94-15.65.59-32.15.9-48.72,1.17l-37,.53Z"/><path class="cls-1" d="M244.38,315.85s8-1.94,16.89-3.37A107,107,0,0,1,264,331.86c.09,4-.16,6-1.45,8.1-3.21,5.08-20.47-8.4-18.19-24.11"/><path class="cls-1" d="M259.4,339.74a2.32,2.32,0,0,0,2-.11c.12,0,.16-.18.27-.27s.24-.38.35-.58a6.88,6.88,0,0,0,.52-1.22,19.4,19.4,0,0,0,.54-5.75c0-1.46-.14-2.92-.26-4.39-.19-2.58-.51-5.17-.9-7.75-.19-1.29-.41-2.58-.65-3.86l-.37-1.92c-.08-.33,0-.75-.43-.58l-.58.09-.86.14-1.72.3c-1.14.21-2.28.44-3.41.68-2.9.61-5.78,1.36-8.7,1.84-1.82.31,0-2,3.4-2.76q4.47-1,9-1.73l2.27-.35,2.07-.31.27,0,.06.26.12.53.23,1,.15.76.1.56.2,1.14.35,2.28c.52,3.65,1.15,7.43,1.38,11.22a48.56,48.56,0,0,1,0,6.27,11.82,11.82,0,0,1-.65,3.22,9.05,9.05,0,0,1-.71,1.51l-.22.36-.32.39a2.65,2.65,0,0,1-.79.62,3.7,3.7,0,0,1-2.25.34,8.26,8.26,0,0,1-2-.53,16.24,16.24,0,0,1-3.41-2,28.74,28.74,0,0,1-7.59-8.85,26.51,26.51,0,0,1-3.18-8.39c-.11-.66-.22-1.31-.27-2-.14-2.51.19-3.31.72-3.77a1.87,1.87,0,0,1,.37-.29c.2-.09.36.12.45.56a16.11,16.11,0,0,1,.18,1.94,26,26,0,0,0,5.45,14.27,26.72,26.72,0,0,0,4,4.26,13.42,13.42,0,0,0,4.84,2.77Z"/><path class="cls-1" d="M297.09,352.18h-6.72l-2.45.05-8.65,0c-1.28,0-2.57.08-3.84.15a39.83,39.83,0,0,1-4.89.18c-1-.07.2-1.67,2.08-1.76,3.33-.16,6.67-.22,10-.1,2,.06,4.11-.07,6.16-.09l6.79,0h4.17c2.11,0,4.23,0,6.32,0,1.63,0,3.22-.16,4.83-.23l1.05-.06c1.33,0,1.75.08,2,.5a1.66,1.66,0,0,1,.19.3c.13.33-.41.6-1.38.7-2.87.29-5.89.35-8.93.39l-6.78,0Z"/><path class="cls-1" d="M192.84,370.33c1.37,2.42,6.11,1.83,6.79,2.32,1.28.93-.15,3.16-.64,4.14-1.15,2.28-23.37,13.76-29.1,9.42C165.79,383.11,187.84,371.06,192.84,370.33Z"/><path class="cls-1" d="M170.56,385.21a.14.14,0,0,0,0,.06l0,0,.19.12.19.13.25.11a2.44,2.44,0,0,0,.52.18,8,8,0,0,0,2.44.25,23.79,23.79,0,0,0,5.28-.84c1.29-.33,2.55-.77,3.82-1.2a70.86,70.86,0,0,0,12.91-5.87c.44-.28.88-.56,1.28-.86a3.7,3.7,0,0,0,.94-.88c.26-.51.5-.94.7-1.4a3.47,3.47,0,0,0,.33-1.26.6.6,0,0,0-.24-.51,1.63,1.63,0,0,0-.48-.08l-.83-.06c-.58,0-1.17-.09-1.77-.19a5.5,5.5,0,0,1-3.44-1.69c-.6-.92,0-.89.75-.69s1.76.18,3.17.38c.49.07,1,.12,1.54.16l.85.08.26,0a1.75,1.75,0,0,1,.38.09,3.19,3.19,0,0,1,.74.3,2.65,2.65,0,0,1,.93,1.32,2.75,2.75,0,0,1,.11.82,3.16,3.16,0,0,1,0,.63,7.12,7.12,0,0,1-.7,1.9l-.41.77-.1.18-.12.21c-.08.12-.16.24-.25.35s-.13.14-.2.22a11,11,0,0,1-1.51,1.18A43.62,43.62,0,0,1,192,382.4a99.18,99.18,0,0,1-9.6,3.88,38.87,38.87,0,0,1-5.58,1.38,13.15,13.15,0,0,1-5.94-.16,5.34,5.34,0,0,1-.91-.42l-.44-.28a2.73,2.73,0,0,1-.45-.45,2,2,0,0,1-.3-.58,2.88,2.88,0,0,1-.07-.65c0-.21.09-.4.13-.6a3.61,3.61,0,0,1,.21-.49,10.52,10.52,0,0,1,2.44-2.78,62.57,62.57,0,0,1,8.79-5.91c2.35-1.37,4.66-2.71,7.09-3.9.53-.26,1.05-.53,1.61-.77,2.06-.87,2.88-.91,3.46-.53a1.86,1.86,0,0,1,.37.27c.24.36-.49.74-1.91,1.4a122.85,122.85,0,0,0-12.82,7,52.36,52.36,0,0,0-4.51,3.14,16.82,16.82,0,0,0-2,1.77,5.8,5.8,0,0,0-.74.91,3.41,3.41,0,0,0-.22.41.56.56,0,0,0,0,.16Z"/><path class="cls-1" d="M257.09,348.42c.57.22,1.16.43,1.76.61.22.07.46.09.68.16.77.24,1.56.49,2.36.72a7.9,7.9,0,0,0,1.08.2,3,3,0,0,1,1.37.33c.26.16-.45,1.59-1,1.49a12,12,0,0,1-2.73-.82,11.92,11.92,0,0,0-1.71-.45c-.63-.17-1.26-.37-1.89-.58l-1.14-.42L254.2,349c-.45-.17-.92-.27-1.37-.42l-.3-.1c-.36-.16-.42-.32-.28-.73,0-.09.06-.19.1-.28A.65.65,0,0,1,253,347a11.75,11.75,0,0,1,2.34.72c.57.22,1.14.45,1.73.64Z"/><path class="cls-1" d="M221,167.3a5.8,5.8,0,0,1-.85.87,4.58,4.58,0,0,1-1.11.6l-.6.18c-.2,0-.4,0-.6.05a4.71,4.71,0,0,1-1.14-.06,3.9,3.9,0,0,1-.81-.17,2.83,2.83,0,0,1-.78-.29,5.37,5.37,0,0,1-2-1.94,11.15,11.15,0,0,1-1.05-2.36l-.66-2.08a10.19,10.19,0,0,1-.65-2.61c0-.57,1.91-.39,2.19.65a44.77,44.77,0,0,0,1.4,5,3.22,3.22,0,0,0,2,1.84,3.54,3.54,0,0,0,.73.18l.39.05.36,0a2.16,2.16,0,0,0,1.3-.49,4,4,0,0,0,1.11-1.62,9.9,9.9,0,0,0,.68-3.22,12.24,12.24,0,0,0-.24-2.57l-.1-.56c-.1-.69,0-.91.45-1.14a3.18,3.18,0,0,1,.32-.16c.37-.14.74.12.92.66a12.08,12.08,0,0,1,.36,5.21,9.13,9.13,0,0,1-1.51,4Z"/><path class="cls-1" d="M241.56,166a5.68,5.68,0,0,1-.84.86,4.13,4.13,0,0,1-1.11.6l-.61.19c-.2,0-.4,0-.6,0a4.71,4.71,0,0,1-1.14-.06,5.84,5.84,0,0,1-.81-.17,2.57,2.57,0,0,1-.78-.3,5.35,5.35,0,0,1-2-1.93,11.15,11.15,0,0,1-1-2.36l-.66-2.08a11.33,11.33,0,0,1-.65-2.61c0-.58,1.91-.39,2.19.65a47,47,0,0,0,1.4,5,3.23,3.23,0,0,0,2,1.83,3,3,0,0,0,.73.18l.39.06.36,0a2.11,2.11,0,0,0,1.3-.5,3.87,3.87,0,0,0,1.11-1.61,9.9,9.9,0,0,0,.68-3.23,12.36,12.36,0,0,0-.24-2.57l-.1-.55c-.1-.69,0-.92.46-1.15a3.13,3.13,0,0,1,.32-.15c.36-.14.73.11.91.66a11.88,11.88,0,0,1,.36,5.2,9,9,0,0,1-1.51,4Z"/><path class="cls-1" d="M225.62,158.75a17.83,17.83,0,0,0-2.68-5.87,5.71,5.71,0,0,0-1.55-1.43,12.43,12.43,0,0,0-8-1.38,15,15,0,0,0-3.63,1.06c-1.49.65-2.84,1.54-4.29,2.28-.46.23-.69-.19-.58-.83a2.93,2.93,0,0,1,1.46-2,17,17,0,0,1,10.49-2.37,17.93,17.93,0,0,1,3.28.7,13.26,13.26,0,0,1,1.58.62,5.5,5.5,0,0,1,1.54,1,11.4,11.4,0,0,1,2.27,3,20.1,20.1,0,0,1,1.46,3.29A23.36,23.36,0,0,1,228,161a16,16,0,0,1-.3,6.67,9.17,9.17,0,0,1-2.64,4.56,5.66,5.66,0,0,1-.93.75c-1.27.79-1.81.75-2.24.4a1.84,1.84,0,0,1-.29-.26c-.24-.34.19-.78.94-1.26a8.39,8.39,0,0,0,3.76-6.7,18.07,18.07,0,0,0-.7-6.41Z"/><path class="cls-1" d="M241.94,145.27a6.89,6.89,0,0,0-2.71-.44c-.35,0-.68.16-1,.2a10.41,10.41,0,0,0-3.53,1.44,8.12,8.12,0,0,0-1.37,1.11,9.77,9.77,0,0,1-1.65,1.56c-.43.25-1.33-1.4-.66-2.1a11.47,11.47,0,0,1,4.2-2.85c.5-.17,1-.42,1.47-.58a6.41,6.41,0,0,1,1.55-.45,7.93,7.93,0,0,1,3.53.13,10.6,10.6,0,0,1,2,.78,15.36,15.36,0,0,1,2.57,1.84c.61.52,1.25,1,1.83,1.57a3.33,3.33,0,0,1,.39.36c.42.5.45.75.13,1.15a3,3,0,0,1-.23.27.76.76,0,0,1-1,0c-1.06-.84-2-1.78-3-2.56a9.58,9.58,0,0,0-2.45-1.37Z"/><path class="cls-1" d="M232.87,181.38l.22.06.28.12a1.69,1.69,0,0,1,.56.46,1.66,1.66,0,0,1,.3.82,2.45,2.45,0,0,1-.13.61,2.84,2.84,0,0,1-.27.52c-.15.14-.31.27-.46.39l-.56.44-.35-.22a2.52,2.52,0,0,1-.82-.71,1.91,1.91,0,0,1-.39-.87c-.06-.39-.07-.76.22-.94.09-.06.52.16.93.39l.56.32a1.27,1.27,0,0,1,.26.15h-.07a1.68,1.68,0,0,0-.29,0,.69.69,0,0,0-.19,0,.72.72,0,0,0,.23-.21c.08-.11,0,0,0,0a.22.22,0,0,0,0,.11.19.19,0,0,0,.1.13l-.94.23a3,3,0,0,0,.22-.25s0-.07.11,0a.59.59,0,0,0,.38,0s.11,0,0,0a.2.2,0,0,0-.05.09.71.71,0,0,0-.09.17s-.11-.08-.22-.09a1,1,0,0,0-.25,0c-.05,0-.06,0-.09,0s.06,0-.08-.05-.05,0-.09,0,0,0,.09,0,.08-.06.23-.13l.07,0s.05,0,.08,0,0,.14-.18.59l-.16.3c-.18.35-.41.57-.64.55a.76.76,0,0,1-.51-.18,1.17,1.17,0,0,1-.51-.69,1.54,1.54,0,0,1,.14-1.24,2,2,0,0,1,.34-.41,2.1,2.1,0,0,1,.3-.22,2.48,2.48,0,0,1,1.69-.28Z"/><path class="cls-1" d="M228,200.27,225,198.86l-2.76-1.7c-.64-.46-1.29-.9-1.91-1.38a34.19,34.19,0,0,1-5.73-5.93c-.39-.47-.74-1-1.11-1.45s-.74-1-1.07-1.47a15.39,15.39,0,0,1-2.29-4.07c-.15-.5.33-.59.92-.43a2.86,2.86,0,0,1,1.72,1.31,54.58,54.58,0,0,0,5.19,7.38,12.77,12.77,0,0,0,.92,1l1,.93a21.54,21.54,0,0,0,2.2,1.74c.42.3.8.65,1.24.91l1.31.81c.45.25.86.56,1.33.78l1.39.66a14.16,14.16,0,0,0,1.74.77l1.8.61a17.15,17.15,0,0,0,2.8.71,15.44,15.44,0,0,0,2.85.42,22.47,22.47,0,0,0,4.42-.11l1-.11c1.2-.1,1.59,0,1.9.49a2,2,0,0,1,.21.33c.17.38-.31.72-1.22.88a24,24,0,0,1-8.58.08c-1.07-.23-2.17-.36-3.22-.69s-2.09-.67-3.13-1Z"/><path class="cls-1" d="M243.2,211.58a28.09,28.09,0,0,0-.74-2.87c-.1-.35-.28-.67-.4-1a27.33,27.33,0,0,0-1.44-3.56,9.72,9.72,0,0,0-.91-1.44,9.39,9.39,0,0,1-1.24-1.77c-.19-.44,1.58-1.13,2.15-.39a14.36,14.36,0,0,1,2.2,4.19c.3.9.77,1.76,1.1,2.66a30,30,0,0,1,.9,3c.15.64.29,1.27.41,1.9.19,1,.31,1.94.46,2.89.14.74.29,1.48.44,2.22,0,.16.06.32.07.49.05.62-.07.82-.56,1l-.34.09a.76.76,0,0,1-.83-.61,35.1,35.1,0,0,1-.75-3.86c-.17-1-.32-1.94-.57-2.9Z"/><path class="cls-1" d="M242.23,205.25c0-.32-.07-.65-.12-1a3.18,3.18,0,0,1-.1-.33c0-.42-.06-.85-.12-1.26a1.55,1.55,0,0,0-.18-.51c-.11-.21-.31-.39-.2-.67s1.85-.57,2-.32a2.59,2.59,0,0,1,.16,1.45c-.06.32.11.57.16.86s.11.64.16,1,.06.39.11.59a4.44,4.44,0,0,0,.22.87,3.29,3.29,0,0,0,.44.58s.08.07.1.12,0,.26-.47.46l-.31.13a1.07,1.07,0,0,1-.84.07,1.85,1.85,0,0,1-.77-1.08c-.1-.31-.16-.63-.24-.94Z"/><path class="cls-1" d="M261.6,255.37l-.51,4.11-.69,4.08c-.16,1-.37,2-.58,3a63.35,63.35,0,0,1-3.19,10.16c-.57,1.47-1.21,2.93-1.89,4.35a17.22,17.22,0,0,1-3.32,5.14c-.51.47-.75,0-.77-.66a4.7,4.7,0,0,1,.75-2.58,59.19,59.19,0,0,0,5-10.73,48.45,48.45,0,0,0,1.83-7.16c.33-1.32.5-2.68.74-4l.33-2,.24-2c.19-1.67.41-3.34.48-5l.23-3.83c0-1.27,0-2.55,0-3.82,0-1,0-2-.1-2.93l-.26-2.91c0-.42-.08-.84-.11-1.27-.1-1.6,0-2.12.48-2.49a1.79,1.79,0,0,1,.33-.25c.38-.18.73.46.89,1.64.24,1.74.41,3.55.54,5.38s.07,3.7.06,5.57c0,1.38-.11,2.77-.17,4.16s-.14,2.78-.32,4.17Z"/><path class="cls-1" d="M232.68,293.45c1.14-.83-4.11-5.66-4.11-5.66a17.26,17.26,0,0,1,11.79,1.34Z"/><path class="cls-1" d="M237.51,289.21l0,0L237,289c-.31-.12-.64-.19-1-.29a16.66,16.66,0,0,0-2-.39c-.5,0-1,0-1.49-.06s-1.55,0-1.6,0h-.44l-.25,0h-.14c-.06,0,0,0,0,.06l.31.38a6.74,6.74,0,0,0,.47.52l.87.91c.36.4.74.79,1.08,1.25a4.54,4.54,0,0,1,.45.79,1.77,1.77,0,0,1,.08,1.3.52.52,0,0,1-.35.32.21.21,0,0,1-.23-.11c-.11-.15-.15-.44-.38-.55s-.46,0-.66-.1a.85.85,0,0,1-.52-.36,23.22,23.22,0,0,0-1.57-2c-.15-.2-.91-1-1.49-1.61s-1.19-1.22-1.8-1.83l.33-.1.41-.08L228,287c.52-.1,1-.2,1.58-.28s1.11-.15,1.59-.18a18.05,18.05,0,0,1,2.08,0,17.79,17.79,0,0,1,4.45.86l.33.11.47.16.89.4c.59.24,1.15.53,1.71.81l.32.15.16.08s.08,0,.05,0l-.08.05-.63.36c-.42.24-.8.47-1.25.71l-1.28.7-.89.51c-.89.52-1.72,1.14-2.57,1.71-.19.13-.37.27-.56.39-.73.44-1,.47-1.43.12a3.08,3.08,0,0,1-.27-.24c-.26-.29-.11-.74.37-1.14a21.5,21.5,0,0,1,2.31-1.66c.4-.26.81-.51,1.23-.76l.63-.37.16-.09.07,0h0s.14,0,.05-.06Z"/><path class="cls-1" d="M139,129.27c-4.38,3.31-2.9,10.48,1.86,12.62,1.28.57,3.35-1.27,1.65-2-3.17-1.42-4.56-6.89-1.56-9.15,1.56-1.18-.75-2.33-1.95-1.43Z"/><path class="cls-1" d="M148.14,125.26c-5.32,1.81-4.52,9,.81,10.16.87.18,3.4-1.17,1.8-1.5-3.09-.65-5.22-6.3-1.49-7.56.41-.15,1.13-.61.79-1.1s-1.51-.13-1.91,0Z"/><path class="cls-1" d="M320,79.67a4.84,4.84,0,0,1,3.05,4.26c.1,1.12,3,.46,2.9-.78a5.94,5.94,0,0,0-3.68-5,2.2,2.2,0,0,0-2.06.23c-.37.26-.89,1-.21,1.3Z"/><path class="cls-1" d="M323.91,74.74c3.43-1.59,4.35,3.57,4.2,6-.11,1.54,2.85,1.15,2.94-.2.14-2.24-.23-4.85-1.72-6.61-1.75-2.08-4.43-2-6.72-.91-1.79.83-.2,2.47,1.3,1.77Z"/><polyline class="cls-3" points="267.52 348.26 349.68 345.5 349.68 358.54"/><path class="cls-2" d="M210.89,393.11a78,78,0,0,0-.4,13.83c.26,4.6.76,9.11.75,13.63,0,.31,1.9.31,1.88,0,0-4.62-.49-9.21-.75-13.72a75.28,75.28,0,0,1,.39-13.51C212.79,393.08,210.91,392.86,210.89,393.11Z"/></g></svg>