<svg id="Layer_1" data-name="Layer 1" xmlns="http://www.w3.org/2000/svg" width="520" height="520" viewBox="0 0 520 520"><defs><style>.cls-1{fill:#221f1f;}</style></defs><title>Notioly v2</title><g id="_51.Body_building" data-name="51.Body building"><path class="cls-1" d="M229.93,190.59a23.86,23.86,0,0,0,4.31,4,16.16,16.16,0,0,0,5.13,2.53,10.3,10.3,0,0,0,5.48,0,15.6,15.6,0,0,0,5.06-2.63,29,29,0,0,0,5.79-6.44,50.56,50.56,0,0,0,3.91-6.74,68.51,68.51,0,0,0,3-7.23,85.15,85.15,0,0,0,3.88-15.26,74.93,74.93,0,0,0,.91-13.93,59.64,59.64,0,0,0-.89-8.85,55.59,55.59,0,0,0-2.12-8.57c-.56-1.74,0-1.74,1-.44a17.21,17.21,0,0,1,3.2,7.52,68.77,68.77,0,0,1,.72,18.72,85,85,0,0,1-3.79,18.32,87.81,87.81,0,0,1-4.17,10.62,47,47,0,0,1-6.12,9.85c-.65.85-1.45,1.59-2.18,2.37-.39.37-.81.72-1.22,1.08l-.61.53-.67.47a14.93,14.93,0,0,1-6,2.77,12,12,0,0,1-6.6-.4,19.77,19.77,0,0,1-5.7-3.08,30.22,30.22,0,0,1-5.5-5.63,42.67,42.67,0,0,1-4.12-6.61,81.5,81.5,0,0,1-7.18-22.21,97.88,97.88,0,0,1-1.83-17.79c0-1.32,0-2.61.1-3.94a25.59,25.59,0,0,1,.78-5.21,10.93,10.93,0,0,1,.5-1.33,4.85,4.85,0,0,1,.6-.82,5.2,5.2,0,0,1,.52-.57c.46-.33.29,1.64-.09,5.09a80.88,80.88,0,0,0,.26,15.91,102,102,0,0,0,3,16.13,74.71,74.71,0,0,0,4.12,11.51,42.25,42.25,0,0,0,6.4,10.21Z"/><path class="cls-1" d="M215.39,143.82c-24.12-6.87-32.84-65.26,15.76-44-.23-3.68,51.25-48.14,65.83-6.1,4.83,13.94-11,42.68-62,28.63C215,116.78,214,133.35,215.39,143.82Z"/><path class="cls-1" d="M296.13,101.27a17.23,17.23,0,0,0,0-5,13,13,0,0,0-.61-2.4c-.3-.83-.6-1.67-.95-2.47a27.39,27.39,0,0,0-5.6-8.73,18.55,18.55,0,0,0-8.77-5,26,26,0,0,0-10.37-.23,52.86,52.86,0,0,0-14.69,5.14A88.78,88.78,0,0,0,243,90a63.71,63.71,0,0,0-10.6,9.35,11.59,11.59,0,0,0-.89.8.86.86,0,0,0-.13.17l-.3.11-.59.21-3.36-1.37c-1-.43-2-.69-3-1l-1.49-.49c-.5-.16-1-.26-1.51-.39l-1.52-.38a11.21,11.21,0,0,0-1.53-.31,22.54,22.54,0,0,0-12.1.6,15.4,15.4,0,0,0-2.64,1.3c-.39.29-.77.61-1.15.9a6.47,6.47,0,0,0-.57.47l-.5.54a14.09,14.09,0,0,0-3.05,5l-.48,1.41-.32,1.47-.15.73-.09.75-.17,1.5a32,32,0,0,0,.28,6,33.79,33.79,0,0,0,1.93,7.52,35.85,35.85,0,0,0,3.42,7,27.29,27.29,0,0,0,11,10.4c2.91,1.12,2.47,1.63-.46,1.22a25,25,0,0,1-2.52-.78L209.1,142c-.26-.13-.53-.27-.79-.42l-.77-.51a22.71,22.71,0,0,1-6.17-6.11,39.77,39.77,0,0,1-6.49-15.57,34.29,34.29,0,0,1-.46-8.54,21.42,21.42,0,0,1,2.34-8.41A15.6,15.6,0,0,1,203,96a18.23,18.23,0,0,1,8.48-2.24c.36,0,.73-.06,1.09,0l1.07,0c.72,0,1.43.07,2.14.13l2.11.33a18.6,18.6,0,0,1,2.08.4,58,58,0,0,1,8,2.51l1.47.61.74.3.23.11.13.06.07,0a.17.17,0,0,1,0-.07.92.92,0,0,1,.13-.21l.31-.41.37-.45q.38-.44.75-.84c.51-.55,1-1.07,1.58-1.58q1.6-1.53,3.3-2.94c2.26-1.9,4.63-3.68,7.07-5.36a79.57,79.57,0,0,1,15.62-8.51A46.2,46.2,0,0,1,270.61,75a26.56,26.56,0,0,1,11.37.78A20.93,20.93,0,0,1,291.54,82a32,32,0,0,1,5.71,9.78l.59,1.63a17.84,17.84,0,0,1,.46,1.74,18.75,18.75,0,0,1,.37,3.56,21.85,21.85,0,0,1-1.17,7,27,27,0,0,1-7.73,11.5c-5.25,4.75-12,7.47-18.85,8.68a68.91,68.91,0,0,1-20.67.27,123.82,123.82,0,0,1-15.57-3,25.58,25.58,0,0,0-7.48-.93,13.87,13.87,0,0,0-3.59.64,9.61,9.61,0,0,0-3.08,1.72,11.34,11.34,0,0,0-3.32,5.26,23.55,23.55,0,0,0-1,5.06c-.14,1.44-.19,2.61-.24,3.59a21.89,21.89,0,0,1-.38,4,11.3,11.3,0,0,1-.3,1.26c-.18.44-.51-.19-.85-1.76a28,28,0,0,1-.46-7.33,21.92,21.92,0,0,1,1.63-7.27,12.35,12.35,0,0,1,5.18-5.93,15.06,15.06,0,0,1,7.72-1.71,33.28,33.28,0,0,1,7.52,1.22c9.3,2.4,19,4,28.68,3.3,7.11-.49,14.23-2.33,20.09-6.24a27.36,27.36,0,0,0,7.47-7.23c.52-.69.92-1.46,1.38-2.2s.79-1.53,1.09-2.34a19.6,19.6,0,0,0,1.34-5Z"/><path class="cls-1" d="M204.79,155.32a9.61,9.61,0,0,1-1.69-4.64,6,6,0,0,1,.14-1.92,4.23,4.23,0,0,1,2.19-2.74,2.44,2.44,0,0,1,2,0,7.3,7.3,0,0,1,1.35.85,11.24,11.24,0,0,1,1.88,2,11.52,11.52,0,0,1,1.63,2.82c.12.31-.23.5-.72.48a2.08,2.08,0,0,1-1.52-.76c-.67-.87-1.16-1.74-1.78-2.42a6.49,6.49,0,0,0-1-.91c-.18-.13-.38-.25-.57-.37a.58.58,0,0,0-.25-.12,1.33,1.33,0,0,0-1,.67,3.38,3.38,0,0,0-.54,1.49,6.26,6.26,0,0,0,.89,3.78,11.09,11.09,0,0,0,1.5,2.13,18,18,0,0,0,3,2.74,20.77,20.77,0,0,0,2.7,1.56l.62.3c.75.4.92.64.84,1.17a2.08,2.08,0,0,1-.06.36c-.11.38-.57.48-1.19.25a17.69,17.69,0,0,1-5.22-3.12,17.46,17.46,0,0,1-3.23-3.51Z"/><path class="cls-1" d="M277.76,153.6a7.42,7.42,0,0,0,1.64-3.46,4.26,4.26,0,0,0-.07-1.29,2.59,2.59,0,0,0-1-1.73.89.89,0,0,0-.72-.13,6.22,6.22,0,0,0-1.12.57,5.89,5.89,0,0,0-1.56,1.69,16.4,16.4,0,0,1-1.8,2.63c-.25.26-.54,0-.73-.46a2.14,2.14,0,0,1,0-1.67,9.55,9.55,0,0,1,2.06-2.91,6.88,6.88,0,0,1,1.58-1.13,7.82,7.82,0,0,1,.9-.38,2.42,2.42,0,0,1,1.38-.08,3.73,3.73,0,0,1,2.17,1.59,4.83,4.83,0,0,1,.81,2.3,7.73,7.73,0,0,1-1.38,4.69,14.6,14.6,0,0,1-1.8,2.24,30.06,30.06,0,0,1-3.22,2.79c-.85.68-1.67,1.38-2.54,2-.19.14-.37.3-.57.43-.75.47-1.06.5-1.47.16a3.08,3.08,0,0,1-.27-.24c-.26-.29-.11-.75.38-1.16,1.43-1.21,3-2.31,4.46-3.53a18,18,0,0,0,2.9-3Z"/><path class="cls-1" d="M245.39,198.57c-.91.81-11.32,1.46-14.63-4.11-.24,3.78,1,7.75,6.42,9C241.71,204.51,244.2,201,245.39,198.57Z"/><path class="cls-1" d="M232.14,202.37a8.15,8.15,0,0,1-1.87-2.93,5.54,5.54,0,0,1-.21-.59l-.15-.63a6.25,6.25,0,0,1-.21-1.22,12.63,12.63,0,0,1-.06-2.19l.05-1.56,0-.83a.73.73,0,0,1,.09-.23,1.71,1.71,0,0,1,.11-.14s0,0,.05-.08l.07-.35,1.62,2.24.2.27.16.18.31.34.62.66.61.65a2.79,2.79,0,0,0,.51.38l.65.4a13.17,13.17,0,0,0,2.94,1.13,14.41,14.41,0,0,0,3.21.42c.69,0,1.38,0,2.07,0a17.5,17.5,0,0,0,2-.08c.11,0,.6.2.32.81a2.92,2.92,0,0,1-1.88,1.34,13.2,13.2,0,0,1-4.69-.05,13.74,13.74,0,0,1-4.5-1.58,7.48,7.48,0,0,1-.86-.51l-.38-.24-.1-.08a4.28,4.28,0,0,1-.45-.4,1.84,1.84,0,0,1-.17-.22c0-.07-.14-.23-.13-.08a3.23,3.23,0,0,0,0,.94c0,.09,0,.18.05.28a2.11,2.11,0,0,0,.14.41,6.11,6.11,0,0,0,3.08,3.28,6.85,6.85,0,0,0,4.91.72,5.76,5.76,0,0,0,2.91-2.36l.45-.73c.56-.91.81-1.16,1.44-1.12a2.86,2.86,0,0,1,.42,0c.44.09.58.7.22,1.56a8.53,8.53,0,0,1-2.64,3.48,7,7,0,0,1-4.62,1.44,9.11,9.11,0,0,1-1.76-.27,12,12,0,0,1-1.6-.53,9.58,9.58,0,0,1-2.95-1.89Z"/><path class="cls-1" d="M263.55,337.61c-15.93,16.48-39.87,6.92-41.42,4.95.73-4.89-10.85-119.88,3.2-128.08,3.11-1.81,8.38,29.55,18.07,27.29,5.84-1.37,5.61-29,9.83-26.89C261.23,218.93,268.24,320.56,263.55,337.61Z"/><path class="cls-1" d="M249.8,230.58a59,59,0,0,1-1.71,6.91,15.27,15.27,0,0,1-1.59,3.5,5.69,5.69,0,0,1-1.6,1.67,3.44,3.44,0,0,1-1.28.53,5.46,5.46,0,0,1-1.14.13,6.53,6.53,0,0,1-4.08-1.49,13.91,13.91,0,0,1-2.63-2.82,36.69,36.69,0,0,1-3.5-6.31c-1.94-4.3-3.4-8.74-5-13a32.69,32.69,0,0,0-1.31-3l-.18-.32,0-.08a.79.79,0,0,0-.12-.15c-.11-.11-.23,0-.32.08l-.05.06a1.23,1.23,0,0,0-.22.23l-.43.59a11.06,11.06,0,0,0-.75,1.36,21.43,21.43,0,0,0-1.14,3.06,61.14,61.14,0,0,0-1.83,9.74c-.39,3.31-.65,6.65-.85,10-.68,11.81-.59,23.69-.3,35.56s.86,23.74,1.55,35.61q.47,7.51.95,15c.17,2.5.34,5,.5,7.51l.23,3.75.09,1.89,0,.95v.35c0,.07,0,.14,0,.22s.16.17.24.24l.16.09a3.07,3.07,0,0,0,.31.17,33.79,33.79,0,0,0,9.33,2.9,40.5,40.5,0,0,0,9.83.51,31.13,31.13,0,0,0,17.92-7c1.56-1.31,2.28-1.86,2.42-1.64s-.34,1.17-1.5,2.57a21.89,21.89,0,0,1-5.79,4.89,27.74,27.74,0,0,1-4.67,2.2,30.13,30.13,0,0,1-5.65,1.39,41.56,41.56,0,0,1-12.55-.24,43.06,43.06,0,0,1-6.1-1.49,30.82,30.82,0,0,1-3-1.11c-.49-.22-1-.45-1.49-.73l-.39-.21a5.19,5.19,0,0,1-.62-.42,14.12,14.12,0,0,1-1.05-1l.05-.91,0-.45v-.23l0-.88-.07-1.79-.2-3.62-.44-7.26-.87-14.57c-.55-9.73-1-19.49-1.27-29.28-.22-8.29-.43-16.76-.43-25.28s.17-17.1,1-25.6a65.74,65.74,0,0,1,2.68-13.94,16.88,16.88,0,0,1,1.57-3.38,9.7,9.7,0,0,1,.56-.8,5.88,5.88,0,0,1,.77-.84,4.67,4.67,0,0,1,1.12-.75,1.21,1.21,0,0,1,1.22-.12,2.64,2.64,0,0,1,1,.81,5.89,5.89,0,0,1,.41.57l.18.3.12.22c.3.56.55,1.11.79,1.66.48,1.1.89,2.2,1.3,3.3,1.62,4.38,3.13,8.77,5.13,12.89a24.61,24.61,0,0,0,3.58,5.66,7.06,7.06,0,0,0,2.43,1.83,3.6,3.6,0,0,0,1.36.25,5.05,5.05,0,0,0,.68-.08,1.59,1.59,0,0,0,.48-.22,7,7,0,0,0,1.94-3.15,35.15,35.15,0,0,0,1.17-4c.65-2.75,1.14-5.57,1.64-8.39a60.73,60.73,0,0,1,1.93-8.53,9.66,9.66,0,0,1,.53-1.18,3.4,3.4,0,0,1,1-1.16,1.66,1.66,0,0,1,1.42-.21,3.82,3.82,0,0,1,.66.35l.56.51a6.43,6.43,0,0,1,.47.63,3.88,3.88,0,0,1,.3.52c.2.34.34.68.51,1,.3.69.55,1.38.78,2.08A97.13,97.13,0,0,1,259.42,232c.72,4.3,1.31,8.62,1.85,12.94,1.05,8.64,1.86,17.29,2.55,25.89,1.06,13.37,1.92,26.49,2.22,39.77.06,2.92.12,5.79.09,8.74-.11,10.94-.86,14.49-1.88,16.71a9,9,0,0,1-.76,1.42c-.39.43-.33-.42-.19-2.35s.29-5,.4-9c.25-11.77-.26-23.91-.93-36.2s-1.65-24.74-3-37.17a276.54,276.54,0,0,0-4.09-27.48,48.88,48.88,0,0,0-1.84-6.5,11.82,11.82,0,0,0-.63-1.43l-.17-.32c0-.05-.06-.11-.09-.15l-.05-.07s0,0,0,0a.07.07,0,0,0-.06,0v0l0,0-.14.33a40.84,40.84,0,0,0-1.57,6.49l-1.25,6.91Z"/><path class="cls-1" d="M181.66,313.37q3.92-13,8-26c1-3.16,1.95-6.34,3-9.48,3.66-11.1,7.49-22.13,11.68-33.05,1.87-4.84,3.76-9.7,5.8-14.44,1.32-3.05,2.68-6.09,4.29-9a37.94,37.94,0,0,1,2.68-4.3,17.55,17.55,0,0,1,1.69-2,7.1,7.1,0,0,1,2.29-1.62,2.34,2.34,0,0,1,1.47-.14c.32.12.42.25.38.36s-.74.38-1.3,1c-1.15,1.11-2.49,3.8-4.33,7A159.94,159.94,0,0,0,209,239.73c-2.53,6.22-4.92,12.53-7.29,18.88-2.84,7.61-5.36,15.67-7.9,23.58q-4.19,13-8.14,26.17-2.43,8.07-4.77,16.18c-2.36,8.18-4.71,16.41-6.85,24.58q-1.24,4.77-2.35,9.49c-.36,1.57-.74,3.17-1,4.71s-.67,3.19-.86,4.73a18.69,18.69,0,0,0-.08,4,13.85,13.85,0,0,0,1.45,5,10.71,10.71,0,0,1,.9,2.3,5,5,0,0,1,.19.86c0,.37-.44.22-1.27-.42a10.09,10.09,0,0,1-2.74-3.92,17.39,17.39,0,0,1-.65-9.36c.13-.77.28-1.52.43-2.25q.12-.54.21-1.05c.06-.38.14-.8.22-1.16.32-1.5.67-3,1-4.44,1.43-5.9,3-11.84,4.62-17.78,2.41-8.82,5-17.65,7.53-26.44Z"/><path class="cls-1" d="M293,313.77c-2-8.67-4-17.33-6.2-25.94-.8-3.15-1.7-6.26-2.54-9.39-3-11-6.17-22-10.09-32.73a138.51,138.51,0,0,0-5.93-13.92,72.64,72.64,0,0,0-4.82-8.3,36.31,36.31,0,0,0-2.87-3.74,15.91,15.91,0,0,0-3.4-3c-1.56-.86-1.28-1.41.61-1.15a9.14,9.14,0,0,1,3.45,1.63,16.84,16.84,0,0,1,3.7,3.81,64.82,64.82,0,0,1,5.16,8.76c1.5,3,2.84,6.08,4.08,9.18,2.49,6.2,4.61,12.53,6.53,18.94,2.29,7.67,4.73,15.62,6.84,23.51,2.32,8.68,4.45,17.41,6.48,26.16,1.26,5.38,2.46,10.78,3.65,16.17,1.8,8.16,3.5,16.4,5.23,24.51q1,4.74,2.1,9.37l.56,2.3c.18.71.46,1.47.68,2.26a33.91,33.91,0,0,1,1.1,4.78,15.93,15.93,0,0,1,.09,4.48,10.23,10.23,0,0,1-.5,2A7,7,0,0,1,306,375a4.85,4.85,0,0,1-.48.6L305,376a3.93,3.93,0,0,1-1,.66,4.22,4.22,0,0,1-1.6.52,2.39,2.39,0,0,1-1.12-.08,3.17,3.17,0,0,1-.82-.26c-.28-.18.08-.5.89-.88a6.85,6.85,0,0,0,2.8-2.32c1.23-2,1.06-4.8.54-7.48a41.89,41.89,0,0,0-1.08-4.09c-.21-.64-.46-1.53-.62-2.22l-.51-2.19c-1.3-5.81-2.54-11.69-3.81-17.59-1.87-8.76-3.77-17.55-5.78-26.29Z"/><path class="cls-1" d="M189.82,337.25q3.06-8.37,6-16.76l2.08-6.16c2.52-7.2,5-14.41,7.34-21.68,1-3.23,1.95-6.5,2.8-9.74.53-2.09,1-4.19,1.48-6.28a58.11,58.11,0,0,0,1.12-6.18c0-1,.58-1.26,1.3,0a10.1,10.1,0,0,1,.32,6c-.95,4.39-2.16,8.65-3.47,12.9s-2.72,8.45-4.23,12.64c-1.81,5-3.44,10.32-5.22,15.47-2,5.66-4,11.3-6,16.94q-1.89,5.21-3.76,10.4c-1.8,4.92-3.6,9.86-5.38,14.74,0,0,.1,0,.14.05.32.09.55.14,1,.27s1.06.37,1.57.59a12.18,12.18,0,0,1,2.94,1.74A7.68,7.68,0,0,1,192,365l.19.41a5.16,5.16,0,0,1,.15.57c.08.39.21.8.26,1.2l.08,1.2,0,.3-.29.07-.59.14a7.13,7.13,0,0,1-2.14.17,9.47,9.47,0,0,1-1.58-.21c-1.79-.39-2.8-.7-3.53-.89a4,4,0,0,1-1.5-.71,3.83,3.83,0,0,1-.53-.39c-.21-.22,0-.5.73-.71a7.3,7.3,0,0,1,3.16,0l2.15.4c.35.05.68.1,1,.12s.16,0,.22,0l.1,0a.52.52,0,0,0,.15-.07,1,1,0,0,0,0-.17l-.09-.17a7.94,7.94,0,0,0-.39-.77,7.06,7.06,0,0,0-2.76-2.42,13.69,13.69,0,0,0-1.87-.81l-.54-.18-1.06-.32-2.17-.66c.82-2.27,1.66-4.58,2.51-6.89q3-8.44,6.08-16.91Z"/><path class="cls-1" d="M283.65,329.05q-2.34-8.6-4.78-17.17L277,305.65c-2.09-7.35-4.19-14.7-6.38-22-1-3.25-2-6.49-3.09-9.68q-1.05-3.06-2.11-6.13c-.69-2-1.37-4.13-2-6.09-.38-1.15.17-1.4,1.18-.55a12.11,12.11,0,0,1,3.06,5.06c2.84,8.4,5.37,16.85,7.68,25.46,1.38,5.15,3.1,10.42,4.62,15.66,1.67,5.75,3.29,11.52,4.91,17.29q1.46,5.34,2.93,10.67c1.48,5.39,2.86,10.83,4.24,16.21.15.63.3,1.26.46,1.88l.28,1.17c.1.44.26.91.31,1.33-.52.17-1.07.35-1.59.56a4.43,4.43,0,0,0-.54.27c-.15.08-.29.17-.43.26a9.48,9.48,0,0,0-1.6,1.3,12.43,12.43,0,0,0-1.31,1.59,9.16,9.16,0,0,0-.55.88c-.09.15-.17.3-.25.45l-.11.23-.05.11a1.78,1.78,0,0,0-.12.48c0,.12-.05.37.15.37l.31-.05.31,0,.25-.05.36-.07c.46-.09.84-.16,1.17-.2a3.1,3.1,0,0,1,1.49.07,4.49,4.49,0,0,1,.64.18c.55.25-.61,1.46-3.25,2.22-.24.07-.67.16-1,.24s-.73.13-1.1.18a2.46,2.46,0,0,1-1.06-.14,1.24,1.24,0,0,1-.76-.66,3.13,3.13,0,0,1,0-2.27,10.16,10.16,0,0,1,.5-1.32c.17-.36.27-.56.42-.84a14.31,14.31,0,0,1,.95-1.48,12.71,12.71,0,0,1,2.5-2.58,10.31,10.31,0,0,1,1.57-1l.21-.11.14-.06v0h0l0-.05v0l-.07-.29-.14-.58-.57-2.33-1.22-4.7c-1.54-5.77-3.08-11.57-4.72-17.33Z"/><path class="cls-1" d="M301,368.06c1.12.12,1.35.43,1.4.72a8.15,8.15,0,0,1-.15,3,8.84,8.84,0,0,1-1.13,2.41,7.93,7.93,0,0,1-1.49,1.79,5.82,5.82,0,0,1-2.09,1.22,6.92,6.92,0,0,1-1.44.28,6.75,6.75,0,0,1-1.42,0c-.07,0-.17,0-.23-.06s-.05-.66.17-1c.05-.07.12-.21.15-.2.3,0,.61-.56.85-.55a1.28,1.28,0,0,0,.7-.08,4,4,0,0,0,.63-.29,4.4,4.4,0,0,1,.5-.21,4.9,4.9,0,0,0,.7-.25,4.3,4.3,0,0,0,1-.9,7.17,7.17,0,0,0,1.12-2,9,9,0,0,0,.46-2.23c0-.62,0-1,0-1.09A2.12,2.12,0,0,1,301,368.06Z"/><path class="cls-1" d="M297.56,367.49c1.05.14,1.35.51,1.33.8a6.92,6.92,0,0,1-.59,2.89,8.19,8.19,0,0,1-1.46,2.09,7.87,7.87,0,0,1-1.7,1.44,10.53,10.53,0,0,1-1,.53,10.33,10.33,0,0,1-1.08.33,6.8,6.8,0,0,1-1.33.16,7.67,7.67,0,0,1-1.27,0c-.07,0-.15,0-.21,0s-.1-.64.08-1c0-.08.09-.21.12-.21.29,0,.56-.61.82-.56a3,3,0,0,0,.72-.09c.23-.06.45-.18.67-.25a3.13,3.13,0,0,1,.52-.16,3.69,3.69,0,0,0,.72-.15,1.52,1.52,0,0,0,.41-.22,4.26,4.26,0,0,0,.65-.48,6.69,6.69,0,0,0,1.38-1.73,8.28,8.28,0,0,0,.76-2,9.62,9.62,0,0,0,.15-1C297.28,367.81,297.42,367.7,297.56,367.49Z"/><path class="cls-1" d="M294.61,364.66c1.11.17,1.34.48,1.38.78a9.09,9.09,0,0,1-.09,3.07,7.61,7.61,0,0,1-1.17,2.5,8.56,8.56,0,0,1-.75,1,7.84,7.84,0,0,1-.92.81,6.74,6.74,0,0,1-2.18,1.08,9.61,9.61,0,0,1-1.4.27,7.12,7.12,0,0,1-1.39.09c-.08,0-.17,0-.23-.06a1.1,1.1,0,0,1,.05-1.05c0-.08.1-.22.13-.22.31,0,.56-.69.83-.67a3,3,0,0,0,1.45-.45,5.27,5.27,0,0,1,.56-.19,6.77,6.77,0,0,0,.74-.2,3.93,3.93,0,0,0,1.05-.81,5.59,5.59,0,0,0,1.17-2c.06-.2.12-.4.19-.59s.07-.41.11-.6a7.63,7.63,0,0,0,.14-1.08c.07-.64,0-1.1,0-1.14A2,2,0,0,1,294.61,364.66Z"/><path class="cls-1" d="M171.57,372.23c1.12.24,1.36.46,1.4.71a17,17,0,0,0,.78,2.35,8.48,8.48,0,0,0,.9,1.87,6,6,0,0,0,1.18,1.27,4.6,4.6,0,0,0,1.47.73,1.53,1.53,0,0,0,.47.11,1.83,1.83,0,0,0,.47.05l.47,0,.45-.11c.05,0,.1-.06.16,0a1.41,1.41,0,0,1,.27,1c0,.09,0,.23,0,.24-.29.05-.46.79-.84.77a10,10,0,0,1-2-.06,2.39,2.39,0,0,1-.78-.3,5.42,5.42,0,0,1-.83-.65,7.92,7.92,0,0,1-1.27-1.17,9.13,9.13,0,0,1-1.54-2.38,10.25,10.25,0,0,1-.95-3.81A2.29,2.29,0,0,1,171.57,372.23Z"/><path class="cls-1" d="M175.59,370.17c1,.39,1.27.59,1.32.84a10.09,10.09,0,0,0,.76,2.35,7,7,0,0,0,1,1.83,5.8,5.8,0,0,0,1.34,1.18,6.06,6.06,0,0,0,1.65.66l.52.12a4.71,4.71,0,0,0,.54.05,5.29,5.29,0,0,0,1-.09c.05,0,.11-.05.17,0a1.2,1.2,0,0,1,.16,1c0,.09,0,.23-.07.23-.3,0-.53.69-.89.69-.65-.07-1.32.05-2-.06a2.43,2.43,0,0,1-.79-.25,5.53,5.53,0,0,1-.89-.56,8.66,8.66,0,0,1-1.43-1.05,8,8,0,0,1-1.81-2.33,9.39,9.39,0,0,1-.9-2.66,6.68,6.68,0,0,1-.1-1.35A2.77,2.77,0,0,1,175.59,370.17Z"/><path class="cls-1" d="M179.67,367.93c1.1.36,1.31.63,1.33.9a11.41,11.41,0,0,0,.6,2.56,6.48,6.48,0,0,0,.92,1.93,5,5,0,0,0,1.35,1.25,6.31,6.31,0,0,0,1.68.79l.53.15.55.08a6.15,6.15,0,0,0,1.05,0c.06,0,.12,0,.17,0a1.33,1.33,0,0,1,.15,1c0,.09,0,.23-.07.24-.32,0-.59.77-1,.71-.69-.06-1.4,0-2.11-.16a3.4,3.4,0,0,1-.8-.31,8,8,0,0,1-.89-.64,10.36,10.36,0,0,1-1.43-1.17A7.64,7.64,0,0,1,180,372.7a8.87,8.87,0,0,1-.65-2.84,8.58,8.58,0,0,1,0-1.36A2.28,2.28,0,0,1,179.67,367.93Z"/><path class="cls-1" d="M309.54,387.24l2.61.11H313s.11,0,.25-.23a5.37,5.37,0,0,0,.63-1.94,21.15,21.15,0,0,0,.29-2.47c.23-3.43.18-7,.31-10.53.08-2.59.14-5.2.43-7.8a53.58,53.58,0,0,1,1.17-6.85c.54-2.24,1.16-4.42,1.76-6.61a70.7,70.7,0,0,0,2.75-13.11,9.44,9.44,0,0,0-.9-5.36,3.3,3.3,0,0,0-1.87-1.43,7.71,7.71,0,0,0-2.68-.2c-5,.25-10.06,1.33-15.12,2-3.15.48.33-2.67,6.25-3.64a74.61,74.61,0,0,1,8-.89c.69,0,1.33-.05,2.08,0a7.66,7.66,0,0,1,2.44.43,5.79,5.79,0,0,1,2.26,1.46,6.79,6.79,0,0,1,1.34,2.2,12.2,12.2,0,0,1,.65,4.45,27.78,27.78,0,0,1-.41,4.13,71.39,71.39,0,0,1-1.84,7.83c-.86,3.06-1.76,6.16-2.48,9.28a62.06,62.06,0,0,0-1.27,9.45c-.24,3.51-.28,7-.34,10.6,0,1.78-.07,3.58-.22,5.39a21,21,0,0,1-.4,2.77,5.26,5.26,0,0,1-1.47,2.86,6,6,0,0,1-.53.34,6,6,0,0,1-.6.2l-.59.06h-.42l-1.66-.05c-1.1,0-2.2-.1-3.29-.17q-3.3-.21-6.57-.52a191.1,191.1,0,0,1-19.72-2.86,92,92,0,0,1-14.79-4l-1.58-.62-1.56-.71a17.7,17.7,0,0,1-3.86-2.42,3.4,3.4,0,0,1-1.21-1.74,2.69,2.69,0,0,1-.17-.71c.07-.64,1.48.25,4,1.64a59.73,59.73,0,0,0,12.64,4.65A136.61,136.61,0,0,0,288.49,385a199.85,199.85,0,0,0,21.05,2.16Z"/><path class="cls-1" d="M267.56,340.26c4.95-.05,9.87-1.55,14.67-2.61.91-.2,4.06-.74,4.26-1.93s-2.31-.75-2.88-.62c-3.62.8-7.6,2.25-11.33,2.29a9.76,9.76,0,0,0-5.12,1.37c-1,.7-1.11,1.51.4,1.5Z"/><path class="cls-1" d="M203.39,340.16c1.44.45,2.89.88,4.34,1.27.53.15,1.08.21,1.61.35a55.75,55.75,0,0,0,5.63,1.28,12.5,12.5,0,0,0,2.51.12c.54,0,1-.13,1.54-.17s.95-.15,1.38-.21c.28,0,.58.53.53,1.19a2,2,0,0,1-.41,1,1.7,1.7,0,0,1-.94.57,13.71,13.71,0,0,1-3.73,0,21,21,0,0,1-3.46-.74c-1.35-.4-2.77-.57-4.14-.9s-3-.79-4.48-1.22l-2.72-.8c-1.38-.4-2.75-.83-4.13-1.18-1.07-.26-2.16-.39-3.24-.58l-.71-.12c-.88-.21-1.11-.44-1.12-1.11,0-.15,0-.31,0-.46.05-.5.52-.79,1.19-.75a30.29,30.29,0,0,1,6,1.13l4.41,1.24Z"/><path class="cls-1" d="M159.5,343.79c-.1-2.33-.13-4.66-.07-7,0-.86,0-1.72.07-2.58l.1-1.09a2,2,0,0,1,.77-1.4,3.32,3.32,0,0,1,1.54-.55,5.57,5.57,0,0,1,.66,0,5.19,5.19,0,0,1,.56,0c.36,0,.72.05,1.07.09,1.39.16,2.72.43,4.05.7s2.59.48,3.88.67a32.36,32.36,0,0,1,4.91.88c1,.31-.64,2.43-2.59,2.12-3.4-.54-6.71-1.38-9.95-2.05a8,8,0,0,0-2-.18l-.25,0a.49.49,0,0,0-.17.06.29.29,0,0,0-.16.3l0,.64,0,.87c-.12,2.26-.11,4.55,0,6.84.05,1.41.14,2.82.26,4.23.19,2.13.41,4.27.8,6.36a40.72,40.72,0,0,0,1.3,4.7c.1.34.25.66.35,1,.39,1.26.41,1.67-.12,2.16a3.53,3.53,0,0,1-.35.33c-.43.3-1-.1-1.45-1a33.71,33.71,0,0,1-2.43-9c-.35-2.32-.55-4.67-.71-7Z"/><path class="cls-1" d="M210.19,385.93a112,112,0,0,1-11.27,1.45c-1.38.08-2.76.25-4.15.25a49,49,0,0,1-14.58-1.76,33.92,33.92,0,0,1-6.12-2.43,16.81,16.81,0,0,1-6.45-5.47c-.5-.73.09-1,1-.82a5.08,5.08,0,0,1,1.53.55,6.73,6.73,0,0,1,1.68,1.1c3.88,3.35,9,5.09,14.34,6.06a45.24,45.24,0,0,0,10,.35A96.93,96.93,0,0,0,207.33,384c2.28-.35,4.54-.8,6.79-1.29,3.41-.75,6.83-1.6,10.15-2.6,2.59-.78,5.06-1.73,7.58-2.64.56-.2,1.09-.42,1.65-.61,2.09-.71,2.83-.76,3.47-.28a2.92,2.92,0,0,1,.42.33c.34.42-.39,1.05-1.88,1.68a116.06,116.06,0,0,1-14.17,4.81c-3.66,1-7.39,1.85-11.14,2.57Z"/><path class="cls-1" d="M151.15,397.57c-2.11-6.31-4.13-12.67-6-19.07-.68-2.33-1.4-4.66-2-7-1.09-4.16-2.07-8.34-2.85-12.58a61.29,61.29,0,0,1-1.23-13,11.82,11.82,0,0,1,1.54-5.89,12.15,12.15,0,0,1,4.5-4,15.81,15.81,0,0,1,7.46-1.64,22.62,22.62,0,0,1,7.36,1.36c1.46.55,1,1.06-.35,1.26a36.61,36.61,0,0,1-6.25.05,14.64,14.64,0,0,0-6.5,1,10.5,10.5,0,0,0-2.66,1.68,10.75,10.75,0,0,0-1.08,1.16l-.49.63c-.13.21-.22.38-.33.58-.8,1.76-.89,4.24-.85,6.59a66.73,66.73,0,0,0,.67,7.24,140.54,140.54,0,0,0,4.07,17.63c1.79,6.42,3.77,12.81,5.85,19.15q1.94,5.86,4,11.68c2.08,5.88,4.2,11.77,6.45,17.54,1.74,4.48,3.61,8.81,5.46,13.2.41,1,.81,1.9,1.22,2.88,1.47,3.62,1.77,4.86,1.46,5.89a2.28,2.28,0,0,1-.25.66c-.21.18-.46.06-.87-.55a19.85,19.85,0,0,1-1.53-2.88c-3.52-7.75-6.87-16.09-10.05-24.53-2.36-6.27-4.61-12.61-6.79-19Z"/><path class="cls-1" d="M171,411.46c-.9-4.42-1.81-8.83-2.8-13.23L167,393.44c-1.3-5.64-2.65-11.27-4.29-16.82-.71-2.46-1.57-4.89-2.47-7.26-1.18-3.05-2.57-6-3.82-9-.38-.94.22-1.12,1.15-.62a6.26,6.26,0,0,1,1.55,1.26,9.3,9.3,0,0,1,1.43,2.23,112.66,112.66,0,0,1,6.17,19.39c.91,4,2.07,8,3,12.06,1,4.44,2,8.89,2.93,13.35l1.71,8.23c.87,4.15,1.7,8.33,2.64,12.42.75,3.18,1.62,6.27,2.53,9.35.21.67.42,1.32.63,2,.79,2.5.95,3.22.63,4a5.81,5.81,0,0,1-.2.55c-.14.26-.43.21-.86-.2a6.33,6.33,0,0,1-1.22-2.05,70.65,70.65,0,0,1-2.69-8.58c-.76-2.93-1.44-5.91-2.1-8.9q-1.41-6.68-2.84-13.37Z"/><path class="cls-1" d="M332.46,396.24c2.11-6.6,4.17-13.21,6-19.87.68-2.43,1.27-4.88,1.9-7.32,1.1-4.3,2.13-8.61,2.9-13,.39-2.17.66-4.35.83-6.53a16.1,16.1,0,0,0-.59-6.26,12.19,12.19,0,0,0-7.13-8,15.94,15.94,0,0,0-7.05-.8,37.15,37.15,0,0,0-7.17,1.42c-1.47.43-1.53-.2-.46-1.22a11.65,11.65,0,0,1,6.46-2.74,19.32,19.32,0,0,1,8.34.7,14.94,14.94,0,0,1,3.88,2c.55.47,1.13.93,1.64,1.45a16.74,16.74,0,0,1,1.39,1.66,17.83,17.83,0,0,1,2,3.75c.23.66.46,1.31.67,2a18.65,18.65,0,0,1,.35,2.16,34.1,34.1,0,0,1-.5,8.07c-1,6.24-2.39,12.57-4,18.75-1.78,6.78-3.81,13.49-5.88,20.17q-2,6.15-3.91,12.31c-2,6.2-4.07,12.41-6,18.57-1.5,4.8-2.83,9.54-4.14,14.32-.27,1.05-.54,2.08-.82,3.15-1,3.93-1.38,5.09-2.11,5.84a5.38,5.38,0,0,1-.49.54c-.26.2-.47-.11-.57-1a9.62,9.62,0,0,1,0-1.5c.06-.58.17-1.25.31-2,1.89-8.79,4.82-17.68,7.65-26.65,2.12-6.65,4.31-13.31,6.38-20Z"/><path class="cls-1" d="M319.88,400c-.81,3.89-1.57,7.8-2.31,11.72l-.73,4.3c-1,5-1.95,10.08-3,15.11-.47,2.24-.93,4.49-1.39,6.72-.32,1.43-.62,2.87-1,4.29a14.31,14.31,0,0,1-1.84,4.18c-.6.84-1,.28-1.12-.65a8.67,8.67,0,0,1,.29-3.82c.83-2.71,1.48-5.58,2.14-8.44l2-8.67c.81-3.48,1.31-7.16,2-10.76q1.06-5.92,2.24-11.86c.48-2.43,1-4.86,1.5-7.28.79-3.67,1.68-7.34,2.62-11a84.71,84.71,0,0,1,2.44-8.35,15.42,15.42,0,0,1,.73-1.8,8.56,8.56,0,0,1,1.37-2.23,1.73,1.73,0,0,1,1.21-.57,2,2,0,0,1,.54,0c.25.07.32.37.23.8a4.5,4.5,0,0,1-.26.75c-.12.28-.24.63-.42,1a53.65,53.65,0,0,0-2.5,7.12c-.73,2.5-1.4,5.08-2,7.68-.93,3.87-1.78,7.79-2.55,11.72Z"/><path class="cls-1" d="M135.74,452.23c4.06-8.52,43.5-6.73,43.5-2.75C179.24,456.67,132.39,459.24,135.74,452.23Z"/><path class="cls-1" d="M169.53,453a29.06,29.06,0,0,0,6.46-1.92,6.75,6.75,0,0,0,1.28-.75c.17-.13.36-.31.35-.3a.65.65,0,0,0,.1-.15c.07-.13,0-.25-.13-.32l-.1,0a2.52,2.52,0,0,0-.33-.15q-.36-.15-.75-.27a31.33,31.33,0,0,0-4.87-1,94.47,94.47,0,0,0-18-.82,50.73,50.73,0,0,0-7.93,1,30.39,30.39,0,0,0-4.81,1.43,10.58,10.58,0,0,0-3.93,2.38c-.29.32-.5.43-.73.31a1.1,1.1,0,0,1-.34-1.06,3.86,3.86,0,0,1,1-2.07,6.72,6.72,0,0,1,2.46-1.77,37.62,37.62,0,0,1,10.75-2.39,76.06,76.06,0,0,1,10.78-.2,107.62,107.62,0,0,1,13.14,1.14,26.18,26.18,0,0,1,3.64.91c.3.11.61.23.93.38a4.69,4.69,0,0,1,1.17.76,1.9,1.9,0,0,1,.64,1.17,2.61,2.61,0,0,1-.25,1.34,3.9,3.9,0,0,1-.8,1.13,7.05,7.05,0,0,1-.83.66,11.74,11.74,0,0,1-1.73.94,24.9,24.9,0,0,1-3.52,1.22,66.61,66.61,0,0,1-8.79,1.64,125.59,125.59,0,0,1-13.4.88,70.3,70.3,0,0,1-10.35-.38,17.38,17.38,0,0,1-2.31-.44,5.19,5.19,0,0,1-3-1.77,1.89,1.89,0,0,1-.35-1.18,1.05,1.05,0,0,1,.4-.74,1.22,1.22,0,0,1,.55-.27c.28,0,.35.33.51.58a1.09,1.09,0,0,0,.33.26,4,4,0,0,0,.8.41,16.33,16.33,0,0,0,4.09.86c1.48.16,3,.24,4.56.29,3.09.09,6.25,0,9.41-.13a97.49,97.49,0,0,0,14-1.66Z"/><path class="cls-1" d="M346.28,449.71c-4.51-8.29-39.76-1-39.76.89C306.53,457.78,350,456.53,346.28,449.71Z"/><path class="cls-1" d="M315.41,456.33a28.68,28.68,0,0,1-6.64-1.73,9.46,9.46,0,0,1-1.67-.91,4.36,4.36,0,0,1-1.71-2.11,2.82,2.82,0,0,1-.13-1.25,5.89,5.89,0,0,1,.24-.56,2.54,2.54,0,0,1,.43-.44,4.74,4.74,0,0,1,1.2-.65l.64-.25.42-.14c1.59-.5,3.13-.93,4.71-1.26a104.76,104.76,0,0,1,16.81-2,73.13,73.13,0,0,1,7.55.05,24.23,24.23,0,0,1,4.87.74,7.76,7.76,0,0,1,4.44,2.76c.34.49.28.82.07.91a2,2,0,0,1-1.08-.09c-.94-.25-2.16-.42-3.68-.9a32.69,32.69,0,0,0-9.05-1.1c-3.14,0-6.34.11-9.55.34a73.85,73.85,0,0,0-11.6,2c-1,.25-2.08.53-3.06.86a2.74,2.74,0,0,0-.61.25.19.19,0,0,0-.09.26.67.67,0,0,0,.12.29,1.12,1.12,0,0,0,.21.23.57.57,0,0,0,.14.11,2.08,2.08,0,0,0,.29.19,8.53,8.53,0,0,0,1.32.65,21.89,21.89,0,0,0,3,.89,52.81,52.81,0,0,0,7.87,1A78.92,78.92,0,0,0,333,454.4a41.13,41.13,0,0,0,9-1.82,15.45,15.45,0,0,0,1.76-.73,7.2,7.2,0,0,0,1.73-1.08,2.69,2.69,0,0,0,.66-.6c.12-.14.17-.34.27-.48s.5-.21.84.42a1.89,1.89,0,0,1,.06,1.41,3.42,3.42,0,0,1-1,1.44,12.26,12.26,0,0,1-4.19,2.11,33,33,0,0,1-4.36,1.06,64.64,64.64,0,0,1-8.92.9,78.29,78.29,0,0,1-13.4-.64Z"/><path class="cls-1" d="M120.65,371.06,167.39,368s-.71,5.76.71,7.16l-46.25,3Z"/><path class="cls-1" d="M156.37,374.58l6-.31,3-.16.67,0h.29c.06,0,.12,0,.06-.05s-.06,0-.2-1.13a17.5,17.5,0,0,1-.06-2.39l.05-1,0-.31-2.14.13-21.14,1.07c-3.12.16-6.26.39-9.36.63-4,.31-8,.73-12,.76-2.49,0,.52-2.24,5.1-2.57,8.13-.57,16.26-1,24.47-1.26,2.46-.07,5-.22,7.48-.38l7.92-.51c.65,0,1.32-.09,1.94-.11l-.18,1.49-.06.74-.05.64c0,.56,0,1.12,0,1.68a12.12,12.12,0,0,0,.11,1.62,3.3,3.3,0,0,0,.13.54,2.43,2.43,0,0,0,.28.69c.28.49.63,1.07.92,1.51l-.17.09a1.87,1.87,0,0,1-.39,0l-.84,0-1.69.1-2.24.12-4.18.23-10.19.57c-5.14.3-10.31.57-15.41.94-2,.14-3.94.31-5.89.49l-6.17.56-1.36.12c-.16-.85-.31-1.69-.47-2.55-.58-3.18-.6-4.22-.16-5a2.75,2.75,0,0,1,.31-.52c.38-.38,1,.86,1.48,3.18.25,1.1.61,2.88.62,2.64l.21-.05s0,0,.08,0l.27,0,.55-.05,2.22-.21,4.48-.37,9.13-.65,16.57-1Z"/><path class="cls-1" d="M189.92,374.69l101.15-4.78c3-2-1-6.11-1-6.11-10.1,4.23-6.31-1.66-6.31-1.66l-91.11,4.31s.32,3.75-8,1.55a3.29,3.29,0,0,0,0,3.13C185.5,373.08,188,374.79,189.92,374.69Z"/><path class="cls-1" d="M262.35,361.82l21.35-.88,2.3-.09-1.23,1.94a4.29,4.29,0,0,0-.31.57,3.62,3.62,0,0,0-.16.47.23.23,0,0,0,.1.28.32.32,0,0,0,.18,0,4.73,4.73,0,0,0,.61,0,9.73,9.73,0,0,0,1.49-.32c.5-.15,1-.31,1.53-.5l1-.37.69-.26.35-.12c.05,0,.12-.07.16-.05l.13.14c.34.35.67.71,1,1.1l.35.47.27.39a8.51,8.51,0,0,1,.88,1.76,4.32,4.32,0,0,1,.24,2.1,3.43,3.43,0,0,1-.38,1.13,3.36,3.36,0,0,1-.82.94l-.54.45a5.2,5.2,0,0,1-.69.06l-.88,0-1.59.08-6.36.29-44.89,1.79c-6.64.27-13.31.61-19.89.95-8.46.45-16.95,1-25.41,1.17-5.28.11,1.31-2.26,11.05-2.75,17.28-.85,34.56-1.57,52-2.1,10.42-.32,21.26-.92,31.92-1.38l2.68-.11,1.18,0c.17,0,.22-.12.41-.34a1.94,1.94,0,0,0,0-1.72,6.22,6.22,0,0,0-.52-1c-.1-.18-.23-.34-.34-.51l-.21-.27a1.46,1.46,0,0,0-.16-.19l-.23.09-1.06.39a16,16,0,0,1-2.74.74,5.58,5.58,0,0,1-1.67.05,2.12,2.12,0,0,1-1.69-1.08,2.69,2.69,0,0,1,0-2,6.42,6.42,0,0,1,.67-1.43l.78,1.36-13.75.58-21.65.92L215.67,366l-11.26.63-10.85.66h-.21s0,.05,0,.07a.64.64,0,0,1-.05.24,3,3,0,0,1-1.17,1.28,6,6,0,0,1-3.12.74,14.81,14.81,0,0,1-2.91-.3c-1.74-.73-.34,2.31.55,3.05a16.75,16.75,0,0,0,2.29,1.91,9.43,9.43,0,0,0,.89.49c.18.11.14.21-.14.31a2.84,2.84,0,0,1-1.5,0,6.63,6.63,0,0,1-2.4-1.13,6.25,6.25,0,0,1-2.31-3.08,4.65,4.65,0,0,1-.19-.85,4.35,4.35,0,0,1,0-1.14,3,3,0,0,1,.84-1.87l2.11.23,1.33.19a10,10,0,0,0,2.45,0,1.76,1.76,0,0,0,1.38-.76c.24-.28.47-.57.62-.77l.11-.15.18-.18.38-.39,17.27-1,17.17-.85,35.22-1.59Z"/><path class="cls-1" d="M360.34,360.35l-54.63,1s2.9,5.6,1.81,7.07l51.82-1Z"/><path class="cls-1" d="M319.45,369.55l-11.75.09-.39-.57-.19-.27,0-.17a4.4,4.4,0,0,0-.17-.45l-.29-.67c-.08-.08,0-.2-.05-.31v-.13a2.51,2.51,0,0,0,0-.27c0-.19-.06-.38-.12-.58a11.37,11.37,0,0,0-.35-1.19c-.14-.39-.29-.8-.45-1.19-.28-.67-.63-1.44-1-2.17l-.69-1.37,4.68-.1,3-.05,23.79-.11c3.52,0,7.05-.12,10.54-.22,4.49-.13,9-.36,13.47-.22,2.8.09-.71,2.22-5.87,2.34-9.16.2-18.32.28-27.55.16-5.53-.07-11.27.13-16.92.19h-1.25a3.45,3.45,0,0,0-.56,0l.22.49.44,1.13a15.77,15.77,0,0,1,.5,1.56c.07.27.14.54.19.83,0,.14,0,.28.07.43l0,.31a1.18,1.18,0,0,1-.05.37l0,.1h.33l6.51-.06,11.47-.12c5.79-.07,11.6-.11,17.35-.25,4.47-.11,8.84-.34,13.26-.52.8,0,.8,0,1-.07,0-.12,0-.24,0-.37,0-.4.1-.76.15-1.1s.11-.72.16-1c.1-.62.2-1.12.31-1.53a3.52,3.52,0,0,1,.8-1.62,4,4,0,0,1,.46-.46c.48-.28.64,1.24.4,3.89-.06.54-.11,1.08-.16,1.64l-.12,1.13c-.06.51-.13,1-.19,1.53l-6.18.28-5.29.19-10.76.26-18.67.27Z"/><path class="cls-1" d="M128.76,441.88c10.4-12.65-19-120.12-19-120.12-21.62-9.35-32.35,5.75-36.79,11.75C71.75,335.09,89.23,424.82,94.59,444,95.23,446.31,116,457.36,128.76,441.88Z"/><path class="cls-1" d="M75.8,361.28c-.83-4.62-1.64-9.23-2.42-13.86-.38-2.31-.76-4.63-1.11-7-.17-1.16-.34-2.33-.49-3.51-.07-.59-.15-1.18-.2-1.79,0-.31,0-.6-.06-1a2,2,0,0,1,.07-.78c0-.14.11-.24.08-.39l.19-.34.87-1.16.79-1c.52-.68,1.08-1.34,1.63-2a40.1,40.1,0,0,1,3.64-3.74,28.44,28.44,0,0,1,8.91-5.55l1.09-.4a6.15,6.15,0,0,1,1.11-.33l2.26-.54c.77-.11,1.54-.17,2.3-.27a11.32,11.32,0,0,1,1.16-.09h1.15c.77,0,1.54,0,2.3.07l2.28.32c.38.06.76.09,1.13.17l1.1.29,2.21.58c.65.16,1.25.45,1.88.67l2,.75.77.3.19.07c.07,0,.14,0,.14.13l.11.41.36,1.33.49,1.88,1.93,7.53q1.89,7.53,3.7,15.08,3.6,15.12,6.78,30.33c1.86,9,3.66,18.07,5.15,27.08.94,5.79,1.81,11.61,2.32,17.5.25,2.94.41,5.89.38,8.87a41.88,41.88,0,0,1-.27,4.47,19.69,19.69,0,0,1-.95,4.48c-.69,1.87-1.57,2.46-1.67,2.25s.24-1.1.41-2.6c.44-3,.11-8.52-.37-15.16-.41-5.88-1.19-11.78-2.08-17.66S125.09,395,124,389.09c-2.23-11.73-4.75-23.45-7.38-35.2-1.58-7-3.33-14.16-5.18-21.31-.47-1.79-.93-3.58-1.4-5.37l-.72-2.68-.36-1.34-.11-.44c0-.06,0-.17-.11-.17l-2.17-.82c-.42-.15-.83-.33-1.27-.45L104,321l-1.3-.34a8.75,8.75,0,0,0-1.31-.28L98.74,320c-.62-.05-1.24,0-1.86-.06A12.81,12.81,0,0,0,95,320a22.5,22.5,0,0,0-3.65.55,23,23,0,0,0-3.53,1.11c-.58.23-1.12.54-1.68.8-.27.14-.56.27-.83.42l-.79.49a30.63,30.63,0,0,0-3.06,2.15c-.94.83-1.89,1.65-2.76,2.57-.45.43-.86.92-1.29,1.39s-.83.95-1.23,1.44-.8,1-1.19,1.5l-1.08,1.43a.32.32,0,0,0-.08.2c0,.08,0,.11,0,.32s.06.69.09,1l.27,2.15c.19,1.44.41,2.89.64,4.33.45,2.89.94,5.77,1.43,8.66q2.56,14.73,5.4,29.43c2.85,14.84,5.78,29.73,9,44.38q1.08,4.94,2.24,9.79c.77,3.21,1.59,6.5,2.46,9.56a1,1,0,0,0,.31.4c.16.16.4.33.61.5a15.2,15.2,0,0,0,1.47.91,26.26,26.26,0,0,0,3.19,1.46,29.94,29.94,0,0,0,6.83,1.75,25.82,25.82,0,0,0,7.24-.05,22,22,0,0,0,8.83-3.47c1.76-1.15,2.74-1.9,3.66-2.41a12.68,12.68,0,0,1,1.22-.71c.49-.19.2.53-.88,1.95a18.79,18.79,0,0,1-6.46,5.08A24.94,24.94,0,0,1,107.08,451a32.67,32.67,0,0,1-7.15-1.89,27.83,27.83,0,0,1-3.42-1.6,15.81,15.81,0,0,1-1.66-1,8.64,8.64,0,0,1-.85-.71,3.79,3.79,0,0,1-.49-.56,7,7,0,0,1-.4-.77l-.61-2.25L91.93,440c-.35-1.44-.71-2.9-1.06-4.35-.7-2.91-1.37-5.84-2-8.77-1.31-5.87-2.56-11.79-3.79-17.72-3.29-15.88-6.38-31.87-9.32-47.86Z"/><path class="cls-1" d="M389.81,440.86c1.69-49.5,16.77-110.16,14.68-113.76-13.94-24-37.84-7.2-37.84-7.2S347.8,431,358.34,443.52C366.81,453.59,389.46,451,389.81,440.86Z"/><path class="cls-1" d="M359.6,356.67q1.31-9.27,2.74-18.51l1.47-9.24,1.64-9.79,1.08-.72.68-.41,1.31-.74c.89-.48,1.79-.91,2.71-1.32a38,38,0,0,1,5.69-2,28.32,28.32,0,0,1,9.28-.93,21.35,21.35,0,0,1,9,2.7,24.88,24.88,0,0,1,6.36,5.26c.43.53.9,1,1.3,1.58l1.2,1.66c.37.57.71,1.15,1.07,1.72l.27.44a2.79,2.79,0,0,1,.31.74,5.77,5.77,0,0,1,.13,1.26,33.13,33.13,0,0,1-.35,4.08c-.17,1.32-.37,2.62-.57,3.93-.42,2.6-.88,5.2-1.34,7.78-1.86,10.36-3.8,20.68-5.54,31-1.55,9.19-2.92,18.46-4,27.63-1.45,11.78-2.46,23.65-3.23,35.47-.22,3.69-.82,3.18-1.3,0a74.22,74.22,0,0,1-.16-15.85c2.1-24.29,6.28-48.28,10.89-72.31.68-3.59,1.35-7.23,2-10.89q.46-2.75.86-5.5a41.49,41.49,0,0,0,.52-5.42,4.73,4.73,0,0,0,0-.56.53.53,0,0,0-.1-.25l-.72-1.16c-.46-.79-1-1.5-1.55-2.24s-1.15-1.39-1.74-2.08a22.81,22.81,0,0,0-1.95-1.86A19.67,19.67,0,0,0,388,315.6a24.84,24.84,0,0,0-10.76.67,36,36,0,0,0-5.19,1.85c-.83.39-1.66.78-2.47,1.22-.41.22-.81.45-1.2.68l-.56.34-.23.15-1,6.14-1.06,6.59-2,13.19c-1.49,10-2.87,20.06-4.07,30.1-.9,7.62-1.73,15.26-2.37,22.9s-1.13,15.28-1.17,22.86c0,2.95.06,5.88.26,8.79a43.92,43.92,0,0,0,1.31,8.5,8.77,8.77,0,0,0,1.75,3.55,14,14,0,0,0,3.16,2.62,20.81,20.81,0,0,0,7.85,2.76,26.44,26.44,0,0,0,7.38.09,18.18,18.18,0,0,0,8.9-3.27,9.61,9.61,0,0,0,1.76-1.69,6.5,6.5,0,0,0,.56-.73,6.11,6.11,0,0,0,.46-.66c.28-.39.47-1,.65-1.25s.26-.16.33.22a4.35,4.35,0,0,1-.16,2,7.47,7.47,0,0,1-1.87,3.2,13.08,13.08,0,0,1-4.18,2.81,24,24,0,0,1-8.07,1.89,28.67,28.67,0,0,1-8.34-.67,21.45,21.45,0,0,1-7.84-3.56,19.32,19.32,0,0,1-1.7-1.44l-.77-.83a10.63,10.63,0,0,1-.76-1,15.38,15.38,0,0,1-1.64-4.24,50.64,50.64,0,0,1-1.15-8.39c-.19-2.79-.25-5.57-.24-8.35,0-5.57.28-11.13.64-16.68,1.13-16.48,3.15-32.92,5.39-49.29Z"/><path class="cls-1" d="M79.78,382c-8.18,0-6.91-11-1-7.74Z"/><path class="cls-1" d="M77.23,375.26a1.25,1.25,0,0,0-1.63.36,2.65,2.65,0,0,0-.3.79,3.74,3.74,0,0,0,.71,3.38,3,3,0,0,0,1.4.91c.7.24,1.44.19,2.2.46.24.09.23.71,0,1.31s-.78,1.16-1.4,1.07a6.22,6.22,0,0,1-3.09-1.31,5.33,5.33,0,0,1-1.87-2.85,6.93,6.93,0,0,1-.09-4,4.15,4.15,0,0,1,1.4-1.94,3.39,3.39,0,0,1,2.33-.65,5,5,0,0,1,.69.12,4.36,4.36,0,0,1,.7.23c.25.11.5.22.74.35l.36.19s.14,0,.15.11l0,.21c0,.39.1.85.13,1.19l.07.84c.06.55.12,1.11.21,1.65.13.86.41,1.67.62,2.5a5.62,5.62,0,0,1,.15.55c.13.69,0,.93-.62,1.16-.14.05-.28.12-.42.16a.93.93,0,0,1-1.13-.6,17.11,17.11,0,0,1-1.1-4.63l-.11-.89,0-.45c0-.1,0,0,0-.06s0,0,0,0v0s0,0-.09,0Z"/><path class="cls-1" d="M398.89,367.8c6.8,2.26,6.87-2.24,6.8-5.1s-5.49-1.56-5.49-1.56Z"/><path class="cls-1" d="M402.86,359.34a6.27,6.27,0,0,1,2.37.6,3.22,3.22,0,0,1,1.21,1,3.38,3.38,0,0,1,.36.74,4.34,4.34,0,0,1,.13.79c0,.36,0,.5,0,.77a5.83,5.83,0,0,1,0,.72,8.65,8.65,0,0,1-.64,2.67,4.05,4.05,0,0,1-2.13,2.18,6,6,0,0,1-2.48.43,5.21,5.21,0,0,1-2.86-.6c-.51-.32.94-2.3,1.77-2.11a8.47,8.47,0,0,0,2.07.2,1.87,1.87,0,0,0,1.34-.59,4.69,4.69,0,0,0,.59-2.74l0-.44v-.35a.56.56,0,0,0-.08-.34,1.59,1.59,0,0,0-1-.5,7.63,7.63,0,0,0-2-.09c-.87-.14-.75.52-1,1.82a26.69,26.69,0,0,0-.22,2.67c0,.2,0,.4,0,.59-.1.73-.3.92-1,.95a3.39,3.39,0,0,1-.45,0,.94.94,0,0,1-.88-.95,18.7,18.7,0,0,1,.47-5c.11-.62.24-1.22.4-1.79,0-.39.43-.31.69-.41l.89-.17c.3-.06.58-.08.87-.12l.54,0c.36,0,.72,0,1.09,0Z"/><path class="cls-1" d="M227.43,134.34c1-.63,1.41-.6,1.77-.42.58.29,1.19.55,1.82.79l.95.36c.32.12.67.25.92.32l1.7.49.93.32a6.06,6.06,0,0,1,1.44.72l.29.26a1.51,1.51,0,0,1,.42.92,1.34,1.34,0,0,1-.38,1,2.65,2.65,0,0,1-1,.66,6.78,6.78,0,0,1-1.14.38,19.75,19.75,0,0,1-3.09.52c-.63.06-1.27.09-1.92.11a10.88,10.88,0,0,1-2,0,.85.85,0,0,1-.4-.1c-.39-.27-.16-.74.18-1,.07-.06.15-.18.2-.17.43.09.83-.53,1.26-.49a10,10,0,0,0,2.53-.3,8.44,8.44,0,0,1,1-.12c.43,0,.87,0,1.3-.08l.36-.07.36-.09a.6.6,0,0,0,.18-.07.13.13,0,0,0,.07-.1s-.05-.07-.1-.1a1,1,0,0,0-.21-.1c-.31-.1-.76-.22-1.18-.33s-.88-.22-1.37-.37-.91-.34-1.35-.51a14.87,14.87,0,0,1-3.07-1.61A3.19,3.19,0,0,1,227.43,134.34Z"/><path class="cls-1" d="M258.8,133.46c.43,1.09.16,1.56-.2,1.82a13.76,13.76,0,0,1-1.89,1.17c-.33.17-.66.32-1,.47s-.63.29-1.05.43c-.64.21-1.22.32-1.79.45-.28.06-.58.14-.81.21l-.11,0h0c-.06,0-.08.11,0,.13l.08,0,.27.07a19.47,19.47,0,0,0,2.8.45,15,15,0,0,0,1.76.1,6,6,0,0,0,1.54-.19c.08,0,.13-.07.18,0a1.64,1.64,0,0,1,.41.91c0,.1,0,.25,0,.26-.45.15-.78.82-1.31.83-.94,0-1.87.12-2.8.1a6.74,6.74,0,0,1-1.1-.13c-.47-.11-.92-.27-1.39-.4l-.4-.11-.31-.09-.64-.21a3.12,3.12,0,0,1-1.33-.86,1.27,1.27,0,0,1-.28-.81,1.56,1.56,0,0,1,.43-.88,4.45,4.45,0,0,1,1.66-.9c.47-.16.88-.27,1.34-.4s.9-.23,1.29-.35.81-.31,1.2-.46a16,16,0,0,0,2.76-1.44A7.39,7.39,0,0,1,258.8,133.46Z"/><path class="cls-1" d="M244.14,141.38a1.79,1.79,0,0,0-1.38-1.15,1.3,1.3,0,0,0-.61.07c-.62.09-1.24,1.15-1.44,2.27a5.73,5.73,0,0,0-.09,1.55,9.71,9.71,0,0,1,.1,2c-.07.44-1.95.14-2-.75a8.37,8.37,0,0,1,.78-4.68,6.44,6.44,0,0,1,.93-1.38,2.84,2.84,0,0,1,1.62-.89,3.43,3.43,0,0,1,1,0,3.34,3.34,0,0,1,.9.24,3.73,3.73,0,0,1,1.43,1.12,6.11,6.11,0,0,1,.91,1.8,16.46,16.46,0,0,1,.6,2.78c.13.71.31,1.4.44,2.1,0,.16.07.31.08.47.06.58-.1.77-.62.89a2.33,2.33,0,0,1-.36.08.79.79,0,0,1-.87-.58,33.1,33.1,0,0,1-.68-3.58,7.91,7.91,0,0,0-.71-2.35Z"/><path class="cls-1" d="M225.08,129.7c.22-1.11.46-1.34.71-1.38l2.48-.48c.7-.13,1.42-.18,2.12-.37a13.88,13.88,0,0,0,3.38-1.38,7.07,7.07,0,0,0,.9-.56,8,8,0,0,0,.74-.68s.06-.11.13-.11.56.37.72.73c0,.08.11.21.08.23-.2.19,0,.87-.25,1-.5.31-.9.78-1.4,1.12a2.11,2.11,0,0,1-.63.33c-.29.1-.59.16-.88.24a25.42,25.42,0,0,1-4,1.16,20.17,20.17,0,0,1-3.62.4A1.74,1.74,0,0,1,225.08,129.7Z"/><path class="cls-1" d="M249.72,127c1-.61,1.28-.62,1.49-.49a18.44,18.44,0,0,0,2.16,1.13,19.16,19.16,0,0,0,1.95.9,13.8,13.8,0,0,0,1.78.49,12.79,12.79,0,0,0,1.82.24,7.69,7.69,0,0,0,1.07,0c.33-.05.66-.08,1-.15.05,0,.1-.06.16,0a1.36,1.36,0,0,1,.25,1c0,.09,0,.23-.05.23-.27.07-.44.77-.78.78-.61,0-1.21.16-1.83.18a2.53,2.53,0,0,1-.72-.08c-.3-.07-.58-.22-.87-.3a23.16,23.16,0,0,1-4-1.3,13.74,13.74,0,0,1-2.23-1.25,6.93,6.93,0,0,1-1-.78A2.1,2.1,0,0,1,249.72,127Z"/><path class="cls-1" d="M242.94,170a4.84,4.84,0,0,0,2.69-2,7,7,0,0,0,.64-1.17,4.4,4.4,0,0,0,.49-2.17,2.59,2.59,0,0,0-.29-1,4.19,4.19,0,0,0-.71-.92,3.14,3.14,0,0,0-1.78-.9,2.84,2.84,0,0,0-2.16.75c-.21.15-.57-.07-.71-.56a1.47,1.47,0,0,1,.8-1.72,4.37,4.37,0,0,1,4.11.27,5.07,5.07,0,0,1,1.45,1.31,5.22,5.22,0,0,1,.52.8,3.72,3.72,0,0,1,.37,1,6.41,6.41,0,0,1-.67,4.42,7.94,7.94,0,0,1-3.32,3.3,4,4,0,0,1-1.53.39,2.6,2.6,0,0,1-1.63-.46,3.76,3.76,0,0,1-1.32-1.91,8,8,0,0,1-.27-1,5.5,5.5,0,0,1-.14-1.08,15.61,15.61,0,0,1,.2-3.21,6.19,6.19,0,0,1,.14-.7c.26-.86.58-1.13,1.1-1a2,2,0,0,1,.35.08c.35.18.46.55.37,1.06-.13.8-.24,1.67-.3,2.51a10.25,10.25,0,0,0,0,1.23c0,.19,0,.37.05.52l.13.58a3.33,3.33,0,0,0,.61,1.31.81.81,0,0,0,.83.24Z"/><path class="cls-1" d="M172.67,101.63c-4.21-6.43,3.35-14.17,9.13-16.31,1.87-.69.2-2-1.24-1.52-6.85,2.53-15.5,11.51-10.56,19.06.65,1,3.44,0,2.67-1.23Z"/><path class="cls-1" d="M181.05,101.54c-1-3.15,1.1-7.79,4.39-8.81,1.68-.51,1.41-1.71-.31-1.18-4.32,1.32-8.42,6-7,10.77.26.84,3.15,0,2.9-.78Z"/><path class="cls-1" d="M304.45,72.36c2.3-.66,4.61,1.79,5.78,3.44a15.91,15.91,0,0,1,2.45,5.36c.15.61,3.05-.12,2.9-.78-1.28-5.27-5.42-10.6-11.36-8.88-1.66.47-1.47,1.35.23.86Z"/><path class="cls-1" d="M306.73,65C315,63.14,319.85,70.83,321,77.93c.2,1.25,3.11.53,2.89-.77-1.5-9-8.08-16.18-17.69-14-1.81.4-1.3,2.25.49,1.85Z"/><path class="cls-1" d="M429.81,302.47c5,.61,8.05,6.1,8.66,10.69.15,1.18,3.06.49,2.9-.78-.74-5.6-4.62-11.12-10.51-11.83-1.3-.16-3,1.68-1.05,1.92Z"/><path class="cls-1" d="M432.81,297.43c8.48-2.46,13.23,4.2,12.8,12.09-.08,1.48,2.86,1.05,2.93-.23.24-4.37-.65-9.06-4.11-12s-8-3-12.14-1.77c-1.77.52-1.27,2.46.52,1.95Z"/><path class="cls-1" d="M188,343.67c-5.46,3.1-11.88-4.85-11.88-4.85l-2.28,8.28s4.88,6.46,10.39,3.93Z"/><path class="cls-1" d="M175.52,350.84a17.05,17.05,0,0,1-1.33-1.21,16.73,16.73,0,0,1-1.43-1.64,3.69,3.69,0,0,1-.41-.59l.18-.71.34-1.13.49-1.56c.24-.75.4-1.53.65-2.29l.78-2.54.42-1.37.2-.67a1.8,1.8,0,0,1,.22-.56l1.44,1.79c.47.58.93,1.05,1.39,1.54l.5.5.44.39a10.69,10.69,0,0,0,.89.75,9.22,9.22,0,0,0,3,1.6,7,7,0,0,0,4-.11c.41-.08.73.45.59,1.17a2.4,2.4,0,0,1-.62,1.14,2.53,2.53,0,0,1-1.46.65,9.17,9.17,0,0,1-5.51-1.53,15.55,15.55,0,0,1-2.12-1.61c-.31-.3-.64-.59-.93-.91l-.1-.12v0l0-.06-.08-.16a3.79,3.79,0,0,0-.31-.47c0-.11,0,0-.06,0l-.06.16-.09.33-.45,1.58-1,3.14-.05.18,0,.07-.06.16c-.08.12.06.19.11.29l.13.16.25.29c.18.18.35.37.54.55a10.56,10.56,0,0,0,3,2.18,6.21,6.21,0,0,0,2.65.63c.84,0,2-.19,2.15-.62l.46-1,.46-1.07.9-2.16c.14-.32.25-.64.4-1,.54-1.16.87-1.45,1.57-1.4a2.35,2.35,0,0,1,.47,0c.5.11.63.77.33,1.67a40.13,40.13,0,0,1-1.58,4l-.46,1-.56,1.14-.24.49c-.1.15-.12.38-.33.4l-1.06.39a5.92,5.92,0,0,1-1.36.35,8,8,0,0,1-4-.4,12,12,0,0,1-3.28-1.86Z"/><path class="cls-1" d="M300.58,347.1c-1.81,5.18-9.08,1.93-9.08,1.93l-2.38-7.69s8.92,4.38,10.32-.67Z"/><path class="cls-1" d="M292.44,344.14,292,344l-.22-.07,0,0-.12-.08-.36-.23-.05,0v.26a1,1,0,0,0,.07.23c0,.11,0,0,.14.49l.86,3.46,0,.17c0,.06,0,.12.08.14l.15.08.09.05.2.07a11.52,11.52,0,0,0,1.61.5,6,6,0,0,0,2.83,0,4,4,0,0,0,.77-.3,4.15,4.15,0,0,0,.62-.46l.28-.25c.08-.1.15-.2.24-.3a6,6,0,0,0,.49-.66c.22-.27.81-.09,1.21.5a2.14,2.14,0,0,1,.35,1.15,2.09,2.09,0,0,1-.63,1.36,5.67,5.67,0,0,1-2.52,1.39,8.08,8.08,0,0,1-2.57.16,11,11,0,0,1-2.33-.49c-.37-.11-.73-.26-1.08-.4l-.3-.13-.42-.19c-.29-.13-.56-.27-.82-.4a18,18,0,0,1-.52-1.8c-.11-.41-.23-.82-.35-1.24l-.84-2.75-.71-2.48-.34-1.2-.17-.59a2.83,2.83,0,0,1-.07-.28v-.17c1.42.69,2.84,1.44,4.05,1.89l.64.22.46.16.79.23a11.25,11.25,0,0,0,1.6.3,6,6,0,0,0,1.76,0l.39-.11a2.86,2.86,0,0,0,.51-.27,15.14,15.14,0,0,0,1.5-3.27l.14.37a.57.57,0,0,0,.1.17,1,1,0,0,0,.16.23c.07,0,.16,0,.19-.13s0-.11.06-.1l.07.34.14.68.32,1.36.35,1.45.18.76.13.51c.08.29.17.56.24.86.23,1.08.13,1.45-.46,1.8-.13.07-.26.17-.4.23-.47.19-1-.19-1.24-1-.19-.52-.37-1.06-.53-1.61,0-.11-.09-.32-.11-.36l-.05,0-.06,0c-.08,0-.09.1-.09.1h0l-.13.06,0,0-.11,0-.24.08a4.27,4.27,0,0,1-.48.13,7.6,7.6,0,0,1-1.8.17,13.73,13.73,0,0,1-3.17-.52Z"/></g></svg>