<svg id="Layer_1" data-name="Layer 1" xmlns="http://www.w3.org/2000/svg" width="520" height="520" viewBox="0 0 520 520"><defs><style>.cls-1{fill:#232020;}.cls-2{fill:#221f1f;}.cls-3{fill:#fff;}</style></defs><title>Notioly v2</title><g id="_53.Love" data-name="53.Love"><path class="cls-1" d="M272.77,117.19l.46,25.49c0,.29,2.65.24,2.63-.05l-.45-25.49A5.14,5.14,0,0,0,272.77,117.19Z"/><path class="cls-1" d="M273.72,168.38l1.1,59.46c0,.68,2.67.63,2.64-.05l-1.1-59.46C276.35,167.79,273.7,167.84,273.72,168.38Z"/><path class="cls-2" d="M281.69,15.61c-5.39,1.19-4.31-5.13-2.84-5.13C282.2,10.09,283.32,15.85,281.69,15.61Z"/><path class="cls-2" d="M336.79,103.72a41.63,41.63,0,0,1,8-.08c1,.12,1.93.17,2.89.29a50,50,0,0,1,9.75,2.8l2.09.83,2.05.87a24,24,0,0,1,5,2.71c.94.71-1.42,1.72-3.24.71a82.59,82.59,0,0,0-10.26-4.54,32.48,32.48,0,0,0-6.76-1.41l-1.89-.22-1.9-.09c-1.28-.1-2.54,0-3.82,0-.78,0-1.56.17-2.34.24l-1.17.14-1.15.25-1.75.37c-.58.12-1.14.33-1.71.49l-1.71.53-1.64.69a34.58,34.58,0,0,0-4.78,2.63c-.33.23-.64.47-1,.69-1.25.83-1.72,1-2.32.66a3.75,3.75,0,0,1-.4-.21c-.37-.28,0-.92.84-1.63a30.18,30.18,0,0,1,9.29-5,32.54,32.54,0,0,1,3.89-1.1l2-.42,2-.27Z"/><path class="cls-2" d="M383.94,98.4a29.35,29.35,0,0,1,5-1.21,11.87,11.87,0,0,1,1.87-.27,26.41,26.41,0,0,1,6.59.37c1,.14,1.92.33,2.87.51a10,10,0,0,1,3.55,1.2c.36.25,0,.7-.47,1.06a2.13,2.13,0,0,1-1.8.46A45.43,45.43,0,0,0,394.77,99a11.9,11.9,0,0,0-2.16-.09c-.73,0-1.46.15-2.19.2s-1.58.25-2.38.37-1.56.4-2.34.6a10.31,10.31,0,0,0-1.42.48l-1.39.55c-.71.28-1.36.68-2,1l-1,.54c-.32.21-.63.43-.93.65a17.46,17.46,0,0,0-2.61,2.31c-.18.19-.35.38-.53.55-.7.65-1,.74-1.57.46a3.2,3.2,0,0,1-.37-.19c-.38-.26-.32-.79.15-1.36a16.75,16.75,0,0,1,2.34-2.43,27.59,27.59,0,0,1,2.85-2l2.3-1.25c.81-.35,1.63-.66,2.44-1Z"/><path class="cls-2" d="M170.89,107.52c1,.35,2.06.67,3.08,1l3,1.24c.7.35,1.43.65,2.13,1l.93.48.88.56,1.76,1.12c1.16.75,2.21,1.67,3.32,2.48.94.78,1.85,1.61,2.8,2.37a17.23,17.23,0,0,1,1.72,1.59A14.38,14.38,0,0,1,192,121.2c.55.79-1.87,1.23-3,0-.54-.52-1-1.13-1.58-1.61s-1.13-1-1.68-1.52l-.82-.78-.89-.71c-.59-.48-1.18-1-1.76-1.48a27.55,27.55,0,0,0-4.87-2.81l-1.4-.68-1.44-.59-1.44-.59-1.49-.48a33.8,33.8,0,0,0-3.7-1c-.95-.24-1.92-.37-2.88-.56s-1.93-.24-2.89-.32a31.46,31.46,0,0,0-4.46.16l-1,.1c-1.2.11-1.58,0-1.91-.53a3.48,3.48,0,0,1-.22-.36c-.19-.42.3-.86,1.22-1a26.44,26.44,0,0,1,8.62-.2c1.09.11,2.16.34,3.24.51s2.14.5,3.2.77Z"/><path class="cls-2" d="M270.39,115.41a45.39,45.39,0,0,0-6.63,4.19c-1.05.79-2.07,1.63-3,2.51-.49.44-1,.89-1.43,1.35l-.35.35-.46.47-1.2,1.37-2.69-1.83c-.91-.61-1.79-1.28-2.75-1.81L249,120.45a21.53,21.53,0,0,0-2.62-1.23c-.89-.36-1.75-.8-2.66-1.1a41.4,41.4,0,0,0-5.57-1.54,44.15,44.15,0,0,0-5.73-.81,49,49,0,0,0-5.81.1l-1.29.09c-.42,0-.85.13-1.28.19-.85.14-1.7.25-2.55.43l-2.51.61c-.84.19-1.65.49-2.47.73a94.36,94.36,0,0,0-12.16,5.23c-1.25.6-1.36,0-.58-1a13.24,13.24,0,0,1,4.88-3.63A53.84,53.84,0,0,1,222,114.29a41.86,41.86,0,0,1,14.08-.15,46,46,0,0,1,16.17,5.68,22.37,22.37,0,0,1,2.75,1.74l2,1.35.53-.54c.36-.37.73-.74,1.11-1.09.75-.71,1.53-1.39,2.32-2.06a49.88,49.88,0,0,1,5-3.64,42.45,42.45,0,0,1,10.52-4.87,34.85,34.85,0,0,1,17.41-.69A42.81,42.81,0,0,1,306.26,115a28.22,28.22,0,0,1,2.51,1.55c.75.53,1.37,1,1.88,1.36a13.15,13.15,0,0,1,1.16,1.08,3.36,3.36,0,0,1,1,1.52,2.83,2.83,0,0,1,.14.62c0,.56-1.39-.1-3.49-1.63a53.28,53.28,0,0,0-10.29-5.61c-.9-.41-1.87-.65-2.8-1s-1.91-.51-2.87-.77a33.39,33.39,0,0,0-5.9-.73,34.66,34.66,0,0,0-17.16,4.09Z"/><path class="cls-2" d="M334.49,101.49a44.49,44.49,0,0,1,9.13-.69c1.11,0,2.22,0,3.33.13a51.61,51.61,0,0,1,11.41,2.46c1.64.54,3.27,1.13,4.85,1.81a22.16,22.16,0,0,1,5.78,3.26c.53.45.16.78-.58.84a5.37,5.37,0,0,1-2.86-.72,55.38,55.38,0,0,0-12-4.76,39.59,39.59,0,0,0-8-1.14,44.94,44.94,0,0,0-8.83.3,40.47,40.47,0,0,0-5.33,1.15,28.7,28.7,0,0,0-7.46,3.43,22.53,22.53,0,0,0-4.66,4.15c-.32.32-.56.71-.86,1.05a15.84,15.84,0,0,1-1.21,1.35,1.31,1.31,0,0,1-.89.37,2.06,2.06,0,0,1-.43,0c-.42-.08-.25-.84.46-2a23.12,23.12,0,0,1,4-4.56,28.08,28.08,0,0,1,5.22-3.48,34.46,34.46,0,0,1,8.84-3Z"/><path class="cls-2" d="M363.36,272.68s0-.05.06-.07h.07l0,.05a1.27,1.27,0,0,1,0,.18.66.66,0,0,1,0,.14v.27a.13.13,0,0,1,0,.06,1.27,1.27,0,0,0,0,.2.08.08,0,0,0,0,0,1.55,1.55,0,0,1,0,.22,1.16,1.16,0,0,0,0,.18,0,0,0,0,1,0,0s0,0,0,0l0,.08,0,0s0,0,0,0h-.05a.67.67,0,0,1-.06-.17,2.32,2.32,0,0,0,0-.24.06.06,0,0,1,0,0l0-.18s0-.08,0-.11,0,0,0,0,0-.12,0-.19v-.11s0,0,0,0a1.62,1.62,0,0,0,0-.22s0-.1,0-.12Z"/><path class="cls-2" d="M362.72,273.45s0,0-.06-.06v-.07l0,0,.19,0h.9l.17,0h0s0,0,.05,0h.07l0,0s0,0,0,0,0,0,0,0h0l-.16.06-.23,0h0a1.09,1.09,0,0,0-.18,0s-.07,0-.1,0h-.55l-.11,0Z"/><path class="cls-2" d="M362.82,273s0,0,0-.09,0-.05.05-.05h.06l.18.12a.63.63,0,0,1,.12.1l.24.22,0,.05a1.45,1.45,0,0,0,.17.18l0,0s.18.16.2.18l.13.17,0,0a.09.09,0,0,0,0,.06l.06.07a.07.07,0,0,1,0,.05s0,0,0,0,0,0,0,0h0a.75.75,0,0,1-.18-.09l-.22-.18,0,0-.17-.14a.34.34,0,0,1-.08-.09l0,0-.15-.16-.08-.07v0l0,0-.19-.18a.81.81,0,0,0-.09-.1S362.84,273,362.82,273Z"/><path class="cls-2" d="M362.92,274.15s0,0-.09,0l-.05-.05v-.05l.11-.18.09-.12.19-.21s0,0,.05-.05a.81.81,0,0,0,.16-.16l0,0a.9.9,0,0,1,.16-.19l.15-.12h0l.06,0,.06-.05,0,0s0,0,0,0,0,0,0,0h0a.83.83,0,0,1-.07.18,1.28,1.28,0,0,0-.16.21l0,0-.12.16s-.05.07-.09.08l0,0-.13.14-.07.08h0a2.32,2.32,0,0,0-.16.18s-.09.07-.1.09Z"/><path class="cls-2" d="M275,310.69s0,0,.06-.06h.07s0,0,0,.05a1.27,1.27,0,0,1,0,.18.66.66,0,0,1,0,.14v.33a.44.44,0,0,0,0,.2v0a1.77,1.77,0,0,1,0,.23c0,.06,0,.12,0,.18s0,0,0,0a.06.06,0,0,0,0,.05s0,.05,0,.08l0,0H275S275,312,275,312s0-.22,0-.24v0s0-.18,0-.18,0-.08,0-.11v0a1.2,1.2,0,0,1,0-.19.27.27,0,0,0,0-.09v0a1.62,1.62,0,0,0,0-.22s0-.1,0-.12S275,310.7,275,310.69Z"/><path class="cls-2" d="M274.35,311.47s-.05,0-.06-.06a.09.09,0,0,1,0-.07l0,0,.18,0h.9l.18,0h0s0,0,.05,0h.08l0,0s0,0,0,0,0,0,0,0h0l-.16.06-.24,0h0l-.18,0a.17.17,0,0,1-.1,0h-.54l-.12,0Z"/><path class="cls-2" d="M274.45,311s0,0,0-.09l.05-.05h.06l.19.12.12.1a2.39,2.39,0,0,0,.23.22l.05.05a.9.9,0,0,0,.16.18l0,0a.8.8,0,0,1,.19.18l.13.17,0,0s0,0,0,.06l.06.07s0,0,0,.05l0,0s0,0,0,0h0a.51.51,0,0,1-.18-.09l-.23-.18s0,0,0,0l-.17-.14s-.07-.05-.09-.09v0a.75.75,0,0,1-.15-.16l-.08-.07,0,0v0l-.19-.18s-.07-.09-.09-.1S274.46,311,274.45,311Z"/><path class="cls-2" d="M274.54,312.17s0,0-.09,0l-.05-.05a.13.13,0,0,1,0-.06l.11-.17.08-.12.2-.22,0,0a.81.81,0,0,0,.16-.16l0,0a1.35,1.35,0,0,1,.16-.19l.15-.12h0a.07.07,0,0,0,.05,0l.06-.05,0,0,0,0s0,0,0,0h0s-.07.16-.08.18l-.16.21,0,0-.12.16a.34.34,0,0,1-.09.08v0l-.14.14-.07.08h0l-.16.18s-.09.07-.1.09Z"/><path class="cls-2" d="M343.37,249.09s0-.05.06-.07h.07s0,0,0,0a1.49,1.49,0,0,1,0,.19.53.53,0,0,1,0,.13v.33a.45.45,0,0,0,0,.2v0a1.62,1.62,0,0,1,0,.22c0,.06,0,.12,0,.18s0,0,0,0a.06.06,0,0,0,0,.05s0,.06,0,.08l0,0h-.09s-.05-.15-.05-.17,0-.21,0-.24,0,0,0,0l0-.18s0-.07,0-.11v0a1.08,1.08,0,0,1,0-.18.33.33,0,0,0,0-.1h0v0a1.61,1.61,0,0,0,0-.22s0-.1,0-.12S343.38,249.1,343.37,249.09Z"/><path class="cls-2" d="M342.74,249.87s-.05,0-.06-.06,0-.07,0-.07a.08.08,0,0,1,0,0l.18,0h.9l.18,0h0a.06.06,0,0,0,.05,0h.08l0,0s0,0,0,0a0,0,0,0,0,0,0h0l-.16.06-.24,0h-.22a.17.17,0,0,1-.1,0h-.54l-.12,0S342.75,249.86,342.74,249.87Z"/><path class="cls-2" d="M342.84,249.42s0,0,0-.09,0-.05.05-.05h.06l.19.13a.53.53,0,0,1,.12.1l.23.21,0,.05a.69.69,0,0,0,.16.18.05.05,0,0,0,0,0,1.62,1.62,0,0,1,.19.18l.13.17s0,0,0,0a.09.09,0,0,0,0,0l.06.07,0,.05a0,0,0,0,1,0,0s0,0,0,0h0l-.18-.09-.23-.19s0,0,0,0l-.17-.14s-.07-.05-.09-.09v0c-.06,0-.1-.1-.15-.15a.6.6,0,0,1-.08-.08l0,0v0c-.07-.05-.12-.12-.19-.17a1.06,1.06,0,0,0-.09-.11S342.85,249.43,342.84,249.42Z"/><path class="cls-2" d="M342.93,250.56s0,0-.09,0l0,0a.07.07,0,0,1,0-.05l.11-.18a.44.44,0,0,1,.08-.11l.19-.22s0,0,.05-.05a1.14,1.14,0,0,0,.16-.15.05.05,0,0,0,0,0,.9.9,0,0,1,.16-.18l.15-.13h0a.06.06,0,0,0,.05,0l.06-.06h.05s0,0,0,0,0,0,0,0h0s-.07.16-.08.17l-.16.21,0,0a1,1,0,0,0-.12.16s0,.06-.09.07,0,0,0,0l-.14.14-.07.08h0s0,0,0,0-.11.11-.16.18a.7.7,0,0,0-.1.08Z"/><path class="cls-2" d="M344.89,296.53s0,0,.08,0l0,.06s0,0,0,.05l-.14.13-.11.08-.22.15-.06,0-.18.09,0,0a1.27,1.27,0,0,1-.19.13.85.85,0,0,0-.17.06h0a0,0,0,0,0-.05,0l-.07,0h-.05s0,0,0,0l0,0h0l.11-.14.2-.15h0l.15-.11a.19.19,0,0,1,.1-.05h0a1.29,1.29,0,0,1,.16-.09l.08,0h0a2,2,0,0,0,.19-.12s.09,0,.1,0Z"/><path class="cls-2" d="M343.89,296.41s0,0,0-.08l.06,0,0,0,.12.13a.76.76,0,0,1,.08.11,1.64,1.64,0,0,1,.14.22l0,.05a.59.59,0,0,0,.1.17l0,0a1.13,1.13,0,0,1,.12.18c0,.06.05.11.07.17s0,0,0,0a.11.11,0,0,0,0,.06l0,.07v0l0,0,0,0h0s-.13-.09-.13-.11-.13-.17-.15-.18a.06.06,0,0,1,0,0,1.34,1.34,0,0,1-.11-.14.31.31,0,0,1,0-.1,0,0,0,0,0,0,0l-.09-.16a.35.35,0,0,0-.05-.08h0v0a1.13,1.13,0,0,0-.12-.18s0-.09,0-.11S343.9,296.42,343.89,296.41Z"/><path class="cls-2" d="M344.31,296.26s0-.05.08-.06l.07,0s0,0,0,0,0,.17,0,.23a.77.77,0,0,1,0,.15l-.06.31a.19.19,0,0,1,0,.07.86.86,0,0,0-.05.23.08.08,0,0,0,0,0,1.26,1.26,0,0,1,0,.27c0,.06,0,.13-.08.2s0,0,0,0,0,0,0,.06l0,.09,0,0s0,0,0,0H344s0-.18,0-.2,0-.25,0-.28,0,0,0-.05l0-.21a.42.42,0,0,1,0-.12,0,0,0,0,0,0,0,1.6,1.6,0,0,1,0-.21s0-.07,0-.11h0a0,0,0,0,1,0,0,2.17,2.17,0,0,0,0-.25.58.58,0,0,0,0-.14S344.32,296.27,344.31,296.26Z"/><path class="cls-2" d="M343.41,297s-.05,0-.06-.07,0-.06,0-.07l.05,0h.21l.14,0,.29,0,.06,0,.22.05h0a1,1,0,0,1,.24,0l.19.07h0a.07.07,0,0,0,.06,0l.08,0,0,0s0,0,0,0,0,0,0,0h0l-.18,0-.27,0h-.24a.3.3,0,0,1-.11,0h0l-.2,0-.1,0h0l-.23,0-.13,0Z"/><path class="cls-2" d="M249.77,306.35s0,0,.09,0,0,.05,0,.06,0,0,0,.06a.76.76,0,0,0-.14.13l-.11.08-.23.14-.05,0a.64.64,0,0,0-.18.1l0,0a1.27,1.27,0,0,1-.19.13l-.17.07h0l-.06,0-.07,0h0s0,0,0,0l0,0h0a1.27,1.27,0,0,1,.11-.13l.19-.15,0,0,.15-.11a.26.26,0,0,1,.09-.05h0l.16-.09.08,0h0l.18-.12s.1,0,.11-.05Z"/><path class="cls-2" d="M248.77,306.23s0-.05,0-.09l.06,0h.05l.13.14.08.1.14.22,0,.05a1,1,0,0,0,.09.18l0,0a.88.88,0,0,1,.12.19l.06.16a0,0,0,0,1,0,0s0,0,0,.05a.11.11,0,0,1,0,.07,0,0,0,0,1,0,0s0,0,0,0,0,0,0,0h0s-.13-.09-.14-.1l-.14-.19,0,0a1.43,1.43,0,0,0-.11-.15s0-.05,0-.09,0,0,0,0l-.09-.15a.22.22,0,0,0,0-.08v0s0,0,0,0a1.88,1.88,0,0,0-.12-.18s0-.09-.05-.1S248.78,306.23,248.77,306.23Z"/><path class="cls-2" d="M249.2,306.08s0-.05.08-.06.06,0,.06,0l0,.06s0,.17,0,.22a.77.77,0,0,1,0,.15l-.06.31a.14.14,0,0,1,0,.07,2.1,2.1,0,0,0-.06.24v0a1.27,1.27,0,0,1,0,.26l-.08.2a0,0,0,0,1,0,0,.07.07,0,0,0,0,.06l0,.08,0,0h0s0,0,0,0h0a1.36,1.36,0,0,1,0-.21s0-.25,0-.28l0,0s0-.21,0-.22a.56.56,0,0,1,0-.12v0a1.6,1.6,0,0,1,0-.21s0-.08,0-.11v0a0,0,0,0,0,0,0,2.38,2.38,0,0,0,.05-.26s0-.11,0-.13Z"/><path class="cls-2" d="M248.29,306.76s0,0,0-.07,0-.06,0-.06l.05,0h.35l.29,0,.06,0a.79.79,0,0,0,.22.05h0a1.05,1.05,0,0,1,.24,0l.19.07h0s0,0,.06,0l.08,0,0,0s0,0,0,0,0,0,0,0h0l-.19,0-.26,0h0l-.2,0a.35.35,0,0,1-.11,0h0a.71.71,0,0,1-.2,0h-.14l-.24,0-.12,0Z"/><path class="cls-2" d="M363.58,256.15s0,0,.08,0l0,.06s0,0,0,0-.11.1-.14.13l-.11.08-.22.15-.06,0-.18.1s0,0,0,0a.76.76,0,0,1-.19.12l-.17.07h0s0,0-.05,0a.11.11,0,0,1-.07,0,0,0,0,0,1-.05,0s0,0,0,0l0,0h0l.11-.14.2-.15h0l.15-.11a.19.19,0,0,1,.1-.05h0l.15-.09.08,0h0a2,2,0,0,0,.19-.12s.09,0,.11,0S363.57,256.16,363.58,256.15Z"/><path class="cls-2" d="M362.58,256s0,0,0-.08l.06,0,0,0s.09.1.13.13l.07.11.15.22s0,0,0,.05a.59.59,0,0,0,.1.17l0,0a.71.71,0,0,1,.12.18c0,.06.05.11.07.17v0a.06.06,0,0,0,0,.06l0,.07v0l0,0,0,0h0a1.09,1.09,0,0,1-.13-.11,2,2,0,0,0-.15-.18s0,0,0,0l-.11-.14a.31.31,0,0,1,0-.1,0,0,0,0,0,0,0l-.09-.16s0-.05,0-.08a0,0,0,0,1,0,0v0a1.13,1.13,0,0,0-.12-.18s0-.09,0-.11S362.59,256,362.58,256Z"/><path class="cls-2" d="M363,255.88s0,0,.07-.06l.07,0s0,0,0,0a2.2,2.2,0,0,1,0,.23.77.77,0,0,1,0,.15c0,.1,0,.21-.05.31a.19.19,0,0,0,0,.07.86.86,0,0,0-.06.23s0,0,0,0a2.56,2.56,0,0,1-.05.27,1.18,1.18,0,0,0-.07.2s0,0,0,0,0,0,0,.06a.32.32,0,0,1,0,.09l0,0s0,0,0,0h-.05s0-.18,0-.2,0-.26,0-.28,0,0,0-.05a1.52,1.52,0,0,0,0-.21.42.42,0,0,1,0-.12,0,0,0,0,0,0,0,1.6,1.6,0,0,1,0-.21s0-.07,0-.11h0v0c0-.08,0-.17.05-.25s0-.11,0-.14Z"/><path class="cls-2" d="M362.1,256.57s-.05,0-.06-.07,0-.06,0-.07l.05,0h.21l.14,0,.29,0,.06,0,.22,0h0a1,1,0,0,1,.24,0l.19.07h0s0,0,.05,0l.08,0,0,0s0,0,0,0,0,0,0,0h0l-.18,0-.27,0H363l-.11,0h0l-.2,0-.1,0h0l-.24,0-.13,0Z"/><path class="cls-2" d="M298.7,296.14s0,0,.06-.06h.07l0,0a1.49,1.49,0,0,1,0,.19.57.57,0,0,1,0,.13v.33a.5.5,0,0,0,0,.21s0,0,0,0a1.69,1.69,0,0,1,0,.23,1.16,1.16,0,0,0,0,.18v0a.07.07,0,0,0,0,.06s0,.05,0,.07l0,0h-.09l-.06-.16a2.5,2.5,0,0,0,0-.25v0l0-.19s0-.07,0-.11,0,0,0,0a1.08,1.08,0,0,1,0-.18.27.27,0,0,0,0-.09v0a1.77,1.77,0,0,0,0-.23s0-.09,0-.11S298.71,296.15,298.7,296.14Z"/><path class="cls-2" d="M298.07,296.92s-.05,0-.07-.06,0-.06,0-.07,0,0,0,0l.18,0h.45a.44.44,0,0,0,.2,0h0a.81.81,0,0,1,.22,0l.18,0h0a.06.06,0,0,0,.05,0h.08l0,0s0,0,0,0,0,0,0,0,0,0,0,0l-.16.05-.23,0h0l-.18,0s-.07,0-.1,0h-.2a.27.27,0,0,0-.09,0h-.25l-.12,0S298.07,296.91,298.07,296.92Z"/><path class="cls-2" d="M298.17,296.48s0-.05,0-.1l.05-.05h.06l.19.13.12.1.23.21.05.06a.85.85,0,0,0,.16.17l0,0a1.62,1.62,0,0,1,.19.18l.13.17s0,0,0,0,0,0,0,.06l.06.07,0,0s0,0,0,0,0,0,0,0h0l-.18-.09s-.2-.17-.23-.18l0,0-.16-.13s-.07-.06-.09-.1,0,0,0,0l-.16-.15-.08-.08h0a0,0,0,0,0,0,0c-.07-.06-.12-.13-.19-.18a1.06,1.06,0,0,1-.09-.11S298.18,296.48,298.17,296.48Z"/><path class="cls-2" d="M298.26,297.61s0,0-.09,0l-.05,0a.13.13,0,0,1,0-.06s.08-.13.1-.18l.09-.11c.07-.07.13-.15.19-.22l.05,0,.16-.16s0,0,0,0a.74.74,0,0,1,.16-.19l.15-.12s0,0,0,0,0,0,.05,0l.06-.06h.05l0,0,0,0h0s-.07.16-.08.17l-.16.21,0,0a1,1,0,0,0-.12.16.34.34,0,0,1-.09.08h0l-.14.15a.46.46,0,0,0-.07.07h0l0,0c-.05.06-.11.11-.16.18l-.1.08Z"/><path class="cls-2" d="M318.75,268.51s0-.05.06-.06h.07l0,0s0,.14,0,.19a.57.57,0,0,1,0,.13c0,.09,0,.18,0,.27s0,0,0,.06a.69.69,0,0,0,0,.2v0a.59.59,0,0,1,0,.23l0,.18s0,0,0,0a.07.07,0,0,0,0,.06.17.17,0,0,1,0,.07l0,0h-.09a.76.76,0,0,1-.06-.16s0-.22,0-.25,0,0,0,0v-.18a.21.21,0,0,1,0-.11v0a1.09,1.09,0,0,1,0-.18v-.1h0v0a1.77,1.77,0,0,0,0-.23l0-.11S318.76,268.52,318.75,268.51Z"/><path class="cls-2" d="M318.12,269.29s-.05,0-.06-.06,0-.07,0-.07,0,0,0,0l.18,0h.45a.67.67,0,0,0,.2,0h0a.55.55,0,0,1,.22,0l.18,0h0a.07.07,0,0,0,.06,0h.07s0,0,0,0,0,0,0,.05,0,0,0,0h0l-.16.06-.24,0s0,0,0,0h-.18a.18.18,0,0,1-.1,0h-.54l-.12,0S318.13,269.28,318.12,269.29Z"/><path class="cls-2" d="M318.22,268.85s0-.05,0-.1l.05-.05h.05a2.22,2.22,0,0,1,.19.13l.12.1.23.21,0,.05a.93.93,0,0,0,.16.18l0,0,.2.18.13.17s0,0,0,0,0,0,0,.05l0,.07s0,0,0,.05a0,0,0,0,1,0,0s0,0,0,0h0l-.18-.09-.22-.18s0,0,0,0l-.17-.14s-.07-.05-.08-.09l0,0c-.06,0-.1-.1-.15-.15l-.08-.08h0l0,0c-.07-.05-.12-.12-.19-.17a1.06,1.06,0,0,0-.09-.11S318.23,268.85,318.22,268.85Z"/><path class="cls-2" d="M318.31,270s0,0-.09,0a.12.12,0,0,1-.05-.05s0,0,0-.05l.11-.18a.44.44,0,0,1,.08-.11l.2-.22,0-.05a1.14,1.14,0,0,0,.16-.15.05.05,0,0,0,0,0A1.37,1.37,0,0,1,319,269l.16-.13h0a.06.06,0,0,0,.05,0l.07-.06h0s0,0,0,0,0,0,0,0h0s-.07.16-.08.17l-.16.21,0,0-.12.16s-.05.06-.08.08h0l-.14.14a.27.27,0,0,1-.07.08h0l0,0c-.05.06-.11.11-.16.18l-.1.08Z"/><path class="cls-2" d="M253,223.49a11.66,11.66,0,0,0,7.33-.88,7.61,7.61,0,0,0,2.07-1.67,8.54,8.54,0,0,0,2.15-4.2,14.81,14.81,0,0,0,0-5,30.92,30.92,0,0,0-1.07-4.42,46.94,46.94,0,0,1-1.61-5.69c-.19-1.22,1.66-.07,2.3,2.05.58,1.9,1.18,3.84,1.6,5.86a19.09,19.09,0,0,1,.44,6.29,10.66,10.66,0,0,1-3.49,7,11.46,11.46,0,0,1-8.11,2.41,22.23,22.23,0,0,1-5.07-.93,29.71,29.71,0,0,1-7-3.22,23,23,0,0,1-4.7-3.67,10.79,10.79,0,0,1-.86-1c-1-1.41-1-2.11-.67-2.54a1.3,1.3,0,0,1,.22-.29c.31-.2.64.33,1.2,1.2a15.58,15.58,0,0,0,3.47,3.51,27.7,27.7,0,0,0,4.43,2.76,24.3,24.3,0,0,0,7.39,2.42Z"/><path class="cls-2" d="M226.4,209.53a7.71,7.71,0,0,1-1.7-4.1,8.46,8.46,0,0,1-.06-1.59,7,7,0,0,1,.65-2.44,4.35,4.35,0,0,1,.73-1.13,3.17,3.17,0,0,1,.58-.5,2.26,2.26,0,0,1,.81-.3c.22,0,.39,0,.6,0a5.66,5.66,0,0,1,2.49.47,6.19,6.19,0,0,1,2.37,1.8c.37.49-1.39,1.34-2.18.69a3.89,3.89,0,0,0-3-1.1s-.05-.06-.15,0a1,1,0,0,0-.34.26,4.33,4.33,0,0,0-.77,2.84,6,6,0,0,0,.87,3.29,5.73,5.73,0,0,0,1.46,1.57,7.35,7.35,0,0,0,3.1,1.28,9.41,9.41,0,0,0,2.65,0c.2,0,.39-.06.58-.07.73-.07,1,0,1.17.52a2.33,2.33,0,0,1,.14.33c.11.38-.17.72-.74.87a10.06,10.06,0,0,1-5.53-.17,8.38,8.38,0,0,1-3.79-2.45Z"/><path class="cls-2" d="M200,195c.63,3.69-9.16,17.77-16.32,24.05-36.82,32.27,66.15,62.52,50.26-6.41-11.79-.42-9.92-8.35-9.08-10.81,1.14-3.32,4.82-2.45,5.51-2.72,62.28-24.58,29-71.52,3.3-46.19-1,1-2.53.28-3.85-.18C218.12,148.61,196,161.24,200,195Z"/><path class="cls-2" d="M258.86,182.14a59,59,0,0,1-13.07,10.58,107.43,107.43,0,0,1-15.06,7.33,4.69,4.69,0,0,1-1.43.14c-.36,0-.68,0-1,.07a3.46,3.46,0,0,0-1.59.56,2.81,2.81,0,0,0-.92,1.31,12.57,12.57,0,0,0-.49,2,6.52,6.52,0,0,0,.41,3.79,5.32,5.32,0,0,0,2.68,2.56,10.58,10.58,0,0,0,2,.72,19.22,19.22,0,0,0,2.17.33l1.62.13.51,0c.1.09.09.32.14.46l.21,1,.49,2.38a60.08,60.08,0,0,1,1,9.38,33.88,33.88,0,0,1-3.34,16.32,24,24,0,0,1-5.13,6.72,26,26,0,0,1-7.11,4.51,35.65,35.65,0,0,1-16.41,2.46,44,44,0,0,1-16-4.3,33.87,33.87,0,0,1-6.26-4,22,22,0,0,1-5-5.53,16,16,0,0,1-1.62-3.42A14,14,0,0,1,175,234a15,15,0,0,1,1.62-7.31,26,26,0,0,1,5.79-7.5,61.12,61.12,0,0,0,6.37-6.61c2-2.34,3.83-4.79,5.56-7.31a45.33,45.33,0,0,0,4.51-7.88c.7-1.74.6-2.35.81-2.35s.25.21.32.67a6,6,0,0,1-.15,2c-.71,3.31-3.54,8.84-8,14.48a68,68,0,0,1-6.49,7.12l-1.73,1.6a22.23,22.23,0,0,0-1.61,1.61c-.54.53-1,1.14-1.46,1.71s-.89,1.2-1.27,1.83a13.67,13.67,0,0,0-2.28,8.21,12.35,12.35,0,0,0,1,4.15,16.61,16.61,0,0,0,2.33,3.71,22.11,22.11,0,0,0,3.19,3.15,28.64,28.64,0,0,0,3.75,2.58,38.54,38.54,0,0,0,8.44,3.63A40.34,40.34,0,0,0,214,252.69a26.83,26.83,0,0,0,10.29-4,22,22,0,0,0,7.33-8.32,29.11,29.11,0,0,0,2.94-10.92,50.58,50.58,0,0,0-.52-11.46c-.19-1.19-.38-2.38-.64-3.56-.37-1.48.19-.89-1.59-1.14-.64-.1-1.27-.23-1.9-.35a17.63,17.63,0,0,1-1.86-.62,8,8,0,0,1-3.25-2.4,7,7,0,0,1-1.41-3.83,11.33,11.33,0,0,1,.47-3.9,6.38,6.38,0,0,1,.85-1.91,4.25,4.25,0,0,1,1.73-1.39,6.31,6.31,0,0,1,2-.48l1,0h.43a.73.73,0,0,0,.23,0,87.84,87.84,0,0,0,19.21-10.15,45.74,45.74,0,0,0,11-10.87l1-1.64.52-.81.44-.86.86-1.73c.26-.59.46-1.2.69-1.8l.33-.9c.1-.31.16-.62.24-.93.15-.62.32-1.24.45-1.87a22.17,22.17,0,0,0,.31-3.81,18.65,18.65,0,0,0-.9-5.69,17.71,17.71,0,0,0-1.15-2.64c-.24-.42-.44-.86-.71-1.26l-.85-1.16a15.47,15.47,0,0,0-4.3-3.8,17.64,17.64,0,0,0-2.58-1.27c-.46-.16-.93-.27-1.39-.41l-.69-.2-.71-.1-1.43-.21h-1.45a16.37,16.37,0,0,0-2.87.25,13.82,13.82,0,0,0-1.41.35,13.67,13.67,0,0,0-1.39.39l-1.35.55a8.29,8.29,0,0,0-1.32.61,26.48,26.48,0,0,0-4.83,3.24l-1.09,1-.54.49-.28.25a2.49,2.49,0,0,1-2.2.59,9.2,9.2,0,0,1-1.53-.42,14.84,14.84,0,0,0-8.72-.52,22.11,22.11,0,0,0-8,3.66,28.08,28.08,0,0,0-6.25,6.25,34.42,34.42,0,0,0-4.15,7.84,43.31,43.31,0,0,0-2,7.57,69.31,69.31,0,0,0-.82,10.41,41.76,41.76,0,0,1-.2,4.7,14.63,14.63,0,0,1-.21,1.45c-.14.5-.39-.25-.71-2.07a43,43,0,0,1-.47-8.41A44,44,0,0,1,202.23,168a30.82,30.82,0,0,1,11-13.36,24.77,24.77,0,0,1,3.93-2.12,21.1,21.1,0,0,1,4.3-1.36,16.7,16.7,0,0,1,9.12.52,7.26,7.26,0,0,0,1.72.48.8.8,0,0,0,.38-.05l.12-.09.42-.37a29.78,29.78,0,0,1,3.46-2.85,28,28,0,0,1,3.87-2.34l2.11-.87a20.07,20.07,0,0,1,2.21-.64l.82-.22.85-.11,1.71-.21a19.77,19.77,0,0,1,3.44.15,16.55,16.55,0,0,1,6.5,2.23,17,17,0,0,1,5.14,4.56,18.27,18.27,0,0,1,3.05,6.13l.42,1.66c.12.56.16,1.14.23,1.7a21.57,21.57,0,0,1,.12,3.41c0,.57-.12,1.12-.17,1.69a13.19,13.19,0,0,1-.26,1.67l-.4,1.65-.2.82-.29.79a34.17,34.17,0,0,1-6.87,11.33Z"/><path class="cls-2" d="M243.64,220.88c.46,5,6.8,9.6,11.9,8.81,3.48-.54.08-5-1.74-5C250.82,224.65,245.89,223,243.64,220.88Z"/><path class="cls-2" d="M256.73,225.1a5.1,5.1,0,0,1,1.38,3.08,2.38,2.38,0,0,1-1,2,3,3,0,0,1-.92.39l-.44.09-.37,0a8.66,8.66,0,0,1-2.16,0,11.19,11.19,0,0,1-3.48-1.18,13.81,13.81,0,0,1-2.95-2.06,15.45,15.45,0,0,1-2.17-2.33,6.63,6.63,0,0,1-1.56-3.84c0-.45.49-.4,1-.15a2.82,2.82,0,0,1,.73.51,1.66,1.66,0,0,1,.54.72,12.59,12.59,0,0,0,4.58,5.24,8.39,8.39,0,0,0,4.19,1.33,4.08,4.08,0,0,0,2-.24.49.49,0,0,0,.19-.52,2.28,2.28,0,0,0-.33-1,4.15,4.15,0,0,0-2-1.87.47.47,0,0,1-.17,0l-.32,0-.66-.05c-.43,0-.86-.12-1.28-.21-.84-.17-1.66-.38-2.47-.63a28.22,28.22,0,0,1-3.71-1.31c-.26-.13-.53-.24-.79-.39-1-.58-1.15-1-1-1.48a1.8,1.8,0,0,1,.12-.35c.2-.35.68-.29,1.31,0a30.59,30.59,0,0,0,6.21,2.19,14.88,14.88,0,0,0,2.39.36,4,4,0,0,1,1,.16,3.8,3.8,0,0,1,.88.43,6.07,6.07,0,0,1,1.26,1.09Z"/><path class="cls-2" d="M225,304.56a106.87,106.87,0,0,1-.54-13.12q.09-6.56.73-13.06c.32-3.17.67-6.33,1.21-9.47a80.53,80.53,0,0,1,4.37-16.29,32.8,32.8,0,0,1,4.13-7.48A12.58,12.58,0,0,1,242,240.2a10.08,10.08,0,0,1,2-.21c.34,0,.63,0,1,0a1.29,1.29,0,0,1,.6.2l.45.21a11,11,0,0,1,1.69,1,17.82,17.82,0,0,1,1.46,1.28,47.08,47.08,0,0,1,4.72,5.81,37.26,37.26,0,0,0,2.94,3.59,8.27,8.27,0,0,0,3.56,2.37,2.5,2.5,0,0,0,.44.07.54.54,0,0,0,.26,0,.44.44,0,0,0,.3-.32,2.74,2.74,0,0,0,.05-.86,10.25,10.25,0,0,0-.16-1.07,39.54,39.54,0,0,0-1.33-4.41c-.65-1.86-.1-1.79.93-.4a15.9,15.9,0,0,1,1.75,3.09,10.47,10.47,0,0,1,.74,2.4,4.33,4.33,0,0,1,0,1.69,2.38,2.38,0,0,1-1.66,1.85,2.91,2.91,0,0,1-.59.1,2.81,2.81,0,0,1-.53,0,3.75,3.75,0,0,1-.81-.16,12.25,12.25,0,0,1-1.35-.54,10.5,10.5,0,0,1-2.24-1.59,25.5,25.5,0,0,1-3.31-3.83c-1.95-2.6-3.67-5.31-5.93-7.2l-.42-.36-.44-.3a4.9,4.9,0,0,0-.91-.53l-.42-.21c-.06,0,0,0-.25,0a7.36,7.36,0,0,0-1.05,0,8.15,8.15,0,0,0-4,1.34,18.6,18.6,0,0,0-5.74,7,50.9,50.9,0,0,0-3.94,10.91,109.42,109.42,0,0,0-2.18,11.64,147.43,147.43,0,0,0-1.29,26,70,70,0,0,0,.76,7.94,20.79,20.79,0,0,0,.94,3.77,10.49,10.49,0,0,0,2,3.15,7.26,7.26,0,0,0,5,2.26,13.9,13.9,0,0,0,5.7-1.12A42.19,42.19,0,0,0,251,308.47a112.46,112.46,0,0,0,13.28-12.9l2.66-3.06c3.31-3.86,4.36-5.07,5.43-5.62.24-.13.53-.32.7-.39.62-.18-.37,1.77-2.7,4.7a134.51,134.51,0,0,1-11.47,12.73,70,70,0,0,1-14,10.92,24.26,24.26,0,0,1-6.4,2.55,10.62,10.62,0,0,1-7.24-.66,9.59,9.59,0,0,1-2.93-2.34,16.79,16.79,0,0,1-1.08-1.47,14,14,0,0,1-.85-1.64,28.65,28.65,0,0,1-1.46-6.72Z"/><path class="cls-2" d="M265.77,259.58l-.17-.67c0-.15,0-.13,0-.16s0-.05,0-.07,0-.28-.18-.33-.13.13-.19.18a.73.73,0,0,0-.17.25c-.08.19-.2.54-.29.83a15.43,15.43,0,0,0-.45,1.9,8.38,8.38,0,0,0-.1,1.73,15.79,15.79,0,0,1,.09,2.15c0,.21-.5.31-1,.18a1.3,1.3,0,0,1-1-1,12.39,12.39,0,0,1,.67-4.92c.18-.49.28-.9.48-1.51a4.14,4.14,0,0,1,1.06-1.9,1.36,1.36,0,0,1,.95-.36,1.46,1.46,0,0,1,.92.46,3.65,3.65,0,0,1,.35.43l.29.52a9.19,9.19,0,0,1,.39,1.05,9.7,9.7,0,0,1,.41,2.08,3.55,3.55,0,0,1,0,.86l-.08.45-.17.44a3.24,3.24,0,0,1-1.23,1.28,4.1,4.1,0,0,0-1.53,1.26c0,.1-.07.18-.09.28-.11.33-.18.5-.71.59-.12,0-.23.06-.35.07-.38.07-.7-.21-.72-.84a4.73,4.73,0,0,1,.15-.73,2.86,2.86,0,0,1,.37-.69,3.94,3.94,0,0,1,1-.95,5.59,5.59,0,0,0,1.31-.91c.23-.16.23-1.07,0-2Z"/><path class="cls-2" d="M256.27,263.47a6.12,6.12,0,0,1-.25-1.72,5.17,5.17,0,0,1,.27-1.86,1.75,1.75,0,0,1,1.14-1.36,1.94,1.94,0,0,1,1.53,0l.37.16.25.16a2.61,2.61,0,0,1,.45.33,11.42,11.42,0,0,1,1.43,1.44c.37.44.77.85,1.16,1.26a5.69,5.69,0,0,1,1.32,1.72c.17.43-1.61,1.05-2.11.45l-2.56-3.21a2.47,2.47,0,0,0-.72-.58.39.39,0,0,0-.39,0l0,0a.77.77,0,0,0-.14.21,2.33,2.33,0,0,0-.11.54,5,5,0,0,0,0,1.28,3.35,3.35,0,0,0,.51,1.41,2.26,2.26,0,0,0,1.92,1,3.48,3.48,0,0,0,1.73-.53c.12-.06.2-.15.31-.21.37-.25.41-.16.87.07.11.05.23.08.34.12a.43.43,0,0,1,.33.41,1,1,0,0,1-.31.7,4.4,4.4,0,0,1-2.09,1.14,4.79,4.79,0,0,1-2.54-.08,3.9,3.9,0,0,1-2.36-2,3.85,3.85,0,0,1-.38-.9Z"/><path class="cls-2" d="M261.29,266.63l1.2-2c.17-.27.31-.59.48-.86l.17.07,1,.4c.31.13.66.27.8.35a3.55,3.55,0,0,1,1.21.89l.74.89a2.44,2.44,0,0,1,.76,1.12c.06.3-1.63,1-1.93.63a12.19,12.19,0,0,1-.71-1.05,3.91,3.91,0,0,0-.49-.72,1.92,1.92,0,0,0-.66-.34s0,0,0,0l-.2.24c-.14.2-.31.5-.46.75s-.37.65-.53,1a7.85,7.85,0,0,0-.64,1.54,3.33,3.33,0,0,0-.05,1.21l0,.22c0,.25-.08.22-.55.44l-.31.16a.59.59,0,0,1-.88-.34,4.3,4.3,0,0,1,.2-2.87,17.92,17.92,0,0,1,.81-1.78Z"/><path class="cls-2" d="M255.47,397.24a22.47,22.47,0,0,0,5.68.26l.4-.07.1,0c.05,0,0,0,0-.08s0,0,0-.05l0-.18c-.21-1.07-.31-2.08-.41-3.11-.36-4.06-.48-8.08-.59-12.11-.07-2.94-.18-5.88-.21-8.81-.1-10.35,0-20.68,0-31,0-4.59,0-9.2,0-13.75,0-5.84-.19-11.71,0-17.55.08-3.65,1.95,1,2,7.7.08,11.95,0,23.88-.21,35.91-.1,7.2,0,14.69.17,22,.08,4,.16,8.09.36,12.12.09,2,.22,4,.43,6,0,.5.11,1,.18,1.47,0,.25.08.48.13.71l0,.2c0,.1,0,.2.07.3s.1.38.14.56l.12.53c.06.11,0,.15-.14.19l-.24.15a4.22,4.22,0,0,1-1,.46,3.65,3.65,0,0,1-.53.15l-.42.08-.81.08a35.92,35.92,0,0,1-7.59-.68c-2.48-.44-4.92-1-7.36-1.53-7.37-1.72-14.67-3.77-21.93-5.62-5.64-1.44-11.2-2.73-16.83-3.77-1.24-.22-2.45-.41-3.7-.58-4.65-.65-6-.55-7-.87-.25-.08-.56-.09-.73-.15s0-.45.9-.75a11.89,11.89,0,0,1,4.11-.33,100.73,100.73,0,0,1,15.7,2.7c5.24,1.22,10.51,2.61,15.78,4,3.91,1,7.82,2.05,11.75,3s7.87,1.84,11.81,2.39Z"/><path class="cls-2" d="M207.83,359.06q2.67-5.37,5.12-10.85l1.71-4c2.06-4.71,4.05-9.46,5.86-14.27.81-2.14,1.53-4.31,2.19-6.47.82-2.78,1.58-5.62,2.19-8.34.17-.84.64-.73,1,.1a6.69,6.69,0,0,1,.09,4.07,123.27,123.27,0,0,1-6.08,17c-1.43,3.31-2.76,6.81-4.22,10.19q-2.41,5.58-5,11.05c-1.08,2.25-2.2,4.48-3.33,6.7-1.71,3.36-3.54,6.69-5.42,9.93a76.92,76.92,0,0,1-4.68,7.37c-.38.52-.8,1-1.22,1.51s-.81.81-1.13,1.1a6.29,6.29,0,0,1-.92.61,1.53,1.53,0,0,1-1.29.18,1.14,1.14,0,0,1-.43-.16c-.17-.13-.06-.38.21-.68l1.28-1.26a41.36,41.36,0,0,0,4.5-6.12c1.4-2.22,2.74-4.55,4-6.91q2.88-5.26,5.53-10.72Z"/><path class="cls-2" d="M245,395.45c-.18,6.52-11.79,92.9,4.65,107.27,1,.83,12.35,6.57,10.56,8.31-2.37,2.3-16.75-5-20.15-7.84,0,2.6.22,4.21,0,6.54a20.08,20.08,0,0,1-2.76.25c.19-4.63-10.65-104.58-6-117.21C231.38,392.77,241.17,395.16,245,395.45Z"/><path class="cls-2" d="M236.86,489.76l1,11.44.45,5.74.09,1.45,0,.32v.12c.05,0,.13,0,.22,0l.36,0h.12v-.14l0-.61c0-.53,0-1.07,0-1.62l0-1,0-1.49v-2.2a4.69,4.69,0,0,1,0-.68c.87.69,1.85,1.54,2.72,2.13a21.85,21.85,0,0,0,1.86,1.2c1,.6,2,1.16,3,1.7a66,66,0,0,0,6.28,2.92,29.65,29.65,0,0,0,3.67,1.2,10.67,10.67,0,0,0,1.79.31h.37l.12,0a.43.43,0,0,0,.21-.09c.13-.14,0-.3-.13-.41a13.12,13.12,0,0,0-1.36-1.16c-1-.76-2.12-1.46-3.24-2.16s-2-1.2-3-1.79l-1.53-.91a4.84,4.84,0,0,1-.85-.6l-.68-.67a19.74,19.74,0,0,1-3.73-6.31,60.52,60.52,0,0,1-3.2-13.87,200.93,200.93,0,0,1-1.14-28.16c.15-8.33.55-16.69,1.08-24.93.69-10.59,1.62-21.21,2.87-31.72.19-1.64.34-2.31.53-2.26s.39.87.48,2.29a96,96,0,0,1-.44,14.07c-1,10.76-1.83,21.53-2.33,32.33a283.33,283.33,0,0,0,.11,32.45c.24,3.23.61,6.48,1.17,9.71a49.45,49.45,0,0,0,2.53,9.48,20.53,20.53,0,0,0,2.23,4.26,11.12,11.12,0,0,0,.72.94,9.11,9.11,0,0,0,.8.84,9.77,9.77,0,0,0,1.93,1.27c1.44.84,2.91,1.69,4.34,2.6.71.45,1.43.93,2.12,1.43.35.26.7.52,1,.8l.5.44c.18.17.3.28.57.57a2.33,2.33,0,0,1,.73,2.07,1.52,1.52,0,0,1-.66.84,2.67,2.67,0,0,1-1.07.42,5.85,5.85,0,0,1-1.9,0,12.89,12.89,0,0,1-1.55-.32,39.13,39.13,0,0,1-5.74-2.07q-2.78-1.23-5.43-2.68c-.88-.48-1.76-1-2.62-1.52l-.59-.37-.24-.16-.47-.35c-.07-.08,0,0-.05.07v.48l0,1a29.35,29.35,0,0,1-.1,4c-.43.08-.86.15-1.3.2s-.63.07-1.15.11-.88,0-1.31.05h-.32s-.07,0-.07,0v-.24l0-.64,0-.66,0-.58-.05-.83-.12-1.67-.55-6.7q-1.16-13.5-2.3-27c-1.14-13.64-2.17-27.35-3-40.91-.31-5.27-.61-10.5-.83-15.71s-.36-10.42-.14-15.68c0-.58.05-1.16.08-1.73l.15-1.74c0-.57.13-1.16.22-1.74l.14-.89.37-1.33.25-.93,9.2,2.16a24.32,24.32,0,0,1,3.74,1.14c.4.17.93.34,1.17.48.4.22-.3.37-1.88.28a56.7,56.7,0,0,1-7.13-1.08l-2.32-.48-1.19-.25-.3-.06-.06.26,0,.13a1.77,1.77,0,0,0,0,.2l-.23,1.53c-.09,1-.2,2.09-.24,3.16-.11,2.14-.14,4.3-.13,6.48,0,4.36.16,8.77.36,13.21.39,8.88,1,17.88,1.62,26.89,1,14.62,2.28,29.3,3.57,43.94Z"/><path class="cls-2" d="M221.9,390c-3.3,5.68-15.08,24.66-22.37,24.66-17.36,0-49.81-33.6-59.89-36.67-2-.62-23,5.75-23.41,3.53-.53-2.95,20.12-11.05,21-11.06-2.22-1.5-4.4-3.85-6.48-5.47a5.71,5.71,0,0,1,1-1.58c23.11,11.94,58.74,40.05,66.19,38.9,5.3-.82,8.75-13.34,10.5-15A114.47,114.47,0,0,0,221.9,390Z"/><path class="cls-2" d="M134.21,366.07c-1-.56-2-1.06-2.94-1.59l1.39-.26c-.44.54-.36.44-.39.53l.71.63,1.33,1.21,1.31,1.18.79.68c.44.35.87.69,1.35,1-.15.64-.12.91-.19,1.12s-.12.24-.19.39-.17.36-.29.67l-2.33.85-1.53.59c-1,.4-2,.82-3.06,1.24-2,.86-4,1.75-6,2.71a40.39,40.39,0,0,0-5.63,3.18l-.42.32-.13.12c-.07.08-.19.26,0,.32a1.14,1.14,0,0,0,.37,0l.61,0,.8-.09c4.92-.72,9.84-2.07,14.82-3.1.82-.17,1.64-.34,2.48-.48.42-.08.84-.14,1.29-.2L139,377h.4a2.45,2.45,0,0,1,.53.09,25.46,25.46,0,0,1,5.59,3c1.71,1.15,3.36,2.36,5,3.59,3.25,2.46,6.41,5,9.59,7.52,6.35,5,12.72,10.05,19.47,14.48a73.28,73.28,0,0,0,10.29,5.77,30.7,30.7,0,0,0,5.49,1.95,21.24,21.24,0,0,0,2.81.5l1.41.07c.21,0,.42,0,.63-.06l.63-.15a16.38,16.38,0,0,0,5.88-4.13,59.21,59.21,0,0,0,4.92-5.66c3.08-4,5.89-8.17,8.59-12.41,1.65-2.66,1.86-2.07.9.47a54.11,54.11,0,0,1-6.74,11.72,70.69,70.69,0,0,1-5,6.07A25.24,25.24,0,0,1,203,415a9.48,9.48,0,0,1-2.11.79,5.89,5.89,0,0,1-1.21.16c-.4,0-.71,0-1.07,0a12.87,12.87,0,0,1-2.07-.25,16.54,16.54,0,0,1-2-.44,39.7,39.7,0,0,1-7.44-2.93,73.22,73.22,0,0,1-6.84-3.91c-2.22-1.39-4.38-2.86-6.49-4.39-4.25-3-8.35-6.25-12.43-9.51-3.5-2.79-7-5.64-10.65-8.41-1.81-1.38-3.64-2.75-5.51-4a27.35,27.35,0,0,0-5.78-3.19H139l-.61.06-1.29.21c-.87.16-1.74.35-2.62.54l-5.26,1.17c-2.93.65-5.86,1.32-8.88,1.77-.38.06-.76.11-1.15.15l-.58.05-.38,0h-.46a3.76,3.76,0,0,1-1.61-.26,1.52,1.52,0,0,1-.55-.42.86.86,0,0,1-.17-.33l0-.36a2.42,2.42,0,0,1,.57-1.37,3.92,3.92,0,0,1,.6-.63,5.57,5.57,0,0,1,.6-.52,21.31,21.31,0,0,1,2-1.3,79.12,79.12,0,0,1,8.14-4.06c1.38-.61,2.77-1.19,4.16-1.76l2.11-.83,1.06-.4.54-.19a5.6,5.6,0,0,1,.54-.17c.09,0,0,0,0-.06l-.12-.09-.24-.19-.28-.23-.54-.47-1.26-1.14-1.39-1.25-.7-.62-1.13-.91a5.58,5.58,0,0,1,1.28-2.3l.36-.39.47.24c6,3.14,11.71,6.69,17.38,10.3,11,7,21.78,14.58,32.77,21.4,2.14,1.31,4.3,2.59,6.48,3.77a41.6,41.6,0,0,0,6.69,3l.85.22c.28.07.56.08.83.13a6.54,6.54,0,0,0,.77,0,4.15,4.15,0,0,0,.74-.22,7,7,0,0,0,2.54-2.16,31.49,31.49,0,0,0,3.58-6.32l1.33-3c.22-.5.45-1,.7-1.51.13-.27.24-.49.42-.8s.25-.38.37-.57l.43-.51.1-.11s.07-.09.13-.06l.29.07.59.14.29.06.24.07.34.09,1.29.32,2.27.52,3.42.75a18.54,18.54,0,0,1,3.72,1.12,10.73,10.73,0,0,1,1.1.52c.72.47-2.64.39-8.6-.69-1.1-.2-2.21-.43-3.32-.7l-.79-.19-.19,0a1,1,0,0,0-.1.17l-.31.59c-.93,1.95-1.78,4.11-2.8,6.19a23.52,23.52,0,0,1-3.92,6.05,6.68,6.68,0,0,1-3.59,2,8.79,8.79,0,0,1-4-.65,46.07,46.07,0,0,1-6.5-3.05c-2.07-1.14-4.1-2.34-6.11-3.57-4-2.47-8-5.05-11.92-7.64-5.85-3.85-11.67-7.76-17.55-11.58s-11.81-7.55-17.91-10.93Z"/><path class="cls-2" d="M298.83,215.2a9.16,9.16,0,0,1-5.94-1.54,15.84,15.84,0,0,1-4.18-4.1,23.72,23.72,0,0,1-2.19-3.55,44.2,44.2,0,0,1-3.94-13.83c-.28-2.1-.48-4.22-.59-6.32a37.19,37.19,0,0,1,.25-8.1c.14-.83.61-.66,1,.08a7.36,7.36,0,0,1,.7,3.55,68.13,68.13,0,0,0,1.36,16,31.38,31.38,0,0,0,3.55,9.12,19.32,19.32,0,0,0,3.2,4.22,9.52,9.52,0,0,0,4.4,2.55,6.42,6.42,0,0,0,3.11,0,8.66,8.66,0,0,0,1.58-.38,9.39,9.39,0,0,0,1.53-.57,20.4,20.4,0,0,0,7.6-6.42c1.61-2.08,2.93-4.32,4.43-6.51.32-.49.65-1,1-1.44,1.34-1.76,2-2.17,2.67-2.16a1.64,1.64,0,0,1,.45,0c.42.15,0,.95-.9,2.18-2.68,3.69-5,8.14-8.7,11.9a21.26,21.26,0,0,1-4.67,3.61,16.91,16.91,0,0,1-5.73,1.81Z"/><path class="cls-2" d="M325.93,187.65a5.55,5.55,0,0,0,1.43-3.14v-.63a3.36,3.36,0,0,0-.12-.48,4,4,0,0,0-3.18-2.67,2.48,2.48,0,0,0-1.81.53,14,14,0,0,0-1.75,2c-.2.21-.62,0-.89-.48a1.57,1.57,0,0,1,0-1.74,5.26,5.26,0,0,1,3.21-2.13,4.71,4.71,0,0,1,3.73.93,7.69,7.69,0,0,1,1.59,1.53,4.35,4.35,0,0,1,1,2.11A6.73,6.73,0,0,1,328,188a11.15,11.15,0,0,1-1.79,2.07,21.66,21.66,0,0,1-3.23,2.38c-.87.55-1.71,1.12-2.63,1.59-.2.11-.39.23-.6.32-.79.34-1.11.28-1.42-.14a2.51,2.51,0,0,1-.2-.29c-.18-.35,0-.75.53-1,1.46-.89,3-1.73,4.44-2.73a12.87,12.87,0,0,0,2.81-2.52Z"/><path class="cls-2" d="M339.25,173.31a17.8,17.8,0,0,1-.38,1.76c-.09.28-.16.57-.26.86l-.38.89a7.11,7.11,0,0,1-2.5,2.93,9.1,9.1,0,0,1-1.68.91,11.49,11.49,0,0,1-1.78.49,13.59,13.59,0,0,1-3.59.19,19.66,19.66,0,0,1-5-1.08,23,23,0,0,1-4-1.95,22.28,22.28,0,0,1-3.51-2.75,16.92,16.92,0,0,1-4.63-7.56,15.77,15.77,0,0,1,0-7.87,20.1,20.1,0,0,1,4.67-8.75c.69-.78,1-.34.8.62a6.75,6.75,0,0,1-.55,1.75,10.93,10.93,0,0,1-1.07,2.18,17,17,0,0,0-2.44,8.73,13.88,13.88,0,0,0,.94,4.42,16.18,16.18,0,0,0,2.37,4,18.77,18.77,0,0,0,9.78,6,13.84,13.84,0,0,0,6.26.25,7.13,7.13,0,0,0,2.72-1.25,5.49,5.49,0,0,0,1.75-2.36,13.7,13.7,0,0,0,.54-7.75,19.93,19.93,0,0,0-6.05-10.33,21.61,21.61,0,0,0-7.95-4.66c-.64-.2-1.28-.35-1.94-.49-1.22-.25-2-.36-2.6-.47a2.45,2.45,0,0,1-1.18-.51,2.69,2.69,0,0,1-.39-.33c-.29-.34.8-.83,2.85-.7a19.38,19.38,0,0,1,8.64,2.92,24.23,24.23,0,0,1,6.9,6.38,21.25,21.25,0,0,1,3.2,6.36,19.5,19.5,0,0,1,.67,3.55,18.47,18.47,0,0,1-.11,3.64Z"/><path class="cls-2" d="M273.34,145.78a16.07,16.07,0,0,0-3.19,7.91,19,19,0,0,0,1,8.64,15.94,15.94,0,0,0,3.29,5.39,12.56,12.56,0,0,0,10,3.9,24.31,24.31,0,0,0,10.78-3.77,42.86,42.86,0,0,0,4.27-3c.69-.53,1.33-1.13,2-1.69s1.33-1.12,1.92-1.75l2.36-2.37c.78-.8,1.49-1.66,2.25-2.48,1.53-1.62,2.91-3.38,4.41-5,.94-1,1.2-.6.81.61a12.61,12.61,0,0,1-1.07,2.31,15.42,15.42,0,0,1-2.08,2.88l-2.34,2.58c-.81.83-1.66,1.63-2.49,2.45s-1.71,1.59-2.6,2.35-1.77,1.53-2.75,2.2a31.67,31.67,0,0,1-12.8,6.11,16.72,16.72,0,0,1-8.79-.61,14.18,14.18,0,0,1-6.93-5.58,20,20,0,0,1-1.65-18.61,15.31,15.31,0,0,1,3.34-4.93,7.7,7.7,0,0,1,1.13-1,11.64,11.64,0,0,1,1.2-.89,22,22,0,0,1,2.62-1.38,28,28,0,0,1,8.52-2.42,22.91,22.91,0,0,1,8.8.72,33,33,0,0,1,11.79,6.49c.76.62,1.51,1.23,2.25,1.88,2.73,2.45,3.47,3.18,3.84,4a3.87,3.87,0,0,1,.27.54c.08.26-.27.3-.95,0a11.19,11.19,0,0,1-2.62-1.73,66.31,66.31,0,0,0-9.53-7.11,22.59,22.59,0,0,0-11.25-3.13,24,24,0,0,0-4.38.46,27.09,27.09,0,0,0-4.27,1.26c-2.85,1.09-5.39,2.43-7.13,4.76Z"/><path class="cls-2" d="M306.38,211.5c1.29,2.9,3.27,4.16,5.91,2.34,3.6-2.48,5.1-8.13,2.79-11.74C312.2,205.58,309.87,208.67,306.38,211.5Z"/><path class="cls-2" d="M315.56,200.56c.37.69.7,1.36,1,2a9.5,9.5,0,0,1,.54,1.95,9.38,9.38,0,0,1,0,2.85,11.46,11.46,0,0,1-.45,2,10,10,0,0,1-4.56,5.39,5.64,5.64,0,0,1-1.61.53,3.42,3.42,0,0,1-1.79-.19,4.8,4.8,0,0,1-2.77-3.08c-.12-.41.36-.53.92-.44a2.5,2.5,0,0,1,1.54.79,3.15,3.15,0,0,0,1,.86,1.5,1.5,0,0,0,1,.15,5.92,5.92,0,0,0,2.67-1.52,7.68,7.68,0,0,0,2-3.69,9.63,9.63,0,0,0,.33-2.33,7.7,7.7,0,0,0-.1-1.17,2.67,2.67,0,0,0-.06-.4,1.38,1.38,0,0,0-.08-.29,2.3,2.3,0,0,0-.12-.34l-.08-.17s-.05-.16-.09-.08l-.55.61c-1,1.18-2.06,2.37-3.07,3.55-.82,1-1.58,1.93-2.43,2.85-.19.21-.36.41-.56.61-.75.71-1.1.82-1.58.58a3.47,3.47,0,0,1-.33-.18c-.31-.24-.2-.74.27-1.29l4.34-5,4.32-5.14.3.54Z"/><path class="cls-2" d="M335.44,306.35A105.09,105.09,0,0,0,338.22,290a134.63,134.63,0,0,0,.56-16.68c-.13-4.06-.48-8.11-1-12.12a72.33,72.33,0,0,0-5.47-20.57,33.22,33.22,0,0,0-5.73-8.82,19.72,19.72,0,0,0-8.68-5.58,18,18,0,0,0-4.56-.79l-.58,0a2.19,2.19,0,0,0-.37,0,.52.52,0,0,0-.22.17c-.08.07-.22.26-.33.39-.46.6-.9,1.27-1.34,1.93-1.75,2.67-3.46,5.39-5.4,7.95a26.55,26.55,0,0,1-4.26,4.63,7.06,7.06,0,0,1-3,1.55,3.58,3.58,0,0,1-1.91-.15,3.11,3.11,0,0,1-.84-.46l-.39-.29a2.52,2.52,0,0,1-.38-.47,3.67,3.67,0,0,1-.37-1.9,12.23,12.23,0,0,1,.19-1.65,23.61,23.61,0,0,1,.83-3,35,35,0,0,1,2.51-5.71,5.56,5.56,0,0,1,.86-1.19c.24-.23.45-.3.48-.21a7,7,0,0,1-.42,1.84c-.31,1.07-.72,2.52-1.21,4.24-.24.87-.49,1.82-.72,2.81a16.93,16.93,0,0,0-.47,3,2.88,2.88,0,0,0,.09.77s0,0,0,0l.19.14a2.81,2.81,0,0,0,.38.2,2.61,2.61,0,0,0,1.94-.42,17.63,17.63,0,0,0,4.16-4c2.57-3.15,4.67-6.67,7.11-10.18.17-.23.32-.44.51-.67s.18-.23.29-.35a2.52,2.52,0,0,1,.53-.49,1.84,1.84,0,0,1,.67-.3,1.22,1.22,0,0,1,.71-.09l.85,0c.56,0,1.1.1,1.65.16a15,15,0,0,1,1.63.29,20.23,20.23,0,0,1,6.15,2.44,26.46,26.46,0,0,1,8.9,9.41,57,57,0,0,1,5.74,14.41,95.06,95.06,0,0,1,2.61,15.38,133.81,133.81,0,0,1-1.34,34,84.36,84.36,0,0,1-2.41,10.23,31.64,31.64,0,0,1-4.46,9.62,8.26,8.26,0,0,1-3.24,2.7,15.1,15.1,0,0,1-4,.94,25.65,25.65,0,0,1-8-.68,64.32,64.32,0,0,1-14.78-5.75,117.42,117.42,0,0,1-10.48-6.16c-1.68-1.12-3.33-2.27-4.93-3.52-.4-.31-.8-.64-1.19-1l-.59-.52-.36-.36-.39-.45-.2-.22a.94.94,0,0,1,.06-.28l.14-.58c.12-.42.22-.61.3-.87.2-.49.4-1,.61-1.43.75-1.63,1.53-3.19,2.39-4.77,3.22-5.82,4.64-7.49,5.93-8.33a3.48,3.48,0,0,1,.88-.47c.17,0,.19.08.1.3s-.3.55-.6,1.05l-2.71,4.71a92.42,92.42,0,0,0-4.84,9.58l-.18.5s0,.07,0,.09l.07.06c.06.07.28.26.43.39.65.58,1.37,1.14,2.09,1.68,1.45,1.1,3,2.15,4.51,3.17a90.29,90.29,0,0,0,19.84,10.12,36.47,36.47,0,0,0,7.95,1.83c.67.09,1.34.07,2,.11a16,16,0,0,0,2-.11,11.53,11.53,0,0,0,3.64-.95,7.49,7.49,0,0,0,2.55-2.53,20.9,20.9,0,0,0,1.92-3.52,51,51,0,0,0,2.63-7.85Z"/><path class="cls-2" d="M295.49,284.91a122,122,0,0,0,10.8,8.77c1.38,1,2.82,1.85,4.25,2.72a28.32,28.32,0,0,0,8,3.52c.44.11.47.1.65.14s.21-.11.27-.23l.33-.86.33-1.06a36.89,36.89,0,0,0,1-4.3,54.73,54.73,0,0,0,.74-7.89c.05-1.69,0-3.39.08-5.1a26.41,26.41,0,0,1,.49-5.19c.29-1.11.71-.78,1,.16a13.72,13.72,0,0,1,.58,4.48c-.1,3.44-.14,7-.57,10.5a45.86,45.86,0,0,1-.9,5.28c-.23.87-.43,1.74-.73,2.6-.15.42-.26.86-.44,1.28l-.67,1.74-.13.32c-.05.09-.05.27-.19.19l-.67-.09c-.42-.07-.95-.13-1.27-.2-.54-.14-1.1-.24-1.62-.42a25.32,25.32,0,0,1-3.12-1.17,44.1,44.1,0,0,1-5.78-3.15,102.66,102.66,0,0,1-11.34-8.63c-2.21-1.9-4.36-3.87-6.47-5.87l-2.38-2.3L286.56,279l-.59-.6a4.52,4.52,0,0,0-.57-.4c-1.83-1.2-3.68-2.36-5.56-3.45-1.16-.67-2.33-1.3-3.51-1.87-.59-.28-1.18-.54-1.77-.76a6.62,6.62,0,0,0-.87-.27,1.83,1.83,0,0,0-.35-.06h-.06s0,.05,0,0c-.09-.28-.07-.32-.16-.39l.34-.24c.32,0,.18,0,.21,0s.07.07.09.11a2.23,2.23,0,0,0,.27.28c.22.19.47.39.74.58.57.4,1.18.76,1.8,1.15,2.33,1.42,3.08,2.08,3.22,2.89a1,1,0,0,1,0,.52c0,.1-.13.13-.25.12l-.19,0a1.37,1.37,0,0,1-.28-.1,18.5,18.5,0,0,1-2-1c-.85-.48-1.73-1-2.61-1.51a14.51,14.51,0,0,1-1.33-.92,5.51,5.51,0,0,1-.69-.62,3.09,3.09,0,0,1-.37-.46,1.36,1.36,0,0,1-.18-.35,3.81,3.81,0,0,1-.13-.45l-.11-.46.38-.43a1.59,1.59,0,0,1,.69-.44,1.66,1.66,0,0,1,.5-.08,2.81,2.81,0,0,1,.63.05,6.06,6.06,0,0,1,.92.25c.55.19,1.06.4,1.56.63,1,.45,1.94.95,2.88,1.46,1.88,1,3.71,2.15,5.53,3.29l1.5,1,.38.24.18.13a1.38,1.38,0,0,1,.33.24l.68.68,2.51,2.46q2.53,2.45,5.17,4.78Z"/><path class="cls-2" d="M269.19,273.62a1.84,1.84,0,0,1-.67-1.18.92.92,0,0,1,0-.49c0-.16.15-.2.23-.27a.71.71,0,0,1,.28-.16,2.39,2.39,0,0,1,1.06-.19,9.52,9.52,0,0,1,2.78.65l.76.32a6.86,6.86,0,0,1,.65.28l.92.45c.54.26,1.09.5,1.64.71a15.4,15.4,0,0,1,2,.8c.14.08.14.5-.16.85a1.27,1.27,0,0,1-1.3.42c-.78-.3-1.47-.64-2.17-1l-1-.53-.5-.28-.13-.07,0,0-.06-.06a1.14,1.14,0,0,0-.43-.24l-.48-.13a2.7,2.7,0,0,0-.35-.07H272c-.07,0-.15,0-.13.05a.82.82,0,0,0,.27.37,5.42,5.42,0,0,0,.63.53c.19.14.39.3.85.61s.81.55,1.23.8c.65.39,1.33.69,2,1a4.51,4.51,0,0,1,.44.22c.54.31.66.53.53,1a1.36,1.36,0,0,1-.11.28.68.68,0,0,1-.9.23,19.67,19.67,0,0,1-3.7-2,40.9,40.9,0,0,1-4-2.91Z"/><path class="cls-2" d="M270,284.43c-.63-.21-1.25-.44-1.88-.72a7.7,7.7,0,0,1-1-.47,3.54,3.54,0,0,1-.52-.34,2.44,2.44,0,0,1-.31-.28A1.39,1.39,0,0,1,266,282a1.11,1.11,0,0,1,0-.57,1.82,1.82,0,0,1,.11-.28l.14-.17a1.06,1.06,0,0,1,.15-.15l.12-.08.28-.14a2.29,2.29,0,0,1,.77-.14,7.41,7.41,0,0,1,1.11.08c.67.09,1.3.21,1.93.31a9.84,9.84,0,0,0,2.55.13,2,2,0,0,0,.42-.1l.15-.06h0c-.1-.14.86,1.24.45.66h0l-.05,0s-.08.09-.12.15l-.29.44h0l-.1-.06c-.33-.18-.71-.36-1.08-.54l-2.23-1.09-1.55-.76c-.58-.29-1.15-.58-1.65-.87a4.33,4.33,0,0,1-1.64-1.45.44.44,0,0,1-.05-.45.8.8,0,0,1,.37-.36,2.55,2.55,0,0,1,.88-.24,8.26,8.26,0,0,1,2.54.19c.64.12,1.42.31,2,.48s.92.26,1.37.42a10.49,10.49,0,0,1,2.65,1.25c.53.41.17.66-.43.76a5.22,5.22,0,0,1-2.5-.24c-.43-.16-.86-.31-1.3-.44l-.33-.1-.05,0h0s0,0-.13-.07a.36.36,0,0,0-.21,0s-.06,0-.07,0,0,.11.18.25a9.27,9.27,0,0,0,1.17.6l1.6.75.82.38.43.22.16.09.08.06,0,0a.43.43,0,0,1,.09.1.44.44,0,0,1,.08.11l0,0,0,.1a.81.81,0,0,1,0,.51.87.87,0,0,1-.28.35h0l0,0-.29.16a4.4,4.4,0,0,1-2.08.3c-1.39-.06-2.68-.38-3.91-.52a3.2,3.2,0,0,0-.8,0h-.1s0,0,0-.07a.44.44,0,0,0-.08-.11h0l0,.06h0l0,0,0-.05a.61.61,0,0,0-.14-.09h0a1.66,1.66,0,0,0,.21-.1l.05,0,.05,0h0a2.35,2.35,0,0,0,.61.4c.26.14.55.27.84.39a35.42,35.42,0,0,0,4.48,1.43c.58.14,1.17.28,1.74.38a9.78,9.78,0,0,1,1,.2,5.4,5.4,0,0,1,.91.42,20.17,20.17,0,0,1,2.92,2.3,13.63,13.63,0,0,0,4.52,2.79,9.72,9.72,0,0,0,1.09.3c1.37.29,1.81.33,2.12.8a1.82,1.82,0,0,1,.21.3c.16.32-.49.63-1.7.56a10.56,10.56,0,0,1-5.1-1.87c-1.52-1-2.8-2.33-4.06-3.29a5.22,5.22,0,0,0-1.37-.78c-.22,0-.37-.1-.8-.16l-1-.2c-1.31-.3-2.58-.66-3.86-1.07Z"/><path class="cls-2" d="M284.55,262.74c-1,.73-1.95,1.45-3,2.27l-1.32,1.06a4.3,4.3,0,0,1-1.21.79.88.88,0,0,1-.38,0,1.39,1.39,0,0,1-.22-.15l-.05,0h0c-.21.34-.06.1-.1.17h0l-.09-.06c-.06-.06-.13,0-.16-.21l-.09-.37a4,4,0,0,1,.1-.68c.15-.6.27-1.17.36-1.72l.11-.75.05-.44a14.4,14.4,0,0,0,.08-2.27c0-.19,0-.38,0-.56l-.06-.46a2.41,2.41,0,0,0-.1-.43.81.81,0,0,0-.25-.41c-.17-.11-.3.08-.34.21a4.4,4.4,0,0,0-.12.49l-.17.94c-.23,1.41-.47,2.85-.84,4.26a13.39,13.39,0,0,1-.95,2.68,6.13,6.13,0,0,1-1.8,2.32c-.5.39-.66,0-.59-.64a6.57,6.57,0,0,1,.69-2.21,18.71,18.71,0,0,0,1.6-4.94c.18-1,.37-2,.55-3,.29-1.71.87-2.86,2.21-2.41a3,3,0,0,1,1.32,1.83,6.75,6.75,0,0,1,.18.68l.08.35,0,.24c0,.3.08.61.1.91a13.85,13.85,0,0,1,0,1.82c0,.3,0,.6-.07.9l0,.4,0,.16-.07.29c0,.19-.13.44-.14.6.15-.09.3-.21.47-.33l.26-.2.46-.35,1.33-1c1.23-1,2.49-1.88,3.81-2.74.8-.51,3.52-2.28,3.63-.28a3.94,3.94,0,0,1-.72,2,8.7,8.7,0,0,1-.54.73c-.17.22-.36.43-.55.64-1.23,1.38-2.53,2.62-3.83,3.86l-.84.81c-1.07,1-1.44,1.21-2,1.15a2.09,2.09,0,0,1-.36,0c-.35-.09-.13-.78.62-1.6,1.11-1.21,2.32-2.32,3.49-3.46.58-.57,1.16-1.14,1.69-1.73.27-.3.51-.6.74-.9a1.53,1.53,0,0,0,.16-.22h0l-.32.19c-.91.57-1.81,1.22-2.7,1.89Z"/><path class="cls-2" d="M287.23,265.07c.66-.55,1.31-1.12,1.91-1.72.22-.22.39-.48.6-.7l.51-.58a1.28,1.28,0,0,0,.22-.24,1,1,0,0,0,.2-.34c.05-.13,0-.31-.14-.31a1.21,1.21,0,0,0-.67.2l-.73.41a3.57,3.57,0,0,1-.86.36c-.39.11-.76-1.49,0-1.87l.47-.24.55-.24a5.14,5.14,0,0,1,1.75-.45,1.4,1.4,0,0,1,1.19.51,1.42,1.42,0,0,1,.21,1.32,6.14,6.14,0,0,1-.87,1.71,10,10,0,0,1-.81,1,25.15,25.15,0,0,1-2,1.91l-1.27,1.08c-.65.54-1.33,1-2,1.57s-1,.87-1.5,1.28l-.37.27c-.49.29-.79.26-1-.12a1.65,1.65,0,0,1-.14-.26.75.75,0,0,1,.2-.82c.74-.68,1.64-1.41,2.54-2.13.66-.54,1.34-1.08,2-1.66Z"/><path class="cls-2" d="M288.28,267.53a19.68,19.68,0,0,0,1.84-1.56c.11-.1.19-.22.29-.33l.13-.16,0,0a1.15,1.15,0,0,0,.5-.77c0-.18-.17-.15-.27-.15a1.93,1.93,0,0,0-.62.29,6.37,6.37,0,0,1-.62.43,2.84,2.84,0,0,1-.82.4c-.38.11-.78-1.46-.17-1.85l.37-.23.46-.25a10.44,10.44,0,0,1,1.48-.65,2.34,2.34,0,0,1,1.17-.09c.32.06.51.28.79.58a2.06,2.06,0,0,1,.13.47,2.78,2.78,0,0,1-.29,1.44,6.92,6.92,0,0,1-1,1.5,17.16,17.16,0,0,1-1.93,1.8c-.41.34-.84.66-1.26,1-.65.49-1.33.92-2,1.38s-1,.76-1.56,1.1c-.13.07-.25.15-.39.21-.51.23-.78.15-.95-.25a2,2,0,0,1-.11-.28.73.73,0,0,1,.28-.78c.75-.55,1.64-1.15,2.53-1.77.65-.47,1.32-.94,1.95-1.46Z"/><path class="cls-2" d="M289,270.94a5.6,5.6,0,0,0,.69-.38s0-.05.07,0a1.88,1.88,0,0,0,.43.3.41.41,0,0,0,.21.05h0l-.2.22h0l-.09.1a.72.72,0,0,0-.1.22c0,.08,0,0,0,0s0,0-.1,0a3.5,3.5,0,0,0-.57,0,12.2,12.2,0,0,0-2.43.24,5.25,5.25,0,0,0-1.06.34,4.49,4.49,0,0,1-1.26.48c-.1,0-.36-.32-.44-.74s0-.91.33-1a8.35,8.35,0,0,1,3.08-.67c.64,0,1.27-.2,2-.19a2.21,2.21,0,0,1,1.44.43.89.89,0,0,1,.2.28.7.7,0,0,1,.06.4.85.85,0,0,1-.16.4,1.18,1.18,0,0,1-.28.3,3.46,3.46,0,0,1-.49.35c-.39.23-.78.42-1.17.61-.59.27-1.19.5-1.78.76s-.89.46-1.4.65a2.69,2.69,0,0,1-.34.12c-.46.1-.7,0-.75-.47a1.43,1.43,0,0,1,0-.29.91.91,0,0,1,.33-.69,19,19,0,0,1,2.16-1c.58-.26,1.17-.51,1.7-.81Z"/><path class="cls-2" d="M255.23,288.69a71.67,71.67,0,0,1-7,6.36,15.71,15.71,0,0,1-3,1.92,5.05,5.05,0,0,1-1.72.43,2.75,2.75,0,0,1-1-.14,2.23,2.23,0,0,1-.93-.72,4.29,4.29,0,0,1-.7-1.65,10,10,0,0,1-.25-1.58,37.54,37.54,0,0,1,.11-6.1c.15-1.78.32-3.56.53-5.32a36.4,36.4,0,0,1,1.21-6.74c.26-.73.61-.45.84.21a6.2,6.2,0,0,1,.19,3A97.19,97.19,0,0,0,242,292a12.08,12.08,0,0,0,.14,2,4.1,4.1,0,0,0,.56,1.65c.07.07.13.15.19.17s0,0,.08,0l.15,0a2,2,0,0,0,.77-.08,7.9,7.9,0,0,0,1.74-.8,44.48,44.48,0,0,0,7-5.94l2-2,2.44-2.54.2-.21c.06-.06.14-.17.19-.15.19.5.34,1,.57,1.51a4.83,4.83,0,0,0,.33.65,2.26,2.26,0,0,0,.26.42,14.46,14.46,0,0,0,1.24,1.59,19.79,19.79,0,0,0,3.05,2.66,14.84,14.84,0,0,0,5.87,2.48,8.66,8.66,0,0,0,1.34.07c.83,0,1.31-.16,1.71-.15a1.43,1.43,0,0,1,.88.06,3.34,3.34,0,0,1,.38.15c.16.1.11.29-.16.56a4.29,4.29,0,0,1-.59.44,5,5,0,0,1-.95.33,3,3,0,0,1-.82.15l-.85.06a11.68,11.68,0,0,1-1.66-.17,11.08,11.08,0,0,1-1.6-.42l-.78-.27-.75-.34a19.94,19.94,0,0,1-5.43-3.72,17,17,0,0,1-1.86-2.1l-.42-.59c-.06-.1-.13-.2-.19-.31L257,287h0s0,0,0-.05h0s.07-.09-.27.27l-1.45,1.5Z"/><path class="cls-2" d="M332.6,491.93c-6.24,9.86-26.62,9.51-29.85,4.1a15.19,15.19,0,0,1-13.48-.47c-4.5-16-5.08-135-2.62-179.66,8.73,4.29,33.15,8.71,38,7.24C327.22,342.79,340.69,473.35,332.6,491.93Z"/><path class="cls-2" d="M323.79,324.32s-.09,0-.14,0h-.34l-.55,0a19.63,19.63,0,0,1-2.17,0c-1.42-.05-2.82-.16-4.21-.32-2.79-.31-5.55-.73-8.29-1.23s-5.48-1.07-8.19-1.72-5.42-1.38-8.09-2.24c-.66-.23-1.33-.42-2-.68l-1-.38-.5-.19-.22-.08-.09,0-.33-.15-.17-.08c-.08,0,0,0,0,.06l-.06,1.08c-.15,2.76-.27,5.53-.38,8.3-.22,5.53-.38,11.07-.52,16.61-.19,8.08-.28,16.17-.38,24.25-.31,28.49-.26,57,.53,85.49.19,6.32.42,12.65.76,19s.76,12.62,1.57,18.8c.13,1,.31,2,.48,2.95l.29,1.27,0,.08.08,0,.17.08c.22.11.44.21.67.3a14.3,14.3,0,0,0,5.64,1.19,14,14,0,0,0,2.88-.3q.7-.15,1.41-.36c.24-.06.47-.15.7-.22l.36-.13.53-.2.53-.2.13-.05c.05,0,.1,0,.12,0l.18.24a5.18,5.18,0,0,0,.64.8,5.55,5.55,0,0,0,1.07.83,12.27,12.27,0,0,0,2.63,1.1,27.83,27.83,0,0,0,11.71.46,25.94,25.94,0,0,0,5.69-1.57,17.27,17.27,0,0,0,5-3c1.79-1.62,2.3-2.56,2.44-2.38s-.31,1.34-1.78,3a18.23,18.23,0,0,1-7.68,4.67,28.65,28.65,0,0,1-12.85,1.17,15.91,15.91,0,0,1-6.26-2.07,6.4,6.4,0,0,1-1.41-1.17h0l-.12,0-.65.22c-.26.09-.52.16-.78.23-.52.15-1.06.27-1.6.37a15.12,15.12,0,0,1-6.59-.21,19.18,19.18,0,0,1-3.09-1.09l-1.16-.55a.15.15,0,0,1-.1-.14l0-.19-.09-.37-.12-.55c-.11-.53-.26-1.06-.33-1.58-.7-4.15-1-8.27-1.35-12.39s-.53-8.25-.71-12.38c-.74-16.5-1-33-1.1-49.64-.1-19.86-.17-40.54.13-60.86.18-11.17.43-22.34.88-33.51l.19-4.19.25-4.84a6.52,6.52,0,0,1,.06-.8l.7.31,1.41.63c.21.09.52.24.65.28l.48.18,1,.37c1.29.46,2.61.91,3.94,1.29a140.56,140.56,0,0,0,16.26,3.67,83.16,83.16,0,0,0,10.16,1.16l1.27,0,1.24-.06h.31l.47-.09.94-.17.24,0c.08,0,0,.13.06.19l.07.49.12,1,.61,5.16c.77,6.84,1.47,13.68,2.15,20.51,2.05,20.73,3.82,41.57,5.27,62.19,1.11,16,2.12,31.76,2.41,47.66.06,3.5.1,6.93,0,10.46-.24,13.11-1.26,17.33-2.37,20-.3.59-.66,1.36-.87,1.67s-.21.14-.14-.33c0-.23.11-.55.21-.95,0-.19.11-.41.17-.65s.08-.52.13-.8A83.2,83.2,0,0,0,334,478.28c.34-7,.28-14.23.1-21.48s-.5-14.58-.88-22c-.8-14.75-1.86-29.71-3.09-44.68q-1.35-16.67-3-33.39l-1.67-16.7-.9-8.34-.86-7.37Z"/><path class="cls-2" d="M285.84,312.33c.08-.46.16-.92.25-1.37,0-.17,0-.34,0-.51.12-.6.28-1.2.43-1.79a3.58,3.58,0,0,0,.11-.79,1.7,1.7,0,0,1,.19-1c.14-.19,1.62.33,1.57.71a6.32,6.32,0,0,1-.55,1.94,4.51,4.51,0,0,0-.2,1.22c-.07.46-.15.92-.22,1.37l-.12.85c0,.43-.12.86-.13,1.29a6.7,6.7,0,0,0,.15,1,2.07,2.07,0,0,1,0,.22c0,.27-.1.35-.53.39l-.29,0a.71.71,0,0,1-.69-.32,4.18,4.18,0,0,1-.23-1.85c0-.46.09-.93.14-1.39Z"/><path class="cls-2" d="M300.3,407.84l.08,22.1.12,8.07c.1,9.47.21,18.94.51,28.4.12,4.2.35,8.42.62,12.58.18,2.67.41,5.34.66,8s.52,5.34,1,7.87c.39,1.5,0,1.54-.83.26a18.66,18.66,0,0,1-1.86-7c-.56-5.48-.84-11-1.06-16.45s-.33-11-.37-16.51c-.05-6.6-.26-13.47-.34-20.22l-.15-22.28c0-4.57,0-9.15,0-13.71,0-6.92,0-13.88,0-20.75-.06-5.33-.12-10.57-.18-15.85,0-1.16,0-2.3,0-3.47,0-4.35.1-5.73.53-6.66a3.91,3.91,0,0,1,.29-.61c.33-.42.6,1.35.69,4.53.26,9.44.29,19.39.31,29.37,0,7.42,0,14.87,0,22.31Z"/><path class="cls-2" d="M312.7,500.13c0,1.59.76,4.78.63,6.32-3.9.32-17.35,3.11-16.82,4.5,1.14,3,19.64.62,20.14-.64.74-1.84.83-9.37.63-9.62C316.71,500,313.52,500.12,312.7,500.13Z"/><path class="cls-2" d="M308.37,513.09a42.73,42.73,0,0,1-9.25-.07c-.29,0-.58-.09-.88-.17a4.2,4.2,0,0,1-.45-.11,3.42,3.42,0,0,1-.68-.25,1.87,1.87,0,0,1-1.41-1.78c.1-.63.78-1.06,1.54-1.4a9.14,9.14,0,0,1,.87-.35l.71-.23c1-.29,1.91-.53,2.86-.76,1.91-.45,3.82-.83,5.74-1.17l2.56-.46,1.28-.22,1.14-.17.3,0a.86.86,0,0,0,0-.32l-.05-.52-.21-1.43a22.1,22.1,0,0,1-.3-3c0-.75.45-.6.87-.07a5.81,5.81,0,0,1,1.16,2.75c.08.5.15,1,.21,1.54l0,.4c0,.2,0,.49,0,.73,0,.48,0,1-.06,1.45l-1.31.13-.92.1-1.27.18-2.55.4c-1.7.28-3.41.58-5.11.91a31.43,31.43,0,0,0-3.93,1l-.94.34-.24.1-.15.07c-.09.05-.23.12-.2.24a.43.43,0,0,0,.24.22l.17.08.1,0,.25.06a8.86,8.86,0,0,0,1.05.2,19.77,19.77,0,0,0,2.2.19c1.49.06,3,0,4.49,0q2.78-.15,5.54-.55c.84-.12,1.68-.26,2.5-.44.41-.08.81-.19,1.2-.3.18-.06.42-.14.52-.19s.23-.11.25-.23.11-.42.17-.67.09-.53.12-.8c.07-.54.13-1.08.16-1.63.08-1.08.1-2.15.08-3.22,0-.54,0-1.07-.05-1.6,0-.24,0-.59-.05-.72s0-.23-.13-.26l-.13,0-.19,0a5.77,5.77,0,0,0-.63-.07c-1.66-.1-2.25-.12-2.64-.56a1.66,1.66,0,0,1-.26-.28c-.17-.32.52-.64,1.87-.72a11.63,11.63,0,0,1,1.56,0c.38,0,1.63.19,2,1a3.25,3.25,0,0,1,.17.63l0,.53,0,.77q0,.77,0,1.53c0,1,0,2.05-.11,3.09a20,20,0,0,1-.43,3.22c0,.13-.12.41-.19.6s-.06.17-.15.21l-.16.21a2.64,2.64,0,0,1-.41.34,4.45,4.45,0,0,1-.45.22l-.31.11c-.4.14-.78.24-1.15.33-.75.18-1.49.31-2.23.44-1.48.24-3,.42-4.44.55Z"/><path class="cls-2" d="M295.41,497.34c.1,1.59,1.07,6.85,1,8.39-3.87.57-17.12,4-16.51,5.31,1.33,2.92,19.66-.38,20.08-1.66.62-1.89.55-11.21.33-11.46C299.73,497.23,296.23,497.27,295.41,497.34Z"/><path class="cls-2" d="M292.4,512.49c-1.62.23-3.25.41-4.89.51a29.75,29.75,0,0,1-5,0c-.24,0-.49-.06-.73-.11a2.2,2.2,0,0,1-.37-.07l-.56-.14c-.19-.06-.35-.15-.53-.22a2.12,2.12,0,0,1-.47-.26,2.64,2.64,0,0,1-.66-.72l-.08-.26,0-.06c.06,0,0-.05,0-.08s0-.09,0-.14a.76.76,0,0,1,.14-.49,2.36,2.36,0,0,1,.84-.78,5.39,5.39,0,0,1,.58-.32l.3-.14.2-.09c.51-.21,1-.39,1.51-.56,1-.34,2-.64,3-.92,2-.56,4-1.05,6.08-1.5l2.26-.49,1.78-.36a2,2,0,0,0,0-.42l-.1-.79-.13-.87-.28-1.73a31.32,31.32,0,0,1-.4-3.52c0-.78.4-.67.86-.11a6.39,6.39,0,0,1,1.22,2.95l.35,2.43.14,1.24,0,.45c0,.2,0,.4,0,.6v1.18l-2.09.34-1.15.21-2.31.47c-1.54.33-3.09.67-4.63,1a37.16,37.16,0,0,0-3.92,1.14c-.61.21-1.33.49-1.82.72a1.64,1.64,0,0,0-.29.16c-.09.05-.2.17-.09.26a.37.37,0,0,0,.13.12l.18.08a.38.38,0,0,0,.1,0l.15,0a10.06,10.06,0,0,0,1.12.17,23.05,23.05,0,0,0,2.36.09c1.6,0,3.2-.15,4.8-.33a57.84,57.84,0,0,0,5.87-.94c.71-.15,1.41-.32,2.09-.51.34-.11.68-.21,1-.33a3.68,3.68,0,0,0,.37-.17c.09-.05.19-.11.19-.22l.05-.17,0-.28a5,5,0,0,0,.08-.56c.05-.38.08-.77.11-1.15.05-.78.09-1.56.11-2.33,0-1.16,0-2.32-.05-3.46l-.09-1.72c0-.26,0-.61-.07-.79s0-.24-.15-.27a6.12,6.12,0,0,0-1.08-.17c-1.81-.12-2.41-.15-2.82-.58a2,2,0,0,1-.29-.28c-.22-.31.58-.67,2-.71a11.47,11.47,0,0,1,1.65,0l.44,0a4.45,4.45,0,0,1,.55.13,2.26,2.26,0,0,1,.63.29,1,1,0,0,1,.44.5c.08.22.14.44.2.67l.05.53.06.83c0,.54,0,1.08.07,1.63a61.74,61.74,0,0,1-.17,6.63c0,.26-.05.52-.1.8l-.06.41c0,.14-.11.44-.16.65a2.26,2.26,0,0,1-.62.76,2.82,2.82,0,0,1-.44.26,2.24,2.24,0,0,1-.29.12c-.38.16-.73.27-1.08.38-.7.21-1.38.38-2.07.53-1.38.31-2.76.55-4.14.76Z"/><path class="cls-2" d="M294.45,252.32a2.43,2.43,0,0,1-.6-.51,3,3,0,0,1-.37-.61,4.67,4.67,0,0,1-.21-.66,2.09,2.09,0,0,1,0-.75,3.49,3.49,0,0,1,.21-.86,3.22,3.22,0,0,1,1-1.24,1.65,1.65,0,0,1,.92-.35,1.4,1.4,0,0,1,1.46,1.14,1.63,1.63,0,0,1-.09.85,1.44,1.44,0,0,1-.81.83,1.13,1.13,0,0,1-1.1-.14c-.18-.14.09-.47.33-.8a1.78,1.78,0,0,0,.28-.49s0-.09,0-.07,0,0,0,.06a.38.38,0,0,0,0,.08s-.06-.09-.12-.11a.3.3,0,0,0,.2,0c.13,0,.06-.1-.05.19a.17.17,0,0,0,0-.1s0,.08,0,.07,0,0,0,0c-.23,0-.5.46-.62.85a1.92,1.92,0,0,0-.11.55l.1.31c.05.07.08.19.15.25a.8.8,0,0,0,.63.31,2.2,2.2,0,0,0,1.38-.38,2.56,2.56,0,0,0,.73-.89c0-.08.07-.15.09-.22.13-.23.22-.24.66-.16l.29,0a.54.54,0,0,1,.46.69,3.47,3.47,0,0,1-2.11,2.23,3.09,3.09,0,0,1-2.72-.05Z"/><path class="cls-2" d="M290.43,241.09c.57-.82,1.13-1.66,1.65-2.54.19-.32.33-.66.53-1,.67-1.13,1.35-2.27,2-3.42a15.45,15.45,0,0,0,.76-1.59,8.35,8.35,0,0,1,1-2c.3-.38,1.43.84,1.07,1.62a28,28,0,0,1-2.27,4c-.53.77-.9,1.66-1.37,2.49s-1.07,1.8-1.65,2.68c-.36.54-.73,1.07-1.1,1.6l-1.74,2.35c-.43.61-.79,1.26-1.19,1.89-.09.14-.17.28-.26.41-.36.5-.57.58-1,.42a1.81,1.81,0,0,1-.28-.12c-.3-.16-.36-.52-.16-.93a24.51,24.51,0,0,1,2.2-3.42c.6-.83,1.21-1.64,1.75-2.49Z"/><path class="cls-2" d="M278.62,232.32c.62-1.28,1.25-2.54,1.82-3.81.21-.47.37-.95.57-1.41a19.14,19.14,0,0,0,.78-2.09,1.45,1.45,0,0,0,.09-.48.19.19,0,0,0-.12-.19.65.65,0,0,0-.24,0,1.47,1.47,0,0,0-.42.1,3.07,3.07,0,0,0-1.59,1.27,7.62,7.62,0,0,0-.81,2.59c-.06.28-.48.27-.87,0a1.56,1.56,0,0,1-.58-1.61,5.27,5.27,0,0,1,1.48-2.62,4.59,4.59,0,0,1,1.27-.88,6.3,6.3,0,0,1,.72-.28c.34-.08.74-.17,1.1-.23l.55,0a1.29,1.29,0,0,1,1,1.1,4.17,4.17,0,0,1-.13,1.54c-.09.34-.19.67-.29,1-.21.65-.43,1.27-.69,1.88-.56,1.33-1.18,2.62-1.79,3.9-.38.8-.76,1.58-1.11,2.38a19.29,19.29,0,0,0-.72,1.8,5.35,5.35,0,0,0-.18,1.82A12.32,12.32,0,0,0,279,241l.2.62c.21.77.19,1-.17,1.34-.09.06-.17.14-.25.19-.3.17-.66-.08-.91-.66a11.89,11.89,0,0,1-.93-5.89,5.77,5.77,0,0,1,.34-1.26c.13-.37.27-.71.41-1.05l.89-2Z"/><path class="cls-2" d="M274.66,230a3.6,3.6,0,0,0,.49.23l.26.09c.06,0,.1,0,.09.09a1,1,0,0,0,.08.33l-.08-.06-.08,0-.16-.06s.05-.15,0-.32a5,5,0,0,0-.19-.84,13.83,13.83,0,0,0-1.34-3.17,6.65,6.65,0,0,0-.92-1.24c-.43-.48-1-.87-1.3-1.22-.08-.09,0-.51.36-.79a1.11,1.11,0,0,1,1.35,0,9.5,9.5,0,0,1,2.47,3.79,27.51,27.51,0,0,1,1,2.57,3,3,0,0,1,0,1.86,1.27,1.27,0,0,1-.52.56,1.37,1.37,0,0,1-.67.15,4.12,4.12,0,0,1-.88-.2,5.47,5.47,0,0,1-1.67-1,9.89,9.89,0,0,1-1.83-2.12c-.4-.58-.83-1.13-1.19-1.74-.08-.14-.17-.26-.24-.4-.25-.53-.21-.74.14-1,.09-.06.16-.13.25-.18a.66.66,0,0,1,.86.28c.69.95,1.28,2,2,2.85a5.7,5.7,0,0,0,1.75,1.56Z"/><path class="cls-2" d="M274.1,235l-.22,0-.24-.11-.47-.21a4,4,0,0,1-.88-.53c-.35-.26-.66-.53-1-.81s-.47-.37-.67-.59a25,25,0,0,1-2-2.41c-.27-.37-.56-.72-.85-1.07a3.54,3.54,0,0,1-.92-1.57c0-.21.36-.32.79-.36s.87,0,1,.22c.54.86,1.2,1.77,1.8,2.73a8.71,8.71,0,0,0,1.4,1.51c.28.25.55.51.84.74a3.13,3.13,0,0,0,.42.34,1.92,1.92,0,0,0,.21.16,1.27,1.27,0,0,0,.65.27h.05a.29.29,0,0,0,.31-.38,1.4,1.4,0,0,0-.28-.54l-.17-.18-.09-.07-.14-.14-.61-.56c-.09-.08-.19-.15-.28-.24-.32-.34-.35-.56-.06-.9a2,2,0,0,1,.2-.21.68.68,0,0,1,.83-.08,7.47,7.47,0,0,1,1.2,1l.15.18.24.3a4.38,4.38,0,0,1,.43.63,2.68,2.68,0,0,1,.32.63,1.74,1.74,0,0,1,.16.59,1.48,1.48,0,0,1-.18,1,1.12,1.12,0,0,1-.36.42,2,2,0,0,1-.43.28l-.59.1a4.72,4.72,0,0,1-.64-.05Z"/><path class="cls-2" d="M269.94,236.69c0,.07.09.17.15.14s.11-.08.14-.16a.37.37,0,0,0,0-.11v-.29a15.82,15.82,0,0,0-.53-3.11,8.94,8.94,0,0,0-.49-1.34,6.91,6.91,0,0,1-.69-1.69c-.06-.39,1.56-.61,1.86.08a12.63,12.63,0,0,1,1.06,3.8c.08.82.34,1.53.39,2.5a3.79,3.79,0,0,1-.32,1.86,1,1,0,0,1-.22.34,1.16,1.16,0,0,1-.28.26.88.88,0,0,1-.75.23,2.44,2.44,0,0,1-1.45-1.4,11.18,11.18,0,0,1-.58-1.3c-.15-.38-.29-.76-.44-1.13-.24-.58-.54-1.12-.81-1.68-.06-.12-.13-.23-.18-.36-.19-.46-.14-.63.22-.88a2.27,2.27,0,0,1,.25-.18.61.61,0,0,1,.84.27,16.19,16.19,0,0,1,1.45,3l.41,1a.14.14,0,0,0,0,.09Z"/><path class="cls-2" d="M271.34,248.56c-.18-.62-.4-1.23-.63-1.85-.08-.22-.22-.43-.3-.65-.3-.81-.59-1.63-.89-2.43a11.13,11.13,0,0,0-.48-1.06,2.74,2.74,0,0,1-.47-1.48c0-.18.42-.22.85-.19s.83.11.92.33a21.51,21.51,0,0,1,.9,2.71,12.3,12.3,0,0,0,.7,1.69c.26.63.5,1.27.73,1.91l.39,1.21a19.52,19.52,0,0,1,.47,1.9,6.62,6.62,0,0,1,.25,1.61c0,.13,0,.27,0,.4-.14.5-.37.62-.75.47a1.28,1.28,0,0,1-.27-.11,1,1,0,0,1-.48-.62,16.79,16.79,0,0,0-.4-2c-.14-.57-.33-1.19-.54-1.79Z"/><path class="cls-2" d="M313.67,23.42a103.86,103.86,0,0,0-29-6.07l-3.7-.14-1.86-.07c-.61,0-1.23.1-1.84.14-2.46.25-4.93.32-7.38.78l-3.68.56c-1.23.15-2.43.51-3.65.75l-3.63.8c-1.2.31-2.39.67-3.59,1a116.94,116.94,0,0,0-20.23,7.92,160.26,160.26,0,0,0-31.94,21.23q-7.34,6.22-14.1,13.09c-4.51,4.58-8.8,9.37-12.91,14.3q-5.47,6.59-10.47,13.56c-1.67,2.31-3.27,4.67-4.85,7-.77,1.2-1.55,2.38-2.3,3.59s-1.66,2.68-1.82,2.95l-.13.23-.06.11s-.08.1,0,.08.4-.06.6-.07l.31,0h.47c.9,0,1.8-.06,2.71,0a50.32,50.32,0,0,1,15.91,2.8l2.53,1c.85.31,1.64.77,2.46,1.15a46.64,46.64,0,0,1,4.71,2.67c.76.48,1.46,1.07,2.19,1.59l1.08.82.54.41.5.45,2,1.84c.33.31.68.6,1,.93l.89,1c3,3.48,2.22,3.28-.68.76a57.94,57.94,0,0,0-16-10,45,45,0,0,0-10.95-3c-.94-.15-1.89-.22-2.83-.33s-1.9-.13-2.85-.17-1.89,0-2.84,0h-.69l-.18,0-1.5.14c-1,.07-2.06.24-3.07.36.65-1.15,1.32-2.32,2-3.49l.52-.88.29-.46.54-.89c.74-1.17,1.48-2.34,2.24-3.49,1.51-2.32,3.08-4.6,4.68-6.86,3.21-4.5,6.55-8.91,10.07-13.19s7.17-8.44,11-12.5S191.89,58,196,54.25C209.33,42.14,224.86,31.08,242,24a113.63,113.63,0,0,1,29.36-8c2.53-.28,5.08-.46,7.62-.68,2.55.11,5.11.13,7.64.33A106,106,0,0,1,301.64,18a126.18,126.18,0,0,1,34.67,13.88c16.39,9.45,31,21.84,43.88,35.4Q387,74.45,393.13,82q3.08,3.78,6,7.68,1.45,2,2.87,3.93c.65,1,1.37,2,2.05,3l1,1.57.51.79c.08.13,0,.1.06.2l.09.24-2-.94c-.35-.18-.63-.29-.92-.42l-.89-.37a10.83,10.83,0,0,0-1.68-.61l-.62-.17-.48-.13a22.94,22.94,0,0,0-9-.31,20.15,20.15,0,0,0-6.72,2.36,15.45,15.45,0,0,0-2.28,1.42l-1.79,1.3c-1,.9-1.77,1.6-2.46,2.16s-1.13,1.1-1.63,1.51-1,.9-1.31,1.1c-.51.33-.08-.49,1.17-2.28a24,24,0,0,1,7.46-6.74,22.55,22.55,0,0,1,10.3-3,24.14,24.14,0,0,1,5.49.39l1.37.28.81.22.34.11a21,21,0,0,0-1.78-2.52c-1.41-1.93-2.85-3.86-4.34-5.76q-4.46-5.73-9.29-11.25c-3.22-3.69-6.59-7.28-10-10.8s-7.05-6.92-10.76-10.19a185.69,185.69,0,0,0-24-18.12,135.07,135.07,0,0,0-27-13.2Z"/><path class="cls-2" d="M269.07,113.61a47.69,47.69,0,0,0-5.76,4.14c-.92.75-1.79,1.55-2.65,2.37-.42.41-.84.83-1.25,1.25l-.3.32-.16.17-.21.24c-.36.41-.72.83-1.07,1.25l-2.78-1.66-1-.6-1-.55c-1-.55-2-1.09-3.1-1.54l-1.57-.72c-.53-.23-1.07-.43-1.61-.65A49.92,49.92,0,0,0,222.68,114a46.91,46.91,0,0,0-10.57,2.36,60.61,60.61,0,0,0-12.36,6.14c-1.16.79-1.34.32-.61-.81a14,14,0,0,1,4.92-4,49.5,49.5,0,0,1,28.46-5.38,57.13,57.13,0,0,1,8.77,1.66c1.46.36,2.88.86,4.31,1.33.7.25,1.4.54,2.1.81s1.39.56,2.06.88l2.09,1,2,1.08c.68.35,1.35.74,2,1.14l1.38.83.45-.49.9-1c.62-.62,1.25-1.23,1.9-1.81a47.63,47.63,0,0,1,4.05-3.32,45.27,45.27,0,0,1,10.57-5.89,34.08,34.08,0,0,1,18.08-1.92,38.72,38.72,0,0,1,13.16,4.76c.88.54,1.8,1,2.63,1.61s1.44,1,2,1.42a12.82,12.82,0,0,1,1.24,1.09,4.24,4.24,0,0,1,1.09,1.53,2.92,2.92,0,0,1,.19.6c0,.52-1.36-.23-3.57-1.83A48,48,0,0,0,299.08,110a34.07,34.07,0,0,0-12.26-2,36.26,36.26,0,0,0-17.72,5.65Z"/><path class="cls-2" d="M385.94,79.59s-18.46-4.82-23.06,11.1c-.19-.13-.38-.25-.59-.37h0C355,65.93,340.67,55.13,334,51.25a1,1,0,0,0-1.37.39h0A1,1,0,0,0,333,53c6.29,3.63,19.55,13.63,26.81,36-12.08-5.42-36.5-5.18-44.8,12.24l-.68-.1c-1.47-9.27-8.69-37.84-18.79-48.36a1,1,0,0,0-1.46,0h0a1,1,0,0,0,0,1.39C303.23,63.68,310,88.9,312,99.54c-29.21-19-52.66,6.7-52.66,6.7a7,7,0,0,1-.67-.51c-.75-2,1.33-23.67,9.06-44.29a1,1,0,0,0-.57-1.28h0a1,1,0,0,0-1.3.58c-6.48,17.31-9.48,37.08-9.22,43.86-28-16-49.23.59-49.23.59l-.33-.46c7.15-23.83,23.12-41.59,36.08-50.58a1,1,0,0,0,.26-1.37h0a1,1,0,0,0-1.4-.27c-16.56,11.43-30,30-36.44,50.27a41.39,41.39,0,0,0-33-15.64s43-59.89,96.69-67C334.63,9.52,385.94,79.59,385.94,79.59Z"/><path class="cls-2" d="M281.12,9.22a1.33,1.33,0,0,0-1.34-.55,1,1,0,0,0-.24.14,2.61,2.61,0,0,1-.24.22,5.42,5.42,0,0,0-1.2,2.89,4.78,4.78,0,0,0,0,1.51c.12.63.39,1.19.47,1.67,0,.15-.33.49-.83.58a1.17,1.17,0,0,1-1.33-.66,6.71,6.71,0,0,1-.27-2.48,6.82,6.82,0,0,1,.54-2.35,6.68,6.68,0,0,1,1.58-2.7,2.51,2.51,0,0,1,1.87-.66,3.27,3.27,0,0,1,1.76.61,3.86,3.86,0,0,1,1.24,1.73,10.78,10.78,0,0,1,.54,2.83c.07.71.21,1.41.29,2.11,0,.15,0,.3,0,.45,0,.57-.1.73-.6.86l-.34.08a.72.72,0,0,1-.81-.6,33.39,33.39,0,0,1-.52-3.61,4.44,4.44,0,0,0-.68-2Z"/><path class="cls-3" d="M207.07,104.73q-.73-1-1.5-2Z"/><path class="cls-3" d="M362.3,90.32h0a20.18,20.18,0,0,0-2.5-1.31Z"/><path class="cls-3" d="M314.31,101.12c-.77-.56-1.54-1.09-2.31-1.58Z"/><path class="cls-2" d="M248.25,197.14c1.69,2,4.46,4.74,7.29,3.2,2.62-1.41-.49-4.77-1.49-6.24-.36-.52-2,.07-1.61.71s1,1.43,1.5,2.17c.33.52,1.22,1.78.84,2.45-.85,1.52-4.35-2.32-4.92-3-.42-.49-2.08.14-1.61.7Z"/><path class="cls-2" d="M255.5,192.15c1.17,1.56,2.9,5.06,5.38,3.87,2.86-1.37-.33-4.55-.86-6.34-.24-.79-2-.32-1.74.47a10.71,10.71,0,0,0,1.14,2.3c.24.42,1.28,1.86.85,2.37s-2.8-2.92-3.18-3.43-2.12.05-1.59.76Z"/><path class="cls-2" d="M258,200.94a12.14,12.14,0,0,0,5.26,1.58c1.28,0,3.5-.45,3.91-1.92.69-2.42-4.8-3-5.53-4.7-.33-.79-2.48-.13-2.18.58.72,1.71,3.31,2.25,4.71,3.23,1,.69,1.16,1.62-.42,1.52a10.56,10.56,0,0,1-4-1.37c-.66-.34-2.65.6-1.73,1.08Z"/><path class="cls-2" d="M252.67,190.71c-.77.59-1.1.69-1.33.6a4.25,4.25,0,0,0-2.22-.17,5.43,5.43,0,0,0-1.89.64,7.88,7.88,0,0,0-1.44,1.16,10.64,10.64,0,0,0-1.2,1.48,7.9,7.9,0,0,0-.58,1,5.57,5.57,0,0,0-.33,1c0,.05,0,.12-.06.16a1.32,1.32,0,0,1-1-.25c-.07,0-.19-.13-.19-.16.09-.29-.45-.79-.27-1.1.3-.58.47-1.21.79-1.79a2.37,2.37,0,0,1,.46-.63,8,8,0,0,1,.76-.66,14.41,14.41,0,0,1,1.28-1.14,7.42,7.42,0,0,1,2.66-1.38,5.65,5.65,0,0,1,3,.06c.37.16.69.29.91.4a3.71,3.71,0,0,1,.33.25A3.08,3.08,0,0,1,252.67,190.71Z"/><path class="cls-2" d="M255.2,187.92c-.88-.08-1.06-.25-1.09-.39a2.51,2.51,0,0,1,.19-1.53,2.88,2.88,0,0,1,1-1,3.1,3.1,0,0,1,2.35-.37,3.61,3.61,0,0,1,.64.27,3.86,3.86,0,0,1,.56.32s.08,0,.08.08-.22.43-.44.61l-.13.12c-.12-.06-.48.3-.56.26s-.41,0-.57,0a.4.4,0,0,1-.19,0,.92.92,0,0,0-.24-.13,1.13,1.13,0,0,0-1,.51,2.52,2.52,0,0,0-.39,1.09S255.32,187.83,255.2,187.92Z"/><path class="cls-2" d="M259.15,209.46c.64-.53.78-.66,1-.63a12.81,12.81,0,0,1,1.6.29c.46.09.9.28,1.32.34a.87.87,0,0,0,.61-.05.64.64,0,0,0,.23-.44,1,1,0,0,0,0-.45c0-.16-.15-.28-.1-.46,0,0,0-.05,0-.1a1.76,1.76,0,0,1,.73-.4,1,1,0,0,1,.19,0c.06.08.24.11.43.15s.41.09.42.23a5.77,5.77,0,0,1,.22,1.5,1.4,1.4,0,0,1-.22.64,2.27,2.27,0,0,1-.66.65,2.38,2.38,0,0,1-1.44.54,6.9,6.9,0,0,1-1.85-.37,14,14,0,0,1-1.55-.57,4.14,4.14,0,0,1-.71-.42A1.74,1.74,0,0,1,259.15,209.46Z"/><path class="cls-2" d="M284.88,179.58c-.71,1.86-.83,6.18,1.82,6.55,3.6.5,4.54-4.28,5.31-6.78.22-.74-1.68-.49-1.9.2-.26.88-1.57,6.25-2.9,5.22s-.93-4.09-.44-5.39c.27-.69-1.63-.48-1.89.2Z"/><path class="cls-2" d="M296,180.29c-.67,2-1.25,4-.5,6.1a2.45,2.45,0,0,0,2.42,1.85c2.4-.08,4.29-2.72,5.42-4.56.61-1-1.46-1-1.94-.25a13.38,13.38,0,0,1-1.41,1.86c-.36.4-1.08,1.3-1.66,1.37s-.79-.71-.93-1.26a8.19,8.19,0,0,1,.55-4.85c.38-1.13-1.65-1.15-1.95-.26Z"/><path class="cls-2" d="M291.71,185.27a43.56,43.56,0,0,0-3.64,3.42c-.91,1-2.33,2.48-2.24,3.94.2,3.58,6.12-.36,7.65-.07,1.07.2,2.2-1.31.75-1.58a6.86,6.86,0,0,0-3.82.7c-.57.23-2.44,1.47-2.36.38s1.47-2.35,2.19-3.11c.92-.95,1.91-1.83,2.92-2.69s-.62-1.69-1.45-1Z"/><path class="cls-2" d="M289,200.78c.78-.07,1-.13,1,0a1.81,1.81,0,0,0,1,.38,1.79,1.79,0,0,0,.9-.09,2.94,2.94,0,0,0,.83-.45,6,6,0,0,0,.78-.67c.14-.16.3-.29.43-.46a5.89,5.89,0,0,0,.32-.54s0-.08.07-.08a2,2,0,0,1,.78.58c.05.06.14.16.13.17s.29.65.14.78a7.64,7.64,0,0,0-.62.91,1,1,0,0,1-.35.29c-.17.1-.37.16-.53.25s-.43.28-.91.49a3.47,3.47,0,0,1-1.81.36,2.81,2.81,0,0,1-1.69-.72,2.43,2.43,0,0,1-.55-.71A1,1,0,0,1,289,200.78Z"/><path class="cls-2" d="M297.79,175.05c-.3-.83-.15-1.16.07-1.34a5.82,5.82,0,0,1,2.65-1.25,5.64,5.64,0,0,1,2.64.21,6.88,6.88,0,0,1,2,1,8.9,8.9,0,0,1,1.6,1.46c.28.32.52.66.77,1s.49.64.71,1c0,.06.1.1.09.18s-.46.46-.85.52c-.09,0-.22.06-.24,0-.15-.24-.82-.11-.94-.35a4.26,4.26,0,0,0-1.07-1.09,4.07,4.07,0,0,1-.4-.43,4.54,4.54,0,0,0-.46-.6,3.73,3.73,0,0,0-1.06-.71,4.5,4.5,0,0,0-2-.48,5.26,5.26,0,0,0-2,.46,9.39,9.39,0,0,0-.95.42A3,3,0,0,1,297.79,175.05Z"/><path class="cls-2" d="M283.79,173.42c-.47-.69-.36-1.07-.16-1.22a5.13,5.13,0,0,1,2.26-1.15,6.14,6.14,0,0,1,2.18-.05,6.17,6.17,0,0,1,3.46,1.51,6,6,0,0,1,.78.82,6.75,6.75,0,0,1,.69.83c0,.05.1.09.09.16a1.26,1.26,0,0,1-.84.54c-.08,0-.22.06-.23,0-.15-.19-.79,0-.88-.19a2.5,2.5,0,0,0-.94-.74c-.12-.1-.25-.17-.36-.28a2.92,2.92,0,0,0-.42-.44,3.26,3.26,0,0,0-1-.41,4.73,4.73,0,0,0-1.81-.21,5.35,5.35,0,0,0-1.72.37,5.91,5.91,0,0,0-.71.37A2.37,2.37,0,0,1,283.79,173.42Z"/><path class="cls-2" d="M312.65,152.45c-33.06,43.17-53.68,2.82-36.07-6.85C292.49,136.88,308.52,150.4,312.65,152.45Z"/><path class="cls-2" d="M317,156.1c-15.06,20.34,16.37,27.65,19.27,21.77C342.48,165.24,326,155.34,317,156.1Z"/><path class="cls-2" d="M285.29,297.58c.52-.74,1-1.46,1.59-2.17.19-.26.35-.55.55-.8.71-.9,1.46-1.77,2.19-2.65.32-.39.61-.8.89-1.22a5.81,5.81,0,0,1,1.18-1.53c.32-.25,1.25,1.09.82,1.69a25.59,25.59,0,0,1-2.54,3,15.22,15.22,0,0,0-1.45,1.91c-.53.7-1.06,1.41-1.56,2.13-.32.44-.61.9-.9,1.35a15.32,15.32,0,0,0-1.18,2.13,7.58,7.58,0,0,0-.47,1.75,2.33,2.33,0,0,1,0,.37c-.07.44-.15.53-.6.63a1.63,1.63,0,0,1-.3.07c-.33.06-.59-.17-.63-.65a7.33,7.33,0,0,1,1-3.66,26.26,26.26,0,0,1,1.41-2.36Z"/></g></svg>