<svg id="Layer_1" data-name="Layer 1" xmlns="http://www.w3.org/2000/svg" width="520" height="520" viewBox="0 0 520 520"><defs><style>.cls-1{fill:#353333;}.cls-2{fill:#221f1f;}.cls-3{fill:none;stroke:#221f1f;stroke-miterlimit:10;stroke-width:3px;}.cls-4{fill:#232020;}</style></defs><title>Notioly v2</title><g id="_56.Mask" data-name="56.Mask"><path class="cls-1" d="M265.3,436.84l.52.31.59.33a1.88,1.88,0,0,0,.29.16l.48.24.17.08s0,0,0,0l0,0s-.3-.2-.68-.41l-1.21-.65-.35-.18-.26-.14-.15-.07h0Z"/><path class="cls-1" d="M265.53,438l.36-.52s.14-.19.4-.58a1.9,1.9,0,0,0,.19-.29l.3-.48.1-.17h0l0,0s-.23.28-.49.66l-.78,1.2-.23.35-.16.25-.1.15,0,0C265.55,438,265.23,438.42,265.53,438Z"/><path class="cls-1" d="M265.16,437.45l.61-.13.68-.15a2.65,2.65,0,0,0,.33-.08l.54-.14.19-.06s0,0,0,0h0l-.8.16-1.38.34-.4.1-.29.07-.16,0s0,0,0,0Z"/><path class="cls-1" d="M265.76,436.51l.13.56.14.62c0,.13.08.26.09.3a4.46,4.46,0,0,1,.14.49l.06.17s0,0,0,0v0s-.05-.33-.15-.74l-.34-1.25-.1-.37-.07-.26-.05-.15v0C265.77,436.56,265.66,436.05,265.76,436.51Z"/><path class="cls-2" d="M135.1,370.73c-.64,0-1.27.11-1.92.13l-2.07-.09a10.15,10.15,0,0,1-2-.3,11.4,11.4,0,0,1-2-.51,14.26,14.26,0,0,1-2.78-1,22.8,22.8,0,0,1-7.37-6.66c-.45-.56-.82-1.16-1.25-1.72s-.78-1.17-1.14-1.76a17.37,17.37,0,0,1-2.07-4.9c-.11-.55-.18-.43.09-.06a15.48,15.48,0,0,0,1.78,1.61c2.63,2.45,5.11,4.58,7.45,6.83a15.88,15.88,0,0,0,5.08,2.79,19.58,19.58,0,0,0,6.23,1.2l2.12,0c.7,0,1.4-.12,2.11-.18a22.16,22.16,0,0,0,6.17-1.59,20.65,20.65,0,0,0,4.1-2.61c.29-.21.56-.44.84-.68a12.5,12.5,0,0,0,1.59-1.45.62.62,0,0,0,.1-.17,14.39,14.39,0,0,1-.47,1.46,14.57,14.57,0,0,1-2.72,4.32,16.69,16.69,0,0,1-4.27,3.26,22.7,22.7,0,0,1-7.55,2.27Z"/><path class="cls-2" d="M236.59,295.62a50.17,50.17,0,0,1-3.6-4.34c-.41-.54-.88-1-1.27-1.58-1.35-1.95-2.57-4-3.78-6-.53-.9-1.14-1.75-1.74-2.59a11.35,11.35,0,0,1-2.06-3.42c-.24-.82,3-1.47,3.75-.25a70.44,70.44,0,0,1,4,6.89,26.48,26.48,0,0,0,2.79,4c1.07,1.43,2.16,2.84,3.34,4.16a31.07,31.07,0,0,0,2.29,2.3,17.56,17.56,0,0,0,1.9,1.47,8.12,8.12,0,0,0,1,.6,5,5,0,0,0,.53.23,2.81,2.81,0,0,0,.45.16,2,2,0,0,0,.53.07,1.64,1.64,0,0,0,.23,0c.08,0,.13-.11.18-.19a1.46,1.46,0,0,0,.14-.48,1.66,1.66,0,0,0,0-.22v-.1l0-.19c0-.23,0-.45,0-.67,0-.79.18-.92,1-1.31.18-.09.35-.2.53-.28a.86.86,0,0,1,.91.05,1.68,1.68,0,0,1,.63,1.11,6.65,6.65,0,0,1,0,2.27,5.09,5.09,0,0,1-1.59,2.83,2.19,2.19,0,0,1-.71.37l-.8,0a4.9,4.9,0,0,1-1.7-.23,5.75,5.75,0,0,1-1.28-.42,8.23,8.23,0,0,1-1-.48,21.33,21.33,0,0,1-4.73-3.72Z"/><path class="cls-2" d="M205.11,285.44a38.69,38.69,0,0,1-4.37,3.6c-.56.41-1.05.89-1.63,1.26-.9.54-1.83,1.05-2.78,1.51-.23.12-.48.23-.73.34l-.5.26c-.18.07-.38.12-.55.19l-1,.38a5,5,0,0,1-1,.24,2.94,2.94,0,0,1-1.23,0,1.12,1.12,0,0,1-.71-.56,2.06,2.06,0,0,1-.17-.33,2.57,2.57,0,0,0-.11-.36c0-.12-.07-.24-.1-.36s0-.28-.05-.45a4.09,4.09,0,0,1,0-.5,1.69,1.69,0,0,1,.12-.64c.1-.3.13-.56.26-.86s.32-.6.43-.85a9.52,9.52,0,0,1,.58-1.12,18.12,18.12,0,0,1,1.17-1.69c.28-.33.16-.32.1,0a14,14,0,0,0,.11,1.9c0,.27,0,.55,0,.82,0,.1,0,.06,0,.06h0l0,0a.46.46,0,0,0-.07.18.22.22,0,0,0,0,.14c0,.06,0,0,.05.18.07,0,.18.08.34.08s.47-.18.77-.39.62-.48.93-.73c.6-.53,1.19-1.06,1.81-1.57,1.39-1.08,2.8-2.16,4.18-3.29.86-.69,1.71-1.4,2.53-2.13l1.86-1.69c.59-.6,1.2-1.18,1.75-1.8s.81-1,1.22-1.49a16.92,16.92,0,0,1,1.23-1.48l.58-.62a16.78,16.78,0,0,1,1.27-1.13.44.44,0,0,0,.09-.13,8.43,8.43,0,0,0-.28,1.14c-.26,1.21-.57,2.47-1,3.71a21,21,0,0,1-1.6,3.55,25.06,25.06,0,0,1-3.45,4.59Z"/><path class="cls-3" d="M202.76,192.74c-.08-8.23.8-13.77,2-22.06"/><path class="cls-2" d="M331.9,152.51c-3.73,22.12-34.43,70.85-12.84,70.85,0,0,7.86-4.73,10.29,4.76,2.17,8.48-9.54,55.61-56,47.9-11.46-20-27.52-34.69-51.79-34.69-10,0-17.76,4.5-24.59,11.8-6.71-1.15-33.74-37.29,5.78-60.39.12,17.24,4.43,32.2,18.36,35.9,13.59,3.63,44.61-16.13,59-56.24a45.49,45.49,0,0,0,7.2-8.58,21.65,21.65,0,0,1-4.4-.22c.92-3.33,1.75-6.78,2.43-10.36,0,0,.65-.88.2-1-8.34-1.38-4.86-9.21-5.31-9.16-17.71,2-7.93-19-10.36-21.49-6.6-6.85-85.72,33.26-87.58,2.88C179.48,78,244.24,67,276.16,101.71,276.16,101.71,343.31,85,331.9,152.51Z"/><path class="cls-2" d="M272.48,139a4.45,4.45,0,0,0,2.51,1.89,4.51,4.51,0,0,0,.86.23,4.74,4.74,0,0,0,.93.14,7.82,7.82,0,0,0,1,.06,17.92,17.92,0,0,0,2.14-.09l1.19.39.59.2a1.15,1.15,0,0,1,.32.43,2.49,2.49,0,0,1,.25,1.29c0,.55-.21,1.16-.28,1.73a7.7,7.7,0,0,0-.09,1c0,.24,0,.46,0,.68a3.92,3.92,0,0,0,.29,1.19,3.19,3.19,0,0,0,1.57,1.59,6.13,6.13,0,0,0,1.31.48c.24.07.49.11.74.16a2.14,2.14,0,0,1,1.48.92,2.26,2.26,0,0,1,.3.64,3.24,3.24,0,0,1,.07.52,2.61,2.61,0,0,1-.07.58,3,3,0,0,1-.21.61,2.2,2.2,0,0,1-.17.31l0,0v0l-.5,2.41-.59,2.58c-.41,1.72-.85,3.42-1.33,5.12l-1.55-2.4.39,0,.72.09c.54.05,1.09.08,1.66.08,1.14,0,2.43-.08,3.65-.12a8.07,8.07,0,0,1-.29,1.51c-.17.54-.34,1.13-.59,1.79-.45.71-.95,1.42-1.5,2.14l-.83,1.06-.52.63a55,55,0,0,1-4.08,4.42c-.1.1-.08.06-.11.12l-.16.42-.53,1.39c-.34.92-.7,1.84-1.09,2.75-.74,1.82-1.56,3.62-2.39,5.41-1.7,3.56-3.56,7.05-5.59,10.43a110.21,110.21,0,0,1-6.69,9.77,90.71,90.71,0,0,1-16.66,16.85,64.11,64.11,0,0,1-10.11,6.39,35.81,35.81,0,0,1-11.61,3.71,16.5,16.5,0,0,1-6.57-.46,22.45,22.45,0,0,1-5.88-2.62,22.16,22.16,0,0,1-4.91-4.19c-.66-.84-1.35-1.67-1.93-2.56A28,28,0,0,1,206,218a42.17,42.17,0,0,1-3.8-11.82q-.54-3-.79-6.08c-.11-1-.14-2-.2-3.05l0-.52V196a1.42,1.42,0,0,0,0-.31l-.32.2-.65.4-2,1.44-1,.75-1,.81a38.69,38.69,0,0,0-7,7.27,30.11,30.11,0,0,0-4.56,8.87,28.91,28.91,0,0,0-1.26,9.88,38.1,38.1,0,0,0,6.46,19,35.49,35.49,0,0,0,3.09,4l.85.91.89.85.93.75.47.32a.85.85,0,0,0,.22.14,1.12,1.12,0,0,0,.43.16l.44-.45.28-.28.49-.47c.33-.31.64-.63,1-.93a45.27,45.27,0,0,1,4.24-3.42,31.37,31.37,0,0,1,20.76-5.79,56.08,56.08,0,0,1,10.7,1.44,52.21,52.21,0,0,1,10.15,3.69,58.28,58.28,0,0,1,17.14,12.87,85,85,0,0,1,6.74,8.31c1.06,1.44,2,2.93,3,4.43.5.74.95,1.5,1.4,2.27l1.09,1.83a2.42,2.42,0,0,0,.55.11l1.14.15c.76.09,1.52.22,2.28.29l2.29.15a22,22,0,0,0,2.29.08,41.15,41.15,0,0,0,4.58-.15c.76-.07,1.53-.09,2.28-.21l2.26-.36a40.72,40.72,0,0,0,8.73-2.57,38.81,38.81,0,0,0,7.92-4.46,43.51,43.51,0,0,0,6.77-6.09,51.72,51.72,0,0,0,5.44-7.33,55.94,55.94,0,0,0,6.88-16.82,37.44,37.44,0,0,0,.86-5.62,15.64,15.64,0,0,0,0-2.74,10.57,10.57,0,0,0-.67-2.5,4.54,4.54,0,0,0-5.56-3.27,8.11,8.11,0,0,0-1.23.35,8.85,8.85,0,0,0-1.48.71l-.89,0c-.24,0-.42,0-.64,0a10.75,10.75,0,0,1-1.25-.18,8,8,0,0,1-2.48-.89,7.27,7.27,0,0,1-3.34-4.13,14.38,14.38,0,0,1-.63-4.89,31.32,31.32,0,0,1,.51-4.68A104.46,104.46,0,0,1,316,192.37c2.16-5.64,4.5-11.17,6.78-16.71s4.54-11.08,6.34-16.72c1.47-4.66,1.91-6.7,2.23-6.51s.34,2.66-.51,6.83a124,124,0,0,1-5,16.76c-2.41,6.81-5.6,14.64-8.59,23.18a64.07,64.07,0,0,0-3.54,14c-.2,2.25-.07,4.58.78,6a3.44,3.44,0,0,0,1.75,1.5,6,6,0,0,0,1.3.36l.75.08h.26s0,0,0,0l.17-.09c.24-.12.49-.21.73-.31a12.64,12.64,0,0,1,1.51-.48,9.44,9.44,0,0,1,3.34-.23,7.62,7.62,0,0,1,4.71,2.51,10.71,10.71,0,0,1,1,1.36,12.72,12.72,0,0,1,1.23,2.84l.22.71c.07.25.11.55.17.82a12.91,12.91,0,0,1,.16,1.56,29.62,29.62,0,0,1-.42,5.57,54.27,54.27,0,0,1-2.81,10.36,60.51,60.51,0,0,1-4.62,9.64,49.23,49.23,0,0,1-14.48,15.76,44.75,44.75,0,0,1-9.62,5,50.21,50.21,0,0,1-10.52,2.44c-1.79.12-3.58.35-5.37.3-.9,0-1.79,0-2.69,0l-2.66-.18a26.05,26.05,0,0,1-2.66-.28l-3.33-.45-.3,0-.16,0a1.25,1.25,0,0,1-.08-.12l-.32-.54-.64-1.08-.65-1.1c-.45-.72-.85-1.47-1.32-2.17a79.73,79.73,0,0,0-12.63-15.71,51.59,51.59,0,0,0-16.73-10.76,50.12,50.12,0,0,0-9.64-2.68l-2.49-.32c-.83-.09-1.66-.24-2.5-.25-1.67,0-3.38-.22-5-.13A27.25,27.25,0,0,0,206.88,247a36.49,36.49,0,0,0-5.72,4.24c-.45.39-.88.81-1.32,1.23l-1.78,1.69-.51.49c-.09.06-.16.2-.27.2l-.37-.11-.73-.22-.71-.31c-.23-.11-.47-.2-.7-.32s-.42-.27-.55-.36a9.29,9.29,0,0,1-.85-.62,29.18,29.18,0,0,1-5.31-5.83,44,44,0,0,1-3.93-6.7,39.27,39.27,0,0,1-3.85-15.06,30.63,30.63,0,0,1,.62-7.87l.19-1,.27-.95c.19-.64.35-1.28.57-1.9a31.66,31.66,0,0,1,1.54-3.65,35.93,35.93,0,0,1,4.23-6.64,44.39,44.39,0,0,1,5.47-5.58c1-.83,2-1.7,3-2.43l1.57-1.13.4-.29c.13-.09.23-.17.49-.33l1.31-.82,2.62-1.65,1.32-.82.16-.1c.05,0,.13-.11.11,0v.4l0,.79.08,3.16,0,1.59.07,1.08a57.47,57.47,0,0,0,2.39,14.44,36.37,36.37,0,0,0,1.27,3.45,29.86,29.86,0,0,0,1.7,3.22,26.41,26.41,0,0,0,2.08,2.94l1.24,1.28a11.46,11.46,0,0,0,1.34,1.17,18,18,0,0,0,6.26,3.31l.85.28.83.17a13.56,13.56,0,0,0,1.71.18,17.58,17.58,0,0,0,3.53-.25,39.71,39.71,0,0,0,13.63-5.53c2.12-1.32,4.17-2.77,6.16-4.3s3.88-3.2,5.7-4.94a99.72,99.72,0,0,0,18.31-24,114.51,114.51,0,0,0,6.45-13.73l.67-1.77.39-1,.13-.36c0-.11.17-.18.25-.27l.45-.45c.9-.88,1.76-1.78,2.59-2.72.42-.46.82-.94,1.22-1.42l.73-.89c.17-.23.34-.45.5-.68s.16-.24.22-.36h-.42l-.76,0-.37,0-.7-.09-1.37-.19.38-1.35c.54-1.93,1-3.86,1.48-5.81l.47-2.11.45-2.24a3.65,3.65,0,0,1,.14-.35l.17-.35a.61.61,0,0,0,.07-.12s0,0,0,0a4.92,4.92,0,0,0,.47.15.86.86,0,0,0,.52,0s0,0,0,.09,0,0,0,.05h0c-.06.39.15-.86-.14.87h-.08c-.33-.06-.66-.12-1-.21a10,10,0,0,1-1.95-.72,6.39,6.39,0,0,1-3-3.15,7,7,0,0,1-.53-2.11,9.34,9.34,0,0,1,0-1.05c0-.33,0-.76,0-.83a7.56,7.56,0,0,1,.14-.83c0-.06.06-.17,0-.19l-.21,0-.42,0c-.15,0-.29,0-.46,0h-.44a3.15,3.15,0,0,1-.53,0l-1-.1-1.06-.22a7.95,7.95,0,0,1-6-6,16.41,16.41,0,0,1-.49-4.13,58.67,58.67,0,0,1,.74-7.86c.08-.63.17-1.26.21-1.86,0-.31,0-.59,0-.88a3.4,3.4,0,0,0-.05-.57.83.83,0,0,0-.63-.63,4,4,0,0,0-.67-.12A7.77,7.77,0,0,0,267,122a35.21,35.21,0,0,0-7.38,1.12c-2.48.58-5,1.25-7.44,2-4.94,1.4-9.88,2.91-14.84,4.35-9.88,2.85-19.84,5.68-30.15,7.08a67.72,67.72,0,0,1-7.81.58,32.64,32.64,0,0,1-7.91-.79,14,14,0,0,1-7.15-4,11.4,11.4,0,0,1-2.16-3.6,16.19,16.19,0,0,1-.81-4,43.64,43.64,0,0,1,1.8-15.57,36,36,0,0,1,7.78-13.6,42.35,42.35,0,0,1,12.49-9.36,53.86,53.86,0,0,1,14.78-4.8,66.09,66.09,0,0,1,32,2.5,65.22,65.22,0,0,1,14.52,6.87,60.26,60.26,0,0,1,6.51,4.72c1,.88,2.05,1.73,3,2.66l1.42,1.42.61.61.31.3.43-.1.84-.18,1.92-.35c1.28-.22,2.56-.41,3.84-.56,2.58-.32,5.16-.51,7.75-.59A61.77,61.77,0,0,1,306.82,100a40.42,40.42,0,0,1,10,3.61,32.86,32.86,0,0,1,8.57,6.5,33.6,33.6,0,0,1,7.75,14.94,24.08,24.08,0,0,1,.66,3.23c.14,1,.36,2,.42,3,.1,1.88.29,3.57.25,5.09s-.1,2.88-.14,4.1-.27,2.31-.4,3.29-.28,1.85-.43,2.65-.39,1.52-.59,2.19c-.36,1.23-.78,2.86-1.08,3.55-.49,1.17-.51-.88-.12-5.49.07-1.16.07-2.48.14-4,0-.74.09-1.51.06-2.32s0-1.66-.06-2.55a53.12,53.12,0,0,0-1.6-12,31.56,31.56,0,0,0-7.36-13.74,29.38,29.38,0,0,0-6.19-4.83l-.85-.52-.89-.43-1.8-.87c-1.25-.47-2.46-1-3.77-1.38a53.82,53.82,0,0,0-16.17-2.22,72.83,72.83,0,0,0-8.33.48c-1.38.15-2.77.34-4.15.56-.69.12-1.38.24-2.06.38l-1.11.22c-.67.14-1.35.32-2,.47l-3.08-3.09a31.7,31.7,0,0,0-2.35-2.14c-1.56-1.44-3.3-2.66-5-3.94a65.73,65.73,0,0,0-11.19-6.16,63.13,63.13,0,0,0-12.29-3.79,61.52,61.52,0,0,0-25.68.15,47,47,0,0,0-12.05,4.43,38.78,38.78,0,0,0-10.13,7.68A33.47,33.47,0,0,0,187,107.7a38.11,38.11,0,0,0-2.52,15.3,15.23,15.23,0,0,0,.36,3.64,8.69,8.69,0,0,0,1.37,3,9.91,9.91,0,0,0,5.69,3.47,28.27,28.27,0,0,0,7.61.79,63.29,63.29,0,0,0,8-.66,148.55,148.55,0,0,0,16-3.29c10.63-2.7,21.09-6.16,31.87-9.06a80.05,80.05,0,0,1,8.32-1.83,18,18,0,0,1,4.71-.18,6.59,6.59,0,0,1,.71.12,7.45,7.45,0,0,1,.95.31c.28.17.58.32.85.5s.54.39.71.68l.27.4.21.45a3.25,3.25,0,0,1,.26.95,6.87,6.87,0,0,1,.08,1.54c-.07,1.61-.3,3-.48,4.33s-.34,2.67-.43,4c-.18,2.56,0,5.15,1,6.79Z"/><path class="cls-2" d="M277.8,289.8q-2.22-4.65-4.8-9.1a99.9,99.9,0,0,0-5.55-8.64,75.75,75.75,0,0,0-13.83-14.93A58.8,58.8,0,0,0,241,249.49a54.33,54.33,0,0,0-12.44-3.83c-1.07-.19-2.15-.33-3.23-.5s-2.18-.21-3.26-.32a14.53,14.53,0,0,0-1.6-.06c-.53,0-1.06,0-1.58,0a22.08,22.08,0,0,0-3.14.39,25.3,25.3,0,0,0-6.06,1.93c-.95.49-1.94.92-2.85,1.5-.46.28-.93.54-1.38.84l-1.33.93a55.15,55.15,0,0,0-9.59,8.94,127.52,127.52,0,0,0-13.36,19.43c-2.53,4.37-4.91,8.83-7.33,13.29s-4.9,8.91-7.73,13.17c-1.81,2.65-2.25,1.8-1.51-.86A63.19,63.19,0,0,1,169.86,292c5-9.06,9.95-18.23,16-26.82A86.87,86.87,0,0,1,196.16,253a49,49,0,0,1,6.21-5.16,34.49,34.49,0,0,1,7.18-3.94,28.67,28.67,0,0,1,9.74-2.08c.84,0,1.69,0,2.52,0l2.44.21c.81.06,1.62.17,2.43.29s1.62.21,2.43.36a64.66,64.66,0,0,1,9.54,2.49,61.3,61.3,0,0,1,8.94,4.11,66.74,66.74,0,0,1,16.52,13.61,101,101,0,0,1,12.28,17.39,174.36,174.36,0,0,1,10.9,23.66c4.69,12.28,8.31,25,11.85,37.45,2.78,9.69,5.47,19.24,8.92,28.48.78,2,1.6,4,2.53,5.92a29,29,0,0,0,4.29,6.93,26.9,26.9,0,0,0,2.52,2.43c.31.3.81.49,1.05.72s.14.34-.19.46a3.61,3.61,0,0,1-1.84.05c-1.79-.26-4.12-2-5.95-4.58a56.67,56.67,0,0,1-6.07-12.54c-1.59-4.35-3-8.78-4.32-13.24-2.65-8.94-5.1-18-7.8-27-4-13.36-8.46-26.66-14.54-39.14Z"/><path class="cls-2" d="M378.2,315a62.48,62.48,0,0,0-9.86,5.59c-.38.26-.71.55-1.07.83s-.63.57-.95.85l-.34.41-.18.2-.19.3-.77,1.19c-.52.79-1,1.63-1.51,2.46s-1,1.65-1.46,2.5c-1.42,2.46-2.71,5-4.09,7.48-4.87,8.79-9.7,17.62-14.74,26.35L339.7,369c-1.1,1.95-2.24,3.88-3.38,5.79-.71,1.24-1.47,2.45-2.23,3.67s-1.51,2.45-2.34,3.63a43,43,0,0,1-2.57,3.5l-1.4,1.68c-.5.53-1,1.05-1.58,1.56-1.34,1.28-1.7.45-1.27-1.19a24.49,24.49,0,0,1,3.36-6.73c3.24-4.65,6.24-9.58,9.18-14.56s5.88-10,8.83-15.05c3.54-6,6.8-12.55,10.27-18.84,1.91-3.46,3.82-6.91,6-10.29l.41-.64a4.57,4.57,0,0,1,.47-.66l.56-.69.6-.56a12.58,12.58,0,0,1,1.21-1,15.27,15.27,0,0,1,1.24-.92,54,54,0,0,1,5.15-3.17,72,72,0,0,1,13.58-5.83,22.87,22.87,0,0,1,2.83-.62l.47-.08.49.07.68.09,1.37.19,5.46.75,2.73.37,1.44.2a1.88,1.88,0,0,1,.46.14l.32.12.65.25q2.58,1,5.12,2.05l2,.84,1,.43.52.23.69.33c.94.44,1.83.92,2.67,1.42a10.75,10.75,0,0,1,2,1.53,3.46,3.46,0,0,1,1,1.66,1.3,1.3,0,0,1-.31,1.06,1.83,1.83,0,0,1-.74.49,6.05,6.05,0,0,1-1.94.47,19.74,19.74,0,0,1-3-.17l-1.43-.19-1.38-.24c-.62-.1-1.23-.24-1.85-.38-4.58-1.14-5.89-1.92-6.56-3a3.77,3.77,0,0,1-.43-.76c-.2-.79,1.74-.63,5,.12,1.2.27,2.41.54,3.62.75l.9.17a.81.81,0,0,0,.23,0h.08l.27,0c.14,0,.21-.07.24-.12s0-.13-.11-.17a1.32,1.32,0,0,0-.19-.08l-.22-.06h0l-.43-.2-.87-.39-1.78-.76c-1.19-.5-2.4-1-3.61-1.46l-1.83-.7-.69-.26h0l-.24,0-.49-.06-5.86-.77-2.93-.4-1.47-.19-.48-.07h-.05l-.3.05a30.6,30.6,0,0,0-5.26,1.53c-1.78.68-3.55,1.44-5.29,2.26Z"/><path class="cls-2" d="M392.3,324.69a24.93,24.93,0,0,0,6.21-3.79,24,24,0,0,0,1.9-1.87l.15-.14.07-.06.15-.14.32-.33.11-.13a.41.41,0,0,0-.07-.11.72.72,0,0,0-.22-.17,1.37,1.37,0,0,0-.62-.1l-.17,0a.7.7,0,0,0-.24,0c-.26,0-.53.13-.79.2-.53.17-1.07.37-1.6.59a31.29,31.29,0,0,0-3.84,2,18,18,0,0,1-5.2,2.55c-.67.12-.71-.59-.49-1.37a3.51,3.51,0,0,1,1.6-2.17c1.62-.85,3.29-1.82,5.08-2.67a26.4,26.4,0,0,1,2.82-1.16c.49-.16,1-.31,1.55-.43l.44-.09.64-.09a5.6,5.6,0,0,1,1.22,0,4.66,4.66,0,0,1,2.19.65,8.6,8.6,0,0,1,.85.67,4.75,4.75,0,0,1,.39.38l.19.34-.8,1.25c-.31.41-.57.84-.93,1.25l-.51.63-.24.28-.18.18c-.23.25-.45.5-.7.73a27.52,27.52,0,0,1-6.58,4.72c-.75.35-1.48.73-2.25,1-.38.15-.76.32-1.15.45l-1,.32h0c-.07,0-.17,0-.21.09a2.14,2.14,0,0,1-.1.22l-.05.11-.1.19c-.07.12-.13.25-.21.38s-.3.5-.48.72a10.12,10.12,0,0,1-1.13,1.31,11.78,11.78,0,0,1-2.72,2,18.41,18.41,0,0,1-5.52,2c-.42.06-.84.15-1.27.19-1.6.14-2.11-.11-2.42-.8a3.89,3.89,0,0,1-.2-.49c-.11-.55.51-1,1.56-1.16,3.1-.52,6.19-1.36,8.35-3.26l.54-.54c.16-.19.34-.38.49-.58s.3-.4.42-.61a3.3,3.3,0,0,0,.18-.32l.09-.17a1,1,0,0,0,.07-.16L388,327l.6-.62.61-.62,1.07-.37c.22-.08.45-.14.67-.23l1.33-.55Z"/><path class="cls-2" d="M402.32,323a33.36,33.36,0,0,0,9.37,4.93c1.75.59,5.7,1.53,7-.5,1.79-2.75-9.16-7.32-10.85-8.7-.65-.53-3.14.54-2.58,1,3.09,2.52,7.42,3.59,10.2,6.51.19.2.57.51.65.79.18.64.16.12-.09.26-.69.38-3.12-.89-3.87-1.21A34.36,34.36,0,0,1,404.9,322c-.67-.51-3.14.57-2.58,1Z"/><path class="cls-2" d="M399.94,325.5a37.11,37.11,0,0,0,7.6,6.49c1.62,1,4.77,2.44,6.34.52,1.3-1.58-1-3.49-2.05-4.46-2.2-2.05-4.71-3.73-6.94-5.73-.8-.72-2.95.46-1.9,1.41,2.82,2.53,6.4,4.5,8.61,7.63.25.35,0,.56.47.26-.3.2-1.19-.3-1.47-.42a15.43,15.43,0,0,1-2.94-1.84,42,42,0,0,1-5.47-4.94c-.75-.8-3.09.19-2.25,1.08Z"/><path class="cls-2" d="M397.36,329c1.55,1.45,2.49,3.43,3.92,5,.91,1,2.75,1.71,3.92.51a2.85,2.85,0,0,0,.43-2,15.69,15.69,0,0,0-2.48-7c-.34-.6-2.66.31-2.46.66,1.18,2.08,3.43,6,2.27,8.59l1.11-.6c.92-.27.36,0,.09-.43a5.92,5.92,0,0,0-.56-.56,22.08,22.08,0,0,1-1.5-2,19.7,19.7,0,0,0-2.42-3c-.47-.44-2.7.49-2.32.84Z"/><path class="cls-2" d="M366,372.61q-1.85,5.91-3.8,11.79c-.47,1.44-.87,2.89-1.37,4.31q-2.65,7.53-5.81,14.88c-.95,2.18-1.86,4.38-2.87,6.53a39.15,39.15,0,0,1-2.15,4.1,10.59,10.59,0,0,1-3.38,3.6c-1.1.55-1.15-.39-1-1.41a7.89,7.89,0,0,1,1.16-3.68,65.76,65.76,0,0,0,4.11-7.74c1.26-2.71,2.49-5.49,3.73-8.29,1.49-3.35,2.56-7,3.76-10.58q2-5.87,3.8-11.8c.75-2.43,1.49-4.87,2.2-7.32,1.06-3.7,2.14-7.43,3-11.15.7-2.89,1.19-5.78,1.75-8.67.12-.64.21-1.27.35-1.91.5-2.36.89-3.06,1.84-3.37a3.41,3.41,0,0,1,.64-.21c.7-.08,1,1,.79,2.79a129.65,129.65,0,0,1-3.33,16.11c-1.05,4-2.21,8-3.37,12Z"/><path class="cls-2" d="M127.45,366.08a28,28,0,0,1-6.78-3.14,23.92,23.92,0,0,1-5.61-5,14.19,14.19,0,0,1-1.12-1.55,11.28,11.28,0,0,1-1-1.64l-.85-1.71-.63-1.82a9.65,9.65,0,0,1-.47-1.85,16.79,16.79,0,0,1-.33-1.88,29.48,29.48,0,0,1-.11-3.73,87.1,87.1,0,0,1,1.87-14.06c.93-4.59,2.06-9.11,3.28-13.61,1.8-6.55,3.7-13.06,5.79-19.5,3.69-11.35,7.69-22.58,11.65-33.81,2-5.61,4-11.22,5.76-16.86a86.86,86.86,0,0,0,2.35-8.46,11.49,11.49,0,0,0,.26-2,16,16,0,0,0-.26-2.05,43.85,43.85,0,0,1-.4-4.56,56.64,56.64,0,0,1,1.59-16.08,29.83,29.83,0,0,1,3.07-7.63,15,15,0,0,1,6-5.92A12.59,12.59,0,0,1,156,198c.37,0,.77-.06,1.14-.05l1,.15,2.1.3,8.38,1.21,1.05.15a5.57,5.57,0,0,1,1.32.35,10.8,10.8,0,0,1,2.08,1.12A24.41,24.41,0,0,1,176.5,204a23.45,23.45,0,0,1,2.95,3.34,6.44,6.44,0,0,1,1.28,2.82,2,2,0,0,1-.27,1.36,2.5,2.5,0,0,1-1.12.81,7.84,7.84,0,0,1-2.62.45,8.41,8.41,0,0,1-2.08-.25,10,10,0,0,1-3.56-1.68,5.22,5.22,0,0,1-2-2.26c-.09-.39.26-.38,1-.07a26.78,26.78,0,0,0,3.18,1.27,8.26,8.26,0,0,0,2.29.35c.21,0,.41,0,.62,0a2.64,2.64,0,0,0,.5-.07,1.09,1.09,0,0,0,.39-.24c.05-.06.11-.11.1-.2a.53.53,0,0,0-.15-.25l-.18-.13-.05,0a.47.47,0,0,1-.09-.09l-.39-.45a35.09,35.09,0,0,0-3.84-3.57c-1.21-1-2.57-1.87-3.43-1.9l-5-.76-5-.77-1.25-.19-.62-.1a2.4,2.4,0,0,0-.54,0,6,6,0,0,0-1.05.1,5.66,5.66,0,0,0-1,.21,10.92,10.92,0,0,0-6.36,5.47,30.33,30.33,0,0,0-3.18,9,54.18,54.18,0,0,0-1,9.88c0,1.66,0,3.33.18,5,.07.82.16,1.63.28,2.44l.1.59.05.3,0,.49a8,8,0,0,1,0,1l-.09.75a37.19,37.19,0,0,1-1.22,5.35c-.47,1.7-1,3.36-1.55,5-1.08,3.31-2.22,6.59-3.39,9.86-5.6,15.64-11.27,31.92-16.24,48.1a266.92,266.92,0,0,0-7,26.92c-.43,2.26-.8,4.54-1.08,6.82-.15,1.13-.22,2.27-.33,3.41s-.13,2.28-.09,3.38l.11,1.63a12.58,12.58,0,0,0,.27,1.61,16.63,16.63,0,0,0,4.53,8.54,24,24,0,0,0,14.57,6.8c.68,0,1.36.13,2.05.13l2,0,2-.25a11.13,11.13,0,0,0,1.91-.48,11.84,11.84,0,0,0,6-4.85c2.26-3.44,3.42-7.63,4.21-11.81a96.47,96.47,0,0,0,1.3-12.84c.35-8.64,0-17.31-.33-25.93-.57-13.39-1.65-26.53-1.2-39.91.11-2.95.27-5.84.64-8.81a42.52,42.52,0,0,1,2.76-11.54,11.58,11.58,0,0,1,3-4.46,8.69,8.69,0,0,1,1.34-1c1.22-.38-1.41,3.12-2.94,10.75a97.29,97.29,0,0,0-1.65,17.57c-.11,6,.06,12.1.31,18.25.49,12.3,1.36,24.81,1.39,37.47,0,4.71-.12,9.43-.56,14.19a59.06,59.06,0,0,1-2.84,14.24,24.49,24.49,0,0,1-3.61,6.77,14.6,14.6,0,0,1-6.47,4.82,14.77,14.77,0,0,1-3.89.87,27,27,0,0,1-3.81.21,30.74,30.74,0,0,1-7.45-1.2Z"/><path class="cls-2" d="M174.1,216.43a4.29,4.29,0,0,0,.6.13c.26,0,.17,0,.24.06a.42.42,0,0,0,.27,0,.23.23,0,0,0,.07-.26c0-.05,0-.12,0-.15s-.22-.4-.33-.6c-.37-.61-.87-1.18-1.32-1.78-.8-1.06-1.67-2.11-2.58-3.1a21.16,21.16,0,0,0-2.86-2.71.51.51,0,0,0-.23-.12c-1-.24-2-.46-3.05-.65a21.37,21.37,0,0,1-4.6-1.08c-.92-.39.86-2.63,2.63-2.26,1.92.41,3.72.85,5.69,1.4a3.54,3.54,0,0,1,.84.38,4.27,4.27,0,0,1,.54.39c.29.24.55.47.8.72.5.48.95,1,1.39,1.48,1.3,1.54,2.8,2.95,4,4.62.34.46.66.95,1,1.45a7.68,7.68,0,0,1,.91,2.11,3,3,0,0,1,0,1.18,1.8,1.8,0,0,1-.58,1,3.56,3.56,0,0,1-2.27.6,5.65,5.65,0,0,1-1.29-.12,6.85,6.85,0,0,1-1.1-.29,11.33,11.33,0,0,1-2-.91,14.82,14.82,0,0,1-2.57-2c-.4-.36-.74-.76-1.12-1.13s-.74-.87-.87-1-.19-.08-.3-.09l-.43,0-1.16,0-2.33-.06c-.34,0-.68,0-1,0-1.27-.1-1.66-.32-1.85-1.06,0-.17-.11-.34-.13-.5-.06-.56.51-1,1.46-1a38.06,38.06,0,0,1,4.27,0l1.08.07.87.08.54.06c.09,0,.2,0,.26.05l.18.2,1.06,1.22a9.42,9.42,0,0,0,.69.72,10.19,10.19,0,0,0,4.59,3Z"/><path class="cls-2" d="M171.58,219.43c0-.07-.09.7.08.22.05-.14-1-.29-1.58-.52-1.67-.65-2.93-2-4.59-2.64a13.14,13.14,0,0,0-6.11-.42c-1.71.19-3.23,2.09-.59,1.79,4.46-.51,7.14,3.67,11.53,3.6,1.33,0,5.51-.9,5-3-.25-1.09-4-.15-3.77,1Z"/><path class="cls-2" d="M158.56,222.07a26.32,26.32,0,0,0,8.16,2.92c1.2.14,3.13.06,3.91-1.07,1.11-1.64-1.12-4.27-2.27-5.27-.72-.62-3.41.49-2.7,1.1a7.75,7.75,0,0,1,1.79,2.23c.23.44.29,1,.52,1.43.32.58-.55.47.43.32s-.46-.3-.77-.37a16.25,16.25,0,0,1-1.92-.57,44.49,44.49,0,0,1-4.83-2c-.77-.39-3.44.77-2.32,1.32Z"/><path class="cls-2" d="M140.78,380.12a43.7,43.7,0,0,1-9.13.42q-1.14-.06-2.28-.18l-1.16-.15a2.41,2.41,0,0,1-.44-.08l-.29-.08-.54-.16c-1.44-.42-2.89-.83-4.3-1.38l-1.56-.55-1.53-.64-1.53-.65-1.47-.77a31.57,31.57,0,0,1-9.17-7.38,26.33,26.33,0,0,1-5.2-10.54,35.72,35.72,0,0,1-.89-10.28A33.49,33.49,0,0,1,104.22,335c.31-.62.66-.81.94-.66a2.09,2.09,0,0,1,.69,1.28,12.58,12.58,0,0,1-.12,5.67,38.47,38.47,0,0,0-1,12.15,25.38,25.38,0,0,0,3.7,11.41c2.64,4.15,7.05,7.23,11.74,9.33l1.95.86,2,.73c1.33.53,2.74.85,4.11,1.27.18.05.35.11.39.11l.51.07,1.06.12c.7.06,1.42.11,2.13.14,1.43.05,2.86,0,4.29-.05a33,33,0,0,0,10.24-2.13,22.28,22.28,0,0,0,6.71-4,18.71,18.71,0,0,0,4.62-6.25,21.44,21.44,0,0,0,1.7-5.79c.34-2,.49-4.08,1-6.26a13.75,13.75,0,0,1,.93-2.9c.25-.44.47-.85.72-1.2s.51-.64.75-.91a5.79,5.79,0,0,1,1.42-1,2.18,2.18,0,0,1,2-.17,2.68,2.68,0,0,1,.68.32c.27.23.14.63-.25,1.09a2.89,2.89,0,0,1-.35.35,5,5,0,0,1-.38.44c-.3.27-.56.66-.9,1-1.76,2.36-1.75,6.19-2.51,10.19a25.15,25.15,0,0,1-1.88,6.07,23.33,23.33,0,0,1-3.51,5.48A24.22,24.22,0,0,1,154,375a27.72,27.72,0,0,1-4.14,2.49,33.22,33.22,0,0,1-9,2.74Z"/><path class="cls-2" d="M223.68,261.72a25.11,25.11,0,0,1-7.26-.61,15.46,15.46,0,0,1-2.61-.75,12.72,12.72,0,0,1-4.09-2.7,10.33,10.33,0,0,1-2.55-4.22,14.21,14.21,0,0,1-.66-4.2,10.13,10.13,0,0,1,1-5.15c.26-.49,1-.14,1.66.51a3,3,0,0,1,1,2.36c-.54,2.91-.42,5.59,1.09,7.91.91,1.43,2.69,2.24,4.43,2.83a20,20,0,0,0,6.27.92,28.66,28.66,0,0,0,4-.32,26.38,26.38,0,0,0,5.92-1.63,24,24,0,0,0,4-2.38c.28-.2.53-.43.82-.61,1.06-.71,1.48-.79,2.21-.23a4.62,4.62,0,0,1,.5.37c.49.47.34,1.22-.4,2a21.74,21.74,0,0,1-8.26,4.64,31.69,31.69,0,0,1-7.13,1.39Z"/><path class="cls-2" d="M193.06,286q-.41,1.45-.66,2.91c-.09.49-.15,1-.21,1.45l-.06.7a3.32,3.32,0,0,1,0,.48,1,1,0,0,0,0,.29c0,.11.16.12.25.13h.16a2.44,2.44,0,0,0,.41-.13,9.33,9.33,0,0,0,1.24-.54,26,26,0,0,0,3.56-2.45,58.46,58.46,0,0,0,11-11.44,38,38,0,0,0,3.61-6.09,52.53,52.53,0,0,0,2.92-8.36c.24-.86,1.05-.7,1.72.25a5.27,5.27,0,0,1,.51,4.56,37.45,37.45,0,0,1-4.37,8.91,50.5,50.5,0,0,1-6.12,7.61,68.21,68.21,0,0,1-8.8,8.12,22.26,22.26,0,0,1-2.92,1.78l-.81.37-.87.32-.58.16a3,3,0,0,1-.64.1,4.21,4.21,0,0,1-1.23,0,4,4,0,0,1-1.12-.38,2.5,2.5,0,0,1-.71-.91,1.82,1.82,0,0,1-.19-.57,4,4,0,0,1-.12-.6,10.79,10.79,0,0,1-.07-1.21,21.85,21.85,0,0,1,.36-3.39,42.61,42.61,0,0,1,2.28-7.77,50.42,50.42,0,0,1,5.79-10.69,44.92,44.92,0,0,1,6-7.18,20.33,20.33,0,0,1,1.54-1.39c2.06-1.61,2.94-1.8,3.83-1.36a3.07,3.07,0,0,1,.6.31c.54.47-.07,1.41-1.39,2.55a48.38,48.38,0,0,0-10.21,12.26,45.41,45.41,0,0,0-4.69,11.24Z"/><path class="cls-2" d="M237.94,294a33.61,33.61,0,0,0,4.31,3.31,14.47,14.47,0,0,0,2.25,1.2c.19.07.38.16.55.21l.09,0,.06,0a.85.85,0,0,0,.32,0c.16,0,.17-.19.19-.31a.61.61,0,0,0,0-.14V298c0-.36-.07-.73-.12-1.1-.11-.74-.26-1.49-.4-2.25a54.48,54.48,0,0,0-5.62-15.59,34.38,34.38,0,0,0-4.23-6,47.68,47.68,0,0,0-6.93-6.12c-.75-.57-.28-1.25.89-1.5a5.68,5.68,0,0,1,4.56,1.33,34.48,34.48,0,0,1,6.81,7.89,44.88,44.88,0,0,1,4.48,9.22,66.74,66.74,0,0,1,3.46,12c.06.42.11.83.15,1.26l.05.64,0,.34c0,.16,0,.32,0,.48a5.62,5.62,0,0,1-.26,1.86,2.25,2.25,0,0,1-.41.76,2,2,0,0,1-.7.5,5.33,5.33,0,0,1-3.28,0,14.56,14.56,0,0,1-2.2-.94,28.27,28.27,0,0,1-3.78-2.47,50.87,50.87,0,0,1-6.21-5.69,57.09,57.09,0,0,1-7.53-10.19,39.14,39.14,0,0,1-4.06-8.95c-.16-.71-.41-1.4-.51-2.14-.43-2.75-.06-3.69.79-4.22a3.29,3.29,0,0,1,.59-.34c.33-.11.63.12.86.58a8.28,8.28,0,0,1,.57,2,39.22,39.22,0,0,0,6.74,15A53.06,53.06,0,0,0,238,294Z"/><path class="cls-2" d="M219.25,301.13c.12,3.19-5.26,3.49-5.91.14-.73-3.83,5.53-3.47,5.89-.36C219.24,301,219.24,301.06,219.25,301.13Z"/><path class="cls-2" d="M217.58,317c.14.75-.26,1.57-1.58,2.3a3.18,3.18,0,0,1-4.42-2.16C210.73,312.75,217.1,314.52,217.58,317Z"/><path class="cls-2" d="M217.55,333a2.55,2.55,0,0,1-.15.78c-1,2.72-5.29,2-5.79-.64C210.87,329.28,217.67,329.81,217.55,333Z"/><path class="cls-2" d="M230.73,133.19a22.83,22.83,0,0,1,6.43,2.67,12.43,12.43,0,0,1,2.15,1.59,9.83,9.83,0,0,1,1.51,1.93,7.07,7.07,0,0,1,.83,2.44,14.92,14.92,0,0,1-.05,4.53,24.82,24.82,0,0,1-.9,3.81,8.82,8.82,0,0,1-2.54,4.33c-.41.35-1-.28-1.34-1.1a4.42,4.42,0,0,1-.39-1.27,1.63,1.63,0,0,1,.16-1.15,17.54,17.54,0,0,0,2.18-7.79,4,4,0,0,0-.49-2.14,7.7,7.7,0,0,0-1.67-1.76,15.67,15.67,0,0,0-5.24-2.64,25.44,25.44,0,0,0-3.72-.85,27.58,27.58,0,0,0-5.81-.34,17.52,17.52,0,0,0-4.28.92c-.29.1-.57.23-.84.33-1,.4-1.14.3-1.86-.24-.16-.11-.35-.2-.53-.3a.71.71,0,0,1-.33-.88,2.1,2.1,0,0,1,.95-1.13,12.65,12.65,0,0,1,4.43-1.56,25,25,0,0,1,4.57-.32,33.36,33.36,0,0,1,6.79.84Z"/><path class="cls-2" d="M216,179.44a19.64,19.64,0,0,0,10.94-7.14c1.48-1.89-2.08-2.56-3.16-1.16a15.1,15.1,0,0,1-8.49,5.65c-2.33.6-1.63,3.25.71,2.65Z"/><path class="cls-2" d="M251.08,145c-.2-2.54.47-3.22,1.11-3.43a26.27,26.27,0,0,1,6.88-1.26,18.09,18.09,0,0,1,3,.14c1,.08,2,.29,3,.44a25.1,25.1,0,0,1,12.52,5.37l.63.44.58.49,1.17,1c.13.12.33.18.36.36.11.5-.68,1.3-1.51,1.66-.19.08-.47.24-.53.2-.54-.48-1.95.18-2.4-.33a2.86,2.86,0,0,0-.73-.61c-.28-.17-.56-.32-.84-.47l-.85-.44-.89-.35a6.43,6.43,0,0,1-1.29-.76c-.56-.32-1.07-.75-1.64-1.08a5.25,5.25,0,0,0-1.15-.47,14.74,14.74,0,0,0-2.08-.62,27.31,27.31,0,0,0-5.82-.72,39.2,39.2,0,0,0-8.29.83A5.27,5.27,0,0,1,251.08,145Z"/><path class="cls-2" d="M190.16,154.1a65.13,65.13,0,0,1-2.49-7.24,42.49,42.49,0,0,1-1.28-5.74c-.08-.5-.1-.92-.13-1.34l-.08-1.26a5,5,0,0,1,.12-1.81l1.06.87,1.17.95,2.36,1.88a12.21,12.21,0,0,0,1.3.72l.9.37c.43.14.89.22,1.33.34a16,16,0,0,0,2.8.24c6.85,0,14.33-3.53,22.33-1.81a28,28,0,0,1,9.28,4.49,40,40,0,0,1,9.32,8.89c.79,1.09,0,1.47-1.3,1.15a11.24,11.24,0,0,1-4.89-2.91,39.11,39.11,0,0,0-9.7-7.23,16.76,16.76,0,0,0-5.44-1.66,30.22,30.22,0,0,0-6.06.14c-2.5.28-5.06.89-7.72,1.41a25.29,25.29,0,0,1-8.42.51,11.88,11.88,0,0,1-1.75-.38,6.4,6.4,0,0,1-.85-.26l-.38-.16-.16-.07a3.7,3.7,0,0,1-.51-.29,3.39,3.39,0,0,1-.5-.37l-.21-.18-.11-.09s-.08-.09-.07,0,0,.32.07.49c0,.33.12.68.2,1l.18.72.37,1.3c.27.87.54,1.73.84,2.58A51.48,51.48,0,0,0,196.1,159c2.68,4.54,6.28,8.72,10.93,11a19.31,19.31,0,0,0,11.5,1.63l2.54-.51c3.14-.8,4.15-1.09,5.14-.49a3.27,3.27,0,0,1,.67.38c.55.48-.55,1.53-3,2.48a24.11,24.11,0,0,1-12,1.32,21.3,21.3,0,0,1-6.1-1.95,25.82,25.82,0,0,1-2.8-1.59,30.28,30.28,0,0,1-2.52-2c-4.77-4.18-8-9.61-10.33-15.14Z"/><path class="cls-2" d="M282.16,162c.36,0,.66.09,1.07.11l2.29-.16c1.52-.09,3-.27,4.46-.45l-.19.79a2.87,2.87,0,0,1-.15.44l-.18.46-.38.94a4.37,4.37,0,0,1-.5,1l-.71,1.13-.9,1.15c-.29.39-.59.77-.91,1.15l-.63.74a58.27,58.27,0,0,1-4.68,4.75,52.12,52.12,0,0,1-5.08,4.17,37.64,37.64,0,0,1-10.45,5.13,28,28,0,0,1-11.61,1A34.52,34.52,0,0,1,233.16,174c-.93-1-.2-1.44,1.17-1.28a8.28,8.28,0,0,1,2.4.7,13.22,13.22,0,0,1,2.78,1.59,33.54,33.54,0,0,0,10.73,5.5,25.73,25.73,0,0,0,11.94.57c4.86-.88,9.5-3.58,13.54-6.76a55.47,55.47,0,0,0,6-5.54c.47-.5.93-1,1.38-1.53l.75-.87.58-.73c.09-.12.19-.25.28-.39s0,0-.06,0h-.1l-.22,0-.3,0a9.7,9.7,0,0,1-1.21,0,17.26,17.26,0,0,1-2.81-.44,15.73,15.73,0,0,1-5.25-2.37c-2.4-1.59-4.34-3.54-6.45-5.19a26.07,26.07,0,0,0-6.76-4,14.45,14.45,0,0,0-5.79-.94,27.24,27.24,0,0,0-5.9.75c-.85.2-1.65.48-2.49.74-1.54.5-2.51.91-3.26,1.09a2.79,2.79,0,0,1-1.78-.05,3.75,3.75,0,0,1-.71-.28c-.31-.2-.23-.59.23-1.11a7.83,7.83,0,0,1,2.49-1.75,26,26,0,0,1,11.83-2.57,21.8,21.8,0,0,1,3.19.27c.53.08,1.08.2,1.63.34a12.63,12.63,0,0,1,1.61.55,28.31,28.31,0,0,1,5.62,3c2.58,1.76,4.79,3.86,7,5.54a18.9,18.9,0,0,0,3.31,2.1,11.49,11.49,0,0,0,3.64,1Z"/><path class="cls-4" d="M165.06,231.82l2.64-8.44a23.38,23.38,0,0,0-3.59-1.13l-2.65,8.44A28.34,28.34,0,0,0,165.06,231.82Z"/><path class="cls-4" d="M173.75,202.15l16.87-56.5c.22-.64-3.44-1.73-3.61-1.08l-16.87,56.5C170,201.58,173.6,202.67,173.75,202.15Z"/><path class="cls-2" d="M201.42,150.5a59.86,59.86,0,0,0,5.51,6.07c4,3.37,9.36,2.46,14.11,2,.7-.08,1.7-.52,1.6-1.38-.36-3-1.95-6.13-4.7-7.51-2.22-1.11-4.54-.67-6.92-.58a71.61,71.61,0,0,1-7.75-.17c-1.32-.09-3,1.84-1,2,1.56.11,3.12.17,4.68.2,2.49,0,5.61-.64,8-.05,3,.75,4.5,4.08,4.84,6.92l1.6-1.37c-4.77.5-9.35,1.32-13-2.51-1.47-1.54-2.82-3.2-4.23-4.79C203.28,148.35,200.51,149.47,201.42,150.5Z"/><path class="cls-2" d="M265.26,166.2c-4.22,1.69-8.89,2.65-13.2.73-1.15-.52-3.47-1.66-4-3,.27.66-.38.17.7-.27.78-.32,1.33-1.15,2.21-1.44a7,7,0,0,1,5,.74,84.06,84.06,0,0,1,8.56,4.86c1,.62,4.49-.88,3-1.79-4.15-2.56-9.1-6.4-14.21-6.14a12.29,12.29,0,0,0-8.86,4.59.58.58,0,0,0,0,.75c5,6.9,15.64,5.1,22.3,2.43C269.18,166.71,267,165.53,265.26,166.2Z"/><path class="cls-2" d="M211.91,156.48c-1.55-.33-3.18-.77-3.32-2.45-.27-3.35,4-2.93,5.58-1.12C214.59,153.37,214.83,157.12,211.91,156.48Z"/><path class="cls-2" d="M251.94,167.43c-1.55-.33-3.19-.77-3.32-2.45-.27-3.35,4-2.93,5.58-1.12C254.61,164.32,254.85,168.07,251.94,167.43Z"/><path class="cls-2" d="M215.37,198.48c2.78,4.49,9.94,4.26,13.26.52,1.14-1.28-1.66-1.3-2.34-.53-2.4,2.7-6.45,1.74-8.24-1.14-.53-.86-3.34.09-2.68,1.15Z"/><path class="cls-2" d="M275,385.48l-2.19-5.75c-.27-.7-.61-1.36-.86-2.07-.89-2.48-1.69-5-2.55-7.48-.37-1.1-.84-2.18-1.3-3.24a15.22,15.22,0,0,1-1.56-4.19c-.13-.94,3.18-.92,3.81.65a63.85,63.85,0,0,1,2.85,8.61,44.46,44.46,0,0,0,2,5.21l2.21,5.73c.46,1.17.94,2.33,1.43,3.49.77,1.74,1.5,3.52,2.39,5.18a42.51,42.51,0,0,0,2.35,3.68c.18.26.39.5.56.77.62,1,.62,1.44,0,2.09a4.42,4.42,0,0,1-.42.44c-.52.44-1.23.28-1.83-.4a31.17,31.17,0,0,1-4.4-7c-.9-1.87-1.71-3.79-2.53-5.69Z"/><path class="cls-2" d="M352.42,329.74c2.57,10.42,10.29,19.67,21,22,2.21.47,4.34-2.66,1.47-3.28-9.36-2-15.91-10.89-18.11-19.85-.52-2.09-4.87-.94-4.35,1.16Z"/><ellipse class="cls-2" cx="236.97" cy="383.13" rx="2.79" ry="1.78" transform="translate(-156.41 163.6) rotate(-29.1)"/><ellipse class="cls-2" cx="180.45" cy="434.12" rx="1.42" ry="0.9" transform="matrix(0.93, -0.36, 0.36, 0.93, -145.69, 95.51)"/><ellipse class="cls-2" cx="263.25" cy="412.74" rx="1.42" ry="0.9" transform="translate(-132.22 124.19) rotate(-21.35)"/><ellipse class="cls-2" cx="169.56" cy="397.45" rx="1.41" ry="0.9" transform="translate(-171.88 132.62) rotate(-29.1)"/><ellipse class="cls-2" cx="166.12" cy="400.86" rx="0.9" ry="0.58" transform="translate(-173.98 131.38) rotate(-29.1)"/><ellipse class="cls-2" cx="192.17" cy="431.52" rx="1.95" ry="1.25" transform="translate(-185.6 147.92) rotate(-29.1)"/><ellipse class="cls-2" cx="325.44" cy="346.27" rx="1.42" ry="0.9" transform="translate(-103.75 142.27) rotate(-21.35)"/><ellipse class="cls-2" cx="310.52" cy="330.14" rx="0.88" ry="0.55" transform="translate(-98.9 135.73) rotate(-21.35)"/><ellipse class="cls-2" cx="327.78" cy="415.95" rx="0.9" ry="1.42" transform="translate(-131.62 152.5) rotate(-21.93)"/><path class="cls-1" d="M214.21,410.56l.52.31.59.33a2.5,2.5,0,0,0,.29.16l.48.24.18.08h0l0,0s-.29-.19-.68-.41-.85-.46-1.21-.64l-.35-.19-.25-.14-.15-.07h0Z"/><path class="cls-1" d="M214.44,411.73l.37-.52.4-.58c.08-.11.16-.25.19-.29s.18-.31.29-.47l.1-.18h0l0,0s-.23.28-.49.66l-.78,1.2-.23.35-.16.25a.92.92,0,0,0-.09.15l0,0Z"/><path class="cls-1" d="M214.07,411.17l.61-.13.68-.15a3,3,0,0,0,.34-.08c.12,0,.34-.1.53-.14l.19-.06s0,0,0,0h0s-.36.06-.81.16l-1.37.34-.4.1-.29.07-.17,0h0Z"/><path class="cls-1" d="M214.67,410.23c.13.54.13.56.13.56s0,.21.15.62a2.27,2.27,0,0,0,.08.3c0,.11.1.31.15.49l0,.17s0,0,0,0v0s-.06-.33-.15-.74l-.34-1.25-.1-.36-.08-.27,0-.15s0,0,0,0C214.68,410.28,214.57,409.77,214.67,410.23Z"/><path class="cls-1" d="M116.19,405.43l.53.3.58.34.29.15c.12,0,.31.15.48.24l.18.08s0,0,0,0l0,0s-.29-.19-.67-.41l-1.21-.64-.36-.19-.25-.13-.15-.08,0,0Z"/><path class="cls-1" d="M116.42,406.59l.37-.52.4-.58a2.78,2.78,0,0,0,.19-.28c.06-.12.18-.31.29-.48l.11-.18s0,0,0,0l0,0s-.23.29-.49.67l-.78,1.19-.22.35-.17.26-.09.14,0,0Z"/><path class="cls-1" d="M116.05,406l.61-.13.69-.14.33-.08.54-.15.19-.06h0s-.36,0-.81.15l-1.37.34-.4.1-.29.07-.17.05h0Z"/><path class="cls-1" d="M116.65,405.09c.13.54.13.56.13.56s0,.21.15.62c0,.13.07.27.08.3s.1.32.15.49l.06.18h0v0s0-.33-.15-.73l-.34-1.26-.1-.36-.08-.27,0-.15v0C116.67,405.15,116.55,404.63,116.65,405.09Z"/><path class="cls-1" d="M287.11,354.51c.28.18.52.31.52.31l.59.32.3.15c.29.15.26.14.48.24l.17.09h0l0,0-.68-.4c-.38-.23-.85-.48-1.2-.66l-.35-.19-.26-.13-.15-.07h0Z"/><path class="cls-1" d="M287.35,355.67c.21-.27.37-.51.37-.51l.39-.59.18-.29.3-.48.11-.17h0l0,0-.49.67c-.26.37-.58.84-.79,1.18l-.23.36-.16.25-.09.15,0,0C287.38,355.64,287.05,356.09,287.35,355.67Z"/><path class="cls-1" d="M287,355.12c.33-.06.61-.13.61-.13l.68-.16.33-.08.54-.15.19-.05h0l-.8.15-1.38.32-.4.11-.29.08-.17,0h0Z"/><path class="cls-1" d="M287.57,354.17c.06.31.12.56.12.56l.17.62.08.3.15.49.05.17s0,0,0,0v0s-.06-.33-.16-.74-.22-.9-.32-1.25l-.1-.37-.08-.26-.05-.15v0C287.58,354.23,287.47,353.71,287.57,354.17Z"/><path class="cls-1" d="M256.69,419.38l.52.31.59.33.29.16a4.88,4.88,0,0,1,.48.23l.17.09s0,0,0,0h0s-.3-.2-.68-.42l-1.21-.64-.35-.19-.26-.13-.15-.08,0,0Z"/><path class="cls-1" d="M256.92,420.54l.36-.51s.14-.19.4-.58c.09-.12.17-.26.19-.29l.3-.48.1-.17s0,0,0,0l0,0s-.23.29-.49.67l-.78,1.2-.23.35-.16.25-.1.15,0,0Z"/><path class="cls-1" d="M256.55,420l.61-.12.68-.15.33-.08.54-.15.19-.06h0s-.35.05-.8.15l-1.38.34-.4.1-.29.07-.16.05h0Z"/><path class="cls-1" d="M257.15,419c.12.55.13.56.13.56l.14.62c0,.13.08.27.09.31a4.93,4.93,0,0,1,.14.48l.06.18s0,0,0,0v0s0-.33-.15-.73l-.34-1.25-.1-.37-.07-.26-.05-.15s0,0,0,0C257.16,419.1,257.05,418.59,257.15,419Z"/></g></svg>