<svg id="Layer_1" data-name="Layer 1" xmlns="http://www.w3.org/2000/svg" width="520" height="520" viewBox="0 0 520 520"><defs><style>.cls-1,.cls-2,.cls-4{fill:#221f1f;}.cls-1{opacity:0.2;}.cls-3{fill:#232020;}.cls-4{opacity:0.3;}</style></defs><title>Notioly v2</title><g id="_57.Detective" data-name="57.Detective"><path class="cls-1" d="M335.47,137.3c0,5.43-6.32,14-12.41,14s-12-4.41-12-9.84-.63-12.68,5.46-12.68S335.47,131.87,335.47,137.3Z"/><path class="cls-2" d="M299.74,173.56a32.06,32.06,0,0,0,11.84-5.62,46.44,46.44,0,0,0,3.73-3.13c.38-.34.74-.69,1.1-1l.54-.53.76-.8.56-.36a.91.91,0,0,1,.65,0,4.61,4.61,0,0,1,1.21.77c.49.39.95.78,1.41,1.17.92.78,1.83,1.55,2.76,2.28a27.58,27.58,0,0,0,2.87,2,4.64,4.64,0,0,0,2.87.94c.84-.18,1.39-1.34,1.57-2.51a13.8,13.8,0,0,0,0-3.69,21.9,21.9,0,0,0-1.08-4.66,15.41,15.41,0,0,0-.92-2.16,5.54,5.54,0,0,0-1.26-1.74,2,2,0,0,1-.3-.31.33.33,0,0,1,0-.27.42.42,0,0,1,.27-.22,1.1,1.1,0,0,1,.64,0,3.54,3.54,0,0,1,1.83,1.07,6.78,6.78,0,0,1,1.5,2.4,22.53,22.53,0,0,1,1.27,5.21,14.76,14.76,0,0,1-.25,5.51,5.78,5.78,0,0,1-.6,1.46,5.4,5.4,0,0,1-.5.71,3.69,3.69,0,0,1-.74.62,3.28,3.28,0,0,1-1.87.5,5.09,5.09,0,0,1-1.61-.36,19.62,19.62,0,0,1-4.54-2.91c-.95-.8-1.92-1.6-2.89-2.4-.48-.4-1-.81-1.43-1.18l-.2-.15-.12-.09s-.09-.07-.14,0l-.1.11-.21.22c-.14.16-.29.31-.44.46l-.9.9c-.63.58-1.23,1.17-1.89,1.71a40.84,40.84,0,0,1-5.68,4.08,32.83,32.83,0,0,1-6.34,3,25.35,25.35,0,0,1-8.5,1.49,25.92,25.92,0,0,1-12.52-3.3,23.9,23.9,0,0,1-7.49-6.62c-.44-.59-.86-1.18-1.25-1.81-1.4-2.38-1.58-3.27-1.37-4a2.24,2.24,0,0,1,.16-.48c.27-.39.94.5,1.91,2.14a27.81,27.81,0,0,0,5.37,6.62,21,21,0,0,0,7.48,4.28,7.93,7.93,0,0,0,1.55.48l1.58.4c.53.14,1.07.15,1.61.24s1.07.16,1.62.17h2.44l.81-.1,1.63-.18c.53-.1,1.06-.23,1.6-.35Z"/><path class="cls-2" d="M287.26,121l17.65,6.3,3.23,1.13,1.61.55.81.28.4.15.07,0,.28.06a2.34,2.34,0,0,1,1.1.64,2.15,2.15,0,0,1,.54,1.16,4.84,4.84,0,0,1-.14,1.85c-.25,1.06-.57,2-.83,2.95a14.55,14.55,0,0,0-.7,5.61c.34,3.7,3.46,6.74,6.93,8.17a10.7,10.7,0,0,0,9.65-.95,12.4,12.4,0,0,0,4.36-4.65,34.7,34.7,0,0,0,2.34-6.2c.44-1.35.85-1,1,.24a12.11,12.11,0,0,1-1.13,6.16,14.94,14.94,0,0,1-2.05,3.19,15.23,15.23,0,0,1-2.84,2.54,13.59,13.59,0,0,1-3.44,1.69,12.84,12.84,0,0,1-3.79.61,13.19,13.19,0,0,1-3.8-.56,14.32,14.32,0,0,1-3.44-1.64,15.56,15.56,0,0,1-2.85-2.47,11,11,0,0,1-2-3.27,11.22,11.22,0,0,1-.69-4.54,20.14,20.14,0,0,1,.77-4.42l.59-2.07a6.53,6.53,0,0,0,.31-1.83.48.48,0,0,0-.14-.35.55.55,0,0,0-.15-.08l-.17,0a2.19,2.19,0,0,1-.39-.11l-2-.71-17.79-6.32L285,122.17l-2.73-1-1.58-.56c-.45,0-.41-.48-.52-.8l-.07-.25-.05-.16-.11-.32a8.32,8.32,0,0,0-2.34-3.31,5.48,5.48,0,0,0-3.63-1.41,4.71,4.71,0,0,0-3.44,1.68,9.75,9.75,0,0,0-2,3.61,12,12,0,0,0-.53,3.17,7.59,7.59,0,0,0,.1,1.58,9.8,9.8,0,0,0,.33,1.54A10.21,10.21,0,0,0,272,131a11.06,11.06,0,0,0,2.35,1.38,19.55,19.55,0,0,0,3.47,1.09,5,5,0,0,1,1.65.56,3.23,3.23,0,0,1,.53.33c.19.18-.09.37-.78.52a8.39,8.39,0,0,1-3.25-.08,12.45,12.45,0,0,1-5.83-2.92,11.91,11.91,0,0,1-3.91-9.24,13.93,13.93,0,0,1,.59-3.4,12.39,12.39,0,0,1,1.44-3.2,8.35,8.35,0,0,1,2.62-2.64,6.23,6.23,0,0,1,2.8-.89,6.91,6.91,0,0,1,2.86.45,8.92,8.92,0,0,1,4.16,3.48,9.76,9.76,0,0,1,1.18,2.43l.05.14h0s0,0,0,0l.87.3,4.46,1.57Z"/><path class="cls-2" d="M323.89,139.91c1-.45,1.29-.45,1.39-.35.34.33.65.65,1,1a9.09,9.09,0,0,0,.68.81,2.5,2.5,0,0,0,1.45.66,1.2,1.2,0,0,0,.9-.16s0-.06.08,0a2.53,2.53,0,0,1,.29,1c0,.09,0,.23,0,.23s-.15.74-.37.74-.74.21-1.16.23a1.17,1.17,0,0,1-.48-.09c-.2-.07-.36-.23-.54-.31s-.47-.23-.87-.5A6.91,6.91,0,0,1,325,142a9.63,9.63,0,0,1-1.24-1.71C323.76,140.22,323.84,140.08,323.89,139.91Z"/><path class="cls-2" d="M327.73,144.89a1.91,1.91,0,0,1-2.68-.11,2,2,0,0,1,2-3.12A1.79,1.79,0,0,1,327.73,144.89Z"/><path class="cls-2" d="M346.89,112.65c-18.61,5.07-56.76-15.81-56.76-15.81,1.93-6,6.05-13.4,11.52-16.49,5-2.82,27.72-6.7,44.21,1.71C356.48,87.48,353.36,100,346.89,112.65Z"/><path class="cls-2" d="M318.75,78.2a63.41,63.41,0,0,0-11.91,1.49,17.55,17.55,0,0,0-5.38,2,18.53,18.53,0,0,0-4.28,3.89,34.06,34.06,0,0,0-4.5,7.38c-.27.58-.53,1.17-.77,1.76l-.57,1.47c0,.09-.14.24,0,.26l.37.2,1.73.91q3.46,1.82,7,3.49c4.72,2.23,9.52,4.31,14.42,6.12a103.47,103.47,0,0,0,13.26,4,62.69,62.69,0,0,0,8.7,1.36,35.27,35.27,0,0,0,8.66-.24c1.75-.33,1.7.18.24,1a15.73,15.73,0,0,1-8,1.37,74.38,74.38,0,0,1-18.05-3.8A147.42,147.42,0,0,1,302.65,104c-3.32-1.57-6.7-3.18-10-4.89l-1.26-.65-1.65-.88-.52-.28c-.14,0-.06-.13,0-.22l.09-.27.36-1.08c.13-.43.19-.55.28-.8l.25-.68a41,41,0,0,1,2.47-5.18c2.1-3.61,4.74-7.09,8.51-9.31a22.45,22.45,0,0,1,6-2,61.05,61.05,0,0,1,6.15-1,73.72,73.72,0,0,1,15.29-.07A57.5,57.5,0,0,1,340,79l2.73,1c.9.37,1.77.8,2.66,1.19a22.51,22.51,0,0,1,2.57,1.43c.4.29.77.62,1.16.93.19.16.39.31.57.48l.5.56A12.93,12.93,0,0,1,353.43,93a28.1,28.1,0,0,1-1.2,8.86c-.19.63-.37,1.25-.56,1.87s-.43,1.22-.65,1.85c-1.76,4.54-2.7,5.81-3.57,6.53a4.05,4.05,0,0,1-.61.46c-.57.22.1-1.64,1.41-4.86a59.49,59.49,0,0,0,2.45-7.37,24.63,24.63,0,0,0,.86-7.64A11,11,0,0,0,348.89,86c-.21-.23-.39-.47-.61-.68l-.73-.59a6.8,6.8,0,0,0-.73-.57l-.82-.49c-.27-.15-.53-.33-.82-.48l-.91-.41-1.83-.83a58,58,0,0,0-23.68-3.66Z"/><path class="cls-2" d="M267.2,104.48c-2-9.51,21.43.2,21.45.21,37,22.09,58.4,13.43,58.4,13.43s11.73,3.58,16.1,11c5,8.4-19.12,7.16-44.8.16C294.84,122.87,268.66,111.35,267.2,104.48Z"/><path class="cls-2" d="M343.31,133.14c2.68.34,5.36.59,8,.69a34.77,34.77,0,0,0,7.87-.44,6.45,6.45,0,0,0,3.13-1.33,1.24,1.24,0,0,0,.39-1.06,2.38,2.38,0,0,0-.15-.7c-.12-.25-.23-.49-.38-.75a19.57,19.57,0,0,0-5.37-5.52,34.14,34.14,0,0,0-5-2.92c-.87-.41-1.76-.81-2.66-1.17-.45-.19-.9-.36-1.36-.53l-.61-.22c-.12,0-.16,0-.22,0l-.59.19-.66.17c-.45.12-.89.23-1.33.31-.88.19-1.77.32-2.66.44a43.42,43.42,0,0,1-5.34.37,59.58,59.58,0,0,1-10.6-.8,89.64,89.64,0,0,1-20.28-5.94c-1.44-.62-2.89-1.2-4.31-1.85L297,110c-.7-.35-1.41-.68-2.1-1l-2-1.14-4.07-2.26-.33-.18-.1-.06-.14-.06-.68-.26-1.38-.52c-.93-.33-1.86-.65-2.79-1-1.87-.61-3.76-1.16-5.67-1.6a30.45,30.45,0,0,0-5.71-.86,8,8,0,0,0-2.67.3,2.07,2.07,0,0,0-1.5,1.51,7.22,7.22,0,0,0-.11,1.13c0,.26-.09.4-.19.4s-.22-.12-.37-.39a2.92,2.92,0,0,1-.34-1.28,2.81,2.81,0,0,1,.84-2,5,5,0,0,1,2.56-1.27,16.45,16.45,0,0,1,6.52.2,73,73,0,0,1,11.8,3.63l.36.15.18.07a2.7,2.7,0,0,1,.34.17l.65.37,1.31.74,2.62,1.48c1.73,1,3.53,1.9,5.33,2.79a102.64,102.64,0,0,0,22.56,8.3,59.71,59.71,0,0,0,14.53,1.56l1.84,0,1.84-.17c.61,0,1.22-.13,1.82-.23s1.22-.17,1.81-.31,1.19-.25,1.77-.42c.3-.07.58-.16.86-.25s.48-.19.72-.24l.7.23c1.27.44,2.41.9,3.58,1.42a37.48,37.48,0,0,1,7.26,4.23,18.41,18.41,0,0,1,5.64,6.46,3.86,3.86,0,0,1,.18,2.55,3.77,3.77,0,0,1-1.65,1.93,11.65,11.65,0,0,1-4.18,1.33,43.43,43.43,0,0,1-8.36.26,134.57,134.57,0,0,1-20.14-2.88,230.23,230.23,0,0,1-29.51-8.5,182.75,182.75,0,0,1-21.68-9.1c-1.53-.8-3-1.61-4.53-2.53a26,26,0,0,1-5.51-4.27,5.21,5.21,0,0,1-1.54-2.81,2.53,2.53,0,0,1,0-1c.05-.16.15-.13.3,0a2.9,2.9,0,0,1,.25.37,6.14,6.14,0,0,1,.4.55,20.71,20.71,0,0,0,3.77,3.38,66.15,66.15,0,0,0,9,5.23c3.16,1.57,6.44,3,9.77,4.4,6.67,2.75,13.58,5.22,20.6,7.39a190.86,190.86,0,0,0,31.9,7.19Z"/><path class="cls-3" d="M289.07,97.15a39.67,39.67,0,0,1-1.54,6.6,7.12,7.12,0,0,0,1.8.57,41.94,41.94,0,0,0,1.61-7A9.83,9.83,0,0,0,289.07,97.15Z"/><path class="cls-2" d="M307.78,126.52c-5,1.91-11.49-2.75-16,.81-9.79,7.73-11.69-9.21-10.78-12.19C290,118.72,305.57,126.41,307.78,126.52Z"/><path class="cls-2" d="M283.15,117.29l-.59-.26-.24-.11-.06,0-.26-.14c-.1,0-.06.07-.09.11l0,.09v.52a21.91,21.91,0,0,0,.57,4.89,14.71,14.71,0,0,0,1.22,3.31c.88,1.81,2.39,3.18,4.27,2.75a7.49,7.49,0,0,0,2.73-1.2l.64-.45.78-.49a4.27,4.27,0,0,1,.83-.41,3.84,3.84,0,0,1,.87-.28,9.64,9.64,0,0,1,3.14-.28c1,0,2,.21,3,.35a21.31,21.31,0,0,0,7.14.38c.68-.14.83.32.3,1a4.19,4.19,0,0,1-3.47,1.23c-2.76-.2-5.22-1-7.54-1.05a6.36,6.36,0,0,0-3.16.56l-.68.4-.84.57a11.63,11.63,0,0,1-1.89,1,7.2,7.2,0,0,1-2.66.52,5,5,0,0,1-2.69-.87,8.75,8.75,0,0,1-3-4.22,21.57,21.57,0,0,1-1.21-5.26,22,22,0,0,1-.14-2.7c0-.17,0-.57.05-.9a7.4,7.4,0,0,1,.13-1c.07-.3.13-.6.22-.91l0-.12s.07,0,.1,0l.22.08.44.17,1.07.4c.34.13.76.28,1,.38l1.47.65,2.93,1.31c2.95,1.34,5.89,2.73,8.82,4,2.28,1,4.57,1.89,6.86,2.77l1.51.56c1.87.72,2.39,1,2.66,1.56.06.13.18.26.23.39s-.07.36-.54.41a5,5,0,0,1-1.79-.26,114.15,114.15,0,0,1-12.8-5.16c-3.16-1.42-6.31-2.89-9.48-4.26Z"/><path class="cls-2" d="M168.38,257.11l1.42-3.35c.17-.4.29-.83.46-1.23.62-1.43,1.25-2.84,1.82-4.28a17.69,17.69,0,0,0,.63-1.95,11.27,11.27,0,0,1,.75-2.5c.27-.49,1.83.62,1.57,1.64a25.1,25.1,0,0,1-2,5.1,32.05,32.05,0,0,0-1.23,3.09l-1.4,3.37-.83,2.09c-.4,1.05-.82,2.11-1.13,3.18a22.72,22.72,0,0,0-.52,2.53l-.08.56c-.14.68-.32.87-.84.9a2.17,2.17,0,0,1-.36,0c-.39,0-.63-.38-.61-.92a17.92,17.92,0,0,1,1-4.8c.38-1.17.83-2.32,1.27-3.46Z"/><path class="cls-2" d="M226.36,376.27l-1.47,12c-.18,1.46-.31,2.93-.51,4.39-.68,5.14-1.44,10.28-2.19,15.42-.34,2.28-.61,4.57-.9,6.84a80.93,80.93,0,0,1-1.35,8.74c-.44,1.77-1.79-.82-1.31-4.13.85-5.91,1.7-11.84,2.71-17.79.6-3.57,1-7.31,1.42-11l1.47-12.1c.27-2.48.55-5,.82-7.45.18-1.88.37-3.77.55-5.65s.31-3.77.44-5.65c.07-1.45.12-2.89.16-4.33l0-4.31c0-.63-.06-1.24-.07-1.87s0-1.08,0-1.48,0-.72,0-1a2,2,0,0,1,.39-1.14,2.53,2.53,0,0,1,.31-.39c.35-.3.78.64,1,2.45a101.1,101.1,0,0,1-.32,16.19c-.31,4.07-.74,8.13-1.16,12.19Z"/><path class="cls-2" d="M206.17,407.16c.23,1.55.53,3.08.79,4.61l.41,2.31.47,2.28.47,2.28c.16.76.37,1.49.55,2.24s.34,1.52.6,2.22l.44,1.29c-.16,0,1.42-.23,2.42-.32s2.17-.2,3.26-.28c2.17-.15,4.33-.26,6.53-.28.49,0,1,0,1.49,0l.38,0,.27,0,.18,0a.73.73,0,0,0,0-.12l.09-.2a8.54,8.54,0,0,0,.38-.95l.71-2L227,416.2c2-6.46,3.92-13,5.76-19.53s3.62-13.1,5.33-19.67c1.54-5.84,3-11.73,4.32-17.56,1.72-7.49,3.3-15,4.91-22.53.5-2.34.92-2,1,.14a43.89,43.89,0,0,1-1.11,10.2c-3.34,15.39-7.28,30.6-11.63,45.84-2.63,9.11-5.14,18.64-8.19,27.89l-.73,2a10.64,10.64,0,0,1-.42,1l-.7,1.53-.81-.13-.42-.05-.32,0c-.3,0-.63,0-.95,0-.64,0-1.29,0-1.94,0-1.31,0-2.62.08-3.93.16s-2.62.18-3.92.3c-.65.06-1.3.13-1.94.21l-.48.07-.24,0-.12,0-.19,0c-.5.1-1,.22-1.52.36l-.72-2c-.16-.49-.35-1-.49-1.45l-.74-2.91c-.47-1.95-.83-3.9-1.24-5.85-1.22-6.46-2.16-13-3.06-19.46-1.33-9.86-2.4-19.78-3.31-29.61-.69-7.63-1.37-15.12-1.75-22.71-.06-1.67-.13-3.31-.19-5,0-3.13,0-5.2.15-6.65a10.3,10.3,0,0,1,.66-2.93,6.61,6.61,0,0,1,.39-.86c.21-.28.36.23.44,1.36s0,2.88.12,5.15c.1,6.72.53,13.65,1.09,20.66s1.19,14.13,2,21.24c1.14,10.56,2.45,21.17,4.17,31.66Z"/><path class="cls-2" d="M209.22,425.62s13.4,17.48,22.88,16.21c0,0,5.26,1.21,2.1-2.79,0,0-13.13-10.34-15.2-14.82Z"/><path class="cls-2" d="M230.69,434.65c1.26,1.1,2.52,2.19,3.81,3.26l.25.21.22.18.15.22.42.59c.13.22.28.51.4.76a6,6,0,0,1,.27,1l0,.52a4.83,4.83,0,0,1-.16.5,4.12,4.12,0,0,1-.32.41l-.42.31-.49.2-.54.11a5.28,5.28,0,0,1-.86,0c-.26,0-.51,0-.75-.07l-.37-.05-.23-.05-.47,0a4.85,4.85,0,0,1-.66,0,6.88,6.88,0,0,1-1.29-.13,17.32,17.32,0,0,1-6.27-2.66,40.53,40.53,0,0,1-5.21-4.05c-1.45-1.3-2.87-2.64-4.22-4a39.74,39.74,0,0,1-4.88-5.57c-.85-1.3,1.73-.84,3.55,1.21a77.38,77.38,0,0,0,10.61,10.19,14.47,14.47,0,0,0,8,3.18l1-.06.37.08.25,0,.51.06a3.12,3.12,0,0,0,.71,0,.34.34,0,0,0,.31-.26.38.38,0,0,0,0-.21.93.93,0,0,0-.11-.27,6.06,6.06,0,0,0-.51-.79.22.22,0,0,0-.09-.1l-.21-.18-.44-.37-1.77-1.49q-2.38-2-4.71-4.16a69.66,69.66,0,0,1-6.66-6.86c-.35-.48-.84-1.1-1-1.35l-.15-.24a1.85,1.85,0,0,0-.23,0l-.24.05-.45.08-3.55.65-1.56.29c-2,.31-2.6.27-3.09-.16a2.41,2.41,0,0,1-.33-.3c-.24-.35.52-.78,1.94-1.1,2.11-.47,4.28-.88,6.5-1.25L219,423l.41-.06.21,0c.07,0,.07.09.11.12l.37.64.36.64.1.16.06.08.11.15.46.62c.67.83,1.4,1.65,2.18,2.45,2.3,2.38,4.79,4.66,7.34,6.87Z"/><path class="cls-2" d="M224,424.62s13.59,11,16.33,12.27-.63,6-6.16,2.15S221,424.2,221,424.2Z"/><path class="cls-2" d="M233.32,436.86c.48.46,1,.84,1.49,1.24a10,10,0,0,0,1.56.93,3.93,3.93,0,0,0,3.14.23,1.72,1.72,0,0,0,.71-.61.72.72,0,0,0,.1-.55c0-.14-.14-.22-.44-.41l-.65-.38-.57-.39c-.75-.51-1.46-1.05-2.17-1.59-1.4-1.08-2.78-2.18-4.16-3.29-1.22-1-2.47-1.93-3.71-2.87a45.36,45.36,0,0,1-4.67-3.75c-.89-.88,1.47-1.29,3.27.12,3.19,2.5,6.33,5.08,9.45,7.7a32.73,32.73,0,0,0,3,2.2,7,7,0,0,0,.76.46l.36.21c.2.11.39.23.58.35a5.08,5.08,0,0,1,.5.54,3.73,3.73,0,0,1,.31.71,2.57,2.57,0,0,1-.12,1.44,3.42,3.42,0,0,1-1.95,1.83,4.76,4.76,0,0,1-2.43.28,8.89,8.89,0,0,1-4.09-1.83,31.29,31.29,0,0,1-3.83-3.52c-1.8-1.88-3.43-3.9-5.05-5.89l-1.9-2.29-.5-.6-.66-.83c-.44-.56-.94-1.23-1.41-1.87l-.65-.86a2.94,2.94,0,0,1-.29-.42l.5.05c2.58.31,3.6.57,4,1.12a1.21,1.21,0,0,1,.23.38.53.53,0,0,1-.25.48,1.29,1.29,0,0,1-.38.26.43.43,0,0,0-.17.09,3.15,3.15,0,0,0,.3.27,1.76,1.76,0,0,1,.24.21l.17.18.42.52c1.14,1.41,2.29,2.84,3.47,4.24a55.16,55.16,0,0,0,5.54,5.87Z"/><path class="cls-2" d="M306.06,169.21a1.9,1.9,0,0,1-1,.84l-.34.14-.35.14a2,2,0,0,1-.82.18,1.73,1.73,0,0,1-1.41-.78l-.15-.31a1.89,1.89,0,0,1-.1-.44,1.1,1.1,0,0,1,.44-1,3.47,3.47,0,0,1,1-.43c.35-.1.69-.25,1-.06s0,1.92-.29,2a2.8,2.8,0,0,1-.55.05h0a1.14,1.14,0,0,0-.06-.14,2.5,2.5,0,0,0-.17-.28,1,1,0,0,0-.15-.19.28.28,0,0,0-.11-.08,0,0,0,0,0,0,0,.21.21,0,0,0,.11,0,1.12,1.12,0,0,0,.23-.06c.06,0,.15-.09.24-.12a.08.08,0,0,0,0,.05h0l-.18.14h0a.44.44,0,0,0,.07-.12c0-.08,0,0,.11,0h.09l.12-.05.15-.06.43-.18s0,0,.05,0a.81.81,0,0,0,.24.14c.11,0,0,0-.12.08l.29-.14a.8.8,0,0,0-.21.25c0,.09,0,.09,0,.07h0l-.06,0a.58.58,0,0,0-.19,0,.63.63,0,0,0-.35,0,.45.45,0,0,0-.1.44l0,.08c0,.08-.11.08-.6.15l-.34.06c-.38.08-.73,0-.81-.37a1.76,1.76,0,0,1,.37-1.47,2,2,0,0,1,.7-.56,2.65,2.65,0,0,1,.82-.22,2.69,2.69,0,0,1,.79.06,2.28,2.28,0,0,1,.47.15,1.67,1.67,0,0,1,.73.59l0,0,0,.06a1.93,1.93,0,0,1,.19.7,1.64,1.64,0,0,1-.16.76Z"/><path class="cls-2" d="M292.23,436.08l1.81,6.35c-4.4.84-21.22.88-20-2.76C275.37,435.63,289.8,435.17,292.23,436.08Z"/><path class="cls-2" d="M294.92,434.65s2.45,8.17,2.45,8.17c5.74.77,25-.46,23.62-4C318.67,432.83,297.57,433.37,294.92,434.65Z"/><path class="cls-4" d="M353.89,424.65s1.57,5.49,1.57,5.49c-3.8.73-18.34.76-17.29-2.38C339.33,424.27,351.8,423.86,353.89,424.65Z"/><path class="cls-4" d="M356.08,423.42l2.12,7.06c5,.67,21.45-.4,20.28-3.44C376.47,421.85,358.37,422.32,356.08,423.42Z"/><path class="cls-2" d="M271.39,343.36c-2.76-28.63,20-142.47,1.92-163.62-8.71-10.19-20.26-10.07-30.16-2.61-25.71,19.38-45.59,44-71.75,62.78,10.54.13,11,8.61,11,11.29-4.74,7.11-37.93,44.28-41,46.69C159.78,331.36,251.67,346.2,271.39,343.36Z"/><path class="cls-2" d="M179.54,253.11c.51-.64,1-1.28,1.45-1.92.33-.44.25-.34.26-.39,0-.38,0-.77-.06-1.14a11,11,0,0,0-1.21-4.27,7.45,7.45,0,0,0-2.95-3l-1-.47c-.34-.14-.71-.23-1.06-.35a9.48,9.48,0,0,0-1.77-.29c-.71-.09-1.41-.19-2.15-.26l-2.17-.23-.27,0-.13,0c-.08,0,0,0,.06-.07l.46-.34.93-.69,3.56-2.63,2-1.46,1.93-1.51c2.6-2,5.11-4.09,7.63-6.18,10-8.48,19.41-17.65,29-26.68,7-6.6,14-13.15,21.5-19.22l2.47-2,2.52-1.95a41.33,41.33,0,0,1,5.3-3.7,23.15,23.15,0,0,1,12.58-3.34,20.11,20.11,0,0,1,6.45,1.42,24.24,24.24,0,0,1,5.63,3.41,31.5,31.5,0,0,1,2.37,2.25l1.11,1.2c.33.45.7.88,1,1.35a25,25,0,0,1,2.78,5.92,45.76,45.76,0,0,1,1.58,6.25q.6,3.15.94,6.33c.47,4.23.68,8.48.77,12.72.18,8.48-.15,16.95-.64,25.4-.9,15-2.37,30-3.87,44.84-1,9.52-2,19.05-2.86,28.58-.45,4.77-.87,9.53-1.22,14.3s-.62,9.53-.6,14.27c0,2.95.07,4.22-.14,4.16s-.58-1.49-.87-4c-.61-5.06-.55-14.44.47-25.43,1.8-19.48,4.13-38.86,5.83-58.33.85-9.73,1.58-19.48,1.93-29.25s.39-19.59-.82-29.26a60.57,60.57,0,0,0-1.7-8.56,30,30,0,0,0-1.46-4.08,16.52,16.52,0,0,0-2.15-3.67,24.05,24.05,0,0,0-6.5-5.64,17.5,17.5,0,0,0-8.2-2.4,20.33,20.33,0,0,0-8.47,1.63,30.54,30.54,0,0,0-7.51,4.62c-4.81,3.65-9.4,7.57-13.91,11.53-9.92,8.73-19.33,18.06-29.05,27.09-4.86,4.51-9.81,8.94-14.91,13.19-2.54,2.14-5.17,4.18-7.79,6.23l-3,2.18-.23.17-.11.08h.13l.55,0a5.43,5.43,0,0,1,.67.11l.36.06.58.17a9.9,9.9,0,0,1,5.33,3.63,12.18,12.18,0,0,1,2.11,6.05c0,.26,0,.53.06.79s0,.49,0,.94c.05.21-.1.36-.21.51l-.28.38-.46.63c-.6.85-1.26,1.63-1.89,2.44q-1.92,2.4-3.9,4.73c-5.26,6.25-10.64,12.38-16.05,18.47-4.11,4.62-8.24,9.21-12.45,13.75l-3.17,3.39c-.53.57-1.09,1.12-1.63,1.68-.31.32-.44.43-.63.6l-.13.13c-.05,0-.12.08-.06.13l.17.27,1.12,1.8a17.35,17.35,0,0,0,1.36,1.83c.47.6.92,1.22,1.42,1.79l1.57,1.66a67.91,67.91,0,0,0,14.55,11.09,130.59,130.59,0,0,0,16.46,8.07c17.6,7.21,35.81,11.71,54.3,14.94,4.07.71,8.08,1.26,12.21,1.82,7.67,1,12.74,1.32,16.3,1.55s5.6.29,7.27.47c.76.07,1.76.05,2.21.13s.29.16-.26.3a17.16,17.16,0,0,1-3,.46,82.86,82.86,0,0,1-13-.13,246.27,246.27,0,0,1-25.44-3.35C221,339.2,212.45,337.31,204,335a219.6,219.6,0,0,1-25.21-8.48c-4.14-1.67-8.21-3.57-12.21-5.62-1-.51-2-1.08-3-1.61s-2-1.09-2.92-1.7l-2.88-1.78-2.8-1.92c-1.4-.94-2.68-2-4-3.07-.66-.53-1.27-1.12-1.9-1.68s-1.29-1.11-1.86-1.74a41.18,41.18,0,0,1-3.41-3.81c-.52-.68-1.08-1.33-1.56-2l-1.44-2.3-.64-1c-.09-.17-.26-.35-.28-.51l.41-.39.82-.77.4-.37.22-.22c.56-.59,1.14-1.15,1.7-1.76q1.71-1.78,3.39-3.62l6.69-7.35q6.66-7.38,13.2-14.89c4.34-5,8.71-10,12.79-15.17Z"/><path class="cls-2" d="M190.82,244l-2.48,2.73c-.3.33-.57.7-.88,1-1.09,1.15-2.23,2.25-3.38,3.35-.51.49-1,1-1.47,1.51a8.34,8.34,0,0,1-2,1.82c-.5.27-1.13-1.57-.42-2.23,1.28-1.21,2.56-2.43,4-3.6a22.7,22.7,0,0,0,2.27-2.42l2.46-2.74,1.49-1.71c.74-.87,1.51-1.73,2.2-2.64.54-.7,1-1.46,1.48-2.19.1-.16.19-.33.31-.49.44-.58.69-.67,1.17-.47a3.09,3.09,0,0,1,.32.14c.34.2.4.63.15,1.1a25.51,25.51,0,0,1-2.75,4c-.77,1-1.58,1.89-2.37,2.84Z"/></g></svg>