<svg id="Layer_1" data-name="Layer 1" xmlns="http://www.w3.org/2000/svg" width="520" height="520" viewBox="0 0 520 520"><defs><style>.cls-1{fill:#221f1f;}.cls-2,.cls-3{fill:none;stroke:#221f1f;stroke-linecap:round;stroke-linejoin:round;}.cls-3{stroke-width:2px;}.cls-4{fill:#232020;}</style></defs><title>Notioly v2</title><g id="_59.Investment" data-name="59.Investment"><path class="cls-1" d="M172.74,366.47a1.8,1.8,0,0,1,.31-.6,6.55,6.55,0,0,0,.68-1.55,12.55,12.55,0,0,0,.38-1.45,2.54,2.54,0,0,1,.17-.51c.05-.11.16-.51.29-.9a4.83,4.83,0,0,1,.27-.87,4.21,4.21,0,0,0,.39-1,3.32,3.32,0,0,0,.09-.55,11.39,11.39,0,0,0,.16-1.39,5.55,5.55,0,0,0-.16-1.47c-.06-.15.23-.64.18-.84a4.09,4.09,0,0,1,1.13-.49c.14,0,.19.11.18.21a8.21,8.21,0,0,0,.6,1.55,11,11,0,0,1,.48,1.46c0,.12-.07.25,0,.37a6.64,6.64,0,0,1,.4,1.91,6.25,6.25,0,0,1-.12,1.22c-.11.56-.29,1.11-.46,1.18s-.07,0-.07,0a6,6,0,0,1-.65,1.29c-.07.09-.58.67-1.1,1.17s-1.05,1-1.08,1-.17.16-.24.25a6.92,6.92,0,0,0-.63.8C173.79,367.52,172.68,366.64,172.74,366.47Z"/><path class="cls-1" d="M221.05,265c-46.3,10.75-81.78-.83-89.14-5.53,5.58-1.82,49-9.21,52.66-6.56C176.53,255.75,190.12,269.43,221.05,265Z"/><path class="cls-1" d="M366,103.62c4.32-2.91,6.63-8.69,4.56-12.65a6.08,6.08,0,0,0-5.42-3.52c2.44-8.94,2.54-21-25.42-11.18a45.08,45.08,0,0,1-27.64,1c-16.77-5-28.48-21.27-17-38.87,23.37-35.79,67.79,5.26,67.79,5.26S390.27,36.9,396,56.48,387.21,99.11,366,103.62Z"/><path class="cls-1" d="M344,32.23c-7-3.77-14.54-6.69-22.34-7.08a26.48,26.48,0,0,0-20.92,8.16c-3.88,4.13-7.2,9.1-8.44,14.55a20.33,20.33,0,0,0,1.83,14.32,27.72,27.72,0,0,0,10.35,10.6,37.11,37.11,0,0,0,14.27,4.89A45,45,0,0,0,334,77a56.12,56.12,0,0,0,6.56-1.9c2.2-.76,4.45-1.42,6.71-2a44.84,44.84,0,0,1,6.94-1.25,18.3,18.3,0,0,1,7.18.56A8.24,8.24,0,0,1,365.2,75,8.57,8.57,0,0,1,367,79.2a15.87,15.87,0,0,1,0,4.41c-.08.72-.22,1.43-.36,2.12l-.11.54-.05.21,0,.1s0,.07,0,.06a1.88,1.88,0,0,1,.47,0,5.6,5.6,0,0,1,1.05.37,7.1,7.1,0,0,1,2.2,1.58,7.94,7.94,0,0,1,1.46,2.21,7.77,7.77,0,0,1,.68,2.57,10.4,10.4,0,0,1-.89,5,12.81,12.81,0,0,1-2.8,4.12c-1.42,1.36-2.29,1.61-2.35,1.4s.53-1,1.37-2.26a14.17,14.17,0,0,0,2.21-5.51,7.49,7.49,0,0,0-.24-3.55,5.8,5.8,0,0,0-2.21-2.9,4.48,4.48,0,0,0-1-.47l-.69-.13c-.26,0-.57,0-.86,0L363.05,89l.54-2.08.26-1,.13-.51,0-.25c.15-.69.26-1.34.34-2a13.14,13.14,0,0,0,0-3.81,5.39,5.39,0,0,0-4.3-4.64,20,20,0,0,0-7.88-.07A61,61,0,0,0,344,76.54c-1.36.39-2.68.85-4.06,1.3s-2.83.89-4.28,1.22a46.78,46.78,0,0,1-8.82,1.27,42.79,42.79,0,0,1-17.56-2.71A36.49,36.49,0,0,1,299.48,72a28.58,28.58,0,0,1-7.39-8.8,22.69,22.69,0,0,1-2.67-11.31,24,24,0,0,1,.88-5.78,28.75,28.75,0,0,1,2.16-5.36c.25-.47.5-.94.76-1.39l.83-1.34c.58-.88,1.22-1.71,1.82-2.56a24.23,24.23,0,0,1,2-2.42l1-1.18c.37-.37.76-.72,1.15-1.08a28.8,28.8,0,0,1,10.75-6.51,31,31,0,0,1,12.46-1.35,46.83,46.83,0,0,1,12.12,2.78A78.58,78.58,0,0,1,349,32.41a105,105,0,0,1,12.31,8.84l1,.89.73.64.34-.07.6-.11,1.34-.23c.9-.14,1.8-.25,2.71-.35a49.29,49.29,0,0,1,5.44-.25,33.63,33.63,0,0,1,10.78,1.72,19.58,19.58,0,0,1,9,6.25,20,20,0,0,1,2.7,4.82,39.49,39.49,0,0,1,1.39,5.28,36.54,36.54,0,0,1-1.53,17.59A42.75,42.75,0,0,1,387,92.62l-2.75,2.76-3,2.49a37.09,37.09,0,0,1-5.27,3.24c-.76.38-1.44.75-2.09,1l-1.78.62a11.36,11.36,0,0,1-4.55.81,11,11,0,0,1-1.41-.07c-.5-.12.18-.54,1.76-1.16a29.77,29.77,0,0,0,3-1.22l1.92-.85c.69-.3,1.36-.74,2.11-1.13a40.86,40.86,0,0,0,19-23.21,33.86,33.86,0,0,0,1.29-15.35c-.26-1.26-.55-2.53-.86-3.78a18.83,18.83,0,0,0-1.44-3.46l-.46-.82-.53-.76a14.26,14.26,0,0,0-4-3.85,24.19,24.19,0,0,0-11.82-3.63,43.41,43.41,0,0,0-6.45,0c-1.07.09-2.15.2-3.22.35-.53.08-1.07.16-1.6.26l-.79.15c-.49.1-1.07.23-1.6.36l-1-.93-.61-.53-1-.88c-.69-.59-1.4-1.16-2.12-1.72-1.43-1.13-2.9-2.22-4.39-3.27A90.87,90.87,0,0,0,344,32.3Z"/><path class="cls-1" d="M314.17,135.6a11.16,11.16,0,0,0,4.73,2.48,16.12,16.12,0,0,0,5.52.62,20.58,20.58,0,0,0,10.51-4,40,40,0,0,0,6.32-5.76,72.31,72.31,0,0,0,8.41-11.55c1.23-2.07,2.39-4.17,3.47-6.32.54-1.07,1.06-2.16,1.56-3.25l.73-1.64.46-1.09.52-1.31,1.39.36.69.18.34.08.23,0a9,9,0,0,0,6.07-1.29,11.46,11.46,0,0,0,4.25-4.67,10.06,10.06,0,0,0,1-3.86,6.22,6.22,0,0,0-.94-3.61,4.32,4.32,0,0,0-3-1.79,13.27,13.27,0,0,0-4.07,0c-1.73.29-1.7-.35-.27-1.27a8.38,8.38,0,0,1,3.3-1.13,7.36,7.36,0,0,1,2.53.11,6,6,0,0,1,2.78,1.47,8.36,8.36,0,0,1,2.14,7.39,13.26,13.26,0,0,1-3.07,6.56,12.92,12.92,0,0,1-6,4c-.61.14-1.21.33-1.82.41a16.72,16.72,0,0,1-1.87.09l-.92-.08-.46,0-.24,0-.09,0-.52-.16-.08.11-.49,1.1c-.36.8-.73,1.58-1.11,2.37-.77,1.57-1.58,3.11-2.44,4.64-1.8,3.19-3.7,6.41-5.86,9.5a56.3,56.3,0,0,1-7.27,8.7,30.56,30.56,0,0,1-10.51,6.87,20.92,20.92,0,0,1-6.28,1.19,20.66,20.66,0,0,1-6.31-.94,13.33,13.33,0,0,1-6.51-4.48,20.87,20.87,0,0,1-3.53-6.93,44.15,44.15,0,0,1-1.74-11.43,94.35,94.35,0,0,1,.33-11.42,171.58,171.58,0,0,1,2.29-17.32c.23-1.26.45-2.49.73-3.75,1-4.68,1.63-6.11,2.51-6.93a3.55,3.55,0,0,1,.6-.54c.61-.3.46,1.66-.23,5.06-1,5-1.93,10.24-2.65,15.52A124.3,124.3,0,0,0,308,114a54,54,0,0,0,1.11,11.76,23.48,23.48,0,0,0,1.84,5.43,14.47,14.47,0,0,0,3.22,4.41Z"/><path class="cls-1" d="M346.49,124.35c-.21.39,1.15,19.5-11.26,20.61-3.39.3-6.1-2.8-6.75-5.59A31,31,0,0,0,346.49,124.35Z"/><path class="cls-1" d="M330.28,140.18h-.1s0,.06,0,.1v.06a.47.47,0,0,0,0,.05l.1.2a7.06,7.06,0,0,0,1,1.45,5.17,5.17,0,0,0,2.81,1.74,3.69,3.69,0,0,0,1.33,0l.74-.11.72-.16a8.76,8.76,0,0,0,4.44-2.63,14.2,14.2,0,0,0,2.78-4.72,22,22,0,0,0,1.14-4.89c.27-2.14.22-4.29.47-6.49a.77.77,0,0,1,.15-.41c.09-.21.24-.3.32-.22s.42.35.69.64a4.33,4.33,0,0,1,1,3,32.17,32.17,0,0,1-1,6.93,18.41,18.41,0,0,1-3.13,6.49,13.69,13.69,0,0,1-3.33,3.05,10.53,10.53,0,0,1-4.28,1.55,6.46,6.46,0,0,1-2.62-.06,6.77,6.77,0,0,1-2.38-1.12,8,8,0,0,1-1.8-1.79,9,9,0,0,1-.69-1.05c-.1-.2-.18-.35-.29-.59s-.23-.55-.33-.82a9.49,9.49,0,0,1-.4-1.59c.58-.15,1.15-.32,1.71-.49l.64-.22.51-.19c.68-.26,1.35-.56,2-.87a28.53,28.53,0,0,0,6.93-4.6,26.13,26.13,0,0,0,4.06-4.87c.24-.39.47-.79.72-1.18.9-1.47,1.25-1.9,2-2a2.58,2.58,0,0,1,.47,0c.48,0,.43.86-.14,2.1a26.22,26.22,0,0,1-1.5,2.67,28.35,28.35,0,0,1-1.91,2.49A27.66,27.66,0,0,1,338.3,136a31.34,31.34,0,0,1-4.06,2.53c-.71.36-1.43.71-2.16,1L331,140l-.57.2-.06,0h0Z"/><path class="cls-1" d="M204.74,168.66l.08.06,0,0,.2.08.43.16,1.83.66a19.48,19.48,0,0,1,3.63,1.93c.81.51,1.63,1,2.4,1.55,1.36,1,2.67,2,4,3l1.95,1.52a10,10,0,0,0,1.91,1.23,9.41,9.41,0,0,0,4,.86c1.77.06,3.61-.28,5.52,0,.59.07.51.7,0,1.31a3.36,3.36,0,0,1-2.42,1.27,19.27,19.27,0,0,1-6.11-.46,11.15,11.15,0,0,1-3-1.34,24.65,24.65,0,0,1-2.36-1.88,61.87,61.87,0,0,0-5.64-4.09,37.08,37.08,0,0,0-3.18-2,12,12,0,0,0-1.63-.74l-1.83-.64-.63-.24c-.28-.11-.56-.22-.83-.35a7.91,7.91,0,0,1-3.38-2.89l-.07-.1,0-.19c0-.06,0-.12.09-.18a3,3,0,0,1,.38-.35,2.67,2.67,0,0,1,.82-.49A5.37,5.37,0,0,1,203,166a12.54,12.54,0,0,1,2.43.26c.6.11,1.19.24,1.77.37,1.87.33,3.73,1.09,5.31,1.38a7.05,7.05,0,0,0,1,.07c.6,0,1,0,1.28,0a1.44,1.44,0,0,1,.8.41,3.81,3.81,0,0,1,.36.33c.34.35-.06,1.11-1.4,1.47a6.66,6.66,0,0,1-3,0,22.62,22.62,0,0,1-2.56-.73c-.4-.13-.77-.24-1.14-.34l-.54-.13-.63-.14-1.22-.26-.56-.1h0s0,0-.11,0,0,0,0,.08Z"/><path class="cls-2" d="M387.37,245.49c-7.15-8-35.79-20.64-35.79-20.64"/><path class="cls-1" d="M214.13,154.84a36.49,36.49,0,0,1,11,6.55c1.17,1,2.4,1.92,3.5,3a110.16,110.16,0,0,1,10.81,11.86c1.48,1.84,3,3.7,4.41,5.56a52.82,52.82,0,0,1,5.15,7.45c.88,1.67-2.34.9-4.27-1.88-3.48-5-7.14-9.77-11-14.48a72.66,72.66,0,0,0-7.9-7.89,45,45,0,0,0-10-6.92l-.83-.4-.86-.31a11.62,11.62,0,0,0-1.71-.54,9.16,9.16,0,0,0-3.5,0,15.58,15.58,0,0,0-7.25,3.78,5,5,0,0,0-.84.94.54.54,0,0,0-.08.15s-.15,0-.26,0a.6.6,0,0,0-.13,0l0,0,.07-.1c0-.06.12-.28.1-.22l.17,0a6.89,6.89,0,0,0,1.93-.48c.66-.25,1.31-.54,2-.86s1.27-.67,1.89-1l.25-.14a1.39,1.39,0,0,1,.38-.17,6.4,6.4,0,0,1,.62-.2,5.7,5.7,0,0,1,3.62.23,8,8,0,0,1,2.33,1.4,1.88,1.88,0,0,1,.67,1.1,4,4,0,0,1,.1.55c0,.27-.27.39-.77.34a6.65,6.65,0,0,1-2-.69,4.87,4.87,0,0,0-3-.67,4.06,4.06,0,0,0-.71.21l-.11,0-.1.06-.46.26c-.62.35-1.26.68-1.91,1a21,21,0,0,1-2,.85,9.1,9.1,0,0,1-2.48.56,3,3,0,0,1-1.13-.15,2,2,0,0,1-1-.74,2,2,0,0,1-.35-1.35,2.69,2.69,0,0,1,.44-1.2,5.68,5.68,0,0,1,.46-.61,13.87,13.87,0,0,1,1.73-1.64,17.75,17.75,0,0,1,6-3.21,13.62,13.62,0,0,1,3.51-.56,10.27,10.27,0,0,1,3.55.55Z"/><path class="cls-1" d="M229,185.89a28.5,28.5,0,0,1,6.9,9.06c.29.55,2.63-.36,2.47-.66a29,29,0,0,0-7-9.21c-.49-.39-2.6.59-2.32.81Z"/><path class="cls-3" d="M369.64,279.68c-.92-7.3-.1-10.67,1.33-23"/><path class="cls-1" d="M312.13,159.45c-2.06-2.36-.61-4,1.71-5.36s4.61-2.09,6.8-3.37c1.69-1,.14-2.45-1.27-1.63-3.71,2.17-15.2,5.53-9.9,11.62.83.95,3.59-.19,2.66-1.26Z"/><path class="cls-1" d="M315.89,217.16c1.58,4.47,7.1,6.79,11,8.78,6.4,3.25,12.94,6.21,18.63,10.67.64.5,3.11-.57,2.58-1-5-3.92-10.68-6.71-16.35-9.53-4.3-2.15-11.34-4.69-13.09-9.66-.27-.75-3,.06-2.76.73Z"/><path class="cls-1" d="M341.53,215.07c-4.58-3.14-5.73-8.47-8.51-12.91-.82-1.3-2-2.44-3.54-1.08-1,.87-.56,2.11-.77,3.2-.33,1.8.29,1.32-1.21.67-1.22-.53-2.3-1.56-3.52-2.15-2.13-1-5.74-2.12-7.18.55-.1.17,1.6.1,1.85-.36,1.31-2.42,8.19,4,9.82,4,2.23-.05,1.95-1.89,2.12-3.55a14.24,14.24,0,0,1,.46-2.34l-.93.19a3.52,3.52,0,0,1,.73.9,30.5,30.5,0,0,0,2.17,4.31c1.68,3.43,3.5,7,6.73,9.21.41.28,2-.49,1.78-.62Z"/><path class="cls-1" d="M406,260.84a7.72,7.72,0,0,1-7.41,9.29c-24.09.09-47.09-28.92-51.75-34,4.26-4.42,4.78-11.43,4.78-11.43s15.78,7.76,22.35,11.16c2.73-17.09,5.62-32.28,5.27-33a86.28,86.28,0,0,0-19.67-6.16c-16.49-3.25-31-2.48-37.17-7.87.42.93,0,5.12-.95,12.37a2.82,2.82,0,0,0-3.69,1.79c-.32,1,.57,2,1.22,2.87a.5.5,0,0,1-.31.79c-2.47.56-.75,2.62.19,4.12a1,1,0,0,1-.3,1.34c-1.87,1.14-2.85,3.25.45,7.42-3.18,21.5-8.25,46-8.25,46,3.76,11.88,45.93,5.93,57.48,14.94l-.14,6.17c-52.42-2.45-70.7-14.53-69.37-18.84,5.65-18.31,12.21-70.06,12.21-70.06-2,3.23-30.38,30.5-41.37,30.53-17.15,0-26.37-19.93-33-32.88,7.45-.87,9.69-9.29,9.69-9.29S259.8,208,268.14,204.32C289.3,195,309.08,158,310.85,159.38c9.59,7.79,22.41-5.25,22.41-5.25s5,12.56,10.7,8.79c2.88-1.89.63-8.23.37-10C342.37,151.8,386.25,162.1,406,260.84Z"/><path class="cls-1" d="M278.24,223.45a123.3,123.3,0,0,0,16.38-12c2.6-2.22,5.16-4.49,7.65-6.82q1.86-1.76,3.68-3.55l1.35-1.37c.5-.5,1.09-1.19,1.65-1.83l.42-.48.49-.66,1-1.32,2.14-2.92-.09,1.06-.18,1.36-.35,2.73-.72,5.45L310.8,209l-1.71,11.76c-1.19,7.84-2.44,15.66-3.85,23.47s-2.92,15.62-5.13,23.31l-.11.36a1,1,0,0,0-.06.28.43.43,0,0,0,0,.2,2.42,2.42,0,0,0,.42.84,9.35,9.35,0,0,0,1.84,1.82A28.45,28.45,0,0,0,307,274a72.63,72.63,0,0,0,10.88,4.14,164.21,164.21,0,0,0,24.13,5c4.08.55,8.18,1,12.29,1.37,2.05.16,4.1.36,6.16.48l3.09.21,2.9.16.35,0,.07-2.6,0-1.54c0-.09-.07-.13-.12-.17l-.21-.14a2.35,2.35,0,0,0-.37-.24,26.28,26.28,0,0,0-6.93-2.54,117.11,117.11,0,0,0-15.2-2.17c-5.15-.49-10.32-.88-15.51-1.54a75.15,75.15,0,0,1-7.77-1.34,25.59,25.59,0,0,1-7.58-2.87,9.54,9.54,0,0,1-3.08-3.14l-.53-1.24c0-.07-.07-.13-.07-.19l0-.2.09-.4.11-.55.39-1.9,1.52-7.61q1.49-7.62,2.87-15.26t2.61-15.3l.6-3.83.1-.67c0-.07,0-.12-.06-.17l-.15-.21a12.67,12.67,0,0,1-1.1-1.78,7.13,7.13,0,0,1-.72-2.13,4,4,0,0,1,.36-2.48,3.85,3.85,0,0,1,.75-1,2.81,2.81,0,0,1,.45-.4l.19-.14a.42.42,0,0,0,.09-.68l-.34-.53c-.15-.24-.31-.49-.46-.77a5.77,5.77,0,0,1-.4-.93,2.5,2.5,0,0,1,0-1.35,2,2,0,0,1,.39-.72,1.27,1.27,0,0,1,.4-.35,1.24,1.24,0,0,1,.32-.12.21.21,0,0,0,.14-.27c-.06-.1-.13-.19-.2-.29l-.1-.15-.2-.31a3.58,3.58,0,0,1-.45-1.08,2.3,2.3,0,0,1,.07-1.35,3.54,3.54,0,0,1,.54-1,3.73,3.73,0,0,1,1.85-1.34,4.17,4.17,0,0,1,.56-.14l.27,0h.09a1.57,1.57,0,0,1,.37,0l.07,0s0,0,0-.06l0-.14,0-.29.14-1.07.32-2.64.29-2.64.11-1.31.05-.91c0-.32,0-.7,0-1.05a3.23,3.23,0,0,0,.68-1.3s0-.1,0-.1h.86a.86.86,0,0,0,.44-.06l1.71,1.06a1.43,1.43,0,0,0,.34.18l.29.13.58.25a10.33,10.33,0,0,0,1.21.45c.41.13.81.29,1.23.4a48.23,48.23,0,0,0,5.13,1.13c3.48.59,7,1,10.57,1.41a171.75,171.75,0,0,1,19.28,3.17,89.1,89.1,0,0,1,9.42,2.78c1.54.55,3.07,1.15,4.57,1.8a14.63,14.63,0,0,1,1.36.69l.37.19.18.1.09,0s0,.07,0,.1a4.91,4.91,0,0,1,.07.86,3.69,3.69,0,0,1,0,.88l-.07.62-.18,1.22c-1,6.43-2.13,12.79-3.19,19.17l-1.65,10.09c-.1.6-.18,1.24-.3,1.81l-1.66-.82L370.28,235,366,232.87l-7.43-3.7-3.71-1.84-1.73-.86a4.69,4.69,0,0,0-.79-.35c0,.19,0,.38-.07.56l-.05.28-.12.56a26,26,0,0,1-.72,2.58A19.89,19.89,0,0,1,349,235l-.41.55-.15.2-.09.11-.18.2s-.09.07-.05.1l.09.1,1.31,1.49c1.13,1.29,2.26,2.57,3.42,3.84a137.44,137.44,0,0,0,14.81,14.15A71,71,0,0,0,385,266.31a37.79,37.79,0,0,0,9.68,2.64c.83.08,1.66.21,2.5.22l1.25.05a7.2,7.2,0,0,0,1.14-.09,6.56,6.56,0,0,0,3.91-2.13,7.4,7.4,0,0,0,1.49-2.54,7.61,7.61,0,0,0,.42-2c0-.27,0-.51,0-.7s0-.36,0-.49.05-.37.12-.35a3.3,3.3,0,0,1,.52,1.85,7.52,7.52,0,0,1-1.49,4.93,7.9,7.9,0,0,1-3,2.45,8.24,8.24,0,0,1-2.12.69,11.76,11.76,0,0,1-1.18.11h-1.14a35.44,35.44,0,0,1-10.34-1.57c-7.38-2.23-15.25-6.89-22.61-13.13a143.16,143.16,0,0,1-14.06-13.8L347,238.79l-1.19-1.34-.79-.89c-.11-.15-.32-.3-.36-.45l.41-.46.8-.92.4-.46.25-.33a8.87,8.87,0,0,0,.62-.89,17.23,17.23,0,0,0,1.87-4,20.86,20.86,0,0,0,.6-2.19l.16-.85c.08-.39.12-.82.18-1.24.09-.84.16-1.75.24-2.61l15,7.5,6.46,3.23.81.41.2.1,0,0h0v0l.26-1.54,2.41-14.25,1.21-7.12.59-3.55.26-1.76.17-1.24s-.09-.06-.2-.11l-1.44-.62c-1.09-.45-2.19-.88-3.3-1.28q-3.33-1.2-6.77-2.12a121.84,121.84,0,0,0-14-2.8c-4.74-.7-9.53-1.19-14.36-1.84-2.42-.34-4.84-.7-7.28-1.27a37.64,37.64,0,0,1-3.64-1.07c-.61-.19-1.2-.5-1.8-.75l-.23-.09-.11-.05,0,0-.12-.07-.22-.13c-.06,0-.16-.14-.18-.11a.74.74,0,0,1,0,.21l-.15,1.77-.3,2.68-.32,2.67c-.08.52-.32,2.68-.56,4.09-.56-.15-1.23-.36-1.8-.49l-.43-.07h-.15a.65.65,0,0,0-.22.05,1.39,1.39,0,0,0-.7.5,1.79,1.79,0,0,0-.21.37.34.34,0,0,0,0,.14,1.84,1.84,0,0,0,.18.39l.08.14.09.13.12.17.47.64a2.45,2.45,0,0,1,.42,1.18,1.76,1.76,0,0,1-.4,1.14c-.12.12-.29.25-.43.37a4.63,4.63,0,0,1-.67.34s-.13,0-.19.07l-.1,0-.05-.05-.17-.18a.37.37,0,0,0-.1-.07h0a.66.66,0,0,0,.21,0h.18s0,.07,0,.11a3.25,3.25,0,0,0,.22.51,6,6,0,0,0,.37.62l.59.93a2.32,2.32,0,0,1,.25,2.06,2.06,2.06,0,0,1-.58.87l-.44.34c-.08.07-.14.09-.25.18l-.08.07a1.66,1.66,0,0,0-.7,1.21,4,4,0,0,0,.45,1.78,7.74,7.74,0,0,0,.54,1l.31.48.49.67.34.45s.07.07.08.12l0,.14,0,.27-.15,1-.19,1.25-.4,2.51-.83,5c-1.42,8.4-3,16.84-4.64,25.32L312.79,261l-.64,3.19-.16.8-.06.28s0,.08,0,.12l.05.12.12.27a2.15,2.15,0,0,0,.34.56,9.77,9.77,0,0,0,4.74,3.23,35.81,35.81,0,0,0,6.1,1.66c4.2.8,8.52,1.24,12.85,1.64s8.7.73,13.07,1.22a76.24,76.24,0,0,1,13.09,2.35c.54.14,1.08.34,1.61.53a14.34,14.34,0,0,1,1.6.63,12.53,12.53,0,0,1,1.56.77,13.18,13.18,0,0,1,1.76,1.13c.17.14.43.23.52.41l0,.69,0,1.12,0,1.64-.1,4.42-6.29-.34-5.12-.36c-3.42-.27-6.82-.58-10.21-1a175.55,175.55,0,0,1-31-6,57.9,57.9,0,0,1-14.63-6.4,15.28,15.28,0,0,1-3.18-2.77,5.21,5.21,0,0,1-1.1-2.22,2.41,2.41,0,0,1,0-.76l.06-.39c0-.15.05-.18.07-.27l.27-.94c.74-2.49,1.33-5,1.93-7.55,2.26-10.18,4-20.5,5.65-30.83.82-5.17,1.59-10.34,2.34-15.52l1.09-7.77.37-2.73.12-.86.06-.43v-.1s0,0,0,0a1.09,1.09,0,0,1-.13.17c-.27.32-.56.63-.85.94l-1.4,1.41c-1.39,1.36-2.79,2.7-4.22,4a185.77,185.77,0,0,1-16.31,13.56,77.66,77.66,0,0,1-9,5.75,29.28,29.28,0,0,1-5,2.11,10.14,10.14,0,0,1-1.37.33,9.63,9.63,0,0,1-1.43.17,19.41,19.41,0,0,1-2.76-.13,22.26,22.26,0,0,1-5.33-1.27,24.64,24.64,0,0,1-4.84-2.5,35.93,35.93,0,0,1-7.89-7.32c-4.55-5.54-7.91-11.84-11.11-18.11l-1-2.07-.75-1.49-.39-.76-.19-.38-.1-.2c0-.06.11,0,.16-.06l1.66-.35a6.21,6.21,0,0,0,.85-.21l.56-.19a9.33,9.33,0,0,0,1.88-1,11.47,11.47,0,0,0,3-3.08c.2-.31.4-.61.58-.93l.27-.49.07-.12.09-.21.18-.39a26.72,26.72,0,0,0,1.24-3.55l.11.05a2.11,2.11,0,0,1,.14.22l.3.47.59.94c.4.62.81,1.24,1.19,1.81l.93,1.35.85,1.18q1.71,2.35,3.57,4.58a52.85,52.85,0,0,0,3.94,4.24,25.18,25.18,0,0,0,4.47,3.49,7.23,7.23,0,0,0,5,1.23,13.78,13.78,0,0,0,2.51-1.07c.85-.44,1.69-.91,2.51-1.41a59.9,59.9,0,0,0,9.14-7.08,135.59,135.59,0,0,0,15.35-17.45c2.35-3.09,4.61-6.24,6.85-9.42l3.38-4.75c.57-.79,1.15-1.58,1.78-2.36l.51-.61a6.92,6.92,0,0,1,.74-.7,1.61,1.61,0,0,1,.87-.39,4.42,4.42,0,0,1,.85.41c4.43,3.42,9.78,2.16,14.15-.22a31.27,31.27,0,0,0,3.71-2.39c.59-.45,1.15-.88,1.73-1.38.77-.64,1.59-1.45,2.35-2.21.3.7.6,1.45.91,2.14l.47,1,.35.67a24.89,24.89,0,0,0,1.59,2.59,13.53,13.53,0,0,0,1.93,2.24,5.29,5.29,0,0,0,2.34,1.35,3.12,3.12,0,0,0,2.39-.48,2.77,2.77,0,0,0,1.08-2.09,10.2,10.2,0,0,0-.11-2.85q-.12-.74-.27-1.47l-.5-2.17-.06-.64a4,4,0,0,1,.05-.5c.05-.13,0-.3.09-.35a1.78,1.78,0,0,1,.47-.08,6.12,6.12,0,0,1,2.52.61l.68.29.51.22.93.44q.92.47,1.8,1a54.39,54.39,0,0,1,6.75,4.52A82.29,82.29,0,0,1,369,170.37a131.79,131.79,0,0,1,17.45,26.82A197.24,197.24,0,0,1,395,216.92a227.8,227.8,0,0,1,8.2,27.29,96.67,96.67,0,0,1,2.23,12.48c.13,1.31.33,3,.34,3.8,0,1.31-.6-.69-1.8-5.39s-3-12.09-5.83-21.44c-4.78-15.74-10.9-31.43-19.61-45.89a110.41,110.41,0,0,0-15.31-20.15,70,70,0,0,0-9.61-8.26,45.62,45.62,0,0,0-5.37-3.28c-.46-.24-.93-.47-1.4-.68l-.29-.13h-.09s0,0,0,.05l0,.1c.11.53.21,1.06.29,1.61a12.64,12.64,0,0,1,.12,3.51,5.92,5.92,0,0,1-.19,1l-.15.5-.23.52a4.61,4.61,0,0,1-1.57,1.78,5.93,5.93,0,0,1-2,.82,5,5,0,0,1-2.22,0,7.6,7.6,0,0,1-3.41-1.9,15.92,15.92,0,0,1-2.28-2.63,27,27,0,0,1-1.74-2.84l-.47-.9h0l-.68.57c-.82.66-1.68,1.3-2.56,1.9a28.61,28.61,0,0,1-5.75,3,16.38,16.38,0,0,1-6.72,1.13,11.68,11.68,0,0,1-3.48-.72,12.55,12.55,0,0,1-1.64-.72l-1.06-.64h0l-.25.3-.54.68c-.71.92-1.42,1.91-2.12,2.89l-4.25,6c-2.86,4-5.81,8-8.94,11.89a126.07,126.07,0,0,1-10.89,12A57.26,57.26,0,0,1,270.57,205c-.64.32-1.22.61-1.94.9a6.53,6.53,0,0,1-2.59.48,10.17,10.17,0,0,1-4.57-1.3,28.66,28.66,0,0,1-6.66-5.29,67.27,67.27,0,0,1-5.36-6.25c-.83-1.09-1.63-2.19-2.41-3.31l-.44-.63,0,0v0l-.35.64c-.2.36-.44.71-.66,1.07A14.13,14.13,0,0,1,242,195c-.38.23-.73.49-1.13.69s-.8.4-1.21.57l-.63.21c-.09,0,0,0,0,0h0s0,0,0,0l1,2A110.61,110.61,0,0,0,249.06,214c3.5,4.76,7.78,9.07,13.07,11.22a19.62,19.62,0,0,0,6.18,1.39l1.06,0c.35,0,.62,0,.94-.05a15.62,15.62,0,0,0,3.94-1.22,37,37,0,0,0,3.91-2Z"/><path class="cls-1" d="M304.63,393.48l-.83-16.07c-.28-5.36-.4-10.72-.61-16.08l-.24-5.87-.13-5.87-.15-10.34.08-10.35c0-3.45.12-6.9.23-10.35s.2-6.9.43-10.35c.31-6.11.71-12.27,1.33-18.33.23-1.94.37-3.89.66-5.84s.54-3.89.9-5.83a57,57,0,0,1,3.17-11.44c1-2.3,1.5-1.64,1.36.48a83.5,83.5,0,0,1-1.38,10.14,214.06,214.06,0,0,0-2.91,23.44c-.29,3.95-.5,7.92-.75,11.89s-.32,8-.48,12c-.11,4.78-.12,9.67-.11,14.58s.22,9.86.34,14.75c.34,10.77.7,21.55,1.34,32.32l.54,9.94.7,9.93c.37,5,.68,10,1.09,15.05s.89,10,1.33,15c.38,3.86.74,7.69,1.19,11.49l1.38,11.4c.2,1.68.4,3.32.6,5,.69,6.27.71,8.29.14,9.72a4.67,4.67,0,0,1-.39.94c-.48.66-1.2-1.85-1.83-6.44-.94-6.8-1.8-13.79-2.6-20.9s-1.4-14.34-2.06-21.57c-.51-5.38-.89-10.77-1.28-16.17s-.81-10.8-1.13-16.21Z"/><path class="cls-1" d="M336.87,477.2a5.07,5.07,0,0,1-1.25.35c-.36,0-1.8.44-3.22.77s-2.81.58-2.95.61a11,11,0,0,1-1.14.11,24.4,24.4,0,0,1-4.1,0l-2.37-.45c-.43-.08-.85-.18-1.27-.24a24.26,24.26,0,0,1-3.13-.9c-1.38-.48-2.73-1.06-3.17-1.24s-.88-.83-1.22-1a2.26,2.26,0,0,1,.58-1.08.48.48,0,0,1,.45.09,8.64,8.64,0,0,0,2.63.86c1.16.25,2.27.36,2.44.39a3.18,3.18,0,0,0,.58.17c1,0,2,0,3,0l1.86.05a7.48,7.48,0,0,1,2,.16s.06.06.09.06c.77,0,1.54,0,2.32.06.18,0,1.4.15,2.62.21s2.42.06,2.52,0,.4,0,.61,0a13.33,13.33,0,0,0,1.77-.29C336.89,475.71,337.19,477.09,336.87,477.2Z"/><path class="cls-1" d="M333,424.5l.54-21.39c0-2.6.07-5.2.11-7.79.21-9.17.5-18.27-.28-27.37-.3-4-.75-8.11-1.18-12.12a107.06,107.06,0,0,1-.94-15.62c.07-1.63.76-1.4,1.45,0a18.79,18.79,0,0,1,1.6,6.76c.68,10.45,2.18,21,2.08,31.81-.06,6.42,0,13.07-.15,19.6l-.51,21.54c-.09,4.41-.18,8.83-.21,13.24,0,6.68-.06,13.4.22,20,.23,5.15.7,10.18,1.41,15.18.18,1.1.34,2.17.55,3.26s.33,1.86.46,2.55.22,1.27.29,1.73a4.48,4.48,0,0,1-.11,2,4.72,4.72,0,0,1-.26.73c-.32.61-1.53-.9-2.35-4a82.7,82.7,0,0,1-2.14-14c-.4-4.78-.58-9.62-.67-14.47-.15-7.2-.07-14.42,0-21.62Z"/><path class="cls-1" d="M367.79,403.52c.63-9.74,1-19.49,1.33-29.25q.06-5.34.14-10.67c.16-12.54.21-25.1-.41-37.63-.27-5.55-.67-11.14-1.27-16.62-.77-7-1.78-14.1-3-21-.47-2,.21-2.08,1.39-.39a24.54,24.54,0,0,1,3,9.12q1.57,10.88,2.18,21.81c.1,1.82.23,3.65.31,5.47l.18,5.48c.05,1.83.13,3.66.15,5.49s0,3.66,0,5.5q0,3.28.06,6.63c0,2.23,0,4.48,0,6.73s0,4.5,0,6.76-.06,4.5-.1,6.74l-.14,7.4c-.05,2.46-.17,4.92-.26,7.39-.21,4.92-.32,9.85-.64,14.77l-.52,9.09c-.17,3-.32,6.05-.56,9.08l-1,13.75c-.3,4.58-.77,9.15-1.11,13.69-.28,3.53-.51,7-.74,10.52s-.55,7-.83,10.46c-.12,1.54-.25,3-.37,4.59-.53,5.75-.89,7.55-1.72,8.71a5.17,5.17,0,0,1-.57.76c-.6.49-.82-1.89-.56-6.1.37-6.25.91-12.65,1.43-19.14s1-13.08,1.55-19.67q.51-7.35,1-14.73l.51-7.37.39-7.38Z"/><path class="cls-1" d="M354.05,481.91c-1.34.09-2.66.15-4,.19-.49,0-1,.11-1.45.1-1.71,0-3.42-.07-5.12-.17-.76-.06-1.51,0-2.27-.08a7.54,7.54,0,0,1-2.93-.37c-.3-.12-.14-.6.19-1.05a1.74,1.74,0,0,1,1.33-.83c1.81.15,3.7,0,5.63.29a23.12,23.12,0,0,0,3.52-.13c1.3-.08,2.6-.15,3.9-.27.79-.09,1.6-.14,2.39-.25a28.33,28.33,0,0,0,3.57-.62,9.53,9.53,0,0,0,1.3-.46c.43-.16.86-.32,1.27-.5.18-.07.35-.16.54-.22.7-.16,1-.06,1.34.3.08.09.17.16.23.24.2.25.05.68-.41,1.15A4.18,4.18,0,0,1,362,480a10.3,10.3,0,0,1-1.25.61,18.75,18.75,0,0,1-2.64.72c-1.33.27-2.67.44-4,.6Z"/><path class="cls-1" d="M312.31,477.28c-5.21,0-26.36,5.8-20.9,10,6.95,5.29,33.12-2.9,38.43-5.9a.18.18,0,0,0-.08-.34C325.67,480.62,315.77,479,312.31,477.28Z"/><path class="cls-1" d="M316.59,487.12a90.21,90.21,0,0,1-12.76,2.39,42.15,42.15,0,0,1-4.78.29,22.09,22.09,0,0,1-4.26-.4,8.53,8.53,0,0,1-4.08-1.85,2.1,2.1,0,0,1-.44-.49l-.19-.29a3.62,3.62,0,0,1-.13-.35A2.12,2.12,0,0,1,290,485a4.68,4.68,0,0,1,1.58-1.8,18.51,18.51,0,0,1,3.74-2,66.75,66.75,0,0,1,7-2.49,39,39,0,0,1,9.28-1.88c1,0,.85.43.08.87a14.11,14.11,0,0,1-3.88,1.4,76.21,76.21,0,0,0-9.05,2.5,38,38,0,0,0-4.3,1.76,12.43,12.43,0,0,0-1.92,1.13,3,3,0,0,0-1.16,1.29.8.8,0,0,0,.22.65,4.8,4.8,0,0,0,1,.72,9.08,9.08,0,0,0,2.56.86,25.81,25.81,0,0,0,5.71.28,73,73,0,0,0,12.66-1.93c2.57-.6,5.13-1.29,7.65-2.07,1-.31,1.91-.61,2.86-.94l1.41-.51,1.34-.5a14.59,14.59,0,0,0,1.57-.71c.06,0,.14-.07.12-.15s-.11-.09-.18-.09l-.42,0-.86-.1-1.95-.26-2.29-.33c-1.53-.23-3-.48-4.56-.79-.67-.14-1.33-.26-2-.43-2.48-.62-3.25-1.09-3.58-1.7a1.6,1.6,0,0,1-.21-.41c-.05-.4.91-.18,2.66.24,2.62.62,5.38,1.1,8.17,1.55l2.11.32c.8.11,1.07.17,2.85.38l1.09.12.28,0a.67.67,0,0,1,.17.06l.33.13.65.27a1,1,0,0,1,.18.26.72.72,0,0,1,.15.36.91.91,0,0,1,0,.44c0,.19-.27.53-.47.8l-1.28.67-1.45.64-.37.16-.28.11-.38.15-.77.29c-1,.39-2.07.74-3.1,1.09q-3.12,1-6.29,1.85Z"/><path class="cls-1" d="M345.72,484.29c-6.58,11,40.12,14.85,43.16,9.76S358,483.08,345.72,484.29Z"/><path class="cls-1" d="M382.74,488.26a32.31,32.31,0,0,1,3.5,1.4,13.74,13.74,0,0,1,1.71.94,5.57,5.57,0,0,1,1.61,1.49,2.35,2.35,0,0,1,.4,1.41,2.26,2.26,0,0,1-.59,1.38,4.89,4.89,0,0,1-1.94,1.12,18.35,18.35,0,0,1-3.76.77,49.22,49.22,0,0,1-5.41.32,93.38,93.38,0,0,1-18.8-2,55.81,55.81,0,0,1-8.11-2.28,17.31,17.31,0,0,1-4.85-2.61,5.9,5.9,0,0,1-1.79-2.35,3.93,3.93,0,0,1-.25-1.56,4.25,4.25,0,0,1,.38-1.48c.6-1.11.83-.64.81.31a4.31,4.31,0,0,0,.31,1.65,5.37,5.37,0,0,0,1.27,1.72,13.72,13.72,0,0,0,4.26,2.55,41.33,41.33,0,0,0,5,1.68A89.55,89.55,0,0,0,367,494.81a75.38,75.38,0,0,0,13.21.66,23.91,23.91,0,0,0,7-1.06,2.12,2.12,0,0,0,1.08-.77.52.52,0,0,0,0-.42,1.43,1.43,0,0,0-.33-.53,9.47,9.47,0,0,0-2.89-1.8,52.24,52.24,0,0,0-8.52-2.73,123.25,123.25,0,0,0-13.42-2.5c-3.49-.44-6.94-.67-10.4-.77l-2.27,0c-2.84,0-3.72,0-4.37-.4a2.12,2.12,0,0,1-.43-.25c-.32-.3.85-.73,3-.85a93.33,93.33,0,0,1,19.5,1.45,99.74,99.74,0,0,1,14.51,3.4Z"/><path class="cls-1" d="M317.13,246.1l1.13-6c.13-.73.21-1.47.35-2.2.49-2.58,1-5.15,1.48-7.73.21-1.14.37-2.3.51-3.44a27,27,0,0,1,.68-4.4c.26-.9,1.87.52,1.64,2.22-.42,3-.95,6-1.67,9-.43,1.78-.64,3.67-1,5.51l-1.1,6.07-.67,3.73c-.32,1.89-.67,3.78-.92,5.66-.2,1.47-.28,2.91-.39,4.36,0,.32,0,.64,0,1-.11,1.19-.25,1.5-.76,1.74a3.73,3.73,0,0,1-.35.16c-.19.06-.36,0-.49-.27a2.27,2.27,0,0,1-.22-1.07,50.38,50.38,0,0,1,.73-8.15c.31-2,.67-4.07,1-6.1Z"/><path class="cls-4" d="M325.6,204.23a7.58,7.58,0,0,0,.32-2c0-.66.05-1.31.05-1.94s0-1.27-.07-1.9l0-.93a2.79,2.79,0,0,0-.08-.91,3.51,3.51,0,0,0-1.33-.07,2.57,2.57,0,0,0-.12,1v2.84c0,.62,0,1.24,0,1.84s-.11,1.19-.17,1.73A5.55,5.55,0,0,0,325.6,204.23Z"/><path class="cls-1" d="M357.25,201.79l-8.47-.67c-1-.08-2.07-.11-3.11-.21a82.72,82.72,0,0,1-10.91-1.7c-1.59-.39-3.2-.78-4.76-1.32a16.74,16.74,0,0,1-5.66-2.87c-.53-.42-.15-.75.56-.84a4.29,4.29,0,0,1,1.26.07,4.55,4.55,0,0,1,1.47.49,46.14,46.14,0,0,0,11.68,3.58,66.14,66.14,0,0,0,7.67.85l8.54.63c1.76.14,3.52.29,5.27.47,2.67.26,5.34.64,8,1.13a51.81,51.81,0,0,1,6,1.39c.44.15.88.25,1.31.44,1.6.63,2,1.06,2.11,1.64a2.08,2.08,0,0,1,.05.41c-.05.41-.79.38-1.89,0a59.4,59.4,0,0,0-10.69-2.51c-2.77-.41-5.59-.69-8.43-.9Z"/><path class="cls-1" d="M337.51,268.93l8.78.6c1.07.08,2.14.12,3.22.23A53.2,53.2,0,0,1,360.75,272a24.62,24.62,0,0,1,4.72,2.12A10.71,10.71,0,0,1,370,279c.28.65-.21.74-.89.48a5.27,5.27,0,0,1-1.1-.63,6.54,6.54,0,0,1-1.14-1c-2.63-2.89-6.73-4.29-10.87-5.3a51.64,51.64,0,0,0-7.86-1c-2.92-.25-5.87-.41-8.82-.6l-5.45-.37c-2.75-.22-5.51-.53-8.24-.95a52.4,52.4,0,0,1-6.28-1.24,14.06,14.06,0,0,1-1.36-.41c-1.68-.59-2.12-1-2.24-1.62a3.52,3.52,0,0,1-.07-.41c0-.41.81-.39,1.95,0a61.34,61.34,0,0,0,11.12,2.24c2.88.34,5.81.57,8.75.74Z"/><path class="cls-1" d="M315.62,90.18c-.6,1.81-3,5.14-1,6.82,1.19,1,3.14.75,4.42.08,1.66-.87,2.66-2.55,3.65-4.07s-1.59-2-2.31-.86A15.07,15.07,0,0,1,318.26,95c-.47.43-1.43.93-1.59,0-.24-1.46,1.15-3.17,1.59-4.5.51-1.53-2.24-1.56-2.64-.35Z"/><path class="cls-1" d="M334.22,95.68a21.56,21.56,0,0,0-2,3c-.17.26-.58.62-.67.89l-.22.2c.7,0,.86,0,.49-.09-.11-.12-.57-.18-.75-.32a1.87,1.87,0,0,1-.48-.6c-.91-1.72-.07-4.32.75-5.92.23-.44-1-.24-1.14-.22-.46.08-1.46.27-1.71.75-1,1.86-2.29,6.25.45,7.26a5.63,5.63,0,0,0,4.77-.94c1.48-1.11,1.91-3,3.12-4.33.42-.45-.38-.41-.66-.4a3.34,3.34,0,0,0-1.95.68Z"/><path class="cls-1" d="M321.08,99.54a27.48,27.48,0,0,0-6.27,4.92c-1,1.17-2.87,3.58-1.77,5.22,1.69,2.54,6.55.3,8.87.36.65,0,2-.24,2.3-.93s-.26-1-.93-1a18.5,18.5,0,0,0-3.47.43c-.77.13-2.56.68-3.27.1-1.25-1,1-3.59,1.64-4.31a24.74,24.74,0,0,1,5-3.83c.56-.35.92-.86.32-1.32s-1.94,0-2.46.34Z"/><path class="cls-1" d="M330.91,86.69c4.5-1.32,8-2.13,11.38,1.62,1.21,1.35,4.77-.22,3.44-1.71-1.67-1.85-3.47-3.43-6-3.92-3.18-.61-6.54.36-9.57,1.24-2.32.68-1.6,3.45.74,2.77Z"/><path class="cls-1" d="M317.46,83.11a2.64,2.64,0,0,1,.49-.65c-.25.19-.17,0,.28.07a8.67,8.67,0,0,1,1.8.66,8.17,8.17,0,0,1,2.47,1.94c.67.78,4.24-.52,3.54-1.35-2.79-3.25-9.28-4.57-12-.5-.77,1.15,2.89.65,3.44-.17Z"/><path class="cls-1" d="M318,122.28c1.22-.59,1.47-.67,1.59-.61a3.59,3.59,0,0,0,1,.36,2.48,2.48,0,0,0,.9.13,4.41,4.41,0,0,0,1.81-.82,4.7,4.7,0,0,0,.52-.39,3.89,3.89,0,0,0,.41-.5s0-.09.08-.07a2.91,2.91,0,0,1,.87.89,1.11,1.11,0,0,1,.15.25c-.12.13.29.84.11,1a6.6,6.6,0,0,0-.8.92,1.14,1.14,0,0,1-.42.26c-.2.08-.45.08-.65.14s-.52.22-1.07.38a4.59,4.59,0,0,1-2,.16,3.81,3.81,0,0,1-2.55-1.53A1.25,1.25,0,0,1,318,122.28Z"/><path class="cls-1" d="M145.94,330.28A95.25,95.25,0,0,1,136.79,314l-1.38-3.12c-.43-1.09-.85-2.19-1.16-3.28-1.16-3.85-2.05-7.7-2.91-11.57s-1.63-7.73-2.38-11.61c-.68-3.44-1.36-6.9-2-10.31-.41-2.19-.88-4.43-1.11-6.69a20.42,20.42,0,0,1,0-7c.2-.76.53-1,.8-.91s.51.57.77,1.17a21.26,21.26,0,0,1,1.56,5.57l.19,1.72c.06.53.12,1,.21,1.6.15,1.09.35,2.2.53,3.31.39,2.23.79,4.46,1.18,6.69q1.25,6.69,2.48,13.43c.5,2.69,1.14,5.4,1.85,8.11s1.51,5.41,2.43,7.93a94.82,94.82,0,0,0,8.27,16.25,80.89,80.89,0,0,0,6.68,9.05,81.74,81.74,0,0,0,5.89,6.17,71.6,71.6,0,0,0,6.56,5.41c3.56,2.53,7.49,4.45,11.19,7,.82.56,1.63,1.11,2.41,1.76a13.11,13.11,0,0,1,2.77,2.9,2.66,2.66,0,0,1,.52,1.86,3.71,3.71,0,0,1-.12.73c-.33.63-1.47-.3-3.35-1.93a70.76,70.76,0,0,0-9.71-6.51c-1.74-1.06-3.53-2.16-5.28-3.41-.87-.62-1.7-1.27-2.55-1.91l-2.47-2a80.15,80.15,0,0,1-12.73-14.06Z"/><path class="cls-1" d="M135.38,416.85c1.39-2.83,2.86-5.62,4.5-8.35s3.44-5.34,5.32-7.87c1.37-1.85,2.72-3.71,4.15-5.48,2.54-3.13,5.14-6.18,7.69-9.26s5-6.21,7.46-9.36a59.94,59.94,0,0,0,5.67-8.81,30,30,0,0,0,3.49-12.42c.05-1.31.81-1.28,1.59-.08a8.33,8.33,0,0,1,.68,6.47,41.74,41.74,0,0,1-6.42,13c-2.73,3.9-5.73,7.44-8.73,11C157.14,390,153.51,394.5,150,399a97.12,97.12,0,0,0-10.21,15.52c-1.79,3.38-3.41,6.86-4.89,10.4a156.31,156.31,0,0,0-5.8,16.43,67.69,67.69,0,0,0-2.41,13c-.06.95-.11,1.89-.1,2.83,0,1.77,0,2.9,0,3.71a3.35,3.35,0,0,1-.49,1.76,4.59,4.59,0,0,1-.42.63c-.26.25-.58,0-.94-.61a8.35,8.35,0,0,1-.87-3.14,30.44,30.44,0,0,1,0-6.33,51.88,51.88,0,0,1,.94-6.29,111.45,111.45,0,0,1,3.41-12.3,145.14,145.14,0,0,1,7.09-17.72Z"/><path class="cls-1" d="M203.76,269.23c-6.33.78-12.71,1.41-19.11,1.69-2.34.1-4.68.21-7,.2A138.89,138.89,0,0,1,153,268.74a96.62,96.62,0,0,1-10.7-2.53c-4.49-1.43-8.76-3.23-13-4.73-1.32-.45-1-1.08.37-1.4a11.71,11.71,0,0,1,6.31.75c2.23.85,4.4,1.73,6.57,2.48,1.08.38,2.16.74,3.25,1s2.23.6,3.36.85c4.52,1.08,9.14,1.88,13.8,2.52a117.61,117.61,0,0,0,17.26.76c6.34-.1,12.7-.63,19-1.35q5.86-.67,11.71-1.52l8.87-1.25c2.95-.39,5.86-.91,8.75-1.52,2.25-.47,4.47-1,6.69-1.52s4.48-1,6.65-1.47c1-.23,1.88-.49,2.81-.76,3.47-1.05,4.22-1.59,5.28-1.47a5.68,5.68,0,0,1,.72,0c.33.07.31.46-.17,1.11a7.41,7.41,0,0,1-2.79,2c-4,1.77-8.25,2.31-12.28,3.28s-8.33,1.88-12.66,2.58c-6.37.95-12.69,1.87-19.09,2.72Z"/><path class="cls-1" d="M202.73,483l-5.15.25-2.57.13-1.29.06h-1.29l-10.3-.1-7.52-.48c-8.79-.89-17.6-2.31-26-5.28-1.86-.64-3.68-1.42-5.53-2.1-.93-.32-1.79-.81-2.69-1.21L137.74,473c-4.41-2.38-8.84-5.14-12-9.22-1-1.31-.25-1.52,1.08-1a17.74,17.74,0,0,1,2.46,1.27c.46.3,1,.58,1.51.93s1,.77,1.57,1.16c1,.7,2,1.44,3,2.11l3.15,1.89c1.06.6,2.19,1.1,3.28,1.66l1.65.82,1.73.69,3.44,1.4c1.16.44,2.37.76,3.55,1.16l3.57,1.15,3.67.89c1.46.34,2.93.75,4.45,1l4.59.64,2.3.31c.77.1,1.54.21,2.32.24l4.65.3c1.7.11,3.4.28,5.1.33l5.12,0,5.12,0c1.71,0,3.42-.15,5.12-.23,4.21-.24,8.42-.33,12.6-.9l9.52-1.06c3.16-.47,6.3-1,9.42-1.57,2.43-.44,4.83-.88,7.2-1.39l7.08-1.76,3.11-.77c3.91-.9,5.19-1,6.2-.49a4.14,4.14,0,0,1,.67.35c.51.45-1,1.25-3.84,2-4.22,1.17-8.59,2.27-13,3.32-4.48.86-9.06,1.65-13.63,2.43-.86.14-1.7.31-2.56.43l-2.58.3-5.16.58-5.16.59-1.29.14-1.3.07-2.6.15Z"/><path class="cls-1" d="M240.89,322.43a119.12,119.12,0,0,0,6.47-14c.67-1.75,1.22-3.54,1.79-5.32a75.35,75.35,0,0,0,3.66-19.4c.08-1.45.06-2.94.08-4.45s0-3,0-4.44a57,57,0,0,0-1-11c-.26-1.06.41-1.23,1.38-.46a7.47,7.47,0,0,1,2.24,4.92,94.77,94.77,0,0,1,0,11.79,66.47,66.47,0,0,1-1.13,11.79A104.42,104.42,0,0,1,251,306a119.31,119.31,0,0,1-6.18,14.64q-2.2,4.36-4.72,8.55c-1.27,2.11-2.61,4.19-4,6.22a71.35,71.35,0,0,1-4.44,5.92c-2.44,2.93-4.91,5.72-7.32,8.53l-1.56,1.87c-2,2.31-2.64,3-3.61,3.05a3.07,3.07,0,0,1-.66.05c-.61-.08-.23-1.39,1.11-3.26,4-5.52,9.21-10.33,13.09-15.89a129.45,129.45,0,0,0,8.12-13.23Z"/><path class="cls-1" d="M253.22,420.8a143.61,143.61,0,0,0-7.63-17.5c-1.07-2.07-2.26-4.07-3.4-6.09-4-7.15-8.71-13.95-13.27-20.87-2-3.07-4.26-6-6.25-9.09a41.29,41.29,0,0,1-3.49-6.3,14.59,14.59,0,0,1-1.05-3.62,7.25,7.25,0,0,1,0-2,4.66,4.66,0,0,1,.83-2.05,1.68,1.68,0,0,1,.79-.64c.21-.08.34,0,.41.07a.93.93,0,0,1,.08.54c0,.12,0,.24,0,.37s0,.29,0,.45a6.37,6.37,0,0,0,.36,2.13c.28.82.67,1.8,1.09,2.95a37,37,0,0,0,3.08,6c1.21,2,2.53,3.93,3.88,5.88l1,1.49,1,1.53,2,3,3.89,6.08c3.08,4.87,6.48,9.88,9.36,15.08a152.67,152.67,0,0,1,8.38,17.68c1.48,3.74,2.8,7.54,4,11.37.89,2.91,1.67,5.86,2.35,8.82s1.31,5.93,1.76,8.93c.7,4.65,1.15,9.24,1.46,13.85.08,1,.15,2,.22,3,.2,3.79.09,5-.58,5.84a3.43,3.43,0,0,1-.45.56c-.53.4-1.08-1.12-1.37-3.9-.83-8.25-1.06-16.82-3-25.14a138.53,138.53,0,0,0-5.35-18.43Z"/><path class="cls-1" d="M203.51,252.61q-9.47-.26-18.95.19c-2.3.09-4.6.33-6.9.46-8.12.55-16.23,1.34-24.28,2.52-3.57.53-7.15,1.19-10.65,2-2.24.5-4.48,1-6.7,1.63s-4.45,1.15-6.51,1.82l-.19.06.52-1.11h0l-.36.13a1,1,0,0,0-.39.22c-.06.07,0,0-.07-.07a4.18,4.18,0,0,0-.44-.54,2.63,2.63,0,0,1,.33-.15.34.34,0,0,1,.39.17.79.79,0,0,1,0,.43,1.64,1.64,0,0,1-.05.34.19.19,0,0,1-.12.12.33.33,0,0,1-.33-.07l-.23-.23-.06-.07.28-.39a10.75,10.75,0,0,1,5.7-3.31,180.62,180.62,0,0,1,28.19-4.67c5.69-.51,11.6-1.22,17.43-1.59q9.62-.6,19.27-.54c4,0,7.91.15,11.85.36,6,.31,12,.92,17.87,1.75,4.58.67,9.08,1.31,13.56,2.33,1,.21,2,.46,2.94.71a19.12,19.12,0,0,1,3.81,1.32,3.09,3.09,0,0,1,1.46,1.23,3,3,0,0,1,.34.62c.15.63-1.44.58-4.05-.11a187.73,187.73,0,0,0-24.62-4.27c-6.3-.67-12.66-1.06-19-1.18Z"/><path class="cls-1" d="M231.83,306.24c2.53-.75,1.48,25.34-17,37.68a34.23,34.23,0,0,0-11.59,12.84c-1.1,2.15-2.78,3.67-5.32,3.59-3,.15-5.21-2.1-6.68-5a21,21,0,0,0-9.64-9.6c-21.31-9.95-28.38-33.21-28.91-36.22C152.71,309.44,179.88,321.77,231.83,306.24Z"/><path class="cls-1" d="M242.39,458.38s-51.78,21.84-95.84-3.71c-.45-.26,22.39-51.06,44.28-55.26C224.36,393,240,456.27,242.39,458.38Z"/><path class="cls-1" d="M191,171.05a7.86,7.86,0,0,0,2.18,8.89,8.52,8.52,0,0,0,8.84,1.74,7.91,7.91,0,0,0,3.38-2.58,11.57,11.57,0,0,0,1.94-5c.11-.55.72-.53,1.3.05a3.12,3.12,0,0,1,.64,3.11,10.67,10.67,0,0,1-4.31,5.63,10.31,10.31,0,0,1-6.81,1.62,11.48,11.48,0,0,1-7.45-3.66,10.61,10.61,0,0,1-2.2-4.05,10.82,10.82,0,0,1-.25-4.56,10.51,10.51,0,0,1,9.56-8.8,11,11,0,0,1,6.29,1.18,9.34,9.34,0,0,1,1.23.77,4.22,4.22,0,0,1,1.29,1.42,1.12,1.12,0,0,1,0,1,2,2,0,0,1-.22.44c-.33.41-1,.1-1.82-.55a9.89,9.89,0,0,0-4.23-1.87,8.7,8.7,0,0,0-4.57.43,8.1,8.1,0,0,0-4.74,4.81Z"/><path class="cls-1" d="M202.63,170.21c-1.72-2.2-9.67.1-8.06,2.61.42.66,1.4.85,2.09,1.08a6.54,6.54,0,0,1,2.79,1.38,1.27,1.27,0,0,1,.3,1.21c0,.27-.37.32,0,.21a1.74,1.74,0,0,1-.51,0,6.41,6.41,0,0,1-2.94-1c-.75-.49-3.44.63-2.32,1.36a8.15,8.15,0,0,0,6.13,1c1.81-.48,3.72-2.39,1.88-4a7.79,7.79,0,0,0-2.75-1.4c-.39-.13-1.93-.4-1.93-1,0-.38.66-.62.94-.71a1.43,1.43,0,0,1,1.71.38c.58.74,3.37-.25,2.69-1.11Z"/><path class="cls-1" d="M196.56,169.45c0,3.4-.54,7-.08,10.38.05.34,1.66,0,1.59-.43-.46-3.37.08-7,.08-10.37,0-.29-1.59-.06-1.59.42Z"/><path class="cls-1" d="M199.12,168.87c0,1.93.15,3.87,0,5.8A30,30,0,0,0,199,180c0,.3,1.65,0,1.6-.43a30,30,0,0,1,.15-5.36c.1-1.93,0-3.87,0-5.8,0-.25-1.6,0-1.6.43Z"/><path class="cls-1" d="M125.83,463.24c-3.06-3.12-.1-11.05-.1-11.05-36.79,22.66,16.89,44.08,95.32,29C221.05,481.23,153.22,491.14,125.83,463.24Z"/></g></svg>