<svg id="Layer_1" data-name="Layer 1" xmlns="http://www.w3.org/2000/svg" width="520" height="520" viewBox="0 0 520 520"><defs><style>.cls-1{opacity:0.3;}.cls-2{fill:#221f1f;}.cls-3{fill:#232020;}</style></defs><title>Notioly v2</title><g id="_6.Tips" data-name="6.Tips"><g class="cls-1"><path class="cls-2" d="M255.75,251.62c-40.74,22.65-88.11,11.13-94.68,3.9C159.65,254,206.7,231.84,255.75,251.62Z"/></g><g class="cls-1"><path class="cls-2" d="M190.21,384.44c-1.3-4-2.7-8.05-4.18-12-.52-1.46-1.2-2.85-1.75-4.3-1.94-5.11-3.95-10.21-6.14-15.22-1-2.23-2.07-4.4-3.18-6.54-1.46-2.72-3.07-5.38-4.27-8.2-.36-.89.47-1.24,1.62-1a5.7,5.7,0,0,1,3.52,2.82,131.25,131.25,0,0,1,7.83,17.55c1.3,3.62,3,7.24,4.45,10.9,1.57,4,3,8.09,4.44,12.18.86,2.51,1.66,5.05,2.48,7.58.58,1.93,1.17,3.86,1.75,5.79s1.09,3.88,1.63,5.81c.39,1.51.83,3,1.28,4.46s.8,3,1.18,4.49a19.86,19.86,0,0,1,.48,2c.41,2.54.29,3.39-.56,4a4.47,4.47,0,0,1-.58.42c-.68.3-1.41-.64-1.86-2.39-1.36-5.19-2.75-10.67-4.39-16.15-1.17-4.07-2.44-8.16-3.83-12.2Z"/></g><g class="cls-1"><path class="cls-2" d="M247.14,402c-3.56,2-7,4.13-10.47,6.38-1.26.82-2.45,1.73-3.71,2.55-4.43,2.91-8.86,5.87-13.6,8.47a43.12,43.12,0,0,1-6.6,3.05,23.91,23.91,0,0,1-2.32.64,11,11,0,0,1-2.5.17,8.68,8.68,0,0,1-2.55-.5c-.39-.19-.78-.39-1.16-.6a5.23,5.23,0,0,1-1-.8c-.81-.73-.09-1.14.95-1.28A7.22,7.22,0,0,1,205,420c.28,0,.61-.07.9-.07s.57,0,.89,0,.6.06.93.06a10.56,10.56,0,0,0,3.74-.41,27.24,27.24,0,0,0,4-1.52c2.65-1.22,5.28-2.72,7.94-4.24,3.18-1.83,6.24-4.16,9.39-6.26,3.45-2.32,7-4.6,10.57-6.73,2.22-1.31,4.48-2.56,6.78-3.73a87.67,87.67,0,0,1,10.8-4.62,68.57,68.57,0,0,1,8.69-2.52c.66-.11,1.31-.24,2-.33a7.58,7.58,0,0,1,2.66,0,1.7,1.7,0,0,1,1.19.73,2.79,2.79,0,0,1,.35.52c.23.6-.75,1.14-2.44,1.38a70.58,70.58,0,0,0-7.61,1.74c-1.28.33-2.54.8-3.82,1.2s-2.54.91-3.78,1.46a93.13,93.13,0,0,0-10.93,5.4Z"/></g><path class="cls-2" d="M318.14,98.79a178.17,178.17,0,0,0-15.8-9.63,72.39,72.39,0,0,0-8.28-3.79,25.31,25.31,0,0,0-8.45-1.84,8.55,8.55,0,0,0-1.5.14,10.51,10.51,0,0,0-1.52.26,32.47,32.47,0,0,0-3.13.88c-1,.34-2.1.69-3.14,1.11s-2.08.78-3.12,1.22c-7.33,3-14.5,6.57-21.63,10.2l-10.67,5.57-5.34,2.8-1.34.69c-.46.23-.92.47-1.25.66a12.2,12.2,0,0,0-2.11,1.7,39.47,39.47,0,0,0-6,8.41,93.75,93.75,0,0,0-4.58,9.47,119.72,119.72,0,0,0-4.5,12.7c-.63,2.15-1.19,4.32-1.64,6.48-.22,1.08-.42,2.15-.54,3.22a9.91,9.91,0,0,0,0,2.93c.13.52.08.52.22.75s.15.29.07.45a.88.88,0,0,1-.73.33,1.78,1.78,0,0,1-1.36-1,10.37,10.37,0,0,1-1.17-5.36,27.52,27.52,0,0,1,1-7.28,112.43,112.43,0,0,1,4.7-13.4,96,96,0,0,1,6.41-12.73,45.2,45.2,0,0,1,4.26-6,21.11,21.11,0,0,1,2.78-2.72,11.59,11.59,0,0,1,1.77-1.18l.44-.23.38-.19.77-.39,12.46-6.36c5-2.52,10.08-5.16,15.26-7.7a148.52,148.52,0,0,1,16-7l2.31-.74c.77-.26,1.59-.41,2.39-.62a16.29,16.29,0,0,1,2.5-.43,11.8,11.8,0,0,1,2.59-.09,31.87,31.87,0,0,1,9.58,2.4,110.52,110.52,0,0,1,16.91,8.88c6.61,4.12,13,8.59,19.25,13.16,9.49,6.94,18.73,14.27,27.88,21.47,7.12,5.59,14.16,11,21.27,16.39l4.7,3.5c5.86,4.41,7.63,5.77,8.48,7.37a10.34,10.34,0,0,1,.6,1.06c.16.48-.54.53-1.86,0A29.09,29.09,0,0,1,388,151.4c-6.67-4.56-13.16-9.59-19.74-14.71l-19.84-15.55c-9.91-7.68-19.92-15.32-30.32-22.27Z"/><path class="cls-2" d="M230.39,131l2.52-5.07a51.45,51.45,0,0,1,2.84-5.23c.2-.3.42-.59.72-1l.58-.56.68-.44a11.49,11.49,0,0,1,1.43-.45c.39-.12.75-.2,1.13-.28a109.92,109.92,0,0,0,13.94-3.72c1-.34,2-.78,3-1.2s1.89-.92,2.79-1.45a55,55,0,0,0,6.39-4.54c.65-.47,1.28.16,1.37,1.29a4.52,4.52,0,0,1-.33,2,5.1,5.1,0,0,1-1.48,1.88,36.53,36.53,0,0,1-7.83,4.28,52.73,52.73,0,0,1-8.33,2.58c-3.34.78-6.84,1.79-10.11,2.58l-.41.11a.93.93,0,0,0-.19.11,1.75,1.75,0,0,0-.23.28,10,10,0,0,0-.65,1c-.42.71-.83,1.49-1.23,2.27-.8,1.57-1.57,3.18-2.36,4.8q-1.54,3.18-3.19,6.33a98.53,98.53,0,0,1-5.53,9.27,49.49,49.49,0,0,1-5.09,6.7,16.83,16.83,0,0,1-1.34,1.33c-1.81,1.55-2.67,1.7-3.55,1.17a4.27,4.27,0,0,1-.59-.38.9.9,0,0,1-.09-1.06,5.41,5.41,0,0,1,1.14-1.44,56.17,56.17,0,0,0,8.66-11.3c1.91-3.15,3.66-6.47,5.31-9.87Z"/><path class="cls-2" d="M217.57,159.34l0,.56a.76.76,0,0,1,0,.21v.11l0,0c0,.19.06.13.1.22s.11,0,.2.08a2.42,2.42,0,0,0,.48.09,7.68,7.68,0,0,0,1.36,0c1-.08,2.17-.27,3.37-.41a25.64,25.64,0,0,0,3.17-.61c4.26-1.09,8.39-3.1,12.66-5,.36-.18.84-.36,1.28-.54s.87-.3,1.31-.46c.86-.28,1.71-.51,2.56-.73,1.69-.44,3.37-.8,5.06-1.13,5.94-1.12,11.89-1.94,17.71-3.08.73-.15,1.45-.29,2.17-.46l.53-.12.7-.12a10.32,10.32,0,0,1,1.33-.07,34.14,34.14,0,0,1,4.66.56c3,.53,5.91,1.15,8.85,1.71A92.94,92.94,0,0,0,300.75,152a34.33,34.33,0,0,0,9.74-1.1,21.06,21.06,0,0,0,4.4-1.76,15.33,15.33,0,0,0,3.6-3c1.33-1.45,1.58-1.16,1.13.78a7.79,7.79,0,0,1-.69,1.63,11.63,11.63,0,0,1-1.38,1.88,13,13,0,0,1-4.88,3.23,32.8,32.8,0,0,1-10.91,1.65,68.41,68.41,0,0,1-10.65-.86c-3.49-.52-6.93-1.21-10.33-1.92-1.71-.35-3.4-.71-5.08-1a26,26,0,0,0-4.78-.58l-.5,0-.78.17c-.53.12-1.05.24-1.58.34l-3.14.63-6.32,1.19c-4.2.8-8.43,1.61-12.51,2.57-1.12.27-2.23.56-3.3.89a21.53,21.53,0,0,0-3.07,1.22c-2.12,1-4.27,2-6.48,2.92a44.42,44.42,0,0,1-6.91,2.29c-.6.15-1.21.26-1.81.37l-1.79.24a28.75,28.75,0,0,1-3.67.38,6.39,6.39,0,0,1-2.68-.46,3.67,3.67,0,0,1-2.09-2.38,6.12,6.12,0,0,1-.14-2.7,7,7,0,0,1,.27-1.24,10.38,10.38,0,0,1,.4-1.15,25.3,25.3,0,0,1,5.27-7.4,32.25,32.25,0,0,1,2.5-2.31,18,18,0,0,1,2.85-2,45.62,45.62,0,0,1,6.25-2.55c4.17-1.43,8.33-2.74,12.37-4.27a77.13,77.13,0,0,0,9.07-4,39.73,39.73,0,0,0,8-5.38,20.34,20.34,0,0,0,5.32-7.52,8.53,8.53,0,0,1,1.32-2.21,7.31,7.31,0,0,1,.65-.75c.36-.26.65.16.85,1.26a8.54,8.54,0,0,1,0,2.13,10.61,10.61,0,0,1-.79,2.88,16.27,16.27,0,0,1-1.14,2.24,20.73,20.73,0,0,1-1.46,2,25.43,25.43,0,0,1-3.48,3.48,45.1,45.1,0,0,1-8.18,5.21,136.54,136.54,0,0,1-17.8,7c-2.22.76-4.43,1.5-6.53,2.32a25.2,25.2,0,0,0-2.89,1.32c-.19.12-.38.22-.58.36l-.63.45c-.42.32-.84.66-1.25,1a31,31,0,0,0-4.47,4.76,17.87,17.87,0,0,0-1.65,2.63,6.74,6.74,0,0,0-.8,2.5Z"/><path class="cls-2" d="M215.93,83.16c-7.28,2.42-14.6,4.92-21.61,7.87-.95.4-1.87.84-2.76,1.29-.43.23-.89.46-1.26.7a3.68,3.68,0,0,0-.73.52,2.58,2.58,0,0,0-.46,1,.75.75,0,0,0,.14.55,2.59,2.59,0,0,0,.82.69,7.75,7.75,0,0,0,2.92.85,36,36,0,0,0,7.08-.15,92.43,92.43,0,0,0,14.41-2.65,62.17,62.17,0,0,0,12.14-4.52l.24-.12.38-.14a2.94,2.94,0,0,1,.74-.2,6.07,6.07,0,0,1,1.32-.08,16.14,16.14,0,0,1,2.29.27c1.44.26,2.81.58,4.17.87a47.67,47.67,0,0,0,8,1.17c1.62,0,1.58.92.09,1.88A8.76,8.76,0,0,1,240.59,94a14.12,14.12,0,0,1-4.63-.18c-1.46-.3-2.88-.65-4.23-1-.67-.15-1.32-.27-1.91-.36a5.34,5.34,0,0,0-1.33,0s0,0,0,0,0,0,0,0a1.51,1.51,0,0,0-.11-.22l-.06-.11v0c.35.7.09.2.17.36h0l0,0-.13.06-.25.12-1,.47c-.67.33-1.37.61-2.06.89-1.37.58-2.77,1.06-4.17,1.53a89.93,89.93,0,0,1-17.22,3.79,65.7,65.7,0,0,1-10.34.58,14,14,0,0,1-2.82-.46,8.26,8.26,0,0,1-2.82-1.34,5.08,5.08,0,0,1-1.26-1.34,4.23,4.23,0,0,1-.62-1.95A4.71,4.71,0,0,1,186,93c.11-.27.24-.53.37-.78l.47-.72c.2-.22.42-.45.63-.64l.57-.42a42.52,42.52,0,0,1,5.48-2.69c1.82-.76,3.64-1.48,5.47-2.18,3.66-1.4,7.33-2.71,11-4q6.82-2.34,13.7-4.48c3.47-1.08,7-2.11,10.52-3,.89-.22,1.79-.44,2.7-.62.45-.1.93-.17,1.39-.25l1.45-.12a22.41,22.41,0,0,1,5.64.49c5.64,1.16,10.81,3.08,16.09,4.33,1.16.28,2.3.5,3.47.72s2,.33,2.72.49a16.69,16.69,0,0,1,1.84.36,3.87,3.87,0,0,1,2,1,4.94,4.94,0,0,1,.65.64c.22.37-.13.69-1,.93a8.6,8.6,0,0,1-1.66.28,22.6,22.6,0,0,1-2.32,0c-5.16-.41-10.23-1.94-15.1-3.44s-9.78-3.05-14.1-2.17c-3.57.75-7.34,1.87-11,3S219.64,82,216,83.24Z"/><path class="cls-2" d="M222.4,63.52c-6.09.7-12.18,1.6-18.18,2.8-2.18.44-4.33,1-6.46,1.58-.94.25-1.86.51-2.76.8-.45.15-.9.3-1.32.47l-.34.12-.21.09a1.73,1.73,0,0,0-.41.25.27.27,0,0,0,0,.42,3.64,3.64,0,0,0,.34.34,3.14,3.14,0,0,0,.64.43c3.06,1.73,7,2,10.76,1.6,1.69-.16,3.31-.61,5.18-.92s3.58-.48,5.35-.63c2.28-.2,4.56-.35,6.87-.33a25.57,25.57,0,0,1,6.95.87c1.48.48.92,1.27-.38,1.84a13.58,13.58,0,0,1-5.86,1.12c-2.2-.06-4.44,0-6.66.11s-4.47.32-6.58.65l-1.65.3c-.6.11-1.2.23-1.81.29a28.24,28.24,0,0,1-3.69.28,20.86,20.86,0,0,1-7.49-1.18,17.8,17.8,0,0,1-2.15-.95l-.52-.3a5.88,5.88,0,0,1-.61-.38A11.61,11.61,0,0,1,190,72.12a4,4,0,0,1-.58-.59c-.16-.21-.4-.4-.47-.62a2.25,2.25,0,0,1-.38-1.38,3.51,3.51,0,0,1,1.79-2.38,11.46,11.46,0,0,1,1.55-.83c.31-.15.44-.19.63-.27l.53-.21c.7-.27,1.4-.51,2.1-.73,1.4-.44,2.8-.82,4.2-1.16,6.15-1.45,12.34-2.46,18.55-3.31q5.73-.78,11.5-1.27c1.46-.12,2.93-.22,4.41-.27a24.57,24.57,0,0,1,4.57.18,29.44,29.44,0,0,1,8.42,3.12c4.05,2.13,7.79,4.48,11.66,6.39.85.44,1.71.77,2.57,1.17,3.2,1.39,4.19,1.71,4.7,2.84a5.08,5.08,0,0,1,.36.75c.09.39-.25.64-1,.72a6.38,6.38,0,0,1-1.37,0,15.15,15.15,0,0,1-1.84-.4,38.71,38.71,0,0,1-5.83-2.37c-1.86-.94-3.67-2-5.45-3-3.54-2.06-7-4.2-10.61-5.27a16.13,16.13,0,0,0-2-.48,5,5,0,0,0-.91-.14l-1,0c-1.43,0-3,.06-4.47.16-3.05.2-6.13.53-9.19.91Z"/><path class="cls-2" d="M247.4,52.56c3.09,1.29,6.16,2.6,9.24,4,1.13.51,2.28.91,3.42,1.48,4.11,2,7.44,5,10.66,7.82a43.1,43.1,0,0,0,4.48,3.38c2,1.29,4.11,2.25,6.08,3.51.61.41.2,1.2-.74,1.73a4,4,0,0,1-1.75.51,4,4,0,0,1-2-.45c-4.68-2.53-8.37-6.13-11.93-9.4a21.78,21.78,0,0,0-3.51-2.59,37.76,37.76,0,0,0-3.92-2c-3-1.37-6.11-2.67-9.2-4-1.9-.78-3.81-1.57-5.73-2.31-2.91-1.13-5.84-2.31-8.77-3.21a6.55,6.55,0,0,0-3.09-.38,2,2,0,0,0-1,.46,1.84,1.84,0,0,0-.5.82A5.05,5.05,0,0,0,229,53a9.46,9.46,0,0,1-.08,1.74,1.73,1.73,0,0,1-.73,1,6.64,6.64,0,0,1-.56.41.83.83,0,0,1-1-.21,3.24,3.24,0,0,1-.84-1.71,6.63,6.63,0,0,1,.41-4.3,5,5,0,0,1,1.91-2,5.77,5.77,0,0,1,2.49-.74,8.64,8.64,0,0,1,2.24.11c.34.06.67.14,1,.22l.87.25c1.12.34,2.2.7,3.28,1.08,3.19,1.12,6.34,2.36,9.48,3.59Z"/><path class="cls-2" d="M358,175.58l-1.28-1.51-1.36-1.45c-.88-1-1.84-1.91-2.79-2.83-.69-.69-1.47-1.27-2.19-1.92a71.07,71.07,0,0,0-8-6.45,21.75,21.75,0,0,0-1.94-1.22c-.65-.38-1.32-.76-2-1.1-.86-.45-1.73-.89-2.6-1.29s-1.73-.84-2.58-1.32c-.52-.3-.28-.77.39-1.07a3.86,3.86,0,0,1,2.92,0,37.68,37.68,0,0,1,10.57,6.37c1.9,1.58,4,3,5.91,4.69,1.05.89,2,1.87,3.05,2.81s1.94,2,2.88,3c1.12,1.29,2.29,2.53,3.33,3.88.81,1,1.62,2,2.35,3.07s1.52,2.08,2.21,3.15c1.17,1.62,2.28,3.23,3.38,4.9a12.76,12.76,0,0,1,.64,1.14c.71,1.48.73,2,.15,2.67a4,4,0,0,1-.39.42c-.5.37-1.24,0-1.91-.95-1-1.41-2-2.82-2.88-4.29-.45-.74-1-1.43-1.48-2.17s-1-1.47-1.52-2.17c-.79-1.05-1.52-2.15-2.38-3.17s-1.64-2.08-2.54-3.06Z"/><path class="cls-2" d="M350.83,146.87a56.2,56.2,0,0,0,4.49-4.63c.52-.59.94-1.26,1.45-1.86a70.11,70.11,0,0,0,5-6.7,25.8,25.8,0,0,0,1.8-3.24c.69-1.41,1.13-3,1.86-4.16.2-.34.81-.33,1.39.25a3.15,3.15,0,0,1,.72,1.2,2.38,2.38,0,0,1,0,1.47,30.2,30.2,0,0,1-2.11,4.73,27.38,27.38,0,0,1-2.92,4.17c-1.3,1.57-2.36,3.38-3.65,5a64.61,64.61,0,0,1-4.52,5.12c-1,1-2,2-3,2.9a56.45,56.45,0,0,1-5,4,32,32,0,0,1-4.16,2.82,6,6,0,0,1-1,.5,2.36,2.36,0,0,1-1.51.24,1.42,1.42,0,0,1-.85-.75,4.4,4.4,0,0,1-.31-.56,1.56,1.56,0,0,1,.86-1.81c2.18-1.45,4.41-2.84,6.65-4.56a53,53,0,0,0,4.79-4.16Z"/><path class="cls-2" d="M356.17,144.64a9.23,9.23,0,0,1,4,1.33l1.1.68,1.1.78c.36.26.72.54,1.07.83l.63.52c1.55,1.32,3,2.69,4.37,4.08s2.72,2.82,4,4.25l1.93,2.11c.56.63,1.25,1.27,1.91,1.91a30.49,30.49,0,0,0,4.11,3.35,8.57,8.57,0,0,0,1.94,1,1.61,1.61,0,0,0,.46.09,1.87,1.87,0,0,0,.07.37,1.15,1.15,0,0,0,.06.17l0,0a.77.77,0,0,0-.18-.18l-.17-.15s0,0,0,0l1.77,1.11h0l0,0h-.05l-.16,0a.49.49,0,0,0-.21,0,1.84,1.84,0,0,0-.33,0,1.68,1.68,0,0,0-.32.09,3.45,3.45,0,0,0-.43.12,3.52,3.52,0,0,0-.42.15c-.1,0-.05,0-.07,0h0l-.06-.12a8.39,8.39,0,0,0-.59-.93c-.5-.69-1.08-1.41-1.67-2.12-1.19-1.42-2.46-2.83-3.74-4.23-3.75-4.1-7.73-8-11.53-12.19-.84-.92-1.67-1.85-2.5-2.82-.41-.48-.82-1-1.23-1.5a13.57,13.57,0,0,1-1.27-1.85,3.58,3.58,0,0,1-.38-1.07,3.08,3.08,0,0,1,0-.69,2.75,2.75,0,0,1,.15-.63c0-.1.09-.2.13-.29a.45.45,0,0,1,.06-.08,4.15,4.15,0,0,1,.3-.43,3.63,3.63,0,0,1,1.86-1.21,4.33,4.33,0,0,1,1.76-.09,7.15,7.15,0,0,1,1.29.32,17,17,0,0,1,3.73,2,67.84,67.84,0,0,1,6,4.7c1.89,1.62,3.73,3.28,5.56,4.93s3.65,3.31,5.49,4.88c.92.79,1.85,1.56,2.78,2.24a14.45,14.45,0,0,0,1.37.93,6.21,6.21,0,0,0,.57.29.72.72,0,0,0,.33.06c.17,0,.26,0,.29,0,.11.36.3.44.17.36a.71.71,0,0,0-.18-.08,1.07,1.07,0,0,1-.19-.06s0,0,0-.08a2,2,0,0,0-.08-.47,4.74,4.74,0,0,0-.57-1.25,2.94,2.94,0,0,0-.39-.52,5.55,5.55,0,0,0-.54-.55,49.55,49.55,0,0,0-5.7-4.28c-3.59-2.43-7.33-4.72-11-7.16-1.84-1.23-3.67-2.46-5.46-3.87a16.91,16.91,0,0,1-2.63-2.5,5.13,5.13,0,0,1-.32-.46,2.48,2.48,0,0,1-.3-.57l-.14-.36-.05-.19,0-.26a2.66,2.66,0,0,1,.08-1,2.53,2.53,0,0,1,1.21-1.57,3.06,3.06,0,0,1,1.57-.34,7.63,7.63,0,0,1,2.55.62,21.33,21.33,0,0,1,2.05.94c1.3.68,2.53,1.42,3.73,2.19,2.4,1.54,4.72,3.15,6.94,4.89a139.34,139.34,0,0,1,12.7,11.08c1.24,1.24,1.64,2,1.44,2.3a6.23,6.23,0,0,1-.87-.26c-.41-.16-1-.41-1.64-.75a98.11,98.11,0,0,1-12.6-7.77l-3.43-2.43c-1.14-.82-2.27-1.62-3.42-2.39s-2.3-1.51-3.46-2.19a22.45,22.45,0,0,0-3.34-1.66,5,5,0,0,0-.63-.19h-.13s0,.05,0-.06v-.58c0-.23-.06-.49-.07-.62-.12-.74-.45-.68,0-.48a1.25,1.25,0,0,0,.46.12l-.93-.15h.18l.19,0c.08,0,.05-.05.21-.06l.38-.1a2.72,2.72,0,0,0,.66-.33c.5-.24.32-.14.37-.14s0,0,0,0l.18.22c.17.17.33.36.56.56.41.4.92.81,1.43,1.22,2.09,1.62,4.45,3.18,6.81,4.72l7.15,4.7a87.22,87.22,0,0,1,7.19,5.18,17.92,17.92,0,0,1,1.85,1.79l.51.67.37.6a11.66,11.66,0,0,1,.62,1.33,7.48,7.48,0,0,1,.42,1.62,4.8,4.8,0,0,1-.27,2.3,3.78,3.78,0,0,1-2.1,2.09,4.75,4.75,0,0,1-2.07.31,4.07,4.07,0,0,1-.46,0,4.12,4.12,0,0,1-.61-.12,6.32,6.32,0,0,1-.86-.32,12.17,12.17,0,0,1-1.22-.67c-.71-.46-1.33-.93-1.93-1.4-1.19-.94-2.29-1.91-3.38-2.88-2.58-2.33-5.12-4.69-7.72-7a76.3,76.3,0,0,0-8-6.37,15.35,15.35,0,0,0-2-1.17,5.24,5.24,0,0,0-.92-.36,1.88,1.88,0,0,0-.34-.06c-.09,0-.12.06-.13-.08-.13-.72-.33-.55.16-.26l0,0h0l-1.47-.85h0c.05,0,.06,0,.14,0s.29,0,.6-.09.45-.18.83-.31l.17-.07s0,0,0,0a2.51,2.51,0,0,0,.22.35c.4.58.95,1.25,1.5,1.89,2.24,2.59,4.7,5.13,7.1,7.68,2.65,2.8,5.32,5.6,7.94,8.48,1.31,1.44,2.61,2.9,3.87,4.46a22,22,0,0,1,1.85,2.61,5.4,5.4,0,0,1,.46,1.05,2.55,2.55,0,0,1,.09,1.18,1.91,1.91,0,0,1-.18.56,1.48,1.48,0,0,1-.12.25l-.05.06-.19.26a3.82,3.82,0,0,1-2.33,1.41,5.23,5.23,0,0,1-2.22-.15,9.64,9.64,0,0,1-1.68-.66,18.09,18.09,0,0,1-2.71-1.7,43.79,43.79,0,0,1-4.55-4c-1.49-1.47-2.68-2.88-4-4.28s-2.64-2.77-4-4.08c-.83-.81-1.68-1.6-2.55-2.35l-.66-.56-.5-.41c-.21-.17-.43-.34-.66-.5a5.49,5.49,0,0,0-1.51-.81,1.3,1.3,0,0,0-.85,0,1,1,0,0,0-.56.62,2.37,2.37,0,0,0,.61,1.55c.34.49.69.91,1.11,1.41,1.48,1.66,3.17,3.39,4.83,5.05,2.53,2.52,5.13,5,7.68,7.61,1.28,1.29,2.54,2.6,3.76,4a23.92,23.92,0,0,1,1.77,2.24,9,9,0,0,1,.81,1.36,4.17,4.17,0,0,1,.32.91,2.44,2.44,0,0,1-.09,1.51,2.23,2.23,0,0,1-1.3,1.2,2.94,2.94,0,0,1-.59.14,2.12,2.12,0,0,1-.59,0,4.2,4.2,0,0,1-1.92-.66,15.27,15.27,0,0,1-2.33-1.81c-1.4-1.25-2.66-2.55-3.92-3.83-2.51-2.58-5-5.15-7.57-7.52a46.06,46.06,0,0,0-5.81-4.59,13,13,0,0,0-6.21-2.36l.41-1c-.12-.2-.11,0,.25,0a1.51,1.51,0,0,0,.3,0c.1,0,.29,0,.42-.05s0,0,0,0a4.44,4.44,0,0,0,.35.66,18,18,0,0,0,1.22,1.61c.9,1.09,1.89,2.16,2.89,3.23l6.15,6.37c1.68,1.76,3.35,3.47,5,5.34a34.94,34.94,0,0,1,5.59,8.23,8.79,8.79,0,0,1,.77,2.76,4.39,4.39,0,0,1-.36,2.07,2.35,2.35,0,0,1-.92,1.19c-.25.11-.36-.06-.44-.34a6.8,6.8,0,0,0-.49-1.28c-.32-.57-.74-1.35-1.39-2.3s-1.5-2.05-2.5-3.27c-3.12-3.66-6.64-7.23-10.21-10.89-1.79-1.82-3.6-3.66-5.39-5.61-.9-1-1.8-2-2.69-3.11a17.72,17.72,0,0,1-1.35-1.95,7,7,0,0,1-.68-1.58,6.72,6.72,0,0,1-.13-.7,3.78,3.78,0,0,1,0-.49,4,4,0,0,1,0-.55,3.66,3.66,0,0,1,1.64-2.47l.71-.48,1,0a13.47,13.47,0,0,1,4.71,1.12,25.16,25.16,0,0,1,3.82,2,52.12,52.12,0,0,1,6.33,5c3.89,3.51,7.36,7.43,10.84,10.77a20.65,20.65,0,0,0,1.89,1.62c.15.11.25.16.38.25a.3.3,0,0,0,.11.06s.12,0,0,.07a4.48,4.48,0,0,0-.36,1.16,1.75,1.75,0,0,0-.1.74l0,.1c.14,1.75-.19-2.37-.16-1.93v.12l0,.31a4.52,4.52,0,0,0,.12.64,1.85,1.85,0,0,0,.11.45l.14.36c.21.41.36.3,0,.25a4.38,4.38,0,0,0-1.94.35c-.35.12-.21.06-.24.06s0,0,0,0l-.07-.13c-.06-.12-.14-.25-.23-.4a21.54,21.54,0,0,0-1.52-2c-2.38-2.72-5.16-5.42-7.9-8.14s-5.54-5.44-8.23-8.46l-.81-.93-.89-1.08a20.49,20.49,0,0,1-1.55-2.18,9.52,9.52,0,0,1-1-2.06,5.45,5.45,0,0,1-.25-1.76,3,3,0,0,1,.13-.78,3.28,3.28,0,0,1,.27-.82,5.79,5.79,0,0,1,1.16-1.62,4.59,4.59,0,0,1,3.33-1.2Z"/><path class="cls-2" d="M243.33,72.57c2.21.28,4.38.73,6.52,1.21.78.17,1.57.3,2.34.5,2.72.74,5.38,1.63,8,2.59,1.17.4,2.35.76,3.51,1.14.74.25,1.5.45,2.23.72s1.46.57,2.17.9c.45.21.31.5-.18.76a4.4,4.4,0,0,1-2.29.43c-.82-.08-1.6-.27-2.39-.42s-1.58-.31-2.34-.54c-1.53-.47-3-1-4.54-1.53a37.92,37.92,0,0,0-5.63-1.5c-2.08-.51-4.17-.92-6.27-1.25-.65-.11-1.3-.16-2-.24s-1.31-.16-2-.17a30.66,30.66,0,0,0-5.91.13,18.18,18.18,0,0,0-2.22.45c-.71.23-1.42.46-2.14.65-.32.08-.59.25-.91.34-1.16.34-1.6.26-2.09-.26a3.39,3.39,0,0,1-.32-.35c-.3-.41,0-1,.9-1.5a18,18,0,0,1,8.69-2.38l1.7-.07c.57,0,1.14,0,1.7.06,1.14,0,2.26.14,3.38.25Z"/><path class="cls-2" d="M205.73,237.21a145.27,145.27,0,0,1,25.28.69,111.82,111.82,0,0,1,24.74,5.56c1,.34,2,.7,3,1.12s2,.79,3,1.22c1.93.92,3.88,1.79,5.73,2.87a52.33,52.33,0,0,1,10.5,7.49,29.62,29.62,0,0,1,2.31,2.31l1.12,1.19c.22.31.45.63.64.95l.43.87a30.1,30.1,0,0,1,1.63,6.49c.66,4.22,1,8.41,1.25,12.59.71,12.2.85,24.36.76,36.51-.21,21.42-1,42.82-2.07,64.19q-.81,16-1.92,32.05c-.39,5.34-.8,10.68-1.28,16-.25,2.67-.51,5.34-.83,8-.16,1.34-.33,2.67-.55,4-.11.67-.24,1.35-.42,2.08a6.59,6.59,0,0,1-.22.69,2.86,2.86,0,0,1-.4.64,6,6,0,0,1-.89.91,41.07,41.07,0,0,1-6.17,4C269.2,450.9,267,452,264.86,453a125.57,125.57,0,0,1-13.41,5.21,134.14,134.14,0,0,1-28,5.94,118.22,118.22,0,0,1-36.57-1.8,107.93,107.93,0,0,1-34-13.54c-3.25-2-4.46-3.14-4.19-3.35s2.07.42,5,1.66a196,196,0,0,0,29.78,10.52c23.47,6,48.7,3.89,71.52-4.39a101.58,101.58,0,0,0,16.46-7.58,31.73,31.73,0,0,0,3.57-2.41,7.26,7.26,0,0,0,.54-.49s0,0,0,0,0,0,0,0a.33.33,0,0,0,.05-.16,20.07,20.07,0,0,0,.4-2.07c.46-3,.79-6,1.1-9.11,1.19-12.29,2-24.68,2.84-37.09.94-14.85,1.61-30,2.06-45.29s.68-30.62.56-45.82c-.09-8.36-.26-16.72-.86-25a94,94,0,0,0-1.53-12.25,18.59,18.59,0,0,0-.8-2.79,5.48,5.48,0,0,0-.26-.59c-.05-.09-.09-.2-.14-.28l-.14-.2a1.74,1.74,0,0,0-.15-.22l-.26-.27L278,261l-1-1.1a9.1,9.1,0,0,0-1.09-1.06l-2.27-2a58.9,58.9,0,0,0-10.33-6.54,83.44,83.44,0,0,0-11.45-4.6A116.84,116.84,0,0,0,227.46,241a139.91,139.91,0,0,0-15.32-.56,142.43,142.43,0,0,0-15.3,1c-2.54.27-5.06.7-7.59,1.1s-5,.93-7.5,1.55-4.95,1.26-7.41,1.94-4.88,1.52-7.26,2.44c-1.82.63-3.58,1.43-5.37,2.16s-3.5,1.63-5.24,2.47l-2.54,1.38-1.27.69-1.23.76L149,257.43l-2.36,1.65-1.19.83-1.13.89L142,262.6a5.55,5.55,0,0,0-1.16,2,24.49,24.49,0,0,0-.76,2.68,84.87,84.87,0,0,0-1.48,11.46c-.55,7.75-.68,15.54-.68,23.32s.17,15.53.44,23.27c.85,24.06,2.59,47.62,4.88,71.3.51,5.21,1.08,10.31,1.67,15.55,1.1,9.72,2,16.1,2.52,20.57s.82,7,.93,9.16a19.32,19.32,0,0,0,.37,2.81c.08.51-.12.52-.65-.14a13.6,13.6,0,0,1-1.6-3.59,109.84,109.84,0,0,1-3.31-16.13c-3-21.16-5-43-6.47-65.17-.73-11.09-1.32-22.27-1.71-33.5s-.6-22.53-.4-33.87c.08-4.22.23-8.43.51-12.67a93.93,93.93,0,0,1,1.55-12.82,26.44,26.44,0,0,1,.92-3.33,8.93,8.93,0,0,1,.35-.88,5.88,5.88,0,0,1,.45-.91,6.11,6.11,0,0,1,.63-1c.15-.18.3-.35.46-.52l.24-.24.16-.14c1.71-1.35,3.36-2.76,5.17-4a81.28,81.28,0,0,1,11.15-6.57,114.69,114.69,0,0,1,24.19-8.54,144.19,144.19,0,0,1,25.29-3.7Z"/><path class="cls-2" d="M224.39,224.91a149.45,149.45,0,0,0-20.95-.08c-1.27.07-2.54.2-3.81.35s-2.54.28-3.8.43a113.28,113.28,0,0,0-26.26,5.73,37.91,37.91,0,0,0-10.3,5.53c-.45.4-.93.78-1.36,1.2s-.83.87-1.2,1.3a9.33,9.33,0,0,0-1.47,3,10.73,10.73,0,0,0-.45,3.3,5.84,5.84,0,0,0,.77,2.94c.31.5.39.84.14,1.12s-.81.39-1.62,0a4.76,4.76,0,0,1-2.38-2.61,8.21,8.21,0,0,1-.39-4.84,13.24,13.24,0,0,1,1.86-4.42,10.26,10.26,0,0,1,.76-1l.78-.82.79-.8.84-.69a33.39,33.39,0,0,1,7.18-4.43,70.83,70.83,0,0,1,15.47-5,184.57,184.57,0,0,1,19.37-3.25,157,157,0,0,1,21.57-.64q6.65.27,13.24,1.17c3.33.43,6.63,1.11,9.91,1.87a84.55,84.55,0,0,1,9.63,3c1.19.53,2.43.95,3.59,1.54l1.77.84c.58.34,1.19.63,1.75,1a15,15,0,0,1,3.16,2.67,10.4,10.4,0,0,1,2.14,3.77,11.35,11.35,0,0,1,.43,1.92,10.09,10.09,0,0,1,0,2,9,9,0,0,1-1.84,4.66,4.68,4.68,0,0,1-1,.88,2.64,2.64,0,0,1-1,.32,3.74,3.74,0,0,1-.85.07c-.4-.07-.45-.54-.23-1.26s.66-1.73,1.08-3a7,7,0,0,0-.22-5.29,10.12,10.12,0,0,0-3.92-4.08c-.46-.26-.88-.52-1.37-.77l-1.52-.73c-1-.53-2.08-.9-3.12-1.35s-2.16-.78-3.24-1.18l-3.32-1a99.13,99.13,0,0,0-10.19-2.17c-3.45-.54-7-.91-10.45-1.16Z"/><path class="cls-2" d="M180.84,232.63c-1.27.31-2.53.68-3.78,1.1-.45.16-.89.37-1.34.52-1.6.58-3.19,1.19-4.74,1.9a18.24,18.24,0,0,0-2,1.09,11.06,11.06,0,0,1-2.55,1.39c-.32,0-.47-.28-.48-.81a1.7,1.7,0,0,1,.65-1.46,28.74,28.74,0,0,1,5.52-2.53c1.16-.39,2.28-1,3.44-1.4s2.59-.89,3.91-1.26c.8-.24,1.63-.42,2.44-.62,1.25-.29,2.51-.51,3.75-.73,1-.17,1.92-.4,2.89-.56.21,0,.43-.08.64-.1.81,0,1.08.06,1.25.54a2.13,2.13,0,0,1,.11.33c.08.37-.24.69-.8.82-1.64.36-3.35.6-5.08,1-1.27.23-2.56.53-3.83.87Z"/><path class="cls-2" d="M210.54,233.08c-2.35,0-4.7.18-7,.37l-2.56.32c-3,.35-6,.79-9,1.43a40.08,40.08,0,0,0-3.9,1.06,48.92,48.92,0,0,1-4.91,1.52c-.56,0-.61-.31-.33-.89a3.51,3.51,0,0,1,1.89-1.63,57.19,57.19,0,0,1,10.47-2.39c2.13-.26,4.32-.72,6.5-1,2.4-.29,4.81-.43,7.22-.54,1.48-.05,3-.09,4.44-.09,2.24,0,4.5.06,6.72.14l5.14.1c.38,0,.75,0,1.13,0,1.41.11,1.84.28,2.08.79a2.14,2.14,0,0,1,.16.35c.09.39-.51.64-1.54.64-3,0-6.19-.17-9.38-.24-1.18,0-2.36-.05-3.55,0s-2.37,0-3.56.06Z"/><path class="cls-2" d="M248.76,399.76c-3.73,1.78-7.39,3.76-11,5.85-1.32.77-2.59,1.63-3.91,2.4-4.66,2.72-9.31,5.5-14.14,8.09-2.14,1.14-4.29,2.32-6.58,3.3a18.06,18.06,0,0,1-4.72,1.46,8,8,0,0,1-2.71-.07,5.41,5.41,0,0,1-2.58-1.27c-.89-.88,0-1.29,1.1-1.52.56-.16,1.11-.3,1.64-.5a6.45,6.45,0,0,1,1.69-.39,14.66,14.66,0,0,0,3.83-.95c1.34-.51,2.69-1.12,4-1.77,2.72-1.32,5.45-2.79,8.24-4.23,3.33-1.73,6.56-4,9.88-6,3.65-2.18,7.37-4.29,11.17-6.24,2.34-1.21,4.73-2.34,7.14-3.4a84,84,0,0,1,11.31-4,53.76,53.76,0,0,1,9.1-1.94c.68-.08,1.36-.14,2.06-.17,2.6,0,3.43.38,3.85,1.35a4,4,0,0,1,.27.66c.12.76-.93,1.16-2.65,1.29A61.35,61.35,0,0,0,260.21,395a92.7,92.7,0,0,0-11.4,4.83Z"/><path class="cls-2" d="M171,336.58c-.47-1-2-2-.35-2.86l1.44-1.35,1.07-.92c1.11-.94,2.24-1.82,3.4-2.67,2.3-1.69,4.67-3.25,7.08-4.74a143.07,143.07,0,0,1,15-8c3.74-1.72,7.5-3.39,11.37-4.81a135.8,135.8,0,0,1,42.49-8.4,120,120,0,0,1,19.24.89l3.05.45.42.06a5.48,5.48,0,0,1,.56.1c.42,0,.69.33,1,.56a10.09,10.09,0,0,1,1.26,1.38,41.39,41.39,0,0,1,3.46,5.29,35.92,35.92,0,0,1,2.59,5.75,18.15,18.15,0,0,1,1.11,6.41,2.85,2.85,0,0,1-.12.92,3.21,3.21,0,0,1-.22.61c-.15.31-.32.41-.49.36-.35-.12-.63-.86-1-1.85-.83-2-2.48-5.2-4.52-9.14a45.32,45.32,0,0,0-3-5c-.28-.38-.56-.8-.84-1.13a5.58,5.58,0,0,0-.4-.49l-.06-.07h0l-2.08-.34c-1-.17-2-.32-3-.42l-3-.36c-2-.14-4-.36-6.06-.4a110.55,110.55,0,0,0-12.21.1c-4.08.21-8.16.67-12.23,1.28a128.56,128.56,0,0,0-29,8.37,150.11,150.11,0,0,0-15.08,7.1,109.84,109.84,0,0,0-14,8.9c-.68.5-1.33,1-2,1.57l-.91.78-.46.4-.23.21c0,.09.12.21.18.31l.42.63.21.32.34.57.67,1.13c1.79,3,3.35,6.12,4.93,9.22,4.63,9.44,8.81,19.13,12.6,28.84,2.95,7.55,5.8,15,8.09,22.7.48,1.72.94,3.39,1.42,5.12s.63,3,.85,4.13a18.87,18.87,0,0,1,.36,2.85,6.75,6.75,0,0,1-.48,3.24,4.55,4.55,0,0,1-.5,1c-.31.35-.71-.13-1.13-1.26s-.79-2.92-1.42-5.21C197.26,395,192,381,186.13,367.18,184,362,181.66,357,179.25,351.92c-1.2-2.52-2.47-5-3.75-7.47l-2-3.63-1-1.76-.56-.93-1-1.51Z"/><path class="cls-3" d="M215.71,350.67s0,0,0,0-.06.17-.11.18a66.3,66.3,0,0,0-7.25,2.43c-1.17.47-2.34.93-3.47,1.47l-3.38,1.59s-.1,0-.17-.07,0,0,0,0a13,13,0,0,0,1.72,4s0,0,0,0,0-.15.08-.17l.56-.22,6.55-2.49a67.87,67.87,0,0,1,6.54-2.09s.1,0,.17.11,0,0,0,0a10.71,10.71,0,0,0-.44-2.4A9.22,9.22,0,0,0,215.71,350.67Z"/><path class="cls-3" d="M217.65,371.5l0,0c-.09,0-.15,0-.16-.08-.15-.61-.26-1.22-.37-1.84l-.22-.9-.29-.9c-.39-1.21-.69-2.5-1.11-3.83a34.42,34.42,0,0,0-1.53-4.06A19.7,19.7,0,0,0,211.6,356s0-.11,0-.2v0c-.08-.1-.86.35-1.74,1a6.28,6.28,0,0,0-1.52,1.33h0c.1,0,.15,0,.18,0l.29.51a22.43,22.43,0,0,1,2.12,6.78c.27,1.24.57,2.54.93,3.87.1.33.18.67.3,1l.43,1c.36.62.73,1.24,1.13,1.84,0,0,0,.11,0,.19a.06.06,0,0,0,0,0,5.84,5.84,0,0,0,2-.75A7.41,7.41,0,0,0,217.65,371.5Z"/><path class="cls-2" d="M227,364.38a7.06,7.06,0,0,1-.21-.79c0-.11,0-.23-.13-.31s.1-.79-.06-.79c-.33,0-.77-2.25-.89-2.39a2.14,2.14,0,0,1-.1-.22,1.7,1.7,0,0,1-.15-.22.41.41,0,0,1,0-.19c0-.07,0-.15,0-.21a5.28,5.28,0,0,0-.34-.91s0-.08,0-.12a18.42,18.42,0,0,0-.38-2.24.13.13,0,0,0-.08-.15c-.29-.15-.36-2.43-.65-2.48a.12.12,0,0,1-.13-.09.45.45,0,0,1,0-.23.2.2,0,0,0-.07-.18c-.16-.15,0-.35.1-.53a.87.87,0,0,1,.35-.12l2.94-.45h.07c.8-.07,1.59-.09,1.35.07s0,.94-.05,1,.25.93.35,1.2a13.88,13.88,0,0,0,.51,2.38,2.58,2.58,0,0,1,.26.78s.75,2.06.84,2.21,0,.09,0,.12a2.24,2.24,0,0,1,.41,1s0,0,0,0c.24.22.22.51.32.77l.48,1.23a2.18,2.18,0,0,1,.05.38c0,.15,0,.31.22.4,0,0,0,0,0,.07s.14.25.18.39a5,5,0,0,0,.16.51.07.07,0,0,0,0,.06c.13.21.27.42.39.64,0,.06,0,.15,0,.24a.2.2,0,0,0,.07.28c.14.09,0,.22-.46.42a5.85,5.85,0,0,1-.92.34l-1.26.35a13.12,13.12,0,0,1-2.08.48c-.05,0-.1,0-.08-.08.12-.28-.09-.45-.14-.67s-.19-.36-.17-.58a.35.35,0,0,0-.21-.36A4.72,4.72,0,0,1,227,364.38Z"/><path class="cls-3" d="M246.56,363.7s0,0,0,0-.14,0-.16-.09l-1.62-3.95c-.55-1.34-1.07-2.7-1.69-4s-1.22-2.67-1.91-4a14.77,14.77,0,0,0-1.18-2,7.6,7.6,0,0,0-1.78-1.94,1,1,0,0,1-.2-.2s0,0-.05,0c-.3-.09-.62.3-.71.89s-.24,1.06-.32,1h0l0-.07h0v0l0,0s.05,0,.06,0l.25.36a35,35,0,0,1,1.54,3.55c.49,1.26,1,2.56,1.39,3.86l1.36,3.91c.47,1.32.87,2.63,1.44,4a.21.21,0,0,1,0,.2s0,0,0,.05a4.48,4.48,0,0,0,1.9-.61A5.92,5.92,0,0,0,246.56,363.7Z"/><path class="cls-3" d="M241.77,358.3l.13.11a2.35,2.35,0,0,1,.3.33c.07.1,0,0,.05,0a6.37,6.37,0,0,1,.94-.53c.43-.21.92-.42,1.41-.63,1-.43,2-.88,3.12-1.43a12.41,12.41,0,0,0,3.32-2.29,5.22,5.22,0,0,0,1.37-2.51,4.1,4.1,0,0,0-.56-3,6.43,6.43,0,0,0-1.59-1.8l-.5-.38-.5-.28a6.2,6.2,0,0,0-1-.45,11.39,11.39,0,0,0-3.88-.64,10.4,10.4,0,0,0-3.79.68,5.76,5.76,0,0,0-3.17,2.71.83.83,0,0,1-.19.27l0,.06c-.09.24.35.59,1,.79a2.68,2.68,0,0,0,1.25.22,0,0,0,0,0,0,0,.23.23,0,0,1,0-.17,1.9,1.9,0,0,1,.24-.25.88.88,0,0,1,.28-.22,4.65,4.65,0,0,1,2.29-.69,8.63,8.63,0,0,1,2.63.14,6.25,6.25,0,0,1,2.25.92,2.12,2.12,0,0,1,.34.3l.13.14.16.22a3,3,0,0,1,.24.39c0,.06,0,.1.05.11s0,.08,0,.12a2,2,0,0,1-.39.43,10.53,10.53,0,0,1-2.19,1.32c-.88.42-1.82.81-2.81,1.24-.49.22-1,.44-1.53.71a9.38,9.38,0,0,0-1.81,1.14,3.44,3.44,0,0,1-.44.28.16.16,0,0,0-.09.07c-.11.15,0,.67.34,1a2.75,2.75,0,0,0,.57.47,5.66,5.66,0,0,0,.7.37l.72.33.19.1A5.47,5.47,0,0,1,241.77,358.3Z"/><path class="cls-3" d="M261.45,361s0,0,0,0a.32.32,0,0,1,.12-.27c.93-.71,2-1.47,3.1-2.33a14.86,14.86,0,0,0,3.18-3.24,6.34,6.34,0,0,0,.66-1.33l.14-.39.09-.45.06-.46c0-.15,0-.25,0-.37l0-.72-.18-.79a3.87,3.87,0,0,0-.3-.84,2.23,2.23,0,0,0-.47-.78,2.51,2.51,0,0,0-.64-.66,3,3,0,0,0-.76-.51,3.07,3.07,0,0,0-.82-.35l-.4-.13-.34-.06a10.14,10.14,0,0,0-2.4-.12l-2,.14-.8,0a5.8,5.8,0,0,1-.74,0,3,3,0,0,1-1-.23s-.07-.07-.06-.12a2.83,2.83,0,0,1,.31-.81,5.82,5.82,0,0,1,.87-1.19,6.45,6.45,0,0,1,1.14-1,3.78,3.78,0,0,1,1-.51s0,0,0,0,0,.08,0,0v-.08l0-.1v0h0l-.05.24h0v-.06a1.43,1.43,0,0,1,.1-.36c.11-.28.31-.66.51-1.08a2.55,2.55,0,0,0,.31-1.16.61.61,0,0,0-.39-.62h-.12c-.22,0-.4.06-.57.07a5.06,5.06,0,0,0-1.84.4,9.3,9.3,0,0,0-3.53,2.76,7.67,7.67,0,0,0-1.22,2.09c-.08.21-.14.46-.21.7a5.24,5.24,0,0,0-.08.88,3.87,3.87,0,0,0,.37,1.71,4.26,4.26,0,0,0,1.14,1.32,4.83,4.83,0,0,0,1.32.72,8.53,8.53,0,0,0,2.33.47c1.54.1,2.73,0,3.75,0a6.21,6.21,0,0,1,.68.07,2.6,2.6,0,0,1,.4.11c.08,0,.1,0,.11.1a.42.42,0,0,1,0,.19l0,.23c0,.09,0,.17,0,.15a1.69,1.69,0,0,1-.35.63,12.2,12.2,0,0,1-2.21,2.11c-.91.72-1.86,1.38-2.93,2.19a.54.54,0,0,1-.33.09.06.06,0,0,0-.07,0c-.2.17.36,1.13,1.23,2.12S261.33,361,261.45,361Z"/><path class="cls-2" d="M155.09,439.48a14,14,0,0,0,3.2,2.06,4.17,4.17,0,0,0,1.37.33.66.66,0,0,0,.65-.36,2.48,2.48,0,0,0,.3-1.91,12.79,12.79,0,0,0-1.93-4.56,35,35,0,0,0-3.21-4.34,29.74,29.74,0,0,0-3.46-3.37c-.79-.66-1.62-1.26-2.44-1.85s-1.68-1.19-2.29-1.57c-.11-.07-.1-.12-.11-.22a3.45,3.45,0,0,1,0-.38,1.06,1.06,0,0,1,.59-.93,3.4,3.4,0,0,1,3.43.27,34.55,34.55,0,0,1,5.06,4.48,34,34,0,0,1,4.09,5.34c.71,1.17,1.45,2.34,2.09,3.63a12.36,12.36,0,0,1,.83,2.08,6.32,6.32,0,0,1,.31,2.42,3.21,3.21,0,0,1-.1.74,3.38,3.38,0,0,1-.22.7l-.28.66c-.14.22-.3.43-.45.65a3.18,3.18,0,0,1-.58.58,2.53,2.53,0,0,1-.72.44,2.44,2.44,0,0,1-.79.26,2.69,2.69,0,0,1-.78.08,6.22,6.22,0,0,1-2.59-.6,14.4,14.4,0,0,1-2.09-1.15,24.56,24.56,0,0,1-4.27-3.66,26.14,26.14,0,0,1-4.59-7.06c-.45-1-.87-2-1.25-3A15.47,15.47,0,0,1,144,426a6.77,6.77,0,0,1-.08-.8,3.69,3.69,0,0,1,0-.87,3.28,3.28,0,0,1,.2-.82,2.26,2.26,0,0,1,.38-.7,1.63,1.63,0,0,1,.5-.51,2,2,0,0,1,.52-.29,1.53,1.53,0,0,1,.82,0,1.13,1.13,0,0,1,.5.42,1.71,1.71,0,0,1,.29.5,1.13,1.13,0,0,1-.21.83.64.64,0,0,0-.14.59,5.28,5.28,0,0,0,.18,1.74,21.49,21.49,0,0,0,.73,2.44,27.26,27.26,0,0,0,2.25,4.87,21.68,21.68,0,0,0,5.2,6Z"/><path class="cls-2" d="M173.91,433.31a10.9,10.9,0,0,0-3.25,1.26,5.2,5.2,0,0,0-.62.44l-.11.1,0,0-.08.08a.34.34,0,0,0,0,.42l0,0a6.1,6.1,0,0,0,1.65.73,31.39,31.39,0,0,0,4.86,1.19c1.68.29,3.4.5,5.12.64a33.34,33.34,0,0,0,4.58,0c1-.06,1.93-.18,2.86-.3l1.36-.19.59-.1.21,0h0s0-.05.06.08a2,2,0,0,0,.34.39c.28.18.16.05.07.13l-.14.08s0,0,0,0a.72.72,0,0,1,.45-.19c.19,0,.44.23.39.61a2.81,2.81,0,0,1-1,1.63,3.21,3.21,0,0,1-1.67.77,34.71,34.71,0,0,1-6.34.19,42.17,42.17,0,0,1-6.21-.78c-2.46-.54-5-.72-7.65-1.8a9.42,9.42,0,0,1-.9-.45,5.52,5.52,0,0,1-1.06-.84,5.21,5.21,0,0,1-.36-.55l-.16-.27-.1-.31a1.7,1.7,0,0,1-.1-.63,2,2,0,0,1,.06-.64,2.08,2.08,0,0,1,.2-.61,2.14,2.14,0,0,1,.32-.57,4.46,4.46,0,0,1,.79-.93,10.78,10.78,0,0,1,3.22-1.83,18.45,18.45,0,0,1,5.25-1.07A21.11,21.11,0,0,1,190,434.1c.35.29.73.55,1.06.88,1.23,1.22,1.36,1.83,1,2.56a3.45,3.45,0,0,1-.29.5c-.41.48-1.19.25-2-.46a19.28,19.28,0,0,0-8.52-4.34,16.63,16.63,0,0,0-7.26.14Z"/><path class="cls-2" d="M189.26,448.18a33.55,33.55,0,0,0,5.42-1.08,9.88,9.88,0,0,0,1.17-.44,4.5,4.5,0,0,0,.49-.24l.2-.13a.36.36,0,0,0,.06-.56,1.7,1.7,0,0,0-.21-.22,2.26,2.26,0,0,0-.32-.27,7.38,7.38,0,0,0-.74-.52c-.57-.32-1.14-.64-1.7-1a31,31,0,0,0-13.91-3.13,36.12,36.12,0,0,0-6.49.51c-2.73.45-5.41,1.21-8,1.84-.81.19-1-.54-.56-1.49a5.08,5.08,0,0,1,3.31-2.51,44.09,44.09,0,0,1,8.91-1.26,38.64,38.64,0,0,1,9,.66A31.51,31.51,0,0,1,196.44,442a9.93,9.93,0,0,1,1.33.92,6.3,6.3,0,0,1,1.36,1.43,2.92,2.92,0,0,1,.51,2.22,3.28,3.28,0,0,1-1.29,1.88,6.87,6.87,0,0,1-1.58.9c-.51.22-1,.38-1.51.54a29.9,29.9,0,0,1-3,.71,51.35,51.35,0,0,1-7.35.83,41.51,41.51,0,0,1-11.12-1.2,31.63,31.63,0,0,1-8.17-2.94,11.78,11.78,0,0,1-1.7-1.11,3.84,3.84,0,0,1-1.67-2.86,1.78,1.78,0,0,1,.19-.76,1.28,1.28,0,0,1,.41-.47,1,1,0,0,1,.83-.13,1.37,1.37,0,0,1,.56.31c.22.23.09.59.13.84l0,.07s0,0-.07-.07h.27c.06,0,.11,0,.1,0l.07,0,.2.2a6.48,6.48,0,0,0,1.15.88,14.78,14.78,0,0,0,1.47.83,29.62,29.62,0,0,0,3.3,1.37,38.9,38.9,0,0,0,7.19,1.74,37.82,37.82,0,0,0,11.14-.05Z"/><path class="cls-2" d="M213.87,443.52a39.35,39.35,0,0,0,4.74-.65l.5-.12a.63.63,0,0,0,.23-.12c.15-.14,0-.34-.09-.48s-.19-.16-.33-.27a8.09,8.09,0,0,0-.69-.44l-1.46-.85a27.48,27.48,0,0,0-17.36-2.49c-2.33.42-4.59,1.15-6.8,1.75-.68.18-1-.52-.64-1.46a4.11,4.11,0,0,1,2.74-2.48,32.31,32.31,0,0,1,15.57-.48,29.79,29.79,0,0,1,9.09,3.34,11.77,11.77,0,0,1,1.14.75c.19.13.45.34.66.52a9.51,9.51,0,0,1,.71.71,3.3,3.3,0,0,1,.83,1.67,2.19,2.19,0,0,1-.51,1.72,5.89,5.89,0,0,1-3.14,1.56c-.89.2-1.76.33-2.61.44l-3.1.35c-1.06.13-2.12.23-3.18.27a38.29,38.29,0,0,1-9.62-.81,28,28,0,0,1-7.15-2.31,12.4,12.4,0,0,1-1.5-.9,4,4,0,0,1-1.64-2.16,2,2,0,0,1,0-.6,1.84,1.84,0,0,1,.18-.56.85.85,0,0,1,1.34-.2,1.07,1.07,0,0,1,.18.39l.06.18s0-.06-.09-.08,0,0,0,0H192a.66.66,0,0,0,.23,0,.63.63,0,0,0,.26-.05c.1,0,.2.11.41.27a11.1,11.1,0,0,0,2.36,1.35,23.43,23.43,0,0,0,2.84,1.07,32.1,32.1,0,0,0,6.16,1.3,36.42,36.42,0,0,0,9.6-.19Z"/><path class="cls-2" d="M245.57,447.14c.66-.21,1.31-.44,2-.68l.81-.32a.35.35,0,0,1,.14,0l.09,0a1.31,1.31,0,0,0,.43-.21c.06-.05.13-.14.08-.21a.3.3,0,0,0-.16-.13,2.92,2.92,0,0,0-.35-.1c-.27-.05-.57-.09-.85-.16-.09,0-.37-.06-.57-.09l-.64-.08a11,11,0,0,0-1.29-.12,25.61,25.61,0,0,0-2.63,0,29.37,29.37,0,0,0-5.26.75,20.61,20.61,0,0,0-4.42,1.66,29.93,29.93,0,0,0-4.77,3.28c-.45.35-1-.12-1.21-1a2.94,2.94,0,0,1,.17-1.6,4.43,4.43,0,0,1,.44-.83,3.84,3.84,0,0,1,.71-.68,22.05,22.05,0,0,1,6.22-3.05,26.16,26.16,0,0,1,6.68-1.17c.68,0,1.36-.07,2.05-.07l1,0,1,0c.7,0,1.4.06,2.1.13l.52,0c.18,0,.44.09.65.12l1.33.28a6.2,6.2,0,0,1,1.44.51l.72.3.35.15a.76.76,0,0,1,.3.17,2,2,0,0,1,.69,1,1.74,1.74,0,0,1-.24,1.27,5.68,5.68,0,0,1-2.26,1.91,15,15,0,0,1-1.42.69c-.39.17-.71.3-1.07.43-1.71.66-3.44,1.19-5.17,1.68-2.63.75-5.3,1.33-8,1.88a39.83,39.83,0,0,1-6.33,1,6.56,6.56,0,0,1-1.62-.1,2.73,2.73,0,0,1-1.64-1,1.79,1.79,0,0,1-.27-1.76,1,1,0,0,1,1.16-.71,2.13,2.13,0,0,1,.58.12.87.87,0,0,1,.47.71,1.37,1.37,0,0,0,.14.37h0a.47.47,0,0,0-.17,0,2.3,2.3,0,0,0-.23,0c-.13,0-.08,0,0-.05a1.35,1.35,0,0,0,.17-.17l.2-.28c0-.07,0,0,.09,0h.4a9.22,9.22,0,0,0,1.13-.06c.83-.07,1.71-.21,2.6-.36,1.79-.31,3.64-.69,5.48-1.12a83.6,83.6,0,0,0,8.13-2.27Z"/><path class="cls-2" d="M222.16,455.47l-3.92.26c-1.31.08-2.62.08-3.93.12s-2.63.08-3.94.08l-3.93-.07-2.87,0-2.86-.15c-3.37-.15-6.72-.61-10.06-1-3.33-.57-6.66-1-9.93-1.88-2.94-.59-5.82-1.46-8.7-2.23-1.82-.57-3.63-1.22-5.44-1.86a19.94,19.94,0,0,1-2.63-1.18c-.86-.43-1.71-.87-2.55-1.34-1-.59-.58-1.09.61-1.24a9.88,9.88,0,0,1,5,.95A112.29,112.29,0,0,0,188.93,452a103.18,103.18,0,0,0,14,1.34c2.59.12,5.2.1,7.79.16,2.6-.09,5.21-.1,7.8-.26l4.8-.33c1.6-.11,3.18-.35,4.78-.52a127.05,127.05,0,0,0,14.32-2.45,98,98,0,0,0,10.6-3.28c.76-.29,1.51-.54,2.27-.85,2.8-1.13,3.76-1.31,4.63-.92a3.25,3.25,0,0,1,.59.27c.48.37-.53,1.22-2.6,2.19a90.77,90.77,0,0,1-20,6.12c-2.61.43-5.21.92-7.85,1.25s-5.26.68-7.9.83Z"/><path class="cls-2" d="M254.62,457.29c-56.5,32.48-180.45-2.11-108-25L148,445.19S186.6,474.62,254.62,457.29Z"/><path class="cls-2" d="M192.17,438.74c3.66-1.71,15-3.22,21.18.83,4.37,2.84-3.82,4.23-5.94,4.56C197,445.77,190.32,439.6,192.17,438.74Z"/><path class="cls-2" d="M149.78,427.41c2,0,12.44,9.59,11.19,13.86-1,3.5-5.27.44-6.84-.92a17.23,17.23,0,0,1-4.87-7C148.78,432.12,147.12,427.42,149.78,427.41Z"/><path class="cls-2" d="M220.75,264.85a129,129,0,0,1-15.71.76c-1.91-.05-3.82,0-5.73-.1a131,131,0,0,1-19.94-2.75c-2.91-.62-5.84-1.25-8.71-2-1.84-.5-3.7-1-5.51-1.67a16.31,16.31,0,0,1-5.29-2.91,1.53,1.53,0,0,1-.46-.77.39.39,0,0,1,.19-.44,4.9,4.9,0,0,1,1.45-.26,10.19,10.19,0,0,1,4.87.6,92.6,92.6,0,0,0,10.64,3.26c3.64.91,7.34,1.71,11.09,2.43a91.52,91.52,0,0,0,13.92,1.2,128,128,0,0,0,15.42-.39c3.15-.3,6.3-.65,9.41-1.23a89.46,89.46,0,0,0,14-3.47c1.75-.6,3.45-1.3,5.12-2s3.32-1.51,4.92-2.38c.71-.37,1.39-.77,2.12-1.12,2.64-1.4,3.57-1.67,4.6-1.15a4.93,4.93,0,0,1,.69.35c.61.49-.21,1.59-2.13,2.83a70.29,70.29,0,0,1-19.26,8.27,109.35,109.35,0,0,1-15.63,3.08Z"/><path class="cls-2" d="M208.5,257c-2.32,0-4.64,0-7-.09l-2.54-.1q-4.47-.27-8.9-.91c-1.32-.16-2.63-.39-3.93-.57l-2.5-.45c-.83-.17-1.64-.4-2.45-.64-1-.3.49-.75,2.36-.39,3.34.62,6.71,1.06,10.13,1.47,2,.26,4.19.33,6.3.41,2.31.11,4.63.13,7,.12,1.43,0,2.85-.05,4.28-.14,2.15-.12,4.32-.26,6.44-.57.83-.1,1.64-.25,2.45-.42s1.6-.34,2.39-.54l1-.25c1.3-.33,1.73-.36,2.1-.15a1.36,1.36,0,0,1,.24.13c.19.18-.29.51-1.24.87a38.43,38.43,0,0,1-9.13,1.85c-2.33.23-4.69.35-7,.4Z"/><path class="cls-2" d="M198.51,171.44a13.46,13.46,0,0,0,6.71,8.84,15.28,15.28,0,0,0,4,1.32,13.84,13.84,0,0,0,7.39-.66,13.14,13.14,0,0,0,3.33-1.81,13,13,0,0,0,2.72-2.67,13.13,13.13,0,0,0,2.53-6.26,17.58,17.58,0,0,0-1.4-8.46c-.34-.83.35-1.16,1.4-.75a5.19,5.19,0,0,1,2.88,3.72,16.26,16.26,0,0,1-1.26,10.57,16,16,0,0,1-3.09,4.38,16.46,16.46,0,0,1-4.35,3.08A17.37,17.37,0,0,1,206.86,184a16.23,16.23,0,0,1-5.43-28.27,16.87,16.87,0,0,1,8.95-3.81,16.13,16.13,0,0,1,2.2-.08c2.76.22,3.54.86,3.82,1.74a2.58,2.58,0,0,1,.16.62c0,.32-.27.52-.76.6a3.9,3.9,0,0,1-.86,0c-.33,0-.72,0-1.14-.06a15,15,0,0,0-3.73.16c-.62.07-1.22.27-1.83.4a17.49,17.49,0,0,0-1.75.66,15.56,15.56,0,0,0-1.68.85,16.33,16.33,0,0,0-1.53,1.09,15.28,15.28,0,0,0-1.4,1.27,14.06,14.06,0,0,0-1.18,1.47,13.31,13.31,0,0,0-2.12,10.75Z"/><g class="cls-1"><circle class="cls-2" cx="211.35" cy="168.21" r="8.74"/></g><path class="cls-2" d="M204.76,171.93a7.64,7.64,0,0,0,5.84,4,8,8,0,0,0,8.77-7,7.47,7.47,0,0,0-.83-4.26,9.68,9.68,0,0,0-4-3.81c-.51-.28-.31-.72.39-.93a3.25,3.25,0,0,1,3,.78,9.7,9.7,0,0,1,3.3,6.14,9.53,9.53,0,0,1-1.72,6.67,10.11,10.11,0,0,1-7,4.25,9.58,9.58,0,0,1-4.53-.62,9.74,9.74,0,0,1-3.68-2.65,10.24,10.24,0,0,1-1.48-2.37,10.5,10.5,0,0,1-.72-2.69,9.57,9.57,0,0,1,2.62-7.67,9.84,9.84,0,0,1,5.61-3,8.45,8.45,0,0,1,1.43-.12c1.82.08,2.34.53,2.52,1.08a1.58,1.58,0,0,1,.12.39c0,.2-.18.33-.49.38a8,8,0,0,1-1.29,0,8.26,8.26,0,0,0-7.93,4.47,7.78,7.78,0,0,0-.78,3.49,7.58,7.58,0,0,0,.92,3.47Z"/><path class="cls-2" d="M217.5,166a11.12,11.12,0,0,1-1.78-.63,6.67,6.67,0,0,1-1.8-1.13l-.57-.57a5.73,5.73,0,0,1-.47-.63,7.29,7.29,0,0,1-.56-4.84,12.57,12.57,0,0,1,.49-2,3.52,3.52,0,0,1,1.58-2.15c.27-.15.59.33.85.88s.56,1.13.45,1.4a18.33,18.33,0,0,0-.94,3.39,2.67,2.67,0,0,0,.66,2,2.7,2.7,0,0,0,.78.72,7.12,7.12,0,0,0,1.21.55,9.67,9.67,0,0,0,1.73.38,8.34,8.34,0,0,0,2.73-.1,6.09,6.09,0,0,0,1.87-.94,4,4,0,0,1,.37-.25c.49-.26.73-.16,1.22.47l.33.43a1.13,1.13,0,0,1,0,1.47,6.9,6.9,0,0,1-4.42,1.88,12.53,12.53,0,0,1-3.71-.22Z"/><path class="cls-2" d="M207.45,171.39a4.45,4.45,0,0,1-.65-1.17,1.83,1.83,0,0,1-.18-.48,2.63,2.63,0,0,1,.32-1.75c.15-.21.25-.44.4-.63a1.23,1.23,0,0,1,.67-.6c.1,0,.28.26.42.56s.27.61.18.69a7.61,7.61,0,0,0-.72.81c-.15.19,0,.44,0,.67a2.69,2.69,0,0,0,.38.81,2.8,2.8,0,0,0,.38.47,4.16,4.16,0,0,0,.74.57,5.63,5.63,0,0,0,.69.24l.15,0c.18.07.22.16.2.4v.16a.37.37,0,0,1-.33.33,2.32,2.32,0,0,1-1.67-.26,4,4,0,0,1-1-.84Z"/><path class="cls-2" d="M191.94,188.53c1.44,3.36,4,6.37,4.2,10.15.05,1,3,.38,2.9-.77-.18-3.78-2.76-6.79-4.21-10.15-.44-1-3.3-.17-2.89.77Z"/><path class="cls-2" d="M233.09,188.74c-3.73,4.39-7.34,7.74-7.19,13.92,0,.91,2.93.35,2.9-.78-.14-5.77,3.53-9,7-13.07.81-1-2.09-.79-2.7-.07Z"/></g></svg>