<svg id="Layer_1" data-name="Layer 1" xmlns="http://www.w3.org/2000/svg" width="520" height="520" viewBox="0 0 520 520"><defs><style>.cls-1{fill:#221f1f;}</style></defs><title>Notioly v2</title><g id="_60.Subscribe" data-name="60.Subscribe"><path class="cls-1" d="M348.5,204.58l-1.47-.12c-.48-.07-1-.17-1.45-.26a21.27,21.27,0,0,1-2.82-.74c-.92-.31-1.8-.71-2.69-1.09l-1.3-.71a8.93,8.93,0,0,1-1.25-.77,20.16,20.16,0,0,1-7.14-9.07,31.22,31.22,0,0,1-2.15-8,60.5,60.5,0,0,1-.08-14.23,117.73,117.73,0,0,1,2.27-13.9c.89-4.06,1.86-8.12,2.93-12.1a124.72,124.72,0,0,1,4.81-15.12c1.26-3,2.26,1.73.44,7.46A208,208,0,0,0,331,167a53.79,53.79,0,0,0,.39,19.31,21.8,21.8,0,0,0,4.3,9.35,15.48,15.48,0,0,0,1.77,1.85,9.65,9.65,0,0,0,1,.79c.35.24.68.52,1,.74a20.34,20.34,0,0,0,4.74,2.09,19.72,19.72,0,0,0,12.62-.46c6.2-2.3,11.56-6.68,16.28-11.39,3.69-3.68,6.91-7.66,10.36-11.57.77-.86,1.51-1.71,2.32-2.55,3-3.11,4.51-3.79,5.68-3.66a3.1,3.1,0,0,1,.76.12c.58.36-.68,1.31-2.77,3.49-3.14,3.2-6.12,6.93-9.36,10.54a99.45,99.45,0,0,1-10.57,10.45,44.31,44.31,0,0,1-9.57,6.18,27.83,27.83,0,0,1-5.55,1.85,26.25,26.25,0,0,1-2.93.46c-.49,0-1,0-1.49,0a9.28,9.28,0,0,1-1.49,0Z"/><path class="cls-1" d="M408.56,164.62a14.12,14.12,0,0,0,4.69-5.49,8.4,8.4,0,0,0,.55-1.27c.15-.42.34-.87.45-1.24a4.29,4.29,0,0,0-.34-3.88,6.34,6.34,0,0,0-3.64-2.37,6.07,6.07,0,0,0-3.95.33,25.35,25.35,0,0,0-4.6,2.91c-.47.33-.92-.2-1-1.05a3.14,3.14,0,0,1,1.32-2.77,11.6,11.6,0,0,1,6.51-2.32,8.43,8.43,0,0,1,1.87.2,11.36,11.36,0,0,1,1.68.54,8.51,8.51,0,0,1,3,2,7.2,7.2,0,0,1,2,4,8.41,8.41,0,0,1-.68,4.21,21.21,21.21,0,0,1-2,3.82,18.26,18.26,0,0,1-2.81,3.28,15.75,15.75,0,0,1-4.5,2.81,19.61,19.61,0,0,1-7.75,1.33,27.58,27.58,0,0,1-6-.6,12,12,0,0,1-1.31-.34c-1.6-.57-2.13-1.19-2-2a.93.93,0,0,1,.22-.5,1.48,1.48,0,0,1,.35-.19c.13,0,.18-.13.33-.14a2.68,2.68,0,0,1,1.12.15,27.48,27.48,0,0,0,9.73.9,14.09,14.09,0,0,0,6.7-2.42Z"/><path class="cls-1" d="M402.4,122.68C302,141.15,317.14,86.41,323.48,79.78c14.49-15.15,31.17-2,37-3,3.35-.57,10.64-6.85,19.32-3.62,5.09,1.89,12.3,12.61,15.36,14.49,3.22,2,13.05-3.32,20.75-1,13.4,4.11,32.72,33.17.66,64.55-2.36-6.59-10.76-3.46-13.19-1.64C397.6,145.63,403.84,123.64,402.4,122.68Z"/><path class="cls-1" d="M404.52,88.62a57.38,57.38,0,0,1-6.6,1.11,7.63,7.63,0,0,1-1,0h-.5l-.54-.1-.55-.1-.6-.25a2.44,2.44,0,0,1-.56-.28l-.43-.3a20.62,20.62,0,0,1-2.54-2.45c-3-3.26-5.61-6.65-8.69-9.4a16.18,16.18,0,0,0-2.34-1.77,4.69,4.69,0,0,0-.59-.3,3.21,3.21,0,0,0-.62-.26c-.47-.13-.92-.32-1.39-.42A13.7,13.7,0,0,0,371.8,74,24.65,24.65,0,0,0,366,76l-3,1.37a13.79,13.79,0,0,1-1.7.64,5.67,5.67,0,0,1-2.08.2A22.44,22.44,0,0,1,354.35,77c-1.51-.49-3-1-4.47-1.44A37.76,37.76,0,0,0,341,73.86a20.45,20.45,0,0,0-7.71,1,20.82,20.82,0,0,0-6.77,3.87c-.51.42-1,.86-1.47,1.33-.23.23-.5.47-.69.69s-.37.42-.54.68A18.54,18.54,0,0,0,322,84.85a31.78,31.78,0,0,0-1.91,7.77,28.89,28.89,0,0,0,.12,8,26,26,0,0,0,2.46,7.55,25.29,25.29,0,0,0,4.78,6.35,27.23,27.23,0,0,0,3.12,2.54c.55.38,1.09.78,1.66,1.15l1.76,1a49.74,49.74,0,0,0,13.67,4.7l3.6.62c1.2.21,2.42.27,3.63.42,2.41.31,4.84.34,7.26.46a150.08,150.08,0,0,0,18.71-.81c1.56-.16,3.12-.27,4.67-.47l4.66-.6c3.12-.34,6.2-.89,9.3-1.32,3.86-.56,3.48.21.32,1.41a59.1,59.1,0,0,1-6.64,2c-1.4.31-2.93.62-4.56.91s-3.35.6-5.18.74c-3.22.3-6.44.66-9.68.77-1.63.06-3.24.21-4.87.2H364a90.61,90.61,0,0,1-19.48-2.3l-2.4-.61c-.8-.22-1.58-.52-2.37-.78s-1.58-.52-2.35-.83l-2.29-1-1.15-.51-1.1-.62-2.2-1.25a35.23,35.23,0,0,1-4-3.07,26.19,26.19,0,0,1-6.3-8,27.85,27.85,0,0,1-2.79-9.78,34.47,34.47,0,0,1,1-12.08,29.51,29.51,0,0,1,2.19-5.79,12,12,0,0,1,1.86-2.74,30.43,30.43,0,0,1,2.27-2.12,22.65,22.65,0,0,1,11.27-5.26,29.48,29.48,0,0,1,12.29,1c2.15.57,4.24,1.29,6.29,2,1,.34,2,.67,3,.92a6,6,0,0,0,2.68.22,18.19,18.19,0,0,0,2.78-1.14c1-.46,2-.94,3-1.37a23.25,23.25,0,0,1,6.59-1.82,15.76,15.76,0,0,1,6.91.78,4.5,4.5,0,0,1,.85.33,7,7,0,0,1,.82.42,13.91,13.91,0,0,1,1.47,1A27.64,27.64,0,0,1,385.46,76c3.19,3.09,5.87,6.62,8.82,9.64a10.61,10.61,0,0,0,1.35,1.17,3.19,3.19,0,0,0,1.43.31,18.82,18.82,0,0,0,3.76-.44,78.22,78.22,0,0,1,8-1.38,24.28,24.28,0,0,1,4.18,0,15.2,15.2,0,0,1,4.15,1,22.94,22.94,0,0,1,7,4.53,34.37,34.37,0,0,1,10.53,22c.74,8.31-1.59,16.62-5.57,23.72a60.75,60.75,0,0,1-5.51,8.22c-1,1.32-2.08,2.52-3.14,3.76-.26.31-.53.61-.82.9l-.9.94-1.26,1.31-.63.66-.31.33-.16.17c-.06,0-.09,0-.14,0l-.63-1.36c-.21-.45-.46-.81-.7-1.23a2.22,2.22,0,0,0-.62-.75,2.28,2.28,0,0,0-.61-.46,5.57,5.57,0,0,0-3.08-.74,11.44,11.44,0,0,0-3.38.62,17.37,17.37,0,0,0-1.63.66l-.39.21a1.12,1.12,0,0,0-.22.11l-.32.2q-.66.4-1.29.84l-.18-.06-.2-.15-.39-.3a5.68,5.68,0,0,1-.73-.67,5.9,5.9,0,0,1-1-1.56,13.79,13.79,0,0,1-1.05-4.3,29.94,29.94,0,0,1-.12-4.23A72.16,72.16,0,0,1,401,128.84a25.2,25.2,0,0,1,1.26-4.65,4.4,4.4,0,0,0,.35-1.46c0-.17-.09-.29,0-.3s.35.19.46.42a5.52,5.52,0,0,1,.34,2.15c0,1.91-.29,4.81-.67,8.48a66.6,66.6,0,0,0-.41,8.32,19.13,19.13,0,0,0,.49,3.94,7.26,7.26,0,0,0,.62,1.65c.08.12.15.21.24.2l.11-.08,0,0,.19-.1.46-.22a15.42,15.42,0,0,1,1.92-.78,13.65,13.65,0,0,1,4.19-.76,8.24,8.24,0,0,1,4.53,1.15,4.63,4.63,0,0,1,1,.76,7.17,7.17,0,0,1,.66.66l.13.17,0,0a.32.32,0,0,0,.08-.09h0l.17-.19.39-.4c.25-.27.52-.52.76-.81.95-1.12,2-2.19,2.87-3.37s1.83-2.32,2.65-3.55,1.62-2.47,2.4-3.72a48.74,48.74,0,0,0,3.75-8,39.87,39.87,0,0,0,2-8.53,32.61,32.61,0,0,0-6.27-23.33,23.82,23.82,0,0,0-9.25-7.64c-3.51-1.47-7.71-1-11.88-.12Z"/><path class="cls-1" d="M349.45,204c1.26,5,7.83,9.06,14.36,7.53,11.45-2.68,8.94-14.47,8.34-16.92C361,204.73,357.41,204,349.45,204Z"/><path class="cls-1" d="M372.71,192.08l.42-.34c.05-.06.06,0,.06,0l0,.15.06.28.24,1.1.44,2.16c.13.73.2,1.51.3,2.25l.05,1.37a16.83,16.83,0,0,1-.74,5.33,18.81,18.81,0,0,1-.72,1.89l-.49.9-.25.44-.32.41a11.91,11.91,0,0,1-5.74,4l-1.65.45a14,14,0,0,1-1.7.29,14.48,14.48,0,0,1-3.42-.1,15.4,15.4,0,0,1-5.67-2,12.28,12.28,0,0,1-3.06-2.43,7.87,7.87,0,0,1-1.85-3.52c-.17-.84.55-.82,1.38-.46a7.13,7.13,0,0,1,2.47,1.79,11.34,11.34,0,0,0,5.1,3.46,11.47,11.47,0,0,0,3.13.64A10.45,10.45,0,0,0,364,210a8.81,8.81,0,0,0,6.28-4.5,11.43,11.43,0,0,0,1.3-4.28,18.85,18.85,0,0,0,0-3.89,6.45,6.45,0,0,0-.11-.73c0-.21-.1-.08-.19,0l-.27.22-1.6,1.28a38.86,38.86,0,0,1-8,5.11,20.66,20.66,0,0,1-7.15,1.89c-.54.05-1.06.11-1.59.12-2,0-2.57-.15-3-.86a2.62,2.62,0,0,1-.27-.49c-.19-.55.61-1,2-1.15a42.21,42.21,0,0,0,6.07-.88,19.59,19.59,0,0,0,5.5-2.45,45,45,0,0,0,3.89-2.74c.33-.24.63-.5.95-.75l.47-.39.31-.24.47-.41,3.56-2.89Z"/><path class="cls-1" d="M315.09,233.24a79.73,79.73,0,0,1,12.45-11.1,23.83,23.83,0,0,1,3.82-2.11c.36-.13.69-.29,1.07-.4.22-.06.58-.2.86-.25s.57-.1.86-.16.59-.1.86-.12l.7.12a1.6,1.6,0,0,1,.66.21,1.69,1.69,0,0,1,.49.54,4,4,0,0,1,0,3.1c-.08.27-.2.63-.26.82l-.18.5-.38,1c-.52,1.3-1.07,2.55-1.61,3.8-.79,1.83-1.56,3.64-2.22,5.47-.33.91-.64,1.82-.89,2.72l-.16.67-.06.25c0,.12,0,.24-.05.37a.6.6,0,0,0,.13.43c.26,0,.45-.27.67-.44l1-1,1.1-1.14c1.47-1.54,2.9-3.12,4.34-4.71l4.35-4.76c.74-.79,1.48-1.57,2.24-2.35l.58-.58.76-.74a15.49,15.49,0,0,1,1.88-1.57,5,5,0,0,1,.5-.27l.47-.18a1.88,1.88,0,0,1,.92-.06,1.22,1.22,0,0,1,.73.69,3,3,0,0,1,.28,1,8.81,8.81,0,0,1-.16,2.6c-.2,1.08-.31,1.52-.45,2.14-.57,2.4-1.22,4.73-1.85,7.07-.4,1.5-.79,3-1.14,4.5-.17.74-.33,1.49-.47,2.24-.06.37-.13.76-.17,1.1a5.32,5.32,0,0,0-.06.56,2.09,2.09,0,0,0,0,.56c0,.18.2.38.39.27a5.78,5.78,0,0,0,1-.55c1.24-.81,2.5-1.73,3.71-2.64,3.13-2.38,6.17-4.92,9.11-7.54,1.46-1.31,2.9-2.65,4.29-4a34.59,34.59,0,0,0,3.9-4.26c.67-.94.88-1.33,1.08-1.25s.25.74-.12,1.8a19,19,0,0,1-2.11,4,31.71,31.71,0,0,1-4.17,4.75c-2.86,2.69-5.83,5.23-8.91,7.65-1.54,1.22-3.1,2.41-4.77,3.52l-.77.49c-.41.26-.82.47-1.23.71a9.79,9.79,0,0,1-1.2.49,3.59,3.59,0,0,1-1,0c-1.52-.31-2.09-1.81-1.93-3.72,0-.24,0-.47.06-.71s.07-.54.08-.62l.12-.76c.1-.51.2-1,.3-1.49.22-1,.45-1.94.7-2.89.49-1.9,1-3.77,1.53-5.64l.75-2.79.35-1.39.28-1.2a2.8,2.8,0,0,0,.12-.53c0-.09,0-.25-.13-.2a1.41,1.41,0,0,0-.24.13l-.18.13-.1.08-.05,0-.12.12c-2.71,2.63-5.3,5.58-7.93,8.5-1.32,1.47-2.65,2.95-4,4.41l-1,1.08c-.38.38-.62.64-1.33,1.29a8.93,8.93,0,0,1-1.83,1.4,4.46,4.46,0,0,1-1.73.39,3.67,3.67,0,0,1-1.07-1.7,6.08,6.08,0,0,1-.11-2.36c.06-.44.14-.88.23-1.26l.2-.82c.15-.53.32-1.06.49-1.57.92-2.68,2-5.21,3.13-7.73.54-1.25,1.08-2.51,1.55-3.75.28-.78.3-.84.38-1.13a1.67,1.67,0,0,0,0-.39.21.21,0,0,0-.28-.19,3.29,3.29,0,0,0-.77.16,12.92,12.92,0,0,0-1.75.72,25.06,25.06,0,0,0-3.37,2.05A60.66,60.66,0,0,0,322,230a196.19,196.19,0,0,0-13.72,14.78c-6.64,7.76-13.1,15.76-19.59,23.6-5.06,6.07-9.95,12.11-15.53,17.7-1.23,1.23-2.45,2.42-3.79,3.57-5,4.25-7.43,4.83-8.95,4.66a4.36,4.36,0,0,1-1-.22c-.69-.45,1.66-1.13,5.25-3.93a69.19,69.19,0,0,0,7.63-7c2.45-2.53,4.83-5.2,7.2-7.93,4.73-5.46,9.38-11.16,14.06-16.87,6.95-8.48,13.9-17.08,21.49-25.19Z"/><path class="cls-1" d="M418.91,342.49c-2.33-11-4.54-22.07-6.7-33.12q-1.2-6-2.41-12.09l-4-21.32c-.68-3.55-1.37-7.1-2.12-10.62A79.7,79.7,0,0,0,400.72,255a64.56,64.56,0,0,0-3.89-8.65,51.44,51.44,0,0,0-5.35-7.74,40.82,40.82,0,0,0-9-7.8,51,51,0,0,0-10.83-5.09c-2.35-.81-1.9-1.39.38-1.4a17.7,17.7,0,0,1,2,.12c.77.13,1.63.31,2.57.54a19,19,0,0,1,3,1,19.66,19.66,0,0,1,3.15,1.57,42,42,0,0,1,10.07,8.28A49.4,49.4,0,0,1,400,246.62a70,70,0,0,1,4.65,12c.6,2,1.11,4.17,1.53,6.24s.81,4.15,1.2,6.22c1.81,9.93,3.92,20.21,5.9,30.32,2.17,11.13,4.36,22.25,6.68,33.35,1.43,6.82,2.89,13.65,4.44,20.44,2.34,10.3,4.8,20.62,7.63,30.7,2.2,7.84,4.67,15.44,7.5,22.94.65,1.63,1.3,3.23,2,4.88,2.52,6.07,3.48,7.86,3.52,9.47a6.59,6.59,0,0,1,0,1.06c-.09.43-.55.1-1.32-.87a19.19,19.19,0,0,1-1.34-1.95c-.47-.81-1-1.78-1.56-2.88a161.24,161.24,0,0,1-8-20.8c-2.29-7.19-4.32-14.56-6.23-22-2.82-11-5.35-22.12-7.76-33.24Z"/><path class="cls-1" d="M402,373c-2.38-6.56-4.71-13.14-6.69-19.88-.73-2.47-1.39-5-2-7.41-2.15-8.64-4.52-17.26-7.27-25.74-1.2-3.77-2.61-7.49-4.09-11.11l-1.5-3.46c-.54-1.13-1.09-2.26-1.61-3.4a50,50,0,0,0-3.58-6.44c-.83-1.23-.33-1.53,1-.84a8,8,0,0,1,2.34,1.86,14.91,14.91,0,0,1,1.26,1.49,21.39,21.39,0,0,1,1.13,1.84,107.4,107.4,0,0,1,6,14.52c1.71,4.93,3.21,9.92,4.56,15,1.61,6,3.51,12.25,5,18.5,1.66,6.68,4,13.32,6.33,19.9q2.17,6.08,4.51,12.11c2.36,6.08,4.75,12.19,7.3,18.15,2,4.63,4.09,9.1,6.23,13.58l1.43,2.94c1.75,3.69,2.18,4.88,2,6a4.31,4.31,0,0,1-.15.75c-.26.64-1.55-.65-3-3.33-4.24-7.92-8-16.56-11.57-25.29-2.67-6.49-5.23-13.06-7.7-19.66Z"/><path class="cls-1" d="M197,223.19c3.36,2.16,6.7,4.43,9.89,6.94a57,57,0,0,1,8.74,8.55,52.18,52.18,0,0,1,5,7.36c4.94,9,9.38,18.18,14.9,26.74a95.62,95.62,0,0,0,8,10.84,68.72,68.72,0,0,0,12.56,11.45c1.41,1,.91,1.52-.74,1.25a13.21,13.21,0,0,1-3.2-1,21.24,21.24,0,0,1-3.87-2.63A78.38,78.38,0,0,1,236.45,279a149.29,149.29,0,0,1-9.26-15.38L222.05,254c-1.76-3.2-3.48-6.45-5.38-9.45a47.65,47.65,0,0,0-7.49-9,74.64,74.64,0,0,0-9.31-7.32c-2-1.38-4.09-2.7-6.16-4s-4.2-2.62-6.23-4.07c-3.07-2.17-6-4.45-9-6.67a81.57,81.57,0,0,0-9.19-6.13l-.47-.23-.29-.14a5.25,5.25,0,0,0-.55-.22,2.18,2.18,0,0,0-1.12-.15.53.53,0,0,0-.42.32.78.78,0,0,0,.17.54,6.84,6.84,0,0,0,.74.85l1.18,1.09c.52.47,1,.93,1.58,1.39,1.07.91,2.16,1.81,3.25,2.71l2.91,2.36c3.61,3,4.63,4.2,4.85,5.43a3,3,0,0,1,.12.82c-.12.68-1.64-.34-4.35-2.43-2-1.56-4-3.14-6.07-4.8-1-.83-2-1.68-3-2.56-.51-.44-1-.9-1.51-1.36l-.37-.36-.27-.27-.33-.34A16,16,0,0,1,164,208.6a4.09,4.09,0,0,1-1.09-2.58,1.19,1.19,0,0,1,.13-.54,4.36,4.36,0,0,1,.26-.62,3.5,3.5,0,0,1,1-.88,3.75,3.75,0,0,1,2.77-.25,9.63,9.63,0,0,1,1.76.56,8.85,8.85,0,0,1,.9.4l.57.28a63.44,63.44,0,0,1,7,4.45c3.3,2.34,6.48,4.79,9.7,7.13,1.61,1.17,3.23,2.32,4.86,3.36l5.1,3.22Z"/><path class="cls-1" d="M159.43,226.62a20.34,20.34,0,0,1,2.75-4.7c.41-.51.74-1.07,1.2-1.55a12.62,12.62,0,0,1,5.94-3.77,23.29,23.29,0,0,1,3-.64c.64-.1,1.27-.19,1.91-.24a7.57,7.57,0,0,1,1.89.18c.39.09.33.63,0,1.18a2.53,2.53,0,0,1-1.58,1.26,18.19,18.19,0,0,0-6.63,1.25,9.34,9.34,0,0,0-3.16,2.81c-.51.62-1,1.29-1.47,2a14.45,14.45,0,0,0-1.2,2.1,14.82,14.82,0,0,0-1,2.81,11.09,11.09,0,0,0-.36,4.46,6.43,6.43,0,0,0,1.35,3,3.72,3.72,0,0,0,.46.51,3.32,3.32,0,0,1,.33.43.8.8,0,0,1,.19.33,1.12,1.12,0,0,1-.11.77c-.06.14-.1.3-.17.43-.24.46-.82.48-1.54,0a7.55,7.55,0,0,1-2.31-3.15,10.08,10.08,0,0,1-.65-3.89,16,16,0,0,1,1.14-5.52Z"/><path class="cls-1" d="M178.94,234.41c-.83-.23-1.67-.5-2.5-.81l-.61-.25a6.14,6.14,0,0,1-.69-.32,13,13,0,0,1-1.17-.72,22.26,22.26,0,0,1-4.05-3.42,12.17,12.17,0,0,1-1.27-1.65,4.12,4.12,0,0,1-.66-2.46,3,3,0,0,1,1.35-2.18,4.92,4.92,0,0,1,.93-.49,3.86,3.86,0,0,1,1.1-.27,9.94,9.94,0,0,1,3.57.58c2.12.68,4.07,1.57,6,2.22a10.83,10.83,0,0,0,2.65.52,29.27,29.27,0,0,1,2.89.53,14.65,14.65,0,0,1,3.62,1.33,8.16,8.16,0,0,1,2.92,2.65c.45.71-.16.93-1,.83a7.6,7.6,0,0,1-2.91-1,16.87,16.87,0,0,0-6.33-2c-.29-.05-.57-.08-1-.16s-.71-.18-1.05-.27c-.64-.2-1.25-.43-1.84-.66L175.52,225a14.54,14.54,0,0,0-2-.68,5.21,5.21,0,0,0-1.87-.23,2.27,2.27,0,0,0-.3.06l-.39.17a1.7,1.7,0,0,0-.5.39.59.59,0,0,0-.1.36,1.87,1.87,0,0,0,.19.66,11.17,11.17,0,0,0,3,3.34,20.39,20.39,0,0,0,1.94,1.41,10.25,10.25,0,0,0,1,.57l1.08.43c1.84.69,3.87,1,5.92,1.8a10.85,10.85,0,0,1,4.11,2.79c1.1,1.21,2,2.36,3.12,3.46a23.8,23.8,0,0,0,5.47,4.21c.43.24.88.44,1.33.67,1.67.82,2.18,1.12,2.33,1.89a2.46,2.46,0,0,1,.11.51c0,.52-.9.66-2.34.17a19.89,19.89,0,0,1-6-3.41,42.61,42.61,0,0,1-4.89-4.89l-.41-.48-.38-.4c-.24-.28-.52-.5-.77-.76a9.58,9.58,0,0,0-1.74-1.16,23.89,23.89,0,0,0-4.48-1.42Z"/><path class="cls-1" d="M165.17,245a4.67,4.67,0,0,1-1.63-1.36,6.68,6.68,0,0,1-.84-1.57A12.41,12.41,0,0,1,162,239a16.06,16.06,0,0,1-.2-2.18A23.35,23.35,0,0,1,163,229.4a15,15,0,0,1,1.43-3.15,5.4,5.4,0,0,1,1.66-1.79,3.22,3.22,0,0,1,2.56-.44c.55.14.25.73-.13,1.3-.19.26-.39.57-.53.81a1.29,1.29,0,0,1-.42.52,5.29,5.29,0,0,0-1.82,2.37,23.34,23.34,0,0,0-1.29,3.62,15.51,15.51,0,0,0-.31,4.86,14.91,14.91,0,0,0,.35,2.61,5.76,5.76,0,0,0,.93,2.19,2,2,0,0,0,.43.41,3.78,3.78,0,0,0,.45.28c.24.13.62.26.81,0a1.3,1.3,0,0,0,.19-.65,9.67,9.67,0,0,0,0-1.13c0-.89-.08-1.77-.13-2.65a12.41,12.41,0,0,1,.28-4.37,4.38,4.38,0,0,1,.43-1,2.3,2.3,0,0,1,1.09-1,.87.87,0,0,1,.87.17,2.62,2.62,0,0,1,.35.3c.32.41.14.92-.12,1.4-.79,1.43-.59,3.76-.44,6.27,0,.48.06,1,.06,1.49a6.79,6.79,0,0,1-.35,2.39,2.43,2.43,0,0,1-1.83,1.48l-.61,0-.63-.12a6.16,6.16,0,0,1-1.18-.49Z"/><path class="cls-1" d="M178.18,243.14a7.31,7.31,0,0,1-.27,2.14l-.17.53-.31.63a4.27,4.27,0,0,1-.82,1.17,2.37,2.37,0,0,1-1.69.86c-1.18,0-2-1.17-2.46-2.21a13.29,13.29,0,0,1-.71-2.33c-.15-.67-.33-1.33-.49-2a5,5,0,0,1-.23-2.7c.1-.32.71-.17,1.3.06s1.18.51,1.24.92c.2,1.49.48,3.1.76,4.61.12.5.12.54.24.71a.37.37,0,0,0,.44.14.92.92,0,0,0,.43-.46,2.26,2.26,0,0,0,.22-.54,5.4,5.4,0,0,0,.13-.7,8.48,8.48,0,0,0-.09-1.93c-.17-1-.41-2.08-.66-3.17a11.8,11.8,0,0,1-.47-2.69,2.43,2.43,0,0,1,0-.66,1.11,1.11,0,0,1,.37-.8.84.84,0,0,1,.72-.09,3.29,3.29,0,0,1,.43.09,1.09,1.09,0,0,1,.75,1c.06.6.15,1.14.27,1.76s.29,1.3.47,2a21.27,21.27,0,0,1,.64,3.67Z"/><path class="cls-1" d="M251.57,324.63a41.73,41.73,0,0,1-12.49-6.89A68.79,68.79,0,0,1,229,307.91c-2.17-2.63-4.31-5.27-6.21-8.08-6.77-9.86-12-20.56-17.13-31.22-1-2-2-4.07-3-6.06-.51-1-1-2-1.59-2.94l-.41-.71c0-.09-.22-.32-.33-.48l-.37-.53c-.48-.7-1-1.38-1.6-2.07,1-.37,2.14-.67,3.19-1.06l.69-.27c.19-.08.38-.14.56-.23l1.09-.52c.71-.38,1.42-.76,2.1-1.2a41.81,41.81,0,0,0,4-2.85c2.57-2.05,5-4.35,7.81-6.33,1.78-1.2,1.9-.43.91,1.13a29.78,29.78,0,0,1-5.94,6.71,43,43,0,0,1-5.69,4.07,32.9,32.9,0,0,1-3.19,1.62l-.85.33-.09,0h0s0,0,0,.06l.56,1c.59,1.05,1.12,2.08,1.64,3.12,1,2.08,2,4.16,3,6.25,2,4.16,3.92,8.31,6,12.43a141.58,141.58,0,0,0,13.06,21.31,82.47,82.47,0,0,0,8.95,10.34A48.35,48.35,0,0,0,247,319.84a31.47,31.47,0,0,0,16,3.77c1-.1,2.09-.17,3.13-.29a14.65,14.65,0,0,0,2.92-.83,29.36,29.36,0,0,0,5.52-3,68.76,68.76,0,0,0,9.7-8.26,135.27,135.27,0,0,0,12.63-15c.85-1.16,1.65-2.32,2.49-3.5,3.08-4.4,4-5.76,5.17-6.42.28-.15.55-.4.77-.48s.45.38.13,1.38a20.15,20.15,0,0,1-2.06,4.14A126.43,126.43,0,0,1,292.56,306a102.09,102.09,0,0,1-13.38,13.32,46.46,46.46,0,0,1-6,4.09,19.9,19.9,0,0,1-7.13,2.6,32.37,32.37,0,0,1-14.53-1.31Z"/><path class="cls-1" d="M299.1,331.09l2.13-11c.26-1.34.45-2.69.73-4,1-4.71,2-9.41,3.07-14.1.45-2.08.88-4.19,1.27-6.27.27-1.33.5-2.68.79-4a30,30,0,0,1,1.17-3.93c.32-.8.83-.55,1.26.29a6.1,6.1,0,0,1,.49,3.8c-1.12,5.4-2.37,10.77-3.76,16.19-.84,3.23-1.35,6.67-2,10l-2.12,11.07q-.63,3.42-1.25,6.83c-.61,3.45-1.26,6.92-1.79,10.36-.41,2.67-.66,5.32-1,8-.08.58-.12,1.16-.21,1.75-.33,2.18-.63,2.84-1.41,3.18a2.6,2.6,0,0,1-.53.22c-.58.12-.88-.85-.76-2.46.34-4.78,1.09-9.76,1.9-14.76.61-3.7,1.28-7.42,1.93-11.13Z"/><path class="cls-1" d="M376.55,338.7l-.65,4.06c-.07.49-.06,1-.14,1.48-.29,1.74-.63,3.47-.89,5.21a18.28,18.28,0,0,0-.18,2.33,8.23,8.23,0,0,1-.29,3c-.24.61-2.84-.36-2.79-1.5a28.63,28.63,0,0,1,.94-6,27,27,0,0,0,.46-3.72l.56-4.09.34-2.51c.15-1.28.34-2.55.41-3.82a29.11,29.11,0,0,0-.13-2.95c0-.21-.05-.43,0-.64,0-.81.23-1.05,1-1.17l.54-.08a1.13,1.13,0,0,1,1.21.93,18.73,18.73,0,0,1,.16,5.45c-.12,1.37-.31,2.74-.47,4.11Z"/><path class="cls-1" d="M384.6,427.89c-2.09-4.45-5.32-62.63-11.21-74-49.32,12.21-70.88,10.17-77.37,4.47-3.85,21-6.5,66.53-6,74.53C297.86,432.89,370.23,427.94,384.6,427.89Z"/><path class="cls-1" d="M289.63,401.72c.63-8.23,1.37-16.45,2.3-24.67.48-4.1,1-8.21,1.59-12.31.16-1,.29-2.05.48-3.07l.83-4.82.11-.68,0-.17s.09.05.13.07l.27.18,1.11.76,1.12.76.61.43c.2.12.41.22.62.33a17,17,0,0,0,2.63,1.14,38.71,38.71,0,0,0,8.53,1.56c1.46.12,2.94.16,4.41.23h4.44c5.23-.12,10.47-.61,15.7-1.21,2.61-.36,5.22-.69,7.82-1.11s5.22-.81,7.81-1.33c5.19-.94,10.36-2,15.52-3.17l3.86-.9,1.93-.44,1.41-.33.75-.17c.11,0,.27-.1.35,0l.16.36a26.9,26.9,0,0,1,1.67,4.48c.37,1.3.68,2.6,1,3.91,2,9.29,3.06,18.69,4.19,28q1.06,8.94,2,17.9c.66,6,1.17,12,1.94,17.82a17.59,17.59,0,0,1,.23,1.93c0,.34,0,.55-.15.59s-.35-.11-.63-.48a9,9,0,0,1-.86-1.72c-1.21-3.05-2.49-8.8-3.22-15.67-1.29-12.17-2.46-24.34-4.16-36.41-.44-3-.9-6-1.47-9-.29-1.49-.59-3-.95-4.42-.18-.72-.35-1.45-.57-2.15-.11-.35-.2-.71-.32-1.05l-.31-.88c0-.09,0-.22-.17-.16h-.06l-.49.11-1.13.26-4.52,1c-3,.67-6,1.25-9.08,1.88-7.28,1.37-14.71,2.71-22.26,3.7a127.8,127.8,0,0,1-22.9,1.22,40.53,40.53,0,0,1-12.57-2.35,9.33,9.33,0,0,1-1.51-.7l-.35-.19a1.2,1.2,0,0,1-.24-.15l-.23-.18-.11-.08c0-.06,0,.06,0,.09l-.1.56-.16.94c-.09.51-.18,1-.25,1.53l-.46,3.06c-1.17,8.19-2,16.44-2.75,24.69-.9,10.17-1.63,20.36-2.09,30.54-.09,1.93-.16,3.85-.21,5.78,0,1,0,1.92-.05,2.88v1.45c0,.06,0,.16,0,.18h1.11l1.31-.05,2.9-.13,5.79-.29c7.73-.4,15.44-.86,23.1-1.33l35.37-2.4,7.75-.5c9.71-.52,12.82-.44,14.93.24a12.27,12.27,0,0,1,1.38.46c.93.55-3,1-10.07,1.51-21,1.47-43.22,3-65.52,4.28l-12.46.68c-2.27.1-3.41.18-8,.27-.34.12-.21-.29-.24-.51l0-.76,0-1.53v-2.05q0-1.59.06-3.15c.25-8.37.79-16.69,1.38-25Z"/><path class="cls-1" d="M339.64,265.19a4.12,4.12,0,0,1-3.3-.08,4.27,4.27,0,0,1-2.06-2.44,5.16,5.16,0,0,1-.36-2.14,3.8,3.8,0,0,1,.7-2,3,3,0,0,1,1.82-1.18,2.91,2.91,0,0,1,2.12.35,3.3,3.3,0,0,1,1.29,1.51,3,3,0,0,1,.22,1.82,1.9,1.9,0,0,1-.54,1,1.35,1.35,0,0,1-.45.31,1.38,1.38,0,0,1-.48.19,2,2,0,0,1-1.4-.1,2.47,2.47,0,0,1-1-.85,2.27,2.27,0,0,1-.39-1.27,1.52,1.52,0,0,1,.56-1.19c.49-.35.76.25.95.61a1.24,1.24,0,0,0,.49.5.28.28,0,0,0,.23,0c.06,0,.1,0,.11,0l.09.1a1.07,1.07,0,0,0-.16.32.31.31,0,0,0,0,.11v0h0c0,.45-.05-.61,0-.5h.07s0,.05,0,.08a.86.86,0,0,0,.13.23s.05.05,0,0l-.1-.05s-.12-.05-.17-.05,0,0,0,0a1.28,1.28,0,0,0-.74-1.21l-.24,0c-.08,0-.19,0-.28.07a1,1,0,0,0-.43.34,2.22,2.22,0,0,0-.25,1.39,3.22,3.22,0,0,0,.64,1.67,1.76,1.76,0,0,0,.59.48,2.24,2.24,0,0,0,.81.15,2.93,2.93,0,0,0,2-1,4.15,4.15,0,0,0,.93-1.63,2.67,2.67,0,0,0-.09-1.77,2.85,2.85,0,0,0-2.17-1.48c-.2,0-.4,0-.6-.06-.75-.07-1-.12-1.24-.68-.05-.12-.13-.25-.18-.37-.17-.41.18-.88,1-1a5.13,5.13,0,0,1,3.71,1,4.64,4.64,0,0,1,1.39,1.75,4.49,4.49,0,0,1,.36,2.24,5.6,5.6,0,0,1-1.11,2.91,5.83,5.83,0,0,1-2.43,2Z"/><path class="cls-1" d="M335.72,277.23a4.15,4.15,0,0,1-3.31-.08,4.27,4.27,0,0,1-2.06-2.44,5.16,5.16,0,0,1-.36-2.14,3.8,3.8,0,0,1,.7-2,3,3,0,0,1,1.82-1.18,2.9,2.9,0,0,1,2.12.35,3.24,3.24,0,0,1,1.29,1.51,3,3,0,0,1,.22,1.82,1.83,1.83,0,0,1-.54,1,1.55,1.55,0,0,1-.45.32,1.62,1.62,0,0,1-.47.18,2,2,0,0,1-1.4-.1,2.43,2.43,0,0,1-1-.85,2.27,2.27,0,0,1-.39-1.27,1.53,1.53,0,0,1,.57-1.19c.48-.35.76.25.94.61a1.24,1.24,0,0,0,.49.5.31.31,0,0,0,.24,0c.06,0,.09,0,.11,0a.55.55,0,0,0,.08.1,1.37,1.37,0,0,0-.16.32s0,.11,0,.11v0h0c0,.45,0-.61,0-.5h.07s0,.05,0,.08a1,1,0,0,0,.13.23h0l-.1-.05s-.12,0-.18,0,0,0,0,0a1,1,0,0,0-.17-.68,1.09,1.09,0,0,0-.56-.53l-.24,0a2.29,2.29,0,0,0-.28.07.86.86,0,0,0-.43.34,2.16,2.16,0,0,0-.26,1.39,3.22,3.22,0,0,0,.64,1.67,1.87,1.87,0,0,0,.59.48,2.49,2.49,0,0,0,.82.16,3,3,0,0,0,2-1,4.15,4.15,0,0,0,.93-1.63A2.8,2.8,0,0,0,337,271a2.87,2.87,0,0,0-2.18-1.48c-.2,0-.4,0-.6-.06-.74-.06-1-.12-1.23-.68-.06-.12-.14-.24-.19-.37-.17-.4.18-.88,1-1a5.17,5.17,0,0,1,3.72,1,4.72,4.72,0,0,1,1.38,1.75,4.49,4.49,0,0,1,.36,2.24,5.65,5.65,0,0,1-1.1,2.92,5.86,5.86,0,0,1-2.44,1.95Z"/><path class="cls-1" d="M119.47,187.59c.19.93,2.06,37.83,2.06,37.83l29.78-16.85Z"/><path class="cls-1" d="M148,212.35l-14.79,8.06-5.35,3-7.5,4.09-.59-17.16c-.12-3.2-.31-6.41-.53-9.58-.28-4.07-.68-8.16-.66-12.22a1.3,1.3,0,0,1,.12-.64.73.73,0,0,1,.14-.16l.09-.05h0l.2,0h0c-.16,0-.09,0-.08,0h0l.11,0a1.2,1.2,0,0,1,.25.13,2.64,2.64,0,0,1,.54.59,10.76,10.76,0,0,1,1.66,5.33c.51,8.33.82,16.65.89,25.06,0,1.49.06,3,.09,4.52l6-3.34,14.87-8.16,6.07-3.32-.84-.58-6.18-4.16c-2.19-1.46-4.38-2.92-6.57-4.34-3.41-2.22-6.84-4.25-10.26-6.37l-2.26-1.38c-2.78-1.78-3.56-2.51-3.76-3.49a3,3,0,0,1-.13-.67c0-.63,1.42-.27,3.53.93,6.26,3.55,12.62,7.66,19,11.84l12.62,8.4-6.65,3.72Z"/><path class="cls-1" d="M83.73,219.78l-.62-32.27a22.4,22.4,0,0,1,.59-6.22,12.45,12.45,0,0,1,3.09-5.75,12.32,12.32,0,0,1,4.93-3,19.65,19.65,0,0,1,5.47-.88c3.53-.09,7,0,10.46.14,6.93.25,13.84.64,20.75,1l18.38.95c7.81.38,15.67.66,23.45,1.39,4.86.45-1.46,2.68-10.46,2.18-16-.87-31.88-1.93-47.93-2.87-4.79-.26-9.73-.45-14.57-.3a14.38,14.38,0,0,0-6.57,1.63,9.11,9.11,0,0,0-4.09,4.93,15.14,15.14,0,0,0-.82,3.65,29.7,29.7,0,0,0-.08,3.91l.17,8.13.34,16.26.21,10,0,2.5,0,1.25v.32c0,.1,0,.14,0,.25a5.52,5.52,0,0,0,.07.55,11.14,11.14,0,0,0,1.71,4.25,13.22,13.22,0,0,0,5.41,4.47l.81.39.86.3a13.45,13.45,0,0,0,1.74.54l1.79.42,1.83.25c2.45.3,5,.41,7.49.55s5,.23,7.52.3c7.78.23,15.42.16,23.09-.07l5-.21c3.15-.15,5.21-.25,6.66-.26a9.13,9.13,0,0,1,3,.38,6.14,6.14,0,0,1,1,.35c.72.43-1.84,1.39-6.52,1.83-6.93.65-14,.78-21.23.78s-14.49-.22-21.82-.65c-1.37-.09-2.72-.16-4.13-.33l-2.13-.28c-.71-.12-1.42-.31-2.13-.47a19.44,19.44,0,0,1-8-4A14.11,14.11,0,0,1,84,228.21c-.06-.41-.12-.77-.15-1.27l0-1,0-2-.1-4.07Z"/><path class="cls-1" d="M177.22,192.7c.12-1.09.22-2.19.25-3.26,0-.4-.05-.79,0-1.18a16.89,16.89,0,0,0-.28-4,4.68,4.68,0,0,0-.69-1.56,14,14,0,0,1-1.29-1.67c-.09-.22.36-.74,1-1.09s1.45-.49,1.82,0a7.81,7.81,0,0,1,1.49,2.64,8.89,8.89,0,0,1,.4,2.81c0,1.1.2,2.16.22,3.23s-.07,2.31-.15,3.45l-.18,2.1c-.07,1-.21,2.11-.22,3.15a22.11,22.11,0,0,0,.2,2.43,4.52,4.52,0,0,1,.06.53c0,.66-.19.86-.91,1-.16,0-.32,0-.49.06a1,1,0,0,1-1.12-.76,14.44,14.44,0,0,1-.32-4.45c.08-1.11.15-2.22.22-3.33Z"/><path class="cls-1" d="M98.26,261.37c-4.92-.3-9.84-.63-14.76-1.06-1.23-.09-2.46-.23-3.69-.35L78,259.78c-.61-.06-1.3-.2-1.94-.3a20.18,20.18,0,0,1-7.29-3,24.07,24.07,0,0,1-7.61-8.36,32.33,32.33,0,0,1-3.39-9.24,46.94,46.94,0,0,1-.83-9.67c-.08-6.34-.07-12.66-.08-19,0-5.62-.07-11.26-.14-16.83-.09-7.15-.31-14.33,0-21.48.17-4.46,2.75,1.19,2.8,9.43.1,14.6,0,29.2-.07,43.91,0,2.2,0,4.42,0,6.64a34.34,34.34,0,0,0,.77,6.47c.19,1.07.55,2.1.84,3.15a31.87,31.87,0,0,0,1.21,3,28,28,0,0,0,1.49,2.88A28.83,28.83,0,0,0,65.59,250a20.55,20.55,0,0,0,5.18,4.67,16.48,16.48,0,0,0,6.5,2.35c1.14.2,2.43.27,3.64.4s2.45.24,3.69.33q3.69.31,7.39.55c6.07.4,12.16.74,18.24,1,9.22.37,18.49.65,27.65.68,7.11,0,14.09-.18,21.11-.49l4.61-.24c5.77-.28,7.58-.3,8.89.31a5.31,5.31,0,0,1,.86.42c.31.25-.12.53-1.16.82a26.52,26.52,0,0,1-4.82.77c-12.62,1.12-25.94,1.12-39.29.92q-14.88-.25-29.81-1.07Z"/><path class="cls-1" d="M169.36,163.65q-13.87-.87-27.81-1.23c-3.39-.1-6.77-.07-10.16-.16-11.94-.25-23.88-.38-35.82-.24-5.3,0-10.62.26-15.87.5-3.36.21-6.75.38-10.11.65l-10.08.7c-2.09.11-1.91-.6-.2-1.44a25,25,0,0,1,8.86-2.09c13.85-1,27.67-1.14,41.61-.89,8.34.18,17,.06,25.54.25,9.37.18,18.74.49,28.11,1q8.65.42,17.29,1.19c1.09.09,2.19.24,3.28.36s2.18.21,3.28.43,2.2.37,3.3.63a17.92,17.92,0,0,1,3.22,1.15,15.81,15.81,0,0,1,5.42,4.17,18.37,18.37,0,0,1,1.92,2.81c.28.5.53,1,.76,1.52a12.22,12.22,0,0,1,.55,1.68,63.45,63.45,0,0,1,1,10.15c.12,3.34.14,6.67.12,10,0,1.47,0,2.91,0,4.39-.14,5.48-.38,7.2-1.11,8.36a5.15,5.15,0,0,1-.5.77c-.55.54-1-1.75-1-5.76,0-5.95,0-12.06-.15-18.18a57.19,57.19,0,0,0-.8-9,4.64,4.64,0,0,0-.25-.9,5,5,0,0,0-.37-.92,16.62,16.62,0,0,0-1-1.85,13.63,13.63,0,0,0-8.28-5.85c-1.05-.25-2.19-.4-3.28-.61s-2.28-.28-3.42-.43c-4.59-.53-9.27-.84-13.93-1.12Z"/><path class="cls-1" d="M434.05,416.87c.89-.31,1.79-.59,2.69-.88.32-.1.63-.27,1-.36,1.17-.32,2.37-.55,3.57-.77.53-.11,1.06-.26,1.59-.42a3.45,3.45,0,0,1,2.16-.22c.24.07.18.76,0,1.44s-.36,1.34-.67,1.39a34,34,0,0,1-3.74.47,9.34,9.34,0,0,0-2.34.68c-.86.28-1.73.55-2.58.86-.53.18-1.06.38-1.58.59a18.46,18.46,0,0,0-2.3,1.06,10.09,10.09,0,0,0-1.52,1.23c-.11.09-.19.2-.31.29-.41.3-.62.24-1.12-.29-.11-.12-.23-.23-.34-.36a1,1,0,0,1-.15-1.29,8.26,8.26,0,0,1,3-2.33c.84-.44,1.73-.79,2.6-1.15Z"/><path class="cls-1" d="M391.07,431.13l-62.9,2.37-22.94.94-80.87,2.94c-12,.45-24,1-35.85,1.49-15.26.66-30.52,1.49-45.82,1.73-5,0-4.05-.67-.11-1.44a142.15,142.15,0,0,1,20.14-2.09c31.14-1.27,62.26-2.44,93.66-3.37,18.78-.56,38.31-1.49,57.52-2.23L377.26,429l39-1.53,44.53-1.82a4.36,4.36,0,0,1,1.19.12,1.48,1.48,0,0,1,.92.62,2.5,2.5,0,0,1,0,2.29,3.81,3.81,0,0,1-1.67,1.86,3.88,3.88,0,0,1-.56.26l-.44.17-.89.33A37.07,37.07,0,0,1,452,433c-3.81.52-7.59.79-11.37,1l-5.64.32-1.36.07a.49.49,0,0,0-.33.11,2.32,2.32,0,0,0-.46.31c-.66.5-.83.91-.67,1.37a1.51,1.51,0,0,0,.2.34l.37.4.54.4.13.11.24.13.49.27c.31.17.69.36.94.53l.64.51c.2.17.46.35.61.5a1.24,1.24,0,0,1,.31.54.87.87,0,0,1-.23.72,2.75,2.75,0,0,1-.53.49,5.43,5.43,0,0,1-1.62.74c-.65.19-1.4.35-2,.48l-1.47.26c-3.75.62-7.48,1-11.23,1.42l-9.83,1c-3.07.31-5.61.57-7.71.84a20.09,20.09,0,0,0-2.64.46l-.08,0h0a.35.35,0,0,0-.05-.11l-.09-.18a2,2,0,0,0-.25-.33.31.31,0,0,0-.14-.16c-.11,0,0,0-.07,0s.05,0,.1-.06a.18.18,0,0,0,.05-.07v0l.51-.6h0l0,0,.06.06.18.12a5.67,5.67,0,0,0,.85.44,27.39,27.39,0,0,0,3.12,1.1c.87.27,1.58.5,2.21.72s1.37.4,1.73.56c.59.26-.37.6-2.7.57a17.82,17.82,0,0,1-4.45-.66,11.9,11.9,0,0,1-1.41-.49,7.4,7.4,0,0,1-.78-.41l-.22-.15-.1-.08a.21.21,0,0,1-.08-.06,1.79,1.79,0,0,1-.22-.25,2.69,2.69,0,0,1-.16-.29,1.34,1.34,0,0,1-.07-.52,1.27,1.27,0,0,1,.12-.51,1.32,1.32,0,0,1,.16-.25l.19-.21.12-.09.21-.14a5.34,5.34,0,0,1,1-.37c.29-.08.56-.14.84-.2.55-.12,1.11-.21,1.68-.31,6.26-.92,12.53-1.46,18.87-2.18,3.15-.36,6.33-.72,9.45-1.22l1.16-.19a3.44,3.44,0,0,0,.57-.12l.18-.06s.06,0,0-.07l-.09-.05-.09,0,0,0h0l-.05,0-.26-.2c-.18-.15-.33-.25-.52-.43s-.4-.43-.59-.65a6,6,0,0,1-.55-.93,4.31,4.31,0,0,1-.27-1.14,3.62,3.62,0,0,1,.66-2.22,5.32,5.32,0,0,1,1.29-1.27c.11-.09.22-.15.33-.23l.43-.25c.17-.1.35-.17.53-.26a1.89,1.89,0,0,1,.58-.08l1.37-.07,2.44-.12c3.24-.17,6.5-.37,9.73-.66a63.94,63.94,0,0,0,9.46-1.4c.75-.18,1.48-.41,2.21-.66l1.1-.41.22-.09h0l-5.23.24-63.46,2.6Z"/><path class="cls-1" d="M340.77,142.34c-3-.23-4.81,3.42-1.88,4.18C342.11,147.34,343,141.6,340.77,142.34Z"/><path class="cls-1" d="M340.91,147.44a3.31,3.31,0,0,1-1.63.21,4,4,0,0,1-1.41-.48c-.16-.11-.33-.19-.49-.31a3.05,3.05,0,0,1-.43-.45,2.32,2.32,0,0,1-.3-2.08,3.21,3.21,0,0,1,1-1.48,5.89,5.89,0,0,1,1.22-.84,2.3,2.3,0,0,1,1.82-.28c.2.06.11.5,0,.93s-.32.84-.49.91a3.54,3.54,0,0,0-1.71,1,.59.59,0,0,0-.16.46.72.72,0,0,0,.21.35c0,.08.16.13.24.2l.35.17.37.1c.12,0,.23,0,.35,0a1.55,1.55,0,0,0,.83-.41,2.43,2.43,0,0,0,.75-1.47c.07-.42-.16-.9-.3-.92s.06,0,.07-.09,0,.11,0,.13l0,0-.2-.47-.15-.31c-.17-.33-.09-.76.55-.87a1.47,1.47,0,0,1,.79.17,2.41,2.41,0,0,1,.36.23,2.09,2.09,0,0,1,.24.28,2.37,2.37,0,0,1,.21.3l.12.28a2,2,0,0,1,.15.56,4,4,0,0,1-.21,2,4,4,0,0,1-2,2.29Z"/><path class="cls-1" d="M359.72,146c-3-.24-4.81,3.42-1.88,4.17C361.05,151,361.9,145.22,359.72,146Z"/><path class="cls-1" d="M359.85,151.07a3.15,3.15,0,0,1-1.62.2,3.81,3.81,0,0,1-1.41-.48c-.16-.1-.33-.19-.49-.31a3,3,0,0,1-.44-.44,2.41,2.41,0,0,1-.3-2.09,3.41,3.41,0,0,1,1-1.48,5.78,5.78,0,0,1,1.21-.83,2.32,2.32,0,0,1,1.83-.29c.19.06.11.5,0,.94s-.32.84-.49.9a3.52,3.52,0,0,0-1.71,1,.56.56,0,0,0-.16.46.71.71,0,0,0,.21.36c0,.08.16.12.23.2l.36.17.36.09c.12,0,.24,0,.36,0a1.42,1.42,0,0,0,.83-.41,2.54,2.54,0,0,0,.75-1.46c.06-.42-.16-.91-.3-.92s.05,0,.07-.1a.32.32,0,0,0,0,.14s0,0,0,0l-.2-.47-.15-.32c-.18-.33-.09-.76.55-.86a1.45,1.45,0,0,1,.78.16,2.92,2.92,0,0,1,.37.24,2,2,0,0,1,.24.27c.07.1.15.21.21.31l.12.28a2.13,2.13,0,0,1,.15.56,3.82,3.82,0,0,1-.22,2,3.93,3.93,0,0,1-2,2.29Z"/><path class="cls-1" d="M336.57,140.35c1.71-.16,2-.25,2.13-.14a5.37,5.37,0,0,0,1.23.72,4.23,4.23,0,0,0,1.27.51,3.76,3.76,0,0,0,1.25,0,5.11,5.11,0,0,0,1.23-.42,2.74,2.74,0,0,0,.69-.38,3.2,3.2,0,0,0,.53-.57s0-.11.1-.08a3.4,3.4,0,0,1,1,1.09,1.81,1.81,0,0,1,.17.3c-.17.18.26,1.07,0,1.24-.48.26-.8.79-1.3,1.12a1.49,1.49,0,0,1-.65.26,5.68,5.68,0,0,1-.92,0,13.09,13.09,0,0,1-1.52.15,6.94,6.94,0,0,1-2.59-.45,5.39,5.39,0,0,1-2.17-1.5,4,4,0,0,1-.54-.78,1.38,1.38,0,0,1-.17-.38A1.76,1.76,0,0,1,336.57,140.35Z"/><path class="cls-1" d="M353.11,142.55c1.33-.27,1.79-.24,2-.05a8.93,8.93,0,0,1,1,.83,9.48,9.48,0,0,0,1,.7,6.49,6.49,0,0,0,1.87,1,5.85,5.85,0,0,0,1.87.13,7.69,7.69,0,0,0,1.87-.39,6.81,6.81,0,0,0,1.07-.47,4.83,4.83,0,0,0,.89-.69c.05,0,.07-.12.16-.1a2.43,2.43,0,0,1,.93,1.18c.05.12.14.31.11.33-.26.21,0,1.19-.34,1.37a4.61,4.61,0,0,0-.93.6c-.32.2-.64.43-1,.61a3.4,3.4,0,0,1-.88.25,11.81,11.81,0,0,1-1.19,0,18.83,18.83,0,0,1-2,0,9.1,9.1,0,0,1-3.29-1,8.33,8.33,0,0,1-2.55-2.1,4.12,4.12,0,0,1-.71-1.38A2.94,2.94,0,0,1,353.11,142.55Z"/><path class="cls-1" d="M344.9,147.06a6.19,6.19,0,0,1,.47,1.79,1.4,1.4,0,0,1-.29,1c-1.18,1.7-2.31,3.53-3.45,5.32-1,1.55-2.08,3-3,4.62-.4.67-.78,1.36-1.15,2.05-.17.34-.36.68-.51,1s-.33.72-.41.92a.14.14,0,0,0,0,.14c.06.05,0,0,.26.18a5.91,5.91,0,0,0,1.78.58,8,8,0,0,0,2.45.06,7.07,7.07,0,0,0,2.17-.69c.11-.06.19-.17.32-.16a1.35,1.35,0,0,1,.84,1.26c0,.14,0,.36,0,.39-.6.35-.88,1.45-1.73,1.64a16,16,0,0,1-4.65.41,6.1,6.1,0,0,1-1.91-.56,4.69,4.69,0,0,1-1.19-.8c-.11-.11-.25-.23-.36-.35a3.24,3.24,0,0,1-.28-.4,2.71,2.71,0,0,1-.39-.87,4,4,0,0,1-.05-.92,5.23,5.23,0,0,1,.37-1.19c.28-.66.66-1.37,1.09-2.18.88-1.61,2-3.54,3.18-5.39s2.38-3.63,3.36-4.95a23.11,23.11,0,0,1,1.85-2.26A4.39,4.39,0,0,1,344.9,147.06Z"/><path class="cls-1" d="M335.24,180.06c1.65-.43,2-.52,2.11-.41a3.65,3.65,0,0,0,1.35.57,4.8,4.8,0,0,0,1.42.23,4.25,4.25,0,0,0,1.3-.35,4.55,4.55,0,0,0,1.15-.72c.18-.19.43-.33.56-.56s.13-.22.19-.33l.12-.36s0-.11.06-.11a3.64,3.64,0,0,1,1.35.66c.1.08.27.2.26.23-.1.23.61,1,.38,1.22a4.12,4.12,0,0,0-.51.77,7,7,0,0,1-.54.8,2.67,2.67,0,0,1-.61.45c-.3.14-.65.18-.94.29s-.76.32-1.53.51a7.16,7.16,0,0,1-2.77.13,5,5,0,0,1-2.59-1.19,3.55,3.55,0,0,1-.88-1.11A1.62,1.62,0,0,1,335.24,180.06Z"/><path class="cls-1" d="M354.07,133.69c5.87-2.41,12.51-.27,17.17,3.56,1.07.88,4.18-.68,2.72-1.88a21.24,21.24,0,0,0-21.36-3.49c-2.22.91-.24,2.52,1.47,1.81Z"/><path class="cls-1" d="M348.85,131.54c-3-3.8-9.1-2.72-12.88-1.15-.49.2-1.72.69-1.25,1.39s2.37,0,2.82-.16c2.49-1,5.46-.8,7.23,1.46.71.92,4.87-.53,4.08-1.54Z"/></g></svg>