<svg id="Layer_1" data-name="Layer 1" xmlns="http://www.w3.org/2000/svg" width="520" height="520" viewBox="0 0 520 520"><defs><style>.cls-1{fill:#221f1f;}.cls-2{fill:#232020;}</style></defs><title>Notioly v2</title><g id="_61.Listening_to_music" data-name="61.Listening to music"><path class="cls-1" d="M377,267c5.36,2.31,11.78,2.09,17.26.45,1.75-.52,1.28-2.41-.5-1.87a22.41,22.41,0,0,1-15.07-.46c-1.15-.5-3.36,1.16-1.69,1.88Z"/><path class="cls-1" d="M279.68,108.19c3.33,4.44,8.39,6.71,13.54,8.39.8.26,2.86-.91,2.74-1-5-1.64-10.11-3.85-13.38-8.2-.49-.66-3.06.55-2.9.77Z"/><path class="cls-1" d="M138.62,424.45A13.34,13.34,0,1,0,152,437.79,13.34,13.34,0,0,0,138.62,424.45Zm-4.64,20a2.2,2.2,0,0,1-1.48.09c-.14,0-1.35-.67-1.32-1,.06-.61-.28-10.85,0-11.95,0-.16.24-.31.44-.55,1.66.25,2,.54,2,.84a19.73,19.73,0,0,1,.33,3c0,.84-.06,1.69-.12,2.54C133.75,438.63,134.05,444.36,134,444.42Zm12.46-.1c-.1.08-.27.23-.32.2-.48-.29-1.39.27-1.86-.07-.87-.64-4.82-3-5.25-3.34-.14-.11-2.89-2-4.57-3.07,1.68-1.17,4.5-3.16,6.93-4.87,1.91-1.34,3.5-2.47,3.62-2.53a4,4,0,0,1,1-.19c.58,1.61.35,2.18,0,2.52-1.31,1.13-2.64,2.21-4,3.22-.6.43-2.78,1.78-2.78,1.78l3.86,2.53c.63.4,4,2.38,4.07,2.48C147.29,443.31,146.93,444,146.44,444.32Z"/><path class="cls-2" d="M139.16,424.94a12.9,12.9,0,1,1-1.23,0c.9,0,.94-1-.05-.94a13.73,13.73,0,1,0,1.32,0C138.41,424,138.45,424.91,139.16,424.94Z"/><path class="cls-2" d="M134.46,444.22c0-2.48-.24-4.94-.12-7.33l.09-1.88a13.19,13.19,0,0,0-.12-1.88c0-.31-.08-.62-.13-.93l-.09-.49a1,1,0,0,0-.49-.63,3.33,3.33,0,0,0-1-.37c-.35-.08-.51-.11-1.2-.22l-.4.46a1,1,0,0,0-.15.18.78.78,0,0,0-.15.32,11.58,11.58,0,0,0-.1,1.59v1.49l0,3c0,2,.09,3.95.09,5.95a.93.93,0,0,0,.35.7,2.86,2.86,0,0,0,.41.32c.13.09.27.17.41.25a2.54,2.54,0,0,0,.51.23,3.31,3.31,0,0,0,1.47,0,.33.33,0,0,0,.12-.57c-.2-.14-.26-.37-.35-.34a2.66,2.66,0,0,1-1,0l-.28-.14-.35-.21a2.45,2.45,0,0,1-.29-.23l0,0c0-2-.06-4-.09-5.93l0-3v-1.48a13.57,13.57,0,0,1,.07-1.37c-.09.09.25-.28.16-.18l.61.13a2.82,2.82,0,0,1,.73.25l.07.05.07.42.13.89a13.44,13.44,0,0,1,.11,1.79l-.09,1.8c-.12,2.51.09,5,.12,7.39C133.55,444.18,134.41,444.8,134.46,444.22Z"/><path class="cls-2" d="M147,444.43a2.6,2.6,0,0,0,.47-.7c.11-.19.27-.87-.11-1.12a2.41,2.41,0,0,0-.38-.28l-.29-.18-.59-.35-2.33-1.4c-.75-.45-1.51-1-2.27-1.47l-1.46-1,1.9-1.22c.76-.52,1.44-1.13,2.16-1.69l2.14-1.71a1.62,1.62,0,0,0,.52-.79,2.48,2.48,0,0,0,0-.85,5.7,5.7,0,0,0-.14-.74c0-.14-.06-.18-.12-.4l-.22-.64-.81.11a3.42,3.42,0,0,0-.48.08,1.42,1.42,0,0,0-.29.1l-.18.13-.36.25-1.43,1-2.84,2-6,4.21-.35.24a2.22,2.22,0,0,0,.32.24l.71.48.75.51,1.42.95,1.41,1,.74.5.73.47,2.91,1.81c.5.32.92.59,1.45.95a1.7,1.7,0,0,0,1.15.09c.31-.05.52-.12.69,0a.43.43,0,0,0,.19,0,.45.45,0,0,0,.46-.34.49.49,0,0,0-.12-.32.58.58,0,0,0-.27-.2.18.18,0,0,1-.09-.11,2.35,2.35,0,0,0-1,0,1,1,0,0,1-.53,0c-.41-.28-.95-.63-1.42-.93l-2.91-1.81-.71-.46-.68-.46-1.44-1L135.27,438l5.24-3.68,2.78-2,1.38-1,.34-.25.17-.12.12,0,.36-.06h.05l.08.25a3.25,3.25,0,0,1,.12.59,1.59,1.59,0,0,1,0,.5.61.61,0,0,1-.23.33l-2.1,1.69c-.71.55-1.38,1.15-2.13,1.65l-2.67,1.72-.29.18s-.12.07-.1.1l.14.09.57.37.81.53,1.14.75c.76.49,1.49,1,2.29,1.48l2.34,1.4,1,.64,0,.11a1.32,1.32,0,0,1-.29.42C146.14,444,146.58,444.83,147,444.43Z"/><path class="cls-1" d="M366.64,437.79A13.34,13.34,0,1,0,380,424.45,13.33,13.33,0,0,0,366.64,437.79Zm18.11,3.9c.13-1.4-.15-6.06-.12-6.9a19.73,19.73,0,0,1,.33-3c.05-.3.39-.59,2.05-.84.2.24.39.39.43.55s-.08,7.52.06,8.39c0,.31-.14,2.95-.08,3.56,0,.34-1.19,1-1.32,1a2.19,2.19,0,0,1-1.48-.09A26.84,26.84,0,0,1,384.75,441.69ZM371.46,443c.05-.1,3.44-2.08,4.06-2.48l3.86-2.53s-2.17-1.35-2.77-1.78c-1.39-1-2.72-2.09-4-3.22-.38-.34-.61-.91,0-2.52a4.13,4.13,0,0,1,1.05.19c.12.06,1.71,1.19,3.61,2.53l6.93,4.87c-1.67,1.1-3,1.69-3.68,2.44-.49.57-5.26,3.33-6.13,4-.47.34-1.23-.19-1.86.07C372.25,444.57,371.31,443.31,371.46,443Z"/><path class="cls-2" d="M367.13,437.25a12.93,12.93,0,1,1,0,1.23c0-.9-1-1-.94,0a13.77,13.77,0,1,0,0-1.32C366.15,438,367.1,438,367.13,437.25Z"/><path class="cls-2" d="M384.27,441.86l-.09,1.29,0,.66v.39a1.45,1.45,0,0,0,0,.3l.05.13s0,0,0,.07l0,.06a1.15,1.15,0,0,0,.63.26,3.27,3.27,0,0,0,1.28,0,2.15,2.15,0,0,0,.52-.24,3.45,3.45,0,0,0,.41-.25,2.34,2.34,0,0,0,.42-.32,1,1,0,0,0,.35-.7c0-1.06.06-2.08.08-3.15a3.87,3.87,0,0,0,0-.47,3.49,3.49,0,0,1,0-.35l0-.78v-6.29c0-.28,0-.49,0-.84a1,1,0,0,0-.29-.6l-.18-.19-.26-.3-.63.1-.38.08a6.12,6.12,0,0,0-.78.22,1.32,1.32,0,0,0-.86.7,1.21,1.21,0,0,0-.05.18l0,.09,0,.19-.06.37a16.4,16.4,0,0,0-.21,3.06c.05,2,.18,4,.13,5.93,0,.31.92.43.94,0,.05-2-.08-4-.13-6a15.56,15.56,0,0,1,.2-2.88l.11-.64a.8.8,0,0,1,.3-.16,5.74,5.74,0,0,1,.66-.18l.45-.09.09.11c.09.1.07.07.06.07V434l0,3.16v1.58l0,.8a3.34,3.34,0,0,0,0,.43c0,.08,0,.19,0,.33,0,1-.11,2.1-.09,3.14l-.05.05a1.82,1.82,0,0,1-.29.22l-.34.21a2.07,2.07,0,0,1-.29.14,2.43,2.43,0,0,1-.61.07l-.28,0h0l.05-.89.08-1.27C385.23,441.67,384.29,441.58,384.27,441.86Z"/><path class="cls-2" d="M371.06,443.48a3.58,3.58,0,0,0,.54.9l.17.2.1.1.16.14a.88.88,0,0,0,.4.17,2.87,2.87,0,0,0,.34-.06,2.86,2.86,0,0,1,.76.07,1.9,1.9,0,0,0,.6,0,1.29,1.29,0,0,0,.6-.28c1-.65,2-1.28,3.08-1.92l1.55-1a8.67,8.67,0,0,0,1.54-1.15,7.59,7.59,0,0,1,1.39-1l.78-.47.85-.52.75-.48.19-.12c.05,0,.19-.08.07-.13l-.37-.26-1.1-.78-1.49-1-3-2.1-3-2.11-1.53-1.06-.38-.27a1.48,1.48,0,0,0-.46-.25,3,3,0,0,0-.53-.1l-.83-.11c-.13.39-.29.85-.32,1a5,5,0,0,0-.15.67,1.92,1.92,0,0,0,.35,1.57,3.64,3.64,0,0,0,.52.45l.5.4,1,.79,2,1.58c.67.51,1.41.93,2.11,1.4l.31.19-.59.39-2.1,1.37c-1.37.91-2.84,1.72-4.27,2.62-.53.34.09,1.08.5.79,1.4-.88,2.87-1.68,4.29-2.62l2.1-1.38,1.51-1,.26-.17c0-.06-.15-.11-.21-.17l-.53-.34-.75-.48c-.69-.46-1.41-.87-2.07-1.37l-2-1.55-1-.78-.48-.39a5.3,5.3,0,0,1-.43-.36,1,1,0,0,1-.13-.82c0-.17.07-.36.12-.55l.06-.2H373a1.58,1.58,0,0,1,.37.06,1.28,1.28,0,0,1,.32.2l.37.26,1.46,1,3,2.07,3,2.1,1.49,1.05.37.26h0l-1.5.89a7.93,7.93,0,0,0-1.57,1.13,8.1,8.1,0,0,1-1.38,1l-1.54,1c-1,.65-2.07,1.25-3.11,2-.19.13-.13.09-.21.11a.89.89,0,0,1-.31,0,3.65,3.65,0,0,0-1.05-.07c0,.23-.53-.49-.69-.86,0-.14-.27,0-.48-.16a.26.26,0,0,0-.34.08A.45.45,0,0,0,371.06,443.48Z"/><path class="cls-2" d="M365.59,100.8a2.3,2.3,0,0,1-1.8,0s-.15.29-.29.6-.27.6-.26.6a3.6,3.6,0,0,0,2.86,0,6,6,0,0,0-.24-.61C365.73,101.1,365.59,100.8,365.59,100.8Z"/><path class="cls-1" d="M322.27,94.28a2.69,2.69,0,0,0,.39.33,1,1,0,0,0,.43.17,1.11,1.11,0,0,0,.38-.06,2.93,2.93,0,0,0,1.75-1.08,5.68,5.68,0,0,0,.6-.93,14.62,14.62,0,0,1,.78-1.28c.1-.13,0-.12,0,0s.12.42.14.73a3.86,3.86,0,0,1-.94,3.18,4.87,4.87,0,0,1-1.93,1.37,3,3,0,0,1-3.59-2,4,4,0,0,1,.16-2.18,6.87,6.87,0,0,1,.53-1.4l.16-.28a5.18,5.18,0,0,1,.37-.53s0,0,0,0a2.47,2.47,0,0,0,0,.45,13.46,13.46,0,0,0,.14,1.41,12.27,12.27,0,0,0,.14,1.24,1.31,1.31,0,0,0,.43.86Z"/><path class="cls-1" d="M336,97.57a1.8,1.8,0,0,0,.38.33,1.16,1.16,0,0,0,.43.18,2,2,0,0,0,.39-.06A2.88,2.88,0,0,0,339,96.93a6,6,0,0,0,.61-.93,13.61,13.61,0,0,1,.78-1.27c.09-.13,0-.13,0,0s.11.41.13.72a3.78,3.78,0,0,1-.94,3.18,4.73,4.73,0,0,1-1.93,1.37,2.88,2.88,0,0,1-2.66-.62,2.8,2.8,0,0,1-.92-1.38,4,4,0,0,1,.16-2.18,6.33,6.33,0,0,1,.53-1.4l.15-.28c.21-.35.34-.44.37-.52a.17.17,0,0,0,0,0,2.35,2.35,0,0,0,0,.44c0,.46.08,1,.14,1.42s.1.89.15,1.23a1.34,1.34,0,0,0,.42.86Z"/><path class="cls-1" d="M319.26,81.79a9.65,9.65,0,0,1-.65,5.91c-1.13,3.15-2.3,6.29-3.15,9.45a44.2,44.2,0,0,0-1.53,9.66,33.56,33.56,0,0,0,.62,8.32c.12.69.32,1.35.48,2s.39,1.33.66,2a15.09,15.09,0,0,0,1.81,3.64,9.56,9.56,0,0,0,5.26,4,11.31,11.31,0,0,0,6.72-.36,24.5,24.5,0,0,0,6.3-3.3,41.72,41.72,0,0,0,5.5-4.71c1-1,2-2.09,2.87-3.2a42.29,42.29,0,0,0,2.5-3.49c1.53-2.34,3-4.73,4.41-7.13a12.7,12.7,0,0,1,.72-1.2c.72-.95,1.33-.92,1.25.05a1.71,1.71,0,0,1-.12.68c-1.09,1.88-1.41,3.73-2.67,5.67s-2.28,3.58-3.52,5.39a40.84,40.84,0,0,1-4.16,5,34.86,34.86,0,0,1-3.9,3.48,32.52,32.52,0,0,1-5.75,3.49,20.86,20.86,0,0,1-4,1.48,12.43,12.43,0,0,1-7.59-.31,11,11,0,0,1-3.94-2.63,15.11,15.11,0,0,1-2.81-4.15,30.52,30.52,0,0,1-2.57-9.92,44.42,44.42,0,0,1,2.6-18.28c1.67-4.71,2.95-7.82,3.06-8.13C318,84.22,318.54,83.3,319.26,81.79Z"/><path class="cls-1" d="M361.07,87.86s0,0,0,0c-2-4.43-4.28-8-9.44-9.54-10.35-3-19,2.73-29,3.48a23,23,0,0,1-7.39-1.17c-4.61-1.81-7.69-6-7.9-11.71-.56-15.64,18.79-15.48,22.13-15.6a55.7,55.7,0,0,1,10.76,1c3.53.57,13.73,5.92,16.38,8.7C363.68,70.38,363.15,78.65,361.07,87.86Z"/><path class="cls-1" d="M326.22,54.8a29.34,29.34,0,0,0-10.81,2.51,13.37,13.37,0,0,0-4.26,3.18,10.92,10.92,0,0,0-2.36,4.66,14.88,14.88,0,0,0,.42,7.78,11,11,0,0,0,4,5.43,11.31,11.31,0,0,0,3.05,1.57,19.55,19.55,0,0,0,3.48.76q.9.12,1.8.18l.87,0c.22,0,.58-.05.87-.07a29.74,29.74,0,0,0,3.62-.51c2.41-.45,4.81-1.11,7.24-1.74,4.28-1.11,8.79-2.25,13.37-1.83.73,0,1.46.18,2.18.27s1.44.32,2.16.48a13.6,13.6,0,0,1,4.09,1.9,15.89,15.89,0,0,1,5.31,7,3.6,3.6,0,0,1,.29.94.63.63,0,0,1,0,.25v0h0l-.43.19h0l.23-.11h-.09a1.76,1.76,0,0,1-.27-.14,4.93,4.93,0,0,1-.73-.62,69.7,69.7,0,0,0-4.91-5.1A11.13,11.13,0,0,0,352,80a16.4,16.4,0,0,0-1.92-.54,16.82,16.82,0,0,0-2-.37,25.34,25.34,0,0,0-8.17.36c-5.49,1-11.08,3.13-17.16,3.46a19.24,19.24,0,0,1-2.81-.18c-.9-.11-1.81-.26-2.71-.46A13.81,13.81,0,0,1,312,80a12.85,12.85,0,0,1-3.84-4.29,14.24,14.24,0,0,1-1.69-5.46,16.78,16.78,0,0,1,.48-6.18,12.51,12.51,0,0,1,3.1-5.44,16.08,16.08,0,0,1,5.09-3.48,26.19,26.19,0,0,1,5.79-1.79,44.11,44.11,0,0,1,7.32-.75,44.83,44.83,0,0,1,7.32.29c.92.11,1.83.24,2.74.38l1.36.22.68.11.72.16a32.69,32.69,0,0,1,5.21,2.07,59.52,59.52,0,0,1,9.53,5.58,11.65,11.65,0,0,1,1.63,1.5c.48.54,1,1.06,1.4,1.64l.66.86.59.9a19.36,19.36,0,0,1,1.07,1.88,21.24,21.24,0,0,1,2.15,8.34,27.89,27.89,0,0,1,0,3.77,24.25,24.25,0,0,1-.79,4.9,4.71,4.71,0,0,1-1,2,4.2,4.2,0,0,1-.52.56c-.55.33-.42-1.57,0-4.84.56-4.82.39-9.87-1.9-14.15l-.42-.8c-.15-.26-.33-.51-.49-.76a13.79,13.79,0,0,0-1.06-1.48,17.41,17.41,0,0,0-1.19-1.41,8.24,8.24,0,0,0-1.26-1.18,47,47,0,0,0-6.47-4A55.4,55.4,0,0,0,343,56.69a20.08,20.08,0,0,0-2.56-.89c-.35-.09-.86-.17-1.34-.24l-1.44-.23a56.12,56.12,0,0,0-5.71-.59c-1.85-.07-3.84,0-5.73.11Z"/><path class="cls-1" d="M363.94,98.37c.62-.61.95-.61,1.21-.5l.84.38-.19-.07a1.28,1.28,0,0,1,.87.65,1.88,1.88,0,0,1,.19.73,3.87,3.87,0,0,1-.07,1.15,10,10,0,0,1-.91,2.46,13.86,13.86,0,0,1-1.11,1.94A5.17,5.17,0,0,1,363,106.8a1.82,1.82,0,0,1-.94.21,2,2,0,0,1-.91-.31c-.34-.2-.7-.38-1.05-.56-.06,0-.14,0-.17-.11s.06-.51.31-.68c.06,0,.14-.11.17-.1.27.15.73-.13,1,0l.39.23.2.1c.07,0,.05,0,.07,0a.79.79,0,0,0,.3-.17l.42-.31a4.88,4.88,0,0,0,.62-.52,9.78,9.78,0,0,0,1.53-2.72,8.15,8.15,0,0,0,.52-1.9,1.6,1.6,0,0,0,0-.56s0,0,0,0l.08-.07,0,0c.05-.07,0,0,0,.06l.43.38-.64-.36-1.05-.58A3.08,3.08,0,0,1,363.94,98.37Z"/><path class="cls-1" d="M313.13,97.94a1.28,1.28,0,0,1,.64,1.24,1.09,1.09,0,0,1-.82.84,1.87,1.87,0,0,1-1-.08,3.11,3.11,0,0,1-.87-.53,6.25,6.25,0,0,1-1-1.08,6.84,6.84,0,0,1-1.1-2.6,11,11,0,0,1,.24-4.56,18.06,18.06,0,0,1,1.31-3.56c.5-1.12,1-2.19,1.59-3.26l1-1.88c.31-.61.58-1.23.86-1.83.05-.11.06-.23.15-.3.25-.19.77,0,1,.38.06.08.17.2.15.25-.22.48.21,1.18-.07,1.66a25.76,25.76,0,0,0-1.22,2.8,11,11,0,0,1-.55,1.08c-.27.45-.58.87-.83,1.31a22.76,22.76,0,0,0-1.08,2.39,10.62,10.62,0,0,0-.66,4.12,5.41,5.41,0,0,0,1.27,3.44c.07.09.16.17.21.23l.1.07a.14.14,0,0,0,.1,0,.24.24,0,0,0,.11,0l.14,0h.12Z"/><path class="cls-1" d="M310.47,90.61c-.5.69-.79.75-1,.68s-.22-.05-.46-.14a1.19,1.19,0,0,1-.66-.59,2,2,0,0,1-.16-.44c0-.13,0-.24-.05-.36a3.63,3.63,0,0,1,.17-1.23c.2-.68.5-1.33.76-2s.45-1.14.7-1.7a7.87,7.87,0,0,1,1-1.75,2.25,2.25,0,0,1,.62-.51,1.4,1.4,0,0,1,1-.14l1.1.37c.06,0,.12,0,.16.06s0,.5-.22.72c0,0-.11.13-.14.13-.25-.09-.62.27-.88.15s-.3-.11-.34-.06,0,0,0,.08l-.13.2-.24.37c-.14.21-.31.41-.44.63A21.14,21.14,0,0,0,310,87.9a8.72,8.72,0,0,0-.48,1.72,1.06,1.06,0,0,0,0,.26.31.31,0,0,0,0,.07.13.13,0,0,0,.06,0l.55.23A2.31,2.31,0,0,1,310.47,90.61Z"/><path class="cls-1" d="M365.32,93.47c-.32,0-.19,0-.21,0v0l0,0s0,.09.05.14.05.2.07.31.06.43.08.65a10.22,10.22,0,0,1,0,1.36,13.17,13.17,0,0,1-.45,2.8,17.61,17.61,0,0,1-2.52,5.36,22.94,22.94,0,0,1-1.54,2c-.26.33-.58.62-.86.93a8,8,0,0,1-1,.92,8.1,8.1,0,0,1-5.16,1.55,10.22,10.22,0,0,1-1.33-.11l-.36-.06-.43-.12a2.38,2.38,0,0,1-.92-.56,1.76,1.76,0,0,1-.48-1,3.06,3.06,0,0,1,.05-1,9.62,9.62,0,0,1,.4-1.3,35.78,35.78,0,0,1,2-4.57c1.56-2.92,3.41-5.6,4.94-8.36a27.24,27.24,0,0,0,1.94-4.23,25.23,25.23,0,0,0,1-4.52,35.81,35.81,0,0,0,.44-8.05,19.07,19.07,0,0,0-2.08-7.55,8.84,8.84,0,0,0-.48-.85l-.25-.42-.26-.35c-.39-.51-.84-1-1.29-1.5a35,35,0,0,0-9.7-7.22,34.18,34.18,0,0,0-6.48-2.5c-1.13-.25-2.26-.53-3.4-.71l-1.73-.2a11.24,11.24,0,0,0-1.74-.14l-1.74,0-.87,0-.87.07-1.74.13-.9.06a2.35,2.35,0,0,1-2.5-3.06,2.35,2.35,0,0,1,.83-1.27,2.45,2.45,0,0,1,.66-.38l.34-.11.25,0c.62-.1,1.24-.22,1.86-.3l1.86-.16a40,40,0,0,1,14.47,2.34,45.85,45.85,0,0,1,6.77,2.85,33.28,33.28,0,0,1,5.95,4.39q1.62,1.43,3.13,3a18.74,18.74,0,0,1,2.83,3.44,20.42,20.42,0,0,1,2.82,8.41,33.38,33.38,0,0,1-.16,8.36A44.41,44.41,0,0,1,364.85,90c0,.06,0,0,0,0s0,0,0,0a4.65,4.65,0,0,1,.8.69,3.26,3.26,0,0,1,.84,1.69,1.43,1.43,0,0,1-.11.91c-.21.27-.37-.13-.86-.87a6.47,6.47,0,0,0-.89-.85,4,4,0,0,0-.64-.48,9.25,9.25,0,0,0-.88-.47c.05-.23.16-.48.23-.73l.12-.38.08-.31c.1-.4.2-.81.28-1.21.17-.81.31-1.62.43-2.44.24-1.63.43-3.31.65-5.17a23.81,23.81,0,0,0-1.25-11.63A14.88,14.88,0,0,0,360.56,64c-1.4-1.43-2.89-2.82-4.42-4.12A39.31,39.31,0,0,0,352.36,57a30,30,0,0,0-4.19-2.15,47.82,47.82,0,0,0-11.74-3.45,28.3,28.3,0,0,0-7.63-.06l-1.36.23a.51.51,0,0,0-.4.33.53.53,0,0,0,.1.52.31.31,0,0,0,.19.09h.21l.44,0c1.18-.06,2.41-.22,3.69-.22l2,0,1,0,1,.12,2.07.25c.7.12,1.39.29,2.1.43l1.07.23,1.05.32c.71.23,1.43.41,2.14.68a37.51,37.51,0,0,1,8.28,4.29,34.78,34.78,0,0,1,7.25,6.56,19.71,19.71,0,0,1,3.52,9.46,35.58,35.58,0,0,1-.43,9.81,24.24,24.24,0,0,1-1.15,4.7,29.07,29.07,0,0,1-2,4.25c-1.49,2.66-3.11,5-4.44,7.37-.66,1.17-1.24,2.32-1.75,3.46-.24.58-.47,1.13-.69,1.71l-.29.82a4.24,4.24,0,0,0-.12.51.18.18,0,0,0,.06.14l.07,0a2.33,2.33,0,0,0,.25.06,9,9,0,0,0,1.48.14,6.78,6.78,0,0,0,2.66-.51,5,5,0,0,0,1-.6c.16-.12.3-.24.44-.36l.43-.45a20.32,20.32,0,0,0,1.51-1.7,24.5,24.5,0,0,0,2.53-4.05c.43-.89.87-1.77,1.28-2.82.2-.53.41-1.09.6-1.72.09-.31.19-.64.27-1,.05-.17.08-.35.12-.53l0-.26,0-.11V93.5S365,93.5,365.32,93.47Z"/><path class="cls-1" d="M365.48,95.41c.18-.66.56-4.16-2.05-4.87l.37-.86c3.39-8.17,3.87-19.07-2.54-26.51a39.86,39.86,0,0,0-9.64-7.82c11.36-1.44,22.71,7.59,23.09,21.53.27,9.7-4.77,13.87-10,20.76A16.28,16.28,0,0,0,365.48,95.41Z"/><path class="cls-1" d="M368,62.9a19.43,19.43,0,0,0-6.16-4.7,19.11,19.11,0,0,0-3.66-1.34,5.11,5.11,0,0,0-1-.2l-.48-.08-.16,0a3.65,3.65,0,0,0-.49-.06,2.25,2.25,0,0,0-.45,0,.68.68,0,0,0-.19,0l.2.1a4.33,4.33,0,0,1,.47.33l1.22,1c.69.59,1.37,1.19,2,1.82A26.92,26.92,0,0,1,363,63.89a22.35,22.35,0,0,1,2.56,5,26.24,26.24,0,0,1,1.24,5.38,32.34,32.34,0,0,1-.42,9.68,32.82,32.82,0,0,1-.9,3.61c-.17.59-.37,1.18-.59,1.76l-.22.57c0,.1-.14.24-.08.3l.22.1.08.05.28.23a4,4,0,0,1,.86,1.3,5.78,5.78,0,0,1,.32,2.76c-.07.67-.32,1-.51.93s-.37-.39-.6-.87a14.13,14.13,0,0,0-.85-1.7,2.74,2.74,0,0,0-.61-.68c-.06,0-.1-.08-.16-.11l-.42-.21-1.72-.56.35-.84.61-1.43.33-.86c.18-.46.34-.92.49-1.39.31-.93.56-1.88.78-2.84a30.16,30.16,0,0,0,.78-5.83,23.22,23.22,0,0,0-2.36-11.36A19.39,19.39,0,0,0,358,61.25c-.92-.84-1.88-1.65-2.87-2.41a25.48,25.48,0,0,0-2.76-1.91c-.5-.32-1.19-.67-1.77-1l-1.9-1-.23-.13a2.62,2.62,0,0,0,.42-.12l.12,0a.36.36,0,0,1,.22,0l1.59-.11,1.58-.09h3.07c.27,0,.53,0,.81.07l.79.12,1.07.18,1.05.29a21.16,21.16,0,0,1,7.65,3.92,22.46,22.46,0,0,1,6.45,8.36,24.59,24.59,0,0,1,2,7.75,23.63,23.63,0,0,1-.5,8,22,22,0,0,1-2.3,5.71,47.22,47.22,0,0,1-3.4,5l-1.59,2.08c-.88,1.12-1.5,1.9-2,2.42l-1.55-.89A3.18,3.18,0,0,1,365,95.81a4.82,4.82,0,0,1,.52-.33c.45-.16.47.76,0,2.52L364,97.08c.18-.29.39-.6.62-.94,2-3,4.41-5.74,6.13-8.78a18.85,18.85,0,0,0,2.52-10,21.9,21.9,0,0,0-5.32-14.45Z"/><path class="cls-1" d="M263.7,172.22a4.93,4.93,0,0,1,.44-4.13q3-6,6.22-11.85c1.84-3.37,3.82-6.66,5.73-10,3.28-5.74,6.56-11.47,10-17.12,1-1.66,2.08-3.31,3.15-5s2-3.17,3.24-4.72a5,5,0,0,1,.67-.77c.83-.59,1.28-.21,1.13.52,0,.16,0,.38-.13.47-.95,1.08-1,2.47-1.88,3.68-1.62,2.27-2.95,4.76-4.36,7.2-.56,1-1.15,1.94-1.76,2.89-.77,1.21-1.59,2.4-2.35,3.62-1.05,1.67-5.71,9.69-10,17.47l-8.6,15.65C264.84,170.77,264.37,171.31,263.7,172.22Z"/><path class="cls-1" d="M298.16,116.51c-3.38-.13-6.79-1.72-9.86-3.69q-1.94-1.23-3.78-2.66c-.61-.47-1.21-1-1.79-1.49l-.43-.38c-.05,0-.1-.11-.13,0L277,114.63c-3.77,4.7-7.46,9.46-11,14.31a187.69,187.69,0,0,0-16.46,26.19,118.81,118.81,0,0,0-5.22,12.19c-1.37,4.17-3.15,8.42-2.16,12.35a8.18,8.18,0,0,0,3.29,4.71,13.76,13.76,0,0,0,5.72,2.16c4.17.7,8.57.07,12.82-.91a57.22,57.22,0,0,0,7.42-2.28,65.45,65.45,0,0,0,7.13-3.15,87,87,0,0,0,12.66-7.94c.66-.51,1.35-1.06,2-1.51,1.76-1.19,2.56-1,1.6.32a3.9,3.9,0,0,1-.73.94c-3.09,2.41-5.22,4.88-8.83,7-6.64,3.92-13.71,7.35-21.35,9.16a38.83,38.83,0,0,1-9.41,1.1,21.73,21.73,0,0,1-6.11-.94,14,14,0,0,1-5.51-3.16,5.88,5.88,0,0,1-.92-1,7.8,7.8,0,0,1-1-1.56,11,11,0,0,1-1.27-4.77,19.08,19.08,0,0,1,.86-6.15c.68-2.08,1.35-4.36,2.28-6.7a121.46,121.46,0,0,1,6.89-15,180.26,180.26,0,0,1,9.44-15.4c6.81-10,14.28-19.22,20-26.1l2.72-3.27a2.8,2.8,0,0,1,.22-.25l.25.24.48.49.95,1c.19.19.21.2.31.29l.26.23.5.45c1.35,1.15,2.64,2.08,3.73,2.84,2.19,1.5,3.63,2.31,3.87,2.48C294,113.94,295.57,115,298.16,116.51Z"/><path class="cls-1" d="M284.14,108.66a2.41,2.41,0,0,1,.81-2.45,26.87,26.87,0,0,0,4.78-5.17c1.23-1.71,2.56-3.35,3.82-5l.79-1.07.41-.55a5,5,0,0,1,.51-.61A10.2,10.2,0,0,1,297.63,92l.23-.13h.29l-.51.13A24.84,24.84,0,0,1,303,89.82a9.3,9.3,0,0,1,3.57-.51,6.93,6.93,0,0,1,1.78.45l1.43.58a1.5,1.5,0,0,1,.43.18.69.69,0,0,1-.18,1.1c-.1.06-.23.18-.31.15-.75-.25-1.67,0-2.34-.24-1.22-.57-2.43-.1-3.89.42-.57.2-1.14.38-1.71.56a19.53,19.53,0,0,0-2.16.72,7.52,7.52,0,0,0-1,.49l-.23.12h-.26l.48-.12a8.28,8.28,0,0,0-1.27.81,5.48,5.48,0,0,0-.76.7c-.13.14-.21.26-.35.44l-.43.58-3.88,5.29a30.43,30.43,0,0,1-2.07,2.66,23.71,23.71,0,0,1-2.07,2.07,29.48,29.48,0,0,1-2.32,1.84A8.41,8.41,0,0,1,284.14,108.66Z"/><path class="cls-1" d="M299.7,96.86c-.42-.93-.36-1.24-.17-1.41a12.89,12.89,0,0,1,2-1.62,8.85,8.85,0,0,1,2.13-1,3.41,3.41,0,0,1,.59-.13l.32,0h.23l.9,0c.61,0,1.22,0,1.85,0h2.2c.06,0,.13,0,.18,0s.13.57,0,.9c0,.07-.07.19-.1.19-.26,0-.52.56-.78.52a6.45,6.45,0,0,0-1.51.15,2.49,2.49,0,0,1-.61,0c-.26,0-.53-.08-.8-.1s-.7,0-1.39,0a3.9,3.9,0,0,0-1.81.67,31.84,31.84,0,0,0-2.63,1.81A2.14,2.14,0,0,1,299.7,96.86Z"/><path class="cls-1" d="M298.41,93.35c-.57-.89-.47-1.34-.24-1.69.75-1.15,1.54-2.29,2.41-3.38a29.38,29.38,0,0,1,2.48-2.65,12.69,12.69,0,0,1,5.44-3.52,6.76,6.76,0,0,1,1-.18l1-.08,1.62-.18a.5.5,0,0,1,.27,0,.72.72,0,0,1,.25.88c0,.08-.05.2-.1.21-.44,0-.75.65-1.25.66a7.29,7.29,0,0,0-1.3.14,7.05,7.05,0,0,0-1.09.3,7.93,7.93,0,0,1-.86.3,10.57,10.57,0,0,0-1.12.46,9.15,9.15,0,0,0-1.76,1.27,26.89,26.89,0,0,0-2.63,2.74c-1.74,2.07-3.3,4.2-3.41,4.28A3.58,3.58,0,0,1,298.41,93.35Z"/><path class="cls-1" d="M303.09,91.56c-.67-.77-.66-1.09-.54-1.29A12.13,12.13,0,0,1,304,88.41a17.53,17.53,0,0,1,1.5-1.36,16.28,16.28,0,0,1,2.86-2.14,9.59,9.59,0,0,1,1-.48,5.77,5.77,0,0,1,1.13-.35c.06,0,.14,0,.21,0s.2.54.1.89c0,.08,0,.21-.06.21-.25.06-.31.61-.51.68a2.77,2.77,0,0,0-1.06.65,2,2,0,0,1-.45.26c-.2.11-.44.18-.64.29a15.79,15.79,0,0,0-2.51,2.16c-1,1.06-1.94,2.16-2,2.21A1.85,1.85,0,0,1,303.09,91.56Z"/><path class="cls-1" d="M293.67,112.34c-.68-1.11-.51-1.69-.18-2.12a13,13,0,0,1,4.17-3.67A20.44,20.44,0,0,1,302.1,105a15.58,15.58,0,0,0,3.4-1.29,9.8,9.8,0,0,0,2.68-2.25c.48-.55,1-1.11,1.43-1.71s.85-1.18,1.28-1.77c.07-.1.12-.23.23-.29.31-.16.78.13.95.57,0,.1.13.24.09.28-.33.46-.05,1.25-.44,1.71-.72.84-1.27,1.83-2,2.74a6.78,6.78,0,0,1-1,1,11.47,11.47,0,0,1-1.57,1,14.85,14.85,0,0,1-2.85,1.33c-1.44.51-3.16.88-4.65,1.52a14.2,14.2,0,0,0-5.15,3.92A5.85,5.85,0,0,1,293.67,112.34Z"/><path class="cls-1" d="M298.17,101.25c-.43-.93-.22-1.31,0-1.5a7.56,7.56,0,0,1,3-1.35,6.8,6.8,0,0,1,2.94.14,4.69,4.69,0,0,1,.61.18l.48.16a2.2,2.2,0,0,0,1.56-.19c.19-.1.58-.38.89-.57s.78-.46,1.18-.69.77-.46,1.19-.67c.06,0,.13-.1.21-.09.24,0,.42.45.41.81,0,.08,0,.21,0,.22-.29.14-.28.77-.57.9a7.35,7.35,0,0,0-1.5,1.07,4.49,4.49,0,0,1-.63.4,4.82,4.82,0,0,1-3.31.31,7,7,0,0,0-1.2-.34,5.2,5.2,0,0,0-1.31-.05,7.13,7.13,0,0,0-2.37.64c-.61.28-1,.54-1,.55A2.59,2.59,0,0,1,298.17,101.25Z"/><path class="cls-1" d="M307.69,136.35a2.45,2.45,0,0,1,1.54-2.29,32.79,32.79,0,0,1,7.86-2.39,35,35,0,0,1,7.09-.33A34.35,34.35,0,0,1,336.05,134c1.12.46,2.19,1,3.26,1.56s2,1.08,3,1.69a2.07,2.07,0,0,1,.49.32c.33.39.1.9-.43,1-.12,0-.28.11-.35.06-.73-.47-1.69-.23-2.44-.71a24.11,24.11,0,0,0-4.5-2c-.61-.23-1.23-.45-1.84-.7-.78-.3-1.55-.64-2.35-.88a25.89,25.89,0,0,0-4.27-.84,32.23,32.23,0,0,0-7.37,0,38,38,0,0,0-10.07,2.59C308.79,136.19,308.35,136.21,307.69,136.35Z"/><path class="cls-1" d="M348.19,191.56c2.79,3.55,4.81,8.19,6.57,12.85,5.9,15.57,11.73,31.2,17.35,46.9l2.88,8.17,1.4,4.1,1.13,3.43.86.18,1.54.29c1,.18,2.07.33,3.11.44a32.81,32.81,0,0,0,6.18.13,17.19,17.19,0,0,0,3-.48c.49-.1.94-.29,1.41-.43l.18-.08-.95-1.79-1.43-2.93c-2.6-5.67-4.78-11.48-6.81-17.33s-3.85-11.76-5.6-17.68c-3.51-11.85-6.67-23.78-10.13-35.59-2-7-4.18-13.93-6.58-20.79-.58-1.64-1.16-3.28-1.76-4.91s-1.19-3.24-1.89-4.8a56.86,56.86,0,0,0-4.92-9c-.65-.95-1.39-1.9-2-2.79-1.66-2.38-1.69-3.3.08-1.92a7.27,7.27,0,0,1,1.21,1.09c1.65,2.16,3.14,4.1,4.55,6.17a36.58,36.58,0,0,1,3.78,7c3.72,10,7.12,20,10.16,30.11,1.22,4,2.36,8.14,3.47,12.21l4.2,15.63c.94,3.28,3.38,12.26,7.39,24.1,1,2.95,2.13,6.09,3.4,9.32s2.66,6.6,4.32,9.94c.4.84.83,1.68,1.29,2.5s.75,1.4,1.13,2.1c.47.47-.27.54-.59.74l-1.19.56a4.39,4.39,0,0,1-.55.23l-.37.12-.75.25c-.5.15-1,.25-1.52.37a24.67,24.67,0,0,1-3.08.38,37.65,37.65,0,0,1-6.19-.2c-1-.13-2.05-.26-3.07-.44l-1.53-.29-2.11-.44q-1.11-3.3-2.24-6.62c-.7-2-1.4-4-2.1-6l-4.22-11.85-7.79-21.44c-4.68-12.75-8-21.72-8.28-22.55C350.23,198,349.48,195.53,348.19,191.56Z"/><path class="cls-1" d="M268.41,167.26a14.11,14.11,0,0,0,1.73-1.73c2-2,3.9-4.11,5.92-6.09,1.72-1.7,3.6-3.24,5.43-4.84a122.35,122.35,0,0,1,9.8-7.88c1-.72,2.06-1.4,3.11-2.07a35.41,35.41,0,0,1,3.11-1.8l.55-.26c.48-.2.55-.3.25-.08l-.2.18a13.83,13.83,0,0,0-1.85,1.89c-1.31,1.22-2.51,2.57-3.73,3.89-.5.51-1,1-1.54,1.49-.69.6-1.42,1.14-2.12,1.72-1,.8-5.28,4.78-9.71,8.31-2.2,1.76-4.44,3.41-6.2,4.57s-3,1.87-3.13,1.93C269.43,166.71,269,166.9,268.41,167.26Z"/><path class="cls-1" d="M293.88,173.9a10.1,10.1,0,0,1,.45,5.28,28.56,28.56,0,0,1-1.41,5.47c-2.09,5.95-4.57,11.73-7.14,17.46s-5.27,11.38-8,17c-2.35,4.84-4.81,9.66-7.1,14.48-.28.6-.56,1.21-.8,1.79l-.05.12s0,0,0,0l0,0,.15.15a25.44,25.44,0,0,0,3,2.35A39.84,39.84,0,0,0,280,241.7a66.41,66.41,0,0,0,13.11,3.74A121.86,121.86,0,0,0,306.73,247c4.6.3,9.21.44,13.81.39l1.72,0,.56,0s.06,0,.08,0l.28-.51c.14-.25.27-.5.39-.76l.78-1.52c1-2.07,2-4.15,2.88-6.26a145.16,145.16,0,0,0,5.7-15.26c.78-2.48,1.43-5,2-7.51.3-1.26.48-2.53.73-3.79s.38-2.54.43-3.8c0-.84.11-1.75.12-2.53.11-2.11.72-2.72,1.22-1.1a4.83,4.83,0,0,1,.32,1.2c0,1-.05,2,0,2.95s-.05,1.88-.07,2.83a28.47,28.47,0,0,1-.79,5.91,154.81,154.81,0,0,1-7.63,22.73c-.62,1.47-1.29,2.93-2,4.38-.35.72-.69,1.45-1.07,2.16l-.56,1.08-.64,1.15-.37.65-.19.32s0,.14-.11.13h-.19l-.74,0-.64,0H321.2l-3.06,0c-2-.05-4.08-.13-6.11-.22-1.4-.07-4.08-.19-7.7-.47A106.41,106.41,0,0,1,291,247.29a61,61,0,0,1-16.31-5.6,35.85,35.85,0,0,1-4-2.48c-.65-.47-1.29-1-1.9-1.5-.16-.13-.31-.28-.46-.42a5.32,5.32,0,0,1-.67-.74c-.1-.14-.23-.25-.17-.44a1.05,1.05,0,0,1-.05-.47,4,4,0,0,1,.28-1c1.26-3,2.67-5.74,4-8.57,5.53-11.22,10.88-22.2,14.57-30.66,1.85-4.23,3.31-7.81,4.27-10.42s1.48-4.23,1.58-4.52c.3-.92.62-1.84.95-2.89A17.68,17.68,0,0,0,293.88,173.9Z"/><path class="cls-1" d="M307.57,280.78c-14.39,8.74-56.52,10.82-74.19,13.3a53.83,53.83,0,0,0-5.5.89c-1.25.32-33.11,42.55-51,67.46-2.35-.18-16.62-7.88-19.18-9.51,16.34-27.44,49.94-70.11,52.72-72.15,7.32-5.37,17.9-9.8,25.53-12.45,6.25-2.19,12.51-4.69,18.77-7.19L217,238.26a2.52,2.52,0,0,0-2.56,0l-55.24,38.29c-10.24.15-21.73-5.48-22.25-5.66,0,0,62.66-59.23,78.11-58.36s50.86,27,50.86,27l2.74-3.38c1.73,2,13.34,13.33,54.75,12.25C323.83,259.41,317.35,274.83,307.57,280.78Z"/><path class="cls-1" d="M159.63,274.78q22.2-15.55,44.44-30.95l5.57-3.85,2.79-1.92.69-.48.35-.24.19-.13A3,3,0,0,1,214,237a3.92,3.92,0,0,1,2.54-.36,4.09,4.09,0,0,1,1.22.46l.73.45,1.46.89,2.93,1.78,5.86,3.57,23.42,14.28,3.49,2.12,1.88,1.15.05,0-.07,0-.13,0-.25.1-.52.2-1,.39-6.19,2.37-9.37,3.6c-3.12,1.24-6.25,2.28-9.31,3.51s-6.1,2.53-9.06,4a81.19,81.19,0,0,0-7.6,4.2c-.6.39-1.21.77-1.79,1.19l-.88.61a5.45,5.45,0,0,0-.69.63c-.91.95-1.91,2.1-2.83,3.21-3.76,4.47-7.39,9.08-11,13.71q-10.78,13.89-21,28.24-5.12,7.16-10,14.49c-1.6,2.45-3.21,4.9-4.76,7.38l-1.94,3.15c0,.07-.12.14-.09.19l.2.12.4.24,1.9,1.07c2.56,1.43,5.14,2.8,7.75,4.13,1.3.65,2.61,1.31,3.93,1.91a15.68,15.68,0,0,0,3.29,1.28l10.06-13.77q9.28-12.58,18.71-25.12c6.29-8.34,12.53-16.66,19-24.78.48-.59,1-1.19,1.46-1.77.24-.3.5-.59.76-.89.13-.15.26-.27.48-.5a3.22,3.22,0,0,1,.36-.24l.09-.06h0s0,0,0,0h0l0,0,.21-.07.7-.16.6-.13,1.19-.2,2.35-.32,4.67-.62c3.13-.37,6.25-.71,9.37-1,6.25-.66,12.49-1.3,18.71-2.05s12.43-1.58,18.59-2.66A106.89,106.89,0,0,0,302,282.43c.94-.38,1.77-.65,2.44-.94s1.2-.55,1.63-.73c.86-.36,1.28-.46,1.29-.33s-.39.49-1.17,1.06c-.4.29-.89.62-1.47,1s-1.31.69-2.1,1.08a67.26,67.26,0,0,1-13.87,4.69,187.4,187.4,0,0,1-20.54,3.6c-6.67.83-13.35,1.52-20,2.2-3.34.34-6.66.68-10,1.07-1.66.18-3.29.41-5,.62l-2.47.34-1.19.19-.94.19h0l-.12.12-.59.67-1.2,1.44-2.39,3-4.7,6-9.32,12.18q-9.27,12.23-18.43,24.56l-9.13,12.37-2.27,3.11-1.13,1.55-.57.78-.47.66c-.18.25-.36.47-.55.69l-.28.33c0,.08-.12,0-.19,0l-.21,0c-.28-.06-.59-.1-.85-.18l-.78-.23-.39-.11c-.14,0-.18-.07-.27-.1-.63-.25-1.25-.51-1.84-.78-1.2-.54-2.37-1.11-3.53-1.69-2.32-1.16-4.6-2.37-6.87-3.61q-1.69-.92-3.39-1.89l-1-.57-1.49-.9-.74-.45s-.08,0-.06-.07l.05-.09.11-.18.23-.38.9-1.48,2.16-3.48c.67-1.11,1.4-2.17,2.1-3.26q2.09-3.27,4.28-6.46c9.22-13.58,19.12-27,29.4-40.37,2.57-3.32,5.18-6.64,7.83-9.92,1.32-1.64,2.66-3.27,4-4.89.33-.4.7-.8,1.06-1.2a14.09,14.09,0,0,1,1.15-1.24c.23-.2.45-.45.67-.61l.66-.46c.44-.32.88-.62,1.33-.91a84.75,84.75,0,0,1,11.21-6.12c3.85-1.78,7.78-3.34,11.76-4.75l12.88-4.89,4.53-1.72s.06,0,0,0l-.06,0-.13-.08-.26-.16-.51-.31-2.89-1.76-23.58-14.37L219,240.6l-1.48-.89-.74-.45-.3-.18a1.06,1.06,0,0,0-.25-.09,1.52,1.52,0,0,0-1,0l-.21.11-.35.24-.72.5-11.46,7.9-22.94,15.77L159.75,277.1l-.31.21c-.1.06-.19.17-.33.14l-.76,0c-.51,0-1,0-1.53-.06l-1.52-.12-1.51-.2a49.66,49.66,0,0,1-5.91-1.25c-1.94-.53-3.85-1.15-5.73-1.84-.94-.35-1.87-.71-2.8-1.1l-1.86-.8c-.65-.3-1.37-.61-2-.91l4.64-4.32,3.77-3.45,7.58-6.84c6.42-5.7,12.93-11.33,19.55-16.82s13.37-10.84,20.36-15.86c3.51-2.5,7.08-4.93,10.8-7.12a62.89,62.89,0,0,1,5.75-3,19.43,19.43,0,0,1,6.4-1.85,23.77,23.77,0,0,1,6.53,1.14,55.94,55.94,0,0,1,6.08,2.24A127.21,127.21,0,0,1,238.51,221c4.89,2.73,9.63,5.65,14.28,8.66,2.33,1.5,4.62,3,6.89,4.58l3.39,2.34,2.72,1.93.9-1.12.93-1.15c.35-.42.69-.89,1-1.25.44.49.9,1,1.38,1.42l.36.36.26.2.47.4a22.62,22.62,0,0,0,2.05,1.42l1.06.65,1.11.59c.73.42,1.5.75,2.27,1.1s1.54.67,2.33,1,1.57.62,2.38.86l2.41.76,2.46.64a107.59,107.59,0,0,0,20.09,2.85l2.14.13,2.14.05,4.26.1,4.27-.05,2.49,0,1.81,0h.11s0,.06,0,.09v1.47c0,.52,0,1,0,1.55s0,.7-.06,1.05c-.06.67-.08,1.32-.18,1.95s-.17,1.25-.27,1.85-.23,1.17-.34,1.74a45.31,45.31,0,0,1-6,14.53c-2.86,4.25-5.18,6.2-7.17,7.47a16,16,0,0,1-2.72,1.46c-.49.19-.42,0,.15-.53.28-.27.71-.59,1.21-1s1.11-1,1.76-1.69a41.5,41.5,0,0,0,8.89-14.9,42.36,42.36,0,0,0,2.07-8.3c.09-.7.21-1.41.23-2.12s.12-1.61.09-1.69v-.4s0-.08,0-.1H322l-1.58,0-4.48.07-4.5-.1-2.26-.06-2.26-.14c-1.5-.11-3-.16-4.52-.32a99.67,99.67,0,0,1-18.06-3.17,58.37,58.37,0,0,1-8.77-3.27,39.66,39.66,0,0,1-4.16-2.33c-.66-.48-1.34-.91-2-1.45l-.54-.44,0,0-2.6,3.22-2.94-2.14-1.75-1.23L258,236c-2.36-1.61-4.74-3.2-7.15-4.75-4.81-3.11-9.72-6.1-14.75-8.85a89.74,89.74,0,0,0-15.53-7,27.66,27.66,0,0,0-4-1,8.45,8.45,0,0,0-1-.12,5.17,5.17,0,0,0-.92-.06,8.41,8.41,0,0,0-1.79.24,32.8,32.8,0,0,0-7.58,3.26,159.81,159.81,0,0,0-17.8,12c-5.75,4.35-11.37,8.9-16.92,13.54s-11,9.38-16.44,14.19q-4.07,3.6-8.08,7.26l-6.25,5.74.05,0,.39.17c.89.37,1.79.72,2.69,1.05,1.81.67,3.65,1.26,5.5,1.77a49.38,49.38,0,0,0,5.6,1.19l1.41.19,1.4.12c.47.05.94,0,1.4.05s1,.15,1.34-.26Z"/><path class="cls-1" d="M271,254.17c0,1.48-.4,1.94-.89,2.17q-2.46,1.19-5,2.2c-1.44.57-2.94,1-4.4,1.56l-7.5,2.86c-.74.29-1.49.55-2.22.85s-1.39.61-2.08.91c-.12.06-.22.15-.36.14-.36,0-.66-.58-.61-1.1,0-.12,0-.3.06-.33.54-.23.69-1.15,1.28-1.35a32.86,32.86,0,0,0,3.13-1.47,11.07,11.07,0,0,1,1.29-.49c.56-.17,1.15-.28,1.71-.45,1.54-.47,14.14-5.39,14.48-5.48A5.27,5.27,0,0,1,271,254.17Z"/><path class="cls-1" d="M149.73,274.18l-1.34,4.55a2.92,2.92,0,0,1-1.92,1.77c-.32.1-.68.19-1,.27H112.6c-7-2.85,20.74-5.77,28.2-5.88a3.18,3.18,0,0,0,2.7-1.58l.4-.61Z"/><path class="cls-1" d="M118.94,278.72c-1,.17-2,.35-3,.57a17.61,17.61,0,0,0-2.78.81,2.55,2.55,0,0,0-.43.23s0,0,0,0a2.29,2.29,0,0,0-.23-.21.65.65,0,0,0-.18-.15c-.16-.09-.18-.13-.29-.15s-.11,0,0,0a1.17,1.17,0,0,0,.55-.38l.15-.15.07,0c.17.09.15.1.22.12l3,.05,4.63,0,16.31.37c2.41,0,4.83,0,7.23,0l1.15,0a.91.91,0,0,0,.34-.07l.53-.15a2,2,0,0,0,1.23-.93,2.1,2.1,0,0,0,.15-.31l.15-.53.35-1.1c.23-.73.49-1.46.77-2.18.34-.89.9-.6,1.25.35a5.55,5.55,0,0,1,.31,1.84,7.71,7.71,0,0,1-.06,1.16,4.44,4.44,0,0,1-.1.62l-.07.31-.1.38a4.57,4.57,0,0,1-2.48,2.65,10.88,10.88,0,0,1-1.39.42,3.67,3.67,0,0,1-.51.11h-1.06l-4.71-.06c-3.14-.06-6.3-.17-9.46-.34-3.79-.2-7.73-.09-11.6-.14l-3.2-.05-1.59,0h-1.33a1.22,1.22,0,0,1-.61-.17,5.74,5.74,0,0,1-.51-.27A3.5,3.5,0,0,1,111,281a2.85,2.85,0,0,1-.27-.32,1.54,1.54,0,0,1-.22-.52,1.43,1.43,0,0,1,0-.65,1.65,1.65,0,0,1,.22-.48,2.68,2.68,0,0,1,1-.82c.29-.15.57-.27.84-.38a23.83,23.83,0,0,1,3.21-.9c2.62-.55,5.23-.92,7.84-1.26,4-.51,7.95-.85,11.89-1.2l4.58-.38c.37,0,.81,0,1-.09a2.4,2.4,0,0,0,.74-.3,2.31,2.31,0,0,0,.59-.53c.05-.06.22-.33.38-.59l.49-.78.11-.17.06-.08.1,0,.38.09.79.17,1.2.27c2.42.57,3.15.93,3.51,1.68a3.32,3.32,0,0,1,.24.51c.1.54-1,.69-2.78.38l-2-.36c-.23-.05-.19,0-.24,0h-.09c-.06,0-.06.1-.09.14s0,0-.15.25a5.37,5.37,0,0,1-.51.56,4.62,4.62,0,0,1-2.79,1.2l-1.08.06c-2.75.18-5.59.43-8.42.71-4.19.42-8.43.88-12.56,1.6Z"/><path class="cls-1" d="M330.39,145.09a2.86,2.86,0,0,1,2.49-.6,21.27,21.27,0,0,0,7.21,0,33.42,33.42,0,0,0,6.17-1.43c1-.35,2-.73,2.94-1.16.48-.22,1-.43,1.43-.68l.71-.35,1.16-.65.83-.13a.53.53,0,0,1,.38.15l.23.38a1.66,1.66,0,0,1,.37.85,4.23,4.23,0,0,1,.15,1,4.92,4.92,0,0,1-1,2.75,10.43,10.43,0,0,1-2.65,2.5,18.93,18.93,0,0,1-2.92,1.69,1.75,1.75,0,0,1-.53.22c-.5.05-.75-.39-.57-.86.05-.1.08-.26.15-.3.76-.32,1.07-1.16,1.78-1.54a8.22,8.22,0,0,0,3.17-2.94,4.1,4.1,0,0,0,.54-1.33c0-.18,0-.2,0-.2a.24.24,0,0,0,0-.07.34.34,0,0,0,0-.11s0,0-.06,0l0,0-1,.49c-.67.33-1.53.73-2.51,1.13a37.59,37.59,0,0,1-7,2.13,24.59,24.59,0,0,1-7,.42,17.25,17.25,0,0,1-3.32-.65A11.65,11.65,0,0,1,330.39,145.09Z"/><path class="cls-1" d="M303.77,133a2.73,2.73,0,0,1-1.8,1.69,13.38,13.38,0,0,0-3,1.41,6.15,6.15,0,0,0-2.16,2.14,2.2,2.2,0,0,0-.22.53l-.05.11s0,.06,0,.05l2.68-.62a32.61,32.61,0,0,1,5.44-.84,16.16,16.16,0,0,1,5.6.61,17.52,17.52,0,0,1,3.09,1.29,26.44,26.44,0,0,1,2.71,1.65,1.65,1.65,0,0,1,.41.33c.28.37,0,.82-.45.91-.11,0-.26.08-.32,0-.63-.47-1.5-.3-2.15-.74a11.81,11.81,0,0,0-4-1.62c-.55-.13-1.1-.25-1.66-.36a14.18,14.18,0,0,0-2.17-.31,19.57,19.57,0,0,0-3.88.33c-.95.16-2,.39-3.13.66l-1.73.46a2.4,2.4,0,0,1-1.47.07,1.56,1.56,0,0,1-1-1.05,2.8,2.8,0,0,1,0-.76,2.61,2.61,0,0,1,.11-.73l.18-.52.25-.46a6.13,6.13,0,0,1,1.23-1.54,10.53,10.53,0,0,1,2.76-1.8,13.58,13.58,0,0,1,3.14-1A6.28,6.28,0,0,1,303.77,133Z"/><path class="cls-1" d="M338.08,142.06c.28-1.11.53-1.34.81-1.38l2.73-.47c.79-.12,1.58-.18,2.36-.34a20.48,20.48,0,0,0,3.86-1.25,9.51,9.51,0,0,0,1.07-.5,6.76,6.76,0,0,0,.94-.64c.06,0,.09-.1.17-.09s.51.42.6.8c0,.09.06.22,0,.24-.26.18-.15.86-.46,1-.58.26-1.06.72-1.63,1a3.6,3.6,0,0,1-.7.3c-.32.08-.65.1-1,.18a40.28,40.28,0,0,1-4.34,1,26.27,26.27,0,0,1-3.92.38A2.53,2.53,0,0,1,338.08,142.06Z"/><path class="cls-1" d="M300.46,137.11c0-1,.26-1.35.61-1.49a18.69,18.69,0,0,1,1.81-.68,11.25,11.25,0,0,1,1.92-.38,12.84,12.84,0,0,1,3.39.15,16.25,16.25,0,0,1,5.44,1.9c.49.28,1,.59,1.43.89s.92.57,1.35.89a.6.6,0,0,1,.22.16c.11.23-.14.61-.48.77-.07,0-.18.11-.22.09-.33-.23-.92,0-1.24-.21a9.07,9.07,0,0,0-2-1.06,7.44,7.44,0,0,1-.79-.42c-.33-.18-.64-.41-1-.57a12,12,0,0,0-5.14-1,17,17,0,0,0-4.6,1A3.35,3.35,0,0,1,300.46,137.11Z"/><path class="cls-1" d="M312.68,141.38c1,.87,1,1.49.89,2-.48,1.85-1,3.68-1.49,5.51-.45,1.57-1,3.11-1.41,4.69a61.83,61.83,0,0,0-1.64,8.19,19.34,19.34,0,0,0-.17,2.39,7.83,7.83,0,0,0,.27,2.12c0,.12.1.19.08.3a.9.9,0,0,1-1,.49c-.11,0-.27,0-.3-.1-.21-.59-1-1-1-1.75,0-1.3-.12-2.56,0-3.82a9.25,9.25,0,0,1,.21-1.48c.13-.62.33-1.23.49-1.84.19-.84,1.05-4.78,2.13-8.47s2.22-7.18,2.3-7.35A6.37,6.37,0,0,1,312.68,141.38Z"/><path class="cls-1" d="M330,145.77c.91.93.93,1.5.75,2q-.87,2.46-1.77,4.91c-.53,1.41-1.14,2.77-1.63,4.18a61.11,61.11,0,0,0-2.1,7.38c-.12.73-.33,1.46-.39,2.2,0,.35-.07.7-.1,1.06v1a.82.82,0,0,1,0,.35.85.85,0,0,1-1.11.12c-.09-.06-.24-.12-.24-.18,0-.56-.68-1.09-.59-1.71a16.42,16.42,0,0,0,.17-1.72c.06-.57.11-1.14.18-1.71a10.25,10.25,0,0,1,.31-1.33c.16-.56.41-1.09.6-1.64.22-.76,1.29-4.31,2.55-7.61s2.6-6.41,2.69-6.56A5,5,0,0,1,330,145.77Z"/><path class="cls-1" d="M307.09,169.65a1.37,1.37,0,0,0,.54.81,2,2,0,0,0,1.62.36c.94-.2,1.24-2.29.81-2.67C309.09,167.29,306.86,168.28,307.09,169.65Z"/><path class="cls-1" d="M306.54,169.75c1.15.06,1.35-.16,1.44-.07a1.34,1.34,0,0,0,.52.18,1.26,1.26,0,0,0,.27,0l.18,0h0s0,.07.11-.1a1.5,1.5,0,0,0,.23-.56c0-.1,0-.19,0-.27s0,0,0-.05a.06.06,0,0,0-.06-.06,1.19,1.19,0,0,0-.68.11,1.06,1.06,0,0,0-.42.3c-.09.12-.07.22,0,.24s.05,0,0,0a4,4,0,0,1-1,.13c-.09,0-.23,0-.23-.05,0-.22-.62-.64-.42-1a3.76,3.76,0,0,1,1.34-1.45,1.92,1.92,0,0,1,.75-.22,3.06,3.06,0,0,1,1.07.16,2.2,2.2,0,0,1,.9.46,1.76,1.76,0,0,1,.56,1.54,4.08,4.08,0,0,1-.34,1.45,2,2,0,0,1-1.33,1.21,2.83,2.83,0,0,1-2.26-.46,2.21,2.21,0,0,1-.67-.73A1.14,1.14,0,0,1,306.54,169.75Z"/><path class="cls-1" d="M321.35,172.68a1.29,1.29,0,0,0,.54.81,1.89,1.89,0,0,0,1.62.36,1.69,1.69,0,0,0,.8-2.67C323.34,170.32,321.11,171.31,321.35,172.68Z"/><path class="cls-1" d="M320.79,172.77c1.15.08,1.35-.15,1.44-.05a1.25,1.25,0,0,0,1.06.12,1,1,0,0,0,.28-.14.45.45,0,0,0,.15-.34.92.92,0,0,0-.05-.44c0-.06,0-.07-.05-.08a1.11,1.11,0,0,0-.77.08,1,1,0,0,0-.45.3c-.09.12-.07.23,0,.25s.05,0,0,0a3.93,3.93,0,0,1-1,.13c-.08,0-.22,0-.23-.06,0-.22-.62-.66-.41-1.05a3.73,3.73,0,0,1,1.4-1.44,1.66,1.66,0,0,1,.76-.21A2.9,2.9,0,0,1,324,170a2.52,2.52,0,0,1,.7.34,1.82,1.82,0,0,1,.74,1.1,3,3,0,0,1,0,1.38,2.3,2.3,0,0,1-.89,1.42,2.6,2.6,0,0,1-1.5.49,2.84,2.84,0,0,1-1.28-.32,2.49,2.49,0,0,1-1-.94A1.19,1.19,0,0,1,320.79,172.77Z"/><path class="cls-1" d="M379.07,270a7.67,7.67,0,0,1,1.5,3.89,5,5,0,0,0,1.16,2.61,2.52,2.52,0,0,0,1.07.65,9.92,9.92,0,0,0,1.47.25c2.21.22,4.53.27,6.82.34l11.91.4c1.7.07,3.45.13,5.17.33l.28,0h.15c.06,0,.07-.07,0-.11a.35.35,0,0,0-.11-.1l-.17-.09-1.06-.46c-.78-.32-1.56-.64-2.35-.94-1.58-.6-3.18-1.16-4.78-1.7-1.9-.63-3.81-1.24-5.74-1.77s-3.72-.9-5.58-1.26a5.78,5.78,0,0,1-.94-.18c-.4-.15-.62-.39-.64-.62h.12a.31.31,0,0,1,0-.19h-.08a.77.77,0,0,1,.41-.35c.15-.06.33-.18.48-.16,1.47.25,2.8-.16,4.35.25,2.85.75,5.73,1.42,8.55,2.29,1.13.35,2.25.75,3.35,1.18,1.4.55,2.77,1.19,4.16,1.83l.44.2.14.07.24.12.52.27.58.3.47.4a2.09,2.09,0,0,1,.45.44,3.48,3.48,0,0,1,.35.53,1.65,1.65,0,0,1,.22,1.21,1,1,0,0,1-.36.55,1.7,1.7,0,0,1-.53.3,4.52,4.52,0,0,1-1.9.07l-1.13-.15-.74-.08c-3.7-.32-8.44-.34-13-.46-2.31-.05-4.59-.12-6.74-.23-1.07-.06-2.11-.12-3.11-.24a14.84,14.84,0,0,1-1.49-.21,5.06,5.06,0,0,1-1.53-.53,4.7,4.7,0,0,1-1.95-2.08,7,7,0,0,1-.66-2,10,10,0,0,1-.2-1.92A12.63,12.63,0,0,1,379.07,270Z"/><path class="cls-1" d="M170.18,360a22.84,22.84,0,0,1-6.22,9.61c-3.92,3.72-8.5,6.63-13.44,7.7-1.7.38-11.73,1.62-7.39-2.93,4.69-4.92,20.86-14.49,22.44-16.88A36.16,36.16,0,0,0,170.18,360Z"/><path class="cls-1" d="M148.13,372.05a36.88,36.88,0,0,0-4.07,3.32,3.19,3.19,0,0,0-.41.47.21.21,0,0,0,0,.25.39.39,0,0,0,.23.16l.18.05.27.05.6.08a21.74,21.74,0,0,0,3.76-.12,24.35,24.35,0,0,0,12.28-5.25,27,27,0,0,0,4.39-4.22,32.75,32.75,0,0,0,3.84-6.63c.35-.73.9-.43,1.22.45a4.94,4.94,0,0,1-.41,3.84,23.59,23.59,0,0,1-5.46,6.73,31.36,31.36,0,0,1-7.09,4.74,37,37,0,0,1-4.86,1.93,18.2,18.2,0,0,1-2.62.62,25.65,25.65,0,0,1-2.61.27,18.21,18.21,0,0,1-2.94-.08l-.77-.12a5.46,5.46,0,0,1-1-.29,2.17,2.17,0,0,1-1.15-3.43,5.89,5.89,0,0,1,.57-.8c.18-.19.35-.39.53-.55.7-.68,1.43-1.29,2.16-1.88,1.82-1.44,3.69-2.75,5.57-4.05,2.84-2,5.75-3.83,8.53-5.8,1.08-.76,2.13-1.55,3.14-2.37.51-.4,1-.82,1.47-1.24a3.52,3.52,0,0,0,.35-.31l.37-.36c.39-.38.72-.8,1.08-1.2l.13-.15,2.09,1.19c1.84,1,2.37,1.39,2.52,2.17a3.76,3.76,0,0,1,.1.53c0,.53-1,.57-2.53-.07l-1.38-.63-.16-.09h0l-.09,0-.11,0-.06.13c-.06.07.07,0-.21.23s-.75.67-1.14,1c-.77.63-1.55,1.23-2.34,1.82-1.58,1.16-3.21,2.29-4.83,3.4-3,2.09-6.13,4.12-9,6.29Z"/><path class="cls-1" d="M323.08,281.62c15.64-1.67,34-2,52.1-2.06l55.4-.14q.09,64.5.18,129.09,0,31.42,0,62.87l-96.59-.1H89.36V364.67q-.08-38.07-.14-76.12c0-3.09,0-6.28,0-9.37h4.12l2.45,0c10.83.18,13.35.93,5.37,1.49-1.81.13-3.84.34-5.82.34l-4.23,0c0,2.1.06,4.15.08,6.18s.09,4.23.14,6.32c.1,4.16.21,8.26.32,12.41.22,8.3.42,16.79.41,26.36-.06,38.35.2,76.78.3,115.19q0,10.35,0,20.74l22.18,0,58.85.22,254.55.05c0-88.75,0-160.14,0-186.5l-70.6,0C347.72,282,338.25,281.82,323.08,281.62Z"/><path class="cls-1" d="M203.64,280.15a3.6,3.6,0,0,1-3,1.51c-3.52.13-7,.22-10.56.24-3,0-6.06-.09-9.09-.09-5.22,0-10.43,0-15.64,0-1.54,0-3.08,0-4.62,0s-2.95.07-4.42.1a3.05,3.05,0,0,1-.74,0c-.63-.13-.78-.68-.32-1.09.11-.1.23-.25.34-.25,1.15,0,2.06-.74,3.26-.72,2.23,0,4.46-.15,6.7-.22.89,0,1.78,0,2.68,0,1.14,0,2.27.13,3.42.16,3.11.1,29.33,0,30,0C202.2,279.86,202.76,280,203.64,280.15Z"/><path class="cls-1" d="M260.18,424.45a13.34,13.34,0,1,0,13.33,13.34A13.35,13.35,0,0,0,260.18,424.45Zm-.6,20a2.27,2.27,0,0,1-1.5.09c-.12,0-1.33-.67-1.3-1,.05-.61-.14-3.25-.08-3.56.12-.87,0-8.2,0-8.39s.24-.31.45-.55c1.65.25,2,.54,2,.84a24.68,24.68,0,0,1,.34,3c0,.84-.14,5.45-.13,6.9,0,.44,0,.86,0,1.29A10.69,10.69,0,0,1,259.58,444.42Zm4.29,0a2.24,2.24,0,0,1-1.49.09c-.14,0-1.33-.67-1.31-1,0-.61-.13-3.25-.09-3.56.13-.87,0-8.2,0-8.39s.23-.31.44-.55c1.67.25,2,.54,2,.84a19.73,19.73,0,0,1,.33,3c0,.84-.11,1.68-.13,2.54,0,1.45,0,2.91,0,4.36C263.72,442.13,263.94,444.36,263.87,444.42Z"/><path class="cls-2" d="M260.72,424.94a12.93,12.93,0,1,1-1.23,0c.9,0,.94-1-.05-.94a13.73,13.73,0,1,0,1.32,0C260,424,260,424.91,260.72,424.94Z"/><path class="cls-2" d="M260.06,444.18c0-.34-.09-.64-.13-.93a5,5,0,0,1,0-.87l0-1.83.07-3.69,0-1.85c0-.61-.12-1.24-.18-1.86l-.11-.94-.06-.48a1,1,0,0,0-.48-.65,3.43,3.43,0,0,0-1-.37c-.35-.08-.52-.11-1.2-.22l-.26.3-.17.18a1,1,0,0,0-.3.6c0,.36,0,.56,0,.84V434l0,3.15c0,1.08,0,2.05-.06,3.16s.11,2.1.09,3.16a.92.92,0,0,0,.35.7,2.8,2.8,0,0,0,.4.32l.41.25a2.41,2.41,0,0,0,.5.23,3.4,3.4,0,0,0,1.49,0,.33.33,0,0,0,.12-.57c-.2-.15-.26-.38-.35-.34a2.71,2.71,0,0,1-1,0l-.28-.14-.34-.21a1.83,1.83,0,0,1-.29-.23l-.05,0c0-1-.07-2.12-.09-3.14s.06-2.12.06-3.15l0-3.15v-2.31l.06-.07.1-.11.62.13a2.61,2.61,0,0,1,.72.25l.06.05.05.43.1.89c.06.6.17,1.19.18,1.8l0,1.83-.07,3.68,0,1.84a5.32,5.32,0,0,0,0,1c0,.31.09.62.12.89,0,.05.06.09.15.08.29,0,.27,0,.31.08a.15.15,0,0,0,.16.07.91.91,0,0,0,.17-.08A.28.28,0,0,0,260.06,444.18Z"/><path class="cls-2" d="M264.36,444.21c0-.65-.08-1.25-.13-1.86l0-.45c0-.15,0-.27,0-.44v-.92c0-1.21,0-2.47,0-3.65,0-.59.12-1.22.11-1.87a16.81,16.81,0,0,0-.13-1.89c0-.31-.08-.62-.13-.93l-.09-.49a1,1,0,0,0-.49-.64,3.58,3.58,0,0,0-1-.36c-.35-.08-.52-.11-1.2-.22l-.26.3-.17.19a1,1,0,0,0-.29.6c0,.35,0,.56,0,.84v6.3l0,.77a3.49,3.49,0,0,1,0,.35,4.2,4.2,0,0,0,0,.47c0,1.07.12,2.09.1,3.15a1,1,0,0,0,.35.7,3.5,3.5,0,0,0,.4.32l.41.25a2.3,2.3,0,0,0,.51.23,3.35,3.35,0,0,0,1.48,0,.33.33,0,0,0,.12-.57c-.19-.15-.26-.38-.35-.34a2.52,2.52,0,0,1-1,0l-.1-.05-.18-.09-.34-.21a2.43,2.43,0,0,1-.29-.22l0-.05c0-1-.08-2.12-.1-3.14a1.8,1.8,0,0,1,0-.33,3.34,3.34,0,0,0,0-.43l0-.8v-7.05l.06-.07.1-.11c-.08,0,.36.06.61.13a2.82,2.82,0,0,1,.73.25l.07.05.07.42.13.89a17.93,17.93,0,0,1,.12,1.79c0,.57-.07,1.17-.11,1.8,0,1.27,0,2.47,0,3.71v.92c0,.14,0,.33,0,.49l0,.47c0,.61.1,1.23.12,1.81C263.41,444.38,264.34,444.61,264.36,444.21Z"/><path class="cls-1" d="M222.54,365.22c-1.67-4.41-1.1-10.09.93-15.05a39.43,39.43,0,0,1,43.79-24.11,25.35,25.35,0,0,1,2.84.65,21.37,21.37,0,0,1,2.8.83c.91.34,1.83.66,2.73,1l2.63,1.28a40.11,40.11,0,0,1,9.42,6.82,41.39,41.39,0,0,1,7,9.24,42,42,0,0,1,4.08,10.87,40.89,40.89,0,0,1-.76,19.81c-.2.81-.55,1.57-.81,2.36a23.49,23.49,0,0,1-.92,2.33A38.94,38.94,0,0,1,294,385.7a40,40,0,0,1-6.17,7.85,40.48,40.48,0,0,1-3.8,3.25c-.67.49-1.32,1-2,1.48l-2.13,1.3c-.36.21-.71.45-1.08.64l-1.13.54-2.26,1.08-2.35.87-1.18.43-1.21.31a39.34,39.34,0,0,1-19.81.39,37.71,37.71,0,0,1-10.93-4.4,38.26,38.26,0,0,1-9.16-7.41,42.07,42.07,0,0,1-3.57-4.4c-.53-.78-1-1.6-1.5-2.4-.25-.4-.51-.79-.73-1.21l-.63-1.28c-.39-.86-.88-1.68-1.2-2.57l-1-2.66c-.33-.89-.51-1.82-.77-2.73L221,373.4c-.1-.46-.15-.93-.24-1.4a20.85,20.85,0,0,1-.46-3.78c0-3.26.74-3.94,1.41-1.65a7.45,7.45,0,0,1,.42,1.64c0,.35,0,.7.09,1l.18,1c.13.66.27,1.3.42,1.93a11.51,11.51,0,0,0,.56,1.84l.65,1.79c.44,1.19,1.07,2.31,1.57,3.52s1.26,2.35,1.88,3.65A36.07,36.07,0,0,0,238,394.85a37.35,37.35,0,0,0,14.46,6.33,40.55,40.55,0,0,0,12.63.4,37,37,0,0,0,15.18-5.44c.8-.47,1.86-1.34,3.26-2.35l2.14-1.93a10.52,10.52,0,0,0,1.15-1.16l1.19-1.3c.2-.23.42-.45.62-.69s.38-.5.57-.76l1.2-1.6a19,19,0,0,0,1.13-1.76c.37-.62.78-1.23,1.13-1.89l1-2.08c.17-.35.36-.7.51-1.07l.42-1.13c.27-.77.58-1.54.84-2.34s.42-1.64.64-2.48a36.93,36.93,0,0,0-41.73-44.91,21.77,21.77,0,0,0-2.83.54c-.92.25-1.84.45-2.73.73l-2.6,1c-.86.29-1.64.76-2.45,1.12l-1.19.58c-.39.19-.75.44-1.12.66-.73.45-1.47.88-2.17,1.33a40.59,40.59,0,0,0-3.8,3,36.65,36.65,0,0,0-9,12.12c-.2.42-.41.82-.57,1.21l-.42,1.13-.67,1.84c-.34,1-.47,1.72-.54,1.92-.18.64-.36,1.28-.56,1.94s-.27,1.37-.42,2.12A39.18,39.18,0,0,0,222.54,365.22Z"/><path class="cls-1" d="M233.16,368.46c3.06-1.39,6.66-1.67,10.2-1.71l2.23,0h1.11a1.18,1.18,0,0,0,.55-.15,1.07,1.07,0,0,0,.51-.91l0-2.22v-1.11a7.12,7.12,0,0,1,.05-1.32,3.23,3.23,0,0,1,2.12-2.49,3.27,3.27,0,0,1,3.23.63,3.22,3.22,0,0,1,.95,1.43,3.11,3.11,0,0,1,.16.85V362l.06,8.9v1.67a.85.85,0,0,0,0,.28.86.86,0,0,0,.58.62,1.46,1.46,0,0,0,.22,0,1.56,1.56,0,0,0,.27,0,.84.84,0,0,0,.39-.19A.82.82,0,0,0,256,373a.78.78,0,0,0,0-.22,1.18,1.18,0,0,0,0-.2v-.28l0-15.32,0-3.83V351.2a4,4,0,0,1,0-.64,3.74,3.74,0,0,1,.19-.73,3.33,3.33,0,0,1,2.13-2,3.1,3.1,0,0,1,.74-.13h.32l.37,0a3.29,3.29,0,0,1,2.43,1.57,3.13,3.13,0,0,1,.46,1.41c0,.29,0,.43,0,.59v28.21a1.16,1.16,0,0,0,0,.18,1,1,0,0,0,.45.55,1.1,1.1,0,0,0,.35.11h.23a.48.48,0,0,0,.18,0,.92.92,0,0,0,.57-.43.66.66,0,0,0,.12-.33,1.1,1.1,0,0,0,0-.24V357.2a3.3,3.3,0,0,1,2.63-3.25,5,5,0,0,1,.72-.06,3.22,3.22,0,0,1,.74.08,3.3,3.3,0,0,1,2.27,1.84,3.39,3.39,0,0,1,.29,1.43v8.42a.41.41,0,0,0,0,.11.91.91,0,0,0,.43.65.81.81,0,0,0,.37.12h2.66l7.45-.07c.84,0,1.72-.06,2.5,0,2.13.15,2.62.78,1.05,1.24a4.37,4.37,0,0,1-1.13.29c-3.86,0-6.93.83-11,.81h-1.4a3.16,3.16,0,0,1-3.08-2.39,4,4,0,0,1-.1-.95v-.7l-.07-5.64,0-1.41v-.61a1.32,1.32,0,0,0-.09-.3.94.94,0,0,0-.43-.43,1.2,1.2,0,0,0-.64-.07.87.87,0,0,0-.71.81l0,2.71c0,3,0,6,0,9l-.09,5.77-.06,2.88,0,1.44c0,.26,0,.41,0,.84a3.25,3.25,0,0,1-1.53,2.39,3.36,3.36,0,0,1-2.35.41,3.19,3.19,0,0,1-2.33-1.84,3.23,3.23,0,0,1-.24-.82,3.27,3.27,0,0,1,0-.44v-.31c0-.4,0-.82,0-1.24,0-3.43,0-7.76,0-12.66V351a.57.57,0,0,0,0-.14,1,1,0,0,0-.06-.25,1.1,1.1,0,0,0-.31-.43,1.06,1.06,0,0,0-.48-.22,1.44,1.44,0,0,0-.31,0,1.09,1.09,0,0,0-.26,0,1.07,1.07,0,0,0-.71.75,1.21,1.21,0,0,0,0,.3v3.86c0,2.95,0,5.93,0,8.89v8.8a3.24,3.24,0,0,1-1.42,2.74,3.25,3.25,0,0,1-5-2.07,2.58,2.58,0,0,1,0-.39V371c-.22-4.91.85-12.83-1.92-9.94-.14.26-.14.38-.13,1v3.54l0,.27a3.06,3.06,0,0,1-.25,1,3.14,3.14,0,0,1-1.3,1.46,3.24,3.24,0,0,1-1.72.45h-6.77C238,368.8,236.13,368.63,233.16,368.46Z"/><path class="cls-1" d="M319.91,84.63a2,2,0,0,1,1.85-1.51,13.91,13.91,0,0,1,3.58.15,10.16,10.16,0,0,1,3.5,1.22,6.73,6.73,0,0,1,2.43,2.29,6.92,6.92,0,0,1,1,3.22,11.23,11.23,0,0,1-1.19,5.31,19.26,19.26,0,0,1-2.81,4.44,16.79,16.79,0,0,1-2.25,2.21,11.54,11.54,0,0,1-2.61,1.68,1.39,1.39,0,0,1-.5.19c-.48,0-.69-.42-.52-.87,0-.11.06-.26.13-.29.69-.26.89-1.1,1.49-1.45a10.59,10.59,0,0,0,2.82-2.84l1-1.29a16.93,16.93,0,0,0,1.2-1.71,12,12,0,0,0,1.29-3.3,7.11,7.11,0,0,0,.17-1.32c0-.22,0-.45,0-.69l-.12-.68A4.83,4.83,0,0,0,329,86.94a9.1,9.1,0,0,0-5.1-2.06,18.22,18.22,0,0,0-2.76-.08A10.78,10.78,0,0,1,319.91,84.63Z"/><path class="cls-1" d="M336.17,88.44c-.47-1-.24-1.43,0-1.59a7.11,7.11,0,0,1,3-1.13A6.76,6.76,0,0,1,342,86a9.2,9.2,0,0,1,4,2.38l.91,1c.26.33.55.65.83,1,0,0,.13.09.13.17s-.4.52-.78.62c-.09,0-.23.08-.25.06-.2-.24-.86-.06-1-.32-.28-.51-.83-.77-1.24-1.14-.16-.15-.34-.27-.48-.43a5.69,5.69,0,0,0-.57-.63A5.8,5.8,0,0,0,340,87.56a6.91,6.91,0,0,0-2.24.43c-.59.23-1,.45-1,.46A2.6,2.6,0,0,1,336.17,88.44Z"/><path class="cls-1" d="M325.81,115.17a4.44,4.44,0,0,1-2.39-.24,3.06,3.06,0,0,1-.85-.42,3.92,3.92,0,0,1-1.34-2.63c-.06-.4-.08-.78-.1-1.15a3.93,3.93,0,0,1,.24-1.4c0-.15,0-.13,0,0s.24.33.36.58a14.53,14.53,0,0,1,1.16,2.2,1.65,1.65,0,0,0,.83.76,3.6,3.6,0,0,0,1.34.34,6.08,6.08,0,0,0,1-.07,7.41,7.41,0,0,0,1.62-.41c.4-.18.78-.36,1.2-.51l.28-.1c.36-.11.52-.08.59-.12l.05,0a1.72,1.72,0,0,0-.24.33c-.27.33-.5.76-.8,1.11a4.91,4.91,0,0,1-1,1,3.6,3.6,0,0,1-.92.52,4.11,4.11,0,0,1-1.06.34Z"/><path class="cls-1" d="M272.31,226c11.8,10.49,27.91,13.49,43.27,12.72,1.06-.06,4.09-1.73,1.61-1.61-14.76.75-30.05-2.39-41.34-12.42-.78-.69-4.18.74-3.54,1.31Z"/></g></svg>