<svg id="Layer_1" data-name="Layer 1" xmlns="http://www.w3.org/2000/svg" width="520" height="520" viewBox="0 0 520 520"><defs><style>.cls-1{fill:#221f1f;}.cls-2{fill:#232020;}</style></defs><title>Notioly v2</title><g id="_62.Playing_guitar" data-name="62.Playing guitar"><path class="cls-1" d="M421.42,262.15c-1.6-.17-2.25-3.45,0-3.82C424.29,257.88,422.72,262.25,421.42,262.15Z"/><path class="cls-1" d="M414.1,268c-1.6-.18-2.25-3.46,0-3.82C417,263.75,415.39,268.12,414.1,268Z"/><path class="cls-1" d="M419.09,304.59c-1.6-.17-2.25-3.45,0-3.81C422,300.32,420.39,304.7,419.09,304.59Z"/><path class="cls-1" d="M426.94,305.59c-1.6-.17-2.25-3.45,0-3.81C429.81,301.32,428.24,305.7,426.94,305.59Z"/><path class="cls-1" d="M286.51,171c4.37-27.18-9.41-69.47-22.89-59.39-1,.79-6.44-3.82-10.12-3.2-20,3.33-11.08,52.89-8.9,65.56,5.5,32.08,9.15,66.07-19.16,77.79-36,14.93-46.25-33.33-40.76-32.7,4,.45,10.72,1.85,14.93-.17,16.1-7.73-.32-36.2-4.36-50.73-10.34-37.23-2.25-108.5,53.57-82.37C280.39,45.21,315,138.11,286.51,171Z"/><path class="cls-1" d="M194.24,156a97.93,97.93,0,0,0,2,9.93,77.42,77.42,0,0,0,3.1,9.62c2.4,6.39,5,12.78,6.84,19.52a45.67,45.67,0,0,1,1.74,10.43,20.57,20.57,0,0,1-.48,5.45,13.78,13.78,0,0,1-2.31,5.16,12.32,12.32,0,0,1-4.35,3.65,9.84,9.84,0,0,1-2.7,1.05,16.67,16.67,0,0,1-2.76.39,31.59,31.59,0,0,1-5.35-.18c-.87-.09-1.74-.2-2.59-.32l-2.3-.31a.25.25,0,0,0-.3.2s0,0,0,0l0,.09-.06.36a6.63,6.63,0,0,0-.07.79,18.78,18.78,0,0,0,.27,3.47,37.24,37.24,0,0,0,1.88,7,37.9,37.9,0,0,0,9.15,14.34,23.57,23.57,0,0,0,15.06,6.67,32.42,32.42,0,0,0,14.62-2.95,36.86,36.86,0,0,0,6.6-3.65,31.75,31.75,0,0,0,5.59-5,31.2,31.2,0,0,0,4.24-6.22,37.05,37.05,0,0,0,2.86-7,61.83,61.83,0,0,0,2.41-15.11c.47-10.29-.72-20.65-2.25-30.9-.76-5.14-1.69-10.25-2.5-15.41s-1.47-10.34-1.95-15.55c-.42-4.62-.68-9.27-.68-13.93a75.44,75.44,0,0,1,1.17-14,32.94,32.94,0,0,1,2-6.81,18.1,18.1,0,0,1,4-6,12.23,12.23,0,0,1,6.59-3.25,8.4,8.4,0,0,1,3.77.61,28.88,28.88,0,0,1,3.23,1.48c.6.3,1.2.62,1.77.87a4.47,4.47,0,0,0,.68.27.45.45,0,0,0,.43-.09l.86-.54a9.51,9.51,0,0,1,1.08-.47c.18-.07.36-.15.55-.21l.59-.1a4.77,4.77,0,0,1,1.19-.13,7.82,7.82,0,0,1,4.41,1.38A20,20,0,0,1,278,117a62.42,62.42,0,0,1,6.51,15.6,102.13,102.13,0,0,1,3.2,16.52,88.24,88.24,0,0,1,.28,16.81c-.1.92-.2,1.72-.29,2.38s-.22,1.2-.31,1.62c-.2.83-.35,1.19-.46,1.11s-.21-2-.26-5.07a132.25,132.25,0,0,0-4.12-30.51,67.6,67.6,0,0,0-6.2-16.15,20.88,20.88,0,0,0-5.17-6.31,5.84,5.84,0,0,0-3.2-1.24l-.4,0a2.57,2.57,0,0,0-.4.07,2.89,2.89,0,0,0-.8.18c-.26.12-.53.2-.79.33l-1,.6a3.91,3.91,0,0,1-.75.35,2.83,2.83,0,0,1-.82,0,5.27,5.27,0,0,1-1.4-.39c-.62-.26-1.13-.53-1.65-.79-1-.53-2-1-2.93-1.43a8.34,8.34,0,0,0-2.71-.73,3,3,0,0,0-.54,0l-.69.17a5.4,5.4,0,0,0-1.38.43c-3.63,1.4-6,5.22-7.22,9.3a38,38,0,0,0-1.45,6.37c-.34,2.17-.52,4.39-.65,6.61a122.91,122.91,0,0,0,.14,13.43,256.46,256.46,0,0,0,3.34,26.91,271.59,271.59,0,0,1,3.45,27.27,97.09,97.09,0,0,1-.84,22.16,48.77,48.77,0,0,1-3.1,10.89,36.48,36.48,0,0,1-6,9.74,33.71,33.71,0,0,1-8.93,7.24,42.45,42.45,0,0,1-10.64,4.26,29.59,29.59,0,0,1-11.52.64,25.21,25.21,0,0,1-10.71-4.33,36.38,36.38,0,0,1-11.68-14.69,43.6,43.6,0,0,1-3-8.92,26.62,26.62,0,0,1-.64-4.75,10.89,10.89,0,0,1,.2-2.56,3.3,3.3,0,0,1,.81-1.6,1.89,1.89,0,0,1,1.65-.54l4,.52c1.25.16,2.49.28,3.72.34,2.45.09,4.93,0,6.93-1.12a10.16,10.16,0,0,0,4.77-4.89,15.57,15.57,0,0,0,1.25-7,52.71,52.71,0,0,0-3-14.63c-1.56-4.81-3.43-9.53-5.24-14.29-.88-2.36-1.76-4.73-2.52-7.16-.38-1.23-.68-2.46-1-3.68s-.57-2.47-.84-3.71a120.9,120.9,0,0,1-2.05-15,117.15,117.15,0,0,1,1.53-30.2,66.79,66.79,0,0,1,7.71-21.65,36.88,36.88,0,0,1,7.37-9,27.06,27.06,0,0,1,10.12-5.72,17,17,0,0,1,2.83-.72l1.43-.3a13.68,13.68,0,0,1,1.45-.16c1-.07,1.93-.19,2.9-.22l2.91.1a20,20,0,0,1,2.88.3c.95.15,1.92.23,2.86.44l2.8.68,1.4.34,1.37.46a53.29,53.29,0,0,1,5.38,2l2.4,1c.12,0,.25.13.36.12l.26-.31.78-1a27.39,27.39,0,0,1,9-7.19,15.57,15.57,0,0,1,9-1.25,19.25,19.25,0,0,1,8.23,3.67,34,34,0,0,1,6.33,6.24,54.06,54.06,0,0,1,4.88,7.34,82.25,82.25,0,0,1,6.77,16.16,100.84,100.84,0,0,1,3.61,17.14,88,88,0,0,1,.55,15.41,64.44,64.44,0,0,1-1.76,12.1,46.28,46.28,0,0,1-2.69,7.92,25.5,25.5,0,0,1-5,7.68,19.27,19.27,0,0,1-2,1.86c-.38.28-.38.09,0-.51.18-.3.44-.7.77-1.2l1.15-1.86a49.85,49.85,0,0,0,5.65-14.42c2.27-9.93,2.07-20.48.4-30.79a96.68,96.68,0,0,0-3.8-15.28,76.4,76.4,0,0,0-6.47-14.41c-2.68-4.5-5.95-8.76-10.09-11.73a16.58,16.58,0,0,0-6.75-3,12.5,12.5,0,0,0-7.14.81A20.3,20.3,0,0,0,254,82.51a36.32,36.32,0,0,0-2.7,2.84l-.84,1-.65.79-.32.39-.17.2a1.36,1.36,0,0,1-.23-.09l-2.92-1.24c-1.24-.5-2.45-1.1-3.72-1.52l-3.79-1.27c-1.28-.35-2.58-.63-3.86-1a14.75,14.75,0,0,0-1.95-.34l-2-.28a31.81,31.81,0,0,0-11.52.72,26.27,26.27,0,0,0-10.05,5.41,35.43,35.43,0,0,0-7.38,9,59.47,59.47,0,0,0-4.73,10.91,95.06,95.06,0,0,0-4.07,23.69c-.17,4-.2,8.08,0,12.11s.57,8.06,1.18,12Z"/><path class="cls-1" d="M283.29,186.23a15.08,15.08,0,0,1-13.19,6.63,19.78,19.78,0,0,1-5.38-.87,29.66,29.66,0,0,1-8.33-4.3,44.78,44.78,0,0,1-6.86-6.18,53.72,53.72,0,0,1-5-6.42,24,24,0,0,1-4.21-9.61c-.15-1.12.5-1,1.27-.29a12.28,12.28,0,0,1,2.48,3.72,40.37,40.37,0,0,0,5.2,8.51,49.49,49.49,0,0,0,7,7.32,25.19,25.19,0,0,0,10.94,5.43,15.37,15.37,0,0,0,6.58,0,13.68,13.68,0,0,0,3.05-1.15,14,14,0,0,0,2.65-1.95,19.31,19.31,0,0,0,4.43-7,45.75,45.75,0,0,0,2.63-12.67,77.42,77.42,0,0,0,0-10l-.15-2.18c-.16-2.74-.08-3.62.52-4.25a2.84,2.84,0,0,1,.41-.43c.47-.3,1,.8,1.23,2.83a70,70,0,0,1-.15,19c-.76,4.77-2.06,9.67-5,13.92Z"/><path class="cls-1" d="M258.5,196.48c5.62-.59,8.94-5.23,7.19-4.85-6.13,1.35-18.55-12.27-19.9-16.78C245.82,177,249.66,197.41,258.5,196.48Z"/><path class="cls-1" d="M258.39,197.23c2.66-.43,7.25-1.66,8.46-4.5.8-1.87-.14-1.56-1.64-1.76-4.67-.63-8.56-4.2-11.75-7.45-2.47-2.53-5.39-5.56-6.58-9-.29-.82-2.23-.47-2.19.38.37,7.23,4.36,22.71,13.7,22.29,1.2-.06,1.7-1.57.22-1.5-7.68.34-11.42-15-11.72-21l-2.19.39c1.8,5.09,6.64,9.62,10.72,12.94a19.68,19.68,0,0,0,7.08,4.1c.46.13,2.57.06,2.79.25,0,0-.37.25-1,.7a12.47,12.47,0,0,1-5.64,2.6C257.46,195.91,256.91,197.47,258.39,197.23Z"/><path class="cls-1" d="M155.54,289.48c-5.25-3.47-10.41-7.09-15.39-11A115.48,115.48,0,0,1,126,265.82a41.86,41.86,0,0,1-8-11.56,18.81,18.81,0,0,1-1.53-6.24,12.73,12.73,0,0,1,1.29-6.43c2-3.93,5.27-6.74,8.64-9.05a72.36,72.36,0,0,1,10.74-5.88c3.69-1.69,7.46-3.18,11.25-4.58,6.72-2.49,13.56-4.75,20.29-7,8.65-2.88,17.32-5.75,25.85-8.81,2.65-1,2.54-.26.53,1.19a45.83,45.83,0,0,1-11,5.25c-8.84,3-17.73,5.72-26.53,8.68s-17.58,6.08-25.7,10.45a44.47,44.47,0,0,0-6.9,4.55,18.4,18.4,0,0,0-5.13,6.19,11.2,11.2,0,0,0-.64,7.7,24.21,24.21,0,0,0,3.42,7.46,70.38,70.38,0,0,0,12.58,13.66,179,179,0,0,0,14.91,11.49c6.35,4.44,12.89,8.61,19.52,12.63,10,6.08,20.34,11.88,30.55,17.53,4,2.21,7.92,4.36,11.81,6.63a62.47,62.47,0,0,1,5.74,3.68,9.87,9.87,0,0,1,1.38,1.25c.44.5.71.89,1.08,1.33a29.6,29.6,0,0,0,2.17,2.43,19.74,19.74,0,0,0,4.41,3.41,12.11,12.11,0,0,0,6.86,1.61c.79,0,1.41-.14,2-.16s1-.08,1.39-.08a8.62,8.62,0,0,1,1.14,0c.44.08,0,.51-1.22,1.22a5.61,5.61,0,0,1-1.12.49,8.42,8.42,0,0,1-1.46.44,11.24,11.24,0,0,1-3.9.14,14.71,14.71,0,0,1-6.09-2.37,24.71,24.71,0,0,1-4.85-4.26c-.71-.79-1.4-1.63-2-2.45a11,11,0,0,0-2-1.71c-1.63-1.12-3.4-2.19-5.18-3.24-7.17-4.16-14.65-8.18-22.05-12.35-11-6.18-22-12.59-32.62-19.54Z"/><path class="cls-1" d="M227.46,328.77c3.76,3.63,9.35,3.45,14.13,2.55,1.24-.23,2.51-1.66.49-1.28a24.39,24.39,0,0,1-7,.38c-.18,0,.7.15,0-.07-.41-.13-.83-.28-1.24-.44a10.7,10.7,0,0,1-3.69-2.18c-.61-.59-3.3.48-2.71,1Z"/><path class="cls-1" d="M244,327c-1.57.13-4,.35-5.5-.17.55.19.28.08,0-.19a8.83,8.83,0,0,0-1.19-.84c-1.16-.8-2.34-1.57-3.54-2.3-.79-.49-3,.63-1.94,1.29,1.76,1.07,3.74,3.07,5.73,3.61a19.22,19.22,0,0,0,6.15.16c1.29-.11,2-1.71.29-1.56Z"/><path class="cls-1" d="M157.52,245.36l4.65-1.36c.57-.17,1.11-.4,1.67-.57,2-.57,4-1.11,6-1.74a22.64,22.64,0,0,0,2.56-1,15,15,0,0,1,3.25-1.29c.73-.14.8,2.35-.47,2.91a37.6,37.6,0,0,1-6.93,2.23c-1.43.3-2.82.9-4.23,1.34l-4.67,1.41-2.87.88c-1.43.47-2.88.92-4.27,1.48-1.08.44-2.08,1-3.11,1.53-.22.12-.43.25-.66.36-.86.4-1.19.37-1.63-.14-.1-.12-.22-.23-.3-.35-.28-.42-.08-1,.51-1.36a26.87,26.87,0,0,1,5.86-2.82c1.54-.57,3.1-1.06,4.66-1.57Z"/><path class="cls-1" d="M205.13,300.08,189.92,287l-5.62-4.69c-6.53-5.58-13.07-11.16-19.68-16.65-2.93-2.44-5.93-4.82-8.92-7.13-1.92-1.49-3.86-3-5.8-4.41l-2.9-2.19c-1-.74-1.91-1.49-2.86-2.17-1.18-.87-.74-1.32.67-1.11a14.23,14.23,0,0,1,6,2.83c8,6.05,15.57,12.41,23.11,19,4.51,4,9.38,7.85,14.06,11.81l15.38,13.11,9.43,8.12,1.78,1.55.89.78.44.37.4.31a10,10,0,0,0,4.13,1.27,54,54,0,0,0,9.25,0c2.13-.14,4.25-.32,6.41-.38a21.53,21.53,0,0,1,3.29.14,8.66,8.66,0,0,1,1.73.41,4,4,0,0,1,1.9,1.43,1.67,1.67,0,0,1,.27,1.15,2.38,2.38,0,0,1-.54,1.09,4.84,4.84,0,0,1-.91.83l-.25.18-.18.12L241,313a15,15,0,0,1-1.48.78,15.52,15.52,0,0,1-4.15,1.32,3,3,0,0,1-2-.27c-.21-.12-.51-.29-.53-.48a.23.23,0,0,1,0-.15.4.4,0,0,0,.09-.17,1.81,1.81,0,0,1,.56-.31c.59-.25,1.61-.63,2.89-1.14a22.46,22.46,0,0,0,3.09-1.46,5.78,5.78,0,0,0,.69-.43.52.52,0,0,0,.15-.11l.05-.06c.06-.07.1-.18,0-.24a.35.35,0,0,0-.14-.06s0,0-.15-.05l-.44-.12a13.27,13.27,0,0,0-2.09-.22c-1.49-.05-3.05,0-4.64.11-3.19.19-6.47.5-9.87.44a22.3,22.3,0,0,1-5.4-.65,9.27,9.27,0,0,1-2.81-1.25l-.64-.5-.47-.41-.95-.83-7.68-6.59Z"/><path class="cls-1" d="M232.87,314.48c1.5,2.86,2.68,6.28,5.51,8.06,3.16,2,6.06,2.91,9.77,2.07,1.63-.37,1.39-1.29-.24-.93-2.67.6-6.19-1.11-8.19-2.91s-2.93-4.82-4.1-7c-.37-.71-3,.26-2.75.74Z"/><path class="cls-1" d="M197.46,302.94a14.44,14.44,0,0,1-1.68,1.45c-.57.46-1.23.8-1.84,1.2a12.69,12.69,0,0,1-1.41.75,15,15,0,0,1-2.67.83c-.9.2-1.82.25-2.72.38s-1.6.07-2.39.15a8.42,8.42,0,0,1-3-.21c-.6-.21.5-2.45,1.5-2.4.47,0,.93.07,1.39.08s.91,0,1.37,0c.94.07,1.82-.09,2.79-.07A9.09,9.09,0,0,0,192,304a13.45,13.45,0,0,0,3.14-2.07,8.13,8.13,0,0,0,.84-.82,6.7,6.7,0,0,0,.79-.89,14,14,0,0,0,1-1.48,10.6,10.6,0,0,0,.84-1.6,11.6,11.6,0,0,0,.65-2.69c0-.19,0-.39.06-.59a1.32,1.32,0,0,1,.27-.72,1.29,1.29,0,0,1,.67-.24c.15,0,.3-.08.44-.1a.66.66,0,0,1,.64.21,1,1,0,0,1,.21.36,1.91,1.91,0,0,1,.08.45,11.29,11.29,0,0,1-1.5,5.59,13.78,13.78,0,0,1-1.2,1.87c-.22.3-.43.61-.67.89l-.76.82Z"/><path class="cls-1" d="M312,246.94c-.26-5.51-.72-11-1.52-16.44-.3-2-.73-3.94-1.14-5.88a45,45,0,0,0-3.18-9.91l-.61-1.12-.3-.56-.36-.51-.71-1-.83-.9a23.93,23.93,0,0,0-4.05-3.17,61.22,61.22,0,0,0-8.33-4.29c-3.68-1.61-7.5-3-11.09-4.93-2.2-1.21,1.64-1.92,5.89-.12,3.78,1.62,7.6,3.25,11.32,5.26a43.14,43.14,0,0,1,5.42,3.42,18.79,18.79,0,0,1,2.48,2.19,16.91,16.91,0,0,1,1.12,1.31l.93,1.4a48.83,48.83,0,0,1,5.09,14.73,144.47,144.47,0,0,1,2,16.77c.24,3.45.37,6.9.5,10.34.17,5.22.19,10.47.25,15.64.05,4,.2,8,.31,11.94l.09,2.61c.07,3.26,0,4.22-.57,5-.11.16-.22.39-.34.53s-.49,0-.77-.62a9.69,9.69,0,0,1-.54-2.78c-.53-7.16-.46-14.62-.6-22.12-.09-5.57-.21-11.16-.54-16.71Z"/><path class="cls-1" d="M363,308.63a27.58,27.58,0,0,0-2.27,2.54c-.36.45-.71.92-1,1.39l-.25.35a3.86,3.86,0,0,1-.33.43,4.84,4.84,0,0,1-.92.87,23,23,0,0,1-3.36,1.9c-1.12.52-2.25,1-3.37,1.47-1.65.67-3.28,1.37-4.94,2-5.87,2.08-11.8,3.89-17.85,5.41-1.35.32-2.69.65-4.1.9-.35.06-.71.11-1.09.15a3.24,3.24,0,0,1-1.32-.09,4,4,0,0,1-2-1.56,12.43,12.43,0,0,1-1.43-2.44,22.67,22.67,0,0,1-1-2.54,22.2,22.2,0,0,1-1.09-5.3c0-1.2.6-1,1.29-.19A11.58,11.58,0,0,1,320,318a19.3,19.3,0,0,0,1.87,4.5,3.34,3.34,0,0,0,.95,1,3.1,3.1,0,0,0,.77,0c.38,0,.8-.11,1.21-.18,3.38-.64,6.85-1.57,10.3-2.48a126,126,0,0,0,12.41-4.22c2.24-.85,4.48-1.75,6.6-2.78a15,15,0,0,0,2.89-1.71,8.55,8.55,0,0,0,1-1.28c.36-.5.74-1,1.13-1.48a21.45,21.45,0,0,1,7.06-6l.75-.35.41-.16c.26-.13.62-.17.77-.46s-.13-.25-.22-.34l-.38-.26-1-.62c-.49-.3-1-.6-1.45-.93-.25-.16-.49-.33-.72-.5l-.36-.28c-.16-.12-.31-.25-.46-.38a3.15,3.15,0,0,1-1.15-1.85,1.69,1.69,0,0,1,1.14-1.64,4.34,4.34,0,0,1,1.75-.36c.35,0,.52,0,.77,0s.47,0,.7.07a16.72,16.72,0,0,1,2.65.61,13.68,13.68,0,0,1,4.88,2.6,6.14,6.14,0,0,1,.91,1,3.19,3.19,0,0,1,.58,1.53,10.47,10.47,0,0,1,0,2,4,4,0,0,1-.41,1.44,1.91,1.91,0,0,1-1.16,1,2.86,2.86,0,0,1-.57.18c-.28,0-.4-.27-.33-.83a9.26,9.26,0,0,1,.17-.93,6.39,6.39,0,0,0,.07-1.06c0-.33,0-.69-.06-1.05,0-.17,0-.4-.05-.52a.64.64,0,0,0-.08-.2,3.77,3.77,0,0,0-1.13-1.16,13.3,13.3,0,0,0-3.81-1.82,12.23,12.23,0,0,0-2.08-.48,4.45,4.45,0,0,0-.5-.05l-.24,0h-.12v0a0,0,0,0,0,0,0h0l0,0,.22.16.44.32c.46.31.95.62,1.46.93l.92.55c.51.31,1,.63,1.51,1a2.54,2.54,0,0,1,.93,1.05l.15.52c.08.17,0,.44,0,.65a2.06,2.06,0,0,1-.55,1,3.74,3.74,0,0,1-1.3.83l-.84.35-.68.29-.74.35a13.3,13.3,0,0,0-1.4.84,17.9,17.9,0,0,0-2.57,2.14Z"/><path class="cls-1" d="M365.22,294.07a2.73,2.73,0,0,1-.35-.47,2.65,2.65,0,0,1-.33-.66l-.07-.24a2,2,0,0,1,0-.39,3,3,0,0,1,0-.42,2.49,2.49,0,0,1,.21-.51,1.76,1.76,0,0,1,.65-.63,2,2,0,0,1,.52-.21,3.39,3.39,0,0,1,1.2-.05,6.85,6.85,0,0,1,.85.14,26.68,26.68,0,0,1,2.94.86c.68.24,1.37.42,2,.69,1.17.47,2.32,1,3.46,1.51.57.27,1.14.54,1.71.83a11.91,11.91,0,0,1,1.76,1,3.55,3.55,0,0,1,1.27,1.77,4.7,4.7,0,0,1,.07,2,18.52,18.52,0,0,1-1.22,4c-.13.33-.75.29-1.28-.2a2.27,2.27,0,0,1-.61-2.26c.23-.69.46-1.32.59-1.86a2.39,2.39,0,0,0,.07-1.12c0-.2-.21-.42-.74-.76s-1.18-.69-1.79-1a33.24,33.24,0,0,0-4.81-2c-.9-.33-1.8-.64-2.69-.9-.45-.13-.89-.25-1.32-.34a4.74,4.74,0,0,0-.6-.08,2.11,2.11,0,0,0-.23,0h0a3.6,3.6,0,0,0-.16-.39c-.23-.31-.12,0,.2-.18l.18,0,.08,0h0s0,0,0,0l.07.11a.66.66,0,0,0,.18.23,1.52,1.52,0,0,0,.25.26,8.64,8.64,0,0,0,1.33,1,43.18,43.18,0,0,0,4.73,2.49l1,.44.5.24a5.72,5.72,0,0,1,.64.41,2,2,0,0,1,.68,1.36,9.25,9.25,0,0,1,.12,1.18c0,.32,0,.64,0,.95,0,1.17-.25,1.51-.91,1.69a2.54,2.54,0,0,1-.45.13c-.5.07-.86-.45-.94-1.27-.09-1.12-.23-2.85-.34-2.4,0,0,0,0-.09,0l-.38-.18-.83-.39-1.76-.83c-.89-.42-1.78-.88-2.67-1.4a12,12,0,0,1-2.73-2Z"/><path class="cls-1" d="M373.48,287.93l.56.19.35.14.61.24,1.21.51c.8.34,1.6.71,2.39,1.08.57.28,1.17.49,1.74.8a26.51,26.51,0,0,1,2.92,1.81,10.63,10.63,0,0,1,1.4,1.16,2.9,2.9,0,0,1,1,2,1.13,1.13,0,0,1,0,.32l-.13.73-.09.67c-.05.46-.1.91-.16,1.36a8.1,8.1,0,0,1-1,3.8c-.26.37-.77,0-1.19-.52a2.27,2.27,0,0,1-.65-1.79c.17-.68.3-1.42.43-2.18l.21-1.16.11-.6.07-.3,0-.15v0a.13.13,0,0,0,.05-.07s0,0,0-.15a5.29,5.29,0,0,0-.74-.84,15.86,15.86,0,0,0-3.83-2.26c-1.51-.75-3.06-1.44-4.63-2.06l-.71-.27-.37-.16-.79-.28a6.05,6.05,0,0,0-1.27-.31.24.24,0,0,0-.27.2.5.5,0,0,0,.06.34,2.31,2.31,0,0,0,.47.58,5.51,5.51,0,0,0,.93.64,4.09,4.09,0,0,0,.44.2l.21.1.39.22c.23.13.47.24.7.38.84.52,1,.84.86,1.49a2.06,2.06,0,0,1-.14.44c-.23.45-.74.58-1.44.29a16.72,16.72,0,0,1-1.55-.73c-.17-.08-.7-.42-1.14-.72s-.88-.64-1.3-1a6.7,6.7,0,0,1-1.75-2,2.46,2.46,0,0,1-.23-1.73,2.58,2.58,0,0,1,.51-.93l.76-.42a1.52,1.52,0,0,1,.52-.15,6.31,6.31,0,0,1,.74,0,22,22,0,0,1,3.78,1Z"/><path class="cls-1" d="M335.27,341.17c7.53-3.84,14.88-8.09,22.14-12.49,2.64-1.61,5.24-3.29,7.87-4.93L379.15,315l1.77-1.09a9.55,9.55,0,0,0,.86-.52l.33-.21.33-.31a17.88,17.88,0,0,0,2.49-3A60.18,60.18,0,0,0,389.1,303a49.4,49.4,0,0,0,2.89-6.55,15.29,15.29,0,0,0,.48-1.65l0-.28a.22.22,0,0,0,0-.21c0-.06-.06-.12-.11-.2l-.2-.32a8.74,8.74,0,0,0-2.35-2.26,14.51,14.51,0,0,0-2.28-1.28L387,290l-.29-.12-.17-.06-.57-.19a5.18,5.18,0,0,0-1.08-.18.8.8,0,0,0-.26,0c-.08,0-.18.1-.12.19a1.62,1.62,0,0,0,.31.46,8.87,8.87,0,0,0,1.15.94c.95.64,2,1.29,3.09,1.87,1.59.84,1.25,1.31-.39,1.21a11.78,11.78,0,0,1-3.2-.84l-.49-.2-.26-.12-.43-.24a18.63,18.63,0,0,1-1.72-1.12,6.9,6.9,0,0,1-2.4-2.67,2,2,0,0,1-.13-.61,1.64,1.64,0,0,1,0-.54,1.61,1.61,0,0,1,.26-.61,2,2,0,0,1,.82-.71,3.4,3.4,0,0,1,1.3-.26,8.21,8.21,0,0,1,1.86.21,17.85,17.85,0,0,1,2.15.59c.38.12.68.26,1,.38l.23.1.15.06.3.13a19.94,19.94,0,0,1,2.29,1.19,11.86,11.86,0,0,1,4,3.74l.2.35c.08.14.16.34.25.51l.25.53a3.72,3.72,0,0,1-.08.57l-.18.93-.18.63c-.12.42-.25.83-.4,1.21s-.28.79-.44,1.17a65.26,65.26,0,0,1-4.35,8.69c-.84,1.39-1.7,2.77-2.67,4.1-.48.67-1,1.32-1.55,2a12.29,12.29,0,0,1-1.94,1.85c-.25.16-.54.35-.77.48l-.55.32-1.21.73-2.44,1.54-4.92,3.16c-3.28,2.13-6.58,4.27-9.9,6.33-7.29,4.52-14.67,8.92-22.23,13-4.65,2.52-9.38,4.93-14.27,7-1.86.78-3.74,1.53-5.68,2.13a22.16,22.16,0,0,1-6.08,1.19,13.49,13.49,0,0,1-6.1-1.41,20.31,20.31,0,0,1-5-3.53,39.16,39.16,0,0,1-5.93-7.22,61.51,61.51,0,0,1-4.45-8.12c-.56-1.24-1.1-2.45-1.59-3.74-1.77-4.77-1.89-6.49-1.47-7.69a2.77,2.77,0,0,1,.34-.77c.23-.24.45.1.8.91s.81,2.14,1.43,3.83a73.36,73.36,0,0,0,7.18,14.65,35.58,35.58,0,0,0,5.17,6.31,18.2,18.2,0,0,0,3.13,2.44,12.1,12.1,0,0,0,3.49,1.56,10.69,10.69,0,0,0,2.75.4c.46,0,.92-.05,1.38-.08l1.45-.25a43.45,43.45,0,0,0,5.89-1.85c3.91-1.53,7.75-3.37,11.54-5.31Z"/><path class="cls-1" d="M278.87,223.17a9.51,9.51,0,0,1-.95,4.7,4.83,4.83,0,0,1-1.95,2,6.27,6.27,0,0,1-1.25.5,8,8,0,0,1-1.25.18,8.72,8.72,0,0,1-.9,0,6.06,6.06,0,0,1-1-.16l-.86-.28c-.26-.11-.5-.23-.75-.35a27.76,27.76,0,0,1-4.57-3.1,53.17,53.17,0,0,1-4-3.59c-1.15-1.1-2.28-2.24-3.38-3.38a17.72,17.72,0,0,1-3.67-5c-.26-.6.34-.8,1.13-.66a3.71,3.71,0,0,1,1.23.46,3.31,3.31,0,0,1,1.16,1,75.43,75.43,0,0,0,8.09,8.65,22.28,22.28,0,0,0,2.88,2.22,15.85,15.85,0,0,0,3.09,1.62c.14,0,.28.11.4.14a1.65,1.65,0,0,1,.32.06,6.11,6.11,0,0,0,.85,0,3.4,3.4,0,0,0,1.51-.47,3.66,3.66,0,0,0,1.47-2.83,18.19,18.19,0,0,0-.19-4.86c-.36-2.5-.91-5-1.47-7.54-.44-1.95-1-3.86-1.25-5.91a12.43,12.43,0,0,1-.11-1.38c0-1.78.46-2.42,1.17-2.53a1.73,1.73,0,0,1,.49-.06c.25,0,.42.23.51.53a5,5,0,0,1,.14,1.2,29.08,29.08,0,0,0,.74,5q.6,2.66,1.2,5.34a46.75,46.75,0,0,1,1.28,8.5Z"/><path class="cls-2" d="M190.26,314.79l-23,4.2-11.48,2.1-2.87.53-1.44.26-1.24.23-.71.14-.18,0c-.06,0,0,.11,0,.16v.36l0,1.39V325l0,1.48c0,1,.08,2,.16,3a43.17,43.17,0,0,0,.79,5.94,21.8,21.8,0,0,0,.85,3l.29.74c.16.34.41.8.61,1.2l.32.61,0,.08s.05,0,.08,0l.18,0,.36-.07,1.3-.24,11.48-2.1,23-4.2c1.06-.18.61-2.62-.45-2.41l-22.95,4.21-11.48,2.1-.14,0,0,0a.37.37,0,0,1,0-.11l-.24-.62a19.13,19.13,0,0,1-.75-2.63,43,43,0,0,1-.74-5.61c-.07-.95-.13-1.91-.15-2.86l0-1.43v-.69l4.5-.82,11.48-2.1,23-4.2C191.53,317.05,191.09,314.63,190.26,314.79Z"/><path class="cls-2" d="M240,323.46a11.19,11.19,0,0,0,2.19.58,7.76,7.76,0,0,0,1.19.08c.2,0,.42,0,.64,0a5.26,5.26,0,0,0,.52-.08l4-.68,7.91-1.37c5.28-.93,10.55-1.78,15.83-2.66L303.85,314l63.29-10.51c1.45-.23,1.05-2.68-.41-2.42l-63.29,10.52-31.64,5.25c-5.27.89-10.56,1.74-15.81,2.66l-7.89,1.37-3.95.68c-.15,0-.35.07-.47.07a1.89,1.89,0,0,1-.35,0,4.48,4.48,0,0,1-.81-.06,8.5,8.5,0,0,1-1.68-.44c-.48-.19-1,.25-1.24.8A1,1,0,0,0,240,323.46Z"/><path class="cls-2" d="M395.07,299,413,295l-5.43-19.56L239.64,307.2c-2.32.42-1.86,2.86.45,2.41l165.74-31.38L410,293.14l-15.43,3.44A1.23,1.23,0,1,0,395.07,299Z"/><path class="cls-1" d="M420.61,271.92c-1.16.52-2.33,1-3.49,1.56-.42.19-.81.44-1.23.63-1.5.65-3,1.28-4.51,1.94a18.41,18.41,0,0,0-1.91,1,8.61,8.61,0,0,1-2.47,1.26c-.59.12-1-2.27-.09-2.78a28.8,28.8,0,0,1,5.2-2.29,26.67,26.67,0,0,0,3.16-1.49l3.48-1.61c.72-.33,1.44-.65,2.15-1,1.07-.52,2.17-1,3.2-1.59.8-.45,1.52-1,2.28-1.54.16-.11.31-.24.49-.34.64-.39.93-.36,1.37.14.1.11.21.22.3.34a.94.94,0,0,1-.21,1.29,19.76,19.76,0,0,1-4.25,2.79c-1.13.6-2.29,1.14-3.44,1.71Z"/><path class="cls-1" d="M434.52,287.48l.48,2,.92,3.59-4.2.25c-.82,0-1.63.14-2.45.18l-8.65.31c-1.27.05-2.55.18-3.82.32a25.69,25.69,0,0,1-4.88.35c-1-.08.08-2.49,1.95-2.66a87.62,87.62,0,0,1,10-.4c2,0,4.09-.23,6.14-.34l2-.11h.85l-.1-.52-.06-.29-.16-.65-1-4c-.52-2-1-4.09-1.61-6.1-.46-1.55-1-3-1.58-4.56-.11-.33-.25-.66-.35-1-.4-1.26-.35-1.71.19-2.15a3.47,3.47,0,0,1,.37-.3c.44-.25,1,.16,1.38,1.05a62.09,62.09,0,0,1,2.87,8.48c.6,2.17,1.15,4.37,1.73,6.56Z"/><path class="cls-1" d="M415.91,287.78c-.23-1.62-.45-3.23-.69-4.85-.09-.58-.25-1.16-.33-1.75-.29-2.07-.53-4.16-.83-6.23-.14-.92-.34-1.83-.55-2.73a13.44,13.44,0,0,1-.65-3.5c0-.75,2.47-.28,2.75,1.06a46.53,46.53,0,0,1,1,7.21,42.13,42.13,0,0,0,.71,4.41c.26,1.62.49,3.25.74,4.87.16,1,.3,2,.47,3,.25,1.5.48,3,.8,4.51.25,1.15.63,2.25,1,3.38.07.25.16.48.22.74.23.93.13,1.26-.46,1.59a4,4,0,0,1-.41.21c-.46.19-.94-.12-1.22-.78a32.83,32.83,0,0,1-1.73-6.28c-.31-1.6-.57-3.23-.85-4.85Z"/><path class="cls-1" d="M422.35,285.83c-.24-2-.47-4-.73-6-.09-.73-.25-1.45-.33-2.18-.3-2.58-.56-5.17-.88-7.75-.14-1.14-.35-2.28-.57-3.4a21.39,21.39,0,0,1-.67-4.36c0-.92,2.49-.15,2.78,1.52a71.84,71.84,0,0,1,1.05,9c.09,1.81.5,3.65.74,5.49.27,2,.52,4,.78,6.05.16,1.24.31,2.48.49,3.72.26,1.88.49,3.77.82,5.62.26,1.44.65,2.83,1,4.24.07.31.17.61.23.92.23,1.17.13,1.57-.46,1.92a2.91,2.91,0,0,1-.41.24c-.47.19-.95-.22-1.23-1.06a48.34,48.34,0,0,1-1.77-7.86c-.33-2-.6-4-.89-6Z"/><path class="cls-1" d="M414.8,263.38c0-.07,0-.16-.3-.24a2.62,2.62,0,0,0-1,0,.61.61,0,0,0-.32.11c-.09.06-.21.08-.28.15a2.16,2.16,0,0,0-1,2.24,2.24,2.24,0,0,0,.52,1.23c.37.44.79.55,1.12.87a1.75,1.75,0,0,1-1,1.94,1.15,1.15,0,0,1-1-.09,4.62,4.62,0,0,1-1.86-2.57,4.84,4.84,0,0,1,.06-2.94c.09-.29.24-.57.34-.85a8.13,8.13,0,0,1,.47-.81,3.6,3.6,0,0,1,1.43-1.23l.47-.2.47-.1a3.83,3.83,0,0,1,.93-.12,3.7,3.7,0,0,1,2,.44,2.82,2.82,0,0,1,1.31,2.18,6.92,6.92,0,0,1-.56,3.12,8.2,8.2,0,0,1-1.09,2.23,2.41,2.41,0,0,1-.44.47,1.22,1.22,0,0,1-.94.32.68.68,0,0,1-.51-.57,1.7,1.7,0,0,1-.08-.44,4.11,4.11,0,0,1,.08-.66,3.32,3.32,0,0,1,0-.41,19.44,19.44,0,0,0,1-2.55,2.72,2.72,0,0,0,.07-1.47Z"/><path class="cls-1" d="M420.27,300.32c0-.06,0-.15-.3-.23a2.25,2.25,0,0,0-1,0,.53.53,0,0,0-.32.11c-.09.06-.21.08-.28.14a2.17,2.17,0,0,0-1,2.24,2.24,2.24,0,0,0,.52,1.23c.37.45.78.55,1.12.87a1.68,1.68,0,0,1-.23,1.29,1.65,1.65,0,0,1-.75.65,1.18,1.18,0,0,1-1-.08,4.64,4.64,0,0,1-1.86-2.58,4.84,4.84,0,0,1,.06-2.94c.09-.28.24-.57.34-.85s.29-.55.47-.81a3.58,3.58,0,0,1,1.43-1.22l.47-.2a4,4,0,0,1,.47-.11,4.31,4.31,0,0,1,.93-.12,3.71,3.71,0,0,1,2,.45,2.79,2.79,0,0,1,1.31,2.17,6.9,6.9,0,0,1-.56,3.12,8.06,8.06,0,0,1-1.09,2.23,2.78,2.78,0,0,1-.44.48,1.2,1.2,0,0,1-.94.31.68.68,0,0,1-.51-.57,1.7,1.7,0,0,1-.08-.44,3.84,3.84,0,0,1,.08-.65,3.52,3.52,0,0,1,0-.42,19.44,19.44,0,0,0,1-2.55,2.73,2.73,0,0,0,.07-1.47Z"/><path class="cls-1" d="M428.11,301.86c0-.06,0-.15-.3-.23a2.25,2.25,0,0,0-1,0,.68.68,0,0,0-.32.11c-.08.06-.2.08-.27.14a2.16,2.16,0,0,0-1,2.25,2.27,2.27,0,0,0,.51,1.22c.38.45.79.56,1.12.87a1.74,1.74,0,0,1-1,1.94,1.14,1.14,0,0,1-1-.08,4.56,4.56,0,0,1-1.86-2.58,4.77,4.77,0,0,1,.06-2.94c.08-.28.23-.56.33-.84a8.28,8.28,0,0,1,.47-.82,3.67,3.67,0,0,1,1.44-1.22l.46-.2.48-.11a4.2,4.2,0,0,1,.92-.11,3.73,3.73,0,0,1,2,.44,2.84,2.84,0,0,1,1.31,2.18,6.86,6.86,0,0,1-.57,3.11,8,8,0,0,1-1.08,2.23,2.81,2.81,0,0,1-.44.48,1.22,1.22,0,0,1-.95.31.69.69,0,0,1-.51-.57,2.17,2.17,0,0,1-.08-.43,5,5,0,0,1,.09-.66c0-.18,0-.32,0-.41a18.31,18.31,0,0,0,1-2.56,2.78,2.78,0,0,0,.08-1.47Z"/><path class="cls-1" d="M423,257.24c0-.07,0-.16-.3-.24a2.25,2.25,0,0,0-1,0,.64.64,0,0,0-.32.11c-.08.06-.2.08-.27.15a2.14,2.14,0,0,0-1,2.24,2.23,2.23,0,0,0,.51,1.23c.38.44.79.55,1.12.87a1.61,1.61,0,0,1-.23,1.28,1.57,1.57,0,0,1-.75.66,1.12,1.12,0,0,1-1-.09,4.57,4.57,0,0,1-1.86-2.57,4.69,4.69,0,0,1,.06-2.94c.08-.29.23-.57.33-.85a8.13,8.13,0,0,1,.47-.81,3.7,3.7,0,0,1,1.44-1.23l.46-.2.48-.1a3.69,3.69,0,0,1,.92-.12,3.73,3.73,0,0,1,2,.44,2.87,2.87,0,0,1,1.31,2.18,6.93,6.93,0,0,1-.57,3.12,8.16,8.16,0,0,1-1.08,2.23,2.76,2.76,0,0,1-.44.47,1.24,1.24,0,0,1-.95.32.69.69,0,0,1-.51-.57,2.26,2.26,0,0,1-.08-.44c0-.24.07-.48.08-.66s0-.32,0-.41a19.44,19.44,0,0,0,1-2.55,2.77,2.77,0,0,0,.08-1.47Z"/><path class="cls-1" d="M339.45,333.09c-.21-.6-.42-1.19-.59-1.8s-.35-1.2-.5-1.81c-.12-.45-.29-.87-.37-1.33a23.84,23.84,0,0,1-.42-4.85c0-.37,0-.73,0-1.09l0-1.1a5,5,0,0,1,.68-2.79c.17-.26.72.05,1.21.48s.93.94.83,1.33a30.1,30.1,0,0,0-.45,4.78,12,12,0,0,0,.52,3.11l.44,1.71c.18.56.34,1.13.54,1.69s.49,1.37.79,2a18.15,18.15,0,0,0,1.54,2.93,11.54,11.54,0,0,0,1.69,1.86c.13.12.27.23.39.36.48.45.5.71.15,1.28-.08.13-.15.26-.24.38a.89.89,0,0,1-1.28.17,11.29,11.29,0,0,1-3.37-3.86,28,28,0,0,1-1.63-3.46Z"/><path class="cls-1" d="M219.81,262.69A33.72,33.72,0,0,1,228,259.6l1.1-.23,1.11-.15a20.53,20.53,0,0,1,2.23-.17,28.49,28.49,0,0,1,4.43.27,23.34,23.34,0,0,1,6.23,1.71,27.26,27.26,0,0,1,9.09,6.62,42.53,42.53,0,0,1,6.26,9.15,69.32,69.32,0,0,1,3.88,8.95c.69,1.95,1.33,3.93,1.83,6a27.81,27.81,0,0,1,.94,6.22c0,.68-.21,1.05-.44,1s-.52-.39-.86-.88a16,16,0,0,1-2-5,70.53,70.53,0,0,0-3.79-11.6,49.81,49.81,0,0,0-6-10.57,24.06,24.06,0,0,0-11.87-8.41,22.58,22.58,0,0,0-15.93.83,60.39,60.39,0,0,0-9.09,4.87c-4.47,2.76-9,5.76-14.07,7.55A24.68,24.68,0,0,1,194.9,277a20.43,20.43,0,0,1-6.28-.49,24,24,0,0,1-2.65-.84c-3.21-1.33-4-2.2-4.27-3.09a2.77,2.77,0,0,1-.16-.61c0-.29.35-.34,1-.19a24.74,24.74,0,0,1,2.51,1,22.59,22.59,0,0,0,4.91,1.55,17.25,17.25,0,0,0,5.12.28,26.27,26.27,0,0,0,10.1-3.3c4.85-2.55,9.46-6,14.65-8.66Z"/><path class="cls-1" d="M91.94,357.84a144.45,144.45,0,0,1-4.85-27c-.25-3.33-.51-6.66-.5-10a106.22,106.22,0,0,1,1.35-17.62,71.14,71.14,0,0,1,4.87-17,48.23,48.23,0,0,1,3.71-7,36.3,36.3,0,0,1,4.9-6.21,31.09,31.09,0,0,1,8.19-6,27.92,27.92,0,0,1,9.76-2.81c2.11-.21,1.84.45.22,1.28s-4.53,2-7.8,3.4a31.52,31.52,0,0,0-13.93,12.82,60.63,60.63,0,0,0-7,18.42,97.38,97.38,0,0,0-1.78,24.5,140,140,0,0,0,3.68,26.93,127.28,127.28,0,0,0,4.9,16,83.11,83.11,0,0,0,12.12,22.11c4.06,5,9,9.31,14.9,11.54.63.25,1.3.41,1.94.62s1.32.29,2,.45a25.42,25.42,0,0,0,3.18.39l1.21.08h1a8.66,8.66,0,0,1,2.51.36,4.85,4.85,0,0,1,.83.31c.3.2-.06.49-1,.83a8.37,8.37,0,0,1-1.88.45l-1.26.17c-.46,0-.94,0-1.46,0a23.73,23.73,0,0,1-9-1.92,31.88,31.88,0,0,1-8-4.94,56.32,56.32,0,0,1-12-14.48,107.87,107.87,0,0,1-10.78-25.64Z"/><path class="cls-1" d="M149.61,335.71c-.34-1.89-.57-3.79-.72-5.7-.06-.69-.16-1.38-.18-2.08a40.61,40.61,0,0,1,.46-7.38c.15-1.08.33-2.17.54-3.25a9,9,0,0,1,1.58-4c.29-.37.78,0,1.14.63a3.27,3.27,0,0,1,.4,1,1.61,1.61,0,0,1,0,1,39,39,0,0,0-1.71,7.6,24.4,24.4,0,0,0,0,5,54.06,54.06,0,0,0,.6,5.5c.17,1.12.4,2.24.66,3.35a29,29,0,0,0,1.57,4.89,13.62,13.62,0,0,0,2.05,3.22c.17.22.37.36.54.56.66.65.7.76.62,1.46,0,.15,0,.32,0,.47a.52.52,0,0,1-.5.48,1.69,1.69,0,0,1-1.19-.33,9.49,9.49,0,0,1-2.73-3.12,21.06,21.06,0,0,1-1.64-3.63,41.6,41.6,0,0,1-1.52-5.64Z"/><path class="cls-1" d="M192.13,313.66l21,10.71,5.68,6.3s-12.63,20.89-29.75,6.11C185.66,333.88,177.65,317.52,192.13,313.66Z"/><path class="cls-1" d="M263.08,354.67a51.53,51.53,0,0,0,1.48-7.13c.12-.88.15-1.78.24-2.66a78.88,78.88,0,0,0,.45-9.48,39.19,39.19,0,0,0-.34-4.2c-.24-1.77-.65-3.53-.79-5.26,0-.52.56-.65,1.27-.32a3.11,3.11,0,0,1,1.64,2.21,46.83,46.83,0,0,1,.44,11.34c-.18,2.26-.16,4.61-.4,6.92a57,57,0,0,1-1.28,7.55c-.35,1.53-.82,3-1.32,4.53a32.34,32.34,0,0,1-3.08,6.48,21.06,21.06,0,0,1-3.38,4.46,7.41,7.41,0,0,1-.92.85c-.32.24-.58.43-.81.57a2.58,2.58,0,0,1-.65.25,1.09,1.09,0,0,1-.93-.19,2,2,0,0,1-.39-.28c-.34-.38,0-1,.74-1.65a25.89,25.89,0,0,0,3-3.31,26.36,26.36,0,0,0,2.44-4,36.22,36.22,0,0,0,2.49-6.72Z"/><path class="cls-1" d="M312.39,350.5c-6.63-.48-14.79-12.62-14.79-12.62-10.15,6.16-31.26,5.35-31.26,5.35s-1.42,24.18-12,27.18l19.74,4.73S296.69,352.43,312.39,350.5Z"/><path class="cls-1" d="M262.05,373.8l-4.87-1.22-4.15-1-2.05-.51-.49-.12-.31-.1-.63-.21,2.55-.91c1-.32,1.57-.59,2.29-.87l1.06-.42c.28-.14.41-.28.63-.41l.58-.42.29-.2c.08-.06.1-.1.15-.14a13.49,13.49,0,0,0,2-2.36,26.28,26.28,0,0,0,2.87-5.82A55.15,55.15,0,0,0,264,351.2c.27-1.33.5-2.66.7-4q.15-1,.27-2l.14-1.36.13-1.76,2.25.08,1.45,0h2.61c1.74,0,3.49-.08,5.23-.19a77.88,77.88,0,0,0,10.34-1.28c.89-.16,1.76-.38,2.63-.61s1.72-.5,2.57-.77a25.56,25.56,0,0,0,2.48-1,10.74,10.74,0,0,0,1.23-.61l1.83-1,.91,1.3c.35.5.52.71.73,1a51.55,51.55,0,0,0,5.44,6.07,19.4,19.4,0,0,0,6.44,4.36c1.42.33,1.38.95-.29,1.27a7.52,7.52,0,0,1-1.47,0,11,11,0,0,1-1.83-.5,13.7,13.7,0,0,1-3.89-2.46,46.85,46.85,0,0,1-4.1-4.25c-.64-.74-1.25-1.5-1.84-2.28l-.88-1.17v0h0a10.67,10.67,0,0,1-1.31.62c-.93.37-1.84.78-2.78,1.05s-1.88.59-2.82.8l-1.42.34-1.43.28a77.75,77.75,0,0,1-11.46,1.2c-1.57,0-3.15.09-4.74.11h-2.39l-1.35,0,0,.49-.15,1.35c-.11,1-.24,1.92-.38,2.88-.3,1.92-.67,3.83-1.13,5.71a41.8,41.8,0,0,1-3.26,9.06,20,20,0,0,1-2.75,4.1,10.66,10.66,0,0,1-.88.9l-.23.23-.13.1-.26.21a4.12,4.12,0,0,1-.91.51L257,370s-.24.06-.1.07l.42.12.89.23,13.29,3.3,2.31.57,1.39-1.31,1.72-1.59c1.16-1.05,2.33-2.09,3.52-3.1q3.54-3.06,7.22-5.9a101.15,101.15,0,0,1,13.72-9.21,33.51,33.51,0,0,1,3.3-1.6,17.5,17.5,0,0,1,2.74-1,13,13,0,0,1,1.94-.47,4.64,4.64,0,0,1,2.27.2,3.11,3.11,0,0,1,.68.31c.24.2-.07.5-.81.83s-1.92.64-3.39,1.26a64.27,64.27,0,0,0-12.77,7A147.79,147.79,0,0,0,283.32,369c-1.38,1.19-2.76,2.38-4.11,3.61l-2,1.85-1,.94-1.62,1.58-12.53-3.07Z"/><path class="cls-1" d="M324.6,409a74.27,74.27,0,0,0,4.84-22.74c-9.89-11.11-61.38-9.8-73.68-15.4-94.42-43-107.41-7.31-101.95,10.39C161.34,405.62,249.66,407.3,324.6,409Z"/><path class="cls-1" d="M168.55,395.5a49.47,49.47,0,0,1-7.09-3.56,25.17,25.17,0,0,1-6.22-5.24,15.58,15.58,0,0,1-2.24-3.59,19.89,19.89,0,0,1-1.15-4,25.91,25.91,0,0,1-.27-8.1A22.23,22.23,0,0,1,159,356.85a25.23,25.23,0,0,1,6.83-4.28,14,14,0,0,1,1.85-.75l1.89-.65c1.28-.34,2.57-.68,3.86-.94a61.25,61.25,0,0,1,11.44-1,91.25,91.25,0,0,1,11.34.92,140,140,0,0,1,19.47,4.32c1.6.43,3.18.94,4.76,1.44s3.17,1,4.73,1.54c3.12,1.12,6.27,2.16,9.34,3.39l4.63,1.79,4.58,1.91c3.07,1.25,6.09,2.6,9.1,3.95l2.27,1,1.13.5,1.07.43a39.23,39.23,0,0,0,4.65,1.25c3.19.66,6.45,1.12,9.7,1.54,11.59,1.44,23.36,2.27,34.9,4.06,3.7.58,7.41,1.26,11.08,2.2a49.12,49.12,0,0,1,5.45,1.72,23.05,23.05,0,0,1,5.19,2.68,8.85,8.85,0,0,1,1.18,1l.74.71c.39.21.23.65.24,1l0,.88,0,.71c0,.48-.06.95-.12,1.42-.17,1.9-.45,3.78-.8,5.64a74.61,74.61,0,0,1-2.92,10.93c-.78,2.22-1.34,3.1-1.53,3s-.07-1.33.27-3.28.85-4.69,1.35-8c.26-1.65.51-3.44.73-5.33.11-1,.21-1.93.28-2.92.05-.5.08-1,.11-1.51,0-.26,0-.51,0-.77V387c0-.08,0,0,0,0h0l-.19-.17a7,7,0,0,0-1-.77,7.32,7.32,0,0,0-1.08-.68,8.58,8.58,0,0,0-1.16-.63,34.19,34.19,0,0,0-5.07-2,91.76,91.76,0,0,0-10.93-2.5c-7.44-1.29-15-2.11-22.58-2.94s-15.21-1.52-22.86-2.94a45.63,45.63,0,0,1-5.76-1.42c-2-.69-3.66-1.55-5.41-2.31l-5.23-2.36L241.25,366A234.31,234.31,0,0,0,215,356.66c-2.26-.62-4.52-1.28-6.81-1.78l-3.42-.8-3.45-.67c-2.3-.49-4.62-.76-6.93-1.11-1.15-.16-2.32-.23-3.47-.36l-1.74-.16-1.74-.07a53.74,53.74,0,0,0-15.1,1.15l-1.83.46-1.78.6a35.76,35.76,0,0,0-3.44,1.45,24.75,24.75,0,0,0-6,4.37,20.47,20.47,0,0,0-5.58,13.36,23.82,23.82,0,0,0,.82,7.37,13.1,13.1,0,0,0,3.76,6.11,30.17,30.17,0,0,0,7.65,5.16,65.61,65.61,0,0,0,8.74,3.51,143.86,143.86,0,0,0,18.41,4.55c9.44,1.75,19,2.95,28.59,3.9s19.17,1.63,28.72,2.14c14.84.79,29.41,1.12,44.1,1.41l9.66.17c12.1.25,15.94.49,18.53,1.19.59.16,1.36.32,1.7.47,1.15.52-3.79.83-12.65.77-26.28-.2-54-.8-81.84-3-10.32-.85-20.66-1.95-31-3.58-5.14-.82-10.28-1.79-15.37-3a104,104,0,0,1-15.06-4.68Z"/><path class="cls-1" d="M329,395.09c50.32-15.35,25.38-41.54,16.74-44.81-26.63-10.08-66.31,18.28-70.21,24.18,0,0,36.63-.84,54.37,11.79Z"/><path class="cls-1" d="M287.49,362.88a111.89,111.89,0,0,1,29.45-13.52,63.56,63.56,0,0,1,11.71-2.24,44.12,44.12,0,0,1,10.58.32,23.58,23.58,0,0,1,2.61.51,25.81,25.81,0,0,1,2.57.72,22.29,22.29,0,0,1,2.55,1,18.34,18.34,0,0,1,2.36,1.4,29.41,29.41,0,0,1,7.42,7.63,20.84,20.84,0,0,1,3.67,10,16.62,16.62,0,0,1-.36,4.82,17.62,17.62,0,0,1-1.78,4.46,25.56,25.56,0,0,1-6.18,7.09c-6.25,5-13.68,8.17-21.18,10.34-2.35.69-2.21,0-.45-1.22a69.48,69.48,0,0,1,9.13-4.71,53.74,53.74,0,0,0,10-5.69,25.56,25.56,0,0,0,2.19-1.8l1-.95c.33-.33.63-.68.94-1a20.88,20.88,0,0,0,1.72-2.16c.26-.38.46-.78.7-1.17l.34-.59.27-.61a14,14,0,0,0,.45-10.53,24.32,24.32,0,0,0-6.1-9.44,22.5,22.5,0,0,0-2.61-2.26,15.13,15.13,0,0,0-2.88-1.74,30.09,30.09,0,0,0-6.81-1.81,45.74,45.74,0,0,0-14.34.35,78.56,78.56,0,0,0-15.31,4.37,112,112,0,0,0-14.47,6.89c-2.87,1.62-5.68,3.34-8.4,5.19-1.36.93-2.71,1.87-4,2.87-.67.49-1.3,1-1.94,1.51l-.94.79c-.3.24-.69.6-.78.68-.25.22-.49.46-.73.7s-.24.25-.35.38-.33.33-.05.27l1.73,0,1.56.05,1.65.06c2.2.09,4.4.23,6.59.4,4.38.33,8.74.86,13.05,1.55,7.67,1.29,15.25,2.87,22.35,6.19l2.33,1.1c.75.42,1.48.88,2.23,1.34l1.18.74.74.46c0,.05.17.05.14.14l0,.21,0,.41c-.09.81-.17,1.54-.24,2.21-.13,1.09-.26,2-.39,2.69a8.42,8.42,0,0,1-.93,2.9,5.37,5.37,0,0,1-.53.84c-.55.56-.7-2-.38-6.65l.08-1.22c0-.11.07-.26-.09-.29l-.18-.09-.53-.31-1.08-.64c-.36-.21-.72-.43-1.09-.63l-1.15-.54-2.31-1.07c-1.59-.63-3.2-1.25-4.83-1.81l-2.5-.76c-.83-.26-1.66-.51-2.52-.7a133.9,133.9,0,0,0-21-3.5c-2.56-.22-5.12-.41-7.7-.53-1.29-.06-2.57-.11-3.86-.13l-.54,0h-3l-4,0,2.12-2.79,1.24-1.41a19.77,19.77,0,0,1,1.46-1.41l.47-.42.41-.35.83-.69,1.68-1.33c2.27-1.74,4.6-3.36,7-4.9Z"/><path class="cls-1" d="M303.76,409c-22.74,0-93,17.89-109.95,15.59-4.6-.63-18.05-22.52-18.05-26.33C209.45,407.3,298.52,408.91,303.76,409Z"/><path class="cls-1" d="M197.91,403.86c-3.45-.55-6.9-1-10.33-1.66l-5.15-1-4.36-1-.22-.06-.11,0a.41.41,0,0,0,0,.11.83.83,0,0,0,.06.21l0,.13,0,.08.08.17c.66,1.53,1.44,3.05,2.25,4.54,1.65,3,3.45,5.93,5.37,8.76A64.9,64.9,0,0,0,190.1,420a21.41,21.41,0,0,0,2.52,2.52,4.62,4.62,0,0,0,1.22.75l.09,0s.06,0,.15,0l.45.05.89.08a83,83,0,0,0,13.11-.67c4.41-.5,8.81-1.13,13.2-1.81,8.79-1.37,17.57-2.93,26.34-4.51l23.33-4.29c5-.89,10-1.78,15-2.53a125.71,125.71,0,0,1,15.16-1.49c3.2,0,2.73.64.11,1.31A125.12,125.12,0,0,1,288.55,412c-10.14,1.45-20.26,3.3-30.41,5.1s-20.33,3.65-30.61,5.24c-6.14,1-12.42,1.94-18.78,2.71-3.18.37-6.38.7-9.63.8-.82,0-1.63.05-2.45,0l-1.24,0-1.25-.12a4.8,4.8,0,0,1-.67-.08,3.35,3.35,0,0,1-.81-.27,6.57,6.57,0,0,1-1.23-.74,16.58,16.58,0,0,1-1.9-1.71A63.64,63.64,0,0,1,183,414.5c-1.95-2.94-3.77-5.95-5.44-9.07-.41-.79-.81-1.58-1.19-2.38-.2-.4-.38-.81-.56-1.23-.08-.16-.21-.51-.33-.82a7.09,7.09,0,0,1-.34-.94,8.75,8.75,0,0,1-.38-1.81c0-.28-.07-.58-.1-.9,0,0,0-.1,0-.1h.11l.21,0,.43.05a10.77,10.77,0,0,1,1.83.28l1.81.43,2.53.6,1.27.3,1.28.24,5.12.95c8.45,1.41,17,2.53,25.51,3.36,12.93,1.3,26,2.27,38.87,2.94,10,.54,19.87.77,29.79,1l6.52.13c8.17.19,10.76.39,12.5,1.07a7.16,7.16,0,0,1,1.16.46c.77.5-2.57.87-8.56.86-17.77,0-36.51-.75-55.29-2-14-.94-28-2.15-41.88-4.06Z"/><path class="cls-1" d="M152.31,419.53a37.22,37.22,0,0,1-11.16-9.17,13.76,13.76,0,0,1-1.58-2.33,4.87,4.87,0,0,1-.53-1.59,2.82,2.82,0,0,1,.48-2.09,3.44,3.44,0,0,1,1.43-1.08,6.7,6.7,0,0,1,1.34-.36,13,13,0,0,1,2.46-.13,38.14,38.14,0,0,1,4.6.44c3,.44,6,1,8.9,1.62,2.61.52,5.24,1,7.83,1.36,1.67.23,3.34.41,5,.53.82,0,1.64.09,2.43.08a6.79,6.79,0,0,0,2.13-.26.6.6,0,0,1,.66.07c.17.14.29.56-.06,1.09a3.8,3.8,0,0,1-1.86,1.3,7.54,7.54,0,0,1-2.86.39,80.06,80.06,0,0,1-10.46-1.55l-10.18-2.1a34.59,34.59,0,0,0-6.14-.7,8.65,8.65,0,0,0-2.77.34c-.38.16-.47.24-.55.41a.53.53,0,0,0,0,.25,2.37,2.37,0,0,0,.12.5,9.78,9.78,0,0,0,1.69,2.63,28.38,28.38,0,0,0,2.31,2.48,35.65,35.65,0,0,0,5.37,4.26,33.8,33.8,0,0,0,7.57,3.75,34.7,34.7,0,0,0,12.6,2l2.47-.18a22.34,22.34,0,0,0,2.43-.39c.8-.17,1.6-.3,2.39-.49l2.35-.7c.69-.21,1.37-.39,2.05-.64,2.51-1,3.37-1.1,4.16-.7a2.91,2.91,0,0,1,.53.27c.44.36-.46,1.13-2.35,2a38.55,38.55,0,0,1-18.79,3.09,37.21,37.21,0,0,1-14-4.31Z"/><path class="cls-1" d="M370.16,407.94a38.2,38.2,0,0,0,7.53-3.15l1.47-.86.19-.11.09-.06c.05-.05.12-.1.12-.18s-.18-.21-.31-.26a11.51,11.51,0,0,0-1.56-.35c-1.95-.33-4-.43-6-.59-3.6-.27-7.23-.44-10.87-.63s-7.29-.39-11-.88a22.35,22.35,0,0,1-2.48-.45A7.76,7.76,0,0,1,346,400c-.53-.27-.76-.46-1.13-.68a30.83,30.83,0,0,0-4.13-2.25,13,13,0,0,0-5.59-1.21,11.11,11.11,0,0,0-5.35,1.58c-1,.59-1.33,0-.73-1.08a5.6,5.6,0,0,1,1.73-1.86,7.2,7.2,0,0,1,3.45-1.23,14.49,14.49,0,0,1,6.92,1.21,35.3,35.3,0,0,1,5.74,3.24,3.68,3.68,0,0,0,1,.38c.44.11.92.21,1.41.3,1,.17,2,.3,3,.41,2.06.23,4.16.4,6.26.57,5.05.41,10.33.39,15.56.84,1.44.13,2.88.29,4.34.56.39.07.7.13,1.15.25l.35.09.41.14a7.72,7.72,0,0,1,.77.31,3,3,0,0,1,1.13,1,1.52,1.52,0,0,1,.15,1.39,4.42,4.42,0,0,1-2,2l-1.05.64-.52.31-.49.26a40.64,40.64,0,0,1-3.95,1.86,42.2,42.2,0,0,1-10.37,2.72,64.61,64.61,0,0,1-16.09-.16c-4.1-.47-8.1-1.07-12.09-1.54-.88-.1-1.73-.16-2.61-.24-3.23-.23-4.13-.16-4.93-.69a3.22,3.22,0,0,1-.55-.34c-.22-.21,0-.48.59-.78a7.62,7.62,0,0,1,2.92-.56,70.37,70.37,0,0,1,11.25,1.06c3.71.53,7.45,1,11.19,1.22a47.54,47.54,0,0,0,16.39-1.73Z"/><path class="cls-1" d="M274.68,246.76a7.75,7.75,0,0,1-3,.51,6.49,6.49,0,0,1-1.08,0,6.61,6.61,0,0,1-3.4-1.66,9.15,9.15,0,0,1-1.15-1.26,2.68,2.68,0,0,1-.72-2c0-.24.66-.27,1.28-.23s1.23.12,1.32.31a5.26,5.26,0,0,0,1.4,2,2.86,2.86,0,0,0,1.74.51,5.8,5.8,0,0,0,2.11-.15,3.9,3.9,0,0,0,1.2-.52,2.72,2.72,0,0,0,1.22-1.42,2.27,2.27,0,0,0-.11-1.41c0-.1-.1-.19-.12-.29-.11-.37,0-.52.59-.81l.4-.2a.85.85,0,0,1,1.15.26,3.64,3.64,0,0,1,.52,2.09,4.62,4.62,0,0,1-.76,2.25,5.82,5.82,0,0,1-2.59,2.09Z"/><path class="cls-1" d="M274.71,243c0,1.14-.54,2.9-2,2.9s-3.23-1.76-3.23-2.9a2.67,2.67,0,0,1,5.21,0Z"/><path class="cls-1" d="M277.87,256.87a8,8,0,0,1-3,.51,5.64,5.64,0,0,1-4.48-1.69,8.53,8.53,0,0,1-1.15-1.25,2.69,2.69,0,0,1-.72-2c0-.23.66-.26,1.28-.22s1.23.12,1.32.31a5.26,5.26,0,0,0,1.4,2,2.86,2.86,0,0,0,1.74.51,5.8,5.8,0,0,0,2.11-.15,3.9,3.9,0,0,0,1.2-.52,2.71,2.71,0,0,0,1.22-1.43,2.32,2.32,0,0,0-.11-1.4c0-.1-.1-.2-.12-.29-.11-.37,0-.53.59-.81l.39-.2a.86.86,0,0,1,1.16.26,3.62,3.62,0,0,1,.52,2.09,4.62,4.62,0,0,1-.76,2.25,5.89,5.89,0,0,1-2.59,2.09Z"/><path class="cls-1" d="M277.9,253.06c0,1.15-.54,2.91-2,2.91s-3.23-1.76-3.23-2.91a2.67,2.67,0,0,1,5.21,0Z"/><path class="cls-1" d="M348.82,427.6a8.59,8.59,0,0,1,3.22-1.12l.65-.12.5-.08,1-.14c1.34-.18,2.66-.31,4-.42,2.63-.22,5.26-.37,7.88-.51,5.24-.26,10.48-.46,15.7-.68,3.82-.17,7.62-.41,11.42-.61,6.17-.31,12.33-.68,18.44-1.34a90.13,90.13,0,0,0,9.05-1.38A26.49,26.49,0,0,0,425,420c1.31-.5,2.59-1.4,2.37-2a3.84,3.84,0,0,0-1.24-2.19,9.62,9.62,0,0,0-3.58-1.87,24.37,24.37,0,0,0-4.22-.93,69.51,69.51,0,0,0-8.79-.57c-3.77,0-7.57.12-11.38.23a74.71,74.71,0,0,1-11.56-.26c-1.25-.2-1.77-.6-1.65-.83s.78-.4,1.78-.62a57.63,57.63,0,0,1,10-1.18c5.64-.15,11.33-.34,17.11,0a43.24,43.24,0,0,1,8.74,1.33,14.71,14.71,0,0,1,4.38,1.94,6.5,6.5,0,0,1,1,.82,6.64,6.64,0,0,1,.92,1,6.17,6.17,0,0,1,.7,1.26,10.18,10.18,0,0,1,.4,1.42,3.36,3.36,0,0,1-.12,1.48,3.48,3.48,0,0,1-.68,1.25,6,6,0,0,1-1.67,1.36,15.69,15.69,0,0,1-3.28,1.33,47.1,47.1,0,0,1-6.47,1.34c-4.71.69-9.5,1.14-14.31,1.54s-9.65.7-14.44.93l-15.81.7c-5.26.24-10.52.46-15.73.94-1.5.14-3,.31-4.45.56l-.6.11c-.17,0-.35.08-.53.14a1.25,1.25,0,0,0-.48.26c-.17.15,0,.34.07.49a2.09,2.09,0,0,0,1.05.65l.33.1c.19,0,.38.11.58.15.4.08.8.17,1.21.22a43.93,43.93,0,0,0,5,.39c4.87.15,9.79-.14,14.79.22a15.13,15.13,0,0,1,3.83.7,5.2,5.2,0,0,1,1.1.56c.17.13.33.28.48.42s.23.36.34.53a2.27,2.27,0,0,1-.33,2.38,4.25,4.25,0,0,1-1,.85,7.2,7.2,0,0,1-.9.49,12.34,12.34,0,0,1-1.83.68,33.8,33.8,0,0,1-3.65.85c-1.88.35-3.77.61-5.59.94-.45.08-.9.17-1.3.28l-.26.09a1.34,1.34,0,0,0-.25.12l-.57.28a3,3,0,0,0-.68.47.73.73,0,0,0-.3.59.78.78,0,0,0,.45.49,3.51,3.51,0,0,0,.73.26,13.8,13.8,0,0,0,2.55.47,22.42,22.42,0,0,0,5.34-.27c1.59-.24,3.15-.59,4.81-.89a24.22,24.22,0,0,1,6.73-.51,6.79,6.79,0,0,1,1.81.4,3.47,3.47,0,0,1,1.13.63,4.73,4.73,0,0,1,.75.66c.37.74-2,.18-6.25.77-3.19.4-6.44,1.35-10,1.78a20.47,20.47,0,0,1-5.58,0,13.2,13.2,0,0,1-1.42-.28c-.24-.05-.48-.13-.72-.2a3.52,3.52,0,0,1-.49-.18l-.55-.22a4.29,4.29,0,0,1-1.81-1.4,2.59,2.59,0,0,1-.39-2.06,3.53,3.53,0,0,1,1.24-1.85c.33-.23.69-.54,1-.68s.61-.37.8-.45.39-.2.73-.34a6,6,0,0,1,.87-.26c.5-.12,1-.21,1.41-.29,1.79-.31,3.5-.54,5.19-.85a25.53,25.53,0,0,0,4.75-1.23,4.79,4.79,0,0,0,.88-.45l.06,0h0l-.34-.12c-.2-.07-.47-.12-.7-.18-.52-.1-1.07-.18-1.63-.24-1.14-.11-2.33-.16-3.52-.19-2.4-.05-4.84,0-7.3,0s-5,0-7.5-.2a27.29,27.29,0,0,1-3.9-.55l-.51-.13a4.73,4.73,0,0,1-.81-.26l-.8-.34a3,3,0,0,1-.74-.37,5,5,0,0,1-1.88-2.06l-.16-.77a2.11,2.11,0,0,1,.12-.79,2.5,2.5,0,0,1,.9-1.15Z"/><path class="cls-1" d="M114,425.65c3.49.48,7,.9,10.47,1.09,1.28.1,2.55,0,3.82.07h3.37l3.36-.15c1.11-.12,2.22-.21,3.34-.34s2.25-.3,3.37-.47c2-.31,4-.72,5.92-1.18,2.51-.59,5-1.36,7.51-1.73,1.6-.24.3,2.79-2.64,3.52A91.62,91.62,0,0,1,136.73,429c-3.24.21-6.6.49-9.9.39-3.62-.09-7.22-.41-10.79-.85-2.2-.27-4.39-.58-6.57-.89-3.31-.47-6.61-1-9.89-1.41-2.55-.3-5.07-.43-7.59-.56-.55,0-1.1,0-1.66-.07-2.07-.12-2.71-.34-3.11-1.09A2.46,2.46,0,0,1,87,424c-.17-.56.71-.95,2.27-1a90.6,90.6,0,0,1,14.19,1.09c3.54.48,7.08,1,10.6,1.46Z"/><path class="cls-2" d="M400.49,283.17c-6.95.92-13.73,2.21-20.58,3.4l-20.49,3.7-40.95,7.57-81.85,15.35c-1.89.34-1.71,1.28.17.92l81.85-15.34,40.94-7.58,20.49-3.7c6.82-1.18,13.69-2.48,20.49-3.38C402,284,402.06,283,400.49,283.17Z"/><path class="cls-2" d="M203.65,319.37,178.77,324l-12.44,2.28c-4.14.73-8.32,1.53-12.44,2.1-.27,0-.8,1,.09.94,4.24-.59,8.35-1.38,12.51-2.12l12.45-2.27,24.88-4.63C204.27,320.21,204.1,319.28,203.65,319.37Z"/><path class="cls-2" d="M403.72,287.45c-2.25.15-4.37.49-6.54.79s-4.31.66-6.46,1c-.15,0,0,1,.16.92,2.14-.36,4.29-.71,6.44-1s4.33-.63,6.42-.78C403.84,288.39,403.86,287.44,403.72,287.45Z"/><path class="cls-2" d="M364.93,294.05,237.65,317.79c-1.47.27-1.29,1.21.17.93L365.1,295C366.26,294.76,366.09,293.83,364.93,294.05Z"/><path class="cls-2" d="M209.42,323.75q-13.3,2.49-26.63,4.81l-13.34,2.24c-4.45.7-8.93,1.46-13.35,2-.33,0-.85,1,.07.94,4.54-.52,9-1.28,13.43-2L183,329.48q13.34-2.31,26.64-4.81C210.07,324.59,209.9,323.66,209.42,323.75Z"/><path class="cls-1" d="M299.55,125.17a5.7,5.7,0,0,1-3.75-1.3,11.36,11.36,0,0,1-1-.78,15.85,15.85,0,0,1-1.36-1.65c-.38-.58-.77-1.14-1.13-1.72s-.66-1-1-1.49a11.52,11.52,0,0,1-1-2c-.09-.22-.11-.17,0,0s.56.28,1,.51a21.33,21.33,0,0,1,1.89,1.37,11.63,11.63,0,0,1,1.55,1.59,5.4,5.4,0,0,0,.93.92c.34.3.7.53,1,.79a12.91,12.91,0,0,0,1.08.79,4.69,4.69,0,0,0,1.1.46,2.36,2.36,0,0,0,1.39,0,5.78,5.78,0,0,0,2.1-1.48c.47-.54.88-1.12,1.36-1.67l.33-.36c.42-.45.62-.55.7-.65a.23.23,0,0,0,.05-.07,3.81,3.81,0,0,0-.15.64,10.43,10.43,0,0,1-1.57,4.17,5.7,5.7,0,0,1-1.41,1.35,3.68,3.68,0,0,1-1,.5,3.45,3.45,0,0,1-1.12.25Z"/><path class="cls-1" d="M245.22,138.39c-.41-2.69-.83-5.41-1.17-8.17-.12-1-.33-2-.41-3a51.77,51.77,0,0,1-.17-5.44,28.94,28.94,0,0,1,.57-5.47,16.18,16.18,0,0,1,1.56-4.64,9.55,9.55,0,0,1,4.4-4.24c.57-.27.46-.29.05.06a9.18,9.18,0,0,0-.77.77c-.28.37-.56.82-.9,1.25a13.18,13.18,0,0,0-1.94,5.31,41.7,41.7,0,0,0-.4,5.77,45.44,45.44,0,0,0,.78,7.33L248,136.1c.22,1.7.42,3.41.57,5.13a45.08,45.08,0,0,1,.11,7.88,14.51,14.51,0,0,1-1.51,5.89c-.24.39-.46.77-.73,1.14a9.2,9.2,0,0,1-1.87,1.73l-.17.15a8,8,0,0,0,1-1.38,11,11,0,0,0,1.31-5,32.27,32.27,0,0,0-.27-5.27c-.32-2.64-.77-5.31-1.24-8Z"/><path class="cls-1" d="M248,144.05c1.33,4.28,5.27,11.37,10.81,8.48,4.43-2.31,2.52-9.09,1.39-12.77-.36-1.19-2.82-.53-2.46.66.82,2.68,2.32,7.06.74,9.7-2.8,4.67-7.38-4.67-8-6.73-.37-1.19-2.83-.52-2.47.66Z"/><path class="cls-1" d="M263.07,138.46c1.75,3.76,3.41,12,9,11.32,5.91-.72,3.92-9.22,2.91-13.07-.2-.76-2.66-.11-2.46.66.47,1.79,2.46,12.44-1.17,10.83-1.86-.83-3-3.56-3.74-5.27s-1.31-3.46-2.09-5.13c-.36-.77-2.76,0-2.46.66Z"/><path class="cls-1" d="M264.37,144.32a36.75,36.75,0,0,1-2-7.48A24.77,24.77,0,0,1,262,134a15,15,0,0,1,.7-5.12,9.73,9.73,0,0,1,2.95-4.36,11.74,11.74,0,0,1,4.07-2.15l1.4-.37a11.33,11.33,0,0,1,1.42-.22,9.58,9.58,0,0,1,2.83,0c.59.08.46.7,0,1.3a3.42,3.42,0,0,1-2.26,1.24c-3.38.27-6.38,1.45-7.88,4.36a11.26,11.26,0,0,0-.78,6.13,30.48,30.48,0,0,0,1.57,7.08,41,41,0,0,0,1.7,4.2A35.31,35.31,0,0,0,271.2,152a19,19,0,0,0,3.64,3.63l.89.58a5.5,5.5,0,0,1,.66.42,1.18,1.18,0,0,1,.41.28,1.6,1.6,0,0,1,.4.73c0,.16.13.31.17.47s0,.47-.4.6a1.67,1.67,0,0,1-.7.1,4.3,4.3,0,0,1-.88-.18,12.61,12.61,0,0,1-4.35-3.17,26.94,26.94,0,0,1-3.19-4.19,42.42,42.42,0,0,1-3.53-7Z"/><path class="cls-1" d="M247.69,125c.48-.14,1-.28,1.44-.38s1-.2,1.45-.27a9.29,9.29,0,0,1,1-.21,14.79,14.79,0,0,1,3.81.25c.28.06.56.09.84.13l.86.16a6.7,6.7,0,0,1,1.13.29,2.07,2.07,0,0,1,.94.75c.16.22-.37.77-.94,1.28s-1.12,1-1.3.91c-.78-.32-1.77-.62-3-1a3.13,3.13,0,0,0-1.1-.07c-.37,0-.73.14-1.11.17l-1.23.19c-.41.1-.83.17-1.23.29a12.25,12.25,0,0,0-1.48.5,7.7,7.7,0,0,0-2,1.16,4,4,0,0,0-1,1.42c-.05.11-.09.22-.14.32-.16.37-.4.36-1.15.09l-.51-.19a1,1,0,0,1-.78-1.17,5.76,5.76,0,0,1,2.62-3.37,14.26,14.26,0,0,1,2.75-1.34Z"/><path class="cls-1" d="M265.58,173.3c1.68,2.28,5.07,4.31,8,3.63,3.14-.72,3.68-4,3.71-6.76,0-1-2.45-.53-2.46.3,0,1.32,0,4.67-1.57,5.18-.8.25-2.4-.78-3.06-1.19a8.42,8.42,0,0,1-2.31-2.14c-.51-.68-2.89.16-2.29,1Z"/><path class="cls-1" d="M90.1,359.79a143.13,143.13,0,0,1-4.87-27c-.26-3.33-.51-6.66-.5-10a106,106,0,0,1,1.33-17.6,70.92,70.92,0,0,1,4.84-17,47.11,47.11,0,0,1,3.7-7A36.1,36.1,0,0,1,99.49,275a31,31,0,0,1,8.17-6,28.44,28.44,0,0,1,9.72-2.82c2.1-.21,1.84.38.2,1.14s-4.57,1.83-7.86,3.28a31.63,31.63,0,0,0-14,12.9,60.23,60.23,0,0,0-7,18.49,98,98,0,0,0-1.77,24.52,139.51,139.51,0,0,0,3.7,27,126.23,126.23,0,0,0,4.92,16,83.29,83.29,0,0,0,12.14,22.13c4.06,5,9,9.34,14.91,11.59.64.26,1.31.42,2,.63s1.33.3,2,.46a23.91,23.91,0,0,0,3.2.39l1.21.08h1a10.65,10.65,0,0,1,2.51.28,4.78,4.78,0,0,1,.81.27c.3.17-.07.44-1,.75a8.49,8.49,0,0,1-1.88.43l-1.25.15c-.46,0-.94,0-1.45,0a23.93,23.93,0,0,1-9-1.94,32.33,32.33,0,0,1-7.94-4.93,56.19,56.19,0,0,1-11.91-14.45,108.27,108.27,0,0,1-10.78-25.58Z"/><path class="cls-1" d="M201.61,272.79a49.09,49.09,0,0,0,7.54-3.46c.89-.5,1.76-1.05,2.65-1.57,3.16-1.79,6.35-3.64,9.73-5.14,1.49-.68,3-1.29,4.58-1.83a17,17,0,0,1,6.25-1.09c.67,0,.57.51.06,1a3.93,3.93,0,0,1-1,.71,5,5,0,0,1-1.47.49,44.36,44.36,0,0,0-11.46,4.17c-2.26,1.1-4.46,2.56-6.71,3.86a62.89,62.89,0,0,1-7.73,3.91,30.58,30.58,0,0,1-5.14,1.59,22.12,22.12,0,0,1-8.15.13,28,28,0,0,1-6-1.76l-1.25-.58c-1.52-.8-1.89-1.24-1.94-1.84a2.84,2.84,0,0,1,0-.41c.08-.4.83-.31,1.89.21.79.4,1.63.71,2.44,1.07s1.67.65,2.53.87a19.68,19.68,0,0,0,5.28.9,21.58,21.58,0,0,0,7.94-1.29Z"/><path class="cls-1" d="M416.5,287.08l7.3-.06c.89,0,1.76-.19,2.65-.19a16.76,16.76,0,0,0,1.74.28,8.55,8.55,0,0,0-.15-1.76,33.38,33.38,0,0,0-1.31-4c-.64-1.67-1.55-3.2-1.49-5.22,0-.88,1.44-.75,2.82-.69s2.86.48,3.18,1.42c.55,1.67,1.06,3.39,1.48,5.14l.29,1.32.07.33.14.57.31,1.23c.4,1.63.75,3.18,1,4.58.09.48.2,1,.32,1.46-1.74,0-3.32.15-4.92.28l-2.4.2-1,.07-.71,0-7.34.17-2.26,0-3.27.16-1.75.09c-.22-1.37-.43-2.73-.65-4.1l-.28-1.59c-.08-.46-.18-.92-.28-1.37a51.13,51.13,0,0,0-1.62-5c-.13-.37-.3-.72-.39-1.09-.36-1.39-.09-1.91,1.25-2.47.31-.13.61-.28.92-.38a2.07,2.07,0,0,1,2.57,1,24.08,24.08,0,0,1,1.79,4.51q.33,1.17.6,2.37l.26,1.2.22,1.12s0,0,0,.06a.06.06,0,0,0,0,.07l0,0H416l.52,0Z"/></g></svg>