<svg id="Layer_1" data-name="Layer 1" xmlns="http://www.w3.org/2000/svg" width="520" height="520" viewBox="0 0 520 520"><defs><style>.cls-1{fill:#221f1f;}</style></defs><title>Notioly v2</title><g id="_63.Supporters" data-name="63.Supporters"><path class="cls-1" d="M191.62,259.67s.52-2.05,1.53-2.16a1.63,1.63,0,0,1,1.16,2.69C193.26,261.41,191.65,261.57,191.62,259.67Z"/><path class="cls-1" d="M193.12,275c0-.6.36-1.32.87-1.23,2.63.49,1,3-.15,2.51A1.22,1.22,0,0,1,193.12,275Z"/><path class="cls-1" d="M405.3,424.1a11.87,11.87,0,0,1-2.11-1.73,8.66,8.66,0,0,1-1.68-2.3,2.64,2.64,0,0,1-.2-2.05,2,2,0,0,1,1.62-1.17,3.68,3.68,0,0,1,1-.07c.23,0,.48,0,.7.07a4.19,4.19,0,0,1,.71.16,5.65,5.65,0,0,1,.73.23,4.77,4.77,0,0,1,1.8,1.4l.33.46.24.49a5,5,0,0,1,.35,1,9.43,9.43,0,0,1,.13,3.5,12,12,0,0,1-.89,3.27l-.38.78c-.15.25-.3.51-.47.75a8.82,8.82,0,0,1-1.22,1.28,10.51,10.51,0,0,1-2.91,1.74A13.52,13.52,0,0,1,390.22,430c-.61-.51-.2-.81.57-.84a8.2,8.2,0,0,1,3.06.62,12.67,12.67,0,0,0,6.47.89,9.1,9.1,0,0,0,3.06-1,8.57,8.57,0,0,0,1.35-.9l.62-.54a4.35,4.35,0,0,0,.47-.56,8.61,8.61,0,0,0,1.31-3.82,6.64,6.64,0,0,0-.57-3.86,2.7,2.7,0,0,0-1.42-1.18,4.47,4.47,0,0,0-1.76-.23.34.34,0,0,0-.31.33,1.1,1.1,0,0,0,.2.58,8.31,8.31,0,0,0,1.42,1.76,8.45,8.45,0,0,0,2.27,1.63,13.24,13.24,0,0,0,2.78.73,7.22,7.22,0,0,0,4.19-.55,7.13,7.13,0,0,0,3-2.93,12.34,12.34,0,0,0,1.37-6.49l-.12-1.48c-.23-1.83-.31-2.4.11-2.93a2.66,2.66,0,0,1,.27-.35c.32-.28.85.42,1.21,1.87a15.71,15.71,0,0,1,.06,6.83,10.76,10.76,0,0,1-3.75,6.31,8.34,8.34,0,0,1-5.45,1.67,7.12,7.12,0,0,1-1.39-.13,8.5,8.5,0,0,1-1.35-.28l-1.29-.4a4.15,4.15,0,0,1-.7-.27l-.65-.36Z"/><path class="cls-1" d="M101.58,415.46a17.38,17.38,0,0,0,5.92-.38,15.81,15.81,0,0,0,5.45-2.33,11.64,11.64,0,0,0,3-3,11,11,0,0,0,1.15-2.14l.89,1.21a2.59,2.59,0,0,0-2.23,1,5.66,5.66,0,0,0-.81,2.8,20.08,20.08,0,0,0,.08,3.28c0,.56.14,1.08.21,1.62s.21,1.07.39,1.58a9.41,9.41,0,0,0,3.92,5.33c2.44,1.52,5.49,1.55,8.36.95.9-.17,1,.32.27,1a5.87,5.87,0,0,1-4.17,1.43,10.85,10.85,0,0,1-5.08-1.41,10.55,10.55,0,0,1-3.74-3.71,13.77,13.77,0,0,1-1.76-4.81,24.3,24.3,0,0,1-.26-2.48,20.52,20.52,0,0,1,0-2.48,8.61,8.61,0,0,1,1-3.85,4.16,4.16,0,0,1,1.66-1.53,5.09,5.09,0,0,1,2.11-.5l1.36-.1-.51,1.25a11.88,11.88,0,0,1-2.49,4.07,15.83,15.83,0,0,1-5.55,3.74,20.31,20.31,0,0,1-6.46,1.39,16.87,16.87,0,0,1-8-1.49A13.23,13.23,0,0,1,91.55,412a15.42,15.42,0,0,1-2.81-5.44,15.9,15.9,0,0,1,.34-9.34c.23-.65.44-1.3.73-1.93,1.09-2.34,1.72-2.92,2.41-3.12a2.5,2.5,0,0,1,.48-.11c.47,0,.13,1-.62,2.61a24.34,24.34,0,0,0-1.38,3.68,15.2,15.2,0,0,0-.64,3.83,12.43,12.43,0,0,0,2,7.36,16.74,16.74,0,0,0,1.81,2.33,10.54,10.54,0,0,0,1,1,6.67,6.67,0,0,0,1.15.82,13.37,13.37,0,0,0,5.51,1.79Z"/><path class="cls-1" d="M439.88,363.6a8.63,8.63,0,0,0-3.63-6.59l1.53-.72a1.48,1.48,0,0,0,1,1.83,11.45,11.45,0,0,0,4,.76,10,10,0,0,0,6.87-2,11.66,11.66,0,0,0,4-6.14,12.64,12.64,0,0,0-.08-6.63,9.9,9.9,0,0,0-5.09-6.26c-.76-.38-.56-.82.37-1a4.82,4.82,0,0,1,4,1.75,13.28,13.28,0,0,1,3,9.42,14,14,0,0,1-1.11,4.87,13.3,13.3,0,0,1-2.76,4.13,12.18,12.18,0,0,1-5.16,3.14,13.7,13.7,0,0,1-6,.34,8.66,8.66,0,0,1-3.34-1,3.31,3.31,0,0,1-1.37-1.53,3.6,3.6,0,0,1-.18-2l.2-1.13,1,.59a9.55,9.55,0,0,1,3.95,5.17,13.91,13.91,0,0,1,.2,7.93,10.67,10.67,0,0,1-3.05,5.25,15.13,15.13,0,0,1-1.24.91c-.44.24-.85.53-1.31.73a12,12,0,0,1-1.38.6,10.16,10.16,0,0,1-1.45.45,11.26,11.26,0,0,1-4.66.17,12.28,12.28,0,0,1-4.34-1.67,14,14,0,0,1-1.68-1.17c-1.95-1.65-2.28-2.44-2.26-3.14a2.39,2.39,0,0,1,0-.48c.08-.21.34-.17.72.06a16.13,16.13,0,0,1,1.55,1.24,13.35,13.35,0,0,0,6.52,3.37,10.26,10.26,0,0,0,7.07-1.6,8.7,8.7,0,0,0,1.09-.77,10.21,10.21,0,0,0,.91-.95,9.17,9.17,0,0,0,1.31-2.38,11.75,11.75,0,0,0,.69-5.55Z"/><path class="cls-1" d="M261,422.31a13.32,13.32,0,0,1,5.34-2.51,10.48,10.48,0,0,1,3-.23,5.62,5.62,0,0,1,3.11,1.15,4.33,4.33,0,0,1,1.54,3.11,6.89,6.89,0,0,1-.53,3.17,10.77,10.77,0,0,1-4.28,4.13,37.41,37.41,0,0,1-7.44,3.27,54.35,54.35,0,0,1-13.91,2.66,31.1,31.1,0,0,1-7.14-.43A19.74,19.74,0,0,1,234,434.1a15.78,15.78,0,0,1-4.65-4.45,11.88,11.88,0,0,1-2-6.16,13.44,13.44,0,0,1,.45-4.14,12.25,12.25,0,0,1,1.87-3.78,9.26,9.26,0,0,1,7.36-3.73c1.77,0,1.41.52.08,1a13.15,13.15,0,0,0-5.27,3.34,10.4,10.4,0,0,0-.34,13.2,13.89,13.89,0,0,0,5.9,4.4,23.66,23.66,0,0,0,7.57,1.52,37.81,37.81,0,0,0,9.6-.86,60,60,0,0,0,9.42-2.81,28,28,0,0,0,4.75-2.35,12.61,12.61,0,0,0,2-1.56,4.89,4.89,0,0,0,1.24-2,4.8,4.8,0,0,0,.14-2.31,2.45,2.45,0,0,0-1.23-1.61,6.85,6.85,0,0,0-4.8-.1,10.65,10.65,0,0,0-5.28,3.29A9.64,9.64,0,0,0,259.1,431a22.53,22.53,0,0,0,2.33,9.57,13.28,13.28,0,0,0,2.83,4,16.43,16.43,0,0,0,3.9,2.95,17.08,17.08,0,0,0,7.26,1.87,30.45,30.45,0,0,0,7.54-.7c1.09-.24,2.16-.5,3.25-.82,4.05-1.15,5.34-1.57,6.37-1.38a4.87,4.87,0,0,1,.69.12c.51.22-1,1.15-4,2.2a36.44,36.44,0,0,1-14.36,2.41,18,18,0,0,1-13.49-7.06,20.66,20.66,0,0,1-2.69-5.16,25.58,25.58,0,0,1-1.36-5.6,16.57,16.57,0,0,1,.26-5.9,10,10,0,0,1,1.19-2.89,9.74,9.74,0,0,1,2.11-2.31Z"/><path class="cls-1" d="M90.36,235.16a2.12,2.12,0,0,1-1.77-.23l-.18-.1-.1-.05-.11-.1a1.16,1.16,0,0,1-.18-.2,3.43,3.43,0,0,1-.36-.84,2.24,2.24,0,0,1,0-.9,1.24,1.24,0,0,0,0-.51c0-.2-.18-.34,0-.55s1.91-.34,2,.06a2.45,2.45,0,0,1,0,.87.72.72,0,0,1-.11.26,1,1,0,0,0-.15.1c-.13.11,0,.18.13.37l0,0-.18-.14a.89.89,0,0,0,.25.2.35.35,0,0,0,.27,0l.06,0-.07.07c.14-.12.25-.25.24-.37s-.16-.15-.27-.18-.07,0-.09,0,0-.15.33-.52l.23-.25c.26-.29.55-.46.77-.37a1.36,1.36,0,0,1,.76.85,1.94,1.94,0,0,1-.08,1.35,2.32,2.32,0,0,1-.42.67l-.11.12,0,0a3,3,0,0,1-.77.45Z"/><path class="cls-1" d="M435.71,180.53a2.13,2.13,0,0,1-1.76-.22l-.19-.1-.1-.06-.1-.1a1.16,1.16,0,0,1-.18-.2A2.6,2.6,0,0,1,433,179a2.26,2.26,0,0,1,0-.9,1.26,1.26,0,0,0,0-.51c0-.19-.18-.33,0-.54s1.91-.34,2,.06a2.08,2.08,0,0,1,0,.87.53.53,0,0,1-.11.25s-.09,0-.15.1,0,.19.13.37l0,0-.17-.14a.86.86,0,0,0,.25.21.35.35,0,0,0,.26-.05l.06,0-.06.08c.13-.13.24-.26.23-.37s-.15-.15-.27-.18l-.09,0c-.07-.05,0-.16.34-.53l.23-.25c.26-.28.55-.45.76-.37a1.3,1.3,0,0,1,.76.86,1.92,1.92,0,0,1-.07,1.34,2.66,2.66,0,0,1-.42.67l-.11.13,0,0a2.76,2.76,0,0,1-.78.45Z"/><path class="cls-1" d="M404.13,332.84l-.4.27-.36.18c-.3.12-.58.28-.86.36-.22-.08-.44-.11-.66-.2a5.22,5.22,0,0,1-.58-.29,4.07,4.07,0,0,1-.45-.34,1.51,1.51,0,0,1-.5-.9,3.4,3.4,0,0,1,0-.9c.06-.42-.07-.49.13-.64a2.55,2.55,0,0,1,1-.08c.47,0,.94.28.91.54a2,2,0,0,1-.07.39h-.05a.36.36,0,0,0-.2.22.1.1,0,0,0,.05.14l.1,0,.09.06.1,0a.77.77,0,0,0,.29-.09.75.75,0,0,0,.3-.17.36.36,0,0,0,.09-.5.67.67,0,0,0-.2-.16,3.82,3.82,0,0,1-.32-.27,1.06,1.06,0,0,1-.15-.15c-.14-.2-.06-.35.38-.58l.3-.16a1.37,1.37,0,0,1,.82-.16,1.54,1.54,0,0,1,.59.38,2.49,2.49,0,0,1,.53,1.26,2.08,2.08,0,0,1-.87,1.78Z"/><path class="cls-1" d="M430.17,104.45a11.73,11.73,0,0,1,2.48,2.71,11.41,11.41,0,0,1,.72,1.09,10.36,10.36,0,0,1,.85,2.19,4.3,4.3,0,0,1,0,2.58,4.88,4.88,0,0,1-.34.58,3.61,3.61,0,0,1-.49.47,4.56,4.56,0,0,1-.58.3l-.58.16a4.17,4.17,0,0,1-2.66-.29c-.48-.25.68-1.79,1.39-1.69a2.68,2.68,0,0,0,1.37-.06c.07,0,.14-.09.23-.29s.05-.25.07-.39,0-.31,0-.49a5.76,5.76,0,0,0-1-2.49,10.82,10.82,0,0,0-1.93-2.43,5.44,5.44,0,0,0-1.52-1,2.15,2.15,0,0,0-1.18-.16,1.65,1.65,0,0,0-.91.69,4.41,4.41,0,0,0-.52,2l0,.49c0,.61-.18.79-.7.88a2.05,2.05,0,0,1-.34.07c-.4,0-.68-.26-.74-.78a5.25,5.25,0,0,1,0-1.19,5.81,5.81,0,0,1,.23-1.25,4.07,4.07,0,0,1,1.84-2.45,3.47,3.47,0,0,1,2.54-.25,6.24,6.24,0,0,1,1.9.93Z"/><path class="cls-1" d="M88.16,334.35a16.41,16.41,0,0,1-3.07-3.92,10.39,10.39,0,0,1-.76-2.22,4.32,4.32,0,0,1,.13-2.57,5.5,5.5,0,0,1,.36-.57,3.57,3.57,0,0,1,.51-.45,3.52,3.52,0,0,1,.59-.28l.58-.14a4.24,4.24,0,0,1,2.66.38c.46.27-.76,1.77-1.46,1.65a2.56,2.56,0,0,0-1.37,0c-.07,0-.14.08-.24.28s-.06.24-.09.38,0,.31,0,.49a5.92,5.92,0,0,0,.93,2.53,11.1,11.1,0,0,0,1.85,2.5,5.32,5.32,0,0,0,1.48,1.06,2.16,2.16,0,0,0,1.17.2,1.6,1.6,0,0,0,.94-.66,4.3,4.3,0,0,0,.59-2l0-.48c.06-.61.21-.78.73-.86a2,2,0,0,1,.35-.05c.39,0,.67.28.7.8a6.26,6.26,0,0,1-.31,2.43,4,4,0,0,1-1.92,2.39,3.5,3.5,0,0,1-2.55.15,6.2,6.2,0,0,1-1.86-1Z"/><path class="cls-1" d="M401.78,205.68c-5.08-6.36-12.1-7.85-16-15.66-1.77-3.53-.77-7.42-1.66-11.12-.62-2.58-6.85-13-5.59-20.63,1.09-6.66,3.8-11.51,4.28-18.21,1.12-15.53-7.75-29.34-24.06-32.77-13-2.74-27.21,8-28.42,12.22-5.39-7.19-10.33-12.73-20.21-11.31-28.21,4-25.33,44.08-32.39,51.12-5.31,5.29-14.1,6-18.46,12.17-4.69,6.66-6.57,15.29-6,23.18,1.05,14.31-9.06,17.05-11.11,23.52-4.09,12.89,1.78,28.09,13.3,33.83,8.67,4.32,18.73,6.16,28.06,2.7,9.75-3.61,11.23-9.6,16.57-16.1,8.49-10.33,14.42-1.88,17.75,2.06,3.56,4.21,9.83,6.51,14.46,5.65,10-1.87,17.55-17.35,28.5-15.05,4.39.92,19.62,3.18,29.68,20.66,1.69,2.94,5,6.29,8.46,7a9.19,9.19,0,0,0,10.75-6.36C411.36,247,406.51,211.61,401.78,205.68Zm-37-38.7c-.16,3.55-3.37,11.82-11.12,10.37-1.26,9-9.2,40.37-29.09,39.07-18.32-1.2-34.15-45-16.9-82.24,2.95-6.35,13.42-14.41,31.16-7.27,13.57,5.46,15.74,27,16.68,30.76C355.5,157.83,365.39,152,364.73,167Z"/><path class="cls-1" d="M305.4,143.06a82.54,82.54,0,0,0-2.48,9.16,87.54,87.54,0,0,0-1.35,9.4,79.28,79.28,0,0,0-.29,9.5,77,77,0,0,0,.8,9.47A74.53,74.53,0,0,0,305.34,194a52,52,0,0,0,5.18,11,26.51,26.51,0,0,0,8.19,8.62,12.62,12.62,0,0,0,5.44,2,16.54,16.54,0,0,0,5.86-.45,20.38,20.38,0,0,0,9.86-6.46,32.59,32.59,0,0,0,3.27-4.29,45.49,45.49,0,0,0,2.71-4.7,69.26,69.26,0,0,0,4.06-10.05c.71-2.2,1.33-4.44,1.86-6.7.25-1.13.5-2.26.7-3.4.11-.59.19-1,.35-2.07l.11-.69,0-.18,0-.09H353l.33,0,1.29.15c4.74.47,7.94-3.63,9.09-7.87.36-1.33.46-1.91.67-1.86s.41.76.33,2.05a11.67,11.67,0,0,1-1.59,5.1,9.51,9.51,0,0,1-2.48,2.86,8.34,8.34,0,0,1-4.07,1.73,8.72,8.72,0,0,1-1,.06l-.52,0h-.18l-.17,0h0l-.07.41-.17.9-.36,1.78q-.79,3.56-1.86,7a70.86,70.86,0,0,1-5.62,13.42,35.07,35.07,0,0,1-9.42,11.32,19.79,19.79,0,0,1-6.8,3.29,17.5,17.5,0,0,1-7.59.26,17.88,17.88,0,0,1-8-4.3,33.12,33.12,0,0,1-5.79-6.93,58,58,0,0,1-7-16.48,83.87,83.87,0,0,1-.62-38.81,76.07,76.07,0,0,1,3.46-11.53c.35-.94.7-1.88,1.13-2.79s.77-1.84,1.24-2.76a16.81,16.81,0,0,1,3.81-4.84,20.67,20.67,0,0,1,8.16-4.34,25.41,25.41,0,0,1,9.18-.67,34.72,34.72,0,0,1,8.91,2.08,21.52,21.52,0,0,1,4.21,1.86,20.08,20.08,0,0,1,3.62,2.86,26.22,26.22,0,0,1,4.29,5.63,41.9,41.9,0,0,1,3,6.33,79.55,79.55,0,0,1,3.53,13.41l.09.44.06.23c0,.06.13,0,.2-.05l.21-.09.14,0,.32-.11a8.29,8.29,0,0,1,2.8-.39,5.23,5.23,0,0,1,2.89,1,5.77,5.77,0,0,1,1.64,1.92,9.75,9.75,0,0,1,1,3.37,9.06,9.06,0,0,1-.24,3.68,7.61,7.61,0,0,1-.37,1.07c-.2.36-.34-.24-.48-1.59-.09-.66-.17-1.52-.37-2.51a10.16,10.16,0,0,0-1.07-3.17,3.51,3.51,0,0,0-3.17-1.91,6.62,6.62,0,0,0-2.11.35l-.27.08-.51.19-.53.21-.26.09-.2-.09-.35-.13-.14-.06h-.08c.14-.25-.19.34-.15.28h0l-.07-.06-.28-.25c-.07-.14-.13-.31-.2-.46-.37-1.84-.76-3.7-1.14-5.56-.36-1.62-.76-3.25-1.22-4.85a48.26,48.26,0,0,0-3.66-9.32,23.85,23.85,0,0,0-6.13-7.67,16.05,16.05,0,0,0-4.2-2.4l-2.4-.86c-.8-.31-1.63-.47-2.44-.71a29.6,29.6,0,0,0-9.2-1A20.65,20.65,0,0,0,315.3,128a19.36,19.36,0,0,0-1.91,1.23l-.87.71a7.67,7.67,0,0,0-.84.77,13.94,13.94,0,0,0-2.69,3.54l-.26.49-.24.55-.47,1.09c-.31.74-.66,1.46-.94,2.2-.56,1.5-1.17,3-1.63,4.5Z"/><path class="cls-1" d="M260.35,255.37a53.47,53.47,0,0,1-5.29-2.25c-.85-.48-1.72-1-2.55-1.48l-1.19-.85-.6-.43-.56-.48a28.9,28.9,0,0,1-7.13-9.16,31.14,31.14,0,0,1-1.95-22.67,13.61,13.61,0,0,1,3.17-5.11c1.28-1.43,2.59-2.73,3.73-4.14a20,20,0,0,0,2.82-4.5,17.89,17.89,0,0,0,1.37-5.11l.09-1.33.05-.67v-.68c0-.9,0-1.78-.1-2.76a39.42,39.42,0,0,1,.16-5.75,37.4,37.4,0,0,1,2.81-11.14,31.53,31.53,0,0,1,1.9-3.76,22.11,22.11,0,0,1,2.47-3.51,22.83,22.83,0,0,1,7-4.85c2.49-1.21,5-2.26,7.23-3.63a17.87,17.87,0,0,0,3.09-2.33,8.79,8.79,0,0,0,1.91-3.12,74.25,74.25,0,0,0,2.84-10.12c.81-3.47,1.64-6.95,2.65-10.4A66.64,66.64,0,0,1,288,125a36.64,36.64,0,0,1,5.92-9.14,26.17,26.17,0,0,1,8.84-6.46c.86-.31,1.7-.7,2.58-1a25.37,25.37,0,0,1,2.66-.69,24.47,24.47,0,0,1,5.48-.59,16.87,16.87,0,0,1,5.48,1.06,17.5,17.5,0,0,1,4.8,2.81,29.41,29.41,0,0,1,3.87,3.86c.59.69,1.16,1.38,1.71,2.09l.56.73.16.22.09.11s.06.12.07,0,.09-.23.17-.37l.31-.45A3.65,3.65,0,0,1,331,117l.32-.38a7.63,7.63,0,0,1,.66-.73,25.06,25.06,0,0,1,2.91-2.55,36.34,36.34,0,0,1,13.79-6.48,27.92,27.92,0,0,1,7.69-.56,32.25,32.25,0,0,1,12.34,4.16,28.73,28.73,0,0,1,9.5,8.88,32,32,0,0,1,4.85,12c.15,1.08.31,2.15.41,3.23s.16,2.17.11,3.25a31,31,0,0,1-.66,6.45c-.55,2.73-1.42,5.34-2.18,7.94-.39,1.3-.74,2.59-1,3.9a21.48,21.48,0,0,0-.57,3.9,23.81,23.81,0,0,0,1.36,7.77,71.71,71.71,0,0,0,3,7.51l.83,1.89c.13.33.27.65.39,1a6.89,6.89,0,0,1,.28,1.08,26.61,26.61,0,0,1,.37,4.2,22.91,22.91,0,0,0,.35,3.94,9.36,9.36,0,0,0,.55,1.8,19,19,0,0,0,.9,1.72,21.64,21.64,0,0,0,5.27,5.83c2.08,1.67,4.38,3.18,6.47,5,2.61,2.3,3.32,3.71,3.15,3.7s-1.4-1.17-3.71-2.85c-1.14-.84-2.59-1.77-4.27-2.86a37,37,0,0,1-5.47-4.13,20,20,0,0,1-2.62-3.09,17.57,17.57,0,0,1-1.13-1.83,9.89,9.89,0,0,1-.89-2.17c-.89-3.08-.42-6.23-1-9a17.37,17.37,0,0,0-1.22-3.17c-.5-1.12-1-2.25-1.48-3.4a47.39,47.39,0,0,1-2.44-7.15,20.29,20.29,0,0,1-.54-7.8,56,56,0,0,1,1.81-7.3c.72-2.36,1.46-4.66,1.92-7a27.7,27.7,0,0,0,.51-3.49c.06-1.17.13-2.36.1-3.54a30.9,30.9,0,0,0-3.36-13.62,27.54,27.54,0,0,0-9.32-10.38,29.88,29.88,0,0,0-6.35-3.1,26,26,0,0,0-6.87-1.54,27.93,27.93,0,0,0-13.7,3,33.43,33.43,0,0,0-6.12,3.72,25.88,25.88,0,0,0-2.66,2.34,5.79,5.79,0,0,0-.57.64l-.28.32-.14.16s-.12.21-.18.31l-.76,1.37c-.25.5-.48,1.08-.73,1.61-.7-.87-1.43-1.88-2.14-2.82l-.65-.83-.6-.76c-.81-1-1.66-2-2.54-2.89a17.92,17.92,0,0,0-6.08-4.29,16.5,16.5,0,0,0-9.41-.64,24.46,24.46,0,0,0-9.09,3.55,25.68,25.68,0,0,0-7,6.92,43.75,43.75,0,0,0-4.71,8.9c-2.5,6.32-3.94,13.05-5.52,19.77-.4,1.69-.81,3.37-1.33,5a21.8,21.8,0,0,1-2,5l-.37.6-.48.57a8.89,8.89,0,0,1-1,1c-.33.32-.7.58-1.05.86s-.73.53-1.1.77a37.88,37.88,0,0,1-4.63,2.51c-3.41,1.62-6.91,3.05-9.44,5.57a19.54,19.54,0,0,0-3.13,4.4,31.46,31.46,0,0,0-2.24,5,37.75,37.75,0,0,0-2,10.85q0,1.38,0,2.76c.06.91.09,1.87.11,2.85a22.82,22.82,0,0,1-.6,5.81,19.74,19.74,0,0,1-2.3,5.41,29,29,0,0,1-3.59,4.54,40.87,40.87,0,0,0-3.61,4.2c-.25.37-.44.76-.67,1.13s-.33.79-.49,1.2c-.22.89-.51,1.77-.68,2.67a29.43,29.43,0,0,0,3.9,21.19,26.3,26.3,0,0,0,4.28,5.24,25.23,25.23,0,0,0,5.52,3.86,41.84,41.84,0,0,0,13,4.11,30.11,30.11,0,0,0,13.47-1.13,24.62,24.62,0,0,0,6.1-2.91,20.86,20.86,0,0,0,4.89-4.63c2.12-2.72,3.91-5.79,6.19-8.55.6-.67,1.19-1.35,1.83-2a16.28,16.28,0,0,1,2.14-1.72,8,8,0,0,1,5.36-1.49,9.6,9.6,0,0,1,5,2.39,28.83,28.83,0,0,1,3.69,3.9,17.07,17.07,0,0,0,3.68,3.53,18.3,18.3,0,0,0,4.57,2.24,14.7,14.7,0,0,0,5,.73,12.11,12.11,0,0,0,4.82-1.33,43.12,43.12,0,0,0,8.34-6.15,46.53,46.53,0,0,1,8.52-6.33,13.89,13.89,0,0,1,5.18-1.58,11,11,0,0,1,2.75.11c.91.14,1.72.34,2.59.51A40.66,40.66,0,0,1,389.41,249l2.14,3.39a17.45,17.45,0,0,0,2.5,2.93,9.83,9.83,0,0,0,6.64,3.06,8.43,8.43,0,0,0,6.52-2.91,8.52,8.52,0,0,0,1.74-3.21,17.55,17.55,0,0,0,.28-3.78A127.13,127.13,0,0,0,408,234.56c-1.16-8.72-2.33-14.4-3.18-18.36s-1.48-6.2-2-8a17.27,17.27,0,0,0-.88-2.35c-.42-.82.86.14,2.13,3.18A77.4,77.4,0,0,1,408,223.28q1.37,7.09,2.24,14.37c.29,2.42.53,4.86.69,7.32.07,1.24.13,2.47.13,3.73a18.17,18.17,0,0,1-.3,3.93,10.24,10.24,0,0,1-5,6.36,10.41,10.41,0,0,1-8.09.83,12.14,12.14,0,0,1-3.6-1.95,18.3,18.3,0,0,1-2.88-2.75,18.85,18.85,0,0,1-1.21-1.58c-.38-.55-.71-1.15-1-1.64l-1-1.54a15.46,15.46,0,0,0-1-1.51,38.66,38.66,0,0,0-23.79-15.76c-.6-.14-1.21-.26-1.82-.39l-.94-.18-.82-.13a9.59,9.59,0,0,0-3.33.21,17.8,17.8,0,0,0-6.26,3.19c-4,2.89-7.44,6.69-12,9.53a16.66,16.66,0,0,1-5.65,2.28,14.93,14.93,0,0,1-6.15-.33,19.38,19.38,0,0,1-5.54-2.41,17.16,17.16,0,0,1-2.42-1.84,20.83,20.83,0,0,1-2.05-2.2,28,28,0,0,0-3.71-3.94,6.21,6.21,0,0,0-8.72-.24,17.09,17.09,0,0,0-1.91,1.81l-.9,1-.85,1.07c-2.26,2.89-4.09,6.25-6.8,9.21a22.21,22.21,0,0,1-4.6,3.82,27.71,27.71,0,0,1-5.38,2.52,30.8,30.8,0,0,1-11.61,1.65,39.3,39.3,0,0,1-11.43-2.29Z"/><path class="cls-1" d="M354.31,183c-.37,2-.82,3.91-1.35,5.83-.19.7-.31,1.42-.54,2.11-.76,2.46-1.67,4.86-2.62,7.24-.41,1-.83,2.11-1.23,3.16a31.21,31.21,0,0,1-1.9,3.9c-.23.39-.15.36-.06,0s.13-1.1.27-1.93a58.1,58.1,0,0,1,2-8.53c.56-1.66.85-3.47,1.27-5.2l1.4-5.75c.28-1.18.55-2.37.8-3.56.37-1.8.73-3.62,1-5.43.19-1.41.32-2.8.53-4.19l.15-.92c.21-1.15.34-1.51.38-1.76a1,1,0,0,0,0-.16c0-.12,0,.36.13,1.22a46.54,46.54,0,0,1,.45,8,50.37,50.37,0,0,1-.62,6Z"/><path class="cls-1" d="M365.82,163.21a25.78,25.78,0,0,1,0,2.78,13.46,13.46,0,0,1-.36,2.83,16,16,0,0,1-.59,2,13,13,0,0,1-4.38,5.7,10.12,10.12,0,0,1-2.93,1.44,7,7,0,0,1-4.13,0c-.41-.13-.23-.59.19-1a2.72,2.72,0,0,1,.74-.54,2.25,2.25,0,0,1,.44-.14,1.45,1.45,0,0,1,.46-.09,8,8,0,0,0,6-2.75,10.78,10.78,0,0,0,2.14-4,10.43,10.43,0,0,0,.56-2.4c.07-.84.1-1.73.1-2.59a16.21,16.21,0,0,0-.33-3.13,5.22,5.22,0,0,0-2.34-3.67,4.47,4.47,0,0,0-3.28-.07,6.13,6.13,0,0,0-.72.25c-.9.31-1.23.35-1.64,0-.07-.08-.28-.17-.2-.26s-.1.07,0,.06.06,0,.07-.08a.11.11,0,0,0,0-.11c0-.06-.08,0-.11-.15a.38.38,0,0,1,.06-.28,1.84,1.84,0,0,1,.72-.62,7.54,7.54,0,0,1,3.81-.92,5.39,5.39,0,0,1,4,2,10.42,10.42,0,0,1,1.91,5.69Z"/><path class="cls-1" d="M275.44,152.82a3,3,0,0,0,.78.1,7,7,0,0,0,.79.05,6.18,6.18,0,0,0,1.55-.23,5,5,0,0,0,.55-.17,3.63,3.63,0,0,1,.51-.28A7.45,7.45,0,0,0,283,149.4a9,9,0,0,0,1-1.9c.09-.21.19-.42.28-.64s.13-.44.22-.66c.16-.44.35-.88.54-1.33.12-.28.06-.25,0,0s.14.74.19,1.32a9.78,9.78,0,0,1-.26,3.09,9,9,0,0,1-.59,1.48,5.26,5.26,0,0,1-.91,1.35c-.23.24-.41.51-.64.75l-.74.71a6.79,6.79,0,0,1-1.68,1.21,7.84,7.84,0,0,1-4.4.69,5.94,5.94,0,0,1-1.32-.26L274,155l-.6-.25c-.31-.14-.61-.26-.91-.41l-.83-.51a14.36,14.36,0,0,1-1.55-1.14c-.37-.32-.71-.67-1.06-1a9,9,0,0,1-.89-1.15,3,3,0,0,1-.31-.55c-.31-.74-.34-1-.41-1.15l-.05-.1a4.65,4.65,0,0,0,.59.57,15.53,15.53,0,0,0,4.23,2.52l.81.29a5.74,5.74,0,0,0,.8.26l.8.22.8.12Z"/><path class="cls-1" d="M389.56,162.39l-.9.66c-.32.19-.66.36-1,.53a11.62,11.62,0,0,1-2.07.83,10.42,10.42,0,0,1-1.58.39,10.69,10.69,0,0,1-5.53-.87l-1.06-.59-.53-.28-.46-.37a7.7,7.7,0,0,1-1.13-1c-.31-.39-.6-.81-.87-1.2s-.18-.19,0-.05.72.31,1.21.55a22.42,22.42,0,0,0,5.12,1.53,4.2,4.2,0,0,0,1.58,0l.8-.11c.26-.08.52-.16.78-.22a12,12,0,0,0,1.71-.53c.55-.23,1.1-.51,1.64-.8l1-.62c.32-.21.59-.49.89-.73a11.18,11.18,0,0,0,1.23-1.25,13.47,13.47,0,0,0,1-1.45l.54-1.24c.17-.42.26-.86.42-1.3a3,3,0,0,0,.18-.58c.17-.74.31-1,.33-1.16a.65.65,0,0,0,0-.11,5.08,5.08,0,0,0,.15.82,8.73,8.73,0,0,1-.66,5.68,10.86,10.86,0,0,1-1.19,1.91,11.52,11.52,0,0,1-1.6,1.6Z"/><path class="cls-1" d="M358.58,232.86a15.18,15.18,0,0,0-6.49,1.21,24.25,24.25,0,0,0-5.39,4.21c-1.71,1.64-3.38,3.4-5.32,5a26.27,26.27,0,0,1-6.45,3.77,16,16,0,0,1-5.43,1.21A11.7,11.7,0,0,1,324,247a13.91,13.91,0,0,1-3.94-3c-1.11-1.18-2-2.45-3-3.65a21.82,21.82,0,0,0-3-3.28,8.8,8.8,0,0,0-3.72-1.9,8.48,8.48,0,0,0-4.16.08,9.33,9.33,0,0,0-3.56,2.24,22.57,22.57,0,0,0-4.58,7.61,77.78,77.78,0,0,0-4,15.74c-.57,3.42-1,6.88-1.43,10.34a88.13,88.13,0,0,1-1.7,10.41c-.3,1.1-.8,1.59-.91,1.43s-.06-.73-.08-1.64a70,70,0,0,1,.5-9.21A159.79,159.79,0,0,1,294.19,251a46.61,46.61,0,0,1,3.88-10.26,19.84,19.84,0,0,1,3.34-4.57,10.18,10.18,0,0,1,5.17-2.8,10.64,10.64,0,0,1,3.56,0,10.35,10.35,0,0,1,3.35,1.2,17.51,17.51,0,0,1,5,4.74,27,27,0,0,0,4.28,4.75,10.7,10.7,0,0,0,5.57,2.29,13.27,13.27,0,0,0,6.61-1.31,25.55,25.55,0,0,0,3.1-1.64,21.71,21.71,0,0,0,2.82-2.07c1.79-1.53,3.44-3.29,5.22-5a32.67,32.67,0,0,1,2.81-2.41,14,14,0,0,1,3.28-1.93,21.35,21.35,0,0,1,9.12-.87,34.2,34.2,0,0,1,8.82,2.05,32.2,32.2,0,0,1,11.52,7.34,72,72,0,0,1,8.48,10.57c3.9,5.79,7.18,11.79,10.72,17.64.77,1.3,1.56,2.54,2.37,3.82,3,4.74,4.07,6.15,4.38,7.44a6.92,6.92,0,0,1,.21.85c0,.33-.39.09-1.13-.65a30.5,30.5,0,0,1-3-3.69c-7.19-10.11-12.34-22.19-20.72-31.84-.76-.91-1.6-1.74-2.39-2.61-.42-.41-.85-.79-1.27-1.19l-.63-.59-.69-.53a29.12,29.12,0,0,0-5.88-3.7,31.75,31.75,0,0,0-6.58-2.32,29.81,29.81,0,0,0-6.9-.84Z"/><path class="cls-1" d="M426.16,233.15c1.82,6.12,3.35,12.31,4.67,18.54s2.44,12.5,3.3,18.82c.63,4.61,1.17,9.23,1.43,13.88a99.79,99.79,0,0,1,0,12.35,51.79,51.79,0,0,1-.79,6.17,25.37,25.37,0,0,1-1.88,6,10.45,10.45,0,0,1-4.27,4.91,7.8,7.8,0,0,1-3.23.92,10.75,10.75,0,0,1-1.61,0l-1.56-.07a36.92,36.92,0,0,1-11.95-3.4,67.3,67.3,0,0,1-17.68-12.81,124.59,124.59,0,0,1-17.52-21.58,12.4,12.4,0,0,1-.8-1.32c-.13-.27-.15-.41-.07-.47s.79.29,1.67,1.17a111.19,111.19,0,0,1,7.91,9.3c5.77,7.32,12.19,14.21,19.76,19.57a45.81,45.81,0,0,0,12.22,6.33,33.28,33.28,0,0,0,6.7,1.41,20.6,20.6,0,0,0,3.31.06,6,6,0,0,0,2.79-1.15c2-1.5,3.18-4.14,3.93-6.8a41.78,41.78,0,0,0,1.31-8.41,114.18,114.18,0,0,0-.47-17.34,248.84,248.84,0,0,0-6.72-37.59c-1-3.8-2-7.58-3.25-11.3s-2.72-7.35-4-11.08a67.43,67.43,0,0,1-4.18-17.5c-.39-6.05.7-12,0-17.77a15.5,15.5,0,0,0-1.9-6.29A8.15,8.15,0,0,0,408.3,174a9.62,9.62,0,0,0-3.18-.28,24.42,24.42,0,0,0-3.28.38,21.38,21.38,0,0,0-6.21,2,10.08,10.08,0,0,0-4.07,3.62c-.17.37-.37.73-.52,1.07a5.19,5.19,0,0,0-.24,1,7.87,7.87,0,0,0,0,1.89,8.58,8.58,0,0,0,.95,2.71,6.93,6.93,0,0,0,1.12,1.5,4.58,4.58,0,0,0,.51.49c.17.14.32.28.48.39a7.72,7.72,0,0,0,.94.55c.17.13.12.21-.18.25a3.17,3.17,0,0,1-1.58-.22c-1.48-.48-3.37-2.39-3.95-5.38a7.48,7.48,0,0,1,.11-3.45,8.4,8.4,0,0,1,.69-1.62,14.74,14.74,0,0,1,1-1.42,14.23,14.23,0,0,1,5.47-3.78,25.22,25.22,0,0,1,6.32-1.68,25.79,25.79,0,0,1,3.31-.23l.87,0c.3,0,.61.06.9.11a12.76,12.76,0,0,1,1.72.44,10,10,0,0,1,5.46,4.52,13.78,13.78,0,0,1,1.34,3.24,25.65,25.65,0,0,1,.66,3.32c.57,4.44.15,8.82,0,13.06-.05,1.57-.06,3.14,0,4.68a40.23,40.23,0,0,0,.55,4.61,69,69,0,0,0,2.32,9.13c1,3,2.08,6,3.21,9s2.22,6.09,3.15,9.17Z"/><path class="cls-1" d="M398,201.48c.7.58,1.43,1.13,2.15,1.68l1.1.81.56.39.89.6,2.5,8,1.19,3.83c.36,1.29.71,2.58,1.05,3.88.66,2.55,1.32,5.1,1.87,7.67a169.28,169.28,0,0,1,3.73,27.55c0,1,.11,2,.13,3.08l0,3.1c.08,2.06-.07,4.12-.12,6.16,0,1.32-.18,2.63-.28,3.94a37.13,37.13,0,0,1-.46,3.94c-.22,1.3-.44,2.61-.69,3.9s-.7,2.56-1.08,3.82c-.48,1.58-.88,1.21-1-.25a37.92,37.92,0,0,1,.57-6.87l.33-1.93c.11-.65.14-1.3.21-2,.12-1.3.29-2.6.38-3.92.11-2.62.27-5.25.21-7.9a146.61,146.61,0,0,0-.94-15.9,161,161,0,0,0-3.51-19.27c-.8-3.37-1.64-6.72-2.67-10l-3-9.69-.51-.35A69,69,0,0,1,390.43,197a28.91,28.91,0,0,1-5.83-8.46,13.49,13.49,0,0,1-.8-2.5,6.8,6.8,0,0,1-.06-2.69,30,30,0,0,1,1.14-5,26.41,26.41,0,0,1,1.43-3.7,13.44,13.44,0,0,1,1-1.76,4.53,4.53,0,0,1,1.61-1.55,2.12,2.12,0,0,1,1.36-.17,2.32,2.32,0,0,1,1.16.66,4.34,4.34,0,0,1,1,2,12.53,12.53,0,0,1,.22,4.08,16.83,16.83,0,0,1-.68,3.49,8,8,0,0,1-2.56,4.13,2.34,2.34,0,0,1-2.25.52,1.66,1.66,0,0,1-.61-.34c-.09-.1,0-.19.1-.27s.37-.15.66-.27a3.9,3.9,0,0,0,.95-.67,6,6,0,0,0,1-1.41,14.1,14.1,0,0,0,1.54-6.24,8.74,8.74,0,0,0-.39-3.06,1.45,1.45,0,0,0-.53-.78s-.06,0-.08,0-.08,0-.09,0a.66.66,0,0,0-.21.12,4.16,4.16,0,0,0-.87,1,14,14,0,0,0-.8,1.43,25.12,25.12,0,0,0-1.24,3.21,32.72,32.72,0,0,0-.88,3.37c-.11.57-.2,1.13-.26,1.69a6.75,6.75,0,0,0,0,1.48,15.49,15.49,0,0,0,1.82,4.59,22.72,22.72,0,0,0,1.4,2.16c.53.69,1,1.39,1.62,2.06a56.77,56.77,0,0,0,7.7,7.31Z"/><path class="cls-1" d="M394.62,188.13a10.8,10.8,0,0,1,.2-2.63c.07-.3.07-.62.16-.92a13,13,0,0,1,1.31-3c.25-.41.47-.85.75-1.26a2.73,2.73,0,0,1,1.45-1.34c.22-.06.4.39.52.87s.25.94.09,1.1a16.58,16.58,0,0,0-1.76,2.37,5.66,5.66,0,0,0-.62,1.9,9.51,9.51,0,0,0-.28,2.18,4.63,4.63,0,0,0,.13,1.3,2.15,2.15,0,0,0,.94,1.46,1.69,1.69,0,0,0,1.27,0c.1,0,.19-.09.29-.12.36-.1.51,0,.77.4a3.07,3.07,0,0,1,.17.31.67.67,0,0,1-.25.93,3.34,3.34,0,0,1-2,.45,3.22,3.22,0,0,1-2.12-1.12,5.14,5.14,0,0,1-1.09-2.87Z"/><path class="cls-1" d="M399.49,194.11a5.47,5.47,0,0,1-.15-2.25c0-.25,0-.5.09-.74a12.36,12.36,0,0,1,.95-2.33,8.65,8.65,0,0,0,.42-1,2.28,2.28,0,0,1,.68-1.19c.24-.17,1.6,1.09,1.4,1.47a16.46,16.46,0,0,1-1.24,2.12,3.39,3.39,0,0,0-.42,1.41,4.33,4.33,0,0,0-.09,1.51c0,.14.05.29.1.43l.18.39a1.85,1.85,0,0,0,1.06.78,1.16,1.16,0,0,0,.56.05,5.32,5.32,0,0,0,.56-.06,2.44,2.44,0,0,1,.26-.06c.31,0,.41.1.5.6l.06.34a.69.69,0,0,1-.37.81,3.46,3.46,0,0,1-2.94-.28,3.67,3.67,0,0,1-1.65-2Z"/><path class="cls-1" d="M286.24,269l-.84-2.91c-.1-.36-.26-.7-.36-1.06-.33-1.29-.61-2.6-.82-3.92-.08-.59-.22-1.17-.32-1.75-.06-.38-.16-.76-.21-1.14a4,4,0,0,1,.06-1.15c.11-.47,1.94.13,2,.88.16,1.4.31,2.78.47,4.26a13.06,13.06,0,0,0,.71,2.62l.88,2.93.53,1.83c.28.92.48,1.88.7,2.82.16.74.4,1.46.51,2.23a3,3,0,0,1,.09.51c0,.64-.12.85-.63.94a3.43,3.43,0,0,1-.34.06.78.78,0,0,1-.79-.64l-.85-3.65c-.25-.93-.5-1.88-.81-2.84Z"/><path class="cls-1" d="M277.21,305.41a112.87,112.87,0,0,1-3.51-10.88c-.37-1.33-.77-2.66-1.1-4-1.15-4.74-2.1-9.52-3-14.31-.38-2.13-.77-4.26-1.15-6.37a64.55,64.55,0,0,1-1.15-8.19c-.08-1.71,1.94.24,2.4,3.33.82,5.51,1.74,11,2.69,16.55.56,3.33,1.47,6.71,2.34,10,1,3.66,2,7.29,3.28,10.84a62.28,62.28,0,0,0,2.65,6.42,31,31,0,0,0,2.63,4.5,9.68,9.68,0,0,0,3.67,3.32,3.68,3.68,0,0,0,3.4-.24,9.22,9.22,0,0,0,2.65-2.6c.34-.45.61-.95.93-1.43,1.1-1.84,1.47-2.44,2.14-2.63a1.72,1.72,0,0,1,.45-.13c.43,0,.35.94-.37,2.46a20.17,20.17,0,0,1-2,3.3,9.35,9.35,0,0,1-3.16,2.78,5.55,5.55,0,0,1-4.68.2,9.75,9.75,0,0,1-3.49-2.63c-2.69-3.13-4.26-6.74-5.73-10.31Z"/><path class="cls-1" d="M343.67,263.56a20.94,20.94,0,0,1-5.2,3.76,12.76,12.76,0,0,1-6.42,1.39,11.43,11.43,0,0,1-4.63-1.38l-.91-.54c-.3-.19-.56-.42-.84-.63a15.36,15.36,0,0,1-1.53-1.35,16.06,16.06,0,0,1-1.42-1.44c-.44-.51-.93-1-1.32-1.53a33,33,0,0,1-4.22-6.8,48,48,0,0,1-2.55-6.59,28.56,28.56,0,0,1-1.5-8.9c0-1,.52-.81,1-.05a10.19,10.19,0,0,1,1.32,3.7,41.74,41.74,0,0,0,6.34,16.28,23.68,23.68,0,0,0,3.54,4,12.31,12.31,0,0,0,4.37,2.86,9.29,9.29,0,0,0,5.55.22,14.1,14.1,0,0,0,5.16-2.65,27.28,27.28,0,0,0,5.09-5.31,38.84,38.84,0,0,0,5.26-9.94,35,35,0,0,0,1.84-8.38c.06-.63.1-1.24.12-1.86.11-2.33.12-3.06.6-3.6a2.33,2.33,0,0,1,.32-.36c.35-.27.8.7.89,2.52a35.21,35.21,0,0,1-3.63,16.14,37.08,37.08,0,0,1-7.21,10.44Z"/><path class="cls-1" d="M304.07,276.91c0-3.31.07-6.62.12-9.93l0-3.62c.1-4.25.26-8.49.32-12.73,0-1.88,0-3.77-.09-5.63-.05-1.2-.13-2.39-.23-3.58s-.16-2.38-.33-3.44c-.12-.58.31-.81,1-.29a4.83,4.83,0,0,1,1.38,3.15,122.6,122.6,0,0,1-.05,14.85c-.16,3-.1,6-.15,9.06l-.11,10c0,2,0,4.09,0,6.14.06,3.09.13,6.2.37,9.26.19,2.38.54,4.69.94,7,.09.5.19,1,.28,1.51.35,1.88.39,2.48,0,3a2,2,0,0,1-.28.35c-.32.28-.83-.43-1.21-1.84A64.7,64.7,0,0,1,304.28,287c-.18-3.34-.22-6.69-.25-10Z"/><path class="cls-1" d="M367.92,276.54c-.59-3.22-1-6.46-1.26-9.71-.11-1.18-.22-2.37-.28-3.55a95.37,95.37,0,0,1,.33-12.54c.16-1.85.35-3.71.59-5.54a29.68,29.68,0,0,1,1.54-7c.27-.7.7-.45,1,.27a6,6,0,0,1,.13,3.19,101.28,101.28,0,0,0-1.81,14,67.63,67.63,0,0,0,.17,8.76c.2,3.21.54,6.43,1.06,9.61.32,2,.69,3.91,1.17,5.83a49.7,49.7,0,0,0,2.8,8.52,24.69,24.69,0,0,0,3.56,5.74,14.1,14.1,0,0,0,1,1.05c.6.67,1.07,1,1.32,1.36a1.37,1.37,0,0,1,.41.88,2.37,2.37,0,0,1,.05.44c0,.22-.24.29-.62.2a3.81,3.81,0,0,1-1.52-.79,17.55,17.55,0,0,1-4.3-5.08,37.39,37.39,0,0,1-2.79-6.11,64.43,64.43,0,0,1-2.56-9.6Z"/><path class="cls-1" d="M303.37,359.28l2.24-13,.71-4.76a153.38,153.38,0,0,0,1.86-16.79,62,62,0,0,0-.1-7.47l-.21-2.37c-.06-.79-.22-1.57-.32-2.36-.18-1.57-.51-3.11-.73-4.68-.14-1,.35-1,1-.25a7.1,7.1,0,0,1,1,1.6,10,10,0,0,1,.45,1.14,7.63,7.63,0,0,1,.27,1.33,72.87,72.87,0,0,1-.08,19.9c-.47,3.94-.95,8-1.55,12-.68,4.39-1.47,8.76-2.21,13.14-.45,2.69-.91,5.38-1.29,8.07a118.52,118.52,0,0,0-1.25,12.28c-.14,3.18-.06,6.3,0,9.44,0,.7.05,1.38.07,2.07.06,2.59,0,3.42-.54,4a2.45,2.45,0,0,1-.34.37c-.38.25-.71-.8-.85-2.7a114.62,114.62,0,0,1,.09-17.66c.39-4.47,1-8.91,1.75-13.31Z"/><path class="cls-1" d="M380.65,358.86c-.78-4.86-1.43-9.73-2-14.61-.22-1.78-.46-3.56-.65-5.34-.64-6.28-1.12-12.58-1.52-18.87-.18-2.8-.37-5.61-.56-8.38a83.72,83.72,0,0,1-.29-10.75c.09-1.14.57-.94,1,0a12.73,12.73,0,0,1,1,4.68c.28,7.23.72,14.48,1.12,21.79.25,4.37.81,8.9,1.31,13.35.56,4.9,1.18,9.79,1.92,14.66.46,3,1,6,1.53,9,.86,4.51,1.83,9,3.09,13.39a77.62,77.62,0,0,0,3.59,9.82c.33.68.65,1.36,1,2.05,1.28,2.53,1.69,3.31,1.57,4.11a2.19,2.19,0,0,1-.08.54c-.15.44-1.1-.38-2.23-2.24a50.31,50.31,0,0,1-4-8.92c-1.08-3.13-2-6.35-2.81-9.6-1.2-4.83-2.13-9.73-3-14.63Z"/><path class="cls-1" d="M351.44,378.8a102.32,102.32,0,0,1-12.12-1c-1.46-.22-2.93-.39-4.38-.69a67.72,67.72,0,0,1-7.56-2.07c-2.46-.77-4.92-1.55-7.39-2.26-2.19-.64-4.41-1.19-6.62-1.63-1.42-.28-2.85-.5-4.26-.64a11.66,11.66,0,0,0-4,.07c-.32.11-.48.1-.61-.05s-.13-.48.18-.87a3.42,3.42,0,0,1,1.62-1,6.71,6.71,0,0,1,2.46-.25,53.44,53.44,0,0,1,9,1.79c2.91.79,5.77,1.71,8.62,2.67,1.7.58,3.45,1.12,5.22,1.6.88.24,1.76.47,2.63.64l2.69.49a99.69,99.69,0,0,0,12,1.31c2.47.1,4.95.16,7.41.06a74,74,0,0,0,11.15-1.13,57.66,57.66,0,0,0,8.22-2.28l1.74-.68c1.1-.39,1.8-.69,2.33-.81a1.88,1.88,0,0,1,1.21,0,2.11,2.11,0,0,1,.45.18c.38.26-.38.93-2,1.72a52.08,52.08,0,0,1-15.65,4.27,87.25,87.25,0,0,1-12.3.63Z"/><path class="cls-1" d="M354.13,402.9a121,121,0,0,1-12.76-1.69c-1.54-.28-3.08-.54-4.61-.87a161.23,161.23,0,0,1-15.89-4.44l-3.47-1.17-1.73-.6-.86-.31-.36-.13c-.09,0-.08,0-.27,0-1.56,0-3.12,0-4.68-.08a20.34,20.34,0,0,1-4.75-.66,2.27,2.27,0,0,1-.34-.15,1.4,1.4,0,0,1-.26-.21c-.12-.14-.12-.24,0-.3A4.68,4.68,0,0,1,305,392a12.13,12.13,0,0,1,4.05-.44c1.55.08,3.11.14,4.68.17l.58,0c.19,0,.41,0,.58.05l.43.17,1.09.41,2.2.81c3,1.06,5.95,2.05,9,3a111.58,111.58,0,0,0,11.27,2.73,125.42,125.42,0,0,0,12.63,1.93q3.92.4,7.85.49a71,71,0,0,0,11.85-.68,52.87,52.87,0,0,0,8.78-2.16c.63-.2,1.22-.47,1.85-.69,1.16-.4,1.91-.71,2.47-.85a2.11,2.11,0,0,1,1.28,0,2,2,0,0,1,.47.17c.38.25-.44.94-2.13,1.77a50.26,50.26,0,0,1-16.73,4.05,87.46,87.46,0,0,1-13.05,0Z"/><path class="cls-1" d="M327.64,156.32c-.17,3.3-1.93,11.63,3.8,11.26,4.55-.3,6.26-6.8,6.81-10.41.14-.92-2.06-.57-2.18.24-.31,2-1.76,9.11-4.55,8.75-3.46-.44-1.81-7.95-1.7-10.08.05-1-2.14-.57-2.18.24Z"/><path class="cls-1" d="M309.67,154.77c-.17,3.3-1.93,11.63,3.81,11.26,4.54-.29,6.25-6.79,6.8-10.4.14-.93-2.06-.57-2.18.24-.3,2-1.76,9.1-4.54,8.74-3.47-.44-1.82-7.94-1.7-10.08.05-1-2.14-.56-2.19.24Z"/><path class="cls-1" d="M319.73,173.34c-1.92-1.57-1.8-4.42-1.08-6.52.1-.28.55-.42.05-.32a1.24,1.24,0,0,1,.54.1c.45.2.88.36,1.31.6a27.81,27.81,0,0,1,2.62,1.82c.56.42,2.53-.44,2-.81-2.08-1.54-4.88-3.87-7.57-2.3s-2,6.54.07,8.25c.54.44,2.53-.4,2-.82Z"/><path class="cls-1" d="M309.19,145.45c-1.09-.81-1.14-1.33-1-1.65a6.29,6.29,0,0,1,2.54-2.57,8.29,8.29,0,0,1,3-.86,8.55,8.55,0,0,1,2.67.07,8,8,0,0,1,2.55.92,10.11,10.11,0,0,1,1.28.95l.6.48a6.76,6.76,0,0,1,.52.55c.06.06.15.1.13.22,0,.27-.47.65-.94.82-.1,0-.26.12-.29.1-.24-.24-1,.12-1.22-.12a3,3,0,0,0-.67-.5c-.26-.11-.52-.2-.76-.32a1.66,1.66,0,0,1-.56-.29c-.23-.15-.46-.32-.71-.46a5.35,5.35,0,0,0-1.44-.25,6.49,6.49,0,0,0-2.46.49,5.71,5.71,0,0,0-2,1.33,5.13,5.13,0,0,0-.71.85A3.39,3.39,0,0,1,309.19,145.45Z"/><path class="cls-1" d="M332.74,145.33c-1.09-.85-1.09-1.44-.87-1.76a5.64,5.64,0,0,1,3.3-2.32,8,8,0,0,1,3.34,0,10.54,10.54,0,0,1,2.7.76c.42.19.84.4,1.24.62s.8.48,1.15.77a14.18,14.18,0,0,1,1.23,1.08,10.58,10.58,0,0,1,1.12,1.1c.06.07.15.11.14.22,0,.3-.49.68-1,.84-.11,0-.28.11-.3.09-.26-.27-1.09.06-1.28-.23a3.57,3.57,0,0,0-.72-.62c-.28-.18-.58-.3-.84-.47a5,5,0,0,1-.6-.43,6.5,6.5,0,0,0-.74-.65,5.73,5.73,0,0,0-1.52-.65,6.49,6.49,0,0,0-2.74-.24,4.84,4.84,0,0,0-2.28.89,3.84,3.84,0,0,0-.57.53,1.78,1.78,0,0,0-.21.26A3.24,3.24,0,0,1,332.74,145.33Z"/><path class="cls-1" d="M355.81,391.21l0-4.21a38.1,38.1,0,0,0-.09-3.94,3.34,3.34,0,0,0-.39-1.27c0-.07-.08-.11-.1-.15s0,0,0,0a2.93,2.93,0,0,0,.24-.34,1.36,1.36,0,0,0,.14-.33.45.45,0,0,0,0-.21c0-.13,0,0,.07.06a1,1,0,0,0,.24.21.8.8,0,0,0,.19.13l.1.05.05,0h0l-1-.51.11.06a3.35,3.35,0,0,0,1,.34l.13,0s0,0,0,0v.05a.78.78,0,0,0,0,.14c0,.26-.07.6-.1.92l-.14,2-.26,4.21-.08,1.06-.16,1.78c-.13,1.29-.3,2.54-.5,3.7a9.62,9.62,0,0,1-1.74,4.54,3.17,3.17,0,0,1-1.26.93,2.32,2.32,0,0,1-1.11.1,1.77,1.77,0,0,1-.86-.33,3.58,3.58,0,0,1-1.18-1.7,15.44,15.44,0,0,1-.59-4.26c0-.89,0-1.81-.06-2.74v-2.46l0-3c0-1,0-2-.09-3a17,17,0,0,0-.32-2.69,1.82,1.82,0,0,0-.11-.34,3.15,3.15,0,0,0,.82-.6c.14-.16.09-.23.11-.1a1.73,1.73,0,0,0,.38.74l.2.24h0a2,2,0,0,0-.16.29,9.25,9.25,0,0,0-.59,2.46c-.25,1.88-.33,3.89-.41,5.89s-.13,4.05-.36,6.18c-.06.53-.14,1.07-.25,1.63a7.29,7.29,0,0,1-.61,1.86,2.85,2.85,0,0,1-.37.57,3.25,3.25,0,0,1-.26.3l-.39.3a2,2,0,0,1-.49.24,2.43,2.43,0,0,1-.6.13,3,3,0,0,1-.79-.1,2.39,2.39,0,0,1-.64-.36,1.79,1.79,0,0,1-.39-.41,2.47,2.47,0,0,1-.25-.38,4.27,4.27,0,0,1-.24-.61l-.14-.51-.08-.46a23.28,23.28,0,0,1-.17-3.27c0-1,0-2.06.09-3.08.09-2.51.24-5,.23-7.42a18.56,18.56,0,0,0-.27-3.39,1.67,1.67,0,0,0-.09-.31.71.71,0,0,0-.08-.2s-.05,0,0-.07a1.07,1.07,0,0,0,.36-.29l.08-.09,0,0a.18.18,0,0,0,0-.07l0,0,.08-.24a.24.24,0,0,0,0-.08,1.07,1.07,0,0,0,.39.52c.09.08.2.18.31.26l.06,0h0l0,.07a4.15,4.15,0,0,0-.23.62,24.22,24.22,0,0,0-.68,3.45c-.18,1.2-.33,2.43-.47,3.66-.29,2.47-.54,4.95-.94,7.49a19.63,19.63,0,0,1-.63,2.91,4.74,4.74,0,0,1-.4.92,2.29,2.29,0,0,1-.59.7,2.39,2.39,0,0,1-.34.21,2,2,0,0,1-.49.16,1.75,1.75,0,0,1-.56,0,2.28,2.28,0,0,1-.33-.08,2.51,2.51,0,0,1-1.29-1.08,5.08,5.08,0,0,1-.43-.89,13.88,13.88,0,0,1-.66-3.06,28.73,28.73,0,0,1,0-2.91c.08-3.7.33-7.35.28-10.91a16.55,16.55,0,0,0-.19-2.47l-.05-.2,0-.06h0l.32-.16.15-.11.11,0a1.1,1.1,0,0,0,.18-.14c.13-.17.14-.13.16-.2v0c.14-.81-.19,1.06-.15.87h0v0a.11.11,0,0,0,0-.08.33.33,0,0,0,.06.14,1.71,1.71,0,0,0,.12.23h0a1.65,1.65,0,0,0-.18.23,7.56,7.56,0,0,0-.81,2.11c-.21.82-.38,1.69-.52,2.56-.58,3.52-.8,7.14-1.18,10.83-.05.47-.11.93-.19,1.42a6.39,6.39,0,0,1-.15.79,4.84,4.84,0,0,1-.16.53,2.55,2.55,0,0,1-.25.43l-.18.21a2.25,2.25,0,0,1-.44.42l-.33.21a2,2,0,0,1-.55.18,1.75,1.75,0,0,1-1.25-.27,2.2,2.2,0,0,1-.59-.61,4.81,4.81,0,0,1-.65-1.73,35.59,35.59,0,0,1-.54-5.69c-.15-3.68,0-7.41-.18-10.93a5.22,5.22,0,0,0-.17-1.13,5.81,5.81,0,0,0-.24-.69c.27-.25.22-.39.2-.18,0,0,0,.11,0,.2s0,.05,0,.08h0c.28.67-.39-.92-.31-.74v0l0,.07a.28.28,0,0,0,.09.1s.2.22.33.3l.1.07h0s0,0,0,0a1.13,1.13,0,0,0-.07.15,3.47,3.47,0,0,0-.14.5,38.42,38.42,0,0,0-.56,5.24l-.16,2.74-.13,1.89q-.07,1.08-.18,2.1a15.43,15.43,0,0,1-.7,3.43,5.42,5.42,0,0,1-1.16,2,1.55,1.55,0,0,1-2.05.09A3.94,3.94,0,0,1,322,394a10.15,10.15,0,0,1-.67-2.34,24.26,24.26,0,0,1-.3-3.15,52.05,52.05,0,0,1,.06-5.24c.05-1.46.08-2.93,0-4.37a21.77,21.77,0,0,0-.25-2.76,3.77,3.77,0,0,0-.3-1s0,0,0,0,.18-.18.23-.25a.41.41,0,0,0,.06-.11l0,0s0-.05,0,0a.17.17,0,0,0,0,.07v0c.05.26-.07-.36-.06-.29h0a.13.13,0,0,0,0,.05.88.88,0,0,0,.22.27l.21.16c.06.05,0,0,0,0l0,.06a4.75,4.75,0,0,0-.3,1.14c-.08.44-.14.91-.19,1.38-.1.95-.16,1.91-.22,2.88l-.3,5.85a38.64,38.64,0,0,1-.7,6,4.6,4.6,0,0,1-.75,1.75,1.85,1.85,0,0,1-.64.52,1.61,1.61,0,0,1-1,.12,1.71,1.71,0,0,1-.75-.37,2.64,2.64,0,0,1-.29-.29l-.18-.26a5.54,5.54,0,0,1-.58-1.74c-.1-.53-.16-1-.21-1.55-.18-2-.18-4-.16-6s.08-3.91.13-5.85l.06-2.89c0-.47,0-1,0-1.39l0-.31,0-.17a.83.83,0,0,0-.12-.25c-.05,0,.11-.1.17-.19a.82.82,0,0,0,.12-.2c0-.09,0,0,.09.26l.1.2h0l0,0h0c-.5-.57-.14-.16-.25-.28h0l0,0a2.71,2.71,0,0,0,.27.16s0,0,0,.05-.06.43-.12.81-.08.57-.11.87c-.13,1.2-.22,2.44-.32,3.68-.19,2.48-.37,5-.64,7.49a38.75,38.75,0,0,1-.59,3.83c-.08.32-.17.67-.3,1a4,4,0,0,1-.31.64,1.66,1.66,0,0,1-1.26.82,2,2,0,0,1-.7-.09,3.19,3.19,0,0,1-.55-.29,2.63,2.63,0,0,1-.56-.65,5,5,0,0,1-.53-1.11,20.56,20.56,0,0,1-.76-3.91c-.15-1.28-.24-2.54-.31-3.8s-.12-2.52-.15-3.77l0-2.51a6.26,6.26,0,0,0,0-.75,1.94,1.94,0,0,0-.31-.67c-.13-.19-.32-.46-.58-.4a1,1,0,0,0-.37.61,8.69,8.69,0,0,0-.29,1.47l-.05.38-.07.79-.15,1.84c-.17,2.45-.27,4.92-.33,7.4-.12,6.16-.88,5.37-1.6.1-.17-1.32-.32-2.92-.43-4.76-.05-.92-.09-1.9-.1-2.94,0-.52,0-1.06,0-1.61,0-.27,0-.55,0-.83,0-.1,0-.4,0-.63l.06-.74a14.38,14.38,0,0,1,1.18-5.37,2.9,2.9,0,0,1,1.18-1.26,4.14,4.14,0,0,1,1-.27,2.81,2.81,0,0,1,1.08.24,4.39,4.39,0,0,1,1.69,1.47,7.09,7.09,0,0,1,1.07,2.13c.05.28.13.52.16.83l0,1,0,2.08c0,.8,0,1.61,0,2.43.05,2,.14,4,.31,6,.09,1,.2,1.95.35,2.87a12.83,12.83,0,0,0,.29,1.28,3.8,3.8,0,0,0,.17.51l.07.15s0,0,0,0h0l-.13.1c-.09.06-.19.16-.26.21a1.31,1.31,0,0,0-.34.29l-.12.17a.27.27,0,0,0-.07.08s-.07.2-.06.14h0c0-.08.07.68,0,.34,0-.1,0-.06-.17-.27s-.25-.18-.51-.4a2.85,2.85,0,0,0-.37-.23l-.19-.09-.13-.06,0-.05a8.39,8.39,0,0,0,.29-1.09c.18-.89.31-1.88.43-2.86.23-2,.4-4,.57-6s.29-4,.59-6.24l.05-.31,0-.44a3.35,3.35,0,0,1,.76-1.73,1.93,1.93,0,0,1,.24-.25l.18-.14a3.06,3.06,0,0,1,.42-.28,2.77,2.77,0,0,1,1.43-.33,2.61,2.61,0,0,1,1.46.54,3.14,3.14,0,0,1,.72.78,3.75,3.75,0,0,1,.58,1.51c.05.42.06.7.07,1,0,.57,0,1.09,0,1.62-.09,4.15-.33,8.2-.22,12.15a27.42,27.42,0,0,0,.21,2.83,6.64,6.64,0,0,0,.23,1.05l0,0v0a1.59,1.59,0,0,0-.27.12,2.18,2.18,0,0,0-.49.37.82.82,0,0,0-.26.23l0,.08.27-.44,0,0a1.14,1.14,0,0,0-.1.19.77.77,0,0,0-.08.27c0,.14,0,.07-.07,0a1.58,1.58,0,0,0-.23-.27,4.45,4.45,0,0,0-.41-.33c-.52-.34-.31-.19-.33-.27a2.67,2.67,0,0,0,.15-.42,12.32,12.32,0,0,0,.26-1.27c.15-.93.24-1.91.32-2.9.15-2,.24-4,.36-6.08.05-1,.11-2.06.2-3.12a26.36,26.36,0,0,1,.44-3.3,7.72,7.72,0,0,1,.3-1,4.3,4.3,0,0,1,.34-.69,2.52,2.52,0,0,1,1.17-1,2.38,2.38,0,0,1,1.8.05,2.58,2.58,0,0,1,1,.81,4,4,0,0,1,.63,1.26,15,15,0,0,1,.5,3.51c.1,2.16,0,4.25-.06,6.32l-.06,1.49v.55c0,.11,0,.24,0,.37a2.32,2.32,0,0,0,.06.44.4.4,0,0,0,.11.2.12.12,0,0,0,.17,0,2.35,2.35,0,0,0,.19-.78l0-.31.08-1.23.2-3c.07-1,.16-2,.3-3.11a14.59,14.59,0,0,1,.31-1.67,5.25,5.25,0,0,1,.35-1l.15-.3a3.37,3.37,0,0,1,.28-.38,2.29,2.29,0,0,1,1-.68A2.56,2.56,0,0,1,329,375a2.77,2.77,0,0,1,1.25,1.18,5.91,5.91,0,0,1,.63,1.92,12,12,0,0,1,.14,1.75l0,1.54c0,3.09,0,6.15.09,9.2a36.5,36.5,0,0,0,.39,4.42,7.82,7.82,0,0,0,.22.92l.09.2s-.29.25-.33.26a.66.66,0,0,0-.23.21l-.09.14s0,0,0,0,0,0,0,.08a.39.39,0,0,0,0-.18,1,1,0,0,1-.11-.22,1.69,1.69,0,0,0-.23-.36s-.12-.13-.12-.11h0l.08-.09,0,0c.38.29-.86-.66.86.65l-.08-.07-.16-.12a2.53,2.53,0,0,0-.72-.29,6.29,6.29,0,0,0,.16-.84c.38-2.95.55-6.15.93-9.28.19-1.58.4-3.17.75-4.78a19.26,19.26,0,0,1,.7-2.47,7.23,7.23,0,0,1,.65-1.31,3.13,3.13,0,0,1,1.52-1.32,1.92,1.92,0,0,1,.66-.15h.51l.11,0,.2.06a1.78,1.78,0,0,1,1,.79,3,3,0,0,1,.24.52,7.39,7.39,0,0,1,.29,1.45c.09.87.12,1.68.13,2.49,0,1.62,0,3.2-.06,4.79l-.15,4.72a23.76,23.76,0,0,0,.12,4.44,7.5,7.5,0,0,0,.52,1.88s0,.09.06.1,0,0,0,0h0l-.07.06a.86.86,0,0,0-.13.14,2.76,2.76,0,0,0-.19.21l-.09.16a.08.08,0,0,0,0,.05v0c-.1.49,0,.14-.05.25h0s0,0,0-.05-.08-.12-.19-.25l-.15-.13-.22-.18-.2-.12v0a.11.11,0,0,0,0,0,3.33,3.33,0,0,0,.14-.37,32.08,32.08,0,0,0,.78-4.4c.39-3.09.68-6.22,1.15-9.38.11-.71.23-1.42.38-2.13a12.77,12.77,0,0,1,.65-2.27,4.15,4.15,0,0,1,.36-.68,2.12,2.12,0,0,1,1.07-.87,1.77,1.77,0,0,1,1.09,0,3.13,3.13,0,0,1,.65.35,2.73,2.73,0,0,1,.66.82,7.05,7.05,0,0,1,.65,2.52,67.73,67.73,0,0,1,0,8.56c-.06,1.4-.12,2.79-.15,4.15a18.2,18.2,0,0,0,.22,3.82,1,1,0,0,0,.08.26s0,0,0,0a1.47,1.47,0,0,0-.28.18c-.2.22-.23.2-.29.3l0,.07,0,0a.15.15,0,0,0,0-.07h0c0-.08,0,.17,0-.18h0v0s0,0-.06-.1a.69.69,0,0,0-.11-.13s-.1-.08-.13-.13v0a1.78,1.78,0,0,0,.24-.53q.12-.4.21-.87a33.51,33.51,0,0,0,.38-4c.14-2.75.17-5.56.45-8.43a12.87,12.87,0,0,1,1.11-4.52,2.92,2.92,0,0,1,1.25-1.26,1.66,1.66,0,0,1,.82-.18,1.71,1.71,0,0,1,.9.32,2.32,2.32,0,0,1,.7.88,8.65,8.65,0,0,1,.56,2.42c.16,1.47.2,2.88.23,4.29l0,4a17.84,17.84,0,0,0,.2,3.55.38.38,0,0,0,.63.24,1.6,1.6,0,0,0,.39-.71,9.94,9.94,0,0,0,.34-1.64l.1-.85.1-1.1.25-3.9c.07-1.06.12-2.11.21-3.2l.08-.84.07-.45.05-.26a3.84,3.84,0,0,1,.14-.4,2.13,2.13,0,0,1,1.2-1.11,2,2,0,0,1,1.67.23,3.65,3.65,0,0,1,1.39,1.74,6.52,6.52,0,0,1,.48,1.83,31.54,31.54,0,0,1,.12,3.31c0,2.14-.05,4.25,0,6.35,0,1.05,0,2.09.12,3.1.05.51.1,1,.19,1.47,0,.24.11.42.16.63a1.8,1.8,0,0,0,.15.31s-.08.06-.13.12a1.13,1.13,0,0,0-.15.21l-.05.11,0,0a.16.16,0,0,0,0,.1s0,0,0,0,0,0,0-.07a.88.88,0,0,0-.28-.34c-.12-.12-.11-.1-.1-.11h0l0-.09s.07-.16.11-.25a9,9,0,0,0,.39-1.37c.21-1,.36-2,.49-3.05s.23-2.07.31-3.12l.12-1.68c.05-.72.1-1.57.13-2.36.11-3.55.44-5.22,1.38-6.61A1.74,1.74,0,0,1,362,379a1,1,0,0,1,.39-.13,1.43,1.43,0,0,1,.42,0,2.9,2.9,0,0,1,1.26.86,9.69,9.69,0,0,1,1.09,2.55,47.32,47.32,0,0,1,.81,6.48l.41,4.71a43.5,43.5,0,0,0,.6,4.59,4,4,0,0,0,.26.87h0l-.2.15a1.13,1.13,0,0,0-.27.27c-.1.17,0,.1-.15-.11a2.13,2.13,0,0,0-.34-.35s0,0,0,0a1.46,1.46,0,0,0,.11-.2,6.9,6.9,0,0,0,.69-2,18,18,0,0,0,.26-4.49c-.06-1.55-.21-3.11-.32-4.71-.05-.78-.07-1.65-.07-2.4s-.05-1.59,0-2.44a7.4,7.4,0,0,1,.6-2.63,3.47,3.47,0,0,1,.43-.68,1.81,1.81,0,0,1,.93-.63,1.33,1.33,0,0,1,.79,0,1.62,1.62,0,0,1,.58.34,2.55,2.55,0,0,1,.54.72,6,6,0,0,1,.46,1.38c.1.42.18.84.25,1.25.15.83.27,1.65.38,2.47.22,1.64.4,3.27.58,4.89l.57,4.86c.1.8.21,1.6.35,2.37a8.74,8.74,0,0,0,.24,1.08l0,.09v0h0l-.17.08-.29.2c-.08.08-.13.12-.14.16s0,0,0,0h0c0,.08-.14-.71-.08-.38h0s0,0,0,0,0,0-.08-.09a.58.58,0,0,0-.1-.12l-.06,0h0s0-.05,0-.08A3.48,3.48,0,0,0,373,397a10.37,10.37,0,0,0,.08-1.14c0-.78,0-1.58,0-2.38-.05-1.6-.17-3.21-.29-4.83l-.34-4.87a29.3,29.3,0,0,1,0-5,2.86,2.86,0,0,1,.45-1.27,2,2,0,0,1,.69-.55,1.65,1.65,0,0,1,1-.12,2.13,2.13,0,0,1,1.26,1,6.82,6.82,0,0,1,.47,1,20,20,0,0,1,.88,3.78c.38,2.49.59,5,.78,7.42l.28,3.66a7.21,7.21,0,0,0,.3,1.6,3.62,3.62,0,0,0,.27.64.8.8,0,0,0,.1.13c-.05,0-.19.28-.2.27a.35.35,0,0,0,0,.11s0,0,0,0,0,0,0,0a.66.66,0,0,0-.05-.15c0-.07-.05-.05-.1-.16s0,0,0-.06.08-.09.13-.14a5,5,0,0,0,.37-.63,6,6,0,0,0,.54-1.51,9.86,9.86,0,0,0,.14-3.31,23.93,23.93,0,0,0-.66-3.46l-.46-1.75c-.15-.54-.35-1.12-.54-1.71a17.61,17.61,0,0,1-.87-3.8,6.49,6.49,0,0,1,.17-2.21,4.55,4.55,0,0,1,.5-1.14,2.16,2.16,0,0,1,.66-.69,2,2,0,0,1,.35-.16,1.25,1.25,0,0,1,.45-.07,1.46,1.46,0,0,1,.8.21,2.23,2.23,0,0,1,.68.65,4.73,4.73,0,0,1,.32.54,5.57,5.57,0,0,1,.42,1.06c.18.69.29,1.27.41,1.88l.68,3.62c.45,2.39.91,4.78,1.48,7.11a26,26,0,0,0,.88,2.94,4.45,4.45,0,0,0,.27.62l.13.23,0,.06,0,0s0,0,0,0l-.12.09c-.31.33-.43.59-.4.62l0,0h0c0-.06.22.53.11.28h0a.16.16,0,0,0-.07-.09.17.17,0,0,0-.1,0l-.23-.12a2.07,2.07,0,0,0-.49-.12H384l-.08,0v-.17c0-.09,0-.2,0-.32-.13-1.94-.52-4.12-.85-6.24s-.61-3.81-.84-5.51c-.12-.85-.22-1.66-.29-2.47,0-.4-.06-.8-.08-1.21,0-.23,0-.43,0-.69a3.61,3.61,0,0,1,.07-.45l0-.13a1.33,1.33,0,0,1,.08-.24l.13-.25a1.73,1.73,0,0,1,.22-.27,1.53,1.53,0,0,1,1.1-.44,1.42,1.42,0,0,1,.56.14,1.21,1.21,0,0,1,.31.19,2.09,2.09,0,0,1,.47.52,5.64,5.64,0,0,1,.33.62c.16.37.28.7.39,1,.22.64.39,1.23.55,1.8.32,1.12.57,2.13.79,3a61.61,61.61,0,0,1,1.39,7.49,10.5,10.5,0,0,0,.48,2.28c.09.21.23.34.09.35a1,1,0,0,1-.65-.4,10.14,10.14,0,0,1-1.55-2.88c-.56-1.38-1.16-3.18-1.84-5.33l-1.1-3.46c-.2-.61-.41-1.24-.63-1.86-.12-.3-.24-.61-.36-.87a2,2,0,0,0-.16-.29h0a2,2,0,0,0,.29-.22c.11-.1.18-.13.26-.21l.19-.19a.58.58,0,0,0,.14-.26s0,0,0,0a.41.41,0,0,0,.08.1s.12.09,0,0l.08.07a1,1,0,0,0,.17.1l.18.05h.1l.16,0c.61.18.39.1.43.11a2.4,2.4,0,0,0,0,.27c0,.21,0,.46,0,.71,0,.5.11,1,.18,1.56.14,1.06.31,2.13.49,3.21.36,2.19.73,4.37,1.09,6.57.17,1.12.34,2.21.41,3.46,0,.17,0,.32,0,.52V395l0,.38s-.05.22-.08.32l-.07.18,0,.09a1.23,1.23,0,0,1-.08.15,2,2,0,0,1-.87.76,2.68,2.68,0,0,1-.59.13,2.09,2.09,0,0,1-1.6-.58l-.2-.2-.12-.15-.23-.31c-.1-.17-.21-.35-.29-.51-.16-.32-.28-.63-.4-.93a51.24,51.24,0,0,1-1.76-6.74c-.46-2.22-.86-4.45-1.28-6.65l-.32-1.63c-.05-.25-.11-.53-.16-.71s0-.11,0-.09h0l.06,0,.73-.29c-1.57.63-.44.16-.79.29v0l0,0-.14-.3-.1-.19,0,0h0l.07-.06c.13-.11.21-.15.31-.25l.26-.24a1.23,1.23,0,0,0,.32-.5c0,.06.12.32.49.64a3.45,3.45,0,0,1,.3.24l.18.13,0,0s0,0,0,.05-.06.09-.07.16a2.27,2.27,0,0,0-.1.43,7.59,7.59,0,0,0,.32,2.64c.26,1,.64,2,1,3.25a27.78,27.78,0,0,1,1.28,7.19,11,11,0,0,1-.71,4.05,6.75,6.75,0,0,1-.46,1,5.3,5.3,0,0,1-.67,1.05l-.28.31a2.57,2.57,0,0,1-.42.34l-.24.16a2.59,2.59,0,0,1-.38.17,3,3,0,0,1-.4.12,2.85,2.85,0,0,1-.51,0,2.46,2.46,0,0,1-1.59-.62,3,3,0,0,1-.4-.4,2.86,2.86,0,0,1-.26-.37,5,5,0,0,1-.55-1.2,8.84,8.84,0,0,1-.29-1.06,16.21,16.21,0,0,1-.23-1.94l-.25-3.44c-.17-2.27-.37-4.53-.7-6.71a20.65,20.65,0,0,0-.65-3.05,4.91,4.91,0,0,0-.22-.57l-.09-.17s0,0,0,0,.19-.17.27-.24a.9.9,0,0,0,.19-.15,3,3,0,0,0,.28-.36.38.38,0,0,0,.11-.22h0a.6.6,0,0,0,.05.23s.1.24.19.38l.15.2.09.1c.75.93-1-1.23-.78-1l0,.05a1,1,0,0,0,.44.3,3.09,3.09,0,0,0,.81.36c.1,0,.05,0,.06,0V379l0,.07,0,.28c0,.22,0,.45,0,.71,0,.51,0,1.05,0,1.6,0,1.1.1,2.24.18,3.38.15,2.28.35,4.59.48,6.95.06,1.18.11,2.37.08,3.62a15.61,15.61,0,0,1-.14,2,6.67,6.67,0,0,1-.3,1.24,4.49,4.49,0,0,1-.18.43,2.2,2.2,0,0,1-.3.48,3.23,3.23,0,0,1-.55.56,2.84,2.84,0,0,1-1.06.46,2.1,2.1,0,0,1-1.87-.61,2.15,2.15,0,0,1-.26-.32l-.12-.19a3.65,3.65,0,0,1-.23-.51,5.27,5.27,0,0,1-.18-.61c-.09-.36-.15-.67-.21-1-.11-.61-.19-1.21-.27-1.8l-.43-3.49-.69-5.9c-.13-1-.26-1.94-.41-2.88-.08-.47-.16-.94-.26-1.37,0-.22-.1-.43-.15-.61a2,2,0,0,0-.1-.31v0s-.06,0,.12-.09a3,3,0,0,0,.35-.27,1.94,1.94,0,0,0,.26-.23,1.08,1.08,0,0,0,.31-.46,1.56,1.56,0,0,0,.52.76,2.09,2.09,0,0,0,.28.24l.15.12h0a.14.14,0,0,0,0,.05,4.09,4.09,0,0,0-.32,1.35,18.09,18.09,0,0,0,0,2l0,1.14c0,.33,0,.67,0,1,.12,2.81.61,5.84.26,9.16a12.7,12.7,0,0,1-.52,2.55,9.59,9.59,0,0,1-.53,1.3,7.07,7.07,0,0,1-.37.68,1.7,1.7,0,0,1-.2.29,2.5,2.5,0,0,1-.37.38,2.13,2.13,0,0,1-.3.22,2.45,2.45,0,0,1-.5.22,2.17,2.17,0,0,1-1.4,0,2.3,2.3,0,0,1-1.18-.95,3.3,3.3,0,0,1-.19-.31,2.49,2.49,0,0,1-.11-.26,5.64,5.64,0,0,1-.27-.78c-.12-.46-.2-.86-.27-1.26-.14-.8-.23-1.56-.32-2.31-.17-1.51-.3-3-.42-4.47l-.2-2.4v-.13s-.05-.13-.07-.07a.21.21,0,0,0,0,.12l-.07.95c-.11,1.5-.25,3-.46,4.52-.1.76-.21,1.53-.37,2.31a11.89,11.89,0,0,1-.75,2.57l-.24.45a6.15,6.15,0,0,1-.45.57,2.39,2.39,0,0,1-1.23.65,2,2,0,0,1-.87,0,2.12,2.12,0,0,1-.41-.12,1.8,1.8,0,0,1-.31-.15,3,3,0,0,1-1-1.06l-.24-.48a2.93,2.93,0,0,1-.17-.44l-.19-.73-.11-.65c-.08-.43-.1-.82-.15-1.23-.13-1.58-.15-3.08-.16-4.58Z"/><path class="cls-1" d="M240.63,143.88c-3.55-10.48-10.17-24.91-21.06-29.16-13-5.1-25.71,4.67-27.58,8.16-4.05-7.32-10.94-13.63-21-13.63-39.64,0-30.58,73.73-35.63,73.73,7.9,16.31,38.79,56.56,52.3,57.51,10,.71,21.74-6.08,26.65-6.29,9.47-.43,20.05,8.36,20.05,8.36-1.93-5.36-3.82-15.32,2.85-29.31C246.26,194.25,248.35,166.65,240.63,143.88ZM220.09,171.8c-2.62,11.21-9.41,6.95-9.41,6.95-2.89,1.74-5.57,16-7.23,22.14-3,11-11.8,17.15-17.55,16.07C171.84,214.33,167,196.41,167,196.41c-3.53-8.85-6.39-28.11-2-45.56,2.47-9.82,6.48-14.77,10-16.33,24.82-11,33.31,20.83,34.57,30.36.07.53,2.37-4,5.28-4.1C222.76,160.51,220.09,171.8,220.09,171.8Z"/><path class="cls-1" d="M167.4,146.94c-.5,1.36-.89,2.76-1.28,4.17s-.71,2.85-.93,4.3a80.06,80.06,0,0,0-1.15,8.74,92.25,92.25,0,0,0,.5,17.66,69.73,69.73,0,0,0,2.75,12.54l.47,1.32.12.33c.1.28.09.29.13.42l.21.66c.28.89.61,1.77,1,2.63a37.39,37.39,0,0,0,2.48,5,27,27,0,0,0,7.29,8.32,7.38,7.38,0,0,0,1.15.76l1.18.71c.83.38,1.68.75,2.53,1.07l1.33.35a6,6,0,0,0,1.31.29,7.68,7.68,0,0,0,2.61-.13c3.53-.76,6.63-3.2,9-6a24.41,24.41,0,0,0,4.57-8.76c.92-3.22,1.6-6.58,2.41-9.85.56-2.29,1.13-4.57,1.84-6.84a34.27,34.27,0,0,1,1.22-3.38,12.43,12.43,0,0,1,.84-1.67l.27-.41c.09-.13.27-.34.41-.5a4,4,0,0,1,1-.82,8.27,8.27,0,0,0,1.07.54,4.52,4.52,0,0,0,.62.21,5.06,5.06,0,0,0,1.28.17A3.93,3.93,0,0,0,216,178a2,2,0,0,0,.51-.4l.47-.47a11.24,11.24,0,0,0,.79-1.12,14.7,14.7,0,0,0,1.19-2.57c.76-2.49,1.16-2.11,1,.26a9.86,9.86,0,0,1-1.79,4.71,5.89,5.89,0,0,1-5.26,2.37,8.15,8.15,0,0,1-1.08-.19c-.17-.06-.36-.09-.53-.16l-.34-.12h0l-.19.29a11.11,11.11,0,0,0-.68,1.29,28.58,28.58,0,0,0-1.11,2.95c-.67,2-1.23,4.13-1.77,6.24l-1.56,6.37-.8,3.22c-.14.54-.32,1.09-.49,1.64s-.34,1.09-.57,1.62a24.79,24.79,0,0,1-8.09,11,15.48,15.48,0,0,1-6.37,3,9.74,9.74,0,0,1-3.69,0l-1.69-.46-.84-.24-.8-.34a21.06,21.06,0,0,1-7-4.64,31.85,31.85,0,0,1-5.16-6.63A41.9,41.9,0,0,1,166.6,198c-.12-.33-.23-.66-.33-1l-.08-.26c0-.06,0,0,0,0l0-.12-.18-.49c-.25-.66-.49-1.32-.68-2-.44-1.33-.78-2.68-1.1-4a76.07,76.07,0,0,1-1.54-9A88.73,88.73,0,0,1,162,172a84.53,84.53,0,0,1,1.56-18.09,51.55,51.55,0,0,1,3.32-10.72,27.74,27.74,0,0,1,2.83-4.92,14.42,14.42,0,0,1,4.22-3.93,26.66,26.66,0,0,1,8.22-2.53,18.55,18.55,0,0,1,8.55.86,20.46,20.46,0,0,1,7.2,4.64,32.21,32.21,0,0,1,5.16,6.73,53.49,53.49,0,0,1,4.32,9.4c.58,1.62,1.09,3.25,1.53,4.91q.34,1.23.63,2.49c.09.41.19.84.27,1.24l.11.53.1.52c0,.07,0,0,.07,0l.09-.11.17-.22a4.63,4.63,0,0,1,.32-.42s.21-.24.37-.4.33-.33.51-.49a5.55,5.55,0,0,1,2.85-1.52,4.88,4.88,0,0,1,.83,0,5.1,5.1,0,0,1,.78,0,6.46,6.46,0,0,1,1.59.38,5.19,5.19,0,0,1,2.25,1.76,6.38,6.38,0,0,1,1,2.06,10.1,10.1,0,0,1,.39,3.21,7.8,7.8,0,0,1-.72,3.36,6.25,6.25,0,0,1-.51.93c-.27.27-.29-.28-.27-1.53,0-.62,0-1.42,0-2.35a12.36,12.36,0,0,0-.53-3.11,3.69,3.69,0,0,0-3.23-2.85,4.94,4.94,0,0,0-1.5,0,3.83,3.83,0,0,0-1.29.7,8,8,0,0,0-.62.56l-.3.32-.46.51c-.38.45-.76,1-1.14,1.45a1.73,1.73,0,0,1-1,.6.77.77,0,0,1-.37,0c-.16,0-.22-.16-.33-.23l-.31-.25a4.12,4.12,0,0,1-.27-.65l-.31-1.87-.25-1.21c-.15-.63-.29-1.27-.45-1.89-.31-1.27-.67-2.52-1.06-3.77a61.72,61.72,0,0,0-2.83-7.34,40.1,40.1,0,0,0-4-6.77,23.7,23.7,0,0,0-5.42-5.48,16,16,0,0,0-7.72-2.94,20,20,0,0,0-8.35,1.08c-.69.2-1.35.51-2,.76a8.2,8.2,0,0,0-1.77.92,13.5,13.5,0,0,0-2.91,2.89,28.38,28.38,0,0,0-3.91,7.68Z"/><path class="cls-1" d="M177.85,237.2A93.28,93.28,0,0,1,166,226.46c-3.66-3.85-7.14-7.86-10.47-12a218.33,218.33,0,0,1-18.28-26c-.43-.76-.88-1.51-1.29-2.29l-.63-1.16-.77-1.53.22-.51c.09-.23.13-.16.23-.32.92-2.45,1-5.31,1.29-8.13l.62-8.51a193,193,0,0,1,2.46-20.29,78.06,78.06,0,0,1,6-19.61,38.85,38.85,0,0,1,5.63-8.69,26.3,26.3,0,0,1,8.23-6.37,25.4,25.4,0,0,1,4.93-1.76,29,29,0,0,1,5.16-.73,26,26,0,0,1,5.21.24,22.61,22.61,0,0,1,5,1.41,23.62,23.62,0,0,1,7.59,5.11,28.8,28.8,0,0,1,3,3.44c.45.62.88,1.24,1.29,1.88l.22.35.14.24c.09.13.18.36.27.41a3.94,3.94,0,0,1,.34-.48,7.47,7.47,0,0,1,.57-.61c.55-.57,1.15-1.08,1.74-1.59a29.45,29.45,0,0,1,3.86-2.62,28.9,28.9,0,0,1,8.64-3.31,22.49,22.49,0,0,1,11.73.69,23.56,23.56,0,0,1,9.77,6.55,45.5,45.5,0,0,1,6.72,9.57,75.88,75.88,0,0,1,4.69,10.61c1.57,4.56.88,4.08-.92.44-.93-1.8-2.18-4.38-3.84-7.39a70.89,70.89,0,0,0-6.38-9.79,27.31,27.31,0,0,0-7.85-6.87,19.71,19.71,0,0,0-9.95-2.27,22.64,22.64,0,0,0-5.15.75,27.14,27.14,0,0,0-4.9,1.86,26.72,26.72,0,0,0-4.5,2.73,21.69,21.69,0,0,0-2,1.67l-.45.45-.12.12-.2.26-.39.53c-.26.36-.52.68-.78,1.07l-.79,1.18-1.55-2.66c-.12-.21-.28-.48-.39-.65l-.21-.32-.4-.63q-.85-1.24-1.8-2.4a24.71,24.71,0,0,0-4.32-4.11,20.48,20.48,0,0,0-11-4,25.06,25.06,0,0,0-11.73,2,24.81,24.81,0,0,0-9.33,7.49,44.06,44.06,0,0,0-6.53,12.32,87.29,87.29,0,0,0-3.59,13.86c-1.74,9.49-2.29,19.19-3,28.85-.11,1.38-.24,2.75-.42,4.15-.1.69-.2,1.39-.36,2.11a8.5,8.5,0,0,1-.33,1.1,6.07,6.07,0,0,1-.27.59c-.08.11-.16.23-.2.23s0,.11,0,.19l.23.45q.18.38.39.75l.8,1.49c.56,1,1.12,2,1.71,2.93q1.74,2.91,3.63,5.75,3.75,5.69,7.85,11.14a209.32,209.32,0,0,0,17.62,20.78c2.28,2.32,4.64,4.56,7.12,6.64a40.62,40.62,0,0,0,8,5.39,11.38,11.38,0,0,0,4.46,1.18l1.18,0,1.2-.06c.79,0,1.59-.15,2.38-.24a54.23,54.23,0,0,0,9.38-2.39c2.71-.9,5.38-1.94,8.15-2.81a14,14,0,0,1,4.39-.78l1.11,0,1.11.12a17.61,17.61,0,0,1,2.17.39,32.25,32.25,0,0,1,8.12,3.2c1.28.68,2.51,1.43,3.72,2.22l.72.48.49.35c.32.24.65.48,1,.73-.15-.5-.37-1.1-.49-1.66l-.05-.22-.07-.31-.16-.78c-.11-.52-.17-1.05-.26-1.57a32.94,32.94,0,0,1-.26-6.35,36.52,36.52,0,0,1,.84-6.26,48,48,0,0,1,1.74-6c.36-.9.68-1.81,1.06-2.69l1.17-2.63c.76-1.73,1.54-3.44,2.15-5.22s1.22-3.56,1.78-5.35c.29-.89.49-1.81.73-2.71s.5-1.81.67-2.73a100.62,100.62,0,0,0,2.37-22.29c0-3.3-.18-6.53-.52-9.84a115.17,115.17,0,0,0-2-12.91c-.31-1.39-.51-2.5-.68-3.42s-.32-1.66-.4-2.33-.2-1.42-.19-1.79c0-.63.46.24,1.26,2.37.2.53.44,1.14.66,1.83s.42,1.47.67,2.31c.52,1.68.92,3.68,1.39,5.93a98,98,0,0,1,1.67,20.61,102,102,0,0,1-2.62,21,88,88,0,0,1-3.15,10.27c-.59,1.7-1.36,3.33-2.08,5s-1.44,3.17-2,4.81c-2.45,6.47-3.47,13.57-2,20.3,0,.15.26,1,.44,1.66s.36,1.32.63,2.06c.47,1.41.95,2.82,1.43,4.23l-3.3-2.68c-.56-.47-1.07-.83-1.58-1.2s-1.06-.79-1.52-1.08c-1-.69-2-1.32-3.09-1.92a35.68,35.68,0,0,0-6.55-3,18.39,18.39,0,0,0-6.86-1,16.29,16.29,0,0,0-3.35.79c-1.16.35-2.32.78-3.5,1.19-4.68,1.67-9.49,3.4-14.64,4.05a27.36,27.36,0,0,1-3.91.22l-1,0a10.11,10.11,0,0,1-1.05-.14,12.09,12.09,0,0,1-2-.52,28.36,28.36,0,0,1-6.81-3.8Z"/><path class="cls-1" d="M130.38,176.6c4.89,7.61,9.93,15.12,15.2,22.46s10.77,14.51,16.73,21.27A107.37,107.37,0,0,0,176.42,234a39.93,39.93,0,0,0,7.19,4.55,20.77,20.77,0,0,0,3.92,1.38,14.23,14.23,0,0,0,4.08.25c5.62-.38,10.91-3,16.49-4.86a29.79,29.79,0,0,1,8.77-1.7,20.22,20.22,0,0,1,8.79,1.87,28.1,28.1,0,0,1,7.48,4.87A44,44,0,0,1,239,247c1.54,2.1,2.95,4.29,4.34,6.49.69,1.09,1.37,2.19,2,3.31s1.34,2.23,2,3.38a131.14,131.14,0,0,1,6.69,14,175.57,175.57,0,0,1,10.67,38.18c.64,4.07.07,3.59-1,.25s-2.69-9.5-4.63-16.79c-3.44-12.89-8-25.55-14.74-37.09-3.46-5.7-6.88-11.58-11.53-16.18a31,31,0,0,0-3.74-3.13,26.64,26.64,0,0,0-4.24-2.36c-.73-.36-1.52-.58-2.27-.87s-1.54-.42-2.32-.59a18.86,18.86,0,0,0-4.81-.16,26.89,26.89,0,0,0-5.78,1.19c-1.92.57-3.83,1.3-5.76,2-3.85,1.43-7.87,3-12.22,3.26l-1.62.07c-.56,0-1.12-.05-1.67-.12a17.38,17.38,0,0,1-3.2-.78,28.7,28.7,0,0,1-5.79-2.81,48.87,48.87,0,0,1-5.17-3.69c-1.65-1.32-3.22-2.71-4.74-4.15a180.17,180.17,0,0,1-18.17-20.61c-5.59-7.24-10.87-14.71-16-22.3-6.27-9.33-12.27-18.85-18.1-28.45-4.42-7.27-8.73-14.63-13-22s-9.69-14-12.93-22a34,34,0,0,1-1.56-4.73,28.36,28.36,0,0,1-.76-4.94c-.18-3.31.12-6.56.14-9.77A27.33,27.33,0,0,0,88.79,91a13.08,13.08,0,0,0-1.54-4.31c-1.54-2.67-4-4.79-6.12-7.36a29.59,29.59,0,0,1-2.53-3.56c-.72-1.19-1.44-2.39-2.18-3.6a3.67,3.67,0,0,0-.3-.46c-.12-.24-.23,0-.29.14a2.08,2.08,0,0,0-.2.51,5.47,5.47,0,0,0-.19,1.18,6.7,6.7,0,0,0,.19,2.13A12.87,12.87,0,0,0,77,78.8c1,1.69,1.7,2.71,2.19,3.63.26.46.65,1,.77,1.34.21.5-.5,0-1.9-1.35a20.47,20.47,0,0,1-2.41-3,10.82,10.82,0,0,1-1.94-5.19,5,5,0,0,1,0-1l0-.51.11-.51.11-.53a6.41,6.41,0,0,1,.29-.69,12.13,12.13,0,0,1,.68-1.41l.47-.38c.17-.09.28-.32.52-.26a1.76,1.76,0,0,1,1.06.67,13.69,13.69,0,0,1,1,1.45l.58.94c.72,1.19,1.43,2.38,2.17,3.53A46.37,46.37,0,0,0,86,81.87a24.73,24.73,0,0,1,2.72,3.52,14.67,14.67,0,0,1,1.75,4.27,35.42,35.42,0,0,1,.44,8.85,52.32,52.32,0,0,0,.06,8.41,30.75,30.75,0,0,0,2.22,8c2.19,5.19,5.44,10,8.64,14.84,1.25,1.89,2.53,3.86,3.68,5.84l3.47,5.91q3.5,5.88,7,11.78c4.71,7.83,9.51,15.61,14.46,23.27Z"/><path class="cls-1" d="M124.7,212.63c7.92,13.12,15.84,26.26,23,39.87,2.58,5,5.09,10,7.18,15.26A61.06,61.06,0,0,1,157,275c.25,1.21.53,2.42.77,3.64l.64,3.66c.78,4.89,1.42,9.8,1.85,14.72a273.4,273.4,0,0,1,1.06,29.6c-.16,8.76-.7,17.56-1.68,26.21-.39,2.76-.69,5.55-1.14,8.31s-.91,5.53-1.46,8.28-1.13,5.45-1.42,8.17a23.85,23.85,0,0,0,.3,8.05c.11.4.2.75.27,1s.15.53.19.72c.08.38.07.57,0,.58s-.78-.62-1.4-2a16.48,16.48,0,0,1-1.24-6.15,39.1,39.1,0,0,1,.9-8.82c4.63-22.18,5.74-45,4.36-67.78a196,196,0,0,0-2.32-20.67c-.62-3.44-1.26-6.91-2.21-10.25a64.85,64.85,0,0,0-3.75-9.71c-3.2-7-6.89-13.75-10.67-20.46s-7.71-13.35-11.69-20l-14.76-24.37c-3.73-6.15-7.43-12.35-10.94-18.64-.9-1.57-1.74-3.16-2.57-4.77s-1.62-3.22-2.41-4.83c-1.53-3.26-3-6.54-4.38-9.84-4.32-10.25-8-20.49-12-30.73l-2.61-6.72c-.83-2.09-1.51-3.83-2.09-5.29A31.94,31.94,0,0,0,75,113.55a28,28,0,0,1-1.86-3.83c-.15-.43-.38-1-.43-1.25-.08-.47.45,0,1.49,1.3a28.32,28.32,0,0,1,4,6.54c7.74,18.09,13.69,38,23,56.41,3.52,6.78,7.49,13.41,11.45,20l12,19.83Z"/><path class="cls-1" d="M75.23,88.79c-.89-1.43-2.55-4.18-2.21-6,.42-2.24,2.61,0,3.37.94A20.1,20.1,0,0,1,79,88.29a22.15,22.15,0,0,1,1.3,3.83,7.06,7.06,0,0,1,.2,1.59c0,.26,0,1.11-.21,1.31.23-.19.33-.12,0-.3-2.1-1.11-3.71-4-5-5.93-.46-.71-2.41,0-1.86.86,1.34,2,4.4,7.54,7.5,6.61,3.78-1.13.33-8.17-.62-10.08C79,83.6,75.56,78.25,72,81c-2.57,1.94.12,6.65,1.4,8.68C73.82,90.36,75.77,89.63,75.23,88.79Z"/><path class="cls-1" d="M75.49,89.26C74,87.58,70.37,85.12,68.7,88c-1.3,2.25.78,5.22,2.11,6.93s3.46,4.29,5.7,5.17c2.77,1.09,4.24-1,3.45-3.48-.3-.95-2.33-.39-2,.55.23.73.67,1.68-.38,1.48a4.4,4.4,0,0,1-1.23-.86A21.29,21.29,0,0,1,73,94.43a12.42,12.42,0,0,1-2.35-3.85c-.14-.45-.52-1.61-.13-2,.85-.93,2.64,1,3.13,1.62s2.54-.12,1.86-.91Z"/><path class="cls-1" d="M70.62,92.47c-2.06-1.06-5.92-1.42-6.38,1.68-.3,2.08,1.86,3.72,3.38,4.71a20.72,20.72,0,0,0,6.46,2.83c.86.21,3.77.26,2.8-1.39-.48-.82-2.55,0-2,1,.18-.64.49-1,.93-.93l-.16,0c-.07-.06-.44-.06-.53-.1-.5-.21-1.06-.31-1.57-.5A22.17,22.17,0,0,1,69.9,98,9.43,9.43,0,0,1,67,95.6c-1.19-1.67-.12-3,2-1.89.83.42,2.74-.7,1.68-1.24Z"/><path class="cls-1" d="M69.24,98.7c-1.46,0-5.57,1.71-3.9,3.76.89,1.08,2.8,1.19,4.07,1.08a14.87,14.87,0,0,0,4.86-1.47c1.34-.63.15-1.85-1-1.33-1.5.7-3.35,1.48-5,1.12-2-.43-.31-1.51.79-1.53s1.66-1.67.18-1.63Z"/><path class="cls-1" d="M152.35,264.19s3.35,8.59-16,9.58c-21.79,1.13-18.37-22.1-14.9-29.21s8.18-21.64,8.18-21.64Z"/><path class="cls-1" d="M129.34,227.36c-1.13,3.19-2.29,6.36-3.53,9.51-.62,1.57-1.25,3.14-1.93,4.7-.34.78-.69,1.56-1,2.33l-.55,1.16c-.17.35-.34.71-.48,1.09a29.79,29.79,0,0,0-1.71,6.9,23.58,23.58,0,0,0,1.16,12.29,12.38,12.38,0,0,0,3.62,4.83,13.73,13.73,0,0,0,5.57,2.53c3.62.79,7.51.38,11.19-.19a21.48,21.48,0,0,0,6.73-2.15,8.55,8.55,0,0,0,2.55-2.12,4.59,4.59,0,0,0,1-2.95c0-.66,0-.94.17-1s.54.2.84.87a4.46,4.46,0,0,1,.06,3.05,6.65,6.65,0,0,1-2.75,3.39,20.91,20.91,0,0,1-7.48,2.73A52.07,52.07,0,0,1,135,275a20.48,20.48,0,0,1-7.8-1.39,14.74,14.74,0,0,1-3.5-2.07,14.23,14.23,0,0,1-2.73-3,19.69,19.69,0,0,1-2.91-9.1,32.11,32.11,0,0,1,.67-9.49,28.12,28.12,0,0,1,1.57-5l1.09-2.31c.34-.77.69-1.53,1-2.31,1.33-3.1,2.52-6.26,3.69-9.44l1.45-4.08c.37-1,1.22-3.54,1.86-5.5L132,226c3,5.55,6,11.14,9.09,16.62,2.37,4.26,4.79,8.38,7.19,12.56l1.59,2.75c1.94,3.46,2.44,4.63,2.42,5.61a3.32,3.32,0,0,1,0,.66c-.15.52-1.21-.74-2.72-3.23-4.45-7.39-8.88-15.32-13.29-23.31l-3.87-7.06L130.44,227l-.49-.88,0-.07h0v0l0-.08,0,.08v0l-.1.28-.35,1Z"/><path class="cls-1" d="M112.14,159.71a20.42,20.42,0,0,1-3.84,3.46c-.55.33-1,.73-1.6,1a16.8,16.8,0,0,1-6.41,1.55c-1,0-1.91.12-2.84.08a8,8,0,0,1-3.57-.47c-.68-.3.82-2.94,2-2.78a39.34,39.34,0,0,0,6.33.22,7.65,7.65,0,0,0,1.86-.5,15.9,15.9,0,0,0,1.73-.92,15.56,15.56,0,0,0,3.44-2.71l.92-1.05c.3-.35.57-.74.84-1.12a21.21,21.21,0,0,0,2.16-3.72,22.23,22.23,0,0,0,1-3.2c.07-.23.1-.48.17-.71.27-.88.55-1.08,1.36-1a5.11,5.11,0,0,1,.55.05,1.15,1.15,0,0,1,.87,1.36,17.37,17.37,0,0,1-2,6.2c-.37.75-.84,1.47-1.28,2.19s-1,1.42-1.53,2.08Z"/><path class="cls-1" d="M253.48,374.82C248.81,371,245.59,366.09,243,361c-1-1.87-1.87-3.76-2.66-5.7a157.42,157.42,0,0,1-6.47-21c-.78-3.15-1.59-6.31-2.43-9.4-.54-2-1.12-4-1.74-5.92a50.2,50.2,0,0,0-2.11-5.67c-.55-1.08-.09-1.25.88-.51a10.89,10.89,0,0,1,3,4.84c1.32,4.09,2.3,8.2,3.31,12.3s2,8.2,3.06,12.29a97.38,97.38,0,0,0,5.17,14.55,49.82,49.82,0,0,0,9,14.18,15.86,15.86,0,0,0,3.86,3.21,6.06,6.06,0,0,0,2.26.66,5.83,5.83,0,0,0,2.33-.38,10.56,10.56,0,0,0,5.24-5.22,13.19,13.19,0,0,0,1.26-3.62,19.94,19.94,0,0,0,.45-3.85,46.22,46.22,0,0,0-1.82-11.88l-.66-2.59c-.79-3.26-.86-4.36-.5-5.16a2.62,2.62,0,0,1,.25-.53c.33-.38.85.9,1.49,3.25a107.27,107.27,0,0,1,2.61,10.93,26.32,26.32,0,0,1-.47,11.94,16.47,16.47,0,0,1-2,4.17,12.44,12.44,0,0,1-3.33,3.38,8,8,0,0,1-4.79,1.44,8.14,8.14,0,0,1-4.62-1.79Z"/><path class="cls-1" d="M246,326.17c-.81-1.79-1.58-3.59-2.29-5.42-.27-.66-.58-1.3-.81-2-.88-2.36-1.64-4.75-2.39-7.14-.34-1.06-.71-2.11-1.09-3.15a22.93,22.93,0,0,1-1.27-4.05c-.14-.88,1.92-.35,2.42,1.19.9,2.72,1.74,5.45,2.5,8.25.45,1.67,1.19,3.31,1.82,5,.71,1.81,1.44,3.61,2.24,5.38.49,1.09,1,2.17,1.54,3.23a50.47,50.47,0,0,0,2.68,4.7,33.9,33.9,0,0,0,2.57,3.22l.6.66c.75.84.88,1.19.67,1.71a2.83,2.83,0,0,1-.15.35c-.22.34-.76.19-1.4-.39a27.48,27.48,0,0,1-4.87-6.22c-1-1.71-1.95-3.48-2.81-5.27Z"/><path class="cls-1" d="M216,289.73a8.28,8.28,0,0,1,2.9-2.06c.36-.16.7-.39,1.06-.54,1.28-.52,2.58-.93,3.87-1.34.57-.18,1.13-.41,1.68-.64a6.56,6.56,0,0,1,2.18-.7c.49,0,.45,1.87-.35,2.16a38.91,38.91,0,0,1-4.38,1.3,13.61,13.61,0,0,0-2.57,1,11.1,11.1,0,0,0-2.51,1.46,2.91,2.91,0,0,0-.91,1.29,2,2,0,0,0,.42,2.14,1.94,1.94,0,0,0,1.64.37,2.74,2.74,0,0,0,.39-.09c.49-.08.68-.05.94.42.06.1.13.2.18.3.18.35,0,.72-.48,1a3.83,3.83,0,0,1-2.61.14,3.57,3.57,0,0,1-2.21-2.09,4.28,4.28,0,0,1,.72-4.16Z"/><path class="cls-1" d="M217.31,296.63a3.72,3.72,0,0,1,1-1.52,7.53,7.53,0,0,1,1.19-.91c.29-.17.56-.4.86-.54a23,23,0,0,1,3.22-1.21c.47-.15.94-.34,1.39-.53a4.51,4.51,0,0,1,1.83-.54c.41,0,.4,1.88-.23,2.09a32.13,32.13,0,0,1-3.55,1,7.42,7.42,0,0,0-2,.93,5,5,0,0,0-1.72,1.35,1.86,1.86,0,0,0-.13.23.88.88,0,0,0-.11.29,4.28,4.28,0,0,0-.13.68c-.06.64.13.92.9,1.06a8.8,8.8,0,0,0,1.77,0,2.73,2.73,0,0,1,.41,0c.51,0,.66.15.72.65a2.09,2.09,0,0,1,0,.35.74.74,0,0,1-.59.77,7.38,7.38,0,0,1-1.72.17,4.43,4.43,0,0,1-2.23-.54,2.34,2.34,0,0,1-.87-.92,2.73,2.73,0,0,1-.3-1.15,5.35,5.35,0,0,1,.23-1.67Z"/><path class="cls-1" d="M224.19,304.71a8.14,8.14,0,0,1-3.16-1.55,2.55,2.55,0,0,1-.89-1.55,2.37,2.37,0,0,1,.12-.95,2.32,2.32,0,0,1,.87-1.05,4,4,0,0,1,.93-.45,10.06,10.06,0,0,1,1.77-.42l1.77-.3a5.48,5.48,0,0,1,2.28-.12c.46.12-.13,1.91-.89,2-1.41.12-2.85.23-4.14.44a2,2,0,0,0-.63.23.51.51,0,0,0-.23.24.47.47,0,0,0,0,.31,1.73,1.73,0,0,0,.72.65,6.68,6.68,0,0,0,1.27.56,10.81,10.81,0,0,0,1.74.44,14.08,14.08,0,0,0,2.75.26,9.35,9.35,0,0,0,2.06-.36c.14,0,.27-.1.42-.13.52-.14.66-.08.95.36a3,3,0,0,1,.2.29c.2.33.06.74-.41,1a8.8,8.8,0,0,1-4.29.67,17,17,0,0,1-3.23-.48Z"/><path class="cls-1" d="M229.1,277.7a11.62,11.62,0,0,1,4.38.45,5.67,5.67,0,0,1,3.4,3.27,9.86,9.86,0,0,1,.78,3.13c0,.38,0,.76,0,1.13v.4l0,.16.42.26c.3.24.63.44.91.71a4.76,4.76,0,0,1,1.37,2,3.89,3.89,0,0,1-.05,2.48,5.52,5.52,0,0,1-1.21,2,3.59,3.59,0,0,1-.39.39,1.19,1.19,0,0,1-.21.17c-.09.1-.3.15-.31.25l.29.32.18.2.29.39a6.25,6.25,0,0,1,.52.87,4.07,4.07,0,0,1,.44,1.69,3.42,3.42,0,0,1-.45,1.78,5.18,5.18,0,0,1-2.5,2.1c-.61.26-.72-.23-.51-.88a8.8,8.8,0,0,1,1.12-2.06,1.68,1.68,0,0,0,.06-1.9,4,4,0,0,0-.34-.58l-.22-.3c-.17-.21-.37-.43-.56-.64a2.44,2.44,0,0,1-.26-.32l-.12-.16a.45.45,0,0,1,0-.16,1.84,1.84,0,0,1,.14-.54v-.05h0l-.3,0h0l0-.07,0-.12.08-.25c0-.05,0-.09,0-.13l.17-.13.34-.25a5.63,5.63,0,0,0,.54-.36l.3-.25.35-.35a4.56,4.56,0,0,0,.55-.8,2.48,2.48,0,0,0,.27-1.71,2.62,2.62,0,0,0-.83-1.28,5.58,5.58,0,0,0-.7-.53l-1.34-.73c0-.44.07-1,.07-1.33s0-.5,0-.75a14.24,14.24,0,0,0-.18-1.48,5.45,5.45,0,0,0-1.51-3.09,3.48,3.48,0,0,0-.66-.48,5.66,5.66,0,0,0-.79-.32,8.34,8.34,0,0,0-1.82-.3,16.56,16.56,0,0,0-4.73.49,25.45,25.45,0,0,0-3.51,1.09,15.44,15.44,0,0,0-1.64.76c-.51.29-1.05.64-1.55,1a10.93,10.93,0,0,0-2.07,1.79,3.88,3.88,0,0,0-.66,1,.78.78,0,0,0,0,.74,1.77,1.77,0,0,0,.6.5c.55.3,1,.48,1.29.66a1.21,1.21,0,0,1,.56.67,3,3,0,0,1,.13.39c.07.39-.64.62-1.88.27a4.78,4.78,0,0,1-1.42-.64,2.75,2.75,0,0,1-1.19-1.64,3,3,0,0,1,.34-2,6.18,6.18,0,0,1,1-1.32,14.4,14.4,0,0,1,2.25-1.87c.39-.27.79-.53,1.18-.77.18-.12.39-.25.63-.38l.67-.35a25,25,0,0,1,8.2-2.21Z"/><path class="cls-1" d="M207.33,281.46a4.17,4.17,0,0,1,2.85-2.6,5.61,5.61,0,0,1,3.55.31,6.91,6.91,0,0,1,2.12,1.31c2.11,2,3,5.46,1,8a2.78,2.78,0,0,1-1.95.94,3.74,3.74,0,0,1-2-.47,5.71,5.71,0,0,1-1.76-1.69c-.44-.62-.77-1.2-1.12-1.7-.21-.27.08-.66.72-.72a2.43,2.43,0,0,1,1.95,1.05,5,5,0,0,0,1.11,1.29,1.53,1.53,0,0,0,.56.27,1.55,1.55,0,0,0,.57.06c.28,0,.54-.17.8-.62a3.79,3.79,0,0,0,.43-1.65,4.58,4.58,0,0,0-2.13-3.83,4.8,4.8,0,0,0-2.32-.88,2.63,2.63,0,0,0-2.14.7,3.38,3.38,0,0,0-.7,2.87,22.54,22.54,0,0,0,1.39,5.21,13.85,13.85,0,0,0,2.12,3.47c.19.23.38.44.58.66.71.82.89,1.11.73,1.65a1.9,1.9,0,0,1-.12.36c-.16.36-.76.29-1.46-.31a15.11,15.11,0,0,1-4.25-7.09c-.3-1-.54-2-.74-3a6.94,6.94,0,0,1,.13-3.6Z"/><path class="cls-1" d="M247.84,334.62c-.58.41-1.18.77-1.77,1.13s-1.22.68-1.88.94c-.47.19-.89.49-1.39.64a14,14,0,0,1-5.38.67c-.81,0-1.61-.15-2.42-.24-.51-.11-1-.23-1.54-.38a3.87,3.87,0,0,1-1.32-.88c-.24-.24.24-.84.84-1.35s1.26-1,1.61-.79a14.12,14.12,0,0,0,4.52.91,5.12,5.12,0,0,0,1.54-.22c.49-.2,1-.35,1.49-.57a14,14,0,0,0,1.63-.74l.8-.42.77-.49a16.56,16.56,0,0,0,1.8-1.35c.41-.4.85-.77,1.24-1.19a11.43,11.43,0,0,0,1.07-1.34,10.84,10.84,0,0,0,.61-1.17l.43-1.23c.07-.17.09-.36.15-.54.23-.66.5-.78,1.29-.64.18,0,.37.05.54.09a1.07,1.07,0,0,1,.87,1.23,8.56,8.56,0,0,1-.81,2.68,13.77,13.77,0,0,1-1.58,2.37,19,19,0,0,1-3.07,2.94Z"/><path class="cls-1" d="M196.59,259.91a5.29,5.29,0,0,1-2.52,2.61,3.07,3.07,0,0,1-1.47.35,2.9,2.9,0,0,1-2.26-1.33,3.35,3.35,0,0,1-.43-2.33,6.08,6.08,0,0,1,.57-1.86,2.79,2.79,0,0,1,.92-1.09,1.2,1.2,0,0,1,1.56.14.39.39,0,0,1,0,.49,1.34,1.34,0,0,1-.17.27l-.15.17a.85.85,0,0,0-.24.7c.08,0-.09.07-.2.26a3.47,3.47,0,0,0-.32.64,2.9,2.9,0,0,0-.21,1.38.8.8,0,0,0,.44.59,1,1,0,0,0,.71.12,2.9,2.9,0,0,0,1.78-1.31,2.63,2.63,0,0,0,.48-1.34,1.26,1.26,0,0,0-.3-.83,1.28,1.28,0,0,0-.88-.39,1.82,1.82,0,0,0-1.36.74,1.65,1.65,0,0,0-.19.27c-.22.32-.31.35-.83.3l-.36,0c-.38,0-.65-.42-.44-1a3.32,3.32,0,0,1,1.83-1.83,3.22,3.22,0,0,1,3,.19,3,3,0,0,1,1.38,2,3.91,3.91,0,0,1-.28,2.12Z"/><path class="cls-1" d="M193.88,275.67a1.63,1.63,0,0,0,.31.37.29.29,0,0,0,.27.07,1.62,1.62,0,0,0,.33-.21,2.37,2.37,0,0,0,.64-.69,2.81,2.81,0,0,0,.21-.43.92.92,0,0,0,.07-.32.36.36,0,0,0-.35-.37,1.14,1.14,0,0,0-.33.07,1.64,1.64,0,0,1-.61.06c-.3,0-.65-1.86.19-2.07a2.45,2.45,0,0,1,2.57.88,2.32,2.32,0,0,1,.36,1.36,2.72,2.72,0,0,1-.33,1.18,5.2,5.2,0,0,1-1.47,1.91,2.45,2.45,0,0,1-1.46.43,2.27,2.27,0,0,1-1.38-.59,4.36,4.36,0,0,1-.9-1.22,3.31,3.31,0,0,1-.24-2.31,4.83,4.83,0,0,1,.67-1.65,1.91,1.91,0,0,1,.24-.32c.35-.36.58-.34.92,0,.08.09.16.17.23.26a.91.91,0,0,1,.17.88,4.35,4.35,0,0,0-.5,1.61,1.56,1.56,0,0,0,.09.47,2.31,2.31,0,0,0,.34.57Z"/><path class="cls-1" d="M129.32,330.55l-.28-.3s-.08,0-.11-.06a4.08,4.08,0,0,1-.24-.46.22.22,0,0,0-.17-.09c-.09,0-.24,0-.18-.17a8.56,8.56,0,0,1,.64-.79c.3-.35.6-.7.62-.7s.08.12,0,.39.06.11.1.17l.12.21a.64.64,0,0,0,.1.13c.05,0,.1.11.17.1s.13-.13.19-.2,0-.06,0-.06,0,.1,0,.59l0,.34a2.45,2.45,0,0,1-.14.81c-.18.32-.37.34-.53.3a1.11,1.11,0,0,1-.35-.16Z"/><path class="cls-1" d="M112.31,218.87l-.27-.3s-.08,0-.11-.06-.17-.32-.25-.46-.09-.08-.16-.09-.24,0-.18-.17A8.56,8.56,0,0,1,112,217c.3-.35.6-.7.62-.7s.08.12,0,.39.06.11.09.17l.13.21a.62.62,0,0,0,.09.12c.06.05.11.12.18.11s.13-.13.18-.21,0-.05,0-.05,0,.09,0,.59l0,.34a2.75,2.75,0,0,1-.14.81c-.18.32-.37.34-.54.3a1.17,1.17,0,0,1-.34-.16Z"/><path class="cls-1" d="M388.83,348.54l-.27-.31s-.08,0-.11-.06a5.2,5.2,0,0,1-.25-.46.19.19,0,0,0-.16-.09c-.09,0-.24.05-.18-.16a6.42,6.42,0,0,1,.64-.79,7,7,0,0,1,.62-.7c.07,0,.08.11,0,.38s.06.12.09.17l.13.22.09.12c.06.05.11.12.18.11s.13-.13.18-.21l0-.06s0,.1,0,.6l0,.34a2.67,2.67,0,0,1-.14.8c-.18.32-.37.34-.54.31a1.54,1.54,0,0,1-.34-.17Z"/><path class="cls-1" d="M280,334c0,.16.06.35.06.47s0,.22,0,.41a9.11,9.11,0,0,1,0,.93c-.17.17-.3.35-.47.51a4.7,4.7,0,0,1-.52.4,2.6,2.6,0,0,1-.5.25,1.5,1.5,0,0,1-1,.07,4,4,0,0,1-.8-.4c-.36-.24-.48-.16-.53-.4a2.67,2.67,0,0,1,.37-1c.24-.41.66-.72.88-.58a2,2,0,0,1,.32.23.2.2,0,0,0,0,.05.36.36,0,0,0,.1.27.11.11,0,0,0,.16,0s0-.05.08-.07l.1-.06,0-.09a.79.79,0,0,0,0-.3.83.83,0,0,0,0-.35.36.36,0,0,0-.42-.29.61.61,0,0,0-.22.1l-.39.18a1.18,1.18,0,0,1-.2.07c-.24,0-.34-.1-.36-.6v-.34a1.32,1.32,0,0,1,.21-.81,1.46,1.46,0,0,1,.6-.36,2.47,2.47,0,0,1,1.37.06,2.11,2.11,0,0,1,1.22,1.56Z"/><path class="cls-1" d="M287.66,342.46l-.39.11s-.06.07-.11.08-.36,0-.52,0a.21.21,0,0,0-.15.11c-.05.07-.06.23-.22.09a8.9,8.9,0,0,1-.44-.91,6.88,6.88,0,0,1-.36-.87c0-.06.14,0,.36.14s.13,0,.19,0l.25,0,.15,0c.07,0,.15,0,.17-.11s-.06-.17-.1-.25l0-.06c0-.05.11,0,.54.25l.3.17a2.63,2.63,0,0,1,.66.48c.21.3.15.48,0,.61a1,1,0,0,1-.3.24Z"/><path class="cls-1" d="M256.56,129.83c.14.08.31.17.41.24a3.68,3.68,0,0,0,.33.24c.24.21.51.4.71.61,0,.24.1.45.11.68a4.63,4.63,0,0,1,0,.65,4.46,4.46,0,0,1-.11.55,1.47,1.47,0,0,1-.58.85,3.36,3.36,0,0,1-.81.39c-.41.14-.42.28-.63.17a2.52,2.52,0,0,1-.53-.86c-.18-.45-.16-1,.08-1.06a1.52,1.52,0,0,1,.38-.11s0,0,0,0a.42.42,0,0,0,.28.08c.09,0,.11-.06.11-.11a.31.31,0,0,1,0-.11s0-.07,0-.11l-.05-.08a1.06,1.06,0,0,0-.22-.22,1,1,0,0,0-.28-.2.37.37,0,0,0-.49.15.83.83,0,0,0-.06.25,3.48,3.48,0,0,1-.1.41,1.52,1.52,0,0,1-.06.2c-.12.22-.29.21-.69-.08l-.28-.2a1.36,1.36,0,0,1-.51-.66,1.53,1.53,0,0,1,.08-.7,2.49,2.49,0,0,1,.89-1,2.08,2.08,0,0,1,2,0Z"/><path class="cls-1" d="M277.45,121.33c0,.13-.1.25-.15.37s0,.09,0,.13-.21.3-.3.43a.21.21,0,0,0,0,.19c0,.08.15.19-.07.23a7.73,7.73,0,0,1-1-.22,8.63,8.63,0,0,1-.9-.24c0-.07.07-.12.33-.2s.07-.11.11-.16.09-.14.14-.21a.59.59,0,0,0,.06-.14c0-.07.06-.15,0-.21s-.18,0-.27-.07h-.07s.07-.08.53-.27l.32-.13a2.46,2.46,0,0,1,.78-.24c.37,0,.47.18.51.34a1,1,0,0,1,0,.39Z"/><path class="cls-1" d="M171.39,156.06c-.69,3.24-2.08,10,3.17,10.1,4.34.1,5.8-5.9,6-9.26.07-1.15-2.15-.86-2.21.16-.1,1.75-1,8.07-3.79,7.37-3.06-.79-1.39-6.52-1-8.52.24-1.1-2-.85-2.2.15Z"/><path class="cls-1" d="M186.41,157.52c-.28,2.3-.64,5.12.53,7.25a4.21,4.21,0,0,0,4.7,2c3.91-1,4.61-6.56,4.87-9.87.07-1-2.12-.55-2.18.24-.18,2.32-.47,6.58-2.51,8.12-1.43,1.08-2.86-1.05-3.19-2.25a14.92,14.92,0,0,1,0-5.69c.12-.93-2.08-.56-2.18.24Z"/><path class="cls-1" d="M186.11,169.63c-2.59-1.83-7.9-2.08-10.57-.3-4.28,2.86,3.31,7.08,5.33,8.39.6.38,2.53-.49,2-.82-1.79-1.15-7-3.61-6.39-6.34.53-2.31,6.2-1.08,7.57-.11.59.41,2.54-.46,2-.82Z"/><path class="cls-1" d="M188.22,146.86c-.12.18-.36,0-.69-.25a1.06,1.06,0,0,1-.27-.54,1.85,1.85,0,0,1,.18-.43,9.35,9.35,0,0,1,1.42-1,4,4,0,0,1,1.15-.48,9.23,9.23,0,0,1,2.53-.29,1.77,1.77,0,0,1,.56.09c.64.21,1.27.32,1.92.49a.61.61,0,0,0,.33,0,2.76,2.76,0,0,1,1.05.34,4.43,4.43,0,0,1,1,.63,10.16,10.16,0,0,1,1.09,1.4c0,.07.12.12.1.24a.59.59,0,0,0,.17.51,2.37,2.37,0,0,1,.28.65,1.6,1.6,0,0,1-.05.42c0,.12-.32.21-.36.2s-.22.1-.32.16l-.11.06a9.15,9.15,0,0,1-1.19-.65l-.17-.18-.41-.34a4,4,0,0,0-.74-.44.49.49,0,0,1-.2-.18,5.25,5.25,0,0,0-1.19-.34c-.22-.11-.47-.07-.67-.29a.18.18,0,0,0-.15,0c-.42,0-.84-.13-1.29-.17a5,5,0,0,0-.67.05l-.13,0a.38.38,0,0,0-.15,0,6.29,6.29,0,0,0-1.61.31,7.23,7.23,0,0,0-.9.13C188.64,146.93,188.27,146.78,188.22,146.86Z"/><path class="cls-1" d="M180.17,146.18c.22.14.19.44,0,.73a1,1,0,0,1-.48.23l-.37-.09-.13-.1a3.37,3.37,0,0,0-.32-.14.88.88,0,0,0-.37-.1l-.29-.06a6.24,6.24,0,0,1-.85-.13,6.11,6.11,0,0,0-1.87-.05,1.55,1.55,0,0,1-.43,0,3.2,3.2,0,0,0-1.5.26c-.08,0-.17,0-.22.13a3.24,3.24,0,0,1-.72.39c-.32.18-.67.33-.74.37a6.56,6.56,0,0,0-.62.23l-.57.32c-.06,0-.07.1-.17.09s-.27.12-.37.21-.29.26-.45.38a1.49,1.49,0,0,1-.31.17.29.29,0,0,1-.28-.13c0-.12-.15-.09-.24-.13a.2.2,0,0,1-.08,0,6.08,6.08,0,0,1,.1-.76,2.53,2.53,0,0,1,.31-.83,8,8,0,0,1,.74-.83c.4-.36.86-.74,1-.8a1,1,0,0,1,.34-.14,12.68,12.68,0,0,1,1.53-.85c.33-.08.63-.28,1-.18a.46.46,0,0,0,.2,0,6.1,6.1,0,0,1,1.71-.17c.29,0,.58,0,.88,0l.16,0a.84.84,0,0,0,.2.05,7.2,7.2,0,0,1,2.12.54,4.37,4.37,0,0,1,.93.85C180,145.69,180.1,146.1,180.17,146.18Z"/><path class="cls-1" d="M182.5,197.06a3.22,3.22,0,0,1-1.37-.87,4,4,0,0,1-.77-1.22,9.46,9.46,0,0,1-.59-2.31c-.08-.55-.19-1.09-.22-1.62,0-.71,0-1.42,0-2.11l.05-1.1c0-.52.06-1.06.1-1.58l1.08-.19.53-.08.38,0c.83-.08,1.66-.19,2.51-.23a8.65,8.65,0,0,1,1.68,0,2.76,2.76,0,0,1,1.73.85c.32.38-.19.55-.67.75s-.85.53-1.27.45a11.52,11.52,0,0,0-2.4-.1c-.43,0-.87.05-1.31.08l-.3,0,0,0-.15,0a.29.29,0,0,0-.09.13,2.76,2.76,0,0,0-.07.72c0,.31,0,.63,0,.95,0,.63.09,1.26.15,1.88a12.91,12.91,0,0,0,.32,2,3.59,3.59,0,0,0,.72,1.56,1.63,1.63,0,0,0,1.77.25,4.48,4.48,0,0,0,2.36-2.52,7.41,7.41,0,0,0,.41-2.8c0-.21,0-.41,0-.62,0-.78.05-1,.55-1.25.11-.05.22-.11.33-.15.38-.12.72.2.87.86a9.18,9.18,0,0,1,.16,1.5,8.41,8.41,0,0,1-.14,1.57,7.54,7.54,0,0,1-1.26,3.08,6.17,6.17,0,0,1-2,1.81,3.88,3.88,0,0,1-3,.4Z"/><path class="cls-1" d="M320.61,194a4,4,0,0,1-1.11-1.37,7.6,7.6,0,0,1-.54-1.35,16.62,16.62,0,0,1-.57-2.62c-.1-.63-.22-1.25-.27-1.88s-.09-1.44-.11-2.15l0-1.24v-1.67l1.81,0,.68,0,.58,0c1,.05,2,.08,2.95.17a13.08,13.08,0,0,1,1.92.28,3.69,3.69,0,0,1,1.89,1c.36.43-.16.6-.67.76a2.69,2.69,0,0,1-1.58.25,19.55,19.55,0,0,0-3.25-.52l-1.74-.14-.44,0c-.08,0-.06,0-.1,0l-.23-.08,0,.05a.83.83,0,0,0,0,.12v.08a.5.5,0,0,0,0,.17c0,.38,0,.76.06,1.13.06.76.15,1.52.23,2.26a13.64,13.64,0,0,0,1.14,4.61,1.67,1.67,0,0,0,.75.78,2.51,2.51,0,0,0,1.22.14,4.7,4.7,0,0,0,3.17-2.56,8.38,8.38,0,0,0,.85-3.27c0-.24,0-.49,0-.74.07-.93.15-1.22.67-1.43a2.44,2.44,0,0,1,.34-.14c.39-.11.7.3.79,1.08a9.33,9.33,0,0,1-2.21,7,6,6,0,0,1-2.65,1.76,4.73,4.73,0,0,1-1.73.19,3.62,3.62,0,0,1-.87-.17,3.52,3.52,0,0,1-.45-.16,3.72,3.72,0,0,1-.49-.28Z"/><path class="cls-1" d="M169.5,393c-.62.08-1.25.1-1.87.21s-1.24.22-1.86.38l-1.84.53-2.58,1-.29.11-.15.06s0-.08-.06-.12l-.2-.58-.41-1.15-.11-.29a.59.59,0,0,0-.08-.16l-.16-.29-.3-.57a13.51,13.51,0,0,0-7.62-5.57,12.89,12.89,0,0,0-4.3-.56,13.57,13.57,0,0,0-5.21,1.35c-.51.21-.75-.2-.54-.86a3.1,3.1,0,0,1,.69-1.12,4.4,4.4,0,0,1,1.48-.85,14,14,0,0,1,6.43-.25,16.21,16.21,0,0,1,5.87,2.35,14.09,14.09,0,0,1,5.34,5.61l.06.12,0,.06,0,.09.06.2.06.21.16-.06.44-.16c.33-.11.64-.26,1-.35l2-.59,2-.41a18.75,18.75,0,0,1,5.13-.06,14.6,14.6,0,0,1,3.76,1c.58.31,1.18.58,1.72.94a12.91,12.91,0,0,1,1.55,1.18,14.45,14.45,0,0,1,3.66,4.71,10.82,10.82,0,0,1,.53,1.21,4.59,4.59,0,0,1,.41,1.69,1.14,1.14,0,0,1-.3.85,1.94,1.94,0,0,1-.28.29c-.34.21-.81-.33-1.18-1.36a19.28,19.28,0,0,0-2.35-4.24,11.94,11.94,0,0,0-3.63-3.12,12.71,12.71,0,0,0-7.08-1.43Z"/><path class="cls-1" d="M311.5,393.32a7.38,7.38,0,0,0-3.59.58,4.64,4.64,0,0,0-.79.43,4.83,4.83,0,0,0-.74.54,7.94,7.94,0,0,0-.67.63,1.3,1.3,0,0,0-.15.18l-.2.25a6.22,6.22,0,0,0-.53.78l-.72,1.16-.35.58c0,.09-.07,0-.1-.06l-.09-.15-.19-.28-.77-1.14-.38-.58A2.64,2.64,0,0,0,302,396l-.16-.2a18,18,0,0,0-8.32-5.93,11.73,11.73,0,0,0-9.93.84c-.52.26-.78-.15-.58-.83a3.17,3.17,0,0,1,.68-1.18,4.25,4.25,0,0,1,1.54-.95,13,13,0,0,1,6.82-.24,17.82,17.82,0,0,1,6.09,2.64l.83.55.79.6c.55.39,1.05.85,1.56,1.28a19.7,19.7,0,0,1,1.44,1.45l.6.72a2.94,2.94,0,0,1,.17.26c.13.39.24,0,.4-.16l.18-.24a4.07,4.07,0,0,1,.4-.43,7.1,7.1,0,0,1,.85-.79,8.36,8.36,0,0,1,4.23-1.79,12.2,12.2,0,0,1,5.45.63,19.94,19.94,0,0,1,6.92,4.21,18.82,18.82,0,0,1,4,4.84,12.34,12.34,0,0,1,.63,1.26c.63,1.67.49,2.31.07,2.73a1.93,1.93,0,0,1-.31.27c-.18.09-.37,0-.55-.28a6.19,6.19,0,0,1-.55-1.19,18.32,18.32,0,0,0-6.55-7.91,14.49,14.49,0,0,0-7.2-2.74Z"/><path class="cls-1" d="M394.6,390.42a6.12,6.12,0,0,0-.7,2.37l0,.62a6.37,6.37,0,0,0,.11.87c.25.93.51,1.81.78,2.66l-2.09-.42a5.07,5.07,0,0,0-1.16-.16H391c-.37,0-.75.11-1.12.13A10.68,10.68,0,0,0,386,398a15.7,15.7,0,0,0-3.18,2.86,13.12,13.12,0,0,0-1.92,3.29,14.49,14.49,0,0,0-.85,4.64c0,.49-.51.53-1,.11a2.77,2.77,0,0,1-.69-1,3.6,3.6,0,0,1-.16-1.5,13.12,13.12,0,0,1,2.11-5.27,15.14,15.14,0,0,1,3.89-4,13.09,13.09,0,0,1,6.33-2.62c.25,0,.51,0,.76,0h.42c.16,0,.35.09.5.11a2.11,2.11,0,0,1-.09-.38,1.52,1.52,0,0,1,0-.21l0-.53a8.21,8.21,0,0,1,.26-2.37,10,10,0,0,1,2.33-4,15.72,15.72,0,0,1,5.69-3.73,15.54,15.54,0,0,1,5.11-1.22,7.88,7.88,0,0,1,1.19,0c1.5.16,1.94.54,2.05,1.09a2.85,2.85,0,0,1,.06.39c-.05.41-.64.46-1.54.38a14.62,14.62,0,0,0-8.13,2,10.87,10.87,0,0,0-4.45,4.36Z"/><path class="cls-1" d="M230.88,385.76a18,18,0,0,0-2.31,2.14,10.64,10.64,0,0,0-1,1.19,7.49,7.49,0,0,0-.41.63c-.07.1-.11.21-.17.31s0,.22-.5.28a10.17,10.17,0,0,0-.62,1.06c-.08.16.17,0-.14.27l-.57.52-1.16-.68-.17-.1-.1,0-.21-.09-.4-.17-.82-.34c-.55-.21-1.12-.32-1.67-.5a19.78,19.78,0,0,0-6.15-.55,21,21,0,0,0-6.1,1.42,17.73,17.73,0,0,0-4.78,2.84,20.54,20.54,0,0,0-4.45,5.43c-.41.61-.81.35-.92-.44a4.77,4.77,0,0,1,.1-1.54,6.38,6.38,0,0,1,.93-1.84A20.24,20.24,0,0,1,213,388.1a22.28,22.28,0,0,1,9.58.76c.51.16,1,.4,1.46.6l.36.16.29.13.23.15c.15.06.46.36.27.06a.94.94,0,0,1,.1-.39l0-.05.07-.14.13-.28c.09-.19.21-.35.31-.53a10,10,0,0,1,.68-1,17.3,17.3,0,0,1,1.55-1.75,23.05,23.05,0,0,1,5.21-3.8,22.37,22.37,0,0,1,9.33-2.59,24,24,0,0,1,7.42.67c.53.16,1.06.27,1.58.45,1.94.7,2.45,1.17,2.63,1.78a1.81,1.81,0,0,1,.1.42c0,.43-.87.35-2.2-.11a23.87,23.87,0,0,0-12.55-1,20.93,20.93,0,0,0-8.61,4.1Z"/><path class="cls-1" d="M238,354.64c-1.08-3.11-1.89-6.27-2.65-9.44-.28-1.15-.58-2.29-.84-3.45-.87-4.08-1.62-8.16-2.54-12.2-.41-1.79-.91-3.56-1.45-5.3-.71-2.23-1.59-4.38-2.31-6.59-.21-.69.26-.8.93-.41a5.12,5.12,0,0,1,2,2.61A83.78,83.78,0,0,1,234.68,334c.5,2.86,1.23,5.78,1.89,8.65.73,3.16,1.49,6.31,2.46,9.39.59,1.89,1.27,3.76,2,5.58a37.2,37.2,0,0,0,4.37,7.8,25.6,25.6,0,0,0,4.83,4.76,11.37,11.37,0,0,0,1.2.86c.38.27.68.5.94.7a5.37,5.37,0,0,1,.62.49,1.39,1.39,0,0,1,.49.89,1.78,1.78,0,0,1,.06.44c0,.43-.86.29-2.15-.38a26.59,26.59,0,0,1-9.32-9.41,49,49,0,0,1-4.2-9.1Z"/></g></svg>