<svg id="Layer_1" data-name="Layer 1" xmlns="http://www.w3.org/2000/svg" width="520" height="520" viewBox="0 0 520 520"><defs><style>.cls-1{fill:#221f1f;}.cls-2{fill:#232020;}</style></defs><title>Notioly v2</title><g id="_65.Autumn" data-name="65.Autumn"><path class="cls-1" d="M300.27,251.5a23.47,23.47,0,0,1-5.34-2.75c-.61-.39-1.19-.81-1.77-1.25a42.91,42.91,0,0,1-5.15-5.4c-.68-.85-1.43-1.65-2.14-2.46a16.42,16.42,0,0,1-2.58-3.23c-.41-.76,2.09-1.36,3.08-.15,1.78,2.12,3.46,4.29,5.15,6.47a19.44,19.44,0,0,0,3.68,3.34,22.79,22.79,0,0,0,2.24,1.54,21.17,21.17,0,0,0,2.44,1.19,10.68,10.68,0,0,0,1.58.59c.54.15,1.06.36,1.63.46.84.18,1.67.38,2.54.48l1.29.17,1.29.06a29.53,29.53,0,0,0,4-.22c.29,0,.58-.09.87-.11,1.1-.07,1.45.08,1.72.71a4.07,4.07,0,0,1,.18.44c.13.49-.31.91-1.13,1.08a24.94,24.94,0,0,1-7.7.32,27.58,27.58,0,0,1-5.89-1.23Z"/><path class="cls-1" d="M360.33,287.1a8.27,8.27,0,0,0,4-1.51,11,11,0,0,0,1.19-1.08,15.64,15.64,0,0,0,3.28-4.92,15.28,15.28,0,0,0,.85-2.58,22.51,22.51,0,0,1,.84-3.4c.28-.69,2.14.62,1.84,2a19.9,19.9,0,0,1-2.86,7,20.31,20.31,0,0,1-2.94,3.79,10.46,10.46,0,0,1-4.69,2.51,12.1,12.1,0,0,1-3.22.31,21,21,0,0,1-4.7-.79c-1.16-.32-2.34-.58-3.48-1-.25-.09-.5-.15-.75-.25-.9-.4-1.13-.67-1.05-1.27a1.75,1.75,0,0,1,.05-.4c.12-.44.63-.59,1.3-.41,2,.53,4,1.24,6,1.64a13.07,13.07,0,0,0,4.39.23Z"/><path class="cls-1" d="M317.88,385.58a29.46,29.46,0,0,1-7.3,4.92,28.42,28.42,0,0,1-2.95,1.26,36.2,36.2,0,0,1-11,1.65l-4.83,0-3,0c-1,0-2,0-2.78,0-.38,0-.79-.56-.38-1.4a3.3,3.3,0,0,1,2.8-1.57c4.28,0,8.18.38,12.23.12a23.09,23.09,0,0,0,7.08-1.77,26.08,26.08,0,0,0,6.95-4,29.66,29.66,0,0,0,3.59-3.5l1.19-1.5,1.22-1.72a.48.48,0,0,1,.27-.21l.32-.16.46-.22c.29-.14.57-.3.84-.45a16.78,16.78,0,0,0,1.62-1,18.43,18.43,0,0,0,4.14-4c.26-.33.48-.67.74-1,.93-1.25,1.35-1.59,2.14-1.47a2.94,2.94,0,0,1,.53.08c.54.19.55,1-.06,2.1a18.41,18.41,0,0,1-3.63,4.56,23.67,23.67,0,0,1-4.94,3.42l-.5.25-.05,0h0l0,0-.31.46c-.41.61-.86,1.2-1.33,1.78a32.14,32.14,0,0,1-3,3.29Z"/><path class="cls-1" d="M222.43,426.87a27.52,27.52,0,0,0,8.74,5.62A11.54,11.54,0,0,0,233,433c.62.11,1.21.32,1.83.39a20.13,20.13,0,0,0,6.62.15l1.66-.29c.55-.1,1.09-.3,1.64-.44a24.39,24.39,0,0,0,3.22-1.17,27,27,0,0,0,2.72-1.41c.9-.5,1.71-1.15,2.56-1.72a16.28,16.28,0,0,0,1.55-1.22l1.52-1.26a39.71,39.71,0,0,1,3.1-2.49c1.39-.95,1.95,2.7-.47,4.89-1.13.89-2.23,1.8-3.42,2.63l-1.82,1.17c-.3.2-.6.4-.92.58l-1,.51-1.95,1-2.06.8a14.08,14.08,0,0,1-2.12.66,15.81,15.81,0,0,1-2.17.47,26,26,0,0,1-10.79-.07,25,25,0,0,1-5.54-2.11,34.92,34.92,0,0,1-4.86-3.21,45.45,45.45,0,0,1-5.18-4.8,104.82,104.82,0,0,1-6.73-8.14c-1.66-2.13-3.37-4.16-5.06-6.17l-1.13-1.28c-1.38-1.6-1.63-2.05-1.43-3,0-.21.05-.46.11-.66s.42-.47.92-.37a4.11,4.11,0,0,1,1.8,1,48.09,48.09,0,0,1,5,5.57c1.53,1.94,3,3.9,4.57,5.81a60.23,60.23,0,0,0,7.35,7.92Z"/><path class="cls-1" d="M90.94,445.33a30.44,30.44,0,0,1-4.76-.55c-.79-.13-1.54-.38-2.31-.57a17.47,17.47,0,0,1-2.27-.68c-1.07-.42-2.21-.65-3.23-1.17A73.27,73.27,0,0,1,68,436.52c-1.48-.93-3-1.85-4.44-2.72a48.4,48.4,0,0,1-5.6-3.53c-1.07-.87,1.74-2.17,4-.84,3.87,2.36,7.55,4.9,11.28,7.37a30.75,30.75,0,0,0,3.55,2c1.24.57,2.5,1.1,3.75,1.6a37.08,37.08,0,0,0,4.22,1.37,30.62,30.62,0,0,0,4.35.83c.9.12,1.81.08,2.72.14a16.59,16.59,0,0,0,2.73-.12c.69-.08,1.39-.1,2.07-.22l2-.44a22.86,22.86,0,0,0,4-1.21,15.12,15.12,0,0,0,1.5-.6l1.41-.76c.93-.53,1.89-1,2.78-1.57.39-.26.76-.54,1.17-.79,1.49-.92,2.06-1,2.77-.63a3.18,3.18,0,0,1,.48.28c.45.38,0,1.14-1,1.95-.8.6-1.63,1.19-2.47,1.77s-1.81,1-2.74,1.48l-1.42.71c-.47.24-1,.39-1.48.59-1,.35-2,.74-3,1.06a32.66,32.66,0,0,1-9.6,1.17Z"/><path class="cls-1" d="M123.94,399.68a40.24,40.24,0,0,1-6.88-3.78c-.79-.52-1.6-1-2.34-1.61a79.53,79.53,0,0,1-7.23-6.69,38.3,38.3,0,0,0-3.16-2.86,32.79,32.79,0,0,0-4.24-2.85c-.42-.25-.23-.91.47-1.37a2.83,2.83,0,0,1,3,.06,28.28,28.28,0,0,1,4.5,3.8c1.34,1.34,2.6,2.71,3.87,4.07a33.47,33.47,0,0,0,5.17,4.32,39,39,0,0,0,6.32,3.8,32.16,32.16,0,0,0,4.25,1.64,30.68,30.68,0,0,0,6.78,1.31,30.11,30.11,0,0,0,5.29-.25c.38,0,.76-.11,1.14-.14,1.44-.18,1.91,0,2.31.63a3.67,3.67,0,0,1,.26.47c.21.53-.34,1-1.44,1.31a27.51,27.51,0,0,1-10.38.3,34.46,34.46,0,0,1-7.7-2.1Z"/><path class="cls-1" d="M121.12,187.35a10.76,10.76,0,0,0,5.83,4.36c5.22,1.3,8.46-3.54,10.15-7.72.72-1.81-2.76-1.71-3.31-.34-1.1,2.72-2.91,7.23-6.43,5.13a10.3,10.3,0,0,1-3-2.94c-.86-1.23-4.19.08-3.19,1.51Z"/><path class="cls-1" d="M145.42,181.44c1.6,2,3.84,4.13,6.39,4.77,5.23,1.3,7.88-3.19,8.69-7.6.19-1-3.26-.45-3.45.53-.24,1.3-.75,5.07-2.31,5.63.28-.1-.56-.18-.85-.29a7.6,7.6,0,0,1-1.65-.91,17.38,17.38,0,0,1-3.57-3.39c-.6-.76-3.93.41-3.25,1.26Z"/><path class="cls-2" d="M170,180c0,.62-.28,1.54-.39,2.5a9.53,9.53,0,0,0,.11,2.92,9.86,9.86,0,0,0,1.85-.34,8.13,8.13,0,0,1-.09-2.36,27,27,0,0,0,.4-2.73,4.63,4.63,0,0,0-.94,0l-.65,0Z"/><path class="cls-2" d="M109.52,201.2c-.51-.72-1-1.44-1.62-2.14a10.45,10.45,0,0,0-1-1,4.36,4.36,0,0,0-1.38-.92,3.26,3.26,0,0,0-.36.87l-.21.62a2,2,0,0,0-.08.28,5.19,5.19,0,0,1,1.57,1.4,23.77,23.77,0,0,1,1.51,2A11.92,11.92,0,0,0,109.52,201.2Z"/><path class="cls-1" d="M312.69,318.28c-.73,12.3-19.62,17-19.62,17-15.52,1.66-18.16-6-28.46-15.9-38.69-37.24-108.08-4.06-114.46-57.23-34.3,5.13-23.06-28.66-13.37-27.42,10.33,5.29,22.83,3.89,28.6-6.16l.07,0c16.7-8.56,32.09,12.14,18.91,22.28,17.15,14.14,88,13,100.67,39C298.51,317.39,312.69,318.28,312.69,318.28Z"/><path class="cls-1" d="M174.53,228a16.22,16.22,0,0,0-4.11.26,18.05,18.05,0,0,0-3.94,1.37c-.12.05-.07,0-.11.05l-.09.14-.67,1c-.45.68-1,1.28-1.53,1.92s-1.17,1.16-1.78,1.7a21.49,21.49,0,0,1-2,1.45,20.88,20.88,0,0,1-9.17,3.08,25.81,25.81,0,0,1-9.51-1,20.62,20.62,0,0,1-2.26-.75l-1.11-.42-1.08-.5-.54-.26-.16-.07,0,0h-.26a.75.75,0,0,0-.39,0l-.4.07a3.39,3.39,0,0,0-.41.15,3.15,3.15,0,0,0-.8.4,9.77,9.77,0,0,0-2.81,2.78,17.18,17.18,0,0,0-2,3.73,16.78,16.78,0,0,0-1,8.27,10.67,10.67,0,0,0,1.31,3.84,11.1,11.1,0,0,0,1.14,1.66,12,12,0,0,0,1.49,1.36,14.2,14.2,0,0,0,5.52,2.47,27.91,27.91,0,0,0,6.29.58c1.07-.07,2.14-.09,3.21-.2l2.05-.25,1.44-.17c.11,0,.28-.07.34,0l0,.36.12.72.65,3.93.13.8.2.78.41,1.56a38.74,38.74,0,0,0,1.82,5.35,32,32,0,0,0,2.76,4.87,27.59,27.59,0,0,0,8,7.77,46.2,46.2,0,0,0,10.3,4.77,96.48,96.48,0,0,0,11.22,2.7c15.24,2.67,31,3.3,46.22,7.37a83.81,83.81,0,0,1,19.48,7.66,25.75,25.75,0,0,1,2.25,1.35l2.22,1.4c1.46,1,2.83,2.08,4.24,3.11s2.63,2.31,3.94,3.46l1.85,1.83,1.81,1.87c3.06,3.18,5.88,6.64,9.37,9A16.92,16.92,0,0,0,284,334a25.6,25.6,0,0,0,6.32.51l1.61-.12.81-.06a1.44,1.44,0,0,0,.25,0l.39-.11c1-.29,2.05-.64,3.06-1a41.06,41.06,0,0,0,5.87-2.7c3.7-2.09,7.17-4.91,8.78-8.73a19.12,19.12,0,0,0,.85-2.66c.14-.58.27-.84.39-.79s.6,1.46,0,3.83a16.07,16.07,0,0,1-5.68,8.2A35.77,35.77,0,0,1,294,336.72l-.54.15a4.15,4.15,0,0,1-.57.05L292,337c-.58,0-1.16.1-1.75.12a32.81,32.81,0,0,1-3.57-.1,19.65,19.65,0,0,1-7.07-1.81,23.59,23.59,0,0,1-5.92-4.13c-1.72-1.6-3.27-3.29-4.79-4.94s-3-3.29-4.62-4.83c-.77-.8-1.61-1.5-2.42-2.23s-1.6-1.5-2.49-2.15l-2.63-2c-.86-.68-1.83-1.2-2.74-1.81-1.82-1.25-3.81-2.2-5.73-3.27A86.45,86.45,0,0,0,235.88,305a126.34,126.34,0,0,0-13-3.12c-8.81-1.66-17.81-2.59-26.83-3.83a159.24,159.24,0,0,1-16.29-2.92c-5.41-1.37-10.88-3.19-15.7-6.37a31.27,31.27,0,0,1-11.28-12.89,17.29,17.29,0,0,1-.84-2l-.77-2c-.46-1.36-.76-2.76-1.15-4.13a16.89,16.89,0,0,1-.4-2.1l-.31-1.89-.06-.33a.19.19,0,0,0,0-.08h-.09l-.17,0-1.58.18a33.6,33.6,0,0,1-9.43-.36,18.76,18.76,0,0,1-4.6-1.5,13.59,13.59,0,0,1-4-2.93,12.86,12.86,0,0,1-2.58-4.24,16.06,16.06,0,0,1-.87-4.82,20.16,20.16,0,0,1,2.19-9.32,16.91,16.91,0,0,1,2.76-4,8.43,8.43,0,0,1,4.4-2.6,4.85,4.85,0,0,1,1.45-.07c.29-.06.61.18.84.27l.5.23,1,.47,1,.4c.35.12.69.27,1,.38l1.06.32c.7.23,1.42.36,2.14.52a21.7,21.7,0,0,0,8.72,0,17.59,17.59,0,0,0,7.77-3.71c.33-.29.65-.61,1-.92.16-.15.33-.3.48-.46l.43-.52c.28-.35.58-.68.84-1l.74-1.12.27-.42c.11-.13.17-.32.36-.38s.34-.16.47-.23l.34-.16a13.3,13.3,0,0,1,1.35-.57c.47-.16.93-.35,1.4-.48l1.44-.37a17,17,0,0,1,19.25,10.35,13.16,13.16,0,0,1,.92,5.87,12.18,12.18,0,0,1-1.92,5.65,8.77,8.77,0,0,1-.67.93,7.53,7.53,0,0,1-.73.86l-.39.41c-.09.08-.12.13-.2.2l-.43.36c-.27.12,0,.23.16.34l.46.34a3.11,3.11,0,0,0,.28.19l.45.26.9.52a48,48,0,0,0,7.71,3.32A160,160,0,0,0,212.13,260c11.09,2.48,22.29,4.52,33.29,7.25,4.28,1,8.51,2.22,12.68,3.57a92.83,92.83,0,0,1,12.21,4.84,41.4,41.4,0,0,1,10.93,7.44,20.59,20.59,0,0,1,2.24,2.51c.34.45.7.89,1,1.35l.86,1.47c.6,1,1.05,1.92,1.57,2.88l1.5,2.85c1,1.61,1.9,3.24,2.93,4.8s2.07,3.13,3.26,4.6a57.4,57.4,0,0,0,5.84,6.62,48,48,0,0,0,4.59,3.82,61,61,0,0,0,5.57,3.5c.61.35,1.46.7,1.86.89.72.28-.58.59-3.16-.2s-6.4-2.78-10.4-6.38c-5.84-5.43-10.34-12.18-14.08-19.3l-.71-1.33c-.23-.46-.47-.9-.71-1.28a16,16,0,0,0-1.5-2.34,16.76,16.76,0,0,0-1.81-2.15l-1-1c-.33-.33-.72-.62-1.08-.94a45,45,0,0,0-9.87-6.16A89.66,89.66,0,0,0,257,272.94c-3.82-1.24-7.71-2.33-11.66-3.31-7.88-2-15.91-3.58-24-5.25-6-1.24-12-2.48-18-4-3-.76-6-1.63-8.92-2.64a44.69,44.69,0,0,1-8.67-3.91l-.52-.31c-.06,0-.22-.15-.38-.26l-.45-.33-1.82-1.33c-.29-.22-.61-.44-.89-.66l.85-.74,1.71-1.5.87-.9c.22-.26.41-.53.62-.79a9.08,9.08,0,0,0,1-1.7,10.28,10.28,0,0,0,.22-7.75,14.41,14.41,0,0,0-4.88-6.52,14.67,14.67,0,0,0-7.63-2.92Z"/><path class="cls-1" d="M81.56,348.19l6.11-25.75c.75-3.14,1.44-6.29,2.23-9.41a289,289,0,0,1,9.95-32.66,99.65,99.65,0,0,1,6.44-13.82,38.61,38.61,0,0,1,5.95-7.9,22.54,22.54,0,0,1,4-3.08,16.11,16.11,0,0,1,4.8-1.76c2.15-.29,1.83.47.35,1.41-.36.24-.78.56-1.26.85l-1.53,1.08c-1.09.79-2.27,1.79-3.55,2.89a32.1,32.1,0,0,0-5.86,7.17,70.82,70.82,0,0,0-4.48,8.45,181.44,181.44,0,0,0-6.91,18.27c-2.45,7.47-4.33,15.46-6.24,23.3-2.09,8.62-4.09,17.28-6.12,25.94q-1.87,8-3.86,16c-2,8.05-4.21,16.09-6.66,24a173.58,173.58,0,0,1-6.44,18c-.56,1.29-1.14,2.55-1.77,3.82a29.48,29.48,0,0,1-2.91,4.8,4.86,4.86,0,0,1-2,1.69,4.25,4.25,0,0,1-.82.33c-.75.06.17-1.85,1.91-5.15a123.91,123.91,0,0,0,6.66-15.71c1.94-5.49,3.68-11.15,5.3-16.87,2.39-8.5,4.54-17.13,6.58-25.79Z"/><path class="cls-1" d="M223.39,250.66l-1.72-.85c-.58-.28-1.18-.51-1.77-.76-1.17-.54-2.41-.92-3.62-1.36-.9-.29-1.84-.45-2.74-.73a80.59,80.59,0,0,0-9.86-2.07c-1.49-.17-3-.32-4.48-.35a41.08,41.08,0,0,1-5.75-.34c-1.19-.23.42-2.74,2.67-2.67a60.37,60.37,0,0,1,11.9,1.55c1.17.31,2.39.49,3.6.77s2.44.49,3.63.85a52.57,52.57,0,0,1,7.67,2.81l2.26,1.1,2.2,1.22c1.11.61,2.14,1.36,3.22,2s2.06,1.46,3.05,2.22c.76.61,1.56,1.16,2.34,1.74l2.27,1.8a12.53,12.53,0,0,1,1,.83c1.14,1.1,1.37,1.59,1.09,2.32-.07.16-.12.35-.2.49-.3.48-1.08.34-2-.35-1.31-1.05-2.68-2.06-4-3.16s-2.72-2.12-4.16-3.08c-1-.78-2.15-1.4-3.22-2.11-.56-.33-1.13-.63-1.69-.95s-1.12-.63-1.71-.89Z"/><path class="cls-1" d="M284.19,223.27q-4.56,5.5-8.92,11.2c-1.06,1.38-2,2.82-3.11,4.21-3.71,4.89-7.41,9.81-11,14.8-1.59,2.22-3.12,4.5-4.61,6.76-1.91,2.91-3.7,5.92-5.86,8.66-1.34,1.71-2-2,.24-5.37,3.94-5.95,8.06-11.76,12.51-17.41,2.65-3.39,5.17-7.09,7.81-10.6q4.36-5.81,8.91-11.46c1.87-2.32,3.78-4.61,5.7-6.89a135.67,135.67,0,0,1,9.24-9.95,35.69,35.69,0,0,1,4-3.46c.39-.24.77-.51,1.18-.74a11.36,11.36,0,0,1,1.42-.57,12.35,12.35,0,0,1,2.83-.15c.75,0,1.45,0,2.16-.05,1.3-.07,2.08-.23,2.66-.28a2.64,2.64,0,0,1,1.38.18,3.89,3.89,0,0,1,.58.24c.27.17.21.49-.21.94a5,5,0,0,1-2.38,1.22,20.17,20.17,0,0,1-4.93.42c-.39,0-.75,0-1.07,0l-.39.05-.13,0-.19.09a8.19,8.19,0,0,0-.79.39l-.86.55a54.39,54.39,0,0,0-6.77,6.32c-3.22,3.48-6.35,7.14-9.37,10.87Z"/><path class="cls-1" d="M268.51,316.93c3.59-5.07,6.84-10.44,9.94-15.89,1.13-2,2.17-4,3.28-6,3.9-7.07,7.68-14.24,11.56-21.36,1.72-3.16,3.41-6.36,5.16-9.49,2.25-4,4.51-8.11,7.65-11.61,1-1.08,1.37-.46,1.14.89a16.23,16.23,0,0,1-2.39,5.62c-2.49,3.86-4.78,7.89-7.06,12l-6.86,12.28c-2.78,4.91-5.35,10.2-8.14,15.27-3.07,5.57-6.27,11.09-9.78,16.43a106.35,106.35,0,0,1-7,9.53,49.84,49.84,0,0,1-6.3,6.45,28.3,28.3,0,0,1-3.69,2.66,18.59,18.59,0,0,1-4.17,1.93,13.88,13.88,0,0,1-7.15.44,16.46,16.46,0,0,1-6.47-3,25.1,25.1,0,0,1-2.39-2c-2.72-2.75-3.18-3.94-3.12-5a3.55,3.55,0,0,1,.08-.7c.12-.31.5-.22,1.06.19a8.94,8.94,0,0,1,1,.84c.38.35.8.76,1.25,1.24,2.72,2.74,5.91,5.23,9.5,5.89s7.29-.69,10.51-3a40.23,40.23,0,0,0,6.63-6.19,79.83,79.83,0,0,0,5.73-7.38Z"/><path class="cls-1" d="M298.39,248.5a31.87,31.87,0,0,1-5.46-3.49c-.64-.46-1.24-1-1.83-1.47a51.61,51.61,0,0,1-5.43-6.06c-.71-1-1.51-1.85-2.25-2.77a19.55,19.55,0,0,1-2.68-3.66c-.43-.85,2.16-1.24,3.19.12,1.84,2.4,3.61,4.82,5.42,7.25a15.41,15.41,0,0,0,1.85,2l1,1,1.06.88c.74.69,1.57,1.24,2.37,1.87s1.65,1.14,2.56,1.58a25.4,25.4,0,0,0,8.87,3,30.2,30.2,0,0,0,4.35.17c.32,0,.64-.05,1-.05,1.19,0,1.57.16,1.82.81a3.38,3.38,0,0,1,.18.44c.11.5-.39.89-1.3,1a24,24,0,0,1-8.49-.43,30.44,30.44,0,0,1-6.23-2.09Z"/><path class="cls-1" d="M120,350.42l-1.91,6.16c-.23.75-.39,1.51-.63,2.26-.85,2.63-1.71,5.26-2.56,7.88-.38,1.17-.69,2.36-1,3.54a23.53,23.53,0,0,1-1.31,4.51c-.42.89-2.31-.94-1.85-2.67a88.78,88.78,0,0,1,3-9.11c.7-1.8,1.14-3.75,1.7-5.64l1.88-6.2,1.13-3.83c.56-1.93,1.14-3.87,1.61-5.81.37-1.51.59-3,.86-4.54.06-.33.1-.67.17-1,.28-1.23.53-1.58,1.22-1.69a3.81,3.81,0,0,1,.47-.07c.51,0,.78.61.69,1.54a53.26,53.26,0,0,1-1.65,8.42c-.55,2.09-1.16,4.17-1.75,6.26Z"/><path class="cls-1" d="M103.66,402.67q-.81,2.28-1.51,4.63c-.17.57-.27,1.16-.45,1.74-.62,2-1.29,4-2,6.06-.3.9-.58,1.81-.84,2.72l-.51,1.75a8.06,8.06,0,0,1-.79,1.65c-.43.63-2.22-1.15-1.76-2.38.8-2.23,1.58-4.46,2.53-6.73a40.38,40.38,0,0,0,1.25-4.31c.46-1.6.93-3.19,1.46-4.78.31-1,.67-1.95,1-2.92.53-1.47,1.12-2.92,1.7-4.36.42-1.13.78-2.26,1.19-3.39.1-.25.18-.5.29-.74.42-.89.71-1.1,1.36-1a3,3,0,0,1,.45.09c.48.15.66.7.47,1.38-.59,2-1.39,4-2.16,6-.58,1.5-1.14,3-1.64,4.56Z"/><path class="cls-1" d="M302.37,222.43c-8.72-.36-15.89-10.48-11.62-18.51.81-1.54-2.68-1.28-3.27-.17-5.05,9.5,3.52,20.4,13.58,20.82,1.43.06,3.66-2,1.31-2.14Z"/><path class="cls-2" d="M314.53,207.16l28.7-43.29,14.27-21.72q3.54-5.44,7-10.93c2.32-3.66,4.64-7.31,6.83-11.11.63-1-1.55-2.23-2.13-1.21-2.13,3.7-4.45,7.37-6.77,11s-4.67,7.28-7,10.9l-14.26,21.71-28.7,43.29C312,206.59,314,208,314.53,207.16Z"/><path class="cls-1" d="M321.13,208.22a63.19,63.19,0,0,0-9.73-2c-1.68-.17-4.55-.4-5.71,1.18-3.7,5.07,11,6.62,13,6.86.75.1,3.36-1.15,1.84-1.34a46.42,46.42,0,0,1-8.35-1.58c-1.48-.47-3.56-1.14-4-2.85-.26-1.06,0-1,.82-1,1,.08,2,.24,3,.41,2.28.41,4.53,1,6.77,1.56.75.2,3.32-1,2.34-1.24Z"/><path class="cls-1" d="M320.53,212.92c-4.33-.69-10.44-2.08-14.61-.19-1.72.78-2.37,2.74-.64,4a10.54,10.54,0,0,0,4.23,1.29c2.65.47,5.34.7,8,1,.7.07,3.34-1.14,1.85-1.3-3.36-.36-7.17-.38-10.36-1.55-.77-.28-1.72-.67-1.89-1.57-.23-1.24.17-1.19,1-1.2a62.12,62.12,0,0,1,10.54.87c.71.11,3.35-1.06,1.85-1.3Z"/><path class="cls-1" d="M319,217.38c-2.26,0-4.54,0-6.81.14s-6,.11-8,1.72c-1.3,1.06-1.81,3.1-.19,4a9.09,9.09,0,0,0,3.66.64c2.64.18,5.26.3,7.89.58,1.28.13,3-1.68,1.06-1.88-3.08-.33-6.35-.16-9.4-.71-1.74-.32-1.65-1.6,0-2a45.39,45.39,0,0,1,10.74-.67c1.25,0,3-1.85,1.06-1.88Z"/><path class="cls-1" d="M317,222.89c-3.5-.34-8.4-1.15-11.66.5-1.53.78-1.77,2.41-.18,3.3,2.75,1.54,6.82,1.42,9.85,1.75.73.08,3.35-1.16,1.84-1.33a43.32,43.32,0,0,1-8.12-1.17c-.61-.19-1.55-.44-1.76-1.14a1.26,1.26,0,0,1,.11-.91c-.06.16-.76.27,0,.15a32.48,32.48,0,0,1,8.12.18c.73.07,3.35-1.18,1.84-1.33Z"/><path class="cls-1" d="M434.47,71.08c-2.42-3.4-5-6.7-7.7-9.86q-2-2.37-4.2-4.61l-1.09-1.1-.55-.54-.18-.18s0,0,0,0L418,54.08c-2-.47-4-1.06-6.11-1.44l-6.16-1.25-6.2-1c-2.07-.37-4.16-.54-6.23-.82-3-.43-6.09-.59-9.14-.85-1.52-.14-3.05-.15-4.58-.24s-3.05-.16-4.58-.18a213.89,213.89,0,0,0-32.29,1.64A221.86,221.86,0,0,0,311,56.39a219.12,219.12,0,0,0-27.06,9.66,237.31,237.31,0,0,0-32.37,17.17c-3.17,2.07-3.18,1.24-.87-1.16A58.93,58.93,0,0,1,264,72.49,225.34,225.34,0,0,1,382.12,46a209.39,209.39,0,0,1,25.45,3.17l6.29,1.28,6.23,1.52,1.75.43.15,0,.11.1.24.22.37.35.58.57q1.15,1.14,2.25,2.31c1.47,1.57,2.9,3.17,4.27,4.82A151.07,151.07,0,0,1,447.37,87a158.28,158.28,0,0,1,15.77,44.88c.33,1.5.55,3,.8,4.53s.52,3,.7,4.53c.35,3,.79,6,1,9.07.11,1.51.27,3,.34,4.54l.16,4.55.08,2.27,0,2.28-.05,4.56c-.09,2.68-.26,5.3-.41,8-.93,10-1.84,13.08-2.83,15.08a12.36,12.36,0,0,1-.7,1.31c-.35.42-.47-.39-.39-2.2,0-.91.13-2.06.28-3.44.07-.68.16-1.43.25-2.22s.14-1.65.23-2.55a181.32,181.32,0,0,0,.35-32.82,159.09,159.09,0,0,0-6.28-33.07,155.27,155.27,0,0,0-9.26-23.45,151.18,151.18,0,0,0-12.94-21.68Z"/><path class="cls-1" d="M300.28,228a165.71,165.71,0,0,0-7.61,15.56c-.25.65,2.56.35,2.87-.46a165.71,165.71,0,0,1,7.61-15.56c.28-.55-2.46-.33-2.87.46Z"/><path class="cls-1" d="M424.11,55.12s4.4-5.69,2.38-7.85c-3-3.21-6.94,5-6.94,5S423.05,53.19,424.11,55.12Z"/><path class="cls-1" d="M420.26,47.94a12.59,12.59,0,0,1,1.52-1.48A5.92,5.92,0,0,1,424,45.28a3.19,3.19,0,0,1,2.25.12,3.75,3.75,0,0,1,.8.55,3.36,3.36,0,0,1,.59.68,2.61,2.61,0,0,1,.41.88l.12.45c0,.15,0,.28,0,.43a6.46,6.46,0,0,1-.67,2.77l-.94,2A5.93,5.93,0,0,1,425,55.54c-.26.19-.77-.28-1.17-.86s-.7-1.28-.46-1.68a29.11,29.11,0,0,0,2.25-4.08c.12-.34.11-.64,0-.75s-.21-.23-.3-.29a.8.8,0,0,0-.27-.12,1.26,1.26,0,0,0-.94.25,5.46,5.46,0,0,0-1.23,1,12.43,12.43,0,0,0-1.38,1.65l-.45.64-.2.31-.09.17a.15.15,0,0,0,0,.08l.08,0,.49.16.37.11a1.23,1.23,0,0,1,.21,0l.34.11a9.13,9.13,0,0,1,1.37.61,4.22,4.22,0,0,1,.6.37c.7.58.73,1.06.21,1.56-.12.11-.23.23-.36.33a1.59,1.59,0,0,1-.7.26,1.19,1.19,0,0,1-.6-.07c-.5-.22-1.06-.43-1.65-.66l-.56-.21c-.34-.13-.7-.26-1.09-.38l-2.47-.68.27-.55a29.62,29.62,0,0,1,1.7-3.17l.23-.37.15-.21.29-.41q.3-.4.63-.81Z"/><path class="cls-1" d="M320.81,104.29c-2.62-.88-5.24-1.8-7.89-2.6l-4-1.24-4-1.16c-1.95-.57-3.92-1-5.87-1.56q-10.32-2.87-20.79-5.29c-3.09-.72-6.23-1.31-9.33-1.88-4-.71-8-1.25-11.93-2.32-2.45-.67,1.26-3.13,5.87-2.3,8.16,1.49,16.28,3.27,24.35,5.55,4.82,1.35,9.92,2.44,14.87,3.78,2.71.75,5.42,1.53,8.12,2.32s5.4,1.63,8.07,2.54l4.94,1.64,4.9,1.75c2.49.85,4.92,1.88,7.38,2.81s4.85,2,7.27,3c1.87.8,3.71,1.6,5.57,2.37s3.66,1.66,5.49,2.49c.8.39,1.62.71,2.39,1.16,2.9,1.63,3.71,2.35,3.88,3.43a3.35,3.35,0,0,1,.1.73c-.08.72-1.52.52-3.67-.51-6.38-3-13.1-6.13-20.06-8.87-2.58-1-5.19-2-7.8-3s-5.24-1.91-7.91-2.76Z"/><path class="cls-1" d="M425.55,164.76c-4-3.49-8.2-6.85-12.44-10.1-1.53-1.21-3.19-2.25-4.74-3.43-5.54-4.07-11.18-8-17-11.65-2.61-1.59-5.28-3.1-8-4.5-3.45-1.79-7-3.39-10.37-5.35-2.11-1.23,2-2.76,6.11-.71a151.13,151.13,0,0,1,20.72,12.49c1,.71,2,1.4,3,2.09l3.06,2.1C408,147.08,410,148.52,412,150c4.39,3.21,8.65,6.61,12.85,10.06q3.84,3.22,7.62,6.53l5.65,5.08c1.84,1.74,3.69,3.47,5.55,5.16q2.15,2,4.28,3.94c1.42,1.31,2.89,2.55,4.26,3.92.62.59,1.24,1.15,1.84,1.76,2.25,2.25,2.79,3.13,2.64,4.21a3.2,3.2,0,0,1-.11.72c-.28.67-1.57.11-3.31-1.42q-1.94-1.69-3.85-3.5t-3.91-3.59c-1.31-1.21-2.58-2.47-3.91-3.68l-4-3.67c-4-3.62-8-7.23-12.12-10.68Z"/><path class="cls-1" d="M388.42,131.88a292.66,292.66,0,0,0-31.32-17.06c-2-.95-4-1.8-5.94-2.65s-4-1.75-6-2.54a306.79,306.79,0,0,0-43.55-14.51c-3.31-.78-6.6-1.65-9.95-2.29s-6.66-1.39-10-1.9l-6.42-1.06L268.81,89c-4.3-.65-8.62-1.08-12.91-1.72-2.67-.39-2.25-1,.1-1.45a31.7,31.7,0,0,1,4.82-.37,41,41,0,0,1,6.82.42l6.63.94c2.2.31,4.4.74,6.6,1.12,4.4.71,8.76,1.7,13.14,2.62,8.7,2,17.38,4.28,25.91,7.16,10.21,3.36,20.78,7.07,30.87,11.44a299.66,299.66,0,0,1,32.31,16.42c6.39,3.81,12.69,7.78,18.78,12a291.81,291.81,0,0,1,26.47,20.9c6.49,5.78,12.67,11.66,18.5,18,1.29,1.4,2.52,2.78,3.78,4.22,4.58,5.43,5.69,7.44,6,9.07a6.92,6.92,0,0,1,.2,1.09c0,.43-.56.13-1.48-.77s-2.23-2.4-3.88-4.36a265.22,265.22,0,0,0-33.87-32.92,285.78,285.78,0,0,0-29.24-20.89Z"/><path class="cls-1" d="M118.36,364.05l.4-4.86c0-.59,0-1.18.08-1.77q.28-3.12.58-6.24c.07-.92.08-1.85.07-2.77a14,14,0,0,1,.15-3.54c.19-.73,2.48.26,2.45,1.62a47.83,47.83,0,0,1-.63,7.24,43.55,43.55,0,0,0-.3,4.45l-.36,4.89-.21,3c-.09,1.52-.22,3.05-.23,4.56,0,1.17.11,2.33.18,3.5,0,.26,0,.51,0,.77,0,.95-.16,1.25-.81,1.43a3.6,3.6,0,0,1-.44.12c-.5.07-.9-.34-1-1A32.43,32.43,0,0,1,118,369c.06-1.63.17-3.27.26-4.9Z"/><path class="cls-1" d="M232.64,369.27c-.58-4.21-1.11-8.43-1.62-12.64-.19-1.54-.45-3.07-.62-4.61-.6-5.43-1.12-10.86-1.66-16.28-.24-2.41-.56-4.82-.88-7.2-.43-3.05-1-6.13-1.09-9.16a.56.56,0,0,1,.39-.67c.24-.09.64.06,1,.43a6.56,6.56,0,0,1,1.85,3.91c.8,6.26,1.41,12.5,1.84,18.84.25,3.79.87,7.69,1.35,11.54.51,4.23,1,8.46,1.62,12.69.36,2.59.74,5.19,1.16,7.78.63,3.92,1.29,7.85,2.18,11.68a76,76,0,0,0,2.61,8.65c.22.61.46,1.21.71,1.8.89,2.26,1.13,2.87.78,3.7a4.23,4.23,0,0,1-.23.57c-.17.26-.47.23-.89-.08a4.08,4.08,0,0,1-.7-.69,9.24,9.24,0,0,1-.69-1.1,41.09,41.09,0,0,1-3-8c-.79-2.76-1.43-5.59-2-8.43-.85-4.21-1.52-8.47-2.17-12.71Z"/><path class="cls-1" d="M368.62,276.42a38.15,38.15,0,0,0,1.18-5.28q.21-1.36.33-2.73l0-.34,0-.07,0-.15,0-.36v-.14s0-.1,0-.05l-.32.2-.16.09-.22.1c-2.12,1.05-4.43,2.06-6.66,3s-4.59,1.8-6.68,2.76a17.22,17.22,0,0,0-4.94,3.57,11.53,11.53,0,0,0-3.05,6.6c0,.38-.2.5-.47.54a1.15,1.15,0,0,1-1-.49,4.17,4.17,0,0,1-.47-4.24,13.58,13.58,0,0,1,2.62-4,19.51,19.51,0,0,1,3.58-2.92,24.69,24.69,0,0,1,4-2c1.36-.56,2.64-1,4-1.49a50.3,50.3,0,0,0,4.69-2c.78-.37,1.55-.76,2.31-1.14l.57-.3.75-.4c.6-.32,1.25-.7,1.89-1.08l2.18-1.37a3,3,0,0,1,.06.86v1c0,.65,0,1.31,0,2l-.05,1-.07.92-.12,1.26a47.53,47.53,0,0,1-.82,5,27.52,27.52,0,0,1-2.38,6.84,11.94,11.94,0,0,1-3.64,4.34,8.55,8.55,0,0,1-2.6,1.22,17.93,17.93,0,0,1-2.69.67,21.85,21.85,0,0,1-8.45-.28c-.6-.16-1.21-.29-1.8-.5-2.21-.79-2.77-1.41-2.85-2.25a2.33,2.33,0,0,1,0-.58c.13-.57,1.06-.49,2.52,0a25.07,25.07,0,0,0,6.74,1.25,15.77,15.77,0,0,0,6.61-1.1,7.64,7.64,0,0,0,3.3-3.08,19.42,19.42,0,0,0,2-4.79Z"/><path class="cls-1" d="M343.5,289.39c4.27-2.23,8.84-4.71,12.29-8.1,2.36-2.31-3.31-2.09-4.61-.82-3.16,3.1-7.33,5.32-11.23,7.36-.93.48-1.58,1.45-.54,2.13s3.11-.06,4.09-.57Z"/><path class="cls-1" d="M315,380.69l-2.18.33-2.2.18c-1.46,0-3,0-4.27,0-1,0-2,.12-2.95.2a30.9,30.9,0,0,0-10.09,2.42,28.14,28.14,0,0,0-4.12,2.21c-1.68,1.09-3.24,2.35-5,3.32-1.12.6-1.4-2.43.6-3.83a34,34,0,0,1,11.7-5.46,44.76,44.76,0,0,1,7.85-1.37c.72-.06,1.45-.06,2.17-.07h2.12a31,31,0,0,0,4.08-.25,26.88,26.88,0,0,0,4.92-1.09,24.19,24.19,0,0,0,6.82-3.35,19.23,19.23,0,0,0,4.05-4.11,11.52,11.52,0,0,0,.7-1c.87-1.27,1.19-1.6,2-1.58a3.23,3.23,0,0,1,.54,0c.29.05.45.27.48.65a2.91,2.91,0,0,1-.37,1.49,20.2,20.2,0,0,1-8.39,8.29,28.69,28.69,0,0,1-8.42,3.07Z"/><path class="cls-1" d="M299,389.2a29.22,29.22,0,0,0,5.88-1.2c.69-.24,1.35-.54,2-.83a24.58,24.58,0,0,0,6.67-3.92,11.76,11.76,0,0,0,1.27-1.18,15.72,15.72,0,0,0,1.14-1.31c.95-1.15,1.65-2.46,2.71-3.53.67-.68,2.2,1.7,1.12,3.26a22.41,22.41,0,0,1-7.3,6.63,45.28,45.28,0,0,1-5.35,2.8,31,31,0,0,1-6.36,1.69c-1.32.22-2.66.33-4,.43-2,.13-4,.09-6,.09-1.53,0-3,.13-4.51.24l-.93.11c-1.14.11-1.35,0-1.8-.59-.1-.14-.24-.27-.34-.4a.61.61,0,0,1,0-.78,1.61,1.61,0,0,1,.46-.39,2.43,2.43,0,0,1,.68-.28,19.19,19.19,0,0,1,4.31-.49c1.4,0,2.79,0,4.17-.05a49.22,49.22,0,0,0,6.1-.36Z"/><path class="cls-1" d="M210.51,406.57c-.77,0-1.52,0-2.29,0l-1.14,0h-.47l-.07,0-.67-.12a1.94,1.94,0,0,1,.25.29l.13.18.08.1.38.48L210,411.6c1.47,1.86,3,3.63,4.56,5.39,1.35,1.56,2.78,3,4.24,4.48a50.25,50.25,0,0,0,4.68,4,32.09,32.09,0,0,0,5.18,3.17,29.58,29.58,0,0,0,2.79,1.19,26.08,26.08,0,0,0,2.91.81,21.74,21.74,0,0,0,10.6-.36c4.41-1.27,8.39-3.71,12.25-6.29,1.22-.78,1.51-.14.9,1.14a10.63,10.63,0,0,1-1.6,2.3,15,15,0,0,1-3,2.37,33,33,0,0,1-3.43,1.68l-1.77.74-1.85.57-.93.28-.95.19c-.64.12-1.27.27-1.91.36a28.24,28.24,0,0,1-3.9.21,27.12,27.12,0,0,1-14.5-4.79,65,65,0,0,1-13.43-12.33c-1.63-1.93-3.18-3.92-4.72-5.89l-1.16-1.46-.59-.74c-.32-.4-.68-.77-1-1.16l-.51-.57-.25-.29-.35-.31-1.4-1.24-1.53-1.31-1.38-1.14a3.68,3.68,0,0,1,.86.13l1,.21,2.19.41c.77.16,1.4.23,2.09.34l1,.14.92.07c.91,0,1.21.06,1.75.06s1,0,1.5,0c1,0,2,0,3,0,2,0,4-.14,6-.23a164.56,164.56,0,0,1,18.45-.08c4.75.36,9.52.94,14,3a18.41,18.41,0,0,1,2.85,1.56l1.14.84c.33.29.61.57.87.81a7.62,7.62,0,0,1,1.13,1.37,2.8,2.8,0,0,1,.58,1.94,2.57,2.57,0,0,1-.09.72c-.13.29-.52.17-1.06-.25s-1.27-1.14-2.27-2c-3-2.48-6.85-3.84-10.93-4.6a70.32,70.32,0,0,0-12.76-1c-6.47,0-13,.49-19.68.64Z"/><path class="cls-1" d="M274.4,428.65c-7-5.61-16.51-8.17-25.22-9-.83-.08-3.38,1.32-1.8,1.47,8.38.8,17.6,3.21,24.32,8.61.74.6,3.41-.53,2.7-1.09Z"/><path class="cls-1" d="M108.8,387c-1.27-1.09-2.53-2.17-3.79-3.2l-1.07-.8a8.87,8.87,0,0,0-1-.67c-.18-.1-.32-.21-.54-.31l-.69-.31L99,380.51,97.74,380l-1.22-.51.65-.23.44-.12.52-.13,2-.5c1.36-.34,2.7-.69,4-1l2-.31a10.71,10.71,0,0,1,1.4-.17c.93-.06,1.87-.12,2.81-.15a39.8,39.8,0,0,1,9.74,1.5,48.92,48.92,0,0,1,9,3.68,82.45,82.45,0,0,1,7.38,4.39,44.12,44.12,0,0,1,8.4,7c.77.85.16,1.22-1,1.06a7.25,7.25,0,0,1-2-.67,9.79,9.79,0,0,1-2.33-1.49,65,65,0,0,0-18.29-11,31.82,31.82,0,0,0-12.87-1.79l-1,0-1,.14-.45.06-.17,0-.37,0-.77.16-.41.09-.1,0c-.06,0,0,0,0,0l.16.07a5.16,5.16,0,0,1,1.12.68l1.15.87,1.33,1.09c2.37,2,4.65,4,7.06,5.85a43.33,43.33,0,0,0,11.83,6.72,30.8,30.8,0,0,0,5,1.32c.85.13,1.71.19,2.57.29l1.27.13h1.3c.75,0,1.49,0,2.25,0,2.82-.14,3.73-.09,4.42.59a3.43,3.43,0,0,1,.47.46c.35.52-.79,1.06-3,1.38l-1.22.17c-.41,0-.82,0-1.24.05l-2.52,0h-.63l-.63-.06-1.28-.14a24.78,24.78,0,0,1-2.55-.35,39.21,39.21,0,0,1-9.86-3.41,67.67,67.67,0,0,1-12.52-8.85Z"/><path class="cls-1" d="M164.79,465.93a28.86,28.86,0,0,1-8.15,3.63c-1,.3-2,.65-3.06.86-3.64.81-7.29,1.22-10.89,1.68-1.61.21-3.2.48-4.75.81-2,.41-3.93,1-5.88,1.33-.6.11-.78-.56-.47-1.36a3.44,3.44,0,0,1,2.37-2,87.72,87.72,0,0,1,12.61-1.77,47.1,47.1,0,0,0,7.48-1.47,33.05,33.05,0,0,0,7.71-2.88,15.76,15.76,0,0,0,4-3,13.68,13.68,0,0,0,2.2-3,17.5,17.5,0,0,0,.72-1.73,12.43,12.43,0,0,0,.46-1.82,16.51,16.51,0,0,0-.15-5.78c-.07-.42-.17-.83-.24-1.25-.31-1.57-.27-2.1.36-2.61.15-.11.28-.25.43-.34.5-.29,1.08.28,1.49,1.5a17.82,17.82,0,0,1-.19,12l-.47,1.11-.59,1a15.29,15.29,0,0,1-1.39,2,18.12,18.12,0,0,1-3.52,3.16Z"/><path class="cls-1" d="M144.93,471c-2.61.43-5.2.78-7.77,1.17l-1.92.3-1,.17-.47.08-.33.07-.39.08-1.54.34c-.51.11-1,.17-1.55.25l-.77.12c-.2,0-.25-.08-.39-.11a2.37,2.37,0,0,1-.69-.32c-.09-.12,0-.13-.06-.19v-.14l0-.44,0-.68c0-.09.08-.27.16-.43l.24-.49a9.68,9.68,0,0,0,.73-1.37l.33-.68.25-.58.69-1.52c2.79-6.15,6.25-12.3,11.3-17.07a34.11,34.11,0,0,1,7.45-5.41,30.72,30.72,0,0,1,5.48-2.23,22.26,22.26,0,0,1,5.83-.84c1.23,0,1.08.68.15,1.44a11.19,11.19,0,0,1-1.9,1.13,10.33,10.33,0,0,1-1.26.5,10.23,10.23,0,0,1-1.42.44,28,28,0,0,0-9.79,4.64,38,38,0,0,0-7.78,8,42.18,42.18,0,0,0-3.57,6c-.52,1.06-1,2.13-1.51,3.22l-1.37,3-.18.35a3.42,3.42,0,0,1-.34.57l-.1.14c0,.08.08,0,.12,0l.29-.07.69-.14,1.25-.23c2.43-.44,4.86-.78,7.26-1.15,3.2-.48,6.38-1,9.5-1.73a43.73,43.73,0,0,0,6.88-2.19,19.5,19.5,0,0,0,5.93-3.76,11.9,11.9,0,0,0,3.58-9.5,17.92,17.92,0,0,0-.23-2.3c-.47-2.89-.7-3.81-.16-4.65a3.08,3.08,0,0,1,.35-.57c.22-.23.52-.07.87.42a6.16,6.16,0,0,1,.55,1,6.68,6.68,0,0,1,.53,1.48l.33,1.28c.11.44.16.89.23,1.33a16.64,16.64,0,0,1,.23,2.75,15.25,15.25,0,0,1-1.05,5.67,16.71,16.71,0,0,1-8,8.28c-5,2.64-10.41,3.68-15.65,4.63Z"/><path class="cls-1" d="M159.32,450.14c4.16-5.16,14.36-6.25,15.43-13.86.22-1.56-3.3-1-3.49.35-.93,6.58-11,8.09-14.79,12.73-1.33,1.65,2,1.84,2.85.78Z"/><path class="cls-1" d="M78.27,420a60.62,60.62,0,0,1,10,1.12c1.19.25,2.41.4,3.58.72a101.23,101.23,0,0,1,12.13,4c1.73.73,3.53,1.32,5.25,2a37.55,37.55,0,0,1,6.57,2.94c1.27.77-1.55,2.32-4,1.22-4.41-1.9-8.81-3.76-13.31-5.55A56,56,0,0,0,90,424.06a64.81,64.81,0,0,0-9.59-1.39,40.88,40.88,0,0,0-6,0,31.1,31.1,0,0,0-8.76,1.89,28.18,28.18,0,0,0-6,3.34c-.42.29-.81.59-1.25.89a6.12,6.12,0,0,1-2,1,1.75,1.75,0,0,1-.76,0,1,1,0,0,1-.56-.37.87.87,0,0,1-.23-.53,6.74,6.74,0,0,1,.29-.7,3.27,3.27,0,0,1,.9-.88,36.92,36.92,0,0,1,5.42-3.69A29.27,29.27,0,0,1,68,421.1a38.68,38.68,0,0,1,10.25-1.2Z"/><path class="cls-1" d="M91,443.32a31.54,31.54,0,0,1-4.76-.55c-.79-.13-1.54-.39-2.31-.57a19.18,19.18,0,0,1-2.27-.68c-1.07-.42-2.21-.66-3.23-1.17a73.7,73.7,0,0,1-10.36-5.84c-1.48-.93-3-1.86-4.44-2.72a46.37,46.37,0,0,1-5.6-3.54c-1.07-.87,1.74-2.16,3.94-.83,3.87,2.36,7.55,4.9,11.29,7.37a29.87,29.87,0,0,0,3.55,2c1.23.57,2.5,1.1,3.75,1.61a34.57,34.57,0,0,0,4.22,1.36,29,29,0,0,0,4.35.83c.9.13,1.81.09,2.72.14a14.69,14.69,0,0,0,2.73-.12c.69-.08,1.38-.09,2.07-.22l2-.43a22.86,22.86,0,0,0,4-1.21,15,15,0,0,0,1.49-.61l1.42-.75c.93-.53,1.88-1,2.77-1.58.4-.26.77-.53,1.17-.78,1.49-.92,2.07-1,2.78-.63a3.18,3.18,0,0,1,.48.28c.44.38,0,1.13-1,1.94-.79.61-1.62,1.2-2.47,1.77s-1.81,1-2.74,1.49l-1.41.71c-.47.23-1,.39-1.49.58-1,.36-2,.75-3,1.06a32.33,32.33,0,0,1-9.6,1.17Z"/><path class="cls-1" d="M118,436a34.3,34.3,0,0,0-18.84-5.19c-1.67,0-2.21,2.17-.24,2.17a30.85,30.85,0,0,1,16.86,4.72c1.09.72,3.61-.78,2.22-1.7Z"/><path class="cls-1" d="M179.43,313a6.69,6.69,0,0,1-2.39,5.85c-6.49,5.92-15.4-1.69-11.34-9.24S178.69,307,179.43,313Z"/><path class="cls-1" d="M182.47,342a6.63,6.63,0,0,1-2.39,5.85c-6.49,5.93-15.39-1.69-11.34-9.24S181.74,336,182.47,342Z"/><path class="cls-1" d="M299.4,92c2.52-2.8,6.19-4.85,9.47-6.57,10.76-5.63,22.87-8.23,34.85-9.64,1.6-.19,2.23-2.34.25-2.11-12.49,1.46-25.15,4.17-36.38,10-3.72,1.94-7.77,4.25-10.62,7.42-1.22,1.36,1.55,1.82,2.43.85Z"/><path class="cls-1" d="M436.48,166.16c1.39-13.65,2.52-31.92-5.24-43.87-.41-.63-2.66.12-2.16.89,4.87,7.5,5.44,17.55,5.66,26.23a134.76,134.76,0,0,1-.58,17.05c-.09.9,2.24.47,2.32-.3Z"/><path class="cls-1" d="M131.21,232.41c13.24,10.46,32.07,7.35,37.88-9.3.24-.69-2.59-.36-2.87.46-2.66,7.61-7.91,13.76-16.55,13.71a26.06,26.06,0,0,1-15.75-5.9c-.67-.54-3.27.59-2.71,1Z"/><path class="cls-1" d="M199.5,227.64a238.32,238.32,0,0,0-32.24-3.18C172.16,213,171.31,198,171,184c0,0,11.51-3.55,9.1-14.32-1.8-11.34-7.84-7.53-10.85-3.19-9.4,13.46-13.9-23.27-40.9-15.58-16.48,4.68-9.47,36.24-25.08,33.08-14.67-6.77-11.82,6.35-11.4,8.26,1.25,5.61,5.53,10.41,16.51,9,5.94,8.26,16.42,29.38,32.2,35.05-22.5,9.9-68.93,23.31-59.84-24.7.8-4.27-23.66-38.69-5.47-67.08,21.21-32.55,42.6-16.78,43.2-17.24,44.51-33.94,68.73,6.4,76.35,33.23,2.52,8.88,20.49-1.46,34.17,15.8C241.52,192.11,236.4,233.54,199.5,227.64Z"/><path class="cls-1" d="M72.24,153.83A43.37,43.37,0,0,0,69.87,167a58.45,58.45,0,0,0,1.26,13.43,87.37,87.37,0,0,0,3.81,13.06c1.58,4.28,3.44,8.43,5.31,12.67.47,1.07.92,2.14,1.32,3.32a9.65,9.65,0,0,1,.27.94l.1.54a4.38,4.38,0,0,1,0,.73v.18l0,.11,0,.21-.06.42-.14.83c-.16,1.12-.41,2.24-.5,3.36s-.23,2.25-.32,3.37a31,31,0,0,0,1.63,13.1,16.17,16.17,0,0,0,8.56,9.22c3.94,1.87,8.5,2.33,13,2.3a77.31,77.31,0,0,0,19.52-3.39c3.2-.93,6.35-2,9.47-3.17l2.33-.91,1.83-.74.56-.23c.09,0,0,0,0-.06l-.14-.06-.28-.13-.13-.05-.06,0s-.06,0,0,0l-.12-.07-1-.56c-.66-.39-1.36-.73-2-1.17a40.86,40.86,0,0,1-3.67-2.71,54.35,54.35,0,0,1-6.46-6.32,117.53,117.53,0,0,1-10.55-14.47c-1.6-2.49-3.15-5-4.77-7.46l-.52-.77-.1-.15s-.12,0-.17,0l-.88.08a10.93,10.93,0,0,1-1.15.06,22.62,22.62,0,0,1-4.63-.3,14.35,14.35,0,0,1-4.47-1.6,11,11,0,0,1-3.56-3.23,13.57,13.57,0,0,1-2-4.34,20.34,20.34,0,0,1-.65-4.61,9,9,0,0,1,1.06-4.78,4.9,4.9,0,0,1,2-1.84,6.21,6.21,0,0,1,2.52-.63,13.52,13.52,0,0,1,4.67.82,22,22,0,0,1,2.14.82l.52.23.18.08s.08,0,.14,0l1,.14a6.36,6.36,0,0,0,3.77-.75,8,8,0,0,0,2.73-2.85,34.59,34.59,0,0,0,3.11-8c.81-2.83,1.56-5.71,2.56-8.54a36.29,36.29,0,0,1,1.74-4.19A20.94,20.94,0,0,1,121,155a14.05,14.05,0,0,1,3.45-3.16,14.76,14.76,0,0,1,2.07-1.12,17.82,17.82,0,0,1,2.22-.71,25,25,0,0,1,9.07-.81,21.23,21.23,0,0,1,7.78,2.35,29.51,29.51,0,0,1,6.52,4.76,66.33,66.33,0,0,1,5.4,5.87,38.69,38.69,0,0,0,5.27,5.6,3.39,3.39,0,0,0,3,.84,5.81,5.81,0,0,0,2.59-2.21,17.65,17.65,0,0,1,2.7-3.08,7.18,7.18,0,0,1,3.93-1.87,5.45,5.45,0,0,1,1.21.1,3.83,3.83,0,0,1,1.11.49,3.63,3.63,0,0,1,.9.74,4.44,4.44,0,0,1,.7.88,13,13,0,0,1,1.57,3.86l.4,2,.31,2c0,.7,0,1.4,0,2.09l-.16,1-.08.52c0,.17-.1.34-.15.51a12.12,12.12,0,0,1-3.68,5.71,17.11,17.11,0,0,1-2.75,2,17.54,17.54,0,0,1-2.51,1.21l.19,7.84q.11,4.23.05,8.48a82.29,82.29,0,0,1-1.76,17c-.35,1.39-.71,2.78-1.18,4.14l-.17.52c-.06.19-.07.19-.1.29l-.19.47-.09.24c0,.07-.11.2,0,.16l.42,0,3.74.17c1.41.08,2.82.17,4.23.28,5.63.42,11.24,1.09,16.81,1.92,8.27,1.31,7,1.68,0,1.17-3.53-.23-8.53-.62-14.56-.93-3-.15-6.28-.27-9.76-.35l-2.38-.06-1.31,0h-.33c-.09,0-.28,0-.18-.1l.22-.57.87-2.3.42-1.11.2-.64c.27-.85.54-1.71.75-2.6s.43-1.8.62-2.72A87.4,87.4,0,0,0,169.78,200c0-2.67,0-5.33-.05-8l-.22-9.11,1-.33.86-.32.91-.42a17.7,17.7,0,0,0,1.64-.93,12.49,12.49,0,0,0,2.79-2.41,9,9,0,0,0,2.24-6.57c0-.61-.17-1.25-.24-1.87l-.38-1.94a10.63,10.63,0,0,0-1.31-3.33,3.28,3.28,0,0,0-1-1,1.77,1.77,0,0,0-1.1-.17,5.54,5.54,0,0,0-2.77,1.58l-.65.65-.6.71-.57.76-.71.91a7.38,7.38,0,0,1-.82.87,5.32,5.32,0,0,1-1,.8,5,5,0,0,1-2.67.93,5.41,5.41,0,0,1-2.67-.72,6.61,6.61,0,0,1-1-.66,8.26,8.26,0,0,1-.89-.73,30.93,30.93,0,0,1-3-3.14c-1.81-2.13-3.51-4.24-5.36-6.19a32.69,32.69,0,0,0-6-5.09,19.81,19.81,0,0,0-7.15-2.87,21.21,21.21,0,0,0-7.74.08,24.46,24.46,0,0,0-3.75,1,11.14,11.14,0,0,0-3.17,1.9,13.08,13.08,0,0,0-2.5,2.83,21.4,21.4,0,0,0-1.9,3.42c-2.21,4.86-3.21,10.31-5.1,15.66a27.37,27.37,0,0,1-1.77,4,11,11,0,0,1-3,3.5,7.89,7.89,0,0,1-4.52,1.47c-.39,0-.78,0-1.16,0l-1.14-.16c-.1,0-.23,0-.38-.07l-.37-.17-.46-.2c-.3-.13-.61-.27-.92-.39a12.41,12.41,0,0,0-5.49-1.11,3.19,3.19,0,0,0-2.09,1,4.41,4.41,0,0,0-1,2.26,15.21,15.21,0,0,0,.36,5.78,12.73,12.73,0,0,0,1,2.72,10.55,10.55,0,0,0,1.62,2.33,10.31,10.31,0,0,0,4.93,2.76,20,20,0,0,0,6,.46l1.89-.18.33,0h.16c.06,0,.12,0,.14,0l.38.55.61.89c.62.88,1.17,1.77,1.76,2.66l3.41,5.35c4.55,7.06,9.45,14,15.74,19.49.81.64,1.58,1.34,2.42,1.94s1.68,1.2,2.56,1.72l1.34.76.67.37.17.1,0,0,.11.06.16.07.61.26,2.43,1.05,1.21.53.3.13.16.07.07,0-.07,0-.61.26L140,237.65l-1.22.52-1.11.46c-1,.41-2,.79-3,1.18-2,.76-4,1.47-6,2.15-8.86,2.88-18.1,5.15-27.61,4.81A35.41,35.41,0,0,1,94,245.72a23.71,23.71,0,0,1-6.61-2.94,19.56,19.56,0,0,1-5.07-5.23,22.43,22.43,0,0,1-1.63-3.25c-.21-.57-.46-1.12-.63-1.7l-.46-1.74a40.08,40.08,0,0,1-.49-14.14c.08-1.18.34-2.32.5-3.49l.28-1.73a3.81,3.81,0,0,0-.24-1.29c-.71-2.08-1.73-4.21-2.65-6.32-3.79-8.48-7.13-17.32-8.56-26.63a54,54,0,0,1,0-17.31,43.32,43.32,0,0,1,6.35-16.11,60.26,60.26,0,0,1,11.29-13.09,30.81,30.81,0,0,1,15.64-7.37,26,26,0,0,1,9,.39,29.34,29.34,0,0,1,4.31,1.31c.7.27,1.38.57,2.06.89l.9.42a2.18,2.18,0,0,0,.27.11c.1,0,.16-.08.25-.12l2-1.48c.74-.51,1.45-1.08,2.23-1.55l2.29-1.46,1.15-.73,1.19-.65,2.39-1.32c.8-.42,1.64-.78,2.46-1.17,1.62-.82,3.35-1.4,5.05-2.06a45.3,45.3,0,0,1,10.69-2.23,34.42,34.42,0,0,1,10.88,1.08,39.33,39.33,0,0,1,18.28,11.43,72.73,72.73,0,0,1,12,17.85,98.67,98.67,0,0,1,3.93,9.25c.59,1.56,1.11,3.15,1.62,4.73l.72,2.38a4.2,4.2,0,0,0,1.1,1.81,7.8,7.8,0,0,0,4.18,1.62c1.58.25,3.22.35,4.87.49a45.44,45.44,0,0,1,9.89,1.65,27.43,27.43,0,0,1,8.95,4.66,29.21,29.21,0,0,1,6.77,7.5,31.15,31.15,0,0,1,3.73,9.38,41.19,41.19,0,0,1,1,10,37.86,37.86,0,0,1-4.24,17.12,29.75,29.75,0,0,1-4.55,6.23L226,222.14c-.42.38-.86.71-1.27,1.06a25.19,25.19,0,0,1-11.5,5.18,27.26,27.26,0,0,1-6.25.45,16.91,16.91,0,0,1-2.27-.19c-.68-.09-1.3-.19-1.88-.29-1-.26-2.42-.56-3-.76s-.32-.26.47-.26q.58,0,1.62.06c.35,0,.72.05,1.14.06H206l1.74-.1c1.24,0,2.57-.28,4-.47a27.21,27.21,0,0,0,9.44-3.61,26.24,26.24,0,0,0,10.38-13.2,38.56,38.56,0,0,0,2.16-17.17,36,36,0,0,0-1.87-8.54,24.41,24.41,0,0,0-4.14-7.56,28.18,28.18,0,0,0-6.45-5.84,25.83,25.83,0,0,0-8-3.39,54.64,54.64,0,0,0-8.91-1.21,39.29,39.29,0,0,1-4.76-.58,11.27,11.27,0,0,1-2.51-.77,6.64,6.64,0,0,1-2.35-1.74,6.79,6.79,0,0,1-1.31-2.58l-.66-2.19c-.47-1.45-.94-2.9-1.47-4.33-1.06-2.86-2.22-5.7-3.55-8.45a86.72,86.72,0,0,0-4.38-8,73.61,73.61,0,0,0-5.32-7.42,54.75,54.75,0,0,0-6.4-6.43,38.1,38.1,0,0,0-7.53-4.89,31.06,31.06,0,0,0-11.31-3.06A35.43,35.43,0,0,0,141,117.08a49.82,49.82,0,0,0-11.13,4.52l-2.65,1.47-2.56,1.63-1.29.82-1.23.89-2.8,2a1.89,1.89,0,0,1-1.7.14l-.44-.19-.32-.16-.44-.2c-.57-.27-1.13-.52-1.7-.75a27,27,0,0,0-3.49-1.17,23.91,23.91,0,0,0-7.24-.77,26.31,26.31,0,0,0-13.68,4.89,47.82,47.82,0,0,0-10.69,10.52A46.23,46.23,0,0,0,72.3,153.8Z"/><path class="cls-1" d="M160.43,163.58c-9.65.49-15.53,7.41-15.6,16.93,0,5.23,1.69,15.92,8.67,16,1.68,0,2.19-2.17.23-2.2-4.79-.09-6-10.89-6-14,0-7.86,4.11-14.1,12.42-14.52,1.67-.09,2.21-2.31.24-2.21Z"/><path class="cls-1" d="M136.07,174.81c-.69.72-1.15,1.11-1.41.71-.14-.23-.44-.16-.65-.25a17.6,17.6,0,0,0-4.59-1.27,5.71,5.71,0,0,0-1-.06,8.46,8.46,0,0,0-1,0,11.4,11.4,0,0,0-1.66.19l-.82.16c-.26.06-.52.16-.78.23s-.55.13-.82.21-.53.19-.79.31a5.28,5.28,0,0,0-.75.38l-.7.48c-.23.17-.48.3-.69.49l-.64.58c-.21.19-.45.36-.69.54s-.42.42-.62.64a6.61,6.61,0,0,0-.37.55.28.28,0,0,1-.24.15,2.65,2.65,0,0,1-1.58-1c-.39-.44-.58-.8-.42-1l1.13-1.28c.4-.4.85-.77,1.28-1.16.17-.15.33-.32.5-.5s.36-.29.56-.42a10,10,0,0,1,2-1,18.14,18.14,0,0,1,3.08-1c.61-.09,1.21-.24,1.82-.32s1.23-.13,1.84-.12l1.15,0c.6,0,1.19.14,1.78.22s1.17.22,1.75.38a23.28,23.28,0,0,1,3.5,1.19.79.79,0,0,1,.25.15C136.7,173.34,136.69,173.54,136.07,174.81Z"/><path class="cls-1" d="M145.86,213.39c1.1-1.29,1.48-1.46,1.74-1.37.87.25,1.71.44,2.52.59a8.1,8.1,0,0,0,2,.29,4.7,4.7,0,0,0,3-1.39,4.49,4.49,0,0,0,.68-.81,4.83,4.83,0,0,0,.43-.95c0-.05,0-.13.08-.15a2.59,2.59,0,0,1,1.37.61c.1.08.27.21.26.24-.13.29.58,1,.36,1.33a4.56,4.56,0,0,0-.55.93,10.92,10.92,0,0,1-.59,1,3.64,3.64,0,0,1-.7.6c-.34.21-.76.29-1.1.46a13.62,13.62,0,0,1-1.88.66,8.77,8.77,0,0,1-3.25.11,11.54,11.54,0,0,1-4.13-1.44A2.52,2.52,0,0,1,145.86,213.39Z"/></g></svg>