<svg id="Layer_1" data-name="Layer 1" xmlns="http://www.w3.org/2000/svg" width="520" height="520" viewBox="0 0 520 520"><defs><style>.cls-1{fill:#221f1f;}.cls-2{fill:none;stroke:#221f1f;stroke-linecap:round;stroke-linejoin:round;stroke-width:1.8px;}</style></defs><title>Notioly v2</title><g id="_66.Stairs" data-name="66.Stairs"><path class="cls-1" d="M212.19,124.69a8.45,8.45,0,0,1-.55-3.21,7.79,7.79,0,0,1,.7-3.18,7.1,7.1,0,0,1,1.27-2,3.74,3.74,0,0,1,.9-.75,4.46,4.46,0,0,1,1-.46,6.3,6.3,0,0,1,2.08-.29,8.64,8.64,0,0,1,3.87,1,12.59,12.59,0,0,1,2.85,2,9.59,9.59,0,0,1,2.62,3.47c.18.41-.29.58-.88.5a2.69,2.69,0,0,1-1.73-1,9.91,9.91,0,0,0-6-4.16,4.27,4.27,0,0,0-2.19.14,2.83,2.83,0,0,0-.86.48,2.23,2.23,0,0,0-.36.38c-.11.15-.25.28-.35.44a6.29,6.29,0,0,0-1,4.88,6.71,6.71,0,0,0,1.32,2.91,6.3,6.3,0,0,0,1.88,1.52,5.58,5.58,0,0,0,2.36.53,8.23,8.23,0,0,1,4.34.78,5.91,5.91,0,0,1,.86.54c1,.8,1.08,1.24.85,1.73a1.68,1.68,0,0,1-.16.33c-.25.33-.76.14-1.35-.29a5.67,5.67,0,0,0-2.81-1.19,13.18,13.18,0,0,0-1.73-.07,7.65,7.65,0,0,1-1.12-.08,11.06,11.06,0,0,1-1.14-.26,7.74,7.74,0,0,1-4.75-4.65Z"/><path class="cls-1" d="M226.53,119.9c7.79,0-.15-17.65,6.11-20.63,4.66-2.22,22.24,4.07,36.5-5.37C280.9,86.11,283.8,69.69,275,62c-8.31-7.25-20.52-5.68-29.6-.89-8,4.24-20,19.56-21,20.58-3.75,3.55-10.42-4.82-20-.16-11.23,5.48-12.77,21.64-4.08,29.29,6.57,5.79,15.36,4,18.18,4.31C220.12,115.34,224.76,119.9,226.53,119.9Z"/><path class="cls-1" d="M230.48,72.89c2.11-2.3,4.27-4.55,6.56-6.69a41.55,41.55,0,0,1,7.56-5.81,36.52,36.52,0,0,1,8.9-3.4,30.15,30.15,0,0,1,9.52-.81,21.29,21.29,0,0,1,12.85,5.34,16.13,16.13,0,0,1,3.67,5.14c.21.48.36,1,.54,1.48l.26.75.17.76c.1.52.22,1,.31,1.54l.14,1.56a10.16,10.16,0,0,1,0,1.56c0,.52,0,1-.06,1.55a24.39,24.39,0,0,1-.5,3.06l-.37,1.5-.5,1.46a26.23,26.23,0,0,1-1.22,2.83,25.76,25.76,0,0,1-8,9.21,30.73,30.73,0,0,1-11.09,4.92A47.36,47.36,0,0,1,248.6,100c-3.56,0-7.11-.29-10.58-.46a23.89,23.89,0,0,0-3.28,0,5.72,5.72,0,0,0-1.48.28,3,3,0,0,0-1.12.71,5.33,5.33,0,0,0-1.15,2.67,19,19,0,0,0-.22,3.23c0,2.21.22,4.45.23,6.75a17.58,17.58,0,0,1-.27,3.51,7.33,7.33,0,0,1-.6,1.78,3.76,3.76,0,0,1-1.36,1.5,3,3,0,0,1-1.74.45c-.37,0-.52-.1-.5-.2s.85-.35,1.66-1.07,1.08-2.2,1-4.14-.34-4.26-.45-6.9a33,33,0,0,1,0-3.58,10.7,10.7,0,0,1,.84-3.79,5.08,5.08,0,0,1,3.3-2.92,13.34,13.34,0,0,1,3.79-.32c2.38.05,4.65.27,6.93.4s4.54.21,6.79.15a38,38,0,0,0,13.1-2.46,26.11,26.11,0,0,0,10.69-7.7,22.26,22.26,0,0,0,5-15,15.27,15.27,0,0,0-2.51-7.58,16.2,16.2,0,0,0-6.11-5.15,20.65,20.65,0,0,0-8.65-2.18,30.58,30.58,0,0,0-9,1.08,34.8,34.8,0,0,0-8.38,3.53,46.65,46.65,0,0,0-7.1,5.82c-2.74,2.65-5.34,5.45-7.86,8.32-1.27,1.44-2.5,2.9-3.75,4.36-.32.37-.61.72-1,1.12a3.8,3.8,0,0,1-1.45.89,5.9,5.9,0,0,1-3.18,0c-1.48-.37-2.83-.9-4.2-1.32a20,20,0,0,0-4.13-.92,13,13,0,0,0-8,1.77,16.07,16.07,0,0,0-6,5.8,18.17,18.17,0,0,0-2.49,8,20.74,20.74,0,0,0,0,3.25,18.71,18.71,0,0,0,.62,3.17,15.38,15.38,0,0,0,2.9,5.66,7,7,0,0,0,1.06,1.18,10.82,10.82,0,0,0,1.16,1.08,14.5,14.5,0,0,0,2.65,1.72,18.43,18.43,0,0,0,6.08,1.8,37,37,0,0,0,5.69.16c.9,0,1.74-.07,2.57,0a3.17,3.17,0,0,1,.69.08,2.81,2.81,0,0,1,.68.24,8.19,8.19,0,0,1,1,.55,30.78,30.78,0,0,1,2.55,1.92c1.3,1.07,2,1.7,2.55,2.26a4,4,0,0,0,.86.63c.17.12.14.21-.2.25a3.16,3.16,0,0,1-1.51-.37,47.47,47.47,0,0,1-5.18-3.22,4.28,4.28,0,0,0-1.06-.51,8,8,0,0,0-1.26,0l-3,.12a29.44,29.44,0,0,1-6.25-.46,18.57,18.57,0,0,1-6.05-2.29,16.38,16.38,0,0,1-4.86-4.45,20,20,0,0,1,1.57-24.7,14.85,14.85,0,0,1,1.84-1.71,12.72,12.72,0,0,1,2.07-1.43,15,15,0,0,1,9.74-2.22,24.72,24.72,0,0,1,4.8,1.13,30.29,30.29,0,0,0,4.28,1.26,2.85,2.85,0,0,0,1.61-.14,2.05,2.05,0,0,0,.6-.42c.18-.19.46-.52.7-.8,2-2.37,4.06-4.77,6.17-7.1Z"/><path class="cls-1" d="M254.78,150.34a39.21,39.21,0,0,0,8.27-9.28,33.77,33.77,0,0,0,2.05-4,37.47,37.47,0,0,0,3-15.7,49.15,49.15,0,0,0-.67-7.17c-.54-3-1.32-6-2-9-.4-1.89,2-.06,2.9,3.5a50.3,50.3,0,0,1,1.1,19.3,55.49,55.49,0,0,1-1.25,5.82,34.2,34.2,0,0,1-2.15,5.63,36.19,36.19,0,0,1-7.93,10.42c-1,.92-2,1.8-3,2.66a23.45,23.45,0,0,0-2.78,2.64l-.43.61a3.52,3.52,0,0,0-.33.54,7,7,0,0,0-.46,1.29,20.59,20.59,0,0,0-.46,2.88c-.1,1-.16,2-.23,3a12.52,12.52,0,0,1-.53,3.08,4.86,4.86,0,0,1-1.38,2.19,3.77,3.77,0,0,1-2.55.83,10,10,0,0,1-4.61-1.63,18,18,0,0,1-1.73-1.16c-2-1.6-2.49-2.34-2.53-3.06a2,2,0,0,1,0-.49c.12-.45,1,.09,2.43,1.19a24.81,24.81,0,0,0,3.29,2.2,7.46,7.46,0,0,0,3.39,1.09,1.78,1.78,0,0,0,1.18-.42,3.11,3.11,0,0,0,.76-1.26,16,16,0,0,0,.53-3.93c.07-1.07.15-2.17.31-3.3a10.82,10.82,0,0,1,1-3.51,2.92,2.92,0,0,1,.29-.46l.16-.23c.14-.19-.11.17,0,0a5.07,5.07,0,0,1,.6-.83,14.79,14.79,0,0,1,1.23-1.26c.83-.76,1.65-1.45,2.45-2.15Z"/><path class="cls-1" d="M159.24,211a65,65,0,0,1,6.13-11.86,44.85,44.85,0,0,1,4.09-5.33c.72-.86,1.54-1.64,2.32-2.44s1.67-1.53,2.53-2.22c2.49-2,5-4,7.59-5.94a159.27,159.27,0,0,1,14.18-9.36c2.45-1.43,5-2.77,7.55-4a46.92,46.92,0,0,1,8.05-2.94,25.15,25.15,0,0,1,3.8-.66,22.79,22.79,0,0,1,3.88.1,14.38,14.38,0,0,1,7.23,2.78,16.94,16.94,0,0,1,5.51,8.16,36.29,36.29,0,0,1,1.72,9.57c.11,2-.4,1.76-1,.13s-1.34-4.62-2.33-8a21.43,21.43,0,0,0-1.71-4.26,14.9,14.9,0,0,0-2.7-3.52,12.62,12.62,0,0,0-3.75-2.24,15.53,15.53,0,0,0-4.42-.85,22.53,22.53,0,0,0-9.1,1.57,67.88,67.88,0,0,0-8.82,3.94,143.79,143.79,0,0,0-19.9,13.19c-1.74,1.34-3.47,2.7-5.15,4.1a41.36,41.36,0,0,0-4.6,4.57,53,53,0,0,0-7.07,10.94,79,79,0,0,0-5.55,15.15,90.06,90.06,0,0,0-2.27,12,51.45,51.45,0,0,0-.18,12.14,13,13,0,0,0,.49,2.22,7.4,7.4,0,0,0,.43,1c.16.35.34.69.53,1a17.33,17.33,0,0,0,2.72,3.62,13.49,13.49,0,0,0,5.66,3.5l1.07.34,1.1.21a12.79,12.79,0,0,0,2,.22,14.51,14.51,0,0,0,2,0,11,11,0,0,0,1.7-.13l1.43-.15c.85-.17,1.55-.28,2.13-.36a7.83,7.83,0,0,1,2.44-.18,4.17,4.17,0,0,1,.81.11c.3.11,0,.39-.9.8-.44.2-1,.45-1.7.7s-1.55.42-2.5.65a21.28,21.28,0,0,1-8.88-.07,16.27,16.27,0,0,1-7.94-4.7,18,18,0,0,1-2.74-3.81c-.2-.34-.37-.69-.54-1.05a9.73,9.73,0,0,1-.48-1.15,16.48,16.48,0,0,1-.55-2.37,46.67,46.67,0,0,1-.2-9.14A89.79,89.79,0,0,1,159.19,211Z"/><path class="cls-1" d="M223.41,183.16a21.4,21.4,0,0,0-.89-2.85c-.14-.33-.32-.65-.48-1a12.65,12.65,0,0,0-1.95-3.24,5.87,5.87,0,0,0-1.26-1.08c-.29-.18-.62-.29-.92-.46a4.4,4.4,0,0,1-.9-.49c-.18-.13,0-.59.3-1a1.32,1.32,0,0,1,1.39-.46,8.1,8.1,0,0,1,3.69,3.6c.24.44.48.88.76,1.3s.5.88.72,1.32a23.51,23.51,0,0,1,1.11,3.07c.19.63.34,1.28.49,1.92.22,1,.36,2,.54,2.95.12.76.33,1.49.45,2.26a4.5,4.5,0,0,1,.08.51c0,.65-.09.85-.59,1l-.34.08a.78.78,0,0,1-.82-.64c-.34-1.26-.51-2.57-.77-3.89-.19-1-.38-2-.65-2.93Z"/><path class="cls-1" d="M237.56,217.37a88.25,88.25,0,0,1-9.5,15.11,69.85,69.85,0,0,1-12.57,12.68,42.17,42.17,0,0,1-5.52,3.6c-.95.55-2,1-3,1.45a27.36,27.36,0,0,1-3.17,1,22.33,22.33,0,0,1-2.91.57,14.13,14.13,0,0,1-3,0,12.67,12.67,0,0,1-5.66-2.12,15.16,15.16,0,0,1-4.15-4.3,22.85,22.85,0,0,1-2.5-5.32A35.34,35.34,0,0,1,184,228.66a56.4,56.4,0,0,1,1.48-11.38,74.54,74.54,0,0,1,2.94-9.72,99.3,99.3,0,0,1,4-9.28A128.36,128.36,0,0,1,198.77,187c1.21-1.78,2.35-3.61,3.64-5.34l1.91-2.6,2-2.51c1.69-2.09,1.84-1.5.84.58a110.32,110.32,0,0,1-5.82,9.7A119,119,0,0,0,194.8,198a97.28,97.28,0,0,0-5.18,11.85,70.94,70.94,0,0,0-3.22,12.49,45.9,45.9,0,0,0-.22,12.82,25.13,25.13,0,0,0,2.2,7.33,14.4,14.4,0,0,0,4.84,5.77,10.66,10.66,0,0,0,7.14,1.78,22.5,22.5,0,0,0,7.44-2.23,49.68,49.68,0,0,0,13.78-10.58,84.48,84.48,0,0,0,10.65-14c3.74-6.16,6.9-12.81,8.36-19.85a20.71,20.71,0,0,0,.23-8,8.52,8.52,0,0,0-4.47-6,7.74,7.74,0,0,0-7.4,0,7.6,7.6,0,0,0-2.82,2.53,5,5,0,0,0-.56,3.59c.37,2,1.46,3.79,2.34,5.76a9.63,9.63,0,0,1,.57,1.59,3.44,3.44,0,0,1,0,1.91,1.28,1.28,0,0,1-.11.24l-.08.16-.08.27-.24.82a13.68,13.68,0,0,1-.66,1.52,38.5,38.5,0,0,1-8.1,9.91c-.69.64-1.4,1.24-2.1,1.86s-1.44,1.19-2.21,1.75a33.09,33.09,0,0,1-6.36,3.93,9.88,9.88,0,0,1-1.9.68,4.43,4.43,0,0,1-1.36.2,7,7,0,0,1-1,0c-.36-.08.11-.43,1.21-.94s2.79-1.45,4.86-2.83a60.23,60.23,0,0,0,8.73-7.06,45.83,45.83,0,0,0,3.82-4.18,21.83,21.83,0,0,0,3-4.64l.28-.61.18-.6.09-.3.05-.16a1.69,1.69,0,0,1,.15-.43l.08-.15s0,0,0-.06,0-.07,0-.13a4.7,4.7,0,0,0-.59-2.15,28.87,28.87,0,0,1-2.32-5.73,7.24,7.24,0,0,1,0-3.55,6.88,6.88,0,0,1,1.87-3.08,12,12,0,0,1,1.31-1.09l.69-.46.77-.4a8.8,8.8,0,0,1,3.33-.91,10.39,10.39,0,0,1,10.85,8.64,17.69,17.69,0,0,1,.28,2.39c0,.79,0,1.58-.05,2.36a38.22,38.22,0,0,1-1.88,9,68.31,68.31,0,0,1-3.43,8.39Z"/><path class="cls-1" d="M232.48,212.85a7.91,7.91,0,0,0-1.42-1.47,6,6,0,0,0-.63-.39,6.77,6.77,0,0,0-2.4-1.12,3.9,3.9,0,0,0-1.18-.05l-.75.14a1.75,1.75,0,0,1-.76,0c-.36-.05-.41-1.88.37-2.05a6,6,0,0,1,3.83.57,22.33,22.33,0,0,1,2.08,1,9.83,9.83,0,0,1,1.87,1.65,11.76,11.76,0,0,1,.93,1.18,20.28,20.28,0,0,1,1.16,1.94c.27.51.62,1,.88,1.52a1.89,1.89,0,0,1,.17.35c.16.46.07.65-.39.85l-.31.14a.79.79,0,0,1-.91-.25c-.55-.77-.93-1.58-1.41-2.37a12,12,0,0,0-1.16-1.68Z"/><path class="cls-1" d="M262.39,193.83c-1.29,1-3.52,2.94-3.32,4.75.22,2.09,3.37.95,4.42.31l-.89-.87c-1,.61-3.35,2.14-2.68,3.56.92,2,4.11.37,5.2-.51.84-.68-.43-1.27-1.07-.76a5.13,5.13,0,0,1-1,.63c-.67.32-2.12.48-1.36-.58a6.86,6.86,0,0,1,1.93-1.58c.81-.5-.24-1.26-.89-.87-.39.24-1.12.72-1.58.64-.94-.16-.3-1.12.06-1.66a9.43,9.43,0,0,1,2.21-2.29c.86-.65-.42-1.25-1.07-.77Z"/><path class="cls-1" d="M275,196.74a34.44,34.44,0,0,1-1.9,10.66c-.23.66-.42,1.18-.59,1.79L272,211c-1.25,4.32-2.5,8.68-4.11,12.93a50.76,50.76,0,0,1-2.39,5.59c-.14.29-.32.58-.47.87a9.22,9.22,0,0,1-.54.89,9,9,0,0,1-1.47,1.48,25.33,25.33,0,0,1-3.19,2.17c-.59.37-.89,0-.61-.81a6.73,6.73,0,0,1,2.17-2.69,11.5,11.5,0,0,0,1.3-1.14c.07-.1.17-.19.22-.28l.09-.12.12-.19.46-.79a36.29,36.29,0,0,0,1.65-3.37c1-2.33,1.88-4.76,2.75-7.22,1-2.94,1.74-6.11,2.65-9.22.24-.85.57-1.75.84-2.53s.5-1.64.71-2.48a34,34,0,0,0,.89-5.1,15.52,15.52,0,0,0-.49-6.17,5,5,0,0,0-2.83-3.21,5.63,5.63,0,0,0-2.21-.39,7.41,7.41,0,0,0-1.15.08,3.8,3.8,0,0,0-1.07.25,11.26,11.26,0,0,0-3,1.85,12,12,0,0,0-1.26,1.21,1.83,1.83,0,0,0-.13.16l-.06.07-.11.16a1.47,1.47,0,0,0-.15.31v.05a.25.25,0,0,0,.31.35,3.78,3.78,0,0,0,.42-.1l.17,0,.35-.09a1.59,1.59,0,0,1,1.1.08,1.47,1.47,0,0,1,.39.22c.14.16.06.36-.21.62a3.45,3.45,0,0,1-.58.45l-.42.25a7.14,7.14,0,0,1-.83.35,3,3,0,0,1-2.18.16,1.39,1.39,0,0,1-.73-.74,2.22,2.22,0,0,1-.13-1,5.44,5.44,0,0,1,.31-1,8.55,8.55,0,0,1,.63-1c.1-.14.3-.36.38-.45s.17-.19.25-.28.34-.36.52-.52a15.41,15.41,0,0,1,2.3-1.79,9.39,9.39,0,0,1,2.89-1.3,10.46,10.46,0,0,1,3.16-.11,6.49,6.49,0,0,1,5.11,3.57,12.79,12.79,0,0,1,1.21,5.7Z"/><path class="cls-1" d="M265.44,213.31a7.58,7.58,0,0,0,1.77-.27,5.56,5.56,0,0,0,.61-.25,6.82,6.82,0,0,0,2.08-1.06,3,3,0,0,0,.69-.77c.1-.19.18-.4.28-.58a1.49,1.49,0,0,1,.38-.53c.11-.09.56.08.93.38s.67.75.53,1.07a5.2,5.2,0,0,1-2.56,2.37c-.63.26-1.19.66-1.82.9a9.39,9.39,0,0,1-2.14.51,9.91,9.91,0,0,1-1.33.09,15.13,15.13,0,0,1-2-.15,6.46,6.46,0,0,0-.78-.07c-.26,0-.53-.07-.8-.11a1.37,1.37,0,0,1-.35-.08c-.42-.16-.49-.34-.33-.81,0-.11.07-.22.11-.33a.86.86,0,0,1,.72-.56c.81,0,1.51.16,2.29.21a10.11,10.11,0,0,0,1.74,0Z"/><path class="cls-1" d="M261.52,179.05a17.26,17.26,0,0,0-1.11-1.76c-.14-.21-.34-.36-.49-.56a11.51,11.51,0,0,0-1.8-1.95,3.16,3.16,0,0,0-1-.56,6.5,6.5,0,0,1-1.29-.42c-.12-.09-.09-.57.1-1s.61-.85,1-.75a5.71,5.71,0,0,1,3.07,2.11c.43.57,1,1,1.44,1.56a18.79,18.79,0,0,1,1.33,1.88c.24.4.48.81.71,1.22.34.62.63,1.27.94,1.91s.56,1,.78,1.52c0,.12.1.24.14.37.11.51,0,.72-.52.81l-.34.05a.94.94,0,0,1-.84-.35c-.41-.67-.78-1.44-1.19-2.25a17.52,17.52,0,0,0-1-1.79Z"/><path class="cls-1" d="M295.58,365.32c-9.68,5.06-29-1.58-29-1.58,9.3-14.15,15.55-53.47,15.55-53.47a152.53,152.53,0,0,1-37.81-18c0,20.73-27.27,109.68-27.27,109.68s-25.89-8.31-29.47-11.26,16.21-33.9,21.95-47.53c0,0-3-68.67,1.11-89.27,6.9,3.3,29.31,2.3,43.46-7.88a28.17,28.17,0,0,0,1.69,8.57c4.94,10.37,47.28,40,49.31,50.85C307.89,320.27,295.58,365.32,295.58,365.32Z"/><path class="cls-1" d="M209.69,301c0,7.64.16,15.29.33,22.93l.32,11.47.2,5.73.05,1.43,0,.45v.33l-.13.31-.33.75c-.39.89-.8,1.77-1.22,2.64-3.38,6.93-7.16,13.59-10.8,20.32-1.83,3.35-3.64,6.72-5.35,10.12-.85,1.7-1.69,3.4-2.46,5.13a37.54,37.54,0,0,0-2,5.21,7.81,7.81,0,0,0-.24,1.42,1.83,1.83,0,0,0,0,.55.28.28,0,0,0,.09.18l.65.42c.23.15.52.28.78.42.52.29,1.09.54,1.65.8,1.12.52,2.28,1,3.44,1.45,2.32.94,4.68,1.8,7,2.66,4.73,1.7,9.49,3.31,14.26,4.88l.23.08.11,0,0-.11.34-1.09,1-3.43,2.06-6.85,4-13.73c2.66-9.16,5.29-18.33,7.77-27.54s4.94-18.43,7.09-27.72c.57-2.31,1.06-4.64,1.57-7l.76-3.49.67-3.5.67-3.51.51-3.52c.15-1.17.39-2.34.43-3.51l.33-4.74,2.27,1.55,1.66,1.06a156.23,156.23,0,0,0,23.21,11.89c2,.81,4,1.61,6.09,2.33,1,.39,2.05.73,3.08,1.07l1.7.56a11,11,0,0,1,1.15.41l-.2,1.23-.58,3.36-.59,3.21q-.61,3.21-1.27,6.4c-1.14,5.46-2.37,10.91-3.83,16.31a136.83,136.83,0,0,1-5.24,16c-.49,1.31-1.13,2.58-1.73,3.86l-.46.95-.53.93-.66,1.12-.05.09s.06,0,.08,0l.2.06.5.16c.66.19,1.32.39,2,.56,1.33.37,2.68.69,4,1a66.51,66.51,0,0,0,8.16,1.27,32.1,32.1,0,0,0,8.14-.21,19.51,19.51,0,0,0,3.51-.9c.73-.24,1.08-.3,1.08-.2s-1.37,1.27-4.28,2.07a34,34,0,0,1-12.29.52,62.31,62.31,0,0,1-8.16-1.45c-.72-.17-1.44-.35-2.18-.56-.43-.1-2.2-.64-3.55-1.1l-.14,0c-.05,0-.1,0-.05-.08l.13-.24.27-.49.56-1c.28-.49.57-1,.85-1.48l.57-1c.17-.35.34-.7.5-1,3.31-6.85,5.47-14.32,7.45-21.77s3.56-15.07,5-22.68l.51-2.86.12-.72s0,0,0,0l-2.79-.93-2.76-1q-5.52-2-10.87-4.52t-10.51-5.32c-1.71-.95-3.42-1.92-5.1-2.95-.84-.5-1.68-1-2.51-1.56l-.69-.45-.12-.08s0,.08,0,.12l0,.54a27.54,27.54,0,0,1-.25,2.75l-.8,5.41c-.69,3.56-1.32,7.14-2.15,10.67-1.53,7.09-3.32,14.12-5.13,21.15-3.46,13.28-7.22,26.76-11.12,40.28q-2.91,10.14-6,20.29l-1.52,5.06-.58,1.89-.16.53-.52-.16-1.05-.34-2.72-.89q-5-1.67-10-3.42c-2.74-1-5.47-2-8.18-3q-2-.79-4-1.68c-.67-.32-1.35-.59-2-.95l-1-.52-1-.7a2.27,2.27,0,0,1-.73-1.61,5.93,5.93,0,0,1,.08-1.36,16.22,16.22,0,0,1,.63-2.4c.52-1.53,1.14-3,1.78-4.43,1.31-2.88,2.73-5.68,4.19-8.46,2.92-5.55,6-11,8.94-16.52,1.49-2.75,3-5.51,4.35-8.29.7-1.4,1.38-2.8,2-4.21l.43-1a.17.17,0,0,0,0-.12v-.21l0-.59-.09-2.35q-.33-9.39-.54-18.78c-.21-9.49-.32-19-.28-28.49s.24-19,.94-28.49c.09-1.17.23-2.33.34-3.49s.2-2.33.41-3.5l.28-1.76L210,254l.1-.64.05-.31c0-.06.19.05.28.07l1.18.45.59.23c.2.08.29.08.44.13.55.13,1.08.3,1.64.4a48.32,48.32,0,0,0,13.75.23,64.58,64.58,0,0,0,13.49-3c1.1-.34,2.16-.8,3.24-1.2s2.09-.94,3.14-1.41,2-1.08,3-1.62c.25-.14.48-.31.72-.46l.87-.57,2.07-1.35c.08.91.15,1.84.25,2.74l.13,1,.13.93a24.08,24.08,0,0,0,.82,3.62c.76,2.24,2.49,4.16,4.14,6,3.4,3.67,7.14,7,10.86,10.38,8.27,7.38,16.74,14.38,24.64,22,2,1.92,3.89,3.89,5.69,6,.45.53.9,1.05,1.32,1.61s.85,1.11,1.24,1.7a12.13,12.13,0,0,1,1.91,3.88,4.56,4.56,0,0,1,.19,1.06L306,307a14.87,14.87,0,0,1,.18,2.09l0,2.09,0,1-.05,1c-.1,2.76-.37,5.5-.67,8.24-.59,4.82-1.35,9.5-2.24,14.3-1.71,8.88-3.13,14.67-4.18,18.72a70.5,70.5,0,0,1-2.55,8.15c-.33.83-.74,1.92-1,2.39-.84,1.56.89-5.58,3.68-18.47a254.31,254.31,0,0,0,4.81-29.2c.15-1.24.16-2.47.24-3.71s.06-2.47,0-3.7a25.49,25.49,0,0,0-.28-3.62,7.31,7.31,0,0,0-.12-.87l-.22-.75a11.45,11.45,0,0,0-.76-1.53,35.61,35.61,0,0,0-4.47-5.81c-1.69-1.84-3.47-3.63-5.3-5.39-7.33-7-15.21-13.59-22.94-20.46-3.85-3.45-7.72-6.9-11.32-10.76-.9-1-1.77-2-2.6-3.05a13.14,13.14,0,0,1-2.11-3.71,24.69,24.69,0,0,1-.93-4l-.15-1-.1-.85h0l-.72.47c-.85.53-1.73,1-2.6,1.46s-1.78.86-2.67,1.29-1.81.79-2.73,1.14a65.44,65.44,0,0,1-23.12,4.23c-1,0-2-.06-3-.1s-2-.15-3-.32l-1.49-.25c-.5-.11-1-.25-1.5-.38l-.57-.15s0,0,0,0l-.33,2.1c-.18.93-.22,1.9-.33,2.84l-.29,2.86c-.08.95-.13,1.91-.19,2.87-.29,3.83-.42,7.68-.55,11.53-.24,7.7-.25,15.42-.23,23.13Z"/><path class="cls-2" d="M254.1,247c-.56-6.75-.18-15.38,1.69-20.43"/><path class="cls-1" d="M210.88,249.81a39.51,39.51,0,0,0-1,5.06c-.15.78,1.9.45,2-.25a39.51,39.51,0,0,1,1-5.06c.23-.69-1.8-.43-2,.25Z"/><path class="cls-1" d="M256.58,243.79a10.66,10.66,0,0,1-3.88,2.73c-.31.11-.81.48-.54.84s1,.16,1.35,0a12.87,12.87,0,0,0,4.71-3.24c.31-.31.21-.63-.2-.75a1.67,1.67,0,0,0-1.44.38Z"/><path class="cls-1" d="M200.47,421.87c1.17.89,2.33,1.8,3.46,2.79a20.89,20.89,0,0,1,1.65,1.62c.14.17.24.28.42.51a4.54,4.54,0,0,1,.5.84,1.66,1.66,0,0,1-.15,1.72,3.94,3.94,0,0,1-.51.49,2.21,2.21,0,0,1-.61.37,3.08,3.08,0,0,1-1.17.32,6.38,6.38,0,0,1-1.93-.13,12,12,0,0,1-1.7-.52l-1.5-.63-2.6-1.05-2.55-1.15a34.77,34.77,0,0,1-8.45-5.34,10.3,10.3,0,0,1-1.7-2,3.91,3.91,0,0,1-.59-2.89,3.4,3.4,0,0,1,.12-.38l.13-.3c.12-.26.19-.4.29-.59l.55-1.1,1.11-2.17c1.31-2.58,2.58-5.19,3.82-7.77,1.59-3.32,3.12-6.69,4.88-9.9.51-1,.92-.69.93.41a11.78,11.78,0,0,1-1.3,4.8q-2.46,5.09-5,10.1l-2.6,5-.65,1.26-.3.58a2.36,2.36,0,0,0-.13.27c0,.1-.06.13-.06.2a2.45,2.45,0,0,0,.54,1.85,8,8,0,0,0,1,1.18,15.56,15.56,0,0,0,1.22,1.07,26.15,26.15,0,0,0,2.79,1.88,65.37,65.37,0,0,0,6.16,3.06c1.48.68,3,1.25,4.52,1.91a7.92,7.92,0,0,0,2.16.56,2.93,2.93,0,0,0,1,0,.73.73,0,0,0,.47-.23c.19-.12.07-.35,0-.49l-.09-.12-.19-.23c-.13-.16-.27-.31-.42-.47-.6-.61-1.26-1.19-1.94-1.76-2.39-2-4.94-3.8-7.52-5.57l-2.56-1.73-1.29-.85-1.74-1.12c1.27-2.57,2.54-5.13,3.79-7.67,1.6-3.29,3.07-6.58,4.59-9.87l.5-1.08.2-.48,0-.05-.28-.16-.58-.38a11.72,11.72,0,0,1-1-.71,2.61,2.61,0,0,1-.92-1.13,2.16,2.16,0,0,1-.19-.51c-.05-.48,1.16-.12,3.09.91.33.17,1.39.78,2.28,1.29q-1.11,2.43-2.24,4.92-1,2.06-2,4.16c-1.32,2.79-2.69,5.6-4.07,8.41l-.67,1.36-.16.31h0s0,0,0,0l.32.21,1.3.84,2.56,1.73c1.71,1.17,3.4,2.36,5.07,3.6Z"/><path class="cls-1" d="M286.54,386.86c1.24.09,2.47.2,3.72.34.62.07,1.25.15,1.88.25l.48.08c.2,0,.53.1.79.16a3.15,3.15,0,0,1,1.37.6,1,1,0,0,1,.35.52,2.21,2.21,0,0,1,0,.68,5.73,5.73,0,0,1-.16.69c-.1.22-.24.43-.36.64a4.47,4.47,0,0,1-1.2,1.05,7.94,7.94,0,0,1-1,.48,17.38,17.38,0,0,1-3.83.89,42.56,42.56,0,0,1-5.5.36q-3.36,0-6.7-.36c-1.11-.12-2.22-.26-3.33-.46-.56-.09-1.12-.2-1.68-.34-.28-.07-.56-.14-.85-.24a4.38,4.38,0,0,1-1-.46,3.62,3.62,0,0,1-.38-.41l-.25-.51a5.07,5.07,0,0,1-.19-.85,13.54,13.54,0,0,1-.1-1.53c0-1,.05-2,.12-2.94.23-2.83.56-5.65.93-8.42a98.43,98.43,0,0,1,1.79-10.64c.13-.54.33-.78.5-.72s.36.38.5.89a12.14,12.14,0,0,1,.09,4.82c-.54,3.3-1.06,6.61-1.49,9.91-.21,1.66-.4,3.31-.52,5-.06.82-.1,1.64-.09,2.43a4.48,4.48,0,0,0,.21,1.6,1.6,1.6,0,0,0,.47.2c.23.09.51.16.78.24a37.72,37.72,0,0,0,6.5.88,65.14,65.14,0,0,0,6.7.07,35.85,35.85,0,0,0,3.61-.31,12.56,12.56,0,0,0,3.36-.89,2,2,0,0,0,.36-.18,1.18,1.18,0,0,0,.18-.11,1.07,1.07,0,0,0,.26-.26.77.77,0,0,0,.12-.36c-.06-.12-.21-.14-.32-.18l-.41-.09-.89-.14-1.82-.22c-3-.3-6.06-.48-9.11-.63l-2.91-.13-3.57-.12q.66-4.3,1.31-8.57c.51-3.53.9-7,1.34-10.51l.05-.38c0-.17,0-.13,0-.21l0-.26-.26-.07-.75-.25-.78-.27c-.48-.18-.85-.33-1.16-.48a2.58,2.58,0,0,1-1.14-.9,3.11,3.11,0,0,1-.29-.46c-.14-.45,1.09-.38,3.14.19l1.23.34,2.07.63c-.2,1.65-.4,3.31-.61,5-.18,1.39-.37,2.8-.55,4.21-.41,2.82-.82,5.68-1.24,8.54l-.23,1.55c0,.19,0,.08,0,.11h0l1.47.05,3,.12q2.94.13,5.91.34Z"/><path class="cls-1" d="M176.62,455.85q-.19,4.75-.26,9.52l0,3.47v3.6c-.1.74.39,2.15-.84,1.54l-2.34-.45a50.33,50.33,0,0,0-6-.78,36.86,36.86,0,0,0-5.36.06c-2.28.18-4.52.62-6.81.81-1.43.13-.05-2.28,2.69-2.68a43.18,43.18,0,0,1,14.52.38l1.08.21.48.1.16,0,.34.08a.81.81,0,0,0,0-.32l0-1.69,0-2.2c0-3.22.07-6.43.17-9.65l.22-5.93c.14-3,.28-6,.42-9,.08-2.31.06-4.58.1-6.86,0-.5,0-1,0-1.5.07-1.88.25-2.47.85-2.83a2.19,2.19,0,0,1,.4-.25c.45-.15.77.64.81,2,.14,4.08-.05,8.37-.22,12.67-.14,3.19-.29,6.39-.37,9.59Z"/><path class="cls-1" d="M242.47,393h-.05l-.63,23.7q-.07,4.67-.17,9.33l-.15,6-15-.5c-4.66-.13-9.31-.24-14-.3-4.86-.07-9.75,0-14.57,0-6.2.11-12.42.4-18.62.39-3.86,0,1-2.27,8.13-2.46,12.69-.34,25.38-.23,38.16.28l7.39.25,6.49.18c.05-2.51.09-5,.14-7.52q.32-12.88.62-25.77l.14-5.87,11.58.62c8,.38,16,.73,24,.87,6.18.11,12.23.05,18.32-.11l4-.13c5-.18,6.58-.18,7.7.32a4.33,4.33,0,0,1,.74.34c.52.39-1.51.95-5.21,1.23-11,.78-22.51.56-34.08.23q-6.45-.19-12.91-.49l-12-.6Z"/><path class="cls-1" d="M329.42,357.55l-14.21-.21H310.7l0,.37-.72,15.77c-.11,2.7-.17,5.42-.2,8.09-.05,3.45,0,6.9-.32,10.34-.2,2.15-2.21-.57-1.92-4.54.4-7,.94-14,1.43-21.14.2-2.79.33-5.65.48-8.52l-.46,0-.23,0h-.12v-1.16a5.56,5.56,0,0,1,.79-.45l-.1.22.28-1H312l14.31.18,8.81.1c4.45,0,8.91.1,13.33.07,3.43,0,6.79-.17,10.18-.27l2.23-.07c2.79,0,3.68.11,4.28.68a2.48,2.48,0,0,1,.4.39c.26.44-.87.8-2.92.93-6.06.39-12.45.44-18.87.44l-14.34-.07Z"/><path class="cls-1" d="M215.55,80.05c2-.19,4.24,1.5,5.14,3.21.47.87,2.53,0,2-1a7.73,7.73,0,0,0-7-3.87c-1.23.12-1.66,1.77-.18,1.63Z"/><path class="cls-1" d="M223.61,82.23a4.75,4.75,0,0,1,.28-3.58c.43-1,1.34-2.67,2.5-3s1.05-1.28-.25-.92c-3,.84-5.91,4.91-4.71,8.08.26.66,2.4,0,2.18-.59Z"/><path class="cls-1" d="M252.06,108.76a2.48,2.48,0,0,1,.72,1.19A3.57,3.57,0,0,1,253,111a3.3,3.3,0,0,1,0,.77,2,2,0,0,1-.73,1.36,1.27,1.27,0,0,1-1.09.21,3.88,3.88,0,0,1-.36-.15l-.28-.19a1.89,1.89,0,0,1-.39-.41,5.37,5.37,0,0,1-.54-1.07,1.8,1.8,0,0,1-.19-1.34c.06-.15.54-.12,1,0s.94.19,1,.36c.08.49.25.94.16,1s0,0,0,.07-.09.27-.1.36,0,.31,0,.2a.6.6,0,0,0-.16-.14l-.15-.1h0a1.62,1.62,0,0,0,.07-.4,2.22,2.22,0,0,0-.16-1.16.33.33,0,0,1-.05-.12s0,.06.07-.15c0,0,0,0,0-.06s0-.1,0,0,.07.12.08.18-.15.14-.2.3a.82.82,0,0,0,0,.51.45.45,0,0,0,.47.34l.12,0c.15,0,.19.13.21.64l0,.35a.62.62,0,0,1-.51.74,1.87,1.87,0,0,1-1.69-.78,2.6,2.6,0,0,1-.46-1.88,2.77,2.77,0,0,1,.6-1.38,1.84,1.84,0,0,1,1.08-.63,1.78,1.78,0,0,1,.79,0,1.7,1.7,0,0,1,.54.3Z"/><path class="cls-1" d="M262.54,104.58a3,3,0,0,1,.61.27c.23.28.45.6.67.89a1.3,1.3,0,0,1,.15.23l.12.35a2.88,2.88,0,0,1,.14.71,2.77,2.77,0,0,1,0,.64,2.32,2.32,0,0,1-.07.51,2.14,2.14,0,0,1-.37.9,1.48,1.48,0,0,1-.86.49,1.63,1.63,0,0,1-1.2-.49l-.13-.16a3.7,3.7,0,0,1-.63-1.12c-.22-.61-.38-1-.2-1.44.05-.14.54-.11,1,0s.93.19,1,.36,0,.14,0,.2a.47.47,0,0,0-.06.15.58.58,0,0,0,0,.3c.05.13.14.09.16,0a.85.85,0,0,0,0-.22,1.21,1.21,0,0,0-.12-.59.62.62,0,0,0-.15-.21c-.08,0-.18,0-.19,0s-.13.14-.19.29a1,1,0,0,0,0,.52.44.44,0,0,0,.44.36s.08,0,.11,0,.15.12.16.63l0,.34a.62.62,0,0,1-.55.74,1.85,1.85,0,0,1-1.62-.86,2.69,2.69,0,0,1-.39-1.82,2.76,2.76,0,0,1,.56-1.34,2.57,2.57,0,0,1,.42-.38,1.66,1.66,0,0,1,.43-.2c.13,0,.24,0,.36-.08a3.16,3.16,0,0,1,.32,0Z"/><path class="cls-1" d="M241.81,105.09c-.14.2-.31-.12-.46-.75a4.31,4.31,0,0,1,0-.92,4.87,4.87,0,0,1,.17-.47c0-.06.63-.47.83-.66a1.53,1.53,0,0,1,.63-.33c.45-.14.91-.33,1.39-.51a.72.72,0,0,1,.36,0,2,2,0,0,0,1.19-.23c.06,0,.14,0,.17-.16s1.17-.54,1.34-.5c.43.12.84.17,1.26.27.06,0,.11,0,.18.09.16.28.27.22.4.23a1.11,1.11,0,0,1,.52.16,2.06,2.06,0,0,1,.25.45.87.87,0,0,1,0,.48c-.07.12,0,.29,0,.42v.15a2.62,2.62,0,0,1-.36.65,2.48,2.48,0,0,1-.38.45s-.27.1-.53.22a5.58,5.58,0,0,0-.61.32c-.06,0-.14,0-.22,0s-.87.46-.91.47c-.2,0-.36.18-.63,0a.09.09,0,0,0-.12,0,3.75,3.75,0,0,1-1.07.19,3.32,3.32,0,0,0-.54.15s-.08,0-.11,0-.1,0-.14,0a9.82,9.82,0,0,0-1.35.33c-.11,0-.68-.14-.81-.09S241.87,105,241.81,105.09Z"/><path class="cls-1" d="M256.83,100.45c0,.15-.16-.08-.52-.45a3.18,3.18,0,0,1-.43-.58,2.27,2.27,0,0,1,0-.44,8.46,8.46,0,0,1,.69-1,1.09,1.09,0,0,1,.52-.4,6.57,6.57,0,0,0,.8-.42.37.37,0,0,1,.23,0,.86.86,0,0,0,.79-.15s.09,0,.1-.14.76-.47.9-.43c.33.12.63.16,1,.26,0,0,.08,0,.14.08.14.28.21.2.31.23a.69.69,0,0,1,.58.53,1.71,1.71,0,0,1,0,.55,1.92,1.92,0,0,0,0,.48v.17s-.11.29-.19.52a1.78,1.78,0,0,1-.17.46,3.43,3.43,0,0,0-.29.19,3,3,0,0,0-.34.26s-.08,0-.14,0-.51.41-.54.41-.22.16-.44,0a.06.06,0,0,0-.09,0,1.67,1.67,0,0,1-.76.15,2.13,2.13,0,0,0-.42.1s-.07,0-.1,0-.07,0-.1,0a5.92,5.92,0,0,0-.81.12c-.05,0-.36-.22-.4-.18S256.82,100.39,256.83,100.45Z"/><path class="cls-1" d="M265.68,119.61l.15,0h.1a.11.11,0,0,0,.09-.1v-.2a3.06,3.06,0,0,0-.07-.4,3.57,3.57,0,0,0-.22-.82,6.3,6.3,0,0,0-.61-1.06,10.44,10.44,0,0,0-3.25-3.23,8,8,0,0,0-1.89-.85c-.85-.27-1.72-.33-2.54-.56-.25-.08-.24-.56,0-1a1.49,1.49,0,0,1,1.47-.77,10.54,10.54,0,0,1,5.51,3,14.71,14.71,0,0,1,2.5,2.92c.13.24.26.48.37.73l.28.78a7,7,0,0,1,.18.82,1.84,1.84,0,0,1,0,.41l0,.57a1.46,1.46,0,0,1-.67,1.24,2.91,2.91,0,0,1-.84.34,4.55,4.55,0,0,1-.69.12,11,11,0,0,1-1.27,0c-1.27,0-2.49-.18-3.7-.3-.94-.1-1.88-.11-2.82-.2-.21,0-.41,0-.62,0-.77-.12-1-.31-1-.84a1.38,1.38,0,0,1,0-.35c0-.39.38-.62.93-.62,1.64,0,3.34.21,5,.36a16.19,16.19,0,0,0,3.53,0Z"/><path class="cls-1" d="M254.13,129.44c1.53,1,3.21,2.13,5.1,2.06a5,5,0,0,0,4.19-2.41c.28-.45-1-.35-1.12-.33a2.33,2.33,0,0,0-1.6.79c-.57.92-.61.77-1.61.31a21.6,21.6,0,0,1-2.37-1.39c-.68-.44-3,.68-2.59,1Z"/><path class="cls-1" d="M250.53,108.5a1.78,1.78,0,0,0-.62.63c0,.09,0,.2-.08.29a1.07,1.07,0,0,0,0,1,.81.81,0,0,0,.48.28c.27.07.63,0,.89.37s-.77,1.77-1.1,1.67a4,4,0,0,1-1.15-.58,2.29,2.29,0,0,1-.87-1.43,4.47,4.47,0,0,1,0-1.78,3.6,3.6,0,0,1,.91-1.49,4.41,4.41,0,0,1,.81-.63,6.24,6.24,0,0,1,2.74-.59,2.54,2.54,0,0,1,.29,0c.33.12.38.29.18.75-.05.1-.09.21-.14.31a1.38,1.38,0,0,1-.6.61l-1,.27a2,2,0,0,0-.68.34Z"/><path class="cls-1" d="M261.77,104.63a.88.88,0,0,0-.25.6c0,.09,0,.19,0,.29,0,.4,0,.64.21.89a.9.9,0,0,0,.47.22c.24.06.57,0,.78.33s-.77,1.76-1.05,1.68a3.42,3.42,0,0,1-.92-.44,2.26,2.26,0,0,1-.88-1.07,6.33,6.33,0,0,1-.43-1.41,3.41,3.41,0,0,1,.2-1.5,2.63,2.63,0,0,1,.53-.85,2.29,2.29,0,0,1,1.37-.62,8,8,0,0,1,1.06-.15.91.91,0,0,1,.23,0c.27,0,.32.2.2.69l-.09.33a1.24,1.24,0,0,1-.46.71c-.48.19-.78.24-.83.28s0-.06-.13.05Z"/><path class="cls-1" d="M270.23,380.93c.37-1.25.76-2.5,1.09-3.75.13-.46.16-.93.28-1.38.44-1.61.9-3.21,1.21-4.84a12.26,12.26,0,0,0,.18-2.18,7.88,7.88,0,0,1,.16-2.78c.2-.59,3,.16,3,1.34a18.13,18.13,0,0,1-1.07,6,35.41,35.41,0,0,0-.78,3.57c-.32,1.3-.68,2.58-1,3.85l-.66,2.36c-.31,1.18-.66,2.37-.87,3.56a20.41,20.41,0,0,0-.19,2.81c0,.21,0,.42,0,.62-.08.76-.32,1-1.12,1a5,5,0,0,1-.55,0,1.13,1.13,0,0,1-1.12-1,15.76,15.76,0,0,1,.44-5.29c.28-1.3.64-2.58.95-3.85Z"/><path class="cls-1" d="M171.12,202.3a9.2,9.2,0,0,1-3.89,3.38,7.15,7.15,0,0,1-1.86.54,4.89,4.89,0,0,1-3.43-.69,4,4,0,0,1-1.56-3.11,6.82,6.82,0,0,1,.48-2.9,4.47,4.47,0,0,1,1.1-1.65,2.25,2.25,0,0,1,2.13-.49c.45.17.17.53-.17.86a2.89,2.89,0,0,0-.43.52,1.29,1.29,0,0,1-.31.4,3.72,3.72,0,0,0-1.15,2.25,3.44,3.44,0,0,0,.42,2.56c.58.86,2,.87,3.25.58a6.46,6.46,0,0,0,3.51-2.31,9,9,0,0,0,1.4-2.34,5.56,5.56,0,0,0,.44-2,2.28,2.28,0,0,0-.14-.89,1,1,0,0,0-.51-.52,2,2,0,0,0-1.31.1,7.73,7.73,0,0,0-1.36.72c-.2.12-.38.27-.58.4-.73.49-1,.6-1.42.35a2.49,2.49,0,0,1-.28-.15c-.27-.22-.12-.66.4-1.14a8,8,0,0,1,2.9-1.74,3.39,3.39,0,0,1,2.23,0,2.5,2.5,0,0,1,1.09.85,3.06,3.06,0,0,1,.48,1.13,5.77,5.77,0,0,1-.25,2.88,10.24,10.24,0,0,1-1.14,2.38Z"/><path class="cls-1" d="M301,52.28c1.11-.85,2.21.61,2.73,1.52a7.45,7.45,0,0,1,1,3.82c0,.86,2.14.42,2.17-.28a7.51,7.51,0,0,0-2.07-5.58c-1.65-1.55-3.91-1.08-5.57.19-.39.3-.18.62.2.74a2,2,0,0,0,1.54-.41Z"/><path class="cls-1" d="M305.7,47.9c1.35-1,2.76,1,3.34,2a8.29,8.29,0,0,1,1,4.16c0,.48,2.14.16,2.17-.58a8.09,8.09,0,0,0-2.41-6c-1.73-1.53-4.1-1.06-5.84.18-.4.28-.21.52.16.62a2.19,2.19,0,0,0,1.54-.41Z"/></g></svg>