<svg id="Layer_1" data-name="Layer 1" xmlns="http://www.w3.org/2000/svg" width="520" height="520" viewBox="0 0 520 520"><defs><style>.cls-1{fill:#221f1f;}.cls-2{fill:#232020;}</style></defs><title>Notioly v2</title><g id="_67.Going_to_school" data-name="67.Going to school"><path class="cls-1" d="M350.79,168.75a3.2,3.2,0,0,0-1.13-.37,15.14,15.14,0,0,0-2-.21c-1.43-.07-3,0-4.59,0A44.76,44.76,0,0,1,338,168a14.81,14.81,0,0,1-2.87-.59,7.6,7.6,0,0,1-3.14-1.84c-.18-.19-.35-.39-.51-.59a4.88,4.88,0,0,1-.59-1,3.42,3.42,0,0,1-.18-1.83,3.53,3.53,0,0,1,.78-1.65A3.57,3.57,0,0,1,332,160a3.52,3.52,0,0,1,.44-.34,7.35,7.35,0,0,1,.72-.39l.62-.26.56-.18a19.07,19.07,0,0,1,3.89-.64,112.65,112.65,0,0,1,12.49.13l6.11.35,1.52.09.76.05h.09l0,1c0,.07,0,.1,0,.13s0,.05,0,0-.15-.06-.08-.06.17-.09.08,0a.64.64,0,0,0-.06.12l-.25.87-.09,0-.34-.1-.69-.18a53,53,0,0,0-10.43-1.33c-2.25-.1-4.52-.07-6.76,0l-3.32.09c-1.07,0-2.19.08-3,.18a.47.47,0,0,1-.27,0,.9.9,0,0,0-.17-.14,1.2,1.2,0,0,1-.48-.43,1.64,1.64,0,0,1-.29-.84,2.16,2.16,0,0,1,.36-1.18,7.79,7.79,0,0,1,6.27-3.2,80.76,80.76,0,0,1,14.58,1c1.21.2,2.43.43,3.66.72.62.15,1.24.31,1.88.51l.55.17a3.89,3.89,0,0,1,1.72,1.08,4,4,0,0,1,1,1.89,3.92,3.92,0,0,1-.1,1.93,3.82,3.82,0,0,1-2.9,2.68,3.84,3.84,0,0,1-.94.09l-.23,0-.45,0-1.77-.15-3.53-.34a80.67,80.67,0,0,0-8.53-.34,54.93,54.93,0,0,0-8.24.58l-.48.09-.41.11-.27.1,0,0-.15-.2-.09-.17a3.15,3.15,0,0,0-.24-.3,2.6,2.6,0,0,0-.27-.24.44.44,0,0,0-.14-.13.48.48,0,0,0-.18-.08h0s0,0,0,0a.44.44,0,0,0,.2,0l.16-.08a2.43,2.43,0,0,0,.37-.16c.24-.1.41-.33.6-.43l.06.07c0,.06.11.1.16.16a6.67,6.67,0,0,0,3.33.92c2.92.25,6.11,0,9.5.13a14.52,14.52,0,0,1,3.35.55,6.17,6.17,0,0,1,1.86.89,2.93,2.93,0,0,1,.45.37l.22.2.28.34a2,2,0,0,1,.27.44,3.08,3.08,0,0,1,.22.73,2.4,2.4,0,0,1-.1,1,2.26,2.26,0,0,1-.41.72,2,2,0,0,1-.43.4c-.13.09-.28.2-.39.26s-.41.19-.59.25l-.49.14-.45.1c-.57.11-1.11.18-1.63.23-1,.09-2,.14-3,.17-2,.07-4,.07-6,.11a23,23,0,0,0-4.94.42c-.28.09-.38.4-.47.66a3,3,0,0,0-.11.4l-.09.48c-.16.9-.25,1.85-.33,2.79a118.78,118.78,0,0,0,.18,13.47c.05,1,.14,2,.17,3,.1,3.71-.21,4.9-1.56,5.72a6.29,6.29,0,0,1-.92.54c-1,.36-1.93-1.14-2.26-3.88a112.81,112.81,0,0,1-.76-12.35c0-2.12,0-4.25.18-6.45.08-1.11.18-2.22.36-3.41l.08-.46c0-.23.09-.53.15-.77a12.26,12.26,0,0,1,.46-1.49,5,5,0,0,1,.72-1.31c.17-.17.34-.36.52-.52l.14-.13c0-.11.08-.1.11-.15l.29-.23.64-.33a8.73,8.73,0,0,1,2.24-.62l.59-.09c.22,0,.27,0,.4-.05l.67-.06c.88-.08,1.72-.12,2.54-.15,1.65-.06,3.25-.08,4.83-.12s3.13-.07,4.53-.2c.35,0,.69-.07,1-.12l.37-.06.12,0h.05a.25.25,0,0,1,0,.09l.05.17a5.63,5.63,0,0,0,.59,1.27,2.26,2.26,0,0,0,.51.75c.3.33.37.07-.06.3,0,0-.27.13-.38.22a1.65,1.65,0,0,0-.37.33l-.08.09,0,0v0l-.58.56h0l-.05.05-.1.11-.21.28c-.07.08,0,0,0,0Z"/><path class="cls-1" d="M353.61,167.32c-1.51-.2-3-.43-4.47-.65-.54-.08-1.09,0-1.62-.11-1.9-.35-3.77-.81-5.64-1.17a11.74,11.74,0,0,0-2.51-.18c-1.08,0-2.18.26-3.23-.41a.27.27,0,0,1-.1-.13.74.74,0,0,1-.14-.23,1.13,1.13,0,0,1,0-.65c.07-.24.17-.51.27-.81s.17-.6.28-.91c.42-1.23,1-2.4,1.64-2.37a19.71,19.71,0,0,1,6.34,1.39,15.34,15.34,0,0,0,3.93.55c1.45.19,2.89.4,4.34.57.88.1,1.78.21,2.66.25a19.7,19.7,0,0,0,4,0,7.3,7.3,0,0,0,2.66-1.05c.16-.09.25-.24.39-.3s.13-.09.21-.07,0,0,.05.07l0,0,.12.16c.53.51.16.33.91.82a6.59,6.59,0,0,0,.85.4,1.36,1.36,0,0,1,1,1,2,2,0,0,1-.63,1.61,8.16,8.16,0,0,1-3.47,1.9,14.3,14.3,0,0,1-3.24.49,39.62,39.62,0,0,1-4.64-.11Z"/><path class="cls-2" d="M216.13,449.29a1,1,0,0,1,.13-.31,1.65,1.65,0,0,1,.15-.25c.05-.07.16-.19.13-.17a.85.85,0,0,1-.12-.13,4.92,4.92,0,0,1-.37-.6,13.46,13.46,0,0,1-.69-1.57c-.42-1.11-.79-2.29-1.1-3.45a15.25,15.25,0,0,0-2.73.72c.34,1.27.72,2.49,1.19,3.74a17,17,0,0,0,.84,1.88,6.3,6.3,0,0,0,.63,1,2.93,2.93,0,0,0,.52.56,2.16,2.16,0,0,0,1.1.54c.13,0,.24-.68.28-1.39Z"/><path class="cls-2" d="M165,453.62l-.72-7.76a14.69,14.69,0,0,0-2.81.26l.72,7.76A19.07,19.07,0,0,0,165,453.62Z"/><path class="cls-1" d="M187.85,362.14c-2.34.43-4.69.85-7,1.23-.86.14-1.7.36-2.56.48-3,.44-6.09.74-9.13,1-1.35.14-2.69.35-4,.56a20,20,0,0,1-5.19.47c-1.09-.12.09-3,2-3.24,3.44-.39,6.89-.74,10.42-.89a56.34,56.34,0,0,0,6.37-1c2.34-.39,4.68-.78,7-1.23,1.44-.26,2.86-.57,4.29-.88,2.15-.49,4.33-1,6.43-1.61,1.62-.51,3.18-1.14,4.74-1.78.35-.14.68-.3,1-.43,1.3-.46,1.78-.4,2.31.25a5.07,5.07,0,0,1,.36.45c.31.54-.08,1.18-1,1.66a45.08,45.08,0,0,1-8.94,3.27c-2.32.64-4.68,1.14-7,1.67Z"/><path class="cls-1" d="M156.44,232.31c7.14-4,15.82-5.66,23.88-6.32,3.3-.27,4.43-4.7.48-4.37-9.09.75-18.91,2.59-27,7.15-3.42,1.93-.33,5.2,2.6,3.54Z"/><path class="cls-1" d="M227.1,279.16a3.8,3.8,0,0,1,3.53,1.37,42.08,42.08,0,0,1,3.85,4.65,13.09,13.09,0,0,1,.83,1.39,6.37,6.37,0,0,1,.36.86,2.67,2.67,0,0,1,.09,1.39,1.84,1.84,0,0,1-.67,1,1.54,1.54,0,0,1-.47.25,1.45,1.45,0,0,1-.42.11,4.08,4.08,0,0,1-1.07,0l-.45,0-.45-.12a4.13,4.13,0,0,1-.88-.29,7.12,7.12,0,0,1-2.44-1.77,21.67,21.67,0,0,1-1.68-2.09c-1-1.36-1.95-2.61-3.06-2.9l-.37-.09-.54-.08c-.36,0-.75-.1-1.17-.2a5.65,5.65,0,0,1-2.41-1.17,11.45,11.45,0,0,1-3-3.82,8.14,8.14,0,0,1-.46-1.17c-.07-.19-.12-.44-.17-.62s0-.21-.12-.37a19.8,19.8,0,0,0-.86-1.84c-.64-1.26-1.35-2.51-2.08-3.76-.85-1.47-1.71-2.95-2.61-4.4s-1.78-2.74-2.69-4.11a3.65,3.65,0,0,1-.44-.69c-.24-.68.2-1.15.87-1,.15,0,.37.06.44.16.7,1.06,1.92,1.5,2.62,2.66,1.27,2.14,2.75,4.16,4.07,6.29.53.85,1,1.74,1.48,2.64.29.58.56,1.17.81,1.78a14.29,14.29,0,0,1,.72,2l.08.36a3.81,3.81,0,0,0,.13.42,7.1,7.1,0,0,0,.54,1.16,8.53,8.53,0,0,0,2.39,2.75,4.28,4.28,0,0,0,2,.62l.67.09c.24,0,.56.13.84.19a5.3,5.3,0,0,1,1.55.8c1.81,1.39,2.75,3.22,4,4.52a5.25,5.25,0,0,0,1.94,1.44,3.09,3.09,0,0,0,1.07.25l.4,0c0,.07,0,.21.07.28s.12.22.1.21.05.06,0,0a.27.27,0,0,0-.13-.05,1.4,1.4,0,0,0-.32-.06c-.15,0-.09,0-.11,0a.7.7,0,0,0,0-.14,2.57,2.57,0,0,0-.17-.44,8.05,8.05,0,0,0-.54-1c-.41-.66-.85-1.27-1.28-1.83-1.72-2.25-3.06-3.69-3.17-3.84C227.92,280.55,227.64,280,227.1,279.16Z"/><path class="cls-1" d="M237.4,295.79a1.59,1.59,0,0,0,.54-1.24c0-.35,0-.66,0-1a10.46,10.46,0,0,1,.22-1.76,15.94,15.94,0,0,0,0-5.92,8,8,0,0,0-1.1-2.56,17.39,17.39,0,0,0-2-2.26,112,112,0,0,1-7.22-8.57A81.81,81.81,0,0,1,217.85,256l-.59-1.31-.52-1.35c-.32-.9-.71-1.77-1-2.69l-.87-2.62c-.3-.87-.49-1.78-.73-2.67a4.33,4.33,0,0,1-.21-.9c0-.81.54-1.09,1.13-.63.13.1.34.21.37.34a6.5,6.5,0,0,0,.86,1.8,9.62,9.62,0,0,1,.89,1.82,26.39,26.39,0,0,0,1.34,3.77c.53,1.23,1.07,2.46,1.69,3.64.47,1,.9,1.94,1.38,2.9l.87,1.86c.3.62.62,1.22.94,1.83.23.41.65,1.21,1.32,2.24l1.1,1.74,1.4,2a100.05,100.05,0,0,0,7.58,9.43l2.15,2.34a17.91,17.91,0,0,1,2.08,2.5,10.72,10.72,0,0,1,1.62,5.71,16.42,16.42,0,0,1-.87,5.86,4.3,4.3,0,0,1-.64,1.08,3.65,3.65,0,0,1-.59.6A2,2,0,0,1,237.4,295.79Z"/><path class="cls-1" d="M235.29,290.53c1,.5,1.16.89,1.12,1.21a18.42,18.42,0,0,1-.72,3.22,9.18,9.18,0,0,1-1.42,2.73,2.45,2.45,0,0,1-.32.33,1.43,1.43,0,0,1-.5.33.78.78,0,0,1-.29.08.93.93,0,0,1-.61-.09,1.12,1.12,0,0,1-.33-.24l-.14-.21a1,1,0,0,1-.09-.23l0-.12a1.7,1.7,0,0,1,0-.58c.07-.51.18-.87.27-1.27a21.34,21.34,0,0,0,.49-2.23,6.82,6.82,0,0,0,.11-1.25,2.77,2.77,0,0,0-.23-1s-.08-.07-.06-.13a1.42,1.42,0,0,1,.88-.48c.09,0,.23,0,.25,0,.16.31.86.48.9.94a19.8,19.8,0,0,1,.1,2.28,4,4,0,0,1-.16.85c-.11.35-.27.68-.39,1,0,.12-.11.34-.19.63a7.85,7.85,0,0,0-.21.95h-.09a3.67,3.67,0,0,0-.4,0c-.15.05-.16,0-.23.09s0,0,0,0,0,0,0,0a.19.19,0,0,0,0-.07,1.16,1.16,0,0,0,0-.18c0-.1-.11-.19-.2-.38,0,0,0,0,0-.05a1.78,1.78,0,0,0,.28-.37,7.36,7.36,0,0,0,.61-1.29,37.22,37.22,0,0,0,1.2-4A3.13,3.13,0,0,1,235.29,290.53Z"/><path class="cls-1" d="M229.21,288.9c1.26-.22,1.58,0,1.68.16a7.3,7.3,0,0,1,.63,2.22,10.19,10.19,0,0,1-.06,2,8.85,8.85,0,0,1-.85,3.49,5.41,5.41,0,0,1-.7,1,4.37,4.37,0,0,1-.91.85c-.06,0-.1.12-.19.1s-.46-.56-.55-1c0-.1-.08-.26-.06-.27.2-.14-.08-.81,0-.9.27-.15.29-.57.38-.87a1,1,0,0,1,.17-.37c.1-.15.24-.31.34-.48a7.72,7.72,0,0,0,.28-2.87,15.65,15.65,0,0,0-.41-2.59C229,289.25,229.11,289.11,229.21,288.9Z"/><path class="cls-1" d="M225.87,286.37c1.26-.25,1.56-.16,1.65,0a6.61,6.61,0,0,1,.73,1.7,7.53,7.53,0,0,1,.14,1.67,6.63,6.63,0,0,1-.12,1.57,3.73,3.73,0,0,1-.78,1.6,3.91,3.91,0,0,1-.83.7l-.42.29-.43.22c-.05,0-.09.09-.16.05s-.33-.64-.37-1.08a1.72,1.72,0,0,1,0-.27c.17-.09,0-.82.15-.85s.32-.37.36-.56.07-.11.12-.17.22-.12.28-.24a3.46,3.46,0,0,0,0-2.1c-.2-1-.58-2.05-.57-2.11S225.76,286.56,225.87,286.37Z"/><path class="cls-1" d="M174.81,152.94a16.08,16.08,0,0,0,7.64-1.9,15.41,15.41,0,0,0,5.62-5.55,23.61,23.61,0,0,0,2.34-5.51,41,41,0,0,0,1.66-10.68,70.78,70.78,0,0,0-.52-11,82.4,82.4,0,0,0-1.83-9.62c-1-4-2.33-8-3.41-12.06-.33-1.26.31-1.3,1.23-.44a12,12,0,0,1,2.82,5,87.53,87.53,0,0,1,4,25.8,78.46,78.46,0,0,1-.54,8,34.13,34.13,0,0,1-2,8,20.9,20.9,0,0,1-5,7.63,16.56,16.56,0,0,1-8.1,4.22,20.91,20.91,0,0,1-5.57.41,31.12,31.12,0,0,1-5.46-.8,29.53,29.53,0,0,1-14.15-8.42,43.73,43.73,0,0,1-7.35-10.29c-.43-.82-.85-1.63-1.21-2.5-1.35-3.22-1.43-4.37-1.05-5.25a2.85,2.85,0,0,1,.28-.58c.41-.45,1.12.78,2.09,3a51.18,51.18,0,0,0,5.33,9.61,33.38,33.38,0,0,0,7.71,7.93,25.5,25.5,0,0,0,15.39,4.89Z"/><path class="cls-1" d="M145.09,126.5c-2.74,6.79-11.87,11.95-11.87,11.95C122.28,141.3,116,136,116,136c-5.15-4.83-34-72.93,40.48-80,41.93-4,45.72,27.6,40.51,34.93-9.55,13.44-37.58,1.86-44.43,1.88-15.16,0-12.87,12.93-11.7,16.69-4.76-1-10.9-.82-12.12,4.41C127.67,118.25,133,127.75,145.09,126.5Z"/><path class="cls-1" d="M195.79,76.31A24.58,24.58,0,0,0,190,66.55a24.9,24.9,0,0,0-4.44-3.65,30.73,30.73,0,0,0-5.14-2.71c-7.28-2.92-15.48-3.39-23.46-2.73-1.46.14-2.93.35-4.39.53l-2.19.28c-.74.09-1.45.26-2.17.39l-4.33.85-4.25,1.13a58,58,0,0,0-14.11,6A38.75,38.75,0,0,0,114.37,77c-.75,1-1.35,2.15-2,3.22s-1.13,2.29-1.69,3.43-.93,2.38-1.31,3.6l-.52,1.85a15,15,0,0,0-.45,1.87,53.31,53.31,0,0,0-.88,15.4A68.49,68.49,0,0,0,110,120a63.54,63.54,0,0,0,5.06,12.76,20.73,20.73,0,0,0,1.12,1.78,1.82,1.82,0,0,0,.29.36l.26.3a7,7,0,0,0,.78.52,15.92,15.92,0,0,0,3.83,1.64,20.39,20.39,0,0,0,8.38.55,21,21,0,0,0,2.1-.37l.93-.21a8.12,8.12,0,0,0,.74-.44c1.22-.77,2.41-1.61,3.55-2.5a28.27,28.27,0,0,0,6-6.11q.34-.56.63-.93a5.38,5.38,0,0,1,.43-.64c.26-.32.46-.44.58-.36s.18.35.16.82a7,7,0,0,1-.41,1.9,17.64,17.64,0,0,1-3.65,5.77,29,29,0,0,1-3.34,3.13c-.64.51-1.3,1-2,1.5l-.55.36-.28.18-.53.31a3,3,0,0,1-.56.15l-.36.09-.67.15a27.48,27.48,0,0,1-4.89.61,25.12,25.12,0,0,1-5-.39,21.69,21.69,0,0,1-4.81-1.52,18.74,18.74,0,0,1-2.27-1.25l-.57-.4a2.5,2.5,0,0,1-.39-.34l-.28-.31c-.17-.2-.38-.42-.5-.6l-.37-.55a33.31,33.31,0,0,1-2.32-4.28c-.67-1.44-1.27-2.89-1.82-4.36a75.83,75.83,0,0,1-2.76-9,72.11,72.11,0,0,1-1.66-9.24,64.19,64.19,0,0,1-.4-9.41,45.93,45.93,0,0,1,4.31-18.42,41.1,41.1,0,0,1,15.33-17,65,65,0,0,1,21.52-8.07c2.06-.38,4.11-.83,6.2-1l3.11-.38,1.55-.18,1.57-.1a64.17,64.17,0,0,1,12.62.24,42.12,42.12,0,0,1,12.25,3.37,29.79,29.79,0,0,1,10.27,7.6A27.48,27.48,0,0,1,199.57,80a23.85,23.85,0,0,1,.21,4,18,18,0,0,1-.53,4,10.08,10.08,0,0,1-1.74,3.8,15.16,15.16,0,0,1-2.9,2.87c-3.34,2.47-7.46,3.36-11.38,3.59a53.79,53.79,0,0,1-11.71-.8c-3.84-.63-7.61-1.51-11.35-2.38-1.86-.44-3.73-.89-5.56-1.2-.46-.08-.92-.14-1.36-.18a6.57,6.57,0,0,0-1.33,0,17.65,17.65,0,0,0-2.73.26l-1.25.24c-.4.11-.79.27-1.18.4a4.39,4.39,0,0,0-1.13.49c-.35.2-.72.38-1.06.6a8,8,0,0,0-2.88,3.73,12.15,12.15,0,0,0-.71,4.82c0,.41,0,.83.09,1.24l.08.63,0,.32.1.46c.2,1.17.65,2.64,1,3.95l-2.7-.46c-.45-.07-.9-.11-1.35-.17l-.33,0h-.21l-.41,0a12.9,12.9,0,0,0-3.19.25,6.28,6.28,0,0,0-2.66,1.18,4.38,4.38,0,0,0-1.45,2.27,5.26,5.26,0,0,0,.18,3.07,10,10,0,0,0,1.56,3,12.51,12.51,0,0,0,4.08,3.62l.48.28.49.22.9.42,1.62.56c1,.24,1.81.5,2.5.63s1.24.36,1.76.51a11.3,11.3,0,0,1,1.39.46c.5.28-.22.6-2.05.91a15.61,15.61,0,0,1-3.57-.07A13.69,13.69,0,0,1,137,127a11.85,11.85,0,0,1-1.25-.45,7,7,0,0,1-1.28-.59,15.08,15.08,0,0,1-5.6-5,13.52,13.52,0,0,1-1.64-3.57c-.11-.31-.14-.67-.22-1a5.22,5.22,0,0,1-.11-1.06,4.7,4.7,0,0,1,0-1.12,6.07,6.07,0,0,1,.21-1.11,7.35,7.35,0,0,1,2.39-3.77,9.13,9.13,0,0,1,3.9-1.81,16.17,16.17,0,0,1,3.95-.32l.8,0h.19l0-.09a.7.7,0,0,1-.05-.16l0-.15-.07-.54c0-.42-.11-.84-.12-1.27a15.87,15.87,0,0,1,.43-5.23,11,11,0,0,1,2.62-4.91,11.46,11.46,0,0,1,4.68-3l1.29-.44,1.29-.25c.43-.08.86-.17,1.29-.24l1.28-.08,1.28-.07a9.36,9.36,0,0,1,1.4,0c.91.09,1.71.24,2.52.39,3.2.64,6.22,1.42,9.28,2.08a89,89,0,0,0,11.95,1.94,30.06,30.06,0,0,0,11.5-1,13.34,13.34,0,0,0,4.71-2.59l.94-.94.82-1a7.44,7.44,0,0,0,1-2.22,20.77,20.77,0,0,0-.62-11.15Z"/><path class="cls-1" d="M130.65,173.07c-8.16,7.48-23.23,8.28-31.62.81-7.34-6.54-7.3-21.25,1.57-27.43,1.18-.83,13.15-7.27,14.38-5.62,0,0,5,5.39,18.2,2.72C133.18,143.55,139.79,164.34,130.65,173.07Z"/><path class="cls-1" d="M113.94,142.42a4.85,4.85,0,0,0-.66.11c-.34.09-.7.19-1.07.31-.73.23-1.48.52-2.22.82-1.5.6-3,1.29-4.46,2q-1.11.54-2.19,1.11l-1.08.57-.51.29a3.12,3.12,0,0,0-.4.27,12.4,12.4,0,0,0-1.7,1.45l-.78.8-.68.9a16.58,16.58,0,0,0-2.56,6.1,20.75,20.75,0,0,0-.42,2.95,21.38,21.38,0,0,0,.08,3,18.09,18.09,0,0,0,1.54,5.74,13.66,13.66,0,0,0,3.58,4.64,17.34,17.34,0,0,0,5.2,3.07,21.15,21.15,0,0,0,5.29,1.32,25,25,0,0,0,2.73.15c.46,0,.91,0,1.37,0l1.36-.12a27.42,27.42,0,0,0,6.75-1.65,28.32,28.32,0,0,0,6-3.29c1.16-.83,1.58-.19,1,1.21a9.27,9.27,0,0,1-5.07,4.72,27.9,27.9,0,0,1-7.7,2,28.32,28.32,0,0,1-8-.24c-5.24-.91-10.43-3.49-13.64-8.11a20.27,20.27,0,0,1-2.22-4.38,23.13,23.13,0,0,1-1.08-4.78,21.29,21.29,0,0,1,1.06-9.69,17.25,17.25,0,0,1,6.64-8.48,79.41,79.41,0,0,1,9.25-4.46,25.86,25.86,0,0,1,3.08-1c.28-.06.56-.12.87-.16a4,4,0,0,1,1.15,0c.8,0,1.4.87,1.68,1a13.87,13.87,0,0,0,5.25,2.27,27,27,0,0,0,9,.25l3-.47c.33-.18.34.23.43.48l.23.79.23.81.18.7c.38,1.54.71,3.08,1,4.64.83,4.82,1.4,9.68.59,14.66a18.63,18.63,0,0,1-.78,3.24,11.22,11.22,0,0,1-2.17,3.95,2.81,2.81,0,0,1-1.86,1,3,3,0,0,1-.77,0c-.33-.09-.31-.51,0-1.14s.78-1.53,1.32-2.72c1.6-3.55,1.89-7.78,1.65-12a54.37,54.37,0,0,0-.77-6.41c-.19-1.07-.4-2.14-.65-3.21l-.39-1.59c0-.06,0,0,0,0l-.62.11-1.26.14c-.44,0-.88.1-1.33.12a29.73,29.73,0,0,1-5.41-.12,21.23,21.23,0,0,1-5.39-1.36,14.59,14.59,0,0,1-2.57-1.33,10.61,10.61,0,0,1-1.16-.87.09.09,0,0,0-.06,0Z"/><path class="cls-1" d="M197.39,123.57c11,4.1,31.63,7.21,29.53,23.25-1,7.35-7.42,12.5-14.44,13.64-9.76,1.57-16.26-4.3-18.92-13.1C193.56,147.36,199.82,134.84,197.39,123.57Z"/><path class="cls-1" d="M206.67,158.61a16.5,16.5,0,0,0,7.67-.31,18.39,18.39,0,0,0,3.64-1.44,17,17,0,0,0,3.19-2.26,14.07,14.07,0,0,0,3.28-4.54,13.46,13.46,0,0,0,1.2-4.81,12.31,12.31,0,0,0-.61-4.91c-1.06-3.15-3.6-5.72-6.58-7.61a40,40,0,0,0-8.69-3.95c-3.89-1.33-8-2.22-11.87-3.91-1.22-.54-.77-1.18.5-1.51a11,11,0,0,1,5.67.3,82,82,0,0,1,12.22,4.5,30.2,30.2,0,0,1,5.75,3.58,17.44,17.44,0,0,1,4.56,5.33,16.89,16.89,0,0,1,1.49,4,18.23,18.23,0,0,1,.33,4.29,17.21,17.21,0,0,1-.73,4.23,15.22,15.22,0,0,1-1.85,3.88,18.23,18.23,0,0,1-6.93,6.07,20.31,20.31,0,0,1-8.83,2.21,16,16,0,0,1-10.58-3.43,18.18,18.18,0,0,1-4.23-4.91,24.05,24.05,0,0,1-1.46-2.86c-.19-.49-.41-1-.58-1.48l-.6-1.81.29-.62.25-.54.36-.85c.24-.57.46-1.14.67-1.72a41.15,41.15,0,0,0,2.38-11.75c0-.87.06-1.72,0-2.59,0-1.62-.12-2.66,0-3.42a2.61,2.61,0,0,1,.51-1.64,3.54,3.54,0,0,1,.45-.58c.27-.22.58,0,.91.56a9.21,9.21,0,0,1,.49,1.16,12,12,0,0,1,.35,1.7,32.16,32.16,0,0,1-.46,10.74,43.06,43.06,0,0,1-1.39,5.3c-.29.87-.6,1.74-.93,2.6-.16.43-.35.86-.53,1.29l-.24.54h0s0,0,0,0l0,.1c.1.28.17.57.29.84a18.64,18.64,0,0,0,4.1,6.57,15.18,15.18,0,0,0,1.41,1.25,13.71,13.71,0,0,0,1.59,1,11.86,11.86,0,0,0,1.7.78c.3.11.6.18.9.28a5.61,5.61,0,0,0,.92.22Z"/><path class="cls-1" d="M144,364.82c-2.91.06-5.82.05-8.77-.14a32.19,32.19,0,0,1-4.54-.57c-.2,0-.39-.08-.6-.14l-.33-.1a3.16,3.16,0,0,1-.46-.16,4,4,0,0,1-1.64-1A2.63,2.63,0,0,1,127,361c0-.32,0-.65.07-1l0-.55c.38-5.85,1.3-11.56,2.24-17.26,2-11.38,4.44-22.63,6.89-33.86q2.7-12.29,5.22-24.58c1.46-7.21,2.9-14.45,3.78-21.7.16-1.81.42-3.62.5-5.43s.14-3.65.18-5.49l.13-11.07c.09-7.39.25-14.8.67-22.2a201.32,201.32,0,0,1,2.31-22.15,96.34,96.34,0,0,1,2.13-9.72,49.67,49.67,0,0,1,3.54-9.4,19.86,19.86,0,0,1,6.62-7.85,12.65,12.65,0,0,1,5-1.86,19.21,19.21,0,0,1,5.2.13,26.15,26.15,0,0,1,11.75,5.48,47.59,47.59,0,0,1,8.87,9.29,66.37,66.37,0,0,1,6.52,11,56.78,56.78,0,0,1,4.19,12.05c.55,2.62.4,3.83.12,3.77s-.8-1.28-1.65-3.31a110.7,110.7,0,0,0-10.1-19.16,51.42,51.42,0,0,0-7.89-9.4,26.71,26.71,0,0,0-10.1-6.1,17,17,0,0,0-5.64-.75,10.3,10.3,0,0,0-2.59.48,10.5,10.5,0,0,0-2.36,1.2,15.13,15.13,0,0,0-3.86,4.09A30.52,30.52,0,0,0,156,181a68,68,0,0,0-3.45,12c-.84,4.12-1.44,8.31-1.92,12.53-.94,8.44-1.37,17-1.63,25.55-.16,5.13-.22,10.32-.27,15.56,0,2.61-.05,5.24-.13,7.89,0,1.33-.08,2.67-.2,4l-.38,4c-1.32,10.58-3.49,21-5.67,31.31-2.44,11.33-5,22.61-7.31,33.94q-1.76,8.49-3.19,17c-.44,2.84-.91,5.69-1.22,8.54-.18,1.43-.38,2.86-.46,4.28l-.17,2.14-.06.76a.37.37,0,0,0,.14.43,1.8,1.8,0,0,0,.56.25c.37.11.78.19,1.19.27.82.15,1.69.24,2.55.32,1.74.15,3.5.21,5.26.23,3.53,0,7.07-.07,10.61-.26,7.08-.39,14.15-1.1,21.18-2.08a186.52,186.52,0,0,0,31.44-6.88,59.92,59.92,0,0,0,14.44-6.62,26.45,26.45,0,0,0,3-2.42,17,17,0,0,0,1.29-1.4,6.51,6.51,0,0,0,.44-.57c0-.08.16-.15.13-.25l-.07-.27c-.65-2.56-1.29-5.11-1.94-7.66-4.06-16.15-8.1-32-11.91-48-.83-3.53-1.68-7-2.47-10.55-3-13.24-3.52-17.55-3.3-20.55a15.75,15.75,0,0,1,.17-2c.37-1.38,1.8,4,4,13.6,3.31,14.32,6.9,29,10.57,43.86q2.78,11.15,5.6,22.43.7,2.81,1.42,5.63l.84,3.32.18.71c.08.12-.07.2-.12.3l-.2.29-.82,1.14c-.41.5-.71.88-1.1,1.28a34.31,34.31,0,0,1-10.25,6.91,99,99,0,0,1-16.72,5.84c-5.68,1.49-11.42,2.67-17.18,3.65A253.28,253.28,0,0,1,144,364.9Z"/><path class="cls-1" d="M141.26,239.76c.1-5.65-.07-11.39,0-17.15s.29-11.53.75-17.28c.35-4.14.56-8.35,1.08-12.53a95.17,95.17,0,0,1,1.93-11,55,55,0,0,1,1.59-5.42,39.56,39.56,0,0,1,2.23-5.25,25.44,25.44,0,0,1,7.22-8.93,19.75,19.75,0,0,1,5.12-2.79,20,20,0,0,1,5.65-1.25,25.09,25.09,0,0,1,10.09,1.08,38.89,38.89,0,0,1,9.11,4.21,46.17,46.17,0,0,1,9.74,8.28,37,37,0,0,1,6.82,10.84c1,2.53.07,2.38-1.45.68s-3.93-4.76-6.87-8.27a44.69,44.69,0,0,0-8.93-8.23,33.86,33.86,0,0,0-10.83-5.09,21.3,21.3,0,0,0-11.61.2,18.62,18.62,0,0,0-9.35,6.85c-2.92,3.86-4.65,8.77-5.83,13.76a113.44,113.44,0,0,0-2.24,15.42l-.7,8.61-.3,4.29-.2,4.29c-.23,5.73-.17,11.47-.1,17.24.07,7.09.05,14.32-1.15,21.41a98,98,0,0,1-4,15.77l-1.38,3.82-.34,1-.24.65c0,.13-.13.19-.23.27l-.27.23-.88.67-.82.61a62,62,0,0,1-6.94,4.25,56.85,56.85,0,0,1-23.92,6.9,44.59,44.59,0,0,1-5.54-.08,29.17,29.17,0,0,1-7.22-1.36,6.72,6.72,0,0,1-2.9-1.63,4.86,4.86,0,0,1-.75-.8c-.21-.38.38-.49,1.59-.34l5.43.85a49.54,49.54,0,0,0,21.47-1.73,60.76,60.76,0,0,0,10.29-4.24c1.65-.86,3.27-1.81,4.84-2.82.78-.51,1.55-1,2.3-1.59.36-.26.77-.57,1.06-.8h0l.13-.35a106.83,106.83,0,0,0,4.81-16.28,87.12,87.12,0,0,0,1.7-16.87Z"/><path class="cls-1" d="M101.91,232.53q2.15-8.19,4.19-16.43c.49-2,.9-4,1.41-6,.23-.89.43-1.73.7-2.68a8.63,8.63,0,0,1,1.55-2.88,22.49,22.49,0,0,1,4.3-3.91,70.64,70.64,0,0,1,9.57-5.62c2.91-1.46,5.84-2.89,8.76-4.25A94.87,94.87,0,0,1,143.83,186c2.45-.79.49,3.06-3.86,4.87-3.84,1.63-7.66,3.28-11.43,5a119.65,119.65,0,0,0-11,5.71,27.52,27.52,0,0,0-3,2.11,14.72,14.72,0,0,0-2.53,2.52,7.5,7.5,0,0,0-.84,1.38c-.09.24-.15.43-.23.7l-.23,1-.9,3.79q-2,8.31-4.13,16.6-1.32,5.1-2.65,10.2c-1.33,5.14-2.77,10.29-4.15,15.39-1,4-2,7.88-3.11,11.81-.24.86-.48,1.71-.75,2.58-1,3.21-1.65,4.14-2.6,4.53a3.1,3.1,0,0,1-.67.25c-.67.08-.67-1.37,0-3.69,1.88-7,3.85-14.29,5.82-21.65,1.46-5.49,2.93-11,4.31-16.53Z"/><path class="cls-1" d="M101.07,234.25a29.74,29.74,0,0,1,3.22-6,36.73,36.73,0,0,1,4-4.69c.52-.56,3.15-2.64,3.42-2.87,0-.06,1.16-.82,2.38-1.58l3-1.78c.2-.13,3.16-1.75,6.32-3.13s6.49-2.64,7.16-3a25.71,25.71,0,0,1,3.78-1.27,36.92,36.92,0,0,1,4.15-.91c.62-.06.42,2.4.36,2.44-.42.14-1.08.41-1.66.63s-1.21.46-1.84.66a48.68,48.68,0,0,0-4.88,2c-1.84.85-3.43,1.72-3.55,1.79-1.16.75-2.31,1.51-3.43,2.31l-1.57,1.1c-1.44,1-2.86,2.09-4.18,3.24s-2.37,2.27-3.49,3.39a36,36,0,0,0-4.5,5.16A23.3,23.3,0,0,0,108,235c-.33.63-.71,1.21-1,1.86-.16.46-1.36.45-2.84.38a3.41,3.41,0,0,1-2.28-1.28C101.27,235.31,100.94,234.5,101.07,234.25Z"/><path class="cls-1" d="M165,223.61c2.9-.79,5.82-1.45,8.75-2,1.06-.22,2.11-.5,3.17-.69l3.14-.53c.67-.11.7-.1,1-.13l.66-.08a4.53,4.53,0,0,0-.28-.9c-.29-.65-.7-1.44-1.09-2.14-.79-1.45-1.74-2.86-2.64-4.31a14.92,14.92,0,0,1-2.63-6.19c-.08-.72.69-.75,1.54-.39a4.22,4.22,0,0,1,2.23,2c.81,1.81,1.89,3.61,3,5.52.54.95,1.09,1.94,1.59,3,.13.26.26.51.37.78l.49,1.11c.35.91.68,1.79,1,2.66.08.26.18.52.26.78L176.31,224c-2.9.57-5.79,1.17-8.63,1.92-.88.21-1.75.47-2.62.71s-1.74.51-2.59.81a47.68,47.68,0,0,0-7.57,3.09,27,27,0,0,0-5,3.54c-.33.29-.64.6-1,.88-1.18,1.13-1.66,1.37-2.5,1.07a3.47,3.47,0,0,1-.57-.19c-.57-.29-.42-1.14.45-2.21,2.62-3.12,6.32-5.3,10.08-7a67.62,67.62,0,0,1,8.63-3.06Z"/><path class="cls-1" d="M213.09,229.74a104.42,104.42,0,0,1-11.52,19.44A50.42,50.42,0,0,1,196,255.4a29.7,29.7,0,0,1-6.09,4.35,15.09,15.09,0,0,1-1.73.8l-.87.38c-.3.11-.62.19-.93.29a14,14,0,0,1-3.87.6,14.42,14.42,0,0,1-7.37-2.17,25.2,25.2,0,0,1-5.65-4.86,57.28,57.28,0,0,1-7.24-10.71,67.08,67.08,0,0,1-6.15-15.21c-.39-1.67.35-1.62,1.38-.45a22.16,22.16,0,0,1,3.58,6.24A77.74,77.74,0,0,0,168.4,249a36.61,36.61,0,0,0,5,6.07,16.1,16.1,0,0,0,6.44,3.88,10.07,10.07,0,0,0,4.44.19,11.32,11.32,0,0,0,2.22-.62,22.52,22.52,0,0,0,2.17-1,31.67,31.67,0,0,0,7.62-6.18c5-5.35,8.86-11.77,12.26-18.36,2.07-4.08,4-8.27,5.67-12.52a186.11,186.11,0,0,0,6.76-19.7c.22-.82.43-1.63.63-2.45l.28-1.21c0-.2.09-.4.12-.59a1.26,1.26,0,0,0,0-.42c-.35-3.34-1.65-7-4.15-8.89l-.61-.42c-.21-.13-.45-.21-.66-.32a7.38,7.38,0,0,0-1.4-.45c-.45-.09-.89-.08-1.27-.14s-.77,0-1.11,0l-.48,0L212,186l-.77.1c-.48,0-.86.07-1.19.08a3.21,3.21,0,0,1-.9-.13,4.13,4.13,0,0,1-.77-.24c-.31-.17-.09-.52.62-1a8.57,8.57,0,0,1,3.69-1.37l1.18-.14c.4,0,.81,0,1.22.06.2,0,.41,0,.62,0l.61.15a5.79,5.79,0,0,1,1.21.36,9.41,9.41,0,0,1,4,3.05,14.53,14.53,0,0,1,2.27,4.29,20,20,0,0,1,.63,2.3c.1.39.15.79.22,1.18,0,.2.06.4.08.6l.07.69c0,.24,0,.52-.07.73l-.08.44-.18.79-.37,1.54c-.26,1-.54,2-.82,3-.57,2-1.19,4-1.83,6a189.76,189.76,0,0,1-8.24,21.16Z"/><path class="cls-1" d="M193.75,222.36c2.75-3.9,5.41-7.89,7.9-12,.92-1.48,1.73-3,2.59-4.52.75-1.32,1.47-2.66,2.12-4a10.37,10.37,0,0,0,1-4,8,8,0,0,0-1-3.91,42.2,42.2,0,0,0-2.41-3.83c-.39-.59-.76-1.19-1.13-1.82a13.61,13.61,0,0,1-1-2.22l-.26-.7c-.07-.24-.11-.47-.16-.71l-.16-.7-.07-.36a1.4,1.4,0,0,1,0-.29l.06-1.15a1.13,1.13,0,0,1,.15-.49,1,1,0,0,1,.42-.4,2.08,2.08,0,0,1,1.33,0,5.16,5.16,0,0,1,1.47.71,14.23,14.23,0,0,1,1.59,1.21l.66.57.5.46a30.54,30.54,0,0,1,3.6,3.94c.34.45.35.8.13.94a1.71,1.71,0,0,1-1.2,0,9.17,9.17,0,0,1-4.1-2.37l-.94-.87-.18-.17h0a0,0,0,0,0,0,0s0,0,0,0l0,0a.8.8,0,0,0,.05.16,32.6,32.6,0,0,0,2.58,4.36,15.47,15.47,0,0,1,2.44,5.37,12,12,0,0,1-1,7.21c-.95,2.09-2,4.07-3.12,6-2.45,4.23-5.1,8.3-7.83,12.33-1.7,2.46-3.41,4.92-5.2,7.32-1.34,1.83-2.74,3.63-4.2,5.38-.35.45-.75.87-1.13,1.3s-.75.86-1.18,1.27l-.62.62c-.11.1-.19.2-.33.32l-.48.32-1,.64c-.15.18-.35,0-.52,0a3.32,3.32,0,0,1-.51-.23,5.65,5.65,0,0,1-.73-.56l-.35-.31-.25-.26c-.33-.34-.6-.71-.89-1.06a24.17,24.17,0,0,1-1.49-2.24,43.4,43.4,0,0,1-2.41-4.7c-.3-.71-.65-1.38-.91-2.11-1-2.69-1.08-3.63-.61-4.42a2.69,2.69,0,0,1,.34-.53c.44-.42,1.23.54,2,2.43a79.33,79.33,0,0,0,4,8.24c.38.64.79,1.26,1.21,1.84.22.26.43.56.66.78l.16.17s0,0,0,0h0l.09-.1c.52-.54,1.05-1,1.56-1.63a129,129,0,0,0,8.65-11.39Z"/><path class="cls-2" d="M175.69,360.25c-1.26,15.54-2.91,31.11-4.49,46.66l-4.95,46.66c-.13,1.07,2.71,1.38,2.81.31L174,407.2c1.58-15.56,3.22-31.11,4.5-46.74C178.59,359.6,175.75,359.4,175.69,360.25Z"/><path class="cls-2" d="M160.74,451.9l-.21-1.26-.13-1.36c-.09-.9-.17-1.81-.21-2.73-.12-1.84-.2-3.69-.26-5.54-.13-3.7-.19-7.41-.24-11.13-.08-7.42-.07-14.86,0-22.3.1-14.87.36-29.75.7-44.62,0-1-2.82-1.1-2.82-.07-.34,14.89-.6,29.78-.7,44.67,0,7.45-.07,14.9,0,22.36,0,3.73.1,7.45.24,11.19.06,1.87.13,3.74.26,5.62,0,.93.12,1.88.22,2.83l.13,1.42.25,1.49C158.12,453.36,160.86,452.61,160.74,451.9Z"/><path class="cls-2" d="M203.51,353.87l13.89,94.46c.14,1.09,3,.67,2.8-.41l-13.89-94.46C206.19,352.6,203.38,353,203.51,353.87Z"/><path class="cls-2" d="M211.56,450.22l-23.79-91.75c-.26-1.06-3-.34-2.74.71l23.79,91.75C209,451.77,211.78,451.05,211.56,450.22Z"/><path class="cls-1" d="M159.45,452.79c-1.52-.37-1.72,5.92-1.45,6.75,1.14,3.51,45.62,7.26,39,2.84C188.46,456.74,169.07,455.61,159.45,452.79Z"/><path class="cls-1" d="M193.49,458.57c.38.11,1.5.75,2.34,1.18l1.33.71a1.21,1.21,0,0,1,.48.37l.37.38.73.76.37.38a1.2,1.2,0,0,1,.15.36,1.91,1.91,0,0,1,0,.91,2.08,2.08,0,0,1-.43.8,3.74,3.74,0,0,1-1.63,1,12.15,12.15,0,0,1-2.71.45,41,41,0,0,1-4.22.08c-1.67,0-3.33,0-5-.15-5.81-.44-11.56-1.19-17.28-2.18-2.55-.46-5.1-.87-7.65-1.56a16.44,16.44,0,0,1-1.71-.58,3,3,0,0,1-1.83-1.62,5.85,5.85,0,0,1-.16-1.24c0-.29,0-.58,0-.87,0-.57,0-1.14.1-1.71a13.76,13.76,0,0,1,.32-1.73,5,5,0,0,1,.9-1.9,1.37,1.37,0,0,1,1.22-.48c.32.09.39.26.34.39s-.21.28-.31.47a.76.76,0,0,0,0,.61,10.08,10.08,0,0,1,.67,3.93c0,.33,0,.65,0,1v.28h0l.07,0,.4.17c.58.22,1.24.42,1.91.6,1.36.36,2.77.67,4.2,1,2.85.58,5.76,1.09,8.68,1.59A103.5,103.5,0,0,0,187.32,463c1.11.06,2.23.1,3.34.11h2.47a3.79,3.79,0,0,0,1.42-.22.21.21,0,0,0,.13-.29.66.66,0,0,0-.24-.23l-.59-.39c-.25-.15-.55-.29-.84-.44l-.11-.06-.21-.09-.47-.19-.94-.38c-1.27-.48-2.55-.93-3.87-1.29a107.81,107.81,0,0,0-12.22-2.71c-3.2-.54-6.37-.84-9.57-1.32-.7-.11-1.4-.2-2.11-.33-2.63-.51-3.43-1-3.77-1.86a3.48,3.48,0,0,1-.22-.61c-.06-.66,1.08-.83,3-.57,5.59.73,11.59,1.47,17.62,2.65a71.76,71.76,0,0,1,13.41,3.74Z"/><path class="cls-1" d="M210.35,451.2c-1.55.24.67,6.14,1.23,6.8,2.4,2.81,44.95-10.66,37.11-12.21C238.68,443.81,220.32,450.15,210.35,451.2Z"/><path class="cls-1" d="M244,443.59a24.78,24.78,0,0,1,2.62.19l1.5.15a1.3,1.3,0,0,1,.58.16l.49.21,1,.43.48.21c.15.08.19.18.28.27a1.89,1.89,0,0,1,.37.83,2,2,0,0,1-.09.91,3.61,3.61,0,0,1-1.14,1.52,11.71,11.71,0,0,1-2.32,1.45c-2.08,1-2.73,1.22-3.88,1.68-1.56.6-3.09,1.24-4.66,1.76-5.53,1.8-11.13,3.3-16.8,4.57-2.53.54-5,1.13-7.67,1.46a14.7,14.7,0,0,1-1.8.12,3,3,0,0,1-2.31-.8,5.52,5.52,0,0,1-.61-1.08c-.13-.27-.24-.53-.35-.8a15.44,15.44,0,0,1-.55-1.62,11.64,11.64,0,0,1-.37-1.72,4.84,4.84,0,0,1,.11-2.1,1.35,1.35,0,0,1,.94-.91c.33,0,.46.09.46.23a3.62,3.62,0,0,1-.1.55.78.78,0,0,0,.23.57,10,10,0,0,1,2.12,3.37c.11.31.23.62.35.91l.11.25h.52c.61,0,1.3-.09,2-.18,1.39-.17,2.82-.43,4.25-.7,2.86-.56,5.74-1.19,8.63-1.84A103.43,103.43,0,0,0,240,450c1.05-.37,2.1-.76,3.13-1.16l1.53-.63.76-.32a4.16,4.16,0,0,0,1.23-.74.21.21,0,0,0,0-.32.74.74,0,0,0-.3-.13l-.69-.13c-.3-.05-.62-.06-.95-.09h-1.88c-1.35,0-2.71.11-4.07.28a106,106,0,0,0-12.33,2.15c-3.16.72-6.21,1.64-9.35,2.42-.69.17-1.37.35-2.07.51-2.63.53-3.55.41-4.2-.29a2.75,2.75,0,0,1-.43-.49c-.31-.58.68-1.17,2.51-1.65,5.45-1.45,11.28-3.05,17.31-4.26A71.86,71.86,0,0,1,244,443.51Z"/><path class="cls-1" d="M285.09,162.91l.27-14.22c0-1.74-.06-3.47,0-5.2l.38-18.3c0-2.71,0-5.43-.06-8.12a76.35,76.35,0,0,1,0-10.37.76.76,0,0,1,.06-.18.58.58,0,0,1,.11-.25.5.5,0,0,1,.41-.23,1.28,1.28,0,0,1,.6.11,1.68,1.68,0,0,1,.7.52,7,7,0,0,1,1.73,4.58c.06,7,0,14.08-.47,21.18-.25,4.25-.06,8.67-.09,13l-.19,14.35c-.05,2.94-.09,5.89-.14,8.83-.06,4.46-.19,8.94-.18,13.36,0,3.44.18,6.82.26,10.23,0,.75.07,1.48.07,2.24,0,2.8-.28,3.69-1.22,4.26a4.3,4.3,0,0,1-.64.38c-.72.24-1.28-.91-1.44-3-.46-6.08-.45-12.46-.42-18.88l.15-14.34Z"/><path class="cls-1" d="M378.17,100.79q7.93.08,15.87.06l7.93,0,9.8-.17v.56q0,6.68,0,13.33l-.59,41.26c-.07,6.11-.05,12.24,0,18.3.07,7.78.31,15.59-.08,23.37-.23,4.84-3.58-1.32-3.6-10.28,0-15.89.13-31.77.63-47.78.3-9.58.17-19.55.25-29.35l0-3.77,0-2.19-10.83.13-12.4,0-19.91-.13c-10-.09-20.14-.29-30.11-.33-7.75,0-15.35.14-23,.25l-5,.08c-6.3,0-8.31-.19-9.66-1.12a5.89,5.89,0,0,1-.89-.64c-.61-.71,2-1.3,6.58-1.5,13.71-.58,28.16-.51,42.65-.39,10.77.08,21.58.23,32.36.25Z"/><path class="cls-1" d="M337,73.94l16.82.46c2,0,4.09,0,6.13.07,7.2.23,14.39.51,21.59.64,3.19,0,6.4,0,9.56-.09,4.07-.12,8.15-.46,12.22-.19,2.54.17-.58,3.6-5.29,3.74-8.35.22-16.69.11-25.08-.4-5-.31-10.25-.21-15.38-.32l-16.92-.42c-3.47-.07-6.94-.14-10.41-.17-5.25,0-10.53-.07-15.74.09-4.05.15-8,.52-12,.85l-2.62.24c-3.28.24-4.34.07-5.11-.82a3.44,3.44,0,0,1-.5-.61c-.36-.69.95-1.36,3.36-1.7a178.52,178.52,0,0,1,22.36-1.48c5.66-.1,11.34,0,17,0Z"/><path class="cls-1" d="M361.54,157.1c-6.22,0-12.38-.2-18.55-.34-2.25,0-4.5,0-6.75-.07l-2.06-.07-.65-.06,0,1,0,2.1-.11,4.85-.32,9.67c-.12,3.51-.15,7-.11,10.53,0,4.47.32,8.94.11,13.4-.12,2.8-3.65-.6-3.76-5.83-.18-9.24.28-18.39.8-27.57.1-1.62.14-3.25.16-4.89v-2.74c0-1.29,0-2.58,0-3.87l8.69.11c6.21.13,12.41.28,18.61.34l2.86,0h1.42l2.1,0,1.08,0h.53v.52l0,2.07,0,3.29c0,5.81-.1,11.63-.13,17.38,0,4.46.16,8.84.28,13.25,0,1,.09,1.92.1,2.9,0,3.62-.17,4.77-1.09,5.56a4.12,4.12,0,0,1-.63.52c-.71.35-1.32-1.13-1.53-3.8-.64-7.91-.54-16.25-.49-24.58l0-9.28,0-3.91v-.2c0-.07,0-.16,0-.13H362s.11,0-.44,0Z"/><path class="cls-1" d="M367.38,201.91l-25.6-.63-9.33-.11c-11-.27-21.92-.53-32.88-.57-4.87,0-9.75.09-14.58.23l-9.3.38c-3.1.12-6.2.21-9.3.13-3.87-.1.89-3.62,8.06-3.9,12.69-.45,25.39-.45,38.18,0,7.65.29,15.61.18,23.42.34l25.79.56,15.86.3c8,.08,16.05.2,24,.05,6.18-.1,12.22-.47,18.33-.76,1.34-.07,2.66-.16,4-.21,5-.17,6.64,0,7.74.93a3.77,3.77,0,0,1,.72.61c.5.71-1.53,1.34-5.21,1.64-10.9.87-22.44,1.24-34,1.28-8.61,0-17.24-.1-25.86-.21Z"/><path class="cls-1" d="M151.36,314.3c.26-2.34,4.37-10.72,6.15-12,.87-.64,3.45,4.53,4.24,6.16C163.65,312.39,154.05,314.53,151.36,314.3Z"/><path class="cls-1" d="M190.69,331.6c1.71-1.62,10.27-5.35,12.46-5.18,1.07.08-.31,5.7-.76,7.45C201.29,338.1,192.59,333.52,190.69,331.6Z"/><path class="cls-1" d="M177.1,291.36c-.21-1.85-3.46-8.49-4.87-9.51-.69-.5-2.74,3.59-3.36,4.88C167.37,289.85,175,291.54,177.1,291.36Z"/><path class="cls-1" d="M146.28,344.56c.21-1.85,3.46-8.49,4.87-9.51.69-.5,2.74,3.59,3.36,4.88C156,343.05,148.42,344.74,146.28,344.56Z"/><path class="cls-1" d="M199.21,296.32c1.66.85,6.8,5.91,7.3,7.42.24.75-4.22.9-5.62.94C197.51,304.75,198.35,298,199.21,296.32Z"/><path class="cls-1" d="M164.22,111.85a4.39,4.39,0,0,0-1.83.5,4.32,4.32,0,0,0-.52.44,5.57,5.57,0,0,0-1.68,2.42,10.07,10.07,0,0,0-.39,1.43,13,13,0,0,1-.51,1.92c-.07.2,0,.17,0,0s-.27-.49-.42-.88a5.59,5.59,0,0,1-.06-4.29,8.19,8.19,0,0,1,1.46-2.56,5.3,5.3,0,0,1,3-1.42l.95-.07a5.17,5.17,0,0,1,1,.11,3.67,3.67,0,0,1,1.41.7,5.86,5.86,0,0,1,1,1,7.14,7.14,0,0,1,1,1.76c0,.13.09.27.13.41.13.53.11.73.15.84l0,.07a2.61,2.61,0,0,0-.44-.39,13,13,0,0,0-2.75-1.91,1.84,1.84,0,0,0-.7-.15,2.61,2.61,0,0,0-.71.08Z"/><path class="cls-1" d="M182.65,106.77a3,3,0,0,0-1.3.43c-.15.1-.23.27-.38.4a6.08,6.08,0,0,0-1.37,2.15,10,10,0,0,0-.33,1.22,10.74,10.74,0,0,1-.49,1.63c-.07.17,0,.15-.05,0s-.28-.42-.41-.75a4.66,4.66,0,0,1-.28-3.64,8.87,8.87,0,0,1,1-2.3,4.19,4.19,0,0,1,2.5-1.53,5,5,0,0,1,.85-.1,3.11,3.11,0,0,1,1,.08,2.7,2.7,0,0,1,1.25.7,4.74,4.74,0,0,1,.75,1,5.48,5.48,0,0,1,.7,1.57l.09.35a5.18,5.18,0,0,1,.06.73.14.14,0,0,0,0,.07,1.64,1.64,0,0,0-.38-.34,9.07,9.07,0,0,0-1.26-1,6.08,6.08,0,0,0-1.08-.68.85.85,0,0,0-.45,0c-.1,0-.1,0-.4.11Z"/><path class="cls-1" d="M186.94,98.37a3.76,3.76,0,0,1-1.31,1.22,3.17,3.17,0,0,1-1.16.28,10.8,10.8,0,0,0-6.76,2.46,9.09,9.09,0,0,0-3.11,5.2,10.12,10.12,0,0,0,.43,5.36,18.94,18.94,0,0,0,2.77,4.93,15.5,15.5,0,0,0,2.28,2.43,9.05,9.05,0,0,0,2.6,1.54c.15.07.32.06.45.16a.84.84,0,0,1-.17,1.26c-.1.08-.25.22-.33.19-.85-.26-1.91.1-2.76-.51a23,23,0,0,1-4.13-3.68,13.27,13.27,0,0,1-1.24-1.82,19.16,19.16,0,0,1-1.15-2.57,13,13,0,0,1-.59-1.7,13.22,13.22,0,0,1-.55-3.11,12.74,12.74,0,0,1,.44-4,12,12,0,0,1,2-4,11.66,11.66,0,0,1,6.89-4l1.49-.19c.45,0,.84,0,1.17,0a7.12,7.12,0,0,1,1.13,0A12.14,12.14,0,0,1,186.94,98.37Z"/><path class="cls-1" d="M166.82,103.09c-1.1,1.31-1.47,1.52-1.81,1.44a20.12,20.12,0,0,0-3.3-.38,9.31,9.31,0,0,0-2.69.13,7.39,7.39,0,0,0-3.74,2.62c-.27.4-.56.78-.82,1.19s-.34.89-.51,1.33c0,.07,0,.17-.1.21a2,2,0,0,1-1.42-.51c-.1-.08-.27-.2-.26-.24.15-.37-.57-1.1-.33-1.51a3.77,3.77,0,0,0,.28-.57l.29-.59c.19-.4.36-.82.58-1.21a4,4,0,0,1,.74-.81,5.7,5.7,0,0,1,.55-.42c.2-.13.42-.23.62-.35l.72-.51c.34-.22.82-.45,1.34-.73a10.9,10.9,0,0,1,3.93-.88,13.38,13.38,0,0,1,5.38,1A3.33,3.33,0,0,1,166.82,103.09Z"/><path class="cls-1" d="M181.61,136.68a5.93,5.93,0,0,1-1.39.44,6.26,6.26,0,0,1-1.44-.05,6.18,6.18,0,0,1-1-.2,7.07,7.07,0,0,1-2.44-2c-.28-.33-.56-.63-.82-.95a4.55,4.55,0,0,1-.75-1.41c0-.16-.07-.11,0,0a5.06,5.06,0,0,0,.75.21,7.53,7.53,0,0,1,2.64,1.23,3.19,3.19,0,0,0,1.4.49,3.8,3.8,0,0,0,.73.11,2.3,2.3,0,0,0,.37,0l.38-.06.24,0,.24-.1.49-.19a5.31,5.31,0,0,0,1.36-1.12c.32-.35.55-.75.86-1.14l.22-.25a5.51,5.51,0,0,1,.51-.44.13.13,0,0,0,0-.05,2.48,2.48,0,0,0,0,.47c0,.47,0,1,0,1.57a8.15,8.15,0,0,1-.49,1.57,8.76,8.76,0,0,1-.77,1.07,5.73,5.73,0,0,1-1.12.86Z"/><path class="cls-2" d="M167.45,442.24a4.56,4.56,0,0,1-1.58.47,19.82,19.82,0,0,1-2.37.18,41.69,41.69,0,0,1-5-.25,16.94,16.94,0,0,0-.4,3.55,44.91,44.91,0,0,0,5.45.27,23.48,23.48,0,0,0,2.85-.21,12,12,0,0,0,1.54-.35,5.38,5.38,0,0,0,1.77-.9A22,22,0,0,0,167.45,442.24Z"/><path class="cls-2" d="M215.91,438.51a3.18,3.18,0,0,1-1.18.9,13.57,13.57,0,0,1-2,.84q-1.11.36-2.28.63c-.75.17-1.62.34-2.28.44,4.14,2-3.95,1.53.42,3.55,1-.15,1.77-.31,2.66-.51s1.73-.43,2.59-.71a16.78,16.78,0,0,0,2.61-1.08,6.25,6.25,0,0,0,2.62-2.3A23.83,23.83,0,0,0,215.91,438.51Z"/><path class="cls-1" d="M322.12,92.59a3.19,3.19,0,0,0-1.29-1.31l-.52-.31c-.16-.06-.29-.15-.46-.2a5.38,5.38,0,0,0-1.14-.3,9.46,9.46,0,0,0-1-.11,7.18,7.18,0,0,1-1.37-.2A3.16,3.16,0,0,1,314,88.29a2.47,2.47,0,0,1-.21-.75l-.05-.38,0-.4c0-.24,0-.55,0-.74l.14-.58a6.23,6.23,0,0,1,2.7-3.8,7.73,7.73,0,0,1,3.83-1.2,6.42,6.42,0,0,1,2.59.37,4.08,4.08,0,0,1,2.09,1.63c.32.49-.43.89-1.25,1.2-.41.16-.82.29-1.18.41a1.27,1.27,0,0,1-.84.07,4.27,4.27,0,0,0-2.63-.17,3.48,3.48,0,0,0-2.15,1.55,2.62,2.62,0,0,0-.35.88.67.67,0,0,0,0,.42.46.46,0,0,0,.31.28,3.33,3.33,0,0,0,.71.13,13.64,13.64,0,0,1,3.21.65,9.36,9.36,0,0,1,1.55.79,8.68,8.68,0,0,1,1.39,1.08,4.81,4.81,0,0,1,1.28,2,3.78,3.78,0,0,1-.12,2.53,5.05,5.05,0,0,1-2.35,2.45,7.67,7.67,0,0,1-3,.89,8.24,8.24,0,0,1-4.82-.92,6.16,6.16,0,0,1-.94-.59c-1.06-.89-1.1-1.44-.59-2.14a3.49,3.49,0,0,1,.37-.47,1.41,1.41,0,0,1,1.78,0,7.33,7.33,0,0,0,2.66,1,5.11,5.11,0,0,0,2.55-.27,3.05,3.05,0,0,0,1.29-.91,1.16,1.16,0,0,0,.16-.33c0-.08,0-.17-.06-.33Z"/><path class="cls-1" d="M328.89,95.92a8,8,0,0,1-1.54-4.62,9.89,9.89,0,0,1,0-1.63,9.78,9.78,0,0,1,2.26-5.24,5.29,5.29,0,0,1,2.42-1.6,3.34,3.34,0,0,1,3.5.82c.25.28-.32.9-.95,1.46-.31.28-.63.55-.89.74s-.43.37-.54.31a.9.9,0,0,0-.7,0,4.12,4.12,0,0,0-1.31,1.24,5,5,0,0,0-.66,2.79A6.21,6.21,0,0,0,331,93.3a3.06,3.06,0,0,0,1.12,1.29,3.73,3.73,0,0,0,2.8.29,4.3,4.3,0,0,0,.57-.2l.55-.3a11.79,11.79,0,0,0,1-.71l.44-.35c.57-.39.86-.31,1.45.34.13.15.28.29.4.44a1.2,1.2,0,0,1,0,1.61,7.83,7.83,0,0,1-5.42,2.48,9,9,0,0,1-1.36-.09,6.37,6.37,0,0,1-1.38-.4A6.3,6.3,0,0,1,328.83,96Z"/><path class="cls-1" d="M341.14,85.23c0,2.29-.28,4.57-.22,6.86,0,1.62,0,3.77,1.43,4.87,1.09.85,3.56-.68,2.21-1.74-1.06-.84-.72-3.73-.7-4.88,0-1.76.21-3.52.23-5.29,0-1.59-2.93-1.22-2.95.18Z"/><path class="cls-1" d="M347.9,86c.59,3.61-.27,7.17,0,10.79.05.63,3,.1,2.9-.78-.27-3.62.59-7.18,0-10.79-.11-.68-3,0-2.9.78Z"/><path class="cls-1" d="M345.72,94.2a8.3,8.3,0,0,1-1.62-.32,3.44,3.44,0,0,1-.56-.09,9.56,9.56,0,0,1-1.74-1,2.7,2.7,0,0,0-.78-.33c-.34-.12-.81-.14-.9-.65,0-.15.51-.78,1.07-1.37s1.09-1.17,1.17-1.12a2.25,2.25,0,0,1,1,1c.21.34.55.27.84.38a6.78,6.78,0,0,0,1,.3,3.48,3.48,0,0,0,.64.07,1.77,1.77,0,0,0,.92-.18,1.09,1.09,0,0,0,.32-.67s0-.12,0-.16.24,0,.91.53l.46.36c.52.41.84.86.79,1.19A2.48,2.48,0,0,1,347.5,94a5.81,5.81,0,0,1-1.77.27Z"/><path class="cls-1" d="M366.68,89.81a5.35,5.35,0,0,1-.21,3.75,6.16,6.16,0,0,1-2.26,2.52,9.43,9.43,0,0,1-1.87,1,7.54,7.54,0,0,1-3.88.52,5.15,5.15,0,0,1-2-.8A4.84,4.84,0,0,1,355,95.25a6.73,6.73,0,0,1-.82-3.38,4.87,4.87,0,0,1,1.67-3.9c.37-.28.9.37,1.33,1.12a7.16,7.16,0,0,1,.54,1.07,1,1,0,0,1,.14.79,4.14,4.14,0,0,0-.3,2.07,2.07,2.07,0,0,0,.84,1.49,1.75,1.75,0,0,0,1.4.16,10,10,0,0,0,1.74-.67c1.29-.58,2.18-1.4,2.21-2.43a3.33,3.33,0,0,0-.8-2.08,4.79,4.79,0,0,0-3.23-1.89,1.48,1.48,0,0,0-1.09.37,1.74,1.74,0,0,0-.47.89c0,.15,0,.35-.07.51-.1.7-.28.95-1.16,1.11l-.6.12c-.65.09-1.21-.34-1.29-1.23a4.72,4.72,0,0,1,.35-2.18,4.29,4.29,0,0,1,.68-1.15,4.41,4.41,0,0,1,1.12-.93,4.91,4.91,0,0,1,2.7-.64,6.92,6.92,0,0,1,2.33.55A8.39,8.39,0,0,1,365,86.87a7.69,7.69,0,0,1,1.81,2.91Z"/><path class="cls-1" d="M375.78,93.92a5.09,5.09,0,0,1-2.28,2.57,6.93,6.93,0,0,1-2.82.76,7.15,7.15,0,0,1-2.1-.06,5.12,5.12,0,0,1-3.12-2.28,6.22,6.22,0,0,1-.91-3.4,6.94,6.94,0,0,1,.64-3,5,5,0,0,1,1.24-1.68,3.12,3.12,0,0,1,1.92-.77c.44,0,.49.82.47,1.68,0,.42,0,.85,0,1.16s0,.58-.12.64a2.32,2.32,0,0,0-.8,1.26,4.3,4.3,0,0,0-.11,2,1.6,1.6,0,0,0,.66,1A2.14,2.14,0,0,0,369,94l.29.09.33,0a3.72,3.72,0,0,0,.84,0,5,5,0,0,0,.82-.12,2.41,2.41,0,0,0,1.24-.67,2.19,2.19,0,0,0,.51-1.71,3.51,3.51,0,0,0-1.48-2.73,1,1,0,0,0-.88-.11,1.4,1.4,0,0,0-.61.54c-.09.09-.13.28-.23.39-.33.51-.6.62-1.44.37-.19-.06-.39-.1-.58-.17a1.14,1.14,0,0,1-.7-1.56,4.39,4.39,0,0,1,1.09-1.69,3.94,3.94,0,0,1,2.37-1.08,4.36,4.36,0,0,1,2.62.63,5.94,5.94,0,0,1,1.68,1.53,7.17,7.17,0,0,1,1.25,2.84,6.14,6.14,0,0,1-.22,3.32Z"/><path class="cls-1" d="M379.17,98.18a4.78,4.78,0,0,1-1.64-2,3.37,3.37,0,0,1-.16-1.26,4.67,4.67,0,0,1,.06-.6l.06-.41c.07-.39.06-.77.16-1.12.35-1.26.81-2.44,1.23-3.63a9.83,9.83,0,0,0,.4-1.62,9.35,9.35,0,0,1,.23-1.15,2.24,2.24,0,0,1,.21-.44l.07-.11c0-.06.1-.13.16-.19a1.58,1.58,0,0,1,.27-.21l.18-.09.09,0,.22,0a1.44,1.44,0,0,1,1,.2,1.52,1.52,0,0,1,.4.4.85.85,0,0,1,.12.25.88.88,0,0,1,.05.15.84.84,0,0,1,0,.18,1.82,1.82,0,0,1,0,.2,1.47,1.47,0,0,1-.19.7c-.13.23-.95.09-1.73-.16-.39-.12-.78-.29-1.07-.37a.23.23,0,0,0-.11,0h.46c.22,0,.47,0,.68,0a2.51,2.51,0,0,0,.48-.08c.15,0,.11-.1.14,0l.12.12.21.14.27.15a3.9,3.9,0,0,0,.35.19l.82.39.09,0h0v0l0,.07-.06.19-.14.44c-.1.3-.21.62-.33.93a14.2,14.2,0,0,1-.91,1.89,8.38,8.38,0,0,0-.62,2.42l-.13.64-.06.3,0,.14a.62.62,0,0,0,.12.58.78.78,0,0,0,.32.3,2.16,2.16,0,0,0,.59.28,6.08,6.08,0,0,0,2.37.24,9.22,9.22,0,0,0,1.92-.59c.15,0,.28-.12.43-.16.55-.12.78.08,1,.91,0,.19.1.38.14.57a1.43,1.43,0,0,1-.42,1.46,7.25,7.25,0,0,1-4,1,7.62,7.62,0,0,1-3.83-1Z"/></g></svg>