<svg id="Layer_1" data-name="Layer 1" xmlns="http://www.w3.org/2000/svg" width="520" height="520" viewBox="0 0 520 520"><defs><style>.cls-1{fill:#221f1f;}</style></defs><title>Notioly v2</title><g id="_69.Driving" data-name="69.Driving"><path class="cls-1" d="M439.14,339.49a44.9,44.9,0,0,0-18.11-5.7l-3.5-.18-3.51.1a50.22,50.22,0,0,0-23.49,7.4,42.16,42.16,0,0,0-8.54,7,62.4,62.4,0,0,0-8.21,11.42c-.76,1.24-1.43.75-1.57-.75a8.82,8.82,0,0,1,.29-2.9,13,13,0,0,1,1.66-3.59A48.73,48.73,0,0,1,398.32,334a56.5,56.5,0,0,1,18.34-3.47,48,48,0,0,1,20,4.25,50.34,50.34,0,0,1,5.56,3c.88.58,1.82,1.07,2.65,1.72l2.51,1.91a50.67,50.67,0,0,1,12.2,14.49,56.54,56.54,0,0,1,5.46,13.51c.22,1,.42,2.09.6,3.16a14.07,14.07,0,0,1,.24,4.27,3,3,0,0,1-.76,1.9,3.26,3.26,0,0,1-.55.56c-.65.37-1.27-1.2-1.61-3.95a54.27,54.27,0,0,0-3.32-12.05l-.58-1.48c-.22-.48-.47-.95-.7-1.42-.49-.95-.92-1.93-1.45-2.85l-1.68-2.73-.42-.69-.48-.64-1-1.29a46.57,46.57,0,0,0-14.29-12.57Z"/><path class="cls-1" d="M131.1,333.81a47.55,47.55,0,0,0-18.4,2.43,51.17,51.17,0,0,0-6.27,2.72l-2.63,1.49c-.43.25-.88.48-1.3.75l-1.24.87c-.82.58-1.67,1.14-2.48,1.74l-2.31,2c-.38.34-.79.64-1.14,1l-1.06,1.09c-.69.73-1.44,1.42-2.1,2.19a47.65,47.65,0,0,0-3.65,4.85c-.49.76-1,1.51-1.46,2.28l-1.21,2.42a38.88,38.88,0,0,0-2,5l-.29.81-.2.84-.41,1.67-.41,1.67c-.13.55-.18,1.13-.27,1.69-.16,1.14-.38,2.26-.53,3.39s-.19,2.28-.34,3.43c-.18,1.41-1,1.26-1.74,0a9.14,9.14,0,0,1-1-2.69,9.71,9.71,0,0,1,0-3.85,47.8,47.8,0,0,1,1.72-7.35l1.36-3.52.35-.88.43-.84.87-1.68a44.35,44.35,0,0,1,9.11-11.91,56.1,56.1,0,0,1,15-10.37,49.29,49.29,0,0,1,19.46-4.4,53.28,53.28,0,0,1,12.22,1.12,55.25,55.25,0,0,1,8.89,2.71,54.11,54.11,0,0,1,8.25,4.18,50.2,50.2,0,0,1,11.06,8.95c.68.81,1.37,1.58,2,2.41,2.32,3.2,2.64,4.49,2.32,5.6a3.47,3.47,0,0,1-.25.75c-.2.31-.61.19-1.16-.28a7.86,7.86,0,0,1-.91-1c-.33-.41-.69-.9-1.12-1.42a49.68,49.68,0,0,0-19.05-15.27,50.49,50.49,0,0,0-18.12-4.49Z"/><path class="cls-1" d="M126.81,415.24c1.15-2.22,2.51-2.66,3.84-2.73q6.71-.37,13.41-.45c3.85,0,7.7.16,11.54.18,6.62,0,13.24,0,19.85,0,2,0,3.91,0,5.87,0s3.74-.12,5.61-.19a3,3,0,0,1,.95,0,1.22,1.22,0,0,1,.39,2c-.13.17-.28.44-.43.45-1.45,0-2.6,1.33-4.14,1.3-2.83-.07-5.66.27-8.49.41-1.14.05-2.27,0-3.41,0-1.44-.06-2.89-.23-4.34-.29-4-.18-37.25,0-38.13-.06A18.84,18.84,0,0,1,126.81,415.24Z"/><path class="cls-1" d="M417,416.24c1.12-2.22,2.43-2.66,3.72-2.73q6.48-.37,13-.45c3.72,0,7.44.16,11.16.18,6.41,0,12.81,0,19.21,0,1.89,0,3.79,0,5.68,0s3.62-.12,5.43-.19a2.78,2.78,0,0,1,.91,0,1.24,1.24,0,0,1,.38,2c-.12.17-.27.44-.41.45-1.4,0-2.52,1.33-4,1.3-2.73-.07-5.48.27-8.22.41-1.09.05-2.19,0-3.29,0-1.4-.06-2.8-.23-4.2-.29-3.83-.18-36,0-36.89-.06A17.27,17.27,0,0,1,417,416.24Z"/><path class="cls-1" d="M374.43,223.77c.92-.11,1.86-.22,2.67-.37l.14,0h.08l.1.18q.24.45.51.87l.07.11c.61,1.06-.79-1.39-.65-1.15h0l.11-.07a1.35,1.35,0,0,0,.22-.14,5.16,5.16,0,0,0,.83-.68,11.72,11.72,0,0,0,2.47-4.24,42.19,42.19,0,0,0,2-10.85c.2-2.75.17-5.52.16-8.29a255.47,255.47,0,0,0-2.14-29.42c-.53-4.35-1.22-8.71-2-13q-.72-4.14-1.46-8.28a64.34,64.34,0,0,1-1-8.46,2.65,2.65,0,0,1,.23-1.2c.08-.13.19-.22.29-.19l.26.09c.07,0,.15,0,.18.05s.11.17.18.28.37.48.59.83a18.8,18.8,0,0,1,2.59,7c1.88,11.26,3.58,22.63,4.36,34.2.45,6.91,1.15,14.11,1,21.26a73.55,73.55,0,0,1-1,11.8,31.81,31.81,0,0,1-1.61,5.85,13.08,13.08,0,0,1-3.53,5.29,8.81,8.81,0,0,1-.85.62,5.06,5.06,0,0,1-.46.27c-.21.09-.42.16-.64.23a2.56,2.56,0,0,1-.54.13l-.48.09c-.31,0-.63.11-.93.14-1.21.17-2.41.28-3.61.4-2.39.21-4.77.4-7.16.57-7.22.51-14.48.85-21.64,1.29-5.57.34-11,.83-16.53,1.23-1.21.08-2.39.2-3.62.27-4.53.25-6,.09-7-.72a3.86,3.86,0,0,1-.67-.55c-.46-.65,1.36-1.27,4.67-1.6,9.82-1,20.18-1.6,30.58-2.23,7.7-.49,15.5-.87,23.1-1.69Z"/><path class="cls-1" d="M500.85,375.91l5.22,1.15s8.65-11.12,3.61-21.25h0C502.6,353.41,501.57,373.14,500.85,375.91Z"/><path class="cls-1" d="M508.38,369.57a21.44,21.44,0,0,0,1.34-6.1c0-.75-.07-1.51-.11-2.26s-.1-1.33-.22-2-.26-1.32-.45-2l-.34-1-.16-.48c-.05-.1-.05-.22-.1-.26l-1.92.34c-1.15.2-2.35.45-3.49.71a13.17,13.17,0,0,1-4.36.61c-.45-.05-.53-.88-.15-1.73a3.09,3.09,0,0,1,2.46-1.84,46.46,46.46,0,0,1,6-.13c.95,0,1.85.07,2.73.13l1.3.09a4,4,0,0,1,.36.9l.2.67a26,26,0,0,1,1.35,6.55,21.76,21.76,0,0,1-.93,7.16c-.18.71-.46,1.39-.68,2.09s-.54,1.36-.84,2a31.05,31.05,0,0,1-1.52,2.92c-.28.5-.53.9-.88,1.45l-.62.94-.33.46c-.06.06-.09.19-.18.18l-.27,0-1.72-.2-1.22-.08-2.43-.15c-.36,0-.71,0-1.07-.06-1.32-.15-1.71-.43-1.86-1.32a4.28,4.28,0,0,1-.09-.61c0-.67.6-1.12,1.59-1.16a33.51,33.51,0,0,1,4.47.15l1.13.12s0,0,0,0a0,0,0,0,0,0,0h0l.25-.41a30.49,30.49,0,0,0,2.68-5.73Z"/><path class="cls-1" d="M6.64,270.22a28.64,28.64,0,0,1,1.45-6.29c.25-.74.43-1.49.75-2.2s.57-1.25.9-1.85c.16-.31.33-.61.5-.91.08-.13.25-.43.38-.63a5.19,5.19,0,0,1,.45-.64,1.69,1.69,0,0,1,.58-.42l0,0h0c-.09-.17,0,0-.05-.08h0l.09,0,.18,0,.36-.06a3.55,3.55,0,0,1,.73,0l.64,0,2,.11c1.16.06,2.32,0,3.46,0a16,16,0,0,1,4.42,0c.92.22-.25,3.31-1.91,3.34-1.48,0-3,0-4.45-.07-.74-.05-1.49-.1-2.23-.18l-1.13-.12a.74.74,0,0,1-.29-.07l-.18-.08c-.16-.1-.22.06-.32.15a.43.43,0,0,0-.08.11l-.15.28-.29.58c-.36.79-.67,1.62-1,2.44A28.34,28.34,0,0,0,10,269.16a19.11,19.11,0,0,0-.25,3.54,18.29,18.29,0,0,0,.26,2.67,9.33,9.33,0,0,0,.55,2,3.28,3.28,0,0,0,.62,0l.31-.05.54-.05,2.16-.24c.31,0,.63-.09.95-.11,1.18,0,1.56.16,1.82,1a5.5,5.5,0,0,1,.16.58c.12.66-.37,1.21-1.24,1.4a27,27,0,0,1-3.95.55l-.54,0-1,0c-.67,0-1.33,0-2,0a31.42,31.42,0,0,1-1.27-3.51,20.4,20.4,0,0,1-.51-6.72Z"/><path class="cls-1" d="M277.16,320.45l.29-18.5c0-2.24,0-4.49,0-6.74l.68-23.78c.1-3.51.14-7.05.15-10.54a103.63,103.63,0,0,1,.55-13.51c.19-1.41,1-1.13,1.73.1a11.86,11.86,0,0,1,1.32,6c-.26,9.1-.49,18.24-1,27.45-.31,5.51-.2,11.26-.28,16.9q-.12,9.3-.25,18.61l-.09,11.46c0,5.78,0,11.59.08,17.33.11,4.46.42,8.83.68,13.22.06,1,.16,1.92.21,2.89.16,3.62.07,4.74-.76,5.58a3.66,3.66,0,0,1-.55.56c-.64.4-1.27-1.05-1.61-3.73-.89-7.9-1.1-16.23-1.2-24.59-.08-6.21-.05-12.45,0-18.67Z"/><path class="cls-1" d="M258.77,295.8c.15-1.11.33-1.76.58-1.46s.29,0,.43,0l3,.11c.42,0,.84-.05,1.26-.08.71,0,1.42-.08,2.13-.09.37,0,.73.11,1.1.11.72,0,1.45-.07,2.18-.07.37,0,.75.1,1.12.13.14,0,.27-.08.41-.1s.12,0,.17.1a5.69,5.69,0,0,1,.09,2.15c-.07.68-.16,1.13-.29,1.12-.6,0-1.2,0-1.79,0-.25,0-.49.12-.73.12s-.76-.07-1.14-.09c-.56,0-1.11-.1-1.67-.09s-1.28.08-1.92.12l-.6,0-1.9,0-2,.07a.21.21,0,0,1-.15,0C258.85,297.66,258.82,297.46,258.77,295.8Z"/><path class="cls-1" d="M266.48,148c.1.7,0,1.19-.45,1.26-.27,0-.44.28-.65.41a29.1,29.1,0,0,0-4.16,2.91,7.4,7.4,0,0,0-1.31,1.53,1.93,1.93,0,0,0-.4,1.16.81.81,0,0,0,.16.4l.08.1v0h0l-.09.08h0l.06-.05,0,0s.05,0,.11,0a4.09,4.09,0,0,0,1.48.1,15,15,0,0,0,3.51-1,12.91,12.91,0,0,0,1.7-.71,2.94,2.94,0,0,0,.51-.38c.08,0,.13-.11.22-.1a1.44,1.44,0,0,1,.94.81c.17.36.17.72-.05.87a14.84,14.84,0,0,1-3.12,1.5c-.43.16-.84.36-1.28.48a13.82,13.82,0,0,1-2.15.39,6.69,6.69,0,0,1-1.73,0l-.47-.09a4.87,4.87,0,0,1-.53-.21,3.27,3.27,0,0,1-.54-.4,3.09,3.09,0,0,1-.33-.43,2.87,2.87,0,0,1-.32-2.39,5.59,5.59,0,0,1,1-1.81,9.81,9.81,0,0,1,.79-.89,21.93,21.93,0,0,1,2.75-2.24c1-.7,2-1.35,3-2a.82.82,0,0,1,.23-.11C265.82,147.15,265.91,147.23,266.48,148Z"/><path class="cls-1" d="M281,178a10.15,10.15,0,0,1-4.25,0,9.85,9.85,0,0,1-3.77-2c-.36-.35-.76-.67-1.1-1s-.65-.75-1-1.13a28.47,28.47,0,0,1-3.78-9.17c-.2-.7-.35-1.41-.52-2.11s-.36-1.39-.5-2.09c-.18-.89-.42-1.78-.58-2.69a19.15,19.15,0,0,1-.29-2.73c0-1.14,2.24,0,2.55,2a101.8,101.8,0,0,0,2.31,10.59,16.22,16.22,0,0,0,3.1,5.63,7.22,7.22,0,0,0,5.85,2.81,10.73,10.73,0,0,0,4.16-1.07,23.18,23.18,0,0,0,5.63-3.81,34.34,34.34,0,0,0,3.54-3.91l.71-.91c.91-1.12,1.29-1.4,1.93-1.29a2,2,0,0,1,.44.08c.43.15.35.86-.25,1.79a30.19,30.19,0,0,1-7,7.45,22.44,22.44,0,0,1-3.37,2.15,14.84,14.84,0,0,1-3.87,1.44Z"/><path class="cls-1" d="M290.3,170.91s-1.65,4.67,2,4.57c3.37-.1,4.86-5.6,4.86-5.6l-1.66-4.82-5.23,5.85"/><path class="cls-1" d="M289.3,171.07c-.45,1.31-.77,3.31.44,4.31,1.58,1.32,4.35.32,5.7-.86,1.11-1,2.73-3.24,2.75-4.8s-1.15-3.51-1.64-4.94c-.2-.58-1.7,0-1.95.32L289.38,171c-.48.53,1.49.32,1.85-.09l5.23-5.86-1.94.32,1.26,3.68a2.56,2.56,0,0,1-.18,2.62c-.6,1.38-3,5.25-4.43,2.39a4.51,4.51,0,0,1,.14-3.27c.17-.49-1.82-.25-2,.32Z"/><path class="cls-1" d="M297.19,149.64c3.23-.8,6.8-7.65,3.05-10.58-4.27-3.33-6.65,3.5-9.4,4.08-5.92,1.24.58-9.43-2.19-12.31-6.45-6.7-35.51,19.87-44.6,5.85-5.7-8.8-3.13-22.07,5.11-27.31C266,98.65,288.3,110.48,289,110.7c0,0,11.13-8.68,22.35.84,19.18,16.27-2.52,44.9-11.4,44.05C293.28,155,297.19,149.64,297.19,149.64Z"/><path class="cls-1" d="M280.62,109.14a46,46,0,0,0-17.92-2.6,29.05,29.05,0,0,0-8.7,2,26.15,26.15,0,0,0-4,2,14.81,14.81,0,0,0-3.23,2.79,19.27,19.27,0,0,0-4.38,11.79,20.54,20.54,0,0,0,.53,5.63,19,19,0,0,0,2.16,5.18,7.29,7.29,0,0,0,4,3.21,12.22,12.22,0,0,0,5.45.36A46,46,0,0,0,265.76,136c3.7-1.54,7.33-3.3,11.11-4.86a43.62,43.62,0,0,1,5.19-1.84,16,16,0,0,1,2.82-.51,6.61,6.61,0,0,1,3.09.42,4.33,4.33,0,0,1,1.41,1,3.35,3.35,0,0,1,.81,1.63,8.66,8.66,0,0,1,0,3c-.24,1.86-.7,3.61-.9,5.26a6.21,6.21,0,0,0,0,1.41.77.77,0,0,0,.41.62,1.65,1.65,0,0,0,.95,0,3,3,0,0,0,1-.63c.75-.68,1.48-1.57,2.35-2.42a9.3,9.3,0,0,1,1.5-1.23,4.63,4.63,0,0,1,2.08-.75,4.12,4.12,0,0,1,2.24.43,6.07,6.07,0,0,1,1.7,1.25,5.45,5.45,0,0,1,1.41,3.93,8.79,8.79,0,0,1-1,3.73,9.2,9.2,0,0,1-2.37,3c-1.32,1-2.28.93-2.24.68s.64-.77,1.26-1.75a11.32,11.32,0,0,0,.94-1.79,9.44,9.44,0,0,0,.68-2.38,5.18,5.18,0,0,0-.15-2.47,2.71,2.71,0,0,0-1.5-1.55c-.14,0-.28-.15-.39-.13l-.16,0-.16,0c-.1,0-.23.08-.36.09s-.29.14-.46.26a15.08,15.08,0,0,0-2.23,2.12,15,15,0,0,1-1.45,1.37,5.55,5.55,0,0,1-.46.35l-.57.34a3.42,3.42,0,0,1-.69.28l-.38.12-.3,0a5.17,5.17,0,0,1-1.51,0,3.56,3.56,0,0,1-1.58-.61,3.37,3.37,0,0,1-1-1.33,5.72,5.72,0,0,1-.26-.83,6.66,6.66,0,0,1-.09-.75,16.67,16.67,0,0,1,.45-3.93c.23-1.16.48-2.27.6-3.3a7,7,0,0,0,.07-1.41,1.73,1.73,0,0,0-.18-.76,2.24,2.24,0,0,0-1.69-.61,18.2,18.2,0,0,0-6.13,1.46c-2.12.79-4.24,1.73-6.38,2.67a110.59,110.59,0,0,1-13.27,5.23,25.06,25.06,0,0,1-8.89,1.21,11.11,11.11,0,0,1-4.62-1.4,10.06,10.06,0,0,1-3.47-3.42,22.28,22.28,0,0,1-2.32-17.71,21.09,21.09,0,0,1,4.91-8.7l.94-.86.47-.43.52-.37,1-.75,1.07-.63a28.83,28.83,0,0,1,4.48-2.07c6.23-2.27,13-2.27,19.3-1.16a57.81,57.81,0,0,1,8.23,2.13c1.34.45,2.67.94,4,1.48q1,.4,1.95.84l.94.43a2.14,2.14,0,0,0,.47.2l.34-.24L290,109c.5-.3,1-.55,1.54-.81a22.27,22.27,0,0,1,3.25-1.21,19.64,19.64,0,0,1,4.57-.74,17.47,17.47,0,0,1,4.62.52,20,20,0,0,1,8.08,4.34,22.61,22.61,0,0,1,5.6,7.16,21.86,21.86,0,0,1,2.16,8.82,31.25,31.25,0,0,1-2.89,13.52A38.21,38.21,0,0,1,309.12,152a20.69,20.69,0,0,1-5,3.79,9.41,9.41,0,0,1-2.74,1,5.35,5.35,0,0,1-1.38.09,7.61,7.61,0,0,1-1.16-.15,6.14,6.14,0,0,1-1-.28,4.77,4.77,0,0,1-.95-.43,3.68,3.68,0,0,1-1.42-1.4,4.08,4.08,0,0,1-.31-.84,5.17,5.17,0,0,1-.06-.76c0-.23.05-.44.08-.63a5.3,5.3,0,0,1,.17-.52,3.39,3.39,0,0,1,.93-1.32,3.79,3.79,0,0,1,1-.68c.44-.11.23.46,0,1.63a2.75,2.75,0,0,0,.07,1.8,1.51,1.51,0,0,0,.66.6,5.08,5.08,0,0,0,1.42.38l.65.08c.2,0,.36,0,.54,0a2.44,2.44,0,0,0,.57-.1,2.78,2.78,0,0,0,.59-.17,11.36,11.36,0,0,0,2.37-1.22,24.91,24.91,0,0,0,4.28-3.84,37.48,37.48,0,0,0,6.38-10,28.1,28.1,0,0,0,2.47-11.53,18.44,18.44,0,0,0-3.65-10.82,21.05,21.05,0,0,0-4.84-4.72,16.3,16.3,0,0,0-6-2.69,15,15,0,0,0-6.55.19,18.13,18.13,0,0,0-3.18,1.1,14.21,14.21,0,0,0-1.51.76c-.24.14-.48.27-.72.43-.51.31-1,.7-1.5,1.06-.62-.24-1.25-.51-1.88-.81l-1-.44c-.63-.28-1.26-.56-1.89-.81-1.28-.52-2.57-1-3.88-1.43Z"/><path class="cls-1" d="M299.44,159.17a43.71,43.71,0,0,0,2.34,4.31c.85,1.38,2,3.52,4,3.28,1-.14,1.81-1.38.3-1.19.33,0-.17-.25-.39-.46a7,7,0,0,1-.8-.93,22.87,22.87,0,0,1-1.54-2.37c-.6-1.05-1.17-2.12-1.69-3.22-.35-.74-2.47-.05-2.17.58Z"/><path class="cls-1" d="M332.4,228.67c1.09-9.52-1.7-38-13.91-43.9-14.21-6.86-74.39,4.78-112,11.16.38,3.56,1.34,9.54,3.61,12.9,2.06-.18,53.85-4.22,75.72-6.17.1,1.32.21,2.82.33,4.44-16.63,1.2-51.47,2.07-69.81,2.53a39.39,39.39,0,0,0-1.85,10.15c15.53,1.4,43.92,4.37,72.59-.58.32,3.79.68,7.54,1.07,10.74Z"/><path class="cls-1" d="M258.14,206.76c5.4-.17,10.79-.36,16.18-.6l8.07-.39,1.83-.11h.15c.05,0,.12,0,.09-.06l-.08-1.27-36.67,2.84L222,209.24l-11.86.92-.6,0h-.15a.5.5,0,0,1-.08-.12l-.16-.26-.64-1c-.22-.42-.33-.6-.44-.84l-.32-.69a26,26,0,0,1-1-2.84,44.23,44.23,0,0,1-1.2-5.73l-.1-.72-.14-1.13-.14-1.19-.06-.59,0-.15s.09,0,.14,0l.29-.05,3.81-.64,5.61-.94,11.21-1.89c15-2.51,29.93-5,45-6.92,6.68-.85,13.4-1.63,20.14-2.15q5.06-.41,10.12-.53a80.3,80.3,0,0,1,10.16.34,26.2,26.2,0,0,1,6.53,1.43,14.36,14.36,0,0,1,5.56,4,34,34,0,0,1,6.21,11.69,72.85,72.85,0,0,1,2.91,12.73,80.59,80.59,0,0,1,.8,13c-.08,2.72-.48,3.9-.72,3.79s-.42-1.46-.73-3.7A168.93,168.93,0,0,0,328,203a41,41,0,0,0-4.89-11.5,15.25,15.25,0,0,0-4-4.26A10.06,10.06,0,0,0,316.6,186a21.34,21.34,0,0,0-2.91-.74,45.74,45.74,0,0,0-6.27-.66c-2.13-.11-4.29-.1-6.45-.06-4.32.08-8.67.37-13,.74-17.38,1.56-34.75,4.29-52.18,7-5.21.82-10.47,1.7-15.76,2.6l-8,1.35-3.76.64c-.18.07-.55,0-.42.28l.17,1.22A33.85,33.85,0,0,0,210,206c.12.29.26.57.39.86.06.13.16.3.2.38l.08.14c.06.08.09.23.22.17l.47,0,4.06-.33,16.2-1.3,55.19-4.33.45,6.25v.31h-.11l-.41,0-.84,0-1.62.1-2.13.13-8.51.42c-14.63.63-29.25,1-43.87,1.36l-8.3.19-4,.1c-.18,0-.4,0-.53,0l-.17.55-.23.86-.25,1a36.64,36.64,0,0,0-.77,4c0,.33-.09.66-.12,1s0,.4,0,.62V219s0,0,.06,0l.57.05,8,.73a306.65,306.65,0,0,0,33,1.28A195.4,195.4,0,0,0,282.2,219l3.27-.53,2.38-.39h.08v.08l0,.15,0,.3.06.6.13,1.2.7,6.48.15,1.38,0,.35,0,.16s0,.06,0,.07h.09l2.29-.09,6.33-.23,11.1-.41c13.9-.44,18.32-.39,21.33.24a19.59,19.59,0,0,1,2,.43c1.35.51-4.3,1.13-14.47,1.58l-22.91.95-6.58.24-1.38,0h-.17c-.07,0,0-.09-.05-.14l0-.34-.07-.68-.25-2.39-.31-2.92-.31-2.93-.08-.74,0-.2v0s0-.08,0-.09l-.1,0h0l-.34.05-.73.12c-1,.15-2,.33-2.94.46a238.83,238.83,0,0,1-47.93,1.34c-3-.18-5.95-.41-8.92-.65l-9.3-.83c-.75-.06-1.47-.15-2.19-.23l-.27,0-.13,0h-.07s0,0,0-.06l0-.55,0-1.1,0-1.09,0-.55,0-.42c0-.4.09-.79.14-1.18a41,41,0,0,1,.9-4.57l.29-1.12.54-1.84.33-1,1.1,0,1.87-.05,4.47-.11c11.9-.28,23.8-.58,35.69-1Z"/><path class="cls-1" d="M210.1,209a3,3,0,0,1-2.78,1.28,3.15,3.15,0,0,0-.53,0l-.27,0-.18,0s-.08,0-.17.06l-.27.08-.54.14a35.09,35.09,0,0,1-7.47.91,21,21,0,0,1-7.57-1.22,13.56,13.56,0,0,1-5.65-3.75,10.42,10.42,0,0,1-1.89-11.2,7.25,7.25,0,0,1,2-2.51,7.52,7.52,0,0,1,6-1.65,11.54,11.54,0,0,1,2.9.91,25.36,25.36,0,0,1,4.75,3.08l.53.4a3.43,3.43,0,0,1,.31.23h0l.66-.09,2.72-.38c.67-.1,1.33-.27,2-.39a2.59,2.59,0,0,1,.83-.06,1,1,0,0,1,.77,1.43,1.62,1.62,0,0,1-1.27,1l-4.42.69-1.23.19a1.88,1.88,0,0,1-1-.18,2.87,2.87,0,0,1-.43-.25l-.27-.18-1.8-1.35a20.59,20.59,0,0,0-2.9-1.76,6.9,6.9,0,0,0-4.62-.88,5.31,5.31,0,0,0-2.8,1.79,6.16,6.16,0,0,0-1.26,3.24,8.65,8.65,0,0,0,3.25,7.39,11.86,11.86,0,0,0,2.26,1.47,17.87,17.87,0,0,0,8.55,1.58,30.54,30.54,0,0,0,4.66-.55c.78-.12,1.54-.32,2.31-.5a8,8,0,0,1,.78-.16l.61,0,1.22-.11a5.85,5.85,0,0,1,.73,0C209.64,207.72,209.79,207.85,210.1,209Z"/><path class="cls-1" d="M192.16,209.79a3.94,3.94,0,0,1,.23,1.09.79.79,0,0,1-.33.65,1.54,1.54,0,0,0-.45.85,5.12,5.12,0,0,0-.46,3.09,3.86,3.86,0,0,0,1.59,2.54c.09.06.17.14.27.2l.32.15.62.3c.48.1.93.27,1.42.33a15.23,15.23,0,0,0,5.22-.32c.45-.12.9-.21,1.36-.31l.68-.14.47-.1.44-.07a22.18,22.18,0,0,1,3.12-.09q1.5,0,3,.15c1,.07,2,.23,3,.34.36,0,.74,0,1.11,0a.87.87,0,0,1,.44.11,1.3,1.3,0,0,1,.14,1.56c-.22.46-.49.76-.83.73-1.6-.16-3.19-.31-4.78-.41-.64,0-1.29,0-1.92,0a25.49,25.49,0,0,0-2.88,0,7.42,7.42,0,0,0-.92.17l-1.14.27c-.38.08-.75.18-1.14.25l-1.17.17a13.68,13.68,0,0,1-5.58-.13l-.9-.25-.86-.42a6.53,6.53,0,0,1-3.49-4.86,8.08,8.08,0,0,1,1.57-5.92,2.06,2.06,0,0,1,.33-.33C191.11,209,191.28,209,192.16,209.79Z"/><path class="cls-1" d="M307,382.7l-90.23-.2-22.56-.05-11.28,0h-5.37a3,3,0,0,1,0-.31l0-.63-.12-2.56-.14-2.85c0-.91-.25-1.8-.36-2.7a49,49,0,0,0-23.34-35.12,48.24,48.24,0,0,0-14.7-5.9A53.16,53.16,0,0,0,123,331.5a50.51,50.51,0,0,0-15.25,4.26l-1.8.86a13.34,13.34,0,0,0-1.75.93l-3.4,2.06L97.65,342a14.29,14.29,0,0,0-1.52,1.28l-1.48,1.34c-.4.37-.83.73-1.22,1.12L92.31,347c-.74.83-1.53,1.62-2.22,2.48a52.66,52.66,0,0,0-3.81,5.45l-.87,1.42c-.14.24-.29.47-.43.72l-.36.74-1.45,3c-.49,1-.8,2.07-1.2,3.1a23.5,23.5,0,0,0-1,3.17l-.83,3.22c-.23,1.08-.36,2.19-.54,3.29l-.26,1.64c-.07.55-.07,1.11-.11,1.66l-.25,4.77,0,.37s0,.15,0,.16H78.7l-.73-.05L76.5,382c-.49,0-1-.06-1.46-.11l-.89-.08c-1.17-.12-2.33-.26-3.5-.45a56.78,56.78,0,0,1-6.9-1.55A48.71,48.71,0,0,1,40.3,364.54C34.14,357.37,30,348.81,27,340a133.32,133.32,0,0,1-5.72-27.16,211.08,211.08,0,0,1-1.14-27.64,259.18,259.18,0,0,1,2.1-27.56c.6-4.57,1.33-9.12,2.24-13.65.46-2.27,1-4.53,1.56-6.78.31-1.13.64-2.25,1-3.38.1-.28.2-.57.32-.85l.18-.43c.09-.19.18-.39.29-.58a3.43,3.43,0,0,1,.77-1,2,2,0,0,1,1.17-.4L42,230.12l51.5-1.9,25.71-1,12.81-.49,6.39-.25c.53,0,1.1,0,1.55-.08l.72-.06.71-.13a13.51,13.51,0,0,0,2.79-.89,25.25,25.25,0,0,0,6.42-4.41,54.4,54.4,0,0,0,5.49-5.85,132.14,132.14,0,0,0,9.34-13.3c5.76-9.25,10.93-18.9,16.11-28.54s10.31-19.36,15.93-28.81c2.82-4.71,5.76-9.38,9-13.85a65.68,65.68,0,0,1,11.15-12.38,19.88,19.88,0,0,1,6.74-3.79,7.13,7.13,0,0,1,1.78-.34c.38,0,.54,0,.51.1a13.26,13.26,0,0,1-2.36,1.26,26.24,26.24,0,0,0-5.37,3.95c-4.19,3.85-9,10.4-14.07,18.8s-10.51,18.61-16.46,29.71c-3.71,6.9-7.39,13.83-11.22,20.7s-7.79,13.7-12.25,20.29a103.17,103.17,0,0,1-7.23,9.58,43.9,43.9,0,0,1-9.13,8.33,19.29,19.29,0,0,1-6,2.66,15.85,15.85,0,0,1-1.7.28c-.55.05-1.19.1-1.64.11l-2.94.11-11.76.43-93.81,3.31a.09.09,0,0,0-.11.05l0,.06-.14.31c-.28.67-.53,1.42-.76,2.18-.47,1.53-.87,3.11-1.24,4.7-.75,3.19-1.36,6.44-1.91,9.7-1.09,6.52-1.88,13.12-2.43,19.74a226.54,226.54,0,0,0,0,39.84,145.07,145.07,0,0,0,3.22,19.8,95,95,0,0,0,6.59,19,59.1,59.1,0,0,0,11.4,16.42,45.09,45.09,0,0,0,16.81,10.59,50.85,50.85,0,0,0,9.77,2.38c.83.12,1.67.22,2.51.3l1,.1.42,0H76v-.21l0-.41.13-2.46a52.32,52.32,0,0,1,38.75-45.94,53.21,53.21,0,0,1,23.15-.84,50.85,50.85,0,0,1,21.2,9.33,52,52,0,0,1,21.2,39.82l0,.75v.28s0,.11,0,.11h7.64l11.36,0,22.73,0,45.45.08,55.94.1,28,0h12.94l.13-2.49.1-1.78.27-1.77c.19-1.17.34-2.35.56-3.52l.9-3.45a50.79,50.79,0,0,1,10-19,52.14,52.14,0,0,1,76.79-3,52.94,52.94,0,0,1,11.61,18,40.51,40.51,0,0,1,1.67,5.1l.67,2.61a7.41,7.41,0,0,1,.26,1.31l.21,1.33.4,2.66c.14.88.12,1.78.19,2.67l.09,1.92v.19s0,.05.06,0h25a2.53,2.53,0,0,0,.56,0l.2-1.22.32-2q.6-4,1.05-8,.93-8.06,1.37-16.12a241.42,241.42,0,0,0-.28-32.17,162.36,162.36,0,0,0-5.41-31.48,92.68,92.68,0,0,0-13.29-28.73,61.88,61.88,0,0,0-20.39-18.39,59.76,59.76,0,0,0-10.92-4.73l-2.54-.81-2.47-.62c-1.6-.45-3.17-.69-4.65-1a101.41,101.41,0,0,0-14.91-1.44c-8.11-.15-12.8.33-16.62.32-1.73.08-4,.24-5.05.2-.87,0-.63-.23.61-.57.63-.17,1.51-.38,2.62-.62l1.86-.39c.69-.13,1.43-.23,2.23-.36,1.61-.23,3.44-.55,5.51-.71l3.26-.3c1.14-.07,2.35-.11,3.6-.16a87.27,87.27,0,0,1,17.42,1.1,66.11,66.11,0,0,1,27.42,11A68.65,68.65,0,0,1,485,265.47a107.87,107.87,0,0,1,10.82,28.15,174.91,174.91,0,0,1,4.35,30,249,249,0,0,1,0,30.42q-.45,7.62-1.32,15.22-.43,3.81-1,7.6l-.28,1.9-.44,2.63-.34,1.84c.05.44-.39.29-.68.32H465.73c-.07,0-.19,0-.21,0l0-.23-.19-3.83-.1-1.87a13.82,13.82,0,0,0-.15-1.82l-.56-3.61a12,12,0,0,0-.39-1.78l-.46-1.77-.45-1.77-.63-1.71-.63-1.72a13,13,0,0,0-.69-1.69l-1.59-3.29c-.56-1.08-1.24-2.09-1.86-3.14-.33-.52-.6-1.07-1-1.55l-1.1-1.46a30.12,30.12,0,0,0-2.27-2.87,50.25,50.25,0,0,0-17.3-12.88,47.66,47.66,0,0,0-21.17-4.1,49.69,49.69,0,0,0-20.93,5.34,48.45,48.45,0,0,0-25.4,33.59l-.41,2.69a17.71,17.71,0,0,0-.31,2.71l-.19,3.57-.07,1.4,0,.7,0,.35c0,.09-.09,0-.13,0H352.64l-45.55-.05Z"/><path class="cls-1" d="M127.54,342.09a36,36,0,1,0,36,36A36,36,0,0,0,127.54,342.09Zm0,46.05a10,10,0,1,1,10-10.05A10.05,10.05,0,0,1,127.54,388.14Z"/><path class="cls-1" d="M151.76,406.92a38.06,38.06,0,0,1-16.08,7.79,38.19,38.19,0,0,1-29.58-6l-2.29-1.74L101.7,405a24.46,24.46,0,0,1-2-2.1l-1-1.07-.85-1.16-.85-1.16-.42-.58-.37-.61-1.47-2.47a42.15,42.15,0,0,1-2.25-5.27A37.43,37.43,0,0,1,92,368.08a17.27,17.27,0,0,1,.79-2.4c.31-.78.55-1.6.91-2.36A38.86,38.86,0,0,1,96,358.85a42.45,42.45,0,0,1,2.88-4.14c.54-.65,1.12-1.26,1.67-1.89l.85-.93.92-.85a37.24,37.24,0,0,1,10.72-7.13,33.8,33.8,0,0,1,12.58-2.69c2.7,0,2.28.67.13,1.45-.54.19-1.18.38-1.91.59s-1.53.54-2.41.8-1.8.62-2.79.93c-.5.18-1,.3-1.53.51l-1.57.61a35,35,0,0,0-18.09,15.57,35.59,35.59,0,0,0-3.74,23.82A34.33,34.33,0,0,0,111.58,409,34.9,34.9,0,0,0,144,409a34.86,34.86,0,0,0,14.59-14.47,35.13,35.13,0,0,0,1.18-30.55A34.59,34.59,0,0,0,143.29,347c-.8-.36-1.58-.75-2.38-1.08l-2.48-.86a22.22,22.22,0,0,0-2.17-.61c-.67-.17-1.27-.35-1.82-.48-1.13-.19-2-.37-2.77-.55a10.16,10.16,0,0,1-3.08-.92,7.19,7.19,0,0,1-1-.53c-.33-.29.2-.52,1.47-.66a20.09,20.09,0,0,1,2.43-.12c1,.07,2.11.19,3.39.34a38.24,38.24,0,0,1,11,3.78,36.52,36.52,0,0,1,9.42,7.27A35.77,35.77,0,0,1,162,362.64a39.19,39.19,0,0,1,3.15,11.81A37.61,37.61,0,0,1,151.81,407Z"/><path class="cls-1" d="M132.93,371.67a8.43,8.43,0,0,0-7.62-1.93,8.9,8.9,0,0,0-2.73,1.25,8.85,8.85,0,0,0-3.77,9.55,8.2,8.2,0,0,0,2.57,4.17,11.36,11.36,0,0,0,5.7,2.44c.64.13.62.81-.06,1.45a3.58,3.58,0,0,1-3.63.6,11.43,11.43,0,0,1-6.21-5.45,11.18,11.18,0,0,1-.81-8.11,12.09,12.09,0,0,1,6-7.57,11.14,11.14,0,0,1,10.37.26,11.49,11.49,0,0,1,2.59,2,12,12,0,0,1,1.88,2.65,11.25,11.25,0,0,1,.26,9.47,11.59,11.59,0,0,1-4.87,5.6,9.39,9.39,0,0,1-1.53.74,9.53,9.53,0,0,1-1.3.33,4,4,0,0,1-.91,0,1.3,1.3,0,0,1-1-.64,2.08,2.08,0,0,1-.28-.47c-.09-.27.06-.53.36-.75a2.85,2.85,0,0,1,.58-.29,4.27,4.27,0,0,1,.77-.3,9.39,9.39,0,0,0,6.44-7.8,8.83,8.83,0,0,0-.54-3.91,8.53,8.53,0,0,0-2.29-3.25Z"/><path class="cls-1" d="M415.86,343.12a36,36,0,1,0,36,36A36,36,0,0,0,415.86,343.12Zm0,46.05a10.05,10.05,0,1,1,10.05-10.05A10.05,10.05,0,0,1,415.86,389.17Z"/><path class="cls-1" d="M440.08,408A38.18,38.18,0,0,1,424,415.74a38.15,38.15,0,0,1-29.57-6l-2.3-1.74L390,406a26,26,0,0,1-2-2.1l-.95-1.07-.86-1.16-.85-1.16L385,400l-.37-.62-1.46-2.46a39.93,39.93,0,0,1-2.25-5.27,35.52,35.52,0,0,1-2-11.22,36.1,36.1,0,0,1,1.44-11.27,17.27,17.27,0,0,1,.79-2.4c.31-.78.55-1.6.91-2.36a38.86,38.86,0,0,1,2.36-4.47,43.84,43.84,0,0,1,2.88-4.15c.54-.64,1.12-1.25,1.67-1.88l.85-.93.92-.85a37.24,37.24,0,0,1,10.72-7.13A33.8,33.8,0,0,1,414,342.25c2.7,0,2.28.67.13,1.45-.54.19-1.18.38-1.91.59s-1.53.54-2.41.8-1.8.61-2.79.93c-.5.18-1,.3-1.53.51l-1.57.61a35,35,0,0,0-18.09,15.57,35.59,35.59,0,0,0-3.74,23.82A34.31,34.31,0,0,0,399.9,410a34.86,34.86,0,0,0,32.41,0,34.86,34.86,0,0,0,14.59-14.47A35.13,35.13,0,0,0,448.08,365,34.59,34.59,0,0,0,431.61,348c-.8-.36-1.58-.75-2.38-1.08l-2.48-.86a22.22,22.22,0,0,0-2.17-.61c-.67-.17-1.27-.35-1.82-.48-1.13-.19-2-.37-2.77-.55a10.16,10.16,0,0,1-3.08-.92,7.19,7.19,0,0,1-1-.53c-.33-.29.2-.52,1.47-.66a20.09,20.09,0,0,1,2.43-.12c1,.07,2.11.19,3.39.34a38.24,38.24,0,0,1,11,3.78,37.25,37.25,0,0,1,16.15,17.32,39.19,39.19,0,0,1,3.15,11.81A37.64,37.64,0,0,1,440.13,408Z"/><path class="cls-1" d="M421.25,372.7a8.43,8.43,0,0,0-7.62-1.93A8.9,8.9,0,0,0,410.9,372a8.85,8.85,0,0,0-3.77,9.55,8.2,8.2,0,0,0,2.57,4.17,11.36,11.36,0,0,0,5.7,2.44c.64.13.62.81-.06,1.45a3.58,3.58,0,0,1-3.63.6,11.43,11.43,0,0,1-6.21-5.45,11.12,11.12,0,0,1-.8-8.11,12,12,0,0,1,6-7.57,11.14,11.14,0,0,1,5.24-1.15,11.37,11.37,0,0,1,5.14,1.41,11.66,11.66,0,0,1,2.58,2,12,12,0,0,1,1.88,2.65,11.25,11.25,0,0,1,.26,9.47,11.59,11.59,0,0,1-4.87,5.6,9.39,9.39,0,0,1-1.53.74,9.53,9.53,0,0,1-1.3.33,4,4,0,0,1-.91,0,1.3,1.3,0,0,1-1-.64,2.08,2.08,0,0,1-.28-.47c-.09-.27.06-.53.36-.75a2.85,2.85,0,0,1,.58-.29,4.27,4.27,0,0,1,.77-.3,9.39,9.39,0,0,0,6.44-7.8,8.83,8.83,0,0,0-.54-3.91,8.53,8.53,0,0,0-2.29-3.25Z"/><path class="cls-1" d="M53.46,267.66c-.27-1.15-.27-1.91.38-2,.37,0,.55-.38.84-.56,1.94-1.19,3.88-2.38,5.78-3.62.81-.55,1.59-1.14,2.38-1.71l4-2.93c.68-.49,1.42-.9,2.09-1.41,1.33-1,2.6-2.1,3.85-3.17.66-.53,1.31-1,2-1.57.22-.21.36-.49.56-.72a.44.44,0,0,1,.32-.19,2.76,2.76,0,0,1,1.76,1.28c.38.57.56,1,.33,1.26-.52.55-1.06,1-1.6,1.52s-1.09,1-1.64,1.42-.81.84-1.27,1.19c-.71.57-1.46,1.07-2.19,1.59l-3.24,2.28-3.63,2.68-1.17.82-3.7,2.48-3.87,2.55a1,1,0,0,1-.31.15C54.58,269.15,54.41,269,53.46,267.66Z"/><path class="cls-1" d="M82,267.64c-.1-1.18,0-1.94.68-1.91.38,0,.62-.31.93-.46,2.15-1,4.28-2,6.36-3.12.88-.49,1.74-1,2.59-1.57q2.18-1.35,4.24-2.81c.72-.48,1.49-.89,2.16-1.42a24,24,0,0,0,2-1.63c.67-.54,1.22-1.16,1.83-1.73.32-.29.59-.6.88-.89a12.09,12.09,0,0,0,.86-.9,8.36,8.36,0,0,0,.4-.79.43.43,0,0,1,.29-.25,2.85,2.85,0,0,1,2,.87c.49.48.74.92.54,1.21l-.69,1-.78.9-.78.89-.83.81a18.53,18.53,0,0,1-1.3,1.35A27.48,27.48,0,0,1,101,259c-1.14.84-2.33,1.56-3.48,2.35l-2,1.33-2,1.28-1.29.76c-1.36.78-2.75,1.51-4.13,2.23s-2.89,1.5-4.37,2.19a.86.86,0,0,1-.35.12C82.88,269.27,82.72,269.11,82,267.64Z"/><path class="cls-1" d="M114,267.66c-.27-1.15-.27-1.91.37-2,.37,0,.56-.38.85-.56,1.93-1.19,3.87-2.38,5.78-3.62.81-.55,1.59-1.14,2.38-1.71l4-2.93c.67-.49,1.42-.9,2.08-1.41,1.34-1,2.61-2.1,3.86-3.17.66-.53,1.31-1,1.95-1.57a7.61,7.61,0,0,0,.55-.72.46.46,0,0,1,.33-.19,2.75,2.75,0,0,1,1.75,1.28c.39.57.57,1,.34,1.26-.52.55-1.07,1-1.61,1.52s-1.09,1-1.63,1.42-.82.84-1.27,1.19c-.71.57-1.46,1.07-2.2,1.59l-3.23,2.28-3.64,2.68-1.17.82-3.7,2.48-3.86,2.55a1.11,1.11,0,0,1-.31.15C115.16,269.15,115,269,114,267.66Z"/><path class="cls-1" d="M143.85,267.66c-.3-1.13-.33-1.88.27-1.89.34,0,.5-.34.76-.5,1.76-1.08,3.52-2.17,5.25-3.3.73-.5,1.43-1,2.14-1.57,1.21-.89,2.39-1.8,3.58-2.69.61-.45,1.28-.83,1.88-1.29,1.21-.93,2.33-1.94,3.46-2.93.58-.5,1.19-.94,1.76-1.44a8.16,8.16,0,0,0,.5-.66.37.37,0,0,1,.3-.18,3,3,0,0,1,1.74,1.3c.4.56.59,1,.39,1.21-.48.49-1,1-1.45,1.39s-1,.9-1.47,1.32-.73.79-1.14,1.11c-.65.52-1.32,1-2,1.47-1,.71-2,1.38-2.93,2.1l-3.29,2.48-1.06.75c-1.11.77-2.24,1.52-3.36,2.27l-3.52,2.33a.67.67,0,0,1-.28.14C145,269.16,144.79,269,143.85,267.66Z"/><path class="cls-1" d="M285.79,202.47c.26-.82.59-1.32,1.11-1.14.31.1.61-.07.91-.1l6.11-.49c.87-.08,1.74-.22,2.61-.32l4.4-.54c.76-.09,1.52-.1,2.27-.19,1.5-.18,3-.42,4.48-.64.76-.11,1.52-.15,2.27-.27a4.22,4.22,0,0,0,.79-.23.56.56,0,0,1,.34,0,1.64,1.64,0,0,1,.57,1.45c0,.5-.15.86-.42.91-1.3.26-2.54.43-3.79.62-.51.07-1,.22-1.51.28-.79.11-1.59.16-2.38.24-1.17.11-2.33.2-3.5.33l-4,.51-1.26.15-3.94.39-4.1.43a1.07,1.07,0,0,1-.31,0C286.05,203.78,286,203.64,285.79,202.47Z"/><path class="cls-1" d="M286.32,207.08c.81.11,1.29.26,1.09.54s0,.32,0,.47c.05,1.06.09,2.11.16,3.17,0,.45.11.9.16,1.35.09.76.18,1.52.25,2.28,0,.39,0,.79,0,1.18.06.78.17,1.56.23,2.34,0,.4,0,.81,0,1.21a3,3,0,0,0,.11.43.17.17,0,0,1-.06.19,2.77,2.77,0,0,1-1.52.23c-.49,0-.82-.1-.83-.24,0-.65-.07-1.29-.13-1.93,0-.26-.12-.52-.14-.78,0-.41,0-.82,0-1.23,0-.6,0-1.2-.08-1.8s-.16-1.37-.24-2.06c0-.22-.05-.43-.07-.65-.06-.68-.11-1.36-.18-2s-.14-1.41-.21-2.11a.29.29,0,0,1,0-.16C285,207.26,285.15,207.22,286.32,207.08Z"/><path class="cls-1" d="M190.66,219.23a13.47,13.47,0,0,1-2.09,2.93c-.5.52-1.3,1.39-2.09,1.31a1.93,1.93,0,0,0-1.89.86c-.28.65.25,1.08.86,1.15,3.65.38,6.41-3.14,8-6,.76-1.38-2.17-1.34-2.75-.27Z"/><path class="cls-1" d="M291.46,228.18c24.26-.65,48.55-1.5,72.75-3.06q4.25-.28,8.46-.67c1.41-.13,2.81-.27,4.19-.43.69-.08,1.38-.17,2.05-.27l1-.17.42-.1.08,0s0,0,.05,0a7.27,7.27,0,0,0,2.5-2.82,19.3,19.3,0,0,0,1.57-4.08A51.26,51.26,0,0,0,386,206.45c.21-3.44.22-6.92.13-10.4-.19-7-.78-13.94-1.54-20.9s-1.71-13.91-2.73-20.85l-1.56-10.43-.37-2.61-.23-1.74c-.09-.68-.17-1.36-.21-2a4.48,4.48,0,0,1,.5-2.79c0-.06.15-.2.26-.18l.28.07.57.16a3.24,3.24,0,0,1,1.28.51c1,.73,1.93,1.44,2.88,2.18.68.53,1.26,1,1.88,1.5,1.23,1,2.45,2,3.64,3a124.6,124.6,0,0,1,26.87,32,109.94,109.94,0,0,1,6,12,102,102,0,0,1,4.29,12.74,94.54,94.54,0,0,1,3.07,26.6c-.23,5.58-1,4.74-1.74.1-.35-2.32-.85-5.57-1.44-9.49s-1.43-8.42-2.53-13.27A101.4,101.4,0,0,0,419,184a106.21,106.21,0,0,0-9.8-17.1c-1.88-2.7-3.91-5.31-6-7.84s-4.34-5-6.67-7.35-4.74-4.64-7.24-6.83c-1.24-1.09-2.51-2.17-3.8-3.22-.65-.52-1.29-1-1.95-1.56l-.3-.25-.18-.15s-.07-.09-.08,0a.34.34,0,0,0,0,.1,2.26,2.26,0,0,0,0,.44l.41,3.07.5,3.44c.67,4.59,1.33,9.2,1.94,13.83,1.4,10.72,2.74,21.68,3.27,32.82a118.22,118.22,0,0,1-.25,16.82,43.17,43.17,0,0,1-1.63,8.45,18.9,18.9,0,0,1-1.82,4.11,10,10,0,0,1-3.43,3.47,3.7,3.7,0,0,1-.9.33,41.55,41.55,0,0,1-4.75.69c-1.54.16-3.07.3-4.6.43q-4.59.38-9.18.67c-6.12.4-12.23.73-18.35,1q-18.36.91-36.71,1.5-22.6.74-45.21,1.08-17.12.26-34.27.17c-11.42-.08-22.82-.26-34.16-.8-4.4-.22-8.79-.48-13.16-.89-2.19-.21-4.37-.44-6.55-.77a42.71,42.71,0,0,1-6.55-1.38,14.15,14.15,0,0,1-1.66-.64l-.43-.23c-.17-.08-.34-.22-.51-.32a2.89,2.89,0,0,1-.47-.38,2,2,0,0,1-.41-.45,2.4,2.4,0,0,1-.5-1.07,2.44,2.44,0,0,1,.13-1.17l.64-1.78c.78-2.07,1.64-4.07,2.52-6.07,1.78-4,3.66-7.93,5.67-11.82,1.77-3.43,3.56-6.76,5.64-10.09a47.3,47.3,0,0,1,5.06-6.88,13.62,13.62,0,0,1,2.69-2.32,5.26,5.26,0,0,1,1.78-.72,3.17,3.17,0,0,1,2,.25,8.4,8.4,0,0,1,3.86,3.85,8.06,8.06,0,0,1,.84,3.17,9,9,0,0,1,0,2.13c-.18.61-.49,0-1.15-1.51a14.68,14.68,0,0,0-1.5-2.64,8,8,0,0,0-1.3-1.39,7.33,7.33,0,0,0-.83-.6c-.15-.1-.31-.18-.47-.27l-.25-.12-.2-.08a.71.71,0,0,0-.41,0,2.88,2.88,0,0,0-.6.3,9.63,9.63,0,0,0-1.7,1.49,55.45,55.45,0,0,0-6.44,9.34c-1.94,3.36-3.76,6.84-5.51,10.38s-3.43,7.15-5,10.8c-.39.91-.78,1.82-1.15,2.74l-.52,1.36-.25.67-.1.3a.1.1,0,0,0,0,.09.05.05,0,0,0,0,0l.17.09a12.48,12.48,0,0,0,2.43.85,80.32,80.32,0,0,0,11.7,1.77c4,.38,8.06.63,12.13.84,8.14.4,16.34.6,24.56.7,24.41.29,49-.08,73.45-.76Z"/><path class="cls-1" d="M272,141.8c0,1.46-.11,3.27.77,4.53s2.5,1.13,3.66.63c2.49-1.07,2.38-4.31,2.85-6.55.15-.69-2-.34-2.16.31-.35,1.67-.28,3.74-1.3,5.18a4.48,4.48,0,0,1-.36.4c.43-.07.48-.12.13-.16l-.23-.08a2.43,2.43,0,0,1-.92-1.52,16.72,16.72,0,0,1-.27-3.32c0-.56-2.2-.16-2.17.58Z"/><path class="cls-1" d="M267.9,167.47a4.88,4.88,0,0,0,6.14-2.36c.61-1.21-2.14-1-2.57-.1a3.9,3.9,0,0,1-.63,1c-.07.07-.17.13-.24.2s-.19.19,0,0,0,0,0,0-.13,0-.21,0c.21,0-.5-.15-.28-.07a2.21,2.21,0,0,0-1.95.24c-.33.21-.87.9-.23,1.13Z"/><path class="cls-1" d="M273.84,136.64c2-2.84,4.86-3.66,7.92-1.86.78.46,3.46-.7,2.31-1.37-4.44-2.61-10-.95-12.92,3.2-.73,1,2.16.79,2.69,0Z"/><path class="cls-1" d="M14.18,274.51,10,276c-2.73-6.79,1.65-16.31,1.85-16.32h8.35l-2.75,2.61C14.36,266.5,14.18,274.51,14.18,274.51Z"/></g></svg>