<svg id="Layer_1" data-name="Layer 1" xmlns="http://www.w3.org/2000/svg" width="520" height="520" viewBox="0 0 520 520"><defs><style>.cls-1{fill:#221f1f;}</style></defs><title>Notioly v2</title><g id="_7.Schoolgirl" data-name="7.Schoolgirl"><path class="cls-1" d="M339,164.43c-17.62,45.54-48.33,35.49-57.81,22.48-.16-.21,12.82-3.49,17.76-21.73,15.59,5.06,16.59-17.31,3.06-13.66-.53.15.91-4.16.91-4.16-9.63-5.81-18.61-13.55-21-28a54.74,54.74,0,0,1-31.81,4.76c-4.81,14.08-9.46,30.69-6.41,45.26a24,24,0,0,0,3.32,8.24c-37.39,10.14-26.4-46.1-18-62.14a57.74,57.74,0,0,1,22.92-23.72c6.78-3.86,28.37-11.22,42.41,2.85,6.7-3,38.34,1.71,45.77,31.89C342.47,136.09,341.34,158.25,339,164.43Z"/><path class="cls-1" d="M223,141a76.78,76.78,0,0,0-.9,13.78,50,50,0,0,0,.64,6.81,31.94,31.94,0,0,0,1.85,6.46,18.6,18.6,0,0,0,3.53,5.48,14.27,14.27,0,0,0,5.45,3.3l1.58.41a14.35,14.35,0,0,0,1.62.22,19.31,19.31,0,0,0,3.32.1c1.11-.05,2.23-.25,3.34-.37l1.45-.32.32-.07-.15-.25-.21-.42-.35-.71a25.55,25.55,0,0,1-1.16-3,35.16,35.16,0,0,1-1.29-6.14,57.33,57.33,0,0,1-.17-12.35,93.39,93.39,0,0,1,2.51-14.63c1.18-4.8,2.62-9.51,4.2-14.16l.55-1.61.15-.46.08-.22.24,0,.95.13,1.47.21,1.07.11c1.43.16,2.86.23,4.3.27a51.62,51.62,0,0,0,8.6-.54,55.09,55.09,0,0,0,8.41-1.93c.69-.2,1.37-.44,2.05-.68s1.36-.49,2-.77l1-.4,1.56-.69,1.55-.68c.08-.08.08,0,.09.11l.05.23.09.45.17.91.31,1.59a9.22,9.22,0,0,0,.24,1c.19.69.35,1.39.56,2.07l.68,2,.82,2a33.93,33.93,0,0,0,4.49,7.26,41.13,41.13,0,0,0,6.12,6q1.68,1.35,3.47,2.58l1.81,1.21,2.44,1.52c-.5,1.45-.88,2.76-.9,2.85a2.54,2.54,0,0,0-.1.55c0,.15.14.06.21.05l.27-.05a3.09,3.09,0,0,1,.4,0,4.9,4.9,0,0,1,.94-.05,8.66,8.66,0,0,1,1.89.19,6.76,6.76,0,0,1,3.41,1.84,8.24,8.24,0,0,1,2,7.12,8.59,8.59,0,0,1-4.13,6.09,10.36,10.36,0,0,1-7.24.92l-.37-.07-.19,0-.09,0-.35-.1-.17-.05c-.06,0-.14-.06-.13,0l-.1.32L299,167.6c-.15.47-.31.93-.48,1.39a38.77,38.77,0,0,1-2.43,5.33,31,31,0,0,1-7.45,9,27.05,27.05,0,0,1-4.94,3.22l-.58.28-.31.14-.32.14s-.16,0-.09.09l.1.13c.15.18.27.36.44.54s.59.67.9,1a26.21,26.21,0,0,0,4.29,3.51A27.4,27.4,0,0,0,293,195a26.76,26.76,0,0,0,13.92,1.8,28.4,28.4,0,0,0,12.91-5.61,40.24,40.24,0,0,0,5.3-4.81c.78-.91,1.59-1.8,2.33-2.75s1.49-1.88,2.14-2.9a82,82,0,0,0,7-12.64c2.35-5.54,2.57-4.63,1.1.35-.4,1.24-.94,2.71-1.6,4.4s-1.53,3.54-2.63,5.5c-.5,1-1.11,2-1.76,3s-1.36,2.08-2.13,3.14-1.65,2.08-2.52,3.16c-.46.52-1,1-1.45,1.53a18.34,18.34,0,0,1-1.55,1.5,33.24,33.24,0,0,1-11.77,7.14,28,28,0,0,1-13.8,1.09,30.69,30.69,0,0,1-12.71-5.42,28.56,28.56,0,0,1-2.69-2.22c-.41-.42-.85-.8-1.24-1.24l-.59-.66a6.18,6.18,0,0,1-.52-.61c-.11-.2-.19-.39-.28-.59l-.55-1.17-.14-.29,0-.08,0,0c.11,0-.27-.09.24,0v-.12a2.07,2.07,0,0,1,0-.48c.13-.34.73-.56,1.23-.77l.75-.33.46-.22a22.16,22.16,0,0,0,2.72-1.55,27.75,27.75,0,0,0,8.57-9.16,34.7,34.7,0,0,0,2.73-5.78c.19-.5.37-1,.53-1.52l.31-1,.44-1.54.11-.38.06-.19,0-.1.09,0,.75.21,1.49.42.35.09.18,0,.37.06c.25,0,.5.11.74.13a10,10,0,0,0,2.9-.05,6.78,6.78,0,0,0,2.53-1.06,6.56,6.56,0,0,0,2.7-4.68,6,6,0,0,0-1.63-5.05,5,5,0,0,0-2.35-1.2,9.22,9.22,0,0,0-1.4-.12,4.53,4.53,0,0,0-.73,0,11.4,11.4,0,0,0-1.51.26l-.84-.15c-.26-.05-.61,0-.72-.34a2.62,2.62,0,0,1-.08-2c.08-.39.19-.81.3-1.17l.21-.7.1-.32.05-.14-.17-.11-.76-.48-1.7-1.13c-1.12-.78-2.23-1.58-3.31-2.43a44.51,44.51,0,0,1-6.67-6.43,35.31,35.31,0,0,1-5-7.93l-.91-2.17-.77-2.24c-.22-.75-.41-1.51-.61-2.27a9.51,9.51,0,0,1-.26-1.15l-.09-.48,0-.18s0-.07,0-.08l-.12,0-.48.21-.24.11-.42.17-1.09.43c-1.45.58-2.93,1.09-4.43,1.55a55.55,55.55,0,0,1-18.62,2.38c-.79,0-1.57-.09-2.36-.16l-1.17-.12-.59-.07-.51-.07a1.54,1.54,0,0,0-.36,0l-.12.35-.72,2.18q-1.45,4.37-2.67,8.79a91.36,91.36,0,0,0-3.55,20.62,51.3,51.3,0,0,0,.59,10.37,25.44,25.44,0,0,0,1.22,5,22.86,22.86,0,0,0,1,2.35l.29.57c.12.22.32.6.5.89.37.62.77,1.25,1.15,1.85-.59.16-1.26.29-1.88.44l-1.69.38c-.41.08-.8.19-1.21.25l-1.24.16a26.72,26.72,0,0,1-5,.22,16.18,16.18,0,0,1-9.42-3.42,19,19,0,0,1-5.7-8.21,37.06,37.06,0,0,1-2.11-9.64,84.09,84.09,0,0,1,2.05-25,99.52,99.52,0,0,1,3.47-12.07,51.09,51.09,0,0,1,2.48-5.82,60.49,60.49,0,0,1,3.18-5.45,58.1,58.1,0,0,1,12.93-14,61.58,61.58,0,0,1,8-5.25,45.62,45.62,0,0,1,9-3.4,41.54,41.54,0,0,1,19-1,29.07,29.07,0,0,1,9,3.4,30.09,30.09,0,0,1,3.9,2.8c.31.25.6.53.89.8l.3.28.12.12s.08.09.13,0l.31-.11.55-.15c.41-.11.81-.15,1.22-.22a27.88,27.88,0,0,1,7.42.16,43.75,43.75,0,0,1,7.17,1.61,46.91,46.91,0,0,1,13.09,6.43,44.1,44.1,0,0,1,5.59,4.71,43.41,43.41,0,0,1,4.68,5.63,46.08,46.08,0,0,1,3.63,6.37,48.51,48.51,0,0,1,2.48,6.9c.32,1,.52,2.1.75,3.16s.35,2.11.44,3.17c.26,2.12.37,4.24.46,6.39a110.77,110.77,0,0,1-.7,16.87,28.78,28.78,0,0,1-1.71,7.36,12.42,12.42,0,0,1-1,2.05c-.22.32-.28.17-.21-.39s.28-1.54.47-2.94a127.49,127.49,0,0,0,1-13,122.31,122.31,0,0,0-.17-12.84,63.64,63.64,0,0,0-.74-6.37c-.22-1-.43-2-.75-3.08l-.44-1.54-.54-1.51a39.59,39.59,0,0,0-15.59-20,44.48,44.48,0,0,0-11.77-5.53,43.56,43.56,0,0,0-6.38-1.43,27,27,0,0,0-6.4-.23,11.33,11.33,0,0,0-1.49.23l-.35.09-.09,0a.61.61,0,0,0-.18.06l-.4.14-.79.29c-.07,0-.14.08-.19,0l-.16-.15-.31-.29c-1-.94-1.15-1.09-1.61-1.49l-1.24-1a25.59,25.59,0,0,0-5.55-3.22,30.78,30.78,0,0,0-12.71-2.25,43.7,43.7,0,0,0-9.69,1.36,44.31,44.31,0,0,0-9.19,3.37A58.72,58.72,0,0,0,245.27,98a57,57,0,0,0-7.19,6.79,53,53,0,0,0-10.2,16.83A98.28,98.28,0,0,0,223,141Z"/><path class="cls-1" d="M277.32,188.85a30.36,30.36,0,0,1-11.19,1.34,26.87,26.87,0,0,1-4.1-.51,25.43,25.43,0,0,1-12.61-6.79,23.46,23.46,0,0,1-3.93-5.06A17,17,0,0,1,243,170c0-.85.52-.77,1.15-.15a5.27,5.27,0,0,1,.92,1.26,6.44,6.44,0,0,1,.78,1.8A21.76,21.76,0,0,0,255,184.7a19.93,19.93,0,0,0,4.25,2.07,28.92,28.92,0,0,0,4.68,1.1,27.59,27.59,0,0,0,10.55-.41,28,28,0,0,0,6.19-2.18,32,32,0,0,0,8.22-5.65,31.46,31.46,0,0,0,2.61-2.81c.4-.5.77-1,1.15-1.53a16.72,16.72,0,0,0,1.1-1.55c.31-.47.6-.94.92-1.41,1.12-1.77,1.56-2.28,2.3-2.37a3.09,3.09,0,0,1,.5-.06c.49,0,.34,1-.4,2.4a35,35,0,0,1-9.59,11.3,32.84,32.84,0,0,1-10.09,5.3Z"/><path class="cls-1" d="M280.15,186.46c-8.08,5.5-21.68,1.46-21.68,1.46,8.27,15.12,23.52,9.25,25.75,3.27Z"/><path class="cls-1" d="M269.06,198a16.64,16.64,0,0,1-8.11-5.18l-1.12-1.36-.28-.33-.14-.18-.18-.3-.75-1.19c-.59-1-1.24-2-1.74-2.89l2.22.64c.7.18,1.39.37,2.06.52l.65.14c.2.05.39.09.59.12l1.18.22a38.34,38.34,0,0,0,4.78.5,24.38,24.38,0,0,0,5.13-.35,21.37,21.37,0,0,0,6.07-2.18c.6-.29.78.09.47.73a4.36,4.36,0,0,1-.82,1.12,6.13,6.13,0,0,1-1.6,1,21.76,21.76,0,0,1-7,1.32,33.15,33.15,0,0,1-7-.59c-.83-.16-1.66-.32-2.5-.5l-.79-.2s0,0,0,0l.05.07.09.14.17.28.17.28.09.14,0,.09.13.15a16.21,16.21,0,0,0,6.78,5.64,13.22,13.22,0,0,0,5.35,1,15.29,15.29,0,0,0,4.13-.61,13.43,13.43,0,0,0,3.71-1.85c.22-.16.44-.31.65-.48l.56-.56a6.15,6.15,0,0,0,1-1.19,2.5,2.5,0,0,0,.36-.66c0-.11.14-.22.1-.32l-.13-.13-.06-.06-.13-.14-.56-.61-1-1.06c-1.2-1.36-1.5-1.86-1.43-2.44a2.06,2.06,0,0,1,0-.38c.14-.35.83,0,1.77,1,.7.7,1.39,1.42,2.08,2.16l.61.66.48.54.25.27c0,.1-.1.21-.15.32l-.57,1.19a3.72,3.72,0,0,1-.47.74,12.44,12.44,0,0,1-5.36,4.05,15.51,15.51,0,0,1-9.79.74Z"/><path class="cls-1" d="M204.38,130.18c-.34,12.47-.85,24.92-1.07,37.36-.07,4.54-.08,9.08,0,13.58,0,1,.07,2,.12,3l.08,1.48.16,1.43.08.72a.52.52,0,0,0,.11.3,6,6,0,0,0,.82.95c.67.65,1.43,1.27,2.19,1.88,3.11,2.41,6.46,4.6,9.83,6.71,1.69,1.05,3.4,2.08,5.13,3.05.86.49,1.73,1,2.6,1.39.22.11.43.2.64.29l.29.11a.48.48,0,0,0,.18,0h.59a2.91,2.91,0,0,0,.63-.12,25.15,25.15,0,0,0,5.27-2.33,58,58,0,0,1,5.53-2.57,29,29,0,0,1,10.7-2c.91,0,1.83.1,2.74.15s1.8.27,2.7.41a7.57,7.57,0,0,1,2.71,1,14,14,0,0,1,2.23,1.69c1.75,1.57,3.21,3.36,4.73,5a14.45,14.45,0,0,0,2.38,2.16,7.25,7.25,0,0,0,2.78,1.16,9.58,9.58,0,0,0,3.07,0,13.58,13.58,0,0,0,3-.95,16.9,16.9,0,0,0,5.22-3.74c.46-.49.78-.84,1-1s.4-.27.48-.2.07.29,0,.63a5.26,5.26,0,0,1-.57,1.35,12.8,12.8,0,0,1-3.49,3.86,13,13,0,0,1-3.14,1.75,10.75,10.75,0,0,1-4.11.81,10.51,10.51,0,0,1-2-.18,9.65,9.65,0,0,1-1.95-.63,10.67,10.67,0,0,1-3.25-2.26c-1.76-1.74-3.17-3.55-4.73-5.13a16.39,16.39,0,0,0-2.4-2.08,5.86,5.86,0,0,0-1.26-.7,3.2,3.2,0,0,0-.63-.23,5.2,5.2,0,0,0-.75-.15,25.91,25.91,0,0,0-3.27-.43c-.55,0-1.09-.1-1.64-.08l-1.65,0a27.25,27.25,0,0,0-6.47,1.21,43.93,43.93,0,0,0-6.2,2.65L230.7,203a15,15,0,0,1-3.55,1.33,5.8,5.8,0,0,1-2.32,0,13,13,0,0,1-1.77-.81C222,203,221,202.43,220,201.84a155.24,155.24,0,0,1-14.31-9.42c-.58-.45-1.15-.91-1.71-1.41a11.12,11.12,0,0,1-1.64-1.7,2.86,2.86,0,0,1-.38-.7c0-.14-.1-.28-.13-.42l0-.3-.13-1.1-.13-1.11-.06-1.09-.13-2.17-.06-2.16c0-1.44,0-2.88-.06-4.31,0-12.59.51-25.13.87-37.68.23-7.72.46-15.45.48-23.15,0-1.46,0-2.92,0-4.38s0-2.9-.15-4.35c-.2-2.9-.5-5.81-.85-8.71s-.77-5.78-1.29-8.63c-.25-1.43-.54-2.85-.89-4.24l-.2-.72c-.06-.2-.12-.4-.19-.59a2.85,2.85,0,0,0-.26-.56.61.61,0,0,0-.2-.22.23.23,0,0,0-.28.06,3.92,3.92,0,0,0-.56,1.79c-.15,1.05-.24,2.18-.3,3.27s-.06,2.21,0,3.31l0,.93c0,.42.05.84.09,1.27,0,.73.53,2.23-.64,1.41l-1.18-.46a10.18,10.18,0,0,0-1.17-.37,11.34,11.34,0,0,0-1.52-.3A6.93,6.93,0,0,0,190,94a6.09,6.09,0,0,0-3.67,4.3,11.2,11.2,0,0,0-.12,5.34,10.82,10.82,0,0,0,1.65,3.87,9.05,9.05,0,0,0,1.92,2.06c1.21,1,2.07,1.28,2.74,1.76a10.28,10.28,0,0,1,1,.52c.16.14.1.23-.18.3a4.3,4.3,0,0,1-1.51,0,6.47,6.47,0,0,1-1.21-.28,8.74,8.74,0,0,1-1.43-.61,9.43,9.43,0,0,1-2.93-2.6,11.38,11.38,0,0,1-1.56-2.89,12.47,12.47,0,0,1-.76-3.19,12,12,0,0,1,1-6.61,8.53,8.53,0,0,1,2.24-2.82,7.51,7.51,0,0,1,3.36-1.52,9.71,9.71,0,0,1,3.57.07,5.55,5.55,0,0,1,.85.19l.18.05h0s.06,0,.08,0l0-.09h0v-.24l0-.81c0-1.07,0-2.15.07-3.22s.16-2.16.32-3.25a13.35,13.35,0,0,1,.69-2.88,2.73,2.73,0,0,1,1.26-1.55,2.3,2.3,0,0,1,.44-.13,1.14,1.14,0,0,1,.52,0,1.65,1.65,0,0,1,.81.26,2.75,2.75,0,0,1,.69.68,5.89,5.89,0,0,1,.61,1.18c.18.45.34.94.49,1.44l.3,1.14c.14.53.26,1,.37,1.58.46,2.11.82,4.21,1.14,6.31q.72,4.69,1.2,9.42c.16,1.57.3,3.15.41,4.75q.08,1.19.12,2.4l0,2.38c.08,6.34-.07,12.63-.21,18.93Z"/><path class="cls-1" d="M196.63,100.77l-.48-.44s0-.06-.07-.1a.18.18,0,0,0-.29,0,.25.25,0,0,0,0,.13v.3a11.6,11.6,0,0,0,.69,3.71,7.69,7.69,0,0,0,.76,1.55c.39.6.9,1.15,1.17,1.6.06.11-.11.58-.58.83a1.28,1.28,0,0,1-1.52-.24,10.39,10.39,0,0,1-1.93-4.71c-.08-.5-.19-1-.29-1.51,0-.26-.09-.52-.11-.79a3,3,0,0,1,0-.42,4.06,4.06,0,0,1,0-.5,2.18,2.18,0,0,1,1.17-2,2.4,2.4,0,0,1,2.18.65,16.88,16.88,0,0,1,1.48,1.44c.69.74,1.31,1.52,2,2.22a16.44,16.44,0,0,0,1.7,1.46l.38.27c.44.36.45.49.3,1l-.08.35c-.07.39-.57.52-1.07.26a13,13,0,0,1-3.29-2.84c-.71-.77-1.39-1.57-2.09-2.22Z"/><path class="cls-1" d="M307.89,206.59c-.67-.44-1.37-.83-2.07-1.22s-1.46-.69-2.23-.93c-.57-.17-1.15-.28-1.72-.46-1-.25-2.06-.45-3.1-.63s-2.13-.24-3.2-.25-1.91.09-2.86.18a17.81,17.81,0,0,1-3.63.49c-.79,0-.21-2.2,1.27-2.44l1.95-.28c.66,0,1.32-.05,2-.07a18.75,18.75,0,0,1,2,0c.66.07,1.32.16,2,.26s1.59.24,2.39.36l1.22.18c.4.07.79.2,1.19.3l1.29.38c.43.12.83.34,1.25.5l1.24.53,1.17.66.72.41c.23.15.45.32.68.48.44.33.91.61,1.32,1a29.67,29.67,0,0,1,3.51,3.49c.82.95,1.68,1.87,2.46,2.81l.53.6c.61.76.66,1,.41,1.55-.06.13-.11.27-.18.39-.21.4-.81.34-1.43-.22-1.71-1.62-2.94-3.41-4.47-5a21.24,21.24,0,0,0-3.68-3.09Z"/><path class="cls-1" d="M178.44,197a73.28,73.28,0,0,1,.22-11.4c.3-3.75.71-7.47,1.17-11.19.33-2.71.63-5.42,1-8.12,1.33-9.52,2.84-19,4.06-28.51.54-4.21,1-8.47,1.26-12.66.08-1.35.16-2.7.2-4l.06-1.6s0-.08,0-.1l.09,0,.19,0,.38-.11.77-.22.59-.16.51-.13c.34-.09.69-.16,1-.24a23.83,23.83,0,0,1,4.18-.44,28.11,28.11,0,0,0,3.94-.28c1.59-.28,1.57.29.26,1.13a9.36,9.36,0,0,1-3,1.09c-1.27.27-2.62.42-4.06.65-.64.1-1.28.22-1.92.38l-.77.19h0v.16l-.06,1.05-.13,2.09q-.32,4.19-.81,8.34c-.64,5.54-1.45,11.06-2.33,16.58-1.06,6.61-1.92,13.51-2.81,20.28-.94,7.44-1.91,14.91-2.1,22.36a34.53,34.53,0,0,0,.38,6.77,7,7,0,0,0,1.1,2.91c.35.44.67.89,1,1.31l1.15,1.27A138.61,138.61,0,0,0,199.78,218a132.8,132.8,0,0,0,13.27,8.88l3.06,1.65c1,.47,1.76.88,2.42,1.23s1.21.55,1.65.79c.22.11.41.23.59.33s.33.17.47.26a3.2,3.2,0,0,1,.68.55,5.13,5.13,0,0,1,.52.55c.16.27-.2.38-1.05.31a6.76,6.76,0,0,1-1.59-.27c-.61-.19-1.32-.42-2.1-.71a78.78,78.78,0,0,1-12.91-7.38c-4.15-2.83-8.2-5.91-12.13-9.16-2.91-2.43-5.76-4.94-8.49-7.63-.67-.68-1.36-1.35-2-2.08l-1-1.09-.94-1.2a7.82,7.82,0,0,1-.89-1.48,14,14,0,0,1-.49-1.56,21.53,21.53,0,0,1-.47-3Z"/><path class="cls-1" d="M278.58,258.86,278,240.11l-.1-2.67,1.63-1,1.07-.59c.72-.39,1.44-.77,2.17-1.13a97.09,97.09,0,0,1,22.91-8,66.91,66.91,0,0,1,10.73-1.39,41.33,41.33,0,0,1,6.94.22,34.06,34.06,0,0,1,3.45.59,28,28,0,0,1,3.33,1.05c1.36.53.95,1-.35,1.11a27.85,27.85,0,0,1-5.93-.33,49,49,0,0,0-13.46.12,85.15,85.15,0,0,0-13.4,3,90.05,90.05,0,0,0-15.56,6.7l-1.41.77.51,16.08q.24,5.81.47,11.61c.28,5.86.55,11.74,1,17.54.34,4.51.83,8.92,1.4,13.34l.42,2.89c.52,3.62.67,4.68.35,5.57a4.77,4.77,0,0,1-.17.63c-.12.27-.43.1-.84-.57a11.81,11.81,0,0,1-1-3,121.19,121.19,0,0,1-1.7-12.25c-.41-4.16-.71-8.38-1-12.62-.4-6.28-.67-12.6-1-18.91Z"/><path class="cls-1" d="M311.28,300.56c-2.33.14-4.67.39-7,.74-.85.13-1.69.34-2.54.48-3,.51-6,1.12-8.94,1.86-1.31.33-2.61.74-3.88,1.17a44.93,44.93,0,0,1-4.92,1.62c-1.05.24-.49-2.18,1.44-2.86a64.58,64.58,0,0,1,10.4-2.7c2.13-.37,4.29-.95,6.47-1.33q3.58-.63,7.21-1c1.49-.14,3-.21,4.48-.26a53.34,53.34,0,0,1,6.81.28,28.45,28.45,0,0,1,5.22.87,6.69,6.69,0,0,1,1.13.35c.34.14.63.26.86.38a3,3,0,0,1,.52.39,1,1,0,0,1,.32.83,2,2,0,0,1,0,.43c-.12.43-.8.48-1.69.14a33.84,33.84,0,0,0-4.28-1,45,45,0,0,0-4.57-.47,54.82,54.82,0,0,0-7,.11Z"/><path class="cls-1" d="M249.79,224.39a69.9,69.9,0,0,1,8.26,1.56,30.1,30.1,0,0,1,3,.77,58.85,58.85,0,0,1,9.94,4.13c1.42.72,2.83,1.48,4.21,2.25a22.51,22.51,0,0,1,5,3.5c.47.49,0,.82-.73.9a4.16,4.16,0,0,1-2.71-.7,83.24,83.24,0,0,0-10.39-5.94,35.33,35.33,0,0,0-3.42-1.37c-1.18-.4-2.4-.69-3.58-1.07s-2.65-.64-4-1-2.69-.47-4-.71l-1.25-.2-1.26-.1-2.52-.21-1-.07h-2.87a27,27,0,0,0-3.82.18,38.33,38.33,0,0,0-5.78,1c-.41.09-.82.21-1.24.29-1.57.32-2.1.27-2.56-.23a2.34,2.34,0,0,1-.31-.33c-.25-.41.32-.88,1.49-1.22a42.11,42.11,0,0,1,11-1.76c1.42,0,2.84-.05,4.26,0l4.25.32Z"/><path class="cls-1" d="M248.7,236.6c.77.08,1.54.17,2.31.32s1.54.23,2.3.41c.56.12,1.13.18,1.68.31a41.91,41.91,0,0,1,5.68,2l2.45,1a8.53,8.53,0,0,1,3,1.77c.28.3-.15.67-.69.94a2,2,0,0,1-1.73.14c-1.83-1-3.79-1.92-5.81-2.84a18.91,18.91,0,0,0-3.9-1.08c-1.46-.34-2.94-.57-4.43-.78-.92-.08-1.84-.2-2.77-.25a35,35,0,0,0-4.22,0,22.79,22.79,0,0,0-3.19.51c-.23,0-.46.12-.69.15-.87.13-1.17,0-1.44-.52a3.17,3.17,0,0,1-.17-.38c-.15-.42.17-.82.81-1a19.4,19.4,0,0,1,3-.68c1-.11,2.08-.19,3.13-.24,1.57,0,3.15,0,4.72.19Z"/><path class="cls-1" d="M234.68,273.31c-.33-3.73-.72-7.47-1.18-11.19l-.59-4.07c-.61-4.79-1.27-9.58-2-14.35-.33-2.12-.75-4.24-1.18-6.32-.55-2.68-1.23-5.34-1.55-8.06-.21-1.69,2.26,0,2.89,3.1,1.12,5.5,2,11,2.69,16.64.38,3.36,1,6.82,1.48,10.24q.76,5.65,1.33,11.33c.24,2.33.44,4.66.63,7,.28,3.53.46,7.09.57,10.62.09,2.74.22,5.43.1,8.18l-.12,1.81c-.27,2.27-.66,3-1.31,3.29a2,2,0,0,1-.45.21c-.49.06-.57-.87-.43-2.42a114.76,114.76,0,0,0,0-14.71c-.2-3.75-.48-7.52-.86-11.28Z"/><path class="cls-1" d="M232.63,277.36c-.28-3.22-.59-6.43-.95-9.65l-.46-3.51c-.49-4.13-1-8.26-1.59-12.38-.26-1.83-.59-3.65-.91-5.46-.43-2.31-.95-4.62-1.21-7-.15-1.46,1.71.09,2.2,2.77.86,4.75,1.57,9.51,2.08,14.35.3,2.89.81,5.88,1.16,8.83.4,3.24.75,6.5,1.05,9.75.2,2,.34,4,.51,6,.23,3,.38,6.1.5,9.13.08,1.18.08,2.35.13,3.51s.06,2.33,0,3.51c0,.51,0,1,0,1.54-.19,1.94-.38,2.55-.85,2.89a1.41,1.41,0,0,1-.32.22c-.35.13-.52-.68-.46-2.05.12-4.07,0-8.4-.23-12.76-.1-1.61-.21-3.24-.31-4.86l-.4-4.87Z"/><path class="cls-1" d="M328.14,249.81l.53-4.6c.06-.56.06-1.13.13-1.68q.38-3,.77-5.91c.1-.87.15-1.76.18-2.63a13.45,13.45,0,0,1,.3-3.35c.19-.69,2.18.36,2.1,1.65a49.87,49.87,0,0,1-.88,6.83,41.48,41.48,0,0,0-.43,4.2l-.5,4.63-.28,2.85c-.13,1.44-.28,2.88-.33,4.32,0,1.11.06,2.21.12,3.3,0,.24,0,.48,0,.72,0,.9-.12,1.17-.7,1.37-.13,0-.26.1-.39.13-.44.09-.8-.28-.92-1a27.82,27.82,0,0,1-.17-6.2c.08-1.55.23-3.11.36-4.66Z"/><path class="cls-1" d="M254.47,299.83l1.86.06,1.84.15c1.24.09,2.47.2,3.69.37.89.11,1.79.13,2.68.28,3.13.49,6.22,1.14,9.29,1.87,1.35.35,2.73.62,4.08.94a25.16,25.16,0,0,1,5.16,1.49c1,.49-1,2-2.87,1.46l-10.39-2.74a54,54,0,0,0-6.52-1.06c-1.21-.13-2.41-.3-3.62-.41L256,302c-1.49,0-3-.12-4.48-.07l-3.39.14c-1.12.12-2.25.24-3.36.39a21.55,21.55,0,0,0-2.53.57c-.83.23-1.67.39-2.47.69-.36.13-.7.27-1.06.38-1.34.42-1.81.41-2.28-.05a2.36,2.36,0,0,1-.32-.31c-.28-.38.17-.89,1.17-1.31.74-.31,1.5-.61,2.27-.89s1.59-.43,2.4-.63,1.63-.41,2.46-.51l2.51-.32c1.25-.19,2.51-.18,3.76-.25s2.51-.05,3.76,0Z"/><path class="cls-1" d="M286.8,228.6c-.7.58-1.32,1.27-2,1.9s-1.22,1.36-1.81,2.06-1.11,1.45-1.58,2.23l-.19.29a3.12,3.12,0,0,0-.21.35l-.56,1.09c-.36.66-.75,1.63-1.1,2.42-.86-1-1.81-2.24-2.62-3.06-.48-.53-1-1-1.51-1.54a53.93,53.93,0,0,0-4.34-3.64,51.83,51.83,0,0,0-8.45-5.33,45.51,45.51,0,0,0-4.6-2c-.79-.28-1.56-.61-2.36-.85l-2.43-.66a32.43,32.43,0,0,0-4.37-.85,31.38,31.38,0,0,0-4.43-.36,44.74,44.74,0,0,0-5.67.15,22.43,22.43,0,0,0-2.83.29c-.94.12-1.88.23-2.83.31-1.18.1-1.14-.46-.23-1.14a11.27,11.27,0,0,1,5-1.77,46.15,46.15,0,0,1,23.67,4.14,58,58,0,0,1,12.56,7.77c.53.42,1.05.86,1.54,1.33s1,.9,1.5,1.4l.72.72.36.36.28.31.5.58.17-.34.25-.43.06-.11.14-.22.28-.43c.19-.29.37-.59.57-.87l1.22-1.65,1.34-1.55a37.25,37.25,0,0,1,7.77-6.34,44.22,44.22,0,0,1,14-5.43l1.42-.35,1.42-.23,2.85-.47a24.6,24.6,0,0,1,2.85-.32l2.87-.22,1.25-.1h1.27c3.16.07,4.16.25,4.79.84a2.35,2.35,0,0,1,.42.41c.26.45-1,.77-3.29.82-6.67.14-13.71.79-20.31,3a38.32,38.32,0,0,0-13.36,7.49Z"/><path class="cls-1" d="M342.87,299.75a34.83,34.83,0,0,0,.36-6.58c-.06-2.24-.24-4.5-.5-6.75-.18-1.64-.46-3.27-.71-4.91a165.43,165.43,0,0,0-3.49-17.18c-.65-2.52-1.42-5-2.28-7.44a90.27,90.27,0,0,0-3.78-9c-.46-.84,0-1.1,1-.62a7.35,7.35,0,0,1,3,3.6,83.54,83.54,0,0,1,3.34,9.78q1.39,5,2.35,10.05c.77,4,1.7,8.23,2.3,12.41a76.31,76.31,0,0,1,.88,13.95,23.31,23.31,0,0,1-.59,4.36,10.54,10.54,0,0,1-.79,2.15,4.47,4.47,0,0,1-1.66,1.86,3.51,3.51,0,0,1-.93.38l-.84.18a10,10,0,0,1-1.73.13,9.9,9.9,0,0,1-3.37-.61,14.51,14.51,0,0,1-5.49-3.79,28.24,28.24,0,0,1-5.45-8.47,21.82,21.82,0,0,1-.78-2.09c-.79-2.7-.6-3.72-.08-4.32a1.77,1.77,0,0,1,.38-.39c.46-.23.72.79,1.23,2.58a30.51,30.51,0,0,0,3.53,7.78,18.06,18.06,0,0,0,5.88,6,8.21,8.21,0,0,0,5.67,1l.36-.07a1.07,1.07,0,0,0,.29-.08.84.84,0,0,0,.36-.19,2.62,2.62,0,0,0,.69-.86,9.22,9.22,0,0,0,.86-2.86Z"/><path class="cls-1" d="M320.4,257.51c.05-.17.13-.35.19-.52s.23-.54.35-.8a4.27,4.27,0,0,1,1-1.3,2.08,2.08,0,0,1,1.31-.49,2.15,2.15,0,0,1,1.31.55l0,0,.33.41a1.47,1.47,0,0,1,.3.46,5.91,5.91,0,0,1,.45,1.1l.09.42c0,.11.05.22.07.33l.1.65c.06.43.12.86.16,1.28l.25,2.51a16.67,16.67,0,0,0,.41,2.15c.24.89.6,1.76.74,2.45,0,.2-.37.58-1,.62a1.54,1.54,0,0,1-1.55-.92,20.88,20.88,0,0,1-.81-5.95,9.19,9.19,0,0,0-.21-1.73c-.06-.27-.12-.56-.19-.82l-.11-.42a1.21,1.21,0,0,0-.11-.3A.34.34,0,0,0,323,257a1.09,1.09,0,0,0-.38.48l-.07.13-.09.25c-.07.18-.13.36-.19.54-.11.37-.21.74-.29,1.12a21.16,21.16,0,0,0-.53,3.54,16.6,16.6,0,0,0,.18,2.74c0,.2.07.39.09.59.06.73,0,.95-.6,1.17-.12.05-.24.12-.37.16-.42.13-.84-.15-1-.74a14.65,14.65,0,0,1-.27-5.41,22.63,22.63,0,0,1,.84-4.1Z"/><path class="cls-1" d="M307,277.28a2.32,2.32,0,0,1-.58-1.32,1.71,1.71,0,0,1,.58-1.39c.1-.1.2-.17.29-.26a3.16,3.16,0,0,1,.63-.34,6.47,6.47,0,0,1,2.39-.18l.3,0,.2,0,.39.07.77.15c.45.09.91.14,1.37.2a3.08,3.08,0,0,1,1.74.48c.17.13-.07.63-.39,1.09s-.67.89-.95.83a30.37,30.37,0,0,1-3.1-.82,1,1,0,0,0-.77-.08h-.08a.58.58,0,0,0-.42.2.31.31,0,0,0,.07.36,2,2,0,0,0,.47.41c.17.1.35.22.71.41a9.7,9.7,0,0,0,1,.48c.52.22,1.09.33,1.63.5a2.54,2.54,0,0,1,.37.1c.43.18.5.38.32.93,0,.12-.08.25-.13.37a.86.86,0,0,1-.85.61,9,9,0,0,1-2.94-.94l-.53-.27-.82-.44c-.3-.15-.62-.38-.93-.57a8.38,8.38,0,0,1-.77-.63Z"/><path class="cls-1" d="M314.26,269.81l1.44.37.32.07.12,0h.05a.32.32,0,0,0,0,.11v.2a2.34,2.34,0,0,0,0,.38c0,.15,0,.17,0,.26a.5.5,0,0,0,.08.2s0,0,0,0a.14.14,0,0,0-.12,0l-.05.06-.82.56h0l0-.05a.83.83,0,0,0-.15-.19,7.85,7.85,0,0,0-2.11-1.55c-.61-.35-1.28-.62-1.94-1a12.87,12.87,0,0,1-2.45-1.48,2.44,2.44,0,0,1-.67-1,1.19,1.19,0,0,1,.17-1.14,3.6,3.6,0,0,1,2.31-1.15,4.44,4.44,0,0,1,.74-.06,4,4,0,0,1,.67,0c.38,0,.74,0,1.07.1a32.7,32.7,0,0,1,3.52.67,13.09,13.09,0,0,1,4.27,1.6c.41.28.07.73-.5,1a2.72,2.72,0,0,1-2.13.26A35.82,35.82,0,0,0,314,267a18.19,18.19,0,0,0-2-.35.84.84,0,0,1-.41-.08,1.48,1.48,0,0,0-.33,0c-.14,0-.37,0-.4.19s.14.22.26.3a4.44,4.44,0,0,0,.44.22l1.17.57a21.62,21.62,0,0,1,2.76,1.6,7.2,7.2,0,0,1,1.31,1.19l.14.19.07.1,0,0a.59.59,0,0,1,.09.18.86.86,0,0,1-.36,1.12,1.38,1.38,0,0,1-.24.1.84.84,0,0,1-.3,0l-.3,0a7.67,7.67,0,0,1-.83-.16c-1.25-.3-2.44-.63-3.64-.85q-.57-.12-1.11-.18l-.55-.06-.37,0a1.61,1.61,0,0,0-.65.1.45.45,0,0,0-.27.54,1,1,0,0,0,.26.5,2.15,2.15,0,0,0,.54.39,7.43,7.43,0,0,0,.9.43c.64.25,1.31.45,2,.65.3.09.6.16.91.26,1.13.35,1.52.68,1.51,1.33a1.13,1.13,0,0,1-.05.42c-.19.4-.59.55-1.44.38a20.33,20.33,0,0,1-3.46-1c-.3-.12-.6-.26-.91-.41l-.46-.25c-.17-.1-.27-.17-.56-.37a5.05,5.05,0,0,1-.63-.59l-.29-.31a4.05,4.05,0,0,1-.21-.35,1.84,1.84,0,0,1-.31-.72q-.09-.36-.15-.75a3.64,3.64,0,0,1,.15-.8,2.28,2.28,0,0,1,.43-.7,3.32,3.32,0,0,1,2.49-.91h.67l.43,0c.29,0,.56.06.83.11,1.09.16,2.11.41,3.11.64Z"/><path class="cls-1" d="M316.1,285.63a31.82,31.82,0,0,1-3.86-1.3c-.45-.2-.93-.31-1.37-.54l-.69-.34-.86-.47a8.89,8.89,0,0,1-1-.64,4.94,4.94,0,0,1-.81-.66,2,2,0,0,1-.46-1,1.4,1.4,0,0,1,.67-1,6.68,6.68,0,0,1,2.88-1,6.93,6.93,0,0,1,3,0c.59.18-.29,2.18-1.27,2.2-.45,0-.89,0-1.32.07-.24,0-.14,0-.21,0a.54.54,0,0,0-.26,0c-.17,0-.22.1-.23.18h0c0,.11.17.23.33.3.43.23,1,.44,1.5.67a33.92,33.92,0,0,0,3.58,1.3c.75.2,1.51.4,2.28.53.58.12,1.17.16,1.75.24a11.35,11.35,0,0,0,1.75,0,5.11,5.11,0,0,0,1.29-.27,5.84,5.84,0,0,0,1.18-.48,4.3,4.3,0,0,1,.48-.24c.56-.35.8-.33,1.26.07.1.09.22.18.31.27.32.32.24.79-.27,1.23a8.51,8.51,0,0,1-5.52,1.56,19.58,19.58,0,0,1-4.15-.57Z"/><path class="cls-1" d="M332.25,274.45a26.62,26.62,0,0,1-.23,3c0,.36,0,.72-.11,1.08a16.53,16.53,0,0,1-1.16,3.7,16.79,16.79,0,0,1-.78,1.6,2.86,2.86,0,0,1-1.85,1.63c-.29.06-.4-.49-.48-1.05s-.19-1.08,0-1.23a11.17,11.17,0,0,0,1.76-2.87,7.84,7.84,0,0,0,.52-2.39,24.5,24.5,0,0,0,.25-2.73,16.05,16.05,0,0,0,0-1.7,11.88,11.88,0,0,0-.36-2.54,5.56,5.56,0,0,0-.86-1.66c-.08-.11-.17-.19-.24-.28-.26-.35-.21-.46.1-1l.21-.34a.68.68,0,0,1,.49-.34.89.89,0,0,1,.66.22,6.56,6.56,0,0,1,1.9,3.85,18.36,18.36,0,0,1,.28,3Z"/><path class="cls-1" d="M224.92,290.74c.36-1.61.68-3.24,1-4.88.11-.6.16-1.21.29-1.81.42-2.1.92-4.21,1.4-6.31.2-.93.39-1.87.54-2.81a14.59,14.59,0,0,1,.83-3.57c.31-.7,2.1.72,1.81,2.06-.51,2.39-1,4.78-1.77,7.17a43.57,43.57,0,0,0-.86,4.47l-.95,5c-.2,1-.42,2-.65,3.06a38.31,38.31,0,0,1-1.33,4.61,13.9,13.9,0,0,1-1.63,3.48c-.2.22-.37.46-.58.68a1.94,1.94,0,0,1-1,.65.81.81,0,0,1-.72-.21A1.94,1.94,0,0,1,221,302c-.27-.34-.14-.87.27-1.3a14.16,14.16,0,0,0,2.49-5.25c.44-1.51.81-3.12,1.12-4.75Z"/><path class="cls-1" d="M182,332.69l-11.69-.11-5.85-.06-2.92,0h-2.88s0,0,0-.06V332l0-.77-.71,1-.09.12s-.07.13-.06.05l0-.23,0-.47,0-.47c0-.06-.11,0-.17,0h-.36l-1.24-.15.08-3.33,0-2.7v-5.44a103.36,103.36,0,0,1,.53-11l.16-1.37.26-1.82.08-.61.05-.3,0-.15v-.08h.07l1.22,0,1.74-.07,5.46-.22c3.62-.06,7.25-.15,10.87-.18,8.41-.08,16.81-.15,25.2-.12,29.61.13,59.2.57,88.79,1l39.35.53,28.74.32.47.11c.16,0,.33.05.43.19a2,2,0,0,1,.41.91c.07.33.11.75.14,1l.05.71c.05.93.07,1.86.08,2.78,0,1.84,0,3.67-.1,5.5-.14,3.66-.37,7.31-.85,11-.35,2.61-.88,3.75-1.07,3.61s-.09-1.42-.1-3.6,0-5.3,0-9c0-1.87-.06-3.9-.09-6.05,0-1.08-.06-2.18-.12-3.29l0-.83,0-.41,0-.24s0,0,0,0h0l-51-.79-51.5-.9c-20.6-.37-42.06-.44-63.13-.42-9.82,0-19.66.05-29.45.38l-3.38.14H159c-.07,0-.13,0-.12.07l0,.35-.11.84-.11.9c-.28,2.41-.43,4.84-.5,7.28s-.07,4.89-.07,7.35v3.69l0,1.86,0,1.42v.33h.64l8.33.07,42.81.38c21.6.17,43.31.35,64.76.38,16.67,0,33-.1,49.49-.26l10.84-.14c13.56-.16,17.86-.16,20.78.26.67.11,1.55.14,2,.25.69.14-.37.5-2.84.76s-6.34.5-11.31.63c-29.48.73-60.56.62-91.76.52L182,332.75Z"/><path class="cls-1" d="M167.49,402.11q.12-8.78.22-17.55c0-2.13,0-4.26,0-6.4.1-7.52.24-15,.33-22.56,0-3.33,0-6.69,0-10,0-4.25-.2-8.52,0-12.78.15-2.65,2.21.71,2.23,5.62,0,8.69-.06,17.37-.35,26.13-.18,5.23-.08,10.69-.13,16-.05,5.9-.12,11.79-.17,17.68,0,3.63-.08,7.26-.1,10.88,0,5.49-.1,11-.07,16.46,0,4.24.17,8.39.26,12.58,0,.92.06,1.83.07,2.76,0,3.44-.1,4.54-.67,5.28a3,3,0,0,1-.39.49c-.44.33-.81-1.07-.94-3.6-.38-7.49-.44-15.38-.44-23.31,0-5.89,0-11.81.08-17.71Z"/><path class="cls-1" d="M348.13,402.11c.07-5.85.15-11.7.21-17.55,0-2.13,0-4.26,0-6.4.11-7.52.24-15,.33-22.56,0-3.33,0-6.69,0-10-.05-4.25-.2-8.52,0-12.78.15-2.65,2.21.71,2.23,5.62,0,8.69-.06,17.37-.35,26.13-.18,5.23-.08,10.69-.13,16q-.07,8.85-.17,17.68c0,3.63-.08,7.26-.1,10.88,0,5.49-.1,11-.07,16.46,0,4.24.17,8.39.26,12.58,0,.92.07,1.83.08,2.76,0,3.44-.11,4.54-.68,5.28a3,3,0,0,1-.39.49c-.44.33-.8-1.07-.93-3.6-.39-7.49-.44-15.38-.45-23.31,0-5.89.05-11.81.08-17.71Z"/><path class="cls-1" d="M279.22,358.76l-27.58-.22H241.58l-35.47-.33c-5.25,0-10.52,0-15.72,0-6.69,0-13.41.2-20.09,0-4.17-.15,1.1-2.21,8.81-2.23,13.66,0,27.31.06,41.08.35,8.24.18,16.81.08,25.23.13l27.8.17,17.1.1c8.64,0,17.31.1,25.88.07,6.66,0,13.19-.17,19.78-.26l4.33-.07c5.42,0,7.15.1,8.31.67a4.82,4.82,0,0,1,.76.39c.52.44-1.69.81-5.66.93-11.78.39-24.19.44-36.65.45l-27.84-.08Z"/><path class="cls-1" d="M170.09,376.26c29.37-1.58,172.66-1.58,179.37-1.58"/><path class="cls-1" d="M279.71,375.83l-27.39,0-10,.06c-11.74,0-23.48,0-35.22.1-5.21,0-10.45.13-15.61.26l-19.93.55c-4.14.08,1-1.75,8.7-2,13.58-.39,27.13-.49,40.81-.41,8.18.05,16.69-.1,25.06-.12l27.6,0h17l25.7,0,19.64-.23,4.3-.06c5.38,0,7.1.08,8.25.51a5.78,5.78,0,0,1,.77.29c.51.33-1.68.6-5.62.7-11.69.29-24,.36-36.4.39l-27.64,0Z"/><path class="cls-1" d="M278.2,398.31l-27.58-.21-10.06,0-35.47-.33c-5.24,0-10.52,0-15.72,0-6.69.05-13.4.2-20.09,0-4.17-.14,1.1-2.2,8.81-2.22,13.66,0,27.31.05,41.08.35,8.24.17,16.81.08,25.23.12l27.8.18,17.1.1c8.64,0,17.31.1,25.88.07,6.66,0,13.2-.17,19.78-.27l4.33-.07c5.43,0,7.15.11,8.31.68a5.47,5.47,0,0,1,.77.39c.51.44-1.7.8-5.67.93-11.77.38-24.19.44-36.65.44l-27.83-.08Z"/><path class="cls-1" d="M278.7,414.72l-27.4-.08-10,.06c-11.74,0-23.48-.05-35.22,0-5.21,0-10.44.12-15.61.27l-10,.31c-3.33.09-6.64.19-10,.22-4.14.05,1-2.29,8.68-2.53,13.58-.4,27.14-.47,40.82-.32,8.18.09,16.69-.08,25.06-.09l27.6,0,17,0h25.7c6.61,0,13.1-.2,19.64-.3l4.3-.08c5.38,0,7.1.11,8.25.68a5,5,0,0,1,.77.39c.51.44-1.68.8-5.62.93-11.69.39-24,.47-36.4.5H278.71Z"/><path class="cls-1" d="M354.74,331.46c-2.33-4.14,2.3-19.43-1.49-19.52-9.07-.23-169-4.8-194.41-3.1-1.24,8-.42,13.64-.7,21.36C154.56,330.81,343.66,332.84,354.74,331.46Z"/><path class="cls-1" d="M186.41,331.86,172,331.59l-7.23-.17-3.62-.1-1.81-.07-.75,0a2.64,2.64,0,0,1-.77-.13,1.84,1.84,0,0,1-.28-.15l-.1-.11s0,0,0,0l0-.08-.17-.67.06-2.73v-2.31l-.05-4.66a72.08,72.08,0,0,1,.44-9.39c0-.39.08-.79.14-1.17l.13-.89.08-.52,0-.26c0-.08,0-.2.12-.17l3-.11c1.56-.05,3.12-.14,4.68-.16l9.31-.08q12.08,0,24.13.11c28.35.41,56.67,1.1,85,1.83l37.68.92,24.07.58,6,.16.75,0h.38a4.58,4.58,0,0,1,.53.07,1.92,1.92,0,0,1,.54.26,2.54,2.54,0,0,1,.41.39,3.1,3.1,0,0,1,.45.86,10.31,10.31,0,0,1,.34,3.21c-.11,4.09-.87,8.05-.83,12,0,2.45.54,3.25.34,3.29s-.32-.2-.58-.74a8.26,8.26,0,0,1-.62-2.43,54.16,54.16,0,0,1,0-8.8c0-.9.07-1.84.07-2.79a12.63,12.63,0,0,0-.22-2.79,1.54,1.54,0,0,0-.34-.76h-1l-3.39-.08-98.41-2.65c-19.73-.53-40.27-.84-60.45-1-8.68-.08-17.36-.11-26,.08l-3.24.12-1.25,0c-.14,0-.11.11-.14.21l-.08.56a59.92,59.92,0,0,0-.5,6.42c-.06,2.15,0,4.31,0,6.49l0,3.26,0,1.64,0,1.35v.19c-.08.06.08,0,.11.05l.45,0,1.8.07,3.63.1L172,330q20.49.41,41,.64c20.69.27,41.48.5,62,.62,16,.08,31.62.05,47.4,0l10.38-.08c13-.09,17.1-.1,19.9.21.64.07,1.48.11,1.86.17.65.08-.37.4-2.73.59s-6.07.38-10.83.47c-28.23.5-58,.31-87.86.08-22.19-.18-44.47-.45-66.72-.79Z"/><path class="cls-1" d="M340.67,362.68c-11.18-.62-166.63-2.57-170.58-1.05,0,5.48-.66,8.63,0,13.05l173.58-1.47C342.62,373.22,342.09,364.37,340.67,362.68Z"/><path class="cls-1" d="M211.54,375.33l-28.13.16-7,0-3.52,0h-3.51c-.06,0,0-.11,0-.16l-.05-.39-.1-.78-.08-.64,0-.45-.06-.91c0-.6-.05-1.2,0-1.8,0-1.2.07-2.39.13-3.56s.13-2.33.16-3.49l.07-2.42c.46-.13,1-.19,1.48-.29.27,0,.39,0,.54,0l.45,0c6.92-.33,13.73-.33,20.57-.35,24.13,0,48.23.33,72.34.64l32.07.37c13.64.16,27.33.22,41,.74,4.27.21,3.66.6.06.87s-10.23.55-18.08.43l-83.75-1.25c-16.79-.25-34.27-.29-51.44-.19l-7.07.09c-1.18,0-2.36.05-3.53.1-.58,0-1.18,0-1.75.08l-.87.05-.23,0-.16,0h-.08s0,.05,0,.08v.85l-.07,1.79-.17,3.54c-.06,1.17-.08,2.33,0,3.48,0,.55.08,1.19.13,1.67l0,.34a1.79,1.79,0,0,0,.33,0l28.27-.17,34.88-.22,52.76-.4,40.33-.54,8.83-.13,6.13,0h.31a.08.08,0,0,1-.07,0,1,1,0,0,1-.13-.34q-.07-.33-.15-.63l-.15-.76c-.07-.48-.15-.93-.22-1.35-.11-.83-.21-1.54-.3-2.17-.14-1.21-.25-2.1-.34-2.9a7.61,7.61,0,0,0-.34-1.54c-.24-.53.55,0,1.09,1.63a26.6,26.6,0,0,1,.85,3.15c.14.63.28,1.32.44,2.07.08.36.17.74.25,1.13.05.19.1.39.14.58l.08.29.07.24,0,.13,0,.06v0h0s.16,0-.35,0a6.37,6.37,0,0,0,.14,1.06c0,.05,0,.07.07,0l-.18.53-.08.24-18.78.33-18.54.26-37.76.38-56.76.42Z"/><path class="cls-1" d="M339.67,401.24c-11.18-.62-166.63-2.58-170.58-1.05,0,5.47-.66,8.63,0,13.05l173.58-1.47C341.62,411.77,341.09,402.92,339.67,401.24Z"/><path class="cls-1" d="M210.54,413.89l-28.13.15-7,0-3.52,0h-3.51c-.06,0,0-.11,0-.17l-.05-.39-.1-.78-.08-.63,0-.45-.06-.91c0-.6-.05-1.21,0-1.81,0-1.2.07-2.38.13-3.55s.13-2.33.16-3.49l.07-2.43c.46-.12,1-.19,1.48-.28.27,0,.39,0,.54-.05l.45,0c6.92-.32,13.73-.32,20.57-.35,24.13,0,48.23.34,72.34.64l32.07.37c13.64.17,27.33.23,41,.75,4.27.2,3.66.59.06.87s-10.23.55-18.08.42l-83.75-1.25c-16.79-.24-34.27-.29-51.44-.18l-7.07.09c-1.18,0-2.36,0-3.53.09-.58,0-1.18,0-1.75.08l-.87.06-.23,0-.16,0-.08,0s0,.05,0,.08v.85l-.07,1.78-.17,3.54c-.06,1.17-.08,2.33,0,3.48,0,.56.08,1.2.13,1.68l0,.34c.1,0,.22,0,.33,0l28.27-.17,34.88-.23,52.76-.39,40.33-.54,8.83-.13,6.13-.05h.31a.13.13,0,0,1-.07-.05.91.91,0,0,1-.13-.33l-.15-.64q-.07-.39-.15-.75c-.07-.48-.15-.93-.22-1.35-.11-.83-.21-1.54-.3-2.17-.14-1.22-.25-2.1-.34-2.91a7.94,7.94,0,0,0-.34-1.54c-.24-.52.55,0,1.09,1.64a26.91,26.91,0,0,1,.85,3.14c.14.64.28,1.33.44,2.07.08.37.17.74.25,1.14.05.19.1.38.14.58l.08.29.07.24,0,.12,0,.06v0s.16,0-.35,0a6.23,6.23,0,0,0,.14,1.05s0,.07.07,0l-.18.53-.08.24-18.78.33-18.54.26-37.76.38-56.76.42Z"/><path class="cls-1" d="M276.88,278.59l-.33-10.3c0-1.25-.17-2.49-.18-3.75-.07-4.41,0-8.83,0-13.24,0-2,0-3.93-.06-5.89,0-1.25-.07-2.52,0-3.79a12.33,12.33,0,0,1,.66-3.94c.24-.53.54-.63.81-.46a4.77,4.77,0,0,1,.86.91,4.7,4.7,0,0,1,1.2,3.24c-.19,4.9-.2,10-.48,15.09-.16,3.06.12,6.23.22,9.36l.36,10.31c.09,2.12.19,4.23.32,6.35.2,3.2.38,6.41.73,9.57.29,2.46.77,4.85,1.22,7.23l.33,1.56c.34,2,.27,2.57-.48,3.17a4.81,4.81,0,0,1-.52.4c-.59.35-1.34-.38-1.77-1.85A72.89,72.89,0,0,1,277.52,289c-.32-3.45-.51-6.92-.72-10.37Z"/><path class="cls-1" d="M308.52,223.53l-2,.34-1.94.45c-1.31.27-2.56.7-3.84,1.08-.93.28-1.8.72-2.71,1a52.27,52.27,0,0,0-9.17,4.64c-.64.42-1.27.86-1.89,1.3l-1.79,1.43c-1.5,1.24-2.86,2.64-4.4,3.85-1,.75-1.12-1.61.58-3.21a43.85,43.85,0,0,1,10.16-7c1.13-.52,2.22-1.14,3.38-1.65l1.72-.81,1.77-.69c1.28-.53,2.63-.89,3.95-1.31s2.68-.69,4-1c1.68-.3,3.35-.62,5-.77.64-.07,1.27-.17,1.92-.21l1.92-.11c1.28-.11,2.56-.1,3.84-.12l1.48,0h1.47c1,0,1.95,0,2.94,0l1.28.07c1.61.14,2.11.32,2.39.85a2,2,0,0,1,.18.36c.1.4-.59.65-1.75.64-.86,0-1.73,0-2.6-.07s-1.76,0-2.65,0-1.78,0-2.68,0-1.79,0-2.69.07a61.08,61.08,0,0,0-8,.87Z"/><path class="cls-1" d="M270.18,218.86c-.07,4.54-6.87-.13-2.76-1.86A2.1,2.1,0,0,1,270.18,218.86Z"/><path class="cls-1" d="M273.4,153.07a7.75,7.75,0,0,1-1.18.26,4.84,4.84,0,0,1-1.26,0l-.63-.12c-.19-.06-.39-.15-.58-.23a4.26,4.26,0,0,1-1.1-.68,7.61,7.61,0,0,1-.67-.72,4.61,4.61,0,0,1-.45-.85,6.23,6.23,0,0,1-.12-2.89,16,16,0,0,1,.68-2.49c.25-.7.46-1.41.69-2.1a9.08,9.08,0,0,1,1-2.55c.17-.23.68,0,1.09.4a1.6,1.6,0,0,1,.55,1.53c-.66,1.74-1.37,3.35-1.94,5a3.57,3.57,0,0,0,.14,2.67,2.4,2.4,0,0,0,2.36,1,5,5,0,0,0,1.88-.72,9.3,9.3,0,0,0,2.44-2.25,9.49,9.49,0,0,0,1.16-2.29l.17-.52c.24-.62.4-.75,1-.74h.41c.45,0,.71.46.62,1.09a10.51,10.51,0,0,1-6.26,7.3Z"/><path class="cls-1" d="M256.82,148.23a8.81,8.81,0,0,1-1.18.26,5.32,5.32,0,0,1-1.26,0l-.62-.12c-.2-.07-.39-.16-.59-.24a4.16,4.16,0,0,1-1.1-.68,5.76,5.76,0,0,1-.67-.72,5.21,5.21,0,0,1-.45-.84,6.23,6.23,0,0,1-.12-2.89,16.07,16.07,0,0,1,.68-2.5c.25-.7.47-1.41.69-2.1a9.14,9.14,0,0,1,1-2.54c.17-.23.68,0,1.09.39a1.62,1.62,0,0,1,.55,1.54c-.66,1.73-1.37,3.35-1.93,5a3.5,3.5,0,0,0,.13,2.66,2.38,2.38,0,0,0,2.36,1,5,5,0,0,0,1.88-.71,9.15,9.15,0,0,0,2.44-2.25,9.49,9.49,0,0,0,1.16-2.29l.17-.52c.24-.63.4-.76,1-.75h.4c.45,0,.72.45.62,1.08a10.46,10.46,0,0,1-6.26,7.3Z"/><path class="cls-1" d="M259.7,152.43a4.81,4.81,0,0,0-1.31-.53c-.17,0-.29,0-.44,0a1,1,0,0,0-1.09.45,1.37,1.37,0,0,0-.15.74c0,.35.18.7,0,1.07a2,2,0,0,1-1.15.18c-.55,0-1.09-.23-1.12-.55a4.19,4.19,0,0,1,.2-1.69,3,3,0,0,1,1.22-1.59,3.86,3.86,0,0,1,2.2-.69,5.76,5.76,0,0,1,2,.48,8.24,8.24,0,0,1,1.07.54c.52.29,1,.65,1.46,1s.8.42,1.19.67a2.46,2.46,0,0,1,.27.17c.29.25.26.45-.12.87l-.27.29a1.09,1.09,0,0,1-.92.36,6.49,6.49,0,0,1-1.81-1,8.66,8.66,0,0,0-1.24-.72Z"/><path class="cls-1" d="M257.64,165.83c.95-1,1.2-1.22,1.39-1.17a13.68,13.68,0,0,0,1.72.31,4.1,4.1,0,0,0,1.29.08,2.79,2.79,0,0,0,1.67-1.37,6.19,6.19,0,0,0,.36-.67c.07-.25.11-.51.16-.76,0,0,0-.1,0-.12a2.49,2.49,0,0,1,1.21.33c.09,0,.25.13.24.15-.05.22.64.68.52.93-.19.44-.28,1-.46,1.49a1.47,1.47,0,0,1-.39.54,3.59,3.59,0,0,1-.7.51,7.12,7.12,0,0,1-1.26.84,5.31,5.31,0,0,1-2.48.45,7.28,7.28,0,0,1-3.11-1C257.75,166.29,257.74,166.09,257.64,165.83Z"/><path class="cls-1" d="M276.66,130.64a18.79,18.79,0,0,1,2-.41,12.88,12.88,0,0,1,2-.15c.25,0,1.4.19,1.52.18l1,.33c.49.2,1,.49,1.13.55l.7.5a7.27,7.27,0,0,1,1.18,1.22,15,15,0,0,1,1.31,2.3c.21.31.7,2.1.82,2.4,0,.11-.8.57-.88.48a3.66,3.66,0,0,1-.66-1.18,14.55,14.55,0,0,0-.7-1.52,5.66,5.66,0,0,0-.66-1,3.51,3.51,0,0,0-.44-.42,3.25,3.25,0,0,0-.47-.36l-.45-.31-.67-.32-.71-.21a8.28,8.28,0,0,0-1.41-.08,6.18,6.18,0,0,0-1.05,0,5.76,5.76,0,0,0-1.08.12c-.41.09-.81.15-1.23.27-.25.06-.51,0-.76.08s-.41-.38-.65-.9A1.62,1.62,0,0,1,276.66,130.64Z"/><path class="cls-1" d="M261.44,129.05c0-.08-.16-.28-.31-.52s-.4-.48-.61-.75a5.62,5.62,0,0,0-1.08-.92l-.45-.33a2.47,2.47,0,0,0-.44-.21,4.69,4.69,0,0,0-1.45-.57,7.87,7.87,0,0,0-1.89-.23,9.7,9.7,0,0,0-2.24.22,11.55,11.55,0,0,1-2.58.27c-.17,0,0-1,0-1l.2,0,.27-.09c.17,0,.38-.12.57-.15.6-.14,2.82-.67,2.94-.64a12.33,12.33,0,0,1,1.37-.29l.67,0a7.39,7.39,0,0,1,.94,0,5.25,5.25,0,0,1,1,.12,7.27,7.27,0,0,1,1.8.48,10.93,10.93,0,0,1,1.18.72,12.61,12.61,0,0,1,1,.9,9.8,9.8,0,0,1,1,1.16c.15.26.24.55.38.81s-.23.52-.68.86A2.22,2.22,0,0,1,261.44,129.05Z"/><path class="cls-1" d="M172,75.66c-4,1.73-6.41,7.16-3.27,10.78.75.86,3.52-.23,2.68-1.2a5.37,5.37,0,0,1,1.79-8.16c1.84-.79.19-2-1.2-1.42Z"/><path class="cls-1" d="M167.05,73.05c-3.25,2.7-7.84,6.33-4.63,10.81.5.69,3.31-.25,2.71-1.08-2.79-3.89,1.43-7.1,4.21-9.4,1.22-1-1.65-.86-2.29-.33Z"/><path class="cls-1" d="M351.25,106.9c1.55-.09,3.15,2,3.87,3.11.84,1.33,1.65,3.32.69,4.79-.76,1.16,2.16,1,2.71.11,2.68-4.08-2.75-9.94-6.91-9.72-1.47.07-2.37,1.81-.36,1.71Z"/><path class="cls-1" d="M354.09,102c4.18-.11,8.3,4.95,7,9-.22.71,2.62.35,2.87-.47,1.61-5.15-3.84-10-8.7-9.83-.87,0-3.13,1.37-1.21,1.32Z"/><path class="cls-1" d="M269.11,214.35a17.84,17.84,0,0,1-2.42-.34,11.51,11.51,0,0,1-2.32-.78,9.33,9.33,0,0,1-1.59-.77,16.49,16.49,0,0,1-4.43-4.17l-1.62-2.08c-.68-.87-1.38-1.77-1.92-2.57-.17-.25.11-.56.59-.63a1.79,1.79,0,0,1,1.61.69c1.37,1.87,2.52,3.66,3.95,5.31a9.15,9.15,0,0,0,1.44,1.34c.54.39,1.12.71,1.68,1.05l1,.45.49.23.52.14,1,.3a9.67,9.67,0,0,0,1.08.15,10,10,0,0,0,1.34.11l1.36-.08a11,11,0,0,0,2-.33l1-.23c.33-.1.66-.24,1-.36a15,15,0,0,0,2.86-1.43l.6-.37c.77-.42,1.07-.45,1.45-.16a2.35,2.35,0,0,1,.25.19c.25.25.05.65-.5,1a16.51,16.51,0,0,1-2.64,1.59l-1.47.61a8.86,8.86,0,0,1-1.53.51c-.79.17-1.57.39-2.38.5s-1.64.13-2.46.13Z"/><path class="cls-1" d="M194,118.55a12.21,12.21,0,0,0-1.64.33c-.2.05-.38.16-.58.21-.71.2-1.44.38-2.15.65a4.31,4.31,0,0,0-.87.47c-.34.25-.63.59-1.1.61-.3,0-1.1-1.92-.64-2.21a6.49,6.49,0,0,1,2.6-1,9.14,9.14,0,0,0,1.59-.57,18,18,0,0,1,1.82-.47c.38-.07.75-.16,1.14-.21.59-.1,1.19-.12,1.78-.19a4.45,4.45,0,0,0,.72-.1c.25,0,.51,0,.77,0a.88.88,0,0,1,.36,0c.45.12.54.32.36.85-.05.13-.08.25-.13.37a1.44,1.44,0,0,1-.67.75,10.41,10.41,0,0,1-1.79.31c-.24,0-.5.06-.76.1a5.76,5.76,0,0,0-.79.15Z"/></g></svg>