<svg id="Layer_1" data-name="Layer 1" xmlns="http://www.w3.org/2000/svg" width="520" height="520" viewBox="0 0 520 520"><defs><style>.cls-1{fill:#221f1f;}.cls-2{fill:#232020;}.cls-3{fill:none;stroke:#221f1f;stroke-miterlimit:10;stroke-width:1.8px;}</style></defs><title>Notioly v2</title><g id="_70.Scientist" data-name="70.Scientist"><path class="cls-1" d="M175.35,461.68v7.72a7,7,0,0,1-7,7h0a7,7,0,0,1-7-7v-9.72Z"/><path class="cls-1" d="M200.31,467.68v1.72a7,7,0,0,1-7,7h0a7,7,0,0,1-7-7v-3.72Z"/><path class="cls-1" d="M328.7,461.25v10.42a5.05,5.05,0,0,1-5.05,5.06h0a5.05,5.05,0,0,1-5.06-5.06v-8.42Z"/><path class="cls-1" d="M346.81,452.25v19.42a5.06,5.06,0,0,1-5.06,5.06h0a5.05,5.05,0,0,1-5.06-5.06V454.25Z"/><path class="cls-2" d="M172.75,195.89l-6.26,11.22,9.89,5.52L201,168.39l-9.89-5.52-5.4,9.7c-.51.87,1.66,2.08,2.14,1.19l4.21-7.56,5.61,3.13-22.28,40-5.61-3.13,5.07-9.09C175.28,196.39,173.13,195.19,172.75,195.89Z"/><path class="cls-2" d="M199.72,156.63l-5,9a8.18,8.18,0,0,0,2.14,1.19l5-9A10.1,10.1,0,0,0,199.72,156.63Z"/><path class="cls-2" d="M206.23,158.78l-9.48-5.28a8,8,0,0,0-1.19,2.13l9.48,5.29A10.43,10.43,0,0,0,206.23,158.78Z"/><path class="cls-2" d="M176.07,214.25,164.82,208a6.72,6.72,0,0,0-1.19,2.14l11.25,6.27A8.31,8.31,0,0,0,176.07,214.25Z"/><path class="cls-2" d="M174.12,217.76l-11.26-6.27a6.91,6.91,0,0,0-1.19,2.14l11.26,6.27A8.8,8.8,0,0,0,174.12,217.76Z"/><path class="cls-1" d="M274.62,107.18c-.29-3.64-.67-6.05-.68-6.17,2.73-2.4,10.32-15.32,1.54-18.49-3.41-1.23-8,.81-8.17,4.43-4.69-2.54-9.78-4.9-15.1-4.74-20.33.63-24.74,25.94-32.24,30.77a20.56,20.56,0,0,1-22.5-2.62c-7.37-6-9.37-17-6.83-26.2s13.3-30.26,45.21-27.9c4.88-10.73,18.47-16,29.84-12.9s19.94,13.52,22.55,25C292.5,87.1,280.64,100.55,274.62,107.18Z"/><path class="cls-1" d="M223.09,58c-1,.16-2,.29-3,.48l-2.91.77a19.81,19.81,0,0,0-2.85.94l-1.41.53-.7.26-.67.34-2.69,1.34-2.53,1.61a8.72,8.72,0,0,0-1.22.87l-1.18.93a23.43,23.43,0,0,0-2.25,2,38,38,0,0,0-7.19,9.58A30.94,30.94,0,0,0,190.88,89a25.23,25.23,0,0,0,3.74,16.57c.33.53.75,1,1.12,1.52s.84.93,1.27,1.38.91.87,1.42,1.24l1.53,1.13a20,20,0,0,0,6.94,2.93,19.33,19.33,0,0,0,7.54,0,18.91,18.91,0,0,0,3.66-1,7.27,7.27,0,0,0,1.58-.78,4.46,4.46,0,0,0,.69-.56,6.53,6.53,0,0,0,.65-.64,38.09,38.09,0,0,0,4.32-6.44c1.32-2.3,2.61-4.64,4-6.92,2.81-4.55,6.15-9,10.73-12.11A22.3,22.3,0,0,1,254,81.5a25,25,0,0,1,7.08,1.65c1.13.43,2.23.91,3.3,1.42l1.56.77.8.41.05,0v-.06a2.11,2.11,0,0,1,.09-.45A2.54,2.54,0,0,1,267,85a2.61,2.61,0,0,1,.28-.52,5.94,5.94,0,0,1,1.57-1.7,6.75,6.75,0,0,1,2-1,7.52,7.52,0,0,1,2.21-.42,7.61,7.61,0,0,1,4.32,1.15,6.9,6.9,0,0,1,1.72,1.56,6.69,6.69,0,0,1,1.05,2.08,9.94,9.94,0,0,1,.13,4.4,19.36,19.36,0,0,1-1.23,4,26.34,26.34,0,0,1-1.92,3.69c-.37.59-.76,1.17-1.19,1.73-.21.28-.43.55-.67.82a4,4,0,0,1-.32.34l-.16.15c.1,1.07.19,2.13.29,3.19.22,2.44,0,3.09-.36,2.38a11.85,11.85,0,0,1-.74-2c-.14-.5-.29-1.06-.44-1.69-.08-.31-.16-.65-.24-1s-.18-.86-.28-1.48c.21-.23.44-.47.66-.73s.23-.33.35-.49c.23-.34.46-.7.68-1.08.45-.77.89-1.6,1.31-2.5A22.48,22.48,0,0,0,278,90a6.31,6.31,0,0,0-.41-4,4.69,4.69,0,0,0-3-2.19,5.52,5.52,0,0,0-3.8.44,4.15,4.15,0,0,0-1.43,1.17c-.09.11-.16.24-.24.35a3.34,3.34,0,0,0-.28.66c-.11.44-.14,1-.22,1.43l-.19,1.38-2.85-1.52-1.07-.57-.74-.36c-1-.49-2-.94-3-1.34a23.77,23.77,0,0,0-6.11-1.68,14,14,0,0,0-3.11-.09,20.6,20.6,0,0,0-3.13.39,20,20,0,0,0-5.87,2.21,30.11,30.11,0,0,0-9.25,8.89c-2.58,3.58-4.69,7.53-7,11.45a39.44,39.44,0,0,1-3.21,4.77,11.7,11.7,0,0,1-2.18,2.15,5.68,5.68,0,0,1-.7.47l-.71.34c-.46.2-.92.38-1.39.55a22.16,22.16,0,0,1-11.73.87,21.12,21.12,0,0,1-5.63-2,24.67,24.67,0,0,1-4.88-3.43,21,21,0,0,1-3.76-4.65,25.59,25.59,0,0,1-2.36-5.43,29.79,29.79,0,0,1-.83-12.8,35.67,35.67,0,0,1,4.37-12,38.51,38.51,0,0,1,8-9.9,39.7,39.7,0,0,1,10.8-6.73c1.23-.44,2.44-1,3.69-1.34l3.79-1a54.72,54.72,0,0,1,7.75-1,31.6,31.6,0,0,1,3.89-.12l3.78.13h.35l.06-.11.29-.56.46-.88.55-.83A21.63,21.63,0,0,1,239.23,50a25.91,25.91,0,0,1,10-6.47,27.93,27.93,0,0,1,11.74-1.66,27.58,27.58,0,0,1,11.31,3.5,33,33,0,0,1,9,7.56,36.78,36.78,0,0,1,7.88,16.19l.41,2.23c.14.74.16,1.5.24,2.25a36,36,0,0,1,.12,4.53,37.76,37.76,0,0,1-1.57,8.94,41.69,41.69,0,0,1-3.07,7.35c-.56,1.11-1.2,2.06-1.72,3s-1.1,1.66-1.6,2.36c-1,1.39-1.9,2.47-2.65,3.33a17.82,17.82,0,0,1-3.44,3.15,13.18,13.18,0,0,1-1.22.77c-.48.2-.11-.5.94-1.92s2.76-3.59,4.75-6.48a55.42,55.42,0,0,0,3.9-6.78,41.78,41.78,0,0,0,2.62-7.38,34.4,34.4,0,0,0-7-29.89,29.57,29.57,0,0,0-12.83-9.23,25.46,25.46,0,0,0-22.61,3,20.93,20.93,0,0,0-4.37,3.92c-.31.38-.63.74-.92,1.13l-.81,1.22a8.83,8.83,0,0,0-.72,1.27L237,57.11l-.17.34-.09.17a.56.56,0,0,1-.05.08h-.1l-.77,0-3.57-.11a26,26,0,0,0-3.06,0,49.07,49.07,0,0,0-6.07.55Z"/><path class="cls-3" d="M272,153l0,0"/><path class="cls-1" d="M275.52,151a17.8,17.8,0,0,1,11-5.36,23.18,23.18,0,0,1,13.34,2.77,43.13,43.13,0,0,1,9.31,6.74,75.49,75.49,0,0,1,7.65,8.45q3.51,4.49,6.56,9.27c2.06,3.16,4,6.42,5.83,9.7s3.62,6.6,5.38,9.92,3.4,6.78,4.88,10.25a154.65,154.65,0,0,1,7.37,21.45,73.42,73.42,0,0,1,2.68,19.47,27.77,27.77,0,0,1-1.84,9.91l-.52,1.19c-.19.39-.43.76-.65,1.14a15.2,15.2,0,0,1-1.52,2.15c-.29.33-.62.63-.93,1l-.47.46c-.17.15-.35.27-.53.41l-1.07.79c-.41.23-.87.44-1.31.64a28.1,28.1,0,0,1-4.93,1.21c-1.63.3-3.24.49-4.86.69-3.24.38-6.47.62-9.71.85-6.46.44-12.92.7-19.39.91-25.44.78-50.89.72-76.32.51l-5.41-.05,4.92-2.18a127.38,127.38,0,0,1,13.46-5.07c4.54-1.48,9.13-2.77,13.72-4,9.19-2.5,18.45-4.67,27.72-6.75,12.82-2.86,25.7-5.45,38.6-7.9l4.57-.86.11,0s.12,0,0-.08l-.14-.2-.07-.1-.26-.44a76.92,76.92,0,0,1-4.38-8.51c-2.6-5.78-4.86-11.67-7-17.6-.72-2-1.5-4.08-2.08-6-1.57-5.16-1.33-6.54.33-2.92a28,28,0,0,1,1.19,2.64c1.58,4.6,3.25,8.65,5,12.72s3.63,8.17,5.8,12.78a61,61,0,0,0,3.33,6.21l1.72,2.47.21.31.11.16s.13.13,0,.12l-.78.14-1.57.29-4,.75c-4.66.88-9.32,1.81-14,2.76q-14,2.86-27.85,6.05c-3.7.83-7.39,1.74-11.1,2.6s-7.39,1.77-11.05,2.75q-7.05,1.79-14,3.82c-4.62,1.4-9.25,2.84-13.67,4.68l-3,1.28-.47-2.11c7.18.07,26.17.32,50.73.06,12.28-.15,25.95-.38,40.18-1.16,3.55-.22,7.14-.44,10.74-.8a86,86,0,0,0,10.69-1.54c.44-.09.84-.23,1.25-.35l.62-.19c.19-.07.34-.17.52-.24s.34-.15.51-.25l.51-.38a9.26,9.26,0,0,0,1-.79,13,13,0,0,0,3-4.11,20.44,20.44,0,0,0,1.53-5,33.7,33.7,0,0,0,.45-5.32,57.72,57.72,0,0,0-1-10.73A101.59,101.59,0,0,0,343.83,222a157.9,157.9,0,0,0-7-19.6c-1.35-3.1-2.75-6-4.29-8.92s-3-5.69-4.5-8.39c-3-5.41-6-10.41-9.06-14.84-6.09-8.86-12.44-15.44-17.93-18.71a24.65,24.65,0,0,0-10.09-3.91,21.72,21.72,0,0,0-7.06,0,20.5,20.5,0,0,0-4,1.1A18.63,18.63,0,0,0,275.52,151Z"/><path class="cls-1" d="M257.27,249.57a17.72,17.72,0,0,1,10,15.1c0,.67,2.48.22,2.46-.66-.18-6.68-4.53-12.66-10.49-15.56-.65-.32-2.92.66-2,1.12Z"/><path class="cls-1" d="M250.23,156.28a7.7,7.7,0,0,1-2.87,3.29c-3.6,2.6-5.58,6.93-6.21,11.35-.26,1.89-.36,4-.51,6l-.36,6.11a149.81,149.81,0,0,1-2.21,21.13c-.22,1-.48,2.06-.72,3.09l-.9,3.07c-.37,1-.68,1.94-1.08,2.9l-.66,1.42A8.43,8.43,0,0,1,234,216a5.83,5.83,0,0,1-.59.9c-.64.68-1.23.44-1.26-.36,0-.18-.06-.41,0-.54.88-1.28.65-2.74,1.33-4.13a37.47,37.47,0,0,0,2.21-8.49c.17-1.18.44-2.33.62-3.5l.42-2.24c.12-.76.23-1.51.35-2.26.16-1,.45-4,.71-7.89s.42-8.72.71-13.49c.09-1.19.17-2.39.36-3.59a23.6,23.6,0,0,1,.81-3.46,19.43,19.43,0,0,1,2.86-5.63,14.94,14.94,0,0,1,4.95-4.27A11.23,11.23,0,0,1,250.23,156.28Z"/><path class="cls-1" d="M235.92,230.5a2.49,2.49,0,0,1-2.37-1c-1.58-1.92-3.21-3.8-4.86-5.65-1.42-1.59-2.82-3.21-4.32-4.73a81.57,81.57,0,0,0-8.28-7.27c-.84-.68-1.73-1.29-2.61-1.93s-1.76-1.1-2.63-1.65a2,2,0,0,1-.44-.28.59.59,0,0,1,.35-1c.1,0,.25-.1.32-.06.69.43,1.59.24,2.31.74s1.32.91,2,1.34,1.37.84,2,1.33,1,.78,1.51,1.19,1.19,1.15,1.8,1.7c.42.37,1.6,1.45,3.13,2.87s3.35,3.26,5,5.14a86.62,86.62,0,0,1,6.43,7.84A10.56,10.56,0,0,1,235.92,230.5Z"/><path class="cls-1" d="M211.88,237a4.56,4.56,0,0,1,2.14.57,5.23,5.23,0,0,1,1.46,1.16,34,34,0,0,0,9.93,7,25.56,25.56,0,0,0,4.87,1.69,12.77,12.77,0,0,0,5,.26A14.29,14.29,0,0,0,243,244a26.67,26.67,0,0,0,5.29-7.17,49.77,49.77,0,0,0,2.25-4.92c.65-1.62,1.18-3.29,1.73-4.95a4.15,4.15,0,0,1,.29-.84c.4-.66,1-.62,1.3.06.06.15.18.34.14.47-.43,1.3,0,2.61-.57,4-1,2.51-1.84,5.1-3.07,7.58-.25.49-.5,1-.79,1.46l-.9,1.4c-.41.59-.88,1.14-1.32,1.69s-1,1.06-1.45,1.59a19.71,19.71,0,0,1-6.09,4.35,19.28,19.28,0,0,1-2.78,1l-1.55.25c-.26,0-.52.09-.79.12l-.82,0a19.1,19.1,0,0,1-6.53-1.05,32,32,0,0,1-10.25-5.83,30.66,30.66,0,0,1-4-4A15.35,15.35,0,0,1,211.88,237Z"/><path class="cls-1" d="M256.34,228.07c2.79,5.75,5.65,11.77,7.1,18,.14.56,2,.09,1.89-.51-1.45-6.24-4.32-12.27-7.11-18-.28-.58-2.11,0-1.88.51Z"/><path class="cls-2" d="M155.4,234.16a26.61,26.61,0,0,0,9.91,9.54,26,26,0,0,0,6.47,2.51,27.82,27.82,0,0,0,6.86.83,30.1,30.1,0,0,0,24-11.69,33,33,0,0,0,1.93-2.89,30,30,0,0,0,1.5-3.13,28.9,28.9,0,0,0,1.14-3.28c.14-.56.26-1.12.39-1.68a14.58,14.58,0,0,0,.3-1.71,35,35,0,0,0,.33-6.86c-.12-1.14-.13-2.29-.35-3.42l-.27-1.7-.39-1.67a16.3,16.3,0,0,0-.45-1.66l-.51-1.64c-.44-1.06-.79-2.16-1.33-3.18a31.84,31.84,0,0,0-3.56-5.89,29.82,29.82,0,0,0-4.85-4.94,26,26,0,0,0-6-3.57c-1.18-.55-2,1.79-1,2.24a24.49,24.49,0,0,1,5.4,3.24,28.28,28.28,0,0,1,4.43,4.52,29.51,29.51,0,0,1,3.29,5.44c.5,1,.82,2,1.23,3l.47,1.53a12.12,12.12,0,0,1,.42,1.54c2.06,8.26,1,17.54-4.15,24.29a27.7,27.7,0,0,1-22.07,10.72,25.47,25.47,0,0,1-6.28-.77,22.85,22.85,0,0,1-5.88-2.28,24,24,0,0,1-9-8.67C157,232.12,154.85,233.3,155.4,234.16Z"/><path class="cls-2" d="M182.8,262.89V246.82a5.63,5.63,0,0,0-2.45,0v16.07A7.2,7.2,0,0,0,182.8,262.89Z"/><path class="cls-2" d="M190,262.27H173.16a5.08,5.08,0,0,0,0,2.45H190A6.31,6.31,0,0,0,190,262.27Z"/><path class="cls-2" d="M165,231.91h-16.6a5.34,5.34,0,0,0,0,2.45H165A6.73,6.73,0,0,0,165,231.91Z"/><path class="cls-1" d="M181,180.09c.81-.81,1.17-.85,1.45-.74a10.32,10.32,0,0,0,2.6.74,2.73,2.73,0,0,0,.87,0,1.11,1.11,0,0,0,.34-.14l.09,0s0,0,0,0,0-.06,0-.1a1.88,1.88,0,0,0-.09-.3,3.46,3.46,0,0,0-.47-.77,11.18,11.18,0,0,0-1.43-1.51,12.23,12.23,0,0,0-1-.8,8.34,8.34,0,0,0-1-.6c-.06,0-.13,0-.16-.08a1.24,1.24,0,0,1,.4-.92c.07-.06.17-.17.2-.15.3.14.89-.24,1.19,0,.54.42,1.18.71,1.74,1.12a3.35,3.35,0,0,1,.61.58c.23.28.42.59.62.89a7.26,7.26,0,0,1,1,1.75,2.78,2.78,0,0,1,.13,1,1.74,1.74,0,0,1-.52,1.14,2.91,2.91,0,0,1-1.9.87,6.3,6.3,0,0,1-3.13-.67,9.21,9.21,0,0,1-1.24-.65A2.44,2.44,0,0,1,181,180.09Z"/><path class="cls-1" d="M178.75,184.76c.56-1,.91-1.16,1.23-1.13,1.09.1,2.17.2,3.2.24.45,0,.88,0,1.29,0a5.11,5.11,0,0,0,.58,0l.24,0a.36.36,0,0,0,.12-.05.09.09,0,0,0,.06-.11s0,0-.08-.14a2.78,2.78,0,0,0-.29-.34,8.8,8.8,0,0,0-1.8-1.25,11.48,11.48,0,0,0-1.22-.6,7.3,7.3,0,0,0-1.23-.34c-.06,0-.13,0-.18-.05a1.1,1.1,0,0,1,.14-1c.05-.08.12-.21.15-.2.36.07.85-.45,1.23-.29.69.3,1.43.46,2.12.76a4.22,4.22,0,0,1,.79.47c.31.24.58.54.88.82.1.09.3.29.56.57a3.24,3.24,0,0,1,.42.57,2.25,2.25,0,0,1,.33,1.05,1.68,1.68,0,0,1-.43,1.16,2.12,2.12,0,0,1-1.07.68,5.82,5.82,0,0,1-1.89.23,22.18,22.18,0,0,1-4.58-.59A2.88,2.88,0,0,1,178.75,184.76Z"/><path class="cls-1" d="M173.2,193.42c.88-.84,1.43-.87,2-.73a23,23,0,0,0,2.57.53l.29,0,.13,0h0l0,0s0-.05,0-.06,0,0,0-.05,0,0-.09-.16l-.33-.53-.19-.27-.17-.23-.22-.27c-.28-.37-.61-.73-.92-1.08l-.18-.33a.63.63,0,0,1-.12-.28,1.72,1.72,0,0,1,0-.42.9.9,0,0,1,.07-.38,1.13,1.13,0,0,1,.34-.46,1.84,1.84,0,0,1,.28-.15c.1,0,.3-.07.44-.11l.13,0,.2,0,.39.08c.26,0,.53.1.81.16l.81.17.47.07a8,8,0,0,0,.82.1,5.55,5.55,0,0,0,1.48,0c.11,0,.21-.06.25-.06l0,0a.11.11,0,0,0,0-.09.14.14,0,0,0,0-.06,3.34,3.34,0,0,0-.23-.29,10.27,10.27,0,0,0-1.68-1.39,12.4,12.4,0,0,0-1.91-1,.81.81,0,0,1-.3-.13.79.79,0,0,1,.22-1c.08-.07.19-.18.25-.15.56.21,1.3-.13,1.87.23a17.55,17.55,0,0,1,3.1,2.18,3.16,3.16,0,0,1,.48.63,3.51,3.51,0,0,1,.29,1l-.11.63a2.1,2.1,0,0,1-1.19,1.15,3.83,3.83,0,0,1-1.21.21,11.82,11.82,0,0,1-2.54-.18l-.43-.07-.2,0s-.19-.05-.16.06l.17.19.09.1.32.44a8.18,8.18,0,0,1,.45.69,4.81,4.81,0,0,1,.47,1.11,1.67,1.67,0,0,1-.12,1.17,1.37,1.37,0,0,1-.91.66,2.81,2.81,0,0,1-1.19.08c-.29,0-.53-.07-.75-.11a20,20,0,0,1-3.13-.9A5.51,5.51,0,0,1,173.2,193.42Z"/><path class="cls-1" d="M171.05,187.89c-1-.57-1.12-1-1.06-1.37a22.16,22.16,0,0,1,.95-3.64,24,24,0,0,1,1.39-2.95,18,18,0,0,1,3.31-4.67,11.62,11.62,0,0,1,1.42-1.09,6.26,6.26,0,0,1,.75-.46,3.76,3.76,0,0,1,.81-.38c.1,0,.19-.11.29-.09.29,0,.44.51.37.93,0,.09,0,.24-.05.25-.38.14-.42.82-.73,1a4.8,4.8,0,0,0-1.54,1.34,3.79,3.79,0,0,1-.59.61c-.25.26-.55.49-.8.77a12.14,12.14,0,0,0-1.1,1.61,26.92,26.92,0,0,0-1.46,3,39.84,39.84,0,0,0-1.5,4.54A3.44,3.44,0,0,1,171.05,187.89Z"/><path class="cls-2" d="M93.81,277.51V479H426.19V278.83c0-8.38-2.84-8.38-2.83,0V476.12H96.64V277.51C96.64,270.89,93.81,270.89,93.81,277.51Z"/><rect class="cls-1" x="83.2" y="266.34" width="353.61" height="7.31"/><path class="cls-2" d="M438.21,268.81v-3.88H81.79v10.13H430.67c8.18,0,8.18-2.84,0-2.82H84.61v-4.49H435.39v1.06C435.38,275.26,438.22,275.26,438.21,268.81Z"/><path class="cls-1" d="M84.47,375.25c6.49-1.39,14.11-1.67,21.63-1.71q37.71-.24,75.47-.28c21.65,0,43.3.1,65,.11q55.86,0,111.72,0c11,0,22,0,33,0q15.79,0,31.6-.11c1.77,0,3.63-.06,5.3,0,4.49.15,5.54.77,2.23,1.24a18.62,18.62,0,0,1-2.42.29c-8.16,0-14.67.83-23.3.81-15.92,0-31.87.17-47.82.25q-9.56.06-19.14,0c-8.15,0-16.28-.15-24.43-.18-22.28-.11-209.63,0-214.57,0C94.7,375.58,90.77,375.42,84.47,375.25Z"/><path class="cls-1" d="M177.71,318.54c-1.39-3.88-1.67-8.43-1.71-12.92,0-2.21-.05-4.42-.08-6.64l-8,.08q.06,9.93.11,19.85L167,320.59l-.85,1.37-1.69,2.76c-3.3,5.51-6.46,11.13-9.26,16.89-1.4,2.88-2.71,5.8-3.85,8.78a48.58,48.58,0,0,0-2.61,9.08c-.41,2.58-.52,5.38.61,7.37a4.37,4.37,0,0,0,1.08,1.23,8.35,8.35,0,0,0,1.56,1,22,22,0,0,0,3.7,1.37,66,66,0,0,0,16.2,2,74.47,74.47,0,0,0,8.19-.36,40.87,40.87,0,0,0,7.94-1.55c2.5-.81,5-2,5.77-4.11a14.67,14.67,0,0,0,.28-7.57,55.13,55.13,0,0,0-2.61-9.26c-1.11-3.05-2.4-6-3.78-9C185,334.91,182,329.42,178.8,324c-.53-.9-1.14-1.83-1.6-2.7-1.25-2.36-1.07-3.21.37-1.78a5.68,5.68,0,0,1,1,1.08c2.53,4.17,5.15,7.17,7.54,11.77,2.19,4.24,4.31,8.53,6.19,13a60.86,60.86,0,0,1,4.35,13.89,17.7,17.7,0,0,1,0,6.12,9.3,9.3,0,0,1-1.17,3.11,11.89,11.89,0,0,1-1.1,1.36,11.09,11.09,0,0,1-1.3,1,15.33,15.33,0,0,1-3.58,1.69,28.42,28.42,0,0,1-3.67,1,56.6,56.6,0,0,1-7.39,1,84,84,0,0,1-13.92-.23,52.18,52.18,0,0,1-10.92-2.14,20.13,20.13,0,0,1-2.92-1.22,8.46,8.46,0,0,1-2.76-2.16,8,8,0,0,1-1.46-3.3,14.37,14.37,0,0,1-.25-3.45,43.9,43.9,0,0,1,3.25-13,128.23,128.23,0,0,1,5.4-11.89c1.92-3.76,3.88-7.29,5.76-10.51.94-1.6,1.85-3.13,2.73-4.57l1.3-2.08c.36-.58.72-1.14,1.06-1.67v-21.4h12.37c0,11.37,0,12.9,0,13.23C178,312.43,177.88,314.77,177.71,318.54Z"/><path class="cls-2" d="M135.38,414.57v54.9l0,.61a8.17,8.17,0,0,0,.55,2.37,8.28,8.28,0,0,0,12.19,3.92,8.41,8.41,0,0,0,3.12-3.66,8.7,8.7,0,0,0,.63-2.35c0-.38.06-.85.06-1.17V414.81c0-1.51-2.66-1.51-2.64,0v54.38c0,.35,0,.57,0,.87a5.92,5.92,0,0,1-.43,1.6,5.66,5.66,0,0,1-10.44-.18,5.24,5.24,0,0,1-.37-1.61l0-.42V414.57C138,413.38,135.37,413.38,135.38,414.57Z"/><path class="cls-2" d="M153.22,408.94H134.15a5.36,5.36,0,0,0,0,2.64h19.07A6.9,6.9,0,0,0,153.22,408.94Z"/><path class="cls-2" d="M160.09,414.57v54.9l0,.61a8.51,8.51,0,0,0,.55,2.37,8.29,8.29,0,0,0,15.31.26,8.7,8.7,0,0,0,.63-2.35c0-.38.06-.85.06-1.17V414.81c0-1.51-2.65-1.51-2.64,0v54.38a7.83,7.83,0,0,1,0,.87,5.92,5.92,0,0,1-.43,1.6,5.66,5.66,0,0,1-10.44-.18,5.55,5.55,0,0,1-.37-1.61l0-.42V414.57C162.73,413.38,160.08,413.38,160.09,414.57Z"/><path class="cls-2" d="M177.93,408.94H158.86a5.36,5.36,0,0,0,0,2.64h19.07A6.9,6.9,0,0,0,177.93,408.94Z"/><path class="cls-2" d="M185,414.57v54.9l0,.61a8.17,8.17,0,0,0,.55,2.37,8.28,8.28,0,0,0,15.3.26,8.71,8.71,0,0,0,.64-2.35c0-.38.06-.85.05-1.17V414.81c0-1.51-2.65-1.51-2.63,0v54.38c0,.35,0,.57,0,.87a5.92,5.92,0,0,1-.43,1.6,5.66,5.66,0,0,1-10.44-.18,5.56,5.56,0,0,1-.38-1.61l0-.42V414.57C187.69,413.38,185,413.38,185,414.57Z"/><path class="cls-2" d="M202.88,408.94H183.82a5.36,5.36,0,0,0,0,2.64h19.06A6.52,6.52,0,0,0,202.88,408.94Z"/><path class="cls-2" d="M317.36,431.9v38.7c0,.53,0,.92,0,1.59a6.15,6.15,0,0,0,.42,1.79,6.27,6.27,0,0,0,11.59.2,6.52,6.52,0,0,0,.48-1.78c0-.29.05-.65.05-.88V432.07c0-1.09-2.47-1.09-2.45,0v39.45a5.21,5.21,0,0,1,0,.6,4,4,0,0,1-.29,1.08,3.84,3.84,0,0,1-7.08-.12,3.68,3.68,0,0,1-.25-1.09c0-.32,0-.92,0-1.39V431.9C319.82,431,317.36,431,317.36,431.9Z"/><path class="cls-2" d="M351.41,427.28H314.54c-.42,0-.42,2.46,0,2.44h36.87C351.74,429.73,351.74,427.27,351.41,427.28Z"/><path class="cls-2" d="M335.47,431.9v38.7c0,.53,0,.92,0,1.59a6.15,6.15,0,0,0,.42,1.79,6.28,6.28,0,0,0,11.6.2,6.9,6.9,0,0,0,.48-1.78c0-.29,0-.65,0-.88V432.07c0-1.09-2.46-1.09-2.45,0v39.45a5.21,5.21,0,0,1,0,.6,4,4,0,0,1-.29,1.08,3.84,3.84,0,0,1-7.08-.12,4,4,0,0,1-.25-1.09c0-.32,0-.92,0-1.39V431.9C337.92,431,335.46,431,335.47,431.9Z"/><path class="cls-2" d="M367,335.86a72.11,72.11,0,0,0-2.56-18.9,35.49,35.49,0,0,0-3.79-8.93,15.39,15.39,0,0,0-3.31-3.84,7.31,7.31,0,0,0-5.14-1.7,7.13,7.13,0,0,0-2.67.79,10.3,10.3,0,0,0-2.15,1.56,17.51,17.51,0,0,0-3,4,38.27,38.27,0,0,0-3.56,9,79.56,79.56,0,0,0-.07,37.86,39.14,39.14,0,0,0,3.49,9,17.83,17.83,0,0,0,3,4,8.53,8.53,0,0,0,4.7,2.53,7.17,7.17,0,0,0,5.22-1.49,14.68,14.68,0,0,0,3.41-3.78,35,35,0,0,0,3.87-8.9A72.54,72.54,0,0,0,367,338.22a1.14,1.14,0,1,0-2.26,0,69.9,69.9,0,0,1-2.54,18.29,32.32,32.32,0,0,1-3.6,8.31,12.2,12.2,0,0,1-2.85,3.19,4.89,4.89,0,0,1-3.58,1.07,6.22,6.22,0,0,1-3.41-1.9,15.61,15.61,0,0,1-2.59-3.53,37.54,37.54,0,0,1-3.28-8.49,77.46,77.46,0,0,1,.07-36.7,36.18,36.18,0,0,1,3.33-8.46,15.29,15.29,0,0,1,2.64-3.47,5.82,5.82,0,0,1,3.46-1.75,5,5,0,0,1,3.55,1.23,12.92,12.92,0,0,1,2.8,3.27,33,33,0,0,1,3.53,8.34,70.85,70.85,0,0,1,2.48,18.31C364.73,337.23,367,337.25,367,335.86Z"/><path class="cls-2" d="M338.45,337.94a72.53,72.53,0,0,0,2.56,18.9,35.49,35.49,0,0,0,3.79,8.93,15.39,15.39,0,0,0,3.31,3.84,7.31,7.31,0,0,0,5.14,1.7,7.13,7.13,0,0,0,2.67-.79,10.67,10.67,0,0,0,2.15-1.56,17.73,17.73,0,0,0,3-4,38.34,38.34,0,0,0,3.56-9,79.55,79.55,0,0,0,.07-37.86,39.25,39.25,0,0,0-3.49-9,17.61,17.61,0,0,0-3-4,8.46,8.46,0,0,0-4.7-2.53,7.13,7.13,0,0,0-5.22,1.49,14.68,14.68,0,0,0-3.41,3.78,35,35,0,0,0-3.87,8.9,72.54,72.54,0,0,0-2.63,18.89,1.14,1.14,0,1,0,2.26,0,69.84,69.84,0,0,1,2.54-18.29,32.32,32.32,0,0,1,3.6-8.31,12.2,12.2,0,0,1,2.85-3.19,4.9,4.9,0,0,1,3.58-1.08,6.2,6.2,0,0,1,3.41,1.91,15.18,15.18,0,0,1,2.59,3.53,37.54,37.54,0,0,1,3.28,8.49,77.46,77.46,0,0,1-.07,36.7,36.35,36.35,0,0,1-3.33,8.46,15.29,15.29,0,0,1-2.64,3.47,5.88,5.88,0,0,1-3.46,1.75,5,5,0,0,1-3.55-1.23,12.92,12.92,0,0,1-2.8-3.27,32.93,32.93,0,0,1-3.53-8.35,70.83,70.83,0,0,1-2.48-18.3C340.7,336.57,338.43,336.55,338.45,337.94Z"/><path class="cls-2" d="M357.8,323.53a72.42,72.42,0,0,0-18.21-5.67,35.64,35.64,0,0,0-9.69-.33A15.26,15.26,0,0,0,325,318.9a7.37,7.37,0,0,0-3.72,3.94,7.13,7.13,0,0,0-.41,2.76,10.61,10.61,0,0,0,.51,2.6,17.61,17.61,0,0,0,2.33,4.45,38.62,38.62,0,0,0,6.65,7,79.61,79.61,0,0,0,34.29,16.06,38.79,38.79,0,0,0,9.65.65,17.78,17.78,0,0,0,4.91-1,8.42,8.42,0,0,0,4.28-3.18,7.17,7.17,0,0,0,.85-5.37,14.5,14.5,0,0,0-2-4.68A35,35,0,0,0,376,334.9a72.08,72.08,0,0,0-16-10.37,1.14,1.14,0,1,0-1,2,70.12,70.12,0,0,1,15.5,10,32.59,32.59,0,0,1,6,6.77,12.47,12.47,0,0,1,1.69,3.94,4.89,4.89,0,0,1-.54,3.69,6.2,6.2,0,0,1-3.17,2.29,15.49,15.49,0,0,1-4.29.86,37.14,37.14,0,0,1-9.08-.62A77.05,77.05,0,0,1,331.84,338a36.47,36.47,0,0,1-6.26-6.6,15.26,15.26,0,0,1-2-3.86,5.87,5.87,0,0,1-.12-3.87,5.07,5.07,0,0,1,2.62-2.7,12.76,12.76,0,0,1,4.14-1.15,33.26,33.26,0,0,1,9.06.32,70.6,70.6,0,0,1,17.63,5.5C358.09,326.15,359.07,324.1,357.8,323.53Z"/><path class="cls-2" d="M348.56,325.59a70.6,70.6,0,0,1,17.63-5.5,33.26,33.26,0,0,1,9.06-.32,12.76,12.76,0,0,1,4.14,1.15,5.07,5.07,0,0,1,2.62,2.7,5.87,5.87,0,0,1-.12,3.87,15.26,15.26,0,0,1-2,3.86,36.47,36.47,0,0,1-6.26,6.6,77.05,77.05,0,0,1-33.23,15.57,37.14,37.14,0,0,1-9.08.62,15.49,15.49,0,0,1-4.29-.86,6.2,6.2,0,0,1-3.17-2.29,4.89,4.89,0,0,1-.54-3.69,12.47,12.47,0,0,1,1.69-3.94,32.59,32.59,0,0,1,6-6.77,70.12,70.12,0,0,1,15.5-10,1.14,1.14,0,1,0-1-2,72.08,72.08,0,0,0-16,10.37,35,35,0,0,0-6.43,7.27,14.5,14.5,0,0,0-2,4.68,7.17,7.17,0,0,0,.85,5.37,8.42,8.42,0,0,0,4.28,3.18,17.78,17.78,0,0,0,4.91,1,38.79,38.79,0,0,0,9.65-.65,79.47,79.47,0,0,0,34.29-16.06,38.62,38.62,0,0,0,6.65-7A17.61,17.61,0,0,0,384,328.2a10.61,10.61,0,0,0,.51-2.6,7.13,7.13,0,0,0-.41-2.76,7.37,7.37,0,0,0-3.72-3.94,15.26,15.26,0,0,0-4.88-1.37,35.64,35.64,0,0,0-9.69.33,72.42,72.42,0,0,0-18.21,5.67C346.36,324.1,347.34,326.15,348.56,325.59Z"/><path class="cls-2" d="M359.69,349.39a72.67,72.67,0,0,0,16.05-10.31,35.46,35.46,0,0,0,6.48-7.21,15,15,0,0,0,2.08-4.62,6.87,6.87,0,0,0-2.47-7.47,10.38,10.38,0,0,0-2.32-1.28,17.45,17.45,0,0,0-4.9-1.07,38,38,0,0,0-9.67.58,74.55,74.55,0,0,0-18.13,5.89,75.41,75.41,0,0,0-16.21,10,39.26,39.26,0,0,0-6.7,7,17.74,17.74,0,0,0-2.4,4.39,8.39,8.39,0,0,0-.31,5.33,7.11,7.11,0,0,0,3.56,4.1,14.33,14.33,0,0,0,4.86,1.5,34.93,34.93,0,0,0,9.7-.26,72.47,72.47,0,0,0,18.24-5.59,1.14,1.14,0,1,0-.92-2.07A70.29,70.29,0,0,1,339,353.75a32.41,32.41,0,0,1-9.05.25,12.41,12.41,0,0,1-4.1-1.24,4.91,4.91,0,0,1-2.49-2.79,6.24,6.24,0,0,1,.29-3.9,15.46,15.46,0,0,1,2.1-3.83,37.61,37.61,0,0,1,6.31-6.56A73.17,73.17,0,0,1,347.76,326a72.26,72.26,0,0,1,17.57-5.72,36.14,36.14,0,0,1,9.08-.55,15.25,15.25,0,0,1,4.26.92,5.89,5.89,0,0,1,3.05,2.39,5.07,5.07,0,0,1,.38,3.74,12.89,12.89,0,0,1-1.78,3.92,33.28,33.28,0,0,1-6.07,6.73,70.42,70.42,0,0,1-15.54,10C357.49,347.93,358.43,350,359.69,349.39Z"/><path class="cls-2" d="M347.63,350.27a72.83,72.83,0,0,0,18.21,5.67,35.64,35.64,0,0,0,9.69.33,15.52,15.52,0,0,0,4.88-1.37,7.36,7.36,0,0,0,3.72-3.95,7.05,7.05,0,0,0,.41-2.75,10.51,10.51,0,0,0-.51-2.6,17.44,17.44,0,0,0-2.33-4.45,38.62,38.62,0,0,0-6.65-7,79.47,79.47,0,0,0-34.29-16.06,38.79,38.79,0,0,0-9.65-.65,17.78,17.78,0,0,0-4.91,1,8.42,8.42,0,0,0-4.28,3.18,7.17,7.17,0,0,0-.85,5.37,14.5,14.5,0,0,0,2,4.68,35,35,0,0,0,6.43,7.27,72.44,72.44,0,0,0,16,10.37,1.14,1.14,0,1,0,1-2,70.12,70.12,0,0,1-15.5-10,32.64,32.64,0,0,1-6-6.78,12.41,12.41,0,0,1-1.69-3.93,4.93,4.93,0,0,1,.54-3.7,6.31,6.31,0,0,1,3.17-2.29,15.86,15.86,0,0,1,4.29-.85,37.14,37.14,0,0,1,9.08.62,73.21,73.21,0,0,1,17.56,5.78,72.44,72.44,0,0,1,15.67,9.79,36.15,36.15,0,0,1,6.26,6.6,15.2,15.2,0,0,1,2,3.85,5.87,5.87,0,0,1,.12,3.87,5.05,5.05,0,0,1-2.62,2.71,13.28,13.28,0,0,1-4.14,1.15,33.67,33.67,0,0,1-9.06-.32,70.6,70.6,0,0,1-17.63-5.5C347.34,347.65,346.36,349.7,347.63,350.27Z"/><circle class="cls-1" cx="352.72" cy="336.9" r="3.95"/><path class="cls-1" d="M170.43,348.46c-.17.36-.34.77-.52,1.22-.1.23-.19.45-.31.7a3.25,3.25,0,0,1-.25.49c-.12.18-.22.36-.34.52a2.12,2.12,0,0,1-2,.91,2.37,2.37,0,0,1-1.74-1.32,7.52,7.52,0,0,1-.56-1.21c-.13-.33-.24-.65-.34-1l-.14-.39-.06-.18,0-.06a.77.77,0,0,0-.12-.24.31.31,0,0,0-.51,0,1,1,0,0,0-.21.3c-.12.24-.23.5-.34.77l-.35.84c-.06.14-.13.29-.21.44a3.27,3.27,0,0,1-.32.57,1.9,1.9,0,0,1-1.81,1.07,2.29,2.29,0,0,1-1.66-1.41c-.21-.44-.33-.7-.47-1l-.38-.92c-.12-.3-.25-.56-.36-.8s-.23-.36-.26-.43-.23-.63.36-1a1,1,0,0,1,.61-.08,1.93,1.93,0,0,1,.67.24,2.3,2.3,0,0,1,.92,1c.31.72.5,1.37.73,1.9,0,.11,0,0,0,.07l0,0a.08.08,0,0,0,.07,0s0,.08.19-.3c.29-.58.52-1.18.95-2a3.27,3.27,0,0,1,1.38-1.44,1.89,1.89,0,0,1,.94-.15,1.74,1.74,0,0,1,.46.13,1,1,0,0,1,.42.22,1.29,1.29,0,0,1,.37.33,2,2,0,0,1,.31.4l.27.46.18.4c.18.43.33.85.46,1.24l.22.62c.1.24.09.23.13.33s.19.33.39.33c.39-.06.47-.3.89-1.3l.33-.82q.08-.19.18-.42a3.35,3.35,0,0,1,.3-.54,2.43,2.43,0,0,1,.82-.89,2.06,2.06,0,0,1,.54-.2l.29,0,.29.05a2,2,0,0,1,1.32,1.16,2.35,2.35,0,0,1,.21.42l.13.33.23.63c.15.42.28.82.44,1.19a1.46,1.46,0,0,0,.42.63.47.47,0,0,0,.52,0,.8.8,0,0,0,.31-.42,2.25,2.25,0,0,0,.08-.24c0-.14.1-.29.14-.44l.27-.94a9.33,9.33,0,0,1,.29-.9,2.29,2.29,0,0,1,.93-1.19.72.72,0,0,1,.93.11.74.74,0,0,1,.21.33,2,2,0,0,1,0,.56,1,1,0,0,1-.07.51c-.14.36-.27.92-.42,1.5-.08.29-.16.6-.27.92l-.09.25-.13.32c-.14.26-.28.52-.44.77a2.32,2.32,0,0,1-2.88.84,4.6,4.6,0,0,1-1.78-2.41l-.47-1.29-.11-.26s0,0,0,0v0a0,0,0,0,0,0,0h0v0s0,0-.07.13Z"/><path class="cls-1" d="M285.65,243.33c-3.94,1.3-6.71-1.62-9.49-3.85-1.86-15.92-18.59-80.42-19.28-82.9,5,.86,10.92.16,15-4.42l.61,3c2.68,13.7.82,27.69,1.41,41.58C274.43,209.34,279.86,232.38,285.65,243.33Z"/><path class="cls-1" d="M272.4,165.31c-.14-2.18-.31-4.36-.62-6.51-.12-1.09-.34-2.15-.51-3.23l-.1-.55a3,3,0,0,0-.08-.43l-.24.2-.61.45c-.3.22-.62.4-.93.6a15.89,15.89,0,0,1-4.06,1.65A18.26,18.26,0,0,1,261,158a18.46,18.46,0,0,1-2.12-.07l-.45-.07a3.24,3.24,0,0,0,.09.4q1.38,5.41,2.77,10.82,4.83,19.59,9.31,39.25l3.93,17.46c.79,3.73,1.61,7.45,2.21,11.25l.21,1.43.06.44c0,.1.16.16.23.24.65.54,1.43,1.21,2.13,1.75a7.52,7.52,0,0,0,4.64,1.93c1,0,1.52-.12,1.56.12s-.39.69-1.45,1a5.27,5.27,0,0,1-2,.2,8.06,8.06,0,0,1-2.53-.73A16.55,16.55,0,0,1,277,242l-1.23-.93-.55-.44-.28-.22-.15-.12,0-.19c-.06-.43-.13-.86-.19-1.29-1.14-7.54-2.87-15.15-4.5-22.72s-3.39-15.18-5.09-22.81c-2.05-9.13-4.51-18.56-6.85-27.84l-2.54-10c1.12.18,2.23.35,3.37.47.67.05,1.29.07,1.95.06a16.23,16.23,0,0,0,3.8-.49,13.43,13.43,0,0,0,3.51-1.43c.27-.17.55-.32.8-.51l.38-.28.26-.19.31-.27,1.21-1.17,1.16-1.18c.35,1.44.64,3.15.95,4.63.17,1.08.39,2.16.52,3.24a124,124,0,0,1,.83,19.53c-.17,9.82-.76,19.67,1,29.23A155.72,155.72,0,0,0,281,228.8c.48,1.56,1,3.06,1.57,4.62s.95,2.63,1.33,3.62.66,1.79.91,2.45a11.15,11.15,0,0,1,.7,2.85,8.55,8.55,0,0,1,0,1c-.09.73-1.7-1.32-3.5-5.54A126.34,126.34,0,0,1,275.76,218a122.12,122.12,0,0,1-3.32-21.1c-.47-10.65.55-21.21-.09-31.61Z"/><path class="cls-2" d="M273,152.69l0,0a.22.22,0,0,1-.09-.11l-2.52-12.89a.15.15,0,0,1,0-.13s0,0,0,0-.51-.06-1.1.06-1.07.28-1.05.36l0,0a.19.19,0,0,1,.09.11l.1.53L270.94,153s0,.08-.05.13,0,0,0,0,.51.06,1.1-.06S273.06,152.77,273,152.69Z"/><path class="cls-1" d="M277.37,155.22a6.55,6.55,0,0,1,2.62,1.54,11.61,11.61,0,0,1,1.7,2.5,31.29,31.29,0,0,1,2.85,9.74,48.48,48.48,0,0,1,.18,10.07c-.43,5.73-1.65,11.28-2.29,16.83a127.82,127.82,0,0,0,.05,28.8,84.23,84.23,0,0,0,1.35,8.39,63.57,63.57,0,0,0,2.21,7.78,9.75,9.75,0,0,1,.46,1.27c.24,1.13-.24,1.62-1,1-.17-.14-.41-.29-.48-.49a26.55,26.55,0,0,0-1.37-2.72,11.27,11.27,0,0,1-1.22-2.91A118.26,118.26,0,0,1,280,224.63c-.23-1.67-.36-3.35-.47-5-.1-2.15-.1-4.29-.11-6.43,0-1.47-.09-5.65.26-11.1.14-2.73.45-5.78.87-8.94s1-6.43,1.36-9.66a73.57,73.57,0,0,0,.68-9.37,36.68,36.68,0,0,0-.81-8,28.84,28.84,0,0,0-2.8-7.63C278.55,157.55,278.08,156.68,277.37,155.22Z"/><path class="cls-1" d="M269.36,142.84c-4.94,8.88-11.85,6.52-15.2,5.06-.59-1.91-.56-1.68-1.06-3.09,10,1.47,14.53-3.14,16.26-5.24Z"/><path class="cls-1" d="M257.82,146.4a16.47,16.47,0,0,1-1.72-.05l-.85-.06-.11,0-.17-.05-.09,0s-.06,0,0,0l.06.31,0,.07.05.17.09.27s0,.07.1.09l.26.11a10.39,10.39,0,0,0,7.47.82,7.94,7.94,0,0,0,2.86-1.79,35.82,35.82,0,0,0,2.77-3.5c.31-.36.77-.05,1,.58a2.69,2.69,0,0,1,.16,1.14,2.2,2.2,0,0,1-.48,1.27,11.52,11.52,0,0,1-4,3.6,9.15,9.15,0,0,1-5.33,1.08,18.48,18.48,0,0,1-3.16-.55c-.52-.14-1-.3-1.51-.47l-.73-.28-1.11-.48a6.18,6.18,0,0,1-.21-.65l-.17-.56-.16-.53-.21-.64-.85-2.47c.86.08,1.77.21,2.62.31l.65.08.53,0,.79.06a18.32,18.32,0,0,0,3.85-.2,16.08,16.08,0,0,0,2.83-.72,12.81,12.81,0,0,0,2.59-1.3,11.91,11.91,0,0,0,3-3.07l1.44-2,.16,2.57v.1c0,.34.06.68.07,1,0,1.28-.1,1.68-.67,2a3.39,3.39,0,0,1-.39.18c-.44.12-.81-.4-.94-1.33-.08-.63-.15-1.27-.21-1.93l2.19.78a13.68,13.68,0,0,1-5.59,4.6,17.69,17.69,0,0,1-6.89,1.5Z"/><path class="cls-1" d="M252.41,168.24a6.31,6.31,0,0,1,1.09,2.4,11.41,11.41,0,0,1,.26,2.38,55.08,55.08,0,0,0,3.07,15.6c1.43,4.39,3.06,8.74,4.91,13,3.17,7.37,6.73,14.61,9.76,22.13.89,2.23,1.71,4.49,2.5,6.77s1.43,4.39,2,6.65a7.84,7.84,0,0,1,.24,1.15c.05,1-.52,1.33-1.12.72-.14-.14-.35-.28-.39-.45a8.6,8.6,0,0,0-1-2.31,11,11,0,0,1-1-2.33,74.17,74.17,0,0,0-3.65-9.55c-.55-1.26-1.07-2.53-1.58-3.8-.66-1.62-1.27-3.27-1.95-4.89-.47-1.11-1.88-4.23-3.73-8.34s-4.11-9.19-6-14.35c-.93-2.58-1.77-5.17-2.42-7.63a58.66,58.66,0,0,1-1.39-6.85,36.11,36.11,0,0,1-.31-7.21A19.25,19.25,0,0,1,252.41,168.24Z"/><path class="cls-2" d="M258.13,157.42h0c-.06,0-.09,0-.1-.08l-3-10.09a.19.19,0,0,1,0-.11v0a2.36,2.36,0,0,0-1.08.2,2.73,2.73,0,0,0-1,.44s0,0,0,0,.09,0,.1.08l.11.4,2.82,9.58a.13.13,0,0,1,0,.11,0,0,0,0,0,0,0,2.48,2.48,0,0,0,1.1-.15C257.69,157.66,258.15,157.49,258.13,157.42Z"/><path class="cls-1" d="M231,113.82c1,2.56,4.35,5.75,7.13,3.51,2.06-1.66,1-5.15-.09-7.07-.51-.91-2.57-.06-2,1,.67,1.19,1.33,3.12.89,4.47-.68,2.12-3.43-1.58-3.78-2.47s-2.56-.43-2.17.58Z"/><path class="cls-1" d="M245.09,107.74c1,2.56,4.35,5.75,7.13,3.51,2.06-1.66,1-5.15-.09-7.07-.51-.91-2.56-.06-2,1,.67,1.19,1.34,3.11.9,4.47-.69,2.11-3.44-1.58-3.78-2.48s-2.57-.43-2.18.59Z"/><path class="cls-1" d="M244.05,102c2.4-5,8.78-6.34,13.76-5.75.18,0-.49-2.09-1.07-2.16-5.17-.61-11.53.69-14,5.87-.24.51,1.22,2.22,1.31,2Z"/><path class="cls-1" d="M239.74,111a14,14,0,0,0-.75-2.09,5.61,5.61,0,0,0-1.1-1.64,3.38,3.38,0,0,0-1.14-.64,4.38,4.38,0,0,0-2.48-.12,9,9,0,0,0-2.62,1.09,8.88,8.88,0,0,0-2,1.67c-.77.82-1.31,1.78-2,2.61-.22.26-.71,0-1-.52a2.09,2.09,0,0,1-.3-1,1.78,1.78,0,0,1,.29-1,11.73,11.73,0,0,1,6.41-4.59l.59-.15.63-.11a7.49,7.49,0,0,1,1.28-.14,6.86,6.86,0,0,1,1.34.11,6.49,6.49,0,0,1,1.28.45,5.78,5.78,0,0,1,2.09,2,10.66,10.66,0,0,1,1.16,2.38,24.85,24.85,0,0,1,.82,3,31.83,31.83,0,0,1,.53,4.65,29.24,29.24,0,0,1,.05,3.63c0,.27,0,.54-.08.81-.2,1-.49,1.29-1.08,1.3a2.77,2.77,0,0,1-.41,0c-.44-.08-.65-.55-.6-1.19a38.76,38.76,0,0,0-.08-6,24.39,24.39,0,0,0-.86-4.49Z"/><path class="cls-1" d="M251.32,130.36c-.9.44-1.48.62-2-.38-.39-.81.1-1.42,1-1.71.76-.25,1.29-.73,1.87.11S252,130,251.32,130.36Z"/><path class="cls-1" d="M247.44,141.16a19.81,19.81,0,0,0,7,2.63,18,18,0,0,0,7.44-.46,10.08,10.08,0,0,0,4.53-2.6,20,20,0,0,0,4.86-8.35,50.32,50.32,0,0,0,2.09-9.88,71.5,71.5,0,0,0,.43-9c0-3.85-.38-7.7-.51-11.55-.12-2.41,2.32.41,2.59,4.95.42,8,.19,16.12-2.05,24a38.16,38.16,0,0,1-2.74,7,19.4,19.4,0,0,1-2.16,3.21,18.25,18.25,0,0,1-1.35,1.43,12.89,12.89,0,0,1-1.58,1.2,12,12,0,0,1-1.93,1,14.72,14.72,0,0,1-2.05.65l-1,.24c-.35.07-.7.12-1,.17a16.6,16.6,0,0,1-2.1.21,19.27,19.27,0,0,1-8.23-1.47,29.67,29.67,0,0,1-8.48-5.52,84.31,84.31,0,0,1-10-11.31l-7-9.06-1.56-2c-1.92-2.46-2.46-3.29-2.44-4.18a2.25,2.25,0,0,1,0-.59c.13-.51,1.26.23,2.79,2,4.54,5.19,8.6,11.15,13.15,16.63,3.39,4,7.05,7.93,11.45,10.54Z"/></g></svg>