<svg id="Layer_1" data-name="Layer 1" xmlns="http://www.w3.org/2000/svg" width="520" height="520" viewBox="0 0 520 520"><defs><style>.cls-1,.cls-3{fill:none;stroke-miterlimit:10;}.cls-1{stroke:#000;stroke-width:2.43px;}.cls-2{fill:#221f1f;}.cls-3{stroke:#221f1f;stroke-width:2.54px;}.cls-4{fill:#232020;}</style></defs><title>Notioly v2</title><g id="_72.Place_search" data-name="72.Place search"><line class="cls-1" x1="177.39" y1="470.15" x2="177.38" y2="470.14"/><path class="cls-2" d="M190.68,423.69c-4.72.24-5.49-.63-10.31,2.29,2.83,18.69,3.14,25.32,3.55,37.14l6.93,0-1.46-6.69c1.55.12,8,9,25.46,6.31,27.84-4.23-17.17-.14-21.36-14.79Z"/><path class="cls-2" d="M224.55,462c-.52.5-2.34.91-4.16,1.23-.94.17-1.8.3-2.66.44l-1.61.24c-1,.16-2,.26-3,.37a29,29,0,0,1-3.09.2,35.7,35.7,0,0,1-6.19-.33,29.33,29.33,0,0,1-6-1.57c-.72-.25-1.4-.6-2.11-.89s-1.37-.67-2-1.08c-.33-.19-.66-.37-1-.59l-.86-.57-.46-.34c-.1-.09-.41-.33-.29-.05l.09.51.28,1.38.69,3.26-9.11-.12-.25-8.72q-.15-3.91-.45-7.8c-.36-4.54-.93-9.08-1.59-13.56l-.66-4.31-.34-2.15-.23-1.48-.07-.43c0-.09.05-.11.11-.15l.19-.11.75-.45.36-.21.25-.14.5-.27c.34-.17.67-.35,1-.5a9.78,9.78,0,0,1,2.26-.72,23.72,23.72,0,0,1,4.51-.08c1.77,0,1.59.57.06,1.15a23.66,23.66,0,0,1-3.12.77,14,14,0,0,0-3.7,1.48l-.46.25-.21.12h0l.08.52.17,1.1.63,4.43c.4,2.95.77,5.92,1.08,8.89.63,6,.93,12,1,18,0,.56,0,1.13,0,1.69v.73c-.21,0,5.16.06,4.68.06l-.35-1.61-.47-2.16c-.09-.39-.19-.82-.25-1.17l0-.83v-1.14s0-.08,0-.05l.47.15.75.3.38.16.19.08.23.14.94.58,1,.71.48.35.32.21.58.39a24.24,24.24,0,0,0,5.21,2.56,27.25,27.25,0,0,0,2.8.83c1,.17,1.91.41,2.89.49l1.46.17,1.47.06a26.4,26.4,0,0,0,2.95,0,29.09,29.09,0,0,0,3-.25c1-.09,2-.24,3-.39l2.1-.32.9-.17a1.87,1.87,0,0,0,.86-.32c-.16-.23-.51-.22-.78-.3l-.88-.16-2.21-.36a82.21,82.21,0,0,1-11.1-2.47,37.23,37.23,0,0,1-5.33-2.08,17.77,17.77,0,0,1-4.78-3.28,9.84,9.84,0,0,1-2.45-3.89,1.36,1.36,0,0,1-.09-.36l0-.29-.07-.53-.14-1.07-.28-2.13c-.38-2.84-.77-5.67-1.15-8.51-.17-1.25-.33-2.47-.5-3.73-.58-4.69-.61-6.19-.16-7.27a3.31,3.31,0,0,1,.31-.7c.38-.5,1,1.36,1.49,4.78.78,5.07,1.5,10.28,2.17,15.58l.25,2,.13,1,.06.5c0,.12,0,.07,0,.09l.05.12a7.58,7.58,0,0,0,1.79,2.85,18.36,18.36,0,0,0,6.35,3.87,60.48,60.48,0,0,0,11.4,3l3.06.51,2.67.42c1,.15,1.95.31,2.8.49a4.43,4.43,0,0,1,.56.15c.16.06.38.11.49.17a2.64,2.64,0,0,1,.6.35,1.55,1.55,0,0,1,.52.66,2,2,0,0,1,.09.45,1.77,1.77,0,0,1-.07.54,1.43,1.43,0,0,1-.54.69Z"/><path class="cls-2" d="M168.57,428.76c-4.71.24-4.37-.64-9.2,2.28,2.84,18.7,2,20.74,3.55,33.15l6.6-.14-.91-6.41c.46,0,8.77,9.36,27.46,6.2,27.77-4.7-20.49-.14-24.68-14.79Z"/><path class="cls-2" d="M205.69,462.54a2.58,2.58,0,0,1-.91.71c-.25.12-.61.23-.91.35s-.79.2-1.17.3c-.82.19-1.72.37-2.6.53l-2.1.37c-1.91.33-3.89.62-5.86.76a38.55,38.55,0,0,1-11.87-.89,30.06,30.06,0,0,1-8.14-3.22l-1.26-.8c-.21-.15-.27-.2-.38-.29l-.32-.26s-.11-.11-.16-.12l0,.19.09.9.52,3.93-5.68.07h-1.44l-.92,0h-.46a3.06,3.06,0,0,1-.06-.45l-.32-2.93c-.3-3.05-.52-6.12-.71-9.17-.26-4.39-.7-8.78-1.3-13.1-.19-1.39-.39-2.77-.61-4.16l-.32-2.08-.17-1-.12-.82-.07-.42,0-.21c0-.07-.05-.15,0-.17l1.4-.84c.32-.17.62-.36.95-.53a12.21,12.21,0,0,1,2.07-.91,7.68,7.68,0,0,1,2.34-.3l2.1.06c1.71,0,1.54.58.06,1.16a29.77,29.77,0,0,1-2.95.78,8,8,0,0,0-1.55.7L161,431.76l-.06,0h0s0,0,0,.1l.32,2.13.58,4.28c.37,2.86.68,5.74.92,8.62s.38,5.77.56,8.63l.3,4.29.27,3.2.19,0h4.24c-.13-1-.27-1.95-.4-2.93l-.22-1.53a1.35,1.35,0,0,1,0-.58l.06-.48.12-1v-.06s0,0,.06,0l.11,0,.19.07.39.16a9.8,9.8,0,0,1,1,.39c.4.27.84.63,1.26.94.21.16.41.3.62.44s.45.32.54.37.49.32.75.47A26.69,26.69,0,0,0,176,461a31,31,0,0,0,11,2.51,41.9,41.9,0,0,0,5.71-.11c1-.1,1.89-.21,2.84-.35s1.94-.32,2.82-.46c.53-.09,1.09-.18,1.66-.3.28-.06.57-.12.86-.21a1.25,1.25,0,0,0,.41-.18c.08-.06,0-.14-.05-.16l-.19-.08a14.3,14.3,0,0,0-1.68-.31l-2.51-.35a107.92,107.92,0,0,1-10.78-2,36.72,36.72,0,0,1-10.28-3.93,13.76,13.76,0,0,1-3.35-2.8,8.87,8.87,0,0,1-1.24-1.88,7.42,7.42,0,0,1-.42-1,1.2,1.2,0,0,1-.1-.35l0-.27-.08-.51c-.43-2.73-.86-5.45-1.3-8.18-.19-1.2-.37-2.38-.57-3.59-.66-4.51-.72-6-.29-7a3.83,3.83,0,0,1,.3-.69c.38-.5,1,1.29,1.58,4.58.87,4.87,1.68,9.88,2.45,15a1.82,1.82,0,0,0,.16.65,6.51,6.51,0,0,0,.31.72,7.42,7.42,0,0,0,.92,1.34,11.66,11.66,0,0,0,2.64,2.2,28.37,28.37,0,0,0,6.82,2.93,82.26,82.26,0,0,0,11.21,2.37l7.65,1.07a12.41,12.41,0,0,1,2.29.53,2,2,0,0,1,1,.68,1.21,1.21,0,0,1,.32.76,1.17,1.17,0,0,1-.06.57,1.08,1.08,0,0,1-.17.36Z"/><path class="cls-2" d="M268.82,120.7a2.29,2.29,0,0,0,.24.59,2.08,2.08,0,0,1,.19.29c.06,0,.11.13.17.17a.39.39,0,0,0,.11.06s.07,0,.12,0c.37.15,1.31-.24,2-.8a7.93,7.93,0,0,0,.88-.86c.37-.38.72-.78,1.14-1.15.14-.12.09-.12,0,0s0,.46-.08.79a4.66,4.66,0,0,1-1.77,3.06,9.44,9.44,0,0,1-1.07.67,2.4,2.4,0,0,1-1.48.27,2.68,2.68,0,0,1-.84-.28,4.51,4.51,0,0,1-.62-.5,3.77,3.77,0,0,1-.76-1.19,3.71,3.71,0,0,1-.24-1.66,6.06,6.06,0,0,1,.68-2.18,5.78,5.78,0,0,1,.84-1.4,2.1,2.1,0,0,1,.24-.27,3.55,3.55,0,0,1,.54-.45l0,0a1.28,1.28,0,0,0-.12.46,7.44,7.44,0,0,0-.22,1.49c-.07.47-.08,1-.12,1.36a4.18,4.18,0,0,0,.16,1.52Z"/><path class="cls-2" d="M279.73,127.7a2.44,2.44,0,0,0,.24.59,2.75,2.75,0,0,1,.19.28c.06.05.11.14.16.18a.67.67,0,0,1,.12.06.15.15,0,0,1,.12,0c.37.15,1.3-.24,2-.81a7.84,7.84,0,0,0,.88-.85,15.43,15.43,0,0,1,1.14-1.15c.13-.12.08-.12,0,0s0,.46-.08.78a4.68,4.68,0,0,1-1.78,3.07,9.26,9.26,0,0,1-1.06.66,2.42,2.42,0,0,1-1.49.28,2.71,2.71,0,0,1-.83-.28,4.51,4.51,0,0,1-.62-.5,3.7,3.7,0,0,1-.76-1.2,3.43,3.43,0,0,1-.24-1.66,6.26,6.26,0,0,1,.67-2.17,6.08,6.08,0,0,1,.85-1.41l.23-.27a5.87,5.87,0,0,1,.54-.44s0,0,0,0a2.31,2.31,0,0,0-.11.46,7.35,7.35,0,0,0-.22,1.48c-.07.48-.09,1-.12,1.37a4.13,4.13,0,0,0,.16,1.51Z"/><path class="cls-2" d="M291.85,124.7c3.92-6.63,7-14.18,4.25-19.4-7.79-14.61-35.37,6.65-42.79-1,0,0-3,3.34-4,4.52-.68-5.6-6.85-11.74-10.76-5-2.75,4.75-2.87,12,3.37,14.34-.81,2-2.3,5.84-3.94,9.25-31.37-25.32,9.18-77.53,47.4-53.73,8.64,5.38,17.17,14.88,19.28,25C307.89,114.06,292.44,124.88,291.85,124.7Z"/><path class="cls-2" d="M241.84,77.75a42.36,42.36,0,0,0-7.19,7.7,38,38,0,0,0-4.84,9.33A31.68,31.68,0,0,0,228,105.06,26.24,26.24,0,0,0,230,115.23a24.69,24.69,0,0,0,1.71,3.41,15.11,15.11,0,0,0,1.07,1.58c.38.52.73,1,1.13,1.55l1.28,1.42a12.39,12.39,0,0,0,1.33,1.38l.9.82.18.16s.07-.14.11-.2l.23-.49.53-1.2,1-2.41.94-2.28.07-.18s.11-.13,0-.15l-.16-.08-.09,0s-.06,0,0,0l-.08-.05-.15-.1a8.42,8.42,0,0,1-3.74-4.52,11.25,11.25,0,0,1-.37-5.71,13.73,13.73,0,0,1,2-5.25,6.64,6.64,0,0,1,.9-1.17l.53-.54a5.29,5.29,0,0,1,.64-.47,5,5,0,0,1,1.46-.68,4.79,4.79,0,0,1,1.64-.08,5.66,5.66,0,0,1,1.54.42,7.94,7.94,0,0,1,1.29.79,10.45,10.45,0,0,1,2,2.09,12.82,12.82,0,0,1,1.36,2.49l.15.39.07.26a3.57,3.57,0,0,1,.11.55c0,.11.05,0,.09,0l.12-.14.24-.26.71-.79,1.29-1.45.89-1,.11-.12c0-.06.09,0,.13,0l.26.22.52.42a6.83,6.83,0,0,0,.57.44l.32.17a2.31,2.31,0,0,0,.68.3,6.7,6.7,0,0,0,1.5.35,15,15,0,0,0,3.27-.06c8-1.14,15.72-5,24.18-5.76a20.42,20.42,0,0,1,4.13.08,12.74,12.74,0,0,1,4.05,1.28,10.92,10.92,0,0,1,3.23,2.86l.57.9.28.46.23.49a9,9,0,0,1,.69,2.07,12.31,12.31,0,0,1,.15,4.23,20.86,20.86,0,0,1-.91,4,39.47,39.47,0,0,1-3.36,7.35c-1.71,2.87-1.94,2.17-1.05-.5.43-1.35,1.11-3.2,1.78-5.43a24.8,24.8,0,0,0,1.3-7.55,9.15,9.15,0,0,0-.59-2.93l-.3-.66-.41-.65a8.08,8.08,0,0,0-.9-1.19,8.39,8.39,0,0,0-5.32-2.53,22.92,22.92,0,0,0-6.57.34,68.81,68.81,0,0,0-6.71,1.62c-4.5,1.24-9,2.83-13.86,3.55a16.77,16.77,0,0,1-3.83.12,5.87,5.87,0,0,1-1-.14,5.36,5.36,0,0,1-1-.26,6.35,6.35,0,0,1-1-.39l-.48-.27-.12-.07s-.14-.08,0,0h0l-.08-.08s-.06,0-.08.07l0,0-.25.29-.59.66-1.82,2-1.08,1.21-.53.6a6.72,6.72,0,0,1-.51.53l-.37-2.07c-.15-.7-.27-1.43-.44-2.09a2.9,2.9,0,0,0-.16-.47l-.1-.26c-.06-.14-.11-.29-.18-.43l-.43-.85a7.93,7.93,0,0,0-2.42-2.73,3.78,3.78,0,0,0-1.74-.62,2.57,2.57,0,0,0-1.64.54,8.05,8.05,0,0,0-2.44,3.51,11.93,11.93,0,0,0-.87,4.47,7.5,7.5,0,0,0,1.2,4.2,6.64,6.64,0,0,0,1.47,1.57l.46.29.23.15.12.07,0,0h0l.09,0,.12.06,1,.44.47.22.24.11c.06,0,0,.15-.05.22l-2.22,5.45-1,2.32-.77,1.67-.45.95-.22.47-.11.24,0,.05-.05,0-.1-.09-2.81-2.51c-.31-.3-.65-.56-.94-.88l-.86-1a33.45,33.45,0,0,1-3.45-4.49l-1.36-2.49c-.43-.84-.73-1.75-1.1-2.62A28.72,28.72,0,0,1,226,103.79a33.73,33.73,0,0,1,2.33-11,41.81,41.81,0,0,1,28-24.78,35.88,35.88,0,0,1,20.55.86,45.83,45.83,0,0,1,17.39,10.9,43.73,43.73,0,0,1,9.29,12.84,27.63,27.63,0,0,1,2.3,7.65,22.84,22.84,0,0,1,.16,4,24.76,24.76,0,0,1-.62,4,25.69,25.69,0,0,1-2.69,6.56,28.63,28.63,0,0,1-5.91,7.2,10.39,10.39,0,0,1-3.54,2.19,3.62,3.62,0,0,1-1.24.29c-.06,0,0-.09,0,0s0,.11,0,0a.43.43,0,0,0,0-.2.1.1,0,0,0,0,0,.74.74,0,0,1,.09-.12c.2-.21.6-.57,1.15-1.08a47.52,47.52,0,0,0,4.78-5,25.62,25.62,0,0,0,5.72-12.06,19.1,19.1,0,0,0-.14-6.7,27.6,27.6,0,0,0-2.22-6.5A41.12,41.12,0,0,0,293,81.52a45.64,45.64,0,0,0-11.5-8.4c-.78-.42-1.6-.73-2.4-1.1l-1.21-.54c-.41-.16-.84-.28-1.25-.42-.84-.27-1.67-.57-2.51-.81l-2.58-.58a35.88,35.88,0,0,0-10.5-.38,37.39,37.39,0,0,0-19.11,8.49Z"/><path class="cls-2" d="M238.1,72.33A8.5,8.5,0,0,0,235,74.08a4.16,4.16,0,0,0-.81.89,5.88,5.88,0,0,0-1,4.24,6.45,6.45,0,0,0,.63,2c.4.81,1,1.48,1.39,2.31.12.27-.31.61-.89.74a1.57,1.57,0,0,1-1.69-.5,8.89,8.89,0,0,1-1.41-6.57,8.19,8.19,0,0,1,1.65-3.92,11.33,11.33,0,0,1,3.58-2.56,11.08,11.08,0,0,1,2.57-.79,12,12,0,0,1,4,.06,13.57,13.57,0,0,1,3,.75,6.17,6.17,0,0,1,.65.29c.78.45,1,.94.64,1.43a1.54,1.54,0,0,1-.25.31,1.15,1.15,0,0,1-.56.24A.89.89,0,0,1,246,73a15.46,15.46,0,0,0-4.46-1,8.5,8.5,0,0,0-3.39.46Z"/><path class="cls-2" d="M243.49,70.74c-11.81-1.53-12.24,7.83-11.14,10.36-15.72.42-18.29,27.54-29.65,34-12.33,7-52.65-8.37-15.35-30.5,6.1-3.62,2-12.64,5.27-18.87C204.1,43.69,240,43.89,243.49,70.74Z"/><path class="cls-2" d="M191.28,82a8.05,8.05,0,0,1-3.2,3.63l-3.45,2.15a45.34,45.34,0,0,0-6.29,4.94A19.08,19.08,0,0,0,173.79,99a8.22,8.22,0,0,0,.12,7,12.58,12.58,0,0,0,3.56,4.16,22.55,22.55,0,0,0,4.92,2.89,30,30,0,0,0,4.83,1.69,31.89,31.89,0,0,0,5,.91,24.65,24.65,0,0,0,5.08,0,13,13,0,0,0,4.73-1.3c2.89-1.53,5-4.38,6.87-7.28s3.42-6.1,5.05-9.24a90.07,90.07,0,0,1,4.68-8.26,23.94,23.94,0,0,1,6.58-7,13.41,13.41,0,0,1,3.41-1.64,13,13,0,0,1,1.86-.46,1.66,1.66,0,0,1,.27,0l.18,0c.11,0,.3,0,.33-.07a1.66,1.66,0,0,1-.12-.42.52.52,0,0,1,0-.11s0-.12,0-.21a5.67,5.67,0,0,1,0-.58,9.9,9.9,0,0,1,.21-2.3,8.46,8.46,0,0,1,2.08-4.13,8.18,8.18,0,0,1,4-2.34,6.11,6.11,0,0,1,1.11-.24c.37,0,.74-.12,1.11-.15.74,0,1.49-.06,2.21,0,2.6.28,2.09.79,0,1.16a20.77,20.77,0,0,0-4,1.15,6.92,6.92,0,0,0-3.68,3.41,6.54,6.54,0,0,0-.68,2.49,6.37,6.37,0,0,0,0,1.31l0,.2a2.45,2.45,0,0,0,.07.42l.26.82c.17.57.35,1.08.52,1.61l-2.67.22a5.26,5.26,0,0,0-.67.07l-.29,0-.58.11a12.69,12.69,0,0,0-2.22.77A14.31,14.31,0,0,0,224,86.44a37.65,37.65,0,0,0-6,8.34c-1.72,3.06-3.29,6.26-5,9.43a40.09,40.09,0,0,1-6.28,9.06,15.66,15.66,0,0,1-3.1,2.47,13,13,0,0,1-1.83.91,17,17,0,0,1-1.93.58,24.9,24.9,0,0,1-7.83.42,32.1,32.1,0,0,1-14.68-5,15.19,15.19,0,0,1-5.7-6.63,10,10,0,0,1-.56-2.21,7.35,7.35,0,0,1-.12-1.14l0-1.14a5.94,5.94,0,0,1,.17-1.12c.09-.37.15-.74.25-1.1a19.68,19.68,0,0,1,.83-2.06,22.84,22.84,0,0,1,5.36-6.7,21,21,0,0,1,1.61-1.38c.56-.44,1.1-.89,1.66-1.31,1.16-.79,2.27-1.66,3.47-2.38l2.2-1.36c.39-.23.67-.45,1-.67a4.54,4.54,0,0,0,.83-.75,7.79,7.79,0,0,0,1.73-4.25c.45-3.24,0-6.73.87-10.23a12.62,12.62,0,0,1,1.54-3.75,27.76,27.76,0,0,1,2.19-3.3,28.69,28.69,0,0,1,5.61-5.56,32,32,0,0,1,14.36-6.06,30.32,30.32,0,0,1,12,.51,23.77,23.77,0,0,1,10.61,5.74c.69.59,1.24,1.31,1.86,2s1.11,1.42,1.58,2.2a19.75,19.75,0,0,1,2.74,6.56,11.06,11.06,0,0,1,.24,1.88,6,6,0,0,1-.13,1.29,6.35,6.35,0,0,1-.23,1c-.17.33-.45-.14-.81-1.25-.08-.27-.18-.59-.27-.94s-.26-.73-.4-1.14c-.24-.85-.65-1.78-1.06-2.84a21.88,21.88,0,0,0-6-8A22.85,22.85,0,0,0,225.67,52a28,28,0,0,0-10.44-.41,30.19,30.19,0,0,0-10,3.36,27.57,27.57,0,0,0-11.06,11c-1.27,2.11-1.49,4.67-1.59,7.4-.05,1.36-.07,2.77-.19,4.22a14,14,0,0,1-1,4.49Z"/><path class="cls-2" d="M241.28,164.87a61.3,61.3,0,0,1,2.11,7.67c.56,2.55,1.06,5.09,1.55,7.64l1.12,5.56c1.22,6.54,2.4,13.08,4,19.52a78.48,78.48,0,0,0,2.56,8.4,45.13,45.13,0,0,0,2.24,5.06,14.17,14.17,0,0,0,3.1,4.21c.77.57.55,1.08-.65,1a2.81,2.81,0,0,1-1-.31,3.83,3.83,0,0,1-.57-.29c-.18-.12-.37-.26-.56-.41s-.38-.3-.57-.48-.35-.38-.52-.58a7.21,7.21,0,0,1-1-1.38,51.09,51.09,0,0,1-4.21-11.07c-1-3.76-1.85-7.56-2.55-11.39-.84-4.58-1.88-9.29-2.78-13.95-1-5.11-1.92-10.25-3.26-15.23a23.84,23.84,0,0,0-1.55-4.38,7.87,7.87,0,0,0-3-3.2,16.21,16.21,0,0,0-6.67-1.94c-2.38-.27-4.8-.33-7.24-.54a22.7,22.7,0,0,1-5.66-1,10.54,10.54,0,0,1-2.68-1.35,8.45,8.45,0,0,1-2.1-2.24,9.93,9.93,0,0,1-1.13-2.43,11.91,11.91,0,0,1-.41-2,11.42,11.42,0,0,1,0-1.39,2.56,2.56,0,0,1,.55-1.49,2.79,2.79,0,0,1,.39-.43c.22-.13.42.11.58.65a6.12,6.12,0,0,1,.22,1c.09.4.18.86.26,1.38a9.52,9.52,0,0,0,1.72,4.06,7.43,7.43,0,0,0,3.59,2.33c3,.95,6.46.93,10,1.19a26,26,0,0,1,8.11,1.56,10.88,10.88,0,0,1,3.7,2.52,11.17,11.17,0,0,1,2.32,3.77Z"/><path class="cls-2" d="M282.19,240.31a121.68,121.68,0,0,1-22.35,3.6,43,43,0,0,1-8.39-.26,20.32,20.32,0,0,1-3.69-.92A14.19,14.19,0,0,1,246,242c-.54-.33-1.09-.65-1.62-1a28.94,28.94,0,0,1-5.49-5,68,68,0,0,1-8-12.18c-2-3.8-3.86-7.7-5.54-11.61a114.5,114.5,0,0,1-5.62-15.41c-.82-3.31,2.28.27,4.4,6.08,1.89,5.17,4,10.28,6.3,15.26a90,90,0,0,0,8.19,14.27,28.59,28.59,0,0,0,6.93,6.95c2.65,1.89,6,2.37,9.3,2.58a63.69,63.69,0,0,0,11.1-.56c3.7-.45,7.39-1.14,11.05-1.93,4.52-1,9-2.15,13.42-3.45a204,204,0,0,0,19.78-7l1.86-.79,1.41-.64c.13,0,0-.14,0-.22l-.06-.26-.19-.81c-.15-.64-.33-1.28-.5-1.91a43.11,43.11,0,0,0-2.82-7.32,27.28,27.28,0,0,0-1.74-2.91,21.27,21.27,0,0,0-2.83-3.36c-.34-.32-.58-.64-.8-.87a3.57,3.57,0,0,1-.52-.69,5,5,0,0,1-.37-.65c-.1-.3.28-.32,1.11-.05l.71.26.77.48c.27.19.59.38.88.62l.9.83a23.14,23.14,0,0,1,4.25,6.3,43.09,43.09,0,0,1,2.62,7.18c.16.62.32,1.24.46,1.87l.11.52.18.91.16.9c0,.14.1.33,0,.42l-.42.19-2.54,1.12-1.75.74c-2.34,1-4.71,1.92-7.11,2.8a206.7,206.7,0,0,1-21.76,6.74Z"/><path class="cls-2" d="M208.17,237.54c1.06-1.87,2.15-3.72,3.34-5.51.43-.66.8-1.35,1.27-2a73,73,0,0,1,5.16-6.46l2.39-2.77,1.56-1.75a12.36,12.36,0,0,1,1.76-1.55c.79-.57,1.31,1.8.09,3-2.14,2.2-4.21,4.47-6.32,6.78a39.25,39.25,0,0,0-3.38,4.63c-1.15,1.76-2.29,3.53-3.32,5.38-.66,1.12-1.26,2.28-1.85,3.43-.87,1.77-1.74,3.56-2.44,5.39-.55,1.43-.93,2.88-1.35,4.33-.08.32-.17.63-.25.95-.36,1.19-.62,1.51-1.25,1.59a3.15,3.15,0,0,1-.43.05c-.45,0-.64-.62-.47-1.53a38.55,38.55,0,0,1,2.62-8.14c.83-2,1.82-3.93,2.82-5.86Z"/><line class="cls-3" x1="185.03" y1="426.27" x2="180.32" y2="427.12"/><path class="cls-2" d="M200.15,161.46c-5.71,4.91-11.25,10-16.48,15.41-1.87,2-3.74,4-5.55,6.07a193.09,193.09,0,0,0-17.73,22.93c-1.15,1.81-2.34,3.61-3.43,5.46s-2.11,3.74-3.17,5.59c-1.3,2.41-2.48,4.89-3.74,7.32s-2.35,4.95-3.63,7.38c-1.58,3-1.63-1.72,1.07-7.53a165.46,165.46,0,0,1,17.91-28.84l3.14-4.08,3.29-4c1.07-1.37,2.23-2.69,3.37-4s2.27-2.66,3.47-3.92A223.17,223.17,0,0,1,195,163.14q5.28-4.68,10.72-9.15l4.13-3.37c1.38-1.11,2.76-2.26,4.2-3.32,2.88-2.12,5.8-4.12,8.64-6.2a79.93,79.93,0,0,0,12.16-10.51A32.35,32.35,0,0,0,237,127.9a22.45,22.45,0,0,0,2.21-3.85,8.3,8.3,0,0,1,1-1.8,4.45,4.45,0,0,1,.43-.6c.23-.21.42.13.51,1a8.8,8.8,0,0,1-.94,3.87,25.06,25.06,0,0,1-4.43,6.24,60.08,60.08,0,0,1-5.61,5.21c-3.94,3.26-8.17,6.2-12.32,9.17-1.53,1.11-3.06,2.22-4.5,3.37l-4.42,3.61c-2.94,2.41-5.87,4.85-8.73,7.34Z"/><path class="cls-2" d="M278.16,145.61a41.59,41.59,0,0,1-9.09,6.65,23.93,23.93,0,0,1-3.86,1.64,16.83,16.83,0,0,1-7.4.61,17,17,0,0,1-6.84-2.74,15.72,15.72,0,0,1-4.55-4.71,14.66,14.66,0,0,1-2.21-8c0-.86.57-.74,1.15-.09a8.07,8.07,0,0,1,1.53,3.17,13.14,13.14,0,0,0,3.47,6.32,15.66,15.66,0,0,0,6.4,3.76,14,14,0,0,0,9.17-.84,24.91,24.91,0,0,0,4.71-2.47,37.5,37.5,0,0,0,4.31-3.26,54.25,54.25,0,0,0,4.79-4.68,77.19,77.19,0,0,0,6.39-7.95c1.5-2.16,2.8-4.4,4.08-6.66l.83-1.5c1.07-1.85,1.53-2.37,2.26-2.49a2.18,2.18,0,0,1,.49-.06c.48,0,.36,1-.33,2.41a75.69,75.69,0,0,1-7.79,12.48,73.38,73.38,0,0,1-7.47,8.42Z"/><path class="cls-2" d="M243.39,262.92q-3.85-4.6-7.6-9.29c-.91-1.15-1.87-2.25-2.76-3.41-3.13-4.09-6.16-8.27-8.89-12.67a44.64,44.64,0,0,1-3.3-6.15,8.88,8.88,0,0,1-.38-1.1,7.71,7.71,0,0,1-.28-1.15,17.64,17.64,0,0,1-.23-2.27,37.52,37.52,0,0,1,.14-4.39c.08-.89.63-.78,1.16,0a7.26,7.26,0,0,1,1,3.82,13.07,13.07,0,0,0,.53,3.93,29,29,0,0,0,1.75,3.79c1.39,2.52,3,5,4.6,7.48,1.94,3,4.29,5.85,6.55,8.7,2.48,3.14,5,6.26,7.59,9.33,1.59,1.89,3.19,3.78,4.81,5.64,2.46,2.82,4.93,5.65,7.48,8.36l.74.78.43.44a2.26,2.26,0,0,1,.32.61c.31.67.59,1.33.86,2a33.9,33.9,0,0,1,1.41,4.16,16.92,16.92,0,0,1,.42,1.93c.33,2.5-.34,3.62-1.13,3.78a1.37,1.37,0,0,1-.5.08c-.22-.05-.28-.35-.27-.68s0-.87,0-1.62a26.54,26.54,0,0,0-2-7.1c-.24-.59-.48-1.19-.74-1.78l0-.11h0l-.25-.26-.69-.73-2.76-3c-2.72-3-5.37-6-8-9.09Z"/><path class="cls-2" d="M247.13,283.15a7.41,7.41,0,0,1-.22,2.53c-.29.78-.8.86-1.58.87-.41,0-1.13.13-1.34.55s.17.6.55.59c1.41,0,3.12-.26,4-1.5.73-1,.62-2.4.6-3.58,0-.63-2-.24-2,.54Z"/><path class="cls-2" d="M252.43,280.57c.24.93.66,1.82.81,2.78a6.44,6.44,0,0,1-1.24,4.41c-.47.76,1.54.54,1.88,0a7.57,7.57,0,0,0,1.45-4.36,17.21,17.21,0,0,0-.87-3.37c-.17-.66-2.2-.13-2,.54Z"/><path class="cls-2" d="M249.92,282a15.41,15.41,0,0,1,.12,3,6.77,6.77,0,0,1-2,3.67c-.34.36.29.5.53.52a1.82,1.82,0,0,0,1.34-.54,7.43,7.43,0,0,0,2.15-3.94,15.68,15.68,0,0,0-.11-3.21c0-.57-2.07-.17-2,.54Z"/><path class="cls-2" d="M233.84,274.63l-.73-.92-.35-.44a1.91,1.91,0,0,1-.15-.21l-.12-.2-.14-.24-1.11-1.93c-.79-1.27-1.56-2.55-2.41-3.77-.61-.91-1.28-1.77-1.93-2.66q-3.35-4.71-7.12-9.14c-1.11-1.3-2.31-2.55-3.51-3.76-1.55-1.55-3.2-3-4.63-4.66-.9-1,1.79-1.38,3.64.43a86.74,86.74,0,0,1,9,10.25c1.63,2.2,3.46,4.37,5.09,6.65,1.77,2.51,3.44,5.1,5,7.78a1.08,1.08,0,0,0,.13.19l.22.27.43.55c.29.36.58.71.87,1a7.79,7.79,0,0,0,2,1.61,13.5,13.5,0,0,0,1.85.83c.65.24,1.35.51,2,.77l1.78.69c.38.14.77.27,1.14.37a2.73,2.73,0,0,0,.81.13.27.27,0,0,0,.17-.06c.06,0,0-.14,0-.21a2,2,0,0,0-.32-.38,7.78,7.78,0,0,0-1.27-1l-.88-.59c-1.39-.92-1.76-1.13-1.92-1.79a2.81,2.81,0,0,1-.13-.45c-.12-.47.87-.69,2.19-.06a13.35,13.35,0,0,1,1.39.77l.33.22.16.11.25.19c.35.28.71.57,1.05.87,1.34,1.17,2.6,2.62,2.5,3.39a1.28,1.28,0,0,1-.09.6,1.41,1.41,0,0,1-.21.38,2.76,2.76,0,0,1-.23.24,1.9,1.9,0,0,1-1.29.43,9.22,9.22,0,0,1-2.5-.51l-1.43-.48-1.08-.4-2.13-.81c-.65-.25-1.46-.52-2.22-.87a10.64,10.64,0,0,1-2.25-1.33,12.12,12.12,0,0,1-1.83-1.82Z"/><path class="cls-2" d="M234.37,156.15c-.77-1.18-.75-1.58-.57-1.8a21.38,21.38,0,0,1,1.91-2.12c.58-.56,1.27-1,1.89-1.54l3.18-2.76,1-.79c.3-.27.57-.57.88-.85.05,0,.08-.13.17-.13s.63.5.81,1c0,.11.12.26.1.28-.23.21.07,1-.18,1.17a6.82,6.82,0,0,0-1.2,1.31,2.93,2.93,0,0,1-.54.45c-.26.17-.55.28-.81.45-.71.43-5.82,5.19-6,5.3A2.27,2.27,0,0,1,234.37,156.15Z"/><path class="cls-2" d="M335.58,364.34c1.7,6.19,3.72,12.34,5.83,18.45S345.76,395,348.05,401c1.67,4.42,3.46,8.8,5.18,13.2l5.65,14.19.58-1.29,1.41-3.32,3.06-7.33q3-7.33,6-14.73c2.71-6.87,5.29-13.85,7.67-20.78,1.52-4.45,3-9,4.29-13.46.65-2.25,1.31-4.51,1.88-6.77a63.76,63.76,0,0,0,1.45-6.79c.19-1.39.36-2,.64-1.95s.61.75.81,2.05c.41,2.59.06,7.38-1.49,12.64-2.71,9.34-6,18.43-9.43,27.47s-7.13,18-11,26.94c-1.92,4.51-3.87,9.07-5.86,13.73-1.13-2.72-2.28-5.45-3.42-8.18l-2.25-5.49c-1.5-3.66-3-7.34-4.42-11-4.74-12.19-9.33-24.46-13.32-37-1.21-3.85-2.37-7.72-3.33-11.66-.5-2-.9-4-1.24-6a28.92,28.92,0,0,1-.29-3.12c0-1.05.09-2.08.13-3.11a28.33,28.33,0,0,1,24.13-25.2,28.56,28.56,0,0,1,14.2,1.47l.85.3.81.38,1.64.76,1.55.9a12.59,12.59,0,0,1,1.51,1l1.46,1.06c.46.38.91.79,1.36,1.19a29.46,29.46,0,0,1,2.54,2.58c.66.83,1.32,1.65,1.93,2.52l.85,1.35a9.92,9.92,0,0,1,.78,1.39,26.85,26.85,0,0,1,1.89,4.67,21.27,21.27,0,0,1,.66,3.36,14.81,14.81,0,0,1,.05,2.25,7.81,7.81,0,0,1-.36,1.51,7.92,7.92,0,0,1-.43,1.1c-.26.36-.54-.23-.81-1.56-.07-.34-.13-.72-.21-1.14s-.22-.88-.34-1.38c-.17-1-.58-2.14-.94-3.42a26.53,26.53,0,0,0-16.32-16.52,25.86,25.86,0,0,0-23.35,3.23,25.47,25.47,0,0,0-10.13,14.78c-.09.37-.22.74-.28,1.11l-.17,1.14-.18,1.13c-.05.38-.05.77-.08,1.15a19.67,19.67,0,0,0,.17,4.53,80.12,80.12,0,0,0,2.12,9.36Z"/><circle class="cls-2" cx="358.88" cy="350.31" r="6.38"/><path class="cls-2" d="M363.82,350.7a6.28,6.28,0,0,1-1.19,3.52,4.47,4.47,0,0,1-5.61,1.09,6.23,6.23,0,0,1-3.07-5.39c0-3.19,2.92-6.37,6.28-4.85a6.3,6.3,0,0,1,3.59,5.63c0,.59,2.94.09,2.89-.78-.5-9.43-15.71-8.13-15.66.78.05,9.55,15.19,8,15.66-.78C366.74,349.42,363.86,349.79,363.82,350.7Z"/><path class="cls-2" d="M367.11,175.92c-6.9,9-23.79,21-32.84,7.88-6.52-9.44-1.47-23,4.6-31.27,6.76-9.21,23.88-20.86,32.84-7.88,6.59,9.55,1.34,22.87-4.6,31.27-.16.24,2.37.17,2.86-.52,6.16-8.74,11.84-23.62,3.51-33-6-6.68-16-5.15-23.21-1.61a40.45,40.45,0,0,0-21.3,28c-1.78,9.66,1.86,20.67,12.88,21.77,11.27,1.13,21.67-6.73,28.12-15.17C370.13,175.19,367.64,175.24,367.11,175.92Z"/><path class="cls-4" d="M293.93,249l12.15-15.82c.16-.17-2.11-1.91-2.24-1.72l-12.15,15.82A7.25,7.25,0,0,0,293.93,249Z"/><path class="cls-4" d="M321.79,208.56,337,187.46c.2-.23-2.12-1.9-2.28-1.65l-15.25,21.1C319.36,207.1,321.66,208.76,321.79,208.56Z"/><path class="cls-2" d="M178.72,251.21a88.93,88.93,0,0,1-10.7-3.82l-1.93-.78-1.86-.9c-1.09-.56-2.18-1.09-3.25-1.67l-3.14-1.87c-1.06-.59-2-1.32-3.05-2s-2-1.35-3-2.11-1.75-1.26-2.59-1.95l-2.52-2a35.25,35.25,0,0,1-5.87-5.84c-.52-.73,0-1,.88-.76a7.12,7.12,0,0,1,3.19,1.85,92.82,92.82,0,0,0,12.7,10.31c1.37.92,2.85,1.74,4.32,2.58s3.07,1.48,4.58,2.24c1.69.78,3.43,1.44,5.14,2.17s3.53,1.21,5.29,1.82a32,32,0,0,0,3.31,1l3.35.83a22.29,22.29,0,0,0,2.56.51l2.58.43,2.58.41c.86.13,1.73.15,2.59.22a59.11,59.11,0,0,0,8,.11l1.74-.08c2.18-.05,2.88.1,3.38.66a2.85,2.85,0,0,1,.33.39c.23.44-.66.81-2.29.94-1.2.11-2.43.19-3.67.26l-1.87.08c-.63,0-1.26,0-1.89-.05l-3.81-.22a32.91,32.91,0,0,1-3.83-.39l-5.68-.9-5.59-1.37Z"/><path class="cls-2" d="M210,421.77l-25,4.5c-9.94,5.84-44.53,6.4-44.53,6.4,2.21-24.31-19.35-165.88,4.71-200.28,13.33,12.9,37.82,20.56,58,20.7C186.87,303.61,200.61,378.06,210,421.77Z"/><path class="cls-2" d="M176.89,250.54a92.49,92.49,0,0,1-18.2-7.18l-2.17-1.16-2.11-1.27c-1.42-.81-2.75-1.8-4.11-2.71-.68-.47-1.31-1-2-1.51a23.76,23.76,0,0,1-1.91-1.57l-.93-.84,0,0,0,.06-.09.14-.09.13,0,.07a.8.8,0,0,0-.08.13c-3.15,5.37-5,11.56-6.33,17.76a163,163,0,0,0-2.76,19c-.85,9.32-1.11,18.71-1.19,28.08-.2,33.09,2.48,66.15,4.95,99.19.53,7.33,1.09,14.69,1.44,22.06.08,1.84.15,3.69.18,5.53,0,.93,0,1.85,0,2.78,0,.46,0,.93,0,1.39l0,.62,0,.33,0,.32s.2,0,.3,0l.86,0,2.73-.11c1.83-.07,3.65-.16,5.46-.28,4.67-.28,9.33-.67,14-1.22a105,105,0,0,0,13.74-2.43l1.66-.45,1.62-.56.81-.29c.26-.1.5-.23.75-.35l.75-.36.38-.18a1.71,1.71,0,0,1,.68-.25l6.94-1.24,13.86-2.38c5.76-1,5.09-.29.32,1.12-2.39.7-5.8,1.58-9.94,2.53-2.07.47-4.33,1-6.73,1.46l-3.7.73-.32.07h0l.09,0-.24.12-1,.48c-.33.15-.65.32-1,.46l-1,.36a74.56,74.56,0,0,1-14.31,3.1c-4.79.64-9.59,1.08-14.39,1.4-2.4.16-4.8.28-7.2.39l-3.61.13-2.87.07-.89,0H139s0-.07,0-.1v-.22l0-.44.11-1.77.06-1.17c0-.29,0-.58,0-.88l0-1.76c0-1.18,0-2.37-.06-3.56-.07-2.37-.18-4.76-.3-7.14-.53-9.55-1.28-19.12-2-28.71s-1.38-19.19-2-28.83c-1.37-23.05-2.72-47.1-2-70.77.22-6.51.58-13,1.24-19.5A151.4,151.4,0,0,1,137.25,250a78.63,78.63,0,0,1,2.85-9.43,45.67,45.67,0,0,1,2-4.54c.35-.75.8-1.45,1.19-2.18.07-.15.29-.47.44-.71l.5-.77.51-.77.25-.38s0-.09.06-.08l.09.08.18.16,2.44,2.2c.57.55,1.22,1,1.85,1.52s1.24,1,1.9,1.46l2,1.35c1.32.92,2.73,1.69,4.09,2.53s2.81,1.56,4.28,2.22a98.23,98.23,0,0,0,22.47,7.6A104,104,0,0,0,196.09,252l3,.22c.49.05,1,0,1.48.06l1.83.06,1.11,0,.56,0h.14s0,.09,0,.12l-.08.27-.64,2.14-.89,2.92a175.08,175.08,0,0,0-5.74,35.66c-.38,6-.54,12.06-.53,18.08s.25,12,.6,18a488.42,488.42,0,0,0,6.81,54.91c.71,4,1.44,7.9,2.21,11.92,2.87,14.91,3.82,19.64,3.92,23,0,.75.11,1.74.07,2.19-.11,1.51-1.82-4.46-4.13-15.35-3.42-16.17-6.4-32.9-8.51-50a365.81,365.81,0,0,1-3-52.18,200.21,200.21,0,0,1,4.3-39l.54-2.41.61-2.39c.41-1.59.82-3.18,1.32-4.75l.31-1v0s0,0-.05,0c-1.65,0-3.3-.15-4.95-.28a103.14,103.14,0,0,1-19.42-3.57Z"/><path class="cls-2" d="M170.24,284.84a32,32,0,0,1,.5,9c-.39,10.2.41,20.5,1.28,30.75.8,8.82,1.67,17.65,2.78,26.46,1.91,15.14,4.21,30.24,6.69,45.3.73,4.45,1.46,8.91,2.25,13.35.76,4.25,1.57,8.49,2.38,12.73.14.71.33,1.46.4,2.14a4.81,4.81,0,0,1,0,1.22l-.17,1-.3.07c-.79.2-.92-.13-.49-.76l.1-.14,0,0a1.59,1.59,0,0,1-.17-.27,3.18,3.18,0,0,1-.46-.92c-.64-3.29-1.9-5.77-2.5-9.27-1.1-6.44-2.41-12.86-3.55-19.31-.47-2.58-.87-5.17-1.26-7.76l-1.36-9.95c-.62-4.53-3.9-25.8-6-46.36-1.07-10.27-1.75-20.37-1.89-28,0-1.92,0-3.69,0-5.27s.09-3,.13-4.14c.18-2.34.26-3.78.32-4,.12-.82.28-1.64.46-2.57S169.9,286.11,170.24,284.84Z"/><path class="cls-2" d="M218.62,139.73c1.94,6.24,7.81,10.76,13.94,12.53,2.73.79,11.06,1.43,10.75-3.25-.09-1.43-5.92-.34-5.79,1.55-.08.89.53.74,1.85-.42a8.58,8.58,0,0,1-.87-.1,13.83,13.83,0,0,0-1.87-.48,20.57,20.57,0,0,1-5-2.37,16.79,16.79,0,0,1-7.25-9c-.51-1.64-6.29,0-5.8,1.56Z"/><path class="cls-2" d="M221.23,263.27c1.07-1.07,1.36-1.31,1.8-1.34a14.47,14.47,0,0,0,4.52-1.69c1.34-.67,2.76-1.28,4.18-1.95a25,25,0,0,1,7.9-2.54,15.75,15.75,0,0,1,2.57,0,13.87,13.87,0,0,1,2.47.35,1.11,1.11,0,0,1,.4.13c.29.26.13.87-.25,1.23-.09.09-.2.23-.25.22-.57-.17-1.19.52-1.71.39a7.53,7.53,0,0,0-3.06.17c-.41.08-.82.14-1.23.19s-1.08.1-1.61.22a16.62,16.62,0,0,0-2.71,1c-1.32.56-2.92,1.37-4.53,2.19a25.36,25.36,0,0,1-4.67,1.95,6.57,6.57,0,0,1-2.71.21A3,3,0,0,1,221.23,263.27Z"/><path class="cls-2" d="M363.83,172.66C359,179,348,187.84,340.18,180.71c-7-6.44-2.76-18.49,2-24.92,4.58-6.22,15.08-14.54,22.94-8.71,8.21,6.09,3.37,18.95-1.26,25.58-1.05,1.51,1.67,1.94,2.43.85,5.44-7.79,10.78-23.69-.77-29.17-9.43-4.48-20.37,3.29-25.76,10.6-5.56,7.52-10.4,22.57-.18,28.69,9.53,5.69,21.07-2.82,26.71-10.12C367.38,172.06,364.64,171.61,363.83,172.66Z"/><path class="cls-2" d="M275.05,125.15a25.09,25.09,0,0,1,2.38-4.13,11.55,11.55,0,0,1,1.12-1.41,8.18,8.18,0,0,1,1.26-1.07,5.39,5.39,0,0,1,1.57-.71,5.69,5.69,0,0,1,3.32,0,7,7,0,0,1,2.54,1.42,6.78,6.78,0,0,1,2.09,2.85c.21.69-1.78.67-2.4-.19-1.19-1.63-2.59-2.7-4.49-2.48a2.83,2.83,0,0,0-.85.19,3.51,3.51,0,0,0-.74.39,7.82,7.82,0,0,0-1.33,1.31,18.45,18.45,0,0,0-2.36,3.71c-.41.82-.79,1.67-1.12,2.53a30.32,30.32,0,0,0-1.29,4,18.25,18.25,0,0,0-.37,3.17c0,.24,0,.46,0,.68,0,.84-.09.92-.53,1.21a1.23,1.23,0,0,0-.26.25c-.12.16-.33.2-.57,0a1.64,1.64,0,0,1-.41-.91,16.37,16.37,0,0,1,.77-6.31,36.7,36.7,0,0,1,1.63-4.46Z"/><path class="cls-2" d="M263.65,138a3.87,3.87,0,0,0-.37,3.28,4.47,4.47,0,0,0,3.37,2.59c.73.19,2.56-.9,1.32-1.22-2-.51-3.5-2.57-2.29-4.57.54-.89-1.64-.72-2-.08Z"/><path class="cls-2" d="M279.62,115.46c-.15-1.36-1.6-2.7-2.61-3.47-2.58-2-5.9-2.41-9.05-2.34-1.26,0-1.65,1.69-.17,1.66,2.75-.06,5.66.37,7.84,2.19a4.79,4.79,0,0,1,1.82,2.54c.11,1,2.29.5,2.17-.58Z"/><path class="cls-2" d="M345.46,435.35c.5-1.67,1.09-2,1.67-2.06,1.94-.18,3.88-.3,5.82-.33,1.67,0,3.35.12,5,.13,2.87,0,5.74,0,8.62,0,.85,0,1.69,0,2.54,0s1.63-.09,2.44-.14c.14,0,.28-.07.41,0,.35.19.43.94.17,1.5,0,.13-.12.34-.18.34-.63,0-1.14,1-1.8,1a30.61,30.61,0,0,0-3.69.31,10.44,10.44,0,0,1-1.48,0c-.63-.05-1.26-.18-1.88-.22-1.72-.14-16.18,0-16.56,0A5.62,5.62,0,0,1,345.46,435.35Z"/><path class="cls-2" d="M180,223.07l-2.55-1.79c-.84-.61-1.64-1.27-2.47-1.9-.6-.45-1.19-.93-1.76-1.42a57.63,57.63,0,0,1-5.56-5.71l-2.33-2.65a15.64,15.64,0,0,1-2.64-3.68c-.2-.46.32-.66,1-.62a2.68,2.68,0,0,1,2,1c1.75,2.34,3.62,4.61,5.55,6.89a32.35,32.35,0,0,0,4,3.71,55.38,55.38,0,0,0,4.81,3.66c1,.73,2.09,1.35,3.16,2,.8.5,1.65.92,2.49,1.34a23.57,23.57,0,0,0,2.56,1.18c.69.26,1.37.48,2.06.7a20.53,20.53,0,0,0,2.08.56c.3.07.61.13.91.21,1.14.32,1.45.57,1.55,1.2a2.09,2.09,0,0,1,.05.42c0,.46-.57.67-1.46.52a28.74,28.74,0,0,1-7.89-2.51c-.94-.47-1.91-.89-2.82-1.42L180,223.12Z"/><path class="cls-2" d="M183.27,230.79c-1.18-.65-2.41-1.2-3.55-1.92s-2.31-1.37-3.42-2.12c-.8-.56-1.64-1.07-2.44-1.63a75.82,75.82,0,0,1-7.79-6.73c-.55-.52-1.08-1.07-1.62-1.6s-1.1-1.06-1.62-1.6a24.46,24.46,0,0,1-3.78-4.45c-.32-.55.2-.78.92-.71a3.83,3.83,0,0,1,2.4,1.27c2.51,2.87,5.18,5.62,8,8.33.41.41.85.81,1.29,1.2s.94.73,1.41,1.09l1.44,1.07,1.47,1,1.62,1.12c.53.37,1.11.68,1.66,1a38.42,38.42,0,0,0,3.41,1.95l2.15,1.11c.72.36,1.48.63,2.22.95A46.3,46.3,0,0,0,194,232.5c.93.18,1.85.32,2.77.46l1.38.2c.45.07.92.05,1.38.09s.81,0,1.22.06c1.52.12,2,.32,2.28.92a3.07,3.07,0,0,1,.2.41c.13.46-.53.75-1.7.76a25.7,25.7,0,0,1-5.29-.37l-2.68-.49c-.9-.18-1.76-.49-2.64-.74l-2-.6c-.66-.19-1.27-.49-1.91-.74-1.25-.54-2.55-1-3.75-1.62Z"/><path class="cls-2" d="M303.58,218.1a44.66,44.66,0,0,1-11.06,3.52l-2.08.39-2.07.3a109.32,109.32,0,0,1-14.68.41c-2.16-.05-4.33-.07-6.47-.07-2.74,0-5.49.1-8.22-.1-1.71-.11.43-2.23,3.63-2.22,5.64,0,11.21.32,16.81.44a62.59,62.59,0,0,0,10.19-.76,46.19,46.19,0,0,0,10.8-2.82,35.22,35.22,0,0,0,6.1-3.15,34.81,34.81,0,0,0,7.74-6.94,32.81,32.81,0,0,0,2.36-3.33l.56-.9c.07-.13.25-.36.39-.57a3.74,3.74,0,0,1,.51-.54,1.86,1.86,0,0,1,1.22-.53,1.59,1.59,0,0,1,1.18.62,3.81,3.81,0,0,1,.61,1.15,7,7,0,0,1,.18.69,5.46,5.46,0,0,1,.1.58,6.07,6.07,0,0,1-.14,2.6,1.46,1.46,0,0,1-.87,1,.86.86,0,0,1-.51.06.43.43,0,0,1-.21-.23,1,1,0,0,1-.11-.36c0-.32-.05-.87-.1-1.6,0-.27,0-.54-.07-.81a6.28,6.28,0,0,0-.14-.69c-.06-.12-.12-.2-.2-.22s-.16.1-.18.16v0l-.21.35-.47.72-.47.73c-.16.24-.38.52-.57.78-.39.52-.77,1.06-1.19,1.56l-1.29,1.51-1.38,1.44a36.58,36.58,0,0,1-9.65,6.83Z"/><path class="cls-2" d="M324.69,220.37a4.22,4.22,0,0,1,.15-1.64,6.62,6.62,0,0,1,.55-1.21,6.85,6.85,0,0,0,.39-.79s0-.06,0-.11l0-.26c0-.17,0-.33,0-.47a.85.85,0,0,0,0-.23.8.8,0,0,0,0-.16,4,4,0,0,1-.28-.92.69.69,0,0,1,0-.15.24.24,0,0,0,0-.12s-.15-.22-.22-.34a4.64,4.64,0,0,1-.65-1.2,2.23,2.23,0,0,1,0-.73c.08-.24.17-.52.21-.61a5.41,5.41,0,0,0,.21-.75,1.24,1.24,0,0,0-.11-1.07,2.2,2.2,0,0,0-.36-.29,3.5,3.5,0,0,0-.47-.25,4.12,4.12,0,0,0-1-.29,29,29,0,0,0-2.92.06c-.32,0-.42-.55-.24-1.13a1.72,1.72,0,0,1,1.41-1.27,6.9,6.9,0,0,1,4,.79,5.77,5.77,0,0,1,.88.61,2.85,2.85,0,0,1,.87,1.27,3.72,3.72,0,0,1-.1,2.35c-.08.23-.19.54-.25.68s-.09.14-.06.21a1.48,1.48,0,0,0,.25.39l.32.42a1.68,1.68,0,0,1,.32.69c.05.25.06.3.09.42l.09.31a3.55,3.55,0,0,1,.2.72,3.24,3.24,0,0,1,0,.75c0,.22,0,.42-.07.62a3.2,3.2,0,0,1-.15.72c-.34.91-.78,1.48-.91,2a2.13,2.13,0,0,0,0,1,4.78,4.78,0,0,1,.1,1.62,3.17,3.17,0,0,1-.53,1.24c-.14.17-.29.34-.44.5s-.34.26-.51.39a5.53,5.53,0,0,1-2.26.72c-1.15.16-2.24.23-3.29.3l-.67.07c-.83,0-1-.05-1.29-.59a2.64,2.64,0,0,1-.2-.37c-.19-.4.16-.87.88-1a17.86,17.86,0,0,1,3-.33,8.28,8.28,0,0,0,2.38-.38,1.37,1.37,0,0,0,.8-.72.57.57,0,0,0,.05-.37c0-.23-.12-.61-.19-1.1Z"/></g></svg>