<svg id="Layer_1" data-name="Layer 1" xmlns="http://www.w3.org/2000/svg" width="520" height="520" viewBox="0 0 520 520"><defs><style>.cls-1,.cls-4{fill:#221f1f;}.cls-2{fill:none;stroke:#000;stroke-width:1.47px;}.cls-2,.cls-4{stroke-linecap:round;stroke-linejoin:round;}.cls-3{fill:#232020;}.cls-4{stroke:#221f1f;stroke-width:1.5px;}</style></defs><title>Notioly v2</title><g id="_73.Archive" data-name="73.Archive"><path class="cls-1" d="M414,219.72c-1.66-3.92-3.29-7.86-4.86-11.83-.79-2-1.57-4-2.31-6s-1.41-4.06-2.08-6.08c-1-2.94-2-5.86-3-8.78-.88-2.57-1.77-5.14-2.75-7.66-.48-1.26-1-2.51-1.53-3.72a19.23,19.23,0,0,0-1.78-3.33c-1-1.62-3.85-1.25-5.83,0-.25.16-.48.32-.71.5s-.47.4-.7.63a17.84,17.84,0,0,0-1.32,1.41c-.86,1-1.69,2.09-2.62,3.16a16.62,16.62,0,0,1-2.81,2.67,14.41,14.41,0,0,1-3.5,1.77,62.61,62.61,0,0,1-7.1,2.05l-2.3.5-1.11.24a6.88,6.88,0,0,0-1,.29,8.76,8.76,0,0,0-3.44,2.11,9.86,9.86,0,0,0-2.51,7.58c.18,1.73-.58,1.8-1.57.22a7.5,7.5,0,0,1-.92-3.68,8.91,8.91,0,0,1,1.8-5.37,11.48,11.48,0,0,1,4.52-3.46,9.07,9.07,0,0,1,1.32-.48,9.22,9.22,0,0,1,1.33-.33l2.31-.46a53,53,0,0,0,8.73-2.44c2.45-.9,4.15-3.21,6.26-5.75a24.7,24.7,0,0,1,1.72-1.87,12.05,12.05,0,0,1,1-.89,9.64,9.64,0,0,1,1.18-.83,9.51,9.51,0,0,1,5.51-1.38,5.33,5.33,0,0,1,3.48,1.61l.61.73c.16.24.29.46.43.69a14.37,14.37,0,0,1,.75,1.37c.93,1.81,1.68,3.64,2.41,5.47,1.47,3.67,2.8,7.38,4.05,11.08,1.39,4.05,2.68,8.17,4.13,12.12s3.12,7.95,4.76,11.89q3,7.29,6.25,14.5c3.26,7.28,6.61,14.56,10.23,21.59,2.82,5.46,5.82,10.69,9.08,15.77.72,1.11,1.46,2.18,2.22,3.27,2.82,4.05,3.76,5.05,4,6.33a7.1,7.1,0,0,1,.24.86c0,.4-.43.41-1.38-.06a13,13,0,0,1-3.28-2.95,99.65,99.65,0,0,1-9.3-14.16c-2.8-5-5.42-10.14-7.95-15.34-3.75-7.73-7.27-15.6-10.69-23.5Z"/><path class="cls-1" d="M406.05,107.63c-6.11-3.51-13.76-2.92-20.33-5.45-5.79-2.23-26.12-28.42-48.83-13-9.67,6.55-15.66,19.9-9.42,29.77,8.57,13.54,33.87,12.38,47,6.59,0,0-6.87,10.62-3.38,19.37,0,0,4.35-.21,4.33-1.34-.12-6.58,5.07-13.74,5.07-13.74s7.45.5,6.51,7.38a8.55,8.55,0,0,1-3.64,5.78c1.55,6.18,1,15.74,1.31,15.67,10.64-2.41,21.5-12.36,27.05-21.63C417.42,127.46,415.69,113.15,406.05,107.63Z"/><path class="cls-1" d="M376,145.23a4.75,4.75,0,0,1-1.27.59,8.38,8.38,0,0,1-.87.21c-.28.06-.56.1-.83.14l-.44.06-.71.07-1.4.09h-.35c-.07-.05-.08-.19-.12-.28l-.21-.61-.41-1.23-.21-.61a3.45,3.45,0,0,1-.09-.44,17.65,17.65,0,0,1-.21-6.51,28.21,28.21,0,0,1,1.6-6.13c.17-.49.38-1,.59-1.46l.15-.36,0-.09.08-.16c.08-.15.16-.3.26-.45s-.25.08-.38.11l-1.42.43a56.44,56.44,0,0,1-5.55,1.29,62.35,62.35,0,0,1-11.33,1,42,42,0,0,1-17-3.34,24.41,24.41,0,0,1-6.5-4.37,18.29,18.29,0,0,1-5.56-14.36,23.24,23.24,0,0,1,1.86-7.56,29.47,29.47,0,0,1,3.92-6.63,30.45,30.45,0,0,1,5.52-5.36,28.32,28.32,0,0,1,14.12-5.67,29.39,29.39,0,0,1,13.36,2.13,53.89,53.89,0,0,1,11.63,6.61c2.3,1.68,4.51,3.46,6.69,5.24,1.09.89,2.17,1.78,3.27,2.59a11.44,11.44,0,0,0,1.62,1,6.56,6.56,0,0,0,.9.34c.32.12.64.23,1,.32,5.19,1.59,11,1.62,16.46,4,.41.19.76.36,1.05.52s.51.33.68.46c.33.27.44.44.35.53s-1.06,0-2.52-.28-3.47-.6-6-.85a72,72,0,0,1-8.76-1.25c-.73-.18-1.46-.37-2.18-.59-.37-.1-.73-.24-1.09-.37l-.54-.19c-.19-.07-.43-.19-.64-.29a14.26,14.26,0,0,1-2.05-1.32c-.61-.45-1.18-.91-1.75-1.37-2.25-1.84-4.41-3.67-6.65-5.39-4.48-3.41-9.25-6.46-14.47-8.15a24.13,24.13,0,0,0-16,0,28.11,28.11,0,0,0-13,9.77,27.58,27.58,0,0,0-2.57,4.28,23.71,23.71,0,0,0-1.59,4.73,19.14,19.14,0,0,0-.43,5l.15,1.23.07.62c0,.2.09.4.14.6l.3,1.21c.12.39.29.77.43,1.16a16.75,16.75,0,0,0,6.25,7.62,28.26,28.26,0,0,0,9.38,4,50.58,50.58,0,0,0,15.92.92,56,56,0,0,0,7.93-1.28c.65-.14,1.29-.32,1.94-.49l1-.28c.34-.1.56-.15,1.17-.37,2-.61,4.38-1.76,6.15-2.38l-1.7,2.77a28.11,28.11,0,0,0-1.4,2.57l-.29.61-.14.29-.08.2-.33.78q-.31.79-.6,1.59a23.48,23.48,0,0,0-1.29,6.59,16.74,16.74,0,0,0,.11,2.65l.24,1.29,0,.16,0,.1.06.19.12.37.06.19s0,.07,0,.09h.08l.33,0c.12,0,.68-.08,1.09-.16a5.73,5.73,0,0,0,1-.26.74.74,0,0,0,.27-.19c.08-.08.05-.21.06-.32l0-.79.12-.94c.08-.63.22-1.25.36-1.86a26.86,26.86,0,0,1,1.18-3.55,34,34,0,0,1,1.61-3.33c.29-.55.6-1.08.93-1.6l.53-.85.76-1.09a8.51,8.51,0,0,1,1.11.11l.55.11c.17,0,.28.07.42.1a11.12,11.12,0,0,1,1.56.55,7.07,7.07,0,0,1,3.22,2.72,6.76,6.76,0,0,1,.86,4.11,8.33,8.33,0,0,1-1.23,3.93,9.93,9.93,0,0,1-1.25,1.63,9.61,9.61,0,0,1-.73.7l-.41.32.11.47.16.84c.1.6.19,1.2.27,1.79.15,1.2.25,2.4.33,3.59s.13,2.39.16,3.57l0,3.32v.76a.53.53,0,0,0,0,.12s.08,0,.12,0l1-.26a32.94,32.94,0,0,0,3.17-1.21,38.8,38.8,0,0,0,6-3.37,53.25,53.25,0,0,0,11.89-11.26l1.22-1.63,1.14-1.69,1.07-1.72.91-1.76a22.88,22.88,0,0,0,2-7.67,24.37,24.37,0,0,0-.46-6.92,22,22,0,0,0-.8-2.86c-.35-.83-.62-1.62-1-2.27a22,22,0,0,0-2-3.13c-.31-.39-.58-.74-.82-1.07s-.51-.57-.72-.83c-.42-.52-.74-1-1.07-1.34a12.74,12.74,0,0,1-.83-1.08c-.24-.46.46-.27,2,.55a16.09,16.09,0,0,1,5.36,5.87,24.48,24.48,0,0,1,2.4,15.41,24.86,24.86,0,0,1-2.61,7.65,46,46,0,0,1-4.48,6.59,55.75,55.75,0,0,1-11.66,10.91,41.14,41.14,0,0,1-7.12,4,20.26,20.26,0,0,1-1.93.74l-1,.35c-.52.08-1.08.1-1.62.16l-1.62.14-.21,0h-.05c.08-.12,0,0,0-.06h0l-.09,0a.63.63,0,0,1-.23-.2,1.72,1.72,0,0,1-.33-.62,8.66,8.66,0,0,1-.14-1.88l0-1.3c0-2.14-.09-4.27-.24-6.37-.08-1.06-.18-2.1-.32-3.14-.07-.51-.16-1-.25-1.53l-.07-.38-.12-.57-.38-1.59.91-.69c.28-.21.68-.54.72-.59a8.47,8.47,0,0,0,.67-.67,6.81,6.81,0,0,0,1-1.52,5.75,5.75,0,0,0,.54-1.72,7.2,7.2,0,0,0,0-1.79,3.79,3.79,0,0,0-1.61-2.7,7,7,0,0,0-1.62-.82,8.22,8.22,0,0,0-.89-.25h0l0,0-.38.6q-.45.73-.87,1.5a33.71,33.71,0,0,0-1.49,3.09,24.11,24.11,0,0,0-1.06,3.21,15.4,15.4,0,0,0-.31,1.62l-.1.8,0,1.11c0,.18-.05.35-.08.52l0,.13v0s0,0,0,0v0l0,.06-.08.24a2.39,2.39,0,0,1-.68.77Z"/><path class="cls-1" d="M367.42,203.23q-5.19,3.22-10.3,6.6l-3.67,2.54c-4.37,2.9-8.74,5.81-13,8.83-1.9,1.34-3.77,2.75-5.58,4.18a87.76,87.76,0,0,1-7.09,5.4c-1.57,1-1.51-2.7,1.22-4.83a181.48,181.48,0,0,1,15-10.55c3.12-2,6.15-4.27,9.27-6.37,3.42-2.31,6.88-4.56,10.36-6.79l6.46-4c3.28-2,6.62-4,9.93-5.91,2.58-1.49,5.06-3.06,7.73-4.41.6-.29,1.16-.62,1.79-.87,2.3-1,3.25-.92,3.92-.29a2.65,2.65,0,0,1,.44.45c.17.27,0,.59-.31.9a3.49,3.49,0,0,1-.68.46,7.49,7.49,0,0,1-1,.53c-2.26,1.06-4.56,2.35-6.89,3.66s-4.69,2.71-7,4.11c-3.5,2.1-7,4.24-10.46,6.46Z"/><path class="cls-1" d="M446.06,279.73a4.09,4.09,0,0,0,.12-.8c0-.06,0-.11,0-.16h0s0,0,0-.07-.06-.1-.1-.13l-.18-.06c-.16,0-.31-.07-.48-.09a17.72,17.72,0,0,0-4.38-.08c-1.1.1-2.19.36-3.28.57A40.06,40.06,0,0,0,426.57,283a34.87,34.87,0,0,0-4.45,3c-1.8,1.41-3.41,3-5.28,4.37-.59.41-1-.19-1.1-1.15a4,4,0,0,1,1.37-3.19,40,40,0,0,1,12.65-7.58,54.44,54.44,0,0,1,8.7-2.64,27.4,27.4,0,0,1,5.05-.42,15.61,15.61,0,0,1,2.61.23c.24.05.4.08.72.17a5.25,5.25,0,0,1,.89.33,1.74,1.74,0,0,1,.7.56,3.86,3.86,0,0,1,.39.82,4.08,4.08,0,0,1,.23,1.1,6.81,6.81,0,0,1,0,.91,4.82,4.82,0,0,1-.14.86,4.19,4.19,0,0,1-.22.81l-.27.79-.35.73a15.56,15.56,0,0,1-.78,1.39,30.12,30.12,0,0,1-6.39,6.73c-1.84,1.49-3.64,3-5.6,4.26-.43.28-.83.59-1.28.86-1.67,1-2.31,1.06-3,.56a4.57,4.57,0,0,1-.48-.35c-.43-.46,0-1.27,1.13-2.06a89.85,89.85,0,0,0,9.7-7.49,24,24,0,0,0,2.94-3.31,9.82,9.82,0,0,0,1.73-3.58Z"/><path class="cls-2" d="M430.53,296.28l-.19.09"/><path class="cls-1" d="M368.82,461.89l.05,0,.35.06.72.12,1.46.19c1,.12,2,.21,3,.29,2,.16,4,.26,6.05.34,1.48,0,3,0,4.44.06,5.23.15,10.45.21,15.72.28h.84a4,4,0,0,0,.78-.05,3.63,3.63,0,0,0,1.34-.39,2,2,0,0,0,1-2,10.4,10.4,0,0,0-1.22-3.8c-.62-1.27-1.33-2.52-2-3.78-.43-.77.18-1.1,1.19-.83a5.57,5.57,0,0,1,3.23,2.84,14.1,14.1,0,0,1,1.6,4.93,5.47,5.47,0,0,1-.57,3.23,4.75,4.75,0,0,1-2.75,2.2,8.59,8.59,0,0,1-2.8.36l-2.28-.07-4.57-.17c-3.65-.17-7.46,0-11.21-.11-4.13-.11-8.25-.26-12.4-.73-.51-.06-1-.12-1.52-.2l-.77-.13-1.08-.23a6.23,6.23,0,0,1-1.9-.75,2.69,2.69,0,0,1-.63-.58,1.18,1.18,0,0,1-.24-.85,2.79,2.79,0,0,1,1-1.61c.26-.19.52-.38.8-.56l.93-.47.48-.2.36-.15.7-.25c.94-.31,1.87-.59,2.81-.85,1.86-.51,3.73-1,5.57-1.44,2.85-.75,5.63-1.61,8.31-2.59.58-.22,1.14-.46,1.71-.7,1-.44,1.68-.74,2.08-.88a2.17,2.17,0,0,1,.56-.12h.54a2.37,2.37,0,0,0,.55-.12.29.29,0,0,1,.36.14,1,1,0,0,1,0,.77,3.71,3.71,0,0,1-1.69,1.86,34.39,34.39,0,0,1-7.75,3.05c-2.63.77-5.32,1.42-7.95,2.12-1.42.39-2.84.78-4.17,1.24-.32.12-.69.25-.95.36h0a.08.08,0,0,0-.08,0c0,.05,0,.06.08.09Z"/><path class="cls-1" d="M110.49,177.41q16.8-43.74,33.62-87.48Q150.2,74,156.29,58l.81-2.11a4.85,4.85,0,0,1,.71-1.32l.19-.29c.1-.06.24,0,.36-.05l.72,0a12.47,12.47,0,0,1,1.55.25l1.11.32,1.82.58c2.42.79,4.79,1.63,7.16,2.49,4.73,1.7,9.44,3.46,14.14,5.23Q199,68.4,213,73.86q28.09,10.89,56.1,22l49.73,19.51,4,1.57,1.54.6.77.31.38.15c.06.08-.07.24-.09.36l-1.09,2.9-3,8-6,16c-4,10.64-8.1,21.27-12.29,31.82-5.21,13.16-1.48-4.63,7.81-29.1L317,131.64l3.1-8.13,1.43-3.75h0l-.66-.26-32.37-12.82-65-25.75c-13-5.13-26.32-10.27-39.75-15.28-6.72-2.5-13.47-5-20.25-7.28-.84-.28-1.69-.55-2.53-.81l-.91-.26a1,1,0,0,0-.42-.06l-1.52,4c-1.28,3.36-2.56,6.7-3.84,10L120.5,159.39q-7.19,18.72-14.36,37.43l14.93,5.72,82.11,31.37c21.17,8,42,15.73,62.92,23.57l3.35,1.24,1.32-3.41q.9-2.3,1.8-4.62c6.76-17.14,9.1-22.51,11.29-25.89.5-.77,1.1-1.81,1.46-2.23,1.22-1.42-1.09,5.74-5.9,18.33l-8.31,21.58-49.18-18.41-48.74-18.48-70.85-27.07q4-10.54,8.06-21.1Z"/><path class="cls-1" d="M374.05,259.73q.36,4.11.73,8.22c.1,1,.28,2,.36,3,.3,3.53.56,7.06.87,10.58.15,1.57.37,3.13.61,4.67a30.72,30.72,0,0,1,.71,6c0,1.26-3.05,0-3.36-2.24a113.26,113.26,0,0,1-1.06-12.25c-.06-2.48-.51-5-.76-7.51-.28-2.76-.53-5.52-.8-8.28-.16-1.7-.32-3.4-.5-5.1-.28-2.56-.51-5.15-.87-7.69-.28-2-.73-3.88-1.1-5.82-.08-.43-.19-.84-.26-1.27-.25-1.61-.12-2.14.61-2.59a3.7,3.7,0,0,1,.51-.29c.58-.23,1.16.36,1.48,1.52a75.82,75.82,0,0,1,2,10.8c.35,2.75.62,5.52.93,8.28Z"/><path class="cls-1" d="M275.53,187.71l.67.71.34.37,0,.05,0,0v0h0c-.05,0,.86.72-.16,1.89-.84.51-1,.21-1,.29h0l-.31-.08-.05,0-.1,0-.25-.11L273,190l-3.4-1.65c-1.14-.55-2.28-1.08-3.43-1.59l-1.76-.78a1.59,1.59,0,0,0-.65-.16c-.14.05,0,.2.07.27l.21.22a4.33,4.33,0,0,0,.43.43l.15.14.46.37c.31.25.63.5.95.73,1.27,1,2.6,1.87,4,2.77a76.13,76.13,0,0,1,8,5.8c2.22,2,4.23,4.07,6.24,6.15a96.68,96.68,0,0,1,7.36,8.31c1.38,1.85-2.06.94-4.87-2.2-2.5-2.8-5-5.57-7.6-8.23-.65-.66-1.31-1.31-2-1.94s-1.34-1.19-2.07-1.77c-1.43-1.15-2.95-2.23-4.5-3.31-1.85-1.3-3.83-2.55-5.75-3.95-.48-.35-.95-.72-1.42-1.08-.63-.54-1.49-1.19-2.1-1.81l-1-.94-.55-.8c-.09-.14-.2-.28-.27-.4a2.69,2.69,0,0,1-.13-.32,1.67,1.67,0,0,1-.11-.63.67.67,0,0,1,.16-.44.88.88,0,0,1,.35-.23,2.3,2.3,0,0,1,.72-.15,5.65,5.65,0,0,1,2.21.35c.91.28,1.92.68,2.84,1.07l1.85.8c2.35,1.06,4.65,2.18,6.95,3.3l1.06.51.25.12.12,0,.05,0h0c0,.06-.06.2-.08.24a.91.91,0,0,0-.07.14,1,1,0,0,0-.07.29c0,.07,0,0,0,.1l-.56.51h0l0,0,0-.05-.1-.11-.19-.2-1.63-1.69c-1.1-1.12-2.21-2.24-3.29-3.39a56.38,56.38,0,0,1-4.7-5.49q-.54-.74-1-1.53l-.25-.42-.29-.57a5.81,5.81,0,0,1-.43-1.13,3,3,0,0,1,0-2,.58.58,0,0,1,.33-.37,1.18,1.18,0,0,1,.45-.07,3,3,0,0,1,.93.21,15.06,15.06,0,0,1,2.89,1.83c.74.55,1.46,1.12,2.17,1.7,1.43,1.15,2.81,2.32,4.18,3.53.6.54,1.2,1.05,1.79,1.6,2.19,2.06,2.76,2.87,2.79,3.73a1.59,1.59,0,0,1,0,.58s-.05.05,0,0h0l-.14.08,0,0h-.09a1.4,1.4,0,0,1-.56-.21,13.8,13.8,0,0,1-2-1.5c-2.44-2.12-4.93-4.31-7.5-6.42a33.2,33.2,0,0,0-2.63-2v0h0s0,0,0,.06a37.42,37.42,0,0,0,4.55,5.74c1.71,1.86,3.5,3.64,5.32,5.48Z"/><path class="cls-1" d="M292.18,180.26a4.86,4.86,0,0,1-3.18,2.85,4.87,4.87,0,0,1-1,.21,2.48,2.48,0,0,1-2-.8,4,4,0,0,1-.37-.45l-.21-.27-.35-.48-.74-1-1.48-2c-2-2.61-4-5.2-6.05-7.74-.75-.93-1.52-1.84-2.3-2.73L273,166.22a7.55,7.55,0,0,0-.63-.67c-.11-.09-.26-.27-.42-.23s0,.26,0,.39a6.35,6.35,0,0,0,.3.86l.22.48s.19.32.32.52l.42.66c2.29,3.51,4.81,6.88,7.08,10.57q.18.31.36.66c.06.12.12.25.18.4a1.86,1.86,0,0,1,.09.3l0,.12a1.09,1.09,0,0,1,0,.18,1.34,1.34,0,0,1-.07.32,1,1,0,0,1-.34.44l.06-.05a1.14,1.14,0,0,1-.49.21.9.9,0,0,1-.29,0,1,1,0,0,1-.35-.09,2,2,0,0,1-.41-.19c-.22-.13-.41-.25-.59-.38-.36-.26-.69-.52-1-.78-.66-.53-1.3-1.06-1.93-1.6l-3.73-3.19c-.91-.77-1.83-1.53-2.76-2.24a16.91,16.91,0,0,0-2.79-1.86,1.53,1.53,0,0,0-.74-.16.41.41,0,0,0-.31.14.5.5,0,0,0-.07.34,2.62,2.62,0,0,0,.29.89,10.62,10.62,0,0,0,.83,1.41c.38.55.46.84.29,1s-.66.15-1.3-.19a4.24,4.24,0,0,1-1.05-.74,4.45,4.45,0,0,1-1.16-1.49,3,3,0,0,1-.2-2.88,2.76,2.76,0,0,1,3-1.18,5.34,5.34,0,0,1,1.85.6c.42.22.77.45,1.1.66.7.46,1.31.94,1.92,1.42,1.2,1,2.33,2,3.46,2.94l3.34,3c.56.48,1.11,1,1.66,1.41l.81.62a2.43,2.43,0,0,0,.33.21l0,0s0,0,0,0,0,0,0,.06a2.26,2.26,0,0,0-.15.39c-.05.12-.08.29-.11.38a.66.66,0,0,0-.06.25c0,.22,0,.23,0,.3l0,0h0s-.22-.06-.59,0c-.13.05-.4.1-.58.17l-.16.06-.09,0h0a1,1,0,0,0-.09-.18,5.94,5.94,0,0,0-.29-.54c-.21-.38-.46-.78-.71-1.17l-1.54-2.37-3.17-4.78-1.23-1.87-.62-1-.3-.5c-.14-.22-.31-.52-.45-.79-1.14-2.2-2.08-4.62-1.89-5.71a2.57,2.57,0,0,1,.18-.83.91.91,0,0,1,.38-.41,1,1,0,0,1,.48-.09,3.6,3.6,0,0,1,1.79.66,15.57,15.57,0,0,1,2.46,2.21c.43.45.86.92,1.28,1.38l.82.94c2.18,2.54,4.26,5.13,6.3,7.75l3,3.95,1.5,2,.75,1,.25.33a.52.52,0,0,0,.22.17,2.32,2.32,0,0,0,1.76-.73,3.65,3.65,0,0,0,.8-2.29c.12-1.87-.26-3.9-.32-6a11.36,11.36,0,0,1,.15-2.45c.05-.21.08-.42.15-.63a4.91,4.91,0,0,1,1.19-2.07,2.45,2.45,0,0,1,.92-.57,1.23,1.23,0,0,1,1,.26,4.37,4.37,0,0,1,1.32,1.92l.12.28.08.21.15.43.28.86c.17.57.32,1.15.46,1.72.55,2.31,1,4.56,1.45,6.83s.95,4.67,1.31,7c.08.6.17,1.17.24,1.79s.06,1.22.08,1.82c0,1.17.1,2.34.16,3.5s.16,2,.26,3c.36,3.79.6,4.84.23,5.81a4.39,4.39,0,0,1-.22.67c-.15.28-.47.1-.91-.57a10.35,10.35,0,0,1-1.08-3.23,54.37,54.37,0,0,1-.73-6.49c-.07-1.09-.11-2.19-.14-3.28l0-.8,0-.29-.05-.39-.22-1.59c-.31-2.12-.72-4.26-1.15-6.41-.23-1.08-.45-2.16-.68-3.25s-.44-2.17-.7-3.21a28.08,28.08,0,0,0-1-3.32c0-.09,0,0,0-.06s0,0,0,0h0l0,.06a.58.58,0,0,0,0,.14l-.07.28a5.87,5.87,0,0,0-.07.62,17.34,17.34,0,0,0,.07,2.85c.09,1,.21,2.07.25,3.2a9.46,9.46,0,0,1-.48,3.71Z"/><path class="cls-1" d="M327.78,217.33,326,219.05l-5.74-12.78-2-4.19c-2.26-5-4.52-10-6.9-14.88-1.06-2.18-2.22-4.32-3.4-6.42-1.52-2.68-3.2-5.28-4.54-8-.43-.84.27-1.16,1.33-.86a6.13,6.13,0,0,1,3.39,2.82,154.14,154.14,0,0,1,8.48,17.14c1.49,3.52,3.36,7,5,10.58l2.68,5.86,1.33,2.93.66,1.47.34.81a5.16,5.16,0,0,0,.29.62c.17-.15.34-.33.53-.48l.84-.69c.87-.66,1.72-1.34,2.6-2,3.27-2.37,6.65-4.55,9.94-6.78,2.57-1.73,5-3.54,7.51-5.29.56-.38,1.08-.78,1.65-1.15,2.1-1.38,2.89-1.63,3.76-1.25a3.2,3.2,0,0,1,.59.27c.52.39-.09,1.35-1.55,2.47-4.33,3.33-9.11,6.48-13.85,9.7-1.76,1.2-3.51,2.4-5.24,3.63-.85.62-1.73,1.23-2.54,1.87-.4.32-.84.63-1.22,1l-1,.85-1.16,1.15Z"/><path class="cls-1" d="M361.29,240.47c-5.83,3.29-11.76,6.43-17.9,9.2-3.07,1.38-6.2,2.66-9.42,3.76a44.39,44.39,0,0,1-10.05,2.38,27.13,27.13,0,0,1-7.7-.43,25.08,25.08,0,0,1-7.25-2.61,30.44,30.44,0,0,1-9.83-9.07,67.36,67.36,0,0,1-6.39-11.43c-1.79-3.93-3.36-7.93-5-11.86l-.62-1.48-.42-1-.25-.57-.13-.29-.06-.15,0-.07.05-.06,2.45-3,4.07-5c3.78-4.69,7.59-9.39,11.35-14.05.4.7.78,1.41,1.19,2.1l.61,1c.2.34.44.74.55.9l1.65,2.62c5.2,8.15,10.69,16.17,15.71,24.45,3.14,5.15-3.43.31-9.53-9l-6.12-9.49-3-4.78-1.47-2.39a.11.11,0,0,0,0,0l-9.86,12-2.94,3.55-1.28,1.53s-.12.08-.08.13l0,.09,0,0,.09.23,3.47,8.6a74,74,0,0,0,8.22,15.78,30.34,30.34,0,0,0,6.1,6.29,22.55,22.55,0,0,0,7.72,3.8,23.86,23.86,0,0,0,4.69.82,20.77,20.77,0,0,0,4.73-.12,51.05,51.05,0,0,0,9.46-2.51,145.58,145.58,0,0,0,18.15-8.25c7.27-3.83,14.37-8,21.34-12.39l5.18-3.31,6.05-4,1.69,4,1,3.06c.34,1,.54,2,.82,3.08l.39,1.55.32,1.55c.91,4.14,1.46,8.31,2,12.45,1.16,9.62,1.95,19.08,2.29,28.64.08,2.11.15,4.17.18,6.3,0,7.88-.32,10.4-1.17,12.05a6.58,6.58,0,0,1-.58,1.08c-.66.71-.93-2.48-1-8.2-.16-8.48-.52-17.19-1.21-26a198.9,198.9,0,0,0-3.47-26.37c-.17-1-.45-1.88-.68-2.82s-.45-1.89-.77-2.78-.57-1.83-.91-2.72l-.14-.32-.06-.16h0v0h0l-.2.13-.74.49-3,1.95c-2,1.28-4,2.56-6,3.81q-6,3.77-12.24,7.32Z"/><path class="cls-1" d="M304.55,187.21c.4-.46.83-.9,1.24-1.34.15-.16.23-.37.39-.53.56-.53,1.16-1,1.72-1.55a3.35,3.35,0,0,0,.6-.8c.22-.37.33-.84.84-1,.32-.08,2.28,2,2,2.37a5.4,5.4,0,0,1-1.92,1.67c-.5.25-.71.75-1.05,1.13s-.77.84-1.14,1.27q-.35.39-.66.81a6.44,6.44,0,0,0-.83,1.31,3.51,3.51,0,0,0-.16,1.21,2.25,2.25,0,0,1,0,.26c-.06.31-.28.32-1,.13l-.53-.13c-.58-.16-1-.46-1.07-.79a3.68,3.68,0,0,1,.5-2.54,15,15,0,0,1,1-1.55Z"/><path class="cls-1" d="M342.53,156.28a65.62,65.62,0,0,0,3.2,9.67,21.07,21.07,0,0,0,1.79,3.07,8.69,8.69,0,0,0,4.59,3.55,10.27,10.27,0,0,0,3,.43,14.05,14.05,0,0,0,1.58-.08l.39,0,.46,0a4.07,4.07,0,0,1,1,0,7.3,7.3,0,0,1,3,1.44,18,18,0,0,1,2.3,2.11,23.67,23.67,0,0,1,4.38,6.39c.32.76-.29.93-1.14.64a5.62,5.62,0,0,1-2.71-2.15,22.18,22.18,0,0,0-4.65-5.3,5.27,5.27,0,0,0-1.27-.68,2.58,2.58,0,0,0-.57-.13,2.26,2.26,0,0,0-.26,0l-.46,0a15.06,15.06,0,0,1-4.23-.14,11.35,11.35,0,0,1-4.83-2.07,13.2,13.2,0,0,1-3.41-3.89,43.29,43.29,0,0,1-3.87-10c-.3-1-.58-2.07-.9-3l-.26-.7c-.11-.21-.1-.28-.22-.39s-.44-.22-.95-.25a38.57,38.57,0,0,1-5,.18,3.83,3.83,0,0,1-.7-.15,2,2,0,0,1-.77-.37,2.46,2.46,0,0,1-.91-1.42,2.72,2.72,0,0,1,.11-1.6,13,13,0,0,1,.55-1.19,36.64,36.64,0,0,1,4.47-6.21c.37-.42.72-.84,1.1-1.24,1.45-1.49,2.06-1.8,2.82-1.63a2.44,2.44,0,0,1,.5.13c.48.24.14,1.08-.82,2.21-1.42,1.67-2.88,3.36-4.21,5.12a22,22,0,0,0-1.76,2.68,4.33,4.33,0,0,0-.32.65l-.14.32a.28.28,0,0,0,0,.08.52.52,0,0,0,0,.19h0s.17,0,.3.06a6.06,6.06,0,0,0,1,0c.75,0,1.59-.14,2.52-.21a9.51,9.51,0,0,1,1.54,0,4.49,4.49,0,0,1,1.05.17,6.07,6.07,0,0,1,.59.24,4.05,4.05,0,0,1,.53.35c.15.16.27.32.43.47a4.3,4.3,0,0,1,.32.56,6,6,0,0,1,.32.75c.19.48.3.89.45,1.34Z"/><path class="cls-1" d="M381.09,142.54c.29-.1.6-.18.92-.27.12,0,.19-.13.31-.15a9.36,9.36,0,0,0,1.41-.3,3,3,0,0,0,.57-.27,3.06,3.06,0,0,1,.84-.31c.11,0,.06-.05.05,0s.08.34.09.55a1.73,1.73,0,0,1-.76,1.76c-.34.16-.55.52-.88.72a4.71,4.71,0,0,1-1.18.45l-.76.15c-.38.06-.78.06-1.13.12a2.38,2.38,0,0,1-.84.07l-.19,0a1.83,1.83,0,0,1-.39-.18h0a1.3,1.3,0,0,0,.18-.24,4.91,4.91,0,0,0,.5-.84,4.86,4.86,0,0,1,.49-.67,2.74,2.74,0,0,1,.77-.63Z"/><path class="cls-1" d="M351.82,285.23c1.32-3.56,2.53-7.18,3.54-10.87.39-1.34.66-2.71,1-4.06,1.26-4.76,2.42-9.56,3.42-14.4.44-2.15.79-4.33,1.11-6.48a82.59,82.59,0,0,1,1.3-8.29c.4-1.7,2.68.83,2.22,4.06A145.8,145.8,0,0,1,361,262.14c-.89,3.36-1.57,6.9-2.46,10.34-1,3.78-2.08,7.53-3.38,11.23-.4,1.14-.79,2.28-1.25,3.4l-.67,1.69a8.58,8.58,0,0,1-.35.83l-.32.72c-.18.38-.39.78-.54,1.16l3,.27,4.22.42c2.79.29,5.54.5,8.3.88.61.08,1.21.13,1.82.24,2.27.4,2.94.77,3.26,1.56a2.55,2.55,0,0,1,.2.54c.09.59-.91.82-2.55.64-4.86-.53-9.95-1.17-15.09-1.63l-2.55-.2c-1.52-.11-3.1-.18-4.65-.25l2.5-5.56,1.25-3.21Z"/><path class="cls-3" d="M45.05,267V463.9h307.2V302.3H152.05l-41.57-43.45H55c-11.19,0-11.19,3,0,3H109.2l41.56,43.45H349.23V460.89H48.07V267C48.07,258.15,45.05,258.15,45.05,267Z"/><path class="cls-3" d="M344.8,302.83V279.54H153.55v21.63c0,2.65,3,2.65,3,0V282.56H341.79v20.27A1.51,1.51,0,1,0,344.8,302.83Z"/><path class="cls-1" d="M473.44,430.9l-17.27,14.6c-9.09-15.45-35.28-59-39.53-67.21a98.36,98.36,0,0,1-6.27-15.69c-1.73-5.52-3.14-11.12-4.52-16.73s-2.68-11.15-4.24-16.66c-.1-.38-.48-2.54-.85-2.61s-.15,1.26-.14,1.44l6.19,122.87c0,.17-20.93,3.38-20.93,3.38-7-56.05-8.84-109.54-11-166,0-.23,8.47-.13,17.22-.79-.15,9.65-.59,16.3-.59,16.3,3.82.8,28.26-18.89,29.08-19.47a37.23,37.23,0,0,1,9.09.31c.62,4.24,6.43,60.54,9.36,77.74C441.66,377.61,468.2,420.5,473.44,430.9Z"/><path class="cls-1" d="M378.1,327.36C379.47,363,381.32,398.54,385,434l1.05,9.68,1.06,8.87c-.05.29.21.14.42.13l2.18-.34,4.81-.75,9.61-1.52,1.07-.18.21,0a1.33,1.33,0,0,0,0-.2l-3.14-66.4-1.58-33.5-.45-9.33-.32-6.52-.16-3.26a9.14,9.14,0,0,1,.19-1.71l.35-2.21a2.52,2.52,0,0,0,.06-.52c0-.16,0-.33.18-.48,0,0,.09,0,.12-.06l.1,0a.63.63,0,0,1,.12.1,1,1,0,0,1,.15.22,3.45,3.45,0,0,1,.2.48l.09.24.05.13.08.28.34,1.15.67,2.3,1.33,4.6,2.4,8.33.6,2.08.46,1.86.93,3.7c1.25,4.92,2.6,9.81,4.24,14.58a85.66,85.66,0,0,0,6,13.81c2.45,4.41,5,8.78,7.57,13.12,5.15,8.73,10.38,17.43,15.59,26.15l7.82,13.07,7.09,12,12-10c4.92-4.07,5.71-4.16,3.46-1.58-1.13,1.29-3,3.24-5.52,5.7q-1.89,1.85-4.22,4l-2.43,2.26-.64.59-.87.78-2.49,2.19-1.88-3.06-1.17-1.86c-.73-1.17-1.48-2.36-2.24-3.59q-2.28-3.68-4.69-7.72-10.17-17-20.28-34.14c-3.35-5.73-6.71-11.4-9.93-17.29a100.34,100.34,0,0,1-7.44-18.77c-1-3.21-1.81-6.44-2.63-9.67l-1.6-6.56-.67-2.78-.27-1.15,0-.08s0,0,0,0a.27.27,0,0,0,0,.09v1.5l0,.42.11,2.49.22,5q.45,10,.88,20c.61,13,1.23,26.17,1.86,39.46.67,13.46,1.35,27,2,40.51l-.19.77-.05.2,0,.1c-.09-.08.21.16-.21-.16h0l0,0-.25.24a2.68,2.68,0,0,1-.68.45l-.94.17-2.35.39-4.52.73-9,1.39-4.33.66-.35.05-.17,0c-.06,0-.13,0-.11-.05l-.09-.7-.16-1.39-.24-2.06-.79-6.69c-.49-4.47-1-8.93-1.43-13.4q-1.34-13.41-2.38-26.85c-1.4-17.91-2.41-35.85-3.26-53.79q-.7-15.39-1.28-30.77-.57-15.6-1.13-31.18c0-1.14.89-1.53,2.14-1.5l2.54-.07c2.24-.05,4.46-.11,6.69-.2l3.33-.16,1.83-.11,2.46-.18-.58,15.52,0,.52c0,.12.08.09.16.09a1,1,0,0,0,.25,0,4.17,4.17,0,0,0,1-.35l.35-.16.4-.21c.28-.15.55-.28.82-.44.54-.3,1.08-.62,1.61-.94,2.13-1.3,4.22-2.72,6.28-4.16,4.12-2.9,8.15-5.94,12.14-9l3-2.32,1.58-1.23c.3-.37.84-.28,1.23-.33l1-.05c1.28,0,2.56,0,3.84,0,.64,0,1.28.08,1.92.14l.5.06.33,0c.11,0,.26,0,.24.21l.05.53c0,.12.05.1.09.1l.11,0,.47.08.83.27c1,8.66,1.93,17.2,2.89,25.72,1.45,12.82,2.94,25.52,4.63,38.14q.63,4.73,1.34,9.44l.38,2.34c.14.77.22,1.58.43,2.31l.55,2.24c.22.74.5,1.48.74,2.21a149.65,149.65,0,0,0,7.74,17.3c2.53,5,5.18,9.8,7.91,14.75,5.09,9.17,8.53,15.18,10.82,19.47a67.13,67.13,0,0,1,4.25,9c.36,1,.84,2.26,1,2.85.21,1-.72-.33-2.74-3.55s-5.13-8.33-9-15c-5.34-9.2-10.66-18.59-15.6-28.34a144.65,144.65,0,0,1-6.72-15.15,37.58,37.58,0,0,1-1.25-4.1c-.16-.7-.36-1.42-.49-2.12l-.34-2.05c-.44-2.74-.83-5.48-1.21-8.23-1.5-11-2.79-22.05-4.08-33.17q-1.83-16.31-3.68-32.73h0l-.76-.07c-.72-.06-1.44-.1-2.17-.12s-1.46,0-2.19,0l-1.1.05-.54,0h0l-4.63,3.61-5.14,3.91c-3.45,2.58-6.94,5.13-10.57,7.53a55.28,55.28,0,0,1-5.74,3.4l-.58.28c-.25.11-.49.2-.73.28l-.73.24-.37.13-.33,0a5.66,5.66,0,0,1-1.29,0l-.65,0-.34,0c-.06-.06-.06-.18-.09-.27a6.83,6.83,0,0,1-.34-2.65l.08-2.32c.14-3.61.27-7.23.41-10.86l-2.55.15-4.56.18-4.55.13-1.8,0s-.05,0,0,0q.69,18.66,1.4,37.35Z"/><rect class="cls-1" x="158.04" y="85.91" width="47" height="47" transform="translate(17.42 243.55) rotate(-70.34)"/><path class="cls-1" d="M262.62,123.66c-2.79-1.14-5.58-2.29-8.38-3.41-1-.41-2.07-.74-3.08-1.16-3.59-1.47-7.16-3-10.75-4.45-1.6-.64-3.23-1.21-4.85-1.76a38.16,38.16,0,0,1-6.16-2.32c-1.21-.65,1.39-2.71,3.77-1.86a131.15,131.15,0,0,1,12.47,5.11c2.45,1.16,5.13,2,7.69,3l8.47,3.38q2.59,1,5.21,2.07c2.64,1,5.27,2.09,7.92,3,2.06.72,4.14,1.27,6.21,1.9.46.14.91.25,1.37.4,1.68.57,2.14,1,2.23,1.81a4.15,4.15,0,0,1,.05.59c-.05.63-.9.85-2.19.57A90.72,90.72,0,0,1,271.12,127c-2.84-1-5.68-2.17-8.52-3.26Z"/><path class="cls-1" d="M248.32,135.64l-5.71-2.45c-.7-.29-1.43-.5-2.12-.8-2.44-1.06-4.87-2.17-7.32-3.22-1.09-.46-2.21-.85-3.33-1.21a18.31,18.31,0,0,1-4.22-1.62c-.81-.51,1.3-2.75,2.93-2.17a63.6,63.6,0,0,1,8.5,3.68c1.65.87,3.5,1.43,5.26,2.15,1.93.79,3.85,1.61,5.77,2.41,1.19.49,2.37,1,3.56,1.47,1.81.73,3.61,1.49,5.43,2.13,1.41.49,2.86.81,4.3,1.21.31.09.63.15.94.25,1.17.38,1.46.7,1.43,1.52a5.33,5.33,0,0,1,0,.57c-.11.6-.75.9-1.65.75a42.58,42.58,0,0,1-7.94-2.31c-1.95-.72-3.89-1.52-5.83-2.29Z"/><path class="cls-1" d="M209.5,177.22q-7.62-3-15.23-6c-1.85-.72-3.74-1.37-5.59-2.1-6.52-2.59-13-5.22-19.55-7.79-2.9-1.14-5.84-2.2-8.75-3.24-3.74-1.33-7.55-2.52-11.15-4.2-2.25-1,1.68-2.61,6-1,7.61,2.79,15.16,5.74,22.67,9,4.49,1.94,9.3,3.6,14,5.41,5.12,2,10.24,4,15.36,6l9.46,3.68c4.78,1.83,9.57,3.72,14.35,5.46,3.71,1.35,7.41,2.51,11.12,3.76.81.27,1.62.52,2.44.81,3,1.07,3.92,1.62,4.29,2.59a3,3,0,0,1,.24.66c.08.68-1.32.69-3.59,0-6.73-1.95-13.66-4.45-20.59-7-5.14-1.92-10.29-3.92-15.43-5.88Z"/><path class="cls-1" d="M193.36,186.47c-4.12-1.65-8.23-3.32-12.34-5-1.51-.59-3-1.11-4.54-1.72-5.28-2.13-10.55-4.32-15.84-6.44-2.34-.94-4.73-1.8-7.1-2.64a84.91,84.91,0,0,1-9-3.44c-1.81-.89,1.57-2.65,5.05-1.37,6.18,2.27,12.29,4.7,18.36,7.41,3.63,1.63,7.54,3,11.32,4.45,4.16,1.63,8.3,3.29,12.45,4.93,2.56,1,5.11,2,7.67,3,3.88,1.51,7.76,3.07,11.64,4.48,3,1.1,6,2,9,3,.66.22,1.32.41,2,.64,2.46.88,3.17,1.35,3.42,2.29a3,3,0,0,1,.15.63c0,.65-1.15.74-3,.24-5.5-1.5-11.12-3.54-16.75-5.65-4.17-1.56-8.34-3.21-12.52-4.82Z"/><path class="cls-1" d="M175,194.3l-9-3.73c-1.1-.45-2.24-.81-3.33-1.27-3.88-1.61-7.73-3.27-11.61-4.87-1.72-.7-3.48-1.34-5.22-1.94a44.93,44.93,0,0,1-6.65-2.55c-1.32-.71,1.44-2.7,4-1.76,4.54,1.66,9,3.49,13.45,5.59,2.65,1.26,5.54,2.21,8.31,3.32,3.05,1.22,6.09,2.47,9.13,3.71,1.88.76,3.75,1.52,5.63,2.26,2.84,1.13,5.69,2.3,8.55,3.33,2.22.81,4.46,1.43,6.69,2.14.49.15,1,.28,1.47.45,1.81.63,2.32,1,2.43,1.91a4.2,4.2,0,0,1,.06.6c0,.63-.95.82-2.33.49a104.66,104.66,0,0,1-12.37-4c-3.07-1.16-6.13-2.39-9.2-3.59Z"/><path class="cls-1" d="M108,422.86l-10.75-.3c-1.31,0-2.61,0-3.92,0-4.6-.14-9.21-.33-13.81-.46-2,0-4.1,0-6.13,0a55.16,55.16,0,0,1-7.82,0c-1.62-.2.44-3,3.44-3.06,5.32,0,10.63.07,16,.48,3.2.24,6.54.11,9.82.17l10.83.24c2.22,0,4.44.11,6.66.14,3.36.05,6.74.14,10.08.1,2.59,0,5.13-.24,7.7-.37.56,0,1.12-.08,1.69-.1,2.11-.05,2.78.15,3.23.93a2.92,2.92,0,0,1,.3.54c.2.61-.66,1.11-2.2,1.28a125.94,125.94,0,0,1-14.28.61c-3.6,0-7.22-.07-10.84-.11Z"/><path class="cls-1" d="M136.23,441.07l-17.8-.3c-2.16,0-4.33,0-6.49,0-7.63-.14-15.25-.33-22.88-.45-3.39-.06-6.79,0-10.15,0-4.31.07-8.64.28-13,0-2.69-.19.72-3,5.69-3.06,8.81-.05,17.62.08,26.5.48,5.31.25,10.84.12,16.27.18q9,.11,17.93.24l11,.14c5.57,0,11.16.13,16.69.09,4.3,0,8.51-.23,12.76-.36.94,0,1.85-.09,2.79-.1,3.5-.05,4.61.15,5.36.93a3.44,3.44,0,0,1,.5.53c.34.61-1.09,1.11-3.65,1.29-7.6.53-15.6.6-23.65.61-6,0-12-.07-17.95-.11Z"/><path class="cls-3" d="M428.28,280.62l.84,7.23a6.94,6.94,0,0,0,1.87-.22l-.84-7.22A9,9,0,0,0,428.28,280.62Z"/><path class="cls-4" d="M349.71,138.44c0,1.28-.61,2.32-1.37,2.32C344.44,140.76,349.71,132.4,349.71,138.44Z"/><path class="cls-1" d="M348.16,137.08c-.58-.25-.88-.53-.65-.64s.07-.21.14-.31a2.72,2.72,0,0,1,2-1.36,3.2,3.2,0,0,1,1.07,0,3,3,0,0,1,1.46.81,4.13,4.13,0,0,1,.45.67,4.57,4.57,0,0,1,.62,1.35,2.55,2.55,0,0,1,.07.72,1.09,1.09,0,0,0,.1.25s0,.07,0,.11a2.91,2.91,0,0,1-1.21.17c-.39,0-.66,0-.66-.07a3,3,0,0,0-.14-.8c0-.11-.14-.17-.17-.26s-.1-.29-.15-.44a1.54,1.54,0,0,0-.37-.49.83.83,0,0,0-.53-.17.38.38,0,0,0-.15,0,.58.58,0,0,0-.37.15,1.09,1.09,0,0,0-.26.47s0,0,0,0S349.08,137.31,348.16,137.08Z"/><path class="cls-1" d="M342.52,163.34c2.8,1.1,5.8-.46,7.49-2.71.51-.68-.44-1.12-1-1.16a2.71,2.71,0,0,0-2.29,1,3.67,3.67,0,0,1-1,1s-.35.15-.09,0c-.41.16.18,0-.2,0,.27,0,0,0-.12,0-.33,0,.26,0,0,0-.15,0-.61-.21,0,0a2.75,2.75,0,0,0-2.47.29c-.43.29-1.08,1.18-.27,1.49Z"/><path class="cls-1" d="M345.88,132.91a.84.84,0,0,0,.54-.13.44.44,0,0,0,.12-.17s0-.07,0-.11l-.14-.36a1.94,1.94,0,0,1-.16-.51.55.55,0,0,1,.13-.52,5.89,5.89,0,0,1,2.5-1.3,8.62,8.62,0,0,1,2.37-.12,15.23,15.23,0,0,1,3.84.68l1.06.37c.34.12.69.2,1,.3.06,0,.14,0,.17.07a1.78,1.78,0,0,1-.45,1.16c-.06.09-.16.24-.18.23-.26-.07-.76.59-1,.47a3.84,3.84,0,0,0-1.43-.24,4.26,4.26,0,0,1-.54-.16c-.22-.1-.43-.26-.65-.36a8.46,8.46,0,0,0-3.25-.2,6.68,6.68,0,0,0-2.53,1,.4.4,0,0,1-.22,0h-.28a1,1,0,0,1-.36.11A.82.82,0,0,1,345.88,132.91Z"/><path class="cls-1" d="M468.38,456.64a8.17,8.17,0,0,1-1,1l-1,.92a18.07,18.07,0,0,1-2.06,1.76,42,42,0,0,1-4.5,3.1c-.29.17-.62.33-1,.49a7.85,7.85,0,0,1-1.33.47,2.75,2.75,0,0,1-2.85-.78l-.34-.58a5.53,5.53,0,0,1-.2-.66,3.42,3.42,0,0,1-.07-.71,2.88,2.88,0,0,1,0-.65,10,10,0,0,1,.32-1.91,30.14,30.14,0,0,1,1.06-3.33c.8-2.14,1.7-4.2,2.6-6.26.8-1.82,1.56-3.67,2.3-5.5a63.85,63.85,0,0,1,2.95-7c.74-1.39,2.42,1.42,1.3,4.15-1.95,4.81-4.18,9.45-6.28,14.12a23.14,23.14,0,0,0-1.46,4.32c-.09.37-.14.73-.19,1.06l0,.44v.2a.44.44,0,0,0,.5.45,1.06,1.06,0,0,0,.23-.05,1.22,1.22,0,0,0,.35-.14,7.39,7.39,0,0,0,1-.53,18,18,0,0,0,2.09-1.39l2.05-1.52a22,22,0,0,0,1.91-1.69l1.16-1.06c.36-.38.68-.79,1-1.18l1-1.19a13.94,13.94,0,0,0,.89-1.28,20.16,20.16,0,0,0,3.49-8.66,19.72,19.72,0,0,0-.53-7.11c-.1-.51-.3-1-.44-1.48-.58-1.85-.7-2.43-.22-3.12.11-.16.2-.34.31-.48.38-.45,1.25.16,1.92,1.62a19.46,19.46,0,0,1,1.69,7.08,22.81,22.81,0,0,1-.14,3.78c-.1.63-.23,1.25-.36,1.88-.07.31-.11.63-.2.93l-.3.91a26.07,26.07,0,0,1-5.72,9.62Z"/></g></svg>