<svg id="Layer_1" data-name="Layer 1" xmlns="http://www.w3.org/2000/svg" width="520" height="520" viewBox="0 0 520 520"><defs><style>.cls-1{fill:#221f1f;}.cls-2{fill:#232020;}</style></defs><title>Notioly v2</title><g id="_74.Self-portrait" data-name="74.Self-portrait"><path class="cls-1" d="M274.35,77.85c-12.93-7.11-30.52-4.23-43,2.36-1.7.9.95.92,1.71.52,11.21-5.93,26.94-8.24,38.56-1.85.77.42,3.21-.76,2.72-1Z"/><path class="cls-1" d="M273.3,78.36c1.08-6.57,3.5-14.82,10.33-17.46,1.85-.71.22-2.28-1.28-1.7-7.76,3-10.75,11.84-12,19.38-.23,1.45,2.73,1.08,2.94-.22Z"/><path class="cls-1" d="M176.39,328.4c.45,0,.44.64.16,1.36a2.67,2.67,0,0,1-.69.83l-.68.26s-.14,0-.27,0a.86.86,0,0,0-.38.14s-.09.05-.08.12a1.54,1.54,0,0,0,0-.37.43.43,0,0,0,0-.22s0,0,0,0a.78.78,0,0,0,.25.22,2,2,0,0,0,.73.28h.11s0,.05,0,.07a1,1,0,0,0,.07.21,2.52,2.52,0,0,0,.37.55.77.77,0,0,1,.22.42,1.51,1.51,0,0,0,.1.3v.05s0,0,0,0l-.09.21c-.06.12-.11.19-.16.29a3.08,3.08,0,0,0-.16.61.71.71,0,0,0,0,.38.2.2,0,0,0,0,.07s0,.06,0,0,0,0-.14-.12a.77.77,0,0,0-.19-.08.86.86,0,0,0-.3-.09,2.53,2.53,0,0,0-.73,0c-.1,0-.21,0-.31,0l-.15,0-.08,0h0a.09.09,0,0,1,0-.05,2.88,2.88,0,0,1-.24-.45,1.52,1.52,0,0,0-.2-.66l2-.86a.84.84,0,0,0-.31-.37.82.82,0,0,0,.5-.06,1.89,1.89,0,0,0,.43-.2c.13-.07,0,0,0,0a.2.2,0,0,0-.05.09s0,.07.05.11a4,4,0,0,1,.23.39c0,.08.06.32.14.5a1.7,1.7,0,0,1,0,.82c-.16.17-.07.46-.05.7a1.06,1.06,0,0,1,0,.26,2.41,2.41,0,0,1-1.66.18,3.14,3.14,0,0,1-1.83-1,3.34,3.34,0,0,1-.53-1.08,2.92,2.92,0,0,1,0-1.76,3.25,3.25,0,0,1,1.34-1.7l1.1-.7,1.46.84a9.12,9.12,0,0,1,1.75,1.36,1.83,1.83,0,0,1,.35.68,7.26,7.26,0,0,1,.89,1.84,4.29,4.29,0,0,1,.14,1.8,4,4,0,0,1-.2.8c-.1.24-.18.39-.2.43a3.37,3.37,0,0,1-.93,1.07,3.44,3.44,0,0,1-1.39.66,2.46,2.46,0,0,1-.67.07,4.07,4.07,0,0,1-.61-.07,2.06,2.06,0,0,1-.29-.07l-.2-.1a3,3,0,0,1-.38-.23A5.06,5.06,0,0,0,174,337a4.78,4.78,0,0,1-1.49-1.17l-.48-.62c-.15-.21-.3-.48-.44-.72a9,9,0,0,1-.8-1.61,1,1,0,0,1,0-.34,3,3,0,0,0,0-.43,4.53,4.53,0,0,1,.1-2.38,4.36,4.36,0,0,1,1.79-2.44,2.73,2.73,0,0,1,.68-.23,4.41,4.41,0,0,1,1,0c.31.06.61.15.86.22a3.05,3.05,0,0,0,.48.19C176,327.54,176.23,328.41,176.39,328.4Z"/><path class="cls-1" d="M390.63,266.86c0-.24.19-.34.47-.31a2.65,2.65,0,0,1,1.14.49,5,5,0,0,1,1,1.1c.11.29.25.54.32.77s-.26,1.54-.24,2a4.61,4.61,0,0,1-.17,1.17,1.43,1.43,0,0,0-.07.6c-.15,0-.57.12-.66.12a1.49,1.49,0,0,0-.45.15.5.5,0,0,0-.16.1.28.28,0,0,0,.1-.12l0,0,.08-.1a1.28,1.28,0,0,0,.11-.2.68.68,0,0,0,.07-.2l0-.05h0l.15-.41h0l0,0-.06.12a2.43,2.43,0,0,0-.14.48,3.8,3.8,0,0,1,0,.4c0,.08.05.41,0,.24l0,0a1.09,1.09,0,0,0-.19-.27c-.08-.08-.12-.09-.27-.25s-.13-.12-.19-.16h0s0,0-.1-.14-.09-.23-.06-.58a4.75,4.75,0,0,1,.12-.8,3.37,3.37,0,0,0,.44-1.37c0-.08-.07-.05.07-.19s.21-.27.21-.34,0-.08-.06-.12a2.07,2.07,0,0,1-.11-.37l1.47-.24-.18.09a2,2,0,0,1-.31.14,1.58,1.58,0,0,1-.31.09l-.15,0h-.08a2.41,2.41,0,0,1-.31,0,1.39,1.39,0,0,1-1-.81c0-.1,0-.11-.06-.17a1.4,1.4,0,0,1,0-.61.83.83,0,0,1,.22-.45.51.51,0,0,1,.16-.12,4,4,0,0,1,.37-.19l.19-.09.17-.07a1.23,1.23,0,0,1,.56,0,.87.87,0,0,1,.34.14.93.93,0,0,1,.21.19,1,1,0,0,1,.21.53.83.83,0,0,1,0,.22c-.14.28-.35.15-.54.11l-.38-.18s-.09,0,0,0,0,0,.06,0,0,0,0,0-.19,0-.23,0-.06,0,0,0a.7.7,0,0,0,.24,0c0-.06,0,0,.07.11a3.76,3.76,0,0,0,.28.29l.1.08s.07.05,0,0a3.48,3.48,0,0,0-.45-.25l-.13,0c-.05,0,0,0,0,0a.21.21,0,0,0-.05-.13,1.71,1.71,0,0,0-.13-.23,1.66,1.66,0,0,0-.16-.21l-.23-.32-.24-.31-.05-.05h0l-.52-.22,2.11-.05a4.12,4.12,0,0,1,2.6,1.1,7.38,7.38,0,0,1,1.12,2,13,13,0,0,1,.58,2.32,1.55,1.55,0,0,1-.15.7,11.06,11.06,0,0,1-.12,1.77c0,.22-.09.45-.13.67a4.65,4.65,0,0,1-.21.63,4.12,4.12,0,0,1-.31.7c-.15.2-.29.4-.44.59a2.78,2.78,0,0,1-.56.59,5,5,0,0,1-.73.5,3,3,0,0,1-.94.22,4.09,4.09,0,0,0-.71.17,5,5,0,0,1-1.49.07,7.71,7.71,0,0,1-1.23-.33,6.6,6.6,0,0,1-1.14-.68,5.27,5.27,0,0,1-1-1.08,5.76,5.76,0,0,1-.63-1.27,4,4,0,0,1-.19-.62,5.62,5.62,0,0,1-.09-.57,1.4,1.4,0,0,1,.06-.41,2.46,2.46,0,0,0,.09-.44,12.79,12.79,0,0,1,1-3.73c.07-.28,1.09-1.15,1.23-1.42S390.64,267,390.63,266.86Z"/><path class="cls-1" d="M299.46,201.38a16.53,16.53,0,0,1-5.86.17,23.72,23.72,0,0,1-5.5-1.61,29.52,29.52,0,0,1-3.71-1.8,41.71,41.71,0,0,1-10.57-9.58c-.7-.79-1.28-1.67-1.93-2.5s-1.21-1.72-1.8-2.58a31.74,31.74,0,0,1-3.79-7.08c-.25-.8.24-.88,1-.48a6.24,6.24,0,0,1,2.47,2.62A60.7,60.7,0,0,0,279,191.32a30.38,30.38,0,0,0,7.76,5.7,19.8,19.8,0,0,0,10,2.6,11.9,11.9,0,0,0,1.58-.15l1.56-.33a11.59,11.59,0,0,0,2.82-1.4,19,19,0,0,0,3.68-3.28,30.69,30.69,0,0,0,3-4,43.69,43.69,0,0,0,3.43-6.88c.22-.52.39-1.05.6-1.57.77-2,1.09-2.54,1.79-2.79a2.9,2.9,0,0,1,.47-.16c.47-.06.56.9.1,2.44a40.47,40.47,0,0,1-6.8,13.15,24.81,24.81,0,0,1-4.06,4.14c-.4.3-.82.58-1.23.87s-.88.51-1.32.76a11.18,11.18,0,0,1-2.91,1Z"/><path class="cls-1" d="M281.76,100c-41.51,18.81-19.61,81-.55,94.91,18.36,26.92,51.46,71.9,31.61,94.5-21.16,24.09-48.25-4.5-47-17.13,10.42,7.58,23,3.65,17-.95-7.95-6-34.5-32.57-49.71-67.13C208.62,148.55,200.25,68.26,271.3,77c5.25-14.14,18.64-19.44,32.71-17.28,70.14,10.74,40.43,163.48,9.81,152-7.67-2.87-5.87-15.49-5.73-17.6C337.52,146.37,291.2,92.47,281.76,100Z"/><path class="cls-1" d="M273.72,75.13l-1.05,2.49-.41.95a4.33,4.33,0,0,1-1-.06l-1.72-.18c-1.42-.18-2.84-.27-4.27-.36a71.4,71.4,0,0,0-8.53,0,46.68,46.68,0,0,0-16.36,3.85,34.84,34.84,0,0,0-13,10.24,44.67,44.67,0,0,0-7.52,15c-3.22,10.93-3.48,22.63-2.49,34.06a182.92,182.92,0,0,0,6.56,33.93,223.24,223.24,0,0,0,8.36,23.86,177.29,177.29,0,0,0,11.2,22.61,215.55,215.55,0,0,0,25.65,34.9c2.44,2.66,4.9,5.31,7.5,7.82.63.64,1.29,1.25,2,1.86s1.31,1.24,2,1.82,1.34,1.2,2,1.74l1.05.85a6.19,6.19,0,0,1,1.16,1.18,3.25,3.25,0,0,1,.7,1.87,2.92,2.92,0,0,1-.75,2,6,6,0,0,1-2.91,1.6,15.37,15.37,0,0,1-5.83.29,22.75,22.75,0,0,1-5.53-1.44c-.44-.19-.88-.37-1.31-.57l-.64-.32-.32-.16-.23-.13a7.74,7.74,0,0,1-.83-.52s-.09-.09-.09,0v.38c0,.17,0,.34.05.51l.16.8.38,1.3a25.71,25.71,0,0,0,2.39,5,32.8,32.8,0,0,0,3.3,4.49,35.93,35.93,0,0,0,4,3.94,32,32,0,0,0,9.52,5.69,25.4,25.4,0,0,0,5.35,1.27,19.65,19.65,0,0,0,5.47-.13,21.72,21.72,0,0,0,10-4.45,31.84,31.84,0,0,0,4.1-3.78,25.37,25.37,0,0,0,3.26-4.46A24.76,24.76,0,0,0,318,274.23a42.22,42.22,0,0,0-.85-11.19,78,78,0,0,0-2.66-9.45c-1.11-3.09-2.37-6.14-3.74-9.14A185.23,185.23,0,0,0,301.37,227c-3.4-5.68-7-11.22-10.69-16.7-1.87-2.73-3.72-5.45-5.58-8.18L282.29,198l-1.39-2-.32-.45c-.06-.09-.08-.08-.29-.26l-1-.79c-.85-.69-1.6-1.47-2.39-2.21s-1.49-1.57-2.16-2.42a54.89,54.89,0,0,1-3.84-5.17,81.33,81.33,0,0,1-6.14-11.26,89.19,89.19,0,0,1-7-24.61,59.24,59.24,0,0,1,1.84-25.55,38.43,38.43,0,0,1,5.89-11.52,39.13,39.13,0,0,1,9.38-8.87c1.14-.7,2.12-1.33,3-1.8s1.6-.74,2.16-1c1.13-.49,1.65-.64,1.63-.5s-.57.58-1.6,1.27l-1.87,1.2-2.38,1.78a43.92,43.92,0,0,0-5.77,5.36,38.82,38.82,0,0,0-5.59,8.4A44.24,44.24,0,0,0,260.69,129a60,60,0,0,0-.87,13.52,86.22,86.22,0,0,0,10.49,36.26,57.88,57.88,0,0,0,7.13,10.34,30.22,30.22,0,0,0,2.15,2.23c.37.35.73.73,1.12,1l1.18,1,.55.45.36.53.46.67.91,1.33L286,199q3.66,5.34,7.29,10.73c4.8,7.2,9.48,14.52,13.71,22.14a129.26,129.26,0,0,1,10.71,23.93,59,59,0,0,1,2.62,13,32.67,32.67,0,0,1-1.65,13.41l-.28.81-.37.79-.73,1.56c-.26.51-.59,1-.88,1.48a13.68,13.68,0,0,1-.94,1.44,33.26,33.26,0,0,1-4.59,5l-1.28,1.12-1.37,1-.69.51-.73.44-1.47.89a25.65,25.65,0,0,1-6.48,2.35,23.85,23.85,0,0,1-6.9.29,26.78,26.78,0,0,1-6.63-1.68,31,31,0,0,1-6-3.17,36.19,36.19,0,0,1-5.24-4.23,37.54,37.54,0,0,1-6.55-8.34,26.07,26.07,0,0,1-2.2-5c-.12-.45-.29-.89-.37-1.35l-.2-1a10.21,10.21,0,0,1-.1-1.06c0-.69,0-1.36,0-2.06l0-1.05,0-.53a2.44,2.44,0,0,1,.08-.34l2.45,1.67c.41.29.82.55,1.23.79l.94.52a23.31,23.31,0,0,0,2.87,1.22,18.76,18.76,0,0,0,6.09,1.06,11.43,11.43,0,0,0,3-.38c.91-.23,1.78-.79,1.88-1.16a.62.62,0,0,0-.11-.61,3.48,3.48,0,0,0-.84-.91c-.81-.67-1.77-1.39-2.59-2.14a174.61,174.61,0,0,1-18.53-19.44,197.85,197.85,0,0,1-28.72-45.41,229.62,229.62,0,0,1-11.78-33.22,176.89,176.89,0,0,1-5.95-34.76,110.18,110.18,0,0,1,.31-17.7,68.63,68.63,0,0,1,3.94-17.32,42.66,42.66,0,0,1,9.51-15.07A38.11,38.11,0,0,1,243.68,78a59.33,59.33,0,0,1,21.69-2.41l2.73.19,2.37.26c.09,0,.23.06.29,0l.13-.29.44-1a9.57,9.57,0,0,1,.6-1.25l.66-1.23a26.29,26.29,0,0,1,7.35-8.29A28.22,28.22,0,0,1,290,59.38a35.31,35.31,0,0,1,11-.81,44.34,44.34,0,0,1,20.63,7A46.1,46.1,0,0,1,333.44,77.2a63.7,63.7,0,0,1,7.69,14.63,109.88,109.88,0,0,1,6.37,32.24,166.05,166.05,0,0,1-1.4,32.76,162.14,162.14,0,0,1-3.05,16.08,128.66,128.66,0,0,1-4.77,15.63,79.24,79.24,0,0,1-5.36,11.52,35.19,35.19,0,0,1-8,9.95,13.79,13.79,0,0,1-5.86,2.92,9.93,9.93,0,0,1-6.59-.93,9.28,9.28,0,0,1-4.27-5.09,20.42,20.42,0,0,1-1.22-6.36c-.06-1.07,0-2.13,0-3.19,0-.53.05-1.06.1-1.59l.14-1.68c0-.21.12-.36.21-.54l.23-.4.39-.66c.25-.44.53-.88.77-1.33.47-.91,1-1.8,1.41-2.73A62,62,0,0,0,314.59,177a64.19,64.19,0,0,0,1.7-24.34,78,78,0,0,0-5.52-20.81,85.71,85.71,0,0,0-8-15,71.84,71.84,0,0,0-7.16-9.1,47.3,47.3,0,0,0-5.54-5.16,19.84,19.84,0,0,0-4.28-2.64,6.11,6.11,0,0,0-2-.49,3.7,3.7,0,0,0-1.7.28c-.31.13-.46.15-.41,0a1.92,1.92,0,0,1,.78-.63,4.45,4.45,0,0,1,2.27-.41,10,10,0,0,1,3.28.88c4.79,2.13,10.86,7.61,16.64,16a85.81,85.81,0,0,1,10.25,20.27,75.76,75.76,0,0,1,4.3,22.65,65.34,65.34,0,0,1-3.42,23.11,67.46,67.46,0,0,1-4.8,10.79c-.22.44-.49.85-.73,1.28l-.58,1-.09,1.06c0,.47-.07.94-.09,1.4a28.71,28.71,0,0,0,.18,5.5,13,13,0,0,0,1.56,4.91,6.27,6.27,0,0,0,3.56,2.87,7.63,7.63,0,0,0,4.77,0,12.91,12.91,0,0,0,4.46-2.59,29.4,29.4,0,0,0,3.74-4A47.48,47.48,0,0,0,330.8,199a77,77,0,0,0,4.92-10.37,134.05,134.05,0,0,0,6.38-22.34,170,170,0,0,0,3-23.17,144,144,0,0,0-1.83-34.58A91.73,91.73,0,0,0,338.61,92,60.28,60.28,0,0,0,330.34,77a47.15,47.15,0,0,0-5.8-6.18,41.51,41.51,0,0,0-6.9-4.87,43.9,43.9,0,0,0-7.77-3.3l-2.05-.54a18.37,18.37,0,0,0-2.08-.46l-2.08-.39-2.1-.26a31.3,31.3,0,0,0-16.34,2.56A24.57,24.57,0,0,0,273.8,75.1Z"/><path class="cls-1" d="M304.61,218l.62-3.78c.07-.46.08-.92.16-1.38.28-1.61.62-3.22.93-4.82.14-.72.21-1.44.29-2.16a10.73,10.73,0,0,1,.44-2.74c.19-.55,1.67.38,1.61,1.44a34.44,34.44,0,0,1-.76,5.59,27.64,27.64,0,0,0-.45,3.44l-.52,3.78-.31,2.34c-.13,1.18-.29,2.36-.34,3.53a22.32,22.32,0,0,0,.14,2.72c0,.19.05.38.05.58a1.23,1.23,0,0,1-.12.75,1.3,1.3,0,0,1-.59.33c-.14,0-.27.12-.41.16a.67.67,0,0,1-.63-.1,1.24,1.24,0,0,1-.41-.69,17.18,17.18,0,0,1-.18-5.16c.11-1.29.28-2.56.43-3.84Z"/><path class="cls-1" d="M286.35,198.52c1.52,4,4.83,9.32,9.24,10,10.37,1.67,11.55-8.81,11.43-11.24C302.46,204.13,288.6,200.57,286.35,198.52Z"/><path class="cls-1" d="M308.43,194.08c0,.55,0,.26,0,.87l0,1.69a18.25,18.25,0,0,1-.27,3.35c-.13.62-.21,1.21-.4,1.82l-.24.73a4.33,4.33,0,0,1-.21.54,14,14,0,0,1-1,2.09,12.61,12.61,0,0,1-1,1.41l-.58.66-.69.57a9.25,9.25,0,0,1-5.72,1.87,7,7,0,0,1-1.46-.08c-.49-.06-1-.11-1.44-.2a8.45,8.45,0,0,1-2.77-1.17,15.32,15.32,0,0,1-3.69-3.48,22.23,22.23,0,0,1-1.8-2.63,14.34,14.34,0,0,1-1.18-2.94c-.17-.64.27-.7.88-.37a6,6,0,0,1,2.06,1.92,19.38,19.38,0,0,0,3.49,4.6,9,9,0,0,0,2.19,1.55l.59.25.61.17,1.41.23a6.85,6.85,0,0,0,6.1-2.21,10,10,0,0,0,2-3.25l.16-.47.07-.21.13-.43a5.87,5.87,0,0,0,.18-1c0-.11,0-.21,0-.32a.74.74,0,0,0,0-.15l-.07.1a2.69,2.69,0,0,1-.37.39,5,5,0,0,1-.5.38l-.29.16-.45.22A17.63,17.63,0,0,1,296,202a34.94,34.94,0,0,1-6.19-.78c-.45-.11-.9-.21-1.35-.36-1.66-.57-2.16-1.14-2.1-1.88a1.53,1.53,0,0,1,.08-.49c.27-.44.83-.41,1.9-.1a35,35,0,0,0,5.09,1,27.64,27.64,0,0,0,5.29.22,14,14,0,0,0,3.41-.63,7.31,7.31,0,0,0,.78-.29l.37-.18a2.93,2.93,0,0,0,.83-.54l.84-.68a2.74,2.74,0,0,0,.5-.57L306,196c.63-.79,1.63-2.15,2.51-3.31l0,1.21Z"/><path class="cls-1" d="M212.34,269.68q2.37-6.89,4.86-13.75c.61-1.67,1.15-3.36,1.8-5,1.13-2.92,2.31-5.83,3.61-8.7a50,50,0,0,1,4.57-8.38,11.6,11.6,0,0,1,1.56-1.68,9.16,9.16,0,0,1,.88-.66c.29-.21.58-.41.89-.6a24.47,24.47,0,0,1,3.76-2.07,15.8,15.8,0,0,1,5.44-1.33,14.31,14.31,0,0,1,5.5.83c1.08.38.72.93-.32,1.26a16.13,16.13,0,0,1-4.51.53,16.47,16.47,0,0,0-9.12,3.21l-.54.36-.27.18-.18.16-.38.32c-.12.12-.25.29-.37.43l-.39.44-.36.51c-.24.34-.49.67-.71,1.05-.93,1.44-1.74,3-2.57,4.61a121.83,121.83,0,0,0-5,12.24q-2.52,6.86-4.9,13.79-1.44,4.26-2.9,8.54c-1.44,4.32-2.9,8.66-4.34,13-1.1,3.34-2.07,6.65-3.26,10-.26.72-.49,1.45-.8,2.17-1.12,2.69-1.8,3.49-2.69,3.67a2.17,2.17,0,0,1-.59.09c-.54-.11-.23-1.15.49-3,1.08-2.82,2.06-5.84,3.07-8.89l3.06-9.28q2.31-6.94,4.63-13.92Z"/><path class="cls-1" d="M211.56,360.33a63.85,63.85,0,0,0,10.11-15.62c1-2.06,1.88-4.19,2.77-6.31a216.71,216.71,0,0,0,8.06-23c1-3.48,1.91-7,2.74-10.51,1.08-4.49,1.94-9,3.34-13.5.45-1.39,1-1,1.27.3a15.62,15.62,0,0,1-.3,6.23,256.24,256.24,0,0,1-7.79,27.44c-1.92,5.4-3.81,11.06-6.17,16.45A83.56,83.56,0,0,1,216,358.68a33.07,33.07,0,0,1-8.78,8.3,17.25,17.25,0,0,1-8.86,2.7,25,25,0,0,1-9-1.79,26,26,0,0,1-11.18-8.42l-.9-1.28c-.29-.43-.53-.9-.8-1.36a21.33,21.33,0,0,1-1-2.26,12.66,12.66,0,0,1-.43-1.64,2.93,2.93,0,0,1,.16-1.92,2.67,2.67,0,0,1,.3-.61c.2-.22.49,0,.82.62.17.3.32.69.54,1.15s.44,1,.7,1.59A23.61,23.61,0,0,0,196,367.16a14.44,14.44,0,0,0,8.45-1.35,24.17,24.17,0,0,0,7.1-5.51Z"/><path class="cls-1" d="M194.31,347.05a24.22,24.22,0,0,1-11.6,2.56,27.08,27.08,0,0,1-4.31-.39,22.82,22.82,0,0,1-7.16-2.64,16.75,16.75,0,0,1-5.61-5.21,15.09,15.09,0,0,1-2.38-6.39,18.09,18.09,0,0,1,0-4.35,14.92,14.92,0,0,1,1.22-4.13c.37-.81.9-.45,1.23.43a7.51,7.51,0,0,1,.24,3.64,13.68,13.68,0,0,0,.6,7.36,13.48,13.48,0,0,0,4.62,5.91,18.74,18.74,0,0,0,9.12,3.28,23.11,23.11,0,0,0,10.75-1.2,19.07,19.07,0,0,0,5.81-3.35,17.17,17.17,0,0,0,5.61-8.33,15.94,15.94,0,0,0,.18-7.67,11.92,11.92,0,0,0-.41-1.64c-.15-.51-.22-.94-.32-1.29a5.34,5.34,0,0,1-.21-.9,1.72,1.72,0,0,1,.25-1.19,4.06,4.06,0,0,1,.3-.46c.38-.4,1.08.32,1.8,1.89a19.23,19.23,0,0,1,1.34,7.76,17.69,17.69,0,0,1-2.24,7.95,21,21,0,0,1-8.8,8.41Z"/><path class="cls-1" d="M192.64,335.17a14,14,0,0,1-7.78,3.25,25.72,25.72,0,0,1-2.93.27,18.73,18.73,0,0,1-5.24-.58,10.14,10.14,0,0,1-4.73-2.67,11.17,11.17,0,0,1-2.48-4.09,13,13,0,0,1-.82-5.82c.07-.61.69-.51,1.31,0a3.61,3.61,0,0,1,1.33,2.3c.43,3.51,1.78,6.52,5,7.82a14.64,14.64,0,0,0,6.52.67l1.88-.19c.64-.05,1.18-.21,1.78-.31a13.7,13.7,0,0,0,1.69-.61l.82-.37.76-.48a11,11,0,0,0,3.22-3.06,10.8,10.8,0,0,0,2-6.41,12.23,12.23,0,0,0-1.26-5.05c-.17-.35-.36-.68-.51-1-.67-1.27-.78-1.73-.37-2.35a2.42,2.42,0,0,1,.27-.41c.35-.4,1,0,1.69.92a14,14,0,0,1,1.32,2.34,11.23,11.23,0,0,1,.49,1.3,8.84,8.84,0,0,1,.39,1.36,14,14,0,0,1,.06,5.8,13.57,13.57,0,0,1-4.41,7.47Z"/><path class="cls-1" d="M176.66,274.52a23.17,23.17,0,0,1-7.29.79c-.87,0-1.73,0-2.59-.08a36.13,36.13,0,0,1-4.51-.7,22.46,22.46,0,0,1-2.24-.6,7.67,7.67,0,0,1-2.3-1.11,10.74,10.74,0,0,1-2.46-3.55,18.35,18.35,0,0,1-1.67-4.81c-.08-.5.52-.66,1.24-.42a2.91,2.91,0,0,1,1.82,1.72,22.47,22.47,0,0,0,1.83,4.27,6.1,6.1,0,0,0,.57.75,1.44,1.44,0,0,0,.26.25,1.92,1.92,0,0,0,.35.23,15.08,15.08,0,0,0,2.15.84,24.84,24.84,0,0,0,6,.82,28,28,0,0,0,6.67-.29,10.21,10.21,0,0,0,1.88-.53,3.36,3.36,0,0,0,1.4-1,1.18,1.18,0,0,0,.25-.85.45.45,0,0,0-.37-.47l-.32-.08-.18,0-.27,0c-.75-.07-1.53-.09-2.32-.1-1.66,0-3.32.08-5,0-.37,0-.74,0-1.12-.06-1.39-.16-1.8-.43-2-1.11a3.56,3.56,0,0,1-.1-.47c0-.51.6-.79,1.56-.77l4.38,0c1.5,0,3,0,4.69.11a6.78,6.78,0,0,1,2,.43,2.3,2.3,0,0,1,1.39,1.63,4.37,4.37,0,0,1-.13,2.12,2.83,2.83,0,0,1-.21.52l-.3.48a6.09,6.09,0,0,1-.58.66,7,7,0,0,1-2.51,1.4Z"/><path class="cls-1" d="M179.2,280.91a51.17,51.17,0,0,1-6.68.91c-.82.07-1.54.22-2.36.29a17.8,17.8,0,0,1-4.5-.16,21.23,21.23,0,0,1-4.25-1.26c-1.2-.49-2.38-1.05-3.51-1.65a13.72,13.72,0,0,1-4-2.87c-.66-.76,1.79-1.69,3.17-.69a27.68,27.68,0,0,0,8.07,4,7.71,7.71,0,0,0,1.35.28,12.92,12.92,0,0,0,2.78,0c.46,0,.93-.09,1.46-.16,2.22-.22,4.37-.39,6.49-.76a15.24,15.24,0,0,0,3.68-1,3.55,3.55,0,0,0,1-.69,1,1,0,0,0,.33-.8.89.89,0,0,0-.43-.73,4.6,4.6,0,0,0-1.22-.34,32.12,32.12,0,0,0-4.62-.07c-.35,0-.7,0-1.07,0-1.35-.1-1.85-.43-1.93-1.13a1.92,1.92,0,0,1,0-.47c.11-.5.6-.71,1.44-.73,1.29,0,2.71-.13,4.2-.1A16.45,16.45,0,0,1,181,273a7.15,7.15,0,0,1,1.36.32,2.83,2.83,0,0,1,.85.43l.45.32c.12.13.23.28.35.42a3.63,3.63,0,0,1,.63,1.46,3.32,3.32,0,0,1-.14,1.62,4.09,4.09,0,0,1-1.73,2,12.24,12.24,0,0,1-3.54,1.39Z"/><path class="cls-1" d="M178.74,288a36.4,36.4,0,0,1-7.41,1.17,25.09,25.09,0,0,1-2.75.11,15.47,15.47,0,0,1-2.49-.29c-.82-.18-1.55-.4-2.33-.59a30.82,30.82,0,0,1-4.49-1.69,19.52,19.52,0,0,1-3.75-2.21,10.39,10.39,0,0,1-2-2.07,7.16,7.16,0,0,1-1.12-2.59c-.09-.42.45-.72,1.21-.49a3.89,3.89,0,0,1,2,1.4c1.55,2.4,4.64,4,7.87,5.17a18.72,18.72,0,0,0,3,.83,17.38,17.38,0,0,0,3.09.16,35.35,35.35,0,0,0,7-.8,21.21,21.21,0,0,0,2.08-.55c.33-.11.67-.23,1-.36a4.08,4.08,0,0,0,.75-.39.75.75,0,0,0,.29-.32,2.26,2.26,0,0,0,0-.45,1.82,1.82,0,0,0-.64-.91,6,6,0,0,0-2.81-1,25.8,25.8,0,0,0-5.05,0c-.37,0-.74.07-1.13.08-1.41,0-1.88-.14-2.17-.79a2.34,2.34,0,0,1-.19-.44c-.12-.5.46-.89,1.49-1a33.5,33.5,0,0,1,4.79-.32,14.19,14.19,0,0,1,5.35.95,5.28,5.28,0,0,1,1.08.64c.18.14.36.27.53.43s.32.38.47.57a4,4,0,0,1,.64,1.53,4.5,4.5,0,0,1-.06,1.72,3.14,3.14,0,0,1-1.13,1.3,2.49,2.49,0,0,1-.38.25l-.25.14-.5.25a15.77,15.77,0,0,1-1.91.69Z"/><path class="cls-1" d="M172.69,294.87a45.74,45.74,0,0,1-5.38-.23c-.65-.06-1.3-.07-1.95-.17a24.77,24.77,0,0,1-3.43-.75,8.52,8.52,0,0,1-1.75-.7l-1.48-.8a15.14,15.14,0,0,1-2.73-1.68,6.75,6.75,0,0,1-2.32-3.39c-.2-.82,2.32-.79,3,.21a6.47,6.47,0,0,0,2.16,2.13c.48.31,1,.61,1.59.94l.84.51.32.2c.12.06.23.13.37.19a15.28,15.28,0,0,0,4.41.87,43.88,43.88,0,0,0,5.13.32,27.11,27.11,0,0,0,3.13-.15,11.15,11.15,0,0,0,2.23-.46,1.84,1.84,0,0,0,.36-.16,1.15,1.15,0,0,0,.29-.2.65.65,0,0,0,.14-.64,1,1,0,0,0-.3-.43,2.39,2.39,0,0,0-.25-.21,1.85,1.85,0,0,0-.33-.21,7.62,7.62,0,0,0-1.51-.67l-.71-.19c-.87-.23-1-.38-1.19-1,0-.14-.1-.29-.13-.44-.14-.49.44-.94,1.34-.86a7.77,7.77,0,0,1,3.74,1.35c.15.1.31.24.46.36a5.09,5.09,0,0,1,.51.52,4.19,4.19,0,0,1,.75,1.51,2.76,2.76,0,0,1-1.16,2.9,3.48,3.48,0,0,1-.55.36l-.32.15-.2.08a7,7,0,0,1-.77.26,12.17,12.17,0,0,1-1.47.32,24.54,24.54,0,0,1-2.79.26Z"/><path class="cls-1" d="M173,321.86c-.83-2.14-1.67-4.27-2.54-6.38-.32-.77-.7-1.51-1-2.28-1.11-2.73-2.23-5.45-3.42-8.14-.54-1.19-1.13-2.36-1.76-3.49A40.79,40.79,0,0,1,162,297.2c-.18-.48.38-.76,1.12-.68a2.8,2.8,0,0,1,2.14,1.37,65.33,65.33,0,0,1,4.26,9.42c.71,1.94,1.7,3.85,2.53,5.78q1.35,3.21,2.64,6.44l1.58,4c.78,2,1.57,4,2.35,6,.62,1.55,1.34,3,2,4.57.13.35.28.68.4,1,.46,1.3.36,1.85-.18,2.25a3.28,3.28,0,0,1-.38.27c-.46.21-1-.23-1.35-1.08-1.19-2.59-2.37-5.44-3.51-8.3-.85-2.13-1.69-4.28-2.57-6.41Z"/><path class="cls-1" d="M341.81,280.31,339.25,265c-.33-1.85-.71-3.7-1.16-5.47l-.55-2.38c-.19-.79-.49-1.54-.73-2.31s-.48-1.55-.77-2.31l-1-2.22-.49-1.12-.59-1.06L332.81,246a39.18,39.18,0,0,0-2.89-3.89,30.18,30.18,0,0,0-3-3.08,34.2,34.2,0,0,0-3.45-2.56,37.54,37.54,0,0,0-4.83-2.63c-1.68-.8-3.37-1.43-5.14-2.41-.61-.4-.76-.77-.57-.91a2.47,2.47,0,0,1,1.16-.26,10.12,10.12,0,0,1,5,.9,35.74,35.74,0,0,1,10,6.59,34.8,34.8,0,0,1,4,4.52l1.69,2.5,1.41,2.64a58.5,58.5,0,0,1,4.71,13.69c1,5.15,1.8,10.28,2.67,15.42.55,3.15,1.1,6.31,1.64,9.46.87,4.77,1.73,9.56,2.78,14.26.82,3.64,1.81,7.17,2.88,10.68.25.76.5,1.51.76,2.28a25.71,25.71,0,0,1,.9,3,2.43,2.43,0,0,1,0,1.52,2.69,2.69,0,0,1-.22.59c-.16.26-.45.15-.85-.3a8,8,0,0,1-1.35-2.3,70.93,70.93,0,0,1-3.16-9.8c-.88-3.36-1.61-6.79-2.32-10.23-1-5.12-1.95-10.27-2.87-15.41Z"/><path class="cls-1" d="M371.36,340a66.24,66.24,0,0,1-6,9.56,25.62,25.62,0,0,1-8.68,7.63,13.92,13.92,0,0,1-4.22,1.31,12,12,0,0,1-4.44-.24,19.51,19.51,0,0,1-5.21-2.27,14.37,14.37,0,0,1-1.55-1,26.91,26.91,0,0,1-5.32-5.12,47.2,47.2,0,0,1-6.85-12.72c-1.5-4-2.75-8.05-3.9-12.07-1.49-5.16-2.9-10.35-4.32-15.44-.46-1.58.19-1.6,1.22-.45a17.2,17.2,0,0,1,3.2,6.51c1.47,5.3,2.76,10.59,4.38,15.74a62.29,62.29,0,0,0,6.38,14.72,24.31,24.31,0,0,0,6.53,7c2.64,1.84,5.69,3.24,8.73,3.11,3.37-.11,6.5-2,9.05-4.52a43,43,0,0,0,6.57-8.63A102.71,102.71,0,0,0,373,331c2.72-6.32,5.09-12.84,7.22-19.35,1.66-5.07,3.07-10.1,4.67-15.15.35-1.11.68-2.21,1.07-3.32,1.46-4.13,2.31-5.39,3.32-5.92a3,3,0,0,1,.69-.32c.62-.07.05,1.51-.94,4.47-1.48,4.4-2.82,9.06-4.28,13.75s-3,9.45-4.66,14.18a165.53,165.53,0,0,1-8.7,20.74Z"/><path class="cls-1" d="M382.32,211.5c.56,1.05,1.16,2.12,1.72,3.27a14.9,14.9,0,0,1,.78,1.85,6.76,6.76,0,0,1,.39,2.13,34.1,34.1,0,0,1-.57,7.56c-.29,1.78-.57,3.56-1,5.3-1.4,6.16-3.29,12.15-5.23,18.11-.86,2.64-1.72,5.3-2.57,7.93a93.23,93.23,0,0,1-3.63,10c-.92,2-2.09-1.43-.74-5.24,2.4-6.77,4.73-13.56,7-20.43a109.29,109.29,0,0,0,3.24-12.82,67.87,67.87,0,0,0,1.08-7.13l.08-1.77c0-.59,0-1.15-.06-1.73a9.32,9.32,0,0,0-1.12-3.11c-.67-1.3-1.44-2.61-2.13-4a12.32,12.32,0,0,1-1.47-4.6c0-.33,0-.68.06-1s.19-.68.3-1,.36-.61.57-.9a5.33,5.33,0,0,1,.76-.69,14.27,14.27,0,0,1,3.21-1.67,34.43,34.43,0,0,1,6.72-1.88,14,14,0,0,1,2.78-.24c.25,0,.52.05.77.08l.69.16.71.23a4.05,4.05,0,0,1,.79.42,2.13,2.13,0,0,1,1.06,1.53,2.83,2.83,0,0,1-.55,1.83,7.56,7.56,0,0,1-1,1.16,12.77,12.77,0,0,1-1.06.91c-.63.5-1.25,1-1.91,1.4-2.48,1.57-3.29,1.83-4.13,1.65-.19,0-.42-.05-.58-.09s-.25-.45.12-.92a8.78,8.78,0,0,1,1.87-1.61,45.42,45.42,0,0,0,3.64-2.73,10.19,10.19,0,0,0,.74-.72c.22-.25.37-.46.33-.44a.12.12,0,0,0-.11-.14c-.07,0-.39-.14-.72-.23-.15,0-.35-.09-.47-.1s-.22,0-.38,0a12.52,12.52,0,0,0-2.11.18,33.56,33.56,0,0,0-4.52,1.13,26.51,26.51,0,0,0-3.17,1.27c-.24.13-.49.25-.7.39l-.32.19-.27.2-.13.1-.08.08c0,.06-.12.08-.15.16s-.2.23-.21.4a3.93,3.93,0,0,0,.23,2.5,23.11,23.11,0,0,0,1.46,3.09Z"/><path class="cls-1" d="M362.41,292l-2.13,3.92c-.26.48-.46,1-.74,1.46-1,1.66-2,3.28-3,4.9-.45.72-.88,1.47-1.31,2.21a7,7,0,0,1-2.15,2.69c-.35.22-.66-.33-.87-1s-.39-1.3-.06-1.73c1.15-1.62,2.31-3.45,3.63-5.21a26.5,26.5,0,0,0,2-3.5l2.1-3.91c.42-.81.85-1.62,1.25-2.44.61-1.24,1.24-2.48,1.76-3.75.4-1,.67-2,1-3,.07-.23.12-.45.2-.67.3-.82.56-1,1.22-.93.15,0,.31,0,.45.05.49.12.73.6.61,1.25A24.64,24.64,0,0,1,364.4,288c-.6,1.37-1.27,2.71-1.93,4.06Z"/><path class="cls-1" d="M390.39,173.38c-.13-.55-.28-1.1-.44-1.63l-.21-.66,0-.13a.74.74,0,0,0-.15-.31.16.16,0,0,0-.27,0,1.41,1.41,0,0,0-.13.41,2,2,0,0,0,0,.27l0,.41c0,.26-.05.54-.07.81l-.12,1.64c-.31,3.88-.46,7.82-.53,11.75,0,1.75,0,3.5.11,5.23a53.37,53.37,0,0,1,.15,6.69c-.11,1.39-2.49-.28-2.59-2.86a119.38,119.38,0,0,1,.2-13.76c.21-2.75.15-5.63.39-8.48l.11-1.06.15-1.17a6.35,6.35,0,0,1,.92-2.86,1.7,1.7,0,0,1,1.32-.71,2,2,0,0,1,1.36.67,5.1,5.1,0,0,1,1,1.5,9.22,9.22,0,0,1,.39.91l.14.38.1.32a42.32,42.32,0,0,1,1.33,5.67c.51,2.87.81,5.77,1.05,8.65.19,2.24.42,4.44.4,6.7,0,.5,0,1-.05,1.51-.19,1.89-.61,2.52-1.33,2.69a2.46,2.46,0,0,1-.5.1c-.53,0-.63-.78-.56-2a82.86,82.86,0,0,0-.6-11.8,69.06,69.06,0,0,0-1.52-8.91Z"/><path class="cls-1" d="M406.26,180c.31-1.27.59-2.55.78-3.82l0-.21v0l0-.1,0-.21a1.57,1.57,0,0,0,0-.53c0-.06,0-.13-.11-.14a.19.19,0,0,0-.16.09c-.08.09-.14.19-.21.27l-.18.24-.1.14,0,0-.08.14-.14.28c-.39.75-.77,1.52-1.14,2.29-.74,1.55-1.44,3.12-2.13,4.71-.62,1.4-1.16,2.85-1.7,4.28a27,27,0,0,1-2.38,5.44c-.36.54-.87.16-1.18-.57a3.7,3.7,0,0,1,0-2.81c1.51-3.64,3-7.35,4.89-11,.57-1.08,1.08-2.21,1.62-3.35l.21-.43.35-.69c.25-.44.47-.93.74-1.32A4.56,4.56,0,0,1,407,171a1.58,1.58,0,0,1,1-.24,1.35,1.35,0,0,1,.9.63,4.87,4.87,0,0,1,.67,2.39,13.94,13.94,0,0,1,0,1.57l-.07.8-.08.54c-.1.7-.23,1.38-.37,2.06-.34,1.66-.77,3.3-1.21,4.92-.68,2.46-1.49,4.88-2.26,7.28-.6,1.87-1.11,3.74-1.78,5.59-.14.41-.27.82-.45,1.22-.65,1.5-1.12,1.93-1.86,1.87a1.86,1.86,0,0,1-.48-.06c-.48-.19-.47-.85-.11-1.89,1.05-3.14,2.17-6.57,3.24-10,.79-2.55,1.56-5.12,2.15-7.7Z"/><path class="cls-1" d="M396.92,213.08a6.17,6.17,0,0,0,1.43-1,13,13,0,0,0,1.35-1.4c.32-.38.58-.81.9-1.2a28.9,28.9,0,0,0,3-4.37,6.19,6.19,0,0,0,.7-2.1,2.13,2.13,0,0,0-.08-1,1.34,1.34,0,0,0-.41-.52,1.18,1.18,0,0,1,.37-1.25,1.39,1.39,0,0,1,1.12-.39,1.6,1.6,0,0,1,1.25.88,3.82,3.82,0,0,1,.26.74,4.54,4.54,0,0,1,.1.7,5.1,5.1,0,0,1-.08,1.13,7.6,7.6,0,0,1-.56,1.82,13.24,13.24,0,0,1-1.78,2.93c-.83,1-1.49,2.23-2.31,3.29-.46.58-.93,1.15-1.45,1.71a11.36,11.36,0,0,1-1.76,1.55,6.32,6.32,0,0,1-1.36.74,4.11,4.11,0,0,1-.9.21,2.41,2.41,0,0,1-1-.1,2.1,2.1,0,0,1-1.14-.87,3,3,0,0,1-.32-.65,2.86,2.86,0,0,1-.15-.61,6.59,6.59,0,0,1,.08-2.27,10.58,10.58,0,0,1,1.08-3.21,5.32,5.32,0,0,1,.39-.65c.58-.76,1-.83,1.52-.48a3,3,0,0,1,.37.25,1,1,0,0,1,.15,1.31,13.53,13.53,0,0,0-.93,2.16,6.36,6.36,0,0,0-.36,2.11,2.72,2.72,0,0,0,.08.54s0,0,0,0a.05.05,0,0,0,0,0,.89.89,0,0,0,.37-.14Z"/><path class="cls-1" d="M404.62,214a26.3,26.3,0,0,0,2.5-3c.27-.39.47-.82.72-1.22a13.35,13.35,0,0,0,1.93-4.46,3.44,3.44,0,0,0-.13-1.89.74.74,0,0,0-.23-.29c-.06,0-.06,0-.08,0a3.43,3.43,0,0,0-.68.22c-.22.09-.67-.35-.84-1a1.56,1.56,0,0,1,.1-1.07,1.48,1.48,0,0,1,1.27-.78,2.65,2.65,0,0,1,1.81.57,3.08,3.08,0,0,1,.93,1.23,5.07,5.07,0,0,1,.36,2.13,8.63,8.63,0,0,1-.9,3.4c-.6,1.2-1.06,2.46-1.76,3.58a26.18,26.18,0,0,1-2.58,3.42c-.57.65-1.18,1.27-1.84,1.9a9.69,9.69,0,0,1-1.74,1.23l-.57.21a1.72,1.72,0,0,1-.62.16,1.89,1.89,0,0,1-.67,0,1.6,1.6,0,0,1-.64-.17,2.36,2.36,0,0,1-1.29-1.57,3.72,3.72,0,0,1,0-2,3.81,3.81,0,0,1,.31-.79c.59-.91,1.06-1,1.57-.57a2.3,2.3,0,0,1,.34.28,1.19,1.19,0,0,1,.19,1.24,1.79,1.79,0,0,0-.12.42,1.44,1.44,0,0,0-.06.4,1.87,1.87,0,0,0,0,.34c0,.08,0,.07.06.09a.1.1,0,0,0,.08,0s0,0,.05,0l.18-.07.3-.19a3.73,3.73,0,0,0,.64-.47,6,6,0,0,0,.66-.59,8.84,8.84,0,0,0,.65-.69Z"/><path class="cls-1" d="M390.32,260.63c.6-2,1.19-3.94,1.75-5.92.21-.73.35-1.47.55-2.19.74-2.54,1.5-5.08,2.18-7.63.31-1.14.54-2.29.74-3.44a29.63,29.63,0,0,1,.86-4.35c.15-.43.76-.31,1.29.17a2.48,2.48,0,0,1,.84,2.2,57.79,57.79,0,0,1-2.37,9c-.61,1.76-1,3.65-1.46,5.48l-1.71,6-1.07,3.69c-.54,1.87-1.12,3.73-1.61,5.59-.39,1.45-.64,2.9-1,4.36-.07.32-.14.65-.24,1-.34,1.18-.73,1.57-1.4,1.53a2.38,2.38,0,0,1-.46,0c-.48-.13-.66-.72-.51-1.52.44-2.55,1.13-5.23,1.87-7.91.56-2,1.12-4,1.69-6Z"/><path class="cls-1" d="M374.5,269.72a21,21,0,0,0,3.89,2.27q2.17.94,4.4,1.76l1.63.52c.55.16,1.1.3,1.64.47a23.6,23.6,0,0,0,5.78,1c1.87,0,3.75-.46,4.14-2a6.5,6.5,0,0,0-1-4.62,25.94,25.94,0,0,0-4.19-5.1c-.48-.49-.07-1,.8-1a4,4,0,0,1,3.19,1.41A17.94,17.94,0,0,1,397,267.6a12,12,0,0,1,1.4,3.85,7.23,7.23,0,0,1,0,2.28,5.07,5.07,0,0,1-1,2.32,4.86,4.86,0,0,1-2,1.43,7,7,0,0,1-2.12.48,26.85,26.85,0,0,1-9.16-1.31c-.79-.24-1.56-.52-2.35-.78l-2.3-.88-2.26-.94a20.14,20.14,0,0,1-2.26-1.19,26.86,26.86,0,0,1-4.89-3.74,15.64,15.64,0,0,1-2.93-3.71,10,10,0,0,1-1.35-4.62,8.06,8.06,0,0,1,.18-1.9,4.86,4.86,0,0,1,.66-1.9,5.41,5.41,0,0,1,3.35-2.25,9.44,9.44,0,0,1,1.64-.3c2-.13,2.63.16,3,.81a2.46,2.46,0,0,1,.24.45c.15.52-.67.84-2,1a11.54,11.54,0,0,0-2.7.53,2.76,2.76,0,0,0-1.6,1.22,3.12,3.12,0,0,0-.18.42l-.12.62a4.91,4.91,0,0,0-.13,1.26,9,9,0,0,0,.13,1.26,12.49,12.49,0,0,0,.43,1.26c1,2.49,3.34,4.69,5.82,6.44Z"/><path class="cls-1" d="M381.76,288.77a29,29,0,0,1-10.23-3.71,25.42,25.42,0,0,1-7.32-7,23.3,23.3,0,0,1-2.27-3.94,9.33,9.33,0,0,1-.95-5.83c.13-.63.73-.4,1.3.12a4.23,4.23,0,0,1,1.26,2.15,14.47,14.47,0,0,0,1.73,4.68,26.13,26.13,0,0,0,3.06,4.32,19.83,19.83,0,0,0,5.26,4,24.29,24.29,0,0,0,6.85,2.6,21.43,21.43,0,0,0,11.3-.65,18.77,18.77,0,0,0,2.42-1.08c.76-.46,1.53-.88,2.24-1.39.32-.22.62-.46.94-.67,1.18-.83,1.62-1,2.27-.66a3.61,3.61,0,0,1,.44.23c.42.31.17,1-.68,1.77a21,21,0,0,1-9.46,4.78,23.33,23.33,0,0,1-8.16.36Z"/><path class="cls-1" d="M207.09,409c.79-1.92,1.49-3.87,2.24-5.81s1.36-3.92,2-5.89l1.25-4.37a154.12,154.12,0,0,0,3.77-15.57c.21-1.17.41-2.34.59-3.52l.39-3.52c.37-3,.36-6,.85-9,.31-1.88,2.44.63,2.2,4.19-.06.78-.1,1.56-.19,2.35l-.28,2.33c-.21,1.56-.38,3.12-.66,4.67s-.59,3.09-.88,4.63-.74,3.07-1.11,4.6c-.23.92-.45,1.85-.68,2.78l-.72,2.8-.69,2.82c-.26.94-.53,1.87-.8,2.79l-.9,3.05-1,3c-.66,2-1.41,4-2.16,6-.44,1.23-.93,2.44-1.44,3.64s-1,2.42-1.5,3.61c-.81,1.8-1.57,3.62-2.46,5.39l-1.27,2.67-1.33,2.63c-1.36,2.72-2.7,5.4-4.18,8.05-.33.57-.66,1.14-1,1.71a9.79,9.79,0,0,1-1.6,2.13,1.87,1.87,0,0,1-1.2.58,2.62,2.62,0,0,1-.55,0c-.53-.11-.28-1.17.63-2.68,2.6-4.59,5.22-9.52,7.64-14.57l1.34-2.83,1.26-2.86c.88-1.9,1.63-3.85,2.42-5.79Z"/><path class="cls-1" d="M331.27,403c-.86-5.65-1.61-11.31-2.32-17-.25-2.07-.57-4.12-.8-6.19-.81-7.3-1.47-14.61-2-21.93-.28-3.24-.56-6.5-.84-9.72a115.32,115.32,0,0,1-.68-12.46c.08-2.59,2.47.61,2.76,5.34.52,8.41,1.17,16.82,1.74,25.32.35,5.08,1.08,10.34,1.71,15.51.69,5.69,1.42,11.38,2.26,17.05.52,3.49,1.06,7,1.67,10.45.92,5.26,1.91,10.53,3.17,15.67a91.88,91.88,0,0,0,3.68,11.58c.33.81.68,1.6,1.06,2.38.68,1.47,1.19,2.35,1.52,3a4.61,4.61,0,0,1,.55,1.4c0,.21.17.4.21.59a.22.22,0,0,1-.18.3,1.35,1.35,0,0,1-.85-.13,5.68,5.68,0,0,1-2.29-2.19,30,30,0,0,1-2.56-5.18c-.7-1.78-1.31-3.6-1.86-5.44-1.11-3.69-2-7.47-2.84-11.27-1.21-5.64-2.19-11.34-3.11-17Z"/><path class="cls-1" d="M322.52,442.08c-2.75-.91-5.49-1.82-8.25-2.67-1-.31-2-.55-3-.85-3.55-1.08-7.11-2.1-10.72-2.93-1.6-.37-3.23-.65-4.85-.88-2.07-.3-4.17-.4-6.21-.89-1.29-.31.61-2.45,3.07-2.15a72.87,72.87,0,0,1,12.78,2.79c2.5.78,5.16,1.35,7.71,2.11,2.82.82,5.6,1.72,8.38,2.62l5.13,1.65c2.59.81,5.19,1.64,7.8,2.22a23.38,23.38,0,0,0,6,.57,12,12,0,0,0,1.22-.15,6.81,6.81,0,0,0,.87-.18c.24,0,.42-.08.57-.1a1.8,1.8,0,0,1,.9.18c.15.07.34.12.47.19s.3.38.1.75a1.48,1.48,0,0,1-.49.59,2.9,2.9,0,0,1-.88.53,8.78,8.78,0,0,1-3.17.61,18.36,18.36,0,0,1-3.07-.16,48.1,48.1,0,0,1-5.89-1.24c-2.85-.77-5.65-1.68-8.44-2.55Z"/><path class="cls-1" d="M256.85,418.19c1.32-4.91,2.33-9.94,3.22-15s1.64-10.13,2.32-15.22c.5-3.72.89-7.46,1.34-11.18,1.56-13.14,2.87-26.32,4.23-39.5.59-5.86,1.19-11.74,1.78-17.55.41-3.73.82-7.48,1.4-11.21.29-1.87.61-3.74,1-5.59a24.73,24.73,0,0,1,1.83-5.53c.59-1.16,1.32-1.5,1.41-1.28s-.11.84-.22,1.81c-.29,1.93-.55,5.46-1.24,9.67-1.22,7.47-2,15.08-2.85,22.68s-1.62,15.25-2.51,22.92c-1.06,9.17-1.89,18.75-3,28.13-1.27,10.32-2.69,20.64-4.86,30.85-.68,3.14-1.43,6.26-2.36,9.36a47,47,0,0,1-3.59,9.05,18.58,18.58,0,0,1-5,5.65,39.4,39.4,0,0,1-6.27,3.93,78.24,78.24,0,0,1-13.63,5.21A107.59,107.59,0,0,1,208,449.45c-1.64.11-3.25.21-4.92.2a34.07,34.07,0,0,1-6.54-.54,6.49,6.49,0,0,1-2.77-1.12,5.29,5.29,0,0,1-.75-.6c-.42-.66,2-.29,6.33-.14a92.47,92.47,0,0,0,19.8-1.7,96.2,96.2,0,0,0,19.59-5.73,51.58,51.58,0,0,0,6.71-3.42,23.93,23.93,0,0,0,5.62-4.6,21.71,21.71,0,0,0,3.46-6.34,70.6,70.6,0,0,0,2.29-7.27Z"/><path class="cls-1" d="M287.72,397.24c.83-7.73,1.46-15.49,2-23.26.18-2.84.35-5.68.53-8.51l2.15-30c.33-4.44.67-8.91,1-13.31.24-2.84.48-5.68.85-8.52a40.33,40.33,0,0,1,1.84-8.48c.73-1.76,1.17-1.17,1.24.39A38.56,38.56,0,0,1,297,313c-.78,5.65-1.27,11.41-1.77,17.17s-1,11.56-1.45,17.37c-.6,7-.9,14.22-1.38,21.35-.53,7.84-1.12,15.68-1.85,23.52q-.68,7.23-1.58,14.44-.71,5.46-1.71,10.91a61.78,61.78,0,0,1-2.92,10.69,15.73,15.73,0,0,1-.95,2,7,7,0,0,1-1.35,1.86,7.58,7.58,0,0,1-4.13,2.05,12.41,12.41,0,0,1-4.47-.15c-.72-.14-1.47-.37-2-.5a11.89,11.89,0,0,0-1.89-.22,23.49,23.49,0,0,0-3.49.27,17.13,17.13,0,0,1-5.05.2,3.45,3.45,0,0,1-2.16-1,3.06,3.06,0,0,1-.49-.62c-.12-.3.3-.39,1.08-.35a21.5,21.5,0,0,0,3.53-.14c2.34-.25,4.92-1,7.81-.66.36.05.72.09,1.08.16l1,.26a16.62,16.62,0,0,0,1.7.37,9.12,9.12,0,0,0,3.3,0,5.09,5.09,0,0,0,2.59-1.37,10.46,10.46,0,0,0,1.66-2.86,45.62,45.62,0,0,0,2.16-7.28,215.39,215.39,0,0,0,3.35-23.15Z"/><path class="cls-1" d="M217.69,448.07c3.19-.65,6.37-1.41,9.5-2.36,1.14-.36,2.27-.75,3.39-1.13a93.78,93.78,0,0,0,11.69-4.69A39.35,39.35,0,0,0,247,437c.48-.34,1-.67,1.43-1s.88-.77,1.34-1.13c.94-.71,1.7-1.54,2.67-2.22.6-.43.91-.08.87.74a4.44,4.44,0,0,1-1.52,3.19A44.12,44.12,0,0,1,238.64,444c-2.81,1.05-5.67,2.29-8.58,3.24-3.2,1-6.44,1.94-9.72,2.66l-3,.66-3.05.54c-3.09.54-6.22.87-9.32,1.13-1.2.14-2.41.14-3.6.24a31.2,31.2,0,0,1-3.62.07c-.54,0-1.06,0-1.6,0-2-.28-2.62-.55-2.9-1.24a2.34,2.34,0,0,1-.18-.48c-.07-.51.79-.78,2.16-.7A88.2,88.2,0,0,0,208,449.6c1.61-.22,3.23-.42,4.85-.67s3.24-.55,4.84-.92Z"/><path class="cls-1" d="M322.31,444.78c-2.67-1.14-5.34-2.28-8-3.34-1-.4-2-.71-3-1.09-3.47-1.34-7-2.59-10.53-3.63-1.58-.47-3.2-.84-4.8-1.15a52.06,52.06,0,0,1-6.18-1.26c-.62-.23-.46-.73.18-1.21a4.05,4.05,0,0,1,3-.73,68.27,68.27,0,0,1,12.67,3.52c2.46.94,5.08,1.7,7.59,2.65,2.76,1,5.48,2.17,8.19,3.3l5,2.08a69,69,0,0,0,7.63,2.75,17.14,17.14,0,0,0,5.92.63,9,9,0,0,0,1.19-.21c.36-.08.64-.19.89-.23a2.29,2.29,0,0,1,.61-.14,1.42,1.42,0,0,1,.94.18,3.77,3.77,0,0,1,.45.23c.22.16.25.41.05.75a2.42,2.42,0,0,1-.46.56,6,6,0,0,1-.83.53,9.52,9.52,0,0,1-3.16.78,15.76,15.76,0,0,1-3.16-.16,34.28,34.28,0,0,1-5.92-1.53c-2.83-1-5.55-2.12-8.28-3.22Z"/><path class="cls-1" d="M216.61,456.29c.16-.55.31-1.11.47-1.65,0-.2,0-.41.09-.61.21-.71.44-1.4.62-2.11a4.33,4.33,0,0,0,.11-.95,2,2,0,0,1,.18-1.21c.15-.24,2,.26,2,.74a6.24,6.24,0,0,1-.54,2.49,6.17,6.17,0,0,0-.29,1.53l-.36,1.67c-.08.35-.16.69-.22,1a10.55,10.55,0,0,0-.25,1.56,6.48,6.48,0,0,0,.16,1.23,2.56,2.56,0,0,1,.05.27c0,.33-.16.42-.77.43h-.42a1,1,0,0,1-1-.44,4.27,4.27,0,0,1-.22-2.31c.07-.57.2-1.13.32-1.69Z"/><path class="cls-1" d="M329.15,453.11c.07-.46.13-.92.16-1.37,0-.17,0-.33,0-.49a11.55,11.55,0,0,0,.06-1.76,2.25,2.25,0,0,0-.19-.73c-.13-.3-.35-.54-.28-.91,0-.11.46-.3.92-.39s1-.08,1.05.13a4.17,4.17,0,0,1,.29,2.31,7,7,0,0,0,.07,1.37c0,.49,0,1-.06,1.47l-.06.9A10.09,10.09,0,0,0,331,455a5.2,5.2,0,0,0,.27,1,2,2,0,0,1,.07.23c0,.27-.1.36-.67.42l-.38,0a1,1,0,0,1-.91-.29,3.39,3.39,0,0,1-.39-1.89c0-.46.06-.93.08-1.39Z"/><path class="cls-1" d="M292.67,333.37c-11.41,1.36-21-5.72-21-5.72l1.74-15.28a27.7,27.7,0,0,0,20.16,7.32Z"/><path class="cls-1" d="M278.59,317.84a29.85,29.85,0,0,1-3.12-2l-.64-.48-.1-.1-.24-.26c-.07,0-.07.18-.11.29l0,.22-.13.93c-.18,1.35-.29,2.71-.47,4.06l-.5,3.57-.25,1.78-.13.89-.06.33a12.28,12.28,0,0,0,2.3,1.53c1,.59,2.06,1.1,3.13,1.59a26.08,26.08,0,0,0,5.93,1.83,42.06,42.06,0,0,0,7.84.51c.81,0,.81.64.14,1.3a4.84,4.84,0,0,1-1.48.93,6.59,6.59,0,0,1-2.23.37,28.57,28.57,0,0,1-8.57-1.71,32.28,32.28,0,0,1-7.72-4l-.73-.51-.84-.63c-.22-.07-.08-.3-.09-.47l.06-.53.12-1c.11-.84.21-1.69.32-2.54l.6-5.12.43-3.31.33-2.62.16-1.32.08-.66,0-.32c0-.11.06-.11.08-.19l1.49,1.46.73.69.72.59c.22.18.52.44.67.54l.45.33c.29.23.61.43.92.63a26.42,26.42,0,0,0,6,3,27,27,0,0,0,5,1.22c.84.16,1.69.15,2.54.23.47,0,1.13,0,1.68,0l.87,0h.6v.29c-.05.9-.09,1.81-.14,2.71l-.05,2c0,1.34-.06,2.67-.08,4,0,.59,0,1.17,0,1.76-.1,2.2-.31,2.89-1,3.32a2.83,2.83,0,0,1-.46.28c-.5.18-.85-.74-.89-2.36-.06-2.4,0-4.86.07-7.35,0-.62.05-1.25.07-1.87l0-.38h0l-.39,0c.07,0-.85,0-1.48-.08a25.64,25.64,0,0,1-5.88-1.1,28.25,28.25,0,0,1-5.5-2.29Z"/><path class="cls-1" d="M291.25,353.42C281.46,355,269.62,347,269.62,347L268,360.68s6,5.53,22.48,4.58Z"/><path class="cls-1" d="M274.07,365.21a24.36,24.36,0,0,1-5.33-2.38c-.23-.14-.4-.26-.67-.44a11.43,11.43,0,0,1-1-.75c-.13-.14-.34-.25-.42-.41l0-.6c0-.2,0-.41.07-.62l.07-.53.37-2.73c.18-1.33.28-2.66.47-4l1.06-7.68c1,.67,2,1.34,2.89,1.92l.68.41.43.26.86.5c1.14.66,2.33,1.25,3.53,1.82a31.23,31.23,0,0,0,5.8,2,31.73,31.73,0,0,0,7.61.66c.79,0,.82.62.18,1.29a4.2,4.2,0,0,1-1.46,1,5.84,5.84,0,0,1-2.24.33,28.66,28.66,0,0,1-8.37-2,40.74,40.74,0,0,1-7.51-3.88,5.78,5.78,0,0,0-.59-.47,2.18,2.18,0,0,0-.1.52l-.16,1.38-.45,3.78-.71,5.37,0,.27c0,.08.13.12.19.18l.12.09.23.16c.18.12.37.23.56.34a19.32,19.32,0,0,0,2.37,1.17A30.7,30.7,0,0,0,279,364a46.27,46.27,0,0,0,10.09.63l.55,0c.07,0,.22,0,.23-.07v-.84l0-1,.06-3.93c0-.58,0-1.15,0-1.73.09-2.17.3-2.84,1-3.27a3.68,3.68,0,0,1,.45-.28c.51-.17.86.73.91,2.32.07,2.36,0,4.78,0,7.23l0,1-.1,1.82,0,.92v.11s-.07,0-.11,0h-.23l-.45,0-1.84.07-1.11.05c-.32,0-.64,0-1,0l-1.91,0a42.17,42.17,0,0,1-11.37-1.72Z"/><path class="cls-1" d="M288.62,394s-10.95-.16-16.95-1.27-6.94-5.21-6.94-5.21l-3.16,19.9s12.84,6.31,24.84,2.05Z"/><path class="cls-1" d="M268,411.21c-1.12-.29-2.21-.65-3.3-1-.54-.19-1.08-.4-1.62-.61l-.84-.36c-.45-.21-.89-.39-1.34-.61l-.67-.33-.09,0s0-.06,0-.09l0-.19.06-.37c.06-.49.16-1,.24-1.49l.3-1.71.58-3.29.77-4.8,1.47-8.25c.24-.14.48-.28.71-.43l.35-.23s.06-.05.08-.05l0,.06.07.11a2.4,2.4,0,0,0,1.42.7l.35.59a2,2,0,0,0,.36.51l.37.38.18.19.12.1a9,9,0,0,0,1,.71,10.1,10.1,0,0,0,2.31,1,42.44,42.44,0,0,0,7.38,1c3.21.2,6.45.17,9.66.5,2,.19-.58,2.5-4.36,2.36-3.11-.13-6.22-.33-9.36-.76-.78-.11-1.57-.23-2.36-.39a13.87,13.87,0,0,1-2.48-.67,10.2,10.2,0,0,1-2.37-1.21,8.87,8.87,0,0,1-1.05-.82,1.66,1.66,0,0,1-.18-.24,3.56,3.56,0,0,1-.17-.34,1.86,1.86,0,0,1-.1-.25l0-.11c0-.05,0-.08,0,0l0,.13-.08.32-.07.33-.08.45c-.12.73-.23,1.47-.35,2.2l-.72,4.41L263,405.12l-.25,1.38a2.15,2.15,0,0,0,0,.34l.32.15.18.09.34.14.76.3c.51.2,1,.4,1.54.57a38.88,38.88,0,0,0,7.88,1.84,33.75,33.75,0,0,0,6.11.19,27.76,27.76,0,0,0,3-.42,15,15,0,0,0,1.48-.33l1.22-.38.16-.05.08,0s0-.06,0-.08l0-.34.12-1.06c.09-.79.18-1.58.26-2.38.17-1.58.33-3.16.5-4.75.07-.69.14-1.38.22-2.08.33-2.61.61-3.41,1.32-3.88a2.59,2.59,0,0,1,.49-.3c.52-.18.78.94.65,2.86-.19,2.85-.48,5.76-.83,8.71-.09.74-.18,1.48-.28,2.22l-.18,1.4c-.18.67.08,1.72-.9,1.7l-1.75.54a9.35,9.35,0,0,1-1.15.32c-.79.16-1.57.35-2.36.47a35.52,35.52,0,0,1-14-1Z"/><path class="cls-2" d="M134.55,138.54l-10.83,23.15,17.56,44.19,8.7,21.8,4.38,10.89,2.2,5.44c.75,1.84,1.46,3.59,2.27,5.49.68,1.52,3-.22,2.56-1.2-1.47-3.48-3-7.18-4.41-10.79l-4.38-10.88-8.7-21.8-17.11-43.05,10.31-22C137.57,138.76,135,137.56,134.55,138.54Z"/><path class="cls-2" d="M142.05,137.73l-16.79,23c-.21.26,2.1,2,2.28,1.67l16.79-23C144.48,139.19,142.19,137.52,142.05,137.73Z"/><path class="cls-1" d="M108.82,138.4c21,1.24,42.2,2.19,63.28,1.74.42,0,2-.28,2-.94.64-10.74,1.21-21.48,1.61-32.22,0-.33-.69-.34-.86-.35l-64.67-2.45c-.42,0-2,.29-2,.94-.7,11,.15,22,.1,32.95,0,.73,2.89.25,2.89-.77.06-10.87-.8-21.74-.11-32.6l-2,.94,40.18,1.53,21.38.81c.47,0,2-.2,2.41.09.84.62,0,1.56-.3,3.17-.73,4.4-.41,9.27-.64,13.73q-.37,7.34-.82,14.65l2-.94c-20.86.44-41.81-.48-62.64-1.71C109.84,136.92,107.28,138.31,108.82,138.4Z"/><path class="cls-1" d="M131.71,112.83l-.05,5.49c0,.67.08,1.34.07,2,0,2.36-.09,4.72-.14,7.07,0,1,.06,2.09.14,3.12a15.13,15.13,0,0,1,.09,4c-.09.5-.78.33-1.45,0a2.21,2.21,0,0,1-1.38-1.69,57.27,57.27,0,0,1,.14-8.17c.15-1.64,0-3.34,0-5v-8.93l0-2.58,0-1.28-.09-1.81h0l1.26-.64.31-.17.22-.12.42-.25,1.69-1c.25-.14.48-.31.74-.44,1-.5,1.35-.48,1.86.07a3.07,3.07,0,0,1,.34.38c.33.45.12,1-.52,1.53a24.8,24.8,0,0,1-2.28,1.49l-1.21.67-.15.08h0v0c0,.09,0-.27.05.61.08,1.84.09,3.69.13,5.54Z"/><path class="cls-1" d="M145.79,113.74l0,5.5c0,.67.07,1.33.06,2,0,2.35-.09,4.71-.13,7.06,0,1,0,2.09.13,3.13a14.71,14.71,0,0,1,.09,4c-.09.49-.77.32-1.45,0a2.21,2.21,0,0,1-1.38-1.7,57.27,57.27,0,0,1,.14-8.17,49.32,49.32,0,0,0,0-5v-5.53l0-3.41,0-2.57,0-1.29L143,106h0l1.26-.64.32-.16.21-.13.42-.25,1.69-1c.25-.15.49-.31.75-.45.95-.49,1.34-.47,1.85.07a3,3,0,0,1,.34.38c.33.45.12,1-.52,1.53A24.8,24.8,0,0,1,147,106.8l-1.21.67-.15.08h0s0,0,0,0,0-.27,0,.62c.08,1.83.09,3.68.13,5.53Z"/><path class="cls-1" d="M170.11,268.37a33.61,33.61,0,0,1-7.65-1.42l-5.37-12.14.32-5.37,4.25-2Z"/><path class="cls-2" d="M171,267.61a7,7,0,0,0-.54-1.56l-.62-1.54-1.24-3.06-2.48-6.12-2.48-6.13-.83-2-.31-.77-.16-.38s0-.16-.09-.16l-.19.09-1.5.7-3.52,1.64-.75.35a2.87,2.87,0,0,0-.1.8l-.06,1.15-.1,1.65-.09,1.65L155.9,255c0,.14.09.26.13.39l.13.29.17.38,2.68,6,1.34,3,.67,1.51.52,1.17c0,.06.05.14.1.18l.2.05.4.11.62.18a33.2,33.2,0,0,0,6.72,1.22c.64.06.73-2.28.16-2.3a31.2,31.2,0,0,1-6.26-1.17l-.17,0h0l-.15-.34-.67-1.51-1.33-3-2.66-6.05-.17-.38c0-.08,0-.09,0-.08h0l0-.57.1-1.65.1-1.65,0-.41v-.09h0l2.47-1.14c.05.11-.2-.45.4,1l2.47,6.12,2.48,6.13,1.23,3.06.62,1.54a7.82,7.82,0,0,0,.71,1.49C169.29,268.83,171,268.12,171,267.61Z"/><path class="cls-1" d="M173.14,295.05c2.35.89,4.22-3.52,6.59,1.05l6.15,13.74-5.4,2.53Z"/><path class="cls-2" d="M172.33,295.75c.57,1.87,1.4,3.64,2.15,5.45l2.29,5.39,2.41,5.66.58,1.35c.05.1.08.26.15.3l.34-.15.66-.32,1.89-.88,2.76-1.3,1.32-.62.33-.15.17-.08-.08-.17-.29-.67-.88-1.94-1.2-2.68-2.41-5.36-1.21-2.67-.61-1.35-.43-.74c-.15-.24-.35-.48-.53-.72a3.36,3.36,0,0,0-1.8-1.15,3.44,3.44,0,0,0-2.09.29c-.54.23-1,.48-1.32.63a1.77,1.77,0,0,1-.83.19c-.1-.05-1.28,2-.32,2.18a3.79,3.79,0,0,0,2-.33c.54-.23,1-.48,1.33-.63a1.36,1.36,0,0,1,.75-.16c.13,0,.35.2.59.44s.23.29.33.46l.31.53.59,1.32,1.2,2.67,3.89,8.74-2.55,1.19-.66.31-.1,0h0s0,0,0,0l-2.16-5.13-2.28-5.41a58,58,0,0,0-2.42-5.33C174,294.57,172.2,295.34,172.33,295.75Z"/><path class="cls-1" d="M278.41,151.11a4.17,4.17,0,0,1-2.54,1.91,4.5,4.5,0,0,1-2.95-.45c-.29-.15-.59-.3-.87-.47a7,7,0,0,1-.75-.56,10.59,10.59,0,0,1-1.9-2.44,14.67,14.67,0,0,1-1.26-2.66c-.29-.81-.6-1.61-.85-2.43a6.37,6.37,0,0,1-.35-3.31c.07-.36.5-.27.95,0a2.4,2.4,0,0,1,1.12,1.17c.29.9.56,1.84.91,2.75s.73,1.82,1.09,2.75A6.67,6.67,0,0,0,273.2,150a3.81,3.81,0,0,0,1.49.72,1.29,1.29,0,0,0,1.22-.3,4.52,4.52,0,0,0,1.12-1.92,17.72,17.72,0,0,0,.77-3.82c.09-1,0-2.06,0-3.11,0-.24,0-.47,0-.71.08-.89.38-1.19,1.05-1.21a2.67,2.67,0,0,1,.4,0,1.17,1.17,0,0,1,.86,1,24.87,24.87,0,0,1-.17,5.73,13,13,0,0,1-1.51,4.71Z"/><path class="cls-1" d="M299.66,147.27a5.35,5.35,0,0,1-1.88,2,3.73,3.73,0,0,1-1.45.49,3.66,3.66,0,0,1-1.47-.09c-.18,0-.37-.09-.54-.15l-.48-.23a3.35,3.35,0,0,1-.82-.58,10.64,10.64,0,0,1-2.51-5.15c-.17-.78-.39-1.55-.55-2.33a6.1,6.1,0,0,1-.17-3.13c.1-.35.63-.19,1.16.1s1.05.65,1.12,1.14a49.71,49.71,0,0,0,1.13,5.36,4.61,4.61,0,0,0,1.66,2.46l.27.16a2.67,2.67,0,0,0,.26.09,1.65,1.65,0,0,0,.63,0,1.79,1.79,0,0,0,1.12-.68,6.25,6.25,0,0,0,1-1.94,22.38,22.38,0,0,0,.93-3.56c.17-1,.18-1.94.38-3a6.12,6.12,0,0,1,.15-.69c.32-.87.7-1.16,1.36-.87a2.14,2.14,0,0,1,.37.17,1.2,1.2,0,0,1,.41.51.89.89,0,0,1,.12.63c-.16,1.38-.35,3.19-.74,5a16.06,16.06,0,0,1-1.44,4.25Z"/><path class="cls-1" d="M281.71,146a31.55,31.55,0,0,0,.15-8.94,16.26,16.26,0,0,0-.79-3.07,7.21,7.21,0,0,0-2.94-4.13,13,13,0,0,0-5.37-1.37,14.45,14.45,0,0,0-5,.68,11.39,11.39,0,0,0-2.83,1.36c-.44.28-.83.59-1.23.89-.2.15-.36.34-.55.5a5.39,5.39,0,0,0-.54.53c-.44.44-.84.23-1-.59a4.1,4.1,0,0,1,0-.73,3.81,3.81,0,0,1,.23-.86,2.89,2.89,0,0,1,.5-.88,2.76,2.76,0,0,1,.78-.78,14.69,14.69,0,0,1,7.28-2.45,19.1,19.1,0,0,1,3.78.1,15.91,15.91,0,0,1,3.69,1l1.06.51a10.76,10.76,0,0,1,1.07.68,8.82,8.82,0,0,1,1.73,1.78,12.77,12.77,0,0,1,2,4.25,29.06,29.06,0,0,1,.59,9.72,47.63,47.63,0,0,1-.92,5.84,54.1,54.1,0,0,1-2.7,8.49,48.81,48.81,0,0,1-2.92,6.21c-.26.44-.51.87-.79,1.3-1.09,1.56-1.65,1.91-2.39,1.79a1.93,1.93,0,0,1-.49-.09c-.49-.2-.3-1,.38-2.12a54.27,54.27,0,0,0,5.08-10.79,47.1,47.1,0,0,0,2.1-8.85Z"/><path class="cls-1" d="M296.43,124.94a8.44,8.44,0,0,0-2.84-.31,5.16,5.16,0,0,0-1,.19,7.66,7.66,0,0,0-3.47,1.45,2.44,2.44,0,0,0-.61.59,5.48,5.48,0,0,0-.51.68l-.48,1a3.23,3.23,0,0,1-.54,1c-.16.19-.61.05-1-.29a1.6,1.6,0,0,1-.59-1.48,7.17,7.17,0,0,1,3.9-4.09,16.75,16.75,0,0,1,3.2-1.15,10.76,10.76,0,0,1,3.67,0,12.32,12.32,0,0,1,2.16.59,16.3,16.3,0,0,1,1.5.77,14.66,14.66,0,0,1,1.38.95c.32.28.71.5,1,.79l1,.88a3.16,3.16,0,0,1,.38.44c.41.6.39.89-.1,1.3a3.07,3.07,0,0,1-.35.28,1,1,0,0,1-1.25,0,20.23,20.23,0,0,0-2.9-2.34,8.63,8.63,0,0,0-2.53-1.13Z"/><path class="cls-1" d="M287.2,176.8c.22,0,.43,0,.65.09s.43.05.6,0a2.83,2.83,0,0,0,.41-.14,3.14,3.14,0,0,0,1.77-1,8.64,8.64,0,0,0,.56-.94,8.8,8.8,0,0,1,.75-1.35c.11-.15,0-.13.07,0s.28.41.4.74a3.38,3.38,0,0,1-.38,3.58,8.17,8.17,0,0,0-.81.94,5.35,5.35,0,0,1-1,.81,4.67,4.67,0,0,1-2.69.42,3.66,3.66,0,0,1-.76-.16,4,4,0,0,1-.72-.23,5.15,5.15,0,0,1-1-.49,9.15,9.15,0,0,1-.9-.57c-.23-.14-.45-.31-.67-.47a3.15,3.15,0,0,1-.54-.61,2.11,2.11,0,0,1-.18-.33,1.61,1.61,0,0,1-.1-.28,2,2,0,0,1,0-.23.9.9,0,0,0,0-.22.08.08,0,0,0,0,0,1.19,1.19,0,0,0,.39.24,3.32,3.32,0,0,0,1.4.17c.44,0,.89,0,1.26,0,.58,0,1.08,0,1.53,0Z"/></g></svg>