<svg id="Layer_1" data-name="Layer 1" xmlns="http://www.w3.org/2000/svg" width="520" height="520" viewBox="0 0 520 520"><defs><style>.cls-1{fill:#221f1f;}.cls-2{fill:#232020;}</style></defs><title>Notioly v2</title><g id="_75.Working_late" data-name="75.Working late"><path class="cls-1" d="M292.36,197.24a160.74,160.74,0,0,1,2.36-25.58,57.7,57.7,0,0,1,3.69-12.47,25,25,0,0,1,3.48-5.69l.6-.69a1.85,1.85,0,0,1,1.18-.67,10.72,10.72,0,0,1,1.81-.19c1.12,0,2.21,0,3.29,0a115.61,115.61,0,0,1,18.59,2.64,150.62,150.62,0,0,1,31.2,10.59,129.93,129.93,0,0,1,27.86,17.53,114.48,114.48,0,0,1,19.9,21.37,104.18,104.18,0,0,1,15.87,33.67c1,3.76.29,3.37-1.1.39s-3.65-8.5-6.5-14.92a107.25,107.25,0,0,0-20.85-30.8,121.92,121.92,0,0,0-30-22.43A144.33,144.33,0,0,0,320,155.33,94.45,94.45,0,0,0,307.35,154a21.4,21.4,0,0,0-3,.12l-.19,0s-.1,0-.12.07l-.4.46-.5.57-.44.62a24.65,24.65,0,0,0-2.9,5.47,60.64,60.64,0,0,0-3.27,12.2c-.72,4.19-1.19,8.42-1.51,12.67a285.68,285.68,0,0,0-.3,31.52c.63,15.93,2.06,31.9,3.94,47.62,1.45,11.88,3.19,23.49,5.2,35.13v.15h0v-.14l.14,1c.35,2.66.69,5.25,1,7.93,1.29,9.93,1.65,13.08,1.49,15.28,0,.5,0,1.13-.05,1.47,0,.6-.58-.2-1-2a82.31,82.31,0,0,1-1.57-8.24c-.36-2.48-.72-5-1.09-7.49-.17-1.27-.34-2.54-.52-3.83-.08-.64-.17-1.28-.26-1.93l-.12-1-.07-.49,0-.23v-.19h0l1-.16-1,0h0v.2c-2.93-16.76-5.26-34.33-7-52a456.6,456.6,0,0,1-2.42-51.55Z"/><path class="cls-1" d="M277.29,446.47l-4.52-.45c-1-2.23.61-4.67-.26-7-5.12,4.36-39.77,14.78-39.76,7.53,0-5,30.62-13.58,37.95-16.47l1.21-5.28h6.57S278.4,443.47,277.29,446.47Z"/><path class="cls-1" d="M255.21,436.7c-3.13,1-6.25,2.11-9.33,3.26a70.86,70.86,0,0,0-8.92,3.93,11.52,11.52,0,0,0-2.66,1.92,2.27,2.27,0,0,0-.34.48c0,.07-.09.14-.07.15s0,.05,0,.13c0,.28.1.41.41.64a5.67,5.67,0,0,0,2.53.67,22,22,0,0,0,3,0,55.13,55.13,0,0,0,6.21-.77,109.25,109.25,0,0,0,12.31-3,74.52,74.52,0,0,0,10.49-4l.74-.37.37-.2.46-.25a18.85,18.85,0,0,0,2.38-1.71c.3,0,.46.94.62,1.47a6.38,6.38,0,0,1,.2,2c-.06.85-.12,1.15-.18,1.64a12.34,12.34,0,0,0-.13,1.28,5.71,5.71,0,0,0,0,.59l0,.18a.59.59,0,0,0,0,.13,1,1,0,0,0,.09.26l.28,0,2.57.36c1.49.22,1.23.75-.08,1.15a8.69,8.69,0,0,1-1.18.27l-.72.11-.39.05a3,3,0,0,1-.49,0,10.33,10.33,0,0,1-1.55-.08,6.55,6.55,0,0,1-.68-1.48,6,6,0,0,1-.22-1.45,7.55,7.55,0,0,1,.05-1.18l.16-1.19,0-.27c0-.08,0,0,0,0h0l0,0-.37.19-.72.36c-1,.47-1.95.88-2.93,1.28-2,.78-3.94,1.48-5.94,2.12a105.35,105.35,0,0,1-12.2,3.12,78,78,0,0,1-9.09,1.32,18.82,18.82,0,0,1-4.83-.19,5,5,0,0,1-2.55-1.22,2.82,2.82,0,0,1-.79-1.54,2.73,2.73,0,0,1,.33-1.71,7,7,0,0,1,2-2.07,21.94,21.94,0,0,1,2.24-1.36c1.51-.82,3.05-1.52,4.6-2.18,3.11-1.3,6.25-2.45,9.41-3.56,3.9-1.35,7.81-2.61,11.72-3.87,2.25-.74,4.52-1.46,6.75-2.23l.83-.3c.14-.07.35-.08.43-.2l.34-1.43c.31-1.32.62-2.64.92-3.95h4.9l2.29,0h.32c.1,0,.27-.05.22.1v1.94c0,1.2,0,2.4,0,3.6,0,2.37,0,4.74,0,7.12,0,1.05,0,2.08-.08,3.14-.2,3.92-.57,5.22-1.31,6a2.33,2.33,0,0,1-.51.43c-.26.1-.36-.26-.38-.9s0-1.76,0-3.18c.13-3.85.14-7.83.16-11.87,0-1,0-2,0-3v-1.14c0-.08,0,0,0-.05s0,0,0,0h-3.94l-.22,1-.57,2.48L272,430.9l0,.15,0,.07-.07,0-.29.11-.58.22-.87.33-.6.21c-1.6.56-3.19,1.08-4.78,1.6l-9.52,3.13Z"/><path class="cls-1" d="M335.52,426.38l-2.17,1.79c-2-1.46-3.53-7.44-5.44-9.1-2.37,6.3-23.91,31-27.42,24.63-2.4-4.35,16.32-25.23,19.11-29.26l-.48-3.11,6-2.52S335,423.21,335.52,426.38Z"/><path class="cls-1" d="M310.76,427.68c-1.86,2.34-3.69,4.71-5.37,7.16-.84,1.22-1.65,2.45-2.36,3.72a13.49,13.49,0,0,0-1.59,3.77,1.56,1.56,0,0,0,.05.87.72.72,0,0,0,.56.39,4.71,4.71,0,0,0,2.44-.65,25.5,25.5,0,0,0,4.61-3.1c1.48-1.19,2.9-2.47,4.28-3.79a104.41,104.41,0,0,0,7.84-8.44c1.09-1.31,2.14-2.66,3.12-4,.49-.69,1-1.4,1.41-2.11.24-.38.39-.61.76-1.28a20.78,20.78,0,0,0,.88-1.94l.18-.44c.9.4,2.06,2,2.7,3.24.52,1,1,2,1.44,2.91l.69,1.41c.13.23.24.46.37.67s.28.48.31.52l.2.27c.07.06.16.25.25.12l.28-.19.16-.11.33-.24c1.09-.82,1.3-.28.75.87-.07.15-.14.29-.24.47s-.33.43-.55.69a7.63,7.63,0,0,1-.75.76l-.22.2c-.07.06-.14-.06-.22-.09l-.47-.31a5.65,5.65,0,0,1-1-.85l-.47-.54-.29-.38a11.32,11.32,0,0,1-1-1.66l-1.52-3.18-.25-.48h0l-.27.43c-.46.73-.94,1.43-1.43,2.12-1,1.37-2,2.68-3.08,4a98.85,98.85,0,0,1-6.81,7.38c-1.95,1.9-4,3.82-6.14,5.62a33.89,33.89,0,0,1-3.43,2.55,10.38,10.38,0,0,1-4.24,1.74,3.47,3.47,0,0,1-1.56-.2,2.8,2.8,0,0,1-1.68-1.84,2.59,2.59,0,0,1-.12-.8,5.3,5.3,0,0,1,.17-1.37,17.91,17.91,0,0,1,2-4.39,80.65,80.65,0,0,1,5.2-7.59c2.27-3,4.64-5.89,7-8.78l3.74-4.54.91-1.14.42-.54c.05-.11.22-.2.15-.35l-.48-3.22,5.23-2.22,1-.45.54-.23c.11-.09.14.07.2.13l.17.24,1.15,1.64,1.86,2.67c1.23,1.77,2.45,3.55,3.63,5.37.52.8,1,1.58,1.54,2.41,1.83,3.08,2.16,4.31,1.88,5.26a1.87,1.87,0,0,1-.24.58c-.17.2-.45,0-.75-.5s-.86-1.32-1.54-2.41c-1.91-3.12-4.08-6.27-6.24-9.47l-1.65-2.39-.67-1s0,0,0,0l-3.8,1.64h0l.36,2.42,0,.14s-.05.08-.07.12l-.16.23-.34.46-.43.57-.72.92-2.89,3.54c-1.94,2.35-3.86,4.69-5.72,7.07Z"/><path class="cls-1" d="M253.44,169.08a24.19,24.19,0,0,1-6.17.92,34.7,34.7,0,0,1-6.13-.33,42.44,42.44,0,0,1-4.37-.76,61,61,0,0,1-14.45-5.58c-2-1.07-4-2.22-5.92-3.47a37.32,37.32,0,0,1-3.56-2.61,16.3,16.3,0,0,1-3.05-3.26c-.53-.78,0-.93.77-.63a12,12,0,0,1,3.24,2,47,47,0,0,0,7,4.87,81.72,81.72,0,0,0,7.75,3.95,47.43,47.43,0,0,0,10.21,3.08,33.32,33.32,0,0,0,11.6.4,17.78,17.78,0,0,0,6.61-2.41,14.13,14.13,0,0,0,3.92-3.59,12.91,12.91,0,0,0,2.3-4.76,18.09,18.09,0,0,0-.09-8.15c-.11-.59-.28-1.16-.42-1.76-.56-2.2-.7-2.93-.29-3.58a2.45,2.45,0,0,1,.27-.43c.34-.35,1,.43,1.61,2.09a24.47,24.47,0,0,1,1.46,8,16.46,16.46,0,0,1-2.16,8.36,17.27,17.27,0,0,1-10.14,7.72Z"/><path class="cls-2" d="M274.7,166.46l-20.41.33c-.23,0-.21,2.28,0,2.26l20.43-.33A4.55,4.55,0,0,0,274.7,166.46Z"/><path class="cls-1" d="M177.59,179.63v.06a22.14,22.14,0,0,0,2.33.4c1.15.15,2.31.27,3.48.37q3.51.3,7,.44,7.1.33,14.2.41c3.54.06,7.08,0,10.62,0q18.72.07,37.44-.29c5.54-.11,11.11-.3,16.6-.52l6.82-.31,3.41-.16,1.69-.07a3.3,3.3,0,0,0,.65,0,1.53,1.53,0,0,1,0-.37v-.18l0-.49c.05-.66.14-1.31.23-1.94l.6-3.71c.23-1.94.74-1.88,1.2-.31a14.29,14.29,0,0,1,.38,3.32q0,1,0,2.19c0,.19,0,.38,0,.58s0,.47,0,.72c.05.82.21,1.79.34,2.7-1.06.08-2.29.14-3.41.18-14.43.59-28.86.93-43.42.9-8.7,0-17.76.22-26.67.17q-7.35,0-14.71-.22c-4.9-.16-9.8-.31-14.72-.79-.95-.1-1.91-.21-2.87-.35l-1.44-.24c-.19,0-.63-.12-1-.21l-1-.27-.16-1.17-.12-1-.16-1.56c-.09-1-.16-2.09-.2-3.14s0-2.1,0-3.17c0-.53.09-1.07.17-1.61a3.2,3.2,0,0,1,.07-.41l.12-.57c.1-.35.23-.71.34-1.07l.1-.3H176l.62,0h13.13l13.65-.06c7-.06,13.93-.27,20.89-.41l4.57-.11c5.72-.07,7.55.08,8.78.71a5.53,5.53,0,0,1,.82.44c.55.49-1.78.91-6,1.08-12.44.5-25.56.64-38.73.71L179,170H177.5s0,0,0,0,0,0,0,0a3.7,3.7,0,0,0-.07.38c0,.28-.08.53-.1.82-.05.56-.07,1.13-.08,1.71,0,1.17,0,2.36.12,3.55,0,.59.1,1.19.16,1.78l.14,1.34Z"/><path class="cls-1" d="M184.18,195.64l26.14-.06,9.53-.1,33.61,0c5,0,10-.1,14.89-.2l4.75-.1,1.68,0h.12s0,0,.05,0v-1c0-3.18,0-6.35.13-9.52.16-3.94,2.48,1.06,2.5,8.36v4.6s0,.12,0,.13H276.5l-2.31,0-4.85,0-9.7.06q-9.72,0-19.5-.11c-7.8-.11-15.91.09-23.89.13l-26.32.12-16.2.07-6.14,0h-2.92s-.11,0-.13,0l0-.14,0-.28-.08-.55-.27-1.87-.19-1.53a39.22,39.22,0,0,1-.27-6.23,25.34,25.34,0,0,1,.32-3.13c0-.25.09-.51.14-.77l.1-.47.12-.53.25-1.06c0-.06.05-.05.1-.05h1l5,.12,4.68.06,9.34.11,4.11.05c5.13.12,6.76.33,7.84,1a4,4,0,0,1,.71.46c.48.51-1.62.85-5.39.88-5.58,0-11.3,0-17.11-.12l-8.34-.19v0l-.08.4c0,.17-.06.34-.09.51-.05.34-.1.68-.14,1A26.19,26.19,0,0,0,166,190c0,1.05.13,2.1.25,3.16l.2,1.59.11.81c0,.19,0,.12,0,.13h0c-1,0,2.41,0,4.38,0l13.19-.1Z"/><polygon class="cls-1" points="291.7 197.37 66.44 200.07 66.44 221.12 291.7 217.75 291.7 197.37"/><path class="cls-1" d="M120.83,222,65,222.61,65,199.17v-.48l28.52-.33,96.6-.75c14.29-.12,28.66-.32,42.83-.53,18.22-.28,36.51-.69,54.71-.62,11.36,0-3,2.79-24,3.07-37.2.49-74.38.82-111.88.9-22.43,0-45.78.45-68.72.67l-15.47.14L67.56,220l36.87-.44L151,219l70.48-1c18.14-.3,35.92-.76,53.86-1.14l11.79-.27,3.34,0c0-2.34,0-4.31,0-6,0-2,.08-3.65.15-5a33.5,33.5,0,0,1,.66-5.89,19.45,19.45,0,0,1,.49-2.09c.55-1.42,1,4.6,1.16,15.41,0,2,0,4,.07,6.1l-24.53.62-23.67.5-48.17.81-75.82,1Z"/><path class="cls-1" d="M322.35,365.66c-.77-.61-1.49-1.27-2.21-1.93-.26-.23-.55-.44-.81-.69-.88-.89-1.69-1.84-2.49-2.8-.36-.42-.73-.82-1.13-1.21a4.56,4.56,0,0,1-1.3-1.68c-.15-.43,1.86-1.19,2.31-.63a37.76,37.76,0,0,1,2.48,3.21,11.16,11.16,0,0,0,1.79,1.78c.68.63,1.37,1.25,2.09,1.85.45.36.89.73,1.36,1.05a15.93,15.93,0,0,0,2.2,1.39,9.82,9.82,0,0,0,1.88.61l.42.1c.51.14.61.33.54.92,0,.13,0,.26-.05.39a.79.79,0,0,1-.88.67,9,9,0,0,1-3.76-1.31,26.07,26.07,0,0,1-2.47-1.67Z"/><path class="cls-1" d="M328.08,364.12c-.76-.53-1.49-1.1-2.2-1.69-.25-.21-.55-.38-.79-.61a32.59,32.59,0,0,1-2.46-2.53c-.36-.38-.73-.75-1.1-1.11a4.74,4.74,0,0,1-1.25-1.56c-.16-.4,1.55-1,2-.49.82.92,1.66,1.86,2.46,2.89a11.18,11.18,0,0,0,1.78,1.57c.67.54,1.36,1.09,2.08,1.58a14.82,14.82,0,0,0,1.34.89,15.37,15.37,0,0,0,2.17,1.12,10.47,10.47,0,0,0,1.81.4l.4.05c.49.09.61.25.61.78,0,.12,0,.24,0,.36a.7.7,0,0,1-.74.67,8.12,8.12,0,0,1-3.65-.89,23.54,23.54,0,0,1-2.46-1.38Z"/><path class="cls-1" d="M333.1,361.94a20,20,0,0,1-2.53-1.5c-.31-.2-.61-.38-.89-.6A17.68,17.68,0,0,1,327,357.2c-.38-.41-.72-.86-1.09-1.27l-.66-.84a3.79,3.79,0,0,1-.47-1c-.13-.42,1.46-.62,1.82,0,.71,1.08,1.51,2.1,2.36,3.15a9.66,9.66,0,0,0,1.89,1.59,19.43,19.43,0,0,0,2.33,1.47,17.05,17.05,0,0,0,4,1.51,10.9,10.9,0,0,0,2,.11h.42c.53,0,.7.11.81.52a2.86,2.86,0,0,1,.07.28c.05.32-.18.57-.61.64a9.08,9.08,0,0,1-3.93-.32,17.59,17.59,0,0,1-2.81-1Z"/><path class="cls-1" d="M335.78,357.36a13,13,0,0,1-2-1.05,7,7,0,0,1-.71-.43,14.61,14.61,0,0,1-2.16-1.91c-.31-.29-.6-.6-.91-.88a3.93,3.93,0,0,1-1-1.28c-.13-.31,1.2-.73,1.53-.32l2,2.28a6.75,6.75,0,0,0,1.5,1.14,13.3,13.3,0,0,0,1.81,1,8.55,8.55,0,0,0,1.19.45,7.74,7.74,0,0,0,1.9.34,5.65,5.65,0,0,0,1.43-.26l.3-.1c.37-.12.51-.06.7.26l.13.23a.49.49,0,0,1-.29.68,5.27,5.27,0,0,1-3.1.46,9.88,9.88,0,0,1-2.29-.59Z"/><path class="cls-1" d="M341.26,228.89a23.41,23.41,0,0,0-1.5-3.57c-.21-.42-.51-.78-.75-1.19a10.31,10.31,0,0,0-3.13-3.53,3.6,3.6,0,0,0-1.85-.52,10.63,10.63,0,0,0-2.36.6c-.27,0-.6-.48-.66-1.13a1.57,1.57,0,0,1,.93-1.71,5.88,5.88,0,0,1,4,.1,7.23,7.23,0,0,1,2.9,2.17,28.2,28.2,0,0,1,2.47,3.17,25.64,25.64,0,0,1,1.85,3.85c.32.81.6,1.64.85,2.46.39,1.25.68,2.54,1,3.81a25.51,25.51,0,0,1,.64,3,5.71,5.71,0,0,1,.05.73c0,.94-.41,1.33-1.06,1.24a2.14,2.14,0,0,1-.44-.08,1.26,1.26,0,0,1-.54-.41,1.12,1.12,0,0,1-.25-.55c-.22-1.37-.59-3.08-1-4.74a33.9,33.9,0,0,0-1.15-3.72Z"/><path class="cls-1" d="M301,304.2c2.81,3.42,6.31,46.19,16,54.06,8.25,22.85,17.55,46,16.4,47.38-1.94,2.38-19.73,15.2-25.11,9.51-4.11-4.34-11.11-46.3-11.11-47.21C297.12,320.07,300.49,303.63,301,304.2Z"/><path class="cls-1" d="M304.37,399.66c.7,3.07,1.45,6.13,2.33,9.11a35.83,35.83,0,0,0,1.55,4.31,8.06,8.06,0,0,0,.48.93,2.83,2.83,0,0,0,.56.64,3.75,3.75,0,0,0,1.65.76,10.09,10.09,0,0,0,4.22-.32,27,27,0,0,0,4.3-1.54,55.82,55.82,0,0,0,8.1-4.57c.89-.6,1.77-1.22,2.61-1.87.43-.33.84-.66,1.25-1,.2-.17.39-.33.58-.51a3.32,3.32,0,0,0,.27-.25l.13-.14c.05-.07.06-.1,0-.24a4.87,4.87,0,0,0-.13-.78c-.12-.56-.27-1.13-.43-1.71-.32-1.14-.69-2.29-1.06-3.44-2.54-7.68-5.41-15.3-8.18-22.94l-4.17-11.47-2.06-5.74-.08-.22a.63.63,0,0,0-.11-.12l-.6-.57c-.36-.4-.69-.82-1-1.24s-.6-.87-.88-1.32l-.77-1.37a58.24,58.24,0,0,1-3.86-10.25c-1-3.49-1.86-7-2.64-10.51-1-4.51-1.87-9-2.71-13.58l-1.24-6.79c-.42-2.25-.82-4.52-1.39-6.68-.19-.67-.33-1.11-.39-1.4s-.08-.39,0-.44.25,0,.52.27a5.39,5.39,0,0,1,.82,1.22c1.18,2.24,2.45,6.6,3.4,11.81,1.71,9.23,3.31,18.48,6,27.38a56.84,56.84,0,0,0,2.37,6.48,17.42,17.42,0,0,0,3.53,5.53l.51.49c.1.1.11.25.17.37l.1.31.3.83.58,1.67,1.18,3.33,2.38,6.69c1.9,5.33,3.91,10.75,5.92,16.2,1,2.73,2,5.47,3,8.23a85.74,85.74,0,0,1,2.61,8.42c.08.35.14.7.19,1.08a2.38,2.38,0,0,1,0,.75,1,1,0,0,1-.11.39c0,.07-.07.12-.06.19l-.12.17c-.1.11-.21.25-.31.34l-.22.22-.45.4c-.29.26-.59.51-.89.75-.61.48-1.22.94-1.84,1.39q-1.86,1.33-3.81,2.55a49,49,0,0,1-8.21,4.16,20.71,20.71,0,0,1-4.53,1.21,7.64,7.64,0,0,1-4.88-.7,6.65,6.65,0,0,1-.56-.36l-.49-.45a5.06,5.06,0,0,1-.77-1.07,16.55,16.55,0,0,1-1-2.16c-.54-1.44-1-2.9-1.41-4.36-2.12-7.61-3.64-15.32-5.12-23-.55-2.92-1.09-5.85-1.59-8.78l-.75-4.4-.35-2.21-.17-1.11c0-.2-.05-.34-.07-.62v-.57c0-5.94.08-11.88.19-17.77.17-9.17.38-18.16.95-27.22.13-2,.26-3.95.44-6,.71-7.45,1.33-9.82,2.16-11.3.2-.32.44-.8.65-.89,0-.06-.06,0,0,0s-.05,0,.13.13.05,0,.08.06v.07c0,.23-.05.7-.12,1.36-.14,1.35-.36,3.44-.63,6.12-.78,8-1.17,16.31-1.48,24.72s-.44,16.95-.49,25.51v5.73h-.29c.42,0,.25,0,.29,0h0V368l.17,1.14.38,2.35q.78,4.71,1.64,9.41c1.15,6.27,2.38,12.52,3.8,18.72Z"/><path class="cls-1" d="M439.58,279.28c-2.84,4.55-11.93,4.23-12.66-1.08-3.38-24.54-.61-115.61.36-120.6.81-4.18,2.79-15.25,7.5-15.59C473,139.28,441.4,276.37,439.58,279.28Z"/><path class="cls-1" d="M450.29,163.37a45.15,45.15,0,0,0-3-10.67,22.48,22.48,0,0,0-2.65-4.61,12.18,12.18,0,0,0-3.82-3.25,10.79,10.79,0,0,0-4.8-1.2c-.41,0-.92,0-1.23,0a1.4,1.4,0,0,0-.69.24,4.82,4.82,0,0,0-1.46,1.56,20.2,20.2,0,0,0-2.11,4.88c-.55,1.76-1,3.59-1.38,5.45l-.41,2.05-.19,1.92-.25,4.16-.38,8.39q-1.31,29.61-1.61,59.29c-.06,8.77,0,17.59.33,26.28.13,2.79.27,5.58.4,8.37l.3,4.17c.09,1.39.19,2.78.37,4.15l.22,2.07a11.25,11.25,0,0,0,.27,1.87,2.35,2.35,0,0,0,.29.69,5.32,5.32,0,0,0,.45.61c.21.16.38.36.61.51a5.2,5.2,0,0,0,.74.4,7.94,7.94,0,0,0,7-.48,5.89,5.89,0,0,0,.79-.55,4.9,4.9,0,0,0,.53-.42c.28-.23.47-.3.56-.21s.08,1.09-1,2.31a7.62,7.62,0,0,1-2.39,1.71,9.94,9.94,0,0,1-3.85.84,7.61,7.61,0,0,1-4.83-1.63,6.18,6.18,0,0,1-1.09-1.13,7.56,7.56,0,0,1-.78-1.46c-.08-.27-.16-.54-.22-.81l-.1-.41,0-.3c-.05-.4-.09-.81-.14-1.22-.15-1.45-.33-2.9-.45-4.34L424,268.3c-.22-2.88-.26-5.74-.39-8.62q-.25-8.61-.26-17.2c0-11.48.21-23,.6-34.49.48-13.78.68-28.13,1.38-42.24.09-1.94.22-3.89.36-5.84a28.31,28.31,0,0,1,.36-3c.18-1,.38-1.91.59-2.87a52.3,52.3,0,0,1,1.59-5.75,17,17,0,0,1,2.92-5.54,5.33,5.33,0,0,1,3.18-1.87,5.51,5.51,0,0,1,.86-.05H436a9.21,9.21,0,0,1,1.57.11,13.23,13.23,0,0,1,5.93,2.19,16.1,16.1,0,0,1,4.32,4.47,30.13,30.13,0,0,1,2.74,5.4,60,60,0,0,1,3.17,14.2,130.91,130.91,0,0,1,.78,14.39c0,14.54-1.5,29-3.38,43.28-1.49,11.06-3.14,21.89-5.17,32.75-.45,2.39-.88,4.73-1.38,7.14-1.89,8.89-2.86,11.67-4.15,13.35a4.76,4.76,0,0,1-.92,1.05c-.21.1-.29-.05-.33-.31a9.13,9.13,0,0,1,.13-1.71c.22-1.62.69-4.15,1.34-7.4,1.93-9.62,3.71-19.56,5.33-29.66s3.05-20.37,4.08-30.7c.77-7.66,1.33-15.36,1.48-23.06a125.23,125.23,0,0,0-1.33-22.87Z"/><path class="cls-2" d="M427.09,294.23a11.24,11.24,0,0,0,2-2.76,31.23,31.23,0,0,0,1.3-2.84,54.05,54.05,0,0,0,1.91-5.81,8.44,8.44,0,0,0-2.55-.67,50.53,50.53,0,0,1-1.81,5.5,25.15,25.15,0,0,1-1.18,2.57,8.17,8.17,0,0,1-1.45,2.1A10.64,10.64,0,0,0,427.09,294.23Z"/><path class="cls-1" d="M324.22,301c2.84-4.47,14.88.4,52.87-3.61,13.75-1.45,30.69-5.61,51.83-8.91,1.82-.28.9,13.71-14.12,21.92C389.39,324.33,330.54,331.5,324.22,301Z"/><path class="cls-1" d="M405.11,312.84a70.34,70.34,0,0,0,8.05-3.53,31.17,31.17,0,0,0,7.07-4.78,26.19,26.19,0,0,0,5.33-6.54,22.53,22.53,0,0,0,1.73-3.82,18.44,18.44,0,0,0,.55-2c.06-.33.12-.66.16-1a2.32,2.32,0,0,0,0-.24l0-.17v-.13a.93.93,0,0,0-.05-.34c-.05-.14-.21-.05-.31-.05l-9.47,1.59c-7.59,1.27-15.18,2.69-22.79,4-3.81.67-7.63,1.3-11.48,1.84s-7.72.93-11.57,1.25c-6.85.58-13.75,1-20.57,1.21-4.38.14-8.78.18-13.16.12l-6.54-.12c-1.07,0-2.14,0-3.18,0a9.48,9.48,0,0,0-2.85.49c-.94.4-1.21.77-1.47.58s-.26-1,.78-1.9a6.47,6.47,0,0,1,2-1.14,16.76,16.76,0,0,1,2.8-.73,35.35,35.35,0,0,1,6.9-.46c8.9.19,17.72.09,26.59-.42q6.65-.37,13.3-1c4.4-.41,8.81-1,13.24-1.69,10.59-1.63,21.55-4,32.44-5.79l5.74-.9a3.55,3.55,0,0,1,1.34.16,1.93,1.93,0,0,1,.85,1.07,5,5,0,0,1,.27,1.48,11.34,11.34,0,0,1-.05,1.41,18.67,18.67,0,0,1-1,4.06,26.62,26.62,0,0,1-3.91,7.11,34,34,0,0,1-12.51,9.84A88.63,88.63,0,0,1,403,316.68c-3.55,1.21-7.17,2.25-10.81,3.11a125.92,125.92,0,0,1-16.8,2.84,109.63,109.63,0,0,1-17,.47,72.8,72.8,0,0,1-13-1.8,38.68,38.68,0,0,1-12.19-5.08l-1.23-.81-1.15-.93c-.38-.32-.78-.61-1.14-1s-.7-.71-1.05-1.08-.65-.64-.91-1l-.74-1a11.27,11.27,0,0,1-1.18-1.8c-.3-.58-.58-1.1-.83-1.57a12.08,12.08,0,0,1-.49-1.36,6.22,6.22,0,0,1-.37-3.52,5.58,5.58,0,0,1,.26-1.1c.21-.39.62.09,1.16,1.22.14.28.28.61.42,1s.4.73.6,1.15l.68,1.35c.29.45.59.94.92,1.45a22.58,22.58,0,0,0,7.94,7.33,40.14,40.14,0,0,0,10.6,4,82.31,82.31,0,0,0,23.53,1.55,125.86,125.86,0,0,0,17.68-2.42,114,114,0,0,0,17.17-5Z"/><path class="cls-1" d="M387.82,378.65l.27,21.38c0,2.6.17,5.2.2,7.79l.12,13.75.07,6.87,0,3.44,0,2,0,1.32,0,.65c0,.05,0,.12,0,.15l-.16,0-.32.08-6.67,1.84-5.84,1.68a139.71,139.71,0,0,1-15.11,4,2.74,2.74,0,0,1-.54,0,1.83,1.83,0,0,1-.49-.06c-.27-.07-.37-.21-.36-.39a1.67,1.67,0,0,1,.3-.63,7,7,0,0,1,.64-.79,14.08,14.08,0,0,1,6.18-3.38c5.09-1.4,10.19-2.79,15.32-4.13l1.92-.49,1-.25.48-.12h.06s.15,0,.14,0l0-.1v-.76q0-4,.07-8c.1-6.39-.24-13-.36-19.55q-.17-10.77-.34-21.53-.11-6.63-.22-13.26c-.14-6.68-.23-13.41-.47-20-.19-5.16-.57-10.21-.88-15.31-.06-1.12-.16-2.22-.21-3.35-.18-4.2,0-5.54.91-6.47a4.42,4.42,0,0,1,.62-.61c.7-.42,1.34,1.27,1.64,4.34.89,9.1,1.26,18.71,1.55,28.37.16,7.17.33,14.37.49,21.56Z"/><path class="cls-1" d="M398.84,434l4.27,1.37c.52.16,1.06.22,1.58.39,1.82.6,3.63,1.26,5.46,1.84a17.76,17.76,0,0,0,2.48.56,7.92,7.92,0,0,1,3.16.79c.6.38-1,3.44-2.23,3.19a27.61,27.61,0,0,1-6.33-2.08,26.42,26.42,0,0,0-3.93-1.14c-1.44-.42-2.88-.87-4.31-1.31-.89-.27-1.77-.54-2.66-.79-1.35-.38-2.69-.81-4.05-1.08a28.81,28.81,0,0,0-3.21-.31c-.24,0-.48,0-.71-.05-.87-.14-1.09-.44-1.06-1.38,0-.21,0-.43,0-.64a1.35,1.35,0,0,1,1.24-1.27,19.07,19.07,0,0,1,5.94.66c1.45.34,2.9.77,4.35,1.16Z"/><path class="cls-1" d="M94.34,362l.27-34.09V315.47l.45-43.81c0-6.48,0-13-.1-19.43-.12-8.24-.37-16.59-.22-24.74,0-2.5.92-2.31,1.88-.16a17.86,17.86,0,0,1,.71,2c.21.75.41,1.6.58,2.54a37,37,0,0,1,.63,6.45c.19,16.89.07,33.75-.37,50.77-.27,10.17-.11,20.76-.16,31.17l-.21,34.33-.09,21.13c0,10.66-.06,21.38.07,32,.12,8.23.43,16.29.73,24.41.08,1.79.15,3.54.23,5.34.2,6.69.14,8.74-.71,10.25a6.46,6.46,0,0,1-.58,1c-.34.35-.69-.14-1-1.34a29.82,29.82,0,0,1-.83-5.6c-1-14.58-1.21-29.91-1.32-45.32-.07-11.44,0-22.93,0-34.4Z"/><path class="cls-2" d="M288.48,444.58l-.27-17.8a6.39,6.39,0,0,0-2.82,0l.27,17.83A8.35,8.35,0,0,0,288.48,444.58Z"/><path class="cls-1" d="M282.39,241.31l.24-4.42c0-.54-.06-1.08,0-1.61.11-1.9.28-3.8.35-5.7a17.52,17.52,0,0,0-.13-2.51,8.12,8.12,0,0,1-.13-3.18c.18-.69,3.59-.09,3.7,1.19a25.71,25.71,0,0,1-.29,6.66,27.44,27.44,0,0,0-.09,4.06l-.16,4.47-.1,2.75c0,1.38-.1,2.78,0,4.15a31.17,31.17,0,0,0,.5,3.17c0,.23.11.46.13.69.08.87-.15,1.15-1.07,1.35-.21.05-.42.11-.63.14a1.35,1.35,0,0,1-1.54-.88,18.89,18.89,0,0,1-.84-5.86c0-1.48,0-3,0-4.46Z"/><path class="cls-1" d="M302.62,300.8c-10.07.11-8.19,38.18-9.64,67.31-1.29,25.73-2.89,50.46-5.85,54.81-4.56,5.18-30.41,8.58-32.9,2.42-1.89-5.79-3.37-128,14.31-152.52,6.69-9.28,16.08-15.79,27-20.3C295.84,252.38,302.74,300.79,302.62,300.8Z"/><path class="cls-1" d="M256.13,342.76q-2.06,30.27-1.82,60.66,0,5.54.24,11.06c.07,1.84.14,3.68.25,5.51,0,.92.12,1.82.18,2.73l.14,1.33a5.07,5.07,0,0,0,.09.56c0,.16,0,.37.12.45a3,3,0,0,0,1.27,1.14,9.54,9.54,0,0,0,2,.74,23.17,23.17,0,0,0,4.61.61,52.64,52.64,0,0,0,9.54-.57,46.72,46.72,0,0,0,9.28-2.24,13.83,13.83,0,0,0,4-2.11l.3-.3.21-.41c.07-.15.16-.29.23-.46l.19-.54a18.83,18.83,0,0,0,.64-2.24,92.8,92.8,0,0,0,1.56-9.53c.4-3.22.7-6.45,1-9.69.56-6.48,1-13,1.39-19.47.33-5.76.67-11.55.88-17.32s.31-11.54.43-17.27c.16-7.37.29-14.77.82-22.17A106.73,106.73,0,0,1,295,312.16a40.65,40.65,0,0,1,1.37-5.48,12.75,12.75,0,0,1,2.84-5.1,3,3,0,0,1,.7-.59,5.58,5.58,0,0,1,.68-.41,4.11,4.11,0,0,1,1.16-.31c.62,0,.87.06.84.17s-.36.27-.85.47c-.24.13-.51.33-.81.52l-.42.41a2.13,2.13,0,0,0-.43.5c-1.13,1.44-1.91,4-2.49,7.2s-1,7-1.35,11.22c-.65,7.43-.86,14.94-1.07,22.45s-.34,15.05-.7,22.61-.82,15.07-1.36,22.62S292,403.55,291,411.12c-.33,2.26-.64,4.54-1.14,6.82-.1.58-.25,1.15-.4,1.72a14.83,14.83,0,0,1-.51,1.74l-.3.87-.47.91a1.59,1.59,0,0,1-.34.5l-.39.39c-.25.23-.52.41-.78.61a15.89,15.89,0,0,1-3.27,1.69,32.37,32.37,0,0,1-3.4,1.15A54.89,54.89,0,0,1,273,429a59.68,59.68,0,0,1-7.08.63,31.8,31.8,0,0,1-7.19-.52,11.31,11.31,0,0,1-3.6-1.32,8.12,8.12,0,0,1-.84-.64,4.56,4.56,0,0,1-.73-.89c-.1-.18-.19-.36-.28-.55a4.94,4.94,0,0,1-.13-.52l-.1-.53-.06-.46c-.27-2.39-.37-4.7-.47-7-.39-10.23-.38-20.44-.26-30.66s.45-20.43,1-30.64c.63-12.56,1.55-25.12,3-37.61A237.33,237.33,0,0,1,261.08,290a71.53,71.53,0,0,1,4.66-13.59,17.58,17.58,0,0,1,.82-1.62l1-1.55.48-.77.54-.72c.36-.48.71-1,1.09-1.43a52.78,52.78,0,0,1,4.85-5.28,66.27,66.27,0,0,1,18.3-12.17,12.34,12.34,0,0,1,1.52-.63l.84-.25.42-.1.2,0h.08c.07-.12-.07.16,0,.14l.06.05c.14.15.38.23.46.57a9.4,9.4,0,0,1,.21,1l.28,1.56.88,5.36,1.68,10.74c.49,3.16,1,6.25,1.45,9.44,1.73,11.82,2.1,15.61,1.88,18.23a15.51,15.51,0,0,1-.17,1.73c-.28,1.18-1.26-3.57-2.63-12.22-1-6.4-2-12.9-3-19.46-.52-3.27-1-6.57-1.57-9.88-.25-1.51-.51-3-.76-4.55l0-.08s-.16.07-.24.09l-1.5.7a63.67,63.67,0,0,0-16.52,11,52.08,52.08,0,0,0-6.57,7.5,39.73,39.73,0,0,0-4.24,8.88c-3.17,9.5-4.86,19.59-6.28,29.65s-2.27,20.27-3,30.45Z"/><path class="cls-1" d="M408.43,282.58c-15.14,14.64-61.06,10.51-89.18,14,0,0,.53-26.26,2.18-51.08,40.41-6.5,87.13,2,98.28-1.47C419.71,244,420.76,270.65,408.43,282.58Z"/><path class="cls-1" d="M351.23,244.37c-7.15.1-14.3.47-21.4,1.22-1.78.19-3.55.4-5.32.65l-1.91.27c-.07,0-.06,0-.06.08v.14l-.09,1.27-.67,10.74c-.29,5.24-.49,10.47-.72,15.7l-.56,13.84-.23,6.72v.44c0,.07.07,0,.11,0l.85-.08c1.15-.13,2.31-.21,3.47-.32,9.25-.72,18.5-.9,27.73-1.23,8.19-.29,16.41-.69,24.46-1.62a112.78,112.78,0,0,0,15.33-2.71,59.43,59.43,0,0,0,7.34-2.41,30.37,30.37,0,0,0,6.68-3.63c2.41-2,2.56-1.37.76.87a19,19,0,0,1-4.61,3.67,33.67,33.67,0,0,1-7.71,3.26,102,102,0,0,1-15.94,3c-5.35.63-10.71,1-16.07,1.27-10.71.54-21.43.62-32.14,1.13-1.6.09-3.21.18-4.82.3l-2.42.2-1.21.1-1.34.15-2.06.22-.26,0-.13,0h-.06v-.58l0-1,.07-3,.15-4.95c.2-6.61.43-13.25.74-19.83q.51-10.86,1.24-21.7l.07-1.08,0-.54,0-.27c0-.08.16-.05.23-.08l2-.28,2.7-.38c1.81-.22,3.61-.46,5.43-.62,3.61-.38,7.24-.63,10.87-.82,8.93-.46,17.87-.41,26.78-.15,6.76.19,13.52.56,20.26.94s13.47.81,20.14.89a62.79,62.79,0,0,0,7.67-.33,9.05,9.05,0,0,0,.93-.13c.24,0,.79-.13,1.24-.25l1.37-.33.17,0h0v.49l0,.7c0,.47,0,.94,0,1.42v1l0,1.95a82.85,82.85,0,0,1-1.85,15.43c-.21,1.13-.53,2.23-.83,3.33a33.82,33.82,0,0,1-1,3.29,30.59,30.59,0,0,1-4.19,8.17,14.73,14.73,0,0,1-1.61,1.87,10.82,10.82,0,0,1-1.36,1,9,9,0,0,1-1.09.62c-.42.15-.12-.49.76-1.71l.76-1,.83-1.35c.29-.5.65-1,1-1.58s.63-1.23,1-1.9a51.78,51.78,0,0,0,4.13-13,88.18,88.18,0,0,0,1.44-13.95l0-1.76v-.38s-.05,0-.06,0l-.64.11c-.32.06-.63.08-.94.12a64.05,64.05,0,0,1-7.42.31c-4.9,0-9.77-.3-14.64-.55-14.45-.8-28.93-1.64-43.37-1.37Z"/><path class="cls-1" d="M317.93,295.76c.25-7.52.58-15,.94-22.56.13-2.74.21-5.48.37-8.22q.83-14.49,2.1-29c.39-4.28.77-8.58,1.22-12.83.61-5.44,1.13-11,2.78-16.29.57-1.67,1-1.23,1.13.28a32.94,32.94,0,0,1-.43,7.22c-.88,5.45-1.48,11-2.06,16.52s-1.08,11.12-1.58,16.72c-.6,6.7-.87,13.7-1.22,20.57-.38,7.56-.72,15.12-1,22.68l-.12,3.5-.06,1.74c0,.53,0,1.14.05,1.71.11,2.29.24,4.62.45,6.93a98.16,98.16,0,0,0,1.36,10.43,42.41,42.41,0,0,0,1.28,5.05,17.1,17.1,0,0,0,2.18,4.58c1.52,2.16,3.44,4.09,5.14,6.22a24.74,24.74,0,0,1,4.29,7.09,12.65,12.65,0,0,1,.56,1.78,9.51,9.51,0,0,1,.36,1.84,12.57,12.57,0,0,1-.23,4.94,4,4,0,0,1-1,2,3.37,3.37,0,0,1-.53.5c-.27.14-.37-.26-.34-1.05,0-.4.11-.89.14-1.48s.1-1.28.1-2a15.17,15.17,0,0,0-1.38-6.6,27.47,27.47,0,0,0-3.84-5.94c-1.53-1.91-3.28-3.71-4.86-5.92a22.64,22.64,0,0,1-3.2-7.43,75,75,0,0,1-1.91-11.42c-.37-3.83-.67-7.58-.73-11.54Z"/><path class="cls-1" d="M298.92,163c-27,29.95-43.43-31.1-39.53-38.18,3.07-5.58,1.16-15.24-7.62-14.86-5.31.23-8.15,7.61-6.56,12.61-1.81-.42-22.14-8.78-33,1.29-17.55,13.72-2.3,30.47-1.9,30.78-10.61.94-33.71-3-32-33.22,2.75-49.18,46.3-42.35,49.44-44.16,1.62-.93,17.45-14,42.2.72,22.7,13.48,21,47.7,20.79,52.53C290.5,135.78,310.45,150.16,298.92,163Z"/><path class="cls-1" d="M196.13,87.27a33.52,33.52,0,0,0-6,5.42,37.2,37.2,0,0,0-4.58,6.76,49.59,49.59,0,0,0-4.86,15.79c-.09.69-.21,1.38-.3,2.07l-.18,2.09-.19,2.1-.07,2.08a43.53,43.53,0,0,0,.58,8.24,25.2,25.2,0,0,0,7.17,14.2,24.72,24.72,0,0,0,9.61,5.57,32.23,32.23,0,0,0,5.52,1.25c.93.14,1.88.22,2.83.28l.7,0h.86c.05,0,.19,0,.09-.06l-.3-.39-.15-.22-.39-.61c-.4-.63-.76-1.28-1.12-1.93a27.34,27.34,0,0,1-1.77-4.12,20.72,20.72,0,0,1-1-9,19.38,19.38,0,0,1,1.17-4.44,20.9,20.9,0,0,1,2.2-4,25.72,25.72,0,0,1,2.94-3.39c.53-.51,1.07-1,1.65-1.48l1.64-1.37a19.77,19.77,0,0,1,8.13-3.86,31.12,31.12,0,0,1,8.8-.59,49.32,49.32,0,0,1,8.58,1.36c1.4.33,2.79.72,4.16,1.14l1.26.41.43.15.22.07s.1,0,.08,0l0-.11a4,4,0,0,1-.14-1v-.29l0-.6a11.89,11.89,0,0,1,.12-1.2,13.15,13.15,0,0,1,1.55-4.54,8.72,8.72,0,0,1,3.51-3.51,6.93,6.93,0,0,1,2.49-.75,7.27,7.27,0,0,1,1.23,0,7.16,7.16,0,0,1,1.22.09,8.65,8.65,0,0,1,5,2.32A9.87,9.87,0,0,1,261.4,116a13.17,13.17,0,0,1,.23,5.3,13.55,13.55,0,0,1-.69,2.57,12.42,12.42,0,0,1-.55,1.23c-.12.25-.13.29-.2.44a2.8,2.8,0,0,0-.12.46,16.42,16.42,0,0,0-.09,4.56c.14,1.58.38,3.16.68,4.74a76.09,76.09,0,0,0,2.43,9.3,71.83,71.83,0,0,0,4.79,11.32,38.4,38.4,0,0,0,7.13,9.75,17.5,17.5,0,0,0,4.8,3.28,11.32,11.32,0,0,0,2.71.83,10.1,10.1,0,0,0,2.8.15c3.79-.29,7.33-2.49,10.32-5.15,1.87-1.69,2.72-2.42,2.9-2.15s-.37,1.45-1.74,3.26a21.42,21.42,0,0,1-2.82,3,17.77,17.77,0,0,1-4.63,3,14.69,14.69,0,0,1-3.15,1,14.46,14.46,0,0,1-3.62.14,15.24,15.24,0,0,1-7.21-2.82,30.43,30.43,0,0,1-7.66-8.26,59.76,59.76,0,0,1-5.11-9.68,81.26,81.26,0,0,1-3.54-10.26A65.63,65.63,0,0,1,257,131.18c-.08-.92-.14-1.86-.14-2.83a14.31,14.31,0,0,1,.3-3.08,6.43,6.43,0,0,1,.29-.92l.35-.75a7.22,7.22,0,0,0,.43-1,6.44,6.44,0,0,0,.31-1.06,5.81,5.81,0,0,0,.2-1.09c.39-2.95-.55-6.17-2.76-7.64a6.53,6.53,0,0,0-4-1,3.75,3.75,0,0,0-1.77.41,5.7,5.7,0,0,0-.81.5,6.1,6.1,0,0,0-.73.71,8.86,8.86,0,0,0-1.93,3.93,10.68,10.68,0,0,0-.2,1.13,5.07,5.07,0,0,0-.05.56c0,.22,0,.32,0,.63l.14,1.22c0,.21,0,.4.08.62l.17.7.67,2.71a6.27,6.27,0,0,1-.82-.18l-.9-.25c-.6-.18-1.2-.33-1.84-.54l-3.13-1c-1.36-.42-2.72-.81-4.1-1.15a48.77,48.77,0,0,0-8.36-1.31A23.36,23.36,0,0,0,217,122.31a12.94,12.94,0,0,0-1.27.68,10.34,10.34,0,0,0-1.2.79,13.63,13.63,0,0,0-1.11.9l-1.24,1a22.71,22.71,0,0,0-4,4.34,15.55,15.55,0,0,0-2.79,11,20.75,20.75,0,0,0,1.62,5.71,28.18,28.18,0,0,0,1.37,2.68c.25.44.52.86.8,1.28l.75,1.08c.26.36.59.73.84,1.09a6.32,6.32,0,0,0,0,1.73,1,1,0,0,1,0,.14l-.12.13-.24.28a1.93,1.93,0,0,0-.28.35l-.29.42c-1.12,0-2.23.11-3.4.07l-.64,0-.54,0c-.36,0-.72,0-1.07-.08a37.7,37.7,0,0,1-4.24-.64,28.55,28.55,0,0,1-15.63-8.6c-4.13-4.53-6.27-10.5-7-16.37a49.56,49.56,0,0,1-.26-8.86l.37-4.38c.18-1.45.42-2.9.63-4.35a50.56,50.56,0,0,1,5.93-16.6,36.74,36.74,0,0,1,16-14.49c6.62-3.12,13.89-4.38,21-4.79l4-.21,1-.07c.33,0,.63-.07.89-.12a1.09,1.09,0,0,0,.59-.26l.84-.56A34.22,34.22,0,0,1,235.87,72a34.67,34.67,0,0,1,16.35-1.49,47.2,47.2,0,0,1,15.47,5.23,39.73,39.73,0,0,1,6.91,4.39A37.79,37.79,0,0,1,280.34,86c5.28,6.69,8.27,14.75,10,22.85a86.88,86.88,0,0,1,1.59,12.32c.13,2.07.18,4.14.17,6.21,0,1,0,2.08-.08,3.11a5,5,0,0,0,.85,2.19c1.79,2.89,4.19,5.62,6.23,8.72a30.37,30.37,0,0,1,4,7.92,14.61,14.61,0,0,1,.59,6.24,10.84,10.84,0,0,1-1.33,3.92,8.12,8.12,0,0,1-1.74,2.09,8.38,8.38,0,0,1-1.61,1.19c-.32.15-.36,0-.16-.48a9.13,9.13,0,0,1,.47-.88l.69-1.32a12.54,12.54,0,0,0,.48-9.94,35.42,35.42,0,0,0-5.23-9.18l-3.35-4.48a29.44,29.44,0,0,1-1.65-2.47c-.13-.22-.26-.46-.38-.71a5.68,5.68,0,0,1-.36-.78l-.16-.42-.13-.48a5.38,5.38,0,0,1-.13-1.12,88.76,88.76,0,0,0-1.85-22.17c-1.59-7.24-4.31-14.34-8.8-20.17a33.35,33.35,0,0,0-7.93-7.48,55.11,55.11,0,0,0-4.83-2.76c-.42-.21-.82-.46-1.25-.65l-1.29-.54-2.57-1.11a36.61,36.61,0,0,0-16.09-2.43,29.41,29.41,0,0,0-7.93,1.71,31.66,31.66,0,0,0-3.73,1.63,33.22,33.22,0,0,0-3.54,2.13,4.87,4.87,0,0,1-1.68.71,10.17,10.17,0,0,1-1.3.16c-.78.07-1.51.1-2.23.14-1.45.07-2.87.13-4.28.25A62.42,62.42,0,0,0,211.39,81a40.18,40.18,0,0,0-15.2,6.29Z"/><path class="cls-1" d="M179.12,173.3a7.89,7.89,0,0,0,0,5c.19.5,2.19-.14,2-.54a7.38,7.38,0,0,1,0-4.8c.11-.46-1.88-.17-2,.35Z"/><path class="cls-1" d="M167.61,187.6a9.7,9.7,0,0,0,.16,5.42c.33.86,2.34.29,2-.55a9,9,0,0,1-.15-5c.2-1-1.87-.68-2,.17Z"/><path class="cls-1" d="M171,187.61a9.85,9.85,0,0,0,.13,5.54c.32.85,2.33.27,2-.54a9.17,9.17,0,0,1-.12-5.19c.2-.92-1.87-.64-2,.19Z"/><path class="cls-2" d="M318.65,299.43c-1.2.53-2.44,1-3.67,1.57s-2.49,1-3.76,1.39a27.59,27.59,0,0,1-3.82.93,7.48,7.48,0,0,1-3.49-.09c-.11-.05-1.07,1.93-.82,2a9.28,9.28,0,0,0,4.63.29,28.85,28.85,0,0,0,4.18-1c1.35-.4,2.67-.88,4-1.41a22,22,0,0,0,3.78-1.91A4.88,4.88,0,0,0,318.65,299.43Z"/><path class="cls-1" d="M233.54,167.85c3.91.76,10.63,6.13,22.68.56-1.5.75-4.46.83-6.19,1-1.51.13-3,.27-4.54.39C241.82,170,237.19,168.45,233.54,167.85Z"/><path class="cls-2" d="M233.72,168.65c3.64.63,7.29,1.94,11.31,1.89,1.94-.12,3.8-.31,5.68-.45.94-.07,1.89-.13,2.86-.25a9.77,9.77,0,0,0,3-.76l-.65-1.36a23.85,23.85,0,0,1-10.83,2.41,20.92,20.92,0,0,1-5.47-1c-1.82-.53-3.49-1.37-5.5-1.92-.57-.15-.8,1.36-.36,1.46,1.71.46,3.52,1.34,5.41,1.9a22.26,22.26,0,0,0,5.86,1,25.49,25.49,0,0,0,11.52-2.54l-.65-1.36a8.73,8.73,0,0,1-2.5.61c-.9.12-1.83.18-2.78.25-1.89.14-3.8.33-5.62.44-3.6.06-7.22-1.19-11-1.86C233.55,167.09,233.32,168.58,233.72,168.65Z"/><path class="cls-1" d="M219.88,143.15c1.35,1.57,2.94,3.95,2.71,6.12a3.3,3.3,0,0,1-.26,1c-.26.58-.34.72-.87.68a5.29,5.29,0,0,1-2.1-1.12c-1.06-.74-2-1.71-3-2.4-.61-.39-2.64.55-2.17.84,2.77,1.78,6.28,6,9.7,2.71,2.58-2.46,0-6.52-1.8-8.65-.44-.5-2.64.3-2.17.84Z"/><path class="cls-1" d="M228.75,136.31c1,2.63,3,7.14,6.4,6.91,6-.41,3.24-6.74,2.33-10.29-.14-.55-2.46,0-2.31.63.38,1.52,1,3,1.33,4.5.21,1,.65,5.07-1.42,3.76s-3.2-4-4-6.14c-.22-.58-2.5.13-2.32.63Z"/><path class="cls-2" d="M144.68,194.61H93.92L88.7,116.72c-.06-1.54-5.77-1.16-5.63.38l5.57,83.16h56C145.9,200.28,145.9,194.6,144.68,194.61Z"/><path class="cls-1" d="M228.5,148.91c.07,1.82-.18,3.67-.16,5.5,0,1.31-.17,4,1.23,4.79,1.59.87,4.25-.87,5.4-1.84a13.43,13.43,0,0,0,3.34-4.35c.28-.58-2-.37-2.31.33a12.53,12.53,0,0,1-2,2.89c-.44.48-2.09,2.07-2.56,1.89s-.55-1.34-.61-1.68c-.46-2.71.1-5.44,0-8.15,0-.65-2.35-.21-2.32.62Z"/><path class="cls-1" d="M247.11,156.57a1.17,1.17,0,0,1-.36.83c-.83.89-2.17-.24-1.91-1.46C245.19,154.31,247.08,155.41,247.11,156.57Z"/><path class="cls-1" d="M246.31,156.64a.77.77,0,0,1-.11.4c-.16.26-.19.13-.07.14S246,157,246,157a1.16,1.16,0,0,1-.31-.6,1.09,1.09,0,0,1,0-.36c0-.08.11-.3.1-.36s.14,0-.06,0c0,0-.21.07-.2,0s.33.17.36.19a1.22,1.22,0,0,1,.48.92c.05.69,1.65.32,1.6-.42-.14-2-3.22-2.51-3.82-.55a1.94,1.94,0,0,0,1.21,2.38,2,2,0,0,0,2.62-1.69C248,155.71,246.34,156,246.31,156.64Z"/><path class="cls-1" d="M205.45,144.07c.14.23-.11.42-.59.63a1.2,1.2,0,0,1-.7,0,2.75,2.75,0,0,1-.35-.43,8.39,8.39,0,0,1-.17-.87c0-.45-.07-1-.1-1.22a5.94,5.94,0,0,1,.18-1.51,10.54,10.54,0,0,1,1.27-2.9,2.21,2.21,0,0,1,.46-.55c.62-.54,1.17-1.1,1.79-1.61a.76.76,0,0,0,.27-.29,4.07,4.07,0,0,1,1.06-.77,5.54,5.54,0,0,1,1.24-.51,13,13,0,0,1,2-.24c.09,0,.19,0,.29,0a.87.87,0,0,0,.62.1,2.92,2.92,0,0,1,.83.05,1.26,1.26,0,0,1,.41.22c.12.08.05.37,0,.41s0,.23,0,.35v.13a3.89,3.89,0,0,1-.72.36,8.41,8.41,0,0,1-.77.36,10,10,0,0,0-1,.31,8.84,8.84,0,0,0-1.05.49.86.86,0,0,1-.32.1,7.25,7.25,0,0,0-1.28,1c-.27.16-.43.43-.77.51a.38.38,0,0,0-.14.11,7.31,7.31,0,0,1-.52.59c-.17.2-.32.42-.48.63a3.81,3.81,0,0,0-.36.73s-.07.07-.1.11a.42.42,0,0,0-.1.17,6.28,6.28,0,0,0-.47,1.93c0,.15-.28.88-.25,1.07S205.39,144,205.45,144.07Z"/><path class="cls-1" d="M224.05,128.82c.1.23-.17.36-.68.49a1.21,1.21,0,0,1-.69-.09,2,2,0,0,1-.27-.47,3.68,3.68,0,0,1,0-.89c.06-.45.1-1,.17-1.21a4.66,4.66,0,0,1,.58-1.4,10.32,10.32,0,0,1,1.89-2.36,2.94,2.94,0,0,1,.55-.37c.67-.36,1.28-.76,1.89-1.15a.92.92,0,0,0,.29-.23,6.78,6.78,0,0,1,2.19-1c.64-.08,1.27-.17,1.9-.2.09,0,.18,0,.27,0a.74.74,0,0,0,.59.07,3.06,3.06,0,0,1,.8,0,1,1,0,0,1,.4.19c.12.07.08.37.05.41s0,.23,0,.35,0,.09,0,.13a13.9,13.9,0,0,1-1.41.8s-.49.13-1,.33a10.42,10.42,0,0,0-1.07.48.93.93,0,0,1-.33.07,14.25,14.25,0,0,0-1.41.85,2.28,2.28,0,0,1-.85.39.32.32,0,0,0-.16.09c-.42.32-.86.61-1.26,1a4.15,4.15,0,0,0-.53.59.54.54,0,0,1-.12.09.55.55,0,0,0-.14.12,5,5,0,0,0-.91,1.62,8.4,8.4,0,0,0-.46.9C224.36,128.46,224,128.72,224.05,128.82Z"/></g></svg>