<svg id="Layer_1" data-name="Layer 1" xmlns="http://www.w3.org/2000/svg" width="520" height="520" viewBox="0 0 520 520"><defs><style>.cls-1{opacity:0.3;}.cls-2{fill:#221f1f;}.cls-3{fill:#232020;}.cls-4{opacity:0.6;}.cls-5{fill:none;stroke:#221f1f;stroke-linecap:round;stroke-linejoin:round;stroke-width:2px;}</style></defs><title>Notioly v2</title><g id="_76.Send_money" data-name="76.Send money"><g class="cls-1"><path class="cls-2" d="M236.68,240.43c-1.79,0-3.58-.05-5.36-.09-.65,0-1.29.07-1.94,0-2.29-.11-4.57-.3-6.85-.45a27.65,27.65,0,0,0-3,0,10.72,10.72,0,0,1-3.87-.11c-.8-.25.31-3.57,1.76-3.58a44.06,44.06,0,0,1,7.82.6A32.07,32.07,0,0,0,230,237c1.76,0,3.53.07,5.29.07,1.09,0,2.17,0,3.26-.05l2.45-.13q1.23-.09,2.43-.27a20.09,20.09,0,0,0,3.53-1.07c.25-.1.49-.21.74-.29.86-.34,1.21-.21,1.75.59.12.18.26.36.37.55a1.26,1.26,0,0,1-.59,1.78,17.66,17.66,0,0,1-7.13,2.05c-1.82.2-3.64.27-5.44.33Z"/></g><g class="cls-1"><path class="cls-2" d="M213.1,115a22.93,22.93,0,0,0-3.21,19.82,23.54,23.54,0,0,0,3.41,6.79,21.68,21.68,0,0,0,10.62,8,19.32,19.32,0,0,0,6.66,1.1,19.93,19.93,0,0,0,6.71-1.15,19.23,19.23,0,0,0,5.35-2.88l.62-.45.56-.52c.38-.34.77-.67,1.13-1a24,24,0,0,0,2-2.32,23.67,23.67,0,0,0,3.47-6.92,31.79,31.79,0,0,0,1.34-7.65c.1-1.61,1.07-1.53,2-.06a8.27,8.27,0,0,1,.7,1.37,13.05,13.05,0,0,1,.45,1.84,9.1,9.1,0,0,1,.1,2.24c0,.39-.06.8-.11,1.22s-.18.83-.3,1.25a25.69,25.69,0,0,1-10.69,14.81A23.85,23.85,0,0,1,226,153.8a27,27,0,0,1-10.13-4.51,24.66,24.66,0,0,1-7.34-8.33,26.89,26.89,0,0,1-3.23-11.66,27.22,27.22,0,0,1,2.2-11.82,26.81,26.81,0,0,1,3.92-6.3,27.84,27.84,0,0,1,5.56-4.89,23.87,23.87,0,0,1,21.51-2,25.67,25.67,0,0,1,12.86,10.93c.31.56.67,1.08.93,1.66s.53,1.15.79,1.74a24.77,24.77,0,0,1,.87,2.88,14.21,14.21,0,0,1,.25,2,3.37,3.37,0,0,1-.71,2.3,4.27,4.27,0,0,1-.61.69c-.36.23-.75-.1-1.12-.83a8.58,8.58,0,0,1-.53-1.42,16.06,16.06,0,0,1-.65-1.93,28.08,28.08,0,0,0-3-6.09,25,25,0,0,0-4.54-5,20.21,20.21,0,0,0-22.24-2.82,21.54,21.54,0,0,0-7.66,6.67Z"/></g><path class="cls-2" d="M285.16,343.09a257.25,257.25,0,0,1-12.63-24.68c-1.39-3.07-2.83-6.1-4.12-9.2-2.3-5.44-4.43-11-6.55-16.46-1.08-2.71-2.25-5.39-3.44-8.09-.6-1.35-1.2-2.71-1.76-4.12-.28-.7-.54-1.42-.77-2.19a9,9,0,0,1-.29-1.26c0-.11,0-.21,0-.34v-.42a2.56,2.56,0,0,1,.11-.83,1.78,1.78,0,0,1,.09-.33l.47-1a9.16,9.16,0,0,1,.54-.95,6.41,6.41,0,0,1,.68-.92,4.64,4.64,0,0,1,.87-.84,4.82,4.82,0,0,1,1.1-.67,4.88,4.88,0,0,1,1.29-.32,4.23,4.23,0,0,1,1.29.06,4.8,4.8,0,0,1,1.17.33,11.57,11.57,0,0,1,3.57,2.44,28.13,28.13,0,0,1,2.7,3A58.12,58.12,0,0,1,275,284.9a47.88,47.88,0,0,1,3.9,9.44c.54,2.12-.43,2-1.77.63a30.07,30.07,0,0,1-5-7.27A54.54,54.54,0,0,0,265.3,277a16.28,16.28,0,0,0-2.06-2,5,5,0,0,0-1.89-1,1.07,1.07,0,0,0-1.09.37,4.7,4.7,0,0,0-.67.88,2.82,2.82,0,0,0-.32.57l-.15.31-.08.16,0,.06s0,.05,0,.07,0,0,0,0l0,.14,0,.27a13.41,13.41,0,0,0,.43,1.45c.35,1,.8,2.12,1.25,3.2.91,2.17,1.86,4.37,2.76,6.61l2.31,5.83c.76,1.94,1.52,3.89,2.33,5.83,1.58,3.89,3.28,7.75,4.94,11.6,3.71,8.41,7.6,16.76,12.06,24.79a140.94,140.94,0,0,0,8.93,14.35,70.82,70.82,0,0,0,8.18,9.73c3.09,3,6.21,6,9.23,9,4.73,4.69,9.46,9.18,14.07,13.9,1,1,2,2,3,3.12,3.68,4,4.59,5.65,4.51,7.18a3.71,3.71,0,0,1-.12,1c-.18.39-.71.18-1.39-.4a14.33,14.33,0,0,1-1.36-1.22c-.55-.51-1.15-1.12-1.82-1.83-4-4.17-8.32-8.39-12.63-12.69s-8.71-8.68-13.15-12.94c-1.59-1.49-3.4-3.21-5-4.95l-2.36-2.7c-.76-.92-1.47-1.86-2.21-2.8a125.79,125.79,0,0,1-7.88-11.73Z"/><path class="cls-2" d="M256.23,222.7s-.09,0-.12,0-.09.07,0,0h0l0,.05s-.07.06-.07.11a1.34,1.34,0,0,1-.09.26,3.53,3.53,0,0,0-.12,1.4,12.38,12.38,0,0,0,1.09,3.66,43,43,0,0,0,4.44,7.36,130,130,0,0,0,11.6,13.52c3.16,3.23,6.49,6.32,9.87,9.27.76.67,1.46,1.24,2.28,1.91a18.63,18.63,0,0,1,2.35,2.35,42.94,42.94,0,0,1,3.63,5.15,101.29,101.29,0,0,1,5.61,10.91,176.64,176.64,0,0,1,8.3,22.88,98.34,98.34,0,0,1,2.47,10.6c.15.91.26,1.83.33,2.78,0,.47.05.95,0,1.44a6.78,6.78,0,0,1,0,.77,5.7,5.7,0,0,1-.17,1,3,3,0,0,1-1,1.66,3.21,3.21,0,0,1-.92.36,5.62,5.62,0,0,1-1,.24,9.13,9.13,0,0,1-3.09-.06,16.73,16.73,0,0,1-6.65-3.19,42.5,42.5,0,0,1-5.26-4.73c-3.22-3.36-6-7.06-8.79-10.52-.88-1.07-1.12-1.63-.85-1.86s1.07-.06,2.21.56c2.31,1.22,5.71,4.25,9.11,8a48.31,48.31,0,0,0,4.75,4.65,17.16,17.16,0,0,0,5.15,3.18,6.5,6.5,0,0,0,2.51.39c.56-.07.32,0,.39,0h0s0,0,0,0a2.91,2.91,0,0,0,0-.32c0-.21,0-.46,0-.7,0-.5-.05-1-.1-1.55-.1-1.06-.28-2.16-.48-3.26a121,121,0,0,0-3.43-13.27c-1.37-4.4-2.9-8.78-4.59-13.1a95.21,95.21,0,0,0-7.38-15.08,28.84,28.84,0,0,0-5.05-6.37l-1.66-1.34c-.57-.47-1.12-.95-1.67-1.43q-1.65-1.44-3.24-2.92a173.51,173.51,0,0,1-13.21-13.77,95,95,0,0,1-5.89-7.6,34.32,34.32,0,0,1-4.6-8.69,10.5,10.5,0,0,1-.54-3.82c0-.35.09-.7.15-1s.24-.7.37-1.05a2.14,2.14,0,0,1,.28-.48l.4-.58a8.61,8.61,0,0,1,.92-.89,3.09,3.09,0,0,1,.64-.36,2.06,2.06,0,0,1,.74-.08,4.66,4.66,0,0,1,1.48.4c.54.23.79.38,1.14.56l.93.56c1.22.76,2.35,1.57,3.48,2.39,2.24,1.65,4.41,3.37,6.56,5.09,4.59,3.69,9.1,7.49,13.65,11.22,2.27,1.86,4.54,3.72,6.84,5.52,1.15.9,2.3,1.79,3.47,2.65a37.61,37.61,0,0,1,3.47,2.86,57.51,57.51,0,0,1,8.72,10.63c2.47,3.81,4.8,7.6,7,11.55,1,1.75,1.92,3.46,2.8,5.29a37.67,37.67,0,0,1,2.85,7.48,7,7,0,0,1,.08,3.69,6.47,6.47,0,0,1-.4,1.16c-.63.8-1.49-2-3.65-6.77a112.81,112.81,0,0,0-5.54-10.59c-2-3.47-4.21-7.06-6.44-10.46a52.58,52.58,0,0,0-7.58-9.32,47.91,47.91,0,0,0-4.75-3.81c-1.71-1.3-3.39-2.62-5.06-4-4.94-4-9.79-8-14.67-12-2.44-2-4.89-4-7.37-5.86-1.23-.94-2.48-1.87-3.73-2.73-.63-.43-1.25-.84-1.87-1.21q-.46-.28-.9-.51l-.18-.09Z"/><path class="cls-2" d="M281.92,289.82a15.48,15.48,0,0,1-1.21-6.81,20.71,20.71,0,0,1,.07-2.37,41.64,41.64,0,0,1,1.94-7.88c.38-1.12.71-2.26,1-3.38a11,11,0,0,1,1.83-4.2c.33-.38,1.07.13,1.67.86a2.69,2.69,0,0,1,.8,2.4c-1,2.62-2,5.3-3.09,8a18.54,18.54,0,0,0-.86,5.18,15.73,15.73,0,0,0,.43,5.51,9.53,9.53,0,0,0,.61,1.51c.13.21.29.5.39.65a3.57,3.57,0,0,0,.3.38,4.1,4.1,0,0,0,.56.54,1,1,0,0,0,.73.3c.27-.07.37-.36.44-.61a5,5,0,0,0,.16-.79l.09-.84.16-1.16a9.77,9.77,0,0,1,.68-2.4,6.15,6.15,0,0,1,.54-1.05c.93-1.22,1.6-1.28,2.32-.67a4.07,4.07,0,0,1,.49.43,1.68,1.68,0,0,1,.12,1.83,10.7,10.7,0,0,0-.83,2.86c-.12.79-.25,1.59-.38,2.38a9.49,9.49,0,0,1-.49,1.89,3.92,3.92,0,0,1-.91,1.32,3.08,3.08,0,0,1-2.17.77,3.68,3.68,0,0,1-.58-.07c-.19-.06-.39-.11-.58-.18L285,293.6c-.38-.27-.74-.62-1.11-.92s-.66-.73-1-1.09l-.23-.27-.13-.21-.26-.41a7.77,7.77,0,0,1-.47-.84Z"/><path class="cls-2" d="M327,275.39c-1.75-2.94-3.53-5.86-5.45-8.66-.7-1-1.5-2-2.22-3a45.06,45.06,0,0,0-8.67-9.46,11.56,11.56,0,0,0-4.86-2.22,7.85,7.85,0,0,0-3.14.16,13.53,13.53,0,0,0-1.45.56l-.73.32c-.24.15-.48.28-.73.41-.61.31-1.19-.37-1.17-1.48a3.31,3.31,0,0,1,.6-1.84,4.49,4.49,0,0,1,.82-.88,4,4,0,0,1,1.18-.6l.59-.2.62-.11c.41-.06.82-.15,1.23-.17a10.93,10.93,0,0,1,2.44.16,13.63,13.63,0,0,1,2.26.6,17.89,17.89,0,0,1,2,1,24,24,0,0,1,6.34,5.39c2.11,2.44,4.31,4.86,6.21,7.46,2.09,2.85,4,5.81,5.81,8.79l3.33,5.51c1.69,2.79,3.26,5.56,5.19,8.16a46.17,46.17,0,0,1,4.08,6.48c.25.5.52,1,.74,1.5.81,1.89.81,2.58.11,3.32a4.53,4.53,0,0,1-.49.49c-.6.44-1.45-.13-2.17-1.43-1.09-1.95-2.07-3.87-3.21-5.67-.57-.91-1.18-1.81-1.82-2.72l-1-1.39c-.36-.5-.7-1-1-1.51-1.95-3-3.67-6-5.51-8.91Z"/><path class="cls-2" d="M343.18,283.26c-.95-2.14-1.92-4.25-3-6.26-.4-.73-.9-1.4-1.34-2.1a18.36,18.36,0,0,0-5.55-6.27,6,6,0,0,0-3.32-.94,20.43,20.43,0,0,0-4.39.94c-.49.09-.88-.72-.82-1.7a3.43,3.43,0,0,1,.46-1.5,2.52,2.52,0,0,1,1.34-1,10.23,10.23,0,0,1,6.53.27,12.23,12.23,0,0,1,4.95,3.67,47.37,47.37,0,0,1,4.17,5.47,68,68,0,0,1,3.4,6.48l1.83,4c.93,2,1.78,4.1,2.79,6.05a44.25,44.25,0,0,0,2.68,4.29c.2.31.43.59.62.9.72,1.16.76,1.62.12,2.37a5.41,5.41,0,0,1-.44.5c-.53.5-1.33.32-2.06-.49a35.37,35.37,0,0,1-5-8.2l-3-6.46Z"/><path class="cls-2" d="M371.05,363.06,370.17,342c-.07-1.28-.18-2.55-.27-3.82s-.26-2.43-.44-3.68c-.63-4.38-1.57-8.79-2.62-13.15s-2.26-8.7-3.63-13a90.27,90.27,0,0,0-4.36-11.07,42,42,0,0,0-3.73-6.41,9.61,9.61,0,0,0-2.25-2.32,1.4,1.4,0,0,0-.89-.3,1.47,1.47,0,0,0-.9.47c-.43.4-.79.59-1.08.37a1.58,1.58,0,0,1-.34-1.6,2.81,2.81,0,0,1,.83-1.48,3.28,3.28,0,0,1,2.44-.88,5.41,5.41,0,0,1,2.7.93,8.06,8.06,0,0,1,1.93,1.74,36,36,0,0,1,4.28,7.21c1.14,2.46,2.13,4.94,3,7.45a138.58,138.58,0,0,1,4.45,15.3c.72,3.1,1.46,6.26,2.2,9.44a81.49,81.49,0,0,1,1.7,9.76c.5,7.17.7,14.22,1,21.31.19,4.36.4,8.72.67,13.06.42,6.58.89,13.2,1.74,19.67a122.15,122.15,0,0,0,2.88,14.73c.3,1,.56,2.1.88,3.13,1.14,3.89,1.52,5,1,6.24a5.46,5.46,0,0,1-.36.8c-.26.34-.67.18-1.2-.44a9.24,9.24,0,0,1-.87-1.26,9.61,9.61,0,0,1-.91-1.9,73.49,73.49,0,0,1-3.65-13.64c-.86-4.68-1.42-9.45-1.92-14.23-.71-7.1-1.13-14.24-1.52-21.34Z"/><path class="cls-2" d="M332.22,413.33c-.48-2.4-1-4.8-1.58-7.17-.2-.87-.53-1.7-.75-2.56-.76-3.05-1.55-6.1-2.58-9.08a39.47,39.47,0,0,0-1.6-3.85,28.47,28.47,0,0,1-2.13-4.9c-.14-.55.56-.83,1.45-.75a3.32,3.32,0,0,1,2.54,1.43,38.2,38.2,0,0,1,4,10.49c.51,2.2,1.4,4.36,2,6.56.69,2.42,1.26,4.87,1.8,7.32l1,4.53c.49,2.28.89,4.59,1.43,6.84.41,1.75,1,3.42,1.53,5.13.11.37.25.73.35,1.12.33,1.42.19,1.92-.76,2.42a4.46,4.46,0,0,1-.6.33c-.66.27-1.51-.17-1.9-1.18a54,54,0,0,1-2.75-9.43c-.54-2.4-1-4.83-1.58-7.23Z"/><path class="cls-2" d="M362.75,426.35c-2.42.71-4.86,1.35-7.31,1.94-.89.22-1.76.54-2.66.72-3.17.67-6.37,1.19-9.59,1.6l-4.3.62c-1.85.22-3.74.67-5.86-.19-.69-.33-.14-1.1.49-1.82a3.35,3.35,0,0,1,2.24-1.49c1.61,0,3.38-.19,5.15-.36l5.42-.5a43.78,43.78,0,0,0,6.57-1.41c2.41-.58,4.81-1.19,7.19-1.89,1.47-.42,2.93-.87,4.38-1.36a68.87,68.87,0,0,0,6.46-2.48,40.63,40.63,0,0,0,4.57-2.66c.32-.2.62-.44.95-.64,1.23-.72,1.72-.77,2.46-.12.17.15.36.28.51.44.49.54.27,1.35-.59,2.09a34.12,34.12,0,0,1-8.84,5c-2.36,1-4.78,1.79-7.21,2.58Z"/><path class="cls-2" d="M366,437.36c.55,1.88,1.14,3.78,1.59,5.83a16.2,16.2,0,0,1,.44,3.38,5.69,5.69,0,0,1-.44,2.3l-.15.33-.25.36a2.81,2.81,0,0,1-.6.65A3.94,3.94,0,0,1,365,451l-.31.08-.39-.05a4.77,4.77,0,0,1-2.5-1.18,6.07,6.07,0,0,1-1.34-1.91,13.19,13.19,0,0,1-.94-3.5c-.31-2.2-.37-4.26-.48-6.29a50.79,50.79,0,0,0-.51-5.83c-.29-1.82-.92-3.56-1.76-4.19l2.85-.59a7.2,7.2,0,0,0-.56,4.27,32.61,32.61,0,0,0,1.13,5.14c.5,1.76,1.09,3.53,1.6,5.39.26.93.5,1.89.68,2.9a11.61,11.61,0,0,1,.16,3.33c0,.31-.12.64-.19,1a5.69,5.69,0,0,1-.41,1,4.74,4.74,0,0,1-1.51,1.7l-.18.13-.3.1a2.34,2.34,0,0,1-1.46-.05,2.55,2.55,0,0,1-.86-.56,3.69,3.69,0,0,1-.65-.89,7.4,7.4,0,0,1-.58-1.35c-.29-.83-.5-1.61-.69-2.39-.38-1.56-.68-3.09-1-4.62-.61-3-1.17-6.06-1.94-8.92a22,22,0,0,0-.71-2.21,5.31,5.31,0,0,0-.81-1.54l1.91-.33a.72.72,0,0,0,.3.28l.14.11s0,0,0,0h0s0,.1-.05.14a.8.8,0,0,0-.06.2,5.88,5.88,0,0,0-.11,1.19,21.65,21.65,0,0,0,.17,2.85c.23,2,.58,4,.94,6s.75,4.05,1,6.15a28.17,28.17,0,0,1,.29,3.28,9.16,9.16,0,0,1-.16,1.93c-.06.2-.13.42-.21.62a3.26,3.26,0,0,1-.45.74,2.53,2.53,0,0,1-.93.67,4,4,0,0,1-.57.14l-.29,0-.22,0a3.12,3.12,0,0,1-.78-.17l-.57-.25a4.71,4.71,0,0,1-.94-.68,6.14,6.14,0,0,1-1.25-1.62,14.53,14.53,0,0,1-1.21-3.25,57.82,57.82,0,0,1-1.08-6.26c-.27-2.05-.52-4.08-.89-6a20.52,20.52,0,0,0-.72-2.78,4.88,4.88,0,0,0-1.16-2l2.13-.48a4.58,4.58,0,0,0-.18,1.87,21.63,21.63,0,0,0,.32,2.43c.3,1.65.72,3.32,1.15,5a99.58,99.58,0,0,1,2.42,10.34,11.37,11.37,0,0,1,.11,2c0,.18,0,.36-.05.56a3.11,3.11,0,0,1-.13.6,2.44,2.44,0,0,1-.29.69,2.18,2.18,0,0,1-.59.69,3,3,0,0,1-.82.42,2.19,2.19,0,0,1-1.05,0,2,2,0,0,1-.82-.38l-.31-.24-.21-.23a7.07,7.07,0,0,1-1.12-1.82,43.24,43.24,0,0,1-2.13-7c-.54-2.3-1-4.61-1.54-6.88-.26-1.13-.52-2.26-.82-3.35-.15-.54-.3-1.09-.48-1.58-.09-.24-.18-.49-.27-.67a1.33,1.33,0,0,0-.12-.21s-.13,0,.17-.19a.94.94,0,0,0,.38-.49l1.27.3a7,7,0,0,0-.58,4.33,41.32,41.32,0,0,0,2.63,9.05c.56,1.52,1.16,3.05,1.66,4.68a13.38,13.38,0,0,1,.58,2.66,4.34,4.34,0,0,1-.17,1.79,2.09,2.09,0,0,1-.27.54,1.68,1.68,0,0,1-.42.51,2.65,2.65,0,0,1-1.13.62l.12,0a2.53,2.53,0,0,1-1.6,0c-.22-.09-.42-.19-.63-.3a4.61,4.61,0,0,1-.46-.36,5.9,5.9,0,0,1-1.16-1.48,17.29,17.29,0,0,1-1.27-2.9,43.05,43.05,0,0,1-1.46-5.79,55,55,0,0,1-.91-11.76c.08-2.3.77-3.41,1-3.21s.26,1.33.63,3.16.88,4.42,1.64,7.48c.37,1.54.82,3.19,1.3,4.91a44.85,44.85,0,0,0,1.71,5.18,7.9,7.9,0,0,0,.78,1.45c.06.09.11.12.15.18s0,0,0,0h0l-.1.14c-.07.08-.14.23-.17.26-.42.59-.24.8-.34.53l0-.39a.74.74,0,0,0,.16.43s0,.06,0,0l-.15-.1a1.39,1.39,0,0,1-.22-.09,3,3,0,0,0-.74-.19,3.52,3.52,0,0,0-.07-.75,20.61,20.61,0,0,0-.76-2.64l-2.13-5.81a37.13,37.13,0,0,1-1.74-6.37,14.82,14.82,0,0,1-.21-3.63,8.86,8.86,0,0,1,1.19-4l1.13-1.88,1.93,1a3.33,3.33,0,0,1,1.1,1c.09.12.17.24.25.37a1.55,1.55,0,0,1,.15.28,8.35,8.35,0,0,1,.43,1c.21.58.37,1.12.51,1.64.3,1.06.53,2.07.76,3.08l1.29,6c.43,2,.88,3.92,1.44,5.76a17.7,17.7,0,0,0,.92,2.54c.09.15.18.36.25.46l.11.18.06.06c.06,0-.11.14-.2.22a2.16,2.16,0,0,0-.27.33c-.17.34-.21.33-.25.49a.52.52,0,0,0,0,.11v0a0,0,0,0,0,0,0s0-.16-.06-.22a.76.76,0,0,0-.15-.23l0,0,.3.45h0v0l0-.06a.21.21,0,0,0-.1-.06,1.43,1.43,0,0,0-.59-.33c-.48-.21-.33-.13-.34-.15a.89.89,0,0,1,0-.15,4.9,4.9,0,0,0,0-1.08,23,23,0,0,0-.44-2.75c-.4-1.91-.93-3.88-1.44-5.86s-1-4-1.46-6.09a29.31,29.31,0,0,1-.49-3.26,13.4,13.4,0,0,1-.05-1.81,6.14,6.14,0,0,1,.53-2.26l1-2.26,1.9,1.59a6.59,6.59,0,0,1,1.83,2.52,15.81,15.81,0,0,1,.82,2.43,40.39,40.39,0,0,1,.84,4.65,82.17,82.17,0,0,0,1.52,9.63,10,10,0,0,0,.75,2,2.36,2.36,0,0,0,.95,1.11l.11.05s0,0,0,0a1.3,1.3,0,0,0-.08.34,2.08,2.08,0,0,0,0,.35.37.37,0,0,0,0,.11.43.43,0,0,0,.05.13l-.06-.09a.12.12,0,0,0-.07-.05,1.6,1.6,0,0,0-.23-.21,1.47,1.47,0,0,0-.28-.14s-.13,0-.12,0v0l0-.08,0-.18a10,10,0,0,0,0-2.11c-.32-3.18-1.06-6.53-1.65-9.89-.29-1.69-.58-3.39-.75-5.17a21.15,21.15,0,0,1-.08-2.79,8.26,8.26,0,0,1,.25-1.59,3.61,3.61,0,0,1,1.23-1.95l1.09-.87,1,1a6.62,6.62,0,0,1,1.23,1.84,17,17,0,0,1,.69,1.71c.38,1.11.67,2.21.94,3.31.53,2.19.95,4.35,1.37,6.5.33,1.7.65,3.39,1,5,.18.82.38,1.63.62,2.38a8.07,8.07,0,0,0,.38,1l.08.15,0,0h0l-.18.15a2,2,0,0,0-.49.6c-.07.13,0,.15-.06.06l-.72-.83a1.61,1.61,0,0,0,.46-.54,3.16,3.16,0,0,0,.22-1,10.16,10.16,0,0,0-.28-2.7c-.41-1.93-1.07-3.92-1.67-5.94a46.1,46.1,0,0,1-1.56-6.33,15.86,15.86,0,0,1-.16-3.47,8.52,8.52,0,0,1,1-3.61l.82-1.43,1.28,1a7,7,0,0,1,2.14,2.93,15,15,0,0,1,.88,3.11,46.48,46.48,0,0,1,.59,6c.11,2,.17,3.9.39,5.76a14.65,14.65,0,0,0,.51,2.62,3,3,0,0,0,1,1.65,1.76,1.76,0,0,1,.2.09.86.86,0,0,1,.23.06h-.43c.08-.06.09,0,.11-.07a.91.91,0,0,0,.15-.45,6.76,6.76,0,0,0-.07-1.82,34.52,34.52,0,0,0-1-4.13c-.79-2.81-1.74-5.61-2.39-8.6a13.61,13.61,0,0,1-.34-4.84,3.55,3.55,0,0,1,1.81-2.7,1.79,1.79,0,0,1,.91-.14,2,2,0,0,1,.76.29,3.08,3.08,0,0,1,.7.72,6.26,6.26,0,0,1,.62,1.2,33,33,0,0,1,1.31,4.4c.35,1.45.67,2.89,1,4.33.41,1.87.83,3.74,1.32,5.55A25.28,25.28,0,0,0,370,444a6.49,6.49,0,0,0,.53,1.12,1.78,1.78,0,0,0,.25.35c0,.08.1-.07-.05.18a.61.61,0,0,0-.09.27l-.54-.31c.18,0,.47-.8.45-1.66a17.39,17.39,0,0,0-.24-2.73c-.29-1.88-.71-3.78-1.09-5.7a50.75,50.75,0,0,1-.91-5.88,17,17,0,0,1,0-3.11,7,7,0,0,1,1.11-3.22l.84-1.19.83,1.18a8.91,8.91,0,0,1,1.18,2.63c.26.85.45,1.7.62,2.54.34,1.68.6,3.35.86,5s.51,3.29.84,4.89c.17.8.34,1.59.57,2.34a7.91,7.91,0,0,0,.85,2,1.39,1.39,0,0,0,.35.33.93.93,0,0,0,.31-.1l.08,0,.08,0c.05,0,.13-.07.23-.4a4.57,4.57,0,0,0,.12-1.12,18.16,18.16,0,0,0-.27-2.68c-.31-1.83-.74-3.68-1.13-5.54s-.76-3.76-1-5.71a20,20,0,0,1-.11-3,8.43,8.43,0,0,1,.71-3.23L376,420l1.17.63a6.33,6.33,0,0,1,2,1.79,11.33,11.33,0,0,1,1.16,2.12,25,25,0,0,1,1.27,4.27c.31,1.42.54,2.8.82,4.16s.51,2.75.83,4.07a16.69,16.69,0,0,0,.59,2,3,3,0,0,0,.31.63s0,0,0,0l-.18.15-.29.3a.82.82,0,0,0-.21.37,1.79,1.79,0,0,0-.64-.81l-.08-.06h0l0-.05a.69.69,0,0,0,.07-.13,3.89,3.89,0,0,0,.16-.39l.1-.34.06-.42a11.19,11.19,0,0,0,0-2,63,63,0,0,0-1-7c-.08-.5-.16-1-.24-1.42s-.13-.89-.19-1.3c-.1-.81-.2-1.54-.28-2.19a13.78,13.78,0,0,1,.13-5.6,7.79,7.79,0,0,1,.56-1.66c.37-.55.63.34,1.08,2.32.24,1,.54,2.27.91,3.8.19.78.39,1.63.59,2.55s.4,1.87.62,2.9a46.67,46.67,0,0,1,1.27,8.43,10.12,10.12,0,0,1-.24,2.53c-.07.23-.14.5-.22.71a6.27,6.27,0,0,1-.27.63,4.69,4.69,0,0,1-.47.77,2.69,2.69,0,0,1-.51.51,1.91,1.91,0,0,1-.42.27,2.36,2.36,0,0,1-.63.22,2.33,2.33,0,0,1-.79,0,2.73,2.73,0,0,1-.65-.2,2.95,2.95,0,0,1-.76-.55,3.71,3.71,0,0,1-.37-.46,2.59,2.59,0,0,1-.24-.39,8.42,8.42,0,0,1-.55-1.25,21.92,21.92,0,0,1-.63-2.2c-.35-1.42-.61-2.83-.87-4.18s-.52-2.78-.8-4.07a22.24,22.24,0,0,0-1.08-3.67,9.34,9.34,0,0,0-.77-1.42,2.86,2.86,0,0,0-.79-.74l3-1a5.64,5.64,0,0,0-.37,1.87,17.53,17.53,0,0,0,.1,2.47c.19,1.73.53,3.54.91,5.37s.8,3.71,1.13,5.7a19.67,19.67,0,0,1,.31,3.23,7.58,7.58,0,0,1-.26,2.07c-.08.23-.16.45-.25.66a5.15,5.15,0,0,1-.44.74,4.63,4.63,0,0,1-.7.7,4.74,4.74,0,0,1-.91.51l.36-.17a4,4,0,0,1-1.49.52,2.69,2.69,0,0,1-1,0,2.57,2.57,0,0,1-.95-.27,4.46,4.46,0,0,1-2-1.88,12.47,12.47,0,0,1-1.22-3.12c-.5-1.92-.81-3.74-1.11-5.56s-.56-3.59-.87-5.32c-.16-.87-.34-1.71-.54-2.51a10.3,10.3,0,0,0-.71-2.07c-.06-.15-.12-.18-.16-.28h3.83a3.61,3.61,0,0,0-.46,1.57,13.5,13.5,0,0,0,0,2.46,49.28,49.28,0,0,0,.87,5.48c.37,1.89.8,3.8,1.12,5.84a19.8,19.8,0,0,1,.29,3.31,7.71,7.71,0,0,1-.29,2.08,4.75,4.75,0,0,1-.59,1.3,6.22,6.22,0,0,1-.57.68,6.85,6.85,0,0,1-.76.57l-.47.3h-.66a3.13,3.13,0,0,1-1.94-.67,3.9,3.9,0,0,1-.84-.86,7.44,7.44,0,0,1-.79-1.36,20.24,20.24,0,0,1-.88-2.34c-.46-1.5-.81-2.95-1.16-4.4-.67-2.88-1.24-5.76-2-8.46-.18-.67-.37-1.34-.58-1.92-.11-.3-.22-.58-.32-.79a1.31,1.31,0,0,0-.13-.23v0l0,0,.22-.18c.15-.13.25-.2.37-.32l.28-.29c.33-.37.28-.62.3-.48a.42.42,0,0,0,.06.14l.68,1.11h0l.08.08a.58.58,0,0,0,.18.11s0,.05,0,.06a4,4,0,0,0-.1,1.27,19.49,19.49,0,0,0,.69,3.85c.34,1.35.75,2.73,1.17,4.12Z"/><path class="cls-2" d="M170.26,150.66a7.32,7.32,0,0,1,.09-2.24,5.11,5.11,0,0,1,.41-1.14,8.57,8.57,0,0,1,.5-.94,6,6,0,0,1,1.65-1.74,5.47,5.47,0,0,1,2.35-.87,7.91,7.91,0,0,1,4.06.75,17.43,17.43,0,0,1,3.05,1.78,27.86,27.86,0,0,1,3.75,3.16c.49.52,1,1.06,1.43,1.64.23.28.47.61.67.91l.58.89a41.56,41.56,0,0,1,2.06,3.68,52.05,52.05,0,0,1,3,7.73c.72,2.34,1.38,4.7,1.91,7.07a28.68,28.68,0,0,1,1,9.32c-.09,1-1,.82-1.88,0a6.15,6.15,0,0,1-2-3.8,68,68,0,0,0-1.6-8.78,66.8,66.8,0,0,0-2.7-8.59,24.62,24.62,0,0,0-2.57-4.83,15.54,15.54,0,0,0-1.63-2.09c-.61-.66-1.27-1.3-1.93-1.9a17.22,17.22,0,0,0-4.76-3.23,4,4,0,0,0-2.26-.36,2.19,2.19,0,0,0-1.49,1.25,5.47,5.47,0,0,0-.3.68,2.28,2.28,0,0,0-.08.58,9.59,9.59,0,0,0,.17,1.7,31.38,31.38,0,0,0,.91,3.65c1.12,3.71,2.48,7.42,3.92,11.05,1.12,2.82,2.43,5.51,3.56,8.35.24.63.51,1.23.73,1.89.78,2.42.66,3.45-.2,4.1a3,3,0,0,1-.6.4c-.72.2-1.27-.55-1.91-2.13-1-2.37-2.06-4.87-3.12-7.42s-2.13-5.18-3.15-7.85c-.75-2-1.48-4-2.15-6.06a35.75,35.75,0,0,1-1.61-6.63Z"/><path class="cls-2" d="M163.27,238.51a49.43,49.43,0,0,1,.76-15.24,21.72,21.72,0,0,1,.63-2.74c.25-.91.48-1.82.77-2.71a50.5,50.5,0,0,1,4.52-8.68l5.13-8a58.13,58.13,0,0,0,3.9-7.28,36.44,36.44,0,0,0,2.62-9.77c.15-1,1-1,1.88,0a5.94,5.94,0,0,1,1,5.25,40.27,40.27,0,0,1-4.59,10.56c-1.9,3.23-4,6.24-6.09,9.24a38.32,38.32,0,0,0-5.69,11.65A43.52,43.52,0,0,0,166.44,235c.09,1.48.22,3,.34,4.45s.41,3,.69,4.43A73.14,73.14,0,0,0,171.24,257a68,68,0,0,0,4.68,9.3c.37.67.8,1.27,1.19,1.93,1.45,2.43,1.77,3.23,1.35,4.27a4.44,4.44,0,0,1-.28.7c-.21.33-.6.34-1.12,0a6,6,0,0,1-1.83-1.79,63,63,0,0,1-8.85-17.93,74.2,74.2,0,0,1-3.19-15Z"/><path class="cls-2" d="M206.81,234.48l-.63-1.45-.69-1.41c-.45-1-1-1.84-1.5-2.75-.37-.68-.9-1.22-1.3-1.87a30.54,30.54,0,0,0-5.14-6.14,10.61,10.61,0,0,0-1.41-1.09,12.9,12.9,0,0,0-1.5-.93l-2-1a8.94,8.94,0,0,1-2-1.06c-.38-.29,0-1,.63-1.63a2.64,2.64,0,0,1,2.65-.58,21.69,21.69,0,0,1,8,6.43c.31.41.64.81,1,1.19s.64.81,1,1.21a23.32,23.32,0,0,1,1.88,2.47c.67.92,1.18,1.93,1.76,2.89s1,2,1.53,3c.58,1.25,1.14,2.5,1.65,3.76.8,1.91,1.45,3.88,2.19,5.78.56,1.48,1.27,2.88,1.87,4.34.13.32.3.62.41,1,.42,1.22.33,1.67-.41,2.18a5.54,5.54,0,0,1-.51.33c-.6.31-1.27,0-1.72-.87a65,65,0,0,1-3.34-7.84c-.78-2-1.53-4-2.44-5.88Z"/><path class="cls-2" d="M156.58,300.6c1.43-3.29,2.84-6.58,4.19-9.91.48-1.22.87-2.47,1.36-3.68,1.7-4.28,3.41-8.57,4.88-12.93.69-1.93,1.18-3.92,1.67-5.88.54-2.52,1-5.12,1.54-7.46.2-.73,1.09-.66,1.88.11a4.23,4.23,0,0,1,1,1.64,4.53,4.53,0,0,1,.15,2.21,78.62,78.62,0,0,1-5,15.57c-1.28,3-2.25,6.22-3.45,9.31q-1,2.55-2,5.07c-.68,1.69-1.39,3.37-2.11,5.05L158,305.87c-1.4,3.09-2.79,6.2-4.17,9.28-.51,1.2-1,2.4-1.52,3.61s-1,2.41-1.51,3.6c-.24.52-.44,1.06-.69,1.58-1,1.92-1.58,2.4-2.6,2.32a3.84,3.84,0,0,1-.69-.07c-.71-.2-.79-1.25-.22-2.66,1.66-4.23,3.61-8.61,5.58-13l2.17-4.95,2.13-5Z"/><path class="cls-2" d="M241.93,266.33a61.43,61.43,0,0,1-6.73,8.43c-.47.47-.88,1-1.36,1.45s-1,.92-1.48,1.36a26.16,26.16,0,0,1-2.87,2.11c-1,.69-1.94,1.2-2.93,1.79-2,1.13-4,2.21-6.09,3.16a55.33,55.33,0,0,1-5.73,2.32,18.53,18.53,0,0,1-4,.89,8.26,8.26,0,0,1-4.22-.63c-.86-.38-.32-1.14.54-1.8a11,11,0,0,1,1.42-.89,3.92,3.92,0,0,1,1.62-.45,23.9,23.9,0,0,0,6.68-1.65c2.27-.87,4.54-1.94,6.85-3.05a28.16,28.16,0,0,0,4-2.39l1.81-1.35c.55-.52,1.12-1,1.69-1.54a52.89,52.89,0,0,0,6.66-7.74l1.79-2.63c.59-.9,1.14-1.81,1.7-2.72,1.65-2.78,3.27-5.63,4.67-8.54,1.11-2.27,2-4.59,3-6.91.22-.51.46-1,.72-1.53a5.87,5.87,0,0,1,1.39-1.88,1.5,1.5,0,0,1,1.42-.26,2.93,2.93,0,0,1,.63.23,1.06,1.06,0,0,1,.41,1,2.08,2.08,0,0,1-.1.64,4.51,4.51,0,0,1-.31.89c-.82,1.9-1.68,4-2.63,6.12s-2,4.25-3.08,6.37c-1.61,3.15-3.45,6.25-5.4,9.28Z"/><path class="cls-2" d="M249.68,67.4c-8.6.12-17.2.3-25.79.6-4.29.16-8.58.34-12.84.61-2.13.15-4.27.28-6.37.5-1.05.11-2.12.19-3.13.35l-1.53.22c-.48.09-.92.2-1.38.3a8.07,8.07,0,0,0-3.35,1.7A9.45,9.45,0,0,0,193,74.76a14.21,14.21,0,0,0-1.19,3.91c-.06.35-.1.69-.13,1l0,.49a1.5,1.5,0,0,0,0,.36l.14,2.35q1.88,33.18,3.76,66.35c.58,9.81,1.27,19.67,2,29.4.91,12.5,2,25,2.43,37.55.25,7.81-4.26-1.81-5.26-16.22-1.75-25.53-3.27-51.06-4.42-76.84-.34-7.7-.82-15.56-1.34-23.46l-.78-11.87-.39-5.93-.05-.74c0-.27,0-.42,0-.91s.08-1.13.15-1.68a20.71,20.71,0,0,1,.72-3.19,14.36,14.36,0,0,1,3.83-6.29,12.45,12.45,0,0,1,6.7-3.16,130.28,130.28,0,0,1,13.16-1.26c8.7-.52,17.39-.77,26.08-1,5.35-.12,10.69-.22,16-.27h.5a4,4,0,0,1,.7,0,8.5,8.5,0,0,1,1.16.23,10.87,10.87,0,0,1,2.14.82,11.33,11.33,0,0,1,3.54,2.83,13.69,13.69,0,0,1,2.18,3.88c.23.69.43,1.39.6,2.09s.27,1.41.35,2.12c.66,16.19,1.33,32.47,2,48.54.57,12.47,1.37,24.68,2.07,37,.16,2.71.32,5.36.48,8.1.5,10.14.37,13.38-.61,15.61a9.4,9.4,0,0,1-.67,1.47c-.78,1-1.64-3.1-2.2-10.52-1.65-22-2.74-45.26-3.74-68.6q-.53-13-1.05-26.05l-.13-3.26a23.52,23.52,0,0,0-.28-2.85,10.69,10.69,0,0,0-1.94-4.78,7.57,7.57,0,0,0-.8-.89,9.36,9.36,0,0,0-.94-.72,7,7,0,0,0-2.16-.93,3.92,3.92,0,0,0-.52-.1h-.46l-1.63,0-3.25,0Z"/><path class="cls-2" d="M262.46,198.45a32.89,32.89,0,0,0,7.28-5.85c.81-.85,1.54-1.77,2.31-2.65a60,60,0,0,0,3.83-4.88,24.93,24.93,0,0,0,2.94-5.29c.08-.2.12-.39.18-.59a2.48,2.48,0,0,0,.11-.57,1.48,1.48,0,0,0,0-.5v-.22l-.07-.29a4.83,4.83,0,0,0-1.06-2,3.91,3.91,0,0,0-2.35-1.29,3,3,0,0,0-1.2.06,4.49,4.49,0,0,0-.59.19c-.17.12-.39.17-.57.32-.45.3-1.12-.15-1.15-1.21a2,2,0,0,1,.17-.87,2.46,2.46,0,0,1,.61-.92,3.37,3.37,0,0,1,1.12-.74,3.7,3.7,0,0,1,1.5-.24,6.82,6.82,0,0,1,4.63,2.25,8,8,0,0,1,2.06,4.42c0,.27,0,.53,0,.79a6.08,6.08,0,0,1-.08.65,7.24,7.24,0,0,1-.26,1.17,14.05,14.05,0,0,1-.8,2,24.06,24.06,0,0,1-2,3.38,89.13,89.13,0,0,1-5.6,7.43,44.91,44.91,0,0,1-7.56,6.93,19.59,19.59,0,0,1-2.81,1.66,9,9,0,0,1-3.36.93,4.42,4.42,0,0,1-2.84-.93,5.44,5.44,0,0,1-1.5-2.38l-.2-.63c0-.26-.07-.54-.09-.8a5,5,0,0,1,.22-1.39,7.51,7.51,0,0,1,.43-1.21c.15-.4.35-.75.53-1.12a31.78,31.78,0,0,1,4.17-6.12,14.35,14.35,0,0,1,1.14-1.21c1.58-1.39,2.53-1.59,3.27-.95a1.78,1.78,0,0,1,.43.44,1,1,0,0,1-.08.92,2.49,2.49,0,0,1-.33.5c-.14.16-.33.38-.55.6a33.73,33.73,0,0,0-3.79,4.62,23.4,23.4,0,0,0-1.58,2.57,6.49,6.49,0,0,0-.82,2.25c0,.11,0,.06,0,.1a1.4,1.4,0,0,0-.29.09h0l.29-.08h0v0l0,0,.07.21.14.41c.06.1.12.19.17.29.25.37.36.53.63.58a5.22,5.22,0,0,0,3.23-.92Z"/><g class="cls-1"><path class="cls-2" d="M257.91,192.8a20.49,20.49,0,0,0-1.6,2.69c-.14.34-.26.7-.37,1a6.51,6.51,0,0,0-.31.87l-.11.43-.05.39a.77.77,0,0,0,0,.34.69.69,0,0,0,.06.35,4,4,0,0,0,.37.82,2.5,2.5,0,0,0,1.09,1,1.51,1.51,0,0,0,.72.12l.68-.09c.17,0,.58.46.7,1.1a1.42,1.42,0,0,1-.16,1,1.24,1.24,0,0,1-1,.6,3.77,3.77,0,0,1-2-.43,4.66,4.66,0,0,1-1.38-1.1,5.41,5.41,0,0,1-.86-1.35,4.71,4.71,0,0,1-.44-1.63,5.79,5.79,0,0,1,0-1,6.23,6.23,0,0,1,.13-.91,4.3,4.3,0,0,1,.19-.84,6.24,6.24,0,0,1,.25-.8,21,21,0,0,1,1.62-3.13c.38-.61.78-1.19,1.19-1.77.62-.88,1.3-1.7,2-2.54.51-.66.95-1.37,1.55-2a2.83,2.83,0,0,1,.42-.43,1.13,1.13,0,0,1,.78-.35.8.8,0,0,1,.6.41,2.12,2.12,0,0,1,.24.37,1.23,1.23,0,0,1,0,1.19c-.67,1-1.54,2-2.38,3.15-.64.83-1.27,1.69-1.83,2.58Z"/></g><path class="cls-2" d="M261,213.17a26.68,26.68,0,0,0,7.6-2.64c.9-.46,1.74-1,2.61-1.54a31.12,31.12,0,0,0,4.34-3,11.89,11.89,0,0,0,1.77-1.78,4.48,4.48,0,0,0,.33-.47,3.49,3.49,0,0,0,.25-.45,4.84,4.84,0,0,0,.31-1.11,6.58,6.58,0,0,0,.06-2.17,6.93,6.93,0,0,0-.55-2.09,4.85,4.85,0,0,0-1.5-2,4.17,4.17,0,0,0-2.09-.78c-.49-.07-.67-.83-.12-1.64a2.35,2.35,0,0,1,.56-.58,3.39,3.39,0,0,1,.9-.39,3.12,3.12,0,0,1,1.15,0,3.47,3.47,0,0,1,1.21.46,7.39,7.39,0,0,1,2.74,3.38,10.76,10.76,0,0,1,.84,3.81,10.28,10.28,0,0,1-.57,3.88,8.55,8.55,0,0,1-2.39,3.2,43.53,43.53,0,0,1-6.66,5,36.7,36.7,0,0,1-8.28,3.56,17.26,17.26,0,0,1-2.83.52,7.34,7.34,0,0,1-3.11-.29,3.66,3.66,0,0,1-.61-.27c-.2-.13-.4-.26-.59-.4a3.63,3.63,0,0,1-.84-1.15,4.67,4.67,0,0,1-.33-2.48l.07-.57c0-.2.1-.41.16-.61a6.85,6.85,0,0,1,.46-1.1,12.6,12.6,0,0,1,1.23-1.82,19.33,19.33,0,0,1,2.27-2.43,11.17,11.17,0,0,1,2.81-1.95,4.46,4.46,0,0,1,.74-.32,3.46,3.46,0,0,1,.81-.24c.28,0,.53-.08.76-.1a4.79,4.79,0,0,1,.69.06,1.94,1.94,0,0,1,1,.37,1.12,1.12,0,0,1,.54,1.2,1.84,1.84,0,0,1-.15.58,1.21,1.21,0,0,1-.75.5c-.15,0-.27,0-.44.1s-.28,0-.48.1a8.56,8.56,0,0,0-3.7,2.19,13.29,13.29,0,0,0-1.71,1.81,7.28,7.28,0,0,0-1.14,1.84.79.79,0,0,1-.06.22c0,.07,0,.23,0,.34a2.44,2.44,0,0,0,0,.65c.05.35.08.39.14.46s0,0,.1.07a.71.71,0,0,1,.18.08,3.45,3.45,0,0,0,.64.1,7.2,7.2,0,0,0,1.69-.1Z"/><g class="cls-1"><path class="cls-2" d="M258.08,208.34a11.25,11.25,0,0,0-1.62,2.78,5,5,0,0,0-.18,1c0,.12,0,.23,0,.32s0,.27.05.4a3.51,3.51,0,0,0,.27.79,2.46,2.46,0,0,0,1.2,1.16,2.66,2.66,0,0,0,1.61.12c.73-.15,1.36-.58,2.19-.72.26,0,.58.55.68,1.23s-.07,1.5-.67,1.74a6.37,6.37,0,0,1-3.5.44,4.77,4.77,0,0,1-3.18-2,7.62,7.62,0,0,1-1-2,5.56,5.56,0,0,1-.23-1.11,4.42,4.42,0,0,1,.07-1.11,11.18,11.18,0,0,1,1.65-3.74,20.89,20.89,0,0,1,1.44-1.92,19.53,19.53,0,0,1,2.61-2.53,8.52,8.52,0,0,1,2.56-1.63,3.59,3.59,0,0,1,.75-.2c1-.07,1.35.32,1.27,1a3.85,3.85,0,0,1-.07.49,1.63,1.63,0,0,1-.81,1,11.28,11.28,0,0,0-2.89,2.09,15.37,15.37,0,0,0-2.13,2.46Z"/></g><path class="cls-2" d="M190.9,349.75c2.17-5.39,4.39-10.75,6.62-16.11.81-1.95,1.53-3.94,2.36-5.88,2.93-6.86,6-13.68,9-20.49,1.34-3,2.62-6.1,3.89-9.13.81-1.95,1.6-3.91,2.47-5.85a35.57,35.57,0,0,1,3-5.7c.41-.58.89-.76,1.12-.51a3,3,0,0,1,.52,1.44,10.33,10.33,0,0,1-.9,5.67c-3.51,7.76-7,15.64-10.72,23.45-2.23,4.68-4.12,9.73-6.15,14.63q-3.34,8.07-6.63,16.18c-1.33,3.33-2.66,6.66-3.95,10-1.94,5.07-3.89,10.16-5.59,15.27-1.31,4-2.37,7.95-3.34,11.94-.21.87-.38,1.74-.58,2.62-.74,3.27-1,4.07-1.87,4.72a4.81,4.81,0,0,0-.54.57.37.37,0,0,1-.51.07,1,1,0,0,1-.3-.32,2,2,0,0,1-.24-.49,7.22,7.22,0,0,1-.19-3.16A73.78,73.78,0,0,1,181,377.36c1.1-3.74,2.36-7.47,3.67-11.18,2-5.52,4.08-11,6.2-16.46Z"/><path class="cls-2" d="M171.34,342.49c-2.79-1.37-5.49-2.89-8.15-4.48-1-.55-2-1.09-2.91-1.7a105.13,105.13,0,0,1-9.59-7.06l-4.12-3.3c-1.7-1.51-3.62-2.85-4.7-5.14-.35-.69.51-1,1.57-1a5.36,5.36,0,0,1,1.6.19,3.26,3.26,0,0,1,1.46.81c2.9,3,6.36,5.8,9.76,8.71a53.69,53.69,0,0,0,6.83,4.55c2.57,1.58,5.2,3.08,7.89,4.47,1.66.83,3.34,1.65,5,2.38,1.31.51,2.6,1.1,3.93,1.56s2.66.93,4,1.24c1.06.24,2.11.42,3.16.59l3.16.25a12.72,12.72,0,0,0,1.38,0c1.7,0,2.23.3,2.6,1.25a5.78,5.78,0,0,1,.25.65c.18.72-.57,1.27-2,1.4a16.36,16.36,0,0,1-3.13.08c-1-.08-2.1-.15-3.15-.31a45.89,45.89,0,0,1-6.19-1.54,46.39,46.39,0,0,1-4.45-1.63c-1.48-.56-2.89-1.25-4.32-1.89Z"/><path class="cls-2" d="M167.85,358.18a59.26,59.26,0,0,0,2.79-7.34l.26-.95a2,2,0,0,0,0-.24,1.14,1.14,0,0,0,0-.26c0-.09-.05-.21-.15-.19a.74.74,0,0,0-.37.33l-.15.27-.82,1.68-3.57,7.34c-1.23,2.45-2.48,4.9-3.91,7.31a30.55,30.55,0,0,1-2.43,3.62,7.77,7.77,0,0,1-2,1.85,2.85,2.85,0,0,1-.49.23,2.93,2.93,0,0,1-.59.18,3.75,3.75,0,0,1-.82,0,1.25,1.25,0,0,1-.26,0l-.18-.05-.72-.19a7.11,7.11,0,0,1-.81-.37,3.92,3.92,0,0,1-2-2.85,6.23,6.23,0,0,1,.34-2.93,21.54,21.54,0,0,1,1.94-4c1.45-2.44,3-4.66,4.55-6.9,1.11-1.63,2.19-3.26,3.16-4.91a24.4,24.4,0,0,0,2.37-5,5.82,5.82,0,0,0,.35-2.25,4.29,4.29,0,0,0-.16-1l0-.06h0l.11-.06c.24-.16.37-.19.51-.28a4.12,4.12,0,0,0,.32-.28c.06,0,.13-.19.13-.18h0s0,0,0,0,0,.08.06.24a1.11,1.11,0,0,0,.2.39,2.62,2.62,0,0,0,.35.52l0,0-.11.12a3.43,3.43,0,0,0-.32.43,11.42,11.42,0,0,0-.68,1.12c-.44.8-.85,1.66-1.25,2.54-.71,1.51-1.29,3-2.08,4.68a36.93,36.93,0,0,1-2.64,4.63c-1.95,2.94-4.11,5.56-6,8.27l-1.21,1.71-1.33-1.49a5.53,5.53,0,0,1-1.35-2.27,6.34,6.34,0,0,1-.25-1.27,8,8,0,0,1,0-1.2,12.82,12.82,0,0,1,1.22-4.08,61.43,61.43,0,0,1,3.81-6.65,61.39,61.39,0,0,0,3.63-6.3c.12-.27.25-.53.35-.8l.17-.4.09-.23a6.27,6.27,0,0,0,.22-.71,2.78,2.78,0,0,0,0-1.43,2,2,0,0,0-1.36.7,3.52,3.52,0,0,0-.5.68s-.12.21-.18.34l-.22.43c-.13.29-.28.58-.4.89-.51,1.21-.92,2.52-1.4,3.87s-.82,2.54-1.18,3.91-.7,2.71-1.13,4.1a16.3,16.3,0,0,1-1.86,4.17,7.07,7.07,0,0,1-.79,1c-.15.16-.3.32-.46.46l-.6.44a5.68,5.68,0,0,1-1.44.66l-.77.16-.39.08c-.06,0-.13.05-.19,0l-.16-.11a9,9,0,0,1-1.22-1c-.18-.19-.38-.37-.55-.57l-.41-.64a6,6,0,0,1-.75-2.51,12.09,12.09,0,0,1,.89-5.07,38.92,38.92,0,0,1,2-4.39c1.48-2.8,3.13-5.44,4.61-8.12a30.47,30.47,0,0,0,1.92-4,7,7,0,0,0,.44-1.82,2.56,2.56,0,0,0-.25-1.08c-.13-.33-.49-.64-.86-.46a2.18,2.18,0,0,0-.81.7c-.09.11-.34.45-.54.74s-.4.6-.59.91c-.38.63-.74,1.27-1.09,1.93-.45.85-.86,1.72-1.26,2.6-.2.46-.37.85-.53,1.28s-.3.89-.44,1.35L144,345.83a30.42,30.42,0,0,1-2.28,5.8,8.35,8.35,0,0,1-1.1,1.51,3.92,3.92,0,0,1-1.95,1.18c-1.53.39-3.12-.72-3.91-1.83a4.9,4.9,0,0,1-.53-.92,7.59,7.59,0,0,1-.3-1,6.61,6.61,0,0,1,0-1.93,12.38,12.38,0,0,1,1-3.22,45,45,0,0,1,3-5.35c1-1.68,2.12-3.32,3.06-5a18.67,18.67,0,0,0,2.16-5c.41-2.07.06-2.85.46-3,.16,0,.47.16.79.68a5.2,5.2,0,0,1,.62,2.53c.08,2.3-1,5.39-2.58,8.65-.8,1.64-1.75,3.36-2.67,5.12-.45.88-.91,1.78-1.28,2.66a9.57,9.57,0,0,0-.76,2.48,1.32,1.32,0,0,0,.21,1.12l.06.09h0l0-.05a5.56,5.56,0,0,0,.53-.83,19.67,19.67,0,0,0,1.08-2.43c.65-1.78,1.2-3.68,1.77-5.61.29-1,.57-2,.91-3a23.16,23.16,0,0,1,1.24-3.07,38.77,38.77,0,0,1,3.17-5.63l.26-.35.13-.18.22-.27a13.86,13.86,0,0,1,1-1.08,5.38,5.38,0,0,1,2.3-1.35,3.39,3.39,0,0,1,2.45.29,4,4,0,0,1,1.73,1.87,6,6,0,0,1,.52,1.32,9.56,9.56,0,0,1,.31,1.43,8.49,8.49,0,0,1,0,1.36,9.5,9.5,0,0,1-.2,1,17.45,17.45,0,0,1-1.24,3.26c-1,2-2,3.72-3,5.47s-2.06,3.45-3,5.17a27.61,27.61,0,0,0-2.21,5.11,8,8,0,0,0-.32,2.29,3.15,3.15,0,0,0,.15.87c.06.11.07.26.15.35l.05.07v0s0,0,0,0l.11.1a.4.4,0,0,0,.15,0l0,0,.08-.05c.11,0,.2-.21.32-.3a2.67,2.67,0,0,0,.32-.39,4.79,4.79,0,0,0,.31-.47,22.34,22.34,0,0,0,1.88-5.16l.81-3c.13-.5.29-1,.45-1.53l.52-1.49a36.63,36.63,0,0,1,2.46-6c.25-.37.48-.76.73-1.12l.82-1,.89-.81.93-.64a13.64,13.64,0,0,1,3.91-1.3,1.29,1.29,0,0,1,.37-.06c.24.89.45,1.69.61,2.46l.11.59c0,.21,0,.43,0,.65s0,.43,0,.65l-.06.71a8.87,8.87,0,0,1-.24,1.46,8.76,8.76,0,0,1-.42,1.46l-.24.71-.19.46c-.13.31-.26.62-.4.91a64.49,64.49,0,0,1-3.8,6.64,61.66,61.66,0,0,0-3.62,6.31,10.11,10.11,0,0,0-1,3.06,2.51,2.51,0,0,0,.65,2.17l-2.48.21c2.89-4.1,6.06-7.78,8.09-12,.26-.53.51-1.06.74-1.59l.71-1.7c.49-1.14,1-2.29,1.56-3.44.29-.57.59-1.14.92-1.72a10.56,10.56,0,0,1,1.3-1.81A4.71,4.71,0,0,1,164,339a2.47,2.47,0,0,1,1.39-.4,2.17,2.17,0,0,1,1.53.81,3.72,3.72,0,0,1,.31.46l.17.39a7,7,0,0,1,.4,2.31,11.38,11.38,0,0,1-1,4.63,32.21,32.21,0,0,1-1.94,3.85c-1.43,2.44-3,4.71-4.54,7a74,74,0,0,0-4.28,6.78,12.14,12.14,0,0,0-.74,1.68,4.14,4.14,0,0,0-.3,1.36.82.82,0,0,0,.36.66,1.42,1.42,0,0,0,.47.17l.16,0,.08,0c.11-.64-.15.87-.12.71v-.13a.51.51,0,0,0,0-.13.51.51,0,0,1,0-.18c0-.09-.06-.22-.08-.28h0a2.29,2.29,0,0,0,.43-.33,7.32,7.32,0,0,0,.57-.63,15.5,15.5,0,0,0,1.12-1.53c.73-1.08,1.4-2.24,2.05-3.41,1.31-2.36,2.52-4.79,3.72-7.24l3.63-7.48a19.09,19.09,0,0,1,1.52-2.68c.28-.36.55-.7.84-1a10.17,10.17,0,0,1,1-.8,3.6,3.6,0,0,1,2-.77,1.5,1.5,0,0,1,1.07.44,2.74,2.74,0,0,1,.59.87,6.48,6.48,0,0,1,.43,2.92l-.06.88-.14.93-.2.94c-.06.29-.13.67-.19.87-.26,1-.5,1.78-.77,2.61s-.57,1.63-.87,2.43c-1.23,3.21-2.69,6.28-4.14,9.33l-.54,1.14-.59,1.16c-.38.72-.78,1.52-1.05,2.14a5.8,5.8,0,0,0-.42,1.21,2.17,2.17,0,0,0,0,1.26,1.41,1.41,0,0,0,.35.52.55.55,0,0,0,.6.06,2.7,2.7,0,0,0,.9-.88,10.89,10.89,0,0,0,.68-1.13c.32-.6.77-1.45,1.06-2.13,1-2.23,1.78-4.7,2.68-7.08.44-1.21.9-2.41,1.37-3.6l.72-1.8.38-.89.2-.47.29-.62a33.54,33.54,0,0,1,2.45-4.62l.64-.95.64-.78a7.69,7.69,0,0,1,1.26-1.24l.67-.43a1.5,1.5,0,0,1,.8-.28,2.08,2.08,0,0,1,1.78.84,1.37,1.37,0,0,1,.25.77c0,.24,0,.48,0,.74a13.06,13.06,0,0,1-.1,1.68l-.18,1-.31,1.17c-.23.79-.49,1.63-.79,2.48s-.6,1.7-.92,2.51l-.75,1.94-2.88,7.08c-.95,2.36-1.89,4.71-2.74,7.07-.43,1.18-.82,2.36-1.17,3.55-.17.58-.33,1.23-.45,1.74a9.37,9.37,0,0,0-.19,1.12,2,2,0,0,0,.23,1.42.92.92,0,0,0,1.31.05,3.64,3.64,0,0,0,.88-1.15l.17-.32.21-.44c.17-.38.33-.76.48-1.16a92.21,92.21,0,0,0,3-9.81c.89-3.34,1.72-6.69,2.73-10a49,49,0,0,1,1.74-5,19.63,19.63,0,0,1,1.26-2.51,5.71,5.71,0,0,1,2.47-2.36l1.18-.54.59,1.19a9.57,9.57,0,0,1,.58,6,54.73,54.73,0,0,1-3.17,10c-.51,1.39-1,2.91-1.48,4.15s-.94,2.41-1.36,3.44c-.84,2-1.51,3.67-2.06,5a48.52,48.52,0,0,1-2.45,5.46c-.34.56-.65,1.34-.91,1.68s-.38.17-.47-.32a9.24,9.24,0,0,1,0-2.56A44.61,44.61,0,0,1,181,371c.66-1.8,1.32-3.58,1.91-5.36.27-.85.61-1.9,1-2.8s.67-1.81,1-2.73a41.27,41.27,0,0,0,1.6-5.36c.37-1.73.41-3.57-.1-4.47l2.54.84c.06.15,0,.11,0,.12l0,0s-.08.08-.13.11a3,3,0,0,0-.37.44,8.44,8.44,0,0,0-.78,1.35,28.18,28.18,0,0,0-1.34,3.33c-.8,2.34-1.49,4.82-2.16,7.31s-1.36,5.05-2,7.59a74.91,74.91,0,0,1-2.51,7.75c-.14.33-.27.66-.43,1l-.23.5c-.11.23-.27.58-.43.84a9.22,9.22,0,0,1-2.19,2.83,4.29,4.29,0,0,1-2.65,1,4.06,4.06,0,0,1-1.45-.25,11.51,11.51,0,0,1-1.25-.76,4.41,4.41,0,0,1-1.22-2.57l-.08-.84a7.24,7.24,0,0,1,0-.92l.07-.94.17-.88.16-.85.13-.52c.09-.35.18-.7.28-1,.18-.68.4-1.34.61-2,1.74-5.22,3.88-10.11,5.84-15L178,356h0s0,0,0,0a.07.07,0,0,0,0,0l-.72,1.72-.75,1.87-1.43,3.8-1.42,3.88c-.24.65-.49,1.31-.77,2-.14.34-.32.72-.48,1.07l-.47.95-.56,1.07c-.28.52-.64,1.16-1,1.69a9.47,9.47,0,0,1-2.29,2.63,3.86,3.86,0,0,1-2.36.83,3.21,3.21,0,0,1-1.35-.32,3.58,3.58,0,0,1-1.11-.84,6.08,6.08,0,0,1-1.1-5.76,15.09,15.09,0,0,1,.63-1.86l.17-.44.13-.3.26-.57c.32-.66.65-1.3,1-1.9l.42-.85.45-.93.87-1.85c.58-1.23,1.15-2.46,1.69-3.69Z"/><path class="cls-2" d="M237.53,238.39c-2,0-4,0-6.06,0-.73,0-1.46.14-2.2.14-2.59,0-5.2-.07-7.79,0a28.33,28.33,0,0,0-3.44.29,12.7,12.7,0,0,1-4.39.27c-.93-.2-.06-4.14,1.62-4.3a44,44,0,0,1,9,0,42.74,42.74,0,0,0,5.53-.17c2-.06,4.06-.08,6.1-.12,1.25,0,2.5,0,3.75-.09,1.89-.08,3.79-.09,5.66-.29,1.45-.15,2.86-.53,4.29-.82.31-.06.61-.16.93-.2,1.18-.15,1.58.09,1.91,1.13a6.59,6.59,0,0,1,.22.72,1.56,1.56,0,0,1-1.1,1.84,30.56,30.56,0,0,1-8,1.42c-2,.15-4.06.2-6.1.3Z"/><path class="cls-2" d="M220.15,175,222,196c.12,1.33,3.61.54,3.48-.93l-1.84-21c-.12-1.33-3.61-.55-3.48.93Z"/><polygon class="cls-2" points="228.95 193.81 224 203.63 217.68 194.44 228.95 193.81"/><path class="cls-2" d="M227.22,194.06l-4.95,9.83,3.35-.9-6.32-9.19L217,195.32l11.27-.63c.6,0,2-.22,2.31-.9s-.21-.89-.9-.85l-11.27.63c-.58,0-3,.54-2.33,1.52l6.32,9.19c.61.9,3-.18,3.35-.9l5-9.82C231.1,192.74,227.74,193.05,227.22,194.06Z"/><path class="cls-2" d="M243.21,202.19l-1.84-21c-.15-1.66-3.63-.81-3.48.94l1.85,21c.14,1.67,3.63.81,3.47-.93Z"/><polygon class="cls-2" points="245.68 182.79 239.36 173.6 234.41 183.42 245.68 182.79"/><path class="cls-2" d="M247.42,182.32l-6.32-9.19c-.56-.81-3.08,0-3.46.76l-4.95,9.82c-.24.48.8.46,1,.45l11.27-.63c1-.06,3.77-1.61,1.48-1.48l-11.27.63,1,.44,5-9.82-3.46.76,6.32,9.19C244.55,184.14,247.74,182.79,247.42,182.32Z"/><path class="cls-2" d="M215,116.48a20.34,20.34,0,0,0-2.86,17.59,20.88,20.88,0,0,0,3,6,19.34,19.34,0,0,0,9.42,7.09,17.22,17.22,0,0,0,5.92,1,17.55,17.55,0,0,0,5.95-1,17.07,17.07,0,0,0,4.75-2.56l.55-.4.5-.46c.34-.3.69-.59,1-.91a20.07,20.07,0,0,0,1.74-2.07,21.2,21.2,0,0,0,3.08-6.14,28.35,28.35,0,0,0,1.19-6.8c.1-1.43,1-1.36,1.89,0a7.55,7.55,0,0,1,.65,1.22,11.69,11.69,0,0,1,.41,1.65,8,8,0,0,1,.11,2c0,.36-.05.72-.09,1.1s-.16.74-.27,1.11a23,23,0,0,1-9.56,13.25,21.33,21.33,0,0,1-16,3,23.33,23.33,0,0,1-15.61-11.48A24,24,0,0,1,208,129.16a24.29,24.29,0,0,1,2-10.55,23.64,23.64,0,0,1,3.5-5.62,24.06,24.06,0,0,1,5-4.37,21.29,21.29,0,0,1,19.19-1.79,23,23,0,0,1,11.49,9.75c.28.49.6,1,.83,1.47s.48,1,.71,1.56a21.69,21.69,0,0,1,.78,2.57,12,12,0,0,1,.21,1.82,2.92,2.92,0,0,1-.67,2,3.47,3.47,0,0,1-.57.62c-.33.21-.69-.08-1-.74a8.37,8.37,0,0,1-.49-1.25,16.38,16.38,0,0,1-.58-1.72,25.18,25.18,0,0,0-2.64-5.39,21.91,21.91,0,0,0-4-4.46,17.92,17.92,0,0,0-19.7-2.49,19,19,0,0,0-6.79,5.91Z"/><path class="cls-3" d="M221.63,136.8a7.26,7.26,0,0,0,2.76,3.42,10.88,10.88,0,0,0,3.8,1.59,12.2,12.2,0,0,0,4.05.22,8.54,8.54,0,0,0,2.09-.49,5.25,5.25,0,0,0,1.06-.53,7,7,0,0,0,.9-.7,6.78,6.78,0,0,0,2.09-3.94,8.48,8.48,0,0,0-.44-4.25,9.07,9.07,0,0,0-2.34-3.53,8.22,8.22,0,0,0-3.82-2c-1.33-.28-2.59-.33-3.65-.49a4,4,0,0,1-2.41-1.07,6.05,6.05,0,0,1-1.27-2.5,3.85,3.85,0,0,1,.28-2.58,5.77,5.77,0,0,1,4.74-2.81,6.09,6.09,0,0,1,5.24,2.09c.35.36,2.63-1.13,2.15-1.8a8.47,8.47,0,0,0-3.45-2.51,9.43,9.43,0,0,0-4.16-.6,9.71,9.71,0,0,0-4,1.23,7.65,7.65,0,0,0-3,3.14,6.75,6.75,0,0,0-.51,4.45,9.25,9.25,0,0,0,.74,2,7.63,7.63,0,0,0,1.25,1.83,6.85,6.85,0,0,0,4,1.91c1.32.19,2.47.24,3.49.46a5.27,5.27,0,0,1,2.5,1.29,6.2,6.2,0,0,1,1.61,2.43,4.69,4.69,0,0,1-.91,5.14c-1.13,1.13-3.59,1.26-5.59.82s-3.92-1.58-4.52-3.24C224.15,135.5,221.37,136.13,221.63,136.8Z"/><path class="cls-3" d="M230.78,143.89l-3.55-30.69c0-.35-2.87,0-2.81.33L228,144.21C228,144.49,230.81,144.17,230.78,143.89Z"/><path class="cls-3" d="M234.64,143.73l-1.88-30.79c0-.35-2.85-.18-2.81.17l1.87,30.79C231.83,144.18,234.66,144,234.64,143.73Z"/><circle class="cls-2" cx="201.28" cy="77.25" r="3.37"/><path class="cls-2" d="M318.39,112.68c-.07-.11.06-.19.3-.27a.67.67,0,0,1,.35,0,.94.94,0,0,1,.17.18,8.27,8.27,0,0,1,.18.81,2.21,2.21,0,0,1,.06.57c0,.38,0,.77,0,1.16a1.07,1.07,0,0,1,0,.25,3,3,0,0,0-.06.89.22.22,0,0,0,0,.14,3.55,3.55,0,0,1,0,1c-.07.26-.11.52-.17.78,0,0,0,.07,0,.1a.3.3,0,0,0-.09.24,1.28,1.28,0,0,1-.06.33c0,.06-.07.11-.11.16s-.19,0-.21,0-.11,0-.17,0h-.07a3.29,3.29,0,0,1-.29-.71s-.09-1-.11-1a.55.55,0,0,1,0-.17s-.08-.76-.08-.79a.92.92,0,0,1,.06-.46.28.28,0,0,0,0-.09,5.17,5.17,0,0,1,0-.79c0-.14,0-.27,0-.41a.19.19,0,0,1,0-.07.29.29,0,0,0,0-.09c0-.32,0-.64,0-1,0-.07.09-.42.08-.51S318.42,112.72,318.39,112.68Z"/><path class="cls-2" d="M315.91,116.08c-.1.07-.17,0-.24-.3a.76.76,0,0,1,0-.34,1.43,1.43,0,0,1,.15-.18s.53-.13.7-.18a2.12,2.12,0,0,1,.5,0h1a.91.91,0,0,1,.23,0,2.18,2.18,0,0,0,.76.06c.05,0,.09,0,.13,0a2.68,2.68,0,0,1,.85,0c.22.07.45.11.67.17,0,0,.06,0,.09,0a.2.2,0,0,0,.21.09,1.4,1.4,0,0,1,.28.06.39.39,0,0,1,.14.12c.05,0,0,.19,0,.2s0,.12,0,.18a.17.17,0,0,1,0,.07,3.23,3.23,0,0,1-.62.29l-.91.1a.36.36,0,0,1-.14,0s-.66.08-.69.08a.72.72,0,0,1-.4-.06s-.05,0-.08,0a3.14,3.14,0,0,1-.68,0c-.12,0-.23,0-.35,0l-.06,0-.08,0a7.63,7.63,0,0,0-.83,0c-.07,0-.37-.1-.44-.08S315.94,116.06,315.91,116.08Z"/><path class="cls-2" d="M316.72,113.5c-.12,0-.07-.18.08-.39a.71.71,0,0,1,.27-.21,1.57,1.57,0,0,1,.24,0s.46.36.61.48a1.9,1.9,0,0,1,.37.38c.23.29.46.56.68.85a.63.63,0,0,1,.13.2,2.52,2.52,0,0,0,.46.69.33.33,0,0,0,.11.09,3.13,3.13,0,0,1,.59.7c.09.23.21.44.31.67,0,0,.05.05,0,.1a.24.24,0,0,0,.06.23,1.51,1.51,0,0,1,.15.28.6.6,0,0,1,0,.19c0,.06-.14.13-.16.13s-.1.07-.14.11l0,0a3.07,3.07,0,0,1-.64-.34s-.61-.64-.69-.7a.37.37,0,0,1-.07-.14s-.51-.51-.53-.53-.2-.21-.22-.38a.1.1,0,0,0,0-.07,5,5,0,0,1-.43-.6c-.07-.11-.16-.2-.23-.3s0,0,0-.06a.2.2,0,0,0,0-.08c-.2-.23-.34-.49-.56-.7-.05,0-.17-.37-.23-.42S316.76,113.51,316.72,113.5Z"/><path class="cls-2" d="M317.43,117.92c0,.11-.16.09-.38,0a.75.75,0,0,1-.26-.23c0-.09,0-.17,0-.23s.25-.49.33-.65a1.64,1.64,0,0,1,.29-.4l.66-.76.17-.14a2.18,2.18,0,0,0,.56-.53.2.2,0,0,0,.06-.12,2.75,2.75,0,0,1,.54-.65c.2-.12.38-.25.57-.38,0,0,0,0,.09,0a.2.2,0,0,0,.21-.09l.23-.17a.52.52,0,0,1,.18,0c.06,0,.16.11.16.13s.08.09.13.13l.05,0a2.8,2.8,0,0,1-.19.65s-.48.66-.53.75a.21.21,0,0,1-.12.08l-.39.57c-.1.09-.16.22-.31.26a.1.1,0,0,0-.06.05,4.53,4.53,0,0,1-.49.49c-.08.08-.15.17-.23.26l-.05,0-.07,0a6.42,6.42,0,0,0-.55.62c0,.06-.31.21-.35.28S317.43,117.87,317.43,117.92Z"/><path class="cls-2" d="M344.88,171.54c-.07-.11.05-.2.3-.27a.63.63,0,0,1,.34,0,1,1,0,0,1,.18.17s.13.62.18.81a2.75,2.75,0,0,1,.05.57c0,.39,0,.78,0,1.16a1.09,1.09,0,0,1,0,.26,3.29,3.29,0,0,0-.06.88c0,.05,0,.1,0,.15a4,4,0,0,1,0,1,7.64,7.64,0,0,0-.17.77s0,.08,0,.11-.08.16-.09.24a1.91,1.91,0,0,1-.06.33.56.56,0,0,1-.12.16s-.19,0-.2,0-.12,0-.18,0H345a3.62,3.62,0,0,1-.29-.71s-.08-.94-.1-1a.5.5,0,0,1,0-.17s-.08-.76-.08-.79a.9.9,0,0,1,.06-.46s0-.06,0-.1a5.29,5.29,0,0,1,0-.79c0-.13,0-.26,0-.4s0,0,0-.07a.29.29,0,0,0,0-.09,7.69,7.69,0,0,0,0-1c0-.07.1-.42.08-.51S344.9,171.58,344.88,171.54Z"/><path class="cls-2" d="M342.39,174.94c-.09.07-.17-.06-.23-.3a.82.82,0,0,1,0-.35,1.29,1.29,0,0,1,.16-.17s.53-.13.7-.18a1.63,1.63,0,0,1,.49-.05l1,0a.83.83,0,0,1,.22,0,2,2,0,0,0,.77.06s.08,0,.12,0a2.68,2.68,0,0,1,.85,0c.23.07.45.12.67.17,0,0,.07,0,.1,0s.13.08.2.09a1.5,1.5,0,0,1,.29.06.5.5,0,0,1,.14.12.23.23,0,0,1,0,.2s0,.12,0,.18v.06a2.48,2.48,0,0,1-.61.3s-.82.08-.91.1a.22.22,0,0,1-.14,0l-.69.09c-.14,0-.27,0-.4-.06a.12.12,0,0,0-.08,0,5.32,5.32,0,0,1-.69,0c-.11,0-.23,0-.35,0l-.06,0-.08,0a5.75,5.75,0,0,0-.83,0c-.06,0-.37-.1-.44-.08S342.43,174.91,342.39,174.94Z"/><path class="cls-2" d="M343.2,172.35c-.11,0-.07-.17.08-.38a.82.82,0,0,1,.28-.21l.24,0s.46.37.61.48a2.72,2.72,0,0,1,.37.39l.68.84a.88.88,0,0,1,.12.21,2.48,2.48,0,0,0,.47.69s.05.07.11.08a3.37,3.37,0,0,1,.59.7,6.85,6.85,0,0,0,.31.67s.05.06,0,.11,0,.16.07.23a1.83,1.83,0,0,1,.14.28.4.4,0,0,1,0,.19c0,.06-.13.13-.15.13s-.1.06-.15.1a.12.12,0,0,1-.05.05,3.63,3.63,0,0,1-.64-.34l-.68-.71a.29.29,0,0,1-.08-.13s-.51-.51-.52-.54-.2-.2-.22-.37,0-.05-.05-.07a5.9,5.9,0,0,1-.42-.6,3.5,3.5,0,0,0-.24-.3l0-.06a.2.2,0,0,0,0-.08,7.46,7.46,0,0,0-.56-.7c-.05-.05-.17-.37-.23-.42S343.25,172.37,343.2,172.35Z"/><path class="cls-2" d="M343.91,176.78c0,.11-.15.08-.38,0-.07,0-.25-.2-.25-.24a1,1,0,0,1,0-.23s.25-.48.33-.64a2,2,0,0,1,.29-.4c.23-.25.44-.51.66-.76a.62.62,0,0,1,.18-.14,2.31,2.31,0,0,0,.55-.53.2.2,0,0,0,.06-.12,2.57,2.57,0,0,1,.55-.65c.2-.12.38-.26.57-.38,0,0,0-.06.09,0s.15-.05.2-.09a1.08,1.08,0,0,1,.24-.18.47.47,0,0,1,.18,0c.06,0,.15.11.15.13s.08.09.13.12,0,0,.05.05a2.6,2.6,0,0,1-.19.65s-.48.66-.53.74-.07.06-.11.09-.38.55-.4.57-.16.22-.31.26,0,0-.06,0a4.35,4.35,0,0,1-.48.48,1.94,1.94,0,0,0-.23.27l-.06,0-.07.05a6.48,6.48,0,0,0-.54.62s-.32.21-.36.27S343.91,176.73,343.91,176.78Z"/><path class="cls-2" d="M261.26,338c-.07-.11.05-.2.3-.27a.64.64,0,0,1,.34,0,1,1,0,0,1,.18.17s.13.62.18.81a2.75,2.75,0,0,1,.05.57c0,.39,0,.78,0,1.16a.74.74,0,0,1,0,.26,2.9,2.9,0,0,0-.06.88c0,.05,0,.1,0,.15a3.56,3.56,0,0,1,0,1c-.07.26-.11.52-.17.77,0,0,0,.08,0,.11s-.08.16-.09.24a1.91,1.91,0,0,1-.06.33.56.56,0,0,1-.12.16c0,.05-.19,0-.2,0s-.12,0-.18,0h-.07a3.62,3.62,0,0,1-.29-.71s-.08-.94-.1-1a.5.5,0,0,1,0-.17s-.08-.76-.08-.79a.9.9,0,0,1,.06-.46s0-.06,0-.1a4.23,4.23,0,0,1,0-.79c0-.13,0-.26,0-.4s0-.05,0-.07a.29.29,0,0,0,0-.09c0-.32,0-.64,0-1,0-.07.1-.42.08-.51S261.28,338,261.26,338Z"/><path class="cls-2" d="M258.77,341.39c-.09.07-.17-.06-.24-.3a1,1,0,0,1,0-.35,1.29,1.29,0,0,1,.16-.17s.53-.13.7-.18a1.63,1.63,0,0,1,.49-.05l1,0a.83.83,0,0,1,.22,0,2,2,0,0,0,.77.06s.08,0,.12,0a2.68,2.68,0,0,1,.85,0c.23.07.45.12.67.17,0,0,.07,0,.1,0s.13.08.2.09a1.5,1.5,0,0,1,.29.06.69.69,0,0,1,.14.12.23.23,0,0,1,0,.2c0,.05,0,.12,0,.18v.06a2.67,2.67,0,0,1-.61.3s-.82.08-.91.1a.27.27,0,0,1-.15,0l-.68.09c-.14,0-.27,0-.4-.06a.12.12,0,0,0-.08,0,5.32,5.32,0,0,1-.69,0,2.08,2.08,0,0,0-.35,0l-.06,0-.08,0a5.75,5.75,0,0,0-.83,0c-.06,0-.37-.1-.44-.08S258.8,341.36,258.77,341.39Z"/><path class="cls-2" d="M259.58,338.8c-.12,0-.07-.17.08-.38a.73.73,0,0,1,.28-.21l.23,0c.05,0,.47.37.62.48a2.72,2.72,0,0,1,.37.39l.68.84a.72.72,0,0,1,.12.21,2.48,2.48,0,0,0,.47.69s.05.07.11.08a3,3,0,0,1,.58.7c.1.24.21.45.32.67,0,0,.05.06,0,.11s0,.16.07.23a1.83,1.83,0,0,1,.14.28.4.4,0,0,1,0,.19c0,.06-.13.13-.16.13s-.09.06-.14.1a.12.12,0,0,1-.05.05,3.63,3.63,0,0,1-.64-.34l-.68-.71a.29.29,0,0,1-.08-.13s-.51-.51-.52-.54-.2-.2-.22-.37a.18.18,0,0,0-.05-.07,6.67,6.67,0,0,1-.43-.61c-.07-.1-.15-.19-.23-.29s0,0,0-.06a.2.2,0,0,0,0-.08,7.46,7.46,0,0,0-.56-.7c-.05-.05-.17-.37-.23-.42S259.62,338.82,259.58,338.8Z"/><path class="cls-2" d="M260.29,343.23c0,.11-.16.08-.38,0s-.25-.2-.25-.24a1,1,0,0,1,0-.23s.25-.48.33-.64a2,2,0,0,1,.29-.4c.23-.25.44-.51.66-.76a.75.75,0,0,1,.17-.14,2.18,2.18,0,0,0,.56-.53.2.2,0,0,0,.06-.12,2.75,2.75,0,0,1,.54-.65c.21-.12.39-.26.58-.38,0,0,0-.06.09-.05s.15-.05.2-.09a1.08,1.08,0,0,1,.24-.18.47.47,0,0,1,.18,0c.06,0,.15.11.15.13s.08.09.13.12l.05.05a2.6,2.6,0,0,1-.19.65s-.48.66-.53.74-.07.06-.11.09-.38.55-.4.57-.16.22-.31.25,0,0-.06.06a4.35,4.35,0,0,1-.48.48,1.94,1.94,0,0,0-.23.27l-.06,0-.07.05a6.48,6.48,0,0,0-.54.62c0,.05-.32.21-.36.27S260.29,343.18,260.29,343.23Z"/><path class="cls-2" d="M373.37,225.19c-.06-.1.06-.19.31-.27a.76.76,0,0,1,.34,0,.94.94,0,0,1,.17.18s.14.61.19.81a2.75,2.75,0,0,1,.05.57c0,.39,0,.77,0,1.16a1.15,1.15,0,0,1,0,.26,2.9,2.9,0,0,0-.06.88.27.27,0,0,0,0,.15,3.54,3.54,0,0,1,0,1c-.07.26-.11.51-.17.77,0,0,0,.08,0,.11a.25.25,0,0,0-.09.24,1.91,1.91,0,0,1-.06.33,1.33,1.33,0,0,1-.12.16c0,.05-.19,0-.21,0s-.11,0-.17,0h-.07a3.89,3.89,0,0,1-.29-.71s-.09-.94-.11-1a.45.45,0,0,1,0-.16s-.08-.77-.08-.8a.93.93,0,0,1,.06-.46s0-.06,0-.09a5.27,5.27,0,0,1,0-.79c0-.13,0-.27,0-.4a.24.24,0,0,1,0-.08.29.29,0,0,0,0-.09c0-.32,0-.63,0-1,0-.08.1-.43.08-.51S373.4,225.24,373.37,225.19Z"/><path class="cls-2" d="M370.89,228.6c-.09.07-.17-.06-.24-.3a1,1,0,0,1,0-.35,1.29,1.29,0,0,1,.15-.17s.54-.14.71-.18a1.65,1.65,0,0,1,.49-.06h1a.83.83,0,0,1,.22,0,2,2,0,0,0,.76.06.19.19,0,0,0,.13,0,2.68,2.68,0,0,1,.85,0c.22.07.45.11.67.17,0,0,.07,0,.09,0s.14.08.21.09a1,1,0,0,1,.29.06s.09.07.14.11,0,.19,0,.21,0,.11,0,.18v.06a2.73,2.73,0,0,1-.62.29l-.9.11a.27.27,0,0,1-.15,0s-.66.09-.69.08-.26,0-.39-.06h-.08a4,4,0,0,1-.69,0c-.12,0-.23,0-.35,0l-.06,0-.08,0c-.28,0-.55,0-.83,0-.06,0-.37-.09-.44-.08S370.92,228.57,370.89,228.6Z"/><path class="cls-2" d="M371.7,226c-.12,0-.07-.18.08-.38a.67.67,0,0,1,.28-.21.86.86,0,0,1,.23,0s.47.37.62.48a2.28,2.28,0,0,1,.37.39l.68.84a.72.72,0,0,1,.12.21,2.47,2.47,0,0,0,.46.68.19.19,0,0,0,.11.09,2.85,2.85,0,0,1,.59.7c.1.23.21.45.32.67,0,0,0,.05,0,.1a.24.24,0,0,0,.07.23,2.44,2.44,0,0,1,.14.28.41.41,0,0,1,0,.19c0,.07-.13.14-.16.14s-.09.06-.14.1a.1.1,0,0,1-.05,0,2.66,2.66,0,0,1-.64-.34s-.61-.63-.69-.7-.05-.09-.07-.14l-.52-.53c-.08-.12-.2-.21-.22-.37s0-.05-.05-.08a5.39,5.39,0,0,1-.43-.6c-.07-.1-.16-.19-.23-.29s0-.05,0-.07a.59.59,0,0,0,0-.08,7.34,7.34,0,0,0-.56-.69c-.05-.05-.17-.37-.23-.42S371.74,226,371.7,226Z"/><path class="cls-2" d="M372.41,230.43c0,.12-.16.09-.38,0a.88.88,0,0,1-.26-.24,2,2,0,0,1,0-.23s.25-.49.33-.64a2,2,0,0,1,.29-.41l.66-.75a.8.8,0,0,1,.17-.15,2,2,0,0,0,.56-.53s.06-.06.06-.11a2.56,2.56,0,0,1,.54-.65c.2-.12.39-.26.58-.39,0,0,0-.05.09,0s.15-.05.2-.1a1.46,1.46,0,0,1,.24-.17.47.47,0,0,1,.18,0c.05,0,.15.11.15.13s.08.08.13.12l.05,0a2.8,2.8,0,0,1-.19.65l-.53.75s-.07.06-.11.09-.38.55-.4.56-.16.22-.31.26a.1.1,0,0,0-.06,0,3.78,3.78,0,0,1-.49.49c-.08.08-.15.18-.23.26s0,0-.05,0l-.07,0a8.14,8.14,0,0,0-.54.63s-.32.2-.36.27S372.41,230.39,372.41,230.43Z"/><g class="cls-1"><path class="cls-2" d="M346,136.64c0-.07,0-.13.18-.18a.47.47,0,0,1,.21,0l.1.11s.08.4.11.53a1.46,1.46,0,0,1,0,.36c0,.25,0,.5,0,.75a1,1,0,0,1,0,.17,1.78,1.78,0,0,0,0,.56s0,.07,0,.1a2.64,2.64,0,0,1,0,.63c0,.17-.07.33-.1.5a.1.1,0,0,1,0,.07c-.06.05-.05.1-.06.15a.76.76,0,0,1,0,.21.34.34,0,0,1-.07.11s-.11,0-.12,0-.07,0-.11,0h0a2.21,2.21,0,0,1-.18-.46s-.05-.6-.06-.67a.43.43,0,0,1,0-.11s-.05-.49-.05-.51a.62.62,0,0,1,0-.3.13.13,0,0,0,0-.06,4.35,4.35,0,0,1,0-.51,2.25,2.25,0,0,0,0-.26v0a.13.13,0,0,0,0-.06c0-.21,0-.41,0-.62,0-.05.05-.27,0-.33S346.06,136.66,346,136.64Z"/><path class="cls-2" d="M344.42,138.81c-.06.05-.11,0-.15-.18a.67.67,0,0,1,0-.2l.1-.11.46-.11a1.63,1.63,0,0,1,.31,0h.65l.15,0a1.34,1.34,0,0,0,.49,0,.12.12,0,0,0,.08,0,1.67,1.67,0,0,1,.55,0l.43.1s0,0,.06,0,.09,0,.13.05l.19,0a.28.28,0,0,1,.09.07.17.17,0,0,1,0,.12s0,.07,0,.11v0a1.47,1.47,0,0,1-.4.18L347,139s-.06,0-.09,0-.43.05-.45.05a.61.61,0,0,1-.26,0h-.05a2.2,2.2,0,0,1-.44,0h-.32a4.73,4.73,0,0,0-.53,0,2.74,2.74,0,0,0-.28-.05S344.44,138.8,344.42,138.81Z"/><path class="cls-2" d="M345,137.15c-.08,0,0-.11,0-.24a.42.42,0,0,1,.16-.12l.15,0s.29.24.39.31a2.83,2.83,0,0,1,.24.25c.14.19.29.36.43.55a.35.35,0,0,1,.08.13,1.74,1.74,0,0,0,.31.44s0,0,.07.06a2.07,2.07,0,0,1,.37.45l.21.43s0,0,0,.06a.17.17,0,0,0,.05.15.77.77,0,0,1,.1.18.47.47,0,0,1,0,.12s-.08.08-.09.07-.06,0-.09.07l0,0a2,2,0,0,1-.4-.22s-.39-.42-.44-.46a.16.16,0,0,1,0-.09l-.33-.34a.61.61,0,0,1-.15-.24.09.09,0,0,0,0-.05,2.7,2.7,0,0,1-.27-.39c-.05-.06-.11-.12-.16-.19s0,0,0,0l0-.05c-.13-.14-.22-.31-.36-.45s-.11-.23-.15-.27S345,137.16,345,137.15Z"/><path class="cls-2" d="M345.39,140c0,.07-.1.06-.24,0s-.15-.11-.15-.14a.71.71,0,0,1,0-.14s.17-.31.22-.41a1.24,1.24,0,0,1,.19-.26l.42-.49.11-.09a1.3,1.3,0,0,0,.36-.34.1.1,0,0,0,0-.08,2.23,2.23,0,0,1,.35-.42,3,3,0,0,0,.37-.25.06.06,0,0,1,.05,0c.08,0,.1,0,.13-.06l.15-.11a.2.2,0,0,1,.11,0s.1.06.1.08.05.05.07.07l0,0a1.44,1.44,0,0,1-.13.42s-.31.42-.34.47a.24.24,0,0,1-.08.06s-.24.35-.26.36-.1.14-.19.17l0,0a3,3,0,0,1-.31.31,1.22,1.22,0,0,0-.15.17l0,0,0,0c-.11.14-.25.25-.35.4s-.2.14-.23.18S345.39,140,345.39,140Z"/></g><g class="cls-1"><path class="cls-2" d="M242.6,290c0-.07,0-.12.18-.17a.37.37,0,0,1,.21,0l.11.12s.08.39.11.52a2.22,2.22,0,0,1,0,.37c0,.25,0,.49,0,.74a1,1,0,0,1,0,.17,1.83,1.83,0,0,0,0,.57.15.15,0,0,0,0,.09,2.64,2.64,0,0,1,0,.63,4.91,4.91,0,0,0-.1.5s0,.05,0,.07a.16.16,0,0,0,0,.15,1.43,1.43,0,0,1,0,.22.3.3,0,0,1-.07.1s-.11,0-.12,0-.07,0-.11,0h0a1.84,1.84,0,0,1-.18-.45s-.05-.61-.06-.68a.17.17,0,0,1,0-.1s0-.5,0-.52a.73.73,0,0,1,0-.29.06.06,0,0,0,0-.06,2.91,2.91,0,0,1,0-.51c0-.09,0-.18,0-.26s0,0,0-.05,0,0,0-.06c0-.2,0-.41,0-.61s.06-.28.05-.33S242.62,290,242.6,290Z"/><path class="cls-2" d="M241,292.14s-.1,0-.15-.18a.47.47,0,0,1,0-.21.32.32,0,0,1,.1-.1,3.28,3.28,0,0,1,.45-.11,1.16,1.16,0,0,1,.32,0h.65a.36.36,0,0,1,.14,0,1.64,1.64,0,0,0,.49,0,.15.15,0,0,0,.09,0,2.42,2.42,0,0,1,.54,0c.15.05.29.07.43.11s0,0,.07,0,.08.05.13.05l.18,0a.28.28,0,0,1,.09.07s0,.11,0,.12,0,.07,0,.11v0a1.76,1.76,0,0,1-.39.17s-.53.05-.59.07l-.09,0-.44,0c-.09,0-.17,0-.26,0h-.05a3.17,3.17,0,0,1-.44,0H242s0,0-.05,0a3.13,3.13,0,0,0-.53,0s-.24-.06-.29-.05S241,292.12,241,292.14Z"/><path class="cls-2" d="M241.52,290.48c-.07,0,0-.12,0-.24a.48.48,0,0,1,.17-.13l.15,0,.38.32a1.13,1.13,0,0,1,.24.25l.44.54.08.13a1.49,1.49,0,0,0,.3.44s0,.05.07.06a2.1,2.1,0,0,1,.38.45c.06.15.14.29.21.43s0,0,0,.07,0,.1,0,.14a1.62,1.62,0,0,1,.1.18.24.24,0,0,1,0,.12s-.08.08-.09.08-.06,0-.09.06,0,0,0,0a2.87,2.87,0,0,1-.4-.23l-.44-.46a.56.56,0,0,1-.05-.08s-.32-.33-.33-.35-.13-.13-.14-.24l0-.05a2.66,2.66,0,0,1-.28-.38l-.15-.19s0,0,0,0,0,0,0-.05a3.94,3.94,0,0,0-.36-.45s-.11-.24-.15-.27S241.55,290.49,241.52,290.48Z"/><path class="cls-2" d="M242,293.33c0,.07-.09.05-.23,0a.41.41,0,0,1-.15-.14.38.38,0,0,1,0-.15s.16-.31.22-.41a1.14,1.14,0,0,1,.18-.25l.43-.49a.52.52,0,0,1,.11-.1,1.65,1.65,0,0,0,.36-.34.43.43,0,0,0,0-.07,1.74,1.74,0,0,1,.35-.42l.36-.25s0,0,.06,0,.09,0,.13-.07a.58.58,0,0,1,.15-.11s.07,0,.11,0,.09.07.09.08,0,.05.08.07l0,0a2.41,2.41,0,0,1-.13.41s-.32.42-.35.48a.13.13,0,0,1-.07,0l-.26.37c-.06.06-.1.14-.2.16s0,0,0,0a2.27,2.27,0,0,1-.31.31l-.15.17,0,0,0,0a3.42,3.42,0,0,0-.36.4s-.2.13-.22.17S242,293.3,242,293.33Z"/></g><path class="cls-2" d="M302.84,207.77c0-.07,0-.13.18-.18a.48.48,0,0,1,.21,0l.1.11s.08.4.11.53a1.46,1.46,0,0,1,0,.36c0,.25,0,.5,0,.75a1,1,0,0,1,0,.17,2.15,2.15,0,0,0,0,.56s0,.07,0,.1a2.2,2.2,0,0,1,0,.63c0,.17-.07.33-.1.5,0,0,0,.05,0,.07s0,.1-.06.15a.76.76,0,0,1,0,.21s-.05.07-.07.11-.12,0-.13,0-.07,0-.1,0h0a2.21,2.21,0,0,1-.18-.46s-.05-.6-.06-.67,0-.07,0-.11-.05-.49-.05-.51a.62.62,0,0,1,0-.3.13.13,0,0,0,0-.06,4.35,4.35,0,0,1,0-.51,2.25,2.25,0,0,0,0-.26v0s0,0,0-.06c0-.21,0-.41,0-.62a3.26,3.26,0,0,0,.05-.33S302.85,207.79,302.84,207.77Z"/><path class="cls-2" d="M301.22,209.94c-.06.05-.11,0-.15-.18a.45.45,0,0,1,0-.2l.1-.11.45-.11.32,0h.65l.14,0a1.41,1.41,0,0,0,.5,0,.13.13,0,0,0,.08,0,1.67,1.67,0,0,1,.55,0l.43.1s0,0,.06,0,.09,0,.13.05l.19,0a.28.28,0,0,1,.09.07.17.17,0,0,1,0,.12s0,.07,0,.11v0a1.62,1.62,0,0,1-.4.18l-.58.06s-.07,0-.1,0-.42.05-.44.05a.59.59,0,0,1-.26,0h-.05a2.16,2.16,0,0,1-.44,0h-.32a4.69,4.69,0,0,0-.53,0,2.5,2.5,0,0,0-.29,0S301.24,209.93,301.22,209.94Z"/><path class="cls-2" d="M301.75,208.28c-.07,0,0-.11,0-.24a.44.44,0,0,1,.17-.12l.15,0,.39.31a1.79,1.79,0,0,1,.23.25c.15.19.3.36.44.55a.57.57,0,0,1,.08.13,1.71,1.71,0,0,0,.3.44s0,0,.07.06a1.85,1.85,0,0,1,.38.45c.06.15.14.28.21.43s0,0,0,.06,0,.11,0,.15a.76.76,0,0,1,.09.18s0,.07,0,.12-.08.08-.1.07,0,0-.08.07l0,0a2,2,0,0,1-.4-.22s-.39-.42-.44-.46a.16.16,0,0,1-.05-.09l-.34-.34a.72.72,0,0,1-.14-.24.09.09,0,0,0,0,0,2.76,2.76,0,0,1-.28-.39l-.15-.19,0,0a.17.17,0,0,0,0-.05c-.13-.14-.22-.31-.36-.45a2.34,2.34,0,0,1-.15-.27S301.78,208.29,301.75,208.28Z"/><path class="cls-2" d="M302.19,211.13c0,.07-.1.06-.24,0s-.15-.11-.15-.14a.71.71,0,0,1,0-.14s.17-.31.22-.41a1.24,1.24,0,0,1,.19-.26l.42-.49.11-.09a1.3,1.3,0,0,0,.36-.34.1.1,0,0,0,0-.08,2.23,2.23,0,0,1,.35-.42,2.9,2.9,0,0,0,.36-.25s0,0,.06,0a.14.14,0,0,0,.13-.06.58.58,0,0,1,.15-.11.2.2,0,0,1,.11,0s.09.06.09.08.05,0,.08.07l0,0a1.44,1.44,0,0,1-.13.42s-.31.42-.34.47a.24.24,0,0,1-.08.06l-.26.36c-.06.06-.1.14-.19.17a.08.08,0,0,0,0,0c-.09.11-.21.21-.31.31a1.22,1.22,0,0,0-.15.17l0,0,0,0c-.11.14-.25.25-.35.4s-.2.14-.23.18S302.19,211.1,302.19,211.13Z"/><path class="cls-2" d="M142.55,196.77c0-.07,0-.13.18-.18a.47.47,0,0,1,.21,0,.5.5,0,0,1,.1.11,4.72,4.72,0,0,1,.11.53,1.47,1.47,0,0,1,0,.36v.75a1,1,0,0,1,0,.17,1.79,1.79,0,0,0,0,.56.16.16,0,0,0,0,.1,3.27,3.27,0,0,1,0,.63c-.05.17-.07.33-.11.5,0,0,0,.05,0,.07a.16.16,0,0,0-.05.15,1.55,1.55,0,0,1,0,.21.34.34,0,0,1-.07.11s-.11,0-.12,0-.07,0-.11,0h0a2.22,2.22,0,0,1-.17-.46s0-.6-.06-.67a.21.21,0,0,1,0-.11s-.05-.49-.05-.51,0-.2,0-.3,0,0,0-.06a2.91,2.91,0,0,1,0-.51c0-.08,0-.17,0-.26v0a.14.14,0,0,0,0-.06c0-.21,0-.41,0-.62,0-.05.06-.27,0-.33S142.57,196.79,142.55,196.77Z"/><path class="cls-2" d="M140.93,198.94c-.05.05-.1,0-.15-.18a.44.44,0,0,1,0-.2.52.52,0,0,1,.1-.11l.45-.11a1.73,1.73,0,0,1,.32,0h.65l.14,0a1.36,1.36,0,0,0,.49,0,.15.15,0,0,0,.09,0,1.61,1.61,0,0,1,.54,0l.43.1s.05,0,.06,0,.09,0,.14.05l.18,0a.28.28,0,0,1,.09.07s0,.11,0,.12,0,.07,0,.11v0a1.4,1.4,0,0,1-.39.18l-.59.06s-.06,0-.09,0-.43.05-.44.05a.57.57,0,0,1-.26,0h0a2.13,2.13,0,0,1-.44,0h-.32a4.87,4.87,0,0,0-.54,0,2.33,2.33,0,0,0-.28,0S141,198.93,140.93,198.94Z"/><path class="cls-2" d="M141.47,197.28c-.07,0-.05-.11,0-.24a.44.44,0,0,1,.17-.12l.14,0s.3.24.39.31a1.88,1.88,0,0,1,.24.25c.14.19.29.36.44.55a.57.57,0,0,1,.08.13,1.49,1.49,0,0,0,.3.44s0,0,.07.06a2.1,2.1,0,0,1,.38.45c.06.15.14.28.21.43s0,0,0,.06,0,.11,0,.15a.77.77,0,0,1,.1.18.24.24,0,0,1,0,.12s-.08.08-.09.07-.06,0-.09.07l0,0a2.3,2.3,0,0,1-.4-.22s-.39-.42-.44-.46a.73.73,0,0,1,0-.09s-.32-.33-.33-.34-.13-.14-.14-.24l0,0a2.76,2.76,0,0,1-.28-.39l-.15-.19,0,0s0,0,0-.05-.22-.31-.36-.45-.11-.23-.15-.27S141.5,197.29,141.47,197.28Z"/><path class="cls-2" d="M141.9,200.13c0,.07-.1.06-.23,0a.45.45,0,0,1-.16-.14s0-.1,0-.14.17-.31.22-.41a1.24,1.24,0,0,1,.19-.26c.15-.16.29-.32.43-.49l.11-.09a1.41,1.41,0,0,0,.35-.34.1.1,0,0,0,0-.08,2.77,2.77,0,0,1,.36-.42,3.9,3.9,0,0,0,.36-.25s0,0,.06,0,.09,0,.12-.06l.15-.11a.23.23,0,0,1,.12,0s.09.06.09.08.05,0,.08.07l0,0a2.51,2.51,0,0,1-.13.42s-.32.42-.35.47,0,0-.07.06l-.26.36c-.06.06-.1.14-.2.17a.08.08,0,0,0,0,0,3,3,0,0,1-.31.31l-.15.17,0,0,0,0a4.48,4.48,0,0,0-.36.4s-.2.14-.22.18S141.91,200.1,141.9,200.13Z"/><g class="cls-1"><path class="cls-2" d="M155.31,179.39c0-.07,0-.13.18-.18a.47.47,0,0,1,.21,0,.52.52,0,0,1,.1.11s.08.4.11.52a1.58,1.58,0,0,1,0,.37c0,.25,0,.5,0,.75a.88.88,0,0,1,0,.16,1.82,1.82,0,0,0,0,.57s0,.07,0,.1a2.64,2.64,0,0,1,0,.63c0,.17-.07.33-.1.5a.1.1,0,0,1,0,.07c-.06.05-.05.1-.06.15a.76.76,0,0,1,0,.21.34.34,0,0,1-.07.11s-.11,0-.12,0-.07,0-.11,0h0a2.45,2.45,0,0,1-.18-.46s0-.61-.06-.67a.43.43,0,0,1,0-.11s0-.49,0-.51a.62.62,0,0,1,0-.3.13.13,0,0,0,0-.06,4.35,4.35,0,0,1,0-.51,2.25,2.25,0,0,0,0-.26v0a.13.13,0,0,0,0-.06c0-.21,0-.41,0-.62,0-.05.05-.27.05-.33S155.33,179.41,155.31,179.39Z"/><path class="cls-2" d="M153.69,181.56c-.06,0-.11,0-.15-.18a.74.74,0,0,1,0-.21.94.94,0,0,0,.1-.1l.46-.11a1.09,1.09,0,0,1,.31,0h.65l.15,0a1.34,1.34,0,0,0,.49,0s.05,0,.08,0a1.67,1.67,0,0,1,.55,0l.43.1s0,0,.06,0,.09.05.13.06a.63.63,0,0,1,.19,0s.06,0,.09.07,0,.12,0,.13,0,.07,0,.1v0a1.85,1.85,0,0,1-.4.18l-.58.06s-.06,0-.09,0l-.45,0a.43.43,0,0,1-.25,0h-.06a3.31,3.31,0,0,1-.44,0h-.32a4.73,4.73,0,0,0-.53,0,2.74,2.74,0,0,0-.28-.05S153.71,181.55,153.69,181.56Z"/><path class="cls-2" d="M154.23,179.9c-.08,0,0-.11,0-.24s.14-.13.16-.12a.34.34,0,0,1,.15,0s.29.24.39.31a1.9,1.9,0,0,1,.24.25l.43.54a.5.5,0,0,1,.08.14,1.94,1.94,0,0,0,.31.44s0,0,.07,0a2.41,2.41,0,0,1,.37.46l.21.43s0,0,0,.06a.18.18,0,0,0,.05.15,1,1,0,0,1,.1.17.48.48,0,0,1,0,.12s-.08.08-.09.08-.06,0-.09.07l0,0a2,2,0,0,1-.4-.22s-.39-.42-.44-.46a.16.16,0,0,1-.05-.09l-.33-.34a.61.61,0,0,1-.15-.24.05.05,0,0,0,0-.05,3.39,3.39,0,0,1-.27-.39c-.05-.07-.11-.12-.16-.19a.06.06,0,0,1,0,0l0-.05c-.13-.14-.22-.31-.36-.45s-.11-.23-.15-.27S154.25,179.91,154.23,179.9Z"/><path class="cls-2" d="M154.66,182.75c0,.07-.1.06-.24,0s-.15-.11-.15-.14a.71.71,0,0,1,0-.14s.17-.31.22-.41a1.24,1.24,0,0,1,.19-.26c.14-.16.28-.33.43-.49a.53.53,0,0,1,.11-.09,1.41,1.41,0,0,0,.35-.34s0,0,0-.08a2,2,0,0,1,.35-.42l.37-.25a.06.06,0,0,1,.05,0c.08,0,.1,0,.13-.06l.15-.12.11,0s.1.07.1.08,0,.05.07.08l0,0a1.3,1.3,0,0,1-.13.41s-.31.43-.34.48-.05,0-.07.06-.25.35-.26.36-.11.14-.2.17l0,0a2.34,2.34,0,0,1-.31.32,1.22,1.22,0,0,0-.15.17l0,0,0,0c-.11.14-.25.25-.35.4s-.2.14-.23.18S154.66,182.72,154.66,182.75Z"/></g><path class="cls-2" d="M285.54,135.26c0-.07,0-.13.18-.18a.47.47,0,0,1,.21,0,.5.5,0,0,1,.1.11s.08.4.11.52a1.58,1.58,0,0,1,0,.37c0,.25,0,.5,0,.75a.52.52,0,0,1,0,.17,2.09,2.09,0,0,0,0,.56s0,.07,0,.1a2.64,2.64,0,0,1,0,.63c0,.17-.06.33-.1.5,0,0,0,0,0,.07a.16.16,0,0,0-.05.15,1.55,1.55,0,0,1,0,.21.34.34,0,0,1-.07.11s-.11,0-.12,0-.07,0-.11,0h0a1.77,1.77,0,0,1-.17-.46s-.06-.6-.07-.67a.43.43,0,0,1,0-.11s-.05-.49-.05-.51a.77.77,0,0,1,0-.3s0,0,0-.06a4.35,4.35,0,0,1,0-.51,2.25,2.25,0,0,0,0-.26s0,0,0,0a.13.13,0,0,0,0-.06c0-.21,0-.41,0-.62,0-.05.06-.27.05-.33S285.56,135.28,285.54,135.26Z"/><path class="cls-2" d="M283.92,137.43c-.06,0-.11,0-.15-.18a.44.44,0,0,1,0-.2l.09-.11.46-.11a1.66,1.66,0,0,1,.32,0h.64l.15,0a1.36,1.36,0,0,0,.49,0,.11.11,0,0,0,.08,0,1.68,1.68,0,0,1,.55,0l.43.1s0,0,.06,0,.09,0,.13.06a1.08,1.08,0,0,1,.19,0s.06,0,.09.08,0,.11,0,.12,0,.07,0,.1v0a1.47,1.47,0,0,1-.4.18l-.58.06s-.06,0-.09,0-.43,0-.45,0a.43.43,0,0,1-.25,0h-.06a3.31,3.31,0,0,1-.44,0h-.31a4.87,4.87,0,0,0-.54,0,2.33,2.33,0,0,0-.28-.05S283.94,137.42,283.92,137.43Z"/><path class="cls-2" d="M284.46,135.77c-.07,0,0-.11,0-.24a.44.44,0,0,1,.17-.12l.14,0s.29.24.39.31a1.88,1.88,0,0,1,.24.25c.14.19.29.36.44.55l.08.13a1.49,1.49,0,0,0,.3.44s0,0,.07.06a2.44,2.44,0,0,1,.38.45c.06.15.13.28.2.43s0,0,0,.06,0,.11,0,.15a.77.77,0,0,1,.1.18.47.47,0,0,1,0,.12s-.08.08-.09.07-.06,0-.09.07l0,0a2,2,0,0,1-.4-.22s-.39-.42-.44-.46a.73.73,0,0,1,0-.09l-.33-.34a.61.61,0,0,1-.15-.24.05.05,0,0,0,0-.05,2.7,2.7,0,0,1-.27-.39c-.05-.06-.11-.12-.16-.19s0,0,0,0l0,0c-.12-.14-.22-.31-.36-.45s-.11-.23-.15-.27S284.49,135.78,284.46,135.77Z"/><path class="cls-2" d="M284.89,138.62c0,.07-.1.06-.24,0a.51.51,0,0,1-.15-.14.71.71,0,0,1,0-.14s.17-.31.22-.41a1.24,1.24,0,0,1,.19-.26l.43-.49a.53.53,0,0,1,.11-.09,1.41,1.41,0,0,0,.35-.34.1.1,0,0,0,0-.08,2.23,2.23,0,0,1,.35-.42,3,3,0,0,0,.37-.25.06.06,0,0,1,.05,0c.08,0,.1,0,.13-.06l.15-.11a.2.2,0,0,1,.11,0s.1.06.1.08.05.05.08.07l0,0a1.44,1.44,0,0,1-.13.42l-.34.47s-.05,0-.07.06-.25.35-.26.36-.1.14-.2.17l0,0a2.34,2.34,0,0,1-.31.32l-.15.17,0,0-.05,0c-.11.14-.25.25-.35.4s-.2.14-.22.18S284.89,138.59,284.89,138.62Z"/><g class="cls-4"><path class="cls-5" d="M252.7,220.9c-.68,0-4.47,7.11,2.21,11.43"/></g></g></svg>