<svg id="Layer_1" data-name="Layer 1" xmlns="http://www.w3.org/2000/svg" width="520" height="520" viewBox="0 0 520 520"><defs><style>.cls-1{fill:#221f1f;}.cls-2{opacity:0.56;}</style></defs><title>Notioly v2</title><g id="_77.Walking" data-name="77.Walking"><path class="cls-1" d="M200.87,346.64,147.13,452.36l-5.06,11.84s2.37,2.05,3.84,1,6.06-9.26,6.06-9.26,15.58,18.31,21.26,17.68c0,0,2.53,0,.84-1.89s-15.89-13.48-17.52-20.21c0,0,48.47-74.58,62-98.6Z"/><path class="cls-1" d="M159.16,449.64,158,451.37l-.18.28s0,0,0,0l.17.49a16.63,16.63,0,0,0,1.91,3.35,53.49,53.49,0,0,0,5.25,6.18c1.89,2,3.88,3.86,5.9,5.73l3,2.83c.13.12.26.23.4.38a6.58,6.58,0,0,1,.58.65,2.68,2.68,0,0,1,.61,1.53,1.62,1.62,0,0,1-.72,1.34,3,3,0,0,1-1.64.49,5.05,5.05,0,0,1-.91,0c-.23,0-.49-.07-.71-.13l-.66-.2-.6-.25a16.64,16.64,0,0,1-2.21-1.2,38.72,38.72,0,0,1-3.87-2.91c-2.43-2.06-4.69-4.28-6.89-6.55q-1.6-1.66-3.17-3.37l-2.17-2.42-.54.94-1.26,2.11a45.94,45.94,0,0,1-2.76,4.15,7.71,7.71,0,0,1-.79.9,2.57,2.57,0,0,1-1.42.71,4.2,4.2,0,0,1-2.59-.6l-.26-.15c-.13-.07-.26-.16-.38-.24a7.79,7.79,0,0,1-.71-.54c-.71-.3-.24-.92-.05-1.46l.93-2.16,3.32-7.68c.28-.64.53-1.29.85-1.91l1-1.86,1.91-3.72,3.82-7.43,15.27-29.73,13.42-26.42c5.67-11.25,11.29-22.59,17.17-33.72,3.67-6.95.77,2.75-5.79,15.69-11.63,22.95-23.35,45.82-35.34,68.83l-5.38,10.43L149.8,449c-.87,1.77-1.87,3.51-2.59,5.36l-2.34,5.48-1.17,2.75-.47,1.1c0,.06-.12.16,0,.2a1.33,1.33,0,0,0,.19.14,5,5,0,0,0,.45.25,3.6,3.6,0,0,0,.56.22,1.35,1.35,0,0,0,.88,0l.15-.09.17-.15c.14-.16.28-.31.43-.5.28-.36.56-.76.84-1.15,1.1-1.61,2.12-3.31,3.12-5l1.84-3.22,1.92,2.22,1.17,1.33,2.36,2.56c1.59,1.69,3.21,3.35,4.89,4.95a63.65,63.65,0,0,0,5.22,4.53,24.25,24.25,0,0,0,2.82,1.88,11.4,11.4,0,0,0,1.47.68,7.27,7.27,0,0,0,.73.2l.35.05H173a.86.86,0,0,0,.52-.13c.17-.12.07-.35,0-.49a1.68,1.68,0,0,0-.18-.21s-.26-.27-.41-.4l-1-.92-4-3.72a97,97,0,0,1-7.62-7.94,36.62,36.62,0,0,1-2.45-3.3,15.91,15.91,0,0,1-1-1.8c-.16-.32-.33-.63-.46-1l-.4-1.18-.12-.36a1.61,1.61,0,0,1,.2-.33l.38-.59.55-.84L158,448l2.2-3.37q4.38-6.76,8.77-13.51c8.83-13.66,17.68-27.4,26.26-41.07,6.66-10.63,13.07-21.13,19.34-31.82.7-1.18,1.35-2.36,2-3.53l.66-1.17a1,1,0,0,0,.07-.15l-.17-.05-.34-.12c-9.64-3.38-12.66-4.58-14.56-5.78-.43-.28-1-.6-1.25-.81-.79-.69,3.24.4,10.32,2.79l4,1.34,2,.67,1.62.56.89.31.23.08c.05,0,0,0,0,.07l-.06.1-.23.41-2.54,4.48c-.69,1.24-1.42,2.46-2.13,3.69-2.87,4.91-5.85,9.82-8.87,14.75-6,9.86-12.29,19.78-18.59,29.69q-14.06,22.08-28.41,44.09Z"/><path class="cls-1" d="M259.5,339.88c-.06,1.32,45.73,129.74,45.73,129.74s4,1.05,4.63-2.1a5.22,5.22,0,0,0-1.26-4.85s24.21-.84,25.68-4-25.84.21-25.84.21l-30-118.19Z"/><path class="cls-1" d="M307.66,451.05l1.64,6.59,5.75-.59q3.38-.32,6.76-.54c2.27-.14,4.53-.25,6.82-.25a33.74,33.74,0,0,1,3.54.17,5.18,5.18,0,0,1,2.58.81,1.62,1.62,0,0,1,.59.87,1.6,1.6,0,0,1-.17,1.07,2.91,2.91,0,0,1-.49.57l-.28.27c-.11.08-.25.15-.38.23a9.05,9.05,0,0,1-1.63.73c-.74.23-1.48.43-2.21.58-1.47.32-2.93.55-4.39.74-2.92.39-5.84.66-8.76.87l-3.64.24-2.83.15h-.15s-.16,0-.08,0a1.19,1.19,0,0,1,.16.23l.06.13a5.9,5.9,0,0,1,.2.63A6.41,6.41,0,0,1,311,466a6.16,6.16,0,0,1-.48,2.76,3.52,3.52,0,0,1-1,1.25,4.34,4.34,0,0,1-1.41.64,5.19,5.19,0,0,1-1.4.16c-.22,0-.45,0-.67,0a8.5,8.5,0,0,1-1-.16l-.44-.11c-.07-.12-.12-.27-.18-.4s-.22-.59-.31-.84l-.35-1-.69-2-1.4-4-2.78-7.93-5.56-15.86-11.11-31.71-10-28.09c-4.24-11.94-8.63-23.88-12.52-35.95a16.68,16.68,0,0,1-.55-2.1c-.1-.53-.05-.83.05-.77a12,12,0,0,1,1.44,2.48A147.75,147.75,0,0,1,267,357.91c8.58,24.41,17.17,48.81,25.65,73.48,2.54,7.37,5.19,14.88,7.88,22.42l4,11.34,1,2.83.24.66c0,.07,0,.17.09.21l.24,0c.2,0,.42,0,.63,0a2.27,2.27,0,0,0,1.93-.81,3.93,3.93,0,0,0,.4-2.32,4.09,4.09,0,0,0-.15-.85,1.59,1.59,0,0,0-.07-.2,1.23,1.23,0,0,0-.11-.28,4,4,0,0,0-.48-.79,2.66,2.66,0,0,0,0-1.06.19.19,0,0,0,0-.08s0,0,.07-.07.1-.1.16-.16.25-.31.39-.49l3.8-.18,3.08-.19c2.05-.13,4.09-.3,6.14-.51s4.07-.45,6.07-.8,4.45-.95,4.64-1.28a.38.38,0,0,0,.14-.25.29.29,0,0,0-.19-.2,2.11,2.11,0,0,0-.56-.15c-.07,0-.65-.08-1.11-.11l-1.43-.05c-1.92,0-3.86,0-5.79.14-3.88.21-7.76.55-11.64.95l-4.17.47q-3.59-14.26-7.18-28.53c-4-15.86-8-31.8-12-47.54-3.19-12.21-6.31-24.19-9.46-36.26-.52-1.95-1-3.86-1.54-5.81l-.94,0c-10.26-.41-13.52-.68-15.7-1.27-.5-.14-1.15-.28-1.44-.4-1-.43,3.23-.57,10.74-.36l8.8.27q2,7.53,4,15.24,1.91,7.34,3.85,14.8c2.55,9.95,5.13,20,7.71,30.12L307.7,451Z"/><path class="cls-1" d="M287.67,118.8a14.17,14.17,0,0,1-.75,1.75,18,18,0,0,1-.89,1.68,24.57,24.57,0,0,1-2.18,3.06c-.59.7-1.16,1.41-1.8,2a48.93,48.93,0,0,1-7.44,5.79l-3.46,2.29a29.58,29.58,0,0,1-4.54,2.68c-1,.44-.7-1.82,1-2.84,3-1.84,6-3.66,9-5.63a29,29,0,0,0,4.8-4.27,21.81,21.81,0,0,0,4-5.76,19,19,0,0,0,1.38-4.09,22.28,22.28,0,0,0,.42-6.57,26.77,26.77,0,0,0-1-5l-.33-1.07c-.38-1.33-.4-1.8,0-2.23a1.89,1.89,0,0,1,.27-.29c.33-.23.8.23,1.19,1.21a25.49,25.49,0,0,1,1.8,9.7,22.54,22.54,0,0,1-1.35,7.52Z"/><path class="cls-1" d="M283.9,92c1.45.42,2.9.85,4.36,1.38a16.75,16.75,0,0,1,1.62.61,7.77,7.77,0,0,1,1.41.88,3.08,3.08,0,0,1,.72.81,1.91,1.91,0,0,1,.27,1.12,2.63,2.63,0,0,1-1.11,1.71,8,8,0,0,1-1.35.82c-.8.41-1.6.77-2.39,1.13a12.17,12.17,0,0,1-3.14,1.08c-.68.09-.4-1.89.74-2.3s2-.75,3-1.14a14.91,14.91,0,0,0,1.39-.63c.23-.11.41-.23.6-.34l.38-.27a.22.22,0,0,0,.11-.25c0-.12,0-.14-.28-.33a7.91,7.91,0,0,0-1.62-.83,40.53,40.53,0,0,0-4.2-1.4l-1.33-.38-.68-.18a6.89,6.89,0,0,1-.77-.29,5.52,5.52,0,0,1-1.77-1.53,12.07,12.07,0,0,1-1.21-1.86,14.85,14.85,0,0,1-1.37-3.13,5.87,5.87,0,0,1-.18-.75c-.14-1,.09-1.37.6-1.49a1.51,1.51,0,0,1,.35-.06.58.58,0,0,1,.48.25,1.68,1.68,0,0,1,.28.63,15.15,15.15,0,0,0,2.15,4.8,5.68,5.68,0,0,0,1.22,1.3c.11,0,.22.13.32.18s.14.07.33.12l1.09.29Z"/><path class="cls-1" d="M169.65,147.31c2.25,8.58,10.61,15.49,18.9,18.26,15.56,5.22,36.61,3,48.31-9,20.07-20.63,7.38-41.5,7.38-41.5s-9-5.11-9.11-10.65c-.18-6,4.11-7.56,9.47-6.81,2.63.38,5,1.44,7.68,1.33,3-.12,26.59-12.85,27.61-32.11,0,0,3.29-14-9.95-20-18-7.84-35.82,8.15-43.69,20.86-23.34-8.17-38.18,11.56-40.75,23.12-2.49,11.18,3.35,31,3.27,35-.22,10.73-13.88,20.59-18.91,21.3"/><path class="cls-1" d="M254.57,44.17a26,26,0,0,1,15.65,1.57,20.66,20.66,0,0,1,6.56,4.65,16.87,16.87,0,0,1,3.82,7.11,21.44,21.44,0,0,1,.56,8c0,.33-.09.67-.15,1l-.08.47,0,.13,0,.24c-.07.66-.1,1.33-.23,2s-.2,1.31-.37,1.95-.31,1.29-.52,1.91a35.74,35.74,0,0,1-8,13.38,55.93,55.93,0,0,1-8.46,7.53c-1.53,1.12-3.11,2.15-4.74,3.11a28.85,28.85,0,0,1-5.22,2.48,5.6,5.6,0,0,1-.7.16,3.25,3.25,0,0,1-.72,0c-.42,0-.84,0-1.25-.06a20,20,0,0,1-2.4-.44,31.21,31.21,0,0,0-4.4-.93,10.8,10.8,0,0,0-4.22.21,4.58,4.58,0,0,0-3,2.28,5.52,5.52,0,0,0-.58,1.91,7.17,7.17,0,0,0-.08,1,4.65,4.65,0,0,0,.06,1,8.08,8.08,0,0,0,1.78,3.71,21,21,0,0,0,3.13,3.12c.58.48,1.17.93,1.79,1.37.3.21.61.43.93.63l.47.3.66.41.27.46.17.32c.1.2.21.4.3.6.18.41.39.81.56,1.22l.5,1.23.44,1.26a35.24,35.24,0,0,1,1.32,5.14,34.83,34.83,0,0,1,.23,10.59l-.43,2.63-.71,2.56c-.13.42-.23.85-.38,1.27l-.49,1.23-1,2.45-1.27,2.33A16.72,16.72,0,0,1,243,150l-1.52,2.16c-.26.36-.5.73-.78,1.07l-.87,1-1.46,1.65a17.88,17.88,0,0,1-1.52,1.62L235.2,159c-.55.49-1.17.91-1.75,1.37a36.49,36.49,0,0,1-3.69,2.47l-2,1-1,.51-1,.44-2,.86-2.1.71a19.69,19.69,0,0,1-2.11.64l-2.13.56c-1.44.26-2.87.63-4.33.78l-2.17.29-2.19.16a53.5,53.5,0,0,1-22.18-3.13,33.71,33.71,0,0,1-9.64-6,26.4,26.4,0,0,1-6.79-9.07c-.21-.55-.39-1-.53-1.44a8.64,8.64,0,0,1-.25-1c-.1-.54-.09-.79,0-.78s.29.27.55.75.64,1.16,1.12,2a29.34,29.34,0,0,0,4.88,6.15,36.55,36.55,0,0,0,9.06,6.39,27.7,27.7,0,0,0,5.07,2,47.09,47.09,0,0,0,5.36,1.32,51.68,51.68,0,0,0,11,.9,47.35,47.35,0,0,0,21.29-5.15,33.4,33.4,0,0,0,8.73-6.56,42.65,42.65,0,0,0,6.57-8.87,35.43,35.43,0,0,0,2.3-5c.32-.86.52-1.76.78-2.64.12-.45.28-.88.36-1.34l.23-1.36a32.05,32.05,0,0,0,0-11,34.29,34.29,0,0,0-1.22-4.84l-.41-1.2-.48-1.17c-.15-.4-.35-.77-.53-1.16a6,6,0,0,0-.28-.57l-.19-.34-.41-.26-.6-.39c-.4-.27-.8-.54-1.18-.83-.79-.56-1.53-1.17-2.27-1.81a18.34,18.34,0,0,1-3.83-4.53,8.24,8.24,0,0,1-1-3,9,9,0,0,1,.2-3.11,6.44,6.44,0,0,1,1.46-2.9,6.63,6.63,0,0,1,2.73-1.76,13.18,13.18,0,0,1,6.06-.36c2,.29,3.82.94,5.59,1.2a9.78,9.78,0,0,0,1.31.11,4.32,4.32,0,0,0,.63,0,4,4,0,0,0,.51-.11,18.79,18.79,0,0,0,2.5-1.05A48.56,48.56,0,0,0,260.13,94a53.06,53.06,0,0,0,11.36-9.93,31.77,31.77,0,0,0,7-13.12,16,16,0,0,0,.36-1.83c.12-.61.17-1.23.23-1.85l0-.46a2.06,2.06,0,0,1,.05-.35l0-.22c.06-.29.09-.6.14-.9.07-.61.12-1.23.14-1.85a18.93,18.93,0,0,0-1.18-7.24,14.75,14.75,0,0,0-4.19-5.94,10.63,10.63,0,0,0-1.45-1.13l-.76-.53c-.26-.16-.54-.29-.81-.44-.55-.28-1.08-.6-1.65-.85s-1.14-.48-1.74-.67a23.18,23.18,0,0,0-9.06-1.24,27.89,27.89,0,0,0-9,2.1,45.69,45.69,0,0,0-15.19,10.63,56.52,56.52,0,0,0-4.65,5.36q-1.08,1.41-2.07,2.88c-.17.24-.33.48-.49.74l-.71,1.11c0,.15-.17,0-.27,0l-.31-.1-.63-.2-.92-.3a29.56,29.56,0,0,0-13.91-1,28.36,28.36,0,0,0-12.59,5.91A35.77,35.77,0,0,0,189,83.41a26,26,0,0,0-3.33,10.18,52,52,0,0,0,.3,10.79c.41,3.59,1,7.16,1.73,10.72l1.06,5.35c.18.9.35,1.8.5,2.71a15.33,15.33,0,0,1,.28,2.86,18.82,18.82,0,0,1-3.26,9.37,31.24,31.24,0,0,1-5.08,5.87,31.81,31.81,0,0,1-4.16,3.23,14.59,14.59,0,0,1-5.29,2.33c-.31.05-.64.14-1,.16a6.63,6.63,0,0,1-.78,0c-.29,0-.21-.14.17-.32s1.08-.45,2-.93A37.18,37.18,0,0,0,180,140a28,28,0,0,0,5.81-7.48l.52-1.06c.17-.35.28-.73.42-1.09a11.18,11.18,0,0,0,.38-1.11l.26-1.13a4.83,4.83,0,0,0,.17-1.13l.1-1.15a16.5,16.5,0,0,0-.25-2.28c-1.2-6.48-2.75-13.14-3.43-20a51.49,51.49,0,0,1-.14-10.47A28.07,28.07,0,0,1,187.17,83a36.46,36.46,0,0,1,14.77-15.09,28.94,28.94,0,0,1,15.54-3.29,33.55,33.55,0,0,1,7.84,1.5l.38.12h0l.31-.47.55-.82c.74-1.08,1.52-2.14,2.34-3.17A57.85,57.85,0,0,1,240.19,50.8a37.84,37.84,0,0,1,14.35-6.67Z"/><path class="cls-1" d="M237.54,110.34a16.28,16.28,0,0,1-2.25-5.51,8.81,8.81,0,0,1-.22-2.26,5.06,5.06,0,0,1,1.83-3.75,7,7,0,0,1,3.72-1.36,24.46,24.46,0,0,1,3.3-.1,14.47,14.47,0,0,1,4.1.6c.81.29-.62,1.83-2.07,1.62a27.44,27.44,0,0,0-3.89-.32,8.86,8.86,0,0,0-3.52.57c-1.28.54-1.74,2-1.63,3.48a12.72,12.72,0,0,0,1.56,5,10.62,10.62,0,0,0,.85,1.38,3.25,3.25,0,0,0,.23.29l.28.29a7.81,7.81,0,0,0,.59.56,6.73,6.73,0,0,0,4.35,1.85,7.21,7.21,0,0,0,3.49-1.07c.23-.14.45-.3.69-.44.86-.55,1.18-.66,1.67-.39a1.77,1.77,0,0,1,.33.19c.32.24.15.77-.5,1.33a9.34,9.34,0,0,1-3.52,1.9,7.67,7.67,0,0,1-4.35,0,9.25,9.25,0,0,1-2.87-1.5,11.47,11.47,0,0,1-1.16-1c-.18-.18-.36-.34-.57-.59s-.34-.45-.48-.66Z"/><path class="cls-1" d="M258.36,118.38a3.74,3.74,0,0,1,.06,2.38,4.43,4.43,0,0,1-1.14,1.89,3.3,3.3,0,0,1-1.46.89,3.1,3.1,0,0,1-.7.1,3.05,3.05,0,0,1-.68,0,2.66,2.66,0,0,1-1.47-.52c-.12-.09-.23-.19-.34-.29s-.16-.25-.23-.38a2.22,2.22,0,0,1-.24-.77,4.22,4.22,0,0,1,0-.71c0-.21.07-.44.12-.64a8.33,8.33,0,0,1,.86-2,3.68,3.68,0,0,1,2.08-1.88c.32-.08.41.41.43.92s.05,1-.19,1.24a5.8,5.8,0,0,0-1.12,1.57,3,3,0,0,0-.4,1.41c0,.12.16.29.56.28a3.23,3.23,0,0,0,.6,0,1.55,1.55,0,0,0,.46-.15,2.39,2.39,0,0,0,1.21-2.07,1.46,1.46,0,0,0-2.73-.74,1.1,1.1,0,0,0,0,1.46c.1.06.15.13.26.19.35.25.51.39.41.92,0,.12,0,.24,0,.36-.07.38-.46.57-1.07.37a5.37,5.37,0,0,1-.66-.36,3.24,3.24,0,0,1-.59-.63,2.64,2.64,0,0,1-.43-1.8,3.63,3.63,0,0,1,1.93-2.71,3.23,3.23,0,0,1,2.7-.18,3.47,3.47,0,0,1,1.86,1.87Z"/><path class="cls-1" d="M279.9,276.17c1.89,9.81,3.85,19.6,6,29.35,1.07,4.87,2.17,9.73,3.37,14.57a146.45,146.45,0,0,0,4.11,14.28l.5,1.22c.17.4.37.75.55,1.13a.78.78,0,0,0,.12.19l.17.24.33.46.16.24.08.12s0,.08,0,.12l-.32.49-.33.5-.37.44a6.23,6.23,0,0,1-.58.57,9.93,9.93,0,0,1-5.64,2,45.81,45.81,0,0,1-11.1-1c-1.59-.28-3.17-.59-4.71-.79a34.54,34.54,0,0,0-4.67-.22,31.27,31.27,0,0,0-9.19,1.58,46.8,46.8,0,0,0-8.61,3.89,82.24,82.24,0,0,1-8.57,4.56c-5.92,2.63-12.57,4.29-19.18,3.18a89.73,89.73,0,0,1-9.38-2.51c-3.08-.95-6.13-1.92-9.21-2.79a69.76,69.76,0,0,0-8.25-1.89c-.7-.12-1.39-.22-2.09-.27a16.11,16.11,0,0,0-2.08-.11,10.76,10.76,0,0,0-2.05.1l-1,.12-1.08.17a28.68,28.68,0,0,1-16.94-2.9,47.19,47.19,0,0,1-9.29-6c-.72-.57-1.43-1.17-2.11-1.78-.34-.31-.7-.6-1-.92l-1.36-1.28-.39-.37-.2-.19,0,0s0,0,0,0l.1-.09.78-.71.79-.7.49-.47c.65-.61,1.29-1.25,1.92-1.89a119.76,119.76,0,0,0,13.3-17.06c2.48-3.77,2.57-3,.9.47a72.28,72.28,0,0,1-10.89,16.07c-1.26,1.4-2.59,2.75-4,4l-.42.39,0,0h0l.07.07.5.47,1,.9a50.22,50.22,0,0,0,8.79,6.33,31.17,31.17,0,0,0,10,3.67c.87.2,1.75.22,2.63.34a25.83,25.83,0,0,0,2.64,0l1.32-.08,1.31-.19c.81-.13,1.91-.26,2.9-.36a41.4,41.4,0,0,1,11.36,1.6c3.66.93,7.22,2.06,10.78,3.17a98.7,98.7,0,0,0,10.64,2.94,23.09,23.09,0,0,0,5.34.28,31.63,31.63,0,0,0,5.37-.79,47.63,47.63,0,0,0,12.26-5c1.95-1.09,3.92-2.32,6-3.36a43.17,43.17,0,0,1,6.45-2.73,33.91,33.91,0,0,1,14-1.52c2.38.26,4.6.73,6.86,1.09a51.78,51.78,0,0,0,6.72.76c2.4.06,4.95-.12,6.75-1.35a4.34,4.34,0,0,0,.61-.51c.1-.09.18-.21.2-.21l.09-.13c0-.05.11-.09.05-.14l-.11-.15a6.81,6.81,0,0,1-.38-.71,29.26,29.26,0,0,1-1.45-3.61c-1.62-4.84-2.84-9.72-4.05-14.62-2.37-9.8-4.45-19.66-6.46-29.53q-3.69-18.22-6.92-36.53-1.23-6.93-2.38-13.89c-.74-4.64-1.5-9.28-2-14-.9-9.38-1-18.77-1.09-28.08,0-1.82,0-3.62,0-5.42a33.36,33.36,0,0,1,.44-5.47,28.16,28.16,0,0,1,1.45-5.29,48.15,48.15,0,0,1,2.29-4.93c1.68-3.18,3.43-6.26,4.78-9.52l.43-1.06a.65.65,0,0,0,0-.13l-.08-.13-.26-.43c-.22-.36-.43-.73-.66-1.09l-.81-1a20.91,20.91,0,0,0-3.77-3.5,39.92,39.92,0,0,0-8.12-4.32c-5.39-2.19-9.13-3.3-11.67-4.31a25.32,25.32,0,0,1-5.07-2.41c-.48-.33-1.14-.74-1.4-1-.43-.41.48-.18,2.48.49l9.32,3a92.85,92.85,0,0,1,9.13,3.43,32.39,32.39,0,0,1,8.53,5.33,19.15,19.15,0,0,1,3.37,4l.8,1.34.3.5a4,4,0,0,1-.21.54l-.34.85c-.31.78-.65,1.55-1,2.32-1.38,3.08-3.11,6-4.59,8.89a29.13,29.13,0,0,0-3.17,9.06,32,32,0,0,0-.38,4.81c0,1.68,0,3.36,0,5,0,6.73.13,13.48.49,20.2.27,5,.71,10,1.47,14.91s1.57,9.93,2.42,14.89q2.58,14.89,5.47,29.74Z"/><path class="cls-1" d="M207.1,262.25l.7-1.09c.22-.38.42-.77.63-1.15s.21-.59.34-.88a14.14,14.14,0,0,0,1-3.2,7.67,7.67,0,0,0,.1-1.51,6.22,6.22,0,0,1,.06-2c.06-.22.47-.14.87.06s.77.49.77.86a11.22,11.22,0,0,1-.62,4.21c-.31.81-.48,1.68-.83,2.48a17.27,17.27,0,0,1-1.33,2.52c-.29.51-.65,1-1,1.45-.52.7-1.06,1.39-1.6,2.06-.42.52-.74,1.11-1.16,1.63a3,3,0,0,1-.26.36c-.35.42-.55.47-.93.26l-.26-.15a.67.67,0,0,1-.13-.9,28.46,28.46,0,0,1,2.05-2.88l.8-1.05.74-1.09Z"/><path class="cls-1" d="M214.41,212.94a140.42,140.42,0,0,0-5.47,13.22,51.7,51.7,0,0,0-3.12,13.74c0,.39,0,.9,0,1.21a2.65,2.65,0,0,0,.28.92,12.53,12.53,0,0,0,1.26,2.06,40.42,40.42,0,0,0,3.34,3.87A81.4,81.4,0,0,0,225,259.35a94.39,94.39,0,0,0,16.38,8.31,53.94,53.94,0,0,0,7.75,2.44c2.66.56,5.37,1,8.05,1.46,1.73.31,3.47.63,5.19,1.06.87.21,1.73.45,2.58.73l2.5.83a21.5,21.5,0,0,1,5,2.18,4.64,4.64,0,0,1,1.92,2.37,6.39,6.39,0,0,1,.05,2.91c-.14,1.05-.25,1.48-.44,1.45s-.44-.56-.57-1.52c-.07-.47-.11-1.05-.24-1.58a2.81,2.81,0,0,0-.83-1.42,6.28,6.28,0,0,0-1.8-1.06c-.77-.33-1.63-.65-2.55-1l-2.52-.85c-.89-.3-1.64-.58-2.48-.81-1.66-.47-3.37-.84-5.11-1.18-3.47-.68-7-1.18-10.58-2.08a85.92,85.92,0,0,1-19.93-8.77,106.47,106.47,0,0,1-11-7.42,60.06,60.06,0,0,1-9.76-9.24,18.25,18.25,0,0,1-2.1-3.18,5.59,5.59,0,0,1-.38-1,2.42,2.42,0,0,1-.13-.56,3.14,3.14,0,0,1,0-.58c0-.62,0-1.25.09-1.87a42.32,42.32,0,0,1,1.27-7.28,97.74,97.74,0,0,1,4.83-13.81c2.34-5.51,5-10.88,7.71-16.18,4.15-8,8.63-15.93,13-23.77,3.36-6.09,6.62-12.1,9.63-18.25.66-1.36,1.27-2.7,1.89-4.08,2.27-5.15,2.56-6.77,3.1-7.89.12-.26.19-.63.26-.82s.17-.14.29.07a2.62,2.62,0,0,1,.29,1.18,13.54,13.54,0,0,1-.95,4.83,81.66,81.66,0,0,1-3.76,8.67c-1.39,2.85-2.88,5.67-4.4,8.5-3,5.66-6.24,11.32-9.38,17-4.67,8.46-9.31,17-13.37,25.74Z"/><path class="cls-1" d="M272.34,270.67c3.23,1.3,7.19,5.39,6.36,9.19-.13.58,1.88.26,2-.32.9-4.1-3.23-8.32-6.73-9.74-.5-.2-2.34.58-1.64.87Z"/><path class="cls-1" d="M270.55,273.3l3.34,2.74a10.3,10.3,0,0,1,1.53,1.25c.72.88.74,2.55.67,3.61s2,.68,2.05-.18a6.64,6.64,0,0,0-.75-4.16,7.07,7.07,0,0,0-1.27-1.11l-4-3.27c-.64-.53-2.45.41-1.57,1.12Z"/><path class="cls-1" d="M296.79,233.09a37.28,37.28,0,0,1-6.38,4.93,16.87,16.87,0,0,1-2.73,1.34,8.08,8.08,0,0,1-5.53.09,14.26,14.26,0,0,1-4.53-2.71,20.27,20.27,0,0,1-3.11-3.45,19.79,19.79,0,0,1-2.75-5.11c-.2-.54.26-.7.9-.45a3.94,3.94,0,0,1,1.93,1.83,23.21,23.21,0,0,0,3,4.55,14.78,14.78,0,0,0,4.22,3.3,5.48,5.48,0,0,0,3,.71,9.08,9.08,0,0,0,3.14-.88,26.29,26.29,0,0,0,6.28-4.33c1.2-1.06,2.35-2.17,3.47-3.33,1.69-1.76,3.34-3.58,4.88-5.45,1.21-1.46,2.28-3,3.46-4.45.26-.33.51-.66.78-1,1-1.18,1.58-1.46,2.17-1.27a1.24,1.24,0,0,1,.37.14c.31.26.06.78-.6,1.63-2,2.57-4.12,5.41-6.46,8.1-1.73,2-3.56,4-5.5,5.82Z"/><path class="cls-1" d="M299.24,208.79q-3.62,3.3-7.31,6.52c-.9.78-1.77,1.59-2.71,2.35a28.32,28.32,0,0,1-2.65,1.93,6,6,0,0,1-3.51.82,6.36,6.36,0,0,1-3.24-1.4,13.19,13.19,0,0,1-2.3-2.37,43,43,0,0,1-3.12-4.74c-1.22-2.05-2.38-4.14-3.37-6.23-.32-.64.13-.83.86-.53a5.22,5.22,0,0,1,2.35,2.32c1.15,2.13,2.24,4.25,3.48,6.21a22,22,0,0,0,2,2.76,7.73,7.73,0,0,0,2.47,2,3.63,3.63,0,0,0,3.46-.34l.84-.58.86-.69c.57-.45,1.13-.95,1.7-1.41,2.48-2.1,4.92-4.29,7.34-6.49l4.44-4.1c2.22-2.09,4.46-4.18,6.61-6.31.84-.83,1.64-1.68,2.44-2.52.23-.27.32-.3.34-.44s0-.47.07-.74l.18-1.72c.06-.51.11-1,.16-1.51.25-1.89.46-2.47,1-2.82a2.26,2.26,0,0,1,.38-.23c.41-.14.61.67.52,2.09-.07,1-.16,2.11-.26,3.18-.06.54-.11,1.08-.17,1.62l-.06.48-.05.37c0,.13,0,.27-.13.34l-.8.82c-1.51,1.56-3.07,3.11-4.66,4.65-2.35,2.28-4.75,4.53-7.16,6.78Z"/><path class="cls-1" d="M329.75,186.13c.13-.14.12-.1.14-.13a.17.17,0,0,0,.06-.06.19.19,0,0,0,0-.18c-.05-.06-.11-.06-.21-.07a11,11,0,0,0-1.1.08c-.57.06-1.14.19-1.72.26-2,.27-4.13.52-6.22.67-.94.06-1.87.15-2.81.2a8.25,8.25,0,0,1-3.67-.36c-.37-.15-.16-.6.24-1a2.2,2.2,0,0,1,1.57-.69,64.36,64.36,0,0,0,6.89-.13c1.44-.06,2.89-.41,4.37-.62.57-.08,1.15-.16,1.76-.21.44,0,1.69-.2,2.3.35a1.89,1.89,0,0,1,.53,1.89,3.33,3.33,0,0,1-.21.52l-.33.47a4.5,4.5,0,0,1-.65.61,9.16,9.16,0,0,1-1.35.88,20.44,20.44,0,0,1-4.39,1.64,15.69,15.69,0,0,1-3.6.65,6.24,6.24,0,0,1-.86,0c-1.12-.19-1.5-.66-1.35-1.18a1.2,1.2,0,0,1,.11-.35c.24-.32.61-.35,1.09-.31a9.92,9.92,0,0,0,2.69-.22,20.85,20.85,0,0,0,2.91-.77,11.25,11.25,0,0,0,3.78-2Z"/><path class="cls-1" d="M328.6,206.72a17.54,17.54,0,0,1-6.45.09c-.76-.1-1.51-.18-2.25-.34l-.72-.16-.81-.2c-.05,0-.16,0-.16-.08l0-.2-.06-.42-.11-.82-.22-2-.45-3.87c-.14-1.15-.34-2.29-.54-3.42a27.8,27.8,0,0,1-.65-4.36c0-.93,1.95-.05,2.22,1.62.49,3,.87,5.94,1.07,9,.06.89.19,1.83.32,2.72l0,.22s0,.07.06.07l.11,0,1.09.2a21.82,21.82,0,0,0,5.85.36,7.6,7.6,0,0,0,1.68-.36l.39-.14.24-.12c.05-.05.18-.05.17-.14l0-.24c.17-1.8.37-3.76.48-5.62.09-1.46.07-2.9.09-4.35,0-.32,0-.63,0-.95,0-1.19.21-1.56.72-1.78a2,2,0,0,1,.35-.14c.4-.09.68.42.73,1.3a64.45,64.45,0,0,1-.21,8.06c-.08,1-.17,2-.25,3l-.08,1-.07.75v.09l-.08.05-.16.09-.32.2-.65.38a8,8,0,0,1-1.33.49Z"/><path class="cls-1" d="M316.61,180.32l.21,1.36c0,.16.12.31.14.48.09.58.15,1.18.25,1.76a3.23,3.23,0,0,0,.25.74c.14.3.37.57.28,1-.05.23-1.85.54-2,.18a5.11,5.11,0,0,1-.32-2,4.66,4.66,0,0,0-.27-1.23c-.09-.46-.17-.91-.26-1.37-.06-.28-.11-.56-.16-.84a11,11,0,0,0-.31-1.26,6,6,0,0,0-.49-.89,2,2,0,0,1-.11-.2c-.1-.27,0-.39.47-.56l.32-.11a.92.92,0,0,1,.86.08,3.59,3.59,0,0,1,.85,1.61c.13.43.21.88.32,1.33Z"/><path class="cls-1" d="M330.38,176.34h-.06s.06,0,0,0l-.25.06-1,.24c-.66.11-1.31.25-2,.3a14.28,14.28,0,0,1-1.45.16,23.42,23.42,0,0,1-5-.44l-2.19-.39a7.39,7.39,0,0,1-2.73-.83c-.28-.17,0-.59.35-.95a1.61,1.61,0,0,1,1.4-.51c1.71.47,3.45.86,5.24,1.22a12.72,12.72,0,0,0,3.32,0,18.39,18.39,0,0,0,3.61-.6l.29-.08.35-.12.67-.25.77,0c.12,0,.27-.08.36,0a1.42,1.42,0,0,1,.14.33,8.13,8.13,0,0,1,0,2.36c-.06.59-.12,1.18-.16,1.77-.07.92,0,1.83,0,2.74,0,.2,0,.4,0,.6,0,.75-.2,1-.71,1.08-.11,0-.23.06-.35.07-.39,0-.67-.31-.73-.86a27.35,27.35,0,0,1,.09-5l0-.46v-.22c0-.08,0,0,0,0l0,0s0-.07,0-.06h0Z"/><path class="cls-1" d="M326.51,175.06c-.8,0-1.6-.07-2.4-.16a8.52,8.52,0,0,1-.87-.08,19.06,19.06,0,0,1-3-.73c-.44-.12-.87-.26-1.31-.37a4.28,4.28,0,0,1-1.61-.69c-.29-.22.71-1.18,1.24-.95,1,.39,2,.73,3.08,1.12a9.81,9.81,0,0,0,2,.36c.75.09,1.51.16,2.27.18.47,0,.94,0,1.41,0a13.52,13.52,0,0,0,2.11-.26,8.54,8.54,0,0,0,1.51-.57l.32-.15c.39-.18.55-.15.78.15l.16.2c.15.23.06.51-.24.71a7.6,7.6,0,0,1-3.06,1.1,19.89,19.89,0,0,1-2.44.19Z"/><path class="cls-1" d="M326.24,158.07A2,2,0,0,1,325,159.8a5.32,5.32,0,0,1-1.68.44c-.92.13-1.73.16-2.47.33a6.24,6.24,0,0,0-1.49.56,1.41,1.41,0,0,0-.68.58c-.07.12,0,.43.24.79a5.91,5.91,0,0,0,2.3,1.76,11.93,11.93,0,0,0,2.68.83,16.19,16.19,0,0,1,3.65.89c.37.17.17.62-.27,1a2.2,2.2,0,0,1-1.79.51,27.59,27.59,0,0,1-3.79-1,8.79,8.79,0,0,1-3.62-2.27,5.9,5.9,0,0,1-.85-1.16,2.4,2.4,0,0,1-.26-1.78,2.65,2.65,0,0,1,1-1.4,4.91,4.91,0,0,1,1.23-.69,10.82,10.82,0,0,1,2.72-.6c.43-.05.85-.09,1.25-.15a4.93,4.93,0,0,0,.88-.2.47.47,0,0,0,.27-.23.48.48,0,0,0,0-.37,1.4,1.4,0,0,0-.09-.17,1.42,1.42,0,0,0-.16-.22,4.51,4.51,0,0,0-.45-.5,22.08,22.08,0,0,0-2-1.22,4,4,0,0,1-1.05-.9,2.49,2.49,0,0,1-.52-1.45,4.73,4.73,0,0,1,.59-2.06,14.79,14.79,0,0,1,1-1.65c.15-.22.29-.45.44-.66.58-.8.78-.92,1.31-.87.12,0,.26,0,.37,0,.41,0,.5.66.11,1.38-.56,1-1.24,1.94-1.67,2.79a2.39,2.39,0,0,0-.33,1,.69.69,0,0,1,0,.13s0,.08.05.11a.67.67,0,0,0,.23.26,22.78,22.78,0,0,0,2.05,1.24,5,5,0,0,1,1.24,1.13l.13.15.15.24.32.52a2.87,2.87,0,0,1,.26,1.14Z"/><path class="cls-1" d="M200,210.76q-6.7,9.27-13,18.78c-4.21,6.36-8.31,12.79-12.24,19.31a84,84,0,0,0-7,14.94,52.46,52.46,0,0,0-3.09,14.08,26.48,26.48,0,0,0,2.84,13.82,29.59,29.59,0,0,0,9.46,10.59,38.27,38.27,0,0,0,13.15,5.81,34.66,34.66,0,0,0,12.75.64,41.08,41.08,0,0,0,12.11-4,29.14,29.14,0,0,0,6.6-4.73,33.48,33.48,0,0,0,5.09-6.34c2.89-4.64,4.82-9.85,6.65-15.06,1.12-3.27,1.44-2.69,1,.25A45.42,45.42,0,0,1,229.44,293a38.12,38.12,0,0,1-5.15,7.13,32.85,32.85,0,0,1-6.88,5.55,34.61,34.61,0,0,1-3.95,2c-.68.28-1.35.59-2,.84l-2.09.67a39.86,39.86,0,0,1-4.24,1.07,26.86,26.86,0,0,1-4.38.62,36.3,36.3,0,0,1-8.78-.5,40.49,40.49,0,0,1-8.43-2.44,37.7,37.7,0,0,1-7.7-4.22,31.91,31.91,0,0,1-6.45-6,27.7,27.7,0,0,1-3-4.4,26.16,26.16,0,0,1-2.14-4.91,28.53,28.53,0,0,1-1.37-10.66,50,50,0,0,1,1.87-10.55,72.38,72.38,0,0,1,3.63-10,91.75,91.75,0,0,1,5.43-10.29c2-3.29,4-6.57,6.11-9.82,4.16-6.49,8.41-12.91,12.83-19.22q8.15-11.67,16.89-22.9c4.4-5.66,9-11.2,13.81-16.56a136.61,136.61,0,0,1,15.37-15.06l1.66-1.28.82-.64.25-.19.15-.11.18,0,.59-.12a27,27,0,0,1,4.2-.4,17.51,17.51,0,0,1,8.26,1.73,11,11,0,0,1,5.37,6.57,20.71,20.71,0,0,1,.54,8.42,43.75,43.75,0,0,1-1.47,7.18c-.35,1.09-.66,2.08-1,3s-.64,1.7-.92,2.44c-.55,1.49-1.13,2.62-1.57,3.58a17.21,17.21,0,0,1-2.21,3.68,11.92,11.92,0,0,1-.85,1c-.36.3-.22-.41.34-1.94s1.53-3.9,2.66-7c.4-1.14.85-2.27,1.17-3.44s.72-2.32,1-3.5a35,35,0,0,0,1.11-7.15,15.5,15.5,0,0,0-1.05-6.88,10.68,10.68,0,0,0-.8-1.49c-.16-.23-.34-.43-.51-.66a3.25,3.25,0,0,0-.56-.61,8.78,8.78,0,0,0-2.78-1.89,16.1,16.1,0,0,0-6.95-1.23,24.5,24.5,0,0,0-3.63.34l-.37.07,0,0-.73.56-1.5,1.15A112.24,112.24,0,0,0,229,175c-10.49,11.11-19.95,23.33-29,35.76Z"/><path class="cls-1" d="M274,266.34a8.32,8.32,0,0,0-2.34-1.1,22.2,22.2,0,0,0-2.76-.51c-.69-.1-1.4-.12-2.11-.21-2.49-.31-5-.62-7.53-1.07-1.12-.2-2.24-.39-3.36-.63a10,10,0,0,1-4.15-1.63c-.39-.29-.05-.65.51-.87a3.15,3.15,0,0,1,.94-.21,2.08,2.08,0,0,1,1,.14,58.23,58.23,0,0,0,8.2,1.93c1.71.33,3.54.39,5.33.59,1,.11,2,.25,3,.41a11.63,11.63,0,0,1,3,.91,15.14,15.14,0,0,1,3.15,2.16,31.64,31.64,0,0,1,3.81,4.14c.9,1.12,1.81,2.21,2.63,3.38.18.26.38.5.55.77.62,1,.68,1.4.37,1.85a2.44,2.44,0,0,1-.22.31c-.29.28-.79,0-1.3-.65-1.51-2-3-4.06-4.67-6a19.33,19.33,0,0,0-4.11-3.7Z"/><path class="cls-1" d="M237.64,237.91c4,2.69,8.3,5.09,12.51,7.64,1.54.93,3.1,1.82,4.61,2.81q2,1.29,3.94,2.73l1,.79,1.44,1.25c.09.1.3.2.29.31l-.34.33c-.24.21-.46.46-.7.63l-.71.56-.35.28a3.1,3.1,0,0,1-.26.18c-2.69,1.75-5.34,3.35-7.81,5.26a32.24,32.24,0,0,0-5.85,5.76,22.57,22.57,0,0,0-4.16,9.34c-.23,1-.69.89-1-.11a6.89,6.89,0,0,1-.28-2.11,12.91,12.91,0,0,1,.21-1.38,6.19,6.19,0,0,1,.45-1.51,26.34,26.34,0,0,1,6.73-9.18,58.61,58.61,0,0,1,9.09-6.48c.89-.52,2.09-1.31,2.21-1.41s.19-.12.14-.17l-.19-.17-.11-.09-.22-.16-.66-.5c-1.8-1.3-3.7-2.5-5.6-3.68-4.17-2.6-8.48-5-12.71-7.63-1.3-.82-2.59-1.62-3.85-2.58a14.05,14.05,0,0,1-3.27-3.47,8.14,8.14,0,0,1-1.21-3.49,9.26,9.26,0,0,1,.42-3.64,27.53,27.53,0,0,1,3.14-6.28c1.92-3,3.86-5.92,5.46-9,.36-.67.66-1.35,1-2,1.14-2.56,1.42-3.39,2.09-3.84a3,3,0,0,1,.44-.31c.42-.19.5,1.09-.2,3.18a40.71,40.71,0,0,1-4.5,8.75,72.83,72.83,0,0,0-5,8.31c-.95,2.1-1.39,4.29-.62,6.21a11.44,11.44,0,0,0,4.43,4.85Z"/><path class="cls-1" d="M307.52,213.1a9.59,9.59,0,0,1-1-.89c-.33-.3-.65-.62-.95-.94s-.48-.43-.68-.68a21.36,21.36,0,0,1-1.95-2.78c-.26-.42-.55-.84-.82-1.27a3,3,0,0,1-.69-2c0-.28.52-.16,1-.05a5.94,5.94,0,0,0,.66.12c.2.06.35.13.39.24.37.88,1,1.93,1.53,3a6.37,6.37,0,0,0,.64.9c.26.27.53.53.77.81a20.18,20.18,0,0,0,1.75,1.71,11.79,11.79,0,0,0,1.19.92,8.66,8.66,0,0,0,2,1.06,6.08,6.08,0,0,0,1.68.23c.12,0,.24,0,.36,0,.44,0,.56.14.66.65,0,.12.05.23.07.35a.66.66,0,0,1-.58.77,5.89,5.89,0,0,1-3.7-.61,9,9,0,0,1-1.22-.67c-.39-.25-.77-.51-1.13-.79Z"/><path class="cls-1" d="M326.13,191.28a14.72,14.72,0,0,1-1.58.42c-.2,0-.38.11-.57.14a18,18,0,0,1-2.06.15,6.84,6.84,0,0,0-.91.08,2.28,2.28,0,0,1-1.16,0c-.24-.1.15-1.36.51-1.38a20,20,0,0,1,2.18,0,4.32,4.32,0,0,0,1.33-.19,14.38,14.38,0,0,0,1.44-.35,9,9,0,0,0,.87-.31,7.18,7.18,0,0,0,1.23-.64,5.39,5.39,0,0,0,.74-.77l.14-.18c.2-.2.32-.19.62,0a1.49,1.49,0,0,1,.2.15.49.49,0,0,1,.15.64,4,4,0,0,1-1.6,1.52,8.74,8.74,0,0,1-1.52.71Z"/><g class="cls-2"><path class="cls-1" d="M379.65,88.55c.69-8,1.5-16.08,2.78-24.08a72,72,0,0,1,1.82-8.73,18.44,18.44,0,0,1,.69-1.92,4.47,4.47,0,0,1,1.35-1.91A16.44,16.44,0,0,1,389.9,50a29.36,29.36,0,0,1,7.8-1.56c2.62-.22,5.23-.21,7.83-.17s5.18.09,7.78.19c4.6.19,9.23.5,13.78,1A97.26,97.26,0,0,1,444.42,53c1.75.55,1.39.88-.2.85a48,48,0,0,1-7.69-1.05c-11.61-2.41-23.56-2.92-35.56-3a31.39,31.39,0,0,0-10.55,1.65L389.2,52c-.38.22-.78.41-1.15.64l-.54.37a2.79,2.79,0,0,0-.46.33,3.45,3.45,0,0,0-.58,1A28.31,28.31,0,0,0,385,59.4c-.84,3.93-1.42,7.94-1.94,11.95s-.95,8.05-1.33,12.08q-.69,7.45-1.18,14.93c-.48,7.54-.86,15.13-1,22.63-.11,5.83-.06,11.54.13,17.3.06,1.26.11,2.5.17,3.77.22,4.73.31,6.21,0,7.27a4.61,4.61,0,0,1-.21.7c-.27.5-.82-1.41-1.12-4.9a277.65,277.65,0,0,1-.27-32.19q.47-12.18,1.46-24.38Z"/></g><g class="cls-2"><path class="cls-1" d="M439.31,115.26,441,101l.58-5.2,2.3-18.29c.35-2.72.57-5.41.89-8.15.45-3.47,1.19-6.9,1-10.15-.13-1,.35-1,1-.18a7.35,7.35,0,0,1,.88,4.8c-.21,1.82-.55,3.58-.82,5.3s-.43,3.46-.65,5.23q-.65,5.3-1.43,10.61c-.62,4.23-1,8.67-1.54,13l-1.71,14.34q-.51,4.41-1,8.82c-.5,4.46-1,8.94-1.42,13.37-.32,3.45-.51,6.84-.73,10.25,0,.75-.08,1.48-.12,2.24-.2,2.81-.35,3.68-.9,4.26a2.15,2.15,0,0,1-.37.37c-.4.25-.64-.91-.62-3,.14-6.15.73-12.58,1.37-19,.49-4.79,1-9.59,1.58-14.39Z"/></g><g class="cls-2"><path class="cls-1" d="M331.53,67.75a8.27,8.27,0,0,0-1.72.6c-.5.27-.79.57-.82.81l-.68,4c-.17,1.35-.38,2.69-.52,4s-.28,2.71-.36,4.07l-.17,3-.1,3c-.24,7,0,14.06.24,21.1.13,3.13.31,6.27.47,9.37.21,4,.48,8,.31,12-.1,2.49-1.62-.66-1.75-5.23-.24-8.11-.74-16.24-.81-24.48,0-4.92-.18-10.05,0-15.1.06-1.39.17-2.77.25-4.16l.38-4.15.55-4.13.34-2.06.18-1,.08-.51a2.26,2.26,0,0,1,.25-.67,3.16,3.16,0,0,1,1.13-1.09,6.56,6.56,0,0,1,1.27-.58,15.79,15.79,0,0,1,2.57-.63,44.67,44.67,0,0,1,5.14-.49,137.36,137.36,0,0,1,15.48.48c4,.3,7.87.62,11.79,1.15.86.11,1.71.22,2.57.37,3.21.57,4.24,1,4.77,1.69a1.94,1.94,0,0,1,.3.45c0,.22-.22.22-.77.15s-1.44-.22-2.59-.42c-3.41-.57-7-1-10.6-1.34s-7.3-.65-11-.83c-2.73-.13-5.48-.2-8.21-.15a38.86,38.86,0,0,0-8,.82Z"/></g><g class="cls-2"><path class="cls-1" d="M339,84.89c.64.13,1,.28.83.48s0,.24,0,.36c0,.81-.06,1.61-.07,2.42,0,.35,0,.69,0,1,0,.59,0,1.17,0,1.76,0,.29-.07.59-.07.89,0,.6,0,1.2,0,1.8,0,.31-.07.61-.08.92a2.15,2.15,0,0,0,0,.34.11.11,0,0,1,0,.13,2.34,2.34,0,0,1-1.23.09c-.39-.06-.65-.13-.64-.24,0-.49,0-1,0-1.48,0-.2-.07-.4-.07-.6s0-.62.06-.94.06-.92.05-1.37,0-1.06-.06-1.58c0-.17,0-.34,0-.5,0-.52,0-1,0-1.56s0-1.08,0-1.62a.25.25,0,0,1,0-.12C337.91,85,338,84.93,339,84.89Z"/></g><g class="cls-2"><path class="cls-1" d="M360,85c.64.14,1,.28.84.48s0,.24,0,.36c0,.81-.06,1.62-.08,2.42,0,.35,0,.69.05,1,0,.59,0,1.17,0,1.76,0,.3-.06.59-.06.89,0,.6,0,1.2,0,1.8,0,.31-.07.61-.08.92a2.15,2.15,0,0,0,.05.34.13.13,0,0,1-.05.14,2.51,2.51,0,0,1-1.24.08c-.38-.06-.64-.13-.63-.24,0-.49,0-1,0-1.48,0-.2-.07-.4-.07-.6s0-.62.06-.94.05-.91.05-1.37,0-1.06-.06-1.58c0-.17,0-.34,0-.5V86.91c0-.54,0-1.08,0-1.62a.25.25,0,0,1,0-.12C358.93,85,359.05,85,360,85Z"/></g><g class="cls-2"><path class="cls-1" d="M339.19,108.81c.64.14,1,.28.83.48s0,.24,0,.36c0,.81-.06,1.61-.07,2.42,0,.35,0,.69,0,1,0,.59.05,1.17.05,1.76,0,.29-.07.59-.07.89,0,.6,0,1.2,0,1.8,0,.31-.06.61-.08.92a2.21,2.21,0,0,0,.06.34.13.13,0,0,1-.06.13,2.34,2.34,0,0,1-1.23.09c-.39-.06-.64-.13-.64-.24,0-.49,0-1,0-1.48,0-.2-.07-.4-.06-.6s0-.62.05-.94.06-.91.05-1.37,0-1.06-.06-1.58c0-.17,0-.34,0-.5,0-.52,0-1,0-1.56s0-1.08,0-1.62a.25.25,0,0,1,0-.12C338.13,108.87,338.24,108.85,339.19,108.81Z"/></g><g class="cls-2"><path class="cls-1" d="M360.21,108.87c.63.14,1,.28.83.48s0,.24,0,.36c0,.81-.06,1.62-.07,2.42,0,.35,0,.7,0,1,0,.59,0,1.17.05,1.76,0,.3-.07.59-.07.89,0,.6,0,1.2,0,1.8,0,.31-.07.61-.08.92a2.15,2.15,0,0,0,.05.34.13.13,0,0,1-.05.14,2.48,2.48,0,0,1-1.23.08c-.39-.06-.65-.13-.64-.24,0-.49,0-1,0-1.48,0-.2-.07-.4-.07-.6s0-.62.06-.94.06-.91,0-1.37,0-1.06-.06-1.58c0-.17,0-.34,0-.5,0-.52,0-1,0-1.56s0-1.08,0-1.62a.25.25,0,0,1,0-.12C359.14,108.93,359.26,108.91,360.21,108.87Z"/></g><g class="cls-2"><path class="cls-1" d="M398.26,73.36c.8.18,1.26.39,1,.67s0,.33,0,.5c0,1.12-.09,2.24-.12,3.36,0,.48,0,1,.05,1.44,0,.82,0,1.63,0,2.44,0,.42-.08.83-.08,1.25,0,.83,0,1.67,0,2.5,0,.42-.08.85-.1,1.27a3.55,3.55,0,0,0,.06.47.19.19,0,0,1-.07.2,2.64,2.64,0,0,1-1.54.1c-.48-.08-.8-.18-.79-.33,0-.69,0-1.37,0-2.06,0-.27-.07-.55-.07-.83,0-.43.05-.87.08-1.3,0-.64.07-1.28.07-1.92s0-1.46-.06-2.2c0-.23,0-.46,0-.69V76.06l0-2.25a.3.3,0,0,1,0-.16C396.93,73.43,397.08,73.4,398.26,73.36Z"/></g><g class="cls-2"><path class="cls-1" d="M422.28,73.59c.79.19,1.26.4,1,.68s0,.33,0,.5c0,1.12-.08,2.24-.11,3.36,0,.48,0,1,0,1.44,0,.82.05,1.63.05,2.44,0,.42-.08.83-.09,1.25,0,.83,0,1.66,0,2.5,0,.42-.08.85-.11,1.27a3.54,3.54,0,0,0,.07.47.17.17,0,0,1-.07.19,2.55,2.55,0,0,1-1.54.11c-.48-.08-.8-.19-.8-.33,0-.69,0-1.37,0-2.06,0-.28-.08-.55-.07-.83,0-.44.05-.87.07-1.31,0-.63.08-1.27.08-1.91s0-1.46-.07-2.2c0-.23,0-.46,0-.69,0-.72,0-1.44,0-2.17l0-2.25a.25.25,0,0,1,0-.17C421,73.66,421.1,73.63,422.28,73.59Z"/></g><g class="cls-2"><path class="cls-1" d="M394.21,111.28c.79.18,1.26.39,1,.67s0,.33,0,.5c0,1.12-.08,2.24-.11,3.36,0,.48,0,1,0,1.44,0,.82.05,1.63.05,2.44,0,.42-.09.83-.09,1.25,0,.83,0,1.67,0,2.5,0,.42-.08.85-.11,1.27a3.54,3.54,0,0,0,.07.47c0,.07,0,.14-.07.2a2.64,2.64,0,0,1-1.54.1c-.48-.08-.8-.18-.8-.33,0-.69,0-1.37,0-2.06,0-.27-.08-.55-.07-.83,0-.43.05-.87.07-1.3,0-.64.08-1.28.08-1.92s0-1.46-.07-2.19c0-.24,0-.47,0-.7,0-.72,0-1.44,0-2.17s0-1.5,0-2.25a.23.23,0,0,1,0-.16C392.88,111.35,393,111.32,394.21,111.28Z"/></g><g class="cls-2"><path class="cls-1" d="M424.22,111.51c.8.19,1.26.4,1,.68s0,.33,0,.5c0,1.12-.09,2.24-.11,3.36,0,.48,0,1,0,1.44,0,.82.05,1.63.05,2.44,0,.42-.09.83-.09,1.25,0,.83,0,1.66,0,2.5,0,.42-.09.85-.11,1.27a2.42,2.42,0,0,0,.07.47.2.2,0,0,1-.08.19,2.52,2.52,0,0,1-1.53.11c-.48-.08-.81-.18-.8-.33,0-.69,0-1.37,0-2.06,0-.28-.08-.55-.08-.83,0-.44.06-.87.08-1.31,0-.63.08-1.27.08-1.91s-.05-1.46-.07-2.2c0-.23,0-.46,0-.69,0-.72,0-1.44,0-2.17s0-1.5,0-2.25a.36.36,0,0,1,0-.17C422.9,111.58,423,111.55,424.22,111.51Z"/></g><path class="cls-1" d="M279,94a5,5,0,0,1,.22,1.75,2.91,2.91,0,0,1-.29,1.08,2.32,2.32,0,0,1-.83.87,2.82,2.82,0,0,1-1.44.4,7.19,7.19,0,0,1-3.7-1.38c-.47-.31-.94-.61-1.38-1a3.21,3.21,0,0,1-1.4-1.74c-.06-.25.4-.39.9-.46s1-.13,1.17.08a13.39,13.39,0,0,0,2.65,2.19,3,3,0,0,0,1.93.42c.27,0,.38-.09.49-.25a1.69,1.69,0,0,0,.06-.89,6.47,6.47,0,0,0-.46-1.46,13.39,13.39,0,0,0-1.24-2.15c-.38-.55-.85-1-1.24-1.64a2.7,2.7,0,0,1-.25-.4c-.27-.53-.2-.77.24-1a2.28,2.28,0,0,1,.3-.17.76.76,0,0,1,.94.23,30,30,0,0,1,2.05,2.76A11.82,11.82,0,0,1,279,94Z"/><path class="cls-1" d="M288.59,109.3c.27.58.37,1,.15.89s-.15.1-.23.15a8.29,8.29,0,0,1-1.73.63l-.8.2a4.81,4.81,0,0,1-1.42,0,8.87,8.87,0,0,1-2.06-.79,3.62,3.62,0,0,1-.54-.49c-.06-.06-.17-.08-.24-.13a.08.08,0,0,1,0-.11,2.77,2.77,0,0,1,.79-.94c.29-.26.5-.42.54-.38a3.68,3.68,0,0,0,.63.49c.09,0,.22,0,.31.08l.42.23a2.33,2.33,0,0,0,.69.17,3,3,0,0,0,.84-.11,2,2,0,0,1,.26-.06,5.3,5.3,0,0,0,.82-.28,7.16,7.16,0,0,0,.8-.46.06.06,0,0,1,.07,0C288,108.44,288.05,108.53,288.59,109.3Z"/><path class="cls-1" d="M264.67,89.46a14.44,14.44,0,0,1,1.7-2.13c.23-.24.44-.51.69-.73a10.54,10.54,0,0,1,3-1.75c.45-.17.9-.4,1.4-.59a3.49,3.49,0,0,1,1.09-.27,1.53,1.53,0,0,1,1.27.52c.19.25-.24.52-.62.8a1.77,1.77,0,0,0-.45.46c-.08.15-.1.27-.14.27a17.7,17.7,0,0,0-2.85.87,5,5,0,0,0-1.67,1.23,10.11,10.11,0,0,0-1.53,1.78,10.29,10.29,0,0,0-.78,1.27,11,11,0,0,0-.89,2.09,9.37,9.37,0,0,0-.27,1.75c0,.13,0,.26,0,.39-.08.47-.24.59-.75.58-.11,0-.23,0-.35,0a.72.72,0,0,1-.67-.7,8.38,8.38,0,0,1,.62-3.42,15.64,15.64,0,0,1,1.18-2.44Z"/><path class="cls-1" d="M304.62,211.87c-.41-.45-.8-.93-1.18-1.44-.13-.18-.31-.34-.43-.53a10.54,10.54,0,0,1-.94-2.2,3.69,3.69,0,0,0-.43-.84c-.23-.32-.52-.52-.59-.89,0-.12.31-.47.74-.7s.95-.32,1.13-.07a5.51,5.51,0,0,1,1,2.54,3,3,0,0,0,.67,1.21,11.68,11.68,0,0,0,1,1.28q.34.38.72.75c.38.37.76.76,1.18,1.1s.73.46,1.09.71l.25.17c.27.25.24.43-.09.8l-.23.25a.86.86,0,0,1-.84.28,6.52,6.52,0,0,1-1.81-1.19c-.43-.37-.85-.78-1.28-1.2Z"/><path class="cls-1" d="M247.71,265.43c-.37.29-.74.6-1.08.92-.13.12-.21.28-.33.4a12.06,12.06,0,0,0-1.28,1.3,2.14,2.14,0,0,0-.35.69c-.11.32-.07.62-.3.82a1.89,1.89,0,0,1-1-.13c-.44-.15-.85-.55-.76-.81a4.12,4.12,0,0,1,1.45-2.11,8,8,0,0,0,.95-1.07c.36-.38.75-.73,1.13-1.07l.73-.62c.36-.31.75-.6,1.1-.92s.49-.58.77-.87a1.8,1.8,0,0,1,.19-.2c.28-.2.46-.14.73.28a2.75,2.75,0,0,1,.17.29,1.09,1.09,0,0,1,.14.85,4.55,4.55,0,0,1-1.16,1.36c-.34.3-.71.6-1.05.92Z"/><g class="cls-2"><path class="cls-1" d="M73.42,473.45c.29-.8.61-1.26,1.06-1,.26.12.53,0,.79,0l5.35.09c.76,0,1.53,0,2.29-.06,1.3,0,2.59-.06,3.88-.07.66,0,1.32.08,2,.08,1.32,0,2.64-.05,4-.05.67,0,1.35.08,2,.1.25,0,.5-.06.75-.07a.39.39,0,0,1,.31.07A1.74,1.74,0,0,1,96,474c-.12.48-.28.81-.52.8l-3.27,0c-.44,0-.88.09-1.32.09-.69,0-1.38-.05-2.08-.07-1,0-2-.07-3-.06-1.17,0-2.33.06-3.49.09H81.2l-3.45,0-3.58.05a.83.83,0,0,1-.27,0C73.55,474.78,73.5,474.63,73.42,473.45Z"/></g><g class="cls-2"><path class="cls-1" d="M224.69,473.45c.29-.8.61-1.26,1.06-1,.25.12.52,0,.79,0,1.78,0,3.56.07,5.35.09.76,0,1.53,0,2.29-.06,1.29,0,2.59-.06,3.88-.07.66,0,1.32.08,2,.08,1.33,0,2.65-.05,4-.05.68,0,1.35.08,2,.1.25,0,.5-.06.75-.07a.37.37,0,0,1,.3.07,1.71,1.71,0,0,1,.2,1.53c-.13.48-.29.81-.52.8l-3.27,0c-.44,0-.88.09-1.32.09-.7,0-1.39-.05-2.08-.07-1,0-2-.07-3-.06s-2.32.06-3.49.09h-1.1l-3.44,0-3.58.05a.83.83,0,0,1-.27,0C224.82,474.78,224.77,474.63,224.69,473.45Z"/></g><g class="cls-2"><path class="cls-1" d="M377.61,475.06c.29-.8.61-1.26,1.06-1,.25.12.53,0,.79,0,1.78,0,3.56.07,5.35.09.76,0,1.53,0,2.29-.06,1.29,0,2.59-.06,3.88-.07.66,0,1.32.08,2,.08,1.33,0,2.65-.05,4-.05.68,0,1.36.08,2,.1.25,0,.5-.06.75-.08a.51.51,0,0,1,.31.07,1.77,1.77,0,0,1,.19,1.54c-.13.48-.29.81-.52.8l-3.27,0c-.44,0-.88.09-1.32.09-.7,0-1.39-.05-2.08-.07-1,0-2-.07-3-.06-1.17,0-2.33.06-3.49.08l-1.11,0-3.44,0-3.58,0a.83.83,0,0,1-.27,0C377.74,476.39,377.69,476.24,377.61,475.06Z"/></g><path class="cls-1" d="M179.6,250.9c-14,20.43-7.56,35.86,4.46,43.43,16.36,10.32,30.84,1.93,40.89-15.64.08-.14-16.33-.89-26.67-8.61C188.22,262.56,182.09,254.83,179.6,250.9Z"/><path class="cls-1" d="M223.26,283.58a47.39,47.39,0,0,1-7.93,9.11,29.23,29.23,0,0,1-10.55,6.08,24,24,0,0,1-8.92.91,31,31,0,0,1-14.29-6.07,29.28,29.28,0,0,1-5.5-5.51,24.55,24.55,0,0,1-3.66-6.89l-.29-.81c-.09-.28-.15-.56-.22-.85l-.41-1.68c-.2-1.14-.33-2.3-.44-3.44l0-1.73a12.46,12.46,0,0,1,.05-1.73l.17-1.71.08-.86.17-.83a40.41,40.41,0,0,1,6.87-16c1-1.5,1.28-1,.86.52a19.09,19.09,0,0,1-1.11,2.95,41.71,41.71,0,0,1-1.78,4,38.9,38.9,0,0,0-2.72,8,25.48,25.48,0,0,0-.55,8.34,21.62,21.62,0,0,0,2.28,8,24.87,24.87,0,0,0,5,6.81c.61.59,1.28,1.13,1.93,1.7s1.41,1,2.11,1.52a32.79,32.79,0,0,0,4.65,2.46,23.09,23.09,0,0,0,10.2,2,22.5,22.5,0,0,0,10.8-3.54,37.33,37.33,0,0,0,8.66-7.76c.94-1.18,1.9-2.34,2.73-3.6.43-.63.89-1.23,1.28-1.88l.93-1.5.18-.29s.1-.11.06-.14l-.17,0-.68-.08-1.26-.16-1.37-.2a68.25,68.25,0,0,1-10.91-2.54,43.09,43.09,0,0,1-10.16-4.72,92.19,92.19,0,0,1-13.06-11c-.88-.9-1.73-1.79-2.56-2.75-3.07-3.57-3.75-5-3.91-6.06a4.47,4.47,0,0,1-.08-.74c.1-.58,1.31.87,3.47,3.43A93.53,93.53,0,0,0,194,265.1c2,1.66,4.08,3.32,6.16,4.76a36.43,36.43,0,0,0,6.87,3.51,58.85,58.85,0,0,0,9.3,2.74c1.6.34,3.2.62,4.82.86l1.21.16,1.7.2a10.46,10.46,0,0,1,1.18.17,1.75,1.75,0,0,1,.33.63l0,.12,0,.06v0h0c.17-.08-.38.19.39-.18h0v0l0,.38,0,.75-1.57,2.55c-.34.59-.74,1.15-1.13,1.71Z"/><path class="cls-1" d="M205.5,273.45a56.79,56.79,0,0,1-8.52-5c-1-.7-2-1.41-2.87-2.19a90.77,90.77,0,0,1-8.79-9c-1.22-1.38-2.48-2.74-3.75-4-1.63-1.68-3.35-3.26-4.91-5-1-1.07,1.62-1.18,3.59.77,3.45,3.43,6.5,7.12,9.67,10.72a48,48,0,0,0,6.39,5.94,46.18,46.18,0,0,0,8.09,5.14c1.76.91,3.57,1.74,5.4,2.49a54.68,54.68,0,0,0,8.55,2.78,30.56,30.56,0,0,0,6.76.74c.49,0,1,0,1.47-.06,1.82-.09,2.36-.18,2.86.28a2,2,0,0,1,.34.28c.28.33-.44.82-1.89,1.12-4.33.7-8.86-.17-13.13-1.41a68,68,0,0,1-9.27-3.58Z"/></g></svg>