<svg id="Layer_1" data-name="Layer 1" xmlns="http://www.w3.org/2000/svg" width="520" height="520" viewBox="0 0 520 520"><defs><style>.cls-1{fill:#221f1f;}.cls-2{fill:#232020;}</style></defs><title>Notioly v2</title><g id="_78.Virtual_reality" data-name="78.Virtual reality"><path class="cls-1" d="M276.79,122.56c-12.47,9.13-24.56,18.49-36.52,28.26l-1.34-7.55L264.55,124Z"/><path class="cls-1" d="M244.68,140.61l-2.5,1.83-1.25.91-.54.39-.11.06c0,.07,0,0,0,.2l.16.95.3,1.89.16.95.06.39v.1l.06.45.29-.22,3.37-2.72c5.08-3.95,10.23-7.82,15.39-11.68,2.28-1.71,4.56-3.46,6.8-5.2,2.88-2.22,5.72-4.53,8.79-6.5,1.92-1.22.81,2.14-2.54,4.64-5.93,4.45-11.88,8.87-17.95,13.25-3.63,2.62-7.22,5.59-10.81,8.44l-4.77,3.81L238,142.91l2.77-2,7.49-5.52c3.77-2.8,7.58-5.58,11.28-8.41,1.44-1.1,2.85-2.22,4.25-3.34l.28-.22a1.93,1.93,0,0,1,.46-.16,4.34,4.34,0,0,1,.54-.09l.37-.05,1.4-.2a24.79,24.79,0,0,1,3.06-.28,5.61,5.61,0,0,1,1.56.17,11.21,11.21,0,0,1,1.34.48,4.16,4.16,0,0,0,1.64.27,5.31,5.31,0,0,0,1.09-.11c.57-.12.84-.29,1-.55s.18-.24.18-.36c0-.37-1.35-.6-3.8-.21a5.68,5.68,0,0,0-2.74,1.12c-.37.33-.61.66-.85.85a2.05,2.05,0,0,1-.8.42,17.63,17.63,0,0,1-2.07.41,9.74,9.74,0,0,1-1.1.14v-.12h0l-.43.34c-2.62,2.06-5.32,4.1-8,6.15-4,3-8.1,6-12.14,9.05Z"/><path class="cls-1" d="M296.38,125.48l-39.19,32.1H246.37a.22.22,0,0,1-.14-.39l24.64-18.28,17.91-16.74,5.84-.35Z"/><path class="cls-1" d="M259.62,148.92l-7.87,5.7-1.8,1.31-.42.27c-.07.05-.16.1-.23.16s.12.06.18.08l.53,0h6.78l18.8-15c2.88-2.31,5.74-4.68,8.55-7,3.62-3,7.17-6.13,11-8.93,2.36-1.75.79,2.2-3.4,5.66-7.41,6.12-14.9,12.13-22.58,18.05-1.88,1.44-3.76,2.95-5.65,4.48l-5.93,4.85h-3.6l-5.59,0h-1a2.6,2.6,0,0,1-.85-.09,4.48,4.48,0,0,1-.93-.41,1.51,1.51,0,0,1-.17-.1.62.62,0,0,1-.13-.32c0-.22.08-.25.14-.41a3.62,3.62,0,0,1,.64-.94c.43-.39,1-.78,1.54-1.17l1.42-1,2-1.44,3.95-2.88,9.73-7.09,5.78-4.23,8-7.48c1.66-1.56,3.27-3.13,4.88-4.7l5-4.93.68-.05,3.1-.26,1.3-.08,1.73-.09.48,1.07c.07.15.14.3.2.45l.11.27a7.68,7.68,0,0,1,.29.91,3,3,0,0,1,.1,1.3,2.92,2.92,0,0,1-.11.66c-.12.26-.43.08-.88-.47a11.45,11.45,0,0,1-.76-1.11l-.45-.74-.19-.26h0l-.22.05h-.16l-.36,0-1.44.14-1.47.14-.74.07h-.25l-.05,0,0,0v0h0l-.06.06-.43.42-.87.86-1.75,1.71-3.58,3.44-7.33,6.91L271.81,140,259.66,149Z"/><path class="cls-1" d="M298.92,133c-5.65,6.69-25.47,21.7-29.05,22.34l14-2.35,16.22-13.33Z"/><path class="cls-1" d="M281.28,154.8l-11.22,1.66-10.77,1.6,10.39-3.83.47-.15a7.22,7.22,0,0,0,.88-.4,10.26,10.26,0,0,0,.91-.5c.62-.35,1.22-.72,1.84-1.1,4.32-2.67,8.53-5.66,12.61-8.78,1.81-1.38,3.55-2.87,5.24-4.37,2.16-1.94,4.22-4,6.28-6,.65-.6,1-.18.88.75a6.42,6.42,0,0,1-2,3.57c-2.19,2.1-4.48,4-6.84,5.91s-4.79,3.66-7.3,5.35c-3,2-6,4.29-9.24,6.18-.51.28-1,.58-1.56.83-.27.13-.53.27-.83.39l-1,.31-.32-1.85,8.62-1.31,5.24-.79,1.38-1.11c2.93-2.36,5.9-4.72,8.77-7.11q1.66-1.41,3.27-2.83l1.61-1.43.74-.67c.09,0,0-.12,0-.19l0-.11s-.09,0-.14,0l-.14,0,0-.19-.07-.37a2.75,2.75,0,0,1,0-.7,5.65,5.65,0,0,1,.38-1.19,4.14,4.14,0,0,0,.21-1.17,3.72,3.72,0,0,0-.35-1.67c-.1-.21-.22-.46-.32-.62s-.29-.22-.27,0a2.82,2.82,0,0,0,.82,1.44,7.74,7.74,0,0,1,1.23,2.25c.14.4.25.8.35,1.18l.08.31.14.65.07.33,0,.17s0,.07,0,.1l-.07.42-.06.41a1.29,1.29,0,0,1-.05.21l-.17.15-.5.44-.75.66L298.2,143c-2,1.75-4.11,3.48-6.21,5.21l-7.49,6.08-3.21.52Z"/><path class="cls-1" d="M287.11,193.67a25.74,25.74,0,0,1-4.59,7.44,15,15,0,0,1-7.65,4.63,18.5,18.5,0,0,1-6.45.41,24.52,24.52,0,0,1-10.38-4,46.09,46.09,0,0,1-8.27-7.09c-2.2-2.32-4.26-4.78-6.23-7.25-1.25-1.6-2.49-3.21-3.68-4.84s-2.33-3.35-3.47-4.79a1.13,1.13,0,0,1-.28-.44.57.57,0,0,1,0-.34c.09-.22.52-.36,1.15-.15a9.86,9.86,0,0,1,4.27,3.59c4.78,6.63,9.62,13.17,15.93,18.18a21.26,21.26,0,0,0,13.33,4.84,13.05,13.05,0,0,0,2-.14,13.26,13.26,0,0,0,1.9-.35,12,12,0,0,0,3.48-1.61,14.53,14.53,0,0,0,2.91-2.59,21.64,21.64,0,0,0,2.28-3.29,38.2,38.2,0,0,0,3.63-9.36,82.72,82.72,0,0,0,2.3-15.26c.24-4,.17-7.9.05-11.85,0-.87-.06-1.72-.1-2.59-.09-3.25,0-4.29.65-5a3.43,3.43,0,0,1,.42-.48c.49-.32.94,1,1.14,3.39a113.81,113.81,0,0,1-.31,22.25,62.79,62.79,0,0,1-4,16.68Z"/><path class="cls-1" d="M215.07,165.77a13.4,13.4,0,0,1-1.38-4.63,24.37,24.37,0,0,1,0-4.6,16.5,16.5,0,0,1,.61-3.36,9.46,9.46,0,0,1,1.42-2.84,5.82,5.82,0,0,1,2.67-2,7.35,7.35,0,0,1,3.19-.39,10.7,10.7,0,0,1,2.95.71,20.1,20.1,0,0,1,4.55,2.51,12.06,12.06,0,0,1,4.38,5c.26.7-.38.8-1.16.6a5,5,0,0,1-2.43-1.41,18.53,18.53,0,0,0-4.51-3.66,14,14,0,0,0-2.6-1.16,8.11,8.11,0,0,0-2.65-.33,3.41,3.41,0,0,0-2.55,1.48,9,9,0,0,0-1.27,3.24,19.29,19.29,0,0,0-.38,4.11,12.19,12.19,0,0,0,.56,4,11.32,11.32,0,0,0,2.53,4.27,13.72,13.72,0,0,0,6.64,3.75,21.1,21.1,0,0,0,6,.42l1.32-.07c1.65-.15,2.18,0,2.61.59a3.41,3.41,0,0,1,.28.42c.21.49-.45.94-1.72,1.17a17.39,17.39,0,0,1-2.91.31,20.37,20.37,0,0,1-3-.05,11.45,11.45,0,0,1-1.53-.2c-.51-.1-1-.17-1.54-.29a19.76,19.76,0,0,1-3-1.05A14.34,14.34,0,0,1,215,165.8Z"/><path class="cls-1" d="M274.38,112.67a27.16,27.16,0,0,1,3.26,1.57,13,13,0,0,1,1.16.63,22.2,22.2,0,0,1,3.52,2.95c.49.46,1,.93,1.47,1.37.31.3.64.57.95.88a3.73,3.73,0,0,1,.72,1.07c.2.5-2,1.42-2.61.77l-3.2-3.52a10.22,10.22,0,0,0-2.4-1.7,21.61,21.61,0,0,0-2.92-1.48,18.15,18.15,0,0,0-1.91-.7,16.5,16.5,0,0,0-3-.64A13.62,13.62,0,0,0,267,114c-.18,0-.35.06-.52.06-.65,0-.85-.14-1-.78,0-.15-.08-.29-.1-.44a.92.92,0,0,1,.72-1,11.33,11.33,0,0,1,4.75-.07,22,22,0,0,1,3.54.93Z"/><path class="cls-1" d="M292.35,118.46c-9.12.69-20-5.25-33.35-6.19-27.83-2-24.65,27.73-24.74,28.4-8.09-1.72-24.21-5.26-29-9.81-11.22-46,35.85-41.73,39.33-32,.44-4.21,24.21-58.54,70.73-34.84C334.11,73.56,337.8,115.06,292.35,118.46Z"/><path class="cls-1" d="M264.73,71.17c-1.09.92-2.08,2-3.11,3s-2,2.08-2.89,3.19a70,70,0,0,0-5.22,6.89,79.38,79.38,0,0,0-4.43,7.42c-.67,1.28-1.29,2.58-1.87,3.88-.15.33-.27.66-.41,1s-.25.62-.36,1l-.3,1c-.42,1.27-.74,3.25-1,4.2l-.59-1.18-.7-1.33-.72-1.37-.17-.32-.18-.22a2.87,2.87,0,0,0-.37-.4l-.52-.47a3.34,3.34,0,0,0-.41-.3c-.29-.18-.54-.4-.86-.56a18.92,18.92,0,0,0-4-1.64,30.47,30.47,0,0,0-8.78-1.08c-6.25.17-12.6,2.27-16.9,6.71a19.36,19.36,0,0,0-4.35,6.81,28.24,28.24,0,0,0-1.74,8.07c-.1.69,0,1.4-.08,2.09s-.05,1.4,0,2.1c.12,1.4.11,2.81.36,4.21s.35,2.8.68,4.18l.42,2.07,0,.21.15.13a8.18,8.18,0,0,0,.75.59,34.18,34.18,0,0,0,7.55,3.54c2.67,1,5.42,1.76,8.18,2.5s5.56,1.41,8.36,2l1.58.36.48.11a2.41,2.41,0,0,0,0-.47v-1.61c0-.74,0-1.47.09-2.21a37,37,0,0,1,1.28-7.73,24.94,24.94,0,0,1,3.22-7.23,18.74,18.74,0,0,1,5.63-5.62,21.22,21.22,0,0,1,7.37-2.88,34,34,0,0,1,10-.3,71.54,71.54,0,0,1,9.77,1.7c3.2.76,6.35,1.69,9.47,2.53a52,52,0,0,0,9.4,1.87c1,.09,1.67.11,2.13.17s.66.16.64.28-.27.27-.73.43a8.66,8.66,0,0,1-2,.43,27.14,27.14,0,0,1-7.28-.33c-3-.47-6.36-1.31-9.95-2.24a85.42,85.42,0,0,0-9.58-2,38.23,38.23,0,0,0-9.53-.32,22.2,22.2,0,0,0-4.54,1,18.44,18.44,0,0,0-4.09,2,17.33,17.33,0,0,0-3.39,3,20,20,0,0,0-2.52,3.85,28.65,28.65,0,0,0-2.64,9.06,40.64,40.64,0,0,0-.35,4.81c0,.48.07,2.43,0,3.83l0,.54v.27c0,.06-.17,0-.24,0l-1.12-.2c-.75-.14-1.47-.25-2.25-.43l-2.53-.58-2.46-.59q-2.44-.6-4.89-1.26a100.23,100.23,0,0,1-9.69-3.13,38.28,38.28,0,0,1-5.66-2.68c-.45-.3-.91-.57-1.35-.92l-.74-.61-.49-.41a5,5,0,0,1-.14-.62l-.66-3.16a51.32,51.32,0,0,1-.89-12.53,27.63,27.63,0,0,1,3.57-12.26,9.29,9.29,0,0,1,.88-1.36c.32-.44.62-.9,1-1.32a22.88,22.88,0,0,1,7.62-5.93,30.35,30.35,0,0,1,15.46-2.73,29.3,29.3,0,0,1,7.76,1.6c.63.22,1.24.5,1.86.77a16.65,16.65,0,0,1,1.78,1c.28.21.58.38.85.61l.46.42a2,2,0,0,1,.43.62s.05.14.06.08l0-.14c0-.09.06-.18.08-.27s.14-.37.21-.55l.49-1.18.61-1.36c.85-1.8,1.78-3.56,2.75-5.29a81.76,81.76,0,0,1,6.64-9.86A64.63,64.63,0,0,1,267,66.2c1.17-.79,2.28-1.67,3.51-2.37.6-.37,1.2-.75,1.81-1.1l1.88-1,.94-.49,1-.42,2-.84,2-.69a18.2,18.2,0,0,1,2-.61,39.2,39.2,0,0,1,12.75-1.34,50.38,50.38,0,0,1,12.54,2.51,63.58,63.58,0,0,1,5.91,2.41,23.07,23.07,0,0,1,10.11,7.82,30.32,30.32,0,0,1,5,25,27.73,27.73,0,0,1-4,9,29.7,29.7,0,0,1-6.83,7.14,36,36,0,0,1-7.51,4.34,41.12,41.12,0,0,1-11,3,15.4,15.4,0,0,1-5.07,0,11.56,11.56,0,0,1-1.53-.28c-.52-.19.28-.5,2.15-.88l1.59-.29,1.95-.43c.71-.17,1.49-.29,2.3-.5l2.59-.68c.69-.15,1.34-.42,2-.63s1.34-.41,2-.68a41.35,41.35,0,0,0,3.85-1.71,34.73,34.73,0,0,0,3.65-2.09,32.94,32.94,0,0,0,3.32-2.56,26.86,26.86,0,0,0,5.37-6.41,25.94,25.94,0,0,0,3-7.82A28.2,28.2,0,0,0,324.65,77a24.52,24.52,0,0,0-4.52-7.17A20.17,20.17,0,0,0,317,67l-.85-.61-.91-.52a17.54,17.54,0,0,0-1.94-1l-3-1.39-3.07-1.15c-1-.43-2.09-.65-3.13-1l-1.58-.45-1.6-.32A39.72,39.72,0,0,0,288,60a38.37,38.37,0,0,0-12.4,3.79,48.81,48.81,0,0,0-10.79,7.44Z"/><path class="cls-1" d="M232.56,155.81c-2.52-4.11-15.89-11.28-18.09-1a142.33,142.33,0,0,1-5.79-13.17c6.21,4.33,16.26,7.4,23.47,9.11C232.36,153.05,232.63,155.61,232.56,155.81Z"/><path class="cls-1" d="M212,145.36l-.47-.38c-.07-.06-.05,0-.05,0l0,.09,0,.24,0,.14a1.64,1.64,0,0,0,.08.22l.05.15.13.33.3.75c.48,1.15,1,2.27,1.52,3.41l.23.53.1.26.15.39.15.39.09.21s0-.07.05-.11a2.85,2.85,0,0,1,.29-.58l.15-.19a.61.61,0,0,1,.09-.12l.2-.23a6.49,6.49,0,0,1,.89-.85,6.87,6.87,0,0,1,2.18-1.09,8.85,8.85,0,0,1,2.32-.27,16.51,16.51,0,0,1,6,1.48c2.36,1.08,4.74,2.37,6.32,4.71.46.81-.2.94-1,.8a7,7,0,0,1-3-1.23,19.27,19.27,0,0,0-6.24-3c-2.2-.57-4.4-.49-5.75,1-.78.71-1.5,3.58-2,5.53a10,10,0,0,1-1.09-2l-1.17-2.4-1-2.05L211,150l-.86-2-1-2.49c-.44-1.1-.84-2.18-1.23-3.22l-.57-1.56-.28-.78a3.38,3.38,0,0,1-.13-.37v-.19l2.23,1.5c.78.51,1.57,1.06,2.29,1.46l1.09.65c.19.1.36.21.55.3l.38.21c.93.49,1.88.95,2.84,1.38a71.79,71.79,0,0,0,9,3.33c1.18.34,2.37.63,3.56.89l4.29.89V150l.3,2.3c.23,2,.13,2.7-.5,3.19-.14.1-.28.27-.43.28s.13.06,0,0a.78.78,0,0,0-.24-.07c-.1,0-.08,0-.12,0a.77.77,0,0,1-.31-.33,5.26,5.26,0,0,1-.53-1.61c-.09-.48-.17-.95-.26-1.43,0-.1-.05-.28-.06-.32l0-.07,0-.1-.43,0-.25-.05-.32-.07-.66-.14c-.88-.19-1.77-.4-2.65-.63q-2.66-.7-5.3-1.6t-5-1.89c-.82-.36-1.63-.71-2.44-1.1l-1.2-.6-.6-.3,0,0Z"/><path class="cls-1" d="M257.28,125.36a91.63,91.63,0,0,0-12.74,2.23,20.31,20.31,0,0,0-2.91,1,4,4,0,0,0-1.94,1.39,7.8,7.8,0,0,0-.61,2.69,25,25,0,0,0-.08,3.14,60.38,60.38,0,0,0,1.15,9.32,50.51,50.51,0,0,0,2.12,8,18.82,18.82,0,0,0,.79,1.82,6.46,6.46,0,0,0,1,1.47c.45.52,2,.68,3.29.74a68.62,68.62,0,0,0,8.32-.32c2.79-.24,5.58-.58,8.37-1,4.94-.67,9.89-1.55,14.75-2.53,3.12-.63,6.23-1.34,9.32-2.08s6.23-1.47,9.11-2.44c.9-.34,1-.32,1.25-.16s.1.24,0,.5a3.06,3.06,0,0,1-.71.84,19.88,19.88,0,0,1-7.91,3.56c-6.39,1.54-12.82,2.76-19.31,3.79a162.34,162.34,0,0,1-19.69,2c-1,0-2,0-3,0a16.6,16.6,0,0,1-3.2-.34,3.62,3.62,0,0,1-.9-.27l-.48-.21c-.15-.09-.31-.21-.46-.32a5.87,5.87,0,0,1-1.19-1.43,17.66,17.66,0,0,1-1.41-2.91,57,57,0,0,1-2.93-12,54,54,0,0,1-.55-6.75,25.17,25.17,0,0,1,.18-3.45,13,13,0,0,1,.37-1.79,4.69,4.69,0,0,1,1-1.84,8.9,8.9,0,0,1,3.2-1.93,27.06,27.06,0,0,1,3.28-1c2.18-.57,4.38-1,6.58-1.33,5.42-.86,10.86-1.38,16.29-1.84,8.23-.69,16.52-1.08,24.68-1.58l2-.13a3.77,3.77,0,0,1,.75.11,3,3,0,0,1,1.15.88,3.32,3.32,0,0,1,.37.49,11.8,11.8,0,0,1,1.08,2,35,35,0,0,1,1.44,4.1,58.89,58.89,0,0,1,1.77,8.4c.2,1.39.37,2.76.45,4.19a19.26,19.26,0,0,1-.36,5.69,3.73,3.73,0,0,1-1.37,2.32,1.93,1.93,0,0,1-.77.39c-.17,0-.23-.1-.22-.3a1.83,1.83,0,0,1,.06-.35,3.8,3.8,0,0,1,.1-.51,23.76,23.76,0,0,0,.31-4,56.85,56.85,0,0,0-1.39-11.6,49.87,49.87,0,0,0-1.56-5.73,19.55,19.55,0,0,0-1.09-2.63,6.31,6.31,0,0,0-.64-1,.38.38,0,0,0-.13-.13h0l-10.49.64c-8.8.54-17.64,1.1-26.37,2.16Z"/><path class="cls-2" d="M241,151.51,239,141l-2.85-.58-2.22-.49c-1.48-.33-3-.68-4.43-1-2.94-.73-5.87-1.52-8.76-2.39s-5.76-1.85-8.52-3a38,38,0,0,1-4-1.95,16.35,16.35,0,0,1-1.79-1.19L206,130a1.54,1.54,0,0,1-.19-.17l-.29-.29c-.54-.58-1-1.25-1.52-1.85-.42.85-.91,1.68-1.28,2.57l-.17.46a1.85,1.85,0,0,0-.12.4,7.33,7.33,0,0,0-.19.81,6.91,6.91,0,0,0,.23,3.35,13,13,0,0,0,3.56,5.2c.74.71,1.48,1.37,2.28,2l1.27.91c.43.29.88.52,1.32.79a44.22,44.22,0,0,0,5.45,2.56,109.57,109.57,0,0,0,11.32,3.64c3.83,1,7.66,1.94,11.57,2.69,1.15.21,1.31-1.7.33-1.85-3.81-.73-7.64-1.64-11.41-2.65A111.66,111.66,0,0,1,217,145a42.76,42.76,0,0,1-5.21-2.45c-.4-.24-.83-.46-1.21-.72l-1.13-.81a27.55,27.55,0,0,1-2.15-1.88,11.19,11.19,0,0,1-3.07-4.41,5.06,5.06,0,0,1-.18-2.47,6.23,6.23,0,0,1,.15-.62,1.81,1.81,0,0,1,.09-.31l.06-.15,0-.08h0s0,0,0,0h0l.12.11a2.39,2.39,0,0,0,.23.22l.48.38a18.48,18.48,0,0,0,2,1.34,38.89,38.89,0,0,0,4.21,2.05,89.08,89.08,0,0,0,8.7,3.08c2.93.89,5.89,1.68,8.86,2.42,1.49.36,3,.71,4.47,1l3.87.83,1.79,9.25C239.29,152.71,241.15,152.35,241,151.51Z"/><path class="cls-1" d="M287.65,385.07c-2.47,1.11-3.61-2.24-5.34-3.36-3.73-2.41-7.17,3.58-11-3.49-4.45-20-9.88-102.53-12-148.1,0-.41,11.51,9.73,17.85,3.85a.31.31,0,0,1,.52.2c2.62,51,10.64,140.38,12,144.68C289.58,380.79,289.8,384.1,287.65,385.07Z"/><path class="cls-1" d="M277.25,253.84,276.64,243l-.27-5.41-.05-1.06v-.19c0-.05,0-.19-.08-.14a.91.91,0,0,1-.16.11l-.08,0-.24.1-.35.14a8.35,8.35,0,0,1-1.44.4,9.71,9.71,0,0,1-2.89.09,17.18,17.18,0,0,1-5.2-1.5,33,33,0,0,1-4.56-2.53l-.28-.19-.21-.15c-.21-.22-.14.08-.14.23l.41,9.08q.52,9.48,1,18.94c1.19,22.27,2.52,44.52,4.24,66.75.76,9.86,1.69,19.76,2.8,29.5.71,6.26,1.52,12.53,2.67,18.68l.22,1.15.11.57c0,.18,0,.2.1.3l.55.9c.22.27.43.56.66.82a3.76,3.76,0,0,0,1.5,1,4,4,0,0,0,1.88,0c.7-.12,1.47-.36,2.35-.48a5.36,5.36,0,0,1,2.83.3,5.18,5.18,0,0,1,1.24.78,8,8,0,0,1,.91,1,19.2,19.2,0,0,0,1.46,1.69,1.89,1.89,0,0,0,1.27.6c.32,0,.53,0,.55.15s-.11.36-.54.56a2.21,2.21,0,0,1-2.06-.27,19.25,19.25,0,0,1-2.37-1.94,3,3,0,0,0-2.73-.66c-.56.12-1.21.34-2,.58a6.88,6.88,0,0,1-3,.27,5.54,5.54,0,0,1-3-1.59,9.1,9.1,0,0,1-1.05-1.21,6.27,6.27,0,0,1-.42-.63l-.45-.73-.15-.25c0-.1,0-.21-.06-.29l-.08-.41-.11-.61-.23-1.21-.46-2.42-.72-4.81c-.43-3.21-.84-6.42-1.19-9.63q-1.08-9.65-1.88-19.29c-1.11-12.87-2-25.78-2.75-38.75-.9-15.52-2-31.65-2.87-47.53l-.56-11-.56-12.06.37-1.19.1-.3v0h0c.16.28,0,.07.08.13h0s0,0,.06,0l.1,0a.72.72,0,0,1,.47,0A3.6,3.6,0,0,1,261,230l.84.59.78.52a32.12,32.12,0,0,0,4.24,2.36,15.44,15.44,0,0,0,4.49,1.31,7.81,7.81,0,0,0,2.22-.07,5.91,5.91,0,0,0,1-.29l.25-.1.32-.15a5.56,5.56,0,0,0,.86-.57,3.74,3.74,0,0,1,1.42-.6.7.7,0,0,1,.66.22,3,3,0,0,1,.3.57,5.51,5.51,0,0,1,.24,1.84l.09,1.59.26,5.14q.88,16.1,2,32.19c1.13,16.24,2.35,32.55,3.75,48.65,1.1,12.52,2.36,24.77,3.69,37.11.31,2.72.61,5.38.92,8.12.29,2.53.53,4.62.73,6.38.11.87.18,1.7.28,2.36,0,.33.09.64.14.94l.09.69v.5c-.07,2.37-.53,4-1.47,4.88a2.22,2.22,0,0,1-1.37.71c-.26,0-.23-.15,0-.39a3.43,3.43,0,0,0,.72-1.41,11.32,11.32,0,0,0,.17-3.23q0-.25,0-.54a3.38,3.38,0,0,0,0-.46v0h0s0,0,0,.1v0l0-.15-.07-.32-.15-.65c-.2-.91-.29-1.73-.44-2.68-1.55-11.05-2.69-22.39-3.82-33.92S281.9,318,281,306.26c-1.4-17.41-2.67-34.91-3.76-52.4Z"/><path class="cls-1" d="M278.2,215.67l-.09,5.05c0,.61.06,1.22.05,1.83,0,2.17-.09,4.33-.08,6.5,0,1,.06,1.92.14,2.87a16.7,16.7,0,0,1,.15,3.67c-.1.77-2.21-.09-2.3-1.51a52.58,52.58,0,0,1,0-7.53c.11-1.52,0-3.09,0-4.63l0-5.1,0-3.14c0-1.58.06-3.17,0-4.75,0-1.22-.15-2.42-.22-3.64,0-.27,0-.53,0-.81,0-1,.18-1.32.75-1.5a3.45,3.45,0,0,1,.4-.11c.45-.06.79.36.87,1.08a51.55,51.55,0,0,1,.35,6.65c0,1.68,0,3.38,0,5.07Z"/><path class="cls-1" d="M260.25,213.85l0,5.25c0,.64.08,1.27.08,1.91q0,3.38,0,6.74c0,1,.08,2,.16,3a18,18,0,0,1,.16,3.81c-.11.8-2.22-.11-2.31-1.57a61.65,61.65,0,0,1,0-7.81c.1-1.57-.07-3.19-.1-4.79l-.07-5.29-.05-3.25c0-1.64,0-3.29-.13-4.92-.07-1.27-.26-2.5-.39-3.76,0-.28-.07-.55-.09-.83-.05-1,.11-1.39.68-1.6a2,2,0,0,1,.39-.13c.45-.07.79.33.93,1.06a49.67,49.67,0,0,1,.65,6.91c.07,1.75.1,3.52.15,5.28Z"/><path class="cls-1" d="M258.46,201.85l.23,6s7.34,11.21,17.53,7.84V204.58S263,206,258.46,201.85Z"/><path class="cls-1" d="M202.08,254.11l9.77-13.26c1.2-1.61,2.34-3.26,3.57-4.85,1.08-1.41,2.17-2.81,3.31-4.18a47.13,47.13,0,0,1,3.63-4,41.13,41.13,0,0,1,8.52-6.65,31.09,31.09,0,0,1,9-3.56A28.46,28.46,0,0,1,246,217a22.75,22.75,0,0,1,6.09,1c1.23.37.87.92-.29,1.27a13,13,0,0,1-2.24.37,9.26,9.26,0,0,1-1.41.05,11.69,11.69,0,0,1-1.56,0,25.37,25.37,0,0,0-11.21,1.92,36,36,0,0,0-9.87,6.33c-.92.77-1.77,1.64-2.62,2.51s-1.62,1.83-2.4,2.8c-1.56,1.95-3.06,4-4.56,6-3.3,4.42-6.55,8.89-9.82,13.36l-6.06,8.23c-3.07,4.14-6.22,8.26-9.39,12.29-2.47,3.14-4.85,6.25-7.56,9.19-.6.65-1.19,1.28-1.84,1.9a12.4,12.4,0,0,1-2.86,2.15,3.5,3.5,0,0,1-.93.33,1.94,1.94,0,0,1-.77,0,2.24,2.24,0,0,1-.6-.18c-.45-.36.5-1.13,2.15-2.64a81.24,81.24,0,0,0,7.07-7.8c2.29-2.81,4.56-5.71,6.81-8.65,3.33-4.37,6.63-8.82,9.88-13.3Z"/><path class="cls-1" d="M149.88,299.68a94.2,94.2,0,0,0,.66,15.59,38.75,38.75,0,0,0,1.64,7.46,9.17,9.17,0,0,0,4.18,5.35,8.38,8.38,0,0,0,4.94.62,21.32,21.32,0,0,0,5.21-1.52,50.39,50.39,0,0,0,8.67-4.85c2.78-1.87,5.45-3.94,8.07-6.07,5.22-4.29,10.17-8.93,15-13.7,4.27-4.24,8.4-8.67,12.41-13.11,5.17-5.69,10-11.65,15.5-17.16.86-.86,1.4-1.1,1.53-.9s-.09.83-.56,1.76a43.81,43.81,0,0,1-5.92,8.36c-10.42,11.77-21.12,23.41-33.27,33.76-3.64,3.08-7.43,6.15-11.49,9a59.07,59.07,0,0,1-6.35,3.87,28.11,28.11,0,0,1-7.06,2.7,14.29,14.29,0,0,1-4.3.32,9.5,9.5,0,0,1-4.23-1.42,10.57,10.57,0,0,1-3.08-3.17,17.65,17.65,0,0,1-1.75-3.87,67.34,67.34,0,0,1-2.17-16.07,153.19,153.19,0,0,1,.91-19.76c1-9.91,2.77-19.77,4.55-29.47.69-3.77,1.36-7.51,2-11.23s1.31-7.44,1.75-11.15c.1-.81.17-1.61.2-2.4a11.29,11.29,0,0,0,0-1.16,3.87,3.87,0,0,0-.12-.95c0-.11,0-.08-.12-.24l-.26-.39c-.19-.24-.38-.48-.58-.7-.4-.44-.81-.83-1.19-1.2a17.21,17.21,0,0,1-1.91-2,4,4,0,0,1-1-3.11,2.67,2.67,0,0,1,.28-1c.1-.16.23-.11.37.08a2.84,2.84,0,0,1,.21.4c.09.16.19.36.3.57a7.2,7.2,0,0,0,1.12,1.49c.53.57,1.26,1.17,2.14,1.93a15.34,15.34,0,0,1,1.94,1.93,5.26,5.26,0,0,1,.45.58l.22.32c.08.16.17.34.24.51a5.86,5.86,0,0,1,.28,1.65,34.83,34.83,0,0,1-.37,5.39c-.46,3.49-1.09,6.94-1.72,10.42-1.27,6.95-2.63,14-3.8,21a235.09,235.09,0,0,0-3.51,31.57Z"/><path class="cls-1" d="M178.83,225.83A116.78,116.78,0,0,0,175.91,242l-.55,6c-.27,3.54-.55,7.1-.74,10.65s-.35,7.13-.38,10.7c0,3.16,0,6.35,0,9.49.16,4,.44,8.08.29,12.13-.09,2.52-2.49-.59-2.64-5.26l-.17-6.22c0-2.07,0-4.14,0-6.22s.05-4.15.12-6.23.24-4.17.35-6.25c.07-1.25.14-2.51.2-3.78s.16-2.55.23-3.83c.14-2.56.25-5.14.54-7.69l.41-4.2c.16-1.4.39-2.8.57-4.19.34-2.8.94-5.57,1.45-8.35.42-1.69.81-3.39,1.28-5.07s1-3.36,1.69-5a23.05,23.05,0,0,1,4-7,13,13,0,0,1,1.56-1.4,8,8,0,0,1,.85-.58,6.43,6.43,0,0,1,1-.51c1.28-.52,2.52-.85,3.62-1.36.84-.39,1.59-.94,1.68-1.53s-.37-1.27-1-1.74a4.83,4.83,0,0,0-4.76-.44c-.34.18-.7.32-1,.52l-1,.65c-2.35,1.89-2.95,2.75-3.92,2.85a3.07,3.07,0,0,1-.64.09c-.3,0-.32-.36-.07-1a8.76,8.76,0,0,1,.56-1.07,11.74,11.74,0,0,1,1.06-1.31,11.47,11.47,0,0,1,5-3.3,6.83,6.83,0,0,1,6.58,1.36,5.38,5.38,0,0,1,1.19,1.58,4.73,4.73,0,0,1,.35,1.12,3.81,3.81,0,0,1-.1,1.35,3.9,3.9,0,0,1-1.29,1.92,7.32,7.32,0,0,1-1.53,1,26.81,26.81,0,0,1-2.8,1.08c-.42.15-.84.3-1.16.45a2.86,2.86,0,0,0-.43.23l-.53.35c-1.88,1.31-3.25,3.63-4.37,6a51,51,0,0,0-2.6,7.71Z"/><path class="cls-1" d="M158.71,216.09a13.2,13.2,0,0,0-.28-3.7c-.1-.47-.28-.91-.4-1.37a17.47,17.47,0,0,0-1.83-4.64l-.14-.23-.12-.14a1.49,1.49,0,0,0-.33-.27,3.32,3.32,0,0,0-.87-.41c-.8-.26-1.82-.27-2.43-.43a1.46,1.46,0,0,1-.28-1.27,1.66,1.66,0,0,1,1.64-1.18,6.92,6.92,0,0,1,3.58,1.46c.15.14.29.27.43.42a4,4,0,0,1,.35.47c.16.25.3.51.43.76a11.63,11.63,0,0,1,.64,1.56c.42,1.25,1,2.45,1.35,3.73a19.44,19.44,0,0,1,.65,4.33,6.93,6.93,0,0,1-.46,2.93,2.41,2.41,0,0,1-.88,1.06,2,2,0,0,1-1.32.29,3,3,0,0,1-1.28-.46,6.53,6.53,0,0,1-.87-.75,12.49,12.49,0,0,1-1.91-2.64c-.1-.22-.23-.42-.31-.65-.31-.86-.17-1.27.44-1.51a2.45,2.45,0,0,1,.43-.15,1.11,1.11,0,0,1,1.16.56c.38.66.81,1.35,1.25,2a6.41,6.41,0,0,0,.67.82c.2.21.51.43.42.37l0,0s0,.08.08-.2a3.9,3.9,0,0,0,.1-.75Z"/><path class="cls-1" d="M165.34,215.11a17.86,17.86,0,0,0-.69-4.53c-.14-.56-.38-1.09-.56-1.64a25,25,0,0,0-2.47-5.57,4,4,0,0,0-.76-1,4.45,4.45,0,0,0-1-.63,10.85,10.85,0,0,0-2.86-.65,1.12,1.12,0,0,1-.31-1.26,1.86,1.86,0,0,1,2-1.16,7.34,7.34,0,0,1,4,2.12,8.55,8.55,0,0,1,1.21,1.79,18,18,0,0,1,.82,1.79c.56,1.45,1.29,2.86,1.78,4.35a25.3,25.3,0,0,1,1.1,5.07,15,15,0,0,1,.06,1.65c0,.28,0,.57-.08.86s-.05.3-.08.45-.1.36-.16.53a1.9,1.9,0,0,1-1.87,1.4,8,8,0,0,1-.8-.06,5.29,5.29,0,0,1-2.45-1.09,8.07,8.07,0,0,1-2.35-3.23,7.81,7.81,0,0,1-.29-.81c-.27-1-.1-1.43.51-1.69a2.23,2.23,0,0,1,.43-.16c.49-.12.91.23,1.15.82.71,1.8,1.66,3.4,2.92,3.71l.52.12s0,.12.08-.25a7.46,7.46,0,0,0,.05-1Z"/><path class="cls-1" d="M171.22,212a22.59,22.59,0,0,0-.81-5.06c-.17-.62-.42-1.21-.62-1.81A25.2,25.2,0,0,0,167,199a4.35,4.35,0,0,0-2.05-1.68,10.86,10.86,0,0,0-3.25-.66,1,1,0,0,1-.32-1.27,2,2,0,0,1,2.13-1.17,8.41,8.41,0,0,1,4.41,2.11,7,7,0,0,1,.86,1c.19.31.39.61.57.93a18.45,18.45,0,0,1,1,1.95c.65,1.58,1.46,3.14,2,4.78a28.44,28.44,0,0,1,1.22,5.56,15.09,15.09,0,0,1,.11,1.79,7.76,7.76,0,0,1-.2,1.91,2.54,2.54,0,0,1-.93,1.55c-.51.37-1.17.19-1.76.19a4.89,4.89,0,0,1-2.67-1.31,8.31,8.31,0,0,1-2.05-3.86,9,9,0,0,1-.21-.9c-.16-1.12,0-1.47.62-1.74a3.25,3.25,0,0,1,.43-.18c.49-.13.92.29,1.12,1a17.72,17.72,0,0,0,1,3,4.28,4.28,0,0,0,.71,1,2.6,2.6,0,0,0,.88.52l.42.1h.1c0-.15,0-.31.06-.5a7.38,7.38,0,0,0,0-1.16Z"/><path class="cls-1" d="M181,192.46a17.37,17.37,0,0,0-3.68-4c-.53-.43-1.11-.77-1.66-1.15a10.42,10.42,0,0,0-3-1.48,2,2,0,0,0-1.22,0c-.08.06-.11,0-.25.15l-.35.28c-.23.19-.46.38-.69.59a12.3,12.3,0,0,0-2,2.45c-.74,1.15-1.21,2.4-1.82,3.56-.19.36-.78.19-1.25-.35a2.24,2.24,0,0,1-.37-2.36,15.77,15.77,0,0,1,2.73-4,16.61,16.61,0,0,1,1.76-1.6,7.74,7.74,0,0,1,1.2-.81,3.52,3.52,0,0,1,1.66-.3,8.76,8.76,0,0,1,3.08.85,15.24,15.24,0,0,1,2.54,1.42,23.15,23.15,0,0,1,4.55,4.24,10.6,10.6,0,0,1,1.12,1.65,5.5,5.5,0,0,1,.42,1,1.9,1.9,0,0,1-.22,1.56,1.77,1.77,0,0,1-1.07.63,4.46,4.46,0,0,1-.84.06,10.41,10.41,0,0,1-1.48-.09,18,18,0,0,1-2.85-.61,13.63,13.63,0,0,1-4.15-1.9,7.68,7.68,0,0,1-.82-.69c-.93-1-.91-1.66-.43-2.11a2,2,0,0,1,.35-.31.78.78,0,0,1,.7,0,1.32,1.32,0,0,1,.34.2,2,2,0,0,1,.37.29,12.4,12.4,0,0,0,6,2.7,11.2,11.2,0,0,0,1.27.14,4.3,4.3,0,0,0,.62,0h.3c.07,0,.05,0,.06,0h0l0,.12a3.77,3.77,0,0,1,.11.37.92.92,0,0,0,.16.27c0,.05.17.15,0,.07h-.07l-.08,0a.83.83,0,0,0-.31,0s-.35,0-.4,0h0a2.89,2.89,0,0,0-.43-.85Z"/><path class="cls-1" d="M169.85,193.15l.59-.8c.07-.1.07-.22.14-.31.25-.33.54-.64.75-1a1,1,0,0,0,.11-.5c0-.22-.12-.45.16-.61s2.45.41,2.41.77a2.19,2.19,0,0,1-.83,1.48c-.29.23-.3.56-.46.83s-.37.57-.56.84-.23.34-.33.51a3.12,3.12,0,0,0-.39.8,2.14,2.14,0,0,0,.09.7.94.94,0,0,1,0,.16c0,.17-.17.18-.8.07l-.44-.08a1.47,1.47,0,0,1-1-.46,1.77,1.77,0,0,1,0-1.52,7.93,7.93,0,0,1,.47-.92Z"/><path class="cls-1" d="M327.19,258.12c-2.39-4.7-4.78-9.39-7.35-14-.94-1.67-2-3.28-2.95-4.91a70.39,70.39,0,0,0-5.71-8.19,23.86,23.86,0,0,0-3.45-3.44,14,14,0,0,0-2-1.31c-.74-.34-1.46-.72-2.24-1a34,34,0,0,0-8.58-1.92c-1.89-.22-3.8-.34-5.73-.54a16.62,16.62,0,0,1-5.87-1.44c-1.23-.85-.49-1.13.56-1.18a21.67,21.67,0,0,1,4.94-.08,86.27,86.27,0,0,1,11.79,1.73,27.14,27.14,0,0,1,5.82,2.13,18.14,18.14,0,0,1,5,3.93,78,78,0,0,1,8.61,11.94c2.73,4.6,5.21,9.32,7.65,14l4.5,8.73c2.28,4.38,4.58,8.79,7.11,13a64.69,64.69,0,0,0,6.55,9.09c.52.62,1.09,1.16,1.65,1.74,1.05,1,1.77,1.67,2.24,2.15a3.27,3.27,0,0,1,.84,1.27,4.12,4.12,0,0,1,.18.61c0,.3-.28.38-.9.24a6.64,6.64,0,0,1-2.48-1.28,36.14,36.14,0,0,1-7.12-8c-2-2.94-3.87-6-5.64-9.18-2.6-4.66-5-9.42-7.49-14.14Z"/><path class="cls-1" d="M377.83,286c-3.24,8.21-6.72,16.4-11.49,24a45.71,45.71,0,0,1-6,7.83,26.92,26.92,0,0,1-3.42,2.85,18,18,0,0,1-4,2.07,13.09,13.09,0,0,1-4.57.67,13.51,13.51,0,0,1-2.29-.27c-.72-.19-1.44-.34-2.14-.57a28.23,28.23,0,0,1-7.81-4,44.8,44.8,0,0,1-6.43-5.78,109.12,109.12,0,0,1-9.32-11.95l-5.44-7.91a77,77,0,0,0-5.7-7.5c-1.31-1.36-.77-1.7.9-.95a18.61,18.61,0,0,1,6.3,6c3.78,5.42,7.17,10.94,11.1,16a62,62,0,0,0,6.35,7.15,41.73,41.73,0,0,0,3.62,3.05,29.52,29.52,0,0,0,4,2.46,20.79,20.79,0,0,0,5.32,1.82,10.62,10.62,0,0,0,5.38-.42c3.5-1.26,6.42-4.07,8.87-7.09a66.63,66.63,0,0,0,7-11c2-3.9,3.83-7.92,5.52-12,2.08-5,4-10.11,5.8-15.24,2.75-7.77,5.36-15.63,8-23.41,2-6,3.92-12,6.4-17.88.55-1.28,1.09-2.55,1.75-3.82,2.45-4.7,4.23-5.89,5.52-6.06a2.77,2.77,0,0,1,.86,0c.33.12.05.46-.49,1.11a25.23,25.23,0,0,0-2.3,3.28,56,56,0,0,0-3.58,7.52c-1.06,2.63-2.05,5.35-3,8.09-1.93,5.5-3.78,11.14-5.66,16.79-2.79,8.4-5.65,16.84-8.84,25.17Z"/><path class="cls-1" d="M403.6,194.73c-6.24,5.79-11.53,12.69-16.42,19.79-1.78,2.6-3.45,5.29-5.13,7.95-5.95,9.42-11.42,19.15-16.73,29-2.36,4.37-4.64,8.8-6.92,13.17-1.47,2.8-2.93,5.62-4.5,8.4-.79,1.38-1.61,2.76-2.51,4.1a18.24,18.24,0,0,1-3.19,3.83,3.91,3.91,0,0,1-.65.42,2.21,2.21,0,0,1-.61.16c-.39,0-.53-.1-.51-.21s.19-.29.37-.48l.25-.37.28-.49c.76-1.44,1.9-4.19,3.71-7.3,3.19-5.52,6.17-11.26,9.24-16.94s6.19-11.39,9.48-17c3.93-6.74,7.89-13.84,12.23-20.56a153.33,153.33,0,0,1,15.92-21.08,54.51,54.51,0,0,1,12.63-10.42,27.3,27.3,0,0,1,5.81-2.41,57,57,0,0,1,6-1.39,49,49,0,0,1,6.16-.69,24.49,24.49,0,0,1,6.26.39,9.14,9.14,0,0,1,1.25.36,7.37,7.37,0,0,1,1.38.66c.83.58,1.84,1.24,1.52,2.27a3.61,3.61,0,0,1-2.47,1.6c-.57.16-.93.25-1.32.34L434,188c-3.08.63-6.12,1.15-9.09,1.89-1.31.32-2.57.7-3.84,1.12a28.29,28.29,0,0,0-4.72,2,13.1,13.1,0,0,1-2.1,1c-.27.08-.58.25-.79.29s-.34-.41.22-1.3a9.41,9.41,0,0,1,3.54-2.92c5.28-2.67,11.18-3.41,16.74-4.56l1-.22.46-.12s0,0,0-.05a.07.07,0,0,0-.05,0h0l-.2-.07a7.63,7.63,0,0,0-.78-.22,26.4,26.4,0,0,0-8.21-.18,54.2,54.2,0,0,0-6.28,1.07,36.66,36.66,0,0,0-6,1.86,38.27,38.27,0,0,0-10.33,7.15Z"/><path class="cls-1" d="M414.78,218.09a12.31,12.31,0,0,0,3.41.42,8,8,0,0,0,3.21-.63l.25-.13a.46.46,0,0,0,.12-.12c.1-.07.05-.21,0-.3a6.13,6.13,0,0,0-1.2-1.19c-.59-.5-1.23-1-1.88-1.45a43.59,43.59,0,0,0-4.11-2.58,17.85,17.85,0,0,0-1.92-.93,7,7,0,0,0-1.9-.54c-.84-.12-1.75-.08-2.75-.17a5.61,5.61,0,0,1-3-1c-.55-.44,0-.85.64-1.13a4.92,4.92,0,0,1,2.34-.49c.79.1,1.78.11,2.85.27a10.24,10.24,0,0,1,3.14,1,33,33,0,0,1,5.06,3.1c.95.7,1.94,1.38,2.92,2.15.24.19.49.39.73.6l.36.32c.13.12.2.2.41.41a2.6,2.6,0,0,1,.9,2.49,2.94,2.94,0,0,1-.95,1.14,3.9,3.9,0,0,1-.63.46l-.55.28a9,9,0,0,1-2.09.61,13.77,13.77,0,0,1-4.15.07,15.3,15.3,0,0,1-4.82-1.46,10.2,10.2,0,0,1-1.29-.73c-.21-.14-.43-.26-.62-.41l-.49-.39a.54.54,0,0,0-.57-.11c-.24,0-.66.14-1,.22-.73.17-1.47.34-2.22.46a13.34,13.34,0,0,1-5.89-.13,10.11,10.11,0,0,1-1.27-.45c-1.51-.76-1.8-1.32-1.65-2a2.93,2.93,0,0,1,.12-.47c.23-.47.93-.36,1.81,0,2.68,1.23,5.6,1.06,8.87.18a10,10,0,0,1,1.24-.26,2.53,2.53,0,0,1,.91,0,3.15,3.15,0,0,1,.81.38l.72.55a5,5,0,0,0,.54.35,8.85,8.85,0,0,0,1.13.63,11.51,11.51,0,0,0,2.45.87Z"/><path class="cls-1" d="M422.94,214.73a3.39,3.39,0,0,0,.34.31s0,0,0,0,0,.11,0,.05,0-.06,0,0,.33-.06.65-.35a9.74,9.74,0,0,0,1.85-2.39c.4-.69.71-1.44,1.05-2.17a31.3,31.3,0,0,0,1.59-4,8.54,8.54,0,0,0,.24-1,1.17,1.17,0,0,0,0-.36.91.91,0,0,0,0-.36,3.68,3.68,0,0,0-.86-1.57,16.13,16.13,0,0,0-2.84-2.52,13.7,13.7,0,0,1-3.86-3.54c-.31-.51.28-.77,1-.82a3.27,3.27,0,0,1,2.3.63c1.21,1.05,2.61,2.07,3.94,3.34a10.41,10.41,0,0,1,1.9,2.28,5.32,5.32,0,0,1,.65,1.61,4,4,0,0,1,0,1.84c-.3,1.15-.65,2.15-1,3.2a27.15,27.15,0,0,1-1.26,3,19.06,19.06,0,0,1-1.9,3.16,8,8,0,0,1-1.36,1.45,3.06,3.06,0,0,1-2.3.79,2.79,2.79,0,0,1-1.4-.68,3.58,3.58,0,0,1-.89-1.07,4,4,0,0,1-.34-2.64,10.79,10.79,0,0,1,1.34-3.24l.84-1.42.41-.69.15-.26.1-.2a1,1,0,0,0,.11-.43c0-.16-.22-.2-.33-.28l-.21-.09-.26-.13-.77-.42a9.69,9.69,0,0,1-1.52-1,5.29,5.29,0,0,1-.91-.92,2.74,2.74,0,0,1-.67-1.69.91.91,0,0,1,.51-.85,1.7,1.7,0,0,1,.42-.22c.51-.1.87.38,1.25.92a5.69,5.69,0,0,0,1.51,1.33c.31.21.65.41,1,.61l.57.31c.37.21.75.45,1.12.68l.32.3.23.33a1.77,1.77,0,0,1,.23.8,3.43,3.43,0,0,1-.45,1.72c-.35.7-.45.82-.63,1.15l-.5.84a14.37,14.37,0,0,0-1.36,2.77,3.13,3.13,0,0,0-.18,1.11,1,1,0,0,0,.27.66Z"/><path class="cls-1" d="M429.12,218.27s0,0,.1-.08l.24-.36c.15-.26.31-.53.45-.82a16.47,16.47,0,0,0,.79-1.81c.18-.46.28-.95.44-1.42.28-.82.55-1.67.8-2.52a8,8,0,0,0,.37-2.37,2.17,2.17,0,0,0-.67-1.6,4.25,4.25,0,0,0-2.11-.48c-.26,0-.41-.63-.24-1.28a1.57,1.57,0,0,1,1.67-1.22,4.12,4.12,0,0,1,3.52,3,6.66,6.66,0,0,1-.18,3.82c-.43,1.31-.65,2.56-1.06,3.84a21.14,21.14,0,0,1-1.78,4.08,6.24,6.24,0,0,1-1.1,1.38,2.14,2.14,0,0,1-1.66.59,2.49,2.49,0,0,1-1.87-1.82,6.52,6.52,0,0,1-.17-2.34,22.58,22.58,0,0,1,.37-3.19c.05-.23.09-.46.16-.69.27-.85.58-1.06,1.23-.94a3.13,3.13,0,0,1,.44.1,1,1,0,0,1,.61,1.18c-.12.84-.24,1.67-.35,2.51-.05.41-.1.82-.12,1.21a6.62,6.62,0,0,0,0,1c0,.15,0,.07,0,.1s0,0,0,0a0,0,0,0,0,.07,0Z"/><path class="cls-1" d="M384.84,249c-.8-.14-1.58-.32-2.36-.5s-1.56-.41-2.31-.72a17.33,17.33,0,0,1-1.68-.55,22.61,22.61,0,0,1-5.18-3.37c-.66-.62-1.43-1.12-2.07-1.75a12.07,12.07,0,0,1-1.31-1.16,4.77,4.77,0,0,1-.93-1.47c-.14-.35.63-.82,1.51-1.12s1.84-.45,2.19,0c1.32,1.44,2.65,2.79,4.16,4.22a7.44,7.44,0,0,0,1.57,1c.59.23,1.17.48,1.76.7s1.3.51,2,.68l1,.29,1.05.22a20.67,20.67,0,0,0,2.62.38,18.91,18.91,0,0,0,4.05,0,7.14,7.14,0,0,0,1.52-.35c.5-.14,1-.32,1.48-.5.22-.07.42-.17.64-.23.81-.24,1.12-.07,1.52.8a6,6,0,0,1,.26.58,1.32,1.32,0,0,1-.57,1.69,13.87,13.87,0,0,1-6.1,1.53,28.06,28.06,0,0,1-4.84-.21Z"/><path class="cls-1" d="M170.23,264.45a30.67,30.67,0,0,1-4.84,1.85c-.6.17-1.17.43-1.78.56a30.47,30.47,0,0,1-6.52.63c-1,0-1.94,0-2.94,0a10.39,10.39,0,0,1-2-.18,3.59,3.59,0,0,1-2-1.11c-.38-.45.42-.95,1.14-1.5s1.26-1.22,1.68-1.11a17.67,17.67,0,0,0,2.86.39c1,.08,2.16.14,3.31.2a13.74,13.74,0,0,0,4.08-.76,29.07,29.07,0,0,0,4.35-1.51,19.34,19.34,0,0,0,2.51-1.32,14.43,14.43,0,0,0,3.3-2.71,11,11,0,0,0,1.55-2.82c.08-.22.12-.45.22-.66.34-.78.62-.94,1.57-.76a6.06,6.06,0,0,1,.64.12,1.28,1.28,0,0,1,1,1.56,11.41,11.41,0,0,1-3.69,6.13,21.28,21.28,0,0,1-4.41,3.07Z"/><path class="cls-1" d="M230.44,338.26l-1.05-15.14c-.13-1.84-.32-3.68-.43-5.52q-.57-9.75-.85-19.52c-.07-2.89-.19-5.8-.23-8.68,0-1.84,0-3.71,0-5.57a19,19,0,0,1,1-5.67c.57-1.24,1-.64,1.24.41a15.57,15.57,0,0,1,.45,4.77c-.24,3.63-.2,7.36-.16,11.09s.13,7.5.19,11.27c.08,4.52.53,9.21.84,13.82l1.08,15.23c.24,3.13.49,6.26.73,9.38.38,4.73.73,9.48,1.16,14.18.37,3.65.74,7.23,1.11,10.83.07.8.17,1.58.22,2.39.18,3,0,4-.66,4.63a2.79,2.79,0,0,1-.45.41c-.51.25-.85-.93-1.06-3.07-.68-6.38-1.37-13.17-1.95-20-.42-5.07-.84-10.16-1.27-15.24Z"/><path class="cls-1" d="M314,348.27l-1.67-15.77c-.2-1.92-.47-3.83-.66-5.74-.66-6.77-1.27-13.54-1.78-20.33-.25-3-.49-6-.74-9-.13-1.93-.29-3.86-.34-5.8a24.06,24.06,0,0,1,.42-5.94c.39-1.34.9-.82,1.28.23a14.73,14.73,0,0,1,.93,5c.06,3.84.33,7.74.58,11.64s.51,7.82.78,11.77c.29,4.71.95,9.59,1.46,14.4l1.71,15.87,1.08,9.77c.56,4.93,1.12,9.89,1.67,14.78.45,3.8,1,7.52,1.46,11.3.09.83.2,1.64.27,2.49.24,3.14.06,4.21-.66,4.88a2.62,2.62,0,0,1-.47.39c-.52.16-.74-1-1-3.19-.82-6.7-1.68-13.73-2.54-20.8l-1.83-15.88Z"/><path class="cls-1" d="M252.14,269.82a6.62,6.62,0,0,0-.9-2.66c-.55-.88-1.27-1.87-1.92-2.8-1.33-1.89-2.68-3.8-4-5.75-.94-1.43-1.92-2.84-2.78-4.34a35.56,35.56,0,0,1-2-4.15,13,13,0,0,1-.71-2.34,7.21,7.21,0,0,1-.12-1.35,4.94,4.94,0,0,1,.09-.75A2.64,2.64,0,0,1,240,245a10.74,10.74,0,0,1,.59-1.09c.19-.35.4-.65.6-1l1.21-1.89,2.47-3.74c1.47-2.2,2.89-4.45,4.26-6.68,1.74-2.87,3.43-5.82,5.22-8.58.54-.86,1-.5,1.16.58a7.83,7.83,0,0,1-1.22,4.52c-3.57,5.94-7.53,11.6-11.37,17.28-.28.42-.54.86-.76,1.25a1.49,1.49,0,0,0-.26,1,7.8,7.8,0,0,0,.7,2.66,40.6,40.6,0,0,0,3,5.44c1.22,2,2.52,3.87,3.85,5.78l2,2.85,1,1.44c.34.48.67,1,1,1.55a9.5,9.5,0,0,1,1.09,4.57,18.25,18.25,0,0,1-.62,4.46c-.54,2.17-1.32,4.23-2,6.28a23.4,23.4,0,0,0-.82,3.05,5.18,5.18,0,0,0,.09,2.81,2.89,2.89,0,0,0,.22.43c.09.14.24.3.35.45.24.32.52.61.78.9a19.71,19.71,0,0,0,1.79,1.61c1.25,1,2.62,2,3.91,3.15a13.6,13.6,0,0,1,1.62,1.68,6.77,6.77,0,0,1,1.45,2.84,1.78,1.78,0,0,1-.22,1.5,2.27,2.27,0,0,1-.33.47c-.22.17-.49,0-.77-.4-.14-.2-.28-.46-.48-.75s-.37-.63-.61-1c-1.39-2.22-3.87-3.76-6.33-5.83a22.52,22.52,0,0,1-1.82-1.72,11.53,11.53,0,0,1-.84-1l-.41-.53a5,5,0,0,1-.43-.78,6.31,6.31,0,0,1-.44-3.09,15.5,15.5,0,0,1,.46-2.59c.64-2.4,1.49-4.56,2.12-6.73a16,16,0,0,0,.84-6.26Z"/><path class="cls-1" d="M289,270.65c-.47-.8-.93-1.62-1.37-2.48a13.81,13.81,0,0,1-.62-1.39,4.73,4.73,0,0,1-.37-1.79,6.53,6.53,0,0,1,.87-3.28,18.26,18.26,0,0,1,1.66-2.44c.84-1.08,1.63-2.12,2.26-3.12a3.72,3.72,0,0,0,.75-2.5A4.58,4.58,0,0,0,292,253c-.08-.25-.18-.51-.29-.78-.2-.53-.43-1.06-.65-1.59-.93-2.12-1.94-4.24-3-6.33-.93-1.86-1.95-3.68-3-5.46-1.35-2.27-2.81-4.51-4-6.79-.38-.71.17-1,1.06-.75a5.33,5.33,0,0,1,2.92,2.39,113.92,113.92,0,0,1,7.48,14.64c.33.77.65,1.54,1,2.32a18.3,18.3,0,0,1,.94,2.6,5.48,5.48,0,0,1-.43,3.12,13.86,13.86,0,0,1-1.43,2.35,32.24,32.24,0,0,0-3.1,4.32,3.64,3.64,0,0,0-.47,2.12,7.43,7.43,0,0,0,.88,2.23c1,1.94,2.25,3.87,3.41,5.82a50.5,50.5,0,0,1,2.52,4.58,12.32,12.32,0,0,1,.93,2.58,4.79,4.79,0,0,1-.42,2.92,17.26,17.26,0,0,1-2.23,3.5c-.83,1.05-1.7,2.05-2.57,3l-1.12,1.28c-1.41,1.58-1.84,1.95-2.61,2a5.17,5.17,0,0,1-.54,0c-.55,0-.44-1.15.56-2.51,1.45-2,3.13-3.7,4.57-5.51a13.28,13.28,0,0,0,1.77-2.7l.14-.32.08-.3a2.32,2.32,0,0,0,.1-.53c0-.17,0-.3-.06-.5s-.12-.44-.22-.69a32.18,32.18,0,0,0-2.37-4.62L289,270.68Z"/><path class="cls-1" d="M477,207.62a91.88,91.88,0,0,0,2.05-25.25,73.91,73.91,0,0,0-1.17-9.17,42.83,42.83,0,0,0-5.45-15.09,19.8,19.8,0,0,0-5.35-5.73,15.06,15.06,0,0,0-7.27-2.65,10.9,10.9,0,0,0-3.39.16,8.39,8.39,0,0,0-3,1.39,14.78,14.78,0,0,0-4.29,5.36,35.81,35.81,0,0,0-2.9,8.65,66.86,66.86,0,0,0-1.31,9.11c-.12,1.9-.74,1.68-1.31,0a18.16,18.16,0,0,1-.2-8.53,40.35,40.35,0,0,1,3-9.5,22.17,22.17,0,0,1,2.73-4.38,13.55,13.55,0,0,1,4.12-3.48,10.73,10.73,0,0,1,5.39-1.24,17.7,17.7,0,0,1,5.14.87,18.44,18.44,0,0,1,8.41,5.85A35,35,0,0,1,478,164.61a58.81,58.81,0,0,1,2.8,11.74,91.91,91.91,0,0,1-.43,26.19,78.22,78.22,0,0,1-4,15.63,40.73,40.73,0,0,1-5.9,10.8,19.76,19.76,0,0,1-4.58,4.26,11.18,11.18,0,0,1-6,2,10.32,10.32,0,0,1-4.8-1.24,15.33,15.33,0,0,1-3.86-2.95,25.66,25.66,0,0,1-5.11-8,27.29,27.29,0,0,1-1.35-4,16.85,16.85,0,0,1-.54-5.6A4.34,4.34,0,0,1,445,211a3.86,3.86,0,0,1,.59-.61c.65-.29.23,1.64.76,5.12a27.35,27.35,0,0,0,2.33,7.58,23.39,23.39,0,0,0,4.48,6.57,9.75,9.75,0,0,0,6.49,3.2,10,10,0,0,0,6.67-3,30,30,0,0,0,6.76-10.17,64.29,64.29,0,0,0,3.83-12.1Z"/><path class="cls-1" d="M461.47,195.87a32.82,32.82,0,0,0,.89-9.07,27.63,27.63,0,0,0-.41-3.29,15.58,15.58,0,0,0-1.8-5.36,5.53,5.53,0,0,0-4.15-2.9,2.53,2.53,0,0,0-2,.45,4.78,4.78,0,0,0-1.4,1.81,23.77,23.77,0,0,0-1.51,6.31c-.1.67-.71.61-1.3,0a4,4,0,0,1-.81-3.34,14.91,14.91,0,0,1,1.19-3.76,7,7,0,0,1,3-3.33,5,5,0,0,1,1.21-.44,6.75,6.75,0,0,1,1.25-.11l1.09.12c.36.08.72.19,1.07.29a7.51,7.51,0,0,1,3.42,2.53,18.32,18.32,0,0,1,3.29,8.68,34.56,34.56,0,0,1-.28,9.85,30.17,30.17,0,0,1-1.59,5.87,15.63,15.63,0,0,1-2.28,4.1,8.26,8.26,0,0,1-1.82,1.66,4.71,4.71,0,0,1-2.47.8,5.19,5.19,0,0,1-3.57-1.64,10,10,0,0,1-2.11-3.08,10.28,10.28,0,0,1-.58-1.55,4.71,4.71,0,0,1-.13-2.24,1.18,1.18,0,0,1,.73-.92,1.58,1.58,0,0,1,.47-.17c.26,0,.45.19.58.49.06.14.12.33.19.55s.12.48.18.76a9.7,9.7,0,0,0,2.49,4.6c1.28,1.13,2.16,1.13,3.47,0a10.19,10.19,0,0,0,2.25-3.39,22.7,22.7,0,0,0,1.39-4.27Z"/><path class="cls-1" d="M457.59,191.11a3.36,3.36,0,0,1-2.48,3.11c-3.38.8-4.07-5.35-1.74-7.22,2.08-1.67,4.18,1.47,4.22,4Z"/><path class="cls-2" d="M213.86,389.9H192.59v18.52c0,.43,2.65.43,2.63,0V392.53h18.64C214.2,392.54,214.2,389.89,213.86,389.9Z"/><path class="cls-2" d="M236.16,392.53H254.8v15.89c0,.43,2.65.43,2.63,0V389.9H236.16C235.82,389.89,235.82,392.54,236.16,392.53Z"/><path class="cls-2" d="M212.66,455.06H194V439.17c0-.43-2.65-.43-2.63,0v18.52h21.27C213,457.7,213,455.05,212.66,455.06Z"/><path class="cls-2" d="M236,457.69h21.27V439.17c0-.43-2.65-.43-2.63,0v15.89H236C235.62,455.05,235.62,457.7,236,457.69Z"/><path class="cls-2" d="M225.7,406.18V385.39a5.14,5.14,0,0,0-2.64,0v20.79A6.18,6.18,0,0,0,225.7,406.18Z"/><path class="cls-2" d="M225.7,461.81V441a4.93,4.93,0,0,0-2.64,0v20.78A6.18,6.18,0,0,0,225.7,461.81Z"/><path class="cls-2" d="M187.51,425.11h19.8a5.1,5.1,0,0,0,0-2.63h-19.8A6.47,6.47,0,0,0,187.51,425.11Z"/><path class="cls-2" d="M241.92,425.11h20.79a4.89,4.89,0,0,0,0-2.63H241.92A6.47,6.47,0,0,0,241.92,425.11Z"/><path class="cls-1" d="M232.85,423.81c-.2,6.78-9.41,9.95-13.49,4.46a7.67,7.67,0,0,1,1.81-10.63C225.91,414.42,233,417.94,232.85,423.81Z"/><path class="cls-1" d="M40.76,300.65c0-2.63,0-5.26,0-7.88,0-1-.1-1.91-.11-2.87,0-3.37,0-6.75-.17-10.12,0-1.5-.19-3-.34-4.47a37.7,37.7,0,0,1-.47-5.71c0-1.2,2.49.07,2.72,2.28a92.61,92.61,0,0,1,.45,11.79c-.06,2.37.16,4.82.21,7.23.05,2.66.06,5.31.07,8v4.89c0,2.47,0,5,0,7.41.06,1.9.25,3.77.38,5.65,0,.42.08.82.1,1.24.06,1.55-.1,2-.74,2.38a3,3,0,0,1-.43.23c-.5.15-.91-.47-1.07-1.61a89,89,0,0,1-.65-10.46c0-2.64-.05-5.3-.07-8Z"/><path class="cls-1" d="M87.69,321.64c-3.49-.14-7-.28-10.46-.36l-3.82,0c-4.48-.12-9-.24-13.45-.23-2,0-4,.09-6,.19a74.36,74.36,0,0,1-7.61.31c-1.58-.08.28-2.5,3.23-2.67a148.5,148.5,0,0,1,15.65-.05c3.13.16,6.39.05,9.6.1,3.52.07,7,.18,10.56.29l6.5.22c3.28.1,6.57.25,9.83.29,2.53,0,5-.08,7.51-.14.55,0,1.09,0,1.65,0,2,0,2.71.18,3.13.83a2.39,2.39,0,0,1,.29.44c.19.5-.66.89-2.17,1-4.48.34-9.2.29-13.93.19l-10.56-.29Z"/><path class="cls-1" d="M84.84,269.5c-3.57-.22-7.15-.43-10.73-.59-1.31-.06-2.61,0-3.92-.1-4.6-.21-9.2-.41-13.8-.47-2,0-4.09.05-6.12.12-2.6.13-5.19.4-7.8.27-1.63-.08.3-2.49,3.33-2.66a144,144,0,0,1,16.09.14c3.21.21,6.57.16,9.86.28,3.61.13,7.23.32,10.84.51l6.67.37c3.36.17,6.74.39,10.08.49,2.6.09,5.15,0,7.72,0,.56,0,1.12,0,1.69,0,2.11,0,2.78.22,3.21.88a2.76,2.76,0,0,1,.28.45c.19.5-.69.88-2.24,1-4.61.26-9.46.11-14.32-.09l-10.83-.52Z"/><path class="cls-1" d="M115.36,290.82c-.09,2.36-.18,4.73-.23,7.1,0,.86,0,1.73,0,2.59-.08,3.05-.17,6.1-.19,9.15,0,1.35,0,2.71.13,4a29.85,29.85,0,0,1,.15,5.18c-.13,1.08-2.49-.2-2.59-2.19a89.85,89.85,0,0,1,.1-10.63c.15-2.13,0-4.35,0-6.53,0-2.39.09-4.79.16-7.18l.15-4.43c.06-2.23.19-4.47.21-6.68,0-1.73-.08-3.42-.11-5.13,0-.38,0-.74,0-1.12,0-1.41.22-1.85.87-2.11a4.22,4.22,0,0,1,.45-.18c.5-.1.88.49,1,1.52a86.53,86.53,0,0,1,.16,9.43c-.06,2.38-.13,4.77-.19,7.15Z"/><polygon class="cls-1" points="56.59 313.8 55.33 289.16 59.22 289.16 60.22 313.8 56.59 313.8"/><polygon class="cls-1" points="70.35 313.58 70.08 288.95 73.98 288.95 73.98 313.58 70.35 313.58"/><polygon class="cls-1" points="84.35 313.58 84.09 290.95 87.98 290.95 87.98 313.58 84.35 313.58"/><polygon class="cls-1" points="62.89 313.8 62.63 297.16 66.52 297.16 66.52 313.8 62.89 313.8"/><polygon class="cls-1" points="77.1 313.8 76.84 297.16 80.73 297.16 80.73 313.8 77.1 313.8"/><polygon class="cls-1" points="91.05 313.8 90.78 298.16 94.68 298.16 94.68 313.8 91.05 313.8"/><polygon class="cls-1" points="97.33 313.8 97.06 303.16 99.96 303.16 99.96 313.8 97.33 313.8"/><path class="cls-2" d="M77.16,343v-9.33a11.65,11.65,0,0,0-2.64,0V343A12.94,12.94,0,0,0,77.16,343Z"/><path class="cls-2" d="M458.11,263.79v-9.33a10.52,10.52,0,0,0-2.63,0v9.33A14.44,14.44,0,0,0,458.11,263.79Z"/><path class="cls-2" d="M458.11,288.37V279a10.52,10.52,0,0,0-2.63,0v9.33A14.44,14.44,0,0,0,458.11,288.37Z"/><path class="cls-2" d="M458.23,312.34V303a10.6,10.6,0,0,0-2.64,0v9.33A14.55,14.55,0,0,0,458.23,312.34Z"/><path class="cls-2" d="M384.85,343.68v-9.33a10.6,10.6,0,0,0-2.64,0v9.33A12.94,12.94,0,0,0,384.85,343.68Z"/><path class="cls-2" d="M384.85,366v-9.33a10.6,10.6,0,0,0-2.64,0V366A14.55,14.55,0,0,0,384.85,366Z"/><path class="cls-2" d="M384.85,388.71v-9.33a10.6,10.6,0,0,0-2.64,0v9.33A12.94,12.94,0,0,0,384.85,388.71Z"/><path class="cls-2" d="M77.16,363.31V354a10.6,10.6,0,0,0-2.64,0v9.33A14.55,14.55,0,0,0,77.16,363.31Z"/><path class="cls-2" d="M77.16,383.29V374a10.6,10.6,0,0,0-2.64,0v9.33A14.55,14.55,0,0,0,77.16,383.29Z"/><path class="cls-2" d="M155.75,411v-9.33a11.65,11.65,0,0,0-2.64,0V411A12.94,12.94,0,0,0,155.75,411Z"/><path class="cls-2" d="M81.31,392.81l9.33,0a11.1,11.1,0,0,0,0-2.64l-9.33,0A13.59,13.59,0,0,0,81.31,392.81Z"/><path class="cls-2" d="M158.57,421.76l9.33,0a10.6,10.6,0,0,0,0-2.64l-9.33,0A14.44,14.44,0,0,0,158.57,421.76Z"/><path class="cls-2" d="M101.68,392.83l9.33,0a10.6,10.6,0,0,0,0-2.64l-9.33,0A14.55,14.55,0,0,0,101.68,392.83Z"/><path class="cls-2" d="M436.65,324.31l9.33,0a10.6,10.6,0,0,0,0-2.64l-9.33,0A14.44,14.44,0,0,0,436.65,324.31Z"/><path class="cls-2" d="M414.18,324.33l9.33,0a10.52,10.52,0,0,0,0-2.63l-9.33,0A14.55,14.55,0,0,0,414.18,324.33Z"/><path class="cls-2" d="M391.87,324.3l9.33,0a10.52,10.52,0,0,0,0-2.63l-9.33,0A14.44,14.44,0,0,0,391.87,324.3Z"/><path class="cls-2" d="M361.49,397.23l9.33,0a11.1,11.1,0,0,0,0-2.64l-9.33,0A13.59,13.59,0,0,0,361.49,397.23Z"/><path class="cls-2" d="M121.21,392.84l9.33,0a10.52,10.52,0,0,0,0-2.63l-9.33,0A13.59,13.59,0,0,0,121.21,392.84Z"/><path class="cls-2" d="M140.63,392.85l9.33,0a10.6,10.6,0,0,0,0-2.64l-9.33,0A13.59,13.59,0,0,0,140.63,392.85Z"/><path class="cls-1" d="M39.6,300.77l.06-6.68v-2.43c0-2.85.06-5.7,0-8.55,0-1.27-.11-2.54-.23-3.79-.13-1.6-.36-3.21-.37-4.82,0-1,1.39.13,1.57,2a85,85,0,0,1,.33,10c0,2,0,4.07,0,6.11l0,6.72c0,1.37,0,2.75,0,4.12,0,2.09.1,4.18.27,6.24.12,1.6.36,3.16.57,4.73.05.35.1.69.16,1,.17,1.3.12,1.72-.2,2a1.14,1.14,0,0,1-.22.22c-.26.16-.54-.35-.73-1.3a61.25,61.25,0,0,1-1-8.84c-.13-2.25-.16-4.51-.2-6.76Z"/><path class="cls-1" d="M85.75,322.17l-9.4-.47-3.42-.11c-4-.17-8.05-.29-12.07-.27l-2.68.05-2.66.16c-2.26.16-4.52.46-6.78.62-1.41.1.18-1.42,2.84-1.73a98.73,98.73,0,0,1,14.08-.32c2.81.12,5.74.11,8.62.22l9.47.43,5.82.28c2.94.13,5.9.26,8.82.31,2.27,0,4.49,0,6.73-.1l1.47-.05c1.84-.06,2.43,0,2.84.37a2.18,2.18,0,0,1,.27.24c.18.27-.57.51-1.92.62a121.21,121.21,0,0,1-12.54.15c-3.16-.08-6.33-.23-9.49-.37Z"/><path class="cls-1" d="M271.08,178.08s7.79-1.9,9.21,1.47c1.1,2.59-2.71,6-3.09,6S273.92,186.64,271.08,178.08Z"/><path class="cls-1" d="M279.9,180.86a17.66,17.66,0,0,1,0,2.31,5.19,5.19,0,0,1-.7,2.53,2.92,2.92,0,0,1-1.23,1,2.51,2.51,0,0,1-.77.23,2.71,2.71,0,0,1-.74.05,3.16,3.16,0,0,1-.7-.05c-.21,0-.45-.06-.65-.12a6.81,6.81,0,0,1-1.25-.42,7.61,7.61,0,0,1-3.59-3.79,21.09,21.09,0,0,1-1.56-4.52c-.33-1.76,3-2.22,3.25-.63a19,19,0,0,0,.95,4,5.57,5.57,0,0,0,2,2.83,5,5,0,0,0,.8.4,3.59,3.59,0,0,0,.43.14,1.62,1.62,0,0,0,.4.09,1.19,1.19,0,0,0,1.16-.29,3.59,3.59,0,0,0,.66-1.65,17.6,17.6,0,0,0,.24-2.12C278.73,180.45,279.82,180.44,279.9,180.86Z"/><path class="cls-1" d="M279.73,163.4h.61a.19.19,0,0,0,.19-.11.39.39,0,0,0,0-.14c0-.06,0-.2-.05-.33a3,3,0,0,0-.2-.45,4.94,4.94,0,0,1-.3-.49,14.61,14.61,0,0,0-3.26-3.38,11.5,11.5,0,0,0-1.86-1.15,13.11,13.11,0,0,1-2.43-1.3c-.22-.18,0-.75.5-1.21a1.66,1.66,0,0,1,1.72-.5,16.36,16.36,0,0,1,5,3.68,19.11,19.11,0,0,1,2.61,3,2.73,2.73,0,0,1,.29.62,3.3,3.3,0,0,1,.23.67c0,.25.09.51.11.8l-.1.88a2.23,2.23,0,0,1-.74,1.14,3,3,0,0,1-1.24.54,8.29,8.29,0,0,1-2.77-.14c-1.27-.23-2.48-.61-3.68-.9a27.56,27.56,0,0,0-2.8-.44c-.2,0-.4,0-.59-.06-.72-.11-.8-.26-.93-.91,0-.14-.09-.29-.12-.43-.18-.49.35-.95,1-1a19.77,19.77,0,0,1,5.27.83,18.63,18.63,0,0,0,3.52.65Z"/><path class="cls-1" d="M249.7,281.89c1-3,2.17-6,2.18-9a8.09,8.09,0,0,0-.62-3.1,7.59,7.59,0,0,0-.66-1.22l-.86-1.27L248,264.74c-1.19-1.7-2.36-3.41-3.49-5.15-1-1.54-2-3.09-2.95-4.68a29,29,0,0,1-1.64-3.19,9.29,9.29,0,0,1-.57-1.76,4.74,4.74,0,0,1-.09-2c.25-.91.58-.5.86.1a20,20,0,0,1,1.28,2.59,41,41,0,0,0,3.24,6.12c1.23,2,2.54,4,3.85,6,.79,1.21,1.65,2.39,2.51,3.59.44.62.87,1.16,1.3,1.89a8,8,0,0,1,.89,2.24,12.57,12.57,0,0,1,0,5.11,34.06,34.06,0,0,1-1.3,4.76c-.63,1.9-1.35,3.76-1.8,5.64-.31,1.4-.51,2.93.18,4a16,16,0,0,0,3,3.18,40.75,40.75,0,0,1,5.26,4.65,9.65,9.65,0,0,1,.95,1.3c1,1.79.9,2.55.61,3a1.65,1.65,0,0,1-.23.32c-.14.11-.32,0-.52-.29a5.66,5.66,0,0,1-.29-.56,7.59,7.59,0,0,1-.39-.76,10.63,10.63,0,0,0-1.64-2.34,21.91,21.91,0,0,0-2.22-2.05,38.76,38.76,0,0,1-5-4.45c-.29-.32-.54-.68-.8-1a4.36,4.36,0,0,1-.66-1.46,7.19,7.19,0,0,1-.05-2.84,32,32,0,0,1,1.35-4.86Z"/></g></svg>