<svg id="Layer_1" data-name="Layer 1" xmlns="http://www.w3.org/2000/svg" width="520" height="520" viewBox="0 0 520 520"><defs><style>.cls-1{fill:#221f1f;}.cls-2{fill:none;stroke:#000;stroke-miterlimit:10;stroke-width:1.37px;}</style></defs><title>Notioly v2</title><g id="_8.Raining" data-name="8.Raining"><path class="cls-1" d="M153,119.34c21.46-9.78,45-21,68.88-23.14,6.56-.59,13.41-.32,18.44,4.38,1.47,1.37,5.2-.83,3.33-2.58-5.57-5.21-13.5-5.74-20.77-5.16-24.86,2-49.53,13.65-71.84,23.81-2.7,1.23-.31,3.72,2,2.69Z"/><path class="cls-1" d="M332.93,218.42c-1.54-5,1.63-7.33,4.38-10.87,4.27-5.49,12.21-42.17-24.65-40.71-3.12.12-7.23,2.52-9.63.54C299,164,290.55,158.17,280.6,162c-23.18,9-10.05,27.24-20.67,35.24-15.62,11.75-16,28.41-9.76,30.33,12.67,3.88,39.74-.05,55.4,17.1,6.81,7.46,23.46,13.34,30.22,2.22C344.06,233.27,334.25,222.72,332.93,218.42Zm-26.13-4.09c-2.45,3.94-12.86,13.45-23.22,10.74a11.88,11.88,0,0,1-6.21-4.27c-6-8.94,3-35.22,16.29-43,7.6-4.43,14.5,3.19,14.15,7.81-.22,3-1.79,5.45-1.89,8-.24,6.55,7.77,4.78,9.17,3.28,5.85,4.19.55,8.47-1.2,8.93a5.42,5.42,0,0,1,4,5.68C317.8,214.22,313.79,220.38,306.8,214.33Z"/><path class="cls-1" d="M253.35,229.54a28.76,28.76,0,0,1-3-.7,6.09,6.09,0,0,1-1.65-.67,5.83,5.83,0,0,1-1.41-1.2,10.23,10.23,0,0,1-2-6.25,24.6,24.6,0,0,1,3.15-11.91,36,36,0,0,1,7.52-9.56c.74-.7,1.52-1.34,2.31-2l1.18-.92a10.69,10.69,0,0,0,1-.9,9.67,9.67,0,0,0,1.61-2.15,13.33,13.33,0,0,0,1-2.55,48.61,48.61,0,0,0,1.2-8.38,32.49,32.49,0,0,1,1.84-8.71,18.7,18.7,0,0,1,4.44-6.62,25.55,25.55,0,0,1,6.51-4.44,33.51,33.51,0,0,1,3.6-1.53,19.08,19.08,0,0,1,11.77-.43,26.38,26.38,0,0,1,7.14,3.25c1.09.71,2.15,1.47,3.16,2.28l.75.61a3.11,3.11,0,0,0,.63.38,3.83,3.83,0,0,0,1.55.25c2.3-.06,4.74-1.31,7.49-1.29,1.29,0,2.58-.06,3.87.06l1.94.12c.64.07,1.28.17,1.92.26a25.55,25.55,0,0,1,12.72,5.2,21.59,21.59,0,0,1,7.21,11.64,37.16,37.16,0,0,1-.07,17.48,29.22,29.22,0,0,1-1.31,4.24,15.9,15.9,0,0,1-1,2,8.59,8.59,0,0,1-.67,1l-.7.85a40.81,40.81,0,0,0-2.66,3.29,6.62,6.62,0,0,0-1.25,3.64c0,1.62.27,2.38,0,2.39s-.74-.73-1-2.31a6.52,6.52,0,0,1,.23-2.93,11.88,11.88,0,0,1,1.78-3.33c.4-.55.81-1.09,1.24-1.65q.3-.42.63-.84l.31-.43.24-.39a20.61,20.61,0,0,0,1.62-4.1,36.78,36.78,0,0,0,1-16.83,19.92,19.92,0,0,0-8.67-13.61,23.57,23.57,0,0,0-7.76-3.1,36.76,36.76,0,0,0-8.53-.85H312.7l-.47,0a16.05,16.05,0,0,0-2,.39,21.4,21.4,0,0,1-4.6.84,5,5,0,0,1-2.67-.66c-.2-.13-.42-.28-.59-.41l-.42-.35c-.27-.23-.56-.45-.84-.67a35.59,35.59,0,0,0-3.56-2.44,21.08,21.08,0,0,0-9.71-3,18.34,18.34,0,0,0-5.1.59,29.89,29.89,0,0,0-4.89,2,21,21,0,0,0-8.07,6.54,21.34,21.34,0,0,0-3.4,9.81c-.26,1.94-.41,3.92-.64,5.93a24.86,24.86,0,0,1-1.31,6,11.7,11.7,0,0,1-3.7,5.14,48.89,48.89,0,0,0-4.47,3.83,33.06,33.06,0,0,0-6.81,9.43,20.61,20.61,0,0,0-2.18,11.18c.32,2.25,1.38,4.55,3.61,5a46.7,46.7,0,0,0,7.13,1.32c4.84.6,9.75.94,14.63,1.57,7.39.93,14.86,2.45,21.66,5.74a39.1,39.1,0,0,1,9.35,6.28c.71.62,1.36,1.3,2,2a24.77,24.77,0,0,0,1.94,1.9A26.38,26.38,0,0,0,312,249a28.09,28.09,0,0,0,7.8,3,17.9,17.9,0,0,0,8.14,0,11.45,11.45,0,0,0,6.51-4.4,28.67,28.67,0,0,0,2-3.56l.73-1.91a16.4,16.4,0,0,0,.55-2,19,19,0,0,0,.26-7.09,32.47,32.47,0,0,0-3.11-9.06,19.85,19.85,0,0,1-1.63-4.13,5.49,5.49,0,0,1-.2-1.35c0-.24.12-.19.32.08s.21.33.36.57.35.55.57.9a47.55,47.55,0,0,1,3.79,6.87,23.83,23.83,0,0,1,1.93,7.69,21.32,21.32,0,0,1-1,8l-.73,1.91c-.25.64-.61,1.22-.91,1.83a14.55,14.55,0,0,1-2.35,3.47,13.44,13.44,0,0,1-7.43,4.11,20.59,20.59,0,0,1-8.39-.25,29.89,29.89,0,0,1-7.77-3,27,27,0,0,1-6.67-5.08,35.9,35.9,0,0,0-5.83-5.12c-6.32-4.45-14-6.74-21.74-8-3.89-.66-7.83-1.07-11.81-1.46s-8-.71-12-1.46Z"/><path class="cls-1" d="M304.26,180.37a8.51,8.51,0,0,0-4.54-2.62,7.69,7.69,0,0,0-5.11.79,27.19,27.19,0,0,0-8.52,7.71,47.84,47.84,0,0,0-4.48,7.34A51.22,51.22,0,0,0,276.73,208a28.17,28.17,0,0,0-.36,7.49c.3,2.45,1,4.89,2.88,6.45,3.21,3.09,8.07,3.51,12.27,2.39,5.45-1.52,10.28-5.12,14-9.32,1-1.34,1.37-1,.82.6a15.29,15.29,0,0,1-5.13,6.11,27.24,27.24,0,0,1-8.3,4.27,17.8,17.8,0,0,1-9.5.35,12.65,12.65,0,0,1-4.41-2.18,12,12,0,0,1-1.83-1.68,7.92,7.92,0,0,1-.79-1c-.2-.38-.43-.74-.61-1.12a18.73,18.73,0,0,1-1.19-9.38A48,48,0,0,1,277,200a54.51,54.51,0,0,1,4.62-10.24,39.93,39.93,0,0,1,7.67-9.67,20.94,20.94,0,0,1,5.21-3.52,9.23,9.23,0,0,1,6.42-.43,11.22,11.22,0,0,1,6.15,4.79,9,9,0,0,1,1.39,3.74c0,.35,0,.71,0,1s-.07.66-.13,1a16.29,16.29,0,0,1-.46,1.89,40.48,40.48,0,0,0-1.24,4.18,4.68,4.68,0,0,0,.72,3.74,3.15,3.15,0,0,0,1.58,1,5.84,5.84,0,0,0,2,.22,8.8,8.8,0,0,0,2-.35,8.9,8.9,0,0,0,1-.36,6.36,6.36,0,0,0,1.18-.82c.43.31.86.69,1.29,1s.62.63.9,1a4.51,4.51,0,0,1-.2,6c-.19.23-.4.45-.61.67l-.34.3a1.22,1.22,0,0,1-.18.16,2.69,2.69,0,0,1-.72.43h0l.08,0,.17.05a3.09,3.09,0,0,1,.32.14,3.2,3.2,0,0,1,.77.53,6,6,0,0,1,1.66,2.43,6.16,6.16,0,0,1-.64,5.68,6.46,6.46,0,0,1-3.23,2.76,9.88,9.88,0,0,1-1,.26l-.91.09a6.46,6.46,0,0,1-1.54-.2,7.45,7.45,0,0,1-2.07-.86,9.67,9.67,0,0,1-1.11-.89,4.19,4.19,0,0,1-.55-.82,5,5,0,0,1-.32-.68c0-.28.36-.19,1.1.21a12.09,12.09,0,0,0,3.33,1.34,4,4,0,0,0,3.29-.68,5.57,5.57,0,0,0,2-2.89l.1-.41,0-.37a8.85,8.85,0,0,0,0-.89,4.87,4.87,0,0,0-.55-1.65,3.94,3.94,0,0,0-1.12-1.25,8,8,0,0,0-2.31-1l-2.62-.84,1.85-.68,1-.36a4.54,4.54,0,0,0,.87-.37l.66-.38.33-.2a1,1,0,0,0,.18-.17,4.17,4.17,0,0,0,.43-.41,3.92,3.92,0,0,0,1-1.87,2.47,2.47,0,0,0-.42-1.84,5.07,5.07,0,0,0-.74-.89l-.1-.11,0,0-.05,0-.08-.07h0l-.12.07-.07,0-.21.09-.43.19a11,11,0,0,1-1.73.5,9,9,0,0,1-3.51,0,5.15,5.15,0,0,1-3.32-2.05c-1.54-2.38-1-5-.36-7,.33-1,.67-1.94.91-2.85a10.84,10.84,0,0,0,.29-1.35,5,5,0,0,0,.08-.66V185a8,8,0,0,0-2.32-4.58Z"/><path class="cls-1" d="M202,179.26s0,0,0,0,0,0-.09,0l-.51-.2c-.35-.12-.7-.22-1.05-.31s-.52,0-.77-.09a4.86,4.86,0,0,0-1.07,0,.77.77,0,0,0-.49.12.34.34,0,0,0-.07.22c0,.22.22.38.41.45.39.17,1,.22,1.42.46.32.15-.31,1.66-1.13,1.46a5.36,5.36,0,0,1-.82-.29l-.22-.11a3.31,3.31,0,0,1-.29-.18,3.13,3.13,0,0,1-.54-.42,2,2,0,0,1-.41-2.26c.09-.17.26-.25.39-.37a1.26,1.26,0,0,1,.5-.27,3.34,3.34,0,0,1,.88-.25,4.36,4.36,0,0,1,.66-.08,6.18,6.18,0,0,1,1.22,0,11.18,11.18,0,0,1,2.46.68,3.37,3.37,0,0,1,1.66,1.06,1.13,1.13,0,0,1,0,1.3,2.24,2.24,0,0,1-1.19.68c-.18.06-.39.09-.58.15l-.53.1c-.3.06-.6.11-.9.14-.13,0-.26,0-.4,0-.5,0-.65-.14-.69-.57,0-.1,0-.2,0-.3a.65.65,0,0,1,.54-.65c.48-.1,1-.17,1.42-.25l.15,0h0v0h0s.08,0,0-.05Z"/><path class="cls-2" d="M198.33,177.43c-.05-.11-.09-.22-.13-.32"/><path class="cls-1" d="M307.9,398c-29.6,15.12-81.76-14.46-81.76-14.46,5.6-18.83,12.3-37.5,18.59-56.07,2.47-7.27,5.16-16.18,7.17-24.28,4.9,9.25,6.78,17.53,47.33,11.32C300.84,350.53,307.9,398,307.9,398Z"/><path class="cls-1" d="M263.6,316.33a22.14,22.14,0,0,1-2.2-.78c-.7-.36-1.43-.65-2.1-1.06s-1.35-.85-1.95-1.37a14.83,14.83,0,0,1-1.7-1.66l-.77-.91c-.25-.3-.44-.64-.67-.95a22.52,22.52,0,0,1-1.21-2c-.18-.32-.39-.69-.53-1l-.07-.15-.14-.3-1.2,4.33q-1,3.54-2.08,7c-1.42,4.68-3,9.33-4.59,13.94q-2.79,8.1-5.57,16.19c-3.3,9.5-6.57,19-9.61,28.58l-2.11,6.75c-.1.15.12.16.2.24l.62.34,1.66.88c1.1.58,2.22,1.14,3.34,1.7q6.74,3.33,13.72,6.13A138.83,138.83,0,0,0,272.11,400,82.89,82.89,0,0,0,289,401.5a53.22,53.22,0,0,0,8.37-.83,39.75,39.75,0,0,0,8.05-2.26c3.18-1.37,3-.78.46.9a31.65,31.65,0,0,1-14.72,4.15,76,76,0,0,1-17.65-1.22,124.74,124.74,0,0,1-17.06-4.36,172.43,172.43,0,0,1-16.4-6.34c-2.69-1.19-5.34-2.44-8-3.76-1.31-.66-2.62-1.33-3.92-2l-2.26-1.24L225,384a4.19,4.19,0,0,1,.23-.91l.44-1.43c4.18-13.39,8.84-27.23,13.54-40.77,2.16-6.27,4.39-12.54,6.44-18.83q1.53-4.73,2.92-9.5c1-3.37,1.6-5.57,3.08-11.46l2.6,5,.9,1.58c.33.51.67,1,1,1.5a13.61,13.61,0,0,0,5.32,4.33,21.48,21.48,0,0,0,3.28,1.23c1.16.25,2.31.54,3.49.71s2.37.32,3.56.38l3.6.15c2.41,0,4.82,0,7.22-.25l2.74-.18c.91-.07,1.82-.18,2.73-.27,1.82-.21,3.65-.35,5.46-.62l6-.83c.23-.11.16.15.19.3l0,.5.05,1,.07,1.44.14,2.75c.42,7.33,1,14.64,1.66,21.89,1.06,11.28,2.44,22.31,3.89,33.41.33,2.44.66,4.83,1,7.3,1.23,9.13,1.54,12.05,1.32,14.08a12.08,12.08,0,0,1-.14,1.34c-.25.93-1.13-2.74-2.15-9.42-3-19.83-5.52-40.84-7-62l-.38-5.91L298,316l-4.48.62c-2,.29-3.95.44-5.92.67q-5.94.6-12,.64a45.7,45.7,0,0,1-12.07-1.51Z"/><path class="cls-1" d="M300.78,290c-.23,2.11-.43,4.23-.57,6.35l-.1,2.32c-.17,2.73-.32,5.47-.4,8.21,0,1.21,0,2.43.06,3.64a34.35,34.35,0,0,1,.12,4.65c-.09,1-1.94-.17-2-2a75,75,0,0,1,.2-9.59c.18-1.92.14-3.92.25-5.88q.18-3.24.49-6.47c.11-1.32.26-2.65.41-4,.22-2,.51-4,.78-6,.23-1.54.37-3.07.65-4.61.06-.34.11-.68.19-1,.31-1.25.6-1.61,1.14-1.71a1.72,1.72,0,0,1,.37-.05c.4,0,.55.61.39,1.48-.43,2.62-.84,5.42-1.2,8.26-.27,2.1-.53,4.23-.72,6.36Z"/><path class="cls-1" d="M244.19,253.13c-4.32-5.73-9.5-10.86-14.55-16.13-1.84-1.94-3.72-3.83-5.49-5.84A104,104,0,0,1,208,208c-1-1.83-1.78-3.79-2.65-5.7s-1.58-3.88-2.31-5.82l-.7-1.88c-.11-.32-.24-.62-.35-1s-.2-.69-.27-1c-.3-1.34-.51-2.65-.72-4s-.42-2.62-.66-3.91a24.07,24.07,0,0,0-.9-3.72c-.13-.35-.21-.6-.25-.75s0-.29.07-.34.61.07,1.1.67c1,1.17,2,3.75,2.51,6.77.22,1.34.42,2.68.66,4a16.33,16.33,0,0,0,.42,1.82l.68,1.89,1.35,3.77c.44,1.27,1,2.47,1.55,3.7a96.52,96.52,0,0,0,7.55,14.23,106.77,106.77,0,0,0,12.43,15.45c5,5.36,10.29,10.47,15.1,16.1.76.84,1.45,1.75,2.15,2.65s1.43,1.78,2,2.75,1.3,1.89,1.91,2.85l1.68,3c3.24,6.19,4.57,13.2,4.86,20a89.08,89.08,0,0,1-.85,15.77c-.16,1.15-.31,2.27-.53,3.42-.79,4.26-1.29,5.56-2,6.34a3.45,3.45,0,0,1-.47.51c-.48.31-.34-1.46.2-4.54A118.7,118.7,0,0,0,253.37,287a63.73,63.73,0,0,0-.64-14.4,42.23,42.23,0,0,0-3-10.23l-.55-1.21c-.19-.41-.43-.79-.64-1.18l-1.32-2.35c-.45-.77-1-1.49-1.49-2.24a26,26,0,0,0-1.57-2.21Z"/><path class="cls-1" d="M197.82,171.11a.7.7,0,0,1-.25-.06.22.22,0,0,0-.14,0c-.09,0-.26.05-.28.18s.11.13.16.19l.07.09a.78.78,0,0,0,.17.11c.2.12.51.25.77.37a12.38,12.38,0,0,0,1.72.57,6.66,6.66,0,0,0,1.59.2c.67,0,1.36-.12,1.85-.08a1,1,0,0,1,.36,1,1.22,1.22,0,0,1-1,1.12,9.74,9.74,0,0,1-4.7-.93c-.44-.21-.86-.37-1.36-.59l-.45-.22a3.77,3.77,0,0,1-.48-.28,3,3,0,0,1-.76-.69,1.69,1.69,0,0,1-.32-1,1.53,1.53,0,0,1,.39-.93,2.86,2.86,0,0,1,1.93-.9c.22,0,.49,0,.68,0s.34,0,.5.08a9.62,9.62,0,0,1,1,.24c.94.26,1.8.65,2.68,1a10.32,10.32,0,0,0,1,.31,3.33,3.33,0,0,1,1.2.61,2.35,2.35,0,0,1,.46.48,1.26,1.26,0,0,1,.18,1.14.51.51,0,0,1-.71.32.66.66,0,0,1-.27-.22c-.05-.08-.08-.17-.12-.25s0,0,0,0-.12-.12-.53,0a8.37,8.37,0,0,0-.94-.37c-.63-.18-1.25-.41-1.85-.63a14.82,14.82,0,0,0-2.57-.75Z"/><path d="M213.61,189.85a34.62,34.62,0,0,1-3.08,1.6c-.37.19-.74.4-1.12.56-1.37.57-2.76,1-4.14,1.49-.62.2-1.22.44-1.81.69a8.33,8.33,0,0,1-2.33.79c-.52,0-.47-1.84.4-2.16a46.17,46.17,0,0,1,4.72-1.47A16,16,0,0,0,209,190.2c1-.46,2-.95,3-1.5.59-.33,1.17-.69,1.73-1.07a19.62,19.62,0,0,0,2.42-1.92,15.36,15.36,0,0,0,1.5-1.83c.11-.13.19-.29.3-.42.4-.51.63-.58,1.09-.37a1.83,1.83,0,0,1,.32.14c.33.19.4.6.15,1.05a12.58,12.58,0,0,1-3,3.53,24.92,24.92,0,0,1-2.85,2.07Z"/><path class="cls-2" d="M201.3,177.67l-.32-.08a15.12,15.12,0,0,0-1.54-.27A7.26,7.26,0,0,1,201.3,177.67Z"/><path class="cls-1" d="M198.53,175.1a6.52,6.52,0,0,0-1.25,0l-.3,0h-.07a.61.61,0,0,0-.18.05c-.11,0,0,.16,0,.23a.4.4,0,0,0,.09.24,1.81,1.81,0,0,0,.52.34,6.6,6.6,0,0,0,1.66.54,15.27,15.27,0,0,0,1.69.27c.27,0,.53.06.87.14l-.22,0h0l.15,0c.42.07.74.11,1,.18.14,0,.32.49.19,1a1.19,1.19,0,0,1-1.23.9l-.48-.09.3,0h-.12l-.27-.06-1.77-.39-1-.26a7.5,7.5,0,0,1-1.06-.41l-.72-.35a5.28,5.28,0,0,1-.8-.52,2.43,2.43,0,0,1-.94-1.89c0-.8.69-1.32,1.44-1.56a5,5,0,0,1,1-.21,7.72,7.72,0,0,1,.83-.06,9.36,9.36,0,0,1,2,.19,7.54,7.54,0,0,1,2.8,1.17,9.85,9.85,0,0,1,.93.78,2.84,2.84,0,0,1,.77,1.16,1.62,1.62,0,0,1,0,.91,1.25,1.25,0,0,1-.46.65.89.89,0,0,1-.41.18A.61.61,0,0,1,203,178a2.82,2.82,0,0,1-.18-.29c-.17-.34,0-.77,0-.85.11.15.24.16.09.12h-.1a.61.61,0,0,0-.19,0c-.08,0,0,0-.08,0s-.22-.24-.39-.4a6.06,6.06,0,0,0-.56-.47,6.42,6.42,0,0,0-.62-.34,6.66,6.66,0,0,0-2.39-.57Z"/><path class="cls-1" d="M201.87,169.68a.13.13,0,0,0,.16-.07.22.22,0,0,0,0-.12l0-.06a1,1,0,0,0-.13-.21,8,8,0,0,0-.58-.59,13.46,13.46,0,0,0-2.5-2,6.53,6.53,0,0,0-1.31-.62c-.28-.11-.58-.18-.86-.27a1.55,1.55,0,0,1-.65-.27l-.05-.21,0-.15a.88.88,0,0,1,0-.65,1.22,1.22,0,0,1,1.23-.7,9.74,9.74,0,0,1,3.64,2.12c.62.58,1.37,1,2,1.65a5.94,5.94,0,0,1,.75.94,2,2,0,0,1,.31.71,2.35,2.35,0,0,1,.13.74,2,2,0,0,1-.11.47l-.07.23-.14.19a2.29,2.29,0,0,1-2.15.66,10.68,10.68,0,0,1-2.53-.79,18.91,18.91,0,0,1-1.88-.8,3.38,3.38,0,0,1-.41-.24c-.49-.37-.54-.68-.22-1.06a1.43,1.43,0,0,1,.23-.26.89.89,0,0,1,.92-.2c.86.36,1.84.82,2.81,1.15a7.74,7.74,0,0,0,1.06.3l.23,0h.05l0,0Z"/><path class="cls-1" d="M208.56,174.68c.21-1.93.45-3.85.62-5.76.06-.7.06-1.39.1-2.08l0-.86,0-.39v-.15a4.19,4.19,0,0,0,0-.71,2,2,0,0,0-.07-.42c0-.13-.09-.34-.23-.34s-.31.31-.42.54a7.83,7.83,0,0,0-.42,2.07c-.15,1.36-.15,2.75-.21,4,0,.37-.47.47-1,.14a2.28,2.28,0,0,1-1-2,21.27,21.27,0,0,1,.21-2.27c.06-.37.13-.75.2-1.12l.18-.82c.09-.34.16-.68.27-1a9.57,9.57,0,0,1,.65-1.71,2.84,2.84,0,0,1,.78-.94,1.57,1.57,0,0,1,.92-.33,1.18,1.18,0,0,1,.95.56,6.92,6.92,0,0,1,.9,3.43c.06.83.05,1.25.06,1.76s0,.91,0,1.36c-.12,2-.35,3.92-.55,5.87-.13,1.19-.26,2.38-.35,3.57a46.56,46.56,0,0,0-.23,5.39,16.56,16.56,0,0,0,.64,4c.07.28.2.53.27.8.36,1,.44,1.21.14,1.69-.07.11-.12.24-.19.33-.22.33-.85.11-1.34-.74-1.33-2.52-1.38-5.33-1.36-8,0-2,.23-4,.4-5.92Z"/><path class="cls-1" d="M252,465c-6.52,5.25-24.38,6.64-24.66,5.78-.76-2.35,18.35-11,21.43-19.26,2.38-6.75,2-17.06,1.77-23.93l10.29,3C261.52,431,258.52,459.75,252,465Z"/><path class="cls-1" d="M251.78,429.71c.07,3.22.09,6.45-.06,9.7a54.56,54.56,0,0,1-1.24,9.72c-.17.59-.29,1.18-.49,1.76l-.27.88c-.11.3-.26.6-.38.9a14.23,14.23,0,0,1-2.11,3.1,52.06,52.06,0,0,1-9.73,8l-5.17,3.42c-.85.57-1.7,1.14-2.5,1.74l-.53.41-.28.23a1.3,1.3,0,0,0-.43.58c0,.13.1.17.2.18l.32,0c.23,0,.4,0,.69,0,.89,0,1.8-.09,2.7-.18,1.8-.18,3.6-.45,5.36-.77a58.76,58.76,0,0,0,6.71-1.68,30,30,0,0,0,6.23-2.66c1.13-.75,1.35-.3.59.82A11.13,11.13,0,0,1,246,469.4a60.1,60.1,0,0,1-14.32,2.73c-.61,0-1.22.07-1.84.09a7,7,0,0,1-3-.35,1,1,0,0,1-.35-.34c-.07-.12-.25-.28-.25-.5a2,2,0,0,1,.13-1.13,4,4,0,0,1,.83-1.16l.61-.56c.2-.19.46-.38.54-.45,2-1.5,4-2.73,6.06-4a79.5,79.5,0,0,0,7.08-5,26.21,26.21,0,0,0,5.86-6.15,15.57,15.57,0,0,0,1.5-4.31,42.81,42.81,0,0,0,.75-4.69,87.54,87.54,0,0,0,.42-9.6l0-3-.09-3.69,0-.56.54.15,1.08.32,1.75.52,2.86.85,4.44,1.32c1.34,0,.93,1.87,1,2.37,0,.76-.11,1.52-.18,2.28-.29,3-.71,6-1.19,9a104.55,104.55,0,0,1-2.93,13.58c-.3,1-.61,1.94-1,2.91-1.49,3.59-2.66,4.56-3.57,4.8a2,2,0,0,1-.63.12c-.51-.12.5-1.09,1.61-3.5a57.33,57.33,0,0,0,3.53-11.79c.87-4.14,1.56-8.39,2.07-12.66.18-1.59.35-3.19.43-4.74l0-.57v-.07h0s0,0,0,0l-2.2-.65-4.65-1.38-.92-.27,0,0s0,0,0,0v.42Z"/><path class="cls-1" d="M300.55,474c-6.84.89-26.84-3.89-26.73-9,.18-8.14-4.26-30.54-4.6-32.16l12.66,3c-.08,7.41-1.56,16.86.76,21.84C287.42,467.93,307.49,473.12,300.55,474Z"/><path class="cls-1" d="M280.7,436.79s0-.06,0-.08l-.08,0-1.58-.39-3.35-.82-3.36-.82-1.46-.36-.33-.1,0,.25,0,.13.11.59.46,2.54c.4,2.27.84,4.54,1.21,6.82.63,4,1.21,8.06,1.66,12.12.2,2,.42,4.06.49,6.12,0,.52,0,1,0,1.56,0,.25,0,.56,0,.75a1.93,1.93,0,0,1,0,.24l.09.26a4.77,4.77,0,0,0,1.74,1.93,21.08,21.08,0,0,0,4.66,2.38,47.21,47.21,0,0,0,5.06,1.61,66,66,0,0,0,6.69,1.34,48,48,0,0,0,6.71.61c1.34-.05,1.29.44.08,1a12.48,12.48,0,0,1-6.26.54,57.3,57.3,0,0,1-13.89-3.71,24.46,24.46,0,0,1-3.29-1.7,11.25,11.25,0,0,1-1.57-1.15,6,6,0,0,1-1.39-1.65,3.88,3.88,0,0,1-.43-1.17c0-.22,0-.47-.05-.67v-.42c0-.57,0-1.13,0-1.71,0-1.16-.11-2.32-.18-3.49-.44-5.6-1.45-11.4-2.42-17.09l-.8-4.63-.43-2.31-.68-3.51,10.6,2.57,3.2.77.54.13c.07.13,0,.36,0,.54l0,1.1-.06,1.48-.35,5.87a58.78,58.78,0,0,0,0,8.8,14.29,14.29,0,0,0,1,4.15,13.48,13.48,0,0,0,2.3,3.56c3,3.35,6.88,5.63,10.8,7.79l2.62,1.4a13.41,13.41,0,0,1,3.43,2.34,1.72,1.72,0,0,1,.44.9,1,1,0,0,1-.18.69,1.07,1.07,0,0,1-.37.29,1.32,1.32,0,0,1-.92,0,2.19,2.19,0,0,1-.59-.24c-.21-.17.1-.36.61-.64l.16-.11,0-.05v0l.09.12c.15.16.27.11.08.13a1.21,1.21,0,0,0-.32.11l-.05,0a10.28,10.28,0,0,0-1.3-.82,101.79,101.79,0,0,1-10.85-6.21,29.16,29.16,0,0,1-5-4.36,17.34,17.34,0,0,1-2-2.79,12.55,12.55,0,0,1-1.33-3.29,36.77,36.77,0,0,1-.57-9.87l.27-4.8.14-2.38.09-2.14Z"/><path class="cls-1" d="M231.55,76.81a103.9,103.9,0,0,0-6.33-8.34c-.83-1-1.71-1.9-2.56-2.86-3-3.37-6.12-6.64-9.4-9.75-1.46-1.38-3-2.7-4.52-4a65.9,65.9,0,0,1-5.88-5.06,1.24,1.24,0,0,1-.31-.54c-.05-.2,0-.29.12-.31a2.14,2.14,0,0,1,.43,0,5,5,0,0,1,.55,0,6,6,0,0,1,3.25,1.38A113.84,113.84,0,0,1,218.5,58.2c2.16,2.34,4.54,4.64,6.7,7.09,2.37,2.69,4.62,5.49,6.72,8.4,1.29,1.79,2.54,3.62,3.69,5.5a76,76,0,0,1,4.71,8.86,63.33,63.33,0,0,1,2.83,7.18c.15.55.31,1.08.45,1.64a7.34,7.34,0,0,1,.3,2.25,1.51,1.51,0,0,1-.4,1.06,2.18,2.18,0,0,1-.34.34c-.41.25-.9-.53-1.26-2a66.08,66.08,0,0,0-5-12.74,79.18,79.18,0,0,0-5.42-9Z"/><path class="cls-1" d="M217.39,165.32a24.22,24.22,0,0,1-2.08,4.62,13.34,13.34,0,0,1-1,1.6,9.16,9.16,0,0,1-8.6,3.91,7.35,7.35,0,0,1-1.9-.53,3.61,3.61,0,0,1-1.61-1.32c-.27-.46.31-.61.88-.75a2.51,2.51,0,0,1,1.6-.12,6.21,6.21,0,0,0,1.31.47,2.74,2.74,0,0,0,.63.09l.72,0a6.69,6.69,0,0,0,2.84-.71,7.75,7.75,0,0,0,2.77-2.8A19.58,19.58,0,0,0,215,165.7a23.92,23.92,0,0,0,.84-2.77,19.44,19.44,0,0,0,.58-4.34,8.34,8.34,0,0,0-.59-3.12,1.83,1.83,0,0,0-.27-.4l0-.07h0s0,0,0-.05.06-.1.06-.09a.19.19,0,0,0,0-.09.33.33,0,0,0,0,.14c0-.14-.16-.23-.35-.46s-.21-.19-.3-.29a.44.44,0,0,1-.06-.62.77.77,0,0,1,.47-.36,1.85,1.85,0,0,1,.45-.11,2.57,2.57,0,0,1,.56.12,2.18,2.18,0,0,1,.67.42,3.13,3.13,0,0,1,.41.49,4,4,0,0,1,.49.94,8.24,8.24,0,0,1,.45,1.79,15.69,15.69,0,0,1,0,3.49,25.74,25.74,0,0,1-1,5Z"/><path class="cls-1" d="M197.1,131.34q.3,4.17.73,8.33l.37,3c.37,3.57.75,7.14,1.22,10.7.21,1.58.5,3.15.81,4.7.39,2,.92,4,1.11,6,.13,1.26-2.24.14-2.71-2.2a101.52,101.52,0,0,1-1.72-12.43c-.2-2.51-.65-5.09-.93-7.64-.31-2.8-.58-5.62-.83-8.43l-.41-5.2c-.2-2.63-.34-5.27-.49-7.88-.12-2-.32-4-.34-6.08,0-.46,0-.9,0-1.36.13-1.72.46-2.35,1.15-2.51a1.82,1.82,0,0,1,.44-.07c.45.11.53.67.51,1.78,0,1.66.07,3.48.16,5.31s.22,3.7.33,5.57c.19,2.79.38,5.59.64,8.39Z"/><path class="cls-1" d="M219.19,76.84a37.86,37.86,0,0,0-3-4.24c-.41-.48-.88-.92-1.29-1.4a54.13,54.13,0,0,0-4.79-4.79,28.09,28.09,0,0,0-2.42-1.8,24.61,24.61,0,0,1-3.16-2.22c-.59-.57,1.38-1.73,2.67-.89a34.79,34.79,0,0,1,6.22,5.23c1.1,1.22,2.4,2.31,3.5,3.57a42,42,0,0,1,3.38,4.36c.61,1,1.23,1.9,1.77,2.89.86,1.48,1.54,3,2.25,4.59.26.6.53,1.2.82,1.78s.51,1.2.77,1.81a7,7,0,0,1,.31.8c.32,1,.27,1.4-.23,1.76a2.62,2.62,0,0,1-.34.24c-.4.19-.86-.13-1.18-.82-1-2-1.76-4.21-2.79-6.3a40.35,40.35,0,0,0-2.53-4.54Z"/><path class="cls-1" d="M169.7,85.36a41.26,41.26,0,0,1,1.92-4.16c.25-.5.47-1,.76-1.49A42.48,42.48,0,0,1,175.75,75c.54-.67,1-1.37,1.55-2a10.76,10.76,0,0,1,2.13-2.48c.55-.42,1.52,1.61.75,2.52-1.36,1.67-2.73,3.29-4.15,4.93a19.82,19.82,0,0,0-2.09,3.35,40.53,40.53,0,0,0-1.89,3.93c-.35.83-.65,1.68-.94,2.53a34.23,34.23,0,0,0-1,4,27.57,27.57,0,0,0-.3,3.14c0,.23,0,.46,0,.69-.08.86-.26,1.11-.85,1.22-.14,0-.27.06-.41.07-.45,0-.76-.38-.79-1a21.31,21.31,0,0,1,.64-6,41.4,41.4,0,0,1,1.32-4.42Z"/><path class="cls-1" d="M274.17,230.84c-2.21,1.66-6.26,4.73-5.33,8.06.76,2.72,4.47,3.67,6.85,4.14,7.18,1.42,16.3,1.11,23.06-1.89,4.6-2,.42-4.55-2.89-3.08-4.18,1.85-10,1.77-14.48,1.17-1.34-.18-4.47-.47-5.18-2-1-2.05,2.57-4.25,3.8-5.17s.56-2.23-.7-2.64c-1.7-.56-3.81.38-5.13,1.37Z"/><path class="cls-1" d="M289.57,194.86c-.37.5-.78,1.11-1.49,1-2.26-.24-.32-4.4,1.55-3.52C290.52,192.79,290,194.28,289.57,194.86Z"/><path class="cls-1" d="M298.54,200c-.37.5-.78,1.11-1.49,1-2.26-.24-.33-4.4,1.55-3.52C299.48,197.94,299,199.42,298.54,200Z"/><path class="cls-1" d="M293,189.46c0-.06-.13-.22-.27-.41s-.35-.37-.54-.58l-.6-.47-.37-.22a5.41,5.41,0,0,0-.77-.45,6.61,6.61,0,0,0-1.24-.52,8.56,8.56,0,0,0-1.57-.33,6,6,0,0,0-1.82.07l-.92.18a3.47,3.47,0,0,0-.88.29c-.07,0-.58-.63-.5-.7a2.86,2.86,0,0,1,1-.57,12.34,12.34,0,0,1,1.43-.37c.55-.1,1.05-.16,1.09-.16a8.82,8.82,0,0,1,1.15-.15,5,5,0,0,1,.55,0,10.16,10.16,0,0,1,1.54.15l.73.14q.36.1.72.24a7.34,7.34,0,0,1,1.89,1.19,10.9,10.9,0,0,1,.91.89c.15.2.24.44.37.65s-.18.46-.56.78A2.06,2.06,0,0,1,293,189.46Z"/><path class="cls-1" d="M300.27,190.84a10.13,10.13,0,0,1,1.6.16,11.61,11.61,0,0,1,1.42.35c.18.05.91.4,1,.43a13.53,13.53,0,0,1,1.31.84,9.2,9.2,0,0,1,1.32,1.17,8,8,0,0,1,1.17,1.63,1.66,1.66,0,0,1,.17.37,4.19,4.19,0,0,1,.13.67,3,3,0,0,1-.05.69c-.05.2-.1.35-.12.43s-.82-.18-.82-.23a2.16,2.16,0,0,1,0-.36,1.38,1.38,0,0,1,0-.35c0-.1-.07-.24-.11-.41a3.56,3.56,0,0,0-.3-.53,3.93,3.93,0,0,0-.57-.64,7.71,7.71,0,0,0-.77-.49l-.38-.2a8.23,8.23,0,0,0-1.09-.49c-.34-.13-.72-.19-1.07-.3a11.85,11.85,0,0,0-1.54-.36,8.43,8.43,0,0,0-.86-.05,4.53,4.53,0,0,0-.49-.08c-.11,0-.21-.41-.32-.91A1.45,1.45,0,0,1,300.27,190.84Z"/><path class="cls-1" d="M285.09,200.29a2.55,2.55,0,0,1,.52-.77,3.53,3.53,0,0,1,.55-.44,6.71,6.71,0,0,1,1.08-.53c.25-.1.48-.23.72-.3l2.48-.69a6.57,6.57,0,0,0,1.06-.44,3,3,0,0,1,1.38-.52c.32,0,.53,1.86.05,2.07a9.47,9.47,0,0,1-2.78.78,10.44,10.44,0,0,0-1.74.59,4.41,4.41,0,0,0-1.46.73.67.67,0,0,0-.21.62,3.21,3.21,0,0,0,.6,1.48,5,5,0,0,0,1,.9c.08.06.17.11.24.17.27.24.26.39,0,.82l-.18.29a.7.7,0,0,1-.88.29,4.79,4.79,0,0,1-2.09-2.13A4.32,4.32,0,0,1,285,202a2.86,2.86,0,0,1,.1-1.69Z"/><path class="cls-1" d="M286,213.16c1-.47,1.23-.59,1.36-.51a4.75,4.75,0,0,0,1.14.47,3.55,3.55,0,0,0,1,.2,4.38,4.38,0,0,0,1.89-.7,3.55,3.55,0,0,0,.55-.34c.16-.15.3-.31.45-.46s0-.08.08-.07a2,2,0,0,1,.68.74,1.11,1.11,0,0,1,.1.21c-.13.13.15.73,0,.84s-.54.55-.85.81a1,1,0,0,1-.42.24c-.2.06-.42.07-.62.12s-.52.17-1,.29a4.9,4.9,0,0,1-1.92,0,4.2,4.2,0,0,1-2.36-1.37A1.45,1.45,0,0,1,286,213.16Z"/><path class="cls-1" d="M212.7,306.9c0-.46,0-.91,0-1.36,0-.17,0-.32,0-.49.06-.58.18-1.15.26-1.72a2.29,2.29,0,0,0,0-.74c-.05-.32-.21-.65.06-.95s2.47.19,2.48.5a3.39,3.39,0,0,1-.37,1.74c-.18.37,0,.73,0,1.09s0,.82,0,1.22,0,.51,0,.76a4.61,4.61,0,0,0,.19,1.12,2.72,2.72,0,0,0,.53.74c0,.06.11.1.14.16s0,.33-.61.59l-.4.18a1.33,1.33,0,0,1-1.08.09,2.47,2.47,0,0,1-1-1.57,12.22,12.22,0,0,1-.21-1.35Z"/><path class="cls-1" d="M159.77,381a6.51,6.51,0,0,0-.14-1.2c0-.15-.14-.28-.18-.43-.12-.57-.23-1.17-.37-1.77a3.49,3.49,0,0,0-.33-.74c-.18-.29-.46-.57-.33-1,.08-.25,2.37-.75,2.5-.43a4.13,4.13,0,0,1,.38,1.94,4,4,0,0,0,.39,1.22,10.9,10.9,0,0,1,.33,1.47c0,.31.08.63.11.95,0,.47,0,.95.05,1.4a8.38,8.38,0,0,0,.27,1.07,2,2,0,0,1,.05.24c0,.29-.15.37-.8.35h-.43a1.46,1.46,0,0,1-1-.39,3,3,0,0,1-.45-1.59c0-.36,0-.72-.08-1.09Z"/><path class="cls-1" d="M155.79,214a5.56,5.56,0,0,0-.32-1.2c-.05-.14-.18-.23-.24-.37a8.2,8.2,0,0,0-.89-1.5,2.46,2.46,0,0,0-.62-.54c-.29-.2-.68-.29-.78-.72-.06-.27,1.66-1.85,2-1.59a4.5,4.5,0,0,1,1.44,1.87,10.48,10.48,0,0,0,.87,1.26,7.16,7.16,0,0,1,.66,1.58c.09.33.16.65.24,1a11.6,11.6,0,0,0,.35,1.38,5.26,5.26,0,0,0,.58,1,1.43,1.43,0,0,1,.14.2c.12.27,0,.4-.61.63l-.41.16a1.28,1.28,0,0,1-1.1,0,3.44,3.44,0,0,1-1-1.73c-.14-.45-.22-.91-.35-1.32Z"/><path class="cls-1" d="M179.67,309.82c.08-.28.17-.56.24-.84,0-.1,0-.2,0-.3.11-.36.27-.72.37-1.07a1,1,0,0,0,0-.48c-.05-.2-.23-.41,0-.61a5.87,5.87,0,0,1,2.5.27,1.62,1.62,0,0,1-.39,1.24c-.2.25-.09.51-.14.77s-.13.56-.2.84-.08.34-.11.52a3,3,0,0,0-.08.78,2.11,2.11,0,0,0,.3.6s.07.08.08.13-.12.22-.76.25l-.44,0a1.9,1.9,0,0,1-1-.17,1.32,1.32,0,0,1-.5-1.11,8,8,0,0,1,.09-.84Z"/><path class="cls-1" d="M235.78,154.29a2.8,2.8,0,0,0,.12-.63c0-.07-.05-.13,0-.21a3.88,3.88,0,0,0,.07-.83.34.34,0,0,0-.17-.26c-.12-.08-.31-.05-.19-.3a5.72,5.72,0,0,1,.92-.91c.47-.39,1-.68,1.12-.55a1.55,1.55,0,0,1,.41,1.49c-.08.32.1.53.13.8a6.15,6.15,0,0,1,0,.86c0,.17,0,.34,0,.51a3.77,3.77,0,0,0,0,.75,3.27,3.27,0,0,0,.29.6.91.91,0,0,1,.07.14c0,.18-.15.22-.78.17l-.44,0a3.19,3.19,0,0,1-1-.25.88.88,0,0,1-.48-.75,3.76,3.76,0,0,1,0-.58Z"/><path class="cls-1" d="M160.93,155.18a7.32,7.32,0,0,0-.26-.88c0-.11-.14-.18-.18-.29a11.61,11.61,0,0,0-.42-1.17,1,1,0,0,0-.35-.4c-.18-.14-.45-.18-.41-.5s1.77-1.74,2-1.49a2.22,2.22,0,0,1,.71,1.48c0,.37.3.57.44.86s.28.65.4,1,.16.42.23.62a9.2,9.2,0,0,0,.36.95c.12.24.36.44.53.76a1.51,1.51,0,0,1,.11.22c.07.32-.12.47-.76.44-.14,0-.29,0-.43,0-.49-.06-.91-.16-1.05-.16a.83.83,0,0,1-.71-.59c-.1-.23-.18-.51-.3-.78Z"/><path class="cls-1" d="M183.64,257.35a4.6,4.6,0,0,0,0-1c0-.12-.1-.21-.12-.33a4.93,4.93,0,0,0-.31-1.3,1.28,1.28,0,0,0-.37-.46c-.21-.16-.5-.22-.49-.58s1.75-1.75,2.06-1.47a2.85,2.85,0,0,1,.91,1.86,5.9,5.9,0,0,0,.42,1.16,6.77,6.77,0,0,1,.23,1.32c0,.27,0,.54,0,.81s0,.8,0,1.2a7.24,7.24,0,0,0,.27.92c0,.08.05.15.06.22,0,.26-.17.32-.81.27l-.43,0a1.65,1.65,0,0,1-1-.36,2.15,2.15,0,0,1-.46-1.3c0-.31,0-.63,0-.94Z"/><path class="cls-1" d="M129.54,262.58c.09-.47.18-.94.25-1.41,0-.17,0-.34,0-.51.12-.61.27-1.21.37-1.82a2.38,2.38,0,0,0,0-.8c-.05-.35-.22-.69,0-1s2.48.05,2.51.45a4.15,4.15,0,0,1-.4,2.1,4,4,0,0,0-.14,1.29c-.05.48-.13.95-.19,1.43q-.08.44-.12.87a8.55,8.55,0,0,0-.08,1.33,5.53,5.53,0,0,0,.3,1,1,1,0,0,1,.08.22c0,.28-.12.37-.76.43l-.44,0a1.32,1.32,0,0,1-1.05-.29,3,3,0,0,1-.49-1.88c0-.47,0-.95.08-1.42Z"/><path class="cls-1" d="M311,137.36c.08-.17.17-.35.24-.53s0-.13,0-.19c.11-.23.27-.45.37-.68a.39.39,0,0,0,0-.3c-.05-.13-.23-.26,0-.39a8.79,8.79,0,0,1,2.5.17.84.84,0,0,1-.39.79c-.2.16-.09.32-.14.48s-.14.36-.2.54a2.13,2.13,0,0,0-.11.33,1.06,1.06,0,0,0-.08.49c0,.13.19.26.3.38s.07.06.08.08-.12.14-.76.16l-.44,0a2.77,2.77,0,0,1-1.05-.11c-.43-.23-.5-.46-.5-.7a3.38,3.38,0,0,1,.09-.54Z"/><path class="cls-1" d="M274.16,124.42l-.15-1c0-.12-.11-.22-.12-.35,0-.44,0-.89-.06-1.33a1.3,1.3,0,0,0-.19-.53c-.11-.22-.34-.41-.15-.7a5.46,5.46,0,0,1,2.49-.36,2,2,0,0,1,0,1.4c-.11.32.09.55.14.83s.11.61.16.92.07.39.12.57a3.83,3.83,0,0,0,.3.82,2.28,2.28,0,0,0,.57.44.48.48,0,0,1,.14.09c.12.14,0,.26-.53.61l-.37.24a1.68,1.68,0,0,1-1,.34,1.64,1.64,0,0,1-1.06-1,6.6,6.6,0,0,1-.35-1Z"/><path class="cls-1" d="M350.83,270.27a6.15,6.15,0,0,0-.34-1.16,3.81,3.81,0,0,1-.23-.5,6.84,6.84,0,0,1-.22-2,3.69,3.69,0,0,0-.12-.81c-.09-.34-.25-.67,0-1s2.48.05,2.51.35a3.74,3.74,0,0,1-.18,1.65c-.11.36.11.62.21.94s.29.77.45,1.25a9,9,0,0,1,.25.89c.12.46.13.92.23,1.35a8,8,0,0,0,.39,1,2,2,0,0,1,.08.22c0,.28-.11.37-.75.43l-.43,0a1.44,1.44,0,0,1-1.06-.24,2.75,2.75,0,0,1-.63-1.42,6.79,6.79,0,0,0-.2-.94Z"/><path class="cls-1" d="M124.35,123.1c0-.41,0-.83,0-1.26,0-.15-.07-.3-.06-.46,0-.55.07-1.13.11-1.69a2.42,2.42,0,0,0-.1-.75c-.07-.31-.26-.64,0-1s2.49.06,2.51.33a3.48,3.48,0,0,1-.21,1.73c-.15.38,0,.73,0,1.11l0,1.27c0,.26,0,.53,0,.8a8,8,0,0,0,.09,1.2,5.9,5.9,0,0,0,.37.92,1,1,0,0,1,.09.21c0,.27-.11.36-.75.41l-.44,0a1.53,1.53,0,0,1-1-.23,2.34,2.34,0,0,1-.62-1.46c-.06-.38-.06-.78-.1-1.19Z"/><path class="cls-1" d="M352.47,457.87q-8.33-.14-16.65-.25c-2,0-4.05,0-6.07,0-7.13-.12-14.26-.27-21.39-.37-3.17-.05-6.35,0-9.49,0-4,.05-8.09.22-12.12,0-2.51-.17.68-2.49,5.33-2.51,8.24,0,16.47.06,24.78.39,5,.2,10.13.1,15.22.15,5.58.05,11.17.13,16.76.19,3.44,0,6.88.09,10.32.12,5.21,0,10.44.11,15.61.08,4,0,8-.2,11.93-.3.88,0,1.73-.07,2.61-.08,3.27,0,4.31.12,5,.76a2.43,2.43,0,0,1,.46.44c.31.49-1,.9-3.41,1-7.1.43-14.59.49-22.11.49-5.59,0-11.2-.05-16.8-.08Z"/><path class="cls-1" d="M192.32,457.87q-7.66-.14-15.31-.25c-1.87,0-3.73,0-5.59,0-6.56-.12-13.12-.27-19.69-.37-2.91-.05-5.83,0-8.72,0-3.72.05-7.44.22-11.15,0-2.31-.17.62-2.49,4.9-2.51,7.58,0,15.15.06,22.8.39,4.57.2,9.32.1,14,.15,5.14.05,10.28.13,15.42.19,3.17,0,6.33.09,9.5.12,4.79,0,9.6.11,14.36.08,3.7,0,7.32-.2,11-.3.8,0,1.59-.07,2.4-.08,3,0,4,.12,4.61.76a2.53,2.53,0,0,1,.43.44c.29.49-.94.9-3.14,1-6.54.43-13.43.49-20.35.49-5.13,0-10.29-.05-15.45-.08Z"/><path class="cls-1" d="M308.79,208.47a4.19,4.19,0,0,0-1,3.75,4.53,4.53,0,0,0,.62,1.36,4.44,4.44,0,0,0,4.78,1.95,4.06,4.06,0,0,0,2.11-1.3,6.5,6.5,0,0,0,1.24-2.89c.08-.32.56-.32,1,0a1.81,1.81,0,0,1,.53,2,6.3,6.3,0,0,1-3,3.43,6,6,0,0,1-4.47.38,6.68,6.68,0,0,1-4.11-3.28,6,6,0,0,1,2.69-8,6.16,6.16,0,0,1,5.11-.13,6.47,6.47,0,0,1,3.07,2.6,5.82,5.82,0,0,1,.41.83c.37,1.1.17,1.53-.29,1.76a2.07,2.07,0,0,1-.34.15c-.39.08-.68-.3-.9-.86a4.85,4.85,0,0,0-3.91-3.11,4.15,4.15,0,0,0-3.5,1.36Z"/><path class="cls-1" d="M315,210.83c.37,2.73-2.91,4.35-5,2.76a3.14,3.14,0,0,1,1.91-5.59A3.25,3.25,0,0,1,315,210.83Z"/><path class="cls-1" d="M311.29,253c-2.53-4.52-5.72-8.74-9.89-11.63l-1.67-1.07-1.59-1.19-1.63-1c-.56-.31-1.14-.59-1.71-.89a57.84,57.84,0,0,0-7.25-2.87,94.74,94.74,0,0,0-11.13-2.77,72.5,72.5,0,0,0-10-1.31l-2.55,0a11.72,11.72,0,0,1-1.33-.09c-.44,0-.88-.07-1.31-.15a34.94,34.94,0,0,1-5.1-1.17,65,65,0,0,1-18.34-9.4A67.2,67.2,0,0,1,224.44,207a40.11,40.11,0,0,1-6-10.11,25.21,25.21,0,0,1-1.53-5.74,20.52,20.52,0,0,1,0-6c.43-2.46.84-2,1,.08a40.76,40.76,0,0,0,2,9.62,35.58,35.58,0,0,0,5.4,10,56.54,56.54,0,0,0,7.85,8.46,71,71,0,0,0,19.61,12.46,38.76,38.76,0,0,0,6.68,2.13,25.75,25.75,0,0,0,3.47.53,17,17,0,0,0,1.74.06l1.87,0a64.28,64.28,0,0,1,7.38.77c2.44.37,4.85.85,7.23,1.42,2.63.61,5.22,1.35,7.78,2.2a51,51,0,0,1,7.51,3.11l.91.47.88.54.88.54c.29.19.56.41.84.61l.83.62.76.49a16.48,16.48,0,0,1,1.71,1.15,30.77,30.77,0,0,1,5.79,5.78,49.28,49.28,0,0,1,5.26,8.48,85.87,85.87,0,0,1,3.94,9.1c3.5,9.39,5.87,19.15,8.18,28.75,1.8,7.47,3.54,14.8,5.61,22.07.47,1.6.95,3.16,1.46,4.75.95,2.95,1.66,4.85,2.12,6.2a14.17,14.17,0,0,1,.52,1.67,5.57,5.57,0,0,1,.25,1.18,6.27,6.27,0,0,1,.1.95c0,.72-1.67-1.37-3.38-5.7a165.35,165.35,0,0,1-5.91-20.09c-1.68-6.88-3.27-13.86-5.07-20.79-1.34-5.14-2.8-10.26-4.53-15.27A85.41,85.41,0,0,0,311.25,253Z"/><path class="cls-1" d="M350.79,345.68c-5.41-3-9-8.54-12.05-13.72a1,1,0,0,0-1.73,1c3.24,5.47,7.06,11.28,12.77,14.43,1.13.63,2.14-1.1,1-1.72Z"/><path class="cls-1" d="M315.06,307.79c1.45,3.54,3,7,4.59,10.53.58,1.28,1.24,2.51,1.83,3.78,2.11,4.45,4.28,8.88,6.62,13.22.47.87.54,1,.76,1.38l.37-.35.57-.51c.52-.47,1-.93,1.57-1.37a36.43,36.43,0,0,1,3.4-2.61,10.25,10.25,0,0,1,4.08-1.77c1.08-.06.79.46.19,1a16,16,0,0,1-2.75,2.24,36.75,36.75,0,0,0-3.45,2.5c-.56.45-1.12.91-1.66,1.38l-.41.35-.76.68-1.59,1.49-1-1.77-.49-.87-.29-.53-1-1.86c-.64-1.24-1.25-2.49-1.85-3.75-1.48-3.13-3.19-6.29-4.7-9.48-1.67-3.5-3.26-7-4.79-10.62-.93-2.2-1.86-4.4-2.73-6.62-.69-1.67-1.34-3.37-2-5.06s-1.27-3.39-1.89-5.07c-1-2.61-1.94-5.18-2.9-7.78-.19-.58-.38-1.14-.57-1.73-.68-2.17-.77-2.9-.43-3.5a2.11,2.11,0,0,1,.24-.4c.31-.31.88.48,1.46,2,1.66,4.61,3.43,9.46,5.25,14.31,1.38,3.59,2.79,7.19,4.31,10.75Z"/><path class="cls-1" d="M328.88,339.48c2.49,4.19,2.1,8,1.35,12.55-.19,1.15-.81,3.58.41,4.42,3.54,2.45,5.14-7.16,4.93-9.06l-1.87.5a38.71,38.71,0,0,0,6.37,7.1c.92.87,3.13,3.69,4.62,3.6,3.95-.24-2.43-7.7-3.25-8.69s-2.24.43-1.42,1.41a39.69,39.69,0,0,1,2.84,3.75,9.51,9.51,0,0,0,1,1.61c2.13,1.28.05-.94-.15-1.11-3-2.52-6.15-5.38-8.24-8.67-.49-.77-2-.55-1.86.5a9.8,9.8,0,0,1-1,5.81c-1.27,2.19-.92,1.6-.55.32.2-.71.26-1.58.39-2.32.83-4.6.63-8.63-1.81-12.73a1,1,0,0,0-1.72,1Z"/><path class="cls-1" d="M342.3,348.91c-.39-.29.4.38.52.49a14.36,14.36,0,0,1,1.56,1.83,21.31,21.31,0,0,1,1.86,3.11c.2.42.39.84.57,1.27q.18,1.22,1.11-.06a4.06,4.06,0,0,0-.63-.34,1,1,0,0,0-1,1.73c.73.44,1.81,1,2.5.19,1-1.17-.7-3.64-1.28-4.7a16.29,16.29,0,0,0-4.19-5.24c-1-.78-2,1-1,1.72Z"/><path class="cls-1" d="M342.68,345.17a13.08,13.08,0,0,1,2.18,2.28,20.21,20.21,0,0,1,2,3.16,15.78,15.78,0,0,0,1.05,2.31c.88-.33,1.07-.59.55-.77l-.29-.18a1,1,0,0,0-1,1.73c.75.45,1.9,1,2.57.11.87-1.18-.82-3.64-1.39-4.66a18.07,18.07,0,0,0-4.27-5.4c-1-.78-2.43.62-1.42,1.42Z"/><path class="cls-1" d="M250.92,415.81c0-1.74.08-3.47.1-5.2,0-.64,0-1.27,0-1.9.06-2.23.14-4.45.18-6.68,0-1,0-2-.07-3a20,20,0,0,1,0-3.79c.11-.78,1.93.18,2,1.63a69,69,0,0,1-.17,7.74c-.13,1.56,0,3.17,0,4.76s0,3.49-.06,5.23c0,1.08,0,2.15,0,3.23,0,1.62,0,3.26,0,4.87,0,1.25.19,2.48.29,3.72,0,.27.06.54.08.81.05,1-.07,1.35-.57,1.58a2.07,2.07,0,0,1-.34.15c-.38.1-.71-.31-.83-1.05a47.08,47.08,0,0,1-.5-6.9c0-1.74,0-3.49,0-5.24Z"/><path class="cls-1" d="M260.28,418.28l.69-4.91c.08-.59.1-1.2.18-1.79.29-2.11.6-4.21.85-6.32.12-.94.17-1.89.22-2.82a18.11,18.11,0,0,1,.3-3.6c.18-.74,1.91.34,1.82,1.73a57.41,57.41,0,0,1-.91,7.35c-.28,1.47-.34,3-.52,4.52l-.65,5-.42,3.06c-.21,1.54-.46,3.08-.63,4.62-.15,1.19-.18,2.38-.3,3.57,0,.27,0,.53-.07.79-.16,1-.35,1.27-.87,1.37a2.53,2.53,0,0,1-.36.07c-.4,0-.63-.45-.61-1.16.06-2.1.32-4.29.59-6.5.21-1.65.43-3.3.64-4.94Z"/><path class="cls-1" d="M269.11,420.79l-.26-5.21c0-.63-.13-1.26-.16-1.9-.13-2.23-.22-4.47-.37-6.7-.06-1-.18-2-.31-3a19.93,19.93,0,0,1-.37-3.78c0-.79,1.94,0,2.11,1.46a66.83,66.83,0,0,1,.48,7.77c0,1.57.23,3.18.34,4.77l.32,5.26.17,3.24c.1,1.63.16,3.27.29,4.9.09,1.26.3,2.49.43,3.74,0,.27.08.54.09.82.05,1-.07,1.38-.56,1.6a1.63,1.63,0,0,1-.34.14c-.38.1-.71-.31-.83-1.05a67.41,67.41,0,0,1-.74-6.85l-.33-5.25Z"/><path class="cls-1" d="M278.92,422.45c.07-1.71.16-3.42.23-5.13,0-.63,0-1.25,0-1.87.11-2.21.25-4.41.34-6.61.05-1,0-2,0-2.93a19.49,19.49,0,0,1,.06-3.74c.13-.77,1.93.23,1.93,1.66a70.07,70.07,0,0,1-.36,7.65c-.17,1.53-.1,3.13-.15,4.7s-.13,3.45-.2,5.17c0,1.06-.08,2.12-.11,3.19-.05,1.6-.12,3.22-.1,4.81,0,1.24.13,2.46.2,3.69,0,.27,0,.53.06.81,0,1-.11,1.33-.61,1.54a2.44,2.44,0,0,1-.34.14c-.39.09-.7-.32-.81-1.06a45.18,45.18,0,0,1-.33-6.83c0-1.72.07-3.46.11-5.18Z"/><path class="cls-1" d="M276,248.14a4.38,4.38,0,0,1,.37,1.5,4.68,4.68,0,0,1-.24,1.81,2.24,2.24,0,0,1-.51.92,2.36,2.36,0,0,1-1.23.55,1.45,1.45,0,0,1-1.13-.29,2.15,2.15,0,0,1-.55-.91,1.89,1.89,0,0,1,.06-1.52c.1-.16.55,0,1,.16a2.16,2.16,0,0,0,.92.15s0,0,0,.05a.38.38,0,0,0,0,.34c.08.15.23-.05.25-.16a1.18,1.18,0,0,0,.11-.56,1.24,1.24,0,0,0-.06-.49.58.58,0,0,0-.21-.34.24.24,0,0,0-.32.12,1.09,1.09,0,0,0-.08.68s0,.09,0,.12-.11.06-.61,0l-.34,0a.65.65,0,0,1-.66-.66,3,3,0,0,1,.47-1.63,1.63,1.63,0,0,1,1.21-.79,1.41,1.41,0,0,1,.95.21,2,2,0,0,1,.69.75Z"/><path class="cls-1" d="M273.42,260.51a5.21,5.21,0,0,1-.18,1.8,3.19,3.19,0,0,1-.22.72,2,2,0,0,1-1.14,1,2.6,2.6,0,0,1-.7.15,1.36,1.36,0,0,1-.95-.3,2,2,0,0,1-.57-1.22,1.51,1.51,0,0,1,.12-1.22c.17-.2,1.86.5,1.86.72v.32c0,.05,0,.07,0,.1v0c-.06,0-.18.05-.26.09-.36.13-.44.34-.39.23a.44.44,0,0,0,0-.13.58.58,0,0,0,0-.23s0-.1,0-.15v0s0,0,0,0a.31.31,0,0,0,.19,0,.15.15,0,0,0,.08,0,.53.53,0,0,0,.12-.2,3,3,0,0,0,.23-1.1,1.88,1.88,0,0,0-.07-.68,1.13,1.13,0,0,0-.07-.18s0-.05,0-.05.12-.19.11-.16c0-.14,0,.07.08.16l-.09.09a1.83,1.83,0,0,0-.17.81,1.33,1.33,0,0,1,0,.2c0,.23-.17.27-.67.21l-.34,0c-.39-.05-.67-.24-.72-.51a2.35,2.35,0,0,1,.13-1.19,2.62,2.62,0,0,1,.36-.64,2,2,0,0,1,1.1-.72,1.67,1.67,0,0,1,1.43.39,2.12,2.12,0,0,1,.48.67,3.38,3.38,0,0,1,.31,1.05Z"/><path class="cls-1" d="M168.34,109.49c13.94-5.55,28.23-10.48,43.11-13.14A82.09,82.09,0,0,1,228,94.92a40.73,40.73,0,0,1,7.35.87,19.2,19.2,0,0,1,7,2.88,7.75,7.75,0,0,1,2.68,3.12l.19.54.11.48.2,1c0,.33.06.66.09,1l0,.49,0,.5a10.41,10.41,0,0,1-3.25,7,21.87,21.87,0,0,1-6.19,4.2,46.15,46.15,0,0,1-6.87,2.61A87.3,87.3,0,0,1,215,122.43a109.13,109.13,0,0,1-12.89.67c-4.29,0-8.56-.11-12.8-.27-10.88-.37-21.78-.92-32.58-.43-3.36.18-3-.4-.14-1.15a58.2,58.2,0,0,1,14.47-1.34c11.17.17,22.25,1.1,33.29,1,1.38,0,2.75,0,4.13-.1s2.72-.13,4.09-.26c2.74-.25,5.47-.63,8.17-1.11a56.33,56.33,0,0,0,15.61-4.83c2.82-1.48,5.55-3.51,6.7-6.35a7.86,7.86,0,0,0,.4-4.46,10.86,10.86,0,0,0-.27-1.09,1.78,1.78,0,0,0-.2-.45,3.49,3.49,0,0,0-.28-.43,6.63,6.63,0,0,0-1.62-1.54,15.16,15.16,0,0,0-4.37-2,27.6,27.6,0,0,0-4.9-1,55,55,0,0,0-10.11-.15,120.63,120.63,0,0,0-22,3.9c-7.25,1.92-14.4,4.27-21.45,6.87-4.35,1.59-8.64,3.31-12.92,5.08-2.15.86-4.26,1.81-6.39,2.72-1.07.45-2.13.92-3.18,1.4l-3.48,1.57-1.78.8-.44.2c-.13,0-.38.24-.28,0l.11-1,.4-3.49c.21-1.74.42-3.49.66-5.24.48-3.5,1.06-7,1.8-10.44a87.24,87.24,0,0,1,6.67-20,56,56,0,0,1,21.4-24c1-.61,2-1.25,3.11-1.76s2.1-1.13,3.23-1.58,2-.86,2.84-1.18l2.43-.85c1.46-.52,2.7-.76,3.7-1a14.63,14.63,0,0,1,2.49-.42,10.14,10.14,0,0,1,1.72,0,10.46,10.46,0,0,1,1.3.1c.45.12-.18.47-1.69,1S196,51,193,52a59.09,59.09,0,0,0-12.74,6.32,53.1,53.1,0,0,0-10.84,9.54c-6.39,7.36-10.63,16.57-13.24,26.18a145.49,145.49,0,0,0-3.9,22l0,.17h0v0h0l.31-.14c1.73-.77,3.44-1.57,5.19-2.31l5.22-2.25,5.25-2.18Z"/></g></svg>