<svg id="Layer_1" data-name="Layer 1" xmlns="http://www.w3.org/2000/svg" width="520" height="520" viewBox="0 0 520 520"><defs><style>.cls-1{fill:#221f1f;}</style></defs><title>Notioly v2</title><g id="_80.Hug" data-name="80.Hug"><path class="cls-1" d="M255.63,222.11c-2.2.74-4.41,1.67-6.63,2.6-.81.34-1.6.74-2.42,1.07a76.22,76.22,0,0,1-8.89,3c-1.34.36-2.7.72-4.07,1a15.9,15.9,0,0,1-5.37.47c-.56-.07-.46-.62,0-1.16a3.43,3.43,0,0,1,2.19-1.15,58.16,58.16,0,0,0,10.14-2.12,50.7,50.7,0,0,0,6.08-2.39c2.22-.93,4.44-1.91,6.74-2.78a31.71,31.71,0,0,1,4.37-1.37,10.78,10.78,0,0,1,3.6-.26,11.21,11.21,0,0,1,3.39,1.15,28.57,28.57,0,0,1,4.57,2.78c.32.24.63.47.93.73,1.09,1,1.32,1.59,1,2.18a1.23,1.23,0,0,1-.23.37c-.38.24-.8.12-1.57-.5a39.78,39.78,0,0,0-3.66-2.58,17.25,17.25,0,0,0-4-1.89c-1.71-.49-4,.1-6.21.87Z"/><path class="cls-1" d="M205.24,276.75q1.71-4.94,3.55-9.83l1.28-3.59c1.65-4.17,3.34-8.31,5.12-12.42.76-1.83,1.55-3.67,2.28-5.5a48.21,48.21,0,0,1,3.23-6.91c.82-1.36,1.77,1.38.56,4-2.09,4.68-4.17,9.35-6.27,14.09-1.3,2.83-2.33,5.89-3.44,8.86-1.22,3.27-2.42,6.55-3.56,9.85-.71,2-1.4,4.06-2.05,6.11-1,3.09-2,6.22-2.75,9.34-.6,2.43-1,4.86-1.38,7.28-.09.54-.09,1.06-.17,1.59s-.12.9-.18,1.24a7.3,7.3,0,0,1-.15.82,1.58,1.58,0,0,1-.6.92,3.6,3.6,0,0,1-.4.31c-.44.23-.8-.63-.83-2.25a62.12,62.12,0,0,1,2.57-13.79c1-3.39,2-6.75,3.14-10.09Z"/><path class="cls-1" d="M277.62,327.48l-11.75-1.38c-1.43-.17-2.87-.28-4.3-.47-5-.67-10.07-1.43-15.07-2.52-2.21-.49-4.44-1-6.62-1.63a28,28,0,0,1-4.15-1.53,10.42,10.42,0,0,1-3.69-2.7c-.63-.77-.06-1,.83-.81a13.66,13.66,0,0,1,3.46,1.19,40.14,40.14,0,0,0,7.93,2.77c2.78.71,5.63,1.3,8.51,1.88,3.44.69,7.1,1,10.67,1.46l11.83,1.35,7.29.83c3.68.43,7.37.91,11,1.39,2.84.36,5.64.64,8.45,1.09.62.09,1.23.17,1.85.3,2.3.43,3,.79,3.35,1.45a2.07,2.07,0,0,1,.22.45c.11.48-.9.61-2.56.35-4.95-.7-10.17-1.42-15.45-2.06-3.92-.48-7.87-.94-11.82-1.36Z"/><path class="cls-1" d="M218.25,184.69a48.11,48.11,0,0,1-1.68-8.25c-.14-1-.29-2-.36-3a70.58,70.58,0,0,1,.18-10.69c.14-1.57.27-3.14.41-4.7a25.05,25.05,0,0,1,1-5.95c.43-1.18,2.33.86,2,3-.63,3.91-1.07,7.84-1.4,11.85a42,42,0,0,0,.28,7.34,50.71,50.71,0,0,0,1.35,8,36,36,0,0,0,1.57,4.7,22.48,22.48,0,0,0,3.87,6.33,14.56,14.56,0,0,0,4.5,3.26c.37.16.72.32,1.1.47,1.39.56,1.81.77,2,1.51a4.26,4.26,0,0,1,.1.49c0,.52-.73.75-2,.46a13.9,13.9,0,0,1-5.2-2.56,19,19,0,0,1-4-4.36,30.08,30.08,0,0,1-3.71-7.84Z"/><path class="cls-1" d="M284.69,106.87a31.73,31.73,0,0,1,1.4-2.87c.18-.34.31-.71.51-1a34.07,34.07,0,0,1,2.37-3.3c.36-.48.71-1,1-1.46a4.8,4.8,0,0,1,1.49-1.74c.42-.24,1.74,1.78,1.25,2.37-.88,1.11-1.78,2.2-2.81,3.28a10.23,10.23,0,0,0-1.41,2.28c-.48.86-.94,1.74-1.34,2.65-.24.55-.48,1.12-.67,1.7a15.85,15.85,0,0,0-.72,2.68,10.83,10.83,0,0,0,0,2.13c0,.15,0,.3,0,.46,0,.57-.16.74-.8.85-.15,0-.3.06-.44.07a.9.9,0,0,1-1-.68,9.16,9.16,0,0,1,.07-4.29,22,22,0,0,1,1-3.11Z"/><path class="cls-1" d="M319.22,69a6.56,6.56,0,0,0-1.6.69c-.19.1-.32.29-.51.41a8.76,8.76,0,0,0-1.83,1.51,2.61,2.61,0,0,0-.51.9c-.16.42-.13.84-.44,1.12a2.09,2.09,0,0,1-1.29-.2c-.56-.21-1.09-.74-1-1.09a5.34,5.34,0,0,1,2.14-2.85c.58-.39,1-.95,1.56-1.35a10.1,10.1,0,0,1,2-1.12,12.83,12.83,0,0,1,1.32-.45,7.66,7.66,0,0,1,1-.21c.35,0,.7-.1,1.05-.11.55-.08,1.1-.16,1.68-.19.13,0,.26,0,.38,0,.47.09.57.29.44.92,0,.14-.06.28-.1.42a1.3,1.3,0,0,1-.69.9,21,21,0,0,1-2.09.34,7.45,7.45,0,0,0-.77.15,3.61,3.61,0,0,0-.77.24Z"/><path class="cls-1" d="M361.55,176.9a11.92,11.92,0,0,1-4-1.48,6.25,6.25,0,0,1-1.33-.85,10.53,10.53,0,0,1-3-4.46c-.22-.74-.55-1.45-.73-2.18a6.31,6.31,0,0,1-.45-2.84c.09-.6,2.5-.05,2.64.86a24.71,24.71,0,0,0,1.3,4.81,3.59,3.59,0,0,0,.84,1.23,5.38,5.38,0,0,0,.55.52,6.7,6.7,0,0,1,.6.45,8.73,8.73,0,0,0,3.09,1.42,5.65,5.65,0,0,0,1.07.22,6.86,6.86,0,0,0,1.11.13,13.85,13.85,0,0,0,3.4-.14,15.79,15.79,0,0,0,2.53-.79c.18-.07.35-.16.54-.23.68-.22.94-.13,1.28.45.07.13.16.26.22.39a.92.92,0,0,1-.47,1.22,12.48,12.48,0,0,1-5.09,1.46,14.1,14.1,0,0,1-2.06.06,16.72,16.72,0,0,1-2.1-.19Z"/><path class="cls-1" d="M351.36,230.69c-3.22-12.05-22.8-21.25-44-5.22-3.37-5.84-23.3-23.88-24.07-24.81,21.12,5.17,27-32.26,35.17-33,5.94-.53,9-35.08,7.58-36.64-17.31-18.63-15.78-38.61-15.73-38.26-38.22,2.42-50.74,67-47.94,76.78-6.28-4.58-7.16-10.07-8.73-16.41-6.81-27.44-26.06-26.41-25.75-30,7.3-86,69.15-74.8,85.43-50.22.6.9,87.25-29.11,40.93,93.21-4.42,11.66,11.47,24.42,15.28,35.52C374.28,215.49,358.8,221.89,351.36,230.69Z"/><path class="cls-1" d="M254.07,64.65a48.94,48.94,0,0,0-10.9,11.78A74.56,74.56,0,0,0,235.94,91l-1.33,3.86c-.47,1.29-.76,2.63-1.15,3.94-.79,2.62-1.32,5.31-1.9,8-.31,1.33-.52,2.69-.73,4l-.65,4.07c-.22,1.35-.32,2.72-.49,4.09l-.44,4a.26.26,0,0,0,.09.21,5.62,5.62,0,0,0,.89.54c.76.39,1.62.76,2.47,1.15a46.5,46.5,0,0,1,5.11,2.62,33,33,0,0,1,8.73,7.59c4.91,6,7.48,13.56,9.05,20.81a28,28,0,0,0,2.72,7.48,17.14,17.14,0,0,0,1.07,1.6,9.05,9.05,0,0,0,.61.75c.11.14.13.15.2.23l.37.34c.11.07.34.32.23,0a5.69,5.69,0,0,1-.06-.74v-.43l0-.76c0-.52,0-1,.07-1.54.12-2,.39-4,.68-6A110,110,0,0,1,264,145c3.14-11.71,7.75-23.14,14.72-33.21a64.51,64.51,0,0,1,5.8-7.11c1-1.15,2.19-2.16,3.3-3.22.57-.52,1.19-1,1.78-1.46a22.31,22.31,0,0,1,1.84-1.4l1.92-1.31c.64-.43,1.34-.77,2-1.16a39.18,39.18,0,0,1,4.18-2c.72-.3,1.47-.5,2.2-.76a16.15,16.15,0,0,1,2.23-.64l2.28-.5a8.7,8.7,0,0,1,1.14-.17L308,92l.29,0s.06.11.1.18l.1.27.21.54,1.15-1.1.07-.06s0,0,0,0l0,.09.07.19.15.39c0,.12.14.26.11.36a.69.69,0,0,0,0,.32,3.76,3.76,0,0,0,.76.35c.08,0,.23.07.25.15v.85l0,.69c0,.45,0,.89.07,1.33a47.76,47.76,0,0,0,.68,5.32,54.82,54.82,0,0,0,3,10.33,57.77,57.77,0,0,0,4.94,9.57c1,1.51,2,3,3.11,4.41.55.71,1.11,1.41,1.7,2.1l.88,1,1,1.07a2.26,2.26,0,0,1,.5,1.18c.05.32.08.63.1.92,0,.6,0,1.17,0,1.75,0,1.14,0,2.28-.11,3.41-.12,2.26-.33,4.5-.58,6.74a116.82,116.82,0,0,1-2.21,13.37,36,36,0,0,1-2.53,7.68,9.89,9.89,0,0,1-1.17,1.83,4.78,4.78,0,0,1-.9.82,3,3,0,0,1-1.31.49,4.76,4.76,0,0,0-2.64,1.84,39.34,39.34,0,0,0-4.08,6.53c-1.23,2.32-2.42,4.67-3.69,7-2.54,4.62-5.3,9.27-9.24,13a18.32,18.32,0,0,1-7,4.3,10.77,10.77,0,0,1-2,.51l-1,.18-1,.05a6.66,6.66,0,0,1-1.78-.14l-.13,0-.14,0,.1.11.21.2.42.4.91.85,3.6,3.39q3.67,3.48,7.28,7c2.4,2.4,4.77,4.81,7,7.4.57.63,1.12,1.3,1.65,2a7.36,7.36,0,0,1,.46.62l.14.21,0,0,0,0,.1-.08.44-.32c.35-.25.7-.5,1.06-.73.73-.47,1.43-1,2.18-1.39,5.88-3.53,12.74-5.86,19.76-5.58a26,26,0,0,1,10.14,2.41,21.11,21.11,0,0,1,8.13,6.56,13.87,13.87,0,0,1,2.15,4.26c.26,1,.27,1.44.14,1.41-.32,0-1-2.12-3.25-4.76A21.86,21.86,0,0,0,336.45,219a27.4,27.4,0,0,0-9.33-.34,31.31,31.31,0,0,0-5.06,1.07,36,36,0,0,0-5.1,1.91,45,45,0,0,0-4.84,2.59c-.77.52-1.56,1-2.3,1.53l-2.15,1.56-.58.41-.14.11s-.07-.09-.11-.13l-.2-.3-.79-1.18-.4-.59-.19-.3-.05-.07-.08-.1-.05-.07-.42-.53c-.28-.36-.55-.71-.86-1.06-.6-.71-1.2-1.41-1.84-2.1-1.25-1.39-2.56-2.75-3.89-4.09-2.64-2.7-5.36-5.35-8.1-8l-4.14-3.92-1.89-1.79c-.66-.61-1.28-1.24-1.91-1.88l-1.81-1.85-1.68-1.75,3.25.61,3.45.57.87.15c.28,0,.5,0,.76.06a3.46,3.46,0,0,0,.72,0l.38,0,.62,0c.21,0,.41-.07.61-.1a12.45,12.45,0,0,0,4.66-1.71,20.62,20.62,0,0,0,4.05-3.22,39.14,39.14,0,0,0,3.42-4.12,87,87,0,0,0,5.64-9.45c1.77-3.28,3.38-6.66,5.53-10a21.39,21.39,0,0,1,1.85-2.43,7.79,7.79,0,0,1,2.88-2.06c.35-.09.7-.17,1-.23.07,0,0,0,.11,0a1.81,1.81,0,0,0,.55-.51,9.08,9.08,0,0,0,1.18-2.08A52.73,52.73,0,0,0,323,153c.67-3.64,1.17-7.33,1.54-11,.18-1.85.32-3.71.4-5.55.05-.92.07-1.84.06-2.74,0-.45,0-.89,0-1.3,0-.18-.05-.45-.06-.5a.42.42,0,0,0,0-.1l-.55-.61-.63-.71c-.42-.48-.82-1-1.22-1.46-.81-1-1.58-2-2.32-3a62.57,62.57,0,0,1-4.08-6.45,58.56,58.56,0,0,1-5.52-14.24,53.56,53.56,0,0,1-1.21-7c-.12-1.18-.21-2.38-.23-3.6v-.56c0-.06,0,0-.08,0h-.12l-.25,0-1.11.12a7.8,7.8,0,0,0-1.28.23l-2.55.56-2.48.82c-.84.25-1.61.68-2.42,1a38,38,0,0,0-8.86,5.71,57.62,57.62,0,0,0-7.36,7.77,82,82,0,0,0-5.95,9,107.94,107.94,0,0,0-8.54,20,112.21,112.21,0,0,0-4.67,21.23c-.15,1.36-.26,2.73-.29,4.08l0,.51a2.57,2.57,0,0,0,0,.28l0,.45.12,1.81a17.89,17.89,0,0,0,.32,2.09L264,172l-.33-.12a.83.83,0,0,1-.18-.08l-.29-.23-1.18-.92-1.12-.9a10.85,10.85,0,0,1-1.11-1l-1.11-1.07c-.09-.09-.17-.19-.26-.29l-.2-.25-.33-.39a16.09,16.09,0,0,1-1.18-1.66,25.6,25.6,0,0,1-3-7.37c-.65-2.53-1.18-5-1.92-7.39a45.53,45.53,0,0,0-2.71-7,32.94,32.94,0,0,0-9.11-11.6,33.56,33.56,0,0,0-6.32-3.92c-1.13-.56-2.28-1-3.47-1.6a13.42,13.42,0,0,1-1.82-1,3.24,3.24,0,0,1-.49-.35,2.59,2.59,0,0,1-.53-.57,2.49,2.49,0,0,1-.34-.67,6.15,6.15,0,0,1-.06-.75l.59-5.37c.11-.88.18-1.76.31-2.64l.42-2.63c.3-1.75.51-3.51.88-5.24l1.12-5.21a93.81,93.81,0,0,1,7.17-20.07,57.9,57.9,0,0,1,9.93-14.32,43.08,43.08,0,0,1,14.37-9.93,40.69,40.69,0,0,1,17.15-3.16,46,46,0,0,1,17,3.75,46.58,46.58,0,0,1,9.87,5.68l2.2,1.82c.71.63,1.38,1.32,2.07,2s1.27,1.42,1.91,2.13a11.7,11.7,0,0,1,.88,1.12l.71,1c.08.08.11.23.22.24a1.86,1.86,0,0,0,.34,0l1.09-.23,2.52-.54q2.54-.52,5.1-.91a72.67,72.67,0,0,1,10.33-.82c6.88,0,14,1.12,20.12,4.61A27,27,0,0,1,361.13,81a31.63,31.63,0,0,1,4.9,9.18c2.25,6.59,2.72,13.57,2.48,20.38a121,121,0,0,1-2.63,20c-1.37,6.55-3.11,13-5.08,19.34q-1.49,4.76-3.13,9.46L356,164l-.86,2.33-.35,1.1c-.09.37-.17.74-.24,1.12a16,16,0,0,0,1.72,9.07,59.46,59.46,0,0,0,5,8.38c1.65,2.39,3.36,4.73,5,7.17a38,38,0,0,1,4.24,7.93,18.84,18.84,0,0,1,.94,4.07,15.13,15.13,0,0,1-.12,3.88,16.16,16.16,0,0,1-2.57,6.16,36.18,36.18,0,0,1-6.64,7c-3.94,3.24-6.28,4.89-8.17,6.3-.87.63-1.94,1.55-2.45,1.93s-.42.12,0-.56a23.41,23.41,0,0,1,2.79-3.21c1.41-1.43,3.34-3.13,5.6-5.15a41.52,41.52,0,0,0,7-7.54,12.85,12.85,0,0,0,2.29-7.71,18,18,0,0,0-2.57-7.92c-2.83-5.1-6.72-9.77-10-15a33.42,33.42,0,0,1-4-8.63,16.2,16.2,0,0,1-.59-5,13,13,0,0,1,.36-2.55,20.34,20.34,0,0,1,.76-2.35c2.13-5.73,4.12-11.52,5.91-17.4s3.37-11.83,4.62-17.86a118.51,118.51,0,0,0,2.45-18.26,58.11,58.11,0,0,0-1.63-18.11,26.25,26.25,0,0,0-18.72-19.57,42.47,42.47,0,0,0-10.69-1.62,66.27,66.27,0,0,0-11,.64c-1.83.24-3.65.56-5.47.92l-2.73.58-1.62.35a3.14,3.14,0,0,1-1.32.06l-.13-.09-.07,0,0,0,0,0s0-.09-.05.08l-.24-.21-.48-.4-1.47-2c-.41-.52-.87-1-1.3-1.51-.22-.24-.43-.5-.66-.74l-.72-.7c-.48-.45-.95-.94-1.45-1.38-1-.84-2-1.74-3.16-2.48-.56-.38-1.09-.8-1.66-1.14l-1.73-1a45.46,45.46,0,0,0-15.16-5.44,39.26,39.26,0,0,0-30.5,7.33Z"/><path class="cls-1" d="M285.65,202.13a15.71,15.71,0,0,1-6.74-2.67,27.91,27.91,0,0,1-5.18-4.68,38.57,38.57,0,0,1-3.08-3.93,58.86,58.86,0,0,1-7.27-15.76,62.42,62.42,0,0,1-1.79-7.5,30.31,30.31,0,0,1-.45-5,17.88,17.88,0,0,1,.17-2.52,11.32,11.32,0,0,1,.67-2.49c.4-1,.92-.6,1.25.37a5.29,5.29,0,0,1,.21.81,7.07,7.07,0,0,1,.2,1,13.2,13.2,0,0,1,.14,2.34,38.78,38.78,0,0,0,1.11,9.32,68.73,68.73,0,0,0,2.89,9.22A45.08,45.08,0,0,0,273.64,191c2.59,3.45,5.74,6.66,9.67,8.16a11,11,0,0,0,7.52.17,16.52,16.52,0,0,0,5.17-2.92,27.14,27.14,0,0,0,4.26-4.31,51.36,51.36,0,0,0,5-7.93c.32-.62.6-1.23.93-1.85,1.19-2.29,1.66-3,2.5-3.18a2.69,2.69,0,0,1,.56-.14c.56,0,.45,1.13-.3,2.92a51.81,51.81,0,0,1-4.14,7.84,38.72,38.72,0,0,1-5.86,7.22A21.48,21.48,0,0,1,293,201a13.75,13.75,0,0,1-7.37,1.17Z"/><path class="cls-1" d="M265.66,184.34a53.86,53.86,0,0,1-2.29-5.17c-.68-1.74-1.25-3.56-1.87-5.16a7.18,7.18,0,0,0-.48-1l-.11-.17a.43.43,0,0,1-.09-.1h0l0-.05,0-.07,0,0c-.18.29-.06.08-.1.14h0l-.33-.23a11.15,11.15,0,0,1-2.3-2.13,21.25,21.25,0,0,1-3-5.05c-3-7-4.19-14.31-6.83-21a20.33,20.33,0,0,0-3.81-6.53,60.46,60.46,0,0,0-5.54-5.55A41.09,41.09,0,0,0,227.42,125,30.6,30.6,0,0,0,214,122.87a32.94,32.94,0,0,0-23.36,12.9,25,25,0,0,0-3.1,5.21,19.58,19.58,0,0,0-1,2.85,9,9,0,0,0-.31,1.46c-.09.47-.17,1-.25,1.53a37.71,37.71,0,0,1-1.4,6.26,26.68,26.68,0,0,1-1.18,3,23.58,23.58,0,0,1-1.5,2.86,28.5,28.5,0,0,1-5.34,6.29,37.32,37.32,0,0,1-6.79,4.62,62.82,62.82,0,0,1-15.21,5.59c-3.27.78-3,.06-.4-1.25.64-.32,1.42-.68,2.32-1.07s1.88-.88,3-1.35c2.18-1,4.71-2.09,7.4-3.37,1.17-.59,2.33-1.22,3.46-1.87a36.43,36.43,0,0,0,3.21-2.21,24.34,24.34,0,0,0,5.36-5.46,24.72,24.72,0,0,0,3.42-6.83l.52-1.87c.17-.63.28-1.27.42-1.91.27-1.32.38-2.51.7-4.06a23.42,23.42,0,0,1,3.45-8,33.7,33.7,0,0,1,5.58-6.5,35.5,35.5,0,0,1,14.87-8.09,33.06,33.06,0,0,1,20.38,1.24,40.52,40.52,0,0,1,9.08,5.05c1.42,1,2.71,2.14,4,3.26l1.86,1.79.92.9.86,1c.63.71,1.27,1.36,1.89,2.12a18.64,18.64,0,0,1,1.66,2.43,35.55,35.55,0,0,1,2.36,5.2c1.3,3.54,2.25,7.13,3.28,10.67a64.37,64.37,0,0,0,3.64,10.27,15.14,15.14,0,0,0,3,4.25,7.2,7.2,0,0,0,1,.78l.25.18a3.57,3.57,0,0,1,.43.34,4.32,4.32,0,0,1,.56.73,16.58,16.58,0,0,1,1.15,2.72,55.17,55.17,0,0,0,5.54,12.23,53.81,53.81,0,0,0,8.5,10.37c1.23,1.18,2.51,2.3,3.82,3.39s2.7,2.16,4,3.31c2.62,2.29,5.11,4.7,7.53,7.18a121.62,121.62,0,0,1,13.21,15.94,60.12,60.12,0,0,1,7.44,14.17,30.1,30.1,0,0,1,1.64,7.91,17.51,17.51,0,0,1,0,2,9.48,9.48,0,0,1-.1,1.35l-.22,1.51-.1.76c0,.05,0,.16-.05.15l-.18-.05-.37-.12-1.45-.46c-.25-.08-.48-.17-.71-.26l-.7-.35a6.2,6.2,0,0,1-.94-.54,21,21,0,0,1-5.08-5.15c-1.31-1.77-2.31-3.24-3.17-4.43s-1.59-2.1-2.22-2.79-1.16-1.21-1.59-1.66-.82-.75-1.16-1.1a10.3,10.3,0,0,1-1-.81c-.17-.18-.09-.28.26-.28a4.65,4.65,0,0,1,.7.08l.5.1c.17,0,.35.13.55.21,1.63.59,3.77,2.34,5.74,4.91,1.48,1.89,2.8,3.85,4.26,5.61.37.44.74.87,1.13,1.26a10.69,10.69,0,0,0,1.2,1.14,11.44,11.44,0,0,0,1.27,1,4.11,4.11,0,0,0,.68.37l.13.06.12,0s.08,0,.06,0a2.09,2.09,0,0,0,0-.26c0-.45,0-1.09,0-1.63s-.05-1.13-.12-1.7a28.81,28.81,0,0,0-1.63-6.74A58.53,58.53,0,0,0,305,228.5,109.16,109.16,0,0,0,296,217c-2.44-2.71-5-5.34-7.62-7.86-1.32-1.26-2.67-2.5-4-3.69-.69-.59-1.38-1.18-2.08-1.73L280,201.93a57.19,57.19,0,0,1-14.41-17.55Z"/><path class="cls-1" d="M177.12,199.63a5.52,5.52,0,0,1-1.06.28l-1.1.2a16.18,16.18,0,0,1-2.2,0,22.54,22.54,0,0,1-4.1-.84,23.47,23.47,0,0,1-2.81-1l-1.2-.56-1.14-.67a22.35,22.35,0,0,1-2.17-1.47,29.58,29.58,0,0,1-3.75-3.58c-1-1.16-2-2.32-2.87-3.51-1.18-1.49-2.33-3-3.29-4.46-.3-.44.14-.87.93-.91a3.18,3.18,0,0,1,2.57,1.3c1.17,1.6,2.19,3.13,3.32,4.6a33.91,33.91,0,0,0,3.67,4.09,17.31,17.31,0,0,0,5.79,3.38c.58.2,1.17.42,1.76.61l1.82.46c.61.13,1.19.16,1.79.25a15.1,15.1,0,0,0,1.77-.09,10.86,10.86,0,0,0,4.16-1.58,45.56,45.56,0,0,0,5.68-4.4,27.36,27.36,0,0,1,4.65-3.45l.57-.33.62-.25c.39-.14.72-.25,1-.32a3.15,3.15,0,0,1,.73,0,1.13,1.13,0,0,1,.86.48,2,2,0,0,1,.27.4c.19.46-.34,1-1.28,1.31-2.75,1.21-5.16,3.33-7.86,5.67a22,22,0,0,1-7.1,4.45Z"/><path class="cls-1" d="M183.74,216.4a61.65,61.65,0,0,0,4.87-5.11c.53-.66,1-1.36,1.5-2a24.42,24.42,0,0,0,2.31-3.77,16.15,16.15,0,0,0,1.44-4.14,12.58,12.58,0,0,0,.14-3.87c-.24-1.65-.77-3.2-1.16-4.84-.11-.52.48-.71,1.2-.49a2.8,2.8,0,0,1,1.9,1.94,15.85,15.85,0,0,1-1,11.39,35.88,35.88,0,0,1-3.45,5.95,50.88,50.88,0,0,1-4.91,5.53c-1.06,1.07-2.15,2.1-3.22,3.14-1.61,1.57-3.27,3.1-4.69,4.78a13.66,13.66,0,0,0-2.48,4.19,8.87,8.87,0,0,0-.22.93,5.76,5.76,0,0,1-.25,1.18,1.19,1.19,0,0,1-.53.65c-.14.09-.26.22-.4.3a.52.52,0,0,1-.69-.18,1.86,1.86,0,0,1-.33-.55,2.87,2.87,0,0,1-.15-.84,8.75,8.75,0,0,1,1.7-5.11,28.26,28.26,0,0,1,3.21-3.94c1.71-1.78,3.49-3.43,5.18-5.13Z"/><path class="cls-1" d="M175,249.64c-.13-.5-.19-1.11-.29-1.65s-.11-.66-.14-1v-1.9a13.05,13.05,0,0,1,.21-1.87c0-.31.07-.62.14-.93l.25-.89c.12-.44.21-.89.33-1.32s.3-.84.47-1.26a29.53,29.53,0,0,1,5-7.75l1.34-1.52c.46-.5.92-1,1.37-1.49a16.93,16.93,0,0,1,3.92-3.38c.49-.26.78.3.79,1a3.07,3.07,0,0,1-.93,2.29,62.82,62.82,0,0,0-6.86,7.16,18.42,18.42,0,0,0-2.78,5.35,16.47,16.47,0,0,0-.93,6.45l.08.5,0,.25.07.52.32,1.11c0,.06,0,.16.11.18a.25.25,0,0,0,.16-.12,1.94,1.94,0,0,0,.21-.34c.14-.23.27-.49.4-.75.42-.83.83-1.66,1.24-2.48a20.85,20.85,0,0,1,2.77-4.46,6.78,6.78,0,0,1,.9-.87,2.92,2.92,0,0,1,1.62-.69.93.93,0,0,1,.88.45,1.61,1.61,0,0,1,.25.41c.13.5-.3.89-.87,1.31a11,11,0,0,0-2.4,3c-.36.61-.71,1.25-1.05,1.91l-.5,1-.58,1.22a27,27,0,0,1-1.53,3,2,2,0,0,1-1.52,1,1.61,1.61,0,0,1-.48,0c-.07,0-.12-.08-.17-.15l-.16-.23-.62-.89a6.08,6.08,0,0,1-1.14-2.16Z"/><path class="cls-1" d="M219.26,183.11a60,60,0,0,1-2-11.19c-.14-1.37-.28-2.74-.34-4.11a96.66,96.66,0,0,1,.64-14.44c.24-2.12.49-4.25.84-6.35.1-.68.21-1.35.35-2a20.21,20.21,0,0,1,.44-2,13.23,13.23,0,0,1,1.56-3.94c.51-.8.94-.3,1.16.59a7.25,7.25,0,0,1-.06,3.58,73.33,73.33,0,0,0-1.56,7.86c-.41,2.67-.72,5.38-1,8.11a64.64,64.64,0,0,0,.06,10,65.58,65.58,0,0,0,1.53,10.91,36.29,36.29,0,0,0,2.09,6.4,19.48,19.48,0,0,0,5.9,8,12.12,12.12,0,0,0,7,2.3,11.28,11.28,0,0,0,1.64-.05c1,0,1.7-.11,2.19-.06a1.66,1.66,0,0,1,1.09.49,3.54,3.54,0,0,1,.39.38c.32.46-.5,1-2.16,1.38a15.88,15.88,0,0,1-7.84-.56,15.63,15.63,0,0,1-6.67-4.76l-.51-.57-.43-.61-.87-1.24c-.49-.86-1-1.71-1.44-2.61s-.85-1.78-1.16-2.7l-.51-1.38c-.16-.46-.29-.92-.44-1.39Z"/><path class="cls-1" d="M148.77,178.1c3.21-1.89,10.79-1.43,8.18,2.51C153.67,185.56,148.47,183.43,148.77,178.1Z"/><path class="cls-1" d="M153.87,181.55a2.57,2.57,0,0,0,.59-.31,3.41,3.41,0,0,0,.58-.44,3.09,3.09,0,0,0,.53-.55,3.82,3.82,0,0,0,.47-.57,1.33,1.33,0,0,0,.16-.35.82.82,0,0,0,0-.18.38.38,0,0,0-.07-.32,1.71,1.71,0,0,0-.6-.43,6.12,6.12,0,0,0-2-.5,6.24,6.24,0,0,0-1.93.17c-.81.19-1.52.57-2.29.7-.24,0-.56-.5-.62-1.15a1.52,1.52,0,0,1,.78-1.63,9.36,9.36,0,0,1,3.11-.52,8.11,8.11,0,0,1,3.14.58,6.54,6.54,0,0,1,2,1.11,2.62,2.62,0,0,1,.82,2.57,4.88,4.88,0,0,1-1.17,2,5.23,5.23,0,0,1-.73.76,4.91,4.91,0,0,1-.83.66,5.36,5.36,0,0,1-2.5,1,4.41,4.41,0,0,1-2.07-.26,4.9,4.9,0,0,1-1.69-1.16,6.84,6.84,0,0,1-1.64-2.62c-.06-.21-.13-.43-.18-.65-.13-.84.09-1.11.71-1.25a3.39,3.39,0,0,1,.44-.08,1,1,0,0,1,1.06.69,4.92,4.92,0,0,0,1.87,2.72,2.3,2.3,0,0,0,.94.25,2.56,2.56,0,0,0,1.1-.28Z"/><path class="cls-1" d="M200.56,232.85c-1.3,2.34-2.61,4.67-4,7l-4.14,6.87c-2.7,4.56-5.27,9.23-7.74,13.93-1.81,3.44-3.49,6.94-5.19,10.42-3,6.16-5.82,12.39-8.38,18.72a161,161,0,0,0-6.55,19.37c-1.47,5.84-2.54,11.91-2.09,17.78.3,3.72,1.46,7.47,4.08,9.88s6.46,3.1,10.18,3.07c2.33-.09,2.15.54.11,1.3a15,15,0,0,1-1.89.46,14.28,14.28,0,0,1-2.55.15,11.9,11.9,0,0,1-6.37-2,13.12,13.12,0,0,1-4.27-5.18,19.76,19.76,0,0,1-1.7-6.22,44.64,44.64,0,0,1,.56-12.3,119.19,119.19,0,0,1,6.84-23.15C171,284,175,274.81,179.36,266q3.6-7.25,7.54-14.32c1.31-2.35,2.65-4.69,4-7s2.8-4.58,4.13-6.91c3.3-5.71,6.3-11.63,9.87-17.27a58.5,58.5,0,0,1,9.5-11.86,38,38,0,0,1,12.93-7.93l2.79-.94c1-.26,1.91-.45,2.85-.67l2.75-.65a7.31,7.31,0,0,0,2.3-1.15,13.12,13.12,0,0,0,3.33-4.15,53.08,53.08,0,0,1,3-5,19.46,19.46,0,0,1,1.73-2,9.09,9.09,0,0,1,2.3-1.68,11,11,0,0,1,4.25-1c1.14-.05,2,0,2.72,0a17,17,0,0,1,2.9.22c.32.07.75.06,1,.14.38.11,0,.56-1.14,1a19.31,19.31,0,0,1-5.3.85,7.9,7.9,0,0,0-4.2,1.42,14,14,0,0,0-3,3.57c-.9,1.41-1.69,2.95-2.66,4.53a13.45,13.45,0,0,1-4,4.39,10.26,10.26,0,0,1-2.91,1.21l-2.66.61c-.84.2-1.69.36-2.52.59l-2.45.82-1.23.41-1.17.54c-.78.37-1.57.71-2.35,1.09a37.32,37.32,0,0,0-4.34,2.8,46.8,46.8,0,0,0-10.55,11.38c-3,4.35-5.55,9.06-8.14,13.78Z"/><path class="cls-1" d="M251.66,191.91l-.09,0a6.66,6.66,0,0,0-.77,1.41c-.14.3-.22.63-.38.93-.53,1.07-1.09,2.13-1.56,3.22a8.26,8.26,0,0,0-.44,1.5,5.85,5.85,0,0,1-.46,1.84c-.1.16-.72.11-1.29-.15s-1.09-.77-1-1.2a12,12,0,0,1,1.67-4,18,18,0,0,0,1-2.38l1.38-2.89h0l.63-.25c.21-.09.42-.16.54-.2l.86-.28c.86-.28,1.75-.48,2.62-.72.68-.18,1.34-.48,2.07-.63a2.77,2.77,0,0,1,.48-.11c.62-.07.84.14.91.78,0,.15,0,.29,0,.44a1.05,1.05,0,0,1-.58,1,26.64,26.64,0,0,1-3.2,1l-1.25.37-.63.21-.56.19Z"/><path class="cls-1" d="M264.05,201.4c-.58-.29-1.16-.57-1.73-.8-.29-.12-.57-.22-.82-.3l-.29-.07-.46,0c-.46,0-.92,0-1.39,0a44.92,44.92,0,0,0-5.1.35A21.78,21.78,0,0,0,252,201a9,9,0,0,1-3,.42c-.63-.08-.16-2.48.92-2.67a36.53,36.53,0,0,1,6-.62c1.24,0,2.52-.27,3.84-.28.36,0,.72,0,1.08,0,.2,0,.34,0,.57,0a4,4,0,0,1,.65.14,14.85,14.85,0,0,1,2,.77c.8.36,1.56.75,2.32,1.15,1.16.6,2.26,1.29,3.37,2a27.45,27.45,0,0,1,2.63,1.62,4.6,4.6,0,0,1,.56.45c.66.65.68,1.11.22,1.56a3.08,3.08,0,0,1-.33.3,1.13,1.13,0,0,1-1.27,0c-1.21-.81-2.67-1.7-4.17-2.57-1.12-.65-2.27-1.29-3.45-1.83Z"/><path class="cls-1" d="M265.82,208.54l-.31-.31-.08-.08,0,0h0l.15-.17h0l-.12.12c-.05,0,0,0-.05,0s-.07-.07-.15-.11a1.17,1.17,0,0,0-.25-.13,7.32,7.32,0,0,0-1.39-.44c-.37-.09-.76-.09-1.14-.17-1.35-.26-2.76-.48-4.17-.61a11.8,11.8,0,0,0-1.88,0,6.91,6.91,0,0,1-2.4,0c-.51-.14,0-2.49,1-2.53a18.11,18.11,0,0,1,5.06.45c1,.24,2.08.21,3.13.39a17.46,17.46,0,0,1,1.75.4,5.48,5.48,0,0,1,1.87.86,3.72,3.72,0,0,1,.43.39l.36.35.76.69c.78.7,1.55,1.42,2.37,2.08.64.52,1.35.94,2,1.48.15.12.3.23.44.36.5.51.52.83.09,1.32a3.14,3.14,0,0,1-.31.32,1,1,0,0,1-1.22.14,28.73,28.73,0,0,1-3.38-2.52c-.84-.71-1.68-1.45-2.55-2.23Z"/><path class="cls-1" d="M266.46,215.33l-1.08-.9c-.12-.09-.1-.09-.12-.11a.1.1,0,0,0-.06,0,5.79,5.79,0,0,0-.61-.17c-.33-.07-.68-.07-1-.14-1.19-.25-2.41-.5-3.62-.64a7.77,7.77,0,0,0-1.6,0c-.34,0-.65.12-1,.17l-.42.06h-.23a.09.09,0,0,0,0-.06c0-.18-.66-.38-.78-1a1.25,1.25,0,0,1,.05-.54,1.3,1.3,0,0,1,.18-.46,1.06,1.06,0,0,1,.67-.54,10.87,10.87,0,0,1,4.66.36,23.72,23.72,0,0,0,2.7.4c.52.1.94.18,1.58.36a3.54,3.54,0,0,1,.53.23l.38.27.59.47,1.42,1.17c.71.58,1.4,1.2,2.13,1.75.57.43,1.21.76,1.82,1.17.13.09.28.16.4.26.47.4.5.67.11,1.2-.09.11-.17.24-.27.35a1,1,0,0,1-1.15.32,15.75,15.75,0,0,1-3.14-2l-2.23-1.8Z"/><path class="cls-1" d="M253.78,222c-2.46.94-4.92,2-7.43,3-.91.37-1.8.8-2.73,1.14a49.91,49.91,0,0,1-10.19,2.73,40.89,40.89,0,0,1-4.7.48,14.65,14.65,0,0,1-6-.73c-.6-.23-.33-.8.31-1.27a3.69,3.69,0,0,1,1.18-.56,3.1,3.1,0,0,1,1.46-.14,35.53,35.53,0,0,0,11.27-.78,40.51,40.51,0,0,0,6.83-2.33c2.48-1,5-2.06,7.47-3.1,1.54-.63,3.12-1.25,4.75-1.76a16.4,16.4,0,0,1,3.87-.78,7.62,7.62,0,0,1,2.07.13,10.61,10.61,0,0,1,1.93.61,25.46,25.46,0,0,1,5.23,2.93c.35.27.71.51,1.05.81,1.24,1.09,1.49,1.75,1.17,2.41a1.27,1.27,0,0,1-.27.42c-.41.28-.88.15-1.75-.53a38.34,38.34,0,0,0-4.11-2.77,21.24,21.24,0,0,0-2.19-1.09,10.27,10.27,0,0,0-1.1-.38,2.77,2.77,0,0,0-.49-.11,1.93,1.93,0,0,0-.49-.06,10.57,10.57,0,0,0-3.43.48,32.74,32.74,0,0,0-3.67,1.28Z"/><path class="cls-1" d="M204.82,273.44q1.91-5.37,4-10.68c.48-1.3.92-2.61,1.44-3.89,1.79-4.54,3.76-9,5.74-13.47.94-2,1.73-4,2.66-5.93.58-1.26,1.11-2.55,1.78-3.78.33-.62.66-1.24,1-1.85s.82-1.17,1.26-1.73,1-.21,1.08.74a6.84,6.84,0,0,1-.8,3.66c-2.54,4.84-4.81,10-7.24,15.05-.71,1.54-1.37,3.13-2,4.74l-1.84,4.87c-1.36,3.54-2.7,7.1-4,10.69q-1.17,3.3-2.28,6.63L204,283.56c-.49,1.7-1,3.39-1.44,5.09-.32,1.33-.61,2.65-.88,4s-.45,2.64-.67,4c-.07.58-.11,1.15-.19,1.73s-.14,1-.22,1.35a4.54,4.54,0,0,1-.15.89,1.74,1.74,0,0,1-.69,1,3.22,3.22,0,0,1-.45.33c-.5.25-.88-.67-.93-2.45a65.52,65.52,0,0,1,2.91-15c1.05-3.69,2.26-7.34,3.49-11Z"/><path class="cls-1" d="M301.06,361.88q5.32.3,10.66.18c1.78,0,3.55-.12,5.33-.22.86-.08,1.83-.11,2.61-.22a5,5,0,0,0,1.07-.23l.54-.17.53-.25a14.36,14.36,0,0,0,3.89-2.94,31.23,31.23,0,0,0,3.27-4,66.14,66.14,0,0,0,5.26-9.16,142.54,142.54,0,0,0,5.86-14.44,245.46,245.46,0,0,0,7.6-26.52,271.93,271.93,0,0,0,4.84-27.19A177.19,177.19,0,0,0,354,252.3a87.34,87.34,0,0,0-1.5-15.44,38.36,38.36,0,0,0-2.16-7.32,14,14,0,0,0-4.21-5.89c-.31-.2-.57-.39-.78-.55a5.21,5.21,0,0,1-.56-.35q-.42-.31-.33-.48c.06-.1.29-.15.69-.13a4.5,4.5,0,0,1,.73.09c.27.08.58.18.93.31a11,11,0,0,1,4.56,4,23.55,23.55,0,0,1,3.3,7.87,79.33,79.33,0,0,1,1.84,16.23c.12,5.41-.11,10.81-.52,16.18a247.22,247.22,0,0,1-4.84,32c-2.77,12.63-6.1,25.7-10.9,38.08-1.33,3.39-2.78,6.75-4.42,10a63.61,63.61,0,0,1-5.66,9.46,28.46,28.46,0,0,1-3.73,4.2,13.51,13.51,0,0,1-4.94,3,7.32,7.32,0,0,1-1.49.33c-.52.1-.93.09-1.4.14l-2.73.18c-1.82.1-3.64.15-5.46.19a136.44,136.44,0,0,1-26.77-2.31A162.27,162.27,0,0,1,245.1,349.5L237.68,346c-1.23-.58-2.45-1.15-3.66-1.68-.61-.26-1.22-.5-1.82-.69a5.61,5.61,0,0,0-.78-.2.57.57,0,0,0-.46.12,18.28,18.28,0,0,1-3.54,1.51c-1.18.4-2.38.75-3.58,1.06a51.53,51.53,0,0,1-7.32,1.34,30.8,30.8,0,0,1-7,0c-4.43-.46-7.37-2.51-8.43-4.5a6.14,6.14,0,0,1-.88-2.52,5.33,5.33,0,0,1,.08-1.74,9.08,9.08,0,0,1,.39-1.23c.12-.2.24-.12.36.17a4.5,4.5,0,0,1,.18.6q0,.19.09.42t.15.48a6.09,6.09,0,0,0,.39,1.13,7.57,7.57,0,0,0,.65,1.26,7.09,7.09,0,0,0,2.63,2.3,14.38,14.38,0,0,0,5.85,1.38,34.35,34.35,0,0,0,6.38-.33,51.23,51.23,0,0,0,6.41-1.29c1.06-.28,2.11-.6,3.14-.95a16.61,16.61,0,0,0,2.84-1.21,1.71,1.71,0,0,1,.4-.21,1.28,1.28,0,0,1,.42-.17,2.7,2.7,0,0,1,.9-.06l.44.05.33.07c.2,0,.37.1.56.15a19.07,19.07,0,0,1,1.91.73c1.21.51,2.36,1.06,3.51,1.6l6.87,3.27c4.6,2.13,9.27,4.12,14,5.89a142.38,142.38,0,0,0,41.92,9Z"/><path class="cls-1" d="M274.14,328.08c-5.55-.58-11.1-1.22-16.64-2-2-.3-4.06-.57-6.07-1a78.59,78.59,0,0,1-10.56-2.69,32.74,32.74,0,0,1-5.08-2.17,18,18,0,0,1-2.39-1.54,11.94,11.94,0,0,1-2.05-2,28.08,28.08,0,0,0-6.72-6.31,12.76,12.76,0,0,0-10.79-1.64c-1.13.33-1.29-.27-.46-1.22a3.51,3.51,0,0,1,.82-.73,5.56,5.56,0,0,1,1.24-.67,7.53,7.53,0,0,1,3.53-.51,15.57,15.57,0,0,1,6.48,2.29,25.61,25.61,0,0,1,5.09,4.19c.74.78,1.46,1.59,2.13,2.43a13.64,13.64,0,0,0,1.89,2.09,20,20,0,0,0,5,2.92c4.45,1.9,9.57,2.8,14.55,3.65,5.49.92,11.05,1.6,16.62,2.2l10.3,1c5.2.5,10.44,1,15.61,1.61,4,.46,8,.85,12,1.7.87.21,1.74.39,2.62.67,3.25,1.05,4.21,2.17,4.31,3.12a1.71,1.71,0,0,1,0,.64c-.25.53-1.1-.19-3.2-.93a33.25,33.25,0,0,0-5-1.3c-1.75-.34-3.54-.62-5.35-.87-3.63-.5-7.35-.9-11.09-1.27l-16.77-1.62Z"/><path class="cls-1" d="M203.62,321.55a6.75,6.75,0,0,0-.14.76,6.62,6.62,0,0,0,0,.77,2.88,2.88,0,0,0,.17.76l0,.1a1.08,1.08,0,0,0,.1.24l.23.42.45.79.22.39-.89.69-.77.65a6.41,6.41,0,0,0-2.13,4,3.76,3.76,0,0,0,.33,2,16.52,16.52,0,0,0,1.44,2.12c.14.25-.26.72-.86,1a1.6,1.6,0,0,1-1.92-.33,6.63,6.63,0,0,1-1.39-3.61,6.8,6.8,0,0,1,.76-3.64,17.62,17.62,0,0,1,1.07-1.89,6.5,6.5,0,0,1,1.14-1.35l.22-.14-.12-.27a1.35,1.35,0,0,0-.08-.24c-.06-.16-.12-.32-.17-.49-.07-.34-.15-.67-.19-1s0-.68,0-1a7.26,7.26,0,0,1,.77-2.81,9.5,9.5,0,0,1,2.78-3.18,13.06,13.06,0,0,1,2.72-1.73c.22-.09.43-.21.66-.29.85-.26,1.17-.13,1.45.46a3,3,0,0,1,.19.41,1,1,0,0,1-.59,1.19,16.09,16.09,0,0,0-3.88,2.58,5.72,5.72,0,0,0-1.56,2.74Z"/><path class="cls-1" d="M215.63,313.92c-.37-.44-1-1.11-.93-1.13-.08,0-.06,0-.25,0-.84-.09-1.68-.22-2.52-.3a5.14,5.14,0,0,0-1.11,0,2.33,2.33,0,0,1-1.43,0c-.3-.16,0-2.48.51-2.52a8.19,8.19,0,0,1,3,.31,2.77,2.77,0,0,0,.9.1h1.64a.15.15,0,0,1,.17.07l.6.56c.31.31.49.51.73.77l.85.91c.43.45.84.94,1.3,1.36s.81.57,1.22.89a2.78,2.78,0,0,1,.27.21c.31.3.26.55-.22,1l-.33.29a1.24,1.24,0,0,1-1.07.31,6.26,6.26,0,0,1-2-1.44c-.44-.46-.89-.92-1.34-1.37Z"/><path class="cls-1" d="M310.41,313.36c.5-1.81,1-3.63,1.42-5.47.15-.67.23-1.35.39-2,.53-2.36,1.06-4.73,1.41-7.12a24.59,24.59,0,0,0,.24-3.19,36.09,36.09,0,0,1,0-4c.05-.42.67-.44,1.29-.12a2.25,2.25,0,0,1,1.29,1.85,31.59,31.59,0,0,1-1.08,8.64c-.43,1.68-.62,3.46-1,5.17-.4,1.89-.87,3.77-1.36,5.63-.29,1.15-.63,2.29-.93,3.43-.5,1.73-1,3.46-1.5,5.17-.38,1.33-.64,2.68-1,4-.1.29-.17.59-.27.89-.38,1.09-.79,1.39-1.43,1.3a2.32,2.32,0,0,1-.46-.06c-.47-.15-.64-.75-.45-1.47.51-2.29,1.19-4.71,1.87-7.16.51-1.81,1-3.64,1.51-5.48Z"/><path class="cls-1" d="M343.61,302.24a44,44,0,0,1-7.53,1c-.92,0-1.84.14-2.75.12a53.92,53.92,0,0,1-9.58-1.05c-1.4-.27-2.81-.54-4.19-.89-1.76-.48-3.64-.82-5.19-2.38-.49-.58.16-.81.87-1a3.66,3.66,0,0,1,2.38,0,34,34,0,0,0,4.89,1.5q2.57.61,5.21,1.1a33.3,33.3,0,0,0,6.56.3,42.31,42.31,0,0,0,7.2-.69,28.78,28.78,0,0,0,4.29-1.12,20.57,20.57,0,0,0,5.91-3,15.33,15.33,0,0,0,3.34-3.73c.2-.3.34-.64.54-.94a7.18,7.18,0,0,1,.82-1.19,1.23,1.23,0,0,1,.88-.3c.16,0,.33,0,.49,0,.51.08.61.79.21,1.86a16.21,16.21,0,0,1-7,7.63,27.76,27.76,0,0,1-7.28,2.85Z"/><path class="cls-1" d="M199.84,358.12a31.7,31.7,0,0,1,1.64-3.24c.22-.38.37-.8.61-1.16a43.41,43.41,0,0,1,2.76-3.67c.43-.52.82-1.07,1.22-1.61a5.44,5.44,0,0,1,1.84-1.92c.27-.14.62.38.86,1s.41,1.24.12,1.57c-1,1.17-2.1,2.43-3.28,3.63a13,13,0,0,0-1.67,2.56,30,30,0,0,0-1.57,3,15.16,15.16,0,0,0-.76,1.93,12.9,12.9,0,0,0-.44,1.5,7.89,7.89,0,0,0-.26,1.53,10.22,10.22,0,0,0,.19,2.35c0,.17.1.33.13.49.1.62,0,.83-.67,1.07a3.61,3.61,0,0,1-.42.16.86.86,0,0,1-1.11-.59,9.18,9.18,0,0,1-.29-5,20.75,20.75,0,0,1,1-3.58Z"/><path class="cls-1" d="M181,367.68a32,32,0,0,1,4.08-3.1c.52-.34,1-.72,1.57-1a27.37,27.37,0,0,1,6.07-2.42c.93-.26,1.87-.51,2.81-.74a8.74,8.74,0,0,1,3.7-.32c.39.07.32.69,0,1.3a2.11,2.11,0,0,1-1.43,1.27,39.23,39.23,0,0,0-6.65,1.35,16.2,16.2,0,0,0-3.84,1.91,30,30,0,0,0-3.88,2.76,22.6,22.6,0,0,0-2.13,2,15.67,15.67,0,0,0-2.58,3.57,7.22,7.22,0,0,0-.73,3.08c0,.21,0,.42.07.61.09.71.07.86-.44,1.33-.12.1-.22.22-.34.32a.58.58,0,0,1-.68.09,1.41,1.41,0,0,1-.39-.3,2.56,2.56,0,0,1-.3-.55,6.33,6.33,0,0,1,0-3.9,12.66,12.66,0,0,1,1.59-3.31,22.3,22.3,0,0,1,3.42-4Z"/><path class="cls-1" d="M181.14,376.4a8.19,8.19,0,0,1,.85-1.73,4.24,4.24,0,0,1,.33-.59,7.9,7.9,0,0,1,1.77-1.6c.27-.22.55-.42.81-.67s.36-.29.56-.42a1.14,1.14,0,0,1,.71-.13c.17,0,.3.63.39,1.24s.19,1.2.07,1.25a13.61,13.61,0,0,1-1.57.77c-.41.16-.56.58-.8.91a6.41,6.41,0,0,0-.7,1.19,3.83,3.83,0,0,0-.26.81,2.65,2.65,0,0,0,0,1.25,1.62,1.62,0,0,0,.58.71s.11.07.16.11.06.29-.38.76l-.31.33c-.34.36-.74.51-1,.35a3,3,0,0,1-1.44-2.49,6.13,6.13,0,0,1,.24-2.07Z"/><path class="cls-1" d="M222.58,385a35.26,35.26,0,0,1-2.56-6.66c-.33-1.13-.62-2.25-.88-3.38l-.19-.8,0-.19a2.17,2.17,0,0,0-.09-.41c-.08,0-.17.15-.27.22l-.15.13-.59.46c-.48.34-1,.67-1.46,1a50,50,0,0,1-8.13,3.88,56.51,56.51,0,0,1-8.59,2.54,25.78,25.78,0,0,1-8.07.65,7.67,7.67,0,0,1-2.72-.86l-.43-.26c-.14-.08-.19-.26-.29-.39s-.18-.28-.25-.41l-.16-.39a3.48,3.48,0,0,1-.19-1.69,4.57,4.57,0,0,1,1.49-2.71,6.17,6.17,0,0,1,2.51-1.39c1.22-.26,1,.43.45,1.23-.29.4-.65.9-1,1.43a8.07,8.07,0,0,0-.79,1.54,1.2,1.2,0,0,0-.06.51c0,.08,0,.15.07.24l0,.1h0a2.69,2.69,0,0,0,.38.18,2.52,2.52,0,0,0,.44.16,3.74,3.74,0,0,0,.48.12,15.21,15.21,0,0,0,4.54.08,51.37,51.37,0,0,0,9.63-2.18,40.28,40.28,0,0,0,10.89-5.4l.27-.21.21-.15c.07-.07.15-.12.23-.2l.9-.85c.32-.25.61-.37.91-.57a2.29,2.29,0,0,1,.64-.14,2.5,2.5,0,0,1,1,1.54l.91,3.7a48.46,48.46,0,0,0,1.8,5.78,23.13,23.13,0,0,0,1.8,3.67,8.79,8.79,0,0,0,2.61,2.83,5.78,5.78,0,0,0,5.47.09,18.2,18.2,0,0,0,5.08-3.45,39.48,39.48,0,0,0,6.07-7.46c.39-.59.73-1.19,1.11-1.79,1.36-2.25,1.8-2.92,2.64-3.15a2.64,2.64,0,0,1,.55-.17c.56-.05.51,1.19-.39,3a40.28,40.28,0,0,1-5,7.72,29.75,29.75,0,0,1-7.22,6.5,13,13,0,0,1-3.6,1.54,7.89,7.89,0,0,1-4.28-.05,8.11,8.11,0,0,1-3.54-2.35,16.28,16.28,0,0,1-2.19-3.16Z"/><path class="cls-1" d="M206.25,401.62l2.34-.88c.65-.31,1.86-.55,2.73-.83q1.55-.41,3.06-.9c2-.63,4-1.37,6-2.18,1.43-.59,2.82-1.29,4.22-2a65.63,65.63,0,0,0,13.84-8.79,40.91,40.91,0,0,0,5.13-5.15,34.32,34.32,0,0,0,2.67-3.73c.38-.65.77-1.3,1.09-1.95a8.31,8.31,0,0,0,.72-1.89.71.71,0,0,1,.07-.22.37.37,0,0,1,.07-.12.64.64,0,0,1,.29-.17.57.57,0,0,1,.41.06,1.16,1.16,0,0,1,.46.51,5.18,5.18,0,0,1-.56,4.66,36.49,36.49,0,0,1-6.42,7.73,52.27,52.27,0,0,1-7.86,6,95.17,95.17,0,0,1-10.5,5.92c-2,.94-4.05,1.77-6.13,2.52-1,.37-2.08.74-3.14,1.06-.52.16-1,.34-1.58.49l-1.38.39c-.29.08-.6.14-.92.22l-.49.11-.13,0c-.05,0-.09,0,0,.05l.17.17a3.76,3.76,0,0,0,.79.53,3.68,3.68,0,0,0,.44.23l.69.3A31.9,31.9,0,0,0,224,406a27.8,27.8,0,0,0,8.87-1.62l.93-.32.9-.4c.56-.24,1-.42,1.43-.57a8.34,8.34,0,0,1,1-.38,1.91,1.91,0,0,1,1.34,0,3.38,3.38,0,0,1,.54.21c.47.3-.25,1.16-1.93,2.2a29.69,29.69,0,0,1-17.55,3,34.54,34.54,0,0,1-6.69-1.49c-.55-.2-1.1-.36-1.64-.61l-.56-.23c-.25-.11-.5-.21-.72-.33-.49-.23-.83-.51-1.26-.76s-.84-.51-1.16-.77l-.88-.81-1-.89-.25-.23c-.08,0,0,0,.07-.07l.15-.06.59-.23Z"/><path class="cls-1" d="M241.3,407.31c-1,.23-2,.39-3.06.52-.37,0-.72.17-1.1.19a32.87,32.87,0,0,1-4,0c-.59-.05-1.18,0-1.79-.05a10.2,10.2,0,0,1-1.21-.1,2.34,2.34,0,0,1-1.27-.71c-.24-.27.3-.63.79-1a3.26,3.26,0,0,0,.59-.59c.2-.17.35-.29.46-.25.47.1,1.11.19,1.76.26s1.35.15,2.06.27a9.93,9.93,0,0,0,2.59-.21c.95-.12,1.91-.25,2.85-.45a16.81,16.81,0,0,0,1.73-.43,12.09,12.09,0,0,0,2.52-.94,8.56,8.56,0,0,0,1.63-1.22c.12-.09.2-.22.32-.31.41-.34.64-.3,1.13.13.11.1.23.19.34.3a.89.89,0,0,1,.11,1.21,8.19,8.19,0,0,1-3.46,2.46,21.94,21.94,0,0,1-3,1Z"/><path class="cls-1" d="M256.68,399.64a37.74,37.74,0,0,0,5.12-4c.56-.55,1.12-1.12,1.66-1.7.93-1,1.94-2,2.78-3.17.43-.55.88-1.1,1.3-1.66l1.17-1.77a21.2,21.2,0,0,0,1.76-3.33l.49-1.09.42-1.13a12,12,0,0,1,1-2.18c.53-.88,2.23,1.09,1.51,2.92a36.27,36.27,0,0,1-2.26,4.65c-.44.74-1,1.44-1.44,2.16l-.75,1.06c-.26.34-.56.66-.84,1-1.33,1.59-2.61,3.3-4.08,4.83a39.74,39.74,0,0,1-5.29,4.49c-.59.4-1.15.85-1.76,1.21l-1.83,1.1a38.8,38.8,0,0,1-5.87,2.68l-1.16.45-1.19.39a19.77,19.77,0,0,1-2.43.66c-.37.08-.74.12-1.13.17a7.33,7.33,0,0,1-.9,0,2.78,2.78,0,0,1-.62-.16,1,1,0,0,1-.6-.69,2.71,2.71,0,0,1-.13-.44c0-.5.54-.88,1.38-.95a35.45,35.45,0,0,0,7.95-2.47,36.79,36.79,0,0,0,5.67-3.1Z"/><path class="cls-1" d="M289.3,389.35a12.93,12.93,0,0,1-1.8-2.26c-.2-.28-.41-.54-.58-.83a29.5,29.5,0,0,1-1.44-3.15,10.33,10.33,0,0,0-.69-1.32,3.76,3.76,0,0,1-.79-1.72c0-.42,2.28-1,2.61-.33a16,16,0,0,1,1.36,3.5,7.74,7.74,0,0,0,1.09,2,14.59,14.59,0,0,0,1.4,2,7.36,7.36,0,0,0,1.06,1,5,5,0,0,0,.91.55,3.92,3.92,0,0,0,1,.28,4.07,4.07,0,0,0,.79-.09l.73-.29c.11,0,.2-.13.3-.17.39-.18.56-.07.92.49l.24.37a.85.85,0,0,1-.16,1.17,4.29,4.29,0,0,1-2,.84c-.37,0-.76,0-1.15,0a7.21,7.21,0,0,1-1.12-.24,6.78,6.78,0,0,1-1.52-.7,9.28,9.28,0,0,1-1.24-1Z"/><path class="cls-1" d="M290.18,390.92a11.08,11.08,0,0,0,4.21-1.43l.16-.09a9.4,9.4,0,0,0,2.7-1.81,6.53,6.53,0,0,0,1.44-2.31,10.85,10.85,0,0,0,.65-5.06,28.75,28.75,0,0,0-1-5.42c-.44-1.6-1-3.18-1.61-4.75-.38-1-.79-2-1.1-3.11a6.71,6.71,0,0,1-.22-3.63c.4-.95.84-.3,1.27.27a5.72,5.72,0,0,1,1.41,2.33c1.1,3.93,3,8.18,3.39,12.83a24.51,24.51,0,0,1,.12,4.3,9.58,9.58,0,0,1-6,8.47l.11-.06-1.52.8c-.51.25-1.08.39-1.61.59a14,14,0,0,1-5.82.35,17.87,17.87,0,0,1-7.83-3.61,19.46,19.46,0,0,1-4.55-4.85,9.22,9.22,0,0,1-.75-1.29,4.64,4.64,0,0,1-.57-1.91,1.27,1.27,0,0,1,.39-1,1.83,1.83,0,0,1,.36-.33c.45-.26,1,.32,1.49,1.38a18.45,18.45,0,0,0,7.3,7.62,12.88,12.88,0,0,0,7.6,1.65Z"/><path class="cls-1" d="M295.18,385a9,9,0,0,0-.11-1.55c0-.19-.14-.35-.18-.53a7.23,7.23,0,0,0-.61-1.93,2.2,2.2,0,0,0-.58-.67c-.3-.24-.67-.34-.81-.76s1.47-2,2-1.59a4.6,4.6,0,0,1,1.65,2.65c.12.61.46,1.12.62,1.7a9.73,9.73,0,0,1,.31,1.92c0,.39,0,.79.05,1.18,0,.59-.07,1.18-.07,1.76s.1.92.11,1.4a1.71,1.71,0,0,1,0,.32c-.06.39-.25.47-.88.35a3,3,0,0,1-.43-.08,1.28,1.28,0,0,1-.93-.61,5.81,5.81,0,0,1-.22-2c0-.5,0-1,0-1.51Z"/><path class="cls-1" d="M306.51,412.2c3.05-11.84,1.21-47.47,1.21-47.47L298,363.56c9.51,25.32-2.7,29-2.7,29-11.73,5.68-21.95-7.89-21.95-7.89-11.21,19.45-24.63,20.68-24.63,20.68-10.58,5.17-19.42,3-19.42,3-18.25,2.63-23.37-6.95-23.37-6.95,7.89,0,25.58-9.87,25.58-9.87-10.11,1.45-12.92-17.29-12.92-17.29-6.5,6.32-22.08,8.53-22.72,8.53,0,0-2.68,26.69-2.68,29.69C215.66,417.47,306.51,412.2,306.51,412.2Z"/><path class="cls-1" d="M211.61,376.72l1.6-.78c.52-.27,1-.58,1.53-.87a9.21,9.21,0,0,0,.77-.51l.73-.5.72-.62,2.8-2.39c.28,1.77.53,3.65.9,5.21l.2.85.16.63c.11.42.23.83.35,1.25a31.21,31.21,0,0,0,1.82,4.78,16.32,16.32,0,0,0,2.68,4.07,7.64,7.64,0,0,0,1.74,1.41l.12.07c.1,0,.19.11.29.15l.29.13.38.07,1.52.29,8-.61-.8.47-.4.23-.15.09-.57.36c-.52.32-.4.27-.47.33l0,0,0,0-.18.1-.71.4-1.42.77-2.85,1.55-3,1.52c-2.25,1.12-4.44,2.16-6.72,3.15s-4.55,1.92-6.93,2.71c-1.19.39-2.39.77-3.64,1.06l-.46.11-.34.08-.24,0a4.4,4.4,0,0,1-.45.05s-.13,0-.11,0l.07.11.17.21c.07.07.1.12.2.21l.14.13.07.07.22.16a15.8,15.8,0,0,0,4.29,2.44,9.83,9.83,0,0,0,1.19.41c.4.12.79.27,1.21.36a23.31,23.31,0,0,0,2.49.49,21.79,21.79,0,0,0,2.55.25,24.49,24.49,0,0,0,2.57,0c.87,0,1.73,0,2.59-.13l2.87-.31c.51.12.64.14.88.18l.67.11a29.16,29.16,0,0,0,8.79-.28,31.82,31.82,0,0,0,4.3-1.08c.71-.22,1.4-.51,2.09-.76.35-.13.68-.3,1-.44l1.23-.55L249,404l.46-.09c.31-.06.62-.16.94-.23.62-.18,1.25-.37,1.86-.61a27.88,27.88,0,0,0,3.6-1.67,35.82,35.82,0,0,0,6.49-4.69l1.48-1.37,1.39-1.47c1-1,1.76-2.05,2.64-3.09s1.59-2.19,2.39-3.28l1.25-2c.59-.91,1.17-1.94,1.76-2.76.54.7,1.09,1.42,1.64,2.08.28.31.57.65.83.92l.53.55a28.67,28.67,0,0,0,2.23,2,22.87,22.87,0,0,0,5,3.22,14.42,14.42,0,0,0,5.65,1.36,12.5,12.5,0,0,0,5.65-1.24l.21-.08a7.4,7.4,0,0,0,2.79-2.07,13.39,13.39,0,0,0,2.77-7.75,25.2,25.2,0,0,0-.1-4.34,35.67,35.67,0,0,0-.66-4.33c-.12-.73-.33-1.44-.52-2.15l-.57-2.13c-.18-.71-.47-1.4-.69-2.1l-1.1-3.18-.27-.82-.07-.2s0-.07,0-.09h.11l.42.05,1.7.2,3,.35,4.43.52,2.16.26.27,0a1.18,1.18,0,0,1,0,.27l0,.55,0,1.1.14,3,.22,5.74c.13,3.83.22,7.66.24,11.5s0,7.67-.2,11.51a93.49,93.49,0,0,1-1.09,11.52c-.43,2.39-.92,3.38-1.14,3.24s-.28-1.36-.3-3.37c0-4-.22-11.38-.21-20.13,0-5.43-.07-10.87-.24-16.31l-.23-6.14-5.31-.66s0,0,0,0v0l0,.1c.22.66.47,1.31.65,2l.54,2.05c.18.68.38,1.35.53,2.05l.38,2.1a37.45,37.45,0,0,1,.53,4.27,22.81,22.81,0,0,1-1.09,8.79,11.36,11.36,0,0,1-6.31,7h0s.08,0,0,0a15.84,15.84,0,0,1-3.24,1.1,14.16,14.16,0,0,1-3.49.34,17,17,0,0,1-6.67-1.6,25.81,25.81,0,0,1-5.61-3.6,31.81,31.81,0,0,1-2.41-2.23l-.57-.6-.13-.15-.22-.28c-.06,0-.12.15-.18.23l-.1.14-.24.38A52.23,52.23,0,0,1,263,399.46a36.33,36.33,0,0,1-6.49,4.44c-.58.32-1.18.6-1.79.87s-1.23.52-1.85.76-1.27.45-1.93.62c-.32.08-.65.17-1,.24l-.52.1-.34.05-1,.44c-.4.17-.78.37-1.19.52-.81.3-1.6.63-2.43.87a34.91,34.91,0,0,1-5,1.22,33.18,33.18,0,0,1-5.17.42c-.87,0-1.73,0-2.6-.1-.44-.05-.87-.08-1.31-.15l-.65-.1-.47-.09-1.63.17c-.62.06-1.24.16-1.87.17-1.26,0-2.51.14-3.77,0a26.66,26.66,0,0,1-9.6-2,17.8,17.8,0,0,1-4.32-2.55l-.25-.19a4.26,4.26,0,0,1-.32-.3l-.67-.62a14,14,0,0,1-1.2-1.35c-.32-.46-.63-.92-.9-1.38l-.42-.7a.45.45,0,0,1-.09-.29l0-.23c1.05-.07,2.09-.13,3.09-.28l1.52-.2a3.74,3.74,0,0,0,.55-.1l.43-.11c1.14-.26,2.27-.62,3.41-1,2.27-.75,4.5-1.67,6.71-2.63s4.43-2,6.56-3.08l1.35-.69.34-.18c.1-.05.31-.14.09-.1a3.14,3.14,0,0,1-.75,0,2.9,2.9,0,0,1-.76-.23,4.88,4.88,0,0,1-.57-.31c-.31-.18-.59-.4-.89-.61a13.68,13.68,0,0,1-2.79-3.06,28.1,28.1,0,0,1-3.34-7.19c-.32-1-.61-2-.86-3.05-.09-.41-.12-.55-.17-.8s-.1-.47-.13-.71c-.17.13-.36.3-.54.45a2.92,2.92,0,0,1-.28.21l-.4.27a14,14,0,0,1-1.37.84c-.46.27-.93.53-1.41.76a40.77,40.77,0,0,1-5.84,2.36c-2,.66-4,1.21-6,1.67-1,.23-2,.44-3.06.63l-1.54.26-.42.06c-.12,0-.29,0-.37.07L196,391q-.72,7.35-1.42,14.72l-.32,3.68-.12,1.63c0,.31-.17.78.31.72l3.19.54c1.19.21,2.43.26,3.64.41,9.76.92,19.61,1,29.38,1.07,15.19,0,30.09-.62,45.1-1.3l9.87-.49c12.35-.59,16.29-.64,19-.07a15,15,0,0,1,1.78.39c1.22.48-3.8,1.23-12.85,1.83-13.42.87-27.23,1.53-41.24,1.92q-10.51.3-21.18.33c-3.54,0-7.1,0-10.67-.07s-7.13-.14-10.71-.36c-1.95-.12-3.89-.19-5.84-.35l-5.85-.56-3-.5-2.28-.38-1.4-.26c-.09,0,0-.09,0-.14v-.18l0-.36,0-.72c.09-2.32.17-2.78.25-3.86l.24-2.9,1.1-11.59,1.29-12.91c.63-.11,1.3-.25,2-.36l.9-.13.51-.08,2.05-.38c1.36-.29,2.72-.59,4.06-.95a51.8,51.8,0,0,0,7.81-2.7Z"/><path class="cls-1" d="M236,271.68c.81-1.78,1.68-3.55,2.59-5.29.33-.64.61-1.3,1-1.93a39.49,39.49,0,0,1,4.42-6.27,18.09,18.09,0,0,1,2.56-2.45,5.75,5.75,0,0,1,2.27-1.07,3.36,3.36,0,0,1,2.59.53c.47.31,0,.77-.57,1.17-.29.21-.58.35-.83.56a1.8,1.8,0,0,1-.33.21.5.5,0,0,1-.29.11,5.74,5.74,0,0,0-2.69,1.6,33,33,0,0,0-2.73,3,26.27,26.27,0,0,0-2.67,4.44c-.91,1.68-1.77,3.41-2.58,5.17-.49,1.08-1,2.17-1.42,3.27-.68,1.67-1.36,3.36-1.89,5.07a40.49,40.49,0,0,0-.93,4c-.06.29-.1.59-.16.88a3.05,3.05,0,0,1-.4,1.08l-.24-.91v0h0l-.1.11-.14.16a1.84,1.84,0,0,0-.3.43c0,.07,0,0-.19,0l-.47-.08h0a2.5,2.5,0,0,1,.45-.25.46.46,0,0,1,.47,0c.17.17-.05,0,.22.17l.15,0,.21.05s.07,0,.1.1a.36.36,0,0,1,0,.21l0,.12a1.46,1.46,0,0,1-.14.28,1,1,0,0,1-.46.33.93.93,0,0,1-.48,0,1.38,1.38,0,0,1-.56-.23l-.18-.12-.18-.12-.07-.83a1.93,1.93,0,0,1,0-.48,31.52,31.52,0,0,1,1.83-7.63c.65-1.86,1.39-3.69,2.17-5.52Z"/><path class="cls-1" d="M246.24,283.63q.56-2.76,1.35-5.46c.18-.66.33-1.33.55-2a33.15,33.15,0,0,1,3.14-6.59,25.7,25.7,0,0,1,1.9-2.69,7,7,0,0,1,3.44-2.62c.46-.13.6.48.55,1.18a3.84,3.84,0,0,1-.2,1,1.46,1.46,0,0,1-.51.79,20.58,20.58,0,0,0-4.53,5.77,21.26,21.26,0,0,0-1.74,4.53q-.81,2.58-1.38,5.25c-.23,1.1-.44,2.2-.6,3.31a43.29,43.29,0,0,0-.5,5.07,27.55,27.55,0,0,0,.25,3.87l.11.83c.1,1,0,1.36-.62,1.66a4,4,0,0,1-.41.21c-.48.18-1-.22-1.17-1a24.09,24.09,0,0,1-.42-7.5,56.09,56.09,0,0,1,.73-5.62Z"/><path class="cls-1" d="M272.61,303.39c-.18-1.22-.43-2.44-.73-3.66-.12-.44-.3-.86-.42-1.3a46.91,46.91,0,0,0-1.43-4.64,12.7,12.7,0,0,0-.95-1.92,16.31,16.31,0,0,1-1.33-2.2c-.06-.17.32-.68.95-.88a1.61,1.61,0,0,1,1.79.43,17.26,17.26,0,0,1,2.27,5.54c.25,1.16.77,2.27,1.1,3.42s.66,2.56.91,3.86c.15.8.28,1.6.38,2.41a33.06,33.06,0,0,1,.27,3.72,16.65,16.65,0,0,1,0,3c-.05.23-.07.46-.13.69-.28.86-.64,1-1.25.85a3.09,3.09,0,0,1-.43-.14,1.09,1.09,0,0,1-.58-1.11,28.35,28.35,0,0,0,0-4.43,33.18,33.18,0,0,0-.46-3.62Z"/><path class="cls-1" d="M283.85,295.1a37.18,37.18,0,0,0-2-6.88c-.32-.83-.79-1.57-1.14-2.38a46.43,46.43,0,0,0-4.87-8c-.44-.55-.89-1.08-1.34-1.61s-1-1-1.45-1.52a41.71,41.71,0,0,1-3.78-3.85c-.68-.89,2-1.56,3.47-.1a40.68,40.68,0,0,1,7.09,8.84c.57,1,1.2,2,1.77,3,.3.51.61,1,.89,1.52l.78,1.57a41.57,41.57,0,0,1,2.57,7.24c.23.76.32,1.54.49,2.31a23.11,23.11,0,0,1,.39,2.33c.11,1.18.27,2.36.34,3.55s0,2.37.07,3.54c0,.92,0,1.82,0,2.73a20.61,20.61,0,0,1-.09,2.72c0,.39-.06.79-.12,1.19-.2,1.48-.44,1.92-1.12,2.11a2.56,2.56,0,0,1-.46.11c-.5,0-.81-.63-.78-1.69,0-.78.06-1.57.12-2.36s0-1.59.07-2.39l.09-2.4-.09-2.42a30.65,30.65,0,0,0-.28-3.59,25.18,25.18,0,0,0-.59-3.56Z"/><path class="cls-1" d="M290.61,271.13a23.07,23.07,0,0,0-1.63-3.45c-.23-.41-.54-.77-.78-1.17a31.52,31.52,0,0,0-2.94-4.06,10.85,10.85,0,0,0-1.63-1.48c-.74-.55-1.61-1-2.15-1.46-.13-.13-.06-.76.42-1.24a1.66,1.66,0,0,1,1.9-.35,15.1,15.1,0,0,1,4.42,4.6c.66,1.07,1.53,2,2.22,3.09a27.32,27.32,0,0,1,2,3.7,25.18,25.18,0,0,1,.93,2.42,21.75,21.75,0,0,1,.85,3.84,15.19,15.19,0,0,1,.24,3.11,4.12,4.12,0,0,1-.05.7c-.15.88-.46,1.09-1.1,1-.15,0-.3,0-.44-.05a1,1,0,0,1-.76-1.06,22.92,22.92,0,0,0-.42-4.63,19.67,19.67,0,0,0-1.1-3.53Z"/><path class="cls-1" d="M296,261.91a15,15,0,0,0-.54-1.6,15.51,15.51,0,0,0-.66-1.58c-.16-.38-.43-.71-.62-1.09a27.14,27.14,0,0,0-2.28-3.84,9.81,9.81,0,0,0-1.33-1.47,9.68,9.68,0,0,1-1.8-1.76c-.29-.48,1.7-1.82,2.54-1.09a14.94,14.94,0,0,1,3.4,4.46c.5,1,1.22,1.92,1.75,2.92a27.6,27.6,0,0,1,1.51,3.44c.24.74.48,1.46.66,2.22a23.73,23.73,0,0,1,.59,3.47,20.71,20.71,0,0,1,.21,2.76,3.32,3.32,0,0,1,0,.63c-.16.78-.39,1-1,.93a3.13,3.13,0,0,1-.44,0,1,1,0,0,1-.84-1c-.09-1.39-.13-2.73-.36-4.17a20.8,20.8,0,0,0-.8-3.2Z"/><path class="cls-1" d="M315.45,265.5a33.4,33.4,0,0,1,2.8,8.24,22.77,22.77,0,0,1,.46,3.18,20.82,20.82,0,0,1,0,2.37c0,.39-.08.78-.12,1.17l-.08.64-.2.87c-.13.57-.23,1.19-.4,1.7l-.51,1.48c-.16.49-.37,1-.55,1.49s-.37,1.12-.55,1.1l-1.23-2.83c-.26-.59-.52-1.18-.79-1.72-.14-.28-.27-.55-.41-.81l-.38-.72c-.38-.69-.77-1.37-1.18-2-1.05-1.73-2.26-3.26-3.21-5.16l0-.08-.06-.17a.87.87,0,0,1-.05-.22v-.11a.76.76,0,0,1,.07-.31.84.84,0,0,1,1.12-.43l0,0,.18.15a.33.33,0,0,1,.07.21.38.38,0,0,1-.14.29,1.07,1.07,0,0,1-.37.19.92.92,0,0,0-.23.09v0s.08-.17.1-.18,0,0,0,0h.12c.05,0,.2-.06.17-.08s.08,0,.12,0a3.63,3.63,0,0,1,2.48,1.59c.93,1.42,1.8,2.89,2.59,4.4l.29.57.15.28c0,.08,0,0,0,.05a.38.38,0,0,0,0,.1,2.28,2.28,0,0,0,.09.48c0,.17.06.12.1.13a.33.33,0,0,0,.13-.07.88.88,0,0,0,.19-.39l0-.14,0-.07,0-.19.08-.9a21,21,0,0,0-.13-3.63,28.23,28.23,0,0,0-2.15-7.8,43.7,43.7,0,0,0-2.31-4.52,51.6,51.6,0,0,0-4.41-6.37c-1.26-1.55-2.67-2.94-4.06-4.36-.31-.31-.63-.6-.93-.93-1.12-1.21-1.36-1.78-1.06-2.46a1.65,1.65,0,0,1,.22-.44c.35-.37,1-.15,1.86.64a54.2,54.2,0,0,1,7.54,8.32,50.57,50.57,0,0,1,4.56,7.39Z"/><path class="cls-1" d="M188.64,319.17a33.67,33.67,0,0,1,2.62-5.15c.38-.59.69-1.21,1.1-1.78a34.32,34.32,0,0,1,4.89-5.46c.8-.74,1.61-1.48,2.48-2.15a10.46,10.46,0,0,1,1.84-1.21,4.52,4.52,0,0,1,1.14-.4c.23,0,.46,0,.69,0a2.47,2.47,0,0,1,.78.19c.71.38,0,.76-.39,1.24s-.44,1.13-1,1.34a14.74,14.74,0,0,0-3,1.95c-1,.8-2,1.67-3,2.58a20.6,20.6,0,0,0-3,3.87,32.31,32.31,0,0,0-2.6,4.72,23.3,23.3,0,0,0-1.14,3.12,18.54,18.54,0,0,0-.8,4.94,13.72,13.72,0,0,0,.59,3.74c.08.26.18.52.25.78.28,1,.26,1.32-.3,1.75a3.37,3.37,0,0,1-.37.29c-.43.26-.95,0-1.34-.81a14.69,14.69,0,0,1-1.07-7.78,24.46,24.46,0,0,1,1.43-5.75Z"/><path class="cls-1" d="M190.11,331.26a42.46,42.46,0,0,1,2-5.52c.29-.65.51-1.33.83-2a42.59,42.59,0,0,1,3.92-6.34c.67-.88,1.31-1.79,2-2.64a8.06,8.06,0,0,1,3.4-2.79c.47-.16.64.45.62,1.15a2.66,2.66,0,0,1-.66,1.9,39.33,39.33,0,0,0-5.13,5.94,24.4,24.4,0,0,0-2.35,4.44,40.09,40.09,0,0,0-2,5.18,27.44,27.44,0,0,0-.79,3.31,13.06,13.06,0,0,0-.05,5,4.55,4.55,0,0,0,1.85,2.82c.2.11.42.18.61.3.79.3,1.06.44,1.17,1.14,0,.15.08.31.1.46.06.5-.48.87-1.49.73a5.43,5.43,0,0,1-3.71-2.77,9.66,9.66,0,0,1-1.11-4.31,22.39,22.39,0,0,1,.72-6.07Z"/><path class="cls-1" d="M287,150.24a5.42,5.42,0,0,1-1.27,1.06,3.55,3.55,0,0,1-1.85.5,3.46,3.46,0,0,1-1.69-.45,6.35,6.35,0,0,1-1.24-.76,8.07,8.07,0,0,1-.83-.7,9.28,9.28,0,0,1-.69-.86,7.36,7.36,0,0,1-.9-3.5,16.35,16.35,0,0,1,.34-3.25c.19-.91.34-1.83.5-2.72a21,21,0,0,1,.64-3.25c.1-.28.72-.3,1.3.05a1.94,1.94,0,0,1,1,1.81c-.46,2.43-1.15,4.52-1.46,6.64a4.23,4.23,0,0,0,.9,3.31,4.16,4.16,0,0,0,1.51,1.14,1.19,1.19,0,0,0,1.35,0,5.14,5.14,0,0,0,1.56-1.93,16.39,16.39,0,0,0,1.44-4,18.62,18.62,0,0,0,.29-3.32c0-.24,0-.48,0-.72,0-.89.2-1.14.84-1.32a2.71,2.71,0,0,1,.44-.13c.5-.1.92.31,1,1a16.76,16.76,0,0,1-.7,6.59,13.39,13.39,0,0,1-2.41,4.84Z"/><path class="cls-1" d="M303.8,154a3.46,3.46,0,0,0,.85,1.32,2.22,2.22,0,0,0,.63.46,1.88,1.88,0,0,0,.66.27,1.25,1.25,0,0,0,.76-.19,4.38,4.38,0,0,0,1.45-1.71,15.38,15.38,0,0,0,1.08-2.55,16.79,16.79,0,0,0,.6-2.47,9.64,9.64,0,0,1,.87-3.27c.21-.35.76,0,1.23.42a1.92,1.92,0,0,1,.79,1.65,23.83,23.83,0,0,1-2.22,6.57c-.37.65-.71,1.33-1.18,2a4.4,4.4,0,0,1-2.12,1.72,3.69,3.69,0,0,1-3-.39l-.61-.34-.53-.46a5.57,5.57,0,0,1-.89-1.05,8.09,8.09,0,0,1-1-3,18.45,18.45,0,0,1,0-4.46c.12-1.12.16-2.24.34-3.36.05-.24.07-.49.12-.74.24-.9.51-1.14,1.17-1.1.15,0,.31,0,.45,0,.5.11.75.58.7,1.2-.14,1.86-.47,3.77-.54,5.62a9.51,9.51,0,0,0,.45,3.78Z"/><path class="cls-1" d="M295.18,168.78a3.07,3.07,0,0,0,.54-1.44,11.17,11.17,0,0,0,.13-2c0-.53-.12-1-.16-1.58a49.79,49.79,0,0,0-.81-5.7,24.26,24.26,0,0,0-.67-2.5,10.76,10.76,0,0,1-.81-3.26c0-.37.62-.44,1.27-.29a1.93,1.93,0,0,1,1.51,1.11,34.17,34.17,0,0,1,1.31,6.72c.11,1.4.49,2.8.61,4.25a12.41,12.41,0,0,1-.4,5,3.94,3.94,0,0,1-1,1.53,3.14,3.14,0,0,1-1.73.8,6.56,6.56,0,0,1-4.56-1.46,12.14,12.14,0,0,1-2.46-2.61,7.06,7.06,0,0,1-.42-.64c-.46-.84-.41-1.18.1-1.61.12-.09.23-.2.36-.28.42-.27.93-.09,1.32.41,1.15,1.5,2.21,2.91,3.5,3.46a4.25,4.25,0,0,0,1.58.35c.45,0,.49,0,.7-.23Z"/><path class="cls-1" d="M282.66,180.56c.72,0,1.16,0,1.42,0a.58.58,0,0,1,.48.2,13.1,13.1,0,0,0,1.76,1.89A7.14,7.14,0,0,0,288,184a4,4,0,0,0,4.1-.78,5.15,5.15,0,0,0,.69-.84c0-.05.05-.13.13-.13a1.75,1.75,0,0,1,1,.76c.06.09.17.22.15.25-.2.25.19,1-.1,1.27s-.52.48-.77.75a3.64,3.64,0,0,1-.85.76,2.88,2.88,0,0,1-.85.4,8.54,8.54,0,0,1-1.23.12l-.76,0a6.52,6.52,0,0,1-4.23-1.64,9.22,9.22,0,0,1-2.76-3.54A2,2,0,0,1,282.66,180.56Z"/><path class="cls-1" d="M277.59,125.55c-.35-.92-.38-1.57.12-1.59.29,0,.41-.32.65-.43a14.15,14.15,0,0,1,5-1.69c.37-.08.75-.1,1.13-.15a6.37,6.37,0,0,1,1.15-.09,13.58,13.58,0,0,1,3.86.48,14.79,14.79,0,0,1,1.83.78,15.69,15.69,0,0,1,3.43,1.94,12.69,12.69,0,0,1,1.43,1.41,7.09,7.09,0,0,0,.59.46.29.29,0,0,1,.13.28s0,.12-.09.21l-.16.23a2.93,2.93,0,0,1-.36.43,4.72,4.72,0,0,1-.91.71c-.27.16-.63.4-.8.47s-.34.1-.4,0a11,11,0,0,0-1.88-1.78c-.27-.22-.64-.3-.91-.5-.46-.3-.9-.63-1.38-.88a9,9,0,0,0-1.09-.51,5.07,5.07,0,0,0-1.14-.37,9.91,9.91,0,0,0-2.71-.23c-.28,0-.56,0-.85.06-.44,0-.88.12-1.32.2a11.82,11.82,0,0,0-1.29.37,9,9,0,0,0-1.28.56l-.63.33-.6.39a.36.36,0,0,1-.19.08C278.61,126.79,278.47,126.66,277.59,125.55Z"/><path class="cls-1" d="M307.48,132.93c-.15-1-.08-1.58.36-1.45.24.07.4-.16.61-.23a14.18,14.18,0,0,1,4.48-.58l1,0,1,.14a9.35,9.35,0,0,1,3.26,1.29,10.22,10.22,0,0,1,1.33,1.21,10.75,10.75,0,0,1,2.19,2.76,9.64,9.64,0,0,1,.62,1.65,5.33,5.33,0,0,0,.31.57.24.24,0,0,1,0,.28,4.21,4.21,0,0,1-2.12.77c-.71.11-1.2.15-1.24,0a8.29,8.29,0,0,0-.76-2c-.14-.24-.39-.41-.53-.65a11,11,0,0,0-.74-1,5.34,5.34,0,0,0-1.4-1.24,6,6,0,0,0-2-.66,4.85,4.85,0,0,0-.68-.09,5.65,5.65,0,0,0-1.09,0,5.29,5.29,0,0,0-1.12.09,8.14,8.14,0,0,0-1.17.25,6.84,6.84,0,0,0-1.16.38.38.38,0,0,1-.18,0C308.15,134.38,308.05,134.22,307.48,132.93Z"/><path class="cls-1" d="M199.21,158.21a10.69,10.69,0,0,1-1.14,2,5.9,5.9,0,0,1-.88.93l-.54.41-.51.29a4.43,4.43,0,0,1-1.9.62,2.66,2.66,0,0,1-2-.74,3.43,3.43,0,0,1-.59-.83,4.21,4.21,0,0,1-.29-.76,11,11,0,0,1-.32-2.76c0-.78,0-1.55-.06-2.3a8.36,8.36,0,0,1,.1-2.83c.08-.28.7-.26,1.3,0s1.18.76,1.17,1.3c0,1.91-.19,3.78-.14,5.43.13,1.11.39,1.21.92,1.09a4.09,4.09,0,0,0,1.31-.68,4.86,4.86,0,0,0,1-1.3,12.43,12.43,0,0,0,.91-2.1,32.53,32.53,0,0,0,1-3.48c.21-.92.28-1.87.5-2.84a5.08,5.08,0,0,1,.15-.65c.27-.8.61-1,1.24-.83a2.92,2.92,0,0,1,.42.13,1,1,0,0,1,.6,1.13,39.11,39.11,0,0,1-.94,4.9,28.56,28.56,0,0,1-1.29,3.93Z"/><path class="cls-1" d="M286.62,426.77l40.12-5.2c6.67-.89,13.35-1.8,20-2.88,3.31-.54,6.62-1.12,9.86-1.86a31.71,31.71,0,0,0,3.51-1,1.35,1.35,0,0,0,.26-.15.14.14,0,0,0,0-.24.91.91,0,0,0-.26-.13l-.14,0-.41-.09-1.26-.25-1.76-.2-1.8-.19-1.82-.11c-2.42-.19-4.87-.22-7.31-.31q-7.35-.14-14.71-.09c-17.31.07-34.64.55-52,1l-26,.62q-13,.33-26,.14c-7.7-.1-15.42-.3-23.11-.5s-15.38-.47-23-.21c-1.21.05-2.42.12-3.6.26-.59.06-1.18.15-1.74.26-.29.06-.56.12-.82.2a2.11,2.11,0,0,0-.38.12c-.13,0-.24.1-.28.11a.54.54,0,0,0-.39.63.88.88,0,0,0,.14.39,1.06,1.06,0,0,0,.17.26,1.29,1.29,0,0,0,.23.24,8.34,8.34,0,0,0,2.9,1.49c1.12.39,2.3.7,3.49,1.07a14.09,14.09,0,0,1,3.65,1.53,3.63,3.63,0,0,1,1.54,1.94,3.42,3.42,0,0,1-.35,2.47,8.83,8.83,0,0,1-1.18,1.72l-.73.74-.78.65a22.17,22.17,0,0,1-7,3.2,56.53,56.53,0,0,1-7.33,1.54,100.6,100.6,0,0,1-14.8.95c-3.07,0-4.45-.33-4.34-.57s1.64-.41,4.21-.73,6.22-.71,10.56-1.37c2.17-.34,4.51-.73,6.95-1.28a41,41,0,0,0,7.38-2.28,13.75,13.75,0,0,0,2.89-1.67,7.38,7.38,0,0,0,1.1-1.06,5,5,0,0,0,.77-1.15c.14-.36.11-.45.09-.49a1.43,1.43,0,0,0-.65-.56,16.12,16.12,0,0,0-3.14-1.2c-1.17-.36-2.41-.7-3.67-1.17a13.85,13.85,0,0,1-1.95-.88,6.11,6.11,0,0,1-1.94-1.63,3.35,3.35,0,0,1-.41-.64,3.18,3.18,0,0,1-.29-.87,2.51,2.51,0,0,1-.12-.9,2.36,2.36,0,0,1,.09-.88,2.89,2.89,0,0,1,1.09-1.4,4.63,4.63,0,0,1,.82-.45c.24-.11.4-.16.59-.23a19.06,19.06,0,0,1,4.06-.71c5.17-.4,10.17-.26,15.2-.18l15,.41c10,.29,20,.53,30.07.53s20.1-.29,30.19-.46l36.77-.89c12.39-.27,24.85-.59,37.24-.41,3.4.05,6.81.14,10.22.36l2.57.16,2.58.29.64.07.32,0,.39.09,1.55.33.77.17.39.08.46.17a4.05,4.05,0,0,1,1.47.86,1.55,1.55,0,0,1,.56,1.35,2.27,2.27,0,0,1-.83,1.2,6.25,6.25,0,0,1-1.63.9c-.3.12-.67.24-.94.34l-.74.23c-1.68.49-3.35.86-5,1.21-3.36.69-6.72,1.25-10.08,1.78-13.45,2.08-26.94,3.71-40.41,5.46-8.29,1.07-16.57,2.15-24.84,3.32s-16.54,2.42-24.68,4.08c-1.92.4-3.82.83-5.7,1.33a32,32,0,0,0-5.44,1.85l-.12.05-.13.05a1.52,1.52,0,0,0-.31.13.15.15,0,0,0-.07.05,1,1,0,0,0-.16-.14.31.31,0,0,0-.15-.1c-.05,0-.07,0,0,0l.06,0,.14-.07c.12-.07.1-.07.09-.07l.08.07.14.09a8.4,8.4,0,0,0,1.68.67c1.23.37,2.53.66,3.82.92,2.6.51,5.23.92,7.86,1.29,5.27.74,10.58,1.32,15.87,1.85l4,.39a28.25,28.25,0,0,1,4,.55,33.24,33.24,0,0,1,3.94,1.08,19,19,0,0,1,3.77,1.71,7.46,7.46,0,0,1,.89.65,3.81,3.81,0,0,1,.85,1,2,2,0,0,1,.2,1.34,2.34,2.34,0,0,1-.72,1.18,5.36,5.36,0,0,1-1,.7,8.54,8.54,0,0,1-1,.45c-.65.26-1.28.48-1.93.68a52.91,52.91,0,0,1-7.88,1.67c-2.43.36-4.86.63-7.26.94-1.2.15-2.4.31-3.56.53-.59.1-1.16.23-1.72.38a6.75,6.75,0,0,0-1.49.55c-.32.18-.58.42-.53.77a2,2,0,0,0,.64,1,6.44,6.44,0,0,0,2.85,1.37,45.82,45.82,0,0,0,7,1.12c9.53.84,19.16.81,28.81,1,4.25.07,8.42.11,12.71.24,15.92.48,21,1.49,24.3,2.63.75.27,1.72.62,2.14.84.69.41-.56.33-3.4.07s-7.33-.6-13.12-.86c-8.59-.39-17.33-.44-26.17-.56-4.42-.06-8.87-.13-13.34-.26s-9-.34-13.53-.85a35.49,35.49,0,0,1-6.95-1.35c-.31-.12-.6-.19-.91-.34l-.94-.46c-.33-.22-.67-.49-1-.74l-.37-.39a3.48,3.48,0,0,1-.37-.46c-.14-.2-.27-.4-.39-.61a5.33,5.33,0,0,1-.3-.75,7,7,0,0,1-.11-.8,3.42,3.42,0,0,1,.12-.78,3.31,3.31,0,0,1,.9-1.32,4.87,4.87,0,0,1,1.22-.77,16.43,16.43,0,0,1,3.65-1c1.16-.21,2.3-.36,3.44-.51,2.27-.28,4.51-.53,6.73-.85a60.23,60.23,0,0,0,6.53-1.23,30.82,30.82,0,0,0,3.09-1,6.52,6.52,0,0,0,1.21-.58l.12-.08h0l0,0h0l-.08-.08a5.56,5.56,0,0,0-1.09-.74,18.22,18.22,0,0,0-2.87-1.23,27.83,27.83,0,0,0-6.29-1.4c-6.17-.57-12.34-1.19-18.51-2-3.09-.4-6.18-.84-9.28-1.4-1.55-.29-3.1-.6-4.68-1a15.4,15.4,0,0,1-2.49-.89,5,5,0,0,1-.76-.45,3.73,3.73,0,0,1-.5-.49,3.62,3.62,0,0,1-.27-.41,2.57,2.57,0,0,1-.2-.72,2.35,2.35,0,0,1,.11-.83,2.31,2.31,0,0,1,.33-.58,2.67,2.67,0,0,1,.33-.34,2.64,2.64,0,0,1,.29-.21,3.76,3.76,0,0,1,.91-.42h0a33.23,33.23,0,0,1,5.45-1.89c1.82-.49,3.65-.91,5.47-1.3,3.64-.77,7.29-1.43,10.95-2,7.31-1.21,14.63-2.26,21.95-3.26Z"/></g></svg>