<svg id="Layer_1" data-name="Layer 1" xmlns="http://www.w3.org/2000/svg" width="520" height="520" viewBox="0 0 520 520"><defs><style>.cls-1{fill:#221f1f;}.cls-2{fill:#232020;}.cls-3{fill:none;stroke:#000;stroke-linejoin:round;stroke-width:2.02px;}</style></defs><title>Notioly v2</title><g id="_82.Texting" data-name="82.Texting"><path class="cls-1" d="M211.42,250.72c2.31,17.92,35.5,4.27,35.5,4.27s-12.31-25.87-8-41.16c0,0-8.68,0-12.37-5.72C226.52,208.11,223.7,241.44,211.42,250.72Z"/><path class="cls-1" d="M234.87,211.93a19,19,0,0,0,2,.41l.51.07.45.05.52,0c.68,0,1.42,0,2.12.07l-.76,3.6a11.84,11.84,0,0,0-.29,2.08c-.06.7-.17,1.39-.18,2.1v2.14a19.27,19.27,0,0,0,.1,2.14c.06.71.1,1.43.18,2.14.22,1.43.35,2.86.66,4.28s.51,2.58.85,3.86.66,2.55,1,3.82c.74,2.71,1.61,5.39,2.56,8,.47,1.32,1,2.64,1.49,4l.8,1.95.2.49.33.74.71,1.57c-.68.29-1.39.56-2.09.82l-1.45.49c-.89.3-1.79.58-2.7.86q-2.7.81-5.46,1.44a49.78,49.78,0,0,1-12.57,1.52,22.6,22.6,0,0,1-4.08-.48,12.62,12.62,0,0,1-3.9-1.46,10.88,10.88,0,0,1-1.73-1.23,9.57,9.57,0,0,1-1.37-1.61,10.34,10.34,0,0,1-1-1.85c-.11-.33-.21-.67-.31-1a4.39,4.39,0,0,1-.23-1c-.26-1.71,0-1.47.59-.17a10.88,10.88,0,0,0,4.07,5,14.58,14.58,0,0,0,7.23,1.92,39.41,39.41,0,0,0,7.86-.6,74.23,74.23,0,0,0,7.84-1.73c1.29-.36,2.58-.74,3.87-1.15l1.92-.64.44-.15.11,0,.25-.07h0l-.1-.28,0-.1-.12-.29-.24-.58c-.31-.78-.63-1.55-.94-2.33-.61-1.57-1.21-3.15-1.78-4.75-1.15-3.18-2.16-6.45-3-9.73a67.26,67.26,0,0,1-1.91-11,46,46,0,0,1-.13-5.64l.26-2.83c.08-.47.2-.94.29-1.4l.15-.67c0-.05.06-.15,0-.18a6.2,6.2,0,0,1-.79-.07q-.86-.11-1.68-.27a19,19,0,0,1-3.29-1,14.59,14.59,0,0,1-3.06-1.59,7.17,7.17,0,0,1-.71-.52l-.46-.39a5.78,5.78,0,0,1-.57-.63l-.21-.29,0-.07,0,0v0l0,.16,0,.32-.08.64-.28,2q-.34,2.48-.78,4.95c-.57,3.28-1.25,6.55-2,9.77a75.67,75.67,0,0,1-5.09,15.06,30.21,30.21,0,0,1-1.7,3.1,16.16,16.16,0,0,1-3,3.69,8.08,8.08,0,0,1-1.05.74,2.82,2.82,0,0,1-.87.28,2.93,2.93,0,0,1-.72.09c-.6-.14.64-1.33,2.43-3.74a47.55,47.55,0,0,0,5.92-12.6,115.23,115.23,0,0,0,3.54-14.15c.39-2,.74-4.1,1-6.16l.22-1.55.24-1.84c.13-1,.24-2.09.34-3.16l.29-3.17,1.63,2.19c.58.74,1.17,1.59,1.74,2.24a4.37,4.37,0,0,0,.44.42l.33.27a3.19,3.19,0,0,0,.4.33c.3.19.57.4.88.58a15,15,0,0,0,4,1.61Z"/><path class="cls-1" d="M180.71,238.14a30.11,30.11,0,0,0,4.45,9.36,20.29,20.29,0,0,0,7.67,6.63,14.1,14.1,0,0,0,7.11,1.27,18.05,18.05,0,0,0,11.5-5.83,40,40,0,0,0,7.39-11.45,74.59,74.59,0,0,0,4-11.63c1.32-5.08,2.19-10.29,3.29-15.44.65-3.23,2.39,1.26,1.21,7.33A105.36,105.36,0,0,1,223,234.23a50.75,50.75,0,0,1-7.93,14.65,36.47,36.47,0,0,1-3.55,3.71,24,24,0,0,1-4.3,3,18.37,18.37,0,0,1-5,1.84,15.28,15.28,0,0,1-5.35.25,18.32,18.32,0,0,1-10.28-5,28.21,28.21,0,0,1-6.48-9.26A39.24,39.24,0,0,1,177,230a77.55,77.55,0,0,1,0-10.34c.21-3.43.47-6.83.72-10.21.36-5.26.71-10.42,1.06-15.63.09-1.14.15-2.26.26-3.42.38-4.28.7-5.62,1.45-6.47a4,4,0,0,1,.5-.55c.54-.34.73,1.43.56,4.56-.51,9.29-1.34,19.07-2,28.87a103.33,103.33,0,0,0-.3,10.82,43.16,43.16,0,0,0,1.54,10.49Z"/><path class="cls-1" d="M169.13,201.33a9.43,9.43,0,0,0-1.73,4.45,9,9,0,0,0,.13,1.71,11.52,11.52,0,0,0,2.87,5.73,9.63,9.63,0,0,0,2.27,1.86A29.77,29.77,0,0,0,176,216.6c.34.16.21.7-.26,1.13a2.07,2.07,0,0,1-2.15.41,13,13,0,0,1-6.47-5.95,14.42,14.42,0,0,1-1.81-5.12,10.53,10.53,0,0,1,1.35-5.8,11.24,11.24,0,0,1,2.2-2.88,7.8,7.8,0,0,1,5-2.23,4.49,4.49,0,0,1,1.1,0,9.35,9.35,0,0,1,1.08.17,8.24,8.24,0,0,1,2,.82c.27.16.57.3.83.48.87.76,1.07,1.15.8,1.67-.07.11-.08.27-.15.39a.52.52,0,0,1-.22.22.35.35,0,0,1-.14.06,1.72,1.72,0,0,1-.24,0,1.81,1.81,0,0,1-.85-.31,9.9,9.9,0,0,0-2.75-1.29,5.53,5.53,0,0,0-2.74.13,7.5,7.5,0,0,0-3.46,2.88Z"/><path class="cls-1" d="M103.87,348.3c-.17-5.22,1.48-10,3.45-14.51a85.26,85.26,0,0,1,7.32-12.61c2-2.91,4-5.77,6.27-8.5,3.88-4.84,8-9.44,12.31-13.89s8.71-8.77,13.25-13c4-3.71,8.12-7.39,12.24-10.93,2.68-2.27,5.26-4.57,8.09-6.73a32.62,32.62,0,0,1,4.53-2.9,11.88,11.88,0,0,1,5.38-1.53A2.91,2.91,0,0,1,178,264c.27.13.36.25.31.36s-.23.22-.51.32l-.47.15-.59.22a17,17,0,0,0-3.17,1.62c-1.25.78-2.67,1.79-4.24,2.9-2.78,2-5.48,4.35-8.21,6.58s-5.39,4.59-8,6.93c-5.31,4.7-10.53,9.53-15.6,14.55a183.07,183.07,0,0,0-17.19,19.65,113.65,113.65,0,0,0-8,11.88,50.09,50.09,0,0,0-5.47,13,19.34,19.34,0,0,0-.31,8.45,14.09,14.09,0,0,0,4.09,7.18,12,12,0,0,0,5.58,2.83,19.35,19.35,0,0,0,6.45.17,43.91,43.91,0,0,0,12.54-4,104.49,104.49,0,0,0,17.26-10.87c1.2-.9,2.35-1.82,3.54-2.75,4.38-3.49,5.78-4.58,7.12-4.89a5.94,5.94,0,0,1,.89-.2c.73,0-.68,1.89-3.83,4.63A121.15,121.15,0,0,1,145,354.06a68.74,68.74,0,0,1-17.92,8.32,28.83,28.83,0,0,1-7.58,1,16.35,16.35,0,0,1-7.73-1.86,14.73,14.73,0,0,1-5.68-5.64,16.53,16.53,0,0,1-2.25-7.6Z"/><path class="cls-1" d="M169.2,340.82c1.67-10.5-3.9-18.61-7.66-27.86-.32-.79-2.47-.15-2.17.58,3.72,9.15,9.31,17.1,7.65,27.54-.14.89,2.06.53,2.18-.26Z"/><path class="cls-1" d="M157.43,314.45a41,41,0,0,0,4.63-6.26c1.41-2.23,2.69-4.56,3.9-6.93.89-1.72,1.68-3.5,2.51-5.25,1.47-3.1,2.85-6.25,4.2-9.41l1-2.39a8.75,8.75,0,0,1,1.68-2.35,18,18,0,0,1,4.37-3.18,19.41,19.41,0,0,1,4-1.61,14.18,14.18,0,0,1,2.14-.41l.69,0c.27,0,.51,0,.77,0l1.43.19c.33.15.63.31.94.46a.5.5,0,0,1,.27.28.84.84,0,0,1,0,.41,2.2,2.2,0,0,1-.28.73,6,6,0,0,1-1.37,1.48l-.83.66-.61.45c-.4.29-.81.58-1.23.85a31.14,31.14,0,0,1-5.23,2.88c-.59.24-1,.17-1,0a2.19,2.19,0,0,1,.53-1,16,16,0,0,1,3.88-3.41c.51-.33,1-.67,1.51-1l.74-.52.19-.14h-.17a14.28,14.28,0,0,0-1.79.31,16.79,16.79,0,0,0-3.51,1.37,17,17,0,0,0-3.19,2.09,13.45,13.45,0,0,0-1.32,1.29c-.15.23-.37.46-.49.69l-.2.35c-.07.13-.14.3-.21.45-2,4.38-3.81,9.07-5.94,13.52a90.19,90.19,0,0,1-8.17,14.17,47.56,47.56,0,0,1-7,7.32,75.6,75.6,0,0,1-12.41,8.8c-1.33.75-2.69,1.43-4,2.1l-5.74,2.88c.41-1.28.81-2.56,1.22-3.84.31-1,.6-1.94.91-2.93,1-3,1.44-3.92,2.19-4.38a3.6,3.6,0,0,1,.52-.3c.51-.14.44,1.19-.17,3.43l-1,3.38c-.06.2,0,.13,0,.18v.19a.63.63,0,0,0,0,.14l.34-.24,3.15-1.58a58.47,58.47,0,0,0,6-3.59,71.09,71.09,0,0,0,12.12-10.23Z"/><path class="cls-1" d="M165.1,340.54c1.09-8.53-3.92-17.21-7.59-24.58-.24-.5-2.32.27-2.17.58,3.66,7.37,8.67,16.06,7.59,24.58,0,.21,2.09.05,2.17-.58Z"/><path class="cls-2" d="M206.18,278.53,207.6,270a7.62,7.62,0,0,0,.15-1l-.22-.76v0c-.08,0,.18-.13-.18.11h0l0,0,0-.07-.09-.16c-.08-.1-.11-.25-.26-.3a3.54,3.54,0,0,0-1-.24l-1.38-.19-1-.14-4.18-.5-8.37-.9-4.2-.4-2.11-.18-.82-.05a4.14,4.14,0,0,0-1,0c-.15,0-.22.18-.31.27l-.11.15,0,0,0,0h0c-.33-.37-.1-.1-.17-.18l0,.1-.39.73-1.4,11.76c-.08.51,2.57.83,2.61.31l1.26-10.57,2.31.19,4.16.4,8.34.9,4.16.49,1.73.23h0l-1.35,8.07C203.5,278.49,206.12,278.93,206.18,278.53Z"/><path class="cls-2" d="M179.44,317l10.19.73,5.09.37,2.55.19,1.54.11.63.05a2.64,2.64,0,0,0,.5-.15l.24-.07.12,0h0c0-.07.13.15-.1-.16l0,0,0,0,.42-.26a4.08,4.08,0,0,0,.3-1.18l.13-.84.17-1.28.34-2.54.63-5.08,1.2-10.15c.08-.47-2.58-.78-2.61-.31l-1.21,10.14-.63,5.06L198.7,314l-.23,1.67-18.84-1.36C179.26,314.3,179.06,317,179.44,317Z"/><path class="cls-1" d="M231.61,314.07c-2.22,1.15-3.88,3.4-5.63,5.12-3.1,3-6.46,5.89-10.8,6.84-2.64.58-2.05,2.68.57,2.11a25.83,25.83,0,0,0,11.16-5.93c2.39-2,4.58-5.46,7.38-6.9.78-.4,1.09-1.09.39-1.65s-2.39.06-3.07.41Z"/><path class="cls-1" d="M213.21,334.37c9.57-1.22,21.17-6.91,25.24-16.15.64-1.45-2.27-1.34-2.74-.26-3.59,8.13-13.73,13.36-22.2,14.44-1.55.2-2.28,2.23-.3,2Z"/><path class="cls-1" d="M255.46,354.94a44.26,44.26,0,0,0-.85-11.93l-.31-1.49-.14-.67-.24-.63q-.53-1.41-1.14-2.82c-.79-1.88-1.65-3.75-2.54-5.6-1.28-2.72-2.69-5.38-4.05-8.06q-3.6-7.1-7.37-14.12l-1.9-3.51-.95-1.74-.48-.88a2.23,2.23,0,0,1-.15-.31l-.1-.23-.2-.45c-1.08-2.42-2.11-4.86-3.29-7.23a100.72,100.72,0,0,0-6.89-12.22,64.54,64.54,0,0,0-5.39-7.09,32.72,32.72,0,0,0-6.39-5.87c-.75-.46-1-.69-.88-.91s.61-.38,1.48-.24c1.73.25,4.64,1.75,7,4.44a77.55,77.55,0,0,1,10.52,15.56c1.48,2.74,2.8,5.56,4.1,8.39l1.84,4.29.23.53.06.14v0l.13.24.54,1,1.09,2.05c3.44,6.58,7.21,13.32,10.63,20.11,1.86,3.74,3.69,7.5,5.33,11.39.43,1,.76,1.93,1.18,3l.2.84.16.78.3,1.56a57.71,57.71,0,0,1,.81,6.3,31.71,31.71,0,0,1-.36,7.89,12.41,12.41,0,0,1-3.7,7.19,8.92,8.92,0,0,1-2.74,1.6,12.35,12.35,0,0,1-3,.76,14.62,14.62,0,0,1-6.07-.64,28.8,28.8,0,0,1-10.12-6.16,51.43,51.43,0,0,1-6.2-6.59A40,40,0,0,1,220.8,346c-.57-1.19-1.13-2.34-1.66-3.55-2-4.49-2.34-6.05-2.11-7.25a3.85,3.85,0,0,1,.17-.8c.31-.6,1.34,1.12,2.82,4.34,1.1,2.38,2.24,4.84,3.43,7.19a42.61,42.61,0,0,0,4.36,6.58,38.76,38.76,0,0,0,12,10.43c3.43,1.76,7.33,2.46,10.68,1a6.92,6.92,0,0,0,3.56-3.51A15.73,15.73,0,0,0,255.4,355Z"/><path class="cls-1" d="M223,438.56c-28,1.47-80.48-6.84-82.1-7.12h0c-8.91,3.07-18.38,4.9-27.8,4.23-6.72-.48-20.24-5.14-21.29-7.64-1.33-3.21,6.4-3.31,8-3.49,3.56-.38,11.2-.46,11.2-.46a61,61,0,0,1-15.32-7.88C86,408.94,83.48,396,94.29,388.49c8.52-5.91,22.77-7.72,40.83-3,1.51.39,3,.82,4.6,1.29l12.68-19a111,111,0,0,0,73.92-1.42c.76,1.74,7.36,15.48,13.58,20.82,10-2.08,20.32-3.07,30-2a26.37,26.37,0,0,1,15.6,7.18c6.34,6.21,8.85,23.74-18.94,31.78l-.06,0c7.3-.33,15,.24,20.53,3C299.83,433.6,223.87,438.52,223,438.56Z"/><path class="cls-1" d="M218.12,370.76a110.7,110.7,0,0,1-42.84,3.52,113,113,0,0,1-21.12-4.4l-1-.33-.13,0-.07,0,0,.06-1,1.52-3,4.43L143,384.35,141.94,386l-.71,1.06-.47.71-.24.36-.12.18s-.06.15-.15.1l-4.67-1.31c-1.23-.36-2.48-.62-3.72-.93s-2.5-.52-3.75-.77A68.3,68.3,0,0,0,113,384.28a36.3,36.3,0,0,0-16.16,4.2,17.71,17.71,0,0,0-6.07,5.34,12.6,12.6,0,0,0-2.21,7.5A16,16,0,0,0,90.8,409a21.4,21.4,0,0,0,5.5,6.12A59.48,59.48,0,0,0,111.44,423l5.58,2.09-6,.06c-3.29,0-6.6.1-9.85.31l-2.47.2c-.81.05-1.61.12-2.4.23a13.07,13.07,0,0,0-2.24.48,4.29,4.29,0,0,0-.86.37.85.85,0,0,0-.37.38.67.67,0,0,0,0,.52.91.91,0,0,0,.15.23,2.59,2.59,0,0,0,.26.23,10.84,10.84,0,0,0,1.92,1.2,42.05,42.05,0,0,0,4.43,1.94,68.35,68.35,0,0,0,9.36,2.78c1,.21,1.95.38,2.92.52s1.94.17,2.94.23a59.85,59.85,0,0,0,6-.08,68,68,0,0,0,11.85-1.86c1.95-.47,3.88-1,5.79-1.63l1.43-.47.4-.14a4,4,0,0,1,.55-.14,3.68,3.68,0,0,1,.57.06l.4.07,3,.45q6,.9,12,1.67c10.24,1.35,20.52,2.5,30.82,3.39s20.6,1.62,30.87,1.61c6.38-.1,5.6.61.15,1.44s-15.61,1.19-27.52.2c-10.24-.84-20.44-2-30.61-3.3-5.09-.67-10.17-1.37-15.25-2.14l-3.81-.59-.37-.06h0l-.63.21-1.87.6c-2.5.76-5,1.43-7.6,2a66.46,66.46,0,0,1-15.69,1.44c-.66,0-1.32-.07-2-.11s-1.38-.12-2-.21c-1.34-.2-2.64-.46-3.92-.77a73,73,0,0,1-7.56-2.26,37.87,37.87,0,0,1-7.33-3.38,9,9,0,0,1-.94-.69,6.53,6.53,0,0,1-.6-.59,5.31,5.31,0,0,1-.46-.74,3,3,0,0,1,.33-3.25,4.35,4.35,0,0,1,1.35-1.07,7.91,7.91,0,0,1,1.12-.47,14.52,14.52,0,0,1,2.11-.49,38.21,38.21,0,0,1,4-.39l1.94-.15,2-.1c2.6-.1,5.18-.15,7.78-.16l-.47,2.76c-1.22-.46-2.44-.95-3.65-1.47a63.42,63.42,0,0,1-8.7-4.49A30.1,30.1,0,0,1,90.55,413a23.34,23.34,0,0,1-2.77-4.34,19.14,19.14,0,0,1-1.55-5,16.41,16.41,0,0,1,0-5.28,15.66,15.66,0,0,1,1.83-5,19.63,19.63,0,0,1,7.47-7.15,34.58,34.58,0,0,1,9.5-3.57,57,57,0,0,1,19.91-.47,91.6,91.6,0,0,1,10.67,2.15l2.6.73.82.24c.07,0,.17.07.22,0l.13-.19,2.78-4.15,6-8.92,3.25-4.86.3-.45.16-.23c0-.06.08-.2.18-.13l1,.34,1.66.55c.84.27,1.69.51,2.54.77a111.11,111.11,0,0,0,42.12,3.63c1.13-.14,2.28-.21,3.4-.4l3.39-.54,1.69-.27,1.68-.36,3.35-.73c2.23-.5,4.42-1.19,6.63-1.78,1.09-.33,2.16-.73,3.25-1.09l4.07-1.38,1,2.17.69,1.42c.47.93.95,1.85,1.44,2.77,1,1.83,2,3.64,3.1,5.41a60.91,60.91,0,0,0,3.48,5.14c.61.83,1.26,1.62,1.93,2.39.35.36.68.75,1.05,1.1l.43.41.15.14.07.07.1,0,2.11-.4c.82-.16,1.65-.3,2.48-.44,1.66-.27,3.32-.52,5-.72a99.81,99.81,0,0,1,10.08-.72,79.46,79.46,0,0,1,10.11.44,28.7,28.7,0,0,1,9.82,3,26.09,26.09,0,0,1,4.33,2.81c.67.53,1.31,1.11,1.93,1.71a14.27,14.27,0,0,1,1.68,2.06,16,16,0,0,1,2.58,10,17.27,17.27,0,0,1-3.87,9.52,27.5,27.5,0,0,1-7.8,6.55,53.3,53.3,0,0,1-11.9,5l.19-.08-.06,0-.46-1.56a64.77,64.77,0,0,1,12.29.46,33.38,33.38,0,0,1,6,1.44c.5.15,1,.37,1.47.55l.81.38a5.73,5.73,0,0,1,.87.46,2.92,2.92,0,0,1,1.39,1.5,1.81,1.81,0,0,1-.47,1.86,6.23,6.23,0,0,1-1.82,1.24c-.52.24-1,.42-1.5.6-1,.34-2,.62-3,.88-2,.51-4,.92-5.95,1.29-4,.74-8,1.33-12,1.87-4.46.59-8.82,1.12-13.33,1.59-16.7,1.66-22,1.75-25.68,1.32-.83-.1-1.92-.19-2.41-.32-1.63-.46,5.15-1.3,17.34-2.51,5.81-.58,11.67-1.21,17.55-1.93s11.81-1.52,17.68-2.6a68.55,68.55,0,0,0,8.59-2c.35-.11.66-.24,1-.36l.46-.2.11-.05s.1-.06.1-.12a.12.12,0,0,0-.06-.06l0,0-.17-.08-.32-.14a2.71,2.71,0,0,0-.39-.17l-1-.38a34.33,34.33,0,0,0-8.54-1.71,67.12,67.12,0,0,0-9-.14l-7.21.32,6.23-3.65.06,0,.18-.11.22-.06a53.09,53.09,0,0,0,9.16-3.54,29.91,29.91,0,0,0,7.83-5.52,16.21,16.21,0,0,0,4.45-7.93,13.46,13.46,0,0,0-1.16-8.8,11.35,11.35,0,0,0-2.49-3.31,22.58,22.58,0,0,0-3.51-2.7,25,25,0,0,0-8.29-3.26q-1.1-.23-2.22-.36c-.76-.08-1.55-.16-2.32-.22-1.56-.12-3.12-.19-4.69-.22a89.91,89.91,0,0,0-9.42.38c-3.14.28-6.27.72-9.39,1.26l-2.33.43-1.8.36a1.69,1.69,0,0,1-.58.08l-.43-.4-.87-.82a30.81,30.81,0,0,1-3.38-3.83,75.71,75.71,0,0,1-5.4-8.24c-.82-1.42-1.59-2.85-2.35-4.29s-1.76-3.53-1.49-3l-2.82,1c-.73.24-1.45.51-2.19.73l-2.22.62Z"/><path class="cls-3" d="M226.32,366.34c-.16-.35-.25-.57-.25-.57"/><path class="cls-1" d="M295.36,197.43l-24.75-.14-.1,19.14q0,8.5,0,17l-.13,19,12.5.09-2,9.06,5.09-3.39,7.08-4.74,1.14-.77,13,0,12.71,0c11.3,0,22.65-.23,33.94,0,7,.16-1.89,2.48-14.91,2.51H316.76L295,255.11l-17.47,11.62q1.08-4.92,2.15-9.85l.36-1.6.12-.48c.12,0-2.76,0-4.64-.05l-7.35,0c0-9.18,0-18.54,0-27.8q.08-16,.13-32l16.94.07,28.9.11,43,.08v2.11c0,5.65.08,11.25.12,16.83l.18,16.66c0,2.45.05,4.85.08,7.32,0,9.16-.12,12.07-.76,14a10.22,10.22,0,0,1-.44,1.3c-.5.87-.91-2.86-1.05-9.56q-.25-11.61-.36-23.66c0-7.47-.08-15.05-.13-22.69l-12.31,0-47-.09Z"/><path class="cls-1" d="M412.91,150.16l21.23.13L434,172.53q0,7.44,0,14.86l-.12,17.88L397.16,205l-10.37,0-10.06,0-1.85,1.27-13.56,9.3,1.46-7,.49-2.31.26-1.14-5-.11c-2.4-.06-2.68-.45-1.44-.91a18.47,18.47,0,0,1,2.92-.7c.65-.11,1.38-.22,2.17-.32l.65-.08,1.1-.07,2.46-.12c-.25,1.52-.52,3.14-.79,4.84-.1.56-.2,1.14-.3,1.72l-.07.38h0l0,0,3.42-2.32,7.26-4.89,21.21.12,20.79.26,7.35.09,6.33,0c0-7.06,0-14.22,0-21.31q.07-14.53.14-29.07l-10-.06-25.25-.11c-12.75,0-25.55-.11-38.2-.08l-4.1,0c.1,7.94.19,15.75.28,23.61,0,2.14.05,4.24.08,6.39,0,8-.12,10.55-.76,12.27a7.88,7.88,0,0,1-.44,1.13c-.49.77-.9-2.49-1.05-8.35s-.25-11.68-.32-17.66c0-3-.06-6-.09-9,0-3.56,0-7.14-.05-10.73l19.92,0,41.09.09Z"/><path class="cls-1" d="M321.1,82.77l-21.3-.15-.1,16.44q0,7.38,0,14.75l-.12,16.39,10.86.08-1.21,5.65-.46,2.06,1.27-.83,2.89-1.93,6.14-4.1,1-.69,11.34,0,11,0c9.81,0,19.65-.23,29.45,0,6.11.16-1.64,2.48-12.94,2.51H339.67l-18.86-.12L305.32,143.1c.65-3,1.31-6,2-9l.17-.76.08-.33,0-.1c0-.14.07-.28.1-.42l-.35,0h-.81l-2.67,0-6.52,0c0-8,0-16.19,0-24.28q.06-13.93.13-27.87l14.83.06,25.08.12,37.39.08v1.83q.06,7.4.12,14.7c.06,4.82.12,9.63.18,14.46,0,2.13.05,4.21.08,6.35,0,8-.12,10.48-.76,12.19a8.19,8.19,0,0,1-.44,1.12c-.5.77-.91-2.47-1.05-8.29-.17-6.72-.28-13.58-.36-20.53q-.06-9.63-.12-19.48H361.94l-40.82-.08Z"/><path class="cls-1" d="M198.6,375.78c-1.15.16-2.3.2-3.45.26l-3.46.16c-2.3.05-4.61,0-6.91-.06-1.67-.13-3.35-.17-5-.3a99.5,99.5,0,0,1-17.32-3.56c-2.51-.72-5-1.52-7.47-2.34a49.87,49.87,0,0,1-9.2-3.86c-1.78-1.06,1.79-2.46,5.2-1a144,144,0,0,0,18.79,6.33,69.16,69.16,0,0,0,12.1,1.71l3.36.23,3.37,0c2.26.09,4.5-.1,6.75-.21,1.39,0,2.77-.22,4.15-.38s2.76-.32,4.13-.53l6.21-1.2q3.06-.81,6.08-1.67c1.56-.45,3-1.12,4.54-1.69s3-1.14,4.42-1.88c.64-.3,1.26-.63,1.91-.92,2.41-1.08,3.26-1.23,4.11-.74a3.43,3.43,0,0,1,.57.34c.49.45-.3,1.33-2.05,2.27q-1.93,1-4,2c-1.35.67-2.8,1.16-4.22,1.73s-2.87,1.13-4.36,1.57l-4.51,1.27a96.39,96.39,0,0,1-13.73,2.5Z"/><path class="cls-1" d="M189.9,323.05a2.41,2.41,0,1,1-.68.45"/><path class="cls-1" d="M190.36,323.6c.6-.22,1.44.65,1.66,1.11a1.61,1.61,0,0,1-.63,2.1c-1.55.75-2.13-2.16-1.28-3.05a.53.53,0,0,0-.24-.93,1.65,1.65,0,0,0-1.54.41,3.09,3.09,0,0,0-.2,4.08c1.13,1.38,3.25,1.24,4.64.35a2.89,2.89,0,0,0,1.19-4,3.69,3.69,0,0,0-4.51-1.19c-.38.14-.84.61-.55,1s1.07.25,1.46.1Z"/><path class="cls-1" d="M190.38,337.24a2.42,2.42,0,1,1-.68.45"/><path class="cls-1" d="M190.79,337.61c.58-.22,1.55.9,1.75,1.39.26.67.08,2-.75,2.24-.65.22-1.31-.66-1.5-1.18a2.21,2.21,0,0,1,.41-2.38c.36-.38-.31-.53-.56-.53a2,2,0,0,0-1.45.56,2.87,2.87,0,0,0,0,3.9c1.19,1.21,3.27.83,4.57,0s2.07-2.42,1.1-3.8a3.68,3.68,0,0,0-4.42-1c-.26.1-.89.42-.61.77s1.13.08,1.43,0Z"/><path class="cls-2" d="M160.66,316.13a8.61,8.61,0,0,0-1.79.84,3.36,3.36,0,0,0-.88.82,2.52,2.52,0,0,0-.5,1.29,4.44,4.44,0,0,0,.93.11l.94.05c0-.23.16-.46.55-.71a7.27,7.27,0,0,1,1.42-.66s0-.11-.09-.27L161,317l-.24-.6A.84.84,0,0,0,160.66,316.13Z"/><path class="cls-2" d="M164.63,320.89a3.21,3.21,0,0,0-1.56-.84,3.75,3.75,0,0,0-1.71.08,5.92,5.92,0,0,0-2.57,1.57,10.21,10.21,0,0,0,1.32,1.31,4.25,4.25,0,0,1,1.74-1.08,1.47,1.47,0,0,1,1.5.31,1.17,1.17,0,0,0,.21-.2l.45-.45A4.35,4.35,0,0,0,164.63,320.89Z"/><path class="cls-2" d="M164.85,324.77a5.71,5.71,0,0,0-1,0,3.4,3.4,0,0,0-1.12.3,7.76,7.76,0,0,0-.84.5,6.57,6.57,0,0,1-.65.39,1.63,1.63,0,0,0,.11.27l.29.58a6.45,6.45,0,0,0,.46.81c.57-.29,1.12-.72,1.43-.86a1.59,1.59,0,0,1,.52-.13,5.16,5.16,0,0,1,.69,0,1.21,1.21,0,0,0,0-.29c0-.17,0-.41.05-.64s0-.47,0-.64A1.1,1.1,0,0,0,164.85,324.77Z"/><path class="cls-1" d="M216.41,327.24a4.88,4.88,0,0,0,1.15,4.34c.47.47,2.12-.2,1.6-.71a4.31,4.31,0,0,1-1-3.81c.19-.71-1.57-.47-1.74.18Z"/><path class="cls-1" d="M220.71,325.79c-.24,2.1.5,4.3,2.79,4.71.89.16,1.75-1.1.59-1.31-1.56-.28-1.76-2.24-1.61-3.52.11-.91-1.67-.7-1.77.12Z"/><path class="cls-1" d="M224.42,323a4.05,4.05,0,0,0,3.8,4.63c.35,0,1-.12,1.15-.48s-.15-.5-.47-.5c-1.82,0-2.93-2.28-2.74-3.88.08-.68-1.67-.36-1.74.23Z"/><path class="cls-1" d="M229.55,318.2a4,4,0,0,0,3.79,4.63c.35,0,1-.11,1.15-.47s-.14-.51-.47-.5c-1.82,0-2.92-2.28-2.74-3.88.08-.68-1.66-.36-1.73.22Z"/><path class="cls-2" d="M167.9,332.39a2.55,2.55,0,0,0-1.39-.44,2.66,2.66,0,0,0-1.35.41,10.7,10.7,0,0,0-1.6,1.31,13.72,13.72,0,0,0,1.28,1.36,9.14,9.14,0,0,1,1.28-1.06.72.72,0,0,1,.4-.15.61.61,0,0,1,.36.14l.53-.77A6.26,6.26,0,0,0,167.9,332.39Z"/><path class="cls-1" d="M209.42,211c-.78,3-.18,7.83,3.7,8s5.61-4.13,6.49-7.13c.29-1-1.93-.74-2.2.18-.48,1.64-1.9,6.1-4.29,5.27-2.11-.73-2-4.78-1.5-6.51.26-1-2-.75-2.2.18Z"/><path class="cls-1" d="M191.65,208.55c-.78,3-.18,7.82,3.69,8s5.61-4.13,6.49-7.14c.29-1-1.93-.74-2.2.18-.48,1.65-1.89,6.1-4.28,5.28-2.12-.73-1.95-4.78-1.5-6.51.26-1-2-.75-2.2.18Z"/><path class="cls-1" d="M205.69,212.61a30.84,30.84,0,0,1,.33-3.43,11.85,11.85,0,0,1,1.07-3.51c.14-.22.25-.44.42-.66a3.62,3.62,0,0,1,.5-.56c.32-.3.64-.59,1-.87l.44-.36.5-.31,1-.59a7.92,7.92,0,0,1,1.08-.45,4.86,4.86,0,0,1,1.12-.35,9.71,9.71,0,0,1,4.58,0,16.73,16.73,0,0,1,3.71,1.41,11.66,11.66,0,0,1,4,3c.34.45-.15.74-.81.83a3.1,3.1,0,0,1-2.21-.53c-2.38-1.82-5.1-3.14-8-3a7.58,7.58,0,0,0-4.69,2.42,2.57,2.57,0,0,0-.83,1,7.25,7.25,0,0,0-.51,1.36,19.53,19.53,0,0,0-.48,3.12,35.38,35.38,0,0,0-.08,4,42.31,42.31,0,0,0,.6,6.06,26.89,26.89,0,0,0,1.27,4.43l.38.9c.46,1.13.51,1.39.19,1.93-.07.12-.12.27-.19.39-.22.42-1,.13-1.55-.81a24.06,24.06,0,0,1-2.5-8.7,46.8,46.8,0,0,1-.36-6.81Z"/><path class="cls-1" d="M204.38,201.9c-5.63-5-11.06-4.6-17.8-2.3-1.69.58-1.3,2.21.44,1.62,5.67-1.95,9.84-2.45,14.68,1.85.83.73,3.55-.4,2.68-1.17Z"/><path class="cls-1" d="M204.08,239.89a5.18,5.18,0,0,1-2.74-.35,4.11,4.11,0,0,1-.9-.42,6.59,6.59,0,0,1-2-2.52c-.17-.41-.38-.78-.53-1.18a4.28,4.28,0,0,1-.3-1.59c0-.17,0-.13.05,0a7.24,7.24,0,0,0,.65.43,9.2,9.2,0,0,1,2.19,1.9,1.54,1.54,0,0,0,.59.49l.33.18a2.26,2.26,0,0,1,.33.13,4.35,4.35,0,0,0,1.52.46,8.22,8.22,0,0,0,1.1,0c.29-.08.58-.14.88-.21a4,4,0,0,0,.86-.35c.44-.2.82-.49,1.27-.72a2.75,2.75,0,0,1,.3-.14,4,4,0,0,1,.66-.2l0,0a1.52,1.52,0,0,0-.21.43c-.23.43-.42.94-.67,1.44a9,9,0,0,1-1.07,1.25A5.34,5.34,0,0,1,204.1,240Z"/><path class="cls-1" d="M203,272.94a2.65,2.65,0,0,1-2,2.58c-4.23,1-4.11-6.08,0-5.13A2.51,2.51,0,0,1,203,272.94Z"/><path class="cls-1" d="M177.7,180.5c9.52,15.15,33.79,4.89,40.33,11.54,2.12,2.16,11.23,30.71,24.85,19.67,5.19-4.22,8.13-12.34,6.88-21.61-3.12-23.17-27.94-20.93-28.22-21.22-7.79-7.82-24.93-20-41.23-13.73-34.5,13.19-27.52,55.23-58.45,71.62,0,0,13.89,41.15,61.47,21.52.75-.31-7.78-11-6.14-29.54,0,0-10.45-3.78-11-10.28s1.94-11,7.67-11.72,5.55,1.25,5.55,1.25l1.12-12.78Z"/><path class="cls-1" d="M131,218.47a54.83,54.83,0,0,0,5.42-6.25,76,76,0,0,0,4.48-7c2.73-4.87,5-10,7.38-15.17a140.33,140.33,0,0,1,7.77-15.26,56.62,56.62,0,0,1,5-7.06c.9-1.14,1.92-2.17,2.9-3.24s2.08-2,3.23-2.93a44.68,44.68,0,0,1,10.8-6.61,25.9,25.9,0,0,1,3-1.15,20.71,20.71,0,0,1,3.11-.85,26.48,26.48,0,0,1,6.4-.56,39.23,39.23,0,0,1,17.24,5,59.88,59.88,0,0,1,7.54,4.82l1.78,1.36,1.72,1.43,1.66,1.49c.28.25.54.52.81.77l.68.66c.06.09.12.08.27.08l.74,0,1.66.06c1.11.06,2.21.17,3.32.32a35,35,0,0,1,6.51,1.53,23.8,23.8,0,0,1,11.06,7.46,25,25,0,0,1,5.07,12.33,29.56,29.56,0,0,1-1,13.24,20.79,20.79,0,0,1-5.18,8.53,14.36,14.36,0,0,1-4.25,2.83,8.65,8.65,0,0,1-5.18.52,11.11,11.11,0,0,1-4.61-2.28,21.87,21.87,0,0,1-3.51-3.56,50.6,50.6,0,0,1-5.22-8.27c-1-1.84-1.86-3.72-2.76-5.56l-.68-1.36a7.63,7.63,0,0,0-.67-1.13,6.42,6.42,0,0,0-2.31-1.37,20.21,20.21,0,0,0-5.84-.88c-2-.08-4.08,0-6.14,0a64.22,64.22,0,0,1-12.5-.77,25.36,25.36,0,0,1-6.08-2,17.59,17.59,0,0,1-5.2-3.77,10.7,10.7,0,0,1-1.74-2.33c-.29-.54-.36-.81-.25-.83.26-.08,1.1.92,2.75,2.29a19.1,19.1,0,0,0,3.15,2.08,21.75,21.75,0,0,0,4.52,1.73A50,50,0,0,0,200.17,188c4.16.07,8.36-.24,12.81.35a16.11,16.11,0,0,1,3.38.89l.84.39c.28.15.55.34.82.5a6.34,6.34,0,0,1,.77.62,4.18,4.18,0,0,1,.39.37,3.51,3.51,0,0,1,.36.5,30.46,30.46,0,0,1,1.54,3l1.37,2.83a54.41,54.41,0,0,0,6.34,10.49,16.85,16.85,0,0,0,4.28,3.85,6.79,6.79,0,0,0,5.05.87,10.94,10.94,0,0,0,4.75-2.78,17.34,17.34,0,0,0,3.43-4.71,24.69,24.69,0,0,0,2.44-11.63,30.41,30.41,0,0,0-.75-6,22.68,22.68,0,0,0-2-5.65,20,20,0,0,0-8.35-8.39,28,28,0,0,0-7.82-2.77,36.78,36.78,0,0,0-4.21-.6c-.71-.05-1.43-.1-2.15-.12l-1.09,0H222a1.26,1.26,0,0,1-.43,0l-.21-.07c-.08,0-.11-.1-.23,0l-.37-.26-1.11-1.08c-.32-.32-.66-.62-1-.92-.67-.61-1.35-1.21-2.06-1.79s-1.42-1.14-2.15-1.69-1.47-1.08-2.23-1.6a52.66,52.66,0,0,0-9.6-5.26,36.22,36.22,0,0,0-10.54-2.66,25,25,0,0,0-10.62,1.29,13.15,13.15,0,0,0-1.95.73l-1.93.81-1.86.95-.93.48-.9.54a41.15,41.15,0,0,0-6.73,4.94,47.36,47.36,0,0,0-5.65,6.18,66.27,66.27,0,0,0-4.65,7c-5.65,9.79-9.31,20.72-15.22,30.65a52.47,52.47,0,0,1-14,15.93l-2.22,1.5c-.36.26-.76.46-1.15.69l-1,.59-.28.16s-.1.05-.13.09l0,.15.12.3.19.47c.34.79.71,1.57,1.1,2.34A45.37,45.37,0,0,0,129.9,239a39.34,39.34,0,0,0,10.9,9.21,36.67,36.67,0,0,0,13.55,4.4,47.72,47.72,0,0,0,14.31-.57l1.77-.33c.59-.11,1.17-.28,1.75-.42,1.16-.31,2.34-.55,3.47-1s2.3-.71,3.43-1.11l3.07-1.17.36-.14c.09-.1,0-.25-.06-.36l-.17-.35-.24-.48c-.41-.81-.81-1.63-1.19-2.45A50.15,50.15,0,0,1,177,231.7a49.34,49.34,0,0,1-.67-6.52c-.05-1.08-.06-2.17,0-3.26s.11-2.42.12-2.68l-.33-.13-.52-.22c-.45-.19-.89-.41-1.32-.62a28,28,0,0,1-2.56-1.44,16.81,16.81,0,0,1-4.48-3.91l-.46-.61-.39-.68a7.12,7.12,0,0,1-.65-1.43,10.08,10.08,0,0,1-.35-1.56c-.05-.51-.08-1-.1-1.49a14.12,14.12,0,0,1,1-5.94,8.53,8.53,0,0,1,3.91-4.32,12.46,12.46,0,0,1,5.59-1.26c.44,0,.88,0,1.31,0,.21,0,.43.05.63.08l.31.05.12,0a.82.82,0,0,1,.36.19c.1.06.1.31.11.09l0-.3c.24-2.5.44-4.51.61-6.15l.3-2.51c.05-.37.09-.72.14-1.05,0-.17,0-.32.07-.48l.05-.23c0-.09-.08-.18-.11-.27l-.22-.45c-.13-.29-.25-.56-.37-.81-.23-.52-.41-1-.57-1.42-.22-.63-.55-1.43-.63-1.82s.17-.25.74.47c.29.36.65.85,1.08,1.48l.71,1c.12.19.25.39.39.59l.55.85-.24,4.12-.33,4.76c-.1,1.26-.19,2.53-.3,3.84l-.48.94-.12.24,0,0h0c-.91-1.95-.25-.54-.45-1h0l0,0s0,0,0,0,0-.07-.12-.11a7.18,7.18,0,0,0-1.36-.23l-.14.19-.06.09-.06,0-.17,0-.22,0a3.24,3.24,0,0,0-.46-.05c-.31,0-.64,0-1,0a15.79,15.79,0,0,0-2,.19,7.77,7.77,0,0,0-3.53,1.38c-2,1.48-2.88,4.17-2.92,6.92v1l.07,1,.17.89a6.94,6.94,0,0,0,.31.87,9.69,9.69,0,0,0,2.39,3.1,20,20,0,0,0,3.45,2.44c.62.36,1.26.7,1.91,1l1,.45.93.37,1,.39-.14,1.88-.06,1q0,.94-.06,1.89c0,1.26,0,2.52.1,3.78a47,47,0,0,0,3.33,14.8c.47,1.19,1,2.35,1.56,3.51l1,2.09c.65,1.23.58,2.28-.53,2.83l-2.67,1c-.67.25-1.33.53-2,.76l-4.13,1.31c-1.41.35-2.82.74-4.24,1.06s-2.87.58-4.33.75a45,45,0,0,1-17.55-.79,38.22,38.22,0,0,1-15.62-8.2,46.64,46.64,0,0,1-10.82-13.88c-.34-.65-.66-1.32-1-2l-.44-1c0-.1-.23-.54-.33-.84l-.36-1-.17-.48c0-.07-.11-.18,0-.23l.22-.13.87-.54,1.39-.8c.6-.35,1.22-.67,1.78-1.07a44.76,44.76,0,0,0,6.49-5.15Z"/><path class="cls-1" d="M314.83,208.82l-8.41-.25c-1,0-2,0-3.06,0-3.61-.11-7.21-.27-10.81-.37-1.6,0-3.21,0-4.8,0a41.68,41.68,0,0,1-6.12,0c-1.27-.16.34-2.48,2.69-2.51,4.16,0,8.32.06,12.52.4,2.51.19,5.12.09,7.69.14l8.47.2,5.21.11c2.64,0,5.28.11,7.89.08,2,0,4-.2,6-.3.44,0,.87-.07,1.32-.08,1.65,0,2.18.12,2.53.76a3.18,3.18,0,0,1,.24.44c.15.49-.52.9-1.73,1.05a97.21,97.21,0,0,1-11.17.5c-2.82,0-5.66-.06-8.48-.09Z"/><path class="cls-1" d="M306.44,218.21l-6.13-.24c-.75,0-1.49,0-2.24,0-2.63-.11-5.25-.27-7.88-.37-1.17,0-2.34,0-3.5,0a21.54,21.54,0,0,1-4.47,0c-.92-.16.25-2.48,2-2.5a73.64,73.64,0,0,1,9.13.39c1.83.2,3.74.09,5.61.14l6.18.2,3.8.11c1.92,0,3.85.11,5.75.08,1.49,0,2.94-.19,4.4-.3.32,0,.64-.07,1-.08,1.21,0,1.59.12,1.85.76a2.65,2.65,0,0,1,.17.44c.12.49-.37.9-1.26,1.05a51.75,51.75,0,0,1-8.14.5c-2.06,0-4.13-.06-6.19-.09Z"/><path class="cls-1" d="M294.52,227.77c-1-.08-2-.17-3-.24-.36,0-.72,0-1.09,0-1.28-.11-2.55-.27-3.83-.37a12,12,0,0,0-1.7,0,5.17,5.17,0,0,1-2.18,0c-.45-.16.12-2.48,1-2.5a18.08,18.08,0,0,1,4.44.39,16.54,16.54,0,0,0,2.73.14l3,.2c.61,0,1.23.09,1.85.11.93,0,1.87.12,2.79.08a17.21,17.21,0,0,0,2.14-.3c.16,0,.31-.07.47-.08.59,0,.77.12.9.76a3.39,3.39,0,0,1,.08.44.93.93,0,0,1-.61,1,12.24,12.24,0,0,1-4,.5c-1,0-2-.06-3-.09Z"/><path class="cls-1" d="M387.68,164.5c-2-.09-4.07-.18-6.1-.25-.74,0-1.48,0-2.22,0-2.61-.12-5.22-.27-7.83-.37-1.16-.05-2.33,0-3.48,0a21.86,21.86,0,0,1-4.43,0c-.92-.16.24-2.48,1.95-2.51a74.65,74.65,0,0,1,9.07.39c1.82.2,3.71.1,5.57.15,2.05.05,4.09.13,6.14.19l3.78.12c1.9,0,3.82.11,5.71.08,1.47,0,2.92-.2,4.37-.3.32,0,.63-.07,1-.08,1.19-.05,1.58.12,1.83.76a2.35,2.35,0,0,1,.17.44c.12.49-.37.9-1.25,1.05a50,50,0,0,1-8.09.49c-2.05,0-4.1,0-6.15-.08Z"/><path class="cls-1" d="M382,173.89c-1.11-.09-2.22-.18-3.34-.25-.4,0-.81,0-1.21,0-1.43-.12-2.86-.27-4.3-.37a15.06,15.06,0,0,0-1.9,0,6.62,6.62,0,0,1-2.43,0c-.5-.16.14-2.48,1.07-2.51a22,22,0,0,1,5,.4,22.1,22.1,0,0,0,3.05.14c1.12.05,2.24.13,3.37.2l2.07.11c1,0,2.09.11,3.13.08.8,0,1.59-.2,2.39-.3a5.06,5.06,0,0,1,.52-.08c.66,0,.87.12,1,.76,0,.15.07.29.09.44a.93.93,0,0,1-.68,1,15.69,15.69,0,0,1-4.44.5c-1.12,0-2.24-.06-3.37-.09Z"/><path class="cls-1" d="M377.66,183.45l-2.67-.24c-.33,0-.65,0-1,0-1.14-.11-2.28-.27-3.43-.37a9.63,9.63,0,0,0-1.52,0,4.1,4.1,0,0,1-1.94,0c-.41-.16.1-2.48.85-2.5a14.62,14.62,0,0,1,4,.39,13.17,13.17,0,0,0,2.44.14l2.69.2,1.65.11c.84,0,1.68.11,2.51.08a15.78,15.78,0,0,0,1.91-.3c.14,0,.28-.07.42-.08.53,0,.69.12.81.76,0,.15.05.29.07.44a1,1,0,0,1-.55,1,10.14,10.14,0,0,1-3.55.5c-.89,0-1.79-.06-2.69-.09Z"/><path class="cls-1" d="M326.46,92l-4-.25c-.48,0-1,0-1.44,0-1.7-.12-3.39-.27-5.09-.37a21.09,21.09,0,0,0-2.25,0,9.27,9.27,0,0,1-2.88,0c-.6-.16.16-2.48,1.26-2.51a30.77,30.77,0,0,1,5.89.4,31,31,0,0,0,3.62.14c1.33.05,2.66.13,4,.2l2.46.11c1.23,0,2.48.11,3.71.08.95,0,1.89-.2,2.83-.3.21,0,.41-.07.62-.08.78,0,1,.12,1.19.76a3.54,3.54,0,0,1,.11.44.94.94,0,0,1-.81,1,21.76,21.76,0,0,1-5.25.5c-1.33,0-2.66-.06-4-.09Z"/><path class="cls-1" d="M336.62,101.52l-6.46-.24c-.78,0-1.56,0-2.35,0-2.76-.11-5.53-.27-8.29-.37-1.23,0-2.46,0-3.68,0a23.71,23.71,0,0,1-4.69,0c-1-.16.26-2.48,2.06-2.5a83.58,83.58,0,0,1,9.6.39c1.93.2,3.93.09,5.9.14l6.5.2,4,.11c2,0,4.05.11,6.05.08,1.56,0,3.08-.19,4.62-.3.34,0,.67-.07,1-.08,1.26,0,1.67.12,1.94.76a4.07,4.07,0,0,1,.18.44c.12.5-.4.9-1.32,1a56.16,56.16,0,0,1-8.57.5c-2.17,0-4.34-.06-6.51-.09Z"/><path class="cls-1" d="M323.78,111.08c-.89-.08-1.78-.17-2.67-.24-.33,0-.65,0-1,0-1.14-.12-2.28-.27-3.43-.37a8.56,8.56,0,0,0-1.52,0,4.15,4.15,0,0,1-1.95,0c-.4-.16.11-2.48.86-2.5a14.51,14.51,0,0,1,4,.39,13.33,13.33,0,0,0,2.45.15c.89,0,1.79.13,2.69.19.55,0,1.1.09,1.65.11.84,0,1.68.12,2.51.08a14,14,0,0,0,1.91-.3c.14,0,.28-.07.42-.08.53,0,.69.12.8.76,0,.15.06.3.08.44a.94.94,0,0,1-.55,1,9.7,9.7,0,0,1-3.55.5c-.89,0-1.79-.06-2.69-.09Z"/><path class="cls-1" d="M174.62,307.27c.26-.6.51-1.21.81-1.8l.24-.51.19-.39.09-.2.18-.11.7-.38.44-.21c1.17-.57,2.31-1.09,3.39-1.68a17.22,17.22,0,0,0,2.19-1.43,6.82,6.82,0,0,0,1.53-1.55,7.78,7.78,0,0,0,1.07-1.93,8.09,8.09,0,0,0,.33-4.45,10.66,10.66,0,0,0-1.59-3.78,14.9,14.9,0,0,0-1.67-2,8.38,8.38,0,0,0-1-.85,2.89,2.89,0,0,0-.92-.51c-.08,0-.21,0-.28-.14s-.11-.35.22-.57a2.82,2.82,0,0,1,2.83.61,12.25,12.25,0,0,1,3.54,5,10,10,0,0,1,.47,6.2,11.11,11.11,0,0,1-1.57,3.47,8.83,8.83,0,0,1-1.24,1.5,12.55,12.55,0,0,1-1.48,1.18,32,32,0,0,1-3.44,1.94l-1.71.85c-.33.19-.42.18-.52.31l-.33.69a42.07,42.07,0,0,0-1.71,4.34,68.57,68.57,0,0,1-2.49,6.79,24.36,24.36,0,0,1-2.84,4.89,8.16,8.16,0,0,1-.79,1c-1.06,1.13-1.57,1.31-2.13,1.17a1.48,1.48,0,0,1-.39-.11c-.36-.19-.15-.86.52-1.69.92-1.3,1.89-2.54,2.68-3.92a25.82,25.82,0,0,0,2-4.38c.84-2.32,1.55-4.83,2.54-7.3Z"/><path class="cls-1" d="M219.25,294.46c-.35-1.56-.71-3.11-1.14-4.63l-.34-1.13a7.24,7.24,0,0,0-.37-1,8.14,8.14,0,0,0-1.14-1.82,14.56,14.56,0,0,0-2.38-2.25,26.19,26.19,0,0,0-5.13-3.09,30,30,0,0,0-2.81-1.14c-.48-.17-1-.32-1.45-.46l-.73-.2-.65-.15a4.24,4.24,0,0,0-.68-.09.91.91,0,0,0-.33,0,.23.23,0,0,0-.17.26,1,1,0,0,0,.39.53l.26.2.38.27a39.85,39.85,0,0,0,6.1,3.12c.62.23.5.61-.23.82a5.32,5.32,0,0,1-3.28-.45,26.42,26.42,0,0,1-3.3-1.79l-.4-.26-.21-.15a3.07,3.07,0,0,1-.36-.27,6.47,6.47,0,0,1-1.22-1.16,1.84,1.84,0,0,1-.17-2.32,1.51,1.51,0,0,1,.41-.39,2.74,2.74,0,0,1,.55-.22,2.43,2.43,0,0,1,.7-.09,3.66,3.66,0,0,1,.8,0,7.17,7.17,0,0,1,.81.1l.4.07.23.05c.31.06.62.14.92.22a27.91,27.91,0,0,1,3.54,1.23,29.65,29.65,0,0,1,7.95,4.57,12.5,12.5,0,0,1,3.19,4.15,23.05,23.05,0,0,1,.82,2.42c.24.79.46,1.58.66,2.38.5,2,.92,3.93,1.38,5.87a50.38,50.38,0,0,0,2.64,8.57,33.9,33.9,0,0,0,3.45,5.86c.3.39.59.78.9,1.17,1,1.51,1.3,2,1.16,2.71a2,2,0,0,1-.1.45c-.16.41-1,.09-2.05-.93a16.25,16.25,0,0,1-2.11-2.49,30.18,30.18,0,0,1-1.77-2.81,34,34,0,0,1-2.72-6.2c-1.06-3.19-1.7-6.44-2.45-9.58Z"/><path class="cls-1" d="M209.38,283.21a30.42,30.42,0,0,0-5.13-2c-1.77-.58-4.05-1.53-5.95-1.24-1.67.26-2,1.41-.86,2.59,1.85,1.95,4.47,3.18,6.59,4.82.69.54,2.63-.46,1.69-1.19-1.58-1.22-3.29-2.24-4.89-3.42-.43-.32-1.37-1.53-1.83-1.62s-1,0-.53.28c.19.14.77.11,1,.16a30.48,30.48,0,0,1,8.2,2.8c.76.41,2.7-.64,1.69-1.19Z"/><path class="cls-1" d="M205.66,286a13.8,13.8,0,0,0-4-2.09c-1.18-.41-2.65-.84-3.85-.27-3.66,1.73,5.86,7.22,6.95,8,.63.43,2.62-.48,1.71-1.1a59.07,59.07,0,0,1-5.23-3.6,10.61,10.61,0,0,1-1.71-1.77,5.19,5.19,0,0,0-.38-.66c-.1-.08-.74-.67-.63.21,0,0,2.19.61,2.39.7a11.56,11.56,0,0,1,2.77,1.49c.64.51,2.66-.36,2-.87Z"/><path class="cls-1" d="M210.85,307.77l0,0-.22-.1a7,7,0,0,1-.94-.49,7.6,7.6,0,0,1-1.63-1.29,10.7,10.7,0,0,1-2.18-3.3,15,15,0,0,1-.94-2.6,20.82,20.82,0,0,1-.43-2.31c-.06-.36-.09-.81-.13-1.1a1.26,1.26,0,0,0,0-.39l-.43-.05c-.4,0-.81-.09-1.21-.16s-.8-.14-1.2-.24c-.2,0-.4-.1-.6-.15l-.83-.28a2.5,2.5,0,0,1-1.31-1c-.22-.58.19-1,.59-1.4.28-.22.59-.41.9-.61l.4-.22.34-.17a11.54,11.54,0,0,1,5.22-1.22c.58,0,.47.35,0,.7a6.5,6.5,0,0,1-2,1.09,15.24,15.24,0,0,0-1.88.73l-.88.44-.15.08h0c-.07,0-.11.07,0,.13.37.11.9.22,1.36.31l.73.11.36.05.19,0,.26,0c.61,0,1.22,0,1.86,0l.08,1.18,0,.58.07.45q.08.64.21,1.29a20.59,20.59,0,0,0,.68,2.51,9,9,0,0,0,3.73,5.15l.67.32,1.19.39.31,1.79c.08.44.17.89.26,1.33a45,45,0,0,0,1.76,6.34,22.23,22.23,0,0,0,2.28,4.39c.21.29.42.56.62.86.75,1,.94,1.35.76,2a4.26,4.26,0,0,1-.11.42c-.16.41-.87.28-1.72-.49a13.51,13.51,0,0,1-2.83-4.09,32.57,32.57,0,0,1-1.77-4.64c-.34-1.15-.65-2.32-.91-3.49-.13-.59-.25-1.18-.37-1.77l-.17-.89s0,0,0-.06h0Z"/><path class="cls-1" d="M270,255.26l10,.08-.65,4.15-.38,2.7-.2,1.65a1.4,1.4,0,0,0,0,.29.9.9,0,0,0,.24-.12l.21-.11.92-.55,2-1.17,7.53-4.57,3.49-2.08,27.55-.17c4.59,0,9.21-.14,13.76-.25,5.85-.14,11.73-.39,17.58-.26,3.65.08-.94,2.22-7.69,2.35-11.95.24-23.89.35-35.94.25q-3.68,0-7.42,0l-7.25.11-5.87,3.56-9.26,5.55-.81.25a.76.76,0,0,1-.32,0c-.1,0-.18,0-.31-.05a2.06,2.06,0,0,1-.52-1.47,18.39,18.39,0,0,1,.12-2.11L277,262l.38-2.75.18-1.18.1-.59-2.32,0-9.79-.06,0-6.67c0-7.55.1-15.14.07-22.64,0-5.83-.17-11.54-.26-17.3,0-1.27-.05-2.52-.08-3.79,0-4.75.11-6.26.68-7.28a4.41,4.41,0,0,1,.39-.67c.44-.45.8,1.48.93,4.95.39,10.31.44,21.17.45,32.08q0,9.55-.07,19.17H270Z"/><path class="cls-1" d="M350.94,179.52c0-2.15,0-4.31,0-6.46,0-.78-.05-1.57,0-2.35,0-2.77.08-5.54.09-8.31,0-1.23,0-2.46-.1-3.68a30.72,30.72,0,0,1-.09-4.7c.1-1,1.94.22,2,2,.1,3.2.1,6.39-.08,9.62-.11,1.93,0,3.93,0,5.9,0,2.17,0,4.34,0,6.51,0,1.34,0,2.67,0,4,0,2,0,4.06.08,6.06.05,1.56.22,3.08.34,4.62,0,.34.07.67.09,1,.06,1.27-.06,1.68-.55,2a1.63,1.63,0,0,1-.34.19c-.38.13-.71-.38-.84-1.3A70.16,70.16,0,0,1,351,186c-.06-2.17-.06-4.34-.09-6.52Z"/><path class="cls-1" d="M397.93,207.31l-13.69-.19h-5l-2.5-.05-12,8.18-1.18.82a2,2,0,0,1-.56.29,2.62,2.62,0,0,1-.51.18.71.71,0,0,1-.21,0,.41.41,0,0,1-.23-.15,1.63,1.63,0,0,1-.25-.45,4.29,4.29,0,0,1-.21-1.29c0-1.11,0-1.62,0-2.3s.06-1.31.08-2c.06-1.16.13-2.33.19-3.5h-2c-.94,0-1.88,0-2.81-.1s-.9-.54,0-1a7.06,7.06,0,0,1,1.81-.64,10.12,10.12,0,0,1,1.21-.21c.22,0,.44,0,.67-.06l.35,0h3l-.32,3.76-.17,2.35c-.05.78-.09,1.56-.11,2.34a2.85,2.85,0,0,1,0,.41.64.64,0,0,0,0,.07c0,.05.05,0,.11,0l1.92-1.29,4-2.64c1.07-.7,2.14-1.43,3.22-2.17l3.44-2.42h5l13.79.15,8.48.09c4.28,0,8.59.09,12.84.06,3.3,0,6.54-.15,9.81-.23l2.14-.06c2.69,0,3.55.09,4.13.59a2.6,2.6,0,0,1,.38.34c.25.38-.84.7-2.81.82-5.84.33-12,.38-18.18.38l-13.81-.06Z"/><path class="cls-1" d="M299.8,133l7.77.07-.65,5.39-.24,2-.09.7,0,.19,0,.18s-.06.18,0,.13l.31-.16.18-.1.69-.42,1.49-.91c2.21-1.36,4.37-2.79,6.57-4.16l3.92-2.47,23.44-.24c4.07,0,8.15-.16,12.18-.28,5.18-.16,10.38-.43,15.56-.32,3.23.07-.82,2.23-6.79,2.38-10.57.27-21.15.41-31.82.35-2,0-4,0-6.07,0l-5.87.12-5.93,3.79-5,3.13-1.28.77c-.65.4-1.37.85-2,1.18a2.08,2.08,0,0,1-.86.25.41.41,0,0,1-.3,0l-.12-.06-.06,0,0,0s0,0,0,0h0l-.09.14h0a12.83,12.83,0,0,1-.3-1.5l1-7.87-.78,0-9.75-.07,0-5c0-6.69.1-13.41.07-20.05,0-5.16-.17-10.22-.27-15.32,0-1.12,0-2.22-.07-3.36,0-4.19.11-5.53.68-6.43a3.47,3.47,0,0,1,.39-.6c.44-.4.8,1.31.93,4.39.39,9.12.44,18.73.44,28.39l-.06,15.81,3,0Z"/></g></svg>