<svg id="Layer_1" data-name="Layer 1" xmlns="http://www.w3.org/2000/svg" width="520" height="520" viewBox="0 0 520 520"><defs><style>.cls-1{fill:#221f1f;}.cls-2,.cls-4{fill:none;stroke:#221f1f;stroke-miterlimit:10;}.cls-2{stroke-width:3px;}.cls-3{fill:#232020;}.cls-4{stroke-width:2px;}</style></defs><title>Notioly v2</title><g id="_83.Co-workers" data-name="83.Co-workers"><path class="cls-1" d="M293.72,431.49c9.94,7.15,21.81,5.36,30,2.41l-4,7.56,4.4,1.69s2.79-6.72,6.09-13L324.58,425C312.94,430.3,287.76,427.2,293.72,431.49Z"/><path class="cls-1" d="M329.26,427.4,331,429c.39.42,1.18.78.61,1.31l-.78,1.49c-.62,1.18-1.18,2.27-1.75,3.42-1.13,2.29-2.22,4.59-3.26,6.92l-1,2.42-5.49-2.11-1.06-.42,2.64-4.86.38-.7.19-.3c.11-.21.28-.47.38-.67-.27.07-.56.16-.88.23l-2.09.51a47.45,47.45,0,0,1-5.3.82,36.22,36.22,0,0,1-8.95-.24,27.77,27.77,0,0,1-5.58-1.45,20.21,20.21,0,0,1-2.62-1.23c-.42-.24-.84-.48-1.25-.73l-1.17-.85c-1-.72-.49-1.06.63-1a18.39,18.39,0,0,1,4.68,1.35c.81.39,1.69.62,2.53.93s1.73.5,2.63.63a29.46,29.46,0,0,0,5.41.56,37.76,37.76,0,0,0,5.5-.33l1.38-.2,1.37-.25c.46-.07.91-.19,1.37-.29l.74-.17,1.24-.36c1.5-.43,2.93-.9,4.4-1.38l-4.69,8.84,1.57.62.9.36,1-2.26,1.44-3.1,1.5-3.07.77-1.52.68-1.29c.07-.18.31-.41.08-.5l-.59-.55L326.8,428l-1.75-1.61-.58-.54c-.07-.07-.18,0-.27.07l-.37.14c-4.66,1.73-9.56,2.22-14.33,2.71l-11,1c-.8.09-1.57.2-2.35.31s-1.31.2-1.76.3-.76.24-.8.2c-.28-.28-.41-.21-.25-.22,0,0,.28-.07.18,0a.15.15,0,0,0,0,.08,3.84,3.84,0,0,0,0,.55c0,.19.09.41.09.57s-.32.33-.92,0a1.56,1.56,0,0,1-.5-.48,1.28,1.28,0,0,1-.23-.55,1.32,1.32,0,0,1,.14-.8,2,2,0,0,1,.89-.85,4.72,4.72,0,0,1,.88-.37,29.56,29.56,0,0,1,5.12-.89c1.68-.18,3.38-.32,5.08-.46,3.4-.27,6.82-.54,10.2-1a45.54,45.54,0,0,0,7.34-1.55l.87-.29.43-.15.59-.24.88-.37.44-.19c.12.08.23.21.35.31l1.22,1.11,2.87,2.62Z"/><path class="cls-1" d="M407.71,405.42a5.09,5.09,0,0,0-4-1.93,11.55,11.55,0,0,0-5.05,1.45,29.68,29.68,0,0,0-3.5,2.25A72.64,72.64,0,0,0,384,417.4c-1.53,1.67-2.95,3.45-4.32,5.24-1.75,2.3-3.33,4.73-5.25,6.91-1.18,1.37-2-2,0-4.74a91.09,91.09,0,0,1,12-13.52,73.66,73.66,0,0,1,8.6-7.2,21.46,21.46,0,0,1,5.74-2.76,10.44,10.44,0,0,1,3.32-.43,7.53,7.53,0,0,1,3.34.89,8.86,8.86,0,0,1,3,2.84,15.45,15.45,0,0,1,1.76,3.52,45.11,45.11,0,0,1,2.08,11.26c.25,2.92.49,5.77.57,8.66,0,.64.06,1.26.06,1.9,0,2.38-.25,3.12-1,3.6a2.66,2.66,0,0,1-.49.31c-.56.2-1-.78-1.07-2.5-.33-5.07-.4-10.41-1.12-15.6a36.1,36.1,0,0,0-1.18-5.6,13.22,13.22,0,0,0-2.37-4.71Z"/><path class="cls-1" d="M430.1,119.7c-.32,1.18-1.07,4.24-2.71,4.1-2-.17-.78-3.64-.51-4.75s-1.84-.73-2.06.16a10.14,10.14,0,0,0-.53,3.93,2.63,2.63,0,0,0,2.91,2.14c3.07-.08,4.27-3.24,5-5.74.26-.94-1.81-.71-2.06.16Z"/><path class="cls-1" d="M417.77,120c-.31,1.11-.83,3.75-2.18,4.1-.78.2-1-.15-1.11-.82a27.66,27.66,0,0,1,.11-3.4c0-1-2-.74-2,.16-.05,1.31-.42,3,0,4.33.37,1.11,1.88,1.31,2.89,1.19,2.82-.33,3.73-3.41,4.37-5.72.26-.95-1.81-.72-2.05.16Z"/><path class="cls-1" d="M76.52,133.41a9.52,9.52,0,0,1-8.67-11.62c1.32-6.88,6.33-5.77,10.84-2.77-.06-4.15-1.28-8.33.35-12.49,2.82-7.15,11-5.89,16.75-3.44,35.93,15.31,49.11-24.49,21.21-34,0,0-33.58-11.2-51.19,12.84-.66.77-24.44-1.72-26.23,25.6C36.9,148.67,76.22,150.78,76.52,133.41Z"/><path class="cls-1" d="M70.35,74.31A38.89,38.89,0,0,1,80.6,68.12a45.83,45.83,0,0,1,11.52-2.9A63.38,63.38,0,0,1,115.44,67a28.81,28.81,0,0,1,8.07,3.47A21.75,21.75,0,0,1,130,76.59a19.3,19.3,0,0,1,3,15.18,19.75,19.75,0,0,1-8.91,12.52,21.27,21.27,0,0,1-7.21,2.86,26.64,26.64,0,0,1-7.65.49,32,32,0,0,1-3.78-.45c-1.24-.23-2.47-.53-3.69-.84s-2.42-.71-3.59-1.17l-3.45-1.37a22.07,22.07,0,0,0-6-1.55,9.55,9.55,0,0,0-5.71,1,7.45,7.45,0,0,0-3.26,4.54,16.51,16.51,0,0,0-.33,6.06l.13,1.31.18,2,.1,2,0,1,0,.51a.28.28,0,0,1,0,.18l0,.13-2.49-1.54-1.27-.7a11.49,11.49,0,0,0-1.07-.48,6,6,0,0,0-2.86-.44,2.9,2.9,0,0,0-2,1.33,8.18,8.18,0,0,0-1,2.8,9.16,9.16,0,0,0,.86,6,8.25,8.25,0,0,0,4.55,3.92l1.61.54c.35.14.51.29.48.43s-.92.66-2.51.57a8.67,8.67,0,0,1-5.9-3.15A10.14,10.14,0,0,1,66,126.07a11.48,11.48,0,0,1,0-5.37,9,9,0,0,1,1.77-3.83,7.08,7.08,0,0,1,.87-.86,7.67,7.67,0,0,1,1-.7,10.66,10.66,0,0,1,1.19-.44,7.18,7.18,0,0,1,1.19-.19,9.81,9.81,0,0,1,4.14.76l.16.07h0c0,.26-.06-.66-.1-1.17s-.09-1.18-.11-1.79a15.19,15.19,0,0,1,1.39-7.61,9.67,9.67,0,0,1,6.32-5.26,16,16,0,0,1,7.7.09,27.56,27.56,0,0,1,3.52,1.07l3.2,1.29c.51.2,1,.42,1.54.6l1.57.5a28.5,28.5,0,0,0,3.17.86,31.71,31.71,0,0,0,3.21.57,12.67,12.67,0,0,0,1.62.15c.54,0,1.08.09,1.62.1a25.92,25.92,0,0,0,6.4-.73,18.05,18.05,0,0,0,8.26-4.64,7.65,7.65,0,0,0,.82-.89c.25-.31.53-.6.77-.93a18,18,0,0,0,1.29-2,15.94,15.94,0,0,0,1.67-4.53,17.49,17.49,0,0,0,.3-4.84,16.93,16.93,0,0,0-1.16-4.71A18,18,0,0,0,123.49,74a8.5,8.5,0,0,0-1.1-.79l-1.15-.74c-.8-.43-1.61-.85-2.43-1.24s-1.72-.71-2.55-1-1.79-.52-2.7-.74a63.84,63.84,0,0,0-11.17-1.68c-7.5-.44-15.19.45-22,3.56a32.89,32.89,0,0,0-6,3.44,15.46,15.46,0,0,0-1.38,1c-.44.37-.89.72-1.33,1.1-.82.79-1.7,1.54-2.45,2.42-.38.42-.8.83-1.16,1.28L67,82a4.62,4.62,0,0,1-.44.52l-.23.22c-.12,0-.19.1-.3.13l-.29.11-.33,0a5.87,5.87,0,0,1-.6.07l-1.76.14a31.87,31.87,0,0,0-6.75,1.31,21.75,21.75,0,0,0-8.8,5.18,22.16,22.16,0,0,0-5.34,8.75,35.74,35.74,0,0,0-1.78,10.3A47.6,47.6,0,0,0,41,119.26a31.13,31.13,0,0,0,6.15,14.58A22.4,22.4,0,0,0,60,142a17.72,17.72,0,0,0,6.65.13,12.66,12.66,0,0,0,4.74-1.8,12.94,12.94,0,0,0,1.48-1.13c.36-.42.75-.75,1-1.12a11.56,11.56,0,0,0,.72-1c.19-.33.37-.62.55-.88a14.16,14.16,0,0,1,.83-1.44,12,12,0,0,1,.64-1.21c.17-.21.31-.15.41.2a3.46,3.46,0,0,1,.13.73,4,4,0,0,1,0,1.15,8.5,8.5,0,0,1-1,3.32,9.9,9.9,0,0,1-3.26,3.66,15.17,15.17,0,0,1-7.62,2.63,21.39,21.39,0,0,1-8-.88,25.5,25.5,0,0,1-13-9.35,34.54,34.54,0,0,1-6.12-14.91c-.1-.66-.24-1.33-.32-2l-.2-2c-.17-1.34-.14-2.67-.2-4a55.85,55.85,0,0,1,.47-8,36.76,36.76,0,0,1,1.32-6,30.46,30.46,0,0,1,2.52-5.67,23.35,23.35,0,0,1,9-8.66,30.59,30.59,0,0,1,11.78-3.4l2.19-.19c-.24.33.7-.87,1.27-1.59s1.36-1.5,2.06-2.23,1.45-1.42,2.24-2.06Z"/><path class="cls-1" d="M70.9,145.28a46.79,46.79,0,0,1-5.11,13.81c-.7,1.18,1.8,1.2,2.35.28a48.59,48.59,0,0,0,5.26-14.28c.26-1.19-2.25-.89-2.5.19Z"/><path class="cls-1" d="M145.45,243.35c-4.56,4.1-10,9.08-10.46,15.6-.09,1.31,2.69.85,2.77-.26.45-6.18,5.63-10.79,10-14.67,1.24-1.11-1.46-1.39-2.27-.67Z"/><path class="cls-1" d="M115.35,234.1a10.82,10.82,0,0,1-2.21-1.52,15.73,15.73,0,0,1-1.67-1.92,23,23,0,0,1-2.42-4.2,59.26,59.26,0,0,1-3-8.81c-.58-2.17-1.19-4.32-1.67-6.49-1.71-7.66-3.06-15.35-5.09-22.84a63.82,63.82,0,0,0-3.42-9.68,38,38,0,0,0-3.2-5.59,19.78,19.78,0,0,0-4.34-4.46c-1-.74-.67-1.24.67-1.12a8.1,8.1,0,0,1,5.3,3.38,31.23,31.23,0,0,1,3.6,6.13,56.29,56.29,0,0,1,2.47,6.5,119.47,119.47,0,0,1,3.29,13.33c1.06,5.36,2.31,10.88,3.62,16.26.72,3,1.5,5.88,2.48,8.73a27.62,27.62,0,0,0,4,7.88c.28.33.59.64.88,1a9.67,9.67,0,0,0,1,.82,7.34,7.34,0,0,0,2.31,1.08,26.8,26.8,0,0,0,5.36,1.08c5.6.54,11.36.51,17,.89a57.37,57.37,0,0,1,13.1,2c.93.32,1.86.62,2.8,1,3.39,1.55,4.22,2.54,4.51,3.45a2.6,2.6,0,0,1,.17.63c0,.29-.38.32-1,.12a7.92,7.92,0,0,1-1.13-.46c-.43-.21-.92-.48-1.51-.71-6.79-3.16-14.91-3.71-23.06-4-3-.1-6.12-.17-9.25-.41-1.56-.11-3.14-.3-4.72-.56a19.62,19.62,0,0,1-4.82-1.45Z"/><path class="cls-1" d="M68.24,176.07c5.18,3.17,17.17,11.71,23.8,7.12,2.89-2,2.4-6.32.29-8.73-.74-.84-3.37.2-2.53,1.16,1.23,1.41,2.4,4.79.73,6.3s-5.07.07-6.72-.48c-4.75-1.6-9.16-4.24-13.42-6.85-.91-.56-3.39.72-2.15,1.48Z"/><path class="cls-1" d="M74.85,258.27a11.46,11.46,0,0,0,5.07,1.3h.13c15.87,1.21,31.89,1.64,47.86,1.51,6.56,0,13.12-.3,19.66-.55,5.78-.24,11.55-.54,17.31-1,1.44-.11,2.89-.18,4.32-.33l3-.26.75-.05.39,0,.19,0c.07,0,.17,0,.07,0-.4-.25-.82-.51-1.28-.74l-.35-.18-.64-.29c-.65-.29-1.29-.59-1.95-.86-1.33-.52-2.65-1.07-4-1.52-2.69-1-5.45-1.75-8.22-2.5-5.56-1.44-11.23-2.55-16.92-3.45a283.81,283.81,0,0,0-30.58-2.88q-4.89-.21-9.8-.28l-4.91,0H93.34a3.76,3.76,0,0,1-.44-.09,3.64,3.64,0,0,1-.72-.19,9,9,0,0,1-2.46-1.31A20,20,0,0,1,86,240.86a40.39,40.39,0,0,1-2.89-4.14,73.21,73.21,0,0,1-4.59-8.83c-.83-1.89-1-2.8-.71-2.85s1,.75,2,2.17,2.39,3.46,4,5.87a61,61,0,0,0,6,7.71,9,9,0,0,0,3.34,2.32c.11,0,.31.06.34.08h1.63l2.53,0c3.36,0,6.73.15,10.09.3,6.72.31,13.43.78,20.14,1.5s13.4,1.68,20,3q5,1,9.93,2.29c3.29.9,6.56,1.91,9.77,3.11l2.87,1.15,1.41.64.71.32.51.23.58.29,4.33,2.37,2.14,1.25,1.06.62.27.16.06,0h-.07l-.15,0-.59.07-2.37.29c-.79.1-1.55.2-2.46.28l-4.79.44c-2.06.21-4.12.37-6.19.52-8.28.69-16.62,1.08-24.89,1.36-18.18.51-36.39.26-54.55-.85-1.91-.12-3.82-.25-5.74-.41h.08a14.89,14.89,0,0,1-7.09-2,24.44,24.44,0,0,1-5.59-4.54A51.16,51.16,0,0,1,59.34,244a106.09,106.09,0,0,1-8.51-24.09,117.1,117.1,0,0,1-3.13-25.25,73.7,73.7,0,0,1,.61-9.85,38,38,0,0,1,2.48-9.58,16.3,16.3,0,0,1,6.36-7.86,13.85,13.85,0,0,1,10.15-1.18,21.2,21.2,0,0,1,2.15.58c.71.23,1.38.51,2.07.76a40.79,40.79,0,0,1,3.91,2,54,54,0,0,0,5.84,2.94,10.54,10.54,0,0,0,3.92.9,5.49,5.49,0,0,0,3.74-1.79c.18-.18.39-.41.58-.62a3.84,3.84,0,0,1,.47-.53c.22-.19.32-.08.29.34a5.55,5.55,0,0,1-.72,2.11,5.49,5.49,0,0,1-3.48,2.58,10.2,10.2,0,0,1-5.7-.67,75.56,75.56,0,0,1-8-3.88,21.51,21.51,0,0,0-7.8-2.42,11.27,11.27,0,0,0-3.86.3,9.79,9.79,0,0,0-3.36,1.7,12.08,12.08,0,0,0-2.61,2.93A19,19,0,0,0,52.91,177a36.11,36.11,0,0,0-2,8.36,66.36,66.36,0,0,0-.56,8.83A105.57,105.57,0,0,0,52,212.09a116.61,116.61,0,0,0,7.45,25.72,66.44,66.44,0,0,0,6.31,11.66c2.5,3.57,5.5,6.89,9.15,8.73Z"/><path class="cls-1" d="M213.82,414.27c-1.62,4.28-21.46,12.7-21.46,12.7-4.5-8.09-35.81-101.83-35.81-101.83-29-5.93-86.67-.23-99-19.6-2.78-4.38-3.59-17.79-3.58-32.3,15.94,3.73,36-1.48,52.4-10l5.35,16.64c24.78,6.57,57.13,13.53,62.15,16.33C186.24,303.11,211.88,408.9,213.82,414.27Z"/><path class="cls-1" d="M105.45,265.72l0-.08-.1.05-.42.2c-.75.38-1.53.73-2.3,1.08-1.53.72-3.1,1.37-4.66,2-3.15,1.24-6.33,2.42-9.59,3.36a88.21,88.21,0,0,1-9.91,2.38c-1.66.34-3.36.54-5,.78s-3.4.35-5.11.39A53.43,53.43,0,0,1,58,275.47l-1.28-.17-.9-.18-.25-.06s-.1-.05-.1,0v.2l0,3.68a137.33,137.33,0,0,0,1.37,19.74,33.81,33.81,0,0,0,.79,3.44l.25.82c.1.27.21.51.31.77a4.25,4.25,0,0,0,.34.71,3.92,3.92,0,0,0,.42.68,17.15,17.15,0,0,0,4.91,4.72,32.42,32.42,0,0,0,3,1.79c.53.26,1.08.5,1.61.75a15.94,15.94,0,0,0,1.65.69l1.67.65,1.71.57c1.13.4,2.31.68,3.47,1a156.64,156.64,0,0,0,25.47,3.93c8.61.76,17.27,1.21,25.94,1.76a240.54,240.54,0,0,1,26,2.67l1.84.35.62.12c.19.06.49,0,.49.28l.4,1.2,1.06,3.18,2,6.17L165,347.32c4.9,14.6,9.93,29.24,15,43.65,3.28,9.25,6.59,18.52,10.08,27.69.42,1.15.89,2.28,1.34,3.41l.68,1.7c.2.52.56,1.23.59,1.32s.15.57.43.34l1-.46,3.33-1.52a93.78,93.78,0,0,0,12.78-6.91,19.54,19.54,0,0,0,2.42-1.92c.42-.41.56-.57.69-.5s.14.46-.2,1.12a9.52,9.52,0,0,1-2,2.4,48.87,48.87,0,0,1-8.91,6.24c-2,1.12-4.11,2.26-6.43,3.39-.65.32-.92.46-2.35,1.1l-1.79.79-.23.1-.05,0,0-.06,0-.11-.21-.44-.43-.89c-.27-.58-.55-1.16-.83-1.75-.15-.33-.33-.67-.46-1-.26-.65-.53-1.3-.79-2-3.72-9.41-7-18.86-10.33-28.34s-6.56-19-9.77-28.48L159,337.62l-2.36-7.18-1.18-3.59-.09-.3c0-.08-.07-.07-.12-.09l-1.45-.28c-4.89-.89-9.88-1.43-14.89-1.89-12-1.08-24.34-1.48-36.74-2.54-6.2-.52-12.43-1.21-18.61-2.32s-12.34-2.67-18.06-5.58a23.38,23.38,0,0,1-8.27-6.72c-.26-.38-.55-.71-.79-1.14a10.93,10.93,0,0,1-.63-1.29,18.52,18.52,0,0,1-.85-2.58A42.75,42.75,0,0,1,54,297a166.06,166.06,0,0,1-1.11-20.51v-4.54a6.31,6.31,0,0,1,1,.16l2,.4,1.43.28,1.23.16c.83.09,1.65.24,2.48.27a57.59,57.59,0,0,0,10-.07,86.9,86.9,0,0,0,19.66-4.24c1.31-.46,2.62-.89,3.91-1.4l1.94-.74,1.92-.8c1.28-.52,2.53-1.12,3.8-1.69.64-.28,1.23-.59,1.89-.91l2.86-1.42q2.74,8.63,5.5,17.24l7.23,1.89,7.73,2c12.28,3.09,24.65,6,36.93,9.27,1.53.41,3.06.86,4.59,1.31a42.5,42.5,0,0,1,4.58,1.62,6.51,6.51,0,0,1,2.18,1.47,15.16,15.16,0,0,1,1.59,1.94,39.38,39.38,0,0,1,2.5,4.15,155.35,155.35,0,0,1,7.39,17.52c3.35,9.21,6.32,18.44,9.19,27.68s5.56,18.48,8.19,27.78L208,388c4.16,15.37,5.24,20.32,5.47,23.79,0,.79.17,1.82.16,2.3,0,.84-.7-.31-1.63-3.05s-2.26-7.09-3.83-12.7c-4.66-16.63-9.45-33.71-14.73-50.89-2.65-8.59-5.42-17.2-8.5-25.71-1.55-4.25-3.17-8.49-5-12.6-.91-2-1.87-4.08-2.94-6a29.18,29.18,0,0,0-1.69-2.77,10.53,10.53,0,0,0-1.88-2.2,12,12,0,0,0-3.11-1.37c-1.25-.4-2.51-.81-3.81-1.17-2.57-.75-5.19-1.43-7.8-2.11-5.23-1.35-10.5-2.64-15.77-3.94l-15.84-3.9-7.91-2-8.83-2.31q-2.51-7.78-5-15.6Z"/><path class="cls-1" d="M55.32,273.09c.08-15.09,3.18-31.58-.44-46.42-.22-.92-2.84-.25-2.61.7,3.59,14.72.52,31.05.44,46,0,1.1,2.61.57,2.61-.31Z"/><polygon class="cls-1" points="158.15 344.68 115.06 421.81 92.78 408.61 141.63 327.13 152.41 328.21 158.15 344.68"/><path class="cls-1" d="M156.71,344.92,119,412.36l-5.42,9.7,2.8-.75-9.85-5.84-6.65-3.94c-1.2-.72-4.48-1.92-5.26-3.12-.58-.91-.26.48-.19-.47,0-.57,1-1.6,1.25-2.08l4.92-8.22,33.09-55.2,9.33-15.55-2.37.86,7.71.77c2.71.27,2.59-.43,3.19,1.86,1.28,5,3.42,9.84,5.11,14.68.24.71,3.11-.15,2.89-.77l-5.73-16.46c-.06-.19-.36-.21-.51-.23l-10.79-1.08a2.93,2.93,0,0,0-2.37.86L97.42,398.73l-6.07,10.12a.2.2,0,0,0,.07.26l22.27,13.21a2.75,2.75,0,0,0,2.8-.75l37.67-67.44,5.42-9.7C159.81,344,157.13,344.17,156.71,344.92Z"/><path class="cls-1" d="M230.47,444.57c-10.22,2.36-28.37-7.81-35.19-18,1.74-.73,5.69-2.44,9.68-4.48C214,432.57,237.92,442.85,230.47,444.57Z"/><path class="cls-1" d="M205.49,424.64c-1.08-1.1-.73-.93-1-.89l-2.87,1.33-3,1.3-1.32.56-.35.12.13.2.28.39.07.09,0,.05.09.11.39.44c.54.59,1,1.22,1.6,1.77a44.88,44.88,0,0,0,6.37,5.61,48.26,48.26,0,0,0,7.25,4.51,35.67,35.67,0,0,0,7,2.76,26.93,26.93,0,0,0,9.35.94c1-.07,1,.47.22,1.13a6.16,6.16,0,0,1-4.51,1.2,32.77,32.77,0,0,1-10.08-2.71,47.13,47.13,0,0,1-8.94-5.12,53.81,53.81,0,0,1-9.49-8.29l-.62-.72c-.11-.13-.19-.22-.32-.39l-.42-.57-1.65-2.28,3.38-1.41,2.26-1,2.24-1,1.11-.52,1.28-.62.73-.36c.12,0,.25-.16.35-.14l.27.3,1,1.11q.71.75,1.44,1.47c1,.94,2,1.85,3.1,2.72a119.23,119.23,0,0,0,10.24,7.34c2.73,1.79,5.51,3.37,8.2,5.27a19.52,19.52,0,0,1,1.75,1.35,6.74,6.74,0,0,1,1.27,1.45,2.08,2.08,0,0,1,.24,1.88,1.43,1.43,0,0,1-1,.81,1.22,1.22,0,0,1-.68-.09,1.78,1.78,0,0,1-.48-.27c-.18-.19,0-.42.31-.71a1.3,1.3,0,0,0,.19-.22.16.16,0,0,0,.05-.09s0,0,0,0h0l.07,0s.07,0,0,0a.44.44,0,0,0-.12,0h-.06l-.19-.26a9.08,9.08,0,0,0-1.37-1.26c-.54-.41-1.12-.82-1.72-1.22-1.19-.81-2.43-1.6-3.69-2.41-2.52-1.6-5.1-3.24-7.64-5a74.45,74.45,0,0,1-10.84-8.66Z"/><path class="cls-1" d="M114.35,449.46c-15.91-8.44-16-29-15.29-37.73l8.61,5.1C107.92,431.55,127.76,456.58,114.35,449.46Z"/><path class="cls-1" d="M106.83,421.1c-.12-.61-.21-1.23-.29-1.85l-.09-.94c0-.29,0-.75,0-.67a.08.08,0,0,0,0-.1l0,0-.08,0-.38-.23-1.52-.94-3.05-1.86-.76-.47-.19-.13-.17-.12s-.16-.15-.15,0l0,.3,0,.64c0,.85,0,1.71-.06,2.56a57.62,57.62,0,0,0,.53,9,37.88,37.88,0,0,0,2.21,8.71l.35.93.43.9c.29.59.57,1.2.89,1.78a26.38,26.38,0,0,0,2.21,3.27,29.37,29.37,0,0,0,7.52,6.62c.85.61.5,1-.56,1a7.46,7.46,0,0,1-4.51-1.83,27.43,27.43,0,0,1-6.9-8.69,35,35,0,0,1-3.32-10.48,67.32,67.32,0,0,1-.91-13.26l.05-.91,0-.65.05-.74.11-1.46.06-.73,0-.37s0-.17,0-.13l.16.1,4.32,2.59,3.07,1.88,1.54.94a10.14,10.14,0,0,1,1.13.72l0,.7c0,.23,0,.5,0,.61a33.77,33.77,0,0,0,1.84,8.43,112,112,0,0,0,5.14,12.3l2.24,4.65a30.21,30.21,0,0,1,2,4.87,5.4,5.4,0,0,1,.23,1.36,2.44,2.44,0,0,1-.48,1.69,2.53,2.53,0,0,1-2.58.54,4.84,4.84,0,0,1-1.26-.53,2.08,2.08,0,0,1-1-1.09,2.21,2.21,0,0,1-.18-.53c0-.25.28-.33.79-.25s1.29.32,2.09.46a.52.52,0,0,0,.25,0l.15,0a.25.25,0,0,0,.12-.23,3.74,3.74,0,0,0-.08-.45,9.33,9.33,0,0,0-.28-1c-.47-1.36-1.12-2.77-1.77-4.19-1.34-2.84-2.76-5.74-4.09-8.71a67.39,67.39,0,0,1-4.83-13.9Z"/><path class="cls-1" d="M29,312c3.25,13.56,14.66,22.91,27.26,25.75,41.87,9.44,60.52-11,60-11-17.25-1.49-34.65-2.92-50.86-9.46-9.42-3.8-13-10.54-14.62-17.15C50.76,300.11,23.85,290.39,29,312Z"/><path class="cls-1" d="M27.58,312.4c5.61,21.26,26.39,28.07,46.24,28.84,13.47.52,27.87-2.06,39.07-10,1.11-.78,4.73-2.91,4.82-4.58.11-2.14-7.11-1.52-8.36-1.63-6.77-.62-13.55-1.34-20.25-2.49-11.48-2-27.49-4.56-34-15.47-1.21-2-1.77-6.54-3.56-7.95-.84-.67-2.79-.85-3.77-1.09-4.72-1.15-10.23-2-14.87-.08-6.14,2.49-6.55,8.68-5.3,14.45.29,1.32,3.2.57,2.9-.78-1.27-5.85-.6-11.72,6.3-12.54A25.47,25.47,0,0,1,48,300.48c.36.14,1.16.17,1.45.45.78.73-.6-.5.13.67,1.71,2.76,2.13,6,4.21,8.77,5.08,6.66,13.56,9.28,21.3,11.41a176.71,176.71,0,0,0,29.53,5c2.26.22,6.07,1.22,8.32.76.75-.16,2.18-1.56,1.73-.72a8.82,8.82,0,0,1-2.26,2c-8.61,6.84-20.11,9.71-30.89,10.25-20.77,1-45.07-4.79-51.06-27.48C30.13,310.3,27.23,311.07,27.58,312.4Z"/><path class="cls-1" d="M49,266.23C47.43,275.71,36.21,294,28.8,286.65,23.32,281.21,17,190.14,25.69,174.4c8.1-14.64,18.71,2.75,18.71,2.75-.68,11.36.08,35.3,3.34,52.59A127.93,127.93,0,0,1,49,266.23Z"/><path class="cls-1" d="M47.59,266.47c-.89,4.59-11,27.75-17.54,19.54-2.13-2.66-2.36-7.66-2.88-10.87-2.54-15.38-3.47-31.11-4-46.68-.56-15.37-1.22-31.51,1.65-46.7a29.55,29.55,0,0,1,1.78-6.47,12,12,0,0,1,2.85-4.36c3.41-2.88,6.24-1.22,9,1.2,1.38,1.21,4,3.51,4.51,5.35.4,1.45-.13,3.78-.16,5.3-.06,3,0,6.09,0,9.12.29,14.2,2,28,4.16,42a117.46,117.46,0,0,1,.65,32.54c-.11.82,2.77.29,2.87-.47A118.73,118.73,0,0,0,50,234.1c-2.12-14.83-4.09-29.36-4.32-44.38-.06-3.89,1.25-10.05-.2-13.56-1.12-2.73-4.6-5.71-7.1-7.06-6.38-3.44-12.54,1.28-14.9,7.31S20.8,189.5,20.4,195.88c-.61,9.81-.56,19.66-.29,29.48.51,18,1.28,36.44,4.8,54.11.95,4.81,2.05,10.36,8.36,9.39,9.4-1.44,15.61-14.7,17.19-22.86C50.61,265.22,47.74,265.69,47.59,266.47Z"/><path class="cls-1" d="M465.56,311.46c-9.26,23.88-65.87,9.59-65.28,9.54,19-1.47,39.92-9.25,43-21.23C443.27,299.77,473.12,291.94,465.56,311.46Z"/><path class="cls-1" d="M464.12,311.68c-5.66,13.6-24.58,13.47-36.91,12.7a152.27,152.27,0,0,1-17.54-2.2c-1.94-.35-3.89-.74-5.81-1.18-.8-.19-2.17-.72-2.13-.39l-2.05,1.08c9.91-.86,19.85-2.91,28.94-7.07a40.31,40.31,0,0,0,10.86-6.93,20.68,20.68,0,0,0,3.52-4.23c.33-.53,1.59-4.29.54-3.15.62-.67,3.49-.72,4.34-.85a37.4,37.4,0,0,1,8.45-.49c7.78.59,10.4,5.49,7.79,12.71-.26.72,2.57.39,2.87-.45,2-5.41,1.66-10.82-4.45-12.82-4.82-1.59-10.45-.92-15.35-.06a15.8,15.8,0,0,0-4,.85c-2.41,1.21-2.86,4.82-4.73,7-8.78,10-25,13.08-37.54,14.16-.5,0-2.14.29-2.05,1.07h0a.36.36,0,0,0,.27.24c3.1,1.24,6.89,1.59,10.15,2.15A139.58,139.58,0,0,0,431.58,326c12.36.14,29.93-1.53,35.41-14.73C467.28,310.56,464.46,310.85,464.12,311.68Z"/><path class="cls-1" d="M447.65,291.21c35.7-8.69,56.12-80.59,49.84-97.25-5-13.34-21.45-.2-21.45-.19-1.4,13.19-7.44,26.52-15.19,41.21C460.85,235,453.55,280.05,447.65,291.21Z"/><path class="cls-1" d="M447.87,292c16.36-4.24,27.67-18.86,35.43-33,8.37-15.28,14.48-32.73,16.36-50.1.57-5.23,1.17-11.59-1.22-16.49-3.51-7.17-11.59-5.75-17.53-2.77-1.75.88-4.66,2.09-5.87,3.7-1.05,1.39-.83,3.63-1.16,5.35a77.94,77.94,0,0,1-2.75,10.42,161.33,161.33,0,0,1-10.27,23.18,15.42,15.42,0,0,0-1.9,5.46c-1.49,8.81-3.13,17.6-5,26.33-1.9,8.94-3.5,18.85-7.68,27.07-.66,1.3,2.24,1.07,2.72.14,2.94-5.79,4.38-12.41,5.88-18.69,1.92-8,3.53-16.14,5-24.26.81-4.35,1.1-9.15,2.35-13.4.77-2.59,2.72-5.24,3.93-7.68,1.5-3.05,3-6.13,4.29-9.25a97.21,97.21,0,0,0,6-18.05c.29-1.38.28-5.13.89-6a9.26,9.26,0,0,1,2.55-1.73c3.47-2.14,8.59-4.78,12.58-2.49,5.3,3,4.87,11.49,4.51,16.65-1.08,15.41-6.08,30.93-12.58,44.85-7.39,15.83-18.92,34.49-37,39.17C445.68,290.86,446.1,292.47,447.87,292Z"/><line class="cls-2" x1="35.91" y1="282.67" x2="39.49" y2="300.47"/><path class="cls-1" d="M67,397c-.09-4.42-.17-8.85-.27-13.27,0-1.61-.16-3.22-.19-4.83-.11-5.69-.16-11.37-.28-17.06-.06-2.52-.2-5.05-.35-7.55a84,84,0,0,1-.38-9.65c.11-2,3.05.41,3.24,4.11.33,6.56.49,13.12.37,19.75-.07,4,.23,8.08.35,12.13.12,4.45.22,8.9.33,13.35.07,2.75.13,5.49.22,8.23.13,4.14.22,8.31.43,12.43.17,3.2.51,6.32.78,9.48.06.7.14,1.38.19,2.08.16,2.6,0,3.44-.76,4a4.14,4.14,0,0,1-.52.39c-.6.28-1.14-.76-1.4-2.66-.77-5.63-1.1-11.59-1.37-17.58-.19-4.45-.31-8.92-.46-13.38Z"/><path class="cls-1" d="M75.28,420A6.7,6.7,0,0,0,72,418.09a3.85,3.85,0,0,0-3.22,1.05,12.24,12.24,0,0,0-2,2.38,41,41,0,0,0-4.74,10.87,46.85,46.85,0,0,0-1.22,5.24c-.41,2.26-.62,4.55-1.23,6.77-.37,1.4-2.7-.76-2.27-3.46A59.3,59.3,0,0,1,61.27,427c1.18-2.67,2.24-5.57,4.18-8.08a9.11,9.11,0,0,1,4.34-3.27,6,6,0,0,1,2.92-.11,7.87,7.87,0,0,1,2.53,1.08,13.21,13.21,0,0,1,2.45,2,24.38,24.38,0,0,1,2,2.34,62.16,62.16,0,0,1,4.75,7.75c1.11,2,2.25,4,3.3,6.06.23.45.48.89.69,1.35.8,1.71.85,2.34.35,3a2.93,2.93,0,0,1-.34.43c-.44.37-1.16-.16-1.83-1.35-2-3.52-3.88-7.33-6-10.95a32.12,32.12,0,0,0-5.37-7.25Z"/><path class="cls-1" d="M60,449.14c.75,5.3-6.81,6.52-7.14,1-.12-2,.49-4.2,2.52-4.48A4.08,4.08,0,0,1,60,449.14Z"/><path class="cls-1" d="M93,445.08c.75,5.3-6.81,6.52-7.13,1-.12-2,.49-4.2,2.52-4.49A4.09,4.09,0,0,1,93,445.08Z"/><path class="cls-1" d="M410.65,439.38c-.74,5.31,6.81,6.52,7.14,1,.12-2-.49-4.2-2.52-4.48A4.08,4.08,0,0,0,410.65,439.38Z"/><path class="cls-1" d="M366.09,435.07c-.74,5.31,6.82,6.52,7.14,1,.12-2-.49-4.2-2.52-4.48A4.08,4.08,0,0,0,366.09,435.07Z"/><polygon class="cls-1" points="104.55 275.1 229.88 275.1 230.57 262.11 104.26 262.11 104.55 275.1"/><path class="cls-1" d="M199.22,260.44l32.89.2-.73,12.59-.18,3.26H216.36l-54.52-.41c-8.06-.05-16.17,0-24.17,0-10.28.06-20.6.25-30.87,0-6.41-.18,1.72-2.76,13.56-2.78,21,0,42,.06,63.14.43,12.66.22,25.83.11,38.78.16l6.47,0,.63-10.67-20.92-.12L182.17,263c-13.27-.05-26.61-.13-39.78-.09-10.24,0-20.28.21-30.4.33l-6.12.09h-.36c0,1.39,0,2.54,0,3.51,0,1.31,0,2.38-.06,3.27a12.13,12.13,0,0,1-.61,3.69,7.63,7.63,0,0,1-.46,1.19c-.53.81-1.06-2.58-1.36-8.67,0-.68-.06-1.36-.1-2.06,0-1.15-.08-2.33-.12-3.53l14.15-.24,13-.13,26.43-.08,42.78.09Z"/><path class="cls-1" d="M216.7,369.14q.15-11.31.3-22.61c0-2.75,0-5.5,0-8.25.14-9.69.33-19.38.45-29.07.05-4.3,0-8.63,0-12.89-.07-5.48-.28-11,0-16.47.19-3.41,3,.92,3.06,7.24,0,11.19-.08,22.38-.48,33.67-.25,6.75-.12,13.77-.18,20.68q-.1,11.38-.24,22.78-.08,7-.14,14c0,7.07-.13,14.18-.09,21.2,0,5.47.23,10.82.36,16.22,0,1.18.09,2.35.1,3.55.05,4.44-.15,5.85-.93,6.81a4.4,4.4,0,0,1-.54.63c-.6.42-1.1-1.39-1.28-4.64-.53-9.65-.6-19.83-.61-30,0-7.59.07-15.21.11-22.82Z"/><path class="cls-3" d="M177.26,263.3l15,0h15.51c.15,0,.37.06.34-.16l.19-.92.38-1.84,6.25-30.17,12.14-58.73c.32-1.34-5.26-2.61-5.5-1.25L209.4,229.08l-5.92,28.61-26.22,0C176.17,257.64,176.17,263.32,177.26,263.3Z"/><path class="cls-1" d="M418,151a26.3,26.3,0,0,1-5.35-8.33l-.69-1.64c-.21-.55-.42-1.11-.6-1.66a71.32,71.32,0,0,1-2.47-12.06c-.24-1.79-.49-3.58-.73-5.36a43.73,43.73,0,0,1-.63-6.85c0-1.43,2.5.17,2.76,2.77.48,4.62.92,9.19,1.55,13.79a40.71,40.71,0,0,0,2.18,8.13,28.34,28.34,0,0,0,4.3,8,16.89,16.89,0,0,0,4.13,3.69,16.16,16.16,0,0,0,3.83,1.74,17.49,17.49,0,0,0,4.19.64,22.48,22.48,0,0,0,6.47-.91c.46-.13.91-.27,1.38-.39,1.73-.51,2.31-.55,2.89,0a2.57,2.57,0,0,1,.39.34c.33.42-.28,1-1.57,1.56a23.05,23.05,0,0,1-13,1.4l-1.26-.28c-.42-.12-.83-.27-1.24-.41a18.77,18.77,0,0,1-2.39-1,19.08,19.08,0,0,1-4.17-3.1Z"/><path class="cls-1" d="M434.92,154.94c2.12,3.33,4,7.16,3.66,11.21-.1,1.16,2.4.75,2.48-.24.37-4.36-1.58-8.41-3.87-12-.53-.83-2.9,0-2.27,1Z"/><path class="cls-1" d="M438,66.26C371.7,67.94,390.31,120.68,406,116.7c11.22-2.83,22.86-36.18,45.82-5.11,0,0,5.83-7.77,9.9.5s-4.44,12.77-7.54,12.9c-.6,0-18.16,55.56,28.29,45.39,12.1-2.65,22.87-19.93,3.42-43.36,0,0-6.95-6.84-7-22S471.23,66.19,438,66.26Z"/><path class="cls-1" d="M471.7,173.45a28.3,28.3,0,0,1-7.8-1.13,19.14,19.14,0,0,1-12-10.19,28.34,28.34,0,0,1-2.38-7.5,52,52,0,0,1-.17-15.25,75,75,0,0,1,1.28-7.46c.27-1.23.57-2.45.9-3.67q.25-.91.54-1.83l.35-1c.09-.25.18-.51.29-.75l.18-.35.3-.22.14-.09.07,0h0l-.1-.12h0l0,0,.32-.11a4.62,4.62,0,0,1,.66-.21,5.53,5.53,0,0,0,.55-.1l.25-.06.52-.17c.35-.11.69-.29,1-.43a11,11,0,0,0,1.9-1.22A7,7,0,0,0,461,118a6.67,6.67,0,0,0-.19-4.13,8.53,8.53,0,0,0-2.27-3.58,2.34,2.34,0,0,0-2.63-.24,6.87,6.87,0,0,0-1.51,1,7.55,7.55,0,0,0-.58.55,6.88,6.88,0,0,0-.68.73L451.86,114l-.13-.11-.14-.18-.28-.37-.55-.72-1.11-1.43-.79-1a9.87,9.87,0,0,0-.65-.8c-.88-1-1.77-2.08-2.73-3a26.39,26.39,0,0,0-6.28-4.9,12.78,12.78,0,0,0-7.34-1.55,16,16,0,0,0-7.11,3c-4.45,3.07-8,7.44-12.31,11.26a21.81,21.81,0,0,1-3.57,2.63,9.09,9.09,0,0,1-4.55,1.3,9.5,9.5,0,0,1-4.54-1.25,14.45,14.45,0,0,1-3.54-2.84c-7.95-9-8.25-23.27-1.13-32.65a31.6,31.6,0,0,1,8.16-7.57,44.63,44.63,0,0,1,10-4.77,73.44,73.44,0,0,1,21.52-3.61c4.53-.08,3.91.71.17,1.58s-10.56,2.1-18.25,4.32c-6.78,2-13.29,5.21-17.81,10.34A23.18,23.18,0,0,0,394,90.34a23.93,23.93,0,0,0-.72,10.07,23.21,23.21,0,0,0,3.51,9.47,14.9,14.9,0,0,0,3.29,3.59,7.38,7.38,0,0,0,4.06,1.65c2.7.2,5.56-2.25,8.14-4.69s5.17-5.24,8.11-7.69a25.61,25.61,0,0,1,8.3-5,14.49,14.49,0,0,1,5-.72,15.61,15.61,0,0,1,5,1.06,26.12,26.12,0,0,1,8.1,5.51l1.7,1.72c.55.58,1,1.2,1.58,1.8l.79.91.68.87c.16.18.31.48.46.54l.23-.26.13-.12.06-.06,0,0,.12-.1a10.33,10.33,0,0,1,2.07-1.37,5.92,5.92,0,0,1,2.69-.61,4.74,4.74,0,0,1,1.44.25,7,7,0,0,1,1.29.63,9.84,9.84,0,0,1,3,3.92,11.43,11.43,0,0,1,1.1,4.71,9.24,9.24,0,0,1-2.94,6.46,13.76,13.76,0,0,1-4.38,2.79L456,126a3.15,3.15,0,0,1-.44.11l-.2,0a1.87,1.87,0,0,0-.25,0,1,1,0,0,0-.11.24s-.23.65-.35,1.07c-.28.92-.54,1.85-.78,2.78-.47,1.88-.88,3.77-1.21,5.68a62.9,62.9,0,0,0-1,11.52,34,34,0,0,0,1.81,11.21,19.56,19.56,0,0,0,2.58,4.92,16.06,16.06,0,0,0,4,3.8,19.38,19.38,0,0,0,8.12,2.91,35.36,35.36,0,0,0,8.9,0c1.49-.16,3-.42,4.45-.72a16.84,16.84,0,0,0,2.12-.55,10.37,10.37,0,0,0,2-.78,17.13,17.13,0,0,0,6.56-5.53,19.51,19.51,0,0,0,3.42-12.56c-.14-1.11-.21-2.23-.41-3.33l-.81-3.28-1.18-3.19c-.41-1-1-2-1.48-3.06-.26-.51-.48-1-.78-1.52l-.91-1.45c-.62-.95-1.17-1.95-1.86-2.86l-2.08-2.73c-.35-.44-.69-.95-1-1.32a15.19,15.19,0,0,1-1.13-1.44,33.1,33.1,0,0,1-5.2-13.13c-.13-.9-.29-1.81-.39-2.71s-.19-1.81-.23-2.72l-.09-2.7c0-.87-.06-1.74-.12-2.61a43.79,43.79,0,0,0-2-10.18,33.47,33.47,0,0,0-11.43-16.62,33.82,33.82,0,0,0-7.79-4.37,43.16,43.16,0,0,0-6.78-2.11c-1.92-.44-3.49-.72-4.79-.93s-2.34-.39-3.2-.58-1.54-.37-2.16-.57a15.08,15.08,0,0,1-1.64-.57c-.56-.32.35-.57,2.5-.75a39.54,39.54,0,0,1,9.88.73,37.42,37.42,0,0,1,17.87,8.54A36.89,36.89,0,0,1,479,92a47.13,47.13,0,0,1,1.78,10.16c.06.86.09,1.73.1,2.59l.08,2.41a43.83,43.83,0,0,0,.51,4.73,33.9,33.9,0,0,0,2.78,9,23.2,23.2,0,0,0,2.39,3.91,9.18,9.18,0,0,0,.72.84,2.66,2.66,0,0,1,.25.32l.2.26.39.51,1.58,2.06a47.58,47.58,0,0,1,7.32,13.69c.37,1.26.65,2.57,1,3.85s.33,2.66.48,4l0,2a11.55,11.55,0,0,1-.14,2,21,21,0,0,1-.86,4,20.27,20.27,0,0,1-10.3,12.35c-.63.29-1.26.59-1.9.85l-2,.59c-1.31.33-2.53.55-3.82.75a45.6,45.6,0,0,1-7.77.62Z"/><path class="cls-1" d="M464.8,210.38a113.86,113.86,0,0,0,3.7-11.4,50.42,50.42,0,0,0,1.81-11.65,14.12,14.12,0,0,0-1.88-7.7,7.07,7.07,0,0,0-5.63-3,10.65,10.65,0,0,0-1.79,0,8.45,8.45,0,0,0-1.75.18,14,14,0,0,0-3.39,1.18,33.45,33.45,0,0,0-6.26,4.23c-2,1.63-3.94,3.37-6,5a30.62,30.62,0,0,1-6,4,12.16,12.16,0,0,1-3.59,1.09,8.52,8.52,0,0,1-2,0,4.35,4.35,0,0,1-2.06-.73,4,4,0,0,1-1.6-2.37,7.66,7.66,0,0,1-.19-2.54,19.54,19.54,0,0,1,1-4.58,40.7,40.7,0,0,1,3.84-8.17c1-1.6,1.46-1,1.29.66a33.5,33.5,0,0,1-2,7.49,23,23,0,0,0-1.13,4,4.55,4.55,0,0,0,.21,3,1.12,1.12,0,0,0,.78.43,1.73,1.73,0,0,0,.35,0l.4,0a6.8,6.8,0,0,0,.89-.07,10.17,10.17,0,0,0,3.62-1.28,45.3,45.3,0,0,0,7-5.14,74.15,74.15,0,0,1,7.33-5.67,23.59,23.59,0,0,1,5.22-2.61,14.8,14.8,0,0,1,3-.66c.51-.06,1,0,1.5-.07a8.62,8.62,0,0,1,1.52,0,9.93,9.93,0,0,1,5.86,2.18,10.54,10.54,0,0,1,3.28,5.29,20.82,20.82,0,0,1,.7,6.43l-.06,1.58c0,.53-.1,1.05-.16,1.57-.09,1.05-.27,2.08-.44,3.11a84.11,84.11,0,0,1-3.15,12c-1.61,4.81-3.5,9.51-5.53,14.13-3.07,7-6.57,13.85-10.13,20.55-2.76,5.2-5.45,10.32-8.35,15.37-.63,1.12-1.25,2.21-1.91,3.33-2.46,4.12-3.46,5.3-4.59,5.79a3.62,3.62,0,0,1-.77.32c-.71.09-.06-1.8,1.65-4.85,5.05-9.06,10.43-18.54,15.36-28.31a228.57,228.57,0,0,0,10-22.22Z"/><path class="cls-1" d="M429.67,231.79c1.06-2,2.14-4.08,3.19-6.12.38-.75.71-1.52,1.1-2.26,1.37-2.62,2.79-5.22,4.15-7.84.61-1.17,1.15-2.37,1.68-3.56a27.3,27.3,0,0,1,2.19-4.52c.59-.87,2.12,1.32,1.31,3.07a96.27,96.27,0,0,1-4.78,9.1c-1.07,1.77-1.9,3.75-2.85,5.63-1,2.06-2.11,4.12-3.17,6.18-.65,1.27-1.3,2.54-1.94,3.81-1,1.93-2,3.86-2.86,5.8-.69,1.52-1.25,3.06-1.86,4.59-.13.34-.24.68-.39,1-.55,1.24-.88,1.56-1.58,1.55a3.81,3.81,0,0,1-.48,0c-.51-.1-.64-.78-.34-1.73a64.44,64.44,0,0,1,3.5-8.49c1-2.08,2-4.16,3.07-6.24Z"/><path class="cls-1" d="M375.87,254.4c2-.38,3.94-.69,5.92-1.05l2.95-.51,3-.45c1.44-.22,2.88-.52,4.32-.73,5.13-.61,10.25-1.17,15.42-1.38,1.14-.08,2.29-.1,3.44-.16s2.3-.1,3.44-.11c2.93,0,5.93-.14,8.9.85.46.17.65.46.53.7a2.29,2.29,0,0,1-.89.71A7.38,7.38,0,0,1,419,253a149.74,149.74,0,0,0-17.44.17c-.89,0-1.78.11-2.68.19s-1.8.22-2.7.34c-1.8.26-3.62.5-5.41.8l-5.93.93L379,256.5c-2.43.41-4.84.95-7.26,1.44-3.66.73-7.32,1.6-10.91,2.5-2.8.69-5.48,1.63-8.21,2.47-.6.19-1.18.39-1.79.57-2.25.65-3,.66-3.69.11a3,3,0,0,1-.46-.39c-.36-.47.45-1.15,2.07-1.75,2.41-.89,4.91-1.7,7.47-2.46s5.2-1.39,7.83-2c3.9-1,7.88-1.75,11.83-2.61Z"/><path class="cls-1" d="M409.81,217.57c1.55-3.71,3.23-7.35,4.95-11,.64-1.31,1.21-2.66,1.86-4q3.54-6.87,7.43-13.54c1.14-2,2.26-4,3.37-5.95a53.23,53.23,0,0,1,4.62-7.43c1.15-1.41,2,1.91.3,4.71l-9.09,15.16c-.93,1.52-1.78,3.12-2.58,4.76s-1.61,3.27-2.39,4.92-1.76,3.58-2.57,5.41-1.69,3.62-2.44,5.47c-.95,2.27-1.95,4.52-2.78,6.83-.64,1.75-1.37,3.47-1.94,5.25s-1.18,3.53-1.73,5.29c-.38,1.39-.7,2.78-1,4.16s-.66,2.75-.89,4.15c-.12.61-.2,1.22-.33,1.83-.48,2.28-.82,3-1.63,3.31a3.08,3.08,0,0,1-.55.23c-.59.11-.82-.92-.59-2.65.17-1.27.37-2.57.59-3.87s.57-2.59.88-3.9.66-2.62,1-3.93l1.23-3.89,1-2.89,1.06-2.85c.71-1.9,1.41-3.8,2.21-5.67Z"/><path class="cls-1" d="M378.28,237.28a80.51,80.51,0,0,0,11.9-2.93,35.21,35.21,0,0,0,15.61-11.9,58.88,58.88,0,0,0,3.87-5.87c1.52-2.59,2.85-5.3,4.5-7.82,1-1.59,2.24,1.74.52,4.85-1.52,2.73-3.16,5.4-4.95,8a44.05,44.05,0,0,1-6.28,7.26,53.67,53.67,0,0,1-4.53,3.75,34,34,0,0,1-5.12,3,55.35,55.35,0,0,1-12.28,3.65c-2.53.53-5,1-7.52,1.65a48.35,48.35,0,0,0-10.81,3.94,40.65,40.65,0,0,0-7.23,5c-.51.39-.95.85-1.45,1.26-1.83,1.55-2.46,2-3.35,1.8a3.21,3.21,0,0,1-.59-.13c-.56-.24-.12-1.25,1.14-2.59a41.53,41.53,0,0,1,6.47-5.38,43.8,43.8,0,0,1,7.7-4.06,72.38,72.38,0,0,1,12.38-3.54Z"/><path class="cls-1" d="M370.43,251.1c-3,4.47-6.55,10-4.25,15.54.38.91,3.09.07,2.75-.74-2.2-5.27,1.18-10.5,4.05-14.78.67-1-2.07-.74-2.55,0Z"/><path class="cls-1" d="M366.05,239.05c3.31,4.08,10.06,10.57,15.95,9.63,1.26-.2,2.32-1.71.41-1.4-2.43.39-5.65-2.05-7.47-3.35a32.31,32.31,0,0,1-6.32-5.93c-.55-.68-3.2.27-2.57,1.05Z"/><path class="cls-1" d="M452.36,257.22c-3.42,18.42-9.4,40.51-19.17,48.82-15.91,13.56-75.6,15.64-83.94,14.6l55.88,100.61c-7.37,3.65-18.67,6.25-18.67,6.25-22.94-33.49-79-113.85-57.14-127.32,14.33-8.85,40.61-15.19,65.77-19.76L400,269C412.56,267.65,438.91,277.44,452.36,257.22Z"/><path class="cls-1" d="M351.34,370.85c7.24,12.18,14.94,24.09,22.82,35.89q5.91,8.85,11.93,17.64l1,1.46c.07,0,.18,0,.26,0l1.23-.31q2.55-.66,5.07-1.42c1.68-.5,3.35-1.05,5-1.63.81-.3,1.63-.6,2.44-.93.4-.15.81-.32,1.2-.49l.65-.28.21-.1.05,0,0-.05-.06-.1-.48-.88-1.89-3.4L397,409.4l-7.53-13.59q-21-38.21-42-76.4c1.58.15,3.4.34,4.76.37.82,0,1.21,0,1.73,0l1.51,0c2,0,4,0,6-.07q6-.16,12.09-.56c8.06-.54,16.13-1.35,24.11-2.59A137.59,137.59,0,0,0,421,311.19a49.69,49.69,0,0,0,7-3,21.8,21.8,0,0,0,6-4.37c.44-.43.81-.94,1.22-1.41l.6-.71.54-.77,1.08-1.54,1-1.63c.68-1.06,1.2-2.23,1.81-3.34s1.09-2.3,1.6-3.47c4-9.43,6.53-19.46,8.75-29.49,1.32-6.27,1.83-5.32,1.44.17a97.65,97.65,0,0,1-1.62,11.24,99.5,99.5,0,0,1-4.44,15.68A68.28,68.28,0,0,1,439.87,301a31.34,31.34,0,0,1-4.49,5.53,22.47,22.47,0,0,1-2.8,2.33,34.21,34.21,0,0,1-3.06,1.82,63.26,63.26,0,0,1-12.92,4.87c-4.39,1.22-8.83,2.16-13.29,2.95-8.91,1.56-17.89,2.55-26.89,3.22-4.51.32-9,.56-13.54.69q-3.39.11-6.8.09h-1.71l-1.6,0-.53,0-.28,0a2.3,2.3,0,0,0,.15.33l.17.31.57,1.06c.77,1.4,1.53,2.81,2.3,4.22l4.62,8.47c12.16,22.34,25.12,45.43,37.71,68.21l5.19,9.39,2.62,4.75,1.07,1.93.26.49.13.24s0,0,0,.05l-.07,0-.12.06-1,.47-1,.47-.5.23-.43.18c-.42.18-.84.37-1.26.54a101,101,0,0,1-10.29,3.44l-2.62.71-1.31.34-2,.47c-.08,0-.19.07-.25,0l-.16-.22-.3-.44-.62-.9-.78-1.15-1.51-2.21C374.51,412,366.51,400.13,358.83,388c-4.72-7.45-9.33-15-13.72-22.63S336.52,350,332.78,342a130.48,130.48,0,0,1-7.27-18.78,50.07,50.07,0,0,1-1.89-10,24.87,24.87,0,0,1,.13-5.17,13.64,13.64,0,0,1,1.69-5,10.58,10.58,0,0,1,3.83-3.72l2.2-1.26c.73-.41,1.49-.77,2.24-1.16,1.49-.8,3.05-1.43,4.57-2.14s3.09-1.31,4.66-1.87c6.26-2.37,12.64-4.31,19.05-6,5.5-1.47,11-2.78,16.49-4,2.74-.62,5.49-1.18,8.23-1.74l7.7-1.52,2.5-5.86,1.35-3.16.83-1.94c.1-.19.14-.46.3-.57L400,268l1.26-.1c4.73-.2,9.27.41,13.8.74a86.8,86.8,0,0,0,13.19.22,38.53,38.53,0,0,0,10-2,30.27,30.27,0,0,0,6.17-3,41.37,41.37,0,0,0,3.66-2.73l2.39-2c.64-.52,1.37-1.32,1.79-1.61s.39-.08.13.49a14.4,14.4,0,0,1-1.74,2.8,24.29,24.29,0,0,1-1.73,2.06,26.76,26.76,0,0,1-2.47,2.24,27.51,27.51,0,0,1-7.36,4.15,41.75,41.75,0,0,1-12.78,2.38,103.41,103.41,0,0,1-12.95-.43c-2.14-.17-4.28-.37-6.39-.5-1.06-.07-2.11-.11-3.16-.14-.51,0-1,0-1.55,0l-.76,0h-.3c-.11,0-.11.05-.13.1l-.6,1.41-1.29,3q-1.46,3.42-2.93,6.85l-8.39,1.61c-2.5.49-5,1-7.49,1.55q-7.5,1.59-15,3.5c-9.92,2.58-19.85,5.54-29.07,9.86-.8.36-1.56.78-2.34,1.17s-1.54.81-2.29,1.25a9.84,9.84,0,0,0-3.6,2.8c-1.73,2.35-2.12,5.75-1.91,9.08a47.55,47.55,0,0,0,1.95,10.13,104.54,104.54,0,0,0,3.52,10c2.67,6.56,5.8,13,9.13,19.27s6.87,12.51,10.53,18.65Z"/><path class="cls-4" d="M456.08,232.55s-2.73,14.24-5.61,29.69"/><polygon class="cls-1" points="370.8 324.39 392.56 323.15 375.37 358.91 363.92 338.47 370.8 324.39"/><polygon class="cls-4" points="370.8 324.39 392.56 323.15 375.37 358.91 363.92 338.47 370.8 324.39"/><polygon class="cls-1" points="345.3 371.39 356.7 390.5 335.52 431.1 319.81 422.61 345.3 371.39"/><polygon class="cls-4" points="345.3 371.39 356.7 390.5 335.52 431.1 319.81 422.61 345.3 371.39"/><path class="cls-1" d="M378.67,452.38c11.6-3.9,17.63-12.38,18.87-21.79L402,437l3.93-2.59a79.77,79.77,0,0,1-6.95-11.26l-7.48,1.62C389,437.37,371.71,454.72,378.67,452.38Z"/><path class="cls-1" d="M395.74,422.52l1.81-.37,1.71-.35.21-.05.1,0s.07,0,.08,0l.18.36.37.72,1,2,.88,1.6c.59,1.06,1.21,2.11,1.85,3.14l1,1.54.51.76.59.86c.4.58,1,1.32,1.45,2l-4.75,3.12-1.08.7-2.78-4.19-.22-.34-.09-.14-.17-.28A4.32,4.32,0,0,0,398,433a21.66,21.66,0,0,1-.87,3,29,29,0,0,1-2.32,4.83,28.39,28.39,0,0,1-5.6,6.6,25.45,25.45,0,0,1-9.58,5.39c-1.1.33-1.11-.25-.41-1.08a14.48,14.48,0,0,1,3.79-2.84,26.85,26.85,0,0,0,8-6.49,25.35,25.35,0,0,0,2.88-4.34l.58-1.17.51-1.21c.19-.4.3-.83.46-1.24l.22-.63c.08-.29.17-.76.26-1.13.37-1.54.66-3.14.94-4.78l5.29,7.75,1.53-1,.75-.48-1.27-1.89c-.61-.92-1.19-1.84-1.75-2.78s-1.11-1.89-1.64-2.85-1.14-2.13-1.29-2.45c0,0,0-.12-.08-.12l-.12,0-.26.05-1,.21-2.25.46-2.25.46-.32.06-.15,0-.07,0s0,0,0,.06l-.19.76c-1.31,4.61-3.73,8.69-6.11,12.64-1.88,3-3.73,6-5.6,9-.4.66-.77,1.32-1.15,2s-.61,1.11-.8,1.51c-.09.19-.16.36-.21.48a1.21,1.21,0,0,0-.05.14l0,0c-.07,0-.17,0-.24,0-.3.08-.19.15-.13-.06a.61.61,0,0,0,0-.15s0,0,0,0,0,.05.07.06a5.34,5.34,0,0,0,.49.28c.16.1.37.16.5.26s.08.45-.5.74a1.9,1.9,0,0,1-.62.16,1.46,1.46,0,0,1-.52-.05,1.35,1.35,0,0,1-.67-.5,1.86,1.86,0,0,1-.23-1.3,4.75,4.75,0,0,1,.24-.92,28.82,28.82,0,0,1,2.32-4.42c.85-1.4,1.73-2.77,2.61-4.16,1.76-2.76,3.53-5.54,5.09-8.42a42.21,42.21,0,0,0,3-6.55c.19-.55.36-1.12.51-1.68l.4-1.76,1.79-.39,3.66-.76Z"/><path class="cls-3" d="M450.93,299.14l6.41-15.72a6.9,6.9,0,0,0-2.62-1.06l-6.4,15.71A8.76,8.76,0,0,0,450.93,299.14Z"/><polygon class="cls-1" points="292.97 263.5 438.91 264.91 438.91 277.44 292.97 277.44 292.97 263.5"/><path class="cls-1" d="M402.82,275.77l34.63.2.07-9.67h0l-16.35-.18-62.51-1c-9.24-.14-18.54-.21-27.71-.25-11.79-.06-23.63,0-35.4-.38-7.34-.25,2-2.74,15.58-2.63,24.07.19,48.13.53,72.39,1.14,14.51.36,29.62.39,44.46.59l12.13.16L440,278.56l-26.64-.11-30.14-.13c-15.22,0-30.51-.12-45.61-.09-11.74,0-23.25.22-34.86.34l-7.63.09h-3.42c0-1.42,0-2.73,0-3.94q0-1.25,0-2.28c0-1.39.07-2.53.14-3.47a15.37,15.37,0,0,1,.67-4,10.53,10.53,0,0,1,.49-1.35c.55-.92,1,3,1.17,10,0,.63,0,1.25,0,1.89v.34l0,.24.47,0,1.84,0,3.7-.06,7.47-.11,15.13-.14,30.79-.09,49.07.1Z"/><path class="cls-3" d="M347.78,261.67l-32.33-.24-19.64-86.55c-.28-1.42-5.86-.16-5.51,1.25l20.63,90.92,36.81.26C348.88,267.34,348.92,261.66,347.78,261.67Z"/><path class="cls-1" d="M410.05,379.16q1.79-6,3.55-12.06c.43-1.47.78-3,1.21-4.42,1.54-5.16,3.12-10.31,4.64-15.48.67-2.29,1.26-4.62,1.83-6.92a73,73,0,0,1,2.42-8.83c.68-1.78,2.79,1.28,1.91,4.68-1.57,6-3.3,12-5.33,17.94-1.2,3.56-2.1,7.36-3.15,11.05-1.16,4.06-2.35,8.11-3.52,12.16-.72,2.5-1.45,5-2.16,7.49-1.07,3.78-2.18,7.57-3.15,11.35-.76,2.94-1.34,5.87-2,8.8-.14.64-.26,1.28-.42,1.93-.59,2.39-1,3.1-1.88,3.41a3.33,3.33,0,0,1-.61.2c-.65.07-.87-1-.57-2.82.88-5.32,2.28-10.8,3.75-16.28,1.09-4.07,2.26-8.14,3.4-12.22Z"/><path class="cls-1" d="M297.47,369.5q.31-10.86.61-21.72c.07-2.64.06-5.28.13-7.92.28-9.3.6-18.61.86-27.91.12-4.13.15-8.28.16-12.38,0-5.27-.13-10.55.27-15.81.24-3.28,3,.92,2.95,7-.1,10.75-.38,21.5-.94,32.33-.34,6.48-.31,13.23-.47,19.86-.17,7.29-.37,14.58-.55,21.87q-.18,6.74-.34,13.46c-.14,6.8-.33,13.63-.39,20.37,0,5.25.09,10.39.14,15.58,0,1.14.05,2.25.05,3.41,0,4.26-.23,5.62-1,6.52a3.61,3.61,0,0,1-.54.6c-.61.4-1.09-1.35-1.22-4.47-.39-9.28-.33-19-.19-28.86.1-7.29.28-14.61.43-21.92Z"/><path class="cls-1" d="M61.68,273.2a24.47,24.47,0,0,1-10.94-2.74c-1-.5-3.44.88-2.13,1.53A26.94,26.94,0,0,0,60.7,275.1c1.26,0,2.84-1.88,1-1.9Z"/><path class="cls-1" d="M110.34,115.69a9.38,9.38,0,0,1,.63,2.66c.06.76-.17,3.09-1.39,2.1-1.44-1.17-1.93-3.84-2.21-5.59-.16-.94-2.19-.43-2,.55.37,2.24,1.27,6.45,4,6.81a3.35,3.35,0,0,0,3.63-2.94,8.59,8.59,0,0,0-.63-4.13c-.36-.93-2.38-.36-2,.54Z"/><path class="cls-1" d="M115.34,105.22a8.91,8.91,0,0,1,1.62,5.41c.13,3.1.39,6.2.69,9.31l0,.29,0,.14v0s0,0,0,0,.38.29.65.5c.61.48,1.24,1,1.87,1.48s1.24,1,1.84,1.62a9,9,0,0,1,1.72,2.15,2.47,2.47,0,0,1,0,2.57A3.89,3.89,0,0,1,122,130.1a6.28,6.28,0,0,1-1.71.42,12.55,12.55,0,0,1-1.61.07h-.12l0,0c0-.58,0,1.79-.1,3.19a23.25,23.25,0,0,1-.23,2.33l-.15,1.17-.24,1.16a20.11,20.11,0,0,1-2.65,6.84,18.77,18.77,0,0,1-5.08,5.35,33.21,33.21,0,0,1-13.46,4.93l-2.08.29-1,.15a3.87,3.87,0,0,0-.69.21,8.07,8.07,0,0,0-2.74,2.24,30.59,30.59,0,0,0-3.94,6.44,11.12,11.12,0,0,1-.54,1.15c-.3.47-.58.67-.83.67s-.48-.2-.53-.67a1.39,1.39,0,0,1,0-.67c.83-1.86.9-3.69,2.11-5.57a20.92,20.92,0,0,1,4.08-4.83l.69-.5c.26-.15.54-.29.81-.42a3.75,3.75,0,0,1,.91-.31l.47-.12.36-.06,2.88-.5c1.51-.35,3-.6,4.51-1a28.77,28.77,0,0,0,5.51-1.93,12.34,12.34,0,0,0,1.17-.67l.81-.48c.29-.18.57-.43.88-.66a14.94,14.94,0,0,0,3.84-4.22,18.14,18.14,0,0,0,2.49-6.81c.15-.63.18-1.3.27-2a19,19,0,0,0,.15-2,19.59,19.59,0,0,0,0-2c0-1.1,0-2.19,0-3.28l1.39.2a5.41,5.41,0,0,0,.68.07c.2,0,.49,0,.55,0a7.49,7.49,0,0,0,1.27-.07,4,4,0,0,0,1.09-.27,1.59,1.59,0,0,0,.58-.37.18.18,0,0,0,0-.2,1.86,1.86,0,0,0-.14-.26,3.38,3.38,0,0,0-.25-.36,11.58,11.58,0,0,0-1.37-1.45c-1-.92-2.07-1.76-3.09-2.57-.3-.24-.59-.49-.89-.72l-.32-.28-.16-.14,0-.21c0-.28,0-.55-.07-.82,0-.61-.1-1.21-.14-1.79-.08-1.16-.16-2.23-.22-3.22-.23-4-.2-6.45-.19-6.73A31.83,31.83,0,0,1,115.34,105.22Z"/><path class="cls-1" d="M115,139.74c-.1,0-.23,0,.12,0l-.31,0a4.94,4.94,0,0,1-.86,0,3.18,3.18,0,0,1-2.36-1.44c-.63-.92-3,0-2.26,1.08a5.83,5.83,0,0,0,6.12,2c.48-.11,1.16-.6,1-1.17s-1-.62-1.45-.52Z"/><path class="cls-1" d="M112.81,108c-4.38-1.82-10.78-2-12.74,3.23-.61,1.62,2.3,1.72,2.79.42,1.32-3.51,5.49-2.75,8.3-1.58,1.32.55,3.37-1.35,1.65-2.07Z"/><path class="cls-1" d="M420.5,121.65a18,18,0,0,0,.54-4.33,13.41,13.41,0,0,0-.12-1.52,3.12,3.12,0,0,0-.85-2,3.47,3.47,0,0,0-2.19-.78,6.89,6.89,0,0,0-2.4.38c-1,.33-2,.88-3,1.13-.16.05-.15-.17-.35-.33a1,1,0,0,1-.32-.79,1.89,1.89,0,0,1,1-1.79,12.63,12.63,0,0,1,3.75-1,6.7,6.7,0,0,1,4.19.87,5.47,5.47,0,0,1,1.9,2.07,6.41,6.41,0,0,1,.68,2.48A22.42,22.42,0,0,1,423,121a23.62,23.62,0,0,1-.71,2.93,30.15,30.15,0,0,1-1.65,4.21c-.49,1.06-.9,2.14-1.45,3.17-.13.22-.24.46-.37.68-.54.8-.89.95-1.5.69a2.68,2.68,0,0,1-.42-.19,1,1,0,0,1-.24-1.37c.78-1.76,1.7-3.5,2.43-5.33a22.53,22.53,0,0,0,1.31-4.18Z"/><path class="cls-1" d="M428.21,113.32a7.68,7.68,0,0,1,1.92-1.26c2.19-1,3.86-.52,5.57,1.18.9.89,4.45.86,2.94-.64-3.77-3.75-9.68-4.59-13.76-.79-1.05,1,2.34,2.43,3.33,1.51Z"/><path class="cls-1" d="M423.51,142.89a3.06,3.06,0,0,1-.87.18,4,4,0,0,1-.91,0,2,2,0,0,1-.65-.06,4.34,4.34,0,0,1-1.86-1.21,7.27,7.27,0,0,1-.61-.64,2.26,2.26,0,0,1-.47-1c0-.13,0-.08,0,0a3.4,3.4,0,0,0,.57,0,3.51,3.51,0,0,1,1.77.39.87.87,0,0,0,.44.13,1.7,1.7,0,0,1,.45,0,4.56,4.56,0,0,1,.51,0h.55a6.22,6.22,0,0,0,.72-.1,4,4,0,0,0,1.13-.4c.28-.14.51-.34.82-.48l.2-.09c.26-.1.41-.07.46-.11l0,0a.85.85,0,0,0-.08.32c-.1.33-.16.72-.27,1.11a4.35,4.35,0,0,1-.56,1,3.54,3.54,0,0,1-1.4,1Z"/></g></svg>