<svg id="Layer_1" data-name="Layer 1" xmlns="http://www.w3.org/2000/svg" width="520" height="520" viewBox="0 0 520 520"><defs><style>.cls-1{fill:#221f1f;}.cls-2,.cls-5,.cls-6{fill:none;stroke:#221f1f;stroke-miterlimit:10;}.cls-3{fill:#232020;}.cls-4{fill:#fff;}.cls-5{stroke-width:2.5px;}.cls-6{stroke-width:0.2px;}</style></defs><title>Notioly v2</title><g id="_85.Having_fun" data-name="85.Having fun"><path class="cls-1" d="M410.69,318.62c.39,5.46,1.14,10.85,1.76,16.28.33,2.72.59,5.45.81,8.19s.29,5.51.32,8.24c0,5.44.21,10.87.65,16.28a135.07,135.07,0,0,0,2.31,16.17,76.21,76.21,0,0,1-3.86-16,127.4,127.4,0,0,1-1.1-16.44c0-5.44-.34-10.84-.68-16.3A121.58,121.58,0,0,1,410.69,318.62Z"/><path class="cls-2" d="M238.1,140.82c2.84,44.67,8.5,66.38,34.12,62.63"/><path class="cls-1" d="M252.06,131.1a4,4,0,0,1,2.89-.37,3.27,3.27,0,0,1,1,.3,4,4,0,0,1,1.33,1.12,3.51,3.51,0,0,1,.65,1.6,5.76,5.76,0,0,1,0,1.31,3.8,3.8,0,0,1-.51,1.46c-.08.14,0,.13-.06,0a6.57,6.57,0,0,0-.35-.67c-.22-.49-.5-.92-.66-1.24a7.79,7.79,0,0,1-.44-.74c-.13-.3-.62-.39-1-.52a2.41,2.41,0,0,0-1.25-.14,2.55,2.55,0,0,0-.89.33,4.83,4.83,0,0,0-1.25,1.11c-.28.36-.46.77-.76,1.14l-.18.25c-.23.31-.39.4-.42.48a.07.07,0,0,0,0,0,1.33,1.33,0,0,0-.07-.45,14.58,14.58,0,0,1-.1-1.54,4.45,4.45,0,0,1,.37-1.55,4.33,4.33,0,0,1,1.74-2Z"/><path class="cls-1" d="M266.69,130.77a4.45,4.45,0,0,1,2.83-.29,3,3,0,0,1,1,.25,3.87,3.87,0,0,1,1.42,1.05,3.45,3.45,0,0,1,.75,1.6,4.79,4.79,0,0,1,.05,1.35,4,4,0,0,1-.5,1.51c-.08.14,0,.13-.06,0a4.72,4.72,0,0,0-.36-.68,13.69,13.69,0,0,0-.67-1.26c-.22-.32-.31-.5-.46-.72s-.66-.36-1.09-.48a3.33,3.33,0,0,0-1.41-.14,2.83,2.83,0,0,0-1,.31,4.75,4.75,0,0,0-1.36,1,4.39,4.39,0,0,0-.4.56l-.43.56-.19.25c-.25.31-.4.4-.44.48a.17.17,0,0,0,0,.05,4.26,4.26,0,0,0-.06-.46,11.77,11.77,0,0,1,0-1.58,4.72,4.72,0,0,1,.5-1.57,4.42,4.42,0,0,1,1.9-1.88Z"/><path class="cls-1" d="M117.66,169.06a13.85,13.85,0,0,0,6.66,2.93,7.92,7.92,0,0,0,6.31-2.49,14.71,14.71,0,0,0,2.79-4.66,37.41,37.41,0,0,0,2.26-9.88A77.71,77.71,0,0,0,136,144.6a85.5,85.5,0,0,0-.84-9.19c-.56-3.89-1.41-7.74-2.06-11.61-.43-2.42,2.64,0,3.53,4.61A90.51,90.51,0,0,1,138.13,153a70.83,70.83,0,0,1-1,7.51,27.35,27.35,0,0,1-2.48,7.4,14.1,14.1,0,0,1-2.63,3.55,10.58,10.58,0,0,1-3.86,2.39,10.84,10.84,0,0,1-4.49.44,13.33,13.33,0,0,1-4.2-1.34,31,31,0,0,1-8.16-6.39A78.34,78.34,0,0,1,102,154.22c-2.13-3.36-4.12-6.71-5.89-10.23-.4-.78-.78-1.53-1.15-2.33-1.32-3-1.5-4-1.16-4.88a4,4,0,0,1,.25-.58c.37-.46,1.18.63,2.19,2.72a132.75,132.75,0,0,0,10.7,18.45,70.74,70.74,0,0,0,5,6.29,37.92,37.92,0,0,0,5.8,5.34Z"/><path class="cls-1" d="M136.59,122.14c3.23-.75,5.71.85,6.06,4.22s-2.59,4.69-4.52,6.79c-.95,1,.69,2.92,1.64,1.89,1.59-1.74,3.69-2.87,4.7-5.11a7.38,7.38,0,0,0,.23-4.82,7,7,0,0,0-8.7-5.32c-1.49.35-.75,2.66.59,2.35Z"/><path class="cls-1" d="M94,136.79c-4,.26-10.08,2.37-9.77,7.25.42,6.44,8.72,8.15,13.77,7.48,1.58-.21,1.07-2.34-.48-2.14-3.61.48-10.81-.75-10.83-5.75,0-3.16,4.57-4.47,7.12-4.63,1.51-.1,1.81-2.31.19-2.21Z"/><path d="M136.48,137.78l-.37-.19-.19-.09-.2-.11-.08,0-.09,0-.12-.07-.05,0,0,0s0,0,0,0h0s0,0,0,0h0s0,0,0,0v0l.06,0,0,0h0s0,0,0,0l-.05,0h0s0,0,0,0,0,0,0,0h0l0,0V137l0,0s0,0,0,0l0,0s0,0,0,0l0,0s0,0,0,0,0,0,0,0h0l0,0,0,0s0,0,0,0l0,0v0s0,0,0,0h0s0,0,0,0h0s0,0,0,0h0l0,0s0,0,0,0,.05,0,.05,0,0,0,0,0,0,0,0,0h0l0,0a0,0,0,0,1,0,0h0s0,0,0,0h0l0,0h0l0,0,0,0s0,0,0,0,0,0,0,0l0,0,0,0h0s0,0,0,0,0,0,0,0h0s0,0,0,0h0s0,0,0,0h0s0,0,0,0v0s0,0,0,0h0s0,0,0,0l0,0a0,0,0,0,1,0,0s0,0,0,0l0,0h0a0,0,0,0,0,0,0s0,0,0,0,0,0,0,0v0l0,0h0s0,0,0,0,0,0,0,0a0,0,0,0,1,0,0s0,0,0,0h0v0s0,0,0-.05h0v0s0,0,0,0h0s0,0,0,0,0,0,0,0l0,0s0,0,0,0l0,0h0v0h0s0,0,0,0h0l0,0v0s0,0,0,0,0,0,0-.05,0,0,0,0h-.08s0,0,0,0,0,0,0,0,0,0,0,0h0s0,0,0,0,0,0,0,0,0,0,0,0h0l0,0h0l.06,0h0l0,0h0s0,0-.06,0h0v0h0l0,0s0,0,0,0h0v0l0,0,0,0s0,0,0,0l0,0h0v0h0c.05,0,0,0,0,0h0s0,0,0,0h0l0,0,0,0h0s0,0,0,0,0,0,0,0h0s0,0,0,0a0,0,0,0,0,0,0h0s0,0,0,0l0-.07,0,.06,0,0s0,0,0,0l0,0s0,0,0,0l0,0,0,0h0l0,0h0l0,0h0l0,0,0,0h0l0,.05s0,0,0,0h0s0,0,0,0h0v0h0l0,0h0s0,0,0,0h0l0,0s0,0,0,0h0a0,0,0,0,0,0,0s0,0,0,0l0,0,0,0s0,0,0,0l0,0s0,0,0,0h0l0,0h0v0s0,0,0,0l.05,0,0,0h0v0h0l0,0s0,0,0,0v0h0l0,0s0,0,0,0l0,0,0,0,0,0h0l0,0h0s0,0,0,0l0,0,0,0a0,0,0,0,1,0,0l0,0h0s0,0,0,0,0,0,0,0,0,.07,0,.14a.08.08,0,0,1,0,0v0h0s.06,0,0,0h0a0,0,0,0,1,0,0s0,0,0,0v0h0s0,0,0,0h0v0l0,0,0,0h0l0,0s0,0,0,0,0,0,0,0l0,0s0,0,0,0h0l0,0h0s0,0,0,0h0s0,0,0,0h0s0,0,0,0,0,0,0,0h0s0,0,0,0,0,0,0,0h0s0,0,0,0h0s0,0,0,0h0l-.06,0h0l-.06,0,0,0h0l0,0-.07,0,0,0h0l-.15-.07-.17-.09Zm-.63-1.35h0s0,0,0,0h0Zm-.23.39,0,0Zm1.8.86h0s0,0,0,.05,0,0,0,0,0,0,0,0v0s0,0,0,0h0s0,0,0,0h0s0,0,0,0,.05.07,0,.07,0,0,0,0,0,0,0,0v0l0,0s0,0,0,0h0v0h0v-.05s0,0,0,0h0s0,0,0,0h0l0,0s0,0,0,0v-.05h0v0s0,0,0,0h0s0,0,0,0h0l0,0s0,0,0,0A.09.09,0,0,0,137.42,137.68Zm0,.2h0v0S137.37,137.88,137.37,137.88Zm0-.26,0,0s0,0,0,0l0,0h0S137.38,137.64,137.34,137.62Zm-.1-.07s0,0,0,0v0l0,0,0,0s0,0,0,0l0,0a0,0,0,0,0,0,0s0,0,0,0h0s0,0,0,0,0,0,0,0l0,0h0s0,0,0,0h0s0-.05,0,0,.05,0,0,0h0v0s0,0,0,0h0s0,0,0,0h0c-.05-.05,0,0,0,0v0l0,0,0,0S137.24,137.55,137.24,137.55Zm-1.06-.6c-.05,0,0,0,0,0v0h0s0,0,0,0,0,0,0,0h0s0,0,0,0h-.05v0h0s0,0,0,.08h0v0l0,0s0,0,0,0h0l0,0h0l0,0a0,0,0,0,0,0,0Zm.42.33h0s0,0,0,0h0s0,0,0,0h0Zm-.44-.29s.06,0,0,0l0,0s0,0,0,0Zm.78.56s0,0,0,0S136.94,137.55,136.94,137.55Zm-.6-.44h0l0,0S136.31,137.08,136.34,137.11Zm.69.47h0S137,137.57,137,137.58Zm-.2-.16a0,0,0,0,0,0,0A0,0,0,0,0,136.83,137.42Zm.22.16Zm-.69-.5h0s0,0,0,0Zm-.38-.31h0s0,0,0,0Zm.08,0h0S136.06,136.82,136.06,136.81Zm-.07-.06s0,0,0,0,0,0,0,0h0Zm.16.13,0,0h0l-.05-.05s0,0,0,0v0s0,0,0,0h0Zm-.16-.14h0Zm.11,0,0,0s0,0,0,0h0a0,0,0,0,0,0,0h0s0,0,0,0v0Zm.1,0s0,0,0,0h0a0,0,0,0,0,0,0h.05s0,0,0,0l0,0Zm.65.52h0s0,0,0,0S136.84,137.23,136.85,137.25Zm-.68-.45h0v0a.17.17,0,0,0,.07,0h0v0s0,0,0,0,0,0,0,0h0s0,0,0,0h0Zm.79.58h0s0,0,0,0v0s0,0,0,0Zm.2.16h0s0,0,0,0h0v0Zm-.2-.13h0Zm.21.17s0,0,0,0Zm-.81-.61Zm.49.36v0h0s0,0,0,0h0l0,0,0,0Zm-.45-.35s0,0,0,0l0,0s0,0,0,0,0,0,0,0,0,0,0,0v0s0,0,0,0,0,0,0,0h0Zm.26.17,0,0,0,0v0s0,0,0,0Zm.17.14a0,0,0,0,0,0,0S136.83,137.28,136.83,137.29Zm.12.08h0Zm.09.07Zm-.69-.56,0,0s0,0,0,0S136.4,136.92,136.35,136.88Zm-.34-.18s0,0,0,0h0a0,0,0,0,0,0,0s0,0,0,0h0Zm.13.12h0s0,0,0,0Zm.22.21s0,0,0,0h0Zm.8.45h0Zm-.28-.23v0S136.9,137.27,136.88,137.25Zm-.64-.52,0,0s0,0,0,0-.06,0,0,0Zm.06,0s0,0,0,0S136.3,136.77,136.3,136.77Zm-.36-.3h0S135.94,136.46,135.94,136.47Zm.05.09,0,0s-.05,0-.05,0S136,136.53,136,136.56Zm-.11.31s0,0,0,0v0a.07.07,0,0,1,0-.05.35.35,0,0,0,0-.11v0h0s0,0,0,0h0s0,0,0,0h0s0,0,0,0l0,0s0,0,0,0,0,0,0,0,0,0,0,0,0,0,0,0h0s0,0,0-.06h0l0,0a.15.15,0,0,0,0,.07v0s0,0,0,0h0v0a0,0,0,0,0,0,0v0s0,0,0,0h0l0,0v0l0,0,0,0Zm.08.07s0,0,0,0v0a.05.05,0,0,1,0,0s0,0,0,0,0,0,0,0l0,0s0,0,0,0,0,0,0,0,0,0,0,0v0s0,0,0,0h0s0,0,0,0h0v0h0S136,136.93,136,136.94Zm.17.07s.08,0,0,0S136.14,137,136.13,137Zm-.11,0h0l0,0c-.06,0,0,0,0,0l0,0s0,0,0,0h0l-.05,0s0,0,0,0Zm.12,0h0C136.18,137.07,136.17,137.06,136.14,137Zm.49.34h0Zm-.74-.46s0,0,0,0S135.87,136.9,135.89,136.92Zm0,0h0S135.86,136.91,135.89,136.94Zm1.35.92s0,0,0,0h0Zm.07.08h0s0,0,0,0v0h0s0,0,0,0h0l0,0s0,0,0,0v0s0,0,0,0,0,0,0,0,0,0,0,0,0,0,0,0,0,0,0,0l0,0h0v0l0,0h0l0,0,0,0h0s0,0,0,0h0s0,0,0,0v0s0,0,0,0l-.05,0v0h0s0,0,0,0h0s0,0,0,0h0s0,0,0,0h0s0,0,0,0,0,0,0,0l0,0h0s0,0,0,0v0h0s0,0,0,0h0s0,0,0,0,0,0,0,0h0v0h0l0,0h0v0l0,0s0,0,0,0h0s0,0,0,0,0,0,0,0,0,0,0,0h0s0,0,0,0,0,0,0,0h0s0,0,0,0v0A0,0,0,0,0,137.31,137.94Zm.16.11s0,0,0,0ZM135.75,137s0,0,0,0h0s0,0,0,0h0Zm1.82,1.17v0S137.54,138.11,137.57,138.13ZM135.73,137s.05,0,0,0S135.73,137,135.73,137Zm1.84,1.16s0,0,0,0S137.57,138.14,137.57,138.16Zm0,0h0Zm-2.11-1.08h0s0,0,0,0l0,0a0,0,0,0,1,0,0s0,0,0,0h0s0,0,0,0,0,0,0,0h0s0,0,0,0h0v0h0l0,0s0,0,0,0Zm1.93,1.15,0,0Z"/><path d="M137.23,137.64h0Z"/><path d="M136.34,137Z"/><path d="M135.82,136.68s0,0,0,0,0,0,0-.06a.07.07,0,0,0,0-.05v0h0v0l-.06,0s0,0,0,0l0,0s0,0,0,0,0,0,0,.05l0,0s0,0,0,0h0l0,0S135.83,136.7,135.82,136.68Z"/><path d="M137.53,137.93s0,0,0,0h0s.06,0,0,0h0s0,0,0,0l0,0h0a.08.08,0,0,1,0,0l0,0h0v0s0,0,0,0h0s0,0,0,0Z"/><path d="M135.46,136.78h0l0,0,0,0s-.08-.07,0-.05l0,0h0l0,0,0,0h0s0,0,0,0,0,0,0-.06,0,0,0,0,0,0,0,0,0,0,0,0,0,0,0,0h0v0s0,0,0,0,0,0,0,.06S135.46,136.78,135.46,136.78Z"/><path d="M135.73,136.61s0,0,0,0,0,0,0,0l.05,0h0s0,0,0,0h0l0,0s0,0,0,0,0,0,0,0l0,0h0l0,0S135.72,136.61,135.73,136.61Z"/><path d="M137.59,137.86l0,0h0l0,0h0l0,0s0,0,0,0l0,0a0,0,0,0,0,0,0h0l.08.05Z"/><path d="M135.61,136.22h0l0,0h-.05s0,0,0,0h0l0,0s0,0,0,0h0s0,0,0,0l0,0S135.58,136.22,135.61,136.22Z"/><path d="M135.53,136.65l0,0,0,0,0,0s0,0,0,0l0,0h0s0,0,0,0,0,0,0,0l0,0,0,0h0Z"/><path d="M135.61,136.78s0,0,0,0h0s0,0,0,0h0s0,0,0,0a.07.07,0,0,0,0,0Z"/><path d="M137.57,137.8s0,0,0,0h0l0,0,0-.05s0,0,0,0,0-.05,0-.05,0,0,0,0l0,.05A0,0,0,0,0,137.57,137.8Z"/><path d="M135.49,136.56h0l0,0s0,0,0,0,0,0,0,0,0,0,0,0l0,0s0,0,0,0h0l.05.05S135.5,136.57,135.49,136.56Z"/><path d="M135.67,136.42h0s0,0,0,0h0s0,0,0,0,0,0,0,0l0,0S135.66,136.42,135.67,136.42Z"/><path d="M135.7,136.7l0,0s-.05,0-.05,0l0,0S135.7,136.71,135.7,136.7Z"/><path d="M135.52,136.48h0s0,0,0,0l0,0,0,0s0,0,0,0h0Z"/><path d="M135.47,136.64l0,0s0,0,0,0,0,0,0,0S135.47,136.64,135.47,136.64Z"/><path d="M135.41,137.06s0,0,0,0,0,0,0,0h0C135.47,137.11,135.44,137.09,135.41,137.06Z"/><path d="M135.52,136.37s0,0,0,0,0,0,0,0l0,0h0l0,0s0,0,0,0,0,0,0,0S135.51,136.37,135.52,136.37Z"/><path d="M135.78,136.69c-.08-.06,0,0,0,0S135.79,136.7,135.78,136.69Z"/><path d="M137.56,137.85l0,0h0l.06,0S137.57,137.86,137.56,137.85Z"/><path d="M135.59,136.29l0,0h0v0s0,0,0,0h0S135.59,136.29,135.59,136.29Z"/><path d="M135.5,136.52s0,0,0,0h0s-.05,0,0,0h0Z"/><path d="M135.49,136.84s0,0,0,0l0,0s0,0,0,0,0,0,0,0Z"/><path d="M135.56,136.31a0,0,0,0,0,0,0l0,0h0l0,0s0,0,0,0Z"/><path d="M135.79,136.85s0,0,0,0S135.8,136.87,135.79,136.85Z"/><path d="M135.51,136.71s0,0,0,0h0S135.48,136.68,135.51,136.71Z"/><path d="M135.8,136.77s0,0,0,0h0s0,0,0,0Z"/><path d="M135.47,136.51s0,0,0,0S135.5,136.53,135.47,136.51Z"/><path d="M135.49,136.65s0,0,0,0S135.52,136.67,135.49,136.65Z"/><path d="M137,137.27l0,0,0,0h0s0,0,0,0Z"/><path d="M137.13,137.39s0,0,0,0h0Z"/><path d="M135.68,136.59s0,0,0,0S135.7,136.6,135.68,136.59Z"/><path d="M135.47,136.69l0,0Z"/><path d="M135.56,136.24s0,0,0,0S135.58,136.25,135.56,136.24Z"/><path d="M135.49,136.81s0,0,0,0Z"/><path d="M135.68,136.23s-.05,0,0,0l.05,0S135.69,136.24,135.68,136.23Z"/><path d="M137.6,138.05h0s0,0,0,0h0Z"/><path d="M137.53,137.85h0l0,0Z"/><path d="M135.52,136.42s0,0,0,0,0,0,0,0l0,0S135.54,136.45,135.52,136.42Z"/><path d="M135.51,136.49s0,0,0,0-.06,0,0,0h0Z"/><path d="M135.77,136.44h0s0,0,0,0Z"/><path d="M135.49,136.38h0S135.53,136.4,135.49,136.38Z"/><path d="M135.71,136.46s0,0,0,0S135.73,136.47,135.71,136.46Z"/><path d="M135.49,136.29s0,0,0,0S135.52,136.32,135.49,136.29Z"/><path d="M135.53,136.28s0,0,0,0S135.53,136.28,135.53,136.28Z"/><path d="M135.53,136.34s0,0,0,0S135.55,136.36,135.53,136.34Z"/><path d="M137.35,137.6h0Z"/><path d="M135.47,136.61s0,0,0,0S135.47,136.61,135.47,136.61Z"/><path d="M135.63,136.77l0,0S135.66,136.79,135.63,136.77Z"/><path d="M135.77,136.6s0,0,0,0S135.78,136.61,135.77,136.6Z"/><path d="M135.54,136.32s0,0,0,0S135.55,136.33,135.54,136.32Z"/><path d="M135.74,136.82h0S135.76,136.83,135.74,136.82Z"/><path d="M135.5,136.53s0,0,0,0S135.52,136.54,135.5,136.53Z"/><path d="M135.6,136.28s0,0,0,0S135.62,136.29,135.6,136.28Z"/><path d="M135.51,136.87h0S135.52,136.87,135.51,136.87Z"/><path d="M137.14,137.42Z"/><path d="M135.67,136.74h0s0,0,0,0S135.67,136.75,135.67,136.74Z"/><path d="M135.49,136.45h0S135.5,136.46,135.49,136.45Z"/><path d="M136.91,137.25h0S136.92,137.26,136.91,137.25Z"/><path d="M137.32,137.79h0s0,0,0,0,0,0,0,0h0s0,0,0,0h0a0,0,0,0,0,0,0Z"/><path d="M137.26,137.78s0,0,0,0h0l0,0C137.31,137.82,137.27,137.79,137.26,137.78Z"/><path d="M137.28,137.75h0s0,0,0,0S137.28,137.75,137.28,137.75Z"/><path d="M137.28,137.73s0,0,0,0S137.3,137.75,137.28,137.73Z"/><path d="M137.29,137.73s0,0,0,0S137.31,137.75,137.29,137.73Z"/><path d="M137.26,137.55s0,0,0,0S137.32,137.6,137.26,137.55Z"/><path d="M137.32,137.64h0S137.34,137.66,137.32,137.64Z"/><path d="M137.29,137.61s0,0,0,0S137.32,137.64,137.29,137.61Z"/><path d="M137.27,137.64h0S137.29,137.65,137.27,137.64Z"/><path d="M137.27,137.62h0S137.28,137.63,137.27,137.62Z"/><path d="M137.31,137.65Z"/><path d="M136.13,136.92h0s0,0,0,0h0Z"/><path d="M136.15,137s0,0,0,0S136.16,137,136.15,137Z"/><path class="cls-1" d="M145.63,115.77c-3.79,2.85-19.73,13-40.37,7-2.25,7.44-7.06,11.94-11.37,13.46s-22.15,1.38-24.26-11.95c-3.4-21.52,25.45-22.36,26.92-22.19,7.8-10.61,19.83-18.77,33.57-17.31,6.17.22,13.84,5.8,14.44,6.29Q145.32,103.37,145.63,115.77Z"/><path class="cls-1" d="M94.71,103.6a38.86,38.86,0,0,0-15,3.67,20.39,20.39,0,0,0-3.23,2,15.27,15.27,0,0,0-2.7,2.56,13.37,13.37,0,0,0-3,6.64,18.73,18.73,0,0,0,.06,5.49,12.57,12.57,0,0,0,1.85,5,12.93,12.93,0,0,0,3.3,3.34,18.56,18.56,0,0,0,4.35,2.15,27.29,27.29,0,0,0,9.81,1.35,17.54,17.54,0,0,0,2.43-.27,5.55,5.55,0,0,0,1.1-.29,9.49,9.49,0,0,0,1.1-.46,15.55,15.55,0,0,0,4-2.79,19.25,19.25,0,0,0,3.1-3.84,21.93,21.93,0,0,0,1.2-2.18c.17-.38.37-.75.52-1.14l.23-.58.12-.3,0-.07,0-.13.08-.23.56-1.66s0-.09,0-.09l.11,0,.21.06.43.11.86.21,2.42.61c.73.21,1.49.27,2.23.41s1.48.27,2.23.34c1.51.09,3,.31,4.51.25.75,0,1.5,0,2.25,0l2.24-.17A51.43,51.43,0,0,0,143.75,116c2-1.29,2.14-.64.77,1a18.29,18.29,0,0,1-3.31,3,26.53,26.53,0,0,1-5.57,2.94,46.83,46.83,0,0,1-24.38,2.67c-1-.2-2.05-.31-3.05-.57l-1.51-.39-.35-.09h0l0,0c-.05,0,0,0-.07.06l-.47,1.16a27.09,27.09,0,0,1-1.43,2.85,19.65,19.65,0,0,1-9.46,8.52,9,9,0,0,1-2,.54,18.44,18.44,0,0,1-1.93.23,28.65,28.65,0,0,1-3.82,0,29.34,29.34,0,0,1-7.54-1.41,18.38,18.38,0,0,1-6.8-3.91,13.84,13.84,0,0,1-4-6.87,21.23,21.23,0,0,1-.15-8.55,15.79,15.79,0,0,1,4-7.61,22.14,22.14,0,0,1,6.93-4.86,37.9,37.9,0,0,1,7.92-2.55c1.49-.32,3-.56,4.5-.73.76-.08,1.52-.15,2.28-.2s1.7-.07,1.88,0l.59-.75c.29-.36.57-.74.88-1.1.62-.7,1.2-1.43,1.85-2.11a49.59,49.59,0,0,1,4-3.91c1-.86,2-1.62,3-2.41s2.11-1.47,3.24-2.1a34.9,34.9,0,0,1,7-3.24A32.68,32.68,0,0,1,132,84.25a32.74,32.74,0,0,1,10.9,4.62c.42.26.83.53,1.24.8l.33.23.44.32.45.33c.09.14,0,.35.07.52l.19,3.12q.17,2.88.34,5.77c.1,1.69.2,3.35.3,5.07.31,6.34.24,8.37-.34,9.75a6.08,6.08,0,0,1-.4.9c-.47.62-1-2-1.34-6.57-.26-3.44-.49-6.91-.71-10.43-.11-1.75-.21-3.52-.32-5.29l-.07-1.33v-.21a0,0,0,0,0,0,0h0l-.21-.14-.54-.36-1.09-.69a29.81,29.81,0,0,0-9.36-4,8.23,8.23,0,0,0-1.2-.16l-.69-.06-.65,0a24.43,24.43,0,0,0-2.57-.09,22.32,22.32,0,0,0-2.58.15l-1.28.13-1.28.24a34,34,0,0,0-13.27,5.82,46.59,46.59,0,0,0-5.64,4.78c-.86.89-1.73,1.77-2.52,2.73-.4.47-.82.93-1.19,1.43l-1.65,2.12-.93,0h-.74l-.91,0Z"/><path class="cls-1" d="M80,98.35a1.59,1.59,0,0,1-1,1.24c-.16.08-.47-.11-.45-.26,0-.35.06-.68.09-1s.8-3.2,1-4.24.5-2,.79-3c.59-2,1.17-4,1.8-6.06.15-.45.3-.89.48-1.33.61-1.5,1.13-3,1.7-4.54a3.73,3.73,0,0,0,.25-.78,17.11,17.11,0,0,1,1-2.48,8.17,8.17,0,0,1,1.78-2.51,1.86,1.86,0,0,1,.35-.26l.34-.15.48-.19,1-.39,1.94-.8a2.51,2.51,0,0,1,.56-.2A4.43,4.43,0,0,0,93.43,71c.55-.25,1.1-.48,1.66-.7A8.52,8.52,0,0,1,96,70.1c.26,0,.23.21.15.27s0,.18.1.25a.15.15,0,0,1,0,.08,2.65,2.65,0,0,1-.46.33l-1.05.66c-.78.49-1.6,1-1.77,1.07L90.59,74l-1.66.85a3.35,3.35,0,0,0-.25.28,1.82,1.82,0,0,0-.2.26c-.14.22-.32.41-.48.64a14.9,14.9,0,0,0-.88,1.84c-.39.93-.73,1.9-.76,2a23.76,23.76,0,0,1-.94,2.28,2.29,2.29,0,0,0-.17.46l-1.38,4c-.23.69-.42,1.39-.63,2.09,0,.13-.09.25-.14.37s-.12.31-.17.47c-.47,1.66-1,3.3-1.44,5-.09.38-.79,2.17-.91,2.62C80.52,97.38,80,98.12,80,98.35Z"/><path class="cls-1" d="M167.53,466.08c-3.34.09-28.9,3.71-30.79,4.1.43-6.81-3.51-111.34-9.67-157.6-1.29,29.72-13.62,158.83-13.62,158.83-15.62,6.26-33.65-4.53-33.65-4.53C84.89,445,95.16,321.73,97.34,272.45c17.73-13.85,62.56-8.32,62.56-8.32Z"/><path class="cls-1" d="M95.19,334.68q-2.5,32.19-5.57,64.33c-1,10.72-2.1,21.43-3.3,32.13-.58,5.36-1.22,10.7-1.89,16.05l-1.08,8c-.43,2.68-.76,5.34-1.28,8l-.51,2.6c0,.08-.12.26,0,.29l.56.29a51.89,51.89,0,0,0,5.23,2.31,47.71,47.71,0,0,0,11,2.81,30.84,30.84,0,0,0,11.14-.52,7.75,7.75,0,0,0,1.33-.38l1-.31.17-.06c0-.06,0-.15,0-.22l.1-1,.56-5.85q3.66-37.67,7.13-75.34l3.35-37.68c1-12.56,2.12-25.14,2.8-37.69l2.19-.09c.57,4.84,1.18,9.69,1.63,14.54,1.23,12.23,2.21,24.5,3.06,36.76s1.64,24.5,2.31,36.67q1,17.4,1.76,34.86.41,8.72.69,17.45c.11,2.91.19,5.82.26,8.73,0,1.45.06,2.91.08,4.37l0,2.06c0,.29,0,.6,0,.88l1.6-.24,3-.43,6-.82q6-.79,12-1.51c4-.47,6.2-.52,6.79-.31s-.58.5-2.92,1.08-6,1.35-10.69,2.27l-7.72,1.47-11.11,2c0-1.23,0-2.47,0-3.73v-.86l0-.51c0-.34,0-.68,0-1-.05-1.36-.1-2.76-.15-4.18-.1-2.85-.21-5.8-.32-8.83q-1.22-35.1-3.32-70.2c-.72-11.7-1.45-23.41-2.38-35.11s-1.93-23.41-3.41-35l3.57-.16c-1,17.08-2.57,34.12-4.1,51.23-1.76,19.19-3.55,38.77-5.36,58.46q-1.37,14.76-2.74,29.58-.69,7.4-1.4,14.78l-.37,3.88-.14,1.48a1.3,1.3,0,0,1,0,.36l-.37.12-.74.24-2.19.73a12.4,12.4,0,0,1-1.89.46c-.63.13-1.27.28-1.9.38l-1.92.2a13.74,13.74,0,0,1-1.92.11l-2.12,0-2.1-.15a18.12,18.12,0,0,1-2.08-.23c-.69-.11-1.39-.19-2.07-.33a53.91,53.91,0,0,1-8-2.22c-1.31-.47-2.59-1-3.86-1.55-.63-.28-1.26-.56-1.89-.88-.31-.15-.62-.3-.93-.47l-.63-.33-.73-.41c-1.46-.32-.69-1.65-.57-2.74l.4-2.06.38-2,.3-2c1.66-10.65,2.88-21.42,4-32.19,2.33-21.53,4.31-43.11,6.14-64.7,2.23-26.58,4.3-53.19,5.83-79.79l.38-7.55.1-2,0-.7,0-.35a.91.91,0,0,1,0-.17l.14-.1,1.1-.79A16,16,0,0,1,99.29,270a18.91,18.91,0,0,1,1.69-1,42,42,0,0,1,7.16-2.95,62.53,62.53,0,0,1,7.45-1.89,138,138,0,0,1,30.42-1.9c2.53.09,5.06.22,7.59.41,1.27.09,2.53.19,3.8.31l2.34.25.67.08.33,0,0,.33.06,1.35q.28,7.7.57,15.36.57,15.11,1.14,30.13c1.3,31.15,2.58,61.68,3.86,92.46.29,6.78.57,13.41.86,20.25,1,25.34,1.12,33.41.54,38.89-.13,1.24-.25,2.88-.4,3.61-.51,2.45-1.4-7.86-2.28-26.41-2.61-55-4.87-113.07-7.08-171.35l-.08-2-2.55-.24q-4-.33-8-.49c-5.36-.21-10.73-.24-16.07,0a105.74,105.74,0,0,0-15.84,1.9,46.25,46.25,0,0,0-14.6,5.28,14.73,14.73,0,0,0-1.57,1l0,0v.1l-.21,4.08-.44,8.15q-.47,8.15-1,16.28c-.71,10.84-1.51,21.68-2.33,32.51Z"/><path class="cls-1" d="M75.25,68.55c.16-1.73.26-3.3.25-4.74a12.15,12.15,0,0,0-.57-4c-.3-.78.13-1,.77-.06a12.73,12.73,0,0,1,1.42,6.13,27.82,27.82,0,0,1-.33,4,60.87,60.87,0,0,1-1.73,7.74c-1.62,5.72-4,11.85-5.26,14.94l-3.63,8.91q-1.77,4.45-3.29,9c-1,3.07-1.91,6.18-2.69,9.3a88.13,88.13,0,0,0-1.73,9.48,57.61,57.61,0,0,0-.35,9.55A40.24,40.24,0,0,0,59.7,148c.86,2.7,1.86,5.39,3,8,3.82,9.06,8.94,17.6,13.85,26.28.82,1.45,1.63,3,2.47,4.33.33.57,1.4,2.49,2.77,5.15.65,1.34,1.38,2.85,2.17,4.46s1.49,3.36,2.26,5.1a150.17,150.17,0,0,1,5.75,16c1.24,4.2,2.22,8.47,3.14,12.75s1.6,8.61,2.08,13a35.74,35.74,0,0,1,.38,3.7c0,1.33.14,2.65.23,4s.17,2.68.26,4c.1,1.87.13,3.75.19,5.62s0,3.74,0,5.61-.22,3.67-.39,5.48c-.16,1.64-.41.73-.42.16,0-1.68-.22-.33-.35-.18s-.1.12-.13,0,0-.37,0-1,0-1.46,0-2.49c0-2.07-.08-4.82-.17-7.64-.27-5.64-1-11.5-1.09-12.66,0-.14-.2-2.18-.65-5.19s-1.12-7-2-11.06a152.2,152.2,0,0,0-5-18c-.58-1.74-1.19-3.5-1.81-5.23-.11-.43-2.46-6.41-5.26-12.21s-6-11.4-6.27-11.85c-2.5-4.51-5.19-9-7.53-13.6-.45-.91-1-1.83-1.47-2.75-2.12-3.94-4.13-8-5.87-12.13-.87-2.08-1.65-4.21-2.35-6.36-.34-1.09-.61-2.22-.91-3.33s-.4-2.26-.6-3.39a56,56,0,0,1,0-13.93l.38-2.47c.17-1,.41-2.06.59-3.09,2.06-10.74,6.18-20.91,10.35-30.81.47-1.15,1.89-4.42,3.19-7.78s2.47-6.82,2.84-8.19c.22-.76.74-2.36,1.18-4A26.43,26.43,0,0,0,75.25,68.55Z"/><path class="cls-1" d="M80.36,65.82c.1.22-.09.42-.46.58a.82.82,0,0,1-.52,0,2.68,2.68,0,0,1-.25-.37c0-.07-.23-1.28-.32-1.68a8.07,8.07,0,0,1-.15-1.19c-.06-.8-.16-1.61-.25-2.41a5,5,0,0,1,0-.55,7.2,7.2,0,0,0-.16-1.85.62.62,0,0,0-.09-.29,11.77,11.77,0,0,1-.39-2c0-.55,0-1.09-.06-1.64a.33.33,0,0,1,0-.24.7.7,0,0,0,0-.51,5.53,5.53,0,0,1-.07-.7,1.43,1.43,0,0,1,.1-.38c0-.11.27-.11.3-.08s.17,0,.26-.05l.09,0a8.5,8.5,0,0,1,.76,1.39L79.76,56a1.08,1.08,0,0,1,0,.36c0,.07.39,1.62.4,1.68a2.74,2.74,0,0,1,0,1,.44.44,0,0,0,0,.2,13.75,13.75,0,0,1,.14,1.7c0,.29.07.58.09.87a.86.86,0,0,1,0,.16.69.69,0,0,0,0,.2c.08.69.05,1.38.15,2.06,0,.16-.1.93-.08,1.11S80.31,65.73,80.36,65.82Z"/><path class="cls-1" d="M84.33,66.08c0,.3-.3.47-.73.46a.8.8,0,0,1-.42-.3,2.22,2.22,0,0,1-.06-.45c0-.06.29-1.41.32-1.89s.13-.92.21-1.37c.18-.93.3-1.88.41-2.83a3.5,3.5,0,0,1,.12-.63,9.45,9.45,0,0,0,.29-2.18.78.78,0,0,0,0-.37,17.08,17.08,0,0,1,.1-2.45c.13-.63.24-1.28.33-1.92,0-.09,0-.19.07-.27a1,1,0,0,0,.15-.59,5.9,5.9,0,0,1,.11-.83,1.3,1.3,0,0,1,.18-.4c.07-.13.28-.06.31,0s.17,0,.26,0h.1a12,12,0,0,1,.4,1.81s.05,2.36.05,2.66a1.52,1.52,0,0,1-.06.42c0,.07,0,2,0,2a3.91,3.91,0,0,1-.19,1.16.58.58,0,0,0,0,.23,19.43,19.43,0,0,1-.28,2c-.06.34-.09.68-.14,1a.64.64,0,0,1-.06.18,2,2,0,0,0-.06.23c-.12.81-.33,1.61-.47,2.44,0,.19-.43,1-.48,1.26S84.33,66,84.33,66.08Z"/><path class="cls-1" d="M86.28,69c-.11.25-.38.25-.77.11-.12,0-.35-.32-.34-.4a3.09,3.09,0,0,1,.12-.46c0-.09.88-1.13,1.15-1.5a11.55,11.55,0,0,1,.87-1c.63-.63,1.24-1.28,1.84-1.93a3.31,3.31,0,0,1,.44-.39A8,8,0,0,0,91,62a.77.77,0,0,0,.19-.28A16.73,16.73,0,0,1,92.55,60a11.52,11.52,0,0,0,1.18-1.25c0-.06.08-.14.17-.17a.59.59,0,0,0,.36-.38c.09-.2.27-.41.34-.58a1,1,0,0,1,.25-.27c.08-.09.29,0,.31,0s.16,0,.26,0h.09s0,.11,0,.29a2.32,2.32,0,0,1-.05.63,3.84,3.84,0,0,1-.25,1c0,.07-1.17,2-1.33,2.18a1.48,1.48,0,0,1-.27.29s-1.06,1.47-1.12,1.52a3.27,3.27,0,0,1-.78.75.46.46,0,0,0-.16.15,16.07,16.07,0,0,1-1.3,1.31c-.23.22-.43.46-.65.69a1.21,1.21,0,0,1-.14.1,1.09,1.09,0,0,0-.17.13c-.51.55-1.08,1-1.57,1.59-.11.14-.8.59-.93.74S86.32,68.86,86.28,69Z"/><path class="cls-1" d="M80.81,145.35a20.87,20.87,0,0,1-2-7.49c-.06-.72.43-.74.74,0,.59,1.55,1.24,3.08,1.93,4.62.19.47,1.83,4.49,4.11,8.83a125.31,125.31,0,0,0,6.69,11.3,129.89,129.89,0,0,0,9.69,12.8q2.67,3.07,5.63,5.86a55.84,55.84,0,0,0,6.25,5.07,32.08,32.08,0,0,0,7,3.65,16,16,0,0,0,7.48,1,13.77,13.77,0,0,0,6.09-2.48,13.28,13.28,0,0,0,4-4.17,25.29,25.29,0,0,0,2.59-5.42,60.5,60.5,0,0,0,2.7-12c.19-1.37.36-2.78.44-4.12,0-.55.2-2.37.41-4.85.1-1.23.26-2.67.34-4.13.06-.73.11-1.49.16-2.25s.07-1.56.1-2.34c.23-6.29.22-12.72.25-14.19.13-7.31.08-14.64,0-22,0-1-.06-2.16,0-3.11.13-2.22,0-4.47,0-6.74l-.19-9.42c0-1.56,0-3.09.06-4.62s.35-.65.4-.17c.15,1.42.24.26.36.12s.09-.1.13,0,0,.31.08.82.09,1.24.15,2.11c.12,1.75.27,4.08.43,6.46.3,4.78.56,9.79.58,10.77,0,.24.2,7,.4,14s.22,14.39.22,15.89,0,3.15-.11,4.73c0,.37,0,5.83-.44,11.39s-1,11-1.1,11.38a57.18,57.18,0,0,1-3,13c-.29.83-.68,1.68-1,2.52a23,23,0,0,1-3,5.14,16.81,16.81,0,0,1-2.06,2.25c-.37.35-.8.62-1.19.93a13.16,13.16,0,0,1-1.24.87,15.84,15.84,0,0,1-11.71,2,29.58,29.58,0,0,1-10.88-4.89l-1.7-1.27-2.07-1.7a76.32,76.32,0,0,1-9.68-9.85,129.44,129.44,0,0,1-8.19-11.06c-.61-.86-2.19-3.47-3.7-6.16s-2.9-5.49-3.44-6.59S81.29,146.45,80.81,145.35Z"/><path d="M98,273.51Zm-.36,0h0Zm0,0,0,0,0,0,0,0Zm0,0,.06.09,0,0,0-.06S97.63,273.5,97.65,273.52Zm-.05-.07,0,.06h0c0-.05,0,0,0,0s0,.06,0,.06l0,0,0,0-.05-.05,0-.06Zm0-.05c0,.06,0,.06,0,0l0-.06Zm0-.06,0,0,0,0,0-.06Zm0,0,0,0,0,0Zm0-.06,0,0,0,.05h0s0,0,0,0l0,0,0,0,0,0,0,0,.05.06,0,0,0,0h0c0,.06,0,.06,0,0h0l0,0-.11-.13,0,.05c.06.08.06.08,0,0l0-.06s0,0,0,0l0,0,0-.05,0-.06s0,0,0,0Zm0,0,0,0,0,0Zm0,0,.06.08,0,0,0,0h0l0,0,0,0,0-.06Zm-.06-.05,0,.05c.05.06.05.06,0,0l0-.05Zm-.06-.08,0,0h0Zm0-.05,0,.05,0,0h0Zm-.15-.19s0,0,0,0l0,0Zm-.11-.11,0,0,0,0,0,0Zm-.12-.17.07.08,0,0,0,0h0C96.93,272.64,96.91,272.61,97,272.66Zm-.06-.07,0,.05h0l0-.05Zm0,0Zm0,0,0,0,0,0,0,0Zm0-.08,0,0s0,0,0,0l0,0Zm0,0,0,0,0-.05Zm0,0h0Zm0,.08h0l0,0,0,0Zm-.24-1Zm.15.94,0,0,0,0S96.69,272.38,96.71,272.41Zm0,0,0,0,0,0C96.69,272.36,96.69,272.36,96.75,272.43Zm-.14-.15,0,0,0,0,0,0Zm-.11-.13,0,0,0,0,0,0Zm0,0Zm0,0,0,0,0,0,0,0S96.48,272,96.5,272.07Zm-.09-.09h0Zm0,0h0S96.37,272,96.39,272Zm0-.07h0l0,0,0,0S96.3,271.86,96.35,271.91Zm0,0,0,0,0,0Zm0,0s0,0,0,0l0,0Zm0,0,.08.11,0,0,0,0,0,.06h0l0,.06,0,0,0,0,0,0c0-.05-.06-.07,0,0l0,0-.05-.05,0-.05s0,0,0,0l0,0,0-.05Zm0-.08,0,0,0,0h0l0,0,0,0,0,0Zm0,0,0,0,0,0,0,0Zm1.65,1.67,0,0,0,0,0,0Zm0-.07,0,0,0,0,0,0Zm0,.28,0,0,0,0,0,0Zm-.09-.17,0,0,0,0,0,0Zm0,.15,0,0,0,0,0,0Zm-.06-.16,0,0,0,0,0,0Zm0,.1,0,0,0,0,0,0Zm0,0,0,.05,0,0Zm0,0,0,0h0l0-.05Zm0,0,0,0,0,0,0,0Zm0-.08,0,0h0l0-.05Zm0,0,0,0,0,0,0,0Zm0,.05,0,.06c.05.05.05.05,0,0l0,0-.06-.08h0Zm-.08-.14,0,0,0,0,0,0Zm0,0,0,.05,0,0Zm-.07-.33Zm.13.53h0l0-.05h0Zm-.05-.09,0,0,0,0S97.58,273.36,97.6,273.39Zm0-.11,0,0,0-.05Zm0,0h0Zm0,.15,0,0,0,0,0,0Zm-.06-.06,0,0,0,0,0,0Zm0,0Zm0-.05,0,0,0,0Zm0,0s0,0,0,0l0-.05Zm-.15-.59,0,0h0l0-.05Zm0,.23,0,0h0l0,0Zm0,0,0,0,0,0,0,0Zm.11.33,0,.06,0,0,0-.06,0,0,0,0Zm0,0,0,0,0,0-.06-.08Zm0-.12Zm0,.1,0,0,0,0,0,0Zm0,0s0,0,0,0l0,0Zm0,0,0,0,0,0h0l0,0Zm-.2-.75s0,0,0,0Zm.09.67,0,0,0,0,0,0Zm0-.1,0,0,0,0,0,0Zm-.06-.3,0,0,0,0,0,0Zm0,.27,0,0,0,0h0Zm0,0,0,0,0,0,0,0Zm0-.21,0,0-.06-.07Zm0,.26s0,0,0,0l0,0Zm0,0,.06.08h0s.06.07,0,0l-.06-.08-.06-.07,0,0,0,.06,0,0S97.16,272.89,97.22,273Zm-.13-.15s0,0,0,0l0,0,0,0Zm0,0,0,0,0,0,0,0Zm0,0,0,.05h0l0-.05Zm0,0,0,0,0-.05Zm-.07-.1,0,0,0,0,0,0Zm0,0,0,0,0,0Zm-.06-.05,0,0,0,0,0,.05,0,0-.06-.08,0-.06Zm0,0,.06.07,0,0-.06-.08S97,272.63,97,272.66Zm0,0h0l0,0,0,0,0-.05Zm0-.11,0,0h0l0-.05Zm0,.05,0,.05h0l0,0,0,0h0Zm0,0Zm0,0,0,0-.06-.07Zm0,0s0,0,0,0l0,0Zm0,0,.06.07,0,0,0,0,0,0h0l0,0Zm0-.07,0,0,0,0,0,0Zm0,0,0,0,0-.05Zm0,0,0,0,0,0,0,0Zm0,0,0,0,0,0C96.71,272.34,96.72,272.34,96.76,272.39Zm0,0,0,0h0s0,0,0,0l0,0h0l0-.06,0-.05Zm-.08-.22,0,0,0,0,0,0Zm0,.08,0,0,0,0,0,0Zm-.14-.55Zm0,.38,0,.06,0,0,0-.05Zm0-.11Zm0-.11,0,0h0l0-.06Zm0,.18,0,0,0,0,0-.05Zm0,0,0,0,0,0,0,0Zm0-.13,0,0,0,0,0,0Zm0,0h0l0-.06h0Zm0,0,0,0,0-.05Zm-.05-.05,0,0,0,0,0,0Zm0,.06s0,0,0-.06l0,0Zm-.09-.14,0,0,0,0Zm0-.05Zm0,0,0,0,0,0,0,0C96.2,271.65,96.2,271.65,96.22,271.68Zm0,0s0,0,0,0l0,0Zm0-.06,0,0,0,0,0,0Zm1.28,1,.06.08.1.13.12.17.15.18.08.11,0,.05.08.11c.19.23.19.24.11.14s-.18-.2-.14-.14h0l0,0s0,0,0,0,0,0,0,0l0,0h0l0,0,0,0,0,0L98,273.4c-.06-.08-.08-.11,0,0l.07.09s0,0,0,0l0,0h0s0,0,0,0l0,0h0l0-.05h0s0,0,0,0h0l.05.06-.06-.08,0-.05h0l.07.08c0,.06,0,.08,0,0h0l0,0,0,0,0,0,0,0s0,0,0,0h0l0,0,0-.05s0,0,0,0l0,0,0,0s0,.07,0,.05l0,0s0,0,0,0h0l0,0,0,.05h0s0,0,0,0,0,0,0,0h0s0,0,0,0h0c0,.05,0,.06,0,0l0,0,.05.07,0,0,0-.05c0,.06,0,.06,0,0l0,0,0,.08s0,0,0,0h0l0,0,0,0h0l0,0,0,0c0-.05,0,0,0,0s0,.06,0,0,0,0,0,0,0,.07,0,0h0l-.1-.1-.06-.05,0,0h0l0-.06h0l0,0h0l0,0,0,0-.08-.1s0,.05,0,0-.06-.08,0,0l-.11-.12c0-.05,0-.05,0,0s0,.05,0,0l0,0c0,.05,0,.05,0,0h0l0-.05-.06-.07,0,0,0,0,0,.05,0,0,0,0,0,0s0,0,0,0h0l0-.05,0-.05,0-.05,0,0,0,0,0,0h0l0-.06,0,0h0l0,0,0,0,0,0,0,0,0-.05,0,.05h0l0,0,0,0-.06-.07,0,0h0l0,0,0,0h0l0,0s0,.05,0,0l0,0,0,0h0l0,0,0,.06h0l0-.06-.06-.07h0l0-.06s0,0,0,0h0l-.08-.11,0,0c0-.05,0-.05,0,0l0,0,0,0-.1-.13h0l0,0-.06-.08-.1-.13c0-.05,0,0,0,0h0l0,0,0,0,0,0,0-.05-.08-.1-.06-.08s0,0,0,0l0,0,0,0,0,0s-.05-.06,0,0h0l0,0h0l0,0,0,.05h0l0,0,0-.05,0-.05,0,0,.06.08c0,.05,0,.05,0,0h0l0,0,0,0,0-.06,0-.05h0l0,.06,0,0,0,0h0l0,0,0-.05s0,0,0,0,0,0,0,0,0,0,0,0l0,0h0l0,0s0,0,0,0,0,.05,0,0l0,0,0,0,0,0h0s0,0,0,0h0l0,0,0-.05,0,.05s0,0,0,0h0l0,0s0,0,0,0h0s0,0-.06-.09l0,0h0l0,0,0,0,0,0,0,0,0,0,0,0,0,0c0,.05,0,.05,0,0l0,0,0,0s0-.08,0-.05h0v0h0l0,0,.07.07,0,.05,0,0s0,0,0,0l0,0h0s0,0,0,0,0,.05,0,0-.07-.12,0-.07h0l0,0,0,0,0,0,0,0,0,0h0l0-.06s0,0,0,0v0l0,0h0l-.07-.12,0,0s0,0,0,0l0,.05c0,.05,0,.05,0,0l0,0h0s0,0,0,0l0,0v0s0,0,0,0h0s0,0,0,0,.07.08,0,0,0,0,0,0l0,0a.34.34,0,0,1,.06.06s0,0,0,0,0-.06,0-.07,0-.06,0-.08,0-.07,0-.06h0l0,0s0,0,0,0,0,0,0,0,.06.05,0,0v0l.08.1,0,0s0,0,0,0l0,0,0,0,.08.1,0,0,0,.05h0l.06.08,0,0,0,0,0,0,0,.05,0,0,.1.13a1.63,1.63,0,0,1,.14.18l0,.05.1.13"/><path class="cls-1" d="M159.89,256.09a25,25,0,0,1,.23,7.58c-.11.71-.59.57-.7-.21-.3-1.62-.59-3.24-.88-4.85-.09-.51-.69-4.77-1.22-9.61s-1-10.25-1.13-13c-.33-5.33-.48-10.67-.36-16s.33-10.87.84-16.29,1.06-10.76,1.59-16.14l.75-7.16c.94-8.16,1.68-16.35,2.31-24.56.1-1.36.22-2.76.25-4.09,0-1.09.48-7.19.86-13.39s.73-12.48.8-13.92q.71-10.73.75-21.48c0-1,0-2.11,0-3a51.65,51.65,0,0,0-.15-6.57c-.18-3.07-.5-6.11-.93-9.13-.25-1.49-.41-3-.7-4.44s.22-.69.36-.24c.42,1.33.29.2.38,0s.07-.12.11-.07.1.3.24.79.33,1.18.52,2,.43,1.83.61,2.9c.1.54.2,1.1.31,1.66s.16,1.15.25,1.74c.69,4.68.95,9.62,1,10.59,0,.12,0,1.84.11,4.39.05,1.27,0,2.75,0,4.35s0,3.31,0,5-.06,3.47-.08,5.14-.11,3.27-.15,4.69c-.09,2.85-.17,5-.21,5.76-.07,1.53-.2,3.08-.31,4.62,0,.36-.3,5.71-.63,11.08S164,155,164,155.42c-.34,4.28-.66,8.57-1.2,12.8-.1.84-.17,1.71-.24,2.56q-1,11-2.21,22c-.39,3.74-.78,7.51-1.09,11.23-.07.67-.15,1.34-.22,2-.1.84-.16,1.69-.22,2.54a224.81,224.81,0,0,0-.23,26.6c.05,1,.18,4,.32,7s.39,6,.52,7.18S159.7,254.93,159.89,256.09Z"/><path class="cls-1" d="M165.69,77.4a71.69,71.69,0,0,0-22,11.39c-1.11.82,1,.87,1.35.87A7,7,0,0,0,149,88.3c5.25-3.84,10.9-7.37,17.18-9.22,3.31-1,3-2.68-.45-1.68Z"/><path class="cls-1" d="M161.23,77.77a2,2,0,0,1,.15,1.72c-.06.18-.4.27-.51.11s-.41-.6-.6-.91c-.06-.1-.43-.92-.92-1.84a9.19,9.19,0,0,1-.71-1.58,8.82,8.82,0,0,1-.31-1.38,25.52,25.52,0,0,1-.15-3.57c0-2.36,0-4.7-.08-7,0-.52,0-1,0-1.56a31,31,0,0,0-.4-5.28,4.75,4.75,0,0,0-.18-.85c0-.11-.12-.49-.24-1-.06-.25-.12-.53-.21-.82l-.12-.45,0-.11v-.09h0l.15,0H157c-.14,0-.09,0-.11,0v0l0,0a7.08,7.08,0,0,0-1-1.18l-.79-.72a18.68,18.68,0,0,0-3.63-2.65,2.52,2.52,0,0,1-.56-.31,3.23,3.23,0,0,0-1.23-.61,8,8,0,0,0-.92-.27,4.88,4.88,0,0,0-.91-.18c-.31-.07-.61-.1-.92-.15s-.18-.26-.08-.3c.3-.09,0-.18,0-.26s0-.07,0-.1.27-.07.68-.15a7.63,7.63,0,0,1,1.5,0,10.38,10.38,0,0,1,2.39.55l.92.4c.52.26,1.2.61,1.87,1A22.63,22.63,0,0,1,157,50.25a5.64,5.64,0,0,1,.75.79,6.77,6.77,0,0,1,.6.71,1.93,1.93,0,0,1,.27.41,2.73,2.73,0,0,1,.23.53c.08.28.17.57.25.87.32,1.19.52,2.38.54,2.47a16.13,16.13,0,0,1,.24,2.85,3.64,3.64,0,0,0,0,.57c.15,1.63.18,3.25.19,4.87,0,.83,0,1.66,0,2.48,0,.15,0,.3,0,.45s0,.38,0,.56c0,2-.13,3.93.06,5.77a9.34,9.34,0,0,0,.15,1.34,8.66,8.66,0,0,0,.51,1.38C160.93,76.55,161.1,77.54,161.23,77.77Z"/><path class="cls-1" d="M144.63,82.9c-3.18.24-8.9.12-10.47-3.38-.56-1.25-.32-3.1-.35-4.42a127,127,0,0,1,.79-19.79c.75-5.47,3.21-9.77,6-14.46,2.42-4.12,2-8.11,2-12.74L141,28.9c1.74,0,4.23-.53,5.85,0,1.12.35.14-.55.28.72a36.43,36.43,0,0,1,0,3.91c0,5.28,3.24,9.74,4.65,14.72.17.57,2.34,0,2.18-.58-1.16-4.07-3.77-7.85-4.54-12-.44-2.42-.11-5.09-.11-7.55,0-.23-.53-.2-.64-.2h-6.76c-.4,0-1.54.23-1.54.78,0,2.06.11,4.15,0,6.21-.18,3.46-1.5,5.44-3.14,8.2-3.63,6.09-5,11.8-5.37,18.81-.32,5.3-1.15,11.72-.13,17,1,5,7.89,5.3,12,5,.65,0,2.35-1.1.91-1Z"/><path class="cls-1" d="M150.79,52c.21.1.2.37,0,.69a1,1,0,0,1-.43.31l-.37,0a12.38,12.38,0,0,0-1.15-.65,6.87,6.87,0,0,1-.83-.48c-.54-.36-1.13-.67-1.71-1a2.35,2.35,0,0,1-.37-.24,4.32,4.32,0,0,0-1.34-.71.42.42,0,0,0-.25-.05,10.63,10.63,0,0,1-1.57-.51,6.4,6.4,0,0,0-1.17-.53c-.06,0-.12,0-.17-.08a.38.38,0,0,0-.36-.17l-.51-.09a.86.86,0,0,1-.28-.15c-.09,0-.09-.27-.07-.3s0-.17,0-.26a.37.37,0,0,1,0-.09,2.13,2.13,0,0,1,.66-.3,2.88,2.88,0,0,1,.77-.15l.31,0a6.34,6.34,0,0,1,.65.08c.48.06.94.18,1.05.19a.84.84,0,0,1,.29.13s1.39.38,1.43.42a1.92,1.92,0,0,1,.75.42.31.31,0,0,0,.15.08,8.87,8.87,0,0,1,1.28.71c.22.13.45.24.66.37a.43.43,0,0,1,.1.09l.14.11c.51.29,1,.68,1.5,1,.12.07.55.61.68.71S150.7,52,150.79,52Z"/><path class="cls-1" d="M149.46,54.66c.17,0,.16.23,0,.59a1.26,1.26,0,0,1-.34.4,1.47,1.47,0,0,1-.34.05c-.07,0-.79-.34-1.05-.44a3.4,3.4,0,0,1-.67-.38c-.42-.31-.86-.59-1.3-.87a1.38,1.38,0,0,1-.26-.22,3,3,0,0,0-1-.69.31.31,0,0,0-.19-.06,5,5,0,0,1-1.15-.54,4.56,4.56,0,0,0-.78-.57s-.09,0-.11-.09a.22.22,0,0,0-.23-.18c-.1,0-.24-.09-.32-.1s-.11-.1-.18-.15a.45.45,0,0,1-.1-.3c0-.07,0-.16-.08-.25a.47.47,0,0,1,0-.09,1.35,1.35,0,0,1,.59-.31,1.92,1.92,0,0,1,.68-.09,11.21,11.21,0,0,1,1.57.42.7.7,0,0,1,.21.14s1.05.42,1.08.45.4.18.52.41a.2.2,0,0,0,.1.08,6.08,6.08,0,0,1,.92.65c.15.12.32.21.47.32a.27.27,0,0,1,.07.08.76.76,0,0,0,.09.09c.38.24.71.56,1.11.77.09,0,.39.47.5.52S149.38,54.66,149.46,54.66Z"/><path class="cls-1" d="M146.5,57.17a1.79,1.79,0,0,1,1.18,1.15c.07.17-.14.46-.31.42l-1-.25c-.1,0-.89-.39-1.8-.68a8.09,8.09,0,0,0-1.34-.32,4,4,0,0,0-.54-.06c-.06,0,0,0-.07,0s0,0,0,0a.05.05,0,0,0,0,.06h0l0,.06.38.48a27.82,27.82,0,0,0,2.06,2.17l1.11,1,1.44,1.3.08.94c0,.5.07,1,.08,1.5,0,1.71.2,3.44.29,5.12a5.83,5.83,0,0,0,.08.84c.06.22.12,1.47.23,2.73l.27,2.82a34.72,34.72,0,0,0,.56,4.32,2.71,2.71,0,0,1,.11.61,3.69,3.69,0,0,0,.26,1.32c.18.6.38,1.18.58,1.77a9.17,9.17,0,0,1,.24.9c.07.27-.19.24-.26.17-.19-.23-.18,0-.25.09s0,.06-.08.06a4.91,4.91,0,0,1-.35-.51c-.2-.31-.44-.74-.67-1.19a16.61,16.61,0,0,1-.89-2.07l-.26-.89c-.14-.52-.31-1.22-.47-1.93-.32-1.42-.53-2.93-.58-3.23a6.33,6.33,0,0,1-.07-1c-.05-.15-.45-4.48-.41-4.65,0-.91-.15-1.77-.09-2.65a3.13,3.13,0,0,0,0-.53c-.07-.66-.12-1.33-.17-2l-.07-1,0-.5v-.13l0,0v0l-.09-.08-1.73-1.61c-.1-.1-.19-.22-.28-.32a4.73,4.73,0,0,0-.37-.4,23.47,23.47,0,0,1-1.76-1.94c-.14-.18-.26-.33-.42-.56a4.8,4.8,0,0,1-.54-.95,1.74,1.74,0,0,1-.12-.94A1.26,1.26,0,0,1,141,56c.23-.11.47-.18.7-.27,1.21-.36,3,.51,3.54.68C145.51,56.5,146.26,57.1,146.5,57.17Z"/><path class="cls-1" d="M97.83,473.18c-7,9.67-27.11,22.72-32.57,17-1.08-1.13,9.87-15.76,21.29-20A50.6,50.6,0,0,0,97.83,473.18Z"/><path class="cls-1" d="M95.08,475.37a6.56,6.56,0,0,1,2.52-2.11.37.37,0,0,1,.49.5A16.39,16.39,0,0,1,97,475.7a38,38,0,0,1-2.83,3.21c-1.5,1.55-3.28,3.15-4.2,3.94a53,53,0,0,1-5.68,4.2A56.22,56.22,0,0,1,78,490.57a26.58,26.58,0,0,1-7.06,2.3,9.56,9.56,0,0,1-3.6-.13,6,6,0,0,1-1.56-.6l-.38-.23a1.6,1.6,0,0,1-.47-.36,5.69,5.69,0,0,1-.75-.9A1.58,1.58,0,0,1,64,489.5l.18-.58c.06-.19.18-.41.22-.51.23-.46.48-.87.73-1.28a45,45,0,0,1,3.3-4.45c.38-.47.81-.93,1.15-1.41a39.48,39.48,0,0,1,4.14-4.3,43.14,43.14,0,0,1,4.86-3.9,40.5,40.5,0,0,1,4.21-2.4c.73-.35,1.47-.68,2.23-1l1.5-.56c.3.1.59.23.89.35l.56.22a9.55,9.55,0,0,1,1.21.5,11.11,11.11,0,0,0,2.65,1c1.27.37,2.55.7,3.83,1,.64.15,1.25.37,1.88.54s.22.42,0,.42c-.61,0-.14.21-.1.34s0,.1,0,.13h-.36l-.91-.07c-.75-.07-1.76-.19-2.78-.36a38.4,38.4,0,0,1-4.57-1S88,472,87,471.59l-.29-.1-.13,0-.09.05-.42.17c-.6.27-1.24.58-1.88.92a36.73,36.73,0,0,0-5.42,3.65c-.5.4-1,.78-1.56,1.18-.12.09-1.83,1.58-3.42,3.23s-3,3.39-3.16,3.52c-1.18,1.37-2.25,2.85-3.32,4.23a4.88,4.88,0,0,0-.52.87c-.21.43-.14.3-.16.37s0,.06.06.08l.27.16a2.83,2.83,0,0,0,.4.17,4.33,4.33,0,0,0,.91.23,11.32,11.32,0,0,0,4.26-.4,27.87,27.87,0,0,0,4.39-1.67c.26-.13.53-.23.79-.34s.67-.29,1-.46a56.38,56.38,0,0,0,9.51-6.26,57.9,57.9,0,0,0,4.68-3.86C93.27,476.9,94.79,475.79,95.08,475.37Z"/><path class="cls-1" d="M181.18,481.12c-10.58,4.29-28.18-2.82-37.05-12.05,5.05-1,10.11-1.78,15.26-2.32h0C170.07,470.35,182.34,480.65,181.18,481.12Z"/><path class="cls-1" d="M177.62,481.33a8,8,0,0,1,3.32-.27.36.36,0,0,1,.14.68,14.49,14.49,0,0,1-2.1,1l-1.45.34a27.12,27.12,0,0,1-3,.38,33.11,33.11,0,0,1-6-.29,36.24,36.24,0,0,1-7.11-1.76,52.2,52.2,0,0,1-13.1-6.87l-1.31-1c-.42-.36-.83-.74-1.24-1.11l-.81-.73-1.16-1.15-2.26-2.25,6.09-1.09,3.74-.64a17.54,17.54,0,0,0,1.81-.34c.24-.06,1-.2,2.13-.36l1.81-.24,1-.13.51-.05.26,0,.48-.05a2.1,2.1,0,0,1,.5.09l.38.13.5.18,1,.38c.63.26,1.23.52,1.76.76,1,.48,1.84.89,2.13,1a78.07,78.07,0,0,1,8.2,5.3,7.79,7.79,0,0,1,1.08.85,21.13,21.13,0,0,0,2.28,1.93,31.57,31.57,0,0,1,3.11,2.8,6.37,6.37,0,0,1,1.24,1.8.88.88,0,0,1,.06.33.49.49,0,0,1-.18.33c-.16.08-.19,0-.18,0a.43.43,0,0,0,.05-.23.87.87,0,0,0-.09-.17c-.38-.48-.24,0-.35.1a.17.17,0,0,1-.11.06,9.74,9.74,0,0,0-.79-.78c-.54-.48-1.33-1.1-2.16-1.71-1.66-1.22-3.48-2.38-3.82-2.63l-1.59-1.08c-.93-.61-2.18-1.41-3.48-2.17a59.92,59.92,0,0,0-6-3.11c-.62-.26-1.21-.57-1.82-.85-.07,0-.64-.26-1.48-.54l-.31-.11h-.06l-.16,0-.4.05-1.73.23c-2.35.33-4.69.74-4.87.76-.94.14-1.87.3-2.81.46l-1.4.21-.65.08-.16,0a.29.29,0,0,0-.15,0l-.07,0,.14.14a.16.16,0,0,0,.06.05l.37.32.81.7c.53.49,1.13.89,1.69,1.34s1.16.86,1.76,1.26,1.36.91,2.08,1.3,1.41.83,2.15,1.19c.26.13.51.29.77.43s.64.39,1,.54a42.38,42.38,0,0,0,11,3.59c.21,0,.64.12,1.16.23l1.81.26a15.52,15.52,0,0,0,1.83.15c.55,0,1,.05,1.26,0A18.78,18.78,0,0,0,177.62,481.33Z"/><path class="cls-1" d="M67.1,85.45c4.53,3.46,10.6,7.83,16.55,7.71.57,0,3.25-1.15,1.89-1.12-5.52.11-11.47-4.32-15.7-7.55-.61-.47-3.09.69-2.74,1Z"/><path class="cls-1" d="M245.76,122.19c-.61,8.75-1.53,17.47-1.3,26.25.21,8.05,1,17.95,6.74,24.18,5.14,5.55,14.16,5.74,20.64,2.54,9.09-4.49,11.65-15.4,13.22-24.53.07-.37-.45-.43-.71-.4h-.13c-.75.07-2.64,1.32-1,1.18a13.67,13.67,0,0,0,8.18-3.95c.62-.57-1.76-.39-2.26.07l-4.91,2.7-1,1.18c-1.28.12-3.11,10.41-3.71,12-1.88,4.83-4.9,9.56-9.89,11.6-8.88,3.61-16.79-1.54-19.9-9.73-5.15-13.54-2.48-29.39-1.51-43.43.06-.81-2.39-.31-2.44.37Z"/><path class="cls-1" d="M283.48,138.18c1.78-2,4.34-3.56,6.8-1.82.71.5,3-.52,2-1.24-3.51-2.49-8.16-.26-10.75,2.58-1,1.09,1.4,1.13,2,.48Z"/><path class="cls-1" d="M268.77,85.86A40.74,40.74,0,0,0,257.89,84c-1.36-.06-2.72,0-4.07.07a25,25,0,0,0-6.93,1.1c-2.17.7-4.34,1.83-5.36,3.63a4.1,4.1,0,0,0-.51,2.62,4.67,4.67,0,0,0,1.13,2.44,10.91,10.91,0,0,0,2.95,2.38,21.6,21.6,0,0,0,3.48,1.64c.72.23.6.91-.31,1.41a4.57,4.57,0,0,1-4.2-.26,13.88,13.88,0,0,1-3.82-3,9.46,9.46,0,0,1-1.42-2.25,7,7,0,0,1-.54-2.79,7.34,7.34,0,0,1,.13-1.39,8.84,8.84,0,0,1,.43-1.35A7.47,7.47,0,0,1,240.38,86a11.31,11.31,0,0,1,4.13-2.6,31,31,0,0,1,10.78-2,47.61,47.61,0,0,1,11.77,1.27,27.85,27.85,0,0,1,6.9,2.59,14,14,0,0,1,3.33,2.54,9.63,9.63,0,0,1,1.3,1.69,6.47,6.47,0,0,1,.45,1,4.58,4.58,0,0,1,.66-.5l.39-.26.65-.38A20.44,20.44,0,0,1,289,86.74a17.33,17.33,0,0,1,1.91-.09c2.4.11,3.11.54,3.45,1.31a2.09,2.09,0,0,1,.21.53c.08.59-.89.81-2.45.78a21.93,21.93,0,0,0-6.45.82,19.29,19.29,0,0,0-3,1.2c-.24.13-.49.25-.72.39l-.35.21-.17.1-.38.26-.75.54-.76.66L278,94.78,277.27,93l-.58-1.46a2.8,2.8,0,0,0-.35-.69l-.15-.24a6.85,6.85,0,0,0-.73-.9,9.74,9.74,0,0,0-1.89-1.57,19,19,0,0,0-4.81-2.21Z"/><path class="cls-1" d="M230.24,113.32c-.14,2.78,2.41,5,5.46,6.11a22.24,22.24,0,0,0,3.5.94,36.14,36.14,0,0,0,13.08.16,25.42,25.42,0,0,0,5.6-1.64,24.86,24.86,0,0,0,6.11-3.83c.55-.46,1.06,0,1.07,1a4.21,4.21,0,0,1-2,3.36,24.82,24.82,0,0,1-7.73,3.23,33.55,33.55,0,0,1-8.16.92,42.29,42.29,0,0,1-10-.92,18,18,0,0,1-5.24-2.16A9.13,9.13,0,0,1,228.1,116a8.32,8.32,0,0,1-.46-1.83,11.06,11.06,0,0,1,0-1.82l.09-.89c.05-.29.13-.58.19-.87a11.6,11.6,0,0,1,.53-1.67,16.34,16.34,0,0,1,2.69-4.49A20.28,20.28,0,0,1,235,101a20.93,20.93,0,0,1,7.25-3.19,11.29,11.29,0,0,1,1.72-.31,5.69,5.69,0,0,1,2.32,0,1.47,1.47,0,0,1,1,.71,2.62,2.62,0,0,1,.27.49c.16.55-.69,1-2.11,1.15a25.44,25.44,0,0,0-6.15,1.73,16.84,16.84,0,0,0-5.26,3.55,13.91,13.91,0,0,0-2.72,3.81,9.54,9.54,0,0,0-1,4.31Z"/><path class="cls-1" d="M274.76,131.46A15.51,15.51,0,0,1,271.3,128a12.54,12.54,0,0,1-1-1.5,13.94,13.94,0,0,1-1.4-6c0-.89,0-1.79,0-2.67a7.2,7.2,0,0,1,.69-3.33c.18-.32.75-.08,1.25.37a2,2,0,0,1,.83,1.59,23,23,0,0,0-.35,5.93,8,8,0,0,0,1.29,3.41,12.16,12.16,0,0,0,2.69,3.1,13.07,13.07,0,0,0,2.15,1.45,10.15,10.15,0,0,0,3.7,1.22,6,6,0,0,0,2.82-.47,2.92,2.92,0,0,0,.54-.25,2,2,0,0,1,.77-.21,1.18,1.18,0,0,1,.65.38c.11.11.23.21.33.32.34.37.23.91-.38,1.39a7.07,7.07,0,0,1-3.22,1.17,10,10,0,0,1-3.45-.3,14.8,14.8,0,0,1-4.51-2.11Z"/><path class="cls-1" d="M308,78.55c0,.33-.24.53-.66.65-.13,0-.47-.07-.49-.17a3,3,0,0,1-.1-.59c0-.11.34-1.84.46-2.42a13.27,13.27,0,0,1,.46-1.67c.38-1.12.75-2.23,1.16-3.33a5.83,5.83,0,0,1,.32-.72,20.69,20.69,0,0,0,1.09-2.46,1.36,1.36,0,0,0,.14-.43,16,16,0,0,1,1.26-2.75c.47-.65.92-1.32,1.44-1.95.07-.09.12-.2.23-.25a1.6,1.6,0,0,0,.57-.52,3.63,3.63,0,0,1,.78-.73,2.16,2.16,0,0,1,.49-.22c.15-.06.22.17.2.23s.09.15.16.21,0,0,.06.08a7.46,7.46,0,0,1-.48.8c-.22.45-.44.88-.5,1s-.35.6-.7,1.22-.65,1.31-.69,1.47a2.14,2.14,0,0,1-.25.41c-.06.06-.84,2.1-.87,2.18a5.83,5.83,0,0,1-.6,1.23.77.77,0,0,0-.12.24c-.26.74-.6,1.45-.89,2.18-.15.37-.27.75-.4,1.13,0,.07-.07.13-.1.2a1.92,1.92,0,0,0-.12.25c-.29.9-.66,1.78-.89,2.71-.05.21-.52,1.17-.57,1.42S308,78.42,308,78.55Z"/><path class="cls-1" d="M303.48,76.31c.08.37-.12.65-.5.9-.12.08-.48.05-.52-.06a3.83,3.83,0,0,1-.22-.62c0-.13-.08-2.13-.11-2.8a18.51,18.51,0,0,1,.05-2l.27-4c0-.29.06-.58.11-.88a23.67,23.67,0,0,0,.35-3,2.18,2.18,0,0,0,0-.51,25.08,25.08,0,0,1,.3-3.38c.21-.87.38-1.75.6-2.62a.94.94,0,0,1,.11-.37,2.06,2.06,0,0,0,.27-.79,6.84,6.84,0,0,1,.32-1.13,2.67,2.67,0,0,1,.31-.51c.1-.15.29,0,.3.07s.16.08.25.09.07,0,.09,0,0,.55,0,1.12,0,1.16,0,1.28,0,.22-.06.52-.07.71-.1,1.13c-.08.84-.14,1.72-.14,1.9a2.65,2.65,0,0,1-.1.55c0,.09-.14,2.62-.14,2.72a7.54,7.54,0,0,1-.23,1.56,1.1,1.1,0,0,0,0,.31c-.05.9-.17,1.8-.27,2.7,0,.46-.06.92-.09,1.38,0,.08,0,.16-.05.24a1.77,1.77,0,0,0-.05.32c-.06,1.09-.2,2.17-.21,3.27,0,.25-.23,1.44-.22,1.73S303.45,76.16,303.48,76.31Z"/><path class="cls-1" d="M299.23,75.09c.1.3-.1.54-.46.76-.12.07-.48.05-.52,0a2.76,2.76,0,0,1-.25-.52c0-.1-.17-1.75-.22-2.32a12.67,12.67,0,0,1,0-1.63l.12-3.32a4.55,4.55,0,0,1,.09-.73,17.76,17.76,0,0,0,.24-2.52,1.48,1.48,0,0,0,0-.42,17.21,17.21,0,0,1,.19-2.82c.19-.78.35-1.46.52-2.18,0-.11,0-.22.1-.31a1.28,1.28,0,0,0,.25-.66,5.22,5.22,0,0,1,.28-.93,1.92,1.92,0,0,1,.28-.42c.09-.12.28,0,.3.07s.16.07.25.08l.09,0a6.59,6.59,0,0,1,0,.94,9.53,9.53,0,0,1,0,1.06s-.06.68-.11,1.37-.09,1.41-.08,1.56a2.33,2.33,0,0,1-.08.46c0,.07-.05,2.17-.06,2.25a4.71,4.71,0,0,1-.17,1.29.8.8,0,0,0,0,.26c0,.75-.1,1.49-.17,2.24,0,.38,0,.76,0,1.14,0,.07,0,.14,0,.21a1.09,1.09,0,0,0,0,.26c0,.9-.12,1.8-.08,2.71,0,.21-.18,1.2-.16,1.44S299.19,75,299.23,75.09Z"/><path class="cls-1" d="M234,101.53a1.06,1.06,0,0,1-.33,1.13c-.1.11-.45.13-.52,0s-.24-.44-.34-.67-.49-2.41-.65-3.18-.25-1.49-.34-2.25l-.53-4.26.53-.89c.18-.3.37-.58.57-.86a31.76,31.76,0,0,0,1.88-3,2.57,2.57,0,0,0,.25-.53,37.15,37.15,0,0,1,2-3.38c.62-.83,1.2-1.68,1.79-2.51a1.36,1.36,0,0,1,.27-.35,2.23,2.23,0,0,0,.6-.74c.24-.37.48-.74.75-1.09a3,3,0,0,1,.48-.46c.15-.14.29.06.28.13s.13.13.22.16l.08,0a27,27,0,0,1-1.06,2.65l-2,3.67a4.07,4.07,0,0,1-.37.55c-.06.1-1.46,2.68-1.52,2.79a9.41,9.41,0,0,1-1,1.53,2,2,0,0,0-.2.3c-.25.46-.53.9-.8,1.34l-.42.66-.21.33c0,.07,0,0-.06.07h0s0,0,0,.13l0,.4.11.8a2.8,2.8,0,0,1,0,.29,2.17,2.17,0,0,0,0,.36c.17,1.26.24,2.53.46,3.79.05.29.05,1.69.12,2S233.9,101.37,234,101.53Z"/><path class="cls-1" d="M297.27,91.32c.21.21.15.51-.09.86-.07.11-.4.26-.48.2a2.92,2.92,0,0,1-.44-.32c-.08-.07-.91-1.42-1.21-1.88a12.14,12.14,0,0,1-.75-1.37c-.45-1-.93-1.89-1.39-2.84a4.77,4.77,0,0,1-.26-.66,13.59,13.59,0,0,0-1-2.21,1,1,0,0,0-.22-.34,18.52,18.52,0,0,1-1.2-2.4c-.21-.67-.45-1.34-.68-2a.49.49,0,0,1-.08-.29,1.15,1.15,0,0,0-.16-.64,6.66,6.66,0,0,1-.31-.85,1.91,1.91,0,0,1,0-.48c0-.14.23-.18.27-.14s.17-.06.25-.11l.08,0a13.54,13.54,0,0,1,1.24,1.55s1.23,2.26,1.38,2.51a1.65,1.65,0,0,1,.16.42c0,.07,1,1.84,1.06,1.91a4.39,4.39,0,0,1,.46,1.17.94.94,0,0,0,.1.23c.33.64.6,1.31.89,2,.14.34.32.66.48,1a1.17,1.17,0,0,1,.06.2,1.57,1.57,0,0,0,.09.23c.39.78.7,1.6,1.14,2.35.1.18.37,1.11.5,1.31S297.18,91.23,297.27,91.32Z"/><path class="cls-1" d="M236.55,132.3a36.67,36.67,0,0,1-.57-8.68c.05-.81.53-.74.73.2.38,1.85.76,3.71,1.1,5.61.18,1.17,2.92,19.53,3.86,25.77.44,3,.87,6,1.31,9.07s.85,6,1.37,9c1.07,6,2.5,12.06,5.33,17.33a23.37,23.37,0,0,0,5.45,6.84,11.57,11.57,0,0,0,1.73,1.31l.92.57a4.91,4.91,0,0,0,1,.53l2,.89,2.09.63a17.34,17.34,0,0,0,7.57.36,14,14,0,0,0,5.86-2.67,18.5,18.5,0,0,0,4.39-5,25.61,25.61,0,0,0,2.69-6.21,45.06,45.06,0,0,0,1.3-6.81c.21-1.55.45-3.15.57-4.67.26-2.48,3.33-28,3.75-31.3q1.59-12.3,3.19-24.61c.14-1.17.26-2.43.47-3.49.48-2.46.73-5,1-7.53.44-3.52.87-7,1.31-10.56.22-1.74.52-3.45.8-5.15.25-1.55.45-.67.42-.12-.07,1.59.2.32.34.18s.11-.1.13,0,0,.36-.05.94-.11,1.39-.19,2.37c-.16,2-.38,4.6-.61,7.28-.46,5.38-1,11-1.1,12.12-.06.54-3.29,30.14-3.66,33.5-.19,1.75-.44,3.52-.68,5.27-.05.42-.75,6.54-1.46,12.68s-1.48,12.3-1.56,12.77a57.48,57.48,0,0,1-1.38,7.45,24.91,24.91,0,0,1-3.1,7.07c-.25.44-.59.85-.87,1.29a12.79,12.79,0,0,1-.93,1.26,17.35,17.35,0,0,1-11.53,6.72,21.4,21.4,0,0,1-13-2.93,24.75,24.75,0,0,1-9.19-9.86l-1-2.18-1.11-2.82a80.52,80.52,0,0,1-3.64-15.15c-.42-2.55-.75-5.09-1.09-7.63l-1.07-7.63c-.34-2.34-1.64-13.54-2-16.24C237.13,138.62,236.78,133.64,236.55,132.3Z"/><path class="cls-1" d="M307.76,126.94a4.31,4.31,0,0,1-.64,2.45.28.28,0,0,1-.51-.13c-.06-.54-.11-1.09-.14-1.65,0-.34.21-5.69.28-7.5s.17-3.51.3-5.27l.76-10.7c.06-.79.13-1.59.22-2.38.31-2.7.51-5.42.68-8.14a10.22,10.22,0,0,0,.05-1.35c0-.37.11-2.39.26-4.44.07-1,.15-2.06.21-2.9,0-.19,0-.37,0-.55l.26-.45.25-.43.33-.54,3.77-6.07a5.92,5.92,0,0,1,.55-.85,11.83,11.83,0,0,0,1.21-1.83c.52-.88,1.05-1.76,1.6-2.61.27-.43.59-.82.9-1.22s.34,0,.29.11c-.17.44.1.17.2.17s.08,0,.09,0a.88.88,0,0,1-.1.25l-.29.63-.92,1.89c-.68,1.4-1.4,2.86-1.56,3.14-.08.13-4.15,7.51-4.61,8.36h0s0,0,0,.06l0,.38-.09.77c0,.24-.4,7.08-.42,7.35-.12,1.42-.16,2.84-.39,4.24a7.66,7.66,0,0,0-.08.85c-.15,2.43-.38,4.86-.59,7.29-.09,1.25-.17,2.49-.26,3.74,0,.22-.06.44-.08.67s-.07.56-.09.84c-.19,3-.48,5.89-.63,8.84,0,.68-.43,3.9-.46,4.68C308.09,125.13,307.74,126.54,307.76,126.94Z"/><path class="cls-1" d="M301.15,244.35a11.12,11.12,0,0,1-.6,4.72c-.15.43-.63.36-.69-.16-.13-1-.26-2-.35-3.1-.07-.63-.25-10.74-.23-14.17s.05-6.65.15-10c.23-6.75.49-13.51.86-20.26.08-1.5.18-3,.31-4.49.45-5.12.78-10.26,1.1-15.4.06-.85.13-1.73.12-2.56-.05-1.37,1-15.29,1.22-17.08.47-4.48.94-8.94,1.41-13.41a18.09,18.09,0,0,1,.23-1.89,31,31,0,0,0,.52-4.1c.18-1.92.37-3.84.59-5.75.11-.94.3-1.87.47-2.8s.4-.35.41,0c0,.87.22.18.35.11s.1,0,.13,0a3.5,3.5,0,0,1,0,.51c0,.32,0,.76,0,1.29,0,1.08-.07,2.51-.12,4-.1,2.93-.23,6-.28,6.6,0,.29-1.12,16.41-1.25,18.24-.05.95-.17,1.91-.27,2.87-.07.45-.82,13.34-.85,13.86-.21,2.66-.3,5.34-.65,8-.07.52-.1,1.06-.13,1.6q-.42,6.89-.85,13.76c-.15,2.34-.22,4.69-.33,7,0,.42-.07.84-.1,1.26s-.08,1.07-.1,1.6c-.19,5.56-.48,11.11-.49,16.67,0,1.28-.31,7.38-.29,8.86C301.41,240.92,301.09,243.62,301.15,244.35Z"/><path class="cls-1" d="M224.1,140.9a12.1,12.1,0,0,1,0-4.94c.09-.46.57-.45.71.08.27,1,.53,2.08.76,3.15.14.65,1.74,11,2.3,14.54s1,6.83,1.47,10.25l2.8,20.87c.2,1.55.39,3.1.55,4.64.56,5.32,1.25,10.62,2,15.91.13.89.23,1.79.42,2.64.3,1.38,2.2,15.76,2.47,17.63.54,4.64,1.1,9.29,1.5,14a17.55,17.55,0,0,1,.14,2,41.67,41.67,0,0,0,.19,4.31c.14,2,.22,4,.21,6,0,1-.09,2-.17,3s-.37.41-.41.1c-.1-.9-.23-.17-.35-.08s-.1.06-.13,0a4.69,4.69,0,0,1-.06-.53c0-.32,0-.78-.09-1.33-.09-1.11-.21-2.58-.36-4.09-.3-3-.74-6.16-.8-6.78,0-.08-.13-1.17-.32-2.8s-.48-3.79-.8-6c-.63-4.42-1.38-9-1.54-10s-.27-2-.38-3c-.07-.47-2-13.77-2.06-14.3-.35-2.77-.79-5.52-1-8.3,0-.54-.13-1.1-.2-1.65-.67-4.75-1.23-9.5-1.82-14.25l-1-7.28c-.06-.43-.09-.87-.13-1.31s-.11-1.11-.19-1.66c-.79-5.74-1.45-11.49-2.3-17.22-.2-1.32-.82-7.66-1.06-9.18C224.31,144.48,224.26,141.65,224.1,140.9Z"/><path class="cls-1" d="M212.31,75.45a5.16,5.16,0,0,1-1-2.6.27.27,0,0,1,.5-.18c.38.47.76.94,1.12,1.43.21.3,3.27,5.31,4.32,7s2,3.3,2.94,5l.21.36a1.34,1.34,0,0,1,.21.66l.11.73.22,1.46.42,2.92.78,5.84c.11.87.19,1.74.26,2.61.24,3,.57,6,.89,8.93a11.82,11.82,0,0,0,.2,1.47c.18.78.89,8.88.9,9.93.09,2.61.18,5.23.24,7.85a8.18,8.18,0,0,1,0,1.11,14.9,14.9,0,0,0,0,2.41c0,1.12,0,2.24,0,3.36,0,.56-.1,1.11-.16,1.65s-.28.23-.3,0c-.08-.5-.18-.09-.27,0s-.07,0-.1,0,0-.11,0-.29,0-.45-.07-.75c0-.63-.12-1.45-.19-2.29-.15-1.71-.3-3.48-.33-3.81,0-.05,0-.66-.09-1.58s-.15-2.13-.24-3.37c-.19-2.49-.43-5.09-.49-5.62s-.06-1.11-.09-1.67c0-.26-.81-7.71-.86-8-.13-1.55-.36-3.09-.39-4.64,0-.3-.05-.62-.09-.92-.3-2.66-.59-5.3-.89-8-.15-1.35-.36-2.7-.54-4,0-.24-.05-.49-.08-.73s-.06-.62-.1-.93l-.36-2.39-.15-1.07-.51-.9c-.79-1.4-1.6-2.81-2.43-4.19-.38-.64-2-3.8-2.46-4.54C213.13,77.28,212.56,75.8,212.31,75.45Z"/><path class="cls-1" d="M221.88,80.65c.19.24.09.53-.19.85-.09.1-.43.2-.51.14a2.81,2.81,0,0,1-.39-.38c-.07-.08-.74-1.5-1-2a12.72,12.72,0,0,1-.62-1.42c-.38-1-.79-1.94-1.2-2.9a5,5,0,0,1-.23-.65,10.8,10.8,0,0,0-.92-2.19.91.91,0,0,0-.22-.33c-.16-.16-1.15-2-1.28-2.28s-.27-.62-.41-.93l-.48-.89a.68.68,0,0,1-.13-.27,1,1,0,0,0-.28-.55c-.17-.24-.35-.45-.53-.67a2.22,2.22,0,0,1-.19-.41.21.21,0,0,1,.18-.25c.15,0,.13-.12.18-.2a.16.16,0,0,1,.05-.08,5,5,0,0,1,.88.48,8.54,8.54,0,0,1,.87.71s.43.55.87,1.11.81,1.16.9,1.29a1.66,1.66,0,0,1,.19.43c0,.06,1.12,1.84,1.14,1.92A4.11,4.11,0,0,1,219,72.4a.72.72,0,0,0,.1.24c.32.65.57,1.34.83,2,.12.35.29.69.43,1,0,.07,0,.14,0,.2a2.27,2.27,0,0,0,.06.25c.35.81.6,1.65,1,2.45.09.19.26,1.15.36,1.36S221.8,80.56,221.88,80.65Z"/><path class="cls-1" d="M226.48,78.68c.13.32,0,.61-.39.87-.11.09-.47.1-.53,0s-.21-.36-.29-.54-.32-1.91-.44-2.51a17.64,17.64,0,0,1-.21-1.78l-.31-3.61a7.3,7.3,0,0,1,0-.81,16.86,16.86,0,0,0-.17-2.75,1.4,1.4,0,0,0-.1-.45,28.48,28.48,0,0,1-.38-3c0-.8,0-1.6-.09-2.4a1,1,0,0,1,0-.34,1.25,1.25,0,0,0,0-.74l-.13-1a1.94,1.94,0,0,1,0-.53c0-.16.25-.15.29-.1s.17,0,.25-.06a.21.21,0,0,1,.1,0,7.48,7.48,0,0,1,.49,1A11.24,11.24,0,0,1,225,61s.15.77.31,1.54.28,1.56.31,1.74a2.24,2.24,0,0,1,0,.52c0,.09.38,2.39.39,2.48a5.87,5.87,0,0,1,.05,1.45.93.93,0,0,0,0,.29c.1.83.12,1.66.16,2.49,0,.42.08.84.11,1.26a1.77,1.77,0,0,1,0,.23c0,.1,0,.2,0,.29.1,1,.11,2,.24,3,0,.23,0,1.34,0,1.6S226.43,78.55,226.48,78.68Z"/><path class="cls-1" d="M230.74,77.5c.1.27-.08.5-.44.7a.66.66,0,0,1-.52,0,3.57,3.57,0,0,1-.27-.45c0-.09-.24-1.55-.33-2a11.66,11.66,0,0,1-.13-1.45l-.17-2.93a4.7,4.7,0,0,1,0-.65,11.17,11.17,0,0,0-.06-2.24,1.11,1.11,0,0,0-.08-.36,19.11,19.11,0,0,1-.28-2.45c0-.66,0-1.3,0-2a.45.45,0,0,1,0-.28.89.89,0,0,0,0-.6c0-.27-.06-.54-.08-.82a1.41,1.41,0,0,1,.08-.43c0-.14.26-.13.29-.09s.17,0,.26-.06l.09,0a5,5,0,0,1,.44.79c.18.41.36.85.38.94s.47,2.4.52,2.67a1.55,1.55,0,0,1,0,.43c0,.08.29,2,.3,2a3.59,3.59,0,0,1,0,1.18.65.65,0,0,0,0,.24c.07.67.06,1.35.07,2,0,.34,0,.69,0,1a.62.62,0,0,1,0,.19,1.85,1.85,0,0,0,0,.23c.05.82,0,1.64.11,2.45,0,.19-.11,1.09-.08,1.3S230.69,77.4,230.74,77.5Z"/><path class="cls-1" d="M311.34,345.64c-24.69,29.07-85.35,15.5-85.35,15.5,6.14-41.05,12.15-72.91,12-105.7,8.38,2.95,25.43,10,62.41-6.09C300.65,282,303.5,314.26,311.34,345.64Z"/><path class="cls-1" d="M259.67,261a57.83,57.83,0,0,1-13.92-1.63c-1.12-.32-2.27-.6-3.37-1-.55-.18-1.12-.34-1.66-.54l-1.09-.38a.79.79,0,0,0-.23-.08v.25l0,3c-.17,9.17-.83,18.32-1.76,27.42q-1,10-2.36,19.88c-1.62,11.65-3.51,23.24-5.37,34.82l-2.71,17.12-.08.47c.13,0,.3.07.44.1l1.87.36c1.43.27,2.87.5,4.31.73q4.32.66,8.69,1.1a135.12,135.12,0,0,0,30.95-.24,79.56,79.56,0,0,0,19-4.87c1.54-.57,3-1.32,4.48-2,.73-.37,1.43-.78,2.15-1.17l1.07-.58,1-.66a45.79,45.79,0,0,0,7.66-6c2.8-2.9,3-2.16,1,.85a28.59,28.59,0,0,1-5.06,5.43,38.87,38.87,0,0,1-9,5.6,66.59,66.59,0,0,1-9.81,3.49c-1.66.5-3.35.82-5,1.22s-3.38.67-5.09.9a122.19,122.19,0,0,1-20.57,1.21,165.46,165.46,0,0,1-20.49-1.76c-1.7-.25-3.39-.54-5.09-.84l-1.27-.24-1.48-.31-2.28-.49c-.07,0,0-.05,0-.1l0-.14,0-.29.08-.58.18-1.15q.84-5.18,1.69-10.37c2.67-16.13,5.31-32.94,7.4-49.5,1.15-9.1,2.1-18.23,2.64-27.38.26-4.58.46-9.16.51-13.74l0-4.72s0-.13,0-.14l.16,0,.32.12.64.23,1.28.45,2,.69a55.72,55.72,0,0,0,6.54,1.83,57.21,57.21,0,0,0,16.63,1,92.11,92.11,0,0,0,16.52-3l6.12-1.85,6-2.15,6.56-2.68,1.08-.44.14-.05.06,0s0,0,0,.06v.88l0,2.33,0,3.29c.11,8.56.43,17.11,1,25.58A376,376,0,0,0,307,319.26c.47,2.84,1.05,5.58,1.57,8.43,2.1,10.52,2.87,13.84,2.76,16.24a14,14,0,0,1-.07,1.59c-.12.56-.54-.2-1.17-2.06-.31-.93-.69-2.13-1.1-3.58s-.82-3.17-1.28-5.09c-5.32-22.86-7.93-47.6-8.65-72.4l-.16-6.91,0-3.46v-.22h0l-.08,0-1.62.67c-1.08.43-2.14.9-3.23,1.3-2.2.77-4.37,1.6-6.59,2.32a112.18,112.18,0,0,1-13.57,3.53c-2.29.5-4.63.74-7,1.07l-3.52.27c-1.17.11-2.36.07-3.53.11Z"/><path class="cls-1" d="M307.18,244.16c-21.09,12.77-50,18.45-73.58,8.65-2.15-.89-1.81,1.62-.15,2.31,24.49,10.18,54.53,4.39,76.46-8.88,1.3-.79-1.51-2.81-2.73-2.08Z"/><path class="cls-1" d="M214.59,163.36a5.14,5.14,0,0,1,.24-1.24,6.23,6.23,0,0,1,.51-1.07,8.87,8.87,0,0,1,1.31-1.58,12.84,12.84,0,0,1,1-1c1.28-.95,2.6-1.52,3.1-2.39a2,2,0,0,0,.2-1.41,10.39,10.39,0,0,1-.43-2.14c0-.53,2.66-.8,3,.3a6.59,6.59,0,0,1,.09,3.27,3.24,3.24,0,0,1-.33.88,3.53,3.53,0,0,1-.5.79,4.69,4.69,0,0,1-1.25,1.1,18.29,18.29,0,0,0-2.46,1.85,9.57,9.57,0,0,0-1.07,1c-.15.18-.26.36-.4.54a5.6,5.6,0,0,0-.27.55,2.37,2.37,0,0,0,0,1.51,12.36,12.36,0,0,0,1.35,2.7,9.59,9.59,0,0,1,1.29,2.45,2.44,2.44,0,0,1,.15.66,1.09,1.09,0,0,1-.18.89,1,1,0,0,1-.75.25,4,4,0,0,1-.49,0,1.33,1.33,0,0,1-1.07-.75c-.23-.5-.45-.9-.73-1.4l-1.06-1.73a13,13,0,0,1-.88-1.72,6.08,6.08,0,0,1-.45-2.38Z"/><path class="cls-1" d="M317.11,114.19c.9-.64,1.66-1.09,2.29-1.64a4.23,4.23,0,0,0,1.68-3.45,6.27,6.27,0,0,0-.07-1.61l-.15-.81c-.07-.26-.17-.51-.25-.78a7.69,7.69,0,0,0-1.81-2.77,8.86,8.86,0,0,0-2.61-1.64c-1.24-.51-2.58-.72-3.83-1.21-.36-.14-.28-.82.21-1.43a2.31,2.31,0,0,1,2.28-.86,13.52,13.52,0,0,1,4.46,2.11,9.6,9.6,0,0,1,3.23,4,15.16,15.16,0,0,1,.94,2.93,8.5,8.5,0,0,1,.15,3.11,7,7,0,0,1-1.4,3.24,11,11,0,0,1-2.44,2.19c-.51.37-1,.7-1.41,1a2.27,2.27,0,0,0-.39.42.25.25,0,0,0,0,.22,3.65,3.65,0,0,0,.56.87,11,11,0,0,0,.88,1c.64.62,1.35,1.22,2.05,1.85a20.35,20.35,0,0,1,1.64,1.59,5.85,5.85,0,0,1,1.29,2.13,4.05,4.05,0,0,1,.28,1.14c.07,1.49-.38,1.88-1.09,1.93a3,3,0,0,1-.51,0c-.56-.09-.83-.66-.92-1.28a4.31,4.31,0,0,0-1.23-2.4,30.77,30.77,0,0,0-2.67-2.47A13.32,13.32,0,0,1,315.9,119a3.56,3.56,0,0,1-.57-1.32,2.88,2.88,0,0,1,.22-1.82,4.94,4.94,0,0,1,1.52-1.72Z"/><path class="cls-1" d="M320,160.56a8.84,8.84,0,0,0-1.63-2.29,6.22,6.22,0,0,1-1.53-4.1,4.4,4.4,0,0,1,.33-1.19c.37-.89.65-1.72,1-2.54a23,23,0,0,0,1.36-4.37,7.34,7.34,0,0,0-.23-4.18,4.16,4.16,0,0,0-2.6-2.27,27.11,27.11,0,0,0-5-.63c-.55-.07-.54-.76-.08-1.45a3.22,3.22,0,0,1,1-.94,3,3,0,0,1,1.57-.36,12.29,12.29,0,0,1,3.19.64,7.84,7.84,0,0,1,3,1.91,6.77,6.77,0,0,1,1.68,3.23,9,9,0,0,1,.07,3.3,31.35,31.35,0,0,1-1.91,7l-.49,1.17-.22.54-.07.17a.23.23,0,0,0,0,.11A2.83,2.83,0,0,0,320,156c.37.59.94,1.19,1.51,1.91a5.2,5.2,0,0,1,1.21,2.54,4.87,4.87,0,0,1-.52,2.77,5.09,5.09,0,0,1-.47.86,6,6,0,0,1-.55.8l-.62.75-.72.66a10.87,10.87,0,0,1-3.33,1.86c-1.79.65-3.66,1-5.17,1.59a2.25,2.25,0,0,0-.44.21,1.9,1.9,0,0,0-.38.22c-.43.26-.5.41-.72.51a2.59,2.59,0,0,1-.81.25c-.18,0-.36.09-.53.12s-.52-.1-.63-.49a1.4,1.4,0,0,1,0-.75,2.59,2.59,0,0,1,.44-1,5,5,0,0,1,.63-.66c.22-.17.45-.34.69-.5a9.92,9.92,0,0,1,1.36-.6c.89-.32,1.71-.51,2.5-.72a12.47,12.47,0,0,0,4.06-1.56c.19-.15.41-.26.59-.43l.53-.5a8.24,8.24,0,0,0,.88-1.2l.21-.32.13-.31.14-.3a2.68,2.68,0,0,1,.07-.27c.08-.19,0-.31.07-.47a1.74,1.74,0,0,0-.1-.41Z"/><path class="cls-1" d="M216.49,136.3c7.37,5.19,17.44-.72,23-5.63,1.35-1.19-1.79-2.46-2.78-1.6-4.11,3.64-12.38,9.84-18.15,5.79-1.24-.88-3.95.13-2.07,1.44Z"/><path class="cls-1" d="M310.66,132.35c-1.8,1.1-5.58.82-7.58.72a15,15,0,0,1-9-3c-.88-.73-4.7,1-4.1,1.46,5.6,4.65,17.8,4.73,24,.94,1.78-1.09-2.54-.55-3.32-.07Z"/><path class="cls-3" d="M257.8,463.32l-7.3-98.5c-.06-1.14-2.73-.94-2.63.19l7.3,98.5C255.23,464.41,257.87,464.21,257.8,463.32Z"/><path class="cls-3" d="M264.32,364.72v96.9c0,1.12,2.65,1.12,2.63,0v-96.9C267,363.84,264.31,363.84,264.32,364.72Z"/><path class="cls-1" d="M298.09,474.34l-3,.37-2.57-6.87s-9.54,9.8-23.72,12.32c-13.29,2.37,14.07-15.33,17.54-17.54a13.47,13.47,0,0,0,9.81-2.33Z"/><path class="cls-1" d="M295.42,473.46a1.43,1.43,0,0,1,.19.42,1.82,1.82,0,0,1,.33,0l.19,0,.36,0a6.84,6.84,0,0,1,1.36.28.36.36,0,0,1,0,.7l-1.21.34-.31.08-.48.1-1,.21-.26,0-1.32-3.21-.87-2.13a.94.94,0,0,0-.12-.26l-.05-.1c0-.05-.07-.12-.1-.13l-.15.18,0,.07,0,0-.19.18c-.49.43-.88.79-1.2,1.06a44.35,44.35,0,0,1-6.74,4.69,45.24,45.24,0,0,1-15.77,5.63l-.51.05h-.71c-.25,0-.57,0-.85-.07a3.76,3.76,0,0,1-.78-.26,2.09,2.09,0,0,1-1.05-1.06,2.2,2.2,0,0,1,0-1.5,4.5,4.5,0,0,1,.67-1.28,7,7,0,0,1,.63-.78c.38-.43.77-.81,1.17-1.19.79-.74,1.6-1.42,2.41-2.09,1.63-1.34,3.29-2.6,5-3.85.56-.42,1.14-.82,1.65-1.27s2.92-2.18,5.53-3.93c1.3-.88,2.62-1.75,3.7-2.44l1-.63.34-.21.33,0,.63.06.94.08a10.92,10.92,0,0,0,3.92-.31,13.52,13.52,0,0,0,1.89-.71l.28-.13.44-.22.87-.5,1.68-1,.43,3.58a10,10,0,0,1,.14,1.56,21.86,21.86,0,0,0,.27,3.32c.19,1.53.37,3.07.51,4.61.07.77.07,1.53.08,2.29s-.33.36-.4.12c-.18-.67-.24-.09-.36,0s-.09.06-.12,0a2.36,2.36,0,0,1-.1-.4c-.06-.25-.13-.6-.22-1-.17-.85-.4-2-.63-3.13-.45-2.31-.91-4.74-1-5.22,0,0,0-.29-.13-.89,0-.24-.08-.56-.14-.95a2.83,2.83,0,0,0-.07-.36l-.2.14-.11.08,0,0-.18.09c-.12.06-.24.13-.37.18a13.35,13.35,0,0,1-3.45,1.17,14,14,0,0,1-3.36.22l-.85,0c-.11,0,0,0-.1.05-.63.43-1.31.81-2,1.21-.16.1-2.38,1.6-4.56,3.15s-4.33,3.16-4.5,3.28c-1.74,1.24-3.39,2.59-5.11,3.8a9.15,9.15,0,0,0-1,.8c-.67.59-1.33,1.2-1.92,1.83a9.8,9.8,0,0,0-.73.85.24.24,0,0,0-.07.12c0,.06,0,.09.08.1s0,0,.5,0a19.42,19.42,0,0,0,2.59-.43,22.62,22.62,0,0,0,2.67-.66c.89-.23,1.75-.57,2.62-.87.31-.1.63-.18.94-.3s.79-.29,1.18-.45a46.67,46.67,0,0,0,11.24-6.69l1.3-1,.22-.18.28-.24c.28-.23.56-.48.84-.73l1.67-1.59,1,2.88c.21.59.39,1.07.49,1.36C294.71,470.8,295.2,473,295.42,473.46Z"/><path class="cls-3" d="M287.93,461.55,274.78,364c-.13-1.12-2.78-.76-2.61.36l13.15,97.54C285.43,462.79,288.06,462.43,287.93,461.55Z"/><path class="cls-3" d="M286.87,360.94l7.92,99.73c.07,1.15,2.74.94,2.63-.21l-7.93-99.73C289.43,359.82,286.79,360,286.87,360.94Z"/><path class="cls-1" d="M265.63,476.14l-2.13.09-2.26-6.65a56.34,56.34,0,0,1-26.66,9.69c-14.17,1.18,15-12.49,20.1-14.84,3.11,1.06,5.52,1.65,10.95-2Z"/><path class="cls-1" d="M263.56,474.12a7.81,7.81,0,0,1,.34.91,3,3,0,0,1,.08.49l.51.2c.28.08.61.18.91.3a.36.36,0,0,1-.11.7l-.43.08c-.16,0-.27.06-.52.09l-1.42.17c-.16-.36-.31-.74-.47-1.1-.06-.17-.39-1-.84-2.21-.21-.55-.44-1.18-.69-1.83l-.09-.25,0-.06-.05-.11a1.94,1.94,0,0,0-.1-.17l-.25.23,0,0-.16.11-.32.22-.61.4c-.79.51-1.48.92-2,1.22a50.73,50.73,0,0,1-7.55,3.6,55.12,55.12,0,0,1-8.16,2.45c-1.39.34-2.8.54-4.21.77a42.21,42.21,0,0,1-4.34.38c-.12,0-.45,0-.72,0a5.38,5.38,0,0,1-.86-.12,2.84,2.84,0,0,1-1.42-.65,1.93,1.93,0,0,1-.64-1.28,2.41,2.41,0,0,1,.4-1.41,5.58,5.58,0,0,1,1-1.1c.39-.36.55-.48.79-.67.45-.35.91-.67,1.37-1,.91-.61,1.83-1.17,2.76-1.72,1.85-1.09,3.72-2.12,5.59-3.13.62-.34,1.27-.66,1.85-1s3.28-1.77,6.17-3.17c1.44-.7,2.91-1.39,4.09-1.93l.64-.29.4-.19.19-.09.19.07,1.14.38c.41.14.7.21.86.26a6.71,6.71,0,0,0,4.11,0,14.85,14.85,0,0,0,2.09-.86c.23-.1.62-.35.92-.52l.94-.56,1.83-1.13,0,2.25c0,.46,0,.92,0,1.38l0,.68a2,2,0,0,1-.05.4,22.65,22.65,0,0,0-.18,3.4c0,1.58-.05,3.17-.11,4.75,0,.78-.15,1.55-.24,2.32s-.38.32-.41.08c-.09-.72-.23-.14-.35-.07s-.1.05-.13,0a2.45,2.45,0,0,1-.05-.42c0-.26,0-.63-.08-1.06-.05-.89-.12-2.06-.19-3.26-.14-2.41-.27-4.93-.27-5.43,0,0,0-.19,0-.65,0-.1,0-.3,0-.53l-.2.16-.12.08-.06,0,0,0-.2.1a13.72,13.72,0,0,1-3.76,1.46,9.29,9.29,0,0,1-2.15.16,10.63,10.63,0,0,1-1.86-.27c-.52-.12-1-.27-1.29-.35-.06,0-.11,0-.11,0s-.45.22-.78.36l-1.09.46c-.17.07-2.63,1.28-5.07,2.53s-4.86,2.56-5,2.66c-1.95,1-3.82,2.12-5.76,3.07a12.47,12.47,0,0,0-1.11.66c-.78.5-1.55,1-2.26,1.54l-.52.4-.39.32-.12.12a.08.08,0,0,0,0,.13.5.5,0,0,0,.22,0c.29,0,.82,0,1.24,0s.91-.08,1.37-.13c.93-.09,1.88-.18,2.8-.36s1.87-.32,2.78-.55l1-.18a10.48,10.48,0,0,0,1.26-.29,53.56,53.56,0,0,0,12.47-5l2.09-1.12.71-.41.82-.49c.84-.54,1.63-1.11,2.33-1.6.38,1.13.68,2,.86,2.55,0,.13.09.3.16.51l.11.41c.07.31.15.66.24,1A13.16,13.16,0,0,0,263.56,474.12Z"/><path class="cls-1" d="M463.37,193.17c-31.63,5.47-41.09-8.17-44.21-12.46,11.09.16,17.38-16.89,17.54-17.21,4.33.67,11.23-1,12.31-8.29,1.38-9.27-9.62-3.46-9.62-3.46-3.94-.45-5.11-14.34-5.11-14.34-7.71,4.3-20.28,1.06-30-2.73-10.9,39.73,8.86,44.95,10.56,45.32-23.57,8.66-44.94.58-44.94.58,6.78-2.48,15.73-37.66,21.73-49.64.26-.54,9.67-19.5,20.82-24.17,17.55-7.37,31.09,8.71,31.09,8.71s13.05-2.42,16.34,8.69S457.58,184.06,463.37,193.17Z"/><path class="cls-1" d="M385.08,152.36c-1.75,5-3.51,9.94-5.49,14.87-1,2.46-2,4.91-3.27,7.32a38.59,38.59,0,0,1-2,3.56l-.61.87c-.1.15-.22.29-.33.43l-.29.35a.9.9,0,0,1-.23.2l-.09,0s0,0,.06,0l.18.07.19.06.43.12c.19.05.38.11.58.15,1.53.39,3.07.74,4.63,1a69.79,69.79,0,0,0,9.45,1.11,75.44,75.44,0,0,0,9.51-.13c1.57-.2,3.16-.31,4.72-.58s3.14-.49,4.66-.92l2-.5.94-.23.27-.09.53-.17c.16-.06.49-.12.18-.16a5,5,0,0,1-.49-.2l-.26-.14-.07,0-.24-.16-.48-.32c-.31-.22-.64-.43-1-.66l-.87-.76c-.29-.26-.6-.49-.86-.77l-.77-.85-.77-.86-.66-.94a14.44,14.44,0,0,1-1.22-1.92l-1-2c-.29-.69-.52-1.41-.78-2.12l-.43-1.24c-.11-.42-.2-.85-.3-1.27l-.56-2.55-.28-2.57a20.36,20.36,0,0,1-.19-2.58v-2.57a19.8,19.8,0,0,1,.07-2.56c.16-1.7.28-3.41.48-5.1l.86-5a23.27,23.27,0,0,1,.53-2.48l.6-2.47.77-3.14.24-1,.07-.25a1.27,1.27,0,0,1,.23.08l.48.18,1.91.73,2.49.9c.78.26,1.56.54,2.36.77a59.36,59.36,0,0,0,9.6,2.23,27,27,0,0,0,9.63-.2,9.11,9.11,0,0,0,1.14-.3l.56-.19.39-.13.47-.21,1.83-.87L435,136l.11-.05v.13l0,.25.09,1c.06.68.13,1.34.21,2l.18,1.29c.11.81.25,1.63.4,2.43a30.45,30.45,0,0,0,1.24,4.71,9.82,9.82,0,0,0,1,2.06,4.23,4.23,0,0,0,.61.71.72.72,0,0,0,.51.19l.27-.12.6-.27c.4-.16.81-.32,1.23-.47a16.43,16.43,0,0,1,2.57-.68,7.6,7.6,0,0,1,2.85,0,3.77,3.77,0,0,1,2.53,1.89A5.88,5.88,0,0,1,450,154a12.06,12.06,0,0,1-.12,1.36l-.28,1.32a9.72,9.72,0,0,1-2.7,4.69,11,11,0,0,1-4.7,2.64,14.74,14.74,0,0,1-2.64.46,11.83,11.83,0,0,1-2.17,0s-.1,0-.14,0l-.06.14-.11.28-.47,1c-.35.78-.72,1.55-1.11,2.3a42.37,42.37,0,0,1-2.62,4.39,23.74,23.74,0,0,1-7.3,7.26,13.48,13.48,0,0,1-3,1.29,6.61,6.61,0,0,1-1,.24,5,5,0,0,1-.67,0h-.07s0,0,0,0l.1.13.19.25.38.49.77.9,1,1a26.31,26.31,0,0,0,4.21,3.45,32.43,32.43,0,0,0,10,4.33c7.14,1.82,14.69,1.68,22.06.82,5.21-.66,4.67,0,.27,1.28l-1.82.49c-.67.15-1.4.26-2.18.4a41.67,41.67,0,0,1-5.31.65,42.22,42.22,0,0,1-13.6-1.07,34.54,34.54,0,0,1-10.85-4.71,29,29,0,0,1-4.62-3.81l-1-1.09-1.15-1.38c-1.11-1.46-2.23-3-3.28-4.43l3.94-.14c.33,0,.61-.07.92-.1l.71-.16a5.94,5.94,0,0,0,.72-.21A12.34,12.34,0,0,0,425,177.2a20.53,20.53,0,0,0,4.65-4.48,37.24,37.24,0,0,0,3.61-5.66c.53-1,1-2,1.47-3.06l.66-1.56.17-.39.09-.19c0-.08.12,0,.18,0l.85.07c.29,0,.56,0,.85.08l.59,0c.26,0,.51,0,.77,0a9.8,9.8,0,0,0,5.65-1.87,7.51,7.51,0,0,0,1.9-2.15,9.1,9.1,0,0,0,1-2.81,5.89,5.89,0,0,0,0-2.72,1.36,1.36,0,0,0-.46-.68,1.91,1.91,0,0,0-.93-.33,7.79,7.79,0,0,0-2.89.36,15.5,15.5,0,0,0-1.54.52,16.34,16.34,0,0,0-2,.92,7,7,0,0,1-1.41-.39,4.13,4.13,0,0,1-1.14-.82,7.12,7.12,0,0,1-1.17-1.64,16.11,16.11,0,0,1-1.28-3.28,44.19,44.19,0,0,1-1.32-6.53l-.11-.82v-.3s0-.15,0-.1l-.28.12-.57.19c-.28.09-.55.19-.83.27a24.2,24.2,0,0,1-6.79.72,56.92,56.92,0,0,1-15.89-3.17c-.64-.22-1.28-.43-1.91-.66l-1.41-.51-.33-.13c-.08-.06-.07,0-.08.08l0,.15-.31,1.27-.94,3.88c-.27,1.3-.45,2.61-.68,3.92a72.78,72.78,0,0,0-.89,7.91c0,1.32,0,2.64,0,4v1l.11,1,.21,1.95a30.51,30.51,0,0,0,1.92,7.53,20.84,20.84,0,0,0,4.18,6.32l1.31,1.14c.44.37.94.67,1.41,1a1.16,1.16,0,0,0,.2.13l.37.17.72.34.73.35.36.17.18.08.26.08,4.3,1.18-.22.12-.12.07-.21.14-1.14.37-2.3.75-2.29.74-1.15.38-.28.09-.19,0-.36.09c-1.95.46-3.87,1-5.85,1.3a65.33,65.33,0,0,1-11.91,1.1,72.06,72.06,0,0,1-11.92-.87l-2.95-.52c-1-.21-1.95-.39-2.92-.64l-1.45-.37-.79-.22-1.12-.33-2.13-.72-1.05-.37a2.48,2.48,0,0,1-.32-.35l1.06-.6a7.74,7.74,0,0,0,1-.58l.78-.56.38-.28a2.26,2.26,0,0,0,.29-.32,18,18,0,0,0,1.14-1.54c.7-1.1,1.34-2.26,1.94-3.45,1.19-2.38,2.24-4.86,3.24-7.36,2.68-6.72,5-13.61,7.43-20.47,1.22-3.43,2.45-6.86,3.82-10.25.69-1.69,1.42-3.38,2.26-5s1.76-3.22,2.69-4.79c1.32-2.21,2.74-4.36,4.26-6.43a56.1,56.1,0,0,1,4.92-6,32,32,0,0,1,5.91-5.09,22.08,22.08,0,0,1,3.49-1.88,25.72,25.72,0,0,1,3.73-1.2,24.86,24.86,0,0,1,15.4,1.3,33.31,33.31,0,0,1,6.78,3.78q1.58,1.13,3,2.4c.49.43.95.87,1.42,1.32l.68.69.4.43a17.46,17.46,0,0,1,2.18-.17c.43,0,.85,0,1.28,0s.85,0,1.27.09a15.89,15.89,0,0,1,6.34,1.89,11.75,11.75,0,0,1,4.62,4.78,7.41,7.41,0,0,1,.69,1.52,11.2,11.2,0,0,1,.54,1.57,23.07,23.07,0,0,1,.58,3.21c.25,2.13.36,4.24.45,6.35.26,8.43,0,16.79-.05,25.18,0,3.7,0,7.31,0,11a171.93,171.93,0,0,0,1.13,20.93c.05.33.11.72.17,1.07a7,7,0,0,1,.21.87c.06.36-.09.35-.43-.07a7.78,7.78,0,0,1-1.28-2.48A44.78,44.78,0,0,1,459.63,179c-.7-12.19-.18-24.58-.18-37.1,0-3.12,0-6.26-.17-9.37-.07-1.55-.18-3.1-.36-4.61-.08-.76-.21-1.49-.34-2.22l-.26-1-.38-1a10,10,0,0,0-2.18-3.46,10.31,10.31,0,0,0-3.42-2.24,14.16,14.16,0,0,0-4.18-1,18.77,18.77,0,0,0-5.29.27l-.74-.86-.56-.6c-.25-.26-.5-.51-.77-.76-.52-.5-1.06-1-1.61-1.45a35.73,35.73,0,0,0-3.5-2.61,28.5,28.5,0,0,0-7.87-3.62,20.94,20.94,0,0,0-4.05-.76,20.16,20.16,0,0,0-4.11,0,20.62,20.62,0,0,0-4,.79,18.7,18.7,0,0,0-3.81,1.52,27.62,27.62,0,0,0-6.56,5.11,56.11,56.11,0,0,0-5.51,6.64A86,86,0,0,0,395,128c-.73,1.26-1.44,2.54-2.07,3.82s-1.2,2.61-1.76,3.95c-2.19,5.41-4.09,11-6.05,16.6Z"/><path class="cls-1" d="M400.17,243.82c-.54-5.6,2.34-9,6.47-12.42,1.13-.93-.63-1.55-1.42-.9-4.62,3.79-7.83,7.64-7.22,13.9.09.92,2.27.41,2.17-.58Z"/><path class="cls-1" d="M373.16,213.14a2.28,2.28,0,0,1-.61,1.67c-.13.14-.48.09-.51-.11a11,11,0,0,1-.16-1.15c0-.23.22-3.94.36-5.19a34.84,34.84,0,0,1,.57-3.64,26.13,26.13,0,0,1,1-3.73,5.06,5.06,0,0,1,.23-.54,2.4,2.4,0,0,1,.53-.73,1.87,1.87,0,0,1,.79-.31,4.87,4.87,0,0,1,.58-.11c.63-.09,1.28-.16,1.93-.2a12.46,12.46,0,0,1,1.73,0c.5.05,1,.11,1.48.19l.73.13c.26.06.41.07.91.21a1.72,1.72,0,0,1,.9.88,6.85,6.85,0,0,1,.33.77c.17.49.3,1,.43,1.43a6.68,6.68,0,0,0,.26.93,25.63,25.63,0,0,1,.62,3.06c.22,1.42.37,2.86.38,3.2.08,1.65.16,3.3.19,4.95a2.72,2.72,0,0,1,0,.7,6.43,6.43,0,0,0-.05,1.52c0,.7,0,1.41,0,2.11a9,9,0,0,1-.16,1c-.05.31-.28.15-.3,0-.08-.32-.18-.06-.27,0s-.07,0-.1,0a6.41,6.41,0,0,1-.1-.65c-.05-.39-.12-.91-.19-1.43-.14-1.06-.3-2.16-.32-2.38,0,0,0-.41-.08-1s-.13-1.33-.21-2.1c-.17-1.55-.39-3.16-.45-3.48a8.93,8.93,0,0,1-.09-1c0-.08-.2-1.27-.43-2.45s-.52-2.33-.55-2.41a11.86,11.86,0,0,0-.37-1.31c-.07-.2-.14-.4-.2-.55s0-.05,0-.1,0,0,0,0a1.28,1.28,0,0,0-.27,0,18.32,18.32,0,0,0-4.74-.19l-.61.07-.43.07c-.12.05,0,0-.24.42l-.16.39a4.6,4.6,0,0,0-.19.52,40.55,40.55,0,0,0-1.19,5.86c-.06.45-.52,2.62-.55,3.16C373.49,211.92,373.14,212.87,373.16,213.14Z"/><path class="cls-1" d="M370,228.32c-.19-.1-.21-.31-.12-.58,0-.08.21-.23.27-.21l.34.11c.06,0,.86.68,1.16.86s.55.39.82.59a10.81,10.81,0,0,0,1.71,1.06l.38.22a4.72,4.72,0,0,0,1.4.56.53.53,0,0,0,.25,0c.07,0,.43.06.79.07s.74,0,.82,0a4.61,4.61,0,0,0,1.28-.09c.07,0,.12-.05.19,0a.48.48,0,0,0,.41-.07c.18-.07.36-.15.54-.2a1.12,1.12,0,0,1,.32,0c.1,0,.13.14.11.17s.05.11.09.15,0,0,0,.06a2.89,2.89,0,0,1-.49.43,2.15,2.15,0,0,1-.62.42l-.3.11c-.17.05-.4.15-.64.21-.49.09-1,.2-1.11.19a1.84,1.84,0,0,1-.33,0s-.42,0-.81,0l-.8-.1a3.44,3.44,0,0,1-.86-.32.85.85,0,0,0-.17-.06,7.73,7.73,0,0,1-1.38-.69,7.33,7.33,0,0,1-.67-.39l-.11-.09-.14-.11c-.52-.33-1-.74-1.46-1.1-.12-.09-.54-.61-.66-.72S370.1,228.36,370,228.32Z"/><path class="cls-1" d="M370.68,224.49c-.16-.09-.14-.28,0-.53,0-.08.23-.22.29-.2a2.22,2.22,0,0,1,.31.13c.07,0,.71.76.93,1l.59.61a4.43,4.43,0,0,0,1.35.92,2,2,0,0,1,.33.16,3.22,3.22,0,0,0,1.27.37.6.6,0,0,0,.23,0,3.21,3.21,0,0,1,.74,0c.34,0,.7,0,.78,0,.4.08.81.09,1.23.14a.25.25,0,0,1,.17,0,.59.59,0,0,0,.39.05,4.87,4.87,0,0,1,.54,0,.72.72,0,0,1,.27.09c.08,0,.06.18,0,.2s0,.12,0,.18a.15.15,0,0,1,0,.06,7.5,7.5,0,0,1-1.14.4l-.26,0-.57.05c-.41.05-.85.05-.94.06a1.41,1.41,0,0,1-.28,0s-1.32,0-1.37,0a2.44,2.44,0,0,1-.79-.21s-.1,0-.15-.06a4.4,4.4,0,0,1-1.32-.53,5.89,5.89,0,0,1-.64-.37l-.1-.09-.12-.12a8.49,8.49,0,0,1-1.19-1.21c-.09-.1-.35-.63-.44-.73S370.74,224.53,370.68,224.49Z"/><path class="cls-1" d="M380.14,223.47c.14-.12.32-.05.54.12a.44.44,0,0,1,.13.33,3.08,3.08,0,0,1-.24.27l-.57.3-.82.31a4.86,4.86,0,0,1-1.06.21,7.89,7.89,0,0,1-2.22-.15,1.61,1.61,0,0,1-.47-.15c-.52-.23-1-.44-1.53-.69a.82.82,0,0,0-.26-.1,3.8,3.8,0,0,1-.79-.46,4.53,4.53,0,0,1-.72-.63,9.93,9.93,0,0,1-.84-1.2c0-.06-.09-.11-.09-.19A.93.93,0,0,0,371,221a2.22,2.22,0,0,1-.24-.57,1.08,1.08,0,0,1,0-.31c0-.1.16-.11.18-.09s.12,0,.17-.06l.06,0s.73.8.82.87l.15.2c.09.11.23.25.37.39a5.05,5.05,0,0,0,.67.59.86.86,0,0,1,.19.19,6.71,6.71,0,0,0,1.1.64,4.51,4.51,0,0,1,.63.37l.13.07c.4.12.79.27,1.21.36a4.64,4.64,0,0,0,.64.07.45.45,0,0,1,.11,0l.15,0,.77,0a6.35,6.35,0,0,0,.76-.13c.11,0,.7-.07.83-.13S380.08,223.53,380.14,223.47Z"/><path class="cls-1" d="M371.22,235.79c-.14-.33,0-.63.36-.91.11-.09.46-.11.52,0a4.37,4.37,0,0,1,.32.55c.05.11.41,1.94.55,2.55.06.3.12.6.16.91l.06.45v.09h0l.14.16a3.45,3.45,0,0,0,.26.28,5.07,5.07,0,0,0,.61.52,7.12,7.12,0,0,0,1.38.83,5,5,0,0,1,.66.31,5.62,5.62,0,0,0,2.51.51,1,1,0,0,0,.43,0c.12,0,.77-.11,1.42-.16s1.33-.21,1.49-.24a15.86,15.86,0,0,0,2.34-.46c.11,0,.24-.1.27,0a.31.31,0,0,0,.22.05c.07,0,.13,0,.11-.1,0-.23.06-.47.09-.75a2.47,2.47,0,0,1,.18-.52c.06-.16.28-.07.3,0s.18,0,.27,0a.17.17,0,0,1,.1,0,6.24,6.24,0,0,1,.24,1.1c0,.23,0,.45.07.67s0,.23,0,.33a1,1,0,0,1,0,.16l-.13.06c-.33.16-.59.29-.69.32s-.86.37-1.65.66-1.62.53-1.81.55a2.6,2.6,0,0,1-.56.06,14.45,14.45,0,0,1-2.73.32c-.27,0-.54,0-.81,0a3.26,3.26,0,0,1-.8-.21,1.13,1.13,0,0,0-.32-.06,8.12,8.12,0,0,1-2.62-1,9.78,9.78,0,0,1-1.22-.79l-.19-.19c-.08-.07-.14-.16-.23-.24a5,5,0,0,1-.61-.61l-.29-.37c-.11-.2-.31-.36-.3-.6l-.09-.89c0-.26-.07-.52-.11-.77s0-1.38-.06-1.65S371.28,235.92,371.22,235.79Z"/><path d="M355.56,135.5a1.78,1.78,0,0,1-.53,1.73c-.14.12-.47,0-.5-.2l-.06-.46a4.7,4.7,0,0,1-.12-.51c0-.1-.1-1-.3-2s-.47-2.18-.62-2.77c-.28-1.13-.54-2.27-.8-3.41-.52-2.32-1.11-4.64-1.68-7-.12-.52-.23-1-.32-1.58s-.15-.87-.23-1.46a3,3,0,0,1,0-.89,4.72,4.72,0,0,1,.16-.8,3.54,3.54,0,0,1,.91-1.58,2.88,2.88,0,0,1,.75-.56,2.93,2.93,0,0,1,.93-.34,3.61,3.61,0,0,1,1.37.13,2.78,2.78,0,0,1,.41.15c.16.06.52.26.44.21a0,0,0,0,0,0,0,1.63,1.63,0,0,1,.15-.33,3.7,3.7,0,0,1,1.42-1.51,3.45,3.45,0,0,1,1.65-.45,3.82,3.82,0,0,1,1.13.19,3,3,0,0,1,.52.21l.1.05s0,0,0,0l0,0s.07.09.11.1l.08-.1a.31.31,0,0,0,.08-.11l.19-.36c.14-.24.28-.47.44-.71a2.53,2.53,0,0,1,.49-.59,4.1,4.1,0,0,1,1.6-1,1.84,1.84,0,0,1,1.36.32,3,3,0,0,1,.84.84,3.74,3.74,0,0,1,.46,1c.11.3-.17.26-.25.18s-.18,0-.24.12,0,0-.08,0-.16-.2-.41-.45a2.89,2.89,0,0,0-.92-.74.59.59,0,0,0-.71.08,3.11,3.11,0,0,0-.4.44,2.41,2.41,0,0,0-.19.25c-.11.17-.26.41-.42.71s-.15.33-.24.51l-.19.43c-.08.18-.16.36-.25.54a1.44,1.44,0,0,1-.31.43c-.05.08-.13,0-.2.08h-.21s.07.28,0,.15a1.26,1.26,0,0,1-.9-.23c-.13-.08-.25-.18-.38-.25a1.18,1.18,0,0,0-.19-.1l-.08,0a1.61,1.61,0,0,0-.29-.09,1.87,1.87,0,0,0-.51,0,1.56,1.56,0,0,0-.55.14,2,2,0,0,0-.54.33.51.51,0,0,0-.15.17,1,1,0,0,0-.14.24,1.42,1.42,0,0,0-.1.21c0,.15-.09.32-.15.5a3.87,3.87,0,0,1-.31.66.94.94,0,0,1-.65.42,1.46,1.46,0,0,1-.9-.11c-.17,0-.33-.16-.5-.23l-.42-.23c-.63-.33-.86-.29-.83-.28s0,0-.05,0-.15.06-.21.09a1.83,1.83,0,0,0-.34.23,2.21,2.21,0,0,0-.5.7,1.36,1.36,0,0,0-.1.43,3,3,0,0,0,0,.5.5.5,0,0,1,0,.12l.06.27.24,1.17.52,2.38c.2.81.4,1.62.59,2.43,0,.15.05.3.08.45a5,5,0,0,0,.11.56c.47,1.93.84,3.88,1.29,5.82.11.45.33,2.64.41,3.17C355.66,134.23,355.5,135.24,355.56,135.5Z"/><path class="cls-1" d="M365.69,217.07a14.3,14.3,0,0,1,2,.05,15.29,15.29,0,0,0,1.72.16.36.36,0,0,1,.39.2.41.41,0,0,1,0,.22.56.56,0,0,1-.25.26,7.42,7.42,0,0,1-2.72.78,29.86,29.86,0,0,1-5.1-.25c-1.26-.15-2.58-.34-3.76-.55l-.85-.15-.67-.12a2.51,2.51,0,0,1-.52-.39l-1.09-.88a21.1,21.1,0,0,1-5.12-7,42.56,42.56,0,0,1-2.66-8.19,65.12,65.12,0,0,1-1.19-8.42c-.13-1.25-.14-2.5-.15-3.75q0-6.42.38-12.79c0-.71.1-1.43.08-2.12s.24-3.73.62-6.92.88-6.41,1-7.14c.71-3.65,1.45-7.28,2.3-10.89a11.8,11.8,0,0,1,.39-1.53,24,24,0,0,0,.89-3.28c.37-1.55.76-3.09,1.2-4.61.22-.76.52-1.48.8-2.2s.45-.22.42,0c-.09.71.19.19.32.15s.11,0,.13,0c-.05.29-1.56,9-1.73,10,0,.06-.17.92-.42,2.19s-.55,3-.83,4.7c-.59,3.48-1.1,7.12-1.17,7.86s-.25,1.56-.39,2.33c0,.18-.35,2.89-.59,5.62s-.41,5.45-.41,5.66c-.19,2.18-.21,4.36-.43,6.52-.05.42,0,.87-.05,1.3,0,3.74.06,7.48.43,11.17.12.94.22,1.89.38,2.82s.33,1.87.53,2.79c.08.33.13.66.2,1s.16.85.27,1.26c.31,1.07.64,2.13,1,3.17a27,27,0,0,0,1.32,3,17.75,17.75,0,0,0,3.8,5.2c.19.16.54.48,1,.88s.16.22.41.28l1.09.26c1.49.34,3,.62,3.59.69A28.84,28.84,0,0,0,365.69,217.07Z"/><path class="cls-1" d="M383.1,197.58a22.29,22.29,0,0,1-6.63-.3,16.23,16.23,0,0,1,0-2.44,17.83,17.83,0,0,1,1-5s3.66-.22,5.38.85a9.26,9.26,0,0,1,.66,3.15A10.82,10.82,0,0,1,383.1,197.58Z"/><path class="cls-1" d="M383.73,197a21.27,21.27,0,0,1-3.57.06,7.61,7.61,0,0,1-1.93-.24c-.44-.29-.35-.38-.35-.91a18.25,18.25,0,0,1,1.08-6.29l-2.06.82c.86,0,3.52-.16,4.47.67.46.41.56,1.5.65,2.1a11.11,11.11,0,0,1-.35,4.62c-.15.54,2.65.19,2.86-.52a11.84,11.84,0,0,0,.39-4.88c-.14-.91-.22-2-1.09-2.41a11.84,11.84,0,0,0-5.67-.71c-.44,0-1.87.28-2.06.83a19,19,0,0,0-1.08,7.51.3.3,0,0,0,.26.17,26.65,26.65,0,0,0,7.19.31c.44,0,1.73-.21,1.94-.68S384.24,197,383.73,197Z"/><path class="cls-1" d="M400.74,194.64a26.65,26.65,0,0,1-7.18,2.51c-.71.11-.74-.38,0-.73,1.44-.72,2.87-1.57,4.38-2.34a55.36,55.36,0,0,1,9.21-3.56,34.64,34.64,0,0,1,7.46-1.21,30.39,30.39,0,0,1,3.35.05l1.42.07a11.58,11.58,0,0,1,1.19.18,26.69,26.69,0,0,1,14.87,7.26,49.37,49.37,0,0,1,9.71,13.57c2.54,4.91,4.62,10,6.71,15,.93,2.23,1.83,4.49,2.69,6.74,1.47,3.89,2.91,7.78,4.26,11.72.67,2,1.33,4,1.95,5.94a35,35,0,0,1,1.53,6.23,22.39,22.39,0,0,1,.12,4.41,10.85,10.85,0,0,1-.3,1.85,10.74,10.74,0,0,1-1.39,3.26,10,10,0,0,1-3.39,3.23,13.9,13.9,0,0,1-4.82,1.63,27.62,27.62,0,0,1-9.25-.47c-1.29-.27-2.41-.56-3.3-.81-.46-.14-.91-.35-1.26-.49s-.55-.27-.73-.35c-3.3-1.73-6.36-3.6-9.48-5.47s-6.18-3.78-9.25-5.7c-.88-.55-1.83-1.1-2.59-1.66-1.77-1.3-3.68-2.43-5.58-3.62q-4-2.46-7.85-5c-1.28-.84-2.51-1.73-3.73-2.62s-.33-.65.09-.42c1.23.67.35,0,.31-.23s0-.13,0-.12.27.14.71.39l1.8,1,5.52,3.2,9.19,5.33,3.76,2.25c2.2,1.3,5.11,3,8.1,4.76s6.07,3.48,8.58,4.77c.62.34,1.21.6,1.75.87a11.92,11.92,0,0,0,1.36.54c.93.24,1.62.41,2,.47a42.56,42.56,0,0,0,4.41.8,21.12,21.12,0,0,0,3.49.07,11.18,11.18,0,0,0,6.25-2,7.34,7.34,0,0,0,2.09-2.6,9.75,9.75,0,0,0,.83-2.94,16.37,16.37,0,0,0,0-3.41,28.35,28.35,0,0,0-1.37-6c-.63-2-1.26-4.07-1.89-6.12-.24-.81-.54-1.62-.83-2.43-2.53-6.93-5.31-13.77-8.14-20.61-1.44-3.48-3-6.91-4.71-10.23-.3-.6-.58-1.21-.91-1.79-.41-.74-.8-1.5-1.23-2.23a39.6,39.6,0,0,0-8.27-10,24.22,24.22,0,0,0-11.52-5.38,16.86,16.86,0,0,0-2.63-.38,32.75,32.75,0,0,0-4.1-.18,31.24,31.24,0,0,0-6.95,1.07c-.62.18-2,.5-3.3.89A29.27,29.27,0,0,0,400.74,194.64Z"/><path class="cls-1" d="M365.87,119a11.33,11.33,0,0,0-2.47,3.32c-.2.37-.54.27-.48-.26a6.38,6.38,0,0,1,1.1-3,6.87,6.87,0,0,1,1.52-1.45,7,7,0,0,1,1.75-.87c.18,0,.36-.11.56-.15l.3,0,.06,0a.25.25,0,0,0,.1-.08l.16-.28a12.2,12.2,0,0,0,.55-1.93,9.74,9.74,0,0,1,.32-1.15,6.21,6.21,0,0,1,.29-.58,4.94,4.94,0,0,1,.3-.49,4,4,0,0,1,1-1.12,1.57,1.57,0,0,1,1.44-.2,2.08,2.08,0,0,1,1,.94c.13.36.29.74.37,1a13.64,13.64,0,0,1-.2,5,42.94,42.94,0,0,1-1.18,4.66l-.37,1.13-.1.3c-.09.22-.11.24-.15.34l-.23.51c-.3.69-.58,1.4-.86,2.11-.54,1.42-1,2.87-1.47,4.33a55.65,55.65,0,0,0-1.9,8.91l-.16-.71a3.63,3.63,0,0,1,.21.58c0,.12,0,.17,0,.21v.15a33.79,33.79,0,0,1,0,4.38c-.21,4.88-.42,9.7-.63,14.56,0,.8-.08,1.63-.06,2.41,0,1.29-.67,14.43-.82,16.13q-.51,6.34-1,12.67c-.05.6-.07,1.24-.17,1.79s-.18,1.28-.23,1.92l-.06.77,0,.26c0,.06-.06.2,0,.16s.19,0,.34,0H365l.34,0a5.15,5.15,0,0,1,1.46.38,10.4,10.4,0,0,0,2.44.9,11.4,11.4,0,0,0,2.56.2c.79,0,.39.25.11.3-.81.15-.14.19-.05.27s.06.07,0,.1l-.49.08c-.3,0-.73.08-1.26.08a7.34,7.34,0,0,1-1.83-.2,18.52,18.52,0,0,1-1.95-.67,4.93,4.93,0,0,0-.88-.22l-.45,0-.72,0-.8.06-.41,0s-.08,0-.08,0v-.29c0-.5,0-1,.06-1.43,0-1.22.08-2.13.09-2.43s.77-15.49.86-17.22c0-.9.12-1.81.19-2.71,0-.43.53-12.6.55-13.08.14-2.52.19-5,.42-7.55.05-.49.06-1,.07-1.51l.16-5.26,0-2.62c0-.43,0-.87,0-1.28,0-.21,0-.43,0-.61l0-.28c0-.05,0,0,0,0s0,0,0,0a3.8,3.8,0,0,0,.66-.41l-.79-.19c.13-.82.23-1.65.39-2.46a64.11,64.11,0,0,1,1.54-6.58c.12-.39.26-.77.39-1.15l.51-1.45c.43-1.25.9-2.5,1.42-3.73l.4-.92c.07-.16.15-.31.17-.38l.16-.45c.2-.61.39-1.23.57-1.85a38.4,38.4,0,0,0,.91-3.74,12.8,12.8,0,0,0,.23-3.66,2.34,2.34,0,0,0-.18-.74.13.13,0,0,0-.21,0,.49.49,0,0,0-.14.13c-.1.13-.22.29-.33.45a3.18,3.18,0,0,0-.46,1c-.11.41-.22.8-.32,1.16a7,7,0,0,1-.71,1.81,1.74,1.74,0,0,1-1.08.81c-.37.08-.42,0-.6.08a4.82,4.82,0,0,0-.52.11A4.57,4.57,0,0,0,365.87,119Z"/><path class="cls-3" d="M402.45,386.45l3,35.28c0,.41,2.68.18,2.62-.22l-3-35.31C405.06,385.88,402.42,386.13,402.45,386.45Z"/><path class="cls-3" d="M419.6,420.54c-.56-11.92-1.41-24-4.43-35.73-.09-.41-2.67.27-2.56.66,2.95,11.42,3.81,23.31,4.36,35.19C417,421,419.62,420.87,419.6,420.54Z"/><path class="cls-1" d="M389.36,238.64c-.13,0,.12,0,.61,0l.69.06.34,0,.36.09c.08,0,.1,0,.1,0a.11.11,0,0,0,0,.08h-.07c-.15,0-.16,0-.12.05l.06,0c.12,0,.11.07,0,.07h-.72l-.23,0-.41-.05-.35,0-.13,0-.57-.12-.21-.08h.06l-.16-.06s-.06,0,.12,0c0,0,0,0,0,0s0,0,.07,0,0,0,0,0H389s.07,0,0,0a1,1,0,0,1,.17,0Z"/><path class="cls-1" d="M410.57,319.79a34.13,34.13,0,0,1,.49-8.45c.15-.78.62-.65.7.28.15,1.82.29,3.66.4,5.52,0,.57.2,5.36.47,10.76s.73,11.42,1,14.46q.74,8.85,1.74,17.69.64,5.7,1.47,11.37c.28,1.89.57,3.78.89,5.66l.48,2.83.26,1.4.42,2.18-1,.76-1,.77a4.7,4.7,0,0,1-.63.22l-.4.05-.68.08-1.37.18c-.91.14-1.83.28-2.74.44-1.82.31-3.64.67-5.43,1.09-1.29.29-2.56.63-3.82,1-.62.2-1.25.36-1.85.58l-.46.16-.23.08c-.13.05-.32.11-.47.18l-1.81.73-.77.32a.7.7,0,0,1-.19.06l0-.21-.05-.42-.2-1.67-.27-2.32-.33-3.45c-.21-2.31-.38-4.6-.57-6.9q-.51-6.88-1-13.79c-.1-1.53-.19-3.09-.36-4.57-.13-1.21-.58-8.06-1-15s-.72-14-.77-15.61q-.39-12-.77-24.1c0-1.15-.11-2.37-.07-3.42.1-2.43,0-4.9-.12-7.39-.11-3.44-.22-6.89-.27-10.33,0-1.71,0-3.39.05-5.07,0-1.52.35-.7.41-.17.14,1.55.24.28.36.13s.09-.11.12,0,0,.35.08.91.1,1.36.16,2.31c.12,1.91.29,4.46.46,7.08.33,5.23.69,10.7.73,11.79,0,.26.38,7.61.76,15.3s.87,15.73,1,17.37.15,3.44.21,5.15c0,.82,1.5,23.88,1.61,24.8.28,4.77.71,9.55.91,14.31,0,.93.14,1.9.22,2.85q.27,3.07.59,6.12c.05.51.1,1,.17,1.53l.12,1s0,.14,0,.11l.17-.06a69.67,69.67,0,0,1,12.21-3c.94-.16,1.88-.31,2.83-.44l1.43-.19,1.08-.13h.14c.07,0,0-.09,0-.12l-.34-1.82-.44-2.48L415,376c-.13-.95-.27-1.9-.4-2.85-1.5-9.88-2.46-19.83-3.28-29.79-.26-2.29-.62-13.26-.73-15.9C410.46,326,410.67,321.1,410.57,319.79Z"/><path class="cls-1" d="M418,459.88c0-11.13,2.15-38,1.3-39-4.59,2.47-10.95,1.86-13.52,1.08,1.61,18.63,4.09,37.6,3.61,39.22-1,3.23-25.84,18.53-15.83,16.8,14.7-2.54,21.32-11.9,21.32-11.9l-.15,6.84,4-.71Z"/><path class="cls-1" d="M418.9,452.68a25.78,25.78,0,0,1-.76,6.79c-.16.62-.63.52-.7-.24-.12-1.48-.21-3-.25-4.5,0-.46.05-4.35.2-8.73s.33-9.26.42-11.73q.12-3.47.23-6.91c0-1.15.07-2.3.08-3.43v-1s0,0,0,0h0a19.14,19.14,0,0,1-2.39.67,21,21,0,0,1-3.42.42,26,26,0,0,1-3.42-.08l-.85-.1-.66-.09h0l.59,6.2.82,8.13c.23,2.15.43,4.31.62,6.47l1,11.11.22,2.81.07,1.44v.76c0,.12,0,.35,0,.52a2.13,2.13,0,0,1-.14.58,4,4,0,0,1-.54.88c-.18.23-.36.42-.53.61-.35.37-.71.71-1.07,1-.71.65-1.44,1.26-2.16,1.85-1,.8-2,1.57-2.89,2.37-.37.32-1.66,1.34-3.39,2.69s-3.94,3.07-5.9,4.9l-.47.47s0,0,0,0h0l.29-.06,1.57-.32c1-.2,2-.53,2.72-.71s1.28-.43,1.59-.52a34.76,34.76,0,0,0,7.71-3.68,30.68,30.68,0,0,0,3.44-2.56c.27-.23.54-.46.8-.71a14.65,14.65,0,0,0,1.38-1.43l.7-.79c.23-.28.49-.63.73-.94l1.47-1.93,0,.27a1.86,1.86,0,0,1,0,.26l0,.76-.05,1.49-.06,2.43c0,.4,0,.79-.05,1.18l0,.55,0,.32c0,.23-.05.46-.08.68l0,.35,0,.14a6.12,6.12,0,0,0-.06.63l.7-.11,1.31-.22.38-.07-.27-6.86c0-1.37,0-2.73,0-4.09s.34-.58.4-.15c.16,1.24.24.22.36.1s.09-.1.13,0,.06.43.12,1.13.16,1.66.27,2.78.22,2.41.34,3.73l.18,2c.08.94.15,1.88.22,2.79l-6,1.19c0-1.71,0-2.95,0-3.45,0,0,0-.27,0-.95V469l-.05.06c-.07.09-.16.21-.27.33l-.17.19-.41.4-.56.51a35.91,35.91,0,0,1-5.59,4.05,39.83,39.83,0,0,1-9.68,4c-.67.21-1.48.32-2.22.47l-1.13.21c-.24,0-.62.08-.92.1a6.46,6.46,0,0,1-.89,0,2.62,2.62,0,0,1-1.32-.51,1.63,1.63,0,0,1-.56-1.23,3,3,0,0,1,.71-1.77,8,8,0,0,1,.84-1c.12-.12.23-.25.36-.37l.29-.29c.4-.38.82-.77,1.26-1.15.87-.77,1.82-1.56,2.77-2.32l7.89-6.26c.75-.59,1.48-1.19,2.18-1.81.35-.31.69-.62,1-.93a7.18,7.18,0,0,0,.76-.87l0-.06s0,0,0-.07a2.79,2.79,0,0,0,0-.5c0-.41,0-.91,0-1.37-.05-.95-.09-1.9-.14-2.85,0-.76-.11-1.54-.19-2.3-.69-6.6-1.36-13.23-2-19.85l-1-10.45c-.09-1-.17-2-.22-3l.36.11c.69.18,1.46.43,2.14.57l.51.11.26.05.14,0,.54.08a23.1,23.1,0,0,0,5.19,0,19.28,19.28,0,0,0,2.52-.46c.2-.05.4-.13.6-.19a4.53,4.53,0,0,0,.78-.28l1.09-.47,1.12-.54a2.31,2.31,0,0,1,.27.4c.1.2.15.35.23.52l.21.54a4.44,4.44,0,0,1,.1.68,11.25,11.25,0,0,1,.06,1.4v.85c0,1.12-.05,2.22-.08,3.33l-.26,6.61c-.08,1.86-.77,10.68-.84,12.81C419.38,447.73,418.88,451.62,418.9,452.68Z"/><path class="cls-3" d="M421.56,384.87l3.76,36c0,.42,2.68.14,2.62-.27l-3.76-36C424.16,384.24,421.52,384.54,421.56,384.87Z"/><path class="cls-3" d="M439.49,420.26c-.7-12.3-1.9-24.72-5.09-36.77-.09-.42-2.67.27-2.55.67,3.13,11.78,4.32,24,5,36.25C436.87,420.75,439.52,420.6,439.49,420.26Z"/><path class="cls-1" d="M437.55,277.43a15.16,15.16,0,0,1,.58-5.54c.15-.51.62-.43.69.19.13,1.19.26,2.4.36,3.62,0,.75.38,12.58.57,16.6s.27,7.78.37,11.67q.35,11.88.89,23.74c.08,1.75.15,3.51.2,5.27.14,6,.53,12,1,18,.08,1,.16,2,.32,3,.06.4.2,1.71.36,3.49s.44,4,.68,6.27.59,4.5.82,6.33.52,3.19.6,3.71.24,1.26.36,1.89l.52,2.46.08.45c0,.13.15.33-.06.38l-.77.48-.78.43-.51.26c-.62.3-1.25.58-1.88.83a45.67,45.67,0,0,1-7.75,2.33,19,19,0,0,1-2.24.41c-1.63.1-3.24.39-4.88.56a62.49,62.49,0,0,1-6.83.35c-1.13,0-2.24-.15-3.34-.23s-.45-.38-.1-.41c1-.09.19-.23.1-.36s-.07-.09,0-.13l.59,0,1.51-.07c1.24-.05,2.91-.2,4.6-.36,3.39-.32,6.85-1.09,7.54-1.2.08,0,1.29-.25,3.06-.69a43.24,43.24,0,0,0,6.34-2.1c.57-.24,1.13-.49,1.67-.76l.8-.41.12-.06,0,0,.07,0s0-.07,0-.1v0l-.1-.42-.41-1.64c-.46-2.08-.69-3.67-.81-4.2-.23-1.12-.31-2.26-.44-3.39,0-.13-.16-1.18-.37-2.68s-.41-3.47-.65-5.43c-.43-3.93-.77-7.87-.81-8.17-.2-3.14-.53-6.29-.54-9.43,0-.62-.05-1.26-.09-1.88-.37-5.41-.57-10.81-.76-16.21l-.33-8.29c0-.49,0-1,0-1.49s0-1.26,0-1.88q-.27-9.81-.53-19.62c-.06-1.51,0-8.7,0-10.43C437.32,281.47,437.61,278.29,437.55,277.43Z"/><path class="cls-1" d="M438.26,469.84c-2.82.25-3.18,1.82-2.94-7.55,0,0-7,7.49-21.13,12.23-5.95,2-4.31-.49-.34-4.27-.08,3.66,1.18,2.54,3.32,2.38,1.58-.12,1.61-3.25,1.27-6.53,5.15-4.49,10.9-9.25,11.31-10.67.45-1.58-2.23-17.2-4.07-34.87,2.89,1.7,10.69,2.44,13.53-1,.78.51-1.07,23.32-.87,34.44C438.38,456.1,441.32,469.55,438.26,469.84Z"/><path class="cls-1" d="M436,464.8c0,1.42,0,2.65.06,3.92a2.19,2.19,0,0,0,0,.51.56.56,0,0,0,.34.39,8.55,8.55,0,0,0,1.38.14c.67.08.58.55-.13.72a6.53,6.53,0,0,1-1.36.25A1.43,1.43,0,0,1,435,470a3,3,0,0,1-.31-.81,5.78,5.78,0,0,1-.14-.67c-.07-.41-.12-.82-.15-1.22,0-.14,0-.57-.05-1.39,0-.2,0-.44,0-.74a2.81,2.81,0,0,1,0-.3v-.25s0,0,0,0l0,0-.35.37-.19.19-.08.09-.4.33c-1.1.91-2.35,1.87-3.66,2.77a61.07,61.07,0,0,1-7.07,4.17,57,57,0,0,1-7,3c-.59.22-1.19.44-1.83.63a8.29,8.29,0,0,1-3.08.45,2.08,2.08,0,0,1-1.15-.52,1.77,1.77,0,0,1-.56-1.15,2.75,2.75,0,0,1,.29-1.33,8.34,8.34,0,0,1,1-1.45l.5-.59.5-.53c.44-.48.91-1,1.38-1.4l2.66-2.55v3.38c0,.26,0,.57,0,.8l.05.34,0,.17v0h0l-.15.08h0l0,0c-.13.07-.25.22-.24.19a.32.32,0,0,0,.05-.14,1.27,1.27,0,0,0,.07-.32c0-.08,0-.08,0-.07h.15l.48-.07c.36-.06.9-.16,1.27-.19l0,0a2.83,2.83,0,0,0,.21-.81,12.36,12.36,0,0,0,.06-2.38l0-.64-.07-.79L417,466c0-.21-.13-.48.12-.59l1-.84,2-1.75,4-3.5c1.3-1.17,2.64-2.36,3.73-3.56.32-.37.63-.8.53-.73s0-.33,0-.55,0-.52,0-.78c-.08-1.07-.19-2.18-.3-3.28-.82-7.6-1.9-15.24-2.83-22.88-.15-1.27-.29-2.58-.5-3.8,0-.1,0-.24-.06-.43s-.08-.64-.13-1.06c-.11-1-.26-2.36-.45-4l2.5,1.26,1.27.49.3.11.15,0,.33.08a16.56,16.56,0,0,0,2.88.39,14.74,14.74,0,0,0,3.11-.19,8.46,8.46,0,0,0,1.46-.39l.34-.13.17-.06.31-.21.63-.41.31-.21.38-.32L439,418l.38-.33c.07,0,.08.08.13.11l.49.65a6.21,6.21,0,0,1,.52.78l.13.23,0,.35c0,.24.06.47.08.7l0,1.5c0,.3,0,.58,0,.87,0,.48,0,.94,0,1.37-.06,1.73-.13,3-.16,3.56-.43,6.7-.9,13.4-1.18,20.08,0,.95,0,2-.13,2.84a27.88,27.88,0,0,0-.15,3,23.59,23.59,0,0,0,.33,3,63.8,63.8,0,0,1,.83,8.67,12.62,12.62,0,0,1-.17,2.2,4,4,0,0,1-.93,2.16,1,1,0,0,1-.75.33c-.14,0-.16-.05-.13-.1a.76.76,0,0,1,.23-.18l.27-.23c.4-.51.28-.63.2-.54s-.29.23-.37.2-.11,0-.11-.08a1.31,1.31,0,0,0,.24-.48A6,6,0,0,0,439,467a35.47,35.47,0,0,0-.52-5.77c-.32-2.14-.76-4.31-1.05-6.14,0-.24-.07-.47-.1-.7s0-.48,0-.67c0-.4,0-.76,0-1.07,0-.63,0-1.09,0-1.32s0-1.71.05-4.09.14-5.53.27-8.75c.25-6.44.52-13.15.51-14.5l0-1.06,0-.53v-.17a.72.72,0,0,0,0-.27s-.06.07-.15.13l-.3.16-.95.38c-.35.11-.72.21-1.1.31s-.78.17-1.18.22a18.72,18.72,0,0,1-5,0c-.4-.05-.8-.14-1.19-.2l-.94-.22-.09,0v.06h0l0,.25c.09.77.17,1.41.23,1.93.12,1,.19,1.6.2,1.72.45,4,1,7.93,1.38,11.89.06.78.18,1.59.29,2.38.47,3.41.94,6.81,1.32,10.25.1.87.19,1.73.24,2.63,0,.22,0,.45,0,.7V455l0,.27a3.64,3.64,0,0,1-.1.54,3.38,3.38,0,0,1-.25.54,6.47,6.47,0,0,1-.48.67,39.43,39.43,0,0,1-3.83,3.74l-4,3.48-2,1.73-.67.58s0,.06,0,.09l0,.44c0,.66.05,1.32,0,2a10,10,0,0,1-.38,2.71,3.58,3.58,0,0,1-.25.59,3.33,3.33,0,0,1-.46.67,2.4,2.4,0,0,1-1.45.68c-.44,0-.73.1-1.17.17a3.84,3.84,0,0,1-1.73,0,2,2,0,0,1-1.1-.83l-.07-.11v0l0-.06a1,1,0,0,1,0-.24c-.08-.12-.34.25-.84.79a1.37,1.37,0,0,0-.13.2c0,.06,0,.18,0,.2a1,1,0,0,0,.51-.05l.38-.11.52-.16,1-.37c.7-.26,1.41-.49,2.1-.78l2.07-.85,2-.94c.84-.42,3.32-1.54,5.69-2.95a46.47,46.47,0,0,0,5.45-3.72l.58-.46c.32-.26.69-.59,1.08-.92.77-.65,1.7-1.59,2.5-2.34a2,2,0,0,1,0,.65l0,.75c0,.47-.05.92-.07,1.33C436,463.76,436,464.4,436,464.8Z"/><path class="cls-1" d="M368.64,136.14c-4.19,2.79-9.87,2.39-14.1,0-1.13-.64-4.76,1.14-4.08,1.52,6.48,3.63,15.37,2.8,21.54-1.31,1.83-1.22-2.5-.81-3.36-.24Z"/><path class="cls-1" d="M113.05,141.07a2.22,2.22,0,0,1-.45,0c-.14,0-.31,0-.48.1s-.2.15-.34.18a4.81,4.81,0,0,0-1.52.95,4.57,4.57,0,0,0-.54.69,11.32,11.32,0,0,1-.74,1c-.1.1,0,.1-.06,0s-.2-.35-.27-.62a2.73,2.73,0,0,1,.48-2.7,10.13,10.13,0,0,1,1.22-1.35,3.24,3.24,0,0,1,.94-.49,3.16,3.16,0,0,1,1-.21,4.42,4.42,0,0,1,2.08.38,5.77,5.77,0,0,1,.75.36c.19.1.38.18.56.26a3,3,0,0,1,.48.39l.19.19a3,3,0,0,1,.3.47l0,0a1,1,0,0,0-.39,0c-.79,0-1.63.27-2.2.29a39.33,39.33,0,0,0-1.07.17Z"/><path class="cls-1" d="M128.51,135a2.37,2.37,0,0,1-.47,0c-.15.05-.32.06-.49.1s-.21.15-.35.18a4.5,4.5,0,0,0-1.54.81,3.82,3.82,0,0,0-.57.63,7.54,7.54,0,0,1-.78.87c-.09.1,0,.1,0,0s-.19-.35-.24-.62a2.58,2.58,0,0,1,.59-2.58,10.27,10.27,0,0,1,1.23-1.24,3.33,3.33,0,0,1,.91-.44,3.28,3.28,0,0,1,1-.19,4.63,4.63,0,0,1,1.18,0,3.6,3.6,0,0,1,.81.23,4.17,4.17,0,0,1,.75.29c.19.09.38.15.56.22a2.32,2.32,0,0,1,.49.35l.19.17a2.07,2.07,0,0,1,.31.44l0,0a1.76,1.76,0,0,0-.38,0,5.65,5.65,0,0,0-1.14.24,7.89,7.89,0,0,1-1,.24,2.79,2.79,0,0,1-.58.13,1.65,1.65,0,0,1-.48.1Z"/><path class="cls-1" d="M124.56,144.29a5,5,0,0,0,.13-1.33,1.47,1.47,0,0,0-.12-.28c0-.14,0-.26-.26-.35a1.65,1.65,0,0,0-1,0,3.73,3.73,0,0,0-.93.43l-1.21.72c-.14.07-.09.09,0,0s.06-.42.18-.7a3.15,3.15,0,0,1,2.48-2.16,3.06,3.06,0,0,1,1.38.13,2.24,2.24,0,0,1,1.12.89,3.47,3.47,0,0,1,.32,2.47,8.2,8.2,0,0,1-.35,1.25c-.21.6-.49,1.16-.7,1.72a13.07,13.07,0,0,1-.5,1.28c0,.09-.09.19-.13.27-.17.34-.28.45-.31.53a.11.11,0,0,0,0,.05s0-.11-.1-.42c-.08-.51-.14-1-.21-1.39a8.72,8.72,0,0,1,0-1.35c0-.64.12-1.24.17-1.78Z"/><path class="cls-1" d="M104.27,138.76c0,.25-.31.26-.81.13-.16,0-.56-.31-.57-.4a2.31,2.31,0,0,1-.07-.51,11.39,11.39,0,0,1,.83-1.71,4.05,4.05,0,0,1,.88-1.07,8.51,8.51,0,0,1,2.46-1.63,2.36,2.36,0,0,1,.63-.17c.75-.1,1.43-.22,2.11-.37a.65.65,0,0,0,.33-.11,7.05,7.05,0,0,1,2.25-.18l1.71.39c.08,0,.17,0,.24.08s.33.18.51.21a3.6,3.6,0,0,1,.7.18,1.14,1.14,0,0,1,.34.26c.09.09,0,.38,0,.41s0,.23,0,.35a.53.53,0,0,1,0,.13,8.46,8.46,0,0,1-1.54.48l-1,0c-.51,0-1,.09-1.14.11a1,1,0,0,1-.34,0,15.68,15.68,0,0,0-1.55.28,1.83,1.83,0,0,1-.87,0,.28.28,0,0,0-.18,0c-.47.14-.93.24-1.37.41a3.5,3.5,0,0,0-.63.35.69.69,0,0,1-.13.05.41.41,0,0,0-.15.07,4.85,4.85,0,0,0-1.29,1.23c-.08.11-.68.52-.75.69S104.28,138.65,104.27,138.76Z"/><path class="cls-1" d="M132.81,127.59c.25-.06.32.23.27.73a1.51,1.51,0,0,1-.28.64,4.1,4.1,0,0,1-.42.21c-.08,0-1.07-.11-1.41-.06a9,9,0,0,1-.92-.07,7,7,0,0,0-1.83,0,1.14,1.14,0,0,1-.41,0,2.56,2.56,0,0,0-1.39.23c-.07,0-.15,0-.19.14a9.12,9.12,0,0,1-1.38.77,5.73,5.73,0,0,0-1.22.48c-.06,0-.09.09-.19.06s-.31.06-.42.14a3.49,3.49,0,0,1-.49.33,1.58,1.58,0,0,1-.37.06c-.12,0-.31-.23-.31-.27s-.16-.17-.25-.25a.44.44,0,0,1-.1-.08,4.18,4.18,0,0,1,.57-1.41l.23-.23c.13-.13.31-.31.5-.48.37-.35.82-.66.9-.74a1,1,0,0,1,.33-.13,13.07,13.07,0,0,1,1.47-.84c.32-.08.61-.28,1-.18a.44.44,0,0,0,.2,0,5.53,5.53,0,0,1,1.67-.18l.85,0a.83.83,0,0,1,.15,0,.65.65,0,0,0,.19,0c.66,0,1.31.19,2,.28.15,0,.79.39.95.44S132.72,127.61,132.81,127.59Z"/><path class="cls-1" d="M128.34,157.87A3.1,3.1,0,0,1,125.8,159a3.76,3.76,0,0,1-.9-.12,3.86,3.86,0,0,1-2.14-2c-.17-.35-.34-.68-.47-1a5.22,5.22,0,0,1-.34-1.36c0-.15,0-.11,0,0s.35.2.57.37a11.22,11.22,0,0,1,1.87,1.66,1.58,1.58,0,0,0,1,.42,1.77,1.77,0,0,0,.54,0,1,1,0,0,0,.51-.18,2.8,2.8,0,0,0,.65-.64,4.66,4.66,0,0,0,.73-1.42c.12-.41.18-.82.3-1.23,0-.1,0-.19.07-.28.09-.35.17-.48.18-.56s0,0,0,0a1.47,1.47,0,0,0,.18.38,11.46,11.46,0,0,1,.48,1.3,4.61,4.61,0,0,1,.09,1.44,4.33,4.33,0,0,1-.84,2.17Z"/><path class="cls-1" d="M261.54,156.63c-.05,1.81.25,5.27-1.34,6.42-2,1.44-4.48-4.05-4.31-5.58Z"/><path class="cls-1" d="M133.53,54.62a7.9,7.9,0,0,0,5.1.23c.46-.15,1.4-.52,1.24-1.17s-1.24-.53-1.65-.39a4.26,4.26,0,0,1-2.4-.13,2.35,2.35,0,0,0-2.06.25c-.35.24-.9,1-.23,1.21Z"/><path class="cls-1" d="M132.54,58.88a15,15,0,0,0,1.59.7,6.33,6.33,0,0,0,3.31-.24c.7-.2,2.11-.83,1.85-1.79s-1.83-.82-2.5-.62c0,0-.57.16-.57.15l.27-.06c-.19,0-.18,0,0,0h0l.29,0c-.37-.07.09,0,.07,0a6.86,6.86,0,0,0-.94-.47,3.4,3.4,0,0,0-3.09.37c-.52.36-1.37,1.46-.34,1.86Z"/><path class="cls-1" d="M252.69,145.64a3.55,3.55,0,0,1-.07-1.42A4.72,4.72,0,0,1,253,143a5.39,5.39,0,0,1,.38-.76,11.31,11.31,0,0,1,2-2l.88-.75a6.49,6.49,0,0,1,1.25-.8c.15-.06.1-.08,0,0s-.1.41-.21.69a7.05,7.05,0,0,1-1.4,2.52,4.92,4.92,0,0,0-.8,1.4,3.57,3.57,0,0,0-.48,1.42,3.25,3.25,0,0,0,.15,1,5.74,5.74,0,0,0,.75,1.56c.26.37.57.69.84,1.06l.19.24c.24.29.3.44.36.5l0,0a2.63,2.63,0,0,0-.43-.09,11.53,11.53,0,0,1-1.38-.49,5,5,0,0,1-2.5-2.93Z"/><path class="cls-1" d="M249.12,127.9c0,.21-.29.09-.71-.19a1.63,1.63,0,0,1-.45-.53,2.37,2.37,0,0,1,0-.47,7.09,7.09,0,0,1,1.09-1.17,3.36,3.36,0,0,1,1-.56,9.42,9.42,0,0,1,2.2-.59,2.18,2.18,0,0,1,.51,0,9.6,9.6,0,0,0,1.68.14.42.42,0,0,0,.29,0,4.14,4.14,0,0,1,1.82.31c.42.27.85.5,1.23.79.06,0,.13,0,.15.14s.19.26.32.33a2.67,2.67,0,0,1,.46.37.78.78,0,0,1,.15.33c0,.11-.15.35-.19.37s-.12.19-.18.31a.6.6,0,0,1-.06.11,7.38,7.38,0,0,1-1.26.05,7.82,7.82,0,0,0-1.55-.32c-.08,0-.15-.07-.22-.12a9,9,0,0,0-1.16,0c-.22-.06-.44,0-.65-.15a.17.17,0,0,0-.13,0c-.38,0-.75,0-1.14,0a5.66,5.66,0,0,0-.56.13s-.07,0-.11,0a.57.57,0,0,0-.13,0,3.89,3.89,0,0,0-1.26.53c-.07.06-.62.13-.7.24S249.14,127.81,249.12,127.9Z"/><path class="cls-1" d="M264.36,128.08c0,.19-.25,0-.63-.28a1.75,1.75,0,0,1-.42-.55,2.11,2.11,0,0,1,0-.44,5.18,5.18,0,0,1,.95-1,2.38,2.38,0,0,1,.85-.44A8.17,8.17,0,0,1,267,125a1,1,0,0,1,.42,0,6.17,6.17,0,0,0,1.39.18.29.29,0,0,0,.24,0,3.18,3.18,0,0,1,1.51.26c.35.26.69.47,1,.72,0,0,.11,0,.12.13s.14.25.25.32a1.44,1.44,0,0,1,.38.32.93.93,0,0,1,.09.32c0,.1-.16.34-.2.36s-.12.19-.18.3a1.34,1.34,0,0,1-.06.12,6.14,6.14,0,0,1-1.06.12,6.2,6.2,0,0,0-1.26-.22c-.07,0-.12-.06-.17-.1a7.53,7.53,0,0,0-1,0c-.18,0-.35,0-.52-.16s-.07,0-.11,0a7,7,0,0,1-.91,0,3.25,3.25,0,0,0-.45.08l-.09,0s-.08,0-.11,0a2.71,2.71,0,0,0-1,.36c-.07,0-.51,0-.58.12S264.37,128,264.36,128.08Z"/><path class="cls-4" d="M406.31,147.8s2.95-5,8.56.58"/><path class="cls-1" d="M411.21,147.35a2.45,2.45,0,0,0-1.07-.72l-.45-.09a3,3,0,0,0-1.73.12,2.79,2.79,0,0,0-.71.41c-.28.22-.55.46-.83.71-.08.08-.11.05-.11-.07a1.61,1.61,0,0,1,.12-.56,3.38,3.38,0,0,1,1.84-1.7,7,7,0,0,1,1.59-.38,5.43,5.43,0,0,1,1.75.27,4,4,0,0,1,1,.42,5.79,5.79,0,0,1,.65.45c.18.18.37.36.56.52a3.71,3.71,0,0,1,.82.81.69.69,0,0,1,.14.22,1.17,1.17,0,0,1,.11.56v.06c0,.05-.14,0-.42,0s-.81-.07-1.19-.1a3.54,3.54,0,0,1-1-.2,2.58,2.58,0,0,1-.58-.27c-.17-.12-.33-.28-.49-.4Z"/><path class="cls-4" d="M428.2,151.77s-1.23-5.64-8.3-2.17"/><path class="cls-1" d="M423.55,147.21a11.85,11.85,0,0,1,1.8.59c.2.11.42.15.62.27a5,5,0,0,1,1.54,1.66,7.19,7.19,0,0,1,.45.81,3.17,3.17,0,0,1,.31,1.13c0,.12,0,.11-.13,0a2.52,2.52,0,0,1-.39-.37,11.25,11.25,0,0,0-1.43-1.48,2.58,2.58,0,0,0-1.07-.47,3.94,3.94,0,0,0-1.29-.16,8.15,8.15,0,0,0-.84.07c-.22,0-.44,0-.66,0a4.93,4.93,0,0,0-.67.11c-.35.06-.67.21-1,.28a.69.69,0,0,1-.25,0,1.38,1.38,0,0,1-.56-.13l-.06,0s0-.13.17-.38a8.22,8.22,0,0,1,.69-1.08,3.71,3.71,0,0,1,1-.75,2,2,0,0,1,.87-.26,2.78,2.78,0,0,1,.95,0Z"/><path class="cls-4" d="M412.48,151.13c-.25.34-4.37,3.63-4.37,3.63l2.67,3.39"/><path class="cls-1" d="M407,155l-.18-.57,0-.07.07-.05.14-.11.28-.21.56-.42.28-.19.19-.12c.16-.09.28-.23.45-.32.6-.3,1.25-.53,1.85-.82.28-.13.52-.29.78-.43a5.88,5.88,0,0,1,1-.47c.12,0,.07-.07,0,0s-.05.35-.14.58a3.38,3.38,0,0,1-1.39,1.92,12.75,12.75,0,0,0-1.07.9,2.6,2.6,0,0,1-.51.33c-.08,0-.27.09-.28.17s0,.25.21.33l.18.1a2,2,0,0,1,.17.3c.11.21.24.42.36.62a5.66,5.66,0,0,1,.58.94c0,.08.07.15.1.23a3.22,3.22,0,0,1,.12.49.05.05,0,0,0,0,0,1.72,1.72,0,0,0-.32-.15c-.32-.16-.69-.3-1-.44a6.18,6.18,0,0,1-.94-.57,3.42,3.42,0,0,1-.82-.77,4.8,4.8,0,0,1-.54-.67l-.22-.61Z"/><path class="cls-4" d="M411.86,166.29c1.32,1.88,6.19,4.8,7.57-2.61"/><path class="cls-1" d="M418.62,168.5a3.77,3.77,0,0,1-2.16,1,4.84,4.84,0,0,1-.85,0,4.63,4.63,0,0,1-2.32-1.26,10.51,10.51,0,0,1-.75-.74,2.84,2.84,0,0,1-.65-1.16c0-.13-.06-.09,0,0a3.48,3.48,0,0,0,.6.18,9.17,9.17,0,0,1,2.15.79,1.91,1.91,0,0,0,1.13.17,2.18,2.18,0,0,0,1.14-.27l.36-.21.32-.31a3.1,3.1,0,0,0,.47-.55,3,3,0,0,0,.4-.64c.15-.35.31-.73.47-1.09,0-.08.07-.16.12-.24a3.73,3.73,0,0,1,.32-.46s0,0,0,0,0,.1.07.37.2.82.25,1.26a4.29,4.29,0,0,1-.09,1.33,3.93,3.93,0,0,1-1,1.9Z"/><path class="cls-1" d="M405.37,142.16c0,.21-.26.15-.76,0-.15,0-.56-.29-.57-.38a1.71,1.71,0,0,1-.06-.5,4.94,4.94,0,0,1,1.07-1.51,3.11,3.11,0,0,1,1-.71,9.73,9.73,0,0,1,2.33-.75,1.87,1.87,0,0,1,.53,0,11.88,11.88,0,0,0,1.79,0,.48.48,0,0,0,.3-.07,3,3,0,0,1,1,0,5.1,5.1,0,0,1,1,.19,14.11,14.11,0,0,1,1.47.82c.07,0,.16.07.19.18.06.26.22.28.37.41a2,2,0,0,1,.51.59,1.09,1.09,0,0,1,.05.44c0,.13-.3.23-.34.22s-.21.12-.31.19l-.11.07c-.05,0-.25-.06-.51-.08s-.5,0-.55,0l-.19-.08-.48-.1a4.35,4.35,0,0,0-.86-.08.63.63,0,0,1-.25-.09,7.82,7.82,0,0,0-1.27.06,1.38,1.38,0,0,1-.74-.09.17.17,0,0,0-.14,0c-.43.06-.85.07-1.27.11-.21,0-.41.11-.62.16,0,0-.08,0-.11,0a.37.37,0,0,0-.15,0c-.23.09-.47.16-.69.26a1.5,1.5,0,0,0-.59.38c-.09.06-.6.21-.66.33S405.36,142.07,405.37,142.16Z"/><path class="cls-1" d="M433.44,145.12c.24.1.12.41-.22.78a1.65,1.65,0,0,1-.61.34,4.17,4.17,0,0,1-.46-.09,13,13,0,0,0-1.13-.87,6.16,6.16,0,0,1-.75-.57,6,6,0,0,0-1.58-1,2.12,2.12,0,0,1-.35-.23A2.56,2.56,0,0,0,427,143c-.08,0-.16,0-.25,0a14.76,14.76,0,0,1-1.63,0c-.22,0-.45-.1-.68-.13l-.69,0c-.07,0-.13,0-.21,0s-.31-.1-.45-.08a2.56,2.56,0,0,1-.62.05,1,1,0,0,1-.36-.14c-.11,0-.16-.35-.14-.39s-.05-.22-.1-.34l0-.12a5.24,5.24,0,0,1,1.25-.94l1-.27,1.19-.23a.92.92,0,0,1,.36.05s.44,0,.87-.05l.89,0a1.91,1.91,0,0,1,1,.33.48.48,0,0,0,.2.07,8.22,8.22,0,0,1,.83.3l.77.43c.25.16.52.29.77.44.05,0,.08.09.12.13a.47.47,0,0,0,.14.14,15.73,15.73,0,0,1,1.58,1.36c.14.1.46.81.58.94S433.34,145.08,433.44,145.12Z"/><path class="cls-1" d="M371.28,215.55a16.26,16.26,0,0,0,11.77,1.4c1.72-.42,1.4-1.66-.34-1.24a12.66,12.66,0,0,1-9.1-1.46c-.73-.39-3.41.72-2.33,1.3Z"/><path class="cls-5" d="M248.9,365.63c5.12,0,11.29,1.4,16.31.52"/><path class="cls-5" d="M273.72,365c3.83,0,12.4-2.51,14.55-3.38"/><path class="cls-1" d="M130,207.34c0,1.47-.86,2.12-2.33,2.12s-2-.63-2-2.11.21-2.68,1.68-2.68A2.68,2.68,0,0,1,130,207.34Z"/><path class="cls-1" d="M130.67,214.82c0,1.47-.85,2.12-2.33,2.12s-2-.63-2-2.1.2-2.69,1.68-2.69A2.67,2.67,0,0,1,130.67,214.82Z"/><path class="cls-1" d="M130.94,222.5c0,1.47-.86,2.12-2.33,2.12s-2-.63-2-2.11.21-2.68,1.68-2.68A2.67,2.67,0,0,1,130.94,222.5Z"/><path class="cls-1" d="M392.39,272.89a1.22,1.22,0,0,1-.84-1.18c0-.19.23-.59.39-.58a8.66,8.66,0,0,1,.91.13c.17.06,2.68,1.2,3.55,1.44.41.15.83.27,1.24.42s.81.29,1.22.4a16.71,16.71,0,0,0,5.12.7,11.41,11.41,0,0,1,1.17,0,13.81,13.81,0,0,0,2-.1c.68-.09,1.36-.24,2-.39a2.14,2.14,0,0,0,.66-.22c.34-.17,4-1.15,4.47-1.29,1.22-.23,2.42-.53,3.63-.83a1.18,1.18,0,0,1,.52-.1,2.38,2.38,0,0,0,1.13-.21c.51-.16,1-.31,1.55-.43a3.64,3.64,0,0,1,.81,0c.25,0,.23.31.17.37s0,.24.1.34a.38.38,0,0,1,.05.12,28.23,28.23,0,0,1-3.05,1.71L417,274l-2.57.94a4.23,4.23,0,0,1-.8.18l-1.86.6-1.91.54a9.87,9.87,0,0,1-2.29.31,2.49,2.49,0,0,0-.47,0,13.29,13.29,0,0,1-2,.2,15.16,15.16,0,0,1-2,0,20.57,20.57,0,0,1-2.08-.16,2.21,2.21,0,0,1-.37-.08,3.47,3.47,0,0,0-.46-.13,25.25,25.25,0,0,1-4.66-1.46c-.17-.07-.64-.34-1.1-.61s-.91-.58-1.11-.66S392.58,273,392.39,272.89Z"/><path class="cls-1" d="M411.36,179.27s6.19,1.76,10.56.63"/><path class="cls-1" d="M417.76,181.26c-.57-.07-1.12-.17-1.68-.28-.2,0-.4,0-.6-.07-.71-.16-1.4-.38-2.08-.58a7.62,7.62,0,0,0-.93-.18,2.26,2.26,0,0,1-1.18-.3c-.21-.17.51-1.57.92-1.49a9.5,9.5,0,0,1,2.25.72,5.78,5.78,0,0,0,1.43.3c.52.09,1.05.19,1.58.26l1,.11a8.23,8.23,0,0,0,1.49,0,5,5,0,0,0,1.08-.34,1.47,1.47,0,0,1,.22-.1c.29-.09.4,0,.57.4,0,.09.09.18.12.27a.6.6,0,0,1-.18.75,4.37,4.37,0,0,1-2.25.63,12.55,12.55,0,0,1-1.74,0Z"/><path class="cls-1" d="M436.83,244.51c-6.7-4.79-16.43-8.32-23.33-10.42-.21-3.35,2.88-28.52,13.93-39.93C423.77,212.93,436.83,244.51,436.83,244.51Z"/><path class="cls-1" d="M425.55,199l.12-.57c0-.1,0,0-.05,0l-.1.08a2.73,2.73,0,0,0-.22.24l-.05.06,0,0-.14.19c-.21.3-.44.6-.62.92l-1.15,1.92c-.41.63-.7,1.32-1.06,2s-.69,1.33-1,2c-.91,2-1.65,4.07-2.37,6.16a92.36,92.36,0,0,0-3.11,11.26c-.4,1.92-.77,3.84-1,5.77-.15,1-.26,1.93-.36,2.89l-.09,1.19c0,.11,0,.25,0,.33l.41.14,2.27.75,2.5.85q2.49.88,4.94,1.84a51.69,51.69,0,0,1,12,6.22c1.13.87.64,1.19-.63,1a21.7,21.7,0,0,1-5.54-2A105.77,105.77,0,0,0,417.91,237c-1.06-.39-2.13-.76-3.2-1.12l-1.18-.39c-.45-.16-.94-.29-1.36-.47l0-1.63c0-.62.05-.8.07-1.12a68.72,68.72,0,0,1,1.07-6.92A108.47,108.47,0,0,1,417.78,209c.52-1.48,1.18-2.91,1.8-4.35.33-.71.7-1.4,1.05-2.1a19.78,19.78,0,0,1,1.14-2.07c.41-.68.8-1.36,1.22-2l.8-1.11a17.73,17.73,0,0,1,1.06-1.43c.68-.84,1.48-1.72,2.22-2.58l1.12-1.27.14-.16.07-.08s0,.06,0,.08l0,.42-.09.85-.46,4.11c0,.39-.11.79-.12,1.15l0,1-.07,1.4a26.33,26.33,0,0,0,0,2.81c.05.94,0,1.88.13,2.82a97.42,97.42,0,0,0,2.9,16.87c1.09,4.29,2.5,8.4,4,12.51.33.9.66,1.78,1,2.69,1.25,3.37,1.55,4.48,1.3,5.41a2.53,2.53,0,0,1-.17.62c-.27.49-1.18-.75-2.23-3.2a126.32,126.32,0,0,1-7.3-23.51,75.59,75.59,0,0,1-1.7-18.77Z"/><path class="cls-6" d="M435.75,241.76a56.17,56.17,0,0,1-2.67-6.84Z"/><path class="cls-1" d="M440.18,268.57s-7.11,2.83-8.53,4.71c-1.85,2.46-9.15,5.55-9.15,5.55-.77-4.79-4.72-18.78-6.67-24.32C423,258.75,435.06,266,440.18,268.57Z"/><path class="cls-1" d="M418.22,257.53a1.37,1.37,0,0,0,.06.34l.05.21.19.69.39,1.36,1.48,5.48c.35,1.33.76,2.65,1.08,4,.57,2.36,1.12,4.73,1.58,7.14l.06.4,0,.36v.05h0l.08,0,.16-.06.35-.14.3-.13.41-.19.81-.38c.54-.26,1.07-.52,1.59-.8a22.43,22.43,0,0,0,2.67-1.64,10.82,10.82,0,0,0,1.13-1l.48-.56a4.66,4.66,0,0,1,.68-.66,21.71,21.71,0,0,1,3.63-2.28,25.77,25.77,0,0,1,3.84-1.61c1.66-.51.37,2.16-2.36,3.5a25.25,25.25,0,0,0-3.42,1.94,5.16,5.16,0,0,0-.61.49c-.05,0-.45.51-.73.8a13.3,13.3,0,0,1-1.87,1.45,31.3,31.3,0,0,1-3.84,2.1l-1,.45-1.16.5c-.56.25-1.14.48-1.71.71l-.84.33c-.18.14-.15-.12-.19-.25l-.08-.47c-.13-.72-.25-1.45-.38-2.18l-.13-.71-.12-.63c-.17-.83-.37-1.66-.57-2.5-.43-1.66-.87-3.34-1.29-5l-1.46-5.48-.77-2.74-.39-1.36-.55-1.82-.71-2.21-.73-2.19,5.11,3.08c3,1.83,6,3.7,9.09,5.44,2.36,1.35,4.75,2.56,7.13,3.8l1.58.8c1.95,1,2.5,1.47,2.66,2.2a2.51,2.51,0,0,1,.1.49c0,.49-1,.41-2.49-.26a136.83,136.83,0,0,1-13.27-7.11l-4.64-2.77-1.16-.7-.09-.06h0l0,0-.12-.1v0Z"/><path class="cls-6" d="M413.5,234.09c6.9,2.1,16.63,5.63,23.33,10.42"/><path class="cls-1" d="M399.07,228.28c-3.64-1.6-5.77-2.32-7.52-4.38,3.06-16.24,13.08-31.35,14-31.35C403.05,201.32,398.19,218.24,399.07,228.28Z"/><path class="cls-1" d="M402.81,197.38l1.57-5.17,1.19.43a.47.47,0,0,0,.15.41c.1.1.3.49.4.59l0,0a1.66,1.66,0,0,0-.22.23c-.16.17-.33.38-.5.59-.33.42-.65.87-1,1.32-.63.91-1.23,1.85-1.82,2.8-.76,1.25-1.43,2.56-2.13,3.84a87.29,87.29,0,0,0-6.27,14.2,51.56,51.56,0,0,0-1.69,6.66c0,.16-.13.35.06.45l.09.08.12.12.38.32a10.49,10.49,0,0,0,1.72,1.1c1.24.65,2.61,1.22,3.93,1.92.82.44.48.89-.45,1.07a6.75,6.75,0,0,1-4.08-.66,14.39,14.39,0,0,1-2.16-1.3,9.17,9.17,0,0,1-1-.87c-.26-.24-.51-.54-.76-.82a2,2,0,0,1-.34-.43l.1-.55.32-1.56.27-1.13c.17-.75.39-1.5.59-2.24a63.65,63.65,0,0,1,3.22-8.68c1.52-3.36,3.06-6.87,4.9-10.16.79-1.41,1.62-2.8,2.5-4.15.44-.68.9-1.35,1.39-2,.24-.33.49-.66.76-1,.13-.16.29-.32.44-.49s.16-.17.28-.27l.21-.16a.93.93,0,0,1,.25-.12,1.47,1.47,0,0,1,.35-.08l1.17-.08-.35,1.17-.79,2.61c-.73,2.41-1.44,4.83-2.09,7.26-1,3.67-1.92,7.39-2.58,11.1a65.2,65.2,0,0,0-.92,8.62c0,.63,0,1.25,0,1.88,0,2.35-.07,3.07-.62,3.62a3.22,3.22,0,0,1-.37.37c-.41.28-.88-.69-1-2.51-.38-5.38.57-10.92,1.71-16.36.89-4,2-8,3.1-12Z"/><path class="cls-1" d="M396.12,278.2l-7.79-4.3a13.45,13.45,0,0,0-5.39-1.62h0s6.66-26.19,5.76-33.21c.76.18,6.11,1.33,9.11,3.63C396,255,394.23,273.09,396.12,278.2Z"/><path class="cls-1" d="M396.31,243.29a23.86,23.86,0,0,0-6-2.57l-.32-.1c0,.06,0,.2,0,.31l-.09,1.72-.2,1.83c-.21,1.76-.43,3.51-.74,5.24-1.13,6.09-2.58,12.08-4.08,18.06l-1,4-.12.5,0,.13,0,.06h0c.6.85-.82-1.15-.68-.94h.06l.27,0c.35,0,.71.08,1.06.14a14.88,14.88,0,0,1,2.09.53,15.33,15.33,0,0,1,2.52,1.09l2.31,1.23c1.53.82,3.05,1.68,4.52,2.62,1.83,1.17-1.58,1.65-5.1-.27l-2.33-1.28a18.12,18.12,0,0,0-2.21-1.1,12.93,12.93,0,0,0-2.28-.66l-.59-.09-.29,0h-.2l-1.27-1.78v0l0-.08.34-1.28c.89-3.43,1.79-6.86,2.69-10.32,1.07-4.14,1.85-8.52,2.54-12.8.18-1.18.37-2.36.49-3.53.05-.59.14-1.18.17-1.76l0-.88,0-.5c0-.27,0-.5,0-.74l0-1.43V238s.05,0,.08,0l.7.17,1.39.34,1.2.34a32.4,32.4,0,0,1,3.5,1.24,19,19,0,0,1,2.07,1,11.62,11.62,0,0,1,1.13.71l.68.5c.09,0,.06.1.05.17l0,.21-.06.42-.67,4.59c-.6,4.44-1.16,8.91-1.47,13.34a94.44,94.44,0,0,0-.14,10.22c0,.74.09,1.46.14,2.2.1,1.37.17,2.26.19,2.88a2.8,2.8,0,0,1-.27,1.36,3.87,3.87,0,0,1-.26.5c-.17.21-.42.07-.73-.42a6.58,6.58,0,0,1-.78-2.37,52.62,52.62,0,0,1-.48-9.57c.09-3.22.33-6.47.65-9.71.23-2.41.52-4.82.83-7.23l.5-3.6.26-1.8,0-.1h0v0l0,0Z"/><path class="cls-1" d="M388.74,221.47a1.68,1.68,0,0,1-.09-.79A1.6,1.6,0,0,1,389,220c.1-.11.41-.06.45.08a6.06,6.06,0,0,0,.27.75,4.26,4.26,0,0,0,.61,1.34,7.08,7.08,0,0,0,1.4,1.52,22.67,22.67,0,0,0,2.13,1.59,33.87,33.87,0,0,0,4.91,2.62c.39.17.76.36,1.13.55a31.57,31.57,0,0,0,4,1.67,3.43,3.43,0,0,0,.69.21c.38.07,4.08,1.38,4.55,1.58l3.53,1.46a1.84,1.84,0,0,1,.49.23,4.74,4.74,0,0,0,1.06.52c.51.21,1,.43,1.51.69a5.22,5.22,0,0,1,.67.49c.2.15,0,.26-.1.25-.25-.06-.11.11-.13.19a.11.11,0,0,1,0,.08,2.81,2.81,0,0,1-.48-.15l-1.06-.31c-.78-.22-1.62-.43-1.78-.49l-2.29-.75-2.62-.83a5.45,5.45,0,0,1-.76-.3c-.12,0-3.61-1.17-3.75-1.23a16.12,16.12,0,0,1-2.1-.89,3.17,3.17,0,0,0-.42-.19,37.38,37.38,0,0,1-3.6-1.62c-.6-.29-1.21-.59-1.81-.9a3.28,3.28,0,0,1-.31-.2c-.13-.08-.26-.17-.4-.24a22.89,22.89,0,0,1-4-2.8,8.18,8.18,0,0,1-.87-1,11.53,11.53,0,0,1-.75-1.18A9.44,9.44,0,0,1,388.74,221.47Z"/></g></svg>