<svg id="Layer_1" data-name="Layer 1" xmlns="http://www.w3.org/2000/svg" width="520" height="520" viewBox="0 0 520 520"><defs><style>.cls-1,.cls-2{fill:#221f1f;}.cls-1,.cls-4,.cls-5{stroke:#221f1f;}.cls-1,.cls-4{stroke-miterlimit:10;}.cls-1{stroke-width:0.5px;}.cls-3{fill:#232020;}.cls-4,.cls-5{fill:none;}.cls-4{stroke-width:1.29px;}.cls-5{stroke-linecap:round;stroke-linejoin:round;stroke-width:2px;}</style></defs><title>Notioly v2</title><g id="_86.Man_with_dog" data-name="86.Man with dog"><path class="cls-1" d="M95.49,386.3a4.52,4.52,0,0,1,1.56-6.24,4.58,4.58,0,0,1,1.33,2.1C99,385,95.59,386.27,95.49,386.3Z"/><path class="cls-2" d="M366.63,466.92c-.52,2.31-32.46,14.32-33.05,9.43-.4-3.14,20.79-12.65,21.83-13.06,5.14-2.05-1.73-20.59-3-24.47,2.9-1,6-2.07,9.1-3.28C360.42,441,368,460.61,366.63,466.92Z"/><path class="cls-2" d="M356.63,446.42a60.32,60.32,0,0,1,2,9.9,14.24,14.24,0,0,1-.32,5.49,4.85,4.85,0,0,1-.77,1.52l-.29.37-.37.33a3.59,3.59,0,0,1-.86.52l-2.24,1c-2.17,1-4.3,2-6.44,3.07-2.4,1.15-4.78,2.35-7.08,3.64-1.15.65-2.28,1.32-3.34,2.05-.27.17-.52.36-.77.55l-.54.42a1.2,1.2,0,0,0-.46.62c0,.35.35.49.63.53l.23,0h.32c.35,0,.71,0,1.07-.05a34.22,34.22,0,0,0,4.41-.7,82.34,82.34,0,0,0,10.63-3.22c2.23-.81,4.42-1.72,6.6-2.65l3.23-1.43a31.89,31.89,0,0,0,3-1.52c.28-.16.44-.25.54-.22a1.08,1.08,0,0,1,.15.07.62.62,0,0,0,.17.1l.13,0h-.06l.1,0c.07.05.09.14.11.26a1.86,1.86,0,0,1-.27.88,11.08,11.08,0,0,1-5.2,4.14A110.65,110.65,0,0,1,347.45,477a65.48,65.48,0,0,1-7.1,1.65,25.65,25.65,0,0,1-3.8.36,8.9,8.9,0,0,1-1.42-.09,4.56,4.56,0,0,1-1.44-.41,2.52,2.52,0,0,1-1.52-2.06,3.28,3.28,0,0,1,.27-1.2,5.09,5.09,0,0,1,1.08-1.43,6.54,6.54,0,0,1,.69-.62c.16-.12.31-.26.48-.37.63-.48,1.28-.9,1.93-1.32,1.3-.83,2.62-1.59,4-2.33q4-2.23,8.12-4.17Q351,464,353.23,463l1.15-.5.6-.25c.08-.07.19-.07.26-.15a2.54,2.54,0,0,0,.76-1.46,14.26,14.26,0,0,0,0-4.57,44.68,44.68,0,0,0-.86-4.77c-.45-1.95-1-3.9-1.56-5.83l-.9-2.9-1.15-3.45-.15-.45-.07-.23,0-.11a.58.58,0,0,1,.11-.05l.9-.32,1.72-.61,2.43-.85,2.5-.88,1.77-.62.87-.31.44-.16c.13,0,.32-.14.36-.07l-.13,1.51c0,.5,0,1,0,1.46v.72l.06.49.12,1c.21,1.31.47,2.62.77,3.92,1.07,4.6,2.5,9,3.62,13.66.25,1,.49,2,.69,3.07a15.35,15.35,0,0,1,.33,4.24,4.3,4.3,0,0,1-.25,1.16,2.44,2.44,0,0,1-.53.75,3.14,3.14,0,0,1-.55.47c-.29.12-.5-.24-.63-.88,0-.31-.13-.73-.22-1.24s-.17-1.08-.29-1.75c-.7-4-1.93-8.1-3-12.33-.57-2.11-1.13-4.25-1.65-6.44-.24-1.1-.49-2.2-.68-3.34-.12-.56-.19-1.15-.27-1.74l-.1-.79v-.18h0l-1.72.61-2.17.77-1.08.38s0,0,0,0,0,0,0,0l.67,2c.47,1.46.93,2.93,1.36,4.42Z"/><path class="cls-2" d="M366.44,196.49c5.32-3.43,10.82-7.69,14.23-13.1.65-1-2.22-.7-2.68,0-3.19,5.07-8.31,9.14-13.3,12.37-1.64,1.05.91,1.25,1.75.7Z"/><path class="cls-2" d="M272.14,209.35a21.78,21.78,0,0,0,14.4,3.37c1.43-.19,2.39-1.93.38-1.67a19,19,0,0,1-12.48-3.13c-.83-.54-3.5.66-2.3,1.43Z"/><path class="cls-2" d="M296.92,198.81c1.07-4.09,1.91-4.84,2.66-4.91,2.54-.22,4.86-.4,7-.71a29.33,29.33,0,0,0,5.58-1,66.94,66.94,0,0,0,9.72-4.69c1-.53,1.94-1,2.87-1.61s1.72-1.26,2.57-1.9c.14-.1.23-.33.46-.27.62.18,1.67,1.74,2.09,3.12.09.31.28.8.22.85-.68.49,0,2.91-.84,3.3-1.47.71-2.58,2.07-3.9,3.09a7,7,0,0,1-1.76,1c-.79.3-1.72.4-2.52.69-.56.19-2.06.91-4.12,1.79a35.94,35.94,0,0,1-7.58,2.44,32,32,0,0,1-7.66.43c-2-.1-3.29-.24-3.41-.28C297.87,199.91,297.51,199.38,296.92,198.81Z"/><path class="cls-2" d="M296.71,181.73c1.12-4.08,2-4.82,2.81-4.89,2.72-.21,5.17-.4,7.41-.8a30,30,0,0,0,6-1.36,82.9,82.9,0,0,0,10.43-5.26c1-.59,2.08-1.12,3.08-1.76s1.84-1.36,2.76-2c.15-.11.25-.35.49-.29.65.15,1.71,1.71,2.12,3.1.09.31.28.81.2.86-.72.52-.1,3-.95,3.38-1.57.78-2.78,2.21-4.18,3.3a7.53,7.53,0,0,1-1.86,1c-.85.34-1.8.49-2.67.8-.58.23-2.17,1-4.32,2a42.86,42.86,0,0,1-8,2.84,31.18,31.18,0,0,1-8.24.64,35.53,35.53,0,0,1-3.67-.3C297.73,182.84,297.34,182.31,296.71,181.73Z"/><path class="cls-2" d="M281.68,126.37a38.47,38.47,0,0,1-7.81-10.51,43,43,0,0,1-2-4.28l-.23-.59-.05-.13v0l0-.08a2,2,0,0,0-.1-.32l-.22.08-.34.12a12.36,12.36,0,0,1-1.86.48,6.87,6.87,0,0,1-4-.52,4.74,4.74,0,0,1-1.69-1.34,3.44,3.44,0,0,1-.77-2.18,5.39,5.39,0,0,1,.43-2,9.4,9.4,0,0,1,.87-1.67,24.44,24.44,0,0,1,2.27-3c.4-.47.81-.92,1.23-1.37l.57-.6.14-.15.07-.07,0-.11-.9-4.17c-.31-1.52-.59-3-.76-4.59-.21-1.91,2.5.15,3.18,3.56l.92,4.74.23,1.19c.11.21-.1.33-.23.47l-.42.41L269,100.73c-.53.54-1,1.1-1.53,1.66a14.83,14.83,0,0,0-2.38,3.47,3,3,0,0,0-.29,1.47.44.44,0,0,0,.08.25.86.86,0,0,0,.15.28,2.46,2.46,0,0,0,.57.54,4,4,0,0,0,2.76.57,8,8,0,0,0,1.58-.4l.2-.07.34-.13.72-.32,1.44-.7c.22.53.42,1.1.63,1.65l.54,1.38c.26.64.54,1.27.81,1.89a40.43,40.43,0,0,0,6.69,10.46,22,22,0,0,0,5.85,4.74,11.88,11.88,0,0,0,5.36,1.48,9.64,9.64,0,0,0,5.26-1.49,18.24,18.24,0,0,0,5.67-6.51c.33-.56.62-1.13.94-1.71,1.18-2.14,1.66-2.79,2.47-3a2.25,2.25,0,0,1,.54-.11c.54,0,.44,1.09-.32,2.78a29.75,29.75,0,0,1-4.5,7.34,14.92,14.92,0,0,1-1.63,1.65c-.3.25-.59.51-.9.76l-1,.67A6.84,6.84,0,0,1,298,130a11.21,11.21,0,0,1-1.11.52,12.41,12.41,0,0,1-9.5-.3,21.15,21.15,0,0,1-5.77-3.77Z"/><path class="cls-2" d="M312,101.41c.92,5.42,2.57,12,7,15.55.52.42,2.5-.42,2-.79-4.38-3.54-6-10-6.89-15.34-.1-.59-2.28-.09-2.17.58Z"/><path class="cls-2" d="M264.45,220.25a222.42,222.42,0,0,0,13.4-27.4c1.37-3.44,2.56-6.95,3.71-10.47,1-3.09,1.91-6.23,2.74-9.39s1.47-6.34,2.18-9.58a152.69,152.69,0,0,1,5.33-19.11c.52-1.38,1.07-2.76,1.72-4.11a19.82,19.82,0,0,1,2.36-3.92,9,9,0,0,1,1-1.05l.65-.37.08,0h0c0,.27,0,.08,0,.14h0l.15,0,.34.08.36.07c.13.07.25.15.37.2l.28.15.23.1a7.64,7.64,0,0,0,.94.37,11,11,0,0,0,4,.62,14.28,14.28,0,0,0,2.6-.29,17.39,17.39,0,0,0,2.5-.82l1.22-.52,1.15-.67c.38-.24.78-.43,1.15-.69l1.08-.81,1.08-.8,1-.91a23.17,23.17,0,0,0,2-1.88l1.88-2,1.74-2.12c1.45-1.75,1.77-1.18,1,.74q-.29.72-.75,1.68c-.16.31-.33.65-.53,1l-.7,1c-.52.71-1.06,1.49-1.73,2.25s-1.48,1.48-2.31,2.24l-2.43,1.79c-.88.51-1.75,1-2.67,1.5a18.33,18.33,0,0,1-6,1.71,14.74,14.74,0,0,1-6.3-.82c-.26-.09-.5-.21-.75-.32l-.37-.16-.25-.13s0,0,0,0a10.59,10.59,0,0,0-1,1.35,30.84,30.84,0,0,0-2.4,4.85c-.7,1.72-1.32,3.49-1.9,5.27-1.16,3.59-2.16,7.25-3.09,10.94-1.13,4.4-1.94,9-3.1,13.62s-2.48,9.16-4.05,13.61a195.88,195.88,0,0,1-12.7,28.32c-3.06,5.56-6.07,11.14-9.24,16.65-4.84,8.31-10.06,16.57-16.75,23.54-1.29,1.36-2.68,2.62-4.09,3.84l-2.22,1.73-2.22,1.6c-1.46,1.08-2.91,2.17-4.3,3.32a33.78,33.78,0,0,0-3.91,3.59,4.51,4.51,0,0,0-.56.79.64.64,0,0,1,0,.1h0l-.1,0a1.62,1.62,0,0,0-.2,0,.85.85,0,0,0-.27,0c-.15,0-.09.05,0-.05a1.54,1.54,0,0,0,.13-.26,1.21,1.21,0,0,0,.05-.18.45.45,0,0,1,0-.11h.11l.25,0a4.4,4.4,0,0,0,.51,0,7.43,7.43,0,0,0,1-.22,11,11,0,0,0,3.06-1.53c.81-.55,1.43-1.06,2-1.48a10.13,10.13,0,0,1,2.36-1.59,7.07,7.07,0,0,1,.88-.37c.37-.07.25.44-.35,1.4a15.62,15.62,0,0,1-3.58,3.82,11.07,11.07,0,0,1-5,2.27,5.82,5.82,0,0,1-.73.08l-.36,0a2.68,2.68,0,0,1-.54,0,1.53,1.53,0,0,1-.35-.08l-.2-.07-.25-.14a1.71,1.71,0,0,1-.73-1.13,1.93,1.93,0,0,1,.07-.92,4.42,4.42,0,0,1,.21-.51,10.34,10.34,0,0,1,1.84-2.27,72.77,72.77,0,0,1,8.05-6.51c.69-.51,1.42-1,2.08-1.5l2-1.51c1.24-1.09,2.49-2.18,3.64-3.41a73,73,0,0,0,6.53-7.76c6-8.15,11-17.19,15.95-26.24Z"/><path class="cls-2" d="M231.69,274.53c-.46-1.25-.23-1.82.16-2.26,1.27-1.48,2.54-3,3.9-4.41.58-.62,1.19-1.21,1.82-1.8l1-.87a17.31,17.31,0,0,1,1.73-1.4l.48-.26c.15,0,.3-.11.43-.14a2.62,2.62,0,0,1,.74,0,1.63,1.63,0,0,1,.9.73,1.84,1.84,0,0,1,.24,1.05A6.37,6.37,0,0,1,242,268a32,32,0,0,1-2.23,3.06c-.55.68-1.14,1.33-1.7,2l-1.63,1.91a.93.93,0,0,1-.29.3c-.35.17-.79-.16-.91-.63,0-.11-.09-.27-.05-.31.43-.48.26-1.33.72-1.81a24.31,24.31,0,0,0,2.24-2.92c.28-.39.58-.77.89-1.14s.83-.91,1.18-1.4c.16-.23.14-.19.21-.3a1.14,1.14,0,0,0,.09-.19c0-.07,0-.23-.1-.23a.61.61,0,0,0-.25.15l-.15.13-.64.61c-1,.93-2,2-2.92,3-1.89,2-3.55,3.71-3.68,3.8A6.62,6.62,0,0,1,231.69,274.53Z"/><path class="cls-2" d="M238.33,272.17c-.56-1.15-.38-1.65-.07-2a24.36,24.36,0,0,1,3.45-3.09c.21-.15.43-.29.65-.42l.35-.2c.14-.07.2-.12.43-.22a3.06,3.06,0,0,1,2.41-.33,1.91,1.91,0,0,1,1,1,2.15,2.15,0,0,1,0,1.26,4.8,4.8,0,0,1-.67,1.34,13.6,13.6,0,0,1-1.15,1.42c-.77.86-1.58,1.64-2.38,2.42-.47.45-1,.89-1.4,1.35a13,13,0,0,0-1.13,1.34c-.06.08-.06.16-.14.19a1.32,1.32,0,0,1-1-.52c-.06-.08-.16-.21-.13-.26.27-.41,0-1.19.42-1.56.71-.68,1.27-1.46,1.9-2.17a6.71,6.71,0,0,1,.81-.79c.36-.31.76-.58,1.11-.89a14.74,14.74,0,0,0,1.06-1.14c.11-.14.27-.35.34-.46a.28.28,0,0,0,.08-.12c.06-.08.06-.26-.09-.28a.49.49,0,0,0-.23.06l0,0-.24.13c-.17.09-.34.21-.51.32a21.05,21.05,0,0,0-1.93,1.44c-1.18,1-2,1.76-2.12,1.81A3.93,3.93,0,0,1,238.33,272.17Z"/><path class="cls-2" d="M239.39,276c-.72-1-.66-1.45-.46-1.73a19.53,19.53,0,0,1,2.27-2.54,21.52,21.52,0,0,1,2.38-1.81,8.73,8.73,0,0,1,1.21-.7,3.75,3.75,0,0,1,1.65-.38,2.66,2.66,0,0,1,1,.26,2.22,2.22,0,0,1,.85.73,2.5,2.5,0,0,1,.22,2,6.68,6.68,0,0,1-.74,1.59,12.39,12.39,0,0,1-.87,1.31c-.05.07-.08.17-.18.19-.26.08-.67-.29-.86-.68,0-.09-.13-.22-.11-.25.23-.28-.14-.94.07-1.19a3,3,0,0,0,.6-1.58c0-.19,0-.2,0-.2s.12-.1,0-.18a.33.33,0,0,0-.22-.05,2.22,2.22,0,0,0-.78.25,11,11,0,0,0-2.34,1.7c-1.64,1.41-3,2.93-3.11,3A2.94,2.94,0,0,1,239.39,276Z"/><path class="cls-2" d="M241.22,278.39c-.35-1-.17-1.4.1-1.67.93-.91,1.86-1.83,2.87-2.71l.47-.4c.3-.24.6-.45.89-.65a5.62,5.62,0,0,1,.85-.51,3.86,3.86,0,0,1,.71-.2,1.25,1.25,0,0,1,1.07.43,1.71,1.71,0,0,1,.06,1.64,7.56,7.56,0,0,1-.56,1.15c-.11.19-.22.39-.35.58l-.23.34a22.69,22.69,0,0,1-1.86,2.38c-.39.44-.82.86-1.24,1.29s-.81.82-1.26,1.21c-.08.06-.14.16-.24.18-.28.06-.57-.28-.62-.66,0-.08-.06-.21,0-.24.33-.27.21-.92.54-1.19a10.08,10.08,0,0,0,1.55-1.83,8.93,8.93,0,0,1,.63-.73c.28-.3.59-.58.85-.89.07-.09.19-.23.33-.44l.25-.36a1.34,1.34,0,0,0,.12-.24s0-.11,0-.14a.2.2,0,0,0-.16,0,.83.83,0,0,0-.16.12l-.41.33-1.59,1.37c-1,.86-1.75,1.49-1.82,1.54A3.94,3.94,0,0,1,241.22,278.39Z"/><path class="cls-2" d="M341.2,254.38c8.91-10.79,18.78-20.6,27.65-31.19a139.66,139.66,0,0,0,9-12.05c.61-.92,1.23-1.83,1.79-2.77a31.52,31.52,0,0,0,1.62-2.81,16,16,0,0,0,1.68-6c.34-4.2-1-8.45-2.68-12.46-.86-2-1.84-4-2.84-6s-2-4-3.08-5.95l-6.3-11.79a125.31,125.31,0,0,0-12.64-19.9A76.67,76.67,0,0,0,333,124c-2.71-1.48-2.12-1.86.54-1.16a33.89,33.89,0,0,1,11.9,6.64,80.31,80.31,0,0,1,11,11.3,109.23,109.23,0,0,1,8.93,12.89c2.69,4.5,5,9.12,7.47,13.7s4.89,9.16,7.16,13.85a70.12,70.12,0,0,1,3.76,8.8,25.12,25.12,0,0,1,1.47,9.79,10.73,10.73,0,0,1-.15,1.27c-.07.41-.1.84-.21,1.25a17.61,17.61,0,0,1-.72,2.45c-.16.39-.3.79-.46,1.18l-.58,1.14c-.37.78-.82,1.42-1.23,2.13-1.66,2.77-3.49,5.44-5.4,8C368,228.55,358.08,238.48,348.88,249c-1.43,1.6-2.81,3.25-4.2,4.89s-2.76,3.27-4.08,5-2.61,3.39-3.85,5.13l-1.85,2.63-1.08,1.6-1.32,2-.11.18c-.67-.9-1.34-1.91-1.95-2.93l-.35-.61-.3-.55c-.19-.37-.38-.74-.56-1.12a23.8,23.8,0,0,1-.94-2.34l-.73-2.39a7.38,7.38,0,0,1-.22-.84l.37-.78.52-1.11,1-2.23q1.07-2.21,2.22-4.37c3.06-5.77,6.48-11.32,10.06-16.71C347.14,226,352.89,218,358.86,210l3.94-5.23L365,202l.92-1.15.25-.3.15-.17-.09-.2-.13-.29-.46-1c-.27-.59-.49-1.11-.67-1.57a10.89,10.89,0,0,1-.63-2.22,8.31,8.31,0,0,1-.16-1.23c0-.43.46-.05,1.21,1,.38.52.83,1.22,1.36,2.07l.84,1.39c.15.27.31.54.48.83l.78,1.4-1.12,1.49c-5.31,7.14-10.78,14.43-16.15,21.94a278.44,278.44,0,0,0-15.32,23.3c-2.05,3.6-4,7.26-5.72,11l-.65,1.41-.05.1.09.28c.3,1,.55,2,.92,2.85a25.75,25.75,0,0,0,1.26,2.66l.29.5,0,0,1-1.51c.81-1.17,1.64-2.32,2.48-3.47,1.68-2.29,3.43-4.53,5.23-6.73Z"/><path class="cls-2" d="M360.2,199.24c-.24.14-.4.26-.71.42l-1.23.57-.3.14-.16.07-.11,0-.45-.12-.41-.09h-.07c0-.09-.31.82-.16.43l0,0-.06-.12-.13-.25a18.21,18.21,0,0,1-1.68-3.59l-1.81-5.88-1.4-4.25c-1.56-5-3.15-10-5-15-.8-2.19-1.73-4.33-2.7-6.42-1.28-2.66-2.74-5.22-4.17-7.7-.44-.78.09-1.08,1-.76a5,5,0,0,1,1.6.94,7.45,7.45,0,0,1,1.53,1.9,93.25,93.25,0,0,1,6.86,17.19c1.07,3.53,2.39,7.12,3.53,10.7l1.85,5.91.92,2.95.33,1.07.12.4.06.2,0,.11s0,.07.05,0c.25-.12.5-.26.77-.41l1.58-1c1.07-.67,2.12-1.36,3.15-2.08a69.86,69.86,0,0,0,8.87-7.17,40.31,40.31,0,0,0,5.48-6.68,18.39,18.39,0,0,0,1-1.6c.3-.5.57-.9.78-1.24a6.46,6.46,0,0,1,.55-.84,1.83,1.83,0,0,1,1-.73,4.77,4.77,0,0,1,.55-.13c.55,0,.47,1-.24,2.77a32.89,32.89,0,0,1-4.58,6.95,56.66,56.66,0,0,1-6,6,84.37,84.37,0,0,1-10.23,7.39Z"/><path class="cls-2" d="M289.37,226.88c.91-4.92,1.83-9.83,2.67-14.75.32-1.79.55-3.6.85-5.39,1.09-6.32,2.1-12.65,2.87-19,.16-1.42.32-2.83.44-4.25s.19-2.83.28-4.23c.18-3.62.13-7.23.27-10.82.11-2.27,2.47.49,2.48,4.79a147.14,147.14,0,0,1-2.3,22.36c-.76,4.42-1.33,9-2.08,13.58-.82,5-1.71,9.93-2.61,14.89l-1.65,9.14c-.81,4.62-1.66,9.26-2.27,13.86q-.17,1.35-.33,2.67l-.21,2.66c-.09.89-.07,1.75-.09,2.62v.41a.23.23,0,0,0,.13.23l.28.19.52.33c.64.37,1.31.68,2,1,2.57,1.09,3.33,1.2,3.88,1.91a5,5,0,0,1,.39.45c.14.25-.08.46-.7.61a6.21,6.21,0,0,1-2.67-.24,18.1,18.1,0,0,1-4.76-2.11l-.37-.27a3.81,3.81,0,0,1-.43-.37c-.34-.23-.35-.63-.57-.92a3.62,3.62,0,0,1-.06-1.09l0-.64a24,24,0,0,1,.13-2.57c.08-.85.16-1.69.23-2.54l.33-2.52c.2-1.69.47-3.37.73-5,.78-5,1.69-10,2.56-14.93Z"/><path class="cls-2" d="M266.58,450.49a79.37,79.37,0,0,1-28.43-3.87c13.16-67,34.17-125.75,52.82-188.08,10.36,3.08,29.33.93,37.15,1.16.13.44.71,2.39.86,2.83a27.14,27.14,0,0,0,3.55,6.46,102.72,102.72,0,0,1,7.88-11.26l7.11.23c.49,3.91-.08,6.77.41,13.25-1.12,7.84-3.08,15.3-7.66,22.83-5.59,9.21-10.23,17.5-16.37,26.17-3.54,5-6.93,10.18-10.12,15.54-15.18,25.34-26.17,54.4-29.61,83.28-.27,2.18-2.88,29.65-4.16,29.88A95.38,95.38,0,0,1,266.58,450.49Z"/><path class="cls-2" d="M345,277.9c.39-1.63.71-3.28,1-4.94l.2-1.26.09-.55v0l0-.33c-.06-.87-.1-1.75-.13-2.63-.06-1.76,0-3.52,0-5.23,0-.85,0-1.69,0-2.51l0-.76s0-.13,0-.14l-3.91-.15c-1.19,0-.88-.11-1.1.11l-.69.87-.77,1c-1,1.34-2,2.71-2.92,4.13l-4.06,6.25c-.79-1.13-1.57-2.25-2.34-3.42l-.55-.88-.33-.55c-.2-.35-.39-.71-.59-1.07a21.18,21.18,0,0,1-1-2.27c-.15-.4-.27-.78-.38-1.15l-.29-1c0-.09,0-.16-.07-.23h-.35l-2,0-4.6.15c-6.16.22-12.37.47-18.62.13a59.82,59.82,0,0,1-7.26-.77l-.91-.17-.46-.08-.15,0-.09,0c-.22-.05-.45-.12-.67-.16l-.65,2.16c-1.37,4.56-2.74,9.12-4.17,13.66-10,32-20.54,63.89-29.79,96.11-4.11,14.3-7.91,28.77-11.28,43.13l-1.62,6.93-1.51,7c-1,4.63-1.94,9.29-2.89,13.94l-.54,2.68,0,.08s.05,0,.07,0l.17.06.34.1,1.6.48c2.25.63,4.54,1.15,6.84,1.59a86.33,86.33,0,0,0,14,1.47c2.92.06,4.19.15,4.12.44s-1.5.69-4,1a51,51,0,0,1-10.5.17,65.23,65.23,0,0,1-7-.94c-1.24-.23-2.52-.53-3.82-.86-.65-.17-1.3-.34-2-.55s-1.26-.41-1.89-.62l-.94-.34-.24-.08s0,0,0-.09l0-.12.09-.49c.1-.58.21-1.17.34-1.76l.25-1.24.36-1.78.73-3.57c.5-2.38,1-4.77,1.5-7.13,1.06-4.74,2.06-9.49,3.22-14.21s2.24-9.45,3.47-14.15,2.43-9.41,3.69-14.1c5.07-18.78,10.73-37.41,16.65-56,7.07-22.28,14.4-45.47,21.37-68.33l2.3-7.56.05-.17.16,0,.31.08.64.16,1.26.33.63.16a4.41,4.41,0,0,0,.45.09l.81.15c1.08.23,2.19.33,3.29.49a110.05,110.05,0,0,0,13.49.43c4.53-.07,9.06-.31,13.65-.42l1.74,0h1.95c.21,0,.49-.07.49.24l.7,2.3c.16.53.31,1.09.5,1.57a19.59,19.59,0,0,0,1.43,2.91l.31.53.19.3a6.79,6.79,0,0,0,.39.56l2.43-3.71c1.14-1.7,2.36-3.36,3.63-5l1.26-1.56s0-.09.1-.1h.44l.59,0,.9,0,3,.11,1.78.06,1.17,0a5.46,5.46,0,0,1,.58,0l.06.58.12,1.17c0,.36.07.85.07,1.05,0,.52,0,1,.05,1.56,0,2.06-.06,4.05,0,6.05,0,1,.07,2,.13,3l.06.87-.13.85-.25,1.51a64.14,64.14,0,0,1-3.11,11.9,52.7,52.7,0,0,1-2.5,5.65c-.94,1.83-2,3.59-3.07,5.3l-6.26,10.39c-3.17,5.24-6.54,10.44-10.12,15.41s-6.82,10.15-9.9,15.42a229.38,229.38,0,0,0-16,32.77,206.13,206.13,0,0,0-8.41,26.72,187,187,0,0,0-4.41,27.46c-.41,4.1-.79,8.11-1.29,12.24-.33,2.76-.65,5.18-1,7.31-.17,1.07-.35,2.06-.56,3-.06.24-.11.47-.17.7l-.12.47c-.06.17-.11.34-.18.5a2.16,2.16,0,0,1-.51.84.82.82,0,0,1-.41.22l-.44.16-1.34.22-1,.14c-.63.09-1.23.16-1.78.22-1.12.11-2.08.18-2.93.21a22,22,0,0,1-4-.15,20.84,20.84,0,0,1-2.21-.36c-.67-.23.23-.47,2.41-.82l4.21-.67,2.76-.47,1.54-.29.8-.16.38-.08.13,0c.2,0,.26-.2.28-.36s.09-.4.13-.6l.15-.79c.68-4,1.11-8.22,1.57-12.41s.83-8.43,1.24-12.68a176.9,176.9,0,0,1,4.49-25.72,211.63,211.63,0,0,1,8-25.23A236.38,236.38,0,0,1,306,345.82c3.12-5.84,6.43-11.58,10-17.16q2.69-4.2,5.54-8.27c1.92-2.7,3.75-5.35,5.52-8.11,3.54-5.48,6.86-11.16,10.27-16.81l1.29-2.12c.41-.7.83-1.37,1.2-2.07a45.9,45.9,0,0,0,2.11-4.28,52.73,52.73,0,0,0,3-9.08Z"/><path class="cls-3" d="M345.72,250.39l1,9.07a5.93,5.93,0,0,0,1.87-.24l-1-9.11A6.87,6.87,0,0,0,345.72,250.39Z"/><path class="cls-2" d="M376.45,426.64c-8.76-9.85-27.84-78.59-26.73-128,.22-9.9-1.2-19.43-1.79-27.43-1.12,7.84-3.08,15.3-7.66,22.83-5.59,9.21-10.23,17.5-16.37,26.17-3.54,5-6.93,10.18-10.12,15.54,5.58,33.07,16.74,93.33,26.05,107.54.23.35,3.41-.61,3.73-.68,4.06-.93,8.05-2,12-3.23a52.48,52.48,0,0,0,20.11-11.85C375.78,427.46,376.59,426.79,376.45,426.64Z"/><path class="cls-2" d="M312.51,338.27l-.47-2.85,2.17-3.56,1.91-3c1.29-2,2.6-4,3.95-5.92l4.06-5.79c1.33-1.92,2.62-3.87,3.89-5.84,2.53-3.94,5-8,7.39-12l3.67-6.06a51,51,0,0,0,3.17-6.09,61,61,0,0,0,4.3-16.15l1.75-12.27,1,12.36.36,4.28c.56,6.25,1.23,12.57,1.31,18.95,0,1.59,0,3.2,0,4.78l-.07,4.69.05,4.7.15,4.7a321,321,0,0,0,3.95,37.46c1.76,11,4.07,22,6.79,32.74,1.76,6.89,3.7,13.75,5.9,20.51,1.1,3.38,2.25,6.74,3.51,10a81.68,81.68,0,0,0,4.25,9.63c.54.92.9,1.6,1.14,2s.27.68.15.75-1.22-.45-2.5-1.94c-2.53-3-5.92-9.25-8.52-17.11A368.78,368.78,0,0,1,349,321.11c-.28-4.08-.44-8.21-.55-12.37,0-2.08-.07-4.17-.06-6.26s.05-4.16.07-6.24c0-8.27-1.14-16.56-1.79-24.94l2.46.08c-.2,1.31-.4,2.61-.65,3.9A58.48,58.48,0,0,1,344,289.65a63.05,63.05,0,0,1-3.66,6.57l-3.83,6.34c-2.55,4.23-5.13,8.47-7.86,12.61-1.36,2.07-2.78,4.12-4.22,6.13s-2.81,4-4.17,6.08q-1.46,2.19-2.86,4.4L316,334l-1.18,1.93,2.1,12.43,2.27,12.76c3.33,18.08,6.88,36.24,11.46,53.89a187.31,187.31,0,0,0,6.31,20.07q1,2.42,2.08,4.73l.6,1.13a6.12,6.12,0,0,0,.31.56l.26.42c.11.13.16.42.4.35l.29,0,.45-.11,10.09-2.79c1.47-.42,3-.8,4.39-1.26a39.82,39.82,0,0,0,4.2-1.61,64.8,64.8,0,0,0,10.39-5.93,38.85,38.85,0,0,1,4.61-2.88c.53-.28,1.2-.58,1.52-.81a.28.28,0,0,0,.13-.27c0-.11,0-.16.07-.08a.51.51,0,0,1,.08.46,1.17,1.17,0,0,1-.14.35,11.31,11.31,0,0,1-1.45,1.8,42.55,42.55,0,0,1-7.6,6.18,50,50,0,0,1-8.63,4.48,43.62,43.62,0,0,1-4.66,1.52l-4.66,1.31L345,443.91l-2.31.64-.61.16-.76.17a2.86,2.86,0,0,1-2.13-.12l-.06,0,0,0c-.09.14,0,0-.07.05l-.09-.09-.19-.18a2.59,2.59,0,0,1-.37-.37l-.58-1a11.5,11.5,0,0,1-.63-1.13c-.41-.75-.79-1.51-1.13-2.27-.71-1.53-1.34-3.07-1.93-4.63a196.29,196.29,0,0,1-5.88-19c-1.69-6.42-3.22-12.9-4.67-19.4-4.25-19.33-7.79-38.86-11.1-58.39Z"/><path class="cls-2" d="M271.09,235.85c2.5-3.45,5-6.89,7.32-10.41.87-1.27,1.64-2.61,2.46-3.91q2.19-3.43,4.11-7c.34-.59.62-1.2.92-1.81l.42-.81.06-.1,0-.05h0l-.2,0-.44-.05-1.71-.2a45.59,45.59,0,0,1-7.28-1.47,22.94,22.94,0,0,1-8.45-4.37c-.75-.61-.29-1,.71-1.06a8.74,8.74,0,0,1,4,1.15,28.9,28.9,0,0,0,8.43,2.94c.74.15,1.5.28,2.26.4l1.14.16.58.08.3,0,.57,0,2.19.2,1.07.1.27,0c.07,0,0,0,0,.08l-.07.13-.24.5-1,2-.47,1-.32.63c-1.85,3.4-3.7,6.95-5.83,10.25-2.33,3.64-4.8,7.16-7.29,10.66L270,241.34c-2.3,3.26-4.62,6.53-6.71,9.88a90,90,0,0,0-4.34,8c-.28.6-.54,1.2-.84,1.79-1.05,2.24-1.48,2.9-2.29,3.14a3.16,3.16,0,0,1-.54.15c-.55,0-.49-1.06.16-2.82a78.41,78.41,0,0,1,8.21-15.05c2.38-3.6,4.91-7.09,7.38-10.6Z"/><path class="cls-2" d="M266.58,450.49c-.21,2.15-.4,4.29-.6,6.44-.23,2.52-.15,15-.36,15.56a3.93,3.93,0,0,1-2.87,2.17c-2,.6-31.6,2.18-30.72-2.2.54-2.8,20.7-4.33,21.71-4.4,5-.3,4.55-14.61,4.49-17.57A82.94,82.94,0,0,0,266.58,450.49Z"/><path class="cls-2" d="M239.87,471.37c-1.3.21-2.59.44-3.82.74l-1.16.32a.58.58,0,0,0-.29.15c-.08.12,0,.23.13.29a.67.67,0,0,0,.17.08l.09,0,.42.11a30.3,30.3,0,0,0,3.94.62c1.94.2,3.91.23,5.89.31,3.48.12,7,.13,10.48.05,1.75-.05,3.5-.12,5.22-.24.43,0,.87-.07,1.25-.12a2.16,2.16,0,0,0,.49-.11c.18-.06.37-.12.53-.19a2.55,2.55,0,0,0,1.43-1.13.55.55,0,0,0,.07-.28l0-.55,0-1.16,0-2.33v-4.68c0-2-.05-4,0-6s.36-4,.68-6c.41-2.46,2.68.93,2.29,5.49-.14,1.86-.13,3.95-.18,6s-.09,4.07-.13,6.11c0,1-.07,2-.14,3.12a4.18,4.18,0,0,1-.24,1.24,3,3,0,0,1-.33.64,4.1,4.1,0,0,1-.36.49,5.35,5.35,0,0,1-1.74,1.31,7.34,7.34,0,0,1-.9.36,5.92,5.92,0,0,1-1,.27c-.64.09-1.13.11-1.67.15-1,.06-2.09.09-3.12.11-5,.06-10.08.29-15.16.05a58.24,58.24,0,0,1-6.13-.58c-.51-.08-1-.17-1.55-.28l-.78-.19c-.34-.09-.76-.23-1.12-.36a4.58,4.58,0,0,1-1.8-1.15,2.29,2.29,0,0,1-.48-.83,1.85,1.85,0,0,1,0-1,3.68,3.68,0,0,1,2.29-1.94,7.1,7.1,0,0,1,.81-.3l.6-.18,1.13-.3a92.49,92.49,0,0,1,10.2-1.56c2.56-.28,5.16-.49,7.71-.67.87,0,1.61-.9,2.1-2a14.33,14.33,0,0,0,1-3.49,35.2,35.2,0,0,0,.44-5.62c0-2-.06-3.22-.19-6.86l.49,0,2.07,0h1.49c3.18,0,4.19.08,4.92.77a3.58,3.58,0,0,1,.48.47c.34.52-1,1.07-3.37,1.26-.81.07-1.63.11-2.47.14l-.56,0-.15,0-.18.05,0,.18,0,.07v0s0,0,0,0v.13c0,.7.05,1.41.06,2.12,0,1.43,0,2.88-.14,4.34a32.29,32.29,0,0,1-.64,4.47,11.41,11.41,0,0,1-2,4.67,4.63,4.63,0,0,1-2.83,1.69l-.44.06h-.24l-.5,0-1,.08-4.1.37c-2.72.28-5.44.6-8.11,1Z"/><path class="cls-2" d="M203.74,314.71c-1.25,3.11-2.68,6.21-3.94,9.21s-2.5,6.16-3.74,9.25c-.91,2.27-1.74,4.56-2.67,6.81-3.28,7.94-6.78,15.81-10.62,23.52-1.69,3.42-3.43,6.85-5.23,10.2-2.37,4.26-4.71,8.63-8,12.34-1,1.18-1.45.53-1.28-.94a16,16,0,0,1,2.42-6c2.63-4.08,5-8.34,7.31-12.69s4.48-8.77,6.66-13.24c2.6-5.35,4.81-11.14,7.08-16.8,2.51-6.21,4.89-12.52,7.64-18.67,1.62-3.78,3.11-7.63,4.62-11.48,2.28-5.83,4.69-11.68,7.49-17.29a68.86,68.86,0,0,1,7.65-12.4,27.39,27.39,0,0,1,2.15-2.44,15.7,15.7,0,0,1,3.39-2.7,3,3,0,0,1,2-.46,3.22,3.22,0,0,1,.76.14c.64.34-.47,1.51-2.47,3.4a35.86,35.86,0,0,0-4.11,4.64l-1,1.26-.89,1.32c-.62.86-1.17,1.78-1.74,2.7a97.75,97.75,0,0,0-6,11.73c-2.66,6.06-5,12.36-7.49,18.65Z"/><path class="cls-2" d="M244.63,269.35c5.39,1,7.17,7.8,8.22,12.36.11.49,2.58-.11,2.46-.66-1.11-4.82-3-11.6-8.65-12.63-.57-.11-2.67.81-2,.93Z"/><path class="cls-4" d="M243.05,267.56a16.51,16.51,0,0,0-1.86-.36"/><path class="cls-2" d="M122.23,430.53a39.11,39.11,0,0,1-.19-4.2c0-.7.06-1.41.1-2.12a17.56,17.56,0,0,1,.37-2.19,27.77,27.77,0,0,1,3.43-7.75,51.66,51.66,0,0,0,3.69-6.91,12.15,12.15,0,0,0,.7-7.12l.37.67-1-3.62-.45-1.82-.22-.91-.11-.46-.08-.35,0-.3,0-.17c-.07,0-.19.08-.29.1l-.71.24c-.3.1-.59.17-.88.26q-.89.24-1.77.42a51.26,51.26,0,0,1-14.14.64,38,38,0,0,1-11-2.46,15,15,0,0,1-5-3.23l-.53-.58L94,388a4.39,4.39,0,0,1-.41-.68,8.16,8.16,0,0,1-.37-.73,6.54,6.54,0,0,1-.44-3.32,6.45,6.45,0,0,1,1-2.75,7.44,7.44,0,0,1,.9-1.13,5.44,5.44,0,0,1,.54-.52c.2-.16.39-.3.59-.43a6.66,6.66,0,0,1,2.72-1c.81-.12,1.62-.23,2.43-.32,3.25-.35,6.45-.49,9.58-.87a33.14,33.14,0,0,0,4.58-.81,19.74,19.74,0,0,0,4.23-1.68,22.15,22.15,0,0,0,7-5.85c1.93-2.46,3.77-5.33,6.66-7.32a13,13,0,0,1,2.28-1.26,12.69,12.69,0,0,1,1.21-.44,12.26,12.26,0,0,1,1.22-.36,13.44,13.44,0,0,1,5.14-.35,11.64,11.64,0,0,1,4.85,1.83,17.9,17.9,0,0,1,3.78,3.35,74,74,0,0,1,5.69,7.92,35,35,0,0,0,5.2,6.52c2,1.94,4.24,3.8,6.29,5.85a26.21,26.21,0,0,1,5.31,7,10.81,10.81,0,0,1,1,4.49,10.7,10.7,0,0,1-1,4.47,14.92,14.92,0,0,1-8.49,7.53,13.86,13.86,0,0,1-5.76.82,11.82,11.82,0,0,1-5.58-1.9,10.09,10.09,0,0,1-3.72-4.64,20.12,20.12,0,0,1-1.33-5.56c-.42-3.72-.24-7.38-.47-10.92-.14-2.2-.27-3.11,0-3.12s.84,1,1.29,2.92a67,67,0,0,1,1.17,7.89,44.38,44.38,0,0,0,.85,5.05,12,12,0,0,0,2.11,4.75,7,7,0,0,0,1.66,1.5,9.14,9.14,0,0,0,2.12,1,10,10,0,0,0,4.72.29,12.84,12.84,0,0,0,8.17-5,9,9,0,0,0,1.71-4.33,8.11,8.11,0,0,0-.89-4.48,20.5,20.5,0,0,0-3-4.22,52.84,52.84,0,0,0-3.8-3.84c-1.34-1.25-2.73-2.49-4.11-3.79a30.11,30.11,0,0,1-3.81-4.45c-2.22-3.11-4.07-6.33-6.3-9.13s-4.9-5.12-8.16-5.49a11.46,11.46,0,0,0-5,.52,11.07,11.07,0,0,0-4.4,2.42,33.76,33.76,0,0,0-4.22,4.92,25.47,25.47,0,0,1-4.91,5.1,23.91,23.91,0,0,1-6.22,3.54,22,22,0,0,1-3.48,1c-1.16.23-2.32.4-3.48.55-2.31.29-4.62.45-6.9.65-1.13.1-2.27.21-3.39.35-.55.07-1.12.15-1.66.24a4.32,4.32,0,0,0-1.3.43,3.57,3.57,0,0,0-1.09.81,5.38,5.38,0,0,0-.84,1.12,4.23,4.23,0,0,0-.45,2.63,5,5,0,0,0,.16.67,3.1,3.1,0,0,0,.27.6,6.13,6.13,0,0,0,.82,1.23,9.29,9.29,0,0,0,2.37,2,26,26,0,0,0,9.31,3,51.82,51.82,0,0,0,10,.53,46,46,0,0,0,5-.49c.83-.13,1.65-.28,2.45-.48.4-.09.79-.21,1.19-.31.2-.05.38-.13.58-.19l.28-.1.23-.08.24-.1c.65-.29,1.29-.57,1.92-.89l.24-.11.11-.06c.06,0,0,.06.05.09l.11.52.23,1,.62,2.88c.33,1.58.65,3.16.95,4.76l.26.48a13.47,13.47,0,0,1,.13,5.14,18.8,18.8,0,0,1-1.55,4.81c-1.42,3-3.27,5.65-4.68,8.43a19.81,19.81,0,0,0-1.63,4.13,14.11,14.11,0,0,0-.38,2.14c0,.74-.11,1.49-.1,2.25a42.48,42.48,0,0,0,1.06,9,80.73,80.73,0,0,0,6.18,17.27c1,2.08,2.12,4.19,3,6.39.47,1.09.9,2.21,1.27,3.36.17.58.34,1.16.48,1.75a6.1,6.1,0,0,1,.24,2,4.22,4.22,0,0,1-.67,2,7.69,7.69,0,0,1-1.29,1.46c-.93.87-2,1.48-2.8,2.18a3.76,3.76,0,0,0-.92,1.07.9.9,0,0,0,.11,1,2.1,2.1,0,0,0,.46.48l.25.2.33.16a6.25,6.25,0,0,0,1.5.45,13.64,13.64,0,0,0,6.55-.61,4.41,4.41,0,0,0,2.39-1.7,3,3,0,0,0,.23-.65,1.44,1.44,0,0,0,.06-.64l-.17-1.74a101.43,101.43,0,0,1-.8-14.07,28,28,0,0,1,.7-5.51,9.43,9.43,0,0,1,2.78-5.06,5.65,5.65,0,0,1,2.83-1.21,16.83,16.83,0,0,1,2.83,0c1.82.11,3.6.28,5.38.44a132.35,132.35,0,0,0,21.23.68,67.65,67.65,0,0,0,9.18-1.21,51,51,0,0,0,11.56-3.78c2.41-1.12,3.76-1.85,5-2.33a15.58,15.58,0,0,1,1.58-.67c.6-.17,0,.6-1.61,2a30.45,30.45,0,0,1-8.74,4.93,61.05,61.05,0,0,1-19.42,3.56,146.72,146.72,0,0,1-20-.93c-1.65-.15-3.31-.31-4.9-.38s-2.69.07-3.56.87a7.32,7.32,0,0,0-1.83,3.6,24.23,24.23,0,0,0-.63,4.67,71.5,71.5,0,0,0,.35,9.88l.5,5c0,.48.09.64.12,1.43a4.17,4.17,0,0,1-.13,1l-.09.37c-.06.16-.13.33-.2.49a5.49,5.49,0,0,1-2.49,2.55,12.85,12.85,0,0,1-4.12,1.32,16.36,16.36,0,0,1-4.2.12,10.5,10.5,0,0,1-1.08-.17,7.77,7.77,0,0,1-2.27-.81,5.06,5.06,0,0,1-1.13-.92,3.8,3.8,0,0,1-.83-1.35,3.16,3.16,0,0,1-.09-1.85,3.87,3.87,0,0,1,.33-.84,5.88,5.88,0,0,1,.41-.61,6.64,6.64,0,0,1,.85-.89c1.14-1,2.2-1.59,2.94-2.32A4.76,4.76,0,0,0,134,467a1.71,1.71,0,0,0,.23-1,4,4,0,0,0-.08-.64c-.06-.27-.12-.56-.2-.84-.15-.57-.33-1.13-.52-1.7-.38-1.13-.84-2.26-1.34-3.38-1-2.23-2.18-4.44-3.26-6.79s-2.07-4.69-3-7.1a62.8,62.8,0,0,1-3.74-15Z"/><path class="cls-2" d="M110,475.45l-1.29.49a13.57,13.57,0,0,1-1.43.36l-.73.15a4.94,4.94,0,0,1-1.09,0,2.4,2.4,0,0,1-1.77-.91,2.63,2.63,0,0,1-.41-2l.1-.54.16-.49c.1-.33.18-.47.27-.71a20.32,20.32,0,0,1,1.24-2.32c.64-1.07,1.26-2.12,2-3.12,2.46-3.52,5-6.85,7.45-10.33,1.07-1.54,2.08-3.13,3.05-4.72a66,66,0,0,1,3.86-6.06c.91-1.19,1.87,1.61.4,4a129.66,129.66,0,0,1-8.42,12.15c-1.83,2.33-3.52,4.9-5.16,7.38a27.61,27.61,0,0,0-2.36,4.15,2.74,2.74,0,0,0-.21.62.45.45,0,0,0,.13.47.72.72,0,0,0,.5.1,1,1,0,0,0,.15,0l.26-.06.53-.12a13.73,13.73,0,0,0,5.08-2.57,29.11,29.11,0,0,0,6-6.72,58.43,58.43,0,0,0,3.41-6.14c.23-.46.44-.93.68-1.39.9-1.72,1.35-2.19,2.1-2.24a2.2,2.2,0,0,1,.5,0c.52.08.48,1-.08,2.27a50.33,50.33,0,0,1-6.71,11.57,22.8,22.8,0,0,1-8.15,6.8Z"/><path class="cls-2" d="M220.79,456.67c2.71-7.89,4.71-16.14,4.84-24.42a39.08,39.08,0,0,0-.22-4.48,27,27,0,0,0-.9-4.31,18.93,18.93,0,0,0-3.58-6.75,14.61,14.61,0,0,0-6.22-4.2,26.06,26.06,0,0,0-7.72-1.35,62,62,0,0,0-8,.31c-4.77.48-9.6,1.34-14.45,1.66a40.07,40.07,0,0,1-9.46-.3,19.81,19.81,0,0,1-4.65-1.42,13.38,13.38,0,0,1-4-2.85c-1.36-1.6-.6-1.69.89-.95.37.17.85.34,1.32.58l1.67.64a40.18,40.18,0,0,0,4.24,1.19,25.47,25.47,0,0,0,4.4.6c1.5.09,3,.08,4.55,0,3.07-.13,6.15-.48,9.27-.86s6.31-.77,9.53-.92a39.92,39.92,0,0,1,9.79.58,21.88,21.88,0,0,1,5.75,2c.23.12.46.22.69.35l.65.43a14.56,14.56,0,0,1,1.28.89,19.44,19.44,0,0,1,2.27,2.17,22.24,22.24,0,0,1,4.93,11.12,50.11,50.11,0,0,1-.16,13.07,89,89,0,0,1-2.72,12.67c-.74,2.55-1.57,5.06-2.49,7.55-.45,1.23-1,2.49-1.43,3.68a11,11,0,0,0-.73,3.59,18,18,0,0,0,.1,2.31l.15,1.18a4.21,4.21,0,0,0,.09.55l.13.56a12.32,12.32,0,0,1,.43,2.56,3.53,3.53,0,0,1-.27,1.51,2.36,2.36,0,0,1-1.26,1.19,11.16,11.16,0,0,1-2.54.58c-.83.11-1.65.17-2.49.2a17.62,17.62,0,0,1-2.51-.1,9.7,9.7,0,0,1-1.29-.23,3.8,3.8,0,0,1-.67-.23,3.14,3.14,0,0,1-.73-.41c-.19-.17-.35-.39-.53-.58a1.82,1.82,0,0,1-.26-.74,2.56,2.56,0,0,1,0-.39l.07-.39a2.68,2.68,0,0,1,.27-.75,9.77,9.77,0,0,1,1.43-1.93c.52-.59,1-1.15,1.5-1.71a6.62,6.62,0,0,0,.58-.83,1.25,1.25,0,0,0,.16-.37.91.91,0,0,0,.06-.4,3.48,3.48,0,0,0-.37-1.85,7.35,7.35,0,0,0-1.12-1.72,34.25,34.25,0,0,0-3.12-3.15c-.55-.53-1.12-1.06-1.66-1.68a21.51,21.51,0,0,1-1.44-1.89,37.09,37.09,0,0,1-2.2-3.47,18.65,18.65,0,0,1-2-5.11,4.57,4.57,0,0,1,0-2.51,3.83,3.83,0,0,1,.31-.77c.46-.55.95,1.4,2.38,4.59a36.39,36.39,0,0,0,3.58,6,15.14,15.14,0,0,0,2.23,2.61c.86.83,1.8,1.68,2.71,2.63a12.27,12.27,0,0,1,2.5,3.46,6.53,6.53,0,0,1,.59,2.42c0,.22,0,.44,0,.66a2.6,2.6,0,0,1-.12.74c0,.14-.08.28-.13.42l-.16.32a4.8,4.8,0,0,1-.33.57,14.76,14.76,0,0,1-1.34,1.67c-.44.48-.86.93-1.22,1.37a6.2,6.2,0,0,0-.48.63c-.11.15-.27.47-.21.35h0a1,1,0,0,0,.23.09,7.24,7.24,0,0,0,.72.16,15.42,15.42,0,0,0,1.73.13,20.86,20.86,0,0,0,2.95-.18c.49-.07,1-.15,1.42-.25a4.4,4.4,0,0,0,.57-.17c.11,0,.09,0,.09,0s.06.1.1.14l0,0-.08,0s0,0,0-.05a1.73,1.73,0,0,0,0-.34,6.29,6.29,0,0,0-.16-1.23l-.36-1.56c-.08-.37-.11-.62-.15-.9l-.1-.84a14.89,14.89,0,0,1,.67-7.06l.6-1.53c.2-.49.39-1,.57-1.48.38-1,.73-2,1.08-3Z"/><path class="cls-2" d="M131.71,403c-.19.2-.41-.07-.69-.65a2.17,2.17,0,0,1-.13-.86,3.82,3.82,0,0,1,.34-.49c.07-.08,1.35-.52,1.78-.68a5,5,0,0,1,1.25-.25c.85-.08,1.67-.18,2.48-.29a2,2,0,0,1,.54,0,3.56,3.56,0,0,0,1.76-.19c.09,0,.2-.05.27-.16a8,8,0,0,1,1.92-.69,11.56,11.56,0,0,0,1.66-.19c.08,0,.14-.08.25,0s.39.06.55,0a3.12,3.12,0,0,1,.7-.17,1.4,1.4,0,0,1,.45.11c.14.05.25.4.23.45s.11.27.19.4l.08.15a5.87,5.87,0,0,1-1.15,1.34l-1,.54-1.16.59a1,1,0,0,1-.39.06s-1.64.72-1.71.72a2,2,0,0,1-1.13.11.41.41,0,0,0-.22,0,8.26,8.26,0,0,1-1.84.18c-.3,0-.6.07-.9.11a1,1,0,0,1-.17,0,.75.75,0,0,0-.21,0,18,18,0,0,0-2.09.22c-.15,0-.93-.14-1.1-.08S131.79,402.88,131.71,403Z"/><path class="cls-2" d="M189.64,473.1a4.33,4.33,0,0,1,.26-1.62,5.74,5.74,0,0,1,.4-.78,4.82,4.82,0,0,1,.56-.62,6.54,6.54,0,0,1,2.37-1.26c.53-.17,1-.38,1.5-.52a5.86,5.86,0,0,0,2.07-.91,6.47,6.47,0,0,0,1.42-2,9.67,9.67,0,0,0,.75-2.22,9.82,9.82,0,0,1,.91-3c.18-.3.73-.05,1.21.39a1.84,1.84,0,0,1,.74,1.63,23.65,23.65,0,0,1-1,3.15,9.44,9.44,0,0,1-2,3.09l-.43.4-.49.42a8.24,8.24,0,0,1-1,.63,12.55,12.55,0,0,1-2,.79c-1.38.41-2.67.8-2.88,1.63a1.71,1.71,0,0,0-.09.89,1.19,1.19,0,0,0,.4.72,5.07,5.07,0,0,0,3.33.9,9.87,9.87,0,0,0,2.85-.61c.2-.06.38-.15.58-.22.72-.25.91-.19,1.35.29l.31.32c.34.36.15,1-.5,1.33a10.14,10.14,0,0,1-6.24,1.09,6.49,6.49,0,0,1-2.66-.91,3.91,3.91,0,0,1-1.26-1.24,3.74,3.74,0,0,1-.55-1.76Z"/><path class="cls-2" d="M237.45,397c.31-1.68.58-3.37.82-5.07l.33-2.55.14-1.22,0-.31,0-.11c-.29,0-.29-.06-1.37.31-1.67.63-2.89,2.33-3.74,4.24a35.12,35.12,0,0,0-1.92,6.19c-.44,1.91-.76,3.87-1.2,5.82a19.26,19.26,0,0,1-1.17,3.8,6.24,6.24,0,0,1-1.22,1.8,3.64,3.64,0,0,1-2.1,1.1c-1.05.08-.75-.58-.3-1.24a6.17,6.17,0,0,0,.56-1.12,8.75,8.75,0,0,1,.57-1.34,15.08,15.08,0,0,0,1.16-3.23c.31-1.19.58-2.42.86-3.67a48.93,48.93,0,0,1,2.17-7.61,18.8,18.8,0,0,1,2.41-4.48,8.37,8.37,0,0,1,2-1.86,7.74,7.74,0,0,1,1.25-.64l.67-.2.35-.1c.15,0,.32,0,.48-.06a17.48,17.48,0,0,1,3-.08l-.14,1.76-.15,1.55-.25,2.15c-.18,1.43-.38,2.86-.61,4.28-.33,2.14-.72,4.26-1.15,6.38a84,84,0,0,1-2.53,9.49,29.57,29.57,0,0,1-3.09,7,11.08,11.08,0,0,1-1.1,1.4,4.61,4.61,0,0,1-2,1.39,1.28,1.28,0,0,1-1.23-.16,1.59,1.59,0,0,1-.39-.32c-.15-.2-.05-.47.19-.74s.62-.58,1.08-1a15.35,15.35,0,0,0,3.23-5.16,52.31,52.31,0,0,0,2.14-6.37A101.38,101.38,0,0,0,237.4,397Z"/><path class="cls-5" d="M335.57,272.61c-1.52-.54-2.79-2.86-4.74-6"/><path class="cls-2" d="M133.91,371.59a2,2,0,0,1-.21.64,3.18,3.18,0,0,1-.26.35l-.24.21a2.69,2.69,0,0,1-.39.3,1.71,1.71,0,0,1-.67.31,1.75,1.75,0,0,1-1.33-.37,1.56,1.56,0,0,1-.44-.62,1.29,1.29,0,0,1-.06-.84c.13-.4.23-.53.27-.68a.47.47,0,0,0,0-.21s0,0,0,0,.07,0,.13,0,2.64.93,2.38,1.46a1.89,1.89,0,0,1-.16.26h0l-.19-.12-.45-.26-.28-.15c-.6-.28-.52,0-.3-.26v0h0l-.09.09h0a.19.19,0,0,0,0-.07.15.15,0,0,0,0-.1l0,0,0,0h0l-.52-.44h0a3.56,3.56,0,0,0,.49.26c.26.1.33,0,.23.08a.76.76,0,0,0-.12.15,1.79,1.79,0,0,0-.12.24s0,0-.07,0-.14.21-.15.33a.34.34,0,0,0,0,.09,7.58,7.58,0,0,0-.28-.8l-.18-.45a1.48,1.48,0,0,1-.17-1.17,1.29,1.29,0,0,1,1.55-.53,2.21,2.21,0,0,1,1,.54,2.15,2.15,0,0,1,.51.75,2.1,2.1,0,0,1,.15,1Z"/><path class="cls-2" d="M277.32,119.64c3.57-.66,6.42-3,6.81-6.71.13-1.19-2.24-.88-2.35.17-.3,2.86-2.15,4.45-4.88,5-.47.08-1.09.57-.95,1.1s.92.57,1.37.49Z"/><path class="cls-2" d="M276.67,94a4.07,4.07,0,0,0-.36-.36l-.43-.28c-.08,0-.15,0-.19,0a.49.49,0,0,0-.53,0,2,2,0,0,0-.69.69,3.31,3.31,0,0,0-.38.93c-.13.43-.22.87-.34,1.37,0,.16,0,.13-.06,0s-.34-.3-.5-.59a3,3,0,0,1,0-3.43,5.1,5.1,0,0,1,.91-1,3.42,3.42,0,0,1,.64-.39,2.83,2.83,0,0,1,.74-.17,3.18,3.18,0,0,1,1.43.28,4,4,0,0,1,1.09.72,4.56,4.56,0,0,1,.89,1.2,6.49,6.49,0,0,1,.59,2,6.4,6.4,0,0,1,.11,1.43c0,.1,0,.2,0,.3,0,.38-.1.54-.09.62a.07.07,0,0,0,0,.05s-.07-.09-.31-.32l-.93-1.14c-.27-.38-.55-.69-.74-.93a11.56,11.56,0,0,0-.93-.93Z"/><path class="cls-2" d="M278,86.38h-.81l-.83.09c-.2,0-.38.15-.58.19a8.32,8.32,0,0,0-2.1.68A2.21,2.21,0,0,0,273,88a2.39,2.39,0,0,0-.29.47.82.82,0,0,1-.36.33,2.19,2.19,0,0,1-1.17-.49,2,2,0,0,1-.58-.65.64.64,0,0,1,0-.64,4.62,4.62,0,0,1,2.89-1.91c.64-.13,1.19-.49,1.81-.65a9.77,9.77,0,0,1,2.08-.31c.43,0,.87,0,1.3,0s.65.07,1,.13.65.13,1,.22a6.33,6.33,0,0,0,.78.15c.26.07.53.14.79.23a1.09,1.09,0,0,1,.35.15c.39.26.4.48,0,1-.08.11-.16.23-.25.34a1.45,1.45,0,0,1-.95.55,18.48,18.48,0,0,1-1.83-.29,7.73,7.73,0,0,0-1.49-.13Z"/><path class="cls-2" d="M334.47,93.57c-.91,2.85-6,4.79-6.89,7.31-.41,1.2.13,2.49.39,3.75.64,3-2.67,5.76-5.43,6.09-5.35.63-7.8-5.57-8.79-9.51,11.24-4.77.33-20.74-5.81-13.19-2.46,3-3.42,7.36-8.12,6.19-4.15-1-7.57-4.7-10.16-7.88s-6.33-7.59-11-5c-4.34,2.4-6.85,7.45-11.37,9.58a6.74,6.74,0,0,1-.82.35A12.92,12.92,0,0,1,252.07,88c-3.61-3.93-4.75-11-1.84-15.67,2.2-3.59,6.59-3.7,10.28-4.56a.1.1,0,0,0,0-.18c-2-.75-4-1.63-5-3.81-3.15-6.58,1.42-13.46,7.25-16.57,7-3.75,14.2-1.13,20.16,3.35a1.08,1.08,0,0,0,1.45-.16c5-5.88,13.48-9.49,21.14-7.29S319.68,54,318.46,62a.07.07,0,0,0,.08.09c1.18-.25,11.81-2.28,13.16,6.43a11.23,11.23,0,0,1-1.62,7.6c-.53.91-2.39,2.57-2.33,3.61.14,2,3.79,4.07,5,5.58A8.3,8.3,0,0,1,334.47,93.57Z"/><path class="cls-2" d="M262.74,49.15A14.08,14.08,0,0,0,256.37,57a8.78,8.78,0,0,0,0,4.85,10.14,10.14,0,0,0,.43,1.16,4.28,4.28,0,0,0,.54.94c.11.14.23.27.35.4l.1.09.22.2a5.87,5.87,0,0,0,.58.39,4.41,4.41,0,0,0,.65.36,6.07,6.07,0,0,0,.76.35,4.65,4.65,0,0,1,.74.35c.2.12.49.25.54.36a2.59,2.59,0,0,1,.63,1l.12.28s0,0,0,.08a.53.53,0,0,1,0,.19l-.12.18-.12.19-.2.21-.2.21-.37.21-.37.21-.62.14c-.41.1-.83.19-1.28.27l-1.31.26-.65.13-.55.13a12.26,12.26,0,0,0-1.26.36,7.88,7.88,0,0,0-2.17,1.09,5.62,5.62,0,0,0-1.51,1.73,9.44,9.44,0,0,0-.95,2.32,12.44,12.44,0,0,0-.17,5.16,12.12,12.12,0,0,0,3.35,6.67,11.14,11.14,0,0,0,6.65,3.2,12.46,12.46,0,0,0,3.34-.08,13.58,13.58,0,0,0,1.65-.38L266,90l.71-.31a19,19,0,0,0,5.41-4.37,25.45,25.45,0,0,1,5.94-5.06,6.81,6.81,0,0,1,4.34-.85,8.5,8.5,0,0,1,3.91,1.76,35.85,35.85,0,0,1,5.21,5.64,25.36,25.36,0,0,0,5.2,4.86,11.25,11.25,0,0,0,3.08,1.45,3.82,3.82,0,0,0,2.89-.06,6.28,6.28,0,0,0,2.2-2.28c.66-1,1.29-2.1,2.12-3.15a6.76,6.76,0,0,1,3.05-2.29,5.58,5.58,0,0,1,3.91.23,9.77,9.77,0,0,1,4.86,5.29,8.69,8.69,0,0,1-.09,7.21,8,8,0,0,1-2.43,2.81,8.32,8.32,0,0,1-.76.5,3.17,3.17,0,0,1-.37.21l-.17.08-.08,0s0,.06,0,.09l.11.37.07.26.15.43c.11.32.23.64.35,1a18.57,18.57,0,0,0,.83,1.81,9.61,9.61,0,0,0,2.33,3,5,5,0,0,0,6.42-.21,4.31,4.31,0,0,0,1.73-2.75v-.37l-.05-.37c-.05-.28-.14-.62-.22-1a7.44,7.44,0,0,1-.32-2.44,3.57,3.57,0,0,1,.39-1.39,5,5,0,0,1,.74-1.1,12.26,12.26,0,0,1,1.71-1.56c1.14-.89,2.3-1.66,3.24-2.53,1.14-1.09,1.32-1.59,1.61-1.48.12.06.2.3.16.74a4.32,4.32,0,0,1-.7,1.71A15.07,15.07,0,0,1,331.71,98a28.19,28.19,0,0,0-2.21,2.41,2.14,2.14,0,0,0-.47,1.07,4.73,4.73,0,0,0,.28,1.39c.09.32.21.68.32,1.09a5.84,5.84,0,0,1,.2,1.61,6,6,0,0,1-1,3.15,8.87,8.87,0,0,1-4.22,3.31,7.84,7.84,0,0,1-4.15.39,8.62,8.62,0,0,1-1.38-.39,9.43,9.43,0,0,1-4.07-3.38,18.34,18.34,0,0,1-2.15-4.26c-.14-.37-.25-.73-.38-1.1l-.55-2-.28-1a6.54,6.54,0,0,1,.91-.51l.94-.48a5.19,5.19,0,0,0,.51-.27l.22-.14a5.27,5.27,0,0,0,2.17-2.33c.91-1.87.38-4.47-1-6.39A6.26,6.26,0,0,0,312.9,88a2.63,2.63,0,0,0-2.57.11,4.13,4.13,0,0,0-1.16,1A18.31,18.31,0,0,0,308,90.8a16.62,16.62,0,0,1-2.92,3.78,5.86,5.86,0,0,1-2.65,1.31,7,7,0,0,1-2.79-.12,13.38,13.38,0,0,1-4.44-2,30.58,30.58,0,0,1-6.48-6.36,28.79,28.79,0,0,0-3.3-3.74,6.19,6.19,0,0,0-3.85-1.84,4,4,0,0,0-2,.45,10,10,0,0,0-2,1.26,35.14,35.14,0,0,0-3.7,3.56,28.69,28.69,0,0,1-4.12,3.75,13.37,13.37,0,0,1-1.23.78,12.85,12.85,0,0,1-1.34.65,14.75,14.75,0,0,1-2.78.83A13.87,13.87,0,0,1,249.2,86a16.15,16.15,0,0,1-1.73-6,14.13,14.13,0,0,1,.82-6.26,10.41,10.41,0,0,1,1.62-2.85,8.32,8.32,0,0,1,2.62-2.08,13.55,13.55,0,0,1,3-1.08l.42-.1.29-.06.58-.1.6-.12.15,0c.06,0,.08-.08,0-.08l-.27-.11a4.11,4.11,0,0,1-1-.58l-.12-.09-.21-.2c-.2-.2-.39-.42-.57-.64a7,7,0,0,1-.88-1.47,11.68,11.68,0,0,1-.91-3.07,11.82,11.82,0,0,1,.8-6.26,15.94,15.94,0,0,1,1.92-3.33,19,19,0,0,1,2.61-2.76,17.43,17.43,0,0,1,6.63-3.6,16,16,0,0,1,3.77-.59,18.34,18.34,0,0,1,3.78.35A23,23,0,0,1,280,47.6c.54.33,1.08.64,1.59,1l.78.52.62.46a.72.72,0,0,0,.6.21c.23,0,.36-.24.51-.39a23.35,23.35,0,0,1,1.8-1.78,24.71,24.71,0,0,1,4.2-3,22,22,0,0,1,9.85-2.92,17.38,17.38,0,0,1,10,2.57A21.31,21.31,0,0,1,317,51.62a19.09,19.09,0,0,1,1.88,4.47l.29,1.19.17,1.2a7,7,0,0,1,.09,1.21v.46a1.51,1.51,0,0,1,0,.3l0,.4c0,.1-.07.34.13.24a7,7,0,0,1,.78-.13l.59-.07.79,0c.53,0,1.05,0,1.58,0a14.55,14.55,0,0,1,3.18.47,9.49,9.49,0,0,1,3,1.44,7.26,7.26,0,0,1,1.28,1.14,11.73,11.73,0,0,1,1,1.4c.22.51.48,1,.66,1.55s.28,1.07.39,1.61a11.7,11.7,0,0,1-.8,6.46,15.09,15.09,0,0,1-.86,1.76,12.94,12.94,0,0,1-1.2,1.61c-.18.22-.35.45-.51.66a6.15,6.15,0,0,0-.34.55.52.52,0,0,0-.05.3,1,1,0,0,0,.15.36A8.79,8.79,0,0,0,331,82.1c.71.6,1.4,1.15,2,1.75a7.92,7.92,0,0,1,.88,1,10.81,10.81,0,0,1,.62.94,8.1,8.1,0,0,1,.83,1.79,6.74,6.74,0,0,1,.37,2.86,4.55,4.55,0,0,1-.55,1.82,4.38,4.38,0,0,1-.77,1.16c-.42.33-.32-.43-.35-1.92a8.06,8.06,0,0,0-.58-2.7,8.27,8.27,0,0,0-.85-1.59,10.19,10.19,0,0,0-.61-.82,4.68,4.68,0,0,0-.69-.72c-1-.9-2.33-1.75-3.53-3a6.8,6.8,0,0,1-.87-1.11,4.25,4.25,0,0,1-.59-1.77,3,3,0,0,1,.15-1,4.42,4.42,0,0,1,.4-.84,10.28,10.28,0,0,1,.76-1.09,12.54,12.54,0,0,0,1.22-1.64,11.83,11.83,0,0,0,.84-1.86,9.22,9.22,0,0,0,.49-3.88A5.86,5.86,0,0,0,326,64a12.15,12.15,0,0,0-4.05-.5c-.36,0-.71,0-1.07.06l-.41,0-.58.08-1.15.15c-.43.11-.63-.06-.93-.12a.73.73,0,0,1-.32-.15,1.06,1.06,0,0,1-.29-.22l-.51-1.61c0-.51.12-1,.11-1.55l0-.74a10,10,0,0,0-.15-1.33,13.72,13.72,0,0,0-.7-2.62,17.54,17.54,0,0,0-2.74-4.8,16.51,16.51,0,0,0-9.09-6A17.43,17.43,0,0,0,293.28,46a22.43,22.43,0,0,0-4.81,3,22.21,22.21,0,0,0-2.08,1.92l-.7.75a2.84,2.84,0,0,1-1.17.82,2.91,2.91,0,0,1-2.73-.4l-.8-.58c-.17-.13-.35-.26-.54-.38-.37-.23-.72-.5-1.1-.71-.74-.46-1.5-.89-2.27-1.27a18.53,18.53,0,0,0-4.8-1.63,13.2,13.2,0,0,0-9.49,1.76Z"/><path class="cls-2" d="M299.79,144.08c8.95,3.84,17.63-2.56,23.21-9.18.6-.71-2.16-.36-2.63.2-4.33,5.13-10.64,11.07-17.85,8-.79-.34-3.06.85-2.73,1Z"/><path class="cls-2" d="M308.21,254.82c-1.43.24-2.86.46-4.33.57-.53.06-1.07.13-1.6.14a25.1,25.1,0,0,1-5.63-.61l-2.42-.45a10.13,10.13,0,0,1-3-.79c-.59-.3.76-2.08,1.88-1.8l5.92,1.43a13.45,13.45,0,0,0,3.7.09,34.36,34.36,0,0,0,4.13-.47c.86-.14,1.71-.32,2.56-.49,1.29-.29,2.59-.56,3.86-.93,1-.28,1.91-.69,2.86-1,.21-.08.41-.17.63-.24.79-.25,1.08-.18,1.4.32a3.37,3.37,0,0,1,.22.35c.19.4-.05.84-.6,1.12a26.72,26.72,0,0,1-5.33,1.89c-1.38.36-2.8.66-4.22,1Z"/><path class="cls-2" d="M301.77,479l-57.39-.24c-7,0-14,0-20.93,0q-36.88-.17-73.78-.36c-10.91-.05-21.88,0-32.71,0-13.91.05-27.88.22-41.78,0-8.67-.15,2.33-2.42,18.36-2.44,28.41,0,56.8.06,85.44.38,17.13.19,35,.09,52.48.14q28.91.07,57.81.19,17.79.06,35.58.11c18,0,36,.11,53.83.08,13.86,0,27.44-.19,41.14-.29,3,0,6-.07,9-.08,11.27,0,14.86.12,17.28.74.55.15,1.28.29,1.6.43,1.08.48-3.52.89-11.77,1-24.49.42-50.31.48-76.24.48-19.26,0-38.6-.05-57.91-.08A.14.14,0,0,0,301.77,479Z"/><path class="cls-2" d="M419.43,476.2c1.62-7.23,3.93-19.2,11.46-22.6,1.23-.55,2.19-2.32.16-1.41-9.47,4.28-12.39,16.15-14.45,25.38-.13.58,2.62-.44,2.83-1.37Z"/><path class="cls-2" d="M395.14,477.13c-1.54-9.12-2.37-17.61-8.41-25.09-1.18-1.46-3.61-1-2,.95,5.44,6.73,5.89,14.8,7.26,22.93.22,1.27,3.48,3,3.19,1.21Z"/><path class="cls-2" d="M417.26,476.93c1.55-13.93,5.12-32.5,16.2-42.06.6-.52-2.08-.24-2.62.22-11.31,9.76-14.9,28.4-16.47,42.61,0,.36,2.8.1,2.89-.77Z"/><path class="cls-2" d="M412.4,477.37c-2.24-6.64-2.87-14-9-18.42-.85-.61-3.95-.29-2.47.76,5.71,4.09,6.23,11.36,8.31,17.54.36,1.07,3.56,1.29,3.17.12Z"/><path class="cls-2" d="M414.89,477.17c-.74-12.43-4.77-28.7-16.44-35.19-.77-.43-3.56.36-2.51.95,11.41,6.35,15.24,22.36,16,34.53.06,1,3,.7,3-.29Z"/><path class="cls-2" d="M395.55,477.29c-.36-4.67-.29-9.7,1.3-14.13.33-.94-1.5-3.51-2-2.13-1.65,4.59-1.72,9.9-1.36,14.73.08,1,2.18,3.29,2.05,1.53Z"/><path class="cls-2" d="M393,476.73c-1-5.12-3.15-10.71-7-14.35-.76-.71-3.63-.66-2.38.51,3.61,3.39,5.53,8.64,6.51,13.42.22,1.08,3.14,1.62,2.89.42Z"/><path class="cls-2" d="M425.69,469.54c.06-.09-.1-.26-.12-.39a3.82,3.82,0,0,1-.19-1.4,2.73,2.73,0,0,1,.39-1,3.79,3.79,0,0,1,1.24-1.46,4.35,4.35,0,0,1,.52-.29,3.45,3.45,0,0,1,.57-.18h.11c.11,0,.1,0,.07,0l0,0c-.08.1,0,.28-.05.44a4.92,4.92,0,0,0-.09.86,1.23,1.23,0,0,1-.07.29c-.06.1-.17.17-.23.27s-.42.83-.84,1.45a8.92,8.92,0,0,1-.67.83l-.41.4A1.45,1.45,0,0,0,425.69,469.54Z"/><path class="cls-2" d="M386.33,474.17c0-.09-.22-.09-.31-.14a10.22,10.22,0,0,1-1-.43,2,2,0,0,1-.51-.54,4,4,0,0,1-.69-1.07c-.06-.13-.11-.27-.16-.41l-.15-.46a.56.56,0,0,0,0-.1c0-.1,0-.08,0-.06h0c.09.05.25,0,.39-.06s.54,0,.81,0a.58.58,0,0,1,.27.09,1.49,1.49,0,0,1,.23.27,3.68,3.68,0,0,1,1,1.21,3,3,0,0,1,.23.95,4.51,4.51,0,0,1-.05.51A1.09,1.09,0,0,0,386.33,474.17Z"/><ellipse class="cls-2" cx="315.91" cy="290.38" rx="2.59" ry="1.75"/><ellipse class="cls-2" cx="345.92" cy="301.71" rx="1.31" ry="0.89"/><ellipse class="cls-2" cx="304.37" cy="316.6" rx="1.31" ry="0.89"/><ellipse class="cls-2" cx="191.63" cy="340.85" rx="1.17" ry="0.79"/><ellipse class="cls-2" cx="346.57" cy="216.94" rx="1.31" ry="0.89"/><ellipse class="cls-2" cx="330.81" cy="232.83" rx="0.91" ry="0.62"/><ellipse class="cls-2" cx="144.94" cy="271.64" rx="2.59" ry="1.75" transform="translate(-41.89 26.92) rotate(-9.28)"/><ellipse class="cls-2" cx="242.77" cy="224.62" rx="1.31" ry="0.89"/><ellipse class="cls-2" cx="224.58" cy="296.26" rx="1.31" ry="0.89"/><ellipse class="cls-2" cx="139.65" cy="245.15" rx="1.31" ry="0.89" transform="translate(-37.69 25.72) rotate(-9.28)"/><ellipse class="cls-2" cx="132.33" cy="232.57" rx="1.81" ry="1.23" transform="matrix(0.99, -0.16, 0.16, 0.99, -35.76, 24.37)"/><ellipse class="cls-2" cx="221.57" cy="249.6" rx="2.59" ry="1.75" transform="translate(-37.34 38.98) rotate(-9.28)"/><ellipse class="cls-2" cx="230.34" cy="215.44" rx="1.81" ry="1.23" transform="matrix(0.99, -0.16, 0.16, 0.99, -31.71, 39.95)"/><ellipse class="cls-2" cx="225.64" cy="159.44" rx="1.17" ry="0.79" transform="translate(-22.75 38.46) rotate(-9.28)"/><ellipse class="cls-2" cx="210.32" cy="189.4" rx="1.31" ry="0.89" transform="translate(-27.78 36.38) rotate(-9.28)"/><ellipse class="cls-2" cx="177.93" cy="233.38" rx="1.31" ry="0.89" transform="translate(-35.29 31.73) rotate(-9.28)"/><ellipse class="cls-2" cx="164.89" cy="317.49" rx="1.17" ry="0.79" transform="translate(-49.02 30.73) rotate(-9.28)"/><ellipse class="cls-2" cx="280.58" cy="260.26" rx="1.31" ry="0.89"/></g></svg>