<svg id="Layer_1" data-name="Layer 1" xmlns="http://www.w3.org/2000/svg" width="520" height="520" viewBox="0 0 520 520"><defs><style>.cls-1{fill:#221f1f;}.cls-2{fill:none;stroke:#221f1f;stroke-linecap:round;stroke-linejoin:round;stroke-width:1.8px;}</style></defs><title>Notioly v2</title><g id="_9.Plants" data-name="9.Plants"><path class="cls-1" d="M210.42,318.7a8.61,8.61,0,0,1,.06-4.18c.1-.39.58-.4.7.05.25.87.49,1.75.7,2.65.12.54,1.48,9.29,2,12.25s.84,5.76,1.21,8.65l2.26,17.62c.16,1.3.3,2.61.42,3.92.41,4.48,1,9,1.52,13.43.1.75.18,1.51.34,2.23.26,1.17,1.69,13.32,1.8,14.91l.93,11.79a12,12,0,0,1,.09,1.67,24.57,24.57,0,0,0,.16,3.63c.15,1.68.21,3.39.27,5.08a18,18,0,0,1-.19,2.54c-.08.76-.37.31-.4.05-.1-.77-.24-.16-.36-.1a.12.12,0,0,1-.13,0s0-.17,0-.44-.05-.64-.08-1.09c-.08-.9-.27-2.16-.42-3.42-.33-2.53-.73-5.19-.77-5.72,0-.06-.11-1-.27-2.37s-.37-3.21-.59-5.08l-1.06-8.45c-.12-.83-.17-1.67-.24-2.51-.05-.4-1.53-11.62-1.59-12.07-.26-2.33-.63-4.66-.73-7,0-.46-.09-.93-.15-1.4-.52-4-1-8-1.42-12l-.78-6.13c-.05-.37-.07-.74-.1-1.11s-.08-.94-.14-1.4c-.64-4.84-1.17-9.69-1.88-14.52-.16-1.11-.64-6.46-.84-7.74C210.54,321.72,210.55,319.33,210.42,318.7Z"/><path class="cls-1" d="M157.26,278.57c5.68-1.34,11.6-1.15,17.34-.58a112.1,112.1,0,0,1,17,3.19,136.07,136.07,0,0,1,16.36,5.5c2.66,1.1,5.29,2.28,7.86,3.62,1.27.68,2.55,1.36,3.79,2.12a19.37,19.37,0,0,1,3.53,2.58,17,17,0,0,0-2-.71c-.68-.21-1.35-.43-2.05-.6s-1.37-.38-2.05-.57l-2.07-.53-8.23-2.19L190.33,286q-8.18-2.19-16.38-4.17A162,162,0,0,0,157.26,278.57Z"/><path class="cls-1" d="M229.25,230.93c7.76-5.11,13-12.94,20-18.94.5-.42-1.77-.19-2.22.2-6.88,5.89-12,13.66-19.62,18.68-1,.67,1.44.35,1.88.06Z"/><path class="cls-1" d="M205.26,101.77a17,17,0,0,0,3.11,1.91c.42.17.85.29,1.27.47l.27.12.2.09a1.26,1.26,0,0,1,.26.13,2,2,0,0,1,.76.85,2.18,2.18,0,0,1-.1,2,1.91,1.91,0,0,1-.69.72c-.27.15-.45.21-.68.32a8.17,8.17,0,0,1-1.34.39A13.68,13.68,0,0,1,206,109a6.49,6.49,0,0,1-2.95-.48c-.3-.15-.08-.59.27-1a1.69,1.69,0,0,1,1.34-.67,12.78,12.78,0,0,0,2.53.15,9.6,9.6,0,0,0,1.2-.15l.57-.14.28-.1.13,0h.06c.17,0,.25-.28.17-.44s0-.07-.16-.12l-.87-.33a19,19,0,0,1-3.6-1.88,21,21,0,0,1-2-1.55,17.23,17.23,0,0,1-2.51-2.82A19.43,19.43,0,0,1,198.81,97c-.1-.19-.21-.38-.3-.58-.3-.77-.23-1.09.21-1.36a1.66,1.66,0,0,1,.32-.17c.37-.13.72.06,1,.51a26.2,26.2,0,0,0,2.65,3.89,14.56,14.56,0,0,0,2.63,2.44Z"/><path class="cls-1" d="M140.08,82.76a14.82,14.82,0,0,0-1.41,4.59,14.44,14.44,0,0,0,0,1.74,8.76,8.76,0,0,0,1.88,5.63,7.38,7.38,0,0,0,2.14,1.7c1.06.54,2.2.83,3.3,1.38.33.18.15.78-.33,1.26a2,2,0,0,1-2.09.58,10.13,10.13,0,0,1-6.28-6,14.44,14.44,0,0,1-1-5.2,16.47,16.47,0,0,1,1.15-5.5A19.37,19.37,0,0,1,139,79.88a13.82,13.82,0,0,1,1.58-2.09,8.77,8.77,0,0,1,2.09-1.71l.5-.26.55-.19a4.55,4.55,0,0,1,1.18-.15,3.69,3.69,0,0,1,2.33.78,3.73,3.73,0,0,1,.77.87,2.1,2.1,0,0,1,.35,1.36.86.86,0,0,1-.54.64,3.86,3.86,0,0,1-.41.2c-.49.14-.92-.24-1.21-.72a1.51,1.51,0,0,0-.69-.63,2.24,2.24,0,0,0-.86-.11,1.17,1.17,0,0,0-.41.07L144,78l-.23.13a5.34,5.34,0,0,0-1,.8,12.9,12.9,0,0,0-2.59,3.84Z"/><path class="cls-1" d="M146,76.85c-4-4.23-11.15-12.15-22.24-13.5-21.76-2.63-28.56,25.74-26.6,37,2.26,13,13.9,13.22,16.26,15s-3.34,16.48,11.89,19.88C151,141,135.15,103,136.09,100.62s4.11-3.72,4.11-3.72-8.32-7.77-.17-18.48C143.29,74.13,146,76.85,146,76.85Z"/><path class="cls-1" d="M123.58,136.35a15.22,15.22,0,0,1-7.37-4.52,14.85,14.85,0,0,1-3.2-8,38.26,38.26,0,0,1-.21-4.09c0-.67,0-1.32,0-1.93a7.13,7.13,0,0,0-.07-.86,3.09,3.09,0,0,0-.1-.51c0-.07,0-.08-.19-.16s-.49-.21-.72-.32q-.87-.31-1.83-.63a39.91,39.91,0,0,1-3.82-1.47,18.37,18.37,0,0,1-5.13-3.43,16.1,16.1,0,0,1-3.55-5.1,26.07,26.07,0,0,1-.9-2.57c-.18-.88-.42-1.74-.55-2.63a29.51,29.51,0,0,1-.19-5.3,46.7,46.7,0,0,1,1.7-10.27,43.29,43.29,0,0,1,4-9.61,28.23,28.23,0,0,1,6.68-8,20.37,20.37,0,0,1,8.41-4.08,23.68,23.68,0,0,1,9.3,0,30.62,30.62,0,0,1,5.7,1.7,33.24,33.24,0,0,1,5.24,2.78A44.33,44.33,0,0,1,145.46,75c1.59,1.79.92,2-.91.93s-4.77-3.3-8.2-5.76a30.25,30.25,0,0,0-4.79-2.85,24.42,24.42,0,0,0-5.2-1.85c-.89-.25-1.81-.36-2.71-.52a22.74,22.74,0,0,0-2.73-.17,17.39,17.39,0,0,0-5.33.75,19.25,19.25,0,0,0-9,6,33.67,33.67,0,0,0-5.75,9.73A41.94,41.94,0,0,0,98,95a27.19,27.19,0,0,0,.07,3.5c0,.58.12,1.15.2,1.71l.39,1.68a15.35,15.35,0,0,0,3,6,15.78,15.78,0,0,0,6.06,4.25c1.17.5,2.39.91,3.67,1.33a16.78,16.78,0,0,1,2,.78c.17.1.4.23.62.38a2.52,2.52,0,0,1,.51.62,2.8,2.8,0,0,1,.31.72,4.55,4.55,0,0,1,.12.6,39.88,39.88,0,0,1,.17,4.12,26.86,26.86,0,0,0,.32,3.83,11.54,11.54,0,0,0,3.16,6.53,15.45,15.45,0,0,0,8.36,3.7,17.38,17.38,0,0,0,4.65.23,8.12,8.12,0,0,0,4.13-1.55,9.23,9.23,0,0,0,3.21-5.88,27.12,27.12,0,0,0,.22-7.21,85.76,85.76,0,0,0-2.82-14.41c-.23-.89-.45-1.78-.68-2.66-.1-.46-.21-.9-.29-1.38a4.24,4.24,0,0,1-.1-.8,2.19,2.19,0,0,1,.21-1,6.93,6.93,0,0,1,1.89-2.36c.19-.16.38-.3.58-.45l.36-.25a5.57,5.57,0,0,1,.57-.33,6.52,6.52,0,0,1-.5-.55l-.11-.13-.23-.33a7.4,7.4,0,0,1-.44-.65,14.91,14.91,0,0,1-1.38-2.84,12.88,12.88,0,0,1-.67-6.28,15.51,15.51,0,0,1,1.62-5c.19-.37.38-.72.55-1.06l.61-.89a14.78,14.78,0,0,1,1.12-1.53,6.65,6.65,0,0,1,2.44-1.89,3.48,3.48,0,0,1,2.18-.19,2.36,2.36,0,0,1,1.22.72,2.18,2.18,0,0,1,.53.86c0,.38-.41.14-1.31,0a2.55,2.55,0,0,0-1.53.28,5.59,5.59,0,0,0-1.81,1.65c-.47.58-.87,1.33-1.31,2s-.72,1.42-1.06,2.13a14.15,14.15,0,0,0-1,4.54,11.79,11.79,0,0,0,.89,4.49,12.74,12.74,0,0,0,1.1,2.06l.33.48a3.85,3.85,0,0,0,.34.42l.43.5c.55.66,1.32,1.34,1.95,2-.82.39-1.76.78-2.54,1.19a8.51,8.51,0,0,0-1,.6,5,5,0,0,0-.43.34,4.77,4.77,0,0,0-1.27,1.49c0,.08,0-.12,0,.32s.15.77.25,1.19l.64,2.54c.91,3.44,1.78,7,2.4,10.56a47.62,47.62,0,0,1,.72,8.23,18.06,18.06,0,0,1-1.93,8.5,9.23,9.23,0,0,1-5.43,4.41,10.5,10.5,0,0,1-2.24.51,22.7,22.7,0,0,1-8.54-.86Z"/><path class="cls-1" d="M166,276.36c-.07,2.19.06,4.31,0,7.23-4.95.7-24.26-3.12-25-6.65A160.36,160.36,0,0,1,166,276.36Z"/><path class="cls-1" d="M214.5,247.32a59.11,59.11,0,0,1-.87-13.35c.06-1.24.67-1.1.91.36q.72,4.28,1.44,8.63c.15.88,1.21,8.38,2.63,16.82.71,4.23,1.49,8.69,2.21,12.68s1.45,7.52,1.9,9.9l2.05,10.77a1.89,1.89,0,0,1-.31,1.45,1.8,1.8,0,0,1-.32.36,2,2,0,0,1-.45.22c-.09,0-.1.1-.25,0l-.45-.14-.9-.28a9.05,9.05,0,0,1-1.9-.71l-2.53-1.19-2.13-.95c-2.84-1.25-5.72-2.42-8.62-3.54a184.42,184.42,0,0,0-27.17-8.13,123.89,123.89,0,0,0-28-2.93,34.93,34.93,0,0,0-3.83.13l-5.72.47a1.81,1.81,0,0,1-1.45-.45,2.28,2.28,0,0,1-.31-.32c0-.06-.06-.08-.14-.24s0-.08,0-.15l.1-.19,1.69-2.93.94-1.6c.07-.13.16-.29.22-.38l.19-.27.39-.54,1.52-2.18c1-1.46,1.87-3,2.81-4.53s1.68-3.16,2.49-4.76,1.53-3.24,2.23-4.89a167.24,167.24,0,0,0,7-20.45c.6-2.33,1.3-4.7,1.76-7,.41-1.87,2.91-12.35,4.75-23.15s3.31-21.8,3.63-24.33c1.7-12.54,2.93-25.18,3.74-37.83,0-1.13.11-2.31.17-3.45,0-.78.07-1.55.11-2.3v-.47l.07,0,.5.26,1,.5c.72.38,1.44.78,2.15,1.11l.73.35c.21.11.43.2.65.3.87.39,1.76.76,2.66,1.11,1.8.7,3.64,1.34,5.5,2,2.23.76,4.47,1.48,6.72,2.19l3.38,1,3.85,1.14c.19.86.38,1.72.58,2.57.3,1.31.62,2.62.8,4a16.71,16.71,0,0,1,0,4.12c-.34,2.44-.57,1.05-.52.22,0-2.45-.26-.47-.43-.26s-.13.15-.17,0,0-.31,0-.81a17.14,17.14,0,0,0-.15-2.08,24.41,24.41,0,0,0-.67-3.06c-.28-1-.59-2.16-.92-3.35l-.44-.1-.83-.22-1.83-.49-3.74-1c-2.51-.71-5-1.46-7.27-2.18s-4.3-1.43-5.9-2l-2-.79-.86-.36a2.46,2.46,0,0,0-.42-.17c0,.15,0,.33,0,.54,0,.89-.08,1.9-.14,3-.21,4.5-.59,10.46-1.08,16.55-.95,12.18-2.51,24.85-2.87,27.43s-.79,5.41-1.23,8.1c-.11.63-1.47,10-3.35,19.38-.9,4.68-2,9.34-2.83,12.91s-1.57,6.06-1.65,6.42a150.54,150.54,0,0,1-7.52,21.64c-.6,1.38-1.29,2.78-1.91,4.19-.74,1.74-1.69,3.4-2.54,5.09s-1.92,3.3-2.87,4.94l-1.63,2.37-.82,1.18-.2.3-.05.07h0l0,0-.09.11-.37.44s-.08.09-.08.11h.21l2.49-.2,1.06-.08h7.4l4.21.26,2.52.16c.84.05,1.67.19,2.51.27l5,.59c3.31.59,6.66,1,9.92,1.82l3.54.82,4.41,1.19a184.2,184.2,0,0,1,18.78,6.06l4.58,1.81c1.52.64,3,1.27,4.54,1.93l2.26,1,2,1,.46.22.11.06c.05,0,0-.08,0-.12l0-.25L220,284.17c-.32-1.78-1.26-6.94-2.08-12.19s-1.64-10.57-2-12.64C215.55,257,214.83,249.38,214.5,247.32Z"/><path class="cls-1" d="M207.57,153.28l.39-2.15c0-.26,0-.53.09-.79l.08-.38.05-.11.12-.28a.75.75,0,0,0-.2-.1l-.13-.05-.22-.06a8.46,8.46,0,0,0-1.23-.17,3.85,3.85,0,0,1-1.57-.26c-.3-.16.35-1.73,1-1.66s1.07.16,1.6.28l.39.1.2.06.34.08c.49.11,1,.23,1.37.35l.3.09a15.62,15.62,0,0,0-.3,1.55l-.07.59-.06.45-.36,2.17c-.07.44-.15.89-.22,1.34-.11.68-.25,1.36-.32,2-.07.53,0,1.07-.1,1.63a2.53,2.53,0,0,1,0,.38c-.1.46-.32.62-.76.51a2.63,2.63,0,0,1-.3-.09.82.82,0,0,1-.55-.64,13.76,13.76,0,0,1,.17-2.74c.1-.71.21-1.43.32-2.14Z"/><path class="cls-1" d="M248.39,207.54a7.32,7.32,0,0,1,3.33-2.56.46.46,0,0,1,.55.69c-.48.77-1,1.55-1.5,2.3-.3.48-6.12,7.19-8.18,9.41s-4,4.25-6.18,6.27-4.42,4-6.76,6a42.72,42.72,0,0,1-7.7,5.15A10.87,10.87,0,0,1,217.5,236a7.9,7.9,0,0,1-4-1.15,19.78,19.78,0,0,1-3-2.23,51.09,51.09,0,0,1-4.79-5.12c-.47-.6-1-1.22-1.47-1.76a65.35,65.35,0,0,1-4.41-6c-1.92-2.86-3.7-5.85-4.08-6.55-1.9-3.49-3.76-7-5.54-10.52a10.45,10.45,0,0,1-.72-1.52,19.72,19.72,0,0,0-1.51-3.31c-.76-1.51-1.5-3-2.19-4.58-.34-.77-.59-1.57-.85-2.36s.27-.51.42-.29c.44.63.33,0,.43-.13s.09-.1.14-.09a4.15,4.15,0,0,1,.25.37c.14.24.34.57.59,1,.48.81,1.13,1.88,1.79,3,1.33,2.2,2.74,4.49,3,4.95,0,.06.49.87,1.17,2.08l2.55,4.41c1.91,3.24,4,6.55,4.45,7.21s.86,1.43,1.28,2.16c.1.17,1.7,2.6,3.4,4.94s3.53,4.58,3.67,4.75c1.41,1.8,3,3.44,4.46,5.06a8.78,8.78,0,0,0,1,.85c1.49,1.15,3,1.87,4.34,1.63a14.82,14.82,0,0,0,5-2.11,46.53,46.53,0,0,0,4.87-3.52c.28-.23.58-.44.87-.66s.74-.55,1.09-.85a141.7,141.7,0,0,0,10.53-10c.77-.81,4.65-4.49,5.49-5.48C246.12,209.54,248,208.07,248.39,207.54Z"/><path class="cls-1" d="M223.31,208.19a8.29,8.29,0,0,1-3.26,1.62c-.34.08-.52-.25-.21-.53.59-.52,1.18-1.05,1.81-1.55l8.75-6.35c2-1.5,4.12-2.95,6.19-4.41,4.19-3,8.42-6,12.37-9.17.91-.71,1.64-1.39,2.54-2.2a40.35,40.35,0,0,0,4.1-4.06,13.92,13.92,0,0,0,2.8-4.71,5.11,5.11,0,0,0,.29-1.7c0-.17,0-.66,0-1.44,0-.2,0-.4,0-.62s-.06-.53-.1-.81c-.1-.93-.33-2.07-.53-3.21.55.07,1,.16,1.73.27a1.64,1.64,0,0,1,.54.2l.59.28.58.28.5.28a21.78,21.78,0,0,1,2.28,1.46,16.14,16.14,0,0,1,2.6,2.36,9.88,9.88,0,0,1,2.4,5.11,9.19,9.19,0,0,1-1.17,5.46,7.5,7.5,0,0,1-.76,1.31c-.67.84-1.23,1.75-1.85,2.63-.87,1.21-1.8,2.38-2.76,3.5-.47.55-1,1.05-1.51,1.56s-.42,0-.29-.15c.36-.56-.07-.21-.18-.23s-.09,0-.09-.05l.21-.33c.15-.19.34-.47.58-.8.47-.66,1.11-1.55,1.73-2.47,1.27-1.83,2.41-3.82,2.62-4.21,0,0,.43-.73.91-1.77a11.22,11.22,0,0,0,.62-1.78,6.75,6.75,0,0,0-1.54-5.82,12.1,12.1,0,0,0-1.78-1.8c-.53-.43-1.06-.88-1.63-1.28a11.63,11.63,0,0,0-1.08-.67l-.44-.24-.07,0s-.11-.06-.08,0l0,.08,0,0v.06l0,.24a18.7,18.7,0,0,1,.13,2.07c0,.34,0,.67,0,1s-.09.55-.12.77a4.51,4.51,0,0,1-.19.79,14.09,14.09,0,0,1-3.32,5.63c-.28.3-.56.63-.84.94-1.2,1.36-2.53,2.58-3.8,3.77a45.77,45.77,0,0,1-4.14,3.42c-1.44,1.1-2.88,2.19-4.34,3.25l-.8.55-1,.7c-3.45,2.5-7,4.88-10.44,7.37-.8.57-4.75,3.08-5.67,3.73C225.6,206.88,223.75,207.83,223.31,208.19Z"/><path class="cls-1" d="M260,196.75c.36-1.55-1.18-3.88-1.72-5.24-1.16-2.9-2.43-6-2.34-9.19,0-1-2.16-.67-2.19.21a21.4,21.4,0,0,0,1.84,8.24c.55,1.46,2.59,4.57,2.22,6.18-.22,1,2,.67,2.19-.2Z"/><path class="cls-1" d="M230.68,229.68a1.87,1.87,0,0,1-.3-1.91c.07-.2.48-.31.61-.16.23.31.48.59.71.88A11,11,0,0,0,233,230.1a7.37,7.37,0,0,0,1.18.94,5.07,5.07,0,0,0,.54.29s0,0,.08,0h.14l.22,0,.43,0a6.87,6.87,0,0,0,.88-.12c.59-.11,1.18-.17,1.78-.31a61.51,61.51,0,0,0,7.25-2c.54-.16,1.07-.33,1.62-.48a46.67,46.67,0,0,0,5.48-1.89,4.7,4.7,0,0,0,.88-.41c.44-.26,5.3-2.26,5.94-2.51l.64-.22.08,0h.08l0,0s0,0,0-.05l.05-.19a6.67,6.67,0,0,0,.14-.8,16.27,16.27,0,0,0,.08-1.76,2.89,2.89,0,0,1,0-.72,5.24,5.24,0,0,0,.09-1.58c0-.74,0-1.48.07-2.22a5.65,5.65,0,0,1,.22-1.07c.07-.33.34-.15.36,0,.08.33.21.06.32,0a.17.17,0,0,1,.12,0,4.48,4.48,0,0,1,.1.68c.06.41.12.94.19,1.48.15,1.09.33,2.23.34,2.46,0,0,.05.75.12,1.67a12.48,12.48,0,0,1,0,1.62,7.74,7.74,0,0,1-.12.86c-.06.39-.21.86-.3,1.26l-2.61,1.21a9.1,9.1,0,0,1-1,.39c-.16.07-4.67,2.06-4.86,2.12a19.78,19.78,0,0,1-2.9,1,3.93,3.93,0,0,0-.58.19c-1.65.64-3.33,1.15-5,1.64l-2.59.78a4,4,0,0,1-.48.09c-.21,0-.41.07-.61.12a33.69,33.69,0,0,1-6.45,1.11,1.46,1.46,0,0,1-1.05-.18,4.53,4.53,0,0,1-.55-.35c-.16-.12-.32-.24-.47-.37a13.58,13.58,0,0,1-1.34-1.34A14.18,14.18,0,0,1,230.68,229.68Z"/><path class="cls-1" d="M208.63,178.28a1.29,1.29,0,0,1,.1-1.47c.1-.15.53-.22.62-.1a7.52,7.52,0,0,1,.53.69c.09.15,1.3,2.66,1.8,3.5s.85,1.66,1.25,2.5l2.46,5.16a12.21,12.21,0,0,1,.49,1.18,42.87,42.87,0,0,0,1.77,4,3.55,3.55,0,0,0,.36.63,38.89,38.89,0,0,1,2.07,4.4c.42,1.26.82,2.44,1.23,3.66a1.72,1.72,0,0,1,.14.54,2.86,2.86,0,0,0,.27,1.16,15.12,15.12,0,0,1,.41,1.64,4.92,4.92,0,0,1,0,.86c0,.26-.31.16-.35.09-.14-.22-.22,0-.32,0a.53.53,0,0,1-.12,0s-.1-.19-.22-.45a8.29,8.29,0,0,0-.47-1c-.35-.73-.78-1.48-.84-1.64s-.12-.29-.29-.69l-.68-1.49c-.51-1.09-1.08-2.22-1.19-2.45a4.11,4.11,0,0,1-.29-.76c0-.12-1.71-3.36-1.78-3.49a13.17,13.17,0,0,1-.87-2.09,1.57,1.57,0,0,0-.18-.42c-.58-1.16-1.09-2.36-1.61-3.55-.27-.61-.58-1.2-.86-1.8,0-.11-.08-.23-.13-.34a3.16,3.16,0,0,0-.16-.43c-.69-1.42-1.28-2.88-2-4.3-.18-.32-.69-2-.88-2.39C208.76,179.3,208.76,178.45,208.63,178.28Z"/><path class="cls-1" d="M220.09,179.41a33.52,33.52,0,0,1-6,.38,16.06,16.06,0,0,1-2.28-.19,9.17,9.17,0,0,1-3.84-1.66,7.91,7.91,0,0,1-2.46-3.37,17.59,17.59,0,0,1-.89-3.42,12.22,12.22,0,0,1,0-4.39c.2-.88,2.15.43,2.15,1.92,0,2.71.36,5.35,1.9,7.2a5,5,0,0,0,1.86,1.23,11.48,11.48,0,0,0,2.37.51,24.3,24.3,0,0,0,5.64-.11c1.17-.15,2.35-.33,3.53-.55,1.78-.34,3.57-.7,5.33-1.15,1.37-.34,2.68-.8,4-1.19.29-.09.58-.19.89-.26,1.12-.27,1.52-.19,1.86.32a2,2,0,0,1,.23.36c.19.41-.2.85-1,1.14A65,65,0,0,1,226,178.3q-2.87.67-5.84,1.17Z"/><path class="cls-2" d="M258.55,196.39c-.66.12-7.49,8.79-9.45,14.7"/><path class="cls-1" d="M257.07,202c.74.86.77,1.2.64,1.44-.43.81-.87,1.6-1.34,2.38s-.89,1.27-1.28,1.94a32.78,32.78,0,0,0-1.81,3.54c-.15.35-.32.7-.44,1.07a8.19,8.19,0,0,0-.26,1.06c0,.06,0,.13-.06.17a1.17,1.17,0,0,1-1-.2c-.07-.05-.2-.12-.19-.15.07-.29-.47-.72-.35-1a17.77,17.77,0,0,0,.48-1.77,2.59,2.59,0,0,1,.31-.65c.16-.27.36-.51.53-.77s1.12-2.09,2.12-3.67,2-3,2.07-3.11A2.35,2.35,0,0,1,257.07,202Z"/><path class="cls-1" d="M258,206.33c.67.93.69,1.24.57,1.44-.44.74-.82,1.4-1.19,2s-.78,1.13-1.12,1.74c-.58,1-1.09,2.13-1.58,3.22-.14.33-.3.65-.43,1s-.2.65-.3,1c0,.06,0,.13-.06.16a1.28,1.28,0,0,1-1-.3c-.07-.05-.19-.13-.19-.15.08-.26-.43-.7-.31-1a10.21,10.21,0,0,0,.45-1.55,2,2,0,0,1,.27-.58c.14-.24.33-.45.48-.68s1-1.89,1.83-3.34a17.44,17.44,0,0,1,2-2.82A2,2,0,0,1,258,206.33Z"/><path class="cls-1" d="M257.18,216.88a.89.89,0,0,1-1,.29c-.14,0-.35-.32-.3-.42a3.73,3.73,0,0,1,.3-.6c.08-.11,1.47-1.58,1.91-2.11s.89-1,1.34-1.45a17.86,17.86,0,0,0,2.4-3c.14-.23.25-.46.37-.64l0,0s0-.11.07-.22l.09-.35c0-.24.09-.48.13-.73a12.3,12.3,0,0,0,.12-1.48,1.46,1.46,0,0,0,0-.51c0-.14,0-.89,0-1.65s-.06-1.52,0-1.7a19.56,19.56,0,0,0-.09-2.65,1,1,0,0,1,0-.38,1.55,1.55,0,0,0,0-.83c-.07-.35-.13-.71-.21-1.13a2.93,2.93,0,0,1,0-.59c0-.18.25-.16.29-.11s.17,0,.25-.07l.1,0a9.5,9.5,0,0,1,.56,1.08,12.12,12.12,0,0,1,.51,1.3s.05.24.12.56.16.76.23,1.21c.16.89.26,1.83.28,2a3,3,0,0,1,0,.6c0,.1.13,2.81.08,2.92a6.29,6.29,0,0,1-.23,1.67,1.28,1.28,0,0,0-.06.33q0,.32-.09.63l-.05.32,0,.16-.07.27a7.83,7.83,0,0,1-.92,1.58c-.3.42-.6.83-.91,1.22-.06.07-.13.12-.19.18s-.17.16-.24.24c-.75.9-1.61,1.67-2.39,2.51-.18.21-1.21.94-1.42,1.16S257.27,216.75,257.18,216.88Z"/><path class="cls-1" d="M257.12,91.38c-2.46,6.78-11.31,12.17-16.57,16.9-5.79-12.35-8.73-23.74-1.47-36.37,2.69-4.69,10-18.36,11.41-20.45C257.36,56.63,260.41,82.31,257.12,91.38Z"/><path class="cls-1" d="M253.63,95.49a28.22,28.22,0,0,1,3.22-3.89c.36-.36.89-.11.73.49l-.24.86-.32.84a12.37,12.37,0,0,1-.79,1.64,16.66,16.66,0,0,1-1.33,1.87,36.79,36.79,0,0,1-3.1,3.38c-2.45,2.37-5.35,4.72-6.76,5.93l-2.4,2-2,1.76-.51.44L240,111s-.05.06-.06,0l0-.08-.13-.29-.54-1.16-1.08-2.35-.38-.85-.28-.64q-.56-1.27-1.05-2.58a48.66,48.66,0,0,1-3-11.06,31.36,31.36,0,0,1,.44-11.66,27.92,27.92,0,0,1,1.66-4.92c.32-.67.62-1.35,1-2l1.06-1.93,2.1-3.66c1.38-2.45,2.72-4.92,4.06-7.41.44-.83.92-1.66,1.28-2.5.13-.32.63-1.28,1.34-2.59l1.21-2.2.38-.68.71-1.21c.49-.78,1-1.57,1.5-2.37.81.67,1.62,1.38,2.38,2.08.37.36.67.79,1,1.18l.24.3.13.2.26.39a21.77,21.77,0,0,1,1.59,3,29.88,29.88,0,0,1,1.4,3.9,73,73,0,0,1,2.33,14.88A14,14,0,0,1,259.5,77c-.17,1.52-.08,3.05-.12,4.59a37.44,37.44,0,0,1-.63,6.42,14.12,14.12,0,0,1-1,3c-.4.88-.58.25-.52-.06.18-.94-.22-.25-.39-.23s-.14,0-.16,0a3.69,3.69,0,0,1,.1-.53c0-.33.15-.78.22-1.35a34.8,34.8,0,0,0,.29-4.22c.06-3.14-.27-6.44-.29-7.09,0-.08-.07-1.22-.24-2.92s-.47-3.95-.89-6.22A62.42,62.42,0,0,0,254.35,62a35,35,0,0,0-1.26-3.57c-.38-.92-.74-1.85-1.18-2.71.08.05-1.21-2-1.14-1.66a.69.69,0,0,1-.05.13l0,.06-.34.63-1.6,3-2,3.75c-1.44,2.56-2.76,5.19-4.36,7.65-.32.48-.6,1-.88,1.53a55.06,55.06,0,0,0-3.3,6.55,29,29,0,0,0-1.76,6.93,26.89,26.89,0,0,0,.15,7.33c0,.44.09.89.17,1.33s.14,1.12.28,1.67a56.88,56.88,0,0,0,2.72,8.48l.88,2.08.2.46.13.28s0,.11.07.12l.09-.09.17-.16.11-.1.44-.37.89-.74c.54-.46,2.18-1.67,3.8-2.9s3.17-2.55,3.74-3.1c.3-.32,1.07-.89,1.76-1.5A11.18,11.18,0,0,0,253.63,95.49Z"/><path class="cls-1" d="M238.34,127.19c-.47,2.72-.87,5.45-1.24,8.19-.13,1-.18,2-.31,3-.43,3.52-.84,7.06-1.13,10.61-.13,1.57-.2,3.16-.23,4.73a48.82,48.82,0,0,1-.26,6C235,161,233,159.37,233,157a110.41,110.41,0,0,1,1-12.4c.35-2.47.48-5.07.78-7.6.31-2.79.71-5.57,1.13-8.34.28-1.71.56-3.41.86-5.11.45-2.58,1-5.15,1.5-7.7.37-2,.73-3.93,1.1-5.9.08-.44.17-.86.28-1.29.41-1.6.69-2.07,1.33-2.24a2.64,2.64,0,0,1,.44-.12c.46,0,.63.72.43,1.9-.6,3.48-1.36,7.1-2.06,10.76-.27,1.36-.52,2.72-.76,4.09s-.47,2.74-.69,4.12Z"/><path class="cls-1" d="M253.44,133.93c-1.32,1.91-2.6,3.85-3.79,5.85-.43.74-.83,1.48-1.25,2.22-1.52,2.59-3,5.22-4.3,7.91-.59,1.2-1.11,2.43-1.58,3.66a49.42,49.42,0,0,1-1.84,4.74c-.48.95-2-1-1.32-2.88a58.1,58.1,0,0,1,4.57-9.59c1.09-1.82,2-3.82,3.1-5.7,1.21-2.06,2.46-4.09,3.78-6.07.8-1.23,1.65-2.43,2.5-3.62,1.29-1.81,2.69-3.56,4.07-5.29,1.09-1.32,2.09-2.69,3.25-4,.26-.28.47-.59.76-.85,1.05-1,1.48-1.16,2.07-.92a2.3,2.3,0,0,1,.39.17c.38.26.19.91-.46,1.65-1.91,2.23-3.92,4.56-5.81,7l-2.1,2.79c-.66,1-1.35,1.9-2,2.88Z"/><path class="cls-1" d="M261.63,121.68c7.6-4.23,16.36-6.18,24.1-10.15,9-4.61,13.38-11.7,16.44-20.64C302.17,90.89,270.34,91.68,261.63,121.68Z"/><path class="cls-1" d="M266.15,120.45a9,9,0,0,1-4.21,1.25.46.46,0,0,1-.29-.83,27.54,27.54,0,0,1,2.41-1.71c.26-.15,2.52-1.32,5.14-2.42s5.53-2.26,7-2.87c2.82-1.18,5.63-2.31,8.29-3.64A28,28,0,0,0,297.1,98.16c.65-1.16,1.26-2.34,1.84-3.55.25-.52.5-1,.72-1.58l0-.1h0v0l0,0,.06-.09c0-.07.11-.18,0-.15a2.24,2.24,0,0,0-.27,0l-.13,0-.35,0-.86.12q-.85.14-1.71.3c-1.14.22-2.27.49-3.39.79a16,16,0,0,0-2.19.71c-.56.25-3.84,1.33-7,2.88a51.05,51.05,0,0,0-6.66,4,38.13,38.13,0,0,0-4.66,3.76,40,40,0,0,0-4,4.52c-.36.44-.66,1-1,1.37a13.73,13.73,0,0,0-2.06,3.12l-1.17,2.34L263.33,119c-.33.8-.71,1.58-1.09,2.36s-.56.21-.52-.07c.14-.8-.23-.23-.4-.2s-.13,0-.16,0a3.78,3.78,0,0,1,.09-.47l.29-1.18c.21-1,.67-2.27,1.1-3.6a36.41,36.41,0,0,1,2.65-5.71c.06,0,.53-1,1.43-2.19.43-.63.95-1.35,1.56-2.09s1.26-1.52,2-2.28a44.5,44.5,0,0,1,7.07-6.1,20.57,20.57,0,0,1,2.4-1.4,51.78,51.78,0,0,1,5.91-3,50.19,50.19,0,0,1,6.29-2.23c1.24-.33,2.49-.63,3.75-.88.63-.11,1.26-.22,1.9-.3l1-.1,1.3-.09c.79,0,1.82-.14,2.68-.17l1.44-.06h.36c.1,0,0,.08,0,.12l-.06.17-.22.69c-.31.92-.56,1.81-.92,2.77l-.5,1.29c-.1.25-.2.51-.31.76-.22.5-.43,1-.67,1.51a39.46,39.46,0,0,1-3.28,5.79,32.91,32.91,0,0,1-4.41,5.25c-.3.28-.64.53-.95.79s-.83.63-1.23,1a34.18,34.18,0,0,1-6.88,4.16c-2.39,1.12-4.83,2.09-7.25,3.05-1.12.46-6.53,2.14-7.76,2.69C269.18,119.52,266.73,120.11,266.15,120.45Z"/><path class="cls-1" d="M254.49,146.51c1.06-1.17,2.16-2.3,3.27-3.43.4-.41.77-.86,1.18-1.26,1.47-1.41,3-2.75,4.57-4,.69-.58,1.37-1.18,2-1.79a10.47,10.47,0,0,1,2.82-2c.67-.29,1,2,.05,2.67-1.76,1.35-3.5,2.78-5.35,4.18a30.25,30.25,0,0,0-3.05,2.95c-1.09,1.1-2.18,2.23-3.24,3.38-.64.72-1.29,1.42-1.91,2.16-1,1.11-1.89,2.23-2.73,3.41a31,31,0,0,0-1.71,2.87c-.12.21-.22.43-.35.63-.46.78-.73.95-1.32.81a2.34,2.34,0,0,1-.4-.1c-.43-.16-.53-.67-.27-1.31a25.06,25.06,0,0,1,3.3-5.41c1-1.26,2-2.49,3.06-3.69Z"/><path class="cls-1" d="M266.1,136.66c6.2-2.23,12.85-2.47,19.11-4.47,7.26-2.32,11.65-7.3,15.4-13.92C300.61,118.27,277.56,114.17,266.1,136.66Z"/><path class="cls-1" d="M269.74,136.51a5.32,5.32,0,0,1-3.39.24.49.49,0,0,1-.18-.85,18.67,18.67,0,0,1,2-1.09,41.6,41.6,0,0,1,4.23-1.22c2.13-.53,4.48-1,5.65-1.32,2.28-.54,4.52-1.05,6.67-1.74a20.89,20.89,0,0,0,5.94-3,24.71,24.71,0,0,0,4.8-4.68c.62-.8,1.25-1.6,1.85-2.43l.4-.54c.07-.1,0,0,.08-.08a.4.4,0,0,0,.12-.11c.17-.14,0-.13-.12-.15l-.09,0h-.41c-.44,0-.88,0-1.32,0a25.92,25.92,0,0,0-2.63.15,7.63,7.63,0,0,0-1.72.28c-.22.08-1,.16-2,.42l-1.68.38-1.85.55a16.27,16.27,0,0,0-1.82.66c-.59.23-1.15.43-1.64.64-.95.49-1.68.85-2,1a27.55,27.55,0,0,0-7.47,5.22,6.68,6.68,0,0,1-1,.89,5.19,5.19,0,0,0-.59.42c-.17.17-.33.35-.48.53-.3.37-.59.76-.88,1.14l-1.24,1.58c-.36.56-.73,1.12-1.09,1.69a18.42,18.42,0,0,1-1.26,1.57c-.39.47-.55,0-.48-.18.21-.59-.2-.24-.37-.25s-.12,0-.15-.07.2-.49.52-1.2l1.25-2.62c.55-.92,1.15-1.85,1.64-2.6a9.3,9.3,0,0,1,1-1.47l1.37-1.49a18.4,18.4,0,0,1,1.4-1.44l1.77-1.53a15.08,15.08,0,0,1,1.91-1.43l1.81-1.23,2.36-1.28a10.53,10.53,0,0,1,2-.8l1.58-.64c.92-.28,2.1-.7,3.31-1a40,40,0,0,1,5.11-.95c1-.05,2-.17,3-.16.5,0,1,0,1.5,0a22.75,22.75,0,0,1,2.27.26c.64.13,1.36.19,2,.29l1.08.16.28,0H303l0,.06-.06.12-.25.48c-.35.65-.63,1.27-1,1.94l-1.19,2-.71,1.05a34.32,34.32,0,0,1-3.25,4,27.43,27.43,0,0,1-4,3.55,6.91,6.91,0,0,1-.82.5l-1,.61a24.58,24.58,0,0,1-5.78,2.44c-2,.58-4,1-5.92,1.44-.91.21-5.24.71-6.24,1C272.15,136.28,270.22,136.31,269.74,136.51Z"/><path class="cls-1" d="M260.48,153.6c0,3.24-26.09,11.13-34.36,12.33-6.78,1-14,2-20.77.57,3-1.84,41.1-10.15,43.69-10.94C260.45,152.08,260.48,153.26,260.48,153.6Z"/><path class="cls-1" d="M259.45,153.66c-.39,2.07-7,3.9-8.62,4.5-4.28,1.62-8.66,3-13.07,4.24-10.25,2.91-21.45,5.31-32.07,3.33l.12,1.41c3-1.64,7-2.17,10.28-3,5.85-1.47,11.73-2.84,17.61-4.2,2.28-.53,25.78-5.44,25.75-6.28,0,1.1,2.1.83,2.06-.13-.11-3.14-19.33,2.89-22.5,3.62-7,1.62-14,3.23-21,4.94-4.2,1-9.3,1.69-13.15,3.78-.7.38-.76,1.24.11,1.41,12.1,2.24,24.94-.89,36.53-4.4a114.12,114.12,0,0,0,14.62-5.25c1.73-.8,5-1.95,5.36-4.1C261.71,152.48,259.63,152.71,259.45,153.66Z"/><path class="cls-1" d="M252.85,121.27l-1.15,2.22-1.08,2.27c-.73,1.5-1.37,3-2,4.6-.5,1.12-.85,2.3-1.3,3.43-1.55,4-3,8.12-4.2,12.28-.56,1.84-1,3.73-1.43,5.58-.53,2.4-.94,4.83-1.68,7.18-.47,1.46-2.07-.86-1.47-3.66a111.9,111.9,0,0,1,4.21-14.61c1-2.87,2-5.9,3.09-8.82.58-1.61,1.31-3.17,2-4.76s1.42-3.13,2.17-4.67c1-1.89,1.93-3.77,3-5.59a93.94,93.94,0,0,1,5.24-8l2.22-3c.72-1,1.56-1.89,2.35-2.84a11.15,11.15,0,0,1,1.08-1.2c1.47-1.41,2.05-1.74,2.74-1.6a2.21,2.21,0,0,1,.46.1c.42.21.07,1-.9,2.09A90.49,90.49,0,0,0,258,112.62c-.9,1.4-1.81,2.81-2.66,4.25s-1.7,2.9-2.43,4.42Z"/><path class="cls-1" d="M233.53,132.69c-.53,2.35-1,4.7-1.49,7.06l-.43,2.59c-.57,3-1.08,6.09-1.47,9.15-.18,1.36-.27,2.74-.32,4.1-.08,1.74,0,3.49-.19,5.21-.11,1.1-2-.26-1.93-2.34a64.58,64.58,0,0,1,1.21-10.83c.42-2.14.66-4.38,1.05-6.57.43-2.4.91-4.8,1.43-7.18l1-4.4c.51-2.21,1-4.43,1.52-6.63.39-1.71.64-3.41,1-5.11.07-.38.13-.75.22-1.12.31-1.39.55-1.8,1.1-2a2,2,0,0,1,.38-.11c.41,0,.57.61.43,1.64-.43,3.07-1.15,6.24-1.85,9.42-.54,2.36-1.08,4.73-1.58,7.11Z"/><path class="cls-1" d="M222.32,148.57c.37-1.48.79-2.94,1.23-4.4.16-.53.27-1.08.44-1.61.62-1.85,1.31-3.69,2-5.5.33-.8.61-1.63.9-2.44a12.69,12.69,0,0,1,1.32-3.05c.39-.58,1.68,1,1.2,2.1-.83,2-1.66,4.06-2.59,6.1a29.48,29.48,0,0,0-1.27,3.89q-.66,2.16-1.23,4.35c-.23.89-.45,1.8-.65,2.7-.29,1.38-.59,2.76-.76,4.14a31.72,31.72,0,0,0-.17,3.22c0,.24,0,.47,0,.7,0,.88-.19,1.15-.7,1.3-.12,0-.24.08-.35.1-.39.06-.68-.33-.74-1a25.61,25.61,0,0,1,.38-6.08c.24-1.52.57-3,.91-4.52Z"/><path class="cls-1" d="M222.47,151.72c-.36-.49-2.53-2.4-3.13-8.2s-1.78-5.89-1.78-5.89S224.28,143.52,222.47,151.72Z"/><path class="cls-1" d="M222.1,150.36a1.43,1.43,0,0,1,.4,1.24c0,.17-.33.34-.43.29a3.65,3.65,0,0,1-.74-.49,8.6,8.6,0,0,1-1-1.38,14.23,14.23,0,0,1-1-2.07,12.79,12.79,0,0,1-.74-2.69c-.16-.93-.25-1.86-.36-2.7a24.23,24.23,0,0,0-.49-2.51c-.09-.35-.19-.69-.28-1a2.8,2.8,0,0,0-.18-.45l-.07-.12s0,0,0,0,.11-.12.15-.19a1.59,1.59,0,0,0,.13-.22l.06-.13a.29.29,0,0,0,0-.09v0h0c-.35,1.48-.09.41-.17.74h.12l.69-1.62a24.74,24.74,0,0,1,2,2.2,5,5,0,0,0,.47.55,10.33,10.33,0,0,1,1.29,2,10.86,10.86,0,0,1,1,2.26,14.89,14.89,0,0,1,.59,3.75,1.94,1.94,0,0,1,0,.54,6.32,6.32,0,0,0-.13,1.14,6.42,6.42,0,0,1-.24,1.58,4.27,4.27,0,0,1-.29.73c-.1.22-.3,0-.31,0,0-.24-.16-.07-.25-.07a.15.15,0,0,1-.1,0s0-.75,0-1.49-.13-1.51-.16-1.66,0-.28-.07-.67-.17-.91-.26-1.43a18.41,18.41,0,0,0-.81-2.28,4.93,4.93,0,0,1-.27-.67,11.56,11.56,0,0,0-.87-1.5,15.53,15.53,0,0,0-1-1.41c-.39-.55-.87-1-1.23-1.59a1.48,1.48,0,0,0-.27-.29l-.2-.19-2.37-2.14,3.07.47a1.09,1.09,0,0,1,.48.16,1.4,1.4,0,0,1,.22.14,2.44,2.44,0,0,1,.28.27,3.17,3.17,0,0,1,.34.5,6.33,6.33,0,0,1,.4.91,15.35,15.35,0,0,1,.43,1.75c.12.65.23,1.28.32,1.92,0,.11,0,.23,0,.34a3.24,3.24,0,0,0,0,.44,17.41,17.41,0,0,0,.83,4.18,12,12,0,0,0,.73,2.08C221.8,149.53,222,150.24,222.1,150.36Z"/><path class="cls-1" d="M214.23,323c1,.12,1.5.88,1.82,2.07.1.38-.26,1.25-.57,1.26a12.41,12.41,0,0,1-1.83,0,54.78,54.78,0,0,1-7.31-2.88,36.66,36.66,0,0,1-4.78-2.67c-3.06-2.06-6.11-4.13-9-6.39a17.44,17.44,0,0,1-1.85-1.59c-2-2-4.12-3.75-6.28-5.5a5,5,0,0,0-1.13-.82c-.74-.27-6.33-5.34-6.93-6.13-1.58-1.86-3.2-3.67-4.75-5.55a2.66,2.66,0,0,1-.62-.84,5,5,0,0,0-1.29-1.85,25.66,25.66,0,0,1-2-2.42,7,7,0,0,1-.68-1.43c-.19-.45.41-.66.57-.59.45.22.4-.25.55-.44s.12-.16.19-.19a26.46,26.46,0,0,1,2.55,1.8c1.27.93,2.57,1.92,2.81,2.15l1.05,1c.61.57,1.43,1.33,2.29,2.08,1.69,1.53,3.51,3.07,3.88,3.38A8.5,8.5,0,0,1,182,298.5c.08.09,1.44,1.22,2.81,2.35l2.88,2.29a20.32,20.32,0,0,1,3.09,2.92,2.59,2.59,0,0,0,.63.56c1,.74,1.9,1.51,2.82,2.3l2.81,2.32c1,.8,2,1.45,3,2.19.18.13.32.3.49.45a4.85,4.85,0,0,0,.65.55,69.37,69.37,0,0,0,7.37,4.68c.3.15,1.08.7,1.89,1.27a15.7,15.7,0,0,0,2,1.2C212.84,321.74,213.82,323,214.23,323Z"/><path class="cls-1" d="M169,320.37a2.72,2.72,0,0,1-.62-3c.11-.38.92-.87,1.21-.69a15.34,15.34,0,0,1,1.59,1.09c.25.28,4.14,4.71,5.57,6.1s2.64,2.82,3.92,4.27c2.62,2.94,5.39,5.74,8.22,8.47.61.62,1.24,1.23,1.81,1.89a34.22,34.22,0,0,0,3.16,3.21c1.1,1,2.24,2,3.43,2.91a5.57,5.57,0,0,0,1.24.85c.36.18,2.15,1.49,4,2.85s3.67,2.64,4.06,3c1,.83,2,1.62,3.06,2.42s2.13,1.5,3.19,2.26a3.31,3.31,0,0,1,.89.67,5.55,5.55,0,0,0,2,1.41c1,.57,2,1.06,2.94,1.62a8.94,8.94,0,0,1,1.33,1.09c.4.35-.06.79-.25.78-.54,0-.26.39-.31.64a.46.46,0,0,1-.08.24,28.48,28.48,0,0,1-3.47-.79c-1.71-.53-3.49-1.17-3.82-1.34,0,0-.63-.29-1.48-.76s-2-1.05-3.13-1.69l-3.2-1.91c-.93-.56-1.6-1-1.85-1.16a10.07,10.07,0,0,1-1.36-1.1c-.26-.1-6.64-4.64-6.84-4.89a19.89,19.89,0,0,1-3.54-3.32,3.65,3.65,0,0,0-.7-.66,77.6,77.6,0,0,1-5.95-5.8c-1-1-2-2-3-3a7,7,0,0,1-.48-.6,8.69,8.69,0,0,0-.61-.75c-1.17-1.19-2.25-2.48-3.37-3.72s-2.17-2.55-3.3-3.79c-.53-.58-2.5-3.72-3.06-4.41C169.77,322.34,169.29,320.68,169,320.37Z"/><path class="cls-1" d="M210.22,180c5.82,2.44,13,1,18.62-1.05,1.59-.58.18-1.79-1.06-1.34-4.89,1.79-11.09,2.93-16.11.82-1-.41-2.87,1-1.45,1.57Z"/><path class="cls-1" d="M264.15,162.81a8.23,8.23,0,0,1-.2,1.25,7,7,0,0,1-.47,1.2,7.5,7.5,0,0,1-1.48,1.91,9.85,9.85,0,0,1-1.25,1.1,20.2,20.2,0,0,1-5.05,2.25c-.77.24-1.52.5-2.27.75a8.53,8.53,0,0,1-3,.65c-.64,0-.19-2.19.84-2.44,1.88-.45,3.73-.95,5.6-1.49a9.66,9.66,0,0,0,3-1.72,5.1,5.1,0,0,0,2-2.77l.1-.51,0-.6c0-.41,0-.81,0-1.21a13.58,13.58,0,0,0-.6-3.63,12.37,12.37,0,0,0-1.26-2.52c-.11-.18-.24-.34-.34-.52-.39-.65-.39-.9,0-1.35.09-.1.17-.22.26-.31.32-.32.83-.22,1.26.26a12.08,12.08,0,0,1,2.46,5.25,16.54,16.54,0,0,1,.35,4.45Z"/><path class="cls-1" d="M252.76,172.63c-.56.19.6-.09.79-.13a16.4,16.4,0,0,0,6.52-2.87c.54-.38.24-.82-.26-1a2.63,2.63,0,0,0-2.05.55,11.4,11.4,0,0,1-3.93,1.79,20.67,20.67,0,0,0-2.2.52c-.43.15-1.11.6-.78,1.11s1.52.14,1.91,0Z"/><path class="cls-1" d="M221.39,415.89l.25,3.27c-.07,1.78,1.28,5-1.71,3.82l-7.38-.78-12.78-1.35-25.55-2.71-9.33-.94-5.95-.6-.51-.05c-.07,0-.2,0-.23,0l.07-.25.25-1,.52-2,.23-1.21c.07-.37.15-.73.2-1.11.83-5.35,1.29-10.84,1.72-16.31s.77-11,1.07-16.46q.9-16.47,1.46-33c.34-9.76.57-19.58.74-29.27.21-12.46.24-25,.69-37.4.27-7.76,2.75,2.11,2.53,16.48-.41,25.45-1.1,50.88-2.55,76.51-.45,7.66-.87,15.49-1.42,23.36-.28,3.93-.6,7.88-1,11.83-.22,2-.46,3.95-.83,5.94l-.14.75c0,.12,0,.28,0,.24l0,.12-.12.46a3.2,3.2,0,0,0,.46.06l1,.11,51.49,5.4,3.77.4.46.05.23,0h.17v-.06l-.06-.92-.63-7.9q-.66-7.94-1.31-15.87c-1.37-16-2.78-32.11-4.41-48-1.26-12.35-2.73-24.42-4.26-36.58-.35-2.68-.69-5.3-1-8-1.26-10-1.57-13.2-1.13-15.45a12.94,12.94,0,0,1,.29-1.48c.42-1,1.42,3,2.54,10.3,3.22,21.73,5.65,44.75,7.87,67.87,1.64,17.17,3.11,34.44,4.51,51.68Z"/><path class="cls-1" d="M214.85,295.7a17.78,17.78,0,0,1,.05-6c.11-.55.59-.5.71.15.25,1.27.5,2.55.7,3.85.09.8,1.62,13.44,2.29,17.71s1.13,8.3,1.7,12.46c1.11,8.44,2.38,16.87,3.66,25.3l.8,5.62c.84,6.44,1.86,12.85,3,19.25.18,1.07.35,2.17.59,3.19.37,1.68,3.33,19.05,3.67,21.31q1.26,8.4,2.64,16.81c.13.8.31,1.64.36,2.38.12,1.1.27,2.14.43,3.15-.83-.17-1.64-.32-2.45-.47l-1.78-.3c-2.39-.4-4.79-.76-7.17-1-1.19-.13-2.35-.3-3.51-.38s-.5-.37-.12-.41c1.09-.11.2-.23.09-.35s-.08-.1,0-.13a3,3,0,0,1,.47-.05c.3,0,.72,0,1.23,0,1,0,2.42.05,3.93.16s3.14.27,4.64.44l2,.25.43,0c-.05-.21-.09-.34-.1-.39-.07-.36-3.76-20.12-4.18-22.36-.22-1.19-.39-2.41-.57-3.61-.1-.56-2.95-16.65-3.06-17.3-.54-3.34-1.14-6.68-1.51-10-.07-.66-.19-1.34-.3-2-.94-5.75-1.78-11.51-2.59-17.27l-1.3-8.82c-.06-.53-.13-1.07-.19-1.6s-.15-1.34-.25-2c-1-7-1.86-14-2.79-20.94-.25-1.61-.89-9.33-1.12-11.19C215,300.07,215,296.63,214.85,295.7Z"/><path class="cls-1" d="M169,350.21a2.89,2.89,0,0,1-.7-3.14c.11-.39.94-.84,1.23-.66a18.3,18.3,0,0,1,1.61,1.13c.08.06.34.4.79.88l1.66,1.74c1.24,1.31,2.78,2.68,3.51,3.39,1.55,1.3,2.92,2.75,4.41,4.11l2.23,2.11,2.3,2c1.52,1.38,3.14,2.65,4.7,4,.7.6,1.4,1.18,2.05,1.82a54.49,54.49,0,0,0,7.33,5.89,6.09,6.09,0,0,0,1.34.8c.77.37,7.83,5,8.73,5.65,1.07.85,2.2,1.61,3.32,2.37l1.7,1.14L217,384.5a3.44,3.44,0,0,1,1,.65,4.87,4.87,0,0,0,2.1,1.36c1,.5,2.08,1,3.13,1.49a9,9,0,0,1,1.46,1,.45.45,0,0,1-.17.8c-.56,0-.23.42-.24.67a.66.66,0,0,1-.06.25,5.59,5.59,0,0,1-1.16-.13c-.68-.12-1.62-.23-2.53-.47a33.09,33.09,0,0,1-4.07-1.22l-1.57-.73c-.91-.42-2.13-1-3.32-1.63-2.44-1.23-4.87-2.66-5.39-2.93a10.74,10.74,0,0,1-1.48-1.05c-.11-.09-1.9-1.18-3.7-2.28s-3.53-2.29-3.67-2.38a23.33,23.33,0,0,1-3.9-3.19,4.24,4.24,0,0,0-.77-.63c-2.31-1.72-4.5-3.6-6.63-5.54-1.1-1-2.26-1.88-3.35-2.87-.2-.18-.36-.4-.55-.59a8,8,0,0,0-.7-.73c-2.63-2.29-5-4.87-7.55-7.27a26.28,26.28,0,0,1-1.74-2.16l-1-1.35c-.3-.41-.55-.75-.71-.93C170,352.24,169.4,350.51,169,350.21Z"/><path class="cls-1" d="M168.19,384.17c-.86-.48-1.06-1.4-.82-2.57.07-.38.8-1,1.07-.89a12.74,12.74,0,0,1,1.56.64c.28.17,4.2,3.4,5.6,4.41s2.59,2.08,3.86,3.17c2.54,2.22,5.2,4.3,7.87,6.36a19.7,19.7,0,0,1,1.73,1.44,27.89,27.89,0,0,0,3,2.46c1.05.74,2.09,1.5,3.2,2.14a4.15,4.15,0,0,0,1.15.58c.67.23,6.61,3.77,7.38,4.23a60.9,60.9,0,0,0,5.7,3.55,2.17,2.17,0,0,1,.8.52,3.63,3.63,0,0,0,1.75,1.15,28.38,28.38,0,0,1,2.62,1.23,6.86,6.86,0,0,1,1.18.94c.35.3-.06.78-.22.79-.47,0-.23.41-.27.66a.56.56,0,0,1-.07.24,20.68,20.68,0,0,1-3-.43c-.76-.14-1.55-.28-2.17-.43a9.94,9.94,0,0,1-1.22-.37l-1.32-.53c-.76-.32-1.81-.69-2.82-1.16-2-.95-4.18-1.91-4.6-2.13a7.64,7.64,0,0,1-1.25-.85c-.09-.07-1.65-.86-3.19-1.68l-3.14-1.81a15.12,15.12,0,0,1-3.32-2.53,2.94,2.94,0,0,0-.66-.5c-1-.64-1.94-1.38-2.88-2.11s-1.87-1.48-2.77-2.26-1.92-1.49-2.86-2.26c-.16-.14-.3-.32-.45-.48a6.57,6.57,0,0,0-.59-.59c-1.12-.89-2.2-1.84-3.26-2.81s-2.13-1.92-3.25-2.83c-.52-.41-2.51-2.89-3.09-3.39C169.07,385.8,168.52,384.37,168.19,384.17Z"/><path class="cls-1" d="M186.47,419.21l1,35.26s25.9,11,19.16,11.84c-17.9.42-24-7.74-24-7.74v5.9h-1.95l-1-46.32Z"/><path class="cls-1" d="M185.73,425.56a14.43,14.43,0,0,1,.59-6c.17-.55.77-.48.87.18.2,1.28.39,2.58.54,3.9.09.81.72,13.58,1,17.91.12,2.1.21,4.2.29,6.3l.18,5.46h0l1.92.85,2.92,1.31c1.94.89,3.87,1.8,5.78,2.76s3.83,1.94,5.72,3.1l.42.26.56.36c.43.29.86.6,1.25.91a5.08,5.08,0,0,1,1.6,1.91,2.43,2.43,0,0,1,.16.91,2.05,2.05,0,0,1-.27,1,2.3,2.3,0,0,1-.61.7l-.19.13-.32,0-.62.06-2.26.22-1.12.11a5.36,5.36,0,0,1-1,.05c-1-.08-2-.15-2.93-.26a42,42,0,0,1-9.66-2.34,30.66,30.66,0,0,1-4.55-2.19c-.36-.22-.72-.46-1.07-.69l-.25-.17-.06,0-.12-.09a1.23,1.23,0,0,1-.26-.21l0,0a.72.72,0,0,0,.08.43l0,0v0h0v.17c0,.91,0,2.08,0,3.49l-5.29,0c-.08-3.38-.19-7.85-.28-11.71-.07-3.31-.11-6.1-.1-6.92q0-8.54.05-17.07a21.43,21.43,0,0,1,0-2.42,39.57,39.57,0,0,0,.11-5.23c0-1.9,0-3.79,0-5.68l3.64.64c1.19.23,2.34.55,3.5.84s.41.54,0,.53c-1.1-.06-.25.25-.17.42s.06.13,0,.16a3.53,3.53,0,0,1-.54,0l-1.38-.13-2-.2-.28,0h-.42l-.52,0,.09.69,0,.15v.26l.05.76c.07,1,.13,2,.19,2.83.1,1.74.18,3.09.19,3.51s.68,20.83.76,23.15c.05,1.22,0,2.44,0,3.66,0,.16.05,1.64.12,3.6,0,1,.07,2.08.11,3.2,0,.54,0,1.08,0,1.61l0,.08-1.4,0v-.11c0-.3,0-.59,0-.87,0-1.33,0-2.45,0-3.36,0-1.82,0-2.81,0-3v-1.69l2.21,2.67,1,1.12.49.55.24.27.22.18.86.69.44.35.2.16.11.08.89.58a40.75,40.75,0,0,0,3.82,2,13.29,13.29,0,0,0,1.8.66,40.66,40.66,0,0,0,8.23,1.54l2.1.16.6,0h.31a.26.26,0,0,0,.15,0c0-.1-.06-.17-.13-.24l-.13-.11-.07,0-.27-.18c-.6-.37-1.23-.73-1.87-1.08-1.27-.71-2.58-1.38-3.9-2l-1.41-.74c-.59-.31-1.19-.63-1.79-.92l-4-1.84-2-.9-2.84-1.24-.19-7q-.1-3.08-.22-6.15c-.07-1.62,0-9.37-.11-11.25C185.52,429.93,185.83,426.49,185.73,425.56Z"/><path class="cls-1" d="M206.92,421.42l1,35.26s25.9,11,19.16,11.84c-17.89.42-24-7.74-24-7.74v5.9h-2l-2-46.32Z"/><path class="cls-1" d="M206.19,427.82a14.5,14.5,0,0,1,.58-6c.18-.56.77-.48.87.18.2,1.3.39,2.61.54,3.93.09.81.73,13.67,1,18,.12,2.11.21,4.22.29,6.34l.17,5.26,2,.87,3,1.34q3,1.35,5.88,2.8c2,1,3.85,2,5.84,3.2l.54.35.66.45a15,15,0,0,1,1.19.95,3.66,3.66,0,0,1,1.24,1.92,2.18,2.18,0,0,1,0,1,2.23,2.23,0,0,1-.48.92,2.5,2.5,0,0,1-.34.31,1.37,1.37,0,0,1-.2.13l-.32,0-1.28.13-2.27.22-1.13.11c-.29,0-.5,0-.76-.05-1-.09-2-.12-3-.29a39.73,39.73,0,0,1-9.41-2.37,31.13,31.13,0,0,1-4.42-2.16l-1.05-.68-.25-.17-.11-.09a1.45,1.45,0,0,1-.25-.2l0-.05s0,.05,0,.07a.7.7,0,0,0,.08.43s0,0,0,.14,0,.49,0,.8q0,1.06,0,2.73l-5.24,0c-.15-3.33-.37-8-.55-12-.15-3.5-.26-6.49-.27-7.34q-.16-8.59-.32-17.19c0-.81-.08-1.69,0-2.43a40.45,40.45,0,0,0,0-5.28l-.15-4.78,2.71.4,1.92.32c1.2.2,2.36.5,3.53.77s.43.54,0,.53c-1.11,0-.25.25-.16.42s.06.13,0,.16a6,6,0,0,1-.64,0L204,421.8l-2.31-.19-.62-.05h-.85l.09.61,0,.28.06.69c.08.91.15,1.78.22,2.55.13,1.55.22,2.74.23,3.12s1.14,21,1.27,23.3c.08,1.22.08,2.46.09,3.68,0,.18.1,1.84.22,4,.06,1.07.12,2.26.19,3.44,0,.59.07,1.17.1,1.73l0,.07-1.38,0v0h0v-.57c0-1.2,0-2.19,0-3,0-1.58,0-2.38,0-2.56v-2.9l2.08,2.51c.18.23.34.41.49.57l.46.52.91,1,1.64,1.31.86.58a34.87,34.87,0,0,0,3.55,2,10.39,10.39,0,0,0,1.81.69,40.25,40.25,0,0,0,8.25,1.67l2.13.16.44,0h.46a1.82,1.82,0,0,0,.53,0c.13-.05,0-.18,0-.23a1.59,1.59,0,0,0-.31-.24l-.82-.5-.94-.54c-1.28-.72-2.6-1.39-3.92-2.06l-1.42-.75c-.6-.32-1.2-.64-1.81-.93l-4.14-1.91-2.08-.93-2.91-1.27-.18-6.95q-.12-3-.22-6.07c-.07-1.63,0-9.44-.12-11.32C206,432.21,206.28,428.75,206.19,427.82Z"/><path class="cls-1" d="M336.36,401.26a18.4,18.4,0,0,0,9.15,2.64c3.6,0,7.14-.82,10.76-.86,3.3,0,4.45-4.3.51-4.25-5.62.06-10.75,1.93-16-.88-2.22-1.2-7.3,1.82-4.46,3.35Z"/><path class="cls-1" d="M342.78,419.38c.5,3,1,6.07,1.52,9.1.19,1.1.47,2.19.65,3.29.64,3.9,1.23,7.81,1.89,11.71.29,1.73.67,3.45,1.07,5.14a36.14,36.14,0,0,1,1.3,6.58c.07,1.41-3.31.3-3.86-2.22a129.3,129.3,0,0,1-2.23-13.55c-.29-2.74-1-5.52-1.49-8.29-.55-3-1.07-6.1-1.6-9.15-.33-1.87-.65-3.75-1-5.62-.52-2.84-1-5.7-1.62-8.49-.48-2.18-1.14-4.27-1.72-6.39-.12-.47-.28-.93-.39-1.4-.42-1.76-.32-2.37.44-2.92a3.54,3.54,0,0,1,.52-.37c.61-.3,1.3.31,1.75,1.57a86.55,86.55,0,0,1,3.1,11.86c.62,3,1.16,6.09,1.74,9.14Z"/><path class="cls-1" d="M390,434.13c.56-2.79,1.13-5.58,1.67-8.37.2-1,.31-2.06.52-3.08.73-3.58,1.51-7.16,2.22-10.75.32-1.6.55-3.21.75-4.81a30.92,30.92,0,0,1,1-6.13c.41-1.24,3.21.86,2.86,3.22a110.64,110.64,0,0,1-2.53,12.47c-.67,2.47-.95,5.11-1.43,7.68-.52,2.82-1.08,5.63-1.62,8.45-.33,1.73-.67,3.47-1,5.2-.47,2.63-1,5.26-1.37,7.89-.29,2-.39,4.07-.57,6.11-.05.44-.05.89-.11,1.34-.21,1.66-.51,2.15-1.41,2.37a5.06,5.06,0,0,1-.62.15c-.67.05-1.1-.71-1.1-1.95a73.73,73.73,0,0,1,1.14-11.31c.45-2.83,1-5.66,1.48-8.48Z"/><path class="cls-1" d="M403.9,378a25.88,25.88,0,0,1-.27,10.59c-2.32,9.56-10.79,10.92-19.44,9.12-1-.21-3.41,1.29-1.75,1.63,8.44,1.77,18.75,1.28,22.89-7.6a24.83,24.83,0,0,0,1.47-14.51c-.2-1.05-3.11-.34-2.9.77Z"/><path class="cls-1" d="M360.52,397.78c-5.85,1-12.1.54-18,.22-4.39-.24-7.54-3-9.35-6.85a29.42,29.42,0,0,1-2.36-13.72c.1-1.73-3.71-1.06-3.79.39-.31,5.6.56,12,3.7,16.77a12.71,12.71,0,0,0,9.39,5.73,74.94,74.94,0,0,0,20-.16c1.9-.33,3-2.82.44-2.38Z"/><path class="cls-1" d="M404.67,377.48c-15.05,4.73-28.46,4.78-44.16,4.18-27.91-1.07-31.44-5-31.67-4.67,1.57-2.46,7.54-2.66,15.47-4.36,7.07-1.51,32-.5,34.5-.41C389.69,372.55,397.46,372.45,404.67,377.48Z"/><path class="cls-1" d="M404.51,376.85c-20,6.07-43.13,5.58-63.66,2.19a84.55,84.55,0,0,1-9.37-2.38c-1.57-.44-2.87-.77-4.35.45l3.42-.24c2.27-2.74,10.11-2.95,13.42-3.5a52.32,52.32,0,0,1,6-.6c5.9-.29,11.82-.19,17.73-.06,11.56.26,25.21-1.13,35.2,5.42.91.59,4.13-.93,3.55-1.31-7.72-5.05-16.61-5.1-25.53-5.38-5.48-.17-11-.36-16.45-.41-6.13-.06-12.47-.27-18.56.65-4.15.63-8.42,1.35-12.49,2.36-2.25.55-4.76,1.22-6.29,3.07-.87,1.06,2.86.22,3.42-.24-1.9,1.57-4.07-.09-2.19,1.28a11.62,11.62,0,0,0,3.26,1.1,88.79,88.79,0,0,0,15.89,2.49c19.11,1.69,38.82,2,57.33-3.64C407,377.45,406.72,376.18,404.51,376.85Z"/><path class="cls-1" d="M348.16,328.46a2.88,2.88,0,0,1-.55-.92,3.49,3.49,0,0,1-.09-1.15c0-.28.44-.66.66-.52a13.14,13.14,0,0,1,1.26.93,22.26,22.26,0,0,1,1.64,2.36c.35.62.72,1.27,1.06,1.85s.57,1.12.76,1.47a38.11,38.11,0,0,1,1.81,4.21c1.06,2.9,2.06,5.82,2.94,8.76q.3,1,.51,2c.48,2.3,1.1,4.54,1.72,6.8a5.93,5.93,0,0,0,.37,1.1c.15.28.6,2,1,3.68s.78,3.47.84,3.88c.26,2,.58,4.05.82,6.08a2.88,2.88,0,0,1,.08.87,5.7,5.7,0,0,0,.1,1.89c.12.87.22,1.74.26,2.62a8.27,8.27,0,0,1-.11,1.31c0,.4-.43.23-.48.1-.17-.37-.29,0-.43,0a.29.29,0,0,1-.15,0A3.66,3.66,0,0,1,362,375c-.13-.47-.3-1.09-.48-1.72-.38-1.27-.75-2.59-.8-2.86,0-.06-.42-1.86-.83-3.74s-.94-3.84-1.06-4.23a9,9,0,0,1-.23-1.28c0-.21-1.6-5.78-1.67-6a24.87,24.87,0,0,1-.79-3.52,4.5,4.5,0,0,0-.18-.7c-.58-2-1.1-4-1.65-6-.3-1-.65-2-1-3a5.66,5.66,0,0,1-.13-.56c-.07-.23-.12-.47-.2-.69a68,68,0,0,0-2.65-6.94c-.13-.25-.37-1.05-.68-1.81s-.63-1.53-.79-1.81S348.38,328.71,348.16,328.46Z"/><path class="cls-1" d="M353.29,332.1c-4.58.9-10.89-5.44-13.19-9a24,24,0,0,1-3-17.91c.87-4.29,3.62-8.47,6.22-12.11C361.78,307.7,355.29,331.7,353.29,332.1Z"/><path class="cls-1" d="M349.86,330.47a12.77,12.77,0,0,1,3.18,1.45c.36.2.49.9,0,1.05a6.27,6.27,0,0,1-2.92.21,9.18,9.18,0,0,1-1.71-.57,16.07,16.07,0,0,1-3.07-1.7,30.73,30.73,0,0,1-5.17-4.51,20.13,20.13,0,0,1-4.36-7.43,26.36,26.36,0,0,1-1.36-8.6,29.85,29.85,0,0,1,.34-4.33,20.55,20.55,0,0,1,2.82-7.77c.56-.92,1.14-1.82,1.74-2.69l.9-1.31,1.5-2.11.83-1.15.2-.28.11-.15.05-.07s0,0,.06,0l.55.46,2.18,1.82c.17.15.38.31.52.45l.33.31.59.55a15.46,15.46,0,0,1,1.15,1.14c.5.52,1,1.06,1.51,1.54a26.94,26.94,0,0,1,4.08,5.8,32.36,32.36,0,0,1,2.69,6.86,40.12,40.12,0,0,1,.93,11.17,7.27,7.27,0,0,1-.16,1.57,22.55,22.55,0,0,0-.61,3.36,21.63,21.63,0,0,1-1.27,4.61,5.84,5.84,0,0,1-1.46,2.11.85.85,0,0,1-.55.21c-.12,0-.14-.08-.13-.15a3.2,3.2,0,0,1,.19-.44c.32-.6-.21-.28-.34-.42a.35.35,0,0,1-.14-.13s.16-.31.38-1.07a19.38,19.38,0,0,0,.59-2.92,45.1,45.1,0,0,0,.3-5s.05-.87,0-2.07a33.11,33.11,0,0,0-.34-4.43,32.11,32.11,0,0,0-1.8-7.09c-.27-.67-.46-1.37-.71-2.05a28.53,28.53,0,0,0-2.55-4.5,31.29,31.29,0,0,0-3.29-4,13.38,13.38,0,0,0-1.05-1.08l-.93-.88s0-.12-.08-.19-.07,0-.08.07c-1.95,3-3.83,6-4.63,9.14a22.5,22.5,0,0,0-.57,5.19c0,.31,0,.62,0,.94a9.43,9.43,0,0,0,0,1.19,19.39,19.39,0,0,0,4.43,11.24c.3.36,1.16,1.46,2.13,2.49a16.74,16.74,0,0,0,2.5,2.27C347.84,328.93,349.31,330.38,349.86,330.47Z"/><path class="cls-1" d="M375.86,318.21a2.39,2.39,0,0,1,2.69-.7.59.59,0,0,1,.16.83c-.19.16-.39.29-.56.45s-.34.36-.51.52a11,11,0,0,0-1.88,2.13,20.07,20.07,0,0,0-1.93,3.58c-.67,1.55-1.31,3.14-1.89,4.76A83,83,0,0,0,369.07,340c-.18.77-.36,1.54-.57,2.3a58.53,58.53,0,0,0-1.54,8,7.67,7.67,0,0,0-.1,1.35c0,.37-.22,2.37-.42,4.42s-.39,4.11-.46,4.58c-.34,2.35-.58,4.72-.76,7.08a4.17,4.17,0,0,1-.1,1,6.69,6.69,0,0,0-.22,2.18c0,1,0,2-.06,3.06a11.37,11.37,0,0,1-.2,1.51c-.07.45-.44.23-.49.08-.13-.46-.28-.07-.42,0a.23.23,0,0,1-.16,0,6.83,6.83,0,0,1-.2-1c-.11-.57-.22-1.34-.33-2.12-.21-1.58-.35-3.24-.34-3.56,0,0,0-.62,0-1.48s0-2,0-3.15c0-2.32.19-4.74.2-5.24a13.26,13.26,0,0,1,.21-1.54c0-.13.15-1.92.3-3.72s.36-3.61.39-3.74a26.68,26.68,0,0,1,.81-4.26,4.74,4.74,0,0,0,.17-.85c.4-2.45,1-4.87,1.61-7.28.32-1.23.61-2.47.95-3.7.06-.22.16-.43.23-.65a8,8,0,0,0,.29-.82,64.22,64.22,0,0,1,3.25-8.54,17.54,17.54,0,0,1,1.25-2.09c.6-.87,1.27-1.72,1.54-2a4.23,4.23,0,0,1,.95-.84l.58-.44A2.57,2.57,0,0,0,375.86,318.21Z"/><path class="cls-1" d="M402.14,287c-28,7.31-26.53,35.78-26.53,35.78S402.73,323.19,402.14,287Z"/><path class="cls-1" d="M401.85,285.84c-17.12,4.77-30,19.28-29.14,37.67,0,.62,1.36.57,1.69.57a31.36,31.36,0,0,0,16.36-5c11.25-7.11,14.35-20.31,14.28-32.87,0-1.27-5.81-.34-5.8,1.55.08,13.66-5.82,33.83-22.42,33.67l1.69.57c-.72-15.35,9.1-29.78,23.93-33.91C405.82,287.11,405.28,284.88,401.85,285.84Z"/><path class="cls-1" d="M394.1,343a1.62,1.62,0,0,1,1.93-.17c.21.11.4.67.28.83s-.48.6-.72.85c-.09,0-.79.63-1.58,1.27s-1.6,1.52-2,2-.79.85-1.19,1.27-.8.85-1.2,1.27c-1.64,1.73-3.18,3.58-4.65,5.47a15.32,15.32,0,0,1-1.05,1.22,31.66,31.66,0,0,0-3.34,4.38,3.34,3.34,0,0,0-.45.8,24.65,24.65,0,0,1-1.54,2.58c-.71,1.19-1.47,2.37-1.65,2.63-.47.65-.93,1.31-1.39,2l-1.29,2a1.92,1.92,0,0,1-.39.57,3.09,3.09,0,0,0-.83,1.23l-1,1.82a4.62,4.62,0,0,1-.66.83c-.21.24-.49,0-.49-.16,0-.33-.24-.16-.4-.18a.34.34,0,0,1-.15-.06,16.7,16.7,0,0,1,.44-2.12c.29-1.05.64-2.15.74-2.35,0,0,.17-.39.42-.91l.94-1.95c.73-1.41,1.5-2.88,1.66-3.18a5.9,5.9,0,0,1,.61-.87c.08-.15,2.47-4.27,2.61-4.41a13.67,13.67,0,0,1,1.81-2.34,2.33,2.33,0,0,0,.37-.46c1-1.4,2.07-2.68,3.16-4,.57-.65,1.1-1.34,1.65-2a2.66,2.66,0,0,1,.35-.32c.14-.14.3-.26.43-.41.67-.78,1.36-1.54,2.1-2.27l1.09-1.11c.37-.36.74-.72,1.11-1.1s2.27-1.64,2.7-2C392.82,343.48,393.91,343.23,394.1,343Z"/><path class="cls-1" d="M392.4,345.21c11.35-22.49,30.77-21.34,30.77-21.34S423.17,352.51,392.4,345.21Z"/><path class="cls-1" d="M395.11,342.64a4.32,4.32,0,0,1-2.44,2.48c-.36.17-1-.19-.87-.57.2-.74.4-1.49.67-2.24,0-.11.28-.61.64-1.34s.95-1.61,1.53-2.58l.92-1.47c.33-.47.69-.92,1-1.35.66-.86,1.22-1.64,1.65-2.14.85-.92,1.7-1.85,2.62-2.72s1.91-1.66,3-2.38a35.77,35.77,0,0,1,14.14-6.11c.57-.09,1.15-.17,1.72-.23l.9-.06a10.26,10.26,0,0,1,1.56,0l1.52,0,1.48.09L425,324.2c-.05.74-.11,1.46-.2,2.12,0,.39-.08.56-.11.76l-.1.62c-.08.41-.15.83-.24,1.23a34.58,34.58,0,0,1-1.35,4.85c-.21.62-.51,1.23-.66,1.87a19.58,19.58,0,0,1-3.44,5.63,20.09,20.09,0,0,1-3.23,3l-1.37.9c-.39.23-.69.37-.86.45a23.42,23.42,0,0,1-10.19,2.23,4.36,4.36,0,0,1-1.45-.07,6.79,6.79,0,0,0-1.53-.25l-1.54-.15-1.07-.11-1.05-.19c-.7-.15-1.41-.25-2.09-.45a17.17,17.17,0,0,1-1.95-.77c-.58-.24-.15-.61.07-.61.64,0,.19-.32.18-.51a.24.24,0,0,1,0-.19,10.3,10.3,0,0,1,1.29.08l1.29.12,1.51.06a42.8,42.8,0,0,0,4.58-.06,13.52,13.52,0,0,0,1.85-.09,14.77,14.77,0,0,0,1.81-.22l1-.18c.34-.07.68-.17,1-.26a17.47,17.47,0,0,0,3.74-1.44c.49-.3.94-.54,1.27-.76l.67-.49,1.52-1.07c.05-.05.48-.45,1-1.06a17.75,17.75,0,0,0,1.79-2.41,21.64,21.64,0,0,0,2-4.14c.66-1.65,1-3.41,1.59-5.14a5.36,5.36,0,0,0,.2-1.06c0-.29,0-.24,0-.33v-.23l-.15,0h-.26c-.27,0-.55,0-.82.08a31,31,0,0,0-3.31.58,26.78,26.78,0,0,0-4.54,1.57c-.26.12-.54.2-.82.31a6.29,6.29,0,0,0-1,.41,30.9,30.9,0,0,0-9.1,6.88,39.2,39.2,0,0,0-4,4.64C396.75,340.81,395.24,342.1,395.11,342.64Z"/><path class="cls-1" d="M389.44,458.49c-10.35,5.41-38.8,4.72-46.08,4.47-3.83-.13-20-1.73-17-7.91,2.53-5.2,14.95-7.82,18.79-9.08l4,9.94,39.55-1.21S391.14,457.6,389.44,458.49Z"/><path class="cls-1" d="M207.91,89.49C203,77.37,190.85,78.61,190.85,78.61c-14.66,1.91-15.48,25.22-16.37,24.56-2.35-1.74-2.81-5.81-6.75-6.58s-5.06,2.19-4.84,5.27c.72,9.94,10.89,9.5,10.89,9.5a31.15,31.15,0,0,0,3.71,6.76c2.64,3.44,5.13,6.18,4.79,6.18-64.11-.2-34.86-87.7,8-60.33,1.56,1,18.77-19.84,29.23-4.11C228,72.6,219,89.26,207.91,89.49Z"/><path class="cls-1" d="M153.26,71.82a37.55,37.55,0,0,0-6.87,20.42,28.63,28.63,0,0,0,6.81,20.08,29.88,29.88,0,0,0,13.28,8.41,43.36,43.36,0,0,0,7,1.7c1.19.2,2.39.33,3.58.46l1.81.13c.25,0,.38,0,.59,0l.34,0h.17c.07,0,0-.08,0-.12s-.26-.35-.4-.53l-2.32-2.93a27.14,27.14,0,0,1-2.48-3.73c-.35-.66-.69-1.32-1-2l-.45-1-.16-.39h-.31l-.77-.08q-.87-.12-1.74-.33a13.08,13.08,0,0,1-3.3-1.34,10.42,10.42,0,0,1-2.75-2.38,13,13,0,0,1-1-1.54l-.37-.82-.19-.42-.12-.43a14.36,14.36,0,0,1-.61-3.49,7.35,7.35,0,0,1,.74-3.65A4.38,4.38,0,0,1,164,96.33a4,4,0,0,1,1.93-.7,6.38,6.38,0,0,1,3.7.74A7.8,7.8,0,0,1,172.4,99c.8,1.21.87,1.43,1.26,1.9a4.07,4.07,0,0,0,.42.41c.1,0,.11-.14.14-.21l.07-.28.24-1.2c.32-1.57.67-3.15,1.1-4.7a36.75,36.75,0,0,1,3.63-9,18.19,18.19,0,0,1,5.89-6.3,13.7,13.7,0,0,1,4.08-1.71c.36-.08.71-.17,1.09-.22a4.44,4.44,0,0,1,.59-.08c.19,0,.38,0,.57,0a17.58,17.58,0,0,1,2.18.09,20.71,20.71,0,0,1,4.26.9,19.58,19.58,0,0,1,2,.84c.32.16.66.31,1,.49l.93.58a16.75,16.75,0,0,1,5.79,6.41c1.49,3.28.64,3-1.11.68a26.67,26.67,0,0,0-4.17-3.93,19,19,0,0,0-7.15-3.06,15.92,15.92,0,0,0-2.12-.31,12.7,12.7,0,0,0-2,0,11.78,11.78,0,0,0-3.87,1.21,15.23,15.23,0,0,0-5.86,6,35.2,35.2,0,0,0-3.35,8.3c-.4,1.46-.75,3-1.06,4.47l-.46,2.2a3.89,3.89,0,0,1-.68,1.76,1.53,1.53,0,0,1-1,.57,2.07,2.07,0,0,1-.6,0,2.42,2.42,0,0,1-.66-.3,9.64,9.64,0,0,1-2.1-2.48l-.68-1.07c-.16-.25-.31-.49-.47-.71a4.67,4.67,0,0,0-2.12-1.85,4.41,4.41,0,0,0-1.36-.3,2.36,2.36,0,0,0-1.14.16,2.46,2.46,0,0,0-1.23,1.91,5.92,5.92,0,0,0-.1,1.53c0,.54.13,1.11.19,1.66a15.77,15.77,0,0,0,.44,1.57,7.89,7.89,0,0,0,.72,1.42,8.47,8.47,0,0,0,5.29,3.56,12.2,12.2,0,0,0,1.39.26l.35,0,.18,0h.33c.46,0,.94,0,1.41,0,.23.58.45,1.18.68,1.72l.42.94c.29.63.6,1.25.93,1.85a23.93,23.93,0,0,0,2.28,3.45l1.33,1.68,1.74,2.15a11,11,0,0,1,1,1.4,2.69,2.69,0,0,1,.33,1.08c0,.15.05.3-.1.44l-.5.19-1,.38-2.19-.06-.55,0-.43,0-.67,0c-.9,0-1.79-.13-2.68-.25s-1.78-.2-2.67-.37-1.77-.3-2.65-.51a39.33,39.33,0,0,1-10.16-3.71,33.75,33.75,0,0,1-4.92-3.29,31.38,31.38,0,0,1-4.18-4.21,29.23,29.23,0,0,1-5.36-10.48,37.28,37.28,0,0,1,1.32-23.06A37.94,37.94,0,0,1,154,67.12a28.53,28.53,0,0,1,11.93-8,25.27,25.27,0,0,1,12.68-.8,32.84,32.84,0,0,1,6.08,1.85c1,.44,1.94.85,2.86,1.36.46.26.94.48,1.38.76l1.21.73c.09,0,.17.13.28.13a.77.77,0,0,0,.29-.1l.28-.17.43-.31c.58-.42,1.17-.88,1.75-1.34,1.17-.92,2.35-1.83,3.56-2.7a33.68,33.68,0,0,1,7.88-4.37,13.36,13.36,0,0,1,8.5-.49,13.22,13.22,0,0,1,6.72,5.2A20.51,20.51,0,0,1,222,62.58a20.1,20.1,0,0,1,1.34,4,21.28,21.28,0,0,1,.12,8.45,22.21,22.21,0,0,1-2.57,7,16.53,16.53,0,0,1-7.15,6.87,7.27,7.27,0,0,1-4.39.78,5.74,5.74,0,0,1-1.31-.31c-.21-.11-.14-.24.16-.37a5.35,5.35,0,0,1,.63-.2c.26-.08.58-.19.94-.29A15.28,15.28,0,0,0,215.63,85a19.44,19.44,0,0,0,5.7-12.22,18.54,18.54,0,0,0-3.82-13,10.38,10.38,0,0,0-5.24-3.83,10.87,10.87,0,0,0-6.54.41,27.86,27.86,0,0,0-6.39,3.33c-2.07,1.39-4,3-6.07,4.57l-.58.43-.32.22-.53.33a3.14,3.14,0,0,1-1.22.43,2.32,2.32,0,0,1-1.23-.28L188,64.5c-.37-.23-.74-.43-1.13-.63-.75-.4-1.51-.79-2.3-1.13a29.48,29.48,0,0,0-4.81-1.68,25.59,25.59,0,0,0-5-.74,23.26,23.26,0,0,0-5,.36c-6.64,1.2-12.46,5.56-16.41,11.16Z"/><path class="cls-1" d="M200.54,131.4a11.08,11.08,0,0,0,5.81-2.08,10.42,10.42,0,0,0,3.54-5.06,16.74,16.74,0,0,0,.65-4.71c0-.71-.06-1.43-.07-2.15s-.19-1.43-.28-2.16l-.78-4.48c-.52-3-1-6-1.48-9-.39-2.68-.81-5.37-1.08-8.07a40,40,0,0,1-.27-5.27A10.15,10.15,0,0,1,208,83c.39-.52.75-.59.89-.41a2.14,2.14,0,0,1,.23,1.11,31.22,31.22,0,0,1,.15,4.24,59.53,59.53,0,0,0,.59,10.14c.43,3.44,1,6.9,1.45,10.4.3,2.09.71,4.2,1.12,6.34a23.87,23.87,0,0,1,.37,6.81,14.62,14.62,0,0,1-2.63,7.13,12.11,12.11,0,0,1-6.21,4.4,14.4,14.4,0,0,1-4.59.69,19.46,19.46,0,0,1-2.3-.13c-.75-.14-1.52-.23-2.25-.43a27.33,27.33,0,0,1-11.78-6.67,40.22,40.22,0,0,1-6.67-8c-.4-.65-.84-1.26-1.18-2a11.24,11.24,0,0,1-1.18-2.79,2.15,2.15,0,0,1,.07-1.47,2.38,2.38,0,0,1,.26-.53c.37-.43,1.18.46,2.11,2.21,2.89,5.11,6.67,10.09,11.68,13.47a23.56,23.56,0,0,0,6,2.94,15.87,15.87,0,0,0,6.42.79Z"/><path class="cls-1" d="M185.79,90.91a8.82,8.82,0,0,1,1.76-.63,4.43,4.43,0,0,1,.65-.18,6.87,6.87,0,0,1,2.35.07c.34,0,.68.11,1,.15s.44.08.66.14a1.62,1.62,0,0,1,.56.39c.1.11-.13.47-.41.8s-.59.66-.75.62a16.61,16.61,0,0,1-1.89-.46,2.54,2.54,0,0,0-1.28.11,6.27,6.27,0,0,0-1.4.42,4.51,4.51,0,0,0-.81.43,3.86,3.86,0,0,0-1,.91,2.77,2.77,0,0,0-.33,1,1.92,1.92,0,0,0,0,.22c-.11.24-.33.26-.75.2l-.28,0a.77.77,0,0,1-.63-.58,3.07,3.07,0,0,1,1-2.41,6.45,6.45,0,0,1,1.55-1.17Z"/><path class="cls-1" d="M196.14,101.53a2.73,2.73,0,0,1-1.32,1.28c-.13.06-.25.13-.39.18l-.43.1a2.83,2.83,0,0,1-.87,0,3.14,3.14,0,0,1-1.14-.29,6.22,6.22,0,0,1-2.37-2.51c-.23-.43-.46-.85-.67-1.28a2.7,2.7,0,0,1-.26-1.89c.06-.21.34-.15.66,0,.16.07.33.14.48.22a.8.8,0,0,1,.37.28,26.19,26.19,0,0,1,1.42,2.58,2.35,2.35,0,0,0,1.29,1,1.32,1.32,0,0,0,.7.08,1.52,1.52,0,0,0,.67-.3,1.36,1.36,0,0,0,.37-.9,5.23,5.23,0,0,0-.26-2,15.76,15.76,0,0,0-.69-1.55c0-.12-.11-.24-.15-.36-.15-.5,0-.73.45-.87a3.37,3.37,0,0,1,.34-.09.89.89,0,0,1,.86.32,8.67,8.67,0,0,1,1.17,2.88,4.87,4.87,0,0,1-.18,3.09Z"/><path class="cls-1" d="M205.56,98.22a3.05,3.05,0,0,1-.81,1.46,3.24,3.24,0,0,1-.66.47,2.85,2.85,0,0,1-.71.29,2.44,2.44,0,0,1-1.21.11,2.77,2.77,0,0,1-1.61-1,5.73,5.73,0,0,1-.82-1.36c-.19-.4-.35-.8-.53-1.19a3.05,3.05,0,0,1-.27-1.64c0-.18.32-.2.65-.13a1.76,1.76,0,0,1,.91.43,12,12,0,0,1,1.17,2.48,1.16,1.16,0,0,0,.43.51,1,1,0,0,0,.46.13,1.13,1.13,0,0,0,.61-.16,1,1,0,0,0,.46-.42,1.81,1.81,0,0,0,.2-1,6.46,6.46,0,0,0-.31-1.85c-.16-.48-.44-.92-.65-1.42-.05-.12-.11-.22-.15-.34-.13-.46,0-.68.47-.8a3.37,3.37,0,0,1,.34-.09.89.89,0,0,1,.85.29,7.72,7.72,0,0,1,1.1,2.59,6,6,0,0,1,.13,2.65Z"/><path class="cls-1" d="M201.11,117.28c.49-.28.78-.46.77-.26s.14.08.2.13a3.63,3.63,0,0,0,1.51.68,2.37,2.37,0,0,0,.7,0,2.57,2.57,0,0,0,1-.29c.12-.09.3-.11.39-.24a1.81,1.81,0,0,0,.39-.91,3.75,3.75,0,0,0,.13-.6c0-.08,0-.16-.05-.24s0-.07.05-.1a3.06,3.06,0,0,1,1.23-.13c.39,0,.65.09.64.2a6.64,6.64,0,0,1-.19,1.51c-.07.21-.08.44-.17.65a3.33,3.33,0,0,1-.66.88,3.72,3.72,0,0,1-1.35.82,4.44,4.44,0,0,1-1.67.28,2.24,2.24,0,0,1-.52,0,5.32,5.32,0,0,1-1.51-.48,5.1,5.1,0,0,1-1.37-1s-.07-.06-.08-.1S200.53,117.85,201.11,117.28Z"/><path class="cls-1" d="M202.43,88.88a3,3,0,0,0-1.09.11c-.14,0-.25.15-.39.19a6,6,0,0,0-1.51.73,2.09,2.09,0,0,0-.53.54c-.21.26-.3.6-.66.73s-1.46-1.19-1.18-1.56A4.2,4.2,0,0,1,199,88.18c.46-.16.83-.5,1.3-.69a5.15,5.15,0,0,1,1.62-.41,4.81,4.81,0,0,1,1.07,0,4.09,4.09,0,0,1,1.51.62,5.82,5.82,0,0,1,1,.76.63.63,0,0,1,.19.21c.16.3,0,.48-.32.71a1.58,1.58,0,0,1-.24.15,1.19,1.19,0,0,1-.83.11,10.43,10.43,0,0,1-1.1-.56,1.86,1.86,0,0,0-.77-.18Z"/><path class="cls-1" d="M182.65,124.75c2.11,4.55,10,7.68,14.83,8.08a9.24,9.24,0,0,1-11.12.76C183.24,131.66,182.83,128.17,182.65,124.75Z"/><path class="cls-1" d="M191.4,134.12a7.36,7.36,0,0,0,2.23-.26,3.47,3.47,0,0,0,.55-.16l.26-.09.07,0,.27-.1.22-.12.13-.09a2.16,2.16,0,0,1-.38-.06l-.93-.29c-.64-.18-1.27-.41-1.89-.64a26.69,26.69,0,0,1-3.6-1.67,25.76,25.76,0,0,1-3-1.87,8.44,8.44,0,0,1-3.05-3.45c-.19-.46.23-.55.77-.41a3.5,3.5,0,0,1,1.66,1,22.47,22.47,0,0,0,7,4.69,15.33,15.33,0,0,0,2.12.78l.55.15.27.08.44.09c.64.11,1.21.26,1.95.33l.11.33.05.16.06.07.23.26c-.16.28-.33.59-.53,1,0,0,.15.11.1.14l-.15.09-.3.19c-.2.12-.4.24-.63.35a9.59,9.59,0,0,1-1.22.53,10,10,0,0,1-2,.48,9.15,9.15,0,0,1-3.93-.35,11.74,11.74,0,0,1-2.69-1.24A7.38,7.38,0,0,1,184,132a10.88,10.88,0,0,1-1.73-4.19c-.07-.32-.14-.64-.19-1-.15-1.22,0-1.6.36-1.88a2.4,2.4,0,0,1,.29-.19c.32-.13.61.34.78,1.18.46,2.47,1.08,5,2.92,6.35a9,9,0,0,0,5,1.79Z"/></g></svg>