<svg id="Layer_1" data-name="Layer 1" xmlns="http://www.w3.org/2000/svg" width="520" height="520" viewBox="0 0 520 520"><defs><style>.cls-1,.cls-3{fill:#221f1f;}.cls-2{fill:none;stroke:#000;stroke-width:1.62px;}.cls-2,.cls-3{stroke-miterlimit:10;}.cls-3{stroke:#221f1f;stroke-linecap:round;stroke-width:3px;}</style></defs><title>Notioly v2</title><g id="_90.Envelope" data-name="90.Envelope"><path class="cls-1" d="M199.23,329.47,228.07,315c7.92-4,15-6.5,23.71-9.63,1.93-.7.12-1.15-1-.74-8.11,2.92-15.95,5.69-23.64,9.55L197.54,329c-1.72.86,1,.81,1.69.45Z"/><path class="cls-1" d="M175.09,290.09l39.83,6.21c1.38.21,3-1.73,1-2l-39.84-6.21c-1.37-.22-3,1.72-1,2Z"/><path class="cls-1" d="M255.67,248.64c3,1.23,13.63,21.17,13.47,24.57-4.72.86-12.27-22.69-14.9-24Z"/><path class="cls-1" d="M370.43,106.18a8.9,8.9,0,0,1-.21-1.2c0-.2,0-.36,0-.61v-.11s0-.1,0,0l0,.21.05.2a.48.48,0,0,1,.08.18,9.19,9.19,0,0,1,.16-2c.08-.42.55-.44.71,0l.44,1.34.11.33h0l-.11,0-.37.08-.09,0c1.13-.26.31-.08.56-.14l0,0c0-.06,0,0,0,0h0v-.13c0-.2.05.15.1.35s.49,2.68.9,5.44.91,5.82,1.06,7.4a55.12,55.12,0,0,1,.29,9.28,30,30,0,0,1-1.93,9.45,18,18,0,0,1-5.94,7.9,16.57,16.57,0,0,1-1.88,1.19c-.32.17-.63.39-1,.53l-1,.41c-.58.21-1.15.48-1.74.66l-1.79.47a27.86,27.86,0,0,1-3.6.69,14.92,14.92,0,0,1-7.55-.61,21.82,21.82,0,0,1-2.33-1.13,10.84,10.84,0,0,1-2.37-1.84,19.5,19.5,0,0,1-3.21-4.18,41.24,41.24,0,0,1-3.31-7.53c-1.22-3.93-2.44-7.85-3.59-11.8a14.31,14.31,0,0,1-.47-1.69,26.62,26.62,0,0,0-.95-3.66q-.75-2.53-1.4-5.1c-.21-.84-.33-1.7-.47-2.55s.27-.44.37-.19c.3.74.26.08.36,0s.08-.08.12,0c.1.28,3.42,9.61,3.79,10.62,0,.07.32,1,.78,2.36s1.09,3.18,1.72,5c1.29,3.71,2.67,7.56,3,8.28s.62,1.59.95,2.37a24.38,24.38,0,0,0,3.16,5.08,11.86,11.86,0,0,0,2.84,2.55,9.91,9.91,0,0,0,1.65.87,13.18,13.18,0,0,0,6.47.72c.45,0,.92-.13,1.39-.21a20.31,20.31,0,0,0,2.91-.73,19.21,19.21,0,0,0,2.77-1,8.38,8.38,0,0,0,1.29-.69c.42-.26.85-.49,1.26-.75l1.13-.92.56-.47.49-.54c.33-.37.68-.72,1-1.11l.82-1.25a7,7,0,0,0,.72-1.32,14.1,14.1,0,0,0,.63-1.37c.12-.34.27-.68.4-1a6.85,6.85,0,0,0,.45-1.32,43.65,43.65,0,0,0,.82-14.77c-.09-.57-.13-2.24-.33-3.94s-.34-3.41-.44-4.07S370.58,106.84,370.43,106.18Z"/><path class="cls-1" d="M379.29,91c-1.66-3.11-7.35-5.55-9.32.26a16.88,16.88,0,0,1-2.52-6.51c-6-.38-8.69-3.11-9.13-3.45s-14.5,15.46-30.53,22c-11.25,4.57-23.68-1.66-25-15.85-.79-8.74,3.39-16.34,9.82-21.56A41.76,41.76,0,0,1,336,56.64c6.28-.44,13.26,1.74,19.14-1.34,6.64-3.49,10-5.75,17.71-.28C384.07,63,387,79.39,379.29,91Z"/><path class="cls-1" d="M326,60.55a39.19,39.19,0,0,0-14.39,8.53,23.23,23.23,0,0,0-7.22,14.46,20.84,20.84,0,0,0,2.29,11.57,15.57,15.57,0,0,0,7.42,7,16.59,16.59,0,0,0,10.27.91,16.13,16.13,0,0,0,2.55-.73c.85-.28,1.71-.67,2.55-1,1.68-.76,3.33-1.61,4.95-2.53a84,84,0,0,0,9.31-6.19c2.54-1.92,5-4,7.36-6.11,1.19-1.07,2.35-2.16,3.52-3.25l1.81-1.72a6,6,0,0,1,1.4-1.06c.51-.28,1,0,1.46.31l.53.41.28.21.16.1a12.25,12.25,0,0,0,3.37,1.53,14.45,14.45,0,0,0,1.84.43l.47.06.57.08,1.61.14h.2c.07,0,.15,0,.14.09l.09.39.18.78.19.78.14.53c.09.31.18.62.28.92l.13.39.07.19a5.93,5.93,0,0,0,.34.72,4,4,0,0,0,.22.34c.05.1.06,0,.09-.08l.07-.19a3.26,3.26,0,0,1,.24-.4l.15-.17,0-.05,0,0-.07,0,0,0,.3-.24a4.68,4.68,0,0,1,2.87-1.06,6.92,6.92,0,0,1,5.05,2.19c1,1,1.1,1.84.9,2s-.77-.2-1.61-.62a7.75,7.75,0,0,0-3.4-.92,2.65,2.65,0,0,0-1.61.52.91.91,0,0,1-.16.11l-.13.17-.08.07,0,0,0,0,0,0-.12.15-.42.85c-.54,1-1.17,2.8-1.71,4.1l-.69-.87-.92-1.26a14.52,14.52,0,0,1-1.77-2.84,18.23,18.23,0,0,1-.7-1.75c-.12-.36-.22-.67-.31-1l-.25-.92h0l-.16,0a18.94,18.94,0,0,1-4.14-1.06,16,16,0,0,1-2-.92c-.32-.18-.63-.37-.94-.58l-.23-.15-.06,0h0s0,0,0,0l-1.53,1.41c-1.13,1.06-2.29,2.12-3.46,3.16-2.35,2.08-4.77,4.09-7.29,6a74.6,74.6,0,0,1-16.37,9.73,31.2,31.2,0,0,1-4,1.35c-.7.14-1.4.32-2.1.43l-2.15.21a19.2,19.2,0,0,1-8.5-1.52A18.08,18.08,0,0,1,306,99.35a20.17,20.17,0,0,1-3.79-7.73,24.76,24.76,0,0,1-.59-9.31,26.25,26.25,0,0,1,1.06-4.56,27.26,27.26,0,0,1,1.91-4.27,29.38,29.38,0,0,1,5.78-7.19A41.11,41.11,0,0,1,317.84,61a42,42,0,0,1,21.51-5.37c2.81.11,5.54.44,8.22.41a20.48,20.48,0,0,0,3.94-.39,14.34,14.34,0,0,0,3.65-1.35c1.22-.64,2.44-1.29,3.73-1.89A16.45,16.45,0,0,1,363,51a10.13,10.13,0,0,1,4.45.24,15.79,15.79,0,0,1,4,1.76,27.12,27.12,0,0,1,9.3,9.11,28.61,28.61,0,0,1,4,12.37,27.36,27.36,0,0,1-.11,5.79,20.38,20.38,0,0,1-2.22,7.35,10.27,10.27,0,0,1-1.14,1.71,5.44,5.44,0,0,1-1.11.92,5.19,5.19,0,0,1-1,.57c-.42.11-.37-.51,0-1.66.11-.29.25-.61.39-1s.26-.78.41-1.22c.36-.85.63-1.89,1-3a26.48,26.48,0,0,0-3.13-20.81,24.27,24.27,0,0,0-7.75-7.54,12.21,12.21,0,0,0-4.7-1.83,8,8,0,0,0-2.33.14,14.36,14.36,0,0,0-2.44.83c-1.24.55-2.53,1.24-3.84,1.92-.61.33-1.41.72-2.2,1l-1.2.42-1.22.32a33.16,33.16,0,0,1-9.43.32c-1.49-.1-2.95-.22-4.35-.25-.71,0-1.4,0-2.08,0s-1.41.1-2.11.18A39.76,39.76,0,0,0,326,60.62Z"/><path d="M378.05,89.73c-.24-.22-.09-.51.29-1,.12-.14.58-.36.69-.3a2.44,2.44,0,0,1,.56.36,15.74,15.74,0,0,1,1.17,2.27,7.63,7.63,0,0,1,.5,1.67,21.79,21.79,0,0,1,.49,3.62,3.69,3.69,0,0,1-.09.91,13.26,13.26,0,0,1-.47,1.52c-.16.47-.34.93-.54,1.39a1.26,1.26,0,0,0-.17.47,4.92,4.92,0,0,1-.81,1.4,6.71,6.71,0,0,1-1.12,1.21,20.72,20.72,0,0,1-2.11,1.3c-.1.05-.18.14-.32.13a1,1,0,0,0-.7.24,5.1,5.1,0,0,1-.92.42,1.6,1.6,0,0,1-.54,0c-.17,0-.26-.32-.23-.37s-.1-.23-.18-.34a.52.52,0,0,1-.07-.12c0-.07,1.22-1.48,1.34-1.6l.34-.27c.18-.16.43-.37.67-.6a10.48,10.48,0,0,0,1-1.09,1.1,1.1,0,0,1,.32-.28,5.26,5.26,0,0,0,.54-.84,7,7,0,0,0,.41-.89,4.73,4.73,0,0,1,.54-1,.37.37,0,0,0,.09-.2,4.1,4.1,0,0,1,.1-.48,3.18,3.18,0,0,0,.06-.37,6,6,0,0,0,.06-1,8.25,8.25,0,0,0-.12-1.09,1.41,1.41,0,0,1,0-.2.76.76,0,0,0,0-.26,15.24,15.24,0,0,0-.56-2.6,14.14,14.14,0,0,0-.24-1.4C378,90.34,378.15,89.81,378.05,89.73Z"/><path class="cls-1" d="M331.79,146c.27-.17.52-.34.8-.49a5.2,5.2,0,0,1,1-.37,3.78,3.78,0,0,1,1.06-.16h.55l.53.1a5.08,5.08,0,0,1,1.79.81l1.11.79a21.11,21.11,0,0,0,4.39,2.42,22.21,22.21,0,0,0,10,1.24,34.76,34.76,0,0,0,7.4-1.63,54.9,54.9,0,0,0,6.33-2.47,19.33,19.33,0,0,0,2.92-1.55c.95-.61,1.91-1.28,2.95-1.91A15.25,15.25,0,0,1,376,141.2a6.7,6.7,0,0,1,4.11,0,6.46,6.46,0,0,1,3,2.82,24,24,0,0,1,1.61,3.26c.76,1.94,1.63,3.74,2.39,5.77a10.93,10.93,0,0,1,.62,6.63,8.63,8.63,0,0,1-2.29,3.79,12.59,12.59,0,0,1-3.57,2.36c-2.52,1.16-5.05,1.78-7.18,2.95-.66.36-1,.42-1.17.19s-.06-.74.38-1.41a8.18,8.18,0,0,1,2.27-2.16,21.75,21.75,0,0,1,3.67-1.88,12.88,12.88,0,0,0,3.08-1.69,6.39,6.39,0,0,0,1.91-2.39c.83-1.74.28-4.06-.64-6.43l-1.51-3.71a31.14,31.14,0,0,0-1.56-3.48,5.17,5.17,0,0,0-1.86-2.19,4.76,4.76,0,0,0-3,.15,18.76,18.76,0,0,0-4,2.2c-.68.46-1.39.93-2.13,1.38-.37.23-.78.45-1.18.66l-1.14.54a49.36,49.36,0,0,1-9.56,3.53,36.08,36.08,0,0,1-5.58.92,27.1,27.1,0,0,1-5.69-.2,22.48,22.48,0,0,1-10.44-4.37l-.36-.25-.27-.18a2.32,2.32,0,0,0-.54-.28,1.75,1.75,0,0,0-1.06-.05,4.46,4.46,0,0,0-2.1,1.68,19.85,19.85,0,0,0-2.75,5.75,28.35,28.35,0,0,0-1.44,9.7,6.59,6.59,0,0,0,.47,2.18,8.14,8.14,0,0,0,.59,1c.24.31.48.62.74.91a9.58,9.58,0,0,0,3.88,2.54,19,19,0,0,0,7.38.85,76.28,76.28,0,0,0,7.59-.85c1.12-.17,2.23-.36,3.38-.5,4.28-.52,5.82-.19,6.68.58a3.55,3.55,0,0,1,.55.55c.29.61-1.34.73-4.33,1.11-4.48.56-9.15,1.64-14.2,1.79a21.91,21.91,0,0,1-7.79-1,12.16,12.16,0,0,1-6.55-5.25,7.93,7.93,0,0,1-.45-.88c-.09-.28-.2-.59-.27-.87a12.23,12.23,0,0,1-.28-1.62,20.24,20.24,0,0,1,0-3,32.82,32.82,0,0,1,.9-5.71,32,32,0,0,1,1.85-5.49,17.51,17.51,0,0,1,1.44-2.64,9.39,9.39,0,0,1,2.21-2.47Z"/><path class="cls-1" d="M302,214c-4.68,4.95-9.61,9.64-14.74,14.11-1.89,1.61-3.71,3.29-5.67,4.81A186.64,186.64,0,0,1,260,247.78c-1.65,1-3.35,2-5,2.91l-2.53,1.43-2.56,1.34c-1.1.57-2.18,1.17-3.29,1.73l-3.35,1.59a59.36,59.36,0,0,1-6.9,2.75c-1.46.5-1.5-.23-.55-1.34a16.64,16.64,0,0,1,5.44-3.71,211.3,211.3,0,0,0,26.18-14.28,159.25,159.25,0,0,0,14.68-11.06c5.18-4.33,10.17-8.91,14.91-13.74,1.46-1.49,2.91-3,4.3-4.53l2.11-2.31,2-2.37c4.09-4.78,8-9.86,11.85-14.81,3-3.86,5.79-7.75,8.51-11.72.59-.87,1.17-1.73,1.76-2.62,2.23-3.27,3-4.24,4.1-4.56a3.44,3.44,0,0,1,.72-.2c.66,0,.18,1.6-1.33,4.11-4.5,7.49-10.21,14.7-15.82,21.88-2.06,2.67-4.19,5.37-6.37,8l-3.36,3.93L302,214.06Z"/><path class="cls-1" d="M266.69,262.7l3.09,6a2.82,2.82,0,0,0,.21.38l.12-.06.25-.09.36-.18.48-.26,1.92-1,3.83-2.05c1.13-.62,2.22-1.3,3.29-2a23.44,23.44,0,0,1,4.24-2.49c1-.37,1.18,2.51-.43,3.5a81.62,81.62,0,0,1-8.85,4.77c-.87.4-1.72.87-2.56,1.36L269,272.73l-.28-.51-1.3-2.4-.79-1.5-1.58-3c-.65-1.24-1.28-2.48-2-3.7-1-1.85-2-3.73-3.08-5.52-.84-1.4-1.8-2.69-2.7-4-.2-.29-.42-.56-.61-.87-.7-1.12-.75-1.58-.28-2.19a4.31,4.31,0,0,1,.32-.4c.42-.39,1.08-.15,1.7.61a53.53,53.53,0,0,1,5,7.5c1.13,2,2.23,4,3.31,6Z"/><path class="cls-1" d="M241.62,272.53a2.08,2.08,0,0,1,1.17-1.59c.2-.11.64.07.63.29q0,.63-.06,1.26c-.05.25-1,4.11-1.23,5.41-.11.63-.22,1.26-.31,1.85a5.39,5.39,0,0,0,0,.71,2.5,2.5,0,0,0,.1.6.74.74,0,0,0,.16.3s0,0,.07,0a1.65,1.65,0,0,0,.9-.42,8.22,8.22,0,0,0,2-2.67l.76-1.49a23.82,23.82,0,0,0,1.95-5.6,4.7,4.7,0,0,0,.18-1,2.93,2.93,0,0,1,.07-.5l.24-1.32.61-.57.63-.57,2.54-1.09c.74-.31,1.32-.56,1.53-.63,1.68-.59,3.34-1.24,5-1.88a2.35,2.35,0,0,1,.72-.24,5,5,0,0,0,1.56-.52c.71-.3,1.42-.59,2.14-.85a6.75,6.75,0,0,1,1.12-.25c.34-.07.29.28.2.35-.28.23,0,.24.12.34a.2.2,0,0,1,.06.11,4.84,4.84,0,0,1-.6.41l-1.35.84c-1,.61-2.06,1.24-2.28,1.33s-5.89,2.86-6.56,3.18a9.27,9.27,0,0,1-1.08.41l-1.87.83s0,0,0,0v.06s0,0,0,.09l-.09.44-.14.74-.16.73a17.21,17.21,0,0,1-1,3.12,4.16,4.16,0,0,0-.23.62,22.09,22.09,0,0,1-2.43,5.23c-.32.41-.56.85-.94,1.26l-.54.61-.68.55a2.73,2.73,0,0,1-.55.32,5.79,5.79,0,0,1-.8.31,2.74,2.74,0,0,1-2.6-.35,3.3,3.3,0,0,1-1.18-2.14,4.73,4.73,0,0,1-.06-1.08,8.29,8.29,0,0,1,.12-.94c.09-.59.21-1.15.32-1.71s1-2.84,1.13-3.41C240.94,273.76,241.58,272.83,241.62,272.53Z"/><path class="cls-1" d="M410.43,228.32a29.41,29.41,0,0,0,.75-4.22c.05-.71,0-1.43.07-2.14a14.19,14.19,0,0,0-.08-2.16,37.13,37.13,0,0,0-1.69-8.59,63.69,63.69,0,0,0-2.32-6.07c-3-7.08-7-13.76-11-20.47l-2.69-4.47-2.77-4.37c-2.37-3.72-4.86-7.37-6.94-11.27-1.3-2.43,2.7-.87,5.42,3.46,2.4,3.84,4.79,7.69,7.09,11.58s4.58,7.77,6.75,11.8a135.68,135.68,0,0,1,7.52,15.07,49.59,49.59,0,0,1,2.66,9,31.79,31.79,0,0,1,.5,9.44,41.25,41.25,0,0,1-3.08,11.1A155.33,155.33,0,0,1,403,251.4c-2.07,3.88-4.11,7.69-6.17,11.53l-1.33,2.52c-1.71,3.13-2.38,4-3.37,4.39a4.72,4.72,0,0,1-.67.22c-.64.06-.38-1.47.75-3.86,3.38-7.07,7.57-14.1,11.31-21.34,2.74-5.37,5.41-10.87,6.84-16.55Z"/><path class="cls-1" d="M387.84,225.13c-2.61,5.66-5,11.42-7.25,17.23-3,7.91-6.66,16.61-6.85,25.21,0,.41,2.88,0,2.9-.78.2-8.84,4.06-17.89,7.22-26,2.12-5.45,4.38-10.86,6.83-16.17.19-.41-2.51-.21-2.85.52Z"/><path class="cls-1" d="M386.69,304.25a63,63,0,0,0,4.67-4.58c.54-.59,1-1.23,1.54-1.84,1.87-2.12,3.68-4.31,5.35-6.62a35.52,35.52,0,0,0,2-3.19,33.53,33.53,0,0,1,2.38-4.17c.6-.82,2.37,1.47,1.44,3.21a44.49,44.49,0,0,1-5.84,8.32c-1.35,1.51-2.54,3.26-3.9,4.83q-2.25,2.58-4.75,4.94c-1,1-2.08,1.9-3.19,2.78a36.51,36.51,0,0,1-5.34,3.61,18.91,18.91,0,0,1-4.68,2c-.38.08-.75.18-1.15.24-1.48.1-2-.22-2.15-.94a3,3,0,0,1-.11-.5c0-.57.55-.92,1.37-1.05a19.73,19.73,0,0,0,7.24-3.16,40.1,40.1,0,0,0,5.06-4Z"/><path class="cls-1" d="M363.21,231.89c-.8,3.85-1.59,7.71-2.31,11.58-.27,1.41-.45,2.84-.71,4.25-.92,5-1.83,10-2.56,15-.32,2.24-.61,4.48-.82,6.69-.14,1.42-.24,2.85-.34,4.27s-.25,2.87-.3,4.1a.56.56,0,0,1,0,.2s-.05,0-.09.07a.64.64,0,0,1-.26.22.72.72,0,0,1-.47.06,1.21,1.21,0,0,1-.58-.37,5.35,5.35,0,0,1-1.23-4c.22-3,.61-5.91,1.06-8.83s.92-5.82,1.51-8.72c.72-3.48,1.15-7.14,1.79-10.71q1-5.88,2.24-11.74.75-3.6,1.48-7.2c.77-3.63,1.55-7.27,2.31-10.88.57-2.8,1-5.58,1.53-8.37.12-.61.21-1.22.34-1.84.51-2.28.87-2.95,1.68-3.27a3,3,0,0,1,.55-.2c.58-.08.8,1,.55,2.64-.73,5-1.81,10.19-2.88,15.41-.79,3.88-1.63,7.77-2.39,11.67Z"/><path class="cls-1" d="M334.91,224.88q-.78,5.26-1.48,10.55c-.17,1.28-.25,2.58-.43,3.86-.6,4.53-1.21,9.05-1.74,13.59-.23,2-.39,4.05-.51,6.05a62.5,62.5,0,0,1-.67,7.73c-.3,1.6-2.71-.64-2.5-3.62.38-5.28,1-10.53,1.84-15.8.53-3.16.74-6.47,1.14-9.71.44-3.55.92-7.11,1.41-10.66l.93-6.56c.49-3.31,1-6.63,1.46-9.91.36-2.56.56-5.09.83-7.63.06-.56.1-1.11.17-1.67.27-2.09.55-2.72,1.32-3a2.54,2.54,0,0,1,.53-.21c.57-.11.89.82.81,2.36a140,140,0,0,1-1.58,14c-.49,3.53-1,7.09-1.46,10.63Z"/><path class="cls-1" d="M341.52,448.63l0,0h0l0,.11-.06.21-.28.85c-.19.57-.38,1.13-.59,1.68s-.43,1.11-.68,1.69l-.21.45-.15.28-.15.23a9.29,9.29,0,0,1-.62.85,18.68,18.68,0,0,1-6.09,4.3c-1.54.77-3.05,1.52-4.53,2.22-.65.31-1.3.62-1.89.95s-1.24.74-1.83,1.11-1.2.78-1.76,1.19c-.29.21-.56.42-.82.64s-.56.49-.65.57a1,1,0,0,0-.42.72c.06.3.4.4.68.46a2.51,2.51,0,0,0,.61,0c.33,0,.68-.09,1.05-.14l2.21-.31c2.59-.36,5.17-.79,7.68-1.36a55.24,55.24,0,0,0,9.22-3c.88-.4,1.18.22.73,1.25a6.34,6.34,0,0,1-3.74,3,58.83,58.83,0,0,1-10.25,2.25c-1.71.25-3.41.46-5.09.67l-1.32.17c-.26,0-.46,0-.88.05a5.47,5.47,0,0,1-1.15-.1,4.13,4.13,0,0,1-1.88-.9,2.2,2.2,0,0,1-.75-1.75,3.7,3.7,0,0,1,1-2.2c.14-.17.29-.34.43-.48l.38-.37.65-.56c.87-.71,1.76-1.34,2.66-1.94l1.36-.88c.47-.29,1-.58,1.45-.84,1-.51,1.93-1,2.89-1.42a41.75,41.75,0,0,0,5.94-3.15,9.55,9.55,0,0,0,2.28-2.08,6.3,6.3,0,0,0,.38-.58c.11-.21.22-.47.33-.72.21-.51.41-1,.6-1.58s.38-1.09.56-1.64l.12-.42.16-.52.35-1.3,3-.63c.82-.17,1.64-.33,2.41-.51a18.87,18.87,0,0,0,2.93-.93l.34-.16.22-.1.26-.14a7,7,0,0,0,1-.67c.7-.57,1.48-1.27,2.16-1.9.06.11.11.11.17.17l0,0v3.94l0,1.95c0,.55,0,1.1-.08,1.65a19.42,19.42,0,0,1-2.75,9.9,13.57,13.57,0,0,1-1.4,1.86c-2,2.11-3,2.34-3.88,2.1a2.4,2.4,0,0,1-.59-.2c-.25-.16-.21-.49.07-.92a13.22,13.22,0,0,1,1.44-1.62,14.37,14.37,0,0,0,3.91-7,23.82,23.82,0,0,0,.59-4.23c0-.73.07-1.47.08-2.23v-.23h0l-.15.07a20.61,20.61,0,0,1-3,1.06c-1,.27-2,.46-2.9.65l-1.39.3-.3.06h-.05v0Z"/><path class="cls-1" d="M380,443.55c-.24,1.08-.51,2.14-.83,3.21-.17.55-.32,1.05-.57,1.67l-.12.28-.11.2-.23.42a7.94,7.94,0,0,1-.5.78,19.69,19.69,0,0,1-5.11,4.64c-1.33.9-2.63,1.77-3.91,2.59-1.11.71-2.19,1.49-3.24,2.31-.53.41-1,.82-1.51,1.26a13.85,13.85,0,0,0-1.11,1.11.84.84,0,0,0-.27.72c.12.25.43.31.7.34a2.45,2.45,0,0,0,.54,0c.3-.05.62-.13.95-.2l2-.46a67.74,67.74,0,0,0,6.95-1.95,57.61,57.61,0,0,0,8.2-3.75c.81-.44,1.14.17.83,1.19a5.83,5.83,0,0,1-3.08,3.26,49.17,49.17,0,0,1-9.29,3.15c-1.57.38-3.13.72-4.68,1-.39.08-.77.17-1.23.25a7,7,0,0,1-1.92.09,4.17,4.17,0,0,1-1.83-.65,2.28,2.28,0,0,1-1-1.5,3.24,3.24,0,0,1,.53-2.13,6.51,6.51,0,0,1,.7-1l.18-.21.14-.15.28-.29a27.61,27.61,0,0,1,2.29-2.07,44.17,44.17,0,0,1,4.88-3.51,39.56,39.56,0,0,0,5.09-3.61,10.72,10.72,0,0,0,1.92-2.2,5.54,5.54,0,0,0,.36-.62,1.77,1.77,0,0,0,.14-.27l.13-.33c.16-.47.32-1,.46-1.47.2-.7.38-1.41.54-2.11l.12-.53.14-.67.29-1.66,1.33-.09.64-.07.41-.06c.54-.09,1.09-.21,1.64-.34l2.91-.72a14.45,14.45,0,0,1,3.26-.52l1.87-.13c.42.35.43,1,.45,1.74,0,.35,0,.71,0,1.07l0,.78-.09,1.5c-.05.77-.1,1.55-.14,2.32s-.07,1.49-.22,2.39a14.23,14.23,0,0,1-1.65,4.61A12.71,12.71,0,0,1,387,455a7.69,7.69,0,0,1-2.11,1.93,1.75,1.75,0,0,1-1.4.22,2.83,2.83,0,0,1-.58-.18c-.52-.32.08-1.22,1.18-2.51a13.7,13.7,0,0,0,3.19-6.62l.09-.92.08-1.05.15-2.11.12-2.11v-.12h0l-.48.08c-.83.14-1.7.36-2.6.59s-1.82.48-2.8.69c-.48.11-1,.2-1.5.28h-.18v.05l-.06.31Z"/><path class="cls-1" d="M244.61,303.94a22.27,22.27,0,0,1,7.11-2.44c.7-.11.85.47.13.9-1.4.82-2.82,1.64-4.28,2.44-.89.48-15.32,7.42-20.21,9.8s-9.52,4.52-14.31,6.72l-17.92,8.27-6.65-14.43q-1.5-3.24-2.91-6.51c-3.24-7.48-6.64-14.9-10.09-22.3-.65-1.37-1.3-2.77-1.94-4.14l1.75-.87,2.09-1,2.79-1.32,7.77-3.61c5.59-2.58,11.28-5.18,12.6-5.75l19.6-8.54c.93-.41,1.9-.89,2.79-1.18a61.89,61.89,0,0,0,6-2.54l4.83-2.16,1.23,3.09.86,2.24c.54,1.41,1,2.84,1.45,4.26s-.2.75-.42.32c-.64-1.22-.37-.12-.46.05s-.08.14-.14.09a8.18,8.18,0,0,1-.37-.74l-.89-1.9-1.25-2.7-.69-1.49-.34-.64-.62.35-1.45.73-2.77,1.39c-1.68.84-3,1.47-3.39,1.67l-26.26,12.37c-1.37.66-2.79,1.25-4.19,1.85l-8.21,3.86c-2,1-4.12,2-5.86,2.77l-2.11,1s0,0,0,0h0s0,0,0,0l.06.13.21.44c1.75,3.87,3.62,7.7,5.19,11.63.3.77.68,1.55,1,2.32,3.09,6.62,6.07,13.29,9.07,19.95l3.22,7,.46-.22c.61-.28,1.24-.53,1.86-.8.77-.33,1.56-.66,2.33-1,8-3.72,16.09-7.3,24.07-11.09,1.84-.88,10.77-4.69,12.88-5.71C239.51,305.92,243.58,304.49,244.61,303.94Z"/><path d="M247.34,288.35c-.19-.16-.09-.42.2-.74.09-.1.44-.26.52-.22a2.75,2.75,0,0,1,.41.24c.07.05.76,1.13,1,1.49a7.82,7.82,0,0,1,.6,1.1c.35.77.73,1.53,1.08,2.3a3.35,3.35,0,0,1,.19.53,8.57,8.57,0,0,0,.72,1.8.71.71,0,0,0,.18.27,11.54,11.54,0,0,1,.95,1.93c.13.56.3,1.11.45,1.65,0,.08.08.15,0,.25a.68.68,0,0,0,.08.53,5.68,5.68,0,0,1,.22.7,1.4,1.4,0,0,1,0,.4c0,.12-.25.17-.29.15s-.18.06-.27.11l-.09,0a8.22,8.22,0,0,1-1.08-1.21s-1-1.82-1.11-2a1,1,0,0,1-.12-.35c0-.05-.82-1.47-.85-1.53a2.82,2.82,0,0,1-.33-.95.44.44,0,0,0-.07-.19,15.91,15.91,0,0,1-.67-1.6c-.11-.28-.25-.53-.38-.8a.9.9,0,0,1,0-.16,1.17,1.17,0,0,0-.06-.2c-.31-.62-.53-1.29-.89-1.89-.08-.14-.25-.91-.35-1.07S247.42,288.41,247.34,288.35Z"/><path class="cls-1" d="M177,287.47a5.55,5.55,0,0,1-3.06-1.21.37.37,0,0,1,.23-.66c.72,0,1.44,0,2.16.07.44,0,7.28,1.13,9.61,1.49s4.49.76,6.73,1.2L206.32,291c1,.19,2,.41,3,.65s2.25.52,3.38.76l2.54.53,1.36-2.45a15.48,15.48,0,0,0,.8-1.57c.36-.87,5.07-9.22,5.73-10.27l4.83-7.9a8.78,8.78,0,0,1,.71-1.11,14.1,14.1,0,0,0,1.55-2.38c.67-1.14,1.35-2.28,2-3.39a18.34,18.34,0,0,1,1.16-1.58c.36-.47.46,0,.39.15-.22.56.14.21.28.22s.1,0,.12.05-.05.13-.14.33l-.36.81-1.17,2.47c-.86,1.82-1.79,3.72-2,4.08-.1.18-5.38,9.93-6,11.05-.31.58-.67,1.14-1,1.7L219,291.52l-1,1.72-1.48,2.57-1.53-.33-.38-.09-.21-.06-.38-.1A8,8,0,0,0,213,295c-3.11-.57-6.2-1.24-9.29-1.88-1.59-.33-3.18-.61-4.76-.91-.29-.06-.57-.14-.85-.21s-.72-.18-1.08-.24c-3.76-.71-7.49-1.53-11.26-2.17-.87-.15-5-1.16-6-1.32C179.25,288.18,177.49,287.51,177,287.47Z"/><line class="cls-2" x1="208.83" y1="321.41" x2="208.82" y2="321.41"/><path class="cls-1" d="M223.18,323.27a3.44,3.44,0,0,1-2.61-1.13c-.22-.23-.1-.81.21-.85.61-.08,1.23-.15,1.85-.17.37,0,6.23.53,8.22.7s3.85.41,5.77.68c3.89.55,7.79,1.07,11.69,1.61.86.12,1.73.27,2.58.45,2.94.6,5.9,1,8.88,1.4a9.37,9.37,0,0,0,1.49.13c.8,0,8.85,1.1,9.88,1.32,2.57.54,5.14,1,7.72,1.51a5.32,5.32,0,0,1,1.08.25,8.31,8.31,0,0,0,2.35.56c1.11.18,2.22.38,3.31.62a10.94,10.94,0,0,1,1.59.52c.48.17.16.5,0,.51-.51.05-.13.28-.1.43s0,.13,0,.17-6.53-.18-7.23-.28c-.17,0-9.52-1.13-10.59-1.23-.55-.06-1.1-.19-1.65-.3-.26-.06-7.75-.89-8.05-.93a40,40,0,0,1-4.61-.8,5.53,5.53,0,0,0-.92-.16c-2.66-.33-5.3-.78-7.95-1.21-1.35-.22-2.71-.37-4.07-.56-.24,0-.48-.11-.73-.15s-.61-.14-.91-.18c-3.22-.42-6.42-1-9.64-1.34-.75-.07-4.24-.84-5.1-.92C225.12,323.88,223.62,323.26,223.18,323.27Z"/><path class="cls-1" d="M124.9,346.8a3.36,3.36,0,0,1-2.8.37c-.31-.08-.5-.64-.25-.83.47-.38,1-.76,1.47-1.1.32-.2,5.57-2.74,7.35-3.62s3.48-1.62,5.24-2.37c3.59-1.52,7.17-3.08,10.76-4.61.8-.34,1.61-.65,2.42-.94,2.81-1,5.54-2.14,8.26-3.35a7.84,7.84,0,0,0,1.33-.66c.67-.44,8.09-3.59,9.08-3.93,2.45-.85,4.88-1.77,7.32-2.66a4.67,4.67,0,0,1,1.06-.34,8.43,8.43,0,0,0,2.28-.73c1-.41,2.07-.81,3.13-1.17a12.28,12.28,0,0,1,1.62-.36c.49-.1.39.34.24.45-.41.3,0,.3.13.42a.25.25,0,0,1,.08.15c0,.1-5.65,3.2-6.29,3.47-.16.06-8.67,3.91-9.62,4.37a14.68,14.68,0,0,1-1.56.59c-.25.09-7,3.22-7.31,3.33a37.12,37.12,0,0,1-4.32,1.68,5.8,5.8,0,0,0-.87.34c-2.43,1.08-4.91,2-7.37,3-1.26.5-2.5,1.07-3.75,1.6-.23.1-.46.16-.69.24s-.59.2-.87.32c-2.95,1.29-6,2.44-8.88,3.8-.67.31-4,1.45-4.8,1.82C126.86,346.33,125.27,346.57,124.9,346.8Z"/><path class="cls-1" d="M239.76,432.72a2.31,2.31,0,0,1-.75,2.16c-.19.2-.78.17-.87-.07a14.47,14.47,0,0,1-.43-1.42c-.06-.29-.34-4.92-.45-6.49s-.13-3-.13-4.57c0-3.1,0-6.2,0-9.29,0-.69,0-1.38.08-2.07a69.45,69.45,0,0,0,.15-7.07,5.81,5.81,0,0,0-.08-1.18c-.15-.62-.15-7-.07-7.85.17-2.06.28-4.12.42-6.18a3.17,3.17,0,0,1,.09-.88,5.28,5.28,0,0,0,.23-1.89c0-.88.07-1.77.15-2.65a8.4,8.4,0,0,1,.29-1.3c.1-.39.47-.18.51,0,.12.4.29.08.45,0a.3.3,0,0,1,.16,0c.09,0,.73,5.12.73,5.67,0,.14.21,7.55.26,8.39a9.87,9.87,0,0,1-.06,1.33c0,.2.2,6.13.2,6.37a23.8,23.8,0,0,1-.15,3.68,3.64,3.64,0,0,0,0,.74c0,2.11,0,4.22-.09,6.33,0,1.08,0,2.16,0,3.24,0,.19,0,.39,0,.58s-.05.49-.05.74c0,2.55-.08,5.1,0,7.66,0,.59-.25,3.39-.21,4.07C240.1,431.14,239.7,432.38,239.76,432.72Z"/><path class="cls-1" d="M277.15,341a75.92,75.92,0,0,1,12.16-6.81c1.18-.51,1.32.1.06,1-2.46,1.75-4.94,3.5-7.49,5.24l-35,22.72L239.21,368l-21.31-3.26-59.06-9.16c-4.37-.68-8.75-1.39-13.1-2.12L124.4,350q0,10.17,0,20.35c0,2.52,0,5.11.08,7.56.05,1.42.09,7.53.11,15,0,7.05,0,15.41,0,22L135,417l39,7.78c1.86.37,3.85.71,5.52,1.13,3.89,1,7.9,1.7,11.93,2.48,5.58,1.08,11.17,2.18,16.72,3.31,2.75.56,5.45,1.21,8.14,1.83,2.45.57,1,.68.17.55-2.54-.36-.53.2-.32.39s.15.15,0,.17-.56-.07-1.48-.22l-3.76-.61-11.54-1.92c-8.52-1.43-17.45-2.95-19.2-3.29l-53.08-9.74-5.86-1.12c0-1.74,0-3.48,0-5.21,0-1.33-.19-39.47-.2-41V359.86l0-5.82.1-7.69.8.14,3.8.62,2.35.36c13.43,2,26.83,4.22,40.24,6.36L189,357l3.7.63,4.67.77,41.15,6.42,5.55-3.55c3.18-2,18.58-11.47,22.25-13.83C268.39,346.13,275.35,342.2,277.15,341Z"/><path class="cls-1" d="M241.58,434.23a3,3,0,0,1-2.51.83c-.31,0-.61-.53-.43-.76.36-.45.72-.89,1.12-1.3.24-.25,4.54-3.58,6-4.73s2.85-2.14,4.32-3.16c3-2.08,5.94-4.18,8.92-6.26.66-.46,1.34-.9,2-1.31,2.38-1.43,4.65-3,6.9-4.62a7.49,7.49,0,0,0,1.08-.85c.52-.54,6.68-4.83,7.52-5.32,2.08-1.24,4.12-2.53,6.19-3.79a3.79,3.79,0,0,1,.89-.51,7.46,7.46,0,0,0,1.95-1.09c.87-.57,1.74-1.13,2.64-1.65a11.87,11.87,0,0,1,1.41-.63c.44-.17.44.27.34.4-.32.36.09.28.21.38s.1.08.1.13-4.5,4-5,4.4c-.13.09-7.14,5.23-7.92,5.84-.41.31-.87.56-1.31.83-.21.12-5.79,4.28-6,4.43a30.82,30.82,0,0,1-3.63,2.35,6.33,6.33,0,0,0-.72.47c-2,1.45-4.08,2.8-6.14,4.17-1.06.7-2.08,1.45-3.11,2.18-.19.13-.4.23-.59.35s-.5.28-.74.45c-2.43,1.74-5,3.35-7.36,5.15-.55.42-3.4,2.08-4,2.56C243.29,433.45,241.86,434,241.58,434.23Z"/><path class="cls-1" d="M189.6,350.69c-.49.58-1.21.5-2.11.05-.28-.15-.69-.87-.58-1.07a9.16,9.16,0,0,1,.71-1.14c.16-.2,3.29-2.56,4.33-3.38a29.68,29.68,0,0,1,3.19-2.15c2.22-1.36,4.43-2.75,6.65-4.11a12.48,12.48,0,0,1,1.54-.8,36.72,36.72,0,0,0,5.19-2.92,2.89,2.89,0,0,0,.78-.61,47.94,47.94,0,0,1,5.59-3.52c1.61-.69,3.17-1.46,4.75-2.19a1.63,1.63,0,0,1,.7-.27,2.84,2.84,0,0,0,1.52-.56c.66-.35,1.32-.69,2-1a4.78,4.78,0,0,1,1.15-.21c.35-.05.47.48.4.59-.2.31.16.38.3.55a.76.76,0,0,1,.12.19,34.38,34.38,0,0,1-3.54,3.35c-.1.06-5.27,3.56-5.83,4a4.68,4.68,0,0,1-1,.5c-.16.08-4.26,2.93-4.43,3a11.69,11.69,0,0,1-2.76,1.44,1.66,1.66,0,0,0-.54.29c-1.49,1-3.06,1.8-4.62,2.66-.79.44-1.54.95-2.32,1.42a3.07,3.07,0,0,1-.45.2,4.83,4.83,0,0,0-.56.27c-1.81,1.15-3.73,2.12-5.49,3.37-.4.29-2.61,1.2-3.07,1.54C191,350.4,189.79,350.47,189.6,350.69Z"/><path class="cls-1" d="M308.21,291.42a95.79,95.79,0,0,1,1.18-10.5c.2-1.25.34-2.52.58-3.76.84-4.39,1.8-8.74,2.71-13.1.4-1.93.72-3.88,1-5.82a70.67,70.67,0,0,1,1.23-7.41c.39-1.53,2.7.79,2.25,3.7-.79,5.12-1.85,10.14-3.12,15.17-.76,3-1.2,6.19-1.74,9.29-.6,3.41-1.07,6.82-1.35,10.26a42.67,42.67,0,0,0-.09,6.29,23.37,23.37,0,0,0,.75,4.65,15.77,15.77,0,0,0,1.77,4.26,4.56,4.56,0,0,0,2.34,2,3.59,3.59,0,0,0,3-1.27,6.11,6.11,0,0,0,.47-.53c1.14-1.42,1.51-1.92,2.36-1.93a3.66,3.66,0,0,1,.57,0c.3,0,.44.3.42.73a4,4,0,0,1-.6,1.76,9.23,9.23,0,0,1-2.55,2.95,10.45,10.45,0,0,1-1,.57,8.92,8.92,0,0,1-1.17.39,6.36,6.36,0,0,1-1.31.06,4.58,4.58,0,0,1-1.28-.29,7.43,7.43,0,0,1-3.42-2.94,17,17,0,0,1-1.68-3.54,29.17,29.17,0,0,1-1.42-11Z"/><path class="cls-3" d="M397.52,437.75c-22,9.5-23.08,4.77-24.75,3.53-4.22-3.12-8.59-35.81-10.27-45.11q-5.12-28.29-9.67-56.67c-1.83,30.77,5.43,99.15,3.1,101.57-1.9,2-23.16,9.27-24,2.56-2.44-20.17-3.79-40.47-4.67-60.77-1.05-24.1-.3-103,2-119.08,7.76,7.11,20.45,4.78,26.24,4-1,13-.4,46.95,21.79,44.56,2.91,23.64,6.11,48.11,8,58.33C386,374.25,400.56,436.44,397.52,437.75Z"/><path class="cls-1" d="M353.66,269.14c-10.08,1-20-.88-26.81-8.76-.62-.7-3.39.32-2.7,1.11,7.4,8.51,18.31,10.26,29.09,9.14,1.36-.14,2.44-1.7.42-1.49Z"/><path class="cls-1" d="M110.64,406.64c-3.2,2.42-4.24,7.17-3,11,2.13,6.3,9.48,8.93,16,10.39,27.66,6.2,56.3,6.11,84.64,5.48A368.27,368.27,0,0,0,139,420.34a60.79,60.79,0,0,1-14.82-3.28C117.5,414.87,129.84,392.09,110.64,406.64Z"/><path class="cls-1" d="M350.74,98.48c0,.24-.28.22-.8.13-.16,0-.58-.25-.6-.35a2.65,2.65,0,0,1,0-.56,3.35,3.35,0,0,1,.43-.81,11.62,11.62,0,0,1,.7-1,4.92,4.92,0,0,1,1.06-.93A13.7,13.7,0,0,1,354,93.63a2.64,2.64,0,0,1,.61-.17,21.77,21.77,0,0,0,2.13-.45.87.87,0,0,0,.34-.12,3.85,3.85,0,0,1,1.2-.2,4.71,4.71,0,0,1,1.29.09,10.54,10.54,0,0,1,1.86.77c.08,0,.18.07.23.18s.29.31.46.41a2.61,2.61,0,0,1,.63.52,1.29,1.29,0,0,1,.19.41c0,.12-.19.32-.24.33s-.16.17-.23.27l-.07.11a3.9,3.9,0,0,1-.73-.09c-.33-.07-.7,0-.75-.08l-.27-.09-.6-.11a7.18,7.18,0,0,0-1,0,.65.65,0,0,1-.3-.06,8.68,8.68,0,0,0-1.49.28,2,2,0,0,1-.89.08.28.28,0,0,0-.18,0l-1.5.47a6,6,0,0,0-.72.36l-.15,0a.43.43,0,0,0-.18.06A6.5,6.5,0,0,0,352,97.72c-.1.1-.74.41-.81.56S350.75,98.38,350.74,98.48Z"/><path class="cls-1" d="M342.59,97.67c.21-.08.28.21.24.7a2.18,2.18,0,0,1-.24.66,3.08,3.08,0,0,1-.33.26c-.05,0-.84.07-1.1.15a2.86,2.86,0,0,1-.77,0,11.82,11.82,0,0,0-1.57,0,1.1,1.1,0,0,1-.36,0,2.33,2.33,0,0,0-1.23.05c-.07,0-.14,0-.19.1a4.59,4.59,0,0,1-1.29.38,5,5,0,0,0-1.09,0c-.05,0-.09,0-.17,0s-.26-.06-.36,0l-.45.11a1,1,0,0,1-.32-.09c-.1,0-.24-.3-.23-.34s-.11-.2-.19-.3a.61.61,0,0,1-.07-.1,1.78,1.78,0,0,1,.31-.56,3.46,3.46,0,0,1,.45-.53l.23-.12.5-.27.85-.39a.49.49,0,0,1,.27,0s1.19-.45,1.24-.44c.25,0,.49-.14.76,0a.29.29,0,0,0,.16,0,5,5,0,0,1,1.28,0c.22,0,.44,0,.66,0a.56.56,0,0,1,.12,0,.4.4,0,0,0,.15,0c.52,0,1,.1,1.57.08.13,0,.68.3.82.31S342.51,97.7,342.59,97.67Z"/><path class="cls-1" d="M344.22,124a2.94,2.94,0,0,1-.71-1.45,2.7,2.7,0,0,1-.07-.6,3.07,3.07,0,0,1,0-.53,9.39,9.39,0,0,1,.31-1.79c.11-.39.16-.79.29-1.14.22-.54.4-1.2.62-1.85l.63-1.93c.18-.57.31-1.16.47-1.73a12.24,12.24,0,0,1,.75-2.18c.1-.22,0-.2.05,0s.2.6.3,1.06a10.91,10.91,0,0,1,0,4.69,9.28,9.28,0,0,0-.22,1.4l0,.36-.06.42c0,.25-.09.48-.14.71A9.84,9.84,0,0,0,346,122c0,.16,0,.23,0,.24s.11.11.41.09a6.47,6.47,0,0,0,2.6-.61,13.57,13.57,0,0,0,1.78-1.16l.4-.27c.5-.35.71-.44.81-.52l.06-.07a4.33,4.33,0,0,0-.26.62,9.75,9.75,0,0,1-1.11,2,6.43,6.43,0,0,1-1.82,1.61,6.33,6.33,0,0,1-1.74.72l-.47.11a1.89,1.89,0,0,1-.31,0H346a2.69,2.69,0,0,1-1.8-.76Z"/><path class="cls-1" d="M356.62,132a4.51,4.51,0,0,1-1.2,1.35,3.2,3.2,0,0,1-.55.42,3.69,3.69,0,0,1-2.34.22,5.79,5.79,0,0,1-.89-.23,2.25,2.25,0,0,1-.5-.29,1.37,1.37,0,0,1-.22-.2l-.05-.06,0-.05,0,0s0-.12,0-.15.05,0,.07,0,.11.06.16.1.08,0,0,.05a.18.18,0,0,0-.09,0s0,.07,0,0a.1.1,0,0,0,0-.07s0,0,0-.05A.59.59,0,0,0,351,133h0a1.24,1.24,0,0,1,.27-.17c.71-.38,1.07-.69,1.48-.67s.43-.25.63-.4a6.54,6.54,0,0,0,.78-.63,3.76,3.76,0,0,0,.47-.56,4.18,4.18,0,0,0,.61-1,1.87,1.87,0,0,0,.14-.44,2.48,2.48,0,0,1,.2-.44,1.86,1.86,0,0,1,.1-.2,2.57,2.57,0,0,1,.31-.36l0,0a1,1,0,0,0,.16.3c.15.31.36.65.54,1a3.52,3.52,0,0,1,.25,1.09,3.37,3.37,0,0,1-.32,1.64Z"/><path class="cls-1" d="M353.09,146c-1.72-1-11.45,7.3-1.32,6.67,19.4-1.2,16.12-12,16.12-12S357.05,148.39,353.09,146Z"/><path class="cls-1" d="M364.59,209.89c-2.14,10.13-4.54,20.2-6.82,30.29-2,8.93-4.86,18.17-5.77,27.31-.11,1.11,2.8.56,2.9-.38.9-9.14,3.76-18.37,5.77-27.31,2.27-10.09,4.68-20.16,6.81-30.29.22-1-2.69-.58-2.89.38Z"/><path class="cls-1" d="M331.52,174.39a23.65,23.65,0,0,0,11,2.6c3.56-.16,6.91-1.45,10.5-1.38.92,0,2.62-1.34,1-1.37a34.2,34.2,0,0,0-7.34.9c-4.77.93-8.75.08-13.15-1.93-.71-.32-3,.72-2,1.18Z"/><ellipse class="cls-1" cx="339.14" cy="111.13" rx="1.16" ry="2.53"/><path class="cls-1" d="M339.05,110.37a.09.09,0,0,0-.05,0c0,.12-.06.24-.09.37a4.9,4.9,0,0,0-.07.77,1.24,1.24,0,0,0,0,.27c0,.09,0,.07,0,.11a.8.8,0,0,0,.05.44c.05.18.27.31.42.21a.58.58,0,0,0,.22-.43c0-.14,0-.16,0-.36a1.56,1.56,0,0,1,.13-.58c.1-.26,1.68.06,1.62.73a4.88,4.88,0,0,1-.28,1.16,2.85,2.85,0,0,1-.63,1,1.7,1.7,0,0,1-.89.46,1.33,1.33,0,0,1-1-.21,3.2,3.2,0,0,1-1.23-2.18,5.71,5.71,0,0,1,.13-2.1,3.49,3.49,0,0,1,.68-1.45,1.33,1.33,0,0,1,.9-.5,1.25,1.25,0,0,1,.94.42,3.76,3.76,0,0,1,.9,1.57,2.44,2.44,0,0,1,.1.33c.07.4-.05.54-.47.63l-.29.05a.71.71,0,0,1-.71-.32,3.16,3.16,0,0,0-.23-.41.19.19,0,0,0-.1,0c-.05,0-.05.05-.05.05s0-.06-.05,0Z"/><ellipse class="cls-1" cx="352.09" cy="108.56" rx="1.16" ry="2.53"/><path class="cls-1" d="M352,107.81s0,0-.05,0a2.22,2.22,0,0,0-.09.37,3.91,3.91,0,0,0-.07.76,1.27,1.27,0,0,0,0,.28.23.23,0,0,1,0,.11,1,1,0,0,0,.05.44c.06.18.28.31.42.21a.59.59,0,0,0,.23-.43c0-.14,0-.17,0-.36a1.82,1.82,0,0,1,.14-.58c.1-.26,1.67.06,1.61.73a4.29,4.29,0,0,1-.27,1.15,2.83,2.83,0,0,1-.64,1,1.64,1.64,0,0,1-.88.46,1.37,1.37,0,0,1-1-.21,3.23,3.23,0,0,1-1.24-2.18,5.71,5.71,0,0,1,.14-2.1,3.37,3.37,0,0,1,.68-1.45,1.29,1.29,0,0,1,.9-.5,1.25,1.25,0,0,1,.93.42,3.66,3.66,0,0,1,.91,1.57c0,.12.08.21.1.33.07.4-.05.54-.47.62l-.29.06a.71.71,0,0,1-.72-.32,2,2,0,0,0-.22-.41.15.15,0,0,0-.11,0,.06.06,0,0,0,0,.05s0-.06-.06,0Z"/><path class="cls-1" d="M398.75,265.39c5.7,1.39-3,4.42-4.9,4.5-.44,0-1-.05-1.17-.44-.4-.83,1.28-2.63,1.92-3.15A5,5,0,0,1,398.75,265.39Z"/><path class="cls-1" d="M371.16,259.35a4,4,0,0,1,2.79,1.32,4.14,4.14,0,0,1,.66,1.66c.1.49.52,1.68-.09,2s-1.22-.48-1.54-.8a7.29,7.29,0,0,1-1.46-2.48C371.35,260.67,370.15,259.17,371.16,259.35Z"/><path class="cls-1" d="M387.42,272.42a25.13,25.13,0,0,1-6.22-.49,20.15,20.15,0,0,1-2.25-.59,14.74,14.74,0,0,1-6.46-4.85,32.43,32.43,0,0,1-2-2.9,12.13,12.13,0,0,1-1.8-4c-.17-.91,2.64-.78,3.28.62a22.7,22.7,0,0,0,4.25,6.62,5.58,5.58,0,0,0,.92.75,4.18,4.18,0,0,0,1,.61l1.12.5c.39.14.79.23,1.18.36a19.12,19.12,0,0,0,5.49.78c1.16,0,2.34-.13,3.51-.21a34.15,34.15,0,0,0,5.27-1.14c.66-.2,1.31-.45,1.95-.7s1.25-.6,1.87-.89c.28-.13.54-.28.82-.4,1.05-.43,1.45-.38,2,.19a4.12,4.12,0,0,1,.33.4c.31.47,0,1.05-.71,1.5a24.72,24.72,0,0,1-3.53,1.76c-1.27.45-2.57.86-3.89,1.23-1,.21-2,.4-3,.58s-2.07.21-3.09.33Z"/></g></svg>