<svg id="Layer_1" data-name="Layer 1" xmlns="http://www.w3.org/2000/svg" width="520" height="520" viewBox="0 0 520 520"><defs><style>.cls-1{fill:#221f1f;}.cls-2{fill:none;stroke:#000;stroke-miterlimit:10;stroke-width:1.38px;}</style></defs><title>Notioly v2</title><g id="_91.Office" data-name="91.Office"><path class="cls-1" d="M125.09,298.08c-4.9,19-21.92,12.83-24,11,4.59-12.42,8.22-23.4,11.39-31h0C123.35,279.18,127.08,290.38,125.09,298.08Z"/><path class="cls-1" d="M183.93,310.88a12.41,12.41,0,0,1-6.71,1.95c-15.57,0-18.57-22.49-7.6-29.25C175.16,291.89,179.65,301.62,183.93,310.88Z"/><path class="cls-1" d="M161.87,227.39s12.2,0,12.63-13.16C174.5,214.23,167.35,222.07,161.87,227.39Z"/><path class="cls-1" d="M176.55,209.81a30.14,30.14,0,0,1-9.62,13.66l-4.53,3.71a57.72,57.72,0,0,0-13.11,15.51,33.51,33.51,0,0,0-3.26,8.36,31.07,31.07,0,0,0-.33,11.29c.15,1.15-.48,1.19-1.28.27a8.52,8.52,0,0,1-1.18-2,10.84,10.84,0,0,1-.56-3.21,31.16,31.16,0,0,1,2.74-12.27A43.55,43.55,0,0,1,152,234.61,71.07,71.07,0,0,1,162.62,224a49.78,49.78,0,0,0,6-5.25,26,26,0,0,0,4.36-6.52,35.26,35.26,0,0,0,2.91-9.31,50,50,0,0,0,.69-7.44c0-1.25,0-2.5,0-3.75l-.1-1.87-.18-2c0-.11,0-.23,0-.34a2,2,0,0,1,.11-.93.73.73,0,0,1,.34-.29,1.71,1.71,0,0,1,.43-.2c.29-.11.73-.25.88-.32l.6-.28a5.69,5.69,0,0,0,2-1.52,2.38,2.38,0,0,0,.66-1.93,4.05,4.05,0,0,0-1-2,14.39,14.39,0,0,0-1.72-1.56c-1.17-.93-2-1.48-2.58-2a2.87,2.87,0,0,1-.94-1.3c0-.1-.07-.21-.11-.32s-.07-.22,0-.27.09,0,.1,0h0l.15-.26h.19l.4.06a9.32,9.32,0,0,1,2.51,1.1,16.76,16.76,0,0,1,3.33,2.5,7.79,7.79,0,0,1,.76.85l.36.46.32.54a6.3,6.3,0,0,1,.52,1.21,4.91,4.91,0,0,1-.14,2.9,6.75,6.75,0,0,1-.68,1.21,7.55,7.55,0,0,1-1.84,1.74,10.19,10.19,0,0,1-2.09,1.09l-.09,0h0v.15l.07.7c.05.47.08.95.11,1.42,0,1,.12,1.91.12,2.87a47.79,47.79,0,0,1-2.35,16.63Z"/><line class="cls-2" x1="120.63" y1="194.91" x2="120.63" y2="194.91"/><path class="cls-1" d="M179.14,149.18c-2.23,3.8-13.92,14-40.11,20.48-3.26.8-4.46,14.76-7.38,12.69-3.66-2.59-17.62-11.74-22,1.53-2.1,6.46,4.19,11.13,9.13,12.14a9.18,9.18,0,0,0,13.38,12.54c5.59,5.54,6.62,19.15.33,23.88C118.29,243.18,136,272,83.48,269.78c-16.3-.69-30.14-14.48-36.75-29.4a54.13,54.13,0,0,1,2.2-47.18c3.38-6.16,11-11.68,13.65-18.17,2.9-6.95,1-44.54,39.44-58.16,18-6.39,40.44-8,58.89-3C183.17,119.91,183.23,142.24,179.14,149.18Z"/><path class="cls-1" d="M48.86,197.05a52.86,52.86,0,0,0-2.41,38.29,49.54,49.54,0,0,0,3.94,9,58.39,58.39,0,0,0,5.47,8.19,55,55,0,0,0,6.85,7A40.27,40.27,0,0,0,70.84,265a31.08,31.08,0,0,0,13.62,3.44A99,99,0,0,0,99,268a48.5,48.5,0,0,0,9.55-2,23,23,0,0,0,8.25-4.61,19.77,19.77,0,0,0,5.2-7.79,88,88,0,0,0,2.74-9.53,42.07,42.07,0,0,1,1.58-4.93,18.4,18.4,0,0,1,2.58-4.66,7.23,7.23,0,0,1,.88-1,10.9,10.9,0,0,1,.95-1l1.05-.88.82-.74a10.26,10.26,0,0,0,2.3-3.82,18.28,18.28,0,0,0,.82-4.62,23.83,23.83,0,0,0-.33-4.76,20.78,20.78,0,0,0-1.4-4.54c-.14-.37-.36-.7-.53-1l-.27-.52-.33-.48-.29-.43a1,1,0,0,0-.17-.22c-.12-.12-.23-.31-.35-.36l-.24.2-.31.22-.08.06-.17.09-.36.21a7.21,7.21,0,0,1-.74.36,10.83,10.83,0,0,1-9.45-.41,9.47,9.47,0,0,1-2.55-2.08,10,10,0,0,1-1.65-2.82,10.87,10.87,0,0,1-.43-6.38,10.27,10.27,0,0,1,.32-1.08l.2-.54.22-.46a4,4,0,0,1,.54-.82c-.13-.08-.39-.1-.57-.18l-.3-.1-.46-.18a16.79,16.79,0,0,1-2.48-1.31,12.74,12.74,0,0,1-4-4,8.81,8.81,0,0,1-1.11-5.69,14.55,14.55,0,0,1,.33-1.42c.14-.45.31-.87.47-1.31a13.41,13.41,0,0,1,1.34-2.5,8.77,8.77,0,0,1,4.58-3.5,11.24,11.24,0,0,1,5.66-.2,29,29,0,0,1,9.87,4.34l1,.66a.93.93,0,0,0,.41.2.52.52,0,0,0,.38-.21,2,2,0,0,0,.26-.38,8.84,8.84,0,0,0,.37-.81c.49-1.16.88-2.44,1.29-3.72s.81-2.58,1.33-3.89a14.34,14.34,0,0,1,1-2,6,6,0,0,1,.77-1,3.22,3.22,0,0,1,1.32-.78,129.58,129.58,0,0,0,19.49-6.51,87.61,87.61,0,0,0,9.15-4.56,49.22,49.22,0,0,0,8.24-5.84c2.23-2,2.85-3,3.08-2.76s0,.5-.28,1.17a12.59,12.59,0,0,1-1.72,2.56,37.71,37.71,0,0,1-8.28,7.12,71,71,0,0,1-13.91,7,136.67,136.67,0,0,1-15,4.65l-.05.05a2.67,2.67,0,0,0-.35.46,10.25,10.25,0,0,0-.75,1.52c-.46,1.14-.87,2.39-1.28,3.67s-.81,2.57-1.39,3.95a11.6,11.6,0,0,1-.52,1.1c-.15.28-.36.55-.53.83a4.39,4.39,0,0,1-.67.69,2.67,2.67,0,0,1-1.67.68,2.9,2.9,0,0,1-.89-.12,5.59,5.59,0,0,1-.86-.41l-.86-.6-.55-.36-1.09-.69q-1.11-.67-2.25-1.26a23.14,23.14,0,0,0-4.66-1.84,10.18,10.18,0,0,0-4.55-.27,6.07,6.07,0,0,0-1.92.76,6.9,6.9,0,0,0-1.56,1.41,9.43,9.43,0,0,0-1.17,1.95,10.84,10.84,0,0,0-.77,2.19,5.69,5.69,0,0,0,.56,4.06,9.27,9.27,0,0,0,3.1,3.3,12.56,12.56,0,0,0,2.1,1.15l.28.11.23.1.32.11,1.33.36c.89.25,1.77.45,2.63.67l-1.09,1.42c-.36.49-.75,1-1.1,1.47a6,6,0,0,0-.4.72l-.15.32-.24.66a8.41,8.41,0,0,0-.36,2.83,7.12,7.12,0,0,0,7.41,7.05,8.39,8.39,0,0,0,2.86-.49,8,8,0,0,0,1.28-.62,1.77,1.77,0,0,0,.26-.19l.29-.23.6-.47,1.22-1.06c.44.47.89,1,1.33,1.5l.65.76c.21.24.39.55.49.68a14.94,14.94,0,0,1,1.23,2.1,20.69,20.69,0,0,1,1.58,4.49,22.6,22.6,0,0,1,.27,9.41,15.07,15.07,0,0,1-1.62,4.68c-.21.36-.41.74-.65,1.09l-.82,1a7.36,7.36,0,0,1-.94.91l-.5.44-.4.34a15.1,15.1,0,0,0-4.63,7c-1,2.77-1.64,5.77-2.44,8.79a34.24,34.24,0,0,1-3.5,8.94,20.73,20.73,0,0,1-6.83,7,31.66,31.66,0,0,1-8.92,3.74,74.29,74.29,0,0,1-18.78,1.85c-1.72-.06-3.41,0-5.16-.18-.88-.09-1.76-.15-2.64-.27l-2.59-.51a38,38,0,0,1-9.74-3.91A43.4,43.4,0,0,1,59.34,260a54.69,54.69,0,0,1-6.93-7.74,56.57,56.57,0,0,1-9.15-18.54,55,55,0,0,1-1.59-20.59,56.46,56.46,0,0,1,2.85-12.43A55.1,55.1,0,0,1,47,194.85c.51-.94.92-1.9,1.52-2.84a26.16,26.16,0,0,1,1.84-2.66C53,186,56,183.06,58.56,179.83a24,24,0,0,0,3.18-5.1,16.46,16.46,0,0,0,.74-2.85c.19-1,.36-2,.53-3.07a101.4,101.4,0,0,1,4.41-18.62,56.74,56.74,0,0,1,9.26-16.83,52.05,52.05,0,0,1,14.59-12.42A74.2,74.2,0,0,1,109,113.88,111.54,111.54,0,0,1,138,110a98.65,98.65,0,0,1,14.56,1c1.2.16,2.4.39,3.6.62s2.39.49,3.58.78a34.8,34.8,0,0,1,7.06,2.34A26.6,26.6,0,0,1,177.08,123a26.11,26.11,0,0,1,4.44,9.46,27,27,0,0,1,.77,7,15.85,15.85,0,0,1-1.8,7.53,8.58,8.58,0,0,1-1.34,1.89c-.3.26-.35.08-.21-.46s.45-1.47.7-2.83a28.72,28.72,0,0,0-.54-12.58,23.86,23.86,0,0,0-6-10.63A26.24,26.24,0,0,0,162.55,116a77.86,77.86,0,0,0-12.73-2.63,98.05,98.05,0,0,0-13.18-.7,108.06,108.06,0,0,0-26.41,3.54,81.72,81.72,0,0,0-12.61,4.38,54.15,54.15,0,0,0-11.3,6.85,49.12,49.12,0,0,0-12.55,15,67.79,67.79,0,0,0-6.64,18.67c-.72,3.28-1.22,6.59-1.79,10-.15.85-.31,1.72-.51,2.61-.13.46-.21.89-.39,1.4a10.92,10.92,0,0,1-.57,1.36A26.14,26.14,0,0,1,61,181.11c-2.17,2.83-4.58,5.27-6.75,7.8a35.18,35.18,0,0,0-3,3.86,41.21,41.21,0,0,0-2.29,4.28Z"/><path class="cls-1" d="M118.64,206.7a3.76,3.76,0,0,1,.93,2c0,.26-.29.6-.53.45a5.71,5.71,0,0,1-1.33-1,8.85,8.85,0,0,1-1.65-2.76,10.59,10.59,0,0,1-.69-4.36,9,9,0,0,1,2.06-5.1,11.31,11.31,0,0,1,4.49-3.22,10,10,0,0,1,5.55-.66,9,9,0,0,1,2.37.76,17.37,17.37,0,0,1,1.79,1,10.77,10.77,0,0,1,1.66,1.31,8,8,0,0,1,2.06,3.86c.12.45.15.93.29,1.37a9.56,9.56,0,0,1,.11,1.62q0,.63-.12,1.38c-.07.49-.2,1-.31,1.51s-.34,1-.51,1.48-.45.89-.65,1.28a12.05,12.05,0,0,1-1,1.46,9.3,9.3,0,0,1-6.61,3l-.64.05a1.87,1.87,0,0,1-.53-.14,10.51,10.51,0,0,0-2-.66,14.68,14.68,0,0,1-2.69-1.08,4.32,4.32,0,0,1-1.16-.94c-.31-.34.09-.4.21-.35.38.18.2-.14.25-.25a.23.23,0,0,1,.08-.11s.26.14.72.31a13,13,0,0,0,1.74.51c1.33.31,2.77.5,3,.56l.08,0,.16,0,.11,0s.56-.08,1.18-.15a6.86,6.86,0,0,0,4.6-3.35l.62-1a10.07,10.07,0,0,0,.69-2.87,9.86,9.86,0,0,0,0-2c-.08-.53-.15-.9-.16-.95a7.57,7.57,0,0,0-1.25-2.77,2.34,2.34,0,0,0-.42-.41,9.66,9.66,0,0,0-5.41-2.05,7.35,7.35,0,0,0-2.89.61c-.17.07-.35.12-.52.18a6.09,6.09,0,0,0-.63.3A8.1,8.1,0,0,0,119,198a6.61,6.61,0,0,0-1.24,3.22c0,.13-.06.39-.08.72a5.83,5.83,0,0,0,0,1.12,9.43,9.43,0,0,0,.13,1.14c.08.34.17.61.22.76A7.12,7.12,0,0,0,118.64,206.7Z"/><path class="cls-1" d="M342.7,343.12c6.77,2.67,11.8,6.87,14.35,11.65.8,1.51.12,1.56-1.06,0a29.8,29.8,0,0,0-9.12-7.27A47.66,47.66,0,0,0,340,344.3c-2-.73-4.26-1.47-6.8-2.15s-5.32-1.25-8.21-1.74a135.12,135.12,0,0,0-17.54-1.71c-5.57-.19-10.51-.06-13.82.1a188,188,0,0,0-19.19,2,190.28,190.28,0,0,0-18.92,3.82,161.5,161.5,0,0,0-18.68,5.93c-3,1.18-6,2.45-9,3.84l-2.21,1a20.52,20.52,0,0,1-2.53,1,18,18,0,0,1-5.34.93,19.1,19.1,0,0,1-10.4-2.71,19.67,19.67,0,0,1-4.2-3.45l-.89-1-.8-1.11c-.52-.74-.92-1.44-1.37-2.18a173,173,0,0,1-8.77-18c-.6-1.33-1.2-2.65-1.84-3.92s-1.33-2.63-1.95-4c-1.29-2.66-2.51-5.34-3.72-8-4.14-9.16-8.23-18.32-13.46-26.74a71.44,71.44,0,0,0-9-11.7,39.09,39.09,0,0,0-11.73-8.43,29.36,29.36,0,0,0-9.18-2.56c-.31-.06-.82-.08-1.48-.13s-1.48-.15-2.45-.13a42.92,42.92,0,0,0-7.28.54c-.7.12-1.48.21-2.17.36a13.84,13.84,0,0,0-2.09.63,14.46,14.46,0,0,0-4,2.33,15.24,15.24,0,0,0-3.26,3.69,19.9,19.9,0,0,0-1.2,2.31c-.39.84-.78,1.68-1.15,2.55-3,6.9-5.66,14.08-7.86,19.86L103,307.48c-6.25,16.39-12.38,32.89-18.93,49.22-.93,2.32-1.88,4.83-2.84,6.91-2.21,4.84-4.23,9.87-6.41,14.86a221.53,221.53,0,0,1-9.93,20.38A50.29,50.29,0,0,1,58.49,408c-2.44,2.4-1.39.77-.63-.08a6.39,6.39,0,0,0,.92-1.22c.1-.19,0-.19-.08-.09s-.76.74-1,.78-.24.09-.17-.05.47-.57,1.18-1.54l.59-.8.64-1c.45-.71,1-1.49,1.49-2.4a150.21,150.21,0,0,0,7-13.73c4.72-10.4,9-21.61,9.89-23.78.11-.27,1.63-4.15,3.89-9.91s5.14-13.48,8.06-21.38l13.07-35.71c1.29-3.52,2.69-7.05,4.07-10.55.17-.41,1.4-3.68,3.3-8.36,1-2.36,2-5,3.48-7.91a18.28,18.28,0,0,1,7.27-7.48,17.42,17.42,0,0,1,5-1.89c.86-.17,1.66-.28,2.47-.41a22.24,22.24,0,0,1,2.42-.31l2.36-.19c.77,0,1.54,0,2.28,0h1.11c.36,0,.72,0,1.07.07l2,.16c1.3.19,2.52.37,3.6.6s2,.49,2.82.73c1.57.54,2.58.87,2.82,1a41.09,41.09,0,0,1,7.24,3.91,45.49,45.49,0,0,1,6.26,5.22,65.79,65.79,0,0,1,9.78,12.7l1.63,2.72,1.6,2.76c4.46,8,8.11,16.23,11.89,24.37.95,2,1.91,4.06,2.88,6.08l1.5,3c.52,1,1,2.07,1.47,3.1,1.87,4.14,3.6,8.26,5.56,12.27,1,2,2,4,3.18,6q.42.73.87,1.44c.29.49.59,1,.89,1.37l.46.65.51.59a9.79,9.79,0,0,0,1.09,1.14,15.68,15.68,0,0,0,5.31,3.31,16.33,16.33,0,0,0,6.19,1,15.44,15.44,0,0,0,4.46-.79c1.74-.58,3.7-1.59,5.61-2.45a163.41,163.41,0,0,1,31.23-10.35q8-1.83,16.17-3c5.42-.78,10.89-1.37,16.38-1.68a159.47,159.47,0,0,1,17.21.1,142.59,142.59,0,0,1,17.69,2.12,77.41,77.41,0,0,1,8.32,2.13C338.19,341.25,341.35,342.56,342.7,343.12Z"/><path class="cls-1" d="M335.7,348.7c-.4-.05-.63-.34-.77-.78-.05-.14.1-.47.22-.48a5.45,5.45,0,0,1,.7,0c.13,0,2.18.61,2.89.8a19.54,19.54,0,0,1,2,.7c1.34.53,2.67,1.08,4,1.68a8.68,8.68,0,0,1,.85.46c.95.58,1.93,1.09,2.9,1.63a2.3,2.3,0,0,0,.5.24,9.55,9.55,0,0,1,1.58.91,14.52,14.52,0,0,1,1.53,1.15c.36.35.71.69,1.05,1.05a14.67,14.67,0,0,1,1,1.1,1,1,0,0,1,.25.34,2.11,2.11,0,0,0,.5.73,12,12,0,0,1,.77,1,3.12,3.12,0,0,1,.27.55c.08.18-.15.25-.21.22s-.15.1-.21.17a.16.16,0,0,1-.07.07,24.83,24.83,0,0,1-2.09-1.61s-.6-.61-1.29-1.15a19.08,19.08,0,0,0-1.58-1.18,4.11,4.11,0,0,1-.45-.38c-.05-.09-2.35-1.4-2.46-1.43a10.19,10.19,0,0,1-1.4-.87,1,1,0,0,0-.28-.17c-.86-.41-1.7-.87-2.56-1.29-.44-.21-.89-.39-1.35-.58l-.23-.13a1.73,1.73,0,0,0-.3-.16c-1.08-.43-2.14-.92-3.25-1.28-.26-.08-1.41-.69-1.71-.78S335.86,348.71,335.7,348.7Z"/><path class="cls-1" d="M334,352.91c-.35,0-.55-.3-.65-.73,0-.13.11-.46.21-.47a4.44,4.44,0,0,1,.62,0c.12,0,1.9.48,2.51.63a15.27,15.27,0,0,1,1.74.55c1.17.43,2.34.85,3.5,1.34a5.28,5.28,0,0,1,.75.38c.83.5,1.69.92,2.55,1.37a1.41,1.41,0,0,0,.45.2,7.77,7.77,0,0,1,1.39.77,14.39,14.39,0,0,1,1.34,1l.9.93.85,1a.75.75,0,0,1,.2.3,1.63,1.63,0,0,0,.42.67,6.88,6.88,0,0,1,.61.91,2.34,2.34,0,0,1,.17.53c0,.16-.19.21-.24.18s-.16.08-.22.15-.06.05-.08.05a7.23,7.23,0,0,1-.81-.66c-.4-.35-.84-.66-.91-.75a14.79,14.79,0,0,0-1.1-1,15.61,15.61,0,0,0-1.36-1,2.37,2.37,0,0,1-.38-.33,24.32,24.32,0,0,0-2.13-1.19,8.46,8.46,0,0,1-1.21-.73.84.84,0,0,0-.24-.14c-.75-.33-1.48-.71-2.23-1.05-.38-.18-.79-.31-1.18-.47l-.2-.11c-.09,0-.17-.1-.26-.13-.95-.34-1.87-.75-2.85-1-.23-.06-1.23-.59-1.49-.67S334.12,352.92,334,352.91Z"/><path class="cls-1" d="M163.73,357.08a25,25,0,0,1-3.87-8.08c-.21-.81.38-1,.91-.14,1,1.6,2.15,3.18,3.25,4.8.34.48,3,4.74,6.43,9.25a125.83,125.83,0,0,0,9.79,11.54A102.8,102.8,0,0,0,194,386.59,35,35,0,0,0,210.88,393a34.23,34.23,0,0,0,17.65-3.33c.62-.25,1.21-.61,1.82-.91s1.2-.61,1.83-1l3.75-2q12.9-6.78,25.93-13.31c1.44-.72,2.94-1.44,4.3-2.21,1.12-.63,7.6-3.85,14.22-7s13.38-6.26,14.94-6.94l6-2.63,1.71.64,1.12.39c.75.25,1.51.49,2.27.71,1.53.45,3.08.83,4.63,1.18a54.71,54.71,0,0,0,9.43,1.22c1.18.06,2.42,0,3.5,0a14.45,14.45,0,0,0,1.86-.06,10.52,10.52,0,0,0,1.86-.24,26.2,26.2,0,0,1,4-.57,17.69,17.69,0,0,1,10.56,3.89,19.73,19.73,0,0,1,3.82,3.93c1,1.33.1.87-.28.46-1.16-1.15-.4,0-.44.17s0,.16-.1.13l-.66-.65a18.67,18.67,0,0,0-1.76-1.57,20.31,20.31,0,0,0-6.2-3.48,13.44,13.44,0,0,0-3.73-.75,11.76,11.76,0,0,0-3.35.33c-1.13.24-2.17.52-3,.63l-1.71.23a43,43,0,0,1-9-.08,65.87,65.87,0,0,1-7.77-1.29c-1.3-.31-2.59-.63-3.81-1-.61-.17-1.2-.35-1.78-.54l-1.07-.35-9,4.26c-1.63.79-3.3,1.51-5,2.25-.39.17-6.07,2.89-11.74,5.68L264,375c-4.52,2.22-9,4.58-13.54,6.69-.9.41-1.8.91-2.69,1.38q-5.75,3-11.43,6.13l-2.84,1.56c-1,.52-2,1-3,1.55s-2.06.92-3.1,1.33-2.11.8-3.2,1.08a36.34,36.34,0,0,1-13.72,1.42c-.83-.11-1.66-.19-2.47-.37-1-.24-2.07-.41-3.07-.72a41,41,0,0,1-14.48-7.24,111.33,111.33,0,0,1-11.83-10.71c-.86-.87-3.21-3.51-5.43-6.32l-1.64-2.08-1.46-2c-.93-1.22-1.64-2.25-2.06-2.81C167.05,362.72,164.54,358.22,163.73,357.08Z"/><path class="cls-1" d="M166.62,357.46c11.34-7.83,21.51-17,28.34-29.14.91-1.61-3.39-1.05-4,.06-6.71,11.9-16.63,20.89-27.76,28.57-1.92,1.33,2.43,1.2,3.43.51Z"/><path class="cls-1" d="M190.15,202.33a38.84,38.84,0,0,1,1.11-6.68c.17-.62.64-.52.68.24l.12,2.26,0,2.28a43.54,43.54,0,0,1-1.51,8.75,45,45,0,0,1-4.72,11,50.51,50.51,0,0,1-4.25,6c-.4.5-.72.9-1,1.34l-.44.67-.39.71a12.61,12.61,0,0,0-1.09,3,13.59,13.59,0,0,0,.21,6.58A23.16,23.16,0,0,0,180,241.8l1.44,3.36,2.87,6.74,2.77,6.79c.8,2,1.64,4,2.36,6.06,2.56,7,5.16,13.95,7.62,21,.41,1.17.8,2.38,1.26,3.49.18.46.75,2,1.44,4.1s1.53,4.76,2.39,7.44l2.22,7.63c.58,2.22,1,3.92,1.19,4.56.8,3.15,1.45,6.35,2.16,9.52s1.27,6.4,1.72,9.63c.14.92.35,1.9.39,2.75,0,2,.42,4,.56,6a60.53,60.53,0,0,1,.29,8.41q0,1-.15,2.07c-.12.68-.23,1.36-.35,2-.21,1.22-.43.5-.42.07,0-1.25-.21-.26-.34-.16s-.1.07-.13,0a6.23,6.23,0,0,1,0-.72c0-.45.1-1.07.07-1.83s0-1.66,0-2.61-.14-2-.21-3-.22-2.09-.33-3.1-.21-2-.37-2.82c-.27-1.72-.47-3-.54-3.44,0-.11-.24-1.61-.65-3.85s-1-5.19-1.67-8.22-1.45-6.08-2.14-8.54-1.19-4.34-1.37-5l-1.09-4c-.09-.31-1.45-4.93-3-9.5-.37-1.15-.75-2.3-1.1-3.38s-.73-2.08-1-3l-1.1-3.16c-1.19-3.66-2.65-7.25-3.77-10.92-.23-.72-.5-1.46-.78-2.18l-3.57-9.28L183,255.48c-1.23-3.16-2.64-6.24-4-9.37-.23-.57-.46-1.13-.68-1.7-.29-.72-.57-1.44-.87-2.14a16.67,16.67,0,0,1-.84-12.55,14.63,14.63,0,0,1,1.41-2.93,25.29,25.29,0,0,1,1.9-2.51,47.09,47.09,0,0,0,3.44-4.79,49.73,49.73,0,0,0,3-5.35,37.75,37.75,0,0,0,2.26-5.94c.17-.56.52-1.76.87-2.95A22.58,22.58,0,0,0,190.15,202.33Z"/><path class="cls-1" d="M186,206.29a2.23,2.23,0,0,1-1.15,1.39c-.18.09-.48-.09-.45-.28.08-.39.16-.77.26-1.14.09-.22,1.42-3.67,1.75-4.87s.72-2.29,1-3.45a34.46,34.46,0,0,0,1.25-7.15c0-.53,0-1.07.1-1.6s0-.91,0-1.37v-.32l.79-.06s0,0,0,0v0h0l.75.17h0l-.17.69c-.23.94-.46,1.86-.7,2.8a7.93,7.93,0,0,0-.21.94,23.92,23.92,0,0,1-.86,3c-.45,1.39-1,2.77-1.14,3.08-.72,1.52-1.44,3.05-2.28,4.52a2.24,2.24,0,0,1-.38.61,6.61,6.61,0,0,0-.85,1.3c-.39.61-.74,1.24-1.19,1.81a6.75,6.75,0,0,1-.72.79c-.22.24-.31,0-.27-.14.12-.31-.11-.15-.2-.17a.15.15,0,0,1-.09,0,5.64,5.64,0,0,1,.28-.61c.17-.35.42-.81.64-1.3.45-1,.91-2,1-2.2,0,0,.19-.36.43-.89s.56-1.22.86-1.94c.62-1.44,1.16-3,1.26-3.31s.25-.65.39-1c0-.07.41-1.23.75-2.41s.62-2.37.65-2.46c.27-.93.45-1.9.8-2.82a3.68,3.68,0,0,0,.15-.57l0-.16a1.11,1.11,0,0,1,1-.83,1.09,1.09,0,0,1,1.08.66,1,1,0,0,1,.08.31v.16l0,.66c0,.44,0,.88,0,1.32,0,.88-.11,1.76-.2,2.63s-.21,1.78-.38,2.65a3.57,3.57,0,0,1-.11.47c-.06.2-.11.39-.15.59a54.37,54.37,0,0,1-1.74,6.05c-.15.46-1.13,2.54-1.35,3C186.67,205.2,186,206,186,206.29Z"/><path class="cls-1" d="M179.42,206.39c-.1.36-.43.52-.88.55-.14,0-.43-.21-.42-.31a6.12,6.12,0,0,1,.1-.64c0-.13.9-1.88,1.15-2.49s.55-1.15.85-1.72c.6-1.15,1.16-2.32,1.68-3.5.11-.27.26-.52.39-.77a14.4,14.4,0,0,0,1.17-2.71,1.61,1.61,0,0,0,.12-.48,13.06,13.06,0,0,1,.42-1.54c.2-.7.38-1.42.45-1.58.17-.4.26-.8.39-1.21a11.14,11.14,0,0,0,.32-1.23.82.82,0,0,1,.09-.35,1.55,1.55,0,0,0,.22-.77c0-.36.05-.72.1-1.08a2.85,2.85,0,0,1,.18-.54c.06-.17.29-.09.31,0s.17,0,.26,0a.19.19,0,0,1,.1,0,7.9,7.9,0,0,1,.24,1.16,6.71,6.71,0,0,1,.1,1.35,30.35,30.35,0,0,1-.51,3.66,3.58,3.58,0,0,1-.19.55c0,.1-.66,2.6-.72,2.69a6.86,6.86,0,0,1-.65,1.47,1.28,1.28,0,0,0-.13.29,24.37,24.37,0,0,1-1.14,2.49c-.2.43-.4.84-.59,1.26,0,.08-.1.14-.14.21a1.56,1.56,0,0,0-.16.28c-.48,1-1.06,1.93-1.53,2.92-.12.23-.85,1.2-1,1.46S179.46,206.25,179.42,206.39Z"/><path class="cls-1" d="M164.93,273.74a2.37,2.37,0,0,1-.17,2.09c-.12.22-.58.29-.69.09-.22-.41-.43-.81-.61-1.23-.05-.13-.37-1.25-.69-2.52l-.81-3.41c-.3-1.4-.57-2.81-.75-4.23-.4-2.89-.74-5.78-1-8.68-.06-.64-.09-1.29-.09-1.94,0-2.21-.14-4.42-.27-6.63a5.7,5.7,0,0,0-.11-1.1,70.92,70.92,0,0,1-.21-7.37c.13-1.95.27-3.86.4-5.79a3.1,3.1,0,0,1,.09-.81,5.91,5.91,0,0,0,.24-1.77c.05-.83.11-1.65.22-2.47a8.39,8.39,0,0,1,.29-1.2c.1-.36.38-.15.41,0,.07.38.23.08.35.06s.1,0,.13,0a5.29,5.29,0,0,1,.09.78c0,.46.08,1.07.12,1.69.09,1.26.18,2.57.17,2.82v1.16c0,.68,0,1.57,0,2.49,0,1.83.09,3.75.12,4.13s0,.82,0,1.23c0,.2.3,5.68.32,5.9a29.85,29.85,0,0,1,.06,3.41,5.3,5.3,0,0,0,0,.69c.17,1.94.24,3.9.39,5.85.06,1,.21,2,.32,3,0,.18,0,.36,0,.54s0,.46,0,.68c.3,2.35.54,4.7,1,7,.09.54.36,3.13.5,3.74C164.88,272.25,164.82,273.44,164.93,273.74Z"/><polygon class="cls-1" points="488.33 271.33 435.48 394.45 316.9 394.45 316.9 379.56 425.67 379.56 474.65 265.46 488.33 271.33"/><path class="cls-1" d="M45.9,396.64h.17c1.38-36.52,4.88-72.87.23-109.31,0,0-2.29-13.16-9.65-10-9.15,3.89-2.91,89-2.91,119.56C33.74,397,43.72,396.72,45.9,396.64Z"/><line class="cls-2" x1="419.27" y1="394.45" x2="419.1" y2="394.85"/><line class="cls-2" x1="435.48" y1="394.45" x2="435.31" y2="394.85"/><path class="cls-1" d="M444.32,393.57a53.06,53.06,0,0,1,13.74,1.05c1.26.27,1.05,1.1-.47,1.21-3,.23-6,.45-9,.6-1.86.1-31.25.48-41.23.64-9.66.16-19.34.19-29,.19l-59,.05c-4.37,0-8.75,0-13.1-.12-15-.25-29.94-.27-44.93-.2-2.5,0-5.05,0-7.47.11-4,.21-44.62.2-49.88.1l-39.24-.59c-1.86,0-3.86,0-5.56-.13-4-.35-8-.29-12-.32-5.61,0-11.23-.09-16.82-.21-2.77-.05-5.51-.25-8.24-.41-2.48-.14-1.13-.66-.26-.71,2.53-.17.48-.41.24-.62-.08-.08-.18-.17-.06-.23s.57,0,1.48-.08l3.77-.14,11.54-.34c8.53-.25,17.47-.47,19.23-.47l53.28-.36c2.79,0,5.61,0,8.41.09l40.47-.28c7.8,0,15.62-.11,23.38.2,1.53.06,3.12,0,4.68,0,13.41-.06,26.81.06,40.21.13H349c1.23,0,2.47.05,3.7.07,1.56,0,3.11.06,4.67.06,16.22-.05,32.44.12,48.66,0,3.74,0,21.56.34,25.87.28C434.3,393.1,442.18,393.66,444.32,393.57Z"/><path class="cls-1" d="M163.56,328.94c-.48,6.12-5.67,12.15-13.16,10.22-8.22-2.11-8.5-11.91-3.45-17.5A9.52,9.52,0,0,1,163.56,328.94Z"/><path class="cls-2" d="M88,343.18c-2.65,7-5.33,13.9-8,20.5"/><path class="cls-1" d="M152.57,376.45a14.55,14.55,0,0,1-.26,1.77c-2.22,10.62-19.85,10.45-21.34-.41C129.16,364.72,153.62,362.58,152.57,376.45Z"/><path class="cls-1" d="M100.93,357.64c-.12,1.44-1.58,10.42-12,10.42a10.16,10.16,0,0,1-8.48-4.38c2.65-6.6,4.87-13.52,7.52-20.5C88.26,343.14,101.79,347.36,100.93,357.64Z"/><path class="cls-1" d="M77.74,391.37c.07,6.75-8.61,11-13.72,9.08,2.9-5,5.61-11.46,8.92-18.92A12.88,12.88,0,0,1,77.74,391.37Z"/><path class="cls-1" d="M157,232.41c.1-.15.29,0,.47.33a1.56,1.56,0,0,1,.12.5c0,.11-.06.22-.09.3a2.47,2.47,0,0,0-.21.22.24.24,0,0,0,0,.16c0,.05.07.05.07.05h0l.1.07s0,0,0,0,.08.17.1.13,0,0,0-.07a.35.35,0,0,0,0-.08s0,0,0,0,.18,0,.16-.25c0,0,0,0,0-.08s0-.15,0-.19l-.16-.19a.81.81,0,0,1-.08-.2.39.39,0,0,1,.06-.3c.07-.06.05-.17.06-.26a.36.36,0,0,0,0-.1,1.09,1.09,0,0,1,.58,0,1.54,1.54,0,0,1,.66.28,2.53,2.53,0,0,1,.51.79,3.38,3.38,0,0,1,.22,1.19.84.84,0,0,1-.08.32,2.77,2.77,0,0,1-.17.66,1.38,1.38,0,0,1-.57.61,1,1,0,0,1-.89,0,.41.41,0,0,0-.18-.05,2.42,2.42,0,0,1-.79-.28,2.22,2.22,0,0,1-.39-.23c-.1-.06-.13-.1-.26-.19a5,5,0,0,1-.64-.57.83.83,0,0,1-.07-.13.51.51,0,0,0-.07-.17,1.29,1.29,0,0,1-.16-.88,2.84,2.84,0,0,1,.39-.85,2.87,2.87,0,0,1,.88-.56C156.67,232.34,157,232.46,157,232.41Z"/><path class="cls-1" d="M164.44,233.54c.22-.17.51,0,.6.4a1.47,1.47,0,0,1-.08.51.74.74,0,0,0-.12.26,1.64,1.64,0,0,0-.13.19,1,1,0,0,0-.11.37,3.73,3.73,0,0,0,0,.42c0,.21.11.37.42.56a1,1,0,0,1,.2.15c.19.19.39.17.46.08s0,0,0-.08,0-.11.07-.27.05-.36.07-.4a.81.81,0,0,0,0-.63s-.06,0,0-.1-.07-.19-.14-.24l-.36-.21a1.37,1.37,0,0,1-.19-.21c-.06-.07,0-.29,0-.31s0-.17,0-.26a.34.34,0,0,1,0-.1,1.5,1.5,0,0,1,.65-.1,2,2,0,0,1,.82.19l.3.23a2.59,2.59,0,0,1,.51.63,3.09,3.09,0,0,1,.36,1.26,1,1,0,0,1-.07.38,3.46,3.46,0,0,1-.22.92,2.28,2.28,0,0,1-.66.87,1.55,1.55,0,0,1-1.24.36h-.24a2.16,2.16,0,0,1-.93-.21,3.31,3.31,0,0,1-.73-.46,3.51,3.51,0,0,1-.65-.68.61.61,0,0,1-.07-.17,2,2,0,0,0-.08-.22,2.72,2.72,0,0,1,.09-2.19c0-.19.66-.72.85-.83S164.36,233.6,164.44,233.54Z"/><path class="cls-1" d="M174.31,236.72c.06.25-.22.39-.59.3a1.38,1.38,0,0,1-.44-.27,1,1,0,0,0-.19-.21.7.7,0,0,0-.35-.27,1.82,1.82,0,0,1-.31-.16.79.79,0,0,0-.64,0l0,0c-.1-.05-.15,0-.07.18,0,0,0,.07.07.08s.14.13.24.25.2.18.21.22a.4.4,0,0,0,.29.27s0,0,.08,0,.17,0,.23,0a1.77,1.77,0,0,0,.29-.19,1.5,1.5,0,0,1,.26,0,.45.45,0,0,1,.27.16c0,.1.13.11.21.15l.09.05a1.94,1.94,0,0,1-.14.58,1.67,1.67,0,0,1-.47.62l-.32.16a1.93,1.93,0,0,1-.78.15,2.37,2.37,0,0,1-1.21-.35.55.55,0,0,1-.25-.25,3.83,3.83,0,0,1-.56-.58,2.59,2.59,0,0,1-.4-.74,1.43,1.43,0,0,1,0-1.11,2,2,0,0,0,.07-.23,2.49,2.49,0,0,1,.21-.47,2.6,2.6,0,0,1,.36-.38,2.24,2.24,0,0,1,.85-.4,3.33,3.33,0,0,1,.83-.12.42.42,0,0,1,.15,0l.19.05a2.9,2.9,0,0,1,1.66.93,2.34,2.34,0,0,1,.35,1.06C174.54,236.29,174.29,236.64,174.31,236.72Z"/><path class="cls-1" d="M181.5,232.44c.13-.1.45.18.33.57,0,.12-.3.38-.31.41l-.06.11h0l0,.13h0l0,0s-.21,0-.37.09a.67.67,0,0,0-.33.18c-.09.09-.1.14-.15.18a.59.59,0,0,0-.06.51l0,0v0c0,.1.17.22.34.19s.07,0,.1-.05.15-.08.23-.13.13-.1.16-.1.25-.15.31-.35c0,0,0-.05,0-.09s.08-.17.06-.24,0-.17-.08-.31a1.12,1.12,0,0,1,0-.25c0-.08.16-.23.2-.23s.12-.12.18-.19l.06-.08a1.41,1.41,0,0,1,.57.31,1.68,1.68,0,0,1,.46.61,2.13,2.13,0,0,1,.08.31,2.77,2.77,0,0,1,0,.72,2.38,2.38,0,0,1-.5,1.18.87.87,0,0,1-.31.23,2.55,2.55,0,0,1-.77.45,2.84,2.84,0,0,1-.86.18,1.5,1.5,0,0,1-1-.31.81.81,0,0,0-.18-.1A2.23,2.23,0,0,1,179,236a2.07,2.07,0,0,1-.46-1.12,3.45,3.45,0,0,1,0-.85.94.94,0,0,1,.06-.15l.08-.17a2.38,2.38,0,0,1,1.41-1.48,3,3,0,0,1,1,0C181.2,232.19,181.43,232.48,181.5,232.44Z"/><path class="cls-1" d="M169,162c.33,0,.4.41.27.91a1.17,1.17,0,0,1-.44.54c-.2,0-.38,0-.54,0a9.53,9.53,0,0,0-1.79-.47c-.44,0-.84-.14-1.27-.21a9.71,9.71,0,0,0-2.64,0,3.92,3.92,0,0,1-.6,0,4.9,4.9,0,0,0-2.06.39.71.71,0,0,0-.32.17,18.67,18.67,0,0,1-2.2,1,19.39,19.39,0,0,0-1.88.59c-.09,0-.17.11-.28.07a.8.8,0,0,0-.62.14,5.68,5.68,0,0,1-.81.32,1.53,1.53,0,0,1-.48,0c-.15,0-.24-.3-.22-.35s-.09-.21-.16-.31a.37.37,0,0,1-.07-.12,9.07,9.07,0,0,1,1.33-1.42l1.11-.7c.57-.34,1.16-.69,1.29-.78a1.32,1.32,0,0,1,.44-.13s1.89-1,2-1a3.08,3.08,0,0,1,1.28-.25.78.78,0,0,0,.26,0,8.43,8.43,0,0,1,2.24-.27c.38,0,.77,0,1.16,0a1.55,1.55,0,0,1,.21,0,1.09,1.09,0,0,0,.26,0,16.13,16.13,0,0,1,2.73.49,12.39,12.39,0,0,1,1.32.73C168.64,161.42,168.87,161.93,169,162Z"/><path d="M176.19,198.77c0-.16.2-.07.61.14a1.75,1.75,0,0,1,.49.42,1.4,1.4,0,0,1,.07.4,4.38,4.38,0,0,1-.73,1.06,2,2,0,0,1-.74.51,5.58,5.58,0,0,1-1.8.48,1.12,1.12,0,0,1-.41,0c-.48-.14-.93-.22-1.39-.31a.35.35,0,0,0-.23,0,1.46,1.46,0,0,1-.74-.21,2.5,2.5,0,0,1-.67-.45,6.46,6.46,0,0,1-.68-1s-.08-.08-.05-.17,0-.27-.09-.37a1.79,1.79,0,0,1-.16-.46.75.75,0,0,1,.08-.3c0-.09.3-.18.34-.17s.19-.09.29-.15l.11-.05c.06,0,.79.28.83.3a3.21,3.21,0,0,0,.84.49c.05,0,.07.07.1.12a2.82,2.82,0,0,0,.69.14c.12,0,.26,0,.36.18s.05,0,.07,0c.23,0,.45.06.69.06a1.1,1.1,0,0,0,.36-.07s0,0,.08,0h.09a1.82,1.82,0,0,0,.79-.38s.43-.09.47-.18S176.19,198.84,176.19,198.77Z"/><path class="cls-1" d="M168.12,170.21c.28,2-.39,4-1.49,4.16s-2.61-1.55-2.88-3.55.78-3.82,1.88-4S167.85,168.2,168.12,170.21Z"/></g></svg>