<svg id="Layer_1" data-name="Layer 1" xmlns="http://www.w3.org/2000/svg" width="520" height="520" viewBox="0 0 520 520"><defs><style>.cls-1{opacity:0.4;}.cls-2{fill:#221f1f;}.cls-3{fill:#232020;}</style></defs><title>Notioly v2</title><g id="_93.Headache" data-name="93.Headache"><g class="cls-1"><path class="cls-2" d="M375.89,110.07a35.72,35.72,0,0,0-1,8.44c0,.71.08,1.42.12,2.13s0,1.42.18,2.13l.36,2.1.18,1.06c.08.35.19.69.28,1,.31,1,.53,2,.93,3l1.17,2.9a37.75,37.75,0,0,0,6,9.21,34.51,34.51,0,0,0,8.57,7,32,32,0,0,0,9.15,3.62c1,.19,2.05.46,3.09.57l3.13.31q1.57,0,3.15.06c1.05,0,2.09-.09,3.15-.09,1.3,0,1.25.68.18,1.44a9.23,9.23,0,0,1-2.33,1.11,11.21,11.21,0,0,1-3.51.41,36.78,36.78,0,0,1-24.75-11,41.59,41.59,0,0,1-9.18-14,35.23,35.23,0,0,1-1.38-4.41,19.25,19.25,0,0,1-.46-2.26c-.13-.76-.28-1.52-.38-2.28a39.32,39.32,0,0,1,.05-9.2l.18-1.4a9.55,9.55,0,0,1,.25-1.4l.64-2.75c.26-.91.59-1.79.88-2.69a21.12,21.12,0,0,1,1.06-2.62A40.86,40.86,0,0,1,396.71,82c.45-.18.87-.41,1.32-.56l1.38-.45c.86-.26,1.58-.48,2.19-.62a13.58,13.58,0,0,1,1.55-.16,2.86,2.86,0,0,1,1.78.39,3.11,3.11,0,0,1,.55.39c.4.48-.92,1.2-3.31,1.8a45.12,45.12,0,0,0-10.11,4.67,36.73,36.73,0,0,0-8.54,7.5A37.79,37.79,0,0,0,378.8,102a36,36,0,0,0-2.85,8Z"/></g><g class="cls-1"><path class="cls-2" d="M436,261.19c-.87.7-1.77,1.37-2.73,2a14.37,14.37,0,0,1-1.55.91,8,8,0,0,1-.92.39l-.54.16c-.22,0-.48.07-.73.08a4.92,4.92,0,0,1-.67-.1l-.46-.14-.78-.3c-.49-.21-1-.42-1.43-.64-.93-.44-1.84-.89-2.74-1.35-1.37-.69-2.76-1.33-4.1-2.05l-14.15-7.68c-2.09-1.13-4.23-2.2-6.36-3.22-2.73-1.3-5.53-2.52-8.16-3.87-.8-.4-.52-.95.46-1.22a6.57,6.57,0,0,1,4.22.56c5.66,2.67,11.09,5.64,16.49,8.79,3.23,1.89,6.73,3.58,10.11,5.33,1.31.67,2.62,1.34,3.93,2,.65.32,1.31.63,2,.92.33.14.66.29,1,.41a4.4,4.4,0,0,0,.74.24,1.06,1.06,0,0,1,.22,0l.33-.11a6.87,6.87,0,0,0,.74-.34,16.31,16.31,0,0,0,1.51-.94,62.58,62.58,0,0,0,5.91-4.85c2.87-2.63,5.69-5.36,8.37-8.17,2.09-2.18,4-4.44,6-6.68.44-.5.84-1,1.29-1.48,1.67-1.82,2.34-2.28,3.17-2.21a3.2,3.2,0,0,1,.56.06c.51.19.1,1.17-1,2.57a160.62,160.62,0,0,1-11.18,12.36c-3,3-6.06,5.92-9.39,8.67Z"/></g><path class="cls-2" d="M275.49,265.06a30.43,30.43,0,0,1-10,7.3,28.22,28.22,0,0,1-12.16,2.41,18.87,18.87,0,0,1-4.62-.72,21.09,21.09,0,0,1-4.24-1.77,39.18,39.18,0,0,1-11.61-10.56,77.32,77.32,0,0,1-8.06-13.23,122.58,122.58,0,0,1-5.32-12.61A90.78,90.78,0,0,1,214.89,219c-.28-1.8.38-1.66,1.28-.29a26.88,26.88,0,0,1,2.86,7.13,130.18,130.18,0,0,0,5.61,16.53,91,91,0,0,0,8.15,15.43,44.4,44.4,0,0,0,6.83,8.07,26.92,26.92,0,0,0,8.81,5.6,15.26,15.26,0,0,0,5.51.95,28.17,28.17,0,0,0,5.73-.63A25.75,25.75,0,0,0,270,266.89a35.93,35.93,0,0,0,5.13-5,49.45,49.45,0,0,0,4.14-6,86,86,0,0,0,8.28-20.49c1.53-5.52,2.57-11.06,3.57-16.64.22-1.23.42-2.44.64-3.68.84-4.61,1.28-6.05,2.11-6.91a4.35,4.35,0,0,1,.56-.57c.58-.33.59,1.61.1,5-1.48,10.06-3.48,20.72-7.09,31.06-2.7,7.63-6.3,15.22-11.94,21.43Z"/><path class="cls-2" d="M212.38,217a8.08,8.08,0,0,1-.66-.65,6.82,6.82,0,0,1-.6-.71,6.58,6.58,0,0,1-.56-.8,5.62,5.62,0,0,1-.44-.89,19.89,19.89,0,0,1-1-3.28,31.84,31.84,0,0,1-.8-6.59,25.73,25.73,0,0,1,.28-4.87,19.65,19.65,0,0,1,1.22-4.19,14.76,14.76,0,0,1,2.31-3.76,14.08,14.08,0,0,1,7.45-4.41,26.35,26.35,0,0,1,7.48-.61,31.34,31.34,0,0,1,9.3,1.64c.93.31.63.87-.31,1.26a8.11,8.11,0,0,1-4.19.27,34.83,34.83,0,0,0-8.95-.64l-1.09.1-1.07.19a18.26,18.26,0,0,0-2.09.53,13.2,13.2,0,0,0-3.72,2,10.43,10.43,0,0,0-3,4.26,19.1,19.1,0,0,0-1.18,5.37,28.33,28.33,0,0,0,.17,6.17,22.22,22.22,0,0,0,1.52,5.91,7.91,7.91,0,0,0,2.36,2.55,13.22,13.22,0,0,0,3.31,1.68,25.12,25.12,0,0,0,11.47.87,20.05,20.05,0,0,0,8.16-3,11.14,11.14,0,0,0,1.38-1.16,16.35,16.35,0,0,0,1.43-1.72,2.49,2.49,0,0,1,.91-.79,4.08,4.08,0,0,1,.5-.27c.26-.1.46.12.53.67a3.94,3.94,0,0,1-.64,2.37,10.33,10.33,0,0,1-3.32,3.26,18.89,18.89,0,0,1-4.12,1.94,28.36,28.36,0,0,1-8.93,1.4,26.55,26.55,0,0,1-6.77-.84,15.87,15.87,0,0,1-6.34-3.2Z"/><path class="cls-2" d="M260.88,203.05c.07,1.76.16,3.48.39,5.16a15.42,15.42,0,0,0,1.24,4.67,5,5,0,0,0,.56.91,4.16,4.16,0,0,0,.32.39l.35.3a4.06,4.06,0,0,0,.92.56c.36.17.74.34,1.13.5a28.71,28.71,0,0,0,4.86,1.47,24.84,24.84,0,0,0,7.33.43,15.36,15.36,0,0,0,6-1.82,13,13,0,0,0,4.42-4.39c2.25-3.65,3-8.18,3.12-12.62,0-1,0-2,0-3a7,7,0,0,0-.64-2.63,8.33,8.33,0,0,0-3.84-3.78,20.18,20.18,0,0,0-7.09-1.89,36.47,36.47,0,0,0-7.46,0c-.75.09-1.09,0-1.14-.22s.25-.64.89-1.06a11.86,11.86,0,0,1,7-1.43,24,24,0,0,1,8.21,2,12.93,12.93,0,0,1,3.7,2.56,9.38,9.38,0,0,1,2.39,4,9.53,9.53,0,0,1,.38,2.29c0,.75,0,1.38,0,2.08a40.31,40.31,0,0,1-.21,4.09,27.75,27.75,0,0,1-2,8.07,16.69,16.69,0,0,1-6.59,7.85,18.46,18.46,0,0,1-10,2.31,30.76,30.76,0,0,1-10.79-2.43c-.43-.19-.85-.39-1.29-.63a6.75,6.75,0,0,1-1.28-1,7.89,7.89,0,0,1-1.63-2.55,21.06,21.06,0,0,1-1.29-5.45c-.28-2.23-.3-4.5-.43-6.62-.06-.59-.06-.7-.32-1a1.42,1.42,0,0,0-1-.4,6.3,6.3,0,0,0-2.8.63c-2.81,1.22-4.86,3.94-6.38,6.76-.77,1.42-1.38,2.95-2,4.48s-1.18,3.06-1.66,4.61a18,18,0,0,0-1,7.19,2.76,2.76,0,0,0,1.5,2.31,5.32,5.32,0,0,0,3.13-.06,16.8,16.8,0,0,0,2.92-1.11c1.81-.85,3-1.54,3.82-1.94a4.51,4.51,0,0,1,1.93-.57c.25,0,.54-.06.73-.05.34,0,.24.47-.3,1.1a12.38,12.38,0,0,1-2.81,2.27,19.9,19.9,0,0,1-6.76,2.87l-1,.11a8.22,8.22,0,0,1-1.1,0,5,5,0,0,1-2.32-.83,5.51,5.51,0,0,1-1-.91,5.42,5.42,0,0,1-.63-1.08,7.32,7.32,0,0,1-.54-2.18A20.76,20.76,0,0,1,242,215.8a68,68,0,0,1,2.57-6.91,29.43,29.43,0,0,1,2.62-5,16.9,16.9,0,0,1,4-4.35,11.37,11.37,0,0,1,2.74-1.5,8.45,8.45,0,0,1,3.25-.61,4.08,4.08,0,0,1,2.07.64,3.31,3.31,0,0,1,1.42,1.95,6.82,6.82,0,0,1,.21,1.65l.07,1.36Z"/><path class="cls-2" d="M248.05,272.73c8.9,3,23.07.11,31.05-14.58,5.37,16.76-14,34.84-31.05,14.58"/><path class="cls-2" d="M247.92,273.21c12.78,4.21,25.48-3.8,31.62-14.81l-.92-.12c2.27,7.49-.14,16.22-6.89,20.61-8.41,5.47-17.56.17-23.33-6.52-.42-.48-1.12.23-.7.71,6.06,7,15.74,12.38,24.54,6.67,7.12-4.62,9.75-13.81,7.35-21.73a.51.51,0,0,0-.92-.12c-5.93,10.64-18.12,18.42-30.49,14.35-.61-.21-.87.76-.26,1Z"/><path class="cls-2" d="M115.5,346.6c1.25-4,2.74-7.9,4.36-11.73s3.34-7.62,5.18-11.34c3.66-7.45,7.64-14.72,11.82-21.86,3.07-5.21,6.14-10.41,9.38-15.49,11.4-17.95,23.85-35.24,36.48-52.23a19.32,19.32,0,0,0,2.62-6.21,57.75,57.75,0,0,0,1.31-6.84c.65-4.63,1-9.33,1.69-14a36.14,36.14,0,0,1,2.27-8.94,30.79,30.79,0,0,1,4.84-7.91,28.54,28.54,0,0,1,7.12-6,43.15,43.15,0,0,1,8.39-3.71c3.59-1.16,3.29-.41.51,1.2s-8,4.09-12.62,8.7a27,27,0,0,0-5,7l-.94,2c-.23.67-.51,1.3-.71,2a39.25,39.25,0,0,0-1,4.28c-1.06,5.89-1.4,12.05-2.48,18.22A36.64,36.64,0,0,1,186,233c-.18.37-.33.75-.55,1.12l-.69,1.08-.35.54-.35.46-.69.93-2.76,3.68c-1.86,2.46-3.68,4.93-5.51,7.41s-3.65,5-5.46,7.47c-8.68,11.94-17.14,24.78-25.05,37.62-4.35,7.07-8.53,14.24-12.45,21.54a236.88,236.88,0,0,0-10.72,22.4,108.25,108.25,0,0,0-4.88,14.42,46.23,46.23,0,0,0-1.31,7.41,19.54,19.54,0,0,0,0,3.67l.14.88c.06.28.16.55.23.82s.21.49.33.74l.52.77a19,19,0,0,0,8.3,7.22,28.27,28.27,0,0,0,11,2.3c7.64.18,15.23-1.64,22.51-3.92,11.31-3.69,21.86-8.85,32.2-14.47,2.27-1.25,4.47-2.51,6.74-3.81,8.4-4.86,11.06-6.43,13.19-7a10.75,10.75,0,0,1,1.4-.36c1-.08-2.07,2.42-8.15,6.19A251.81,251.81,0,0,1,175,367.55a155.71,155.71,0,0,1-15.62,6.12,87.41,87.41,0,0,1-16.62,3.81,43.06,43.06,0,0,1-12.91-.25,23.77,23.77,0,0,1-11.91-5.75c-.82-.77-1.53-1.65-2.29-2.48s-1.25-1.82-1.87-2.83a9.4,9.4,0,0,1-.94-3.63,14,14,0,0,1-.07-1.7,15.35,15.35,0,0,1,.06-1.67,42.35,42.35,0,0,1,1-6.41c.45-2.09,1-4.13,1.64-6.16Z"/><path class="cls-2" d="M211.54,181.59c.42,3.36-3.85,4.91-6.13,6.46a19.28,19.28,0,0,0-5.56,5.42c-.61.95,2,.66,2.41,0,2-3.15,5.09-5,8.18-6.92,2-1.29,4-3,3.71-5.65-.1-.78-2.72-.21-2.61.7Z"/><path class="cls-2" d="M211.85,186c1.29-.18,0,1.38-.41,1.85-1,1.3-2.13,2.51-3.2,3.75-2.08,2.42-4.42,5-5.33,8.16-.23.8,2.36.44,2.6-.37,1.28-4.44,5.27-7.7,8.06-11.22,1.7-2.14,2.05-3.93-1.32-3.45-1.19.17-2.22,1.54-.4,1.28Z"/><path class="cls-2" d="M177.48,286.75l4.6-9.88c1.54-3.3,3.08-6.55,4.46-9.89,1-2.43,1.93-4.92,3-7.37a138.41,138.41,0,0,1,5.92-12.82,56.08,56.08,0,0,1,8.18-11.58,29.6,29.6,0,0,0,3.55-4.9,12.66,12.66,0,0,0,1.7-5.52,35,35,0,0,0-.71-7.67,29.49,29.49,0,0,1-.42-4.08,8.66,8.66,0,0,1,1-4.23c.43-.8.79-1,1-.86s.23.66.21,1.39A15.45,15.45,0,0,0,210,212c.13,1,.4,2.29.61,3.78a45.48,45.48,0,0,1,.82,8.32,15.52,15.52,0,0,1-.78,4.43,18.76,18.76,0,0,1-2,4,57.39,57.39,0,0,1-5.21,6.48,49.53,49.53,0,0,0-4.64,6.4c-3.38,5.43-5.78,11.76-8.27,17.92-1.37,3.39-2.75,6.8-4.31,10.15l-4.61,10c-1.89,4.08-3.78,8.17-5.6,12.28-2.77,6.23-5.52,12.5-8,18.8a140.26,140.26,0,0,0-4.81,14.76c-.28,1.09-.51,2.17-.73,3.27a31.68,31.68,0,0,0-.59,4.21c0,.87-.09,1.23-.1,1.71a1.11,1.11,0,0,0,.08.34c.05.11.12.21.16.31s0,.27-.22.29a1.37,1.37,0,0,1-1.08-.52,5.61,5.61,0,0,1-.9-4,39,39,0,0,1,1.3-7.17c.62-2.35,1.34-4.67,2.13-7,1.57-4.63,3.38-9.22,5.26-13.79,2.81-6.78,5.82-13.5,8.85-20.18Z"/><path class="cls-2" d="M206.14,208.12c.44-2.59,2.57-4.31,4-6.36.59-.81-1.6-.67-2-.07-1.54,2.16-3.71,4-4.18,6.7-.15.86,2,.5,2.18-.27Z"/><path class="cls-2" d="M277.36,296.43c-2.3,1-4.67,2.38-7.12,3.52a40.57,40.57,0,0,1-7.73,2.85,23.44,23.44,0,0,1-8.4.6,16.81,16.81,0,0,1-8-3.07c-3.43-2.47-5.67-6-7.62-9.32-.44-.72-.88-1.43-1.34-2.06a8.24,8.24,0,0,0-.71-.88c-.12-.14-.25-.24-.37-.36l-.17-.13a.21.21,0,0,0-.08-.06.25.25,0,0,0-.32,0l-1,.46-2.3,1.08-4.57,2.27-4.53,2.37c-6,3.22-11.88,6.67-17.69,10.26-5.16,3.17-10.25,6.52-15.25,9.87-6.43,4.29-12.8,8.76-19.44,12.74-4.14,2.48-.24-2.76,7.17-7.68,13.15-8.72,26.34-17.51,40.41-25.14,4.2-2.28,8.52-4.56,12.92-6.74l3.41-1.64c.23-.11.46-.22.69-.31s.23-.12.35-.1l.35.13a5.42,5.42,0,0,1,.69.32,2.86,2.86,0,0,1,.62.39,8.44,8.44,0,0,1,1.48,1.52c1.57,2.12,2.65,4.26,4,6.2a19,19,0,0,0,5.27,5.41,14.89,14.89,0,0,0,7.08,2.28c5.11.39,10.18-1.47,14.9-3.79,1.47-.71,2.91-1.48,4.4-2.23.75-.37,1.5-.74,2.29-1.08.4-.17.83-.31,1.24-.46l.83-.21a2.56,2.56,0,0,1,.45-.09l.41.23,8.75,5c8.68,4.94,17.32,10.06,25.75,15.32,6.54,4.08,12.95,8.12,19.15,12.63,1.38,1,2.69,2,4,3s2.24,1.83,3.05,2.58,1.47,1.35,2,1.9a8.32,8.32,0,0,1,1.67,2.56,5.92,5.92,0,0,1,.31.93c0,.38-.48.19-1.41-.47q-.69-.51-1.68-1.35c-.64-.56-1.47-1.16-2.34-1.89-5.21-4.25-10.94-8.19-16.82-12.08S310.2,314,304,310.33c-4.58-2.74-9.21-5.43-13.85-8.1l-7-4-3.5-2-.68-.39s-.05,0,0,0-.21.05-.33.1l-.41.16a7.29,7.29,0,0,0-.85.35Z"/><path class="cls-2" d="M350.83,286.3c10,13.21,19.92,26.57,28.35,40.95a139.94,139.94,0,0,1,8.32,16.27,66.94,66.94,0,0,1,4.59,15.55,36.31,36.31,0,0,1,.38,8.21,25.69,25.69,0,0,1-1.9,8.07,23.07,23.07,0,0,1-4.59,6.93,10.37,10.37,0,0,1-3.57,2.51,12.83,12.83,0,0,1-4.18,1,26.71,26.71,0,0,1-8.2-.93,61.06,61.06,0,0,1-7.67-2.56c-8.84-3.61-17.16-8.28-25.36-12.83-5.25-2.94-10.5-5.91-15.81-8.73-2.65-1.4-5.32-2.77-8-4a47.57,47.57,0,0,0-8.27-3.1c-1.74-.41-2.49-.56-2.44-.81s1-.53,2.65-.48a24.67,24.67,0,0,1,6.62,1.32,57.82,57.82,0,0,1,8.76,3.74c11,5.74,21.41,12.23,32.29,17.82a97.69,97.69,0,0,0,16.74,7.06,25.19,25.19,0,0,0,8.65,1.19,10.48,10.48,0,0,0,3.95-1,8.34,8.34,0,0,0,1.64-1.12,8.6,8.6,0,0,0,.74-.74l.74-.81a19.94,19.94,0,0,0,2.88-4.41,23,23,0,0,0,1-2.45,26,26,0,0,0,.66-2.6,30.52,30.52,0,0,0,0-10.91,57.41,57.41,0,0,0-2.9-10.81,105.33,105.33,0,0,0-4.49-10.35,199,199,0,0,0-12.57-21.45c-4.59-6.93-9.45-13.69-14.43-20.38-6.12-8.22-12.42-16.33-18.64-24.5-4.69-6.2-9.39-12.43-13.63-19-1.06-1.64-2.08-3.31-3-5a40.34,40.34,0,0,1-2.54-5.35l-.48-1.42c-.12-.5-.27-1-.36-1.48a24.38,24.38,0,0,1-.29-3c-.11-1.94-.21-3.86-.35-5.77a100.63,100.63,0,0,0-2.62-17.51,45.68,45.68,0,0,0-6.9-15.85,24.52,24.52,0,0,0-5.24-5.28,20.68,20.68,0,0,0-2.46-1.55l-.46-.24-.27-.13a1.14,1.14,0,0,0-.44-.11.23.23,0,0,0-.26.26,1.55,1.55,0,0,0,.08.36c0,.11.08.22.13.33a4.35,4.35,0,0,0,.24.46c1.1,1.84,1.85,2.92,2.3,3.9a13,13,0,0,1,.65,1.29c.17.5-.56.16-1.91-1.06a19.12,19.12,0,0,1-2.37-2.58c-.11-.15-.22-.29-.33-.45s-.2-.28-.38-.57a8.63,8.63,0,0,1-.83-1.63,3.31,3.31,0,0,1-.21-1.61,1.77,1.77,0,0,1,.3-.75,1.63,1.63,0,0,1,.68-.5,2.81,2.81,0,0,1,1.24-.12,6.6,6.6,0,0,1,.72.15,5.48,5.48,0,0,1,.72.25c.77.38,1.64.78,2.34,1.16s1.22.72,1.79,1.14,1.15.82,1.68,1.3a28.22,28.22,0,0,1,5.5,6.43A51.11,51.11,0,0,1,316,213.57a108.13,108.13,0,0,1,2.41,16.72l.26,4.21c.09,1.38.13,2.84.29,4.08a13.93,13.93,0,0,0,1,3.61,36.33,36.33,0,0,0,1.71,3.64,113.39,113.39,0,0,0,6.56,10.42c2.37,3.4,4.84,6.75,7.33,10.09,5,6.67,10.14,13.27,15.22,19.91Z"/><path class="cls-2" d="M321.51,291.2q-5.79-11.71-11.47-23.47c-1.38-2.87-2.83-5.69-4.19-8.56-2.39-5.07-4.79-10.12-7.05-15.28a21.75,21.75,0,0,1-2.05-8.47,48.42,48.42,0,0,1,.84-8.51c.09-.58.21-1.27.25-1.78a5.76,5.76,0,0,0-.19-1.58,24,24,0,0,0-1.17-3.4c-1-2.24-2.08-4.43-3.25-6.57a23.92,23.92,0,0,1-1.06-2.24l-.26-.67c-.1-.29-.2-.58-.28-.87a6.59,6.59,0,0,1-.29-1.67,2.56,2.56,0,0,1,.33-1.34,1.36,1.36,0,0,1,1.25-.6,4.8,4.8,0,0,1,2.82,1.43l.66.65.42.48c.28.32.51.65.77,1,.49.66,1,1.33,1.39,2,.87,1.36,1.65,2.75,2.42,4.12,1,1.64.34,1.82-1.09.72a46.23,46.23,0,0,1-5.53-6.14l-.33-.38,0,0h0s0,0,0,.06l.18.47c.14.35.3.69.45,1l.24.5.27.5.57,1.09c.38.72.74,1.46,1.11,2.2.71,1.49,1.39,3,2,4.6A23,23,0,0,1,300,223a10,10,0,0,1,.22,1.43,5.87,5.87,0,0,1-.07,1.55l-.74,4.78a21.89,21.89,0,0,0,.3,9.13,42,42,0,0,0,2.12,5.32c.8,1.8,1.66,3.6,2.52,5.4,1.73,3.6,3.48,7.21,5.22,10.8q5.7,11.83,11.53,23.63,3.61,7.24,7.22,14.48c3.67,7.3,7.38,14.62,11.17,21.79,1.48,2.78,3,5.51,4.5,8.23s3.05,5.41,4.62,8.09l2.07,3.53c1.29,2.2,2.14,3.63,2.64,4.71a6.89,6.89,0,0,1,.88,3.18c-.05.36-.45.18-1.15-.5a18.06,18.06,0,0,1-1.25-1.39c-.43-.58-.9-1.28-1.42-2.07-3.07-4.72-5.88-9.71-8.71-14.8s-5.55-10.31-8.28-15.54c-4-7.79-8-15.65-11.93-23.51Z"/><path class="cls-2" d="M295.15,200.28c-1.11.16-1.41.34-.9.53a3,3,0,0,1,.44.28,11.66,11.66,0,0,0,1.12.95,28.07,28.07,0,0,1,2.2,2.42,36.65,36.65,0,0,1,4.05,5.84c.44.81,2.67,0,2.13-1-.81-1.48-9.46-14.45-11.38-8.82-.33,1,2,.69,2.34-.22Z"/><path class="cls-2" d="M293.82,194.15c2.28,0,4.12,2.44,5.37,4.07,1.61,2.09,3,4.36,4.42,6.58.44.67,2.69-.09,2.15-.93a63.48,63.48,0,0,0-5.65-8.07c-1.42-1.59-3.16-3.06-5.4-3-.91,0-2.45,1.4-.89,1.37Z"/><path class="cls-2" d="M177.2,278c-2.28.74-4.58,1.36-6.9,1.9-.85.2-1.68.46-2.54.62a71.53,71.53,0,0,1-9.11,1.14c-1.36.08-2.72.19-4.09.21-1.74,0-3.61.13-5.39-.92-.56-.37-.07-.81.56-1.17a3.54,3.54,0,0,1,2.22-.63,31.18,31.18,0,0,0,4.88.19c1.68,0,3.38-.13,5.11-.23a41.24,41.24,0,0,0,6.24-1.1c2.27-.5,4.54-1.08,6.77-1.78,1.36-.43,2.73-.88,4.07-1.41a43.9,43.9,0,0,0,5.9-2.73,26.5,26.5,0,0,0,4-2.91c.28-.22.53-.47.8-.71,1-.85,1.38-1.05,2.06-.77a2.92,2.92,0,0,1,.44.19c.45.26.3.95-.39,1.77a26.38,26.38,0,0,1-7.87,5.62,57.71,57.71,0,0,1-6.73,2.77Z"/><path class="cls-2" d="M345.82,287.93l-1.76-.07c-.59,0-1.18,0-1.76,0s-1.18,0-1.77.06l-1.76.17c-.42.05-.85.1-1.28.17s-.83.18-1.26.25c-1.51.2-3,.58-4.45.92a32.36,32.36,0,0,0-4.27,1.52,18.9,18.9,0,0,0-3.48,2c-.68.5-1.28,1.1-1.93,1.63s-1.17,1.18-1.87,1.68c-.42.32-.86-.1-1-.84a3.12,3.12,0,0,1,.85-2.61,22.94,22.94,0,0,1,10.06-5.21c2.17-.56,4.39-1.21,6.64-1.57,1.23-.2,2.48-.28,3.72-.42s2.48-.12,3.73-.1c1.53,0,3.05.07,4.57.24,1.16.08,2.3.27,3.44.46s2.27.47,3.4.69a39.59,39.59,0,0,1,5.16,1.44,11.57,11.57,0,0,1,1.12.41c1.32.71,1.66,1.09,1.58,1.79a1.76,1.76,0,0,1-.06.46c-.16.48-.88.54-1.8.19a53.53,53.53,0,0,0-8.81-2.49,49.7,49.7,0,0,0-7-.72Z"/><path class="cls-2" d="M223.69,317.19l2.37-5.64c.28-.69.49-1.39.77-2.07a75.55,75.55,0,0,0,2.69-7.26c.15-.55.29-1.1.41-1.66s.16-1.11.24-1.66c.17-1.44.05-2.83.22-4.23.07-.44.69-.47,1.3-.12a2.44,2.44,0,0,1,1.24,2.05,25.36,25.36,0,0,1-2.21,9.2c-.75,1.7-1.28,3.54-2,5.28l-2.33,5.69c-.49,1.17-.94,2.33-1.39,3.5a56.51,56.51,0,0,0-1.79,5.38c-.18.71-.31,1.42-.44,2.13l-.27,2.12c-.05.32-.05.62-.08.94-.14,1.15-.35,1.49-1,1.67a3.9,3.9,0,0,1-.46.12c-.51.06-.84-.48-.85-1.4a26.83,26.83,0,0,1,1.43-8.19c.61-2,1.36-3.94,2.1-5.87Z"/><path class="cls-2" d="M280,325.36c.22-1.46.39-2.91.51-4.37,0-.52,0-1.06,0-1.58a38.91,38.91,0,0,0-.05-5.61,15.56,15.56,0,0,0-.46-2.45,14.29,14.29,0,0,1-.74-3.1c0-.69,2.42-.54,2.79.73a21.91,21.91,0,0,1,.79,6.85c-.09,1.38.08,2.8,0,4.2s-.23,3.05-.4,4.56l-.36,2.76c-.18,1.4-.39,2.78-.47,4.16a25.87,25.87,0,0,0,.1,3.18l.05.69c0,.87-.14,1.14-.79,1.32a3.17,3.17,0,0,1-.44.12c-.5.08-.9-.28-1-.94a21.11,21.11,0,0,1-.12-6.05c.14-1.51.35-3,.51-4.47Z"/><path class="cls-2" d="M196.18,413.65l1.67-13.77c.2-1.67.33-3.35.55-5,.75-5.89,1.57-11.78,2.39-17.67.35-2.62.68-5.25,1-7.85a86.57,86.57,0,0,1,1.48-10c.48-2.05,2.36,1,1.8,4.75-.93,6.77-1.85,13.56-3,20.39-.67,4.08-1,8.37-1.54,12.57l-1.65,13.86c-.32,2.85-.65,5.7-1,8.54-.48,4.31-1,8.64-1.37,12.93-.31,3.33-.47,6.61-.71,9.92-.05.73-.1,1.44-.15,2.18-.26,2.71-.54,3.6-1.28,4.09a1.92,1.92,0,0,1-.48.29c-.26.07-.45-.2-.56-.69a9.79,9.79,0,0,1-.11-2.24c.23-5.89.76-12.12,1.38-18.35.5-4.62,1-9.27,1.49-13.91Z"/><path class="cls-2" d="M303.9,408.16l-.71-12.34c-.09-1.5-.25-3-.33-4.49l-.78-15.88c-.1-2.35-.29-4.7-.46-7a63.21,63.21,0,0,1-.35-9c.07-.94.69-.81,1.31,0a7.21,7.21,0,0,1,1.32,3.9c.31,6.07.64,12.17.74,18.34.07,3.69.45,7.5.69,11.27l.76,12.42q.26,3.81.49,7.64c.26,3.85.49,7.73.82,11.56.25,3,.64,5.87,1,8.81.07.65.16,1.28.21,1.93.21,2.43.06,3.23-.54,3.77a2.79,2.79,0,0,1-.42.37c-.48.25-.94-.72-1.18-2.47-.77-5.21-1.26-10.74-1.7-16.31q-.44-6.19-.88-12.43Z"/><path class="cls-2" d="M247.05,443.46c-3.65-.95-7,3.09-9.69-2s12.8-107,12.34-129.72a11.71,11.71,0,0,1,5.14-1.73c2.85.05,5.38,6,8.83,12,1.65,22.45-.18,97.87,1.7,115.85C266.82,451.68,255.21,445.59,247.05,443.46Z"/><path class="cls-2" d="M262.68,345.35c0-3.85-.05-7.71-.11-11.56,0-1.92-.1-3.84-.15-5.76,0-1-.07-1.92-.12-2.88l-.13-2.69-2.52-4.64a40.19,40.19,0,0,0-2.89-4.75,4.8,4.8,0,0,0-1.58-1.5.75.75,0,0,0-.28-.09,1,1,0,0,0-.4,0,5.53,5.53,0,0,0-1.13.23,10.58,10.58,0,0,0-1.22.44l-.61.27-.28.13s-.12,0-.14.08v.17l0,1.22c-.16,5.72-.6,11.34-1.15,17-2,19.8-4.69,39.47-7.14,59.17-1.1,8.74-2.12,17.54-3,26.23-.57,5.58-1.09,11.18-1.45,16.76-.09,1.4-.16,2.79-.19,4.17,0,.69,0,1.37,0,2,0,.33,0,.67.07,1a2.4,2.4,0,0,0,.13.67l.45.74a4.34,4.34,0,0,0,.54.64,2.14,2.14,0,0,0,1.27.65c1,.17,2.34-.31,3.85-.53a4.57,4.57,0,0,1,2.15.1c.45.16.62.32.55.44-.13.27-1.08.28-2.4.88-.68.26-1.44.67-2.51,1a5.24,5.24,0,0,1-2,.3,4.28,4.28,0,0,1-2.36-.83l-.52-.4c-.15-.14-.28-.29-.43-.44a6.23,6.23,0,0,1-.76-1,4,4,0,0,1-.65-1.48,10.88,10.88,0,0,1-.19-1.27,33.79,33.79,0,0,1-.06-4.83c.31-5.81.89-11.52,1.5-17.24s1.29-11.42,2-17.12c1.41-11.41,2.93-22.82,4.48-34.28,1.83-13.7,3.42-28,4.62-42.07.15-1.93.3-3.86.41-5.79l.15-2.88,0-1.45,0-1.51V311l.13-.07.53-.28,1-.52.73-.33a11.51,11.51,0,0,1,3.11-.93,4.69,4.69,0,0,1,.93,0,3.29,3.29,0,0,1,1.06.25,5,5,0,0,1,1.56,1,13.63,13.63,0,0,1,2,2.47c1.12,1.7,2,3.43,3,5.14l1.39,2.55.36.63.24.43a.81.81,0,0,1,.18.53l.09,1.62c.11,2,.2,3.91.24,5.86s.12,3.9.14,5.84c.15,9.6.13,19.18.12,28.75,0,14.5-.17,29.07-.05,43.45.05,5.6.16,11.13.36,16.64.09,2.76.21,5.5.39,8.24.06,1.38.2,2.73.32,4.09a38.26,38.26,0,0,1,.26,4.27,9.75,9.75,0,0,1-.85,4,5.43,5.43,0,0,1-3.45,2.88,9.48,9.48,0,0,1-3.55.25,18.25,18.25,0,0,1-2.73-.48,30.91,30.91,0,0,1-3.82-1.18,15.85,15.85,0,0,1-3.9-1.94c-.37-.29-.9-.6-1.11-.82-.35-.38.41-.46,2.07-.17s4.18,1,7.31,1.69a16.22,16.22,0,0,0,3.4.37,4.21,4.21,0,0,0,2.64-.79c1.26-1,1.47-3.45,1.25-5.75-.11-1.26-.23-2.52-.34-3.79s-.17-2.57-.26-3.85c-.16-2.58-.22-5.15-.32-7.73-.31-10.33-.33-20.78-.35-31.25,0-15.56.13-31.17,0-46.74Z"/><path class="cls-2" d="M259.38,315.53a14.19,14.19,0,0,0-3.57-3.79,2.29,2.29,0,0,0-1.87-.31,11.64,11.64,0,0,0-2.47.84,33.28,33.28,0,0,0-3.57,2A91.83,91.83,0,0,0,236,323.15c-1.66,1.45-3.24,3-4.74,4.59-1,1-1.88,2.08-2.77,3.14l-1.31,1.6A13.93,13.93,0,0,0,226.1,334c-.08.15-.12.16-.21.16a.5.5,0,0,1-.29.09c-.23,0-.61-.17-.71-.72a5.1,5.1,0,0,1,1.29-4,77.65,77.65,0,0,1,13-11.93,101.68,101.68,0,0,1,8.88-6.23,18.26,18.26,0,0,1,5.79-2.32,6.4,6.4,0,0,1,.88-.07,6.76,6.76,0,0,1,1,.13,8,8,0,0,1,.86.33c.25.14.51.27.75.43a12.37,12.37,0,0,1,2.34,2.14,43.72,43.72,0,0,1,4.23,6.06c1.91,3.16,3.59,6.44,5.32,9.63,1.35,2.47,2.78,4.85,4.22,7.21l1,1.52c1.19,1.92,1.47,2.49,1.27,3.27a4.11,4.11,0,0,1-.13.53c-.2.52-1.25,0-2.3-1.38-3.06-4.14-5.4-8.84-7.94-13.43a94.21,94.21,0,0,0-6-9.89Z"/><g class="cls-1"><path class="cls-2" d="M243.45,319.86c-1.59,1.15-3.16,2.34-4.69,3.59-.55.46-1.06,1-1.61,1.43-2,1.62-3.89,3.27-5.72,5a26.23,26.23,0,0,0-2.24,2.49c-.45.56-.85,1.14-1.24,1.71s-.69,1-1,1.48c0,0-.21.1-.45.1a.91.91,0,0,1-.82-.38,2.32,2.32,0,0,1,0-2.53,32.93,32.93,0,0,1,6.42-6.54c1.42-1.12,2.71-2.48,4.12-3.67s3.13-2.58,4.75-3.8c1-.75,2-1.48,3-2.21,1.53-1.09,3.13-2.12,4.73-3.13a38.75,38.75,0,0,1,3.81-2.28,8.92,8.92,0,0,1,.94-.42c1.24-.41,1.8-.23,2.07.39a2,2,0,0,1,.18.44c.07.5-.31.87-1,1.16a51.79,51.79,0,0,0-6.41,3.76c-1.62,1.08-3.24,2.21-4.82,3.41Z"/></g><path class="cls-2" d="M273.6,116.88c-74.15-35.84-87.4,3.81-90,19.41C173,199.58,276,177.73,294.76,157.9c-.89,4.89-1.29,20.24,8.32,30.09,2.35,2.4,3.23,3.35,6.76,4.57C363.52,112.26,282.29,106.33,273.6,116.88Z"/><path class="cls-2" d="M292.7,162.07l0-.2c-.08.07-.17.15-.28.23l-1.22.87c-.56.36-1.11.74-1.68,1.09a67.17,67.17,0,0,1-7,3.76,109.7,109.7,0,0,1-14.66,5.59,143,143,0,0,1-30.66,5.87,96.18,96.18,0,0,1-23.6-.77,57.45,57.45,0,0,1-10.16-2.69,38.92,38.92,0,0,1-9.39-4.9,28.7,28.7,0,0,1-11.53-17.48c-1.53-7-.85-14.1.67-20.88a44.23,44.23,0,0,1,9.15-18.72,34.26,34.26,0,0,1,15.45-10.24,43.87,43.87,0,0,1,9.09-1.95,58,58,0,0,1,9.22-.19,94.13,94.13,0,0,1,23.06,4.39,149.74,149.74,0,0,1,21.7,8.74c4.37,2.12,3.46,2.46-.52,1.35-1-.28-2.19-.65-3.53-1.1s-2.89-.9-4.54-1.48l-2.57-.9-2.77-.91-2.92-1-3.08-1a104.09,104.09,0,0,0-22.7-5.12,64.83,64.83,0,0,0-11.49,0,39.48,39.48,0,0,0-11,2.82,31.08,31.08,0,0,0-9.38,6.14,35.9,35.9,0,0,0-6.75,9.09,52,52,0,0,0-5.49,22.31,40.06,40.06,0,0,0,.53,6.91,29.42,29.42,0,0,0,2,6.61,25.07,25.07,0,0,0,3.68,5.87,27.59,27.59,0,0,0,5.17,4.71,40,40,0,0,0,13,5.82,71.14,71.14,0,0,0,14.24,2.17,122.53,122.53,0,0,0,31.69-2.71c10.39-2.22,20.7-5.39,30.09-10.3a51.5,51.5,0,0,0,5-3l1.18-.84c.58-.43,1.2-1,1.79-1.48s1.22-1.15,1.83-1.72l1.73-1.7c-.28,1.8-.6,3.89-.75,5.67a12.75,12.75,0,0,0-.09,1.35l0,.91c0,.57,0,1.13,0,1.7a44.8,44.8,0,0,0,.72,6.74A32.6,32.6,0,0,0,301,184l1.07,1.47c.38.46.79.91,1.19,1.36a31.62,31.62,0,0,0,2.56,2.61,10.23,10.23,0,0,0,3,1.81l.47.19c.15.05.34.19.4,0l.74-1.12c2.74-4.17,5.31-8.44,7.62-12.85a98.37,98.37,0,0,0,6-13.61,58.49,58.49,0,0,0,3.19-14.35,35.54,35.54,0,0,0-.79-11.19,27.43,27.43,0,0,0-4.65-10c-4.44-5.93-11.16-9.82-18.27-11.94a51,51,0,0,0-9.61-1.87,50,50,0,0,0-12.93.26c-1.38.22-2.46.44-3.34.66s-1.59.4-2.23.59a11.16,11.16,0,0,0-1.66.73c-.31.13-.36,0-.1-.46a5.6,5.6,0,0,1,1.94-1.77c2.09-1.31,5.75-2.41,10.47-2.74a52.44,52.44,0,0,1,21,2.94,41,41,0,0,1,9.7,5,31.31,31.31,0,0,1,7.86,7.92A29.88,29.88,0,0,1,329,138a37.44,37.44,0,0,1,.79,11.21,67.17,67.17,0,0,1-5.62,21.4,123.59,123.59,0,0,1-7.44,14.54c-1.38,2.34-2.82,4.65-4.32,6.91l-.89,1.37-.56.82c-.19.24-.31.71-.68.42l-1.87-.67-.46-.18-.35-.15-.51-.23a13.22,13.22,0,0,1-3.76-2.65c-.52-.51-1-1-1.46-1.48l-1.42-1.61a18,18,0,0,1-1.31-1.71l-.63-.87-.56-.92a33,33,0,0,1-3.45-7.75,44.1,44.1,0,0,1-1.62-8.25c-.08-.7-.13-1.39-.16-2.09s-.06-1.4-.07-2.09c0-.35,0-.7,0-1.05l0-.66v-.1Z"/><path class="cls-2" d="M402.44,71.52a46.37,46.37,0,0,0-11.82,4,18.45,18.45,0,0,0-2,1.1l-2,1.18A48.65,48.65,0,0,0,374.56,88.5c-.74.94-1.42,1.94-2.11,2.93s-1.25,2.06-1.82,3.1c-.67,1.39-1.38,2.75-1.92,4.18-.28.71-.63,1.4-.89,2.12s-.56,1.43-.87,2.13c-.39.88-.94.59-1.24-.38a5.53,5.53,0,0,1-.21-1.9,7.56,7.56,0,0,1,.13-1.21,10,10,0,0,1,.43-1.27,44.4,44.4,0,0,1,11.27-16.06,61.28,61.28,0,0,1,9.61-7.25,49.45,49.45,0,0,1,12.21-5,57.31,57.31,0,0,1,8-1.43,52.64,52.64,0,0,1,12.23.27,56,56,0,0,1,9.2,1.9c.66.19,1.32.38,2,.63,2.42.92,3.08,1.47,3.3,2.27a2.55,2.55,0,0,1,.13.55c0,.56-1.09.45-2.81-.13A60,60,0,0,0,415,70.65a49.65,49.65,0,0,0-12.51.93Z"/><path class="cls-2" d="M399.46,163a45.81,45.81,0,0,0,25.25.49A48.77,48.77,0,0,0,436,159.08a46,46,0,0,0,9.78-7.14,42,42,0,0,0,6.83-8.33,61.82,61.82,0,0,0,5.77-12.46c.5-1.33,1.05-1,1.26.34a11.62,11.62,0,0,1,0,2.73,17.48,17.48,0,0,1-1,3.63,47.42,47.42,0,0,1-19.24,21.88,54.13,54.13,0,0,1-16.69,6.65,51,51,0,0,1-19.69-.1,54.1,54.1,0,0,1-5.88-1.55c-.95-.35-1.89-.74-2.84-1.1-.47-.19-.94-.36-1.41-.56l-1.36-.67a51.65,51.65,0,0,1-14.76-10.74c-.41-.42-.84-.83-1.23-1.26l-1.14-1.35a33.67,33.67,0,0,1-2.2-2.73c-.68-.95-1.39-1.89-2-2.86l-1.79-3a27.48,27.48,0,0,1-1.38-2.77,20.83,20.83,0,0,1-.95-2.25c-.2-.64-.34-1.17-.43-1.61a3.35,3.35,0,0,1,0-1.92,3.47,3.47,0,0,1,.24-.63c.36-.48,1.25.86,2.25,3.36.39.93.9,1.81,1.33,2.73l.67,1.36c.25.45.53.88.79,1.32.54.87,1,1.78,1.6,2.63l1.79,2.53a52.25,52.25,0,0,0,8.68,9,47.39,47.39,0,0,0,16.54,8.68Z"/><path class="cls-3" d="M409,92.61l0,0a.13.13,0,0,1-.1-.09L406,81.31a.12.12,0,0,1,0-.12,0,0,0,0,0,0,0,2.82,2.82,0,0,0-1.21.17c-.65.17-1.17.37-1.15.45h0a.18.18,0,0,1,.1.09l.12.46,2.79,10.74a.13.13,0,0,1,0,.12s0,0,0,0a2.64,2.64,0,0,0,1.21-.17A2.94,2.94,0,0,0,409,92.61Z"/><path class="cls-3" d="M438,111.25l0,0c0-.06.05-.1.09-.11l10.93-2.91a.13.13,0,0,1,.12.05h0a2.84,2.84,0,0,0-.19-1.21,2.94,2.94,0,0,0-.44-1.15s0,0,0,0a.14.14,0,0,1-.08.1l-.45.12-10.49,2.79a.13.13,0,0,1-.12,0h0a2.74,2.74,0,0,0,.18,1.21A3,3,0,0,0,438,111.25Z"/><path class="cls-3" d="M386.63,121s0,0,0,0,0,.09-.08.1l-10.46,2.82s-.07,0-.11-.05h0a3.22,3.22,0,0,0,.2,1.22,2.85,2.85,0,0,0,.44,1.14s0,0,0,0,0-.09.08-.1l.42-.12,10-2.7a.11.11,0,0,1,.11,0h0a5.77,5.77,0,0,0-.63-2.35Z"/><path class="cls-3" d="M417.19,143.46l0,0c.06,0,.09,0,.1.08l2.72,10.2s0,.07,0,.11v0a2.84,2.84,0,0,0,1.21-.19,2.94,2.94,0,0,0,1.15-.44h0a.14.14,0,0,1-.1-.08l-.11-.41L419.49,143s0-.07.05-.11,0,0,0,0a3.27,3.27,0,0,0-1.21.19A3,3,0,0,0,417.19,143.46Z"/><path class="cls-3" d="M398.31,115.74l.06,0a.85.85,0,0,1,.35.11l7.92,4.7,4,2.35,3.35,2,.95.56.48.28c.06,0,0,0,0-.07l0-.14-.05-.27-.35-2.18-1-5.64-.81-4.55c-.28-1.51-.57-3-.88-4.54s-.61-3-1.1-4.6a1.6,1.6,0,0,1-.06-.4.19.19,0,0,0,0-.08c-.08-.18-.26-.26-.55-.31a.77.77,0,0,0-.8.37c-.2.27-.4.54-.64.58s-.3.21-.28.26l0,0a.49.49,0,0,1,.17.25c.14.42.26.89.37,1.36.67,2.81,1.2,5.71,1.73,8.59l1.21,6.89c0,.09-.06,0-.1,0l-1.05-.62-3.8-2.26-7.6-4.51a.77.77,0,0,1-.25-.23l-.05,0c-.21-.13-.66.24-1,.82S398.09,115.61,398.31,115.74Z"/><path class="cls-2" d="M386.25,266.24c-.06-2.1-.12-4.2-.24-6.3,0-.76-.16-1.52-.2-2.28-.16-2.68-.33-5.37-.69-8a31.77,31.77,0,0,0-.67-3.5l-.59-2.2a11.91,11.91,0,0,1-.45-2.23c-.08-1,2.45-.43,2.94,1.34a43.89,43.89,0,0,1,1.36,9.47c.07,1.92.38,3.87.53,5.81.14,2.13.24,4.26.32,6.39l.15,3.92c.09,2,.14,4,.3,5.92.13,1.52.4,3,.63,4.49.05.33.12.65.16,1,.15,1.22,0,1.63-.59,2a4.11,4.11,0,0,1-.42.21c-.48.17-.93-.3-1.16-1.19a46,46,0,0,1-1.12-8.38c-.14-2.12-.21-4.25-.32-6.37Z"/><path class="cls-2" d="M445.27,279.68l-13.34,1.47c-1.62.17-3.24.41-4.86.57q-8.6.84-17.21,1.48l-7.64.64c-1.63.12-3.26.28-4.91.33a19.81,19.81,0,0,1-5.05-.33c-1.23-.39-.64-.88.22-1.28a9.82,9.82,0,0,1,4.19-1c6.5-.21,13.13-.79,19.79-1.14,4-.23,8.12-.81,12.19-1.25l13.41-1.49,8.25-1,6.25-.8,3.12-.41,1.87-.28a2.69,2.69,0,0,0,.36-.06l-1-.83-.47-.37-.79-.67-3.34-2.94L454.74,269c-1.94-1.74-2.47-2.38-2.48-3.24a2.76,2.76,0,0,1,0-.58c.12-.54,1.22-.15,2.76,1s3.24,2.66,4.81,4.05q3.68,3.24,7.44,6.53L458.71,278c-4.46.62-8.95,1.18-13.43,1.74Z"/><path class="cls-2" d="M401.34,275l-2.27,2.18c-.27.26-.5.56-.78.82l-3,2.68a15,15,0,0,0-1.25,1.27,6.14,6.14,0,0,1-1.69,1.56c-.45.21-1.38-1.73-.79-2.31a28.08,28.08,0,0,1,3.49-3,18,18,0,0,0,2-2l2.23-2.18c.46-.45.92-.91,1.35-1.37.67-.71,1.35-1.4,1.94-2.16a15.35,15.35,0,0,0,1.16-1.88c.08-.14.13-.29.21-.42.32-.49.48-.53,1.05-.36.13,0,.27.06.39.11a.78.78,0,0,1,.43,1.07,12,12,0,0,1-2.29,3.63c-.68.8-1.42,1.57-2.15,2.34Z"/><path class="cls-2" d="M437.09,259.39c-.84.66-1.71,1.31-2.63,1.93-.47.31-1,.61-1.49.89a6,6,0,0,1-2,.7,3,3,0,0,1-1.36-.14,8.39,8.39,0,0,1-.86-.31c-.52-.21-1-.44-1.5-.66-1-.46-1.91-.93-2.85-1.41-1.37-.69-2.76-1.33-4.1-2.05l-14.14-7.72c-2.09-1.14-4.23-2.2-6.35-3.22-2.73-1.29-5.54-2.49-8.15-3.87-.8-.4-.5-1,.51-1.36a6.26,6.26,0,0,1,4.28.45c5.67,2.66,11.09,5.64,16.48,8.83,3.21,1.91,6.72,3.59,10.1,5.34,1.86,1,3.72,1.92,5.59,2.78.46.22.93.42,1.37.59s.55.22.87.12a9.63,9.63,0,0,0,2.45-1.33,61,61,0,0,0,5.91-4.84c2.87-2.62,5.7-5.34,8.38-8.15,2.08-2.18,4-4.46,5.95-6.71.43-.49.84-1,1.28-1.48,1.66-1.82,2.35-2.27,3.23-2.15a2.59,2.59,0,0,1,.59.1c.55.23.18,1.23-.93,2.64a148,148,0,0,1-11.15,12.4c-3,3-6.07,5.92-9.41,8.67Z"/><path class="cls-2" d="M440.86,232.94l-13.32.67-4.85.32c-5.7.26-11.41.5-17.1.82-2.53.16-5.07.37-7.56.63l-9.47,1.06c-.87.1-1.09-.47-.38-1.24a4.24,4.24,0,0,1,.72-.62,7.64,7.64,0,0,1,1-.52,8.39,8.39,0,0,1,2.51-.69c6.62-.73,13.2-1.08,19.86-1.23,4-.08,8.11-.46,12.17-.68l13.4-.72,8.24-.48c4.16-.27,8.35-.52,12.42-1l1.62-.22,2.2-.48c.17,1.36.34,2.72.52,4.07l.39,3.21c.07.7.17,1.39.22,2.1.2,2.63,0,3.5-.6,4.07a2.5,2.5,0,0,1-.43.38c-.5.24-.89-.8-1.12-2.68-.21-1.64-.42-3.29-.63-5-.1-.84-.21-1.68-.31-2.53l-.08-.64,0-.14h0l0,0,0,0h0l-.12,0-1.91.25c-1.27.16-2.52.26-3.78.39-4.48.39-9,.67-13.44.95Z"/><path class="cls-2" d="M67.57,240.48l-8.68-14.27L55.68,221l-11-18.37c-1.64-2.72-3.38-5.39-5.11-8-2.24-3.34-4.56-6.7-6.73-10-.67-1-.1-1.31,1-.82a8.5,8.5,0,0,1,2,1.32,14.35,14.35,0,0,1,2.11,2.42c4.65,6.89,8.9,14,13.05,21.2,2.47,4.32,5.29,8.67,7.95,13l8.76,14.34,5.44,8.78c2.78,4.42,5.57,8.86,8.45,13.15,2.26,3.33,4.59,6.53,7,9.69.52.7,1,1.38,1.56,2.09,2,2.59,2.47,3.51,2.38,4.46a3,3,0,0,1-.07.64c-.2.56-1.32-.26-2.89-2.11a199.72,199.72,0,0,1-13-18.07c-3.06-4.7-6-9.48-9-14.24Z"/><g class="cls-1"><path class="cls-2" d="M66,240.86l-8.65-14.27-3.21-5.17c-3.68-6.14-7.3-12.3-11-18.41-1.65-2.71-3.38-5.38-5.11-8-2.25-3.35-4.59-6.69-6.73-10-.66-1,0-1.36,1.13-.91a8,8,0,0,1,2.07,1.27,12.35,12.35,0,0,1,2.14,2.39c4.66,6.9,8.9,14,13,21.23,2.45,4.34,5.29,8.68,7.94,13l8.74,14.35,5.43,8.79c2.78,4.42,5.56,8.87,8.45,13.16,2.26,3.32,4.6,6.51,7,9.66l1.58,2.09c2,2.58,2.45,3.51,2.31,4.51a3.9,3.9,0,0,1-.11.67c-.24.59-1.41-.2-3-2.05a188.37,188.37,0,0,1-13-18.05c-3.06-4.69-6-9.47-9-14.24Z"/></g><path class="cls-2" d="M121.37,228.88l-12,9.08L105,241.33q-7.78,5.79-15.64,11.49c-2.32,1.69-4.62,3.44-6.9,5.15-1.47,1.1-2.93,2.21-4.44,3.27a27,27,0,0,1-4.85,2.87c-.58.25-1.12.14-1.08-.1a4,4,0,0,1,.51-1.07,11.92,11.92,0,0,1,3.38-3.5c6.06-4.22,12.06-8.68,18.24-13,3.69-2.58,7.34-5.52,11-8.3L117.3,229l7.43-5.67c3.74-2.88,7.52-5.74,11.2-8.65,2.86-2.26,5.57-4.58,8.37-6.86.62-.5,1.21-1,1.85-1.5,2.35-1.82,3.26-2.25,4.16-2.06.2,0,.48.06.57.19s0,.1,0,0v0s0,.2,0,.25l0,.09c0,.1-.08.28-.23.49A12.19,12.19,0,0,1,149,207c-4.87,4.17-10.17,8.42-15.54,12.61l-12,9.3Z"/><g class="cls-1"><path class="cls-2" d="M122.16,230,110.1,239c-1.47,1.1-2.89,2.26-4.36,3.36q-7.8,5.78-15.66,11.46c-2.33,1.69-4.63,3.44-6.91,5.15-1.47,1.1-2.93,2.22-4.44,3.28a26.7,26.7,0,0,1-4.86,2.87c-.59.25-1.16.13-1.12-.15a4.63,4.63,0,0,1,.48-1.15,10.64,10.64,0,0,1,3.3-3.61c6-4.22,12-8.67,18.26-12.92,3.7-2.56,7.34-5.51,11-8.29l12.12-9.16,7.44-5.66c3.75-2.87,7.53-5.73,11.2-8.64,2.86-2.26,5.56-4.6,8.36-6.89.61-.5,1.2-1,1.84-1.5,2.34-1.83,3.27-2.25,4.22-2,.21.06.49.08.59.23s0-.12,0,0,0,.16,0,.29a.24.24,0,0,0,0,.09c.06.11-.06.3-.2.52a11.07,11.07,0,0,1-1.71,1.75c-4.84,4.21-10.13,8.46-15.5,12.65l-12,9.3Z"/></g><path class="cls-2" d="M154.69,202.68h0a.18.18,0,0,0-.08-.06l-.07,0h-.22l-2.49-.06c-.62,0-1.23,0-1.85,0l-6.54-.23c-1,0-1.94,0-2.89.09a15.26,15.26,0,0,1-3.7.05c-.78-.15,0-2.48,1.41-2.53a51.63,51.63,0,0,1,7.65.22c1.54.16,3.12,0,4.68,0l2.58,0,1.32,0h2l1.51,0-1.11,3.1-.8,2.33c-.25.76-.49,1.51-.69,2.27a27.67,27.67,0,0,0-.59,3.55l-.07.76c-.12,1-.24,1.05-.87,1.29-.14.06-.27.15-.41.22a.52.52,0,0,1-.68-.15,1.89,1.89,0,0,1-.36-1.06,21.87,21.87,0,0,1,1.19-6.89c.24-.83.51-1.66.79-2.48l.11-.3c0-.08,0,0,0,0l0,0a.22.22,0,0,0,.06-.07Z"/><path class="cls-2" d="M75.34,228.19l-3.67-6c-.45-.72-1-1.41-1.41-2.15l-4.65-7.78c-.69-1.15-1.44-2.27-2.18-3.38a23.76,23.76,0,0,1-2.67-4.41c-.4-1,2.29-1,3.31.64,1.83,2.92,3.64,5.89,5.28,9,1,1.86,2.27,3.63,3.42,5.45l3.74,6,2.31,3.71c1.18,1.86,2.33,3.76,3.55,5.58.94,1.41,2,2.73,3,4.1.22.3.46.58.66.89.77,1.16.86,1.62.47,2.21a2.09,2.09,0,0,1-.27.39c-.35.38-1,.11-1.65-.67a79.37,79.37,0,0,1-5.44-7.59l-3.81-6Z"/><path class="cls-2" d="M86.42,221.58l-4-6.55c-.49-.8-1-1.56-1.52-2.36l-5-8.49c-.75-1.26-1.56-2.48-2.36-3.7a28.14,28.14,0,0,1-2.89-4.81c-.45-1.08,2.29-1,3.4.82,2,3.2,4,6.44,5.75,9.84,1.07,2,2.46,4,3.7,6l4.06,6.57,2.51,4c1.28,2,2.54,4.09,3.87,6.06,1,1.54,2.17,3,3.25,4.46.24.32.49.63.72,1,.85,1.25,1,1.74.61,2.36a2.36,2.36,0,0,1-.25.41c-.34.39-1,.09-1.74-.76a83.61,83.61,0,0,1-6-8.27c-1.41-2.15-2.77-4.34-4.16-6.52Z"/><path class="cls-2" d="M101.44,214.61l-3.51-5.85c-.43-.71-.91-1.38-1.34-2.1l-4.45-7.55c-.67-1.11-1.4-2.19-2.13-3.25a26.92,26.92,0,0,1-2.67-4.18c-.43-1,2.25-1.08,3.3.5a92.76,92.76,0,0,1,5.19,8.72c.94,1.82,2.18,3.54,3.27,5.31l3.57,5.87,2.2,3.6c1.13,1.81,2.23,3.65,3.41,5.41.92,1.36,1.94,2.63,2.91,3.94.22.28.45.55.65.85.76,1.1.86,1.55.48,2.13a3.1,3.1,0,0,1-.27.4c-.35.37-1,.13-1.65-.61a62.94,62.94,0,0,1-5.34-7.33c-1.25-1.92-2.45-3.88-3.67-5.83Z"/><path class="cls-2" d="M112.51,204.16l-3.42-5.73c-.42-.7-.9-1.35-1.31-2.05l-4.35-7.4c-.65-1.08-1.37-2.14-2.08-3.18a24.42,24.42,0,0,1-2.61-4.09c-.42-.93,2.26-1.07,3.29.48a87.34,87.34,0,0,1,5,8.53c.92,1.77,2.13,3.46,3.19,5.19l3.49,5.74,2.15,3.53c1.1,1.77,2.17,3.57,3.33,5.29.89,1.34,1.89,2.57,2.84,3.85.21.28.44.55.64.84.75,1.07.84,1.51.45,2.09a2.33,2.33,0,0,1-.27.4c-.34.37-1,.14-1.62-.58a60.45,60.45,0,0,1-5.24-7.18c-1.22-1.87-2.39-3.79-3.58-5.7Z"/><path class="cls-2" d="M320.34,451.11l-66.06.54-24.1.25c-28.31.17-56.62.18-84.94.19l-37.66,0c-8,0-16,.06-24.06,0-4,0-8-.07-12-.16s-8-.27-12-.46c-5-.22-4.29-1,0-1.59a155.07,155.07,0,0,1,21.23-1c32.67.31,65.35.26,98.32.47,19.71.09,40.24-.22,60.4-.38l66.55-.57,40.95-.44c20.67-.25,41.44-.48,61.95-.84,15.95-.28,31.58-.73,47.35-1.11l10.37-.26c13-.25,17.11-.11,19.91.63a17.34,17.34,0,0,1,1.84.51c1.26.59-4,1.16-13.52,1.48-28.18,1-57.9,1.53-87.75,2l-66.65.87Z"/><path class="cls-2" d="M451.45,421.16l-7.13,13.25L440.76,441,439,444.35l-1.1,2.07-.78,1.47c0,.17-.2.13-.34.13h-1.24l-6.08.12c-1.83,0-3.66.09-5.49.1l-38.71,0c-5.72,0-11.48.1-17.16.21-3.65.06-7.31.18-11,.19a100.54,100.54,0,0,1-11.06-.44c-1.31-.21-1.78-.57-1.64-.95s.85-.81,1.77-1.22a18.19,18.19,0,0,1,4-1.22,27.56,27.56,0,0,1,5.66-.57c14.85,0,29.74-.09,44.76.24,9,.18,18.32-.16,27.51-.26l3.79-.05,2.77,0a1.06,1.06,0,0,0,.18-.27l.23-.42.89-1.67,1.79-3.35,7.14-13.37q4.39-8.22,8.78-16.46c4.41-8.32,8.89-16.66,13.15-25,3.32-6.47,6.36-12.92,9.52-19.37.69-1.42,1.34-2.83,2.06-4.25,2.67-5.28,3.78-6.83,5.31-7.46a5.57,5.57,0,0,1,1-.41c1-.12.48,2.34-1.3,6.29-5.29,11.72-11.45,23.78-17.72,35.85-4.71,8.93-9.43,17.91-14.15,26.86Z"/><path class="cls-2" d="M225,197.94c1.13,4.25,2.09,10.39,7.86,10.07,5.2-.3,8.38-6.38,9.76-10.69.39-1.21-2.55-.87-2.92.27-.92,2.88-4.14,10.24-8.15,7.94-2.67-1.52-2.95-5.71-3.65-8.37-.32-1.21-3.22-.44-2.9.78Z"/><path class="cls-2" d="M279.48,197.33c-1,2.37-3.28,8.74-6.8,7.92-2.89-.68-4-5.78-4.6-8.18-.2-.88-3.11-.14-2.89.78.93,4,2.92,9.81,8.09,8.87s7.23-5.56,9.08-9.8c.33-.76-2.5-.46-2.88.41Z"/><path class="cls-2" d="M221.74,184.16c5.06-1.18,10.69-1.93,15.18,1.33,1.5,1.09,6.22-.32,4.23-1.77-6.18-4.49-13.77-4.09-20.89-2.42-3.24.75-1,3.45,1.48,2.86Z"/><path class="cls-2" d="M269.9,180.87a14,14,0,0,1,16.44-.85c2,1.25,6-.42,3.22-2.16-7-4.45-16.59-5.35-23.36.2-2.14,1.75,2,4.17,3.7,2.81Z"/><path class="cls-2" d="M254.07,245.94c-2.15-.1-4.69.92-5.53,3s1.06,4,3.07,4.31a4.81,4.81,0,0,0,4.89-2.44,3.32,3.32,0,0,0-.89-4.44c-.83-.61-3.48.61-2.28,1.48a2.12,2.12,0,0,1,.66,2.25c-.11.44-.59,1.4-.92,1.42-1,.07-1.87-1.35-1.81-2.18a1.75,1.75,0,0,1,1.72-1.66,2.14,2.14,0,0,0,1.9-.82c.33-.6-.27-.93-.81-1Z"/><path class="cls-2" d="M292.87,193a27.89,27.89,0,0,1,3.79-1.89c1.15-.57.14-2.3-1-1.73a28,28,0,0,0-3.79,1.9c-1,.73,0,2.46,1,1.72Z"/><path class="cls-3" d="M448.31,104.15l-.15-.39c-.26-.68-.64-1.33-1-2a38.08,38.08,0,1,0-13.33,47.55A37.51,37.51,0,0,0,444,139.25a38.16,38.16,0,0,0,6.25-27.3c-.1-.68-.14-1.4-.28-2.06,0-.14,0-.29-.08-.43-.36-1.5-1.18-2.55-1.82-2.35s-.9,1.49-.57,2.87c0,.13.07.26.11.38a10.72,10.72,0,0,1,.43,2l.3,2.17.07,2.19a33.74,33.74,0,0,1-.13,4.38,36.32,36.32,0,0,1-11.21,22.71,35.68,35.68,0,0,1-10.8,7,37.16,37.16,0,0,1-12.59,2.69A35.84,35.84,0,0,1,377,123.5,35.61,35.61,0,0,1,382,98.66a35.86,35.86,0,0,1,63.25,4.13,8.77,8.77,0,0,1,.7,1.82c0,.13.08.27.13.4.47,1.34,1.38,2.28,2,2.1S448.82,105.6,448.31,104.15Z"/><g class="cls-1"><path class="cls-2" d="M231.87,222.41a33.53,33.53,0,0,1-5.56.38c-.67,0-1.34,0-2,0a25.61,25.61,0,0,1-6.94-1.63c-1-.4-2-.82-2.94-1.32a6.78,6.78,0,0,1-3.12-2.83c-.21-.41.42-.72,1.16-.86a3.74,3.74,0,0,1,1.09-.08,1.25,1.25,0,0,1,.88.29,19.65,19.65,0,0,0,6.13,3.22,15.58,15.58,0,0,0,4.55.62,30.4,30.4,0,0,0,5.13-.18,23.34,23.34,0,0,0,3.11-.58,15,15,0,0,0,4.37-1.8,6.86,6.86,0,0,0,2.27-2.49c.13-.2.15-.43.26-.62.29-.75.44-.93,1.2-1a4.5,4.5,0,0,1,.51-.08.7.7,0,0,1,.68.33,1.57,1.57,0,0,1,.16,1.12,6.79,6.79,0,0,1-2,3.68,12.68,12.68,0,0,1-3.36,2.27,22.94,22.94,0,0,1-5.5,1.68Z"/></g><g class="cls-1"><path class="cls-2" d="M274.08,219.24a19.83,19.83,0,0,0,4.93-.13,16.93,16.93,0,0,0,1.73-.46,13.26,13.26,0,0,0,5.54-2.87,13.43,13.43,0,0,0,1-1c.26-.4.56-.76.78-1.18.61-1.05.92-2.21,1.59-3.26.22-.32.86-.08,1.38.46a2.1,2.1,0,0,1,.55,2.19,13.5,13.5,0,0,1-2.38,3.71,12.38,12.38,0,0,1-3.52,2.67,23.34,23.34,0,0,1-4.84,2,21,21,0,0,1-5.62.56,26.06,26.06,0,0,1-3.41-.33,30.79,30.79,0,0,1-5-1.27,18,18,0,0,1-3.79-1.57,4.68,4.68,0,0,1-.81-.58,2.11,2.11,0,0,1-.78-1.25.84.84,0,0,1,.42-.87,1.91,1.91,0,0,1,.44-.24,1.75,1.75,0,0,1,.76,0,1.46,1.46,0,0,1,.61.22,13,13,0,0,0,2.51,1.25,25.69,25.69,0,0,0,3.07,1,25,25,0,0,0,4.88.84Z"/></g></g></svg>