<svg id="Layer_1" data-name="Layer 1" xmlns="http://www.w3.org/2000/svg" width="520" height="520" viewBox="0 0 520 520"><defs><style>.cls-1{fill:#221f1f;}.cls-2{fill:#232020;}.cls-3,.cls-4{fill:none;stroke:#221f1f;stroke-miterlimit:10;}.cls-3{stroke-width:3px;}.cls-4{stroke-width:2.5px;}</style></defs><title>Notioly v2</title><g id="_94.Dreaming" data-name="94.Dreaming"><path class="cls-1" d="M316.9,427.42q-35-.17-70-.32c-8.52,0-17,0-25.54,0q-45-.22-90-.49c-13.31-.06-26.7,0-39.92,0-17,.07-34,.3-51,0-10.57-.21,2.84-3.31,22.41-3.34,34.67-.05,69.32.08,104.27.52,20.9.27,42.66.13,64,.2q35.28.1,70.56.26l43.41.15c21.92.05,43.94.15,65.69.1,16.91,0,33.49-.25,50.2-.4,3.68,0,7.28-.09,11-.1,13.76-.06,18.14.16,21.09,1a16.91,16.91,0,0,1,1.95.59c1.32.66-4.29,1.2-14.36,1.4-29.89.57-61.4.66-93,.66-23.5,0-47.11-.07-70.67-.12Z"/><path class="cls-1" d="M68.39,398.22a6.84,6.84,0,0,1,2.49-3.34,5.3,5.3,0,0,1,2.78-.87c6.21-.33,12.41-.59,18.61-.69,5.33-.05,10.65.17,16,.24,9.16.2,18.33.27,27.47.32,2.71,0,5.4.09,8.09,0s5.17-.26,7.61-.48c.2,0,.42-.07.62-.1a.46.46,0,0,1,.38,0,3.67,3.67,0,0,1,1,3.66c-.12.33-.26.87-.48.9a6.88,6.88,0,0,0-2.85,1.41,5.06,5.06,0,0,1-2.92,1.22c-4-.07-7.9.55-11.85.78a35.41,35.41,0,0,1-4.72,0c-2-.14-4-.47-6-.62-1.37-.1-5.29-.18-10.41-.28-2.56-.05-5.42-.07-8.41-.16l-9.21-.34-16.81-.51c-4.58-.11-7.68-.18-8-.21A23.2,23.2,0,0,1,68.39,398.22Z"/><path class="cls-1" d="M67.06,400.43a3.21,3.21,0,0,0,1.82-.94,9.81,9.81,0,0,1,1.18-.84,4.18,4.18,0,0,1,2.22-.57c4.86,0,9.85-.42,14.79-.47,4.25,0,8.5.41,12.77.49,7.34.2,14.69.23,22,.3,2.17,0,4.34.13,6.51.1s4.17-.17,6.26-.26c.35,0,.72-.16,1,0,.88.48,1.06,2.36.38,3.75-.16.32-.33.84-.5.84-1.61.06-2.93,2.46-4.63,2.36-3.14-.17-6.31.43-9.46.63a24,24,0,0,1-3.79-.08c-1.61-.15-3.21-.5-4.82-.66-1.1-.1-4.24-.21-8.35-.34s-9.19-.29-14.16-.52-9.85-.65-13.55-1-6.26-.81-6.53-.89a6.36,6.36,0,0,1-1.26-.59l-.77-.45L67.8,401A5.89,5.89,0,0,1,67.06,400.43Z"/><path class="cls-1" d="M174,397.67c-.61-2.59-.34-3.58.15-4a5.36,5.36,0,0,1,1.29-.83c.44-.24.89-.45,1.35-.66a21,21,0,0,1,2.77-1c1.6-.49,3.26-.57,4.81-.93,1.35-.31,2.64-.65,3.91-1a36.88,36.88,0,0,0,3.67-1.3A15.75,15.75,0,0,0,194,387a12.5,12.5,0,0,0,1.69-1.28c.09-.07.13-.24.3-.18a5.28,5.28,0,0,1,1.75,2.44c.09.24.26.62.21.66-.48.36.08,2.33-.59,2.61a37.67,37.67,0,0,0-3.27,2.22,4.48,4.48,0,0,1-1.45.55c-.65.13-1.35.11-2,.19-.44.08-1.64.41-3.19.8l-5.21,1.29c-1.79.47-3.48.95-4.73,1.35a9.22,9.22,0,0,1-1.54.45c-.4,0-.64.08-.69.07A8.85,8.85,0,0,1,174,397.67Z"/><path class="cls-1" d="M303.77,209.15l.2-1.45c.08-.48.22-.95.32-1.42l.35-1.42.45-1.39a15.75,15.75,0,0,1,.69-2,26.44,26.44,0,0,1,3.88-6.35c.33-.43.69-.85,1-1.27s.71-.84,1.11-1.23a7,7,0,0,1,3.69-2.45c.52-.09.51.56.38,1.25a5.5,5.5,0,0,1-.24,1,1.3,1.3,0,0,1-.55.76,28.7,28.7,0,0,0-5.23,5.5,12.25,12.25,0,0,0-1.23,2.08c-.34.74-.6,1.52-.94,2.27s-.58,1.69-.83,2.56-.45,1.75-.59,2.64a24.89,24.89,0,0,0-.34,3.33,26.11,26.11,0,0,0,.27,5.08c.15.64.33,1.27.51,1.89a13.4,13.4,0,0,0,.65,1.84c.1.26.23.51.33.78.35,1,.29,1.38-.24,1.81a3.47,3.47,0,0,1-.37.3c-.43.27-.95,0-1.33-.76a15.19,15.19,0,0,1-1.4-3.54c-.16-.63-.32-1.27-.46-1.91s-.17-1.31-.24-2l-.14-1.47c0-.5,0-1,0-1.48l0-1.49c0-.49.1-1,.15-1.47Z"/><path class="cls-1" d="M358.4,163.47c-.63.06-1.24.27-1.87.39s-1.22.39-1.82.63c-.43.2-.84.45-1.27.64a24.93,24.93,0,0,0-4.36,2.68c-.29.24-.58.49-.86.75l-.78.84a13,13,0,0,1-2,2.17c-.51.39-1.86-1.65-1.07-2.63a17.29,17.29,0,0,1,5-4.13c1.16-.6,2.22-1.44,3.43-2a18,18,0,0,1,2-.84,17,17,0,0,1,2.11-.61,9.75,9.75,0,0,1,1.33-.25,11.68,11.68,0,0,1,1.34-.16,12.63,12.63,0,0,1,2,0,15,15,0,0,1,2,.19,28,28,0,0,1,3.12.46c.22.06.44.11.66.19.82.31,1,.57.89,1.21,0,.15-.05.3-.09.44a1,1,0,0,1-1.2.63,42,42,0,0,0-4.94-.72l-.93,0c-.3,0-.61,0-.93,0a11.79,11.79,0,0,0-1.86.22Z"/><path class="cls-1" d="M145,336.79q4.65-.09,9.29-.36c1.13-.07,2.26-.21,3.39-.29,4-.27,7.95-.6,11.91-1.11,1.75-.23,3.5-.54,5.21-.92,1.09-.24,2.18-.53,3.24-.84l1.56-.47a8.46,8.46,0,0,0,1.37-.51c.18-.1.25,0,.47.1s.38.37.23.82a3.84,3.84,0,0,1-2.61,2.21,69.5,69.5,0,0,1-13.94,2.14c-2.81.17-5.69.57-8.55.78q-4.71.35-9.44.49c-1.94.07-3.88.1-5.81.12-2.94,0-5.89,0-8.81-.11-2.27-.08-4.5-.07-6.77-.29-.5-.05-1-.09-1.5-.17-1.87-.31-2.44-.67-2.65-1.33a1.66,1.66,0,0,1-.13-.44c0-.48.76-.57,2-.41,3.82.41,8,.54,12.14.61,3.11,0,6.23,0,9.35-.08Z"/><path class="cls-1" d="M92,336.84c-1.26-.25-2.52-.52-3.78-.8-.46-.1-.93-.16-1.39-.27q-2.41-.6-4.8-1.39c-.7-.23-1.42-.44-2.13-.7a8.31,8.31,0,0,1-1.38-.61,2.69,2.69,0,0,1-.67-.53,1.5,1.5,0,0,1-.42-1c.06-.48.48-.26.86-.12a.91.91,0,0,0,.57,0,.63.63,0,0,1,.49.09,12.85,12.85,0,0,0,2.31,1l2.62,1a26.87,26.87,0,0,0,3.38.82c1.25.28,2.5.55,3.76.79l2.34.44c1.18.2,2.36.41,3.55.54.91.1,1.83.11,2.74.14.2,0,.4,0,.61,0,.75.06,1,.19,1.08.63a1.67,1.67,0,0,1,.08.3c0,.34-.3.58-.86.61a26.91,26.91,0,0,1-5.12-.3c-1.28-.17-2.57-.4-3.85-.62Z"/><path class="cls-1" d="M286.18,323.93a35,35,0,0,0-4-.26c-.49,0-1,.08-1.46.09a27.11,27.11,0,0,0-5,.84c-.77.17-1.54.4-2.33.61a10.88,10.88,0,0,1-1.59.35,2.88,2.88,0,0,1-1.92-.37c-.46-.32.12-.72.55-1.18s.63-1.05,1-1.07c.77-.07,1.73-.27,2.68-.46s2-.38,3-.5c.63-.08,1.26-.22,1.92-.36.34-.07.68-.14,1-.18s.66-.05,1-.07a37.81,37.81,0,0,1,4.26.11c.87.08,1.74.17,2.6.29,1.31.17,2.61.45,3.9.7,1,.2,2,.31,3,.53.22.06.44.09.66.16.81.26,1,.53.91,1.18a3.5,3.5,0,0,1-.07.45,1,1,0,0,1-1.17.65c-1.71-.21-3.39-.6-5.13-.91-1.3-.23-2.61-.43-3.94-.54Z"/><path class="cls-1" d="M355.28,326a42.07,42.07,0,0,1,5.14,2.49c.59.32,1.14.53,1.73.8a18.58,18.58,0,0,0,6.46,1.75,8.48,8.48,0,0,0,2.9-.3,14.71,14.71,0,0,0,3.19-1.54c.33-.16.76.28.88,1a2.37,2.37,0,0,1-.12,1.16,2,2,0,0,1-.87,1,10.21,10.21,0,0,1-4.59,1.16,13.91,13.91,0,0,1-4.43-.6,37,37,0,0,1-5.05-1.7c-.9-.45-1.67-.89-2.48-1.31s-1.62-.81-2.46-1.17a26.49,26.49,0,0,0-3.12-1.15,18.92,18.92,0,0,0-4.93-.83,15.93,15.93,0,0,0-3.78.5c-.28.05-.54.16-.81.21-1,.22-1.37.17-1.74-.42a2.84,2.84,0,0,1-.25-.39c-.22-.46.12-1,.9-1.28a16.31,16.31,0,0,1,7.72-.84,25.77,25.77,0,0,1,5.73,1.46Z"/><path class="cls-1" d="M296.25,253.26c.62,2.58,1.4,5.23,2.25,7.76.22.64.45,1.27.69,1.86s.57,1.14.85,1.71a18.23,18.23,0,0,0,1,1.68c.34.57.73,1.12,1.12,1.66,1.13,1.61,2.42,3.15,3.6,4.79a59.6,59.6,0,0,1,5.64,9.18,37.76,37.76,0,0,1,3.29,10.3,36.61,36.61,0,0,1,.54,4.78l.14,2.39c0,.79-.06,1.59-.08,2.38a42.68,42.68,0,0,1-2,12c-.37,1.21-.92.86-1.26-.31a12.16,12.16,0,0,1,0-5.34l.42-2.94c.06-.48.16-1,.2-1.46l.07-1.48c0-1,.13-2,.15-2.94l-.12-2.94a39.88,39.88,0,0,0-2.5-11.5c-1.72-4.46-4.73-8.53-7.75-12.52a53.71,53.71,0,0,1-4.73-7,22.45,22.45,0,0,1-1.65-4c-.44-1.33-.85-2.66-1.24-4-.24-.82-.46-1.64-.68-2.46l-.31-1.26-.13-.65a2.84,2.84,0,0,1,0-.89l.3-1.34.31-1.26.59-2.5.38-1.76.13-.67.08-.48a8.21,8.21,0,0,0,.11-1c0-.32,0-.74-.25-.95s-.37,0-.49.17a2.93,2.93,0,0,0-.36.43,6.94,6.94,0,0,0-.58,1l-.26.52-.39.88c-.26.61-.51,1.23-.75,1.85-.34.92-.66,1.85-.94,2.78-.13.46-.27.93-.38,1.39-.06.23-.13.48-.16.68s0,.32,0,.53A43.06,43.06,0,0,0,292,258c.18.83.41,1.63.62,2.45.83,3,1.14,3.91.85,4.8a3.13,3.13,0,0,1-.19.61c-.24.54-1.41-.49-2.27-2.83a36.71,36.71,0,0,1-1.53-5.28c-.19-.91-.37-1.82-.51-2.74a23.18,23.18,0,0,1-.3-2.93,2.89,2.89,0,0,1,0-.54,2.75,2.75,0,0,1,.05-.34l0-.18.18-.71c.13-.46.27-.92.41-1.37.28-.91.59-1.81.92-2.7s.7-1.78,1.09-2.66l.17-.37.3-.62c.2-.42.41-.82.63-1.22a10.49,10.49,0,0,1,1.37-2,3.26,3.26,0,0,1,1.29-.88,2.31,2.31,0,0,1,1.43,0,2.27,2.27,0,0,1,1.18,1,4.31,4.31,0,0,1,.4,2,18.25,18.25,0,0,1-.29,2.92l-.21,1.15-.16.78c-.22,1-.46,2.07-.7,3.08l-.36,1.52-.32,1.36s0,0,0,.21l.15.65Z"/><path class="cls-1" d="M283.58,253c0-.26,0-.53,0-.79v-.6l0-.3a8.79,8.79,0,0,1,.4-1.74c.31-1,.69-2,1.08-2.95.28-.7.52-1.41.84-2.09a34.31,34.31,0,0,1,4.14-6.86,10.87,10.87,0,0,1,1.34-1.39c.15-.1.28-.21.46-.32a3.15,3.15,0,0,1,.59-.27,2.12,2.12,0,0,1,1.27-.06,2.92,2.92,0,0,1,1.42.89,4.09,4.09,0,0,1,.7,1.26,6.35,6.35,0,0,1,.34,2.36c-.07,1-2.44-.1-2.79-1.35a3.65,3.65,0,0,0-.24-.6l0-.05h0v0s0,0-.06,0a2.59,2.59,0,0,0-.28.2,17.64,17.64,0,0,0-2.58,3.07,26.6,26.6,0,0,0-2.41,4.8c-.39.91-.77,1.83-1.1,2.75-.16.46-.33.93-.46,1.39a6.77,6.77,0,0,0-.27,1.25,34.41,34.41,0,0,0,.15,3.64,44.56,44.56,0,0,0,.82,5.54,30.39,30.39,0,0,0,1.31,4.05l.35.84c.41,1.06.41,1.38-.06,1.89-.11.11-.21.25-.32.35-.36.35-1,.06-1.48-.77a25.17,25.17,0,0,1-2.5-7.89,47.64,47.64,0,0,1-.68-6.24Z"/><path class="cls-1" d="M279.79,271.45a79.13,79.13,0,0,1-2.47-13.26,31.2,31.2,0,0,1-.12-5,17.36,17.36,0,0,1,.93-4.49,25.91,25.91,0,0,1,2.13-3.93c1.52-2.43,3.09-4.82,4.73-7.17a62.54,62.54,0,0,1,4.67-6.14c.17-.18.35-.37.55-.55a5.29,5.29,0,0,1,.87-.67,2.57,2.57,0,0,1,1-.38,1.79,1.79,0,0,1,1,.26,3.58,3.58,0,0,1,.9.92,4.18,4.18,0,0,1,.55,1.1,5.82,5.82,0,0,1,.28,2,5,5,0,0,1-1.65,3.64c-.49.4-.83.37-.93.16a2.32,2.32,0,0,1,0-1.09,12.33,12.33,0,0,0-.1-3.39A2.7,2.7,0,0,0,292,233l-.06-.17,0-.09h0a16,16,0,0,0-1.32,1.38c-.88,1-1.73,2.15-2.57,3.28-1.67,2.27-3.29,4.62-4.9,7-.55.81-1.08,1.65-1.59,2.5-.26.43-.51.86-.74,1.29s-.38.81-.54,1.23a16.86,16.86,0,0,0-.76,5.63,58.39,58.39,0,0,0,1.85,13q1,4,2.18,7.88c1.23,3.94,2.57,7.89,4,11.73,1.14,3,2.43,5.86,3.63,8.81.27.64.54,1.28.79,1.94.9,2.47.94,3.49.38,4.18a1.17,1.17,0,0,1-.44.38.4.4,0,0,1-.35-.09l-.16-.14a1.2,1.2,0,0,1-.16-.21,12,12,0,0,1-.89-1.85c-2.17-5.11-4.52-10.66-6.53-16.33-1.51-4.21-2.91-8.5-4.1-12.86Z"/><path class="cls-1" d="M362.39,258.3a67.69,67.69,0,0,1-2.87,8,16.84,16.84,0,0,1-1,2c-.4.67-.86,1.21-1.29,1.82a38.18,38.18,0,0,1-2.86,3.18c-1.44,1.46-2.87,2.87-4.3,4.26a61.39,61.39,0,0,0-7,7.75,34.88,34.88,0,0,0-4.83,9.1,27.57,27.57,0,0,0-1.19,4.45l-.42,2.27c-.09.76-.12,1.53-.18,2.29l-.1,1.47a9,9,0,0,0,0,1.47l.1,3c0,.49,0,1,0,1.47l.15,1.48c.09,1,.16,2,.2,3,.05,1.23-.58,1.17-1.29.2a10.79,10.79,0,0,1-1.72-5.26l-.06-3.17c0-.52,0-1.05,0-1.58l.14-1.59c.1-1.05.16-2.11.31-3.16l.64-3.14A36,36,0,0,1,340,285.83a72.46,72.46,0,0,1,10.09-11.59,53.29,53.29,0,0,0,5.58-5.92,12.24,12.24,0,0,0,1.08-1.61c.3-.56.58-1.18.85-1.8.53-1.25,1-2.54,1.46-3.83.27-.8.54-1.6.78-2.41.13-.4.25-.8.35-1.2,0-.19.1-.4.13-.55a1.1,1.1,0,0,0,0-.42c-.14-1.67-.34-3.4-.44-5.12a26.82,26.82,0,0,1,0-3.91,4.45,4.45,0,0,1,.05-.5c0-.15.05-.43.1-.64a5,5,0,0,1,.39-1.26,2,2,0,0,1,1.83-1.31c.84.11,1.37.83,1.84,1.63a15.79,15.79,0,0,1,.93,2.1c.46,1.28.84,2.56,1.18,3.84q.39,1.47.72,2.94c.11.49.21,1,.3,1.48l.13.76a5,5,0,0,1,0,.54l0,.42a42.25,42.25,0,0,1-1.32,5.91c-.25.85-.49,1.68-.8,2.53-1.18,3.12-2,4-2.92,4.26a2.2,2.2,0,0,1-.61.14c-.59-.08-.12-1.23.67-3.38.59-1.59,1.1-3.25,1.56-5,.22-.85.44-1.71.62-2.57a22.3,22.3,0,0,0,.45-2.48v-.12s0,0,0,0a7.57,7.57,0,0,0,.89-.1l.11,0c.94-.11-1.21.15-1,.13h0v-.06l0-.16-.11-.64-.26-1.3c-.18-.87-.39-1.75-.62-2.62s-.48-1.74-.76-2.58c-.14-.43-.28-.84-.44-1.25l-.23-.6-.2-.45h0v.09l0,.19a22.75,22.75,0,0,0,0,3.31c.06,1.14.17,2.3.28,3.48l.18,1.78,0,.47a4.61,4.61,0,0,1,0,.81c-.08.44-.16.7-.24,1Z"/><path class="cls-1" d="M370.05,258.18c.06-.24.09-.47.14-.71l.07-.35a.65.65,0,0,0,0-.17,7.76,7.76,0,0,0-.11-1.26,27.58,27.58,0,0,0-.61-2.86c-.18-.7-.45-1.37-.66-2.06a30.38,30.38,0,0,0-2.9-7,5.16,5.16,0,0,0-.74-.92.8.8,0,0,0-.67-.25.31.31,0,0,0-.13.06.65.65,0,0,0-.22.45l0,.24,0,.12,0,.26a11,11,0,0,1-.48,2.19c-.17.45-.76.26-1.29-.22a2.51,2.51,0,0,1-.88-2.11l.06-.37.08-.49a6.56,6.56,0,0,1,.39-1.3,2.57,2.57,0,0,1,1.77-1.54,3.6,3.6,0,0,1,1.35.07,3.78,3.78,0,0,1,1.26.68,4.45,4.45,0,0,1,.56.51l.26.27.15.19a8.61,8.61,0,0,1,.53.75,16.4,16.4,0,0,1,1.46,3.06c.65,1.79,1.45,3.54,2,5.37.3,1,.57,2,.8,3,.12.52.22,1,.3,1.58a8.49,8.49,0,0,1,.13,1.75c-.1.77-.23,1.32-.37,2s-.3,1.26-.46,1.87c-.49,1.88-1.1,3.72-1.68,5.54-.45,1.42-.79,2.85-1.29,4.27-.12.31-.2.63-.34.94-.51,1.15-.92,1.45-1.59,1.32a2.21,2.21,0,0,1-.46-.1c-.47-.21-.54-.77-.3-1.56.77-2.46,1.54-5,2.33-7.49.57-1.91,1.14-3.85,1.52-5.77Z"/><path class="cls-1" d="M371.74,276.46a73.73,73.73,0,0,0,4.36-12.26,30.2,30.2,0,0,0,.7-4.58,16,16,0,0,0-.14-3.92,24.7,24.7,0,0,0-1.34-3.82c-1.06-2.61-2.21-5.2-3.44-7.73a40,40,0,0,0-3.77-6.37l-.35-.43a2.09,2.09,0,0,0-.24-.23.69.69,0,0,0-.45-.24.76.76,0,0,0-.39.31,1.28,1.28,0,0,0-.14.21c0,.09-.12.26-.17.4a4.33,4.33,0,0,0,.29,3.68c.42.54.12,1.13-1,.84a3,3,0,0,1-1.65-1.55,4.56,4.56,0,0,1-.35-3.19,5.17,5.17,0,0,1,.68-1.61,4.28,4.28,0,0,1,1.68-1.62,2.24,2.24,0,0,1,2.12,0,4.79,4.79,0,0,1,1,.69c.15.13.29.3.44.46l.25.29a29.57,29.57,0,0,1,2.78,4.41,90.09,90.09,0,0,1,4.15,9.13c.37.93.75,1.87,1.12,2.81l.57,1.44c.16.53.34,1.08.47,1.63a18.42,18.42,0,0,1,.08,6.45,58.93,58.93,0,0,1-3.9,13c-1.05,2.56-2.18,5.08-3.36,7.56-1.78,3.78-3.72,7.48-5.59,11.16-1.44,2.86-2.78,5.72-4.12,8.57l-.86,1.88c-1.1,2.35-1.44,2.94-2.19,3.27a4.2,4.2,0,0,0-.48.3.23.23,0,0,1-.34-.06,1.17,1.17,0,0,1-.2-.68,6.19,6.19,0,0,1,.47-2.3c1-2.73,2.3-5.35,3.6-8l4-8c2-4,4-7.93,5.69-12Z"/><path class="cls-1" d="M409.3,284c-7.05,11.77-31,13.55-41.73,5.13,0,0,11.62-23.53,10.52-32.85-.78-6.54-5.43-14.85-8.53-20.63,4.36-20.06,1.17-37.89-24.84-37.68-39.37-32.42-49.37,33.81-48.54,38-1.72-6.29-4.14-4.86-4.14-4.86-1.68.42-12.84,14-14.74,21.07s7.79,33.52,7.79,33.52c-11.58,5.26-38.11,8.41-39.36-19.34C243.2,209.84,285,164.05,309,158c14.56-3.7,27.27-1,35.62,12.71C391.3,142.9,433,244.48,409.3,284Z"/><path class="cls-1" d="M261.8,205.37a120,120,0,0,0-14.63,50c-.08,1.09-.07,2.19-.12,3.28s-.1,2.19-.06,3.28c.06,2.18,0,4.4.24,6.51a30.88,30.88,0,0,0,1.24,6.22,20.9,20.9,0,0,0,2.75,5.56A17.76,17.76,0,0,0,261.29,287a31.91,31.91,0,0,0,12.67.57,43.67,43.67,0,0,0,5.43-1.15q1.33-.37,2.64-.84c.22-.07.43-.15.65-.24l.52-.2.31-.14-.74-2.13-1.1-3.25c-.71-2.18-1.41-4.36-2.06-6.56a113.08,113.08,0,0,1-3.28-13.41,35,35,0,0,1-.48-4.28,14.32,14.32,0,0,1,0-2.26,7.68,7.68,0,0,1,.21-1.21c.1-.37.21-.74.34-1.09a39.25,39.25,0,0,1,4-7.6c1.53-2.36,3.19-4.63,4.94-6.83.88-1.1,1.78-2.19,2.72-3.24.48-.53,1-1,1.48-1.56.26-.26.52-.51.82-.77.14-.13.32-.26.48-.39l.32-.2a2.35,2.35,0,0,1,.54-.23l-.31.12a2.47,2.47,0,0,1,.72-.25,2.86,2.86,0,0,1,.65,0,3.12,3.12,0,0,1,1.15.32l.46.28.19.16.06.06.15.17a3.19,3.19,0,0,1,.39.81l.07.24c0,.06.07.22,0,.08a2.46,2.46,0,0,1,0-.47l0-.47.08-.58.15-.94.25-1.53c.2-1,.38-2,.61-3a95.79,95.79,0,0,1,3.34-11.86A65.65,65.65,0,0,1,305,201.84a34.37,34.37,0,0,1,8-9.56,19.28,19.28,0,0,1,11.88-4.17,25.62,25.62,0,0,1,12,3.45c.46.25.94.47,1.37.74l1.31.84c.86.59,1.78,1.08,2.57,1.74l2.46,1.88.36.28h.43l1.55,0a35,35,0,0,1,12.21,2.44,21.17,21.17,0,0,1,6.55,4.35,20,20,0,0,1,4.28,6.62c1.95,4.91,2.21,10.22,1.85,15.32a69.19,69.19,0,0,1-1,7.61c-.11.61-.26,1.29-.37,1.83l0,.22c0,.07.06.14.09.2l.4.75,1.79,3.35c2.33,4.49,4.62,9.07,5.82,14.12a20.21,20.21,0,0,1,.41,2.37l0,1.24a7.09,7.09,0,0,1,0,1.22,33.07,33.07,0,0,1-.7,4.7,75.28,75.28,0,0,1-2.65,9q-1.55,4.39-3.37,8.67-.92,2.15-1.86,4.26l-1,2.11-.64,1.36.41.29.92.58c.7.4,1.42.77,2.16,1.1a27.18,27.18,0,0,0,4.61,1.56,37.15,37.15,0,0,0,9.76,1,38.24,38.24,0,0,0,9.7-1.5,25,25,0,0,0,8.66-4.32c3-2.44,3.69-4,3.9-3.75s-.47,2.17-2.95,4.66a26.49,26.49,0,0,1-12.8,6.46,38.87,38.87,0,0,1-9.72.93,34.09,34.09,0,0,1-10.9-2.09,24.3,24.3,0,0,1-3.11-1.44,17.13,17.13,0,0,1-1.49-.88,6.61,6.61,0,0,1-.55-.37l-.65-.47-1.29-.94,1-2.14.58-1.22,1-2.14q1-2.13,1.88-4.29c1.22-2.88,2.38-5.79,3.4-8.72a74.36,74.36,0,0,0,2.58-8.87l.39-2.22c.05-.72.17-1.47.17-2.16a16.06,16.06,0,0,0-.6-4.24,50.31,50.31,0,0,0-3.27-8.54q-1-2.1-2.1-4.18l-2.3-4.34c-.16-.35-.49-.67-.3-1.07l.2-1,.24-1.14c.13-.76.29-1.52.41-2.28.26-1.53.44-3.06.59-4.59a41.38,41.38,0,0,0-.07-9.11,24.59,24.59,0,0,0-.92-4.37,19,19,0,0,0-1.73-4,17.27,17.27,0,0,0-2.61-3.46,17.81,17.81,0,0,0-3.44-2.65,22.54,22.54,0,0,0-4-1.84A30.76,30.76,0,0,0,352.2,200a36.18,36.18,0,0,0-4.55-.5c-.76-.07-1.54-.05-2.31-.07l-1,0a5.73,5.73,0,0,1-.93-.66l-.92-.7-1.83-1.42c-.61-.48-1.28-.85-1.92-1.28s-1.28-.86-1.94-1.24l-2-1.06a23.17,23.17,0,0,0-8.56-2.55,16.27,16.27,0,0,0-8.54,1.63,22.45,22.45,0,0,0-7,5.61c-4.42,5.23-7.36,11.8-9.55,18.54a92.79,92.79,0,0,0-2.69,10.37c-.17.88-.34,1.76-.48,2.64l-.11.66-.06.35-.07.52-.27,2.07-.06,2.78c0,.19,0,.52,0,.83l0,.93.07,1.86.16,3.48c0,.26,0,.32,0,.47v1.47l-1.88-6.08-.87-2.71c-.29-1-.5-1.42-.75-2.06a3.1,3.1,0,0,0-.36-.71,3.66,3.66,0,0,0-.39-.58,1.25,1.25,0,0,0-.2-.2l-.09-.08-.17-.11a.6.6,0,0,0-.25-.07h-.13l0-.09-.09-.2,0,0h0c0-.08.32.65.17.34h0l0,0-.46-.55a2.52,2.52,0,0,0,.13.47,1.54,1.54,0,0,0,.1.19h0l-.07,0s-.14.11-.21.16a6.31,6.31,0,0,0-.5.44c-.34.31-.67.66-1,1-.66.7-1.31,1.45-1.94,2.2-1.27,1.51-2.49,3.08-3.66,4.68a53.43,53.43,0,0,0-6,10.09,9.16,9.16,0,0,0-.73,2.58,15.48,15.48,0,0,0,0,2.8,46.9,46.9,0,0,0,.92,5.8c.82,3.88,1.89,7.72,3,11.53q.9,3,1.88,5.93l1,2.95.51,1.47.87,2.43-2.24,1-.79.3c-.23.1-.47.18-.71.26-1,.34-1.92.64-2.89.9a44.35,44.35,0,0,1-5.94,1.21,34.57,34.57,0,0,1-12.12-.39A21.15,21.15,0,0,1,251,283.65a19.67,19.67,0,0,1-3.5-5.11,26,26,0,0,1-1.18-2.85c-.28-1-.62-2-.8-3a37,37,0,0,1-.79-6c-.06-2-.1-4-.11-6a117.12,117.12,0,0,1,5.84-35.14,130.51,130.51,0,0,1,14.27-29.86,119.7,119.7,0,0,1,21.43-25.17,79.85,79.85,0,0,1,10-7.6,46.25,46.25,0,0,1,11.45-5.42,45,45,0,0,1,12.53-1.82,28.53,28.53,0,0,1,12.41,2.69,26.64,26.64,0,0,1,5.4,3.42,32,32,0,0,1,4.44,4.58l1,1.25c.32.43.59.88.89,1.32l.49.74.8-.44c.91-.53,1.89-.94,2.84-1.4s2-.81,3-1.13a31.35,31.35,0,0,1,6.2-1.36,32.18,32.18,0,0,1,6.36,0,34.18,34.18,0,0,1,6.19,1.36,39.16,39.16,0,0,1,5.8,2.5,54.56,54.56,0,0,1,14.9,12.31,92,92,0,0,1,10.93,15.76,126.68,126.68,0,0,1,13.14,35.78c.57,2.76,1.05,5.51,1.41,8.28s.65,5.56.78,8.41c.52,10.56-.75,17.56-2,22.29a30.19,30.19,0,0,1-4,9.16,19.9,19.9,0,0,1-1.78,2.41c-.35.38-.37.18-.11-.53.14-.35.35-.83.62-1.43l.9-2.22a61.11,61.11,0,0,0,3.79-16.59c1-11.13-.26-22.59-3-33.73A124.16,124.16,0,0,0,398.84,197a87.57,87.57,0,0,0-10.09-14.22,52.09,52.09,0,0,0-13.24-11.06,29.43,29.43,0,0,0-16.28-4.07,28.23,28.23,0,0,0-8.27,1.8,31.68,31.68,0,0,0-3.9,1.76l-1.56.86-1,.54a3.87,3.87,0,0,1-.49.26l-.31-.47-1.89-2.87a27.35,27.35,0,0,0-9.21-8.45,25.32,25.32,0,0,0-5.85-2.2,28.61,28.61,0,0,0-6.28-.74,42.85,42.85,0,0,0-12.69,1.9,46.5,46.5,0,0,0-11.52,5.8,97.53,97.53,0,0,0-19.45,17.71,132.28,132.28,0,0,0-8,10.52q-3.72,5.49-6.91,11.3Z"/><path class="cls-1" d="M332.54,292.23a20.4,20.4,0,0,1-5.5.95,14.16,14.16,0,0,1-2.06,0c-1.25-.15-2.27-.4-3.4-.64s-2.22-.52-3.32-.84-2-.57-2.95-.91a8.56,8.56,0,0,1-3.5-1.93c-.29-.3.14-.76.75-1.06a2.33,2.33,0,0,1,2-.19,38.92,38.92,0,0,0,6.76,2.55,20.18,20.18,0,0,0,4.52.7,16.6,16.6,0,0,0,4.88-.55,21.74,21.74,0,0,0,2.94-1,23.89,23.89,0,0,0,4.19-2.27,24.45,24.45,0,0,0,2.77-2.4c.19-.19.37-.39.57-.57.74-.67,1.08-.76,1.67-.42a3.85,3.85,0,0,1,.4.24c.41.3.36.89-.13,1.5a20.73,20.73,0,0,1-5.5,4.58,26.78,26.78,0,0,1-5,2.33Z"/><path class="cls-1" d="M267.7,322.14a3.33,3.33,0,0,1-1-2.62,4.57,4.57,0,0,1,.78-2.22,11,11,0,0,1,2.62-2.68,25.62,25.62,0,0,1,6.08-3.28,34.1,34.1,0,0,1,4.72-1.51,35.7,35.7,0,0,1,17.19.31,38.41,38.41,0,0,1,7.16,2.72,26.25,26.25,0,0,1,7.87,5.77c.68.77.12,1.1-.89,1a9.33,9.33,0,0,1-3.88-1.75,33.74,33.74,0,0,0-17.14-6.57,30.83,30.83,0,0,0-11.45,1.31,30,30,0,0,0-5.9,2.39,18.63,18.63,0,0,0-2.61,1.71,7.63,7.63,0,0,0-1.94,2.15,1.53,1.53,0,0,0-.2,1.21,1.13,1.13,0,0,0,.35.47.88.88,0,0,0,.24.15s.21.07.31.11a12.57,12.57,0,0,0,3.74-.12c2-.26,4-.73,6.14-.89s4.11-.32,6.18-.36a25.16,25.16,0,0,1,9.61,1.28,15.05,15.05,0,0,1,2,.92c2.37,1.49,2.76,2.45,2.68,3.25a2.36,2.36,0,0,1-.08.56c-.11.24-.42.24-.86,0a5.22,5.22,0,0,1-.73-.44,8.46,8.46,0,0,1-1-.64,15,15,0,0,0-3.47-1.65,21.69,21.69,0,0,0-3.91-.81,46.21,46.21,0,0,0-8.47.07c-1.07.09-2.22.17-3.18.31s-2.12.35-3.22.53-2.24.35-3.44.43a11.52,11.52,0,0,1-1.94,0c-.18,0-.35,0-.55-.09l-.62-.17a5.45,5.45,0,0,1-.72-.37,6.11,6.11,0,0,1-.51-.41Z"/><path class="cls-1" d="M368.48,328.85a7.12,7.12,0,0,0,5.45-.68,3.81,3.81,0,0,0,1.53-1.83,2.39,2.39,0,0,0-.54-2.08,11.29,11.29,0,0,0-3.42-2.74,34.4,34.4,0,0,0-7.74-3.21,47.48,47.48,0,0,0-8.36-1.61,33.23,33.23,0,0,0-7.53.1,24.06,24.06,0,0,0-8.86,2.92c-.81.47-1.14-.06-.76-1.06a5.89,5.89,0,0,1,3.59-3.12,24.65,24.65,0,0,1,5.22-1.2,34.11,34.11,0,0,1,5.24-.24,43.47,43.47,0,0,1,10.27,1.55c2,.56,4,1.16,6,1.92a25.73,25.73,0,0,1,5.78,3,10.46,10.46,0,0,1,2.67,2.68,5.47,5.47,0,0,1,.79,2,6.05,6.05,0,0,1,0,1.13,7.78,7.78,0,0,1-.28,1.08,7.32,7.32,0,0,1-6.35,4,18.68,18.68,0,0,1-8.49-2c-2-.92-3.78-1.95-5.71-2.73a25,25,0,0,0-5.92-1.7,17.91,17.91,0,0,0-4.68-.1,23.91,23.91,0,0,0-4.57.93c-.66.18-1.29.42-2,.65-2.43.86-3.24,1.09-4,.71a3.15,3.15,0,0,1-.52-.26c-.43-.34.39-1.18,2.21-2a25.89,25.89,0,0,1,8.93-2.42,23.63,23.63,0,0,1,9.58,1.32,47.42,47.42,0,0,1,6.42,2.85,23.49,23.49,0,0,0,6,2.17Z"/><path class="cls-1" d="M309.2,351q-2.18,9.39-4.58,18.73c-.58,2.27-1.1,4.56-1.72,6.82-2.17,8-4.53,15.9-7.21,23.73-1.2,3.48-2.42,7-3.77,10.37-.88,2.18-1.8,4.36-2.91,6.48a18.45,18.45,0,0,1-4.39,5.83c-.64.5-1.07.52-1.16.31s.05-.67.29-1.28a56.41,56.41,0,0,1,2.54-5.4,98.48,98.48,0,0,0,5.6-12.83c1.65-4.44,3.17-8.94,4.68-13.49,1.8-5.44,3.24-11.23,4.72-16.91q2.43-9.36,4.65-18.79,1.37-5.8,2.63-11.62.89-4.14,1.76-8.28l.84-4.14c.32-1.66.63-3.33.94-5,.05-.28.12-.49.18-.72a1.55,1.55,0,0,1,.22-.55,2.27,2.27,0,0,1,.18-.28l.18-.16h0c0-.06.12.56.07.29H313l.05,0,.11.08.24.15c.16.12.36.12.58.31a6.84,6.84,0,0,1,.71,1l.72,1.05c.25.34.53.72.67.89.34.45.7.88,1.06,1.3a16.39,16.39,0,0,0,5,4.07,6.28,6.28,0,0,0,2.48.61,6.49,6.49,0,0,0,3.16-.88,4.78,4.78,0,0,1,1.68-.59,3.44,3.44,0,0,1,.68-.09c.3,0,.29.41-.11,1.05a6.13,6.13,0,0,1-2.7,2.28,6.8,6.8,0,0,1-2.91.59,8,8,0,0,1-2.89-.62,14.44,14.44,0,0,1-4.58-3.15,24.76,24.76,0,0,1-1.85-2q-.43-.51-.84-1l-.2-.27-.09-.11h0s0,0,0,0v0h0l-.11.59c-.17.86-.34,1.72-.5,2.59-1.24,6.35-2.62,12.7-4,19Z"/><path class="cls-1" d="M337.59,382.65Q336,376,334.85,369.2c-.32-1.64-.61-3.28-.83-4.93l-.58-4.37-.41-4.39c-.32-2.92-.41-5.86-.58-8.79l-.11-2-.06-2c0-1.3-.09-2.6-.14-3.89l-.1-2.49v-2.5c0-1.67.09-3.33.26-5,.22-2.06,2.47.68,2.39,4.43-.14,3.33,0,6.67,0,10,0,1.68.14,3.35.18,5s.06,3.37.21,5.05c.13,2,.34,4.07.57,6.13s.63,4.11.94,6.16c.72,4.49,1.56,9,2.57,13.41.27,1.38.66,2.73,1,4.09s.66,2.73,1.07,4.07c1.16,4.08,2.37,8.18,3.86,12.13,1.13,3.08,2.49,6,3.86,8.92.31.63.62,1.26.94,1.89,1.15,2.4,1.41,3.17,1.12,4a3.52,3.52,0,0,1-.2.55c-.28.49-1.25-.3-2.23-2a95.52,95.52,0,0,1-7.21-16.8l-1.08-3.29-1-3.32c-.67-2.22-1.22-4.46-1.8-6.7Z"/><path class="cls-1" d="M385.43,368.94q-1.73-4.5-3.67-8.93c-.45-1.09-1-2.12-1.5-3.19-1.69-3.78-3.45-7.54-5.36-11.22-.84-1.64-1.78-3.23-2.74-4.78-1.24-2-2.62-3.89-3.71-6-.68-1.3,2.27-1.09,3.8,1.24A91.73,91.73,0,0,1,379.11,349c1.17,2.68,2.62,5.34,3.86,8,1.36,3,2.64,6,3.87,9,.75,1.87,1.47,3.76,2.18,5.64,1.05,2.87,2,5.78,2.94,8.68.72,2.26,1.48,4.46,2,6.78.11.51.24,1,.34,1.53.29,2,.09,2.65-.5,3.06a2.49,2.49,0,0,1-.41.28c-.49.17-1-.58-1.19-1.88a113.91,113.91,0,0,0-3.5-12.08l-.77-2.29-.84-2.28c-.53-1.52-1.14-3-1.74-4.53Z"/><path class="cls-1" d="M253.07,368.54c1.78-3.51,3.64-7,5.51-10.43.68-1.26,1.31-2.54,2-3.8,2.44-4.41,4.95-8.78,7.34-13.2,1.08-2,2-4,3-6,1.12-2.58,2.25-5.22,3.17-7.74.32-.78.91-.58,1.27.3a4.8,4.8,0,0,1,.33,1.79,6.81,6.81,0,0,1-.48,2.28A119.62,119.62,0,0,1,267,347.41c-1.81,3-3.43,6.29-5.13,9.45-1.88,3.46-3.74,6.94-5.55,10.44q-1.67,3.22-3.24,6.5l-2.32,5c-.71,1.69-1.45,3.36-2.1,5.06-.48,1.32-.92,2.65-1.35,4s-.73,2.68-1.11,4c-.15.59-.32,1.17-.43,1.77-.49,2.21-.82,2.87-1.56,3.22a2.52,2.52,0,0,1-.51.23c-.54.13-.72-.88-.45-2.59a65,65,0,0,1,4.7-15.11c1.53-3.68,3.27-7.27,5-10.83Z"/><path class="cls-1" d="M242.31,342q3.06-6,6.49-11.82c.83-1.41,1.63-2.85,2.52-4.23a92.33,92.33,0,0,1,10.6-13.8,47.16,47.16,0,0,1,5.8-5.22,21.06,21.06,0,0,1,4.39-2.57,11.12,11.12,0,0,1,5.1-.94c1.11.1.86.71,0,1.31a16.05,16.05,0,0,1-3.65,1.88,24.78,24.78,0,0,0-7.72,5.06,70.4,70.4,0,0,0-6.68,7.09,84.35,84.35,0,0,0-6.83,10q-3.5,5.72-6.6,11.68c-1.27,2.45-2.51,4.92-3.7,7.41-1.79,3.77-3.54,7.6-5.1,11.44-1.22,3-2.24,6-3.28,9l-.67,2c-.88,2.47-1.3,3.19-2.1,3.51a2.55,2.55,0,0,1-.54.2c-.55.08-.58-1.08-.05-2.94a141.9,141.9,0,0,1,6.19-16.78c1.78-4.14,3.72-8.25,5.74-12.31Z"/><path class="cls-1" d="M404,366c-1.78-5.85-3.7-11.67-5.82-17.41-.77-2.1-1.63-4.15-2.45-6.23a155.3,155.3,0,0,0-10-21.27,59.9,59.9,0,0,0-6-8.46,29.1,29.1,0,0,0-10.08-7.9c-1.2-.46-.95-1,.4-1.24a8.76,8.76,0,0,1,6,2,43.23,43.23,0,0,1,9.38,10.6,92.29,92.29,0,0,1,6.68,12.22c2.32,5,4.73,10.27,6.79,15.54,2.25,5.8,4.28,11.67,6.17,17.58q1.74,5.46,3.34,11c1.62,5.55,3.09,11.16,4.55,16.71,1.13,4.32,2.3,8.53,3.35,12.82.23.95.47,1.87.68,2.83.76,3.56.79,4.74.3,5.62a3.42,3.42,0,0,1-.34.58c-.44.42-1.08-1-1.72-3.52-1.94-7.59-3.95-15.6-6.11-23.61-1.62-5.95-3.3-11.91-5.15-17.8Z"/><path class="cls-1" d="M334,363.27c-5.31,9-25,6.67-27.72-3.32l3.52-12.11s10.58,16.58,23.16,1.58Z"/><path class="cls-1" d="M314.47,354.66a21.14,21.14,0,0,1-3.1-2.7c-.24-.25-.46-.5-.69-.75l-.07-.12-.2-.31c0-.08,0,0-.05,0l0,.11-.1.25,0,.07,0,0-.05.17-.21.69-.42,1.37-1.38,4.69-.33,1-.16.51-.06.18a.7.7,0,0,0,0,.14,4.43,4.43,0,0,0,.14.44,9.19,9.19,0,0,0,.38.85,9.75,9.75,0,0,0,2.45,3,16.84,16.84,0,0,0,7.35,3.32,18.78,18.78,0,0,0,7.28,0,13.39,13.39,0,0,0,7.73-4.31c.56-.69,1.08-.35,1.08.74a5.28,5.28,0,0,1-2.68,4,18.48,18.48,0,0,1-10.5,2.29,20.38,20.38,0,0,1-10.11-3.21,13.88,13.88,0,0,1-4.6-4.78,9.22,9.22,0,0,1-.69-1.58l-.2-.6a1.58,1.58,0,0,1-.09-.31l.09-.31.28-.93.87-3,1.28-4.18.86-2.81.5-1.67.25-.83.12-.41,0-.1,0-.05.07-.1c.81,1.21,1.6,2.48,2.39,3.43.19.22.43.52.57.67l.39.43c.26.27.52.55.79.81a13.87,13.87,0,0,0,6.72,3.81,9.69,9.69,0,0,0,5.71-.66,11,11,0,0,0,1.32-.68,11.7,11.7,0,0,0,1.25-.82c.42-.28.79-.63,1.18-.95a7,7,0,0,0,.73-.69l.8-.84c.77-.78,1.46-1.63,2.19-2.47.33,3,.66,6,1,9l.24,2.09c.24,2.62.14,3.47-.46,4.08a2.6,2.6,0,0,1-.4.41c-.48.29-1-.75-1.26-2.66s-.51-3.64-.72-5.49c-.1-.83-.24-2.28-.23-1.93,0,0,0-.05-.07,0s0,.08,0,.09l-.53.46c-.23.19-.44.4-.69.58a18.2,18.2,0,0,1-1.51,1,12.52,12.52,0,0,1-7.34,2,13.74,13.74,0,0,1-7.09-2.59Z"/><path class="cls-1" d="M340,392c-11.18,10.68-30.7,7.84-40.81-2.27l3.64-12.37c.05,0,8.26,7.89,18.05,6.31a34.29,34.29,0,0,0,15.47-6.31Z"/><path class="cls-1" d="M310,383.61a28.33,28.33,0,0,1-3.89-2.07c-.61-.39-1.21-.81-1.8-1.24l-.4-.3-.06-.06-.13-.12-.07-.07,0,0v0l-.06.16-.07.18-.28.91-1.24,4-.86,2.92-.37,1.26-.05.17.14.14.8.75a8.6,8.6,0,0,0,1,.83,25.73,25.73,0,0,0,2.08,1.52,31.74,31.74,0,0,0,4.54,2.5,32.57,32.57,0,0,0,10,2.71,26.57,26.57,0,0,0,19.55-5.85c1-.72,1.32-.2.89,1a8,8,0,0,1-1.26,2.09,14,14,0,0,1-1.17,1.09,6.79,6.79,0,0,1-1.47,1,27.66,27.66,0,0,1-12.63,3.24A32.81,32.81,0,0,1,310.39,398c-1.18-.54-2.42-1-3.57-1.61-.58-.3-1.17-.58-1.75-.91l-1.69-1a16.47,16.47,0,0,1-1.64-1.13c-.52-.41-1.09-.76-1.58-1.22l-1.79-1.63-.3-.27-.14-.14.05-.19.23-.77.36-1.2,2.47-8.05.41-1.35.25-.81a2.67,2.67,0,0,1,.3-.61l.31-.56.16-.28c.06,0,.16.08.24.11l.56.31a3.94,3.94,0,0,1,.61.38c.44.32.87.65,1.31,1s.56.42.85.63c.55.4,1.12.76,1.7,1.12a21.65,21.65,0,0,0,9.34,3.23c.62.06,1.24,0,1.87,0s1.24-.11,1.86-.17c1.27-.21,2.53-.45,3.77-.78a35.38,35.38,0,0,0,7.16-2.73c.72-.38,1.43-.79,2.11-1.23l.65-.43.76-.54c.5-.39,1-.81,1.53-1.23,0,0,0,0,.07.07l0,.15.08.31.17.63.35,1.26.56,2.06.95,3.38.72,2.52c.83,3.18.93,4.23.47,5.07a2.93,2.93,0,0,1-.31.56c-.4.43-1.12-.77-1.85-3.07-.57-1.82-1.12-3.68-1.66-5.56-.27-.94-.53-1.88-.8-2.83-.18-.68-.14-.45-.17-.53s0,0,0,0l-.05.06v0h0l-.06,0-.29.18c-.78.48-1.58.94-2.39,1.35a36.32,36.32,0,0,1-5.08,2.12,38.31,38.31,0,0,1-4.23,1.16c-.72.15-1.44.27-2.16.4s-1.54.19-2.31.19a21.62,21.62,0,0,1-8.86-1.82Z"/><path class="cls-1" d="M338.11,290.78c0,1.52-6.29,12.22-15.71,11.22-6.1-.65-8-6.7-7.63-12.05C324.88,296.55,332.84,292.45,338.11,290.78Z"/><path class="cls-1" d="M316.35,292.58c-.1-.13-.1,0-.12.06a.65.65,0,0,0,0,.16v.06l0,.27,0,.52a10.59,10.59,0,0,0,1.24,3.93,6.91,6.91,0,0,0,1.93,2.09,6.51,6.51,0,0,0,2.28,1.05,7,7,0,0,0,1.31.2,8.83,8.83,0,0,0,1.36,0,11.29,11.29,0,0,0,5.28-1.52,15.58,15.58,0,0,0,3.9-3.2,29.14,29.14,0,0,0,3.6-5.24c.07-.14.09-.12.2-.17a1,1,0,0,1,.32-.05.82.82,0,0,1,.72.6,3.77,3.77,0,0,1-.45,3.41,21.07,21.07,0,0,1-5.07,5.42,14.6,14.6,0,0,1-7,2.9,16.32,16.32,0,0,1-4.67-.17,8.32,8.32,0,0,1-4.28-2.27,10.55,10.55,0,0,1-2.55-4.49,16,16,0,0,1-.49-2.46l-.06-.62,0-.89a14.5,14.5,0,0,1,0-1.75l0-1.06,0-.53v-.26c0-.07,0,0,.07,0l.12.07,1.86,1.06.92.54c.32.19.71.36.85.44.42.2.82.45,1.26.61a17.51,17.51,0,0,0,8.19,1.51,22.27,22.27,0,0,0,6.26-1.55l1.34-.53c1.7-.63,2.34-.68,2.91-.19a2.5,2.5,0,0,1,.38.33c.31.43-.25,1-1.46,1.61a29.18,29.18,0,0,1-5.92,2.16,19.9,19.9,0,0,1-6.73.45,21.2,21.2,0,0,1-2.51-.42,22.85,22.85,0,0,1-2.43-.77l-1.17-.47-1.13-.55-.28-.14c-.06,0,0,0,0,0l0,0-.05-.05Z"/><path class="cls-1" d="M67,395.66q.09,3.6.3,7.21c0,.87.17,1.74.22,2.62.17,3.09.34,6.19.57,9.28.11,1.37.28,2.74.47,4.09a29.7,29.7,0,0,1,.58,5.24c0,1.1-2.5,0-2.75-2a91.77,91.77,0,0,1-.8-10.78c0-2.17-.34-4.4-.5-6.61q-.24-3.65-.4-7.31l-.16-4.5c-.08-2.27-.06-4.56-.1-6.83,0-1.76-.13-3.49-.1-5.26,0-.39,0-.77,0-1.16.12-1.45.36-1.89,1-2.1a2.69,2.69,0,0,1,.46-.14c.51-.06.82.57.84,1.6,0,3.08.09,6.23.13,9.43.06,2.39.1,4.81.23,7.23Z"/><path class="cls-1" d="M170.65,396.66l0,7c0,.85.07,1.69.06,2.54l-.12,9c0,1.32.05,2.65.12,4a27.68,27.68,0,0,1,.09,5.07c-.13,1.05-2.48-.23-2.55-2.17a97.09,97.09,0,0,1,.12-10.37c.14-2.09,0-4.25,0-6.37l0-7,0-4.32c0-2.18-.05-4.37-.17-6.53-.11-1.67-.34-3.31-.55-5l-.15-1.08a4,4,0,0,1,0-1.41,1.26,1.26,0,0,1,.55-.68,3.69,3.69,0,0,1,.4-.29.51.51,0,0,1,.68.15,2.69,2.69,0,0,1,.54,1.19,52.41,52.41,0,0,1,1,9.28c.1,2.34.12,4.69.17,7Z"/><path class="cls-1" d="M93.18,377.65c6,.25,12.13.33,18.2.35,2.22,0,4.43-.08,6.65-.08q11.72,0,23.44-.3c3.47-.08,6.95-.26,10.39-.45,4.42-.25,8.83-.65,13.28-.62,2.76,0-.63,2.51-5.72,2.8-9,.49-18.07.77-27.19.72-5.46,0-11.13.21-16.71.25-6.14,0-12.28,0-18.42-.17-3.78-.14-7.56-.21-11.33-.45l-4.29-.24-4.3-.38L75,378.89l-2.14-.28-2.13-.28-1.06-.13c-.38-.08-.79-.22-1.18-.33l-3.7-1.08c-.13-.05-.39-.06-.3-.23a1.48,1.48,0,0,1,.15-.31,4.72,4.72,0,0,1,.44-.59,8.16,8.16,0,0,1,1.7-1.3l3.22-2,2.81-1.68c.82-.49,1.63-1,2.47-1.46,3.13-1.76,4.22-2.16,5.2-2a3.4,3.4,0,0,1,.66.15c.53.27-.56,1.32-2.8,2.7l-5,3.07-2.56,1.55-1.28.78-.15.09,0,0,0,0,0,0s0,0,0,.05-.06,0,.07,0l.51.08,5.1.65c6,.57,12.13,1,18.24,1.1Z"/><path class="cls-1" d="M186.5,374.23c-1.34.43-2.69.82-4.05,1.21-.49.15-1,.34-1.46.48-1.77.44-3.55.81-5.33,1.15-.79.14-1.57.35-2.34.56a8.92,8.92,0,0,1-3,.55c-.65-.05-.23-2.48.87-2.7,2-.42,4-.78,6-1a21.73,21.73,0,0,0,3.64-1q2-.57,4-1.2c.82-.27,1.63-.53,2.44-.82,1.23-.44,2.47-.86,3.66-1.38.92-.4,1.77-.93,2.65-1.41.19-.1.38-.23.58-.32.74-.35,1.05-.3,1.45.23a4.22,4.22,0,0,1,.27.36,1,1,0,0,1-.4,1.3,23.3,23.3,0,0,1-4.94,2.55c-1.31.53-2.65,1-4,1.48Z"/><path class="cls-1" d="M198.48,403.19c0-2.62,0-5.25,0-7.88,0-1-.12-1.92-.14-2.87-.07-3.38-.16-6.77-.36-10.15-.09-1.5-.26-3-.45-4.48a10.23,10.23,0,0,0-2-4.68.41.41,0,0,1,.07-.58,1.2,1.2,0,0,1,.88-.32,3,3,0,0,1,2.58,1.66,9.44,9.44,0,0,1,1,3.37c.09,1,.17,2,.23,2.95q.18,3,.17,5.94c0,2.38.25,4.84.32,7.26.09,2.67.11,5.34.12,8l0,4.92c0,2.49-.08,5-.12,7.45,0,1.92.1,3.8.12,5.7,0,.42,0,.83,0,1.25,0,1.57-.23,2.06-.89,2.35a3,3,0,0,1-.45.2c-.5.12-.87-.54-1-1.68-.26-3.38-.21-6.91-.18-10.47,0-2.64.06-5.29,0-7.94Z"/><path class="cls-1" d="M112.39,357.4c-.15,3.77-.24,7.54-.18,11.3v.53l0,.82.08,1.64,0,.82,0,.41v.3h-.1l-1.8-.25-7.89-1.19-7.24-1.17L89,369.56a46.42,46.42,0,0,1-8.13-1.84c-1.62-.6,1.08-2.24,4.12-1.58,5.42,1.19,10.91,2.11,16.48,3.16,1.67.32,3.38.55,5.11.78l2.6.32.51.07.22,0h.06v-.24l0-1.8,0-2.88c0-1.92,0-3.84.08-5.76.06-2.35.16-4.71.25-7.06.17-3.56.34-7.13.51-10.66.11-2.75.08-5.44.11-8.16,0-.59,0-1.18,0-1.78.07-2.23.26-2.93.93-3.38a2.35,2.35,0,0,1,.45-.3c.5-.19.87.74.94,2.38.2,4.87,0,10-.23,15.1-.16,3.8-.36,7.62-.45,11.42Z"/><path class="cls-1" d="M82,346.35c-.1,1.52-.18,3-.21,4.58,0,.56,0,1.12,0,1.68,0,2-.07,3.95,0,5.93a23,23,0,0,0,.24,2.62,13,13,0,0,1,.3,3.35c-.09.71-2.49.08-2.64-1.22a35.22,35.22,0,0,1-.19-7c.12-1.4-.06-2.85-.06-4.28s0-3.14.13-4.71l.17-2.89.33-4.38c.08-1.13,0-2.25.08-3.38a6.1,6.1,0,0,1,0-.74c.11-.93.31-1.2,1-1.28a3.44,3.44,0,0,1,.45-.05c.5,0,.84.44.89,1.1a51.36,51.36,0,0,1-.17,6.05c-.1,1.52-.21,3.05-.27,4.59Z"/><path class="cls-1" d="M174.21,367.85c-5.05.67-10.09,1.13-15.13,1.58l-5.5.51c-6.48.48-13,.84-19.44,1.25-2.87.18-5.76.43-8.6.7l-5.47.57c-1.81.19-3.68.33-5.39.48-1,.1-1.15-.49-.28-1.27a8.89,8.89,0,0,1,4.76-1.77c7.5-.72,15-1.15,22.52-1.44,4.51-.17,9.18-.67,13.78-1.06,5.06-.42,10.11-.88,15.14-1.48,1.55-.18,3.09-.37,4.63-.61.76-.12,1.54-.22,2.3-.36l2-.37c.14,0,.35,0,.42-.12l0-.46-.09-1.56c-.06-1.19-.09-2.38-.12-3.57l-.09-7.11c0-3.66-.18-7.25-.2-10.87,0-.8,0-1.58,0-2.39.06-3,.31-4,1-4.55a2.14,2.14,0,0,1,.48-.37c.52-.17.76,1,.82,3.14.17,6.41.19,13.22.31,20l.1,3.78.09,1.88,0,.93v.23l0,.46.09.94.09.94,0,.47c.05.1-.09.07-.15.1l-.23.05-1.85.36-2.22.44c-1.28.22-2.55.4-3.83.6Z"/><path class="cls-1" d="M173.48,331.73c1.39-.26,2.77-.55,4.12-.9.66-.17,1.32-.36,1.93-.58a8.81,8.81,0,0,0,.83-.34l.17-.09.05-.06.19-.43a3.35,3.35,0,0,0,.19-.53,6.85,6.85,0,0,0,.29-1.1,8.19,8.19,0,0,0,.12-2.27,10.73,10.73,0,0,0-.46-2.28c-.12-.38-.26-.75-.41-1.12-.08-.19-.16-.37-.25-.55l-.09-.18,0-.12H180l-.13,0-.58.06-7.78,1q-13.73,1.59-27.49,3l-12.2,1.32c-2.6.28-5.2.57-7.81.78a46,46,0,0,1-8,.12,2.45,2.45,0,0,1-1-.34c-.24-.16-.28-.3-.2-.39a1.16,1.16,0,0,1,.49-.25c.21-.06.5-.22.84-.32a26.13,26.13,0,0,1,6.75-1.38c10.53-.82,21.11-2,31.79-2.93,6.39-.57,13-1.51,19.52-2.3l3.55-.43,1.78-.22.7-.08a3.4,3.4,0,0,1,.63.15l.29.08.06,0h0l.08-.16h0l.11.1a2.39,2.39,0,0,1,.43.5c.15.3.35.67.47.92s.19.42.29.64c.18.43.35.88.49,1.33a12.54,12.54,0,0,1,.57,2.8,10.38,10.38,0,0,1-.14,2.89,7.79,7.79,0,0,1-.36,1.4,5.49,5.49,0,0,1-.24.68l-.31.72a2.43,2.43,0,0,1-1.08,1,7,7,0,0,1-1,.46c-.66.25-1.31.45-2,.63a117,117,0,0,1-13.22,2.43c-6.69.91-13.44,1.53-20.12,2-5.2.35-10.3.7-15.48.64-1.15,0-2.27,0-3.43-.11-4.28-.31-5.68-.93-6.39-1.77a3.43,3.43,0,0,1-.45-.59c-.19-.61,1.44-.38,4.43-.14a123.25,123.25,0,0,0,13.87,0c4.73-.2,9.53-.54,14.34-1,7.13-.67,14.32-1.5,21.33-2.84Z"/><path class="cls-1" d="M85,320.43s0,0,0,.07a1.85,1.85,0,0,0,.34.16l.11,0,.37.09.74.16,1.48.33c.94.21,1.89.35,2.83.56l9.91,2.29c1.47.33,3,.59,4.43.83a37.4,37.4,0,0,1,5.65,1.12c1.14.39-.79,2.38-3,2-3.85-.7-7.67-1.54-11.48-2.61-2.28-.64-4.72-1-7.08-1.51l-9.49-2-.16,0a3,3,0,0,1-.88-.44l-.69-.4-.36-.2c-.06,0-.13-.05-.16-.1s.07-.14.11-.19a5.1,5.1,0,0,1,.66-.47,8.32,8.32,0,0,1,1.61-.74c.76-.24,1.66-.46,2.52-.67l4.33-1c1.86-.47,3.65-1.05,5.47-1.57.4-.12.78-.25,1.19-.35,1.51-.38,2-.33,2.49.22a2.59,2.59,0,0,1,.31.38c.26.45-.27,1-1.35,1.38-1.6.58-3.26,1.08-5,1.54l-2.56.67-2,.49h-.09l-.16,0c-.06,0,0,0,0,0Z"/><path class="cls-1" d="M88.88,335.3c-1.78-.44-3.56-.91-5.34-1.43-.65-.19-1.32-.32-2-.55a22.72,22.72,0,0,1-2.17-.86,8.81,8.81,0,0,1-1.12-.6,3.22,3.22,0,0,1-1.15-1.19l-.26-.74a6,6,0,0,1-.18-.7,11.56,11.56,0,0,1-.21-1.4,18.45,18.45,0,0,1,0-3.33,9.47,9.47,0,0,1,1.12-4c.25-.4.78-.06,1.21.48a2.38,2.38,0,0,1,.61,1.94,18.56,18.56,0,0,0-.6,3.47,10.43,10.43,0,0,0,0,1.68c0,.29.07.55.1.83s.06.27.09.4a1.2,1.2,0,0,1,.07.33.09.09,0,0,0,0,0,.19.19,0,0,0,.08.16,2.63,2.63,0,0,0,.39.26,6,6,0,0,0,1,.46c.73.28,1.53.5,2.3.74,1.71.53,3.47,1,5.24,1.43,1.09.27,2.19.53,3.29.76,1.66.35,3.34.72,5,1,1.3.19,2.6.22,3.9.31.29,0,.57,0,.86,0,1.06.12,1.37.32,1.51,1a3.58,3.58,0,0,1,.09.45c0,.51-.46.85-1.26.88a35.58,35.58,0,0,1-7.28-.65c-1.81-.3-3.63-.7-5.44-1.09Z"/><path class="cls-1" d="M147,301.16l-.09-4.82c0-.58-.09-1.16-.09-1.75,0-2.07,0-4.15.09-6.23,0-.92,0-1.84,0-2.76a11.62,11.62,0,0,1,.11-3.53c.18-.72,2.47.31,2.45,1.61,0,2.34-.07,4.67-.3,7.06a37.62,37.62,0,0,0,.08,4.37l.13,4.84.09,3c.06,1.51.07,3,.17,4.52.08,1.16.28,2.3.41,3.45a6.89,6.89,0,0,1,.1.76c0,1-.11,1.26-.75,1.47-.15,0-.29.1-.44.13-.49.09-.9-.29-1.06-1a40.22,40.22,0,0,1-.7-6.3l-.21-4.82Z"/><path class="cls-1" d="M160,286.44c-2.36-.89-4.62-1.76-6.82-2.73-1.11-.49-2.2-1-3.31-1.54l-1.67-.81-.21-.11c-.06,0-.18-.08-.15-.08s0-.05-.07-.06l-.73.07c-2,.18-3.9.42-5.86.57-6.88.52-13.76.95-20.65,1.38-3,.18-6.12.43-9.15.66a93.94,93.94,0,0,1-11.75.5c-1.23-.06-1-.68,0-1.3a11.49,11.49,0,0,1,5.09-1.36c7.91-.43,15.84-.95,23.86-1.27,4.79-.2,9.76-.74,14.65-1.17l4-.36.69-.07.21,0,.19.08.39.18,1,.52,1.92,1c2.55,1.3,5.09,2.67,7.55,4l4.48,2.47,1.11.61.55.29.27.15c.07,0,0,.08,0,.12l0,.15c-.12.8-.2,1.62-.28,2.44-.44,5-.72,10-.88,15,0,1,0,1.93-.05,2.89v3.71c0,.05,0,.1,0,.14l-.13,0-.53.1-1.07.21-1.51.3-2.82.56-2.48.5c-3.11.56-4.13.57-4.9.05a3.15,3.15,0,0,1-.52-.36c-.38-.44.82-1.05,3.08-1.58q2.52-.58,5.1-1.12l2.6-.52.65-.13.12,0h0s0,0,0-.07v-.56l0-1.35.06-2.72c.07-1.81.14-3.63.2-5.45q.18-4.05.49-8.14c.11-1.36.23-2.71.42-4.13.2-.46-.29-.46-.56-.6l-.91-.35-1.82-.68Z"/><path class="cls-1" d="M117.87,317.25c-3.91-.08-7.82-.23-11.72-.42l-2.14-.08-1.07,0-.56,0a5.45,5.45,0,0,1-.92-.07c-1.11,0-1.49-1.37-1.69-2.25-.13-.67-.23-1.31-.31-1.95-.16-1.27-.27-2.53-.37-3.79-.19-2.52-.33-5-.45-7.53-.1-2.23-.26-4.46-.4-6.67a48.22,48.22,0,0,1-.13-8.59c.06-.46.3-.75.53-.66a2.15,2.15,0,0,1,.77.72,6.66,6.66,0,0,1,1.2,3.69c.2,5.74.41,11.47.62,17.28a51.13,51.13,0,0,0,.48,5.22c.07.43.14.86.22,1.27l.13.57a1.41,1.41,0,0,0,.06.22c0,.06,0,.14.12.16h.21l1.15.07c3.9.2,7.81.36,11.73.45,2.41.05,4.82.09,7.22.08,3.65,0,7.32,0,10.93-.24,2.81-.15,5.56-.49,8.32-.81l1.81-.23c2.27-.24,3-.16,3.56.44a2.28,2.28,0,0,1,.37.4c.27.47-.62,1-2.29,1.28a109.94,109.94,0,0,1-15.54,1.44c-3.94.14-7.89.14-11.84.12Z"/><path class="cls-1" d="M85.09,395.31l-15.67-.7-.45,0H68.8c-.08,0,0,.2,0,.3l.23,3.85.23,3.7v.22a1,1,0,0,0,.23.05l1.59.29c.91.14,1.87.19,2.79.28s1.87.18,2.82.2c1.89.07,3.77.2,5.67.25,13.38.43,26.82.26,40.24-.12,6-.16,11.94-.46,17.84-.8q5.69-.36,11.38-.79c3.78-.27,7.59-.54,11.31-.87,2.25-.25,2.16.38.23,1.29a22.31,22.31,0,0,1-4.07,1.27,44.29,44.29,0,0,1-5.91.85c-7.77.57-15.53.95-23.31,1.22s-15.58.43-23.42.41c-9.38,0-19.13.2-28.75-.29-1.33-.06-2.65-.13-4-.27a40,40,0,0,1-4-.48l-2.7-.48c-.19,0-.16-.14-.17-.28l0-.4,0-.8-.08-1.24L66.62,398l-.29-4.54,0-.78c0-.23-.16-.64.23-.51l1.57,0,2.38.1,7.89.36q9.7.42,19.41.67c9.8.24,19.66.4,29.39.22,7.56-.17,15-.51,22.4-1.11,1.65-.1,3.24-.3,4.89-.44s2.8-.23,3.86-.3,1.92-.16,2.63-.19a7.87,7.87,0,0,1,2.95.31,6.51,6.51,0,0,1,.93.33c.65.43-1.8,1.12-6.3,1.78A344.71,344.71,0,0,1,116.78,396c-10.54,0-21.12-.26-31.68-.62Z"/><path class="cls-1" d="M179.4,391.68q-2.88.7-5.8,1.24l-.73.13-.32.05-.27,0-.13,0v.07c0-.15,0,1.24-.06,2.14v3.57l0,.26s0,0,0,.06h.18l.33-.06.2,0,.33-.07,3.66-.81q3.66-.84,7.28-1.78c2.15-.56,4.27-1.23,6.34-2,1.32-.48,2.63-1,3.92-1.52a36.3,36.3,0,0,0,3.63-1.68c.6-.35,1.08.05.81,1a5.14,5.14,0,0,1-3,2.9,70.23,70.23,0,0,1-8.4,2.82c-2.82.78-5.67,1.45-8.55,2-1.72.34-3.46.76-5.21,1.18l-1.89.45-1.08.26-.55.13c-.16,0-.45.19-.37-.1,0-1.35,0-2.69,0-4l.09-6.7v-.08h.07l.14,0,.27-.05.54-.09,1.07-.19,1.58-.29c1-.18,1.91-.38,2.86-.59,2.34-.52,4.67-1.12,7-1.8a98.55,98.55,0,0,0,10.29-3.59c.65-.28,1.29-.56,1.91-.86l2.46-1.19,1.47-.73c.11,0,.27-.16.35-.15V382l0,.79.1,3.08c0,.61.07,1.21.08,1.84.05,2.29-.11,3-.75,3.52a2.47,2.47,0,0,1-.43.33c-.5.22-.91-.71-1.06-2.4l-.15-1.88-.12-1.76a.61.61,0,0,0-.09-.17s0,0-.07,0l-.06.06,0,0-.83.39-1.83.81c-1.23.51-2.48,1-3.73,1.48a112.77,112.77,0,0,1-11.43,3.54Z"/><path class="cls-2" d="M93.61,334.5V322.65a9.59,9.59,0,0,0-2.83,0V334.5A12.18,12.18,0,0,0,93.61,334.5Z"/><path class="cls-2" d="M95.22,369c-.33-5.76-.63-11.52-.85-17.27-.11-2.88-.2-5.76-.25-8.63s-.09-5.76.09-8.51c.05-.37-2.8-.65-2.81-.23-.2,3-.15,5.88-.11,8.79s.15,5.8.26,8.69c.22,5.78.52,11.55.85,17.32C92.41,369.42,95.25,369.26,95.22,369Z"/><path class="cls-3" d="M150.82,323.37c-.15.68,0,12.75,0,12.75"/><path class="cls-2" d="M152.17,368c0-10.6-.76-21.13-.89-31.61,0-.36-2.85-.33-2.82,0,.13,10.6.88,21.11.88,31.59C149.34,368.28,152.17,368.28,152.17,368Z"/><path class="cls-3" d="M124.46,282c0,10.62-2.06,22.93-.11,33.42"/><path class="cls-1" d="M127.48,301.06l-6.13-.11c-.74,0-1.48.05-2.23,0-2.62-.09-5.25-.22-7.88-.36-1.16-.06-2.34-.07-3.5-.07a13.52,13.52,0,0,1-4.59-.48c-.49-.18-.21-.76.3-1.27a3.49,3.49,0,0,1,.87-.67,2,2,0,0,1,1.12-.27c2.88.2,5.91.31,8.93.65,1.82.21,3.71.08,5.57.11l6.15.08h3.78c1.91,0,3.84,0,5.73-.08,1.47-.07,2.91-.28,4.37-.42.32,0,.64-.09,1-.11,1.2-.07,1.61.1,1.87.73,0,.15.13.29.17.44.11.49-.37.91-1.23,1.07a53.13,53.13,0,0,1-8.09.72c-2.05.06-4.11.06-6.17.07Z"/><path class="cls-4" d="M147.82,298.21c2.16.62,13.2,4.12,14.9,4.3"/><path class="cls-1" d="M147,273.16a39.13,39.13,0,0,1-3.2,2.63c-1.11.8-2.25,1.52-3.37,2.27l-3.48,2-4,2.1c-.36-.16-.79-.33-1.08-.48a3.58,3.58,0,0,0-.48-.32l-.21-.13-.1-.07c-.05,0-.14.12-.21.17l-.22.19c-.07.06-.17.18-.19.12l-.24-.14-.58-.29-1.2-.55-2.51-1.1a85.58,85.58,0,0,1-9.56-4.91,19.14,19.14,0,0,1-4.44-3.59,5.29,5.29,0,0,1-1.37-3.22A3.67,3.67,0,0,1,111,266a4.31,4.31,0,0,1,1.24-1.42,5.06,5.06,0,0,1,3-.85,9.61,9.61,0,0,1,2.66.4,18.69,18.69,0,0,1,4.56,2.07,21.24,21.24,0,0,1,4.91,4,11.07,11.07,0,0,1,2.91,5.91c.1,1.51-.86,1.18-1.84.38a20.65,20.65,0,0,1-3.56-3.33,18.88,18.88,0,0,0-3.94-3.61,14.71,14.71,0,0,0-4.64-2.22,3.75,3.75,0,0,0-1.76-.08.68.68,0,0,0-.33.17l-.08.06-.06.12c-.08.1,0,.09-.09.13a.51.51,0,0,0,0,.36,3,3,0,0,0,.47.81,11.7,11.7,0,0,0,1.88,1.82,32.26,32.26,0,0,0,6.17,3.61c2.24,1.06,4.55,2,6.86,3.05l1.5.7.77.39c.22.12.23.14.33.2l.08.08s0,.08.07,0l.19-.09.26-.12.64-.33,1.31-.68c.9-.44,1.72-1,2.58-1.46s1.71-1,2.51-1.55,1.66-1.05,2.4-1.67c2.63-1.95,5.12-4.23,6.47-7a8.16,8.16,0,0,0,.6-1.57,7.56,7.56,0,0,0,.12-.79,2.49,2.49,0,0,0,0-.77,3.08,3.08,0,0,0-1.3-2.41,3.71,3.71,0,0,0-2.91-.14,11,11,0,0,0-3.14,1.54,19,19,0,0,0-6.69,8.63,18.55,18.55,0,0,0-.68,2.24c-.33,1.41-.44,2.33-.62,3a2.64,2.64,0,0,1-.86,1.44,4.72,4.72,0,0,1-.58.53c-.34.21-.69,0-1-.61a6.1,6.1,0,0,1-.5-3,19,19,0,0,1,4.48-10.83,21.91,21.91,0,0,1,4.47-4.16,12.57,12.57,0,0,1,6.32-2.42,6.42,6.42,0,0,1,3.23.66,6.15,6.15,0,0,1,2.37,2.35,7.63,7.63,0,0,1,.6,5.78,17.63,17.63,0,0,1-5.28,7.82Z"/><path class="cls-1" d="M23.75,103.91,23.92,96,24,92.53c0-.06,0-.18,0-.19l.22,0,.43.06.88.11,1.74.23,2.4.32,1.82.15,3.65.27,3.69.19q3.68.21,7.38.33c9.86.38,19.74.55,29.62.74,19.77.33,39.55.48,59.32.56l43.28,0Q254.75,95.43,331,95c22.56-.14,45.25-.38,67.64-.65,28.77-.35,57.66-.9,86.41-.84,17.93.07-4.78,3.33-37.92,3.72-58.77.67-117.48,1.11-176.72,1.06L161.9,98.5q-29.9,0-59.79-.28C82.18,98,62.24,97.79,42.3,97c-3.08-.17-6.14-.25-9.23-.51l-2.31-.17c-.76-.06-1.54-.12-2.33-.24l-1.18-.16c-.25-.12-.15.19-.18.34v.53l-.37,18.11c-.22,12.26-.36,24.52-.49,36.77-.34,37.13-.5,74.45-.42,111.31.06,28.66.38,56.75.7,85.08.09,6.23.17,12.33.25,18.62.27,23.32.19,30.73-.54,35.75-.16,1.14-.31,2.65-.49,3.32-.6,2.27-1.47-7.25-1.82-24.32-1.1-50.66-1.3-104.07-1.26-157.7q.06-29.88.28-59.85c.15-20,.37-40,.77-59.94Z"/><path class="cls-1" d="M489.58,260.53l.49-35.82c.08-4.36,0-8.71.15-13.06.34-15.36.88-30.7,1.51-46.05.25-6.8.51-13.65.76-20.41l.51-13c.21-4.34.51-8.69.93-13,.54-5.39,3.22,1.66,2.66,11.63-.85,17.69-1.69,35.36-2.55,53.19-.51,10.67-.56,21.79-.74,32.72q-.3,18-.49,36.06l-.18,22.2c-.06,11.2-.14,22.46-.11,33.58,0,8.65.24,17.13.33,25.68,0,1.88.06,3.72.09,5.62,0,7-.22,9.28-1.08,10.78a7.15,7.15,0,0,1-.59,1c-.67.67-1.2-2.2-1.36-7.36-.48-15.28-.53-31.38-.54-47.56,0-12,.08-24.09.13-36.13Z"/><path class="cls-1" d="M307.53,144.15l-67.94.6-24.78.29-43.68.14-43.68,0-38.73,0-12.37,0L64,145.16c-4.13-.06-8.26,0-12.39-.21s-8.25-.34-12.36-.57c-5.14-.28-4.4-1.29,0-2.17a75.82,75.82,0,0,1,9-1.11c1.86-.13,3.88-.22,6-.28s4.43-.12,6.8-.09c33.58.38,67.19.4,101.09.68,10.13.1,20.48,0,30.88-.07l31.23-.33,68.43-.64,42.11-.5c21.26-.3,42.62-.56,63.71-1,16.4-.35,32.47-.95,48.68-1.45l10.66-.35c13.34-.34,17.6-.16,20.49.85a14.67,14.67,0,0,1,1.9.69c1.29.81-4.12,1.59-13.89,2-29,1.31-59.54,2-90.23,2.58-22.79.43-45.69.73-68.54,1Z"/><path class="cls-1" d="M227,297.56l1.12-49.37.27-18c.46-21.16,1-42.32,1.34-63.48.17-9.39.19-18.83.19-28.14,0-12-.26-24,.14-35.95.26-7.46,4.15,2,4.18,15.8,0,24.47-.4,48.91-1.23,73.55-.49,14.74-.51,30.09-.8,45.16q-.51,24.87-1,49.75-.33,15.31-.65,30.61c-.31,15.46-.69,31-.88,46.32-.16,11.93-.08,23.62-.1,35.41V407c-.1,9.71-.42,12.79-1.52,14.85a8.42,8.42,0,0,1-.75,1.37c-.84.92-1.46-3.05-1.58-10.16-.36-21.09-.09-43.31.27-65.62.31-16.57.62-33.21.93-49.82Z"/><path class="cls-1" d="M171.11,313.53c.82.31,1.65.62,2.48.91.31.11.63.15.93.26,1.07.4,2.12.84,3.19,1.22a8.92,8.92,0,0,0,1.46.37,4,4,0,0,1,1.84.52c.35.26-.73,2.37-1.45,2.2a13.94,13.94,0,0,1-3.7-1.38,13.05,13.05,0,0,0-2.29-.75c-.85-.28-1.68-.58-2.52-.87-.52-.18-1-.36-1.56-.52-.79-.25-1.57-.54-2.37-.71a13.44,13.44,0,0,0-1.9-.19c-.14,0-.29,0-.43,0-.51-.1-.63-.29-.57-.94,0-.15,0-.3,0-.44a1,1,0,0,1,.79-.88,9.78,9.78,0,0,1,3.52.41c.86.22,1.7.51,2.55.77Z"/><path class="cls-1" d="M81,366.88c-5,4.35,6.83,6.87,24,4.91C105.76,371.7,81,366.88,81,366.88Z"/><path class="cls-1" d="M143,316.19c-30.89,3.61-51.15,4.34-44-1Z"/><path class="cls-1" d="M142.14,370.53s28.47,3.92,39.79-.86-.18-6.67-.18-6.67V366Z"/><path class="cls-1" d="M324.16,230.62a6.07,6.07,0,0,1-2.07,1.87,4.89,4.89,0,0,1-2.85.49,5.91,5.91,0,0,1-1.87-.47,7.07,7.07,0,0,1-2.57-2,10,10,0,0,1-1.49-2.67c-.32-.83-.59-1.65-.83-2.48a7.09,7.09,0,0,1-.41-3.26c.08-.39.7-.29,1.31,0s1.22.66,1.3,1.19a17.59,17.59,0,0,0,1.52,5.36,4.15,4.15,0,0,0,2.49,1.88,2.65,2.65,0,0,0,3-.57A6.27,6.27,0,0,0,323,228a15.24,15.24,0,0,0,1.11-3.7,25.61,25.61,0,0,0,.21-3c0-.22,0-.45,0-.68.09-.85.31-1.12,1-1.17a3.4,3.4,0,0,1,.45,0c.5,0,.84.42.88,1a18.62,18.62,0,0,1-.52,5.81,14,14,0,0,1-1.87,4.49Z"/><path class="cls-1" d="M347.29,235.71a6.11,6.11,0,0,1-2.58,1.07,4.81,4.81,0,0,1-2.85-.48,6.05,6.05,0,0,1-1.61-1.05,7.34,7.34,0,0,1-1.77-2.74,10.09,10.09,0,0,1-.52-3q0-1.32,0-2.61a7.16,7.16,0,0,1,.71-3.21c.19-.34.75,0,1.24.38s.94,1,.84,1.55a17.59,17.59,0,0,0-.34,5.56,4.17,4.17,0,0,0,1.72,2.61,2.71,2.71,0,0,0,3,.45A6.31,6.31,0,0,0,347,232.8a15.5,15.5,0,0,0,2.27-3.12,23.26,23.26,0,0,0,1.2-2.81c.09-.21.15-.43.25-.64.37-.77.66-.95,1.31-.78a3.45,3.45,0,0,1,.43.12,1,1,0,0,1,.49,1.26,18.42,18.42,0,0,1-2.42,5.32,13.85,13.85,0,0,1-3.25,3.61Z"/><path class="cls-1" d="M327.26,237.85a1.7,1.7,0,0,0-1.67-.47,2.17,2.17,0,0,0-.35.15,2.53,2.53,0,0,1-.36.2,6.1,6.1,0,0,0-2.32,2.4,3.76,3.76,0,0,0-.4,1.48c-.06.66.13,1.2.09,1.75,0,.18-.57.48-1.2.5s-1.39-.34-1.46-1a6.5,6.5,0,0,1,1.89-5.2,10.73,10.73,0,0,1,2.53-2.18,4.78,4.78,0,0,1,1.92-.53,5.69,5.69,0,0,1,1,.11,4.66,4.66,0,0,1,.95.35,5.53,5.53,0,0,1,1.73,1.46c.68.84,1.11,1.75,1.65,2.52a5.26,5.26,0,0,0,1.45,1.39,2.71,2.71,0,0,1,.34.18c.37.21.4.36.27,1l-.08.44a.82.82,0,0,1-1.13.61,4.78,4.78,0,0,1-2.1-1.45,13.36,13.36,0,0,1-1.29-1.77,7.58,7.58,0,0,0-1.51-1.95Z"/><path class="cls-1" d="M329.7,262.92a6.67,6.67,0,0,1-3.55.5,9.21,9.21,0,0,1-1.19-.14,10.59,10.59,0,0,1-3.73-1.8,15.8,15.8,0,0,1-1.44-1.18,3,3,0,0,1-1.22-2.15c0-.28.61-.37,1.24-.38s1.25,0,1.37.18a10,10,0,0,0,2.32,2.33,4.87,4.87,0,0,0,2.19.73,5.33,5.33,0,0,0,2.42,0,3.42,3.42,0,0,0,1.32-.66,4.73,4.73,0,0,0,1.48-1.87,4.9,4.9,0,0,0,.29-1.86c0-.13,0-.27,0-.41,0-.49.18-.63.84-.71l.44-.06a.91.91,0,0,1,1,.72,6.13,6.13,0,0,1-1,4.36,6.8,6.8,0,0,1-2.75,2.47Z"/><path class="cls-1" d="M313.05,207.55c-.13.31-.45.35-1,.34-.17,0-.53-.23-.51-.36a4.27,4.27,0,0,1,.12-.76,5,5,0,0,1,.8-1.14,11.79,11.79,0,0,1,1.33-1.22,7.66,7.66,0,0,1,1.91-1.12,15.32,15.32,0,0,1,4.36-1.08,7,7,0,0,1,1,.07,26.35,26.35,0,0,1,3.39.66,1.9,1.9,0,0,0,.58.09,8.16,8.16,0,0,1,1.78.71,9,9,0,0,1,1.63,1.14l1,1.15a12.52,12.52,0,0,1,.82,1.23c.08.11.2.21.2.37,0,.36.21.56.34.83a10.08,10.08,0,0,1,.52,1.1,2.22,2.22,0,0,1,.05.64c0,.19-.38.29-.44.26s-.28.11-.4.19a.7.7,0,0,1-.14.08,5.51,5.51,0,0,1-.92-.72l-.58-.54c-.17-.15-.32-.24-.35-.29l-.33-.36c-.2-.21-.43-.51-.71-.76a10.31,10.31,0,0,0-1.35-1,1.44,1.44,0,0,1-.37-.33,9.12,9.12,0,0,0-2.16-.92,7.16,7.16,0,0,1-1.29-.47.48.48,0,0,0-.26-.07,5.58,5.58,0,0,1-.59-.09l-.6,0a7,7,0,0,0-1.21,0,5.81,5.81,0,0,0-1.24.19.87.87,0,0,1-.23,0,2.64,2.64,0,0,0-.29,0,8.83,8.83,0,0,0-2.76,1.15,8.46,8.46,0,0,0-1.38.75C313.69,207.32,313.12,207.42,313.05,207.55Z"/><path class="cls-1" d="M343.86,212.72c-.18.29-.55.22-1.05,0-.16-.08-.43-.44-.4-.55a4.23,4.23,0,0,1,.25-.62,17.15,17.15,0,0,1,1.94-2,4.67,4.67,0,0,1,1.71-1.07,9.65,9.65,0,0,1,2-.66l1.09-.21c.38,0,.76,0,1.15,0a2.31,2.31,0,0,1,1,.19,11.65,11.65,0,0,1,1.62.65l.78.37.71.46a1.54,1.54,0,0,0,.51.26,5.26,5.26,0,0,1,1.38,1.2c.25.32.52.65.7.93s.29.5.33.59a16.6,16.6,0,0,1,.78,2.65c0,.13.11.24,0,.39a1.18,1.18,0,0,0,0,.85,5,5,0,0,1,.06,1.16,2,2,0,0,1-.26.59c-.09.16-.46.06-.51,0s-.29,0-.44,0h-.16a8,8,0,0,1-.5-.85c-.23-.42-.57-.84-.57-.93s-.06-.17-.17-.4a6.68,6.68,0,0,0-.43-.83,8.11,8.11,0,0,0-.86-1.25,2.38,2.38,0,0,1-.2-.39,3.93,3.93,0,0,0-.73-.71c-.2-.15-.38-.3-.53-.4a2.17,2.17,0,0,1-.28-.16l-.44-.31a1,1,0,0,1-.42-.34c0-.07-.12-.09-.18-.12-.29-.11-.6-.13-.89-.24a7.24,7.24,0,0,0-1-.13,3.24,3.24,0,0,0-1,.12,1.41,1.41,0,0,1-.2,0,.66.66,0,0,0-.24,0l-1.25.41a2.53,2.53,0,0,0-.61.27c-.21.1-.41.2-.61.32a4.43,4.43,0,0,1-.71.22,3.93,3.93,0,0,0-.7.33C344.53,212.62,343.94,212.6,343.86,212.72Z"/><path class="cls-1" d="M25.85,285.3l.29-46.67,0-17,.76-60c.1-8.87.19-17.79.21-26.6.08-11.31,0-22.68.59-34,.36-7,3.27,2,3.05,15-.31,23.09-.6,46.17-1.16,69.45-.34,13.93-.23,28.42-.32,42.67q-.14,23.51-.25,47,0,14.46-.08,28.92c0,14.6,0,29.28.12,43.77.11,11.26.42,22.31.7,33.44.06,2.45.13,4.85.2,7.32.18,9.16.06,12.06-.74,14.06A8.64,8.64,0,0,1,28.7,404c-.62.91-1.31-2.83-1.62-9.55-.9-19.92-1.11-40.92-1.24-62-.09-15.66-.08-31.39-.07-47.09Z"/><path class="cls-1" d="M487.58,260.64q.19-17.29.5-34.6c.08-4.21.05-8.42.16-12.62q.52-22.24,1.53-44.47c.25-6.57.5-13.19.75-19.71.17-4.19.33-8.4.5-12.6s.5-8.39.92-12.56c.52-5.21,3.21,1.61,2.67,11.23-.84,17.09-1.68,34.15-2.53,51.38-.53,10.3-.57,21.05-.77,31.6-.2,11.6-.39,23.21-.5,34.83l-.18,21.44c-.06,10.82-.14,21.69-.11,32.44,0,8.35.24,16.54.34,24.8,0,1.81.06,3.59.09,5.43,0,6.79-.23,8.95-1.09,10.41a5.75,5.75,0,0,1-.59,1c-.67.65-1.19-2.13-1.35-7.1-.48-14.76-.55-30.32-.55-45.94,0-11.61.09-23.27.13-34.91Z"/><path class="cls-1" d="M61.74,196.81c0,4.14-6.64,3-5.28-.9A2.73,2.73,0,0,1,61.74,196.81Z"/><path class="cls-1" d="M92.81,166.44c0,4.14-6.64,3-5.28-.89A2.73,2.73,0,0,1,92.81,166.44Z"/><path class="cls-1" d="M108.13,208.58c0,3.26-5.22,2.35-4.15-.7A2.14,2.14,0,0,1,108.13,208.58Z"/><path class="cls-1" d="M144.61,187c0,4.2-6.74,3-5.36-.91A2.77,2.77,0,0,1,144.61,187Z"/><path class="cls-1" d="M191.62,262.2c0,4.2-6.74,3-5.36-.91A2.77,2.77,0,0,1,191.62,262.2Z"/><path class="cls-1" d="M106,287.89c0,1.47-2.36,1.06-1.88-.32A1,1,0,0,1,106,287.89Z"/><path class="cls-1" d="M77.28,276.64c0,1.48-2.37,1.06-1.88-.32A1,1,0,0,1,77.28,276.64Z"/><path class="cls-1" d="M180.77,172.78c0,1.48-2.37,1.07-1.89-.32A1,1,0,0,1,180.77,172.78Z"/><path class="cls-1" d="M98.65,223.72c0,1.73-2.77,1.25-2.21-.38A1.14,1.14,0,0,1,98.65,223.72Z"/><path class="cls-1" d="M70.51,230.29c0,1.73-2.78,1.25-2.21-.38A1.14,1.14,0,0,1,70.51,230.29Z"/><path class="cls-1" d="M188,203.75c0,3.44-5.53,2.48-4.4-.75A2.28,2.28,0,0,1,188,203.75Z"/><path class="cls-1" d="M157.55,219.32c0,3.44-5.53,2.48-4.4-.75A2.28,2.28,0,0,1,157.55,219.32Z"/><path class="cls-1" d="M434.55,161.63c0,1.48-2.37,1.06-1.88-.32A1,1,0,0,1,434.55,161.63Z"/><path class="cls-1" d="M432.6,192c0,3.44-5.52,2.48-4.39-.75A2.27,2.27,0,0,1,432.6,192Z"/><path class="cls-1" d="M451.74,211.52c0,3.45-5.52,2.48-4.4-.74A2.27,2.27,0,0,1,451.74,211.52Z"/></g></svg>