<svg id="Layer_1" data-name="Layer 1" xmlns="http://www.w3.org/2000/svg" width="520" height="520" viewBox="0 0 520 520"><defs><style>.cls-1{fill:#221f1f;}.cls-2{fill:none;stroke:#221f1f;stroke-linecap:round;stroke-linejoin:round;stroke-width:2px;}.cls-3{fill:#232020;}</style></defs><title>Notioly v2</title><g id="_95.Cycling" data-name="95.Cycling"><path class="cls-1" d="M311.24,390.2c1.67.65,3.27,1.83,3.05,2.27-2.49,5-16.58,34.08-24.1,22Z"/><path class="cls-1" d="M293.59,413.14l-1,1.05-.23.27,0,0-.08.06c-.09,0,0,.1,0,.16a.37.37,0,0,0,.06.1c.12.11.24.28.37.38a2.94,2.94,0,0,0,1.66.76,4.12,4.12,0,0,0,2-.47,13.21,13.21,0,0,0,3-2.21A55.54,55.54,0,0,0,308.11,402c1.12-1.82,2.14-3.73,3.08-5.64l.89-1.85.76-1.63.1-.2c0-.06.07-.13,0-.19a1.26,1.26,0,0,0-.26-.31l-.16-.14-.37-.26-.79-.51c-.66-.38-.38-1,.59-1.32a3.69,3.69,0,0,1,1.88,0,4.41,4.41,0,0,1,1.58,1,2.35,2.35,0,0,1,.56.82,2.07,2.07,0,0,1,.12.49,4.54,4.54,0,0,1-.09.51,5.8,5.8,0,0,1-.69,1.72l-.48,1-1,1.9c-.66,1.25-1.36,2.5-2.08,3.73a72.46,72.46,0,0,1-4.79,7.15c-2.14,2.71-4.18,5.7-7.09,8.05a13.09,13.09,0,0,1-2.67,1.67,6.74,6.74,0,0,1-3.4.56,5.52,5.52,0,0,1-3.1-1.59l-.29-.31a4.89,4.89,0,0,1-.37-.41c-.22-.29-.43-.6-.64-.9l-.32-.45-.15-.23-.08-.11s0-.07.07-.1l.71-.84,4.95-5.53c2.36-2.66,4.76-5.3,7-8,1.77-2.09,3.39-4.24,5.07-6.37.37-.46.72-.94,1.1-1.4,1.43-1.72,2-2.14,2.88-2a2.53,2.53,0,0,1,.57.08c.56.19.31,1.18-.64,2.52-2.81,4-6.1,7.89-9.45,11.77-2.49,2.88-5,5.73-7.57,8.59Z"/><path class="cls-1" d="M252.19,387.12c-5.47,7.89-16.93,19.11-24.25,20.05-2.34.3-4.11-2.29-4.66-4.39Z"/><path class="cls-1" d="M228.41,401.9,226,403.15l-.31.15-.21.11-.09,0c-.08,0-.17.05-.13.13a1.15,1.15,0,0,0,.09.27,5.27,5.27,0,0,0,.59.91,2.7,2.7,0,0,0,1.4,1,1.31,1.31,0,0,0,.56,0l.84-.18c.56-.12,1.13-.37,1.71-.54a28.18,28.18,0,0,0,5.9-3.23,56.94,56.94,0,0,0,5.45-4.28,51.33,51.33,0,0,0,4.31-4.42c1.73-2,3.25-4.13,5-6.08.55-.61,1.06-.14,1.19.82a5.06,5.06,0,0,1-1.11,3.67A56.73,56.73,0,0,1,239,403c-2.78,1.87-5.65,4-9.19,5-.49.13-1,.2-1.51.3a4,4,0,0,1-1.87-.11,5.52,5.52,0,0,1-2.74-2.07c-.16-.22-.31-.44-.45-.67a7.81,7.81,0,0,1-.42-.8,11.7,11.7,0,0,1-.7-2c-.27-.41.26-.49.51-.69a10.28,10.28,0,0,1,.93-.53l1.46-.76,6-3.13c3.05-1.6,6.12-3.17,9.1-4.83,2.32-1.29,4.51-2.69,6.76-4,.5-.3,1-.61,1.48-.9,1.87-1.07,2.56-1.23,3.31-.83a3,3,0,0,1,.5.28c.44.39-.11,1.21-1.43,2.1a145.32,145.32,0,0,1-12.56,7.44c-3.24,1.75-6.52,3.46-9.79,5.19Z"/><path class="cls-1" d="M238,146.54a29.49,29.49,0,0,0,4.76,7.78,19.94,19.94,0,0,0,2.42,2.18,14.06,14.06,0,0,0,5,2.52,13.85,13.85,0,0,0,5.74.24l1.29-.22,1.26-.38.63-.19.33-.1.44-.11a3.74,3.74,0,0,1,1.73,0,8.17,8.17,0,0,1,3.4,1.92,12.12,12.12,0,0,1,2.34,2.82c.39.68-.21.92-1,.79a5.47,5.47,0,0,1-2.81-1.41,7.43,7.43,0,0,0-2.31-1.6,1.57,1.57,0,0,0-.86-.11h-.14l-.11,0-.46.13-.92.25a17.31,17.31,0,0,1-7.65.38,17.89,17.89,0,0,1-8.41-4,27.24,27.24,0,0,1-5.9-8,48.48,48.48,0,0,1-2.37-5.57,88.11,88.11,0,0,1-2.54-8.71c-.56-2.27-1.15-4.48-1.61-6.75-.1-.5-.22-1-.3-1.5-.29-1.88-.18-2.51.42-3a2.33,2.33,0,0,1,.41-.31c.48-.21.94.5,1.25,1.83.92,3.94,1.77,8.09,2.91,12.17a59.85,59.85,0,0,0,3.11,8.85Z"/><path class="cls-1" d="M231.07,132.67c-1.74,1.67-6.06,5.73-3.58,8.41a5.56,5.56,0,0,0,5.26,1.11c1.42-.42,1.23-1.23-.22-.81.25-.07-.89-.14-1.22-.24a3.06,3.06,0,0,1-1.78-1.31c-1.43-2.56,2.22-5.84,3.77-7.32.53-.51-1.79-.27-2.23.16Z"/><path class="cls-1" d="M270.77,78.19a14.91,14.91,0,0,0-5,.27c-.4.09-.79.22-1.19.33l-1.17.45-1.12.55-1.26.66a54.17,54.17,0,0,1-10.58,4.38,26.83,26.83,0,0,1-5.81,1,28.88,28.88,0,0,1-5.81-.41,23.48,23.48,0,0,0-10.35,1,22.73,22.73,0,0,0-11.86,9.22,26.06,26.06,0,0,0-4.12,12.8,18.31,18.31,0,0,0,.85,6.61,13.33,13.33,0,0,0,3.45,5.52,10.7,10.7,0,0,0,2.61,1.9,11.66,11.66,0,0,0,3.08,1,19.52,19.52,0,0,0,6.73-.06,49.72,49.72,0,0,0,13.18-4.66c3.77-1.85,7.35-4,11-6.26.46-.28,1-.52,1.51-.78a5.59,5.59,0,0,1,.84-.31,5.85,5.85,0,0,1,.87-.25,4.58,4.58,0,0,1,3.76.79,7.76,7.76,0,0,1,2.16,2.89,30.16,30.16,0,0,1,1.15,3.06l.47,1.4.18.47.1.22c0,.07.06.21.11.08l.43-.66.22-.31.37-.45a8.41,8.41,0,0,1,3.15-2.42,5.14,5.14,0,0,1,4.26.29,7.1,7.1,0,0,1,2.93,2.82,7.23,7.23,0,0,1,.89,3.93,9.88,9.88,0,0,1-.89,3.77,10.82,10.82,0,0,1-5.18,5.47,12.17,12.17,0,0,1-1.16.39,4,4,0,0,1-.84.08c-.44,0-.63-.08-.62-.21s.22-.34.57-.57c.17-.13.39-.23.61-.41s.48-.37.75-.56.53-.5.83-.76.55-.62.84-1A11.88,11.88,0,0,0,273.2,127a10.2,10.2,0,0,0,.78-3.23,5.43,5.43,0,0,0-.71-3.14,4.81,4.81,0,0,0-1.77-1.51,2.12,2.12,0,0,0-1.82-.08,6.3,6.3,0,0,0-2,1.61l-.36.44c-.17.22-.35.45-.52.69-.33.49-.67,1-1,1.47l-2,3-1.19-2.85c-.4-.91-.75-1.94-1.11-2.95l-.64-2c-.16-.51-.34-1-.51-1.47a9.35,9.35,0,0,0-1.24-2.37,1.8,1.8,0,0,0-1.45-.79,4.28,4.28,0,0,0-1.07.21,5.73,5.73,0,0,0-1.22.52c-.84.41-1.81,1-2.74,1.59-1.89,1.13-3.81,2.25-5.78,3.31a69,69,0,0,1-12.37,5.38,33.67,33.67,0,0,1-6.76,1.4,18.6,18.6,0,0,1-7.09-.58,13.12,13.12,0,0,1-4.87-2.63,16.55,16.55,0,0,1-3.51-4.21A19.77,19.77,0,0,1,210,108.3a26.89,26.89,0,0,1,.22-2.68c.17-.87.27-1.77.51-2.63a29.33,29.33,0,0,1,1.7-5.07,27.2,27.2,0,0,1,2.64-4.67,26.67,26.67,0,0,1,3.57-4,25.86,25.86,0,0,1,10.21-5.64A26.72,26.72,0,0,1,240.42,83,22.66,22.66,0,0,0,251,82a56.55,56.55,0,0,0,10-4.47,16.49,16.49,0,0,1,7-2,19.39,19.39,0,0,1,7.15,1A27.92,27.92,0,0,1,287,84.24a27,27,0,0,1,5.62,9.15,20.62,20.62,0,0,1,1.13,5.31,38.8,38.8,0,0,0,.58,5.09,5.38,5.38,0,0,0,2.36,3.74,5.67,5.67,0,0,0,2.2.67c.83.13,1.67.2,2.52.25,3.39.21,6.88-.21,10.46.24a18.19,18.19,0,0,1,4.09,1,16.54,16.54,0,0,1,3.67,2.12,5.34,5.34,0,0,1,1.47,1.8,14.48,14.48,0,0,1,.86,1.95,34.16,34.16,0,0,1,1.11,3.94c.6,2.64,1,5.28,1.42,7.91s.73,5.29,1.24,7.79a7.71,7.71,0,0,0,.41,1.37,12.82,12.82,0,0,0,.87,1.19,7.73,7.73,0,0,0,2.39,1.79,17.32,17.32,0,0,0,4.95,1.22c1.46.19,2.7.32,3.72.5a8.54,8.54,0,0,1,4.05,1.55,4.77,4.77,0,0,1,1,.94c.13.2,0,.29-.33.28s-.83-.15-1.58-.25c-1.47-.27-3.82-.3-7.11-.55a20.23,20.23,0,0,1-3.74-.61,10.79,10.79,0,0,1-3.71-1.69c-.28-.22-.58-.41-.84-.65l-.75-.77a5.8,5.8,0,0,1-.65-.83l-.3-.43a3.36,3.36,0,0,1-.31-.51,9,9,0,0,1-.66-2.11c-.14-.63-.25-1.25-.36-1.86-.8-4.87-1.34-9.74-2.43-14.41a26.47,26.47,0,0,0-1-3.33,9.27,9.27,0,0,0-.67-1.41l-.18-.28-.17-.22c-.06-.07-.11-.09-.15-.14a1.8,1.8,0,0,0-.3-.22,12.31,12.31,0,0,0-2.83-1.63,13.46,13.46,0,0,0-3.2-.85,47.17,47.17,0,0,0-7.22-.21c-1.27,0-2.59,0-3.91-.09-.67,0-1.33-.1-2-.21a9.38,9.38,0,0,1-2.21-.51,6.61,6.61,0,0,1-3.06-2.2,8.89,8.89,0,0,1-1.51-3.16,32.83,32.83,0,0,1-.78-5.89,20.12,20.12,0,0,0-3.43-9.63A27.25,27.25,0,0,0,280.36,82a21.31,21.31,0,0,0-9.59-3.71Z"/><path class="cls-1" d="M280.71,144a4.32,4.32,0,0,1-.13,2.06l-.38,1.27a13.06,13.06,0,0,0-.44,2.47,10.26,10.26,0,0,0,.69,4.8,8,8,0,0,0,2.08,2.74,6.68,6.68,0,0,0,2.63,1.42,7,7,0,0,0,1.51.22l1.8.09c2.4.14,4.78.38,7.16.7,2.11.29,4.24.59,6.33,1a26,26,0,0,1,4,1.14,7.2,7.2,0,0,1,3.61,2.67c.27.46.19.76,0,.83a2.21,2.21,0,0,1-1-.07,13.67,13.67,0,0,1-3.16-.82,34.9,34.9,0,0,0-7.51-2c-2.63-.47-5.32-.82-8-1.12-.82-.09-1.64-.15-2.47-.18-.43,0-.77,0-1.3-.06l-.73-.07-.72-.15a9,9,0,0,1-4.82-3,10.84,10.84,0,0,1-2.33-5.63,14.94,14.94,0,0,1,.55-5.89l.25-.87a2.58,2.58,0,0,0,.13-.61,2,2,0,0,0-.27-1.2,7.81,7.81,0,0,0-2.07-2.27c-2.63-2.09-5.68-4-8.2-6.48a15.79,15.79,0,0,1-4.45-7,12.53,12.53,0,0,1-.39-1.84c-.22-2.35.16-3.08.82-3.47a2.4,2.4,0,0,1,.47-.25c.25-.07.46.13.6.53a8.49,8.49,0,0,1,.29,1.72,12.87,12.87,0,0,0,2.12,6,21.41,21.41,0,0,0,4.82,4.88c1.41,1.09,2.93,2.12,4.47,3.27a20.51,20.51,0,0,1,2.31,2,6.17,6.17,0,0,1,1.84,3.17Z"/><path class="cls-1" d="M245.35,337.07c-2.83-3.87-5.6-7.81-8.14-11.93-1.25-2.08-2.48-4.17-3.55-6.39a23.3,23.3,0,0,1-2.41-7.24,14.31,14.31,0,0,1,0-2.86l.15-1.38.25-1.37a24.88,24.88,0,0,1,1.73-5.23,33.65,33.65,0,0,1,2.36-4.19,46.35,46.35,0,0,1,2.87-3.78,64.94,64.94,0,0,1,6.63-6.64c4.68-4.09,9.7-7.68,14.62-11.33,2.18-1.62,4.35-3.26,6.42-5a64.62,64.62,0,0,0,5.79-5.55,69.15,69.15,0,0,0,6.39-8,47.46,47.46,0,0,0,2.66-4.33,17.24,17.24,0,0,0,1.82-4.48c.17-.91.2-1.2.49-1.27s.77.37,1,1.42c.44,2.09-.52,5.79-2.79,9.23a69,69,0,0,1-14.72,16c-5.66,4.46-11.57,8.38-17.11,12.78a61.48,61.48,0,0,0-9.23,8.81,29.44,29.44,0,0,0-6.05,11l-.23.83-.16.83c-.12.56-.18,1.12-.25,1.69s-.06,1.13-.1,1.69a13.14,13.14,0,0,0,.12,1.56,25.22,25.22,0,0,0,2.45,6.41,106.83,106.83,0,0,0,7.5,12.13c3.37,4.83,6.94,9.54,10.61,14.16,5.57,7,11.35,13.89,17.25,20.53,2.3,2.58,4.62,5.09,7,7.57L282,376.2l.39.38c.06.12.12,0,.18-.08l.17-.21.17-.2.3-.35.84-1,3-3.39c3.75-4.19,5.09-5.4,6.43-5.81a4,4,0,0,1,.9-.26c.77,0-.44,2-3.09,5.13q-3,3.51-6,7.06l-2.72,3.05c0,.06-.06,0-.09,0l-.09-.1-.19-.2-.38-.4L281,379l-1.33-1.41c-1.09-1.16-2.18-2.31-3.27-3.48-4.35-4.67-8.64-9.51-12.87-14.43-6.28-7.32-12.4-14.83-18.19-22.6Z"/><path class="cls-1" d="M332.67,227c-16.06,12.89-38.51,17.48-48.79,19-1.8-7.22-7.48-15.18-11.67-21.43-7.76,8.38-41.78,15.8-64,19.94-5.33-1.59-17.21-4.31-19.78-11.77,29.81-8.87,63.23-24.69,66.35-39.54,2.39-11.41,2.2-20.49,12.11-28.64,19.22-15.79,37.43,8.16,47.27,22.7C322.35,199.32,328.25,212.74,332.67,227Z"/><path class="cls-1" d="M248.5,205.28a75.69,75.69,0,0,1-12.1,8.79A144.93,144.93,0,0,1,223.3,221a237.38,237.38,0,0,1-27.49,10.73c-1.7.56-3.41,1.09-5.13,1.62l-.34.1s-.11,0-.14.06l.06.14a1.24,1.24,0,0,0,.16.3,6.62,6.62,0,0,0,.65.93A14.25,14.25,0,0,0,194.8,238a31.12,31.12,0,0,0,4.58,2.3,89.6,89.6,0,0,0,8.8,2.88.23.23,0,0,0,.16,0l.48-.09,1.16-.21,2.31-.43,4.63-.89c6.16-1.2,12.3-2.5,18.41-3.94s12.17-3,18.12-4.94c3-1,5.93-2,8.79-3.21a35.86,35.86,0,0,0,8-4.41c.36-.27.81-.7,1.18-1l.58-.54.28-.27c.06-.09.09,0,.13.06l.11.16,1.66,2.48,2.33,3.5c1.54,2.34,3,4.73,4.4,7.22.68,1.24,1.32,2.5,1.9,3.8.29.65.57,1.31.82,2,.14.33.26.66.37,1l.32.95.13.47s0,.1,0,.1l.12,0,.24,0,1.71-.28c1.36-.23,2.71-.5,4.06-.76A125.06,125.06,0,0,0,311,237.94c1.65-.62,3.26-1.35,4.89-2s3.2-1.47,4.75-2.32a79.4,79.4,0,0,0,9-5.41c3.53-2.56,3.49-1.75.83,1a41.18,41.18,0,0,1-6.16,4.95,59.57,59.57,0,0,1-10,5.29,121,121,0,0,1-21.09,6.51c-1.79.39-3.6.74-5.41,1l-1.36.23-1.77.28-1.34.2-.67.11c-.12-.12-.14-.41-.21-.61l-.37-1.3-.18-.65a1.07,1.07,0,0,0-.07-.23l-.05-.15a47.47,47.47,0,0,0-4.51-9.52c-.9-1.54-1.86-3.06-2.85-4.57L272,226.92c0-.11-.08,0-.15,0l-.51.41-.6.42c-.4.29-.8.54-1.21.79a43.73,43.73,0,0,1-5,2.6,142.84,142.84,0,0,1-21,6.85c-8.52,2.18-17.28,4.09-26.11,5.86l-6.64,1.3-1.66.31-.57.11a1,1,0,0,1-.69-.07l-.89-.26c-1.09-.31-2.18-.62-3.27-.95a55.8,55.8,0,0,1-6.47-2.36,24.63,24.63,0,0,1-6-3.66,13.69,13.69,0,0,1-2.63-3l-.38-.61c-.11-.22-.21-.44-.31-.67l-.59-1.38-.15-.35-.08-.17a.85.85,0,0,1,.17-.06l.7-.24c.46-.16.95-.31,1.44-.45l3.79-1.17,3.5-1.13q7-2.33,13.84-5a167.35,167.35,0,0,0,26.37-12.93c5.06-3.2,10-6.79,13.73-11.37a20.73,20.73,0,0,0,2.36-3.66,6.23,6.23,0,0,0,.44-1,7,7,0,0,0,.37-1l.28-1,.23-1.11c.6-2.95,1.07-5.94,1.67-8.94.9-4.52,2.28-9.16,5-13.07a28,28,0,0,1,2.19-2.79c.83-.84,1.64-1.7,2.54-2.45a26,26,0,0,1,5.85-4,19.8,19.8,0,0,1,6.83-2,19.51,19.51,0,0,1,7.06.67,33.28,33.28,0,0,1,12.11,6.86,92.15,92.15,0,0,1,14.15,15.84A138.12,138.12,0,0,1,322.86,200c1.45,2.76,2.8,5.49,4.07,8.35a108.77,108.77,0,0,1,4.38,11.51,22.81,22.81,0,0,1,1.14,5.38,16,16,0,0,1,.08,1.69c-.19,1.22-1.81-3.2-4.92-11a158.21,158.21,0,0,0-8.07-17,144.24,144.24,0,0,0-10.44-16.12,86.75,86.75,0,0,0-12.84-14.39,36.75,36.75,0,0,0-7.85-5.28,25.62,25.62,0,0,0-4.34-1.57,18.52,18.52,0,0,0-4.5-.48,16.43,16.43,0,0,0-6.5,1.54,26.14,26.14,0,0,0-13.4,15.23c-1.47,4.48-2.06,9.39-3.05,14.29-.15.63-.21,1.19-.41,1.88l-.28,1c-.11.33-.25.64-.37,1a19.11,19.11,0,0,1-1.89,3.55,33.35,33.35,0,0,1-5.11,5.84Z"/><path class="cls-1" d="M267.9,311.1l-2.33,1.59a3.06,3.06,0,0,0-1.12,1.51,3.1,3.1,0,0,0-.07,1.88,2.89,2.89,0,0,0,.39.88l.14.21.22.29.43.58,6.95,9.29,13.9,18.56,1.64,2.18-1.11-.56h.7l.42.56q4.24,5.74,8.22,11.62c2.92,4.31,5.78,8.65,8.62,13l4.23,6.54,2.1,3.29,1,1.65.63,1c.25.4.51.82.76,1.29-1.26,1.88-1.7,2.5-2.43,3.55L309.16,393q-2.07,2.89-4.23,5.76a142.58,142.58,0,0,1-9.09,11.08,33.17,33.17,0,0,1-5,4.6,7.88,7.88,0,0,1-1.69.9,2.8,2.8,0,0,1-2.37-.08,2.39,2.39,0,0,1-.83-.87,2.94,2.94,0,0,1-.26-.57l-.1-.29-.05-.23c-.07-.31-.14-.62-.19-.93l-.08-.91a17.88,17.88,0,0,1,1.21-6.83,40.55,40.55,0,0,1,2.83-6.12,74.1,74.1,0,0,1,4.74-7.34c.85-1.18,1.74-2.33,2.64-3.47L298,386l.82-1-4.51-5.78q-2.52-3.28-5-6.58c-4.18-5.63,3.33-.22,11.34,10l2,2.53-1.42,1.57-1,1.11L299,389.42c-.86,1.07-1.71,2.15-2.52,3.25a73.28,73.28,0,0,0-4.53,6.82,35.61,35.61,0,0,0-3.3,7.25,14.8,14.8,0,0,0-.69,3.68,10.67,10.67,0,0,0,.08,1.72l.12.57s0,0,0,0l0,0h0l.16-.07a8.25,8.25,0,0,0,1.45-.89,28.71,28.71,0,0,0,2.94-2.65c1.91-1.93,3.73-4,5.49-6.18,3.54-4.3,6.9-8.79,10.18-13.36l2.27-3.2a3.34,3.34,0,0,0-.21-.37l-.53-.84-1.24-2-2.52-3.93c-1.71-2.61-3.44-5.23-5.16-7.86-3.49-5.23-7-10.46-10.61-15.6q-2.2-3.15-4.47-6.24l1,.48h-.6l-.36-.48-23.43-31.28A5.76,5.76,0,0,1,264,310.6l6-4.09,11.87-8.1,18-12.28,9-6.15c.41-.27.65-.45,1.07-.78s.77-.54,1.16-.8c.79-.49,1.58-.95,2.38-1.4,1.58-.88,3.16-1.73,4.71-2.63,4.78-2.77,9.26-6.07,12.41-10.42a27.27,27.27,0,0,0,5.12-14.89,40.73,40.73,0,0,0-.35-7.05c-.11-1.1-.31-2.1-.47-3s-.33-1.75-.51-2.51-.32-1.44-.45-2.06-.3-1.18-.42-1.69a19.2,19.2,0,0,1-.66-4.26,10.09,10.09,0,0,1,0-1.39c.11-.51.58.07,1.33,1.58a24.9,24.9,0,0,1,1.25,3l.69,2c.23.72.43,1.5.65,2.32a52,52,0,0,1,1.4,7.54,38.85,38.85,0,0,1,0,7.85,30.72,30.72,0,0,1-1.91,7.82,28.15,28.15,0,0,1-4.06,7.07,42.75,42.75,0,0,1-12.44,10.25c-2.28,1.35-4.65,2.56-6.78,3.84q-.81.49-1.5,1l-.33.26-.28.21-.23.16-.8.56-3.24,2.23L268,311.15Z"/><path class="cls-1" d="M173.1,241.12a9.27,9.27,0,0,1,2.86-4,11.22,11.22,0,0,1,1.34-1.07,23.45,23.45,0,0,1,5.28-2.37c.79-.28,1.59-.55,2.36-.84A10.1,10.1,0,0,1,188,232c.67,0,.34,2.19-.78,2.49-2,.59-4,1.15-5.94,1.76a12,12,0,0,0-3.24,1.81,8.46,8.46,0,0,0-2.62,2.88,5.57,5.57,0,0,0-.62,2.26,6.87,6.87,0,0,0,.81,3.6,9.57,9.57,0,0,0,1.82,2.28l.47.43c.56.56.65.82.4,1.36a3.18,3.18,0,0,1-.18.37c-.23.38-.75.42-1.31,0a10,10,0,0,1-3.71-5,8.24,8.24,0,0,1-.08-5.13Z"/><path class="cls-2" d="M208.21,244.48c-11.2,2.09-18.69,4.11-19,4.24"/><path class="cls-1" d="M177.49,242.35a8.84,8.84,0,0,0,3.34,9c.48.38,2.2-.36,1.76-.7a8.45,8.45,0,0,1-3.23-8.61c.15-.59-1.72-.31-1.87.27Z"/><path class="cls-1" d="M180.19,242.09c-1.31,3.78,1,7.44,4.08,9.51.72.49,2.35-.51,1.44-1.12-2.55-1.73-4.84-4.89-3.71-8.14.36-1.05-1.52-1.08-1.81-.25Z"/><path class="cls-1" d="M210.62,323.08c-2.36-8.6-5.36-17.32-6.1-26.6a33.44,33.44,0,0,1,.6-10.25A20.7,20.7,0,0,1,209.2,278a22.22,22.22,0,0,1,7.24-5.57c1.37-.66,2.77-1.22,4.1-1.73l4-1.59,8.08-3.23c4.77-1.92,9.54-3.93,14.26-5.89,6.07-2.52,12.15-5.15,18.55-6.87,2-.53,1.91.22.47,1.37a31.35,31.35,0,0,1-7.73,4.09c-12.42,4.76-24.76,10-37.45,14.73-1,.35-1.84.73-2.74,1.11-.44.2-.86.44-1.29.66a11,11,0,0,0-1.25.73,17.2,17.2,0,0,0-4.34,3.81,19.66,19.66,0,0,0-4,10.8,47.19,47.19,0,0,0,1,13.2c.89,4.4,2.12,8.75,3.39,13.11,1.61,5.36,3,10.81,4.4,16.22,2.1,8.22,4.05,16.5,6.18,24.63.61,2.3,1.23,4.58,1.88,6.85.33,1.13.66,2.26,1,3.38l.47,1.58.25.73.54-.23.26-.1.61-.24,2.45-.92,4-1.52c5-1.84,6.64-2.24,8-1.95a4.31,4.31,0,0,1,.87.2c.67.35-1.22,1.51-4.83,3l-5.9,2.35-3,1.17-4.74,1.77q-1-3.58-2.07-7.2-.75-2.78-1.52-5.58c-1-3.73-2-7.51-2.92-11.29-2.24-8.8-4.37-17.66-6.79-26.4Z"/><path class="cls-1" d="M248.81,387.71c-5.15,3.74-10.36,7.37-15.73,10.82-2,1.26-3.9,2.55-5.94,3.7-.9.51-1.82,1-2.76,1.47-.48.25-.84.43-1.61.77a10.17,10.17,0,0,1-2.32.77,3.15,3.15,0,0,1-1.84-.18,1.45,1.45,0,0,1-.68-.66,2.07,2.07,0,0,1-.19-.87,4.46,4.46,0,0,1,.55-2,15.59,15.59,0,0,1,1.22-2,95.82,95.82,0,0,1,8-9.48l3.79-3.91a26.23,26.23,0,0,0,1.77-1.95,7.83,7.83,0,0,0,1.2-2.06,15.1,15.1,0,0,0,.71-6.35,46.38,46.38,0,0,0-1.08-6.57c-.33-1.32.36-1.43,1.37-.45a10.11,10.11,0,0,1,2.55,5.94,18.18,18.18,0,0,1-.66,7.73l-.36,1c-.14.32-.32.63-.49.94a9.42,9.42,0,0,1-1.21,1.75c-.86,1-1.69,1.78-2.53,2.63A122.4,122.4,0,0,0,223.07,399c-.43.54-.87,1.1-1.29,1.65s-.46.61-.6.83a.92.92,0,0,0-.2.65c.15.2.43.07.63,0l.33-.13.53-.26,1.88-1c1.25-.7,2.49-1.43,3.71-2.17,5.4-3.3,10.65-6.91,15.83-10.6l4.5-3.27c.08-.08.24-.13.25-.23l-.09-.35-.32-1.22-.77-2.84c-1.54-5.74-3.06-11.52-4.67-17.2-1.25-4.41-2.63-8.7-4-13-.3-1-.58-1.89-.88-2.85-1-3.59-1.19-4.78-.72-5.74a3.17,3.17,0,0,1,.33-.64c.44-.5,1.28.85,2.17,3.44,2.63,7.68,5,15.9,7.27,24.17.84,3.08,1.69,6.16,2.53,9.24l1.25,4.63.93,3.45c-.59.49-1.23,1-1.85,1.42l-1,.75Z"/><path class="cls-1" d="M81.05,392.76a60.69,60.69,0,0,0,7,19.58,56.11,56.11,0,0,0,26.48,23.88,58.89,58.89,0,0,0,26.39,5,53.26,53.26,0,0,0,25.75-7.86,61.08,61.08,0,0,0,17.53-16.67c6.05-8.48,10-18.25,13.11-28.18.93-3.11,2.11-2.46,2.68.61a27.28,27.28,0,0,1-2.25,14.5,76.25,76.25,0,0,1-19.62,27.58,65.26,65.26,0,0,1-6.84,5.21,58.42,58.42,0,0,1-15.61,7.25,62.31,62.31,0,0,1-8.44,1.76,69.24,69.24,0,0,1-20.71-.47,60.86,60.86,0,0,1-19.67-7,61.77,61.77,0,0,1-17.36-14.81,64.56,64.56,0,0,1-11-19.92,66.6,66.6,0,0,1-3.12-27.63,61.39,61.39,0,0,1,2.08-10.4,62.74,62.74,0,0,1,3.92-9.83,67.5,67.5,0,0,1,12.21-17,74.12,74.12,0,0,1,12.52-10.21,65.09,65.09,0,0,1,14.56-7,55.21,55.21,0,0,1,6.9-1.86,33.88,33.88,0,0,1,9.47-.72,12.21,12.21,0,0,1,2.52.49,6.06,6.06,0,0,1,1.64.91,6.77,6.77,0,0,1,1.17,1c.37.54-.34,1-1.87,1.3-.38.09-.82.15-1.3.22s-1,.17-1.6.25l-4,.52a63.25,63.25,0,0,0-25.44,9.59,66.42,66.42,0,0,0-10.82,8.8,62.43,62.43,0,0,0-8.69,11,56.48,56.48,0,0,0-7.6,19.3,53.58,53.58,0,0,0-.91,10.36,59.28,59.28,0,0,0,1,10.47Z"/><path class="cls-1" d="M405.75,430.59a55.51,55.51,0,0,0,22.95-31.38l.9-3.54c.26-1.18.37-2.4.56-3.6l.26-1.81.13-.91.05-.91.2-3.65a58.92,58.92,0,0,0-4.57-25.21,62,62,0,0,0-14.51-21.38,54.09,54.09,0,0,0-19.61-11.86,60.9,60.9,0,0,0-14.4-3,102.63,102.63,0,0,0-14.78-.18c-3.08.15-2.9-1.18-.35-2.73a17.7,17.7,0,0,1,2.35-1.17,27.82,27.82,0,0,1,3.16-1,24.37,24.37,0,0,1,3.86-.61,25.6,25.6,0,0,1,4.39,0,61.07,61.07,0,0,1,43,21.23,65.63,65.63,0,0,1,8.93,13.61,77.63,77.63,0,0,1,6.4,18.6,65.86,65.86,0,0,1,1.19,9.92c0,.83.06,1.67.05,2.5l-.13,2.49-.13,2.48-.06,1.24c0,.41-.12.82-.18,1.23a61.2,61.2,0,0,1-19.43,38,61.84,61.84,0,0,1-23,13.14,68.78,68.78,0,0,1-19.83,3,76,76,0,0,1-19.76-2.55,65.54,65.54,0,0,1-27.09-14.12c-.83-.77-1.72-1.47-2.51-2.28l-2.37-2.45c-1.4-1.61-2.49-3-3.36-4.2s-1.43-2.26-1.88-3.13a7.15,7.15,0,0,1-.93-4.08,6.6,6.6,0,0,1,.2-1.46c.26-.59,1-.27,2.09.78a23.56,23.56,0,0,1,1.85,2.11c.76.83,1.59,1.83,2.47,3a72,72,0,0,0,9.17,9.14A64.82,64.82,0,0,0,342,433c1,.47,2,1,3,1.43l3.06,1.28c2.09.73,4.18,1.49,6.35,2a67.56,67.56,0,0,0,13.24,2.2c1.66.15,3.34.12,5,.2l5-.22c.42,0,.83,0,1.25-.06l1.23-.18,2.47-.34c.82-.14,1.66-.18,2.47-.39l2.42-.58a57.11,57.11,0,0,0,18.21-7.83Z"/><path class="cls-1" d="M170.84,300.53q-3.76,9.9-7.52,19.8c-.92,2.41-1.74,4.85-2.66,7.26-3.24,8.48-6.52,16.94-9.74,25.43-1.43,3.76-2.78,7.58-4.1,11.35-1.68,4.85-3.22,9.78-5.3,14.49-1.29,2.93-2.81-1.94-.82-7.51,3.52-9.88,7.22-19.68,11.24-29.47,2.41-5.85,4.52-12.08,6.79-18.14q3.74-10,7.52-20c1.54-4.09,3.09-8.19,4.62-12.29,2.3-6.21,4.67-12.44,6.87-18.64,1.71-4.82,3.21-9.61,4.8-14.41.35-1.06.66-2.1,1-3.16,1.37-3.93,2-5.1,3.13-5.65a4.2,4.2,0,0,1,.75-.36c.76-.15.7,1.63-.16,4.56-2.54,8.7-5.71,17.69-9,26.68-2.42,6.68-4.93,13.37-7.4,20.05Z"/><path class="cls-1" d="M142.93,385.15c0,5.12-7.12,7.13-9.81,2.72C128.56,380.41,142.93,376.3,142.93,385.15Z"/><path class="cls-1" d="M369.22,389.53c-4.45-2.47.46-11.84,5.79-9.61S377.71,394.26,369.22,389.53Z"/><path class="cls-1" d="M217.5,323.24l-8.71-3.84c-1.06-.46-2.16-.84-3.22-1.31l-11.17-5c-1.66-.73-3.36-1.37-5-2a39,39,0,0,1-6.42-2.62c-1.25-.73,1.59-2.92,4.07-2a135.32,135.32,0,0,1,13,5.75c2.53,1.3,5.33,2.27,8,3.42l8.8,3.8,5.42,2.34c2.75,1.15,5.49,2.36,8.25,3.41,2.15.83,4.32,1.46,6.48,2.17.48.16,1,.28,1.43.46,1.75.64,2.22,1.06,2.28,2a4.79,4.79,0,0,1,0,.65c-.08.67-1,.9-2.33.57a91.77,91.77,0,0,1-12-4.09c-3-1.18-5.91-2.45-8.86-3.68Z"/><path class="cls-1" d="M325.52,362.2c3.17,1.39,6.34,2.79,9.52,4.16,1.16.51,2.36.92,3.51,1.43,4.08,1.8,8.14,3.65,12.22,5.43,1.81.79,3.67,1.49,5.51,2.17a46.42,46.42,0,0,1,7,2.86c1.38.78-1.62,2.91-4.33,1.86-4.79-1.86-9.52-3.9-14.17-6.24-2.78-1.4-5.83-2.47-8.75-3.71-3.21-1.37-6.41-2.76-9.62-4.14-2-.84-3.94-1.7-5.92-2.53-3-1.26-6-2.56-9-3.72-2.35-.9-4.71-1.61-7.07-2.4-.52-.18-1-.32-1.55-.51-1.92-.71-2.44-1.15-2.53-2.11a3.56,3.56,0,0,1,0-.65c.06-.68,1-.88,2.5-.5a108.74,108.74,0,0,1,13.06,4.51c3.24,1.3,6.46,2.67,9.69,4Z"/><path class="cls-1" d="M352.05,342.14l-7-16.64c-.86-2-1.8-4-2.65-6L333.47,298c-1.31-3.17-2.72-6.33-4.11-9.44-1.77-4-3.74-7.92-5-12.26a2.81,2.81,0,0,1-.09-.49,1.43,1.43,0,0,1,0-.48c.06-.25.19-.33.35-.32a1.57,1.57,0,0,1,.59.25,5.7,5.7,0,0,1,.76.46,11.28,11.28,0,0,1,3.6,4.74c3.48,8.19,6.95,16.43,10.15,24.86,1.93,5,4.32,10.11,6.49,15.18l7.14,16.73q2.21,5.14,4.42,10.28c2.26,5.18,4.48,10.41,6.82,15.5,1.82,4,3.77,7.78,5.67,11.65.42.85.85,1.67,1.26,2.54,1.51,3.21,1.78,4.32,1.32,5.36-.1.25-.2.5-.31.72a.32.32,0,0,1-.43.18,1,1,0,0,1-.34-.22,2.14,2.14,0,0,1-.35-.29,11.11,11.11,0,0,1-1.7-2.48c-3.7-6.79-7.1-14.17-10.44-21.62-2.48-5.53-4.89-11.12-7.33-16.68Z"/><path class="cls-1" d="M331.19,383.15c2.16.11,4.32.23,6.48.32.79,0,1.58,0,2.37,0,2.78.16,5.56.36,8.34.5,1.23.06,2.47,0,3.7,0a18.19,18.19,0,0,1,4.72,0c1,.22-.26,3.31-2.08,3.34a62.58,62.58,0,0,1-9.65-.52,55.79,55.79,0,0,0-5.94-.19l-6.53-.27-4-.15c-2,0-4.07-.15-6.09-.1-1.56,0-3.1.26-4.65.4-.34,0-.67.09-1,.11-1.27.05-1.68-.17-1.95-1-.06-.19-.14-.39-.18-.58-.12-.66.4-1.21,1.33-1.4a43,43,0,0,1,8.62-.67c2.17,0,4.36.08,6.54.12Z"/><path class="cls-1" d="M209.6,383.15c6.71.11,13.43.23,20.14.32,2.45,0,4.9,0,7.34,0,8.64.16,17.27.36,25.9.5,3.83.05,7.68,0,11.48,0,4.88-.07,9.78-.3,14.66,0,3,.22-.82,3.31-6.44,3.34-10,.06-19.94-.08-30-.52-6-.27-12.27-.13-18.42-.19L214,386.36l-12.48-.15c-6.3,0-12.64-.15-18.89-.1-4.87,0-9.63.26-14.44.4-1.06,0-2.09.09-3.16.11-4,.05-5.22-.17-6.07-1a3.77,3.77,0,0,1-.56-.58c-.38-.66,1.23-1.21,4.13-1.4,8.6-.58,17.66-.66,26.76-.67,6.76,0,13.55.08,20.32.12Z"/><path class="cls-3" d="M186.56,250.53l.15.12,6.09,4.45.16.12a7.2,7.2,0,0,0,1.85-2.53l-.16-.12-6.08-4.46-.16-.11A7.23,7.23,0,0,0,186.56,250.53Z"/><path class="cls-3" d="M168.83,236.48l.11.09,4.49,3.48.12.1a9.82,9.82,0,0,0,1.92-2.48l-.12-.1-4.48-3.48-.12-.09A9.82,9.82,0,0,0,168.83,236.48Z"/><path class="cls-1" d="M333.87,270.47c-1.9,1.32-3.83,2.5-5.73,3.66-.69.42-1.29,1-2,1.36-2.47,1.41-5,2.7-7.31,4.16a16,16,0,0,0-2.8,2.27c-1.08,1.07-1.82,2.32-3,3-.36.2-1.57-.46-2.44-1.57s-1.27-2.78-.51-3.6a21.2,21.2,0,0,1,4.15-3.5,27.39,27.39,0,0,1,4.51-2.38,37.12,37.12,0,0,0,5.1-3.17c1.86-1.15,3.71-2.28,5.48-3.49a39.11,39.11,0,0,0,3.16-2.34,15.88,15.88,0,0,0,3.84-4.17,4.74,4.74,0,0,0,.47-3.52,3.66,3.66,0,0,1-.25-.6c-.29-.71-.13-1,1-2,.26-.21.51-.44.77-.64a1.91,1.91,0,0,1,1.41-.45,2,2,0,0,1,1.37.93,7,7,0,0,1,1.06,3,6.86,6.86,0,0,1,0,1.63,7.8,7.8,0,0,1-.26,1.57,13.37,13.37,0,0,1-2.66,5,33.14,33.14,0,0,1-5.38,5Z"/><path class="cls-1" d="M317.54,238c-3.2,1.44-6.47,2.67-9.77,3.78-1.2.42-2.4.84-3.61,1.22-4.29,1.25-8.64,2.28-13,3.15l-5.8,1.21a42.12,42.12,0,0,1-7.49,1.15c-1.59,0,.13-2.48,2.91-2.94,5-.82,10-1.75,15-2.72a82,82,0,0,0,9-2.54c3.28-1.05,6.52-2.21,9.69-3.55,1.95-.82,3.87-1.72,5.74-2.7a55.52,55.52,0,0,0,8.12-5.07,39.74,39.74,0,0,0,5.27-5c.34-.41.65-.82,1-1.22,1.28-1.5,1.72-1.94,2.52-1.88a3,3,0,0,1,.53,0c.53.14.34,1-.5,2.34a37.53,37.53,0,0,1-10.26,9.68,71.09,71.09,0,0,1-9.33,5.13Z"/><path class="cls-1" d="M115.34,398.74a22.26,22.26,0,0,1-3.75-11.89,23.08,23.08,0,0,1,.25-4.55,26.55,26.55,0,0,1,7.36-13.7,30.38,30.38,0,0,1,5.35-4.38,16.35,16.35,0,0,1,8.34-3c.94-.05.86.8.27,1.72a5.45,5.45,0,0,1-1.23,1.33,5.3,5.3,0,0,1-1.78,1A25.83,25.83,0,0,0,117.94,375a19.86,19.86,0,0,0-3.16,9.31,20.59,20.59,0,0,0,.19,5.43,19.78,19.78,0,0,0,1.77,5.17,24.78,24.78,0,0,0,1.75,2.92,26.43,26.43,0,0,0,2.25,2.59,23.07,23.07,0,0,0,8.75,5.58,19.59,19.59,0,0,0,7.82.91l.85-.06.84-.14c.53-.08,1-.12,1.34-.14a4.4,4.4,0,0,1,.91-.06,1.72,1.72,0,0,1,1.21.59,4.41,4.41,0,0,1,.48.49c.41.57-.37,1.33-2.1,1.92a20.43,20.43,0,0,1-8.19.46,23.8,23.8,0,0,1-8-2.71,26.59,26.59,0,0,1-5.19-3.63,26.88,26.88,0,0,1-4.16-4.81Z"/><path class="cls-1" d="M381.38,403.67a18.32,18.32,0,0,0,7.67-7.08,21.75,21.75,0,0,0,1.57-3.56,23.37,23.37,0,0,0,.48-13.86,19.21,19.21,0,0,0-2.61-5.71,30.7,30.7,0,0,0-5.43-5.78c-.59-.58-.09-1.23,1-1.44a4.76,4.76,0,0,1,2,.09,5.34,5.34,0,0,1,2.11,1.25,23.93,23.93,0,0,1,6.83,17A29,29,0,0,1,393,395.6a22.26,22.26,0,0,1-3.2,5.34,22.61,22.61,0,0,1-4.62,4.13A24.89,24.89,0,0,1,381.9,407a29.79,29.79,0,0,1-3.52,1.31,28.1,28.1,0,0,1-11.19,1,26.68,26.68,0,0,1-8.43-2.17l-.89-.38-.84-.49c-.52-.33-.95-.61-1.28-.86a4.9,4.9,0,0,1-.72-.79,1.59,1.59,0,0,1-.31-1.36,3.15,3.15,0,0,1,.14-.64c.3-.61,1.36-.44,2.65.39a26.28,26.28,0,0,0,18.86,2.61,22.56,22.56,0,0,0,5-1.93Z"/><path class="cls-1" d="M236.68,128.5c.34-.32.15-.31-.57,0a2.5,2.5,0,0,1,.38.15,3.24,3.24,0,0,1,.63.41,16.81,16.81,0,0,1,1.27,1.11c.69.63,3.39-.46,2.71-1.09a6.92,6.92,0,0,0-3.08-2,4.37,4.37,0,0,0-4,1.43c-.46.52.4.74.76.74a2.64,2.64,0,0,0,1.92-.76Z"/><path class="cls-1" d="M237.25,149.89a6.94,6.94,0,0,0,8.07-3c.68-1.26-2.23-1-2.71-.12a2.76,2.76,0,0,1-3.6,1.48c-1-.35-3.39,1.07-1.76,1.65Z"/><path class="cls-1" d="M234.21,124.62c2.19-1.84,6.24-1.54,8.61-.33.9.46,3.54-.83,2.29-1.47-3.93-2-9.81-1.65-13.24,1.24-1.29,1.09,1.57,1.22,2.34.56Z"/><path class="cls-1" d="M300.64,446.08q-31.17-.21-62.33-.41c-7.58,0-15.16,0-22.73,0-26.72-.19-53.43-.45-80.14-.62-11.85-.07-23.77,0-35.53,0-15.11.09-30.28.38-45.38-.05-9.41-.27,2.53-4.13,19.94-4.17,30.86-.07,61.7.1,92.81.65,18.6.33,38,.16,57,.24q31.38.13,62.79.33,19.32.09,38.64.18c19.51.07,39.1.19,58.46.14,15.05-.05,29.81-.33,44.69-.5,3.27,0,6.48-.12,9.78-.14,12.25-.06,16.15.2,18.78,1.27a13.88,13.88,0,0,1,1.73.73c1.18.83-3.82,1.51-12.78,1.75-26.6.72-54.65.83-82.81.83-20.92,0-41.93-.09-62.89-.14Z"/><path class="cls-1" d="M394.25,178.11a7.5,7.5,0,0,0,5.41,7.13,2,2,0,0,0,2-.55.81.81,0,0,0-.37-1.37,5.83,5.83,0,0,1-4.16-5.45c0-1.48-2.95-1-2.93.24Z"/><path class="cls-1" d="M402.76,175.67c.62,4,3.54,6.81,6.44,9.41.73.64,3.43-.46,2.7-1.11-2.82-2.52-5.64-5.16-6.24-9.08-.14-.91-3.06-.24-2.9.78Z"/><path class="cls-1" d="M169.25,124.34a5.86,5.86,0,0,1,4.87,4.85c.22,1.14,3.12.42,2.9-.77a7.48,7.48,0,0,0-6.7-5.92,2.07,2.07,0,0,0-1.9.83c-.3.64.27,1,.83,1Z"/><path class="cls-1" d="M162.29,132.55c3.7.94,7.85,4.42,8,8.49.07,1.49,3,1,2.93-.23-.21-4.88-4.73-9-9.28-10.17-1.21-.31-3.42,1.47-1.68,1.91Z"/><path class="cls-1" d="M413.21,275.41c1.43,3.6.16,8.14-3.48,9.89-1.8.86-.18,2.16,1.22,1.48,4.5-2.15,7.05-7.36,5.16-12.15-.47-1.18-3.34-.34-2.9.78Z"/><path class="cls-1" d="M400.19,277.8c1,2.34-1.14,6-3.91,4.83-1.2-.51-3.36,1.21-1.68,1.94,4.28,1.83,10.51-2.83,8.48-7.55-.54-1.27-3.41-.44-2.89.78Z"/><path class="cls-1" d="M453.39,335.8a8.16,8.16,0,0,0,.15,11.63c1,.95,3.45-.52,2.22-1.72a6.41,6.41,0,0,1,.08-9c1.29-1.28-1.48-1.88-2.45-.92Z"/><path class="cls-1" d="M459.64,340.45c-1.08,5.78,2.76,9.59,7.77,11.7.77.33,3-.87,2.73-1-4.77-2-8.69-5.68-7.65-11.26.11-.6-2.73-.15-2.85.53Z"/><path class="cls-1" d="M278.75,394.43c-1.54-.64-3.07-1.29-4.61-1.92-.56-.23-1.15-.37-1.71-.6-2-.84-3.92-1.73-5.89-2.54a23.68,23.68,0,0,0-2.7-.89,10.71,10.71,0,0,1-3.41-1.22c-.64-.44,1.26-3.06,2.59-2.64a37.1,37.1,0,0,1,6.84,2.89,34.47,34.47,0,0,0,4.24,1.65c1.56.61,3.11,1.25,4.66,1.87,1,.39,1.91.78,2.87,1.14,1.46.56,2.91,1.16,4.39,1.61,1.14.36,2.33.53,3.5.78.26.05.52.08.77.15.95.26,1.17.57,1.09,1.45a5.63,5.63,0,0,1-.05.59,1.25,1.25,0,0,1-1.42,1,25.44,25.44,0,0,1-6.47-1.51c-1.58-.54-3.15-1.16-4.72-1.74Z"/></g></svg>