<svg id="Layer_1" data-name="Layer 1" xmlns="http://www.w3.org/2000/svg" width="520" height="520" viewBox="0 0 520 520"><defs><style>.cls-1{fill:#221f1f;}.cls-2{fill:#232020;}.cls-3,.cls-4{fill:none;stroke:#221f1f;}.cls-3{stroke-miterlimit:10;stroke-width:2px;}.cls-4{stroke-linecap:round;stroke-linejoin:round;stroke-width:3px;}</style></defs><title>Notioly v2</title><g id="_96.Feedback" data-name="96.Feedback"><path class="cls-1" d="M372.72,204.37a2.63,2.63,0,0,0,.27-1.16c0-.14-.1-.24-.11-.35a.58.58,0,0,0-.56-.66,1,1,0,0,0-.62.3c-.28.23-.44.63-.92.69-.32.05-1.89-2-1.37-2.51a4.72,4.72,0,0,1,1.67-1,3,3,0,0,1,2.47.24,5.46,5.46,0,0,1,1.12.9,3.25,3.25,0,0,1,.7,1.16,4.86,4.86,0,0,1,.06,2.42,5.58,5.58,0,0,1-.49,1.33,5.35,5.35,0,0,1-1.36,1.67,6.5,6.5,0,0,1-1.42,1,2.43,2.43,0,0,1-.37.16c-.47.12-.64-.08-.74-.78,0-.16-.05-.32-.06-.48a1.9,1.9,0,0,1,.26-1.19c.49-.54.64-.73.9-1a2.46,2.46,0,0,0,.51-.85Z"/><path class="cls-1" d="M122.48,184.53c.89,3.53,4.37,5.36,7.73,5.67a5.17,5.17,0,0,0,3.08-.82c.68-.47.6-.86-.25-.94a7.05,7.05,0,0,1-6.21-5.08c-.23-.93-4.59.18-4.35,1.17Z"/><path class="cls-1" d="M59.15,367.27a17,17,0,0,1-7.29,1.2,15,15,0,0,1-2.67-.31,16.05,16.05,0,0,1-4.35-1.69,19.52,19.52,0,0,1-3.72-2.67c-.49-.45-1-.89-1.47-1.37s-.94-1-1.38-1.45a11.25,11.25,0,0,1-2.74-4.32c-.16-.52.57-.76,1.42-.71A2.94,2.94,0,0,1,39.22,357a25.7,25.7,0,0,0,6.13,6.58,11.73,11.73,0,0,0,5.21,1.9,14.11,14.11,0,0,0,6.12-.4,16.3,16.3,0,0,0,3.55-1.59,18.76,18.76,0,0,0,4.61-3.85,15.66,15.66,0,0,0,2.31-3.93c.11-.31.23-.61.35-.92.44-1.12.7-1.41,1.54-1.44.19,0,.39,0,.58,0,.61,0,.94.73.73,1.78a16.41,16.41,0,0,1-5,8.17,21.87,21.87,0,0,1-6.14,4.06Z"/><path class="cls-1" d="M161.55,158.4c1.37,3.89,5.94,9.11,10.44,6.2,3.68-2.37.69-7.82-.56-10.76-.54-1.27-4-.22-3.47.93.94,2.23,2.48,4.93,2.27,7.43,0,.18-.35,1.32,0,1.15-.41.2-1.79-1-2-1.22a11,11,0,0,1-3.15-4.66c-.45-1.29-3.9-.3-3.48.93Z"/><path class="cls-1" d="M150.55,159.22a24.68,24.68,0,0,1,1.13,4.06,9.05,9.05,0,0,1,.19,2.26,6.07,6.07,0,0,0-.15.92c.18,1-.83-.68.38.2-.25-.18-.94-.18-1.26-.34a4.75,4.75,0,0,1-1.05-.74,9.48,9.48,0,0,1-1.54-1.92c-.84-1.3-1.46-2.72-2.24-4-.66-1.12-4,0-3.21,1.43,2.11,3.59,4.52,9.21,9.81,7.59,4.44-1.36,2.53-7.25,1.42-10.35-.48-1.36-3.94-.38-3.48.93Z"/><path class="cls-1" d="M380.52,164c-.53,1.54-1.43,3.78-2.84,4.75-1.15.8-1.52-1-1.54-1.94,0-2.31.94-4.58,1.48-6.79.35-1.48-3.18-1-3.5.35-.68,2.83-3.19,8.23,0,10.38,4.59,3.06,8.69-3.65,9.87-7.11.47-1.38-3-1-3.5.36Z"/><path class="cls-1" d="M393.42,164.25c-1,2.91-3.45,9.42,1.59,9.88,5.53.51,7.78-5,10.07-8.9,1-1.64-2.56-1.65-3.32-.37s-1.38,2.7-2.19,4c-.57.9-2.05,3.17-3.44,2.8-1.95-.53.21-5.91.61-7,.67-1.86-2.8-1.79-3.32-.37Z"/><path class="cls-1" d="M169.15,196.82a4,4,0,0,1,.47.22c.14.05.29.14.44.21s.18,0,.29,0a1.84,1.84,0,0,0,2.2-.32c.31-.22.58-.5,1-.77.12-.1,0-.1.07,0s.28.42.37.74a2.42,2.42,0,0,1-1.14,3,7.35,7.35,0,0,1-2,.85q-.3,0-.6,0a5.39,5.39,0,0,1-.56-.08l-.55-.12-.48-.21-.58-.27c-.17-.11-.33-.23-.5-.33a15.56,15.56,0,0,1-1.35-1.08c-.16-.14-.35-.24-.5-.37a4.81,4.81,0,0,1-.42-.48,1.94,1.94,0,0,1-.15-.24,2.46,2.46,0,0,1-.2-.58l0,0a1.07,1.07,0,0,0,.43,0,10,10,0,0,0,1.39-.22,7.85,7.85,0,0,1,1.18-.13c.26,0,.5,0,.71,0s.41.1.58.09Z"/><path class="cls-1" d="M157.16,83.11c-26.11,3.63-52.61,29-51.42,42.24,1.83,20.44,50.06,25.81,76.59,6.49C204.1,116,191.82,78.3,157.16,83.11Z"/><path class="cls-1" d="M170.39,140.55c-1.42.59-2.89,1-4.34,1.52s-2.93.88-4.42,1.21a76.92,76.92,0,0,1-9,1.65,80.53,80.53,0,0,1-18.23.22,60.91,60.91,0,0,1-13.1-2.71,33.69,33.69,0,0,1-10.56-5.67,18.25,18.25,0,0,1-4.12-4.62,14,14,0,0,1-2.16-5.91,13.64,13.64,0,0,1,.65-6.25,28,28,0,0,1,2.49-5.48,51.87,51.87,0,0,1,7.17-9.3,86.27,86.27,0,0,1,15.92-13.1,79.83,79.83,0,0,1,11.66-6.21,51.66,51.66,0,0,1,12.74-3.61c2.75-.34,2.45.54.35,1.7a96.85,96.85,0,0,1-10.33,4.6,74.41,74.41,0,0,0-11.52,5.72,84.39,84.39,0,0,0-10.52,7.5,68.86,68.86,0,0,0-9.12,9.11c-2.69,3.3-5.11,6.94-6.23,10.84a11.7,11.7,0,0,0-.4,3.45c.09.58.16,1.17.27,1.75s.31,1.15.55,1.7a15,15,0,0,0,4.54,5.79c4,3.23,9.15,5.08,14.28,6.32a69.76,69.76,0,0,0,17.5,1.66,81.51,81.51,0,0,0,8.82-.73A82.76,82.76,0,0,0,162,140,60.84,60.84,0,0,0,181.64,131a25,25,0,0,0,9.24-28.63A25.62,25.62,0,0,0,184.34,92c-.7-.74-1.54-1.34-2.3-2l-1.26-.88-.62-.43-.67-.38-1.32-.76-1.38-.65c-.9-.47-1.89-.74-2.83-1.12s-1.73-.48-2.58-.72l-2.64-.49-2.3-.28c-.7-.08-1.35-.09-1.93-.13-1.17-.12-2.12-.09-2.91-.15a10.27,10.27,0,0,1-3.3-.6,7.17,7.17,0,0,1-1.06-.48c-.38-.29.12-.65,1.39-1a20.9,20.9,0,0,1,6-.74,33.52,33.52,0,0,1,11.92,2.15,28.73,28.73,0,0,1,10.5,6.88A29.14,29.14,0,0,1,195.17,114a27.73,27.73,0,0,1-8.6,17.08l-.89.83-1,.76c-.63.5-1.27,1-1.92,1.43l-1.95,1.31-2,1.19a61.17,61.17,0,0,1-8.42,4Z"/><path class="cls-1" d="M101.07,161.49c3.05-4.09,15.57-1.68,15.52-6.09-.11-10.32-15.86-24.39-20.22-24.07C71.27,133.19,83.69,184.78,101.07,161.49Z"/><path class="cls-1" d="M82,139.91a17.2,17.2,0,0,1,5.7-7.35,15,15,0,0,1,4.24-2.11,13.9,13.9,0,0,1,2.27-.55,11.16,11.16,0,0,1,1.14-.16l.57-.05.29,0h.41a6.09,6.09,0,0,1,2.05.46,13,13,0,0,1,1.59.74,20.21,20.21,0,0,1,2.75,1.77,47.54,47.54,0,0,1,7.91,7.81,35.82,35.82,0,0,1,5.71,9.57,17.44,17.44,0,0,1,1.1,5,4.8,4.8,0,0,1,0,.83,2.82,2.82,0,0,1-.24.86,3.33,3.33,0,0,1-1.17,1.35,8,8,0,0,1-2.58,1.08c-2.12.52-4.14.74-6.1,1.08a15.13,15.13,0,0,0-5.18,1.5c-.38.25-.64.29-.91.08a1.29,1.29,0,0,1-.22-1.39,4.49,4.49,0,0,1,1.73-2.2,8.09,8.09,0,0,1,3.28-1.34c2.15-.39,4.26-.55,6.09-.91a10.77,10.77,0,0,0,1.24-.3,3.7,3.7,0,0,0,.77-.33c0-.1.08.35,0-.86a17,17,0,0,0-1.56-5.26,36.87,36.87,0,0,0-3-5.14,35,35,0,0,0-4.8-5.57A37,37,0,0,0,99.31,134a6.06,6.06,0,0,0-3-1.18,14.42,14.42,0,0,0-3.76.75,12.39,12.39,0,0,0-6,4.6,19.64,19.64,0,0,0-3.18,9.18,28.26,28.26,0,0,0,.23,7.57A21.49,21.49,0,0,0,86,161.94a9.37,9.37,0,0,0,3.77,3.82,5.06,5.06,0,0,0,4.68-.13,9.84,9.84,0,0,0,1.89-1.28c1.14-.94,1.85-1.67,2.43-2.11a2.64,2.64,0,0,1,1.61-.62,3.16,3.16,0,0,1,.75,0c.7.12.41,1.59-1.25,3.61a15.11,15.11,0,0,1-2.15,2.07,10,10,0,0,1-2.8,1.63,8,8,0,0,1-7-.52,12.91,12.91,0,0,1-4.6-4.79A23.28,23.28,0,0,1,81,157.85a30.71,30.71,0,0,1-1-9,26.4,26.4,0,0,1,1.88-9Z"/><path class="cls-1" d="M187.2,124.34a43.7,43.7,0,0,0,3.88-5.18c.41-.68.71-1.42,1.11-2.12a38.26,38.26,0,0,0,3.63-7.86,22.71,22.71,0,0,0,.79-3.8c.1-.82.18-1.65.23-2.48a13.35,13.35,0,0,0,0-2.53c0-.55-.12-.45.1-.05a17.28,17.28,0,0,1,1.23,2.14,16.06,16.06,0,0,1,0,11,62.45,62.45,0,0,1-2.29,6.38,30.5,30.5,0,0,1-4.16,6.21,31,31,0,0,1-3.24,3.24,32.25,32.25,0,0,1-5.68,3.88,19.25,19.25,0,0,1-4.77,2c-.37.09-.73.17-1.11.23a8.06,8.06,0,0,1-1.52.11h-.67l-.19,0a10.41,10.41,0,0,0,1.29-.72,26.08,26.08,0,0,0,3.67-2.76c1.16-1,2.22-2,3.26-3a56.66,56.66,0,0,0,4.28-4.78Z"/><path class="cls-1" d="M90.69,128.38a8.86,8.86,0,0,1,1.63,0,11.09,11.09,0,0,1,1.62.15,7.86,7.86,0,0,1,1.17.17,10.87,10.87,0,0,1,3.74,1.87c.25.16.47.41.71.6a3.09,3.09,0,0,1,.63.67,3.16,3.16,0,0,1,.8,2.13c0,.23.06.19,0,0a2.78,2.78,0,0,0-.74-.65,22.36,22.36,0,0,0-3.45-1.68,7.42,7.42,0,0,0-2.38-.5c-.44-.08-.9-.09-1.35-.17l-1.39-.07a14.31,14.31,0,0,0-1.73.08,9.62,9.62,0,0,0-1.31.19,6.71,6.71,0,0,0-1.28.35c-.66.22-1.23.57-1.87.83l-.41.2c-.53.24-.75.26-.86.33l-.07,0a3.75,3.75,0,0,0,.35-.52,9.65,9.65,0,0,1,.6-.87l.71-.82a6.47,6.47,0,0,1,.85-.72,5.14,5.14,0,0,1,.93-.61,9.51,9.51,0,0,1,3.14-1Z"/><path class="cls-2" d="M155.49,222.68a84.31,84.31,0,0,0-2.55,9.61c-.7,3.19-1.35,6.39-2,9.58-1.29,6.38-2.59,12.75-4,19.1-.11.44,2.69,1,2.76.6,1.38-6.37,2.68-12.76,4-19.14.65-3.19,1.3-6.37,2-9.53a83.69,83.69,0,0,1,2.44-9.26C158.26,223.33,155.61,222.32,155.49,222.68Z"/><path class="cls-2" d="M128.76,256.32c2.21-14.31,5.14-28.55,8.12-42.77.13-.48-2.67-1.08-2.76-.58-3,14.24-5.92,28.5-8.15,42.93C125.9,256.3,128.7,256.71,128.76,256.32Z"/><path class="cls-1" d="M133.22,224c1.47,3.94,15.41,12.53,21.45,7.12.47-1.65,1.48-5.62,1.93-7-10.26-3.66-20.08-13.33-20.25-13.57C135.68,213.66,134.23,219.24,133.22,224Z"/><path class="cls-1" d="M147.89,217.53a50.78,50.78,0,0,0,4.38,2.81c.75.43,1.51.85,2.29,1.21.49.3,2.25,1,3.51,1.51a3.17,3.17,0,0,1,.37.16l-.12.41-.23.84-.46,1.7-.28,1-.27.93L156,231.74c0,.27-.29.37-.47.53l-.58.44a10.24,10.24,0,0,1-.93.53,8.52,8.52,0,0,1-1.94.65,14.53,14.53,0,0,1-7.43-.76,34.91,34.91,0,0,1-5.82-2.58,25.81,25.81,0,0,1-3.44-2.22,9.45,9.45,0,0,1-2.8-3.26c-.21-.48-.08-.79.19-.86a2.89,2.89,0,0,1,1.18.06,6.31,6.31,0,0,1,3.13,1.29,30.18,30.18,0,0,0,6.26,3.9,18,18,0,0,0,6.91,1.87,5.85,5.85,0,0,0,2-.3,4.61,4.61,0,0,0,.87-.41l.2-.12.08-.06s.13-.06.13-.13l.57-2.08c.23-.8.46-1.6.68-2.39l.1-.33,0-.11.06-.2L155,225s0-.07-.06-.08l-.13-.06-.56-.26-1.17-.56a48.36,48.36,0,0,1-4.82-2.74c-1.92-1.22-3.73-2.56-5.51-3.94-1-.75-1.92-1.54-2.86-2.34l-1.38-1.21-.87-.79-.75-.72,0-.05a.14.14,0,0,0,0,.07l0,.14-.06.28c0,.17-.07.34-.1.51-.06.32-.11.64-.15.93l-.3,1.67-.58,3.35c-.1.56-.17,1.11-.28,1.66-.43,2.07-.78,2.69-1.64,3a3.7,3.7,0,0,1-.6.18c-.63.07-.93-.87-.75-2.42s.42-3.19.7-4.8l.45-2.44.36-1.68.54-2.47,1.78-.41,1.8-.39,1.07,1,.89.81.45.4.25.22,1,.86q1,.86,2,1.68c1.38,1.09,2.78,2.17,4.24,3.15Z"/><path class="cls-1" d="M140.32,415.37c-5.94-16.76-2.81-80,2.77-121.23,1.16-8.59,3.86-24.92,5.18-32.61-6.16.07-13.7,0-21-5.12-6.79,45.19-15.57,121-11.15,154.23C116.17,410.64,138.61,421.21,140.32,415.37Z"/><path class="cls-1" d="M119.91,297.66q1.71-13.57,3.67-27.1l2.27-15.26.23-1.51c.38.17.84.51,1.25.75l2.5,1.57.62.38.3.19.2.1.72.36c.47.26,1,.45,1.45.67a26.86,26.86,0,0,0,6.21,1.73,37.88,37.88,0,0,0,4.4.42c.77,0,1.44,0,2.3.05l4,0-2,12.38c-1.85,11.54-4,23-5.28,34.65s-2.46,23.25-3.28,34.91c-.71,10.34-1.15,20.77-1.27,31.05,0,6.61,0,13.23.32,19.82q.19,4.95.63,9.86a83.19,83.19,0,0,0,1.34,9.68c.19,1,.35,1.68.4,2.15s0,.7-.16.72-.39-.17-.7-.58a9.2,9.2,0,0,1-1.07-1.83c-1.62-3.26-3.15-9.75-3.56-17.43-.67-13.63-.32-27.2.36-40.77s1.85-27.13,3.42-40.7q.73-6.09,1.48-12.28c.52-4.12,1.07-8.27,1.77-12.4,1.32-8.27,2.64-16.59,4-24.84l.25-1.5-1.7,0c-1.11,0-2.22-.07-3.33-.17A34.42,34.42,0,0,1,135,261.5a31.27,31.27,0,0,1-3.2-1.14c-.52-.23-1-.45-1.54-.72l-.76-.38c-.21-.11-.25-.15-.38-.22l-.34-.2-.26-.18-.26-.17c-.06,0-.05.17-.07.26l-.28,1.78c-1.3,8.55-2.5,17.11-3.65,25.68q-2.23,16.79-4,33.6c-1.78,17-3.34,34.09-4,51-.24,6.58-.35,13.1-.21,19.59l.13,4.86c0,1.62.18,3.23.27,4.84s.15,3.24.36,4.83l.51,4.57c0,.14,0,.31.16.33l.5.22,2,.81c1.31.54,2.62,1.05,4,1.56a76,76,0,0,0,10.6,3.29,15.91,15.91,0,0,0,4.6.53,2.47,2.47,0,0,0,1.3-.71c.24-.2.37-.12.29.4a2,2,0,0,1-.49.95,3.44,3.44,0,0,1-1.33.88c-2.27.86-5.55.46-9.44-.55a87.87,87.87,0,0,1-8.49-2.81c-1.4-.54-2.79-1.1-4.17-1.69L115,412a2,2,0,0,1-.44-.23l-.06-.5-.11-1-.28-2.48c-.16-1.51-.39-3-.48-4.53s-.18-3-.28-4.54l-.14-2.28,0-2.29c0-1.52-.07-3-.11-4.57-.14-12.23.45-24.58,1.3-36.92,1.25-18.34,3.24-36.68,5.45-54.95Z"/><path class="cls-1" d="M412.7,225.08c-2.2,3.58-18,18.35-23.46,8.65-.14-1.71.5-6.4.34-7.86,11.52,1.14,23.53-13.5,23.75-13.7C413.38,215.34,412.64,220.19,412.7,225.08Z"/><path class="cls-1" d="M400.94,224.9a25.84,25.84,0,0,1-5.55,2.07,14.4,14.4,0,0,1-1.48.32l-1.51.17-.38,0-.18,0h-.06l-.22,0a2.29,2.29,0,0,0-.44,0,1.37,1.37,0,0,1,0,.19l0,.35-.07,1.1c-.05.73-.1,1.45-.17,2.16s-.12,1.24-.14,1.81c0,.13,0,.2,0,.28l0,0,.09.16a1.44,1.44,0,0,0,.22.31,4.43,4.43,0,0,0,2.35,1.67c2,.55,4.42-.16,6.59-1.17a27.07,27.07,0,0,0,5.49-3.6c2.15-1.8,4.14-3.9,6-5.81.51-.55,1.15-.16,1.29.94a5.18,5.18,0,0,1-1.59,4,38.57,38.57,0,0,1-7.27,5.73,23.9,23.9,0,0,1-4.29,2.06,12.76,12.76,0,0,1-5,.85,8,8,0,0,1-3.2-.79,7.23,7.23,0,0,1-2.6-2.1,6.08,6.08,0,0,1-.47-.66l-.32-.5a.78.78,0,0,1-.19-.52,10,10,0,0,1,0-1l0-.72c.05-.95.13-1.87.22-2.77l.15-1.79a21.66,21.66,0,0,0,0-3c1.05,0,2.18.05,3.25.06h.33l.24,0,.48-.06,1-.1c.65-.11,1.28-.3,1.93-.45s1.26-.44,1.89-.65a32.08,32.08,0,0,0,6.25-3.44,51.86,51.86,0,0,0,4.3-3.41c.35-.3.68-.62,1-.93l.65-.62.71-.73c.93-1,1.88-2,2.79-3l1.11-1.24c.17-.08.11.53.14.9l0,1.2,0,2.48-.15,4.77c0,.62,0,1.23,0,1.85-.06,2.3-.24,3-1,3.52a3.32,3.32,0,0,1-.53.33c-.6.24-1.13-.73-1.25-2.49-.06-.89-.09-1.79-.1-2.69V217.5c-.08-.17-.13-.14-.17-.08s-.05.1,0,.09A45.74,45.74,0,0,1,401,225Z"/><path class="cls-1" d="M125.3,165.85c-7.51-4.73-16.83-4.46-23.85,2.56l-3.92,7c6,1.51,17.3,5.25,17.9,9.67,1.31,3-1.57,2-5.25.66,3.63,1.45,6.57,1.45,6.4,4.95-.41,8.53-8.36-.95-14.81-2.49,6.47,2,12,5.43,12,10.23-.09,1.36-8.25-6.1-18.79-5.29,0,0-8.92.62-12.36,7.76-5.31,11,1.54,19.17,9.2,22.88,12.33,6,20.24-2.92,22.45-7.36.11-.28,16.53-30.58,16.53-30.58S138.23,174,125.3,165.85Zm-25.51,45.7c-1.67,1.7-5.14-.14-4.45-2.51a2.06,2.06,0,0,1,.82-1.1,2.9,2.9,0,0,1,4.21,1.27A2.1,2.1,0,0,1,99.79,211.55Z"/><path class="cls-1" d="M193.61,337.49c-.67-8.93-1.32-17.86-2.17-26.76-.32-3.24-.75-6.47-1.13-9.7a131.59,131.59,0,0,0-2.8-16.83,49.72,49.72,0,0,0-6.88-15.3A76,76,0,0,0,171,257.3c-4.56-4.57-9.57-8.76-14.11-13.47-2.82-2.92,3-1.67,8.58,3.41a132,132,0,0,1,14,14.6,56.19,56.19,0,0,1,9.91,18.05c.36,1,.59,2,.87,3l.41,1.52.34,1.52q.65,3,1.16,6.12c.69,4.1,1.27,8.22,1.73,12.32,1,9,1.7,18,2.41,27q.64,8.31,1.3,16.62c.7,8.37,1.39,16.79,2.45,25.06a163,163,0,0,0,3.49,18.81c.35,1.35.75,2.64,1.17,4,.77,2.44,1.41,3.94,1.83,4.95a9.85,9.85,0,0,1,.71,2.24c0,.32.23.62.27.89s-.05.34-.32.36a2,2,0,0,1-.52-.08,4.19,4.19,0,0,1-.69-.33,9.32,9.32,0,0,1-3-3.87,48.62,48.62,0,0,1-2.87-8.53c-.73-2.91-1.31-5.86-1.83-8.83-1-5.95-1.75-12-2.39-18.06-.95-9-1.64-18.05-2.38-27.06Z"/><path class="cls-1" d="M186.35,189a54.92,54.92,0,0,1,.71,10.65,37,37,0,0,1-1.84,10.64,23.74,23.74,0,0,1-3.67,7.12,20.64,20.64,0,0,1-5.26,4.82,21.15,21.15,0,0,1-6.6,2.6,27.64,27.64,0,0,1-13.74-1A49.54,49.54,0,0,1,145,218.73,51,51,0,0,1,133.25,209c-1.06-1.19-.35-1.55,1.11-1.14A11.4,11.4,0,0,1,137,209a18.47,18.47,0,0,1,3.15,2.2,57,57,0,0,0,12.36,8.1,39.71,39.71,0,0,0,6.88,2.45,26,26,0,0,0,7.19.7,16.72,16.72,0,0,0,8.24-2.59,18.68,18.68,0,0,0,5.92-6.47,26.8,26.8,0,0,0,3.1-9.39,44.51,44.51,0,0,0,.22-10.13c-.36-4.16-1.23-8.37-2-12.58-1.19-6.38-2.39-12.79-3.57-19.12a115.22,115.22,0,0,1-2.06-14.86c-.05-1.11-.08-2.21-.05-3.34.2-4.21.83-5.51,1.74-6.2a3.28,3.28,0,0,1,.64-.45c.33-.12.54.25.61,1a9,9,0,0,1,0,1.4c0,.56,0,1.2-.06,1.91-.39,8.52,1.54,17.58,3.25,26.75,1.32,6.81,2.65,13.65,3.84,20.58Z"/><path class="cls-1" d="M43.93,365a21,21,0,0,1-5.6-5.95,31,31,0,0,1-3.36-7.2,50.43,50.43,0,0,1-1.83-7.56c-.25-1.27-.36-2.55-.54-3.82s-.27-2.55-.33-3.82a159.82,159.82,0,0,1,1.44-30.33c.95-7.3,2.12-14.57,3.56-21.76,2.57-12.69,5.71-25.24,9.19-37.68s7.31-24.79,11.41-37c.92-2.71,1.85-5.43,2.77-8.15l1.43-4.06.36-1a3.57,3.57,0,0,1,.28-.64l.31-.52c.42-.64.85-1.23,1.29-1.82a67.61,67.61,0,0,1,12.25-12.3,40.52,40.52,0,0,1,9-5.31,22,22,0,0,1,10.52-1.73,47.68,47.68,0,0,1,10.18,2.43,39.77,39.77,0,0,1,4.83,2,18.35,18.35,0,0,1,4.51,3l-.11-.09a4.06,4.06,0,0,1,1.21,1.65,6.61,6.61,0,0,1,.46,1.77,4.1,4.1,0,0,1-.32,2.22,2.1,2.1,0,0,1-.62.76,1.63,1.63,0,0,1-.58.25c-.71,0-.78-.18-.49-.4a1.71,1.71,0,0,0,.53-.6,2.13,2.13,0,0,0,.09-1.2,5.24,5.24,0,0,0-.5-1.51,2.75,2.75,0,0,0-1.07-1.23l-.1-.09a26,26,0,0,0-6.1-2.79,80.58,80.58,0,0,0-8.37-2.35,28.3,28.3,0,0,0-5.13-.76,17.53,17.53,0,0,0-5,.62,30.92,30.92,0,0,0-9.4,4.54,57.13,57.13,0,0,0-8.24,7c-1.27,1.28-2.5,2.62-3.67,4-.58.69-1.15,1.39-1.68,2.1-.27.35-.53.71-.78,1.06l-.34.51-.13.22a.14.14,0,0,1,0,.05c-5,13.93-9.66,28.17-14,42.51a476.68,476.68,0,0,0-12.73,53.36A237.72,237.72,0,0,0,35,323.28a111.71,111.71,0,0,0,.22,15,70,70,0,0,0,1,7.38,47.11,47.11,0,0,0,2,7.08,23.55,23.55,0,0,0,4.59,7.59l.76.79a9.52,9.52,0,0,0,.83.72c.28.22.55.48.85.69l.92.59a14.18,14.18,0,0,0,1.92,1,7.49,7.49,0,0,0,1,.41l1,.34c.1.05.18,0,.33,0l.56,0a10,10,0,0,0,1.09-.08l1.09-.15c.35-.07.7-.17,1.06-.26a13.08,13.08,0,0,0,4-1.73,15,15,0,0,0,3.3-2.86,20.59,20.59,0,0,0,2.58-3.63,45.19,45.19,0,0,0,4.58-13,111.22,111.22,0,0,0,1.89-13.89A265.43,265.43,0,0,0,71,301.21c-.46-14.51-1.7-28.7-2.33-43.09-.14-3.17-.27-6.27-.28-9.48,0-11.9,1.13-15.83,2.49-18.13a8.51,8.51,0,0,1,1-1.46c.22-.22.33-.08.34.36a7.07,7.07,0,0,1-.08.88c0,.37-.08.82-.16,1.33-.24,2.08-.56,5.36-.66,9.63-.18,6.34.09,12.82.42,19.36s.76,13.18,1.15,19.85c.77,13.37,1.47,27,1.08,40.69-.17,5.09-.48,10.2-1.14,15.3a73.36,73.36,0,0,1-3.41,15.21,35.06,35.06,0,0,1-3.48,7.23,20.45,20.45,0,0,1-5.74,6,17.57,17.57,0,0,1-8,2.84c-.34.05-.69,0-1,.06l-1.31.06c-.3-.08-.57-.19-.76-.25l-.5-.17-1-.35c-.65-.26-1.27-.6-1.9-.9a20.7,20.7,0,0,1-1.8-1.11Z"/><path class="cls-1" d="M84.59,198.37c4.63-4.8,10.48-5.45,16.58-3.56,3.19,1,6.08,3.41,9.33,4s7.53-.86,6-4.72c-1.73-4.27-8.28-6.21-12.24-7.33-4.77-1.35-10-2.33-14.92-1.68-1.73.22-3.55,2.07-.7,1.69,5.19-.68,11.21,1,16,2.89,2.36.9,5.34,2.14,7,4.22.35.44,1.31,1.6,1.12,2.23-.37,1.24-2.08-.37-3.18-.93-9.55-4.87-20.9-4.66-28.63,3.36-.93,1,3,.56,3.7-.21Z"/><path class="cls-1" d="M91.85,182.23c5.34-.87,12.06,1.46,16.87,3.65,1.81.82,4.6,2,5.55,3.91.45.92-.13,2,.25,2.81,2.07.6,2.46.51,1.17-.25L113.85,191c-.94-.69-4.5.91-3.81,1.42,2,1.52,4.86,4,7.5,1.77,2.28-2,1.07-5.63-.85-7.28-5.69-4.87-16.8-7.46-24.12-6.27-1.68.28-3.57,2.1-.72,1.63Z"/><path class="cls-1" d="M74.24,222.25c.89-1.3,2.52-2,3.68-3a10,10,0,0,0,3-5.44c.31-1.36-2.65-1-2.93.24A7.78,7.78,0,0,1,74.78,219a12.51,12.51,0,0,0-3.3,3c-.42.61.36,1.08.86,1.15a2,2,0,0,0,1.9-.87Z"/><path class="cls-1" d="M93.45,246.52c2.51-1.12,5.06-2.1,7.61-3,.93-.33,1.83-.75,2.77-1.06,3.32-1.09,6.67-2,10-2.9,1.49-.4,3-.87,4.41-1.34A24.38,24.38,0,0,1,124,236.7c1.24-.08.46,3.28-1.65,3.88-3.79,1.07-7.6,2.06-11.5,2.9a58.92,58.92,0,0,0-6.92,2.28c-2.52.9-5,1.84-7.47,2.89-1.51.65-3,1.34-4.45,2.09a36.52,36.52,0,0,0-6.22,3.93,16.46,16.46,0,0,0-3.53,4.12c-.17.34-.35.67-.52,1-.6,1.23-.82,1.53-1.77,1.62-.21,0-.43.06-.64.06a.75.75,0,0,1-.73-.56,2.6,2.6,0,0,1,0-1.59,12.51,12.51,0,0,1,3-5.06,25.32,25.32,0,0,1,4.44-3.73,55.72,55.72,0,0,1,7.34-4.08Z"/><path class="cls-1" d="M59.88,376.26a20.91,20.91,0,0,1-5.94,1.5,22.75,22.75,0,0,1-3.09.11l-1.53-.17-.76-.08-.75-.17a21.51,21.51,0,0,1-4.25-1.29,27.58,27.58,0,0,1-6.37-4.2c-.91-.87-1.84-1.71-2.67-2.64l-1.23-1.39-.61-.7-.56-.74c-.64-.88-1.37-1.71-2-2.6l-1.91-2.64c-.75-1.16-1.51-2.32-2.27-3.48A27.29,27.29,0,0,1,24.14,354c-.62-1.6,3.17-1.08,4.62,1.56a69.4,69.4,0,0,0,9.32,13,20.27,20.27,0,0,0,8.06,5.12,16.73,16.73,0,0,0,5.09,1,18.5,18.5,0,0,0,5.21-.63,22.06,22.06,0,0,0,6-2.78,27.85,27.85,0,0,0,7.3-7,24.46,24.46,0,0,0,3.38-6.93c.14-.54.3-1.06.4-1.6.49-2,.63-2.51,1.53-2.94a5.59,5.59,0,0,1,.6-.3c.34-.1.63.07.84.51a3.68,3.68,0,0,1,.27.88,6.64,6.64,0,0,1,0,1.19,20.4,20.4,0,0,1-2.35,7.55,30.72,30.72,0,0,1-4.64,6.56,32.68,32.68,0,0,1-4.5,4,28,28,0,0,1-5.33,3Z"/><path class="cls-1" d="M143.68,351.08c.14-3.77.25-7.53.43-11.29l.62-11.27q.24-4.12.48-8.22c.79-9.65,1.71-19.28,2.92-28.87.52-4.27,1-8.55,1.55-12.78.39-2.72.63-5.45,1.14-8.16.24-1.36.48-2.72.75-4.07s.7-2.69,1.09-4c.5-1.66,1.24-1.2,1.69.39a18.4,18.4,0,0,1,.11,7.33c-1.86,10.86-3.18,21.9-4.63,33q-.32,2.49-.57,5c-.16,1.7-.28,3.41-.41,5.12-.26,3.43-.48,6.89-.69,10.31-.26,3.76-.5,7.53-.67,11.3l-.29,5.65-.2,5.66c-.07,2.32-.18,4.64-.21,7l-.08,7c0,7,.06,14.09.5,21l.13,2,.2,2,.45,4c.16,1.32.26,2.65.49,4s.43,2.62.64,3.94c.19,1.16.4,2.29.56,3.46.9,4.26,1,5.66.31,6.78a4,4,0,0,1-.45.75c-.56.58-1.44-1.08-2.27-4.28-2.33-9.49-3.16-19.73-3.58-29.95-.11-3.8-.16-7.6-.21-11.41l.12-11.42Z"/><path class="cls-1" d="M108.13,342l2.75-22c.34-2.67.59-5.35.94-8,1.24-9.4,2.56-18.79,3.73-28.2.54-4.17.93-8.38,1.31-12.53.4-5.33.74-10.72,1.2-16,.16-1.64,1-1.44,1.74,0a11.37,11.37,0,0,1,1,3,16.54,16.54,0,0,1,.22,4.25c-.8,11-2.24,21.87-3.92,32.8-1,6.53-1.67,13.38-2.51,20.08q-1.36,11.06-2.74,22.12c-.56,4.54-1.07,9.08-1.57,13.62-.36,3.44-.72,6.89-1.07,10.33s-.62,6.89-.89,10.31c-.34,5.33-.5,10.56-.56,15.82,0,1.16,0,2.29,0,3.46,0,4.32-.25,5.68-1.12,6.62a4.33,4.33,0,0,1-.59.61c-.67.43-1.19-1.35-1.33-4.56a238.06,238.06,0,0,1,1.1-29.51c.64-7.41,1.46-14.84,2.28-22.25Z"/><path class="cls-1" d="M85.58,347.53a61.53,61.53,0,0,0,4.69-16.4,65.58,65.58,0,0,0,0-17.14c-.53-4.23-1.27-8.46-1.88-12.72-2.17-15-4.12-30.17-4.09-45.46,0-3.39.09-6.8.34-10.19.08-1.7.28-3.39.43-5.08s.4-3.37.72-5a64.63,64.63,0,0,1,3.31-12.71,37.88,37.88,0,0,1,6.67-11.41c1.86-2.08,2.24-1.13,1.51,1.14s-2.3,5.95-4.08,10.28c-3.23,7.71-4.6,16.24-5.17,24.81a200.76,200.76,0,0,0,.31,26.05c.71,10.47,2.57,21.28,4.16,32,.43,2.94.86,5.89,1.22,8.86.16,1.5.27,3,.4,4.53s.08,3,.13,4.55a62.75,62.75,0,0,1-2.74,17.95,76.57,76.57,0,0,1-4.13,10.36,107.45,107.45,0,0,1-5.45,9.66c-5.94,9.46-13.12,18-18.7,27.37-4.3,7.25-7.5,15-8.25,23.21a21.77,21.77,0,0,0-.18,2.67c0,.9-.11,1.78,0,2.69,0,3.37.33,5.56.31,7.15a7.37,7.37,0,0,1-.33,3.33,6,6,0,0,1-.44,1.09c-.29.41-.7-.05-1.19-1.26a22.47,22.47,0,0,1-.79-2.37,34.48,34.48,0,0,1-.61-3.43,48.1,48.1,0,0,1,3.05-23.65c3-7.61,7.45-14.54,12.08-21.09,3.43-4.89,7-9.65,10.2-14.54A100,100,0,0,0,85.5,347.5Z"/><path class="cls-1" d="M390.79,226.72a17.53,17.53,0,0,1-7.64-.61,16.26,16.26,0,0,1-3.47-1.54l-1.61-.9c-.53-.3-1-.7-1.53-1l-1.11-.78c-.38-.25-.7-.58-1.05-.86a15.84,15.84,0,0,1-2-1.87,22.67,22.67,0,0,1-4.81-8.19,32.24,32.24,0,0,1-1.68-9.18,65.51,65.51,0,0,1,.17-8.18,46.27,46.27,0,0,1,1.71-10.22c.31-1,.95-.73,1.42.29a8.58,8.58,0,0,1,.44,4.65c-1.11,6.71-1.75,13.55-.23,20.08l.16.73.25.71.5,1.43a14.36,14.36,0,0,0,.66,1.37c.24.45.44.92.72,1.34a21.94,21.94,0,0,0,3.93,4.66c.42.37.82.76,1.26,1.12l1.38,1a21.49,21.49,0,0,0,2.92,1.75,13.68,13.68,0,0,0,6.32,1.79,16.3,16.3,0,0,0,4.11-.32,21.35,21.35,0,0,0,4-1.18,39.07,39.07,0,0,0,11-6.79,53.5,53.5,0,0,0,6.82-7.23l1.31-1.72c1.64-2.16,2.21-2.78,3.13-2.88a2.81,2.81,0,0,1,.62-.07c.61,0,.41,1.3-.7,3.08a50.5,50.5,0,0,1-13.29,13.78,40.08,40.08,0,0,1-6.44,3.71,26.26,26.26,0,0,1-7.27,2.17Z"/><path class="cls-2" d="M371.13,175.2c1.65-4.87,3.52-9.7,5.31-14.57.89-2.44,1.77-4.89,2.56-7.39.4-1.25.77-2.51,1.1-3.81a20,20,0,0,0,.67-4.08c.05-.42-2.44-.36-2.44-.07a18.79,18.79,0,0,1-.6,3.56c-.32,1.22-.67,2.44-1.06,3.66-.78,2.44-1.65,4.86-2.53,7.29-1.78,4.85-3.65,9.68-5.33,14.63C368.71,174.68,371,175.46,371.13,175.2Z"/><path class="cls-1" d="M495.12,200.17c-9.94-10.92-11.1-71.47-21.63-85.37-11.36-15-25-4.79-28.63-7.58C420.42,88.26,363.18,82,353,120.38c-10.45,39.43,72.35,25,80.34,21.58,0,0-3.24,23.68-3,23.47,3.42-2.59,11.91-8.11,14.91-1.79,3.79,8,.7,22.37-11.09,20.69-2.55-.36-20.8,32.19-8.27,40.91C442.79,237,491.39,212.17,495.12,200.17Z"/><path class="cls-1" d="M425.41,145.86a190.09,190.09,0,0,1-19.86,2.65,152.48,152.48,0,0,1-20.06.37,70,70,0,0,1-19.94-3.56,28.36,28.36,0,0,1-9.09-5.17A17.81,17.81,0,0,1,353,136a16.75,16.75,0,0,1-2-5.07,20.91,20.91,0,0,1-.13-7.76,38.75,38.75,0,0,1,2-7.28A35.13,35.13,0,0,1,361,103.3a38.34,38.34,0,0,1,10.87-7.48,51.33,51.33,0,0,1,12.5-3.89,76.25,76.25,0,0,1,25.84.06A88.75,88.75,0,0,1,434.8,99.7l2.87,1.5,2.81,1.63,2.72,1.78,1.31,1,.66.48.33.24a1.08,1.08,0,0,0,.18.11,4.64,4.64,0,0,0,2.46.11c1-.12,2-.33,3.09-.51a35.85,35.85,0,0,1,6.52-.69A18.84,18.84,0,0,1,469,108.87a24.67,24.67,0,0,1,4.31,4l.92,1.14c.3.4.57.83.85,1.25a11.1,11.1,0,0,1,.75,1.29c.23.43.48.86.67,1.31a63.51,63.51,0,0,1,3.64,10.91c.93,3.68,1.69,7.38,2.4,11.07,1.78,9.49,3.2,19,4.78,28.53.79,4.74,1.62,9.47,2.6,14.15a70,70,0,0,0,3.94,13.59c1.19,2.61,1.94,3.49,1.64,3.68s-1.58-.67-3-2.88a39.84,39.84,0,0,1-4.32-9.81,117.7,117.7,0,0,1-3.43-14.75c-1.67-9.72-3-19.45-4.72-29.08-.84-4.81-1.76-9.61-2.95-14.29a69.94,69.94,0,0,0-2.05-6.87,24.75,24.75,0,0,0-3-6.1c-2.72-3.71-6.4-6.6-10.74-7.46a20.85,20.85,0,0,0-6.75-.15c-1.17.14-2.34.35-3.56.56a24.65,24.65,0,0,1-3.95.51,5.56,5.56,0,0,1-2.66-.54l-.37-.22-.18-.12-.09-.08-.36-.26-.72-.53c-.94-.73-1.95-1.38-2.95-2s-2.06-1.23-3.08-1.86-2.13-1.14-3.2-1.69a86,86,0,0,0-30.89-8.35,77.5,77.5,0,0,0-8.89-.16,64,64,0,0,0-8.84,1c-.74.12-1.46.27-2.18.45l-2.16.53c-1.41.46-2.85.81-4.21,1.39a39.29,39.29,0,0,0-7.88,4l-1.81,1.25c-.57.45-1.12.93-1.69,1.4-.28.23-.57.45-.84.7l-.77.78c-.51.52-1.06,1-1.53,1.56a31.81,31.81,0,0,0-2.65,3.47,32.18,32.18,0,0,0-2.21,3.76c-.38.71-.64,1.47-1,2.2l-.47,1.11c-.15.37-.25.77-.38,1.15l-.73,2.3c-.17.77-.4,1.55-.51,2.33a17.54,17.54,0,0,0,.51,9.17,15.23,15.23,0,0,0,5.67,7.1,30.09,30.09,0,0,0,8.65,4.05A76.86,76.86,0,0,0,388,146.13a158.39,158.39,0,0,0,19.83-.72c4.24-.4,8.46-.93,12.67-1.62,2.1-.34,4.19-.72,6.26-1.16,1-.22,2.08-.45,3.1-.7l1-.27,1.19-.38c.8-.28,1.66-.59,2.43-.9.07.06,0,.27,0,.45l-.08.56-.15,1.1-.3,2.2-.43,3.09-.79,5.83-.77,5.82-.3,2.38c-.06.5-.13,1-.17,1.51v.09s0,.07,0,0l.15-.11.3-.21.62-.42.63-.39.59-.33c.22-.12.43-.25.66-.35a14.73,14.73,0,0,1,5.83-1.84,6.27,6.27,0,0,1,3.28.68,5.17,5.17,0,0,1,1.35,1.09,5.7,5.7,0,0,1,1,1.36,16.39,16.39,0,0,1,1.67,5.84,18.29,18.29,0,0,1-2.46,11.63,10.43,10.43,0,0,1-7.65,4.87,13.24,13.24,0,0,1-1.54.08l-.77,0-.62-.07a.54.54,0,0,0-.48.09l-.2.16-.09.09-.13.14a12.86,12.86,0,0,0-1.06,1.31c-.68.93-1.31,1.92-1.91,2.93a67,67,0,0,0-3.24,6.24A59.22,59.22,0,0,0,423,209.45a27.39,27.39,0,0,0-.53,6.91,11.73,11.73,0,0,0,2,6.22,7.59,7.59,0,0,0,2.37,2.13,13.65,13.65,0,0,0,1.45.8c.52.21,1,.45,1.55.64a23.78,23.78,0,0,0,6.69,1.1,50.79,50.79,0,0,0,13.72-1.75A94.09,94.09,0,0,0,463.57,221a117.67,117.67,0,0,0,11.09-5.35,95.16,95.16,0,0,0,13.62-8.87c2.75-2.2,4.19-3.56,5.42-4.7.26-.26.57-.59.84-.89a7.87,7.87,0,0,1,.62-.81c.29-.3.38-.17.28.44a4.36,4.36,0,0,1-.37,1.22,9.33,9.33,0,0,1-.91,1.71,23.28,23.28,0,0,1-3.65,4.27,48.71,48.71,0,0,1-6,4.87,95.22,95.22,0,0,1-11.1,6.72,112.18,112.18,0,0,1-12,5.4,87,87,0,0,1-12.75,3.87A59.36,59.36,0,0,1,442,230a38,38,0,0,1-6.92.11,23,23,0,0,1-7-1.55,13.7,13.7,0,0,1-1.7-.78c-.54-.32-1.09-.63-1.63-1a11.48,11.48,0,0,1-2.81-2.88,14.81,14.81,0,0,1-2.27-7.25,29.64,29.64,0,0,1,.45-7.14,60.26,60.26,0,0,1,4.16-13.21c.92-2.11,1.92-4.17,3-6.2a38.25,38.25,0,0,1,3.9-6c.13-.16.29-.33.45-.5l.35-.35.43-.35a2.81,2.81,0,0,1,2.05-.61l.75.07a3.39,3.39,0,0,0,.45,0,5.39,5.39,0,0,0,.9,0,7.53,7.53,0,0,0,1.72-.27,7.16,7.16,0,0,0,2.94-1.62,11.47,11.47,0,0,0,3.27-6.46,17,17,0,0,0-.32-7.67,12.72,12.72,0,0,0-.65-1.76,4.47,4.47,0,0,0-.79-1.19,2.87,2.87,0,0,0-2.44-.73,10.81,10.81,0,0,0-3.49,1.05c-.6.28-1.19.58-1.77.91l-.22.13a3.78,3.78,0,0,0-.46.28l-.91.59c-.61.38-1.23.82-1.84,1.25l-.47.32-.23.16a.37.37,0,0,1-.17.05l-.67.16-.33.08c-.11,0-.09-.11-.14-.15l-.21-.37,0-.05h0c-.36.6.49-.84.4-.69h0l-.09,0-.17-.06-.4-.14c-.14-.07-.36-.08-.5-.22a2,2,0,0,1-.14-.29l0-.44c.07-1.33.28-2.79.44-4.19l.28-2.25,1.9-14.11-.1,0-1.29.32c-1.4.32-2.78.62-4.17.89Z"/><path class="cls-1" d="M427.43,182.31c4.3,3.56,10.55,2.35,14.83-.5.68-.45.29-.69-.23-.88a3.54,3.54,0,0,0-2.46.66,7.31,7.31,0,0,1-8.88-.51c-.78-.64-3.91.7-3.26,1.23Z"/><path class="cls-2" d="M408.48,281a245.1,245.1,0,0,0,5-32.88c.51-5.51.87-11,1-16.58.09-2.78.12-5.56.06-8.35a47.25,47.25,0,0,0-.81-8.5c-.14-.83-2.89,0-2.75.64a44.19,44.19,0,0,1,.73,7.93c.07,2.72,0,5.46-.05,8.19-.17,5.47-.53,11-1,16.41a245,245,0,0,1-4.9,32.47C405.6,280.86,408.35,281.55,408.48,281Z"/><path class="cls-1" d="M390,406.22c-3.27,2.63-4.72-2.62-11.44,0-8.65,3.37-12.94-.58-12.94-.58,0-29.32,5.59-56.42,10.91-80.67,4.17,12,9.94,22.4,18.32,34C391.43,378.59,388.47,398.38,390,406.22Z"/><path class="cls-1" d="M379,336.1c-.38-.85-.76-1.7-1.12-2.57l-.53-1.28-.12-.32c-.1-.27-.11-.33-.16-.48l-.13-.44a3.36,3.36,0,0,0-.18.56l-.11.4-.51,2.25c-.67,3-1.32,6-1.95,9-.73,3.51-1.34,7-2,10.56a317.87,317.87,0,0,0-5.08,37.47c-.21,2.8-.31,5.6-.4,8.4,0,1.4,0,2.79,0,4.19v.87c0,.15-.08.36.12.43a2.22,2.22,0,0,0,.44.27,7.91,7.91,0,0,0,.84.37c3,1.13,6.54.63,9.69-.6l1.34-.46a11.94,11.94,0,0,1,1.46-.35,9.16,9.16,0,0,1,3.09,0c2,.34,3.8,1.7,4.72,1.48a7.48,7.48,0,0,0,.82-.18c.22,0,.39,0,.47.14a.67.67,0,0,1,0,.61,2,2,0,0,1-.88,1,3.39,3.39,0,0,1-2.11.37c-.79-.07-1.54-.26-2.26-.37a8.94,8.94,0,0,0-4.36.41l-2.61.9-1.46.39-1.5.28a15.52,15.52,0,0,1-6.27-.31,15,15,0,0,1-1.55-.54l-.75-.36-.5-.28c-.2-.11-.38-.25-.56-.37a8.44,8.44,0,0,1-1-.84c-.12,0-.1-.17-.12-.28l0-.32a4.73,4.73,0,0,1,0-.65l0-1.83c0-1.85.06-3.69.16-5.54a221.46,221.46,0,0,1,2-22.08c1.23-8.78,2.56-17.9,4.28-26.78q1.2-6.19,2.55-12.35l1.44-6.51,1.08-4.85.53-2.39.27-1.19.13-.59a1.39,1.39,0,0,1,.14-.47l2.53,7.07,1.24,3.16.88,2.1c.61,1.39,1.23,2.77,1.89,4.13q2,4.1,4.25,8,3.47,6,7.47,11.61l1.2,1.69c.09.08,0,.2,0,.29l-.05.31-.11.61-.15.87-.58,3.41c-.37,2.28-.73,4.54-1.1,6.81-1.07,7-1.88,14-2.4,21-.13,1.54-.18,3-.26,4.59-.25,5.73-.18,7.44-.81,8.75a5.79,5.79,0,0,1-.41.89c-.46.72-1.58-1.7-1.66-6.07a138.57,138.57,0,0,1,1.29-19.51c.82-6.55,1.86-13.15,3-19.74l.24-1.41-.35-.5c-.74-1-1.44-2.05-2.16-3.09-1.4-2.08-2.78-4.19-4.09-6.34a126.5,126.5,0,0,1-7.13-13.35Z"/><path class="cls-2" d="M386.46,277.73c1.33-8.52,2.29-17.06,3.05-25.62s1.27-17.16,1.34-25.79c0-.59-2.84-.6-2.83,0-.06,8.51-.58,17-1.32,25.55s-1.71,17-3,25.43C383.59,277.74,386.39,278.2,386.46,277.73Z"/><path class="cls-1" d="M345.34,197.9l-40.46,38.76c-1.81,3.5-1.16,8.66,3.58,15.29,4.52,6.31,15.14,10.3,22.62,6.8,1.91-.89,7.86-6.88,9.37-8.32-2.31-7.1-4.54-14.08-11.22-16.45,0,0-8.6-2.77-6.42-3.7a12.32,12.32,0,0,1,5.54-1l0,0c-.31-1-5.05-.49-5.05-3.91,0-2,5.05-1.44,5.05-1.44-1.8-1.08-4.11-7.46,2.52-5.12l2.55,1s-3.82-4.74,2-4.61c3.58.08,19.19,6.77,21,9.46a59.52,59.52,0,0,1,3.58,5.8c7.5-8.12,13.08-14.57,13.21-14.78C372.16,200.28,362.05,191.68,345.34,197.9Zm-24.22,47.76c-2.45,3.43-7.48-1.52-4.2-3.66C318.81,240.77,322.65,243.54,321.12,245.66Z"/><path class="cls-3" d="M373.2,215.57h0"/><path class="cls-1" d="M302.27,248c-3.74,7.28-2.43,23.09,6,26.69.79.33,3.44-.85,2.33-1.32-8-3.4-8.92-19-5.47-25.77.37-.72-2.44-.46-2.88.4Z"/><path class="cls-1" d="M303.81,339.3c-.49-5.62-.65-11.23-.65-16.82,0-2.05-.06-4.09,0-6.12.2-7.19.71-14.35,1.25-21.49.24-3.16.42-6.35.56-9.49.09-2,.14-4,.19-6.05l.09-3c0-1,.05-2,0-2.82-.06-.51.11-.53.35-.75a.57.57,0,0,1,.5-.07,1.66,1.66,0,0,1,.71.49,8.28,8.28,0,0,1,1.62,5.52c-.3,8.36-1.1,16.52-1.85,24.8-.46,4.95-.48,10.12-.53,15.19-.07,5.57,0,11.14.37,16.7.23,3.41.56,6.83,1.06,10.2a72.21,72.21,0,0,0,3.69,15,34.15,34.15,0,0,0,5.89,10c.56.63,1.12,1.22,1.73,1.79,1.11,1.09,1.89,1.73,2.38,2.27a2.91,2.91,0,0,1,.79,1.49,4.71,4.71,0,0,1,.1.7c0,.35-.38.45-1,.3a7.54,7.54,0,0,1-2.59-1.33A27.23,27.23,0,0,1,311,367a50.68,50.68,0,0,1-4.3-10.81,100.74,100.74,0,0,1-2.95-16.89Z"/><path class="cls-1" d="M321.27,278.34c4.37-1.08,8.35-3,11-6.78s3.73-8.4,6.5-12.14c.17-.23-2.82-.18-3.42.64-4.79,6.46-5.25,15.07-14.32,17.31-2,.5-1.78,1.48.26,1Z"/><path class="cls-1" d="M374.62,258.21c2.35-2.4,4.8-3.71,8-2.11,1.21.59,4.33-1.09,2.72-1.88-5.05-2.49-9.85-.69-13.61,3.15-1.49,1.51,1.88,1.84,2.86.84Z"/><path class="cls-1" d="M353,307.6q-1.67,4.62-3.4,9.24c-.43,1.12-.78,2.27-1.21,3.38-1.59,3.93-3.26,7.82-5.13,11.64-.86,1.68-1.6,3.43-2.51,5.09l-.83,1.62-.95,1.58a13.14,13.14,0,0,1-2.33,2.89c-.56.54-1-.07-1.22-1a4.58,4.58,0,0,1,0-1.61,3.57,3.57,0,0,1,.24-.83,5,5,0,0,1,.4-.85,140.38,140.38,0,0,0,6.78-12.48,84,84,0,0,0,3.3-8.28q1.74-4.59,3.39-9.25l2-5.73c1-2.91,2-5.82,2.95-8.73.72-2.26,1.27-4.53,1.94-6.79.14-.5.26-1,.43-1.49.63-1.84,1-2.35,1.9-2.46a4.2,4.2,0,0,1,.6-.06c.63,0,.82,1,.5,2.33-.95,4.07-2.27,8.25-3.64,12.46q-1.58,4.68-3.16,9.38Z"/><path class="cls-1" d="M326.67,319.84c-.5-3.56-.93-7.14-1.25-10.73q-.23-2-.36-3.93a134.09,134.09,0,0,1-.05-13.89l.08-3.08.12-3.07a44.63,44.63,0,0,1,.66-7.82c.32-1.6,2.7.73,2.46,3.67l-.17,2-.11,2-.27,3.93c-.11,2.62-.31,5.25-.4,7.9a39,39,0,0,0,.06,4.83c.06,1.62.23,3.25.35,4.87.26,3.56.66,7.11,1.15,10.66.3,2.18.63,4.37,1,6.55.55,3.31,1.1,6.64,1.65,9.93.44,2.56,1,5.06,1.37,7.62.08.56.21,1.11.27,1.68.2,2.12.08,2.81-.6,3.31a2.55,2.55,0,0,1-.46.32c-.54.23-1.06-.59-1.33-2.09-.83-4.46-1.6-9.14-2.43-13.89-.62-3.52-1.22-7.1-1.79-10.68Z"/><path class="cls-1" d="M316.73,322.26c-.82.23-1.69.34-2.52.52s-1.71.23-2.56.33c-.63,0-1.24.18-1.87.2a27.05,27.05,0,0,1-6.55-.78l-2.83-.59a7.64,7.64,0,0,1-3.46-1.21c-.6-.48,1.54-3.23,2.69-2.85,2.12.66,4.16,1.27,6.36,1.89a12.7,12.7,0,0,0,4.13.09l1.15-.08,1.14-.15a22.1,22.1,0,0,0,2.3-.4c.94-.2,1.88-.46,2.81-.74.69-.25,1.39-.48,2.09-.74s1.36-.58,2-.91a23,23,0,0,0,2.79-2c.2-.16.38-.34.58-.48.77-.52,1.15-.47,1.81.22.15.16.31.3.44.47a1.31,1.31,0,0,1-.08,1.81A12.84,12.84,0,0,1,324.6,319c-.47.3-1,.6-1.45.87l-1.54.74a33.65,33.65,0,0,1-4.85,1.73Z"/><path class="cls-1" d="M384,337a143.31,143.31,0,0,0,16.41,24.76,111.12,111.12,0,0,0,21.72,20.11,14.81,14.81,0,0,0,4.48,2.16,9.63,9.63,0,0,0,4.74.07,13.43,13.43,0,0,0,4.35-2.2,23.2,23.2,0,0,0,3.64-3.64,42.16,42.16,0,0,0,4.94-7.92,82.34,82.34,0,0,0,3.67-8.77,132.87,132.87,0,0,0,4.89-18.5A183.67,183.67,0,0,0,456,304.83a142.15,142.15,0,0,0-1.36-17,95.33,95.33,0,0,0-3.78-16.49,55.56,55.56,0,0,0-4.3-9.83,31.81,31.81,0,0,0-6.55-8.25,19.21,19.21,0,0,0-9.16-4.57,23.69,23.69,0,0,0-10.38.43c-4.21,1.24-4,.45-.46-1.38a21.88,21.88,0,0,1,8.05-1.89,19.7,19.7,0,0,1,11.63,3.43,30.66,30.66,0,0,1,8.07,8.63,51.92,51.92,0,0,1,5,10.4,97.35,97.35,0,0,1,4.92,22.18,159.52,159.52,0,0,1,.91,22.6,185.71,185.71,0,0,1-2,22.56,155.52,155.52,0,0,1-6.34,26.82,73.32,73.32,0,0,1-5.76,12.84,38.58,38.58,0,0,1-4.17,5.81,19.58,19.58,0,0,1-5.76,4.53,12.17,12.17,0,0,1-8.16,1.05c-.66-.21-1.33-.38-2-.62s-1.25-.55-1.85-.86l-1.72-1c-.54-.37-1-.74-1.57-1.11a110,110,0,0,1-11.76-9.79,128.79,128.79,0,0,1-19.25-23.63,184.94,184.94,0,0,1-16.67-33.51c-3.41-8.82-6.25-17.86-8.84-26.92-1.3-4.53-2.51-9.09-3.89-13.54-.35-1.11-.72-2.22-1.13-3.29-.2-.53-.42-1.06-.66-1.55-.12-.25-.25-.48-.38-.7a2.9,2.9,0,0,0-.38-.51.74.74,0,0,0-.19-.16.93.93,0,0,0-.24-.05l-.82-.13a16,16,0,0,1-1.79-.41,17.93,17.93,0,0,1-1.74-.61c-.57-.24-1.11-.53-1.66-.81a18.2,18.2,0,0,1-6.9-7.84,73.53,73.53,0,0,1-3.64-9.5,49.32,49.32,0,0,0-3.73-9.07,15.39,15.39,0,0,0-2.88-3.68,11.44,11.44,0,0,0-3.89-2.32c-.87-.25-1.87-.57-2.79-.89l-1.14-.43a16.72,16.72,0,0,1-1.65-.76,5.19,5.19,0,0,1-1.36-1,1.93,1.93,0,0,1-.6-1.26,1.24,1.24,0,0,1,.2-.67l.63-.48c.43-.31.8-.65,1.28-1a5.42,5.42,0,0,1,.87-.37l.9-.29a7.32,7.32,0,0,1,1.32-.25,12,12,0,0,1,2.39,0,14.3,14.3,0,0,1,2.11.43,15.53,15.53,0,0,1,3.37,1.42,19.62,19.62,0,0,1,4.25,3.22,13,13,0,0,1,3.33,4.7,8.54,8.54,0,0,1,.54,1.67c0,.31-.14.3-.46,0s-.82-.84-1.54-1.6a29.64,29.64,0,0,0-7.32-5.82,12,12,0,0,0-4.14-1.38,4.13,4.13,0,0,0-1.05-.07,4,4,0,0,0-1,.05,8.54,8.54,0,0,0-1,.18l-.25.09-.1,0-.21.13c-.06,0-.16.07-.14.16a.87.87,0,0,0,.41.26c-.1,0,.94.37,1.66.61l1.16.38,1.24.36a14.38,14.38,0,0,1,6.61,4.8,27,27,0,0,1,3.76,6.91c1.88,4.76,3,9.64,5.11,13.92a18,18,0,0,0,4,5.56,12.89,12.89,0,0,0,5.87,2.93c.28.06.57.09.85.14l.54.08a4.13,4.13,0,0,1,.92.24,5.71,5.71,0,0,1,.72.58,3.94,3.94,0,0,1,.6.66,9.31,9.31,0,0,1,.63,1,28.37,28.37,0,0,1,1.54,3.78c.84,2.48,1.54,4.94,2.24,7.39,2.74,9.73,5.5,19.39,8.91,28.86A204.1,204.1,0,0,0,384,337Z"/><path class="cls-1" d="M328.62,227.93c-1.7-.64-6-2.68-2.06-3.07,2.33-.24,5.49.8,7.76,1.4,4.26,1.12,8.33,5.07,11.15,8.32.76.88,3.53-.21,2.67-1.2-5.59-6.45-12-9.92-20.51-10.41-1.8-.1-5-.11-5.71,2-1.18,3.37,3,4,5,4.72,1.07.4,3.39-1.15,1.72-1.77Z"/><path class="cls-1" d="M329.68,223.32c-1.77-1.45-2.53-4.12.33-3.75,2.24.29,4.78,1.81,6.93,2.53a31.27,31.27,0,0,1,13.57,8.7c.68.73,3.44-.33,2.7-1.13-6-6.41-12.79-8.87-20.9-11.49-1.88-.61-5-1.43-6.56.43-1.45,1.7-.31,4.57,1.24,5.84.78.64,3.47-.5,2.69-1.13Z"/><path class="cls-1" d="M409.51,264.24C407.31,280.5,404.22,298,401,315c-6.24-9.6-12.48-20.8-17.77-31,.84-4.36,1.63-8.75,2.34-13.21C390.07,272.38,398.06,272.75,409.51,264.24Z"/><path class="cls-1" d="M389.56,291.93c3,5.68,6.06,11.3,9.34,16.8l.73,1.21.23.35.23.35c.07.08.18.37.19.14l.18-.7.12-.48.31-1.52,1.23-6.07c.81-4.06,1.6-8.11,2.35-12.18.67-3.6,1.24-7.24,1.76-10.84.67-4.63,1.15-9.3,2.1-13.88.58-2.86,2.91,1.19,2.16,6.55-1.35,9.49-3.06,18.91-5.15,28.33-.63,2.82-1.18,5.71-1.72,8.62-.39,2.07-.78,4.16-1.16,6.24l-.69,3.61c0,.28-.12,0-.2-.11l-.25-.39-.5-.79-1-1.56-2.14-3.42-1.47-2.42-2.46-4.21q-2.43-4.24-4.74-8.53c-1.91-3.51-3.76-7.06-5.59-10.61l-1-1.94a2.22,2.22,0,0,1-.14-.32l.06-.36.13-.69.18-1,.72-3.84q.79-4.32,1.58-8.6c.58.17,1.14.37,1.72.51l.86.24.23,0,.14,0,.28.05a17.26,17.26,0,0,0,6.56-.28,28.08,28.08,0,0,0,6.2-2.3c.86-.47,1.71-.91,2.55-1.43,3.16-1.89,4.17-2.5,5.3-2.32a3.92,3.92,0,0,1,.75.12c.33.14.25.53-.19,1.12a11.18,11.18,0,0,1-2.4,2.21,39,39,0,0,1-4.66,2.91,32.44,32.44,0,0,1-5.3,2.14,23.36,23.36,0,0,1-5.88.91,19.78,19.78,0,0,1-3.07-.19l-.77-.14c-.11,0,0,0-.06,0h0l-.29,1.66c-.53,2.91-1.05,5.82-1.58,8.74l2,3.88,2.27,4.29Z"/><path class="cls-1" d="M371.73,255.32c3.26,7.62,6.81,15.19,10.46,22.67,1.33,2.73,2.77,5.41,4.13,8.12,4.83,9.56,9.85,19,15.44,28.15a132.5,132.5,0,0,0,8,11.68,72.14,72.14,0,0,0,5.91,6.74,32.89,32.89,0,0,0,3.28,2.9,11.69,11.69,0,0,0,3.55,2,5.38,5.38,0,0,1,.82.31.46.46,0,0,1,.25.4c0,.14-.12.3-.36.46a2.36,2.36,0,0,1-1,.39,7.09,7.09,0,0,1-3.71-.58,14.12,14.12,0,0,1-4.25-2.81,87.39,87.39,0,0,1-11.79-14.92c-3.43-5.26-6.55-10.69-9.51-16.23-3.52-6.63-7.32-13.45-10.78-20.29Q376.48,273,371.28,261.5l-1.58-3.57-.77-1.79-.38-.91c-.13-.35-.23-.54-.39-1.07-.61-2.48-1.27-5-2.07-7.39a87,87,0,0,0-9.9-21l-.31-.45a2.42,2.42,0,0,0-.32-.4c-.1-.1-.17-.2-.29-.31l-.4-.31a16.65,16.65,0,0,0-1.79-1.15c-1.26-.72-2.6-1.35-3.94-2-2.69-1.21-5.45-2.29-8.23-3.25-1.23-.41-2.44-.79-3.67-1.11-.28-.09-.54-.14-.8-.2a6.28,6.28,0,0,0-.69-.15,3.12,3.12,0,0,0-1,0,4,4,0,0,0-1.39.47,6.06,6.06,0,0,0-1.41,1,2.1,2.1,0,0,0-.33.75c-.08.18-.21.24-.44.08a1.57,1.57,0,0,1-.54-1.29c0-1.43,1.3-3.18,3.67-3.71a4.82,4.82,0,0,1,1.36-.09,9.63,9.63,0,0,1,1.18.16c.74.13,1.41.31,2.1.49,1.35.38,2.68.79,4,1.26a83.78,83.78,0,0,1,7.82,3.18c1.29.62,2.58,1.24,3.87,2,.32.18.65.38,1,.6a10.63,10.63,0,0,1,1,.69,6.09,6.09,0,0,1,1.06,1,4.39,4.39,0,0,1,.45.55l.32.46a75.6,75.6,0,0,1,4.44,7.49A96.77,96.77,0,0,1,368,243.35q1.08,3,2,6.15c.31,1,.55,2.08.83,3.12l.2.78v0h0l-1.36.33.61-.14.6-.16.16,0h0l0,.11.13.32.59,1.42Z"/><path class="cls-1" d="M170.85,377.82c-.43-3.69-.77-7.37-1.09-11.05-.12-1.34-.32-2.67-.41-4-.34-4.73-.56-9.46-.82-14.19-.12-2.1-.32-4.2-.54-6.27a51.15,51.15,0,0,1-.59-8c.08-1.68,3.33.19,3.6,3.26.48,5.44.78,10.87.84,16.39,0,3.29.49,6.68.79,10,.31,3.68.65,7.36,1.06,11,.27,2.25.54,4.51.89,6.75a86.33,86.33,0,0,0,2,10,33.25,33.25,0,0,0,2.93,7.08c.28.47.56.92.87,1.34a18.23,18.23,0,0,1,1.07,1.68,2,2,0,0,1,.12,1.22c0,.22,0,.46-.09.66-.09.35-.39.5-.91.42a3.64,3.64,0,0,1-1.85-1.12,19.58,19.58,0,0,1-3.94-6.74,53.24,53.24,0,0,1-2.13-7.36c-.82-3.69-1.38-7.42-1.88-11.13Z"/><path class="cls-1" d="M351.32,370.82c1.39-4.43,2.76-8.87,4.08-13.33l1.36-4.89c1.7-5.73,3.39-11.46,4.89-17.23.67-2.56,1.21-5.16,1.69-7.73.3-1.65.54-3.32.77-5,.09-.82.24-1.65.31-2.45s.18-1.61.21-2.31.7-1.09,1.58-.2a6.19,6.19,0,0,1,1.17,4.8,99.33,99.33,0,0,1-2.06,10.33q-1.26,5.07-2.86,10.07c-1.26,4-2.26,8.21-3.44,12.31-1.3,4.51-2.66,9-4,13.49-.84,2.76-1.69,5.52-2.53,8.28-1.27,4.18-2.61,8.36-3.81,12.53-.94,3.23-1.7,6.46-2.54,9.68-.19.71-.35,1.42-.55,2.13-.76,2.64-1.21,3.41-2.13,3.74a2.9,2.9,0,0,1-.62.22c-.66.07-.81-1.15-.39-3.12,1.24-5.84,3-11.86,4.77-17.9,1.35-4.48,2.71-9,4.06-13.47Z"/><path class="cls-2" d="M437.79,408.79l-.34-.46c-.11-.18-.22-.38-.33-.57a10.75,10.75,0,0,1-.63-1.22c-.4-.85-.76-1.74-1.1-2.65-.68-1.82-1.27-3.68-1.81-5.56s-1-3.79-1.41-5.7a31,31,0,0,1-.78-5.58c0-.21-2.85-.39-2.83-.06a33.34,33.34,0,0,0,.85,6.22c.42,2,.91,3.94,1.46,5.89s1.16,3.87,1.88,5.78c.35,1,.74,1.91,1.18,2.86.24.47.44.95.74,1.43.14.24.27.47.42.71l.55.73C435.8,410.84,437.89,408.91,437.79,408.79Z"/><path class="cls-1" d="M274.61,388.37c1-13,.89-26.14,1.23-39.32.12-4.81.17-9.63.45-14.44a230.76,230.76,0,0,1,2.7-25.4q1-6.31,2.63-12.53a117.18,117.18,0,0,1,3.8-12.25A104.06,104.06,0,0,1,290,274c.41-.85.84-1.7,1.31-2.53s.9-1.67,1.38-2.5c1-1.62,1.94-3.26,3-4.81a78.58,78.58,0,0,1,9.19-11.34,63.61,63.61,0,0,1,11.36-9.16c2.56-1.63,2.68-.63,1.11,1.51a23,23,0,0,1-1.48,1.8c-.56.68-1.22,1.43-2,2.2l-2.38,2.48c-.43.43-.88.87-1.35,1.3s-.91.93-1.39,1.39a79.81,79.81,0,0,0-16.54,23,120.87,120.87,0,0,0-9.09,27.37c-2.46,11.4-3.24,23.61-3.68,35.6-.53,13.19-.4,26.45-.94,39.75a139.11,139.11,0,0,1-2.78,24.5,51.23,51.23,0,0,1-2.93,9,29.38,29.38,0,0,1-5.15,8.07,22.61,22.61,0,0,1-7.86,5.54,29.38,29.38,0,0,1-9.26,2.15l-1.83.12h-1.83c-1.22,0-2.42-.08-3.62-.15a14.59,14.59,0,0,1-7.25-2.11,11.9,11.9,0,0,1-3-2.58,9.58,9.58,0,0,1-1.11-1.7,6,6,0,0,1-.42-1,6.41,6.41,0,0,1-.26-1.29A3.59,3.59,0,0,1,232,418a3.18,3.18,0,0,1,2.32-1.15H235l.7.09a8.36,8.36,0,0,1,1.1.28,9.9,9.9,0,0,1,1.86.83l.83.53a7.41,7.41,0,0,1,.72.65,8.51,8.51,0,0,1,1.18,1.45,13.35,13.35,0,0,1,.84,1.58c.19.55.45,1.1.58,1.65a20.1,20.1,0,0,1,.72,5.21,19,19,0,0,1-.24,3.5,6.89,6.89,0,0,1-1.47,3.61,3.78,3.78,0,0,1-.92.89c-.22.12-.36,0-.43-.3a6.73,6.73,0,0,1-.08-1.45c0-1.34.1-3.48-.09-6.14a17.77,17.77,0,0,0-1.22-5.58,12.11,12.11,0,0,0-.61-1.13,5,5,0,0,0-.75-.88c-.14-.11-.25-.28-.4-.35a3.23,3.23,0,0,1-.44-.27,7.59,7.59,0,0,0-1.17-.49c-.21-.08-.35-.09-.52-.15H235a.23.23,0,0,0-.18.08.21.21,0,0,0,0,.17,1.32,1.32,0,0,0,.11.31,7.76,7.76,0,0,0,3.43,3.53,10.29,10.29,0,0,0,2.51,1,15,15,0,0,0,2.88.38c1,.07,2.1.16,3.15.13h1.57l1.56-.1a28.16,28.16,0,0,0,6-1,22.25,22.25,0,0,0,5.43-2.47A20.85,20.85,0,0,0,267.6,416a35,35,0,0,0,3.75-8.51,90,90,0,0,0,3.17-19.12Z"/><path class="cls-1" d="M403.67,328.91l-2.2,1.89-2.32,1.72c-.58.41-1.12.84-1.71,1.22a15.94,15.94,0,0,1-1.62.9l-1.64.83c-1.12.48-2.23,1-3.38,1.4s-2,.8-3,1.23a9.28,9.28,0,0,1-4,1.09c-.5,0-.53-.92-.38-1.84s.53-1.87,1.2-2.08c2.4-.75,4.81-1.57,7.32-2.38a17.58,17.58,0,0,0,4.16-2.37c.76-.45,1.45-1,2.16-1.52a23.71,23.71,0,0,0,2.06-1.69,21.09,21.09,0,0,0,2.33-2.3c.28-.31.58-.6.84-.92l.76-1a14.09,14.09,0,0,0,1.41-2.05c.3-.57.56-1.16.8-1.75.12-.29.25-.58.35-.88l.27-.92c.08-.27.13-.54.23-.8.38-1,.73-1.17,1.68-1,.22,0,.44,0,.65.09a1.29,1.29,0,0,1,.93,1.63,17.24,17.24,0,0,1-3.06,7.06,23.75,23.75,0,0,1-1.79,2.34c-.66.73-1.31,1.47-2,2.17Z"/><path class="cls-1" d="M143.85,262.68a42,42,0,0,1-8.37-1.92c-1-.37-2-.62-2.95-1.07a33.81,33.81,0,0,1-4.85-2.62,36.06,36.06,0,0,1-4.39-3.28c-1.22-1.06-2.44-2.13-3.58-3.27a16,16,0,0,1-3.79-4.94c-.27-.65.46-.89,1.35-.83a3.66,3.66,0,0,1,2.64,1.24,48.69,48.69,0,0,0,8.29,8.12,25.77,25.77,0,0,0,6.43,3.32,39.32,39.32,0,0,0,7.75,2.13l2.47.34,2.5.17a42.7,42.7,0,0,0,7.58-.36,41.44,41.44,0,0,0,5.66-1.41c.41-.11.8-.26,1.21-.39,1.52-.46,2.06-.4,2.61.26a3.11,3.11,0,0,1,.37.46c.33.54-.18,1.19-1.3,1.67a35.29,35.29,0,0,1-11,2.59,47.33,47.33,0,0,1-8.66-.14Z"/><path class="cls-1" d="M167,169.32c-1.29-2.53-2.62-5.07-3.86-7.71-.45-1-1-1.9-1.36-2.91a23.81,23.81,0,0,1-1.56-5.64,10.19,10.19,0,0,1,.06-3.16,6.18,6.18,0,0,1,1.47-3,9.47,9.47,0,0,1,4.89-2.6,14.94,14.94,0,0,1,6.5-.3c.66.13.51.95-.08,1.73a3.72,3.72,0,0,1-2.65,1.56,14.16,14.16,0,0,0-5.19,1,3.43,3.43,0,0,0-1.48,1.22,4.76,4.76,0,0,0-.6,2.16,9.41,9.41,0,0,0,.58,3.41c.39,1.17.9,2.33,1.41,3.49,1.12,2.55,2.43,5.08,3.76,7.62l2.45,4.73a39.89,39.89,0,0,1,3.11,7.66,8.18,8.18,0,0,1,.24,3.53,4.65,4.65,0,0,1-2.4,3.19l-.76.37a6.33,6.33,0,0,1-.77.26c-1.92.44-2.49.11-2.88-.71a3.56,3.56,0,0,1-.24-.58c-.16-.68.54-1.17,1.57-1.48a5.7,5.7,0,0,0,1.85-.88,1.39,1.39,0,0,0,.55-1,5.46,5.46,0,0,0-.21-1.92,16.07,16.07,0,0,0-.8-2.4,80.43,80.43,0,0,0-3.66-7.49Z"/><path class="cls-4" d="M136.35,153.44s7.78-7.8,15.59-4.7"/><path class="cls-1" d="M378.21,173.86c-3.88,0-9.48-.92-12.33,2.47-3.49,4.16,3.38,6.53,6.28,7.56,1.31.47,4.07-1.42,2.06-2.14-1.47-.53-7.73-2.44-5.22-4.88,1.68-1.63,5.82-.74,7.94-.72.73,0,2-.21,2.28-1s-.24-1.27-1-1.28Z"/><path class="cls-1" d="M394.81,153c-.08-1,0-1.59.42-1.45.25.08.41-.16.63-.21a24.6,24.6,0,0,1,4.45-.73c.64-.07,1.3-.12,1.95-.15a16.36,16.36,0,0,1,3.34.26,11.84,11.84,0,0,1,1.66.52,15,15,0,0,1,1.63.59,9.23,9.23,0,0,1,1.57.79,8.28,8.28,0,0,1,1.4,1.1c.16.14.38.22.56.35a.25.25,0,0,1,.15.23c0,.34-.5,1-1.1,1.48s-.8.59-.93.48c-.3-.25-.59-.51-.9-.74l-1-.61c-.27-.17-.61-.18-.89-.33a10.6,10.6,0,0,0-1.33-.6,6.65,6.65,0,0,0-1-.34,5.61,5.61,0,0,0-1.08-.23,12.58,12.58,0,0,0-2.53-.05c-.27,0-.54,0-.81.05a17.83,17.83,0,0,0-2.51.35,20.11,20.11,0,0,0-2.55.73.48.48,0,0,1-.2,0C395.41,154.43,395.25,154.3,394.81,153Z"/><path class="cls-1" d="M384.94,153c-.71.66-1.11,1-1,.77s-.12-.07-.17-.12a9.17,9.17,0,0,0-1.16-.86,2.86,2.86,0,0,0-.58-.21c-.32-.11-.65-.2-1-.28-.16-.05-.29-.19-.46-.22a6.58,6.58,0,0,0-1-.08c-.16,0-.33-.11-.49-.11s-.12.07-.18.09-.05,0-.08-.08a9.67,9.67,0,0,1-.24-1.83c0-.58,0-1,.1-1,.42,0,.82,0,1.23,0a4.38,4.38,0,0,1,.5,0,3.69,3.69,0,0,1,.74.21c.37.1.7.26,1.05.37s.8.23,1.18.37l.36.16c.37.18.71.39,1.06.6a11.65,11.65,0,0,1,1.07.71.12.12,0,0,1,.06.09C386,151.78,385.87,151.94,384.94,153Z"/></g></svg>