<svg id="Layer_1" data-name="Layer 1" xmlns="http://www.w3.org/2000/svg" width="520" height="520" viewBox="0 0 520 520"><defs><style>.cls-1{fill:#221f1f;}</style></defs><title>Notioly v2</title><g id="_97.Relaxing" data-name="97.Relaxing"><path class="cls-1" d="M403.07,362.28c5.41,17.94,4.5,37.32,10.12,55.19.56,1.78,4.9.59,4.35-1.17-5.62-17.86-4.71-37.24-10.13-55.18-.54-1.79-4.88-.61-4.34,1.16Z"/><path class="cls-1" d="M401.49,361.68c6.87,3.67,13.17,1.79,20.58,1.71,2.41,0,3.4-3,.43-3-6.16.07-11.9,1.94-17.63-1.12-1.57-.84-5.44,1.32-3.38,2.42Z"/><path class="cls-1" d="M452.38,363.68c3.9.08,7.92.48,11.52-1.35,1.14-.58,2.13-1.94,1.32-3.18s-2.82-1.11-4-.53c-2.44,1.23-5.8.57-8.44.52-3.42-.07-4.35,4.45-.44,4.54Z"/><path class="cls-1" d="M260.74,270.38c-15.74,17.23-36.78,27.27-60.52,24-11.51-1.61-22.54-5.85-32.78-11.24-5.08-2.68-9.78-6.17-14.94-8.67a49.6,49.6,0,0,0-13.21-3.72c-.68-.12-3.17,1-2.38,1.12A51.21,51.21,0,0,1,155.77,279a139.53,139.53,0,0,0,17.61,9.29c11.13,4.84,23.15,8.12,35.37,7.9,21.63-.39,40.21-10.23,54.61-26,.59-.64-2.14-.31-2.62.22Z"/><path class="cls-1" d="M269.64,191.69c.49.49.92,1,1.33,1.49s.79,1,1.14,1.45a27.63,27.63,0,0,1,1.8,2.91c.32.63-.23,1.09-.89.59s-1.31-1-1.94-1.48-1.23-1.08-1.84-1.64a62.69,62.69,0,0,1-6-7.39c-1.37-2-2.7-4.11-3.82-6.1s-2-3.8-2.55-5.05A44.1,44.1,0,0,1,252.82,161l0-2.09c0-.35,0-.69,0-1l.11-1.05c.07-.7.13-1.4.22-2.1l.48-2.09a22.85,22.85,0,0,1,3.57-7.75,20.72,20.72,0,0,1,6.37-5.78,23.86,23.86,0,0,1,8-2.88A26.19,26.19,0,0,1,279,136c.53,0,1.05.15,1.57.21l1.43.22a11.45,11.45,0,0,0,2.55.06A11.73,11.73,0,0,0,287,136a12,12,0,0,0,1.17-.49,6.1,6.1,0,0,0,.57-.29l.66-.36a37.6,37.6,0,0,1,11.73-4.28c.7-.13,1.42-.16,2.13-.26s1.44-.07,2.13-.14c.29,0,.92,0,1.79.06.44,0,.94.13,1.49.2l.87.15.92.25a19.21,19.21,0,0,1,8.05,4.56,21.59,21.59,0,0,1,4.95,7.84,31.53,31.53,0,0,1,1.47,5.11,54.84,54.84,0,0,1,.87,10.73,72,72,0,0,1-.92,10.59,22,22,0,0,1-.57,3c-.67,2-1.09,4.16-1.69,6.27a42.91,42.91,0,0,1-3.34,8.46,17.12,17.12,0,0,1-2.67,3.65c-.95,1-.81.1-.57-.27.73-1.13-.12-.41-.34-.43s-.16,0-.16-.1.16-.23.39-.64.58-1,.93-1.67a36.11,36.11,0,0,0,2.18-5.51,70.57,70.57,0,0,0,2.18-9.71c0-.11.32-1.69.6-4.06a70.2,70.2,0,0,0,.48-8.79,52.54,52.54,0,0,0-.85-9.09,34.43,34.43,0,0,0-1.36-5.06,37.42,37.42,0,0,0-1.57-3.8,17.57,17.57,0,0,0-1.82-2.59,11.89,11.89,0,0,0-2.14-2,15.19,15.19,0,0,0-1.38-.94c-.5-.26-1-.57-1.51-.8a15.36,15.36,0,0,0-6.15-1.36,24.22,24.22,0,0,0-3.23.21,38.1,38.1,0,0,0-11,3.68c-.64.3-1.56.85-2.42,1.2a14.92,14.92,0,0,1-6,1.11,15.11,15.11,0,0,1-1.51-.11l-1.35-.18-1.24-.15-1.24-.08a23.49,23.49,0,0,0-9.69,1.42,18.59,18.59,0,0,0-4.3,2.44,17.84,17.84,0,0,0-3.39,3.55c-.38.45-.66,1-1,1.46a18.24,18.24,0,0,0-1.07,2,24,24,0,0,0-1.47,11.8A41.64,41.64,0,0,0,260,174.42c.2.44.51,1.32,1,2.38s1,2.36,1.7,3.6c.33.63.66,1.26,1,1.87s.67,1.16,1,1.68a24.55,24.55,0,0,0,1.48,2.34C266.77,187.32,268.81,190.92,269.64,191.69Z"/><path class="cls-1" d="M271.71,181.37c-.17-.37.1-.7.62-1a1.06,1.06,0,0,1,.77,0,6.07,6.07,0,0,1,.4.58c0,.13.41,2,.65,2.61s.32,1.2.45,1.8a23.33,23.33,0,0,0,1.15,3.58c.1.26.17.53.25.8a8.6,8.6,0,0,0,1.2,2.61,1.1,1.1,0,0,0,.31.37,11.68,11.68,0,0,1,.95,1.24c.42.57.87,1.14,1,1.29q.33.52.69,1l.77,1c.08.1.2.16.22.3a1.12,1.12,0,0,0,.46.65c.26.26.55.49.8.76a2.42,2.42,0,0,1,.29.53c.08.17-.17.39-.24.39s-.17.19-.23.31a.63.63,0,0,1-.07.12,6.78,6.78,0,0,1-1.17-.4,8,8,0,0,1-1.24-.65s-.69-.56-1.38-1.15-1.32-1.3-1.44-1.45a2.23,2.23,0,0,1-.33-.51,27.2,27.2,0,0,1-1.78-2.31,4,4,0,0,1-.7-1.53,1.17,1.17,0,0,0-.14-.3,16.13,16.13,0,0,1-1.06-2.67l-.48-1.38a1.17,1.17,0,0,1,0-.26,3.26,3.26,0,0,0,0-.33c-.34-1.11-.5-2.25-.76-3.37-.08-.26,0-1.54,0-1.84S271.76,181.51,271.71,181.37Z"/><path class="cls-1" d="M282,192.47c-.18-.2.07-.42.58-.64a1.72,1.72,0,0,1,.76-.06,3.07,3.07,0,0,1,.42.27c.06.07.48,1.05.69,1.34a5.88,5.88,0,0,1,.43.92,11,11,0,0,0,.92,1.81,2.26,2.26,0,0,1,.19.42,2.88,2.88,0,0,0,.85,1.33c.06.06.11.14.22.15a8.7,8.7,0,0,1,1.31,1.14,6.76,6.76,0,0,0,.9,1.1c.05.06.13.06.13.17,0,.26.16.3.28.39a3.72,3.72,0,0,1,.49.4,1,1,0,0,1,.17.36c.05.13-.12.4-.17.42s-.12.22-.16.35a.81.81,0,0,1-.06.13,2.57,2.57,0,0,1-.78,0,3.31,3.31,0,0,1-.86-.14,2.72,2.72,0,0,1-.31-.15l-.65-.35c-.46-.27-1-.58-1.05-.64a1,1,0,0,1-.24-.29,15.84,15.84,0,0,1-1.36-1.12,1.78,1.78,0,0,1-.55-.87.28.28,0,0,0-.11-.17,7.28,7.28,0,0,1-.88-1.5l-.42-.78s0-.11,0-.16a.65.65,0,0,0,0-.2c-.31-.63-.47-1.31-.75-2-.08-.15,0-.95-.09-1.12S282.07,192.55,282,192.47Z"/><path class="cls-1" d="M294.21,184.86c-.17-.33.08-.63.6-.91a1.1,1.1,0,0,1,.76,0,3.24,3.24,0,0,1,.42.51c.05.11.48,1.81.7,2.36a12.1,12.1,0,0,1,.45,1.64,25.81,25.81,0,0,0,1.05,3.26,6.68,6.68,0,0,1,.21.73,7.23,7.23,0,0,0,1.05,2.35.81.81,0,0,0,.29.32,1.87,1.87,0,0,1,.32.38c.16.19.36.43.55.68.38.5.81,1,.88,1.09.2.29.43.58.65.87s.51.51.76.78c.08.08.19.11.22.23.08.29.3.37.49.5s.55.31.82.5a1.89,1.89,0,0,1,.36.42c.11.14-.06.42-.12.44s-.11.23-.14.36a.47.47,0,0,1,0,.14,5.53,5.53,0,0,1-1.16-.08,6.54,6.54,0,0,1-1.3-.35,15.4,15.4,0,0,1-1.46-.9,19.22,19.22,0,0,1-1.49-1.25,2,2,0,0,1-.33-.47s-.48-.51-.9-1-.79-1.05-.83-1.09a3.62,3.62,0,0,1-.64-1.41.76.76,0,0,0-.13-.29,13.47,13.47,0,0,1-.94-2.45c-.14-.43-.28-.84-.43-1.26a2,2,0,0,1,0-.24c0-.1,0-.2,0-.3-.31-1-.45-2-.72-3-.07-.23,0-1.39-.06-1.66S294.28,185,294.21,184.86Z"/><path class="cls-1" d="M310.83,185.23c-.15-.21.13-.38.66-.57a1.8,1.8,0,0,1,.77,0,3.45,3.45,0,0,1,.38.39,12.32,12.32,0,0,1,.32,1.87,4.47,4.47,0,0,1-.06,1.32,19.64,19.64,0,0,1-.6,2.63,1.8,1.8,0,0,1-.26.54,11.55,11.55,0,0,0-.91,1.83.57.57,0,0,0-.08.34,6.18,6.18,0,0,1-1.09,2c-.46.41-.89.83-1.35,1.2-.07.06-.11.14-.23.14-.28,0-.37.15-.5.27a2.42,2.42,0,0,1-.6.45,1.14,1.14,0,0,1-.43.08c-.14,0-.32-.26-.32-.31s-.17-.2-.27-.29a.94.94,0,0,1-.1-.1,9.67,9.67,0,0,1,.5-1.49,13.22,13.22,0,0,0,1-1.8.72.72,0,0,1,.22-.24,13,13,0,0,0,.59-1.45c.16-.26.19-.57.49-.77a.27.27,0,0,0,.09-.15c.16-.5.4-1,.59-1.45a6.2,6.2,0,0,0,.2-.77.35.35,0,0,1,.08-.13.51.51,0,0,0,.07-.17,8.45,8.45,0,0,0,.28-1.87,7.32,7.32,0,0,0,.24-1C310.54,185.63,310.9,185.32,310.83,185.23Z"/><path class="cls-1" d="M282.82,208c1.47,4.72,2.74,9.81,2.65,14.78,0,.94,3,1.43,3.06.76.09-5.09-1.18-10.28-2.68-15.11-.26-.83-3.26-1.2-3-.43Z"/><path class="cls-1" d="M303.06,205.17c-1.1,4.83,0,11.41,2,15.88.33.72,3.25.28,2.85-.6-2-4.34-3-10.9-1.91-15.57.14-.61-2.77-.67-3,.29Z"/><path class="cls-1" d="M173.2,269.65l3.55-1a1.19,1.19,0,0,1,.79,0l.64.13.8.16,1.61.33,3.26.48,3.29.33a82.57,82.57,0,0,0,13.25-.07,78.88,78.88,0,0,0,13.07-2.17,47.44,47.44,0,0,0,12.17-4.77c.66-.43,1.33-.79,2-1.27l2-1.41c1.32-1,2.62-1.95,3.93-2.94,2.59-2,5.18-4,7.75-6.06,6.4-5,12.73-10.19,19-15.36l9.46-7.77,4.73-3.89,2.39-1.94,1.22-1a4,4,0,0,1,.94-.62,2.31,2.31,0,0,1,1.19-.14l1.37.15,1.27.11,2.55.19c1.7.09,3.41.17,5.11.19a78.27,78.27,0,0,0,10.17-.45,39.16,39.16,0,0,0,7.27-1.44c.58-.2,1.18-.34,1.73-.58l1.66-.72,1.62-.93a2.77,2.77,0,0,1,1.32-.49,2.2,2.2,0,0,1,1.33.38l1.81,1.12,1.67,1,3.31,2.15c2.19,1.44,4.35,2.92,6.48,4.41A183.21,183.21,0,0,1,344.58,238c1.26,1.08,2.47,2.22,3.66,3.38s2.34,2.37,3.49,3.57,2.18,2.54,3.26,3.8c.52.67,1,1.36,1.49,2a21.74,21.74,0,0,1,1.4,2.09c2.13,3.66,1.12,3.45-1.3.94-.56-.65-1.37-1.35-2.2-2.19l-1.33-1.35-1.53-1.44c-2.07-2.05-4.62-4.32-7.33-6.87a168,168,0,0,0-14.47-11.77q-3.77-2.78-7.65-5.4-1.94-1.32-3.9-2.6l-2-1.27-1.75-1.1,0,0h0l.05,0-.08.05-.14.07a15.38,15.38,0,0,1-2.2,1.15,28.52,28.52,0,0,1-4.53,1.55,51,51,0,0,1-9.17,1.38c-3.06.21-6.11.24-9.15.15-1.52-.06-3-.13-4.55-.25q-1.14-.07-2.28-.18l-1.14-.12-1-.11a.25.25,0,0,0-.17,0l-.08.06-.27.21-1.35,1.06L275.61,227c-12.58,10.16-25.35,21.13-38.49,31.28-1.8,1.39-3.64,2.76-5.48,4.11l-2.82,2-1.51.94-.76.47-.78.4A55.33,55.33,0,0,1,212.66,271a86.16,86.16,0,0,1-27.49,1.81c-1.25-.1-2.5-.28-3.74-.47s-2.48-.44-3.72-.68a2.73,2.73,0,0,0-.58-.1l-.68.2-1.78.52-3.56,1-14.24,4.2-.46.13-.38-.27-.23-.16-.08-.06-.06-.05,0,0h0l-.08-.09a1,1,0,0,1-.22-.85,1,1,0,0,1,.39-.59,1.06,1.06,0,0,1,.79-.17c.14,0,.12,0,.13,0h0l.13.06.49.25.87.48,1.7.95a248.49,248.49,0,0,0,22.53,11.61,39.86,39.86,0,0,0,5.85,2c2,.37,4.11.61,6.17.81A94.32,94.32,0,0,0,226,288.84a85,85,0,0,0,9.06-3,51.32,51.32,0,0,0,8.39-4.35,60.07,60.07,0,0,0,6.65-5A105.7,105.7,0,0,0,258,268.8a24,24,0,0,1,3.7-3.41,12.84,12.84,0,0,1,1.32-.91c.55-.24.3.6-.69,2.3a43.44,43.44,0,0,1-5.48,7.15,60.79,60.79,0,0,1-13.93,11.33,51.49,51.49,0,0,1-8.33,3.92,78.35,78.35,0,0,1-8.79,2.71,97.74,97.74,0,0,1-18.31,2.73,91.43,91.43,0,0,1-18.68-.82,24.81,24.81,0,0,1-4.8-1.32c-1.5-.55-3-1.15-4.38-1.79-2.85-1.26-5.63-2.64-8.38-4.05s-5.47-2.88-8.17-4.37L159,280l-2-1.13-1-.55-.44-.23h0a1.78,1.78,0,0,1,.09-.21l.18-.35c.11-.22.2-.46.29-.69a2.69,2.69,0,0,1,.12-.34c.06,0,.11-.11.08-.17l0,0a.08.08,0,0,0,.08,0s.05-.05.06-.08a.11.11,0,0,1,.06-.11,7.69,7.69,0,0,0,1-1.21c.09-.12.07-.08.07-.08h0l0,0,.1.06-1.67-.26,17.13-5.08Z"/><path class="cls-1" d="M206.37,255.73c3.39.73,2.67,4.15,4.41,6.72,6.79,10.05,25-8.24,30.69-12.48,6.15-4.58,36-21.46,32.43-41.3-2.43-13.49-14.85-20.87-28-21.35-17.8-.66-25.31,9.7-37.64,20.15S182,212.26,167.51,214c-7.39.87-22.74,3.86-21.34,14.25.77,5.66,6.24,10.24,11.53,10.71,7.77.69,19.43,3.09,22.12,5.25,2.85,2.28,3.87,6.05,6.78,8.25C189.91,254.94,203.58,255.13,206.37,255.73Z"/><path class="cls-1" d="M194,211.41a25.47,25.47,0,0,0,10.65-3.83c.77-.56,1.52-1.14,2.29-1.71l2.33-2,4.61-4.09a96.27,96.27,0,0,1,9.8-8,35.83,35.83,0,0,1,11.82-5.33,37.41,37.41,0,0,1,9.4-1,37,37,0,0,1,9.35,1.25A31.35,31.35,0,0,1,268.7,195a25.54,25.54,0,0,1,6.93,15.17,21.18,21.18,0,0,1-1.05,8.42,30.63,30.63,0,0,1-3.69,7.45,59.74,59.74,0,0,1-11,11.95,135.3,135.3,0,0,1-11.37,8.62c-1.94,1.34-3.93,2.65-5.8,4s-3.55,2.9-5.35,4.4c-2.3,1.94-4.63,3.88-7.11,5.68a42.22,42.22,0,0,1-8,4.77,16.5,16.5,0,0,1-4.72,1.34,8.58,8.58,0,0,1-5.22-1,7.38,7.38,0,0,1-2.08-1.76,8.68,8.68,0,0,1-1.38-2.28c-.63-1.59-.82-3.14-1.37-4s-1.43-1.13-1.28-1.51c.05-.16.31-.31.79-.36a2.77,2.77,0,0,1,2,.71,8.57,8.57,0,0,1,1.8,2.62,15.4,15.4,0,0,0,.79,1.41,5.58,5.58,0,0,0,1,1.13,4.66,4.66,0,0,0,2.68,1.29,10,10,0,0,0,3.74-.49,30.49,30.49,0,0,0,7.51-3.87c2.44-1.64,4.8-3.49,7.14-5.4l3.52-2.93,1.81-1.48c.61-.5,1.32-1,2-1.47,2.61-1.78,5.13-3.4,7.62-5.14a100.33,100.33,0,0,0,13.93-11.38,47.71,47.71,0,0,0,5.63-6.8,25.51,25.51,0,0,0,3.68-7.77,16.65,16.65,0,0,0,.63-5,7.67,7.67,0,0,0-.08-1.27c-.05-.42-.08-.84-.16-1.27-.21-.84-.34-1.72-.61-2.55a22.44,22.44,0,0,0-5.29-9,27.38,27.38,0,0,0-8.89-5.87A33.42,33.42,0,0,0,246.89,189a35.16,35.16,0,0,0-11.8,1.09,34,34,0,0,0-10.62,5.33,113.83,113.83,0,0,0-9.44,7.9c-1.55,1.38-3.1,2.78-4.7,4.14l-1.19,1-1.3,1c-.44.32-.86.67-1.32,1l-1.41.84-.86.52-.91.43c-.62.27-1.22.57-1.84.82a29.25,29.25,0,0,1-3.84,1.17,36.8,36.8,0,0,1-7.85,1c-5.23.16-10.34-.39-15.38-.39a57.54,57.54,0,0,0-11.34,1,35.12,35.12,0,0,0-10.66,3.53,12,12,0,0,0-4,3.46,7.2,7.2,0,0,0-1.27,4.82,11.44,11.44,0,0,0,5.61,8.54,12.1,12.1,0,0,0,3.78,1.56c1.24.25,2.87.3,4.33.5,3,.35,5.92.8,8.85,1.39a51.8,51.8,0,0,1,8.76,2.37,9.26,9.26,0,0,1,2.27,1.23,11.79,11.79,0,0,1,1.77,1.76c1,1.25,1.81,2.56,2.62,3.71a11.2,11.2,0,0,0,2.3,2.51,9.06,9.06,0,0,0,3,1.1c2.23.5,4.21.73,5.86.94s3,.38,4.1.56a13,13,0,0,1,4.51,1.31,6.29,6.29,0,0,1,1.29.81c.34.43-.37.59-2.12.69a62.1,62.1,0,0,1-8.14-.15,39.8,39.8,0,0,1-8.26-1.35l-1.14-.45a11.12,11.12,0,0,1-1.2-.71,12.5,12.5,0,0,1-1.76-1.63,34.06,34.06,0,0,1-2.54-3.47,13.38,13.38,0,0,0-2.25-2.71l-.3-.25-.24-.15a4.6,4.6,0,0,0-.67-.34c-.52-.23-1.09-.45-1.69-.65a66.81,66.81,0,0,0-7.68-1.91c-2.65-.5-5.33-.93-8-1.25-1.38-.19-2.52-.19-4.32-.53a15.12,15.12,0,0,1-4.57-1.79,15.87,15.87,0,0,1-6.5-7.16,12.75,12.75,0,0,1-1.11-5,10.63,10.63,0,0,1,1.24-5.19,14,14,0,0,1,5.22-5.24,28.84,28.84,0,0,1,6.2-2.76,57,57,0,0,1,12.79-2.41c8.7-.69,17.05.93,24.82-.14Z"/><path class="cls-1" d="M145.92,237.57a1.61,1.61,0,0,1,1.88.16c.21.13.36.71.21.84a10.9,10.9,0,0,1-.92.76c-.2.11-3.52,1.63-4.61,2.21s-2.16,1-3.25,1.52c-2.23,1-4.39,2.09-6.53,3.21-.48.25-1,.49-1.45.71a29.2,29.2,0,0,0-4.83,2.69,3.66,3.66,0,0,0-.72.58c-.15.21-1.3,1-2.4,1.8s-2.25,1.64-2.5,1.84a41.43,41.43,0,0,0-3.87,2.85,1.72,1.72,0,0,1-.55.41,2.87,2.87,0,0,0-1.2.88c-.48.5-1,1-1.48,1.45a5.14,5.14,0,0,1-.9.58c-.28.17-.46-.19-.41-.3.11-.31-.19-.23-.33-.3a.27.27,0,0,1-.13-.1,16.43,16.43,0,0,1,1.11-1.87,13.64,13.64,0,0,1,1.46-2l.71-.73c.42-.42.94-1,1.56-1.55,1.19-1.09,2.43-2.25,2.71-2.44a6.13,6.13,0,0,1,.9-.6c.08,0,1-.86,2-1.6l2.1-1.54a13.42,13.42,0,0,1,2.62-1.45,2.73,2.73,0,0,0,.53-.29,45.5,45.5,0,0,1,4.53-2.39c.79-.37,1.54-.82,2.34-1.18a3.89,3.89,0,0,1,.44-.16c.19-.07.38-.13.56-.21,1.84-.93,3.79-1.63,5.65-2.51.43-.21,2.63-.79,3.14-1C144.61,237.68,145.68,237.71,145.92,237.57Z"/><path class="cls-1" d="M69.33,389.9c-2.22-3.18-2.67-6.92-2.74-10.6q-.36-18.46-.44-37c0-10.6.16-21.2.17-31.8a102,102,0,0,1,.62-13.9,44.69,44.69,0,0,1,1.47-7A29.82,29.82,0,0,1,71.25,283a27.3,27.3,0,0,1,10.37-10.12A46.92,46.92,0,0,1,95,268a104.18,104.18,0,0,1,16.33-2c5.22-.28,10.43-.36,15.63-.27a22.13,22.13,0,0,1,2.61.11c2.21.33,2.67,1.35,1,2a3.17,3.17,0,0,1-1.2.41c-4-.14-7.19,1.11-11.37,1.08a97.88,97.88,0,0,0-22.81,2.65,59.54,59.54,0,0,0-8.55,2.72,27.14,27.14,0,0,0-9.28,6.08,21,21,0,0,0-3.92,5.78,36.32,36.32,0,0,0-3.11,12.1,77.82,77.82,0,0,0-.39,7.85v27c0,24.6,0,48.14,0,49.35C69.87,384.89,69.6,386.81,69.33,389.9Z"/><path class="cls-1" d="M266,266.72c3.23-2.2,7-2.65,10.68-2.74,12.39-.3,24.82-.58,37.25-.63,10.69,0,21.39.23,32.1.53,9.21.28,18.42.62,27.67,1.58,2.31.24,4.63.54,6.95.94,1.16.21,2.33.43,3.51.73a17.36,17.36,0,0,1,1.77.49l.9.29.92.39a10.47,10.47,0,0,1,1.67.89l1.58.93c1,.66,2,1.44,3,2.16s1.82,1.62,2.67,2.5l1.21,1.36a11.9,11.9,0,0,1,1.16,1.41l1.27,1.73c.41.58.76,1.21,1.14,1.81a42.52,42.52,0,0,1,2,3.76,55.68,55.68,0,0,1,2.92,7.91,79.9,79.9,0,0,1,2.85,15.71,17.37,17.37,0,0,1,.17,2.66c-.14,2.28-1.12,2.81-1.94,1.2a3.15,3.15,0,0,1-.51-1.16c-.27-4-1.87-7.06-2.54-11.15-1.29-7.55-4.15-14.91-8.9-20.57a35.59,35.59,0,0,0-6.48-5.91l-2.39-1.49-1.12-.53-1.3-.45a44.25,44.25,0,0,0-5.64-1.31c-1.32-.22-3.9-.6-7.44-.94s-8-.67-13.12-.91c-10.2-.51-22.85-.73-35.23-.78s-24.51.05-33.69.12-15.43.1-16,.08C271.1,267.27,269.15,267,266,266.72Z"/><path class="cls-1" d="M156.62,273.78a3.2,3.2,0,0,1,2.24,1.83c.14.29-.18.79-.48.73-.58-.12-1.17-.21-1.76-.34-.17-.05-1.61-.55-3.28-1s-3.55-1-4.52-1.21c-1.86-.46-3.71-1-5.57-1.51l-5.69-1.62-.78-.25a8.3,8.3,0,0,1-.91-.36,6.49,6.49,0,0,1-1.19-.66,3.5,3.5,0,0,1-.94-.94,2.56,2.56,0,0,1-.26-2.41,4.36,4.36,0,0,1,1.84-2,7.54,7.54,0,0,1,.83-.47l.68-.3c.45-.18.9-.34,1.35-.47,1.54-.45,3-.81,4.58-1.11s3.06-.49,4.61-.67a11,11,0,0,0,1.53-.2,26.4,26.4,0,0,1,5.1-.11,27.69,27.69,0,0,1,5.28.79,30.26,30.26,0,0,1,7.54,3.29,4.46,4.46,0,0,1,1,.64,11.35,11.35,0,0,0,2,1.48c.94.65,1.85,1.34,2.71,2.07a12.24,12.24,0,0,1,1.16,1.23c.33.38-.11.51-.27.44-.47-.21-.25.17-.31.32s0,.12-.09.14-.38-.2-.92-.5l-2-1.14c-1.47-.82-3-1.58-3.33-1.75,0,0-.56-.31-1.35-.71a27.31,27.31,0,0,0-3-1.29,24.67,24.67,0,0,0-5.19-1.27c-.53-.07-1-.21-1.57-.3a29.6,29.6,0,0,0-3.85-.15c-1.87,0-3.74.26-3.89.27-1.48.11-3,.42-4.46.47a4.43,4.43,0,0,0-.87.16c-1.23.32-2.48.68-3.65,1.1-.29.1-.57.21-.85.33l-.7.32-.19.09a.38.38,0,0,0-.11.11c-.05.11.07.19.16.23l.12.05.1,0,.2.07c.27.1.57.19.88.29s.46.17.69.25.58.22.88.31c3.11.86,6.21,1.84,9.36,2.69.73.18,4.08,1.54,4.91,1.81C154.83,272.74,156.2,273.67,156.62,273.78Z"/><path class="cls-1" d="M71.37,399.91c6.17-2.22,13.42-2.67,20.57-2.74q35.88-.36,71.79-.44c20.59,0,41.19.16,61.78.17q53.14,0,106.28,0c10.46,0,20.92,0,31.39,0,10,0,20-.13,30.06-.19,1.68,0,3.45-.1,5,0,4.28.24,5.27,1.24,2.12,2a10.3,10.3,0,0,1-2.3.45c-7.77.05-14,1.34-22.16,1.3-15.15-.07-30.32.28-45.49.41q-9.09.09-18.21,0c-7.75-.06-15.49-.23-23.24-.3-21.19-.17-199.41,0-204.11-.06C81.1,400.45,77.36,400.18,71.37,399.91Z"/><path class="cls-1" d="M70.92,408.3v10.29c0,.44,2.9,0,2.9-.78V407.52c0-.43-2.9,0-2.9.78Z"/><path class="cls-1" d="M79.69,408.3v10.29c0,.7,2.9.22,2.9-.78V407.52c0-.7-2.9-.22-2.9.78Z"/><path class="cls-1" d="M396.44,407.74V419c0,.56,2.9.12,2.9-.78V407c0-.55-2.9-.12-2.9.78Z"/><path class="cls-1" d="M400.37,358.83l12.13,58.44c.08.37.59.55.91.55h31.31c1.24,0,3-1.87,1.07-1.87H416.63a7.85,7.85,0,0,1-2.11,0c1.52.55.51.58.67-.46.27-1.75-1-4.64-1.32-6.37l-2.26-10.89-5.2-25-3.14-15.15c-.24-1.16-3.15-.43-2.9.78Z"/><path class="cls-1" d="M463.11,360.08l-10,54.73c-.25,1.32,2.7.9,2.92-.28l10-54.72c.24-1.32-2.71-.9-2.92.27Z"/><path class="cls-1" d="M470.66,339a25.84,25.84,0,0,1-.66,10.5c-2.67,9.57-11.21,11.05-20,9.21-1-.2-3.41,1.27-1.77,1.61,8.56,1.78,18.84,1.2,23.31-7.54a24.85,24.85,0,0,0,2.06-14.56c-.15-1-3.06-.33-2.9.78Z"/><path class="cls-1" d="M426.35,359a69.29,69.29,0,0,1-18.59.14c-4.17-.48-7.11-3.39-8.82-7.05a29.74,29.74,0,0,1-2.38-13.8c.08-1.34-3.68-.55-3.75.55-.3,5.56.53,11.91,3.66,16.62a12.55,12.55,0,0,0,9.94,5.61c6.29.53,13.12.81,19.36-.25,1.68-.28,3.21-2.27.58-1.82Z"/><path class="cls-1" d="M472.11,338.59c-15.05,4.74-30.06,5.27-45.76,4.67-27.91-1.06-31.43-5-31.66-4.67,1.56-2.46,7.54-2.66,15.47-4.35,7.07-1.52,31.95-.5,34.5-.42C455.54,334.15,464.9,333.57,472.11,338.59Z"/><path class="cls-1" d="M471.75,337.24c-20.06,6.09-42.24,5.95-62.89,3.19a55.5,55.5,0,0,1-11.4-2.49c-1.35-.48-2.65-1.4-4-.26l2.85,1.51c2-2.42,7.89-2.39,10.73-2.91a67.21,67.21,0,0,1,8.47-1.21c5.63-.33,11.29-.26,16.93-.16,3.87.07,7.74.21,11.61.33,8.94.28,18.79-.59,26.65,4.47,1.46.94,4.72-1.06,2.88-2.23-7.57-4.88-16.46-4.82-25.17-5-5.6-.13-11.2-.36-16.8-.45-6.5-.1-13.19-.35-19.65.51-3.88.52-7.79,1.33-11.62,2.12-2.64.54-5.42,1.18-7.21,3.35-1.46,1.76,1.69,2.46,2.85,1.5-1.6,1.32-2.8-.26-1,.91a12.13,12.13,0,0,0,3.28,1.07A89.09,89.09,0,0,0,413.93,344c19.52,1.74,39.65,1.72,58.54-4C474.77,339.25,474.08,336.54,471.75,337.24Z"/><path class="cls-1" d="M421.59,288.51a2.28,2.28,0,0,1-.26-2.18c.08-.25.6-.49.78-.31a11,11,0,0,1,1,1.06c.09.12.69,1.17,1.31,2.4s1.25,2.62,1.57,3.32a39.31,39.31,0,0,1,1.58,4.2c.94,2.89,1.76,5.81,2.5,8.74.16.65.29,1.31.4,2,.34,2.27.82,4.52,1.3,6.76a6.07,6.07,0,0,0,.3,1.11,64.6,64.6,0,0,1,1.39,7.51c.17,2,.33,4,.49,6a3.06,3.06,0,0,1,0,.85,5.47,5.47,0,0,0,0,1.85c.09.86.16,1.71.18,2.57a8,8,0,0,1-.12,1.28c-.06.38-.43.22-.49.09-.15-.36-.28,0-.43,0a.27.27,0,0,1-.15,0,6.69,6.69,0,0,1-.24-.78c-.12-.47-.29-1.08-.45-1.71-.33-1.26-.66-2.58-.7-2.85l-.64-3.72c-.33-1.87-.71-3.82-.8-4.21a9.16,9.16,0,0,1-.15-1.27c0-.2-1.24-5.76-1.29-6a24.07,24.07,0,0,1-.58-3.48,2.78,2.78,0,0,0-.12-.7c-.48-2-.86-3.95-1.32-5.92-.24-1-.52-2-.81-3-.05-.18-.07-.36-.11-.55s-.08-.46-.15-.68a68.72,68.72,0,0,0-2.29-6.94c-.21-.52-.93-3.1-1.24-3.67C421.92,290,421.79,288.77,421.59,288.51Z"/><path class="cls-1" d="M424.05,292.07c-4.58.9-10.89-5.44-13.19-8.95a24,24,0,0,1-3-17.91c.87-4.29,3.62-8.47,6.22-12.1C432.55,267.67,426.05,291.68,424.05,292.07Z"/><path class="cls-1" d="M420.62,290.44a12.77,12.77,0,0,1,3.18,1.45c.36.2.49.9,0,1.05a6.41,6.41,0,0,1-2.92.22,11.63,11.63,0,0,1-1.71-.57,16.69,16.69,0,0,1-3.06-1.71,31.28,31.28,0,0,1-5.18-4.51,20,20,0,0,1-4.36-7.43,26.31,26.31,0,0,1-1.36-8.6,29.85,29.85,0,0,1,.34-4.33,20.59,20.59,0,0,1,2.82-7.76c.56-.93,1.15-1.83,1.74-2.7l.9-1.3,1.5-2.11.83-1.16.21-.28.1-.15.05-.07s.05,0,.07,0l.54.45,2.18,1.83c.17.14.38.3.52.44l.33.31.59.55a15.6,15.6,0,0,1,1.16,1.14c.5.52,1,1.06,1.5,1.54a26.49,26.49,0,0,1,4.08,5.8,31.79,31.79,0,0,1,2.69,6.86,40.51,40.51,0,0,1,.94,11.17,6.63,6.63,0,0,1-.17,1.57,22.55,22.55,0,0,0-.61,3.36,21.27,21.27,0,0,1-1.26,4.62,5.84,5.84,0,0,1-1.47,2.1.78.78,0,0,1-.54.21c-.13,0-.15-.08-.13-.15a2.35,2.35,0,0,1,.18-.44c.33-.6-.2-.27-.34-.42a.44.44,0,0,1-.14-.13s.16-.31.39-1.07a19.5,19.5,0,0,0,.58-2.92,42.57,42.57,0,0,0,.3-5c0-.05.05-.86,0-2.07a33.11,33.11,0,0,0-.34-4.43,32.11,32.11,0,0,0-1.8-7.09c-.27-.67-.46-1.37-.71-2a28,28,0,0,0-2.54-4.51,31,31,0,0,0-3.3-4c-.34-.37-.67-.75-1-1.08l-.93-.88a.2.2,0,0,0-.09-.18c-.05,0-.07,0-.08.06-2,3-3.82,6-4.63,9.15a22.35,22.35,0,0,0-.56,5.18c0,.31-.05.63-.05.94a9.43,9.43,0,0,0,0,1.19,19.36,19.36,0,0,0,4.43,11.24c.3.36,1.16,1.46,2.13,2.49a17.25,17.25,0,0,0,2.5,2.27C418.61,288.9,420.07,290.35,420.62,290.44Z"/><path class="cls-1" d="M446.82,278.63a2.62,2.62,0,0,1,2.46-1.1c.3,0,.57.53.4.74-.34.41-.64.84-.95,1.26l-.64.73a18.93,18.93,0,0,0-1.15,1.63c-.21.32-.44.62-.63,1l-.53,1a16.36,16.36,0,0,0-.79,1.62c-.32.78-.65,1.56-1,2.32l-.92,2.39a83.06,83.06,0,0,0-2.91,10.1c-.19.76-.36,1.52-.57,2.28-.37,1.3-.69,2.61-.93,3.94s-.49,2.65-.66,4a7.6,7.6,0,0,0-.13,1.34c0,.36-.23,2.36-.49,4.39s-.49,4.09-.59,4.56c-.41,2.33-.75,4.68-1.08,7a3.61,3.61,0,0,1-.17,1,7.54,7.54,0,0,0-.38,2.16c-.1,1-.2,2-.35,3a11.09,11.09,0,0,1-.38,1.48c-.12.44-.46.18-.49,0-.08-.47-.27-.1-.42-.07a.29.29,0,0,1-.16,0,6.87,6.87,0,0,1-.08-1l-.11-2.12c-.05-1.56-.08-3.2-.06-3.52,0-.08.15-2.27.29-4.56s.36-4.68.4-5.17a13.33,13.33,0,0,1,.24-1.52c0-.24.74-7.1.82-7.38a26.37,26.37,0,0,1,.84-4.21,5.43,5.43,0,0,0,.18-.84c.41-2.43,1-4.83,1.63-7.22.3-1.22.63-2.45,1-3.67.06-.22.16-.43.23-.64s.2-.55.29-.82c.48-1.43.9-2.87,1.5-4.26.29-.7.56-1.41.86-2.11s.64-1.38.94-2.08a15,15,0,0,1,1.28-2.06c.3-.42.55-.88.85-1.22s.52-.64.64-.81C445.33,279.88,446.54,278.94,446.82,278.63Z"/><path class="cls-1" d="M473,248.67c-27.14,4.09-26.19,31.25-26.19,31.25S466.94,281.54,473,248.67Z"/><path class="cls-1" d="M469,248.37a4.51,4.51,0,0,1,3.78.14.64.64,0,0,1,0,1.05c-.72.34-1.44.64-2.17.93-.22.11-2.14.63-4.17,1.48a28.77,28.77,0,0,0-5.12,2.84,30.52,30.52,0,0,0-5.25,4.7,29.32,29.32,0,0,0-6.29,12.9c-.24,1.06-.47,2.13-.68,3.19-.08.36-.13.71-.19,1.07l-.13.92,0,.15,0,.07a.66.66,0,0,0,0,.15.49.49,0,0,0,.22,0H449l.21,0a7.62,7.62,0,0,0,.81-.14,18,18,0,0,0,3.16-1,8.24,8.24,0,0,0,1.59-.82c.19-.16.86-.57,1.78-1.12a28.53,28.53,0,0,0,2.95-2.38,30,30,0,0,0,4.1-4.66,38.57,38.57,0,0,0,4.95-8.54c.23-.42.31-.94.57-1.31a11.67,11.67,0,0,0,1.19-2.87l.35-1,.27-1c.19-.71.38-1.41.59-2.11a19.42,19.42,0,0,1,.82-2c.26-.61.62-.18.62.05,0,.67.31.19.5.16s.16,0,.2,0a12,12,0,0,1-.13,1.4c-.1.83-.24,1.94-.38,3.07a25.61,25.61,0,0,1-.62,3.22c-.21.93-.39,1.63-.46,1.86l-.18.6a10.68,10.68,0,0,1-.49,1.44c-.49,1.16-1,2.75-1.76,4.3-.4.76-.8,1.54-1.18,2.28l-.56,1.08c-.22.34-.43.65-.62,1-.8,1.19-1.38,2.12-1.61,2.42-.48.61-1.06,1.17-1.6,1.73a28,28,0,0,1-4.15,3.89,25.1,25.1,0,0,1-3.23,2.13c-.95.51-1.67.79-1.76.84a12.62,12.62,0,0,1-1.59.59,13.23,13.23,0,0,1-1.63.48,13.44,13.44,0,0,1-1.68.31l-1.14.11c-.49,0-1,0-1.41,0l-2.19-.07-.33,0c0-.79-.06-1.56-.05-2.37,0-.4,0-.83,0-1.19l.07-1.05c.08-.91.2-1.82.34-2.71a40.14,40.14,0,0,1,1.29-5.3,40.65,40.65,0,0,1,2-5.31c.15-.31.35-.6.52-.89l.68-1.12a29.65,29.65,0,0,1,9.21-9.83,8,8,0,0,1,1.21-.71c.56-.29,1.23-.65,1.93-.93,1.38-.64,2.85-1.07,3.39-1.33S468.45,248.55,469,248.37Z"/><path class="cls-1" d="M464.87,302.88a1.63,1.63,0,0,1,1.91-.06c.23.11.43.67.29.82s-.53.58-.82.84c-.08.08-.9.57-1.77,1.18s-1.77,1.38-2.22,1.76c-.85.79-1.76,1.51-2.61,2.3a41.47,41.47,0,0,0-4.81,5.26c-.34.4-.68.82-1,1.22a17.81,17.81,0,0,0-1.72,2.15,26.94,26.94,0,0,0-1.48,2.33,3.06,3.06,0,0,0-.41.83c-.05.26-.73,1.45-1.38,2.68s-1.31,2.49-1.49,2.77c-.88,1.36-1.66,2.79-2.43,4.23a2,2,0,0,1-.36.6,3.27,3.27,0,0,0-.79,1.29c-.29.64-.59,1.27-.92,1.9a5.18,5.18,0,0,1-.65.85c-.2.26-.49,0-.49-.15,0-.34-.25-.16-.4-.18a.53.53,0,0,1-.15-.05,16.9,16.9,0,0,1,.39-2.13c.26-1.07.54-2.18.63-2.39l.38-.94c.22-.55.5-1.28.82-2,.61-1.49,1.31-3,1.44-3.33a5.17,5.17,0,0,1,.55-.93c0-.07.59-1.19,1.15-2.31s1.17-2.24,1.23-2.31a12.09,12.09,0,0,1,1.75-2.46,2.47,2.47,0,0,0,.36-.49A35,35,0,0,1,453,312c.56-.68,1.16-1.34,1.74-2,.11-.12.24-.22.36-.33a4.4,4.4,0,0,0,.46-.4,51.66,51.66,0,0,1,4.75-4.22c.38-.32,2.47-1.41,3-1.7C463.56,303.19,464.65,303.06,464.87,302.88Z"/><path class="cls-1" d="M463.16,305.18c11.35-22.49,30.77-21.33,30.77-21.33S493.93,312.48,463.16,305.18Z"/><path class="cls-1" d="M465.87,302.61a4.35,4.35,0,0,1-2.43,2.49c-.36.16-1-.2-.88-.58.2-.74.41-1.49.67-2.23,0-.12.28-.62.64-1.35s1-1.61,1.54-2.58l.91-1.47c.33-.47.69-.92,1-1.35.67-.86,1.23-1.64,1.65-2.13.85-.93,1.7-1.86,2.62-2.73s1.92-1.66,3-2.38a35.77,35.77,0,0,1,14.14-6.11c.57-.09,1.15-.16,1.73-.23l.9-.06a11.55,11.55,0,0,1,1.55,0l1.53,0,1.47.09-.08,2.18c-.05.74-.11,1.47-.2,2.12a7.69,7.69,0,0,1-.11.77l-.1.62c-.08.41-.14.82-.24,1.23a34.79,34.79,0,0,1-1.34,4.84c-.21.62-.52,1.23-.67,1.87a19.45,19.45,0,0,1-3.44,5.63,20.47,20.47,0,0,1-3.22,3l-1.38.91c-.39.22-.69.36-.85.44a23.5,23.5,0,0,1-10.2,2.23,4.37,4.37,0,0,1-1.45-.07,6.79,6.79,0,0,0-1.53-.25l-1.54-.15-1.07-.11-1-.19a20.21,20.21,0,0,1-2.08-.45,16.61,16.61,0,0,1-2-.77c-.58-.24-.15-.6.07-.61.65,0,.2-.31.18-.5a.33.33,0,0,1,0-.2,10.3,10.3,0,0,1,1.29.08l1.3.12,1.5.06c2.06.11,4.17,0,4.58,0a17.31,17.31,0,0,0,1.85-.1,14.77,14.77,0,0,0,1.81-.22l1-.17c.35-.08.69-.18,1-.27a17.47,17.47,0,0,0,3.74-1.44c.49-.29.94-.54,1.27-.75l.68-.5,1.51-1.07s.48-.45,1-1.06a17,17,0,0,0,1.79-2.41,21,21,0,0,0,2-4.13c.67-1.66,1-3.42,1.59-5.14a4.81,4.81,0,0,0,.2-1.07,2.54,2.54,0,0,0,0-.32v-.24l-.16,0h-.08l-.17,0a7.53,7.53,0,0,0-.83.08,28.62,28.62,0,0,0-3.31.57,27.12,27.12,0,0,0-4.54,1.58c-.26.11-.54.19-.81.3a7.49,7.49,0,0,0-1,.41,30.9,30.9,0,0,0-9.1,6.88,39.2,39.2,0,0,0-4,4.64C467.51,300.79,466,302.07,465.87,302.61Z"/><path class="cls-1" d="M280.34,112.46c-5.75,2.23-12.49,2.67-19.14,2.74q-33.36.38-66.76.45c-19.15,0-38.3-.16-57.46-.18h-1.52a8.67,8.67,0,0,0-1.25.11,8,8,0,0,0-2.37.78,8.78,8.78,0,0,0-2,1.47,8.57,8.57,0,0,0-1.47,2,7.64,7.64,0,0,0-.79,2.36,8.81,8.81,0,0,0-.12,1.25v72.94l0,.32c0,.21,0,.42,0,.63a8.49,8.49,0,0,0,.24,1.22,8.23,8.23,0,0,0,2.69,4.13,8.07,8.07,0,0,0,2.59,1.41,8.7,8.7,0,0,0,1.43.32,4.63,4.63,0,0,0,.74.07l.38,0h22.35l27.95-.19c1.57,0,3.22-.09,4.69,0,4,.25,4.9,1.25,2,2a9.39,9.39,0,0,1-2.13.46c-7.23,0-13,1.33-20.62,1.29-7,0-14.09,0-21.14.13l-10.58.15-2.67,0a12.29,12.29,0,0,1-3.13-.42,12,12,0,0,1-5.43-3.2,12.16,12.16,0,0,1-2.69-4.31,12.72,12.72,0,0,1-.6-2.49c-.07-.43-.06-.86-.09-1.28s0-.73,0-1.11q0-4.23,0-8.46.14-10.81.29-21.62c0-4.92,0-19,.08-37.35v-3.5c0-.58,0-1.16,0-1.9a7.5,7.5,0,0,1,.12-1,6.1,6.1,0,0,1,.22-1,11.66,11.66,0,0,1,5-6.9,11.8,11.8,0,0,1,4.14-1.67c.37,0,.75-.12,1.12-.16l1.13,0H267.76C271.29,111.93,274.76,112.19,280.34,112.46Z"/><path class="cls-1" d="M112.62,106.17a8.67,8.67,0,0,1,2.73,6.71q.38,11.7.45,23.42c0,6.71-.16,13.43-.18,20.15,0,11.55,0,23.11,0,34.66,0,3.41,0,6.83,0,10.24s.12,6.54.19,9.8a9.09,9.09,0,0,1,0,1.65c-.25,1.39-1.25,1.72-2,.69-.17-.23-.44-.49-.45-.75,0-2.53-1.33-4.55-1.3-7.23.07-4.94-.27-9.89-.41-14.84,0-2,0-4,0-5.93.06-2.53.23-5.06.29-7.58.18-6.92,0-65,.06-66.58C112.08,109.35,112.34,108.13,112.62,106.17Z"/><path class="cls-1" d="M117.69,102.43c3.3-2.22,7.16-2.66,11-2.73q19.13-.37,38.27-.45c11,0,22,.16,32.94.18q28.34,0,56.67,0c5.58,0,11.16,0,16.74,0,5.34,0,10.68-.12,16-.19a24.13,24.13,0,0,1,2.69,0c2.28.25,2.81,1.25,1.13,2a3.54,3.54,0,0,1-1.22.45c-4.14,0-7.44,1.33-11.82,1.29-8.08-.06-16.17.28-24.25.42-3.24,0-6.48,0-9.71,0-4.14-.06-8.26-.23-12.39-.29-11.3-.18-106.33,0-108.83-.06C122.88,103,120.89,102.71,117.69,102.43Z"/><path class="cls-1" d="M281.68,231.89c12.5-.71,23.63,3.35,35.17-3.32,1.58-.91-2.17-.53-2.88-.12-9.41,5.44-20.43,1.34-30.66,1.92-1,0-4.1,1.66-1.63,1.52Z"/><path class="cls-1" d="M299.23,421.2q-34.12-.21-68.26-.41c-8.31,0-16.61,0-24.9,0-29.26-.19-58.51-.45-87.77-.62-13-.07-26,0-38.91,0-16.55.08-33.16.37-49.7-.06-10.31-.27,2.77-4.13,21.84-4.17,33.8-.07,67.57.1,101.64.65,20.37.33,41.58.16,62.43.24q34.38.13,68.77.33,21.17.1,42.32.19c21.36.06,42.83.18,64,.13,16.48-.05,32.64-.32,48.94-.5,3.58,0,7.09-.12,10.71-.14,13.42-.06,17.68.21,20.56,1.27a15.25,15.25,0,0,1,1.91.73c1.28.83-4.18,1.51-14,1.75-29.14.72-59.86.83-90.7.84-22.91,0-45.92-.1-68.88-.15Z"/><path class="cls-1" d="M129.56,117.18c19.57.82,39.17-.14,58.75,0,8.8.07,17.59.11,26.38,0,7.24-.13,14.71,0,21.85-1.31,1.74-.32,3.85-2.2.8-1.65-7.45,1.36-15.37,1.11-22.91,1.2-8.34.1-16.67.06-25,0-19-.15-38,.79-57,0-1,0-4.94,1.71-2.81,1.8Z"/><path class="cls-1" d="M122.1,291.6a4.23,4.23,0,0,1-3.56,2.38,28.56,28.56,0,0,0-11.24,3,16.6,16.6,0,0,0-6.76,6.78,28.76,28.76,0,0,0-2.67,8.29,71.57,71.57,0,0,0-.94,9c-.08,1.8-.17,3.59-.17,5.4s.07,3.46.12,5.2a2.88,2.88,0,0,1,0,.88,1,1,0,0,1-1.73.36c-.15-.12-.39-.26-.39-.4,0-1.35-1.16-2.43-1.11-3.86.08-2.64-.17-5.3-.15-8a28.85,28.85,0,0,1,.22-3.21c.18-1.37.47-2.72.73-4.08a49,49,0,0,1,1.67-7,25.38,25.38,0,0,1,2.51-5.44,18.84,18.84,0,0,1,4.44-5,20.1,20.1,0,0,1,5.71-3.1,27.6,27.6,0,0,1,5.37-1.31,38.47,38.47,0,0,1,5.55-.4A19.43,19.43,0,0,1,122.1,291.6Z"/><path class="cls-1" d="M354.55,294c.81-1.92,1.91-2.31,3-2.37a27.91,27.91,0,0,1,10.75,1.47,19.67,19.67,0,0,1,7.9,5.53,23.94,23.94,0,0,1,4.1,7.11,34,34,0,0,1,1.14,3.86c.35,1.29.55,2.59.77,3.89.15.77.19,1.54.29,2.31s.18,1.54.24,2.3c.14,1.47.32,2.93.42,4.39a2.07,2.07,0,0,1,0,.74,1.11,1.11,0,0,1-1.72.37c-.15-.1-.4-.21-.41-.32-.09-1.12-1.23-1.95-1.27-3.12a38.15,38.15,0,0,0-1-6.33c-.2-.82-.3-1.67-.45-2.49a30.09,30.09,0,0,0-.57-3.15,19.25,19.25,0,0,0-2.11-5,16,16,0,0,0-6.44-6.11,21.83,21.83,0,0,0-4.35-1.66,30.65,30.65,0,0,0-4.08-.68,37.52,37.52,0,0,0-4.29-.23A13.27,13.27,0,0,1,354.55,294Z"/><ellipse class="cls-1" cx="204.67" cy="107.96" rx="5.47" ry="1.44"/><path class="cls-1" d="M201.53,107.64c-.25,0-.57.14-.74.18l-.18,0c-.05,0-.12.06-.13.13a.17.17,0,0,0,.08.15l.17.07.48.16a18.11,18.11,0,0,0,4.49.81,14,14,0,0,0,2.05,0,7,7,0,0,0,1.29-.25,1.64,1.64,0,0,0,1.06-.72c.06-.27.05-.23,0,0a1.59,1.59,0,0,1-.89.72,16.31,16.31,0,0,1-5.38,1,14.21,14.21,0,0,1-3.46-.24,3.64,3.64,0,0,1-1.3-.62,1.41,1.41,0,0,1-.55-1.1c0-.9,1.1-1.38,1.93-1.55a11.12,11.12,0,0,1,2.35-.19,32.57,32.57,0,0,1,3.44.24,13,13,0,0,1,2.57.49q.27.09.54.21c.65.31.74.58.77.72l0,.1a.75.75,0,0,0-.41-.59,4.75,4.75,0,0,0-2.28-.52A15.38,15.38,0,0,0,205,107c-1.19.18-2.39.38-3.48.65Z"/></g></svg>