<svg id="Layer_1" data-name="Layer 1" xmlns="http://www.w3.org/2000/svg" width="520" height="520" viewBox="0 0 520 520"><defs><style>.cls-1{fill:#221f1f;}.cls-2{fill:#232020;}</style></defs><title>Notioly v2</title><g id="_99.Report" data-name="99.Report"><path class="cls-1" d="M167.78,331.11c2.42-1.05,11.71,1.05,11.71,1.05l-13.16,36.39,7.8-31.55c.47-1.91-.67-3.26-2.34-4C171.31,332.77,167.31,331.31,167.78,331.11Z"/><path class="cls-1" d="M164.84,211.79a4.5,4.5,0,0,1-1.39,2.53,3,3,0,0,1-1.86.55,20,20,0,0,1-11.44-4.4,22,22,0,0,1-3.73-3.74,23.24,23.24,0,0,1-1.53-2.15,13.29,13.29,0,0,1-.69-1.14l-.36-.62a4.94,4.94,0,0,1-.36-.91,29.31,29.31,0,0,1-1.3-8.89,17.13,17.13,0,0,1,.72-4.69,11,11,0,0,1,2.58-4.41,10.12,10.12,0,0,1,2.48-1.84,13.08,13.08,0,0,1,2.78-1.05,7.33,7.33,0,0,1,.79-.2l.72-.09c.45-.05.9-.08,1.37-.09a9.6,9.6,0,0,1,3,.33,2.61,2.61,0,0,1,1.14.49,1,1,0,0,1,.28,1.3,2.19,2.19,0,0,1-1.09.84c-.2.08-.46.3-.56.25a1.87,1.87,0,0,0-1.61.28,3.19,3.19,0,0,1-1.53.6,6.6,6.6,0,0,0-.77,0l-.37.05c-.08,0,0,0-.07,0l-.16,0a7.19,7.19,0,0,0-.7.24l-.65.31a6.14,6.14,0,0,0-2,1.72,12.87,12.87,0,0,0-1.12,1.73,9.82,9.82,0,0,0-1.06,2.8,17.67,17.67,0,0,0,.16,5.71c.12.72.27,1.47.47,2.24.1.38.21.77.32,1.13a.72.72,0,0,0,.12.25l.31.53a21.35,21.35,0,0,0,3.19,4,20.16,20.16,0,0,0,7.78,4.9,15.91,15.91,0,0,0,4.18.77C163.44,211.3,164,211.52,164.84,211.79Z"/><path class="cls-1" d="M238,191.38a181.94,181.94,0,0,1,2.41,21.72,112.83,112.83,0,0,1-.88,22,60.51,60.51,0,0,1-2.7,10.88,31.85,31.85,0,0,1-5.63,9.93,19.88,19.88,0,0,1-9.65,6.14,22.79,22.79,0,0,1-11.07,0,26.77,26.77,0,0,0,10.43-1.88,19.05,19.05,0,0,0,7.87-6.25,32.33,32.33,0,0,0,4.47-9.2,61.48,61.48,0,0,0,2.33-10.25c.58-3.49.91-7.05,1.16-10.61s.4-7.16.56-10.76C237.54,205.92,237.59,198.67,238,191.38Z"/><path class="cls-1" d="M187.83,251a7.82,7.82,0,0,1-6.06-1,11,11,0,0,1-3.94-4.3,12.2,12.2,0,0,1-1.37-5.17,13.61,13.61,0,0,1,1-5.6l.41-.18c.36.73.7,1.47,1,2.22l.91,2.26a43.45,43.45,0,0,0,2,4.38,18.81,18.81,0,0,0,2.63,4,14.72,14.72,0,0,0,1.7,1.65c.31.25.6.52.93.75l1,.69Z"/><path class="cls-1" d="M218.55,192.2a11.22,11.22,0,0,1,3.15-1.27,6.43,6.43,0,0,1,2.36,0,24.79,24.79,0,0,0,7.69-.08,20.81,20.81,0,0,0,7.07-2.39,9.37,9.37,0,0,0,3.52-3.36,3.38,3.38,0,0,0,.14-1.07,16,16,0,0,0,0-1.83,30.88,30.88,0,0,0-.44-3.81,35.44,35.44,0,0,0-1.46-5.67,13.88,13.88,0,0,0-2.54-4.66,2.64,2.64,0,0,0-1.44-.91l-.08,0-.17,0-.36,0-.73-.07-1.46-.07a31.19,31.19,0,0,0-5.8.37,25.07,25.07,0,0,0-6.51,1.87c-.49.22-1,.46-1.43.72a5.75,5.75,0,0,0-1.05.76,6,6,0,0,0-1.45,2.06,3,3,0,0,1-.32.79,1.46,1.46,0,0,1-2.27-.21c-.14-.2-.39-.48-.34-.67.27-.9.32-1.84.58-2.83a4.54,4.54,0,0,1,1.7-2.68,11.73,11.73,0,0,1,1.37-.84l1.28-.65c.86-.41,1.73-.8,2.61-1.15a29.67,29.67,0,0,1,5.47-1.63,22.27,22.27,0,0,1,4.54-.37,27.71,27.71,0,0,1,2.88.23c.48.05.95.14,1.42.21a7.26,7.26,0,0,1,1.82.44,7.8,7.8,0,0,1,3.18,2.46,18.86,18.86,0,0,1,2.75,5.15,39.56,39.56,0,0,1,1.83,7c.22,1.28.4,2.61.5,4,0,.7.08,1.42.06,2.17a8.53,8.53,0,0,1-.08,1.2,6,6,0,0,1-.12.72,5.15,5.15,0,0,1-.3.86,14.27,14.27,0,0,1-7.47,6.34,26.21,26.21,0,0,1-8.22,1.83,24.67,24.67,0,0,1-8.9-.93,11.09,11.09,0,0,1-1.37-.75C219.67,193.11,219.17,192.66,218.55,192.2Z"/><path class="cls-1" d="M196,172.79a10.36,10.36,0,0,1-7.28,1.37,31.21,31.21,0,0,0-5.55-.08,26.27,26.27,0,0,0-5.37,1,23.81,23.81,0,0,0-5,2.16c-.39.22-.77.45-1.14.7a3.25,3.25,0,0,0-.44.34,3.68,3.68,0,0,0-.38.31,6.05,6.05,0,0,0-1.12,1.7c-.95,2.38-.89,5.64-.31,8.7a18.84,18.84,0,0,0,3.52,8.39,11.4,11.4,0,0,0,6.09,4,14.22,14.22,0,0,0,3.76.4,30,30,0,0,0,4.09-.42,21.57,21.57,0,0,0,7.49-2.5,7.82,7.82,0,0,0,1.35-1.06,2.9,2.9,0,0,0,.49-.58,3.07,3.07,0,0,0,.4-.63,7.67,7.67,0,0,0,.67-3.33,21.38,21.38,0,0,0-.59-4.65c-.08-.4-.19-.8-.29-1.2l-.36-1.33c-.12-.39-.2-.77-.29-1.16l-.14-.59c0-.18.18-.34.26-.52a10.79,10.79,0,0,1,.66-1,10.23,10.23,0,0,1,.65-.83,10.81,10.81,0,0,1,5.15-3.38,10.62,10.62,0,0,1,6.23.29,6.34,6.34,0,0,1,1.81.8c1.32,1.06.93,2.13-.42,2.34-.31.05-.68.19-.9.08a5.24,5.24,0,0,0-1.71-.48,6.9,6.9,0,0,0-1.66.14,20.56,20.56,0,0,0-2.84,1,6,6,0,0,0-2.4,1.62l-.24.29-.12.14,0,0a1.22,1.22,0,0,0-.08.17c0,.05,0,.11.06.15l0,0h0l0,.11.15.46a25.93,25.93,0,0,1,1.49,8,11.68,11.68,0,0,1-.61,3.65l-.37.91-.48.88A9.19,9.19,0,0,1,199,200.9a12.45,12.45,0,0,1-3.88,2.5,26.4,26.4,0,0,1-4,1.31,39.66,39.66,0,0,1-5,.94,28.16,28.16,0,0,1-4.12.23,16.93,16.93,0,0,1-5.09-.88,15.1,15.1,0,0,1-5.06-3,18,18,0,0,1-3.84-4.88,24.44,24.44,0,0,1-2.27-5.88,28.08,28.08,0,0,1-.89-6.3,15,15,0,0,1,1.18-6.58,9.61,9.61,0,0,1,2.09-2.92l.71-.57.35-.27.33-.21c.42-.28.85-.53,1.28-.77a27.82,27.82,0,0,1,10.13-3.32,29.75,29.75,0,0,1,7.62,0c1.86.25,3,.5,3.19.55a17.5,17.5,0,0,1,1.94.73Z"/><path class="cls-1" d="M223.08,203.94a5.23,5.23,0,0,0-.31-1.31,13.19,13.19,0,0,0-.58-1.53,16.13,16.13,0,0,0-.75-1.58c-.25-.53-.57-1.05-.87-1.58-.45-.77-1-1.44-1.53-2.22a94.63,94.63,0,0,0-5.7-8.06c-.93-1.16-1.94-2.25-2.92-3.35a50.51,50.51,0,0,1-3.66-4.4c-.35-.5-.36-.36.06-.09s1.39.59,2.4,1.1a29.79,29.79,0,0,1,9.28,7.31c1.5,1.86,3.35,3.56,4.82,5.58a25.68,25.68,0,0,1,3.87,7.49,8.37,8.37,0,0,1-.25,5.86,6.92,6.92,0,0,1-3.12,3.16,10.73,10.73,0,0,1-3.89,1.12,22.28,22.28,0,0,1-5.79-.2c-.41-.08-.81-.17-1.22-.29a11.29,11.29,0,0,1-2.26-.91l-.2-.07a6.89,6.89,0,0,0,1.62,0,29.8,29.8,0,0,0,5-.87,23.24,23.24,0,0,0,2.33-.64,9.48,9.48,0,0,0,1.83-.92,4,4,0,0,0,1.55-1.66A3.22,3.22,0,0,0,223,204Z"/><path class="cls-2" d="M149.47,185.85l16.95.9a21,21,0,0,0,.26-4.89l-17-.9A25,25,0,0,0,149.47,185.85Z"/><path class="cls-1" d="M157.62,169.86c-2.29,5.58-1.39,12.25-1.39,12.25-4.32-1.32-8.45.92-11.36,6.56-2,3.94-1.36,9.68.63,13.74a.14.14,0,0,1-.22.16,80.94,80.94,0,0,1-16.67-28.36c-4.25-12.77-3-27.12,8.67-36.67,6.2-5.06,17-4.88,17.7-5.87,11.71-16,90.33-61.93,102,4.23,1.06,6.06,1.76,14.37-2.63,19.26-15.16,16.88-73-8.6-75.69-12.64C178.41,157.69,157.68,169.69,157.62,169.86Z"/><path class="cls-1" d="M249.07,119.16a29.76,29.76,0,0,0-22.73-15.56,50.71,50.71,0,0,0-14.65.21,81.3,81.3,0,0,0-14.46,3.59,119.32,119.32,0,0,0-19.91,9.13,115.43,115.43,0,0,0-11.19,7.16c-1.78,1.31-3.52,2.67-5.17,4.1-.82.73-1.63,1.46-2.38,2.23-.39.37-.74.77-1.11,1.16l-.52.59c-.19.23-.25.32-.6.76a2.48,2.48,0,0,1-1,.8,3.58,3.58,0,0,1-.63.21l-.55.13c-.59.12-1.13.2-1.66.28-1.07.16-2.11.32-3.15.5a37.65,37.65,0,0,0-6,1.51,17.12,17.12,0,0,0-5.2,2.79,30,30,0,0,0-4.32,4.33c-.32.4-.65.79-.95,1.2l-.84,1.28-.42.64-.36.67-.73,1.35a28.71,28.71,0,0,0-2,5.78,33.71,33.71,0,0,0-.47,12.31,56.25,56.25,0,0,0,5.26,16.16A80.19,80.19,0,0,0,137.4,190c.74,1.22,1.53,2.41,2.34,3.58l.56.81.33.44c.22.31.42.56.62.82.58.73,1.18,1.42,1.78,2,0,.06.13,0,.1-.07l-.08-.16a3.45,3.45,0,0,1-.14-.34,6.07,6.07,0,0,1-.25-.67,8.26,8.26,0,0,1-.32-1.35c0-.2-.05-.4-.08-.6s0-.38,0-.67v-.21l0-.39c0-.25,0-.51.06-.77.06-.51.14-1,.25-1.54a12.75,12.75,0,0,1,1.08-3,21.19,21.19,0,0,1,1.59-2.59,12.56,12.56,0,0,1,4.77-4.13,9.16,9.16,0,0,1,3.23-.82l.42,0h.16l.29,0a2.93,2.93,0,0,1,.57.13c.06,0,0,0,0-.07v-1.7c0-.41,0-.81.05-1.22a26.2,26.2,0,0,1,.7-4.81,6,6,0,0,1,1.38-3c.34-.23.49.26.48,1.23s0,2.49.05,4.38c0,.95.13,2,.25,3.13l.11.86c0,.45.11,1,.17,1.61.2,1.23.4,2.5.6,3.82l-2.19-.46a10.32,10.32,0,0,0-1.19-.22l-.58-.08-.3,0-.15,0H154l-.17,0a6.38,6.38,0,0,0-1.73.44,8.82,8.82,0,0,0-3.22,2.53,14.71,14.71,0,0,0-1.51,2.2,8.72,8.72,0,0,0-1,2.28,10.61,10.61,0,0,0-.37,2.57l0,1.37c0,.51.14,1.11.21,1.66l.06.42.13.5.28,1c.11.36.15.64.31,1.07l.6,1.44.16.82.08.41c0,.16,0,.15,0,.23l-.22.71c-.06.3-.16.31-.24.44a3.12,3.12,0,0,1-.24.3,2.39,2.39,0,0,1-.5.38l-.24.12a2.91,2.91,0,0,1-.6.15l-.28.06c-.07.05-.28,0-.41-.07l-.89-.24c-.12.05-.39-.3-.61-.52l-.69-.72-.68-.72-.35-.36-.36-.44c-1-1.2-2-2.34-2.86-3.61l-1.37-1.85-.73-1.07c-.48-.69-.92-1.4-1.38-2.11a82.47,82.47,0,0,1-8.66-18.15,41.21,41.21,0,0,1-1.67-20.43,30.26,30.26,0,0,1,10.4-17.77c.33-.29.65-.58,1-.86s.75-.56,1.14-.82a21.86,21.86,0,0,1,2.41-1.33,30,30,0,0,1,5.06-1.8c1.72-.44,3.44-.77,5.16-1.05l2.53-.4.6-.1.48-.1a.43.43,0,0,0,.34-.2l.25-.31c.12-.16.25-.3.38-.45.25-.3.51-.6.77-.88.53-.57,1.07-1.11,1.62-1.65,1.09-1.06,2.23-2.06,3.4-3,2.32-1.94,4.75-3.72,7.24-5.42a122.82,122.82,0,0,1,15.6-9,113,113,0,0,1,14.44-5.84A81.62,81.62,0,0,1,213,100.24a50.78,50.78,0,0,1,15.75.33A33.55,33.55,0,0,1,243.2,107a37.19,37.19,0,0,1,11.33,15.7,58.1,58.1,0,0,1,2.85,9.22,64.36,64.36,0,0,1,1.47,9.52,29.5,29.5,0,0,1-.37,7.43,18.43,18.43,0,0,1-1.13,3.66,14,14,0,0,1-2.11,3.3A17,17,0,0,1,248.9,160a27.59,27.59,0,0,1-7.25,1.65,60.74,60.74,0,0,1-14.53-.58,125,125,0,0,1-14.06-3c-5.79-1.57-11.44-3.44-17-5.52q-4.16-1.56-8.22-3.36c-1.35-.59-2.7-1.21-4-1.88-.67-.32-1.33-.67-2-1l-.5-.26-.38-.22-.41-.23a4,4,0,0,1-.73-.53c-.08-.12-.06,0-.07.1v.26a4,4,0,0,1-.05.5,2.32,2.32,0,0,1-.05.38l-.12.59c-.17.65-.34,1.3-.56,1.93a30.48,30.48,0,0,1-4.87,8.79,45.48,45.48,0,0,1-5.34,5.69,42.77,42.77,0,0,1-4.12,3.3,16,16,0,0,1-5.19,2.62,11.78,11.78,0,0,1-1.77.4.48.48,0,0,1-.12,0l-.16.06c-.08,0-.13.05-.13,0s.19-.3.17-.33a2,2,0,0,1,.16-.25,14.4,14.4,0,0,1,1.66-1.62c1.61-1.43,4.24-3.54,7.31-6.51a45.09,45.09,0,0,0,6.36-7.59,26.7,26.7,0,0,0,2.27-4.33,17.53,17.53,0,0,0,.78-2.28l.16-.58.17-.8a17,17,0,0,0,.29-2.58c.45-.2,1.06-.43,1.21-.53l.37-.19c.13-.06.27-.15.34-.12a5.45,5.45,0,0,0,.76-.11l.64-.14.74-.17c.45.3.91.62,1.36.89l1.08.62,1.44.76c1,.5,2,1,3,1.45,2,.94,4.09,1.84,6.18,2.69,4.19,1.71,8.48,3.28,12.84,4.69,8.7,2.77,17.73,5.05,26.77,5.72a46.92,46.92,0,0,0,7.31,0,24.42,24.42,0,0,0,6.86-1.44,13.27,13.27,0,0,0,5.33-3.57,9.13,9.13,0,0,0,1.55-2.67,14.12,14.12,0,0,0,.83-3.21c.67-4.55-.09-9.57-1.14-14.42a61.28,61.28,0,0,0-2-7.13,46,46,0,0,0-3-6.66Z"/><path class="cls-1" d="M180.17,246.46a11,11,0,0,1,.24,5.85.54.54,0,0,1-1.06,0c-.42-1.19-.85-2.39-1.23-3.61-.1-.39-.88-3.56-1.77-7.14s-2-7.55-2.6-9.54c-1.16-3.85-2.29-7.72-3.71-11.36q-.27-.69-.57-1.35l-.28-.62s0,0,0,0,0,.07,0,0l.79,12c.11,1.84.2,3.68.25,5.52l.07,2.37c0,.79,0,1.51.09,2.29l.31,4.72c.09,1.6.16,3.24.1,4.92a22.79,22.79,0,0,1-.24,2.56c-.06.43-.16.88-.26,1.32s-.24.82-.36,1.24c-.34,1.09-.79,2.14-1.14,3.16a27.4,27.4,0,0,1-1.68,3.46c-.94,1.7-2.24,3.75-3.58,5.74l-3.8,5.53c-1.08,1.58-1.83,2.78-2.13,3.23a65.09,65.09,0,0,0-7.08,14.4c-.25.72-.45,1.52-.75,2.17a22.46,22.46,0,0,0-1.42,4.77c-.5,2.28-.94,4.58-1.39,6.88-.22,1.14-.55,2.25-.84,3.37s-.63.39-.63,0c0-1.07-.31-.24-.51-.17s-.15,0-.19,0a3.13,3.13,0,0,1,0-.63c0-.39.07-.93.11-1.59.11-1.31.26-3.07.47-4.87a71.55,71.55,0,0,1,1.35-8.11c0-.09.34-1.38.92-3.29a68.74,68.74,0,0,1,2.53-6.89,81.19,81.19,0,0,1,5.72-10.77c.64-1,1.37-2,2.07-2.91.15-.24,2.5-3.61,4.56-7a48.93,48.93,0,0,0,2.56-4.82c.6-1.35.9-2.31,1-2.44a16.67,16.67,0,0,0,.58-2.07,18.7,18.7,0,0,0,.24-2.17c.09-1.5.06-3.07.09-4.66a18,18,0,0,0-.12-1.93c-.13-1.4-.26-2.81-.34-4.28l-.23-4.23-.44-8.41-.26-4.3-.32-4.69c-.06-1-.08-1.92-.12-2.85a8.39,8.39,0,0,1,.34-1.16,2.75,2.75,0,0,1,.19-.52l.22-.29c0-.11.34-.3.56-.46a2.62,2.62,0,0,1,.78-.35,2.69,2.69,0,0,1,1.55.08,5.39,5.39,0,0,1,2.64,2.29,19.46,19.46,0,0,1,1.1,2l.34.72.27.62c.35.82.66,1.64,1,2.47,1.18,3.29,2.13,6.6,3.08,9.91.47,1.52,1.92,8.92,2.33,10.69C179.69,242.24,179.91,245.59,180.17,246.46Z"/><path class="cls-1" d="M177.3,254.71a1.71,1.71,0,0,1-2-.39c-.22-.18-.39-.87-.22-1a10.23,10.23,0,0,1,1.05-.82c.22-.15,4-1.48,5.26-1.94a34.8,34.8,0,0,1,3.78-1.09c2.6-.61,5.21-1.23,7.86-1.74a15.35,15.35,0,0,1,1.79-.22c.47,0,1.17-.09,1.79-.07a10.54,10.54,0,0,1,5.32,1.6,7.74,7.74,0,0,0,1,.61,10.61,10.61,0,0,1,2.73,2.65,15.83,15.83,0,0,1,1.92,3.29,25.48,25.48,0,0,1,1.34,5.58,1.85,1.85,0,0,1,0,.81,4.72,4.72,0,0,0-.07,1.75,10.58,10.58,0,0,1-.19,2.44,4,4,0,0,1-.54,1.12c-.19.33-.58,0-.6-.09-.07-.36-.33-.13-.52-.14a.58.58,0,0,1-.19,0c-.05,0-.06-1.05-.27-2.09s-.55-2.11-.58-2.33c0,0-.07-.4-.22-.95a16.17,16.17,0,0,0-.64-2,16.48,16.48,0,0,0-1.53-3.12,6.42,6.42,0,0,1-.45-.91,11.66,11.66,0,0,0-1.52-1.82,9,9,0,0,0-1.76-1.37,23,23,0,0,0-2.09-1.07.8.8,0,0,0-.45-.1,6.54,6.54,0,0,0-1,0l-.53.05-.66.1-2.63.39c-.9.15-1.78.37-2.67.57a4,4,0,0,1-.5,0,4.2,4.2,0,0,0-.62.08c-2.1.52-4.25.88-6.32,1.54-.48.15-2.88.43-3.42.63C178.7,254.75,177.56,254.55,177.3,254.71Z"/><path class="cls-1" d="M186.41,260.19c-.56.1-.94-.37-1.15-1.17a1.42,1.42,0,0,1,.29-1,6,6,0,0,1,.93-.32c.16,0,3,.08,4,.08a17.23,17.23,0,0,1,2.85.3,27.55,27.55,0,0,1,6,1.62,6.77,6.77,0,0,1,.66.33,6.22,6.22,0,0,1,.69.49,14.18,14.18,0,0,1,3.35,4.11,3.09,3.09,0,0,0,.46.71,9,9,0,0,1,1,2.52,13.21,13.21,0,0,1,.4,2.77,17.89,17.89,0,0,1-.76,4.24c-.07.2-.08.42-.25.57a3,3,0,0,0-.67,1.17,4,4,0,0,1-.44.81,5.75,5.75,0,0,1-.56.74,3.13,3.13,0,0,1-.82.49c-.25.13-.49-.28-.48-.38,0-.28-.24-.26-.39-.36a1,1,0,0,1-.15-.13c0-.06.27-.69.37-1.43a15.07,15.07,0,0,0,.19-1.59s.05-.27.12-.64a9.91,9.91,0,0,0,.08-1.42,9.72,9.72,0,0,0-.26-2.37,3.45,3.45,0,0,1,0-.72,11.51,11.51,0,0,0-1.27-3.09,5.16,5.16,0,0,0-.45-.8,4,4,0,0,1-.38-.81.72.72,0,0,0-.2-.29,7.66,7.66,0,0,0-1.07-.88,4.12,4.12,0,0,0-.65-.39c-.24-.14-.52-.24-.78-.37a13.39,13.39,0,0,0-1.73-.53,2.15,2.15,0,0,1-.32-.13,2,2,0,0,0-.4-.16,33.79,33.79,0,0,0-4.5-.78c-.36,0-2-.59-2.46-.62C187.32,260.76,186.63,260.15,186.41,260.19Z"/><path class="cls-1" d="M183.56,267c-.42.18-.74-.17-1.07-.83-.11-.22-.15-.88,0-1a4.25,4.25,0,0,1,.76-.49,33,33,0,0,1,3.42-.35,11.81,11.81,0,0,1,1.19,0,11.3,11.3,0,0,1,6.47,2.35,4.46,4.46,0,0,1,.89,1,12.3,12.3,0,0,1,2,4,3.86,3.86,0,0,0,.23.73,5.4,5.4,0,0,1,.11,2.51,7.74,7.74,0,0,1-.77,2.38,17.36,17.36,0,0,1-2.21,2.75c-.11.12-.19.27-.37.31a1.56,1.56,0,0,0-.82.63,8.81,8.81,0,0,1-1,.93,2.43,2.43,0,0,1-.68.28c-.22.08-.46-.28-.45-.36,0-.23-.22-.24-.36-.34a.4.4,0,0,1-.14-.11,22.8,22.8,0,0,1,1.17-2.68l.33-.5c.18-.29.41-.67.62-1.06a8.37,8.37,0,0,0,.71-1.77,1.18,1.18,0,0,1,.23-.48,5.29,5.29,0,0,0,.07-1.19,4.56,4.56,0,0,0-.23-1.11c0-.45-.32-.79-.31-1.3a.45.45,0,0,0-.12-.25,8.11,8.11,0,0,0-1.66-1.82,4.9,4.9,0,0,0-1.17-.63,1,1,0,0,1-.21-.15.89.89,0,0,0-.27-.15,9.23,9.23,0,0,0-1.55-.38,12.67,12.67,0,0,0-1.87-.13c-.3,0-1.66-.39-2-.36C184.32,267.42,183.72,267,183.56,267Z"/><path class="cls-1" d="M184.12,274.64a.62.62,0,0,1,0-.67l.13-.13c.06,0-.09,0,.35-.1a1.5,1.5,0,0,0,.36-.12s.07,0,.08-.05,0,0,0,0a.82.82,0,0,0,.31.09l.22.05h0l-.12,0-.27.12c-.23.11-.94.08-1-.11a.74.74,0,0,1-.1-.39,1.36,1.36,0,0,1,0-.2,2.1,2.1,0,0,1,.14-.24,1,1,0,0,1,1.23-.31,1.28,1.28,0,0,1,.3.19l.07.09.1.12c.07.11.07.13.09.15l.06.14a1.81,1.81,0,0,0,.12.22,5.87,5.87,0,0,1,.29.53,12.69,12.69,0,0,1,.29,1.87c.1.92.16,1.95.19,2.48a14.69,14.69,0,0,1-.18,3,42.26,42.26,0,0,1-1.27,6.05,8.09,8.09,0,0,1-.52,1.29c-.72,1.43-1.34,2.87-2,4.32a2.46,2.46,0,0,0-.3.75,9.9,9.9,0,0,1-1.27,2.31,13.27,13.27,0,0,1-1.75,2.15,25.53,25.53,0,0,1-3.46,2.53,1.2,1.2,0,0,1-.54.27,2.37,2.37,0,0,0-1.22.48,8.13,8.13,0,0,1-1.63.71,2.81,2.81,0,0,1-.92.05c-.28,0-.34-.47-.28-.54.17-.24-.1-.34-.2-.5a.65.65,0,0,1-.08-.17c0-.06.61-.58,1.2-1.15s1.15-1.19,1.28-1.28l.56-.46c.32-.28.73-.66,1.12-1.07a14.74,14.74,0,0,0,1.63-2,2.81,2.81,0,0,1,.54-.55,13.39,13.39,0,0,0,1-1.59c.42-.79.78-1.61.81-1.67a9.17,9.17,0,0,1,1.09-1.89,1.09,1.09,0,0,0,.19-.39c.43-1.18.92-2.34,1.31-3.56a17.49,17.49,0,0,0,.45-1.9c0-.11.09-.22.13-.33a2.19,2.19,0,0,0,.15-.43,26.43,26.43,0,0,0,.59-4.62c0-.35.42-2,.36-2.45C183.74,275.59,184.21,274.84,184.12,274.64Z"/><path class="cls-1" d="M188.22,321a3,3,0,0,1-2.06,2.91c-.37.09-.8-.5-.74-.74a8.25,8.25,0,0,0,.19-1.73,17.46,17.46,0,0,0,.15-3.7,13.63,13.63,0,0,0-.44-2.68c0-.19-.13-.32-.18-.48s-.09-.17-.11-.17a.1.1,0,0,0-.07,0s-.05,0-.16-.07a13.09,13.09,0,0,0-2.66-.76c-1-.22-2.09-.39-3.16-.54a130.72,130.72,0,0,0-13.5-1c-1,0-2-.08-3-.17a86,86,0,0,0-10.4-.18,9,9,0,0,0-1.73.14c-.45.1-3,.21-5.62.38-1.28.08-2.59.19-3.52.32l-.55.09h0s0,.07-.05-.1a7.6,7.6,0,0,0-.31-.71l-.08-.18,0,0c-.11-.23.86,1.94.45,1h-.06l-.06,0a2.18,2.18,0,0,0-.37.21,4.94,4.94,0,0,0-1.79,2.73,6.52,6.52,0,0,0-.13,3.57c.08.29.28.57.35.88a2.88,2.88,0,0,0,1.49,1.7,11.79,11.79,0,0,0,3.28,1.31c.58.15,1.17.38,1.78.54s.24.58,0,.62c-.6.11-.13.34-.08.53a.31.31,0,0,1,0,.19,6,6,0,0,1-1.3.08,13.33,13.33,0,0,1-2.9-.34,9.33,9.33,0,0,1-3-1.26,6.63,6.63,0,0,1-1.55-1.36,6.85,6.85,0,0,1-1.16-2.1,10,10,0,0,1-.28-4.79,9.66,9.66,0,0,1,2.12-4.64,6.13,6.13,0,0,1,1.71-1.37,2.93,2.93,0,0,1,.39-.21l.44-.16a4.13,4.13,0,0,1,.49-.13,10.51,10.51,0,0,1,2.16-.21c.16,0,2.49-.28,4.78-.43s4.61-.28,4.78-.28a36,36,0,0,1,5.5.12,8,8,0,0,0,1.1,0c3.15,0,6.3.12,9.45.32l4.83.26c.3,0,.58.08.87.12s.73.12,1.1.14q2.87.22,5.75.7c1,.15,1.93.33,2.92.57a14.84,14.84,0,0,1,3.08,1c.13.06.32.17.55.3a5,5,0,0,1,.9.83,6.65,6.65,0,0,1,.39.63c.1.23.18.43.25.64a8,8,0,0,1,.26,1.13,23.18,23.18,0,0,1,.19,3.38A28.24,28.24,0,0,1,188.22,321Z"/><path class="cls-1" d="M150.4,323.21a3.23,3.23,0,0,1-2.94-.23c-.3-.16-.44-.86-.16-1A15.62,15.62,0,0,1,149,321c.18-.09,1.74-.56,3.52-1s3.8-.91,4.82-1.13a51,51,0,0,1,6-.86,80,80,0,0,1,12.43-.43,19.53,19.53,0,0,1,2.82.4,31.39,31.39,0,0,1,4.82,1.36,12.82,12.82,0,0,1,4.56,2.87l1.25,1.4a3.43,3.43,0,0,1,.46.67,4.47,4.47,0,0,1,.18,4.38,7.86,7.86,0,0,1-1.32,1.94,6.5,6.5,0,0,1-2.08,1.44,8.07,8.07,0,0,1-2,.55,10.44,10.44,0,0,1-2.3.09c-1.5-.13-2.87-.43-4.13-.63s-2.65-.41-3.94-.57a4.35,4.35,0,0,1-1.09-.16,5.39,5.39,0,0,0-2.35-.24,26.94,26.94,0,0,0-3.24.33c-.54.09-1.09.09-1.65.15a.31.31,0,0,1-.26-.55c.44-.31,0-.37-.14-.52a.27.27,0,0,1-.08-.18,5.7,5.7,0,0,1,1-.53,14.81,14.81,0,0,1,2.39-.85,19.38,19.38,0,0,1,4.16-.64s.72,0,1.7,0,2.26.12,3.54.2,2.62.24,3.59.25a9.19,9.19,0,0,0,1.83-.1c.43-.09.88-.08,1.23-.19a2.34,2.34,0,0,0,.7-.4l.24-.24c.06-.1.13-.18.22-.31a2.6,2.6,0,0,0,.4-.82c0-.19,0-.14,0-.26a4.46,4.46,0,0,0-.37-.62,5.56,5.56,0,0,0-.68-.81,11.7,11.7,0,0,0-3.09-2.16,2.35,2.35,0,0,0-.79-.3,34,34,0,0,0-7.63-1.18c-1.36-.06-2.72,0-4.1.05-.24,0-.49,0-.74,0s-.63,0-.94,0l-4.92.38c-1.64.14-3.27.33-4.88.63-.74.12-4.35.4-5.19.64C152.47,323.17,150.81,323,150.4,323.21Z"/><path class="cls-1" d="M118.51,367.4c-.12.8-.78,1.19-1.8,1.36-.33.05-1.07-.32-1.08-.57a10,10,0,0,1,0-1.45c0-.29,1.53-4.34,2-5.71a32,32,0,0,1,1.75-3.87c1.3-2.56,2.61-5.12,4-7.66a15.14,15.14,0,0,1,1-1.63,46.49,46.49,0,0,0,3.33-5.65,3.66,3.66,0,0,0,.42-1,52.82,52.82,0,0,1,3.47-6.39c1.15-1.54,2.23-3.12,3.35-4.67.16-.22.26-.5.52-.64a3.34,3.34,0,0,0,1.15-1.36c.44-.68.9-1.36,1.41-2a5.57,5.57,0,0,1,1-.83c.3-.24.65.19.63.33,0,.4.32.27.52.35a.54.54,0,0,1,.2.1,43,43,0,0,1-1.74,5c0,.05-.82,1.6-1.66,3.21s-1.69,3.32-1.85,3.68a5.11,5.11,0,0,1-.68,1c-.12.16-2.5,5.07-2.61,5.26a14.14,14.14,0,0,1-1.81,2.87,2,2,0,0,0-.35.58c-.88,1.73-1.9,3.38-2.88,5.06-.49.86-.92,1.76-1.38,2.64-.08.15-.2.29-.3.44a5,5,0,0,0-.37.57c-1,2.1-2.27,4.11-3.17,6.28-.22.49-1.68,2.64-1.9,3.23C119.54,366.29,118.55,367.08,118.51,367.4Z"/><path class="cls-1" d="M142.37,405.77a4.44,4.44,0,0,1-1.8.93,5.05,5.05,0,0,1-1.9,0,.66.66,0,0,1-.28-1l.89-.72a8.4,8.4,0,0,0,.88-.72c.09-.08.53-.39,1.17-.82s1.42-1.12,2.22-1.87l1.2-1.17c.4-.4.75-.83,1.11-1.21.72-.77,1.28-1.52,1.67-2,1.52-1.91,3-3.9,4.37-5.94a119.92,119.92,0,0,0,7.62-13.12c.5-1,1-2,1.59-3a95,95,0,0,0,4.95-10.57,13.81,13.81,0,0,0,.66-1.83c.11-.51,1.16-3.21,2.21-6s2.1-5.55,2.37-6.18c1.36-3.13,2.59-6.32,3.82-9.51a7,7,0,0,1,.55-1.34,11.44,11.44,0,0,0,1.22-2.91c.47-1.39.94-2.77,1.46-4.14a18.75,18.75,0,0,1,1-2c.3-.59.63-.12.61.11,0,.67.3.22.49.21a.21.21,0,0,1,.19,0,10.74,10.74,0,0,1-.21,1.37c-.15.81-.36,1.89-.59,3-.46,2.21-1,4.5-1.15,4.95l-1.95,6.27c-1,3.15-2.12,6.42-2.33,7.09a21.39,21.39,0,0,1-.85,2l-1.8,5c-.89,2.41-1.82,4.83-1.91,5a42.4,42.4,0,0,1-2.61,5.59,7.7,7.7,0,0,0-.54,1.12c-1.43,3.24-3.05,6.4-4.77,9.51-.89,1.58-1.71,3.21-2.63,4.78-.17.28-.37.54-.55.82s-.46.68-.68,1a89.66,89.66,0,0,1-7.52,10.62,27.4,27.4,0,0,1-2.43,2.45c-1.07,1-2.31,1.93-2.72,2.35a8.53,8.53,0,0,1-1.51.89l-.87.48A3.24,3.24,0,0,0,142.37,405.77Z"/><path class="cls-1" d="M285.65,320.59a7.17,7.17,0,0,1,1.42,4.77.7.7,0,0,1-1.16.4c-.7-.8-1.39-1.6-2-2.44-.1-.13-.5-.77-1.06-1.7s-1.46-2.06-2.33-3.3c-.44-.62-.89-1.26-1.34-1.88s-1-1.2-1.41-1.77c-.91-1.12-1.71-2.11-2.26-2.77-1-1.29-2.21-2.5-3.27-3.78l-1.62-1.9-1.7-1.85c-2.24-2.55-4.67-4.95-7.06-7.37s-4.94-4.7-7.5-7c-1.12-1-2.25-2-3.35-3.07a120.74,120.74,0,0,0-12-10,15.36,15.36,0,0,0-2.15-1.46c-.25-.13-.92-.59-1.86-1.23-.4-.27-1.25-.87-1-.71h0v.06l-.32.63c-.54,1-1.08,2.08-1.59,3-1,1.84-1.88,3.26-2.18,3.72a111.94,111.94,0,0,1-8.37,11.28,10.71,10.71,0,0,1-1.36,1.47,25.27,25.27,0,0,0-3.1,3l-2.2,2.08c-.79.64-1.58,1.27-2.38,1.88a20.37,20.37,0,0,1-2.63,1.43c-.8.41-.69-.31-.48-.54.63-.65-.09-.43-.28-.56s-.14-.1-.14-.18a17.07,17.07,0,0,1,1.32-1.22,12.68,12.68,0,0,0,1.31-1.27l1.47-1.51c1.94-2.18,3.76-4.63,4.16-5.08l1.67-2.14c.94-1.27,2.17-3,3.34-4.79,2.38-3.6,4.53-7.58,5-8.4s1-1.66,1.47-2.5c0-.07.3-.57.72-1.41.28-.56.6-1.23,1-2,.54-1.14,1.14-2.45,1.79-3.9,1.29.84,2.77,1.81,4.27,2.84l2.49,1.71c1.42,1,2.53,1.78,2.66,1.89a65.67,65.67,0,0,1,6.41,5.24,11.85,11.85,0,0,0,1.26,1.07c3.73,2.93,7.22,6.16,10.69,9.4l5.3,5c.3.31.58.66.87,1s.72.84,1.11,1.23c4.11,4,7.77,8.5,11.51,12.9.41.53,1.49,2.12,2.59,3.73l.82,1.19c.24.41.48.8.7,1.15.43.72.8,1.3,1,1.61C284.15,317.32,285.27,319.93,285.65,320.59Z"/><path class="cls-1" d="M233.93,290.09l-5.23,4.6c-.65.53-1.22,1.13-1.87,1.64a79.71,79.71,0,0,1-7.25,4.8c-.54.34-1.08.67-1.63,1s-1.07.68-1.62,1a24.62,24.62,0,0,1-4.36,2.09c-.48.16-.45.05-.15-.29a14.26,14.26,0,0,1,1.53-1.54c2.53-2,4.87-4.19,7.39-6.15a17.23,17.23,0,0,0,2.14-2c.69-.69,1.32-1.45,2-2.17l1.1-1.16,1-1.21,1.05-1.21.95-1.29,1.18-1.57,1.1-1.62c.29-.41.59-.81.89-1.2s.56-.83.85-1.23c.55-.83,1.16-1.64,1.63-2.51.36-.68.67-1.38,1-2.06l1-2.05a7.24,7.24,0,0,1,.52-.88,5.07,5.07,0,0,1,1.48-1.57c.07,0,.13-.11.18-.13s.08.06.12.32.09.67.12,1.18a19.68,19.68,0,0,1-1.12,9.45,16.31,16.31,0,0,1-4,5.84Z"/><path class="cls-1" d="M107.27,331.51a3,3,0,0,1-2.66,1.51c-.38,0-1-.53-.87-.85a16.43,16.43,0,0,1,.77-1.83c.17-.37,3.88-5.32,5.14-7s2.55-3.18,3.89-4.71c2.74-3.1,5.49-6.18,8.29-9.23.62-.68,1.28-1.32,2-1.94,2.33-2.13,4.51-4.4,6.65-6.71a7.65,7.65,0,0,0,1-1.21,100.42,100.42,0,0,1,7.29-7.54c2.13-1.77,4.19-3.59,6.31-5.36a3.75,3.75,0,0,1,.93-.72,7,7,0,0,0,2-1.52c.88-.78,1.78-1.55,2.71-2.27a10.69,10.69,0,0,1,1.55-.88c.48-.25.62.32.53.49-.28.48.2.36.38.49a.41.41,0,0,1,.16.16c0,.06-1,1.4-2.17,2.8s-2.32,2.85-2.59,3.11L145,292c-1.81,1.89-3.68,3.88-4.05,4.31a11.08,11.08,0,0,1-1.3,1.17c-.23.17-5.49,6-5.7,6.24a31.33,31.33,0,0,1-3.52,3.39,5,5,0,0,0-.7.68c-1.87,2.08-3.87,4-5.81,6.06-1,1-1.93,2.1-2.88,3.17-.17.19-.38.35-.57.53s-.49.44-.7.68c-2.24,2.54-4.6,5-6.71,7.63-.48.61-3.2,3.18-3.74,3.9C109,330.21,107.49,331.1,107.27,331.51Z"/><path class="cls-1" d="M220.87,235.35a8.07,8.07,0,0,1-2.68-.5,4.59,4.59,0,0,1-.95-.3,15.26,15.26,0,0,1-2.35-2,5.83,5.83,0,0,0-1-.68c-.42-.28-.83-.52-1.34-.92-.16-.12-.14,0,0-.1s.39-.5.76-.72a4.18,4.18,0,0,1,2-.73,2.17,2.17,0,0,1,.89.07,3.09,3.09,0,0,1,.75.3c.52.38,1.16.29,1.62.44l.74.26q.42.15.87.27a8.09,8.09,0,0,0,1.13.26,5.92,5.92,0,0,0,1.83.09,3.75,3.75,0,0,0,.68-.16,4.16,4.16,0,0,1,.72-.11l.34,0a5.8,5.8,0,0,1,.78.09l.06,0a1.71,1.71,0,0,0-.19.53c-.24.52-.47,1.18-.81,1.78a4.87,4.87,0,0,1-1.33,1.38,5.27,5.27,0,0,1-2.55.93Z"/><path class="cls-1" d="M167.79,172.48c-.21.56-.9.38-1.87-.25A3.09,3.09,0,0,1,165,171a6.19,6.19,0,0,1,.19-1.13c.07-.19,1.93-2.32,2.57-3.09a12.22,12.22,0,0,1,2.12-1.94,41.86,41.86,0,0,1,5.12-3.35,6.77,6.77,0,0,1,1.32-.5,22.56,22.56,0,0,0,2.35-.64c.79-.19,1.55-.48,2.34-.69a1.58,1.58,0,0,0,.76-.31,3,3,0,0,1,.92-.33,16.37,16.37,0,0,1,1.7-.25,9.62,9.62,0,0,1,1.75-.06,7.28,7.28,0,0,1,1,.07c.71.15,1.38.4,2.06.57a14.48,14.48,0,0,1,2,.64c.18.07.4.05.53.27.31.52.73.49,1.11.64a9.38,9.38,0,0,1,1.56.69,3,3,0,0,1,.63.72c.18.24-.15.84-.25.89-.29.14-.19.49-.25.76a1.87,1.87,0,0,1-.08.28,27.17,27.17,0,0,1-3.49.49l-.69-.07a10.81,10.81,0,0,0-1.48-.08c-.54,0-1.09,0-1.52,0s-.77.09-.88.12a1.75,1.75,0,0,1-.7-.12,10,10,0,0,0-1.64.31c-.78.18-1.52.49-1.58.47-.64.07-1.17.48-1.91.27a.53.53,0,0,0-.37.09c-1,.47-2.09.81-3.14,1.31a11,11,0,0,0-1.53.94,1.73,1.73,0,0,1-.32.11,1.76,1.76,0,0,0-.4.16,28,28,0,0,0-3.55,2.7c-.24.25-1.87.93-2.15,1.25S167.88,172.25,167.79,172.48Z"/><path class="cls-1" d="M207.19,161.37c-.1.38-.52,0-1.2-.93a5.53,5.53,0,0,1-.68-1.4,4.72,4.72,0,0,1,.09-.9,13.32,13.32,0,0,1,1.72-1.66,3.93,3.93,0,0,1,1.43-.78c1-.35,2.07-.71,3.13-1a1.84,1.84,0,0,1,.74,0,5.87,5.87,0,0,0,2.48-.15c.13,0,.27,0,.39-.19.18-.33,2.43-.48,2.72-.35.73.3,1.45.49,2.15.76.09,0,.2,0,.29.18.19.46.41.39.62.44a2.68,2.68,0,0,1,.86.33,1.82,1.82,0,0,1,.38.56,1.68,1.68,0,0,1-.08.92c-.14.2-.07.52-.09.79a2.33,2.33,0,0,1,0,.29,8.49,8.49,0,0,1-1.79,1.2,16.82,16.82,0,0,0-2.44.48c-.12.06-.26,0-.39-.1s-1.73.53-1.79.54c-.35,0-.67.23-1.08-.11a.22.22,0,0,0-.22,0,7.82,7.82,0,0,1-1.82.22,5.47,5.47,0,0,0-.9.26c-.06,0-.13,0-.19,0a.62.62,0,0,0-.23,0,8,8,0,0,0-2.08.78c-.14.09-1.08,0-1.24.12S207.23,161.21,207.19,161.37Z"/><path class="cls-1" d="M156.23,311.84a38.49,38.49,0,0,1-4.06-.51c-.51-.08-1,0-1.53-.13l-1.47-.38a4.64,4.64,0,0,1-2.37-1.29,4.33,4.33,0,0,1-1.16-2.2,4.2,4.2,0,0,1,0-1.17c0-.09,0-.2,0-.26l.05-.17.08-.33c.21-.78.31-1.57.47-2.34a11.56,11.56,0,0,1,.34-1.5,14.49,14.49,0,0,1,.6-1.49c.15-.31,0-.27.12,0s.61.75,1,1.32a12.76,12.76,0,0,1,1.36,3.05c.06.26.12.51.17.77l.05.38,0,.19v.15h-.3s0,.08,0,0h0c0-.37,0-.1,0-.18h.16l.22,0,.44,0c.3,0,.6,0,.91,0a40,40,0,0,1,4.14.51l2.57.48c1.3.24,2.6.59,3.89.84a13.92,13.92,0,0,1,3,.67c.21.1.41.19.62.31a3.61,3.61,0,0,1,.77.57,2.43,2.43,0,0,0,.33.28l.1,0a2.61,2.61,0,0,0-.91.22c-.94.3-1.87.71-2.79,1.1a20.88,20.88,0,0,1-2.72.87,19,19,0,0,1-4,.45Z"/><path class="cls-1" d="M185.5,252a9.12,9.12,0,0,1-2.34-.46,9.6,9.6,0,0,1-1.24-.55,6.68,6.68,0,0,1-1.13-.81,6.86,6.86,0,0,1-1.33-1.31,6.75,6.75,0,0,1-1-3,16.82,16.82,0,0,1,0-2.58,19.33,19.33,0,0,0,0-2c0-.42-.07-.83-.06-1.27s0-.88,0-1.36c0-.3-.06-.23.09,0s.72.42,1.16.83a8.3,8.3,0,0,1,1.75,2.46,7.35,7.35,0,0,1,.66,2.42,2.21,2.21,0,0,0,.38,1.08,9.07,9.07,0,0,0,.66.71,3.92,3.92,0,0,0,.41.4c.14.12.23.2.38.31a4.43,4.43,0,0,0,1.15.52,10.31,10.31,0,0,0,1.93.38c1.05.11,2.19.21,3.32.23a9.05,9.05,0,0,1,2.68.21,3.1,3.1,0,0,1,.58.21,2.41,2.41,0,0,1,.7.48l.27.26.09,0a2.25,2.25,0,0,0-.77.14,10.06,10.06,0,0,0-2.2,1.1,16.7,16.7,0,0,1-2.21,1.07,11,11,0,0,1-3.95.69Z"/><path class="cls-1" d="M205.51,258.44c-.5-1-.9-2.09-1.34-3.08-.16-.36-.42-.65-.58-1a12.18,12.18,0,0,0-2.05-3.54,6.37,6.37,0,0,0-1.46-1.12c-.35-.2-.71-.39-1.08-.58s-.76-.42-1.17-.62c-.25-.14-.23-.05,0-.09s.7-.4,1.27-.53a5.74,5.74,0,0,1,5.72,1.81,30.41,30.41,0,0,1,2.38,2.75,18.89,18.89,0,0,1,1.62,3.41l.74,2.09a19,19,0,0,0,1.23,3,9.08,9.08,0,0,0,1.41,1.74c.11.12.24.21.37.33a3.85,3.85,0,0,0,.88.61l.09,0-.15,0a3.63,3.63,0,0,1-.64.18,4.77,4.77,0,0,1-2.89-.52,8.63,8.63,0,0,1-2.28-1.75,15.17,15.17,0,0,1-2.16-3.06Z"/><path class="cls-1" d="M208.91,262.8c.85,0,4.26,1.73,7.63,1.81,3.61.09,12.39-7.08,12.39-6.86,0,4-.86,15.24-14.15,10.56C211.61,267.2,210.72,264.35,208.91,262.8Z"/><path class="cls-2" d="M207.87,264.39a30.4,30.4,0,0,1,2.06,2.57,9.74,9.74,0,0,0,3.31,2.72,7.74,7.74,0,0,0,1,.42l.92.27c.61.17,1.19.39,1.84.51l1.93.33c.67,0,1.35.05,2,.07s1.4-.17,2.1-.28l1.05-.35a4.76,4.76,0,0,0,1-.44l1-.57c.3-.21.57-.47.86-.71l.41-.37c.13-.14.24-.28.36-.42s.46-.56.67-.85a13.44,13.44,0,0,0,1.68-3.75c.1-.32.16-.64.23-1,0-.13.1-.39.15-.69l.1-.85c.06-.56.17-1.15.18-1.68l.06-1.61c-.05-.35-.14-.66-.22-1l-.05-.24s0-.1,0-.11l-.07,0-.28-.12-.14-.06-.07,0,0,0h0l-.26.44h0l-.18-.18L229,256c-.39-.28-1.26.29-2,.89l-2.38,1.71a47.68,47.68,0,0,1-4.8,3,13.37,13.37,0,0,1-2.35,1,2.72,2.72,0,0,1-.86.14,10.61,10.61,0,0,1-1.24-.12,17.1,17.1,0,0,1-2.59-.63l-1.35-.44c-.48-.16-.92-.33-1.57-.5-.25-.06-.44.13-.69.47a2.32,2.32,0,0,0-.19,1.28c0,.24,0,.47,0,.7a2.31,2.31,0,0,1,0,.52,4.59,4.59,0,0,0-.07.5c0,.1,0,.16,0,.16.3.08.78.25,1.24.4l1.45.48a21.37,21.37,0,0,0,3.13.75,15.1,15.1,0,0,0,1.69.17,6.43,6.43,0,0,0,2-.3,17.48,17.48,0,0,0,3.05-1.3,51.81,51.81,0,0,0,5.19-3.26h0l-.22.93a9.74,9.74,0,0,1-1.16,2.64,5.44,5.44,0,0,1-4.51,2.36l-1.48-.05-1.53-.26c-.51-.09-1-.29-1.55-.43l-.77-.23a4.84,4.84,0,0,1-.61-.24,6.19,6.19,0,0,1-2.05-1.74,31,31,0,0,0-2.36-2.89C210,261.24,207.67,264.21,207.87,264.39Z"/><path class="cls-2" d="M281.7,415.34c0-.14,0-.29,0-.43a19.42,19.42,0,0,1-.14-2.29V311.16H258.26V420.23H274a17.28,17.28,0,0,1,2.16.14,3.19,3.19,0,0,0,.45,0c1.58,0,2.86-1,2.86-2.2s-1.28-2.19-2.86-2.19l-.43,0a17.6,17.6,0,0,1-2.29.14H262.32V315.23h15.16v97.51a17.12,17.12,0,0,1-.14,2.15,3.4,3.4,0,0,0,0,.45c0,1.58,1,2.86,2.2,2.86S281.7,416.92,281.7,415.34Z"/><path class="cls-2" d="M319.2,416a1.88,1.88,0,0,0,0-.34,11.89,11.89,0,0,1-.14-1.79V338.63H295.76v81.6h17a10.48,10.48,0,0,1,1.68.14,2,2,0,0,0,.35,0,2.2,2.2,0,1,0,0-4.39l-.34,0a10.51,10.51,0,0,1-1.78.14H299.83V342.7H315V414a10.36,10.36,0,0,1-.14,1.67,2.19,2.19,0,0,0,0,.36,2.2,2.2,0,1,0,4.39,0Z"/><path class="cls-2" d="M358.31,415.2a3.44,3.44,0,0,0,0-.46,21.32,21.32,0,0,1-.13-2.4V304.85H334.87V420.23h15.5a18.78,18.78,0,0,1,2.26.14l.48,0c1.66,0,3-1,3-2.2s-1.35-2.19-3-2.19l-.45,0a19.48,19.48,0,0,1-2.41.14H338.93V308.91h15.15V412.46a18.91,18.91,0,0,1-.13,2.26,3.87,3.87,0,0,0,0,.48c0,1.66,1,3,2.2,3S358.31,416.86,358.31,415.2Z"/><path class="cls-2" d="M398.22,415.54a2.56,2.56,0,0,0,0-.39,15.72,15.72,0,0,1-.13-2.06V323.43H374.78v96.72H391.1a15.67,15.67,0,0,1,1.94.13,2.73,2.73,0,0,0,.41,0,2.22,2.22,0,1,0,0-4.39l-.39,0a15.84,15.84,0,0,1-2.06.14H378.84V327.5H394v85.7a14.05,14.05,0,0,1-.13,1.94,2.6,2.6,0,0,0,0,.4,2.22,2.22,0,1,0,4.39,0Z"/><path class="cls-2" d="M413.66,416.31a1.63,1.63,0,0,0-.31,0,8.69,8.69,0,0,1-1.61.15H244.32a8.48,8.48,0,0,1-1.51-.14,1.17,1.17,0,0,0-.32,0,2.48,2.48,0,0,0,0,4.88l.3,0a8.88,8.88,0,0,1,1.62-.15H411.82a7.76,7.76,0,0,1,1.52.15,1.66,1.66,0,0,0,.32,0,2.48,2.48,0,0,0,0-4.88Z"/><path class="cls-2" d="M260.59,416.56a.63.63,0,0,0,0-.19,3.63,3.63,0,0,1-.14-1V313.93a3.21,3.21,0,0,1,.14-.92.69.69,0,0,0,0-.2c0-.67-1-1.22-2.2-1.22s-2.19.55-2.19,1.22a1.11,1.11,0,0,0,0,.19,3.27,3.27,0,0,1,.14,1V415.45a3.18,3.18,0,0,1-.13.91.69.69,0,0,0,0,.2c0,.67,1,1.22,2.19,1.22S260.59,417.23,260.59,416.56Z"/><path class="cls-2" d="M337,416a1.23,1.23,0,0,0,0-.19,4,4,0,0,1-.13-1v-107a4,4,0,0,1,.12-1,.69.69,0,0,0,0-.2c0-.72-.93-1.29-2.07-1.29s-2.07.57-2.07,1.29a.62.62,0,0,0,0,.19,4,4,0,0,1,.13,1v107a3.6,3.6,0,0,1-.13,1,.69.69,0,0,0,0,.2c0,.72.93,1.29,2.08,1.29S337,416.67,337,416Z"/><path class="cls-2" d="M377.34,416.38a.88.88,0,0,0,0-.16,2.8,2.8,0,0,1-.13-.86V326.12a2.89,2.89,0,0,1,.12-.81.47.47,0,0,0,0-.17c0-.59-.93-1.07-2.07-1.07s-2.07.48-2.07,1.07a.5.5,0,0,0,0,.17,2.8,2.8,0,0,1,.13.86V415.4a2.5,2.5,0,0,1-.13.81,1.11,1.11,0,0,0,0,.17c0,.6.92,1.08,2.07,1.08S377.34,417,377.34,416.38Z"/><path class="cls-2" d="M297.71,417.88a.59.59,0,0,0,0-.14,2.1,2.1,0,0,1-.13-.74V340.82a1.93,1.93,0,0,1,.13-.7.59.59,0,0,0,0-.14c0-.51-.92-.92-2.07-.92s-2.07.41-2.07.92a.68.68,0,0,0,0,.14,2.08,2.08,0,0,1,.13.73V417a1.84,1.84,0,0,1-.13.69.77.77,0,0,0,0,.15c0,.5.93.91,2.07.91S297.71,418.38,297.71,417.88Z"/><path class="cls-1" d="M194.51,193.12c0,2.14-2.24,4.19-4.39,3.59a3.74,3.74,0,0,1-2.83-3.43,3.81,3.81,0,0,1,3.61-3.64C194.54,189.3,194.51,193,194.51,193.12Z"/><path class="cls-1" d="M227.3,185.35c0,2.14-2.24,4.18-4.39,3.59a3.73,3.73,0,0,1-2.82-3.44,3.34,3.34,0,0,1,3.32-3.39A3.39,3.39,0,0,1,227.3,185.35Z"/></g></svg>