<svg xmlns="http://www.w3.org/2000/svg" width="520" height="520" viewBox="0 0 520 520"><defs><style>.cls-1,.cls-6{fill:#231f20;}.cls-2{fill:#242021;}.cls-3{opacity:0.35;}.cls-4{opacity:0.45;}.cls-5{opacity:0.4;}.cls-6{opacity:0.2;}</style></defs><title>110 </title><g id="n.110_Sales" data-name="n.110 Sales"><path class="cls-1" d="M226.12,193.65a46.41,46.41,0,0,0,5.54.37,39.66,39.66,0,0,1,6,.42,9.4,9.4,0,0,1,4.55,2,8.33,8.33,0,0,1,2.8,8,5.79,5.79,0,0,1-.91,2.11,6.47,6.47,0,0,1-1.62,1.56,10.14,10.14,0,0,1-3.83,1.44,21.17,21.17,0,0,1-6.88,0,14,14,0,0,1-7.9-3.58c-.64-.69-.29-.8.48-.6s2.08.51,3.5,1a22.88,22.88,0,0,0,7.86,1.15,13.45,13.45,0,0,0,3.75-.65,4.9,4.9,0,0,0,2.63-1.84,4.35,4.35,0,0,0,.06-3.91,6.31,6.31,0,0,0-2.9-3.11,7.22,7.22,0,0,0-2.33-.72c-.88-.12-1.81-.2-2.76-.26-1.91-.12-3.87-.15-5.85-.31a24.22,24.22,0,0,1-3.72-.55l-.95-.27-.94-.38a6.15,6.15,0,0,1-1.71-1.27,5.6,5.6,0,0,1-1.06-5.95l.29-.71c.12-.23.27-.44.4-.66a7.67,7.67,0,0,1,1-1.18,9.79,9.79,0,0,1,2.38-1.7,19.26,19.26,0,0,1,8.43-1.94c.63,0,1.25,0,1.89,0,2.37.24,3.05.72,3.41,1.35a2.28,2.28,0,0,1,.23.43c.12.43-.86.59-2.47.56a28.85,28.85,0,0,0-7.08.59c-2.28.5-4.43,1.55-5.49,3.11a4.17,4.17,0,0,0-.46.92,3,3,0,0,0-.24.93,2.88,2.88,0,0,0,1.66,2.93,9.41,9.41,0,0,0,2.29.59Z"/><path class="cls-1" d="M229.94,201.28c-.7-1.73-1.43-3.46-2.19-5.17-.27-.63-.61-1.23-.88-1.85-1-2.22-1.93-4.43-3-6.61-.46-1-1-1.92-1.48-2.86a40.38,40.38,0,0,1-1.82-3.67c-.17-.4.05-.45.43-.25a4,4,0,0,1,1.38,1.31c.38.59.76,1.18,1.13,1.78l1,1.83c.66,1.24,1.3,2.49,1.88,3.78.69,1.54,1.6,3.05,2.35,4.61s1.62,3.43,2.4,5.17c.48,1.06.93,2.15,1.4,3.21.68,1.64,1.36,3.29,2,4.92.51,1.27,1.15,2.47,1.62,3.77.1.29.23.56.33.85.27,1.12.21,1.51-.24,1.85a2.06,2.06,0,0,1-.31.23c-.36.18-.8-.18-1.15-.89-.51-1.06-1-2.16-1.49-3.29s-.91-2.31-1.37-3.47c-.69-1.74-1.38-3.49-2.12-5.23Z"/><path class="cls-1" d="M235.42,199.07l-1.52-5.43c-.18-.66-.41-1.3-.58-2-.57-2.35-1.07-4.72-1.55-7.08l-.63-3.16a16.66,16.66,0,0,1-.39-4.11c0-.44.24-.38.5,0A4.74,4.74,0,0,1,232,179c.59,2.66,1.19,5.3,1.8,8,.34,1.63.95,3.25,1.42,4.89.54,1.79,1.08,3.59,1.65,5.38.34,1.1.7,2.2,1.07,3.29.57,1.65,1.12,3.32,1.77,4.93.51,1.25,1.14,2.43,1.7,3.64.13.26.27.52.38.79.4,1,.39,1.4,0,1.82a3.57,3.57,0,0,1-.27.28c-.32.25-.8,0-1.26-.73a30.67,30.67,0,0,1-3.12-6.82c-.63-1.78-1.2-3.59-1.77-5.4Z"/><path class="cls-1" d="M303.7,270l-69.41.1-25.32.13L119.73,270c-13.2-.07-26.47,0-39.57,0q-12.61,0-25.28-.05l-6.32-.06-6.33-.14-6.33-.16c-.54,0-1.08-.06-1.64-.11A7.37,7.37,0,0,1,32,269a2.28,2.28,0,0,1-.82-.65,1.43,1.43,0,0,1-.22-1,6.06,6.06,0,0,1,.83-2.1,7.4,7.4,0,0,0,.76-2.32c.09-.52.14-.78.29-.76s.35.3.51.91a5.22,5.22,0,0,1-.16,2.71A5.08,5.08,0,0,0,33,266.9a.43.43,0,0,0,.39.39,2.74,2.74,0,0,0,.63,0c.27,0,1.19-.06,2-.11l2.72-.19c3.81-.23,8.25-.36,13.1-.45l25.77-.31,25.79-.15,25.84,0,25.93.2c20.72.2,42.28-.12,63.48-.2l69.92-.18,43-.13c21.72-.11,43.55-.13,65.1-.32,16.77-.16,33.19-.53,49.76-.79,3.65-.06,7.21-.09,10.89-.09,13.64,0,18,.23,20.92.95a19.6,19.6,0,0,1,1.94.48c1.31.53-4.24,1.07-14.22,1.49l-11.18.46c-3.75.16-7.52.3-11.31.38l-23,.52c-15.43.31-31.08.54-46.76.74-23.29.3-46.69.33-70,.49Z"/><path class="cls-1" d="M105.61,245.69s16.52,3.74,16.64,7.45-6.11,1-11.55,2.3c-8.28,2-10.27,4.73-10.27,4.73s26.83,1.44,29.84-.54c4.71-3.1-2.75-9.3-5.14-11.27C121.08,245,105.61,245.69,105.61,245.69Z"/><path class="cls-1" d="M240.08,260.16c-15.63-.11-31.26-.27-46.9-.65l-8.57-.22c-2.87-.11-5.7-.18-8.66-.5-.34-.05-.65-.08-1-.15a4.43,4.43,0,0,1-.72-.18l-.36-.16c-.06,0-.11-.07-.19-.07l-.17-.1c-.44-.36-.68-.56-1-.81l-.73-.79a16.31,16.31,0,0,1-1.2-1.64,27.05,27.05,0,0,1-1.87-3.4,67.71,67.71,0,0,1-2.69-7c-.78-2.33-1.48-4.68-2.18-7s-1.37-4.72-2-7.07l-7.6-28.21c-2.32-8.61-4.74-17.24-7.18-25.73l-9.46-32.73c-1-3.33-.3-3.16,1.33-.53a68.23,68.23,0,0,1,5.85,14c3.45,11.1,6.49,22.3,9.57,33.51s6,22.48,9,33.79c.72,2.72,1.45,5.46,2.23,8.2s1.63,5.47,2.49,8.2,1.82,5.42,2.93,8a35.28,35.28,0,0,0,1.88,3.68l.54.84.59.77a8.22,8.22,0,0,0,.62.69,2.15,2.15,0,0,0,.32.29l.23.2a.41.41,0,0,0,.15.07l.27.05c.32,0,.62.09,1,.12.66.07,1.35.12,2,.17,1.37.09,2.75.16,4.13.22,15.67.62,31.43.75,47.16.91l29.05.14c14.67,0,29.4,0,44-.12,11.32-.13,22.41-.46,33.59-.75l7.35-.21c4.6-.1,7.63-.14,9.76,0a15.93,15.93,0,0,1,4.36.7c.46.16,1.05.31,1.34.45.95.53-2.87,1.37-9.6,1.68-20,.95-41.1,1.22-62.28,1.38-15.73.11-31.54.09-47.31.05Z"/><path class="cls-1" d="M233.21,135.62c-7.6.21-15.21.5-22.82.81-2.78.11-5.55.31-8.32.42-9.79.34-19.59.67-29.42.7-4.35,0-8.74,0-13.06-.09-2.71-.05-5.48.16-8.28.18a28.58,28.58,0,0,1-8.45-.91c-1.74-.57-1.28-1,.22-1.13.77-.11,1.79-.21,3-.34a39.41,39.41,0,0,1,4.21-.26c2.76,0,5.57-.22,8.48-.22s5.64.1,8.48.1c5.63,0,11.28-.1,17-.19,6.8-.13,13.89-.69,20.85-1l23-1.11q7.08-.3,14.17-.53c7.15-.23,14.35-.28,21.46-.34,5.53-.06,11-.19,16.43-.16,1.21,0,2.39,0,3.6,0a24.41,24.41,0,0,1,4.77.49,3.7,3.7,0,0,1,2.06,1.06,4.88,4.88,0,0,1,.6.62c.39.64-1.48,1.23-4.76,1.29-9.73.14-19.94,0-30.22.18-7.63.11-15.3.24-23,.52Z"/><path class="cls-1" d="M297.34,247q-14.25-.3-28.52-.43H258.41c-12.22-.1-24.45-.2-36.68-.14-5.43,0-10.88.15-16.26.3l-10.38.34c-3.46.1-6.92.13-10.36.19-2.14.06-1.91-.43-.11-1.07a36.56,36.56,0,0,1,9.13-1.6c14.14-.62,28.26-.85,42.52-.75,8.52.07,17.39-.18,26.11-.21,9.58,0,19.17,0,28.76.07l17.7.17c8.94.11,17.91.3,26.79.51,6.91.18,13.65.11,20.57.65.78.09,1.51.13,2.32.26l1.24.22a4.17,4.17,0,0,1,1.58.75,11.53,11.53,0,0,1,2.57,3.16,14.21,14.21,0,0,1,1.12,2.28,4.61,4.61,0,0,1,.33,2.85,3.69,3.69,0,0,1-.25,1c-.42.73-1.73-1.17-4-4.34a16.19,16.19,0,0,0-1.3-1.57,5.55,5.55,0,0,0-.63-.54.61.61,0,0,0-.35-.13c-.62-.09-1.27-.22-2-.27s-1.46-.14-2.24-.17c-3-.21-6.17-.29-9.32-.4-6.3-.18-12.72-.31-19.16-.45-9.55-.22-19.16-.44-28.75-.57Z"/><path class="cls-1" d="M165.83,204.69l-3.68-13.45-1.42-4.88c-1.59-5.76-3.12-11.54-4.77-17.28-.72-2.55-1.54-5.09-2.34-7.59-1.07-3.21-2.13-6.42-3-9.7-.26-1,.2-1,.91-.32a11.24,11.24,0,0,1,2.36,3.95c1.18,3.26,2.16,6.57,3.15,9.89s1.9,6.67,2.76,10.05c1,4,2.36,8.16,3.51,12.27l3.74,13.55q1.14,4.17,2.29,8.34c1.16,4.2,2.3,8.44,3.52,12.59,1,3.24,2,6.37,3,9.54.22.7.44,1.38.67,2.08.82,2.61.89,3.49.55,4.21a2.7,2.7,0,0,1-.23.48c-.28.37-1-.58-1.72-2.47-2-5.62-3.83-11.64-5.58-17.69l-3.81-13.55Z"/><path class="cls-1" d="M230.76,144.36l-17.71.45-6.46.26-22.77.74-10.11.31a113.84,113.84,0,0,1-12.93-.12c-1.34-.1-1.14-.44,0-.78a22.1,22.1,0,0,1,5.69-.77c8.73-.08,17.47-.51,26.31-.76,5.28-.17,10.78-.56,16.19-.78l17.84-.65,11-.35,16.61-.5c4.28-.16,8.47-.44,12.7-.65l2.78-.15c3.49-.09,4.6.09,5.36.7a4.89,4.89,0,0,1,.5.39c.34.41-1.08.91-3.62,1.12-7.54.6-15.5.85-23.5,1.11l-17.86.48Z"/><path class="cls-1" d="M308.85,223.54,307.1,217c-.21-.8-.49-1.58-.7-2.38-.7-2.84-1.38-5.67-2-8.52-.3-1.26-.66-2.51-1-3.74-.24-.79-.51-1.57-.7-2.38a9.63,9.63,0,0,1-.35-2.47c0-.53.42-.56,1-.26a4.93,4.93,0,0,1,1,.66,2.7,2.7,0,0,1,.73,1.13c.56,1.59.95,3.21,1.35,4.84s.77,3.27,1.06,5c.34,2,1,4,1.57,6l1.77,6.6,1.13,4.06c.58,2,1.16,4.09,1.83,6.09.52,1.55,1.17,3,1.77,4.54.13.33.28.65.4,1,.46,1.25.42,1.72-.15,2.2a4,4,0,0,1-.31.29c-.3.22-1.05-.1-1.46-1a59.67,59.67,0,0,1-3.26-8.43c-.69-2.18-1.32-4.38-2-6.58Z"/><path class="cls-1" d="M293.11,155.48c-.24-1.13-.49-2.27-.78-3.4-.12-.41-.3-.8-.4-1.21-.38-1.46-.78-2.92-1.22-4.38a16.81,16.81,0,0,0-.74-1.89,8.57,8.57,0,0,1-.5-1.25,2.34,2.34,0,0,1-.07-1.47c.09-.34.51-.28,1-.12.28.08.56.14.87.24a1,1,0,0,1,.56.43,17.43,17.43,0,0,1,.92,2.35,15.48,15.48,0,0,1,.67,2.6,30.9,30.9,0,0,0,1,3.16c.33,1.16.62,2.34.88,3.52l.47,2.18c.25,1.1.43,2.21.69,3.29.2.85.56,1.64.8,2.47a4.88,4.88,0,0,1,.18.54c.17.69,0,.94-.61,1.2a3.76,3.76,0,0,1-.37.16,1.06,1.06,0,0,1-1.2-.53,21.12,21.12,0,0,1-1.43-4.44l-.78-3.43Z"/><path class="cls-1" d="M298.21,221.62l-1.48-5.71c-.18-.7-.43-1.37-.6-2.07q-.9-3.69-1.74-7.38c-.26-1.1-.57-2.18-.88-3.25-.2-.69-.42-1.37-.59-2.07a8.37,8.37,0,0,1-.32-2.13c0-.46.33-.48.81-.22a4.34,4.34,0,0,1,.82.6,2.44,2.44,0,0,1,.61,1c.47,1.37.81,2.79,1.16,4.2s.66,2.84.92,4.3c.3,1.73.89,3.47,1.34,5.2l1.5,5.74,1,3.52c.5,1.77,1,3.56,1.54,5.3.44,1.35,1,2.64,1.49,4,.11.29.23.56.34.86.38,1.09.35,1.49-.1,1.89a2,2,0,0,1-.25.25c-.23.18-.85-.11-1.19-.89a55.82,55.82,0,0,1-2.72-7.36c-.59-1.89-1.12-3.8-1.67-5.71Z"/><path class="cls-1" d="M402.06,261.22c2.92.56,5.86,1,8.81,1.32l3.24.24c3.81.29,7.64.43,11.48.38,1.7,0,3.41-.12,5.1-.28l3.25-.3c1.08-.08,2.17-.11,3.27-.1.68,0,.63.36.09.79a6.72,6.72,0,0,1-2.8,1.16A92.93,92.93,0,0,1,421,265c-2.7-.14-5.52-.08-8.28-.31-3-.2-6.07-.61-9.07-1.08-1.85-.3-3.68-.65-5.51-1-2.78-.56-5.54-1.2-8.27-1.79l-6.33-1.3c-.47-.09-.92-.2-1.38-.32-1.7-.48-2.22-.75-2.48-1.26a2.74,2.74,0,0,1-.18-.32c-.1-.29.68-.46,2-.3a91.86,91.86,0,0,1,11.75,2.1c2.93.65,5.87,1.28,8.82,1.8Z"/><path class="cls-1" d="M389.71,221.9c1.73-4.51,3.59-9,5.72-13.34.8-1.58,1.51-3.21,2.4-4.75l.59-1c.18-.22.38-.4.57-.61.3,0,.46-.28.78-.21a4.28,4.28,0,0,1,.91.14l.85.22,2.14.6c1.42.39,2.84.78,4.27,1.14,2.84.72,5.72,1.34,8.61,1.79a50.92,50.92,0,0,0,8.06.58A36.47,36.47,0,0,0,434.67,205c1-.32,1.06.11.36.87a8.62,8.62,0,0,1-4.35,2.21,37.7,37.7,0,0,1-11,.49,69.27,69.27,0,0,1-10.74-1.84l-5.08-1.26-2.55-.64-.75-.19a.75.75,0,0,0-.21,0,1.74,1.74,0,0,1-.11.18l-.41.78-.63,1.18a137.38,137.38,0,0,0-5.82,13.11c-1.06,2.76-2.09,5.54-3,8.34-1.44,4.25-2.87,8.53-4.09,12.82-.95,3.33-1.71,6.65-2.54,10-.18.74-.37,1.45-.59,2.18-.81,2.71-1.26,3.52-2.06,3.92a3.59,3.59,0,0,1-.52.26c-.52.13-.64-1.11-.26-3.14.51-3,1.23-6.11,2.05-9.21s1.7-6.22,2.64-9.34c1.4-4.64,3-9.25,4.67-13.83Z"/><path class="cls-1" d="M401.69,259.54q4.67,1,9.38,1.56c1.16.13,2.31.16,3.46.29,4.07.34,8.16.51,12.27.45,1.82-.06,3.65-.16,5.45-.35,1.15-.12,2.31-.23,3.47-.38a34,34,0,0,1,3.5-.13c.73,0,.68.43.12.95a6.23,6.23,0,0,1-3,1.43,85.75,85.75,0,0,1-14.44.68c-2.9-.16-5.92-.09-8.89-.36-3.26-.25-6.5-.74-9.7-1.3-2-.35-3.94-.76-5.9-1.17l-8.83-2-6.78-1.34c-.5-.1-1-.21-1.48-.34-1.82-.5-2.37-.8-2.64-1.41a2.68,2.68,0,0,1-.19-.38c-.11-.35.74-.59,2.13-.46a78.09,78.09,0,0,1,12.63,2.14c3.13.72,6.27,1.44,9.42,2.05Z"/><path class="cls-1" d="M437.69,240.39c-.21-2.62-.41-5.23-.58-7.84-.07-1-.2-1.91-.26-2.86-.19-3.36-.39-6.73-.58-10.09-.09-1.49-.25-3-.41-4.46a43.43,43.43,0,0,1-.32-5.71c0-.6.45-.55.93-.09a4.38,4.38,0,0,1,1.2,2.42l.41,2.89c.12,1,.17,1.93.25,2.9q.21,2.91.29,5.85c.06,2.35.41,4.76.62,7.15l.67,7.87c.13,1.62.27,3.23.43,4.84.25,2.44.48,4.9.84,7.3.26,1.87.66,3.69,1.05,5.5l.25,1.18c.07.37.12.68.15.94s0,.48,0,.64a1.6,1.6,0,0,1-.28.82,2.53,2.53,0,0,1-.21.32c-.12.13-.29.07-.52-.16a4.2,4.2,0,0,1-.78-1.2,30.34,30.34,0,0,1-1.44-5.05c-.39-1.73-.68-3.48-.9-5.25-.34-2.63-.6-5.27-.87-7.9Z"/><path class="cls-1" d="M448.27,231.49l1.92,8.86c.24,1.08.53,2.15.75,3.23.38,1.88.74,3.76,1.07,5.66.16.95.31,1.9.44,2.87.06.49.12,1,.16,1.48a3.41,3.41,0,0,1-.29,1.91l-.2.21a6,6,0,0,1-1.31.94c-.4.22-.8.43-1.19.62l-2.34,1.14c-1,.47-2,1-2.91,1.47s-1.92.94-2.76,1.48c-.5.32-.81,0-.67-.76a4.37,4.37,0,0,1,2-2.6c1.38-.77,2.76-1.42,4.12-2.05.68-.32,1.35-.63,2-.95.31-.16.64-.32.89-.48s.29-.18.34-.21,0,0,0,0l0,0s0,0,0-.18,0-.66,0-1q-.09-1.07-.21-2.16c-.29-2.66-1-5.39-1.55-8.09l-1.91-8.92-1.21-5.49c-.63-2.76-1.24-5.55-1.92-8.28-.56-2.12-1.11-4.2-1.66-6.3-.12-.46-.26-.91-.34-1.39-.32-1.76-.28-2.36.09-2.81a1.57,1.57,0,0,1,.24-.3c.3-.23.7.43,1.13,1.66,1.28,3.66,2.28,7.6,3.25,11.57l2.1,8.9Z"/><path class="cls-1" d="M423.49,189a5.25,5.25,0,0,0-4-2,5.06,5.06,0,0,0-1.58.58,9.29,9.29,0,0,0-2.74,2.23,19.49,19.49,0,0,0-2.25,3.18,22.51,22.51,0,0,0-1.45,3.25,36.07,36.07,0,0,1-1.6,4.31c-.22.44-.74.22-1.16-.33a2.86,2.86,0,0,1-.53-2.35,24.84,24.84,0,0,1,4.11-9c.64-.82,1.36-1.64,2.11-2.43a9.64,9.64,0,0,1,2.8-2,6.78,6.78,0,0,1,4-.47,8.06,8.06,0,0,1,3.45,1.63,14.52,14.52,0,0,1,2.91,3.18,28.3,28.3,0,0,1,2.91,5.55,38,38,0,0,1,1.75,4.49,7.35,7.35,0,0,1,.27,1.05c.19,1.34-.06,1.82-.87,2.11a2.76,2.76,0,0,1-.55.19c-.64.12-1.16-.35-1.47-1.16a75.23,75.23,0,0,0-2.94-7.24,17.78,17.78,0,0,0-3.18-4.65Z"/><path class="cls-1" d="M447.82,227.86l1.21,6c.15.73.35,1.45.49,2.19.49,2.58,1,5.17,1.46,7.75.2,1.15.45,2.3.69,3.43a19.5,19.5,0,0,1,.71,4.43c0,.47-.34.46-.77.14a3.38,3.38,0,0,1-1.2-1.78c-.61-2.95-1.27-5.9-1.63-8.94-.24-1.82-.72-3.67-1.09-5.5l-1.21-6.05-.76-3.73c-.39-1.88-.77-3.77-1.21-5.62-.34-1.44-.75-2.84-1.11-4.26-.08-.31-.17-.61-.23-.94-.21-1.18-.17-1.58.11-1.91a1.29,1.29,0,0,1,.19-.21c.22-.17.55.27.86,1.1a63.52,63.52,0,0,1,2.2,7.84c.44,2,.88,4,1.33,6Z"/><path class="cls-1" d="M413.68,209.59a38.75,38.75,0,0,0,4.31.55c.53,0,1.06,0,1.59,0a45.88,45.88,0,0,0,5.62-.11,17.12,17.12,0,0,0,2.47-.37c1.06-.16,2.08-.47,3.16-.56.33,0,.36.23.14.55a2.49,2.49,0,0,1-1.25.93,22.55,22.55,0,0,1-6.64,1l-2.05.07c-.69,0-1.38.06-2.07,0a42.59,42.59,0,0,1-4.52-.37c-.92-.13-1.84-.29-2.75-.46-1.39-.26-2.75-.64-4.1-1-1-.27-2.1-.48-3.13-.77-.23-.06-.45-.13-.68-.21-.82-.33-1-.55-1.07-1,0-.1,0-.2,0-.28,0-.29.46-.42,1.09-.31,1.89.28,3.72.89,5.63,1.31,1.42.31,2.84.65,4.28.87Z"/><path class="cls-1" d="M47.54,164.79A35.7,35.7,0,0,1,50,162c.3-.34.6-.68.92-1a28.57,28.57,0,0,1,3.77-2.92l1.76-1.15c.37-.25.75-.48,1.13-.71a5.67,5.67,0,0,1,1.27-.46c.28-.06.39.27.35.71a1.87,1.87,0,0,1-.6,1.3l-4.34,2.72a13.48,13.48,0,0,0-2.36,2.12,31,31,0,0,0-2.36,2.62c-.46.57-.91,1.15-1.33,1.75a31.76,31.76,0,0,0-1.79,2.81,24.58,24.58,0,0,0-1,2.35c-.07.17-.12.35-.21.52-.3.63-.51.77-1,.7a3.23,3.23,0,0,1-.33-.06c-.36-.1-.49-.49-.36-1a16.73,16.73,0,0,1,2-4.45c.63-1.06,1.33-2.08,2.07-3.09Z"/><path class="cls-1" d="M67.36,146c.89-.39,1.78-.74,2.68-1.07.33-.11.64-.27,1-.38,1.17-.36,2.36-.67,3.56-.92l1.6-.35a4.29,4.29,0,0,1,2.11-.07c.23,0,.19.24,0,.48a2.17,2.17,0,0,1-.8.72,22.21,22.21,0,0,1-3.9.94,13.08,13.08,0,0,0-2.39.78c-.87.31-1.73.65-2.57,1-.53.22-1,.48-1.55.74a13.89,13.89,0,0,0-2.16,1.38,8.83,8.83,0,0,0-1.32,1.42l-.25.33c-.15.21-.29.31-.46.31a1,1,0,0,1-.57-.16l-.27-.13a.83.83,0,0,1-.23-1,7.27,7.27,0,0,1,2.89-2.72c.88-.47,1.74-.93,2.62-1.36Z"/><path class="cls-2" d="M64.08,164.36a1.9,1.9,0,0,0,.2.57,5.47,5.47,0,0,0,1.17,1.37c.37.31.74.6,1.1.85a19.3,19.3,0,0,0,2.28,1.3,21.4,21.4,0,0,0,2.41,1,12.88,12.88,0,0,0,1.29.38,7,7,0,0,0,.69.14,2.76,2.76,0,0,0,.75,0,.84.84,0,0,0,.33-.1c.4-.27.3-2.13.12-2.44a.42.42,0,0,0-.17-.14c-.13-.05-.28-.21-.43-.23a3.21,3.21,0,0,1-.48-.14c-.32-.1-.65-.24-1-.37a17,17,0,0,1-1.94-1,18.28,18.28,0,0,1-1.8-1.22,8.6,8.6,0,0,1-.78-.64,3.69,3.69,0,0,1-.28-.29c-.07-.07-.12-.2-.13-.13-.25.15-.64.26-.73.34a.75.75,0,0,1-.35.08h-.63a3.34,3.34,0,0,0-1.13.14C64.28,163.88,64.05,164.1,64.08,164.36Z"/><path class="cls-2" d="M83.12,172.21c.18.07.35.16.53.21a21.46,21.46,0,0,0,5.08.6,33.11,33.11,0,0,0,4.89-.33,39.25,39.25,0,0,0,4.79-.91c.79-.2,1.58-.42,2.37-.7.39-.12.79-.29,1.18-.45a6.79,6.79,0,0,0,1.13-.66,2.09,2.09,0,0,0,.45-.4c.44-.6-.72-2.07-1.25-2.1a2,2,0,0,0-.42.09c-.34.1-.67.16-1,.28s-.67.24-1,.33a20.92,20.92,0,0,1-2.14.54,34.67,34.67,0,0,1-4.44.65,33.23,33.23,0,0,1-4.45.13,18,18,0,0,1-4.19-.55c-.13,0-.26-.05-.4-.08C83.71,169,82.54,171.76,83.12,172.21Z"/><path class="cls-2" d="M112.48,166.12a3,3,0,0,0,.32-.08,17.57,17.57,0,0,0,5.27-3.39,22.43,22.43,0,0,0,2.12-2.25c.32-.4.63-.8.93-1.21a4,4,0,0,0,.74-1.32.7.7,0,0,0,.08-.33c0-.46-1.59-1.48-2-1.38a.89.89,0,0,0-.27.17,5.87,5.87,0,0,0-.52.46l-.42.53c-.29.35-.59.67-.89,1a18.12,18.12,0,0,1-1.94,1.79,17.33,17.33,0,0,1-4.43,2.58,1.28,1.28,0,0,0-.23.14C111,163.18,112,166,112.48,166.12Z"/><path class="cls-2" d="M156.23,120.43a1.59,1.59,0,0,0,.21-.15l3.38-3.63,1.71-1.79.87-.88.43-.44a3.29,3.29,0,0,0,.36-.53.84.84,0,0,0,.11-.27,3.48,3.48,0,0,0-1.64-1.82.82.82,0,0,0-.29.09,2.88,2.88,0,0,0-.57.32l-.48.41-1,.83-1.89,1.69c-1.26,1.14-2.47,2.32-3.65,3.53a.83.83,0,0,0-.14.22A6.89,6.89,0,0,0,156.23,120.43Z"/><path class="cls-2" d="M172.23,107.73a1.19,1.19,0,0,0,.25-.13c1.44-1.11,2.82-2.22,4.21-3.25.69-.52,1.4-1,2.12-1.44.36-.22.72-.42,1.09-.62.18-.09.36-.19.55-.27s.33-.27.51-.38a.63.63,0,0,0,.2-.2c.18-.38-.38-2.16-.82-2.31a.93.93,0,0,0-.33,0,3.65,3.65,0,0,0-1.43.42c-.44.19-.88.4-1.31.62-.85.44-1.67.92-2.46,1.41-1.6,1-3.06,2.08-4.5,3.14a2,2,0,0,0-.2.21C170,105.31,171.81,107.73,172.23,107.73Z"/><path class="cls-2" d="M191.25,99.2a3.13,3.13,0,0,0,.43,0,30.74,30.74,0,0,1,8.3-.45,27.88,27.88,0,0,1,4.16.64c1.41.2,2.68.9,4.15,1a1.46,1.46,0,0,0,.47,0c.59-.11,1.28-1.85.85-2.29a1.53,1.53,0,0,0-.41-.27,9,9,0,0,0-1-.5L207.08,97a18.65,18.65,0,0,0-2.2-.68,31.84,31.84,0,0,0-4.55-.9,30.07,30.07,0,0,0-9.32.23,3.5,3.5,0,0,0-.46.14C190,96.11,190.71,99.05,191.25,99.2Z"/><path class="cls-2" d="M218.36,105.66a.82.82,0,0,0,.18.11,21.53,21.53,0,0,1,2.72,1.36c.93.53,1.87,1.07,2.78,1.64s1.82,1.17,2.68,1.8c.42.31.86.63,1.24,1,.2.17.39.33.56.49a1.08,1.08,0,0,0,.3.21l.26.17c.08,0,.14.1.21.08.29-.12,2.22-.42,2.11-1.24a2,2,0,0,0-.08-.29l-.11-.2a3.78,3.78,0,0,0-.57-.86c-.22-.24-.44-.44-.66-.64-.44-.43-.88-.79-1.33-1.16-.89-.74-1.81-1.42-2.74-2.09s-1.88-1.3-2.86-1.91a26.51,26.51,0,0,0-3.2-1.68,2.51,2.51,0,0,0-.47-.11C218.68,102.35,218.29,105.37,218.36,105.66Z"/><path class="cls-2" d="M280.64,171.13a2.65,2.65,0,0,0,.11.3,14,14,0,0,0,3.63,4,20.41,20.41,0,0,0,2.14,1.48c.38.23.75.45,1.14.64a2.94,2.94,0,0,0,1.24.45.6.6,0,0,0,.3,0,3.53,3.53,0,0,0,1-2.23.58.58,0,0,0-.16-.21c-.14-.12-.25-.31-.42-.39s-.31-.18-.47-.28c-.31-.19-.61-.41-.91-.62a16.55,16.55,0,0,1-1.71-1.4,13.4,13.4,0,0,1-2.64-3.22.83.83,0,0,0-.13-.14C283.47,169.48,280.69,170.68,280.64,171.13Z"/><path class="cls-2" d="M297.73,184.41c.16.13.31.27.47.38a36.8,36.8,0,0,0,5.11,2.89,40.79,40.79,0,0,0,5.47,2,37,37,0,0,0,5.72,1.18c1,.12,1.94.2,2.93.23.49,0,1,0,1.48,0a10.71,10.71,0,0,0,1.49-.22,2.77,2.77,0,0,0,.62-.19c.7-.37.36-2.21-.28-2.44a2.67,2.67,0,0,0-.56-.06c-.87-.11-1.73-.1-2.61-.15s-1.76-.16-2.63-.3a33.15,33.15,0,0,1-5.18-1.26,41.61,41.61,0,0,1-4.94-2,33.12,33.12,0,0,1-4.57-2.68c-.15-.1-.32-.18-.48-.27C299.11,181.38,297.29,183.79,297.73,184.41Z"/><path class="cls-2" d="M331.21,189.45a1.57,1.57,0,0,0,.3.05,22.28,22.28,0,0,0,5.71-.71A26.07,26.07,0,0,0,340,188c.44-.16.89-.34,1.32-.53a3.51,3.51,0,0,0,1.24-.71.7.7,0,0,0,.22-.23,3.22,3.22,0,0,0-1-2.23.71.71,0,0,0-.29,0,4.19,4.19,0,0,0-.65.11l-.59.22c-.4.14-.8.26-1.21.37a20.26,20.26,0,0,1-2.45.57,26.63,26.63,0,0,1-4.95.37,2.34,2.34,0,0,0-.26,0C331,186.18,330.86,189.19,331.21,189.45Z"/><path class="cls-2" d="M350.6,184.21a2.35,2.35,0,0,0,.26,0,20.16,20.16,0,0,0,4.88-1.36,20.86,20.86,0,0,0,2.27-1.13q.56-.31,1.08-.66a3,3,0,0,0,1-.83.47.47,0,0,0,.14-.25,3.61,3.61,0,0,0-1.39-2,.53.53,0,0,0-.26,0,3,3,0,0,0-.55.17c-.15.1-.31.18-.47.27-.32.18-.64.34-1,.49a17.9,17.9,0,0,1-2,.79,23.31,23.31,0,0,1-4.19.91.83.83,0,0,0-.22.08A7.43,7.43,0,0,0,350.6,184.21Z"/><path class="cls-2" d="M366.24,176.52a.94.94,0,0,0,.24-.06,16.47,16.47,0,0,0,3.85-2.48,20.28,20.28,0,0,0,1.65-1.56c.26-.28.51-.56.76-.85l.36-.44a2.4,2.4,0,0,0,.24-.54.45.45,0,0,0,.05-.26,4,4,0,0,0-1.93-1.51.36.36,0,0,0-.22.08,2.41,2.41,0,0,0-.76.61c-.22.22-.46.44-.7.65a16.79,16.79,0,0,1-1.5,1.17,19.32,19.32,0,0,1-3.28,1.84c-.06,0-.1.08-.16.12A8.48,8.48,0,0,0,366.24,176.52Z"/><path class="cls-1" d="M43.62,143.69c-1.9-1.72-3.81-3.44-5.74-5.13-.7-.62-1.45-1.18-2.15-1.8-2.48-2.19-4.95-4.37-7.46-6.51-1.12-.94-2.27-1.85-3.43-2.72-1.5-1.11-3-2.27-4.36-3.49-.43-.39-.2-.6.39-.59a5.12,5.12,0,0,1,2.5.79,52.18,52.18,0,0,1,4.69,3.33c1.51,1.17,3,2.4,4.43,3.67,1.72,1.54,3.66,2.94,5.49,4.43q3,2.46,6,5l3.65,3.08c1.84,1.55,3.66,3.16,5.52,4.66,1.45,1.18,3,2.2,4.45,3.32.32.25.65.48,1,.75s.52.47.71.67a2.38,2.38,0,0,1,.35.6,1.43,1.43,0,0,1,.06,1,2.43,2.43,0,0,1-.12.43c-.2.39-.93.28-1.94-.19a71.75,71.75,0,0,1-8.14-6.14c-2-1.64-3.92-3.36-5.87-5.07Z"/><path class="cls-1" d="M33.43,149.91l5.28,10.91c.65,1.32,1.38,2.61,2,3.92l.86,1.73.44.86.05.11,0,0,0,.06.06.14c.08.19.18.39.29.6a.86.86,0,0,0,.1.16l.06.07s0,0,.05-.06l.15-.26.36-.61.4-.74c.15-.3.32-.58.48-.87.65-1.15,1.31-2.29,2-3.41a32.05,32.05,0,0,1,4.44-5.6,17.7,17.7,0,0,1,3.77-2.77,13.7,13.7,0,0,1,4.4-1.4c.94-.15.92.4.32,1.14a12,12,0,0,1-3,2.5A18,18,0,0,0,50,161.8c-.84,1.13-1.67,2.3-2.43,3.55-.4.61-.77,1.25-1.15,1.89l-.56.95-.28.49-.47.88-.28.53-.13.26-.14.15-.55.61L43,172.35c-.27.07-.45-.08-.65-.17a2.67,2.67,0,0,1-.62-.46,8.39,8.39,0,0,1-1.22-1.78l-1-1.71L38.82,167c-.44-.82-.87-1.65-1.28-2.48-1.83-3.65-3.6-7.33-5.38-11l-3.3-6.76c-1.68-3.4-3.35-6.83-5.13-10.14-1.38-2.58-2.9-5-4.39-7.48l-1-1.61c-1.2-2-1.44-2.74-1.12-3.55a4.65,4.65,0,0,1,.22-.54c.32-.49,1.26.09,2.31,1.53a111.35,111.35,0,0,1,8.23,14c1.88,3.62,3.69,7.29,5.51,10.94Z"/><path class="cls-1" d="M71.94,139.63c-3.45-1.09-7-2.11-10.46-3.11-1.28-.36-2.57-.66-3.85-1q-6.77-2-13.51-4l-6-1.83a27.81,27.81,0,0,1-7.44-3.14c-.72-.52-.42-.68.34-.64a18.22,18.22,0,0,1,3.53.46c1.29.32,2.57.7,3.86,1.09l3.87,1.11c2.59.77,5.17,1.6,7.76,2.46,3.1,1,6.42,1.78,9.64,2.66,3.54,1,7.08,2,10.62,3l3.26,1a38.62,38.62,0,0,1,4.15,1.48,4.5,4.5,0,0,1,1.13.73,2.86,2.86,0,0,1,.38.4.8.8,0,0,1,.14.24.31.31,0,0,1,0,.31c-.26.24-.59.44-.88.66s-1,.41-1.47.61-1.15.37-1.71.55l-.43.14a3.86,3.86,0,0,1-.38.12l-.61.18-2.43.76a24.39,24.39,0,0,0-3.57,1.43,13.67,13.67,0,0,0-3,2,10.22,10.22,0,0,0-1,1.07l-.66.9a2.76,2.76,0,0,1-.5.59,3.13,3.13,0,0,1-.45.39,3.66,3.66,0,0,1-.58.22c-.18.05-.36.15-.5.19s-.39-.14-.55-.64a2.09,2.09,0,0,1-.08-.93,6.69,6.69,0,0,1,.35-1.2,9.42,9.42,0,0,1,2.67-3.2,16.45,16.45,0,0,1,3.45-2,34.24,34.24,0,0,1,3.61-1.33c.6-.19,1.21-.35,1.81-.51l1.51-.4s.06,0,.08,0l0,0,0,0-.65-.2-1.3-.4Z"/><path class="cls-1" d="M55.18,364.76l.38-22.38c0-2.72-.07-5.44,0-8.16.24-9.58.52-19.17.68-28.75,0-4.26.08-8.53,0-12.75,0-2.71,0-5.43,0-8.15l0-2,.12-2c.09-1.36.19-2.71.32-4.07.16-1.69.68-1.46,1.35,0a21.77,21.77,0,0,1,1.08,3c.19.61.36,1.28.52,2,.07.36.14.72.22,1.1s.07.75.09,1.14c.27,5.54.5,11.07.63,16.61s-.08,11.1-.29,16.68c-.27,6.68,0,13.62.05,20.45q-.09,11.26-.17,22.53l-.09,13.86c0,7-.11,14,0,21,.09,5.4.58,10.69.76,16,0,1.18.12,2.33.12,3.51,0,4.4-.34,5.8-1.56,6.76a5.51,5.51,0,0,1-.83.63c-.93.44-1.75-1.34-2.16-4.56-.29-2.38-.56-4.8-.8-7.24s-.3-4.91-.41-7.39c-.17-5-.23-10-.26-15.07,0-7.51,0-15,.07-22.57Z"/><path class="cls-1" d="M457.66,366.05l.61-22.41c.06-2.72,0-5.45.07-8.17.32-9.61.66-19.22.88-28.82.07-4.26.12-8.55.12-12.78v-8.16l0-2,.13-2c.1-1.36.22-2.72.35-4.08.18-1.69.69-1.46,1.35,0a21.26,21.26,0,0,1,1.06,3c.18.62.36,1.28.51,2l.21,1.1c0,.37.07.76.08,1.15.24,5.55.44,11.09.54,16.65s-.15,11.13-.39,16.73c-.32,6.69-.06,13.66-.11,20.51-.08,7.52-.24,15.06-.38,22.59l-.27,13.9c-.11,7-.31,14.07-.31,21,0,5.42.36,10.74.4,16.1,0,1.18.06,2.33,0,3.52-.11,4.41-.52,5.81-1.77,6.72a5.42,5.42,0,0,1-.85.61c-.94.39-1.7-1.42-2-4.65-1.09-9.57-.86-19.64-.8-29.76.13-7.52.27-15.07.4-22.6Z"/><g class="cls-3"><path class="cls-1" d="M286.13,243.8q-12.17-.26-24.33-.38l-8.87,0c-10.43-.1-20.86-.2-31.28-.18-4.63,0-9.28.08-13.87.19l-8.85.23c-3,.05-5.91.09-8.85.11-1.84,0-1.61-.32-.07-.72a42.3,42.3,0,0,1,7.8-1.05c12.06-.41,24.1-.56,36.25-.46,7.27.06,14.83-.08,22.26-.08q12.26,0,24.52.15l15.09.18,22.83.39c5.88.1,11.65.09,17.46.21l3.83.07c4.79.22,6.31.49,7.29,1.17a5.53,5.53,0,0,1,.65.44c.43.44-1.54.81-5,.75-10.37-.06-21.3-.27-32.29-.46l-24.53-.47Z"/></g><path class="cls-2" d="M315.86,249.89l-.71.1a93.68,93.68,0,0,1-13.93.68c-2.34,0-4.68-.16-7-.27s-4.71-.17-7.08-.22h-.75c-.85,0-.9,1.44-.06,1.5l.75.05,7,.54c2.35.16,4.71.31,7.08.41a80.19,80.19,0,0,0,14.27-.5l.74-.1C317,252,316.68,249.78,315.86,249.89Z"/><path class="cls-1" d="M305.3,272.75l-72-.16-26.25,0-92.56-.52c-13.68-.12-27.45-.12-41-.14-8.73,0-17.48-.07-26.22-.15l-13.13-.28a9.07,9.07,0,0,1-3.7-.76,3,3,0,0,1-1.57-1.89,3.58,3.58,0,0,1,0-1.26,5.42,5.42,0,0,1,.23-1,28.89,28.89,0,0,1,1.35-3.12,10.13,10.13,0,0,0,.92-2.79,3.46,3.46,0,0,0-.41-2.19c-.24-.45-.38-.7-.25-.78s.48,0,1,.42a3.53,3.53,0,0,1,1.17,2.58,11.65,11.65,0,0,1-.83,4.3,19.78,19.78,0,0,0-.68,2.3,3.22,3.22,0,0,0-.06.5.44.44,0,0,0,0,.26.48.48,0,0,0,.27.27s.18,0,.28.09.32.08.53.09a10.52,10.52,0,0,0,1.32.08c.46,0,1,0,1.56,0l1.69-.05c2.27-.08,4.68-.12,7.19-.12l26.71-.2,26.75-.06q26.78-.07,53.69.33c21.49.28,43.85,0,65.83,0l72.52.08,44.63,0c22.53,0,45.16,0,67.52-.08,17.39-.09,34.42-.4,51.61-.59,3.78-.05,7.48-.06,11.3-.06,14.14.06,18.64.31,21.68,1,.7.17,1.61.33,2,.49,1.36.53-4.4,1.06-14.75,1.44l-11.6.42c-3.89.14-7.8.27-11.73.34l-23.81.43c-16,.24-32.24.42-48.5.56-24.15.21-48.42.15-72.64.22Z"/><path class="cls-1" d="M476.31,255.1l5.3.31c.64,0,1.29,0,1.93,0l3.52.22.17,0a.49.49,0,0,0,.17.06,2,2,0,0,1,.32.1,4.32,4.32,0,0,1,.58.36,6.42,6.42,0,0,1,.74.73,11.93,11.93,0,0,1,1.08,1.51,14.09,14.09,0,0,1,1.4,3,6.94,6.94,0,0,1,.39,2.15,4,4,0,0,1-.16,1.14c-.06.19-.12.38-.19.55s-.2.34-.31.5c-.28.41-.71,0-1.08-.52a3.45,3.45,0,0,1-.74-1.56,6.47,6.47,0,0,0-.74-3,10.8,10.8,0,0,0-.82-1.49c-.16-.25-.32-.47-.49-.7s-.4-.45-.4-.5a.25.25,0,0,0-.12-.11.25.25,0,0,0-.1,0l-.3,0-1.21,0c-.82,0-1.63,0-2.44,0l-5.34-.16-3.29-.1c-1.66,0-3.33-.13-5-.09-1.29,0-2.54.2-3.81.31-.27,0-.55.07-.83.09-1,0-1.37-.16-1.59-.82a2.47,2.47,0,0,1-.15-.46c-.1-.51.32-.93,1.09-1.1a34.74,34.74,0,0,1,7-.58c1.77,0,3.56,0,5.34.11Z"/><path class="cls-1" d="M130.44,258.54a1.28,1.28,0,0,0,.34-.75,1.76,1.76,0,0,0,.09-.51c0-.18,0-.35,0-.54a5.72,5.72,0,0,0-1.1-2.39,17.63,17.63,0,0,0-4.9-4.22,23.64,23.64,0,0,0-4.41-2,35.79,35.79,0,0,0-8.66-1.67,29.3,29.3,0,0,0-8.82.64,17.21,17.21,0,0,0-6.89,3.4,18.72,18.72,0,0,0-5.29,8c-.41.94-1.09.68-1.49-.41a6.44,6.44,0,0,1-.32-2.22,8.62,8.62,0,0,1,.88-2.89,18.17,18.17,0,0,1,8.86-7.64,26.37,26.37,0,0,1,11.2-1.89c4.48.25,9,.61,13.46,2.44a27.28,27.28,0,0,1,6.47,4,16.42,16.42,0,0,1,2.69,2.88,8,8,0,0,1,1.53,4l0,.7a5.46,5.46,0,0,1-.1.69l-.12.69c-.07.23-.16.45-.25.68a4.67,4.67,0,0,1-2,2.18,10.35,10.35,0,0,1-4.88,1c-2.22,0-4.54.09-6.81-.05s-4.53-.31-6.76-.48c-3.47-.27-6.86-.36-10.22-.3l-2.2.1c-2.74.08-3.59,0-4.29-.79a3.67,3.67,0,0,1-.46-.54c-.36-.6.74-1.34,2.87-1.67,6.34-1,12.94-.07,19.26.27,1.17.07,2.34.12,3.51.14.58,0,1.16,0,1.74,0l1.79,0a28.58,28.58,0,0,0,3.34-.11,2.83,2.83,0,0,0,1.81-.71Z"/><g class="cls-3"><path class="cls-1" d="M168.75,202.22,165.49,190c-.4-1.48-.89-2.94-1.28-4.42-1.4-5.22-2.73-10.46-4.18-15.67-.64-2.31-1.37-4.6-2.11-6.86a83.84,83.84,0,0,1-2.61-8.8c-.2-.93.37-1,1.17-.4a7.81,7.81,0,0,1,2.47,3.47c1.11,2.93,2,5.94,2.85,8.95s1.67,6.05,2.4,9.12c.88,3.67,2.12,7.39,3.13,11.11l3.32,12.27,2,7.56c1,3.8,2.05,7.64,3.16,11.4.87,2.92,1.87,5.74,2.81,8.6.21.63.44,1.24.63,1.88a11.21,11.21,0,0,1,.59,2.56,2,2,0,0,1-.38,1.33,3,3,0,0,1-.34.47c-.21.18-.49.06-.82-.31a6.2,6.2,0,0,1-1-1.85c-2-5-3.6-10.48-5.18-15.95q-1.73-6.12-3.44-12.26Z"/></g><g class="cls-3"><path class="cls-1" d="M226.78,147.13l-15.49.23-5.64.19-19.92.48-8.83.3a88.92,88.92,0,0,1-11.31,0c-1.17-.1-1-.54,0-1a13.19,13.19,0,0,1,5-1.09c7.63-.21,15.26-.59,23-.73,4.62-.09,9.43-.47,14.16-.64l15.61-.47,9.6-.26c4.84-.16,9.71-.25,14.51-.5,3.74-.2,7.39-.58,11.07-.91.81-.07,1.6-.17,2.42-.23,3-.2,4,0,4.71.75a4.08,4.08,0,0,1,.46.49c.32.51-.88,1.19-3.1,1.53a199.73,199.73,0,0,1-20.55,1.57c-5.2.21-10.43.27-15.63.4Z"/></g><g class="cls-3"><path class="cls-1" d="M296.55,223l-1.23-5.34c-.16-.64-.41-1.26-.55-1.91q-.72-3.45-1.39-6.91a26.66,26.66,0,0,0-.82-3c-.21-.62-.45-1.25-.6-1.9a7.89,7.89,0,0,1-.18-1,4.16,4.16,0,0,1,.05-1c.08-.44.65-.54,1.43-.38a6.53,6.53,0,0,1,1.29.4,1.7,1.7,0,0,1,.85.84,23.52,23.52,0,0,1,1.13,3.87,30.91,30.91,0,0,1,.65,4,34.69,34.69,0,0,0,1.15,4.84l1.26,5.33c.26,1.1.52,2.2.81,3.28.43,1.65.83,3.32,1.37,4.92.43,1.24,1,2.4,1.57,3.59.12.27.26.52.36.79.39,1,.25,1.41-.6,1.91-.18.11-.33.23-.48.3a1.48,1.48,0,0,1-1.8-.6,28.13,28.13,0,0,1-2.86-6.7c-.55-1.75-1-3.54-1.5-5.31Z"/></g><path class="cls-2" d="M287.26,165l-.32.16a12.81,12.81,0,0,0-2.86,2,17,17,0,0,0-2.33,2.55,34.05,34.05,0,0,0-3.41,5.85l-.14.32c-.17.38,1.11,1,1.29.63l.15-.31a31.29,31.29,0,0,1,3.43-5.47,23.74,23.74,0,0,1,2.15-2.33,21.85,21.85,0,0,1,2.46-1.94l.28-.17C288.27,166.06,287.64,164.81,287.26,165Z"/><path class="cls-1" d="M451.67,255s12.81,1.86,7.56,4.36-18.2,1.07-18.2,1.07Z"/><g class="cls-4"><path class="cls-1" d="M414.38,234c-2.2,1.16-4.35,2.55-6.51,3.93-1.08.7-2.16,1.39-3.27,2.07a25.64,25.64,0,0,1-3.53,1.88,3.9,3.9,0,0,1-2.05.35,1.45,1.45,0,0,1-.9-.55,1,1,0,0,1-.21-.49l-.07-.26v-.28a2.57,2.57,0,0,1,.23-1.13,4.92,4.92,0,0,1,.46-.81,10.52,10.52,0,0,1,1-1.18,38,38,0,0,1,3.81-3.33c1.31-1,2.63-2,3.94-3a52.3,52.3,0,0,0,7.42-6.34,6,6,0,0,0,1.09-1.68,1.89,1.89,0,0,0,.14-.82c-.06-.1-.06-.26-.13-.31a1.67,1.67,0,0,0-.29-.31,2.9,2.9,0,0,0-1.8-.51,9.15,9.15,0,0,0-2.06.3,25.15,25.15,0,0,0-5.1,2.07,54.64,54.64,0,0,0-4.79,2.82c-1,.65-.93.44-.24-.29a20.73,20.73,0,0,1,4-3,28.5,28.5,0,0,1,5.29-2.5,10.58,10.58,0,0,1,3-.57,4.56,4.56,0,0,1,1.7.3,3.11,3.11,0,0,1,.83.46,2.74,2.74,0,0,1,.36.32,1.41,1.41,0,0,1,.35.5,3,3,0,0,1,.2.54c0,.19,0,.37,0,.55a3.28,3.28,0,0,1-.18,1,5,5,0,0,1-.79,1.49,17,17,0,0,1-2,2.25,58,58,0,0,1-4.49,3.73c-1.83,1.4-3.71,2.81-5.52,4.29-.91.74-1.8,1.49-2.64,2.28-.42.4-.82.8-1.18,1.21a7,7,0,0,0-.51.63,4.4,4.4,0,0,0-.34.53c-.1.17-.14.5.12.54a.75.75,0,0,0,.33,0,5.33,5.33,0,0,0,.76-.3,32,32,0,0,0,3.3-1.85c2.17-1.36,4.32-2.82,6.53-4.18a40.52,40.52,0,0,1,4.25-2.35,10.66,10.66,0,0,1,2.41-.8,3.28,3.28,0,0,1,1.45.06,1.87,1.87,0,0,1,1.21,1.13,2.86,2.86,0,0,1-.27,2.19,8.31,8.31,0,0,1-1.06,1.61c-.8,1-1.67,1.82-2.52,2.68a24.45,24.45,0,0,0-4.53,5.36,11.25,11.25,0,0,0-.95,2.47,2.87,2.87,0,0,0,.1,2.19,2.29,2.29,0,0,0,1.9.7,13.69,13.69,0,0,0,2.59-.23c.78-.14,1.54-.32,2.33-.47,2.94-.61,3.95-.68,4.66-.41a2.69,2.69,0,0,1,.47.19c.32.24-.83.66-2.94,1.3a42.27,42.27,0,0,1-4.93,1.25,11.07,11.07,0,0,1-2.8.16,4.45,4.45,0,0,1-1.63-.43,3,3,0,0,1-1.41-1.45,5,5,0,0,1-.06-3.34,13.15,13.15,0,0,1,1-2.65,19,19,0,0,1,3.4-4.37l2.73-2.75a10.66,10.66,0,0,0,2.1-2.7.67.67,0,0,0,.1-.29c0-.08.08-.19.05-.25s0-.1,0-.18,0,0-.11-.07a1.65,1.65,0,0,0-.55,0A11.59,11.59,0,0,0,414.4,234Z"/></g><path class="cls-1" d="M152.49,256.32,148,256c-.55,0-1.1,0-1.65,0l-5.84-.44c-.87-.06-1.74-.06-2.59,0-.55,0-1.1.06-1.66,0a11.72,11.72,0,0,1-1.65-.24c-.35-.08-.3-.41,0-.79a2.77,2.77,0,0,1,1.45-1,27.29,27.29,0,0,1,3.37-.25,19.24,19.24,0,0,1,3.39.14,38.43,38.43,0,0,0,4.16,0l4.58.11,2.82.06c1.42,0,2.85.1,4.26,0,1.1,0,2.17-.28,3.26-.38.24,0,.47-.07.71-.08.89,0,1.18.27,1.37.92,0,.15.1.3.13.45.08.5-.28,1-.93,1.23a19.68,19.68,0,0,1-6,.74c-1.53,0-3.06-.05-4.58-.11Z"/><path class="cls-1" d="M378.22,254.48c-.43-.09-.85-.19-1.28-.27-.15,0-.31,0-.46,0l-1.65-.37a3.59,3.59,0,0,0-.73,0,3.53,3.53,0,0,1-.46,0,1.33,1.33,0,0,1-.47-.19c-.1-.07-.1-.32,0-.61a1.4,1.4,0,0,1,.38-.76,2.86,2.86,0,0,1,1-.18,2.13,2.13,0,0,1,1,.13,4.18,4.18,0,0,0,1.17.05c.44,0,.87.06,1.3.1l.8.07a9.63,9.63,0,0,0,1.2.05,6.45,6.45,0,0,0,.92-.28.65.65,0,0,1,.2,0c.25,0,.33.2.38.71l0,.35a1.37,1.37,0,0,1-.26.94,2.31,2.31,0,0,1-1.68.54,7.81,7.81,0,0,1-1.28-.11Z"/><path class="cls-1" d="M71.16,257.34,63.91,257c-.88,0-1.77,0-2.65,0l-9.32-.51c-1.37-.09-2.76-.11-4.13-.13-.88,0-1.76,0-2.65-.06a20,20,0,0,1-2.64-.38c-.55-.13-.44-.44,0-.79a5.12,5.12,0,0,1,2.34-.86c1.78-.12,3.56-.1,5.35-.12s3.59,0,5.39.21c2.16.19,4.41.06,6.62.08l7.29.11,4.48.06c2.27,0,4.55.09,6.79,0,1.75,0,3.46-.29,5.19-.41.38,0,.75-.07,1.14-.08,1.42,0,1.87.26,2.19.91a3,3,0,0,1,.2.45c.15.5-.43,1-1.47,1.24a49,49,0,0,1-9.61.78c-2.43,0-4.87,0-7.31-.1Z"/><path class="cls-1" d="M248.54,259.32c-8.9,1-107.29,6.33-92.26-5.5,2.26-1.77,10.41-1.53,13.19-2.09l5,5.06Z"/><g class="cls-5"><path class="cls-1" d="M38.09,158.47l-3.83-8.07c-.48-1-1-1.92-1.49-2.89-1.66-3.44-3.37-6.86-5.25-10.18-.84-1.47-1.71-2.94-2.62-4.35-1.17-1.82-2.42-3.59-3.44-5.51-.31-.6.08-.77.77-.55a5.58,5.58,0,0,1,2.47,1.81c1.35,1.78,2.67,3.58,3.9,5.45a64.76,64.76,0,0,1,3.25,5.89c1.19,2.42,2.66,4.8,3.93,7.23,1.41,2.67,2.72,5.38,4,8.1l2.41,5,.54,1.14.24.5.12.26.06.13s0-.06.07-.09a10.4,10.4,0,0,1,.72-1l.52-.64.75-.86a32.15,32.15,0,0,1,4.82-4.58c.4-.28.77-.59,1.2-.84a5,5,0,0,1,1.79-.78,1.68,1.68,0,0,1,1.1.29,2.55,2.55,0,0,1,.4.28c.17.17.14.42,0,.76a3.4,3.4,0,0,1-1,1.12,53.28,53.28,0,0,0-4.19,3.62c-.67.64-1.32,1.31-1.94,2-.31.35-.62.7-.91,1.07l-.18.23-.24.29c-.15.2-.3.42-.45.64-.29.46-.6.82-.88,1.35l-1.73,3-3.27-6.44L38,158.5Z"/></g><path class="cls-6" d="M260.26,195.05c.45,8.86-3.27,18.23-10.64,23.21-9.09,6.14-23.54,6.93-33.08,1.32-9.39-5.52-15-17.05-13.07-27.78,5-27.77,47.18-30.24,55.63-3.31A26.24,26.24,0,0,1,260.26,195.05Z"/><path class="cls-1" d="M344.72,317.44l-62.07,2.44-22.64,1c-26.62,1-53.23,1.89-79.87,2.39-11.82.23-23.7.42-35.44.45-7.54,0-15.09,0-22.65-.21-3.78-.11-7.55-.25-11.32-.45l-2.84-.16c-1-.06-1.94-.18-2.89-.31a29.73,29.73,0,0,0-5.41-.53c-2.13.13-3.06.46-3.11.13s.86-1.11,2.91-1.65a15.13,15.13,0,0,1,3.73-.38c1.42,0,3,.08,4.58,0,3.37-.12,7.39-.17,11.71-.07,15.33.34,30.67.21,46.05-.06s30.79-.62,46.29-1c18.52-.47,37.8-1.53,56.74-2.41L331,313.85l38.48-1.67c19.43-.85,39-1.49,58.25-2.25,15-.52,29.69-1.29,44.54-1.71L482,308c12.23-.13,16.12.28,18.73,1.54a10.22,10.22,0,0,1,1.73.88c1.16,1-3.82,1.79-12.74,2.07l-82.39,2.73c-20.82.75-41.74,1.49-62.62,2.37Z"/></g></svg>