<svg id="Layer_1" data-name="Layer 1" xmlns="http://www.w3.org/2000/svg" width="520" height="520" viewBox="0 0 520 520"><defs><style>.cls-1{fill:#221f1f;}.cls-2,.cls-3,.cls-5{fill:none;stroke:#221f1f;stroke-miterlimit:10;}.cls-2{stroke-width:2.82px;}.cls-3{stroke-width:2px;}.cls-4{fill:#232020;}.cls-5{stroke-width:3px;}</style></defs><title>Notioly v2</title><g id="_27.Artist" data-name="27.Artist"><path class="cls-1" d="M262.53,149.24a4.85,4.85,0,0,1-1.14.61,5.78,5.78,0,0,1-1.2.37,5.26,5.26,0,0,1-2.61-.17,5.13,5.13,0,0,1-1.65-.78,7.7,7.7,0,0,1-2.55-4.78c-.13-.72-.25-1.43-.31-2.13a10.12,10.12,0,0,1,.08-2.69c0-.28,0-.24.07,0s.41.6.68,1.06a46.72,46.72,0,0,1,2.21,4.46,3.61,3.61,0,0,0,1.75,1.69,2.8,2.8,0,0,0,2.34.16,2.7,2.7,0,0,0,1.33-.88,4.72,4.72,0,0,0,.79-2.76c0-.83-.11-1.66-.11-2.53,0-.19,0-.38,0-.57a7.56,7.56,0,0,1,.2-1.13v-.1a2.82,2.82,0,0,0,.31.71,12.35,12.35,0,0,1,1.85,4.9,5.57,5.57,0,0,1-.34,2.42,5.19,5.19,0,0,1-1.67,2.21Z"/><path class="cls-1" d="M279.48,144.66a2.45,2.45,0,0,0,.48.16,2.53,2.53,0,0,0,.53.12,2.23,2.23,0,0,0,1-.08,3.16,3.16,0,0,0,.66-.44,5.54,5.54,0,0,0,2-3.19,11.46,11.46,0,0,0,.29-1.95,20.52,20.52,0,0,1,.29-2.63c0-.28,0-.23.06,0s.41.61.65,1.1a7.31,7.31,0,0,1,.53,5.77,8,8,0,0,1-2.12,3.46,4.87,4.87,0,0,1-2.24,1,5,5,0,0,1-2.33-.17,4.9,4.9,0,0,1-2.39-1.51,6.94,6.94,0,0,1-1.28-3.58,13.94,13.94,0,0,1-.17-2.64c0-.19,0-.37.05-.57.08-.71.19-.95.19-1.1s0-.08,0-.1a6.4,6.4,0,0,0,.33.7c.73,1.47,1.43,3.09,2.09,4.21a4.24,4.24,0,0,0,.73.95,2.08,2.08,0,0,0,.71.42Z"/><path class="cls-1" d="M231.35,128.7a3.46,3.46,0,0,1-3.15,1.4c-3-.36-6,.2-7.71,2.12a8.47,8.47,0,0,0-1.79,6.63,15.84,15.84,0,0,0,2.15,6.19,16.85,16.85,0,0,0,4.44,4.84,13.79,13.79,0,0,0,3.42,1.79,15.49,15.49,0,0,0,1.78.46,16.34,16.34,0,0,0,1.84.17,1.78,1.78,0,0,1,.61,0,1,1,0,0,1,.23,1.51c-.1.12-.22.32-.33.32-1,0-2.05.83-3.24.54a20.19,20.19,0,0,1-6.19-2.52q-.56-.39-1.08-.81c-.33-.31-.66-.62-1-.94s-.73-.88-1.09-1.32l-1-1.41a22.91,22.91,0,0,1-2.56-5.22,17.35,17.35,0,0,1-.83-4.68,11.6,11.6,0,0,1,1-5.27,8.57,8.57,0,0,1,3.73-4,10.28,10.28,0,0,1,4.46-1.16,11.74,11.74,0,0,1,1.79,0,11.19,11.19,0,0,1,1.38.15c.77.13,1.24.19,1.32.23A13.44,13.44,0,0,1,231.35,128.7Z"/><path class="cls-1" d="M264.54,81.8c.22-3.36,2.4-9.67,6.4-10,2.19-.2,3.55-2.84.55-2.57-6.37.58-10.92,7-11.31,13.1-.12,1.87,4.26,1.06,4.36-.5Z"/><path class="cls-1" d="M222.64,137a20.05,20.05,0,0,0,10.91-3.48c4.73-3.52,4.46-10.92,10.57-13.38,2.84-1.14.22-2.2-1.62-1.46-4.14,1.66-6.85,4.82-8.93,8.68-1.11,2.06-1.68,4.57-3.76,5.9a11.48,11.48,0,0,1-5.4,1.57c-1.43,0-4.67,2.24-1.77,2.17Z"/><path class="cls-1" d="M213.73,141c4.15-.62,8.79-2.09,11.47-5.55,2.32-3,2.3-8.33,5.58-10.56,1.5-1-2.22-.5-2.87-.05-2.28,1.56-3.18,4.07-4.15,6.56-1.8,4.6-3.93,7.49-9.31,8.29-1.48.22-3.39,1.7-.72,1.31Z"/><path class="cls-1" d="M236,134.59a13,13,0,0,0,9.54-6c2.2-3.7,3.24-10.19,7.64-12,2.78-1.14.29-3-1.82-2.17-3.74,1.53-5.78,5-7.43,8.53-1.53,3.27-3,8.56-7.44,8.87-2.3.17-3.48,3-.49,2.8Z"/><path class="cls-1" d="M246.49,128.78c3.74,0,9.1-1.28,11.42-4.48,3-4.08,2.4-10.34,6.88-13.47.84-.59-.77-.56-1-.56a5.53,5.53,0,0,0-2.92,1c-2.83,2-4,5.46-5.08,8.58-1.16,3.32-2,7.28-6.45,7.32-.84,0-4.88,1.64-2.86,1.62Z"/><path class="cls-1" d="M261.17,123.23a16.85,16.85,0,0,0,7.74-4.28c3-2.92,3-7.35,5.59-10.56.85-1-.73-1.39-1.49-1.4a5.25,5.25,0,0,0-3.84,1.5c-3.1,3.88-3.41,11.18-8.66,12.28-.72.16-2.85.94-2.57,2s2.58.59,3.23.45Z"/><path class="cls-1" d="M299.18,122.81c-8-.88-7-10.6-12.82-14.4-1.11-.72-4.9,1-4.08,1.56,3.76,2.44,4.47,6.77,6.51,10.42,1.55,2.77,4.58,4.07,7.62,4.4,1.09.12,5-1.73,2.77-2Z"/><path class="cls-1" d="M308.79,123.77c-2,0-4,.7-5.37-1.28s-1.62-5.22-2.61-7.6c-.46-1.12-4.71.27-4.34,1.17,1.08,2.6,1.13,6.35,3.23,8.4a5.43,5.43,0,0,0,3.51,1.36,12.43,12.43,0,0,0,1.83,0c.22,0,1.66-.14,1-.15a5,5,0,0,0,3.07-.83c.58-.46.68-1-.28-1Z"/><path class="cls-1" d="M228.8,154.31a42.08,42.08,0,0,1,1.21,7.56,14,14,0,0,1-.45,5.58c-.86,2.39-2.32,1.58-4.26.56-.74-.39-3.42.73-2.33,1.3,4.37,2.31,9.19,1.22,9.88-4.15a32.16,32.16,0,0,0-1.15-11.62c-.22-.88-3.12-.13-2.9.77Z"/><path class="cls-1" d="M294.27,155.94c.46,2.78,1.38,7.72,4.38,8.95,4.65,1.89,7.22-5,8.32-8.11.36-1-2.55-.65-2.9.35a18.65,18.65,0,0,1-3,5.92c-.14.16-.67.46-.42.43s.25,0,.09-.1a3.32,3.32,0,0,1-1.05-1c-1.54-2-2.15-4.84-2.55-7.25-.17-1-3.08-.34-2.89.77Z"/><path class="cls-1" d="M281.35,367.27c-2.45,4.76-10.72,3.2-14,7.78-7.23,10.09-14,0-14,0-1.81-32.19-1.31-84.48.56-128.58,5,6.72,15,16.5,26,6q0,12.8.31,25.58C280.47,291.16,282.32,365.37,281.35,367.27Z"/><path class="cls-1" d="M276.65,257a14.08,14.08,0,0,1-13.94-.25,26,26,0,0,1-5.5-4.15c-.4-.4-.81-.79-1.19-1.2l-.29-.32-.08-.11c-.12-.14-.23-.29-.35-.46a1.71,1.71,0,0,0-.05.4l-.05.77-.23,5.27-.41,10.56c-.21,5.71-.31,11.43-.47,17.15-.57,20.15-.92,40.31-.73,60.46.1,8.94.36,17.93.84,26.78l.12,2.14,0,.47a.63.63,0,0,0,0,.24l.16.19.31.38a10.92,10.92,0,0,0,3,2.45,5.41,5.41,0,0,0,6.62-1.14l.71-.66.63-.78.63-.78c.27-.32.54-.65.82-.95a11,11,0,0,1,4.1-2.36c1.42-.49,2.83-.81,4.17-1.19a11.73,11.73,0,0,0,3.6-1.52l.43-.31.33-.29a3.62,3.62,0,0,0,.48-.46c.26-.24.46-.32.56-.24s.22,1.13-.87,2.41-3.26,2.38-5.65,3.27a26.4,26.4,0,0,0-3.55,1.58,6,6,0,0,0-.77.5,5.48,5.48,0,0,0-.67.58,4.93,4.93,0,0,0-.56.65l-.83,1c-.26.32-.49.64-.77.94l-.92.86a11.48,11.48,0,0,1-2.12,1.53,8,8,0,0,1-5.5.73,10.79,10.79,0,0,1-4.59-2.51,15.22,15.22,0,0,1-1.71-1.79c-.09-.11-.35-.45-.56-.74a3.46,3.46,0,0,1-.29-.45l0-.54-.07-1.35c-.31-5.84-.48-11.68-.61-17.53-.25-11.69-.21-23.4,0-35.16.26-14.05.34-28.69.78-43.07l.53-15.86.32-7.93.2-4.55.14-3.16.07-1.57,0-.78c0-.24,0-.6.07-.67l2,2.61c.68.87,1.36,1.76,2.05,2.54s1.06,1.18,1.55,1.66a18.78,18.78,0,0,0,1.38,1.3,19.07,19.07,0,0,0,6.29,3.86,10.88,10.88,0,0,0,6.58.22,7.53,7.53,0,0,0,.81-.24l.78-.34a7.41,7.41,0,0,0,1.51-.77l.78-.5a9,9,0,0,0,1.15-.85l2.12-1.72.53-.42.26-.22s0,.21,0,.31l0,1.38,0,2.76,0,4,.06,7.29q0,5.52.1,11.05c.06,3.68.13,7.37.19,11.05q.24,11.06.47,22c.32,11.37.62,22.51.93,33.74.06,2.48.12,4.9.17,7.4.12,9.25-.13,12.23-.93,14.2a4.32,4.32,0,0,1-.61,1.24c-.16.15-.26,0-.35-.23a11.08,11.08,0,0,1-.23-1.7c-.13-1.66-.26-4.29-.35-7.67-.57-20.05-1.14-41.23-1.6-62.49-.16-7.89-.38-15.8-.42-23.74l-.11-11.89,0-3v-.28c0-.09,0,0-.07,0l0,0-1.38.88Z"/><path class="cls-1" d="M253.38,232.73l.66-10c.08-1.22.07-2.44.16-3.66l.9-12.87c.13-1.9.17-3.82.2-5.71a52.26,52.26,0,0,1,.32-7.3c.23-1.51,2.74.54,2.65,3.34-.14,5-.45,9.92-1,14.9-.33,3-.34,6.1-.51,9.16l-.61,10.09-.36,6.21c-.16,3.14-.37,6.29-.45,9.4-.06,2.42,0,4.8.06,7.2,0,.53,0,1.05,0,1.58,0,2-.23,2.59-1,3a2.91,2.91,0,0,1-.49.26c-.56.17-1-.65-1.09-2.1a121.14,121.14,0,0,1,0-13.35c.13-3.36.32-6.74.49-10.11Z"/><path class="cls-1" d="M281.73,223.4l-.44,11.21c-.05,1.37,0,2.73-.07,4.09-.19,4.81-.4,9.62-.55,14.42-.06,2.14-.05,4.28,0,6.4a69.41,69.41,0,0,1,0,8.16c-.18,1.7-2.76-.44-2.79-3.58,0-5.57.11-11.13.53-16.73.25-3.35.17-6.84.27-10.27l.38-11.3.24-7c.11-3.51.27-7,.31-10.53,0-2.71-.08-5.37-.12-8.06,0-.59,0-1.17,0-1.77,0-2.21.23-2.9,1-3.35a2.58,2.58,0,0,1,.5-.29c.55-.19,1,.72,1.08,2.34.32,4.79.27,9.83.16,14.9-.11,3.76-.21,7.54-.32,11.31Z"/><path class="cls-1" d="M204.85,326.28c.61-1.92,1.26-3.83,1.89-5.73.23-.69.38-1.41.62-2.1.87-2.43,1.82-4.83,2.72-7.24.39-1.07.71-2.17,1-3.26a14.87,14.87,0,0,1,1.42-4.13c.49-.79,3,1.3,2.55,2.87a61.23,61.23,0,0,1-3.18,8.27,43.44,43.44,0,0,0-1.74,5.16c-.62,1.9-1.25,3.8-1.85,5.71-.36,1.17-.73,2.34-1,3.53-.5,1.79-1,3.59-1.32,5.4-.11.71-.19,1.42-.24,2.12l-.09,2.11c0,.31,0,.61,0,.92-.06,1.13-.31,1.46-1.19,1.64-.2,0-.4.1-.6.12-.67.07-1.17-.46-1.26-1.37a25.44,25.44,0,0,1,.72-8.13c.43-2,1-3.95,1.53-5.91Z"/><path class="cls-1" d="M159.61,325.47a144.83,144.83,0,0,0-4.13,14.71,55.2,55.2,0,0,0-1.1,7.41,38.9,38.9,0,0,0,.06,7.4,32.62,32.62,0,0,0,1.51,7.14,31.2,31.2,0,0,0,3.42,6.43A87.68,87.68,0,0,0,169,380.29c2.57,2.68,5.28,5.25,8.06,7.73s5.67,4.83,8.6,7.14A159.27,159.27,0,0,0,212,412.05a117.53,117.53,0,0,0,14.39,6.13c1.23.42,2.47.8,3.71,1.2s2.51.7,3.76,1.06l3.8.88,1.43.26a6.12,6.12,0,0,0,.82.14c-.05-.45-.2-4.07-.17-6.65,0-2.74.14-5.49.4-8.23a57.57,57.57,0,0,1,2.7-13.48,27.25,27.25,0,0,1,3.08-6.3,12.46,12.46,0,0,1,1.08-1.43,10.93,10.93,0,0,1,1.22-1.33l.32-.32c.12-.12.15-.13.22-.2l.4-.32a8.24,8.24,0,0,1,.69-.46c.06,0,0-.05,0-.08l-.09-.08-.19-.16-.38-.33-1.28-1.09c-1-.91-2.09-1.8-3.17-2.65a164.89,164.89,0,0,0-18.28-12.89,141.08,141.08,0,0,0-19.84-10.16c-2.14-.86-3-1.34-2.85-1.63s1.37-.35,3.38,0c4,.62,11.18,2.94,18.77,7.39a158.18,158.18,0,0,1,14.21,9.42l3.4,2.57,3.31,2.68q1.66,1.32,3.25,2.75l5.31,4.63-2.34,1.48-2,1.4-.22.16-.1.11-.21.2-.41.4c-.28.26-.5.59-.76.88a19.63,19.63,0,0,0-2.5,4.16A40.72,40.72,0,0,0,244,402a79.14,79.14,0,0,0-1,10.48q-.11,2.65-.06,5.31c0,.9,0,1.76.07,2.68.07,1.66.23,3.37.38,5.06l-6.17-1.11-3.81-.89-3.77-1.07-3.71-1.22c-17.72-6.29-34.48-16.65-48.95-29.08a147.84,147.84,0,0,1-11.36-10.9c-1.79-1.92-3.54-3.9-5.18-6a62.26,62.26,0,0,1-4.62-6.48c-.36-.57-.71-1.14-1-1.74s-.66-1.18-.93-1.82a15.62,15.62,0,0,1-.8-1.91,14.66,14.66,0,0,1-.6-2,36.42,36.42,0,0,1-1.28-7.95,55.84,55.84,0,0,1,1.65-15.82c1.49-6.33,3.58-12.4,5.52-18.5s4.22-12.15,6.63-18.1a323.16,323.16,0,0,1,27.33-51.4q6.08-9.47,12.45-18.52a50.21,50.21,0,0,1,7.44-8.53,52.36,52.36,0,0,1,9.22-6.57,67.84,67.84,0,0,1,8.92-4.31,87.5,87.5,0,0,1,12.41-4,20.45,20.45,0,0,1,5.77-.75,13.22,13.22,0,0,1,1.82.1c.65.16-.19.71-2.25,1.53s-5.34,1.91-9.51,3.35c-3.09,1.09-6.15,2.26-9.15,3.59a68.41,68.41,0,0,0-8.66,4.62,46,46,0,0,0-7.69,6,47,47,0,0,0-3.33,3.59l-1.5,1.95c-.5.64-1,1.39-1.48,2.08-7.92,11.19-15.49,22.86-22.38,34.94a308.59,308.59,0,0,0-14,27.66c-1.07,2.36-2,4.77-3,7.14s-1.91,4.81-2.78,7.24c-1.79,4.86-3.35,9.73-4.93,14.74Z"/><path class="cls-1" d="M179.93,352.88c.68-.24,5.34-1.69,5.83-1.77s2-.37,2.17-.44,2.68-.33,3.16-.39c.12,0,1.83-.17,3.61-.25s3.61-.08,4-.14a18.75,18.75,0,0,1,2.05,0c.9.08,1.79.16,2.1.16s.16,1.34,0,1.36a13,13,0,0,1-2.06.12,41.59,41.59,0,0,0-4.8.38c-.7.16-1.4.3-2.1.48l-1,.24c-.91.21-1.81.44-2.7.7l-2.47.82c-1.22.36-2.44.7-3.64,1.1l-2,.74c-.4.14-.83.18-1.23.3s-.69-.44-1.1-1.13A2.27,2.27,0,0,1,179.93,352.88Z"/><path class="cls-1" d="M235,225.83c1.44-1.52,2.88-3,4.31-4.56.52-.56,1-1.18,1.49-1.73,1.86-1.94,3.75-3.86,5.6-5.81.81-.87,1.56-1.81,2.29-2.74a16.94,16.94,0,0,1,3-3.45c.77-.58,2.35,2.34,1.24,3.69a59.56,59.56,0,0,1-6.44,6.77,54,54,0,0,0-3.86,4.24c-1.42,1.55-2.86,3.09-4.28,4.64-.88,1-1.77,1.89-2.63,2.86-1.31,1.46-2.67,2.89-3.89,4.41-1,1.17-1.75,2.44-2.61,3.68-.19.27-.35.55-.55.81-.76,1-1.18,1.14-2,.78a4.72,4.72,0,0,1-.56-.24c-.58-.34-.67-1.08-.23-1.89a39.84,39.84,0,0,1,4.88-6.77c1.36-1.6,2.79-3.16,4.19-4.74Z"/><path class="cls-1" d="M241.42,260.76c-.87-1.25-1.76-2.5-2.7-3.72-.34-.45-.75-.84-1.09-1.28-1.2-1.58-2.4-3.17-3.67-4.7a19.43,19.43,0,0,0-1.85-1.89,10.75,10.75,0,0,1-2.33-2.43c-.37-.63,2.26-2,3.22-1.1a30.41,30.41,0,0,1,4.48,5.4,42.54,42.54,0,0,0,2.74,3.31c1,1.24,1.94,2.5,2.87,3.79l1.69,2.39c.85,1.21,1.63,2.47,2.45,3.71.63,1,1.38,1.85,2,2.92.12.24.27.47.38.73.38,1,.22,1.45-.52,1.75a3.52,3.52,0,0,1-.51.19,1.34,1.34,0,0,1-1.43-.58L244,264.54c-.84-1.24-1.7-2.5-2.62-3.73Z"/><path class="cls-1" d="M302,244.12l1.81-1.62.82-.73.34-.26s.19-.09.15-.14a1.28,1.28,0,0,1-.1-.17l-.05-.08v0l-.07-.1-.14-.21-.55-.82-1-1.64c-.71-1.17-1.48-2.29-2.15-3.47-2.36-4.17-4.55-8.39-6.8-12.59-1-1.86-2.06-3.69-3.14-5.48a60.67,60.67,0,0,1-4-7,.48.48,0,0,1,0-.43c0-.06.11,0,.16-.09a.55.55,0,0,1,.14-.17.79.79,0,0,1,.47-.27,2.63,2.63,0,0,1,.73,0,4.94,4.94,0,0,1,3.19,2.31c2.77,4.76,5.33,9.59,7.72,14.59,1.43,3,3.28,5.88,5,8.76.53.89,1.06,1.78,1.61,2.65l.83,1.29.42.62.29.4.39.5a9.23,9.23,0,0,0,.39,1.41c.13.16,0,.33-.05.6l-.16.77-2.24,2c-1.69,1.52-3.37,3.06-5,4.66-2.47,2.41-4.93,4.86-7.14,7.46a49.43,49.43,0,0,0-4.49,6.38l-.82,1.46c-1,1.8-1.28,2.24-2.28,2.39a5.43,5.43,0,0,1-.67.1c-.36,0-.58-.24-.65-.72a3.34,3.34,0,0,1,0-.89,3.83,3.83,0,0,1,.31-1.13A28.59,28.59,0,0,1,289,257.9a69.8,69.8,0,0,1,4.89-5.85c2.56-2.78,5.27-5.4,8-8Z"/><path class="cls-1" d="M234,307.23c.45-3.33,1-6.64,1.57-9.93.2-1.2.34-2.41.57-3.61.8-4.21,1.74-8.39,2.6-12.58.38-1.85.66-3.73.92-5.59.29-2.38.48-4.8.95-7.06.17-.71,1-.62,1.74.07a4.12,4.12,0,0,1,1.25,3.44,115.63,115.63,0,0,1-2.93,14.64c-.76,2.88-1.13,5.95-1.65,8.94-.57,3.28-1.12,6.56-1.59,9.86-.3,2-.52,4.06-.75,6.1l-.38,4.63c0,1.54-.12,3.09-.11,4.62,0,1.18.14,2.36.25,3.53s.36,2.3.52,3.45c.09.5.16,1,.29,1.49.39,1.85.27,2.47-.49,3.07a4.81,4.81,0,0,1-.52.4c-.61.34-1.28-.34-1.74-1.77a41,41,0,0,1-1.4-13.53c.09-3.42.44-6.81.82-10.18Z"/><path class="cls-1" d="M292.92,309.05c-.05-3.36-.2-6.74-.44-10.12-.09-1.23-.28-2.46-.38-3.69-.34-4.35-.72-8.71-1.17-13.07-.2-1.93-.49-3.87-.78-5.79a27.86,27.86,0,0,1-.59-7.56c.11-.83.94-.65,1.74,0a4.67,4.67,0,0,1,1.76,3.09c.52,4.9,1.16,10,1.37,15.07.14,3.07.67,6.22.94,9.34q.45,5.16.64,10.35c.09,2.12.1,4.26.11,6.39,0,3.22-.15,6.47-.39,9.68-.18,2.49-.3,5-.72,7.46-.1.54-.14,1.09-.29,1.64-.5,2-1,2.59-1.94,2.7a2.88,2.88,0,0,1-.64.06c-.68-.07-.91-1-.65-2.39a111,111,0,0,0,1.3-13c.14-3.34.17-6.73,0-10.12Z"/><path class="cls-1" d="M331.13,261.78c-1.45-5.91-3.09-11.78-5.1-17.5-.74-2.08-1.61-4.11-2.44-6.16C320.65,231,317,224,311.9,218.23a31.3,31.3,0,0,0-7.87-6.35A34.71,34.71,0,0,0,291.87,208c-1.32-.21-1.15-1,.1-1.74a8.67,8.67,0,0,1,6.37-.5,31.77,31.77,0,0,1,12.67,7A46.2,46.2,0,0,1,319.89,224a111.41,111.41,0,0,1,7.58,15.33,168.8,168.8,0,0,1,5.71,17.79c1,3.7,1.88,7.41,2.74,11.12,1.3,5.63,2.44,11.31,3.72,16.88,1,4.32,2.16,8.53,3.46,12.67.28.91.61,1.78.91,2.68,1.16,3.33,1.51,4.23,1.13,5.32a4,4,0,0,1-.22.74c-.18.34-.58.27-1.17-.22a8.83,8.83,0,0,1-1.81-2.69,70.81,70.81,0,0,1-3.86-11.66c-1-4-1.93-8.05-2.84-12.1-1.34-6-2.64-12.05-4.18-18Z"/><path class="cls-1" d="M278.23,387.55a43.87,43.87,0,0,0-10.2,2.21,25.77,25.77,0,0,0-8.77,5,15.69,15.69,0,0,0-4.88,8.32,18.22,18.22,0,0,0,.83,9.83,35,35,0,0,0,8.36,12.54c6.38,6.46,14.44,11.25,22.94,14.75a113.31,113.31,0,0,0,26.8,7,104.82,104.82,0,0,0,24.57.69,61.81,61.81,0,0,0,15.19-3.28,32.42,32.42,0,0,0,6.79-3.4A16.45,16.45,0,0,0,365,436c.4-.64.64-1.13.87-1.42s.42-.39.56-.32.24.32.28.75a4.88,4.88,0,0,1-.16,1.76,12,12,0,0,1-3.06,5.43,21.45,21.45,0,0,1-7.31,5,58.48,58.48,0,0,1-16.33,3.94,100.87,100.87,0,0,1-16.57.33,122.2,122.2,0,0,1-32.38-6.39,93.69,93.69,0,0,1-18.28-8.57A56.18,56.18,0,0,1,257.21,423a32.58,32.58,0,0,1-5.3-10.15,20.45,20.45,0,0,1-.25-11.63,19.14,19.14,0,0,1,6.54-9.59,28.59,28.59,0,0,1,4.85-3.12,38.54,38.54,0,0,1,5.28-2.12A53,53,0,0,1,282,384.11a80.34,80.34,0,0,1,13.7.66,110.16,110.16,0,0,1,20.15,4.67A172.76,172.76,0,0,1,335,397a128.59,128.59,0,0,1,13.94,7.5,68,68,0,0,1,12.48,9.83,35.66,35.66,0,0,1,4.45,5.57,17.24,17.24,0,0,1,3.05,9.18,9.18,9.18,0,0,1-.34,2.61,6.48,6.48,0,0,1-1.69,2.64c-.44.28-.48-.45-.43-1.9a17.78,17.78,0,0,0-1-6.41c-1.46-4-4.37-7.61-7.67-10.77a72.41,72.41,0,0,0-11.19-8.44A119,119,0,0,0,333.9,400c-4.37-2.07-8.88-3.91-13.46-5.57a119.56,119.56,0,0,0-20.82-5.77,76,76,0,0,0-21.36-1Z"/><path class="cls-1" d="M270.82,405.51a22.64,22.64,0,0,0,5.42-4.29c1.36-1.39,3.56-3.14,4.49-4.84.73-1.34-1.16.4-1.1.1,0,0,.95,1.66,1,1.94a5.79,5.79,0,0,1-.35,3.29c-1.05,2.44-3.54,4.68-5.71,6.1-2,1.28,1.07,1.64,2.13.94,2.65-1.73,5.64-4.31,7-7.28.93-2.08.9-6-1.71-6.93-2-.7-3.79,1.09-5,2.37-2.56,2.74-4.9,5.87-8.27,7.66-.6.32-.88.83-.32,1.28s1.93-.06,2.46-.34Z"/><path class="cls-1" d="M278.44,410.32a20.23,20.23,0,0,1-5.48-1.45,16.52,16.52,0,0,1-1.88-.83,10.75,10.75,0,0,1-3-2.4,4.09,4.09,0,0,1-.95-2.12,2.77,2.77,0,0,1,.18-1.28,5.18,5.18,0,0,1,.31-.57l.34-.42a6.18,6.18,0,0,1,3.05-1.83,6.39,6.39,0,0,1,4.19.09c.41.18.16.83-.29,1.42s-1.07,1.13-1.65,1.11a5.5,5.5,0,0,0-2.68.49,2.8,2.8,0,0,0-.46.3,1.11,1.11,0,0,0-.19.18c-.09.08-.1.09-.12.09s-.2.1-.09.48a3.06,3.06,0,0,0,1.22,1.35,13.77,13.77,0,0,0,1.89,1.06,17.64,17.64,0,0,0,4.68,1.55,11.61,11.61,0,0,0,3,.19,6.7,6.7,0,0,0,2.12-.48,2.75,2.75,0,0,0,1.44-1.21,1.88,1.88,0,0,0-.76-2.28,4.26,4.26,0,0,0-.5-.32c-.67-.37-.87-.58-.83-1.33a3,3,0,0,1,0-.52c.09-.26.15-.5.44-.61a1.56,1.56,0,0,1,1.1,0,5,5,0,0,1,1.93,1.14,4.47,4.47,0,0,1,1.27,2.25,4.23,4.23,0,0,1-.32,2.81,5.12,5.12,0,0,1-1.82,2,7.9,7.9,0,0,1-3.15,1.13,14.17,14.17,0,0,1-3,.08Z"/><path class="cls-2" d="M285.47,426.62s4.12-3.43,6.7-1.65,2.19,2.41,3.85,2.61,4.85.79,3.41,2.41-4.41,5-8,3.11-6.05-.17-6.08-2.4S282.93,428.69,285.47,426.62Z"/><path class="cls-1" d="M336.61,419.16s-3.5-2.81-5.66-1.39-1.83,1.93-3.22,2.08-4.08.6-2.86,1.92,3.77,4.09,6.78,2.59,5.1-.08,5.11-1.89S338.77,420.86,336.61,419.16Z"/><path class="cls-3" d="M344.19,431.4s3.67-2.59,5.73-1,1.71,2,3.09,2.27,4,.85,2.74,2.09-4,3.85-6.93,2.18-5.08-.4-5-2.21S341.93,433,344.19,431.4Z"/><path class="cls-1" d="M309.22,401.91s4.21-1.57,5.81.45,1.13,2.41,2.41,3,3.69,1.85,2.11,2.72-4.86,2.7-7.25.33-4.82-1.68-4.25-3.4S306.64,402.84,309.22,401.91Z"/><path class="cls-4" d="M256.45,416.73h0a.21.21,0,0,1-.17.07c-2.27-.81-4.59-1.54-6.88-2.21s-4.56-1.31-6.74-2.08a.18.18,0,0,1-.08-.15s0,0,0,0a5.44,5.44,0,0,0-.77,1.67,4.9,4.9,0,0,0-.45,1.78h0c.07-.06.12-.08.17-.07l.56.2c2.22.76,4.44,1.38,6.61,2s4.32,1.32,6.44,2.07c0,0,.07.06.08.15s0,0,0,0a5.19,5.19,0,0,0,.77-1.67A4.9,4.9,0,0,0,256.45,416.73Z"/><path class="cls-4" d="M254.61,395.6s0,0,0,0-.1.09-.13.08c-3.23-1-6.44-2.24-9.61-3.55,0,0,0-.06,0-.13s0,0,0,0a7.19,7.19,0,0,0-.81,1.64,6.19,6.19,0,0,0-.58,1.74l0,0c.06,0,.11-.08.14-.06l.4.16c3.11,1.27,6.25,2.47,9.5,3.49,0,0,0,.05.06.13s0,0,0,0a6.59,6.59,0,0,0,.66-1.71A6.47,6.47,0,0,0,254.61,395.6Z"/><path class="cls-1" d="M349.79,331.69c-4.87.84-9.32,2.05-13.89-.34a22.51,22.51,0,0,1-4.3-2.93c-1.05-.9-1.84-2.56-2.83-3.33.55.42-2.65-3.15-1.34-.29.26.57,2.18,1.21,2.85,1.56a22.93,22.93,0,0,0,6.28,2.46c4.21.87,8.63.12,12.83-.46,1.92-.27,3.74-2.44.69-2-4.6.63-9.11,1.32-13.54-.52-2.37-1-5.09-3.51-7.68-3.68-2.34-.16-5.28,1.57-4.44,4.1,1.12,3.39,5.79,6,8.8,7.41,5.21,2.4,10.43,1,15.87,0,1.9-.32,3.73-2.53.7-2Z"/><path class="cls-1" d="M343.88,351.5c-4.09.43-7.73-1.54-10.87-4a19.41,19.41,0,0,1-3.06-2.88c-.3-.36-1.48-2.62-1.53-2.62.9,0,3.13-1.4,1.2-1.36-1.22,0-3.42.31-3.86,1.75s1.53,3.4,2.42,4.3c4.12,4.13,9.36,6.7,15.22,6.09,1.28-.14,2.52-1.5.48-1.29Z"/><path class="cls-1" d="M344.3,345.33c-5-.19-8.77-.24-12.75-3.61-.76-.64-6.35-6.83-4.09-7,1.79-.1,2.83-2.24.43-2.09-1.7.1-4,.73-4.43,2.67s1.35,4.13,2.49,5.45a20.94,20.94,0,0,0,6.81,5.3c3.2,1.5,6.78,1.24,10.23,1.37,1.42.06,3.66-2,1.31-2.12Z"/><path class="cls-1" d="M346.78,338.54c-5.16.24-9.68.83-14-2.49A19.3,19.3,0,0,1,329,332.2c-.51-.7-1.47-3.33-1.85-3.29,2-.24,3.37-2.58.55-2.24-5.84.71-4.28,5.25-1.29,8.53a19.15,19.15,0,0,0,7.27,5.15c3.59,1.31,7.79.66,11.53.49,1.49-.07,4.29-2.43,1.57-2.3Z"/><path class="cls-5" d="M336.08,322.11c-1.52.5-3.32.62-4-.68-1.33-2.44,2.67-7.47,4.4-8.53,2.51-1.55,5.28.18,7.19,2"/><path class="cls-4" d="M292.2,372.77a.26.26,0,0,0,.05-.09,1.07,1.07,0,0,1,.24-.43l34.12-37.19a1,1,0,0,1,.39-.26l.08-.05c.23-.25-.19-1-.94-1.69s-1.53-1-1.76-.79a.36.36,0,0,0,0,.09,1.09,1.09,0,0,1-.25.43l-1.38,1.51L290,370a1.07,1.07,0,0,1-.39.26l-.08.05c-.23.25.19,1,.93,1.69S292,373,292.2,372.77Z"/><path class="cls-4" d="M335,325.1a.16.16,0,0,0,0-.07,1.08,1.08,0,0,1,.22-.41l31.26-34.07a.8.8,0,0,1,.37-.24.12.12,0,0,0,.07-.05c.21-.22-.22-1-1-1.64s-1.51-1.06-1.72-.83a.2.2,0,0,0,0,.08,1,1,0,0,1-.22.4l-1.27,1.39-30,32.69a.87.87,0,0,1-.37.23.18.18,0,0,0-.07.05c-.21.23.22,1,1,1.65S334.76,325.33,335,325.1Z"/><path class="cls-1" d="M322.11,351a10.86,10.86,0,0,0,.39,8.21c3.25,6.45,12.41,6.62,18.56,6.32,1.32-.07,4-2.14,1.5-2-5.69.28-14.47.17-16.76-6.41a10.25,10.25,0,0,1,.07-6.61c.41-1.15-3.33-.69-3.76.51Z"/><path class="cls-4" d="M330,346.74s0,0,0,0,0,.13,0,.16l-7.73,8.46s-.08,0-.15,0h0a6.29,6.29,0,0,0,1.26,1.34,6.22,6.22,0,0,0,1.44,1.13,0,0,0,0,0,0,0c0-.08,0-.13,0-.16l.32-.34,7.41-8.12s.08,0,.16,0h0a6.33,6.33,0,0,0-1.26-1.33A6,6,0,0,0,330,346.74Z"/><path class="cls-1" d="M327.21,380a31.2,31.2,0,0,0,10.5-.89,21.59,21.59,0,0,0,3.49-1.41,24.65,24.65,0,0,0,9.87-9.14,28,28,0,0,0,2.67-5.57c.88-2.49,1.36-5.09,2.17-7.62.26-.78,1.06-.56,1.71.29a4.68,4.68,0,0,1,.79,1.71,5.28,5.28,0,0,1,0,2.27A32.7,32.7,0,0,1,350,374.85a29.63,29.63,0,0,1-8.82,6.32,31.58,31.58,0,0,1-11.57,2,34.28,34.28,0,0,1-7.14-.74,20.63,20.63,0,0,1-9.83-4.8,14.52,14.52,0,0,1-2.73-3.4,13.6,13.6,0,0,1-1.49-4.14,12.42,12.42,0,0,1-.23-1.92c0-2.41.42-3.12,1.31-3.45a3.27,3.27,0,0,1,.63-.2c.7-.08,1,.89,1.1,2.36a13.22,13.22,0,0,0,1.62,6.05,11.71,11.71,0,0,0,4.51,4.28,23.84,23.84,0,0,0,9.88,2.64Z"/><path class="cls-1" d="M184.55,427.33q.64-2.54,1.22-5.12c.13-.63.17-1.27.31-1.9.5-2.21,1-4.43,1.44-6.66a25.4,25.4,0,0,0,.36-3,12.61,12.61,0,0,1,.49-3.82c.3-.77,3.27.57,3.12,2.06a38.47,38.47,0,0,1-1.52,7.82,44.66,44.66,0,0,0-.9,4.8c-.35,1.76-.75,3.51-1.15,5.26l-.77,3.23c-.41,1.63-.83,3.27-1.24,4.89-.3,1.27-.45,2.56-.81,3.87a6.28,6.28,0,0,1-.25.89c-.43,1.08-1,1.38-1.78,1a5.29,5.29,0,0,1-.54-.25,1.47,1.47,0,0,1-.57-.7,1.49,1.49,0,0,1-.1-.39,1.42,1.42,0,0,1,0-.46c.35-1.94.86-4.21,1.4-6.47.4-1.69.83-3.39,1.2-5.12Z"/><path class="cls-1" d="M324.59,391.36c.07-.52.15-1,.21-1.55,0-.19-.05-.37,0-.55.1-.67.26-1.33.35-2a2.35,2.35,0,0,0-.09-.87c-.1-.36-.35-.72,0-1.1s3.31-.12,3.37.29a3.7,3.7,0,0,1-.36,2.27c-.23.47-.06.93-.09,1.39s-.1,1-.15,1.53c0,.32-.07.64-.08,1a6.74,6.74,0,0,0,0,1.42,4.64,4.64,0,0,0,.47,1.05,1.27,1.27,0,0,1,.13.22c.07.29-.13.41-1,.55l-.58.09a2,2,0,0,1-1.42-.18,2.84,2.84,0,0,1-.81-2c0-.51,0-1,0-1.55Z"/><path class="cls-1" d="M280.76,194.8c-.18,3.43-.81,4.33-.95,7.94-10.53,3.56-18.25-.77-23.56-4.83.12-2.48.23-2.89.35-5.23C261.66,195.79,270.42,198.37,280.76,194.8Z"/><path class="cls-1" d="M257.82,194.87l0,0a1,1,0,0,0-.07.26l-.21,2.11,0,.12.08.07.31.25.46.34c.6.46,1.23.88,1.86,1.29a28.77,28.77,0,0,0,3,1.62,20.84,20.84,0,0,0,11.57,2.2,18.23,18.23,0,0,0,2.64-.46c.42-.08.9-.26,1.25-.36.17-.09.5-.06.41-.34,0-.12,0-.92.09-1.49s.14-1.21.24-1.8c.19-1.13.38-2.25.58-3.39.11-.7.66-.59,1.16.07a4.49,4.49,0,0,1,.64,3.31c-.1.6-.2,1.17-.28,1.73l-.1.83,0,.42,0,.66-.05.9,0,.44v.22l-.22.07-1.72.5a16.2,16.2,0,0,1-1.86.45,21.16,21.16,0,0,1-7.61.17,27,27,0,0,1-8.75-2.85,33.63,33.63,0,0,1-4.21-2.72l-1.28-1-.19-.15a1,1,0,0,1,0-.24l0-.49.06-.81.25-2.74.19-2.68,1.44.85,1.38.77.55.28.47.22c.31.16.63.28.95.41A23.92,23.92,0,0,0,276,195.12c.49-.11.95-.24,1.43-.38a13.54,13.54,0,0,1,1.92-.41,1.42,1.42,0,0,1,1,.28,2.34,2.34,0,0,1,.38.28c.32.36-.31.94-1.65,1.5a26.07,26.07,0,0,1-13.27,1.2,26.76,26.76,0,0,1-5-1.31c-.81-.3-1.6-.62-2.38-1l-.29-.13-.15-.07h0l-.08,0-.1-.07Z"/><path class="cls-1" d="M291.13,188A22.36,22.36,0,0,1,279,197l-1.82.51a17.14,17.14,0,0,1-1.85.34l-1.86.29c-.63.06-1.26.1-1.89.13a25.22,25.22,0,0,1-7.49-1,30.35,30.35,0,0,1-9.74-4.8,49.74,49.74,0,0,1-12.51-14,62.18,62.18,0,0,1-4.31-8.3,72.14,72.14,0,0,1-3-8.82c-.72-2.66-1.33-5.34-1.85-8s-.93-5.4-1.27-8.1a147.24,147.24,0,0,1-1.19-20.86c.12-4.33,2.71,1.13,3.08,9a152.09,152.09,0,0,0,2.32,20.82,71.83,71.83,0,0,0,6.5,19.72,50.62,50.62,0,0,0,7.19,10.43,38.61,38.61,0,0,0,9.8,8,23.53,23.53,0,0,0,13.15,3.18l.85,0,.86-.14,1.71-.27a10.71,10.71,0,0,0,1.67-.41l1.66-.47,1.57-.67.79-.33c.26-.12.49-.29.74-.43l1.47-.87c.46-.32.9-.7,1.35-1a21.87,21.87,0,0,0,5.28-6.55,38,38,0,0,0,2.94-8.1,71,71,0,0,0,1.65-13.14c.18-4.44.08-8.89-.15-13.3-.34-6.88-1.14-13.6-1.54-20.45-.07-1.52-.17-3-.17-4.54s.05-2.61.1-3.61a20.94,20.94,0,0,1,.35-2.46,10.85,10.85,0,0,1,.5-1.59,4,4,0,0,1,.68-1,4.4,4.4,0,0,1,.65-.65c.7-.32.38,1.84.3,5.83-.05,6,.6,12.17,1.08,18.51s.95,12.81.92,19.35a87.51,87.51,0,0,1-1.15,14.66,38.64,38.64,0,0,1-5.2,14.12Z"/><path class="cls-1" d="M269.32,109.43c27.64-4.07,39.63,24.46,46.56,2.69,3.82-12-18.3-25.17-31.78-28.63-25.91-6.67-40-2.55-64.94,15.67-7,5.12-11.76,13.3-10.56,20.31C212.19,140.65,255.48,111.48,269.32,109.43Z"/><path class="cls-1" d="M226.38,92.5c2.8-1.84,5.68-3.59,8.63-5.22,1.47-.81,3-1.53,4.51-2.3s3.08-1.41,4.68-2a52.39,52.39,0,0,1,20-3.6,73.22,73.22,0,0,1,14.65,1.73c1.07.19,2.11.49,3.16.73s2.09.49,3.15.8a58.26,58.26,0,0,1,6.16,2.16,71.71,71.71,0,0,1,11.51,6.05,46.08,46.08,0,0,1,10,8.44,21.1,21.1,0,0,1,3.5,5.67,11,11,0,0,1,.52,6.77,23.78,23.78,0,0,1-2.24,5.46c-.25.44-.57.84-.86,1.26a10.47,10.47,0,0,1-1.07,1.14,6.24,6.24,0,0,1-2.88,1.44,10.87,10.87,0,0,1-6-1.1c-1.79-.77-3.46-1.68-5.13-2.56a68.27,68.27,0,0,0-13.11-5.82,41.36,41.36,0,0,0-6.94-1.45,40,40,0,0,0-7.09-.16c-2.93.26-2.67-.32-.16-1.15a22.19,22.19,0,0,1,5.36-.85,28.42,28.42,0,0,1,7.76.87,60.3,60.3,0,0,1,14,5.87c2.18,1.17,4.32,2.4,6.47,3.32a12,12,0,0,0,3.14.91,3.94,3.94,0,0,0,2.64-.55c1.56-1,2.66-3.23,3.47-5.42a11.31,11.31,0,0,0,.83-3.2,9.8,9.8,0,0,0-.4-3.21,17.61,17.61,0,0,0-3.45-6,38.64,38.64,0,0,0-5.21-5,63.78,63.78,0,0,0-15.43-8.89,52.45,52.45,0,0,0-8.61-2.7c-1.48-.35-3-.72-4.45-1s-3-.6-4.46-.78l-2.46-.36L268,81.65c-1.64-.19-3.29-.15-4.94-.2a49.55,49.55,0,0,0-9.8,1,53.39,53.39,0,0,0-9.45,2.89,79.34,79.34,0,0,0-8.93,4.38c-3.59,2-7,4.26-10.42,6.55l-5,3.56a29,29,0,0,0-4.46,4,25.17,25.17,0,0,0-4.8,7.69,14.82,14.82,0,0,0-.73,8.81,8.19,8.19,0,0,0,2,3.78,7.67,7.67,0,0,0,1.73,1.26,10.41,10.41,0,0,0,2.05.73,21.84,21.84,0,0,0,9-.36,80.07,80.07,0,0,0,13.5-4.49c4.37-1.81,8.67-3.81,13-5.8,1.91-.88,3.77-1.76,5.71-2.62,7.2-3.17,9.81-3.7,11.6-3.54a6.25,6.25,0,0,1,1.17.17c.4.17-.17.42-1.47.9s-3.35,1.29-6,2.41c-7.76,3.34-15.57,7.36-23.87,10.71A83.39,83.39,0,0,1,225,127.8a30.12,30.12,0,0,1-7,.79,12,12,0,0,1-7.23-2.27,9.63,9.63,0,0,1-3.16-4.88,15,15,0,0,1-.54-5.52,21.86,21.86,0,0,1,3.73-10A30.6,30.6,0,0,1,218,98.28c2.76-2,5.5-3.94,8.33-5.81Z"/><path class="cls-1" d="M281.34,379.45s5.05-17.58,11.55-11.37C302.17,377,281.34,379.45,281.34,379.45Z"/><path class="cls-1" d="M288.37,124.06a3.32,3.32,0,0,1-3.12,1.84,33.81,33.81,0,0,0-5,.23,9.79,9.79,0,0,0-4.2,1.44,8.79,8.79,0,0,0-2.46,2.79,12.94,12.94,0,0,0-1.37,3.8,23.15,23.15,0,0,0-.2,7.25,28.89,28.89,0,0,0,1.76,7.12,20.38,20.38,0,0,0,1.92,3.82,12.13,12.13,0,0,0,2.64,2.87,2.37,2.37,0,0,1,.49.38,1,1,0,0,1-.62,1.39c-.16,0-.37.15-.47.09-.92-.64-2.3-.64-3.12-1.67a28.71,28.71,0,0,1-3.68-6,15.4,15.4,0,0,1-.87-2.64,29.94,29.94,0,0,1-.55-3.5,33,33,0,0,1-.35-6.08,22.54,22.54,0,0,1,.73-4.95,14.15,14.15,0,0,1,2.49-5.08,10.13,10.13,0,0,1,2.17-2,10.83,10.83,0,0,1,2.58-1.19,18.54,18.54,0,0,1,4.68-.67,39.62,39.62,0,0,1,4.6.18A15.5,15.5,0,0,1,288.37,124.06Z"/><path class="cls-1" d="M264.27,129.1a2.06,2.06,0,0,1-.58,1.59.9.9,0,0,1-.76.29c-1.5-.15-2.8-.36-4.12-.48a19.84,19.84,0,0,0-3.35-.21,13.85,13.85,0,0,0-5.49,1.56,14.51,14.51,0,0,0-1.48.85,13.06,13.06,0,0,0-1.27,1.07c-.07.07-.11.17-.22.17-.3,0-.83-.55-1-1.1-.05-.12-.14-.31-.1-.34.34-.3.07-1.3.51-1.59s.78-.55,1.16-.86a8.39,8.39,0,0,1,1.17-.89,6.12,6.12,0,0,1,1.07-.5c.47-.17,1-.18,1.48-.31a22,22,0,0,1,2.51-.56,18.39,18.39,0,0,1,4.33-.19,24.72,24.72,0,0,1,4,.62l1.71.39a.7.7,0,0,1,.25.2A2,2,0,0,0,264.27,129.1Z"/><path class="cls-1" d="M277.65,176.58a6.71,6.71,0,0,1-1.42.26,8.4,8.4,0,0,1-1.42-.08,8,8,0,0,1-1-.2,7.67,7.67,0,0,1-2.65-2c-.29-.35-.62-.64-.88-1a4,4,0,0,1-.78-1.49c-.05-.17-.08-.11,0,0a6.89,6.89,0,0,0,.83.14,6.71,6.71,0,0,1,2.8,1,1.45,1.45,0,0,0,.71.3l.38.07a2.2,2.2,0,0,1,.36,0,4.34,4.34,0,0,0,.79.13,3.92,3.92,0,0,0,.84,0,4.77,4.77,0,0,0,1.09-.18,5.51,5.51,0,0,0,1.64-.79c.4-.29.73-.63,1.15-.93.09-.06.17-.13.27-.19a4.38,4.38,0,0,1,.66-.31s0,0,0,0a2.05,2.05,0,0,0-.09.49c-.12.49-.16,1.08-.31,1.66a6.88,6.88,0,0,1-.81,1.54,7.26,7.26,0,0,1-1,1,6.56,6.56,0,0,1-1.25.69Z"/><path class="cls-1" d="M261.54,165.86c-.36.3-.78-.25-.83-1.22a5.94,5.94,0,0,1,.22-1.37,4.1,4.1,0,0,0,.26-.68,2.44,2.44,0,0,1,.42-.39c.27-.23.54-.46.71-.64a3.39,3.39,0,0,1,1.06-.66c.82-.38,1.64-.85,2.54-1.3a1.69,1.69,0,0,1,.65-.18,5.68,5.68,0,0,0,2.24-.76c.12-.06.26-.09.33-.27a5.51,5.51,0,0,1,2.6-1c.79.06,1.59.1,2.37.22.11,0,.22,0,.34.12.26.37.48.29.71.31a2.79,2.79,0,0,1,1,.25,1.51,1.51,0,0,1,.41.5c.12.17,0,.75-.07.81s-.07.46-.08.71c0,.08,0,.19,0,.25a3.6,3.6,0,0,1-.74.61,8.49,8.49,0,0,1-.75.57,8.67,8.67,0,0,0-2,.82.58.58,0,0,1-.37,0,8.21,8.21,0,0,0-.78.43l-.77.5c-.34.09-.61.39-1.08.21a.22.22,0,0,0-.21.06,9.5,9.5,0,0,1-1.8.71,7.26,7.26,0,0,0-.92.47,1.21,1.21,0,0,1-.2,0,.64.64,0,0,0-.24,0c-.74.41-1.57.6-2.39,1.09-.17.13-1.36,0-1.61.16S261.65,165.74,261.54,165.86Z"/><path class="cls-1" d="M290,162.45c.11-.29.18.21.49,1.17a4.65,4.65,0,0,1,.19,1.37,2.59,2.59,0,0,1-.45.72,1.37,1.37,0,0,1-.36.15l-.73.13a10.77,10.77,0,0,1-1.41,0,3,3,0,0,1-.79-.11,6.11,6.11,0,0,1-.66-.27c-.82-.4-1.58-.78-2.24-1.16a.94.94,0,0,1-.38-.36,2.49,2.49,0,0,0-1.34-1c-.09,0-.16-.09-.29,0a3.19,3.19,0,0,1-1.58-.52,5.65,5.65,0,0,0-1.05-1c-.05,0-.13,0-.15-.17-.07-.42-.22-.38-.35-.43a1.63,1.63,0,0,1-.56-.28,1.94,1.94,0,0,1-.27-.49,1.72,1.72,0,0,1,0-.82c.11-.18,0-.47,0-.71a1.13,1.13,0,0,1,0-.26,4.42,4.42,0,0,1,1.75-1,23.77,23.77,0,0,1,2.55.22c.14,0,.23.14.33.23s1.79.4,1.83.45c.3.19.68.21.81.67,0,.1.1.11.16.13a6,6,0,0,1,1.37.94,4.28,4.28,0,0,0,.7.37s.05.1.08.14.07.13.12.15c.52.21,1,.67,1.43.63.06,0,.16.14.26.25s.22.25.26.21S289.89,162.56,290,162.45Z"/><path class="cls-5" d="M278.94,407.76s6.16-1.2,4.33-4.57"/></g></svg>